# MagicaVoxel @ Ephtracy

# group
o 

# material
mtllib model-0.mtl
usemtl palette

# normals
vn 0 0 1
vn 0 0 -1
vn 1 0 0
vn -1 0 0
vn 0 -1 0
vn 0 1 0

# texcoords
vt 0.0214844 0.5
vt 0.0527344 0.5
vt 0.0566406 0.5
vt 0.0605469 0.5
vt 0.0996094 0.5
vt 0.349609 0.5
vt 0.353516 0.5
vt 0.552734 0.5
vt 0.830078 0.5

# verts
v 0.5 0 1
v -0.5 0 1
v 0.5 0.1 1
v -0.5 0.1 1
v 0.5 0.7 1
v -0.5 0.7 1
v 0.5 0 0.2
v 0.4 0 0.2
v 0.5 0.1 0.2
v 0.4 0.1 0.2
v 0.4 0.3 0.2
v 0.5 0.4 0.2
v 0.4 0.4 0.2
v 0.5 0.1 -0.1
v 0.4 0.1 -0.1
v 0.5 0.2 -0.1
v 0.4 0.2 -0.1
v 0.5 0.3 -0.1
v 0.4 0.3 -0.1
v 0.5 0 -0.3
v 0.4 0 -0.3
v 0.5 0.1 -0.3
v 0.4 0.1 -0.3
v 0.4 0.3 -0.3
v 0.4 0.5 -0.3
v 0.5 0.7 -0.3
v 0.4 0.7 -0.3
v 0.4 0 -0.9
v -0.4 0 -0.9
v 0.4 0.1 -0.9
v -0.4 0.1 -0.9
v 0.4 0 0.9
v -0.4 0 0.9
v 0.4 0.1 0.9
v -0.4 0.1 0.9
v 0.5 0 0.3
v 0.4 0 0.3
v 0.5 0.1 0.3
v 0.4 0.1 0.3
v 0.4 0.3 0.3
v 0.4 0.5 0.3
v 0.5 0.7 0.3
v 0.4 0.7 0.3
v 0.5 0.1 0.1
v 0.4 0.1 0.1
v 0.5 0.3 0.1
v 0.4 0.3 0.1
v 0.5 0 -0.2
v 0.4 0 -0.2
v 0.4 0.1 -0.2
v 0.5 0.2 -0.2
v 0.4 0.2 -0.2
v 0.4 0.3 -0.2
v 0.5 0.4 -0.2
v 0.4 0.4 -0.2
v 0.5 0 -1
v -0.5 0 -1
v 0.5 0.1 -1
v -0.5 0.1 -1
v 0.4 0.3 -1
v 0.3 0.3 -1
v 0.5 0.4 -1
v 0.4 0.4 -1
v 0.3 0.4 -1
v 0.2 0.4 -1
v 0.3 0.5 -1
v 0.2 0.5 -1
v 0.3 0.6 -1
v 0.2 0.6 -1
v 0.5 0.7 -1
v 0.2 0.7 -1
v -0.5 0.7 -1
v 0.5 0 1
v 0.5 0.1 1
v 0.5 0.7 1
v 0.5 0.6 0.9
v 0.5 0.7 0.9
v 0.5 0.6 0.8
v 0.5 0.7 0.8
v 0.5 0.6 0.6
v 0.5 0.7 0.6
v 0.5 0.6 0.5
v 0.5 0.7 0.5
v 0.5 0 0.3
v 0.5 0.1 0.3
v 0.5 0.7 0.3
v 0.5 0 0.2
v 0.5 0.1 0.2
v 0.5 0.4 0.2
v 0.5 0.1 0.1
v 0.5 0.3 0.1
v 0.5 0 0
v 0.5 0.1 0
v 0.5 0.3 0
v 0.5 0.4 0
v 0.5 0.1 -0.1
v 0.5 0.2 -0.1
v 0.5 0.3 -0.1
v 0.5 0 -0.2
v 0.5 0.2 -0.2
v 0.5 0.4 -0.2
v 0.5 0 -0.3
v 0.5 0.1 -0.3
v 0.5 0.7 -0.3
v 0.5 0.4 -0.5
v 0.5 0.5 -0.5
v 0.5 0.6 -0.5
v 0.5 0.7 -0.5
v 0.5 0.3 -0.6
v 0.5 0.4 -0.6
v 0.5 0.5 -0.6
v 0.5 0.6 -0.6
v 0.5 0.3 -0.7
v 0.5 0.4 -0.7
v 0.5 0.3 -0.8
v 0.5 0.4 -0.8
v 0.5 0.3 -0.9
v 0.5 0.4 -0.9
v 0.5 0 -1
v 0.5 0.1 -1
v 0.5 0.4 -1
v 0.5 0.7 -1
v 0.4 0.1 0.3
v 0.4 0.3 0.3
v 0.4 0.5 0.3
v 0.4 0.7 0.3
v 0.4 0.1 0.2
v 0.4 0.3 0.2
v 0.4 0.4 0.2
v 0.4 0.1 0.1
v 0.4 0.3 0.1
v 0.4 0.1 0
v 0.4 0.3 0
v 0.4 0.4 0
v 0.4 0.1 -0.1
v 0.4 0.2 -0.1
v 0.4 0.3 -0.1
v 0.4 0.1 -0.2
v 0.4 0.2 -0.2
v 0.4 0.3 -0.2
v 0.4 0.4 -0.2
v 0.4 0.1 -0.3
v 0.4 0.3 -0.3
v 0.4 0.5 -0.3
v 0.4 0.7 -0.3
v -0.4 0 0.9
v -0.4 0.1 0.9
v -0.4 0 -0.9
v -0.4 0.1 -0.9
v 0.4 0 0.9
v 0.4 0.1 0.9
v 0.4 0 0.3
v 0.4 0.1 0.3
v 0.4 0 0.2
v 0.4 0.1 0.2
v 0.4 0 0
v 0.4 0.1 0
v 0.4 0 -0.2
v 0.4 0.1 -0.2
v 0.4 0 -0.3
v 0.4 0.1 -0.3
v 0.4 0 -0.9
v 0.4 0.1 -0.9
v -0.5 0 1
v -0.5 0.1 1
v -0.5 0.7 1
v -0.5 0 -1
v -0.5 0.1 -1
v -0.5 0.7 -1
v 0.5 0 1
v 0.5 0 0.3
v 0.5 0 0.2
v 0.5 0 0
v 0.5 0 -0.2
v 0.5 0 -0.3
v 0.5 0 -1
v 0.4 0 0.9
v 0.4 0 0.3
v 0.4 0 0.2
v 0.4 0 0
v 0.4 0 -0.2
v 0.4 0 -0.3
v 0.4 0 -0.9
v -0.4 0 0.9
v -0.4 0 -0.9
v -0.5 0 1
v -0.5 0 -1
v 0.4 0.1 0.9
v 0.4 0.1 0.3
v 0.4 0.1 0.2
v 0.4 0.1 0
v 0.4 0.1 -0.2
v 0.4 0.1 -0.3
v 0.4 0.1 -0.9
v -0.4 0.1 0.9
v -0.4 0.1 -0.9
v 0.5 0.3 0.1
v 0.5 0.3 0
v 0.5 0.3 -0.1
v 0.4 0.3 0.1
v 0.4 0.3 0
v 0.4 0.3 -0.1
v 0.5 0.1 0.1
v 0.5 0.1 0
v 0.5 0.1 -0.1
v 0.4 0.1 0.1
v 0.4 0.1 0
v 0.4 0.1 -0.1
v 0.5 0.4 0.2
v 0.5 0.4 0
v 0.5 0.4 -0.2
v 0.4 0.4 0.2
v 0.4 0.4 0
v 0.4 0.4 -0.2
v 0.5 0.7 1
v 0.5 0.7 0.9
v 0.5 0.7 0.8
v 0.5 0.7 0.6
v 0.5 0.7 0.5
v 0.5 0.7 0.3
v 0.5 0.7 -0.3
v 0.5 0.7 -0.5
v 0.5 0.7 -1
v 0.4 0.7 0.9
v 0.4 0.7 0.8
v 0.4 0.7 0.6
v 0.4 0.7 0.5
v 0.4 0.7 0.3
v 0.4 0.7 -0.3
v 0.4 0.7 -0.5
v 0.4 0.7 -0.6
v 0.3 0.7 0.3
v 0.3 0.7 -0.3
v 0.2 0.7 -0.6
v 0.2 0.7 -1
v -0.5 0.7 1
v -0.5 0.7 -1

# faces
f 3/8/1 2/8/1 1/8/1
f 4/8/1 2/8/1 3/8/1
f 5/7/1 4/7/1 3/7/1
f 6/7/1 4/7/1 5/7/1
f 9/2/1 8/2/1 7/2/1
f 10/2/1 8/2/1 9/2/1
f 11/3/1 10/3/1 9/3/1
f 12/3/1 11/3/1 9/3/1
f 13/3/1 11/3/1 12/3/1
f 16/3/1 15/3/1 14/3/1
f 17/3/1 15/3/1 16/3/1
f 18/4/1 17/4/1 16/4/1
f 19/4/1 17/4/1 18/4/1
f 22/8/1 21/8/1 20/8/1
f 23/8/1 21/8/1 22/8/1
f 24/7/1 23/7/1 22/7/1
f 25/7/1 24/7/1 22/7/1
f 26/7/1 25/7/1 22/7/1
f 27/7/1 25/7/1 26/7/1
f 30/8/1 29/8/1 28/8/1
f 31/8/1 29/8/1 30/8/1
f 32/8/2 33/8/2 34/8/2
f 34/8/2 33/8/2 35/8/2
f 36/8/2 37/8/2 38/8/2
f 38/8/2 37/8/2 39/8/2
f 38/7/2 39/7/2 40/7/2
f 38/7/2 40/7/2 41/7/2
f 38/7/2 41/7/2 42/7/2
f 42/7/2 41/7/2 43/7/2
f 44/3/2 45/3/2 46/3/2
f 46/3/2 45/3/2 47/3/2
f 48/3/2 49/3/2 50/3/2
f 48/3/2 50/3/2 51/3/2
f 51/3/2 50/3/2 52/3/2
f 51/4/2 52/4/2 53/4/2
f 51/4/2 53/4/2 54/4/2
f 54/4/2 53/4/2 55/4/2
f 56/8/2 57/8/2 58/8/2
f 58/8/2 57/8/2 59/8/2
f 58/7/2 59/7/2 60/7/2
f 60/7/2 59/7/2 61/7/2
f 58/7/2 60/7/2 62/7/2
f 60/6/2 61/6/2 63/6/2
f 62/7/2 60/7/2 63/7/2
f 61/7/2 59/7/2 64/7/2
f 63/6/2 61/6/2 64/6/2
f 64/7/2 59/7/2 65/7/2
f 62/6/2 63/6/2 66/6/2
f 63/6/2 64/6/2 66/6/2
f 64/6/2 65/6/2 66/6/2
f 65/7/2 59/7/2 67/7/2
f 66/6/2 65/6/2 67/6/2
f 62/6/2 66/6/2 68/6/2
f 66/7/2 67/7/2 68/7/2
f 67/7/2 59/7/2 69/7/2
f 68/7/2 67/7/2 69/7/2
f 62/6/2 68/6/2 70/6/2
f 68/6/2 69/6/2 70/6/2
f 69/7/2 59/7/2 71/7/2
f 70/6/2 69/6/2 71/6/2
f 71/7/2 59/7/2 72/7/2
f 76/7/3 75/7/3 74/7/3
f 77/7/3 75/7/3 76/7/3
f 78/7/3 76/7/3 74/7/3
f 78/6/3 77/6/3 76/6/3
f 79/6/3 77/6/3 78/6/3
f 80/7/3 78/7/3 74/7/3
f 80/7/3 79/7/3 78/7/3
f 81/7/3 79/7/3 80/7/3
f 82/7/3 80/7/3 74/7/3
f 82/6/3 81/6/3 80/6/3
f 83/6/3 81/6/3 82/6/3
f 84/8/3 74/8/3 73/8/3
f 85/7/3 82/7/3 74/7/3
f 85/8/3 74/8/3 84/8/3
f 85/7/3 83/7/3 82/7/3
f 86/7/3 83/7/3 85/7/3
f 90/2/3 88/2/3 87/2/3
f 90/3/3 89/3/3 88/3/3
f 91/3/3 89/3/3 90/3/3
f 92/2/3 90/2/3 87/2/3
f 93/2/3 90/2/3 92/2/3
f 94/3/3 89/3/3 91/3/3
f 95/3/3 89/3/3 94/3/3
f 96/3/3 93/3/3 92/3/3
f 98/4/3 95/4/3 94/4/3
f 99/3/3 97/3/3 96/3/3
f 99/3/3 96/3/3 92/3/3
f 100/4/3 98/4/3 97/4/3
f 100/3/3 97/3/3 99/3/3
f 101/4/3 95/4/3 98/4/3
f 101/4/3 98/4/3 100/4/3
f 105/7/3 104/7/3 103/7/3
f 106/7/3 104/7/3 105/7/3
f 107/7/3 104/7/3 106/7/3
f 108/7/3 104/7/3 107/7/3
f 109/7/3 105/7/3 103/7/3
f 110/6/3 106/6/3 105/6/3
f 110/7/3 105/7/3 109/7/3
f 111/7/3 107/7/3 106/7/3
f 111/6/3 106/6/3 110/6/3
f 112/6/3 108/6/3 107/6/3
f 112/7/3 107/7/3 111/7/3
f 113/7/3 109/7/3 103/7/3
f 113/6/3 110/6/3 109/6/3
f 113/6/3 112/6/3 111/6/3
f 113/6/3 111/6/3 110/6/3
f 114/6/3 112/6/3 113/6/3
f 115/7/3 113/7/3 103/7/3
f 115/7/3 114/7/3 113/7/3
f 116/6/3 112/6/3 114/6/3
f 116/7/3 114/7/3 115/7/3
f 117/7/3 115/7/3 103/7/3
f 117/6/3 116/6/3 115/6/3
f 118/6/3 112/6/3 116/6/3
f 118/6/3 116/6/3 117/6/3
f 119/8/3 103/8/3 102/8/3
f 120/7/3 117/7/3 103/7/3
f 120/8/3 103/8/3 119/8/3
f 120/7/3 118/7/3 117/7/3
f 121/6/3 112/6/3 118/6/3
f 121/7/3 118/7/3 120/7/3
f 122/6/3 108/6/3 112/6/3
f 122/6/3 112/6/3 121/6/3
f 127/5/3 124/5/3 123/5/3
f 128/9/3 125/9/3 124/9/3
f 128/5/3 124/5/3 127/5/3
f 129/9/3 125/9/3 128/9/3
f 132/5/3 131/5/3 130/5/3
f 133/5/3 131/5/3 132/5/3
f 134/9/3 125/9/3 129/9/3
f 135/5/3 133/5/3 132/5/3
f 136/5/3 133/5/3 135/5/3
f 137/5/3 133/5/3 136/5/3
f 141/9/3 125/9/3 134/9/3
f 142/5/3 140/5/3 139/5/3
f 142/5/3 139/5/3 138/5/3
f 143/9/3 141/9/3 140/9/3
f 143/5/3 140/5/3 142/5/3
f 144/1/3 126/1/3 125/1/3
f 144/9/3 141/9/3 143/9/3
f 144/9/3 125/9/3 141/9/3
f 145/1/3 126/1/3 144/1/3
f 148/8/3 147/8/3 146/8/3
f 149/8/3 147/8/3 148/8/3
f 150/8/4 151/8/4 152/8/4
f 152/8/4 151/8/4 153/8/4
f 154/2/4 155/2/4 156/2/4
f 156/2/4 155/2/4 157/2/4
f 156/3/4 157/3/4 158/3/4
f 158/3/4 157/3/4 159/3/4
f 160/8/4 161/8/4 162/8/4
f 162/8/4 161/8/4 163/8/4
f 164/8/4 165/8/4 167/8/4
f 165/7/4 166/7/4 168/7/4
f 167/8/4 165/8/4 168/8/4
f 168/7/4 166/7/4 169/7/4
f 177/8/5 171/8/5 170/8/5
f 178/8/5 171/8/5 177/8/5
f 179/2/5 173/2/5 172/2/5
f 180/3/5 174/3/5 173/3/5
f 180/2/5 173/2/5 179/2/5
f 181/3/5 174/3/5 180/3/5
f 182/8/5 176/8/5 175/8/5
f 183/8/5 176/8/5 182/8/5
f 184/8/5 177/8/5 170/8/5
f 185/8/5 176/8/5 183/8/5
f 186/8/5 184/8/5 170/8/5
f 186/8/5 185/8/5 184/8/5
f 187/8/5 176/8/5 185/8/5
f 187/8/5 185/8/5 186/8/5
f 195/5/5 189/5/5 188/5/5
f 195/5/5 194/5/5 193/5/5
f 195/5/5 193/5/5 192/5/5
f 195/5/5 192/5/5 191/5/5
f 195/5/5 191/5/5 190/5/5
f 195/5/5 190/5/5 189/5/5
f 196/5/5 194/5/5 195/5/5
f 200/3/5 198/3/5 197/3/5
f 201/4/5 199/4/5 198/4/5
f 201/3/5 198/3/5 200/3/5
f 202/4/5 199/4/5 201/4/5
f 203/2/6 204/2/6 206/2/6
f 204/3/6 205/3/6 207/3/6
f 206/2/6 204/2/6 207/2/6
f 207/3/6 205/3/6 208/3/6
f 209/3/6 210/3/6 212/3/6
f 210/4/6 211/4/6 213/4/6
f 212/3/6 210/3/6 213/3/6
f 213/4/6 211/4/6 214/4/6
f 215/7/6 216/7/6 224/7/6
f 216/6/6 217/6/6 224/6/6
f 217/7/6 218/7/6 225/7/6
f 224/6/6 217/6/6 225/6/6
f 218/6/6 219/6/6 226/6/6
f 225/7/6 218/7/6 226/7/6
f 219/7/6 220/7/6 227/7/6
f 226/6/6 219/6/6 227/6/6
f 227/7/6 220/7/6 228/7/6
f 221/7/6 222/7/6 229/7/6
f 222/6/6 223/6/6 230/6/6
f 229/7/6 222/7/6 230/7/6
f 230/6/6 223/6/6 231/6/6
f 228/1/6 229/1/6 232/1/6
f 227/7/6 228/7/6 232/7/6
f 224/7/6 225/7/6 232/7/6
f 225/7/6 226/7/6 232/7/6
f 226/7/6 227/7/6 232/7/6
f 230/7/6 231/7/6 233/7/6
f 232/1/6 229/1/6 233/1/6
f 229/7/6 230/7/6 233/7/6
f 231/6/6 223/6/6 234/6/6
f 233/7/6 231/7/6 234/7/6
f 232/7/6 233/7/6 234/7/6
f 234/6/6 223/6/6 235/6/6
f 224/7/6 232/7/6 236/7/6
f 215/7/6 224/7/6 236/7/6
f 234/7/6 235/7/6 236/7/6
f 232/7/6 234/7/6 236/7/6
f 236/7/6 235/7/6 237/7/6
