# MagicaVoxel @ Ephtracy

# group
o 

# material
mtllib model-5.mtl
usemtl palette

# normals
vn 0 0 1
vn 0 0 -1
vn 1 0 0
vn -1 0 0
vn 0 -1 0
vn 0 1 0

# texcoords
vt 0.349609 0.5
vt 0.353516 0.5
vt 0.552734 0.5

# verts
v 0.3 1.4 -1.6
v -0.3 1.4 -1.6
v 0.3 2 -1.6
v -0.3 2 -1.6
v 0.3 1.4 -2.4
v -0.3 1.4 -2.4
v 0.3 2 -2.4
v -0.3 2 -2.4
v 0.3 1.4 -1.6
v 0.3 2 -1.6
v 0.3 1.4 -2.3
v 0.3 2 -2.3
v 0.3 1.4 -2.4
v 0.3 2 -2.4
v -0.3 1.4 -1.6
v -0.3 2 -1.6
v -0.3 1.8 -1.7
v -0.3 1.9 -1.7
v -0.3 1.7 -1.8
v -0.3 1.8 -1.8
v -0.3 1.9 -1.8
v -0.3 2 -1.8
v -0.3 1.7 -1.9
v -0.3 1.8 -1.9
v -0.3 1.7 -2
v -0.3 1.8 -2
v -0.3 1.7 -2.1
v -0.3 1.8 -2.1
v -0.3 1.9 -2.1
v -0.3 2 -2.1
v -0.3 1.8 -2.2
v -0.3 1.9 -2.2
v -0.3 1.4 -2.3
v -0.3 2 -2.3
v -0.3 1.4 -2.4
v -0.3 2 -2.4
v 0.3 1.4 -1.6
v 0.3 1.4 -2.3
v 0.3 1.4 -2.4
v -0.3 1.4 -1.6
v -0.3 1.4 -2.3
v -0.3 1.4 -2.4
v 0.3 2 -1.6
v 0.3 2 -2.3
v 0.3 2 -2.4
v 0 2 -1.8
v 0 2 -1.9
v 0 2 -2
v 0 2 -2.1
v -0.1 2 -1.7
v -0.1 2 -1.8
v -0.1 2 -1.9
v -0.1 2 -2
v -0.1 2 -2.1
v -0.1 2 -2.2
v -0.2 2 -1.7
v -0.2 2 -1.8
v -0.2 2 -2.1
v -0.2 2 -2.2
v -0.3 2 -1.6
v -0.3 2 -1.8
v -0.3 2 -2.1
v -0.3 2 -2.3
v -0.3 2 -2.4

# faces
f 3/2/1 2/2/1 1/2/1
f 4/2/1 2/2/1 3/2/1
f 5/3/2 6/3/2 7/3/2
f 7/3/2 6/3/2 8/3/2
f 11/2/3 10/2/3 9/2/3
f 12/2/3 10/2/3 11/2/3
f 13/3/3 12/3/3 11/3/3
f 14/3/3 12/3/3 13/3/3
f 15/2/4 16/2/4 17/2/4
f 17/2/4 16/2/4 18/2/4
f 15/2/4 17/2/4 19/2/4
f 17/1/4 18/1/4 20/1/4
f 19/2/4 17/2/4 20/2/4
f 18/2/4 16/2/4 21/2/4
f 20/1/4 18/1/4 21/1/4
f 21/2/4 16/2/4 22/2/4
f 19/1/4 20/1/4 23/1/4
f 15/2/4 19/2/4 23/2/4
f 21/1/4 22/1/4 23/1/4
f 20/1/4 21/1/4 23/1/4
f 23/1/4 22/1/4 24/1/4
f 15/2/4 23/2/4 25/2/4
f 23/2/4 24/2/4 25/2/4
f 24/1/4 22/1/4 26/1/4
f 25/2/4 24/2/4 26/2/4
f 15/2/4 25/2/4 27/2/4
f 25/1/4 26/1/4 27/1/4
f 26/1/4 22/1/4 28/1/4
f 27/1/4 26/1/4 28/1/4
f 28/1/4 22/1/4 29/1/4
f 29/1/4 22/1/4 30/1/4
f 27/2/4 28/2/4 31/2/4
f 28/1/4 29/1/4 31/1/4
f 29/2/4 30/2/4 32/2/4
f 31/1/4 29/1/4 32/1/4
f 15/2/4 27/2/4 33/2/4
f 27/2/4 31/2/4 33/2/4
f 31/2/4 32/2/4 33/2/4
f 32/2/4 30/2/4 34/2/4
f 33/2/4 32/2/4 34/2/4
f 33/3/4 34/3/4 35/3/4
f 35/3/4 34/3/4 36/3/4
f 40/2/5 38/2/5 37/2/5
f 41/3/5 39/3/5 38/3/5
f 41/2/5 38/2/5 40/2/5
f 42/3/5 39/3/5 41/3/5
f 43/2/6 44/2/6 46/2/6
f 46/2/6 44/2/6 47/2/6
f 47/2/6 44/2/6 48/2/6
f 48/2/6 44/2/6 49/2/6
f 43/2/6 46/2/6 50/2/6
f 46/1/6 47/1/6 51/1/6
f 50/2/6 46/2/6 51/2/6
f 47/2/6 48/2/6 52/2/6
f 51/1/6 47/1/6 52/1/6
f 48/1/6 49/1/6 53/1/6
f 52/2/6 48/2/6 53/2/6
f 49/2/6 44/2/6 54/2/6
f 53/1/6 49/1/6 54/1/6
f 54/2/6 44/2/6 55/2/6
f 52/1/6 53/1/6 56/1/6
f 43/2/6 50/2/6 56/2/6
f 54/1/6 55/1/6 56/1/6
f 53/1/6 54/1/6 56/1/6
f 51/1/6 52/1/6 56/1/6
f 50/1/6 51/1/6 56/1/6
f 56/1/6 55/1/6 57/1/6
f 57/1/6 55/1/6 58/1/6
f 55/2/6 44/2/6 59/2/6
f 58/1/6 55/1/6 59/1/6
f 43/2/6 56/2/6 60/2/6
f 56/2/6 57/2/6 60/2/6
f 57/1/6 58/1/6 61/1/6
f 60/2/6 57/2/6 61/2/6
f 58/2/6 59/2/6 62/2/6
f 61/1/6 58/1/6 62/1/6
f 44/3/6 45/3/6 63/3/6
f 62/2/6 59/2/6 63/2/6
f 59/2/6 44/2/6 63/2/6
f 63/3/6 45/3/6 64/3/6
