# MagicaVoxel @ Ephtracy

# group
o 

# material
mtllib model-1.mtl
usemtl palette

# normals
vn 0 0 1
vn 0 0 -1
vn 1 0 0
vn -1 0 0
vn 0 -1 0
vn 0 1 0

# texcoords
vt 0.0214844 0.5
vt 0.349609 0.5
vt 0.353516 0.5
vt 0.552734 0.5
vt 0.830078 0.5

# verts
v 0.6 1.6 1.1
v 0.5 1.6 1.1
v -0.5 1.9 1.1
v -0.6 1.9 1.1
v 0.5 2 1.1
v -0.5 2 1.1
v 0.6 2.1 1.1
v -0.6 2.1 1.1
v 0.5 0.6 1
v -0.5 0.6 1
v 0.5 0.7 1
v 0.4 0.7 1
v 0.5 0.8 1
v 0.4 0.8 1
v 0.5 1 1
v 0.4 1 1
v 0.5 1.1 1
v 0.4 1.1 1
v 0.5 1.6 1
v -0.5 1.9 1
v 0.5 2 1
v -0.5 2 1
v 0.6 1.2 0.8
v 0.5 1.2 0.8
v 0.6 1.6 0.8
v 0.5 1.6 0.8
v 0.5 0.6 -0.3
v 0.4 0.6 -0.3
v 0.4 0.8 -0.3
v 0.4 1.1 -0.3
v 0.6 1.2 -0.3
v 0.5 1.2 -0.3
v 0.6 1.3 -0.3
v 0.5 1.3 -0.3
v 0.4 1.4 -0.3
v 0.4 1.7 -0.3
v 0.4 2 -0.3
v 0.6 2.1 -0.3
v 0.4 2.1 -0.3
v 0.4 2 -0.4
v -0.4 2 -0.4
v 0.4 2.1 -0.4
v -0.4 2.1 -0.4
v 0.4 2 0.4
v -0.4 2 0.4
v 0.4 2.1 0.4
v -0.4 2.1 0.4
v 0.5 0.6 0.3
v 0.4 0.6 0.3
v 0.4 0.8 0.3
v 0.4 1.1 0.3
v 0.6 1.2 0.3
v 0.5 1.2 0.3
v 0.6 1.3 0.3
v 0.5 1.3 0.3
v 0.4 1.4 0.3
v 0.4 1.7 0.3
v 0.4 2 0.3
v 0.6 2.1 0.3
v 0.4 2.1 0.3
v 0.6 1.2 -0.8
v 0.5 1.2 -0.8
v 0.6 1.6 -0.8
v 0.5 1.6 -0.8
v 0.5 0.6 -1
v 0.2 0.6 -1
v -0.5 0.6 -1
v 0.3 0.7 -1
v 0.2 0.7 -1
v 0.3 0.8 -1
v 0.2 0.8 -1
v 0.5 0.9 -1
v 0.4 0.9 -1
v 0.3 0.9 -1
v 0.2 0.9 -1
v 0.4 1 -1
v 0.3 1 -1
v 0.5 1.6 -1
v -0.5 1.9 -1
v 0.5 2 -1
v -0.5 2 -1
v 0.6 1.6 -1.1
v 0.5 1.6 -1.1
v -0.5 1.9 -1.1
v -0.6 1.9 -1.1
v 0.5 2 -1.1
v -0.5 2 -1.1
v 0.6 2.1 -1.1
v -0.6 2.1 -1.1
v 0.6 1.6 1.1
v 0.6 2.1 1.1
v 0.6 1.7 1
v 0.6 2.1 1
v 0.6 1.2 0.8
v 0.6 1.6 0.8
v 0.6 1.3 0.7
v 0.6 1.7 0.7
v 0.6 1.2 0.3
v 0.6 1.3 0.3
v 0.6 2.1 0.3
v 0.6 1.2 -0.3
v 0.6 1.3 -0.3
v 0.6 2.1 -0.3
v 0.6 1.3 -0.7
v 0.6 1.7 -0.7
v 0.6 1.2 -0.8
v 0.6 1.6 -0.8
v 0.6 1.7 -1
v 0.6 2.1 -1
v 0.6 1.6 -1.1
v 0.6 2.1 -1.1
v 0.5 0.6 1
v 0.5 0.7 1
v 0.5 0.8 1
v 0.5 1 1
v 0.5 1.1 1
v 0.5 1.6 1
v 0.5 0.6 0.9
v 0.5 0.7 0.9
v 0.5 0.8 0.9
v 0.5 1 0.9
v 0.5 1.1 0.9
v 0.5 1.2 0.9
v 0.5 0.6 0.8
v 0.5 0.7 0.8
v 0.5 1.1 0.8
v 0.5 1.2 0.8
v 0.5 1.6 0.8
v 0.5 0.6 0.6
v 0.5 0.7 0.6
v 0.5 1.1 0.6
v 0.5 1.2 0.6
v 0.5 0.6 0.5
v 0.5 0.7 0.5
v 0.5 0.8 0.5
v 0.5 1 0.5
v 0.5 1.1 0.5
v 0.5 1.2 0.5
v 0.5 0.7 0.4
v 0.5 0.8 0.4
v 0.5 1 0.4
v 0.5 1.1 0.4
v 0.5 0.6 0.3
v 0.5 1.2 0.3
v 0.5 0.6 -0.3
v 0.5 1.2 -0.3
v 0.5 0.6 -0.5
v 0.5 0.7 -0.5
v 0.5 0.8 -0.5
v 0.5 0.9 -0.5
v 0.5 0.7 -0.6
v 0.5 0.8 -0.6
v 0.5 0.9 -0.6
v 0.5 1 -0.6
v 0.5 0.9 -0.7
v 0.5 1 -0.7
v 0.5 0.9 -0.8
v 0.5 1 -0.8
v 0.5 1.2 -0.8
v 0.5 1.6 -0.8
v 0.5 0.9 -0.9
v 0.5 1 -0.9
v 0.5 0.6 -1
v 0.5 0.9 -1
v 0.5 1.6 -1
v 0.4 0.6 0.3
v 0.4 0.8 0.3
v 0.4 1.1 0.3
v 0.4 1.4 0.3
v 0.4 1.7 0.3
v 0.4 2 0.3
v 0.4 0.6 -0.3
v 0.4 0.8 -0.3
v 0.4 1.1 -0.3
v 0.4 1.4 -0.3
v 0.4 1.7 -0.3
v 0.4 2 -0.3
v -0.4 2 0.4
v -0.4 2.1 0.4
v -0.4 2 -0.4
v -0.4 2.1 -0.4
v -0.5 1.9 1.1
v -0.5 2 1.1
v -0.5 1.9 1
v -0.5 2 1
v -0.5 1.9 -1
v -0.5 2 -1
v -0.5 1.9 -1.1
v -0.5 2 -1.1
v 0.5 1.6 1.1
v 0.5 2 1.1
v 0.5 1.6 1
v 0.5 2 1
v 0.5 1.6 -1
v 0.5 2 -1
v 0.5 1.6 -1.1
v 0.5 2 -1.1
v 0.4 2 0.4
v 0.4 2.1 0.4
v 0.4 2 0.3
v 0.4 2.1 0.3
v 0.4 2 -0.3
v 0.4 2.1 -0.3
v 0.4 2 -0.4
v 0.4 2.1 -0.4
v -0.5 0.6 1
v -0.5 1.9 1
v -0.5 0.6 -1
v -0.5 1.9 -1
v -0.6 1.9 1.1
v -0.6 2.1 1.1
v -0.6 2 1
v -0.6 2.1 1
v -0.6 2 -1
v -0.6 2.1 -1
v -0.6 1.9 -1.1
v -0.6 2.1 -1.1
v 0.5 0.6 1
v 0.5 0.6 0.9
v 0.5 0.6 0.8
v 0.5 0.6 0.6
v 0.5 0.6 0.5
v 0.5 0.6 0.3
v 0.5 0.6 -0.3
v 0.5 0.6 -0.5
v 0.5 0.6 -1
v 0.4 0.6 0.9
v 0.4 0.6 0.8
v 0.4 0.6 0.6
v 0.4 0.6 0.5
v 0.4 0.6 0.3
v 0.4 0.6 -0.3
v 0.4 0.6 -0.5
v 0.4 0.6 -0.9
v 0.3 0.6 0.3
v 0.3 0.6 -0.3
v 0.2 0.6 -0.9
v 0.2 0.6 -1
v -0.5 0.6 1
v -0.5 0.6 -1
v 0.6 1.2 0.8
v 0.6 1.2 0.3
v 0.6 1.2 -0.3
v 0.6 1.2 -0.8
v 0.5 1.2 0.8
v 0.5 1.2 0.6
v 0.5 1.2 0.5
v 0.5 1.2 0.3
v 0.5 1.2 -0.3
v 0.5 1.2 -0.8
v 0.6 1.6 1.1
v 0.6 1.6 0.8
v 0.6 1.6 -0.8
v 0.6 1.6 -1.1
v 0.5 1.6 1.1
v 0.5 1.6 1
v 0.5 1.6 0.8
v 0.5 1.6 -0.8
v 0.5 1.6 -1
v 0.5 1.6 -1.1
v -0.5 1.9 1.1
v -0.5 1.9 1
v -0.5 1.9 -1
v -0.5 1.9 -1.1
v -0.6 1.9 1.1
v -0.6 1.9 -1.1
v 0.5 2 1.1
v 0.5 2 1
v 0.5 2 -1
v 0.5 2 -1.1
v -0.5 2 1.1
v -0.5 2 1
v -0.5 2 -1
v -0.5 2 -1.1
v 0.4 2 0.4
v 0.4 2 0.3
v 0.4 2 -0.3
v 0.4 2 -0.4
v 0.3 2 0.3
v 0.3 2 -0.3
v -0.4 2 0.4
v -0.4 2 -0.4
v 0.6 2.1 1.1
v 0.6 2.1 1
v 0.6 2.1 0.3
v 0.6 2.1 -0.3
v 0.6 2.1 -1
v 0.6 2.1 -1.1
v 0.4 2.1 0.4
v 0.4 2.1 0.3
v 0.4 2.1 -0.3
v 0.4 2.1 -0.4
v -0.4 2.1 0.4
v -0.4 2.1 -0.4
v -0.6 2.1 1.1
v -0.6 2.1 1
v -0.6 2.1 -1
v -0.6 2.1 -1.1

# faces
f 5/4/1 2/4/1 1/4/1
f 6/4/1 4/4/1 3/4/1
f 7/4/1 5/4/1 1/4/1
f 7/4/1 6/4/1 5/4/1
f 8/4/1 4/4/1 6/4/1
f 8/4/1 6/4/1 7/4/1
f 11/3/1 10/3/1 9/3/1
f 12/3/1 10/3/1 11/3/1
f 13/2/1 12/2/1 11/2/1
f 14/3/1 10/3/1 12/3/1
f 14/2/1 12/2/1 13/2/1
f 15/3/1 14/3/1 13/3/1
f 16/3/1 10/3/1 14/3/1
f 16/3/1 14/3/1 15/3/1
f 17/2/1 16/2/1 15/2/1
f 18/3/1 10/3/1 16/3/1
f 18/2/1 16/2/1 17/2/1
f 19/3/1 18/3/1 17/3/1
f 20/3/1 10/3/1 18/3/1
f 20/3/1 18/3/1 19/3/1
f 21/3/1 20/3/1 19/3/1
f 22/3/1 20/3/1 21/3/1
f 25/4/1 24/4/1 23/4/1
f 26/4/1 24/4/1 25/4/1
f 29/3/1 28/3/1 27/3/1
f 30/3/1 29/3/1 27/3/1
f 32/3/1 30/3/1 27/3/1
f 33/4/1 32/4/1 31/4/1
f 34/3/1 30/3/1 32/3/1
f 34/4/1 32/4/1 33/4/1
f 35/3/1 34/3/1 33/3/1
f 35/3/1 30/3/1 34/3/1
f 36/3/1 35/3/1 33/3/1
f 37/3/1 36/3/1 33/3/1
f 38/3/1 37/3/1 33/3/1
f 39/3/1 37/3/1 38/3/1
f 42/3/1 41/3/1 40/3/1
f 43/3/1 41/3/1 42/3/1
f 44/3/2 45/3/2 46/3/2
f 46/3/2 45/3/2 47/3/2
f 48/3/2 49/3/2 50/3/2
f 48/3/2 50/3/2 51/3/2
f 48/3/2 51/3/2 53/3/2
f 52/4/2 53/4/2 54/4/2
f 53/3/2 51/3/2 55/3/2
f 54/4/2 53/4/2 55/4/2
f 54/3/2 55/3/2 56/3/2
f 55/3/2 51/3/2 56/3/2
f 54/3/2 56/3/2 57/3/2
f 54/3/2 57/3/2 58/3/2
f 54/3/2 58/3/2 59/3/2
f 59/3/2 58/3/2 60/3/2
f 61/4/2 62/4/2 63/4/2
f 63/4/2 62/4/2 64/4/2
f 65/2/2 66/2/2 68/2/2
f 66/3/2 67/3/2 69/3/2
f 68/2/2 66/2/2 69/2/2
f 65/2/2 68/2/2 70/2/2
f 68/3/2 69/3/2 70/3/2
f 69/3/2 67/3/2 71/3/2
f 70/3/2 69/3/2 71/3/2
f 65/2/2 70/2/2 72/2/2
f 70/2/2 71/2/2 72/2/2
f 72/2/2 71/2/2 73/2/2
f 73/2/2 71/2/2 74/2/2
f 71/3/2 67/3/2 75/3/2
f 74/2/2 71/2/2 75/2/2
f 73/2/2 74/2/2 76/2/2
f 72/3/2 73/3/2 76/3/2
f 74/3/2 75/3/2 77/3/2
f 76/2/2 74/2/2 77/2/2
f 72/3/2 76/3/2 78/3/2
f 76/3/2 77/3/2 78/3/2
f 75/3/2 67/3/2 79/3/2
f 78/3/2 77/3/2 79/3/2
f 77/3/2 75/3/2 79/3/2
f 78/3/2 79/3/2 80/3/2
f 80/3/2 79/3/2 81/3/2
f 82/4/2 83/4/2 86/4/2
f 84/4/2 85/4/2 87/4/2
f 82/4/2 86/4/2 88/4/2
f 86/4/2 87/4/2 88/4/2
f 87/4/2 85/4/2 89/4/2
f 88/4/2 87/4/2 89/4/2
f 92/4/3 91/4/3 90/4/3
f 93/4/3 91/4/3 92/4/3
f 95/4/3 92/4/3 90/4/3
f 96/4/3 95/4/3 94/4/3
f 97/3/3 93/3/3 92/3/3
f 97/4/3 95/4/3 96/4/3
f 97/4/3 92/4/3 95/4/3
f 98/4/3 96/4/3 94/4/3
f 99/3/3 97/3/3 96/3/3
f 99/4/3 96/4/3 98/4/3
f 100/3/3 93/3/3 97/3/3
f 100/3/3 97/3/3 99/3/3
f 104/4/3 102/4/3 101/4/3
f 104/3/3 103/3/3 102/3/3
f 105/3/3 103/3/3 104/3/3
f 106/4/3 104/4/3 101/4/3
f 106/4/3 105/4/3 104/4/3
f 107/4/3 105/4/3 106/4/3
f 108/3/3 103/3/3 105/3/3
f 108/4/3 105/4/3 107/4/3
f 109/3/3 103/3/3 108/3/3
f 110/4/3 108/4/3 107/4/3
f 110/4/3 109/4/3 108/4/3
f 111/4/3 109/4/3 110/4/3
f 118/3/3 113/3/3 112/3/3
f 119/2/3 114/2/3 113/2/3
f 119/3/3 113/3/3 118/3/3
f 120/3/3 115/3/3 114/3/3
f 120/2/3 114/2/3 119/2/3
f 121/2/3 116/2/3 115/2/3
f 121/3/3 115/3/3 120/3/3
f 122/3/3 117/3/3 116/3/3
f 122/2/3 116/2/3 121/2/3
f 123/3/3 117/3/3 122/3/3
f 124/2/3 121/2/3 120/2/3
f 124/2/3 119/2/3 118/2/3
f 124/2/3 123/2/3 122/2/3
f 124/2/3 122/2/3 121/2/3
f 124/2/3 120/2/3 119/2/3
f 125/2/3 123/2/3 124/2/3
f 126/2/3 123/2/3 125/2/3
f 127/3/3 117/3/3 123/3/3
f 127/2/3 123/2/3 126/2/3
f 128/3/3 117/3/3 127/3/3
f 129/3/3 125/3/3 124/3/3
f 130/2/3 126/2/3 125/2/3
f 130/3/3 125/3/3 129/3/3
f 131/3/3 127/3/3 126/3/3
f 131/2/3 126/2/3 130/2/3
f 132/3/3 127/3/3 131/3/3
f 133/2/3 130/2/3 129/2/3
f 133/2/3 131/2/3 130/2/3
f 133/2/3 132/2/3 131/2/3
f 134/2/3 132/2/3 133/2/3
f 135/2/3 132/2/3 134/2/3
f 136/2/3 132/2/3 135/2/3
f 137/2/3 132/2/3 136/2/3
f 138/2/3 132/2/3 137/2/3
f 139/3/3 134/3/3 133/3/3
f 139/2/3 135/2/3 134/2/3
f 140/3/3 136/3/3 135/3/3
f 140/2/3 135/2/3 139/2/3
f 141/2/3 137/2/3 136/2/3
f 141/3/3 136/3/3 140/3/3
f 142/3/3 138/3/3 137/3/3
f 142/2/3 137/2/3 141/2/3
f 143/3/3 141/3/3 140/3/3
f 143/3/3 139/3/3 133/3/3
f 143/3/3 142/3/3 141/3/3
f 143/3/3 140/3/3 139/3/3
f 144/3/3 138/3/3 142/3/3
f 144/3/3 142/3/3 143/3/3
f 147/3/3 146/3/3 145/3/3
f 148/3/3 146/3/3 147/3/3
f 149/3/3 146/3/3 148/3/3
f 150/3/3 146/3/3 149/3/3
f 151/2/3 148/2/3 147/2/3
f 151/3/3 149/3/3 148/3/3
f 152/2/3 150/2/3 149/2/3
f 152/3/3 149/3/3 151/3/3
f 153/3/3 146/3/3 150/3/3
f 153/2/3 150/2/3 152/2/3
f 154/3/3 146/3/3 153/3/3
f 155/2/3 152/2/3 151/2/3
f 155/2/3 153/2/3 152/2/3
f 155/2/3 154/2/3 153/2/3
f 156/3/3 146/3/3 154/3/3
f 156/2/3 154/2/3 155/2/3
f 157/2/3 155/2/3 151/2/3
f 157/3/3 156/3/3 155/3/3
f 158/3/3 146/3/3 156/3/3
f 158/3/3 156/3/3 157/3/3
f 159/3/3 146/3/3 158/3/3
f 161/2/3 158/2/3 157/2/3
f 161/2/3 157/2/3 151/2/3
f 162/3/3 159/3/3 158/3/3
f 162/2/3 158/2/3 161/2/3
f 162/3/3 160/3/3 159/3/3
f 163/2/3 161/2/3 151/2/3
f 163/2/3 151/2/3 147/2/3
f 164/3/3 162/3/3 161/3/3
f 164/2/3 161/2/3 163/2/3
f 165/3/3 160/3/3 162/3/3
f 165/3/3 162/3/3 164/3/3
f 172/1/3 167/1/3 166/1/3
f 173/5/3 168/5/3 167/5/3
f 173/1/3 167/1/3 172/1/3
f 174/1/3 169/1/3 168/1/3
f 174/5/3 168/5/3 173/5/3
f 175/5/3 170/5/3 169/5/3
f 175/1/3 169/1/3 174/1/3
f 176/1/3 171/1/3 170/1/3
f 176/5/3 170/5/3 175/5/3
f 177/1/3 171/1/3 176/1/3
f 180/3/3 179/3/3 178/3/3
f 181/3/3 179/3/3 180/3/3
f 184/4/3 183/4/3 182/4/3
f 185/4/3 183/4/3 184/4/3
f 188/4/3 187/4/3 186/4/3
f 189/4/3 187/4/3 188/4/3
f 190/4/4 191/4/4 192/4/4
f 192/4/4 191/4/4 193/4/4
f 194/4/4 195/4/4 196/4/4
f 196/4/4 195/4/4 197/4/4
f 198/3/4 199/3/4 200/3/4
f 200/3/4 199/3/4 201/3/4
f 202/3/4 203/3/4 204/3/4
f 204/3/4 203/3/4 205/3/4
f 206/3/4 207/3/4 208/3/4
f 208/3/4 207/3/4 209/3/4
f 210/4/4 211/4/4 212/4/4
f 212/4/4 211/4/4 213/4/4
f 210/4/4 212/4/4 214/4/4
f 212/3/4 213/3/4 214/3/4
f 214/3/4 213/3/4 215/3/4
f 210/4/4 214/4/4 216/4/4
f 214/4/4 215/4/4 216/4/4
f 216/4/4 215/4/4 217/4/4
f 227/3/5 219/3/5 218/3/5
f 227/2/5 220/2/5 219/2/5
f 228/3/5 221/3/5 220/3/5
f 228/2/5 220/2/5 227/2/5
f 229/2/5 222/2/5 221/2/5
f 229/3/5 221/3/5 228/3/5
f 230/3/5 223/3/5 222/3/5
f 230/2/5 222/2/5 229/2/5
f 231/3/5 223/3/5 230/3/5
f 232/3/5 225/3/5 224/3/5
f 233/2/5 226/2/5 225/2/5
f 233/3/5 225/3/5 232/3/5
f 234/2/5 226/2/5 233/2/5
f 235/1/5 232/1/5 231/1/5
f 235/3/5 231/3/5 230/3/5
f 235/3/5 228/3/5 227/3/5
f 235/3/5 229/3/5 228/3/5
f 235/3/5 230/3/5 229/3/5
f 236/3/5 234/3/5 233/3/5
f 236/1/5 232/1/5 235/1/5
f 236/3/5 233/3/5 232/3/5
f 237/2/5 226/2/5 234/2/5
f 237/3/5 234/3/5 236/3/5
f 237/3/5 236/3/5 235/3/5
f 238/2/5 226/2/5 237/2/5
f 239/3/5 235/3/5 227/3/5
f 239/3/5 227/3/5 218/3/5
f 239/3/5 238/3/5 237/3/5
f 239/3/5 237/3/5 235/3/5
f 240/3/5 238/3/5 239/3/5
f 245/4/5 242/4/5 241/4/5
f 246/4/5 242/4/5 245/4/5
f 247/4/5 242/4/5 246/4/5
f 248/4/5 242/4/5 247/4/5
f 249/4/5 244/4/5 243/4/5
f 250/4/5 244/4/5 249/4/5
f 255/4/5 252/4/5 251/4/5
f 256/4/5 252/4/5 255/4/5
f 257/4/5 252/4/5 256/4/5
f 258/4/5 254/4/5 253/4/5
f 259/4/5 254/4/5 258/4/5
f 260/4/5 254/4/5 259/4/5
f 265/4/5 262/4/5 261/4/5
f 265/4/5 264/4/5 263/4/5
f 265/4/5 263/4/5 262/4/5
f 266/4/5 264/4/5 265/4/5
f 271/4/5 268/4/5 267/4/5
f 272/4/5 268/4/5 271/4/5
f 273/4/5 270/4/5 269/4/5
f 274/4/5 270/4/5 273/4/5
f 275/3/6 276/3/6 279/3/6
f 276/1/6 277/1/6 279/1/6
f 277/3/6 278/3/6 280/3/6
f 279/1/6 277/1/6 280/1/6
f 275/3/6 279/3/6 281/3/6
f 279/3/6 280/3/6 281/3/6
f 280/3/6 278/3/6 282/3/6
f 281/3/6 280/3/6 282/3/6
f 284/3/6 285/3/6 289/3/6
f 289/3/6 285/3/6 290/3/6
f 286/3/6 287/3/6 291/3/6
f 291/3/6 287/3/6 292/3/6
f 284/3/6 289/3/6 293/3/6
f 292/3/6 287/3/6 294/3/6
f 283/4/6 284/4/6 295/4/6
f 293/3/6 294/3/6 296/3/6
f 295/4/6 284/4/6 296/4/6
f 284/3/6 293/3/6 296/3/6
f 287/4/6 288/4/6 297/4/6
f 296/3/6 294/3/6 297/3/6
f 294/3/6 287/3/6 297/3/6
f 297/4/6 288/4/6 298/4/6
