# MagicaVoxel @ Ephtracy

# group
o 

# material
mtllib model-4.mtl
usemtl palette

# normals
vn 0 0 1
vn 0 0 -1
vn 1 0 0
vn -1 0 0
vn 0 -1 0
vn 0 1 0

# texcoords
vt 0.349609 0.5
vt 0.353516 0.5

# verts
v 0.3 1.4 1.7
v -0.3 1.4 1.7
v 0.3 2 1.7
v -0.3 2 1.7
v 0.3 1.4 0.9
v -0.3 1.4 0.9
v 0.3 1.9 0.9
v 0.2 1.9 0.9
v 0.1 1.9 0.9
v 0 1.9 0.9
v 0.3 2 0.9
v 0.2 2 0.9
v 0.1 2 0.9
v 0 2 0.9
v -0.3 2 0.9
v 0.3 1.4 1.7
v 0.3 2 1.7
v 0.3 1.9 1.6
v 0.3 2 1.6
v 0.3 1.8 1.5
v 0.3 1.9 1.5
v 0.3 1.7 1.4
v 0.3 1.8 1.4
v 0.3 1.7 1.3
v 0.3 1.8 1.3
v 0.3 1.7 1.2
v 0.3 1.8 1.2
v 0.3 1.7 1.1
v 0.3 1.8 1.1
v 0.3 1.8 1
v 0.3 1.9 1
v 0.3 1.4 0.9
v 0.3 1.9 0.9
v 0.3 2 0.9
v -0.3 1.4 1.7
v -0.3 2 1.7
v -0.3 1.4 0.9
v -0.3 2 0.9
v 0.3 1.4 1.7
v 0.3 1.4 0.9
v -0.3 1.4 1.7
v -0.3 1.4 0.9
v 0.3 2 1.7
v 0.3 2 1.6
v 0.3 2 0.9
v 0.2 2 1.6
v 0.2 2 1.5
v 0.2 2 1
v 0.2 2 0.9
v 0.1 2 1.6
v 0.1 2 1.5
v 0.1 2 1
v 0.1 2 0.9
v 0 2 1.6
v 0 2 1.5
v 0 2 1
v 0 2 0.9
v -0.1 2 1.5
v -0.1 2 1.4
v -0.1 2 1.3
v -0.1 2 1.2
v -0.1 2 1.1
v -0.1 2 1
v -0.2 2 1.4
v -0.2 2 1.3
v -0.2 2 1.2
v -0.2 2 1.1
v -0.3 2 1.7
v -0.3 2 0.9

# faces
f 3/2/1 2/2/1 1/2/1
f 4/2/1 2/2/1 3/2/1
f 5/2/2 6/2/2 7/2/2
f 7/2/2 6/2/2 8/2/2
f 8/2/2 6/2/2 9/2/2
f 9/2/2 6/2/2 10/2/2
f 7/1/2 8/1/2 11/1/2
f 8/2/2 9/2/2 12/2/2
f 11/1/2 8/1/2 12/1/2
f 9/1/2 10/1/2 13/1/2
f 12/2/2 9/2/2 13/2/2
f 10/2/2 6/2/2 14/2/2
f 13/1/2 10/1/2 14/1/2
f 14/2/2 6/2/2 15/2/2
f 18/2/3 17/2/3 16/2/3
f 19/2/3 17/2/3 18/2/3
f 20/2/3 18/2/3 16/2/3
f 21/1/3 19/1/3 18/1/3
f 21/2/3 18/2/3 20/2/3
f 22/2/3 20/2/3 16/2/3
f 23/1/3 21/1/3 20/1/3
f 23/2/3 20/2/3 22/2/3
f 24/2/3 22/2/3 16/2/3
f 24/1/3 23/1/3 22/1/3
f 25/1/3 21/1/3 23/1/3
f 25/1/3 23/1/3 24/1/3
f 26/2/3 24/2/3 16/2/3
f 26/2/3 25/2/3 24/2/3
f 27/1/3 21/1/3 25/1/3
f 27/2/3 25/2/3 26/2/3
f 28/2/3 26/2/3 16/2/3
f 28/1/3 27/1/3 26/1/3
f 29/1/3 21/1/3 27/1/3
f 29/1/3 27/1/3 28/1/3
f 30/2/3 29/2/3 28/2/3
f 30/1/3 21/1/3 29/1/3
f 31/1/3 19/1/3 21/1/3
f 31/1/3 21/1/3 30/1/3
f 32/2/3 30/2/3 28/2/3
f 32/2/3 28/2/3 16/2/3
f 32/2/3 31/2/3 30/2/3
f 33/1/3 19/1/3 31/1/3
f 33/2/3 31/2/3 32/2/3
f 34/1/3 19/1/3 33/1/3
f 35/2/4 36/2/4 37/2/4
f 37/2/4 36/2/4 38/2/4
f 41/2/5 40/2/5 39/2/5
f 42/2/5 40/2/5 41/2/5
f 43/2/6 44/2/6 46/2/6
f 44/1/6 45/1/6 46/1/6
f 46/1/6 45/1/6 47/1/6
f 47/1/6 45/1/6 48/1/6
f 48/1/6 45/1/6 49/1/6
f 43/2/6 46/2/6 50/2/6
f 46/2/6 47/2/6 50/2/6
f 47/1/6 48/1/6 51/1/6
f 50/2/6 47/2/6 51/2/6
f 48/2/6 49/2/6 52/2/6
f 51/1/6 48/1/6 52/1/6
f 52/2/6 49/2/6 53/2/6
f 50/1/6 51/1/6 54/1/6
f 43/2/6 50/2/6 54/2/6
f 52/1/6 53/1/6 54/1/6
f 51/1/6 52/1/6 54/1/6
f 54/1/6 53/1/6 55/1/6
f 55/1/6 53/1/6 56/1/6
f 56/1/6 53/1/6 57/1/6
f 54/2/6 55/2/6 58/2/6
f 55/1/6 56/1/6 58/1/6
f 58/1/6 56/1/6 59/1/6
f 59/1/6 56/1/6 60/1/6
f 60/1/6 56/1/6 61/1/6
f 61/1/6 56/1/6 62/1/6
f 56/2/6 57/2/6 63/2/6
f 62/1/6 56/1/6 63/1/6
f 58/2/6 59/2/6 64/2/6
f 59/1/6 60/1/6 64/1/6
f 60/2/6 61/2/6 65/2/6
f 64/1/6 60/1/6 65/1/6
f 61/1/6 62/1/6 66/1/6
f 65/2/6 61/2/6 66/2/6
f 62/2/6 63/2/6 67/2/6
f 66/1/6 62/1/6 67/1/6
f 43/2/6 54/2/6 68/2/6
f 64/2/6 65/2/6 68/2/6
f 66/2/6 67/2/6 68/2/6
f 58/2/6 64/2/6 68/2/6
f 65/2/6 66/2/6 68/2/6
f 54/2/6 58/2/6 68/2/6
f 67/2/6 63/2/6 69/2/6
f 68/2/6 67/2/6 69/2/6
f 63/2/6 57/2/6 69/2/6
