# MagicaVoxel @ Ephtracy

# group
o 

# material
mtllib model-0.mtl
usemtl palette

# normals
vn -1 0 0
vn 1 0 0
vn 0 0 1
vn 0 0 -1
vn 0 -1 0
vn 0 1 0

# texcoords
vt 0.00195313 0.5
vt 0.0292969 0.5
vt 0.0800781 0.5
vt 0.169922 0.5
vt 0.181641 0.5
vt 0.416016 0.5
vt 0.423828 0.5
vt 0.427734 0.5
vt 0.431641 0.5
vt 0.603516 0.5
vt 0.607422 0.5

# verts
v -0.9 4 1.3
v -0.9 4 -1.3
v -0.9 5.2 0.2
v -0.9 5.2 -1.3
v -0.9 6.1 1.3
v -0.9 6.1 1.2
v -0.9 6.2 1.2
v -0.9 6.2 0.2
v -0.7 3.7 1
v -0.7 3.7 -1
v -0.7 3.8 1.1
v -0.7 3.8 1
v -0.7 3.8 -1
v -0.7 3.8 -1.1
v -0.7 4 1.1
v -0.7 4 -1.1
v -0.7 5.2 0.2
v -0.7 5.2 -1.1
v -0.7 5.3 -0.2
v -0.7 5.3 -1.1
v -0.7 5.4 -0.3
v -0.7 5.4 -0.8
v -0.7 5.4 -0.9
v -0.7 5.4 -1.1
v -0.7 5.6 -0.3
v -0.7 5.6 -0.6
v -0.7 5.7 -0.3
v -0.7 5.7 -0.6
v -0.7 5.9 0.2
v -0.7 5.9 -0.2
v -0.7 5.9 -0.3
v -0.7 5.9 -0.8
v -0.7 5.9 -0.9
v -0.7 5.9 -1.1
v -0.3 3.6 0.3
v -0.3 3.6 -0.3
v -0.3 3.7 0.3
v -0.3 3.7 -0.3
v -0.3 5.9 0.2
v -0.3 5.9 0
v -0.3 6.2 0.2
v -0.3 6.2 0
v 0 4.4 1.5
v 0 4.4 1.3
v 0 4.4 -1.3
v 0 4.4 -1.5
v 0 5.1 1.5
v 0 5.1 1.3
v 0 5.1 -1.3
v 0 5.1 -1.5
v 0 4 1.3
v 0 4 1.1
v 0 4 -1.1
v 0 4 -1.3
v 0 4.4 1.3
v 0 4.4 1.1
v 0 4.4 -1.1
v 0 4.4 -1.3
v 0.2 4.4 1.5
v 0.2 4.4 1.1
v 0.2 4.4 -1.1
v 0.2 4.4 -1.5
v 0.2 4.8 1.3
v 0.2 4.8 1.1
v 0.2 4.8 -1.1
v 0.2 4.8 -1.3
v 0.2 5.1 1.5
v 0.2 5.1 1.3
v 0.2 5.1 -1.3
v 0.2 5.1 -1.5
v 0.3 3.6 0.3
v 0.3 3.6 -0.3
v 0.3 3.7 0.3
v 0.3 3.7 -0.3
v 0.3 5.9 0.4
v 0.3 5.9 0
v 0.3 6.2 0.4
v 0.3 6.2 0
v 0.4 4.8 1.3
v 0.4 4.8 1.1
v 0.4 4.8 -1.1
v 0.4 4.8 -1.3
v 0.4 5.2 -1.1
v 0.4 5.2 -1.3
v 0.4 5.4 1.3
v 0.4 5.4 1.1
v 0.7 5.4 1.3
v 0.7 5.4 1.1
v 0.7 5.9 1.1
v 0.7 5.9 0.4
v 0.7 6.1 1.3
v 0.7 6.1 1.2
v 0.7 6.2 1.2
v 0.7 6.2 0.4
v 0.9 3.7 1
v 0.9 3.7 0.7
v 0.9 3.7 0.6
v 0.9 3.7 -1
v 0.9 3.8 1.1
v 0.9 3.8 1
v 0.9 3.8 0.9
v 0.9 3.8 0.8
v 0.9 3.8 -1
v 0.9 3.8 -1.1
v 0.9 3.9 1.1
v 0.9 3.9 0.9
v 0.9 4 1.1
v 0.9 4 0.9
v 0.9 4 -0.6
v 0.9 4 -0.9
v 0.9 4.1 0.9
v 0.9 4.1 0.8
v 0.9 4.1 0.4
v 0.9 4.1 0.2
v 0.9 4.1 0
v 0.9 4.1 -0.4
v 0.9 4.2 1.1
v 0.9 4.2 0.7
v 0.9 4.2 0.4
v 0.9 4.2 0.2
v 0.9 4.2 0
v 0.9 4.2 -0.4
v 0.9 4.3 1.1
v 0.9 4.3 0.6
v 0.9 4.3 -0.6
v 0.9 4.3 -0.9
v 0.9 4.5 0.8
v 0.9 4.5 0.2
v 0.9 4.5 -0.2
v 0.9 4.5 -0.8
v 0.9 4.6 0.7
v 0.9 4.6 0.4
v 0.9 4.6 -0.4
v 0.9 4.6 -0.7
v 0.9 4.8 -0.5
v 0.9 4.8 -0.6
v 0.9 4.9 -0.5
v 0.9 4.9 -0.6
v 0.9 5 0.6
v 0.9 5 0.5
v 0.9 5 -0.4
v 0.9 5 -0.7
v 0.9 5.1 0.6
v 0.9 5.1 0.5
v 0.9 5.1 -0.2
v 0.9 5.1 -0.8
v 0.9 5.2 0.7
v 0.9 5.2 0.4
v 0.9 5.2 -0.2
v 0.9 5.2 -0.6
v 0.9 5.3 0.8
v 0.9 5.3 0.2
v 0.9 5.3 -0.6
v 0.9 5.3 -1
v 0.9 5.4 1
v 0.9 5.4 0.2
v 0.9 5.4 -0.2
v 0.9 5.4 -0.4
v 0.9 5.5 -0.1
v 0.9 5.5 -0.3
v 0.9 5.5 -0.4
v 0.9 5.5 -1
v 0.9 5.6 1
v 0.9 5.6 0.2
v 0.9 5.7 -0.1
v 0.9 5.7 -0.3
v 0.9 5.9 1.1
v 0.9 5.9 -1.1
v 1 5.2 -0.2
v 1 5.2 -0.6
v 1 5.3 -0.6
v 1 5.3 -1
v 1 5.4 1
v 1 5.4 0.2
v 1 5.4 -0.2
v 1 5.4 -0.4
v 1 5.5 -0.4
v 1 5.5 -1
v 1 5.6 1
v 1 5.6 0.2
v 0 4.4 1.5
v 0 5.1 1.5
v 0.2 4.4 1.5
v 0.2 5.1 1.5
v -0.9 4 1.3
v -0.9 6.1 1.3
v 0 4 1.3
v 0 4.4 1.3
v 0 5.1 1.3
v 0.2 4.8 1.3
v 0.2 5.1 1.3
v 0.4 4.8 1.3
v 0.4 5.4 1.3
v 0.7 5.4 1.3
v 0.7 6.1 1.3
v -0.9 6.1 1.2
v -0.9 6.2 1.2
v 0.7 6.1 1.2
v 0.7 6.2 1.2
v -0.7 3.8 1.1
v -0.7 4 1.1
v 0 4 1.1
v 0 4.4 1.1
v 0.2 4.4 1.1
v 0.2 4.8 1.1
v 0.3 3.8 1.1
v 0.3 4.3 1.1
v 0.4 3.8 1.1
v 0.4 4.2 1.1
v 0.4 4.8 1.1
v 0.4 5.4 1.1
v 0.5 4 1.1
v 0.5 4.1 1.1
v 0.5 4.9 1.1
v 0.5 5.1 1.1
v 0.6 3.8 1.1
v 0.6 4 1.1
v 0.7 3.8 1.1
v 0.7 3.9 1.1
v 0.7 4 1.1
v 0.7 4.1 1.1
v 0.7 4.9 1.1
v 0.7 5.1 1.1
v 0.7 5.4 1.1
v 0.7 5.9 1.1
v 0.9 3.8 1.1
v 0.9 3.9 1.1
v 0.9 4 1.1
v 0.9 4.2 1.1
v 0.9 4.3 1.1
v 0.9 5.9 1.1
v -0.7 3.7 1
v -0.7 3.8 1
v 0.3 3.7 1
v 0.3 3.8 1
v 0.4 3.7 1
v 0.4 3.8 1
v 0.6 3.8 1
v 0.7 3.8 1
v 0.9 3.7 1
v 0.9 3.8 1
v 0.9 5.4 1
v 0.9 5.6 1
v 1 5.4 1
v 1 5.6 1
v -0.3 3.6 0.3
v -0.3 3.7 0.3
v 0.3 3.6 0.3
v 0.3 3.7 0.3
v 0.9 5.2 -0.2
v 0.9 5.4 -0.2
v 1 5.2 -0.2
v 1 5.4 -0.2
v 0.9 5.4 -0.4
v 0.9 5.5 -0.4
v 1 5.4 -0.4
v 1 5.5 -0.4
v 0.3 5.9 0.4
v 0.3 6.2 0.4
v 0.7 5.9 0.4
v 0.7 6.2 0.4
v -0.9 5.2 0.2
v -0.9 6.2 0.2
v -0.7 5.2 0.2
v -0.7 5.9 0.2
v -0.3 5.9 0.2
v -0.3 6.2 0.2
v 0.9 5.4 0.2
v 0.9 5.6 0.2
v 1 5.4 0.2
v 1 5.6 0.2
v -0.3 5.9 0
v -0.3 6.2 0
v 0.3 5.9 0
v 0.3 6.2 0
v -0.3 3.6 -0.3
v -0.3 3.7 -0.3
v 0.3 3.6 -0.3
v 0.3 3.7 -0.3
v 0.9 5.2 -0.6
v 0.9 5.3 -0.6
v 1 5.2 -0.6
v 1 5.3 -0.6
v -0.7 3.7 -1
v -0.7 3.8 -1
v 0.9 3.7 -1
v 0.9 3.8 -1
v 0.9 5.3 -1
v 0.9 5.5 -1
v 1 5.3 -1
v 1 5.5 -1
v -0.7 3.8 -1.1
v -0.7 4 -1.1
v -0.7 5.2 -1.1
v -0.7 5.3 -1.1
v -0.7 5.4 -1.1
v -0.7 5.9 -1.1
v -0.5 5.6 -1.1
v -0.5 5.9 -1.1
v -0.4 5.6 -1.1
v -0.4 5.9 -1.1
v -0.2 5.4 -1.1
v -0.2 5.9 -1.1
v -0.1 5.4 -1.1
v -0.1 5.9 -1.1
v 0 4 -1.1
v 0 4.4 -1.1
v 0.1 5.4 -1.1
v 0.1 5.9 -1.1
v 0.2 4.4 -1.1
v 0.2 4.8 -1.1
v 0.2 5.3 -1.1
v 0.2 5.9 -1.1
v 0.3 4.4 -1.1
v 0.3 4.7 -1.1
v 0.4 4.8 -1.1
v 0.4 5.2 -1.1
v 0.6 4.4 -1.1
v 0.6 4.7 -1.1
v 0.9 3.8 -1.1
v 0.9 5.9 -1.1
v -0.9 4 -1.3
v -0.9 5.2 -1.3
v 0 4 -1.3
v 0 4.4 -1.3
v 0 5.1 -1.3
v 0.2 4.8 -1.3
v 0.2 5.1 -1.3
v 0.4 4.8 -1.3
v 0.4 5.2 -1.3
v 0 4.4 -1.5
v 0 5.1 -1.5
v 0.2 4.4 -1.5
v 0.2 5.1 -1.5
v -0.3 3.6 0.3
v 0.3 3.6 0.3
v -0.3 3.6 -0.3
v 0.3 3.6 -0.3
v -0.7 3.7 1
v 0.3 3.7 1
v 0.4 3.7 1
v 0.9 3.7 1
v 0.4 3.7 0.7
v 0.9 3.7 0.7
v 0.3 3.7 0.6
v 0.9 3.7 0.6
v -0.3 3.7 0.3
v 0.3 3.7 0.3
v -0.3 3.7 -0.3
v 0.3 3.7 -0.3
v -0.7 3.7 -1
v 0.9 3.7 -1
v -0.7 3.8 1.1
v 0.3 3.8 1.1
v 0.4 3.8 1.1
v 0.6 3.8 1.1
v 0.7 3.8 1.1
v 0.9 3.8 1.1
v -0.7 3.8 1
v 0.3 3.8 1
v 0.4 3.8 1
v 0.6 3.8 1
v 0.7 3.8 1
v 0.9 3.8 1
v -0.7 3.8 -1
v 0.9 3.8 -1
v -0.7 3.8 -1.1
v 0.9 3.8 -1.1
v -0.9 4 1.3
v 0 4 1.3
v -0.7 4 1.1
v 0 4 1.1
v -0.7 4 -1.1
v 0 4 -1.1
v -0.9 4 -1.3
v 0 4 -1.3
v 0 4.4 1.5
v 0.2 4.4 1.5
v 0 4.4 1.3
v 0 4.4 1.1
v 0.2 4.4 1.1
v 0 4.4 -1.1
v 0.2 4.4 -1.1
v 0 4.4 -1.3
v 0 4.4 -1.5
v 0.2 4.4 -1.5
v 0.2 4.8 1.3
v 0.4 4.8 1.3
v 0.2 4.8 1.1
v 0.4 4.8 1.1
v 0.2 4.8 -1.1
v 0.4 4.8 -1.1
v 0.2 4.8 -1.3
v 0.4 4.8 -1.3
v 0.9 5.2 -0.2
v 1 5.2 -0.2
v 0.9 5.2 -0.6
v 1 5.2 -0.6
v 0.9 5.3 -0.6
v 1 5.3 -0.6
v 0.9 5.3 -1
v 1 5.3 -1
v 0.4 5.4 1.3
v 0.7 5.4 1.3
v 0.4 5.4 1.1
v 0.7 5.4 1.1
v 0.9 5.4 1
v 1 5.4 1
v 0.9 5.4 0.2
v 1 5.4 0.2
v 0 5.1 1.5
v 0.2 5.1 1.5
v 0 5.1 1.3
v 0.2 5.1 1.3
v 0 5.1 -1.3
v 0.2 5.1 -1.3
v 0 5.1 -1.5
v 0.2 5.1 -1.5
v -0.9 5.2 0.2
v -0.7 5.2 0.2
v -0.7 5.2 -1.1
v 0.4 5.2 -1.1
v -0.9 5.2 -1.3
v 0.4 5.2 -1.3
v 0.9 5.4 -0.2
v 1 5.4 -0.2
v 0.9 5.4 -0.4
v 1 5.4 -0.4
v 0.9 5.5 -0.4
v 1 5.5 -0.4
v 0.9 5.5 -1
v 1 5.5 -1
v 0.9 5.6 1
v 1 5.6 1
v 0.9 5.6 0.2
v 1 5.6 0.2
v 0.7 5.9 1.1
v 0.9 5.9 1.1
v 0.3 5.9 0.4
v 0.7 5.9 0.4
v 0.4 5.9 0.3
v 0.7 5.9 0.3
v -0.7 5.9 0.2
v -0.3 5.9 0.2
v -0.3 5.9 0
v 0.3 5.9 0
v 0.4 5.9 0
v 0.7 5.9 0
v -0.7 5.9 -0.2
v 0.2 5.9 -0.2
v -0.7 5.9 -0.3
v 0.1 5.9 -0.3
v -0.5 5.9 -0.5
v -0.1 5.9 -0.5
v -0.4 5.9 -0.6
v -0.1 5.9 -0.6
v -0.7 5.9 -0.8
v -0.5 5.9 -0.8
v -0.2 5.9 -0.8
v -0.1 5.9 -0.8
v 0.6 5.9 -0.8
v 0.8 5.9 -0.8
v -0.7 5.9 -0.9
v -0.5 5.9 -0.9
v 0.6 5.9 -1
v 0.8 5.9 -1
v -0.7 5.9 -1.1
v -0.5 5.9 -1.1
v -0.4 5.9 -1.1
v -0.2 5.9 -1.1
v -0.1 5.9 -1.1
v 0.1 5.9 -1.1
v 0.2 5.9 -1.1
v 0.9 5.9 -1.1
v -0.9 6.1 1.3
v 0.7 6.1 1.3
v -0.9 6.1 1.2
v 0.7 6.1 1.2
v -0.9 6.2 1.2
v 0.7 6.2 1.2
v 0.3 6.2 0.4
v 0.7 6.2 0.4
v -0.9 6.2 0.2
v -0.3 6.2 0.2
v -0.3 6.2 0
v 0.3 6.2 0

# faces
f 3/3/1 2/3/1 1/3/1
f 4/3/1 2/3/1 3/3/1
f 5/3/1 3/3/1 1/3/1
f 6/3/1 3/3/1 5/3/1
f 7/3/1 3/3/1 6/3/1
f 8/3/1 3/3/1 7/3/1
f 12/9/1 10/9/1 9/9/1
f 13/9/1 10/9/1 12/9/1
f 15/9/1 12/9/1 11/9/1
f 15/9/1 14/9/1 13/9/1
f 15/9/1 13/9/1 12/9/1
f 16/9/1 14/9/1 15/9/1
f 19/9/1 18/9/1 17/9/1
f 20/9/1 18/9/1 19/9/1
f 21/10/1 20/10/1 19/10/1
f 22/10/1 20/10/1 21/10/1
f 23/10/1 20/10/1 22/10/1
f 24/10/1 20/10/1 23/10/1
f 25/10/1 21/10/1 19/10/1
f 25/11/1 22/11/1 21/11/1
f 26/11/1 22/11/1 25/11/1
f 27/10/1 25/10/1 19/10/1
f 27/10/1 26/10/1 25/10/1
f 28/11/1 22/11/1 26/11/1
f 28/10/1 26/10/1 27/10/1
f 29/9/1 19/9/1 17/9/1
f 30/10/1 27/10/1 19/10/1
f 30/9/1 19/9/1 29/9/1
f 31/11/1 28/11/1 27/11/1
f 31/10/1 27/10/1 30/10/1
f 32/11/1 22/11/1 28/11/1
f 32/11/1 28/11/1 31/11/1
f 32/10/1 23/10/1 22/10/1
f 33/11/1 24/11/1 23/11/1
f 33/10/1 23/10/1 32/10/1
f 34/11/1 24/11/1 33/11/1
f 37/9/1 36/9/1 35/9/1
f 38/9/1 36/9/1 37/9/1
f 41/3/1 40/3/1 39/3/1
f 42/3/1 40/3/1 41/3/1
f 47/9/1 44/9/1 43/9/1
f 48/9/1 44/9/1 47/9/1
f 49/9/1 46/9/1 45/9/1
f 50/9/1 46/9/1 49/9/1
f 51/3/2 52/3/2 55/3/2
f 55/3/2 52/3/2 56/3/2
f 53/3/2 54/3/2 57/3/2
f 57/3/2 54/3/2 58/3/2
f 59/9/2 60/9/2 63/9/2
f 63/9/2 60/9/2 64/9/2
f 61/9/2 62/9/2 65/9/2
f 65/9/2 62/9/2 66/9/2
f 59/9/2 63/9/2 67/9/2
f 67/9/2 63/9/2 68/9/2
f 66/9/2 62/9/2 69/9/2
f 69/9/2 62/9/2 70/9/2
f 71/9/2 72/9/2 73/9/2
f 73/9/2 72/9/2 74/9/2
f 75/3/2 76/3/2 77/3/2
f 77/3/2 76/3/2 78/3/2
f 81/3/2 82/3/2 83/3/2
f 83/3/2 82/3/2 84/3/2
f 79/3/2 80/3/2 85/3/2
f 85/3/2 80/3/2 86/3/2
f 87/3/2 88/3/2 89/3/2
f 87/3/2 89/3/2 91/3/2
f 89/3/2 90/3/2 91/3/2
f 91/3/2 90/3/2 92/3/2
f 92/3/2 90/3/2 93/3/2
f 93/3/2 90/3/2 94/3/2
f 95/5/2 96/5/2 100/5/2
f 100/5/2 96/5/2 101/5/2
f 101/5/2 96/5/2 102/5/2
f 97/9/2 98/9/2 103/9/2
f 99/5/2 100/5/2 105/5/2
f 100/5/2 101/5/2 105/5/2
f 101/4/2 102/4/2 106/4/2
f 105/5/2 101/5/2 106/5/2
f 105/4/2 106/4/2 107/4/2
f 106/4/2 102/4/2 108/4/2
f 107/4/2 106/4/2 108/4/2
f 103/9/2 104/9/2 109/9/2
f 97/9/2 103/9/2 109/9/2
f 109/9/2 104/9/2 110/9/2
f 108/4/2 102/4/2 111/4/2
f 107/5/2 108/5/2 111/5/2
f 102/5/2 96/5/2 112/5/2
f 111/4/2 102/4/2 112/4/2
f 97/9/2 109/9/2 113/9/2
f 113/9/2 109/9/2 114/9/2
f 114/9/2 109/9/2 115/9/2
f 115/9/2 109/9/2 116/9/2
f 107/5/2 111/5/2 117/5/2
f 111/5/2 112/5/2 117/5/2
f 96/4/2 97/4/2 118/4/2
f 117/5/2 112/5/2 118/5/2
f 112/5/2 96/5/2 118/5/2
f 97/9/2 113/9/2 119/9/2
f 113/6/2 114/6/2 119/6/2
f 114/5/2 115/5/2 120/5/2
f 119/6/2 114/6/2 120/6/2
f 115/6/2 116/6/2 121/6/2
f 120/5/2 115/5/2 121/5/2
f 116/9/2 109/9/2 122/9/2
f 121/6/2 116/6/2 122/6/2
f 117/4/2 118/4/2 123/4/2
f 120/9/2 121/9/2 124/9/2
f 123/4/2 118/4/2 124/4/2
f 97/9/2 119/9/2 124/9/2
f 121/9/2 122/9/2 124/9/2
f 119/9/2 120/9/2 124/9/2
f 118/4/2 97/4/2 124/4/2
f 109/8/2 110/8/2 125/8/2
f 124/9/2 122/9/2 125/9/2
f 122/9/2 109/9/2 125/9/2
f 110/9/2 104/9/2 126/9/2
f 125/8/2 110/8/2 126/8/2
f 124/9/2 125/9/2 127/9/2
f 123/9/2 124/9/2 127/9/2
f 125/9/2 126/9/2 127/9/2
f 127/9/2 126/9/2 128/9/2
f 128/9/2 126/9/2 129/9/2
f 129/9/2 126/9/2 130/9/2
f 127/7/2 128/7/2 131/7/2
f 131/7/2 128/7/2 132/7/2
f 129/7/2 130/7/2 133/7/2
f 133/7/2 130/7/2 134/7/2
f 133/1/2 134/1/2 135/1/2
f 135/1/2 134/1/2 136/1/2
f 133/1/2 135/1/2 137/1/2
f 135/2/2 136/2/2 137/2/2
f 136/1/2 134/1/2 138/1/2
f 137/2/2 136/2/2 138/2/2
f 131/1/2 132/1/2 139/1/2
f 139/1/2 132/1/2 140/1/2
f 129/7/2 133/7/2 141/7/2
f 133/1/2 137/1/2 141/1/2
f 137/1/2 138/1/2 141/1/2
f 138/1/2 134/1/2 142/1/2
f 141/1/2 138/1/2 142/1/2
f 134/7/2 130/7/2 142/7/2
f 131/1/2 139/1/2 143/1/2
f 139/2/2 140/2/2 143/2/2
f 140/1/2 132/1/2 144/1/2
f 143/2/2 140/2/2 144/2/2
f 128/9/2 129/9/2 145/9/2
f 129/7/2 141/7/2 145/7/2
f 141/7/2 142/7/2 145/7/2
f 130/9/2 126/9/2 146/9/2
f 145/7/2 142/7/2 146/7/2
f 142/7/2 130/7/2 146/7/2
f 127/7/2 131/7/2 147/7/2
f 143/1/2 144/1/2 147/1/2
f 131/1/2 143/1/2 147/1/2
f 144/1/2 132/1/2 148/1/2
f 147/1/2 144/1/2 148/1/2
f 132/7/2 128/7/2 148/7/2
f 128/9/2 145/9/2 149/9/2
f 145/9/2 146/9/2 149/9/2
f 149/9/2 146/9/2 150/9/2
f 123/9/2 127/9/2 151/9/2
f 127/7/2 147/7/2 151/7/2
f 147/7/2 148/7/2 151/7/2
f 148/7/2 128/7/2 152/7/2
f 151/7/2 148/7/2 152/7/2
f 128/9/2 149/9/2 152/9/2
f 150/9/2 146/9/2 153/9/2
f 126/9/2 104/9/2 154/9/2
f 153/9/2 146/9/2 154/9/2
f 146/9/2 126/9/2 154/9/2
f 123/9/2 151/9/2 155/9/2
f 151/9/2 152/9/2 155/9/2
f 152/9/2 149/9/2 156/9/2
f 155/9/2 152/9/2 156/9/2
f 156/9/2 149/9/2 157/9/2
f 157/9/2 158/9/2 159/9/2
f 156/9/2 157/9/2 159/9/2
f 159/9/2 158/9/2 160/9/2
f 160/9/2 158/9/2 161/9/2
f 154/9/2 104/9/2 162/9/2
f 123/9/2 155/9/2 163/9/2
f 156/9/2 159/9/2 164/9/2
f 159/8/2 160/8/2 165/8/2
f 163/9/2 164/9/2 165/9/2
f 164/9/2 159/9/2 165/9/2
f 161/9/2 162/9/2 166/9/2
f 165/8/2 160/8/2 166/8/2
f 160/9/2 161/9/2 166/9/2
f 163/9/2 165/9/2 167/9/2
f 123/9/2 163/9/2 167/9/2
f 165/9/2 166/9/2 167/9/2
f 166/9/2 162/9/2 168/9/2
f 167/9/2 166/9/2 168/9/2
f 162/9/2 104/9/2 168/9/2
f 169/3/2 170/3/2 171/3/2
f 169/3/2 171/3/2 175/3/2
f 171/3/2 172/3/2 175/3/2
f 175/3/2 172/3/2 176/3/2
f 176/3/2 172/3/2 177/3/2
f 177/3/2 172/3/2 178/3/2
f 173/3/2 174/3/2 179/3/2
f 179/3/2 174/3/2 180/3/2
f 183/9/3 182/9/3 181/9/3
f 184/9/3 182/9/3 183/9/3
f 187/3/3 186/3/3 185/3/3
f 188/3/3 186/3/3 187/3/3
f 189/3/3 186/3/3 188/3/3
f 191/3/3 186/3/3 189/3/3
f 192/3/3 191/3/3 190/3/3
f 193/3/3 186/3/3 191/3/3
f 193/3/3 191/3/3 192/3/3
f 194/3/3 186/3/3 193/3/3
f 195/3/3 186/3/3 194/3/3
f 198/3/3 197/3/3 196/3/3
f 199/3/3 197/3/3 198/3/3
f 202/9/3 201/9/3 200/9/3
f 204/9/3 203/9/3 202/9/3
f 206/9/3 202/9/3 200/9/3
f 206/9/3 205/9/3 204/9/3
f 206/9/3 204/9/3 202/9/3
f 207/9/3 205/9/3 206/9/3
f 208/4/3 207/4/3 206/4/3
f 209/4/3 207/4/3 208/4/3
f 210/9/3 205/9/3 207/9/3
f 212/5/3 209/5/3 208/5/3
f 213/5/3 209/5/3 212/5/3
f 214/9/3 211/9/3 210/9/3
f 215/9/3 211/9/3 214/9/3
f 216/5/3 212/5/3 208/5/3
f 217/4/3 213/4/3 212/4/3
f 217/5/3 212/5/3 216/5/3
f 218/4/3 217/4/3 216/4/3
f 219/4/3 217/4/3 218/4/3
f 220/4/3 213/4/3 217/4/3
f 220/4/3 217/4/3 219/4/3
f 221/5/3 209/5/3 213/5/3
f 221/4/3 213/4/3 220/4/3
f 222/9/3 214/9/3 210/9/3
f 222/8/3 215/8/3 214/8/3
f 223/9/3 211/9/3 215/9/3
f 223/8/3 215/8/3 222/8/3
f 224/9/3 211/9/3 223/9/3
f 226/5/3 219/5/3 218/5/3
f 227/4/3 220/4/3 219/4/3
f 227/5/3 219/5/3 226/5/3
f 228/5/3 221/5/3 220/5/3
f 228/4/3 220/4/3 227/4/3
f 229/4/3 207/4/3 209/4/3
f 229/5/3 221/5/3 228/5/3
f 229/5/3 209/5/3 221/5/3
f 230/9/3 210/9/3 207/9/3
f 230/4/3 207/4/3 229/4/3
f 230/9/3 222/9/3 210/9/3
f 230/9/3 223/9/3 222/9/3
f 230/9/3 224/9/3 223/9/3
f 230/9/3 225/9/3 224/9/3
f 231/9/3 225/9/3 230/9/3
f 234/9/3 233/9/3 232/9/3
f 235/9/3 233/9/3 234/9/3
f 236/4/3 235/4/3 234/4/3
f 237/4/3 235/4/3 236/4/3
f 238/5/3 237/5/3 236/5/3
f 239/5/3 238/5/3 236/5/3
f 240/5/3 239/5/3 236/5/3
f 241/5/3 239/5/3 240/5/3
f 244/3/3 243/3/3 242/3/3
f 245/3/3 243/3/3 244/3/3
f 248/9/3 247/9/3 246/9/3
f 249/9/3 247/9/3 248/9/3
f 252/3/3 251/3/3 250/3/3
f 253/3/3 251/3/3 252/3/3
f 256/3/3 255/3/3 254/3/3
f 257/3/3 255/3/3 256/3/3
f 258/3/4 259/3/4 260/3/4
f 260/3/4 259/3/4 261/3/4
f 262/3/4 263/3/4 264/3/4
f 264/3/4 263/3/4 265/3/4
f 265/3/4 263/3/4 266/3/4
f 266/3/4 263/3/4 267/3/4
f 268/3/4 269/3/4 270/3/4
f 270/3/4 269/3/4 271/3/4
f 272/3/4 273/3/4 274/3/4
f 274/3/4 273/3/4 275/3/4
f 276/9/4 277/9/4 278/9/4
f 278/9/4 277/9/4 279/9/4
f 280/3/4 281/3/4 282/3/4
f 282/3/4 281/3/4 283/3/4
f 284/9/4 285/9/4 286/9/4
f 286/9/4 285/9/4 287/9/4
f 288/3/4 289/3/4 290/3/4
f 290/3/4 289/3/4 291/3/4
f 296/11/4 297/11/4 298/11/4
f 298/11/4 297/11/4 299/11/4
f 296/11/4 298/11/4 300/11/4
f 298/10/4 299/10/4 300/10/4
f 300/10/4 299/10/4 301/10/4
f 295/10/4 296/10/4 302/10/4
f 296/11/4 300/11/4 302/11/4
f 300/11/4 301/11/4 302/11/4
f 302/11/4 301/11/4 303/11/4
f 295/10/4 302/10/4 304/10/4
f 302/10/4 303/10/4 304/10/4
f 304/10/4 303/10/4 305/10/4
f 292/9/4 293/9/4 306/9/4
f 295/10/4 304/10/4 308/10/4
f 304/11/4 305/11/4 308/11/4
f 308/11/4 305/11/4 309/11/4
f 306/9/4 307/9/4 310/9/4
f 294/9/4 295/9/4 312/9/4
f 295/10/4 308/10/4 312/10/4
f 308/10/4 309/10/4 312/10/4
f 312/10/4 309/10/4 313/10/4
f 310/9/4 311/9/4 314/9/4
f 306/9/4 310/9/4 314/9/4
f 314/9/4 311/9/4 315/9/4
f 315/9/4 311/9/4 316/9/4
f 312/9/4 313/9/4 317/9/4
f 294/9/4 312/9/4 317/9/4
f 314/8/4 315/8/4 318/8/4
f 306/9/4 314/9/4 318/9/4
f 315/9/4 316/9/4 319/9/4
f 318/8/4 315/8/4 319/8/4
f 316/9/4 317/9/4 319/9/4
f 292/9/4 306/9/4 320/9/4
f 306/9/4 318/9/4 320/9/4
f 318/9/4 319/9/4 320/9/4
f 319/9/4 317/9/4 321/9/4
f 320/9/4 319/9/4 321/9/4
f 317/9/4 313/9/4 321/9/4
f 322/3/4 323/3/4 324/3/4
f 324/3/4 323/3/4 325/3/4
f 325/3/4 323/3/4 326/3/4
f 326/3/4 323/3/4 328/3/4
f 327/3/4 328/3/4 329/3/4
f 328/3/4 323/3/4 330/3/4
f 329/3/4 328/3/4 330/3/4
f 331/9/4 332/9/4 333/9/4
f 333/9/4 332/9/4 334/9/4
f 337/9/5 336/9/5 335/9/5
f 338/9/5 336/9/5 337/9/5
f 343/4/5 341/4/5 340/4/5
f 343/5/5 342/5/5 341/5/5
f 344/5/5 342/5/5 343/5/5
f 345/9/5 340/9/5 339/9/5
f 345/4/5 343/4/5 340/4/5
f 345/4/5 344/4/5 343/4/5
f 346/4/5 344/4/5 345/4/5
f 347/9/5 345/9/5 339/9/5
f 347/9/5 346/9/5 345/9/5
f 348/9/5 346/9/5 347/9/5
f 349/9/5 347/9/5 339/9/5
f 350/9/5 346/9/5 348/9/5
f 351/9/5 349/9/5 339/9/5
f 351/9/5 350/9/5 349/9/5
f 352/9/5 346/9/5 350/9/5
f 352/9/5 350/9/5 351/9/5
f 359/9/5 354/9/5 353/9/5
f 360/4/5 355/4/5 354/4/5
f 360/9/5 354/9/5 359/9/5
f 361/5/5 356/5/5 355/5/5
f 361/4/5 355/4/5 360/4/5
f 362/4/5 357/4/5 356/4/5
f 362/5/5 356/5/5 361/5/5
f 363/5/5 358/5/5 357/5/5
f 363/4/5 357/4/5 362/4/5
f 364/5/5 358/5/5 363/5/5
f 367/9/5 366/9/5 365/9/5
f 368/9/5 366/9/5 367/9/5
f 371/3/5 370/3/5 369/3/5
f 372/3/5 370/3/5 371/3/5
f 373/3/5 371/3/5 369/3/5
f 375/3/5 373/3/5 369/3/5
f 375/3/5 374/3/5 373/3/5
f 376/3/5 374/3/5 375/3/5
f 379/9/5 378/9/5 377/9/5
f 380/9/5 378/9/5 379/9/5
f 381/9/5 378/9/5 380/9/5
f 384/9/5 383/9/5 382/9/5
f 385/9/5 383/9/5 384/9/5
f 386/9/5 383/9/5 385/9/5
f 389/3/5 388/3/5 387/3/5
f 390/3/5 388/3/5 389/3/5
f 393/3/5 392/3/5 391/3/5
f 394/3/5 392/3/5 393/3/5
f 397/3/5 396/3/5 395/3/5
f 398/3/5 396/3/5 397/3/5
f 401/3/5 400/3/5 399/3/5
f 402/3/5 400/3/5 401/3/5
f 405/3/5 404/3/5 403/3/5
f 406/3/5 404/3/5 405/3/5
f 409/3/5 408/3/5 407/3/5
f 410/3/5 408/3/5 409/3/5
f 411/9/6 412/9/6 413/9/6
f 413/9/6 412/9/6 414/9/6
f 415/9/6 416/9/6 417/9/6
f 417/9/6 416/9/6 418/9/6
f 419/3/6 420/3/6 421/3/6
f 419/3/6 421/3/6 423/3/6
f 421/3/6 422/3/6 423/3/6
f 423/3/6 422/3/6 424/3/6
f 425/3/6 426/3/6 427/3/6
f 427/3/6 426/3/6 428/3/6
f 429/3/6 430/3/6 431/3/6
f 431/3/6 430/3/6 432/3/6
f 433/3/6 434/3/6 435/3/6
f 435/3/6 434/3/6 436/3/6
f 437/9/6 438/9/6 440/9/6
f 439/9/6 440/9/6 441/9/6
f 440/9/6 438/9/6 442/9/6
f 441/9/6 440/9/6 442/9/6
f 443/9/6 444/9/6 445/9/6
f 439/9/6 441/9/6 446/9/6
f 441/8/6 442/8/6 447/8/6
f 446/9/6 441/9/6 447/9/6
f 442/9/6 438/9/6 448/9/6
f 447/8/6 442/8/6 448/8/6
f 443/9/6 445/9/6 449/9/6
f 445/9/6 446/9/6 449/9/6
f 447/9/6 448/9/6 449/9/6
f 446/9/6 447/9/6 449/9/6
f 449/9/6 448/9/6 450/9/6
f 449/10/6 450/10/6 451/10/6
f 451/10/6 450/10/6 452/10/6
f 451/11/6 452/11/6 453/11/6
f 453/11/6 452/11/6 454/11/6
f 453/10/6 454/10/6 455/10/6
f 454/11/6 452/11/6 456/11/6
f 455/10/6 454/10/6 456/10/6
f 451/11/6 453/11/6 457/11/6
f 453/10/6 455/10/6 458/10/6
f 457/11/6 453/11/6 458/11/6
f 455/11/6 456/11/6 459/11/6
f 456/11/6 452/11/6 460/11/6
f 459/11/6 456/11/6 460/11/6
f 450/9/6 448/9/6 461/9/6
f 448/9/6 438/9/6 462/9/6
f 461/9/6 448/9/6 462/9/6
f 457/10/6 458/10/6 463/10/6
f 458/10/6 455/10/6 464/10/6
f 463/10/6 458/10/6 464/10/6
f 450/9/6 461/9/6 465/9/6
f 461/8/6 462/8/6 465/8/6
f 462/9/6 438/9/6 466/9/6
f 465/8/6 462/8/6 466/8/6
f 463/11/6 464/11/6 467/11/6
f 464/10/6 455/10/6 468/10/6
f 467/11/6 464/11/6 468/11/6
f 455/11/6 459/11/6 469/11/6
f 468/10/6 455/10/6 469/10/6
f 459/10/6 460/10/6 470/10/6
f 469/11/6 459/11/6 470/11/6
f 460/11/6 452/11/6 471/11/6
f 470/10/6 460/10/6 471/10/6
f 452/10/6 450/10/6 472/10/6
f 471/11/6 452/11/6 472/11/6
f 450/9/6 465/9/6 473/9/6
f 472/10/6 450/10/6 473/10/6
f 465/9/6 466/9/6 473/9/6
f 466/9/6 438/9/6 474/9/6
f 473/9/6 466/9/6 474/9/6
f 475/3/6 476/3/6 477/3/6
f 477/3/6 476/3/6 478/3/6
f 479/3/6 480/3/6 481/3/6
f 481/3/6 480/3/6 482/3/6
f 479/3/6 481/3/6 483/3/6
f 483/3/6 481/3/6 484/3/6
f 484/3/6 481/3/6 485/3/6
f 485/3/6 481/3/6 486/3/6
