# MagicaVoxel @ Ephtracy

# group
o 

# material
mtllib model-0.mtl
usemtl palette

# normals
vn 0 0 1
vn 0 0 -1
vn 1 0 0
vn -1 0 0
vn 0 -1 0
vn 0 1 0

# texcoords
vt 0.0292969 0.5
vt 0.0371094 0.5
vt 0.298828 0.5
vt 0.310547 0.5
vt 0.486328 0.5
vt 0.517578 0.5

# verts
v 0.4 0.4 -0.2
v -0.4 0.4 -0.2
v 0.4 1.1 -0.2
v -0.4 1.1 -0.2
v 0.4 0.4 -0.9
v -0.4 0.4 -0.9
v 0.2 0.6 -0.9
v 0.1 0.6 -0.9
v -0.1 0.6 -0.9
v -0.2 0.6 -0.9
v 0.3 0.7 -0.9
v 0.2 0.7 -0.9
v 0.1 0.7 -0.9
v 0 0.7 -0.9
v -0.1 0.7 -0.9
v -0.2 0.7 -0.9
v 0.3 0.8 -0.9
v 0.2 0.8 -0.9
v 0.1 0.8 -0.9
v 0 0.8 -0.9
v -0.2 0.8 -0.9
v -0.3 0.8 -0.9
v 0.2 0.9 -0.9
v 0.1 0.9 -0.9
v -0.2 0.9 -0.9
v -0.3 0.9 -0.9
v 0.4 1.1 -0.9
v -0.4 1.1 -0.9
v 0.4 0.4 -0.2
v 0.4 1.1 -0.2
v 0.4 0.6 -0.3
v 0.4 0.7 -0.3
v 0.4 0.6 -0.4
v 0.4 0.7 -0.4
v 0.4 0.7 -0.5
v 0.4 0.8 -0.5
v 0.4 0.6 -0.6
v 0.4 0.7 -0.6
v 0.4 0.8 -0.6
v 0.4 0.9 -0.6
v 0.4 0.6 -0.7
v 0.4 0.7 -0.7
v 0.4 0.8 -0.7
v 0.4 0.9 -0.7
v 0.4 0.7 -0.8
v 0.4 0.8 -0.8
v 0.4 0.4 -0.9
v 0.4 1.1 -0.9
v -0.4 0.4 -0.2
v -0.4 1.1 -0.2
v -0.4 0.8 -0.3
v -0.4 0.9 -0.3
v -0.4 0.8 -0.4
v -0.4 0.9 -0.4
v -0.4 0.7 -0.5
v -0.4 0.8 -0.5
v -0.4 0.6 -0.6
v -0.4 0.7 -0.6
v -0.4 0.8 -0.6
v -0.4 0.9 -0.6
v -0.4 0.6 -0.7
v -0.4 0.7 -0.7
v -0.4 0.8 -0.7
v -0.4 0.9 -0.7
v -0.4 0.7 -0.8
v -0.4 0.8 -0.8
v -0.4 0.4 -0.9
v -0.4 1.1 -0.9
v 0.4 0.4 -0.2
v 0.4 0.4 -0.9
v -0.4 0.4 -0.2
v -0.4 0.4 -0.9
v 0.4 1.1 -0.2
v 0.4 1.1 -0.9
v -0.4 1.1 -0.2
v -0.4 1.1 -0.9

# faces
f 3/2/1 2/2/1 1/2/1
f 4/2/1 2/2/1 3/2/1
f 5/2/2 6/2/2 7/2/2
f 7/2/2 6/2/2 8/2/2
f 8/2/2 6/2/2 9/2/2
f 9/2/2 6/2/2 10/2/2
f 5/2/2 7/2/2 11/2/2
f 7/3/2 8/3/2 12/3/2
f 11/2/2 7/2/2 12/2/2
f 8/2/2 9/2/2 13/2/2
f 12/3/2 8/3/2 13/3/2
f 13/2/2 9/2/2 14/2/2
f 9/1/2 10/1/2 15/1/2
f 14/2/2 9/2/2 15/2/2
f 10/2/2 6/2/2 16/2/2
f 15/1/2 10/1/2 16/1/2
f 5/2/2 11/2/2 17/2/2
f 11/3/2 12/3/2 17/3/2
f 12/4/2 13/4/2 18/4/2
f 17/3/2 12/3/2 18/3/2
f 13/3/2 14/3/2 19/3/2
f 18/4/2 13/4/2 19/4/2
f 14/2/2 15/2/2 20/2/2
f 19/3/2 14/3/2 20/3/2
f 15/2/2 16/2/2 20/2/2
f 16/2/2 6/2/2 21/2/2
f 20/2/2 16/2/2 21/2/2
f 21/2/2 6/2/2 22/2/2
f 18/3/2 19/3/2 23/3/2
f 17/2/2 18/2/2 23/2/2
f 19/2/2 20/2/2 24/2/2
f 23/3/2 19/3/2 24/3/2
f 20/2/2 21/2/2 24/2/2
f 21/1/2 22/1/2 25/1/2
f 24/2/2 21/2/2 25/2/2
f 22/2/2 6/2/2 26/2/2
f 25/1/2 22/1/2 26/1/2
f 24/2/2 25/2/2 27/2/2
f 17/2/2 23/2/2 27/2/2
f 25/2/2 26/2/2 27/2/2
f 23/2/2 24/2/2 27/2/2
f 5/2/2 17/2/2 27/2/2
f 26/2/2 6/2/2 28/2/2
f 27/2/2 26/2/2 28/2/2
f 31/2/3 30/2/3 29/2/3
f 32/2/3 30/2/3 31/2/3
f 33/2/3 31/2/3 29/2/3
f 33/1/3 32/1/3 31/1/3
f 34/2/3 30/2/3 32/2/3
f 34/1/3 32/1/3 33/1/3
f 35/2/3 34/2/3 33/2/3
f 35/2/3 30/2/3 34/2/3
f 36/2/3 30/2/3 35/2/3
f 37/2/3 33/2/3 29/2/3
f 37/2/3 35/2/3 33/2/3
f 38/6/3 36/6/3 35/6/3
f 38/2/3 35/2/3 37/2/3
f 39/2/3 30/2/3 36/2/3
f 39/6/3 36/6/3 38/6/3
f 40/2/3 30/2/3 39/2/3
f 41/6/3 38/6/3 37/6/3
f 41/2/3 37/2/3 29/2/3
f 42/5/3 39/5/3 38/5/3
f 42/6/3 38/6/3 41/6/3
f 43/6/3 40/6/3 39/6/3
f 43/5/3 39/5/3 42/5/3
f 44/2/3 30/2/3 40/2/3
f 44/6/3 40/6/3 43/6/3
f 45/6/3 43/6/3 42/6/3
f 45/2/3 42/2/3 41/2/3
f 46/2/3 44/2/3 43/2/3
f 46/6/3 43/6/3 45/6/3
f 47/2/3 45/2/3 41/2/3
f 47/2/3 41/2/3 29/2/3
f 47/2/3 46/2/3 45/2/3
f 48/2/3 30/2/3 44/2/3
f 48/2/3 46/2/3 47/2/3
f 48/2/3 44/2/3 46/2/3
f 49/2/4 50/2/4 51/2/4
f 51/2/4 50/2/4 52/2/4
f 49/2/4 51/2/4 53/2/4
f 51/1/4 52/1/4 53/1/4
f 52/2/4 50/2/4 54/2/4
f 53/1/4 52/1/4 54/1/4
f 49/2/4 53/2/4 55/2/4
f 53/2/4 54/2/4 55/2/4
f 55/2/4 54/2/4 56/2/4
f 49/2/4 55/2/4 57/2/4
f 55/6/4 56/6/4 58/6/4
f 57/2/4 55/2/4 58/2/4
f 56/2/4 54/2/4 59/2/4
f 58/6/4 56/6/4 59/6/4
f 54/2/4 50/2/4 60/2/4
f 59/2/4 54/2/4 60/2/4
f 57/6/4 58/6/4 61/6/4
f 49/2/4 57/2/4 61/2/4
f 58/5/4 59/5/4 62/5/4
f 61/6/4 58/6/4 62/6/4
f 59/6/4 60/6/4 63/6/4
f 62/5/4 59/5/4 63/5/4
f 60/2/4 50/2/4 64/2/4
f 63/6/4 60/6/4 64/6/4
f 62/6/4 63/6/4 65/6/4
f 61/2/4 62/2/4 65/2/4
f 63/2/4 64/2/4 66/2/4
f 65/6/4 63/6/4 66/6/4
f 49/2/4 61/2/4 67/2/4
f 61/2/4 65/2/4 67/2/4
f 65/2/4 66/2/4 67/2/4
f 66/2/4 64/2/4 68/2/4
f 67/2/4 66/2/4 68/2/4
f 64/2/4 50/2/4 68/2/4
f 71/2/5 70/2/5 69/2/5
f 72/2/5 70/2/5 71/2/5
f 73/2/6 74/2/6 75/2/6
f 75/2/6 74/2/6 76/2/6
