# MagicaVoxel @ Ephtracy

# group
o 

# material
mtllib model-1.mtl
usemtl palette

# normals
vn 0 0 1
vn 0 0 -1
vn 1 0 0
vn -1 0 0
vn 0 -1 0
vn 0 1 0

# texcoords
vt 0.0292969 0.5
vt 0.0371094 0.5
vt 0.361328 0.5
vt 0.373047 0.5
vt 0.486328 0.5
vt 0.517578 0.5
vt 0.642578 0.5
vt 0.654297 0.5

# verts
v 0.4 0.4 0.9
v 0.2 0.4 0.9
v 0.1 0.4 0.9
v -0.4 0.4 0.9
v 0.3 0.5 0.9
v 0.2 0.5 0.9
v 0.1 0.5 0.9
v 0 0.5 0.9
v 0.3 0.6 0.9
v 0.2 0.6 0.9
v 0.1 0.6 0.9
v 0 0.6 0.9
v -0.1 0.6 0.9
v -0.2 0.6 0.9
v 0.2 0.7 0.9
v 0.1 0.7 0.9
v 0 0.7 0.9
v -0.1 0.7 0.9
v -0.2 0.7 0.9
v -0.3 0.7 0.9
v 0 0.8 0.9
v -0.1 0.8 0.9
v -0.2 0.8 0.9
v -0.3 0.8 0.9
v -0.1 0.9 0.9
v -0.2 0.9 0.9
v 0.4 1.1 0.9
v -0.4 1.1 0.9
v 0.4 0.4 0.2
v -0.4 0.4 0.2
v 0.4 1.1 0.2
v -0.4 1.1 0.2
v 0.4 0.4 0.9
v 0.4 1.1 0.9
v 0.4 0.7 0.8
v 0.4 0.8 0.8
v 0.4 0.7 0.7
v 0.4 0.8 0.7
v 0.4 0.7 0.6
v 0.4 0.8 0.6
v 0.4 0.6 0.5
v 0.4 0.7 0.5
v 0.4 0.8 0.5
v 0.4 0.9 0.5
v 0.4 0.6 0.4
v 0.4 0.7 0.4
v 0.4 0.8 0.4
v 0.4 0.9 0.4
v 0.4 0.7 0.3
v 0.4 0.8 0.3
v 0.4 0.4 0.2
v 0.4 1.1 0.2
v -0.4 0.4 0.9
v -0.4 1.1 0.9
v -0.4 0.6 0.8
v -0.4 0.7 0.8
v -0.4 0.6 0.7
v -0.4 0.7 0.7
v -0.4 0.7 0.6
v -0.4 0.8 0.6
v -0.4 0.6 0.5
v -0.4 0.7 0.5
v -0.4 0.8 0.5
v -0.4 0.9 0.5
v -0.4 0.6 0.4
v -0.4 0.7 0.4
v -0.4 0.8 0.4
v -0.4 0.9 0.4
v -0.4 0.7 0.3
v -0.4 0.8 0.3
v -0.4 0.4 0.2
v -0.4 1.1 0.2
v 0.4 0.4 0.9
v 0.4 0.4 0.2
v 0.2 0.4 0.9
v 0.2 0.4 0.8
v 0.1 0.4 0.9
v 0.1 0.4 0.8
v -0.4 0.4 0.9
v -0.4 0.4 0.2
v 0.4 1.1 0.9
v 0.4 1.1 0.2
v -0.4 1.1 0.9
v -0.4 1.1 0.2

# faces
f 5/2/1 2/2/1 1/2/1
f 6/7/1 3/7/1 2/7/1
f 6/2/1 2/2/1 5/2/1
f 7/2/1 4/2/1 3/2/1
f 7/7/1 3/7/1 6/7/1
f 8/2/1 4/2/1 7/2/1
f 9/7/1 6/7/1 5/7/1
f 9/2/1 5/2/1 1/2/1
f 10/8/1 7/8/1 6/8/1
f 10/7/1 6/7/1 9/7/1
f 11/7/1 8/7/1 7/7/1
f 11/8/1 7/8/1 10/8/1
f 12/2/1 4/2/1 8/2/1
f 12/7/1 8/7/1 11/7/1
f 13/2/1 4/2/1 12/2/1
f 14/2/1 4/2/1 13/2/1
f 15/7/1 11/7/1 10/7/1
f 15/2/1 10/2/1 9/2/1
f 16/2/1 12/2/1 11/2/1
f 16/7/1 11/7/1 15/7/1
f 16/2/1 13/2/1 12/2/1
f 17/2/1 13/2/1 16/2/1
f 18/6/1 14/6/1 13/6/1
f 18/2/1 13/2/1 17/2/1
f 19/2/1 4/2/1 14/2/1
f 19/6/1 14/6/1 18/6/1
f 20/2/1 4/2/1 19/2/1
f 21/6/1 18/6/1 17/6/1
f 21/2/1 17/2/1 16/2/1
f 21/2/1 16/2/1 15/2/1
f 22/5/1 19/5/1 18/5/1
f 22/6/1 18/6/1 21/6/1
f 23/6/1 20/6/1 19/6/1
f 23/5/1 19/5/1 22/5/1
f 24/2/1 4/2/1 20/2/1
f 24/6/1 20/6/1 23/6/1
f 25/6/1 23/6/1 22/6/1
f 25/2/1 22/2/1 21/2/1
f 26/2/1 24/2/1 23/2/1
f 26/6/1 23/6/1 25/6/1
f 27/2/1 25/2/1 21/2/1
f 27/2/1 9/2/1 1/2/1
f 27/2/1 26/2/1 25/2/1
f 27/2/1 21/2/1 15/2/1
f 27/2/1 15/2/1 9/2/1
f 28/2/1 4/2/1 24/2/1
f 28/2/1 26/2/1 27/2/1
f 28/2/1 24/2/1 26/2/1
f 29/2/2 30/2/2 31/2/2
f 31/2/2 30/2/2 32/2/2
f 35/2/3 34/2/3 33/2/3
f 36/2/3 34/2/3 35/2/3
f 37/2/3 35/2/3 33/2/3
f 37/1/3 36/1/3 35/1/3
f 38/2/3 34/2/3 36/2/3
f 38/1/3 36/1/3 37/1/3
f 39/2/3 37/2/3 33/2/3
f 39/2/3 38/2/3 37/2/3
f 40/2/3 34/2/3 38/2/3
f 40/2/3 38/2/3 39/2/3
f 41/2/3 39/2/3 33/2/3
f 42/3/3 40/3/3 39/3/3
f 42/2/3 39/2/3 41/2/3
f 43/2/3 34/2/3 40/2/3
f 43/3/3 40/3/3 42/3/3
f 44/2/3 34/2/3 43/2/3
f 45/3/3 42/3/3 41/3/3
f 45/2/3 41/2/3 33/2/3
f 46/4/3 43/4/3 42/4/3
f 46/3/3 42/3/3 45/3/3
f 47/3/3 44/3/3 43/3/3
f 47/4/3 43/4/3 46/4/3
f 48/2/3 34/2/3 44/2/3
f 48/3/3 44/3/3 47/3/3
f 49/3/3 47/3/3 46/3/3
f 49/2/3 46/2/3 45/2/3
f 50/2/3 48/2/3 47/2/3
f 50/3/3 47/3/3 49/3/3
f 51/2/3 49/2/3 45/2/3
f 51/2/3 45/2/3 33/2/3
f 51/2/3 50/2/3 49/2/3
f 52/2/3 34/2/3 48/2/3
f 52/2/3 50/2/3 51/2/3
f 52/2/3 48/2/3 50/2/3
f 53/2/4 54/2/4 55/2/4
f 55/2/4 54/2/4 56/2/4
f 53/2/4 55/2/4 57/2/4
f 55/1/4 56/1/4 57/1/4
f 56/2/4 54/2/4 58/2/4
f 57/1/4 56/1/4 58/1/4
f 57/2/4 58/2/4 59/2/4
f 58/2/4 54/2/4 59/2/4
f 59/2/4 54/2/4 60/2/4
f 53/2/4 57/2/4 61/2/4
f 57/2/4 59/2/4 61/2/4
f 59/3/4 60/3/4 62/3/4
f 61/2/4 59/2/4 62/2/4
f 60/2/4 54/2/4 63/2/4
f 62/3/4 60/3/4 63/3/4
f 63/2/4 54/2/4 64/2/4
f 61/3/4 62/3/4 65/3/4
f 53/2/4 61/2/4 65/2/4
f 62/4/4 63/4/4 66/4/4
f 65/3/4 62/3/4 66/3/4
f 63/3/4 64/3/4 67/3/4
f 66/4/4 63/4/4 67/4/4
f 64/2/4 54/2/4 68/2/4
f 67/3/4 64/3/4 68/3/4
f 66/3/4 67/3/4 69/3/4
f 65/2/4 66/2/4 69/2/4
f 67/2/4 68/2/4 70/2/4
f 69/3/4 67/3/4 70/3/4
f 65/2/4 69/2/4 71/2/4
f 53/2/4 65/2/4 71/2/4
f 69/2/4 70/2/4 71/2/4
f 68/2/4 54/2/4 72/2/4
f 71/2/4 70/2/4 72/2/4
f 70/2/4 68/2/4 72/2/4
f 75/2/5 74/2/5 73/2/5
f 76/2/5 74/2/5 75/2/5
f 77/7/5 76/7/5 75/7/5
f 78/2/5 74/2/5 76/2/5
f 78/7/5 76/7/5 77/7/5
f 79/2/5 78/2/5 77/2/5
f 80/2/5 74/2/5 78/2/5
f 80/2/5 78/2/5 79/2/5
f 81/2/6 82/2/6 83/2/6
f 83/2/6 82/2/6 84/2/6
