# MagicaVoxel @ Ephtracy

# group
o 

# material
mtllib model-2.mtl
usemtl palette

# normals
vn 0 0 1
vn 0 0 -1
vn 1 0 0
vn -1 0 0
vn 0 -1 0
vn 0 1 0

# texcoords
vt 0.0292969 0.5
vt 0.0371094 0.5
vt 0.298828 0.5
vt 0.310547 0.5
vt 0.361328 0.5
vt 0.373047 0.5
vt 0.642578 0.5
vt 0.654297 0.5

# verts
v 0.4 0 -0.2
v -0.4 0 -0.2
v 0.4 0.5 -0.2
v -0.4 0.5 -0.2
v 0.4 0 -0.9
v -0.4 0 -0.9
v 0.2 0.1 -0.9
v 0.1 0.1 -0.9
v -0.1 0.1 -0.9
v -0.2 0.1 -0.9
v 0.2 0.2 -0.9
v 0.1 0.2 -0.9
v 0 0.2 -0.9
v -0.1 0.2 -0.9
v -0.2 0.2 -0.9
v -0.3 0.2 -0.9
v 0 0.3 -0.9
v -0.1 0.3 -0.9
v -0.2 0.3 -0.9
v -0.3 0.3 -0.9
v -0.1 0.4 -0.9
v -0.2 0.4 -0.9
v 0.4 0.5 -0.9
v -0.4 0.5 -0.9
v 0.4 0 -0.2
v 0.4 0.5 -0.2
v 0.4 0.2 -0.3
v 0.4 0.3 -0.3
v 0.4 0.1 -0.4
v 0.4 0.2 -0.4
v 0.4 0.3 -0.4
v 0.4 0.4 -0.4
v 0.4 0.1 -0.5
v 0.4 0.2 -0.5
v 0.4 0.3 -0.5
v 0.4 0.4 -0.5
v 0.4 0.2 -0.6
v 0.4 0.3 -0.6
v 0.4 0.1 -0.7
v 0.4 0.2 -0.7
v 0.4 0.1 -0.8
v 0.4 0.2 -0.8
v 0.4 0 -0.9
v 0.4 0.5 -0.9
v -0.4 0 -0.2
v -0.4 0.5 -0.2
v -0.4 0.2 -0.3
v -0.4 0.3 -0.3
v -0.4 0.1 -0.4
v -0.4 0.2 -0.4
v -0.4 0.3 -0.4
v -0.4 0.4 -0.4
v -0.4 0.1 -0.5
v -0.4 0.2 -0.5
v -0.4 0.3 -0.5
v -0.4 0.4 -0.5
v -0.4 0.2 -0.6
v -0.4 0.3 -0.6
v -0.4 0.1 -0.7
v -0.4 0.2 -0.7
v -0.4 0.1 -0.8
v -0.4 0.2 -0.8
v -0.4 0 -0.9
v -0.4 0.5 -0.9
v 0.4 0 -0.2
v 0.4 0 -0.9
v -0.4 0 -0.2
v -0.4 0 -0.9
v 0.4 0.5 -0.2
v 0.4 0.5 -0.9
v -0.4 0.5 -0.2
v -0.4 0.5 -0.9

# faces
f 3/2/1 2/2/1 1/2/1
f 4/2/1 2/2/1 3/2/1
f 5/2/2 6/2/2 7/2/2
f 7/2/2 6/2/2 8/2/2
f 8/2/2 6/2/2 9/2/2
f 9/2/2 6/2/2 10/2/2
f 5/2/2 7/2/2 11/2/2
f 7/1/2 8/1/2 11/1/2
f 8/2/2 9/2/2 12/2/2
f 11/1/2 8/1/2 12/1/2
f 12/2/2 9/2/2 13/2/2
f 9/5/2 10/5/2 14/5/2
f 13/2/2 9/2/2 14/2/2
f 10/2/2 6/2/2 15/2/2
f 14/5/2 10/5/2 15/5/2
f 15/2/2 6/2/2 16/2/2
f 13/5/2 14/5/2 17/5/2
f 12/2/2 13/2/2 17/2/2
f 11/2/2 12/2/2 17/2/2
f 14/6/2 15/6/2 18/6/2
f 17/5/2 14/5/2 18/5/2
f 15/5/2 16/5/2 19/5/2
f 18/6/2 15/6/2 19/6/2
f 16/2/2 6/2/2 20/2/2
f 19/5/2 16/5/2 20/5/2
f 18/5/2 19/5/2 21/5/2
f 17/2/2 18/2/2 21/2/2
f 19/2/2 20/2/2 22/2/2
f 21/5/2 19/5/2 22/5/2
f 17/2/2 21/2/2 23/2/2
f 5/2/2 11/2/2 23/2/2
f 21/2/2 22/2/2 23/2/2
f 11/2/2 17/2/2 23/2/2
f 20/2/2 6/2/2 24/2/2
f 23/2/2 22/2/2 24/2/2
f 22/2/2 20/2/2 24/2/2
f 27/2/3 26/2/3 25/2/3
f 28/2/3 26/2/3 27/2/3
f 29/2/3 27/2/3 25/2/3
f 30/7/3 28/7/3 27/7/3
f 30/2/3 27/2/3 29/2/3
f 31/2/3 26/2/3 28/2/3
f 31/7/3 28/7/3 30/7/3
f 32/2/3 26/2/3 31/2/3
f 33/7/3 30/7/3 29/7/3
f 33/2/3 29/2/3 25/2/3
f 34/8/3 31/8/3 30/8/3
f 34/7/3 30/7/3 33/7/3
f 35/7/3 32/7/3 31/7/3
f 35/8/3 31/8/3 34/8/3
f 36/2/3 26/2/3 32/2/3
f 36/7/3 32/7/3 35/7/3
f 37/7/3 35/7/3 34/7/3
f 37/2/3 34/2/3 33/2/3
f 38/2/3 36/2/3 35/2/3
f 38/7/3 35/7/3 37/7/3
f 39/2/3 37/2/3 33/2/3
f 39/2/3 33/2/3 25/2/3
f 39/2/3 38/2/3 37/2/3
f 40/2/3 38/2/3 39/2/3
f 41/2/3 39/2/3 25/2/3
f 41/1/3 40/1/3 39/1/3
f 42/2/3 38/2/3 40/2/3
f 42/1/3 40/1/3 41/1/3
f 43/2/3 41/2/3 25/2/3
f 43/2/3 42/2/3 41/2/3
f 44/2/3 26/2/3 36/2/3
f 44/2/3 42/2/3 43/2/3
f 44/2/3 36/2/3 38/2/3
f 44/2/3 38/2/3 42/2/3
f 45/2/4 46/2/4 47/2/4
f 47/2/4 46/2/4 48/2/4
f 45/2/4 47/2/4 49/2/4
f 47/3/4 48/3/4 50/3/4
f 49/2/4 47/2/4 50/2/4
f 48/2/4 46/2/4 51/2/4
f 50/3/4 48/3/4 51/3/4
f 51/2/4 46/2/4 52/2/4
f 49/3/4 50/3/4 53/3/4
f 45/2/4 49/2/4 53/2/4
f 50/4/4 51/4/4 54/4/4
f 53/3/4 50/3/4 54/3/4
f 51/3/4 52/3/4 55/3/4
f 54/4/4 51/4/4 55/4/4
f 52/2/4 46/2/4 56/2/4
f 55/3/4 52/3/4 56/3/4
f 54/3/4 55/3/4 57/3/4
f 53/2/4 54/2/4 57/2/4
f 55/2/4 56/2/4 58/2/4
f 57/3/4 55/3/4 58/3/4
f 53/2/4 57/2/4 59/2/4
f 45/2/4 53/2/4 59/2/4
f 57/2/4 58/2/4 59/2/4
f 59/2/4 58/2/4 60/2/4
f 45/2/4 59/2/4 61/2/4
f 59/1/4 60/1/4 61/1/4
f 60/2/4 58/2/4 62/2/4
f 61/1/4 60/1/4 62/1/4
f 45/2/4 61/2/4 63/2/4
f 61/2/4 62/2/4 63/2/4
f 56/2/4 46/2/4 64/2/4
f 63/2/4 62/2/4 64/2/4
f 58/2/4 56/2/4 64/2/4
f 62/2/4 58/2/4 64/2/4
f 67/2/5 66/2/5 65/2/5
f 68/2/5 66/2/5 67/2/5
f 69/2/6 70/2/6 71/2/6
f 71/2/6 70/2/6 72/2/6
