# MagicaVoxel @ Ephtracy

# group
o 

# material
mtllib model.mtl
usemtl palette

# normals
vn -1 0 0
vn 1 0 0
vn 0 0 1
vn 0 0 -1
vn 0 -1 0
vn 0 1 0

# texcoords
vt 0.0292969 0.5
vt 0.814453 0.5
vt 0.822266 0.5

# verts
v -0.1 0 -0.3
v -0.1 0 -0.5
v -0.1 0.1 0.3
v -0.1 0.1 -0.3
v -0.1 0.2 0.3
v -0.1 0.2 -0.5
v -0.1 0.6 0.7
v -0.1 0.6 0.4
v -0.1 0.6 -0.4
v -0.1 0.6 -0.7
v -0.1 0.8 0.8
v -0.1 0.8 0.7
v -0.1 0.8 -0.7
v -0.1 0.8 -0.8
v -0.1 0.9 0.8
v -0.1 0.9 0.7
v -0.1 0.9 0.6
v -0.1 0.9 0.5
v -0.1 0.9 -0.5
v -0.1 0.9 -0.6
v -0.1 0.9 -0.7
v -0.1 0.9 -0.8
v -0.1 1 0.9
v -0.1 1 0.7
v -0.1 1 0.6
v -0.1 1 0.5
v -0.1 1 -0.5
v -0.1 1 -0.6
v -0.1 1 -0.7
v -0.1 1 -0.9
v -0.1 1.1 0.9
v -0.1 1.1 0.4
v -0.1 1.1 -0.4
v -0.1 1.1 -0.9
v -0.1 1.2 0.9
v -0.1 1.2 0.4
v -0.1 1.2 -0.4
v -0.1 1.2 -0.9
v -0.1 1.3 0.9
v -0.1 1.3 0.4
v -0.1 1.3 0.3
v -0.1 1.3 -0.3
v -0.1 1.3 -0.4
v -0.1 1.3 -0.9
v -0.1 1.5 0.4
v -0.1 1.5 0.3
v -0.1 1.5 -0.3
v -0.1 1.5 -0.4
v 0 0 -0.3
v 0 0 -0.5
v 0 0.1 0.3
v 0 0.1 -0.3
v 0 0.2 0.3
v 0 0.2 -0.5
v 0 0.6 0.7
v 0 0.6 0.4
v 0 0.6 -0.4
v 0 0.6 -0.7
v 0 0.8 0.8
v 0 0.8 0.7
v 0 0.8 -0.7
v 0 0.8 -0.8
v 0 0.9 0.8
v 0 0.9 0.7
v 0 0.9 0.6
v 0 0.9 0.5
v 0 0.9 -0.5
v 0 0.9 -0.6
v 0 0.9 -0.7
v 0 0.9 -0.8
v 0 1 0.9
v 0 1 0.7
v 0 1 0.6
v 0 1 0.5
v 0 1 -0.5
v 0 1 -0.6
v 0 1 -0.7
v 0 1 -0.9
v 0 1.1 0.9
v 0 1.1 0.4
v 0 1.1 -0.4
v 0 1.1 -0.9
v 0.1 1.2 0.9
v 0.1 1.2 0.4
v 0.1 1.2 -0.4
v 0.1 1.2 -0.9
v 0.1 1.3 0.9
v 0.1 1.3 0.4
v 0.1 1.3 0.3
v 0.1 1.3 -0.3
v 0.1 1.3 -0.4
v 0.1 1.3 -0.9
v 0.1 1.5 0.4
v 0.1 1.5 0.3
v 0.1 1.5 -0.3
v 0.1 1.5 -0.4
v -0.1 1 0.9
v -0.1 1.1 0.9
v -0.1 1.2 0.9
v -0.1 1.3 0.9
v 0 1 0.9
v 0 1.1 0.9
v 0.1 1.2 0.9
v 0.1 1.3 0.9
v -0.1 0.8 0.8
v -0.1 0.9 0.8
v 0 0.8 0.8
v 0 0.9 0.8
v -0.1 0.6 0.7
v -0.1 0.8 0.7
v -0.1 0.9 0.7
v -0.1 1 0.7
v 0 0.6 0.7
v 0 0.8 0.7
v 0 0.9 0.7
v 0 1 0.7
v -0.1 1.3 0.4
v -0.1 1.5 0.4
v 0.1 1.3 0.4
v 0.1 1.5 0.4
v -0.1 0.1 0.3
v -0.1 0.2 0.3
v 0 0.1 0.3
v 0 0.2 0.3
v -0.1 0 -0.3
v -0.1 0.1 -0.3
v -0.1 1.3 -0.3
v -0.1 1.5 -0.3
v 0 0 -0.3
v 0 0.1 -0.3
v 0.1 1.3 -0.3
v 0.1 1.5 -0.3
v -0.1 0.6 -0.4
v -0.1 1.1 -0.4
v -0.1 1.2 -0.4
v -0.1 1.3 -0.4
v 0 0.6 -0.4
v 0 1.1 -0.4
v 0.1 1.2 -0.4
v 0.1 1.3 -0.4
v -0.1 0.6 0.4
v -0.1 1.1 0.4
v -0.1 1.2 0.4
v -0.1 1.3 0.4
v 0 0.6 0.4
v 0 1.1 0.4
v 0.1 1.2 0.4
v 0.1 1.3 0.4
v -0.1 1.3 0.3
v -0.1 1.5 0.3
v 0.1 1.3 0.3
v 0.1 1.5 0.3
v -0.1 1.3 -0.4
v -0.1 1.5 -0.4
v 0.1 1.3 -0.4
v 0.1 1.5 -0.4
v -0.1 0 -0.5
v -0.1 0.2 -0.5
v 0 0 -0.5
v 0 0.2 -0.5
v -0.1 0.6 -0.7
v -0.1 0.8 -0.7
v -0.1 0.9 -0.7
v -0.1 1 -0.7
v 0 0.6 -0.7
v 0 0.8 -0.7
v 0 0.9 -0.7
v 0 1 -0.7
v -0.1 0.8 -0.8
v -0.1 0.9 -0.8
v 0 0.8 -0.8
v 0 0.9 -0.8
v -0.1 1 -0.9
v -0.1 1.1 -0.9
v -0.1 1.2 -0.9
v -0.1 1.3 -0.9
v 0 1 -0.9
v 0 1.1 -0.9
v 0.1 1.2 -0.9
v 0.1 1.3 -0.9
v -0.1 0 -0.3
v 0 0 -0.3
v -0.1 0 -0.5
v 0 0 -0.5
v -0.1 0.1 0.3
v 0 0.1 0.3
v -0.1 0.1 -0.3
v 0 0.1 -0.3
v -0.1 0.6 0.7
v 0 0.6 0.7
v -0.1 0.6 0.4
v 0 0.6 0.4
v -0.1 0.6 -0.4
v 0 0.6 -0.4
v -0.1 0.6 -0.7
v 0 0.6 -0.7
v -0.1 0.8 0.8
v 0 0.8 0.8
v -0.1 0.8 0.7
v 0 0.8 0.7
v -0.1 0.8 -0.7
v 0 0.8 -0.7
v -0.1 0.8 -0.8
v 0 0.8 -0.8
v -0.1 1 0.9
v 0 1 0.9
v -0.1 1 0.7
v 0 1 0.7
v -0.1 1 -0.7
v 0 1 -0.7
v -0.1 1 -0.9
v 0 1 -0.9
v -0.1 1.2 0.9
v 0.1 1.2 0.9
v -0.1 1.2 0.4
v 0.1 1.2 0.4
v -0.1 1.2 -0.4
v 0.1 1.2 -0.4
v -0.1 1.2 -0.9
v 0.1 1.2 -0.9
v -0.1 1.3 0.4
v 0.1 1.3 0.4
v -0.1 1.3 0.3
v 0.1 1.3 0.3
v -0.1 1.3 -0.3
v 0.1 1.3 -0.3
v -0.1 1.3 -0.4
v 0.1 1.3 -0.4
v -0.1 0.2 0.3
v 0 0.2 0.3
v -0.1 0.2 -0.5
v 0 0.2 -0.5
v -0.1 0.9 0.8
v 0 0.9 0.8
v -0.1 0.9 0.7
v 0 0.9 0.7
v -0.1 0.9 -0.7
v 0 0.9 -0.7
v -0.1 0.9 -0.8
v 0 0.9 -0.8
v -0.1 1.1 0.9
v 0 1.1 0.9
v -0.1 1.1 0.4
v 0 1.1 0.4
v -0.1 1.1 -0.4
v 0 1.1 -0.4
v -0.1 1.1 -0.9
v 0 1.1 -0.9
v -0.1 1.3 0.9
v 0.1 1.3 0.9
v -0.1 1.3 0.4
v 0.1 1.3 0.4
v -0.1 1.3 -0.4
v 0.1 1.3 -0.4
v -0.1 1.3 -0.9
v 0.1 1.3 -0.9
v -0.1 1.5 0.4
v 0.1 1.5 0.4
v -0.1 1.5 0.3
v 0.1 1.5 0.3
v -0.1 1.5 -0.3
v 0.1 1.5 -0.3
v -0.1 1.5 -0.4
v 0.1 1.5 -0.4

# faces
f 4/2/1 2/2/1 1/2/1
f 5/2/1 4/2/1 3/2/1
f 6/2/1 2/2/1 4/2/1
f 6/2/1 4/2/1 5/2/1
f 12/2/1 8/2/1 7/2/1
f 13/2/1 10/2/1 9/2/1
f 15/2/1 12/2/1 11/2/1
f 16/2/1 8/2/1 12/2/1
f 16/2/1 12/2/1 15/2/1
f 17/2/1 8/2/1 16/2/1
f 18/2/1 8/2/1 17/2/1
f 19/2/1 14/2/1 13/2/1
f 19/2/1 13/2/1 9/2/1
f 20/2/1 14/2/1 19/2/1
f 21/2/1 14/2/1 20/2/1
f 22/2/1 14/2/1 21/2/1
f 24/2/1 17/2/1 16/2/1
f 25/1/1 18/1/1 17/1/1
f 25/2/1 17/2/1 24/2/1
f 26/2/1 8/2/1 18/2/1
f 26/1/1 18/1/1 25/1/1
f 27/2/1 19/2/1 9/2/1
f 27/1/1 20/1/1 19/1/1
f 28/2/1 21/2/1 20/2/1
f 28/1/1 20/1/1 27/1/1
f 29/2/1 21/2/1 28/2/1
f 31/2/1 25/2/1 24/2/1
f 31/2/1 24/2/1 23/2/1
f 31/2/1 26/2/1 25/2/1
f 32/2/1 8/2/1 26/2/1
f 32/2/1 26/2/1 31/2/1
f 33/2/1 30/2/1 29/2/1
f 33/2/1 28/2/1 27/2/1
f 33/2/1 29/2/1 28/2/1
f 33/2/1 27/2/1 9/2/1
f 34/2/1 30/2/1 33/2/1
f 39/3/1 36/3/1 35/3/1
f 40/3/1 36/3/1 39/3/1
f 43/3/1 38/3/1 37/3/1
f 44/3/1 38/3/1 43/3/1
f 45/3/1 41/3/1 40/3/1
f 46/3/1 41/3/1 45/3/1
f 47/3/1 43/3/1 42/3/1
f 48/3/1 43/3/1 47/3/1
f 49/2/2 50/2/2 52/2/2
f 51/2/2 52/2/2 53/2/2
f 52/2/2 50/2/2 54/2/2
f 53/2/2 52/2/2 54/2/2
f 55/2/2 56/2/2 60/2/2
f 57/2/2 58/2/2 61/2/2
f 59/2/2 60/2/2 63/2/2
f 60/2/2 56/2/2 64/2/2
f 63/2/2 60/2/2 64/2/2
f 64/2/2 56/2/2 65/2/2
f 65/2/2 56/2/2 66/2/2
f 61/2/2 62/2/2 67/2/2
f 57/2/2 61/2/2 67/2/2
f 67/2/2 62/2/2 68/2/2
f 68/2/2 62/2/2 69/2/2
f 69/2/2 62/2/2 70/2/2
f 64/2/2 65/2/2 72/2/2
f 65/1/2 66/1/2 73/1/2
f 72/2/2 65/2/2 73/2/2
f 66/2/2 56/2/2 74/2/2
f 73/1/2 66/1/2 74/1/2
f 57/2/2 67/2/2 75/2/2
f 67/1/2 68/1/2 75/1/2
f 68/2/2 69/2/2 76/2/2
f 75/1/2 68/1/2 76/1/2
f 76/2/2 69/2/2 77/2/2
f 72/2/2 73/2/2 79/2/2
f 71/2/2 72/2/2 79/2/2
f 73/2/2 74/2/2 79/2/2
f 74/2/2 56/2/2 80/2/2
f 79/2/2 74/2/2 80/2/2
f 77/2/2 78/2/2 81/2/2
f 75/2/2 76/2/2 81/2/2
f 76/2/2 77/2/2 81/2/2
f 57/2/2 75/2/2 81/2/2
f 81/2/2 78/2/2 82/2/2
f 83/3/2 84/3/2 87/3/2
f 87/3/2 84/3/2 88/3/2
f 85/3/2 86/3/2 91/3/2
f 91/3/2 86/3/2 92/3/2
f 88/3/2 89/3/2 93/3/2
f 93/3/2 89/3/2 94/3/2
f 90/3/2 91/3/2 95/3/2
f 95/3/2 91/3/2 96/3/2
f 101/2/3 98/2/3 97/2/3
f 102/2/3 98/2/3 101/2/3
f 103/3/3 100/3/3 99/3/3
f 104/3/3 100/3/3 103/3/3
f 107/2/3 106/2/3 105/2/3
f 108/2/3 106/2/3 107/2/3
f 113/2/3 110/2/3 109/2/3
f 114/2/3 110/2/3 113/2/3
f 115/2/3 112/2/3 111/2/3
f 116/2/3 112/2/3 115/2/3
f 119/3/3 118/3/3 117/3/3
f 120/3/3 118/3/3 119/3/3
f 123/2/3 122/2/3 121/2/3
f 124/2/3 122/2/3 123/2/3
f 129/2/3 126/2/3 125/2/3
f 130/2/3 126/2/3 129/2/3
f 131/3/3 128/3/3 127/3/3
f 132/3/3 128/3/3 131/3/3
f 137/2/3 134/2/3 133/2/3
f 138/2/3 134/2/3 137/2/3
f 139/3/3 136/3/3 135/3/3
f 140/3/3 136/3/3 139/3/3
f 141/2/4 142/2/4 145/2/4
f 145/2/4 142/2/4 146/2/4
f 143/3/4 144/3/4 147/3/4
f 147/3/4 144/3/4 148/3/4
f 149/3/4 150/3/4 151/3/4
f 151/3/4 150/3/4 152/3/4
f 153/3/4 154/3/4 155/3/4
f 155/3/4 154/3/4 156/3/4
f 157/2/4 158/2/4 159/2/4
f 159/2/4 158/2/4 160/2/4
f 161/2/4 162/2/4 165/2/4
f 165/2/4 162/2/4 166/2/4
f 163/2/4 164/2/4 167/2/4
f 167/2/4 164/2/4 168/2/4
f 169/2/4 170/2/4 171/2/4
f 171/2/4 170/2/4 172/2/4
f 173/2/4 174/2/4 177/2/4
f 177/2/4 174/2/4 178/2/4
f 175/3/4 176/3/4 179/3/4
f 179/3/4 176/3/4 180/3/4
f 183/2/5 182/2/5 181/2/5
f 184/2/5 182/2/5 183/2/5
f 187/2/5 186/2/5 185/2/5
f 188/2/5 186/2/5 187/2/5
f 191/2/5 190/2/5 189/2/5
f 192/2/5 190/2/5 191/2/5
f 195/2/5 194/2/5 193/2/5
f 196/2/5 194/2/5 195/2/5
f 199/2/5 198/2/5 197/2/5
f 200/2/5 198/2/5 199/2/5
f 203/2/5 202/2/5 201/2/5
f 204/2/5 202/2/5 203/2/5
f 207/2/5 206/2/5 205/2/5
f 208/2/5 206/2/5 207/2/5
f 211/2/5 210/2/5 209/2/5
f 212/2/5 210/2/5 211/2/5
f 215/3/5 214/3/5 213/3/5
f 216/3/5 214/3/5 215/3/5
f 219/3/5 218/3/5 217/3/5
f 220/3/5 218/3/5 219/3/5
f 223/3/5 222/3/5 221/3/5
f 224/3/5 222/3/5 223/3/5
f 227/3/5 226/3/5 225/3/5
f 228/3/5 226/3/5 227/3/5
f 229/2/6 230/2/6 231/2/6
f 231/2/6 230/2/6 232/2/6
f 233/2/6 234/2/6 235/2/6
f 235/2/6 234/2/6 236/2/6
f 237/2/6 238/2/6 239/2/6
f 239/2/6 238/2/6 240/2/6
f 241/2/6 242/2/6 243/2/6
f 243/2/6 242/2/6 244/2/6
f 245/2/6 246/2/6 247/2/6
f 247/2/6 246/2/6 248/2/6
f 249/3/6 250/3/6 251/3/6
f 251/3/6 250/3/6 252/3/6
f 253/3/6 254/3/6 255/3/6
f 255/3/6 254/3/6 256/3/6
f 257/3/6 258/3/6 259/3/6
f 259/3/6 258/3/6 260/3/6
f 261/3/6 262/3/6 263/3/6
f 263/3/6 262/3/6 264/3/6
