# MagicaVoxel @ Ephtracy

# group
o 

# material
mtllib model.mtl
usemtl palette

# normals
vn -1 0 0
vn 1 0 0
vn 0 0 1
vn 0 0 -1
vn 0 -1 0
vn 0 1 0

# texcoords
vt 0.814453 0.5
vt 0.822266 0.5

# verts
v -0.1 0 0.1
v -0.1 0 -0.1
v -0.1 0.1 0.1
v -0.1 0.1 -0.1
v -0.1 0.7 0.8
v -0.1 0.7 0.4
v -0.1 0.7 -0.4
v -0.1 0.7 -0.8
v -0.1 0.8 0.8
v -0.1 0.8 0.4
v -0.1 0.8 -0.4
v -0.1 0.8 -0.8
v -0.1 1 1
v -0.1 1 0.2
v -0.1 1 -0.2
v -0.1 1 -1
v -0.1 1.2 1
v -0.1 1.2 0.2
v -0.1 1.2 -0.2
v -0.1 1.2 -1
v 0 0 0.1
v 0 0 -0.1
v 0 0.1 0.1
v 0 0.1 -0.1
v 0 0.7 0.8
v 0 0.7 0.4
v 0 0.7 -0.4
v 0 0.7 -0.8
v 0 0.8 0.8
v 0 0.8 0.4
v 0 0.8 -0.4
v 0 0.8 -0.8
v 0.1 1 1
v 0.1 1 0.2
v 0.1 1 -0.2
v 0.1 1 -1
v 0.1 1.2 1
v 0.1 1.2 0.2
v 0.1 1.2 -0.2
v 0.1 1.2 -1
v -0.1 1 1
v -0.1 1.2 1
v 0.1 1 1
v 0.1 1.2 1
v -0.1 0.7 0.8
v -0.1 0.8 0.8
v 0 0.7 0.8
v 0 0.8 0.8
v -0.1 0 0.1
v -0.1 0.1 0.1
v 0 0 0.1
v 0 0.1 0.1
v -0.1 1 -0.2
v -0.1 1.2 -0.2
v 0.1 1 -0.2
v 0.1 1.2 -0.2
v -0.1 0.7 -0.4
v -0.1 0.8 -0.4
v 0 0.7 -0.4
v 0 0.8 -0.4
v -0.1 0.7 0.4
v -0.1 0.8 0.4
v 0 0.7 0.4
v 0 0.8 0.4
v -0.1 1 0.2
v -0.1 1.2 0.2
v 0.1 1 0.2
v 0.1 1.2 0.2
v -0.1 0 -0.1
v -0.1 0.1 -0.1
v 0 0 -0.1
v 0 0.1 -0.1
v -0.1 0.7 -0.8
v -0.1 0.8 -0.8
v 0 0.7 -0.8
v 0 0.8 -0.8
v -0.1 1 -1
v -0.1 1.2 -1
v 0.1 1 -1
v 0.1 1.2 -1
v -0.1 0 0.1
v 0 0 0.1
v -0.1 0 -0.1
v 0 0 -0.1
v -0.1 0.7 0.8
v 0 0.7 0.8
v -0.1 0.7 0.4
v 0 0.7 0.4
v -0.1 0.7 -0.4
v 0 0.7 -0.4
v -0.1 0.7 -0.8
v 0 0.7 -0.8
v -0.1 1 1
v 0.1 1 1
v -0.1 1 0.2
v 0.1 1 0.2
v -0.1 1 -0.2
v 0.1 1 -0.2
v -0.1 1 -1
v 0.1 1 -1
v -0.1 0.1 0.1
v 0 0.1 0.1
v -0.1 0.1 -0.1
v 0 0.1 -0.1
v -0.1 0.8 0.8
v 0 0.8 0.8
v -0.1 0.8 0.4
v 0 0.8 0.4
v -0.1 0.8 -0.4
v 0 0.8 -0.4
v -0.1 0.8 -0.8
v 0 0.8 -0.8
v -0.1 1.2 1
v 0.1 1.2 1
v -0.1 1.2 0.2
v 0.1 1.2 0.2
v -0.1 1.2 -0.2
v 0.1 1.2 -0.2
v -0.1 1.2 -1
v 0.1 1.2 -1

# faces
f 3/1/1 2/1/1 1/1/1
f 4/1/1 2/1/1 3/1/1
f 9/1/1 6/1/1 5/1/1
f 10/1/1 6/1/1 9/1/1
f 11/1/1 8/1/1 7/1/1
f 12/1/1 8/1/1 11/1/1
f 17/2/1 14/2/1 13/2/1
f 18/2/1 14/2/1 17/2/1
f 19/2/1 16/2/1 15/2/1
f 20/2/1 16/2/1 19/2/1
f 21/1/2 22/1/2 23/1/2
f 23/1/2 22/1/2 24/1/2
f 25/1/2 26/1/2 29/1/2
f 29/1/2 26/1/2 30/1/2
f 27/1/2 28/1/2 31/1/2
f 31/1/2 28/1/2 32/1/2
f 33/2/2 34/2/2 37/2/2
f 37/2/2 34/2/2 38/2/2
f 35/2/2 36/2/2 39/2/2
f 39/2/2 36/2/2 40/2/2
f 43/2/3 42/2/3 41/2/3
f 44/2/3 42/2/3 43/2/3
f 47/1/3 46/1/3 45/1/3
f 48/1/3 46/1/3 47/1/3
f 51/1/3 50/1/3 49/1/3
f 52/1/3 50/1/3 51/1/3
f 55/2/3 54/2/3 53/2/3
f 56/2/3 54/2/3 55/2/3
f 59/1/3 58/1/3 57/1/3
f 60/1/3 58/1/3 59/1/3
f 61/1/4 62/1/4 63/1/4
f 63/1/4 62/1/4 64/1/4
f 65/2/4 66/2/4 67/2/4
f 67/2/4 66/2/4 68/2/4
f 69/1/4 70/1/4 71/1/4
f 71/1/4 70/1/4 72/1/4
f 73/1/4 74/1/4 75/1/4
f 75/1/4 74/1/4 76/1/4
f 77/2/4 78/2/4 79/2/4
f 79/2/4 78/2/4 80/2/4
f 83/1/5 82/1/5 81/1/5
f 84/1/5 82/1/5 83/1/5
f 87/1/5 86/1/5 85/1/5
f 88/1/5 86/1/5 87/1/5
f 91/1/5 90/1/5 89/1/5
f 92/1/5 90/1/5 91/1/5
f 95/2/5 94/2/5 93/2/5
f 96/2/5 94/2/5 95/2/5
f 99/2/5 98/2/5 97/2/5
f 100/2/5 98/2/5 99/2/5
f 101/1/6 102/1/6 103/1/6
f 103/1/6 102/1/6 104/1/6
f 105/1/6 106/1/6 107/1/6
f 107/1/6 106/1/6 108/1/6
f 109/1/6 110/1/6 111/1/6
f 111/1/6 110/1/6 112/1/6
f 113/2/6 114/2/6 115/2/6
f 115/2/6 114/2/6 116/2/6
f 117/2/6 118/2/6 119/2/6
f 119/2/6 118/2/6 120/2/6
