# MagicaVoxel @ Ephtracy

# group
o 

# material
mtllib model-1.mtl
usemtl palette

# normals
vn -1 0 0
vn 1 0 0
vn 0 0 1
vn 0 0 -1
vn 0 -1 0
vn 0 1 0

# texcoords
vt 0.318359 0.5
vt 0.455078 0.5
vt 0.462891 0.5
vt 0.501953 0.5
vt 0.517578 0.5
vt 0.576172 0.5
vt 0.646484 0.5

# verts
v -1.2 6 0.4
v -1.2 6 0.2
v -1.2 6 0.1
v -1.2 6 -0.1
v -1.2 6 -0.2
v -1.2 6 -0.4
v -1.2 6.1 0.5
v -1.2 6.1 0.4
v -1.2 6.1 0.2
v -1.2 6.1 0.1
v -1.2 6.1 -0.1
v -1.2 6.1 -0.2
v -1.2 6.1 -0.4
v -1.2 6.1 -0.5
v -1.2 6.2 0.1
v -1.2 6.2 -0.1
v -1.2 6.3 0.6
v -1.2 6.3 0.5
v -1.2 6.3 0.1
v -1.2 6.3 -0.1
v -1.2 6.3 -0.5
v -1.2 6.3 -0.6
v -1.2 6.4 0.5
v -1.2 6.4 0.4
v -1.2 6.4 0.2
v -1.2 6.4 0.1
v -1.2 6.4 -0.1
v -1.2 6.4 -0.2
v -1.2 6.4 -0.4
v -1.2 6.4 -0.5
v -1.2 6.5 0.4
v -1.2 6.5 0.2
v -1.2 6.5 -0.2
v -1.2 6.5 -0.4
v -1.2 6.6 0.5
v -1.2 6.6 0.4
v -1.2 6.6 -0.4
v -1.2 6.6 -0.5
v -1.2 6.7 0.4
v -1.2 6.7 0.1
v -1.2 6.7 -0.1
v -1.2 6.7 -0.4
v -1.2 6.8 0.6
v -1.2 6.8 0.5
v -1.2 6.8 -0.5
v -1.2 6.8 -0.6
v -1.2 6.9 0.6
v -1.2 6.9 0.5
v -1.2 6.9 0.4
v -1.2 6.9 -0.4
v -1.2 6.9 -0.5
v -1.2 6.9 -0.6
v -1.2 7 0.5
v -1.2 7 0.4
v -1.2 7 0.2
v -1.2 7 -0.1
v -1.2 7 -0.3
v -1.2 7 -0.4
v -1.2 7 -0.5
v -1.2 7.1 0.4
v -1.2 7.1 0.2
v -1.2 7.1 -0.1
v -1.2 7.1 -0.3
v -1.2 7.1 -0.4
v -1.1 5.7 1.3
v -1.1 5.7 -1.3
v -1.1 5.8 1.3
v -1.1 5.8 1.1
v -1.1 5.8 -0.9
v -1.1 5.8 -1.1
v -1.1 5.8 -1.2
v -1.1 5.8 -1.3
v -1.1 5.9 1.3
v -1.1 5.9 1.1
v -1.1 5.9 -0.9
v -1.1 5.9 -1.1
v -1.1 5.9 -1.2
v -1.1 5.9 -1.3
v -1.1 6 1
v -1.1 6 0.8
v -1.1 6 -0.8
v -1.1 6 -1
v -1.1 6.1 1.1
v -1.1 6.1 1
v -1.1 6.1 0.8
v -1.1 6.1 0.7
v -1.1 6.1 -0.7
v -1.1 6.1 -0.8
v -1.1 6.1 -1
v -1.1 6.1 -1.1
v -1.1 6.3 1.1
v -1.1 6.3 1
v -1.1 6.3 0.8
v -1.1 6.3 0.7
v -1.1 6.3 -0.7
v -1.1 6.3 -0.8
v -1.1 6.3 -1
v -1.1 6.3 -1.1
v -1.1 6.4 1
v -1.1 6.4 0.8
v -1.1 6.4 -0.8
v -1.1 6.4 -1
v -1.1 6.5 1.3
v -1.1 6.5 0.6
v -1.1 6.5 -0.6
v -1.1 6.5 -1.3
v -1.1 6.6 1.3
v -1.1 6.6 1.2
v -1.1 6.6 1
v -1.1 6.6 0.8
v -1.1 6.6 -0.9
v -1.1 6.6 -1.1
v -1.1 6.6 -1.3
v -1.1 6.7 1.3
v -1.1 6.7 1.2
v -1.1 6.7 1
v -1.1 6.7 0.8
v -1.1 6.7 0.6
v -1.1 6.7 -0.6
v -1.1 6.7 -0.9
v -1.1 6.7 -1.1
v -1.1 6.7 -1.3
v -1 5.9 1.2
v -1 5.9 1.1
v -1 5.9 -0.9
v -1 5.9 -1.1
v -1 5.9 -1.2
v -1 6 1
v -1 6 0.8
v -1 6 0.4
v -1 6 0.2
v -1 6 0.1
v -1 6 -0.1
v -1 6 -0.2
v -1 6 -0.4
v -1 6 -0.8
v -1 6 -1
v -1 6.1 1.1
v -1 6.1 1
v -1 6.1 0.8
v -1 6.1 0.7
v -1 6.1 0.5
v -1 6.1 0.4
v -1 6.1 0.2
v -1 6.1 0.1
v -1 6.1 -0.1
v -1 6.1 -0.2
v -1 6.1 -0.4
v -1 6.1 -0.5
v -1 6.1 -0.7
v -1 6.1 -0.8
v -1 6.1 -1
v -1 6.1 -1.1
v -1 6.3 1.1
v -1 6.3 1
v -1 6.3 0.8
v -1 6.3 0.7
v -1 6.3 0.6
v -1 6.3 0.5
v -1 6.3 -0.5
v -1 6.3 -0.6
v -1 6.3 -0.7
v -1 6.3 -0.8
v -1 6.3 -1
v -1 6.3 -1.1
v -1 6.4 1
v -1 6.4 0.8
v -1 6.4 -0.8
v -1 6.4 -1
v -1 6.5 1.2
v -1 6.5 0.6
v -1 6.5 -0.6
v -1 6.5 -1.2
v -1 6.7 1.2
v -1 6.7 1
v -1 6.7 0.8
v -1 6.7 0.6
v -1 6.7 -0.6
v -1 6.7 -0.9
v -1 6.7 -1.1
v -1 6.7 -1.2
v -1 6.9 0.6
v -1 6.9 0.5
v -1 6.9 -0.5
v -1 6.9 -0.6
v -1 7 0.5
v -1 7 0.4
v -1 7 -0.4
v -1 7 -0.5
v -1 7.1 0.4
v -1 7.1 -0.4
v -1 7.2 1.2
v -1 7.2 1
v -1 7.2 0.6
v -1 7.2 0.2
v -1 7.2 -0.2
v -1 7.2 -0.6
v -1 7.2 -1
v -1 7.2 -1.2
v -1 7.4 1
v -1 7.4 0.9
v -1 7.4 0.8
v -1 7.4 0.6
v -1 7.4 0.2
v -1 7.4 0.1
v -1 7.4 0
v -1 7.4 -0.2
v -1 7.4 -0.6
v -1 7.4 -0.7
v -1 7.4 -0.8
v -1 7.4 -1
v -1 7.5 1
v -1 7.5 0.9
v -1 7.5 0.8
v -1 7.5 0.6
v -1 7.5 0.2
v -1 7.5 0.1
v -1 7.5 0
v -1 7.5 -0.2
v -1 7.5 -0.6
v -1 7.5 -0.7
v -1 7.5 -0.8
v -1 7.5 -1
v -0.9 5.7 1.5
v -0.9 5.7 1.3
v -0.9 5.7 -1.3
v -0.9 5.7 -1.5
v -0.9 5.8 1.5
v -0.9 5.8 1.3
v -0.9 5.8 -1.3
v -0.9 5.8 -1.4
v -0.9 5.8 -1.5
v -0.9 5.9 1.5
v -0.9 5.9 1.3
v -0.9 5.9 -1.3
v -0.9 5.9 -1.4
v -0.9 5.9 -1.5
v -0.9 6.5 1.5
v -0.9 6.5 1.3
v -0.9 6.5 -1.3
v -0.9 6.5 -1.5
v -0.9 6.6 1.5
v -0.9 6.6 1.3
v -0.9 6.6 -1.3
v -0.9 6.7 1.5
v -0.9 6.7 1.3
v -0.9 6.7 -1.3
v -0.9 6.7 -1.5
v -0.8 5.9 1.4
v -0.8 5.9 1.3
v -0.8 5.9 1.2
v -0.8 5.9 -1.2
v -0.8 5.9 -1.4
v -0.8 6.5 1.4
v -0.8 6.5 1.2
v -0.8 6.5 -1.2
v -0.8 6.5 -1.4
v -0.8 6.7 1.4
v -0.8 6.7 1.2
v -0.8 6.7 -1.2
v -0.8 6.7 -1.3
v -0.8 6.7 -1.4
v -0.8 7.2 1.4
v -0.8 7.2 1.2
v -0.8 7.2 -1.2
v -0.8 7.2 -1.4
v -0.6 6.1 1.5
v -0.6 6.1 1.4
v -0.6 6.1 -1.4
v -0.6 6.1 -1.5
v -0.6 6.3 1.5
v -0.6 6.3 1.4
v -0.6 6.3 -1.4
v -0.6 6.3 -1.5
v -0.6 7.2 1.4
v -0.6 7.2 1.2
v -0.6 7.2 -1.2
v -0.6 7.2 -1.4
v -0.6 7.4 1.4
v -0.6 7.4 1.3
v -0.6 7.4 -1.3
v -0.6 7.4 -1.4
v -0.6 7.5 1.4
v -0.6 7.5 1.3
v -0.6 7.5 1.2
v -0.6 7.5 -1.2
v -0.6 7.5 -1.3
v -0.6 7.5 -1.4
v -0.2 6.1 1.5
v -0.2 6.1 1.4
v -0.2 6.1 -1.4
v -0.2 6.1 -1.5
v -0.2 6.3 1.5
v -0.2 6.3 1.4
v -0.2 6.3 -1.4
v -0.2 6.3 -1.5
v -0.1 6 1.5
v -0.1 6 1.4
v -0.1 6 -1.4
v -0.1 6 -1.5
v -0.1 6.1 1.5
v -0.1 6.1 1.4
v -0.1 6.1 -1.4
v -0.1 6.1 -1.5
v -0.1 6.3 1.5
v -0.1 6.3 1.4
v -0.1 6.3 -1.4
v -0.1 6.3 -1.5
v -0.1 6.4 1.5
v -0.1 6.4 1.4
v -0.1 6.4 -1.4
v -0.1 6.4 -1.5
v 0.2 7.2 1.4
v 0.2 7.2 1.2
v 0.2 7.2 -1.2
v 0.2 7.2 -1.4
v 0.2 7.4 1.4
v 0.2 7.4 1.3
v 0.2 7.4 -1.3
v 0.2 7.4 -1.4
v 0.2 7.5 1.4
v 0.2 7.5 1.3
v 0.2 7.5 1.2
v 0.2 7.5 -1.2
v 0.2 7.5 -1.3
v 0.2 7.5 -1.4
v 0.4 6.1 1.5
v 0.4 6.1 1.4
v 0.4 6.1 -1.4
v 0.4 6.1 -1.5
v 0.4 6.3 1.5
v 0.4 6.3 1.4
v 0.4 6.3 -1.4
v 0.4 6.3 -1.5
v 0.8 6.6 1.2
v 0.8 6.6 -1.2
v 0.8 7.2 1.2
v 0.8 7.2 1
v 0.8 7.2 0.6
v 0.8 7.2 0.2
v 0.8 7.2 -0.2
v 0.8 7.2 -0.6
v 0.8 7.2 -1
v 0.8 7.2 -1.2
v 0.8 7.5 1
v 0.8 7.5 0.6
v 0.8 7.5 0.2
v 0.8 7.5 -0.2
v 0.8 7.5 -0.6
v 0.8 7.5 -1
v -0.8 6.6 1.2
v -0.8 6.6 -1.2
v -0.8 7.2 1.2
v -0.8 7.2 1
v -0.8 7.2 0.6
v -0.8 7.2 0.2
v -0.8 7.2 -0.2
v -0.8 7.2 -0.6
v -0.8 7.2 -1
v -0.8 7.2 -1.2
v -0.8 7.5 1
v -0.8 7.5 0.6
v -0.8 7.5 0.2
v -0.8 7.5 -0.2
v -0.8 7.5 -0.6
v -0.8 7.5 -1
v -0.4 6.1 1.5
v -0.4 6.1 1.4
v -0.4 6.1 -1.4
v -0.4 6.1 -1.5
v -0.4 6.3 1.5
v -0.4 6.3 1.4
v -0.4 6.3 -1.4
v -0.4 6.3 -1.5
v -0.2 7.2 1.4
v -0.2 7.2 1.2
v -0.2 7.2 -1.2
v -0.2 7.2 -1.4
v -0.2 7.4 1.4
v -0.2 7.4 1.3
v -0.2 7.4 -1.3
v -0.2 7.4 -1.4
v -0.2 7.5 1.4
v -0.2 7.5 1.3
v -0.2 7.5 1.2
v -0.2 7.5 -1.2
v -0.2 7.5 -1.3
v -0.2 7.5 -1.4
v 0.0999999 6 1.5
v 0.0999999 6 1.4
v 0.0999999 6 -1.4
v 0.0999999 6 -1.5
v 0.0999999 6.1 1.5
v 0.0999999 6.1 1.4
v 0.0999999 6.1 -1.4
v 0.0999999 6.1 -1.5
v 0.0999999 6.3 1.5
v 0.0999999 6.3 1.4
v 0.0999999 6.3 -1.4
v 0.0999999 6.3 -1.5
v 0.0999999 6.4 1.5
v 0.0999999 6.4 1.4
v 0.0999999 6.4 -1.4
v 0.0999999 6.4 -1.5
v 0.2 6.1 1.5
v 0.2 6.1 1.4
v 0.2 6.1 -1.4
v 0.2 6.1 -1.5
v 0.2 6.3 1.5
v 0.2 6.3 1.4
v 0.2 6.3 -1.4
v 0.2 6.3 -1.5
v 0.6 6.1 1.5
v 0.6 6.1 1.4
v 0.6 6.1 -1.4
v 0.6 6.1 -1.5
v 0.6 6.3 1.5
v 0.6 6.3 1.4
v 0.6 6.3 -1.4
v 0.6 6.3 -1.5
v 0.6 7.2 1.4
v 0.6 7.2 1.2
v 0.6 7.2 -1.2
v 0.6 7.2 -1.4
v 0.6 7.4 1.4
v 0.6 7.4 1.3
v 0.6 7.4 -1.3
v 0.6 7.4 -1.4
v 0.6 7.5 1.4
v 0.6 7.5 1.3
v 0.6 7.5 1.2
v 0.6 7.5 -1.2
v 0.6 7.5 -1.3
v 0.6 7.5 -1.4
v 0.8 5.9 1.4
v 0.8 5.9 1.3
v 0.8 5.9 1.2
v 0.8 5.9 -1.2
v 0.8 5.9 -1.4
v 0.8 6.5 1.4
v 0.8 6.5 1.2
v 0.8 6.5 -1.2
v 0.8 6.5 -1.4
v 0.8 6.7 1.4
v 0.8 6.7 1.2
v 0.8 6.7 -1.2
v 0.8 6.7 -1.3
v 0.8 6.7 -1.4
v 0.8 7.2 1.4
v 0.8 7.2 1.2
v 0.8 7.2 -1.2
v 0.8 7.2 -1.4
v 0.9 5.7 1.5
v 0.9 5.7 1.3
v 0.9 5.7 -1.3
v 0.9 5.7 -1.5
v 0.9 5.8 1.3
v 0.9 5.8 -1.3
v 0.9 5.8 -1.4
v 0.9 5.8 -1.5
v 0.9 5.9 1.5
v 0.9 5.9 1.3
v 0.9 5.9 -1.3
v 0.9 5.9 -1.4
v 0.9 5.9 -1.5
v 0.9 6.5 1.5
v 0.9 6.5 1.3
v 0.9 6.5 -1.3
v 0.9 6.5 -1.5
v 0.9 6.6 1.5
v 0.9 6.6 1.3
v 0.9 6.6 -1.3
v 0.9 6.6 -1.5
v 0.9 6.7 1.5
v 0.9 6.7 1.3
v 0.9 6.7 -1.3
v 0.9 6.7 -1.5
v 1 5.9 1.2
v 1 5.9 1.1
v 1 5.9 0.9
v 1 5.9 0.6
v 1 5.9 -1
v 1 5.9 -1.2
v 1 6 1
v 1 6 0.8
v 1 6 0.4
v 1 6 0.2
v 1 6 0.1
v 1 6 -0.1
v 1 6 -0.2
v 1 6 -0.4
v 1 6 -0.8
v 1 6 -1
v 1 6.1 1.1
v 1 6.1 1
v 1 6.1 0.8
v 1 6.1 0.7
v 1 6.1 0.5
v 1 6.1 0.4
v 1 6.1 0.2
v 1 6.1 0.1
v 1 6.1 -0.1
v 1 6.1 -0.2
v 1 6.1 -0.4
v 1 6.1 -0.5
v 1 6.1 -0.7
v 1 6.1 -0.8
v 1 6.1 -1
v 1 6.1 -1.1
v 1 6.3 1.1
v 1 6.3 1
v 1 6.3 0.8
v 1 6.3 0.7
v 1 6.3 0.6
v 1 6.3 0.5
v 1 6.3 -0.5
v 1 6.3 -0.6
v 1 6.3 -0.7
v 1 6.3 -0.8
v 1 6.3 -1
v 1 6.3 -1.1
v 1 6.4 1
v 1 6.4 0.8
v 1 6.4 -0.8
v 1 6.4 -1
v 1 6.5 1.2
v 1 6.5 0.6
v 1 6.5 -0.6
v 1 6.5 -1.2
v 1 6.7 1.2
v 1 6.7 1.1
v 1 6.7 1
v 1 6.7 0.6
v 1 6.7 -0.6
v 1 6.7 -0.9
v 1 6.7 -1.1
v 1 6.7 -1.2
v 1 6.9 0.6
v 1 6.9 0.5
v 1 6.9 -0.5
v 1 6.9 -0.6
v 1 7 0.5
v 1 7 0.4
v 1 7 -0.4
v 1 7 -0.5
v 1 7.1 0.4
v 1 7.1 -0.4
v 1 7.2 1.2
v 1 7.2 1
v 1 7.2 0.6
v 1 7.2 0.2
v 1 7.2 -0.2
v 1 7.2 -0.6
v 1 7.2 -1
v 1 7.2 -1.2
v 1 7.4 1
v 1 7.4 0.8
v 1 7.4 0.7
v 1 7.4 0.6
v 1 7.4 0.2
v 1 7.4 0
v 1 7.4 -0.1
v 1 7.4 -0.2
v 1 7.4 -0.6
v 1 7.4 -0.8
v 1 7.4 -0.9
v 1 7.4 -1
v 1 7.5 1
v 1 7.5 0.8
v 1 7.5 0.7
v 1 7.5 0.6
v 1 7.5 0.2
v 1 7.5 0
v 1 7.5 -0.1
v 1 7.5 -0.2
v 1 7.5 -0.6
v 1 7.5 -0.8
v 1 7.5 -0.9
v 1 7.5 -1
v 1.1 5.7 1.3
v 1.1 5.7 -1.3
v 1.1 5.8 1.3
v 1.1 5.8 1.1
v 1.1 5.8 0.9
v 1.1 5.8 0.6
v 1.1 5.8 -1
v 1.1 5.8 -1.2
v 1.1 5.8 -1.3
v 1.1 5.9 1.3
v 1.1 5.9 1.1
v 1.1 5.9 0.9
v 1.1 5.9 0.6
v 1.1 5.9 -1
v 1.1 5.9 -1.2
v 1.1 5.9 -1.3
v 1.1 6 1
v 1.1 6 0.8
v 1.1 6 -0.8
v 1.1 6 -1
v 1.1 6.1 1.1
v 1.1 6.1 1
v 1.1 6.1 0.8
v 1.1 6.1 0.7
v 1.1 6.1 -0.7
v 1.1 6.1 -0.8
v 1.1 6.1 -1
v 1.1 6.1 -1.1
v 1.1 6.3 1.1
v 1.1 6.3 1
v 1.1 6.3 0.8
v 1.1 6.3 0.7
v 1.1 6.3 -0.7
v 1.1 6.3 -0.8
v 1.1 6.3 -1
v 1.1 6.3 -1.1
v 1.1 6.4 1
v 1.1 6.4 0.8
v 1.1 6.4 -0.8
v 1.1 6.4 -1
v 1.1 6.5 1.3
v 1.1 6.5 0.6
v 1.1 6.5 -0.6
v 1.1 6.5 -1.3
v 1.1 6.6 1.3
v 1.1 6.6 1.1
v 1.1 6.6 1
v 1.1 6.6 -0.9
v 1.1 6.6 -1.1
v 1.1 6.6 -1.2
v 1.1 6.6 -1.3
v 1.1 6.7 1.3
v 1.1 6.7 1.1
v 1.1 6.7 1
v 1.1 6.7 0.6
v 1.1 6.7 -0.6
v 1.1 6.7 -0.9
v 1.1 6.7 -1.1
v 1.1 6.7 -1.2
v 1.1 6.7 -1.3
v 1.2 6 0.4
v 1.2 6 0.2
v 1.2 6 0.1
v 1.2 6 -0.1
v 1.2 6 -0.2
v 1.2 6 -0.4
v 1.2 6.1 0.5
v 1.2 6.1 0.4
v 1.2 6.1 0.2
v 1.2 6.1 0.1
v 1.2 6.1 -0.1
v 1.2 6.1 -0.2
v 1.2 6.1 -0.4
v 1.2 6.1 -0.5
v 1.2 6.2 0.1
v 1.2 6.2 -0.1
v 1.2 6.3 0.6
v 1.2 6.3 0.5
v 1.2 6.3 0.1
v 1.2 6.3 -0.1
v 1.2 6.3 -0.5
v 1.2 6.3 -0.6
v 1.2 6.4 0.5
v 1.2 6.4 0.4
v 1.2 6.4 0.2
v 1.2 6.4 0.1
v 1.2 6.4 -0.1
v 1.2 6.4 -0.2
v 1.2 6.4 -0.4
v 1.2 6.4 -0.5
v 1.2 6.5 0.4
v 1.2 6.5 0.2
v 1.2 6.5 -0.2
v 1.2 6.5 -0.4
v 1.2 6.6 0.5
v 1.2 6.6 0.4
v 1.2 6.6 -0.4
v 1.2 6.6 -0.5
v 1.2 6.7 0.4
v 1.2 6.7 0.1
v 1.2 6.7 -0.1
v 1.2 6.7 -0.4
v 1.2 6.8 -0.5
v 1.2 6.8 -0.6
v 1.2 6.9 0.6
v 1.2 6.9 0.5
v 1.2 6.9 -0.4
v 1.2 6.9 -0.5
v 1.2 6.9 -0.6
v 1.2 7 0.5
v 1.2 7 0.4
v 1.2 7 0.2
v 1.2 7 -0.1
v 1.2 7 -0.3
v 1.2 7 -0.4
v 1.2 7 -0.5
v 1.2 7.1 0.4
v 1.2 7.1 0.2
v 1.2 7.1 -0.1
v 1.2 7.1 -0.3
v 1.2 7.1 -0.4
v -0.9 5.7 1.5
v -0.9 5.8 1.5
v -0.9 5.9 1.5
v -0.9 6.5 1.5
v -0.9 6.6 1.5
v -0.9 6.7 1.5
v -0.8 6.6 1.5
v -0.8 6.7 1.5
v -0.7 5.8 1.5
v -0.7 5.9 1.5
v -0.7 6.6 1.5
v -0.7 6.7 1.5
v -0.6 6.1 1.5
v -0.6 6.3 1.5
v -0.6 6.6 1.5
v -0.6 6.7 1.5
v -0.5 5.8 1.5
v -0.5 5.9 1.5
v -0.4 5.8 1.5
v -0.4 5.9 1.5
v -0.4 6.1 1.5
v -0.4 6.3 1.5
v -0.2 5.8 1.5
v -0.2 5.9 1.5
v -0.2 6.1 1.5
v -0.2 6.3 1.5
v -0.1 6 1.5
v -0.1 6.1 1.5
v -0.1 6.3 1.5
v -0.1 6.4 1.5
v 0.0999999 5.8 1.5
v 0.0999999 5.9 1.5
v 0.0999999 6 1.5
v 0.0999999 6.1 1.5
v 0.0999999 6.3 1.5
v 0.0999999 6.4 1.5
v 0.0999999 6.6 1.5
v 0.0999999 6.7 1.5
v 0.2 6.1 1.5
v 0.2 6.3 1.5
v 0.3 5.8 1.5
v 0.3 5.9 1.5
v 0.4 5.8 1.5
v 0.4 5.9 1.5
v 0.4 6.1 1.5
v 0.4 6.3 1.5
v 0.5 6.6 1.5
v 0.5 6.7 1.5
v 0.6 5.8 1.5
v 0.6 5.9 1.5
v 0.6 6.1 1.5
v 0.6 6.3 1.5
v 0.7 6.6 1.5
v 0.7 6.7 1.5
v 0.9 5.7 1.5
v 0.9 5.9 1.5
v 0.9 6.5 1.5
v 0.9 6.6 1.5
v 0.9 6.7 1.5
v -0.8 5.9 1.4
v -0.8 6.5 1.4
v -0.8 6.7 1.4
v -0.8 7.2 1.4
v -0.7 5.9 1.4
v -0.7 6.7 1.4
v -0.6 6.1 1.4
v -0.6 6.3 1.4
v -0.6 6.7 1.4
v -0.6 7.2 1.4
v -0.6 7.4 1.4
v -0.6 7.5 1.4
v -0.5 5.9 1.4
v -0.4 5.9 1.4
v -0.4 6.1 1.4
v -0.4 6.3 1.4
v -0.4 7.4 1.4
v -0.4 7.5 1.4
v -0.3 7.4 1.4
v -0.3 7.5 1.4
v -0.2 5.9 1.4
v -0.2 6.1 1.4
v -0.2 6.3 1.4
v -0.2 7.2 1.4
v -0.2 7.4 1.4
v -0.2 7.5 1.4
v -0.1 6 1.4
v -0.1 6.1 1.4
v -0.1 6.3 1.4
v -0.1 6.4 1.4
v 0.0999999 5.9 1.4
v 0.0999999 6 1.4
v 0.0999999 6.1 1.4
v 0.0999999 6.3 1.4
v 0.0999999 6.4 1.4
v 0.0999999 6.7 1.4
v 0.2 6.1 1.4
v 0.2 6.3 1.4
v 0.2 7.2 1.4
v 0.2 7.4 1.4
v 0.2 7.5 1.4
v 0.3 5.9 1.4
v 0.4 5.9 1.4
v 0.4 6.1 1.4
v 0.4 6.3 1.4
v 0.4 7.4 1.4
v 0.4 7.5 1.4
v 0.5 6.7 1.4
v 0.5 7.4 1.4
v 0.5 7.5 1.4
v 0.6 5.9 1.4
v 0.6 6.1 1.4
v 0.6 6.3 1.4
v 0.6 7.2 1.4
v 0.6 7.4 1.4
v 0.6 7.5 1.4
v 0.7 6.7 1.4
v 0.8 5.9 1.4
v 0.8 6.5 1.4
v 0.8 6.7 1.4
v 0.8 7.2 1.4
v -1.1 5.7 1.3
v -1.1 5.8 1.3
v -1.1 5.9 1.3
v -1.1 6.5 1.3
v -1.1 6.6 1.3
v -1.1 6.7 1.3
v -0.9 5.7 1.3
v -0.9 5.8 1.3
v -0.9 5.9 1.3
v -0.9 6.5 1.3
v -0.9 6.6 1.3
v -0.9 6.7 1.3
v 0.9 5.7 1.3
v 0.9 5.8 1.3
v 0.9 5.9 1.3
v 0.9 6.5 1.3
v 0.9 6.6 1.3
v 0.9 6.7 1.3
v 1 6.6 1.3
v 1 6.7 1.3
v 1.1 5.7 1.3
v 1.1 5.8 1.3
v 1.1 5.9 1.3
v 1.1 6.5 1.3
v 1.1 6.6 1.3
v 1.1 6.7 1.3
v -1 5.9 1.2
v -1 6.5 1.2
v -1 6.7 1.2
v -1 7.2 1.2
v -0.8 5.9 1.2
v -0.8 6.5 1.2
v -0.8 6.7 1.2
v -0.8 7.2 1.2
v 0.8 5.9 1.2
v 0.8 6.5 1.2
v 0.8 6.7 1.2
v 0.8 7.2 1.2
v 1 5.9 1.2
v 1 6.5 1.2
v 1 6.7 1.2
v 1 7.2 1.2
v -1.1 6.1 1.1
v -1.1 6.3 1.1
v -1 6.1 1.1
v -1 6.3 1.1
v 1 6.1 1.1
v 1 6.3 1.1
v 1.1 6.1 1.1
v 1.1 6.3 1.1
v -1.1 6 1
v -1.1 6.1 1
v -1.1 6.3 1
v -1.1 6.4 1
v -1 6 1
v -1 6.1 1
v -1 6.3 1
v -1 6.4 1
v -1 7.2 1
v -1 7.4 1
v -1 7.5 1
v -0.9 7.4 1
v -0.9 7.5 1
v -0.8 7.2 1
v -0.8 7.5 1
v 0.8 7.2 1
v 0.8 7.5 1
v 0.9 7.4 1
v 0.9 7.5 1
v 1 6 1
v 1 6.1 1
v 1 6.3 1
v 1 6.4 1
v 1 7.2 1
v 1 7.4 1
v 1 7.5 1
v 1.1 6 1
v 1.1 6.1 1
v 1.1 6.3 1
v 1.1 6.4 1
v -1.2 6.3 0.6
v -1.2 6.8 0.6
v -1.2 6.9 0.6
v -1.1 6.5 0.6
v -1.1 6.7 0.6
v -1.1 6.8 0.6
v -1.1 6.9 0.6
v -1 6.3 0.6
v -1 6.5 0.6
v -1 6.7 0.6
v -1 6.9 0.6
v 1 6.3 0.6
v 1 6.5 0.6
v 1 6.7 0.6
v 1 6.9 0.6
v 1.1 6.5 0.6
v 1.1 6.7 0.6
v 1.2 6.3 0.6
v 1.2 6.9 0.6
v -1.2 6.1 0.5
v -1.2 6.3 0.5
v -1.2 6.9 0.5
v -1.2 7 0.5
v -1.1 6.9 0.5
v -1.1 7 0.5
v -1 6.1 0.5
v -1 6.3 0.5
v -1 6.9 0.5
v -1 7 0.5
v 1 6.1 0.5
v 1 6.3 0.5
v 1 6.9 0.5
v 1 7 0.5
v 1.2 6.1 0.5
v 1.2 6.3 0.5
v 1.2 6.9 0.5
v 1.2 7 0.5
v -1.2 6 0.4
v -1.2 6.1 0.4
v -1.2 7 0.4
v -1.2 7.1 0.4
v -1.1 7 0.4
v -1 6 0.4
v -1 6.1 0.4
v -1 7 0.4
v -1 7.1 0.4
v 1 6 0.4
v 1 6.1 0.4
v 1 7 0.4
v 1 7.1 0.4
v 1.2 6 0.4
v 1.2 6.1 0.4
v 1.2 7 0.4
v 1.2 7.1 0.4
v -1 7.2 0.2
v -1 7.4 0.2
v -1 7.5 0.2
v -0.9 7.4 0.2
v -0.9 7.5 0.2
v -0.8 7.2 0.2
v -0.8 7.5 0.2
v 0.8 7.2 0.2
v 0.8 7.5 0.2
v 0.9 7.4 0.2
v 0.9 7.5 0.2
v 1 7.2 0.2
v 1 7.4 0.2
v 1 7.5 0.2
v -1.2 6 0.1
v -1.2 6.1 0.1
v -1 6 0.1
v -1 6.1 0.1
v 1 6 0.1
v 1 6.1 0.1
v 1.2 6 0.1
v 1.2 6.1 0.1
v -1.2 6 -0.2
v -1.2 6.1 -0.2
v -1 6 -0.2
v -1 6.1 -0.2
v 1 6 -0.2
v 1 6.1 -0.2
v 1.2 6 -0.2
v 1.2 6.1 -0.2
v -1 7.2 -0.6
v -1 7.4 -0.6
v -1 7.5 -0.6
v -0.9 7.4 -0.6
v -0.9 7.5 -0.6
v -0.8 7.2 -0.6
v -0.8 7.5 -0.6
v 0.8 7.2 -0.6
v 0.8 7.5 -0.6
v 0.9 7.4 -0.6
v 0.9 7.5 -0.6
v 1 7.2 -0.6
v 1 7.4 -0.6
v 1 7.5 -0.6
v -1.1 6.1 -0.7
v -1.1 6.3 -0.7
v -1 6.1 -0.7
v -1 6.3 -0.7
v 1 6.1 -0.7
v 1 6.3 -0.7
v 1.1 6.1 -0.7
v 1.1 6.3 -0.7
v -1.1 6 -0.8
v -1.1 6.1 -0.8
v -1.1 6.3 -0.8
v -1.1 6.4 -0.8
v -1 6 -0.8
v -1 6.1 -0.8
v -1 6.3 -0.8
v -1 6.4 -0.8
v 1 6 -0.8
v 1 6.1 -0.8
v 1 6.3 -0.8
v 1 6.4 -0.8
v 1.1 6 -0.8
v 1.1 6.1 -0.8
v 1.1 6.3 -0.8
v 1.1 6.4 -0.8
v -0.8 6.6 -1.2
v -0.8 7.2 -1.2
v -0.6 7.2 -1.2
v -0.6 7.5 -1.2
v -0.2 7.2 -1.2
v -0.2 7.5 -1.2
v 0.2 7.2 -1.2
v 0.2 7.5 -1.2
v 0.6 7.2 -1.2
v 0.6 7.5 -1.2
v 0.8 6.6 -1.2
v 0.8 7.2 -1.2
v -0.8 6.6 1.2
v -0.8 7.2 1.2
v -0.6 7.2 1.2
v -0.6 7.5 1.2
v -0.2 7.2 1.2
v -0.2 7.5 1.2
v 0.2 7.2 1.2
v 0.2 7.5 1.2
v 0.6 7.2 1.2
v 0.6 7.5 1.2
v 0.8 6.6 1.2
v 0.8 7.2 1.2
v -1.1 6 0.8
v -1.1 6.1 0.8
v -1.1 6.3 0.8
v -1.1 6.4 0.8
v -1 6 0.8
v -1 6.1 0.8
v -1 6.3 0.8
v -1 6.4 0.8
v 1 6 0.8
v 1 6.1 0.8
v 1 6.3 0.8
v 1 6.4 0.8
v 1.1 6 0.8
v 1.1 6.1 0.8
v 1.1 6.3 0.8
v 1.1 6.4 0.8
v -1.1 6.1 0.7
v -1.1 6.3 0.7
v -1 6.1 0.7
v -1 6.3 0.7
v 1 6.1 0.7
v 1 6.3 0.7
v 1.1 6.1 0.7
v 1.1 6.3 0.7
v -1 7.2 0.6
v -1 7.4 0.6
v -1 7.5 0.6
v -0.9 7.4 0.6
v -0.9 7.5 0.6
v -0.8 7.2 0.6
v -0.8 7.5 0.6
v 0.8 7.2 0.6
v 0.8 7.5 0.6
v 0.9 7.4 0.6
v 0.9 7.5 0.6
v 1 7.2 0.6
v 1 7.4 0.6
v 1 7.5 0.6
v -1.2 6 0.2
v -1.2 6.1 0.2
v -1 6 0.2
v -1 6.1 0.2
v 1 6 0.2
v 1 6.1 0.2
v 1.2 6 0.2
v 1.2 6.1 0.2
v -1.2 6 -0.1
v -1.2 6.1 -0.1
v -1 6 -0.1
v -1 6.1 -0.1
v 1 6 -0.1
v 1 6.1 -0.1
v 1.2 6 -0.1
v 1.2 6.1 -0.1
v -1 7.2 -0.2
v -1 7.4 -0.2
v -1 7.5 -0.2
v -0.9 7.4 -0.2
v -0.9 7.5 -0.2
v -0.8 7.2 -0.2
v -0.8 7.5 -0.2
v 0.8 7.2 -0.2
v 0.8 7.5 -0.2
v 0.9 7.4 -0.2
v 0.9 7.5 -0.2
v 1 7.2 -0.2
v 1 7.4 -0.2
v 1 7.5 -0.2
v -1.2 6 -0.4
v -1.2 6.1 -0.4
v -1.2 7 -0.4
v -1.2 7.1 -0.4
v -1.1 7 -0.4
v -1.1 7.1 -0.4
v -1 6 -0.4
v -1 6.1 -0.4
v -1 7 -0.4
v -1 7.1 -0.4
v 1 6 -0.4
v 1 6.1 -0.4
v 1 7 -0.4
v 1 7.1 -0.4
v 1.1 7 -0.4
v 1.1 7.1 -0.4
v 1.2 6 -0.4
v 1.2 6.1 -0.4
v 1.2 7 -0.4
v 1.2 7.1 -0.4
v -1.2 6.1 -0.5
v -1.2 6.3 -0.5
v -1.2 6.9 -0.5
v -1.2 7 -0.5
v -1.1 6.9 -0.5
v -1.1 7 -0.5
v -1 6.1 -0.5
v -1 6.3 -0.5
v -1 6.9 -0.5
v -1 7 -0.5
v 1 6.1 -0.5
v 1 6.3 -0.5
v 1 6.9 -0.5
v 1 7 -0.5
v 1.1 6.9 -0.5
v 1.1 7 -0.5
v 1.2 6.1 -0.5
v 1.2 6.3 -0.5
v 1.2 6.9 -0.5
v 1.2 7 -0.5
v -1.2 6.3 -0.6
v -1.2 6.8 -0.6
v -1.2 6.9 -0.6
v -1.1 6.5 -0.6
v -1.1 6.7 -0.6
v -1.1 6.8 -0.6
v -1.1 6.9 -0.6
v -1 6.3 -0.6
v -1 6.5 -0.6
v -1 6.7 -0.6
v -1 6.9 -0.6
v 1 6.3 -0.6
v 1 6.5 -0.6
v 1 6.7 -0.6
v 1 6.9 -0.6
v 1.1 6.5 -0.6
v 1.1 6.7 -0.6
v 1.1 6.8 -0.6
v 1.1 6.9 -0.6
v 1.2 6.3 -0.6
v 1.2 6.8 -0.6
v 1.2 6.9 -0.6
v -1.1 6 -1
v -1.1 6.1 -1
v -1.1 6.3 -1
v -1.1 6.4 -1
v -1 6 -1
v -1 6.1 -1
v -1 6.3 -1
v -1 6.4 -1
v -1 7.2 -1
v -1 7.4 -1
v -1 7.5 -1
v -0.9 7.4 -1
v -0.9 7.5 -1
v -0.8 7.2 -1
v -0.8 7.5 -1
v 0.8 7.2 -1
v 0.8 7.5 -1
v 0.9 7.4 -1
v 0.9 7.5 -1
v 1 6 -1
v 1 6.1 -1
v 1 6.3 -1
v 1 6.4 -1
v 1 7.2 -1
v 1 7.4 -1
v 1 7.5 -1
v 1.1 6 -1
v 1.1 6.1 -1
v 1.1 6.3 -1
v 1.1 6.4 -1
v -1.1 6.1 -1.1
v -1.1 6.3 -1.1
v -1 6.1 -1.1
v -1 6.3 -1.1
v 1 6.1 -1.1
v 1 6.3 -1.1
v 1.1 6.1 -1.1
v 1.1 6.3 -1.1
v -1 5.9 -1.2
v -1 6.5 -1.2
v -1 6.7 -1.2
v -1 7.2 -1.2
v -0.8 5.9 -1.2
v -0.8 6.5 -1.2
v -0.8 6.7 -1.2
v -0.8 7.2 -1.2
v 0.8 5.9 -1.2
v 0.8 6.5 -1.2
v 0.8 6.7 -1.2
v 0.8 7.2 -1.2
v 0.9 5.9 -1.2
v 1 5.9 -1.2
v 1 6.5 -1.2
v 1 6.7 -1.2
v 1 7.2 -1.2
v -1.1 5.7 -1.3
v -1.1 5.8 -1.3
v -1.1 5.9 -1.3
v -1.1 6.5 -1.3
v -1.1 6.6 -1.3
v -1.1 6.7 -1.3
v -1 6.6 -1.3
v -1 6.7 -1.3
v -0.9 5.7 -1.3
v -0.9 5.8 -1.3
v -0.9 5.9 -1.3
v -0.9 6.5 -1.3
v -0.9 6.6 -1.3
v -0.9 6.7 -1.3
v 0.9 5.7 -1.3
v 0.9 5.8 -1.3
v 0.9 5.9 -1.3
v 0.9 6.5 -1.3
v 0.9 6.6 -1.3
v 0.9 6.7 -1.3
v 1.1 5.7 -1.3
v 1.1 5.8 -1.3
v 1.1 5.9 -1.3
v 1.1 6.5 -1.3
v 1.1 6.6 -1.3
v 1.1 6.7 -1.3
v -0.8 5.9 -1.4
v -0.8 6.5 -1.4
v -0.8 6.7 -1.4
v -0.8 7.2 -1.4
v -0.6 5.9 -1.4
v -0.6 6.1 -1.4
v -0.6 6.3 -1.4
v -0.6 7.2 -1.4
v -0.6 7.4 -1.4
v -0.6 7.5 -1.4
v -0.5 6.7 -1.4
v -0.4 6.1 -1.4
v -0.4 6.3 -1.4
v -0.4 7.4 -1.4
v -0.4 7.5 -1.4
v -0.3 7.4 -1.4
v -0.3 7.5 -1.4
v -0.2 5.9 -1.4
v -0.2 6.1 -1.4
v -0.2 6.3 -1.4
v -0.2 6.7 -1.4
v -0.2 7.2 -1.4
v -0.2 7.4 -1.4
v -0.2 7.5 -1.4
v -0.1 6 -1.4
v -0.1 6.1 -1.4
v -0.1 6.3 -1.4
v -0.1 6.4 -1.4
v -0.1 6.7 -1.4
v 0.0999999 6 -1.4
v 0.0999999 6.1 -1.4
v 0.0999999 6.3 -1.4
v 0.0999999 6.4 -1.4
v 0.0999999 6.7 -1.4
v 0.2 5.9 -1.4
v 0.2 6.1 -1.4
v 0.2 6.3 -1.4
v 0.2 7.2 -1.4
v 0.2 7.4 -1.4
v 0.2 7.5 -1.4
v 0.3 5.9 -1.4
v 0.4 6.1 -1.4
v 0.4 6.3 -1.4
v 0.4 7.4 -1.4
v 0.4 7.5 -1.4
v 0.5 7.4 -1.4
v 0.5 7.5 -1.4
v 0.6 5.9 -1.4
v 0.6 6.1 -1.4
v 0.6 6.3 -1.4
v 0.6 6.7 -1.4
v 0.6 7.2 -1.4
v 0.6 7.4 -1.4
v 0.6 7.5 -1.4
v 0.8 5.9 -1.4
v 0.8 6.5 -1.4
v 0.8 6.7 -1.4
v 0.8 7.2 -1.4
v -0.9 5.7 -1.5
v -0.9 5.8 -1.5
v -0.9 5.9 -1.5
v -0.9 6.5 -1.5
v -0.9 6.7 -1.5
v -0.8 5.8 -1.5
v -0.8 5.9 -1.5
v -0.6 5.8 -1.5
v -0.6 5.9 -1.5
v -0.6 6.1 -1.5
v -0.6 6.3 -1.5
v -0.5 6.6 -1.5
v -0.5 6.7 -1.5
v -0.4 6.1 -1.5
v -0.4 6.3 -1.5
v -0.2 5.8 -1.5
v -0.2 5.9 -1.5
v -0.2 6.1 -1.5
v -0.2 6.3 -1.5
v -0.2 6.6 -1.5
v -0.2 6.7 -1.5
v -0.1 6 -1.5
v -0.1 6.1 -1.5
v -0.1 6.3 -1.5
v -0.1 6.4 -1.5
v -0.1 6.6 -1.5
v -0.1 6.7 -1.5
v 0.0999999 6 -1.5
v 0.0999999 6.1 -1.5
v 0.0999999 6.3 -1.5
v 0.0999999 6.4 -1.5
v 0.0999999 6.6 -1.5
v 0.0999999 6.7 -1.5
v 0.2 5.8 -1.5
v 0.2 5.9 -1.5
v 0.2 6.1 -1.5
v 0.2 6.3 -1.5
v 0.3 5.8 -1.5
v 0.3 5.9 -1.5
v 0.4 6.1 -1.5
v 0.4 6.3 -1.5
v 0.6 5.8 -1.5
v 0.6 5.9 -1.5
v 0.6 6.1 -1.5
v 0.6 6.3 -1.5
v 0.6 6.6 -1.5
v 0.6 6.7 -1.5
v 0.8 6.6 -1.5
v 0.8 6.7 -1.5
v 0.9 5.7 -1.5
v 0.9 5.8 -1.5
v 0.9 5.9 -1.5
v 0.9 6.5 -1.5
v 0.9 6.6 -1.5
v 0.9 6.7 -1.5
v -0.9 5.7 1.5
v 0.9 5.7 1.5
v -1.1 5.7 1.3
v -0.9 5.7 1.3
v 0.9 5.7 1.3
v 1.1 5.7 1.3
v -1.1 5.7 -1.3
v -0.9 5.7 -1.3
v 0.9 5.7 -1.3
v 1.1 5.7 -1.3
v -0.9 5.7 -1.5
v 0.9 5.7 -1.5
v -0.1 6 1.5
v 0.0999999 6 1.5
v -0.1 6 1.4
v 0.0999999 6 1.4
v -1.1 6 1
v -1 6 1
v 1 6 1
v 1.1 6 1
v -1.1 6 0.8
v -1 6 0.8
v 1 6 0.8
v 1.1 6 0.8
v -1.2 6 0.4
v -1 6 0.4
v 1 6 0.4
v 1.2 6 0.4
v -1.2 6 0.2
v -1 6 0.2
v 1 6 0.2
v 1.2 6 0.2
v -1.2 6 0.1
v -1 6 0.1
v 1 6 0.1
v 1.2 6 0.1
v -1.2 6 -0.1
v -1 6 -0.1
v 1 6 -0.1
v 1.2 6 -0.1
v -1.2 6 -0.2
v -1 6 -0.2
v 1 6 -0.2
v 1.2 6 -0.2
v -1.2 6 -0.4
v -1 6 -0.4
v 1 6 -0.4
v 1.2 6 -0.4
v -1.1 6 -0.8
v -1 6 -0.8
v 1 6 -0.8
v 1.1 6 -0.8
v -1.1 6 -1
v -1 6 -1
v 1 6 -1
v 1.1 6 -1
v -0.1 6 -1.4
v 0.0999999 6 -1.4
v -0.1 6 -1.5
v 0.0999999 6 -1.5
v -0.6 6.1 1.5
v -0.4 6.1 1.5
v -0.2 6.1 1.5
v -0.1 6.1 1.5
v 0.0999999 6.1 1.5
v 0.2 6.1 1.5
v 0.4 6.1 1.5
v 0.6 6.1 1.5
v -0.6 6.1 1.4
v -0.4 6.1 1.4
v -0.2 6.1 1.4
v -0.1 6.1 1.4
v 0.0999999 6.1 1.4
v 0.2 6.1 1.4
v 0.4 6.1 1.4
v 0.6 6.1 1.4
v -1.1 6.1 1.1
v -1 6.1 1.1
v 1 6.1 1.1
v 1.1 6.1 1.1
v -1.1 6.1 1
v -1 6.1 1
v 1 6.1 1
v 1.1 6.1 1
v -1.1 6.1 0.8
v -1 6.1 0.8
v 1 6.1 0.8
v 1.1 6.1 0.8
v -1.1 6.1 0.7
v -1 6.1 0.7
v 1 6.1 0.7
v 1.1 6.1 0.7
v -1.2 6.1 0.5
v -1 6.1 0.5
v 1 6.1 0.5
v 1.2 6.1 0.5
v -1.2 6.1 0.4
v -1 6.1 0.4
v 1 6.1 0.4
v 1.2 6.1 0.4
v -1.2 6.1 0.2
v -1 6.1 0.2
v 1 6.1 0.2
v 1.2 6.1 0.2
v -1.2 6.1 0.1
v -1 6.1 0.1
v 1 6.1 0.1
v 1.2 6.1 0.1
v -1.2 6.1 -0.1
v -1 6.1 -0.1
v 1 6.1 -0.1
v 1.2 6.1 -0.1
v -1.2 6.1 -0.2
v -1 6.1 -0.2
v 1 6.1 -0.2
v 1.2 6.1 -0.2
v -1.2 6.1 -0.4
v -1 6.1 -0.4
v 1 6.1 -0.4
v 1.2 6.1 -0.4
v -1.2 6.1 -0.5
v -1 6.1 -0.5
v 1 6.1 -0.5
v 1.2 6.1 -0.5
v -1.1 6.1 -0.7
v -1 6.1 -0.7
v 1 6.1 -0.7
v 1.1 6.1 -0.7
v -1.1 6.1 -0.8
v -1 6.1 -0.8
v 1 6.1 -0.8
v 1.1 6.1 -0.8
v -1.1 6.1 -1
v -1 6.1 -1
v 1 6.1 -1
v 1.1 6.1 -1
v -1.1 6.1 -1.1
v -1 6.1 -1.1
v 1 6.1 -1.1
v 1.1 6.1 -1.1
v -0.6 6.1 -1.4
v -0.4 6.1 -1.4
v -0.2 6.1 -1.4
v -0.1 6.1 -1.4
v 0.0999999 6.1 -1.4
v 0.2 6.1 -1.4
v 0.4 6.1 -1.4
v 0.6 6.1 -1.4
v -0.6 6.1 -1.5
v -0.4 6.1 -1.5
v -0.2 6.1 -1.5
v -0.1 6.1 -1.5
v 0.0999999 6.1 -1.5
v 0.2 6.1 -1.5
v 0.4 6.1 -1.5
v 0.6 6.1 -1.5
v -1.2 6.3 0.6
v -1 6.3 0.6
v 1 6.3 0.6
v 1.2 6.3 0.6
v -1.2 6.3 0.5
v -1 6.3 0.5
v 1 6.3 0.5
v 1.2 6.3 0.5
v -1.2 6.3 -0.5
v -1 6.3 -0.5
v 1 6.3 -0.5
v 1.2 6.3 -0.5
v -1.2 6.3 -0.6
v -1 6.3 -0.6
v 1 6.3 -0.6
v 1.2 6.3 -0.6
v -0.9 6.5 1.5
v 0.9 6.5 1.5
v -0.8 6.5 1.4
v 0.8 6.5 1.4
v -1.1 6.5 1.3
v -0.9 6.5 1.3
v 0.9 6.5 1.3
v 1.1 6.5 1.3
v -1 6.5 1.2
v -0.8 6.5 1.2
v 0.8 6.5 1.2
v 1 6.5 1.2
v -1.1 6.5 0.6
v -1 6.5 0.6
v 1 6.5 0.6
v 1.1 6.5 0.6
v -1.1 6.5 -0.6
v -1 6.5 -0.6
v 1 6.5 -0.6
v 1.1 6.5 -0.6
v -1 6.5 -1.2
v -0.8 6.5 -1.2
v 0.8 6.5 -1.2
v 1 6.5 -1.2
v -1.1 6.5 -1.3
v -0.9 6.5 -1.3
v 0.9 6.5 -1.3
v 1.1 6.5 -1.3
v -0.8 6.5 -1.4
v 0.8 6.5 -1.4
v -0.9 6.5 -1.5
v 0.9 6.5 -1.5
v -0.9 5.9 1.5
v -0.7 5.9 1.5
v -0.5 5.9 1.5
v -0.4 5.9 1.5
v -0.2 5.9 1.5
v 0.0999999 5.9 1.5
v 0.3 5.9 1.5
v 0.4 5.9 1.5
v 0.6 5.9 1.5
v 0.9 5.9 1.5
v -0.8 5.9 1.4
v -0.7 5.9 1.4
v -0.5 5.9 1.4
v -0.4 5.9 1.4
v -0.2 5.9 1.4
v 0.0999999 5.9 1.4
v 0.3 5.9 1.4
v 0.4 5.9 1.4
v 0.6 5.9 1.4
v 0.8 5.9 1.4
v -1.1 5.9 1.3
v -0.9 5.9 1.3
v -0.8 5.9 1.3
v 0.8 5.9 1.3
v 0.9 5.9 1.3
v 1.1 5.9 1.3
v -1 5.9 1.2
v -0.8 5.9 1.2
v 0.8 5.9 1.2
v 1 5.9 1.2
v -1.1 5.9 1.1
v -1 5.9 1.1
v 1 5.9 1.1
v 1.1 5.9 1.1
v 1 5.9 0.9
v 1.1 5.9 0.9
v 1 5.9 0.6
v 1.1 5.9 0.6
v -1.1 5.9 -0.9
v -1 5.9 -0.9
v 1 5.9 -1
v 1.1 5.9 -1
v -1.1 5.9 -1.1
v -1 5.9 -1.1
v -1.1 5.9 -1.2
v -1 5.9 -1.2
v -0.8 5.9 -1.2
v 0.8 5.9 -1.2
v 0.9 5.9 -1.2
v 1 5.9 -1.2
v 1.1 5.9 -1.2
v -1.1 5.9 -1.3
v -0.9 5.9 -1.3
v 0.9 5.9 -1.3
v 1.1 5.9 -1.3
v -0.9 5.9 -1.4
v -0.8 5.9 -1.4
v -0.6 5.9 -1.4
v -0.2 5.9 -1.4
v 0.2 5.9 -1.4
v 0.3 5.9 -1.4
v 0.6 5.9 -1.4
v 0.8 5.9 -1.4
v 0.9 5.9 -1.4
v -0.9 5.9 -1.5
v -0.8 5.9 -1.5
v -0.6 5.9 -1.5
v -0.2 5.9 -1.5
v 0.2 5.9 -1.5
v 0.3 5.9 -1.5
v 0.6 5.9 -1.5
v 0.9 5.9 -1.5
v -0.6 6.3 1.5
v -0.4 6.3 1.5
v -0.2 6.3 1.5
v -0.1 6.3 1.5
v 0.0999999 6.3 1.5
v 0.2 6.3 1.5
v 0.4 6.3 1.5
v 0.6 6.3 1.5
v -0.6 6.3 1.4
v -0.4 6.3 1.4
v -0.2 6.3 1.4
v -0.1 6.3 1.4
v 0.0999999 6.3 1.4
v 0.2 6.3 1.4
v 0.4 6.3 1.4
v 0.6 6.3 1.4
v -1.1 6.3 1.1
v -1 6.3 1.1
v 1 6.3 1.1
v 1.1 6.3 1.1
v -1.1 6.3 1
v -1 6.3 1
v 1 6.3 1
v 1.1 6.3 1
v -1.1 6.3 0.8
v -1 6.3 0.8
v 1 6.3 0.8
v 1.1 6.3 0.8
v -1.1 6.3 0.7
v -1 6.3 0.7
v 1 6.3 0.7
v 1.1 6.3 0.7
v -1.1 6.3 -0.7
v -1 6.3 -0.7
v 1 6.3 -0.7
v 1.1 6.3 -0.7
v -1.1 6.3 -0.8
v -1 6.3 -0.8
v 1 6.3 -0.8
v 1.1 6.3 -0.8
v -1.1 6.3 -1
v -1 6.3 -1
v 1 6.3 -1
v 1.1 6.3 -1
v -1.1 6.3 -1.1
v -1 6.3 -1.1
v 1 6.3 -1.1
v 1.1 6.3 -1.1
v -0.6 6.3 -1.4
v -0.4 6.3 -1.4
v -0.2 6.3 -1.4
v -0.1 6.3 -1.4
v 0.0999999 6.3 -1.4
v 0.2 6.3 -1.4
v 0.4 6.3 -1.4
v 0.6 6.3 -1.4
v -0.6 6.3 -1.5
v -0.4 6.3 -1.5
v -0.2 6.3 -1.5
v -0.1 6.3 -1.5
v 0.0999999 6.3 -1.5
v 0.2 6.3 -1.5
v 0.4 6.3 -1.5
v 0.6 6.3 -1.5
v -0.1 6.4 1.5
v 0.0999999 6.4 1.5
v -0.1 6.4 1.4
v 0.0999999 6.4 1.4
v -1.1 6.4 1
v -1 6.4 1
v 1 6.4 1
v 1.1 6.4 1
v -1.1 6.4 0.8
v -1 6.4 0.8
v 1 6.4 0.8
v 1.1 6.4 0.8
v -1.1 6.4 -0.8
v -1 6.4 -0.8
v 1 6.4 -0.8
v 1.1 6.4 -0.8
v -1.1 6.4 -1
v -1 6.4 -1
v 1 6.4 -1
v 1.1 6.4 -1
v -0.1 6.4 -1.4
v 0.0999999 6.4 -1.4
v -0.1 6.4 -1.5
v 0.0999999 6.4 -1.5
v -0.8 6.6 1.2
v 0.8 6.6 1.2
v -0.8 6.6 -1.2
v 0.8 6.6 -1.2
v -0.9 6.7 1.5
v -0.8 6.7 1.5
v -0.7 6.7 1.5
v -0.6 6.7 1.5
v 0.0999999 6.7 1.5
v 0.5 6.7 1.5
v 0.7 6.7 1.5
v 0.9 6.7 1.5
v -0.8 6.7 1.4
v -0.7 6.7 1.4
v -0.6 6.7 1.4
v 0.0999999 6.7 1.4
v 0.5 6.7 1.4
v 0.7 6.7 1.4
v 0.8 6.7 1.4
v -1.1 6.7 1.3
v -0.9 6.7 1.3
v 0.9 6.7 1.3
v 1 6.7 1.3
v 1.1 6.7 1.3
v -1.1 6.7 1.2
v -1 6.7 1.2
v -0.8 6.7 1.2
v 0.8 6.7 1.2
v 1 6.7 1.2
v 1 6.7 1.1
v 1.1 6.7 1.1
v -1.1 6.7 1
v -1 6.7 1
v 1 6.7 1
v 1.1 6.7 1
v -1.1 6.7 0.8
v -1 6.7 0.8
v -1.1 6.7 0.6
v -1 6.7 0.6
v 1 6.7 0.6
v 1.1 6.7 0.6
v -1.1 6.7 -0.6
v -1 6.7 -0.6
v 1 6.7 -0.6
v 1.1 6.7 -0.6
v -1.1 6.7 -0.9
v -1 6.7 -0.9
v 1 6.7 -0.9
v 1.1 6.7 -0.9
v -1.1 6.7 -1.1
v -1 6.7 -1.1
v 1 6.7 -1.1
v 1.1 6.7 -1.1
v -1 6.7 -1.2
v -0.8 6.7 -1.2
v 0.8 6.7 -1.2
v 1 6.7 -1.2
v 1.1 6.7 -1.2
v -1.1 6.7 -1.3
v -1 6.7 -1.3
v -0.9 6.7 -1.3
v -0.8 6.7 -1.3
v 0.8 6.7 -1.3
v 0.9 6.7 -1.3
v 1.1 6.7 -1.3
v -0.8 6.7 -1.4
v -0.5 6.7 -1.4
v -0.2 6.7 -1.4
v -0.1 6.7 -1.4
v 0.0999999 6.7 -1.4
v 0.6 6.7 -1.4
v 0.8 6.7 -1.4
v -0.9 6.7 -1.5
v -0.5 6.7 -1.5
v -0.2 6.7 -1.5
v -0.1 6.7 -1.5
v 0.0999999 6.7 -1.5
v 0.6 6.7 -1.5
v 0.8 6.7 -1.5
v 0.9 6.7 -1.5
v -1.2 6.9 0.6
v -1.1 6.9 0.6
v -1 6.9 0.6
v 1 6.9 0.6
v 1.2 6.9 0.6
v -1.2 6.9 0.5
v -1.1 6.9 0.5
v -1 6.9 0.5
v 1 6.9 0.5
v 1.2 6.9 0.5
v -1.2 6.9 -0.5
v -1.1 6.9 -0.5
v -1 6.9 -0.5
v 1 6.9 -0.5
v 1.1 6.9 -0.5
v 1.2 6.9 -0.5
v -1.2 6.9 -0.6
v -1.1 6.9 -0.6
v -1 6.9 -0.6
v 1 6.9 -0.6
v 1.1 6.9 -0.6
v 1.2 6.9 -0.6
v -1.2 7 0.5
v -1.1 7 0.5
v -1 7 0.5
v 1 7 0.5
v 1.2 7 0.5
v -1.2 7 0.4
v -1.1 7 0.4
v -1 7 0.4
v 1 7 0.4
v 1.2 7 0.4
v -1.2 7 -0.4
v -1.1 7 -0.4
v -1 7 -0.4
v 1 7 -0.4
v 1.1 7 -0.4
v 1.2 7 -0.4
v -1.2 7 -0.5
v -1.1 7 -0.5
v -1 7 -0.5
v 1 7 -0.5
v 1.1 7 -0.5
v 1.2 7 -0.5
v -1.2 7.1 0.4
v -1 7.1 0.4
v 1 7.1 0.4
v 1.2 7.1 0.4
v -1.2 7.1 0.2
v -1.1 7.1 0.2
v 1.1 7.1 0.2
v 1.2 7.1 0.2
v -1.2 7.1 -0.1
v -1.1 7.1 -0.1
v 1.1 7.1 -0.1
v 1.2 7.1 -0.1
v -1.2 7.1 -0.3
v -1.1 7.1 -0.3
v 1.1 7.1 -0.3
v 1.2 7.1 -0.3
v -1.2 7.1 -0.4
v -1.1 7.1 -0.4
v -1 7.1 -0.4
v 1 7.1 -0.4
v 1.1 7.1 -0.4
v 1.2 7.1 -0.4
v -0.8 7.2 1.4
v -0.6 7.2 1.4
v -0.2 7.2 1.4
v 0.2 7.2 1.4
v 0.6 7.2 1.4
v 0.8 7.2 1.4
v -1 7.2 1.2
v -0.8 7.2 1.2
v -0.6 7.2 1.2
v -0.2 7.2 1.2
v 0.2 7.2 1.2
v 0.6 7.2 1.2
v 0.8 7.2 1.2
v 1 7.2 1.2
v -1 7.2 1
v -0.8 7.2 1
v 0.8 7.2 1
v 1 7.2 1
v -1 7.2 0.6
v -0.8 7.2 0.6
v 0.8 7.2 0.6
v 1 7.2 0.6
v -1 7.2 0.2
v -0.8 7.2 0.2
v 0.8 7.2 0.2
v 1 7.2 0.2
v -1 7.2 -0.2
v -0.8 7.2 -0.2
v 0.8 7.2 -0.2
v 1 7.2 -0.2
v -1 7.2 -0.6
v -0.8 7.2 -0.6
v 0.8 7.2 -0.6
v 1 7.2 -0.6
v -1 7.2 -1
v -0.8 7.2 -1
v 0.8 7.2 -1
v 1 7.2 -1
v -1 7.2 -1.2
v -0.8 7.2 -1.2
v -0.6 7.2 -1.2
v -0.2 7.2 -1.2
v 0.2 7.2 -1.2
v 0.6 7.2 -1.2
v 0.8 7.2 -1.2
v 1 7.2 -1.2
v -0.8 7.2 -1.4
v -0.6 7.2 -1.4
v -0.2 7.2 -1.4
v 0.2 7.2 -1.4
v 0.6 7.2 -1.4
v 0.8 7.2 -1.4
v -0.6 7.5 1.4
v -0.4 7.5 1.4
v -0.3 7.5 1.4
v -0.2 7.5 1.4
v 0.2 7.5 1.4
v 0.4 7.5 1.4
v 0.5 7.5 1.4
v 0.6 7.5 1.4
v -0.6 7.5 1.3
v -0.4 7.5 1.3
v -0.3 7.5 1.3
v -0.2 7.5 1.3
v 0.2 7.5 1.3
v 0.4 7.5 1.3
v 0.5 7.5 1.3
v 0.6 7.5 1.3
v -0.6 7.5 1.2
v -0.2 7.5 1.2
v 0.2 7.5 1.2
v 0.6 7.5 1.2
v -1 7.5 1
v -0.9 7.5 1
v -0.8 7.5 1
v 0.8 7.5 1
v 0.9 7.5 1
v 1 7.5 1
v -1 7.5 0.9
v -0.9 7.5 0.9
v -1 7.5 0.8
v -0.9 7.5 0.8
v 0.9 7.5 0.8
v 1 7.5 0.8
v 0.9 7.5 0.7
v 1 7.5 0.7
v -1 7.5 0.6
v -0.9 7.5 0.6
v -0.8 7.5 0.6
v 0.8 7.5 0.6
v 0.9 7.5 0.6
v 1 7.5 0.6
v -1 7.5 0.2
v -0.9 7.5 0.2
v -0.8 7.5 0.2
v 0.8 7.5 0.2
v 0.9 7.5 0.2
v 1 7.5 0.2
v -1 7.5 0.1
v -0.9 7.5 0.1
v -1 7.5 0
v -0.9 7.5 0
v 0.9 7.5 0
v 1 7.5 0
v 0.9 7.5 -0.1
v 1 7.5 -0.1
v -1 7.5 -0.2
v -0.9 7.5 -0.2
v -0.8 7.5 -0.2
v 0.8 7.5 -0.2
v 0.9 7.5 -0.2
v 1 7.5 -0.2
v -1 7.5 -0.6
v -0.9 7.5 -0.6
v -0.8 7.5 -0.6
v 0.8 7.5 -0.6
v 0.9 7.5 -0.6
v 1 7.5 -0.6
v -1 7.5 -0.7
v -0.9 7.5 -0.7
v -1 7.5 -0.8
v -0.9 7.5 -0.8
v 0.9 7.5 -0.8
v 1 7.5 -0.8
v 0.9 7.5 -0.9
v 1 7.5 -0.9
v -1 7.5 -1
v -0.9 7.5 -1
v -0.8 7.5 -1
v 0.8 7.5 -1
v 0.9 7.5 -1
v 1 7.5 -1
v -0.6 7.5 -1.2
v -0.2 7.5 -1.2
v 0.2 7.5 -1.2
v 0.6 7.5 -1.2
v -0.6 7.5 -1.3
v -0.4 7.5 -1.3
v -0.3 7.5 -1.3
v -0.2 7.5 -1.3
v 0.2 7.5 -1.3
v 0.4 7.5 -1.3
v 0.5 7.5 -1.3
v 0.6 7.5 -1.3
v -0.6 7.5 -1.4
v -0.4 7.5 -1.4
v -0.3 7.5 -1.4
v -0.2 7.5 -1.4
v 0.2 7.5 -1.4
v 0.4 7.5 -1.4
v 0.5 7.5 -1.4
v 0.6 7.5 -1.4

# faces
f 8/5/1 2/5/1 1/5/1
f 9/5/1 2/5/1 8/5/1
f 10/5/1 4/5/1 3/5/1
f 11/5/1 4/5/1 10/5/1
f 12/5/1 6/5/1 5/5/1
f 13/5/1 6/5/1 12/5/1
f 15/5/1 11/5/1 10/5/1
f 15/5/1 14/5/1 13/5/1
f 15/5/1 13/5/1 12/5/1
f 15/5/1 12/5/1 11/5/1
f 15/5/1 9/5/1 8/5/1
f 15/5/1 10/5/1 9/5/1
f 15/5/1 8/5/1 7/5/1
f 16/5/1 14/5/1 15/5/1
f 18/5/1 15/5/1 7/5/1
f 19/4/1 16/4/1 15/4/1
f 19/5/1 15/5/1 18/5/1
f 20/5/1 14/5/1 16/5/1
f 20/4/1 16/4/1 19/4/1
f 21/5/1 14/5/1 20/5/1
f 23/5/1 19/5/1 18/5/1
f 23/5/1 22/5/1 21/5/1
f 23/5/1 21/5/1 20/5/1
f 23/5/1 20/5/1 19/5/1
f 23/5/1 18/5/1 17/5/1
f 24/5/1 22/5/1 23/5/1
f 25/5/1 22/5/1 24/5/1
f 26/5/1 22/5/1 25/5/1
f 27/5/1 22/5/1 26/5/1
f 28/5/1 22/5/1 27/5/1
f 29/5/1 22/5/1 28/5/1
f 30/5/1 22/5/1 29/5/1
f 31/4/1 24/4/1 23/4/1
f 31/5/1 25/5/1 24/5/1
f 32/4/1 26/4/1 25/4/1
f 32/5/1 25/5/1 31/5/1
f 33/4/1 28/4/1 27/4/1
f 33/5/1 29/5/1 28/5/1
f 34/4/1 30/4/1 29/4/1
f 34/5/1 29/5/1 33/5/1
f 35/5/1 23/5/1 17/5/1
f 35/4/1 31/4/1 23/4/1
f 35/4/1 32/4/1 31/4/1
f 36/4/1 32/4/1 35/4/1
f 37/4/1 30/4/1 34/4/1
f 37/4/1 34/4/1 33/4/1
f 38/5/1 22/5/1 30/5/1
f 38/4/1 30/4/1 37/4/1
f 39/4/1 32/4/1 36/4/1
f 39/5/1 36/5/1 35/5/1
f 40/5/1 27/5/1 26/5/1
f 40/4/1 32/4/1 39/4/1
f 40/4/1 26/4/1 32/4/1
f 41/4/1 37/4/1 33/4/1
f 41/5/1 27/5/1 40/5/1
f 41/4/1 33/4/1 27/4/1
f 42/5/1 38/5/1 37/5/1
f 42/4/1 37/4/1 41/4/1
f 43/5/1 40/5/1 39/5/1
f 43/5/1 35/5/1 17/5/1
f 43/5/1 42/5/1 41/5/1
f 43/5/1 39/5/1 35/5/1
f 43/5/1 41/5/1 40/5/1
f 44/5/1 42/5/1 43/5/1
f 45/5/1 22/5/1 38/5/1
f 45/5/1 42/5/1 44/5/1
f 45/5/1 38/5/1 42/5/1
f 46/5/1 22/5/1 45/5/1
f 47/2/1 44/2/1 43/2/1
f 48/5/1 45/5/1 44/5/1
f 48/2/1 44/2/1 47/2/1
f 49/5/1 45/5/1 48/5/1
f 50/5/1 45/5/1 49/5/1
f 51/2/1 46/2/1 45/2/1
f 51/5/1 45/5/1 50/5/1
f 52/2/1 46/2/1 51/2/1
f 53/2/1 49/2/1 48/2/1
f 54/5/1 50/5/1 49/5/1
f 54/2/1 49/2/1 53/2/1
f 55/5/1 50/5/1 54/5/1
f 56/5/1 50/5/1 55/5/1
f 57/5/1 50/5/1 56/5/1
f 58/2/1 51/2/1 50/2/1
f 58/5/1 50/5/1 57/5/1
f 59/2/1 51/2/1 58/2/1
f 60/5/1 55/5/1 54/5/1
f 61/2/1 56/2/1 55/2/1
f 61/5/1 55/5/1 60/5/1
f 62/3/1 57/3/1 56/3/1
f 62/2/1 56/2/1 61/2/1
f 63/2/1 58/2/1 57/2/1
f 63/3/1 57/3/1 62/3/1
f 64/2/1 58/2/1 63/2/1
f 67/5/1 66/5/1 65/5/1
f 68/5/1 66/5/1 67/5/1
f 69/5/1 66/5/1 68/5/1
f 70/5/1 66/5/1 69/5/1
f 71/5/1 66/5/1 70/5/1
f 72/5/1 66/5/1 71/5/1
f 73/2/1 68/2/1 67/2/1
f 74/5/1 69/5/1 68/5/1
f 74/2/1 68/2/1 73/2/1
f 75/2/1 70/2/1 69/2/1
f 75/5/1 69/5/1 74/5/1
f 76/3/1 71/3/1 70/3/1
f 76/2/1 70/2/1 75/2/1
f 77/2/1 72/2/1 71/2/1
f 77/3/1 71/3/1 76/3/1
f 78/2/1 72/2/1 77/2/1
f 84/6/1 80/6/1 79/6/1
f 85/6/1 80/6/1 84/6/1
f 88/6/1 82/6/1 81/6/1
f 89/6/1 82/6/1 88/6/1
f 91/6/1 86/6/1 85/6/1
f 91/6/1 84/6/1 83/6/1
f 91/6/1 85/6/1 84/6/1
f 92/6/1 86/6/1 91/6/1
f 93/6/1 86/6/1 92/6/1
f 94/6/1 86/6/1 93/6/1
f 95/6/1 90/6/1 89/6/1
f 95/6/1 89/6/1 88/6/1
f 95/6/1 88/6/1 87/6/1
f 96/6/1 90/6/1 95/6/1
f 97/6/1 90/6/1 96/6/1
f 98/6/1 90/6/1 97/6/1
f 99/6/1 93/6/1 92/6/1
f 100/6/1 93/6/1 99/6/1
f 101/6/1 97/6/1 96/6/1
f 102/6/1 97/6/1 101/6/1
f 107/5/1 104/5/1 103/5/1
f 108/5/1 104/5/1 107/5/1
f 109/5/1 104/5/1 108/5/1
f 110/5/1 104/5/1 109/5/1
f 111/5/1 106/5/1 105/5/1
f 112/5/1 106/5/1 111/5/1
f 113/5/1 106/5/1 112/5/1
f 114/2/1 108/2/1 107/2/1
f 115/3/1 109/3/1 108/3/1
f 115/2/1 108/2/1 114/2/1
f 116/2/1 110/2/1 109/2/1
f 116/3/1 109/3/1 115/3/1
f 117/5/1 104/5/1 110/5/1
f 117/2/1 110/2/1 116/2/1
f 118/5/1 104/5/1 117/5/1
f 119/5/1 111/5/1 105/5/1
f 120/2/1 112/2/1 111/2/1
f 120/5/1 111/5/1 119/5/1
f 121/3/1 113/3/1 112/3/1
f 121/2/1 112/2/1 120/2/1
f 122/3/1 113/3/1 121/3/1
f 128/5/1 124/5/1 123/5/1
f 128/5/1 127/5/1 126/5/1
f 128/5/1 126/5/1 125/5/1
f 128/5/1 125/5/1 124/5/1
f 129/5/1 127/5/1 128/5/1
f 130/5/1 127/5/1 129/5/1
f 131/5/1 127/5/1 130/5/1
f 132/5/1 127/5/1 131/5/1
f 133/5/1 127/5/1 132/5/1
f 134/5/1 127/5/1 133/5/1
f 135/5/1 127/5/1 134/5/1
f 136/5/1 127/5/1 135/5/1
f 137/5/1 127/5/1 136/5/1
f 138/5/1 128/5/1 123/5/1
f 139/5/1 128/5/1 138/5/1
f 140/5/1 130/5/1 129/5/1
f 141/5/1 130/5/1 140/5/1
f 142/5/1 130/5/1 141/5/1
f 143/5/1 130/5/1 142/5/1
f 144/5/1 132/5/1 131/5/1
f 145/5/1 132/5/1 144/5/1
f 146/5/1 134/5/1 133/5/1
f 147/5/1 134/5/1 146/5/1
f 148/5/1 136/5/1 135/5/1
f 149/5/1 136/5/1 148/5/1
f 150/5/1 136/5/1 149/5/1
f 151/5/1 136/5/1 150/5/1
f 152/5/1 127/5/1 137/5/1
f 153/5/1 127/5/1 152/5/1
f 154/5/1 138/5/1 123/5/1
f 157/5/1 142/5/1 141/5/1
f 158/5/1 142/5/1 157/5/1
f 159/5/1 142/5/1 158/5/1
f 160/5/1 150/5/1 149/5/1
f 161/5/1 150/5/1 160/5/1
f 162/5/1 150/5/1 161/5/1
f 165/5/1 127/5/1 153/5/1
f 166/5/1 155/5/1 154/5/1
f 167/5/1 157/5/1 156/5/1
f 167/5/1 158/5/1 157/5/1
f 168/5/1 163/5/1 162/5/1
f 168/5/1 162/5/1 161/5/1
f 169/5/1 165/5/1 164/5/1
f 170/5/1 167/5/1 166/5/1
f 170/5/1 154/5/1 123/5/1
f 170/5/1 166/5/1 154/5/1
f 171/5/1 158/5/1 167/5/1
f 171/5/1 167/5/1 170/5/1
f 172/5/1 169/5/1 168/5/1
f 172/5/1 168/5/1 161/5/1
f 173/5/1 127/5/1 165/5/1
f 173/5/1 169/5/1 172/5/1
f 173/5/1 165/5/1 169/5/1
f 182/5/1 175/5/1 174/5/1
f 182/5/1 176/5/1 175/5/1
f 182/5/1 177/5/1 176/5/1
f 185/5/1 181/5/1 180/5/1
f 185/5/1 180/5/1 179/5/1
f 185/5/1 179/5/1 178/5/1
f 186/5/1 183/5/1 182/5/1
f 189/5/1 185/5/1 184/5/1
f 190/5/1 187/5/1 186/5/1
f 191/5/1 189/5/1 188/5/1
f 192/5/1 190/5/1 186/5/1
f 192/5/1 191/5/1 190/5/1
f 192/5/1 182/5/1 174/5/1
f 192/5/1 186/5/1 182/5/1
f 193/5/1 191/5/1 192/5/1
f 194/5/1 191/5/1 193/5/1
f 195/5/1 191/5/1 194/5/1
f 196/5/1 191/5/1 195/5/1
f 197/5/1 189/5/1 191/5/1
f 197/5/1 191/5/1 196/5/1
f 197/5/1 181/5/1 185/5/1
f 197/5/1 185/5/1 189/5/1
f 198/5/1 181/5/1 197/5/1
f 199/5/1 181/5/1 198/5/1
f 200/5/1 194/5/1 193/5/1
f 201/5/1 194/5/1 200/5/1
f 202/5/1 194/5/1 201/5/1
f 203/5/1 194/5/1 202/5/1
f 204/5/1 196/5/1 195/5/1
f 205/5/1 196/5/1 204/5/1
f 206/5/1 196/5/1 205/5/1
f 207/5/1 196/5/1 206/5/1
f 208/5/1 198/5/1 197/5/1
f 209/5/1 198/5/1 208/5/1
f 210/5/1 198/5/1 209/5/1
f 211/5/1 198/5/1 210/5/1
f 212/2/1 201/2/1 200/2/1
f 213/3/1 202/3/1 201/3/1
f 213/2/1 201/2/1 212/2/1
f 214/2/1 203/2/1 202/2/1
f 214/3/1 202/3/1 213/3/1
f 215/2/1 203/2/1 214/2/1
f 216/2/1 205/2/1 204/2/1
f 217/3/1 206/3/1 205/3/1
f 217/2/1 205/2/1 216/2/1
f 218/2/1 207/2/1 206/2/1
f 218/3/1 206/3/1 217/3/1
f 219/2/1 207/2/1 218/2/1
f 220/2/1 209/2/1 208/2/1
f 221/3/1 210/3/1 209/3/1
f 221/2/1 209/2/1 220/2/1
f 222/2/1 211/2/1 210/2/1
f 222/3/1 210/3/1 221/3/1
f 223/2/1 211/2/1 222/2/1
f 228/5/1 225/5/1 224/5/1
f 229/5/1 225/5/1 228/5/1
f 230/5/1 227/5/1 226/5/1
f 231/5/1 227/5/1 230/5/1
f 232/5/1 227/5/1 231/5/1
f 233/3/1 229/3/1 228/3/1
f 234/3/1 229/3/1 233/3/1
f 235/2/1 231/2/1 230/2/1
f 236/3/1 232/3/1 231/3/1
f 236/2/1 231/2/1 235/2/1
f 237/3/1 232/3/1 236/3/1
f 242/5/1 239/5/1 238/5/1
f 243/5/1 239/5/1 242/5/1
f 244/5/1 241/5/1 240/5/1
f 245/2/1 243/2/1 242/2/1
f 246/2/1 243/2/1 245/2/1
f 247/5/1 241/5/1 244/5/1
f 248/5/1 241/5/1 247/5/1
f 254/5/1 250/5/1 249/5/1
f 254/5/1 251/5/1 250/5/1
f 255/5/1 251/5/1 254/5/1
f 256/5/1 253/5/1 252/5/1
f 257/5/1 253/5/1 256/5/1
f 263/5/1 259/5/1 258/5/1
f 264/5/1 259/5/1 263/5/1
f 265/5/1 262/5/1 261/5/1
f 265/5/1 261/5/1 260/5/1
f 266/5/1 262/5/1 265/5/1
f 271/1/1 268/1/1 267/1/1
f 272/1/1 268/1/1 271/1/1
f 273/1/1 270/1/1 269/1/1
f 274/1/1 270/1/1 273/1/1
f 279/5/1 276/5/1 275/5/1
f 280/5/1 276/5/1 279/5/1
f 281/5/1 278/5/1 277/5/1
f 282/5/1 278/5/1 281/5/1
f 283/2/1 280/2/1 279/2/1
f 284/5/1 276/5/1 280/5/1
f 284/2/1 280/2/1 283/2/1
f 285/5/1 276/5/1 284/5/1
f 286/5/1 281/5/1 277/5/1
f 287/2/1 282/2/1 281/2/1
f 287/5/1 281/5/1 286/5/1
f 288/2/1 282/2/1 287/2/1
f 293/7/1 290/7/1 289/7/1
f 294/7/1 290/7/1 293/7/1
f 295/7/1 292/7/1 291/7/1
f 296/7/1 292/7/1 295/7/1
f 301/7/1 298/7/1 297/7/1
f 302/7/1 298/7/1 301/7/1
f 303/7/1 300/7/1 299/7/1
f 304/7/1 300/7/1 303/7/1
f 309/7/1 306/7/1 305/7/1
f 310/7/1 306/7/1 309/7/1
f 311/7/1 308/7/1 307/7/1
f 312/7/1 308/7/1 311/7/1
f 317/5/1 314/5/1 313/5/1
f 318/5/1 314/5/1 317/5/1
f 319/5/1 316/5/1 315/5/1
f 320/5/1 316/5/1 319/5/1
f 321/2/1 318/2/1 317/2/1
f 322/5/1 314/5/1 318/5/1
f 322/2/1 318/2/1 321/2/1
f 323/5/1 314/5/1 322/5/1
f 324/5/1 319/5/1 315/5/1
f 325/2/1 320/2/1 319/2/1
f 325/5/1 319/5/1 324/5/1
f 326/2/1 320/2/1 325/2/1
f 331/1/1 328/1/1 327/1/1
f 332/1/1 328/1/1 331/1/1
f 333/1/1 330/1/1 329/1/1
f 334/1/1 330/1/1 333/1/1
f 337/5/1 336/5/1 335/5/1
f 338/5/1 336/5/1 337/5/1
f 339/5/1 336/5/1 338/5/1
f 340/5/1 336/5/1 339/5/1
f 341/5/1 336/5/1 340/5/1
f 342/5/1 336/5/1 341/5/1
f 343/5/1 336/5/1 342/5/1
f 344/5/1 336/5/1 343/5/1
f 345/5/1 339/5/1 338/5/1
f 346/5/1 339/5/1 345/5/1
f 347/5/1 341/5/1 340/5/1
f 348/5/1 341/5/1 347/5/1
f 349/5/1 343/5/1 342/5/1
f 350/5/1 343/5/1 349/5/1
f 351/5/2 352/5/2 353/5/2
f 353/5/2 352/5/2 354/5/2
f 354/5/2 352/5/2 355/5/2
f 355/5/2 352/5/2 356/5/2
f 356/5/2 352/5/2 357/5/2
f 357/5/2 352/5/2 358/5/2
f 358/5/2 352/5/2 359/5/2
f 359/5/2 352/5/2 360/5/2
f 354/5/2 355/5/2 361/5/2
f 361/5/2 355/5/2 362/5/2
f 356/5/2 357/5/2 363/5/2
f 363/5/2 357/5/2 364/5/2
f 358/5/2 359/5/2 365/5/2
f 365/5/2 359/5/2 366/5/2
f 367/1/2 368/1/2 371/1/2
f 371/1/2 368/1/2 372/1/2
f 369/1/2 370/1/2 373/1/2
f 373/1/2 370/1/2 374/1/2
f 375/5/2 376/5/2 379/5/2
f 379/5/2 376/5/2 380/5/2
f 377/5/2 378/5/2 381/5/2
f 381/5/2 378/5/2 382/5/2
f 379/2/2 380/2/2 383/2/2
f 380/5/2 376/5/2 384/5/2
f 383/2/2 380/2/2 384/2/2
f 384/5/2 376/5/2 385/5/2
f 377/5/2 381/5/2 386/5/2
f 381/2/2 382/2/2 387/2/2
f 386/5/2 381/5/2 387/5/2
f 387/2/2 382/2/2 388/2/2
f 389/7/2 390/7/2 393/7/2
f 393/7/2 390/7/2 394/7/2
f 391/7/2 392/7/2 395/7/2
f 395/7/2 392/7/2 396/7/2
f 397/7/2 398/7/2 401/7/2
f 401/7/2 398/7/2 402/7/2
f 399/7/2 400/7/2 403/7/2
f 403/7/2 400/7/2 404/7/2
f 405/7/2 406/7/2 409/7/2
f 409/7/2 406/7/2 410/7/2
f 407/7/2 408/7/2 411/7/2
f 411/7/2 408/7/2 412/7/2
f 413/1/2 414/1/2 417/1/2
f 417/1/2 414/1/2 418/1/2
f 415/1/2 416/1/2 419/1/2
f 419/1/2 416/1/2 420/1/2
f 421/5/2 422/5/2 425/5/2
f 425/5/2 422/5/2 426/5/2
f 423/5/2 424/5/2 427/5/2
f 427/5/2 424/5/2 428/5/2
f 425/2/2 426/2/2 429/2/2
f 426/5/2 422/5/2 430/5/2
f 429/2/2 426/2/2 430/2/2
f 430/5/2 422/5/2 431/5/2
f 423/5/2 427/5/2 432/5/2
f 427/2/2 428/2/2 433/2/2
f 432/5/2 427/5/2 433/5/2
f 433/2/2 428/2/2 434/2/2
f 435/5/2 436/5/2 440/5/2
f 436/5/2 437/5/2 440/5/2
f 440/5/2 437/5/2 441/5/2
f 438/5/2 439/5/2 442/5/2
f 442/5/2 439/5/2 443/5/2
f 444/5/2 445/5/2 449/5/2
f 449/5/2 445/5/2 450/5/2
f 447/5/2 448/5/2 451/5/2
f 446/5/2 447/5/2 451/5/2
f 451/5/2 448/5/2 452/5/2
f 453/5/2 454/5/2 457/5/2
f 455/5/2 456/5/2 458/5/2
f 458/5/2 456/5/2 459/5/2
f 459/5/2 456/5/2 460/5/2
f 453/5/2 457/5/2 461/5/2
f 461/5/2 457/5/2 462/5/2
f 458/2/2 459/2/2 463/2/2
f 459/3/2 460/3/2 464/3/2
f 463/2/2 459/2/2 464/2/2
f 464/3/2 460/3/2 465/3/2
f 466/5/2 467/5/2 470/5/2
f 470/5/2 467/5/2 471/5/2
f 468/5/2 469/5/2 472/5/2
f 472/5/2 469/5/2 473/5/2
f 470/2/2 471/2/2 474/2/2
f 474/2/2 471/2/2 475/2/2
f 472/3/2 473/3/2 476/3/2
f 476/3/2 473/3/2 477/3/2
f 478/5/2 479/5/2 484/5/2
f 482/5/2 483/5/2 484/5/2
f 481/5/2 482/5/2 484/5/2
f 480/5/2 481/5/2 484/5/2
f 479/5/2 480/5/2 484/5/2
f 484/5/2 483/5/2 485/5/2
f 485/5/2 483/5/2 486/5/2
f 486/5/2 483/5/2 487/5/2
f 487/5/2 483/5/2 488/5/2
f 488/5/2 483/5/2 489/5/2
f 489/5/2 483/5/2 490/5/2
f 490/5/2 483/5/2 491/5/2
f 491/5/2 483/5/2 492/5/2
f 492/5/2 483/5/2 493/5/2
f 478/5/2 484/5/2 494/5/2
f 494/5/2 484/5/2 495/5/2
f 485/5/2 486/5/2 496/5/2
f 496/5/2 486/5/2 497/5/2
f 497/5/2 486/5/2 498/5/2
f 498/5/2 486/5/2 499/5/2
f 487/5/2 488/5/2 500/5/2
f 500/5/2 488/5/2 501/5/2
f 489/5/2 490/5/2 502/5/2
f 502/5/2 490/5/2 503/5/2
f 491/5/2 492/5/2 504/5/2
f 504/5/2 492/5/2 505/5/2
f 505/5/2 492/5/2 506/5/2
f 506/5/2 492/5/2 507/5/2
f 493/5/2 483/5/2 508/5/2
f 508/5/2 483/5/2 509/5/2
f 478/5/2 494/5/2 510/5/2
f 497/5/2 498/5/2 513/5/2
f 513/5/2 498/5/2 514/5/2
f 514/5/2 498/5/2 515/5/2
f 505/5/2 506/5/2 516/5/2
f 516/5/2 506/5/2 517/5/2
f 517/5/2 506/5/2 518/5/2
f 509/5/2 483/5/2 521/5/2
f 510/5/2 511/5/2 522/5/2
f 512/5/2 513/5/2 523/5/2
f 513/5/2 514/5/2 523/5/2
f 518/5/2 519/5/2 524/5/2
f 517/5/2 518/5/2 524/5/2
f 520/5/2 521/5/2 525/5/2
f 522/5/2 523/5/2 526/5/2
f 478/5/2 510/5/2 526/5/2
f 510/5/2 522/5/2 526/5/2
f 523/5/2 514/5/2 527/5/2
f 526/5/2 523/5/2 527/5/2
f 524/5/2 525/5/2 528/5/2
f 517/5/2 524/5/2 528/5/2
f 521/5/2 483/5/2 529/5/2
f 528/5/2 525/5/2 529/5/2
f 525/5/2 521/5/2 529/5/2
f 530/5/2 531/5/2 538/5/2
f 531/5/2 532/5/2 538/5/2
f 532/5/2 533/5/2 538/5/2
f 536/5/2 537/5/2 541/5/2
f 535/5/2 536/5/2 541/5/2
f 534/5/2 535/5/2 541/5/2
f 538/5/2 539/5/2 542/5/2
f 540/5/2 541/5/2 545/5/2
f 542/5/2 543/5/2 546/5/2
f 544/5/2 545/5/2 547/5/2
f 542/5/2 546/5/2 548/5/2
f 546/5/2 547/5/2 548/5/2
f 530/5/2 538/5/2 548/5/2
f 538/5/2 542/5/2 548/5/2
f 548/5/2 547/5/2 549/5/2
f 549/5/2 547/5/2 550/5/2
f 550/5/2 547/5/2 551/5/2
f 551/5/2 547/5/2 552/5/2
f 547/5/2 545/5/2 553/5/2
f 552/5/2 547/5/2 553/5/2
f 541/5/2 537/5/2 553/5/2
f 545/5/2 541/5/2 553/5/2
f 553/5/2 537/5/2 554/5/2
f 554/5/2 537/5/2 555/5/2
f 549/5/2 550/5/2 556/5/2
f 556/5/2 550/5/2 557/5/2
f 557/5/2 550/5/2 558/5/2
f 558/5/2 550/5/2 559/5/2
f 551/5/2 552/5/2 560/5/2
f 560/5/2 552/5/2 561/5/2
f 561/5/2 552/5/2 562/5/2
f 562/5/2 552/5/2 563/5/2
f 553/5/2 554/5/2 564/5/2
f 564/5/2 554/5/2 565/5/2
f 565/5/2 554/5/2 566/5/2
f 566/5/2 554/5/2 567/5/2
f 556/2/2 557/2/2 568/2/2
f 557/3/2 558/3/2 569/3/2
f 568/2/2 557/2/2 569/2/2
f 558/2/2 559/2/2 570/2/2
f 569/3/2 558/3/2 570/3/2
f 570/2/2 559/2/2 571/2/2
f 560/2/2 561/2/2 572/2/2
f 561/3/2 562/3/2 573/3/2
f 572/2/2 561/2/2 573/2/2
f 562/2/2 563/2/2 574/2/2
f 573/3/2 562/3/2 574/3/2
f 574/2/2 563/2/2 575/2/2
f 564/2/2 565/2/2 576/2/2
f 565/3/2 566/3/2 577/3/2
f 576/2/2 565/2/2 577/2/2
f 566/2/2 567/2/2 578/2/2
f 577/3/2 566/3/2 578/3/2
f 578/2/2 567/2/2 579/2/2
f 580/5/2 581/5/2 582/5/2
f 582/5/2 581/5/2 583/5/2
f 583/5/2 581/5/2 584/5/2
f 584/5/2 581/5/2 585/5/2
f 585/5/2 581/5/2 586/5/2
f 586/5/2 581/5/2 587/5/2
f 587/5/2 581/5/2 588/5/2
f 582/2/2 583/2/2 589/2/2
f 583/3/2 584/3/2 590/3/2
f 589/2/2 583/2/2 590/2/2
f 584/2/2 585/2/2 591/2/2
f 590/3/2 584/3/2 591/3/2
f 585/5/2 586/5/2 592/5/2
f 591/2/2 585/2/2 592/2/2
f 586/2/2 587/2/2 593/2/2
f 592/5/2 586/5/2 593/5/2
f 587/3/2 588/3/2 594/3/2
f 593/2/2 587/2/2 594/2/2
f 594/3/2 588/3/2 595/3/2
f 596/6/2 597/6/2 601/6/2
f 601/6/2 597/6/2 602/6/2
f 598/6/2 599/6/2 605/6/2
f 605/6/2 599/6/2 606/6/2
f 602/6/2 603/6/2 608/6/2
f 600/6/2 601/6/2 608/6/2
f 601/6/2 602/6/2 608/6/2
f 608/6/2 603/6/2 609/6/2
f 609/6/2 603/6/2 610/6/2
f 610/6/2 603/6/2 611/6/2
f 606/6/2 607/6/2 612/6/2
f 605/6/2 606/6/2 612/6/2
f 604/6/2 605/6/2 612/6/2
f 612/6/2 607/6/2 613/6/2
f 613/6/2 607/6/2 614/6/2
f 614/6/2 607/6/2 615/6/2
f 609/6/2 610/6/2 616/6/2
f 616/6/2 610/6/2 617/6/2
f 613/6/2 614/6/2 618/6/2
f 618/6/2 614/6/2 619/6/2
f 620/5/2 621/5/2 624/5/2
f 624/5/2 621/5/2 625/5/2
f 625/5/2 621/5/2 626/5/2
f 622/5/2 623/5/2 627/5/2
f 627/5/2 623/5/2 628/5/2
f 628/5/2 623/5/2 629/5/2
f 629/5/2 623/5/2 630/5/2
f 624/3/2 625/3/2 631/3/2
f 625/2/2 626/2/2 632/2/2
f 631/3/2 625/3/2 632/3/2
f 626/5/2 621/5/2 633/5/2
f 632/2/2 626/2/2 633/2/2
f 633/5/2 621/5/2 634/5/2
f 622/5/2 627/5/2 635/5/2
f 627/2/2 628/2/2 636/2/2
f 635/5/2 627/5/2 636/5/2
f 628/3/2 629/3/2 637/3/2
f 636/2/2 628/2/2 637/2/2
f 629/2/2 630/2/2 638/2/2
f 637/3/2 629/3/2 638/3/2
f 638/2/2 630/2/2 639/2/2
f 640/5/2 641/5/2 647/5/2
f 647/5/2 641/5/2 648/5/2
f 642/5/2 643/5/2 649/5/2
f 649/5/2 643/5/2 650/5/2
f 644/5/2 645/5/2 651/5/2
f 651/5/2 645/5/2 652/5/2
f 649/5/2 650/5/2 654/5/2
f 652/5/2 653/5/2 654/5/2
f 651/5/2 652/5/2 654/5/2
f 650/5/2 651/5/2 654/5/2
f 647/5/2 648/5/2 654/5/2
f 648/5/2 649/5/2 654/5/2
f 646/5/2 647/5/2 654/5/2
f 654/5/2 653/5/2 655/5/2
f 646/5/2 654/5/2 657/5/2
f 654/4/2 655/4/2 658/4/2
f 657/5/2 654/5/2 658/5/2
f 655/5/2 653/5/2 659/5/2
f 658/4/2 655/4/2 659/4/2
f 659/5/2 653/5/2 660/5/2
f 657/5/2 658/5/2 662/5/2
f 660/5/2 661/5/2 662/5/2
f 659/5/2 660/5/2 662/5/2
f 658/5/2 659/5/2 662/5/2
f 656/5/2 657/5/2 662/5/2
f 662/5/2 661/5/2 663/5/2
f 663/5/2 661/5/2 664/5/2
f 664/5/2 661/5/2 665/5/2
f 665/5/2 661/5/2 666/5/2
f 666/5/2 661/5/2 667/5/2
f 667/5/2 661/5/2 668/5/2
f 668/5/2 661/5/2 669/5/2
f 662/4/2 663/4/2 670/4/2
f 663/5/2 664/5/2 670/5/2
f 664/4/2 665/4/2 671/4/2
f 670/5/2 664/5/2 671/5/2
f 666/4/2 667/4/2 672/4/2
f 667/5/2 668/5/2 672/5/2
f 668/4/2 669/4/2 673/4/2
f 672/5/2 668/5/2 673/5/2
f 656/5/2 662/5/2 674/5/2
f 662/4/2 670/4/2 674/4/2
f 670/4/2 671/4/2 674/4/2
f 674/4/2 671/4/2 675/4/2
f 673/4/2 669/4/2 676/4/2
f 672/4/2 673/4/2 676/4/2
f 669/5/2 661/5/2 677/5/2
f 676/4/2 669/4/2 677/4/2
f 675/4/2 671/4/2 678/4/2
f 674/5/2 675/5/2 678/5/2
f 665/5/2 666/5/2 679/5/2
f 678/4/2 671/4/2 679/4/2
f 671/4/2 665/4/2 679/4/2
f 672/4/2 676/4/2 680/4/2
f 679/5/2 666/5/2 680/5/2
f 666/4/2 672/4/2 680/4/2
f 676/5/2 677/5/2 681/5/2
f 680/4/2 676/4/2 681/4/2
f 677/5/2 661/5/2 682/5/2
f 681/5/2 677/5/2 682/5/2
f 680/5/2 681/5/2 682/5/2
f 678/5/2 679/5/2 682/5/2
f 679/5/2 680/5/2 682/5/2
f 682/5/2 661/5/2 683/5/2
f 674/5/2 678/5/2 684/5/2
f 656/5/2 674/5/2 684/5/2
f 678/5/2 682/5/2 684/5/2
f 684/5/2 682/5/2 685/5/2
f 685/5/2 682/5/2 686/5/2
f 682/2/2 683/2/2 687/2/2
f 686/5/2 682/5/2 687/5/2
f 687/2/2 683/2/2 688/2/2
f 685/5/2 686/5/2 689/5/2
f 689/5/2 686/5/2 690/5/2
f 690/5/2 686/5/2 691/5/2
f 691/5/2 686/5/2 692/5/2
f 692/5/2 686/5/2 693/5/2
f 686/2/2 687/2/2 694/2/2
f 693/5/2 686/5/2 694/5/2
f 694/2/2 687/2/2 695/2/2
f 690/5/2 691/5/2 696/5/2
f 691/2/2 692/2/2 697/2/2
f 696/5/2 691/5/2 697/5/2
f 692/3/2 693/3/2 698/3/2
f 697/2/2 692/2/2 698/2/2
f 693/2/2 694/2/2 699/2/2
f 698/3/2 693/3/2 699/3/2
f 699/2/2 694/2/2 700/2/2
f 707/5/3 705/5/3 704/5/3
f 707/2/3 706/2/3 705/2/3
f 708/2/3 706/2/3 707/2/3
f 709/5/3 702/5/3 701/5/3
f 709/3/3 703/3/3 702/3/3
f 710/3/3 703/3/3 709/3/3
f 711/3/3 708/3/3 707/3/3
f 711/5/3 707/5/3 704/5/3
f 712/3/3 708/3/3 711/3/3
f 715/5/3 711/5/3 704/5/3
f 715/2/3 712/2/3 711/2/3
f 716/2/3 712/2/3 715/2/3
f 717/2/3 710/2/3 709/2/3
f 717/5/3 709/5/3 701/5/3
f 718/2/3 710/2/3 717/2/3
f 719/5/3 717/5/3 701/5/3
f 719/3/3 718/3/3 717/3/3
f 720/3/3 718/3/3 719/3/3
f 721/1/3 714/1/3 713/1/3
f 722/1/3 714/1/3 721/1/3
f 723/2/3 720/2/3 719/2/3
f 723/5/3 719/5/3 701/5/3
f 724/2/3 720/2/3 723/2/3
f 728/7/3 726/7/3 725/7/3
f 729/7/3 726/7/3 728/7/3
f 731/5/3 723/5/3 701/5/3
f 731/5/3 724/5/3 723/5/3
f 732/5/3 724/5/3 731/5/3
f 733/7/3 729/7/3 728/7/3
f 733/7/3 730/7/3 729/7/3
f 733/7/3 728/7/3 727/7/3
f 734/7/3 730/7/3 733/7/3
f 735/7/3 730/7/3 734/7/3
f 736/7/3 730/7/3 735/7/3
f 737/5/3 716/5/3 715/5/3
f 737/5/3 715/5/3 704/5/3
f 738/5/3 716/5/3 737/5/3
f 739/7/3 735/7/3 734/7/3
f 740/7/3 735/7/3 739/7/3
f 741/2/3 732/2/3 731/2/3
f 741/5/3 731/5/3 701/5/3
f 742/2/3 732/2/3 741/2/3
f 743/5/3 741/5/3 701/5/3
f 743/3/3 742/3/3 741/3/3
f 744/3/3 742/3/3 743/3/3
f 747/2/3 738/2/3 737/2/3
f 747/5/3 737/5/3 704/5/3
f 748/2/3 738/2/3 747/2/3
f 749/5/3 743/5/3 701/5/3
f 749/2/3 744/2/3 743/2/3
f 750/2/3 744/2/3 749/2/3
f 751/1/3 746/1/3 745/1/3
f 752/1/3 746/1/3 751/1/3
f 753/3/3 748/3/3 747/3/3
f 753/5/3 747/5/3 704/5/3
f 754/3/3 748/3/3 753/3/3
f 755/5/3 750/5/3 749/5/3
f 755/5/3 749/5/3 701/5/3
f 756/5/3 750/5/3 755/5/3
f 757/5/3 753/5/3 704/5/3
f 758/2/3 754/2/3 753/2/3
f 758/5/3 753/5/3 757/5/3
f 759/2/3 754/2/3 758/2/3
f 764/5/3 761/5/3 760/5/3
f 765/5/3 763/5/3 762/5/3
f 766/5/3 761/5/3 764/5/3
f 767/5/3 761/5/3 766/5/3
f 768/5/3 763/5/3 765/5/3
f 769/5/3 763/5/3 768/5/3
f 772/5/3 766/5/3 764/5/3
f 773/5/3 766/5/3 772/5/3
f 774/5/3 766/5/3 773/5/3
f 775/5/3 761/5/3 767/5/3
f 776/2/3 771/2/3 770/2/3
f 776/5/3 770/5/3 769/5/3
f 776/5/3 769/5/3 768/5/3
f 777/2/3 771/2/3 776/2/3
f 778/5/3 776/5/3 768/5/3
f 778/3/3 777/3/3 776/3/3
f 779/3/3 777/3/3 778/3/3
f 780/5/3 774/5/3 773/5/3
f 780/5/3 775/5/3 774/5/3
f 781/5/3 775/5/3 780/5/3
f 782/5/3 761/5/3 775/5/3
f 782/5/3 775/5/3 781/5/3
f 783/5/3 778/5/3 768/5/3
f 784/2/3 779/2/3 778/2/3
f 784/5/3 778/5/3 783/5/3
f 785/2/3 779/2/3 784/2/3
f 786/5/3 781/5/3 780/5/3
f 787/5/3 781/5/3 786/5/3
f 788/5/3 761/5/3 782/5/3
f 789/5/3 761/5/3 788/5/3
f 790/5/3 786/5/3 780/5/3
f 791/5/3 786/5/3 790/5/3
f 794/5/3 761/5/3 789/5/3
f 795/5/3 783/5/3 768/5/3
f 796/5/3 792/5/3 791/5/3
f 796/5/3 791/5/3 790/5/3
f 797/5/3 794/5/3 793/5/3
f 798/5/3 783/5/3 795/5/3
f 801/5/3 796/5/3 790/5/3
f 801/5/3 797/5/3 796/5/3
f 802/5/3 797/5/3 801/5/3
f 803/5/3 797/5/3 802/5/3
f 804/5/3 794/5/3 797/5/3
f 804/5/3 797/5/3 803/5/3
f 805/2/3 800/2/3 799/2/3
f 805/5/3 799/5/3 798/5/3
f 806/2/3 800/2/3 805/2/3
f 807/5/3 798/5/3 795/5/3
f 807/5/3 805/5/3 798/5/3
f 808/3/3 806/3/3 805/3/3
f 808/5/3 805/5/3 807/5/3
f 809/3/3 806/3/3 808/3/3
f 810/5/3 803/5/3 802/5/3
f 811/5/3 803/5/3 810/5/3
f 812/5/3 794/5/3 804/5/3
f 813/5/3 808/5/3 807/5/3
f 814/2/3 809/2/3 808/2/3
f 814/5/3 808/5/3 813/5/3
f 815/2/3 809/2/3 814/2/3
f 816/5/3 813/5/3 807/5/3
f 817/5/3 811/5/3 810/5/3
f 817/5/3 812/5/3 811/5/3
f 818/5/3 761/5/3 794/5/3
f 818/5/3 812/5/3 817/5/3
f 818/5/3 794/5/3 812/5/3
f 819/5/3 813/5/3 816/5/3
f 820/5/3 813/5/3 819/5/3
f 827/5/3 822/5/3 821/5/3
f 828/2/3 823/2/3 822/2/3
f 828/5/3 822/5/3 827/5/3
f 829/2/3 823/2/3 828/2/3
f 830/5/3 825/5/3 824/5/3
f 831/2/3 826/2/3 825/2/3
f 831/5/3 825/5/3 830/5/3
f 832/2/3 826/2/3 831/2/3
f 839/5/3 837/5/3 836/5/3
f 839/2/3 838/2/3 837/2/3
f 840/2/3 838/2/3 839/2/3
f 841/5/3 834/5/3 833/5/3
f 842/2/3 835/2/3 834/2/3
f 842/5/3 834/5/3 841/5/3
f 843/2/3 835/2/3 842/2/3
f 844/5/3 839/5/3 836/5/3
f 845/3/3 840/3/3 839/3/3
f 845/5/3 839/5/3 844/5/3
f 846/3/3 840/3/3 845/3/3
f 851/5/3 848/5/3 847/5/3
f 852/5/3 848/5/3 851/5/3
f 853/5/3 850/5/3 849/5/3
f 854/5/3 850/5/3 853/5/3
f 859/5/3 856/5/3 855/5/3
f 860/5/3 856/5/3 859/5/3
f 861/5/3 858/5/3 857/5/3
f 862/5/3 858/5/3 861/5/3
f 865/6/3 864/6/3 863/6/3
f 866/6/3 864/6/3 865/6/3
f 869/6/3 868/6/3 867/6/3
f 870/6/3 868/6/3 869/6/3
f 875/6/3 872/6/3 871/6/3
f 876/6/3 872/6/3 875/6/3
f 877/6/3 874/6/3 873/6/3
f 878/6/3 874/6/3 877/6/3
f 882/2/3 881/2/3 880/2/3
f 882/5/3 880/5/3 879/5/3
f 883/2/3 881/2/3 882/2/3
f 884/5/3 882/5/3 879/5/3
f 884/5/3 883/5/3 882/5/3
f 885/5/3 883/5/3 884/5/3
f 888/5/3 887/5/3 886/5/3
f 889/5/3 887/5/3 888/5/3
f 894/5/3 888/5/3 886/5/3
f 895/2/3 889/2/3 888/2/3
f 895/5/3 888/5/3 894/5/3
f 896/2/3 889/2/3 895/2/3
f 897/6/3 891/6/3 890/6/3
f 898/6/3 891/6/3 897/6/3
f 899/6/3 893/6/3 892/6/3
f 900/6/3 893/6/3 899/6/3
f 904/5/3 902/5/3 901/5/3
f 905/5/3 902/5/3 904/5/3
f 906/2/3 903/2/3 902/2/3
f 906/5/3 902/5/3 905/5/3
f 907/2/3 903/2/3 906/2/3
f 908/5/3 904/5/3 901/5/3
f 909/5/3 904/5/3 908/5/3
f 910/5/3 907/5/3 906/5/3
f 910/5/3 906/5/3 905/5/3
f 911/5/3 907/5/3 910/5/3
f 916/5/3 913/5/3 912/5/3
f 917/5/3 915/5/3 914/5/3
f 918/5/3 916/5/3 912/5/3
f 918/5/3 917/5/3 916/5/3
f 919/5/3 915/5/3 917/5/3
f 919/5/3 917/5/3 918/5/3
f 924/2/3 923/2/3 922/2/3
f 925/2/3 923/2/3 924/2/3
f 926/5/3 921/5/3 920/5/3
f 927/5/3 921/5/3 926/5/3
f 928/5/3 925/5/3 924/5/3
f 929/5/3 925/5/3 928/5/3
f 934/5/3 931/5/3 930/5/3
f 935/5/3 931/5/3 934/5/3
f 936/5/3 933/5/3 932/5/3
f 937/5/3 933/5/3 936/5/3
f 942/5/3 941/5/3 940/5/3
f 943/5/3 939/5/3 938/5/3
f 944/5/3 939/5/3 943/5/3
f 945/5/3 941/5/3 942/5/3
f 946/5/3 941/5/3 945/5/3
f 951/5/3 948/5/3 947/5/3
f 952/5/3 948/5/3 951/5/3
f 953/5/3 950/5/3 949/5/3
f 954/5/3 950/5/3 953/5/3
f 958/5/3 956/5/3 955/5/3
f 958/2/3 957/2/3 956/2/3
f 959/2/3 957/2/3 958/2/3
f 960/5/3 958/5/3 955/5/3
f 960/5/3 959/5/3 958/5/3
f 961/5/3 959/5/3 960/5/3
f 964/5/3 963/5/3 962/5/3
f 965/5/3 963/5/3 964/5/3
f 966/5/3 964/5/3 962/5/3
f 967/2/3 965/2/3 964/2/3
f 967/5/3 964/5/3 966/5/3
f 968/2/3 965/2/3 967/2/3
f 971/5/3 970/5/3 969/5/3
f 972/5/3 970/5/3 971/5/3
f 975/5/3 974/5/3 973/5/3
f 976/5/3 974/5/3 975/5/3
f 979/5/3 978/5/3 977/5/3
f 980/5/3 978/5/3 979/5/3
f 983/5/3 982/5/3 981/5/3
f 984/5/3 982/5/3 983/5/3
f 988/5/3 986/5/3 985/5/3
f 988/2/3 987/2/3 986/2/3
f 989/2/3 987/2/3 988/2/3
f 990/5/3 988/5/3 985/5/3
f 990/5/3 989/5/3 988/5/3
f 991/5/3 989/5/3 990/5/3
f 994/5/3 993/5/3 992/5/3
f 995/5/3 993/5/3 994/5/3
f 996/5/3 994/5/3 992/5/3
f 997/2/3 995/2/3 994/2/3
f 997/5/3 994/5/3 996/5/3
f 998/2/3 995/2/3 997/2/3
f 1001/6/3 1000/6/3 999/6/3
f 1002/6/3 1000/6/3 1001/6/3
f 1005/6/3 1004/6/3 1003/6/3
f 1006/6/3 1004/6/3 1005/6/3
f 1011/6/3 1008/6/3 1007/6/3
f 1012/6/3 1008/6/3 1011/6/3
f 1013/6/3 1010/6/3 1009/6/3
f 1014/6/3 1010/6/3 1013/6/3
f 1019/6/3 1016/6/3 1015/6/3
f 1020/6/3 1016/6/3 1019/6/3
f 1021/6/3 1018/6/3 1017/6/3
f 1022/6/3 1018/6/3 1021/6/3
f 1025/5/3 1024/5/3 1023/5/3
f 1027/5/3 1025/5/3 1023/5/3
f 1027/5/3 1026/5/3 1025/5/3
f 1028/5/3 1026/5/3 1027/5/3
f 1029/5/3 1027/5/3 1023/5/3
f 1031/5/3 1029/5/3 1023/5/3
f 1031/5/3 1030/5/3 1029/5/3
f 1032/5/3 1030/5/3 1031/5/3
f 1033/5/3 1031/5/3 1023/5/3
f 1034/5/3 1031/5/3 1033/5/3
f 1035/5/4 1036/5/4 1037/5/4
f 1035/5/4 1037/5/4 1039/5/4
f 1037/5/4 1038/5/4 1039/5/4
f 1039/5/4 1038/5/4 1040/5/4
f 1035/5/4 1039/5/4 1041/5/4
f 1035/5/4 1041/5/4 1043/5/4
f 1041/5/4 1042/5/4 1043/5/4
f 1043/5/4 1042/5/4 1044/5/4
f 1035/5/4 1043/5/4 1045/5/4
f 1045/5/4 1043/5/4 1046/5/4
f 1047/6/4 1048/6/4 1051/6/4
f 1051/6/4 1048/6/4 1052/6/4
f 1049/6/4 1050/6/4 1053/6/4
f 1053/6/4 1050/6/4 1054/6/4
f 1055/6/4 1056/6/4 1059/6/4
f 1059/6/4 1056/6/4 1060/6/4
f 1057/6/4 1058/6/4 1061/6/4
f 1061/6/4 1058/6/4 1062/6/4
f 1063/6/4 1064/6/4 1065/6/4
f 1065/6/4 1064/6/4 1066/6/4
f 1067/6/4 1068/6/4 1069/6/4
f 1069/6/4 1068/6/4 1070/6/4
f 1071/5/4 1072/5/4 1074/5/4
f 1072/2/4 1073/2/4 1074/2/4
f 1074/2/4 1073/2/4 1075/2/4
f 1071/5/4 1074/5/4 1076/5/4
f 1074/5/4 1075/5/4 1076/5/4
f 1076/5/4 1075/5/4 1077/5/4
f 1078/5/4 1079/5/4 1080/5/4
f 1080/5/4 1079/5/4 1081/5/4
f 1078/5/4 1080/5/4 1082/5/4
f 1080/2/4 1081/2/4 1083/2/4
f 1082/5/4 1080/5/4 1083/5/4
f 1083/2/4 1081/2/4 1084/2/4
f 1085/5/4 1086/5/4 1087/5/4
f 1087/5/4 1086/5/4 1088/5/4
f 1089/5/4 1090/5/4 1091/5/4
f 1091/5/4 1090/5/4 1092/5/4
f 1093/5/4 1094/5/4 1095/5/4
f 1095/5/4 1094/5/4 1096/5/4
f 1097/5/4 1098/5/4 1099/5/4
f 1099/5/4 1098/5/4 1100/5/4
f 1101/5/4 1102/5/4 1104/5/4
f 1102/2/4 1103/2/4 1104/2/4
f 1104/2/4 1103/2/4 1105/2/4
f 1101/5/4 1104/5/4 1106/5/4
f 1104/5/4 1105/5/4 1106/5/4
f 1106/5/4 1105/5/4 1107/5/4
f 1108/5/4 1109/5/4 1110/5/4
f 1110/5/4 1109/5/4 1111/5/4
f 1108/5/4 1110/5/4 1112/5/4
f 1110/2/4 1111/2/4 1113/2/4
f 1112/5/4 1110/5/4 1113/5/4
f 1113/2/4 1111/2/4 1114/2/4
f 1117/2/4 1118/2/4 1119/2/4
f 1119/2/4 1118/2/4 1120/2/4
f 1115/5/4 1116/5/4 1121/5/4
f 1121/5/4 1116/5/4 1122/5/4
f 1119/5/4 1120/5/4 1123/5/4
f 1123/5/4 1120/5/4 1124/5/4
f 1127/5/4 1128/5/4 1129/5/4
f 1129/5/4 1128/5/4 1130/5/4
f 1125/5/4 1126/5/4 1131/5/4
f 1131/5/4 1126/5/4 1132/5/4
f 1129/2/4 1130/2/4 1133/2/4
f 1133/2/4 1130/2/4 1134/2/4
f 1137/2/4 1138/2/4 1139/2/4
f 1139/2/4 1138/2/4 1140/2/4
f 1135/5/4 1136/5/4 1141/5/4
f 1141/5/4 1136/5/4 1142/5/4
f 1139/5/4 1140/5/4 1143/5/4
f 1143/5/4 1140/5/4 1144/5/4
f 1147/5/4 1148/5/4 1149/5/4
f 1149/5/4 1148/5/4 1150/5/4
f 1145/5/4 1146/5/4 1151/5/4
f 1151/5/4 1146/5/4 1152/5/4
f 1149/2/4 1150/2/4 1153/2/4
f 1153/2/4 1150/2/4 1154/2/4
f 1155/5/4 1156/5/4 1158/5/4
f 1158/5/4 1156/5/4 1159/5/4
f 1156/2/4 1157/2/4 1160/2/4
f 1159/5/4 1156/5/4 1160/5/4
f 1160/2/4 1157/2/4 1161/2/4
f 1155/5/4 1158/5/4 1162/5/4
f 1162/5/4 1158/5/4 1163/5/4
f 1160/5/4 1161/5/4 1164/5/4
f 1159/5/4 1160/5/4 1164/5/4
f 1164/5/4 1161/5/4 1165/5/4
f 1166/5/4 1167/5/4 1170/5/4
f 1168/5/4 1169/5/4 1171/5/4
f 1171/5/4 1169/5/4 1172/5/4
f 1172/5/4 1169/5/4 1173/5/4
f 1166/5/4 1170/5/4 1174/5/4
f 1170/5/4 1171/5/4 1174/5/4
f 1171/5/4 1172/5/4 1174/5/4
f 1172/2/4 1173/2/4 1175/2/4
f 1174/5/4 1172/5/4 1175/5/4
f 1175/2/4 1173/2/4 1176/2/4
f 1177/6/4 1178/6/4 1181/6/4
f 1181/6/4 1178/6/4 1182/6/4
f 1179/6/4 1180/6/4 1183/6/4
f 1183/6/4 1180/6/4 1184/6/4
f 1186/2/4 1187/2/4 1188/2/4
f 1185/5/4 1186/5/4 1188/5/4
f 1188/2/4 1187/2/4 1189/2/4
f 1185/5/4 1188/5/4 1190/5/4
f 1188/5/4 1189/5/4 1190/5/4
f 1190/5/4 1189/5/4 1191/5/4
f 1192/5/4 1193/5/4 1194/5/4
f 1194/5/4 1193/5/4 1195/5/4
f 1192/5/4 1194/5/4 1200/5/4
f 1194/2/4 1195/2/4 1201/2/4
f 1200/5/4 1194/5/4 1201/5/4
f 1201/2/4 1195/2/4 1202/2/4
f 1196/6/4 1197/6/4 1203/6/4
f 1203/6/4 1197/6/4 1204/6/4
f 1198/6/4 1199/6/4 1205/6/4
f 1205/6/4 1199/6/4 1206/6/4
f 1207/6/4 1208/6/4 1209/6/4
f 1209/6/4 1208/6/4 1210/6/4
f 1211/6/4 1212/6/4 1213/6/4
f 1213/6/4 1212/6/4 1214/6/4
f 1215/5/4 1216/5/4 1219/5/4
f 1219/5/4 1216/5/4 1220/5/4
f 1217/5/4 1218/5/4 1221/5/4
f 1221/5/4 1218/5/4 1222/5/4
f 1223/5/4 1224/5/4 1227/5/4
f 1227/5/4 1224/5/4 1228/5/4
f 1228/5/4 1224/5/4 1229/5/4
f 1225/5/4 1226/5/4 1230/5/4
f 1230/5/4 1226/5/4 1231/5/4
f 1235/5/4 1236/5/4 1238/5/4
f 1236/3/4 1237/3/4 1238/3/4
f 1238/3/4 1237/3/4 1239/3/4
f 1232/5/4 1233/5/4 1240/5/4
f 1233/2/4 1234/2/4 1241/2/4
f 1240/5/4 1233/5/4 1241/5/4
f 1241/2/4 1234/2/4 1242/2/4
f 1235/5/4 1238/5/4 1243/5/4
f 1238/2/4 1239/2/4 1244/2/4
f 1243/5/4 1238/5/4 1244/5/4
f 1244/2/4 1239/2/4 1245/2/4
f 1246/5/4 1247/5/4 1252/5/4
f 1247/3/4 1248/3/4 1253/3/4
f 1252/5/4 1247/5/4 1253/5/4
f 1253/3/4 1248/3/4 1254/3/4
f 1249/5/4 1250/5/4 1255/5/4
f 1250/2/4 1251/2/4 1256/2/4
f 1255/5/4 1250/5/4 1256/5/4
f 1256/2/4 1251/2/4 1257/2/4
f 1258/5/4 1259/5/4 1262/5/4
f 1262/5/4 1259/5/4 1263/5/4
f 1263/5/4 1259/5/4 1264/5/4
f 1260/5/4 1261/5/4 1265/5/4
f 1260/5/4 1265/5/4 1268/5/4
f 1265/5/4 1266/5/4 1268/5/4
f 1262/5/4 1263/5/4 1269/5/4
f 1264/5/4 1259/5/4 1270/5/4
f 1268/5/4 1266/5/4 1271/5/4
f 1266/2/4 1267/2/4 1271/2/4
f 1271/2/4 1267/2/4 1272/2/4
f 1268/5/4 1271/5/4 1273/5/4
f 1271/3/4 1272/3/4 1273/3/4
f 1273/3/4 1272/3/4 1274/3/4
f 1262/5/4 1269/5/4 1275/5/4
f 1269/5/4 1270/5/4 1275/5/4
f 1275/5/4 1270/5/4 1276/5/4
f 1270/5/4 1259/5/4 1277/5/4
f 1276/5/4 1270/5/4 1277/5/4
f 1268/5/4 1273/5/4 1278/5/4
f 1278/5/4 1273/5/4 1279/5/4
f 1273/2/4 1274/2/4 1280/2/4
f 1279/5/4 1273/5/4 1280/5/4
f 1280/2/4 1274/2/4 1281/2/4
f 1275/5/4 1276/5/4 1282/5/4
f 1282/5/4 1276/5/4 1283/5/4
f 1277/5/4 1259/5/4 1284/5/4
f 1284/5/4 1259/5/4 1285/5/4
f 1278/5/4 1279/5/4 1286/5/4
f 1275/5/4 1282/5/4 1287/5/4
f 1285/5/4 1259/5/4 1290/5/4
f 1286/5/4 1279/5/4 1291/5/4
f 1287/5/4 1288/5/4 1292/5/4
f 1275/5/4 1287/5/4 1292/5/4
f 1292/5/4 1288/5/4 1293/5/4
f 1289/5/4 1290/5/4 1294/5/4
f 1291/5/4 1279/5/4 1295/5/4
f 1293/5/4 1294/5/4 1298/5/4
f 1292/5/4 1293/5/4 1298/5/4
f 1298/5/4 1294/5/4 1299/5/4
f 1294/5/4 1290/5/4 1300/5/4
f 1299/5/4 1294/5/4 1300/5/4
f 1296/2/4 1297/2/4 1301/2/4
f 1295/5/4 1296/5/4 1301/5/4
f 1301/2/4 1297/2/4 1302/2/4
f 1295/5/4 1301/5/4 1303/5/4
f 1301/3/4 1302/3/4 1303/3/4
f 1303/3/4 1302/3/4 1304/3/4
f 1298/5/4 1299/5/4 1305/5/4
f 1305/5/4 1299/5/4 1306/5/4
f 1300/5/4 1290/5/4 1307/5/4
f 1291/5/4 1295/5/4 1308/5/4
f 1295/5/4 1303/5/4 1308/5/4
f 1308/5/4 1303/5/4 1309/5/4
f 1303/2/4 1304/2/4 1310/2/4
f 1309/5/4 1303/5/4 1310/5/4
f 1310/2/4 1304/2/4 1311/2/4
f 1305/5/4 1306/5/4 1312/5/4
f 1306/5/4 1307/5/4 1312/5/4
f 1290/5/4 1259/5/4 1313/5/4
f 1312/5/4 1307/5/4 1313/5/4
f 1307/5/4 1290/5/4 1313/5/4
f 1308/5/4 1309/5/4 1314/5/4
f 1314/5/4 1309/5/4 1315/5/4
f 1316/5/4 1317/5/4 1321/5/4
f 1317/3/4 1318/3/4 1321/3/4
f 1321/3/4 1318/3/4 1322/3/4
f 1316/5/4 1321/5/4 1323/5/4
f 1321/2/4 1322/2/4 1323/2/4
f 1323/2/4 1322/2/4 1324/2/4
f 1319/5/4 1320/5/4 1327/5/4
f 1327/5/4 1320/5/4 1328/5/4
f 1325/1/4 1326/1/4 1329/1/4
f 1329/1/4 1326/1/4 1330/1/4
f 1323/5/4 1324/5/4 1331/5/4
f 1316/5/4 1323/5/4 1331/5/4
f 1331/5/4 1324/5/4 1332/5/4
f 1319/5/4 1327/5/4 1335/5/4
f 1327/2/4 1328/2/4 1335/2/4
f 1335/2/4 1328/2/4 1336/2/4
f 1333/7/4 1334/7/4 1338/7/4
f 1338/7/4 1334/7/4 1339/7/4
f 1319/5/4 1335/5/4 1341/5/4
f 1335/3/4 1336/3/4 1341/3/4
f 1341/3/4 1336/3/4 1342/3/4
f 1339/7/4 1340/7/4 1343/7/4
f 1338/7/4 1339/7/4 1343/7/4
f 1337/7/4 1338/7/4 1343/7/4
f 1343/7/4 1340/7/4 1344/7/4
f 1344/7/4 1340/7/4 1345/7/4
f 1345/7/4 1340/7/4 1346/7/4
f 1341/2/4 1342/2/4 1347/2/4
f 1319/5/4 1341/5/4 1347/5/4
f 1347/2/4 1342/2/4 1348/2/4
f 1331/2/4 1332/2/4 1349/2/4
f 1316/5/4 1331/5/4 1349/5/4
f 1349/2/4 1332/2/4 1350/2/4
f 1344/7/4 1345/7/4 1351/7/4
f 1351/7/4 1345/7/4 1352/7/4
f 1349/3/4 1350/3/4 1353/3/4
f 1316/5/4 1349/5/4 1353/5/4
f 1353/3/4 1350/3/4 1354/3/4
f 1316/5/4 1353/5/4 1357/5/4
f 1353/2/4 1354/2/4 1357/2/4
f 1357/2/4 1354/2/4 1358/2/4
f 1355/1/4 1356/1/4 1359/1/4
f 1359/1/4 1356/1/4 1360/1/4
f 1347/5/4 1348/5/4 1361/5/4
f 1319/5/4 1347/5/4 1361/5/4
f 1361/5/4 1348/5/4 1362/5/4
f 1319/5/4 1361/5/4 1363/5/4
f 1361/2/4 1362/2/4 1363/2/4
f 1363/2/4 1362/2/4 1364/2/4
f 1316/5/4 1357/5/4 1365/5/4
f 1357/3/4 1358/3/4 1366/3/4
f 1365/5/4 1357/5/4 1366/5/4
f 1366/3/4 1358/3/4 1367/3/4
f 1319/5/4 1363/5/4 1368/5/4
f 1363/3/4 1364/3/4 1369/3/4
f 1368/5/4 1363/5/4 1369/5/4
f 1369/3/4 1364/3/4 1370/3/4
f 1374/5/5 1372/5/5 1371/5/5
f 1375/5/5 1372/5/5 1374/5/5
f 1377/5/5 1374/5/5 1373/5/5
f 1377/5/5 1376/5/5 1375/5/5
f 1377/5/5 1375/5/5 1374/5/5
f 1378/5/5 1376/5/5 1377/5/5
f 1379/5/5 1376/5/5 1378/5/5
f 1380/5/5 1376/5/5 1379/5/5
f 1381/5/5 1379/5/5 1378/5/5
f 1382/5/5 1379/5/5 1381/5/5
f 1385/7/5 1384/7/5 1383/7/5
f 1386/7/5 1384/7/5 1385/7/5
f 1391/6/5 1388/6/5 1387/6/5
f 1392/6/5 1388/6/5 1391/6/5
f 1393/6/5 1390/6/5 1389/6/5
f 1394/6/5 1390/6/5 1393/6/5
f 1399/5/5 1396/5/5 1395/5/5
f 1400/5/5 1396/5/5 1399/5/5
f 1401/5/5 1398/5/5 1397/5/5
f 1402/5/5 1398/5/5 1401/5/5
f 1407/5/5 1404/5/5 1403/5/5
f 1408/5/5 1404/5/5 1407/5/5
f 1409/5/5 1406/5/5 1405/5/5
f 1410/5/5 1406/5/5 1409/5/5
f 1415/5/5 1412/5/5 1411/5/5
f 1416/5/5 1412/5/5 1415/5/5
f 1417/5/5 1414/5/5 1413/5/5
f 1418/5/5 1414/5/5 1417/5/5
f 1423/6/5 1420/6/5 1419/6/5
f 1424/6/5 1420/6/5 1423/6/5
f 1425/6/5 1422/6/5 1421/6/5
f 1426/6/5 1422/6/5 1425/6/5
f 1429/7/5 1428/7/5 1427/7/5
f 1430/7/5 1428/7/5 1429/7/5
f 1439/1/5 1432/1/5 1431/1/5
f 1440/1/5 1432/1/5 1439/1/5
f 1441/7/5 1434/7/5 1433/7/5
f 1442/7/5 1434/7/5 1441/7/5
f 1443/7/5 1436/7/5 1435/7/5
f 1444/7/5 1436/7/5 1443/7/5
f 1445/1/5 1438/1/5 1437/1/5
f 1446/1/5 1438/1/5 1445/1/5
f 1451/6/5 1448/6/5 1447/6/5
f 1452/6/5 1448/6/5 1451/6/5
f 1453/6/5 1450/6/5 1449/6/5
f 1454/6/5 1450/6/5 1453/6/5
f 1459/6/5 1456/6/5 1455/6/5
f 1460/6/5 1456/6/5 1459/6/5
f 1461/6/5 1458/6/5 1457/6/5
f 1462/6/5 1458/6/5 1461/6/5
f 1467/5/5 1464/5/5 1463/5/5
f 1468/5/5 1464/5/5 1467/5/5
f 1469/5/5 1466/5/5 1465/5/5
f 1470/5/5 1466/5/5 1469/5/5
f 1475/5/5 1472/5/5 1471/5/5
f 1476/5/5 1472/5/5 1475/5/5
f 1477/5/5 1474/5/5 1473/5/5
f 1478/5/5 1474/5/5 1477/5/5
f 1483/5/5 1480/5/5 1479/5/5
f 1484/5/5 1480/5/5 1483/5/5
f 1485/5/5 1482/5/5 1481/5/5
f 1486/5/5 1482/5/5 1485/5/5
f 1491/5/5 1488/5/5 1487/5/5
f 1492/5/5 1488/5/5 1491/5/5
f 1493/5/5 1490/5/5 1489/5/5
f 1494/5/5 1490/5/5 1493/5/5
f 1499/6/5 1496/6/5 1495/6/5
f 1500/6/5 1496/6/5 1499/6/5
f 1501/6/5 1498/6/5 1497/6/5
f 1502/6/5 1498/6/5 1501/6/5
f 1507/6/5 1504/6/5 1503/6/5
f 1508/6/5 1504/6/5 1507/6/5
f 1509/6/5 1506/6/5 1505/6/5
f 1510/6/5 1506/6/5 1509/6/5
f 1519/1/5 1512/1/5 1511/1/5
f 1520/1/5 1512/1/5 1519/1/5
f 1521/7/5 1514/7/5 1513/7/5
f 1522/7/5 1514/7/5 1521/7/5
f 1523/7/5 1516/7/5 1515/7/5
f 1524/7/5 1516/7/5 1523/7/5
f 1525/1/5 1518/1/5 1517/1/5
f 1526/1/5 1518/1/5 1525/1/5
f 1531/5/5 1528/5/5 1527/5/5
f 1532/5/5 1528/5/5 1531/5/5
f 1533/5/5 1530/5/5 1529/5/5
f 1534/5/5 1530/5/5 1533/5/5
f 1539/5/5 1536/5/5 1535/5/5
f 1540/5/5 1536/5/5 1539/5/5
f 1541/5/5 1538/5/5 1537/5/5
f 1542/5/5 1538/5/5 1541/5/5
f 1545/5/5 1544/5/5 1543/5/5
f 1546/5/5 1544/5/5 1545/5/5
f 1548/5/5 1545/5/5 1543/5/5
f 1549/5/5 1544/5/5 1546/5/5
f 1551/5/5 1548/5/5 1547/5/5
f 1552/5/5 1545/5/5 1548/5/5
f 1552/5/5 1548/5/5 1551/5/5
f 1553/5/5 1550/5/5 1549/5/5
f 1553/5/5 1549/5/5 1546/5/5
f 1554/5/5 1550/5/5 1553/5/5
f 1555/5/5 1551/5/5 1547/5/5
f 1556/5/5 1551/5/5 1555/5/5
f 1557/5/5 1550/5/5 1554/5/5
f 1558/5/5 1550/5/5 1557/5/5
f 1563/5/5 1560/5/5 1559/5/5
f 1566/5/5 1562/5/5 1561/5/5
f 1567/5/5 1564/5/5 1563/5/5
f 1567/5/5 1563/5/5 1559/5/5
f 1568/5/5 1564/5/5 1567/5/5
f 1569/5/5 1566/5/5 1565/5/5
f 1570/5/5 1562/5/5 1566/5/5
f 1570/5/5 1566/5/5 1569/5/5
f 1571/5/5 1564/5/5 1568/5/5
f 1572/5/5 1569/5/5 1565/5/5
f 1573/5/5 1571/5/5 1568/5/5
f 1573/5/5 1572/5/5 1571/5/5
f 1574/5/5 1569/5/5 1572/5/5
f 1574/5/5 1572/5/5 1573/5/5
f 1575/3/6 1576/3/6 1585/3/6
f 1576/2/6 1577/2/6 1586/2/6
f 1585/3/6 1576/3/6 1586/3/6
f 1577/3/6 1578/3/6 1587/3/6
f 1586/2/6 1577/2/6 1587/2/6
f 1578/2/6 1579/2/6 1588/2/6
f 1587/3/6 1578/3/6 1588/3/6
f 1579/5/6 1580/5/6 1589/5/6
f 1588/2/6 1579/2/6 1589/2/6
f 1580/2/6 1581/2/6 1590/2/6
f 1589/5/6 1580/5/6 1590/5/6
f 1581/3/6 1582/3/6 1591/3/6
f 1590/2/6 1581/2/6 1591/2/6
f 1582/2/6 1583/2/6 1592/2/6
f 1591/3/6 1582/3/6 1592/3/6
f 1583/5/6 1584/5/6 1593/5/6
f 1592/2/6 1583/2/6 1593/2/6
f 1593/5/6 1584/5/6 1594/5/6
f 1575/3/6 1585/3/6 1596/3/6
f 1596/3/6 1585/3/6 1597/3/6
f 1594/5/6 1584/5/6 1598/5/6
f 1598/5/6 1584/5/6 1599/5/6
f 1596/2/6 1597/2/6 1601/2/6
f 1595/2/6 1596/2/6 1601/2/6
f 1601/2/6 1597/2/6 1602/2/6
f 1599/2/6 1600/2/6 1603/2/6
f 1598/2/6 1599/2/6 1603/2/6
f 1603/2/6 1600/2/6 1604/2/6
f 1595/2/6 1601/2/6 1605/2/6
f 1605/2/6 1601/2/6 1606/2/6
f 1604/2/6 1600/2/6 1607/2/6
f 1607/2/6 1600/2/6 1608/2/6
f 1607/3/6 1608/3/6 1609/3/6
f 1609/3/6 1608/3/6 1610/3/6
f 1609/2/6 1610/2/6 1611/2/6
f 1611/2/6 1610/2/6 1612/2/6
f 1605/5/6 1606/5/6 1613/5/6
f 1613/5/6 1606/5/6 1614/5/6
f 1611/5/6 1612/5/6 1615/5/6
f 1615/5/6 1612/5/6 1616/5/6
f 1613/2/6 1614/2/6 1617/2/6
f 1617/2/6 1614/2/6 1618/2/6
f 1617/3/6 1618/3/6 1619/3/6
f 1619/3/6 1618/3/6 1620/3/6
f 1615/2/6 1616/2/6 1624/2/6
f 1624/2/6 1616/2/6 1625/2/6
f 1619/2/6 1620/2/6 1626/2/6
f 1620/2/6 1621/2/6 1626/2/6
f 1626/2/6 1621/2/6 1627/2/6
f 1622/2/6 1623/2/6 1628/2/6
f 1624/3/6 1625/3/6 1628/3/6
f 1623/3/6 1624/3/6 1628/3/6
f 1628/3/6 1625/3/6 1629/3/6
f 1627/2/6 1621/2/6 1630/2/6
f 1630/2/6 1621/2/6 1631/2/6
f 1622/2/6 1628/2/6 1637/2/6
f 1637/2/6 1628/2/6 1638/2/6
f 1630/3/6 1631/3/6 1639/3/6
f 1631/2/6 1632/2/6 1640/2/6
f 1639/3/6 1631/3/6 1640/3/6
f 1632/5/6 1633/5/6 1641/5/6
f 1640/2/6 1632/2/6 1641/2/6
f 1633/2/6 1634/2/6 1642/2/6
f 1641/5/6 1633/5/6 1642/5/6
f 1634/3/6 1635/3/6 1643/3/6
f 1642/2/6 1634/2/6 1643/2/6
f 1635/2/6 1636/2/6 1644/2/6
f 1643/3/6 1635/3/6 1644/3/6
f 1636/3/6 1637/3/6 1645/3/6
f 1644/2/6 1636/2/6 1645/2/6
f 1637/3/6 1638/3/6 1645/3/6
f 1645/3/6 1638/3/6 1646/3/6
f 1647/1/6 1648/1/6 1655/1/6
f 1655/1/6 1648/1/6 1656/1/6
f 1649/7/6 1650/7/6 1657/7/6
f 1657/7/6 1650/7/6 1658/7/6
f 1651/7/6 1652/7/6 1659/7/6
f 1659/7/6 1652/7/6 1660/7/6
f 1653/1/6 1654/1/6 1661/1/6
f 1661/1/6 1654/1/6 1662/1/6
f 1663/6/6 1664/6/6 1667/6/6
f 1667/6/6 1664/6/6 1668/6/6
f 1665/6/6 1666/6/6 1669/6/6
f 1669/6/6 1666/6/6 1670/6/6
f 1671/6/6 1672/6/6 1675/6/6
f 1675/6/6 1672/6/6 1676/6/6
f 1673/6/6 1674/6/6 1677/6/6
f 1677/6/6 1674/6/6 1678/6/6
f 1679/6/6 1680/6/6 1683/6/6
f 1683/6/6 1680/6/6 1684/6/6
f 1681/6/6 1682/6/6 1685/6/6
f 1685/6/6 1682/6/6 1686/6/6
f 1687/6/6 1688/6/6 1691/6/6
f 1691/6/6 1688/6/6 1692/6/6
f 1689/6/6 1690/6/6 1693/6/6
f 1693/6/6 1690/6/6 1694/6/6
f 1695/1/6 1696/1/6 1703/1/6
f 1703/1/6 1696/1/6 1704/1/6
f 1697/7/6 1698/7/6 1705/7/6
f 1705/7/6 1698/7/6 1706/7/6
f 1699/7/6 1700/7/6 1707/7/6
f 1707/7/6 1700/7/6 1708/7/6
f 1701/1/6 1702/1/6 1709/1/6
f 1709/1/6 1702/1/6 1710/1/6
f 1711/7/6 1712/7/6 1713/7/6
f 1713/7/6 1712/7/6 1714/7/6
f 1715/6/6 1716/6/6 1719/6/6
f 1719/6/6 1716/6/6 1720/6/6
f 1717/6/6 1718/6/6 1721/6/6
f 1721/6/6 1718/6/6 1722/6/6
f 1723/6/6 1724/6/6 1727/6/6
f 1727/6/6 1724/6/6 1728/6/6
f 1725/6/6 1726/6/6 1729/6/6
f 1729/6/6 1726/6/6 1730/6/6
f 1731/7/6 1732/7/6 1733/7/6
f 1733/7/6 1732/7/6 1734/7/6
f 1735/5/6 1736/5/6 1737/5/6
f 1737/5/6 1736/5/6 1738/5/6
f 1739/2/6 1740/2/6 1747/2/6
f 1740/3/6 1741/3/6 1747/3/6
f 1741/2/6 1742/2/6 1748/2/6
f 1747/3/6 1741/3/6 1748/3/6
f 1742/5/6 1743/5/6 1749/5/6
f 1748/2/6 1742/2/6 1749/2/6
f 1743/2/6 1744/2/6 1750/2/6
f 1749/5/6 1743/5/6 1750/5/6
f 1744/3/6 1745/3/6 1751/3/6
f 1750/2/6 1744/2/6 1751/2/6
f 1745/2/6 1746/2/6 1752/2/6
f 1751/3/6 1745/3/6 1752/3/6
f 1752/2/6 1746/2/6 1753/2/6
f 1739/2/6 1747/2/6 1755/2/6
f 1753/2/6 1746/2/6 1756/2/6
f 1754/2/6 1755/2/6 1759/2/6
f 1759/2/6 1755/2/6 1760/2/6
f 1755/2/6 1747/2/6 1761/2/6
f 1760/2/6 1755/2/6 1761/2/6
f 1753/2/6 1756/2/6 1762/2/6
f 1756/2/6 1757/2/6 1762/2/6
f 1757/3/6 1758/3/6 1763/3/6
f 1762/2/6 1757/2/6 1763/2/6
f 1763/3/6 1758/3/6 1764/3/6
f 1764/3/6 1758/3/6 1765/3/6
f 1759/3/6 1760/3/6 1766/3/6
f 1766/3/6 1760/3/6 1767/3/6
f 1764/2/6 1765/2/6 1768/2/6
f 1768/2/6 1765/2/6 1769/2/6
f 1766/2/6 1767/2/6 1770/2/6
f 1770/2/6 1767/2/6 1771/2/6
f 1770/5/6 1771/5/6 1772/5/6
f 1772/5/6 1771/5/6 1773/5/6
f 1768/5/6 1769/5/6 1774/5/6
f 1774/5/6 1769/5/6 1775/5/6
f 1776/5/6 1777/5/6 1780/5/6
f 1780/5/6 1777/5/6 1781/5/6
f 1778/5/6 1779/5/6 1782/5/6
f 1782/5/6 1779/5/6 1783/5/6
f 1780/2/6 1781/2/6 1784/2/6
f 1784/2/6 1781/2/6 1785/2/6
f 1782/2/6 1783/2/6 1786/2/6
f 1786/2/6 1783/2/6 1787/2/6
f 1784/3/6 1785/3/6 1788/3/6
f 1786/3/6 1787/3/6 1791/3/6
f 1791/3/6 1787/3/6 1792/3/6
f 1784/3/6 1788/3/6 1793/3/6
f 1788/2/6 1789/2/6 1794/2/6
f 1793/3/6 1788/3/6 1794/3/6
f 1794/2/6 1789/2/6 1795/2/6
f 1795/2/6 1789/2/6 1796/2/6
f 1790/2/6 1791/2/6 1797/2/6
f 1791/2/6 1792/2/6 1797/2/6
f 1797/2/6 1792/2/6 1798/2/6
f 1798/2/6 1792/2/6 1799/2/6
f 1795/5/6 1796/5/6 1800/5/6
f 1797/3/6 1798/3/6 1806/3/6
f 1795/5/6 1800/5/6 1807/5/6
f 1800/5/6 1801/5/6 1807/5/6
f 1801/2/6 1802/2/6 1808/2/6
f 1807/5/6 1801/5/6 1808/5/6
f 1802/3/6 1803/3/6 1809/3/6
f 1808/2/6 1802/2/6 1809/2/6
f 1803/2/6 1804/2/6 1810/2/6
f 1809/3/6 1803/3/6 1810/3/6
f 1804/5/6 1805/5/6 1811/5/6
f 1810/2/6 1804/2/6 1811/2/6
f 1805/2/6 1806/2/6 1812/2/6
f 1811/5/6 1805/5/6 1812/5/6
f 1806/3/6 1798/3/6 1813/3/6
f 1812/2/6 1806/2/6 1813/2/6
f 1813/3/6 1798/3/6 1814/3/6
f 1815/2/6 1816/2/6 1820/2/6
f 1816/5/6 1817/5/6 1821/5/6
f 1820/2/6 1816/2/6 1821/2/6
f 1821/5/6 1817/5/6 1822/5/6
f 1818/5/6 1819/5/6 1823/5/6
f 1823/5/6 1819/5/6 1824/5/6
f 1825/2/6 1826/2/6 1831/2/6
f 1826/5/6 1827/5/6 1832/5/6
f 1831/2/6 1826/2/6 1832/2/6
f 1832/5/6 1827/5/6 1833/5/6
f 1828/5/6 1829/5/6 1834/5/6
f 1829/2/6 1830/2/6 1835/2/6
f 1834/5/6 1829/5/6 1835/5/6
f 1835/2/6 1830/2/6 1836/2/6
f 1837/2/6 1838/2/6 1842/2/6
f 1838/5/6 1839/5/6 1843/5/6
f 1842/2/6 1838/2/6 1843/2/6
f 1843/5/6 1839/5/6 1844/5/6
f 1840/5/6 1841/5/6 1845/5/6
f 1845/5/6 1841/5/6 1846/5/6
f 1847/2/6 1848/2/6 1853/2/6
f 1848/5/6 1849/5/6 1854/5/6
f 1853/2/6 1848/2/6 1854/2/6
f 1854/5/6 1849/5/6 1855/5/6
f 1850/5/6 1851/5/6 1856/5/6
f 1851/2/6 1852/2/6 1857/2/6
f 1856/5/6 1851/5/6 1857/5/6
f 1857/2/6 1852/2/6 1858/2/6
f 1859/5/6 1860/5/6 1863/5/6
f 1863/5/6 1860/5/6 1864/5/6
f 1861/5/6 1862/5/6 1865/5/6
f 1865/5/6 1862/5/6 1866/5/6
f 1863/2/6 1864/2/6 1867/2/6
f 1864/5/6 1860/5/6 1868/5/6
f 1867/2/6 1864/2/6 1868/2/6
f 1861/5/6 1865/5/6 1869/5/6
f 1865/2/6 1866/2/6 1869/2/6
f 1869/2/6 1866/2/6 1870/2/6
f 1867/3/6 1868/3/6 1871/3/6
f 1868/5/6 1860/5/6 1872/5/6
f 1871/3/6 1868/3/6 1872/3/6
f 1861/5/6 1869/5/6 1873/5/6
f 1869/3/6 1870/3/6 1873/3/6
f 1873/3/6 1870/3/6 1874/3/6
f 1871/2/6 1872/2/6 1875/2/6
f 1872/5/6 1860/5/6 1876/5/6
f 1875/2/6 1872/2/6 1876/2/6
f 1876/5/6 1860/5/6 1877/5/6
f 1861/5/6 1873/5/6 1878/5/6
f 1873/2/6 1874/2/6 1879/2/6
f 1878/5/6 1873/5/6 1879/5/6
f 1879/2/6 1874/2/6 1880/2/6
f 1881/5/6 1882/5/6 1888/5/6
f 1888/5/6 1882/5/6 1889/5/6
f 1883/5/6 1884/5/6 1890/5/6
f 1890/5/6 1884/5/6 1891/5/6
f 1885/5/6 1886/5/6 1892/5/6
f 1892/5/6 1886/5/6 1893/5/6
f 1887/5/6 1888/5/6 1895/5/6
f 1895/5/6 1888/5/6 1896/5/6
f 1893/5/6 1894/5/6 1897/5/6
f 1897/5/6 1894/5/6 1898/5/6
f 1899/5/6 1900/5/6 1903/5/6
f 1903/5/6 1900/5/6 1904/5/6
f 1901/5/6 1902/5/6 1905/5/6
f 1905/5/6 1902/5/6 1906/5/6
f 1907/5/6 1908/5/6 1911/5/6
f 1911/5/6 1908/5/6 1912/5/6
f 1909/5/6 1910/5/6 1913/5/6
f 1913/5/6 1910/5/6 1914/5/6
f 1915/5/6 1916/5/6 1919/5/6
f 1919/5/6 1916/5/6 1920/5/6
f 1917/5/6 1918/5/6 1925/5/6
f 1925/5/6 1918/5/6 1926/5/6
f 1920/5/6 1921/5/6 1927/5/6
f 1927/5/6 1921/5/6 1928/5/6
f 1922/5/6 1923/5/6 1929/5/6
f 1929/5/6 1923/5/6 1930/5/6
f 1924/5/6 1925/5/6 1931/5/6
f 1931/5/6 1925/5/6 1932/5/6
f 1933/2/6 1934/2/6 1941/2/6
f 1934/3/6 1935/3/6 1942/3/6
f 1941/2/6 1934/2/6 1942/2/6
f 1935/2/6 1936/2/6 1943/2/6
f 1942/3/6 1935/3/6 1943/3/6
f 1943/2/6 1936/2/6 1944/2/6
f 1937/2/6 1938/2/6 1945/2/6
f 1938/3/6 1939/3/6 1946/3/6
f 1945/2/6 1938/2/6 1946/2/6
f 1939/2/6 1940/2/6 1947/2/6
f 1946/3/6 1939/3/6 1947/3/6
f 1947/2/6 1940/2/6 1948/2/6
f 1941/5/6 1942/5/6 1949/5/6
f 1943/5/6 1944/5/6 1949/5/6
f 1942/5/6 1943/5/6 1949/5/6
f 1949/5/6 1944/5/6 1950/5/6
f 1945/5/6 1946/5/6 1951/5/6
f 1947/5/6 1948/5/6 1951/5/6
f 1946/5/6 1947/5/6 1951/5/6
f 1951/5/6 1948/5/6 1952/5/6
f 1953/2/6 1954/2/6 1959/2/6
f 1954/5/6 1955/5/6 1960/5/6
f 1959/2/6 1954/2/6 1960/2/6
f 1959/3/6 1960/3/6 1961/3/6
f 1960/5/6 1955/5/6 1962/5/6
f 1961/3/6 1960/3/6 1962/3/6
f 1957/2/6 1958/2/6 1963/2/6
f 1956/5/6 1957/5/6 1963/5/6
f 1963/2/6 1958/2/6 1964/2/6
f 1956/5/6 1963/5/6 1965/5/6
f 1963/3/6 1964/3/6 1965/3/6
f 1965/3/6 1964/3/6 1966/3/6
f 1961/2/6 1962/2/6 1967/2/6
f 1962/5/6 1955/5/6 1968/5/6
f 1967/2/6 1962/2/6 1968/2/6
f 1968/5/6 1955/5/6 1969/5/6
f 1956/5/6 1965/5/6 1970/5/6
f 1965/2/6 1966/2/6 1971/2/6
f 1970/5/6 1965/5/6 1971/5/6
f 1971/2/6 1966/2/6 1972/2/6
f 1973/2/6 1974/2/6 1979/2/6
f 1974/5/6 1975/5/6 1980/5/6
f 1979/2/6 1974/2/6 1980/2/6
f 1979/3/6 1980/3/6 1981/3/6
f 1980/5/6 1975/5/6 1982/5/6
f 1981/3/6 1980/3/6 1982/3/6
f 1977/2/6 1978/2/6 1983/2/6
f 1976/5/6 1977/5/6 1983/5/6
f 1983/2/6 1978/2/6 1984/2/6
f 1976/5/6 1983/5/6 1985/5/6
f 1983/3/6 1984/3/6 1985/3/6
f 1985/3/6 1984/3/6 1986/3/6
f 1981/2/6 1982/2/6 1987/2/6
f 1982/5/6 1975/5/6 1988/5/6
f 1987/2/6 1982/2/6 1988/2/6
f 1988/5/6 1975/5/6 1989/5/6
f 1976/5/6 1985/5/6 1990/5/6
f 1985/2/6 1986/2/6 1991/2/6
f 1990/5/6 1985/5/6 1991/5/6
f 1991/2/6 1986/2/6 1992/2/6
f 1993/2/6 1994/2/6 1999/2/6
f 1994/5/6 1995/5/6 2000/5/6
f 1999/2/6 1994/2/6 2000/2/6
f 1999/3/6 2000/3/6 2001/3/6
f 2000/5/6 1995/5/6 2002/5/6
f 2001/3/6 2000/3/6 2002/3/6
f 1997/2/6 1998/2/6 2003/2/6
f 1996/5/6 1997/5/6 2003/5/6
f 2003/2/6 1998/2/6 2004/2/6
f 1996/5/6 2003/5/6 2005/5/6
f 2003/3/6 2004/3/6 2005/3/6
f 2005/3/6 2004/3/6 2006/3/6
f 2001/2/6 2002/2/6 2007/2/6
f 2002/5/6 1995/5/6 2008/5/6
f 2007/2/6 2002/2/6 2008/2/6
f 2008/5/6 1995/5/6 2009/5/6
f 1996/5/6 2005/5/6 2010/5/6
f 2005/2/6 2006/2/6 2011/2/6
f 2010/5/6 2005/5/6 2011/5/6
f 2011/2/6 2006/2/6 2012/2/6
f 2013/5/6 2014/5/6 2017/5/6
f 2017/5/6 2014/5/6 2018/5/6
f 2018/5/6 2014/5/6 2019/5/6
f 2019/5/6 2014/5/6 2020/5/6
f 2015/5/6 2016/5/6 2021/5/6
f 2021/5/6 2016/5/6 2022/5/6
f 2022/5/6 2016/5/6 2023/5/6
f 2023/5/6 2016/5/6 2024/5/6
f 2017/2/6 2018/2/6 2025/2/6
f 2018/3/6 2019/3/6 2026/3/6
f 2025/2/6 2018/2/6 2026/2/6
f 2019/2/6 2020/2/6 2027/2/6
f 2026/3/6 2019/3/6 2027/3/6
f 2027/2/6 2020/2/6 2028/2/6
f 2021/2/6 2022/2/6 2029/2/6
f 2022/3/6 2023/3/6 2030/3/6
f 2029/2/6 2022/2/6 2030/2/6
f 2023/2/6 2024/2/6 2031/2/6
f 2030/3/6 2023/3/6 2031/3/6
f 2031/2/6 2024/2/6 2032/2/6
