# MagicaVoxel @ Ephtracy

# group
o 

# material
mtllib model.mtl
usemtl palette

# normals
vn -1 0 0
vn 1 0 0
vn 0 0 1
vn 0 0 -1
vn 0 -1 0
vn 0 1 0

# texcoords
vt 0.193359 0.5
vt 0.451172 0.5
vt 0.455078 0.5
vt 0.505859 0.5
vt 0.513672 0.5

# verts
v -0.7 0.4 1.2
v -0.7 0.4 1.1
v -0.7 0.4 -1.1
v -0.7 0.4 -1.2
v -0.7 0.8 1.2
v -0.7 0.8 1.1
v -0.7 0.8 -1.1
v -0.7 0.8 -1.2
v 0.5 0 1
v 0.5 0 0.4
v 0.5 0 -0.4
v 0.5 0 -1
v 0.5 0.1 1.2
v 0.5 0.1 1
v 0.5 0.1 0.4
v 0.5 0.1 0.2
v 0.5 0.1 -0.2
v 0.5 0.1 -0.4
v 0.5 0.1 -1
v 0.5 0.1 -1.2
v 0.5 0.2 1.1
v 0.5 0.2 1
v 0.5 0.2 0.4
v 0.5 0.2 0.3
v 0.5 0.2 -0.3
v 0.5 0.2 -0.4
v 0.5 0.2 -1
v 0.5 0.2 -1.1
v 0.5 0.3 1.3
v 0.5 0.3 1.2
v 0.5 0.3 1.1
v 0.5 0.3 0.3
v 0.5 0.3 0.2
v 0.5 0.3 0.1
v 0.5 0.3 -0.0999999
v 0.5 0.3 -0.2
v 0.5 0.3 -0.3
v 0.5 0.3 -1.1
v 0.5 0.3 -1.2
v 0.5 0.3 -1.3
v 0.5 0.6 1.2
v 0.5 0.6 1.1
v 0.5 0.6 0.1
v 0.5 0.6 -0.0999999
v 0.5 0.6 -1.1
v 0.5 0.6 -1.2
v 0.5 0.8 1.3
v 0.5 0.8 1.2
v 0.5 0.8 1.1
v 0.5 0.8 0.3
v 0.5 0.8 0.2
v 0.5 0.8 -0.2
v 0.5 0.8 -0.3
v 0.5 0.8 -1.1
v 0.5 0.8 -1.2
v 0.5 0.8 -1.3
v 0.5 0.9 1.1
v 0.5 0.9 1
v 0.5 0.9 0.4
v 0.5 0.9 0.3
v 0.5 0.9 -0.3
v 0.5 0.9 -0.4
v 0.5 0.9 -1
v 0.5 0.9 -1.1
v 0.5 1 1.2
v 0.5 1 1
v 0.5 1 0.4
v 0.5 1 0.2
v 0.5 1 -0.2
v 0.5 1 -0.4
v 0.5 1 -1
v 0.5 1 -1.2
v 0.5 1.1 1
v 0.5 1.1 0.4
v 0.5 1.1 -0.4
v 0.5 1.1 -1
v -0.5 0.4 1.2
v -0.5 0.4 1.1
v -0.5 0.4 -1.1
v -0.5 0.4 -1.2
v -0.5 0.6 1.2
v -0.5 0.6 1.1
v -0.5 0.6 -1.1
v -0.5 0.6 -1.2
v 0.6 0.1 0.5
v 0.6 0.1 0.4
v 0.6 0.1 -0.4
v 0.6 0.1 -0.5
v 0.6 0.2 0.5
v 0.6 0.2 0.4
v 0.6 0.2 0.3
v 0.6 0.2 -0.3
v 0.6 0.2 -0.4
v 0.6 0.2 -0.5
v 0.6 0.3 1.2
v 0.6 0.3 1.1
v 0.6 0.3 0.4
v 0.6 0.3 0.3
v 0.6 0.3 0.2
v 0.6 0.3 -0.2
v 0.6 0.3 -0.3
v 0.6 0.3 -0.4
v 0.6 0.3 -1.1
v 0.6 0.3 -1.2
v 0.6 0.6 0.4
v 0.6 0.6 0.3
v 0.6 0.6 -0.3
v 0.6 0.6 -0.4
v 0.6 0.7 1.1
v 0.6 0.7 1
v 0.6 0.7 -1
v 0.6 0.7 -1.1
v 0.6 0.8 1.2
v 0.6 0.8 1.1
v 0.6 0.8 0.8
v 0.6 0.8 0.6
v 0.6 0.8 0.3
v 0.6 0.8 0.2
v 0.6 0.8 -0.2
v 0.6 0.8 -0.3
v 0.6 0.8 -0.6
v 0.6 0.8 -0.8
v 0.6 0.8 -1.1
v 0.6 0.8 -1.2
v 0.6 0.9 1.1
v 0.6 0.9 1
v 0.6 0.9 0.9
v 0.6 0.9 0.8
v 0.6 0.9 0.6
v 0.6 0.9 0.5
v 0.6 0.9 0.4
v 0.6 0.9 0.3
v 0.6 0.9 -0.3
v 0.6 0.9 -0.4
v 0.6 0.9 -0.5
v 0.6 0.9 -0.6
v 0.6 0.9 -0.8
v 0.6 0.9 -0.9
v 0.6 0.9 -1
v 0.6 0.9 -1.1
v 0.6 1 0.9
v 0.6 1 0.5
v 0.6 1 -0.5
v 0.6 1 -0.9
v 0.7 0 1
v 0.7 0 0.4
v 0.7 0 -0.4
v 0.7 0 -1
v 0.7 0.1 1.2
v 0.7 0.1 1
v 0.7 0.1 0.5
v 0.7 0.1 0.4
v 0.7 0.1 0.2
v 0.7 0.1 -0.2
v 0.7 0.1 -0.4
v 0.7 0.1 -0.5
v 0.7 0.1 -1
v 0.7 0.1 -1.2
v 0.7 0.2 1.1
v 0.7 0.2 1
v 0.7 0.2 0.8
v 0.7 0.2 0.5
v 0.7 0.2 0.4
v 0.7 0.2 0.3
v 0.7 0.2 -0.3
v 0.7 0.2 -0.4
v 0.7 0.2 -0.5
v 0.7 0.2 -0.8
v 0.7 0.2 -1
v 0.7 0.2 -1.1
v 0.7 0.3 1.3
v 0.7 0.3 1.2
v 0.7 0.3 1.1
v 0.7 0.3 0.9
v 0.7 0.3 0.8
v 0.7 0.3 0.7
v 0.7 0.3 0.4
v 0.7 0.3 0.3
v 0.7 0.3 0.2
v 0.7 0.3 0.1
v 0.7 0.3 -0.0999999
v 0.7 0.3 -0.2
v 0.7 0.3 -0.3
v 0.7 0.3 -0.4
v 0.7 0.3 -0.7
v 0.7 0.3 -0.8
v 0.7 0.3 -0.9
v 0.7 0.3 -1.1
v 0.7 0.3 -1.2
v 0.7 0.3 -1.3
v 0.7 0.4 1
v 0.7 0.4 0.9
v 0.7 0.4 0.8
v 0.7 0.4 0.7
v 0.7 0.4 0.4
v 0.7 0.4 -0.4
v 0.7 0.4 -0.7
v 0.7 0.4 -0.8
v 0.7 0.4 -0.9
v 0.7 0.4 -1
v 0.7 0.5 0.8
v 0.7 0.5 0.7
v 0.7 0.5 0.5
v 0.7 0.5 0.4
v 0.7 0.5 -0.4
v 0.7 0.5 -0.5
v 0.7 0.5 -0.7
v 0.7 0.5 -0.8
v 0.7 0.6 0.8
v 0.7 0.6 0.7
v 0.7 0.6 0.6
v 0.7 0.6 0.5
v 0.7 0.6 0.4
v 0.7 0.6 0.3
v 0.7 0.6 0.1
v 0.7 0.6 -0.0999999
v 0.7 0.6 -0.3
v 0.7 0.6 -0.4
v 0.7 0.6 -0.5
v 0.7 0.6 -0.6
v 0.7 0.6 -0.7
v 0.7 0.6 -0.8
v 0.7 0.7 1.1
v 0.7 0.7 1
v 0.7 0.7 0.8
v 0.7 0.7 0.7
v 0.7 0.7 0.6
v 0.7 0.7 0.5
v 0.7 0.7 -0.5
v 0.7 0.7 -0.6
v 0.7 0.7 -0.7
v 0.7 0.7 -0.8
v 0.7 0.7 -1
v 0.7 0.7 -1.1
v 0.7 0.8 1.3
v 0.7 0.8 1.2
v 0.7 0.8 1.1
v 0.7 0.8 0.8
v 0.7 0.8 0.6
v 0.7 0.8 0.3
v 0.7 0.8 0.2
v 0.7 0.8 -0.2
v 0.7 0.8 -0.3
v 0.7 0.8 -0.6
v 0.7 0.8 -0.8
v 0.7 0.8 -1.1
v 0.7 0.8 -1.2
v 0.7 0.8 -1.3
v 0.7 0.9 1.1
v 0.7 0.9 1
v 0.7 0.9 0.9
v 0.7 0.9 0.8
v 0.7 0.9 0.6
v 0.7 0.9 0.5
v 0.7 0.9 0.4
v 0.7 0.9 0.3
v 0.7 0.9 -0.3
v 0.7 0.9 -0.4
v 0.7 0.9 -0.5
v 0.7 0.9 -0.6
v 0.7 0.9 -0.8
v 0.7 0.9 -0.9
v 0.7 0.9 -1
v 0.7 0.9 -1.1
v 0.7 1 1.2
v 0.7 1 1
v 0.7 1 0.9
v 0.7 1 0.5
v 0.7 1 0.4
v 0.7 1 0.2
v 0.7 1 -0.2
v 0.7 1 -0.4
v 0.7 1 -0.5
v 0.7 1 -0.9
v 0.7 1 -1
v 0.7 1 -1.2
v 0.7 1.1 1
v 0.7 1.1 0.4
v 0.7 1.1 -0.4
v 0.7 1.1 -1
v 0.5 0.3 1.3
v 0.5 0.8 1.3
v 0.7 0.3 1.3
v 0.7 0.8 1.3
v -0.7 0.4 1.2
v -0.7 0.8 1.2
v -0.5 0.4 1.2
v -0.5 0.6 1.2
v 0.5 0.1 1.2
v 0.5 0.3 1.2
v 0.5 0.6 1.2
v 0.5 0.8 1.2
v 0.5 1 1.2
v 0.7 0.1 1.2
v 0.7 0.3 1.2
v 0.7 0.8 1.2
v 0.7 1 1.2
v 0.6 0.3 1.1
v 0.6 0.7 1.1
v 0.7 0.3 1.1
v 0.7 0.7 1.1
v 0.5 0 1
v 0.5 0.1 1
v 0.5 1 1
v 0.5 1.1 1
v 0.6 0.7 1
v 0.6 0.9 1
v 0.7 0 1
v 0.7 0.1 1
v 0.7 0.7 1
v 0.7 0.9 1
v 0.7 1 1
v 0.7 1.1 1
v 0.6 0.8 0.6
v 0.6 0.9 0.6
v 0.7 0.8 0.6
v 0.7 0.9 0.6
v 0.6 0.9 0.5
v 0.6 1 0.5
v 0.7 0.9 0.5
v 0.7 1 0.5
v 0.6 0.1 0.4
v 0.6 0.2 0.4
v 0.7 0.1 0.4
v 0.7 0.2 0.4
v 0.6 0.2 0.3
v 0.6 0.3 0.3
v 0.6 0.8 0.3
v 0.6 0.9 0.3
v 0.7 0.2 0.3
v 0.7 0.3 0.3
v 0.7 0.8 0.3
v 0.7 0.9 0.3
v 0.6 0.3 0.2
v 0.6 0.8 0.2
v 0.7 0.3 0.2
v 0.7 0.8 0.2
v 0.5 0.3 -0.0999999
v 0.5 0.6 -0.0999999
v 0.7 0.3 -0.0999999
v 0.7 0.6 -0.0999999
v 0.5 0.1 -0.2
v 0.5 0.3 -0.2
v 0.5 0.8 -0.2
v 0.5 1 -0.2
v 0.7 0.1 -0.2
v 0.7 0.3 -0.2
v 0.7 0.8 -0.2
v 0.7 1 -0.2
v 0.6 0.3 -0.3
v 0.6 0.6 -0.3
v 0.7 0.3 -0.3
v 0.7 0.6 -0.3
v 0.5 0 -0.4
v 0.5 0.1 -0.4
v 0.5 1 -0.4
v 0.5 1.1 -0.4
v 0.6 0.2 -0.4
v 0.6 0.3 -0.4
v 0.6 0.6 -0.4
v 0.6 0.9 -0.4
v 0.7 0 -0.4
v 0.7 0.1 -0.4
v 0.7 0.2 -0.4
v 0.7 0.3 -0.4
v 0.7 0.6 -0.4
v 0.7 0.9 -0.4
v 0.7 1 -0.4
v 0.7 1.1 -0.4
v 0.6 0.1 -0.5
v 0.6 0.2 -0.5
v 0.7 0.1 -0.5
v 0.7 0.2 -0.5
v 0.6 0.8 -0.8
v 0.6 0.9 -0.8
v 0.7 0.8 -0.8
v 0.7 0.9 -0.8
v 0.6 0.9 -0.9
v 0.6 1 -0.9
v 0.7 0.9 -0.9
v 0.7 1 -0.9
v -0.7 0.4 -1.1
v -0.7 0.8 -1.1
v -0.5 0.4 -1.1
v -0.5 0.6 -1.1
v 0.5 0.6 -1.1
v 0.5 0.8 -1.1
v 0.6 0.8 -1.1
v 0.6 0.9 -1.1
v 0.7 0.8 -1.1
v 0.7 0.9 -1.1
v 0.6 0.3 -1.2
v 0.6 0.8 -1.2
v 0.7 0.3 -1.2
v 0.7 0.8 -1.2
v 0.6 0.3 1.2
v 0.6 0.8 1.2
v 0.7 0.3 1.2
v 0.7 0.8 1.2
v -0.7 0.4 1.1
v -0.7 0.8 1.1
v -0.5 0.4 1.1
v -0.5 0.6 1.1
v 0.5 0.6 1.1
v 0.5 0.8 1.1
v 0.6 0.8 1.1
v 0.6 0.9 1.1
v 0.7 0.8 1.1
v 0.7 0.9 1.1
v 0.6 0.9 0.9
v 0.6 1 0.9
v 0.7 0.9 0.9
v 0.7 1 0.9
v 0.6 0.8 0.8
v 0.6 0.9 0.8
v 0.7 0.8 0.8
v 0.7 0.9 0.8
v 0.6 0.1 0.5
v 0.6 0.2 0.5
v 0.7 0.1 0.5
v 0.7 0.2 0.5
v 0.5 0 0.4
v 0.5 0.1 0.4
v 0.5 1 0.4
v 0.5 1.1 0.4
v 0.6 0.2 0.4
v 0.6 0.3 0.4
v 0.6 0.6 0.4
v 0.6 0.9 0.4
v 0.7 0 0.4
v 0.7 0.1 0.4
v 0.7 0.2 0.4
v 0.7 0.3 0.4
v 0.7 0.6 0.4
v 0.7 0.9 0.4
v 0.7 1 0.4
v 0.7 1.1 0.4
v 0.6 0.3 0.3
v 0.6 0.6 0.3
v 0.7 0.3 0.3
v 0.7 0.6 0.3
v 0.5 0.1 0.2
v 0.5 0.3 0.2
v 0.5 0.8 0.2
v 0.5 1 0.2
v 0.7 0.1 0.2
v 0.7 0.3 0.2
v 0.7 0.8 0.2
v 0.7 1 0.2
v 0.5 0.3 0.1
v 0.5 0.6 0.1
v 0.7 0.3 0.1
v 0.7 0.6 0.1
v 0.6 0.3 -0.2
v 0.6 0.8 -0.2
v 0.7 0.3 -0.2
v 0.7 0.8 -0.2
v 0.6 0.2 -0.3
v 0.6 0.3 -0.3
v 0.6 0.8 -0.3
v 0.6 0.9 -0.3
v 0.7 0.2 -0.3
v 0.7 0.3 -0.3
v 0.7 0.8 -0.3
v 0.7 0.9 -0.3
v 0.6 0.1 -0.4
v 0.6 0.2 -0.4
v 0.7 0.1 -0.4
v 0.7 0.2 -0.4
v 0.6 0.9 -0.5
v 0.6 1 -0.5
v 0.7 0.9 -0.5
v 0.7 1 -0.5
v 0.6 0.8 -0.6
v 0.6 0.9 -0.6
v 0.7 0.8 -0.6
v 0.7 0.9 -0.6
v 0.5 0 -1
v 0.5 0.1 -1
v 0.5 1 -1
v 0.5 1.1 -1
v 0.6 0.7 -1
v 0.6 0.9 -1
v 0.7 0 -1
v 0.7 0.1 -1
v 0.7 0.7 -1
v 0.7 0.9 -1
v 0.7 1 -1
v 0.7 1.1 -1
v 0.6 0.3 -1.1
v 0.6 0.7 -1.1
v 0.7 0.3 -1.1
v 0.7 0.7 -1.1
v -0.7 0.4 -1.2
v -0.7 0.8 -1.2
v -0.5 0.4 -1.2
v -0.5 0.6 -1.2
v 0.5 0.1 -1.2
v 0.5 0.3 -1.2
v 0.5 0.6 -1.2
v 0.5 0.8 -1.2
v 0.5 1 -1.2
v 0.7 0.1 -1.2
v 0.7 0.3 -1.2
v 0.7 0.8 -1.2
v 0.7 1 -1.2
v 0.5 0.3 -1.3
v 0.5 0.8 -1.3
v 0.7 0.3 -1.3
v 0.7 0.8 -1.3
v 0.5 0 1
v 0.7 0 1
v 0.5 0 0.4
v 0.7 0 0.4
v 0.5 0 -0.4
v 0.7 0 -0.4
v 0.5 0 -1
v 0.7 0 -1
v 0.5 0.1 1.2
v 0.7 0.1 1.2
v 0.5 0.1 1
v 0.7 0.1 1
v 0.5 0.1 0.4
v 0.7 0.1 0.4
v 0.5 0.1 0.2
v 0.7 0.1 0.2
v 0.5 0.1 -0.2
v 0.7 0.1 -0.2
v 0.5 0.1 -0.4
v 0.7 0.1 -0.4
v 0.5 0.1 -1
v 0.7 0.1 -1
v 0.5 0.1 -1.2
v 0.7 0.1 -1.2
v 0.6 0.2 0.5
v 0.7 0.2 0.5
v 0.6 0.2 0.4
v 0.7 0.2 0.4
v 0.6 0.2 -0.4
v 0.7 0.2 -0.4
v 0.6 0.2 -0.5
v 0.7 0.2 -0.5
v 0.5 0.3 1.3
v 0.7 0.3 1.3
v 0.5 0.3 1.2
v 0.7 0.3 1.2
v 0.6 0.3 0.4
v 0.7 0.3 0.4
v 0.6 0.3 0.3
v 0.7 0.3 0.3
v 0.5 0.3 0.2
v 0.7 0.3 0.2
v 0.5 0.3 0.1
v 0.7 0.3 0.1
v 0.5 0.3 -0.0999999
v 0.7 0.3 -0.0999999
v 0.5 0.3 -0.2
v 0.7 0.3 -0.2
v 0.6 0.3 -0.3
v 0.7 0.3 -0.3
v 0.6 0.3 -0.4
v 0.7 0.3 -0.4
v 0.5 0.3 -1.2
v 0.7 0.3 -1.2
v 0.5 0.3 -1.3
v 0.7 0.3 -1.3
v -0.7 0.4 1.2
v -0.5 0.4 1.2
v -0.7 0.4 1.1
v -0.5 0.4 1.1
v -0.7 0.4 -1.1
v -0.5 0.4 -1.1
v -0.7 0.4 -1.2
v -0.5 0.4 -1.2
v -0.5 0.6 1.2
v 0.5 0.6 1.2
v -0.5 0.6 1.1
v 0.5 0.6 1.1
v 0.5 0.6 0.1
v 0.7 0.6 0.1
v 0.5 0.6 -0.0999999
v 0.7 0.6 -0.0999999
v -0.5 0.6 -1.1
v 0.5 0.6 -1.1
v -0.5 0.6 -1.2
v 0.5 0.6 -1.2
v 0.6 0.8 1.2
v 0.7 0.8 1.2
v 0.6 0.8 1.1
v 0.7 0.8 1.1
v 0.6 0.8 0.3
v 0.7 0.8 0.3
v 0.6 0.8 0.2
v 0.7 0.8 0.2
v 0.6 0.8 -0.2
v 0.7 0.8 -0.2
v 0.6 0.8 -0.3
v 0.7 0.8 -0.3
v 0.6 0.8 -1.1
v 0.7 0.8 -1.1
v 0.6 0.8 -1.2
v 0.7 0.8 -1.2
v 0.6 0.9 1.1
v 0.7 0.9 1.1
v 0.6 0.9 1
v 0.7 0.9 1
v 0.6 0.9 0.4
v 0.7 0.9 0.4
v 0.6 0.9 0.3
v 0.7 0.9 0.3
v 0.6 0.9 -0.3
v 0.7 0.9 -0.3
v 0.6 0.9 -0.4
v 0.7 0.9 -0.4
v 0.6 0.9 -1
v 0.7 0.9 -1
v 0.6 0.9 -1.1
v 0.7 0.9 -1.1
v 0.6 1 0.9
v 0.7 1 0.9
v 0.6 1 0.5
v 0.7 1 0.5
v 0.6 1 -0.5
v 0.7 1 -0.5
v 0.6 1 -0.9
v 0.7 1 -0.9
v 0.6 0.1 0.5
v 0.7 0.1 0.5
v 0.6 0.1 0.4
v 0.7 0.1 0.4
v 0.6 0.1 -0.4
v 0.7 0.1 -0.4
v 0.6 0.1 -0.5
v 0.7 0.1 -0.5
v 0.6 0.2 0.4
v 0.7 0.2 0.4
v 0.6 0.2 0.3
v 0.7 0.2 0.3
v 0.6 0.2 -0.3
v 0.7 0.2 -0.3
v 0.6 0.2 -0.4
v 0.7 0.2 -0.4
v 0.6 0.3 1.2
v 0.7 0.3 1.2
v 0.6 0.3 1.1
v 0.7 0.3 1.1
v 0.6 0.3 0.3
v 0.7 0.3 0.3
v 0.6 0.3 0.2
v 0.7 0.3 0.2
v 0.6 0.3 -0.2
v 0.7 0.3 -0.2
v 0.6 0.3 -0.3
v 0.7 0.3 -0.3
v 0.6 0.3 -1.1
v 0.7 0.3 -1.1
v 0.6 0.3 -1.2
v 0.7 0.3 -1.2
v 0.6 0.6 0.4
v 0.7 0.6 0.4
v 0.6 0.6 0.3
v 0.7 0.6 0.3
v 0.6 0.6 -0.3
v 0.7 0.6 -0.3
v 0.6 0.6 -0.4
v 0.7 0.6 -0.4
v 0.6 0.7 1.1
v 0.7 0.7 1.1
v 0.6 0.7 1
v 0.7 0.7 1
v 0.6 0.7 -1
v 0.7 0.7 -1
v 0.6 0.7 -1.1
v 0.7 0.7 -1.1
v 0.5 0.8 1.3
v 0.7 0.8 1.3
v -0.7 0.8 1.2
v 0.5 0.8 1.2
v 0.7 0.8 1.2
v -0.7 0.8 1.1
v 0.5 0.8 1.1
v 0.6 0.8 0.8
v 0.7 0.8 0.8
v 0.6 0.8 0.6
v 0.7 0.8 0.6
v 0.5 0.8 0.2
v 0.7 0.8 0.2
v 0.5 0.8 -0.2
v 0.7 0.8 -0.2
v 0.6 0.8 -0.6
v 0.7 0.8 -0.6
v 0.6 0.8 -0.8
v 0.7 0.8 -0.8
v -0.7 0.8 -1.1
v 0.5 0.8 -1.1
v -0.7 0.8 -1.2
v 0.5 0.8 -1.2
v 0.7 0.8 -1.2
v 0.5 0.8 -1.3
v 0.7 0.8 -1.3
v 0.6 0.9 0.9
v 0.7 0.9 0.9
v 0.6 0.9 0.8
v 0.7 0.9 0.8
v 0.6 0.9 0.6
v 0.7 0.9 0.6
v 0.6 0.9 0.5
v 0.7 0.9 0.5
v 0.6 0.9 -0.5
v 0.7 0.9 -0.5
v 0.6 0.9 -0.6
v 0.7 0.9 -0.6
v 0.6 0.9 -0.8
v 0.7 0.9 -0.8
v 0.6 0.9 -0.9
v 0.7 0.9 -0.9
v 0.5 1 1.2
v 0.7 1 1.2
v 0.5 1 1
v 0.7 1 1
v 0.5 1 0.4
v 0.7 1 0.4
v 0.5 1 0.2
v 0.7 1 0.2
v 0.5 1 -0.2
v 0.7 1 -0.2
v 0.5 1 -0.4
v 0.7 1 -0.4
v 0.5 1 -1
v 0.7 1 -1
v 0.5 1 -1.2
v 0.7 1 -1.2
v 0.5 1.1 1
v 0.7 1.1 1
v 0.5 1.1 0.4
v 0.7 1.1 0.4
v 0.5 1.1 -0.4
v 0.7 1.1 -0.4
v 0.5 1.1 -1
v 0.7 1.1 -1

# faces
f 5/5/1 2/5/1 1/5/1
f 6/5/1 2/5/1 5/5/1
f 7/5/1 4/5/1 3/5/1
f 8/5/1 4/5/1 7/5/1
f 14/5/1 10/5/1 9/5/1
f 15/5/1 10/5/1 14/5/1
f 18/5/1 12/5/1 11/5/1
f 19/5/1 12/5/1 18/5/1
f 21/5/1 14/5/1 13/5/1
f 22/4/1 15/4/1 14/4/1
f 22/5/1 14/5/1 21/5/1
f 23/5/1 16/5/1 15/5/1
f 23/4/1 15/4/1 22/4/1
f 24/5/1 16/5/1 23/5/1
f 25/5/1 18/5/1 17/5/1
f 26/4/1 19/4/1 18/4/1
f 26/5/1 18/5/1 25/5/1
f 27/5/1 20/5/1 19/5/1
f 27/4/1 19/4/1 26/4/1
f 28/5/1 20/5/1 27/5/1
f 30/5/1 21/5/1 13/5/1
f 31/4/1 22/4/1 21/4/1
f 31/4/1 23/4/1 22/4/1
f 31/5/1 21/5/1 30/5/1
f 31/4/1 24/4/1 23/4/1
f 32/5/1 16/5/1 24/5/1
f 32/4/1 24/4/1 31/4/1
f 33/5/1 16/5/1 32/5/1
f 36/5/1 25/5/1 17/5/1
f 37/4/1 26/4/1 25/4/1
f 37/4/1 28/4/1 27/4/1
f 37/5/1 25/5/1 36/5/1
f 37/4/1 27/4/1 26/4/1
f 38/5/1 20/5/1 28/5/1
f 38/4/1 28/4/1 37/4/1
f 39/5/1 20/5/1 38/5/1
f 41/5/1 30/5/1 29/5/1
f 41/4/1 31/4/1 30/4/1
f 41/4/1 33/4/1 32/4/1
f 41/4/1 32/4/1 31/4/1
f 42/4/1 33/4/1 41/4/1
f 43/5/1 34/5/1 33/5/1
f 44/5/1 36/5/1 35/5/1
f 45/4/1 37/4/1 36/4/1
f 45/4/1 39/4/1 38/4/1
f 45/4/1 38/4/1 37/4/1
f 46/5/1 40/5/1 39/5/1
f 46/4/1 39/4/1 45/4/1
f 47/5/1 41/5/1 29/5/1
f 48/5/1 41/5/1 47/5/1
f 49/4/1 33/4/1 42/4/1
f 50/4/1 33/4/1 49/4/1
f 51/5/1 43/5/1 33/5/1
f 51/4/1 33/4/1 50/4/1
f 51/5/1 44/5/1 43/5/1
f 52/4/1 45/4/1 36/4/1
f 52/5/1 44/5/1 51/5/1
f 52/5/1 36/5/1 44/5/1
f 53/4/1 45/4/1 52/4/1
f 54/4/1 45/4/1 53/4/1
f 55/5/1 40/5/1 46/5/1
f 56/5/1 40/5/1 55/5/1
f 57/4/1 50/4/1 49/4/1
f 57/5/1 49/5/1 48/5/1
f 58/4/1 50/4/1 57/4/1
f 59/4/1 50/4/1 58/4/1
f 60/5/1 51/5/1 50/5/1
f 60/4/1 50/4/1 59/4/1
f 61/4/1 54/4/1 53/4/1
f 61/5/1 53/5/1 52/5/1
f 62/4/1 54/4/1 61/4/1
f 63/4/1 54/4/1 62/4/1
f 64/5/1 55/5/1 54/5/1
f 64/4/1 54/4/1 63/4/1
f 65/5/1 57/5/1 48/5/1
f 65/5/1 58/5/1 57/5/1
f 66/4/1 59/4/1 58/4/1
f 66/5/1 58/5/1 65/5/1
f 67/5/1 60/5/1 59/5/1
f 67/4/1 59/4/1 66/4/1
f 68/5/1 51/5/1 60/5/1
f 68/5/1 60/5/1 67/5/1
f 69/5/1 61/5/1 52/5/1
f 69/5/1 62/5/1 61/5/1
f 70/4/1 63/4/1 62/4/1
f 70/5/1 62/5/1 69/5/1
f 71/5/1 64/5/1 63/5/1
f 71/4/1 63/4/1 70/4/1
f 72/5/1 55/5/1 64/5/1
f 72/5/1 64/5/1 71/5/1
f 73/5/1 67/5/1 66/5/1
f 74/5/1 67/5/1 73/5/1
f 75/5/1 71/5/1 70/5/1
f 76/5/1 71/5/1 75/5/1
f 77/5/2 78/5/2 81/5/2
f 81/5/2 78/5/2 82/5/2
f 79/5/2 80/5/2 83/5/2
f 83/5/2 80/5/2 84/5/2
f 85/4/2 86/4/2 89/4/2
f 89/4/2 86/4/2 90/4/2
f 87/4/2 88/4/2 93/4/2
f 93/4/2 88/4/2 94/4/2
f 90/4/2 91/4/2 97/4/2
f 97/4/2 91/4/2 98/4/2
f 92/4/2 93/4/2 101/4/2
f 101/4/2 93/4/2 102/4/2
f 98/4/2 99/4/2 106/4/2
f 100/4/2 101/4/2 107/4/2
f 95/4/2 96/4/2 109/4/2
f 103/4/2 104/4/2 112/4/2
f 109/4/2 110/4/2 113/4/2
f 95/4/2 109/4/2 113/4/2
f 113/4/2 110/4/2 114/4/2
f 105/4/2 106/4/2 117/4/2
f 106/4/2 99/4/2 117/4/2
f 117/4/2 99/4/2 118/4/2
f 107/4/2 108/4/2 119/4/2
f 100/4/2 107/4/2 119/4/2
f 119/4/2 108/4/2 120/4/2
f 111/4/2 112/4/2 123/4/2
f 112/4/2 104/4/2 123/4/2
f 123/4/2 104/4/2 124/4/2
f 114/4/2 110/4/2 125/4/2
f 125/4/2 110/4/2 126/4/2
f 115/4/2 116/4/2 128/4/2
f 128/4/2 116/4/2 129/4/2
f 105/4/2 117/4/2 131/4/2
f 131/4/2 117/4/2 132/4/2
f 120/4/2 108/4/2 133/4/2
f 133/4/2 108/4/2 134/4/2
f 121/4/2 122/4/2 136/4/2
f 136/4/2 122/4/2 137/4/2
f 111/4/2 123/4/2 139/4/2
f 139/4/2 123/4/2 140/4/2
f 129/4/2 130/4/2 141/4/2
f 127/4/2 128/4/2 141/4/2
f 128/4/2 129/4/2 141/4/2
f 141/4/2 130/4/2 142/4/2
f 137/4/2 138/4/2 143/4/2
f 136/4/2 137/4/2 143/4/2
f 135/4/2 136/4/2 143/4/2
f 143/4/2 138/4/2 144/4/2
f 145/5/2 146/5/2 150/5/2
f 150/5/2 146/5/2 151/5/2
f 151/5/2 146/5/2 152/5/2
f 147/5/2 148/5/2 155/5/2
f 155/5/2 148/5/2 156/5/2
f 156/5/2 148/5/2 157/5/2
f 149/5/2 150/5/2 159/5/2
f 150/2/2 151/2/2 160/2/2
f 159/5/2 150/5/2 160/5/2
f 160/2/2 151/2/2 161/2/2
f 161/2/2 151/2/2 162/2/2
f 152/5/2 153/5/2 163/5/2
f 163/5/2 153/5/2 164/5/2
f 154/5/2 155/5/2 165/5/2
f 165/5/2 155/5/2 166/5/2
f 156/2/2 157/2/2 167/2/2
f 167/2/2 157/2/2 168/2/2
f 157/5/2 158/5/2 169/5/2
f 168/2/2 157/2/2 169/2/2
f 169/5/2 158/5/2 170/5/2
f 149/5/2 159/5/2 172/5/2
f 159/2/2 160/2/2 173/2/2
f 160/2/2 161/2/2 173/2/2
f 172/5/2 159/5/2 173/5/2
f 173/2/2 161/2/2 174/2/2
f 161/3/2 162/3/2 175/3/2
f 174/2/2 161/2/2 175/2/2
f 162/3/2 163/3/2 175/3/2
f 175/3/2 163/3/2 176/3/2
f 176/3/2 163/3/2 177/3/2
f 164/5/2 153/5/2 178/5/2
f 178/5/2 153/5/2 179/5/2
f 154/5/2 165/5/2 182/5/2
f 182/5/2 165/5/2 183/5/2
f 167/3/2 168/3/2 184/3/2
f 166/3/2 167/3/2 184/3/2
f 184/3/2 168/3/2 185/3/2
f 168/2/2 169/2/2 186/2/2
f 185/3/2 168/3/2 186/3/2
f 169/2/2 170/2/2 186/2/2
f 186/2/2 170/2/2 187/2/2
f 170/5/2 158/5/2 188/5/2
f 187/2/2 170/2/2 188/2/2
f 188/5/2 158/5/2 189/5/2
f 173/2/2 174/2/2 191/2/2
f 174/3/2 175/3/2 192/3/2
f 191/2/2 174/2/2 192/2/2
f 175/3/2 176/3/2 192/3/2
f 192/3/2 176/3/2 193/3/2
f 176/1/2 177/1/2 194/1/2
f 193/3/2 176/3/2 194/3/2
f 177/3/2 178/3/2 195/3/2
f 194/1/2 177/1/2 195/1/2
f 184/1/2 185/1/2 196/1/2
f 183/3/2 184/3/2 196/3/2
f 186/3/2 187/3/2 197/3/2
f 196/1/2 185/1/2 197/1/2
f 185/3/2 186/3/2 197/3/2
f 197/3/2 187/3/2 198/3/2
f 187/2/2 188/2/2 199/2/2
f 198/3/2 187/3/2 199/3/2
f 199/2/2 188/2/2 200/2/2
f 192/3/2 193/3/2 201/3/2
f 191/3/2 192/3/2 201/3/2
f 193/1/2 194/1/2 201/1/2
f 194/3/2 195/3/2 202/3/2
f 201/1/2 194/1/2 202/1/2
f 202/3/2 195/3/2 203/3/2
f 195/3/2 178/3/2 204/3/2
f 203/3/2 195/3/2 204/3/2
f 183/3/2 196/3/2 205/3/2
f 196/3/2 197/3/2 205/3/2
f 205/3/2 197/3/2 206/3/2
f 197/1/2 198/1/2 207/1/2
f 206/3/2 197/3/2 207/3/2
f 199/3/2 200/3/2 208/3/2
f 207/1/2 198/1/2 208/1/2
f 198/3/2 199/3/2 208/3/2
f 202/3/2 203/3/2 209/3/2
f 191/3/2 201/3/2 209/3/2
f 201/3/2 202/3/2 209/3/2
f 209/3/2 203/3/2 210/3/2
f 210/3/2 203/3/2 211/3/2
f 203/1/2 204/1/2 212/1/2
f 211/3/2 203/3/2 212/3/2
f 204/3/2 178/3/2 213/3/2
f 212/1/2 204/1/2 213/1/2
f 213/3/2 178/3/2 214/3/2
f 179/5/2 180/5/2 215/5/2
f 181/5/2 182/5/2 216/5/2
f 183/3/2 205/3/2 217/3/2
f 205/1/2 206/1/2 218/1/2
f 217/3/2 205/3/2 218/3/2
f 206/3/2 207/3/2 219/3/2
f 218/1/2 206/1/2 219/1/2
f 207/3/2 208/3/2 219/3/2
f 219/3/2 208/3/2 220/3/2
f 220/3/2 208/3/2 221/3/2
f 208/3/2 200/3/2 222/3/2
f 221/3/2 208/3/2 222/3/2
f 173/2/2 191/2/2 223/2/2
f 191/3/2 209/3/2 224/3/2
f 223/2/2 191/2/2 224/2/2
f 209/1/2 210/1/2 225/1/2
f 224/3/2 209/3/2 225/3/2
f 210/3/2 211/3/2 226/3/2
f 225/1/2 210/1/2 226/1/2
f 211/1/2 212/1/2 227/1/2
f 226/3/2 211/3/2 227/3/2
f 212/3/2 213/3/2 228/3/2
f 227/1/2 212/1/2 228/1/2
f 219/1/2 220/1/2 229/1/2
f 218/3/2 219/3/2 229/3/2
f 220/3/2 221/3/2 230/3/2
f 229/1/2 220/1/2 230/1/2
f 221/1/2 222/1/2 231/1/2
f 230/3/2 221/3/2 231/3/2
f 222/3/2 200/3/2 232/3/2
f 231/1/2 222/1/2 232/1/2
f 200/2/2 188/2/2 233/2/2
f 232/3/2 200/3/2 233/3/2
f 233/2/2 188/2/2 234/2/2
f 171/5/2 172/5/2 235/5/2
f 235/5/2 172/5/2 236/5/2
f 225/3/2 226/3/2 238/3/2
f 224/3/2 225/3/2 238/3/2
f 226/3/2 227/3/2 238/3/2
f 227/3/2 228/3/2 238/3/2
f 238/3/2 228/3/2 239/3/2
f 179/5/2 215/5/2 241/5/2
f 215/5/2 216/5/2 241/5/2
f 216/5/2 182/5/2 242/5/2
f 241/5/2 216/5/2 242/5/2
f 231/3/2 232/3/2 244/3/2
f 230/3/2 231/3/2 244/3/2
f 229/3/2 230/3/2 244/3/2
f 232/3/2 233/3/2 244/3/2
f 244/3/2 233/3/2 245/3/2
f 189/5/2 190/5/2 247/5/2
f 247/5/2 190/5/2 248/5/2
f 236/5/2 237/5/2 249/5/2
f 224/3/2 238/3/2 250/3/2
f 250/3/2 238/3/2 251/3/2
f 251/3/2 238/3/2 252/3/2
f 239/3/2 228/3/2 253/3/2
f 228/3/2 213/3/2 254/3/2
f 253/3/2 228/3/2 254/3/2
f 254/3/2 213/3/2 255/3/2
f 240/5/2 241/5/2 256/5/2
f 242/5/2 243/5/2 257/5/2
f 218/3/2 229/3/2 258/3/2
f 229/3/2 244/3/2 258/3/2
f 258/3/2 244/3/2 259/3/2
f 259/3/2 244/3/2 260/3/2
f 245/3/2 233/3/2 261/3/2
f 261/3/2 233/3/2 262/3/2
f 262/3/2 233/3/2 263/3/2
f 246/5/2 247/5/2 264/5/2
f 236/5/2 249/5/2 265/5/2
f 249/5/2 250/5/2 265/5/2
f 250/3/2 251/3/2 266/3/2
f 265/5/2 250/5/2 266/5/2
f 266/3/2 251/3/2 267/3/2
f 254/3/2 255/3/2 268/3/2
f 255/5/2 256/5/2 269/5/2
f 268/3/2 255/3/2 269/3/2
f 256/5/2 241/5/2 270/5/2
f 269/5/2 256/5/2 270/5/2
f 242/5/2 257/5/2 271/5/2
f 257/5/2 258/5/2 271/5/2
f 258/3/2 259/3/2 272/3/2
f 271/5/2 258/5/2 272/5/2
f 272/3/2 259/3/2 273/3/2
f 262/3/2 263/3/2 274/3/2
f 263/5/2 264/5/2 275/5/2
f 274/3/2 263/3/2 275/3/2
f 264/5/2 247/5/2 276/5/2
f 275/5/2 264/5/2 276/5/2
f 267/5/2 268/5/2 277/5/2
f 266/5/2 267/5/2 277/5/2
f 268/5/2 269/5/2 277/5/2
f 277/5/2 269/5/2 278/5/2
f 273/5/2 274/5/2 279/5/2
f 272/5/2 273/5/2 279/5/2
f 274/5/2 275/5/2 279/5/2
f 279/5/2 275/5/2 280/5/2
f 283/5/3 282/5/3 281/5/3
f 284/5/3 282/5/3 283/5/3
f 287/5/3 286/5/3 285/5/3
f 288/5/3 286/5/3 287/5/3
f 291/5/3 286/5/3 288/5/3
f 292/5/3 286/5/3 291/5/3
f 294/5/3 290/5/3 289/5/3
f 295/5/3 290/5/3 294/5/3
f 296/5/3 293/5/3 292/5/3
f 297/5/3 293/5/3 296/5/3
f 300/2/3 299/2/3 298/2/3
f 301/2/3 299/2/3 300/2/3
f 308/5/3 303/5/3 302/5/3
f 309/5/3 303/5/3 308/5/3
f 310/3/3 307/3/3 306/3/3
f 311/3/3 307/3/3 310/3/3
f 312/5/3 305/5/3 304/5/3
f 313/5/3 305/5/3 312/5/3
f 316/3/3 315/3/3 314/3/3
f 317/3/3 315/3/3 316/3/3
f 320/3/3 319/3/3 318/3/3
f 321/3/3 319/3/3 320/3/3
f 324/5/3 323/5/3 322/5/3
f 325/5/3 323/5/3 324/5/3
f 330/5/3 327/5/3 326/5/3
f 331/5/3 327/5/3 330/5/3
f 332/5/3 329/5/3 328/5/3
f 333/5/3 329/5/3 332/5/3
f 336/5/3 335/5/3 334/5/3
f 337/5/3 335/5/3 336/5/3
f 340/5/3 339/5/3 338/5/3
f 341/5/3 339/5/3 340/5/3
f 346/5/3 343/5/3 342/5/3
f 347/5/3 343/5/3 346/5/3
f 348/5/3 345/5/3 344/5/3
f 349/5/3 345/5/3 348/5/3
f 352/3/3 351/3/3 350/3/3
f 353/3/3 351/3/3 352/3/3
f 362/5/3 355/5/3 354/5/3
f 363/5/3 355/5/3 362/5/3
f 364/3/3 359/3/3 358/3/3
f 365/3/3 359/3/3 364/3/3
f 366/3/3 361/3/3 360/3/3
f 367/3/3 361/3/3 366/3/3
f 368/5/3 357/5/3 356/5/3
f 369/5/3 357/5/3 368/5/3
f 372/2/3 371/2/3 370/2/3
f 373/2/3 371/2/3 372/2/3
f 376/3/3 375/3/3 374/3/3
f 377/3/3 375/3/3 376/3/3
f 380/3/3 379/3/3 378/3/3
f 381/3/3 379/3/3 380/3/3
f 384/5/3 383/5/3 382/5/3
f 385/5/3 383/5/3 384/5/3
f 386/5/3 383/5/3 385/5/3
f 387/5/3 383/5/3 386/5/3
f 390/5/3 389/5/3 388/5/3
f 391/5/3 389/5/3 390/5/3
f 394/5/3 393/5/3 392/5/3
f 395/5/3 393/5/3 394/5/3
f 396/5/4 397/5/4 398/5/4
f 398/5/4 397/5/4 399/5/4
f 400/5/4 401/5/4 402/5/4
f 402/5/4 401/5/4 403/5/4
f 403/5/4 401/5/4 404/5/4
f 404/5/4 401/5/4 405/5/4
f 406/5/4 407/5/4 408/5/4
f 408/5/4 407/5/4 409/5/4
f 410/3/4 411/3/4 412/3/4
f 412/3/4 411/3/4 413/3/4
f 414/3/4 415/3/4 416/3/4
f 416/3/4 415/3/4 417/3/4
f 418/2/4 419/2/4 420/2/4
f 420/2/4 419/2/4 421/2/4
f 422/5/4 423/5/4 430/5/4
f 430/5/4 423/5/4 431/5/4
f 426/3/4 427/3/4 432/3/4
f 432/3/4 427/3/4 433/3/4
f 428/3/4 429/3/4 434/3/4
f 434/3/4 429/3/4 435/3/4
f 424/5/4 425/5/4 436/5/4
f 436/5/4 425/5/4 437/5/4
f 438/3/4 439/3/4 440/3/4
f 440/3/4 439/3/4 441/3/4
f 442/5/4 443/5/4 446/5/4
f 446/5/4 443/5/4 447/5/4
f 444/5/4 445/5/4 448/5/4
f 448/5/4 445/5/4 449/5/4
f 450/5/4 451/5/4 452/5/4
f 452/5/4 451/5/4 453/5/4
f 454/5/4 455/5/4 456/5/4
f 456/5/4 455/5/4 457/5/4
f 458/5/4 459/5/4 462/5/4
f 462/5/4 459/5/4 463/5/4
f 460/5/4 461/5/4 464/5/4
f 464/5/4 461/5/4 465/5/4
f 466/5/4 467/5/4 468/5/4
f 468/5/4 467/5/4 469/5/4
f 470/3/4 471/3/4 472/3/4
f 472/3/4 471/3/4 473/3/4
f 474/3/4 475/3/4 476/3/4
f 476/3/4 475/3/4 477/3/4
f 478/5/4 479/5/4 484/5/4
f 484/5/4 479/5/4 485/5/4
f 482/3/4 483/3/4 486/3/4
f 486/3/4 483/3/4 487/3/4
f 480/5/4 481/5/4 488/5/4
f 488/5/4 481/5/4 489/5/4
f 490/2/4 491/2/4 492/2/4
f 492/2/4 491/2/4 493/2/4
f 494/5/4 495/5/4 496/5/4
f 496/5/4 495/5/4 497/5/4
f 497/5/4 495/5/4 500/5/4
f 500/5/4 495/5/4 501/5/4
f 498/5/4 499/5/4 503/5/4
f 503/5/4 499/5/4 504/5/4
f 501/5/4 502/5/4 505/5/4
f 505/5/4 502/5/4 506/5/4
f 507/5/4 508/5/4 509/5/4
f 509/5/4 508/5/4 510/5/4
f 513/5/5 512/5/5 511/5/5
f 514/5/5 512/5/5 513/5/5
f 517/5/5 516/5/5 515/5/5
f 518/5/5 516/5/5 517/5/5
f 521/5/5 520/5/5 519/5/5
f 522/5/5 520/5/5 521/5/5
f 525/5/5 524/5/5 523/5/5
f 526/5/5 524/5/5 525/5/5
f 529/5/5 528/5/5 527/5/5
f 530/5/5 528/5/5 529/5/5
f 533/5/5 532/5/5 531/5/5
f 534/5/5 532/5/5 533/5/5
f 537/3/5 536/3/5 535/3/5
f 538/3/5 536/3/5 537/3/5
f 541/3/5 540/3/5 539/3/5
f 542/3/5 540/3/5 541/3/5
f 545/5/5 544/5/5 543/5/5
f 546/5/5 544/5/5 545/5/5
f 549/3/5 548/3/5 547/3/5
f 550/3/5 548/3/5 549/3/5
f 553/5/5 552/5/5 551/5/5
f 554/5/5 552/5/5 553/5/5
f 557/5/5 556/5/5 555/5/5
f 558/5/5 556/5/5 557/5/5
f 561/3/5 560/3/5 559/3/5
f 562/3/5 560/3/5 561/3/5
f 565/5/5 564/5/5 563/5/5
f 566/5/5 564/5/5 565/5/5
f 569/5/5 568/5/5 567/5/5
f 570/5/5 568/5/5 569/5/5
f 573/5/5 572/5/5 571/5/5
f 574/5/5 572/5/5 573/5/5
f 577/5/5 576/5/5 575/5/5
f 578/5/5 576/5/5 577/5/5
f 581/5/5 580/5/5 579/5/5
f 582/5/5 580/5/5 581/5/5
f 585/5/5 584/5/5 583/5/5
f 586/5/5 584/5/5 585/5/5
f 589/5/5 588/5/5 587/5/5
f 590/5/5 588/5/5 589/5/5
f 593/5/5 592/5/5 591/5/5
f 594/5/5 592/5/5 593/5/5
f 597/5/5 596/5/5 595/5/5
f 598/5/5 596/5/5 597/5/5
f 601/5/5 600/5/5 599/5/5
f 602/5/5 600/5/5 601/5/5
f 605/5/5 604/5/5 603/5/5
f 606/5/5 604/5/5 605/5/5
f 609/5/5 608/5/5 607/5/5
f 610/5/5 608/5/5 609/5/5
f 613/5/5 612/5/5 611/5/5
f 614/5/5 612/5/5 613/5/5
f 617/5/5 616/5/5 615/5/5
f 618/5/5 616/5/5 617/5/5
f 621/5/5 620/5/5 619/5/5
f 622/5/5 620/5/5 621/5/5
f 625/5/5 624/5/5 623/5/5
f 626/5/5 624/5/5 625/5/5
f 627/5/6 628/5/6 629/5/6
f 629/5/6 628/5/6 630/5/6
f 631/5/6 632/5/6 633/5/6
f 633/5/6 632/5/6 634/5/6
f 635/5/6 636/5/6 637/5/6
f 637/5/6 636/5/6 638/5/6
f 639/5/6 640/5/6 641/5/6
f 641/5/6 640/5/6 642/5/6
f 643/5/6 644/5/6 645/5/6
f 645/5/6 644/5/6 646/5/6
f 647/5/6 648/5/6 649/5/6
f 649/5/6 648/5/6 650/5/6
f 651/5/6 652/5/6 653/5/6
f 653/5/6 652/5/6 654/5/6
f 655/5/6 656/5/6 657/5/6
f 657/5/6 656/5/6 658/5/6
f 659/3/6 660/3/6 661/3/6
f 661/3/6 660/3/6 662/3/6
f 663/3/6 664/3/6 665/3/6
f 665/3/6 664/3/6 666/3/6
f 667/2/6 668/2/6 669/2/6
f 669/2/6 668/2/6 670/2/6
f 671/2/6 672/2/6 673/2/6
f 673/2/6 672/2/6 674/2/6
f 675/5/6 676/5/6 678/5/6
f 678/5/6 676/5/6 679/5/6
f 677/5/6 678/5/6 680/5/6
f 680/5/6 678/5/6 681/5/6
f 682/3/6 683/3/6 684/3/6
f 684/3/6 683/3/6 685/3/6
f 686/5/6 687/5/6 688/5/6
f 688/5/6 687/5/6 689/5/6
f 690/3/6 691/3/6 692/3/6
f 692/3/6 691/3/6 693/3/6
f 694/5/6 695/5/6 696/5/6
f 696/5/6 695/5/6 697/5/6
f 697/5/6 698/5/6 699/5/6
f 699/5/6 698/5/6 700/5/6
f 701/3/6 702/3/6 703/3/6
f 703/3/6 702/3/6 704/3/6
f 705/3/6 706/3/6 707/3/6
f 707/3/6 706/3/6 708/3/6
f 709/3/6 710/3/6 711/3/6
f 711/3/6 710/3/6 712/3/6
f 713/3/6 714/3/6 715/3/6
f 715/3/6 714/3/6 716/3/6
f 717/5/6 718/5/6 719/5/6
f 719/5/6 718/5/6 720/5/6
f 721/5/6 722/5/6 723/5/6
f 723/5/6 722/5/6 724/5/6
f 725/5/6 726/5/6 727/5/6
f 727/5/6 726/5/6 728/5/6
f 729/5/6 730/5/6 731/5/6
f 731/5/6 730/5/6 732/5/6
f 733/5/6 734/5/6 735/5/6
f 735/5/6 734/5/6 736/5/6
f 737/5/6 738/5/6 739/5/6
f 739/5/6 738/5/6 740/5/6
