# MagicaVoxel @ Ephtracy

# group
o 

# material
mtllib model.mtl
usemtl palette

# normals
vn 0 0 1
vn 0 0 -1
vn 1 0 0
vn -1 0 0
vn 0 -1 0
vn 0 1 0

# texcoords
vt 0.0292969 0.5
vt 0.349609 0.5
vt 0.353516 0.5
vt 0.568359 0.5
vt 0.572266 0.5

# verts
v 0.3 0 2.1
v -0.3 0 2.1
v 0.3 0.6 2.1
v -0.3 0.6 2.1
v 0.2 0.6 2
v -0.2 0.6 2
v 0.2 1.5 2
v -0.2 1.5 2
v 0.4 1 1.9
v 0.2 1 1.9
v -0.2 1 1.9
v -0.4 1 1.9
v 0.2 1.5 1.9
v -0.2 1.5 1.9
v 0.4 1.9 1.9
v -0.4 1.9 1.9
v 0.4 1.9 1.7
v -0.4 1.9 1.7
v 0.4 2.1 1.7
v -0.4 2.1 1.7
v 1 0.2 1.4
v -1 0.2 1.4
v 1 0.3 1.4
v -1 0.3 1.4
v 1 0.5 1.4
v 0.7 0.5 1.4
v 0.5 0.5 1.4
v 0.1 0.5 1.4
v -0.0999999 0.5 1.4
v -0.5 0.5 1.4
v -0.7 0.5 1.4
v -1 0.5 1.4
v 1 0.6 1.4
v 0.8 0.6 1.4
v 0.4 0.6 1.4
v 0.2 0.6 1.4
v -0.2 0.6 1.4
v -0.4 0.6 1.4
v -0.8 0.6 1.4
v -1 0.6 1.4
v 0.7 0.7 1.4
v 0.5 0.7 1.4
v 0.1 0.7 1.4
v -0.0999999 0.7 1.4
v -0.5 0.7 1.4
v -0.7 0.7 1.4
v 0.8 0.8 1.4
v 0.4 0.8 1.4
v 0.2 0.8 1.4
v -0.2 0.8 1.4
v -0.4 0.8 1.4
v -0.8 0.8 1.4
v 1 1 1.4
v -1 1 1.4
v 0.9 1 1.3
v -0.9 1 1.3
v 0.4 1.2 1.3
v -0.4 1.2 1.3
v 0.9 1.6 1.3
v 0.4 1.6 1.3
v -0.4 1.6 1.3
v -0.9 1.6 1.3
v 1.2 0.2 1.2
v 1 0.2 1.2
v -1 0.2 1.2
v -1.2 0.2 1.2
v 1.2 0.3 1.2
v 1 0.3 1.2
v -1 0.3 1.2
v -1.2 0.3 1.2
v 1 0.5 1.2
v -1 0.5 1.2
v 1.2 0.7 1.2
v 1 0.7 1.2
v -1 0.7 1.2
v -1.2 0.7 1.2
v 1.2 0.8 1.2
v 1 0.8 1.2
v -1 0.8 1.2
v -1.2 0.8 1.2
v 1.2 1 1.2
v 1 1 1.2
v -1 1 1.2
v -1.2 1 1.2
v 1.1 1 1.1
v 0.9 1 1.1
v -0.9 1 1.1
v -1.1 1 1.1
v 1.1 1.6 1.1
v 0.9 1.6 1.1
v 0.7 1.6 1.1
v 0.4 1.6 1.1
v -0.4 1.6 1.1
v -0.7 1.6 1.1
v -0.9 1.6 1.1
v -1.1 1.6 1.1
v 0.7 1.9 1.1
v 0.4 1.9 1.1
v -0.4 1.9 1.1
v -0.7 1.9 1.1
v 0.9 1.6 0.9
v 0.7 1.6 0.9
v 0.9 1.9 0.9
v 0.7 1.9 0.9
v -0.7 1.6 0.8
v -0.9 1.6 0.8
v -0.7 1.9 0.8
v -0.9 1.9 0.8
v 0.6 1.9 0.6
v 0.4 1.9 0.6
v -0.4 1.9 0.6
v -0.6 1.9 0.6
v 0.6 2.1 0.6
v 0.4 2.1 0.6
v -0.4 2.1 0.6
v -0.6 2.1 0.6
v 0.2 0.6 1.6
v -0.2 0.6 1.6
v 0.2 1 1.6
v -0.2 1 1.6
v 0.3 0 1.5
v -0.3 0 1.5
v 0.3 0.6 1.5
v -0.3 0.6 1.5
v 0.4 1 1.5
v -0.4 1 1.5
v 0.4 1.2 1.5
v -0.4 1.2 1.5
v 0.6 1.9 -0.6
v 0.4 1.9 -0.6
v -0.4 1.9 -0.6
v -0.6 1.9 -0.6
v 0.6 2.1 -0.6
v 0.4 2.1 -0.6
v -0.4 2.1 -0.6
v -0.6 2.1 -0.6
v -0.7 1.6 -0.8
v -0.9 1.6 -0.8
v 0.4 1.9 -0.8
v -0.4 1.9 -0.8
v -0.7 1.9 -0.8
v -0.9 1.9 -0.8
v 0.4 2.1 -0.8
v -0.4 2.1 -0.8
v 0.9 1.6 -0.9
v 0.7 1.6 -0.9
v 0.9 1.9 -0.9
v 0.7 1.9 -0.9
v 1.1 1 -1.1
v 0.9 1 -1.1
v -0.9 1 -1.1
v -1.1 1 -1.1
v 1.1 1.6 -1.1
v 0.9 1.6 -1.1
v 0.7 1.6 -1.1
v -0.7 1.6 -1.1
v -0.9 1.6 -1.1
v -1.1 1.6 -1.1
v 0.7 1.9 -1.1
v -0.7 1.9 -1.1
v 1.2 0.2 -1.2
v 1 0.2 -1.2
v -1 0.2 -1.2
v -1.2 0.2 -1.2
v 1.2 0.3 -1.2
v 1 0.3 -1.2
v -1 0.3 -1.2
v -1.2 0.3 -1.2
v 1 0.5 -1.2
v -1 0.5 -1.2
v 1.2 0.7 -1.2
v 1 0.7 -1.2
v -1 0.7 -1.2
v -1.2 0.7 -1.2
v 1.2 0.8 -1.2
v 1 0.8 -1.2
v -1 0.8 -1.2
v -1.2 0.8 -1.2
v 1.2 1 -1.2
v 1 1 -1.2
v -1 1 -1.2
v -1.2 1 -1.2
v 0.9 1 -1.3
v -0.9 1 -1.3
v 0.9 1.6 -1.3
v -0.9 1.6 -1.3
v 1 0.2 -1.4
v -1 0.2 -1.4
v 1 0.3 -1.4
v -1 0.3 -1.4
v 1 0.5 -1.4
v 0.7 0.5 -1.4
v 0.5 0.5 -1.4
v 0.1 0.5 -1.4
v -0.0999999 0.5 -1.4
v -0.5 0.5 -1.4
v -0.7 0.5 -1.4
v -1 0.5 -1.4
v 1 0.6 -1.4
v 0.8 0.6 -1.4
v 0.4 0.6 -1.4
v 0.2 0.6 -1.4
v -0.2 0.6 -1.4
v -0.4 0.6 -1.4
v -0.8 0.6 -1.4
v -1 0.6 -1.4
v 0.7 0.7 -1.4
v 0.5 0.7 -1.4
v 0.1 0.7 -1.4
v -0.0999999 0.7 -1.4
v -0.5 0.7 -1.4
v -0.7 0.7 -1.4
v 0.8 0.8 -1.4
v 0.4 0.8 -1.4
v 0.2 0.8 -1.4
v -0.2 0.8 -1.4
v -0.4 0.8 -1.4
v -0.8 0.8 -1.4
v 1 1 -1.4
v -1 1 -1.4
v 1.2 0.2 1.2
v 1.2 0.3 1.2
v 1.2 0.7 1.2
v 1.2 0.8 1.2
v 1.2 1 1.2
v 1.2 0.5 1.1
v 1.2 0.7 1.1
v 1.2 0.6 1
v 1.2 0.8 1
v 1.2 0.6 0.8
v 1.2 0.8 0.8
v 1.2 0.5 0.7
v 1.2 0.7 0.7
v 1.2 0.5 0.5
v 1.2 0.7 0.5
v 1.2 0.6 0.4
v 1.2 0.8 0.4
v 1.2 0.6 0.2
v 1.2 0.8 0.2
v 1.2 0.5 0.0999999
v 1.2 0.7 0.0999999
v 1.2 0.5 -0.0999999
v 1.2 0.7 -0.0999999
v 1.2 0.6 -0.2
v 1.2 0.8 -0.2
v 1.2 0.6 -0.4
v 1.2 0.8 -0.4
v 1.2 0.5 -0.5
v 1.2 0.7 -0.5
v 1.2 0.5 -0.7
v 1.2 0.7 -0.7
v 1.2 0.6 -0.8
v 1.2 0.8 -0.8
v 1.2 0.6 -1
v 1.2 0.8 -1
v 1.2 0.5 -1.1
v 1.2 0.7 -1.1
v 1.2 0.2 -1.2
v 1.2 0.3 -1.2
v 1.2 0.7 -1.2
v 1.2 0.8 -1.2
v 1.2 1 -1.2
v 1.1 1 1.1
v 1.1 1.6 1.1
v 1.1 1 -1.1
v 1.1 1.6 -1.1
v 1 0.2 1.4
v 1 0.3 1.4
v 1 0.5 1.4
v 1 0.6 1.4
v 1 1 1.4
v 1 0.6 1.3
v 1 0.8 1.3
v 1 0.2 1.2
v 1 0.3 1.2
v 1 0.5 1.2
v 1 0.7 1.2
v 1 0.8 1.2
v 1 1 1.2
v 1 0.2 -1.2
v 1 0.3 -1.2
v 1 0.5 -1.2
v 1 0.7 -1.2
v 1 0.8 -1.2
v 1 1 -1.2
v 1 0.6 -1.3
v 1 0.8 -1.3
v 1 0.2 -1.4
v 1 0.3 -1.4
v 1 0.5 -1.4
v 1 0.6 -1.4
v 1 1 -1.4
v 0.9 1 1.3
v 0.9 1.6 1.3
v 0.9 1 1.1
v 0.9 1.6 1.1
v 0.9 1.6 0.9
v 0.9 1.9 0.9
v 0.9 1.6 -0.9
v 0.9 1.9 -0.9
v 0.9 1 -1.1
v 0.9 1.6 -1.1
v 0.9 1 -1.3
v 0.9 1.6 -1.3
v 0.7 1.6 1.1
v 0.7 1.9 1.1
v 0.7 1.6 0.9
v 0.7 1.9 0.9
v 0.7 1.6 -0.9
v 0.7 1.9 -0.9
v 0.7 1.6 -1.1
v 0.7 1.9 -1.1
v 0.6 1.9 0.6
v 0.6 2.1 0.6
v 0.6 1.9 -0.6
v 0.6 2.1 -0.6
v 0.4 1 1.9
v 0.4 1.9 1.9
v 0.4 1.9 1.7
v 0.4 2.1 1.7
v 0.4 1 1.5
v 0.4 1.2 1.5
v 0.4 1.2 1.3
v 0.4 1.6 1.3
v 0.4 1.6 1.1
v 0.4 1.9 1.1
v 0.4 1.9 0.6
v 0.4 2.1 0.6
v 0.4 1.9 -0.6
v 0.4 2.1 -0.6
v 0.4 1.9 -0.8
v 0.4 2.1 -0.8
v 0.3 0 2.1
v 0.3 0.6 2.1
v 0.3 0 1.5
v 0.3 0.6 1.5
v 0.2 0.6 2
v 0.2 1.5 2
v 0.2 1 1.9
v 0.2 1.5 1.9
v 0.2 0.6 1.6
v 0.2 1 1.6
v -0.2 0.6 2
v -0.2 1.5 2
v -0.2 1 1.9
v -0.2 1.5 1.9
v -0.2 0.6 1.6
v -0.2 1 1.6
v -0.3 0 2.1
v -0.3 0.6 2.1
v -0.3 0 1.5
v -0.3 0.6 1.5
v -0.4 1 1.9
v -0.4 1.9 1.9
v -0.4 1.9 1.7
v -0.4 2.1 1.7
v -0.4 1 1.5
v -0.4 1.2 1.5
v -0.4 1.2 1.3
v -0.4 1.6 1.3
v -0.4 1.6 1.1
v -0.4 1.9 1.1
v -0.4 1.9 0.6
v -0.4 2.1 0.6
v -0.4 1.9 -0.6
v -0.4 2.1 -0.6
v -0.4 1.9 -0.8
v -0.4 2.1 -0.8
v -0.6 1.9 0.6
v -0.6 2.1 0.6
v -0.6 1.9 -0.6
v -0.6 2.1 -0.6
v -0.7 1.6 1.1
v -0.7 1.9 1.1
v -0.7 1.6 0.8
v -0.7 1.9 0.8
v -0.7 1.6 -0.8
v -0.7 1.9 -0.8
v -0.7 1.6 -1.1
v -0.7 1.9 -1.1
v -0.9 1 1.3
v -0.9 1.6 1.3
v -0.9 1 1.1
v -0.9 1.6 1.1
v -0.9 1.6 0.8
v -0.9 1.9 0.8
v -0.9 1.6 -0.8
v -0.9 1.9 -0.8
v -0.9 1 -1.1
v -0.9 1.6 -1.1
v -0.9 1 -1.3
v -0.9 1.6 -1.3
v -1 0.2 1.4
v -1 0.3 1.4
v -1 0.5 1.4
v -1 0.6 1.4
v -1 1 1.4
v -1 0.6 1.3
v -1 0.8 1.3
v -1 0.2 1.2
v -1 0.3 1.2
v -1 0.5 1.2
v -1 0.7 1.2
v -1 0.8 1.2
v -1 1 1.2
v -1 0.2 -1.2
v -1 0.3 -1.2
v -1 0.5 -1.2
v -1 0.7 -1.2
v -1 0.8 -1.2
v -1 1 -1.2
v -1 0.6 -1.3
v -1 0.8 -1.3
v -1 0.2 -1.4
v -1 0.3 -1.4
v -1 0.5 -1.4
v -1 0.6 -1.4
v -1 1 -1.4
v -1.1 1 1.1
v -1.1 1.6 1.1
v -1.1 1 -1.1
v -1.1 1.6 -1.1
v -1.2 0.2 1.2
v -1.2 0.3 1.2
v -1.2 0.7 1.2
v -1.2 0.8 1.2
v -1.2 1 1.2
v -1.2 0.5 1.1
v -1.2 0.7 1.1
v -1.2 0.6 1
v -1.2 0.8 1
v -1.2 0.6 0.8
v -1.2 0.8 0.8
v -1.2 0.5 0.7
v -1.2 0.7 0.7
v -1.2 0.5 0.5
v -1.2 0.7 0.5
v -1.2 0.6 0.4
v -1.2 0.8 0.4
v -1.2 0.6 0.2
v -1.2 0.8 0.2
v -1.2 0.5 0.0999999
v -1.2 0.7 0.0999999
v -1.2 0.5 -0.0999999
v -1.2 0.7 -0.0999999
v -1.2 0.6 -0.2
v -1.2 0.8 -0.2
v -1.2 0.6 -0.4
v -1.2 0.8 -0.4
v -1.2 0.5 -0.5
v -1.2 0.7 -0.5
v -1.2 0.5 -0.7
v -1.2 0.7 -0.7
v -1.2 0.6 -0.8
v -1.2 0.8 -0.8
v -1.2 0.6 -1
v -1.2 0.8 -1
v -1.2 0.5 -1.1
v -1.2 0.7 -1.1
v -1.2 0.2 -1.2
v -1.2 0.3 -1.2
v -1.2 0.7 -1.2
v -1.2 0.8 -1.2
v -1.2 1 -1.2
v 0.3 0 2.1
v 0.3 0 1.5
v -0.3 0 2.1
v -0.3 0 1.5
v 1.2 0.2 1.2
v 1.2 0.2 -1.2
v 1 0.2 1.4
v 1 0.2 1.2
v 1 0.2 -1.2
v 1 0.2 -1.4
v -1 0.2 1.4
v -1 0.2 1.2
v -1 0.2 -1.2
v -1 0.2 -1.4
v -1.2 0.2 1.2
v -1.2 0.2 -1.2
v 0.4 1 1.9
v 0.4 1 1.5
v 0.2 1 1.9
v 0.2 1 1.6
v -0.2 1 1.9
v -0.2 1 1.6
v -0.4 1 1.9
v -0.4 1 1.5
v 0.4 1.2 1.5
v 0.4 1.2 1.3
v -0.4 1.2 1.5
v -0.4 1.2 1.3
v 0.3 0.6 2.1
v 0.3 0.6 1.5
v 0.2 0.6 2
v 0.2 0.6 1.6
v -0.2 0.6 2
v -0.2 0.6 1.6
v -0.3 0.6 2.1
v -0.3 0.6 1.5
v 1.2 1 1.2
v 1.2 1 -1.2
v 1.1 1 1.1
v 1.1 1 -1.1
v 1 1 1.4
v 1 1 1.2
v 1 1 -1.2
v 1 1 -1.4
v 0.9 1 1.3
v 0.9 1 1.1
v 0.9 1 -1.1
v 0.9 1 -1.3
v -0.9 1 1.3
v -0.9 1 1.1
v -0.9 1 -1.1
v -0.9 1 -1.3
v -1 1 1.4
v -1 1 1.2
v -1 1 -1.2
v -1 1 -1.4
v -1.1 1 1.1
v -1.1 1 -1.1
v -1.2 1 1.2
v -1.2 1 -1.2
v 0.2 1.5 2
v 0.2 1.5 1.9
v -0.2 1.5 2
v -0.2 1.5 1.9
v 1.1 1.6 1.1
v 1.1 1.6 -1.1
v 0.9 1.6 1.3
v 0.9 1.6 1.1
v 0.9 1.6 0.9
v 0.9 1.6 -0.9
v 0.9 1.6 -1.1
v 0.9 1.6 -1.3
v 0.7 1.6 1.1
v 0.7 1.6 0.9
v 0.7 1.6 -0.9
v 0.7 1.6 -1.1
v 0.4 1.6 1.3
v 0.4 1.6 1.1
v -0.4 1.6 1.3
v -0.4 1.6 1.1
v -0.7 1.6 1.1
v -0.7 1.6 0.8
v -0.7 1.6 -0.8
v -0.7 1.6 -1.1
v -0.9 1.6 1.3
v -0.9 1.6 1.1
v -0.9 1.6 0.8
v -0.9 1.6 -0.8
v -0.9 1.6 -1.1
v -0.9 1.6 -1.3
v -1.1 1.6 1.1
v -1.1 1.6 -1.1
v 0.9 1.9 0.9
v 0.9 1.9 -0.9
v 0.7 1.9 1.1
v 0.7 1.9 0.9
v 0.7 1.9 -0.9
v 0.7 1.9 -1.1
v 0.6 1.9 0.6
v 0.6 1.9 -0.6
v 0.4 1.9 1.9
v 0.4 1.9 1.7
v 0.4 1.9 1.1
v 0.4 1.9 0.6
v 0.4 1.9 -0.6
v 0.4 1.9 -0.8
v -0.4 1.9 1.9
v -0.4 1.9 1.7
v -0.4 1.9 1.1
v -0.4 1.9 0.6
v -0.4 1.9 -0.6
v -0.4 1.9 -0.8
v -0.6 1.9 0.6
v -0.6 1.9 -0.6
v -0.7 1.9 1.1
v -0.7 1.9 0.8
v -0.7 1.9 -0.8
v -0.7 1.9 -1.1
v -0.9 1.9 0.8
v -0.9 1.9 -0.8
v 0.6 2.1 0.6
v 0.6 2.1 -0.6
v 0.4 2.1 1.7
v 0.4 2.1 0.6
v 0.4 2.1 -0.6
v 0.4 2.1 -0.8
v -0.4 2.1 1.7
v -0.4 2.1 0.6
v -0.4 2.1 -0.6
v -0.4 2.1 -0.8
v -0.6 2.1 0.6
v -0.6 2.1 -0.6

# faces
f 3/1/1 2/1/1 1/1/1
f 4/1/1 2/1/1 3/1/1
f 7/3/1 6/3/1 5/3/1
f 8/3/1 6/3/1 7/3/1
f 13/3/1 10/3/1 9/3/1
f 14/3/1 12/3/1 11/3/1
f 15/3/1 13/3/1 9/3/1
f 15/3/1 14/3/1 13/3/1
f 16/3/1 12/3/1 14/3/1
f 16/3/1 14/3/1 15/3/1
f 19/3/1 18/3/1 17/3/1
f 20/3/1 18/3/1 19/3/1
f 23/4/1 22/4/1 21/4/1
f 24/4/1 22/4/1 23/4/1
f 25/5/1 24/5/1 23/5/1
f 26/5/1 24/5/1 25/5/1
f 27/5/1 24/5/1 26/5/1
f 28/5/1 24/5/1 27/5/1
f 29/5/1 24/5/1 28/5/1
f 30/5/1 24/5/1 29/5/1
f 31/5/1 24/5/1 30/5/1
f 32/5/1 24/5/1 31/5/1
f 33/2/1 26/2/1 25/2/1
f 34/2/1 26/2/1 33/2/1
f 35/2/1 28/2/1 27/2/1
f 36/2/1 28/2/1 35/2/1
f 37/2/1 30/2/1 29/2/1
f 38/2/1 30/2/1 37/2/1
f 39/2/1 32/2/1 31/2/1
f 40/2/1 32/2/1 39/2/1
f 41/5/1 27/5/1 26/5/1
f 41/2/1 26/2/1 34/2/1
f 42/2/1 35/2/1 27/2/1
f 42/5/1 27/5/1 41/5/1
f 43/5/1 29/5/1 28/5/1
f 43/2/1 28/2/1 36/2/1
f 44/2/1 37/2/1 29/2/1
f 44/5/1 29/5/1 43/5/1
f 45/5/1 31/5/1 30/5/1
f 45/2/1 30/2/1 38/2/1
f 46/2/1 39/2/1 31/2/1
f 46/5/1 31/5/1 45/5/1
f 47/2/1 42/2/1 41/2/1
f 47/3/1 34/3/1 33/3/1
f 47/2/1 41/2/1 34/2/1
f 48/2/1 35/2/1 42/2/1
f 48/2/1 42/2/1 47/2/1
f 48/3/1 36/3/1 35/3/1
f 49/2/1 44/2/1 43/2/1
f 49/3/1 36/3/1 48/3/1
f 49/2/1 43/2/1 36/2/1
f 50/2/1 37/2/1 44/2/1
f 50/2/1 44/2/1 49/2/1
f 50/3/1 38/3/1 37/3/1
f 51/2/1 46/2/1 45/2/1
f 51/3/1 38/3/1 50/3/1
f 51/2/1 45/2/1 38/2/1
f 52/3/1 40/3/1 39/3/1
f 52/2/1 46/2/1 51/2/1
f 52/2/1 39/2/1 46/2/1
f 53/3/1 51/3/1 50/3/1
f 53/3/1 47/3/1 33/3/1
f 53/3/1 52/3/1 51/3/1
f 53/3/1 50/3/1 49/3/1
f 53/3/1 48/3/1 47/3/1
f 53/3/1 49/3/1 48/3/1
f 54/3/1 40/3/1 52/3/1
f 54/3/1 52/3/1 53/3/1
f 57/3/1 56/3/1 55/3/1
f 58/3/1 56/3/1 57/3/1
f 59/3/1 57/3/1 55/3/1
f 60/3/1 57/3/1 59/3/1
f 61/3/1 56/3/1 58/3/1
f 62/3/1 56/3/1 61/3/1
f 67/4/1 64/4/1 63/4/1
f 68/4/1 64/4/1 67/4/1
f 69/4/1 66/4/1 65/4/1
f 70/4/1 66/4/1 69/4/1
f 71/5/1 68/5/1 67/5/1
f 72/5/1 70/5/1 69/5/1
f 73/5/1 71/5/1 67/5/1
f 74/5/1 71/5/1 73/5/1
f 75/5/1 70/5/1 72/5/1
f 76/5/1 70/5/1 75/5/1
f 77/2/1 74/2/1 73/2/1
f 78/2/1 74/2/1 77/2/1
f 79/2/1 76/2/1 75/2/1
f 80/2/1 76/2/1 79/2/1
f 81/3/1 78/3/1 77/3/1
f 82/3/1 78/3/1 81/3/1
f 83/3/1 80/3/1 79/3/1
f 84/3/1 80/3/1 83/3/1
f 89/3/1 86/3/1 85/3/1
f 90/3/1 86/3/1 89/3/1
f 95/3/1 88/3/1 87/3/1
f 96/3/1 88/3/1 95/3/1
f 97/3/1 92/3/1 91/3/1
f 98/3/1 92/3/1 97/3/1
f 99/3/1 94/3/1 93/3/1
f 100/3/1 94/3/1 99/3/1
f 103/3/1 102/3/1 101/3/1
f 104/3/1 102/3/1 103/3/1
f 107/3/1 106/3/1 105/3/1
f 108/3/1 106/3/1 107/3/1
f 113/3/1 110/3/1 109/3/1
f 114/3/1 110/3/1 113/3/1
f 115/3/1 112/3/1 111/3/1
f 116/3/1 112/3/1 115/3/1
f 117/3/2 118/3/2 119/3/2
f 119/3/2 118/3/2 120/3/2
f 121/1/2 122/1/2 123/1/2
f 123/1/2 122/1/2 124/1/2
f 125/3/2 126/3/2 127/3/2
f 127/3/2 126/3/2 128/3/2
f 129/3/2 130/3/2 133/3/2
f 133/3/2 130/3/2 134/3/2
f 131/3/2 132/3/2 135/3/2
f 135/3/2 132/3/2 136/3/2
f 137/3/2 138/3/2 141/3/2
f 141/3/2 138/3/2 142/3/2
f 139/3/2 140/3/2 143/3/2
f 143/3/2 140/3/2 144/3/2
f 145/3/2 146/3/2 147/3/2
f 147/3/2 146/3/2 148/3/2
f 149/3/2 150/3/2 153/3/2
f 153/3/2 150/3/2 154/3/2
f 151/3/2 152/3/2 157/3/2
f 157/3/2 152/3/2 158/3/2
f 155/3/2 156/3/2 159/3/2
f 159/3/2 156/3/2 160/3/2
f 161/4/2 162/4/2 165/4/2
f 165/4/2 162/4/2 166/4/2
f 163/4/2 164/4/2 167/4/2
f 167/4/2 164/4/2 168/4/2
f 165/5/2 166/5/2 169/5/2
f 167/5/2 168/5/2 170/5/2
f 165/5/2 169/5/2 171/5/2
f 171/5/2 169/5/2 172/5/2
f 170/5/2 168/5/2 173/5/2
f 173/5/2 168/5/2 174/5/2
f 171/2/2 172/2/2 175/2/2
f 175/2/2 172/2/2 176/2/2
f 173/2/2 174/2/2 177/2/2
f 177/2/2 174/2/2 178/2/2
f 175/3/2 176/3/2 179/3/2
f 179/3/2 176/3/2 180/3/2
f 177/3/2 178/3/2 181/3/2
f 181/3/2 178/3/2 182/3/2
f 183/3/2 184/3/2 185/3/2
f 185/3/2 184/3/2 186/3/2
f 187/4/2 188/4/2 189/4/2
f 189/4/2 188/4/2 190/4/2
f 189/5/2 190/5/2 191/5/2
f 191/5/2 190/5/2 192/5/2
f 192/5/2 190/5/2 193/5/2
f 193/5/2 190/5/2 194/5/2
f 194/5/2 190/5/2 195/5/2
f 195/5/2 190/5/2 196/5/2
f 196/5/2 190/5/2 197/5/2
f 197/5/2 190/5/2 198/5/2
f 191/2/2 192/2/2 199/2/2
f 199/2/2 192/2/2 200/2/2
f 193/2/2 194/2/2 201/2/2
f 201/2/2 194/2/2 202/2/2
f 195/2/2 196/2/2 203/2/2
f 203/2/2 196/2/2 204/2/2
f 197/2/2 198/2/2 205/2/2
f 205/2/2 198/2/2 206/2/2
f 192/5/2 193/5/2 207/5/2
f 200/2/2 192/2/2 207/2/2
f 193/2/2 201/2/2 208/2/2
f 207/5/2 193/5/2 208/5/2
f 194/5/2 195/5/2 209/5/2
f 202/2/2 194/2/2 209/2/2
f 195/2/2 203/2/2 210/2/2
f 209/5/2 195/5/2 210/5/2
f 196/5/2 197/5/2 211/5/2
f 204/2/2 196/2/2 211/2/2
f 197/2/2 205/2/2 212/2/2
f 211/5/2 197/5/2 212/5/2
f 207/2/2 208/2/2 213/2/2
f 199/3/2 200/3/2 213/3/2
f 200/2/2 207/2/2 213/2/2
f 208/2/2 201/2/2 214/2/2
f 213/2/2 208/2/2 214/2/2
f 201/3/2 202/3/2 214/3/2
f 209/2/2 210/2/2 215/2/2
f 214/3/2 202/3/2 215/3/2
f 202/2/2 209/2/2 215/2/2
f 210/2/2 203/2/2 216/2/2
f 215/2/2 210/2/2 216/2/2
f 203/3/2 204/3/2 216/3/2
f 211/2/2 212/2/2 217/2/2
f 216/3/2 204/3/2 217/3/2
f 204/2/2 211/2/2 217/2/2
f 205/3/2 206/3/2 218/3/2
f 217/2/2 212/2/2 218/2/2
f 212/2/2 205/2/2 218/2/2
f 216/3/2 217/3/2 219/3/2
f 199/3/2 213/3/2 219/3/2
f 217/3/2 218/3/2 219/3/2
f 215/3/2 216/3/2 219/3/2
f 213/3/2 214/3/2 219/3/2
f 214/3/2 215/3/2 219/3/2
f 218/3/2 206/3/2 220/3/2
f 219/3/2 218/3/2 220/3/2
f 226/5/3 223/5/3 222/5/3
f 227/2/3 224/2/3 223/2/3
f 227/5/3 223/5/3 226/5/3
f 228/2/3 227/2/3 226/2/3
f 229/3/3 225/3/3 224/3/3
f 229/2/3 227/2/3 228/2/3
f 229/2/3 224/2/3 227/2/3
f 230/2/3 228/2/3 226/2/3
f 230/3/3 229/3/3 228/3/3
f 231/3/3 225/3/3 229/3/3
f 231/3/3 229/3/3 230/3/3
f 232/2/3 230/2/3 226/2/3
f 232/5/3 226/5/3 222/5/3
f 232/2/3 231/2/3 230/2/3
f 233/2/3 231/2/3 232/2/3
f 234/5/3 232/5/3 222/5/3
f 234/5/3 233/5/3 232/5/3
f 235/2/3 231/2/3 233/2/3
f 235/5/3 233/5/3 234/5/3
f 236/2/3 235/2/3 234/2/3
f 237/3/3 225/3/3 231/3/3
f 237/2/3 235/2/3 236/2/3
f 237/2/3 231/2/3 235/2/3
f 238/2/3 236/2/3 234/2/3
f 238/3/3 237/3/3 236/3/3
f 239/3/3 225/3/3 237/3/3
f 239/3/3 237/3/3 238/3/3
f 240/2/3 238/2/3 234/2/3
f 240/5/3 234/5/3 222/5/3
f 240/2/3 239/2/3 238/2/3
f 241/2/3 239/2/3 240/2/3
f 242/5/3 240/5/3 222/5/3
f 242/5/3 241/5/3 240/5/3
f 243/2/3 239/2/3 241/2/3
f 243/5/3 241/5/3 242/5/3
f 244/2/3 243/2/3 242/2/3
f 245/3/3 225/3/3 239/3/3
f 245/2/3 243/2/3 244/2/3
f 245/2/3 239/2/3 243/2/3
f 246/2/3 244/2/3 242/2/3
f 246/3/3 245/3/3 244/3/3
f 247/3/3 225/3/3 245/3/3
f 247/3/3 245/3/3 246/3/3
f 248/2/3 246/2/3 242/2/3
f 248/5/3 242/5/3 222/5/3
f 248/2/3 247/2/3 246/2/3
f 249/2/3 247/2/3 248/2/3
f 250/5/3 248/5/3 222/5/3
f 250/5/3 249/5/3 248/5/3
f 251/2/3 247/2/3 249/2/3
f 251/5/3 249/5/3 250/5/3
f 252/2/3 251/2/3 250/2/3
f 253/3/3 225/3/3 247/3/3
f 253/2/3 251/2/3 252/2/3
f 253/2/3 247/2/3 251/2/3
f 254/2/3 252/2/3 250/2/3
f 254/3/3 253/3/3 252/3/3
f 255/3/3 225/3/3 253/3/3
f 255/3/3 253/3/3 254/3/3
f 256/2/3 254/2/3 250/2/3
f 256/5/3 250/5/3 222/5/3
f 256/2/3 255/2/3 254/2/3
f 257/2/3 255/2/3 256/2/3
f 258/4/3 222/4/3 221/4/3
f 259/5/3 256/5/3 222/5/3
f 259/4/3 222/4/3 258/4/3
f 259/5/3 257/5/3 256/5/3
f 260/2/3 255/2/3 257/2/3
f 260/5/3 257/5/3 259/5/3
f 261/3/3 225/3/3 255/3/3
f 261/2/3 255/2/3 260/2/3
f 262/3/3 225/3/3 261/3/3
f 265/3/3 264/3/3 263/3/3
f 266/3/3 264/3/3 265/3/3
f 272/2/3 270/2/3 269/2/3
f 272/3/3 271/3/3 270/3/3
f 273/3/3 271/3/3 272/3/3
f 274/4/3 268/4/3 267/4/3
f 275/5/3 269/5/3 268/5/3
f 275/4/3 268/4/3 274/4/3
f 276/2/3 272/2/3 269/2/3
f 276/5/3 269/5/3 275/5/3
f 276/2/3 273/2/3 272/2/3
f 277/2/3 273/2/3 276/2/3
f 278/3/3 271/3/3 273/3/3
f 278/2/3 273/2/3 277/2/3
f 279/3/3 271/3/3 278/3/3
f 286/2/3 283/2/3 282/2/3
f 286/2/3 284/2/3 283/2/3
f 287/3/3 285/3/3 284/3/3
f 287/2/3 284/2/3 286/2/3
f 288/4/3 281/4/3 280/4/3
f 289/5/3 282/5/3 281/5/3
f 289/4/3 281/4/3 288/4/3
f 290/2/3 286/2/3 282/2/3
f 290/5/3 282/5/3 289/5/3
f 291/3/3 287/3/3 286/3/3
f 291/2/3 286/2/3 290/2/3
f 292/3/3 285/3/3 287/3/3
f 292/3/3 287/3/3 291/3/3
f 295/3/3 294/3/3 293/3/3
f 296/3/3 294/3/3 295/3/3
f 299/3/3 298/3/3 297/3/3
f 300/3/3 298/3/3 299/3/3
f 303/3/3 302/3/3 301/3/3
f 304/3/3 302/3/3 303/3/3
f 307/3/3 306/3/3 305/3/3
f 308/3/3 306/3/3 307/3/3
f 311/3/3 310/3/3 309/3/3
f 312/3/3 310/3/3 311/3/3
f 315/3/3 314/3/3 313/3/3
f 316/3/3 314/3/3 315/3/3
f 319/3/3 318/3/3 317/3/3
f 321/3/3 319/3/3 317/3/3
f 321/3/3 320/3/3 319/3/3
f 322/3/3 320/3/3 321/3/3
f 323/3/3 320/3/3 322/3/3
f 324/3/3 320/3/3 323/3/3
f 325/3/3 320/3/3 324/3/3
f 326/3/3 320/3/3 325/3/3
f 327/3/3 320/3/3 326/3/3
f 328/3/3 320/3/3 327/3/3
f 331/3/3 330/3/3 329/3/3
f 332/3/3 330/3/3 331/3/3
f 335/1/3 334/1/3 333/1/3
f 336/1/3 334/1/3 335/1/3
f 339/3/3 338/3/3 337/3/3
f 340/3/3 338/3/3 339/3/3
f 341/3/3 339/3/3 337/3/3
f 342/3/3 339/3/3 341/3/3
f 343/3/4 344/3/4 345/3/4
f 345/3/4 344/3/4 346/3/4
f 343/3/4 345/3/4 347/3/4
f 347/3/4 345/3/4 348/3/4
f 349/1/4 350/1/4 351/1/4
f 351/1/4 350/1/4 352/1/4
f 353/3/4 354/3/4 355/3/4
f 353/3/4 355/3/4 357/3/4
f 355/3/4 356/3/4 357/3/4
f 357/3/4 356/3/4 358/3/4
f 358/3/4 356/3/4 359/3/4
f 359/3/4 356/3/4 360/3/4
f 360/3/4 356/3/4 361/3/4
f 361/3/4 356/3/4 362/3/4
f 362/3/4 356/3/4 363/3/4
f 363/3/4 356/3/4 364/3/4
f 365/3/4 366/3/4 367/3/4
f 367/3/4 366/3/4 368/3/4
f 369/3/4 370/3/4 371/3/4
f 371/3/4 370/3/4 372/3/4
f 373/3/4 374/3/4 375/3/4
f 375/3/4 374/3/4 376/3/4
f 377/3/4 378/3/4 379/3/4
f 379/3/4 378/3/4 380/3/4
f 381/3/4 382/3/4 383/3/4
f 383/3/4 382/3/4 384/3/4
f 385/3/4 386/3/4 387/3/4
f 387/3/4 386/3/4 388/3/4
f 389/3/4 390/3/4 391/3/4
f 391/3/4 390/3/4 392/3/4
f 395/2/4 396/2/4 398/2/4
f 396/3/4 397/3/4 398/3/4
f 398/3/4 397/3/4 399/3/4
f 393/4/4 394/4/4 400/4/4
f 394/5/4 395/5/4 401/5/4
f 400/4/4 394/4/4 401/4/4
f 395/2/4 398/2/4 402/2/4
f 401/5/4 395/5/4 402/5/4
f 398/2/4 399/2/4 402/2/4
f 402/2/4 399/2/4 403/2/4
f 399/3/4 397/3/4 404/3/4
f 403/2/4 399/2/4 404/2/4
f 404/3/4 397/3/4 405/3/4
f 408/2/4 409/2/4 412/2/4
f 409/2/4 410/2/4 412/2/4
f 410/3/4 411/3/4 413/3/4
f 412/2/4 410/2/4 413/2/4
f 406/4/4 407/4/4 414/4/4
f 407/5/4 408/5/4 415/5/4
f 414/4/4 407/4/4 415/4/4
f 408/2/4 412/2/4 416/2/4
f 415/5/4 408/5/4 416/5/4
f 412/3/4 413/3/4 417/3/4
f 416/2/4 412/2/4 417/2/4
f 413/3/4 411/3/4 418/3/4
f 417/3/4 413/3/4 418/3/4
f 419/3/4 420/3/4 421/3/4
f 421/3/4 420/3/4 422/3/4
f 424/5/4 425/5/4 428/5/4
f 425/2/4 426/2/4 429/2/4
f 428/5/4 425/5/4 429/5/4
f 428/2/4 429/2/4 430/2/4
f 426/3/4 427/3/4 431/3/4
f 430/2/4 429/2/4 431/2/4
f 429/2/4 426/2/4 431/2/4
f 428/2/4 430/2/4 432/2/4
f 430/3/4 431/3/4 432/3/4
f 431/3/4 427/3/4 433/3/4
f 432/3/4 431/3/4 433/3/4
f 428/2/4 432/2/4 434/2/4
f 424/5/4 428/5/4 434/5/4
f 432/2/4 433/2/4 434/2/4
f 434/2/4 433/2/4 435/2/4
f 424/5/4 434/5/4 436/5/4
f 434/5/4 435/5/4 436/5/4
f 435/2/4 433/2/4 437/2/4
f 436/5/4 435/5/4 437/5/4
f 436/2/4 437/2/4 438/2/4
f 433/3/4 427/3/4 439/3/4
f 438/2/4 437/2/4 439/2/4
f 437/2/4 433/2/4 439/2/4
f 436/2/4 438/2/4 440/2/4
f 438/3/4 439/3/4 440/3/4
f 439/3/4 427/3/4 441/3/4
f 440/3/4 439/3/4 441/3/4
f 436/2/4 440/2/4 442/2/4
f 424/5/4 436/5/4 442/5/4
f 440/2/4 441/2/4 442/2/4
f 442/2/4 441/2/4 443/2/4
f 424/5/4 442/5/4 444/5/4
f 442/5/4 443/5/4 444/5/4
f 443/2/4 441/2/4 445/2/4
f 444/5/4 443/5/4 445/5/4
f 444/2/4 445/2/4 446/2/4
f 441/3/4 427/3/4 447/3/4
f 446/2/4 445/2/4 447/2/4
f 445/2/4 441/2/4 447/2/4
f 444/2/4 446/2/4 448/2/4
f 446/3/4 447/3/4 448/3/4
f 447/3/4 427/3/4 449/3/4
f 448/3/4 447/3/4 449/3/4
f 444/2/4 448/2/4 450/2/4
f 424/5/4 444/5/4 450/5/4
f 448/2/4 449/2/4 450/2/4
f 450/2/4 449/2/4 451/2/4
f 424/5/4 450/5/4 452/5/4
f 450/5/4 451/5/4 452/5/4
f 451/2/4 449/2/4 453/2/4
f 452/5/4 451/5/4 453/5/4
f 452/2/4 453/2/4 454/2/4
f 449/3/4 427/3/4 455/3/4
f 454/2/4 453/2/4 455/2/4
f 453/2/4 449/2/4 455/2/4
f 452/2/4 454/2/4 456/2/4
f 454/3/4 455/3/4 456/3/4
f 455/3/4 427/3/4 457/3/4
f 456/3/4 455/3/4 457/3/4
f 452/2/4 456/2/4 458/2/4
f 424/5/4 452/5/4 458/5/4
f 456/2/4 457/2/4 458/2/4
f 458/2/4 457/2/4 459/2/4
f 423/4/4 424/4/4 460/4/4
f 424/5/4 458/5/4 461/5/4
f 460/4/4 424/4/4 461/4/4
f 458/5/4 459/5/4 461/5/4
f 459/2/4 457/2/4 462/2/4
f 461/5/4 459/5/4 462/5/4
f 457/3/4 427/3/4 463/3/4
f 462/2/4 457/2/4 463/2/4
f 463/3/4 427/3/4 464/3/4
f 467/1/5 466/1/5 465/1/5
f 468/1/5 466/1/5 467/1/5
f 472/4/5 470/4/5 469/4/5
f 473/4/5 470/4/5 472/4/5
f 475/4/5 472/4/5 471/4/5
f 475/4/5 474/4/5 473/4/5
f 475/4/5 473/4/5 472/4/5
f 476/4/5 474/4/5 475/4/5
f 477/4/5 474/4/5 476/4/5
f 478/4/5 474/4/5 477/4/5
f 479/4/5 477/4/5 476/4/5
f 480/4/5 477/4/5 479/4/5
f 483/3/5 482/3/5 481/3/5
f 484/3/5 482/3/5 483/3/5
f 486/3/5 482/3/5 484/3/5
f 487/3/5 486/3/5 485/3/5
f 488/3/5 482/3/5 486/3/5
f 488/3/5 486/3/5 487/3/5
f 491/3/5 490/3/5 489/3/5
f 492/3/5 490/3/5 491/3/5
f 493/1/6 494/1/6 495/1/6
f 495/1/6 494/1/6 496/1/6
f 493/1/6 495/1/6 497/1/6
f 496/1/6 494/1/6 498/1/6
f 493/1/6 497/1/6 499/1/6
f 497/1/6 498/1/6 499/1/6
f 498/1/6 494/1/6 500/1/6
f 499/1/6 498/1/6 500/1/6
f 501/3/6 502/3/6 503/3/6
f 503/3/6 502/3/6 504/3/6
f 501/3/6 503/3/6 506/3/6
f 504/3/6 502/3/6 507/3/6
f 505/3/6 506/3/6 509/3/6
f 506/3/6 503/3/6 510/3/6
f 509/3/6 506/3/6 510/3/6
f 507/3/6 508/3/6 511/3/6
f 504/3/6 507/3/6 511/3/6
f 511/3/6 508/3/6 512/3/6
f 505/3/6 509/3/6 513/3/6
f 512/3/6 508/3/6 516/3/6
f 513/3/6 514/3/6 517/3/6
f 505/3/6 513/3/6 517/3/6
f 517/3/6 514/3/6 518/3/6
f 515/3/6 516/3/6 519/3/6
f 516/3/6 508/3/6 520/3/6
f 519/3/6 516/3/6 520/3/6
f 518/3/6 514/3/6 521/3/6
f 515/3/6 519/3/6 522/3/6
f 518/3/6 521/3/6 523/3/6
f 521/3/6 522/3/6 523/3/6
f 522/3/6 519/3/6 524/3/6
f 523/3/6 522/3/6 524/3/6
f 525/3/6 526/3/6 527/3/6
f 527/3/6 526/3/6 528/3/6
f 529/3/6 530/3/6 532/3/6
f 532/3/6 530/3/6 533/3/6
f 533/3/6 530/3/6 534/3/6
f 534/3/6 530/3/6 535/3/6
f 531/3/6 532/3/6 537/3/6
f 532/3/6 533/3/6 537/3/6
f 537/3/6 533/3/6 538/3/6
f 535/3/6 536/3/6 539/3/6
f 534/3/6 535/3/6 539/3/6
f 539/3/6 536/3/6 540/3/6
f 531/3/6 537/3/6 541/3/6
f 541/3/6 537/3/6 542/3/6
f 543/3/6 544/3/6 545/3/6
f 540/3/6 536/3/6 548/3/6
f 545/3/6 546/3/6 549/3/6
f 543/3/6 545/3/6 549/3/6
f 549/3/6 546/3/6 550/3/6
f 550/3/6 546/3/6 551/3/6
f 547/3/6 548/3/6 552/3/6
f 548/3/6 536/3/6 553/3/6
f 552/3/6 548/3/6 553/3/6
f 553/3/6 536/3/6 554/3/6
f 550/3/6 551/3/6 555/3/6
f 551/3/6 552/3/6 555/3/6
f 552/3/6 553/3/6 555/3/6
f 555/3/6 553/3/6 556/3/6
f 557/3/6 558/3/6 560/3/6
f 560/3/6 558/3/6 561/3/6
f 559/3/6 560/3/6 563/3/6
f 561/3/6 562/3/6 563/3/6
f 560/3/6 561/3/6 563/3/6
f 563/3/6 562/3/6 564/3/6
f 559/3/6 563/3/6 567/3/6
f 567/3/6 563/3/6 568/3/6
f 564/3/6 562/3/6 569/3/6
f 569/3/6 562/3/6 570/3/6
f 565/3/6 566/3/6 571/3/6
f 571/3/6 566/3/6 572/3/6
f 570/3/6 562/3/6 576/3/6
f 573/3/6 574/3/6 577/3/6
f 575/3/6 576/3/6 578/3/6
f 573/3/6 577/3/6 579/3/6
f 577/3/6 578/3/6 579/3/6
f 579/3/6 578/3/6 580/3/6
f 578/3/6 576/3/6 581/3/6
f 580/3/6 578/3/6 581/3/6
f 576/3/6 562/3/6 581/3/6
f 581/3/6 562/3/6 582/3/6
f 580/3/6 581/3/6 583/3/6
f 583/3/6 581/3/6 584/3/6
f 585/3/6 586/3/6 588/3/6
f 588/3/6 586/3/6 589/3/6
f 587/3/6 588/3/6 591/3/6
f 589/3/6 590/3/6 591/3/6
f 588/3/6 589/3/6 591/3/6
f 591/3/6 590/3/6 592/3/6
f 592/3/6 590/3/6 593/3/6
f 593/3/6 590/3/6 594/3/6
f 592/3/6 593/3/6 595/3/6
f 595/3/6 593/3/6 596/3/6
