# MagicaVoxel @ Ephtracy

# group
o 

# material
mtllib model-1.mtl
usemtl palette

# normals
vn 0 0 1
vn 0 0 -1
vn 1 0 0
vn -1 0 0
vn 0 -1 0
vn 0 1 0

# texcoords
vt 0.216797 0.5
vt 0.826172 0.5
vt 0.830078 0.5

# verts
v 0.5 0 1
v -0.5 0 1
v 0.5 0.7 1
v -0.5 0.7 1
v 0.6 0 0.8
v 0.5 0 0.8
v 0.6 0.7 0.8
v 0.5 0.7 0.8
v -0.5 0.1 0.2
v -1 0.1 0.2
v -0.5 0.2 0.2
v -1 0.2 0.2
v -1.2 0.2 0.2
v -1 0.3 0.2
v -1.1 0.3 0.2
v -0.5 0.4 0.2
v -1 0.4 0.2
v -1.1 0.4 0.2
v -1.2 0.4 0.2
v -1.3 0.4 0.2
v -1 0.5 0.2
v -1.1 0.5 0.2
v -0.5 0.6 0.2
v -1.1 0.6 0.2
v -1.1 0.7 0.2
v -1.2 0.7 0.2
v -1.3 0.7 0.2
v -0.5 0.1 -0.2
v -1 0.1 -0.2
v -0.5 0.2 -0.2
v -1 0.2 -0.2
v -1.2 0.2 -0.2
v -1 0.3 -0.2
v -1.1 0.3 -0.2
v -0.5 0.4 -0.2
v -1 0.4 -0.2
v -1.1 0.4 -0.2
v -1.2 0.4 -0.2
v -1.3 0.4 -0.2
v -1 0.5 -0.2
v -1.1 0.5 -0.2
v -0.5 0.6 -0.2
v -1.1 0.6 -0.2
v -1.1 0.7 -0.2
v -1.2 0.7 -0.2
v -1.3 0.7 -0.2
v 0.6 0 -0.8
v 0.5 0 -0.8
v 0.6 0.7 -0.8
v 0.5 0.7 -0.8
v 0.5 0 -1
v -0.5 0 -1
v 0.5 0.7 -1
v -0.5 0.7 -1
v 0.6 0 0.8
v 0.6 0.7 0.8
v 0.6 0 -0.8
v 0.6 0.7 -0.8
v 0.5 0 1
v 0.5 0.7 1
v 0.5 0 0.8
v 0.5 0.7 0.8
v 0.5 0 -0.8
v 0.5 0.7 -0.8
v 0.5 0 -1
v 0.5 0.7 -1
v -1.1 0.6 0.2
v -1.1 0.7 0.2
v -1.1 0.6 -0.2
v -1.1 0.7 -0.2
v -0.5 0 1
v -0.5 0.7 1
v -0.5 0.1 0.2
v -0.5 0.2 0.2
v -0.5 0.4 0.2
v -0.5 0.6 0.2
v -0.5 0.1 -0.2
v -0.5 0.2 -0.2
v -0.5 0.4 -0.2
v -0.5 0.6 -0.2
v -0.5 0 -1
v -0.5 0.7 -1
v -1 0.1 0.2
v -1 0.2 0.2
v -1 0.1 -0.2
v -1 0.2 -0.2
v -1.2 0.2 0.2
v -1.2 0.4 0.2
v -1.2 0.2 -0.2
v -1.2 0.4 -0.2
v -1.3 0.4 0.2
v -1.3 0.7 0.2
v -1.3 0.4 -0.2
v -1.3 0.7 -0.2
v 0.6 0 0.8
v 0.6 0 -0.8
v 0.5 0 1
v 0.5 0 0.8
v 0.5 0 -0.8
v 0.5 0 -1
v -0.5 0 1
v -0.5 0 -1
v -0.5 0.1 0.2
v -0.5 0.1 -0.2
v -1 0.1 0.2
v -1 0.1 -0.2
v -1 0.2 0.2
v -1 0.2 -0.2
v -1.2 0.2 0.2
v -1.2 0.2 -0.2
v -1.2 0.4 0.2
v -1.2 0.4 -0.2
v -1.3 0.4 0.2
v -1.3 0.4 -0.2
v -0.5 0.6 0.2
v -0.5 0.6 -0.2
v -1.1 0.6 0.2
v -1.1 0.6 -0.2
v 0.6 0.7 0.8
v 0.6 0.7 -0.8
v 0.5 0.7 1
v 0.5 0.7 0.8
v 0.5 0.7 -0.8
v 0.5 0.7 -1
v -0.5 0.7 1
v -0.5 0.7 -1
v -1.1 0.7 0.2
v -1.1 0.7 -0.2
v -1.2 0.7 0.2
v -1.2 0.7 -0.2
v -1.3 0.7 0.2
v -1.3 0.7 -0.2

# faces
f 3/3/1 2/3/1 1/3/1
f 4/3/1 2/3/1 3/3/1
f 7/1/1 6/1/1 5/1/1
f 8/1/1 6/1/1 7/1/1
f 11/1/1 10/1/1 9/1/1
f 12/1/1 10/1/1 11/1/1
f 14/3/1 12/3/1 11/3/1
f 14/1/1 13/1/1 12/1/1
f 15/1/1 13/1/1 14/1/1
f 16/3/1 14/3/1 11/3/1
f 16/3/1 15/3/1 14/3/1
f 17/3/1 15/3/1 16/3/1
f 18/1/1 13/1/1 15/1/1
f 18/3/1 15/3/1 17/3/1
f 19/1/1 13/1/1 18/1/1
f 21/2/1 17/2/1 16/2/1
f 21/3/1 18/3/1 17/3/1
f 21/3/1 19/3/1 18/3/1
f 22/3/1 19/3/1 21/3/1
f 23/2/1 21/2/1 16/2/1
f 23/2/1 22/2/1 21/2/1
f 24/3/1 19/3/1 22/3/1
f 24/2/1 22/2/1 23/2/1
f 25/3/1 19/3/1 24/3/1
f 26/1/1 20/1/1 19/1/1
f 26/3/1 19/3/1 25/3/1
f 27/1/1 20/1/1 26/1/1
f 28/1/2 29/1/2 30/1/2
f 30/1/2 29/1/2 31/1/2
f 30/3/2 31/3/2 33/3/2
f 31/1/2 32/1/2 33/1/2
f 33/1/2 32/1/2 34/1/2
f 30/3/2 33/3/2 35/3/2
f 33/3/2 34/3/2 35/3/2
f 35/3/2 34/3/2 36/3/2
f 34/1/2 32/1/2 37/1/2
f 36/3/2 34/3/2 37/3/2
f 37/1/2 32/1/2 38/1/2
f 35/2/2 36/2/2 40/2/2
f 36/3/2 37/3/2 40/3/2
f 37/3/2 38/3/2 40/3/2
f 40/3/2 38/3/2 41/3/2
f 35/2/2 40/2/2 42/2/2
f 40/2/2 41/2/2 42/2/2
f 41/3/2 38/3/2 43/3/2
f 42/2/2 41/2/2 43/2/2
f 43/3/2 38/3/2 44/3/2
f 38/1/2 39/1/2 45/1/2
f 44/3/2 38/3/2 45/3/2
f 45/1/2 39/1/2 46/1/2
f 47/1/2 48/1/2 49/1/2
f 49/1/2 48/1/2 50/1/2
f 51/3/2 52/3/2 53/3/2
f 53/3/2 52/3/2 54/3/2
f 57/1/3 56/1/3 55/1/3
f 58/1/3 56/1/3 57/1/3
f 61/3/3 60/3/3 59/3/3
f 62/3/3 60/3/3 61/3/3
f 65/3/3 64/3/3 63/3/3
f 66/3/3 64/3/3 65/3/3
f 69/3/3 68/3/3 67/3/3
f 70/3/3 68/3/3 69/3/3
f 71/3/4 72/3/4 73/3/4
f 73/3/4 72/3/4 74/3/4
f 74/3/4 72/3/4 75/3/4
f 75/3/4 72/3/4 76/3/4
f 71/3/4 73/3/4 77/3/4
f 76/3/4 72/3/4 80/3/4
f 78/3/4 79/3/4 81/3/4
f 79/3/4 80/3/4 81/3/4
f 71/3/4 77/3/4 81/3/4
f 77/3/4 78/3/4 81/3/4
f 80/3/4 72/3/4 82/3/4
f 81/3/4 80/3/4 82/3/4
f 83/1/4 84/1/4 85/1/4
f 85/1/4 84/1/4 86/1/4
f 87/1/4 88/1/4 89/1/4
f 89/1/4 88/1/4 90/1/4
f 91/1/4 92/1/4 93/1/4
f 93/1/4 92/1/4 94/1/4
f 98/1/5 96/1/5 95/1/5
f 99/1/5 96/1/5 98/1/5
f 101/3/5 98/3/5 97/3/5
f 101/3/5 100/3/5 99/3/5
f 101/3/5 99/3/5 98/3/5
f 102/3/5 100/3/5 101/3/5
f 105/1/5 104/1/5 103/1/5
f 106/1/5 104/1/5 105/1/5
f 109/1/5 108/1/5 107/1/5
f 110/1/5 108/1/5 109/1/5
f 113/1/5 112/1/5 111/1/5
f 114/1/5 112/1/5 113/1/5
f 115/2/6 116/2/6 117/2/6
f 117/2/6 116/2/6 118/2/6
f 119/1/6 120/1/6 122/1/6
f 122/1/6 120/1/6 123/1/6
f 121/3/6 122/3/6 125/3/6
f 123/3/6 124/3/6 125/3/6
f 122/3/6 123/3/6 125/3/6
f 125/3/6 124/3/6 126/3/6
f 127/3/6 128/3/6 129/3/6
f 129/3/6 128/3/6 130/3/6
f 129/1/6 130/1/6 131/1/6
f 131/1/6 130/1/6 132/1/6
