# MagicaVoxel @ Ephtracy

# group
o 

# material
mtllib model.mtl
usemtl palette

# normals
vn 0 0 1
vn 0 0 -1
vn 1 0 0
vn -1 0 0
vn 0 -1 0
vn 0 1 0

# texcoords
vt 0.291016 0.5
vt 0.392578 0.5
vt 0.486328 0.5
vt 0.513672 0.5
vt 0.572266 0.5
vt 0.576172 0.5

# verts
v 0 0.2 1.2
v -0.1 0.2 1.2
v -0.3 0.2 1.2
v 0 0.5 1.2
v -0.1 0.5 1.2
v -0.3 0.5 1.2
v 0 0.7 1.2
v -0.2 0.7 1.2
v -0.3 0.7 1.2
v -0.3 0.8 1.2
v -0.5 0.8 1.2
v -0.7 0.8 1.2
v 0 1.1 1.2
v -0.2 1.1 1.2
v -0.4 1.2 1.2
v -0.5 1.2 1.2
v 0 1.5 1.2
v -0.4 1.5 1.2
v -0.5 1.5 1.2
v -0.5 1.9 1.2
v -0.7 1.9 1.2
v 0.1 0.2 1.1
v 0 0.2 1.1
v 0 0.5 1.1
v -0.1 0.5 1.1
v -0.2 0.5 1.1
v -0.3 0.5 1.1
v 0 0.7 1.1
v -0.2 0.7 1.1
v -0.3 0.7 1.1
v 0 1.1 1.1
v 0.1 1.3 1.1
v 0 1.3 1.1
v 0.1 1.5 1.1
v 0 1.5 1.1
v 0.1 0.1 1
v -0.3 0.1 1
v 0.1 0.2 1
v -0.2 0.2 1
v -0.3 0.2 1
v 0.2 1 1
v 0.1 1 1
v 0.2 1.3 1
v 0.1 1.3 1
v 0.1 1.5 1
v -0.1 1.5 1
v 0.1 1.6 1
v -0.1 1.6 1
v 0.2 0.3 0.9
v 0.1 0.3 0.9
v 0.2 0.5 0.9
v 0.1 0.5 0.9
v 0.2 0.8 0.9
v 0.1 0.8 0.9
v 0.1 1.6 0.8
v -0.1 1.6 0.8
v 0.1 1.7 0.8
v -0.1 1.7 0.8
v 0.1 0 0.7
v -0.3 0 0.7
v 0.1 0.1 0.7
v -0.3 0.1 0.7
v 0.2 0.9 0.6
v 0.1 0.9 0.6
v 0.2 1.1 0.6
v 0.1 1.1 0.6
v 0.1 1.6 0.5
v -0.1 1.6 0.5
v 0.1 1.7 0.5
v -0.1 1.7 0.5
v 0.2 0.5 0.3
v 0.1 0.5 0.3
v 0.2 0.7 0.3
v 0.1 0.7 0.3
v 0.1 0 0.2
v -0.3 0 0.2
v 0.1 0.1 0.2
v -0.3 0.1 0.2
v 0.2 0.8 0.2
v 0.1 0.8 0.2
v 0.2 1.1 0.2
v 0.1 1.1 0.2
v 0.2 0.3 -0.0999999
v 0.1 0.3 -0.0999999
v 0.2 0.6 -0.0999999
v 0.1 0.6 -0.0999999
v 0.1 0 -0.3
v -0.3 0 -0.3
v 0.1 0.1 -0.3
v -0.3 0.1 -0.3
v 0.2 0.8 -0.4
v 0.1 0.8 -0.4
v 0.2 1.1 -0.4
v 0.1 1.1 -0.4
v 0.2 0.3 -0.5
v 0.1 0.3 -0.5
v 0.2 0.7 -0.5
v 0.1 0.7 -0.5
v 0.1 1.2 -0.5
v -0.1 1.2 -0.5
v 0.1 1.3 -0.5
v -0.1 1.3 -0.5
v 0.1 1.3 -0.6
v -0.1 1.3 -0.6
v 0.1 1.4 -0.6
v 0 1.4 -0.6
v -0.1 1.4 -0.6
v 0.1 1.6 -0.6
v -0.1 1.6 -0.6
v 0.1 1.7 -0.6
v -0.1 1.7 -0.6
v 0.2 1 -0.8
v 0.1 1 -0.8
v 0.1 1.1 -0.8
v 0.2 1.2 -0.8
v 0.1 1.2 -0.8
v -0.3 0.8 -1
v -0.7 0.8 -1
v -0.3 1.1 -1
v -0.5 1.1 -1
v -0.1 1.2 -1
v -0.3 1.2 -1
v -0.4 1.3 -1
v -0.5 1.3 -1
v -0.1 1.4 -1
v -0.1 1.5 -1
v -0.4 1.5 -1
v -0.5 1.5 -1
v -0.5 1.9 -1
v -0.7 1.9 -1
v -0.3 0.8 1
v -0.5 0.8 1
v -0.7 0.8 1
v -0.1 1.2 1
v -0.2 1.2 1
v -0.3 1.2 1
v -0.4 1.2 1
v -0.5 1.2 1
v -0.1 1.4 1
v -0.2 1.4 1
v -0.1 1.5 1
v -0.4 1.5 1
v -0.5 1.5 1
v -0.5 1.9 1
v -0.7 1.9 1
v 0.2 1 0.7
v 0.1 1 0.7
v 0.1 1.2 0.7
v 0.2 1.3 0.7
v 0.1 1.3 0.7
v 0.1 1.3 0.6
v -0.1 1.3 0.6
v 0.1 1.4 0.6
v 0 1.4 0.6
v -0.1 1.4 0.6
v 0.1 1.6 0.6
v -0.1 1.6 0.6
v 0.1 1.7 0.6
v -0.1 1.7 0.6
v 0.1 1.2 0.5
v -0.1 1.2 0.5
v 0.1 1.3 0.5
v -0.1 1.3 0.5
v 0.2 0.3 0.4
v 0.1 0.3 0.4
v 0.2 0.5 0.4
v 0.1 0.5 0.4
v 0.2 0.8 0.4
v 0.1 0.8 0.4
v 0.2 0.9 0.4
v 0.1 0.9 0.4
v 0.2 1.1 0.4
v 0.1 1.1 0.4
v 0.1 0 0.3
v -0.3 0 0.3
v 0.1 0.1 0.3
v -0.3 0.1 0.3
v 0.2 0.5 0.1
v 0.1 0.5 0.1
v 0.2 0.7 0.1
v 0.1 0.7 0.1
v 0.1 0 -0.2
v -0.3 0 -0.2
v 0.1 0.1 -0.2
v -0.3 0.1 -0.2
v 0.2 0.8 -0.2
v 0.1 0.8 -0.2
v 0.2 1.1 -0.2
v 0.1 1.1 -0.2
v 0.2 0.3 -0.4
v 0.1 0.3 -0.4
v 0.2 0.6 -0.4
v 0.1 0.6 -0.4
v 0.1 1.6 -0.5
v -0.1 1.6 -0.5
v 0.1 1.7 -0.5
v -0.1 1.7 -0.5
v 0.1 0 -0.7
v -0.3 0 -0.7
v 0.1 0.1 -0.7
v -0.3 0.1 -0.7
v 0.2 0.8 -0.7
v 0.1 0.8 -0.7
v 0.2 1.1 -0.7
v 0.1 1.1 -0.7
v 0.1 1.6 -0.8
v -0.1 1.6 -0.8
v 0.1 1.7 -0.8
v -0.1 1.7 -0.8
v 0.2 0.3 -0.9
v 0.1 0.3 -0.9
v 0.2 0.7 -0.9
v 0.1 0.7 -0.9
v 0.1 0.1 -1
v -0.3 0.1 -1
v 0.1 0.2 -1
v -0.2 0.2 -1
v -0.3 0.2 -1
v 0.2 1 -1
v 0.1 1 -1
v 0.2 1.2 -1
v 0.1 1.2 -1
v 0.1 1.5 -1
v -0.1 1.5 -1
v 0.1 1.6 -1
v -0.1 1.6 -1
v 0.1 0.2 -1.1
v 0 0.2 -1.1
v 0 0.5 -1.1
v -0.2 0.5 -1.1
v -0.3 0.5 -1.1
v 0 0.7 -1.1
v -0.2 0.7 -1.1
v -0.3 0.7 -1.1
v 0.1 1.3 -1.1
v 0 1.3 -1.1
v 0.1 1.5 -1.1
v 0 1.5 -1.1
v 0 0.2 -1.2
v -0.2 0.2 -1.2
v -0.3 0.2 -1.2
v 0 0.5 -1.2
v -0.2 0.5 -1.2
v -0.3 0.5 -1.2
v 0 0.7 -1.2
v -0.3 0.7 -1.2
v -0.3 0.8 -1.2
v -0.7 0.8 -1.2
v -0.3 1.1 -1.2
v -0.5 1.1 -1.2
v -0.4 1.3 -1.2
v -0.5 1.3 -1.2
v 0 1.5 -1.2
v -0.4 1.5 -1.2
v -0.5 1.5 -1.2
v -0.5 1.9 -1.2
v -0.7 1.9 -1.2
v 0.2 1 1
v 0.2 1.3 1
v 0.2 0.3 0.9
v 0.2 0.5 0.9
v 0.2 0.8 0.9
v 0.2 0.5 0.8
v 0.2 0.8 0.8
v 0.2 1 0.7
v 0.2 1.3 0.7
v 0.2 0.9 0.6
v 0.2 1.1 0.6
v 0.2 0.3 0.5
v 0.2 0.5 0.5
v 0.2 0.3 0.4
v 0.2 0.5 0.4
v 0.2 0.8 0.4
v 0.2 0.9 0.4
v 0.2 1.1 0.4
v 0.2 0.5 0.3
v 0.2 0.7 0.3
v 0.2 0.8 0.2
v 0.2 1.1 0.2
v 0.2 0.5 0.1
v 0.2 0.7 0.1
v 0.2 0.3 -0.0999999
v 0.2 0.6 -0.0999999
v 0.2 0.8 -0.2
v 0.2 1.1 -0.2
v 0.2 0.3 -0.4
v 0.2 0.6 -0.4
v 0.2 0.8 -0.4
v 0.2 1.1 -0.4
v 0.2 0.3 -0.5
v 0.2 0.7 -0.5
v 0.2 0.3 -0.6
v 0.2 0.7 -0.6
v 0.2 0.8 -0.7
v 0.2 1.1 -0.7
v 0.2 1 -0.8
v 0.2 1.2 -0.8
v 0.2 0.3 -0.9
v 0.2 0.7 -0.9
v 0.2 1 -1
v 0.2 1.2 -1
v 0.1 0.2 1.1
v 0.1 1.3 1.1
v 0.1 1.5 1.1
v 0.1 0.1 1
v 0.1 0.2 1
v 0.1 1 1
v 0.1 1.3 1
v 0.1 1.4 1
v 0.1 1.5 1
v 0.1 1.6 1
v 0.1 0.1 0.9
v 0.1 0.3 0.9
v 0.1 0.5 0.9
v 0.1 0.8 0.9
v 0.1 0.8 0.8
v 0.1 1 0.8
v 0.1 1.4 0.8
v 0.1 1.5 0.8
v 0.1 1.6 0.8
v 0.1 1.7 0.8
v 0.1 0 0.7
v 0.1 0.1 0.7
v 0.1 1 0.7
v 0.1 1.2 0.7
v 0.1 1.3 0.7
v 0.1 0 0.6
v 0.1 0.3 0.6
v 0.1 0.9 0.6
v 0.1 1.1 0.6
v 0.1 1.3 0.6
v 0.1 1.4 0.6
v 0.1 1.6 0.6
v 0.1 1.7 0.6
v 0.1 0.3 0.5
v 0.1 0.8 0.5
v 0.1 0.9 0.5
v 0.1 1.1 0.5
v 0.1 1.2 0.5
v 0.1 1.3 0.5
v 0.1 1.6 0.5
v 0.1 1.7 0.5
v 0.1 0.3 0.4
v 0.1 0.5 0.4
v 0.1 0.8 0.4
v 0.1 0.9 0.4
v 0.1 1.1 0.4
v 0.1 1.5 0.4
v 0.1 1.6 0.4
v 0.1 0 0.3
v 0.1 0.1 0.3
v 0.1 0.5 0.3
v 0.1 0.7 0.3
v 0.1 0 0.2
v 0.1 0.1 0.2
v 0.1 0.5 0.2
v 0.1 0.7 0.2
v 0.1 0.8 0.2
v 0.1 1.1 0.2
v 0.1 1.2 0.2
v 0.1 0.5 0.1
v 0.1 0.7 0.1
v 0.1 0.3 -0.0999999
v 0.1 0.6 -0.0999999
v 0.1 0 -0.2
v 0.1 0.1 -0.2
v 0.1 0.3 -0.2
v 0.1 0.6 -0.2
v 0.1 0.8 -0.2
v 0.1 1.1 -0.2
v 0.1 1.2 -0.2
v 0.1 0 -0.3
v 0.1 0.1 -0.3
v 0.1 0.3 -0.4
v 0.1 0.6 -0.4
v 0.1 0.8 -0.4
v 0.1 1.1 -0.4
v 0.1 1.5 -0.4
v 0.1 1.6 -0.4
v 0.1 0 -0.5
v 0.1 0.3 -0.5
v 0.1 0.7 -0.5
v 0.1 0.8 -0.5
v 0.1 1.1 -0.5
v 0.1 1.2 -0.5
v 0.1 1.3 -0.5
v 0.1 1.6 -0.5
v 0.1 1.7 -0.5
v 0.1 0.3 -0.6
v 0.1 0.7 -0.6
v 0.1 1.3 -0.6
v 0.1 1.4 -0.6
v 0.1 1.6 -0.6
v 0.1 1.7 -0.6
v 0.1 0 -0.7
v 0.1 0.1 -0.7
v 0.1 0.8 -0.7
v 0.1 1.1 -0.7
v 0.1 1.2 -0.7
v 0.1 0.1 -0.8
v 0.1 0.3 -0.8
v 0.1 0.7 -0.8
v 0.1 1 -0.8
v 0.1 1.1 -0.8
v 0.1 1.2 -0.8
v 0.1 1.4 -0.8
v 0.1 1.5 -0.8
v 0.1 1.6 -0.8
v 0.1 1.7 -0.8
v 0.1 0.3 -0.9
v 0.1 0.7 -0.9
v 0.1 0.1 -1
v 0.1 0.2 -1
v 0.1 1 -1
v 0.1 1.2 -1
v 0.1 1.3 -1
v 0.1 1.4 -1
v 0.1 1.5 -1
v 0.1 1.6 -1
v 0.1 0.2 -1.1
v 0.1 1.3 -1.1
v 0.1 1.5 -1.1
v 0 0.2 1.2
v 0 0.5 1.2
v 0 0.7 1.2
v 0 1.1 1.2
v 0 1.5 1.2
v 0 0.2 1.1
v 0 0.5 1.1
v 0 0.7 1.1
v 0 1.1 1.1
v 0 1.3 1.1
v 0 1.5 1.1
v 0 0.2 -1.1
v 0 0.5 -1.1
v 0 0.7 -1.1
v 0 1.3 -1.1
v 0 1.5 -1.1
v 0 0.2 -1.2
v 0 0.5 -1.2
v 0 0.7 -1.2
v 0 1.5 -1.2
v -0.5 1.5 1.2
v -0.5 1.9 1.2
v -0.5 1.5 1
v -0.5 1.9 1
v -0.5 1.5 -1
v -0.5 1.9 -1
v -0.5 1.5 -1.2
v -0.5 1.9 -1.2
v -0.1 1.2 1
v -0.1 1.4 1
v -0.1 1.5 1
v -0.1 1.6 1
v -0.1 1.6 0.8
v -0.1 1.7 0.8
v -0.1 1.3 0.6
v -0.1 1.4 0.6
v -0.1 1.6 0.6
v -0.1 1.7 0.6
v -0.1 1.2 0.5
v -0.1 1.3 0.5
v -0.1 1.6 0.5
v -0.1 1.7 0.5
v -0.1 1.2 -0.5
v -0.1 1.3 -0.5
v -0.1 1.6 -0.5
v -0.1 1.7 -0.5
v -0.1 1.3 -0.6
v -0.1 1.4 -0.6
v -0.1 1.6 -0.6
v -0.1 1.7 -0.6
v -0.1 1.6 -0.8
v -0.1 1.7 -0.8
v -0.1 1.2 -1
v -0.1 1.4 -1
v -0.1 1.5 -1
v -0.1 1.6 -1
v -0.3 0.2 1.2
v -0.3 0.5 1.2
v -0.3 0.7 1.2
v -0.3 0.8 1.2
v -0.3 0.5 1.1
v -0.3 0.7 1.1
v -0.3 0.1 1
v -0.3 0.2 1
v -0.3 0.8 1
v -0.3 1.2 1
v -0.3 0.1 0.9
v -0.3 0.2 0.9
v -0.3 0 0.7
v -0.3 0.1 0.7
v -0.3 0.2 0.7
v -0.3 0 0.6
v -0.3 0.1 0.6
v -0.3 0 0.3
v -0.3 0.1 0.3
v -0.3 0.2 0.3
v -0.3 0 0.2
v -0.3 0.1 0.2
v -0.3 0.2 0.2
v -0.3 0 -0.2
v -0.3 0.1 -0.2
v -0.3 0.2 -0.2
v -0.3 0 -0.3
v -0.3 0.1 -0.3
v -0.3 0.2 -0.3
v -0.3 0 -0.5
v -0.3 0.1 -0.5
v -0.3 0 -0.7
v -0.3 0.1 -0.7
v -0.3 0.2 -0.7
v -0.3 0.1 -0.8
v -0.3 0.2 -0.8
v -0.3 0.1 -1
v -0.3 0.2 -1
v -0.3 0.8 -1
v -0.3 1.1 -1
v -0.3 1.2 -1
v -0.3 0.5 -1.1
v -0.3 0.7 -1.1
v -0.3 0.2 -1.2
v -0.3 0.5 -1.2
v -0.3 0.7 -1.2
v -0.3 0.8 -1.2
v -0.7 0.8 1.2
v -0.7 1.9 1.2
v -0.7 0.8 1
v -0.7 1.9 1
v -0.7 0.8 -1
v -0.7 1.9 -1
v -0.7 0.8 -1.2
v -0.7 1.9 -1.2
v 0.1 0 0.7
v 0.1 0 0.6
v 0.1 0 0.3
v 0.1 0 0.2
v 0.1 0 -0.2
v 0.1 0 -0.3
v 0.1 0 -0.5
v 0.1 0 -0.7
v -0.3 0 0.7
v -0.3 0 0.6
v -0.3 0 0.3
v -0.3 0 0.2
v -0.3 0 -0.2
v -0.3 0 -0.3
v -0.3 0 -0.5
v -0.3 0 -0.7
v 0.1 0.1 1
v 0.1 0.1 0.9
v 0.1 0.1 0.7
v 0.1 0.1 0.3
v 0.1 0.1 0.2
v 0.1 0.1 -0.2
v 0.1 0.1 -0.3
v 0.1 0.1 -0.7
v 0.1 0.1 -0.8
v 0.1 0.1 -1
v -0.3 0.1 1
v -0.3 0.1 0.9
v -0.3 0.1 0.7
v -0.3 0.1 0.3
v -0.3 0.1 0.2
v -0.3 0.1 -0.2
v -0.3 0.1 -0.3
v -0.3 0.1 -0.7
v -0.3 0.1 -0.8
v -0.3 0.1 -1
v 0.1 0.2 1.1
v 0.1 0.2 1
v 0.1 0.2 -1
v 0.1 0.2 -1.1
v 0 0.2 1.2
v 0 0.2 1.1
v 0 0.2 -1.1
v 0 0.2 -1.2
v -0.1 0.2 1.2
v -0.1 0.2 1.1
v -0.2 0.2 1.1
v -0.2 0.2 1
v -0.2 0.2 -1
v -0.2 0.2 -1.2
v -0.3 0.2 1.2
v -0.3 0.2 1
v -0.3 0.2 -1
v -0.3 0.2 -1.2
v 0.2 0.3 0.9
v 0.2 0.3 0.5
v 0.2 0.3 0.4
v 0.2 0.3 -0.0999999
v 0.2 0.3 -0.4
v 0.2 0.3 -0.5
v 0.2 0.3 -0.6
v 0.2 0.3 -0.9
v 0.1 0.3 0.9
v 0.1 0.3 0.6
v 0.1 0.3 0.5
v 0.1 0.3 0.4
v 0.1 0.3 -0.0999999
v 0.1 0.3 -0.2
v 0.1 0.3 -0.4
v 0.1 0.3 -0.5
v 0.1 0.3 -0.6
v 0.1 0.3 -0.8
v 0.1 0.3 -0.9
v 0.2 0.5 0.3
v 0.2 0.5 0.1
v 0.1 0.5 0.3
v 0.1 0.5 0.2
v 0.1 0.5 0.1
v 0 0.7 1.2
v 0 0.7 1.1
v 0 0.7 -1.1
v 0 0.7 -1.2
v -0.2 0.7 1.2
v -0.2 0.7 1.1
v -0.2 0.7 -1.1
v -0.3 0.7 1.2
v -0.3 0.7 1.1
v -0.3 0.7 -1.1
v -0.3 0.7 -1.2
v 0.2 0.8 0.2
v 0.2 0.8 -0.2
v 0.2 0.8 -0.4
v 0.2 0.8 -0.7
v 0.1 0.8 0.2
v 0.1 0.8 -0.2
v 0.1 0.8 -0.4
v 0.1 0.8 -0.5
v 0.1 0.8 -0.7
v -0.3 0.8 1.2
v -0.3 0.8 1
v -0.3 0.8 -1
v -0.3 0.8 -1.2
v -0.5 0.8 1.2
v -0.5 0.8 1
v -0.7 0.8 1.2
v -0.7 0.8 1
v -0.7 0.8 -1
v -0.7 0.8 -1.2
v 0.2 0.9 0.6
v 0.2 0.9 0.4
v 0.1 0.9 0.6
v 0.1 0.9 0.5
v 0.1 0.9 0.4
v 0.2 1 1
v 0.2 1 0.7
v 0.2 1 -0.8
v 0.2 1 -1
v 0.1 1 1
v 0.1 1 0.8
v 0.1 1 0.7
v 0.1 1 -0.8
v 0.1 1 -1
v 0.1 1.4 0.6
v 0.1 1.4 -0.6
v 0 1.4 0.6
v 0 1.4 -0.6
v -0.1 1.4 0.6
v -0.1 1.4 -0.6
v 0 0.5 1.2
v 0 0.5 1.1
v 0 0.5 -1.1
v 0 0.5 -1.2
v -0.1 0.5 1.2
v -0.1 0.5 1.1
v -0.2 0.5 1.1
v -0.2 0.5 -1.1
v -0.2 0.5 -1.2
v -0.3 0.5 1.2
v -0.3 0.5 1.1
v -0.3 0.5 -1.1
v -0.3 0.5 -1.2
v 0.2 0.6 -0.0999999
v 0.2 0.6 -0.4
v 0.1 0.6 -0.0999999
v 0.1 0.6 -0.2
v 0.1 0.6 -0.4
v 0.2 0.7 0.3
v 0.2 0.7 0.1
v 0.2 0.7 -0.5
v 0.2 0.7 -0.6
v 0.2 0.7 -0.9
v 0.1 0.7 0.3
v 0.1 0.7 0.2
v 0.1 0.7 0.1
v 0.1 0.7 -0.5
v 0.1 0.7 -0.6
v 0.1 0.7 -0.8
v 0.1 0.7 -0.9
v 0.2 0.8 0.9
v 0.2 0.8 0.8
v 0.2 0.8 0.4
v 0.1 0.8 0.9
v 0.1 0.8 0.8
v 0.1 0.8 0.5
v 0.1 0.8 0.4
v 0.2 1.1 0.6
v 0.2 1.1 0.4
v 0.2 1.1 0.2
v 0.2 1.1 -0.2
v 0.2 1.1 -0.4
v 0.2 1.1 -0.7
v 0.1 1.1 0.6
v 0.1 1.1 0.5
v 0.1 1.1 0.4
v 0.1 1.1 0.2
v 0.1 1.1 -0.2
v 0.1 1.1 -0.4
v 0.1 1.1 -0.5
v 0.1 1.1 -0.7
v 0.2 1.2 -0.8
v 0.2 1.2 -1
v 0.1 1.2 0.5
v 0.1 1.2 0.2
v 0.1 1.2 -0.2
v 0.1 1.2 -0.5
v 0.1 1.2 -0.8
v 0.1 1.2 -1
v -0.1 1.2 1
v -0.1 1.2 0.5
v -0.1 1.2 0.2
v -0.1 1.2 -0.2
v -0.1 1.2 -0.5
v -0.1 1.2 -1
v -0.2 1.2 1
v -0.3 1.2 1
v -0.3 1.2 -1
v 0.2 1.3 1
v 0.2 1.3 0.7
v 0.1 1.3 1
v 0.1 1.3 0.7
v 0.1 1.3 0.6
v 0.1 1.3 0.5
v 0.1 1.3 -0.5
v 0.1 1.3 -0.6
v -0.1 1.3 0.6
v -0.1 1.3 0.5
v -0.1 1.3 -0.5
v -0.1 1.3 -0.6
v 0.1 1.5 1.1
v 0.1 1.5 1
v 0.1 1.5 -1
v 0.1 1.5 -1.1
v 0 1.5 1.2
v 0 1.5 1.1
v 0 1.5 -1.1
v 0 1.5 -1.2
v -0.1 1.5 1
v -0.1 1.5 -1
v -0.4 1.5 1.2
v -0.4 1.5 1
v -0.4 1.5 -1
v -0.4 1.5 -1.2
v -0.5 1.5 1.2
v -0.5 1.5 1
v -0.5 1.5 -1
v -0.5 1.5 -1.2
v 0.1 1.6 1
v 0.1 1.6 0.8
v 0.1 1.6 0.6
v 0.1 1.6 0.5
v 0.1 1.6 -0.5
v 0.1 1.6 -0.6
v 0.1 1.6 -0.8
v 0.1 1.6 -1
v -0.1 1.6 1
v -0.1 1.6 0.8
v -0.1 1.6 0.6
v -0.1 1.6 0.5
v -0.1 1.6 -0.5
v -0.1 1.6 -0.6
v -0.1 1.6 -0.8
v -0.1 1.6 -1
v 0.1 1.7 0.8
v 0.1 1.7 0.6
v 0.1 1.7 0.5
v 0.1 1.7 -0.5
v 0.1 1.7 -0.6
v 0.1 1.7 -0.8
v -0.1 1.7 0.8
v -0.1 1.7 0.6
v -0.1 1.7 0.5
v -0.1 1.7 -0.5
v -0.1 1.7 -0.6
v -0.1 1.7 -0.8
v -0.5 1.9 1.2
v -0.5 1.9 1
v -0.5 1.9 -1
v -0.5 1.9 -1.2
v -0.7 1.9 1.2
v -0.7 1.9 1
v -0.7 1.9 -1
v -0.7 1.9 -1.2

# faces
f 4/4/1 2/4/1 1/4/1
f 5/6/1 3/6/1 2/6/1
f 5/4/1 2/4/1 4/4/1
f 6/6/1 3/6/1 5/6/1
f 10/6/1 9/6/1 8/6/1
f 13/4/1 8/4/1 7/4/1
f 14/6/1 10/6/1 8/6/1
f 14/4/1 8/4/1 13/4/1
f 14/6/1 11/6/1 10/6/1
f 15/6/1 14/6/1 13/6/1
f 15/6/1 11/6/1 14/6/1
f 16/5/1 12/5/1 11/5/1
f 16/6/1 11/6/1 15/6/1
f 17/6/1 15/6/1 13/6/1
f 18/5/1 16/5/1 15/5/1
f 18/6/1 15/6/1 17/6/1
f 19/5/1 12/5/1 16/5/1
f 19/5/1 16/5/1 18/5/1
f 20/5/1 12/5/1 19/5/1
f 21/5/1 12/5/1 20/5/1
f 24/4/1 23/4/1 22/4/1
f 28/4/1 24/4/1 22/4/1
f 28/4/1 25/4/1 24/4/1
f 28/4/1 26/4/1 25/4/1
f 29/6/1 27/6/1 26/6/1
f 29/4/1 26/4/1 28/4/1
f 30/6/1 27/6/1 29/6/1
f 31/4/1 28/4/1 22/4/1
f 32/4/1 31/4/1 22/4/1
f 33/4/1 31/4/1 32/4/1
f 34/6/1 33/6/1 32/6/1
f 35/6/1 33/6/1 34/6/1
f 38/4/1 37/4/1 36/4/1
f 39/4/1 37/4/1 38/4/1
f 40/4/1 37/4/1 39/4/1
f 43/4/1 42/4/1 41/4/1
f 44/4/1 42/4/1 43/4/1
f 47/6/1 46/6/1 45/6/1
f 48/6/1 46/6/1 47/6/1
f 51/3/1 50/3/1 49/3/1
f 52/3/1 50/3/1 51/3/1
f 53/4/1 52/4/1 51/4/1
f 54/4/1 52/4/1 53/4/1
f 57/6/1 56/6/1 55/6/1
f 58/6/1 56/6/1 57/6/1
f 61/3/1 60/3/1 59/3/1
f 62/3/1 60/3/1 61/3/1
f 65/3/1 64/3/1 63/3/1
f 66/3/1 64/3/1 65/3/1
f 69/6/1 68/6/1 67/6/1
f 70/6/1 68/6/1 69/6/1
f 73/2/1 72/2/1 71/2/1
f 74/2/1 72/2/1 73/2/1
f 77/1/1 76/1/1 75/1/1
f 78/1/1 76/1/1 77/1/1
f 81/1/1 80/1/1 79/1/1
f 82/1/1 80/1/1 81/1/1
f 85/2/1 84/2/1 83/2/1
f 86/2/1 84/2/1 85/2/1
f 89/2/1 88/2/1 87/2/1
f 90/2/1 88/2/1 89/2/1
f 93/3/1 92/3/1 91/3/1
f 94/3/1 92/3/1 93/3/1
f 97/2/1 96/2/1 95/2/1
f 98/2/1 96/2/1 97/2/1
f 101/4/1 100/4/1 99/4/1
f 102/4/1 100/4/1 101/4/1
f 105/4/1 104/4/1 103/4/1
f 106/4/1 104/4/1 105/4/1
f 107/4/1 104/4/1 106/4/1
f 110/6/1 109/6/1 108/6/1
f 111/6/1 109/6/1 110/6/1
f 114/4/1 113/4/1 112/4/1
f 115/4/1 114/4/1 112/4/1
f 116/4/1 114/4/1 115/4/1
f 119/5/1 118/5/1 117/5/1
f 120/5/1 118/5/1 119/5/1
f 122/6/1 120/6/1 119/6/1
f 123/6/1 120/6/1 122/6/1
f 123/6/1 122/6/1 121/6/1
f 124/5/1 118/5/1 120/5/1
f 124/6/1 120/6/1 123/6/1
f 125/6/1 123/6/1 121/6/1
f 126/6/1 123/6/1 125/6/1
f 127/5/1 124/5/1 123/5/1
f 127/6/1 123/6/1 126/6/1
f 128/5/1 118/5/1 124/5/1
f 128/5/1 124/5/1 127/5/1
f 129/5/1 118/5/1 128/5/1
f 130/5/1 118/5/1 129/5/1
f 131/6/2 132/6/2 136/6/2
f 136/6/2 132/6/2 137/6/2
f 132/5/2 133/5/2 138/5/2
f 137/6/2 132/6/2 138/6/2
f 134/4/2 135/4/2 139/4/2
f 136/6/2 137/6/2 140/6/2
f 139/4/2 135/4/2 140/4/2
f 135/6/2 136/6/2 140/6/2
f 139/6/2 140/6/2 141/6/2
f 137/5/2 138/5/2 142/5/2
f 141/6/2 140/6/2 142/6/2
f 140/6/2 137/6/2 142/6/2
f 138/5/2 133/5/2 143/5/2
f 142/5/2 138/5/2 143/5/2
f 143/5/2 133/5/2 144/5/2
f 144/5/2 133/5/2 145/5/2
f 146/4/2 147/4/2 148/4/2
f 146/4/2 148/4/2 149/4/2
f 149/4/2 148/4/2 150/4/2
f 151/4/2 152/4/2 153/4/2
f 153/4/2 152/4/2 154/4/2
f 154/4/2 152/4/2 155/4/2
f 156/6/2 157/6/2 158/6/2
f 158/6/2 157/6/2 159/6/2
f 160/4/2 161/4/2 162/4/2
f 162/4/2 161/4/2 163/4/2
f 164/2/2 165/2/2 166/2/2
f 166/2/2 165/2/2 167/2/2
f 166/3/2 167/3/2 168/3/2
f 168/3/2 167/3/2 169/3/2
f 170/3/2 171/3/2 172/3/2
f 172/3/2 171/3/2 173/3/2
f 174/2/2 175/2/2 176/2/2
f 176/2/2 175/2/2 177/2/2
f 178/2/2 179/2/2 180/2/2
f 180/2/2 179/2/2 181/2/2
f 182/1/2 183/1/2 184/1/2
f 184/1/2 183/1/2 185/1/2
f 186/1/2 187/1/2 188/1/2
f 188/1/2 187/1/2 189/1/2
f 190/2/2 191/2/2 192/2/2
f 192/2/2 191/2/2 193/2/2
f 194/6/2 195/6/2 196/6/2
f 196/6/2 195/6/2 197/6/2
f 198/3/2 199/3/2 200/3/2
f 200/3/2 199/3/2 201/3/2
f 202/3/2 203/3/2 204/3/2
f 204/3/2 203/3/2 205/3/2
f 206/6/2 207/6/2 208/6/2
f 208/6/2 207/6/2 209/6/2
f 210/3/2 211/3/2 212/3/2
f 212/3/2 211/3/2 213/3/2
f 214/4/2 215/4/2 216/4/2
f 216/4/2 215/4/2 217/4/2
f 217/4/2 215/4/2 218/4/2
f 219/4/2 220/4/2 221/4/2
f 221/4/2 220/4/2 222/4/2
f 223/6/2 224/6/2 225/6/2
f 225/6/2 224/6/2 226/6/2
f 227/4/2 228/4/2 229/4/2
f 227/4/2 229/4/2 232/4/2
f 229/4/2 230/4/2 232/4/2
f 230/6/2 231/6/2 233/6/2
f 232/4/2 230/4/2 233/4/2
f 233/6/2 231/6/2 234/6/2
f 227/4/2 232/4/2 235/4/2
f 235/4/2 232/4/2 236/4/2
f 235/6/2 236/6/2 237/6/2
f 237/6/2 236/6/2 238/6/2
f 239/4/2 240/4/2 242/4/2
f 240/6/2 241/6/2 243/6/2
f 242/4/2 240/4/2 243/4/2
f 243/6/2 241/6/2 244/6/2
f 245/6/2 246/6/2 247/6/2
f 245/6/2 247/6/2 249/6/2
f 247/5/2 248/5/2 249/5/2
f 249/5/2 248/5/2 250/5/2
f 249/6/2 250/6/2 251/6/2
f 250/5/2 248/5/2 252/5/2
f 251/6/2 250/6/2 252/6/2
f 245/6/2 249/6/2 253/6/2
f 249/6/2 251/6/2 253/6/2
f 251/5/2 252/5/2 254/5/2
f 253/6/2 251/6/2 254/6/2
f 252/5/2 248/5/2 255/5/2
f 254/5/2 252/5/2 255/5/2
f 255/5/2 248/5/2 256/5/2
f 256/5/2 248/5/2 257/5/2
f 263/3/3 261/3/3 260/3/3
f 263/4/3 262/4/3 261/4/3
f 264/4/3 262/4/3 263/4/3
f 265/4/3 259/4/3 258/4/3
f 266/4/3 259/4/3 265/4/3
f 269/3/3 264/3/3 263/3/3
f 269/3/3 263/3/3 260/3/3
f 270/3/3 264/3/3 269/3/3
f 271/2/3 270/2/3 269/2/3
f 272/3/3 264/3/3 270/3/3
f 272/2/3 270/2/3 271/2/3
f 273/3/3 264/3/3 272/3/3
f 274/3/3 268/3/3 267/3/3
f 275/3/3 268/3/3 274/3/3
f 280/2/3 277/2/3 276/2/3
f 281/2/3 277/2/3 280/2/3
f 284/1/3 279/1/3 278/1/3
f 285/1/3 279/1/3 284/1/3
f 286/2/3 283/2/3 282/2/3
f 287/2/3 283/2/3 286/2/3
f 292/2/3 291/2/3 290/2/3
f 293/2/3 291/2/3 292/2/3
f 294/3/3 289/3/3 288/3/3
f 295/3/3 289/3/3 294/3/3
f 298/3/3 293/3/3 292/3/3
f 299/3/3 293/3/3 298/3/3
f 300/4/3 297/4/3 296/4/3
f 301/4/3 297/4/3 300/4/3
f 306/4/3 303/4/3 302/4/3
f 307/4/3 303/4/3 306/4/3
f 308/6/3 304/6/3 303/6/3
f 308/4/3 303/4/3 307/4/3
f 309/6/3 304/6/3 308/6/3
f 310/6/3 304/6/3 309/6/3
f 312/4/3 307/4/3 306/4/3
f 312/4/3 306/4/3 305/4/3
f 313/4/3 307/4/3 312/4/3
f 314/4/3 307/4/3 313/4/3
f 315/4/3 307/4/3 314/4/3
f 316/4/3 307/4/3 315/4/3
f 317/4/3 307/4/3 316/4/3
f 318/6/3 311/6/3 310/6/3
f 318/6/3 310/6/3 309/6/3
f 318/4/3 309/4/3 308/4/3
f 319/6/3 311/6/3 318/6/3
f 320/6/3 311/6/3 319/6/3
f 323/3/3 313/3/3 312/3/3
f 324/3/3 317/3/3 316/3/3
f 326/4/3 318/4/3 308/4/3
f 326/4/3 319/4/3 318/4/3
f 327/3/3 323/3/3 322/3/3
f 328/3/3 313/3/3 323/3/3
f 328/3/3 323/3/3 327/3/3
f 329/3/3 325/3/3 324/3/3
f 329/3/3 324/3/3 316/3/3
f 330/3/3 325/3/3 329/3/3
f 331/4/3 326/4/3 325/4/3
f 331/4/3 319/4/3 326/4/3
f 332/4/3 319/4/3 331/4/3
f 333/6/3 321/6/3 320/6/3
f 333/6/3 320/6/3 319/6/3
f 334/6/3 321/6/3 333/6/3
f 335/2/3 328/2/3 327/2/3
f 336/3/3 329/3/3 316/3/3
f 337/3/3 329/3/3 336/3/3
f 338/3/3 325/3/3 330/3/3
f 339/4/3 331/4/3 325/4/3
f 339/3/3 325/3/3 338/3/3
f 340/4/3 331/4/3 339/4/3
f 341/6/3 333/6/3 319/6/3
f 343/2/3 335/2/3 327/2/3
f 345/2/3 337/2/3 336/2/3
f 346/2/3 337/2/3 345/2/3
f 347/2/3 339/2/3 338/2/3
f 348/4/3 319/4/3 332/4/3
f 348/6/3 342/6/3 341/6/3
f 348/6/3 341/6/3 319/6/3
f 349/6/3 342/6/3 348/6/3
f 350/2/3 344/2/3 343/2/3
f 350/2/3 347/2/3 346/2/3
f 350/2/3 346/2/3 345/2/3
f 350/2/3 343/2/3 327/2/3
f 350/2/3 345/2/3 344/2/3
f 351/2/3 347/2/3 350/2/3
f 352/2/3 347/2/3 351/2/3
f 353/2/3 347/2/3 352/2/3
f 355/2/3 352/2/3 351/2/3
f 356/2/3 352/2/3 355/2/3
f 357/2/3 347/2/3 353/2/3
f 358/2/3 347/2/3 357/2/3
f 359/2/3 339/2/3 347/2/3
f 359/2/3 347/2/3 358/2/3
f 360/2/3 339/2/3 359/2/3
f 361/1/3 356/1/3 355/1/3
f 361/1/3 355/1/3 354/1/3
f 362/1/3 358/1/3 357/1/3
f 363/1/3 361/1/3 354/1/3
f 363/1/3 362/1/3 361/1/3
f 364/1/3 362/1/3 363/1/3
f 365/1/3 363/1/3 354/1/3
f 366/1/3 363/1/3 365/1/3
f 367/1/3 363/1/3 366/1/3
f 368/1/3 362/1/3 364/1/3
f 369/1/3 358/1/3 362/1/3
f 369/1/3 362/1/3 368/1/3
f 370/1/3 360/1/3 359/1/3
f 371/1/3 360/1/3 370/1/3
f 373/2/3 367/2/3 366/2/3
f 374/2/3 367/2/3 373/2/3
f 374/2/3 373/2/3 372/2/3
f 375/2/3 369/2/3 368/2/3
f 375/2/3 371/2/3 370/2/3
f 375/2/3 370/2/3 369/2/3
f 376/2/3 371/2/3 375/2/3
f 377/2/3 371/2/3 376/2/3
f 378/4/3 349/4/3 348/4/3
f 378/4/3 348/4/3 332/4/3
f 379/6/3 342/6/3 349/6/3
f 379/4/3 349/4/3 378/4/3
f 380/2/3 376/2/3 375/2/3
f 380/2/3 374/2/3 372/2/3
f 380/2/3 375/2/3 374/2/3
f 381/2/3 376/2/3 380/2/3
f 382/2/3 376/2/3 381/2/3
f 383/2/3 376/2/3 382/2/3
f 384/2/3 371/2/3 377/2/3
f 385/2/3 371/2/3 384/2/3
f 387/6/3 342/6/3 379/6/3
f 387/6/3 379/6/3 378/6/3
f 388/6/3 342/6/3 387/6/3
f 389/3/3 381/3/3 380/3/3
f 390/3/3 383/3/3 382/3/3
f 391/4/3 386/4/3 385/4/3
f 392/4/3 378/4/3 332/4/3
f 393/6/3 387/6/3 378/6/3
f 395/3/3 389/3/3 380/3/3
f 396/3/3 389/3/3 395/3/3
f 397/3/3 383/3/3 390/3/3
f 398/3/3 385/3/3 384/3/3
f 399/4/3 391/4/3 385/4/3
f 399/4/3 392/4/3 391/4/3
f 399/3/3 385/3/3 398/3/3
f 400/3/3 389/3/3 396/3/3
f 401/3/3 389/3/3 400/3/3
f 402/3/3 398/3/3 397/3/3
f 402/3/3 397/3/3 390/3/3
f 403/3/3 398/3/3 402/3/3
f 404/4/3 399/4/3 398/4/3
f 404/3/3 398/3/3 403/3/3
f 405/4/3 392/4/3 399/4/3
f 405/4/3 399/4/3 404/4/3
f 406/4/3 378/4/3 392/4/3
f 406/4/3 392/4/3 405/4/3
f 407/6/3 394/6/3 393/6/3
f 407/4/3 378/4/3 406/4/3
f 407/6/3 393/6/3 378/6/3
f 408/6/3 394/6/3 407/6/3
f 409/6/3 394/6/3 408/6/3
f 410/4/3 401/4/3 400/4/3
f 411/4/3 403/4/3 402/4/3
f 412/4/3 410/4/3 400/4/3
f 412/4/3 411/4/3 410/4/3
f 413/4/3 411/4/3 412/4/3
f 414/4/3 403/4/3 411/4/3
f 414/4/3 411/4/3 413/4/3
f 415/4/3 406/4/3 405/4/3
f 416/4/3 406/4/3 415/4/3
f 417/6/3 408/6/3 407/6/3
f 417/4/3 406/4/3 416/4/3
f 417/6/3 407/6/3 406/6/3
f 418/6/3 408/6/3 417/6/3
f 419/6/3 408/6/3 418/6/3
f 420/4/3 414/4/3 413/4/3
f 420/4/3 416/4/3 415/4/3
f 420/4/3 415/4/3 414/4/3
f 421/6/3 418/6/3 417/6/3
f 421/4/3 416/4/3 420/4/3
f 421/6/3 417/6/3 416/6/3
f 422/6/3 418/6/3 421/6/3
f 428/4/3 424/4/3 423/4/3
f 429/4/3 424/4/3 428/4/3
f 430/4/3 426/4/3 425/4/3
f 431/6/3 427/6/3 426/6/3
f 431/4/3 426/4/3 430/4/3
f 432/6/3 427/6/3 431/6/3
f 433/6/3 427/6/3 432/6/3
f 439/4/3 435/4/3 434/4/3
f 440/4/3 435/4/3 439/4/3
f 441/6/3 438/6/3 437/6/3
f 441/6/3 437/6/3 436/6/3
f 442/6/3 438/6/3 441/6/3
f 445/5/3 444/5/3 443/5/3
f 446/5/3 444/5/3 445/5/3
f 449/5/3 448/5/3 447/5/3
f 450/5/3 448/5/3 449/5/3
f 452/6/4 453/6/4 455/6/4
f 453/6/4 454/6/4 455/6/4
f 451/4/4 452/4/4 457/4/4
f 455/6/4 456/6/4 458/6/4
f 457/4/4 452/4/4 458/4/4
f 452/6/4 455/6/4 458/6/4
f 458/6/4 456/6/4 459/6/4
f 459/6/4 456/6/4 460/6/4
f 451/4/4 457/4/4 461/4/4
f 461/4/4 457/4/4 462/4/4
f 458/6/4 459/6/4 463/6/4
f 463/6/4 464/6/4 467/6/4
f 458/6/4 463/6/4 467/6/4
f 467/6/4 464/6/4 468/6/4
f 465/4/4 466/4/4 469/4/4
f 458/6/4 467/6/4 470/6/4
f 470/6/4 467/6/4 471/6/4
f 470/6/4 471/6/4 473/6/4
f 471/6/4 472/6/4 473/6/4
f 473/6/4 472/6/4 474/6/4
f 465/4/4 469/4/4 475/4/4
f 469/4/4 470/4/4 475/4/4
f 470/6/4 473/6/4 476/6/4
f 475/4/4 470/4/4 476/4/4
f 476/6/4 473/6/4 477/6/4
f 477/6/4 473/6/4 478/6/4
f 479/6/4 480/6/4 483/6/4
f 481/6/4 482/6/4 484/6/4
f 479/6/4 483/6/4 486/6/4
f 483/6/4 484/6/4 486/6/4
f 484/6/4 482/6/4 487/6/4
f 486/6/4 484/6/4 487/6/4
f 485/4/4 486/4/4 489/4/4
f 487/4/4 488/4/4 489/4/4
f 486/4/4 487/4/4 489/4/4
f 489/4/4 488/4/4 490/4/4
f 489/3/4 490/3/4 492/3/4
f 490/4/4 488/4/4 493/4/4
f 492/3/4 490/3/4 493/3/4
f 491/3/4 492/3/4 494/3/4
f 492/4/4 493/4/4 495/4/4
f 494/3/4 492/3/4 495/3/4
f 494/2/4 495/2/4 496/2/4
f 495/4/4 493/4/4 497/4/4
f 496/2/4 495/2/4 497/2/4
f 493/4/4 488/4/4 498/4/4
f 497/4/4 493/4/4 498/4/4
f 497/2/4 498/2/4 500/2/4
f 498/4/4 488/4/4 501/4/4
f 500/2/4 498/2/4 501/2/4
f 499/1/4 500/1/4 502/1/4
f 500/4/4 501/4/4 503/4/4
f 502/1/4 500/1/4 503/1/4
f 501/4/4 488/4/4 504/4/4
f 503/4/4 501/4/4 504/4/4
f 503/2/4 504/2/4 506/2/4
f 504/4/4 488/4/4 507/4/4
f 506/2/4 504/2/4 507/2/4
f 505/2/4 506/2/4 508/2/4
f 506/4/4 507/4/4 509/4/4
f 508/2/4 506/2/4 509/2/4
f 508/3/4 509/3/4 510/3/4
f 509/4/4 507/4/4 511/4/4
f 510/3/4 509/3/4 511/3/4
f 507/4/4 488/4/4 512/4/4
f 511/4/4 507/4/4 512/4/4
f 511/3/4 512/3/4 513/3/4
f 512/4/4 488/4/4 514/4/4
f 513/3/4 512/3/4 514/3/4
f 513/4/4 514/4/4 515/4/4
f 514/4/4 488/4/4 516/4/4
f 515/4/4 514/4/4 516/4/4
f 516/4/4 488/4/4 517/4/4
f 517/4/4 488/4/4 518/4/4
f 518/4/4 488/4/4 519/4/4
f 516/6/4 517/6/4 520/6/4
f 520/6/4 517/6/4 521/6/4
f 516/6/4 520/6/4 522/6/4
f 522/6/4 520/6/4 523/6/4
f 521/6/4 517/6/4 524/6/4
f 524/6/4 517/6/4 525/6/4
f 526/5/4 527/5/4 528/5/4
f 528/5/4 527/5/4 529/5/4
f 530/5/4 531/5/4 532/5/4
f 532/5/4 531/5/4 533/5/4
f 542/3/5 535/3/5 534/3/5
f 543/2/5 536/2/5 535/2/5
f 543/3/5 535/3/5 542/3/5
f 544/2/5 536/2/5 543/2/5
f 545/1/5 538/1/5 537/1/5
f 546/1/5 538/1/5 545/1/5
f 547/2/5 540/2/5 539/2/5
f 548/3/5 541/3/5 540/3/5
f 548/2/5 540/2/5 547/2/5
f 549/3/5 541/3/5 548/3/5
f 560/4/5 551/4/5 550/4/5
f 561/3/5 552/3/5 551/3/5
f 561/4/5 551/4/5 560/4/5
f 562/3/5 552/3/5 561/3/5
f 563/2/5 554/2/5 553/2/5
f 564/2/5 554/2/5 563/2/5
f 565/2/5 556/2/5 555/2/5
f 566/2/5 556/2/5 565/2/5
f 567/3/5 558/3/5 557/3/5
f 568/4/5 559/4/5 558/4/5
f 568/3/5 558/3/5 567/3/5
f 569/4/5 559/4/5 568/4/5
f 575/4/5 571/4/5 570/4/5
f 576/4/5 573/4/5 572/4/5
f 578/4/5 575/4/5 574/4/5
f 579/4/5 571/4/5 575/4/5
f 579/4/5 575/4/5 578/4/5
f 580/6/5 579/6/5 578/6/5
f 580/4/5 571/4/5 579/4/5
f 581/4/5 571/4/5 580/4/5
f 582/4/5 577/4/5 576/4/5
f 582/4/5 576/4/5 572/4/5
f 583/4/5 577/4/5 582/4/5
f 584/6/5 581/6/5 580/6/5
f 584/6/5 580/6/5 578/6/5
f 585/6/5 581/6/5 584/6/5
f 586/6/5 583/6/5 582/6/5
f 587/6/5 583/6/5 586/6/5
f 596/3/5 589/3/5 588/3/5
f 597/3/5 589/3/5 596/3/5
f 598/2/5 590/2/5 589/2/5
f 598/3/5 589/3/5 597/3/5
f 599/2/5 590/2/5 598/2/5
f 600/2/5 592/2/5 591/2/5
f 601/2/5 592/2/5 600/2/5
f 602/2/5 592/2/5 601/2/5
f 603/2/5 594/2/5 593/2/5
f 604/3/5 595/3/5 594/3/5
f 604/2/5 594/2/5 603/2/5
f 605/3/5 595/3/5 604/3/5
f 606/3/5 595/3/5 605/3/5
f 609/2/5 608/2/5 607/2/5
f 610/2/5 608/2/5 609/2/5
f 611/2/5 608/2/5 610/2/5
f 616/4/5 613/4/5 612/4/5
f 617/4/5 613/4/5 616/4/5
f 618/6/5 615/6/5 614/6/5
f 619/6/5 617/6/5 616/6/5
f 620/6/5 617/6/5 619/6/5
f 621/6/5 615/6/5 618/6/5
f 622/6/5 615/6/5 621/6/5
f 627/1/5 624/1/5 623/1/5
f 628/1/5 624/1/5 627/1/5
f 629/3/5 626/3/5 625/3/5
f 630/3/5 626/3/5 629/3/5
f 631/3/5 626/3/5 630/3/5
f 636/6/5 633/6/5 632/6/5
f 637/6/5 633/6/5 636/6/5
f 638/5/5 637/5/5 636/5/5
f 639/5/5 637/5/5 638/5/5
f 640/5/5 635/5/5 634/5/5
f 641/5/5 635/5/5 640/5/5
f 644/3/5 643/3/5 642/3/5
f 645/3/5 643/3/5 644/3/5
f 646/3/5 643/3/5 645/3/5
f 651/4/5 648/4/5 647/4/5
f 652/4/5 648/4/5 651/4/5
f 653/4/5 648/4/5 652/4/5
f 654/4/5 650/4/5 649/4/5
f 655/4/5 650/4/5 654/4/5
f 658/4/5 657/4/5 656/4/5
f 659/4/5 657/4/5 658/4/5
f 660/6/5 659/6/5 658/6/5
f 661/6/5 659/6/5 660/6/5
f 662/4/6 663/4/6 666/4/6
f 666/4/6 663/4/6 667/4/6
f 666/6/6 667/6/6 668/6/6
f 664/4/6 665/4/6 669/4/6
f 669/4/6 665/4/6 670/4/6
f 666/6/6 668/6/6 671/6/6
f 671/6/6 668/6/6 672/6/6
f 669/6/6 670/6/6 673/6/6
f 673/6/6 670/6/6 674/6/6
f 675/2/6 676/2/6 677/2/6
f 677/2/6 676/2/6 678/2/6
f 678/2/6 676/2/6 679/2/6
f 680/2/6 681/2/6 685/2/6
f 685/2/6 681/2/6 686/2/6
f 686/2/6 681/2/6 687/2/6
f 682/2/6 683/2/6 688/2/6
f 683/3/6 684/3/6 689/3/6
f 688/2/6 683/2/6 689/2/6
f 689/3/6 684/3/6 690/3/6
f 690/3/6 684/3/6 691/3/6
f 692/4/6 693/4/6 695/4/6
f 693/3/6 694/3/6 696/3/6
f 695/4/6 693/4/6 696/4/6
f 696/3/6 694/3/6 697/3/6
f 697/3/6 694/3/6 698/3/6
f 699/3/6 700/3/6 705/3/6
f 705/3/6 700/3/6 706/3/6
f 706/3/6 700/3/6 707/3/6
f 701/1/6 702/1/6 708/1/6
f 708/1/6 702/1/6 709/1/6
f 703/3/6 704/3/6 710/3/6
f 710/3/6 704/3/6 711/3/6
f 711/3/6 704/3/6 712/3/6
f 713/4/6 714/4/6 719/4/6
f 719/4/6 714/4/6 720/4/6
f 715/2/6 716/2/6 722/2/6
f 716/1/6 717/1/6 723/1/6
f 722/2/6 716/2/6 723/2/6
f 717/2/6 718/2/6 724/2/6
f 723/1/6 717/1/6 724/1/6
f 724/2/6 718/2/6 725/2/6
f 722/4/6 723/4/6 727/4/6
f 725/4/6 726/4/6 727/4/6
f 724/4/6 725/4/6 727/4/6
f 723/4/6 724/4/6 727/4/6
f 721/4/6 722/4/6 727/4/6
f 727/4/6 726/4/6 728/4/6
f 728/4/6 726/4/6 729/4/6
f 730/4/6 731/4/6 732/4/6
f 732/4/6 731/4/6 733/4/6
f 734/4/6 735/4/6 738/4/6
f 738/4/6 735/4/6 739/4/6
f 736/4/6 737/4/6 740/4/6
f 740/4/6 737/4/6 741/4/6
f 742/6/6 743/6/6 747/6/6
f 744/6/6 745/6/6 748/6/6
f 746/6/6 747/6/6 750/6/6
f 747/6/6 743/6/6 750/6/6
f 748/6/6 749/6/6 751/6/6
f 744/6/6 748/6/6 751/6/6
f 746/6/6 750/6/6 752/6/6
f 752/6/6 750/6/6 753/6/6
f 751/6/6 749/6/6 754/6/6
f 754/6/6 749/6/6 755/6/6
f 752/5/6 753/5/6 756/5/6
f 756/5/6 753/5/6 757/5/6
f 754/5/6 755/5/6 758/5/6
f 758/5/6 755/5/6 759/5/6
f 760/6/6 761/6/6 768/6/6
f 768/6/6 761/6/6 769/6/6
f 762/6/6 763/6/6 770/6/6
f 770/6/6 763/6/6 771/6/6
f 764/6/6 765/6/6 772/6/6
f 772/6/6 765/6/6 773/6/6
f 766/6/6 767/6/6 774/6/6
f 774/6/6 767/6/6 775/6/6
f 776/6/6 777/6/6 782/6/6
f 782/6/6 777/6/6 783/6/6
f 778/6/6 779/6/6 784/6/6
f 784/6/6 779/6/6 785/6/6
f 780/6/6 781/6/6 786/6/6
f 786/6/6 781/6/6 787/6/6
f 788/5/6 789/5/6 792/5/6
f 792/5/6 789/5/6 793/5/6
f 790/5/6 791/5/6 794/5/6
f 794/5/6 791/5/6 795/5/6
