# MagicaVoxel @ Ephtracy

# group
o 

# material
mtllib model.mtl
usemtl palette

# normals
vn 0 0 1
vn 0 0 -1
vn 1 0 0
vn -1 0 0
vn 0 -1 0
vn 0 1 0

# texcoords
vt 0.0292969 0.5
vt 0.755859 0.5
vt 0.759766 0.5

# verts
v 0.1 0 1.3
v -0.7 0 1.3
v -0.8 0 1.3
v 0.5 0.8 1.3
v 0.4 0.8 1.3
v 0.1 0.8 1.3
v 0.5 1.6 1.3
v 0.4 1.6 1.3
v -0.7 1.6 1.3
v -0.8 1.6 1.3
v 0.4 2 1.3
v 0.1 2 1.3
v -0.7 2 1.3
v 0.5 2.1 1.3
v 0.1 2.1 1.3
v -0.7 2.1 1.3
v -0.8 2.1 1.3
v 0.5 2.1 1.2
v 0.4 2.1 1.2
v 0.1 2.1 1.2
v -0.3 2.1 1.2
v -0.6 2.1 1.2
v -0.7 2.1 1.2
v -0.8 2.1 1.2
v 0.5 2.2 1.2
v 0.4 2.2 1.2
v -0.3 2.2 1.2
v -0.6 2.2 1.2
v -0.8 2.2 1.2
v 0.8 1.9 0.6
v 0.7 1.9 0.6
v 0.5 1.9 0.6
v 0.5 2.1 0.6
v 0.5 2.2 0.6
v 0.4 2.2 0.6
v -0.3 2.2 0.6
v 0.7 2.3 0.6
v -0.3 2.3 0.6
v 0.8 2.4 0.6
v -0.3 2.4 0.6
v 0.8 2.4 0.5
v 0.7 2.4 0.5
v 0.2 2.4 0.5
v 0 2.4 0.5
v -0.3 2.4 0.5
v 0.8 2.5 0.5
v 0.7 2.5 0.5
v 0.2 2.5 0.5
v 0 2.5 0.5
v -0.3 2.5 0.5
v 0.8 2.4 -0.5
v 0.7 2.4 -0.5
v 0.5 2.4 -0.5
v -0.3 2.4 -0.5
v 0.8 2.5 -0.5
v 0.5 2.5 -0.5
v -0.3 2.5 -0.5
v 0.8 1.9 -0.6
v 0.7 1.9 -0.6
v 0.5 1.9 -0.6
v 0.5 2.1 -0.6
v 0.8 2.2 -0.6
v 0.7 2.2 -0.6
v 0.5 2.2 -0.6
v 0.4 2.2 -0.6
v -0.3 2.2 -0.6
v 0.7 2.3 -0.6
v -0.3 2.3 -0.6
v 0.8 2.4 -0.6
v 0.7 2.4 -0.6
v -0.3 2.4 -0.6
v 0.5 2.1 -1.2
v 0.4 2.1 -1.2
v 0.2 2.1 -1.2
v -0.5 2.1 -1.2
v -0.7 2.1 -1.2
v -0.8 2.1 -1.2
v 0.5 2.2 -1.2
v 0.4 2.2 -1.2
v -0.5 2.2 -1.2
v -0.8 2.2 -1.2
v 0.1 0 -1.3
v -0.7 0 -1.3
v -0.8 0 -1.3
v 0.5 0.8 -1.3
v 0.4 0.8 -1.3
v 0.1 0.8 -1.3
v -0.7 0.9 -1.3
v -0.8 0.9 -1.3
v -0.7 1.2 -1.3
v -0.8 1.2 -1.3
v -0.7 1.6 -1.3
v -0.8 1.6 -1.3
v 0.5 1.7 -1.3
v 0.4 1.7 -1.3
v 0.4 2 -1.3
v 0.2 2 -1.3
v -0.7 2 -1.3
v 0.5 2.1 -1.3
v 0.2 2.1 -1.3
v -0.7 2.1 -1.3
v -0.8 2.1 -1.3
v 0.8 1.9 0.6
v 0.8 2.4 0.6
v 0.8 1.9 0.5
v 0.8 2.4 0.5
v 0.8 2.5 0.5
v 0.8 2.4 0.1
v 0.8 2.5 0.1
v 0.8 2.4 -0.4
v 0.8 2.5 -0.4
v 0.8 1.9 -0.5
v 0.8 2.2 -0.5
v 0.8 2.4 -0.5
v 0.8 2.5 -0.5
v 0.8 1.9 -0.6
v 0.8 2.2 -0.6
v 0.8 2.4 -0.6
v 0.5 0.8 1.3
v 0.5 1.6 1.3
v 0.5 2.1 1.3
v 0.5 0.8 1.2
v 0.5 1.6 1.2
v 0.5 2.1 1.2
v 0.5 2.2 1.2
v 0.5 2.1 0.8
v 0.5 2.2 0.8
v 0.5 1.9 0.6
v 0.5 2.1 0.6
v 0.5 2.2 0.6
v 0.5 1.9 -0.6
v 0.5 2.1 -0.6
v 0.5 2.2 -0.6
v 0.5 2.1 -0.9
v 0.5 2.2 -0.9
v 0.5 0.8 -1.2
v 0.5 1.7 -1.2
v 0.5 2.1 -1.2
v 0.5 2.2 -1.2
v 0.5 0.8 -1.3
v 0.5 1.7 -1.3
v 0.5 2.1 -1.3
v 0.1 0 1.3
v 0.1 0.8 1.3
v 0.1 0 -1.3
v 0.1 0.8 -1.3
v -0.3 2.2 0.6
v -0.3 2.3 0.6
v -0.3 2.4 0.6
v -0.3 2.3 0.5
v -0.3 2.4 0.5
v -0.3 2.5 0.5
v -0.3 2.4 0.4
v -0.3 2.5 0.4
v -0.3 2.4 -0.4
v -0.3 2.5 -0.4
v -0.3 2.3 -0.5
v -0.3 2.4 -0.5
v -0.3 2.5 -0.5
v -0.3 2.2 -0.6
v -0.3 2.3 -0.6
v -0.3 2.4 -0.6
v -0.8 0 1.3
v -0.8 1.6 1.3
v -0.8 2.1 1.3
v -0.8 0 1.2
v -0.8 1.6 1.2
v -0.8 2.1 1.2
v -0.8 2.2 1.2
v -0.8 2.1 0.7
v -0.8 2.2 0.7
v -0.8 2.1 0.3
v -0.8 2.2 0.3
v -0.8 2.1 -0.8
v -0.8 2.2 -0.8
v -0.8 0 -1.2
v -0.8 0.9 -1.2
v -0.8 1.2 -1.2
v -0.8 1.6 -1.2
v -0.8 2.1 -1.2
v -0.8 2.2 -1.2
v -0.8 0 -1.3
v -0.8 0.9 -1.3
v -0.8 1.2 -1.3
v -0.8 1.6 -1.3
v -0.8 2.1 -1.3
v 0.1 0 1.3
v 0.1 0 -1.3
v -0.7 0 1.3
v -0.7 0 1.2
v -0.7 0 -1.2
v -0.7 0 -1.3
v -0.8 0 1.3
v -0.8 0 1.2
v -0.8 0 -1.2
v -0.8 0 -1.3
v 0.5 0.8 1.3
v 0.5 0.8 1.2
v 0.5 0.8 -1.2
v 0.5 0.8 -1.3
v 0.4 0.8 1.3
v 0.4 0.8 1.2
v 0.4 0.8 -1.2
v 0.4 0.8 -1.3
v 0.1 0.8 1.3
v 0.1 0.8 -1.3
v 0.8 1.9 0.6
v 0.8 1.9 0.5
v 0.8 1.9 -0.5
v 0.8 1.9 -0.6
v 0.7 1.9 0.6
v 0.7 1.9 0.5
v 0.7 1.9 -0.5
v 0.7 1.9 -0.6
v 0.5 1.9 0.6
v 0.5 1.9 -0.6
v 0.5 2.1 1.3
v 0.5 2.1 1.2
v 0.5 2.1 -1.2
v 0.5 2.1 -1.3
v 0.4 2.1 1.2
v 0.4 2.1 -1.2
v 0.2 2.1 -1.2
v 0.2 2.1 -1.3
v 0.1 2.1 1.3
v 0.1 2.1 1.2
v -0.3 2.1 1.2
v -0.5 2.1 -1.2
v -0.6 2.1 1.2
v -0.7 2.1 1.3
v -0.7 2.1 1.2
v -0.7 2.1 -1.2
v -0.7 2.1 -1.3
v -0.8 2.1 1.3
v -0.8 2.1 1.2
v -0.8 2.1 -1.2
v -0.8 2.1 -1.3
v 0.5 2.2 1.2
v 0.5 2.2 0.8
v 0.5 2.2 0.6
v 0.5 2.2 -0.6
v 0.5 2.2 -0.9
v 0.5 2.2 -1.2
v 0.4 2.2 1.2
v 0.4 2.2 1.1
v 0.4 2.2 0.8
v 0.4 2.2 0.6
v 0.4 2.2 -0.6
v 0.4 2.2 -0.9
v 0.4 2.2 -1.1
v 0.4 2.2 -1.2
v -0.3 2.2 1.2
v -0.3 2.2 1.1
v -0.3 2.2 0.6
v -0.3 2.2 -0.6
v -0.5 2.2 -1.1
v -0.5 2.2 -1.2
v -0.6 2.2 1.2
v -0.6 2.2 1.1
v -0.7 2.2 1.1
v -0.7 2.2 0.7
v -0.7 2.2 0.3
v -0.7 2.2 -0.8
v -0.7 2.2 -1.1
v -0.8 2.2 1.2
v -0.8 2.2 0.7
v -0.8 2.2 0.3
v -0.8 2.2 -0.8
v -0.8 2.2 -1.2
v 0.8 2.4 0.6
v 0.8 2.4 0.5
v 0.8 2.4 -0.5
v 0.8 2.4 -0.6
v 0.7 2.4 0.5
v 0.7 2.4 -0.5
v 0.7 2.4 -0.6
v 0.5 2.4 -0.5
v 0.2 2.4 0.5
v 0 2.4 0.5
v -0.3 2.4 0.6
v -0.3 2.4 0.5
v -0.3 2.4 -0.5
v -0.3 2.4 -0.6
v 0.8 2.5 0.5
v 0.8 2.5 0.1
v 0.8 2.5 -0.4
v 0.8 2.5 -0.5
v 0.7 2.5 0.5
v 0.7 2.5 0.4
v 0.7 2.5 0.1
v 0.7 2.5 -0.4
v 0.5 2.5 -0.4
v 0.5 2.5 -0.5
v 0.2 2.5 0.5
v 0.2 2.5 0.4
v 0 2.5 0.5
v 0 2.5 0.4
v -0.3 2.5 0.5
v -0.3 2.5 0.4
v -0.3 2.5 -0.4
v -0.3 2.5 -0.5

# faces
f 6/2/1 2/2/1 1/2/1
f 7/3/1 5/3/1 4/3/1
f 8/2/1 6/2/1 5/2/1
f 8/3/1 5/3/1 7/3/1
f 9/3/1 3/3/1 2/3/1
f 9/2/1 6/2/1 8/2/1
f 9/2/1 2/2/1 6/2/1
f 10/3/1 3/3/1 9/3/1
f 11/1/1 8/1/1 7/1/1
f 11/2/1 9/2/1 8/2/1
f 12/2/1 9/2/1 11/2/1
f 13/1/1 10/1/1 9/1/1
f 13/2/1 9/2/1 12/2/1
f 14/1/1 12/1/1 11/1/1
f 14/1/1 11/1/1 7/1/1
f 15/3/1 13/3/1 12/3/1
f 15/1/1 12/1/1 14/1/1
f 16/1/1 10/1/1 13/1/1
f 16/3/1 13/3/1 15/3/1
f 17/1/1 10/1/1 16/1/1
f 25/1/1 19/1/1 18/1/1
f 26/3/1 20/3/1 19/3/1
f 26/1/1 19/1/1 25/1/1
f 26/3/1 21/3/1 20/3/1
f 27/1/1 22/1/1 21/1/1
f 27/3/1 21/3/1 26/3/1
f 28/3/1 24/3/1 23/3/1
f 28/1/1 22/1/1 27/1/1
f 28/3/1 23/3/1 22/3/1
f 29/3/1 24/3/1 28/3/1
f 33/2/1 32/2/1 31/2/1
f 34/2/1 33/2/1 31/2/1
f 37/3/1 31/3/1 30/3/1
f 37/2/1 36/2/1 35/2/1
f 37/2/1 35/2/1 34/2/1
f 37/2/1 34/2/1 31/2/1
f 38/2/1 36/2/1 37/2/1
f 39/3/1 37/3/1 30/3/1
f 39/3/1 38/3/1 37/3/1
f 40/3/1 38/3/1 39/3/1
f 46/1/1 42/1/1 41/1/1
f 47/3/1 43/3/1 42/3/1
f 47/1/1 42/1/1 46/1/1
f 48/1/1 44/1/1 43/1/1
f 48/3/1 43/3/1 47/3/1
f 49/3/1 45/3/1 44/3/1
f 49/1/1 44/1/1 48/1/1
f 50/3/1 45/3/1 49/3/1
f 51/1/2 52/1/2 55/1/2
f 52/1/2 53/1/2 55/1/2
f 53/3/2 54/3/2 56/3/2
f 55/1/2 53/1/2 56/1/2
f 56/3/2 54/3/2 57/3/2
f 59/2/2 60/2/2 61/2/2
f 58/3/2 59/3/2 62/3/2
f 59/2/2 61/2/2 63/2/2
f 62/3/2 59/3/2 63/3/2
f 63/2/2 61/2/2 64/2/2
f 63/2/2 64/2/2 67/2/2
f 65/2/2 66/2/2 67/2/2
f 64/2/2 65/2/2 67/2/2
f 62/1/2 63/1/2 67/1/2
f 67/2/2 66/2/2 68/2/2
f 62/1/2 67/1/2 69/1/2
f 67/3/2 68/3/2 70/3/2
f 69/1/2 67/1/2 70/1/2
f 70/3/2 68/3/2 71/3/2
f 72/1/2 73/1/2 78/1/2
f 73/3/2 74/3/2 79/3/2
f 78/1/2 73/1/2 79/1/2
f 74/3/2 75/3/2 79/3/2
f 76/1/2 77/1/2 80/1/2
f 79/3/2 75/3/2 80/3/2
f 75/1/2 76/1/2 80/1/2
f 80/1/2 77/1/2 81/1/2
f 82/2/2 83/2/2 87/2/2
f 83/3/2 84/3/2 88/3/2
f 86/2/2 87/2/2 88/2/2
f 87/2/2 83/2/2 88/2/2
f 88/3/2 84/3/2 89/3/2
f 86/2/2 88/2/2 90/2/2
f 88/1/2 89/1/2 90/1/2
f 90/1/2 89/1/2 91/1/2
f 86/2/2 90/2/2 92/2/2
f 90/3/2 91/3/2 92/3/2
f 92/3/2 91/3/2 93/3/2
f 85/3/2 86/3/2 94/3/2
f 86/2/2 92/2/2 95/2/2
f 94/3/2 86/3/2 95/3/2
f 94/1/2 95/1/2 96/1/2
f 95/2/2 92/2/2 96/2/2
f 96/2/2 92/2/2 97/2/2
f 92/1/2 93/1/2 98/1/2
f 97/2/2 92/2/2 98/2/2
f 96/1/2 97/1/2 99/1/2
f 94/1/2 96/1/2 99/1/2
f 97/3/2 98/3/2 100/3/2
f 99/1/2 97/1/2 100/1/2
f 98/1/2 93/1/2 101/1/2
f 100/3/2 98/3/2 101/3/2
f 101/1/2 93/1/2 102/1/2
f 105/3/3 104/3/3 103/3/3
f 106/3/3 104/3/3 105/3/3
f 108/2/3 106/2/3 105/2/3
f 108/1/3 107/1/3 106/1/3
f 109/1/3 107/1/3 108/1/3
f 110/2/3 108/2/3 105/2/3
f 110/3/3 109/3/3 108/3/3
f 111/3/3 109/3/3 110/3/3
f 112/2/3 110/2/3 105/2/3
f 113/2/3 110/2/3 112/2/3
f 114/1/3 111/1/3 110/1/3
f 114/2/3 110/2/3 113/2/3
f 115/1/3 111/1/3 114/1/3
f 116/3/3 113/3/3 112/3/3
f 117/1/3 114/1/3 113/1/3
f 117/3/3 113/3/3 116/3/3
f 118/1/3 114/1/3 117/1/3
f 122/3/3 120/3/3 119/3/3
f 123/1/3 121/1/3 120/1/3
f 123/3/3 120/3/3 122/3/3
f 124/1/3 121/1/3 123/1/3
f 126/2/3 123/2/3 122/2/3
f 126/1/3 125/1/3 124/1/3
f 126/2/3 124/2/3 123/2/3
f 127/1/3 125/1/3 126/1/3
f 128/2/3 126/2/3 122/2/3
f 129/3/3 127/3/3 126/3/3
f 129/2/3 126/2/3 128/2/3
f 130/3/3 127/3/3 129/3/3
f 131/2/3 128/2/3 122/2/3
f 134/2/3 132/2/3 131/2/3
f 134/3/3 133/3/3 132/3/3
f 135/3/3 133/3/3 134/3/3
f 136/2/3 131/2/3 122/2/3
f 136/2/3 134/2/3 131/2/3
f 137/2/3 134/2/3 136/2/3
f 138/1/3 135/1/3 134/1/3
f 138/2/3 134/2/3 137/2/3
f 139/1/3 135/1/3 138/1/3
f 140/3/3 137/3/3 136/3/3
f 141/1/3 138/1/3 137/1/3
f 141/3/3 137/3/3 140/3/3
f 142/1/3 138/1/3 141/1/3
f 145/2/3 144/2/3 143/2/3
f 146/2/3 144/2/3 145/2/3
f 147/2/4 148/2/4 150/2/4
f 148/3/4 149/3/4 150/3/4
f 150/3/4 149/3/4 151/3/4
f 150/2/4 151/2/4 153/2/4
f 151/3/4 152/3/4 153/3/4
f 153/3/4 152/3/4 154/3/4
f 150/2/4 153/2/4 155/2/4
f 153/2/4 154/2/4 155/2/4
f 155/2/4 154/2/4 156/2/4
f 147/2/4 150/2/4 157/2/4
f 150/2/4 155/2/4 157/2/4
f 155/3/4 156/3/4 158/3/4
f 157/2/4 155/2/4 158/2/4
f 158/3/4 156/3/4 159/3/4
f 147/2/4 157/2/4 160/2/4
f 157/3/4 158/3/4 161/3/4
f 160/2/4 157/2/4 161/2/4
f 161/3/4 158/3/4 162/3/4
f 163/3/4 164/3/4 166/3/4
f 164/1/4 165/1/4 167/1/4
f 166/3/4 164/3/4 167/3/4
f 167/1/4 165/1/4 168/1/4
f 166/2/4 167/2/4 170/2/4
f 168/3/4 169/3/4 170/3/4
f 167/2/4 168/2/4 170/2/4
f 170/3/4 169/3/4 171/3/4
f 166/2/4 170/2/4 172/2/4
f 170/1/4 171/1/4 172/1/4
f 172/1/4 171/1/4 173/1/4
f 166/2/4 172/2/4 174/2/4
f 172/3/4 173/3/4 174/3/4
f 174/3/4 173/3/4 175/3/4
f 166/2/4 174/2/4 176/2/4
f 176/2/4 174/2/4 177/2/4
f 177/2/4 174/2/4 178/2/4
f 178/2/4 174/2/4 179/2/4
f 174/1/4 175/1/4 180/1/4
f 179/2/4 174/2/4 180/2/4
f 180/1/4 175/1/4 181/1/4
f 176/3/4 177/3/4 182/3/4
f 177/1/4 178/1/4 183/1/4
f 182/3/4 177/3/4 183/3/4
f 178/3/4 179/3/4 184/3/4
f 183/1/4 178/1/4 184/1/4
f 179/1/4 180/1/4 185/1/4
f 184/3/4 179/3/4 185/3/4
f 185/1/4 180/1/4 186/1/4
f 189/2/5 188/2/5 187/2/5
f 190/2/5 188/2/5 189/2/5
f 191/2/5 188/2/5 190/2/5
f 192/2/5 188/2/5 191/2/5
f 193/3/5 190/3/5 189/3/5
f 194/2/5 191/2/5 190/2/5
f 194/3/5 190/3/5 193/3/5
f 195/3/5 192/3/5 191/3/5
f 195/2/5 191/2/5 194/2/5
f 196/3/5 192/3/5 195/3/5
f 201/3/5 198/3/5 197/3/5
f 202/2/5 199/2/5 198/2/5
f 202/3/5 198/3/5 201/3/5
f 203/3/5 200/3/5 199/3/5
f 203/2/5 199/2/5 202/2/5
f 204/3/5 200/3/5 203/3/5
f 205/2/5 202/2/5 201/2/5
f 205/2/5 203/2/5 202/2/5
f 205/2/5 204/2/5 203/2/5
f 206/2/5 204/2/5 205/2/5
f 211/3/5 208/3/5 207/3/5
f 212/2/5 209/2/5 208/2/5
f 212/3/5 208/3/5 211/3/5
f 213/3/5 210/3/5 209/3/5
f 213/2/5 209/2/5 212/2/5
f 214/3/5 210/3/5 213/3/5
f 215/2/5 212/2/5 211/2/5
f 215/2/5 213/2/5 212/2/5
f 215/2/5 214/2/5 213/2/5
f 216/2/5 214/2/5 215/2/5
f 217/1/6 218/1/6 221/1/6
f 219/1/6 220/1/6 222/1/6
f 222/1/6 220/1/6 223/1/6
f 223/1/6 220/1/6 224/1/6
f 217/1/6 221/1/6 225/1/6
f 225/1/6 221/1/6 226/1/6
f 225/3/6 226/3/6 227/3/6
f 223/3/6 224/3/6 228/3/6
f 225/3/6 227/3/6 229/3/6
f 225/3/6 229/3/6 230/3/6
f 230/3/6 229/3/6 231/3/6
f 228/3/6 224/3/6 232/3/6
f 232/3/6 224/3/6 233/3/6
f 230/1/6 231/1/6 234/1/6
f 234/1/6 231/1/6 235/1/6
f 232/1/6 233/1/6 236/1/6
f 236/1/6 233/1/6 237/1/6
f 238/1/6 239/1/6 244/1/6
f 244/1/6 239/1/6 245/1/6
f 239/3/6 240/3/6 246/3/6
f 245/1/6 239/1/6 246/1/6
f 246/3/6 240/3/6 247/3/6
f 241/3/6 242/3/6 248/3/6
f 242/1/6 243/1/6 249/1/6
f 248/3/6 242/3/6 249/3/6
f 249/1/6 243/1/6 250/1/6
f 250/1/6 243/1/6 251/1/6
f 244/3/6 245/3/6 252/3/6
f 246/2/6 247/2/6 253/2/6
f 252/3/6 245/3/6 253/3/6
f 245/2/6 246/2/6 253/2/6
f 253/2/6 247/2/6 254/2/6
f 248/2/6 249/2/6 255/2/6
f 249/2/6 250/2/6 255/2/6
f 250/3/6 251/3/6 256/3/6
f 254/2/6 255/2/6 256/2/6
f 255/2/6 250/2/6 256/2/6
f 253/2/6 254/2/6 256/2/6
f 256/3/6 251/3/6 257/3/6
f 252/1/6 253/1/6 258/1/6
f 253/2/6 256/2/6 259/2/6
f 258/1/6 253/1/6 259/1/6
f 258/3/6 259/3/6 260/3/6
f 259/2/6 256/2/6 260/2/6
f 260/2/6 256/2/6 261/2/6
f 261/2/6 256/2/6 262/2/6
f 262/2/6 256/2/6 263/2/6
f 256/1/6 257/1/6 264/1/6
f 263/2/6 256/2/6 264/2/6
f 258/3/6 260/3/6 265/3/6
f 260/3/6 261/3/6 265/3/6
f 261/1/6 262/1/6 266/1/6
f 265/3/6 261/3/6 266/3/6
f 262/3/6 263/3/6 267/3/6
f 266/1/6 262/1/6 267/1/6
f 263/1/6 264/1/6 268/1/6
f 267/3/6 263/3/6 268/3/6
f 264/1/6 257/1/6 269/1/6
f 268/1/6 264/1/6 269/1/6
f 270/3/6 271/3/6 274/3/6
f 272/1/6 273/1/6 275/1/6
f 275/1/6 273/1/6 276/1/6
f 275/3/6 276/3/6 277/3/6
f 270/3/6 274/3/6 278/3/6
f 270/3/6 278/3/6 279/3/6
f 270/3/6 279/3/6 280/3/6
f 280/3/6 279/3/6 281/3/6
f 277/3/6 276/3/6 282/3/6
f 282/3/6 276/3/6 283/3/6
f 284/1/6 285/1/6 288/1/6
f 288/1/6 285/1/6 289/1/6
f 285/3/6 286/3/6 290/3/6
f 289/1/6 285/1/6 290/1/6
f 286/1/6 287/1/6 291/1/6
f 290/3/6 286/3/6 291/3/6
f 289/2/6 290/2/6 292/2/6
f 291/1/6 287/1/6 292/1/6
f 290/2/6 291/2/6 292/2/6
f 292/1/6 287/1/6 293/1/6
f 288/3/6 289/3/6 294/3/6
f 289/2/6 292/2/6 295/2/6
f 294/3/6 289/3/6 295/3/6
f 294/1/6 295/1/6 296/1/6
f 295/2/6 292/2/6 297/2/6
f 296/1/6 295/1/6 297/1/6
f 296/3/6 297/3/6 298/3/6
f 297/2/6 292/2/6 299/2/6
f 298/3/6 297/3/6 299/3/6
f 292/3/6 293/3/6 300/3/6
f 299/2/6 292/2/6 300/2/6
f 300/3/6 293/3/6 301/3/6
