# MagicaVoxel @ Ephtracy

# group
o 

# material
mtllib model-0.mtl
usemtl palette

# normals
vn 0 0 1
vn 0 0 -1
vn 1 0 0
vn -1 0 0
vn 0 -1 0
vn 0 1 0

# texcoords
vt 0.0292969 0.5
vt 0.751953 0.5
vt 0.755859 0.5
vt 0.759766 0.5

# verts
v 0.5 0 1
v -0.5 0 1
v 0.5 0.1 1
v -0.5 0.1 1
v 0.5 0.7 1
v -0.5 0.7 1
v 0.5 0 0.2
v 0.4 0 0.2
v 0.5 0.1 0.2
v 0.4 0.1 0.2
v 0.5 0.4 0.2
v 0.4 0.4 0.2
v 0.5 0.1 -0.1
v 0.4 0.1 -0.1
v 0.5 0.3 -0.1
v 0.4 0.3 -0.1
v 0.5 0 -0.3
v 0.4 0 -0.3
v 0.4 0.1 -0.3
v 0.5 0.7 -0.3
v 0.4 0.7 -0.3
v 0.4 0 -0.9
v -0.4 0 -0.9
v 0.4 0.1 -0.9
v -0.4 0.1 -0.9
v 0.4 0 0.9
v -0.4 0 0.9
v 0.4 0.1 0.9
v -0.4 0.1 0.9
v 0.5 0 0.3
v 0.4 0 0.3
v 0.4 0.1 0.3
v 0.5 0.7 0.3
v 0.4 0.7 0.3
v 0.5 0.1 0.1
v 0.4 0.1 0.1
v 0.5 0.3 0.1
v 0.4 0.3 0.1
v 0.5 0 -0.2
v 0.4 0 -0.2
v 0.4 0.1 -0.2
v 0.5 0.3 -0.2
v 0.4 0.3 -0.2
v 0.5 0.4 -0.2
v 0.4 0.4 -0.2
v 0.5 0 -1
v -0.5 0 -1
v 0.5 0.1 -1
v -0.5 0.1 -1
v 0.5 0.7 -1
v -0.5 0.7 -1
v 0.5 0 1
v 0.5 0.1 1
v 0.5 0.7 1
v 0.5 0.1 0.4
v 0.5 0.7 0.4
v 0.5 0 0.3
v 0.5 0.7 0.3
v 0.5 0 0.2
v 0.5 0.1 0.2
v 0.5 0.4 0.2
v 0.5 0.1 0.1
v 0.5 0.3 0.1
v 0.5 0 0
v 0.5 0.1 0
v 0.5 0.3 0
v 0.5 0.4 0
v 0.5 0.1 -0.1
v 0.5 0.3 -0.1
v 0.5 0 -0.2
v 0.5 0.3 -0.2
v 0.5 0.4 -0.2
v 0.5 0 -0.3
v 0.5 0.7 -0.3
v 0.5 0.1 -0.4
v 0.5 0.7 -0.4
v 0.5 0 -1
v 0.5 0.1 -1
v 0.5 0.7 -1
v 0.4 0.1 0.3
v 0.4 0.7 0.3
v 0.4 0.1 0.2
v 0.4 0.4 0.2
v 0.4 0.1 0.1
v 0.4 0.3 0.1
v 0.4 0.1 0
v 0.4 0.3 0
v 0.4 0.4 0
v 0.4 0.1 -0.1
v 0.4 0.3 -0.1
v 0.4 0.1 -0.2
v 0.4 0.3 -0.2
v 0.4 0.4 -0.2
v 0.4 0.1 -0.3
v 0.4 0.7 -0.3
v -0.4 0 0.9
v -0.4 0.1 0.9
v -0.4 0 -0.9
v -0.4 0.1 -0.9
v 0.4 0 0.9
v 0.4 0.1 0.9
v 0.4 0 0.3
v 0.4 0.1 0.3
v 0.4 0 0.2
v 0.4 0.1 0.2
v 0.4 0 0
v 0.4 0.1 0
v 0.4 0 -0.2
v 0.4 0.1 -0.2
v 0.4 0 -0.3
v 0.4 0.1 -0.3
v 0.4 0 -0.9
v 0.4 0.1 -0.9
v -0.5 0 1
v -0.5 0.1 1
v -0.5 0.7 1
v -0.5 0 -1
v -0.5 0.1 -1
v -0.5 0.7 -1
v 0.5 0 1
v 0.5 0 0.3
v 0.5 0 0.2
v 0.5 0 0
v 0.5 0 -0.2
v 0.5 0 -0.3
v 0.5 0 -1
v 0.4 0 0.9
v 0.4 0 0.3
v 0.4 0 0.2
v 0.4 0 0
v 0.4 0 -0.2
v 0.4 0 -0.3
v 0.4 0 -0.9
v -0.4 0 0.9
v -0.4 0 -0.9
v -0.5 0 1
v -0.5 0 -1
v 0.4 0.1 0.9
v 0.4 0.1 0.3
v 0.4 0.1 0.2
v 0.4 0.1 0
v 0.4 0.1 -0.2
v 0.4 0.1 -0.3
v 0.4 0.1 -0.9
v -0.4 0.1 0.9
v -0.4 0.1 -0.9
v 0.5 0.3 0.1
v 0.5 0.3 0
v 0.5 0.3 -0.1
v 0.4 0.3 0.1
v 0.4 0.3 0
v 0.4 0.3 -0.1
v 0.5 0.1 0.1
v 0.5 0.1 0
v 0.5 0.1 -0.1
v 0.4 0.1 0.1
v 0.4 0.1 0
v 0.4 0.1 -0.1
v 0.5 0.4 0.2
v 0.5 0.4 0
v 0.5 0.4 -0.2
v 0.4 0.4 0.2
v 0.4 0.4 0
v 0.4 0.4 -0.2
v 0.5 0.7 1
v 0.5 0.7 0.4
v 0.5 0.7 0.3
v 0.5 0.7 -0.3
v 0.5 0.7 -0.4
v 0.5 0.7 -1
v 0.4 0.7 0.4
v 0.4 0.7 0.3
v 0.4 0.7 -0.3
v 0.4 0.7 -0.4
v 0.3 0.7 0.3
v 0.3 0.7 -0.3
v -0.5 0.7 1
v -0.5 0.7 -1

# faces
f 3/4/1 2/4/1 1/4/1
f 4/4/1 2/4/1 3/4/1
f 5/3/1 4/3/1 3/3/1
f 6/3/1 4/3/1 5/3/1
f 9/3/1 8/3/1 7/3/1
f 10/3/1 8/3/1 9/3/1
f 11/4/1 10/4/1 9/4/1
f 12/4/1 10/4/1 11/4/1
f 15/4/1 14/4/1 13/4/1
f 16/4/1 14/4/1 15/4/1
f 19/4/1 18/4/1 17/4/1
f 20/4/1 19/4/1 17/4/1
f 21/4/1 19/4/1 20/4/1
f 24/4/1 23/4/1 22/4/1
f 25/4/1 23/4/1 24/4/1
f 26/4/2 27/4/2 28/4/2
f 28/4/2 27/4/2 29/4/2
f 30/4/2 31/4/2 32/4/2
f 30/4/2 32/4/2 33/4/2
f 33/4/2 32/4/2 34/4/2
f 35/4/2 36/4/2 37/4/2
f 37/4/2 36/4/2 38/4/2
f 39/4/2 40/4/2 41/4/2
f 39/4/2 41/4/2 42/4/2
f 42/4/2 41/4/2 43/4/2
f 42/1/2 43/1/2 44/1/2
f 44/1/2 43/1/2 45/1/2
f 46/4/2 47/4/2 48/4/2
f 48/4/2 47/4/2 49/4/2
f 48/3/2 49/3/2 50/3/2
f 50/3/2 49/3/2 51/3/2
f 55/4/3 53/4/3 52/4/3
f 55/3/3 54/3/3 53/3/3
f 56/3/3 54/3/3 55/3/3
f 57/4/3 55/4/3 52/4/3
f 57/4/3 56/4/3 55/4/3
f 58/4/3 56/4/3 57/4/3
f 62/3/3 60/3/3 59/3/3
f 62/4/3 61/4/3 60/4/3
f 63/4/3 61/4/3 62/4/3
f 64/3/3 62/3/3 59/3/3
f 65/3/3 62/3/3 64/3/3
f 66/4/3 61/4/3 63/4/3
f 67/4/3 61/4/3 66/4/3
f 68/4/3 65/4/3 64/4/3
f 69/1/3 67/1/3 66/1/3
f 70/4/3 68/4/3 64/4/3
f 70/4/3 69/4/3 68/4/3
f 71/1/3 67/1/3 69/1/3
f 71/4/3 69/4/3 70/4/3
f 72/1/3 67/1/3 71/1/3
f 75/4/3 74/4/3 73/4/3
f 76/4/3 74/4/3 75/4/3
f 77/4/3 75/4/3 73/4/3
f 78/3/3 76/3/3 75/3/3
f 78/4/3 75/4/3 77/4/3
f 79/3/3 76/3/3 78/3/3
f 82/2/3 81/2/3 80/2/3
f 83/2/3 81/2/3 82/2/3
f 86/2/3 85/2/3 84/2/3
f 87/2/3 85/2/3 86/2/3
f 88/2/3 81/2/3 83/2/3
f 89/2/3 87/2/3 86/2/3
f 90/2/3 87/2/3 89/2/3
f 93/2/3 81/2/3 88/2/3
f 94/2/3 92/2/3 91/2/3
f 94/2/3 93/2/3 92/2/3
f 95/2/3 81/2/3 93/2/3
f 95/2/3 93/2/3 94/2/3
f 98/4/3 97/4/3 96/4/3
f 99/4/3 97/4/3 98/4/3
f 100/4/4 101/4/4 102/4/4
f 102/4/4 101/4/4 103/4/4
f 104/3/4 105/3/4 106/3/4
f 106/3/4 105/3/4 107/3/4
f 106/4/4 107/4/4 108/4/4
f 108/4/4 107/4/4 109/4/4
f 110/4/4 111/4/4 112/4/4
f 112/4/4 111/4/4 113/4/4
f 114/4/4 115/4/4 117/4/4
f 115/3/4 116/3/4 118/3/4
f 117/4/4 115/4/4 118/4/4
f 118/3/4 116/3/4 119/3/4
f 127/4/5 121/4/5 120/4/5
f 128/4/5 121/4/5 127/4/5
f 129/3/5 123/3/5 122/3/5
f 130/4/5 124/4/5 123/4/5
f 130/3/5 123/3/5 129/3/5
f 131/4/5 124/4/5 130/4/5
f 132/4/5 126/4/5 125/4/5
f 133/4/5 126/4/5 132/4/5
f 134/4/5 127/4/5 120/4/5
f 135/4/5 126/4/5 133/4/5
f 136/4/5 134/4/5 120/4/5
f 136/4/5 135/4/5 134/4/5
f 137/4/5 126/4/5 135/4/5
f 137/4/5 135/4/5 136/4/5
f 145/2/5 139/2/5 138/2/5
f 145/2/5 144/2/5 143/2/5
f 145/2/5 143/2/5 142/2/5
f 145/2/5 142/2/5 141/2/5
f 145/2/5 141/2/5 140/2/5
f 145/2/5 140/2/5 139/2/5
f 146/2/5 144/2/5 145/2/5
f 150/4/5 148/4/5 147/4/5
f 151/1/5 149/1/5 148/1/5
f 151/4/5 148/4/5 150/4/5
f 152/1/5 149/1/5 151/1/5
f 153/3/6 154/3/6 156/3/6
f 154/4/6 155/4/6 157/4/6
f 156/3/6 154/3/6 157/3/6
f 157/4/6 155/4/6 158/4/6
f 159/4/6 160/4/6 162/4/6
f 160/1/6 161/1/6 163/1/6
f 162/4/6 160/4/6 163/4/6
f 163/1/6 161/1/6 164/1/6
f 165/3/6 166/3/6 171/3/6
f 166/4/6 167/4/6 171/4/6
f 171/4/6 167/4/6 172/4/6
f 168/4/6 169/4/6 173/4/6
f 169/3/6 170/3/6 174/3/6
f 173/4/6 169/4/6 174/4/6
f 172/2/6 173/2/6 175/2/6
f 171/3/6 172/3/6 175/3/6
f 173/3/6 174/3/6 176/3/6
f 175/2/6 173/2/6 176/2/6
f 171/3/6 175/3/6 177/3/6
f 165/3/6 171/3/6 177/3/6
f 175/3/6 176/3/6 177/3/6
f 174/3/6 170/3/6 178/3/6
f 177/3/6 176/3/6 178/3/6
f 176/3/6 174/3/6 178/3/6
