# MagicaVoxel @ Ephtracy

# group
o 

# material
mtllib model-5.mtl
usemtl palette

# normals
vn 0 0 1
vn 0 0 -1
vn 1 0 0
vn -1 0 0
vn 0 -1 0
vn 0 1 0

# texcoords
vt 0.0292969 0.5
vt 0.755859 0.5

# verts
v 0.3 1.4 -1.6
v -0.3 1.4 -1.6
v 0.3 2 -1.6
v -0.3 2 -1.6
v 0.3 1.4 -2.4
v -0.3 1.4 -2.4
v 0.3 2 -2.4
v -0.3 2 -2.4
v 0.3 1.4 -1.6
v 0.3 2 -1.6
v 0.3 1.9 -1.8
v 0.3 2 -1.8
v 0.3 1.9 -2.2
v 0.3 2 -2.2
v 0.3 1.4 -2.4
v 0.3 2 -2.4
v -0.3 1.4 -1.6
v -0.3 2 -1.6
v -0.3 1.4 -2.4
v -0.3 2 -2.4
v 0.3 1.4 -1.6
v 0.3 1.4 -2.4
v -0.3 1.4 -1.6
v -0.3 1.4 -2.4
v 0.3 2 -1.6
v 0.3 2 -1.8
v 0.3 2 -2.2
v 0.3 2 -2.4
v 0.2 2 -1.8
v 0.2 2 -2.2
v -0.3 2 -1.6
v -0.3 2 -2.4

# faces
f 3/2/1 2/2/1 1/2/1
f 4/2/1 2/2/1 3/2/1
f 5/2/2 6/2/2 7/2/2
f 7/2/2 6/2/2 8/2/2
f 11/2/3 10/2/3 9/2/3
f 12/2/3 10/2/3 11/2/3
f 13/2/3 11/2/3 9/2/3
f 13/1/3 12/1/3 11/1/3
f 14/1/3 12/1/3 13/1/3
f 15/2/3 13/2/3 9/2/3
f 15/2/3 14/2/3 13/2/3
f 16/2/3 14/2/3 15/2/3
f 17/2/4 18/2/4 19/2/4
f 19/2/4 18/2/4 20/2/4
f 23/2/5 22/2/5 21/2/5
f 24/2/5 22/2/5 23/2/5
f 25/2/6 26/2/6 29/2/6
f 26/1/6 27/1/6 29/1/6
f 27/2/6 28/2/6 30/2/6
f 29/1/6 27/1/6 30/1/6
f 25/2/6 29/2/6 31/2/6
f 29/2/6 30/2/6 31/2/6
f 30/2/6 28/2/6 32/2/6
f 31/2/6 30/2/6 32/2/6
