# MagicaVoxel @ Ephtracy

# group
o 

# material
mtllib model-1.mtl
usemtl palette

# normals
vn 0 0 1
vn 0 0 -1
vn 1 0 0
vn -1 0 0
vn 0 -1 0
vn 0 1 0

# texcoords
vt 0.0292969 0.5
vt 0.751953 0.5
vt 0.755859 0.5
vt 0.759766 0.5

# verts
v -0.5 1.8 1.3
v -0.6 1.8 1.3
v 0.6 2 1.3
v 0.3 2 1.3
v -0.4 2 1.3
v -0.5 2 1.3
v -0.6 2 1.3
v 0.6 2.1 1.3
v 0.3 2.1 1.3
v -0.4 2.1 1.3
v -0.6 2.1 1.3
v 0.6 1.6 1.1
v 0.5 1.6 1.1
v 0.6 2 1.1
v 0.5 2 1.1
v 0.5 0.6 1
v -0.5 0.6 1
v 0.5 1.6 1
v -0.5 1.8 1
v -0.5 1.9 1
v 0.5 2 1
v -0.5 2 1
v 0.6 1.2 0.8
v 0.5 1.2 0.8
v 0.6 1.6 0.8
v 0.5 1.6 0.8
v 0.4 2.1 0.4
v -0.4 2.1 0.4
v 0.4 2.2 0.4
v -0.4 2.2 0.4
v 0.5 0.6 -0.3
v 0.4 0.6 -0.3
v 0.5 0.8 -0.3
v 0.4 0.8 -0.3
v 0.5 1 -0.3
v 0.4 1 -0.3
v 0.6 1.2 -0.3
v 0.5 1.2 -0.3
v 0.6 2.1 -0.3
v 0.4 2.1 -0.3
v 0.5 0.6 0.3
v 0.4 0.6 0.3
v 0.6 1.2 0.3
v 0.5 1.2 0.3
v 0.6 1.3 0.3
v 0.5 1.3 0.3
v 0.6 1.6 0.3
v 0.5 1.6 0.3
v 0.6 2.1 0.3
v 0.4 2.1 0.3
v 0.4 2.1 -0.4
v -0.4 2.1 -0.4
v 0.4 2.2 -0.4
v -0.4 2.2 -0.4
v 0.6 1.2 -0.8
v 0.5 1.2 -0.8
v 0.6 1.4 -0.8
v 0.5 1.4 -0.8
v 0.6 1.6 -0.8
v 0.5 1.6 -0.8
v 0.5 0.6 -1
v -0.5 0.6 -1
v 0.5 1.6 -1
v -0.5 1.8 -1
v -0.5 1.9 -1
v 0.5 2 -1
v -0.5 2 -1
v 0.6 1.6 -1.1
v 0.5 1.6 -1.1
v 0.6 2 -1.1
v 0.5 2 -1.1
v -0.5 1.8 -1.3
v -0.6 1.8 -1.3
v -0.5 1.9 -1.3
v -0.6 1.9 -1.3
v 0.6 2 -1.3
v 0.3 2 -1.3
v -0.5 2 -1.3
v 0.6 2.1 -1.3
v 0.3 2.1 -1.3
v -0.5 2.1 -1.3
v -0.6 2.1 -1.3
v 0.6 2 1.3
v 0.6 2.1 1.3
v 0.6 1.6 1.1
v 0.6 2 1.1
v 0.6 2.1 1.1
v 0.6 1.7 1
v 0.6 2.1 1
v 0.6 1.2 0.8
v 0.6 1.6 0.8
v 0.6 1.3 0.7
v 0.6 1.7 0.7
v 0.6 1.3 0.4
v 0.6 1.6 0.4
v 0.6 2.1 0.4
v 0.6 1.2 0.3
v 0.6 1.3 0.3
v 0.6 1.6 0.3
v 0.6 2.1 0.3
v 0.6 1.2 -0.3
v 0.6 2.1 -0.3
v 0.6 1.3 -0.4
v 0.6 2.1 -0.4
v 0.6 1.2 -0.7
v 0.6 1.3 -0.7
v 0.6 1.4 -0.7
v 0.6 1.7 -0.7
v 0.6 1.2 -0.8
v 0.6 1.4 -0.8
v 0.6 1.6 -0.8
v 0.6 1.7 -1
v 0.6 2.1 -1
v 0.6 1.6 -1.1
v 0.6 2 -1.1
v 0.6 2.1 -1.1
v 0.6 2 -1.3
v 0.6 2.1 -1.3
v 0.5 0.6 1
v 0.5 1.6 1
v 0.5 1.2 0.8
v 0.5 1.6 0.8
v 0.5 0.6 0.4
v 0.5 1.2 0.4
v 0.5 0.6 0.3
v 0.5 1.2 0.3
v 0.5 0.6 -0.3
v 0.5 0.8 -0.3
v 0.5 1 -0.3
v 0.5 1.2 -0.3
v 0.5 0.6 -0.4
v 0.5 0.8 -0.4
v 0.5 1 -0.4
v 0.5 1.2 -0.4
v 0.5 1.2 -0.7
v 0.5 1.2 -0.8
v 0.5 1.4 -0.8
v 0.5 1.6 -0.8
v 0.5 0.6 -1
v 0.5 1.6 -1
v 0.4 2.1 0.4
v 0.4 2.2 0.4
v 0.4 0.6 0.3
v 0.4 2.1 0.3
v 0.4 0.6 -0.3
v 0.4 0.8 -0.3
v 0.4 1 -0.3
v 0.4 2.1 -0.3
v 0.4 2.1 -0.4
v 0.4 2.2 -0.4
v -0.5 1.8 1.3
v -0.5 2 1.3
v -0.5 1.9 1.2
v -0.5 2 1.2
v -0.5 1.8 1
v -0.5 1.9 1
v -0.5 2 1
v -0.5 1.8 -1
v -0.5 1.9 -1
v -0.5 2 -1
v -0.5 1.9 -1.2
v -0.5 2 -1.2
v -0.5 1.8 -1.3
v -0.5 1.9 -1.3
v -0.5 2 -1.3
v 0.5 1.6 1.1
v 0.5 2 1.1
v 0.5 1.6 1
v 0.5 2 1
v 0.5 1.6 -1
v 0.5 2 -1
v 0.5 1.6 -1.1
v 0.5 2 -1.1
v -0.4 2.1 0.4
v -0.4 2.2 0.4
v -0.4 2.1 -0.4
v -0.4 2.2 -0.4
v -0.5 0.6 1
v -0.5 1.8 1
v -0.5 0.6 -1
v -0.5 1.8 -1
v -0.6 1.8 1.3
v -0.6 2 1.3
v -0.6 2.1 1.3
v -0.6 1.9 1.2
v -0.6 2 1.2
v -0.6 2.1 1.2
v -0.6 1.9 -1.2
v -0.6 2.1 -1.2
v -0.6 1.8 -1.3
v -0.6 1.9 -1.3
v -0.6 2.1 -1.3
v 0.5 0.6 1
v 0.5 0.6 0.4
v 0.5 0.6 0.3
v 0.5 0.6 -0.3
v 0.5 0.6 -0.4
v 0.5 0.6 -1
v 0.4 0.6 0.4
v 0.4 0.6 0.3
v 0.4 0.6 -0.3
v 0.4 0.6 -0.4
v 0.3 0.6 0.3
v 0.3 0.6 -0.3
v -0.5 0.6 1
v -0.5 0.6 -1
v 0.6 1.2 0.8
v 0.6 1.2 0.3
v 0.6 1.2 -0.3
v 0.6 1.2 -0.7
v 0.6 1.2 -0.8
v 0.5 1.2 0.8
v 0.5 1.2 0.4
v 0.5 1.2 0.3
v 0.5 1.2 -0.3
v 0.5 1.2 -0.4
v 0.5 1.2 -0.7
v 0.5 1.2 -0.8
v 0.6 1.6 1.1
v 0.6 1.6 0.8
v 0.6 1.6 -0.8
v 0.6 1.6 -1.1
v 0.5 1.6 1.1
v 0.5 1.6 1
v 0.5 1.6 0.8
v 0.5 1.6 -0.8
v 0.5 1.6 -1
v 0.5 1.6 -1.1
v -0.5 1.8 1.3
v -0.5 1.8 1
v -0.5 1.8 -1
v -0.5 1.8 -1.3
v -0.6 1.8 1.3
v -0.6 1.8 -1.3
v 0.6 2 1.3
v 0.6 2 1.1
v 0.6 2 -1.1
v 0.6 2 -1.3
v 0.5 2 1.2
v 0.5 2 1.1
v 0.5 2 1
v 0.5 2 -1
v 0.5 2 -1.1
v 0.5 2 -1.2
v 0.3 2 1.3
v 0.3 2 1.2
v 0.3 2 -1.2
v 0.3 2 -1.3
v -0.4 2 1.3
v -0.4 2 1.2
v -0.5 2 1.3
v -0.5 2 1.2
v -0.5 2 1
v -0.5 2 -1
v -0.5 2 -1.2
v -0.5 2 -1.3
v 0.6 2.1 1.3
v 0.6 2.1 1.1
v 0.6 2.1 1
v 0.6 2.1 0.4
v 0.6 2.1 0.3
v 0.6 2.1 -0.3
v 0.6 2.1 -0.4
v 0.6 2.1 -1
v 0.6 2.1 -1.1
v 0.6 2.1 -1.3
v 0.5 2.1 1.2
v 0.5 2.1 1.1
v 0.5 2.1 1
v 0.5 2.1 -1
v 0.5 2.1 -1.1
v 0.5 2.1 -1.2
v 0.4 2.1 0.4
v 0.4 2.1 0.3
v 0.4 2.1 -0.3
v 0.4 2.1 -0.4
v 0.3 2.1 1.3
v 0.3 2.1 1.2
v 0.3 2.1 -1.2
v 0.3 2.1 -1.3
v -0.4 2.1 1.3
v -0.4 2.1 1.2
v -0.4 2.1 0.4
v -0.4 2.1 -0.4
v -0.5 2.1 -1.2
v -0.5 2.1 -1.3
v -0.6 2.1 1.3
v -0.6 2.1 1.2
v -0.6 2.1 -1.2
v -0.6 2.1 -1.3
v 0.4 2.2 0.4
v 0.4 2.2 -0.4
v -0.4 2.2 0.4
v -0.4 2.2 -0.4

# faces
f 6/4/1 2/4/1 1/4/1
f 7/4/1 2/4/1 6/4/1
f 8/1/1 4/1/1 3/1/1
f 9/4/1 5/4/1 4/4/1
f 9/1/1 4/1/1 8/1/1
f 10/1/1 6/1/1 5/1/1
f 10/4/1 5/4/1 9/4/1
f 10/1/1 7/1/1 6/1/1
f 11/1/1 7/1/1 10/1/1
f 14/4/1 13/4/1 12/4/1
f 15/4/1 13/4/1 14/4/1
f 18/3/1 17/3/1 16/3/1
f 19/3/1 17/3/1 18/3/1
f 20/3/1 19/3/1 18/3/1
f 21/3/1 20/3/1 18/3/1
f 22/3/1 20/3/1 21/3/1
f 25/4/1 24/4/1 23/4/1
f 26/4/1 24/4/1 25/4/1
f 29/2/1 28/2/1 27/2/1
f 30/2/1 28/2/1 29/2/1
f 33/4/1 32/4/1 31/4/1
f 34/4/1 32/4/1 33/4/1
f 35/1/1 34/1/1 33/1/1
f 36/1/1 34/1/1 35/1/1
f 38/4/1 36/4/1 35/4/1
f 39/4/1 38/4/1 37/4/1
f 40/4/1 36/4/1 38/4/1
f 40/4/1 38/4/1 39/4/1
f 41/4/2 42/4/2 44/4/2
f 43/4/2 44/4/2 45/4/2
f 44/4/2 42/4/2 46/4/2
f 45/4/2 44/4/2 46/4/2
f 45/1/2 46/1/2 47/1/2
f 46/4/2 42/4/2 48/4/2
f 47/1/2 46/1/2 48/1/2
f 47/4/2 48/4/2 49/4/2
f 48/4/2 42/4/2 50/4/2
f 49/4/2 48/4/2 50/4/2
f 51/2/2 52/2/2 53/2/2
f 53/2/2 52/2/2 54/2/2
f 55/1/2 56/1/2 57/1/2
f 57/1/2 56/1/2 58/1/2
f 57/4/2 58/4/2 59/4/2
f 59/4/2 58/4/2 60/4/2
f 61/3/2 62/3/2 63/3/2
f 63/3/2 62/3/2 64/3/2
f 63/3/2 64/3/2 65/3/2
f 63/3/2 65/3/2 66/3/2
f 66/3/2 65/3/2 67/3/2
f 68/4/2 69/4/2 70/4/2
f 70/4/2 69/4/2 71/4/2
f 72/4/2 73/4/2 74/4/2
f 74/4/2 73/4/2 75/4/2
f 74/1/2 75/1/2 78/1/2
f 76/1/2 77/1/2 79/1/2
f 77/4/2 78/4/2 80/4/2
f 79/1/2 77/1/2 80/1/2
f 78/1/2 75/1/2 81/1/2
f 80/4/2 78/4/2 81/4/2
f 81/1/2 75/1/2 82/1/2
f 86/1/3 84/1/3 83/1/3
f 87/1/3 84/1/3 86/1/3
f 88/4/3 86/4/3 85/4/3
f 88/4/3 87/4/3 86/4/3
f 89/4/3 87/4/3 88/4/3
f 91/4/3 88/4/3 85/4/3
f 92/4/3 91/4/3 90/4/3
f 93/3/3 89/3/3 88/3/3
f 93/4/3 91/4/3 92/4/3
f 93/4/3 88/4/3 91/4/3
f 94/4/3 92/4/3 90/4/3
f 94/3/3 93/3/3 92/3/3
f 95/3/3 93/3/3 94/3/3
f 96/3/3 89/3/3 93/3/3
f 96/3/3 93/3/3 95/3/3
f 97/4/3 94/4/3 90/4/3
f 98/1/3 95/1/3 94/1/3
f 98/4/3 94/4/3 97/4/3
f 99/4/3 96/4/3 95/4/3
f 99/1/3 95/1/3 98/1/3
f 100/4/3 96/4/3 99/4/3
f 103/4/3 102/4/3 101/4/3
f 104/4/3 102/4/3 103/4/3
f 105/4/3 103/4/3 101/4/3
f 106/3/3 104/3/3 103/3/3
f 106/4/3 103/4/3 105/4/3
f 107/3/3 104/3/3 106/3/3
f 108/3/3 104/3/3 107/3/3
f 109/1/3 106/1/3 105/1/3
f 109/1/3 107/1/3 106/1/3
f 110/4/3 108/4/3 107/4/3
f 110/1/3 107/1/3 109/1/3
f 111/4/3 108/4/3 110/4/3
f 112/3/3 104/3/3 108/3/3
f 112/4/3 108/4/3 111/4/3
f 113/3/3 104/3/3 112/3/3
f 114/4/3 112/4/3 111/4/3
f 114/4/3 113/4/3 112/4/3
f 115/4/3 113/4/3 114/4/3
f 116/4/3 113/4/3 115/4/3
f 117/1/3 116/1/3 115/1/3
f 118/1/3 116/1/3 117/1/3
f 121/3/3 120/3/3 119/3/3
f 122/3/3 120/3/3 121/3/3
f 123/3/3 121/3/3 119/3/3
f 124/3/3 121/3/3 123/3/3
f 125/4/3 124/4/3 123/4/3
f 126/4/3 124/4/3 125/4/3
f 131/4/3 128/4/3 127/4/3
f 132/1/3 129/1/3 128/1/3
f 132/4/3 128/4/3 131/4/3
f 133/4/3 130/4/3 129/4/3
f 133/1/3 129/1/3 132/1/3
f 134/4/3 130/4/3 133/4/3
f 135/3/3 132/3/3 131/3/3
f 135/3/3 133/3/3 132/3/3
f 135/3/3 134/3/3 133/3/3
f 136/3/3 135/3/3 131/3/3
f 139/3/3 136/3/3 131/3/3
f 139/3/3 138/3/3 137/3/3
f 139/3/3 137/3/3 136/3/3
f 140/3/3 138/3/3 139/3/3
f 144/2/3 142/2/3 141/2/3
f 145/2/3 144/2/3 143/2/3
f 146/2/3 144/2/3 145/2/3
f 147/2/3 144/2/3 146/2/3
f 148/2/3 142/2/3 144/2/3
f 148/2/3 144/2/3 147/2/3
f 149/2/3 142/2/3 148/2/3
f 150/2/3 142/2/3 149/2/3
f 153/4/3 152/4/3 151/4/3
f 154/4/3 152/4/3 153/4/3
f 155/4/3 153/4/3 151/4/3
f 156/3/3 154/3/3 153/3/3
f 156/4/3 153/4/3 155/4/3
f 157/3/3 154/3/3 156/3/3
f 161/4/3 159/4/3 158/4/3
f 161/3/3 160/3/3 159/3/3
f 162/3/3 160/3/3 161/3/3
f 163/4/3 161/4/3 158/4/3
f 164/1/3 162/1/3 161/1/3
f 164/4/3 161/4/3 163/4/3
f 165/1/3 162/1/3 164/1/3
f 166/4/4 167/4/4 168/4/4
f 168/4/4 167/4/4 169/4/4
f 170/4/4 171/4/4 172/4/4
f 172/4/4 171/4/4 173/4/4
f 174/2/4 175/2/4 176/2/4
f 176/2/4 175/2/4 177/2/4
f 178/3/4 179/3/4 180/3/4
f 180/3/4 179/3/4 181/3/4
f 182/4/4 183/4/4 185/4/4
f 183/1/4 184/1/4 186/1/4
f 185/4/4 183/4/4 186/4/4
f 186/1/4 184/1/4 187/1/4
f 182/4/4 185/4/4 188/4/4
f 185/3/4 186/3/4 188/3/4
f 186/3/4 187/3/4 188/3/4
f 188/3/4 187/3/4 189/3/4
f 182/4/4 188/4/4 190/4/4
f 188/1/4 189/1/4 191/1/4
f 190/4/4 188/4/4 191/4/4
f 191/1/4 189/1/4 192/1/4
f 199/3/5 194/3/5 193/3/5
f 199/4/5 195/4/5 194/4/5
f 200/4/5 195/4/5 199/4/5
f 201/4/5 197/4/5 196/4/5
f 202/3/5 198/3/5 197/3/5
f 202/4/5 197/4/5 201/4/5
f 203/2/5 201/2/5 200/2/5
f 203/3/5 200/3/5 199/3/5
f 204/3/5 202/3/5 201/3/5
f 204/2/5 201/2/5 203/2/5
f 205/3/5 203/3/5 199/3/5
f 205/3/5 199/3/5 193/3/5
f 205/3/5 204/3/5 203/3/5
f 206/3/5 198/3/5 202/3/5
f 206/3/5 204/3/5 205/3/5
f 206/3/5 202/3/5 204/3/5
f 212/4/5 208/4/5 207/4/5
f 213/4/5 208/4/5 212/4/5
f 214/4/5 208/4/5 213/4/5
f 215/4/5 210/4/5 209/4/5
f 216/4/5 210/4/5 215/4/5
f 217/1/5 211/1/5 210/1/5
f 217/4/5 210/4/5 216/4/5
f 218/1/5 211/1/5 217/1/5
f 223/4/5 220/4/5 219/4/5
f 224/4/5 220/4/5 223/4/5
f 225/4/5 220/4/5 224/4/5
f 226/4/5 222/4/5 221/4/5
f 227/4/5 222/4/5 226/4/5
f 228/4/5 222/4/5 227/4/5
f 233/4/5 230/4/5 229/4/5
f 233/4/5 232/4/5 231/4/5
f 233/4/5 231/4/5 230/4/5
f 234/4/5 232/4/5 233/4/5
f 239/1/5 236/1/5 235/1/5
f 240/1/5 236/1/5 239/1/5
f 243/1/5 238/1/5 237/1/5
f 244/1/5 238/1/5 243/1/5
f 245/1/5 239/1/5 235/1/5
f 246/3/5 241/3/5 240/3/5
f 246/1/5 239/1/5 245/1/5
f 246/3/5 240/3/5 239/3/5
f 247/1/5 238/1/5 244/1/5
f 247/3/5 244/3/5 243/3/5
f 247/3/5 243/3/5 242/3/5
f 248/1/5 238/1/5 247/1/5
f 249/4/5 246/4/5 245/4/5
f 250/3/5 241/3/5 246/3/5
f 250/4/5 246/4/5 249/4/5
f 251/1/5 250/1/5 249/1/5
f 252/3/5 241/3/5 250/3/5
f 252/1/5 250/1/5 251/1/5
f 253/3/5 241/3/5 252/3/5
f 254/3/5 247/3/5 242/3/5
f 255/4/5 248/4/5 247/4/5
f 255/3/5 247/3/5 254/3/5
f 256/4/5 248/4/5 255/4/5
f 257/1/6 258/1/6 267/1/6
f 258/4/6 259/4/6 268/4/6
f 267/1/6 258/1/6 268/1/6
f 259/3/6 260/3/6 269/3/6
f 268/4/6 259/4/6 269/4/6
f 263/3/6 264/3/6 270/3/6
f 264/4/6 265/4/6 270/4/6
f 265/1/6 266/1/6 271/1/6
f 270/4/6 265/4/6 271/4/6
f 271/1/6 266/1/6 272/1/6
f 267/3/6 268/3/6 273/3/6
f 260/4/6 261/4/6 273/4/6
f 269/3/6 260/3/6 273/3/6
f 268/3/6 269/3/6 273/3/6
f 273/4/6 261/4/6 274/4/6
f 262/4/6 263/4/6 275/4/6
f 263/3/6 270/3/6 276/3/6
f 275/4/6 263/4/6 276/4/6
f 271/3/6 272/3/6 276/3/6
f 270/3/6 271/3/6 276/3/6
f 257/1/6 267/1/6 277/1/6
f 267/3/6 273/3/6 278/3/6
f 277/1/6 267/1/6 278/1/6
f 276/3/6 272/3/6 279/3/6
f 272/1/6 266/1/6 279/1/6
f 279/1/6 266/1/6 280/1/6
f 277/4/6 278/4/6 281/4/6
f 278/3/6 273/3/6 282/3/6
f 281/4/6 278/4/6 282/4/6
f 282/3/6 273/3/6 283/3/6
f 276/3/6 279/3/6 284/3/6
f 282/3/6 283/3/6 285/3/6
f 283/3/6 284/3/6 285/3/6
f 284/3/6 279/3/6 285/3/6
f 279/4/6 280/4/6 285/4/6
f 285/4/6 280/4/6 286/4/6
f 281/1/6 282/1/6 287/1/6
f 282/3/6 285/3/6 288/3/6
f 287/1/6 282/1/6 288/1/6
f 285/1/6 286/1/6 289/1/6
f 288/3/6 285/3/6 289/3/6
f 289/1/6 286/1/6 290/1/6
f 291/2/6 292/2/6 293/2/6
f 293/2/6 292/2/6 294/2/6
