# MagicaVoxel @ Ephtracy

# group
o 

# material
mtllib model-0.mtl
usemtl palette

# normals
vn 0 0 1
vn 0 0 -1
vn 1 0 0
vn -1 0 0
vn 0 -1 0
vn 0 1 0

# texcoords
vt 0.0292969 0.5
vt 0.0371094 0.5
vt 0.298828 0.5
vt 0.310547 0.5
vt 0.642578 0.5
vt 0.650391 0.5

# verts
v 0.5 0 1
v -0.5 0 1
v 0.5 0.7 1
v -0.5 0.7 1
v 0.5 0 -1
v -0.5 0 -1
v 0.5 0.7 -1
v -0.5 0.7 -1
v 0.5 0 1
v 0.5 0.7 1
v 0.5 0.5 0.9
v 0.5 0.6 0.9
v 0.5 0.5 0.8
v 0.5 0.6 0.8
v 0.5 0.3 0.7
v 0.5 0.4 0.7
v 0.5 0.3 0.6
v 0.5 0.4 0.6
v 0.5 0.5 0.6
v 0.5 0.6 0.6
v 0.5 0.5 0.5
v 0.5 0.6 0.5
v 0.5 0.5 0.4
v 0.5 0.6 0.4
v 0.5 0.3 0.3
v 0.5 0.4 0.3
v 0.5 0.5 0.3
v 0.5 0.6 0.3
v 0.5 0.3 0.2
v 0.5 0.4 0.2
v 0.5 0.5 0.1
v 0.5 0.6 0.1
v 0.5 0.5 0
v 0.5 0.6 0
v 0.5 0.2 -0.2
v 0.5 0.3 -0.2
v 0.5 0.2 -0.3
v 0.5 0.3 -0.3
v 0.5 0.5 -0.3
v 0.5 0.6 -0.3
v 0.5 0 -0.4
v 0.5 0.1 -0.4
v 0.5 0.3 -0.4
v 0.5 0.4 -0.4
v 0.5 0.5 -0.4
v 0.5 0.6 -0.4
v 0.5 0 -0.5
v 0.5 0.1 -0.5
v 0.5 0.2 -0.5
v 0.5 0.3 -0.5
v 0.5 0.4 -0.5
v 0.5 0.5 -0.5
v 0.5 0 -0.6
v 0.5 0.1 -0.6
v 0.5 0.2 -0.6
v 0.5 0.3 -0.6
v 0.5 0.4 -0.6
v 0.5 0.5 -0.6
v 0.5 0 -0.7
v 0.5 0.1 -0.7
v 0.5 0.3 -0.7
v 0.5 0.4 -0.7
v 0.5 0.5 -0.7
v 0.5 0.6 -0.7
v 0.5 0.2 -0.8
v 0.5 0.3 -0.8
v 0.5 0.5 -0.8
v 0.5 0.6 -0.8
v 0.5 0.2 -0.9
v 0.5 0.3 -0.9
v 0.5 0 -1
v 0.5 0.7 -1
v -0.5 0 1
v -0.5 0.7 1
v -0.5 0 -1
v -0.5 0.7 -1
v 0.5 0 1
v 0.5 0 -0.4
v 0.5 0 -0.5
v 0.5 0 -0.6
v 0.5 0 -0.7
v 0.5 0 -1
v 0.4 0 -0.4
v 0.4 0 -0.5
v 0.4 0 -0.6
v 0.4 0 -0.7
v -0.5 0 1
v -0.5 0 -1
v 0.5 0.7 1
v 0.5 0.7 -1
v -0.5 0.7 1
v -0.5 0.7 -1

# faces
f 3/2/1 2/2/1 1/2/1
f 4/2/1 2/2/1 3/2/1
f 5/2/2 6/2/2 7/2/2
f 7/2/2 6/2/2 8/2/2
f 11/2/3 10/2/3 9/2/3
f 12/2/3 10/2/3 11/2/3
f 13/2/3 11/2/3 9/2/3
f 13/5/3 12/5/3 11/5/3
f 14/2/3 10/2/3 12/2/3
f 14/5/3 12/5/3 13/5/3
f 15/2/3 13/2/3 9/2/3
f 15/2/3 14/2/3 13/2/3
f 16/2/3 14/2/3 15/2/3
f 17/2/3 15/2/3 9/2/3
f 17/5/3 16/5/3 15/5/3
f 18/2/3 14/2/3 16/2/3
f 18/5/3 16/5/3 17/5/3
f 19/2/3 14/2/3 18/2/3
f 20/2/3 10/2/3 14/2/3
f 20/2/3 14/2/3 19/2/3
f 21/2/3 19/2/3 18/2/3
f 21/2/3 18/2/3 17/2/3
f 21/6/3 20/6/3 19/6/3
f 22/2/3 10/2/3 20/2/3
f 22/6/3 20/6/3 21/6/3
f 23/2/3 21/2/3 17/2/3
f 23/2/3 22/2/3 21/2/3
f 24/2/3 10/2/3 22/2/3
f 24/2/3 22/2/3 23/2/3
f 25/2/3 23/2/3 17/2/3
f 25/2/3 17/2/3 9/2/3
f 26/2/3 23/2/3 25/2/3
f 27/6/3 24/6/3 23/6/3
f 27/2/3 23/2/3 26/2/3
f 28/2/3 10/2/3 24/2/3
f 28/6/3 24/6/3 27/6/3
f 29/5/3 26/5/3 25/5/3
f 29/2/3 25/2/3 9/2/3
f 30/2/3 27/2/3 26/2/3
f 30/5/3 26/5/3 29/5/3
f 30/2/3 28/2/3 27/2/3
f 31/2/3 30/2/3 29/2/3
f 31/2/3 28/2/3 30/2/3
f 32/2/3 10/2/3 28/2/3
f 32/2/3 28/2/3 31/2/3
f 33/2/3 31/2/3 29/2/3
f 33/5/3 32/5/3 31/5/3
f 34/2/3 10/2/3 32/2/3
f 34/5/3 32/5/3 33/5/3
f 35/2/3 29/2/3 9/2/3
f 35/2/3 33/2/3 29/2/3
f 35/2/3 34/2/3 33/2/3
f 36/2/3 34/2/3 35/2/3
f 37/2/3 35/2/3 9/2/3
f 37/3/3 36/3/3 35/3/3
f 38/2/3 34/2/3 36/2/3
f 38/3/3 36/3/3 37/3/3
f 39/2/3 34/2/3 38/2/3
f 40/2/3 10/2/3 34/2/3
f 40/2/3 34/2/3 39/2/3
f 41/2/3 39/2/3 38/2/3
f 41/2/3 37/2/3 9/2/3
f 41/2/3 38/2/3 37/2/3
f 42/2/3 39/2/3 41/2/3
f 43/2/3 39/2/3 42/2/3
f 44/2/3 39/2/3 43/2/3
f 45/3/3 40/3/3 39/3/3
f 45/2/3 39/2/3 44/2/3
f 46/2/3 10/2/3 40/2/3
f 46/3/3 40/3/3 45/3/3
f 47/3/3 42/3/3 41/3/3
f 48/2/3 43/2/3 42/2/3
f 48/3/3 42/3/3 47/3/3
f 49/2/3 43/2/3 48/2/3
f 50/4/3 44/4/3 43/4/3
f 50/2/3 43/2/3 49/2/3
f 51/2/3 45/2/3 44/2/3
f 51/4/3 44/4/3 50/4/3
f 51/2/3 46/2/3 45/2/3
f 52/2/3 46/2/3 51/2/3
f 53/2/3 49/2/3 48/2/3
f 53/2/3 48/2/3 47/2/3
f 54/2/3 49/2/3 53/2/3
f 55/4/3 50/4/3 49/4/3
f 55/2/3 49/2/3 54/2/3
f 56/1/3 51/1/3 50/1/3
f 56/4/3 50/4/3 55/4/3
f 57/4/3 52/4/3 51/4/3
f 57/1/3 51/1/3 56/1/3
f 58/2/3 46/2/3 52/2/3
f 58/4/3 52/4/3 57/4/3
f 59/3/3 54/3/3 53/3/3
f 60/2/3 56/2/3 55/2/3
f 60/3/3 54/3/3 59/3/3
f 60/2/3 55/2/3 54/2/3
f 61/4/3 57/4/3 56/4/3
f 61/2/3 56/2/3 60/2/3
f 62/2/3 58/2/3 57/2/3
f 62/4/3 57/4/3 61/4/3
f 63/2/3 46/2/3 58/2/3
f 63/2/3 58/2/3 62/2/3
f 64/2/3 10/2/3 46/2/3
f 64/2/3 46/2/3 63/2/3
f 65/2/3 62/2/3 61/2/3
f 65/2/3 60/2/3 59/2/3
f 65/2/3 63/2/3 62/2/3
f 65/2/3 61/2/3 60/2/3
f 66/2/3 63/2/3 65/2/3
f 67/3/3 64/3/3 63/3/3
f 67/2/3 63/2/3 66/2/3
f 68/2/3 10/2/3 64/2/3
f 68/3/3 64/3/3 67/3/3
f 69/3/3 66/3/3 65/3/3
f 69/2/3 65/2/3 59/2/3
f 70/2/3 67/2/3 66/2/3
f 70/3/3 66/3/3 69/3/3
f 70/2/3 68/2/3 67/2/3
f 71/2/3 69/2/3 59/2/3
f 71/2/3 70/2/3 69/2/3
f 72/2/3 68/2/3 70/2/3
f 72/2/3 70/2/3 71/2/3
f 72/2/3 10/2/3 68/2/3
f 73/2/4 74/2/4 75/2/4
f 75/2/4 74/2/4 76/2/4
f 83/2/5 78/2/5 77/2/5
f 83/3/5 79/3/5 78/3/5
f 84/2/5 80/2/5 79/2/5
f 84/3/5 79/3/5 83/3/5
f 85/3/5 81/3/5 80/3/5
f 85/2/5 80/2/5 84/2/5
f 86/2/5 82/2/5 81/2/5
f 86/3/5 81/3/5 85/3/5
f 87/2/5 85/2/5 84/2/5
f 87/2/5 84/2/5 83/2/5
f 87/2/5 86/2/5 85/2/5
f 87/2/5 83/2/5 77/2/5
f 88/2/5 82/2/5 86/2/5
f 88/2/5 86/2/5 87/2/5
f 89/2/6 90/2/6 91/2/6
f 91/2/6 90/2/6 92/2/6
