# MagicaVoxel @ Ephtracy

# group
o 

# material
mtllib model-1.mtl
usemtl palette

# normals
vn 0 0 1
vn 0 0 -1
vn 1 0 0
vn -1 0 0
vn 0 -1 0
vn 0 1 0

# texcoords
vt 0.0292969 0.5
vt 0.0371094 0.5
vt 0.365234 0.5
vt 0.373047 0.5
vt 0.486328 0.5
vt 0.494141 0.5
vt 0.517578 0.5
vt 0.642578 0.5
vt 0.650391 0.5
vt 0.654297 0.5

# verts
v 0.5 0.6 1
v -0.5 0.6 1
v 0.5 1 1
v 0.4 1 1
v 0.5 1.1 1
v 0.4 1.1 1
v 0.5 1.6 1
v 0.4 1.6 1
v 0.5 1.7 1
v 0.4 1.7 1
v 0.5 2.1 1
v -0.5 2.1 1
v 0.5 2 -0.3
v 0.4 2 -0.3
v 0.5 2.1 -0.3
v 0.4 2.1 -0.3
v 0.4 2 -0.4
v -0.4 2 -0.4
v 0.4 2.1 -0.4
v -0.4 2.1 -0.4
v 0.4 2 0.4
v -0.4 2 0.4
v 0.4 2.1 0.4
v -0.4 2.1 0.4
v 0.5 2 0.3
v 0.4 2 0.3
v 0.5 2.1 0.3
v 0.4 2.1 0.3
v 0.5 0.6 -1
v -0.5 0.6 -1
v 0.5 1.7 -1
v 0.4 1.7 -1
v 0.5 1.8 -1
v 0.4 1.8 -1
v 0.5 2.1 -1
v -0.5 2.1 -1
v 0.5 0.6 1
v 0.5 1 1
v 0.5 1.1 1
v 0.5 1.6 1
v 0.5 1.7 1
v 0.5 2.1 1
v 0.5 0.7 0.9
v 0.5 0.8 0.9
v 0.5 1 0.9
v 0.5 1.1 0.9
v 0.5 1.6 0.9
v 0.5 1.7 0.9
v 0.5 2 0.9
v 0.5 2.1 0.9
v 0.5 0.7 0.8
v 0.5 0.8 0.8
v 0.5 0.9 0.8
v 0.5 1.1 0.8
v 0.5 1.2 0.8
v 0.5 1.4 0.8
v 0.5 1.5 0.8
v 0.5 1.7 0.8
v 0.5 1.8 0.8
v 0.5 2 0.8
v 0.5 2.1 0.8
v 0.5 0.8 0.7
v 0.5 0.9 0.7
v 0.5 1 0.7
v 0.5 1.1 0.7
v 0.5 1.2 0.7
v 0.5 1.4 0.7
v 0.5 1.5 0.7
v 0.5 1.6 0.7
v 0.5 1.7 0.7
v 0.5 1.8 0.7
v 0.5 1.9 0.7
v 0.5 0.8 0.6
v 0.5 0.9 0.6
v 0.5 1 0.6
v 0.5 1.1 0.6
v 0.5 1.4 0.6
v 0.5 1.5 0.6
v 0.5 1.6 0.6
v 0.5 1.7 0.6
v 0.5 1.8 0.6
v 0.5 1.9 0.6
v 0.5 0.7 0.5
v 0.5 0.8 0.5
v 0.5 0.9 0.5
v 0.5 1 0.5
v 0.5 1.1 0.5
v 0.5 1.2 0.5
v 0.5 1.3 0.5
v 0.5 1.4 0.5
v 0.5 1.5 0.5
v 0.5 1.7 0.5
v 0.5 1.8 0.5
v 0.5 2 0.5
v 0.5 2.1 0.5
v 0.5 0.7 0.4
v 0.5 0.8 0.4
v 0.5 0.9 0.4
v 0.5 1 0.4
v 0.5 1.1 0.4
v 0.5 1.2 0.4
v 0.5 1.3 0.4
v 0.5 1.6 0.4
v 0.5 1.7 0.4
v 0.5 2 0.4
v 0.5 2.1 0.4
v 0.5 0.8 0.3
v 0.5 0.9 0.3
v 0.5 1 0.3
v 0.5 1.1 0.3
v 0.5 1.6 0.3
v 0.5 1.7 0.3
v 0.5 2 0.3
v 0.5 2.1 0.3
v 0.5 0.8 0.2
v 0.5 0.9 0.2
v 0.5 1 0.2
v 0.5 1.1 0.2
v 0.5 1.2 0.2
v 0.5 0.7 0.1
v 0.5 0.8 0.1
v 0.5 0.9 0.1
v 0.5 1.1 0.1
v 0.5 1.2 0.1
v 0.5 1.7 0.1
v 0.5 1.8 0.1
v 0.5 0.7 0
v 0.5 0.8 0
v 0.5 1 0
v 0.5 1.1 0
v 0.5 1.2 0
v 0.5 1.3 0
v 0.5 1.4 0
v 0.5 1.5 0
v 0.5 1.7 0
v 0.5 1.8 0
v 0.5 1 -0.1
v 0.5 1.1 -0.1
v 0.5 1.2 -0.1
v 0.5 1.3 -0.1
v 0.5 1.4 -0.1
v 0.5 1.5 -0.1
v 0.5 1.6 -0.1
v 0.5 1.8 -0.1
v 0.5 1.9 -0.1
v 0.5 1 -0.2
v 0.5 1.1 -0.2
v 0.5 1.5 -0.2
v 0.5 1.6 -0.2
v 0.5 1.7 -0.2
v 0.5 1.8 -0.2
v 0.5 1.9 -0.2
v 0.5 1 -0.3
v 0.5 1.1 -0.3
v 0.5 1.2 -0.3
v 0.5 1.3 -0.3
v 0.5 1.5 -0.3
v 0.5 1.6 -0.3
v 0.5 1.7 -0.3
v 0.5 1.8 -0.3
v 0.5 2 -0.3
v 0.5 2.1 -0.3
v 0.5 1.2 -0.4
v 0.5 1.3 -0.4
v 0.5 1.4 -0.4
v 0.5 1.5 -0.4
v 0.5 1.6 -0.4
v 0.5 1.7 -0.4
v 0.5 1.8 -0.4
v 0.5 1.9 -0.4
v 0.5 2 -0.4
v 0.5 1.2 -0.5
v 0.5 1.3 -0.5
v 0.5 1.4 -0.5
v 0.5 1.5 -0.5
v 0.5 1.6 -0.5
v 0.5 1.7 -0.5
v 0.5 1.8 -0.5
v 0.5 1.9 -0.5
v 0.5 2 -0.5
v 0.5 1 -0.6
v 0.5 1.1 -0.6
v 0.5 1.2 -0.6
v 0.5 1.3 -0.6
v 0.5 1.5 -0.6
v 0.5 1.6 -0.6
v 0.5 1.7 -0.6
v 0.5 1.8 -0.6
v 0.5 1 -0.7
v 0.5 1.1 -0.7
v 0.5 1.5 -0.7
v 0.5 1.6 -0.7
v 0.5 1.7 -0.7
v 0.5 1.8 -0.7
v 0.5 1.9 -0.7
v 0.5 1.2 -0.8
v 0.5 1.3 -0.8
v 0.5 1.4 -0.8
v 0.5 1.5 -0.8
v 0.5 1.6 -0.8
v 0.5 1.8 -0.8
v 0.5 1.9 -0.8
v 0.5 1.2 -0.9
v 0.5 1.3 -0.9
v 0.5 1.4 -0.9
v 0.5 1.5 -0.9
v 0.5 1.7 -0.9
v 0.5 1.8 -0.9
v 0.5 0.6 -1
v 0.5 1.7 -1
v 0.5 1.8 -1
v 0.5 2.1 -1
v -0.4 2 0.4
v -0.4 2.1 0.4
v -0.4 2 -0.4
v -0.4 2.1 -0.4
v 0.4 2 0.4
v 0.4 2.1 0.4
v 0.4 2 0.3
v 0.4 2.1 0.3
v 0.4 2 -0.3
v 0.4 2.1 -0.3
v 0.4 2 -0.4
v 0.4 2.1 -0.4
v -0.5 0.6 1
v -0.5 2.1 1
v -0.5 0.6 -1
v -0.5 2.1 -1
v 0.5 0.6 1
v 0.5 0.6 -1
v -0.5 0.6 1
v -0.5 0.6 -1
v 0.5 2 0.3
v 0.5 2 -0.3
v 0.4 2 0.4
v 0.4 2 0.3
v 0.4 2 -0.3
v 0.4 2 -0.4
v -0.4 2 0.4
v -0.4 2 -0.4
v 0.5 2.1 1
v 0.5 2.1 0.9
v 0.5 2.1 0.8
v 0.5 2.1 0.5
v 0.5 2.1 0.4
v 0.5 2.1 0.3
v 0.5 2.1 -0.3
v 0.5 2.1 -1
v 0.4 2.1 0.9
v 0.4 2.1 0.8
v 0.4 2.1 0.5
v 0.4 2.1 0.4
v 0.4 2.1 0.3
v 0.4 2.1 -0.3
v 0.4 2.1 -0.4
v -0.4 2.1 0.4
v -0.4 2.1 -0.4
v -0.5 2.1 1
v -0.5 2.1 -1

# faces
f 3/2/1 2/2/1 1/2/1
f 4/2/1 2/2/1 3/2/1
f 5/8/1 4/8/1 3/8/1
f 6/2/1 2/2/1 4/2/1
f 6/8/1 4/8/1 5/8/1
f 7/2/1 6/2/1 5/2/1
f 8/2/1 2/2/1 6/2/1
f 8/2/1 6/2/1 7/2/1
f 9/3/1 8/3/1 7/3/1
f 10/2/1 2/2/1 8/2/1
f 10/3/1 8/3/1 9/3/1
f 11/2/1 10/2/1 9/2/1
f 12/2/1 2/2/1 10/2/1
f 12/2/1 10/2/1 11/2/1
f 15/2/1 14/2/1 13/2/1
f 16/2/1 14/2/1 15/2/1
f 19/2/1 18/2/1 17/2/1
f 20/2/1 18/2/1 19/2/1
f 21/2/2 22/2/2 23/2/2
f 23/2/2 22/2/2 24/2/2
f 25/2/2 26/2/2 27/2/2
f 27/2/2 26/2/2 28/2/2
f 29/2/2 30/2/2 31/2/2
f 31/2/2 30/2/2 32/2/2
f 31/7/2 32/7/2 33/7/2
f 32/2/2 30/2/2 34/2/2
f 33/7/2 32/7/2 34/7/2
f 33/2/2 34/2/2 35/2/2
f 34/2/2 30/2/2 36/2/2
f 35/2/2 34/2/2 36/2/2
f 43/2/3 38/2/3 37/2/3
f 44/2/3 38/2/3 43/2/3
f 45/8/3 39/8/3 38/8/3
f 45/2/3 38/2/3 44/2/3
f 46/2/3 40/2/3 39/2/3
f 46/8/3 39/8/3 45/8/3
f 47/3/3 41/3/3 40/3/3
f 47/2/3 40/2/3 46/2/3
f 48/2/3 42/2/3 41/2/3
f 48/3/3 41/3/3 47/3/3
f 49/2/3 42/2/3 48/2/3
f 50/2/3 42/2/3 49/2/3
f 51/8/3 44/8/3 43/8/3
f 51/2/3 43/2/3 37/2/3
f 52/2/3 47/2/3 46/2/3
f 52/8/3 44/8/3 51/8/3
f 52/2/3 45/2/3 44/2/3
f 52/2/3 49/2/3 48/2/3
f 52/2/3 48/2/3 47/2/3
f 52/2/3 46/2/3 45/2/3
f 53/2/3 49/2/3 52/2/3
f 54/2/3 49/2/3 53/2/3
f 55/2/3 49/2/3 54/2/3
f 56/2/3 49/2/3 55/2/3
f 57/2/3 49/2/3 56/2/3
f 58/2/3 49/2/3 57/2/3
f 59/2/3 49/2/3 58/2/3
f 60/3/3 50/3/3 49/3/3
f 60/2/3 49/2/3 59/2/3
f 61/3/3 50/3/3 60/3/3
f 62/2/3 52/2/3 51/2/3
f 62/9/3 53/9/3 52/9/3
f 63/2/3 54/2/3 53/2/3
f 63/9/3 53/9/3 62/9/3
f 64/2/3 54/2/3 63/2/3
f 65/8/3 55/8/3 54/8/3
f 65/2/3 54/2/3 64/2/3
f 66/2/3 56/2/3 55/2/3
f 66/8/3 55/8/3 65/8/3
f 67/3/3 57/3/3 56/3/3
f 67/2/3 56/2/3 66/2/3
f 68/2/3 58/2/3 57/2/3
f 68/3/3 57/3/3 67/3/3
f 69/2/3 58/2/3 68/2/3
f 70/4/3 59/4/3 58/4/3
f 70/2/3 58/2/3 69/2/3
f 71/2/3 61/2/3 60/2/3
f 71/4/3 59/4/3 70/4/3
f 71/2/3 60/2/3 59/2/3
f 72/2/3 61/2/3 71/2/3
f 73/2/3 62/2/3 51/2/3
f 73/2/3 64/2/3 63/2/3
f 73/2/3 63/2/3 62/2/3
f 74/2/3 64/2/3 73/2/3
f 75/9/3 65/9/3 64/9/3
f 75/2/3 64/2/3 74/2/3
f 76/2/3 69/2/3 68/2/3
f 76/9/3 65/9/3 75/9/3
f 76/2/3 66/2/3 65/2/3
f 76/2/3 67/2/3 66/2/3
f 76/2/3 68/2/3 67/2/3
f 77/2/3 69/2/3 76/2/3
f 78/2/3 69/2/3 77/2/3
f 79/4/3 70/4/3 69/4/3
f 79/2/3 69/2/3 78/2/3
f 80/1/3 71/1/3 70/1/3
f 80/4/3 70/4/3 79/4/3
f 81/4/3 72/4/3 71/4/3
f 81/1/3 71/1/3 80/1/3
f 82/2/3 61/2/3 72/2/3
f 82/4/3 72/4/3 81/4/3
f 83/2/3 51/2/3 37/2/3
f 83/2/3 73/2/3 51/2/3
f 84/10/3 74/10/3 73/10/3
f 84/2/3 73/2/3 83/2/3
f 85/2/3 75/2/3 74/2/3
f 85/10/3 74/10/3 84/10/3
f 85/2/3 76/2/3 75/2/3
f 85/2/3 77/2/3 76/2/3
f 86/2/3 77/2/3 85/2/3
f 87/2/3 77/2/3 86/2/3
f 88/2/3 77/2/3 87/2/3
f 89/2/3 77/2/3 88/2/3
f 90/3/3 78/3/3 77/3/3
f 90/2/3 77/2/3 89/2/3
f 91/2/3 80/2/3 79/2/3
f 91/3/3 78/3/3 90/3/3
f 91/2/3 79/2/3 78/2/3
f 92/4/3 81/4/3 80/4/3
f 92/2/3 80/2/3 91/2/3
f 93/2/3 82/2/3 81/2/3
f 93/4/3 81/4/3 92/4/3
f 94/2/3 61/2/3 82/2/3
f 94/2/3 82/2/3 93/2/3
f 95/2/3 61/2/3 94/2/3
f 96/10/3 84/10/3 83/10/3
f 96/2/3 83/2/3 37/2/3
f 97/1/3 85/1/3 84/1/3
f 97/10/3 84/10/3 96/10/3
f 98/10/3 86/10/3 85/10/3
f 98/1/3 85/1/3 97/1/3
f 99/2/3 87/2/3 86/2/3
f 99/10/3 86/10/3 98/10/3
f 100/9/3 88/9/3 87/9/3
f 100/2/3 87/2/3 99/2/3
f 101/8/3 89/8/3 88/8/3
f 101/9/3 88/9/3 100/9/3
f 102/2/3 93/2/3 92/2/3
f 102/8/3 89/8/3 101/8/3
f 102/2/3 91/2/3 90/2/3
f 102/2/3 94/2/3 93/2/3
f 102/2/3 90/2/3 89/2/3
f 102/2/3 92/2/3 91/2/3
f 103/2/3 94/2/3 102/2/3
f 104/2/3 94/2/3 103/2/3
f 105/3/3 95/3/3 94/3/3
f 105/2/3 94/2/3 104/2/3
f 106/3/3 95/3/3 105/3/3
f 107/10/3 98/10/3 97/10/3
f 107/2/3 97/2/3 96/2/3
f 108/2/3 101/2/3 100/2/3
f 108/10/3 98/10/3 107/10/3
f 108/2/3 100/2/3 99/2/3
f 108/2/3 99/2/3 98/2/3
f 108/2/3 103/2/3 102/2/3
f 108/2/3 102/2/3 101/2/3
f 109/2/3 103/2/3 108/2/3
f 110/2/3 103/2/3 109/2/3
f 111/3/3 104/3/3 103/3/3
f 111/2/3 103/2/3 110/2/3
f 112/2/3 105/2/3 104/2/3
f 112/3/3 104/3/3 111/3/3
f 112/2/3 106/2/3 105/2/3
f 113/2/3 106/2/3 112/2/3
f 114/2/3 106/2/3 113/2/3
f 115/2/3 107/2/3 96/2/3
f 115/2/3 109/2/3 108/2/3
f 115/2/3 108/2/3 107/2/3
f 116/2/3 109/2/3 115/2/3
f 117/9/3 110/9/3 109/9/3
f 117/2/3 109/2/3 116/2/3
f 118/2/3 111/2/3 110/2/3
f 118/9/3 110/9/3 117/9/3
f 118/2/3 113/2/3 112/2/3
f 118/2/3 112/2/3 111/2/3
f 119/2/3 113/2/3 118/2/3
f 120/2/3 115/2/3 96/2/3
f 120/2/3 96/2/3 37/2/3
f 121/9/3 116/9/3 115/9/3
f 121/2/3 115/2/3 120/2/3
f 122/2/3 117/2/3 116/2/3
f 122/9/3 116/9/3 121/9/3
f 122/2/3 118/2/3 117/2/3
f 123/8/3 119/8/3 118/8/3
f 123/2/3 118/2/3 122/2/3
f 124/2/3 113/2/3 119/2/3
f 124/8/3 119/8/3 123/8/3
f 125/2/3 113/2/3 124/2/3
f 126/2/3 113/2/3 125/2/3
f 127/8/3 121/8/3 120/8/3
f 127/2/3 120/2/3 37/2/3
f 128/2/3 123/2/3 122/2/3
f 128/8/3 121/8/3 127/8/3
f 128/2/3 122/2/3 121/2/3
f 128/2/3 125/2/3 124/2/3
f 128/2/3 124/2/3 123/2/3
f 129/2/3 125/2/3 128/2/3
f 130/2/3 125/2/3 129/2/3
f 131/2/3 125/2/3 130/2/3
f 132/2/3 125/2/3 131/2/3
f 133/2/3 125/2/3 132/2/3
f 134/2/3 125/2/3 133/2/3
f 135/7/3 126/7/3 125/7/3
f 135/2/3 125/2/3 134/2/3
f 136/2/3 113/2/3 126/2/3
f 136/7/3 126/7/3 135/7/3
f 137/2/3 128/2/3 127/2/3
f 137/2/3 129/2/3 128/2/3
f 137/8/3 130/8/3 129/8/3
f 138/2/3 131/2/3 130/2/3
f 138/8/3 130/8/3 137/8/3
f 139/7/3 132/7/3 131/7/3
f 139/2/3 131/2/3 138/2/3
f 140/2/3 133/2/3 132/2/3
f 140/7/3 132/7/3 139/7/3
f 141/7/3 134/7/3 133/7/3
f 141/2/3 133/2/3 140/2/3
f 142/2/3 135/2/3 134/2/3
f 142/7/3 134/7/3 141/7/3
f 142/2/3 136/2/3 135/2/3
f 143/2/3 136/2/3 142/2/3
f 144/2/3 113/2/3 136/2/3
f 144/2/3 136/2/3 143/2/3
f 145/2/3 113/2/3 144/2/3
f 146/2/3 141/2/3 140/2/3
f 146/2/3 140/2/3 139/2/3
f 146/2/3 138/2/3 137/2/3
f 146/2/3 139/2/3 138/2/3
f 146/2/3 142/2/3 141/2/3
f 146/2/3 137/2/3 127/2/3
f 147/2/3 142/2/3 146/2/3
f 148/5/3 143/5/3 142/5/3
f 148/2/3 142/2/3 147/2/3
f 149/2/3 144/2/3 143/2/3
f 149/5/3 143/5/3 148/5/3
f 150/2/3 144/2/3 149/2/3
f 151/7/3 145/7/3 144/7/3
f 151/2/3 144/2/3 150/2/3
f 152/2/3 113/2/3 145/2/3
f 152/7/3 145/7/3 151/7/3
f 153/7/3 147/7/3 146/7/3
f 153/2/3 146/2/3 127/2/3
f 154/2/3 150/2/3 149/2/3
f 154/7/3 147/7/3 153/7/3
f 154/2/3 148/2/3 147/2/3
f 154/2/3 149/2/3 148/2/3
f 155/2/3 150/2/3 154/2/3
f 156/2/3 150/2/3 155/2/3
f 157/2/3 150/2/3 156/2/3
f 158/2/3 150/2/3 157/2/3
f 159/5/3 151/5/3 150/5/3
f 159/2/3 150/2/3 158/2/3
f 160/2/3 152/2/3 151/2/3
f 160/5/3 151/5/3 159/5/3
f 161/2/3 113/2/3 152/2/3
f 161/2/3 152/2/3 160/2/3
f 163/2/3 154/2/3 153/2/3
f 163/2/3 155/2/3 154/2/3
f 163/5/3 156/5/3 155/5/3
f 164/2/3 157/2/3 156/2/3
f 164/5/3 156/5/3 163/5/3
f 165/2/3 157/2/3 164/2/3
f 166/6/3 158/6/3 157/6/3
f 166/2/3 157/2/3 165/2/3
f 167/2/3 160/2/3 159/2/3
f 167/6/3 158/6/3 166/6/3
f 167/2/3 159/2/3 158/2/3
f 167/2/3 162/2/3 161/2/3
f 167/2/3 161/2/3 160/2/3
f 168/2/3 162/2/3 167/2/3
f 169/2/3 162/2/3 168/2/3
f 170/2/3 162/2/3 169/2/3
f 171/2/3 162/2/3 170/2/3
f 172/2/3 165/2/3 164/2/3
f 172/2/3 164/2/3 163/2/3
f 172/2/3 163/2/3 153/2/3
f 173/2/3 165/2/3 172/2/3
f 174/6/3 166/6/3 165/6/3
f 174/2/3 165/2/3 173/2/3
f 175/1/3 167/1/3 166/1/3
f 175/6/3 166/6/3 174/6/3
f 176/6/3 168/6/3 167/6/3
f 176/1/3 167/1/3 175/1/3
f 177/2/3 169/2/3 168/2/3
f 177/6/3 168/6/3 176/6/3
f 178/5/3 170/5/3 169/5/3
f 178/2/3 169/2/3 177/2/3
f 179/7/3 171/7/3 170/7/3
f 179/5/3 170/5/3 178/5/3
f 180/2/3 162/2/3 171/2/3
f 180/7/3 171/7/3 179/7/3
f 181/2/3 153/2/3 127/2/3
f 181/2/3 172/2/3 153/2/3
f 182/2/3 172/2/3 181/2/3
f 183/5/3 173/5/3 172/5/3
f 183/2/3 172/2/3 182/2/3
f 184/2/3 174/2/3 173/2/3
f 184/5/3 173/5/3 183/5/3
f 184/2/3 175/2/3 174/2/3
f 185/6/3 176/6/3 175/6/3
f 185/2/3 175/2/3 184/2/3
f 186/2/3 179/2/3 178/2/3
f 186/6/3 176/6/3 185/6/3
f 186/2/3 178/2/3 177/2/3
f 186/2/3 180/2/3 179/2/3
f 186/2/3 177/2/3 176/2/3
f 187/2/3 180/2/3 186/2/3
f 188/2/3 180/2/3 187/2/3
f 189/7/3 182/7/3 181/7/3
f 189/2/3 181/2/3 127/2/3
f 190/2/3 185/2/3 184/2/3
f 190/7/3 182/7/3 189/7/3
f 190/2/3 184/2/3 183/2/3
f 190/2/3 187/2/3 186/2/3
f 190/2/3 186/2/3 185/2/3
f 190/2/3 183/2/3 182/2/3
f 191/2/3 187/2/3 190/2/3
f 192/2/3 187/2/3 191/2/3
f 193/5/3 188/5/3 187/5/3
f 193/2/3 187/2/3 192/2/3
f 194/2/3 180/2/3 188/2/3
f 194/5/3 188/5/3 193/5/3
f 195/2/3 180/2/3 194/2/3
f 196/2/3 190/2/3 189/2/3
f 196/2/3 191/2/3 190/2/3
f 197/2/3 191/2/3 196/2/3
f 198/2/3 191/2/3 197/2/3
f 199/5/3 192/5/3 191/5/3
f 199/2/3 191/2/3 198/2/3
f 200/2/3 193/2/3 192/2/3
f 200/5/3 192/5/3 199/5/3
f 200/2/3 194/2/3 193/2/3
f 201/7/3 195/7/3 194/7/3
f 201/2/3 194/2/3 200/2/3
f 202/2/3 180/2/3 195/2/3
f 202/7/3 195/7/3 201/7/3
f 203/7/3 197/7/3 196/7/3
f 203/2/3 196/2/3 189/2/3
f 204/2/3 198/2/3 197/2/3
f 204/7/3 197/7/3 203/7/3
f 205/7/3 199/7/3 198/7/3
f 205/2/3 198/2/3 204/2/3
f 206/2/3 201/2/3 200/2/3
f 206/7/3 199/7/3 205/7/3
f 206/2/3 200/2/3 199/2/3
f 206/2/3 202/2/3 201/2/3
f 207/2/3 202/2/3 206/2/3
f 208/2/3 202/2/3 207/2/3
f 209/2/3 189/2/3 127/2/3
f 209/2/3 127/2/3 37/2/3
f 209/2/3 204/2/3 203/2/3
f 209/2/3 207/2/3 206/2/3
f 209/2/3 206/2/3 205/2/3
f 209/2/3 203/2/3 189/2/3
f 209/2/3 205/2/3 204/2/3
f 210/7/3 208/7/3 207/7/3
f 210/2/3 207/2/3 209/2/3
f 211/2/3 202/2/3 208/2/3
f 211/7/3 208/7/3 210/7/3
f 212/2/3 162/2/3 180/2/3
f 212/2/3 202/2/3 211/2/3
f 212/2/3 180/2/3 202/2/3
f 215/2/3 214/2/3 213/2/3
f 216/2/3 214/2/3 215/2/3
f 217/2/4 218/2/4 219/2/4
f 219/2/4 218/2/4 220/2/4
f 221/2/4 222/2/4 223/2/4
f 223/2/4 222/2/4 224/2/4
f 225/2/4 226/2/4 227/2/4
f 227/2/4 226/2/4 228/2/4
f 231/2/5 230/2/5 229/2/5
f 232/2/5 230/2/5 231/2/5
f 233/2/6 234/2/6 236/2/6
f 236/2/6 234/2/6 237/2/6
f 235/2/6 236/2/6 239/2/6
f 237/2/6 238/2/6 239/2/6
f 236/2/6 237/2/6 239/2/6
f 239/2/6 238/2/6 240/2/6
f 241/2/6 242/2/6 249/2/6
f 242/3/6 243/3/6 249/3/6
f 243/2/6 244/2/6 250/2/6
f 249/3/6 243/3/6 250/3/6
f 244/3/6 245/3/6 251/3/6
f 250/2/6 244/2/6 251/2/6
f 245/2/6 246/2/6 252/2/6
f 251/3/6 245/3/6 252/3/6
f 252/2/6 246/2/6 253/2/6
f 247/2/6 248/2/6 254/2/6
f 254/2/6 248/2/6 255/2/6
f 250/2/6 251/2/6 256/2/6
f 249/2/6 250/2/6 256/2/6
f 251/2/6 252/2/6 256/2/6
f 255/2/6 248/2/6 257/2/6
f 249/2/6 256/2/6 258/2/6
f 256/2/6 257/2/6 258/2/6
f 241/2/6 249/2/6 258/2/6
f 257/2/6 248/2/6 259/2/6
f 258/2/6 257/2/6 259/2/6
