# MagicaVoxel @ Ephtracy

# group
o 

# material
mtllib model-14.mtl
usemtl palette

# normals
vn 0 0 1
vn 0 0 -1
vn 1 0 0
vn -1 0 0
vn 0 -1 0
vn 0 1 0

# texcoords
vt 0.0292969 0.5
vt 0.490234 0.5
vt 0.751953 0.5
vt 0.755859 0.5

# verts
v 0.2 4.4 1.5
v 0 4.4 1.5
v 0.2 4.8 1.5
v 0.1 4.8 1.5
v 0.2 5.1 1.5
v 0.1 5.1 1.5
v 0 5.1 1.5
v 0.9 3.8 1.1
v -0.7 3.8 1.1
v 0.2 4.4 1.1
v 0 4.4 1.1
v 0.2 5.1 1.1
v 0 5.1 1.1
v 0.9 5.8 1.1
v 0.4 5.8 1.1
v 0.9 5.9 1.1
v 0.4 5.9 1.1
v -0.7 5.9 1.1
v 0.9 3.7 1
v -0.7 3.7 1
v 0.9 3.8 1
v -0.7 3.8 1
v 1 5.4 1
v 0.9 5.4 1
v 1 5.6 1
v 0.9 5.6 1
v 1 5.3 0.6
v 0.9 5.3 0.6
v 1 5.4 0.6
v 0.9 5.4 0.6
v 1 5.4 -0.2
v 0.9 5.4 -0.2
v 1 5.6 -0.2
v 0.9 5.6 -0.2
v 1 5.5 0.4
v 0.9 5.5 0.4
v 1 5.6 0.4
v 0.9 5.6 0.4
v 1 5.3 0.2
v 0.9 5.3 0.2
v 1 5.5 0.2
v 0.9 5.5 0.2
v 0.9 3.7 -1
v -0.7 3.7 -1
v 0.9 3.8 -1
v -0.7 3.8 -1
v 1 5.4 -1
v 0.9 5.4 -1
v 1 5.6 -1
v 0.9 5.6 -1
v 0.9 3.8 -1.1
v -0.7 3.8 -1.1
v 0.2 4.4 -1.1
v 0 4.4 -1.1
v 0.9 4.5 -1.1
v 0.8 4.5 -1.1
v 0.9 5.1 -1.1
v 0.8 5.1 -1.1
v 0.2 5.1 -1.1
v 0 5.1 -1.1
v 0.2 5.8 -1.1
v -0.4 5.8 -1.1
v 0.9 5.9 -1.1
v 0.2 5.9 -1.1
v -0.4 5.9 -1.1
v -0.7 5.9 -1.1
v 0.2 4.4 -1.5
v 0 4.4 -1.5
v 0.2 4.8 -1.5
v 0.1 4.8 -1.5
v 0.2 5.1 -1.5
v 0.1 5.1 -1.5
v 0 5.1 -1.5
v 1 5.4 1
v 1 5.6 1
v 1 5.3 0.6
v 1 5.4 0.6
v 1 5.5 0.4
v 1 5.6 0.4
v 1 5.3 0.2
v 1 5.5 0.2
v 1 5.4 -0.2
v 1 5.6 -0.2
v 1 5.4 -1
v 1 5.6 -1
v 0.9 3.8 1.1
v 0.9 5.8 1.1
v 0.9 5.9 1.1
v 0.9 3.7 1
v 0.9 3.8 1
v 0.9 5.4 1
v 0.9 5.6 1
v 0.9 4.4 0.8
v 0.9 4.5 0.8
v 0.9 4.6 0.7
v 0.9 5.2 0.7
v 0.9 5 0.6
v 0.9 5.1 0.6
v 0.9 5.3 0.6
v 0.9 5.4 0.6
v 0.9 5 0.5
v 0.9 5.1 0.5
v 0.9 4.4 0.4
v 0.9 4.5 0.4
v 0.9 4.6 0.4
v 0.9 5.2 0.4
v 0.9 5.5 0.4
v 0.9 5.6 0.4
v 0.9 5.8 0.4
v 0.9 5.9 0.4
v 0.9 4.1 0.3
v 0.9 4.2 0.3
v 0.9 5.3 0.2
v 0.9 5.5 0.2
v 0.9 5.4 -0.2
v 0.9 5.6 -0.2
v 0.9 5.8 -0.2
v 0.9 5.9 -0.2
v 0.9 4.1 -0.3
v 0.9 4.2 -0.3
v 0.9 4.4 -0.4
v 0.9 4.5 -0.4
v 0.9 4.6 -0.4
v 0.9 5.2 -0.4
v 0.9 5 -0.5
v 0.9 5.1 -0.5
v 0.9 5.8 -0.5
v 0.9 5.9 -0.5
v 0.9 5 -0.6
v 0.9 5.1 -0.6
v 0.9 4.6 -0.7
v 0.9 5.2 -0.7
v 0.9 4.4 -0.8
v 0.9 4.5 -0.8
v 0.9 3.7 -1
v 0.9 3.8 -1
v 0.9 4.5 -1
v 0.9 5.1 -1
v 0.9 5.4 -1
v 0.9 5.6 -1
v 0.9 3.8 -1.1
v 0.9 4.5 -1.1
v 0.9 5.1 -1.1
v 0.9 5.9 -1.1
v 0.2 4.4 1.5
v 0.2 4.8 1.5
v 0.2 5.1 1.5
v 0.2 4.8 1.4
v 0.2 5.1 1.4
v 0.2 4.4 1.1
v 0.2 5.1 1.1
v 0.2 4.4 -1.1
v 0.2 5.1 -1.1
v 0.2 4.8 -1.4
v 0.2 5.1 -1.4
v 0.2 4.4 -1.5
v 0.2 4.8 -1.5
v 0.2 5.1 -1.5
v 0 4.4 1.5
v 0 5.1 1.5
v 0 4.4 1.1
v 0 5.1 1.1
v 0 4.4 -1.1
v 0 5.1 -1.1
v 0 4.4 -1.5
v 0 5.1 -1.5
v -0.7 3.8 1.1
v -0.7 5.9 1.1
v -0.7 3.7 1
v -0.7 3.8 1
v -0.7 3.7 -1
v -0.7 3.8 -1
v -0.7 3.8 -1.1
v -0.7 5.9 -1.1
v 0.9 3.7 1
v 0.9 3.7 -1
v -0.7 3.7 1
v -0.7 3.7 -1
v 0.9 3.8 1.1
v 0.9 3.8 1
v 0.9 3.8 -1
v 0.9 3.8 -1.1
v -0.7 3.8 1.1
v -0.7 3.8 1
v -0.7 3.8 -1
v -0.7 3.8 -1.1
v 0.2 4.4 1.5
v 0.2 4.4 1.1
v 0.2 4.4 -1.1
v 0.2 4.4 -1.5
v 0 4.4 1.5
v 0 4.4 1.1
v 0 4.4 -1.1
v 0 4.4 -1.5
v 1 5.3 0.6
v 1 5.3 0.2
v 0.9 5.3 0.6
v 0.9 5.3 0.2
v 1 5.4 1
v 1 5.4 0.6
v 1 5.4 -0.2
v 1 5.4 -1
v 0.9 5.4 1
v 0.9 5.4 0.6
v 0.9 5.4 -0.2
v 0.9 5.4 -1
v 0.2 5.1 1.5
v 0.2 5.1 1.4
v 0.2 5.1 1.1
v 0.2 5.1 -1.1
v 0.2 5.1 -1.4
v 0.2 5.1 -1.5
v 0.1 5.1 1.5
v 0.1 5.1 1.4
v 0.1 5.1 -1.4
v 0.1 5.1 -1.5
v 0 5.1 1.5
v 0 5.1 1.1
v 0 5.1 -1.1
v 0 5.1 -1.5
v 1 5.5 0.4
v 1 5.5 0.2
v 0.9 5.5 0.4
v 0.9 5.5 0.2
v 1 5.6 1
v 1 5.6 0.4
v 1 5.6 -0.2
v 1 5.6 -1
v 0.9 5.6 1
v 0.9 5.6 0.4
v 0.9 5.6 -0.2
v 0.9 5.6 -1
v 0.9 5.9 1.1
v 0.9 5.9 0.4
v 0.9 5.9 -0.2
v 0.9 5.9 -0.5
v 0.9 5.9 -1.1
v 0.8 5.9 1
v 0.8 5.9 0.4
v 0.8 5.9 -0.2
v 0.8 5.9 -0.5
v 0.4 5.9 1.1
v 0.4 5.9 1
v 0.2 5.9 -1
v 0.2 5.9 -1.1
v -0.4 5.9 -1
v -0.4 5.9 -1.1
v -0.7 5.9 1.1
v -0.7 5.9 -1.1

# faces
f 3/2/1 2/2/1 1/2/1
f 4/2/1 2/2/1 3/2/1
f 5/1/1 4/1/1 3/1/1
f 6/2/1 2/2/1 4/2/1
f 6/1/1 4/1/1 5/1/1
f 7/2/1 2/2/1 6/2/1
f 10/2/1 9/2/1 8/2/1
f 11/2/1 9/2/1 10/2/1
f 12/2/1 10/2/1 8/2/1
f 13/2/1 9/2/1 11/2/1
f 14/2/1 12/2/1 8/2/1
f 14/2/1 13/2/1 12/2/1
f 15/2/1 13/2/1 14/2/1
f 16/1/1 15/1/1 14/1/1
f 17/2/1 13/2/1 15/2/1
f 17/1/1 15/1/1 16/1/1
f 18/2/1 9/2/1 13/2/1
f 18/2/1 13/2/1 17/2/1
f 21/2/1 20/2/1 19/2/1
f 22/2/1 20/2/1 21/2/1
f 25/4/1 24/4/1 23/4/1
f 26/4/1 24/4/1 25/4/1
f 29/4/1 28/4/1 27/4/1
f 30/4/1 28/4/1 29/4/1
f 33/4/1 32/4/1 31/4/1
f 34/4/1 32/4/1 33/4/1
f 35/4/2 36/4/2 37/4/2
f 37/4/2 36/4/2 38/4/2
f 39/4/2 40/4/2 41/4/2
f 41/4/2 40/4/2 42/4/2
f 43/2/2 44/2/2 45/2/2
f 45/2/2 44/2/2 46/2/2
f 47/4/2 48/4/2 49/4/2
f 49/4/2 48/4/2 50/4/2
f 51/2/2 52/2/2 53/2/2
f 53/2/2 52/2/2 54/2/2
f 51/2/2 53/2/2 55/2/2
f 55/2/2 53/2/2 56/2/2
f 55/1/2 56/1/2 57/1/2
f 56/2/2 53/2/2 58/2/2
f 57/1/2 56/1/2 58/1/2
f 58/2/2 53/2/2 59/2/2
f 54/2/2 52/2/2 60/2/2
f 58/2/2 59/2/2 61/2/2
f 59/2/2 60/2/2 61/2/2
f 57/2/2 58/2/2 61/2/2
f 60/2/2 52/2/2 62/2/2
f 61/2/2 60/2/2 62/2/2
f 57/2/2 61/2/2 63/2/2
f 61/1/2 62/1/2 64/1/2
f 63/2/2 61/2/2 64/2/2
f 62/2/2 52/2/2 65/2/2
f 64/1/2 62/1/2 65/1/2
f 65/2/2 52/2/2 66/2/2
f 67/2/2 68/2/2 69/2/2
f 69/2/2 68/2/2 70/2/2
f 69/1/2 70/1/2 71/1/2
f 70/2/2 68/2/2 72/2/2
f 71/1/2 70/1/2 72/1/2
f 72/2/2 68/2/2 73/2/2
f 77/4/3 75/4/3 74/4/3
f 78/4/3 75/4/3 77/4/3
f 78/4/3 77/4/3 76/4/3
f 79/4/3 75/4/3 78/4/3
f 80/4/3 78/4/3 76/4/3
f 81/4/3 78/4/3 80/4/3
f 84/4/3 83/4/3 82/4/3
f 85/4/3 83/4/3 84/4/3
f 90/2/3 87/2/3 86/2/3
f 91/2/3 87/2/3 90/2/3
f 92/2/3 87/2/3 91/2/3
f 93/2/3 90/2/3 89/2/3
f 93/2/3 91/2/3 90/2/3
f 94/2/3 91/2/3 93/2/3
f 95/2/3 91/2/3 94/2/3
f 96/2/3 91/2/3 95/2/3
f 97/3/3 96/3/3 95/3/3
f 98/3/3 96/3/3 97/3/3
f 99/2/3 91/2/3 96/2/3
f 100/2/3 91/2/3 99/2/3
f 101/3/3 97/3/3 95/3/3
f 101/2/3 98/2/3 97/2/3
f 102/3/3 96/3/3 98/3/3
f 102/2/3 98/2/3 101/2/3
f 103/2/3 93/2/3 89/2/3
f 103/1/3 94/1/3 93/1/3
f 104/2/3 95/2/3 94/2/3
f 104/1/3 94/1/3 103/1/3
f 105/3/3 102/3/3 101/3/3
f 105/2/3 95/2/3 104/2/3
f 105/3/3 101/3/3 95/3/3
f 106/3/3 96/3/3 102/3/3
f 106/3/3 102/3/3 105/3/3
f 106/2/3 99/2/3 96/2/3
f 108/2/3 87/2/3 92/2/3
f 109/1/3 88/1/3 87/1/3
f 109/2/3 87/2/3 108/2/3
f 110/1/3 88/1/3 109/1/3
f 111/2/3 106/2/3 105/2/3
f 111/2/3 105/2/3 104/2/3
f 111/2/3 104/2/3 103/2/3
f 111/2/3 103/2/3 89/2/3
f 112/2/3 106/2/3 111/2/3
f 113/2/3 99/2/3 106/2/3
f 113/2/3 106/2/3 112/2/3
f 114/2/3 108/2/3 107/2/3
f 114/2/3 110/2/3 109/2/3
f 114/2/3 109/2/3 108/2/3
f 115/2/3 114/2/3 113/2/3
f 116/2/3 110/2/3 114/2/3
f 116/2/3 114/2/3 115/2/3
f 117/2/3 110/2/3 116/2/3
f 118/2/3 110/2/3 117/2/3
f 119/2/3 111/2/3 89/2/3
f 119/3/3 112/3/3 111/3/3
f 120/2/3 113/2/3 112/2/3
f 120/3/3 112/3/3 119/3/3
f 120/2/3 115/2/3 113/2/3
f 121/2/3 120/2/3 119/2/3
f 121/2/3 115/2/3 120/2/3
f 122/2/3 115/2/3 121/2/3
f 123/2/3 115/2/3 122/2/3
f 124/2/3 115/2/3 123/2/3
f 125/3/3 124/3/3 123/3/3
f 126/3/3 124/3/3 125/3/3
f 127/1/3 118/1/3 117/1/3
f 127/2/3 117/2/3 116/2/3
f 128/1/3 118/1/3 127/1/3
f 129/2/3 126/2/3 125/2/3
f 129/3/3 125/3/3 123/3/3
f 130/3/3 124/3/3 126/3/3
f 130/2/3 126/2/3 129/2/3
f 131/3/3 129/3/3 123/3/3
f 131/2/3 123/2/3 122/2/3
f 131/3/3 130/3/3 129/3/3
f 132/3/3 124/3/3 130/3/3
f 132/3/3 130/3/3 131/3/3
f 132/2/3 115/2/3 124/2/3
f 133/2/3 121/2/3 119/2/3
f 133/1/3 122/1/3 121/1/3
f 134/2/3 131/2/3 122/2/3
f 134/1/3 122/1/3 133/1/3
f 134/2/3 132/2/3 131/2/3
f 135/2/3 119/2/3 89/2/3
f 135/2/3 133/2/3 119/2/3
f 135/2/3 134/2/3 133/2/3
f 136/2/3 134/2/3 135/2/3
f 137/2/3 132/2/3 134/2/3
f 137/2/3 134/2/3 136/2/3
f 138/2/3 132/2/3 137/2/3
f 139/2/3 115/2/3 132/2/3
f 139/2/3 132/2/3 138/2/3
f 140/2/3 127/2/3 116/2/3
f 140/2/3 128/2/3 127/2/3
f 141/2/3 137/2/3 136/2/3
f 142/1/3 138/1/3 137/1/3
f 142/2/3 137/2/3 141/2/3
f 143/2/3 140/2/3 139/2/3
f 143/1/3 138/1/3 142/1/3
f 143/2/3 139/2/3 138/2/3
f 144/2/3 128/2/3 140/2/3
f 144/2/3 140/2/3 143/2/3
f 148/2/3 146/2/3 145/2/3
f 148/1/3 147/1/3 146/1/3
f 149/1/3 147/1/3 148/1/3
f 150/2/3 148/2/3 145/2/3
f 150/2/3 149/2/3 148/2/3
f 151/2/3 149/2/3 150/2/3
f 154/2/3 153/2/3 152/2/3
f 155/2/3 153/2/3 154/2/3
f 156/2/3 154/2/3 152/2/3
f 157/1/3 155/1/3 154/1/3
f 157/2/3 154/2/3 156/2/3
f 158/1/3 155/1/3 157/1/3
f 159/2/4 160/2/4 161/2/4
f 161/2/4 160/2/4 162/2/4
f 163/2/4 164/2/4 165/2/4
f 165/2/4 164/2/4 166/2/4
f 167/2/4 168/2/4 170/2/4
f 169/2/4 170/2/4 171/2/4
f 170/2/4 168/2/4 172/2/4
f 171/2/4 170/2/4 172/2/4
f 172/2/4 168/2/4 173/2/4
f 173/2/4 168/2/4 174/2/4
f 177/2/5 176/2/5 175/2/5
f 178/2/5 176/2/5 177/2/5
f 183/2/5 180/2/5 179/2/5
f 184/2/5 180/2/5 183/2/5
f 185/2/5 182/2/5 181/2/5
f 186/2/5 182/2/5 185/2/5
f 191/2/5 188/2/5 187/2/5
f 192/2/5 188/2/5 191/2/5
f 193/2/5 190/2/5 189/2/5
f 194/2/5 190/2/5 193/2/5
f 197/4/5 196/4/5 195/4/5
f 198/4/5 196/4/5 197/4/5
f 203/4/5 200/4/5 199/4/5
f 204/4/5 200/4/5 203/4/5
f 205/4/5 202/4/5 201/4/5
f 206/4/5 202/4/5 205/4/5
f 207/1/6 208/1/6 213/1/6
f 208/2/6 209/2/6 214/2/6
f 213/1/6 208/1/6 214/1/6
f 211/1/6 212/1/6 215/1/6
f 210/2/6 211/2/6 215/2/6
f 215/1/6 212/1/6 216/1/6
f 213/2/6 214/2/6 217/2/6
f 214/2/6 209/2/6 218/2/6
f 217/2/6 214/2/6 218/2/6
f 210/2/6 215/2/6 219/2/6
f 215/2/6 216/2/6 219/2/6
f 219/2/6 216/2/6 220/2/6
f 221/4/6 222/4/6 223/4/6
f 223/4/6 222/4/6 224/4/6
f 225/4/6 226/4/6 229/4/6
f 229/4/6 226/4/6 230/4/6
f 227/4/6 228/4/6 231/4/6
f 231/4/6 228/4/6 232/4/6
f 233/1/6 234/1/6 238/1/6
f 234/2/6 235/2/6 239/2/6
f 238/1/6 234/1/6 239/1/6
f 235/1/6 236/1/6 240/1/6
f 239/2/6 235/2/6 240/2/6
f 236/2/6 237/2/6 241/2/6
f 240/1/6 236/1/6 241/1/6
f 233/1/6 238/1/6 242/1/6
f 239/2/6 240/2/6 243/2/6
f 242/1/6 238/1/6 243/1/6
f 238/2/6 239/2/6 243/2/6
f 240/2/6 241/2/6 243/2/6
f 241/2/6 237/2/6 244/2/6
f 243/2/6 241/2/6 244/2/6
f 242/2/6 243/2/6 244/2/6
f 244/2/6 237/2/6 245/2/6
f 242/2/6 244/2/6 246/2/6
f 244/1/6 245/1/6 246/1/6
f 246/1/6 245/1/6 247/1/6
f 242/2/6 246/2/6 248/2/6
f 246/2/6 247/2/6 248/2/6
f 248/2/6 247/2/6 249/2/6
