# MagicaVoxel @ Ephtracy

# group
o 

# material
mtllib model-13.mtl
usemtl palette

# normals
vn 0 0 1
vn 0 0 -1
vn 1 0 0
vn -1 0 0
vn 0 -1 0
vn 0 1 0

# texcoords
vt 0.0292969 0.5
vt 0.490234 0.5

# verts
v 0.3 2.9 -2.4
v -0.3 2.9 -2.4
v 0.3 3.5 -2.4
v -0.3 3.5 -2.4
v 0.3 2.9 -2.9
v -0.3 2.9 -2.9
v 0.3 3.4 -2.9
v 0 3.4 -2.9
v 0.3 3.5 -2.9
v 0 3.5 -2.9
v -0.3 3.5 -2.9
v 0.3 2.9 -2.4
v 0.3 3.5 -2.4
v 0.3 3.4 -2.7
v 0.3 3.5 -2.7
v 0.3 2.9 -2.9
v 0.3 3.4 -2.9
v 0.3 3.5 -2.9
v -0.3 2.9 -2.4
v -0.3 3.5 -2.4
v -0.3 2.9 -2.9
v -0.3 3.5 -2.9
v 0.3 2.9 -2.4
v 0.3 2.9 -2.9
v -0.3 2.9 -2.4
v -0.3 2.9 -2.9
v 0.3 3.5 -2.4
v 0.3 3.5 -2.7
v 0.3 3.5 -2.9
v 0.2 3.5 -2.7
v 0.2 3.5 -2.8
v 0 3.5 -2.8
v 0 3.5 -2.9
v -0.3 3.5 -2.4
v -0.3 3.5 -2.9

# faces
f 3/2/1 2/2/1 1/2/1
f 4/2/1 2/2/1 3/2/1
f 5/2/2 6/2/2 7/2/2
f 7/2/2 6/2/2 8/2/2
f 7/1/2 8/1/2 9/1/2
f 8/2/2 6/2/2 10/2/2
f 9/1/2 8/1/2 10/1/2
f 10/2/2 6/2/2 11/2/2
f 14/2/3 13/2/3 12/2/3
f 15/2/3 13/2/3 14/2/3
f 16/2/3 14/2/3 12/2/3
f 17/1/3 15/1/3 14/1/3
f 17/2/3 14/2/3 16/2/3
f 18/1/3 15/1/3 17/1/3
f 19/2/4 20/2/4 21/2/4
f 21/2/4 20/2/4 22/2/4
f 25/2/5 24/2/5 23/2/5
f 26/2/5 24/2/5 25/2/5
f 27/2/6 28/2/6 30/2/6
f 28/1/6 29/1/6 30/1/6
f 30/1/6 29/1/6 31/1/6
f 30/2/6 31/2/6 32/2/6
f 31/1/6 29/1/6 32/1/6
f 32/1/6 29/1/6 33/1/6
f 27/2/6 30/2/6 34/2/6
f 30/2/6 32/2/6 34/2/6
f 32/2/6 33/2/6 34/2/6
f 34/2/6 33/2/6 35/2/6
