# MagicaVoxel @ Ephtracy

# group
o 

# material
mtllib model-2.mtl
usemtl palette

# normals
vn 0 0 1
vn 0 0 -1
vn 1 0 0
vn -1 0 0
vn 0 -1 0
vn 0 1 0

# texcoords
vt 0.0292969 0.5
vt 0.490234 0.5

# verts
v 0.8 0 0.9
v -0.4 0 0.9
v 0.8 0.2 0.9
v 0.7 0.2 0.9
v 0.7 0.3 0.9
v 0.6 0.3 0.9
v 0.8 0.4 0.9
v 0.6 0.4 0.9
v 0.4 0.4 0.9
v 0.4 0.6 0.9
v -0.4 0.6 0.9
v 0.8 0 0.2
v -0.4 0 0.2
v 0.8 0.4 0.2
v 0.4 0.4 0.2
v 0.4 0.6 0.2
v -0.4 0.6 0.2
v 0.8 0 0.9
v 0.8 0.2 0.9
v 0.8 0.4 0.9
v 0.8 0.2 0.8
v 0.8 0.3 0.8
v 0.8 0.3 0.5
v 0.8 0.4 0.5
v 0.8 0 0.2
v 0.8 0.4 0.2
v 0.4 0.4 0.9
v 0.4 0.6 0.9
v 0.4 0.4 0.2
v 0.4 0.6 0.2
v -0.4 0 0.9
v -0.4 0.6 0.9
v -0.4 0 0.2
v -0.4 0.6 0.2
v 0.8 0 0.9
v 0.8 0 0.2
v -0.4 0 0.9
v -0.4 0 0.2
v 0.8 0.4 0.9
v 0.8 0.4 0.5
v 0.8 0.4 0.2
v 0.6 0.4 0.9
v 0.6 0.4 0.5
v 0.4 0.4 0.9
v 0.4 0.4 0.2
v 0.4 0.6 0.9
v 0.4 0.6 0.2
v -0.4 0.6 0.9
v -0.4 0.6 0.2

# faces
f 3/2/1 2/2/1 1/2/1
f 4/2/1 2/2/1 3/2/1
f 5/1/1 4/1/1 3/1/1
f 5/2/1 2/2/1 4/2/1
f 6/2/1 2/2/1 5/2/1
f 7/1/1 5/1/1 3/1/1
f 7/1/1 6/1/1 5/1/1
f 8/2/1 2/2/1 6/2/1
f 8/1/1 6/1/1 7/1/1
f 9/2/1 2/2/1 8/2/1
f 10/2/1 2/2/1 9/2/1
f 11/2/1 2/2/1 10/2/1
f 12/2/2 13/2/2 14/2/2
f 14/2/2 13/2/2 15/2/2
f 15/2/2 13/2/2 16/2/2
f 16/2/2 13/2/2 17/2/2
f 21/2/3 19/2/3 18/2/3
f 21/1/3 20/1/3 19/1/3
f 22/1/3 20/1/3 21/1/3
f 23/2/3 22/2/3 21/2/3
f 23/1/3 20/1/3 22/1/3
f 24/1/3 20/1/3 23/1/3
f 25/2/3 21/2/3 18/2/3
f 25/2/3 23/2/3 21/2/3
f 25/2/3 24/2/3 23/2/3
f 26/2/3 24/2/3 25/2/3
f 29/2/3 28/2/3 27/2/3
f 30/2/3 28/2/3 29/2/3
f 31/2/4 32/2/4 33/2/4
f 33/2/4 32/2/4 34/2/4
f 37/2/5 36/2/5 35/2/5
f 38/2/5 36/2/5 37/2/5
f 39/1/6 40/1/6 42/1/6
f 40/2/6 41/2/6 43/2/6
f 42/1/6 40/1/6 43/1/6
f 42/2/6 43/2/6 44/2/6
f 43/2/6 41/2/6 45/2/6
f 44/2/6 43/2/6 45/2/6
f 46/2/6 47/2/6 48/2/6
f 48/2/6 47/2/6 49/2/6
