# MagicaVoxel @ Ephtracy

# group
o 

# material
mtllib model.mtl
usemtl palette

# normals
vn -1 0 0
vn 1 0 0
vn 0 0 1
vn 0 0 -1
vn 0 -1 0
vn 0 1 0

# texcoords
vt 0.00195313 0.5
vt 0.0292969 0.5
vt 0.373047 0.5
vt 0.771484 0.5

# verts
v -0.1 0 0.9
v -0.1 0 -0.9
v -0.1 0.1 0.7
v -0.1 0.1 0.4
v -0.1 0.1 -0.4
v -0.1 0.1 -0.7
v -0.1 0.3 0.6
v -0.1 0.3 0.5
v -0.1 0.3 -0.5
v -0.1 0.3 -0.6
v -0.1 0.4 0.6
v -0.1 0.4 0.5
v -0.1 0.4 -0.5
v -0.1 0.4 -0.6
v -0.1 0.5 0.7
v -0.1 0.5 0.4
v -0.1 0.5 -0.4
v -0.1 0.5 -0.7
v -0.1 0.6 0.9
v -0.1 0.6 -0.9
v 0 0.7 0.6
v 0 0.7 0.2
v 0 0.8 1
v 0 0.8 0.6
v 0 0.8 -0.2
v 0 0.8 -1
v 0 0.9 0.4
v 0 0.9 0.2
v 0 1 1
v 0 1 0.4
v 0 1 -0.2
v 0 1 -1
v 0 0 0.9
v 0 0 -0.9
v 0 0.1 0.7
v 0 0.1 0.4
v 0 0.1 -0.4
v 0 0.1 -0.7
v 0 0.3 0.6
v 0 0.3 0.5
v 0 0.3 -0.5
v 0 0.3 -0.6
v 0 0.4 0.6
v 0 0.4 0.5
v 0 0.4 -0.5
v 0 0.4 -0.6
v 0 0.5 0.7
v 0 0.5 0.4
v 0 0.5 -0.4
v 0 0.5 -0.7
v 0 0.6 0.9
v 0 0.6 -0.9
v 0.1 0.7 0.6
v 0.1 0.7 0.2
v 0.1 0.8 1
v 0.1 0.8 0.6
v 0.1 0.8 -0.2
v 0.1 0.8 -1
v 0.1 0.9 0.4
v 0.1 0.9 0.2
v 0.1 1 1
v 0.1 1 0.4
v 0.1 1 -0.2
v 0.1 1 -1
v 0 0.8 1
v 0 1 1
v 0.1 0.8 1
v 0.1 1 1
v -0.1 0 0.9
v -0.1 0.6 0.9
v 0 0 0.9
v 0 0.6 0.9
v 0 0.7 0.6
v 0 0.8 0.6
v 0.1 0.7 0.6
v 0.1 0.8 0.6
v 0 0.8 -0.2
v 0 1 -0.2
v 0.1 0.8 -0.2
v 0.1 1 -0.2
v 0 0.9 0.4
v 0 1 0.4
v 0.1 0.9 0.4
v 0.1 1 0.4
v 0 0.7 0.2
v 0 0.9 0.2
v 0.1 0.7 0.2
v 0.1 0.9 0.2
v -0.1 0 -0.9
v -0.1 0.6 -0.9
v 0 0 -0.9
v 0 0.6 -0.9
v 0 0.8 -1
v 0 1 -1
v 0.1 0.8 -1
v 0.1 1 -1
v -0.1 0 0.9
v 0 0 0.9
v -0.1 0 -0.9
v 0 0 -0.9
v 0 0.7 0.6
v 0.1 0.7 0.6
v 0 0.7 0.2
v 0.1 0.7 0.2
v 0 0.8 1
v 0.1 0.8 1
v 0 0.8 0.6
v 0.1 0.8 0.6
v 0 0.8 -0.2
v 0.1 0.8 -0.2
v 0 0.8 -1
v 0.1 0.8 -1
v -0.1 0.6 0.9
v 0 0.6 0.9
v -0.1 0.6 -0.9
v 0 0.6 -0.9
v 0 0.9 0.4
v 0.1 0.9 0.4
v 0 0.9 0.2
v 0.1 0.9 0.2
v 0 1 1
v 0.1 1 1
v 0 1 0.4
v 0.1 1 0.4
v 0 1 -0.2
v 0.1 1 -0.2
v 0 1 -1
v 0.1 1 -1

# faces
f 3/1/1 2/1/1 1/1/1
f 4/1/1 2/1/1 3/1/1
f 5/1/1 2/1/1 4/1/1
f 6/1/1 2/1/1 5/1/1
f 7/3/1 4/3/1 3/3/1
f 8/3/1 4/3/1 7/3/1
f 9/3/1 6/3/1 5/3/1
f 10/3/1 6/3/1 9/3/1
f 11/3/1 7/3/1 3/3/1
f 11/2/1 8/2/1 7/2/1
f 12/3/1 4/3/1 8/3/1
f 12/2/1 8/2/1 11/2/1
f 13/2/1 10/2/1 9/2/1
f 13/3/1 9/3/1 5/3/1
f 14/3/1 6/3/1 10/3/1
f 14/2/1 10/2/1 13/2/1
f 15/1/1 3/1/1 1/1/1
f 15/3/1 11/3/1 3/3/1
f 15/3/1 12/3/1 11/3/1
f 16/1/1 5/1/1 4/1/1
f 16/3/1 12/3/1 15/3/1
f 16/3/1 4/3/1 12/3/1
f 17/3/1 14/3/1 13/3/1
f 17/1/1 5/1/1 16/1/1
f 17/3/1 13/3/1 5/3/1
f 18/3/1 6/3/1 14/3/1
f 18/3/1 14/3/1 17/3/1
f 18/1/1 2/1/1 6/1/1
f 19/1/1 17/1/1 16/1/1
f 19/1/1 16/1/1 15/1/1
f 19/1/1 18/1/1 17/1/1
f 19/1/1 15/1/1 1/1/1
f 20/1/1 2/1/1 18/1/1
f 20/1/1 18/1/1 19/1/1
f 24/4/1 22/4/1 21/4/1
f 27/4/1 22/4/1 24/4/1
f 27/4/1 24/4/1 23/4/1
f 28/4/1 22/4/1 27/4/1
f 29/4/1 27/4/1 23/4/1
f 30/4/1 27/4/1 29/4/1
f 31/4/1 26/4/1 25/4/1
f 32/4/1 26/4/1 31/4/1
f 33/1/2 34/1/2 35/1/2
f 35/1/2 34/1/2 36/1/2
f 36/1/2 34/1/2 37/1/2
f 37/1/2 34/1/2 38/1/2
f 35/3/2 36/3/2 39/3/2
f 39/3/2 36/3/2 40/3/2
f 37/3/2 38/3/2 41/3/2
f 41/3/2 38/3/2 42/3/2
f 35/3/2 39/3/2 43/3/2
f 39/2/2 40/2/2 43/2/2
f 40/3/2 36/3/2 44/3/2
f 43/2/2 40/2/2 44/2/2
f 41/2/2 42/2/2 45/2/2
f 37/3/2 41/3/2 45/3/2
f 42/3/2 38/3/2 46/3/2
f 45/2/2 42/2/2 46/2/2
f 33/1/2 35/1/2 47/1/2
f 35/3/2 43/3/2 47/3/2
f 43/3/2 44/3/2 47/3/2
f 36/1/2 37/1/2 48/1/2
f 47/3/2 44/3/2 48/3/2
f 44/3/2 36/3/2 48/3/2
f 45/3/2 46/3/2 49/3/2
f 48/1/2 37/1/2 49/1/2
f 37/3/2 45/3/2 49/3/2
f 46/3/2 38/3/2 50/3/2
f 49/3/2 46/3/2 50/3/2
f 38/1/2 34/1/2 50/1/2
f 48/1/2 49/1/2 51/1/2
f 47/1/2 48/1/2 51/1/2
f 49/1/2 50/1/2 51/1/2
f 33/1/2 47/1/2 51/1/2
f 50/1/2 34/1/2 52/1/2
f 51/1/2 50/1/2 52/1/2
f 53/4/2 54/4/2 56/4/2
f 56/4/2 54/4/2 59/4/2
f 55/4/2 56/4/2 59/4/2
f 59/4/2 54/4/2 60/4/2
f 55/4/2 59/4/2 61/4/2
f 61/4/2 59/4/2 62/4/2
f 57/4/2 58/4/2 63/4/2
f 63/4/2 58/4/2 64/4/2
f 67/4/3 66/4/3 65/4/3
f 68/4/3 66/4/3 67/4/3
f 71/1/3 70/1/3 69/1/3
f 72/1/3 70/1/3 71/1/3
f 75/4/3 74/4/3 73/4/3
f 76/4/3 74/4/3 75/4/3
f 79/4/3 78/4/3 77/4/3
f 80/4/3 78/4/3 79/4/3
f 81/4/4 82/4/4 83/4/4
f 83/4/4 82/4/4 84/4/4
f 85/4/4 86/4/4 87/4/4
f 87/4/4 86/4/4 88/4/4
f 89/1/4 90/1/4 91/1/4
f 91/1/4 90/1/4 92/1/4
f 93/4/4 94/4/4 95/4/4
f 95/4/4 94/4/4 96/4/4
f 99/1/5 98/1/5 97/1/5
f 100/1/5 98/1/5 99/1/5
f 103/4/5 102/4/5 101/4/5
f 104/4/5 102/4/5 103/4/5
f 107/4/5 106/4/5 105/4/5
f 108/4/5 106/4/5 107/4/5
f 111/4/5 110/4/5 109/4/5
f 112/4/5 110/4/5 111/4/5
f 113/1/6 114/1/6 115/1/6
f 115/1/6 114/1/6 116/1/6
f 117/4/6 118/4/6 119/4/6
f 119/4/6 118/4/6 120/4/6
f 121/4/6 122/4/6 123/4/6
f 123/4/6 122/4/6 124/4/6
f 125/4/6 126/4/6 127/4/6
f 127/4/6 126/4/6 128/4/6
