# MagicaVoxel @ Ephtracy

# group
o 

# material
mtllib model-1.mtl
usemtl palette

# normals
vn 0 0 1
vn 0 0 -1
vn 1 0 0
vn -1 0 0
vn 0 -1 0
vn 0 1 0

# texcoords
vt 0.0683594 0.5
vt 0.349609 0.5
vt 0.353516 0.5
vt 0.513672 0.5
vt 0.517578 0.5
vt 0.521484 0.5
vt 0.572266 0.5

# verts
v 0.5 0.6 1.1
v -0.5 0.6 1.1
v 0.5 0.8 1.1
v -0.5 0.8 1.1
v 0.6 2 1.1
v -0.5 2 1.1
v 0.6 2.1 1.1
v -0.5 2.1 1.1
v 0.6 0.6 1
v 0.5 0.6 1
v -0.5 0.6 1
v -0.6 0.6 1
v 0.6 0.8 1
v 0.5 0.8 1
v -0.5 0.8 1
v -0.6 0.8 1
v 0.5 2 1
v -0.5 2 1
v 0.6 1.6 0.7
v 0.5 1.6 0.7
v -0.5 1.6 0.7
v -0.6 1.6 0.7
v 0.6 2 0.7
v 0.5 2 0.7
v -0.5 2 0.7
v -0.5 2.1 0.7
v -0.6 2.1 0.7
v 0.6 1.2 0.3
v 0.5 1.2 0.3
v -0.5 1.2 0.3
v -0.6 1.2 0.3
v 0.6 1.6 0.3
v 0.5 1.6 0.3
v -0.5 1.6 0.3
v -0.6 1.6 0.3
v 0.7 0.5 0.2
v 0.6 0.5 0.2
v 0.7 0.6 0.2
v 0.6 0.6 0.2
v 0.6 0.8 0.2
v 0.7 0.9 0.2
v 0.6 0.9 0.2
v 0.7 0.6 -0.1
v 0.6 0.6 -0.1
v 0.7 0.7 -0.1
v 0.6 0.7 -0.1
v 0.7 0.8 -0.1
v 0.6 0.8 -0.1
v 0.6 2 -0.3
v -0.4 2 -0.3
v 0.6 2.1 -0.3
v -0.4 2.1 -0.3
v 0.6 2 0.3
v -0.4 2 0.3
v 0.6 2.1 0.3
v -0.4 2.1 0.3
v 0.7 0.6 0.1
v 0.6 0.6 0.1
v 0.7 0.8 0.1
v 0.6 0.8 0.1
v 0.7 0.5 -0.2
v 0.6 0.5 -0.2
v 0.6 0.6 -0.2
v 0.7 0.7 -0.2
v 0.6 0.7 -0.2
v 0.6 0.8 -0.2
v 0.7 0.9 -0.2
v 0.6 0.9 -0.2
v 0.6 1.2 -0.3
v 0.5 1.2 -0.3
v -0.5 1.2 -0.3
v -0.6 1.2 -0.3
v 0.6 1.6 -0.3
v 0.5 1.6 -0.3
v -0.5 1.6 -0.3
v -0.6 1.6 -0.3
v 0.6 1.6 -0.7
v 0.5 1.6 -0.7
v -0.5 1.6 -0.7
v -0.6 1.6 -0.7
v 0.6 2 -0.7
v 0.5 2 -0.7
v -0.5 2 -0.7
v -0.5 2.1 -0.7
v -0.6 2.1 -0.7
v 0.6 0.6 -1
v 0.5 0.6 -1
v -0.5 0.6 -1
v -0.6 0.6 -1
v 0.6 0.8 -1
v 0.5 0.8 -1
v -0.5 0.8 -1
v -0.6 0.8 -1
v 0.5 2 -1
v -0.5 2 -1
v 0.5 0.6 -1.1
v -0.5 0.6 -1.1
v 0.5 0.8 -1.1
v -0.5 0.8 -1.1
v 0.6 2 -1.1
v -0.5 2 -1.1
v 0.6 2.1 -1.1
v -0.5 2.1 -1.1
v 0.7 0.5 0.2
v 0.7 0.6 0.2
v 0.7 0.9 0.2
v 0.7 0.6 0.1
v 0.7 0.8 0.1
v 0.7 0.9 0.1
v 0.7 0.5 0
v 0.7 0.6 0
v 0.7 0.6 -0.1
v 0.7 0.7 -0.1
v 0.7 0.8 -0.1
v 0.7 0.5 -0.2
v 0.7 0.7 -0.2
v 0.7 0.9 -0.2
v 0.6 2 1.1
v 0.6 2.1 1.1
v 0.6 0.6 1
v 0.6 0.8 1
v 0.6 1.6 0.7
v 0.6 2 0.7
v 0.6 1.2 0.3
v 0.6 1.6 0.3
v 0.6 2 0.3
v 0.6 2.1 0.3
v 0.6 0.6 0.2
v 0.6 0.8 0.2
v 0.6 0.6 0.1
v 0.6 0.8 0.1
v 0.6 0.6 0
v 0.6 0.6 -0.1
v 0.6 0.7 -0.1
v 0.6 0.8 -0.1
v 0.6 0.6 -0.2
v 0.6 0.7 -0.2
v 0.6 0.8 -0.2
v 0.6 1.2 -0.3
v 0.6 1.6 -0.3
v 0.6 2 -0.3
v 0.6 2.1 -0.3
v 0.6 1.6 -0.7
v 0.6 2 -0.7
v 0.6 0.6 -1
v 0.6 0.8 -1
v 0.6 2 -1.1
v 0.6 2.1 -1.1
v 0.5 0.6 1.1
v 0.5 0.8 1.1
v 0.5 0.6 1
v 0.5 0.8 1
v 0.5 2 1
v 0.5 1.6 0.7
v 0.5 2 0.7
v 0.5 1.2 0.3
v 0.5 1.6 0.3
v 0.5 0.8 0.1
v 0.5 1.2 0.1
v 0.5 0.8 -0.1
v 0.5 1.2 -0.1
v 0.5 1.2 -0.3
v 0.5 1.6 -0.3
v 0.5 1.6 -0.7
v 0.5 2 -0.7
v 0.5 0.6 -1
v 0.5 0.8 -1
v 0.5 2 -1
v 0.5 0.6 -1.1
v 0.5 0.8 -1.1
v -0.4 2 0.3
v -0.4 2.1 0.3
v -0.4 2 -0.3
v -0.4 2.1 -0.3
v 0.6 0.5 0.2
v 0.6 0.6 0.2
v 0.6 0.8 0.2
v 0.6 0.9 0.2
v 0.6 0.8 0.1
v 0.6 0.9 0.1
v 0.6 0.5 0
v 0.6 0.6 0
v 0.6 0.5 -0.2
v 0.6 0.6 -0.2
v 0.6 0.8 -0.2
v 0.6 0.9 -0.2
v -0.5 0.6 1.1
v -0.5 0.8 1.1
v -0.5 2 1.1
v -0.5 2.1 1.1
v -0.5 0.6 1
v -0.5 0.8 1
v -0.5 2 1
v -0.5 1.6 0.7
v -0.5 2 0.7
v -0.5 2.1 0.7
v -0.5 1.2 0.3
v -0.5 1.6 0.3
v -0.5 1.2 -0.3
v -0.5 1.6 -0.3
v -0.5 1.6 -0.7
v -0.5 2 -0.7
v -0.5 2.1 -0.7
v -0.5 0.6 -1
v -0.5 0.8 -1
v -0.5 2 -1
v -0.5 0.6 -1.1
v -0.5 0.8 -1.1
v -0.5 2 -1.1
v -0.5 2.1 -1.1
v -0.6 0.6 1
v -0.6 0.8 1
v -0.6 1.6 0.7
v -0.6 2.1 0.7
v -0.6 1.2 0.3
v -0.6 1.6 0.3
v -0.6 1.2 -0.3
v -0.6 1.6 -0.3
v -0.6 1.6 -0.7
v -0.6 2.1 -0.7
v -0.6 0.6 -1
v -0.6 0.8 -1
v 0.7 0.5 0.2
v 0.7 0.5 0
v 0.7 0.5 -0.2
v 0.6 0.5 0.2
v 0.6 0.5 0
v 0.6 0.5 -0.2
v 0.6 0.6 1
v 0.6 0.6 0.2
v 0.6 0.6 0
v 0.6 0.6 -0.2
v 0.6 0.6 -1
v 0.5 0.6 1.1
v 0.5 0.6 1
v 0.5 0.6 0.1
v 0.5 0.6 -0.1
v 0.5 0.6 -1
v 0.5 0.6 -1.1
v 0.4 0.6 0.1
v 0.4 0.6 -0.1
v -0.5 0.6 1.1
v -0.5 0.6 1
v -0.5 0.6 -1
v -0.5 0.6 -1.1
v -0.6 0.6 1
v -0.6 0.6 -1
v 0.7 0.8 0.1
v 0.7 0.8 -0.1
v 0.6 0.8 0.1
v 0.6 0.8 -0.1
v 0.6 1.2 0.3
v 0.6 1.2 -0.3
v 0.5 1.2 0.3
v 0.5 1.2 0.1
v 0.5 1.2 -0.1
v 0.5 1.2 -0.3
v -0.5 1.2 0.3
v -0.5 1.2 -0.3
v -0.6 1.2 0.3
v -0.6 1.2 -0.3
v 0.6 1.6 0.7
v 0.6 1.6 0.3
v 0.6 1.6 -0.3
v 0.6 1.6 -0.7
v 0.5 1.6 0.7
v 0.5 1.6 0.3
v 0.5 1.6 -0.3
v 0.5 1.6 -0.7
v -0.5 1.6 0.7
v -0.5 1.6 0.3
v -0.5 1.6 -0.3
v -0.5 1.6 -0.7
v -0.6 1.6 0.7
v -0.6 1.6 0.3
v -0.6 1.6 -0.3
v -0.6 1.6 -0.7
v 0.6 2 1.1
v 0.6 2 0.7
v 0.6 2 -0.7
v 0.6 2 -1.1
v 0.5 2 1
v 0.5 2 0.7
v 0.5 2 -0.7
v 0.5 2 -1
v -0.5 2 1.1
v -0.5 2 1
v -0.5 2 -1
v -0.5 2 -1.1
v 0.7 0.6 0.1
v 0.7 0.6 0
v 0.7 0.6 -0.1
v 0.6 0.6 0.1
v 0.6 0.6 0
v 0.6 0.6 -0.1
v 0.6 0.8 1
v 0.6 0.8 0.2
v 0.6 0.8 0.1
v 0.6 0.8 -0.2
v 0.6 0.8 -1
v 0.5 0.8 1.1
v 0.5 0.8 1
v 0.5 0.8 0.1
v 0.5 0.8 -0.1
v 0.5 0.8 -1
v 0.5 0.8 -1.1
v -0.5 0.8 1.1
v -0.5 0.8 1
v -0.5 0.8 -1
v -0.5 0.8 -1.1
v -0.6 0.8 1
v -0.6 0.8 -1
v 0.7 0.9 0.2
v 0.7 0.9 0.1
v 0.7 0.9 -0.2
v 0.6 0.9 0.2
v 0.6 0.9 0.1
v 0.6 0.9 -0.2
v 0.6 2 0.3
v 0.6 2 -0.3
v -0.4 2 0.3
v -0.4 2 -0.3
v 0.6 2.1 1.1
v 0.6 2.1 0.3
v 0.6 2.1 -0.3
v 0.6 2.1 -1.1
v -0.4 2.1 0.3
v -0.4 2.1 -0.3
v -0.5 2.1 1.1
v -0.5 2.1 0.7
v -0.5 2.1 -0.7
v -0.5 2.1 -1.1
v -0.6 2.1 0.7
v -0.6 2.1 -0.7

# faces
f 3/1/1 2/1/1 1/1/1
f 4/1/1 2/1/1 3/1/1
f 7/7/1 6/7/1 5/7/1
f 8/7/1 6/7/1 7/7/1
f 13/1/1 10/1/1 9/1/1
f 14/1/1 10/1/1 13/1/1
f 15/1/1 12/1/1 11/1/1
f 16/1/1 12/1/1 15/1/1
f 17/3/1 15/3/1 14/3/1
f 18/3/1 15/3/1 17/3/1
f 23/7/1 20/7/1 19/7/1
f 24/7/1 20/7/1 23/7/1
f 25/7/1 22/7/1 21/7/1
f 26/7/1 22/7/1 25/7/1
f 27/7/1 22/7/1 26/7/1
f 32/7/1 29/7/1 28/7/1
f 33/7/1 29/7/1 32/7/1
f 34/7/1 31/7/1 30/7/1
f 35/7/1 31/7/1 34/7/1
f 38/4/1 37/4/1 36/4/1
f 39/4/1 37/4/1 38/4/1
f 40/5/1 39/5/1 38/5/1
f 41/5/1 40/5/1 38/5/1
f 42/5/1 40/5/1 41/5/1
f 45/5/1 44/5/1 43/5/1
f 46/5/1 44/5/1 45/5/1
f 47/6/1 46/6/1 45/6/1
f 48/6/1 46/6/1 47/6/1
f 51/7/1 50/7/1 49/7/1
f 52/7/1 50/7/1 51/7/1
f 53/7/2 54/7/2 55/7/2
f 55/7/2 54/7/2 56/7/2
f 57/5/2 58/5/2 59/5/2
f 59/5/2 58/5/2 60/5/2
f 61/5/2 62/5/2 63/5/2
f 61/5/2 63/5/2 64/5/2
f 64/5/2 63/5/2 65/5/2
f 64/6/2 65/6/2 66/6/2
f 64/6/2 66/6/2 67/6/2
f 67/6/2 66/6/2 68/6/2
f 69/7/2 70/7/2 73/7/2
f 73/7/2 70/7/2 74/7/2
f 71/7/2 72/7/2 75/7/2
f 75/7/2 72/7/2 76/7/2
f 77/7/2 78/7/2 81/7/2
f 81/7/2 78/7/2 82/7/2
f 79/7/2 80/7/2 83/7/2
f 83/7/2 80/7/2 84/7/2
f 84/7/2 80/7/2 85/7/2
f 86/1/2 87/1/2 90/1/2
f 90/1/2 87/1/2 91/1/2
f 88/1/2 89/1/2 92/1/2
f 92/1/2 89/1/2 93/1/2
f 91/3/2 92/3/2 94/3/2
f 94/3/2 92/3/2 95/3/2
f 96/1/2 97/1/2 98/1/2
f 98/1/2 97/1/2 99/1/2
f 100/7/2 101/7/2 102/7/2
f 102/7/2 101/7/2 103/7/2
f 107/4/3 105/4/3 104/4/3
f 107/5/3 106/5/3 105/5/3
f 108/5/3 106/5/3 107/5/3
f 109/5/3 106/5/3 108/5/3
f 110/4/3 107/4/3 104/4/3
f 111/4/3 107/4/3 110/4/3
f 112/5/3 111/5/3 110/5/3
f 114/6/3 109/6/3 108/6/3
f 115/5/3 113/5/3 112/5/3
f 115/5/3 112/5/3 110/5/3
f 116/6/3 114/6/3 113/6/3
f 116/5/3 113/5/3 115/5/3
f 117/6/3 109/6/3 114/6/3
f 117/6/3 114/6/3 116/6/3
f 123/7/3 119/7/3 118/7/3
f 125/7/3 123/7/3 122/7/3
f 126/7/3 119/7/3 123/7/3
f 126/7/3 123/7/3 125/7/3
f 127/7/3 119/7/3 126/7/3
f 128/1/3 121/1/3 120/1/3
f 129/1/3 121/1/3 128/1/3
f 132/1/3 131/1/3 130/1/3
f 133/1/3 131/1/3 132/1/3
f 134/1/3 131/1/3 133/1/3
f 135/1/3 131/1/3 134/1/3
f 139/7/3 125/7/3 124/7/3
f 139/7/3 126/7/3 125/7/3
f 140/7/3 126/7/3 139/7/3
f 141/7/3 126/7/3 140/7/3
f 143/7/3 142/7/3 141/7/3
f 143/7/3 141/7/3 140/7/3
f 144/7/3 142/7/3 143/7/3
f 145/1/3 138/1/3 137/1/3
f 145/1/3 137/1/3 136/1/3
f 146/1/3 138/1/3 145/1/3
f 147/7/3 142/7/3 144/7/3
f 148/7/3 142/7/3 147/7/3
f 151/1/3 150/1/3 149/1/3
f 152/1/3 150/1/3 151/1/3
f 154/3/3 153/3/3 152/3/3
f 155/3/3 153/3/3 154/3/3
f 156/3/3 154/3/3 152/3/3
f 157/3/3 154/3/3 156/3/3
f 158/3/3 156/3/3 152/3/3
f 159/3/3 156/3/3 158/3/3
f 160/2/3 159/2/3 158/2/3
f 161/2/3 159/2/3 160/2/3
f 162/3/3 161/3/3 160/3/3
f 164/3/3 163/3/3 162/3/3
f 167/3/3 164/3/3 162/3/3
f 167/3/3 165/3/3 164/3/3
f 167/3/3 162/3/3 160/3/3
f 168/3/3 165/3/3 167/3/3
f 169/1/3 167/1/3 166/1/3
f 170/1/3 167/1/3 169/1/3
f 173/7/3 172/7/3 171/7/3
f 174/7/3 172/7/3 173/7/3
f 177/5/4 178/5/4 179/5/4
f 179/5/4 178/5/4 180/5/4
f 175/4/4 176/4/4 181/4/4
f 181/4/4 176/4/4 182/4/4
f 181/5/4 182/5/4 183/5/4
f 183/5/4 182/5/4 184/5/4
f 179/6/4 180/6/4 185/6/4
f 185/6/4 180/6/4 186/6/4
f 187/1/4 188/1/4 191/1/4
f 191/1/4 188/1/4 192/1/4
f 189/7/4 190/7/4 193/7/4
f 192/3/4 193/3/4 194/3/4
f 193/7/4 190/7/4 195/7/4
f 194/3/4 193/3/4 195/3/4
f 195/7/4 190/7/4 196/7/4
f 192/3/4 194/3/4 197/3/4
f 197/3/4 194/3/4 198/3/4
f 192/3/4 197/3/4 199/3/4
f 199/3/4 200/3/4 201/3/4
f 199/3/4 201/3/4 205/3/4
f 192/3/4 199/3/4 205/3/4
f 201/3/4 202/3/4 205/3/4
f 202/7/4 203/7/4 206/7/4
f 205/3/4 202/3/4 206/3/4
f 204/1/4 205/1/4 207/1/4
f 207/1/4 205/1/4 208/1/4
f 206/7/4 203/7/4 209/7/4
f 209/7/4 203/7/4 210/7/4
f 213/7/4 214/7/4 216/7/4
f 215/7/4 216/7/4 217/7/4
f 216/7/4 214/7/4 218/7/4
f 217/7/4 216/7/4 218/7/4
f 218/7/4 214/7/4 219/7/4
f 219/7/4 214/7/4 220/7/4
f 211/1/4 212/1/4 221/1/4
f 221/1/4 212/1/4 222/1/4
f 226/4/5 224/4/5 223/4/5
f 227/5/5 225/5/5 224/5/5
f 227/4/5 224/4/5 226/4/5
f 228/5/5 225/5/5 227/5/5
f 235/1/5 230/1/5 229/1/5
f 235/1/5 233/1/5 232/1/5
f 235/1/5 232/1/5 231/1/5
f 235/1/5 231/1/5 230/1/5
f 236/1/5 233/1/5 235/1/5
f 237/1/5 233/1/5 236/1/5
f 238/1/5 233/1/5 237/1/5
f 240/3/5 236/3/5 235/3/5
f 240/2/5 237/2/5 236/2/5
f 241/3/5 238/3/5 237/3/5
f 241/2/5 237/2/5 240/2/5
f 242/1/5 235/1/5 234/1/5
f 243/3/5 240/3/5 235/3/5
f 243/1/5 235/1/5 242/1/5
f 243/3/5 241/3/5 240/3/5
f 244/3/5 238/3/5 241/3/5
f 244/3/5 241/3/5 243/3/5
f 244/1/5 239/1/5 238/1/5
f 245/1/5 239/1/5 244/1/5
f 246/1/5 244/1/5 243/1/5
f 247/1/5 244/1/5 246/1/5
f 250/6/5 249/6/5 248/6/5
f 251/6/5 249/6/5 250/6/5
f 254/7/5 253/7/5 252/7/5
f 255/7/5 253/7/5 254/7/5
f 256/7/5 253/7/5 255/7/5
f 257/7/5 253/7/5 256/7/5
f 260/7/5 259/7/5 258/7/5
f 261/7/5 259/7/5 260/7/5
f 266/7/5 263/7/5 262/7/5
f 267/7/5 263/7/5 266/7/5
f 268/7/5 265/7/5 264/7/5
f 269/7/5 265/7/5 268/7/5
f 274/7/5 271/7/5 270/7/5
f 275/7/5 271/7/5 274/7/5
f 276/7/5 273/7/5 272/7/5
f 277/7/5 273/7/5 276/7/5
f 282/7/5 279/7/5 278/7/5
f 283/7/5 279/7/5 282/7/5
f 284/7/5 281/7/5 280/7/5
f 285/7/5 281/7/5 284/7/5
f 286/7/5 282/7/5 278/7/5
f 287/7/5 282/7/5 286/7/5
f 288/7/5 281/7/5 285/7/5
f 289/7/5 281/7/5 288/7/5
f 290/4/6 291/4/6 293/4/6
f 291/5/6 292/5/6 294/5/6
f 293/4/6 291/4/6 294/4/6
f 294/5/6 292/5/6 295/5/6
f 296/1/6 297/1/6 302/1/6
f 299/1/6 300/1/6 302/1/6
f 298/1/6 299/1/6 302/1/6
f 297/1/6 298/1/6 302/1/6
f 302/1/6 300/1/6 303/1/6
f 303/1/6 300/1/6 304/1/6
f 304/1/6 300/1/6 305/1/6
f 301/1/6 302/1/6 307/1/6
f 307/1/6 302/1/6 308/1/6
f 305/1/6 306/1/6 309/1/6
f 309/1/6 306/1/6 310/1/6
f 308/1/6 309/1/6 311/1/6
f 311/1/6 309/1/6 312/1/6
f 313/5/6 314/5/6 316/5/6
f 314/6/6 315/6/6 317/6/6
f 316/5/6 314/5/6 317/5/6
f 317/6/6 315/6/6 318/6/6
f 319/7/6 320/7/6 321/7/6
f 321/7/6 320/7/6 322/7/6
f 323/7/6 324/7/6 327/7/6
f 325/7/6 326/7/6 328/7/6
f 323/7/6 327/7/6 329/7/6
f 327/7/6 328/7/6 329/7/6
f 329/7/6 328/7/6 330/7/6
f 328/7/6 326/7/6 331/7/6
f 330/7/6 328/7/6 331/7/6
f 331/7/6 326/7/6 332/7/6
f 330/7/6 331/7/6 333/7/6
f 333/7/6 331/7/6 334/7/6
