# MagicaVoxel @ Ephtracy

# group
o 

# material
mtllib model-2.mtl
usemtl palette

# normals
vn 0 0 1
vn 0 0 -1
vn 1 0 0
vn -1 0 0
vn 0 -1 0
vn 0 1 0

# texcoords
vt 0.349609 0.5
vt 0.353516 0.5

# verts
v 0.5 0 1
v -0.5 0 1
v 0.5 0.7 1
v -0.5 0.7 1
v 0.5 0 -0.1
v 0.4 0 -0.1
v 0.5 0.1 -0.1
v 0.4 0.1 -0.1
v 0.4 0 -0.9
v -0.4 0 -0.9
v 0.4 0.1 -0.9
v -0.4 0.1 -0.9
v 0.4 0 0.9
v -0.4 0 0.9
v 0.4 0.1 0.9
v -0.4 0.1 0.9
v 0.5 0 0.1
v 0.4 0 0.1
v 0.5 0.1 0.1
v 0.4 0.1 0.1
v 0.5 0 -1
v -0.5 0 -1
v 0.5 0.7 -1
v -0.5 0.7 -1
v 0.5 0 1
v 0.5 0.7 1
v 0.5 0 0.1
v 0.5 0.1 0.1
v 0.5 0.7 0.1
v 0.5 0 -0.1
v 0.5 0.1 -0.1
v 0.5 0.7 -0.1
v 0.5 0 -1
v 0.5 0.7 -1
v -0.4 0 0.9
v -0.4 0.1 0.9
v -0.4 0 -0.9
v -0.4 0.1 -0.9
v 0.4 0 0.9
v 0.4 0.1 0.9
v 0.4 0 0.1
v 0.4 0.1 0.1
v 0.4 0 -0.1
v 0.4 0.1 -0.1
v 0.4 0 -0.9
v 0.4 0.1 -0.9
v -0.5 0 1
v -0.5 0.7 1
v -0.5 0 -1
v -0.5 0.7 -1
v 0.5 0 1
v 0.5 0 0.1
v 0.5 0 -0.1
v 0.5 0 -1
v 0.4 0 0.9
v 0.4 0 0.1
v 0.4 0 -0.1
v 0.4 0 -0.9
v -0.4 0 0.9
v -0.4 0 -0.9
v -0.5 0 1
v -0.5 0 -1
v 0.5 0.1 0.1
v 0.5 0.1 -0.1
v 0.4 0.1 0.9
v 0.4 0.1 0.1
v 0.4 0.1 -0.1
v 0.4 0.1 -0.9
v -0.4 0.1 0.9
v -0.4 0.1 -0.9
v 0.5 0.7 1
v 0.5 0.7 0.1
v 0.5 0.7 -0.1
v 0.5 0.7 -1
v 0.4 0.7 0.1
v 0.4 0.7 -0.1
v -0.5 0.7 1
v -0.5 0.7 -1

# faces
f 3/2/1 2/2/1 1/2/1
f 4/2/1 2/2/1 3/2/1
f 7/2/1 6/2/1 5/2/1
f 8/2/1 6/2/1 7/2/1
f 11/2/1 10/2/1 9/2/1
f 12/2/1 10/2/1 11/2/1
f 13/2/2 14/2/2 15/2/2
f 15/2/2 14/2/2 16/2/2
f 17/2/2 18/2/2 19/2/2
f 19/2/2 18/2/2 20/2/2
f 21/2/2 22/2/2 23/2/2
f 23/2/2 22/2/2 24/2/2
f 27/2/3 26/2/3 25/2/3
f 28/2/3 26/2/3 27/2/3
f 29/2/3 26/2/3 28/2/3
f 31/1/3 29/1/3 28/1/3
f 32/1/3 29/1/3 31/1/3
f 33/2/3 31/2/3 30/2/3
f 33/2/3 32/2/3 31/2/3
f 34/2/3 32/2/3 33/2/3
f 37/2/3 36/2/3 35/2/3
f 38/2/3 36/2/3 37/2/3
f 39/2/4 40/2/4 41/2/4
f 41/2/4 40/2/4 42/2/4
f 43/2/4 44/2/4 45/2/4
f 45/2/4 44/2/4 46/2/4
f 47/2/4 48/2/4 49/2/4
f 49/2/4 48/2/4 50/2/4
f 55/2/5 52/2/5 51/2/5
f 56/2/5 52/2/5 55/2/5
f 57/2/5 54/2/5 53/2/5
f 58/2/5 54/2/5 57/2/5
f 59/2/5 55/2/5 51/2/5
f 60/2/5 54/2/5 58/2/5
f 61/2/5 59/2/5 51/2/5
f 61/2/5 60/2/5 59/2/5
f 62/2/5 54/2/5 60/2/5
f 62/2/5 60/2/5 61/2/5
f 66/1/5 64/1/5 63/1/5
f 67/1/5 64/1/5 66/1/5
f 69/1/5 66/1/5 65/1/5
f 69/1/5 68/1/5 67/1/5
f 69/1/5 67/1/5 66/1/5
f 70/1/5 68/1/5 69/1/5
f 71/2/6 72/2/6 75/2/6
f 72/1/6 73/1/6 75/1/6
f 73/2/6 74/2/6 76/2/6
f 75/1/6 73/1/6 76/1/6
f 71/2/6 75/2/6 77/2/6
f 75/2/6 76/2/6 77/2/6
f 76/2/6 74/2/6 78/2/6
f 77/2/6 76/2/6 78/2/6
