# MagicaVoxel @ Ephtracy

# group
o 

# material
mtllib model-0.mtl
usemtl palette

# normals
vn 0 0 1
vn 0 0 -1
vn 1 0 0
vn -1 0 0
vn 0 -1 0
vn 0 1 0

# texcoords
vt 0.0253906 0.5
vt 0.572266 0.5

# verts
v 0.3 1.4 -1.6
v -0.3 1.4 -1.6
v 0.3 2 -1.6
v -0.3 2 -1.6
v 0.3 1.4 -2.4
v -0.3 1.4 -2.4
v 0.3 2 -2.4
v -0.3 2 -2.4
v 0.3 1.4 -1.6
v 0.3 2 -1.6
v 0.3 1.4 -1.7
v 0.3 2 -1.7
v 0.3 1.4 -1.8
v 0.3 2 -1.8
v 0.3 1.4 -1.9
v 0.3 2 -1.9
v 0.3 1.4 -2
v 0.3 2 -2
v 0.3 1.4 -2.1
v 0.3 2 -2.1
v 0.3 1.4 -2.2
v 0.3 2 -2.2
v 0.3 1.4 -2.3
v 0.3 2 -2.3
v 0.3 1.4 -2.4
v 0.3 2 -2.4
v -0.3 1.4 -1.6
v -0.3 2 -1.6
v -0.3 1.4 -1.7
v -0.3 2 -1.7
v -0.3 1.4 -1.8
v -0.3 2 -1.8
v -0.3 1.4 -1.9
v -0.3 2 -1.9
v -0.3 1.4 -2
v -0.3 2 -2
v -0.3 1.4 -2.1
v -0.3 2 -2.1
v -0.3 1.4 -2.2
v -0.3 2 -2.2
v -0.3 1.4 -2.3
v -0.3 2 -2.3
v -0.3 1.4 -2.4
v -0.3 2 -2.4
v 0.3 1.4 -1.6
v 0.3 1.4 -1.7
v 0.3 1.4 -1.8
v 0.3 1.4 -1.9
v 0.3 1.4 -2
v 0.3 1.4 -2.1
v 0.3 1.4 -2.2
v 0.3 1.4 -2.3
v 0.3 1.4 -2.4
v -0.3 1.4 -1.6
v -0.3 1.4 -1.7
v -0.3 1.4 -1.8
v -0.3 1.4 -1.9
v -0.3 1.4 -2
v -0.3 1.4 -2.1
v -0.3 1.4 -2.2
v -0.3 1.4 -2.3
v -0.3 1.4 -2.4
v 0.3 2 -1.6
v 0.3 2 -1.7
v 0.3 2 -1.8
v 0.3 2 -1.9
v 0.3 2 -2
v 0.3 2 -2.1
v 0.3 2 -2.2
v 0.3 2 -2.3
v 0.3 2 -2.4
v -0.3 2 -1.6
v -0.3 2 -1.7
v -0.3 2 -1.8
v -0.3 2 -1.9
v -0.3 2 -2
v -0.3 2 -2.1
v -0.3 2 -2.2
v -0.3 2 -2.3
v -0.3 2 -2.4

# faces
f 3/1/1 2/1/1 1/1/1
f 4/1/1 2/1/1 3/1/1
f 5/2/2 6/2/2 7/2/2
f 7/2/2 6/2/2 8/2/2
f 11/1/3 10/1/3 9/1/3
f 12/1/3 10/1/3 11/1/3
f 13/2/3 12/2/3 11/2/3
f 14/2/3 12/2/3 13/2/3
f 15/1/3 14/1/3 13/1/3
f 16/1/3 14/1/3 15/1/3
f 17/2/3 16/2/3 15/2/3
f 18/2/3 16/2/3 17/2/3
f 19/1/3 18/1/3 17/1/3
f 20/1/3 18/1/3 19/1/3
f 21/2/3 20/2/3 19/2/3
f 22/2/3 20/2/3 21/2/3
f 23/1/3 22/1/3 21/1/3
f 24/1/3 22/1/3 23/1/3
f 25/2/3 24/2/3 23/2/3
f 26/2/3 24/2/3 25/2/3
f 27/1/4 28/1/4 29/1/4
f 29/1/4 28/1/4 30/1/4
f 29/2/4 30/2/4 31/2/4
f 31/2/4 30/2/4 32/2/4
f 31/1/4 32/1/4 33/1/4
f 33/1/4 32/1/4 34/1/4
f 33/2/4 34/2/4 35/2/4
f 35/2/4 34/2/4 36/2/4
f 35/1/4 36/1/4 37/1/4
f 37/1/4 36/1/4 38/1/4
f 37/2/4 38/2/4 39/2/4
f 39/2/4 38/2/4 40/2/4
f 39/1/4 40/1/4 41/1/4
f 41/1/4 40/1/4 42/1/4
f 41/2/4 42/2/4 43/2/4
f 43/2/4 42/2/4 44/2/4
f 54/1/5 46/1/5 45/1/5
f 55/2/5 47/2/5 46/2/5
f 55/1/5 46/1/5 54/1/5
f 56/1/5 48/1/5 47/1/5
f 56/2/5 47/2/5 55/2/5
f 57/2/5 49/2/5 48/2/5
f 57/1/5 48/1/5 56/1/5
f 58/1/5 50/1/5 49/1/5
f 58/2/5 49/2/5 57/2/5
f 59/2/5 51/2/5 50/2/5
f 59/1/5 50/1/5 58/1/5
f 60/1/5 52/1/5 51/1/5
f 60/2/5 51/2/5 59/2/5
f 61/2/5 53/2/5 52/2/5
f 61/1/5 52/1/5 60/1/5
f 62/2/5 53/2/5 61/2/5
f 63/1/6 64/1/6 72/1/6
f 64/2/6 65/2/6 73/2/6
f 72/1/6 64/1/6 73/1/6
f 65/1/6 66/1/6 74/1/6
f 73/2/6 65/2/6 74/2/6
f 66/2/6 67/2/6 75/2/6
f 74/1/6 66/1/6 75/1/6
f 67/1/6 68/1/6 76/1/6
f 75/2/6 67/2/6 76/2/6
f 68/2/6 69/2/6 77/2/6
f 76/1/6 68/1/6 77/1/6
f 69/1/6 70/1/6 78/1/6
f 77/2/6 69/2/6 78/2/6
f 70/2/6 71/2/6 79/2/6
f 78/1/6 70/1/6 79/1/6
f 79/2/6 71/2/6 80/2/6
