# MagicaVoxel @ Ephtracy

# group
o 

# material
mtllib model.mtl
usemtl palette

# normals
vn 0 0 1
vn 0 0 -1
vn 1 0 0
vn -1 0 0
vn 0 -1 0
vn 0 1 0

# texcoords
vt 0.365234 0.5
vt 0.583984 0.5
vt 0.759766 0.5

# verts
v 0.2 0.4 0.5
v 0.1 0.4 0.5
v 0.2 0.5 0.5
v 0.1 0.5 0.5
v 0.1 0.7 0.5
v 0 0.7 0.5
v 0.1 0.8 0.5
v 0 0.8 0.5
v 0.1 0 0.3
v 0 0 0.3
v 0.1 0.1 0.3
v 0 0.1 0.3
v 0.2 0.2 0.3
v 0 0.2 0.3
v 0.4 0.9 0.3
v 0.3 0.9 0.3
v 0.4 1 0.3
v 0.3 1 0.3
v 0 1.7 0.3
v -0.3 1.7 0.3
v 0.2 1.8 0.3
v 0.1 1.8 0.3
v 0.1 1.9 0.3
v -0.3 1.9 0.3
v 0.4 0.7 0
v 0.3 0.7 0
v 0.4 0.8 0
v 0.3 0.8 0
v 0.2 0.4 -0.1
v 0 0.4 -0.1
v 0.3 0.5 -0.1
v 0.2 0.5 -0.1
v 0 0.5 -0.1
v 0.3 0.6 -0.1
v 0.2 0.6 -0.1
v 0.2 0.1 -0.2
v 0.1 0.1 -0.2
v 0.2 0.2 -0.2
v 0.1 0.2 -0.2
v 0.2 0.3 -0.2
v 0 0.3 -0.2
v 0.2 0.4 -0.2
v 0 0.4 -0.2
v 0.3 0.9 -0.2
v 0.2 0.9 -0.2
v 0.3 1 -0.2
v 0.2 1 -0.2
v 0.1 0.4 -0.4
v 0 0.4 -0.4
v 0.1 0.5 -0.4
v 0 0.5 -0.4
v 0.2 0.4 0.4
v 0.1 0.4 0.4
v 0.2 0.5 0.4
v 0.1 0.5 0.4
v 0.1 0.7 0.4
v 0 0.7 0.4
v 0.1 0.8 0.4
v 0 0.8 0.4
v 0.1 0 0.2
v 0 0 0.2
v 0.1 0.1 0.2
v 0 0.1 0.2
v 0.2 0.2 0.2
v 0 0.2 0.2
v 0.2 0.3 0.2
v 0 0.3 0.2
v 0.4 0.9 0.2
v 0.3 0.9 0.2
v 0.4 1 0.2
v 0.3 1 0.2
v 0.2 0.3 0
v 0 0.3 0
v 0.2 0.5 0
v 0 0.5 0
v 0.4 0.7 -0.1
v 0.3 0.7 -0.1
v 0.4 0.8 -0.1
v 0.3 0.8 -0.1
v 0.3 0.5 -0.2
v 0.2 0.5 -0.2
v 0.3 0.6 -0.2
v 0.2 0.6 -0.2
v 0.2 0.1 -0.3
v 0.1 0.1 -0.3
v 0.2 0.2 -0.3
v 0.1 0.2 -0.3
v 0.2 0.3 -0.3
v 0 0.3 -0.3
v 0.1 0.6 -0.3
v 0 0.6 -0.3
v 0.1 0.7 -0.3
v 0 0.7 -0.3
v 0.3 0.9 -0.3
v 0.2 0.9 -0.3
v 0.3 1 -0.3
v 0.2 1 -0.3
v 0 1.7 -0.3
v -0.3 1.7 -0.3
v 0.2 1.8 -0.3
v 0.1 1.8 -0.3
v 0.1 1.9 -0.3
v -0.3 1.9 -0.3
v 0.1 0.6 -0.4
v 0 0.6 -0.4
v 0.1 0.7 -0.4
v 0 0.7 -0.4
v 0.1 0.4 -0.5
v 0 0.4 -0.5
v 0.1 0.5 -0.5
v 0 0.5 -0.5
v 0.4 0.9 0.3
v 0.4 1 0.3
v 0.4 0.9 0.2
v 0.4 1 0.2
v 0.4 0.7 0
v 0.4 0.8 0
v 0.4 0.7 -0.1
v 0.4 0.8 -0.1
v 0.3 0.5 -0.1
v 0.3 0.6 -0.1
v 0.3 0.5 -0.2
v 0.3 0.6 -0.2
v 0.3 0.9 -0.2
v 0.3 1 -0.2
v 0.3 0.9 -0.3
v 0.3 1 -0.3
v 0.2 0.4 0.5
v 0.2 0.5 0.5
v 0.2 0.4 0.4
v 0.2 0.5 0.4
v 0.2 0.2 0.3
v 0.2 1.8 0.3
v 0.2 0.2 0.2
v 0.2 0.3 0.2
v 0.2 0.3 0.1
v 0.2 1.8 0.1
v 0.2 0.3 0
v 0.2 0.5 0
v 0.2 0.4 -0.1
v 0.2 0.5 -0.1
v 0.2 0.6 -0.1
v 0.2 1.8 -0.1
v 0.2 0.1 -0.2
v 0.2 0.2 -0.2
v 0.2 0.3 -0.2
v 0.2 0.4 -0.2
v 0.2 0.5 -0.2
v 0.2 0.6 -0.2
v 0.2 0.9 -0.2
v 0.2 1 -0.2
v 0.2 0.1 -0.3
v 0.2 0.2 -0.3
v 0.2 0.3 -0.3
v 0.2 0.9 -0.3
v 0.2 1 -0.3
v 0.2 1.8 -0.3
v 0.1 0.7 0.5
v 0.1 0.8 0.5
v 0.1 0.7 0.4
v 0.1 0.8 0.4
v 0.1 0 0.3
v 0.1 0.1 0.3
v 0.1 1.8 0.3
v 0.1 1.9 0.3
v 0.1 0 0.2
v 0.1 0.1 0.2
v 0.1 1.8 0.1
v 0.1 1.9 0.1
v 0.1 1.8 -0.1
v 0.1 1.9 -0.1
v 0.1 0.6 -0.3
v 0.1 0.7 -0.3
v 0.1 1.8 -0.3
v 0.1 1.9 -0.3
v 0.1 0.4 -0.4
v 0.1 0.5 -0.4
v 0.1 0.6 -0.4
v 0.1 0.7 -0.4
v 0.1 0.4 -0.5
v 0.1 0.5 -0.5
v 0.3 0.9 0.3
v 0.3 1 0.3
v 0.3 0.9 0.2
v 0.3 1 0.2
v 0.3 0.7 0
v 0.3 0.8 0
v 0.3 0.7 -0.1
v 0.3 0.8 -0.1
v 0.1 0.4 0.5
v 0.1 0.5 0.5
v 0.1 0.4 0.4
v 0.1 0.5 0.4
v 0.1 0.1 -0.2
v 0.1 0.2 -0.2
v 0.1 0.1 -0.3
v 0.1 0.2 -0.3
v 0 0.7 0.5
v 0 0.8 0.5
v 0 0.7 0.4
v 0 0.8 0.4
v 0 0 0.3
v 0 0.1 0.3
v 0 0.2 0.3
v 0 1.7 0.3
v 0 0 0.2
v 0 0.1 0.2
v 0 0.2 0.2
v 0 0.3 0.2
v 0 0.3 0.1
v 0 1.7 0.1
v 0 0.3 0
v 0 0.5 0
v 0 0.4 -0.1
v 0 0.5 -0.1
v 0 1.7 -0.1
v 0 0.3 -0.2
v 0 0.4 -0.2
v 0 0.3 -0.3
v 0 0.6 -0.3
v 0 0.7 -0.3
v 0 1.7 -0.3
v 0 0.4 -0.4
v 0 0.5 -0.4
v 0 0.6 -0.4
v 0 0.7 -0.4
v 0 0.4 -0.5
v 0 0.5 -0.5
v -0.3 1.7 0.3
v -0.3 1.9 0.3
v -0.3 1.7 0.1
v -0.3 1.9 0.1
v -0.3 1.7 -0.1
v -0.3 1.9 -0.1
v -0.3 1.7 -0.3
v -0.3 1.9 -0.3
v 0.1 0 0.3
v 0.1 0 0.2
v 0 0 0.3
v 0 0 0.2
v 0.2 0.1 -0.2
v 0.2 0.1 -0.3
v 0.1 0.1 -0.2
v 0.1 0.1 -0.3
v 0.2 0.2 0.3
v 0.2 0.2 0.2
v 0 0.2 0.3
v 0 0.2 0.2
v 0.2 0.3 0.2
v 0.2 0.3 0.1
v 0.2 0.3 0
v 0.2 0.3 -0.2
v 0.2 0.3 -0.3
v 0 0.3 0.2
v 0 0.3 0.1
v 0 0.3 0
v 0 0.3 -0.2
v 0 0.3 -0.3
v 0.2 0.4 0.5
v 0.2 0.4 0.4
v 0.2 0.4 -0.1
v 0.2 0.4 -0.2
v 0.1 0.4 0.5
v 0.1 0.4 0.4
v 0.1 0.4 -0.4
v 0.1 0.4 -0.5
v 0 0.4 -0.1
v 0 0.4 -0.2
v 0 0.4 -0.4
v 0 0.4 -0.5
v 0.3 0.5 -0.1
v 0.3 0.5 -0.2
v 0.2 0.5 0
v 0.2 0.5 -0.1
v 0.2 0.5 -0.2
v 0 0.5 0
v 0 0.5 -0.1
v 0.1 0.6 -0.3
v 0.1 0.6 -0.4
v 0 0.6 -0.3
v 0 0.6 -0.4
v 0.4 0.7 0
v 0.4 0.7 -0.1
v 0.3 0.7 0
v 0.3 0.7 -0.1
v 0.1 0.7 0.5
v 0.1 0.7 0.4
v 0 0.7 0.5
v 0 0.7 0.4
v 0.4 0.9 0.3
v 0.4 0.9 0.2
v 0.3 0.9 0.3
v 0.3 0.9 0.2
v 0.3 0.9 -0.2
v 0.3 0.9 -0.3
v 0.2 0.9 -0.2
v 0.2 0.9 -0.3
v 0 1.7 0.3
v 0 1.7 0.1
v 0 1.7 -0.1
v 0 1.7 -0.3
v -0.3 1.7 0.3
v -0.3 1.7 0.1
v -0.3 1.7 -0.1
v -0.3 1.7 -0.3
v 0.1 0.1 0.3
v 0.1 0.1 0.2
v 0 0.1 0.3
v 0 0.1 0.2
v 0.2 0.2 -0.2
v 0.2 0.2 -0.3
v 0.1 0.2 -0.2
v 0.1 0.2 -0.3
v 0.2 0.5 0.5
v 0.2 0.5 0.4
v 0.1 0.5 0.5
v 0.1 0.5 0.4
v 0.1 0.5 -0.4
v 0.1 0.5 -0.5
v 0 0.5 -0.4
v 0 0.5 -0.5
v 0.3 0.6 -0.1
v 0.3 0.6 -0.2
v 0.2 0.6 -0.1
v 0.2 0.6 -0.2
v 0.1 0.7 -0.3
v 0.1 0.7 -0.4
v 0 0.7 -0.3
v 0 0.7 -0.4
v 0.4 0.8 0
v 0.4 0.8 -0.1
v 0.3 0.8 0
v 0.3 0.8 -0.1
v 0.1 0.8 0.5
v 0.1 0.8 0.4
v 0 0.8 0.5
v 0 0.8 0.4
v 0.4 1 0.3
v 0.4 1 0.2
v 0.3 1 0.3
v 0.3 1 0.2
v 0.3 1 -0.2
v 0.3 1 -0.3
v 0.2 1 -0.2
v 0.2 1 -0.3
v 0.2 1.8 0.3
v 0.2 1.8 0.1
v 0.2 1.8 -0.1
v 0.2 1.8 -0.3
v 0.1 1.8 0.3
v 0.1 1.8 0.1
v 0.1 1.8 -0.1
v 0.1 1.8 -0.3
v 0.1 1.9 0.3
v 0.1 1.9 0.1
v 0.1 1.9 -0.1
v 0.1 1.9 -0.3
v -0.3 1.9 0.3
v -0.3 1.9 0.1
v -0.3 1.9 -0.1
v -0.3 1.9 -0.3

# faces
f 3/1/1 2/1/1 1/1/1
f 4/1/1 2/1/1 3/1/1
f 7/1/1 6/1/1 5/1/1
f 8/1/1 6/1/1 7/1/1
f 11/1/1 10/1/1 9/1/1
f 12/1/1 10/1/1 11/1/1
f 17/1/1 16/1/1 15/1/1
f 18/1/1 16/1/1 17/1/1
f 19/1/1 14/1/1 13/1/1
f 21/1/1 19/1/1 13/1/1
f 21/1/1 20/1/1 19/1/1
f 22/1/1 20/1/1 21/1/1
f 23/1/1 20/1/1 22/1/1
f 24/1/1 20/1/1 23/1/1
f 27/3/1 26/3/1 25/3/1
f 28/3/1 26/3/1 27/3/1
f 32/2/1 30/2/1 29/2/1
f 33/2/1 30/2/1 32/2/1
f 34/2/1 32/2/1 31/2/1
f 35/2/1 32/2/1 34/2/1
f 38/2/1 37/2/1 36/2/1
f 39/2/1 37/2/1 38/2/1
f 42/2/1 41/2/1 40/2/1
f 43/2/1 41/2/1 42/2/1
f 46/2/1 45/2/1 44/2/1
f 47/2/1 45/2/1 46/2/1
f 50/2/1 49/2/1 48/2/1
f 51/2/1 49/2/1 50/2/1
f 52/1/2 53/1/2 54/1/2
f 54/1/2 53/1/2 55/1/2
f 56/1/2 57/1/2 58/1/2
f 58/1/2 57/1/2 59/1/2
f 60/1/2 61/1/2 62/1/2
f 62/1/2 61/1/2 63/1/2
f 64/1/2 65/1/2 66/1/2
f 66/1/2 65/1/2 67/1/2
f 68/1/2 69/1/2 70/1/2
f 70/1/2 69/1/2 71/1/2
f 72/3/2 73/3/2 74/3/2
f 74/3/2 73/3/2 75/3/2
f 76/3/2 77/3/2 78/3/2
f 78/3/2 77/3/2 79/3/2
f 80/2/2 81/2/2 82/2/2
f 82/2/2 81/2/2 83/2/2
f 84/2/2 85/2/2 86/2/2
f 86/2/2 85/2/2 87/2/2
f 88/2/2 89/2/2 90/2/2
f 90/2/2 89/2/2 91/2/2
f 88/2/2 90/2/2 92/2/2
f 88/2/2 92/2/2 95/2/2
f 92/2/2 93/2/2 95/2/2
f 94/2/2 95/2/2 96/2/2
f 95/2/2 93/2/2 97/2/2
f 96/2/2 95/2/2 97/2/2
f 97/2/2 93/2/2 98/2/2
f 97/2/2 98/2/2 100/2/2
f 98/2/2 99/2/2 100/2/2
f 100/2/2 99/2/2 101/2/2
f 101/2/2 99/2/2 102/2/2
f 102/2/2 99/2/2 103/2/2
f 104/2/2 105/2/2 106/2/2
f 106/2/2 105/2/2 107/2/2
f 108/2/2 109/2/2 110/2/2
f 110/2/2 109/2/2 111/2/2
f 114/1/3 113/1/3 112/1/3
f 115/1/3 113/1/3 114/1/3
f 118/3/3 117/3/3 116/3/3
f 119/3/3 117/3/3 118/3/3
f 122/2/3 121/2/3 120/2/3
f 123/2/3 121/2/3 122/2/3
f 126/2/3 125/2/3 124/2/3
f 127/2/3 125/2/3 126/2/3
f 130/1/3 129/1/3 128/1/3
f 131/1/3 129/1/3 130/1/3
f 134/1/3 133/1/3 132/1/3
f 135/1/3 133/1/3 134/1/3
f 136/1/3 133/1/3 135/1/3
f 137/1/3 133/1/3 136/1/3
f 138/3/3 137/3/3 136/3/3
f 139/3/3 137/3/3 138/3/3
f 141/3/3 137/3/3 139/3/3
f 142/3/3 137/3/3 141/3/3
f 143/3/3 137/3/3 142/3/3
f 147/2/3 141/2/3 140/2/3
f 148/2/3 141/2/3 147/2/3
f 149/2/3 143/2/3 142/2/3
f 150/2/3 143/2/3 149/2/3
f 151/2/3 143/2/3 150/2/3
f 152/2/3 145/2/3 144/2/3
f 153/2/3 145/2/3 152/2/3
f 154/2/3 148/2/3 147/2/3
f 154/2/3 147/2/3 146/2/3
f 154/2/3 149/2/3 148/2/3
f 154/2/3 150/2/3 149/2/3
f 155/2/3 150/2/3 154/2/3
f 156/2/3 143/2/3 151/2/3
f 157/2/3 143/2/3 156/2/3
f 160/1/3 159/1/3 158/1/3
f 161/1/3 159/1/3 160/1/3
f 166/1/3 163/1/3 162/1/3
f 167/1/3 163/1/3 166/1/3
f 168/1/3 165/1/3 164/1/3
f 169/1/3 165/1/3 168/1/3
f 170/3/3 169/3/3 168/3/3
f 171/3/3 169/3/3 170/3/3
f 174/2/3 171/2/3 170/2/3
f 175/2/3 171/2/3 174/2/3
f 178/2/3 173/2/3 172/2/3
f 179/2/3 173/2/3 178/2/3
f 180/2/3 177/2/3 176/2/3
f 181/2/3 177/2/3 180/2/3
f 182/1/4 183/1/4 184/1/4
f 184/1/4 183/1/4 185/1/4
f 186/3/4 187/3/4 188/3/4
f 188/3/4 187/3/4 189/3/4
f 190/1/4 191/1/4 192/1/4
f 192/1/4 191/1/4 193/1/4
f 194/2/4 195/2/4 196/2/4
f 196/2/4 195/2/4 197/2/4
f 198/1/4 199/1/4 200/1/4
f 200/1/4 199/1/4 201/1/4
f 202/1/4 203/1/4 206/1/4
f 206/1/4 203/1/4 207/1/4
f 204/1/4 205/1/4 208/1/4
f 208/1/4 205/1/4 209/1/4
f 209/1/4 205/1/4 210/1/4
f 210/1/4 205/1/4 211/1/4
f 210/3/4 211/3/4 212/3/4
f 212/3/4 211/3/4 213/3/4
f 213/3/4 211/3/4 215/3/4
f 215/3/4 211/3/4 216/3/4
f 214/2/4 215/2/4 218/2/4
f 215/2/4 216/2/4 218/2/4
f 217/2/4 218/2/4 219/2/4
f 218/2/4 216/2/4 220/2/4
f 219/2/4 218/2/4 220/2/4
f 220/2/4 216/2/4 221/2/4
f 221/2/4 216/2/4 222/2/4
f 220/2/4 221/2/4 225/2/4
f 225/2/4 221/2/4 226/2/4
f 223/2/4 224/2/4 227/2/4
f 227/2/4 224/2/4 228/2/4
f 229/1/4 230/1/4 231/1/4
f 231/1/4 230/1/4 232/1/4
f 231/3/4 232/3/4 233/3/4
f 233/3/4 232/3/4 234/3/4
f 233/2/4 234/2/4 235/2/4
f 235/2/4 234/2/4 236/2/4
f 239/1/5 238/1/5 237/1/5
f 240/1/5 238/1/5 239/1/5
f 243/2/5 242/2/5 241/2/5
f 244/2/5 242/2/5 243/2/5
f 247/1/5 246/1/5 245/1/5
f 248/1/5 246/1/5 247/1/5
f 254/1/5 250/1/5 249/1/5
f 255/3/5 251/3/5 250/3/5
f 255/1/5 250/1/5 254/1/5
f 256/3/5 251/3/5 255/3/5
f 257/2/5 253/2/5 252/2/5
f 258/2/5 253/2/5 257/2/5
f 263/1/5 260/1/5 259/1/5
f 264/1/5 260/1/5 263/1/5
f 267/2/5 262/2/5 261/2/5
f 268/2/5 262/2/5 267/2/5
f 269/2/5 266/2/5 265/2/5
f 270/2/5 266/2/5 269/2/5
f 274/2/5 272/2/5 271/2/5
f 275/2/5 272/2/5 274/2/5
f 276/3/5 274/3/5 273/3/5
f 277/3/5 274/3/5 276/3/5
f 280/2/5 279/2/5 278/2/5
f 281/2/5 279/2/5 280/2/5
f 284/3/5 283/3/5 282/3/5
f 285/3/5 283/3/5 284/3/5
f 288/1/5 287/1/5 286/1/5
f 289/1/5 287/1/5 288/1/5
f 292/1/5 291/1/5 290/1/5
f 293/1/5 291/1/5 292/1/5
f 296/2/5 295/2/5 294/2/5
f 297/2/5 295/2/5 296/2/5
f 302/1/5 299/1/5 298/1/5
f 303/3/5 300/3/5 299/3/5
f 303/1/5 299/1/5 302/1/5
f 304/2/5 301/2/5 300/2/5
f 304/3/5 300/3/5 303/3/5
f 305/2/5 301/2/5 304/2/5
f 306/1/6 307/1/6 308/1/6
f 308/1/6 307/1/6 309/1/6
f 310/2/6 311/2/6 312/2/6
f 312/2/6 311/2/6 313/2/6
f 314/1/6 315/1/6 316/1/6
f 316/1/6 315/1/6 317/1/6
f 318/2/6 319/2/6 320/2/6
f 320/2/6 319/2/6 321/2/6
f 322/2/6 323/2/6 324/2/6
f 324/2/6 323/2/6 325/2/6
f 326/2/6 327/2/6 328/2/6
f 328/2/6 327/2/6 329/2/6
f 330/3/6 331/3/6 332/3/6
f 332/3/6 331/3/6 333/3/6
f 334/1/6 335/1/6 336/1/6
f 336/1/6 335/1/6 337/1/6
f 338/1/6 339/1/6 340/1/6
f 340/1/6 339/1/6 341/1/6
f 342/2/6 343/2/6 344/2/6
f 344/2/6 343/2/6 345/2/6
f 346/1/6 347/1/6 350/1/6
f 347/3/6 348/3/6 351/3/6
f 350/1/6 347/1/6 351/1/6
f 348/2/6 349/2/6 352/2/6
f 351/3/6 348/3/6 352/3/6
f 352/2/6 349/2/6 353/2/6
f 354/1/6 355/1/6 358/1/6
f 355/3/6 356/3/6 359/3/6
f 358/1/6 355/1/6 359/1/6
f 356/2/6 357/2/6 360/2/6
f 359/3/6 356/3/6 360/3/6
f 360/2/6 357/2/6 361/2/6
