# MagicaVoxel @ Ephtracy

# group
o 

# material
mtllib model-4.mtl
usemtl palette

# normals
vn 0 0 1
vn 0 0 -1
vn 1 0 0
vn -1 0 0
vn 0 -1 0
vn 0 1 0

# texcoords
vt 0.185547 0.5
vt 0.271484 0.5
vt 0.275391 0.5
vt 0.458984 0.5
vt 0.525391 0.5
vt 0.607422 0.5
vt 0.611328 0.5

# verts
v 0.5 0.6 1
v 0.4 0.6 1
v 0.3 0.6 1
v 0.2 0.6 1
v -0.1 0.6 1
v -0.2 0.6 1
v -0.5 0.6 1
v 0.5 0.7 1
v 0.4 0.7 1
v 0.3 0.7 1
v 0.2 0.7 1
v 0.1 0.7 1
v -0.1 0.7 1
v -0.2 0.7 1
v -0.3 0.7 1
v 0.4 0.8 1
v 0.3 0.8 1
v 0.2 0.8 1
v 0.1 0.8 1
v 0 0.8 1
v -0.1 0.8 1
v -0.2 0.8 1
v -0.3 0.8 1
v -0.4 0.8 1
v -0.5 0.8 1
v 0.5 0.9 1
v 0.4 0.9 1
v 0.3 0.9 1
v 0.2 0.9 1
v 0.1 0.9 1
v 0 0.9 1
v -0.2 0.9 1
v -0.3 0.9 1
v -0.4 0.9 1
v -0.5 0.9 1
v 0.4 1 1
v 0.3 1 1
v 0 1 1
v -0.2 1 1
v -0.3 1 1
v -0.4 1 1
v 0.5 1.1 1
v 0.3 1.1 1
v 0.2 1.1 1
v 0.1 1.1 1
v 0 1.1 1
v -0.2 1.1 1
v 0.4 1.2 1
v 0.3 1.2 1
v 0.2 1.2 1
v 0.1 1.2 1
v 0 1.2 1
v -0.2 1.2 1
v -0.3 1.2 1
v -0.5 1.2 1
v 0.5 1.3 1
v 0.4 1.3 1
v 0.3 1.3 1
v 0.2 1.3 1
v 0.1 1.3 1
v 0 1.3 1
v -0.1 1.3 1
v -0.2 1.3 1
v -0.3 1.3 1
v -0.4 1.3 1
v -0.5 1.3 1
v 0.5 1.4 1
v 0.4 1.4 1
v 0.3 1.4 1
v -0.1 1.4 1
v -0.3 1.4 1
v -0.4 1.4 1
v -0.5 1.4 1
v 0.5 1.5 1
v 0.4 1.5 1
v -0.3 1.5 1
v -0.4 1.5 1
v -0.1 1.6 1
v -0.2 1.6 1
v -0.4 1.6 1
v -0.5 1.6 1
v 0.5 1.7 1
v 0.3 1.7 1
v -0.3 1.7 1
v -0.4 1.7 1
v 0.4 1.8 1
v 0.3 1.8 1
v 0.2 1.8 1
v -0.2 1.8 1
v -0.3 1.8 1
v -0.4 1.8 1
v 0.5 1.9 1
v 0.4 1.9 1
v 0.2 2 1
v 0 2 1
v -0.1 2 1
v 0.5 2.1 1
v 0.3 2.1 1
v 0.2 2.1 1
v 0 2.1 1
v -0.1 2.1 1
v -0.3 2.1 1
v -0.5 2.1 1
v 0.5 1.8 -0.3
v -0.4 1.8 -0.3
v 0.5 1.9 -0.3
v -0.4 1.9 -0.3
v 0.5 1.9 -0.4
v -0.4 1.9 -0.4
v -0.4 2 -0.4
v 0.5 2.1 -0.4
v -0.4 2.1 -0.4
v 0.5 1.9 0.4
v -0.4 1.9 0.4
v -0.4 2 0.4
v 0.5 2.1 0.4
v -0.4 2.1 0.4
v 0.5 1.8 0.3
v -0.4 1.8 0.3
v 0.5 1.9 0.3
v -0.4 1.9 0.3
v 0.5 0.6 -1
v 0.4 0.6 -1
v 0.1 0.6 -1
v 0 0.6 -1
v -0.1 0.6 -1
v -0.2 0.6 -1
v -0.5 0.6 -1
v 0.4 0.7 -1
v 0.1 0.7 -1
v -0.1 0.7 -1
v -0.2 0.7 -1
v -0.4 0.7 -1
v 0.5 0.8 -1
v 0.4 0.8 -1
v 0.2 0.8 -1
v 0.1 0.8 -1
v 0 0.8 -1
v -0.3 0.8 -1
v -0.4 0.8 -1
v -0.5 0.8 -1
v 0.5 0.9 -1
v 0.4 0.9 -1
v 0.3 0.9 -1
v 0.1 0.9 -1
v 0 0.9 -1
v -0.2 0.9 -1
v -0.3 0.9 -1
v -0.4 0.9 -1
v 0.5 1 -1
v 0.4 1 -1
v 0.3 1 -1
v 0.2 1 -1
v 0 1 -1
v -0.2 1 -1
v -0.3 1 -1
v -0.4 1 -1
v -0.5 1 -1
v 0.5 1.1 -1
v 0.4 1.1 -1
v 0.2 1.1 -1
v 0 1.1 -1
v -0.2 1.1 -1
v -0.3 1.1 -1
v 0.5 1.2 -1
v 0.3 1.2 -1
v 0.2 1.2 -1
v 0.1 1.2 -1
v 0 1.2 -1
v -0.1 1.2 -1
v -0.2 1.2 -1
v -0.4 1.2 -1
v 0.5 1.3 -1
v 0.4 1.3 -1
v 0.3 1.3 -1
v 0.2 1.3 -1
v 0.1 1.3 -1
v 0 1.3 -1
v -0.2 1.3 -1
v -0.4 1.3 -1
v -0.5 1.3 -1
v 0.2 1.4 -1
v 0.1 1.4 -1
v 0 1.4 -1
v -0.1 1.4 -1
v -0.2 1.4 -1
v 0.3 1.5 -1
v 0 1.5 -1
v -0.1 1.5 -1
v -0.2 1.5 -1
v -0.4 1.5 -1
v -0.5 1.5 -1
v 0.5 1.6 -1
v 0.4 1.6 -1
v 0.5 1.7 -1
v 0.4 1.7 -1
v 0.5 1.8 -1
v 0.4 1.8 -1
v -0.4 1.8 -1
v -0.5 1.8 -1
v 0.5 1.9 -1
v 0.4 1.9 -1
v -0.4 1.9 -1
v -0.5 1.9 -1
v 0.5 2 -1
v 0.4 2 -1
v 0.5 2.1 -1
v 0.4 2.1 -1
v -0.5 2.1 -1
v 0.5 0.6 1
v 0.5 0.7 1
v 0.5 0.9 1
v 0.5 1.1 1
v 0.5 1.3 1
v 0.5 1.4 1
v 0.5 1.5 1
v 0.5 1.7 1
v 0.5 1.9 1
v 0.5 2.1 1
v 0.5 0.6 0.9
v 0.5 0.7 0.9
v 0.5 1 0.9
v 0.5 1.1 0.9
v 0.5 1.2 0.9
v 0.5 1.4 0.9
v 0.5 1.5 0.9
v 0.5 1.7 0.9
v 0.5 1.9 0.9
v 0.5 2.1 0.9
v 0.5 0.8 0.8
v 0.5 0.9 0.8
v 0.5 1 0.8
v 0.5 1.1 0.8
v 0.5 1.2 0.8
v 0.5 1.3 0.8
v 0.5 1.4 0.8
v 0.5 1.5 0.8
v 0.5 1.7 0.8
v 0.5 1.9 0.8
v 0.5 2 0.8
v 0.5 0.7 0.7
v 0.5 0.8 0.7
v 0.5 0.9 0.7
v 0.5 1 0.7
v 0.5 1.1 0.7
v 0.5 1.2 0.7
v 0.5 1.5 0.7
v 0.5 1.6 0.7
v 0.5 1.8 0.7
v 0.5 2 0.7
v 0.5 2.1 0.7
v 0.5 0.6 0.6
v 0.5 0.7 0.6
v 0.5 0.8 0.6
v 0.5 0.9 0.6
v 0.5 1 0.6
v 0.5 1.1 0.6
v 0.5 1.2 0.6
v 0.5 1.3 0.6
v 0.5 1.4 0.6
v 0.5 1.5 0.6
v 0.5 1.6 0.6
v 0.5 1.7 0.6
v 0.5 1.9 0.6
v 0.5 2 0.6
v 0.5 0.7 0.5
v 0.5 0.8 0.5
v 0.5 0.9 0.5
v 0.5 1 0.5
v 0.5 1.2 0.5
v 0.5 1.3 0.5
v 0.5 1.4 0.5
v 0.5 1.5 0.5
v 0.5 1.8 0.5
v 0.5 1.9 0.5
v 0.5 2 0.5
v 0.5 0.6 0.4
v 0.5 0.7 0.4
v 0.5 1 0.4
v 0.5 1.1 0.4
v 0.5 1.2 0.4
v 0.5 1.3 0.4
v 0.5 1.4 0.4
v 0.5 1.5 0.4
v 0.5 1.7 0.4
v 0.5 1.9 0.4
v 0.5 2.1 0.4
v 0.5 0.7 0.3
v 0.5 0.8 0.3
v 0.5 0.9 0.3
v 0.5 1 0.3
v 0.5 1.1 0.3
v 0.5 1.2 0.3
v 0.5 1.3 0.3
v 0.5 1.4 0.3
v 0.5 1.6 0.3
v 0.5 1.7 0.3
v 0.5 1.8 0.3
v 0.5 1.9 0.3
v 0.5 0.7 0.2
v 0.5 0.8 0.2
v 0.5 0.9 0.2
v 0.5 1 0.2
v 0.5 1.1 0.2
v 0.5 1.2 0.2
v 0.5 1.3 0.2
v 0.5 1.4 0.2
v 0.5 1.6 0.2
v 0.5 1.8 0.2
v 0.5 0.6 0.1
v 0.5 0.7 0.1
v 0.5 0.8 0.1
v 0.5 0.9 0.1
v 0.5 1 0.1
v 0.5 1.1 0.1
v 0.5 1.3 0.1
v 0.5 1.4 0.1
v 0.5 1.5 0.1
v 0.5 1.6 0.1
v 0.5 1.7 0.1
v 0.5 0.6 0
v 0.5 0.7 0
v 0.5 0.8 0
v 0.5 0.9 0
v 0.5 1 0
v 0.5 1.1 0
v 0.5 1.3 0
v 0.5 1.4 0
v 0.5 1.5 0
v 0.5 1.6 0
v 0.5 1.7 0
v 0.5 1.8 0
v 0.5 0.7 -0.1
v 0.5 0.8 -0.1
v 0.5 1 -0.1
v 0.5 1.1 -0.1
v 0.5 1.2 -0.1
v 0.5 1.3 -0.1
v 0.5 1.5 -0.1
v 0.5 1.6 -0.1
v 0.5 0.7 -0.2
v 0.5 0.8 -0.2
v 0.5 0.9 -0.2
v 0.5 1.1 -0.2
v 0.5 1.2 -0.2
v 0.5 1.4 -0.2
v 0.5 1.5 -0.2
v 0.5 1.6 -0.2
v 0.5 1.7 -0.2
v 0.5 0.7 -0.3
v 0.5 0.8 -0.3
v 0.5 1 -0.3
v 0.5 1.1 -0.3
v 0.5 1.2 -0.3
v 0.5 1.4 -0.3
v 0.5 1.5 -0.3
v 0.5 1.7 -0.3
v 0.5 1.8 -0.3
v 0.5 1.9 -0.3
v 0.5 0.6 -0.4
v 0.5 0.7 -0.4
v 0.5 1.2 -0.4
v 0.5 1.5 -0.4
v 0.5 1.6 -0.4
v 0.5 1.8 -0.4
v 0.5 1.9 -0.4
v 0.5 2.1 -0.4
v 0.5 0.6 -0.5
v 0.5 0.7 -0.5
v 0.5 0.8 -0.5
v 0.5 0.9 -0.5
v 0.5 1 -0.5
v 0.5 1.1 -0.5
v 0.5 1.2 -0.5
v 0.5 1.3 -0.5
v 0.5 1.4 -0.5
v 0.5 1.5 -0.5
v 0.5 1.6 -0.5
v 0.5 1.7 -0.5
v 0.5 1.8 -0.5
v 0.5 1.9 -0.5
v 0.5 2 -0.5
v 0.5 0.7 -0.6
v 0.5 0.8 -0.6
v 0.5 0.9 -0.6
v 0.5 1.2 -0.6
v 0.5 1.3 -0.6
v 0.5 1.4 -0.6
v 0.5 1.5 -0.6
v 0.5 1.6 -0.6
v 0.5 1.7 -0.6
v 0.5 1.8 -0.6
v 0.5 1.9 -0.6
v 0.5 2 -0.6
v 0.5 2.1 -0.6
v 0.5 0.7 -0.7
v 0.5 0.8 -0.7
v 0.5 0.9 -0.7
v 0.5 1.2 -0.7
v 0.5 1.3 -0.7
v 0.5 1.4 -0.7
v 0.5 1.5 -0.7
v 0.5 1.6 -0.7
v 0.5 1.8 -0.7
v 0.5 1.9 -0.7
v 0.5 2 -0.7
v 0.5 2.1 -0.7
v 0.5 0.7 -0.8
v 0.5 0.8 -0.8
v 0.5 0.9 -0.8
v 0.5 1 -0.8
v 0.5 1.1 -0.8
v 0.5 1.2 -0.8
v 0.5 1.3 -0.8
v 0.5 1.4 -0.8
v 0.5 1.5 -0.8
v 0.5 1.6 -0.8
v 0.5 1.7 -0.8
v 0.5 1.8 -0.8
v 0.5 1.9 -0.8
v 0.5 2 -0.8
v 0.5 0.6 -0.9
v 0.5 0.8 -0.9
v 0.5 0.9 -0.9
v 0.5 1 -0.9
v 0.5 1.1 -0.9
v 0.5 1.2 -0.9
v 0.5 1.3 -0.9
v 0.5 1.4 -0.9
v 0.5 1.5 -0.9
v 0.5 1.6 -0.9
v 0.5 1.8 -0.9
v 0.5 1.9 -0.9
v 0.5 2 -0.9
v 0.5 2.1 -0.9
v 0.5 0.6 -1
v 0.5 0.8 -1
v 0.5 0.9 -1
v 0.5 1 -1
v 0.5 1.1 -1
v 0.5 1.2 -1
v 0.5 1.3 -1
v 0.5 1.6 -1
v 0.5 1.7 -1
v 0.5 1.8 -1
v 0.5 1.9 -1
v 0.5 2 -1
v 0.5 2.1 -1
v -0.4 1.9 0.4
v -0.4 2 0.4
v -0.4 2.1 0.4
v -0.4 1.8 0.3
v -0.4 1.9 0.3
v -0.4 2 0.3
v -0.4 2.1 0.3
v -0.4 2 0.2
v -0.4 2.1 0.2
v -0.4 1.8 0.1
v -0.4 1.9 0.1
v -0.4 2 0.1
v -0.4 2.1 0.1
v -0.4 1.8 0
v -0.4 1.9 0
v -0.4 2 0
v -0.4 1.8 -0.1
v -0.4 1.9 -0.1
v -0.4 2 -0.1
v -0.4 2.1 -0.1
v -0.4 2 -0.2
v -0.4 2.1 -0.2
v -0.4 1.8 -0.3
v -0.4 1.9 -0.3
v -0.4 2 -0.3
v -0.4 2.1 -0.3
v -0.4 1.9 -0.4
v -0.4 2 -0.4
v -0.4 2.1 -0.4
v -0.5 0.6 1
v -0.5 0.8 1
v -0.5 0.9 1
v -0.5 1.2 1
v -0.5 1.3 1
v -0.5 1.4 1
v -0.5 1.6 1
v -0.5 2.1 1
v -0.5 0.8 0.9
v -0.5 0.9 0.9
v -0.5 1.3 0.9
v -0.5 1.4 0.9
v -0.5 1.5 0.9
v -0.5 1.6 0.9
v -0.5 1.8 0.9
v -0.5 1.9 0.9
v -0.5 1.2 0.8
v -0.5 1.3 0.8
v -0.5 1.4 0.8
v -0.5 1.5 0.8
v -0.5 1.8 0.8
v -0.5 1.9 0.8
v -0.5 0.8 0.7
v -0.5 0.9 0.7
v -0.5 1.1 0.7
v -0.5 1.2 0.7
v -0.5 1.3 0.7
v -0.5 1.4 0.7
v -0.5 1.5 0.7
v -0.5 1.6 0.7
v -0.5 1.7 0.7
v -0.5 1.8 0.7
v -0.5 1.9 0.7
v -0.5 0.8 0.6
v -0.5 0.9 0.6
v -0.5 1.1 0.6
v -0.5 1.2 0.6
v -0.5 1.4 0.6
v -0.5 1.5 0.6
v -0.5 1.6 0.6
v -0.5 1.7 0.6
v -0.5 1.8 0.6
v -0.5 1.9 0.6
v -0.5 2 0.6
v -0.5 2.1 0.6
v -0.5 0.8 0.5
v -0.5 0.9 0.5
v -0.5 1.2 0.5
v -0.5 1.3 0.5
v -0.5 1.4 0.5
v -0.5 1.5 0.5
v -0.5 1.7 0.5
v -0.5 1.8 0.5
v -0.5 1.9 0.5
v -0.5 2 0.5
v -0.5 0.6 0.4
v -0.5 0.7 0.4
v -0.5 0.8 0.4
v -0.5 0.9 0.4
v -0.5 1.2 0.4
v -0.5 1.3 0.4
v -0.5 1.4 0.4
v -0.5 1.5 0.4
v -0.5 1.7 0.4
v -0.5 1.9 0.4
v -0.5 2 0.4
v -0.5 0.8 0.3
v -0.5 0.9 0.3
v -0.5 1.3 0.3
v -0.5 1.4 0.3
v -0.5 1.5 0.3
v -0.5 1.7 0.3
v -0.5 1.8 0.3
v -0.5 1.9 0.3
v -0.5 2 0.3
v -0.5 2.1 0.3
v -0.5 0.7 0.2
v -0.5 0.9 0.2
v -0.5 1.1 0.2
v -0.5 1.2 0.2
v -0.5 1.3 0.2
v -0.5 1.4 0.2
v -0.5 1.6 0.2
v -0.5 1.7 0.2
v -0.5 2 0.2
v -0.5 2.1 0.2
v -0.5 0.7 0.1
v -0.5 0.9 0.1
v -0.5 1 0.1
v -0.5 1.1 0.1
v -0.5 1.2 0.1
v -0.5 1.6 0.1
v -0.5 1.7 0.1
v -0.5 1.8 0.1
v -0.5 1.9 0.1
v -0.5 2 0.1
v -0.5 2.1 0.1
v -0.5 1 0
v -0.5 1.1 0
v -0.5 1.2 0
v -0.5 1.3 0
v -0.5 1.4 0
v -0.5 1.5 0
v -0.5 1.7 0
v -0.5 1.9 0
v -0.5 2 0
v -0.5 0.6 -0.1
v -0.5 0.7 -0.1
v -0.5 0.9 -0.1
v -0.5 1.2 -0.1
v -0.5 1.3 -0.1
v -0.5 1.4 -0.1
v -0.5 1.5 -0.1
v -0.5 1.7 -0.1
v -0.5 1.9 -0.1
v -0.5 2 -0.1
v -0.5 2.1 -0.1
v -0.5 0.6 -0.2
v -0.5 0.7 -0.2
v -0.5 0.8 -0.2
v -0.5 0.9 -0.2
v -0.5 1 -0.2
v -0.5 1.4 -0.2
v -0.5 1.5 -0.2
v -0.5 1.7 -0.2
v -0.5 1.8 -0.2
v -0.5 2 -0.2
v -0.5 2.1 -0.2
v -0.5 0.6 -0.3
v -0.5 0.7 -0.3
v -0.5 0.8 -0.3
v -0.5 0.9 -0.3
v -0.5 1.1 -0.3
v -0.5 1.2 -0.3
v -0.5 1.3 -0.3
v -0.5 1.4 -0.3
v -0.5 1.5 -0.3
v -0.5 2 -0.3
v -0.5 2.1 -0.3
v -0.5 0.8 -0.4
v -0.5 0.9 -0.4
v -0.5 1.2 -0.4
v -0.5 1.5 -0.4
v -0.5 1.8 -0.4
v -0.5 1.9 -0.4
v -0.5 2 -0.4
v -0.5 2.1 -0.4
v -0.5 0.8 -0.5
v -0.5 0.9 -0.5
v -0.5 1.3 -0.5
v -0.5 1.5 -0.5
v -0.5 1.7 -0.5
v -0.5 1.9 -0.5
v -0.5 2 -0.5
v -0.5 0.8 -0.6
v -0.5 0.9 -0.6
v -0.5 1.1 -0.6
v -0.5 1.2 -0.6
v -0.5 1.3 -0.6
v -0.5 1.4 -0.6
v -0.5 1.5 -0.6
v -0.5 1.6 -0.6
v -0.5 1.7 -0.6
v -0.5 1.8 -0.6
v -0.5 0.9 -0.7
v -0.5 1 -0.7
v -0.5 1.1 -0.7
v -0.5 1.3 -0.7
v -0.5 1.4 -0.7
v -0.5 1.5 -0.7
v -0.5 1.6 -0.7
v -0.5 1.7 -0.7
v -0.5 1.8 -0.7
v -0.5 0.9 -0.8
v -0.5 1 -0.8
v -0.5 1.3 -0.8
v -0.5 1.4 -0.8
v -0.5 1.5 -0.8
v -0.5 1.7 -0.8
v -0.5 1.8 -0.8
v -0.5 1.9 -0.8
v -0.5 2 -0.8
v -0.5 1.3 -0.9
v -0.5 1.4 -0.9
v -0.5 1.5 -0.9
v -0.5 1.7 -0.9
v -0.5 1.8 -0.9
v -0.5 1.9 -0.9
v -0.5 2 -0.9
v -0.5 0.6 -1
v -0.5 0.8 -1
v -0.5 1 -1
v -0.5 1.3 -1
v -0.5 1.5 -1
v -0.5 1.8 -1
v -0.5 1.9 -1
v -0.5 2.1 -1
v 0.5 0.6 1
v 0.5 0.6 0.9
v 0.5 0.6 0.6
v 0.5 0.6 0.4
v 0.5 0.6 0.1
v 0.5 0.6 0
v 0.5 0.6 -0.4
v 0.5 0.6 -0.5
v 0.5 0.6 -0.9
v 0.5 0.6 -1
v 0.4 0.6 1
v 0.4 0.6 0.9
v 0.4 0.6 0.6
v 0.4 0.6 0.4
v 0.4 0.6 0.1
v 0.4 0.6 0
v 0.4 0.6 -0.4
v 0.4 0.6 -0.5
v 0.4 0.6 -0.9
v 0.4 0.6 -1
v 0.3 0.6 1
v 0.3 0.6 0.9
v 0.2 0.6 1
v 0.2 0.6 0.9
v 0.1 0.6 -0.9
v 0.1 0.6 -1
v 0 0.6 -0.9
v 0 0.6 -1
v -0.1 0.6 1
v -0.1 0.6 0.9
v -0.1 0.6 -0.9
v -0.1 0.6 -1
v -0.2 0.6 1
v -0.2 0.6 0.9
v -0.2 0.6 -0.9
v -0.2 0.6 -1
v -0.4 0.6 0.4
v -0.4 0.6 -0.1
v -0.4 0.6 -0.2
v -0.4 0.6 -0.3
v -0.5 0.6 1
v -0.5 0.6 0.4
v -0.5 0.6 -0.1
v -0.5 0.6 -0.2
v -0.5 0.6 -0.3
v -0.5 0.6 -1
v 0.5 1.8 0.3
v 0.5 1.8 0.2
v 0.5 1.8 0
v 0.5 1.8 -0.3
v 0.4 1.8 0.2
v 0.4 1.8 0
v -0.4 1.8 0.3
v -0.4 1.8 0.1
v -0.4 1.8 0
v -0.4 1.8 -0.1
v -0.4 1.8 -0.3
v 0.5 1.9 0.4
v 0.5 1.9 0.3
v 0.5 1.9 -0.3
v 0.5 1.9 -0.4
v -0.4 1.9 0.4
v -0.4 1.9 0.3
v -0.4 1.9 -0.3
v -0.4 1.9 -0.4
v 0.5 2.1 1
v 0.5 2.1 0.9
v 0.5 2.1 0.7
v 0.5 2.1 0.4
v 0.5 2.1 -0.4
v 0.5 2.1 -0.6
v 0.5 2.1 -0.7
v 0.5 2.1 -0.9
v 0.5 2.1 -1
v 0.4 2.1 0.9
v 0.4 2.1 0.7
v 0.4 2.1 -0.7
v 0.4 2.1 -0.9
v 0.4 2.1 -1
v 0.3 2.1 1
v 0.3 2.1 0.9
v 0.2 2.1 1
v 0.2 2.1 0.9
v 0.2 2.1 0.8
v 0.2 2.1 -0.8
v 0.2 2.1 -0.9
v 0.1 2.1 0.9
v 0.1 2.1 0.8
v 0.1 2.1 0.7
v 0 2.1 1
v 0 2.1 0.9
v 0 2.1 0.8
v 0 2.1 0.7
v 0 2.1 -0.6
v 0 2.1 -0.8
v -0.1 2.1 1
v -0.1 2.1 0.9
v -0.1 2.1 0.8
v -0.1 2.1 0.7
v -0.2 2.1 0.9
v -0.2 2.1 0.7
v -0.3 2.1 1
v -0.3 2.1 0.9
v -0.4 2.1 0.9
v -0.4 2.1 0.6
v -0.4 2.1 0.4
v -0.4 2.1 0.3
v -0.4 2.1 0.2
v -0.4 2.1 0.1
v -0.4 2.1 -0.1
v -0.4 2.1 -0.2
v -0.4 2.1 -0.3
v -0.4 2.1 -0.4
v -0.5 2.1 1
v -0.5 2.1 0.6
v -0.5 2.1 0.3
v -0.5 2.1 0.2
v -0.5 2.1 0.1
v -0.5 2.1 -0.1
v -0.5 2.1 -0.2
v -0.5 2.1 -0.3
v -0.5 2.1 -0.4
v -0.5 2.1 -1

# faces
f 8/3/1 2/3/1 1/3/1
f 9/1/1 3/1/1 2/1/1
f 9/3/1 2/3/1 8/3/1
f 10/3/1 4/3/1 3/3/1
f 10/1/1 3/1/1 9/1/1
f 11/2/1 5/2/1 4/2/1
f 11/3/1 4/3/1 10/3/1
f 12/2/1 5/2/1 11/2/1
f 13/3/1 6/3/1 5/3/1
f 13/2/1 5/2/1 12/2/1
f 14/1/1 7/1/1 6/1/1
f 14/3/1 6/3/1 13/3/1
f 15/1/1 7/1/1 14/1/1
f 16/2/1 9/2/1 8/2/1
f 16/3/1 10/3/1 9/3/1
f 17/2/1 12/2/1 11/2/1
f 17/3/1 10/3/1 16/3/1
f 17/2/1 11/2/1 10/2/1
f 18/2/1 12/2/1 17/2/1
f 19/3/1 13/3/1 12/3/1
f 19/2/1 12/2/1 18/2/1
f 20/3/1 13/3/1 19/3/1
f 21/1/1 14/1/1 13/1/1
f 21/3/1 13/3/1 20/3/1
f 22/4/1 15/4/1 14/4/1
f 22/1/1 14/1/1 21/1/1
f 23/1/1 7/1/1 15/1/1
f 23/4/1 15/4/1 22/4/1
f 24/1/1 7/1/1 23/1/1
f 25/1/1 7/1/1 24/1/1
f 26/2/1 16/2/1 8/2/1
f 27/1/1 17/1/1 16/1/1
f 27/2/1 16/2/1 26/2/1
f 28/3/1 18/3/1 17/3/1
f 28/1/1 17/1/1 27/1/1
f 29/1/1 20/1/1 19/1/1
f 29/3/1 18/3/1 28/3/1
f 29/1/1 19/1/1 18/1/1
f 30/1/1 20/1/1 29/1/1
f 31/4/1 22/4/1 21/4/1
f 31/1/1 20/1/1 30/1/1
f 31/4/1 21/4/1 20/4/1
f 32/5/1 23/5/1 22/5/1
f 32/4/1 22/4/1 31/4/1
f 32/5/1 24/5/1 23/5/1
f 33/5/1 24/5/1 32/5/1
f 34/4/1 25/4/1 24/4/1
f 34/5/1 24/5/1 33/5/1
f 35/4/1 25/4/1 34/4/1
f 36/3/1 27/3/1 26/3/1
f 36/1/1 29/1/1 28/1/1
f 36/1/1 28/1/1 27/1/1
f 37/1/1 29/1/1 36/1/1
f 38/1/1 31/1/1 30/1/1
f 38/1/1 32/1/1 31/1/1
f 39/5/1 33/5/1 32/5/1
f 39/1/1 32/1/1 38/1/1
f 40/4/1 34/4/1 33/4/1
f 40/5/1 33/5/1 39/5/1
f 41/1/1 35/1/1 34/1/1
f 41/4/1 34/4/1 40/4/1
f 42/3/1 37/3/1 36/3/1
f 42/3/1 36/3/1 26/3/1
f 43/1/1 29/1/1 37/1/1
f 43/3/1 37/3/1 42/3/1
f 44/4/1 30/4/1 29/4/1
f 44/1/1 29/1/1 43/1/1
f 45/1/1 38/1/1 30/1/1
f 45/4/1 30/4/1 44/4/1
f 46/7/1 39/7/1 38/7/1
f 46/1/1 38/1/1 45/1/1
f 47/1/1 40/1/1 39/1/1
f 47/7/1 39/7/1 46/7/1
f 47/1/1 41/1/1 40/1/1
f 48/1/1 43/1/1 42/1/1
f 49/4/1 44/4/1 43/4/1
f 49/1/1 43/1/1 48/1/1
f 50/5/1 45/5/1 44/5/1
f 50/4/1 44/4/1 49/4/1
f 51/1/1 46/1/1 45/1/1
f 51/5/1 45/5/1 50/5/1
f 51/1/1 47/1/1 46/1/1
f 52/1/1 47/1/1 51/1/1
f 53/1/1 41/1/1 47/1/1
f 53/1/1 47/1/1 52/1/1
f 54/1/1 41/1/1 53/1/1
f 55/1/1 35/1/1 41/1/1
f 55/1/1 41/1/1 54/1/1
f 56/1/1 48/1/1 42/1/1
f 57/4/1 49/4/1 48/4/1
f 57/1/1 48/1/1 56/1/1
f 58/5/1 50/5/1 49/5/1
f 58/4/1 49/4/1 57/4/1
f 59/4/1 51/4/1 50/4/1
f 59/5/1 50/5/1 58/5/1
f 60/1/1 52/1/1 51/1/1
f 60/4/1 51/4/1 59/4/1
f 61/7/1 53/7/1 52/7/1
f 61/1/1 52/1/1 60/1/1
f 62/7/1 53/7/1 61/7/1
f 63/1/1 54/1/1 53/1/1
f 63/7/1 53/7/1 62/7/1
f 64/7/1 55/7/1 54/7/1
f 64/1/1 54/1/1 63/1/1
f 65/7/1 55/7/1 64/7/1
f 66/7/1 55/7/1 65/7/1
f 67/5/1 57/5/1 56/5/1
f 67/5/1 58/5/1 57/5/1
f 68/5/1 58/5/1 67/5/1
f 69/1/1 59/1/1 58/1/1
f 69/5/1 58/5/1 68/5/1
f 69/1/1 62/1/1 61/1/1
f 69/1/1 60/1/1 59/1/1
f 69/1/1 61/1/1 60/1/1
f 70/6/1 63/6/1 62/6/1
f 70/1/1 62/1/1 69/1/1
f 70/6/1 64/6/1 63/6/1
f 71/7/1 65/7/1 64/7/1
f 71/6/1 64/6/1 70/6/1
f 72/1/1 66/1/1 65/1/1
f 72/7/1 65/7/1 71/7/1
f 73/1/1 66/1/1 72/1/1
f 74/4/1 68/4/1 67/4/1
f 75/1/1 70/1/1 69/1/1
f 75/4/1 68/4/1 74/4/1
f 75/1/1 69/1/1 68/1/1
f 76/7/1 71/7/1 70/7/1
f 76/7/1 73/7/1 72/7/1
f 76/7/1 72/7/1 71/7/1
f 77/7/1 73/7/1 76/7/1
f 78/1/1 70/1/1 75/1/1
f 78/1/1 75/1/1 74/1/1
f 78/7/1 76/7/1 70/7/1
f 79/7/1 76/7/1 78/7/1
f 80/7/1 73/7/1 77/7/1
f 80/6/1 77/6/1 76/6/1
f 81/7/1 73/7/1 80/7/1
f 82/1/1 79/1/1 78/1/1
f 82/1/1 78/1/1 74/1/1
f 83/1/1 79/1/1 82/1/1
f 84/7/1 76/7/1 79/7/1
f 84/6/1 81/6/1 80/6/1
f 84/6/1 80/6/1 76/6/1
f 85/6/1 81/6/1 84/6/1
f 86/3/1 83/3/1 82/3/1
f 87/1/1 79/1/1 83/1/1
f 87/3/1 83/3/1 86/3/1
f 88/1/1 79/1/1 87/1/1
f 89/7/1 84/7/1 79/7/1
f 89/1/1 79/1/1 88/1/1
f 89/7/1 85/7/1 84/7/1
f 90/7/1 85/7/1 89/7/1
f 91/6/1 81/6/1 85/6/1
f 91/7/1 85/7/1 90/7/1
f 92/3/1 86/3/1 82/3/1
f 93/2/1 87/2/1 86/2/1
f 93/3/1 86/3/1 92/3/1
f 94/1/1 90/1/1 89/1/1
f 94/3/1 88/3/1 87/3/1
f 94/1/1 89/1/1 88/1/1
f 95/1/1 90/1/1 94/1/1
f 96/1/1 90/1/1 95/1/1
f 97/2/1 93/2/1 92/2/1
f 98/2/1 87/2/1 93/2/1
f 98/2/1 93/2/1 97/2/1
f 98/3/1 94/3/1 87/3/1
f 99/2/1 95/2/1 94/2/1
f 99/3/1 94/3/1 98/3/1
f 100/3/1 96/3/1 95/3/1
f 100/2/1 95/2/1 99/2/1
f 101/1/1 90/1/1 96/1/1
f 101/3/1 96/3/1 100/3/1
f 102/6/1 91/6/1 90/6/1
f 102/1/1 90/1/1 101/1/1
f 103/6/1 81/6/1 91/6/1
f 103/6/1 91/6/1 102/6/1
f 106/1/1 105/1/1 104/1/1
f 107/1/1 105/1/1 106/1/1
f 110/1/1 109/1/1 108/1/1
f 111/1/1 110/1/1 108/1/1
f 112/1/1 110/1/1 111/1/1
f 113/1/2 114/1/2 115/1/2
f 113/1/2 115/1/2 116/1/2
f 116/1/2 115/1/2 117/1/2
f 118/1/2 119/1/2 120/1/2
f 120/1/2 119/1/2 121/1/2
f 122/7/2 123/7/2 129/7/2
f 123/6/2 124/6/2 129/6/2
f 124/7/2 125/7/2 130/7/2
f 129/6/2 124/6/2 130/6/2
f 126/7/2 127/7/2 131/7/2
f 125/1/2 126/1/2 131/1/2
f 127/1/2 128/1/2 132/1/2
f 131/7/2 127/7/2 132/7/2
f 132/1/2 128/1/2 133/1/2
f 122/7/2 129/7/2 134/7/2
f 129/1/2 130/1/2 135/1/2
f 134/7/2 129/7/2 135/7/2
f 135/1/2 130/1/2 136/1/2
f 130/7/2 125/7/2 137/7/2
f 136/1/2 130/1/2 137/1/2
f 125/1/2 131/1/2 138/1/2
f 137/7/2 125/7/2 138/7/2
f 131/1/2 132/1/2 138/1/2
f 132/4/2 133/4/2 139/4/2
f 133/1/2 128/1/2 140/1/2
f 139/4/2 133/4/2 140/4/2
f 140/1/2 128/1/2 141/1/2
f 135/1/2 136/1/2 142/1/2
f 134/1/2 135/1/2 142/1/2
f 142/1/2 136/1/2 143/1/2
f 143/1/2 136/1/2 144/1/2
f 136/7/2 137/7/2 145/7/2
f 137/6/2 138/6/2 145/6/2
f 138/1/2 132/1/2 146/1/2
f 145/6/2 138/6/2 146/6/2
f 132/4/2 139/4/2 147/4/2
f 146/1/2 132/1/2 147/1/2
f 139/5/2 140/5/2 148/5/2
f 147/4/2 139/4/2 148/4/2
f 140/4/2 141/4/2 149/4/2
f 148/5/2 140/5/2 149/5/2
f 142/6/2 143/6/2 150/6/2
f 143/7/2 144/7/2 151/7/2
f 150/6/2 143/6/2 151/6/2
f 144/1/2 136/1/2 152/1/2
f 151/7/2 144/7/2 152/7/2
f 145/7/2 146/7/2 153/7/2
f 152/1/2 136/1/2 153/1/2
f 136/7/2 145/7/2 153/7/2
f 147/1/2 148/1/2 154/1/2
f 153/7/2 146/7/2 154/7/2
f 148/1/2 149/1/2 154/1/2
f 146/1/2 147/1/2 154/1/2
f 154/1/2 149/1/2 155/1/2
f 155/1/2 149/1/2 156/1/2
f 149/4/2 141/4/2 157/4/2
f 156/1/2 149/1/2 157/1/2
f 157/4/2 141/4/2 158/4/2
f 150/7/2 151/7/2 159/7/2
f 151/1/2 152/1/2 160/1/2
f 159/7/2 151/7/2 160/7/2
f 152/1/2 153/1/2 160/1/2
f 153/1/2 154/1/2 160/1/2
f 154/1/2 155/1/2 160/1/2
f 160/1/2 155/1/2 161/1/2
f 161/1/2 155/1/2 162/1/2
f 155/3/2 156/3/2 163/3/2
f 162/1/2 155/1/2 163/1/2
f 156/1/2 157/1/2 164/1/2
f 163/3/2 156/3/2 164/3/2
f 159/1/2 160/1/2 165/1/2
f 160/1/2 161/1/2 165/1/2
f 165/1/2 161/1/2 166/1/2
f 161/3/2 162/3/2 167/3/2
f 166/1/2 161/1/2 167/1/2
f 167/3/2 162/3/2 168/3/2
f 162/1/2 163/1/2 169/1/2
f 168/3/2 162/3/2 169/3/2
f 163/1/2 164/1/2 169/1/2
f 169/1/2 164/1/2 170/1/2
f 170/1/2 164/1/2 171/1/2
f 157/5/2 158/5/2 172/5/2
f 171/1/2 164/1/2 172/1/2
f 164/1/2 157/1/2 172/1/2
f 165/3/2 166/3/2 173/3/2
f 173/3/2 166/3/2 174/3/2
f 166/2/2 167/2/2 175/2/2
f 174/3/2 166/3/2 175/3/2
f 167/3/2 168/3/2 176/3/2
f 175/2/2 167/2/2 176/2/2
f 168/1/2 169/1/2 177/1/2
f 176/3/2 168/3/2 177/3/2
f 169/3/2 170/3/2 178/3/2
f 177/1/2 169/1/2 178/1/2
f 170/1/2 171/1/2 179/1/2
f 171/4/2 172/4/2 179/4/2
f 172/5/2 158/5/2 180/5/2
f 179/4/2 172/4/2 180/4/2
f 180/5/2 158/5/2 181/5/2
f 176/2/2 177/2/2 182/2/2
f 175/3/2 176/3/2 182/3/2
f 177/3/2 178/3/2 183/3/2
f 182/2/2 177/2/2 183/2/2
f 178/3/2 170/3/2 184/3/2
f 183/3/2 178/3/2 184/3/2
f 170/1/2 179/1/2 185/1/2
f 184/3/2 170/3/2 185/3/2
f 179/1/2 180/1/2 185/1/2
f 185/1/2 180/1/2 186/1/2
f 182/3/2 183/3/2 187/3/2
f 183/3/2 184/3/2 187/3/2
f 174/1/2 175/1/2 187/1/2
f 175/3/2 182/3/2 187/3/2
f 184/1/2 185/1/2 188/1/2
f 187/3/2 184/3/2 188/3/2
f 185/3/2 186/3/2 189/3/2
f 188/1/2 185/1/2 189/1/2
f 186/1/2 180/1/2 190/1/2
f 189/3/2 186/3/2 190/3/2
f 180/4/2 181/4/2 191/4/2
f 190/1/2 180/1/2 191/1/2
f 191/4/2 181/4/2 192/4/2
f 173/2/2 174/2/2 193/2/2
f 188/1/2 189/1/2 194/1/2
f 193/2/2 174/2/2 194/2/2
f 187/1/2 188/1/2 194/1/2
f 191/1/2 192/1/2 194/1/2
f 190/1/2 191/1/2 194/1/2
f 174/1/2 187/1/2 194/1/2
f 189/1/2 190/1/2 194/1/2
f 193/3/2 194/3/2 195/3/2
f 194/1/2 192/1/2 196/1/2
f 195/3/2 194/3/2 196/3/2
f 195/1/2 196/1/2 197/1/2
f 196/1/2 192/1/2 198/1/2
f 197/1/2 196/1/2 198/1/2
f 198/1/2 192/1/2 199/1/2
f 199/1/2 192/1/2 200/1/2
f 197/4/2 198/4/2 201/4/2
f 198/1/2 199/1/2 202/1/2
f 201/4/2 198/4/2 202/4/2
f 199/4/2 200/4/2 203/4/2
f 202/1/2 199/1/2 203/1/2
f 203/4/2 200/4/2 204/4/2
f 201/5/2 202/5/2 205/5/2
f 202/1/2 203/1/2 206/1/2
f 205/5/2 202/5/2 206/5/2
f 203/1/2 204/1/2 206/1/2
f 205/4/2 206/4/2 207/4/2
f 206/1/2 204/1/2 208/1/2
f 207/4/2 206/4/2 208/4/2
f 208/1/2 204/1/2 209/1/2
f 220/3/3 211/3/3 210/3/3
f 221/2/3 212/2/3 211/2/3
f 221/3/3 211/3/3 220/3/3
f 222/3/3 213/3/3 212/3/3
f 223/1/3 214/1/3 213/1/3
f 223/3/3 213/3/3 222/3/3
f 224/1/3 214/1/3 223/1/3
f 225/5/3 215/5/3 214/5/3
f 225/4/3 216/4/3 215/4/3
f 226/1/3 217/1/3 216/1/3
f 226/4/3 216/4/3 225/4/3
f 227/3/3 218/3/3 217/3/3
f 227/1/3 217/1/3 226/1/3
f 228/2/3 219/2/3 218/2/3
f 228/3/3 218/3/3 227/3/3
f 229/2/3 219/2/3 228/2/3
f 230/2/3 212/2/3 221/2/3
f 230/2/3 221/2/3 220/2/3
f 231/3/3 222/3/3 212/3/3
f 231/2/3 212/2/3 230/2/3
f 232/1/3 223/1/3 222/1/3
f 232/3/3 222/3/3 231/3/3
f 233/4/3 224/4/3 223/4/3
f 233/1/3 223/1/3 232/1/3
f 234/1/3 214/1/3 224/1/3
f 234/4/3 224/4/3 233/4/3
f 235/5/3 225/5/3 214/5/3
f 235/1/3 214/1/3 234/1/3
f 235/5/3 226/5/3 225/5/3
f 236/5/3 226/5/3 235/5/3
f 237/4/3 227/4/3 226/4/3
f 237/5/3 226/5/3 236/5/3
f 238/1/3 228/1/3 227/1/3
f 238/4/3 227/4/3 237/4/3
f 239/3/3 229/3/3 228/3/3
f 239/1/3 228/1/3 238/1/3
f 240/3/3 229/3/3 239/3/3
f 241/2/3 230/2/3 220/2/3
f 242/3/3 231/3/3 230/3/3
f 242/2/3 230/2/3 241/2/3
f 243/2/3 232/2/3 231/2/3
f 243/3/3 231/3/3 242/3/3
f 244/3/3 233/3/3 232/3/3
f 244/2/3 232/2/3 243/2/3
f 245/1/3 234/1/3 233/1/3
f 245/3/3 233/3/3 244/3/3
f 245/1/3 235/1/3 234/1/3
f 246/1/3 235/1/3 245/1/3
f 247/5/3 237/5/3 236/5/3
f 247/1/3 238/1/3 237/1/3
f 247/1/3 240/1/3 239/1/3
f 247/1/3 239/1/3 238/1/3
f 248/1/3 240/1/3 247/1/3
f 249/1/3 240/1/3 248/1/3
f 250/3/3 229/3/3 240/3/3
f 250/1/3 240/1/3 249/1/3
f 251/3/3 229/3/3 250/3/3
f 252/2/3 241/2/3 220/2/3
f 253/3/3 242/3/3 241/3/3
f 253/2/3 241/2/3 252/2/3
f 254/1/3 243/1/3 242/1/3
f 254/3/3 242/3/3 253/3/3
f 255/3/3 244/3/3 243/3/3
f 255/1/3 243/1/3 254/1/3
f 255/3/3 245/3/3 244/3/3
f 256/3/3 245/3/3 255/3/3
f 257/4/3 246/4/3 245/4/3
f 257/3/3 245/3/3 256/3/3
f 258/1/3 235/1/3 246/1/3
f 258/4/3 246/4/3 257/4/3
f 259/4/3 236/4/3 235/4/3
f 259/1/3 235/1/3 258/1/3
f 260/5/3 247/5/3 236/5/3
f 260/4/3 236/4/3 259/4/3
f 260/5/3 248/5/3 247/5/3
f 261/5/3 248/5/3 260/5/3
f 262/4/3 249/4/3 248/4/3
f 262/5/3 248/5/3 261/5/3
f 263/4/3 249/4/3 262/4/3
f 264/1/3 251/1/3 250/1/3
f 264/1/3 250/1/3 249/1/3
f 265/1/3 251/1/3 264/1/3
f 266/3/3 253/3/3 252/3/3
f 266/3/3 254/3/3 253/3/3
f 267/2/3 255/2/3 254/2/3
f 267/3/3 254/3/3 266/3/3
f 268/3/3 256/3/3 255/3/3
f 268/2/3 255/2/3 267/2/3
f 269/1/3 258/1/3 257/1/3
f 269/3/3 256/3/3 268/3/3
f 269/1/3 257/1/3 256/1/3
f 270/4/3 259/4/3 258/4/3
f 270/1/3 258/1/3 269/1/3
f 271/1/3 260/1/3 259/1/3
f 271/4/3 259/4/3 270/4/3
f 272/4/3 261/4/3 260/4/3
f 272/1/3 260/1/3 271/1/3
f 273/5/3 263/5/3 262/5/3
f 273/4/3 261/4/3 272/4/3
f 273/5/3 262/5/3 261/5/3
f 274/1/3 264/1/3 249/1/3
f 274/4/3 249/4/3 263/4/3
f 275/4/3 265/4/3 264/4/3
f 275/1/3 264/1/3 274/1/3
f 276/1/3 251/1/3 265/1/3
f 276/4/3 265/4/3 275/4/3
f 277/3/3 266/3/3 252/3/3
f 278/2/3 267/2/3 266/2/3
f 278/3/3 266/3/3 277/3/3
f 279/1/3 269/1/3 268/1/3
f 279/4/3 270/4/3 269/4/3
f 280/4/3 270/4/3 279/4/3
f 281/5/3 271/5/3 270/5/3
f 281/4/3 270/4/3 280/4/3
f 281/5/3 273/5/3 272/5/3
f 281/5/3 272/5/3 271/5/3
f 282/5/3 273/5/3 281/5/3
f 283/5/3 273/5/3 282/5/3
f 284/5/3 263/5/3 273/5/3
f 284/5/3 273/5/3 283/5/3
f 285/4/3 275/4/3 274/4/3
f 285/5/3 263/5/3 284/5/3
f 285/4/3 274/4/3 263/4/3
f 286/1/3 276/1/3 275/1/3
f 286/4/3 275/4/3 285/4/3
f 287/1/3 251/1/3 276/1/3
f 287/1/3 276/1/3 286/1/3
f 288/2/3 267/2/3 278/2/3
f 288/2/3 278/2/3 277/2/3
f 289/3/3 268/3/3 267/3/3
f 289/2/3 267/2/3 288/2/3
f 290/1/3 279/1/3 268/1/3
f 290/3/3 268/3/3 289/3/3
f 291/5/3 280/5/3 279/5/3
f 291/1/3 279/1/3 290/1/3
f 292/4/3 281/4/3 280/4/3
f 292/5/3 280/5/3 291/5/3
f 293/1/3 282/1/3 281/1/3
f 293/4/3 281/4/3 292/4/3
f 294/4/3 283/4/3 282/4/3
f 294/1/3 282/1/3 293/1/3
f 295/1/3 284/1/3 283/1/3
f 295/4/3 283/4/3 294/4/3
f 296/4/3 285/4/3 284/4/3
f 297/1/3 286/1/3 285/1/3
f 297/4/3 285/4/3 296/4/3
f 298/1/3 286/1/3 297/1/3
f 299/1/3 286/1/3 298/1/3
f 300/2/3 288/2/3 277/2/3
f 300/3/3 289/3/3 288/3/3
f 301/1/3 290/1/3 289/1/3
f 301/3/3 289/3/3 300/3/3
f 301/1/3 291/1/3 290/1/3
f 302/1/3 291/1/3 301/1/3
f 303/4/3 292/4/3 291/4/3
f 303/1/3 291/1/3 302/1/3
f 304/1/3 293/1/3 292/1/3
f 304/4/3 292/4/3 303/4/3
f 305/7/3 294/7/3 293/7/3
f 305/1/3 293/1/3 304/1/3
f 306/1/3 295/1/3 294/1/3
f 306/7/3 294/7/3 305/7/3
f 307/1/3 284/1/3 295/1/3
f 307/1/3 295/1/3 306/1/3
f 308/1/3 298/1/3 297/1/3
f 308/4/3 296/4/3 284/4/3
f 308/1/3 297/1/3 296/1/3
f 309/1/3 298/1/3 308/1/3
f 310/2/3 300/2/3 277/2/3
f 311/1/3 302/1/3 301/1/3
f 311/2/3 300/2/3 310/2/3
f 311/1/3 301/1/3 300/1/3
f 312/1/3 302/1/3 311/1/3
f 313/7/3 303/7/3 302/7/3
f 313/1/3 302/1/3 312/1/3
f 314/1/3 304/1/3 303/1/3
f 314/7/3 303/7/3 313/7/3
f 314/1/3 306/1/3 305/1/3
f 314/1/3 305/1/3 304/1/3
f 315/1/3 306/1/3 314/1/3
f 316/7/3 307/7/3 306/7/3
f 316/1/3 306/1/3 315/1/3
f 317/1/3 284/1/3 307/1/3
f 317/7/3 307/7/3 316/7/3
f 318/4/3 309/4/3 308/4/3
f 318/1/3 284/1/3 317/1/3
f 318/4/3 308/4/3 284/4/3
f 319/4/3 309/4/3 318/4/3
f 320/4/3 309/4/3 319/4/3
f 321/3/3 311/3/3 310/3/3
f 322/1/3 312/1/3 311/1/3
f 322/3/3 311/3/3 321/3/3
f 323/5/3 313/5/3 312/5/3
f 323/1/3 312/1/3 322/1/3
f 324/1/3 315/1/3 314/1/3
f 324/5/3 313/5/3 323/5/3
f 324/1/3 314/1/3 313/1/3
f 325/1/3 315/1/3 324/1/3
f 326/7/3 316/7/3 315/7/3
f 326/1/3 315/1/3 325/1/3
f 327/1/3 317/1/3 316/1/3
f 327/7/3 316/7/3 326/7/3
f 327/1/3 318/1/3 317/1/3
f 327/1/3 319/1/3 318/1/3
f 328/1/3 319/1/3 327/1/3
f 329/1/3 319/1/3 328/1/3
f 330/5/3 320/5/3 319/5/3
f 330/1/3 319/1/3 329/1/3
f 331/4/3 309/4/3 320/4/3
f 331/5/3 320/5/3 330/5/3
f 332/4/3 309/4/3 331/4/3
f 333/1/3 322/1/3 321/1/3
f 333/5/3 323/5/3 322/5/3
f 334/1/3 324/1/3 323/1/3
f 334/5/3 323/5/3 333/5/3
f 335/7/3 325/7/3 324/7/3
f 335/1/3 326/1/3 325/1/3
f 335/1/3 327/1/3 326/1/3
f 336/1/3 327/1/3 335/1/3
f 337/1/3 327/1/3 336/1/3
f 338/7/3 328/7/3 327/7/3
f 338/1/3 327/1/3 337/1/3
f 339/7/3 330/7/3 329/7/3
f 339/1/3 329/1/3 328/1/3
f 340/4/3 331/4/3 330/4/3
f 340/7/3 330/7/3 339/7/3
f 341/4/3 334/4/3 333/4/3
f 341/1/3 333/1/3 321/1/3
f 342/1/3 324/1/3 334/1/3
f 342/4/3 334/4/3 341/4/3
f 343/7/3 335/7/3 324/7/3
f 343/1/3 324/1/3 342/1/3
f 343/7/3 336/7/3 335/7/3
f 344/6/3 337/6/3 336/6/3
f 344/7/3 336/7/3 343/7/3
f 345/7/3 338/7/3 337/7/3
f 345/6/3 337/6/3 344/6/3
f 346/7/3 328/7/3 338/7/3
f 346/7/3 338/7/3 345/7/3
f 346/1/3 340/1/3 339/1/3
f 346/1/3 339/1/3 328/1/3
f 347/1/3 340/1/3 346/1/3
f 348/4/3 331/4/3 340/4/3
f 348/1/3 340/1/3 347/1/3
f 349/1/3 332/1/3 331/1/3
f 349/4/3 331/4/3 348/4/3
f 350/1/3 341/1/3 321/1/3
f 350/7/3 342/7/3 341/7/3
f 350/7/3 343/7/3 342/7/3
f 351/7/3 343/7/3 350/7/3
f 352/6/3 345/6/3 344/6/3
f 352/6/3 344/6/3 343/6/3
f 352/6/3 346/6/3 345/6/3
f 353/6/3 346/6/3 352/6/3
f 354/6/3 346/6/3 353/6/3
f 355/1/3 347/1/3 346/1/3
f 355/6/3 346/6/3 354/6/3
f 356/7/3 348/7/3 347/7/3
f 356/1/3 347/1/3 355/1/3
f 357/1/3 332/1/3 349/1/3
f 357/1/3 349/1/3 348/1/3
f 358/1/3 332/1/3 357/1/3
f 360/1/3 351/1/3 350/1/3
f 360/1/3 350/1/3 321/1/3
f 361/1/3 351/1/3 360/1/3
f 362/7/3 355/7/3 354/7/3
f 362/1/3 354/1/3 353/1/3
f 362/7/3 356/7/3 355/7/3
f 363/7/3 348/7/3 356/7/3
f 363/7/3 356/7/3 362/7/3
f 364/1/3 357/1/3 348/1/3
f 364/7/3 348/7/3 363/7/3
f 365/4/3 358/4/3 357/4/3
f 365/1/3 359/1/3 358/1/3
f 366/1/3 359/1/3 365/1/3
f 368/7/3 361/7/3 360/7/3
f 369/1/3 351/1/3 361/1/3
f 369/7/3 361/7/3 368/7/3
f 370/7/3 343/7/3 351/7/3
f 370/1/3 351/1/3 369/1/3
f 371/6/3 352/6/3 343/6/3
f 371/7/3 343/7/3 370/7/3
f 372/7/3 353/7/3 352/7/3
f 372/6/3 352/6/3 371/6/3
f 373/1/3 363/1/3 362/1/3
f 373/7/3 353/7/3 372/7/3
f 373/1/3 362/1/3 353/1/3
f 374/1/3 363/1/3 373/1/3
f 375/1/3 363/1/3 374/1/3
f 376/1/3 363/1/3 375/1/3
f 377/6/3 364/6/3 363/6/3
f 377/1/3 363/1/3 376/1/3
f 378/1/3 357/1/3 364/1/3
f 378/6/3 364/6/3 377/6/3
f 379/4/3 366/4/3 365/4/3
f 379/1/3 357/1/3 378/1/3
f 379/4/3 365/4/3 357/4/3
f 380/4/3 366/4/3 379/4/3
f 381/1/3 367/1/3 366/1/3
f 381/4/3 366/4/3 380/4/3
f 382/1/3 367/1/3 381/1/3
f 383/6/3 369/6/3 368/6/3
f 383/7/3 370/7/3 369/7/3
f 384/6/3 371/6/3 370/6/3
f 384/7/3 370/7/3 383/7/3
f 385/7/3 372/7/3 371/7/3
f 385/6/3 371/6/3 384/6/3
f 386/3/3 375/3/3 374/3/3
f 386/1/3 373/1/3 372/1/3
f 386/1/3 374/1/3 373/1/3
f 387/4/3 376/4/3 375/4/3
f 387/3/3 375/3/3 386/3/3
f 388/1/3 377/1/3 376/1/3
f 388/4/3 376/4/3 387/4/3
f 389/7/3 378/7/3 377/7/3
f 389/1/3 377/1/3 388/1/3
f 389/7/3 379/7/3 378/7/3
f 390/7/3 379/7/3 389/7/3
f 391/1/3 380/1/3 379/1/3
f 391/7/3 379/7/3 390/7/3
f 392/5/3 381/5/3 380/5/3
f 392/1/3 380/1/3 391/1/3
f 393/4/3 382/4/3 381/4/3
f 393/5/3 381/5/3 392/5/3
f 394/1/3 367/1/3 382/1/3
f 394/4/3 382/4/3 393/4/3
f 395/1/3 367/1/3 394/1/3
f 396/6/3 384/6/3 383/6/3
f 396/6/3 383/6/3 368/6/3
f 397/7/3 385/7/3 384/7/3
f 397/6/3 384/6/3 396/6/3
f 398/7/3 372/7/3 385/7/3
f 398/7/3 385/7/3 397/7/3
f 399/2/3 387/2/3 386/2/3
f 399/1/3 386/1/3 372/1/3
f 400/1/3 388/1/3 387/1/3
f 400/2/3 387/2/3 399/2/3
f 400/1/3 389/1/3 388/1/3
f 401/1/3 389/1/3 400/1/3
f 402/3/3 390/3/3 389/3/3
f 402/1/3 389/1/3 401/1/3
f 403/7/3 392/7/3 391/7/3
f 403/3/3 390/3/3 402/3/3
f 403/7/3 391/7/3 390/7/3
f 404/1/3 393/1/3 392/1/3
f 404/7/3 392/7/3 403/7/3
f 405/5/3 394/5/3 393/5/3
f 405/1/3 393/1/3 404/1/3
f 406/4/3 395/4/3 394/4/3
f 406/5/3 394/5/3 405/5/3
f 407/4/3 395/4/3 406/4/3
f 408/7/3 397/7/3 396/7/3
f 408/6/3 396/6/3 368/6/3
f 409/1/3 398/1/3 397/1/3
f 409/7/3 397/7/3 408/7/3
f 410/7/3 372/7/3 398/7/3
f 410/1/3 398/1/3 409/1/3
f 411/1/3 399/1/3 372/1/3
f 411/7/3 372/7/3 410/7/3
f 411/1/3 401/1/3 400/1/3
f 411/1/3 400/1/3 399/1/3
f 412/1/3 401/1/3 411/1/3
f 413/1/3 401/1/3 412/1/3
f 414/1/3 401/1/3 413/1/3
f 415/3/3 403/3/3 402/3/3
f 415/1/3 401/1/3 414/1/3
f 415/3/3 402/3/3 401/3/3
f 416/3/3 403/3/3 415/3/3
f 417/1/3 404/1/3 403/1/3
f 417/3/3 403/3/3 416/3/3
f 418/1/3 404/1/3 417/1/3
f 419/7/3 405/7/3 404/7/3
f 419/1/3 404/1/3 418/1/3
f 420/1/3 406/1/3 405/1/3
f 420/7/3 405/7/3 419/7/3
f 421/5/3 407/5/3 406/5/3
f 421/1/3 406/1/3 420/1/3
f 422/6/3 409/6/3 408/6/3
f 422/6/3 408/6/3 368/6/3
f 423/7/3 410/7/3 409/7/3
f 423/6/3 409/6/3 422/6/3
f 424/1/3 411/1/3 410/1/3
f 424/7/3 410/7/3 423/7/3
f 424/1/3 412/1/3 411/1/3
f 425/1/3 412/1/3 424/1/3
f 426/7/3 413/7/3 412/7/3
f 426/1/3 412/1/3 425/1/3
f 427/1/3 414/1/3 413/1/3
f 427/7/3 413/7/3 426/7/3
f 428/3/3 415/3/3 414/3/3
f 428/1/3 414/1/3 427/1/3
f 429/2/3 416/2/3 415/2/3
f 429/3/3 415/3/3 428/3/3
f 430/3/3 418/3/3 417/3/3
f 430/2/3 416/2/3 429/2/3
f 430/3/3 417/3/3 416/3/3
f 431/3/3 418/3/3 430/3/3
f 432/1/3 419/1/3 418/1/3
f 432/1/3 420/1/3 419/1/3
f 433/4/3 421/4/3 420/4/3
f 433/1/3 420/1/3 432/1/3
f 434/5/3 407/5/3 421/5/3
f 434/4/3 421/4/3 433/4/3
f 435/5/3 407/5/3 434/5/3
f 436/7/3 423/7/3 422/7/3
f 437/1/3 424/1/3 423/1/3
f 437/7/3 423/7/3 436/7/3
f 438/6/3 425/6/3 424/6/3
f 438/1/3 424/1/3 437/1/3
f 439/7/3 426/7/3 425/7/3
f 439/6/3 425/6/3 438/6/3
f 440/1/3 427/1/3 426/1/3
f 440/7/3 426/7/3 439/7/3
f 441/3/3 428/3/3 427/3/3
f 441/1/3 427/1/3 440/1/3
f 442/2/3 429/2/3 428/2/3
f 442/3/3 428/3/3 441/3/3
f 442/2/3 431/2/3 430/2/3
f 442/2/3 430/2/3 429/2/3
f 443/3/3 418/3/3 431/3/3
f 443/2/3 431/2/3 442/2/3
f 444/1/3 432/1/3 418/1/3
f 444/3/3 418/3/3 443/3/3
f 445/4/3 433/4/3 432/4/3
f 445/1/3 432/1/3 444/1/3
f 446/5/3 434/5/3 433/5/3
f 446/4/3 433/4/3 445/4/3
f 447/4/3 435/4/3 434/4/3
f 447/5/3 434/5/3 446/5/3
f 448/4/3 435/4/3 447/4/3
f 453/1/3 450/1/3 449/1/3
f 454/7/3 451/7/3 450/7/3
f 454/1/3 450/1/3 453/1/3
f 455/7/3 451/7/3 454/7/3
f 456/7/3 454/7/3 453/7/3
f 456/1/3 455/1/3 454/1/3
f 457/1/3 455/1/3 456/1/3
f 458/6/3 453/6/3 452/6/3
f 459/7/3 456/7/3 453/7/3
f 459/6/3 453/6/3 458/6/3
f 459/7/3 457/7/3 456/7/3
f 460/7/3 457/7/3 459/7/3
f 461/7/3 457/7/3 460/7/3
f 462/7/3 459/7/3 458/7/3
f 463/6/3 460/6/3 459/6/3
f 463/7/3 459/7/3 462/7/3
f 464/1/3 461/1/3 460/1/3
f 464/6/3 460/6/3 463/6/3
f 465/1/3 463/1/3 462/1/3
f 466/7/3 464/7/3 463/7/3
f 466/1/3 463/1/3 465/1/3
f 467/1/3 461/1/3 464/1/3
f 467/7/3 464/7/3 466/7/3
f 468/1/3 461/1/3 467/1/3
f 469/6/3 467/6/3 466/6/3
f 469/7/3 468/7/3 467/7/3
f 470/7/3 468/7/3 469/7/3
f 471/7/3 466/7/3 465/7/3
f 472/6/3 469/6/3 466/6/3
f 472/7/3 466/7/3 471/7/3
f 472/6/3 470/6/3 469/6/3
f 473/6/3 470/6/3 472/6/3
f 474/6/3 470/6/3 473/6/3
f 475/6/3 473/6/3 472/6/3
f 476/7/3 474/7/3 473/7/3
f 476/6/3 473/6/3 475/6/3
f 477/7/3 474/7/3 476/7/3
f 478/1/4 479/1/4 486/1/4
f 479/4/4 480/4/4 486/4/4
f 480/1/4 481/1/4 487/1/4
f 486/4/4 480/4/4 487/4/4
f 481/7/4 482/7/4 488/7/4
f 482/1/4 483/1/4 488/1/4
f 483/7/4 484/7/4 489/7/4
f 488/1/4 483/1/4 489/1/4
f 489/7/4 484/7/4 490/7/4
f 484/6/4 485/6/4 491/6/4
f 490/7/4 484/7/4 491/7/4
f 491/6/4 485/6/4 492/6/4
f 492/6/4 485/6/4 493/6/4
f 489/7/4 490/7/4 494/7/4
f 481/7/4 488/7/4 494/7/4
f 487/1/4 481/1/4 494/1/4
f 486/1/4 487/1/4 494/1/4
f 488/7/4 489/7/4 494/7/4
f 494/7/4 490/7/4 495/7/4
f 495/7/4 490/7/4 496/7/4
f 491/6/4 492/6/4 497/6/4
f 496/7/4 490/7/4 497/7/4
f 490/6/4 491/6/4 497/6/4
f 492/7/4 493/7/4 498/7/4
f 497/6/4 492/6/4 498/6/4
f 493/6/4 485/6/4 499/6/4
f 498/7/4 493/7/4 499/7/4
f 478/1/4 486/1/4 500/1/4
f 494/1/4 495/1/4 500/1/4
f 486/1/4 494/1/4 500/1/4
f 500/1/4 495/1/4 501/1/4
f 501/1/4 495/1/4 502/1/4
f 502/1/4 495/1/4 503/1/4
f 495/7/4 496/7/4 504/7/4
f 503/1/4 495/1/4 504/1/4
f 496/6/4 497/6/4 505/6/4
f 504/7/4 496/7/4 505/7/4
f 497/7/4 498/7/4 506/7/4
f 505/6/4 497/6/4 506/6/4
f 506/7/4 498/7/4 507/7/4
f 507/7/4 498/7/4 508/7/4
f 498/6/4 499/6/4 509/6/4
f 508/7/4 498/7/4 509/7/4
f 499/6/4 485/6/4 510/6/4
f 509/6/4 499/6/4 510/6/4
f 478/1/4 500/1/4 511/1/4
f 500/4/4 501/4/4 511/4/4
f 501/1/4 502/1/4 512/1/4
f 511/4/4 501/4/4 512/4/4
f 502/7/4 503/7/4 513/7/4
f 512/1/4 502/1/4 513/1/4
f 504/1/4 505/1/4 514/1/4
f 513/7/4 503/7/4 514/7/4
f 503/1/4 504/1/4 514/1/4
f 505/7/4 506/7/4 515/7/4
f 514/1/4 505/1/4 515/1/4
f 506/1/4 507/1/4 516/1/4
f 515/7/4 506/7/4 516/7/4
f 507/6/4 508/6/4 517/6/4
f 516/1/4 507/1/4 517/1/4
f 508/7/4 509/7/4 518/7/4
f 517/6/4 508/6/4 518/6/4
f 509/7/4 510/7/4 518/7/4
f 518/7/4 510/7/4 519/7/4
f 510/6/4 485/6/4 520/6/4
f 519/7/4 510/7/4 520/7/4
f 520/6/4 485/6/4 521/6/4
f 521/6/4 485/6/4 522/6/4
f 511/5/4 512/5/4 523/5/4
f 478/1/4 511/1/4 523/1/4
f 512/1/4 513/1/4 524/1/4
f 523/5/4 512/5/4 524/5/4
f 514/1/4 515/1/4 524/1/4
f 513/1/4 514/1/4 524/1/4
f 524/1/4 515/1/4 525/1/4
f 525/1/4 515/1/4 526/1/4
f 515/6/4 516/6/4 527/6/4
f 526/1/4 515/1/4 527/1/4
f 516/7/4 517/7/4 528/7/4
f 527/6/4 516/6/4 528/6/4
f 518/7/4 519/7/4 528/7/4
f 517/7/4 518/7/4 528/7/4
f 528/7/4 519/7/4 529/7/4
f 519/1/4 520/1/4 530/1/4
f 529/7/4 519/7/4 530/7/4
f 520/6/4 521/6/4 531/6/4
f 530/1/4 520/1/4 531/1/4
f 521/7/4 522/7/4 532/7/4
f 531/6/4 521/6/4 532/6/4
f 478/1/4 523/1/4 533/1/4
f 524/1/4 525/1/4 533/1/4
f 523/1/4 524/1/4 533/1/4
f 533/1/4 525/1/4 534/1/4
f 534/1/4 525/1/4 535/1/4
f 535/1/4 525/1/4 536/1/4
f 525/7/4 526/7/4 537/7/4
f 536/1/4 525/1/4 537/1/4
f 526/6/4 527/6/4 538/6/4
f 537/7/4 526/7/4 538/7/4
f 528/1/4 529/1/4 539/1/4
f 538/6/4 527/6/4 539/6/4
f 527/1/4 528/1/4 539/1/4
f 539/1/4 529/1/4 540/1/4
f 529/7/4 530/7/4 541/7/4
f 540/1/4 529/1/4 541/1/4
f 531/7/4 532/7/4 541/7/4
f 530/7/4 531/7/4 541/7/4
f 541/7/4 532/7/4 542/7/4
f 532/7/4 522/7/4 543/7/4
f 542/7/4 532/7/4 543/7/4
f 535/4/4 536/4/4 544/4/4
f 534/1/4 535/1/4 544/1/4
f 539/1/4 540/1/4 545/1/4
f 544/4/4 536/4/4 545/4/4
f 536/1/4 537/1/4 545/1/4
f 538/1/4 539/1/4 545/1/4
f 537/1/4 538/1/4 545/1/4
f 545/1/4 540/1/4 546/1/4
f 546/1/4 540/1/4 547/1/4
f 540/7/4 541/7/4 548/7/4
f 547/1/4 540/1/4 548/1/4
f 541/6/4 542/6/4 549/6/4
f 548/7/4 541/7/4 549/7/4
f 549/6/4 542/6/4 550/6/4
f 542/1/4 543/1/4 551/1/4
f 550/6/4 542/6/4 551/6/4
f 543/7/4 522/7/4 552/7/4
f 551/1/4 543/1/4 552/1/4
f 552/7/4 522/7/4 553/7/4
f 534/1/4 544/1/4 554/1/4
f 533/4/4 534/4/4 554/4/4
f 544/1/4 545/1/4 554/1/4
f 545/1/4 546/1/4 554/1/4
f 554/1/4 546/1/4 555/1/4
f 555/1/4 546/1/4 556/1/4
f 556/1/4 546/1/4 557/1/4
f 546/7/4 547/7/4 558/7/4
f 557/1/4 546/1/4 558/1/4
f 547/1/4 548/1/4 559/1/4
f 558/7/4 547/7/4 559/7/4
f 548/1/4 549/1/4 559/1/4
f 559/1/4 549/1/4 560/1/4
f 549/7/4 550/7/4 561/7/4
f 560/1/4 549/1/4 561/1/4
f 552/1/4 553/1/4 562/1/4
f 551/7/4 552/7/4 562/7/4
f 562/1/4 553/1/4 563/1/4
f 533/4/4 554/4/4 564/4/4
f 554/4/4 555/4/4 564/4/4
f 555/1/4 556/1/4 565/1/4
f 564/4/4 555/4/4 565/4/4
f 565/1/4 556/1/4 566/1/4
f 556/4/4 557/4/4 567/4/4
f 566/1/4 556/1/4 567/1/4
f 557/1/4 558/1/4 568/1/4
f 567/4/4 557/4/4 568/4/4
f 559/1/4 560/1/4 568/1/4
f 558/1/4 559/1/4 568/1/4
f 560/7/4 561/7/4 569/7/4
f 568/1/4 560/1/4 569/1/4
f 561/7/4 550/7/4 570/7/4
f 569/7/4 561/7/4 570/7/4
f 550/6/4 551/6/4 571/6/4
f 570/7/4 550/7/4 571/7/4
f 562/7/4 563/7/4 572/7/4
f 571/6/4 551/6/4 572/6/4
f 551/7/4 562/7/4 572/7/4
f 572/7/4 563/7/4 573/7/4
f 573/7/4 563/7/4 574/7/4
f 566/4/4 567/4/4 575/4/4
f 565/5/4 566/5/4 575/5/4
f 564/5/4 565/5/4 575/5/4
f 569/1/4 570/1/4 576/1/4
f 575/4/4 567/4/4 576/4/4
f 568/1/4 569/1/4 576/1/4
f 567/1/4 568/1/4 576/1/4
f 576/1/4 570/1/4 577/1/4
f 577/1/4 570/1/4 578/1/4
f 578/1/4 570/1/4 579/1/4
f 579/1/4 570/1/4 580/1/4
f 571/7/4 572/7/4 581/7/4
f 580/1/4 570/1/4 581/1/4
f 570/7/4 571/7/4 581/7/4
f 572/6/4 573/6/4 582/6/4
f 581/7/4 572/7/4 582/7/4
f 573/1/4 574/1/4 583/1/4
f 582/6/4 573/6/4 583/6/4
f 533/4/4 564/4/4 584/4/4
f 564/5/4 575/5/4 585/5/4
f 584/4/4 564/4/4 585/4/4
f 575/5/4 576/5/4 585/5/4
f 585/5/4 576/5/4 586/5/4
f 576/4/4 577/4/4 587/4/4
f 577/1/4 578/1/4 587/1/4
f 578/5/4 579/5/4 588/5/4
f 587/1/4 578/1/4 588/1/4
f 579/4/4 580/4/4 589/4/4
f 588/5/4 579/5/4 589/5/4
f 581/1/4 582/1/4 590/1/4
f 589/4/4 580/4/4 590/4/4
f 580/1/4 581/1/4 590/1/4
f 590/1/4 582/1/4 591/1/4
f 582/7/4 583/7/4 592/7/4
f 591/1/4 582/1/4 592/1/4
f 583/1/4 574/1/4 593/1/4
f 592/7/4 583/7/4 593/7/4
f 593/1/4 574/1/4 594/1/4
f 584/1/4 585/1/4 595/1/4
f 585/4/4 586/4/4 596/4/4
f 595/1/4 585/1/4 596/1/4
f 596/4/4 586/4/4 597/4/4
f 586/5/4 576/5/4 598/5/4
f 597/4/4 586/4/4 598/4/4
f 598/5/4 576/5/4 599/5/4
f 588/1/4 589/1/4 600/1/4
f 590/1/4 591/1/4 600/1/4
f 589/1/4 590/1/4 600/1/4
f 600/1/4 591/1/4 601/1/4
f 591/7/4 592/7/4 602/7/4
f 601/1/4 591/1/4 602/1/4
f 602/7/4 592/7/4 603/7/4
f 592/6/4 593/6/4 604/6/4
f 593/7/4 594/7/4 604/7/4
f 604/7/4 594/7/4 605/7/4
f 595/4/4 596/4/4 606/4/4
f 596/1/4 597/1/4 607/1/4
f 606/4/4 596/4/4 607/4/4
f 598/4/4 599/4/4 608/4/4
f 607/1/4 597/1/4 608/1/4
f 597/4/4 598/4/4 608/4/4
f 608/4/4 599/4/4 609/4/4
f 599/5/4 576/5/4 610/5/4
f 587/4/4 588/4/4 610/4/4
f 576/4/4 587/4/4 610/4/4
f 610/4/4 588/4/4 611/4/4
f 588/1/4 600/1/4 612/1/4
f 611/4/4 588/4/4 612/4/4
f 600/4/4 601/4/4 613/4/4
f 612/1/4 600/1/4 613/1/4
f 602/1/4 603/1/4 614/1/4
f 613/4/4 601/4/4 614/4/4
f 601/1/4 602/1/4 614/1/4
f 604/6/4 605/6/4 615/6/4
f 592/6/4 604/6/4 615/6/4
f 615/6/4 605/6/4 616/6/4
f 608/1/4 609/1/4 617/1/4
f 607/1/4 608/1/4 617/1/4
f 606/1/4 607/1/4 617/1/4
f 609/4/4 599/4/4 618/4/4
f 617/1/4 609/1/4 618/1/4
f 611/1/4 612/1/4 619/1/4
f 612/1/4 613/1/4 619/1/4
f 610/5/4 611/5/4 619/5/4
f 613/1/4 614/1/4 619/1/4
f 614/1/4 603/1/4 620/1/4
f 619/1/4 614/1/4 620/1/4
f 603/7/4 592/7/4 621/7/4
f 620/1/4 603/1/4 621/1/4
f 592/6/4 615/6/4 622/6/4
f 621/7/4 592/7/4 622/7/4
f 615/7/4 616/7/4 623/7/4
f 622/6/4 615/6/4 623/6/4
f 623/7/4 616/7/4 624/7/4
f 606/1/4 617/1/4 625/1/4
f 617/4/4 618/4/4 625/4/4
f 618/4/4 599/4/4 626/4/4
f 625/4/4 618/4/4 626/4/4
f 619/4/4 620/4/4 627/4/4
f 621/1/4 622/1/4 628/1/4
f 627/4/4 620/4/4 628/4/4
f 620/1/4 621/1/4 628/1/4
f 628/1/4 622/1/4 629/1/4
f 622/7/4 623/7/4 630/7/4
f 629/1/4 622/1/4 630/1/4
f 623/1/4 624/1/4 631/1/4
f 630/7/4 623/7/4 631/7/4
f 606/1/4 625/1/4 632/1/4
f 625/1/4 626/1/4 632/1/4
f 626/4/4 599/4/4 633/4/4
f 632/1/4 626/1/4 633/1/4
f 610/5/4 619/5/4 634/5/4
f 599/5/4 610/5/4 634/5/4
f 619/4/4 627/4/4 635/4/4
f 634/5/4 619/5/4 635/5/4
f 627/5/4 628/5/4 636/5/4
f 635/4/4 627/4/4 636/4/4
f 636/5/4 628/5/4 637/5/4
f 628/4/4 629/4/4 638/4/4
f 637/5/4 628/5/4 638/5/4
f 638/4/4 629/4/4 639/4/4
f 630/1/4 631/1/4 640/1/4
f 639/4/4 629/4/4 640/4/4
f 629/1/4 630/1/4 640/1/4
f 640/1/4 631/1/4 641/1/4
f 633/4/4 599/4/4 642/4/4
f 632/4/4 633/4/4 642/4/4
f 599/5/4 634/5/4 643/5/4
f 642/4/4 599/4/4 643/4/4
f 634/4/4 635/4/4 644/4/4
f 643/5/4 634/5/4 644/5/4
f 635/4/4 636/4/4 644/4/4
f 636/1/4 637/1/4 645/1/4
f 644/4/4 636/4/4 645/4/4
f 637/4/4 638/4/4 646/4/4
f 645/1/4 637/1/4 646/1/4
f 638/1/4 639/1/4 647/1/4
f 646/4/4 638/4/4 647/4/4
f 639/4/4 640/4/4 648/4/4
f 647/1/4 639/1/4 648/1/4
f 640/5/4 641/5/4 649/5/4
f 648/4/4 640/4/4 649/4/4
f 641/1/4 631/1/4 650/1/4
f 649/5/4 641/5/4 650/5/4
f 632/4/4 642/4/4 651/4/4
f 644/5/4 645/5/4 651/5/4
f 643/5/4 644/5/4 651/5/4
f 642/5/4 643/5/4 651/5/4
f 651/5/4 645/5/4 652/5/4
f 645/4/4 646/4/4 653/4/4
f 652/5/4 645/5/4 653/5/4
f 646/5/4 647/5/4 654/5/4
f 653/4/4 646/4/4 654/4/4
f 648/1/4 649/1/4 655/1/4
f 654/5/4 647/5/4 655/5/4
f 647/1/4 648/1/4 655/1/4
f 649/4/4 650/4/4 656/4/4
f 655/1/4 649/1/4 656/1/4
f 650/1/4 631/1/4 657/1/4
f 656/4/4 650/4/4 657/4/4
f 657/1/4 631/1/4 658/1/4
f 631/1/4 624/1/4 659/1/4
f 658/1/4 631/1/4 659/1/4
f 653/5/4 654/5/4 660/5/4
f 652/5/4 653/5/4 660/5/4
f 655/4/4 656/4/4 661/4/4
f 660/5/4 654/5/4 661/5/4
f 654/4/4 655/4/4 661/4/4
f 661/4/4 656/4/4 662/4/4
f 657/1/4 658/1/4 663/1/4
f 662/4/4 656/4/4 663/4/4
f 656/1/4 657/1/4 663/1/4
f 663/1/4 658/1/4 664/1/4
f 658/4/4 659/4/4 665/4/4
f 664/1/4 658/1/4 665/1/4
f 659/1/4 624/1/4 666/1/4
f 665/4/4 659/4/4 666/4/4
f 606/1/4 632/1/4 667/1/4
f 651/4/4 652/4/4 668/4/4
f 667/1/4 632/1/4 668/1/4
f 632/4/4 651/4/4 668/4/4
f 652/5/4 660/5/4 669/5/4
f 668/4/4 652/4/4 669/4/4
f 661/4/4 662/4/4 670/4/4
f 669/5/4 660/5/4 670/5/4
f 660/4/4 661/4/4 670/4/4
f 662/1/4 663/1/4 671/1/4
f 670/4/4 662/4/4 671/4/4
f 663/1/4 664/1/4 671/1/4
f 664/4/4 665/4/4 672/4/4
f 671/1/4 664/1/4 672/1/4
f 665/1/4 666/1/4 673/1/4
f 672/4/4 665/4/4 673/4/4
f 666/1/4 624/1/4 674/1/4
f 673/1/4 666/1/4 674/1/4
f 685/3/5 676/3/5 675/3/5
f 686/2/5 677/2/5 676/2/5
f 686/3/5 676/3/5 685/3/5
f 687/3/5 678/3/5 677/3/5
f 687/2/5 677/2/5 686/2/5
f 688/2/5 679/2/5 678/2/5
f 688/3/5 678/3/5 687/3/5
f 689/3/5 680/3/5 679/3/5
f 689/2/5 679/2/5 688/2/5
f 690/1/5 681/1/5 680/1/5
f 690/3/5 680/3/5 689/3/5
f 691/7/5 682/7/5 681/7/5
f 691/1/5 681/1/5 690/1/5
f 692/6/5 683/6/5 682/6/5
f 692/7/5 682/7/5 691/7/5
f 693/7/5 684/7/5 683/7/5
f 693/6/5 683/6/5 692/6/5
f 694/7/5 684/7/5 693/7/5
f 695/1/5 692/1/5 691/1/5
f 695/1/5 686/1/5 685/1/5
f 695/1/5 687/1/5 686/1/5
f 695/1/5 693/1/5 692/1/5
f 695/1/5 691/1/5 690/1/5
f 695/1/5 690/1/5 689/1/5
f 695/1/5 689/1/5 688/1/5
f 695/1/5 688/1/5 687/1/5
f 696/1/5 693/1/5 695/1/5
f 697/3/5 696/3/5 695/3/5
f 698/1/5 693/1/5 696/1/5
f 698/3/5 696/3/5 697/3/5
f 699/6/5 694/6/5 693/6/5
f 699/1/5 693/1/5 698/1/5
f 700/6/5 694/6/5 699/6/5
f 701/1/5 699/1/5 698/1/5
f 701/7/5 700/7/5 699/7/5
f 702/7/5 700/7/5 701/7/5
f 703/2/5 698/2/5 697/2/5
f 704/1/5 701/1/5 698/1/5
f 704/2/5 698/2/5 703/2/5
f 704/1/5 702/1/5 701/1/5
f 705/1/5 702/1/5 704/1/5
f 706/1/5 702/1/5 705/1/5
f 707/3/5 704/3/5 703/3/5
f 708/1/5 705/1/5 704/1/5
f 708/3/5 704/3/5 707/3/5
f 709/7/5 706/7/5 705/7/5
f 709/1/5 705/1/5 708/1/5
f 710/7/5 706/7/5 709/7/5
f 711/1/5 708/1/5 707/1/5
f 711/1/5 709/1/5 708/1/5
f 711/1/5 710/1/5 709/1/5
f 712/1/5 710/1/5 711/1/5
f 713/1/5 710/1/5 712/1/5
f 714/1/5 710/1/5 713/1/5
f 715/1/5 711/1/5 707/1/5
f 716/4/5 712/4/5 711/4/5
f 716/1/5 711/1/5 715/1/5
f 717/1/5 713/1/5 712/1/5
f 717/4/5 712/4/5 716/4/5
f 718/4/5 714/4/5 713/4/5
f 718/1/5 713/1/5 717/1/5
f 719/1/5 710/1/5 714/1/5
f 719/4/5 714/4/5 718/4/5
f 720/1/5 710/1/5 719/1/5
f 721/1/6 722/1/6 725/1/6
f 722/4/6 723/4/6 725/4/6
f 723/1/6 724/1/6 726/1/6
f 725/4/6 723/4/6 726/4/6
f 721/1/6 725/1/6 727/1/6
f 725/1/6 726/1/6 727/1/6
f 727/1/6 726/1/6 728/1/6
f 726/1/6 724/1/6 729/1/6
f 728/1/6 726/1/6 729/1/6
f 729/1/6 724/1/6 730/1/6
f 730/1/6 724/1/6 731/1/6
f 732/1/6 733/1/6 736/1/6
f 736/1/6 733/1/6 737/1/6
f 734/1/6 735/1/6 738/1/6
f 738/1/6 735/1/6 739/1/6
f 740/2/6 741/2/6 749/2/6
f 741/3/6 742/3/6 749/3/6
f 742/1/6 743/1/6 750/1/6
f 749/3/6 742/3/6 750/3/6
f 746/5/6 747/5/6 751/5/6
f 745/4/6 746/4/6 751/4/6
f 747/4/6 748/4/6 752/4/6
f 751/5/6 747/5/6 752/5/6
f 752/4/6 748/4/6 753/4/6
f 740/2/6 749/2/6 754/2/6
f 749/1/6 750/1/6 755/1/6
f 754/2/6 749/2/6 755/2/6
f 754/3/6 755/3/6 756/3/6
f 755/1/6 750/1/6 757/1/6
f 756/3/6 755/3/6 757/3/6
f 757/1/6 750/1/6 758/1/6
f 751/4/6 752/4/6 759/4/6
f 752/1/6 753/1/6 760/1/6
f 759/4/6 752/4/6 760/4/6
f 756/2/6 757/2/6 761/2/6
f 757/3/6 758/3/6 761/3/6
f 758/1/6 750/1/6 762/1/6
f 761/3/6 758/3/6 762/3/6
f 750/1/6 743/1/6 763/1/6
f 762/1/6 750/1/6 763/1/6
f 756/2/6 761/2/6 764/2/6
f 761/1/6 762/1/6 765/1/6
f 764/2/6 761/2/6 765/2/6
f 762/3/6 763/3/6 766/3/6
f 765/1/6 762/1/6 766/1/6
f 763/1/6 743/1/6 767/1/6
f 766/3/6 763/3/6 767/3/6
f 745/4/6 751/4/6 768/4/6
f 744/1/6 745/1/6 768/1/6
f 751/4/6 759/4/6 768/4/6
f 759/1/6 760/1/6 769/1/6
f 768/4/6 759/4/6 769/4/6
f 765/3/6 766/3/6 770/3/6
f 764/3/6 765/3/6 770/3/6
f 770/3/6 766/3/6 771/3/6
f 766/1/6 767/1/6 772/1/6
f 771/3/6 766/3/6 772/3/6
f 767/1/6 743/1/6 773/1/6
f 772/1/6 767/1/6 773/1/6
f 771/3/6 772/3/6 774/3/6
f 770/1/6 771/1/6 774/1/6
f 772/3/6 773/3/6 774/3/6
f 773/1/6 743/1/6 775/1/6
f 774/3/6 773/3/6 775/3/6
f 770/1/6 774/1/6 776/1/6
f 774/1/6 775/1/6 776/1/6
f 776/1/6 775/1/6 777/1/6
f 776/6/6 777/6/6 778/6/6
f 777/1/6 775/1/6 778/1/6
f 775/1/6 743/1/6 779/1/6
f 778/1/6 775/1/6 779/1/6
f 779/1/6 743/1/6 780/1/6
f 768/1/6 769/1/6 787/1/6
f 744/1/6 768/1/6 787/1/6
f 776/6/6 778/6/6 788/6/6
f 778/6/6 779/6/6 788/6/6
f 779/7/6 780/7/6 789/7/6
f 788/6/6 779/6/6 789/6/6
f 780/7/6 781/7/6 789/7/6
f 781/1/6 782/1/6 790/1/6
f 789/7/6 781/7/6 790/7/6
f 782/7/6 783/7/6 791/7/6
f 790/1/6 782/1/6 791/1/6
f 783/1/6 784/1/6 792/1/6
f 791/7/6 783/7/6 792/7/6
f 784/7/6 785/7/6 793/7/6
f 792/1/6 784/1/6 793/1/6
f 785/6/6 786/6/6 794/6/6
f 793/7/6 785/7/6 794/7/6
f 786/7/6 787/7/6 795/7/6
f 794/6/6 786/6/6 795/6/6
f 787/1/6 769/1/6 796/1/6
f 795/7/6 787/7/6 796/7/6
f 769/1/6 760/1/6 797/1/6
f 796/1/6 769/1/6 797/1/6
f 760/1/6 753/1/6 797/1/6
