# MagicaVoxel @ Ephtracy

# group
o 

# material
mtllib model-0.mtl
usemtl palette

# normals
vn 0 0 1
vn 0 0 -1
vn 1 0 0
vn -1 0 0
vn 0 -1 0
vn 0 1 0

# texcoords
vt 0.185547 0.5
vt 0.271484 0.5
vt 0.275391 0.5
vt 0.458984 0.5
vt 0.525391 0.5
vt 0.607422 0.5
vt 0.611328 0.5

# verts
v 0.3 1.4 1.7
v 0.2 1.4 1.7
v -0.3 1.4 1.7
v 0.3 1.5 1.7
v 0.2 1.5 1.7
v 0.2 1.6 1.7
v 0 1.6 1.7
v 0.2 1.7 1.7
v 0 1.7 1.7
v 0.3 1.8 1.7
v 0.2 1.8 1.7
v 0.3 2 1.7
v -0.3 2 1.7
v 0.3 1.4 0.9
v 0 1.4 0.9
v -0.2 1.4 0.9
v -0.3 1.4 0.9
v 0 1.5 0.9
v -0.2 1.5 0.9
v 0.3 1.7 0.9
v 0.2 1.7 0.9
v 0.3 1.9 0.9
v 0.2 1.9 0.9
v 0 1.9 0.9
v -0.2 1.9 0.9
v 0.3 2 0.9
v 0 2 0.9
v -0.2 2 0.9
v -0.3 2 0.9
v 0.3 1.4 1.7
v 0.3 1.5 1.7
v 0.3 1.8 1.7
v 0.3 2 1.7
v 0.3 1.4 1.6
v 0.3 1.5 1.6
v 0.3 1.6 1.6
v 0.3 1.7 1.6
v 0.3 1.8 1.6
v 0.3 1.4 1.5
v 0.3 1.5 1.5
v 0.3 1.6 1.5
v 0.3 1.7 1.5
v 0.3 1.8 1.5
v 0.3 1.4 1.4
v 0.3 1.5 1.4
v 0.3 1.6 1.4
v 0.3 1.7 1.4
v 0.3 1.9 1.4
v 0.3 2 1.4
v 0.3 1.4 1.3
v 0.3 1.5 1.3
v 0.3 1.4 1.2
v 0.3 1.6 1.2
v 0.3 1.7 1.2
v 0.3 1.9 1.2
v 0.3 2 1.2
v 0.3 1.8 1.1
v 0.3 1.9 1.1
v 0.3 1.8 1
v 0.3 1.9 1
v 0.3 2 1
v 0.3 1.4 0.9
v 0.3 1.7 0.9
v 0.3 1.9 0.9
v 0.3 2 0.9
v -0.3 1.4 1.7
v -0.3 2 1.7
v -0.3 1.4 1.4
v -0.3 1.7 1.4
v -0.3 1.4 1.3
v -0.3 1.6 1.3
v -0.3 1.7 1.3
v -0.3 1.9 1.3
v -0.3 1.6 1.2
v -0.3 1.8 1.2
v -0.3 1.7 1.1
v -0.3 1.8 1.1
v -0.3 1.4 1
v -0.3 1.7 1
v -0.3 1.9 1
v -0.3 1.4 0.9
v -0.3 2 0.9
v 0.3 1.4 1.7
v 0.3 1.4 1.6
v 0.3 1.4 1.5
v 0.3 1.4 1.4
v 0.3 1.4 1.3
v 0.3 1.4 1.2
v 0.3 1.4 0.9
v 0.2 1.4 1.7
v 0.2 1.4 1.6
v 0.2 1.4 1.5
v 0.2 1.4 1.4
v 0.2 1.4 1.3
v 0.2 1.4 1.2
v 0.2 1.4 1
v 0.1 1.4 1.5
v 0.1 1.4 1.4
v 0 1.4 1.3
v 0 1.4 1.2
v 0 1.4 1
v 0 1.4 0.9
v -0.2 1.4 1.4
v -0.2 1.4 1.3
v -0.2 1.4 1
v -0.2 1.4 0.9
v -0.3 1.4 1.7
v -0.3 1.4 1.4
v -0.3 1.4 1.3
v -0.3 1.4 1
v -0.3 1.4 0.9
v 0.3 2 1.7
v 0.3 2 1.4
v 0.3 2 1.2
v 0.3 2 1
v 0.3 2 0.9
v 0.2 2 1.4
v 0.2 2 1.2
v 0.2 2 1.1
v 0.1 2 1.4
v 0.1 2 1.3
v 0.1 2 1.1
v 0.1 2 1
v 0 2 1.4
v 0 2 1.3
v 0 2 1
v 0 2 0.9
v -0.1 2 1.4
v -0.1 2 1.3
v -0.1 2 1.2
v -0.1 2 1.1
v -0.1 2 1
v -0.2 2 1.4
v -0.2 2 1.3
v -0.2 2 1.2
v -0.2 2 1.1
v -0.2 2 1
v -0.2 2 0.9
v -0.3 2 1.7
v -0.3 2 0.9

# faces
f 4/4/1 2/4/1 1/4/1
f 5/1/1 3/1/1 2/1/1
f 5/4/1 2/4/1 4/4/1
f 6/5/1 5/5/1 4/5/1
f 6/1/1 3/1/1 5/1/1
f 7/1/1 3/1/1 6/1/1
f 8/5/1 6/5/1 4/5/1
f 8/5/1 7/5/1 6/5/1
f 9/1/1 3/1/1 7/1/1
f 9/5/1 7/5/1 8/5/1
f 10/5/1 8/5/1 4/5/1
f 11/1/1 9/1/1 8/1/1
f 11/5/1 8/5/1 10/5/1
f 12/1/1 11/1/1 10/1/1
f 13/1/1 3/1/1 9/1/1
f 13/1/1 11/1/1 12/1/1
f 13/1/1 9/1/1 11/1/1
f 14/1/2 15/1/2 18/1/2
f 15/7/2 16/7/2 18/7/2
f 16/1/2 17/1/2 19/1/2
f 18/7/2 16/7/2 19/7/2
f 14/1/2 18/1/2 20/1/2
f 18/1/2 19/1/2 20/1/2
f 20/1/2 19/1/2 21/1/2
f 20/3/2 21/3/2 22/3/2
f 21/1/2 19/1/2 23/1/2
f 22/3/2 21/3/2 23/3/2
f 23/1/2 19/1/2 24/1/2
f 19/1/2 17/1/2 25/1/2
f 24/1/2 19/1/2 25/1/2
f 23/1/2 24/1/2 26/1/2
f 22/1/2 23/1/2 26/1/2
f 24/3/2 25/3/2 27/3/2
f 26/1/2 24/1/2 27/1/2
f 25/1/2 17/1/2 28/1/2
f 27/3/2 25/3/2 28/3/2
f 28/1/2 17/1/2 29/1/2
f 34/4/3 31/4/3 30/4/3
f 35/5/3 32/5/3 31/5/3
f 35/4/3 31/4/3 34/4/3
f 36/5/3 32/5/3 35/5/3
f 37/5/3 32/5/3 36/5/3
f 38/1/3 33/1/3 32/1/3
f 38/5/3 32/5/3 37/5/3
f 39/5/3 35/5/3 34/5/3
f 40/1/3 36/1/3 35/1/3
f 40/5/3 35/5/3 39/5/3
f 41/5/3 37/5/3 36/5/3
f 41/1/3 36/1/3 40/1/3
f 42/4/3 38/4/3 37/4/3
f 42/5/3 37/5/3 41/5/3
f 43/1/3 33/1/3 38/1/3
f 43/4/3 38/4/3 42/4/3
f 44/4/3 40/4/3 39/4/3
f 45/5/3 41/5/3 40/5/3
f 45/4/3 40/4/3 44/4/3
f 46/4/3 42/4/3 41/4/3
f 46/5/3 41/5/3 45/5/3
f 47/1/3 43/1/3 42/1/3
f 47/4/3 42/4/3 46/4/3
f 48/1/3 33/1/3 43/1/3
f 48/1/3 43/1/3 47/1/3
f 49/1/3 33/1/3 48/1/3
f 50/5/3 45/5/3 44/5/3
f 51/4/3 46/4/3 45/4/3
f 51/5/3 45/5/3 50/5/3
f 52/4/3 51/4/3 50/4/3
f 53/1/3 47/1/3 46/1/3
f 53/4/3 51/4/3 52/4/3
f 53/1/3 48/1/3 47/1/3
f 53/4/3 46/4/3 51/4/3
f 54/1/3 48/1/3 53/1/3
f 55/3/3 49/3/3 48/3/3
f 55/1/3 48/1/3 54/1/3
f 56/3/3 49/3/3 55/3/3
f 57/3/3 55/3/3 54/3/3
f 58/2/3 56/2/3 55/2/3
f 58/3/3 55/3/3 57/3/3
f 59/3/3 57/3/3 54/3/3
f 59/2/3 58/2/3 57/2/3
f 60/2/3 56/2/3 58/2/3
f 60/2/3 58/2/3 59/2/3
f 61/2/3 56/2/3 60/2/3
f 62/1/3 54/1/3 53/1/3
f 62/1/3 53/1/3 52/1/3
f 63/3/3 59/3/3 54/3/3
f 63/1/3 54/1/3 62/1/3
f 63/3/3 60/3/3 59/3/3
f 64/1/3 61/1/3 60/1/3
f 64/3/3 60/3/3 63/3/3
f 65/1/3 61/1/3 64/1/3
f 66/1/4 67/1/4 68/1/4
f 68/1/4 67/1/4 69/1/4
f 68/7/4 69/7/4 70/7/4
f 70/7/4 69/7/4 71/7/4
f 69/1/4 67/1/4 72/1/4
f 71/7/4 69/7/4 72/7/4
f 72/1/4 67/1/4 73/1/4
f 70/6/4 71/6/4 74/6/4
f 71/7/4 72/7/4 74/7/4
f 72/7/4 73/7/4 74/7/4
f 74/7/4 73/7/4 75/7/4
f 74/6/4 75/6/4 76/6/4
f 75/7/4 73/7/4 77/7/4
f 76/6/4 75/6/4 77/6/4
f 70/6/4 74/6/4 78/6/4
f 74/6/4 76/6/4 78/6/4
f 76/7/4 77/7/4 79/7/4
f 78/6/4 76/6/4 79/6/4
f 73/1/4 67/1/4 80/1/4
f 79/7/4 77/7/4 80/7/4
f 77/7/4 73/7/4 80/7/4
f 78/1/4 79/1/4 81/1/4
f 79/1/4 80/1/4 81/1/4
f 80/1/4 67/1/4 82/1/4
f 81/1/4 80/1/4 82/1/4
f 90/4/5 84/4/5 83/4/5
f 91/5/5 85/5/5 84/5/5
f 91/4/5 84/4/5 90/4/5
f 92/4/5 86/4/5 85/4/5
f 92/5/5 85/5/5 91/5/5
f 93/5/5 87/5/5 86/5/5
f 93/4/5 86/4/5 92/4/5
f 94/4/5 88/4/5 87/4/5
f 94/5/5 87/5/5 93/5/5
f 95/1/5 89/1/5 88/1/5
f 95/4/5 88/4/5 94/4/5
f 96/1/5 89/1/5 95/1/5
f 97/1/5 91/1/5 90/1/5
f 97/1/5 92/1/5 91/1/5
f 97/4/5 93/4/5 92/4/5
f 98/1/5 94/1/5 93/1/5
f 98/4/5 93/4/5 97/4/5
f 98/1/5 95/1/5 94/1/5
f 99/1/5 98/1/5 97/1/5
f 99/1/5 95/1/5 98/1/5
f 100/7/5 96/7/5 95/7/5
f 100/1/5 95/1/5 99/1/5
f 101/1/5 89/1/5 96/1/5
f 101/7/5 96/7/5 100/7/5
f 102/1/5 89/1/5 101/1/5
f 103/1/5 99/1/5 97/1/5
f 104/7/5 100/7/5 99/7/5
f 104/1/5 99/1/5 103/1/5
f 104/7/5 101/7/5 100/7/5
f 104/7/5 102/7/5 101/7/5
f 105/7/5 102/7/5 104/7/5
f 106/7/5 102/7/5 105/7/5
f 107/1/5 97/1/5 90/1/5
f 107/1/5 103/1/5 97/1/5
f 108/7/5 104/7/5 103/7/5
f 108/1/5 103/1/5 107/1/5
f 109/6/5 105/6/5 104/6/5
f 109/7/5 104/7/5 108/7/5
f 110/1/5 106/1/5 105/1/5
f 110/6/5 105/6/5 109/6/5
f 111/1/5 106/1/5 110/1/5
f 112/1/6 113/1/6 117/1/6
f 113/3/6 114/3/6 117/3/6
f 114/2/6 115/2/6 118/2/6
f 117/3/6 114/3/6 118/3/6
f 118/2/6 115/2/6 119/2/6
f 112/1/6 117/1/6 120/1/6
f 117/1/6 118/1/6 120/1/6
f 118/1/6 119/1/6 120/1/6
f 120/1/6 119/1/6 121/1/6
f 119/2/6 115/2/6 122/2/6
f 121/1/6 119/1/6 122/1/6
f 115/1/6 116/1/6 123/1/6
f 122/2/6 115/2/6 123/2/6
f 120/4/6 121/4/6 124/4/6
f 112/1/6 120/1/6 124/1/6
f 121/1/6 122/1/6 125/1/6
f 124/4/6 121/4/6 125/4/6
f 123/1/6 116/1/6 126/1/6
f 122/3/6 123/3/6 126/3/6
f 126/1/6 116/1/6 127/1/6
f 112/1/6 124/1/6 128/1/6
f 124/1/6 125/1/6 128/1/6
f 125/1/6 122/1/6 129/1/6
f 128/1/6 125/1/6 129/1/6
f 129/1/6 122/1/6 130/1/6
f 126/3/6 127/3/6 131/3/6
f 130/1/6 122/1/6 131/1/6
f 122/3/6 126/3/6 131/3/6
f 131/3/6 127/3/6 132/3/6
f 112/1/6 128/1/6 133/1/6
f 128/4/6 129/4/6 133/4/6
f 129/5/6 130/5/6 134/5/6
f 133/4/6 129/4/6 134/4/6
f 130/4/6 131/4/6 135/4/6
f 134/5/6 130/5/6 135/5/6
f 131/1/6 132/1/6 136/1/6
f 135/4/6 131/4/6 136/4/6
f 132/3/6 127/3/6 137/3/6
f 136/1/6 132/1/6 137/1/6
f 137/3/6 127/3/6 138/3/6
f 135/1/6 136/1/6 139/1/6
f 112/1/6 133/1/6 139/1/6
f 137/1/6 138/1/6 139/1/6
f 136/1/6 137/1/6 139/1/6
f 133/1/6 134/1/6 139/1/6
f 134/1/6 135/1/6 139/1/6
f 139/1/6 138/1/6 140/1/6
