# MagicaVoxel @ Ephtracy

# group
o 

# material
mtllib model-3.mtl
usemtl palette

# normals
vn 0 0 1
vn 0 0 -1
vn 1 0 0
vn -1 0 0
vn 0 -1 0
vn 0 1 0

# texcoords
vt 0.185547 0.5
vt 0.271484 0.5
vt 0.275391 0.5
vt 0.458984 0.5
vt 0.525391 0.5
vt 0.607422 0.5
vt 0.611328 0.5

# verts
v 0.3 1.4 -0.9
v -0.3 1.4 -0.9
v 0.3 2 -0.9
v -0.3 2 -0.9
v 0.3 1.4 -1.7
v -0.3 1.4 -1.7
v -0.2 1.5 -1.7
v -0.3 1.5 -1.7
v -0.2 1.7 -1.7
v -0.3 1.7 -1.7
v 0.3 2 -1.7
v -0.3 2 -1.7
v 0.3 1.4 -0.9
v 0.3 2 -0.9
v 0.3 1.5 -1
v 0.3 1.6 -1
v 0.3 1.7 -1
v 0.3 1.8 -1
v 0.3 1.7 -1.1
v 0.3 1.8 -1.1
v 0.3 1.9 -1.1
v 0.3 1.4 -1.2
v 0.3 1.5 -1.2
v 0.3 1.6 -1.2
v 0.3 1.9 -1.2
v 0.3 2 -1.2
v 0.3 1.4 -1.3
v 0.3 1.5 -1.3
v 0.3 1.6 -1.3
v 0.3 1.8 -1.3
v 0.3 1.9 -1.3
v 0.3 1.4 -1.4
v 0.3 1.5 -1.4
v 0.3 1.6 -1.4
v 0.3 1.7 -1.4
v 0.3 1.7 -1.5
v 0.3 1.8 -1.5
v 0.3 1.9 -1.5
v 0.3 2 -1.5
v 0.3 1.5 -1.6
v 0.3 1.6 -1.6
v 0.3 1.4 -1.7
v 0.3 2 -1.7
v -0.3 1.4 -0.9
v -0.3 2 -0.9
v -0.3 1.7 -1.1
v -0.3 1.8 -1.1
v -0.3 1.9 -1.1
v -0.3 2 -1.1
v -0.3 1.4 -1.2
v -0.3 1.7 -1.2
v -0.3 1.8 -1.2
v -0.3 1.9 -1.2
v -0.3 2 -1.2
v -0.3 1.4 -1.3
v -0.3 1.5 -1.3
v -0.3 1.7 -1.3
v -0.3 1.8 -1.3
v -0.3 1.9 -1.3
v -0.3 1.5 -1.4
v -0.3 1.6 -1.4
v -0.3 1.4 -1.5
v -0.3 1.5 -1.5
v -0.3 1.6 -1.5
v -0.3 1.7 -1.5
v -0.3 1.4 -1.6
v -0.3 1.5 -1.6
v -0.3 1.6 -1.6
v -0.3 1.7 -1.6
v -0.3 1.8 -1.6
v -0.3 1.4 -1.7
v -0.3 1.5 -1.7
v -0.3 1.7 -1.7
v -0.3 2 -1.7
v 0.3 1.4 -0.9
v 0.3 1.4 -1.2
v 0.3 1.4 -1.3
v 0.3 1.4 -1.4
v 0.3 1.4 -1.7
v 0.2 1.4 -1.2
v 0.2 1.4 -1.3
v 0.2 1.4 -1.4
v -0.2 1.4 -1.2
v -0.2 1.4 -1.3
v -0.2 1.4 -1.5
v -0.2 1.4 -1.6
v -0.3 1.4 -0.9
v -0.3 1.4 -1.2
v -0.3 1.4 -1.3
v -0.3 1.4 -1.5
v -0.3 1.4 -1.6
v -0.3 1.4 -1.7
v 0.3 2 -0.9
v 0.3 2 -1.2
v 0.3 2 -1.5
v 0.3 2 -1.7
v 0.2 2 -1.2
v 0.2 2 -1.5
v 0.1 2 -1.1
v 0.1 2 -1.2
v 0.1 2 -1.3
v 0.1 2 -1.4
v 0 2 -1.1
v 0 2 -1.2
v 0 2 -1.3
v 0 2 -1.4
v 0 2 -1.5
v -0.1 2 -1.3
v -0.1 2 -1.4
v -0.1 2 -1.5
v -0.2 2 -1.1
v -0.2 2 -1.2
v -0.3 2 -0.9
v -0.3 2 -1.1
v -0.3 2 -1.2
v -0.3 2 -1.7

# faces
f 3/1/1 2/1/1 1/1/1
f 4/1/1 2/1/1 3/1/1
f 5/1/2 6/1/2 7/1/2
f 7/1/2 6/1/2 8/1/2
f 5/1/2 7/1/2 9/1/2
f 7/7/2 8/7/2 9/7/2
f 9/7/2 8/7/2 10/7/2
f 5/1/2 9/1/2 11/1/2
f 9/1/2 10/1/2 11/1/2
f 11/1/2 10/1/2 12/1/2
f 15/1/3 14/1/3 13/1/3
f 16/1/3 14/1/3 15/1/3
f 17/1/3 14/1/3 16/1/3
f 18/1/3 14/1/3 17/1/3
f 19/2/3 17/2/3 16/2/3
f 19/3/3 18/3/3 17/3/3
f 20/1/3 14/1/3 18/1/3
f 20/3/3 18/3/3 19/3/3
f 21/1/3 14/1/3 20/1/3
f 22/1/3 15/1/3 13/1/3
f 23/3/3 16/3/3 15/3/3
f 23/1/3 15/1/3 22/1/3
f 24/2/3 19/2/3 16/2/3
f 24/3/3 16/3/3 23/3/3
f 24/2/3 20/2/3 19/2/3
f 25/1/3 14/1/3 21/1/3
f 25/3/3 21/3/3 20/3/3
f 26/1/3 14/1/3 25/1/3
f 27/2/3 23/2/3 22/2/3
f 27/2/3 24/2/3 23/2/3
f 28/2/3 24/2/3 27/2/3
f 29/2/3 20/2/3 24/2/3
f 29/2/3 24/2/3 28/2/3
f 30/3/3 26/3/3 25/3/3
f 30/2/3 20/2/3 29/2/3
f 30/3/3 25/3/3 20/3/3
f 31/3/3 26/3/3 30/3/3
f 32/3/3 28/3/3 27/3/3
f 33/2/3 29/2/3 28/2/3
f 33/3/3 28/3/3 32/3/3
f 34/3/3 30/3/3 29/3/3
f 34/2/3 29/2/3 33/2/3
f 35/3/3 30/3/3 34/3/3
f 36/1/3 35/1/3 34/1/3
f 36/3/3 30/3/3 35/3/3
f 37/1/3 31/1/3 30/1/3
f 37/3/3 30/3/3 36/3/3
f 38/3/3 26/3/3 31/3/3
f 38/1/3 31/1/3 37/1/3
f 39/3/3 26/3/3 38/3/3
f 40/1/3 33/1/3 32/1/3
f 40/3/3 34/3/3 33/3/3
f 41/1/3 37/1/3 36/1/3
f 41/3/3 34/3/3 40/3/3
f 41/1/3 36/1/3 34/1/3
f 41/1/3 38/1/3 37/1/3
f 41/1/3 39/1/3 38/1/3
f 42/1/3 40/1/3 32/1/3
f 42/1/3 41/1/3 40/1/3
f 43/1/3 39/1/3 41/1/3
f 43/1/3 41/1/3 42/1/3
f 44/1/4 45/1/4 46/1/4
f 46/1/4 45/1/4 47/1/4
f 47/1/4 45/1/4 48/1/4
f 48/1/4 45/1/4 49/1/4
f 44/1/4 46/1/4 50/1/4
f 46/7/4 47/7/4 51/7/4
f 50/1/4 46/1/4 51/1/4
f 47/1/4 48/1/4 52/1/4
f 51/7/4 47/7/4 52/7/4
f 48/7/4 49/7/4 53/7/4
f 52/1/4 48/1/4 53/1/4
f 53/7/4 49/7/4 54/7/4
f 50/7/4 51/7/4 55/7/4
f 55/7/4 51/7/4 56/7/4
f 51/6/4 52/6/4 57/6/4
f 56/7/4 51/7/4 57/7/4
f 52/7/4 53/7/4 58/7/4
f 57/6/4 52/6/4 58/6/4
f 53/1/4 54/1/4 59/1/4
f 58/7/4 53/7/4 59/7/4
f 55/1/4 56/1/4 60/1/4
f 56/6/4 57/6/4 60/6/4
f 60/6/4 57/6/4 61/6/4
f 55/1/4 60/1/4 62/1/4
f 60/7/4 61/7/4 63/7/4
f 62/1/4 60/1/4 63/1/4
f 61/6/4 57/6/4 64/6/4
f 63/7/4 61/7/4 64/7/4
f 57/7/4 58/7/4 65/7/4
f 64/6/4 57/6/4 65/6/4
f 62/7/4 63/7/4 66/7/4
f 63/6/4 64/6/4 67/6/4
f 66/7/4 63/7/4 67/7/4
f 64/7/4 65/7/4 68/7/4
f 67/6/4 64/6/4 68/6/4
f 65/7/4 58/7/4 69/7/4
f 68/7/4 65/7/4 69/7/4
f 58/1/4 59/1/4 70/1/4
f 69/7/4 58/7/4 70/7/4
f 66/1/4 67/1/4 71/1/4
f 68/7/4 69/7/4 72/7/4
f 71/1/4 67/1/4 72/1/4
f 67/7/4 68/7/4 72/7/4
f 69/1/4 70/1/4 73/1/4
f 72/7/4 69/7/4 73/7/4
f 59/1/4 54/1/4 74/1/4
f 73/1/4 70/1/4 74/1/4
f 70/1/4 59/1/4 74/1/4
f 80/1/5 76/1/5 75/1/5
f 80/2/5 77/2/5 76/2/5
f 81/3/5 78/3/5 77/3/5
f 81/2/5 77/2/5 80/2/5
f 82/1/5 79/1/5 78/1/5
f 82/3/5 78/3/5 81/3/5
f 83/1/5 81/1/5 80/1/5
f 83/1/5 80/1/5 75/1/5
f 83/1/5 82/1/5 81/1/5
f 84/1/5 82/1/5 83/1/5
f 85/1/5 79/1/5 82/1/5
f 85/1/5 82/1/5 84/1/5
f 86/1/5 79/1/5 85/1/5
f 87/1/5 83/1/5 75/1/5
f 88/7/5 84/7/5 83/7/5
f 88/1/5 83/1/5 87/1/5
f 89/1/5 85/1/5 84/1/5
f 89/7/5 84/7/5 88/7/5
f 90/7/5 86/7/5 85/7/5
f 90/1/5 85/1/5 89/1/5
f 91/1/5 79/1/5 86/1/5
f 91/7/5 86/7/5 90/7/5
f 92/1/5 79/1/5 91/1/5
f 93/1/6 94/1/6 97/1/6
f 94/3/6 95/3/6 97/3/6
f 95/1/6 96/1/6 98/1/6
f 97/3/6 95/3/6 98/3/6
f 93/1/6 97/1/6 99/1/6
f 97/1/6 98/1/6 99/1/6
f 99/1/6 98/1/6 100/1/6
f 100/1/6 98/1/6 101/1/6
f 101/1/6 98/1/6 102/1/6
f 93/1/6 99/1/6 103/1/6
f 99/4/6 100/4/6 103/4/6
f 100/1/6 101/1/6 104/1/6
f 103/4/6 100/4/6 104/4/6
f 101/4/6 102/4/6 105/4/6
f 104/1/6 101/1/6 105/1/6
f 102/1/6 98/1/6 106/1/6
f 105/4/6 102/4/6 106/4/6
f 98/1/6 96/1/6 107/1/6
f 106/1/6 98/1/6 107/1/6
f 105/5/6 106/5/6 108/5/6
f 104/1/6 105/1/6 108/1/6
f 103/1/6 104/1/6 108/1/6
f 106/4/6 107/4/6 109/4/6
f 108/5/6 106/5/6 109/5/6
f 107/1/6 96/1/6 110/1/6
f 109/4/6 107/4/6 110/4/6
f 108/1/6 109/1/6 111/1/6
f 103/1/6 108/1/6 111/1/6
f 109/1/6 110/1/6 111/1/6
f 93/1/6 103/1/6 111/1/6
f 111/1/6 110/1/6 112/1/6
f 93/1/6 111/1/6 113/1/6
f 111/7/6 112/7/6 114/7/6
f 113/1/6 111/1/6 114/1/6
f 112/1/6 110/1/6 115/1/6
f 114/7/6 112/7/6 115/7/6
f 110/1/6 96/1/6 116/1/6
f 115/1/6 110/1/6 116/1/6
