# MagicaVoxel @ Ephtracy

# group
o 

# material
mtllib model-2.mtl
usemtl palette

# normals
vn 0 0 1
vn 0 0 -1
vn 1 0 0
vn -1 0 0
vn 0 -1 0
vn 0 1 0

# texcoords
vt 0.185547 0.5
vt 0.271484 0.5
vt 0.275391 0.5
vt 0.458984 0.5
vt 0.525391 0.5

# verts
v 0.3 1.4 2.4
v -0.3 1.4 2.4
v 0.3 2 2.4
v -0.3 2 2.4
v 0.3 1.4 1.6
v 0.2 1.4 1.6
v -0.3 1.4 1.6
v 0.3 1.5 1.6
v 0.2 1.5 1.6
v 0.3 1.8 1.6
v 0.2 1.8 1.6
v 0.3 2 1.6
v -0.3 2 1.6
v 0.3 1.4 2.4
v 0.3 2 2.4
v 0.3 1.4 2.3
v 0.3 1.5 2.3
v 0.3 1.7 2.3
v 0.3 1.8 2.3
v 0.3 1.9 2.3
v 0.3 2 2.3
v 0.3 1.4 2.2
v 0.3 1.5 2.2
v 0.3 1.8 2.2
v 0.3 1.9 2.2
v 0.3 2 2.2
v 0.3 1.4 2.1
v 0.3 1.5 2.1
v 0.3 1.6 2.1
v 0.3 1.7 2.1
v 0.3 1.8 2.1
v 0.3 1.9 2.1
v 0.3 2 2.1
v 0.3 1.6 2
v 0.3 1.7 2
v 0.3 1.8 2
v 0.3 2 2
v 0.3 1.4 1.9
v 0.3 1.5 1.9
v 0.3 1.6 1.9
v 0.3 1.7 1.9
v 0.3 1.8 1.9
v 0.3 1.9 1.9
v 0.3 2 1.9
v 0.3 1.5 1.8
v 0.3 1.6 1.8
v 0.3 1.7 1.8
v 0.3 1.9 1.8
v 0.3 2 1.8
v 0.3 1.4 1.7
v 0.3 1.5 1.7
v 0.3 1.6 1.7
v 0.3 1.4 1.6
v 0.3 1.5 1.6
v 0.3 1.8 1.6
v 0.3 2 1.6
v -0.3 1.4 2.4
v -0.3 2 2.4
v -0.3 1.5 2.3
v -0.3 1.6 2.3
v -0.3 1.8 2.3
v -0.3 1.9 2.3
v -0.3 1.4 2.2
v -0.3 1.5 2.2
v -0.3 1.6 2.2
v -0.3 1.7 2.2
v -0.3 1.8 2.2
v -0.3 1.9 2.2
v -0.3 2 2.2
v -0.3 1.4 2.1
v -0.3 1.5 2.1
v -0.3 1.6 2.1
v -0.3 1.7 2.1
v -0.3 1.8 2.1
v -0.3 2 2.1
v -0.3 1.4 2
v -0.3 1.6 2
v -0.3 1.7 2
v -0.3 1.8 2
v -0.3 1.4 1.9
v -0.3 1.5 1.9
v -0.3 1.6 1.9
v -0.3 1.7 1.9
v -0.3 1.5 1.8
v -0.3 1.6 1.8
v -0.3 1.4 1.6
v -0.3 2 1.6
v 0.3 1.4 2.4
v 0.3 1.4 2.3
v 0.3 1.4 2.2
v 0.3 1.4 2.1
v 0.3 1.4 1.9
v 0.3 1.4 1.7
v 0.3 1.4 1.6
v 0.2 1.4 2.1
v 0.2 1.4 2
v 0.2 1.4 1.7
v 0.2 1.4 1.6
v 0.1 1.4 2.3
v 0.1 1.4 2.2
v 0.1 1.4 2.1
v 0.1 1.4 2
v 0 1.4 2.3
v 0 1.4 2.1
v 0 1.4 2
v 0 1.4 1.9
v -0.1 1.4 2.2
v -0.1 1.4 2.1
v -0.2 1.4 2.3
v -0.2 1.4 2.2
v -0.2 1.4 2.1
v -0.2 1.4 2
v -0.2 1.4 1.9
v -0.3 1.4 2.4
v -0.3 1.4 2.2
v -0.3 1.4 2.1
v -0.3 1.4 2
v -0.3 1.4 1.9
v -0.3 1.4 1.6
v 0.3 2 2.4
v 0.3 2 2.3
v 0.3 2 2.2
v 0.3 2 2.1
v 0.3 2 2
v 0.3 2 1.9
v 0.3 2 1.8
v 0.3 2 1.6
v 0.2 2 2.2
v 0.2 2 2.1
v 0.2 2 2
v 0.2 2 1.9
v 0.2 2 1.8
v 0.1 2 2.3
v 0.1 2 2.2
v 0.1 2 2.1
v 0 2 2.2
v 0 2 2.1
v 0 2 1.9
v -0.1 2 2
v -0.1 2 1.9
v -0.2 2 2.2
v -0.2 2 2.1
v -0.2 2 2
v -0.3 2 2.4
v -0.3 2 2.2
v -0.3 2 2.1
v -0.3 2 1.6

# faces
f 3/2/1 2/2/1 1/2/1
f 4/2/1 2/2/1 3/2/1
f 5/4/2 6/4/2 8/4/2
f 6/1/2 7/1/2 9/1/2
f 8/4/2 6/4/2 9/4/2
f 8/5/2 9/5/2 10/5/2
f 9/1/2 7/1/2 11/1/2
f 10/5/2 9/5/2 11/5/2
f 10/1/2 11/1/2 12/1/2
f 11/1/2 7/1/2 13/1/2
f 12/1/2 11/1/2 13/1/2
f 16/2/3 15/2/3 14/2/3
f 17/2/3 15/2/3 16/2/3
f 18/2/3 15/2/3 17/2/3
f 19/2/3 15/2/3 18/2/3
f 20/2/3 15/2/3 19/2/3
f 21/2/3 15/2/3 20/2/3
f 22/3/3 17/3/3 16/3/3
f 23/2/3 18/2/3 17/2/3
f 23/3/3 17/3/3 22/3/3
f 24/3/3 19/3/3 18/3/3
f 24/2/3 20/2/3 19/2/3
f 25/3/3 21/3/3 20/3/3
f 25/2/3 20/2/3 24/2/3
f 26/3/3 21/3/3 25/3/3
f 27/2/3 23/2/3 22/2/3
f 28/2/3 18/2/3 23/2/3
f 28/2/3 23/2/3 27/2/3
f 29/2/3 18/2/3 28/2/3
f 30/3/3 24/3/3 18/3/3
f 30/2/3 18/2/3 29/2/3
f 30/3/3 25/3/3 24/3/3
f 31/3/3 25/3/3 30/3/3
f 32/2/3 26/2/3 25/2/3
f 32/3/3 25/3/3 31/3/3
f 33/2/3 26/2/3 32/2/3
f 34/1/3 29/1/3 28/1/3
f 34/3/3 30/3/3 29/3/3
f 35/1/3 31/1/3 30/1/3
f 35/3/3 30/3/3 34/3/3
f 36/3/3 33/3/3 32/3/3
f 36/1/3 31/1/3 35/1/3
f 36/3/3 32/3/3 31/3/3
f 37/3/3 33/3/3 36/3/3
f 38/3/3 28/3/3 27/3/3
f 39/1/3 34/1/3 28/1/3
f 39/3/3 28/3/3 38/3/3
f 39/1/3 35/1/3 34/1/3
f 39/1/3 37/1/3 36/1/3
f 39/1/3 36/1/3 35/1/3
f 40/1/3 37/1/3 39/1/3
f 41/1/3 37/1/3 40/1/3
f 42/1/3 37/1/3 41/1/3
f 43/1/3 37/1/3 42/1/3
f 44/1/3 37/1/3 43/1/3
f 45/1/3 39/1/3 38/1/3
f 45/1/3 40/1/3 39/1/3
f 46/4/3 41/4/3 40/4/3
f 46/1/3 40/1/3 45/1/3
f 47/5/3 42/5/3 41/5/3
f 47/4/3 41/4/3 46/4/3
f 48/4/3 44/4/3 43/4/3
f 48/1/3 43/1/3 42/1/3
f 49/4/3 44/4/3 48/4/3
f 50/1/3 45/1/3 38/1/3
f 51/4/3 46/4/3 45/4/3
f 51/1/3 45/1/3 50/1/3
f 52/5/3 47/5/3 46/5/3
f 52/4/3 46/4/3 51/4/3
f 53/4/3 51/4/3 50/4/3
f 54/5/3 52/5/3 51/5/3
f 54/4/3 51/4/3 53/4/3
f 55/5/3 42/5/3 47/5/3
f 55/5/3 52/5/3 54/5/3
f 55/5/3 47/5/3 52/5/3
f 55/1/3 48/1/3 42/1/3
f 55/1/3 49/1/3 48/1/3
f 56/1/3 49/1/3 55/1/3
f 57/2/4 58/2/4 59/2/4
f 59/2/4 58/2/4 60/2/4
f 60/2/4 58/2/4 61/2/4
f 61/2/4 58/2/4 62/2/4
f 57/2/4 59/2/4 63/2/4
f 59/3/4 60/3/4 64/3/4
f 63/2/4 59/2/4 64/2/4
f 60/2/4 61/2/4 65/2/4
f 64/3/4 60/3/4 65/3/4
f 65/2/4 61/2/4 66/2/4
f 61/3/4 62/3/4 67/3/4
f 66/2/4 61/2/4 67/2/4
f 62/2/4 58/2/4 68/2/4
f 67/3/4 62/3/4 68/3/4
f 68/2/4 58/2/4 69/2/4
f 63/3/4 64/3/4 70/3/4
f 65/2/4 66/2/4 71/2/4
f 70/3/4 64/3/4 71/3/4
f 64/2/4 65/2/4 71/2/4
f 71/2/4 66/2/4 72/2/4
f 66/3/4 67/3/4 73/3/4
f 72/2/4 66/2/4 73/2/4
f 68/3/4 69/3/4 73/3/4
f 67/3/4 68/3/4 73/3/4
f 73/3/4 69/3/4 74/3/4
f 74/3/4 69/3/4 75/3/4
f 71/2/4 72/2/4 76/2/4
f 70/2/4 71/2/4 76/2/4
f 72/3/4 73/3/4 77/3/4
f 76/2/4 72/2/4 77/2/4
f 73/3/4 74/3/4 77/3/4
f 77/3/4 74/3/4 78/3/4
f 74/1/4 75/1/4 79/1/4
f 78/3/4 74/3/4 79/3/4
f 77/3/4 78/3/4 80/3/4
f 76/3/4 77/3/4 80/3/4
f 80/3/4 78/3/4 81/3/4
f 81/3/4 78/3/4 82/3/4
f 78/1/4 79/1/4 83/1/4
f 82/3/4 78/3/4 83/3/4
f 81/3/4 82/3/4 84/3/4
f 80/1/4 81/1/4 84/1/4
f 82/1/4 83/1/4 85/1/4
f 84/3/4 82/3/4 85/3/4
f 80/1/4 84/1/4 86/1/4
f 84/1/4 85/1/4 86/1/4
f 79/1/4 75/1/4 87/1/4
f 86/1/4 85/1/4 87/1/4
f 83/1/4 79/1/4 87/1/4
f 85/1/4 83/1/4 87/1/4
f 95/2/5 91/2/5 90/2/5
f 95/3/5 92/3/5 91/3/5
f 96/3/5 92/3/5 95/3/5
f 97/4/5 94/4/5 93/4/5
f 97/1/5 93/1/5 92/1/5
f 98/4/5 94/4/5 97/4/5
f 99/2/5 89/2/5 88/2/5
f 99/3/5 90/3/5 89/3/5
f 100/2/5 96/2/5 95/2/5
f 100/3/5 90/3/5 99/3/5
f 100/2/5 95/2/5 90/2/5
f 101/2/5 96/2/5 100/2/5
f 102/3/5 92/3/5 96/3/5
f 102/2/5 96/2/5 101/2/5
f 103/2/5 101/2/5 100/2/5
f 103/2/5 99/2/5 88/2/5
f 103/2/5 100/2/5 99/2/5
f 104/3/5 102/3/5 101/3/5
f 104/2/5 101/2/5 103/2/5
f 105/3/5 92/3/5 102/3/5
f 105/3/5 102/3/5 104/3/5
f 106/1/5 98/1/5 97/1/5
f 106/3/5 92/3/5 105/3/5
f 106/1/5 97/1/5 92/1/5
f 107/3/5 105/3/5 104/3/5
f 107/3/5 104/3/5 103/3/5
f 108/3/5 105/3/5 107/3/5
f 109/2/5 103/2/5 88/2/5
f 109/3/5 107/3/5 103/3/5
f 110/2/5 108/2/5 107/2/5
f 110/3/5 107/3/5 109/3/5
f 111/3/5 105/3/5 108/3/5
f 111/2/5 108/2/5 110/2/5
f 112/1/5 106/1/5 105/1/5
f 112/3/5 105/3/5 111/3/5
f 113/1/5 98/1/5 106/1/5
f 113/1/5 106/1/5 112/1/5
f 114/2/5 110/2/5 109/2/5
f 114/2/5 109/2/5 88/2/5
f 115/3/5 111/3/5 110/3/5
f 115/2/5 110/2/5 114/2/5
f 116/2/5 112/2/5 111/2/5
f 116/3/5 111/3/5 115/3/5
f 117/3/5 113/3/5 112/3/5
f 117/2/5 112/2/5 116/2/5
f 118/1/5 98/1/5 113/1/5
f 118/3/5 113/3/5 117/3/5
f 119/1/5 98/1/5 118/1/5
f 121/3/6 122/3/6 128/3/6
f 122/2/6 123/2/6 128/2/6
f 123/3/6 124/3/6 129/3/6
f 128/2/6 123/2/6 129/2/6
f 124/1/6 125/1/6 130/1/6
f 129/3/6 124/3/6 130/3/6
f 125/4/6 126/4/6 131/4/6
f 130/1/6 125/1/6 131/1/6
f 126/1/6 127/1/6 132/1/6
f 131/4/6 126/4/6 132/4/6
f 120/2/6 121/2/6 133/2/6
f 121/3/6 128/3/6 133/3/6
f 130/1/6 131/1/6 134/1/6
f 133/3/6 128/3/6 134/3/6
f 129/1/6 130/1/6 134/1/6
f 128/1/6 129/1/6 134/1/6
f 131/1/6 132/1/6 134/1/6
f 134/1/6 132/1/6 135/1/6
f 133/2/6 134/2/6 136/2/6
f 134/3/6 135/3/6 136/3/6
f 135/1/6 132/1/6 137/1/6
f 136/3/6 135/3/6 137/3/6
f 137/1/6 132/1/6 138/1/6
f 137/3/6 138/3/6 139/3/6
f 138/1/6 132/1/6 140/1/6
f 139/3/6 138/3/6 140/3/6
f 133/2/6 136/2/6 141/2/6
f 136/2/6 137/2/6 141/2/6
f 137/3/6 139/3/6 142/3/6
f 141/2/6 137/2/6 142/2/6
f 139/1/6 140/1/6 143/1/6
f 142/3/6 139/3/6 143/3/6
f 120/2/6 133/2/6 144/2/6
f 133/2/6 141/2/6 144/2/6
f 141/3/6 142/3/6 145/3/6
f 144/2/6 141/2/6 145/2/6
f 142/1/6 143/1/6 146/1/6
f 145/3/6 142/3/6 146/3/6
f 132/1/6 127/1/6 147/1/6
f 146/1/6 143/1/6 147/1/6
f 143/1/6 140/1/6 147/1/6
f 140/1/6 132/1/6 147/1/6
