# MagicaVoxel @ Ephtracy

# group
o 

# material
mtllib model-0.mtl
usemtl palette

# normals
vn 0 0 1
vn 0 0 -1
vn 1 0 0
vn -1 0 0
vn 0 -1 0
vn 0 1 0

# texcoords
vt 0.380859 0.5
vt 0.384766 0.5

# verts
v 0.5 0 1
v -0.5 0 1
v 0.5 0.2 1
v -0.5 0.2 1
v 0.5 0.7 1
v -0.5 0.7 1
v 0.6 0 0.1
v 0.5 0 0.1
v 0.5 0.2 0.1
v 0.6 0.7 0.1
v 0.5 0.7 0.1
v 0.6 0 -0.1
v 0.5 0 -0.1
v 0.5 0.2 -0.1
v 0.6 0.7 -0.1
v 0.5 0.7 -0.1
v 0.5 0 -1
v -0.5 0 -1
v 0.5 0.2 -1
v -0.5 0.2 -1
v 0.5 0.7 -1
v -0.5 0.7 -1
v 0.6 0 0.1
v 0.6 0.7 0.1
v 0.6 0 -0.1
v 0.6 0.7 -0.1
v 0.5 0 1
v 0.5 0.2 1
v 0.5 0.7 1
v 0.5 0 0.1
v 0.5 0.2 0.1
v 0.5 0.7 0.1
v 0.5 0 -0.1
v 0.5 0.2 -0.1
v 0.5 0.7 -0.1
v 0.5 0 -1
v 0.5 0.2 -1
v 0.5 0.7 -1
v -0.5 0 1
v -0.5 0.2 1
v -0.5 0.7 1
v -0.5 0 -1
v -0.5 0.2 -1
v -0.5 0.7 -1
v 0.6 0 0.1
v 0.6 0 -0.1
v 0.5 0 1
v 0.5 0 0.1
v 0.5 0 -0.1
v 0.5 0 -1
v -0.5 0 1
v -0.5 0 -1
v 0.6 0.7 0.1
v 0.6 0.7 -0.1
v 0.5 0.7 1
v 0.5 0.7 0.1
v 0.5 0.7 -0.1
v 0.5 0.7 -1
v -0.5 0.7 1
v -0.5 0.7 -1

# faces
f 3/2/1 2/2/1 1/2/1
f 4/2/1 2/2/1 3/2/1
f 5/1/1 4/1/1 3/1/1
f 6/1/1 4/1/1 5/1/1
f 9/2/1 8/2/1 7/2/1
f 10/2/1 9/2/1 7/2/1
f 11/2/1 9/2/1 10/2/1
f 12/2/2 13/2/2 14/2/2
f 12/2/2 14/2/2 15/2/2
f 15/2/2 14/2/2 16/2/2
f 17/2/2 18/2/2 19/2/2
f 19/2/2 18/2/2 20/2/2
f 19/1/2 20/1/2 21/1/2
f 21/1/2 20/1/2 22/1/2
f 25/2/3 24/2/3 23/2/3
f 26/2/3 24/2/3 25/2/3
f 30/2/3 28/2/3 27/2/3
f 31/1/3 29/1/3 28/1/3
f 31/2/3 28/2/3 30/2/3
f 32/1/3 29/1/3 31/1/3
f 36/2/3 34/2/3 33/2/3
f 37/1/3 35/1/3 34/1/3
f 37/2/3 34/2/3 36/2/3
f 38/1/3 35/1/3 37/1/3
f 39/2/4 40/2/4 42/2/4
f 40/1/4 41/1/4 43/1/4
f 42/2/4 40/2/4 43/2/4
f 43/1/4 41/1/4 44/1/4
f 48/2/5 46/2/5 45/2/5
f 49/2/5 46/2/5 48/2/5
f 51/2/5 48/2/5 47/2/5
f 51/2/5 50/2/5 49/2/5
f 51/2/5 49/2/5 48/2/5
f 52/2/5 50/2/5 51/2/5
f 53/2/6 54/2/6 56/2/6
f 56/2/6 54/2/6 57/2/6
f 55/1/6 56/1/6 59/1/6
f 57/1/6 58/1/6 59/1/6
f 56/1/6 57/1/6 59/1/6
f 59/1/6 58/1/6 60/1/6
