# MagicaVoxel @ Ephtracy

# group
o 

# material
mtllib model-4.mtl
usemtl palette

# normals
vn 0 0 1
vn 0 0 -1
vn 1 0 0
vn -1 0 0
vn 0 -1 0
vn 0 1 0

# texcoords
vt 0.173828 0.5
vt 0.189453 0.5
vt 0.380859 0.5
vt 0.384766 0.5
vt 0.755859 0.5

# verts
v 0.5 1.7 1.1
v -0.5 1.7 1.1
v 0.5 2.1 1.1
v -0.5 2.1 1.1
v 0.5 0.6 1
v -0.5 0.6 1
v 0.5 1.7 1
v -0.5 1.7 1
v 0.8 1.7 0.9
v 0.6 1.7 0.9
v 0.8 1.9 0.9
v 0.7 1.9 0.9
v 0.8 2 0.9
v 0.7 2 0.9
v -0.5 2 0.9
v -0.6 2 0.9
v 0.6 2.1 0.9
v 0.5 2.1 0.9
v -0.5 2.1 0.9
v 0.8 2.2 0.9
v -0.6 2.2 0.9
v 0.6 1.8 0.8
v 0.5 1.8 0.8
v 0.8 1.9 0.8
v 0.7 1.9 0.8
v 0.8 2 0.8
v 0.7 2 0.8
v 0.6 2.1 0.8
v 0.5 2.1 0.8
v -0.5 1.9 0.7
v -0.6 1.9 0.7
v -0.5 2 0.7
v -0.6 2 0.7
v 0.8 1.7 0.6
v 0.7 1.7 0.6
v 0.8 1.8 0.6
v 0.7 1.8 0.6
v 0.7 1.4 0.4
v 0.6 1.4 0.4
v 0.7 1.7 0.4
v 0.6 1.7 0.4
v -0.5 1.9 0.4
v -0.6 1.9 0.4
v -0.5 2 0.4
v -0.6 2 0.4
v 0.6 1.2 0.3
v 0.5 1.2 0.3
v 0.6 1.4 0.3
v 0.6 1.5 0.3
v 0.5 1.5 0.3
v 0.8 1.7 0.3
v 0.7 1.7 0.3
v 0.6 1.7 0.3
v 0.5 1.7 0.3
v 0.8 1.8 0.3
v 0.7 1.8 0.3
v 0.6 1.8 0.3
v 0.5 1.8 0.3
v 0.6 0.6 0.1
v 0.5 0.6 0.1
v 0.6 1.2 0.1
v 0.5 1.2 0.1
v -0.5 1.9 0.1
v -0.6 1.9 0.1
v -0.5 2 0.1
v -0.6 2 0.1
v 0.6 1.3 -0.1
v 0.5 1.3 -0.1
v 0.6 1.5 -0.1
v 0.5 1.5 -0.1
v 0.5 1.6 -0.1
v 0.4 1.6 -0.1
v 0.8 1.7 -0.1
v 0.6 1.7 -0.1
v 0.8 2.1 -0.1
v 0.4 2.1 -0.1
v 0.7 1.4 -0.2
v 0.6 1.4 -0.2
v 0.6 1.5 -0.2
v 0.7 1.7 -0.2
v 0.6 1.7 -0.2
v -0.5 1.9 -0.2
v -0.6 1.9 -0.2
v -0.5 2 -0.2
v -0.6 2 -0.2
v 0.8 1.7 -0.4
v 0.7 1.7 -0.4
v 0.8 1.8 -0.4
v 0.7 1.8 -0.4
v -0.5 1.9 -0.5
v -0.6 1.9 -0.5
v -0.5 2 -0.5
v -0.6 2 -0.5
v 0.8 2.1 -0.5
v 0.4 2.1 -0.5
v 0.8 2.2 -0.5
v 0.4 2.2 -0.5
v 0.8 1.7 -0.7
v 0.7 1.7 -0.7
v 0.8 1.8 -0.7
v 0.7 1.8 -0.7
v 0.8 1.7 0.7
v 0.7 1.7 0.7
v 0.8 1.8 0.7
v 0.7 1.8 0.7
v -0.5 1.9 0.5
v -0.6 1.9 0.5
v -0.5 2 0.5
v -0.6 2 0.5
v 0.8 2.1 0.5
v 0.4 2.1 0.5
v 0.8 2.2 0.5
v 0.4 2.2 0.5
v 0.8 1.7 0.4
v 0.7 1.7 0.4
v 0.8 1.8 0.4
v 0.7 1.8 0.4
v 0.7 1.4 0.2
v 0.6 1.4 0.2
v 0.6 1.5 0.2
v 0.7 1.7 0.2
v 0.6 1.7 0.2
v -0.5 1.9 0.2
v -0.6 1.9 0.2
v -0.5 2 0.2
v -0.6 2 0.2
v 0.6 1.3 0.1
v 0.5 1.3 0.1
v 0.6 1.5 0.1
v 0.5 1.5 0.1
v 0.5 1.6 0.1
v 0.4 1.6 0.1
v 0.8 1.7 0.1
v 0.6 1.7 0.1
v 0.8 2.1 0.1
v 0.4 2.1 0.1
v 0.6 0.6 -0.1
v 0.5 0.6 -0.1
v 0.6 1.2 -0.1
v 0.5 1.2 -0.1
v -0.5 1.9 -0.1
v -0.6 1.9 -0.1
v -0.5 2 -0.1
v -0.6 2 -0.1
v 0.6 1.2 -0.3
v 0.5 1.2 -0.3
v 0.6 1.4 -0.3
v 0.6 1.5 -0.3
v 0.5 1.5 -0.3
v 0.8 1.7 -0.3
v 0.7 1.7 -0.3
v 0.6 1.7 -0.3
v 0.5 1.7 -0.3
v 0.8 1.8 -0.3
v 0.7 1.8 -0.3
v 0.6 1.8 -0.3
v 0.5 1.8 -0.3
v 0.7 1.4 -0.4
v 0.6 1.4 -0.4
v 0.7 1.7 -0.4
v 0.6 1.7 -0.4
v -0.5 1.9 -0.4
v -0.6 1.9 -0.4
v -0.5 2 -0.4
v -0.6 2 -0.4
v 0.8 1.7 -0.6
v 0.7 1.7 -0.6
v 0.8 1.8 -0.6
v 0.7 1.8 -0.6
v -0.5 1.9 -0.7
v -0.6 1.9 -0.7
v -0.5 2 -0.7
v -0.6 2 -0.7
v 0.6 1.8 -0.8
v 0.5 1.8 -0.8
v 0.8 1.9 -0.8
v 0.7 1.9 -0.8
v 0.8 2 -0.8
v 0.7 2 -0.8
v 0.6 2.1 -0.8
v 0.5 2.1 -0.8
v 0.8 1.7 -0.9
v 0.6 1.7 -0.9
v 0.8 1.9 -0.9
v 0.7 1.9 -0.9
v 0.8 2 -0.9
v 0.7 2 -0.9
v -0.5 2 -0.9
v -0.6 2 -0.9
v 0.6 2.1 -0.9
v 0.5 2.1 -0.9
v -0.5 2.1 -0.9
v 0.8 2.2 -0.9
v -0.6 2.2 -0.9
v 0.5 0.6 -1
v -0.5 0.6 -1
v 0.5 1.7 -1
v -0.5 1.7 -1
v 0.5 1.7 -1.1
v -0.5 1.7 -1.1
v 0.5 2.1 -1.1
v -0.5 2.1 -1.1
v 0.8 1.7 0.9
v 0.8 1.9 0.9
v 0.8 2 0.9
v 0.8 2.2 0.9
v 0.8 1.9 0.8
v 0.8 2 0.8
v 0.8 1.7 0.7
v 0.8 1.8 0.7
v 0.8 1.7 0.6
v 0.8 1.8 0.6
v 0.8 2.1 0.5
v 0.8 2.2 0.5
v 0.8 1.7 0.4
v 0.8 1.8 0.4
v 0.8 1.7 0.3
v 0.8 1.8 0.3
v 0.8 1.7 0.1
v 0.8 2.1 0.1
v 0.8 1.7 -0.1
v 0.8 2.1 -0.1
v 0.8 1.7 -0.3
v 0.8 1.8 -0.3
v 0.8 1.7 -0.4
v 0.8 1.8 -0.4
v 0.8 2.1 -0.5
v 0.8 2.2 -0.5
v 0.8 1.7 -0.6
v 0.8 1.8 -0.6
v 0.8 1.7 -0.7
v 0.8 1.8 -0.7
v 0.8 1.9 -0.8
v 0.8 2 -0.8
v 0.8 1.7 -0.9
v 0.8 1.9 -0.9
v 0.8 2 -0.9
v 0.8 2.2 -0.9
v 0.7 1.9 0.9
v 0.7 2 0.9
v 0.7 1.9 0.8
v 0.7 2 0.8
v 0.7 1.7 0.7
v 0.7 1.8 0.7
v 0.7 1.7 0.6
v 0.7 1.8 0.6
v 0.7 1.4 0.4
v 0.7 1.7 0.4
v 0.7 1.8 0.4
v 0.7 1.7 0.3
v 0.7 1.8 0.3
v 0.7 1.4 0.2
v 0.7 1.7 0.2
v 0.7 1.4 -0.2
v 0.7 1.7 -0.2
v 0.7 1.7 -0.3
v 0.7 1.8 -0.3
v 0.7 1.4 -0.4
v 0.7 1.7 -0.4
v 0.7 1.8 -0.4
v 0.7 1.7 -0.6
v 0.7 1.8 -0.6
v 0.7 1.7 -0.7
v 0.7 1.8 -0.7
v 0.7 1.9 -0.8
v 0.7 2 -0.8
v 0.7 1.9 -0.9
v 0.7 2 -0.9
v 0.6 1.2 0.3
v 0.6 1.4 0.3
v 0.6 1.4 0.2
v 0.6 1.5 0.2
v 0.6 1.7 0.2
v 0.6 0.6 0.1
v 0.6 1.2 0.1
v 0.6 1.3 0.1
v 0.6 1.5 0.1
v 0.6 1.7 0.1
v 0.6 0.6 -0.1
v 0.6 1.2 -0.1
v 0.6 1.3 -0.1
v 0.6 1.5 -0.1
v 0.6 1.7 -0.1
v 0.6 1.4 -0.2
v 0.6 1.5 -0.2
v 0.6 1.7 -0.2
v 0.6 1.2 -0.3
v 0.6 1.4 -0.3
v 0.5 1.7 1.1
v 0.5 2.1 1.1
v 0.5 0.6 1
v 0.5 1.7 1
v 0.5 2.1 1
v 0.5 2.1 0.9
v 0.5 1.8 0.8
v 0.5 2.1 0.8
v 0.5 1.2 0.3
v 0.5 1.5 0.3
v 0.5 1.7 0.3
v 0.5 1.8 0.3
v 0.5 0.6 0.1
v 0.5 1.2 0.1
v 0.5 1.3 0.1
v 0.5 1.5 0.1
v 0.5 1.6 0.1
v 0.5 0.6 -0.1
v 0.5 1.2 -0.1
v 0.5 1.3 -0.1
v 0.5 1.5 -0.1
v 0.5 1.6 -0.1
v 0.5 1.2 -0.3
v 0.5 1.5 -0.3
v 0.5 1.7 -0.3
v 0.5 1.8 -0.3
v 0.5 1.1 -0.4
v 0.5 1.4 -0.4
v 0.5 1.1 -0.7
v 0.5 1.4 -0.7
v 0.5 1.8 -0.8
v 0.5 2.1 -0.8
v 0.5 2.1 -0.9
v 0.5 0.6 -1
v 0.5 1.7 -1
v 0.5 2.1 -1
v 0.5 1.7 -1.1
v 0.5 2.1 -1.1
v 0.4 2.1 0.5
v 0.4 2.2 0.5
v 0.4 1.6 0.1
v 0.4 2.1 0.1
v 0.4 1.6 -0.1
v 0.4 2.1 -0.1
v 0.4 2.1 -0.5
v 0.4 2.2 -0.5
v 0.6 1.7 0.9
v 0.6 2.1 0.9
v 0.6 1.8 0.8
v 0.6 2.1 0.8
v 0.6 1.4 0.4
v 0.6 1.7 0.4
v 0.6 1.4 0.3
v 0.6 1.5 0.3
v 0.6 1.7 0.3
v 0.6 1.8 0.3
v 0.6 1.4 -0.3
v 0.6 1.5 -0.3
v 0.6 1.7 -0.3
v 0.6 1.8 -0.3
v 0.6 1.4 -0.4
v 0.6 1.7 -0.4
v 0.6 1.8 -0.8
v 0.6 2.1 -0.8
v 0.6 1.7 -0.9
v 0.6 2.1 -0.9
v -0.5 1.7 1.1
v -0.5 2.1 1.1
v -0.5 0.6 1
v -0.5 1.7 1
v -0.5 2.1 1
v -0.5 2 0.9
v -0.5 2.1 0.9
v -0.5 1.9 0.7
v -0.5 2 0.7
v -0.5 1.9 0.5
v -0.5 2 0.5
v -0.5 1.9 0.4
v -0.5 2 0.4
v -0.5 1.9 0.2
v -0.5 2 0.2
v -0.5 1.9 0.1
v -0.5 2 0.1
v -0.5 1.9 -0.1
v -0.5 2 -0.1
v -0.5 1.9 -0.2
v -0.5 2 -0.2
v -0.5 1.9 -0.4
v -0.5 2 -0.4
v -0.5 1.9 -0.5
v -0.5 2 -0.5
v -0.5 1.9 -0.7
v -0.5 2 -0.7
v -0.5 2 -0.9
v -0.5 2.1 -0.9
v -0.5 0.6 -1
v -0.5 1.7 -1
v -0.5 2.1 -1
v -0.5 1.7 -1.1
v -0.5 2.1 -1.1
v -0.6 2 0.9
v -0.6 2.2 0.9
v -0.6 1.9 0.7
v -0.6 2 0.7
v -0.6 1.9 0.5
v -0.6 2 0.5
v -0.6 1.9 0.4
v -0.6 2 0.4
v -0.6 1.9 0.2
v -0.6 2 0.2
v -0.6 1.9 0.1
v -0.6 2 0.1
v -0.6 1.9 -0.1
v -0.6 2 -0.1
v -0.6 1.9 -0.2
v -0.6 2 -0.2
v -0.6 1.9 -0.4
v -0.6 2 -0.4
v -0.6 1.9 -0.5
v -0.6 2 -0.5
v -0.6 1.9 -0.7
v -0.6 2 -0.7
v -0.6 2 -0.9
v -0.6 2.2 -0.9
v 0.6 0.6 0.1
v 0.6 0.6 -0.1
v 0.5 0.6 1
v 0.5 0.6 0.1
v 0.5 0.6 -0.1
v 0.5 0.6 -1
v -0.5 0.6 1
v -0.5 0.6 -1
v 0.6 1.2 0.3
v 0.6 1.2 0.1
v 0.6 1.2 -0.1
v 0.6 1.2 -0.3
v 0.5 1.2 0.3
v 0.5 1.2 0.1
v 0.5 1.2 -0.1
v 0.5 1.2 -0.3
v 0.7 1.4 0.4
v 0.7 1.4 0.2
v 0.7 1.4 -0.2
v 0.7 1.4 -0.4
v 0.6 1.4 0.4
v 0.6 1.4 0.3
v 0.6 1.4 0.2
v 0.6 1.4 -0.2
v 0.6 1.4 -0.3
v 0.6 1.4 -0.4
v 0.8 1.7 0.9
v 0.8 1.7 0.7
v 0.8 1.7 0.6
v 0.8 1.7 0.4
v 0.8 1.7 0.3
v 0.8 1.7 0.1
v 0.8 1.7 -0.1
v 0.8 1.7 -0.3
v 0.8 1.7 -0.4
v 0.8 1.7 -0.6
v 0.8 1.7 -0.7
v 0.8 1.7 -0.9
v 0.7 1.7 0.7
v 0.7 1.7 0.6
v 0.7 1.7 0.4
v 0.7 1.7 0.3
v 0.7 1.7 0.2
v 0.7 1.7 -0.2
v 0.7 1.7 -0.3
v 0.7 1.7 -0.4
v 0.7 1.7 -0.6
v 0.7 1.7 -0.7
v 0.6 1.7 0.9
v 0.6 1.7 0.4
v 0.6 1.7 0.2
v 0.6 1.7 0.1
v 0.6 1.7 -0.1
v 0.6 1.7 -0.2
v 0.6 1.7 -0.4
v 0.6 1.7 -0.9
v 0.5 1.7 1.1
v 0.5 1.7 1
v 0.5 1.7 -1
v 0.5 1.7 -1.1
v -0.5 1.7 1.1
v -0.5 1.7 1
v -0.5 1.7 -1
v -0.5 1.7 -1.1
v 0.8 1.8 0.7
v 0.8 1.8 0.6
v 0.8 1.8 0.4
v 0.8 1.8 0.3
v 0.8 1.8 -0.3
v 0.8 1.8 -0.4
v 0.8 1.8 -0.6
v 0.8 1.8 -0.7
v 0.7 1.8 0.7
v 0.7 1.8 0.6
v 0.7 1.8 0.4
v 0.7 1.8 0.3
v 0.7 1.8 -0.3
v 0.7 1.8 -0.4
v 0.7 1.8 -0.6
v 0.7 1.8 -0.7
v 0.6 1.8 0.8
v 0.6 1.8 0.3
v 0.6 1.8 -0.3
v 0.6 1.8 -0.8
v 0.5 1.8 0.8
v 0.5 1.8 0.3
v 0.5 1.8 -0.3
v 0.5 1.8 -0.8
v -0.5 1.9 0.7
v -0.5 1.9 0.5
v -0.5 1.9 0.4
v -0.5 1.9 0.2
v -0.5 1.9 0.1
v -0.5 1.9 -0.1
v -0.5 1.9 -0.2
v -0.5 1.9 -0.4
v -0.5 1.9 -0.5
v -0.5 1.9 -0.7
v -0.6 1.9 0.7
v -0.6 1.9 0.5
v -0.6 1.9 0.4
v -0.6 1.9 0.2
v -0.6 1.9 0.1
v -0.6 1.9 -0.1
v -0.6 1.9 -0.2
v -0.6 1.9 -0.4
v -0.6 1.9 -0.5
v -0.6 1.9 -0.7
v 0.8 2 0.9
v 0.8 2 0.8
v 0.8 2 -0.8
v 0.8 2 -0.9
v 0.7 2 0.9
v 0.7 2 0.8
v 0.7 2 -0.8
v 0.7 2 -0.9
v -0.5 2 0.9
v -0.5 2 0.7
v -0.5 2 0.5
v -0.5 2 0.4
v -0.5 2 0.2
v -0.5 2 0.1
v -0.5 2 -0.1
v -0.5 2 -0.2
v -0.5 2 -0.4
v -0.5 2 -0.5
v -0.5 2 -0.7
v -0.5 2 -0.9
v -0.6 2 0.9
v -0.6 2 0.7
v -0.6 2 0.5
v -0.6 2 0.4
v -0.6 2 0.2
v -0.6 2 0.1
v -0.6 2 -0.1
v -0.6 2 -0.2
v -0.6 2 -0.4
v -0.6 2 -0.5
v -0.6 2 -0.7
v -0.6 2 -0.9
v 0.6 2.1 0.9
v 0.6 2.1 0.8
v 0.6 2.1 -0.8
v 0.6 2.1 -0.9
v 0.5 2.1 0.9
v 0.5 2.1 0.8
v 0.5 2.1 -0.8
v 0.5 2.1 -0.9
v 0.6 1.3 0.1
v 0.6 1.3 -0.1
v 0.5 1.3 0.1
v 0.5 1.3 -0.1
v 0.5 1.6 0.1
v 0.5 1.6 -0.1
v 0.4 1.6 0.1
v 0.4 1.6 -0.1
v 0.8 1.9 0.9
v 0.8 1.9 0.8
v 0.8 1.9 -0.8
v 0.8 1.9 -0.9
v 0.7 1.9 0.9
v 0.7 1.9 0.8
v 0.7 1.9 -0.8
v 0.7 1.9 -0.9
v 0.8 2.1 0.5
v 0.8 2.1 0.1
v 0.8 2.1 -0.1
v 0.8 2.1 -0.5
v 0.5 2.1 1.1
v 0.5 2.1 1
v 0.5 2.1 0.9
v 0.5 2.1 -0.9
v 0.5 2.1 -1
v 0.5 2.1 -1.1
v 0.4 2.1 0.5
v 0.4 2.1 0.1
v 0.4 2.1 -0.1
v 0.4 2.1 -0.5
v -0.5 2.1 1.1
v -0.5 2.1 1
v -0.5 2.1 0.9
v -0.5 2.1 -0.9
v -0.5 2.1 -1
v -0.5 2.1 -1.1
v 0.8 2.2 0.9
v 0.8 2.2 0.5
v 0.8 2.2 -0.5
v 0.8 2.2 -0.9
v 0.4 2.2 0.5
v 0.4 2.2 -0.5
v -0.4 2.2 0.5
v -0.4 2.2 -0.5
v -0.6 2.2 0.9
v -0.6 2.2 -0.9

# faces
f 3/4/1 2/4/1 1/4/1
f 4/4/1 2/4/1 3/4/1
f 7/3/1 6/3/1 5/3/1
f 8/3/1 6/3/1 7/3/1
f 11/1/1 10/1/1 9/1/1
f 12/1/1 10/1/1 11/1/1
f 14/1/1 10/1/1 12/1/1
f 17/1/1 10/1/1 14/1/1
f 17/1/1 14/1/1 13/1/1
f 19/1/1 16/1/1 15/1/1
f 20/1/1 18/1/1 17/1/1
f 20/1/1 19/1/1 18/1/1
f 20/1/1 17/1/1 13/1/1
f 21/1/1 16/1/1 19/1/1
f 21/1/1 19/1/1 20/1/1
f 26/1/1 25/1/1 24/1/1
f 27/1/1 25/1/1 26/1/1
f 28/1/1 23/1/1 22/1/1
f 29/1/1 23/1/1 28/1/1
f 32/1/1 31/1/1 30/1/1
f 33/1/1 31/1/1 32/1/1
f 36/1/1 35/1/1 34/1/1
f 37/1/1 35/1/1 36/1/1
f 40/4/1 39/4/1 38/4/1
f 41/4/1 39/4/1 40/4/1
f 44/1/1 43/1/1 42/1/1
f 45/1/1 43/1/1 44/1/1
f 48/4/1 47/4/1 46/4/1
f 49/4/1 47/4/1 48/4/1
f 50/4/1 47/4/1 49/4/1
f 53/3/1 50/3/1 49/3/1
f 54/3/1 50/3/1 53/3/1
f 55/1/1 52/1/1 51/1/1
f 56/1/1 52/1/1 55/1/1
f 57/1/1 54/1/1 53/1/1
f 58/1/1 54/1/1 57/1/1
f 61/4/1 60/4/1 59/4/1
f 62/4/1 60/4/1 61/4/1
f 65/1/1 64/1/1 63/1/1
f 66/1/1 64/1/1 65/1/1
f 69/4/1 68/4/1 67/4/1
f 70/4/1 68/4/1 69/4/1
f 71/1/1 70/1/1 69/1/1
f 74/1/1 71/1/1 69/1/1
f 74/1/1 72/1/1 71/1/1
f 75/1/1 74/1/1 73/1/1
f 76/1/1 72/1/1 74/1/1
f 76/1/1 74/1/1 75/1/1
f 79/4/1 78/4/1 77/4/1
f 80/4/1 79/4/1 77/4/1
f 81/4/1 79/4/1 80/4/1
f 84/1/1 83/1/1 82/1/1
f 85/1/1 83/1/1 84/1/1
f 88/1/1 87/1/1 86/1/1
f 89/1/1 87/1/1 88/1/1
f 92/1/1 91/1/1 90/1/1
f 93/1/1 91/1/1 92/1/1
f 96/1/1 95/1/1 94/1/1
f 97/1/1 95/1/1 96/1/1
f 100/1/1 99/1/1 98/1/1
f 101/1/1 99/1/1 100/1/1
f 102/1/2 103/1/2 104/1/2
f 104/1/2 103/1/2 105/1/2
f 106/1/2 107/1/2 108/1/2
f 108/1/2 107/1/2 109/1/2
f 110/1/2 111/1/2 112/1/2
f 112/1/2 111/1/2 113/1/2
f 114/1/2 115/1/2 116/1/2
f 116/1/2 115/1/2 117/1/2
f 118/4/2 119/4/2 120/4/2
f 118/4/2 120/4/2 121/4/2
f 121/4/2 120/4/2 122/4/2
f 123/1/2 124/1/2 125/1/2
f 125/1/2 124/1/2 126/1/2
f 127/4/2 128/4/2 129/4/2
f 129/4/2 128/4/2 130/4/2
f 129/1/2 130/1/2 131/1/2
f 129/1/2 131/1/2 134/1/2
f 131/1/2 132/1/2 134/1/2
f 133/1/2 134/1/2 135/1/2
f 134/1/2 132/1/2 136/1/2
f 135/1/2 134/1/2 136/1/2
f 137/4/2 138/4/2 139/4/2
f 139/4/2 138/4/2 140/4/2
f 141/1/2 142/1/2 143/1/2
f 143/1/2 142/1/2 144/1/2
f 145/4/2 146/4/2 147/4/2
f 147/4/2 146/4/2 148/4/2
f 148/4/2 146/4/2 149/4/2
f 148/3/2 149/3/2 152/3/2
f 152/3/2 149/3/2 153/3/2
f 150/1/2 151/1/2 154/1/2
f 154/1/2 151/1/2 155/1/2
f 152/1/2 153/1/2 156/1/2
f 156/1/2 153/1/2 157/1/2
f 158/4/2 159/4/2 160/4/2
f 160/4/2 159/4/2 161/4/2
f 162/1/2 163/1/2 164/1/2
f 164/1/2 163/1/2 165/1/2
f 166/1/2 167/1/2 168/1/2
f 168/1/2 167/1/2 169/1/2
f 170/1/2 171/1/2 172/1/2
f 172/1/2 171/1/2 173/1/2
f 176/1/2 177/1/2 178/1/2
f 178/1/2 177/1/2 179/1/2
f 174/1/2 175/1/2 180/1/2
f 180/1/2 175/1/2 181/1/2
f 182/1/2 183/1/2 184/1/2
f 184/1/2 183/1/2 185/1/2
f 185/1/2 183/1/2 187/1/2
f 187/1/2 183/1/2 190/1/2
f 186/1/2 187/1/2 190/1/2
f 188/1/2 189/1/2 192/1/2
f 190/1/2 191/1/2 193/1/2
f 191/1/2 192/1/2 193/1/2
f 186/1/2 190/1/2 193/1/2
f 192/1/2 189/1/2 194/1/2
f 193/1/2 192/1/2 194/1/2
f 195/3/2 196/3/2 197/3/2
f 197/3/2 196/3/2 198/3/2
f 199/4/2 200/4/2 201/4/2
f 201/4/2 200/4/2 202/4/2
f 207/1/3 204/1/3 203/1/3
f 208/1/3 206/1/3 205/1/3
f 209/1/3 207/1/3 203/1/3
f 209/1/3 208/1/3 207/1/3
f 210/1/3 208/1/3 209/1/3
f 212/1/3 208/1/3 210/1/3
f 213/1/3 206/1/3 208/1/3
f 213/1/3 212/1/3 211/1/3
f 213/1/3 208/1/3 212/1/3
f 214/1/3 206/1/3 213/1/3
f 215/1/3 213/1/3 211/1/3
f 216/1/3 213/1/3 215/1/3
f 218/1/3 213/1/3 216/1/3
f 219/1/3 218/1/3 217/1/3
f 220/1/3 213/1/3 218/1/3
f 220/1/3 218/1/3 219/1/3
f 223/1/3 222/1/3 221/1/3
f 224/1/3 222/1/3 223/1/3
f 226/1/3 222/1/3 224/1/3
f 227/1/3 222/1/3 226/1/3
f 227/1/3 226/1/3 225/1/3
f 229/1/3 227/1/3 225/1/3
f 229/1/3 228/1/3 227/1/3
f 230/1/3 228/1/3 229/1/3
f 232/1/3 228/1/3 230/1/3
f 233/1/3 228/1/3 232/1/3
f 233/1/3 232/1/3 231/1/3
f 234/1/3 228/1/3 233/1/3
f 235/1/3 233/1/3 231/1/3
f 236/1/3 233/1/3 235/1/3
f 237/1/3 228/1/3 234/1/3
f 238/1/3 228/1/3 237/1/3
f 241/1/3 240/1/3 239/1/3
f 242/1/3 240/1/3 241/1/3
f 245/1/3 244/1/3 243/1/3
f 246/1/3 244/1/3 245/1/3
f 250/4/3 248/4/3 247/4/3
f 250/1/3 249/1/3 248/1/3
f 251/1/3 249/1/3 250/1/3
f 252/4/3 250/4/3 247/4/3
f 253/4/3 250/4/3 252/4/3
f 256/4/3 255/4/3 254/4/3
f 258/4/3 256/4/3 254/4/3
f 259/1/3 257/1/3 256/1/3
f 259/4/3 256/4/3 258/4/3
f 260/1/3 257/1/3 259/1/3
f 263/1/3 262/1/3 261/1/3
f 264/1/3 262/1/3 263/1/3
f 267/1/3 266/1/3 265/1/3
f 268/1/3 266/1/3 267/1/3
f 271/4/3 270/4/3 269/4/3
f 275/4/3 271/4/3 269/4/3
f 275/4/3 272/4/3 271/4/3
f 276/4/3 272/4/3 275/4/3
f 277/1/3 273/1/3 272/1/3
f 277/4/3 272/4/3 276/4/3
f 278/1/3 273/1/3 277/1/3
f 279/4/3 276/4/3 275/4/3
f 279/4/3 275/4/3 274/4/3
f 280/4/3 276/4/3 279/4/3
f 281/4/3 276/4/3 280/4/3
f 284/4/3 281/4/3 280/4/3
f 284/4/3 282/4/3 281/4/3
f 285/1/3 283/1/3 282/1/3
f 285/4/3 282/4/3 284/4/3
f 286/1/3 283/1/3 285/1/3
f 287/4/3 284/4/3 280/4/3
f 288/4/3 284/4/3 287/4/3
f 292/4/3 290/4/3 289/4/3
f 293/4/3 290/4/3 292/4/3
f 294/3/3 292/3/3 291/3/3
f 294/3/3 293/3/3 292/3/3
f 295/3/3 294/3/3 291/3/3
f 296/3/3 294/3/3 295/3/3
f 297/3/3 295/3/3 291/3/3
f 298/3/3 295/3/3 297/3/3
f 299/3/3 295/3/3 298/3/3
f 300/3/3 295/3/3 299/3/3
f 301/3/3 297/3/3 291/3/3
f 302/3/3 297/3/3 301/3/3
f 308/1/3 305/1/3 304/1/3
f 308/1/3 304/1/3 303/1/3
f 309/1/3 305/1/3 308/1/3
f 310/1/3 305/1/3 309/1/3
f 311/3/3 307/3/3 306/3/3
f 315/3/3 312/3/3 311/3/3
f 315/3/3 314/3/3 313/3/3
f 315/3/3 313/3/3 312/3/3
f 315/3/3 311/3/3 306/3/3
f 316/3/3 314/3/3 315/3/3
f 317/3/3 315/3/3 306/3/3
f 317/5/3 316/5/3 315/5/3
f 318/3/3 314/3/3 316/3/3
f 318/5/3 316/5/3 317/5/3
f 319/3/3 318/3/3 317/3/3
f 319/3/3 314/3/3 318/3/3
f 321/3/3 320/3/3 319/3/3
f 322/3/3 319/3/3 317/3/3
f 322/3/3 317/3/3 306/3/3
f 322/3/3 321/3/3 319/3/3
f 323/3/3 321/3/3 322/3/3
f 324/3/3 321/3/3 323/3/3
f 325/4/3 324/4/3 323/4/3
f 326/4/3 324/4/3 325/4/3
f 330/2/3 328/2/3 327/2/3
f 331/2/3 330/2/3 329/2/3
f 332/2/3 328/2/3 330/2/3
f 332/2/3 330/2/3 331/2/3
f 333/2/3 328/2/3 332/2/3
f 334/2/3 328/2/3 333/2/3
f 335/1/4 336/1/4 337/1/4
f 337/1/4 336/1/4 338/1/4
f 335/1/4 337/1/4 340/1/4
f 339/4/4 340/4/4 341/4/4
f 341/4/4 340/4/4 342/4/4
f 340/1/4 337/1/4 343/1/4
f 342/4/4 340/4/4 343/4/4
f 343/1/4 337/1/4 344/1/4
f 345/4/4 346/4/4 349/4/4
f 346/4/4 347/4/4 349/4/4
f 347/1/4 348/1/4 350/1/4
f 349/4/4 347/4/4 350/4/4
f 350/1/4 348/1/4 351/1/4
f 350/1/4 351/1/4 353/1/4
f 351/1/4 352/1/4 353/1/4
f 353/1/4 352/1/4 354/1/4
f 355/4/4 356/4/4 358/4/4
f 358/4/4 356/4/4 359/4/4
f 357/3/4 358/3/4 360/3/4
f 358/3/4 359/3/4 360/3/4
f 360/3/4 359/3/4 361/3/4
f 357/3/4 360/3/4 362/3/4
f 362/3/4 360/3/4 363/3/4
f 357/3/4 362/3/4 364/3/4
f 357/3/4 364/3/4 366/3/4
f 364/3/4 365/3/4 366/3/4
f 366/3/4 365/3/4 367/3/4
f 357/3/4 366/3/4 368/3/4
f 357/3/4 368/3/4 370/3/4
f 368/3/4 369/3/4 370/3/4
f 370/3/4 369/3/4 371/3/4
f 357/3/4 370/3/4 372/3/4
f 357/3/4 372/3/4 374/3/4
f 372/3/4 373/3/4 374/3/4
f 374/3/4 373/3/4 375/3/4
f 357/3/4 374/3/4 376/3/4
f 357/3/4 376/3/4 378/3/4
f 376/3/4 377/3/4 378/3/4
f 378/3/4 377/3/4 379/3/4
f 357/3/4 378/3/4 380/3/4
f 380/3/4 381/3/4 382/3/4
f 380/3/4 382/3/4 384/3/4
f 382/3/4 383/3/4 384/3/4
f 357/3/4 380/3/4 384/3/4
f 384/3/4 383/3/4 385/3/4
f 385/3/4 383/3/4 386/3/4
f 385/4/4 386/4/4 387/4/4
f 387/4/4 386/4/4 388/4/4
f 389/1/4 390/1/4 392/1/4
f 391/1/4 392/1/4 393/1/4
f 392/1/4 390/1/4 394/1/4
f 393/1/4 392/1/4 394/1/4
f 394/1/4 390/1/4 396/1/4
f 395/1/4 396/1/4 397/1/4
f 396/1/4 390/1/4 398/1/4
f 397/1/4 396/1/4 398/1/4
f 398/1/4 390/1/4 400/1/4
f 399/1/4 400/1/4 401/1/4
f 400/1/4 390/1/4 402/1/4
f 401/1/4 400/1/4 402/1/4
f 402/1/4 390/1/4 404/1/4
f 403/1/4 404/1/4 405/1/4
f 404/1/4 390/1/4 406/1/4
f 405/1/4 404/1/4 406/1/4
f 406/1/4 390/1/4 408/1/4
f 407/1/4 408/1/4 409/1/4
f 408/1/4 390/1/4 410/1/4
f 409/1/4 408/1/4 410/1/4
f 410/1/4 390/1/4 411/1/4
f 411/1/4 390/1/4 412/1/4
f 416/4/5 414/4/5 413/4/5
f 417/4/5 414/4/5 416/4/5
f 419/3/5 416/3/5 415/3/5
f 419/3/5 418/3/5 417/3/5
f 419/3/5 417/3/5 416/3/5
f 420/3/5 418/3/5 419/3/5
f 425/4/5 422/4/5 421/4/5
f 426/4/5 422/4/5 425/4/5
f 427/4/5 424/4/5 423/4/5
f 428/4/5 424/4/5 427/4/5
f 433/4/5 430/4/5 429/4/5
f 434/4/5 430/4/5 433/4/5
f 435/4/5 430/4/5 434/4/5
f 436/4/5 432/4/5 431/4/5
f 437/4/5 432/4/5 436/4/5
f 438/4/5 432/4/5 437/4/5
f 451/1/5 440/1/5 439/1/5
f 452/1/5 442/1/5 441/1/5
f 453/1/5 442/1/5 452/1/5
f 454/1/5 444/1/5 443/1/5
f 455/1/5 444/1/5 454/1/5
f 456/1/5 446/1/5 445/1/5
f 457/1/5 446/1/5 456/1/5
f 458/1/5 448/1/5 447/1/5
f 459/1/5 448/1/5 458/1/5
f 460/1/5 450/1/5 449/1/5
f 461/1/5 451/1/5 439/1/5
f 461/1/5 453/1/5 452/1/5
f 461/1/5 452/1/5 451/1/5
f 462/1/5 453/1/5 461/1/5
f 463/1/5 444/1/5 455/1/5
f 464/1/5 444/1/5 463/1/5
f 465/1/5 456/1/5 445/1/5
f 466/1/5 456/1/5 465/1/5
f 467/1/5 459/1/5 458/1/5
f 467/1/5 460/1/5 459/1/5
f 468/1/5 450/1/5 460/1/5
f 468/1/5 460/1/5 467/1/5
f 473/4/5 470/4/5 469/4/5
f 474/4/5 470/4/5 473/4/5
f 475/4/5 472/4/5 471/4/5
f 476/4/5 472/4/5 475/4/5
f 485/1/5 478/1/5 477/1/5
f 486/1/5 478/1/5 485/1/5
f 487/1/5 480/1/5 479/1/5
f 488/1/5 480/1/5 487/1/5
f 489/1/5 482/1/5 481/1/5
f 490/1/5 482/1/5 489/1/5
f 491/1/5 484/1/5 483/1/5
f 492/1/5 484/1/5 491/1/5
f 497/1/5 494/1/5 493/1/5
f 498/1/5 494/1/5 497/1/5
f 499/1/5 496/1/5 495/1/5
f 500/1/5 496/1/5 499/1/5
f 511/1/5 502/1/5 501/1/5
f 512/1/5 502/1/5 511/1/5
f 513/1/5 504/1/5 503/1/5
f 514/1/5 504/1/5 513/1/5
f 515/1/5 506/1/5 505/1/5
f 516/1/5 506/1/5 515/1/5
f 517/1/5 508/1/5 507/1/5
f 518/1/5 508/1/5 517/1/5
f 519/1/5 510/1/5 509/1/5
f 520/1/5 510/1/5 519/1/5
f 525/1/5 522/1/5 521/1/5
f 526/1/5 522/1/5 525/1/5
f 527/1/5 524/1/5 523/1/5
f 528/1/5 524/1/5 527/1/5
f 541/1/5 530/1/5 529/1/5
f 542/1/5 530/1/5 541/1/5
f 543/1/5 532/1/5 531/1/5
f 544/1/5 532/1/5 543/1/5
f 545/1/5 534/1/5 533/1/5
f 546/1/5 534/1/5 545/1/5
f 547/1/5 536/1/5 535/1/5
f 548/1/5 536/1/5 547/1/5
f 549/1/5 538/1/5 537/1/5
f 550/1/5 538/1/5 549/1/5
f 551/1/5 540/1/5 539/1/5
f 552/1/5 540/1/5 551/1/5
f 557/1/5 554/1/5 553/1/5
f 558/1/5 554/1/5 557/1/5
f 559/1/5 556/1/5 555/1/5
f 560/1/5 556/1/5 559/1/5
f 561/4/6 562/4/6 563/4/6
f 563/4/6 562/4/6 564/4/6
f 565/1/6 566/1/6 567/1/6
f 567/1/6 566/1/6 568/1/6
f 569/1/6 570/1/6 573/1/6
f 573/1/6 570/1/6 574/1/6
f 571/1/6 572/1/6 575/1/6
f 575/1/6 572/1/6 576/1/6
f 577/1/6 578/1/6 587/1/6
f 587/1/6 578/1/6 588/1/6
f 579/1/6 580/1/6 589/1/6
f 589/1/6 580/1/6 590/1/6
f 581/4/6 582/4/6 591/4/6
f 582/3/6 583/3/6 592/3/6
f 591/4/6 582/4/6 592/4/6
f 592/3/6 583/3/6 593/3/6
f 584/3/6 585/3/6 594/3/6
f 585/4/6 586/4/6 595/4/6
f 594/3/6 585/3/6 595/3/6
f 595/4/6 586/4/6 596/4/6
f 597/1/6 598/1/6 601/1/6
f 599/1/6 600/1/6 602/1/6
f 597/1/6 601/1/6 603/1/6
f 601/2/6 602/2/6 603/2/6
f 602/1/6 600/1/6 604/1/6
f 603/2/6 602/2/6 604/2/6
f 597/1/6 603/1/6 605/1/6
f 603/1/6 604/1/6 605/1/6
f 604/1/6 600/1/6 606/1/6
f 605/1/6 604/1/6 606/1/6
