# MagicaVoxel @ Ephtracy

# group
o 

# material
mtllib model-0.mtl
usemtl palette

# normals
vn -1 0 0
vn 1 0 0
vn 0 0 1
vn 0 0 -1
vn 0 -1 0
vn 0 1 0

# texcoords
vt 0.0527344 0.5
vt 0.0566406 0.5
vt 0.314453 0.5
vt 0.353516 0.5
vt 0.357422 0.5
vt 0.517578 0.5
vt 0.759766 0.5

# verts
v -1.2 1.8 1.4
v -1.2 1.8 1.3
v -1.2 1.9 1.4
v -1.2 1.9 1.3
v -1.2 2 1.4
v -1.2 2 1.3
v -1.2 2.4 1.4
v -1.2 2.4 1.3
v -1.1 1.1 0.6
v -1.1 1.1 0.3
v -1.1 1.2 0.6
v -1.1 1.2 0.3
v -1.1 1.3 0.6
v -1.1 1.3 0.3
v -1.1 1.4 1.4
v -1.1 1.4 1.3
v -1.1 1.4 0.6
v -1.1 1.4 0.3
v -1.1 1.8 1.4
v -1.1 1.8 1.3
v -1.1 2.4 1.4
v -1.1 2.4 1.3
v -1.1 2.7 1.4
v -1.1 2.7 1.3
v -1 1.1 1.4
v -1 1.1 1.3
v -1 1.4 1.4
v -1 1.4 1.3
v -1 1.9 1.4
v -1 1.9 1.3
v -1 2 1.4
v -1 2 1.3
v -1 2.5 1.1
v -1 2.5 -1.1
v -1 2.6 -0.1
v -1 2.6 -1.1
v -1 2.7 1.1
v -1 2.7 0.6
v -1 2.7 -0.1
v -1 2.7 -1.1
v -1 2.8 1.1
v -1 2.8 0.6
v -1 2.9 1.1
v -1 2.9 0.0999999
v -1 2.9 -0.5
v -1 2.9 -1.1
v -1 3 1.1
v -1 3 0.0999999
v -1 3 -0.5
v -1 3 -1.1
v -1 3.1 1.1
v -1 3.1 -1.1
v -0.8 2.5 1.3
v -0.8 2.5 1.1
v -0.8 2.5 -1.1
v -0.8 2.5 -1.3
v -0.8 2.6 1.3
v -0.8 2.6 -1.1
v -0.8 2.6 -1.3
v -0.8 2.7 1.3
v -0.8 2.7 1.1
v -0.8 2.7 -1.1
v -0.8 2.7 -1.3
v -0.8 2.8 1.3
v -0.8 2.8 1.1
v -0.8 2.9 1.1
v -0.8 2.9 -1.1
v -0.8 2.9 -1.3
v -0.8 3 1.1
v -0.8 3 -1.1
v -0.8 3 -1.3
v -0.8 3.1 1.3
v -0.8 3.1 1.1
v -0.8 3.1 -1.1
v -0.8 3.1 -1.3
v -0.8 3.3 2
v -0.8 3.3 1.7
v -0.8 3.3 1.6
v -0.8 3.3 1.4
v -0.8 3.4 2.2
v -0.8 3.4 2
v -0.8 3.4 1.7
v -0.8 3.4 1.6
v -0.8 3.5 2.2
v -0.8 3.5 2
v -0.8 3.5 1.9
v -0.8 3.5 1.8
v -0.8 3.6 2
v -0.8 3.6 1.9
v -0.8 3.6 1.8
v -0.8 3.6 1.4
v -0.6 0.9 -1.2
v -0.6 0.9 -1.4
v -0.6 1 -1.2
v -0.6 1 -1.4
v -0.6 1.1 -1.2
v -0.6 1.1 -1.4
v -0.6 1.2 -1.2
v -0.6 1.2 -1.4
v -0.6 2.9 2
v -0.6 2.9 1.8
v -0.6 2.9 1.7
v -0.6 2.9 1.3
v -0.6 3 2.2
v -0.6 3 2
v -0.6 3 1.8
v -0.6 3 1.7
v -0.6 3.1 2.2
v -0.6 3.1 2
v -0.6 3.1 1.7
v -0.6 3.1 1.6
v -0.6 3.1 1.4
v -0.6 3.1 1.3
v -0.6 3.2 2
v -0.6 3.2 1.7
v -0.6 3.2 1.6
v -0.6 3.2 1.4
v 0.3 1.3 1.4
v 0.3 1.3 1.2
v 0.3 1.4 1.4
v 0.3 1.4 1.2
v 0.3 1.5 1.4
v 0.3 1.5 1.2
v 0.3 1.6 1.4
v 0.3 1.6 1.2
v -0.9 1.1 1.4
v -0.9 1.1 1.3
v -0.9 1.1 0.6
v -0.9 1.1 0.3
v -0.9 1.2 0.6
v -0.9 1.2 0.3
v -0.9 1.3 0.6
v -0.9 1.3 0.3
v -0.9 1.4 1.4
v -0.9 1.4 1.3
v -0.9 1.4 0.6
v -0.9 1.4 0.3
v -0.9 1.6 1.4
v -0.9 1.6 1.3
v -0.9 1.7 1.4
v -0.9 1.7 1.3
v -0.9 2.1 1.4
v -0.9 2.1 1.3
v -0.9 2.2 1.4
v -0.9 2.2 1.3
v -0.9 2.6 1.4
v -0.9 2.6 1.3
v -0.9 2.7 1.4
v -0.9 2.7 1.3
v -0.8 1.4 1.4
v -0.8 1.4 1.3
v -0.8 1.6 1.4
v -0.8 1.6 1.3
v -0.8 1.7 1.4
v -0.8 1.7 1.3
v -0.8 1.8 1.4
v -0.8 1.8 1.3
v -0.8 2.4 1.4
v -0.8 2.4 1.3
v -0.8 2.5 1.3
v -0.8 2.6 1.4
v -0.8 2.6 1.3
v -0.7 1.8 1.4
v -0.7 1.8 1.3
v -0.7 2.1 1.4
v -0.7 2.1 1.3
v -0.7 2.2 1.4
v -0.7 2.2 1.3
v -0.7 2.4 1.4
v -0.7 2.4 1.3
v -0.7 3.3 2
v -0.7 3.3 1.7
v -0.7 3.3 1.6
v -0.7 3.3 1.4
v -0.7 3.4 2.2
v -0.7 3.4 2
v -0.7 3.4 1.7
v -0.7 3.4 1.6
v -0.7 3.5 2.2
v -0.7 3.5 2
v -0.7 3.5 1.9
v -0.7 3.5 1.8
v -0.7 3.6 2
v -0.7 3.6 1.9
v -0.7 3.6 1.8
v -0.7 3.6 1.4
v -0.5 2.9 2
v -0.5 2.9 1.8
v -0.5 2.9 1.7
v -0.5 2.9 1.3
v -0.5 3 2.2
v -0.5 3 2
v -0.5 3 1.8
v -0.5 3 1.7
v -0.5 3.1 2.2
v -0.5 3.1 2
v -0.5 3.1 1.7
v -0.5 3.1 1.6
v -0.5 3.1 1.4
v -0.5 3.1 1.3
v -0.5 3.2 2
v -0.5 3.2 1.7
v -0.5 3.2 1.6
v -0.5 3.2 1.4
v -0.3 0.9 -1.2
v -0.3 0.9 -1.4
v -0.3 1 -1.2
v -0.3 1 -1.4
v -0.3 1.1 -1.2
v -0.3 1.1 -1.4
v -0.3 1.2 -1.2
v -0.3 1.2 -1.4
v 0.6 1.3 1.4
v 0.6 1.3 1.2
v 0.6 1.4 1.4
v 0.6 1.4 1.2
v 0.6 1.5 1.4
v 0.6 1.5 1.2
v 0.6 1.6 1.4
v 0.6 1.6 1.2
v 0.8 2.5 1.3
v 0.8 2.5 1.1
v 0.8 2.5 -1.1
v 0.8 2.5 -1.3
v 0.8 2.6 1.3
v 0.8 2.6 1.1
v 0.8 2.7 1.3
v 0.8 2.7 1.1
v 0.8 2.7 -1.1
v 0.8 2.7 -1.3
v 0.8 2.8 -1.1
v 0.8 2.8 -1.3
v 0.8 2.9 1.3
v 0.8 2.9 1.1
v 0.8 2.9 -1.1
v 0.8 3 1.3
v 0.8 3 1.1
v 0.8 3 -1.1
v 0.8 3.1 1.3
v 0.8 3.1 1.1
v 0.8 3.1 -1.1
v 0.8 3.1 -1.3
v 1 2.5 1.1
v 1 2.5 -1.1
v 1 2.6 1.1
v 1 2.6 0.3
v 1 2.7 1.1
v 1 2.7 0.3
v 1 2.7 -0.4
v 1 2.7 -1.1
v 1 2.8 0.6
v 1 2.8 -0.2
v 1 2.8 -0.4
v 1 2.8 -0.5
v 1 2.8 -0.8
v 1 2.8 -1.1
v 1 2.9 0.6
v 1 2.9 -0.2
v 1 2.9 -0.5
v 1 2.9 -0.8
v 1 2.9 -1.1
v 1 3 -0.5
v 1 3 -0.8
v 1 3 -1.1
v 1 3.1 1.1
v 1 3.1 -0.5
v 1 3.1 -0.8
v 1 3.1 -1.1
v 1.2 2.8 -0.5
v 1.2 2.8 -0.8
v 1.2 2.9 -0.5
v 1.2 2.9 -0.8
v 1.2 3 -0.5
v 1.2 3 -0.8
v 1.2 3.1 -0.5
v 1.2 3.1 -0.8
v -0.8 3.4 2.2
v -0.8 3.5 2.2
v -0.7 3.4 2.2
v -0.7 3.5 2.2
v -0.6 3 2.2
v -0.6 3.1 2.2
v -0.5 3 2.2
v -0.5 3.1 2.2
v -0.8 3.3 2
v -0.8 3.4 2
v -0.8 3.5 2
v -0.8 3.6 2
v -0.7 3.3 2
v -0.7 3.4 2
v -0.7 3.5 2
v -0.7 3.6 2
v -0.6 2.9 2
v -0.6 3 2
v -0.6 3.1 2
v -0.6 3.2 2
v -0.5 2.9 2
v -0.5 3 2
v -0.5 3.1 2
v -0.5 3.2 2
v -0.8 3.5 1.8
v -0.8 3.6 1.8
v -0.7 3.5 1.8
v -0.7 3.6 1.8
v -0.6 2.9 1.7
v -0.6 3 1.7
v -0.5 2.9 1.7
v -0.5 3 1.7
v -0.8 3.3 1.6
v -0.8 3.4 1.6
v -0.7 3.3 1.6
v -0.7 3.4 1.6
v -0.6 3.1 1.6
v -0.6 3.2 1.6
v -0.5 3.1 1.6
v -0.5 3.2 1.6
v -1.2 1.8 1.4
v -1.2 1.9 1.4
v -1.2 2 1.4
v -1.2 2.4 1.4
v -1.1 1.4 1.4
v -1.1 1.8 1.4
v -1.1 2.4 1.4
v -1.1 2.7 1.4
v -1 1.1 1.4
v -1 1.4 1.4
v -1 1.9 1.4
v -1 2 1.4
v -0.9 1.1 1.4
v -0.9 1.4 1.4
v -0.9 1.6 1.4
v -0.9 1.7 1.4
v -0.9 2.1 1.4
v -0.9 2.2 1.4
v -0.9 2.6 1.4
v -0.9 2.7 1.4
v -0.8 1.4 1.4
v -0.8 1.6 1.4
v -0.8 1.7 1.4
v -0.8 1.8 1.4
v -0.8 2.4 1.4
v -0.8 2.6 1.4
v -0.7 1.8 1.4
v -0.7 2.1 1.4
v -0.7 2.2 1.4
v -0.7 2.4 1.4
v 0.3 1.3 1.4
v 0.3 1.4 1.4
v 0.3 1.5 1.4
v 0.3 1.6 1.4
v 0.6 1.3 1.4
v 0.6 1.4 1.4
v 0.6 1.5 1.4
v 0.6 1.6 1.4
v -0.8 2.5 1.3
v -0.8 2.6 1.3
v -0.8 2.7 1.3
v -0.8 2.8 1.3
v -0.8 3.1 1.3
v -0.6 2.9 1.3
v -0.6 3.1 1.3
v -0.5 2.7 1.3
v -0.5 2.8 1.3
v -0.5 2.9 1.3
v -0.5 3.1 1.3
v -0.2 2.9 1.3
v -0.2 3 1.3
v 0.0999999 2.6 1.3
v 0.0999999 2.7 1.3
v 0.8 2.5 1.3
v 0.8 2.6 1.3
v 0.8 2.7 1.3
v 0.8 2.9 1.3
v 0.8 3 1.3
v 0.8 3.1 1.3
v -1 2.5 1.1
v -1 2.7 1.1
v -1 2.8 1.1
v -1 2.9 1.1
v -1 3 1.1
v -1 3.1 1.1
v -0.8 2.5 1.1
v -0.8 2.7 1.1
v -0.8 2.8 1.1
v -0.8 2.9 1.1
v -0.8 3 1.1
v -0.8 3.1 1.1
v 0.8 2.5 1.1
v 0.8 2.6 1.1
v 0.8 2.7 1.1
v 0.8 2.9 1.1
v 0.8 3 1.1
v 0.8 3.1 1.1
v 1 2.5 1.1
v 1 2.6 1.1
v 1 2.7 1.1
v 1 3.1 1.1
v -1.1 1.1 0.6
v -1.1 1.2 0.6
v -1.1 1.3 0.6
v -1.1 1.4 0.6
v -0.9 1.1 0.6
v -0.9 1.2 0.6
v -0.9 1.3 0.6
v -0.9 1.4 0.6
v 1 2.8 -0.5
v 1 2.9 -0.5
v 1 3 -0.5
v 1 3.1 -0.5
v 1.2 2.8 -0.5
v 1.2 2.9 -0.5
v 1.2 3 -0.5
v 1.2 3.1 -0.5
v -0.6 0.9 -1.2
v -0.6 1 -1.2
v -0.6 1.1 -1.2
v -0.6 1.2 -1.2
v -0.3 0.9 -1.2
v -0.3 1 -1.2
v -0.3 1.1 -1.2
v -0.3 1.2 -1.2
v -0.8 3.5 1.9
v -0.8 3.6 1.9
v -0.7 3.5 1.9
v -0.7 3.6 1.9
v -0.6 2.9 1.8
v -0.6 3 1.8
v -0.5 2.9 1.8
v -0.5 3 1.8
v -0.8 3.3 1.7
v -0.8 3.4 1.7
v -0.7 3.3 1.7
v -0.7 3.4 1.7
v -0.6 3.1 1.7
v -0.6 3.2 1.7
v -0.5 3.1 1.7
v -0.5 3.2 1.7
v -0.8 3.3 1.4
v -0.8 3.6 1.4
v -0.7 3.3 1.4
v -0.7 3.6 1.4
v -0.6 3.1 1.4
v -0.6 3.2 1.4
v -0.5 3.1 1.4
v -0.5 3.2 1.4
v -1.2 1.8 1.3
v -1.2 1.9 1.3
v -1.2 2 1.3
v -1.2 2.4 1.3
v -1.1 1.4 1.3
v -1.1 1.8 1.3
v -1.1 2.4 1.3
v -1.1 2.7 1.3
v -1 1.1 1.3
v -1 1.4 1.3
v -1 1.9 1.3
v -1 2 1.3
v -0.9 1.1 1.3
v -0.9 1.4 1.3
v -0.9 1.6 1.3
v -0.9 1.7 1.3
v -0.9 2.1 1.3
v -0.9 2.2 1.3
v -0.9 2.6 1.3
v -0.9 2.7 1.3
v -0.8 1.4 1.3
v -0.8 1.6 1.3
v -0.8 1.7 1.3
v -0.8 1.8 1.3
v -0.8 2.4 1.3
v -0.8 2.5 1.3
v -0.8 2.6 1.3
v -0.7 1.8 1.3
v -0.7 2.1 1.3
v -0.7 2.2 1.3
v -0.7 2.4 1.3
v 0.3 1.3 1.2
v 0.3 1.4 1.2
v 0.3 1.5 1.2
v 0.3 1.6 1.2
v 0.6 1.3 1.2
v 0.6 1.4 1.2
v 0.6 1.5 1.2
v 0.6 1.6 1.2
v -1.1 1.1 0.3
v -1.1 1.2 0.3
v -1.1 1.3 0.3
v -1.1 1.4 0.3
v -0.9 1.1 0.3
v -0.9 1.2 0.3
v -0.9 1.3 0.3
v -0.9 1.4 0.3
v 1 2.8 -0.8
v 1 2.9 -0.8
v 1 3 -0.8
v 1 3.1 -0.8
v 1.2 2.8 -0.8
v 1.2 2.9 -0.8
v 1.2 3 -0.8
v 1.2 3.1 -0.8
v -1 2.5 -1.1
v -1 2.6 -1.1
v -1 2.7 -1.1
v -1 2.9 -1.1
v -1 3 -1.1
v -1 3.1 -1.1
v -0.8 2.5 -1.1
v -0.8 2.6 -1.1
v -0.8 2.7 -1.1
v -0.8 2.9 -1.1
v -0.8 3 -1.1
v -0.8 3.1 -1.1
v 0.8 2.5 -1.1
v 0.8 2.7 -1.1
v 0.8 2.8 -1.1
v 0.8 2.9 -1.1
v 0.8 3 -1.1
v 0.8 3.1 -1.1
v 1 2.5 -1.1
v 1 2.7 -1.1
v 1 2.8 -1.1
v 1 2.9 -1.1
v 1 3 -1.1
v 1 3.1 -1.1
v -0.8 2.5 -1.3
v -0.8 2.6 -1.3
v -0.8 2.7 -1.3
v -0.8 2.9 -1.3
v -0.8 3 -1.3
v -0.8 3.1 -1.3
v -0.3 2.6 -1.3
v -0.3 2.7 -1.3
v 0.0999999 2.7 -1.3
v 0.0999999 2.8 -1.3
v 0.3 2.9 -1.3
v 0.3 3 -1.3
v 0.8 2.5 -1.3
v 0.8 2.7 -1.3
v 0.8 2.8 -1.3
v 0.8 3.1 -1.3
v -0.6 0.9 -1.4
v -0.6 1 -1.4
v -0.6 1.1 -1.4
v -0.6 1.2 -1.4
v -0.3 0.9 -1.4
v -0.3 1 -1.4
v -0.3 1.1 -1.4
v -0.3 1.2 -1.4
v -0.6 0.9 -1.2
v -0.3 0.9 -1.2
v -0.6 0.9 -1.4
v -0.3 0.9 -1.4
v -1 1.1 1.4
v -0.9 1.1 1.4
v -1 1.1 1.3
v -0.9 1.1 1.3
v -1.1 1.1 0.6
v -0.9 1.1 0.6
v -1.1 1.1 0.3
v -0.9 1.1 0.3
v 0.3 1.3 1.4
v 0.6 1.3 1.4
v 0.3 1.3 1.2
v 0.6 1.3 1.2
v -1.1 1.4 1.4
v -1 1.4 1.4
v -0.9 1.4 1.4
v -0.8 1.4 1.4
v -1.1 1.4 1.3
v -1 1.4 1.3
v -0.9 1.4 1.3
v -0.8 1.4 1.3
v -0.9 1.7 1.4
v -0.8 1.7 1.4
v -0.9 1.7 1.3
v -0.8 1.7 1.3
v -1.2 1.8 1.4
v -1.1 1.8 1.4
v -0.8 1.8 1.4
v -0.7 1.8 1.4
v -1.2 1.8 1.3
v -1.1 1.8 1.3
v -0.8 1.8 1.3
v -0.7 1.8 1.3
v -1.2 2 1.4
v -1 2 1.4
v -1.2 2 1.3
v -1 2 1.3
v -0.9 2.2 1.4
v -0.7 2.2 1.4
v -0.9 2.2 1.3
v -0.7 2.2 1.3
v -0.8 2.5 1.3
v 0.8 2.5 1.3
v -1 2.5 1.1
v -0.8 2.5 1.1
v 0.8 2.5 1.1
v 1 2.5 1.1
v -1 2.5 -1.1
v -0.8 2.5 -1.1
v 0.8 2.5 -1.1
v 1 2.5 -1.1
v -0.8 2.5 -1.3
v 0.8 2.5 -1.3
v 1 2.8 -0.5
v 1.2 2.8 -0.5
v 1 2.8 -0.8
v 1.2 2.8 -0.8
v -0.6 2.9 2
v -0.5 2.9 2
v -0.6 2.9 1.8
v -0.5 2.9 1.8
v -0.6 2.9 1.7
v -0.5 2.9 1.7
v -0.6 2.9 1.3
v -0.5 2.9 1.3
v -0.6 3 2.2
v -0.5 3 2.2
v -0.6 3 2
v -0.5 3 2
v -0.6 3 1.8
v -0.5 3 1.8
v -0.6 3 1.7
v -0.5 3 1.7
v -0.8 3.3 2
v -0.7 3.3 2
v -0.8 3.3 1.7
v -0.7 3.3 1.7
v -0.8 3.3 1.6
v -0.7 3.3 1.6
v -0.8 3.3 1.4
v -0.7 3.3 1.4
v -0.8 3.4 2.2
v -0.7 3.4 2.2
v -0.8 3.4 2
v -0.7 3.4 2
v -0.8 3.4 1.7
v -0.7 3.4 1.7
v -0.8 3.4 1.6
v -0.7 3.4 1.6
v -0.6 1.2 -1.2
v -0.3 1.2 -1.2
v -0.6 1.2 -1.4
v -0.3 1.2 -1.4
v -1.1 1.4 0.6
v -0.9 1.4 0.6
v -1.1 1.4 0.3
v -0.9 1.4 0.3
v -0.9 1.6 1.4
v -0.8 1.6 1.4
v 0.3 1.6 1.4
v 0.6 1.6 1.4
v -0.9 1.6 1.3
v -0.8 1.6 1.3
v 0.3 1.6 1.2
v 0.6 1.6 1.2
v -1.2 1.9 1.4
v -1 1.9 1.4
v -1.2 1.9 1.3
v -1 1.9 1.3
v -0.9 2.1 1.4
v -0.7 2.1 1.4
v -0.9 2.1 1.3
v -0.7 2.1 1.3
v -1.2 2.4 1.4
v -1.1 2.4 1.4
v -0.8 2.4 1.4
v -0.7 2.4 1.4
v -1.2 2.4 1.3
v -1.1 2.4 1.3
v -0.8 2.4 1.3
v -0.7 2.4 1.3
v -0.9 2.6 1.4
v -0.8 2.6 1.4
v -0.9 2.6 1.3
v -0.8 2.6 1.3
v -1.1 2.7 1.4
v -0.9 2.7 1.4
v -1.1 2.7 1.3
v -0.9 2.7 1.3
v -0.6 3.1 2.2
v -0.5 3.1 2.2
v -0.6 3.1 2
v -0.5 3.1 2
v -0.6 3.1 1.7
v -0.5 3.1 1.7
v -0.6 3.1 1.6
v -0.5 3.1 1.6
v -0.6 3.1 1.4
v -0.5 3.1 1.4
v -0.8 3.1 1.3
v -0.6 3.1 1.3
v -0.5 3.1 1.3
v 0.8 3.1 1.3
v -1 3.1 1.1
v -0.8 3.1 1.1
v 0.8 3.1 1.1
v 1 3.1 1.1
v 1 3.1 -0.5
v 1.2 3.1 -0.5
v 1 3.1 -0.8
v 1.2 3.1 -0.8
v -1 3.1 -1.1
v -0.8 3.1 -1.1
v 0.8 3.1 -1.1
v 1 3.1 -1.1
v -0.8 3.1 -1.3
v 0.8 3.1 -1.3
v -0.6 3.2 2
v -0.5 3.2 2
v -0.6 3.2 1.7
v -0.5 3.2 1.7
v -0.6 3.2 1.6
v -0.5 3.2 1.6
v -0.6 3.2 1.4
v -0.5 3.2 1.4
v -0.8 3.5 2.2
v -0.7 3.5 2.2
v -0.8 3.5 2
v -0.7 3.5 2
v -0.8 3.5 1.9
v -0.7 3.5 1.9
v -0.8 3.5 1.8
v -0.7 3.5 1.8
v -0.8 3.6 2
v -0.7 3.6 2
v -0.8 3.6 1.9
v -0.7 3.6 1.9
v -0.8 3.6 1.8
v -0.7 3.6 1.8
v -0.8 3.6 1.4
v -0.7 3.6 1.4

# faces
f 3/5/1 2/5/1 1/5/1
f 4/5/1 2/5/1 3/5/1
f 7/5/1 6/5/1 5/5/1
f 8/5/1 6/5/1 7/5/1
f 11/7/1 10/7/1 9/7/1
f 12/7/1 10/7/1 11/7/1
f 13/6/1 12/6/1 11/6/1
f 14/6/1 12/6/1 13/6/1
f 17/7/1 14/7/1 13/7/1
f 18/7/1 14/7/1 17/7/1
f 19/5/1 16/5/1 15/5/1
f 20/5/1 16/5/1 19/5/1
f 23/5/1 22/5/1 21/5/1
f 24/5/1 22/5/1 23/5/1
f 27/5/1 26/5/1 25/5/1
f 28/5/1 26/5/1 27/5/1
f 31/5/1 30/5/1 29/5/1
f 32/5/1 30/5/1 31/5/1
f 35/2/1 34/2/1 33/2/1
f 36/2/1 34/2/1 35/2/1
f 37/2/1 35/2/1 33/2/1
f 38/2/1 35/2/1 37/2/1
f 39/1/1 36/1/1 35/1/1
f 39/2/1 35/2/1 38/2/1
f 40/1/1 36/1/1 39/1/1
f 41/1/1 38/1/1 37/1/1
f 42/2/1 39/2/1 38/2/1
f 42/1/1 38/1/1 41/1/1
f 42/2/1 40/2/1 39/2/1
f 43/2/1 42/2/1 41/2/1
f 44/2/1 40/2/1 42/2/1
f 44/2/1 42/2/1 43/2/1
f 45/2/1 40/2/1 44/2/1
f 46/2/1 40/2/1 45/2/1
f 47/1/1 44/1/1 43/1/1
f 48/2/1 45/2/1 44/2/1
f 48/1/1 44/1/1 47/1/1
f 49/1/1 46/1/1 45/1/1
f 49/2/1 45/2/1 48/2/1
f 50/1/1 46/1/1 49/1/1
f 51/2/1 48/2/1 47/2/1
f 51/2/1 49/2/1 48/2/1
f 51/2/1 50/2/1 49/2/1
f 52/2/1 50/2/1 51/2/1
f 57/2/1 54/2/1 53/2/1
f 58/2/1 56/2/1 55/2/1
f 59/2/1 56/2/1 58/2/1
f 60/2/1 54/2/1 57/2/1
f 61/2/1 54/2/1 60/2/1
f 62/1/1 59/1/1 58/1/1
f 63/1/1 59/1/1 62/1/1
f 64/1/1 61/1/1 60/1/1
f 65/1/1 61/1/1 64/1/1
f 66/2/1 65/2/1 64/2/1
f 67/2/1 63/2/1 62/2/1
f 68/2/1 63/2/1 67/2/1
f 69/2/1 66/2/1 64/2/1
f 70/1/1 68/1/1 67/1/1
f 71/1/1 68/1/1 70/1/1
f 72/2/1 69/2/1 64/2/1
f 73/2/1 69/2/1 72/2/1
f 74/2/1 71/2/1 70/2/1
f 75/2/1 71/2/1 74/2/1
f 81/4/1 77/4/1 76/4/1
f 82/4/1 77/4/1 81/4/1
f 83/4/1 79/4/1 78/4/1
f 84/4/1 82/4/1 81/4/1
f 84/4/1 83/4/1 82/4/1
f 84/4/1 81/4/1 80/4/1
f 85/4/1 83/4/1 84/4/1
f 86/4/1 83/4/1 85/4/1
f 87/4/1 83/4/1 86/4/1
f 88/4/1 86/4/1 85/4/1
f 89/4/1 86/4/1 88/4/1
f 90/4/1 83/4/1 87/4/1
f 91/4/1 79/4/1 83/4/1
f 91/4/1 83/4/1 90/4/1
f 94/7/1 93/7/1 92/7/1
f 95/7/1 93/7/1 94/7/1
f 96/6/1 95/6/1 94/6/1
f 97/6/1 95/6/1 96/6/1
f 98/7/1 97/7/1 96/7/1
f 99/7/1 97/7/1 98/7/1
f 105/3/1 101/3/1 100/3/1
f 106/3/1 101/3/1 105/3/1
f 107/3/1 103/3/1 102/3/1
f 108/3/1 106/3/1 105/3/1
f 108/3/1 107/3/1 106/3/1
f 108/3/1 105/3/1 104/3/1
f 109/3/1 107/3/1 108/3/1
f 110/3/1 103/3/1 107/3/1
f 110/3/1 107/3/1 109/3/1
f 111/3/1 103/3/1 110/3/1
f 112/3/1 103/3/1 111/3/1
f 113/3/1 103/3/1 112/3/1
f 114/3/1 110/3/1 109/3/1
f 115/3/1 110/3/1 114/3/1
f 116/3/1 112/3/1 111/3/1
f 117/3/1 112/3/1 116/3/1
f 120/7/1 119/7/1 118/7/1
f 121/7/1 119/7/1 120/7/1
f 122/6/1 121/6/1 120/6/1
f 123/6/1 121/6/1 122/6/1
f 124/7/1 123/7/1 122/7/1
f 125/7/1 123/7/1 124/7/1
f 128/7/2 129/7/2 130/7/2
f 130/7/2 129/7/2 131/7/2
f 130/6/2 131/6/2 132/6/2
f 132/6/2 131/6/2 133/6/2
f 126/5/2 127/5/2 134/5/2
f 134/5/2 127/5/2 135/5/2
f 132/7/2 133/7/2 136/7/2
f 136/7/2 133/7/2 137/7/2
f 138/5/2 139/5/2 140/5/2
f 140/5/2 139/5/2 141/5/2
f 142/5/2 143/5/2 144/5/2
f 144/5/2 143/5/2 145/5/2
f 146/5/2 147/5/2 148/5/2
f 148/5/2 147/5/2 149/5/2
f 150/5/2 151/5/2 152/5/2
f 152/5/2 151/5/2 153/5/2
f 154/5/2 155/5/2 156/5/2
f 156/5/2 155/5/2 157/5/2
f 158/5/2 159/5/2 160/5/2
f 158/5/2 160/5/2 161/5/2
f 161/5/2 160/5/2 162/5/2
f 163/5/2 164/5/2 165/5/2
f 165/5/2 164/5/2 166/5/2
f 167/5/2 168/5/2 169/5/2
f 169/5/2 168/5/2 170/5/2
f 171/4/2 172/4/2 176/4/2
f 176/4/2 172/4/2 177/4/2
f 173/4/2 174/4/2 178/4/2
f 176/4/2 177/4/2 179/4/2
f 177/4/2 178/4/2 179/4/2
f 175/4/2 176/4/2 179/4/2
f 179/4/2 178/4/2 180/4/2
f 180/4/2 178/4/2 181/4/2
f 181/4/2 178/4/2 182/4/2
f 180/4/2 181/4/2 183/4/2
f 183/4/2 181/4/2 184/4/2
f 182/4/2 178/4/2 185/4/2
f 178/4/2 174/4/2 186/4/2
f 185/4/2 178/4/2 186/4/2
f 187/3/2 188/3/2 192/3/2
f 192/3/2 188/3/2 193/3/2
f 189/3/2 190/3/2 194/3/2
f 192/3/2 193/3/2 195/3/2
f 193/3/2 194/3/2 195/3/2
f 191/3/2 192/3/2 195/3/2
f 195/3/2 194/3/2 196/3/2
f 194/3/2 190/3/2 197/3/2
f 196/3/2 194/3/2 197/3/2
f 197/3/2 190/3/2 198/3/2
f 198/3/2 190/3/2 199/3/2
f 199/3/2 190/3/2 200/3/2
f 196/3/2 197/3/2 201/3/2
f 201/3/2 197/3/2 202/3/2
f 198/3/2 199/3/2 203/3/2
f 203/3/2 199/3/2 204/3/2
f 205/7/2 206/7/2 207/7/2
f 207/7/2 206/7/2 208/7/2
f 207/6/2 208/6/2 209/6/2
f 209/6/2 208/6/2 210/6/2
f 209/7/2 210/7/2 211/7/2
f 211/7/2 210/7/2 212/7/2
f 213/7/2 214/7/2 215/7/2
f 215/7/2 214/7/2 216/7/2
f 215/6/2 216/6/2 217/6/2
f 217/6/2 216/6/2 218/6/2
f 217/7/2 218/7/2 219/7/2
f 219/7/2 218/7/2 220/7/2
f 221/2/2 222/2/2 225/2/2
f 225/2/2 222/2/2 226/2/2
f 225/1/2 226/1/2 227/1/2
f 227/1/2 226/1/2 228/1/2
f 223/2/2 224/2/2 229/2/2
f 229/2/2 224/2/2 230/2/2
f 229/1/2 230/1/2 231/1/2
f 231/1/2 230/1/2 232/1/2
f 227/2/2 228/2/2 233/2/2
f 233/2/2 228/2/2 234/2/2
f 231/2/2 232/2/2 235/2/2
f 233/1/2 234/1/2 236/1/2
f 236/1/2 234/1/2 237/1/2
f 235/2/2 232/2/2 238/2/2
f 236/2/2 237/2/2 239/2/2
f 239/2/2 237/2/2 240/2/2
f 238/2/2 232/2/2 241/2/2
f 241/2/2 232/2/2 242/2/2
f 243/2/2 244/2/2 245/2/2
f 245/2/2 244/2/2 246/2/2
f 245/1/2 246/1/2 247/1/2
f 246/2/2 244/2/2 248/2/2
f 247/1/2 246/1/2 248/1/2
f 248/2/2 244/2/2 249/2/2
f 249/2/2 244/2/2 250/2/2
f 247/2/2 248/2/2 251/2/2
f 248/2/2 249/2/2 251/2/2
f 251/2/2 249/2/2 252/2/2
f 249/1/2 250/1/2 253/1/2
f 252/2/2 249/2/2 253/2/2
f 253/1/2 250/1/2 254/1/2
f 254/1/2 250/1/2 255/1/2
f 255/1/2 250/1/2 256/1/2
f 251/1/2 252/1/2 257/1/2
f 247/2/2 251/2/2 257/2/2
f 252/2/2 253/2/2 258/2/2
f 257/1/2 252/1/2 258/1/2
f 253/2/2 254/2/2 258/2/2
f 258/2/2 254/2/2 259/2/2
f 255/2/2 256/2/2 260/2/2
f 260/2/2 256/2/2 261/2/2
f 258/2/2 259/2/2 262/2/2
f 257/2/2 258/2/2 262/2/2
f 260/1/2 261/1/2 263/1/2
f 263/1/2 261/1/2 264/1/2
f 247/2/2 257/2/2 265/2/2
f 257/2/2 262/2/2 265/2/2
f 265/2/2 262/2/2 266/2/2
f 263/2/2 264/2/2 267/2/2
f 267/2/2 264/2/2 268/2/2
f 269/7/2 270/7/2 271/7/2
f 271/7/2 270/7/2 272/7/2
f 271/6/2 272/6/2 273/6/2
f 273/6/2 272/6/2 274/6/2
f 273/7/2 274/7/2 275/7/2
f 275/7/2 274/7/2 276/7/2
f 279/4/3 278/4/3 277/4/3
f 280/4/3 278/4/3 279/4/3
f 283/3/3 282/3/3 281/3/3
f 284/3/3 282/3/3 283/3/3
f 289/4/3 286/4/3 285/4/3
f 290/4/3 286/4/3 289/4/3
f 291/4/3 288/4/3 287/4/3
f 292/4/3 288/4/3 291/4/3
f 297/3/3 294/3/3 293/3/3
f 298/3/3 294/3/3 297/3/3
f 299/3/3 296/3/3 295/3/3
f 300/3/3 296/3/3 299/3/3
f 303/4/3 302/4/3 301/4/3
f 304/4/3 302/4/3 303/4/3
f 307/3/3 306/3/3 305/3/3
f 308/3/3 306/3/3 307/3/3
f 311/4/3 310/4/3 309/4/3
f 312/4/3 310/4/3 311/4/3
f 315/3/3 314/3/3 313/3/3
f 316/3/3 314/3/3 315/3/3
f 322/5/3 318/5/3 317/5/3
f 323/5/3 320/5/3 319/5/3
f 326/5/3 322/5/3 321/5/3
f 327/5/3 318/5/3 322/5/3
f 327/5/3 322/5/3 326/5/3
f 328/5/3 324/5/3 323/5/3
f 328/5/3 323/5/3 319/5/3
f 329/5/3 327/5/3 326/5/3
f 329/5/3 328/5/3 327/5/3
f 329/5/3 326/5/3 325/5/3
f 330/5/3 328/5/3 329/5/3
f 331/5/3 328/5/3 330/5/3
f 332/5/3 328/5/3 331/5/3
f 333/5/3 324/5/3 328/5/3
f 333/5/3 328/5/3 332/5/3
f 334/5/3 324/5/3 333/5/3
f 335/5/3 324/5/3 334/5/3
f 336/5/3 324/5/3 335/5/3
f 337/5/3 331/5/3 330/5/3
f 338/5/3 331/5/3 337/5/3
f 339/5/3 333/5/3 332/5/3
f 340/5/3 333/5/3 339/5/3
f 341/5/3 335/5/3 334/5/3
f 342/5/3 335/5/3 341/5/3
f 343/5/3 333/5/3 340/5/3
f 344/5/3 333/5/3 343/5/3
f 345/5/3 341/5/3 334/5/3
f 346/5/3 341/5/3 345/5/3
f 351/7/3 348/7/3 347/7/3
f 352/6/3 349/6/3 348/6/3
f 352/7/3 348/7/3 351/7/3
f 353/7/3 350/7/3 349/7/3
f 353/6/3 349/6/3 352/6/3
f 354/7/3 350/7/3 353/7/3
f 360/2/3 359/2/3 358/2/3
f 361/2/3 359/2/3 360/2/3
f 362/2/3 356/2/3 355/2/3
f 362/2/3 357/2/3 356/2/3
f 362/1/3 358/1/3 357/1/3
f 363/2/3 360/2/3 358/2/3
f 363/1/3 358/1/3 362/1/3
f 364/2/3 360/2/3 363/2/3
f 366/2/3 363/2/3 362/2/3
f 366/2/3 365/2/3 364/2/3
f 366/2/3 364/2/3 363/2/3
f 367/2/3 365/2/3 366/2/3
f 368/2/3 362/2/3 355/2/3
f 368/2/3 366/2/3 362/2/3
f 369/2/3 366/2/3 368/2/3
f 370/2/3 368/2/3 355/2/3
f 371/1/3 369/1/3 368/1/3
f 371/2/3 368/2/3 370/2/3
f 372/2/3 366/2/3 369/2/3
f 372/1/3 369/1/3 371/1/3
f 373/1/3 367/1/3 366/1/3
f 373/2/3 366/2/3 372/2/3
f 374/2/3 365/2/3 367/2/3
f 374/1/3 367/1/3 373/1/3
f 375/2/3 365/2/3 374/2/3
f 382/2/3 377/2/3 376/2/3
f 383/1/3 378/1/3 377/1/3
f 383/2/3 377/2/3 382/2/3
f 384/2/3 379/2/3 378/2/3
f 384/1/3 378/1/3 383/1/3
f 385/1/3 380/1/3 379/1/3
f 385/2/3 379/2/3 384/2/3
f 386/2/3 381/2/3 380/2/3
f 386/1/3 380/1/3 385/1/3
f 387/2/3 381/2/3 386/2/3
f 394/2/3 389/2/3 388/2/3
f 395/1/3 390/1/3 389/1/3
f 395/2/3 389/2/3 394/2/3
f 396/2/3 393/2/3 392/2/3
f 396/1/3 390/1/3 395/1/3
f 396/2/3 391/2/3 390/2/3
f 396/2/3 392/2/3 391/2/3
f 397/2/3 393/2/3 396/2/3
f 402/7/3 399/7/3 398/7/3
f 403/6/3 400/6/3 399/6/3
f 403/7/3 399/7/3 402/7/3
f 404/7/3 401/7/3 400/7/3
f 404/6/3 400/6/3 403/6/3
f 405/7/3 401/7/3 404/7/3
f 410/7/3 407/7/3 406/7/3
f 411/6/3 408/6/3 407/6/3
f 411/7/3 407/7/3 410/7/3
f 412/7/3 409/7/3 408/7/3
f 412/6/3 408/6/3 411/6/3
f 413/7/3 409/7/3 412/7/3
f 418/7/3 415/7/3 414/7/3
f 419/6/3 416/6/3 415/6/3
f 419/7/3 415/7/3 418/7/3
f 420/7/3 417/7/3 416/7/3
f 420/6/3 416/6/3 419/6/3
f 421/7/3 417/7/3 420/7/3
f 422/4/4 423/4/4 424/4/4
f 424/4/4 423/4/4 425/4/4
f 426/3/4 427/3/4 428/3/4
f 428/3/4 427/3/4 429/3/4
f 430/4/4 431/4/4 432/4/4
f 432/4/4 431/4/4 433/4/4
f 434/3/4 435/3/4 436/3/4
f 436/3/4 435/3/4 437/3/4
f 438/4/4 439/4/4 440/4/4
f 440/4/4 439/4/4 441/4/4
f 442/3/4 443/3/4 444/3/4
f 444/3/4 443/3/4 445/3/4
f 446/5/4 447/5/4 451/5/4
f 448/5/4 449/5/4 452/5/4
f 450/5/4 451/5/4 455/5/4
f 451/5/4 447/5/4 456/5/4
f 455/5/4 451/5/4 456/5/4
f 452/5/4 453/5/4 457/5/4
f 448/5/4 452/5/4 457/5/4
f 455/5/4 456/5/4 458/5/4
f 456/5/4 457/5/4 458/5/4
f 454/5/4 455/5/4 458/5/4
f 458/5/4 457/5/4 459/5/4
f 459/5/4 457/5/4 460/5/4
f 460/5/4 457/5/4 461/5/4
f 457/5/4 453/5/4 462/5/4
f 461/5/4 457/5/4 462/5/4
f 462/5/4 453/5/4 463/5/4
f 463/5/4 453/5/4 464/5/4
f 464/5/4 453/5/4 465/5/4
f 459/5/4 460/5/4 466/5/4
f 466/5/4 460/5/4 467/5/4
f 461/5/4 462/5/4 468/5/4
f 468/5/4 462/5/4 469/5/4
f 463/5/4 464/5/4 470/5/4
f 470/5/4 464/5/4 471/5/4
f 471/5/4 464/5/4 472/5/4
f 469/5/4 462/5/4 473/5/4
f 473/5/4 462/5/4 474/5/4
f 463/5/4 470/5/4 475/5/4
f 475/5/4 470/5/4 476/5/4
f 477/7/4 478/7/4 481/7/4
f 478/6/4 479/6/4 482/6/4
f 481/7/4 478/7/4 482/7/4
f 479/7/4 480/7/4 483/7/4
f 482/6/4 479/6/4 483/6/4
f 483/7/4 480/7/4 484/7/4
f 485/7/4 486/7/4 489/7/4
f 486/6/4 487/6/4 490/6/4
f 489/7/4 486/7/4 490/7/4
f 487/7/4 488/7/4 491/7/4
f 490/6/4 487/6/4 491/6/4
f 491/7/4 488/7/4 492/7/4
f 493/7/4 494/7/4 497/7/4
f 494/6/4 495/6/4 498/6/4
f 497/7/4 494/7/4 498/7/4
f 495/7/4 496/7/4 499/7/4
f 498/6/4 495/6/4 499/6/4
f 499/7/4 496/7/4 500/7/4
f 501/2/4 502/2/4 507/2/4
f 502/1/4 503/1/4 508/1/4
f 507/2/4 502/2/4 508/2/4
f 503/2/4 504/2/4 509/2/4
f 508/1/4 503/1/4 509/1/4
f 504/1/4 505/1/4 510/1/4
f 509/2/4 504/2/4 510/2/4
f 505/2/4 506/2/4 511/2/4
f 510/1/4 505/1/4 511/1/4
f 511/2/4 506/2/4 512/2/4
f 513/2/4 514/2/4 519/2/4
f 514/1/4 515/1/4 520/1/4
f 519/2/4 514/2/4 520/2/4
f 515/2/4 516/2/4 521/2/4
f 520/1/4 515/1/4 521/1/4
f 516/1/4 517/1/4 522/1/4
f 521/2/4 516/2/4 522/2/4
f 517/2/4 518/2/4 523/2/4
f 522/1/4 517/1/4 523/1/4
f 523/2/4 518/2/4 524/2/4
f 525/2/4 526/2/4 531/2/4
f 526/1/4 527/1/4 531/1/4
f 527/2/4 528/2/4 532/2/4
f 531/1/4 527/1/4 532/1/4
f 531/2/4 532/2/4 533/2/4
f 532/2/4 528/2/4 533/2/4
f 533/2/4 528/2/4 534/2/4
f 528/1/4 529/1/4 535/1/4
f 534/2/4 528/2/4 535/2/4
f 529/2/4 530/2/4 536/2/4
f 535/1/4 529/1/4 536/1/4
f 525/2/4 531/2/4 537/2/4
f 531/2/4 533/2/4 537/2/4
f 533/1/4 534/1/4 538/1/4
f 537/2/4 533/2/4 538/2/4
f 534/2/4 535/2/4 539/2/4
f 538/1/4 534/1/4 539/1/4
f 535/2/4 536/2/4 539/2/4
f 536/2/4 530/2/4 540/2/4
f 539/2/4 536/2/4 540/2/4
f 541/7/4 542/7/4 545/7/4
f 542/6/4 543/6/4 546/6/4
f 545/7/4 542/7/4 546/7/4
f 543/7/4 544/7/4 547/7/4
f 546/6/4 543/6/4 547/6/4
f 547/7/4 544/7/4 548/7/4
f 551/7/5 550/7/5 549/7/5
f 552/7/5 550/7/5 551/7/5
f 555/5/5 554/5/5 553/5/5
f 556/5/5 554/5/5 555/5/5
f 559/7/5 558/7/5 557/7/5
f 560/7/5 558/7/5 559/7/5
f 563/7/5 562/7/5 561/7/5
f 564/7/5 562/7/5 563/7/5
f 569/5/5 566/5/5 565/5/5
f 570/5/5 566/5/5 569/5/5
f 571/5/5 568/5/5 567/5/5
f 572/5/5 568/5/5 571/5/5
f 575/5/5 574/5/5 573/5/5
f 576/5/5 574/5/5 575/5/5
f 581/5/5 578/5/5 577/5/5
f 582/5/5 578/5/5 581/5/5
f 583/5/5 580/5/5 579/5/5
f 584/5/5 580/5/5 583/5/5
f 587/5/5 586/5/5 585/5/5
f 588/5/5 586/5/5 587/5/5
f 591/5/5 590/5/5 589/5/5
f 592/5/5 590/5/5 591/5/5
f 596/2/5 594/2/5 593/2/5
f 597/2/5 594/2/5 596/2/5
f 599/2/5 596/2/5 595/2/5
f 599/2/5 598/2/5 597/2/5
f 599/2/5 597/2/5 596/2/5
f 600/2/5 598/2/5 599/2/5
f 601/2/5 598/2/5 600/2/5
f 602/2/5 598/2/5 601/2/5
f 603/2/5 601/2/5 600/2/5
f 604/2/5 601/2/5 603/2/5
f 607/7/5 606/7/5 605/7/5
f 608/7/5 606/7/5 607/7/5
f 611/3/5 610/3/5 609/3/5
f 612/3/5 610/3/5 611/3/5
f 615/3/5 614/3/5 613/3/5
f 616/3/5 614/3/5 615/3/5
f 619/3/5 618/3/5 617/3/5
f 620/3/5 618/3/5 619/3/5
f 623/3/5 622/3/5 621/3/5
f 624/3/5 622/3/5 623/3/5
f 627/4/5 626/4/5 625/4/5
f 628/4/5 626/4/5 627/4/5
f 631/4/5 630/4/5 629/4/5
f 632/4/5 630/4/5 631/4/5
f 635/4/5 634/4/5 633/4/5
f 636/4/5 634/4/5 635/4/5
f 639/4/5 638/4/5 637/4/5
f 640/4/5 638/4/5 639/4/5
f 641/7/6 642/7/6 643/7/6
f 643/7/6 642/7/6 644/7/6
f 645/7/6 646/7/6 647/7/6
f 647/7/6 646/7/6 648/7/6
f 649/5/6 650/5/6 653/5/6
f 653/5/6 650/5/6 654/5/6
f 651/7/6 652/7/6 655/7/6
f 655/7/6 652/7/6 656/7/6
f 657/5/6 658/5/6 659/5/6
f 659/5/6 658/5/6 660/5/6
f 661/5/6 662/5/6 663/5/6
f 663/5/6 662/5/6 664/5/6
f 665/5/6 666/5/6 669/5/6
f 669/5/6 666/5/6 670/5/6
f 667/5/6 668/5/6 671/5/6
f 671/5/6 668/5/6 672/5/6
f 673/5/6 674/5/6 675/5/6
f 675/5/6 674/5/6 676/5/6
f 677/5/6 678/5/6 679/5/6
f 679/5/6 678/5/6 680/5/6
f 681/3/6 682/3/6 683/3/6
f 683/3/6 682/3/6 684/3/6
f 685/3/6 686/3/6 687/3/6
f 687/3/6 686/3/6 688/3/6
f 689/3/6 690/3/6 692/3/6
f 692/3/6 690/3/6 693/3/6
f 692/2/6 693/2/6 696/2/6
f 693/2/6 694/2/6 696/2/6
f 691/2/6 692/2/6 696/2/6
f 696/2/6 694/2/6 697/2/6
f 695/2/6 696/2/6 699/2/6
f 697/2/6 698/2/6 699/2/6
f 696/2/6 697/2/6 699/2/6
f 695/2/6 699/2/6 701/2/6
f 699/7/6 700/7/6 701/7/6
f 701/7/6 700/7/6 702/7/6
f 695/2/6 701/2/6 703/2/6
f 703/2/6 701/2/6 704/2/6
f 704/2/6 701/2/6 705/2/6
f 705/2/6 701/2/6 706/2/6
f 704/2/6 705/2/6 707/2/6
f 707/2/6 705/2/6 708/2/6
f 709/3/6 710/3/6 711/3/6
f 711/3/6 710/3/6 712/3/6
f 713/3/6 714/3/6 715/3/6
f 715/3/6 714/3/6 716/3/6
f 717/4/6 718/4/6 719/4/6
f 719/4/6 718/4/6 720/4/6
f 721/4/6 722/4/6 723/4/6
f 723/4/6 722/4/6 724/4/6
f 725/4/6 726/4/6 727/4/6
f 727/4/6 726/4/6 728/4/6
f 729/4/6 730/4/6 731/4/6
f 731/4/6 730/4/6 732/4/6
