# MagicaVoxel @ Ephtracy

# group
o 

# material
mtllib model.mtl
usemtl palette

# normals
vn 0 0 1
vn 0 0 -1
vn 1 0 0
vn -1 0 0
vn 0 -1 0
vn 0 1 0

# texcoords
vt 0.0253906 0.5
vt 0.548828 0.5

# verts
v 0.1 1.4 1.4
v -1.1 1.4 1.4
v 0.9 1.7 1.4
v 0.1 1.7 1.4
v -0.2 1.7 1.4
v -1.1 1.7 1.4
v 0.9 2 1.4
v -0.2 2 1.4
v -0.2 1.7 1.3
v -1 1.7 1.3
v 0.8 2 1.3
v -0.2 2 1.3
v -1 2 1.3
v 0.8 2.3 1.3
v -1 2.3 1.3
v 0.8 2.6 1.3
v -1 2.6 1.3
v 0.8 2.9 1.3
v -1 2.9 1.3
v -1.1 1.4 1.2
v -1.3 1.4 1.2
v 1.1 1.7 1.2
v 0.9 1.7 1.2
v -1.1 1.7 1.2
v -1.3 1.7 1.2
v 1.1 2 1.2
v 0.9 2 1.2
v -1 1.7 1.1
v -1.1 1.7 1.1
v -1.2 1.7 1.1
v 1 2 1.1
v 0.8 2 1.1
v -1 2 1.1
v -1.2 2 1.1
v 1 2.3 1.1
v 0.8 2.3 1.1
v -1 2.3 1.1
v -1.2 2.3 1.1
v 1 2.6 1.1
v 0.8 2.6 1.1
v -1 2.6 1.1
v -1.2 2.6 1.1
v 1 2.9 1.1
v 0.8 2.9 1.1
v 0.5 2.9 1.1
v 0.2 2.9 1.1
v -0.1 2.9 1.1
v -0.4 2.9 1.1
v -0.7 2.9 1.1
v -1 2.9 1.1
v -1.2 2.9 1.1
v 0.8 3.1 1.1
v 0.5 3.1 1.1
v 0.2 3.1 1.1
v -0.1 3.1 1.1
v -0.4 3.1 1.1
v -0.7 3.1 1.1
v -1 3.1 1.1
v -0.9 0 0.7
v -1.4 0 0.7
v -1.7 0 0.7
v -2.2 0 0.7
v -0.9 0.2 0.7
v -1.1 0.2 0.7
v -1.4 0.2 0.7
v -1.7 0.2 0.7
v -2 0.2 0.7
v -2.2 0.2 0.7
v -2.2 0.3 0.7
v -2.5 0.3 0.7
v -0.9 0.5 0.7
v -1.1 0.5 0.7
v -2 0.5 0.7
v -2.2 0.5 0.7
v -2.5 0.5 0.7
v -0.9 0.8 0.7
v -1.1 0.8 0.7
v -0.9 1.1 0.7
v -1.1 1.1 0.7
v -0.9 1.4 0.7
v -1 1.4 0.7
v -1.1 1.4 0.7
v -0.9 0.3 -0.1
v -1.4 0.3 -0.1
v -1.7 0.3 -0.1
v -1.9 0.3 -0.1
v -0.9 0.5 -0.1
v -1.1 0.5 -0.1
v -1.4 0.5 -0.1
v -1.7 0.5 -0.1
v -1.7 0.7 -0.1
v -1.9 0.7 -0.1
v -0.9 0.8 -0.1
v -1.1 0.8 -0.1
v -1.7 1 -0.1
v -1.9 1 -0.1
v -2 1 -0.1
v -2.3 1 -0.1
v -2.6 1 -0.1
v -1.7 1.2 -0.1
v -2 1.2 -0.1
v -2.3 1.2 -0.1
v -2.6 1.2 -0.1
v -0.9 1.4 -0.1
v -1 1.4 -0.1
v -1.1 1.4 -0.1
v -0.9 0 0.1
v -1.4 0 0.1
v -1.7 0 0.1
v -2.2 0 0.1
v -0.9 0.2 0.1
v -1.1 0.2 0.1
v -1.4 0.2 0.1
v -1.7 0.2 0.1
v -2 0.2 0.1
v -2.2 0.2 0.1
v -2.2 0.3 0.1
v -2.5 0.3 0.1
v -0.9 0.5 0.1
v -1.1 0.5 0.1
v -2 0.5 0.1
v -2.2 0.5 0.1
v -2.5 0.5 0.1
v -0.9 0.8 0.1
v -1.1 0.8 0.1
v -0.9 1.1 0.1
v -1.1 1.1 0.1
v -0.9 1.4 0.1
v -1 1.4 0.1
v -1.1 1.4 0.1
v -0.9 0.3 -0.7
v -1.4 0.3 -0.7
v -1.7 0.3 -0.7
v -1.9 0.3 -0.7
v -0.9 0.5 -0.7
v -1.1 0.5 -0.7
v -1.4 0.5 -0.7
v -1.7 0.5 -0.7
v -1.7 0.7 -0.7
v -1.9 0.7 -0.7
v -0.9 0.8 -0.7
v -1.1 0.8 -0.7
v -1.7 1 -0.7
v -1.9 1 -0.7
v -2 1 -0.7
v -2.3 1 -0.7
v -2.6 1 -0.7
v -1.7 1.2 -0.7
v -2 1.2 -0.7
v -2.3 1.2 -0.7
v -2.6 1.2 -0.7
v -0.9 1.4 -0.7
v -1 1.4 -0.7
v -1.1 1.4 -0.7
v -1 1.7 -1.1
v -1.1 1.7 -1.1
v -1.2 1.7 -1.1
v 1 2 -1.1
v 0.8 2 -1.1
v -1 2 -1.1
v -1.2 2 -1.1
v 1 2.3 -1.1
v 0.8 2.3 -1.1
v -1 2.3 -1.1
v -1.2 2.3 -1.1
v 1 2.6 -1.1
v 0.8 2.6 -1.1
v -1 2.6 -1.1
v -1.2 2.6 -1.1
v 1 2.9 -1.1
v 0.8 2.9 -1.1
v 0.5 2.9 -1.1
v 0.2 2.9 -1.1
v -0.1 2.9 -1.1
v -0.4 2.9 -1.1
v -0.7 2.9 -1.1
v -1 2.9 -1.1
v -1.2 2.9 -1.1
v 0.8 3.1 -1.1
v 0.5 3.1 -1.1
v 0.2 3.1 -1.1
v -0.1 3.1 -1.1
v -0.4 3.1 -1.1
v -0.7 3.1 -1.1
v -1 3.1 -1.1
v -1.1 1.4 -1.2
v -1.3 1.4 -1.2
v 1.1 1.7 -1.2
v 0.9 1.7 -1.2
v -1.1 1.7 -1.2
v -1.3 1.7 -1.2
v 1.1 2 -1.2
v 0.9 2 -1.2
v -0.2 1.7 -1.3
v -1 1.7 -1.3
v 0.8 2 -1.3
v -0.2 2 -1.3
v -1 2 -1.3
v 0.8 2.3 -1.3
v -1 2.3 -1.3
v 0.8 2.6 -1.3
v -1 2.6 -1.3
v 0.8 2.9 -1.3
v -1 2.9 -1.3
v 0.1 1.4 -1.4
v -1.1 1.4 -1.4
v 0.9 1.7 -1.4
v 0.1 1.7 -1.4
v -0.2 1.7 -1.4
v -1.1 1.7 -1.4
v 0.9 2 -1.4
v -0.2 2 -1.4
v 1.1 1.7 1.2
v 1.1 2 1.2
v 1.1 1.7 -1.2
v 1.1 2 -1.2
v 1 2 1.1
v 1 2.3 1.1
v 1 2.6 1.1
v 1 2.9 1.1
v 1 2 -1.1
v 1 2.3 -1.1
v 1 2.6 -1.1
v 1 2.9 -1.1
v 0.9 1.7 1.4
v 0.9 2 1.4
v 0.9 1.7 1.2
v 0.9 2 1.2
v 0.9 1.7 -1.2
v 0.9 2 -1.2
v 0.9 1.7 -1.4
v 0.9 2 -1.4
v 0.8 2 1.3
v 0.8 2.3 1.3
v 0.8 2.6 1.3
v 0.8 2.9 1.3
v 0.8 2 1.1
v 0.8 2.3 1.1
v 0.8 2.6 1.1
v 0.8 2.9 1.1
v 0.8 3.1 1.1
v 0.8 2 -1.1
v 0.8 2.3 -1.1
v 0.8 2.6 -1.1
v 0.8 2.9 -1.1
v 0.8 3.1 -1.1
v 0.8 2 -1.3
v 0.8 2.3 -1.3
v 0.8 2.6 -1.3
v 0.8 2.9 -1.3
v 0.1 1.4 1.4
v 0.1 1.7 1.4
v 0.1 1.4 -1.4
v 0.1 1.7 -1.4
v -0.9 0 0.7
v -0.9 0.2 0.7
v -0.9 0.5 0.7
v -0.9 0.8 0.7
v -0.9 1.1 0.7
v -0.9 1.4 0.7
v -0.9 0 0.1
v -0.9 0.2 0.1
v -0.9 0.5 0.1
v -0.9 0.8 0.1
v -0.9 1.1 0.1
v -0.9 1.4 0.1
v -0.9 0.3 -0.1
v -0.9 0.5 -0.1
v -0.9 0.8 -0.1
v -0.9 1.4 -0.1
v -0.9 0.3 -0.7
v -0.9 0.5 -0.7
v -0.9 0.8 -0.7
v -0.9 1.4 -0.7
v -1.7 0.5 -0.1
v -1.7 0.7 -0.1
v -1.7 1 -0.1
v -1.7 1.2 -0.1
v -1.7 0.5 -0.7
v -1.7 0.7 -0.7
v -1.7 1 -0.7
v -1.7 1.2 -0.7
v -2 0.2 0.7
v -2 0.5 0.7
v -2 0.2 0.1
v -2 0.5 0.1
v -0.2 1.7 1.4
v -0.2 2 1.4
v -0.2 1.7 1.3
v -0.2 2 1.3
v -0.2 1.7 -1.3
v -0.2 2 -1.3
v -0.2 1.7 -1.4
v -0.2 2 -1.4
v -1 1.7 1.3
v -1 2 1.3
v -1 2.3 1.3
v -1 2.6 1.3
v -1 2.9 1.3
v -1 1.7 1.1
v -1 2 1.1
v -1 2.3 1.1
v -1 2.6 1.1
v -1 2.9 1.1
v -1 3.1 1.1
v -1 1.7 -1.1
v -1 2 -1.1
v -1 2.3 -1.1
v -1 2.6 -1.1
v -1 2.9 -1.1
v -1 3.1 -1.1
v -1 1.7 -1.3
v -1 2 -1.3
v -1 2.3 -1.3
v -1 2.6 -1.3
v -1 2.9 -1.3
v -1.1 1.4 1.4
v -1.1 1.7 1.4
v -1.1 1.4 1.2
v -1.1 1.7 1.2
v -1.1 0.2 0.7
v -1.1 0.5 0.7
v -1.1 0.8 0.7
v -1.1 1.1 0.7
v -1.1 1.4 0.7
v -1.1 0.2 0.1
v -1.1 0.5 0.1
v -1.1 0.8 0.1
v -1.1 1.1 0.1
v -1.1 1.4 0.1
v -1.1 0.5 -0.1
v -1.1 0.8 -0.1
v -1.1 1.4 -0.1
v -1.1 0.5 -0.7
v -1.1 0.8 -0.7
v -1.1 1.4 -0.7
v -1.1 1.4 -1.2
v -1.1 1.7 -1.2
v -1.1 1.4 -1.4
v -1.1 1.7 -1.4
v -1.2 1.7 1.1
v -1.2 2 1.1
v -1.2 2.3 1.1
v -1.2 2.6 1.1
v -1.2 2.9 1.1
v -1.2 1.7 -1.1
v -1.2 2 -1.1
v -1.2 2.3 -1.1
v -1.2 2.6 -1.1
v -1.2 2.9 -1.1
v -1.3 1.4 1.2
v -1.3 1.7 1.2
v -1.3 1.4 -1.2
v -1.3 1.7 -1.2
v -1.9 0.3 -0.1
v -1.9 0.7 -0.1
v -1.9 1 -0.1
v -1.9 0.3 -0.7
v -1.9 0.7 -0.7
v -1.9 1 -0.7
v -2.2 0 0.7
v -2.2 0.2 0.7
v -2.2 0.3 0.7
v -2.2 0 0.1
v -2.2 0.2 0.1
v -2.2 0.3 0.1
v -2.5 0.3 0.7
v -2.5 0.5 0.7
v -2.5 0.3 0.1
v -2.5 0.5 0.1
v -2.6 1 -0.1
v -2.6 1.2 -0.1
v -2.6 1 -0.7
v -2.6 1.2 -0.7
v -0.9 0 0.7
v -0.9 0 0.1
v -1.4 0 0.7
v -1.4 0 0.1
v -1.7 0 0.7
v -1.7 0 0.1
v -2.2 0 0.7
v -2.2 0 0.1
v -0.9 0.3 -0.1
v -0.9 0.3 -0.7
v -1.4 0.3 -0.1
v -1.4 0.3 -0.7
v -1.7 0.3 -0.1
v -1.7 0.3 -0.7
v -1.9 0.3 -0.1
v -1.9 0.3 -0.7
v -2.2 0.3 0.7
v -2.2 0.3 0.1
v -2.5 0.3 0.7
v -2.5 0.3 0.1
v -1.9 1 -0.1
v -1.9 1 -0.7
v -2 1 -0.1
v -2 1 -0.7
v -2.3 1 -0.1
v -2.3 1 -0.7
v -2.6 1 -0.1
v -2.6 1 -0.7
v 0.1 1.4 1.4
v 0.1 1.4 -1.4
v -0.9 1.4 0.7
v -0.9 1.4 0.1
v -0.9 1.4 -0.1
v -0.9 1.4 -0.7
v -1 1.4 1.1
v -1 1.4 0.7
v -1 1.4 0.1
v -1 1.4 -0.1
v -1 1.4 -0.7
v -1 1.4 -1.1
v -1.1 1.4 1.4
v -1.1 1.4 1.2
v -1.1 1.4 1.1
v -1.1 1.4 0.7
v -1.1 1.4 0.1
v -1.1 1.4 -0.1
v -1.1 1.4 -0.7
v -1.1 1.4 -1.1
v -1.1 1.4 -1.2
v -1.1 1.4 -1.4
v -1.3 1.4 1.2
v -1.3 1.4 -1.2
v 1.1 1.7 1.2
v 1.1 1.7 -1.2
v 0.9 1.7 1.4
v 0.9 1.7 1.2
v 0.9 1.7 -1.2
v 0.9 1.7 -1.4
v 0.1 1.7 1.4
v 0.1 1.7 -1.4
v -1.1 0.2 0.7
v -1.1 0.2 0.1
v -1.4 0.2 0.7
v -1.4 0.2 0.1
v -1.7 0.2 0.7
v -1.7 0.2 0.1
v -2 0.2 0.7
v -2 0.2 0.1
v -1.1 0.5 -0.1
v -1.1 0.5 -0.7
v -1.4 0.5 -0.1
v -1.4 0.5 -0.7
v -1.7 0.5 -0.1
v -1.7 0.5 -0.7
v -2 0.5 0.7
v -2 0.5 0.1
v -2.2 0.5 0.7
v -2.2 0.5 0.1
v -2.5 0.5 0.7
v -2.5 0.5 0.1
v -1.7 1.2 -0.1
v -1.7 1.2 -0.7
v -2 1.2 -0.1
v -2 1.2 -0.7
v -2.3 1.2 -0.1
v -2.3 1.2 -0.7
v -2.6 1.2 -0.1
v -2.6 1.2 -0.7
v -0.2 1.7 1.4
v -0.2 1.7 1.3
v -0.2 1.7 -1.3
v -0.2 1.7 -1.4
v -1 1.7 1.3
v -1 1.7 1.1
v -1 1.7 -1.1
v -1 1.7 -1.3
v -1.1 1.7 1.4
v -1.1 1.7 1.2
v -1.1 1.7 1.1
v -1.1 1.7 -1.1
v -1.1 1.7 -1.2
v -1.1 1.7 -1.4
v -1.2 1.7 1.1
v -1.2 1.7 -1.1
v -1.3 1.7 1.2
v -1.3 1.7 -1.2
v 1.1 2 1.2
v 1.1 2 -1.2
v 1 2 1.1
v 1 2 -1.1
v 0.9 2 1.4
v 0.9 2 1.2
v 0.9 2 -1.2
v 0.9 2 -1.4
v 0.8 2 1.3
v 0.8 2 1.1
v 0.8 2 -1.1
v 0.8 2 -1.3
v -0.2 2 1.4
v -0.2 2 1.3
v -0.2 2 -1.3
v -0.2 2 -1.4
v 1 2.9 1.1
v 1 2.9 -1.1
v 0.8 2.9 1.3
v 0.8 2.9 1.1
v 0.8 2.9 -1.1
v 0.8 2.9 -1.3
v 0.5 2.9 1.1
v 0.5 2.9 -1.1
v 0.2 2.9 1.1
v 0.2 2.9 -1.1
v -0.1 2.9 1.1
v -0.1 2.9 -1.1
v -0.4 2.9 1.1
v -0.4 2.9 -1.1
v -0.7 2.9 1.1
v -0.7 2.9 -1.1
v -1 2.9 1.3
v -1 2.9 1.1
v -1 2.9 -1.1
v -1 2.9 -1.3
v -1.2 2.9 1.1
v -1.2 2.9 -1.1
v 0.8 3.1 1.1
v 0.8 3.1 -1.1
v 0.5 3.1 1.1
v 0.5 3.1 -1.1
v 0.2 3.1 1.1
v 0.2 3.1 -1.1
v -0.1 3.1 1.1
v -0.1 3.1 -1.1
v -0.4 3.1 1.1
v -0.4 3.1 -1.1
v -0.7 3.1 1.1
v -0.7 3.1 -1.1
v -1 3.1 1.1
v -1 3.1 -1.1

# faces
f 4/2/1 2/2/1 1/2/1
f 5/2/1 2/2/1 4/2/1
f 6/2/1 2/2/1 5/2/1
f 7/1/1 4/1/1 3/1/1
f 7/1/1 5/1/1 4/1/1
f 8/1/1 5/1/1 7/1/1
f 12/1/1 10/1/1 9/1/1
f 13/1/1 10/1/1 12/1/1
f 14/2/1 12/2/1 11/2/1
f 14/2/1 13/2/1 12/2/1
f 15/2/1 13/2/1 14/2/1
f 16/1/1 15/1/1 14/1/1
f 17/1/1 15/1/1 16/1/1
f 18/2/1 17/2/1 16/2/1
f 19/2/1 17/2/1 18/2/1
f 24/1/1 21/1/1 20/1/1
f 25/1/1 21/1/1 24/1/1
f 26/1/1 23/1/1 22/1/1
f 27/1/1 23/1/1 26/1/1
f 33/2/1 29/2/1 28/2/1
f 33/2/1 30/2/1 29/2/1
f 34/2/1 30/2/1 33/2/1
f 35/2/1 32/2/1 31/2/1
f 36/2/1 32/2/1 35/2/1
f 37/1/1 34/1/1 33/1/1
f 38/1/1 34/1/1 37/1/1
f 39/1/1 36/1/1 35/1/1
f 40/1/1 36/1/1 39/1/1
f 41/2/1 38/2/1 37/2/1
f 42/2/1 38/2/1 41/2/1
f 43/2/1 40/2/1 39/2/1
f 44/2/1 40/2/1 43/2/1
f 50/1/1 42/1/1 41/1/1
f 51/1/1 42/1/1 50/1/1
f 52/1/1 45/1/1 44/1/1
f 53/2/1 46/2/1 45/2/1
f 53/1/1 45/1/1 52/1/1
f 54/1/1 47/1/1 46/1/1
f 54/2/1 46/2/1 53/2/1
f 55/2/1 48/2/1 47/2/1
f 55/1/1 47/1/1 54/1/1
f 56/1/1 49/1/1 48/1/1
f 56/2/1 48/2/1 55/2/1
f 57/2/1 50/2/1 49/2/1
f 57/1/1 49/1/1 56/1/1
f 58/2/1 50/2/1 57/2/1
f 63/1/1 60/1/1 59/1/1
f 64/1/1 60/1/1 63/1/1
f 65/2/1 61/2/1 60/2/1
f 65/1/1 60/1/1 64/1/1
f 66/1/1 62/1/1 61/1/1
f 66/2/1 61/2/1 65/2/1
f 67/1/1 62/1/1 66/1/1
f 68/1/1 62/1/1 67/1/1
f 69/2/1 68/2/1 67/2/1
f 71/2/1 64/2/1 63/2/1
f 72/2/1 64/2/1 71/2/1
f 73/2/1 69/2/1 67/2/1
f 74/1/1 70/1/1 69/1/1
f 74/2/1 69/2/1 73/2/1
f 75/1/1 70/1/1 74/1/1
f 76/1/1 72/1/1 71/1/1
f 77/1/1 72/1/1 76/1/1
f 78/2/1 77/2/1 76/2/1
f 79/2/1 77/2/1 78/2/1
f 80/1/1 79/1/1 78/1/1
f 81/1/1 79/1/1 80/1/1
f 82/1/1 79/1/1 81/1/1
f 87/1/1 84/1/1 83/1/1
f 88/1/1 84/1/1 87/1/1
f 89/2/1 85/2/1 84/2/1
f 89/1/1 84/1/1 88/1/1
f 90/1/1 86/1/1 85/1/1
f 90/2/1 85/2/1 89/2/1
f 91/1/1 86/1/1 90/1/1
f 92/1/1 86/1/1 91/1/1
f 93/2/1 88/2/1 87/2/1
f 94/2/1 88/2/1 93/2/1
f 95/2/1 92/2/1 91/2/1
f 96/2/1 92/2/1 95/2/1
f 100/1/1 96/1/1 95/1/1
f 100/1/1 97/1/1 96/1/1
f 101/2/1 98/2/1 97/2/1
f 101/1/1 97/1/1 100/1/1
f 102/1/1 99/1/1 98/1/1
f 102/2/1 98/2/1 101/2/1
f 103/1/1 99/1/1 102/1/1
f 104/1/1 94/1/1 93/1/1
f 105/1/1 94/1/1 104/1/1
f 106/1/1 94/1/1 105/1/1
f 107/1/2 108/1/2 111/1/2
f 111/1/2 108/1/2 112/1/2
f 108/2/2 109/2/2 113/2/2
f 112/1/2 108/1/2 113/1/2
f 109/1/2 110/1/2 114/1/2
f 113/2/2 109/2/2 114/2/2
f 114/1/2 110/1/2 115/1/2
f 115/1/2 110/1/2 116/1/2
f 115/2/2 116/2/2 117/2/2
f 111/2/2 112/2/2 119/2/2
f 119/2/2 112/2/2 120/2/2
f 115/2/2 117/2/2 121/2/2
f 117/1/2 118/1/2 122/1/2
f 121/2/2 117/2/2 122/2/2
f 122/1/2 118/1/2 123/1/2
f 119/1/2 120/1/2 124/1/2
f 124/1/2 120/1/2 125/1/2
f 124/2/2 125/2/2 126/2/2
f 126/2/2 125/2/2 127/2/2
f 126/1/2 127/1/2 128/1/2
f 128/1/2 127/1/2 129/1/2
f 129/1/2 127/1/2 130/1/2
f 131/1/2 132/1/2 135/1/2
f 135/1/2 132/1/2 136/1/2
f 132/2/2 133/2/2 137/2/2
f 136/1/2 132/1/2 137/1/2
f 133/1/2 134/1/2 138/1/2
f 137/2/2 133/2/2 138/2/2
f 138/1/2 134/1/2 139/1/2
f 139/1/2 134/1/2 140/1/2
f 135/2/2 136/2/2 141/2/2
f 141/2/2 136/2/2 142/2/2
f 139/2/2 140/2/2 143/2/2
f 143/2/2 140/2/2 144/2/2
f 143/1/2 144/1/2 148/1/2
f 144/1/2 145/1/2 148/1/2
f 145/2/2 146/2/2 149/2/2
f 148/1/2 145/1/2 149/1/2
f 146/1/2 147/1/2 150/1/2
f 149/2/2 146/2/2 150/2/2
f 150/1/2 147/1/2 151/1/2
f 141/1/2 142/1/2 152/1/2
f 152/1/2 142/1/2 153/1/2
f 153/1/2 142/1/2 154/1/2
f 155/2/2 156/2/2 160/2/2
f 156/2/2 157/2/2 160/2/2
f 160/2/2 157/2/2 161/2/2
f 158/2/2 159/2/2 162/2/2
f 162/2/2 159/2/2 163/2/2
f 160/1/2 161/1/2 164/1/2
f 164/1/2 161/1/2 165/1/2
f 162/1/2 163/1/2 166/1/2
f 166/1/2 163/1/2 167/1/2
f 164/2/2 165/2/2 168/2/2
f 168/2/2 165/2/2 169/2/2
f 166/2/2 167/2/2 170/2/2
f 170/2/2 167/2/2 171/2/2
f 168/1/2 169/1/2 177/1/2
f 177/1/2 169/1/2 178/1/2
f 171/1/2 172/1/2 179/1/2
f 172/2/2 173/2/2 180/2/2
f 179/1/2 172/1/2 180/1/2
f 173/1/2 174/1/2 181/1/2
f 180/2/2 173/2/2 181/2/2
f 174/2/2 175/2/2 182/2/2
f 181/1/2 174/1/2 182/1/2
f 175/1/2 176/1/2 183/1/2
f 182/2/2 175/2/2 183/2/2
f 176/2/2 177/2/2 184/2/2
f 183/1/2 176/1/2 184/1/2
f 184/2/2 177/2/2 185/2/2
f 186/1/2 187/1/2 190/1/2
f 190/1/2 187/1/2 191/1/2
f 188/1/2 189/1/2 192/1/2
f 192/1/2 189/1/2 193/1/2
f 194/1/2 195/1/2 197/1/2
f 197/1/2 195/1/2 198/1/2
f 196/2/2 197/2/2 199/2/2
f 197/2/2 198/2/2 199/2/2
f 199/2/2 198/2/2 200/2/2
f 199/1/2 200/1/2 201/1/2
f 201/1/2 200/1/2 202/1/2
f 201/2/2 202/2/2 203/2/2
f 203/2/2 202/2/2 204/2/2
f 205/2/2 206/2/2 208/2/2
f 208/2/2 206/2/2 209/2/2
f 209/2/2 206/2/2 210/2/2
f 207/1/2 208/1/2 211/1/2
f 208/1/2 209/1/2 211/1/2
f 211/1/2 209/1/2 212/1/2
f 215/1/3 214/1/3 213/1/3
f 216/1/3 214/1/3 215/1/3
f 221/2/3 218/2/3 217/2/3
f 222/1/3 219/1/3 218/1/3
f 222/2/3 218/2/3 221/2/3
f 223/2/3 220/2/3 219/2/3
f 223/1/3 219/1/3 222/1/3
f 224/2/3 220/2/3 223/2/3
f 227/1/3 226/1/3 225/1/3
f 228/1/3 226/1/3 227/1/3
f 231/1/3 230/1/3 229/1/3
f 232/1/3 230/1/3 231/1/3
f 237/2/3 234/2/3 233/2/3
f 238/1/3 235/1/3 234/1/3
f 238/2/3 234/2/3 237/2/3
f 239/2/3 236/2/3 235/2/3
f 239/1/3 235/1/3 238/1/3
f 240/2/3 236/2/3 239/2/3
f 245/1/3 241/1/3 240/1/3
f 246/1/3 241/1/3 245/1/3
f 247/2/3 243/2/3 242/2/3
f 248/1/3 244/1/3 243/1/3
f 248/2/3 243/2/3 247/2/3
f 249/2/3 245/2/3 244/2/3
f 249/1/3 244/1/3 248/1/3
f 250/2/3 245/2/3 249/2/3
f 253/2/3 252/2/3 251/2/3
f 254/2/3 252/2/3 253/2/3
f 261/1/3 256/1/3 255/1/3
f 262/2/3 257/2/3 256/2/3
f 262/1/3 256/1/3 261/1/3
f 263/1/3 258/1/3 257/1/3
f 263/2/3 257/2/3 262/2/3
f 264/2/3 259/2/3 258/2/3
f 264/1/3 258/1/3 263/1/3
f 265/1/3 260/1/3 259/1/3
f 265/2/3 259/2/3 264/2/3
f 266/1/3 260/1/3 265/1/3
f 271/1/3 268/1/3 267/1/3
f 272/2/3 269/2/3 268/2/3
f 272/1/3 268/1/3 271/1/3
f 273/1/3 270/1/3 269/1/3
f 273/2/3 269/2/3 272/2/3
f 274/1/3 270/1/3 273/1/3
f 279/1/3 276/1/3 275/1/3
f 280/2/3 277/2/3 276/2/3
f 280/1/3 276/1/3 279/1/3
f 281/1/3 278/1/3 277/1/3
f 281/2/3 277/2/3 280/2/3
f 282/1/3 278/1/3 281/1/3
f 285/2/3 284/2/3 283/2/3
f 286/2/3 284/2/3 285/2/3
f 287/1/4 288/1/4 289/1/4
f 289/1/4 288/1/4 290/1/4
f 291/1/4 292/1/4 293/1/4
f 293/1/4 292/1/4 294/1/4
f 295/1/4 296/1/4 300/1/4
f 296/2/4 297/2/4 301/2/4
f 300/1/4 296/1/4 301/1/4
f 297/1/4 298/1/4 302/1/4
f 301/2/4 297/2/4 302/2/4
f 298/2/4 299/2/4 303/2/4
f 302/1/4 298/1/4 303/1/4
f 303/2/4 299/2/4 304/2/4
f 304/2/4 305/2/4 310/2/4
f 310/2/4 305/2/4 311/2/4
f 306/1/4 307/1/4 312/1/4
f 307/2/4 308/2/4 313/2/4
f 312/1/4 307/1/4 313/1/4
f 308/1/4 309/1/4 314/1/4
f 313/2/4 308/2/4 314/2/4
f 309/2/4 310/2/4 315/2/4
f 314/1/4 309/1/4 315/1/4
f 315/2/4 310/2/4 316/2/4
f 317/2/4 318/2/4 319/2/4
f 319/2/4 318/2/4 320/2/4
f 321/2/4 322/2/4 326/2/4
f 322/1/4 323/1/4 327/1/4
f 326/2/4 322/2/4 327/2/4
f 323/2/4 324/2/4 328/2/4
f 327/1/4 323/1/4 328/1/4
f 324/1/4 325/1/4 329/1/4
f 328/2/4 324/2/4 329/2/4
f 329/1/4 325/1/4 330/1/4
f 331/2/4 332/2/4 334/2/4
f 332/1/4 333/1/4 335/1/4
f 334/2/4 332/2/4 335/2/4
f 335/1/4 333/1/4 336/1/4
f 337/2/4 338/2/4 339/2/4
f 339/2/4 338/2/4 340/2/4
f 341/2/4 342/2/4 346/2/4
f 342/1/4 343/1/4 347/1/4
f 346/2/4 342/2/4 347/2/4
f 343/2/4 344/2/4 348/2/4
f 347/1/4 343/1/4 348/1/4
f 344/1/4 345/1/4 349/1/4
f 348/2/4 344/2/4 349/2/4
f 349/1/4 345/1/4 350/1/4
f 351/1/4 352/1/4 353/1/4
f 353/1/4 352/1/4 354/1/4
f 355/1/4 356/1/4 358/1/4
f 356/2/4 357/2/4 359/2/4
f 358/1/4 356/1/4 359/1/4
f 359/2/4 357/2/4 360/2/4
f 361/1/4 362/1/4 364/1/4
f 362/2/4 363/2/4 365/2/4
f 364/1/4 362/1/4 365/1/4
f 365/2/4 363/2/4 366/2/4
f 367/1/4 368/1/4 369/1/4
f 369/1/4 368/1/4 370/1/4
f 371/1/4 372/1/4 373/1/4
f 373/1/4 372/1/4 374/1/4
f 377/1/5 376/1/5 375/1/5
f 378/1/5 376/1/5 377/1/5
f 379/2/5 378/2/5 377/2/5
f 380/2/5 378/2/5 379/2/5
f 381/1/5 380/1/5 379/1/5
f 382/1/5 380/1/5 381/1/5
f 385/1/5 384/1/5 383/1/5
f 386/1/5 384/1/5 385/1/5
f 387/2/5 386/2/5 385/2/5
f 388/2/5 386/2/5 387/2/5
f 389/1/5 388/1/5 387/1/5
f 390/1/5 388/1/5 389/1/5
f 393/1/5 392/1/5 391/1/5
f 394/1/5 392/1/5 393/1/5
f 397/1/5 396/1/5 395/1/5
f 398/1/5 396/1/5 397/1/5
f 399/2/5 398/2/5 397/2/5
f 400/2/5 398/2/5 399/2/5
f 401/1/5 400/1/5 399/1/5
f 402/1/5 400/1/5 401/1/5
f 405/2/5 404/2/5 403/2/5
f 406/2/5 404/2/5 405/2/5
f 407/2/5 404/2/5 406/2/5
f 408/2/5 404/2/5 407/2/5
f 409/2/5 405/2/5 403/2/5
f 410/2/5 405/2/5 409/2/5
f 411/2/5 407/2/5 406/2/5
f 412/2/5 407/2/5 411/2/5
f 413/2/5 404/2/5 408/2/5
f 414/2/5 404/2/5 413/2/5
f 415/2/5 409/2/5 403/2/5
f 416/2/5 409/2/5 415/2/5
f 417/1/5 410/1/5 409/1/5
f 417/2/5 409/2/5 416/2/5
f 418/1/5 410/1/5 417/1/5
f 419/1/5 412/1/5 411/1/5
f 420/1/5 412/1/5 419/1/5
f 421/1/5 414/1/5 413/1/5
f 422/2/5 404/2/5 414/2/5
f 422/1/5 414/1/5 421/1/5
f 423/2/5 404/2/5 422/2/5
f 424/2/5 404/2/5 423/2/5
f 425/1/5 418/1/5 417/1/5
f 425/1/5 423/1/5 422/1/5
f 425/1/5 422/1/5 421/1/5
f 425/1/5 421/1/5 420/1/5
f 425/1/5 419/1/5 418/1/5
f 425/1/5 420/1/5 419/1/5
f 425/1/5 417/1/5 416/1/5
f 426/1/5 423/1/5 425/1/5
f 430/1/5 428/1/5 427/1/5
f 431/1/5 428/1/5 430/1/5
f 433/1/5 430/1/5 429/1/5
f 433/1/5 432/1/5 431/1/5
f 433/1/5 431/1/5 430/1/5
f 434/1/5 432/1/5 433/1/5
f 435/1/6 436/1/6 437/1/6
f 437/1/6 436/1/6 438/1/6
f 437/2/6 438/2/6 439/2/6
f 439/2/6 438/2/6 440/2/6
f 439/1/6 440/1/6 441/1/6
f 441/1/6 440/1/6 442/1/6
f 443/1/6 444/1/6 445/1/6
f 445/1/6 444/1/6 446/1/6
f 445/2/6 446/2/6 447/2/6
f 447/2/6 446/2/6 448/2/6
f 449/2/6 450/2/6 451/2/6
f 451/2/6 450/2/6 452/2/6
f 451/1/6 452/1/6 453/1/6
f 453/1/6 452/1/6 454/1/6
f 455/1/6 456/1/6 457/1/6
f 457/1/6 456/1/6 458/1/6
f 457/2/6 458/2/6 459/2/6
f 459/2/6 458/2/6 460/2/6
f 459/1/6 460/1/6 461/1/6
f 461/1/6 460/1/6 462/1/6
f 463/2/6 464/2/6 467/2/6
f 465/2/6 466/2/6 470/2/6
f 467/2/6 468/2/6 471/2/6
f 463/2/6 467/2/6 471/2/6
f 471/2/6 468/2/6 472/2/6
f 472/2/6 468/2/6 473/2/6
f 469/2/6 470/2/6 474/2/6
f 474/2/6 470/2/6 475/2/6
f 470/2/6 466/2/6 476/2/6
f 475/2/6 470/2/6 476/2/6
f 472/1/6 473/1/6 477/1/6
f 474/1/6 475/1/6 478/1/6
f 472/1/6 477/1/6 479/1/6
f 477/1/6 478/1/6 479/1/6
f 478/1/6 475/1/6 480/1/6
f 479/1/6 478/1/6 480/1/6
f 481/1/6 482/1/6 483/1/6
f 483/1/6 482/1/6 484/1/6
f 481/1/6 483/1/6 486/1/6
f 484/1/6 482/1/6 487/1/6
f 485/1/6 486/1/6 489/1/6
f 486/1/6 483/1/6 490/1/6
f 489/1/6 486/1/6 490/1/6
f 487/1/6 488/1/6 491/1/6
f 484/1/6 487/1/6 491/1/6
f 491/1/6 488/1/6 492/1/6
f 485/1/6 489/1/6 493/1/6
f 493/1/6 489/1/6 494/1/6
f 492/1/6 488/1/6 495/1/6
f 495/1/6 488/1/6 496/1/6
f 497/2/6 498/2/6 500/2/6
f 500/2/6 498/2/6 501/2/6
f 499/2/6 500/2/6 503/2/6
f 501/2/6 502/2/6 504/2/6
f 499/2/6 503/2/6 505/2/6
f 504/2/6 502/2/6 506/2/6
f 499/2/6 505/2/6 507/2/6
f 506/2/6 502/2/6 508/2/6
f 499/2/6 507/2/6 509/2/6
f 508/2/6 502/2/6 510/2/6
f 499/2/6 509/2/6 511/2/6
f 510/2/6 502/2/6 512/2/6
f 499/2/6 511/2/6 513/2/6
f 513/2/6 511/2/6 514/2/6
f 512/2/6 502/2/6 515/2/6
f 515/2/6 502/2/6 516/2/6
f 514/1/6 515/1/6 517/1/6
f 517/1/6 515/1/6 518/1/6
f 519/1/6 520/1/6 521/1/6
f 521/1/6 520/1/6 522/1/6
f 521/2/6 522/2/6 523/2/6
f 523/2/6 522/2/6 524/2/6
f 523/1/6 524/1/6 525/1/6
f 525/1/6 524/1/6 526/1/6
f 525/2/6 526/2/6 527/2/6
f 527/2/6 526/2/6 528/2/6
f 527/1/6 528/1/6 529/1/6
f 529/1/6 528/1/6 530/1/6
f 529/2/6 530/2/6 531/2/6
f 531/2/6 530/2/6 532/2/6
