# MagicaVoxel @ Ephtracy

# group
o 

# material
mtllib model-1.mtl
usemtl palette

# normals
vn 0 0 1
vn 0 0 -1
vn 1 0 0
vn -1 0 0
vn 0 -1 0
vn 0 1 0

# texcoords
vt 0.0996094 0.5
vt 0.103516 0.5
vt 0.107422 0.5
vt 0.818359 0.5

# verts
v 0.5 0 1
v -0.5 0 1
v 0.5 0.2 1
v -0.5 0.2 1
v 0.5 0.7 1
v -0.5 0.7 1
v 0.5 0 -0.2
v 0.4 0 -0.2
v 0.4 0.2 -0.2
v 0.4 0.3 -0.2
v 0.4 0.5 -0.2
v 0.4 0.6 -0.2
v 0.5 0.7 -0.2
v 0.4 0.7 -0.2
v 0.5 0 0.2
v 0.4 0 0.2
v 0.4 0.2 0.2
v 0.4 0.3 0.2
v 0.4 0.5 0.2
v 0.4 0.6 0.2
v 0.5 0.7 0.2
v 0.4 0.7 0.2
v 0.5 0 -1
v -0.5 0 -1
v 0.5 0.2 -1
v -0.5 0.2 -1
v 0.5 0.7 -1
v -0.5 0.7 -1
v 0.5 0 1
v 0.5 0.2 1
v 0.5 0.7 1
v 0.5 0.2 0.4
v 0.5 0.7 0.4
v 0.5 0 0.2
v 0.5 0.7 0.2
v 0.5 0 -0.2
v 0.5 0.7 -0.2
v 0.5 0.2 -0.4
v 0.5 0.7 -0.4
v 0.5 0 -1
v 0.5 0.2 -1
v 0.5 0.7 -1
v 0.4 0 0.2
v 0.4 0.2 0.2
v 0.4 0.3 0.2
v 0.4 0.5 0.2
v 0.4 0.6 0.2
v 0.4 0.7 0.2
v 0.4 0 -0.2
v 0.4 0.2 -0.2
v 0.4 0.3 -0.2
v 0.4 0.5 -0.2
v 0.4 0.6 -0.2
v 0.4 0.7 -0.2
v -0.5 0 1
v -0.5 0.2 1
v -0.5 0.7 1
v -0.5 0 -1
v -0.5 0.2 -1
v -0.5 0.7 -1
v 0.5 0 1
v 0.5 0 0.2
v 0.5 0 -0.2
v 0.5 0 -1
v 0.4 0 0.9
v 0.4 0 0.2
v 0.4 0 -0.2
v 0.4 0 -0.9
v -0.4 0 0.9
v -0.4 0 -0.9
v -0.5 0 1
v -0.5 0 -1
v 0.5 0.7 1
v 0.5 0.7 0.4
v 0.5 0.7 0.2
v 0.5 0.7 -0.2
v 0.5 0.7 -0.4
v 0.5 0.7 -1
v 0.4 0.7 0.9
v 0.4 0.7 0.4
v 0.4 0.7 0.2
v 0.4 0.7 -0.2
v 0.4 0.7 -0.4
v 0.4 0.7 -0.9
v -0.4 0.7 0.9
v -0.4 0.7 -0.9
v -0.5 0.7 1
v -0.5 0.7 -1

# faces
f 3/3/1 2/3/1 1/3/1
f 4/3/1 2/3/1 3/3/1
f 5/2/1 4/2/1 3/2/1
f 6/2/1 4/2/1 5/2/1
f 9/3/1 8/3/1 7/3/1
f 10/3/1 9/3/1 7/3/1
f 11/3/1 10/3/1 7/3/1
f 12/3/1 11/3/1 7/3/1
f 13/3/1 12/3/1 7/3/1
f 14/3/1 12/3/1 13/3/1
f 15/3/2 16/3/2 17/3/2
f 15/3/2 17/3/2 18/3/2
f 15/3/2 18/3/2 19/3/2
f 15/3/2 19/3/2 20/3/2
f 15/3/2 20/3/2 21/3/2
f 21/3/2 20/3/2 22/3/2
f 23/3/2 24/3/2 25/3/2
f 25/3/2 24/3/2 26/3/2
f 25/2/2 26/2/2 27/2/2
f 27/2/2 26/2/2 28/2/2
f 32/3/3 30/3/3 29/3/3
f 32/2/3 31/2/3 30/2/3
f 33/2/3 31/2/3 32/2/3
f 34/3/3 32/3/3 29/3/3
f 34/3/3 33/3/3 32/3/3
f 35/3/3 33/3/3 34/3/3
f 38/3/3 37/3/3 36/3/3
f 39/3/3 37/3/3 38/3/3
f 40/3/3 38/3/3 36/3/3
f 41/2/3 39/2/3 38/2/3
f 41/3/3 38/3/3 40/3/3
f 42/2/3 39/2/3 41/2/3
f 49/1/3 44/1/3 43/1/3
f 50/4/3 45/4/3 44/4/3
f 50/1/3 44/1/3 49/1/3
f 51/1/3 46/1/3 45/1/3
f 51/4/3 45/4/3 50/4/3
f 52/4/3 47/4/3 46/4/3
f 52/1/3 46/1/3 51/1/3
f 53/1/3 48/1/3 47/1/3
f 53/4/3 47/4/3 52/4/3
f 54/1/3 48/1/3 53/1/3
f 55/3/4 56/3/4 58/3/4
f 56/2/4 57/2/4 59/2/4
f 58/3/4 56/3/4 59/3/4
f 59/2/4 57/2/4 60/2/4
f 65/3/5 62/3/5 61/3/5
f 66/3/5 62/3/5 65/3/5
f 67/3/5 64/3/5 63/3/5
f 68/3/5 64/3/5 67/3/5
f 69/1/5 66/1/5 65/1/5
f 69/3/5 65/3/5 61/3/5
f 69/1/5 68/1/5 67/1/5
f 69/1/5 67/1/5 66/1/5
f 70/3/5 64/3/5 68/3/5
f 70/1/5 68/1/5 69/1/5
f 71/3/5 69/3/5 61/3/5
f 71/3/5 70/3/5 69/3/5
f 72/3/5 64/3/5 70/3/5
f 72/3/5 70/3/5 71/3/5
f 73/2/6 74/2/6 79/2/6
f 74/3/6 75/3/6 80/3/6
f 79/2/6 74/2/6 80/2/6
f 80/3/6 75/3/6 81/3/6
f 76/3/6 77/3/6 82/3/6
f 77/2/6 78/2/6 83/2/6
f 82/3/6 77/3/6 83/3/6
f 83/2/6 78/2/6 84/2/6
f 81/1/6 82/1/6 85/1/6
f 73/2/6 79/2/6 85/2/6
f 83/1/6 84/1/6 85/1/6
f 82/1/6 83/1/6 85/1/6
f 80/1/6 81/1/6 85/1/6
f 79/1/6 80/1/6 85/1/6
f 84/2/6 78/2/6 86/2/6
f 85/1/6 84/1/6 86/1/6
f 73/2/6 85/2/6 87/2/6
f 85/2/6 86/2/6 87/2/6
f 86/2/6 78/2/6 88/2/6
f 87/2/6 86/2/6 88/2/6
