# MagicaVoxel @ Ephtracy

# group
o 

# material
mtllib model-0.mtl
usemtl palette

# normals
vn -1 0 0
vn 1 0 0
vn 0 0 -1
vn 0 0 1
vn 0 -1 0
vn 0 1 0

# texcoords
vt 0.0253906 0.5
vt 0.0644531 0.5
vt 0.0683594 0.5
vt 0.775391 0.5

# verts
v -0.6 0.5 -1
v -0.6 0.5 -0.1
v -0.6 0.7 -1
v -0.6 0.7 -0.1
v -0.5 0 -0.9
v -0.5 0 -0.2
v -0.5 0.1 -0.9
v -0.5 0.1 -0.2
v -0.5 0.5 -0.9
v -0.5 0.5 -0.2
v 0.5 0.4 -0.6
v 0.5 0.4 -0.5
v 0.5 0.5 -0.6
v 0.5 0.5 -0.5
v 0.3 0.4 -0.9
v 0.3 0.4 -0.7
v 0.3 0.4 -0.4
v 0.3 0.4 -0.2
v 0.3 0.5 -0.9
v 0.3 0.5 -0.7
v 0.3 0.5 -0.4
v 0.3 0.5 -0.2
v 0.4 0.4 -0.6
v 0.4 0.4 -0.5
v 0.4 0.5 -1
v 0.4 0.5 -0.7
v 0.4 0.5 -0.6
v 0.4 0.5 -0.5
v 0.4 0.5 -0.4
v 0.4 0.5 -0.1
v 0.4 0.7 -1
v 0.4 0.7 -0.1
v 0.6 0.4 -0.7
v 0.6 0.4 -0.4
v 0.6 0.5 -0.7
v 0.6 0.5 -0.4
v 0.7 0 -0.9
v 0.7 0 -0.2
v 0.7 0.1 -0.9
v 0.7 0.1 -0.2
v 0.7 0.4 -0.9
v 0.7 0.4 -0.2
v -0.6 0.5 -1
v -0.6 0.7 -1
v 0.4 0.5 -1
v 0.4 0.7 -1
v -0.5 0 -0.9
v -0.5 0.1 -0.9
v -0.5 0.5 -0.9
v 0.3 0.4 -0.9
v 0.3 0.5 -0.9
v 0.7 0 -0.9
v 0.7 0.1 -0.9
v 0.7 0.4 -0.9
v 0.3 0.4 -0.7
v 0.3 0.5 -0.7
v 0.4 0.5 -0.7
v 0.6 0.4 -0.7
v 0.6 0.5 -0.7
v 0.4 0.4 -0.5
v 0.4 0.5 -0.5
v 0.5 0.4 -0.5
v 0.5 0.5 -0.5
v 0.4 0.4 -0.6
v 0.4 0.5 -0.6
v 0.5 0.4 -0.6
v 0.5 0.5 -0.6
v 0.3 0.4 -0.4
v 0.3 0.5 -0.4
v 0.4 0.5 -0.4
v 0.6 0.4 -0.4
v 0.6 0.5 -0.4
v -0.5 0 -0.2
v -0.5 0.1 -0.2
v -0.5 0.5 -0.2
v 0.3 0.4 -0.2
v 0.3 0.5 -0.2
v 0.7 0 -0.2
v 0.7 0.1 -0.2
v 0.7 0.4 -0.2
v -0.6 0.5 -0.1
v -0.6 0.7 -0.1
v 0.4 0.5 -0.1
v 0.4 0.7 -0.1
v -0.5 0 -0.9
v 0.7 0 -0.9
v -0.5 0 -0.2
v 0.7 0 -0.2
v -0.6 0.5 -1
v 0.4 0.5 -1
v -0.5 0.5 -0.9
v 0.3 0.5 -0.9
v 0.3 0.5 -0.7
v 0.4 0.5 -0.7
v 0.3 0.5 -0.4
v 0.4 0.5 -0.4
v -0.5 0.5 -0.2
v 0.3 0.5 -0.2
v -0.6 0.5 -0.1
v 0.4 0.5 -0.1
v 0.3 0.4 -0.9
v 0.7 0.4 -0.9
v 0.3 0.4 -0.7
v 0.6 0.4 -0.7
v 0.4 0.4 -0.6
v 0.5 0.4 -0.6
v 0.4 0.4 -0.5
v 0.5 0.4 -0.5
v 0.3 0.4 -0.4
v 0.6 0.4 -0.4
v 0.3 0.4 -0.2
v 0.7 0.4 -0.2
v 0.4 0.5 -0.7
v 0.6 0.5 -0.7
v 0.4 0.5 -0.6
v 0.5 0.5 -0.6
v 0.4 0.5 -0.5
v 0.5 0.5 -0.5
v 0.4 0.5 -0.4
v 0.6 0.5 -0.4
v -0.6 0.7 -1
v 0.4 0.7 -1
v -0.6 0.7 -0.1
v 0.4 0.7 -0.1

# faces
f 1/1/1 2/1/1 3/1/1
f 3/1/1 2/1/1 4/1/1
f 5/2/1 6/2/1 7/2/1
f 7/2/1 6/2/1 8/2/1
f 7/3/1 8/3/1 9/3/1
f 9/3/1 8/3/1 10/3/1
f 11/4/1 12/4/1 13/4/1
f 13/4/1 12/4/1 14/4/1
f 19/3/2 16/3/2 15/3/2
f 20/3/2 16/3/2 19/3/2
f 21/3/2 18/3/2 17/3/2
f 22/3/2 18/3/2 21/3/2
f 27/4/2 24/4/2 23/4/2
f 28/4/2 24/4/2 27/4/2
f 31/1/2 26/1/2 25/1/2
f 31/1/2 30/1/2 29/1/2
f 31/1/2 29/1/2 28/1/2
f 31/1/2 28/1/2 27/1/2
f 31/1/2 27/1/2 26/1/2
f 32/1/2 30/1/2 31/1/2
f 35/4/2 34/4/2 33/4/2
f 36/4/2 34/4/2 35/4/2
f 39/2/2 38/2/2 37/2/2
f 40/2/2 38/2/2 39/2/2
f 41/3/2 40/3/2 39/3/2
f 42/3/2 40/3/2 41/3/2
f 43/1/3 44/1/3 45/1/3
f 45/1/3 44/1/3 46/1/3
f 48/3/3 49/3/3 50/3/3
f 50/3/3 49/3/3 51/3/3
f 47/2/3 48/2/3 52/2/3
f 48/3/3 50/3/3 53/3/3
f 52/2/3 48/2/3 53/2/3
f 53/3/3 50/3/3 54/3/3
f 55/4/3 56/4/3 57/4/3
f 55/4/3 57/4/3 58/4/3
f 58/4/3 57/4/3 59/4/3
f 60/4/3 61/4/3 62/4/3
f 62/4/3 61/4/3 63/4/3
f 66/4/4 65/4/4 64/4/4
f 67/4/4 65/4/4 66/4/4
f 70/4/4 69/4/4 68/4/4
f 71/4/4 70/4/4 68/4/4
f 72/4/4 70/4/4 71/4/4
f 76/3/4 75/3/4 74/3/4
f 77/3/4 75/3/4 76/3/4
f 78/2/4 74/2/4 73/2/4
f 79/3/4 76/3/4 74/3/4
f 79/2/4 74/2/4 78/2/4
f 80/3/4 76/3/4 79/3/4
f 83/1/4 82/1/4 81/1/4
f 84/1/4 82/1/4 83/1/4
f 85/2/5 86/2/5 87/2/5
f 87/2/5 86/2/5 88/2/5
f 89/1/5 90/1/5 91/1/5
f 91/1/5 90/1/5 92/1/5
f 92/1/5 90/1/5 93/1/5
f 93/1/5 90/1/5 94/1/5
f 89/1/5 91/1/5 97/1/5
f 95/1/5 96/1/5 98/1/5
f 89/1/5 97/1/5 99/1/5
f 97/1/5 98/1/5 99/1/5
f 98/1/5 96/1/5 100/1/5
f 99/1/5 98/1/5 100/1/5
f 103/3/6 102/3/6 101/3/6
f 104/3/6 102/3/6 103/3/6
f 107/3/6 106/3/6 105/3/6
f 108/3/6 106/3/6 107/3/6
f 110/3/6 102/3/6 104/3/6
f 111/3/6 110/3/6 109/3/6
f 112/3/6 102/3/6 110/3/6
f 112/3/6 110/3/6 111/3/6
f 115/4/6 114/4/6 113/4/6
f 116/4/6 114/4/6 115/4/6
f 118/4/6 114/4/6 116/4/6
f 119/4/6 118/4/6 117/4/6
f 120/4/6 114/4/6 118/4/6
f 120/4/6 118/4/6 119/4/6
f 123/1/6 122/1/6 121/1/6
f 124/1/6 122/1/6 123/1/6
