# MagicaVoxel @ Ephtracy

# group
o 

# material
mtllib model-7.mtl
usemtl palette

# normals
vn 0 0 1
vn 0 0 -1
vn 1 0 0
vn -1 0 0
vn 0 -1 0
vn 0 1 0

# texcoords
vt 0.0371094 0.5
vt 0.251953 0.5
vt 0.255859 0.5
vt 0.259766 0.5

# verts
v 1.1 5.9 1.8
v -1.1 5.9 1.8
v -0.6 6 1.8
v -0.9 6 1.8
v -0.6 6.3 1.8
v -0.9 6.3 1.8
v 1.1 6.6 1.8
v -1.1 6.6 1.8
v 1.1 6.7 1.8
v -1.1 6.7 1.8
v 1.1 6.8 1.8
v -1.1 6.8 1.8
v 1.1 5.7 1.6
v -1.1 5.7 1.6
v 1.1 5.9 1.6
v -1.1 5.9 1.6
v 0.9 6.4 1.1
v -0.9 6.4 1.1
v 0.9 6.9 1.1
v -0.9 6.9 1.1
v 0.9 7 1.1
v -0.9 7 1.1
v -0.4 7.1 1.1
v -0.7 7.1 1.1
v 0.7 7.3 1.1
v 0.5 7.3 1.1
v -0.4 7.4 1.1
v -0.7 7.4 1.1
v 0.7 7.5 1.1
v 0.5 7.5 1.1
v 0.9 7.6 1.1
v -0.9 7.6 1.1
v 1.1 6.4 -0.5
v 1 6.4 -0.5
v 1.1 6.8 -0.5
v 1 6.8 -0.5
v 1 6.4 -1.7
v -1 6.4 -1.7
v 1 6.6 -1.7
v -1 6.6 -1.7
v 1 6.7 -1.7
v -1 6.7 -1.7
v 1 6.8 -1.7
v -1 6.8 -1.7
v 1 6.4 1.7
v -1 6.4 1.7
v 1 6.6 1.7
v -1 6.6 1.7
v 1 6.7 1.7
v -1 6.7 1.7
v 1 6.8 1.7
v -1 6.8 1.7
v 1.1 6.4 0.5
v 1 6.4 0.5
v 1.1 6.8 0.5
v 1 6.8 0.5
v 0.9 6.4 -1.1
v -0.9 6.4 -1.1
v 0.9 6.9 -1.1
v -0.9 6.9 -1.1
v 0.9 7 -1.1
v -0.9 7 -1.1
v 0.6 7.1 -1.1
v 0.3 7.1 -1.1
v 0.6 7.4 -1.1
v 0.3 7.4 -1.1
v 0.9 7.6 -1.1
v -0.9 7.6 -1.1
v 1.1 5.7 -1.6
v -1.1 5.7 -1.6
v 1.1 5.9 -1.6
v -1.1 5.9 -1.6
v 1.1 5.9 -1.8
v -1.1 5.9 -1.8
v -0.7 6.2 -1.8
v -0.9 6.2 -1.8
v -0.7 6.4 -1.8
v -0.9 6.4 -1.8
v 1.1 6.6 -1.8
v -1.1 6.6 -1.8
v 1.1 6.7 -1.8
v -1.1 6.7 -1.8
v 1.1 6.8 -1.8
v -1.1 6.8 -1.8
v 1.1 5.9 1.8
v 1.1 6.6 1.8
v 1.1 6.7 1.8
v 1.1 6.8 1.8
v 1.1 5.7 1.6
v 1.1 5.9 1.6
v 1.1 6.2 0.7
v 1.1 6.6 0.7
v 1.1 5.8 0.6
v 1.1 6 0.6
v 1.1 6.3 0.6
v 1.1 6.7 0.6
v 1.1 6.4 0.5
v 1.1 6.8 0.5
v 1.1 5.8 0.4
v 1.1 6 0.4
v 1.1 6.4 -0.5
v 1.1 6.8 -0.5
v 1.1 6.3 -0.6
v 1.1 6.7 -0.6
v 1.1 5.9 -0.7
v 1.1 6.1 -0.7
v 1.1 6.2 -0.7
v 1.1 6.6 -0.7
v 1.1 5.9 -0.9
v 1.1 6.1 -0.9
v 1.1 5.7 -1.6
v 1.1 5.9 -1.6
v 1.1 5.9 -1.8
v 1.1 6.6 -1.8
v 1.1 6.7 -1.8
v 1.1 6.8 -1.8
v 0.9 6.4 1.1
v 0.9 6.9 1.1
v 0.9 7 1.1
v 0.9 7.6 1.1
v 0.9 7.1 -0.2
v 0.9 7.4 -0.2
v 0.9 7.1 -0.5
v 0.9 7.4 -0.5
v 0.9 6.4 -1.1
v 0.9 6.9 -1.1
v 0.9 7 -1.1
v 0.9 7.6 -1.1
v -1 6.4 1.7
v -1 6.6 1.7
v -1 6.7 1.7
v -1 6.8 1.7
v -1 6.4 -1.4
v -1 6.5 -1.4
v -1 6.4 -1.6
v -1 6.5 -1.6
v -1 6.4 -1.7
v -1 6.6 -1.7
v -1 6.7 -1.7
v -1 6.8 -1.7
v 1 6.4 1.7
v 1 6.6 1.7
v 1 6.7 1.7
v 1 6.8 1.7
v 1 6.4 0.7
v 1 6.6 0.7
v 1 6.4 0.6
v 1 6.7 0.6
v 1 6.4 0.5
v 1 6.8 0.5
v 1 6.4 -0.5
v 1 6.8 -0.5
v 1 6.4 -0.6
v 1 6.7 -0.6
v 1 6.4 -0.7
v 1 6.6 -0.7
v 1 6.4 -1.7
v 1 6.6 -1.7
v 1 6.7 -1.7
v 1 6.8 -1.7
v -0.9 6.4 1.1
v -0.9 6.9 1.1
v -0.9 7 1.1
v -0.9 7.6 1.1
v -0.9 7.2 0.5
v -0.9 7.4 0.5
v -0.9 7.2 0.3
v -0.9 7.4 0.3
v -0.9 6.4 -1.1
v -0.9 6.9 -1.1
v -0.9 7 -1.1
v -0.9 7.6 -1.1
v -1.1 5.9 1.8
v -1.1 6.6 1.8
v -1.1 6.7 1.8
v -1.1 6.8 1.8
v -1.1 5.7 1.6
v -1.1 5.9 1.6
v -1.1 5.9 0.8
v -1.1 6.2 0.8
v -1.1 5.9 0.5
v -1.1 6.2 0.5
v -1.1 6.3 -1.4
v -1.1 6.5 -1.4
v -1.1 5.7 -1.6
v -1.1 5.9 -1.6
v -1.1 6.3 -1.6
v -1.1 6.5 -1.6
v -1.1 5.9 -1.8
v -1.1 6.6 -1.8
v -1.1 6.7 -1.8
v -1.1 6.8 -1.8
v 1.1 5.7 1.6
v 1.1 5.7 -1.6
v -1.1 5.7 1.6
v -1.1 5.7 -1.6
v 1.1 5.9 1.8
v 1.1 5.9 1.6
v 1.1 5.9 -1.6
v 1.1 5.9 -1.8
v -1.1 5.9 1.8
v -1.1 5.9 1.6
v -1.1 5.9 -1.6
v -1.1 5.9 -1.8
v 1.1 6.4 0.5
v 1.1 6.4 -0.5
v 1 6.4 1.7
v 1 6.4 0.7
v 1 6.4 0.6
v 1 6.4 0.5
v 1 6.4 -0.5
v 1 6.4 -0.6
v 1 6.4 -0.7
v 1 6.4 -1.7
v 0.9 6.4 1.1
v 0.9 6.4 -1.1
v -0.9 6.4 1.1
v -0.9 6.4 -1.1
v -1 6.4 1.7
v -1 6.4 -1.4
v -1 6.4 -1.6
v -1 6.4 -1.7
v 1.1 6.8 1.8
v 1.1 6.8 0.5
v 1.1 6.8 -0.5
v 1.1 6.8 -1.8
v 1 6.8 1.7
v 1 6.8 0.5
v 1 6.8 -0.5
v 1 6.8 -1.7
v -1 6.8 1.7
v -1 6.8 -1.7
v -1.1 6.8 1.8
v -1.1 6.8 -1.8
v 0.9 7.6 1.1
v 0.9 7.6 -1.1
v 0.7 7.6 0.5
v 0.7 7.6 0.3
v 0.5 7.6 0.5
v 0.5 7.6 0.3
v 0.4 7.6 -0.7
v 0.4 7.6 -0.9
v 0.2 7.6 -0.7
v 0.2 7.6 -0.9
v -0.5 7.6 -0.3
v -0.5 7.6 -0.6
v -0.8 7.6 -0.3
v -0.8 7.6 -0.6
v -0.9 7.6 1.1
v -0.9 7.6 -1.1

# faces
f 3/3/1 2/3/1 1/3/1
f 4/3/1 2/3/1 3/3/1
f 5/3/1 3/3/1 1/3/1
f 5/2/1 4/2/1 3/2/1
f 6/3/1 2/3/1 4/3/1
f 6/2/1 4/2/1 5/2/1
f 7/3/1 5/3/1 1/3/1
f 7/3/1 6/3/1 5/3/1
f 8/3/1 2/3/1 6/3/1
f 8/3/1 6/3/1 7/3/1
f 9/4/1 8/4/1 7/4/1
f 10/4/1 8/4/1 9/4/1
f 11/3/1 10/3/1 9/3/1
f 12/3/1 10/3/1 11/3/1
f 15/3/1 14/3/1 13/3/1
f 16/3/1 14/3/1 15/3/1
f 19/1/1 18/1/1 17/1/1
f 20/1/1 18/1/1 19/1/1
f 21/4/1 20/4/1 19/4/1
f 22/4/1 20/4/1 21/4/1
f 23/3/1 22/3/1 21/3/1
f 24/3/1 22/3/1 23/3/1
f 25/3/1 23/3/1 21/3/1
f 26/3/1 23/3/1 25/3/1
f 27/2/1 24/2/1 23/2/1
f 27/3/1 23/3/1 26/3/1
f 28/3/1 22/3/1 24/3/1
f 28/2/1 24/2/1 27/2/1
f 29/2/1 26/2/1 25/2/1
f 29/3/1 25/3/1 21/3/1
f 30/3/1 27/3/1 26/3/1
f 30/2/1 26/2/1 29/2/1
f 30/3/1 28/3/1 27/3/1
f 31/3/1 29/3/1 21/3/1
f 31/3/1 30/3/1 29/3/1
f 32/3/1 28/3/1 30/3/1
f 32/3/1 30/3/1 31/3/1
f 32/3/1 22/3/1 28/3/1
f 35/3/1 34/3/1 33/3/1
f 36/3/1 34/3/1 35/3/1
f 39/3/1 38/3/1 37/3/1
f 40/3/1 38/3/1 39/3/1
f 41/4/1 40/4/1 39/4/1
f 42/4/1 40/4/1 41/4/1
f 43/3/1 42/3/1 41/3/1
f 44/3/1 42/3/1 43/3/1
f 45/3/2 46/3/2 47/3/2
f 47/3/2 46/3/2 48/3/2
f 47/4/2 48/4/2 49/4/2
f 49/4/2 48/4/2 50/4/2
f 49/3/2 50/3/2 51/3/2
f 51/3/2 50/3/2 52/3/2
f 53/3/2 54/3/2 55/3/2
f 55/3/2 54/3/2 56/3/2
f 57/1/2 58/1/2 59/1/2
f 59/1/2 58/1/2 60/1/2
f 59/4/2 60/4/2 61/4/2
f 61/4/2 60/4/2 62/4/2
f 61/3/2 62/3/2 63/3/2
f 63/3/2 62/3/2 64/3/2
f 61/3/2 63/3/2 65/3/2
f 63/2/2 64/2/2 65/2/2
f 64/3/2 62/3/2 66/3/2
f 65/2/2 64/2/2 66/2/2
f 61/3/2 65/3/2 67/3/2
f 65/3/2 66/3/2 67/3/2
f 66/3/2 62/3/2 68/3/2
f 67/3/2 66/3/2 68/3/2
f 69/3/2 70/3/2 71/3/2
f 71/3/2 70/3/2 72/3/2
f 73/3/2 74/3/2 75/3/2
f 75/3/2 74/3/2 76/3/2
f 73/3/2 75/3/2 77/3/2
f 75/2/2 76/2/2 77/2/2
f 76/3/2 74/3/2 78/3/2
f 77/2/2 76/2/2 78/2/2
f 73/3/2 77/3/2 79/3/2
f 77/3/2 78/3/2 79/3/2
f 78/3/2 74/3/2 80/3/2
f 79/3/2 78/3/2 80/3/2
f 79/4/2 80/4/2 81/4/2
f 81/4/2 80/4/2 82/4/2
f 81/3/2 82/3/2 83/3/2
f 83/3/2 82/3/2 84/3/2
f 90/3/3 86/3/3 85/3/3
f 91/3/3 86/3/3 90/3/3
f 91/3/3 90/3/3 89/3/3
f 92/4/3 87/4/3 86/4/3
f 92/3/3 86/3/3 91/3/3
f 93/3/3 91/3/3 89/3/3
f 94/3/3 91/3/3 93/3/3
f 95/4/3 92/4/3 91/4/3
f 96/3/3 88/3/3 87/3/3
f 96/4/3 92/4/3 95/4/3
f 96/4/3 87/4/3 92/4/3
f 97/3/3 96/3/3 95/3/3
f 98/3/3 88/3/3 96/3/3
f 98/3/3 96/3/3 97/3/3
f 99/2/3 94/2/3 93/2/3
f 99/3/3 93/3/3 89/3/3
f 100/3/3 91/3/3 94/3/3
f 100/2/3 94/2/3 99/2/3
f 101/3/3 97/3/3 95/3/3
f 103/4/3 95/4/3 91/4/3
f 103/3/3 102/3/3 101/3/3
f 103/3/3 101/3/3 95/3/3
f 104/3/3 102/3/3 103/3/3
f 105/3/3 100/3/3 99/3/3
f 106/3/3 91/3/3 100/3/3
f 106/3/3 100/3/3 105/3/3
f 107/4/3 103/4/3 91/4/3
f 107/3/3 91/3/3 106/3/3
f 107/4/3 104/4/3 103/4/3
f 108/4/3 104/4/3 107/4/3
f 109/3/3 105/3/3 99/3/3
f 109/2/3 106/2/3 105/2/3
f 110/3/3 108/3/3 107/3/3
f 110/2/3 106/2/3 109/2/3
f 110/3/3 107/3/3 106/3/3
f 111/3/3 99/3/3 89/3/3
f 111/3/3 109/3/3 99/3/3
f 111/3/3 110/3/3 109/3/3
f 112/3/3 110/3/3 111/3/3
f 113/3/3 110/3/3 112/3/3
f 114/3/3 108/3/3 110/3/3
f 114/3/3 110/3/3 113/3/3
f 114/4/3 104/4/3 108/4/3
f 115/3/3 102/3/3 104/3/3
f 115/4/3 104/4/3 114/4/3
f 116/3/3 102/3/3 115/3/3
f 121/3/3 120/3/3 119/3/3
f 122/3/3 120/3/3 121/3/3
f 123/3/3 121/3/3 119/3/3
f 123/2/3 122/2/3 121/2/3
f 124/3/3 120/3/3 122/3/3
f 124/2/3 122/2/3 123/2/3
f 125/1/3 118/1/3 117/1/3
f 126/4/3 119/4/3 118/4/3
f 126/1/3 118/1/3 125/1/3
f 127/3/3 123/3/3 119/3/3
f 127/4/3 119/4/3 126/4/3
f 127/3/3 124/3/3 123/3/3
f 128/3/3 120/3/3 124/3/3
f 128/3/3 124/3/3 127/3/3
f 133/3/3 130/3/3 129/3/3
f 134/3/3 130/3/3 133/3/3
f 135/2/3 134/2/3 133/2/3
f 136/3/3 130/3/3 134/3/3
f 136/2/3 134/2/3 135/2/3
f 137/3/3 136/3/3 135/3/3
f 138/4/3 131/4/3 130/4/3
f 138/3/3 136/3/3 137/3/3
f 138/3/3 130/3/3 136/3/3
f 139/3/3 132/3/3 131/3/3
f 139/4/3 131/4/3 138/4/3
f 140/3/3 132/3/3 139/3/3
f 141/3/4 142/3/4 145/3/4
f 142/4/4 143/4/4 146/4/4
f 145/3/4 142/3/4 146/3/4
f 145/4/4 146/4/4 147/4/4
f 143/3/4 144/3/4 148/3/4
f 147/4/4 146/4/4 148/4/4
f 146/4/4 143/4/4 148/4/4
f 147/3/4 148/3/4 149/3/4
f 148/3/4 144/3/4 150/3/4
f 149/3/4 148/3/4 150/3/4
f 151/3/4 152/3/4 153/3/4
f 153/3/4 152/3/4 154/3/4
f 153/4/4 154/4/4 155/4/4
f 155/4/4 154/4/4 156/4/4
f 155/3/4 156/3/4 157/3/4
f 156/4/4 154/4/4 158/4/4
f 157/3/4 156/3/4 158/3/4
f 154/3/4 152/3/4 159/3/4
f 158/4/4 154/4/4 159/4/4
f 159/3/4 152/3/4 160/3/4
f 163/3/4 164/3/4 165/3/4
f 165/3/4 164/3/4 166/3/4
f 163/3/4 165/3/4 167/3/4
f 165/2/4 166/2/4 167/2/4
f 166/3/4 164/3/4 168/3/4
f 167/2/4 166/2/4 168/2/4
f 161/1/4 162/1/4 169/1/4
f 162/4/4 163/4/4 170/4/4
f 169/1/4 162/1/4 170/1/4
f 163/3/4 167/3/4 171/3/4
f 170/4/4 163/4/4 171/4/4
f 167/3/4 168/3/4 171/3/4
f 168/3/4 164/3/4 172/3/4
f 171/3/4 168/3/4 172/3/4
f 173/3/4 174/3/4 178/3/4
f 178/3/4 174/3/4 179/3/4
f 177/3/4 178/3/4 179/3/4
f 179/3/4 174/3/4 180/3/4
f 177/3/4 179/3/4 181/3/4
f 179/2/4 180/2/4 181/2/4
f 180/3/4 174/3/4 182/3/4
f 181/2/4 180/2/4 182/2/4
f 181/3/4 182/3/4 183/3/4
f 182/3/4 174/3/4 183/3/4
f 183/3/4 174/3/4 184/3/4
f 177/3/4 181/3/4 185/3/4
f 181/3/4 183/3/4 185/3/4
f 185/3/4 183/3/4 186/3/4
f 183/2/4 184/2/4 187/2/4
f 186/3/4 183/3/4 187/3/4
f 184/3/4 174/3/4 188/3/4
f 187/2/4 184/2/4 188/2/4
f 186/3/4 187/3/4 189/3/4
f 187/3/4 188/3/4 189/3/4
f 174/4/4 175/4/4 190/4/4
f 189/3/4 188/3/4 190/3/4
f 188/3/4 174/3/4 190/3/4
f 175/3/4 176/3/4 191/3/4
f 190/4/4 175/4/4 191/4/4
f 191/3/4 176/3/4 192/3/4
f 195/3/5 194/3/5 193/3/5
f 196/3/5 194/3/5 195/3/5
f 201/3/5 198/3/5 197/3/5
f 202/3/5 198/3/5 201/3/5
f 203/3/5 200/3/5 199/3/5
f 204/3/5 200/3/5 203/3/5
f 205/3/6 206/3/6 210/3/6
f 210/3/6 206/3/6 211/3/6
f 208/3/6 209/3/6 215/3/6
f 213/3/6 214/3/6 215/3/6
f 212/3/6 213/3/6 215/3/6
f 211/3/6 212/3/6 215/3/6
f 210/3/6 211/3/6 215/3/6
f 209/3/6 210/3/6 215/3/6
f 207/3/6 208/3/6 215/3/6
f 215/3/6 214/3/6 216/3/6
f 207/3/6 215/3/6 217/3/6
f 216/3/6 214/3/6 218/3/6
f 207/3/6 217/3/6 219/3/6
f 217/3/6 218/3/6 219/3/6
f 218/3/6 214/3/6 220/3/6
f 219/3/6 218/3/6 220/3/6
f 220/3/6 214/3/6 221/3/6
f 221/3/6 214/3/6 222/3/6
f 223/3/6 224/3/6 227/3/6
f 227/3/6 224/3/6 228/3/6
f 225/3/6 226/3/6 229/3/6
f 229/3/6 226/3/6 230/3/6
f 223/3/6 227/3/6 231/3/6
f 230/3/6 226/3/6 232/3/6
f 223/3/6 231/3/6 233/3/6
f 231/3/6 232/3/6 233/3/6
f 232/3/6 226/3/6 234/3/6
f 233/3/6 232/3/6 234/3/6
f 235/3/6 236/3/6 237/3/6
f 237/3/6 236/3/6 238/3/6
f 235/3/6 237/3/6 239/3/6
f 237/2/6 238/2/6 239/2/6
f 238/3/6 236/3/6 240/3/6
f 239/2/6 238/2/6 240/2/6
f 239/3/6 240/3/6 241/3/6
f 240/3/6 236/3/6 241/3/6
f 241/3/6 236/3/6 242/3/6
f 239/3/6 241/3/6 243/3/6
f 241/2/6 242/2/6 243/2/6
f 242/3/6 236/3/6 244/3/6
f 243/2/6 242/2/6 244/2/6
f 239/3/6 243/3/6 245/3/6
f 243/3/6 244/3/6 245/3/6
f 245/3/6 244/3/6 246/3/6
f 239/3/6 245/3/6 247/3/6
f 245/2/6 246/2/6 247/2/6
f 246/3/6 244/3/6 248/3/6
f 247/2/6 246/2/6 248/2/6
f 235/3/6 239/3/6 249/3/6
f 239/3/6 247/3/6 249/3/6
f 247/3/6 248/3/6 249/3/6
f 248/3/6 244/3/6 250/3/6
f 249/3/6 248/3/6 250/3/6
f 244/3/6 236/3/6 250/3/6
