# MagicaVoxel @ Ephtracy

# group
o 

# material
mtllib model-6.mtl
usemtl palette

# normals
vn 0 0 1
vn 0 0 -1
vn 1 0 0
vn -1 0 0
vn 0 -1 0
vn 0 1 0

# texcoords
vt 0.115234 0.5
vt 0.353516 0.5
vt 0.357422 0.5
vt 0.361328 0.5
vt 0.509766 0.5
vt 0.513672 0.5
vt 0.517578 0.5

# verts
v 0.3 6 1.9
v -0.2 6 1.9
v 0.9 6.1 1.9
v 0.7 6.1 1.9
v 0.5 6.2 1.9
v 0.3 6.2 1.9
v 0.2 6.2 1.9
v 0.1 6.2 1.9
v 0 6.2 1.9
v -0.0999999 6.2 1.9
v -0.2 6.2 1.9
v -0.4 6.2 1.9
v 0.9 6.3 1.9
v 0.7 6.3 1.9
v 0.6 6.3 1.9
v 0.5 6.3 1.9
v 0.4 6.3 1.9
v 0.3 6.3 1.9
v -0.2 6.3 1.9
v -0.3 6.3 1.9
v -0.4 6.3 1.9
v -0.5 6.3 1.9
v 0.6 6.4 1.9
v 0.5 6.4 1.9
v -0.4 6.4 1.9
v -0.5 6.4 1.9
v 1.2 6.6 1.9
v 1.1 6.6 1.9
v 0.4 6.6 1.9
v 0.3 6.6 1.9
v 1.2 6.7 1.9
v 1.1 6.7 1.9
v 0.2 6.7 1.9
v 0.1 6.7 1.9
v 0.4 6.8 1.9
v 0.3 6.8 1.9
v 0.6 6.9 1.9
v 0.5 6.9 1.9
v 0.2 6.9 1.9
v 0.1 6.9 1.9
v -0.4 6.9 1.9
v -0.5 6.9 1.9
v 0.5 7 1.9
v 0.4 7 1.9
v 0.3 7 1.9
v -0.2 7 1.9
v -0.3 7 1.9
v -0.4 7 1.9
v 0.3 7.1 1.9
v 0.2 7.1 1.9
v 0.1 7.1 1.9
v 0 7.1 1.9
v -0.0999999 7.1 1.9
v -0.2 7.1 1.9
v 1.2 6.5 1.8
v 1.1 6.5 1.8
v 1.2 6.6 1.8
v 1.1 6.6 1.8
v 1.2 5.9 1.7
v 1.1 5.9 1.7
v 1.2 6.2 1.7
v 1.1 6.2 1.7
v 1.2 6.4 1.7
v 1.1 6.4 1.7
v 1.2 6.5 1.7
v 1.1 6.5 1.7
v 1.2 6.2 1.6
v 1.1 6.2 1.6
v 1.2 6.3 1.6
v 1.1 6.3 1.6
v 1.2 6.4 1.6
v 1.1 6.4 1.6
v 1.2 6.7 1.5
v 1.1 6.7 1.5
v 1.2 6.9 1.5
v 1.1 6.9 1.5
v 1.2 6.9 1.4
v 1.1 6.9 1.4
v 1.2 7.1 1.4
v 1.1 7.1 1.4
v -1.1 6.1 1.3
v -1.2 6.1 1.3
v -1.1 6.4 1.3
v -1.2 6.4 1.3
v 1.2 7.1 1.3
v 1.1 7.1 1.3
v 1.2 7.2 1.3
v 1.1 7.2 1.3
v 1.2 6.1 1.2
v 1.1 6.1 1.2
v 1.2 6.2 1.2
v 1.1 6.2 1.2
v 0.3 7.1 1.2
v 0.1 7.1 1.2
v 0.3 7.3 1.2
v 0.1 7.3 1.2
v 1.2 6 1.1
v 1.1 6 1.1
v 1.2 6.1 1.1
v 1.1 6.1 1.1
v 1.2 5.9 1
v 1.1 5.9 1
v 1.2 6 1
v 1.1 6 1
v -0.2 7.6 1
v -0.3 7.6 1
v -0.2 7.7 1
v -0.3 7.7 1
v -0.0999999 7.6 0.9
v -0.2 7.6 0.9
v -0.0999999 7.7 0.9
v -0.2 7.7 0.9
v 0.5 7.6 0.8
v 0.2 7.6 0.8
v 0 7.6 0.8
v -0.0999999 7.6 0.8
v 0.5 7.7 0.8
v 0.2 7.7 0.8
v 0 7.7 0.8
v -0.0999999 7.7 0.8
v 0.2 7.6 0.7
v 0.1 7.6 0.7
v 0 7.6 0.7
v 0.2 7.7 0.7
v 0.1 7.7 0.7
v 0 7.7 0.7
v 1 7.2 0.6
v 0.9 7.2 0.6
v 1 7.5 0.6
v 0.9 7.5 0.6
v -0.3 7.6 0.6
v -0.5 7.6 0.6
v -0.3 7.7 0.6
v -0.5 7.7 0.6
v -0.5 7.6 0.5
v -0.7 7.6 0.5
v -0.5 7.7 0.5
v -0.7 7.7 0.5
v -1.1 6.3 0.4
v -1.2 6.3 0.4
v -1.1 6.4 0.4
v -1.2 6.4 0.4
v -1.1 6.9 0.4
v -1.2 6.9 0.4
v -0.7 7.6 0.4
v -0.8 7.6 0.4
v -0.7 7.7 0.4
v -0.8 7.7 0.4
v 1.2 6.1 0.3
v 1.1 6.1 0.3
v -1.1 6.2 0.3
v -1.2 6.2 0.3
v 1.2 6.3 0.3
v 1.1 6.3 0.3
v -1.1 6.3 0.3
v -1.2 6.3 0.3
v -1.1 6.9 0.3
v -1.2 6.9 0.3
v -1.1 7 0.3
v -1.2 7 0.3
v 0.3 7.6 0.3
v 0.2 7.6 0.3
v 0.3 7.7 0.3
v 0.2 7.7 0.3
v 0.4 7.6 0.2
v 0.3 7.6 0.2
v 0.4 7.7 0.2
v 0.3 7.7 0.2
v -1.1 6 0.1
v -1.2 6 0.1
v -1.1 6.2 0.1
v -1.2 6.2 0.1
v -1.1 7 0.1
v -1.2 7 0.1
v -1.1 7.1 0.1
v -1.2 7.1 0.1
v 0.5 7.6 0.1
v 0.4 7.6 0.1
v 0.5 7.7 0.1
v 0.4 7.7 0.1
v -0.9 7.2 -0.2
v -1 7.2 -0.2
v -0.9 7.4 -0.2
v -1 7.4 -0.2
v 1.2 5.8 -0.3
v 1.1 5.8 -0.3
v 1.2 6.1 -0.3
v 1.1 6.1 -0.3
v 0.6 7.6 -0.3
v 0.4 7.6 -0.3
v 0.6 7.7 -0.3
v 0.4 7.7 -0.3
v 0 7.6 -0.6
v -0.3 7.6 -0.6
v 0 7.7 -0.6
v -0.3 7.7 -0.6
v 1.2 6.3 -0.7
v 1.1 6.3 -0.7
v 1.2 6.4 -0.7
v 1.1 6.4 -0.7
v 1.2 6.9 -0.7
v 1.1 6.9 -0.7
v 1.2 6.2 -0.8
v 1.1 6.2 -0.8
v 1.2 6.3 -0.8
v 1.1 6.3 -0.8
v 1.2 6.9 -0.8
v 1.1 6.9 -0.8
v 1.2 7 -0.8
v 1.1 7 -0.8
v 1.2 6 -1
v 1.1 6 -1
v -1.1 6.1 -1
v -1.2 6.1 -1
v 1.2 6.2 -1
v 1.1 6.2 -1
v -1.1 6.3 -1
v -1.2 6.3 -1
v 1.2 7 -1
v 1.1 7 -1
v 1.2 7.1 -1
v 1.1 7.1 -1
v -0.4 7.1 -1.1
v -0.6 7.1 -1.1
v -0.4 7.3 -1.1
v -0.6 7.3 -1.1
v 0.3 5.9 -1.8
v 0.2 5.9 -1.8
v 0.1 5.9 -1.8
v -0.4 5.9 -1.8
v -0.5 5.9 -1.8
v -0.6 5.9 -1.8
v 0.9 6 -1.8
v 0.7 6 -1.8
v 0.2 6 -1.8
v 0.1 6 -1.8
v 0 6 -1.8
v -0.3 6 -1.8
v -0.4 6 -1.8
v -0.5 6 -1.8
v 0.1 6.1 -1.8
v 0 6.1 -1.8
v -0.0999999 6.1 -1.8
v -0.2 6.1 -1.8
v -0.3 6.1 -1.8
v -0.4 6.1 -1.8
v 0.9 6.2 -1.8
v 0.7 6.2 -1.8
v 0.3 6.2 -1.8
v 0.2 6.2 -1.8
v 0 6.2 -1.8
v -0.0999999 6.2 -1.8
v -0.2 6.2 -1.8
v -0.3 6.2 -1.8
v -0.5 6.2 -1.8
v -0.6 6.2 -1.8
v 0.2 6.3 -1.8
v 0.1 6.3 -1.8
v -0.0999999 6.3 -1.8
v -0.2 6.3 -1.8
v -0.4 6.3 -1.8
v -0.5 6.3 -1.8
v 0.3 6.4 -1.8
v 0.2 6.4 -1.8
v 0.1 6.4 -1.8
v -0.4 6.4 -1.8
v -0.5 6.4 -1.8
v -0.6 6.4 -1.8
v 0.4 6.5 -1.8
v 0.3 6.5 -1.8
v 0.2 6.5 -1.8
v -0.3 6.5 -1.8
v -0.4 6.5 -1.8
v -0.5 6.5 -1.8
v -0.6 6.5 -1.8
v -0.7 6.5 -1.8
v 0.5 6.6 -1.8
v 0.4 6.6 -1.8
v 0.3 6.6 -1.8
v -0.2 6.6 -1.8
v -0.3 6.6 -1.8
v -0.4 6.6 -1.8
v -0.6 6.6 -1.8
v -0.7 6.6 -1.8
v -0.8 6.6 -1.8
v 0.5 6.7 -1.8
v 0.1 6.7 -1.8
v -0.4 6.7 -1.8
v -0.8 6.7 -1.8
v -0.2 6.8 -1.8
v -0.3 6.8 -1.8
v 0.1 6.9 -1.8
v 0 6.9 -1.8
v -0.3 6.9 -1.8
v -0.4 6.9 -1.8
v 0 7.1 -1.8
v -0.0999999 7.1 -1.8
v -0.2 7.1 -1.8
v -0.3 7.1 -1.8
v -0.0999999 7.2 -1.8
v -0.2 7.2 -1.8
v 0.3 6 1.8
v -0.2 6 1.8
v 0.9 6.1 1.8
v 0.7 6.1 1.8
v 0.5 6.2 1.8
v 0.3 6.2 1.8
v 0.2 6.2 1.8
v 0.1 6.2 1.8
v 0 6.2 1.8
v -0.0999999 6.2 1.8
v -0.2 6.2 1.8
v -0.4 6.2 1.8
v 0.9 6.3 1.8
v 0.7 6.3 1.8
v 0.6 6.3 1.8
v 0.5 6.3 1.8
v 0.4 6.3 1.8
v 0.3 6.3 1.8
v -0.2 6.3 1.8
v -0.3 6.3 1.8
v -0.4 6.3 1.8
v -0.5 6.3 1.8
v 0.6 6.4 1.8
v 0.5 6.4 1.8
v -0.4 6.4 1.8
v -0.5 6.4 1.8
v 0.4 6.6 1.8
v 0.3 6.6 1.8
v 0.2 6.7 1.8
v 0.1 6.7 1.8
v 0.4 6.8 1.8
v 0.3 6.8 1.8
v 0.6 6.9 1.8
v 0.5 6.9 1.8
v 0.2 6.9 1.8
v 0.1 6.9 1.8
v -0.4 6.9 1.8
v -0.5 6.9 1.8
v 0.5 7 1.8
v 0.4 7 1.8
v 0.3 7 1.8
v -0.2 7 1.8
v -0.3 7 1.8
v -0.4 7 1.8
v 0.3 7.1 1.8
v 0.2 7.1 1.8
v 0.1 7.1 1.8
v 0 7.1 1.8
v -0.0999999 7.1 1.8
v -0.2 7.1 1.8
v 1.2 5.9 1.5
v 1.1 5.9 1.5
v 1.2 6 1.5
v 1.1 6 1.5
v 1.2 6 1.4
v 1.1 6 1.4
v 1.2 6.1 1.4
v 1.1 6.1 1.4
v 1.2 6.1 1.3
v 1.1 6.1 1.3
v 1.2 6.2 1.3
v 1.1 6.2 1.3
v 1.2 7.1 1.2
v 1.1 7.1 1.2
v 1.2 7.2 1.2
v 1.1 7.2 1.2
v 1.2 6.9 1.1
v 1.1 6.9 1.1
v 1.2 7.1 1.1
v 1.1 7.1 1.1
v 0.3 7.1 1.1
v 0.1 7.1 1.1
v 0.3 7.3 1.1
v 0.1 7.3 1.1
v -1.1 6.1 1
v -1.2 6.1 1
v -1.1 6.4 1
v -1.2 6.4 1
v 1.2 6.7 1
v 1.1 6.7 1
v 1.2 6.9 1
v 1.1 6.9 1
v 1.2 6.2 0.9
v 1.1 6.2 0.9
v 1.2 6.3 0.9
v 1.1 6.3 0.9
v 1.2 6.4 0.9
v 1.1 6.4 0.9
v 1.2 5.9 0.8
v 1.1 5.9 0.8
v 1.2 6.2 0.8
v 1.1 6.2 0.8
v 1.2 6.4 0.8
v 1.1 6.4 0.8
v 1.2 6.5 0.8
v 1.1 6.5 0.8
v 1.2 6.5 0.7
v 1.1 6.5 0.7
v 1.2 6.6 0.7
v 1.1 6.6 0.7
v 1.2 6.6 0.6
v 1.1 6.6 0.6
v 1.2 6.7 0.6
v 1.1 6.7 0.6
v 0.5 7.6 0.6
v 0.4 7.6 0.6
v 0.5 7.7 0.6
v 0.4 7.7 0.6
v 0.4 7.6 0.5
v 0.3 7.6 0.5
v 0.4 7.7 0.5
v 0.3 7.7 0.5
v 0.3 7.6 0.4
v 0.2 7.6 0.4
v 0.3 7.7 0.4
v 0.2 7.7 0.4
v 1 7.2 0.3
v 0.9 7.2 0.3
v 1 7.5 0.3
v 0.9 7.5 0.3
v -0.7 7.6 0.3
v -0.8 7.6 0.3
v -0.7 7.7 0.3
v -0.8 7.7 0.3
v -0.5 7.6 0.2
v -0.7 7.6 0.2
v -0.5 7.7 0.2
v -0.7 7.7 0.2
v 1.2 6.1 0.1
v 1.1 6.1 0.1
v 1.2 6.3 0.1
v 1.1 6.3 0.1
v -0.3 7.6 0.1
v -0.5 7.6 0.1
v -0.3 7.7 0.1
v -0.5 7.7 0.1
v 0.2 7.6 0
v 0.1 7.6 0
v 0 7.6 0
v 0.2 7.7 0
v 0.1 7.7 0
v 0 7.7 0
v 0.5 7.6 -0.1
v 0.2 7.6 -0.1
v 0 7.6 -0.1
v -0.0999999 7.6 -0.1
v 0.5 7.7 -0.1
v 0.2 7.7 -0.1
v 0 7.7 -0.1
v -0.0999999 7.7 -0.1
v -0.0999999 7.6 -0.2
v -0.2 7.6 -0.2
v -0.0999999 7.7 -0.2
v -0.2 7.7 -0.2
v -0.2 7.6 -0.3
v -0.3 7.6 -0.3
v -0.2 7.7 -0.3
v -0.3 7.7 -0.3
v -1.1 6 -0.4
v -1.2 6 -0.4
v -1.1 6.2 -0.4
v -1.2 6.2 -0.4
v -1.1 7 -0.4
v -1.2 7 -0.4
v -1.1 7.1 -0.4
v -1.2 7.1 -0.4
v -0.9 7.2 -0.4
v -1 7.2 -0.4
v -0.9 7.4 -0.4
v -1 7.4 -0.4
v 0.6 7.6 -0.5
v 0.4 7.6 -0.5
v 0.6 7.7 -0.5
v 0.4 7.7 -0.5
v 1.2 5.8 -0.6
v 1.1 5.8 -0.6
v 1.2 6.1 -0.6
v 1.1 6.1 -0.6
v -1.1 6.2 -0.6
v -1.2 6.2 -0.6
v -1.1 6.3 -0.6
v -1.2 6.3 -0.6
v -1.1 6.9 -0.6
v -1.2 6.9 -0.6
v -1.1 7 -0.6
v -1.2 7 -0.6
v -1.1 6.3 -0.7
v -1.2 6.3 -0.7
v -1.1 6.4 -0.7
v -1.2 6.4 -0.7
v -1.1 6.9 -0.7
v -1.2 6.9 -0.7
v 0 7.6 -0.9
v -0.3 7.6 -0.9
v 0 7.7 -0.9
v -0.3 7.7 -0.9
v -1.1 6.1 -1.2
v -1.2 6.1 -1.2
v -1.1 6.3 -1.2
v -1.2 6.3 -1.2
v -0.4 7.1 -1.2
v -0.6 7.1 -1.2
v -0.4 7.3 -1.2
v -0.6 7.3 -1.2
v 1.2 6 -1.5
v 1.1 6 -1.5
v 1.2 6.2 -1.5
v 1.1 6.2 -1.5
v 1.2 7 -1.5
v 1.1 7 -1.5
v 1.2 7.1 -1.5
v 1.1 7.1 -1.5
v 1.2 6.2 -1.7
v 1.1 6.2 -1.7
v 1.2 6.3 -1.7
v 1.1 6.3 -1.7
v 1.2 6.9 -1.7
v 1.1 6.9 -1.7
v 1.2 7 -1.7
v 1.1 7 -1.7
v 1.2 6.3 -1.8
v 1.1 6.3 -1.8
v 1.2 6.4 -1.8
v 1.1 6.4 -1.8
v 1.2 6.9 -1.8
v 1.1 6.9 -1.8
v 0.3 5.9 -1.9
v 0.2 5.9 -1.9
v 0.1 5.9 -1.9
v -0.4 5.9 -1.9
v -0.5 5.9 -1.9
v -0.6 5.9 -1.9
v 0.9 6 -1.9
v 0.7 6 -1.9
v 0.2 6 -1.9
v 0.1 6 -1.9
v 0 6 -1.9
v -0.3 6 -1.9
v -0.4 6 -1.9
v -0.5 6 -1.9
v 0.1 6.1 -1.9
v 0 6.1 -1.9
v -0.0999999 6.1 -1.9
v -0.2 6.1 -1.9
v -0.3 6.1 -1.9
v -0.4 6.1 -1.9
v 0.9 6.2 -1.9
v 0.7 6.2 -1.9
v 0.3 6.2 -1.9
v 0.2 6.2 -1.9
v 0 6.2 -1.9
v -0.0999999 6.2 -1.9
v -0.2 6.2 -1.9
v -0.3 6.2 -1.9
v -0.5 6.2 -1.9
v -0.6 6.2 -1.9
v 0.2 6.3 -1.9
v 0.1 6.3 -1.9
v -0.0999999 6.3 -1.9
v -0.2 6.3 -1.9
v -0.4 6.3 -1.9
v -0.5 6.3 -1.9
v 0.3 6.4 -1.9
v 0.2 6.4 -1.9
v 0.1 6.4 -1.9
v -0.4 6.4 -1.9
v -0.5 6.4 -1.9
v -0.6 6.4 -1.9
v 0.4 6.5 -1.9
v 0.3 6.5 -1.9
v 0.2 6.5 -1.9
v -0.3 6.5 -1.9
v -0.4 6.5 -1.9
v -0.5 6.5 -1.9
v -0.6 6.5 -1.9
v -0.7 6.5 -1.9
v 0.5 6.6 -1.9
v 0.4 6.6 -1.9
v 0.3 6.6 -1.9
v -0.2 6.6 -1.9
v -0.3 6.6 -1.9
v -0.4 6.6 -1.9
v -0.6 6.6 -1.9
v -0.7 6.6 -1.9
v -0.8 6.6 -1.9
v 0.5 6.7 -1.9
v 0.1 6.7 -1.9
v -0.4 6.7 -1.9
v -0.8 6.7 -1.9
v -0.2 6.8 -1.9
v -0.3 6.8 -1.9
v 0.1 6.9 -1.9
v 0 6.9 -1.9
v -0.3 6.9 -1.9
v -0.4 6.9 -1.9
v 0 7.1 -1.9
v -0.0999999 7.1 -1.9
v -0.2 7.1 -1.9
v -0.3 7.1 -1.9
v -0.0999999 7.2 -1.9
v -0.2 7.2 -1.9
v 1.2 6.6 1.9
v 1.2 6.7 1.9
v 1.2 6.5 1.8
v 1.2 6.6 1.8
v 1.2 5.9 1.7
v 1.2 6.2 1.7
v 1.2 6.4 1.7
v 1.2 6.5 1.7
v 1.2 6.6 1.7
v 1.2 5.9 1.6
v 1.2 6 1.6
v 1.2 6.2 1.6
v 1.2 6.3 1.6
v 1.2 6.4 1.6
v 1.2 6.5 1.6
v 1.2 5.9 1.5
v 1.2 6 1.5
v 1.2 6.1 1.5
v 1.2 6.3 1.5
v 1.2 6.4 1.5
v 1.2 6.7 1.5
v 1.2 6.9 1.5
v 1.2 6 1.4
v 1.2 6.1 1.4
v 1.2 6.2 1.4
v 1.2 6.9 1.4
v 1.2 7.1 1.4
v 1.2 6.1 1.3
v 1.2 6.2 1.3
v 1.2 6.3 1.3
v 1.2 7.1 1.3
v 1.2 7.2 1.3
v 1.2 6.1 1.2
v 1.2 6.2 1.2
v 1.2 6.3 1.2
v 1.2 6.6 1.2
v 1.2 6.8 1.2
v 1.2 7.1 1.2
v 1.2 7.2 1.2
v 1.2 6 1.1
v 1.2 6.1 1.1
v 1.2 6.2 1.1
v 1.2 6.5 1.1
v 1.2 6.6 1.1
v 1.2 6.8 1.1
v 1.2 6.9 1.1
v 1.2 7.1 1.1
v 1.2 5.9 1
v 1.2 6 1
v 1.2 6.1 1
v 1.2 6.3 1
v 1.2 6.4 1
v 1.2 6.5 1
v 1.2 6.6 1
v 1.2 6.7 1
v 1.2 6.9 1
v 1.2 5.9 0.9
v 1.2 6 0.9
v 1.2 6.2 0.9
v 1.2 6.3 0.9
v 1.2 6.4 0.9
v 1.2 6.5 0.9
v 1.2 5.9 0.8
v 1.2 6.2 0.8
v 1.2 6.4 0.8
v 1.2 6.5 0.8
v 1.2 6.6 0.8
v 1.2 6.5 0.7
v 1.2 6.6 0.7
v 1.2 6.6 0.6
v 1.2 6.7 0.6
v 1.2 6.1 0.3
v 1.2 6.3 0.3
v 1.2 6.1 0.1
v 1.2 6.3 0.1
v 1.2 5.8 -0.3
v 1.2 6.1 -0.3
v 1.2 5.8 -0.6
v 1.2 6.1 -0.6
v 1.2 6.3 -0.7
v 1.2 6.4 -0.7
v 1.2 6.9 -0.7
v 1.2 6.2 -0.8
v 1.2 6.3 -0.8
v 1.2 6.4 -0.8
v 1.2 6.9 -0.8
v 1.2 7 -0.8
v 1.2 6.3 -0.9
v 1.2 7 -0.9
v 1.2 6 -1
v 1.2 6.2 -1
v 1.2 6.3 -1
v 1.2 7 -1
v 1.2 7.1 -1
v 1.2 6.2 -1.1
v 1.2 7.1 -1.1
v 1.2 6.2 -1.2
v 1.2 7.1 -1.2
v 1.2 6.2 -1.3
v 1.2 6.7 -1.3
v 1.2 6.9 -1.3
v 1.2 7.1 -1.3
v 1.2 6.2 -1.4
v 1.2 6.7 -1.4
v 1.2 6.9 -1.4
v 1.2 7.1 -1.4
v 1.2 6 -1.5
v 1.2 6.2 -1.5
v 1.2 6.3 -1.5
v 1.2 6.6 -1.5
v 1.2 6.8 -1.5
v 1.2 7 -1.5
v 1.2 7.1 -1.5
v 1.2 6.3 -1.6
v 1.2 6.6 -1.6
v 1.2 6.8 -1.6
v 1.2 7 -1.6
v 1.2 6.2 -1.7
v 1.2 6.3 -1.7
v 1.2 6.4 -1.7
v 1.2 6.9 -1.7
v 1.2 7 -1.7
v 1.2 6.3 -1.8
v 1.2 6.4 -1.8
v 1.2 6.9 -1.8
v 1 7.2 0.6
v 1 7.5 0.6
v 1 7.2 0.3
v 1 7.5 0.3
v 0.9 6.1 1.9
v 0.9 6.3 1.9
v 0.9 6.1 1.8
v 0.9 6.3 1.8
v 0.9 6 -1.8
v 0.9 6.2 -1.8
v 0.9 6 -1.9
v 0.9 6.2 -1.9
v 0.6 6.3 1.9
v 0.6 6.4 1.9
v 0.6 6.9 1.9
v 0.6 6.3 1.8
v 0.6 6.4 1.8
v 0.6 6.9 1.8
v 0.6 7.6 -0.3
v 0.6 7.7 -0.3
v 0.6 7.6 -0.5
v 0.6 7.7 -0.5
v 0.5 6.2 1.9
v 0.5 6.3 1.9
v 0.5 6.9 1.9
v 0.5 7 1.9
v 0.5 6.2 1.8
v 0.5 6.3 1.8
v 0.5 6.9 1.8
v 0.5 7 1.8
v 0.5 7.6 0.8
v 0.5 7.7 0.8
v 0.5 7.6 0.7
v 0.5 7.7 0.7
v 0.5 7.6 0.6
v 0.5 7.7 0.6
v 0.5 7.6 0.1
v 0.5 7.7 0.1
v 0.5 7.6 0
v 0.5 7.7 0
v 0.5 7.6 -0.1
v 0.5 7.7 -0.1
v 0.5 6.6 -1.8
v 0.5 6.7 -1.8
v 0.5 6.6 -1.9
v 0.5 6.7 -1.9
v 0.4 7.6 0.6
v 0.4 7.7 0.6
v 0.4 7.6 0.5
v 0.4 7.7 0.5
v 0.4 7.6 0.2
v 0.4 7.7 0.2
v 0.4 7.6 0.1
v 0.4 7.7 0.1
v 0.4 6.5 -1.8
v 0.4 6.6 -1.8
v 0.4 6.5 -1.9
v 0.4 6.6 -1.9
v 0.3 6 1.9
v 0.3 6.2 1.9
v 0.3 7 1.9
v 0.3 7.1 1.9
v 0.3 6 1.8
v 0.3 6.2 1.8
v 0.3 7 1.8
v 0.3 7.1 1.8
v 0.3 7.1 1.2
v 0.3 7.3 1.2
v 0.3 7.1 1.1
v 0.3 7.3 1.1
v 0.3 7.6 0.5
v 0.3 7.7 0.5
v 0.3 7.6 0.4
v 0.3 7.7 0.4
v 0.3 7.6 0.3
v 0.3 7.7 0.3
v 0.3 7.6 0.2
v 0.3 7.7 0.2
v 0.3 5.9 -1.8
v 0.3 6.2 -1.8
v 0.3 6.4 -1.8
v 0.3 6.5 -1.8
v 0.3 5.9 -1.9
v 0.3 6.2 -1.9
v 0.3 6.4 -1.9
v 0.3 6.5 -1.9
v 0.2 7.6 0.4
v 0.2 7.7 0.4
v 0.2 7.6 0.3
v 0.2 7.7 0.3
v 0.2 6.2 -1.8
v 0.2 6.3 -1.8
v 0.2 6.4 -1.8
v 0.2 6.2 -1.9
v 0.2 6.3 -1.9
v 0.2 6.4 -1.9
v 0.1 6.7 -1.8
v 0.1 6.9 -1.8
v 0.1 6.7 -1.9
v 0.1 6.9 -1.9
v 0 7.6 0.8
v 0 7.7 0.8
v 0 7.6 0.7
v 0 7.7 0.7
v 0 7.6 0
v 0 7.7 0
v 0 7.6 -0.1
v 0 7.7 -0.1
v 0 7.6 -0.6
v 0 7.7 -0.6
v 0 7.6 -0.9
v 0 7.7 -0.9
v 0 6.9 -1.8
v 0 7.1 -1.8
v 0 6.9 -1.9
v 0 7.1 -1.9
v -0.0999999 7.6 0.9
v -0.0999999 7.7 0.9
v -0.0999999 7.6 0.8
v -0.0999999 7.7 0.8
v -0.0999999 7.6 -0.1
v -0.0999999 7.7 -0.1
v -0.0999999 7.6 -0.2
v -0.0999999 7.7 -0.2
v -0.0999999 7.1 -1.8
v -0.0999999 7.2 -1.8
v -0.0999999 7.1 -1.9
v -0.0999999 7.2 -1.9
v -0.2 7.6 1
v -0.2 7.7 1
v -0.2 7.6 0.9
v -0.2 7.7 0.9
v -0.2 7.6 -0.2
v -0.2 7.7 -0.2
v -0.2 7.6 -0.3
v -0.2 7.7 -0.3
v -0.2 6.1 -1.8
v -0.2 6.2 -1.8
v -0.2 6.1 -1.9
v -0.2 6.2 -1.9
v -0.3 6 -1.8
v -0.3 6.1 -1.8
v -0.3 6 -1.9
v -0.3 6.1 -1.9
v -0.4 7.1 -1.1
v -0.4 7.3 -1.1
v -0.4 7.1 -1.2
v -0.4 7.3 -1.2
v -0.4 5.9 -1.8
v -0.4 6 -1.8
v -0.4 5.9 -1.9
v -0.4 6 -1.9
v -0.9 7.2 -0.2
v -0.9 7.4 -0.2
v -0.9 7.2 -0.4
v -0.9 7.4 -0.4
v -1.1 6.1 1.3
v -1.1 6.4 1.3
v -1.1 6.1 1
v -1.1 6.4 1
v -1.1 6.3 0.4
v -1.1 6.4 0.4
v -1.1 6.9 0.4
v -1.1 6.2 0.3
v -1.1 6.3 0.3
v -1.1 6.4 0.3
v -1.1 6.9 0.3
v -1.1 7 0.3
v -1.1 6.3 0.2
v -1.1 7 0.2
v -1.1 6 0.1
v -1.1 6.2 0.1
v -1.1 6.3 0.1
v -1.1 7 0.1
v -1.1 7.1 0.1
v -1.1 6.2 0
v -1.1 7.1 0
v -1.1 6.2 -0.1
v -1.1 7.1 -0.1
v -1.1 6.2 -0.2
v -1.1 6.7 -0.2
v -1.1 6.9 -0.2
v -1.1 7.1 -0.2
v -1.1 6.2 -0.3
v -1.1 6.7 -0.3
v -1.1 6.9 -0.3
v -1.1 7.1 -0.3
v -1.1 6 -0.4
v -1.1 6.2 -0.4
v -1.1 6.3 -0.4
v -1.1 6.6 -0.4
v -1.1 6.8 -0.4
v -1.1 7 -0.4
v -1.1 7.1 -0.4
v -1.1 6.3 -0.5
v -1.1 6.6 -0.5
v -1.1 6.8 -0.5
v -1.1 7 -0.5
v -1.1 6.2 -0.6
v -1.1 6.3 -0.6
v -1.1 6.4 -0.6
v -1.1 6.9 -0.6
v -1.1 7 -0.6
v -1.1 6.3 -0.7
v -1.1 6.4 -0.7
v -1.1 6.9 -0.7
v -1.1 6.1 -1
v -1.1 6.3 -1
v -1.1 6.1 -1.2
v -1.1 6.3 -1.2
v 1.1 6.6 1.9
v 1.1 6.7 1.9
v 1.1 6.5 1.8
v 1.1 6.6 1.8
v 1.1 5.9 1.7
v 1.1 6.2 1.7
v 1.1 6.4 1.7
v 1.1 6.5 1.7
v 1.1 6.6 1.7
v 1.1 5.9 1.6
v 1.1 6 1.6
v 1.1 6.2 1.6
v 1.1 6.3 1.6
v 1.1 6.4 1.6
v 1.1 6.5 1.6
v 1.1 5.9 1.5
v 1.1 6 1.5
v 1.1 6.1 1.5
v 1.1 6.3 1.5
v 1.1 6.4 1.5
v 1.1 6.7 1.5
v 1.1 6.9 1.5
v 1.1 6 1.4
v 1.1 6.1 1.4
v 1.1 6.2 1.4
v 1.1 6.9 1.4
v 1.1 7.1 1.4
v 1.1 6.1 1.3
v 1.1 6.2 1.3
v 1.1 6.3 1.3
v 1.1 7.1 1.3
v 1.1 7.2 1.3
v 1.1 6.1 1.2
v 1.1 6.2 1.2
v 1.1 6.3 1.2
v 1.1 6.6 1.2
v 1.1 6.8 1.2
v 1.1 7.1 1.2
v 1.1 7.2 1.2
v 1.1 6 1.1
v 1.1 6.1 1.1
v 1.1 6.2 1.1
v 1.1 6.5 1.1
v 1.1 6.6 1.1
v 1.1 6.8 1.1
v 1.1 6.9 1.1
v 1.1 7.1 1.1
v 1.1 5.9 1
v 1.1 6 1
v 1.1 6.1 1
v 1.1 6.3 1
v 1.1 6.4 1
v 1.1 6.5 1
v 1.1 6.6 1
v 1.1 6.7 1
v 1.1 6.9 1
v 1.1 5.9 0.9
v 1.1 6 0.9
v 1.1 6.2 0.9
v 1.1 6.3 0.9
v 1.1 6.4 0.9
v 1.1 6.5 0.9
v 1.1 5.9 0.8
v 1.1 6.2 0.8
v 1.1 6.4 0.8
v 1.1 6.5 0.8
v 1.1 6.6 0.8
v 1.1 6.5 0.7
v 1.1 6.6 0.7
v 1.1 6.6 0.6
v 1.1 6.7 0.6
v 1.1 6.1 0.3
v 1.1 6.3 0.3
v 1.1 6.1 0.1
v 1.1 6.3 0.1
v 1.1 5.8 -0.3
v 1.1 6.1 -0.3
v 1.1 5.8 -0.6
v 1.1 6.1 -0.6
v 1.1 6.3 -0.7
v 1.1 6.4 -0.7
v 1.1 6.9 -0.7
v 1.1 6.2 -0.8
v 1.1 6.3 -0.8
v 1.1 6.4 -0.8
v 1.1 6.9 -0.8
v 1.1 7 -0.8
v 1.1 6.3 -0.9
v 1.1 7 -0.9
v 1.1 6 -1
v 1.1 6.2 -1
v 1.1 6.3 -1
v 1.1 7 -1
v 1.1 7.1 -1
v 1.1 6.2 -1.1
v 1.1 7.1 -1.1
v 1.1 6.2 -1.2
v 1.1 7.1 -1.2
v 1.1 6.2 -1.3
v 1.1 6.7 -1.3
v 1.1 6.9 -1.3
v 1.1 7.1 -1.3
v 1.1 6.2 -1.4
v 1.1 6.7 -1.4
v 1.1 6.9 -1.4
v 1.1 7.1 -1.4
v 1.1 6 -1.5
v 1.1 6.2 -1.5
v 1.1 6.3 -1.5
v 1.1 6.6 -1.5
v 1.1 6.8 -1.5
v 1.1 7 -1.5
v 1.1 7.1 -1.5
v 1.1 6.3 -1.6
v 1.1 6.6 -1.6
v 1.1 6.8 -1.6
v 1.1 7 -1.6
v 1.1 6.2 -1.7
v 1.1 6.3 -1.7
v 1.1 6.4 -1.7
v 1.1 6.9 -1.7
v 1.1 7 -1.7
v 1.1 6.3 -1.8
v 1.1 6.4 -1.8
v 1.1 6.9 -1.8
v 0.9 7.2 0.6
v 0.9 7.5 0.6
v 0.9 7.2 0.3
v 0.9 7.5 0.3
v 0.7 6.1 1.9
v 0.7 6.3 1.9
v 0.7 6.1 1.8
v 0.7 6.3 1.8
v 0.7 6 -1.8
v 0.7 6.2 -1.8
v 0.7 6 -1.9
v 0.7 6.2 -1.9
v 0.4 7.6 -0.3
v 0.4 7.7 -0.3
v 0.4 7.6 -0.5
v 0.4 7.7 -0.5
v 0.2 7.6 0.8
v 0.2 7.7 0.8
v 0.2 7.6 0.7
v 0.2 7.7 0.7
v 0.2 7.6 0
v 0.2 7.7 0
v 0.2 7.6 -0.1
v 0.2 7.7 -0.1
v 0.1 7.1 1.2
v 0.1 7.3 1.2
v 0.1 7.1 1.1
v 0.1 7.3 1.1
v 0.1 5.9 -1.8
v 0.1 6 -1.8
v 0.1 5.9 -1.9
v 0.1 6 -1.9
v 0 6 -1.8
v 0 6.1 -1.8
v 0 6 -1.9
v 0 6.1 -1.9
v -0.0999999 6.1 -1.8
v -0.0999999 6.2 -1.8
v -0.0999999 6.1 -1.9
v -0.0999999 6.2 -1.9
v -0.2 6 1.9
v -0.2 6.2 1.9
v -0.2 7 1.9
v -0.2 7.1 1.9
v -0.2 6 1.8
v -0.2 6.2 1.8
v -0.2 7 1.8
v -0.2 7.1 1.8
v -0.2 7.1 -1.8
v -0.2 7.2 -1.8
v -0.2 7.1 -1.9
v -0.2 7.2 -1.9
v -0.3 7.6 1
v -0.3 7.7 1
v -0.3 7.6 0.6
v -0.3 7.7 0.6
v -0.3 7.6 0.1
v -0.3 7.7 0.1
v -0.3 7.6 -0.3
v -0.3 7.7 -0.3
v -0.3 7.6 -0.6
v -0.3 7.7 -0.6
v -0.3 7.6 -0.9
v -0.3 7.7 -0.9
v -0.3 6.9 -1.8
v -0.3 7.1 -1.8
v -0.3 6.9 -1.9
v -0.3 7.1 -1.9
v -0.4 6.2 1.9
v -0.4 6.3 1.9
v -0.4 6.9 1.9
v -0.4 7 1.9
v -0.4 6.2 1.8
v -0.4 6.3 1.8
v -0.4 6.9 1.8
v -0.4 7 1.8
v -0.4 6.7 -1.8
v -0.4 6.9 -1.8
v -0.4 6.7 -1.9
v -0.4 6.9 -1.9
v -0.5 6.3 1.9
v -0.5 6.4 1.9
v -0.5 6.9 1.9
v -0.5 6.3 1.8
v -0.5 6.4 1.8
v -0.5 6.9 1.8
v -0.5 7.6 0.6
v -0.5 7.7 0.6
v -0.5 7.6 0.5
v -0.5 7.7 0.5
v -0.5 7.6 0.2
v -0.5 7.7 0.2
v -0.5 7.6 0.1
v -0.5 7.7 0.1
v -0.5 6.2 -1.8
v -0.5 6.3 -1.8
v -0.5 6.4 -1.8
v -0.5 6.2 -1.9
v -0.5 6.3 -1.9
v -0.5 6.4 -1.9
v -0.6 7.1 -1.1
v -0.6 7.3 -1.1
v -0.6 7.1 -1.2
v -0.6 7.3 -1.2
v -0.6 5.9 -1.8
v -0.6 6.2 -1.8
v -0.6 6.4 -1.8
v -0.6 6.5 -1.8
v -0.6 5.9 -1.9
v -0.6 6.2 -1.9
v -0.6 6.4 -1.9
v -0.6 6.5 -1.9
v -0.7 7.6 0.5
v -0.7 7.7 0.5
v -0.7 7.6 0.4
v -0.7 7.7 0.4
v -0.7 7.6 0.3
v -0.7 7.7 0.3
v -0.7 7.6 0.2
v -0.7 7.7 0.2
v -0.7 6.5 -1.8
v -0.7 6.6 -1.8
v -0.7 6.5 -1.9
v -0.7 6.6 -1.9
v -0.8 7.6 0.4
v -0.8 7.7 0.4
v -0.8 7.6 0.3
v -0.8 7.7 0.3
v -0.8 6.6 -1.8
v -0.8 6.7 -1.8
v -0.8 6.6 -1.9
v -0.8 6.7 -1.9
v -1 7.2 -0.2
v -1 7.4 -0.2
v -1 7.2 -0.4
v -1 7.4 -0.4
v -1.2 6.1 1.3
v -1.2 6.4 1.3
v -1.2 6.1 1
v -1.2 6.4 1
v -1.2 6.3 0.4
v -1.2 6.4 0.4
v -1.2 6.9 0.4
v -1.2 6.2 0.3
v -1.2 6.3 0.3
v -1.2 6.4 0.3
v -1.2 6.9 0.3
v -1.2 7 0.3
v -1.2 6.3 0.2
v -1.2 7 0.2
v -1.2 6 0.1
v -1.2 6.2 0.1
v -1.2 6.3 0.1
v -1.2 7 0.1
v -1.2 7.1 0.1
v -1.2 6.2 0
v -1.2 7.1 0
v -1.2 6.2 -0.1
v -1.2 7.1 -0.1
v -1.2 6.2 -0.2
v -1.2 6.7 -0.2
v -1.2 6.9 -0.2
v -1.2 7.1 -0.2
v -1.2 6.2 -0.3
v -1.2 6.7 -0.3
v -1.2 6.9 -0.3
v -1.2 7.1 -0.3
v -1.2 6 -0.4
v -1.2 6.2 -0.4
v -1.2 6.3 -0.4
v -1.2 6.6 -0.4
v -1.2 6.8 -0.4
v -1.2 7 -0.4
v -1.2 7.1 -0.4
v -1.2 6.3 -0.5
v -1.2 6.6 -0.5
v -1.2 6.8 -0.5
v -1.2 7 -0.5
v -1.2 6.2 -0.6
v -1.2 6.3 -0.6
v -1.2 6.4 -0.6
v -1.2 6.9 -0.6
v -1.2 7 -0.6
v -1.2 6.3 -0.7
v -1.2 6.4 -0.7
v -1.2 6.9 -0.7
v -1.2 6.1 -1
v -1.2 6.3 -1
v -1.2 6.1 -1.2
v -1.2 6.3 -1.2
v 1.2 5.8 -0.3
v 1.2 5.8 -0.6
v 1.1 5.8 -0.3
v 1.1 5.8 -0.6
v 1.2 5.9 1.7
v 1.2 5.9 1.6
v 1.2 5.9 1.5
v 1.2 5.9 1
v 1.2 5.9 0.9
v 1.2 5.9 0.8
v 1.1 5.9 1.7
v 1.1 5.9 1.6
v 1.1 5.9 1.5
v 1.1 5.9 1
v 1.1 5.9 0.9
v 1.1 5.9 0.8
v 0.3 5.9 -1.8
v 0.3 5.9 -1.9
v 0.2 5.9 -1.8
v 0.2 5.9 -1.9
v 0.1 5.9 -1.8
v 0.1 5.9 -1.9
v -0.4 5.9 -1.8
v -0.4 5.9 -1.9
v -0.5 5.9 -1.8
v -0.5 5.9 -1.9
v -0.6 5.9 -1.8
v -0.6 5.9 -1.9
v 1.2 6 1.5
v 1.2 6 1.4
v 1.2 6 1.1
v 1.2 6 1
v 1.2 6 -1
v 1.2 6 -1.5
v 1.1 6 1.5
v 1.1 6 1.4
v 1.1 6 1.1
v 1.1 6 1
v 1.1 6 -1
v 1.1 6 -1.5
v 0.9 6 -1.8
v 0.9 6 -1.9
v 0.7 6 -1.8
v 0.7 6 -1.9
v 0.3 6 1.9
v 0.3 6 1.8
v 0.1 6 -1.8
v 0.1 6 -1.9
v 0 6 -1.8
v 0 6 -1.9
v -0.2 6 1.9
v -0.2 6 1.8
v -0.3 6 -1.8
v -0.3 6 -1.9
v -0.4 6 -1.8
v -0.4 6 -1.9
v -1.1 6 0.1
v -1.1 6 -0.4
v -1.2 6 0.1
v -1.2 6 -0.4
v 1.2 6.1 1.4
v 1.2 6.1 1.3
v 1.2 6.1 1.2
v 1.2 6.1 1.1
v 1.2 6.1 0.3
v 1.2 6.1 0.1
v 1.1 6.1 1.4
v 1.1 6.1 1.3
v 1.1 6.1 1.2
v 1.1 6.1 1.1
v 1.1 6.1 0.3
v 1.1 6.1 0.1
v 0.9 6.1 1.9
v 0.9 6.1 1.8
v 0.7 6.1 1.9
v 0.7 6.1 1.8
v 0 6.1 -1.8
v 0 6.1 -1.9
v -0.0999999 6.1 -1.8
v -0.0999999 6.1 -1.9
v -0.2 6.1 -1.8
v -0.2 6.1 -1.9
v -0.3 6.1 -1.8
v -0.3 6.1 -1.9
v -1.1 6.1 1.3
v -1.1 6.1 1
v -1.1 6.1 -1
v -1.1 6.1 -1.2
v -1.2 6.1 1.3
v -1.2 6.1 1
v -1.2 6.1 -1
v -1.2 6.1 -1.2
v 1.2 6.2 1.3
v 1.2 6.2 1.2
v 1.2 6.2 -0.8
v 1.2 6.2 -1
v 1.2 6.2 -1.5
v 1.2 6.2 -1.7
v 1.1 6.2 1.3
v 1.1 6.2 1.2
v 1.1 6.2 -0.8
v 1.1 6.2 -1
v 1.1 6.2 -1.5
v 1.1 6.2 -1.7
v 0.5 6.2 1.9
v 0.5 6.2 1.8
v 0.3 6.2 1.9
v 0.3 6.2 1.8
v -0.0999999 6.2 -1.8
v -0.0999999 6.2 -1.9
v -0.2 6.2 1.9
v -0.2 6.2 1.8
v -0.2 6.2 -1.8
v -0.2 6.2 -1.9
v -0.4 6.2 1.9
v -0.4 6.2 1.8
v -1.1 6.2 0.3
v -1.1 6.2 0.1
v -1.1 6.2 -0.4
v -1.1 6.2 -0.6
v -1.2 6.2 0.3
v -1.2 6.2 0.1
v -1.2 6.2 -0.4
v -1.2 6.2 -0.6
v 1.2 6.3 -0.7
v 1.2 6.3 -0.8
v 1.2 6.3 -1.7
v 1.2 6.3 -1.8
v 1.1 6.3 -0.7
v 1.1 6.3 -0.8
v 1.1 6.3 -1.7
v 1.1 6.3 -1.8
v 0.6 6.3 1.9
v 0.6 6.3 1.8
v 0.5 6.3 1.9
v 0.5 6.3 1.8
v -0.4 6.3 1.9
v -0.4 6.3 1.8
v -0.5 6.3 1.9
v -0.5 6.3 1.8
v -1.1 6.3 0.4
v -1.1 6.3 0.3
v -1.1 6.3 -0.6
v -1.1 6.3 -0.7
v -1.2 6.3 0.4
v -1.2 6.3 0.3
v -1.2 6.3 -0.6
v -1.2 6.3 -0.7
v 1.2 6.4 1.7
v 1.2 6.4 1.6
v 1.2 6.4 0.9
v 1.2 6.4 0.8
v 1.1 6.4 1.7
v 1.1 6.4 1.6
v 1.1 6.4 0.9
v 1.1 6.4 0.8
v 0.3 6.4 -1.8
v 0.3 6.4 -1.9
v 0.2 6.4 -1.8
v 0.2 6.4 -1.9
v -0.5 6.4 -1.8
v -0.5 6.4 -1.9
v -0.6 6.4 -1.8
v -0.6 6.4 -1.9
v 1.2 6.5 1.8
v 1.2 6.5 1.7
v 1.2 6.5 0.8
v 1.2 6.5 0.7
v 1.1 6.5 1.8
v 1.1 6.5 1.7
v 1.1 6.5 0.8
v 1.1 6.5 0.7
v 0.4 6.5 -1.8
v 0.4 6.5 -1.9
v 0.3 6.5 -1.8
v 0.3 6.5 -1.9
v -0.6 6.5 -1.8
v -0.6 6.5 -1.9
v -0.7 6.5 -1.8
v -0.7 6.5 -1.9
v 1.2 6.6 1.9
v 1.2 6.6 1.8
v 1.2 6.6 0.7
v 1.2 6.6 0.6
v 1.1 6.6 1.9
v 1.1 6.6 1.8
v 1.1 6.6 0.7
v 1.1 6.6 0.6
v 0.5 6.6 -1.8
v 0.5 6.6 -1.9
v 0.4 6.6 -1.8
v 0.4 6.6 -1.9
v -0.7 6.6 -1.8
v -0.7 6.6 -1.9
v -0.8 6.6 -1.8
v -0.8 6.6 -1.9
v 0.3 7.1 1.2
v 0.3 7.1 1.1
v 0.1 7.1 1.2
v 0.1 7.1 1.1
v -0.4 7.1 -1.1
v -0.4 7.1 -1.2
v -0.6 7.1 -1.1
v -0.6 7.1 -1.2
v 1 7.2 0.6
v 1 7.2 0.3
v 0.9 7.2 0.6
v 0.9 7.2 0.3
v -0.9 7.2 -0.2
v -0.9 7.2 -0.4
v -1 7.2 -0.2
v -1 7.2 -0.4
v 0.6 7.6 -0.3
v 0.6 7.6 -0.5
v 0.5 7.6 0.8
v 0.5 7.6 0.7
v 0.5 7.6 0.6
v 0.5 7.6 0.1
v 0.5 7.6 0
v 0.5 7.6 -0.1
v 0.4 7.6 0.7
v 0.4 7.6 0.6
v 0.4 7.6 0.5
v 0.4 7.6 0.2
v 0.4 7.6 0.1
v 0.4 7.6 0
v 0.4 7.6 -0.3
v 0.4 7.6 -0.5
v 0.3 7.6 0.6
v 0.3 7.6 0.5
v 0.3 7.6 0.4
v 0.3 7.6 0.3
v 0.3 7.6 0.2
v 0.3 7.6 0.1
v 0.2 7.6 0.8
v 0.2 7.6 0.7
v 0.2 7.6 0.5
v 0.2 7.6 0.4
v 0.2 7.6 0.3
v 0.2 7.6 0.2
v 0.2 7.6 0
v 0.2 7.6 -0.1
v 0.1 7.6 0.7
v 0.1 7.6 0.6
v 0.1 7.6 0.4
v 0.1 7.6 0.3
v 0.1 7.6 0.1
v 0.1 7.6 0
v 0 7.6 0.8
v 0 7.6 0.7
v 0 7.6 0.6
v 0 7.6 0.1
v 0 7.6 0
v 0 7.6 -0.1
v 0 7.6 -0.6
v 0 7.6 -0.9
v -0.0999999 7.6 0.9
v -0.0999999 7.6 0.8
v -0.0999999 7.6 0.7
v -0.0999999 7.6 0.2
v -0.0999999 7.6 0.1
v -0.0999999 7.6 0
v -0.0999999 7.6 -0.1
v -0.0999999 7.6 -0.2
v -0.2 7.6 1
v -0.2 7.6 0.9
v -0.2 7.6 0.8
v -0.2 7.6 0.3
v -0.2 7.6 0.2
v -0.2 7.6 0.1
v -0.2 7.6 -0.1
v -0.2 7.6 -0.2
v -0.2 7.6 -0.3
v -0.3 7.6 1
v -0.3 7.6 0.6
v -0.3 7.6 0.1
v -0.3 7.6 -0.3
v -0.3 7.6 -0.6
v -0.3 7.6 -0.9
v -0.4 7.6 0.3
v -0.4 7.6 0.2
v -0.5 7.6 0.6
v -0.5 7.6 0.5
v -0.5 7.6 0.2
v -0.5 7.6 0.1
v -0.7 7.6 0.5
v -0.7 7.6 0.4
v -0.7 7.6 0.3
v -0.7 7.6 0.2
v -0.8 7.6 0.4
v -0.8 7.6 0.3
v 1.2 6.1 -0.3
v 1.2 6.1 -0.6
v 1.1 6.1 -0.3
v 1.1 6.1 -0.6
v 1.2 6.2 1.7
v 1.2 6.2 1.6
v 1.2 6.2 0.9
v 1.2 6.2 0.8
v 1.1 6.2 1.7
v 1.1 6.2 1.6
v 1.1 6.2 0.9
v 1.1 6.2 0.8
v 0.9 6.2 -1.8
v 0.9 6.2 -1.9
v 0.7 6.2 -1.8
v 0.7 6.2 -1.9
v 0.3 6.2 -1.8
v 0.3 6.2 -1.9
v 0.2 6.2 -1.8
v 0.2 6.2 -1.9
v -0.5 6.2 -1.8
v -0.5 6.2 -1.9
v -0.6 6.2 -1.8
v -0.6 6.2 -1.9
v 1.2 6.3 0.3
v 1.2 6.3 0.1
v 1.1 6.3 0.3
v 1.1 6.3 0.1
v 0.9 6.3 1.9
v 0.9 6.3 1.8
v 0.7 6.3 1.9
v 0.7 6.3 1.8
v -1.1 6.3 -1
v -1.1 6.3 -1.2
v -1.2 6.3 -1
v -1.2 6.3 -1.2
v -1.1 6.4 1.3
v -1.1 6.4 1
v -1.2 6.4 1.3
v -1.2 6.4 1
v 1.2 6.7 1.9
v 1.2 6.7 1.5
v 1.2 6.7 1
v 1.2 6.7 0.6
v 1.1 6.7 1.9
v 1.1 6.7 1.5
v 1.1 6.7 1
v 1.1 6.7 0.6
v 0.5 6.7 -1.8
v 0.5 6.7 -1.9
v 0.1 6.7 -1.8
v 0.1 6.7 -1.9
v -0.4 6.7 -1.8
v -0.4 6.7 -1.9
v -0.8 6.7 -1.8
v -0.8 6.7 -1.9
v 1.2 6.9 1.5
v 1.2 6.9 1.4
v 1.2 6.9 1.1
v 1.2 6.9 1
v 1.2 6.9 -0.7
v 1.2 6.9 -0.8
v 1.2 6.9 -1.7
v 1.2 6.9 -1.8
v 1.1 6.9 1.5
v 1.1 6.9 1.4
v 1.1 6.9 1.1
v 1.1 6.9 1
v 1.1 6.9 -0.7
v 1.1 6.9 -0.8
v 1.1 6.9 -1.7
v 1.1 6.9 -1.8
v 0.6 6.9 1.9
v 0.6 6.9 1.8
v 0.5 6.9 1.9
v 0.5 6.9 1.8
v 0.1 6.9 -1.8
v 0.1 6.9 -1.9
v 0 6.9 -1.8
v 0 6.9 -1.9
v -0.3 6.9 -1.8
v -0.3 6.9 -1.9
v -0.4 6.9 1.9
v -0.4 6.9 1.8
v -0.4 6.9 -1.8
v -0.4 6.9 -1.9
v -0.5 6.9 1.9
v -0.5 6.9 1.8
v -1.1 6.9 0.4
v -1.1 6.9 0.3
v -1.1 6.9 -0.6
v -1.1 6.9 -0.7
v -1.2 6.9 0.4
v -1.2 6.9 0.3
v -1.2 6.9 -0.6
v -1.2 6.9 -0.7
v 1.2 7 -0.8
v 1.2 7 -0.9
v 1.2 7 -1
v 1.2 7 -1.5
v 1.2 7 -1.6
v 1.2 7 -1.7
v 1.1 7 -0.8
v 1.1 7 -0.9
v 1.1 7 -1
v 1.1 7 -1.5
v 1.1 7 -1.6
v 1.1 7 -1.7
v 0.5 7 1.9
v 0.5 7 1.8
v 0.4 7 1.9
v 0.4 7 1.8
v 0.3 7 1.9
v 0.3 7 1.8
v -0.2 7 1.9
v -0.2 7 1.8
v -0.3 7 1.9
v -0.3 7 1.8
v -0.4 7 1.9
v -0.4 7 1.8
v -1.1 7 0.3
v -1.1 7 0.2
v -1.1 7 0.1
v -1.1 7 -0.4
v -1.1 7 -0.5
v -1.1 7 -0.6
v -1.2 7 0.3
v -1.2 7 0.2
v -1.2 7 0.1
v -1.2 7 -0.4
v -1.2 7 -0.5
v -1.2 7 -0.6
v 1.2 7.1 1.4
v 1.2 7.1 1.3
v 1.2 7.1 1.2
v 1.2 7.1 1.1
v 1.2 7.1 -1
v 1.2 7.1 -1.1
v 1.2 7.1 -1.2
v 1.2 7.1 -1.3
v 1.2 7.1 -1.4
v 1.2 7.1 -1.5
v 1.1 7.1 1.4
v 1.1 7.1 1.3
v 1.1 7.1 1.2
v 1.1 7.1 1.1
v 1.1 7.1 -1
v 1.1 7.1 -1.1
v 1.1 7.1 -1.2
v 1.1 7.1 -1.3
v 1.1 7.1 -1.4
v 1.1 7.1 -1.5
v 0.3 7.1 1.9
v 0.3 7.1 1.8
v 0.2 7.1 1.9
v 0.2 7.1 1.8
v 0.1 7.1 1.9
v 0.1 7.1 1.8
v 0 7.1 1.9
v 0 7.1 1.8
v 0 7.1 -1.8
v 0 7.1 -1.9
v -0.0999999 7.1 1.9
v -0.0999999 7.1 1.8
v -0.0999999 7.1 -1.8
v -0.0999999 7.1 -1.9
v -0.2 7.1 1.9
v -0.2 7.1 1.8
v -0.2 7.1 -1.8
v -0.2 7.1 -1.9
v -0.3 7.1 -1.8
v -0.3 7.1 -1.9
v -1.1 7.1 0.1
v -1.1 7.1 0
v -1.1 7.1 -0.1
v -1.1 7.1 -0.2
v -1.1 7.1 -0.3
v -1.1 7.1 -0.4
v -1.2 7.1 0.1
v -1.2 7.1 0
v -1.2 7.1 -0.1
v -1.2 7.1 -0.2
v -1.2 7.1 -0.3
v -1.2 7.1 -0.4
v 1.2 7.2 1.3
v 1.2 7.2 1.2
v 1.1 7.2 1.3
v 1.1 7.2 1.2
v -0.0999999 7.2 -1.8
v -0.0999999 7.2 -1.9
v -0.2 7.2 -1.8
v -0.2 7.2 -1.9
v 0.3 7.3 1.2
v 0.3 7.3 1.1
v 0.1 7.3 1.2
v 0.1 7.3 1.1
v -0.4 7.3 -1.1
v -0.4 7.3 -1.2
v -0.6 7.3 -1.1
v -0.6 7.3 -1.2
v -0.9 7.4 -0.2
v -0.9 7.4 -0.4
v -1 7.4 -0.2
v -1 7.4 -0.4
v 1 7.5 0.6
v 1 7.5 0.3
v 0.9 7.5 0.6
v 0.9 7.5 0.3
v 0.6 7.7 -0.3
v 0.6 7.7 -0.5
v 0.5 7.7 0.8
v 0.5 7.7 0.7
v 0.5 7.7 0.6
v 0.5 7.7 0.1
v 0.5 7.7 0
v 0.5 7.7 -0.1
v 0.4 7.7 0.7
v 0.4 7.7 0.6
v 0.4 7.7 0.5
v 0.4 7.7 0.2
v 0.4 7.7 0.1
v 0.4 7.7 0
v 0.4 7.7 -0.3
v 0.4 7.7 -0.5
v 0.3 7.7 0.6
v 0.3 7.7 0.5
v 0.3 7.7 0.4
v 0.3 7.7 0.3
v 0.3 7.7 0.2
v 0.3 7.7 0.1
v 0.2 7.7 0.8
v 0.2 7.7 0.7
v 0.2 7.7 0.5
v 0.2 7.7 0.4
v 0.2 7.7 0.3
v 0.2 7.7 0.2
v 0.2 7.7 0
v 0.2 7.7 -0.1
v 0.1 7.7 0.7
v 0.1 7.7 0.6
v 0.1 7.7 0.4
v 0.1 7.7 0.3
v 0.1 7.7 0.1
v 0.1 7.7 0
v 0 7.7 0.8
v 0 7.7 0.7
v 0 7.7 0.6
v 0 7.7 0.1
v 0 7.7 0
v 0 7.7 -0.1
v 0 7.7 -0.6
v 0 7.7 -0.9
v -0.0999999 7.7 0.9
v -0.0999999 7.7 0.8
v -0.0999999 7.7 0.7
v -0.0999999 7.7 0.2
v -0.0999999 7.7 0.1
v -0.0999999 7.7 0
v -0.0999999 7.7 -0.1
v -0.0999999 7.7 -0.2
v -0.2 7.7 1
v -0.2 7.7 0.9
v -0.2 7.7 0.8
v -0.2 7.7 0.3
v -0.2 7.7 0.2
v -0.2 7.7 0.1
v -0.2 7.7 -0.1
v -0.2 7.7 -0.2
v -0.2 7.7 -0.3
v -0.3 7.7 1
v -0.3 7.7 0.6
v -0.3 7.7 0.1
v -0.3 7.7 -0.3
v -0.3 7.7 -0.6
v -0.3 7.7 -0.9
v -0.4 7.7 0.3
v -0.4 7.7 0.2
v -0.5 7.7 0.6
v -0.5 7.7 0.5
v -0.5 7.7 0.2
v -0.5 7.7 0.1
v -0.7 7.7 0.5
v -0.7 7.7 0.4
v -0.7 7.7 0.3
v -0.7 7.7 0.2
v -0.8 7.7 0.4
v -0.8 7.7 0.3

# faces
f 6/5/1 2/5/1 1/5/1
f 7/5/1 2/5/1 6/5/1
f 8/5/1 2/5/1 7/5/1
f 9/5/1 2/5/1 8/5/1
f 10/5/1 2/5/1 9/5/1
f 11/5/1 2/5/1 10/5/1
f 13/1/1 4/1/1 3/1/1
f 14/1/1 4/1/1 13/1/1
f 16/5/1 6/5/1 5/5/1
f 16/5/1 7/5/1 6/5/1
f 17/5/1 7/5/1 16/5/1
f 18/5/1 7/5/1 17/5/1
f 19/5/1 12/5/1 11/5/1
f 19/5/1 11/5/1 10/5/1
f 20/5/1 12/5/1 19/5/1
f 21/5/1 12/5/1 20/5/1
f 23/5/1 16/5/1 15/5/1
f 23/5/1 17/5/1 16/5/1
f 24/5/1 17/5/1 23/5/1
f 25/5/1 22/5/1 21/5/1
f 25/5/1 21/5/1 20/5/1
f 26/5/1 22/5/1 25/5/1
f 29/5/1 17/5/1 24/5/1
f 29/6/1 18/6/1 17/6/1
f 30/5/1 7/5/1 18/5/1
f 30/6/1 18/6/1 29/6/1
f 31/3/1 28/3/1 27/3/1
f 32/3/1 28/3/1 31/3/1
f 33/5/1 7/5/1 30/5/1
f 33/6/1 8/6/1 7/6/1
f 34/5/1 9/5/1 8/5/1
f 34/6/1 8/6/1 33/6/1
f 35/5/1 29/5/1 24/5/1
f 35/7/1 30/7/1 29/7/1
f 36/5/1 33/5/1 30/5/1
f 36/7/1 30/7/1 35/7/1
f 37/6/1 24/6/1 23/6/1
f 38/5/1 35/5/1 24/5/1
f 38/6/1 24/6/1 37/6/1
f 39/7/1 34/7/1 33/7/1
f 39/5/1 33/5/1 36/5/1
f 40/5/1 9/5/1 34/5/1
f 40/7/1 34/7/1 39/7/1
f 41/5/1 25/5/1 20/5/1
f 41/6/1 26/6/1 25/6/1
f 42/6/1 26/6/1 41/6/1
f 43/5/1 35/5/1 38/5/1
f 44/6/1 36/6/1 35/6/1
f 44/5/1 35/5/1 43/5/1
f 45/5/1 39/5/1 36/5/1
f 45/6/1 36/6/1 44/6/1
f 46/6/1 20/6/1 19/6/1
f 46/5/1 19/5/1 10/5/1
f 47/5/1 41/5/1 20/5/1
f 47/6/1 20/6/1 46/6/1
f 48/5/1 41/5/1 47/5/1
f 49/5/1 39/5/1 45/5/1
f 50/6/1 40/6/1 39/6/1
f 50/5/1 39/5/1 49/5/1
f 51/5/1 9/5/1 40/5/1
f 51/6/1 40/6/1 50/6/1
f 52/6/1 10/6/1 9/6/1
f 52/5/1 9/5/1 51/5/1
f 53/5/1 46/5/1 10/5/1
f 53/6/1 10/6/1 52/6/1
f 54/5/1 46/5/1 53/5/1
f 57/2/1 56/2/1 55/2/1
f 58/2/1 56/2/1 57/2/1
f 61/3/1 60/3/1 59/3/1
f 62/3/1 60/3/1 61/3/1
f 65/2/1 64/2/1 63/2/1
f 66/2/1 64/2/1 65/2/1
f 69/3/1 68/3/1 67/3/1
f 70/3/1 68/3/1 69/3/1
f 71/2/1 70/2/1 69/2/1
f 72/2/1 70/2/1 71/2/1
f 75/3/1 74/3/1 73/3/1
f 76/3/1 74/3/1 75/3/1
f 79/3/1 78/3/1 77/3/1
f 80/3/1 78/3/1 79/3/1
f 83/1/1 82/1/1 81/1/1
f 84/1/1 82/1/1 83/1/1
f 87/3/1 86/3/1 85/3/1
f 88/3/1 86/3/1 87/3/1
f 91/2/1 90/2/1 89/2/1
f 92/2/1 90/2/1 91/2/1
f 95/1/1 94/1/1 93/1/1
f 96/1/1 94/1/1 95/1/1
f 99/2/1 98/2/1 97/2/1
f 100/2/1 98/2/1 99/2/1
f 103/2/1 102/2/1 101/2/1
f 104/2/1 102/2/1 103/2/1
f 107/3/1 106/3/1 105/3/1
f 108/3/1 106/3/1 107/3/1
f 111/2/1 110/2/1 109/2/1
f 112/2/1 110/2/1 111/2/1
f 117/3/1 114/3/1 113/3/1
f 118/3/1 114/3/1 117/3/1
f 119/2/1 116/2/1 115/2/1
f 120/2/1 116/2/1 119/2/1
f 124/3/1 122/3/1 121/3/1
f 125/2/1 123/2/1 122/2/1
f 125/3/1 122/3/1 124/3/1
f 126/2/1 123/2/1 125/2/1
f 129/1/1 128/1/1 127/1/1
f 130/1/1 128/1/1 129/1/1
f 133/3/1 132/3/1 131/3/1
f 134/3/1 132/3/1 133/3/1
f 137/3/1 136/3/1 135/3/1
f 138/3/1 136/3/1 137/3/1
f 141/5/1 140/5/1 139/5/1
f 142/5/1 140/5/1 141/5/1
f 143/6/1 142/6/1 141/6/1
f 144/6/1 142/6/1 143/6/1
f 147/3/1 146/3/1 145/3/1
f 148/3/1 146/3/1 147/3/1
f 153/1/1 150/1/1 149/1/1
f 154/1/1 150/1/1 153/1/1
f 155/5/1 152/5/1 151/5/1
f 156/5/1 152/5/1 155/5/1
f 159/5/1 158/5/1 157/5/1
f 160/5/1 158/5/1 159/5/1
f 163/2/1 162/2/1 161/2/1
f 164/2/1 162/2/1 163/2/1
f 167/2/1 166/2/1 165/2/1
f 168/2/1 166/2/1 167/2/1
f 171/5/1 170/5/1 169/5/1
f 172/5/1 170/5/1 171/5/1
f 175/5/1 174/5/1 173/5/1
f 176/5/1 174/5/1 175/5/1
f 179/2/1 178/2/1 177/2/1
f 180/2/1 178/2/1 179/2/1
f 183/1/1 182/1/1 181/1/1
f 184/1/1 182/1/1 183/1/1
f 187/1/1 186/1/1 185/1/1
f 188/1/1 186/1/1 187/1/1
f 191/1/1 190/1/1 189/1/1
f 192/1/1 190/1/1 191/1/1
f 195/1/1 194/1/1 193/1/1
f 196/1/1 194/1/1 195/1/1
f 199/5/1 198/5/1 197/5/1
f 200/5/1 198/5/1 199/5/1
f 201/6/1 200/6/1 199/6/1
f 202/6/1 200/6/1 201/6/1
f 205/5/1 204/5/1 203/5/1
f 206/5/1 204/5/1 205/5/1
f 209/5/1 208/5/1 207/5/1
f 210/5/1 208/5/1 209/5/1
f 215/5/1 212/5/1 211/5/1
f 216/5/1 212/5/1 215/5/1
f 217/1/1 214/1/1 213/1/1
f 218/1/1 214/1/1 217/1/1
f 221/5/1 220/5/1 219/5/1
f 222/5/1 220/5/1 221/5/1
f 225/1/1 224/1/1 223/1/1
f 226/1/1 224/1/1 225/1/1
f 235/3/1 228/3/1 227/3/1
f 235/2/1 229/2/1 228/2/1
f 236/2/1 229/2/1 235/2/1
f 239/2/1 231/2/1 230/2/1
f 240/3/1 232/3/1 231/3/1
f 240/2/1 231/2/1 239/2/1
f 241/2/1 237/2/1 236/2/1
f 241/3/1 236/3/1 235/3/1
f 242/2/1 237/2/1 241/2/1
f 245/2/1 239/2/1 238/2/1
f 246/3/1 240/3/1 239/3/1
f 246/2/1 239/2/1 245/2/1
f 247/1/1 234/1/1 233/1/1
f 248/1/1 234/1/1 247/1/1
f 249/3/1 235/3/1 227/3/1
f 249/3/1 241/3/1 235/3/1
f 249/3/1 242/3/1 241/3/1
f 250/3/1 242/3/1 249/3/1
f 251/2/1 243/2/1 242/2/1
f 251/3/1 242/3/1 250/3/1
f 252/2/1 243/2/1 251/2/1
f 253/2/1 245/2/1 244/2/1
f 254/3/1 246/3/1 245/3/1
f 254/2/1 245/2/1 253/2/1
f 255/3/1 240/3/1 246/3/1
f 255/3/1 246/3/1 254/3/1
f 255/3/1 232/3/1 240/3/1
f 256/3/1 232/3/1 255/3/1
f 257/3/1 252/3/1 251/3/1
f 257/3/1 251/3/1 250/3/1
f 258/3/1 252/3/1 257/3/1
f 259/2/1 253/2/1 252/2/1
f 259/3/1 252/3/1 258/3/1
f 260/3/1 254/3/1 253/3/1
f 260/2/1 253/2/1 259/2/1
f 260/3/1 255/3/1 254/3/1
f 261/3/1 255/3/1 260/3/1
f 262/3/1 255/3/1 261/3/1
f 264/2/1 258/2/1 257/2/1
f 265/3/1 259/3/1 258/3/1
f 265/3/1 260/3/1 259/3/1
f 265/2/1 258/2/1 264/2/1
f 265/3/1 261/3/1 260/3/1
f 266/2/1 262/2/1 261/2/1
f 266/3/1 261/3/1 265/3/1
f 267/2/1 262/2/1 266/2/1
f 270/2/1 264/2/1 263/2/1
f 271/3/1 267/3/1 266/3/1
f 271/3/1 265/3/1 264/3/1
f 271/2/1 264/2/1 270/2/1
f 271/3/1 266/3/1 265/3/1
f 272/3/1 267/3/1 271/3/1
f 273/3/1 267/3/1 272/3/1
f 274/2/1 268/2/1 267/2/1
f 274/3/1 267/3/1 273/3/1
f 275/2/1 268/2/1 274/2/1
f 278/2/1 270/2/1 269/2/1
f 279/3/1 271/3/1 270/3/1
f 279/3/1 272/3/1 271/3/1
f 279/2/1 270/2/1 278/2/1
f 280/3/1 272/3/1 279/3/1
f 281/4/1 273/4/1 272/4/1
f 281/3/1 272/3/1 280/3/1
f 282/3/1 275/3/1 274/3/1
f 282/4/1 273/4/1 281/4/1
f 282/3/1 274/3/1 273/3/1
f 283/2/1 276/2/1 275/2/1
f 283/3/1 275/3/1 282/3/1
f 284/2/1 276/2/1 283/2/1
f 286/3/1 280/3/1 279/3/1
f 286/3/1 278/3/1 277/3/1
f 286/3/1 279/3/1 278/3/1
f 287/3/1 280/3/1 286/3/1
f 288/3/1 285/3/1 284/3/1
f 288/3/1 282/3/1 281/3/1
f 288/3/1 284/3/1 283/3/1
f 288/3/1 283/3/1 282/3/1
f 289/3/1 285/3/1 288/3/1
f 290/3/1 280/3/1 287/3/1
f 290/4/1 281/4/1 280/4/1
f 291/3/1 288/3/1 281/3/1
f 291/4/1 281/4/1 290/4/1
f 292/3/1 290/3/1 287/3/1
f 292/3/1 291/3/1 290/3/1
f 293/3/1 291/3/1 292/3/1
f 294/3/1 288/3/1 291/3/1
f 294/3/1 291/3/1 293/3/1
f 295/3/1 288/3/1 294/3/1
f 296/3/1 294/3/1 293/3/1
f 297/3/1 294/3/1 296/3/1
f 298/3/1 294/3/1 297/3/1
f 299/3/1 294/3/1 298/3/1
f 300/3/1 298/3/1 297/3/1
f 301/3/1 298/3/1 300/3/1
f 302/5/2 303/5/2 307/5/2
f 307/5/2 303/5/2 308/5/2
f 308/5/2 303/5/2 309/5/2
f 309/5/2 303/5/2 310/5/2
f 310/5/2 303/5/2 311/5/2
f 311/5/2 303/5/2 312/5/2
f 304/1/2 305/1/2 314/1/2
f 314/1/2 305/1/2 315/1/2
f 306/5/2 307/5/2 317/5/2
f 307/5/2 308/5/2 317/5/2
f 317/5/2 308/5/2 318/5/2
f 318/5/2 308/5/2 319/5/2
f 312/5/2 313/5/2 320/5/2
f 311/5/2 312/5/2 320/5/2
f 320/5/2 313/5/2 321/5/2
f 321/5/2 313/5/2 322/5/2
f 316/5/2 317/5/2 324/5/2
f 317/5/2 318/5/2 324/5/2
f 324/5/2 318/5/2 325/5/2
f 322/5/2 323/5/2 326/5/2
f 321/5/2 322/5/2 326/5/2
f 326/5/2 323/5/2 327/5/2
f 325/5/2 318/5/2 328/5/2
f 318/6/2 319/6/2 328/6/2
f 319/5/2 308/5/2 329/5/2
f 328/6/2 319/6/2 329/6/2
f 308/6/2 309/6/2 330/6/2
f 329/5/2 308/5/2 330/5/2
f 309/5/2 310/5/2 331/5/2
f 330/6/2 309/6/2 331/6/2
f 325/5/2 328/5/2 332/5/2
f 328/7/2 329/7/2 332/7/2
f 329/5/2 330/5/2 333/5/2
f 332/7/2 329/7/2 333/7/2
f 324/6/2 325/6/2 334/6/2
f 325/5/2 332/5/2 335/5/2
f 334/6/2 325/6/2 335/6/2
f 330/7/2 331/7/2 336/7/2
f 333/5/2 330/5/2 336/5/2
f 331/5/2 310/5/2 337/5/2
f 336/7/2 331/7/2 337/7/2
f 326/6/2 327/6/2 338/6/2
f 321/5/2 326/5/2 338/5/2
f 338/6/2 327/6/2 339/6/2
f 335/5/2 332/5/2 340/5/2
f 332/6/2 333/6/2 341/6/2
f 340/5/2 332/5/2 341/5/2
f 333/5/2 336/5/2 342/5/2
f 341/6/2 333/6/2 342/6/2
f 320/6/2 321/6/2 343/6/2
f 311/5/2 320/5/2 343/5/2
f 321/5/2 338/5/2 344/5/2
f 343/6/2 321/6/2 344/6/2
f 344/5/2 338/5/2 345/5/2
f 342/5/2 336/5/2 346/5/2
f 336/6/2 337/6/2 347/6/2
f 346/5/2 336/5/2 347/5/2
f 337/5/2 310/5/2 348/5/2
f 347/6/2 337/6/2 348/6/2
f 310/6/2 311/6/2 349/6/2
f 348/5/2 310/5/2 349/5/2
f 311/5/2 343/5/2 350/5/2
f 349/6/2 311/6/2 350/6/2
f 350/5/2 343/5/2 351/5/2
f 352/2/2 353/2/2 354/2/2
f 354/2/2 353/2/2 355/2/2
f 356/2/2 357/2/2 358/2/2
f 358/2/2 357/2/2 359/2/2
f 360/2/2 361/2/2 362/2/2
f 362/2/2 361/2/2 363/2/2
f 364/3/2 365/3/2 366/3/2
f 366/3/2 365/3/2 367/3/2
f 368/3/2 369/3/2 370/3/2
f 370/3/2 369/3/2 371/3/2
f 372/1/2 373/1/2 374/1/2
f 374/1/2 373/1/2 375/1/2
f 376/1/2 377/1/2 378/1/2
f 378/1/2 377/1/2 379/1/2
f 380/3/2 381/3/2 382/3/2
f 382/3/2 381/3/2 383/3/2
f 384/3/2 385/3/2 386/3/2
f 386/3/2 385/3/2 387/3/2
f 386/2/2 387/2/2 388/2/2
f 388/2/2 387/2/2 389/2/2
f 390/3/2 391/3/2 392/3/2
f 392/3/2 391/3/2 393/3/2
f 394/2/2 395/2/2 396/2/2
f 396/2/2 395/2/2 397/2/2
f 398/2/2 399/2/2 400/2/2
f 400/2/2 399/2/2 401/2/2
f 402/3/2 403/3/2 404/3/2
f 404/3/2 403/3/2 405/3/2
f 406/2/2 407/2/2 408/2/2
f 408/2/2 407/2/2 409/2/2
f 410/2/2 411/2/2 412/2/2
f 412/2/2 411/2/2 413/2/2
f 414/2/2 415/2/2 416/2/2
f 416/2/2 415/2/2 417/2/2
f 418/1/2 419/1/2 420/1/2
f 420/1/2 419/1/2 421/1/2
f 422/3/2 423/3/2 424/3/2
f 424/3/2 423/3/2 425/3/2
f 426/3/2 427/3/2 428/3/2
f 428/3/2 427/3/2 429/3/2
f 430/1/2 431/1/2 432/1/2
f 432/1/2 431/1/2 433/1/2
f 434/3/2 435/3/2 436/3/2
f 436/3/2 435/3/2 437/3/2
f 438/3/2 439/3/2 441/3/2
f 439/2/2 440/2/2 442/2/2
f 441/3/2 439/3/2 442/3/2
f 442/2/2 440/2/2 443/2/2
f 444/3/2 445/3/2 448/3/2
f 448/3/2 445/3/2 449/3/2
f 446/2/2 447/2/2 450/2/2
f 450/2/2 447/2/2 451/2/2
f 452/2/2 453/2/2 454/2/2
f 454/2/2 453/2/2 455/2/2
f 456/3/2 457/3/2 458/3/2
f 458/3/2 457/3/2 459/3/2
f 460/5/2 461/5/2 462/5/2
f 462/5/2 461/5/2 463/5/2
f 464/5/2 465/5/2 466/5/2
f 466/5/2 465/5/2 467/5/2
f 468/1/2 469/1/2 470/1/2
f 470/1/2 469/1/2 471/1/2
f 472/1/2 473/1/2 474/1/2
f 474/1/2 473/1/2 475/1/2
f 476/1/2 477/1/2 478/1/2
f 478/1/2 477/1/2 479/1/2
f 480/5/2 481/5/2 482/5/2
f 482/5/2 481/5/2 483/5/2
f 484/5/2 485/5/2 486/5/2
f 486/5/2 485/5/2 487/5/2
f 488/5/2 489/5/2 490/5/2
f 490/5/2 489/5/2 491/5/2
f 490/6/2 491/6/2 492/6/2
f 492/6/2 491/6/2 493/6/2
f 494/1/2 495/1/2 496/1/2
f 496/1/2 495/1/2 497/1/2
f 498/1/2 499/1/2 500/1/2
f 500/1/2 499/1/2 501/1/2
f 502/1/2 503/1/2 504/1/2
f 504/1/2 503/1/2 505/1/2
f 506/5/2 507/5/2 508/5/2
f 508/5/2 507/5/2 509/5/2
f 510/5/2 511/5/2 512/5/2
f 512/5/2 511/5/2 513/5/2
f 514/5/2 515/5/2 516/5/2
f 516/5/2 515/5/2 517/5/2
f 518/5/2 519/5/2 520/5/2
f 520/5/2 519/5/2 521/5/2
f 522/5/2 523/5/2 524/5/2
f 524/5/2 523/5/2 525/5/2
f 524/6/2 525/6/2 526/6/2
f 526/6/2 525/6/2 527/6/2
f 528/3/2 529/3/2 536/3/2
f 529/2/2 530/2/2 536/2/2
f 536/2/2 530/2/2 537/2/2
f 531/2/2 532/2/2 540/2/2
f 532/3/2 533/3/2 541/3/2
f 540/2/2 532/2/2 541/2/2
f 537/2/2 538/2/2 542/2/2
f 536/3/2 537/3/2 542/3/2
f 542/2/2 538/2/2 543/2/2
f 539/2/2 540/2/2 546/2/2
f 540/3/2 541/3/2 547/3/2
f 546/2/2 540/2/2 547/2/2
f 534/1/2 535/1/2 548/1/2
f 548/1/2 535/1/2 549/1/2
f 528/3/2 536/3/2 550/3/2
f 536/3/2 542/3/2 550/3/2
f 542/3/2 543/3/2 550/3/2
f 550/3/2 543/3/2 551/3/2
f 543/2/2 544/2/2 552/2/2
f 551/3/2 543/3/2 552/3/2
f 552/2/2 544/2/2 553/2/2
f 545/2/2 546/2/2 554/2/2
f 546/3/2 547/3/2 555/3/2
f 554/2/2 546/2/2 555/2/2
f 547/3/2 541/3/2 556/3/2
f 555/3/2 547/3/2 556/3/2
f 541/3/2 533/3/2 556/3/2
f 556/3/2 533/3/2 557/3/2
f 552/3/2 553/3/2 558/3/2
f 551/3/2 552/3/2 558/3/2
f 558/3/2 553/3/2 559/3/2
f 553/2/2 554/2/2 560/2/2
f 559/3/2 553/3/2 560/3/2
f 554/3/2 555/3/2 561/3/2
f 560/2/2 554/2/2 561/2/2
f 555/3/2 556/3/2 561/3/2
f 561/3/2 556/3/2 562/3/2
f 562/3/2 556/3/2 563/3/2
f 558/2/2 559/2/2 565/2/2
f 559/3/2 560/3/2 566/3/2
f 560/3/2 561/3/2 566/3/2
f 565/2/2 559/2/2 566/2/2
f 561/3/2 562/3/2 566/3/2
f 562/2/2 563/2/2 567/2/2
f 566/3/2 562/3/2 567/3/2
f 567/2/2 563/2/2 568/2/2
f 564/2/2 565/2/2 571/2/2
f 567/3/2 568/3/2 572/3/2
f 565/3/2 566/3/2 572/3/2
f 571/2/2 565/2/2 572/2/2
f 566/3/2 567/3/2 572/3/2
f 572/3/2 568/3/2 573/3/2
f 573/3/2 568/3/2 574/3/2
f 568/2/2 569/2/2 575/2/2
f 574/3/2 568/3/2 575/3/2
f 575/2/2 569/2/2 576/2/2
f 570/2/2 571/2/2 579/2/2
f 571/3/2 572/3/2 580/3/2
f 572/3/2 573/3/2 580/3/2
f 579/2/2 571/2/2 580/2/2
f 580/3/2 573/3/2 581/3/2
f 573/4/2 574/4/2 582/4/2
f 581/3/2 573/3/2 582/3/2
f 575/3/2 576/3/2 583/3/2
f 582/4/2 574/4/2 583/4/2
f 574/3/2 575/3/2 583/3/2
f 576/2/2 577/2/2 584/2/2
f 583/3/2 576/3/2 584/3/2
f 584/2/2 577/2/2 585/2/2
f 580/3/2 581/3/2 587/3/2
f 578/3/2 579/3/2 587/3/2
f 579/3/2 580/3/2 587/3/2
f 587/3/2 581/3/2 588/3/2
f 585/3/2 586/3/2 589/3/2
f 582/3/2 583/3/2 589/3/2
f 584/3/2 585/3/2 589/3/2
f 583/3/2 584/3/2 589/3/2
f 589/3/2 586/3/2 590/3/2
f 588/3/2 581/3/2 591/3/2
f 581/4/2 582/4/2 591/4/2
f 582/3/2 589/3/2 592/3/2
f 591/4/2 582/4/2 592/4/2
f 588/3/2 591/3/2 593/3/2
f 591/3/2 592/3/2 593/3/2
f 593/3/2 592/3/2 594/3/2
f 592/3/2 589/3/2 595/3/2
f 594/3/2 592/3/2 595/3/2
f 595/3/2 589/3/2 596/3/2
f 594/3/2 595/3/2 597/3/2
f 597/3/2 595/3/2 598/3/2
f 598/3/2 595/3/2 599/3/2
f 599/3/2 595/3/2 600/3/2
f 598/3/2 599/3/2 601/3/2
f 601/3/2 599/3/2 602/3/2
f 606/3/3 604/3/3 603/3/3
f 610/2/3 606/2/3 605/2/3
f 611/3/3 604/3/3 606/3/3
f 611/2/3 606/2/3 610/2/3
f 612/3/3 608/3/3 607/3/3
f 613/3/3 608/3/3 612/3/3
f 614/3/3 608/3/3 613/3/3
f 616/2/3 610/2/3 609/2/3
f 617/3/3 611/3/3 610/3/3
f 617/2/3 610/2/3 616/2/3
f 618/2/3 613/2/3 612/2/3
f 619/3/3 615/3/3 614/3/3
f 619/2/3 613/2/3 618/2/3
f 619/3/3 614/3/3 613/3/3
f 620/3/3 615/3/3 619/3/3
f 621/2/3 616/2/3 615/2/3
f 621/3/3 615/3/3 620/3/3
f 622/3/3 617/3/3 616/3/3
f 622/2/3 616/2/3 621/2/3
f 623/3/3 604/3/3 611/3/3
f 623/3/3 617/3/3 622/3/3
f 623/3/3 611/3/3 617/3/3
f 625/2/3 620/2/3 619/2/3
f 626/3/3 622/3/3 621/3/3
f 626/2/3 620/2/3 625/2/3
f 626/3/3 624/3/3 623/3/3
f 626/3/3 623/3/3 622/3/3
f 626/3/3 621/3/3 620/3/3
f 627/3/3 624/3/3 626/3/3
f 628/3/3 624/3/3 627/3/3
f 630/2/3 627/2/3 626/2/3
f 631/3/3 629/3/3 628/3/3
f 631/2/3 627/2/3 630/2/3
f 631/3/3 628/3/3 627/3/3
f 632/3/3 629/3/3 631/3/3
f 633/3/3 629/3/3 632/3/3
f 636/2/3 632/2/3 631/2/3
f 637/3/3 634/3/3 633/3/3
f 637/3/3 633/3/3 632/3/3
f 637/2/3 632/2/3 636/2/3
f 638/3/3 634/3/3 637/3/3
f 639/3/3 634/3/3 638/3/3
f 640/3/3 634/3/3 639/3/3
f 641/3/3 634/3/3 640/3/3
f 643/2/3 636/2/3 635/2/3
f 644/3/3 637/3/3 636/3/3
f 644/3/3 638/3/3 637/3/3
f 644/2/3 636/2/3 643/2/3
f 645/3/3 638/3/3 644/3/3
f 646/4/3 639/4/3 638/4/3
f 646/3/3 638/3/3 645/3/3
f 647/3/3 640/3/3 639/3/3
f 647/4/3 639/4/3 646/4/3
f 648/3/3 640/3/3 647/3/3
f 649/3/3 640/3/3 648/3/3
f 651/2/3 643/2/3 642/2/3
f 652/3/3 645/3/3 644/3/3
f 652/3/3 644/3/3 643/3/3
f 652/2/3 643/2/3 651/2/3
f 653/3/3 645/3/3 652/3/3
f 654/3/3 645/3/3 653/3/3
f 655/4/3 646/4/3 645/4/3
f 655/3/3 645/3/3 654/3/3
f 656/3/3 647/3/3 646/3/3
f 656/4/3 646/4/3 655/4/3
f 656/3/3 648/3/3 647/3/3
f 657/3/3 648/3/3 656/3/3
f 658/3/3 648/3/3 657/3/3
f 659/2/3 651/2/3 650/2/3
f 660/3/3 653/3/3 652/3/3
f 660/2/3 651/2/3 659/2/3
f 660/3/3 652/3/3 651/3/3
f 661/3/3 653/3/3 660/3/3
f 662/2/3 654/2/3 653/2/3
f 662/3/3 653/3/3 661/3/3
f 663/3/3 655/3/3 654/3/3
f 663/2/3 654/2/3 662/2/3
f 663/3/3 657/3/3 656/3/3
f 663/3/3 656/3/3 655/3/3
f 664/3/3 657/3/3 663/3/3
f 665/3/3 661/3/3 660/3/3
f 665/3/3 660/3/3 659/3/3
f 666/3/3 661/3/3 665/3/3
f 667/2/3 664/2/3 663/2/3
f 668/3/3 657/3/3 664/3/3
f 668/2/3 664/2/3 667/2/3
f 669/3/3 657/3/3 668/3/3
f 670/2/3 669/2/3 668/2/3
f 671/3/3 657/3/3 669/3/3
f 671/2/3 669/2/3 670/2/3
f 672/3/3 657/3/3 671/3/3
f 673/3/3 657/3/3 672/3/3
f 676/1/3 675/1/3 674/1/3
f 677/1/3 675/1/3 676/1/3
f 680/1/3 679/1/3 678/1/3
f 681/1/3 679/1/3 680/1/3
f 686/5/3 683/5/3 682/5/3
f 687/6/3 684/6/3 683/6/3
f 687/5/3 683/5/3 686/5/3
f 688/6/3 684/6/3 687/6/3
f 690/5/3 688/5/3 687/5/3
f 690/5/3 689/5/3 688/5/3
f 690/5/3 687/5/3 686/5/3
f 690/5/3 686/5/3 685/5/3
f 691/5/3 689/5/3 690/5/3
f 693/5/3 690/5/3 685/5/3
f 694/6/3 691/6/3 690/6/3
f 694/5/3 690/5/3 693/5/3
f 695/6/3 691/6/3 694/6/3
f 697/5/3 695/5/3 694/5/3
f 697/5/3 696/5/3 695/5/3
f 697/5/3 694/5/3 693/5/3
f 697/5/3 693/5/3 692/5/3
f 698/5/3 696/5/3 697/5/3
f 699/5/3 697/5/3 692/5/3
f 699/6/3 698/6/3 697/6/3
f 700/6/3 698/6/3 699/6/3
f 701/5/3 699/5/3 692/5/3
f 701/5/3 700/5/3 699/5/3
f 702/5/3 700/5/3 701/5/3
f 703/5/3 700/5/3 702/5/3
f 704/5/3 700/5/3 703/5/3
f 705/5/3 701/5/3 692/5/3
f 705/6/3 702/6/3 701/6/3
f 706/7/3 703/7/3 702/7/3
f 706/6/3 702/6/3 705/6/3
f 707/6/3 704/6/3 703/6/3
f 707/7/3 703/7/3 706/7/3
f 708/6/3 704/6/3 707/6/3
f 709/5/3 706/5/3 705/5/3
f 709/5/3 705/5/3 692/5/3
f 709/5/3 708/5/3 707/5/3
f 709/5/3 707/5/3 706/5/3
f 710/5/3 708/5/3 709/5/3
f 711/5/3 708/5/3 710/5/3
f 712/5/3 708/5/3 711/5/3
f 713/5/3 708/5/3 712/5/3
f 714/5/3 708/5/3 713/5/3
f 715/5/3 708/5/3 714/5/3
f 716/5/3 711/5/3 710/5/3
f 716/6/3 712/6/3 711/6/3
f 717/7/3 713/7/3 712/7/3
f 717/6/3 712/6/3 716/6/3
f 718/6/3 714/6/3 713/6/3
f 718/7/3 713/7/3 717/7/3
f 719/6/3 714/6/3 718/6/3
f 720/5/3 717/5/3 716/5/3
f 720/5/3 716/5/3 710/5/3
f 720/5/3 719/5/3 718/5/3
f 720/5/3 718/5/3 717/5/3
f 721/5/3 719/5/3 720/5/3
f 722/5/3 719/5/3 721/5/3
f 723/5/3 719/5/3 722/5/3
f 724/5/3 719/5/3 723/5/3
f 725/5/3 722/5/3 721/5/3
f 726/6/3 723/6/3 722/6/3
f 726/5/3 722/5/3 725/5/3
f 727/6/3 723/6/3 726/6/3
f 730/1/3 729/1/3 728/1/3
f 731/1/3 729/1/3 730/1/3
f 734/1/3 733/1/3 732/1/3
f 735/1/3 733/1/3 734/1/3
f 738/1/3 737/1/3 736/1/3
f 739/1/3 737/1/3 738/1/3
f 743/5/3 741/5/3 740/5/3
f 744/6/3 742/6/3 741/6/3
f 744/5/3 741/5/3 743/5/3
f 745/6/3 742/6/3 744/6/3
f 748/1/3 747/1/3 746/1/3
f 749/1/3 747/1/3 748/1/3
f 754/5/3 751/5/3 750/5/3
f 755/5/3 751/5/3 754/5/3
f 756/5/3 753/5/3 752/5/3
f 757/5/3 753/5/3 756/5/3
f 760/3/3 759/3/3 758/3/3
f 761/3/3 759/3/3 760/3/3
f 762/2/3 761/2/3 760/2/3
f 763/2/3 761/2/3 762/2/3
f 766/2/3 765/2/3 764/2/3
f 767/2/3 765/2/3 766/2/3
f 768/3/3 767/3/3 766/3/3
f 769/3/3 767/3/3 768/3/3
f 772/3/3 771/3/3 770/3/3
f 773/3/3 771/3/3 772/3/3
f 776/2/3 775/2/3 774/2/3
f 777/2/3 775/2/3 776/2/3
f 780/2/3 779/2/3 778/2/3
f 781/2/3 779/2/3 780/2/3
f 784/2/3 783/2/3 782/2/3
f 785/2/3 783/2/3 784/2/3
f 790/5/3 787/5/3 786/5/3
f 791/5/3 787/5/3 790/5/3
f 792/5/3 789/5/3 788/5/3
f 793/5/3 789/5/3 792/5/3
f 796/1/3 795/1/3 794/1/3
f 797/1/3 795/1/3 796/1/3
f 800/2/3 799/2/3 798/2/3
f 801/2/3 799/2/3 800/2/3
f 804/2/3 803/2/3 802/2/3
f 805/2/3 803/2/3 804/2/3
f 810/3/3 807/3/3 806/3/3
f 811/3/3 807/3/3 810/3/3
f 812/2/3 809/2/3 808/2/3
f 813/2/3 809/2/3 812/2/3
f 816/2/3 815/2/3 814/2/3
f 817/2/3 815/2/3 816/2/3
f 821/3/3 819/3/3 818/3/3
f 822/2/3 820/2/3 819/2/3
f 822/3/3 819/3/3 821/3/3
f 823/2/3 820/2/3 822/2/3
f 826/3/3 825/3/3 824/3/3
f 827/3/3 825/3/3 826/3/3
f 830/2/3 829/2/3 828/2/3
f 831/2/3 829/2/3 830/2/3
f 834/2/3 833/2/3 832/2/3
f 835/2/3 833/2/3 834/2/3
f 838/1/3 837/1/3 836/1/3
f 839/1/3 837/1/3 838/1/3
f 842/3/3 841/3/3 840/3/3
f 843/3/3 841/3/3 842/3/3
f 846/2/3 845/2/3 844/2/3
f 847/2/3 845/2/3 846/2/3
f 850/2/3 849/2/3 848/2/3
f 851/2/3 849/2/3 850/2/3
f 854/3/3 853/3/3 852/3/3
f 855/3/3 853/3/3 854/3/3
f 858/3/3 857/3/3 856/3/3
f 859/3/3 857/3/3 858/3/3
f 862/3/3 861/3/3 860/3/3
f 863/3/3 861/3/3 862/3/3
f 866/2/3 865/2/3 864/2/3
f 867/2/3 865/2/3 866/2/3
f 870/2/3 869/2/3 868/2/3
f 871/2/3 869/2/3 870/2/3
f 874/1/3 873/1/3 872/1/3
f 875/1/3 873/1/3 874/1/3
f 878/2/3 877/2/3 876/2/3
f 879/2/3 877/2/3 878/2/3
f 882/1/3 881/1/3 880/1/3
f 883/1/3 881/1/3 882/1/3
f 886/1/3 885/1/3 884/1/3
f 887/1/3 885/1/3 886/1/3
f 892/5/3 889/5/3 888/5/3
f 893/6/3 890/6/3 889/6/3
f 893/5/3 889/5/3 892/5/3
f 894/6/3 890/6/3 893/6/3
f 896/5/3 892/5/3 891/5/3
f 896/5/3 895/5/3 894/5/3
f 896/5/3 894/5/3 893/5/3
f 896/5/3 893/5/3 892/5/3
f 897/5/3 895/5/3 896/5/3
f 899/5/3 896/5/3 891/5/3
f 900/6/3 897/6/3 896/6/3
f 900/5/3 896/5/3 899/5/3
f 901/6/3 897/6/3 900/6/3
f 903/5/3 901/5/3 900/5/3
f 903/5/3 902/5/3 901/5/3
f 903/5/3 900/5/3 899/5/3
f 903/5/3 899/5/3 898/5/3
f 904/5/3 902/5/3 903/5/3
f 905/5/3 903/5/3 898/5/3
f 905/6/3 904/6/3 903/6/3
f 906/6/3 904/6/3 905/6/3
f 907/5/3 905/5/3 898/5/3
f 907/5/3 906/5/3 905/5/3
f 908/5/3 906/5/3 907/5/3
f 909/5/3 906/5/3 908/5/3
f 910/5/3 906/5/3 909/5/3
f 911/5/3 907/5/3 898/5/3
f 911/6/3 908/6/3 907/6/3
f 912/7/3 909/7/3 908/7/3
f 912/6/3 908/6/3 911/6/3
f 913/6/3 910/6/3 909/6/3
f 913/7/3 909/7/3 912/7/3
f 914/6/3 910/6/3 913/6/3
f 915/5/3 912/5/3 911/5/3
f 915/5/3 911/5/3 898/5/3
f 915/5/3 914/5/3 913/5/3
f 915/5/3 913/5/3 912/5/3
f 916/5/3 914/5/3 915/5/3
f 917/5/3 914/5/3 916/5/3
f 918/5/3 914/5/3 917/5/3
f 919/5/3 914/5/3 918/5/3
f 920/5/3 914/5/3 919/5/3
f 921/5/3 914/5/3 920/5/3
f 922/5/3 917/5/3 916/5/3
f 922/6/3 918/6/3 917/6/3
f 923/7/3 919/7/3 918/7/3
f 923/6/3 918/6/3 922/6/3
f 924/6/3 920/6/3 919/6/3
f 924/7/3 919/7/3 923/7/3
f 925/6/3 920/6/3 924/6/3
f 926/5/3 923/5/3 922/5/3
f 926/5/3 922/5/3 916/5/3
f 926/5/3 925/5/3 924/5/3
f 926/5/3 924/5/3 923/5/3
f 927/5/3 925/5/3 926/5/3
f 928/5/3 925/5/3 927/5/3
f 929/5/3 925/5/3 928/5/3
f 930/5/3 925/5/3 929/5/3
f 931/5/3 928/5/3 927/5/3
f 932/6/3 929/6/3 928/6/3
f 932/5/3 928/5/3 931/5/3
f 933/6/3 929/6/3 932/6/3
f 936/1/3 935/1/3 934/1/3
f 937/1/3 935/1/3 936/1/3
f 938/3/4 939/3/4 941/3/4
f 940/2/4 941/2/4 945/2/4
f 941/3/4 939/3/4 946/3/4
f 945/2/4 941/2/4 946/2/4
f 942/3/4 943/3/4 947/3/4
f 947/3/4 943/3/4 948/3/4
f 948/3/4 943/3/4 949/3/4
f 944/2/4 945/2/4 951/2/4
f 945/3/4 946/3/4 952/3/4
f 951/2/4 945/2/4 952/2/4
f 947/2/4 948/2/4 953/2/4
f 949/3/4 950/3/4 954/3/4
f 953/2/4 948/2/4 954/2/4
f 948/3/4 949/3/4 954/3/4
f 954/3/4 950/3/4 955/3/4
f 950/2/4 951/2/4 956/2/4
f 955/3/4 950/3/4 956/3/4
f 951/3/4 952/3/4 957/3/4
f 956/2/4 951/2/4 957/2/4
f 946/3/4 939/3/4 958/3/4
f 957/3/4 952/3/4 958/3/4
f 952/3/4 946/3/4 958/3/4
f 954/2/4 955/2/4 960/2/4
f 956/3/4 957/3/4 961/3/4
f 960/2/4 955/2/4 961/2/4
f 958/3/4 959/3/4 961/3/4
f 957/3/4 958/3/4 961/3/4
f 955/3/4 956/3/4 961/3/4
f 961/3/4 959/3/4 962/3/4
f 962/3/4 959/3/4 963/3/4
f 961/2/4 962/2/4 965/2/4
f 963/3/4 964/3/4 966/3/4
f 965/2/4 962/2/4 966/2/4
f 962/3/4 963/3/4 966/3/4
f 966/3/4 964/3/4 967/3/4
f 967/3/4 964/3/4 968/3/4
f 966/2/4 967/2/4 971/2/4
f 968/3/4 969/3/4 972/3/4
f 967/3/4 968/3/4 972/3/4
f 971/2/4 967/2/4 972/2/4
f 972/3/4 969/3/4 973/3/4
f 973/3/4 969/3/4 974/3/4
f 974/3/4 969/3/4 975/3/4
f 975/3/4 969/3/4 976/3/4
f 970/2/4 971/2/4 978/2/4
f 971/3/4 972/3/4 979/3/4
f 972/3/4 973/3/4 979/3/4
f 978/2/4 971/2/4 979/2/4
f 979/3/4 973/3/4 980/3/4
f 973/4/4 974/4/4 981/4/4
f 980/3/4 973/3/4 981/3/4
f 974/3/4 975/3/4 982/3/4
f 981/4/4 974/4/4 982/4/4
f 982/3/4 975/3/4 983/3/4
f 983/3/4 975/3/4 984/3/4
f 977/2/4 978/2/4 986/2/4
f 979/3/4 980/3/4 987/3/4
f 978/3/4 979/3/4 987/3/4
f 986/2/4 978/2/4 987/2/4
f 987/3/4 980/3/4 988/3/4
f 988/3/4 980/3/4 989/3/4
f 980/4/4 981/4/4 990/4/4
f 989/3/4 980/3/4 990/3/4
f 981/3/4 982/3/4 991/3/4
f 990/4/4 981/4/4 991/4/4
f 982/3/4 983/3/4 991/3/4
f 991/3/4 983/3/4 992/3/4
f 992/3/4 983/3/4 993/3/4
f 985/2/4 986/2/4 994/2/4
f 987/3/4 988/3/4 995/3/4
f 994/2/4 986/2/4 995/2/4
f 986/3/4 987/3/4 995/3/4
f 995/3/4 988/3/4 996/3/4
f 988/2/4 989/2/4 997/2/4
f 996/3/4 988/3/4 997/3/4
f 989/3/4 990/3/4 998/3/4
f 997/2/4 989/2/4 998/2/4
f 991/3/4 992/3/4 998/3/4
f 990/3/4 991/3/4 998/3/4
f 998/3/4 992/3/4 999/3/4
f 995/3/4 996/3/4 1000/3/4
f 994/3/4 995/3/4 1000/3/4
f 1000/3/4 996/3/4 1001/3/4
f 998/2/4 999/2/4 1002/2/4
f 999/3/4 992/3/4 1003/3/4
f 1002/2/4 999/2/4 1003/2/4
f 1003/3/4 992/3/4 1004/3/4
f 1003/2/4 1004/2/4 1005/2/4
f 1004/3/4 992/3/4 1006/3/4
f 1005/2/4 1004/2/4 1006/2/4
f 1006/3/4 992/3/4 1007/3/4
f 1007/3/4 992/3/4 1008/3/4
f 1009/1/4 1010/1/4 1011/1/4
f 1011/1/4 1010/1/4 1012/1/4
f 1013/1/4 1014/1/4 1015/1/4
f 1015/1/4 1014/1/4 1016/1/4
f 1017/5/4 1018/5/4 1021/5/4
f 1018/6/4 1019/6/4 1022/6/4
f 1021/5/4 1018/5/4 1022/5/4
f 1022/6/4 1019/6/4 1023/6/4
f 1022/5/4 1023/5/4 1025/5/4
f 1023/5/4 1024/5/4 1025/5/4
f 1021/5/4 1022/5/4 1025/5/4
f 1020/5/4 1021/5/4 1025/5/4
f 1025/5/4 1024/5/4 1026/5/4
f 1020/5/4 1025/5/4 1028/5/4
f 1025/6/4 1026/6/4 1029/6/4
f 1028/5/4 1025/5/4 1029/5/4
f 1029/6/4 1026/6/4 1030/6/4
f 1029/5/4 1030/5/4 1032/5/4
f 1030/5/4 1031/5/4 1032/5/4
f 1028/5/4 1029/5/4 1032/5/4
f 1027/5/4 1028/5/4 1032/5/4
f 1032/5/4 1031/5/4 1033/5/4
f 1027/5/4 1032/5/4 1034/5/4
f 1032/6/4 1033/6/4 1034/6/4
f 1034/6/4 1033/6/4 1035/6/4
f 1027/5/4 1034/5/4 1036/5/4
f 1034/5/4 1035/5/4 1036/5/4
f 1036/5/4 1035/5/4 1037/5/4
f 1037/5/4 1035/5/4 1038/5/4
f 1038/5/4 1035/5/4 1039/5/4
f 1027/5/4 1036/5/4 1040/5/4
f 1036/6/4 1037/6/4 1040/6/4
f 1037/7/4 1038/7/4 1041/7/4
f 1040/6/4 1037/6/4 1041/6/4
f 1038/6/4 1039/6/4 1042/6/4
f 1041/7/4 1038/7/4 1042/7/4
f 1042/6/4 1039/6/4 1043/6/4
f 1040/5/4 1041/5/4 1044/5/4
f 1027/5/4 1040/5/4 1044/5/4
f 1042/5/4 1043/5/4 1044/5/4
f 1041/5/4 1042/5/4 1044/5/4
f 1044/5/4 1043/5/4 1045/5/4
f 1045/5/4 1043/5/4 1046/5/4
f 1046/5/4 1043/5/4 1047/5/4
f 1047/5/4 1043/5/4 1048/5/4
f 1048/5/4 1043/5/4 1049/5/4
f 1049/5/4 1043/5/4 1050/5/4
f 1045/5/4 1046/5/4 1051/5/4
f 1046/6/4 1047/6/4 1051/6/4
f 1047/7/4 1048/7/4 1052/7/4
f 1051/6/4 1047/6/4 1052/6/4
f 1048/6/4 1049/6/4 1053/6/4
f 1052/7/4 1048/7/4 1053/7/4
f 1053/6/4 1049/6/4 1054/6/4
f 1051/5/4 1052/5/4 1055/5/4
f 1045/5/4 1051/5/4 1055/5/4
f 1053/5/4 1054/5/4 1055/5/4
f 1052/5/4 1053/5/4 1055/5/4
f 1055/5/4 1054/5/4 1056/5/4
f 1056/5/4 1054/5/4 1057/5/4
f 1057/5/4 1054/5/4 1058/5/4
f 1058/5/4 1054/5/4 1059/5/4
f 1056/5/4 1057/5/4 1060/5/4
f 1057/6/4 1058/6/4 1061/6/4
f 1060/5/4 1057/5/4 1061/5/4
f 1061/6/4 1058/6/4 1062/6/4
f 1063/1/4 1064/1/4 1065/1/4
f 1065/1/4 1064/1/4 1066/1/4
f 1067/1/4 1068/1/4 1069/1/4
f 1069/1/4 1068/1/4 1070/1/4
f 1071/1/4 1072/1/4 1073/1/4
f 1073/1/4 1072/1/4 1074/1/4
f 1075/1/4 1076/1/4 1077/1/4
f 1077/1/4 1076/1/4 1078/1/4
f 1079/3/4 1080/3/4 1081/3/4
f 1081/3/4 1080/3/4 1082/3/4
f 1083/3/4 1084/3/4 1085/3/4
f 1085/3/4 1084/3/4 1086/3/4
f 1087/1/4 1088/1/4 1089/1/4
f 1089/1/4 1088/1/4 1090/1/4
f 1091/2/4 1092/2/4 1093/2/4
f 1093/2/4 1092/2/4 1094/2/4
f 1095/2/4 1096/2/4 1097/2/4
f 1097/2/4 1096/2/4 1098/2/4
f 1099/2/4 1100/2/4 1101/2/4
f 1101/2/4 1100/2/4 1102/2/4
f 1103/5/4 1104/5/4 1107/5/4
f 1107/5/4 1104/5/4 1108/5/4
f 1105/5/4 1106/5/4 1109/5/4
f 1109/5/4 1106/5/4 1110/5/4
f 1111/3/4 1112/3/4 1113/3/4
f 1113/3/4 1112/3/4 1114/3/4
f 1115/3/4 1116/3/4 1117/3/4
f 1117/3/4 1116/3/4 1118/3/4
f 1119/3/4 1120/3/4 1121/3/4
f 1121/3/4 1120/3/4 1122/3/4
f 1123/1/4 1124/1/4 1125/1/4
f 1125/1/4 1124/1/4 1126/1/4
f 1127/3/4 1128/3/4 1129/3/4
f 1129/3/4 1128/3/4 1130/3/4
f 1131/5/4 1132/5/4 1135/5/4
f 1135/5/4 1132/5/4 1136/5/4
f 1133/5/4 1134/5/4 1137/5/4
f 1137/5/4 1134/5/4 1138/5/4
f 1139/3/4 1140/3/4 1141/3/4
f 1141/3/4 1140/3/4 1142/3/4
f 1143/5/4 1144/5/4 1146/5/4
f 1144/6/4 1145/6/4 1147/6/4
f 1146/5/4 1144/5/4 1147/5/4
f 1147/6/4 1145/6/4 1148/6/4
f 1149/3/4 1150/3/4 1151/3/4
f 1151/3/4 1150/3/4 1152/3/4
f 1153/3/4 1154/3/4 1155/3/4
f 1155/3/4 1154/3/4 1156/3/4
f 1157/3/4 1158/3/4 1160/3/4
f 1158/2/4 1159/2/4 1161/2/4
f 1160/3/4 1158/3/4 1161/3/4
f 1161/2/4 1159/2/4 1162/2/4
f 1163/1/4 1164/1/4 1165/1/4
f 1165/1/4 1164/1/4 1166/1/4
f 1167/3/4 1168/3/4 1171/3/4
f 1171/3/4 1168/3/4 1172/3/4
f 1169/2/4 1170/2/4 1173/2/4
f 1173/2/4 1170/2/4 1174/2/4
f 1175/3/4 1176/3/4 1177/3/4
f 1177/3/4 1176/3/4 1178/3/4
f 1179/3/4 1180/3/4 1181/3/4
f 1181/3/4 1180/3/4 1182/3/4
f 1183/2/4 1184/2/4 1185/2/4
f 1185/2/4 1184/2/4 1186/2/4
f 1187/3/4 1188/3/4 1189/3/4
f 1189/3/4 1188/3/4 1190/3/4
f 1191/3/4 1192/3/4 1193/3/4
f 1193/3/4 1192/3/4 1194/3/4
f 1195/1/4 1196/1/4 1197/1/4
f 1197/1/4 1196/1/4 1198/1/4
f 1199/1/4 1200/1/4 1201/1/4
f 1201/1/4 1200/1/4 1202/1/4
f 1203/5/4 1204/5/4 1207/5/4
f 1204/6/4 1205/6/4 1208/6/4
f 1207/5/4 1204/5/4 1208/5/4
f 1208/6/4 1205/6/4 1209/6/4
f 1206/5/4 1207/5/4 1211/5/4
f 1209/5/4 1210/5/4 1211/5/4
f 1208/5/4 1209/5/4 1211/5/4
f 1207/5/4 1208/5/4 1211/5/4
f 1211/5/4 1210/5/4 1212/5/4
f 1206/5/4 1211/5/4 1214/5/4
f 1211/6/4 1212/6/4 1215/6/4
f 1214/5/4 1211/5/4 1215/5/4
f 1215/6/4 1212/6/4 1216/6/4
f 1215/5/4 1216/5/4 1218/5/4
f 1216/5/4 1217/5/4 1218/5/4
f 1214/5/4 1215/5/4 1218/5/4
f 1213/5/4 1214/5/4 1218/5/4
f 1218/5/4 1217/5/4 1219/5/4
f 1213/5/4 1218/5/4 1220/5/4
f 1218/6/4 1219/6/4 1220/6/4
f 1220/6/4 1219/6/4 1221/6/4
f 1213/5/4 1220/5/4 1222/5/4
f 1220/5/4 1221/5/4 1222/5/4
f 1222/5/4 1221/5/4 1223/5/4
f 1223/5/4 1221/5/4 1224/5/4
f 1224/5/4 1221/5/4 1225/5/4
f 1213/5/4 1222/5/4 1226/5/4
f 1222/6/4 1223/6/4 1226/6/4
f 1223/7/4 1224/7/4 1227/7/4
f 1226/6/4 1223/6/4 1227/6/4
f 1224/6/4 1225/6/4 1228/6/4
f 1227/7/4 1224/7/4 1228/7/4
f 1228/6/4 1225/6/4 1229/6/4
f 1226/5/4 1227/5/4 1230/5/4
f 1213/5/4 1226/5/4 1230/5/4
f 1228/5/4 1229/5/4 1230/5/4
f 1227/5/4 1228/5/4 1230/5/4
f 1230/5/4 1229/5/4 1231/5/4
f 1231/5/4 1229/5/4 1232/5/4
f 1232/5/4 1229/5/4 1233/5/4
f 1233/5/4 1229/5/4 1234/5/4
f 1234/5/4 1229/5/4 1235/5/4
f 1235/5/4 1229/5/4 1236/5/4
f 1231/5/4 1232/5/4 1237/5/4
f 1232/6/4 1233/6/4 1237/6/4
f 1233/7/4 1234/7/4 1238/7/4
f 1237/6/4 1233/6/4 1238/6/4
f 1234/6/4 1235/6/4 1239/6/4
f 1238/7/4 1234/7/4 1239/7/4
f 1239/6/4 1235/6/4 1240/6/4
f 1237/5/4 1238/5/4 1241/5/4
f 1231/5/4 1237/5/4 1241/5/4
f 1239/5/4 1240/5/4 1241/5/4
f 1238/5/4 1239/5/4 1241/5/4
f 1241/5/4 1240/5/4 1242/5/4
f 1242/5/4 1240/5/4 1243/5/4
f 1243/5/4 1240/5/4 1244/5/4
f 1244/5/4 1240/5/4 1245/5/4
f 1242/5/4 1243/5/4 1246/5/4
f 1243/6/4 1244/6/4 1247/6/4
f 1246/5/4 1243/5/4 1247/5/4
f 1247/6/4 1244/6/4 1248/6/4
f 1249/1/4 1250/1/4 1251/1/4
f 1251/1/4 1250/1/4 1252/1/4
f 1255/1/5 1254/1/5 1253/1/5
f 1256/1/5 1254/1/5 1255/1/5
f 1263/3/5 1258/3/5 1257/3/5
f 1264/2/5 1259/2/5 1258/2/5
f 1264/3/5 1258/3/5 1263/3/5
f 1265/2/5 1259/2/5 1264/2/5
f 1266/2/5 1261/2/5 1260/2/5
f 1267/3/5 1262/3/5 1261/3/5
f 1267/2/5 1261/2/5 1266/2/5
f 1268/3/5 1262/3/5 1267/3/5
f 1271/3/5 1270/3/5 1269/3/5
f 1272/3/5 1270/3/5 1271/3/5
f 1273/2/5 1272/2/5 1271/2/5
f 1274/2/5 1272/2/5 1273/2/5
f 1277/2/5 1276/2/5 1275/2/5
f 1278/2/5 1276/2/5 1277/2/5
f 1279/3/5 1278/3/5 1277/3/5
f 1280/3/5 1278/3/5 1279/3/5
f 1287/2/5 1282/2/5 1281/2/5
f 1288/2/5 1282/2/5 1287/2/5
f 1289/2/5 1284/2/5 1283/2/5
f 1290/2/5 1284/2/5 1289/2/5
f 1291/5/5 1286/5/5 1285/5/5
f 1292/5/5 1286/5/5 1291/5/5
f 1295/1/5 1294/1/5 1293/1/5
f 1296/1/5 1294/1/5 1295/1/5
f 1301/2/5 1300/2/5 1299/2/5
f 1302/2/5 1300/2/5 1301/2/5
f 1303/5/5 1298/5/5 1297/5/5
f 1304/5/5 1298/5/5 1303/5/5
f 1307/2/5 1306/2/5 1305/2/5
f 1308/2/5 1306/2/5 1307/2/5
f 1311/5/5 1310/5/5 1309/5/5
f 1312/5/5 1310/5/5 1311/5/5
f 1319/2/5 1314/2/5 1313/2/5
f 1320/2/5 1314/2/5 1319/2/5
f 1321/2/5 1316/2/5 1315/2/5
f 1322/2/5 1316/2/5 1321/2/5
f 1323/1/5 1318/1/5 1317/1/5
f 1324/1/5 1318/1/5 1323/1/5
f 1327/1/5 1326/1/5 1325/1/5
f 1328/1/5 1326/1/5 1327/1/5
f 1331/2/5 1330/2/5 1329/2/5
f 1332/2/5 1330/2/5 1331/2/5
f 1335/2/5 1334/2/5 1333/2/5
f 1336/2/5 1334/2/5 1335/2/5
f 1341/1/5 1338/1/5 1337/1/5
f 1342/1/5 1338/1/5 1341/1/5
f 1343/1/5 1340/1/5 1339/1/5
f 1344/1/5 1340/1/5 1343/1/5
f 1351/2/5 1346/2/5 1345/2/5
f 1352/2/5 1346/2/5 1351/2/5
f 1353/5/5 1348/5/5 1347/5/5
f 1354/5/5 1348/5/5 1353/5/5
f 1355/5/5 1350/5/5 1349/5/5
f 1356/5/5 1350/5/5 1355/5/5
f 1359/5/5 1358/5/5 1357/5/5
f 1360/5/5 1358/5/5 1359/5/5
f 1365/2/5 1362/2/5 1361/2/5
f 1366/2/5 1362/2/5 1365/2/5
f 1367/5/5 1364/5/5 1363/5/5
f 1368/5/5 1364/5/5 1367/5/5
f 1373/5/5 1370/5/5 1369/5/5
f 1374/5/5 1370/5/5 1373/5/5
f 1375/5/5 1372/5/5 1371/5/5
f 1376/5/5 1372/5/5 1375/5/5
f 1381/5/5 1378/5/5 1377/5/5
f 1382/5/5 1378/5/5 1381/5/5
f 1383/5/5 1380/5/5 1379/5/5
f 1384/5/5 1380/5/5 1383/5/5
f 1387/5/5 1386/5/5 1385/5/5
f 1388/5/5 1386/5/5 1387/5/5
f 1391/5/5 1390/5/5 1389/5/5
f 1392/5/5 1390/5/5 1391/5/5
f 1397/5/5 1394/5/5 1393/5/5
f 1398/5/5 1394/5/5 1397/5/5
f 1399/5/5 1396/5/5 1395/5/5
f 1400/5/5 1396/5/5 1399/5/5
f 1405/2/5 1402/2/5 1401/2/5
f 1406/2/5 1402/2/5 1405/2/5
f 1407/2/5 1404/2/5 1403/2/5
f 1408/2/5 1404/2/5 1407/2/5
f 1411/2/5 1410/2/5 1409/2/5
f 1412/2/5 1410/2/5 1411/2/5
f 1415/2/5 1414/2/5 1413/2/5
f 1416/2/5 1414/2/5 1415/2/5
f 1421/2/5 1418/2/5 1417/2/5
f 1422/2/5 1418/2/5 1421/2/5
f 1423/2/5 1420/2/5 1419/2/5
f 1424/2/5 1420/2/5 1423/2/5
f 1427/2/5 1426/2/5 1425/2/5
f 1428/2/5 1426/2/5 1427/2/5
f 1431/2/5 1430/2/5 1429/2/5
f 1432/2/5 1430/2/5 1431/2/5
f 1437/3/5 1434/3/5 1433/3/5
f 1438/3/5 1434/3/5 1437/3/5
f 1439/3/5 1436/3/5 1435/3/5
f 1440/3/5 1436/3/5 1439/3/5
f 1443/3/5 1442/3/5 1441/3/5
f 1444/3/5 1442/3/5 1443/3/5
f 1447/3/5 1446/3/5 1445/3/5
f 1448/3/5 1446/3/5 1447/3/5
f 1451/1/5 1450/1/5 1449/1/5
f 1452/1/5 1450/1/5 1451/1/5
f 1455/1/5 1454/1/5 1453/1/5
f 1456/1/5 1454/1/5 1455/1/5
f 1459/1/5 1458/1/5 1457/1/5
f 1460/1/5 1458/1/5 1459/1/5
f 1463/1/5 1462/1/5 1461/1/5
f 1464/1/5 1462/1/5 1463/1/5
f 1473/3/5 1468/3/5 1467/3/5
f 1473/2/5 1469/2/5 1468/2/5
f 1474/2/5 1469/2/5 1473/2/5
f 1477/2/5 1471/2/5 1470/2/5
f 1478/3/5 1472/3/5 1471/3/5
f 1478/2/5 1471/2/5 1477/2/5
f 1479/1/5 1466/1/5 1465/1/5
f 1480/1/5 1466/1/5 1479/1/5
f 1481/2/5 1475/2/5 1474/2/5
f 1481/3/5 1474/3/5 1473/3/5
f 1482/2/5 1475/2/5 1481/2/5
f 1485/2/5 1477/2/5 1476/2/5
f 1486/3/5 1478/3/5 1477/3/5
f 1486/2/5 1477/2/5 1485/2/5
f 1487/3/5 1473/3/5 1467/3/5
f 1487/3/5 1481/3/5 1473/3/5
f 1487/3/5 1482/3/5 1481/3/5
f 1488/3/5 1482/3/5 1487/3/5
f 1489/2/5 1483/2/5 1482/2/5
f 1489/3/5 1482/3/5 1488/3/5
f 1490/2/5 1483/2/5 1489/2/5
f 1491/2/5 1485/2/5 1484/2/5
f 1492/3/5 1486/3/5 1485/3/5
f 1492/2/5 1485/2/5 1491/2/5
f 1493/3/5 1472/3/5 1478/3/5
f 1493/3/5 1486/3/5 1492/3/5
f 1493/3/5 1478/3/5 1486/3/5
f 1494/3/5 1472/3/5 1493/3/5
f 1495/3/5 1490/3/5 1489/3/5
f 1495/3/5 1489/3/5 1488/3/5
f 1496/3/5 1490/3/5 1495/3/5
f 1497/2/5 1491/2/5 1490/2/5
f 1497/3/5 1490/3/5 1496/3/5
f 1498/3/5 1492/3/5 1491/3/5
f 1498/2/5 1491/2/5 1497/2/5
f 1498/3/5 1493/3/5 1492/3/5
f 1499/3/5 1493/3/5 1498/3/5
f 1500/3/5 1493/3/5 1499/3/5
f 1502/2/5 1496/2/5 1495/2/5
f 1503/3/5 1497/3/5 1496/3/5
f 1503/3/5 1498/3/5 1497/3/5
f 1503/2/5 1496/2/5 1502/2/5
f 1503/3/5 1499/3/5 1498/3/5
f 1504/2/5 1500/2/5 1499/2/5
f 1504/3/5 1499/3/5 1503/3/5
f 1505/2/5 1500/2/5 1504/2/5
f 1510/2/5 1502/2/5 1501/2/5
f 1511/3/5 1504/3/5 1503/3/5
f 1511/3/5 1505/3/5 1504/3/5
f 1511/2/5 1502/2/5 1510/2/5
f 1511/3/5 1503/3/5 1502/3/5
f 1512/3/5 1505/3/5 1511/3/5
f 1513/3/5 1505/3/5 1512/3/5
f 1514/2/5 1506/2/5 1505/2/5
f 1514/3/5 1505/3/5 1513/3/5
f 1515/2/5 1506/2/5 1514/2/5
f 1518/2/5 1510/2/5 1509/2/5
f 1519/3/5 1511/3/5 1510/3/5
f 1519/3/5 1512/3/5 1511/3/5
f 1519/2/5 1510/2/5 1518/2/5
f 1520/3/5 1512/3/5 1519/3/5
f 1521/4/5 1513/4/5 1512/4/5
f 1521/3/5 1512/3/5 1520/3/5
f 1522/3/5 1514/3/5 1513/3/5
f 1522/4/5 1513/4/5 1521/4/5
f 1522/3/5 1515/3/5 1514/3/5
f 1523/2/5 1516/2/5 1515/2/5
f 1523/3/5 1515/3/5 1522/3/5
f 1524/2/5 1516/2/5 1523/2/5
f 1526/3/5 1520/3/5 1519/3/5
f 1526/3/5 1518/3/5 1517/3/5
f 1526/3/5 1519/3/5 1518/3/5
f 1527/3/5 1520/3/5 1526/3/5
f 1528/3/5 1525/3/5 1524/3/5
f 1528/3/5 1522/3/5 1521/3/5
f 1528/3/5 1524/3/5 1523/3/5
f 1528/3/5 1523/3/5 1522/3/5
f 1529/3/5 1525/3/5 1528/3/5
f 1530/1/5 1508/1/5 1507/1/5
f 1531/1/5 1508/1/5 1530/1/5
f 1532/3/5 1520/3/5 1527/3/5
f 1532/4/5 1521/4/5 1520/4/5
f 1533/3/5 1528/3/5 1521/3/5
f 1533/4/5 1521/4/5 1532/4/5
f 1534/3/5 1532/3/5 1527/3/5
f 1534/3/5 1533/3/5 1532/3/5
f 1535/3/5 1533/3/5 1534/3/5
f 1536/3/5 1528/3/5 1533/3/5
f 1536/3/5 1533/3/5 1535/3/5
f 1537/3/5 1528/3/5 1536/3/5
f 1538/3/5 1536/3/5 1535/3/5
f 1539/3/5 1536/3/5 1538/3/5
f 1540/3/5 1536/3/5 1539/3/5
f 1541/3/5 1536/3/5 1540/3/5
f 1542/3/5 1540/3/5 1539/3/5
f 1543/3/5 1540/3/5 1542/3/5
f 1544/1/6 1545/1/6 1546/1/6
f 1546/1/6 1545/1/6 1547/1/6
f 1548/3/6 1549/3/6 1552/3/6
f 1552/3/6 1549/3/6 1553/3/6
f 1550/3/6 1551/3/6 1554/3/6
f 1554/3/6 1551/3/6 1555/3/6
f 1556/1/6 1557/1/6 1558/1/6
f 1558/1/6 1557/1/6 1559/1/6
f 1560/3/6 1561/3/6 1562/3/6
f 1562/3/6 1561/3/6 1563/3/6
f 1564/3/6 1565/3/6 1566/3/6
f 1566/3/6 1565/3/6 1567/3/6
f 1568/1/6 1569/1/6 1570/1/6
f 1570/1/6 1569/1/6 1571/1/6
f 1572/1/6 1573/1/6 1574/1/6
f 1574/1/6 1573/1/6 1575/1/6
f 1576/1/6 1577/1/6 1578/1/6
f 1578/1/6 1577/1/6 1579/1/6
f 1580/1/6 1581/1/6 1582/1/6
f 1582/1/6 1581/1/6 1583/1/6
f 1584/3/6 1585/3/6 1588/3/6
f 1588/3/6 1585/3/6 1589/3/6
f 1586/3/6 1587/3/6 1590/3/6
f 1590/3/6 1587/3/6 1591/3/6
f 1592/3/6 1593/3/6 1594/3/6
f 1594/3/6 1593/3/6 1595/3/6
f 1596/3/6 1597/3/6 1598/3/6
f 1598/3/6 1597/3/6 1599/3/6
f 1600/3/6 1601/3/6 1608/3/6
f 1608/3/6 1601/3/6 1609/3/6
f 1602/3/6 1603/3/6 1610/3/6
f 1610/3/6 1603/3/6 1611/3/6
f 1604/6/6 1605/6/6 1612/6/6
f 1612/6/6 1605/6/6 1613/6/6
f 1606/6/6 1607/6/6 1614/6/6
f 1614/6/6 1607/6/6 1615/6/6
f 1616/6/6 1617/6/6 1618/6/6
f 1618/6/6 1617/6/6 1619/6/6
f 1620/3/6 1621/3/6 1622/3/6
f 1622/3/6 1621/3/6 1623/3/6
f 1624/3/6 1625/3/6 1628/3/6
f 1628/3/6 1625/3/6 1629/3/6
f 1626/6/6 1627/6/6 1630/6/6
f 1630/6/6 1627/6/6 1631/6/6
f 1632/6/6 1633/6/6 1636/6/6
f 1636/6/6 1633/6/6 1637/6/6
f 1634/6/6 1635/6/6 1638/6/6
f 1638/6/6 1635/6/6 1639/6/6
f 1640/5/6 1641/5/6 1646/5/6
f 1641/6/6 1642/6/6 1647/6/6
f 1646/5/6 1641/5/6 1647/5/6
f 1647/6/6 1642/6/6 1648/6/6
f 1643/6/6 1644/6/6 1649/6/6
f 1644/5/6 1645/5/6 1650/5/6
f 1649/6/6 1644/6/6 1650/6/6
f 1650/5/6 1645/5/6 1651/5/6
f 1652/5/6 1653/5/6 1654/5/6
f 1654/5/6 1653/5/6 1655/5/6
f 1654/6/6 1655/6/6 1656/6/6
f 1656/6/6 1655/6/6 1657/6/6
f 1658/6/6 1659/6/6 1660/6/6
f 1660/6/6 1659/6/6 1661/6/6
f 1660/5/6 1661/5/6 1662/5/6
f 1662/5/6 1661/5/6 1663/5/6
f 1664/5/6 1665/5/6 1670/5/6
f 1665/6/6 1666/6/6 1671/6/6
f 1670/5/6 1665/5/6 1671/5/6
f 1671/6/6 1666/6/6 1672/6/6
f 1667/6/6 1668/6/6 1673/6/6
f 1668/5/6 1669/5/6 1674/5/6
f 1673/6/6 1668/6/6 1674/6/6
f 1674/5/6 1669/5/6 1675/5/6
f 1676/3/6 1677/3/6 1686/3/6
f 1686/3/6 1677/3/6 1687/3/6
f 1678/3/6 1679/3/6 1688/3/6
f 1688/3/6 1679/3/6 1689/3/6
f 1680/5/6 1681/5/6 1690/5/6
f 1681/6/6 1682/6/6 1691/6/6
f 1690/5/6 1681/5/6 1691/5/6
f 1682/5/6 1683/5/6 1692/5/6
f 1691/6/6 1682/6/6 1692/6/6
f 1683/6/6 1684/6/6 1693/6/6
f 1692/5/6 1683/5/6 1693/5/6
f 1684/5/6 1685/5/6 1694/5/6
f 1693/6/6 1684/6/6 1694/6/6
f 1694/5/6 1685/5/6 1695/5/6
f 1696/5/6 1697/5/6 1698/5/6
f 1698/5/6 1697/5/6 1699/5/6
f 1698/6/6 1699/6/6 1700/6/6
f 1700/6/6 1699/6/6 1701/6/6
f 1700/5/6 1701/5/6 1702/5/6
f 1702/5/6 1701/5/6 1703/5/6
f 1702/6/6 1703/6/6 1706/6/6
f 1706/6/6 1703/6/6 1707/6/6
f 1704/3/6 1705/3/6 1708/3/6
f 1708/3/6 1705/3/6 1709/3/6
f 1706/5/6 1707/5/6 1710/5/6
f 1710/5/6 1707/5/6 1711/5/6
f 1712/3/6 1713/3/6 1714/3/6
f 1714/3/6 1713/3/6 1715/3/6
f 1716/5/6 1717/5/6 1722/5/6
f 1717/6/6 1718/6/6 1723/6/6
f 1722/5/6 1717/5/6 1723/5/6
f 1718/5/6 1719/5/6 1724/5/6
f 1723/6/6 1718/6/6 1724/6/6
f 1719/6/6 1720/6/6 1725/6/6
f 1724/5/6 1719/5/6 1725/5/6
f 1720/5/6 1721/5/6 1726/5/6
f 1725/6/6 1720/6/6 1726/6/6
f 1726/5/6 1721/5/6 1727/5/6
f 1728/3/6 1729/3/6 1730/3/6
f 1730/3/6 1729/3/6 1731/3/6
f 1732/3/6 1733/3/6 1734/3/6
f 1734/3/6 1733/3/6 1735/3/6
f 1736/1/6 1737/1/6 1738/1/6
f 1738/1/6 1737/1/6 1739/1/6
f 1740/1/6 1741/1/6 1742/1/6
f 1742/1/6 1741/1/6 1743/1/6
f 1744/1/6 1745/1/6 1746/1/6
f 1746/1/6 1745/1/6 1747/1/6
f 1748/1/6 1749/1/6 1750/1/6
f 1750/1/6 1749/1/6 1751/1/6
f 1754/3/6 1755/3/6 1760/3/6
f 1755/2/6 1756/2/6 1760/2/6
f 1760/2/6 1756/2/6 1761/2/6
f 1757/2/6 1758/2/6 1764/2/6
f 1758/3/6 1759/3/6 1765/3/6
f 1764/2/6 1758/2/6 1765/2/6
f 1752/1/6 1753/1/6 1766/1/6
f 1766/1/6 1753/1/6 1767/1/6
f 1761/2/6 1762/2/6 1768/2/6
f 1760/3/6 1761/3/6 1768/3/6
f 1768/2/6 1762/2/6 1769/2/6
f 1763/2/6 1764/2/6 1772/2/6
f 1764/3/6 1765/3/6 1773/3/6
f 1772/2/6 1764/2/6 1773/2/6
f 1754/3/6 1760/3/6 1774/3/6
f 1760/3/6 1768/3/6 1774/3/6
f 1768/3/6 1769/3/6 1774/3/6
f 1774/3/6 1769/3/6 1775/3/6
f 1769/2/6 1770/2/6 1776/2/6
f 1775/3/6 1769/3/6 1776/3/6
f 1776/2/6 1770/2/6 1777/2/6
f 1771/2/6 1772/2/6 1778/2/6
f 1772/3/6 1773/3/6 1779/3/6
f 1778/2/6 1772/2/6 1779/2/6
f 1765/3/6 1759/3/6 1780/3/6
f 1779/3/6 1773/3/6 1780/3/6
f 1773/3/6 1765/3/6 1780/3/6
f 1780/3/6 1759/3/6 1781/3/6
f 1776/3/6 1777/3/6 1782/3/6
f 1775/3/6 1776/3/6 1782/3/6
f 1782/3/6 1777/3/6 1783/3/6
f 1777/2/6 1778/2/6 1784/2/6
f 1783/3/6 1777/3/6 1784/3/6
f 1778/3/6 1779/3/6 1785/3/6
f 1784/2/6 1778/2/6 1785/2/6
f 1779/3/6 1780/3/6 1785/3/6
f 1785/3/6 1780/3/6 1786/3/6
f 1786/3/6 1780/3/6 1787/3/6
f 1782/2/6 1783/2/6 1789/2/6
f 1783/3/6 1784/3/6 1790/3/6
f 1784/3/6 1785/3/6 1790/3/6
f 1789/2/6 1783/2/6 1790/2/6
f 1785/3/6 1786/3/6 1790/3/6
f 1786/2/6 1787/2/6 1791/2/6
f 1790/3/6 1786/3/6 1791/3/6
f 1791/2/6 1787/2/6 1792/2/6
f 1788/2/6 1789/2/6 1797/2/6
f 1790/3/6 1791/3/6 1798/3/6
f 1791/3/6 1792/3/6 1798/3/6
f 1797/2/6 1789/2/6 1798/2/6
f 1789/3/6 1790/3/6 1798/3/6
f 1798/3/6 1792/3/6 1799/3/6
f 1799/3/6 1792/3/6 1800/3/6
f 1792/2/6 1793/2/6 1801/2/6
f 1800/3/6 1792/3/6 1801/3/6
f 1801/2/6 1793/2/6 1802/2/6
f 1796/2/6 1797/2/6 1805/2/6
f 1797/3/6 1798/3/6 1806/3/6
f 1798/3/6 1799/3/6 1806/3/6
f 1805/2/6 1797/2/6 1806/2/6
f 1806/3/6 1799/3/6 1807/3/6
f 1799/4/6 1800/4/6 1808/4/6
f 1807/3/6 1799/3/6 1808/3/6
f 1800/3/6 1801/3/6 1809/3/6
f 1808/4/6 1800/4/6 1809/4/6
f 1801/3/6 1802/3/6 1809/3/6
f 1802/2/6 1803/2/6 1810/2/6
f 1809/3/6 1802/3/6 1810/3/6
f 1810/2/6 1803/2/6 1811/2/6
f 1806/3/6 1807/3/6 1813/3/6
f 1804/3/6 1805/3/6 1813/3/6
f 1805/3/6 1806/3/6 1813/3/6
f 1813/3/6 1807/3/6 1814/3/6
f 1811/3/6 1812/3/6 1815/3/6
f 1808/3/6 1809/3/6 1815/3/6
f 1810/3/6 1811/3/6 1815/3/6
f 1809/3/6 1810/3/6 1815/3/6
f 1815/3/6 1812/3/6 1816/3/6
f 1794/1/6 1795/1/6 1817/1/6
f 1817/1/6 1795/1/6 1818/1/6
f 1814/3/6 1807/3/6 1819/3/6
f 1807/4/6 1808/4/6 1819/4/6
f 1808/3/6 1815/3/6 1820/3/6
f 1819/4/6 1808/4/6 1820/4/6
f 1814/3/6 1819/3/6 1821/3/6
f 1819/3/6 1820/3/6 1821/3/6
f 1821/3/6 1820/3/6 1822/3/6
f 1820/3/6 1815/3/6 1823/3/6
f 1822/3/6 1820/3/6 1823/3/6
f 1823/3/6 1815/3/6 1824/3/6
f 1822/3/6 1823/3/6 1825/3/6
f 1825/3/6 1823/3/6 1826/3/6
f 1826/3/6 1823/3/6 1827/3/6
f 1827/3/6 1823/3/6 1828/3/6
f 1826/3/6 1827/3/6 1829/3/6
f 1829/3/6 1827/3/6 1830/3/6
