# MagicaVoxel @ Ephtracy

# group
o 

# material
mtllib model-1.mtl
usemtl palette

# normals
vn 0 0 1
vn 0 0 -1
vn 1 0 0
vn -1 0 0
vn 0 -1 0
vn 0 1 0

# texcoords
vt 0.00195313 0.5
vt 0.0253906 0.5
vt 0.0292969 0.5
vt 0.822266 0.5

# verts
v 1 5.4 1
v 0.8 5.4 1
v 1 5.6 1
v 0.8 5.6 1
v 0.9 4.6 0.7
v 0.8 4.6 0.7
v 0.9 5.2 0.7
v 0.8 5.2 0.7
v 1 5.3 0.6
v 0.8 5.3 0.6
v 1 5.4 0.6
v 0.8 5.4 0.6
v 0.9 4.1 0.4
v 0.8 4.1 0.4
v 0.9 4.2 0.4
v 0.8 4.2 0.4
v 0.9 4.3 0.4
v 0.8 4.3 0.4
v 0.9 4 0.3
v 0.8 4 0.3
v 0.9 4.1 0.3
v 0.8 4.1 0.3
v 1 5.4 -0.3
v 0.8 5.4 -0.3
v 1 5.6 -0.3
v 0.8 5.6 -0.3
v 0.9 4.6 -0.4
v 0.8 4.6 -0.4
v 0.9 5.2 -0.4
v 0.8 5.2 -0.4
v 0.9 4.6 0.4
v 0.8 4.6 0.4
v 0.9 5.2 0.4
v 0.8 5.2 0.4
v 1 5.5 0.4
v 0.8 5.5 0.4
v 1 5.6 0.4
v 0.8 5.6 0.4
v 1 5.3 0.3
v 0.8 5.3 0.3
v 1 5.5 0.3
v 0.8 5.5 0.3
v 0.9 4 -0.3
v 0.8 4 -0.3
v 0.9 4.1 -0.3
v 0.8 4.1 -0.3
v 0.9 4.1 -0.4
v 0.8 4.1 -0.4
v 0.9 4.2 -0.4
v 0.8 4.2 -0.4
v 0.9 4.3 -0.4
v 0.8 4.3 -0.4
v 0.9 4.6 -0.7
v 0.8 4.6 -0.7
v 0.9 5.2 -0.7
v 0.8 5.2 -0.7
v 1 5.4 -1
v 0.8 5.4 -1
v 1 5.6 -1
v 0.8 5.6 -1
v 1 5.4 1
v 1 5.6 1
v 1 5.3 0.6
v 1 5.4 0.6
v 1 5.5 0.4
v 1 5.6 0.4
v 1 5.3 0.3
v 1 5.5 0.3
v 1 5.4 -0.3
v 1 5.6 -0.3
v 1 5.4 -1
v 1 5.6 -1
v 0.9 4.6 0.7
v 0.9 5.2 0.7
v 0.9 5 0.6
v 0.9 5.1 0.6
v 0.9 5 0.5
v 0.9 5.1 0.5
v 0.9 4.1 0.4
v 0.9 4.2 0.4
v 0.9 4.3 0.4
v 0.9 4.6 0.4
v 0.9 5.2 0.4
v 0.9 4 0.3
v 0.9 4.1 0.3
v 0.9 4 -0.3
v 0.9 4.1 -0.3
v 0.9 4.1 -0.4
v 0.9 4.2 -0.4
v 0.9 4.3 -0.4
v 0.9 4.6 -0.4
v 0.9 5.2 -0.4
v 0.9 5 -0.5
v 0.9 5.1 -0.5
v 0.9 5 -0.6
v 0.9 5.1 -0.6
v 0.9 4.6 -0.7
v 0.9 5.2 -0.7
v 0.8 5.4 1
v 0.8 5.6 1
v 0.8 4.6 0.7
v 0.8 5.2 0.7
v 0.8 5 0.6
v 0.8 5.1 0.6
v 0.8 5.3 0.6
v 0.8 5.4 0.6
v 0.8 5 0.5
v 0.8 5.1 0.5
v 0.8 4.1 0.4
v 0.8 4.2 0.4
v 0.8 4.3 0.4
v 0.8 4.6 0.4
v 0.8 5.2 0.4
v 0.8 5.5 0.4
v 0.8 5.6 0.4
v 0.8 4 0.3
v 0.8 4.1 0.3
v 0.8 5.3 0.3
v 0.8 5.5 0.3
v 0.8 4 -0.3
v 0.8 4.1 -0.3
v 0.8 5.4 -0.3
v 0.8 5.6 -0.3
v 0.8 4.1 -0.4
v 0.8 4.2 -0.4
v 0.8 4.3 -0.4
v 0.8 4.6 -0.4
v 0.8 5.2 -0.4
v 0.8 5 -0.5
v 0.8 5.1 -0.5
v 0.8 5 -0.6
v 0.8 5.1 -0.6
v 0.8 4.6 -0.7
v 0.8 5.2 -0.7
v 0.8 5.4 -1
v 0.8 5.6 -1
v 0.9 4 0.3
v 0.9 4 -0.3
v 0.8 4 0.3
v 0.8 4 -0.3
v 0.9 4.1 0.4
v 0.9 4.1 0.3
v 0.9 4.1 -0.3
v 0.9 4.1 -0.4
v 0.8 4.1 0.4
v 0.8 4.1 0.3
v 0.8 4.1 -0.3
v 0.8 4.1 -0.4
v 0.9 4.6 0.7
v 0.9 4.6 0.4
v 0.9 4.6 -0.4
v 0.9 4.6 -0.7
v 0.8 4.6 0.7
v 0.8 4.6 0.4
v 0.8 4.6 -0.4
v 0.8 4.6 -0.7
v 1 5.3 0.6
v 1 5.3 0.3
v 0.8 5.3 0.6
v 0.8 5.3 0.3
v 1 5.4 1
v 1 5.4 0.6
v 1 5.4 -0.3
v 1 5.4 -1
v 0.8 5.4 1
v 0.8 5.4 0.6
v 0.8 5.4 -0.3
v 0.8 5.4 -1
v 0.9 4.3 0.4
v 0.9 4.3 -0.4
v 0.8 4.3 0.4
v 0.8 4.3 -0.4
v 0.9 5.2 0.7
v 0.9 5.2 0.4
v 0.9 5.2 -0.4
v 0.9 5.2 -0.7
v 0.8 5.2 0.7
v 0.8 5.2 0.4
v 0.8 5.2 -0.4
v 0.8 5.2 -0.7
v 1 5.5 0.4
v 1 5.5 0.3
v 0.8 5.5 0.4
v 0.8 5.5 0.3
v 1 5.6 1
v 1 5.6 0.4
v 1 5.6 -0.3
v 1 5.6 -1
v 0.8 5.6 1
v 0.8 5.6 0.4
v 0.8 5.6 -0.3
v 0.8 5.6 -1

# faces
f 3/4/1 2/4/1 1/4/1
f 4/4/1 2/4/1 3/4/1
f 7/1/1 6/1/1 5/1/1
f 8/1/1 6/1/1 7/1/1
f 11/4/1 10/4/1 9/4/1
f 12/4/1 10/4/1 11/4/1
f 15/2/1 14/2/1 13/2/1
f 16/2/1 14/2/1 15/2/1
f 17/3/1 16/3/1 15/3/1
f 18/3/1 16/3/1 17/3/1
f 21/3/1 20/3/1 19/3/1
f 22/3/1 20/3/1 21/3/1
f 25/4/1 24/4/1 23/4/1
f 26/4/1 24/4/1 25/4/1
f 29/1/1 28/1/1 27/1/1
f 30/1/1 28/1/1 29/1/1
f 31/1/2 32/1/2 33/1/2
f 33/1/2 32/1/2 34/1/2
f 35/4/2 36/4/2 37/4/2
f 37/4/2 36/4/2 38/4/2
f 39/4/2 40/4/2 41/4/2
f 41/4/2 40/4/2 42/4/2
f 43/3/2 44/3/2 45/3/2
f 45/3/2 44/3/2 46/3/2
f 47/2/2 48/2/2 49/2/2
f 49/2/2 48/2/2 50/2/2
f 49/3/2 50/3/2 51/3/2
f 51/3/2 50/3/2 52/3/2
f 53/1/2 54/1/2 55/1/2
f 55/1/2 54/1/2 56/1/2
f 57/4/2 58/4/2 59/4/2
f 59/4/2 58/4/2 60/4/2
f 64/4/3 62/4/3 61/4/3
f 65/4/3 62/4/3 64/4/3
f 65/4/3 64/4/3 63/4/3
f 66/4/3 62/4/3 65/4/3
f 67/4/3 65/4/3 63/4/3
f 68/4/3 65/4/3 67/4/3
f 71/4/3 70/4/3 69/4/3
f 72/4/3 70/4/3 71/4/3
f 75/1/3 74/1/3 73/1/3
f 76/1/3 74/1/3 75/1/3
f 77/1/3 75/1/3 73/1/3
f 77/3/3 76/3/3 75/3/3
f 78/1/3 74/1/3 76/1/3
f 78/3/3 76/3/3 77/3/3
f 82/1/3 77/1/3 73/1/3
f 82/1/3 78/1/3 77/1/3
f 83/1/3 74/1/3 78/1/3
f 83/1/3 78/1/3 82/1/3
f 85/2/3 80/2/3 79/2/3
f 86/3/3 85/3/3 84/3/3
f 87/2/3 80/2/3 85/2/3
f 87/3/3 85/3/3 86/3/3
f 88/2/3 80/2/3 87/2/3
f 89/3/3 81/3/3 80/3/3
f 89/2/3 80/2/3 88/2/3
f 90/3/3 81/3/3 89/3/3
f 93/1/3 92/1/3 91/1/3
f 94/1/3 92/1/3 93/1/3
f 95/1/3 93/1/3 91/1/3
f 95/3/3 94/3/3 93/3/3
f 96/1/3 92/1/3 94/1/3
f 96/3/3 94/3/3 95/3/3
f 97/1/3 95/1/3 91/1/3
f 97/1/3 96/1/3 95/1/3
f 98/1/3 92/1/3 96/1/3
f 98/1/3 96/1/3 97/1/3
f 101/1/4 102/1/4 103/1/4
f 103/1/4 102/1/4 104/1/4
f 99/4/4 100/4/4 106/4/4
f 101/1/4 103/1/4 107/1/4
f 103/3/4 104/3/4 107/3/4
f 104/1/4 102/1/4 108/1/4
f 107/3/4 104/3/4 108/3/4
f 101/1/4 107/1/4 112/1/4
f 107/1/4 108/1/4 112/1/4
f 108/1/4 102/1/4 113/1/4
f 112/1/4 108/1/4 113/1/4
f 105/4/4 106/4/4 114/4/4
f 106/4/4 100/4/4 114/4/4
f 114/4/4 100/4/4 115/4/4
f 109/2/4 110/2/4 117/2/4
f 105/4/4 114/4/4 118/4/4
f 118/4/4 114/4/4 119/4/4
f 116/3/4 117/3/4 120/3/4
f 117/2/4 110/2/4 121/2/4
f 120/3/4 117/3/4 121/3/4
f 121/2/4 110/2/4 124/2/4
f 110/3/4 111/3/4 125/3/4
f 124/2/4 110/2/4 125/2/4
f 125/3/4 111/3/4 126/3/4
f 127/1/4 128/1/4 129/1/4
f 129/1/4 128/1/4 130/1/4
f 127/1/4 129/1/4 131/1/4
f 129/3/4 130/3/4 131/3/4
f 130/1/4 128/1/4 132/1/4
f 131/3/4 130/3/4 132/3/4
f 127/1/4 131/1/4 133/1/4
f 131/1/4 132/1/4 133/1/4
f 132/1/4 128/1/4 134/1/4
f 133/1/4 132/1/4 134/1/4
f 122/4/4 123/4/4 135/4/4
f 135/4/4 123/4/4 136/4/4
f 139/3/5 138/3/5 137/3/5
f 140/3/5 138/3/5 139/3/5
f 145/2/5 142/2/5 141/2/5
f 146/2/5 142/2/5 145/2/5
f 147/2/5 144/2/5 143/2/5
f 148/2/5 144/2/5 147/2/5
f 153/1/5 150/1/5 149/1/5
f 154/1/5 150/1/5 153/1/5
f 155/1/5 152/1/5 151/1/5
f 156/1/5 152/1/5 155/1/5
f 159/4/5 158/4/5 157/4/5
f 160/4/5 158/4/5 159/4/5
f 165/4/5 162/4/5 161/4/5
f 166/4/5 162/4/5 165/4/5
f 167/4/5 164/4/5 163/4/5
f 168/4/5 164/4/5 167/4/5
f 169/3/6 170/3/6 171/3/6
f 171/3/6 170/3/6 172/3/6
f 173/1/6 174/1/6 177/1/6
f 177/1/6 174/1/6 178/1/6
f 175/1/6 176/1/6 179/1/6
f 179/1/6 176/1/6 180/1/6
f 181/4/6 182/4/6 183/4/6
f 183/4/6 182/4/6 184/4/6
f 185/4/6 186/4/6 189/4/6
f 189/4/6 186/4/6 190/4/6
f 187/4/6 188/4/6 191/4/6
f 191/4/6 188/4/6 192/4/6
