# MagicaVoxel @ Ephtracy

# group
o 

# material
mtllib model-3.mtl
usemtl palette

# normals
vn 0 0 1
vn 0 0 -1
vn 1 0 0
vn -1 0 0
vn 0 -1 0
vn 0 1 0

# texcoords
vt 0.0488281 0.5
vt 0.0839844 0.5
vt 0.251953 0.5
vt 0.255859 0.5
vt 0.259766 0.5
vt 0.513672 0.5
vt 0.517578 0.5
vt 0.525391 0.5
vt 0.826172 0.5

# verts
v 0.5 3.1 1.6
v -0.5 3.1 1.6
v 0.5 3.6 1.6
v -0.5 3.6 1.6
v 0.6 3.3 1.5
v 0.5 3.3 1.5
v -0.5 3.3 1.5
v -0.6 3.3 1.5
v 0.6 3.5 1.5
v 0.5 3.5 1.5
v -0.5 3.5 1.5
v -0.6 3.5 1.5
v 0.3 3.6 1.5
v 0.1 3.6 1.5
v -0.1 3.6 1.5
v -0.3 3.6 1.5
v 0.3 3.7 1.5
v 0.1 3.7 1.5
v -0.1 3.7 1.5
v -0.3 3.7 1.5
v 0.5 2.1 1
v -0.5 2.1 1
v 0.2 2.4 1
v 0 2.4 1
v 0.2 2.6 1
v 0 2.6 1
v 0.5 3.1 1
v -0.5 3.1 1
v 0.8 3.6 0.8
v 0.5 3.6 0.8
v -0.5 3.6 0.8
v -0.7 3.6 0.8
v 0.8 3.7 0.8
v -0.7 3.7 0.8
v 0.8 2.8 0.6
v 0.7 2.8 0.6
v 0.5 2.8 0.6
v 0.8 3.6 0.6
v 0.7 3.6 0.6
v 0.5 3.6 0.6
v 0.6 2.1 0.5
v 0.5 2.1 0.5
v 0.6 2.8 0.5
v 0.5 2.8 0.5
v 0.5 2.1 0.2
v 0.4 2.1 0.2
v 0.5 2.2 0.2
v 0.4 2.2 0.2
v 0.4 2.4 0.2
v 0.5 2.5 0.2
v 0.4 2.5 0.2
v 0.5 2.7 0.2
v 0.4 2.7 0.2
v 0.5 2.8 0.2
v 0.4 2.8 0.2
v 0.4 3 0.2
v 0.5 3.1 0.2
v 0.4 3.1 0.2
v 0.5 2.2 -0.1
v 0.4 2.2 -0.1
v 0.5 2.3 -0.1
v 0.4 2.3 -0.1
v 0.5 2.4 -0.1
v 0.4 2.4 -0.1
v 0.5 2.8 -0.1
v 0.4 2.8 -0.1
v 0.5 2.9 -0.1
v 0.4 2.9 -0.1
v 0.5 3 -0.1
v 0.4 3 -0.1
v 0.6 2.1 -0.4
v 0.5 2.1 -0.4
v 0.4 2.1 -0.4
v 0.4 2.2 -0.4
v 0.4 2.4 -0.4
v 0.8 2.8 -0.4
v 0.6 2.8 -0.4
v 0.4 2.8 -0.4
v 0.8 2.9 -0.4
v 0.5 2.9 -0.4
v 0.4 2.9 -0.4
v 0.8 2.9 -0.5
v 0.7 2.9 -0.5
v 0.5 2.9 -0.5
v 0.4 2.9 -0.5
v 0.4 3 -0.5
v 0.7 3.6 -0.5
v 0.4 3.6 -0.5
v 0.8 3.7 -0.5
v 0.4 3.7 -0.5
v 0.6 3.3 -1.4
v 0.5 3.3 -1.4
v -0.5 3.3 -1.4
v -0.6 3.3 -1.4
v 0.6 3.5 -1.4
v 0.5 3.5 -1.4
v -0.5 3.5 -1.4
v -0.6 3.5 -1.4
v 0.3 3.6 -1.4
v 0.1 3.6 -1.4
v -0.1 3.6 -1.4
v -0.3 3.6 -1.4
v 0.3 3.7 -1.4
v 0.1 3.7 -1.4
v -0.1 3.7 -1.4
v -0.3 3.7 -1.4
v 0.6 3.3 1.4
v 0.5 3.3 1.4
v -0.5 3.3 1.4
v -0.6 3.3 1.4
v 0.6 3.5 1.4
v 0.5 3.5 1.4
v -0.5 3.5 1.4
v -0.6 3.5 1.4
v 0.3 3.6 1.4
v 0.1 3.6 1.4
v -0.1 3.6 1.4
v -0.3 3.6 1.4
v 0.3 3.7 1.4
v 0.1 3.7 1.4
v -0.1 3.7 1.4
v -0.3 3.7 1.4
v 0.8 2.9 0.5
v 0.7 2.9 0.5
v 0.5 2.9 0.5
v 0.4 2.9 0.5
v 0.4 3 0.5
v 0.7 3.6 0.5
v 0.4 3.6 0.5
v 0.8 3.7 0.5
v 0.4 3.7 0.5
v 0.6 2.1 0.4
v 0.5 2.1 0.4
v 0.4 2.1 0.4
v 0.4 2.2 0.4
v 0.4 2.4 0.4
v 0.8 2.8 0.4
v 0.6 2.8 0.4
v 0.4 2.8 0.4
v 0.8 2.9 0.4
v 0.5 2.9 0.4
v 0.4 2.9 0.4
v 0.5 2.2 0.1
v 0.4 2.2 0.1
v 0.5 2.4 0.1
v 0.4 2.4 0.1
v 0.5 2.8 0.1
v 0.4 2.8 0.1
v 0.5 3 0.1
v 0.4 3 0.1
v 0.5 2.1 -0.2
v 0.4 2.1 -0.2
v 0.4 2.2 -0.2
v 0.5 2.3 -0.2
v 0.4 2.3 -0.2
v 0.4 2.4 -0.2
v 0.5 2.5 -0.2
v 0.4 2.5 -0.2
v 0.5 2.7 -0.2
v 0.4 2.7 -0.2
v 0.4 2.8 -0.2
v 0.5 2.9 -0.2
v 0.4 2.9 -0.2
v 0.4 3 -0.2
v 0.5 3.1 -0.2
v 0.4 3.1 -0.2
v 0.6 2.1 -0.5
v 0.5 2.1 -0.5
v 0.6 2.8 -0.5
v 0.5 2.8 -0.5
v 0.8 2.8 -0.6
v 0.7 2.8 -0.6
v 0.5 2.8 -0.6
v 0.8 3.6 -0.6
v 0.7 3.6 -0.6
v 0.5 3.6 -0.6
v 0.8 3.6 -0.8
v 0.5 3.6 -0.8
v -0.5 3.6 -0.8
v -0.7 3.6 -0.8
v 0.8 3.7 -0.8
v -0.7 3.7 -0.8
v 0.5 2.1 -1
v -0.5 2.1 -1
v 0 2.3 -1
v -0.3 2.3 -1
v 0 2.6 -1
v -0.3 2.6 -1
v 0.5 3.1 -1
v -0.5 3.1 -1
v 0.6 3.3 -1.5
v 0.5 3.3 -1.5
v -0.5 3.3 -1.5
v -0.6 3.3 -1.5
v 0.6 3.5 -1.5
v 0.5 3.5 -1.5
v -0.5 3.5 -1.5
v -0.6 3.5 -1.5
v 0.3 3.6 -1.5
v 0.1 3.6 -1.5
v -0.1 3.6 -1.5
v -0.3 3.6 -1.5
v 0.3 3.7 -1.5
v 0.1 3.7 -1.5
v -0.1 3.7 -1.5
v -0.3 3.7 -1.5
v 0.5 3.1 -1.6
v -0.5 3.1 -1.6
v 0.5 3.6 -1.6
v -0.5 3.6 -1.6
v 0.8 3.6 0.8
v 0.8 3.7 0.8
v 0.8 2.8 0.6
v 0.8 3.6 0.6
v 0.8 2.9 0.5
v 0.8 3.7 0.5
v 0.8 2.8 0.4
v 0.8 2.9 0.4
v 0.8 2.8 -0.4
v 0.8 2.9 -0.4
v 0.8 2.9 -0.5
v 0.8 3.7 -0.5
v 0.8 2.8 -0.6
v 0.8 3.6 -0.6
v 0.8 3.6 -0.8
v 0.8 3.7 -0.8
v 0.6 3.3 1.5
v 0.6 3.5 1.5
v 0.6 3.3 1.4
v 0.6 3.5 1.4
v 0.6 2.1 0.5
v 0.6 2.8 0.5
v 0.6 2.1 0.4
v 0.6 2.8 0.4
v 0.6 2.1 -0.4
v 0.6 2.8 -0.4
v 0.6 2.1 -0.5
v 0.6 2.8 -0.5
v 0.6 3.3 -1.4
v 0.6 3.5 -1.4
v 0.6 3.3 -1.5
v 0.6 3.5 -1.5
v 0.5 3.1 1.6
v 0.5 3.6 1.6
v 0.5 3.3 1.5
v 0.5 3.5 1.5
v 0.5 3.3 1.4
v 0.5 3.5 1.4
v 0.5 2.1 1
v 0.5 3.1 1
v 0.5 3.6 1
v 0.5 2.3 0.9
v 0.5 2.6 0.9
v 0.5 3 0.9
v 0.5 3.2 0.9
v 0.5 3.6 0.8
v 0.5 3 0.7
v 0.5 3.2 0.7
v 0.5 2.3 0.6
v 0.5 2.6 0.6
v 0.5 2.8 0.6
v 0.5 3.6 0.6
v 0.5 2.1 0.5
v 0.5 2.8 0.5
v 0.5 2.1 0.2
v 0.5 2.2 0.2
v 0.5 2.5 0.2
v 0.5 2.7 0.2
v 0.5 2.8 0.2
v 0.5 3.1 0.2
v 0.5 2.2 0.1
v 0.5 2.4 0.1
v 0.5 2.8 0.1
v 0.5 3 0.1
v 0.5 2.1 0
v 0.5 2.2 0
v 0.5 2.4 0
v 0.5 2.5 0
v 0.5 2.7 0
v 0.5 2.8 0
v 0.5 3 0
v 0.5 3.1 0
v 0.5 2.2 -0.1
v 0.5 2.3 -0.1
v 0.5 2.4 -0.1
v 0.5 2.8 -0.1
v 0.5 2.9 -0.1
v 0.5 3 -0.1
v 0.5 2.1 -0.2
v 0.5 2.3 -0.2
v 0.5 2.5 -0.2
v 0.5 2.7 -0.2
v 0.5 2.9 -0.2
v 0.5 3.1 -0.2
v 0.5 2.1 -0.5
v 0.5 2.8 -0.5
v 0.5 2.5 -0.6
v 0.5 2.7 -0.6
v 0.5 2.8 -0.6
v 0.5 3.6 -0.6
v 0.5 2.5 -0.8
v 0.5 2.7 -0.8
v 0.5 3.6 -0.8
v 0.5 2.1 -1
v 0.5 3.1 -1
v 0.5 3.6 -1
v 0.5 3.3 -1.4
v 0.5 3.5 -1.4
v 0.5 3.3 -1.5
v 0.5 3.5 -1.5
v 0.5 3.1 -1.6
v 0.5 3.6 -1.6
v 0.4 2.9 0.5
v 0.4 3 0.5
v 0.4 3.6 0.5
v 0.4 3.7 0.5
v 0.4 2.1 0.4
v 0.4 2.2 0.4
v 0.4 2.4 0.4
v 0.4 2.8 0.4
v 0.4 2.9 0.4
v 0.4 2.1 0.2
v 0.4 2.2 0.2
v 0.4 2.4 0.2
v 0.4 2.5 0.2
v 0.4 2.7 0.2
v 0.4 2.8 0.2
v 0.4 3 0.2
v 0.4 3.1 0.2
v 0.4 2.2 0.1
v 0.4 2.4 0.1
v 0.4 2.8 0.1
v 0.4 3 0.1
v 0.4 2.2 0
v 0.4 2.4 0
v 0.4 2.5 0
v 0.4 2.7 0
v 0.4 2.8 0
v 0.4 3 0
v 0.4 3.1 0
v 0.4 2.2 -0.1
v 0.4 2.3 -0.1
v 0.4 2.4 -0.1
v 0.4 2.8 -0.1
v 0.4 2.9 -0.1
v 0.4 3 -0.1
v 0.4 2.1 -0.2
v 0.4 2.2 -0.2
v 0.4 2.3 -0.2
v 0.4 2.4 -0.2
v 0.4 2.5 -0.2
v 0.4 2.7 -0.2
v 0.4 2.8 -0.2
v 0.4 2.9 -0.2
v 0.4 3 -0.2
v 0.4 3.1 -0.2
v 0.4 2.1 -0.4
v 0.4 2.2 -0.4
v 0.4 2.4 -0.4
v 0.4 2.8 -0.4
v 0.4 2.9 -0.4
v 0.4 2.9 -0.5
v 0.4 3 -0.5
v 0.4 3.6 -0.5
v 0.4 3.7 -0.5
v 0.3 3.6 1.5
v 0.3 3.7 1.5
v 0.3 3.6 1.4
v 0.3 3.7 1.4
v 0.3 3.6 -1.4
v 0.3 3.7 -1.4
v 0.3 3.6 -1.5
v 0.3 3.7 -1.5
v -0.1 3.6 1.5
v -0.1 3.7 1.5
v -0.1 3.6 1.4
v -0.1 3.7 1.4
v -0.1 3.6 -1.4
v -0.1 3.7 -1.4
v -0.1 3.6 -1.5
v -0.1 3.7 -1.5
v 0.1 3.6 1.5
v 0.1 3.7 1.5
v 0.1 3.6 1.4
v 0.1 3.7 1.4
v 0.1 3.6 -1.4
v 0.1 3.7 -1.4
v 0.1 3.6 -1.5
v 0.1 3.7 -1.5
v -0.3 3.6 1.5
v -0.3 3.7 1.5
v -0.3 3.6 1.4
v -0.3 3.7 1.4
v -0.3 3.6 -1.4
v -0.3 3.7 -1.4
v -0.3 3.6 -1.5
v -0.3 3.7 -1.5
v -0.5 3.1 1.6
v -0.5 3.6 1.6
v -0.5 3.3 1.5
v -0.5 3.5 1.5
v -0.5 3.3 1.4
v -0.5 3.5 1.4
v -0.5 2.1 1
v -0.5 3.1 1
v -0.5 3.6 1
v -0.5 3.6 0.8
v -0.5 2.3 0.7
v -0.5 2.6 0.7
v -0.5 2.3 0.4
v -0.5 2.6 0.4
v -0.5 2.7 0.2
v -0.5 2.9 0.2
v -0.5 2.7 0
v -0.5 2.9 0
v -0.5 3.1 -0.3
v -0.5 3.4 -0.3
v -0.5 2.4 -0.4
v -0.5 2.6 -0.4
v -0.5 2.4 -0.6
v -0.5 2.6 -0.6
v -0.5 3.1 -0.6
v -0.5 3.4 -0.6
v -0.5 3.6 -0.8
v -0.5 2.1 -1
v -0.5 3.1 -1
v -0.5 3.6 -1
v -0.5 3.3 -1.4
v -0.5 3.5 -1.4
v -0.5 3.3 -1.5
v -0.5 3.5 -1.5
v -0.5 3.1 -1.6
v -0.5 3.6 -1.6
v -0.6 3.3 1.5
v -0.6 3.5 1.5
v -0.6 3.3 1.4
v -0.6 3.5 1.4
v -0.6 3.3 -1.4
v -0.6 3.5 -1.4
v -0.6 3.3 -1.5
v -0.6 3.5 -1.5
v -0.7 3.6 0.8
v -0.7 3.7 0.8
v -0.7 3.6 -0.8
v -0.7 3.7 -0.8
v 0.6 2.1 0.5
v 0.6 2.1 0.4
v 0.6 2.1 -0.4
v 0.6 2.1 -0.5
v 0.5 2.1 1
v 0.5 2.1 0.5
v 0.5 2.1 0.4
v 0.5 2.1 0.2
v 0.5 2.1 0
v 0.5 2.1 -0.2
v 0.5 2.1 -0.4
v 0.5 2.1 -0.5
v 0.5 2.1 -1
v 0.4 2.1 0.4
v 0.4 2.1 0.2
v 0.4 2.1 0
v 0.4 2.1 -0.2
v 0.4 2.1 -0.4
v 0.1 2.1 0.4
v 0.1 2.1 -0.4
v -0.5 2.1 1
v -0.5 2.1 -1
v 0.5 2.4 0.1
v 0.5 2.4 0
v 0.5 2.4 -0.1
v 0.4 2.4 0.1
v 0.4 2.4 0
v 0.4 2.4 -0.1
v 0.5 2.7 0.2
v 0.5 2.7 0
v 0.5 2.7 -0.2
v 0.4 2.7 0.2
v 0.4 2.7 0
v 0.4 2.7 -0.2
v 0.8 2.8 0.6
v 0.8 2.8 0.4
v 0.8 2.8 -0.4
v 0.8 2.8 -0.6
v 0.7 2.8 0.6
v 0.7 2.8 0.5
v 0.7 2.8 -0.5
v 0.7 2.8 -0.6
v 0.6 2.8 0.5
v 0.6 2.8 0.4
v 0.6 2.8 -0.4
v 0.6 2.8 -0.5
v 0.5 2.8 0.6
v 0.5 2.8 0.5
v 0.5 2.8 -0.5
v 0.5 2.8 -0.6
v 0.5 3 0.1
v 0.5 3 0
v 0.5 3 -0.1
v 0.4 3 0.1
v 0.4 3 0
v 0.4 3 -0.1
v 0.5 3.1 1.6
v 0.5 3.1 1
v 0.5 3.1 -1
v 0.5 3.1 -1.6
v -0.5 3.1 1.6
v -0.5 3.1 1
v -0.5 3.1 -1
v -0.5 3.1 -1.6
v 0.6 3.3 1.5
v 0.6 3.3 1.4
v 0.6 3.3 -1.4
v 0.6 3.3 -1.5
v 0.5 3.3 1.5
v 0.5 3.3 1.4
v 0.5 3.3 -1.4
v 0.5 3.3 -1.5
v -0.5 3.3 1.5
v -0.5 3.3 1.4
v -0.5 3.3 -1.4
v -0.5 3.3 -1.5
v -0.6 3.3 1.5
v -0.6 3.3 1.4
v -0.6 3.3 -1.4
v -0.6 3.3 -1.5
v 0.8 3.6 0.8
v 0.8 3.6 0.6
v 0.8 3.6 -0.6
v 0.8 3.6 -0.8
v 0.7 3.6 0.6
v 0.7 3.6 -0.6
v 0.5 3.6 0.8
v 0.5 3.6 0.6
v 0.5 3.6 -0.6
v 0.5 3.6 -0.8
v -0.5 3.6 0.8
v -0.5 3.6 -0.8
v -0.7 3.6 0.8
v -0.7 3.6 -0.8
v 0.5 2.2 0.1
v 0.5 2.2 0
v 0.5 2.2 -0.1
v 0.4 2.2 0.1
v 0.4 2.2 0
v 0.4 2.2 -0.1
v 0.5 2.5 0.2
v 0.5 2.5 0
v 0.5 2.5 -0.2
v 0.4 2.5 0.2
v 0.4 2.5 0
v 0.4 2.5 -0.2
v 0.5 2.8 0.1
v 0.5 2.8 0
v 0.5 2.8 -0.1
v 0.4 2.8 0.1
v 0.4 2.8 0
v 0.4 2.8 -0.1
v 0.8 2.9 0.5
v 0.8 2.9 0.4
v 0.8 2.9 -0.4
v 0.8 2.9 -0.5
v 0.7 2.9 0.5
v 0.7 2.9 -0.5
v 0.5 2.9 0.5
v 0.5 2.9 0.4
v 0.5 2.9 -0.4
v 0.5 2.9 -0.5
v 0.4 2.9 0.5
v 0.4 2.9 0.4
v 0.4 2.9 -0.4
v 0.4 2.9 -0.5
v 0.5 3.1 0.2
v 0.5 3.1 0
v 0.5 3.1 -0.2
v 0.4 3.1 0.2
v 0.4 3.1 0
v 0.4 3.1 -0.2
v 0.6 3.5 1.5
v 0.6 3.5 1.4
v 0.6 3.5 -1.4
v 0.6 3.5 -1.5
v 0.5 3.5 1.5
v 0.5 3.5 1.4
v 0.5 3.5 -1.4
v 0.5 3.5 -1.5
v -0.5 3.5 1.5
v -0.5 3.5 1.4
v -0.5 3.5 -1.4
v -0.5 3.5 -1.5
v -0.6 3.5 1.5
v -0.6 3.5 1.4
v -0.6 3.5 -1.4
v -0.6 3.5 -1.5
v 0.5 3.6 1.6
v 0.5 3.6 1
v 0.5 3.6 0.8
v 0.5 3.6 -0.8
v 0.5 3.6 -1
v 0.5 3.6 -1.6
v 0.3 3.6 1.5
v 0.3 3.6 1.4
v 0.3 3.6 -1.4
v 0.3 3.6 -1.5
v 0.1 3.6 1.5
v 0.1 3.6 1.4
v 0.1 3.6 -1.4
v 0.1 3.6 -1.5
v -0.1 3.6 1.5
v -0.1 3.6 1.4
v -0.1 3.6 -1.4
v -0.1 3.6 -1.5
v -0.3 3.6 1.5
v -0.3 3.6 1.4
v -0.3 3.6 -1.4
v -0.3 3.6 -1.5
v -0.5 3.6 1.6
v -0.5 3.6 1
v -0.5 3.6 0.8
v -0.5 3.6 -0.8
v -0.5 3.6 -1
v -0.5 3.6 -1.6
v 0.8 3.7 0.8
v 0.8 3.7 0.5
v 0.8 3.7 -0.5
v 0.8 3.7 -0.8
v 0.4 3.7 0.5
v 0.4 3.7 -0.5
v 0.3 3.7 1.5
v 0.3 3.7 1.4
v 0.3 3.7 -1.4
v 0.3 3.7 -1.5
v 0.1 3.7 1.5
v 0.1 3.7 1.4
v 0.1 3.7 -1.4
v 0.1 3.7 -1.5
v -0.1 3.7 1.5
v -0.1 3.7 1.4
v -0.1 3.7 -1.4
v -0.1 3.7 -1.5
v -0.3 3.7 1.5
v -0.3 3.7 1.4
v -0.3 3.7 -1.4
v -0.3 3.7 -1.5
v -0.4 3.7 0.5
v -0.4 3.7 -0.5
v -0.7 3.7 0.8
v -0.7 3.7 -0.8

# faces
f 3/1/1 2/1/1 1/1/1
f 4/1/1 2/1/1 3/1/1
f 9/1/1 6/1/1 5/1/1
f 10/1/1 6/1/1 9/1/1
f 11/1/1 8/1/1 7/1/1
f 12/1/1 8/1/1 11/1/1
f 17/1/1 14/1/1 13/1/1
f 18/1/1 14/1/1 17/1/1
f 19/1/1 16/1/1 15/1/1
f 20/1/1 16/1/1 19/1/1
f 23/4/1 22/4/1 21/4/1
f 24/4/1 22/4/1 23/4/1
f 25/4/1 23/4/1 21/4/1
f 25/3/1 24/3/1 23/3/1
f 26/4/1 22/4/1 24/4/1
f 26/3/1 24/3/1 25/3/1
f 27/4/1 25/4/1 21/4/1
f 27/4/1 26/4/1 25/4/1
f 28/4/1 22/4/1 26/4/1
f 28/4/1 26/4/1 27/4/1
f 33/5/1 30/5/1 29/5/1
f 33/5/1 32/5/1 31/5/1
f 33/5/1 31/5/1 30/5/1
f 34/5/1 32/5/1 33/5/1
f 38/5/1 36/5/1 35/5/1
f 39/4/1 37/4/1 36/4/1
f 39/5/1 36/5/1 38/5/1
f 40/4/1 37/4/1 39/4/1
f 43/5/1 42/5/1 41/5/1
f 44/5/1 42/5/1 43/5/1
f 47/6/1 46/6/1 45/6/1
f 48/6/1 46/6/1 47/6/1
f 49/7/1 48/7/1 47/7/1
f 50/7/1 49/7/1 47/7/1
f 51/7/1 49/7/1 50/7/1
f 54/6/1 53/6/1 52/6/1
f 55/6/1 53/6/1 54/6/1
f 56/7/1 55/7/1 54/7/1
f 57/7/1 56/7/1 54/7/1
f 58/7/1 56/7/1 57/7/1
f 61/7/1 60/7/1 59/7/1
f 62/7/1 60/7/1 61/7/1
f 63/8/1 62/8/1 61/8/1
f 64/8/1 62/8/1 63/8/1
f 67/7/1 66/7/1 65/7/1
f 68/7/1 66/7/1 67/7/1
f 69/8/1 68/8/1 67/8/1
f 70/8/1 68/8/1 69/8/1
f 74/4/1 73/4/1 72/4/1
f 75/4/1 74/4/1 72/4/1
f 77/5/1 72/5/1 71/5/1
f 78/4/1 75/4/1 72/4/1
f 79/5/1 77/5/1 76/5/1
f 80/5/1 72/5/1 77/5/1
f 80/5/1 77/5/1 79/5/1
f 80/4/1 78/4/1 72/4/1
f 81/4/1 78/4/1 80/4/1
f 86/4/1 84/4/1 83/4/1
f 86/4/1 85/4/1 84/4/1
f 87/5/1 83/5/1 82/5/1
f 87/4/1 86/4/1 83/4/1
f 88/4/1 86/4/1 87/4/1
f 89/5/1 87/5/1 82/5/1
f 89/5/1 88/5/1 87/5/1
f 90/5/1 88/5/1 89/5/1
f 95/1/1 92/1/1 91/1/1
f 96/1/1 92/1/1 95/1/1
f 97/1/1 94/1/1 93/1/1
f 98/1/1 94/1/1 97/1/1
f 103/1/1 100/1/1 99/1/1
f 104/1/1 100/1/1 103/1/1
f 105/1/1 102/1/1 101/1/1
f 106/1/1 102/1/1 105/1/1
f 107/1/2 108/1/2 111/1/2
f 111/1/2 108/1/2 112/1/2
f 109/1/2 110/1/2 113/1/2
f 113/1/2 110/1/2 114/1/2
f 115/1/2 116/1/2 119/1/2
f 119/1/2 116/1/2 120/1/2
f 117/1/2 118/1/2 121/1/2
f 121/1/2 118/1/2 122/1/2
f 124/4/2 125/4/2 127/4/2
f 125/4/2 126/4/2 127/4/2
f 123/5/2 124/5/2 128/5/2
f 124/4/2 127/4/2 128/4/2
f 128/4/2 127/4/2 129/4/2
f 123/5/2 128/5/2 130/5/2
f 128/5/2 129/5/2 130/5/2
f 130/5/2 129/5/2 131/5/2
f 133/4/2 134/4/2 135/4/2
f 133/4/2 135/4/2 136/4/2
f 132/5/2 133/5/2 138/5/2
f 133/4/2 136/4/2 139/4/2
f 137/5/2 138/5/2 140/5/2
f 138/5/2 133/5/2 141/5/2
f 140/5/2 138/5/2 141/5/2
f 133/4/2 139/4/2 141/4/2
f 141/4/2 139/4/2 142/4/2
f 143/7/2 144/7/2 145/7/2
f 145/7/2 144/7/2 146/7/2
f 147/7/2 148/7/2 149/7/2
f 149/7/2 148/7/2 150/7/2
f 151/7/2 152/7/2 153/7/2
f 151/7/2 153/7/2 154/7/2
f 154/7/2 153/7/2 155/7/2
f 154/8/2 155/8/2 156/8/2
f 154/8/2 156/8/2 157/8/2
f 157/8/2 156/8/2 158/8/2
f 159/7/2 160/7/2 161/7/2
f 159/7/2 161/7/2 162/7/2
f 162/7/2 161/7/2 163/7/2
f 162/8/2 163/8/2 164/8/2
f 162/8/2 164/8/2 165/8/2
f 165/8/2 164/8/2 166/8/2
f 167/5/2 168/5/2 169/5/2
f 169/5/2 168/5/2 170/5/2
f 171/5/2 172/5/2 174/5/2
f 172/4/2 173/4/2 175/4/2
f 174/5/2 172/5/2 175/5/2
f 175/4/2 173/4/2 176/4/2
f 177/5/2 178/5/2 181/5/2
f 179/5/2 180/5/2 181/5/2
f 178/5/2 179/5/2 181/5/2
f 181/5/2 180/5/2 182/5/2
f 183/4/2 184/4/2 185/4/2
f 185/4/2 184/4/2 186/4/2
f 183/4/2 185/4/2 187/4/2
f 185/3/2 186/3/2 187/3/2
f 186/4/2 184/4/2 188/4/2
f 187/3/2 186/3/2 188/3/2
f 183/4/2 187/4/2 189/4/2
f 187/4/2 188/4/2 189/4/2
f 188/4/2 184/4/2 190/4/2
f 189/4/2 188/4/2 190/4/2
f 191/1/2 192/1/2 195/1/2
f 195/1/2 192/1/2 196/1/2
f 193/1/2 194/1/2 197/1/2
f 197/1/2 194/1/2 198/1/2
f 199/1/2 200/1/2 203/1/2
f 203/1/2 200/1/2 204/1/2
f 201/1/2 202/1/2 205/1/2
f 205/1/2 202/1/2 206/1/2
f 207/1/2 208/1/2 209/1/2
f 209/1/2 208/1/2 210/1/2
f 214/5/3 212/5/3 211/5/3
f 215/5/3 214/5/3 213/5/3
f 216/5/3 212/5/3 214/5/3
f 216/5/3 214/5/3 215/5/3
f 217/5/3 215/5/3 213/5/3
f 218/5/3 215/5/3 217/5/3
f 221/5/3 220/5/3 219/5/3
f 223/5/3 221/5/3 219/5/3
f 223/5/3 222/5/3 221/5/3
f 224/5/3 222/5/3 223/5/3
f 225/5/3 222/5/3 224/5/3
f 226/5/3 222/5/3 225/5/3
f 229/1/3 228/1/3 227/1/3
f 230/1/3 228/1/3 229/1/3
f 233/5/3 232/5/3 231/5/3
f 234/5/3 232/5/3 233/5/3
f 237/5/3 236/5/3 235/5/3
f 238/5/3 236/5/3 237/5/3
f 241/1/3 240/1/3 239/1/3
f 242/1/3 240/1/3 241/1/3
f 245/1/3 244/1/3 243/1/3
f 246/1/3 244/1/3 245/1/3
f 247/1/3 245/1/3 243/1/3
f 248/1/3 244/1/3 246/1/3
f 250/1/3 247/1/3 243/1/3
f 250/1/3 248/1/3 247/1/3
f 251/1/3 244/1/3 248/1/3
f 251/1/3 248/1/3 250/1/3
f 252/4/3 250/4/3 249/4/3
f 252/4/3 251/4/3 250/4/3
f 253/4/3 251/4/3 252/4/3
f 254/4/3 251/4/3 253/4/3
f 255/4/3 251/4/3 254/4/3
f 256/4/3 251/4/3 255/4/3
f 257/4/3 254/4/3 253/4/3
f 257/3/3 255/3/3 254/3/3
f 258/4/3 256/4/3 255/4/3
f 258/3/3 255/3/3 257/3/3
f 259/4/3 252/4/3 249/4/3
f 259/3/3 253/3/3 252/3/3
f 260/4/3 258/4/3 257/4/3
f 260/3/3 253/3/3 259/3/3
f 260/4/3 257/4/3 253/4/3
f 261/4/3 258/4/3 260/4/3
f 262/4/3 256/4/3 258/4/3
f 262/4/3 258/4/3 261/4/3
f 263/4/3 261/4/3 260/4/3
f 263/4/3 259/4/3 249/4/3
f 263/4/3 260/4/3 259/4/3
f 264/4/3 261/4/3 263/4/3
f 271/6/3 266/6/3 265/6/3
f 271/7/3 267/7/3 266/7/3
f 272/7/3 267/7/3 271/7/3
f 273/6/3 269/6/3 268/6/3
f 273/7/3 270/7/3 269/7/3
f 274/7/3 270/7/3 273/7/3
f 275/6/3 271/6/3 265/6/3
f 276/6/3 271/6/3 275/6/3
f 277/7/3 267/7/3 272/7/3
f 278/7/3 267/7/3 277/7/3
f 279/6/3 273/6/3 268/6/3
f 280/6/3 273/6/3 279/6/3
f 281/7/3 270/7/3 274/7/3
f 282/7/3 270/7/3 281/7/3
f 283/7/3 276/7/3 275/7/3
f 285/8/3 278/8/3 277/8/3
f 286/7/3 280/7/3 279/7/3
f 288/8/3 282/8/3 281/8/3
f 289/7/3 284/7/3 283/7/3
f 289/7/3 283/7/3 275/7/3
f 290/8/3 285/8/3 284/8/3
f 290/7/3 284/7/3 289/7/3
f 291/8/3 278/8/3 285/8/3
f 291/8/3 285/8/3 290/8/3
f 292/7/3 287/7/3 286/7/3
f 292/7/3 286/7/3 279/7/3
f 293/8/3 288/8/3 287/8/3
f 293/7/3 287/7/3 292/7/3
f 294/8/3 282/8/3 288/8/3
f 294/8/3 288/8/3 293/8/3
f 297/4/3 296/4/3 295/4/3
f 298/4/3 296/4/3 297/4/3
f 299/4/3 296/4/3 298/4/3
f 301/3/3 298/3/3 297/3/3
f 301/4/3 297/4/3 295/4/3
f 302/4/3 299/4/3 298/4/3
f 302/3/3 298/3/3 301/3/3
f 302/4/3 300/4/3 299/4/3
f 303/4/3 300/4/3 302/4/3
f 304/4/3 301/4/3 295/4/3
f 304/4/3 302/4/3 301/4/3
f 304/4/3 303/4/3 302/4/3
f 305/4/3 303/4/3 304/4/3
f 306/4/3 303/4/3 305/4/3
f 307/1/3 306/1/3 305/1/3
f 308/1/3 306/1/3 307/1/3
f 309/1/3 307/1/3 305/1/3
f 310/1/3 306/1/3 308/1/3
f 311/1/3 309/1/3 305/1/3
f 311/1/3 310/1/3 309/1/3
f 312/1/3 306/1/3 310/1/3
f 312/1/3 310/1/3 311/1/3
f 321/9/3 314/9/3 313/9/3
f 322/2/3 318/2/3 317/2/3
f 323/9/3 319/9/3 318/9/3
f 323/2/3 318/2/3 322/2/3
f 324/2/3 320/2/3 319/2/3
f 324/9/3 319/9/3 323/9/3
f 325/2/3 320/2/3 324/2/3
f 326/2/3 320/2/3 325/2/3
f 327/9/3 321/9/3 320/9/3
f 327/2/3 320/2/3 326/2/3
f 328/2/3 315/2/3 314/2/3
f 328/9/3 321/9/3 327/9/3
f 328/2/3 316/2/3 315/2/3
f 328/9/3 314/9/3 321/9/3
f 329/2/3 316/2/3 328/2/3
f 334/9/3 331/9/3 330/9/3
f 335/9/3 331/9/3 334/9/3
f 336/2/3 326/2/3 325/2/3
f 337/2/3 326/2/3 336/2/3
f 338/9/3 333/9/3 332/9/3
f 339/9/3 333/9/3 338/9/3
f 340/2/3 316/2/3 329/2/3
f 341/9/3 335/9/3 334/9/3
f 342/9/3 335/9/3 341/9/3
f 343/9/3 335/9/3 342/9/3
f 344/9/3 339/9/3 338/9/3
f 345/9/3 339/9/3 344/9/3
f 346/9/3 339/9/3 345/9/3
f 351/2/3 337/2/3 336/2/3
f 352/2/3 337/2/3 351/2/3
f 356/2/3 316/2/3 340/2/3
f 357/2/3 348/2/3 347/2/3
f 358/9/3 350/9/3 349/9/3
f 358/2/3 348/2/3 357/2/3
f 358/9/3 349/9/3 348/9/3
f 359/2/3 351/2/3 350/2/3
f 359/9/3 350/9/3 358/9/3
f 359/2/3 352/2/3 351/2/3
f 359/2/3 353/2/3 352/2/3
f 360/9/3 355/9/3 354/9/3
f 360/2/3 353/2/3 359/2/3
f 360/9/3 354/9/3 353/9/3
f 361/9/3 355/9/3 360/9/3
f 362/9/3 355/9/3 361/9/3
f 363/2/3 356/2/3 355/2/3
f 363/9/3 355/9/3 362/9/3
f 364/2/3 316/2/3 356/2/3
f 364/2/3 356/2/3 363/2/3
f 365/2/3 316/2/3 364/2/3
f 368/1/3 367/1/3 366/1/3
f 369/1/3 367/1/3 368/1/3
f 372/1/3 371/1/3 370/1/3
f 373/1/3 371/1/3 372/1/3
f 376/1/3 375/1/3 374/1/3
f 377/1/3 375/1/3 376/1/3
f 380/1/3 379/1/3 378/1/3
f 381/1/3 379/1/3 380/1/3
f 382/1/4 383/1/4 384/1/4
f 384/1/4 383/1/4 385/1/4
f 386/1/4 387/1/4 388/1/4
f 388/1/4 387/1/4 389/1/4
f 390/1/4 391/1/4 392/1/4
f 392/1/4 391/1/4 393/1/4
f 394/1/4 395/1/4 396/1/4
f 396/1/4 395/1/4 397/1/4
f 398/1/4 399/1/4 400/1/4
f 400/1/4 399/1/4 401/1/4
f 398/1/4 400/1/4 402/1/4
f 401/1/4 399/1/4 403/1/4
f 398/1/4 402/1/4 405/1/4
f 402/1/4 403/1/4 405/1/4
f 403/1/4 399/1/4 406/1/4
f 405/1/4 403/1/4 406/1/4
f 404/4/4 405/4/4 407/4/4
f 405/4/4 406/4/4 407/4/4
f 404/4/4 407/4/4 408/4/4
f 408/4/4 407/4/4 409/4/4
f 404/4/4 408/4/4 410/4/4
f 408/3/4 409/3/4 410/3/4
f 409/4/4 407/4/4 411/4/4
f 410/3/4 409/3/4 411/3/4
f 410/4/4 411/4/4 412/4/4
f 411/4/4 407/4/4 412/4/4
f 412/4/4 407/4/4 413/4/4
f 410/4/4 412/4/4 414/4/4
f 412/3/4 413/3/4 414/3/4
f 413/4/4 407/4/4 415/4/4
f 414/3/4 413/3/4 415/3/4
f 414/4/4 415/4/4 416/4/4
f 415/4/4 407/4/4 416/4/4
f 416/4/4 407/4/4 417/4/4
f 410/4/4 414/4/4 418/4/4
f 414/4/4 416/4/4 418/4/4
f 418/4/4 416/4/4 419/4/4
f 410/4/4 418/4/4 420/4/4
f 418/3/4 419/3/4 420/3/4
f 419/4/4 416/4/4 421/4/4
f 420/3/4 419/3/4 421/3/4
f 416/3/4 417/3/4 422/3/4
f 421/4/4 416/4/4 422/4/4
f 417/4/4 407/4/4 423/4/4
f 422/3/4 417/3/4 423/3/4
f 421/4/4 422/4/4 424/4/4
f 423/4/4 407/4/4 424/4/4
f 422/4/4 423/4/4 424/4/4
f 420/4/4 421/4/4 424/4/4
f 404/4/4 410/4/4 425/4/4
f 410/4/4 420/4/4 425/4/4
f 420/4/4 424/4/4 425/4/4
f 425/4/4 424/4/4 426/4/4
f 426/4/4 424/4/4 427/4/4
f 426/1/4 427/1/4 428/1/4
f 428/1/4 427/1/4 429/1/4
f 426/1/4 428/1/4 430/1/4
f 429/1/4 427/1/4 431/1/4
f 426/1/4 430/1/4 432/1/4
f 430/1/4 431/1/4 432/1/4
f 431/1/4 427/1/4 433/1/4
f 432/1/4 431/1/4 433/1/4
f 434/1/4 435/1/4 436/1/4
f 436/1/4 435/1/4 437/1/4
f 438/1/4 439/1/4 440/1/4
f 440/1/4 439/1/4 441/1/4
f 442/5/4 443/5/4 444/5/4
f 444/5/4 443/5/4 445/5/4
f 451/5/5 447/5/5 446/5/5
f 452/5/5 447/5/5 451/5/5
f 456/5/5 449/5/5 448/5/5
f 457/5/5 449/5/5 456/5/5
f 459/4/5 451/4/5 450/4/5
f 459/4/5 452/4/5 451/4/5
f 460/6/5 454/6/5 453/6/5
f 461/7/5 455/7/5 454/7/5
f 461/6/5 454/6/5 460/6/5
f 462/7/5 455/7/5 461/7/5
f 463/4/5 458/4/5 457/4/5
f 463/4/5 457/4/5 456/4/5
f 464/2/5 460/2/5 459/2/5
f 464/2/5 463/2/5 462/2/5
f 464/2/5 462/2/5 461/2/5
f 464/2/5 461/2/5 460/2/5
f 464/4/5 459/4/5 450/4/5
f 465/4/5 458/4/5 463/4/5
f 465/2/5 463/2/5 464/2/5
f 466/4/5 464/4/5 450/4/5
f 466/4/5 465/4/5 464/4/5
f 467/4/5 458/4/5 465/4/5
f 467/4/5 465/4/5 466/4/5
f 471/7/5 469/7/5 468/7/5
f 472/8/5 470/8/5 469/8/5
f 472/7/5 469/7/5 471/7/5
f 473/8/5 470/8/5 472/8/5
f 477/6/5 475/6/5 474/6/5
f 478/7/5 476/7/5 475/7/5
f 478/6/5 475/6/5 477/6/5
f 479/7/5 476/7/5 478/7/5
f 484/5/5 481/5/5 480/5/5
f 485/5/5 481/5/5 484/5/5
f 486/5/5 483/5/5 482/5/5
f 487/5/5 483/5/5 486/5/5
f 488/5/5 481/5/5 485/5/5
f 488/4/5 485/4/5 484/4/5
f 489/5/5 481/5/5 488/5/5
f 490/5/5 486/5/5 482/5/5
f 491/4/5 487/4/5 486/4/5
f 491/5/5 486/5/5 490/5/5
f 492/4/5 488/4/5 484/4/5
f 493/4/5 488/4/5 492/4/5
f 494/4/5 487/4/5 491/4/5
f 495/4/5 487/4/5 494/4/5
f 499/7/5 497/7/5 496/7/5
f 500/8/5 498/8/5 497/8/5
f 500/7/5 497/7/5 499/7/5
f 501/8/5 498/8/5 500/8/5
f 506/1/5 503/1/5 502/1/5
f 507/1/5 503/1/5 506/1/5
f 508/1/5 505/1/5 504/1/5
f 509/1/5 505/1/5 508/1/5
f 514/1/5 511/1/5 510/1/5
f 515/1/5 511/1/5 514/1/5
f 516/1/5 513/1/5 512/1/5
f 517/1/5 513/1/5 516/1/5
f 522/1/5 519/1/5 518/1/5
f 523/1/5 519/1/5 522/1/5
f 524/1/5 521/1/5 520/1/5
f 525/1/5 521/1/5 524/1/5
f 530/5/5 527/5/5 526/5/5
f 531/5/5 529/5/5 528/5/5
f 532/5/5 530/5/5 526/5/5
f 533/5/5 530/5/5 532/5/5
f 534/5/5 529/5/5 531/5/5
f 535/5/5 529/5/5 534/5/5
f 538/5/5 537/5/5 536/5/5
f 539/5/5 537/5/5 538/5/5
f 540/6/6 541/6/6 543/6/6
f 541/7/6 542/7/6 544/7/6
f 543/6/6 541/6/6 544/6/6
f 544/7/6 542/7/6 545/7/6
f 546/7/6 547/7/6 549/7/6
f 547/8/6 548/8/6 550/8/6
f 549/7/6 547/7/6 550/7/6
f 550/8/6 548/8/6 551/8/6
f 552/6/6 553/6/6 555/6/6
f 553/7/6 554/7/6 556/7/6
f 555/6/6 553/6/6 556/6/6
f 556/7/6 554/7/6 557/7/6
f 558/5/6 559/5/6 562/5/6
f 560/5/6 561/5/6 563/5/6
f 562/5/6 559/5/6 564/5/6
f 564/5/6 559/5/6 565/5/6
f 560/5/6 563/5/6 566/5/6
f 566/5/6 563/5/6 567/5/6
f 564/4/6 565/4/6 568/4/6
f 568/4/6 565/4/6 569/4/6
f 566/4/6 567/4/6 570/4/6
f 570/4/6 567/4/6 571/4/6
f 572/7/6 573/7/6 575/7/6
f 573/8/6 574/8/6 576/8/6
f 575/7/6 573/7/6 576/7/6
f 576/8/6 574/8/6 577/8/6
f 578/1/6 579/1/6 582/1/6
f 582/1/6 579/1/6 583/1/6
f 580/1/6 581/1/6 584/1/6
f 584/1/6 581/1/6 585/1/6
f 586/1/6 587/1/6 590/1/6
f 590/1/6 587/1/6 591/1/6
f 588/1/6 589/1/6 592/1/6
f 592/1/6 589/1/6 593/1/6
f 594/1/6 595/1/6 600/1/6
f 600/1/6 595/1/6 601/1/6
f 598/1/6 599/1/6 602/1/6
f 602/1/6 599/1/6 603/1/6
f 594/1/6 600/1/6 604/1/6
f 601/1/6 595/1/6 605/1/6
f 598/1/6 602/1/6 606/1/6
f 603/1/6 599/1/6 607/1/6
f 594/1/6 604/1/6 608/1/6
f 604/1/6 605/1/6 608/1/6
f 605/1/6 595/1/6 609/1/6
f 608/1/6 605/1/6 609/1/6
f 606/1/6 607/1/6 610/1/6
f 598/1/6 606/1/6 610/1/6
f 607/1/6 599/1/6 611/1/6
f 610/1/6 607/1/6 611/1/6
f 594/1/6 608/1/6 612/1/6
f 609/1/6 595/1/6 613/1/6
f 598/1/6 610/1/6 614/1/6
f 611/1/6 599/1/6 615/1/6
f 594/1/6 612/1/6 616/1/6
f 612/1/6 613/1/6 616/1/6
f 595/4/6 596/4/6 617/4/6
f 616/1/6 613/1/6 617/1/6
f 613/1/6 595/1/6 617/1/6
f 617/4/6 596/4/6 618/4/6
f 597/4/6 598/4/6 619/4/6
f 614/1/6 615/1/6 620/1/6
f 619/4/6 598/4/6 620/4/6
f 598/1/6 614/1/6 620/1/6
f 615/1/6 599/1/6 621/1/6
f 620/1/6 615/1/6 621/1/6
f 622/5/6 623/5/6 626/5/6
f 624/5/6 625/5/6 627/5/6
f 628/1/6 629/1/6 632/1/6
f 632/1/6 629/1/6 633/1/6
f 630/1/6 631/1/6 634/1/6
f 634/1/6 631/1/6 635/1/6
f 636/1/6 637/1/6 640/1/6
f 640/1/6 637/1/6 641/1/6
f 638/1/6 639/1/6 642/1/6
f 642/1/6 639/1/6 643/1/6
f 622/5/6 626/5/6 644/5/6
f 626/2/6 627/2/6 644/2/6
f 627/5/6 625/5/6 645/5/6
f 644/2/6 627/2/6 645/2/6
f 622/5/6 644/5/6 646/5/6
f 644/5/6 645/5/6 646/5/6
f 645/5/6 625/5/6 647/5/6
f 646/5/6 645/5/6 647/5/6
