# MagicaVoxel @ Ephtracy

# group
o 

# material
mtllib model-2.mtl
usemtl palette

# normals
vn 0 0 1
vn 0 0 -1
vn 1 0 0
vn -1 0 0
vn 0 -1 0
vn 0 1 0

# texcoords
vt 0.0839844 0.5
vt 0.251953 0.5
vt 0.255859 0.5
vt 0.259766 0.5
vt 0.513672 0.5
vt 0.517578 0.5
vt 0.525391 0.5
vt 0.826172 0.5

# verts
v 0.5 1.5 1
v -0.5 1.5 1
v 0.5 1.6 1
v -0.5 1.6 1
v 5.96046e-08 1.7 1
v -0.3 1.7 1
v 5.96046e-08 2 1
v -0.3 2 1
v 0.5 2.2 1
v -0.5 2.2 1
v 0.6 1.5 0.5
v 0.5 1.5 0.5
v 0.5 1.6 0.5
v 0.6 2.2 0.5
v 0.5 2.2 0.5
v 0.5 1.5 0.2
v 0.4 1.5 0.2
v 0.5 1.6 0.2
v 0.4 1.6 0.2
v 0.4 1.8 0.2
v 0.5 1.9 0.2
v 0.4 1.9 0.2
v 0.5 1.6 -0.1
v 0.4 1.6 -0.1
v 0.5 1.7 -0.1
v 0.4 1.7 -0.1
v 0.5 1.8 -0.1
v 0.4 1.8 -0.1
v 0.6 1.5 -0.4
v 0.4 1.5 -0.4
v 0.5 1.6 -0.4
v 0.4 1.6 -0.4
v 0.4 1.8 -0.4
v 0.6 2.2 -0.4
v 0.5 2.2 -0.4
v 0.4 2.2 -0.4
v 0.4 1.5 -0.9
v -0.4 1.5 -0.9
v 0.4 1.6 -0.9
v -0.4 1.6 -0.9
v 0.4 1.5 0.9
v -0.4 1.5 0.9
v 0.4 1.6 0.9
v -0.4 1.6 0.9
v 0.6 1.5 0.4
v 0.4 1.5 0.4
v 0.5 1.6 0.4
v 0.4 1.6 0.4
v 0.4 1.8 0.4
v 0.6 2.2 0.4
v 0.5 2.2 0.4
v 0.4 2.2 0.4
v 0.5 1.6 0.1
v 0.4 1.6 0.1
v 0.5 1.8 0.1
v 0.4 1.8 0.1
v 0.5 1.5 -0.2
v 0.4 1.5 -0.2
v 0.4 1.6 -0.2
v 0.5 1.7 -0.2
v 0.4 1.7 -0.2
v 0.4 1.8 -0.2
v 0.5 1.9 -0.2
v 0.4 1.9 -0.2
v 0.6 1.5 -0.5
v 0.5 1.5 -0.5
v 0.5 1.6 -0.5
v 0.6 2.2 -0.5
v 0.5 2.2 -0.5
v 0.5 1.5 -1
v -0.5 1.5 -1
v 0.5 1.6 -1
v -0.5 1.6 -1
v 0.2 1.7 -1
v 5.96046e-08 1.7 -1
v 0.2 1.9 -1
v 5.96046e-08 1.9 -1
v 0.5 2.2 -1
v -0.5 2.2 -1
v 0.6 1.5 0.5
v 0.6 2.2 0.5
v 0.6 1.5 0.4
v 0.6 2.2 0.4
v 0.6 1.5 -0.4
v 0.6 2.2 -0.4
v 0.6 1.5 -0.5
v 0.6 2.2 -0.5
v 0.5 1.5 1
v 0.5 1.6 1
v 0.5 2.2 1
v 0.5 1.5 0.5
v 0.5 1.6 0.5
v 0.5 2.2 0.5
v 0.5 1.5 0.2
v 0.5 1.6 0.2
v 0.5 1.9 0.2
v 0.5 1.6 0.1
v 0.5 1.8 0.1
v 0.5 1.5 0
v 0.5 1.6 0
v 0.5 1.8 0
v 0.5 1.9 0
v 0.5 1.6 -0.1
v 0.5 1.7 -0.1
v 0.5 1.8 -0.1
v 0.5 1.5 -0.2
v 0.5 1.7 -0.2
v 0.5 1.9 -0.2
v 0.5 1.5 -0.5
v 0.5 1.6 -0.5
v 0.5 2.2 -0.5
v 0.5 1.7 -0.6
v 0.5 2 -0.6
v 0.5 1.7 -0.9
v 0.5 2 -0.9
v 0.5 1.5 -1
v 0.5 1.6 -1
v 0.5 2.2 -1
v 0.4 1.6 0.4
v 0.4 1.8 0.4
v 0.4 2.2 0.4
v 0.4 1.6 0.2
v 0.4 1.8 0.2
v 0.4 1.9 0.2
v 0.4 1.6 0.1
v 0.4 1.8 0.1
v 0.4 1.6 0
v 0.4 1.8 0
v 0.4 1.9 0
v 0.4 1.6 -0.1
v 0.4 1.7 -0.1
v 0.4 1.8 -0.1
v 0.4 1.6 -0.2
v 0.4 1.7 -0.2
v 0.4 1.8 -0.2
v 0.4 1.9 -0.2
v 0.4 1.6 -0.4
v 0.4 1.8 -0.4
v 0.4 2.2 -0.4
v -0.4 1.5 0.9
v -0.4 1.6 0.9
v -0.4 1.5 -0.9
v -0.4 1.6 -0.9
v 0.4 1.5 0.9
v 0.4 1.6 0.9
v 0.4 1.5 0.4
v 0.4 1.6 0.4
v 0.4 1.5 0.2
v 0.4 1.6 0.2
v 0.4 1.5 0
v 0.4 1.6 0
v 0.4 1.5 -0.2
v 0.4 1.6 -0.2
v 0.4 1.5 -0.4
v 0.4 1.6 -0.4
v 0.4 1.5 -0.9
v 0.4 1.6 -0.9
v -0.5 1.5 1
v -0.5 1.6 1
v -0.5 2.2 1
v -0.5 1.8 0.4
v -0.5 2 0.4
v -0.5 1.8 0.2
v -0.5 2 0.2
v -0.5 1.5 -1
v -0.5 1.6 -1
v -0.5 2.2 -1
v 0.6 1.5 0.5
v 0.6 1.5 0.4
v 0.6 1.5 -0.4
v 0.6 1.5 -0.5
v 0.5 1.5 1
v 0.5 1.5 0.5
v 0.5 1.5 0.2
v 0.5 1.5 0
v 0.5 1.5 -0.2
v 0.5 1.5 -0.5
v 0.5 1.5 -1
v 0.4 1.5 0.9
v 0.4 1.5 0.4
v 0.4 1.5 0.2
v 0.4 1.5 0
v 0.4 1.5 -0.2
v 0.4 1.5 -0.4
v 0.4 1.5 -0.9
v -0.4 1.5 0.9
v -0.4 1.5 -0.9
v -0.5 1.5 1
v -0.5 1.5 -1
v 0.4 1.6 0.9
v 0.4 1.6 0.4
v 0.4 1.6 0.2
v 0.4 1.6 0
v 0.4 1.6 -0.2
v 0.4 1.6 -0.4
v 0.4 1.6 -0.9
v -0.4 1.6 0.9
v -0.4 1.6 -0.9
v 0.5 1.8 0.1
v 0.5 1.8 0
v 0.5 1.8 -0.1
v 0.4 1.8 0.1
v 0.4 1.8 0
v 0.4 1.8 -0.1
v 0.5 1.6 0.1
v 0.5 1.6 0
v 0.5 1.6 -0.1
v 0.4 1.6 0.1
v 0.4 1.6 0
v 0.4 1.6 -0.1
v 0.5 1.9 0.2
v 0.5 1.9 0
v 0.5 1.9 -0.2
v 0.4 1.9 0.2
v 0.4 1.9 0
v 0.4 1.9 -0.2
v 0.6 2.2 0.5
v 0.6 2.2 0.4
v 0.6 2.2 -0.4
v 0.6 2.2 -0.5
v 0.5 2.2 1
v 0.5 2.2 0.5
v 0.5 2.2 0.4
v 0.5 2.2 -0.4
v 0.5 2.2 -0.5
v 0.5 2.2 -1
v 0.4 2.2 0.4
v 0.4 2.2 -0.4
v 0.3 2.2 0.4
v 0.3 2.2 -0.4
v -0.5 2.2 1
v -0.5 2.2 -1

# faces
f 3/4/1 2/4/1 1/4/1
f 4/4/1 2/4/1 3/4/1
f 5/3/1 4/3/1 3/3/1
f 6/3/1 4/3/1 5/3/1
f 7/3/1 5/3/1 3/3/1
f 7/2/1 6/2/1 5/2/1
f 8/3/1 4/3/1 6/3/1
f 8/2/1 6/2/1 7/2/1
f 9/3/1 7/3/1 3/3/1
f 9/3/1 8/3/1 7/3/1
f 10/3/1 4/3/1 8/3/1
f 10/3/1 8/3/1 9/3/1
f 13/4/1 12/4/1 11/4/1
f 14/4/1 13/4/1 11/4/1
f 15/4/1 13/4/1 14/4/1
f 18/5/1 17/5/1 16/5/1
f 19/5/1 17/5/1 18/5/1
f 20/6/1 19/6/1 18/6/1
f 21/6/1 20/6/1 18/6/1
f 22/6/1 20/6/1 21/6/1
f 25/6/1 24/6/1 23/6/1
f 26/6/1 24/6/1 25/6/1
f 27/7/1 26/7/1 25/7/1
f 28/7/1 26/7/1 27/7/1
f 31/4/1 30/4/1 29/4/1
f 32/4/1 30/4/1 31/4/1
f 33/3/1 32/3/1 31/3/1
f 34/4/1 31/4/1 29/4/1
f 35/3/1 33/3/1 31/3/1
f 35/4/1 31/4/1 34/4/1
f 36/3/1 33/3/1 35/3/1
f 39/4/1 38/4/1 37/4/1
f 40/4/1 38/4/1 39/4/1
f 41/4/2 42/4/2 43/4/2
f 43/4/2 42/4/2 44/4/2
f 45/4/2 46/4/2 47/4/2
f 47/4/2 46/4/2 48/4/2
f 47/3/2 48/3/2 49/3/2
f 45/4/2 47/4/2 50/4/2
f 47/3/2 49/3/2 51/3/2
f 50/4/2 47/4/2 51/4/2
f 51/3/2 49/3/2 52/3/2
f 53/6/2 54/6/2 55/6/2
f 55/6/2 54/6/2 56/6/2
f 57/6/2 58/6/2 59/6/2
f 57/6/2 59/6/2 60/6/2
f 60/6/2 59/6/2 61/6/2
f 60/7/2 61/7/2 62/7/2
f 60/7/2 62/7/2 63/7/2
f 63/7/2 62/7/2 64/7/2
f 65/4/2 66/4/2 67/4/2
f 65/4/2 67/4/2 68/4/2
f 68/4/2 67/4/2 69/4/2
f 70/4/2 71/4/2 72/4/2
f 72/4/2 71/4/2 73/4/2
f 72/3/2 73/3/2 74/3/2
f 74/3/2 73/3/2 75/3/2
f 72/3/2 74/3/2 76/3/2
f 74/2/2 75/2/2 76/2/2
f 75/3/2 73/3/2 77/3/2
f 76/2/2 75/2/2 77/2/2
f 72/3/2 76/3/2 78/3/2
f 76/3/2 77/3/2 78/3/2
f 77/3/2 73/3/2 79/3/2
f 78/3/2 77/3/2 79/3/2
f 82/4/3 81/4/3 80/4/3
f 83/4/3 81/4/3 82/4/3
f 86/4/3 85/4/3 84/4/3
f 87/4/3 85/4/3 86/4/3
f 91/4/3 89/4/3 88/4/3
f 92/3/3 90/3/3 89/3/3
f 92/4/3 89/4/3 91/4/3
f 93/3/3 90/3/3 92/3/3
f 97/5/3 95/5/3 94/5/3
f 97/6/3 96/6/3 95/6/3
f 98/6/3 96/6/3 97/6/3
f 99/5/3 97/5/3 94/5/3
f 100/5/3 97/5/3 99/5/3
f 101/6/3 96/6/3 98/6/3
f 102/6/3 96/6/3 101/6/3
f 103/6/3 100/6/3 99/6/3
f 105/7/3 102/7/3 101/7/3
f 106/6/3 104/6/3 103/6/3
f 106/6/3 103/6/3 99/6/3
f 107/7/3 105/7/3 104/7/3
f 107/6/3 104/6/3 106/6/3
f 108/7/3 102/7/3 105/7/3
f 108/7/3 105/7/3 107/7/3
f 112/3/3 111/3/3 110/3/3
f 113/3/3 111/3/3 112/3/3
f 114/3/3 112/3/3 110/3/3
f 114/2/3 113/2/3 112/2/3
f 115/3/3 111/3/3 113/3/3
f 115/2/3 113/2/3 114/2/3
f 116/4/3 110/4/3 109/4/3
f 117/3/3 114/3/3 110/3/3
f 117/4/3 110/4/3 116/4/3
f 117/3/3 115/3/3 114/3/3
f 118/3/3 111/3/3 115/3/3
f 118/3/3 115/3/3 117/3/3
f 122/8/3 120/8/3 119/8/3
f 123/1/3 121/1/3 120/1/3
f 123/8/3 120/8/3 122/8/3
f 124/1/3 121/1/3 123/1/3
f 127/8/3 126/8/3 125/8/3
f 128/8/3 126/8/3 127/8/3
f 129/1/3 121/1/3 124/1/3
f 130/8/3 128/8/3 127/8/3
f 131/8/3 128/8/3 130/8/3
f 132/8/3 128/8/3 131/8/3
f 136/1/3 121/1/3 129/1/3
f 137/8/3 135/8/3 134/8/3
f 137/8/3 134/8/3 133/8/3
f 138/1/3 136/1/3 135/1/3
f 138/8/3 135/8/3 137/8/3
f 139/1/3 121/1/3 136/1/3
f 139/1/3 136/1/3 138/1/3
f 142/4/3 141/4/3 140/4/3
f 143/4/3 141/4/3 142/4/3
f 144/4/4 145/4/4 146/4/4
f 146/4/4 145/4/4 147/4/4
f 148/5/4 149/5/4 150/5/4
f 150/5/4 149/5/4 151/5/4
f 150/6/4 151/6/4 152/6/4
f 152/6/4 151/6/4 153/6/4
f 154/4/4 155/4/4 156/4/4
f 156/4/4 155/4/4 157/4/4
f 159/3/4 160/3/4 161/3/4
f 161/3/4 160/3/4 162/3/4
f 159/3/4 161/3/4 163/3/4
f 161/2/4 162/2/4 163/2/4
f 162/3/4 160/3/4 164/3/4
f 163/2/4 162/2/4 164/2/4
f 158/4/4 159/4/4 165/4/4
f 159/3/4 163/3/4 166/3/4
f 165/4/4 159/4/4 166/4/4
f 163/3/4 164/3/4 166/3/4
f 164/3/4 160/3/4 167/3/4
f 166/3/4 164/3/4 167/3/4
f 173/4/5 169/4/5 168/4/5
f 177/4/5 171/4/5 170/4/5
f 179/4/5 173/4/5 172/4/5
f 180/4/5 169/4/5 173/4/5
f 180/4/5 173/4/5 179/4/5
f 181/5/5 175/5/5 174/5/5
f 182/6/5 176/6/5 175/6/5
f 182/5/5 175/5/5 181/5/5
f 183/6/5 176/6/5 182/6/5
f 184/4/5 178/4/5 177/4/5
f 184/4/5 177/4/5 170/4/5
f 185/4/5 178/4/5 184/4/5
f 186/4/5 179/4/5 172/4/5
f 187/4/5 178/4/5 185/4/5
f 188/4/5 186/4/5 172/4/5
f 188/4/5 187/4/5 186/4/5
f 189/4/5 178/4/5 187/4/5
f 189/4/5 187/4/5 188/4/5
f 197/8/5 191/8/5 190/8/5
f 197/8/5 196/8/5 195/8/5
f 197/8/5 195/8/5 194/8/5
f 197/8/5 194/8/5 193/8/5
f 197/8/5 193/8/5 192/8/5
f 197/8/5 192/8/5 191/8/5
f 198/8/5 196/8/5 197/8/5
f 202/6/5 200/6/5 199/6/5
f 203/7/5 201/7/5 200/7/5
f 203/6/5 200/6/5 202/6/5
f 204/7/5 201/7/5 203/7/5
f 205/5/6 206/5/6 208/5/6
f 206/6/6 207/6/6 209/6/6
f 208/5/6 206/5/6 209/5/6
f 209/6/6 207/6/6 210/6/6
f 211/6/6 212/6/6 214/6/6
f 212/7/6 213/7/6 215/7/6
f 214/6/6 212/6/6 215/6/6
f 215/7/6 213/7/6 216/7/6
f 217/4/6 218/4/6 222/4/6
f 222/4/6 218/4/6 223/4/6
f 219/4/6 220/4/6 224/4/6
f 224/4/6 220/4/6 225/4/6
f 222/3/6 223/3/6 227/3/6
f 221/3/6 222/3/6 227/3/6
f 225/3/6 226/3/6 228/3/6
f 224/3/6 225/3/6 228/3/6
f 221/3/6 227/3/6 229/3/6
f 227/1/6 228/1/6 229/1/6
f 228/3/6 226/3/6 230/3/6
f 229/1/6 228/1/6 230/1/6
f 221/3/6 229/3/6 231/3/6
f 229/3/6 230/3/6 231/3/6
f 230/3/6 226/3/6 232/3/6
f 231/3/6 230/3/6 232/3/6
