# MagicaVoxel @ Ephtracy

# group
o 

# material
mtllib model-20.mtl
usemtl palette

# normals
vn 0 0 1
vn 0 0 -1
vn 1 0 0
vn -1 0 0
vn 0 -1 0
vn 0 1 0

# texcoords
vt 0.251953 0.5
vt 0.255859 0.5
vt 0.259766 0.5

# verts
v 0.3 2.9 -1.6
v -0.3 2.9 -1.6
v 0.3 3.5 -1.6
v -0.3 3.5 -1.6
v 0.3 2.9 -2.4
v -0.3 2.9 -2.4
v 0.3 3.5 -2.4
v -0.3 3.5 -2.4
v 0.3 2.9 -1.6
v 0.3 3.5 -1.6
v 0.3 3 -2
v 0.3 3.2 -2
v 0.3 3 -2.2
v 0.3 3.2 -2.2
v 0.3 2.9 -2.3
v 0.3 3.5 -2.3
v 0.3 2.9 -2.4
v 0.3 3.5 -2.4
v -0.3 2.9 -1.6
v -0.3 3.5 -1.6
v -0.3 2.9 -2.3
v -0.3 3.5 -2.3
v -0.3 2.9 -2.4
v -0.3 3.5 -2.4
v 0.3 2.9 -1.6
v 0.3 2.9 -2.3
v 0.3 2.9 -2.4
v -0.3 2.9 -1.6
v -0.3 2.9 -2.3
v -0.3 2.9 -2.4
v 0.3 3.5 -1.6
v 0.3 3.5 -2.3
v 0.3 3.5 -2.4
v -0.3 3.5 -1.6
v -0.3 3.5 -2.3
v -0.3 3.5 -2.4

# faces
f 3/2/1 2/2/1 1/2/1
f 4/2/1 2/2/1 3/2/1
f 5/3/2 6/3/2 7/3/2
f 7/3/2 6/3/2 8/3/2
f 11/2/3 10/2/3 9/2/3
f 12/2/3 10/2/3 11/2/3
f 13/2/3 11/2/3 9/2/3
f 13/1/3 12/1/3 11/1/3
f 14/2/3 10/2/3 12/2/3
f 14/1/3 12/1/3 13/1/3
f 15/2/3 13/2/3 9/2/3
f 15/2/3 14/2/3 13/2/3
f 16/2/3 10/2/3 14/2/3
f 16/2/3 14/2/3 15/2/3
f 17/3/3 16/3/3 15/3/3
f 18/3/3 16/3/3 17/3/3
f 19/2/4 20/2/4 21/2/4
f 21/2/4 20/2/4 22/2/4
f 21/3/4 22/3/4 23/3/4
f 23/3/4 22/3/4 24/3/4
f 28/2/5 26/2/5 25/2/5
f 29/3/5 27/3/5 26/3/5
f 29/2/5 26/2/5 28/2/5
f 30/3/5 27/3/5 29/3/5
f 31/2/6 32/2/6 34/2/6
f 32/3/6 33/3/6 35/3/6
f 34/2/6 32/2/6 35/2/6
f 35/3/6 33/3/6 36/3/6
