# MagicaVoxel @ Ephtracy

# group
o 

# material
mtllib model-1.mtl
usemtl palette

# normals
vn 0 0 1
vn 0 0 -1
vn 1 0 0
vn -1 0 0
vn 0 -1 0
vn 0 1 0

# texcoords
vt 0.0761719 0.5
vt 0.0996094 0.5
vt 0.138672 0.5
vt 0.509766 0.5
vt 0.513672 0.5
vt 0.521484 0.5
vt 0.568359 0.5

# verts
v 0.5 0 1
v -0.5 0 1
v 0.5 0.7 1
v -0.5 0.7 1
v 0.6 0 0.9
v 0.5 0 0.9
v 0.6 0.7 0.9
v 0.5 0.7 0.9
v 0.5 0 0.2
v 0.4 0 0.2
v 0.5 0.1 0.2
v 0.4 0.1 0.2
v 0.4 0.3 0.2
v 0.5 0.4 0.2
v 0.4 0.4 0.2
v 0.5 0.1 -0.1
v 0.4 0.1 -0.1
v 0.5 0.2 -0.1
v 0.4 0.2 -0.1
v 0.5 0.3 -0.1
v 0.4 0.3 -0.1
v 0.6 0 -0.3
v 0.4 0 -0.3
v 0.4 0.1 -0.3
v 0.4 0.3 -0.3
v 0.6 0.7 -0.3
v 0.4 0.7 -0.3
v 0.4 0 -0.9
v -0.4 0 -0.9
v 0.4 0.1 -0.9
v -0.4 0.1 -0.9
v 0.4 0 0.9
v -0.4 0 0.9
v 0.4 0.1 0.9
v -0.4 0.1 0.9
v 0.6 0 0.3
v 0.4 0 0.3
v 0.4 0.1 0.3
v 0.4 0.3 0.3
v 0.6 0.7 0.3
v 0.4 0.7 0.3
v 0.5 0.1 0.1
v 0.4 0.1 0.1
v 0.5 0.3 0.1
v 0.4 0.3 0.1
v 0.5 0 -0.2
v 0.4 0 -0.2
v 0.4 0.1 -0.2
v 0.5 0.2 -0.2
v 0.4 0.2 -0.2
v 0.4 0.3 -0.2
v 0.5 0.4 -0.2
v 0.4 0.4 -0.2
v 0.6 0 -0.9
v 0.5 0 -0.9
v 0.6 0.7 -0.9
v 0.5 0.7 -0.9
v 0.5 0 -1
v -0.5 0 -1
v 0.5 0.7 -1
v -0.5 0.7 -1
v 0.6 0 0.9
v 0.6 0.7 0.9
v 0.6 0.1 0.8
v 0.6 0.2 0.8
v 0.6 0.2 0.7
v 0.6 0.3 0.7
v 0.6 0.2 0.6
v 0.6 0.3 0.6
v 0.6 0.2 0.5
v 0.6 0.4 0.5
v 0.6 0.1 0.4
v 0.6 0.4 0.4
v 0.6 0 0.3
v 0.6 0.7 0.3
v 0.6 0 -0.3
v 0.6 0.7 -0.3
v 0.6 0.1 -0.4
v 0.6 0.4 -0.4
v 0.6 0.2 -0.5
v 0.6 0.4 -0.5
v 0.6 0.2 -0.6
v 0.6 0.3 -0.6
v 0.6 0.2 -0.7
v 0.6 0.3 -0.7
v 0.6 0.1 -0.8
v 0.6 0.2 -0.8
v 0.6 0 -0.9
v 0.6 0.7 -0.9
v 0.5 0 1
v 0.5 0.7 1
v 0.5 0 0.9
v 0.5 0.7 0.9
v 0.5 0 0.2
v 0.5 0.1 0.2
v 0.5 0.4 0.2
v 0.5 0.1 0.1
v 0.5 0.3 0.1
v 0.5 0 0
v 0.5 0.1 0
v 0.5 0.3 0
v 0.5 0.4 0
v 0.5 0.1 -0.1
v 0.5 0.2 -0.1
v 0.5 0.3 -0.1
v 0.5 0 -0.2
v 0.5 0.2 -0.2
v 0.5 0.4 -0.2
v 0.5 0 -0.9
v 0.5 0.7 -0.9
v 0.5 0 -1
v 0.5 0.7 -1
v 0.4 0.1 0.3
v 0.4 0.3 0.3
v 0.4 0.7 0.3
v 0.4 0.1 0.2
v 0.4 0.3 0.2
v 0.4 0.4 0.2
v 0.4 0.1 0.1
v 0.4 0.3 0.1
v 0.4 0.1 0
v 0.4 0.3 0
v 0.4 0.4 0
v 0.4 0.1 -0.1
v 0.4 0.2 -0.1
v 0.4 0.3 -0.1
v 0.4 0.1 -0.2
v 0.4 0.2 -0.2
v 0.4 0.3 -0.2
v 0.4 0.4 -0.2
v 0.4 0.1 -0.3
v 0.4 0.3 -0.3
v 0.4 0.7 -0.3
v -0.4 0 0.9
v -0.4 0.1 0.9
v -0.4 0 -0.9
v -0.4 0.1 -0.9
v 0.4 0 0.9
v 0.4 0.1 0.9
v 0.4 0 0.3
v 0.4 0.1 0.3
v 0.4 0 0.2
v 0.4 0.1 0.2
v 0.4 0 0
v 0.4 0.1 0
v 0.4 0 -0.2
v 0.4 0.1 -0.2
v 0.4 0 -0.3
v 0.4 0.1 -0.3
v 0.4 0 -0.9
v 0.4 0.1 -0.9
v -0.5 0 1
v -0.5 0.7 1
v -0.5 0.1 0.9
v -0.5 0.5 0.9
v -0.5 0.2 0.8
v -0.5 0.4 0.8
v -0.5 0.3 0.7
v -0.5 0.4 0.7
v -0.5 0.3 0.6
v -0.5 0.5 0.6
v -0.5 0.2 0.5
v -0.5 0.3 0.5
v -0.5 0.2 0.4
v -0.5 0.3 0.4
v -0.5 0.1 0.2
v -0.5 0.2 0.2
v -0.5 0.1 -0.2
v -0.5 0.2 -0.2
v -0.5 0.2 -0.4
v -0.5 0.3 -0.4
v -0.5 0.2 -0.5
v -0.5 0.3 -0.5
v -0.5 0.3 -0.6
v -0.5 0.5 -0.6
v -0.5 0.3 -0.7
v -0.5 0.4 -0.7
v -0.5 0.2 -0.8
v -0.5 0.4 -0.8
v -0.5 0.1 -0.9
v -0.5 0.5 -0.9
v -0.5 0 -1
v -0.5 0.7 -1
v 0.6 0 0.9
v 0.6 0 0.3
v 0.6 0 -0.3
v 0.6 0 -0.9
v 0.5 0 1
v 0.5 0 0.9
v 0.5 0 0.2
v 0.5 0 0
v 0.5 0 -0.2
v 0.5 0 -0.9
v 0.5 0 -1
v 0.4 0 0.9
v 0.4 0 0.3
v 0.4 0 0.2
v 0.4 0 0
v 0.4 0 -0.2
v 0.4 0 -0.3
v 0.4 0 -0.9
v -0.4 0 0.9
v -0.4 0 -0.9
v -0.5 0 1
v -0.5 0 -1
v 0.4 0.1 0.9
v 0.4 0.1 0.3
v 0.4 0.1 0.2
v 0.4 0.1 0
v 0.4 0.1 -0.2
v 0.4 0.1 -0.3
v 0.4 0.1 -0.9
v -0.4 0.1 0.9
v -0.4 0.1 -0.9
v 0.5 0.3 0.1
v 0.5 0.3 0
v 0.5 0.3 -0.1
v 0.4 0.3 0.1
v 0.4 0.3 0
v 0.4 0.3 -0.1
v 0.5 0.1 0.1
v 0.5 0.1 0
v 0.5 0.1 -0.1
v 0.4 0.1 0.1
v 0.4 0.1 0
v 0.4 0.1 -0.1
v 0.5 0.4 0.2
v 0.5 0.4 0
v 0.5 0.4 -0.2
v 0.4 0.4 0.2
v 0.4 0.4 0
v 0.4 0.4 -0.2
v 0.6 0.7 0.9
v 0.6 0.7 0.3
v 0.6 0.7 -0.3
v 0.6 0.7 -0.9
v 0.5 0.7 1
v 0.5 0.7 0.9
v 0.5 0.7 -0.9
v 0.5 0.7 -1
v 0.4 0.7 0.3
v 0.4 0.7 -0.3
v 0.3 0.7 0.3
v 0.3 0.7 -0.3
v -0.5 0.7 1
v -0.5 0.7 -1

# faces
f 3/7/1 2/7/1 1/7/1
f 4/7/1 2/7/1 3/7/1
f 7/7/1 6/7/1 5/7/1
f 8/7/1 6/7/1 7/7/1
f 11/4/1 10/4/1 9/4/1
f 12/4/1 10/4/1 11/4/1
f 13/5/1 12/5/1 11/5/1
f 14/5/1 13/5/1 11/5/1
f 15/5/1 13/5/1 14/5/1
f 18/5/1 17/5/1 16/5/1
f 19/5/1 17/5/1 18/5/1
f 20/6/1 19/6/1 18/6/1
f 21/6/1 19/6/1 20/6/1
f 24/7/1 23/7/1 22/7/1
f 25/7/1 24/7/1 22/7/1
f 26/7/1 25/7/1 22/7/1
f 27/7/1 25/7/1 26/7/1
f 30/7/1 29/7/1 28/7/1
f 31/7/1 29/7/1 30/7/1
f 32/7/2 33/7/2 34/7/2
f 34/7/2 33/7/2 35/7/2
f 36/7/2 37/7/2 38/7/2
f 36/7/2 38/7/2 39/7/2
f 36/7/2 39/7/2 40/7/2
f 40/7/2 39/7/2 41/7/2
f 42/5/2 43/5/2 44/5/2
f 44/5/2 43/5/2 45/5/2
f 46/5/2 47/5/2 48/5/2
f 46/5/2 48/5/2 49/5/2
f 49/5/2 48/5/2 50/5/2
f 49/6/2 50/6/2 51/6/2
f 49/6/2 51/6/2 52/6/2
f 52/6/2 51/6/2 53/6/2
f 54/7/2 55/7/2 56/7/2
f 56/7/2 55/7/2 57/7/2
f 58/7/2 59/7/2 60/7/2
f 60/7/2 59/7/2 61/7/2
f 64/7/3 63/7/3 62/7/3
f 65/7/3 63/7/3 64/7/3
f 66/3/3 65/3/3 64/3/3
f 66/7/3 63/7/3 65/7/3
f 67/7/3 63/7/3 66/7/3
f 68/3/3 66/3/3 64/3/3
f 68/3/3 67/3/3 66/3/3
f 69/7/3 63/7/3 67/7/3
f 69/3/3 67/3/3 68/3/3
f 70/3/3 68/3/3 64/3/3
f 70/7/3 69/7/3 68/7/3
f 71/7/3 63/7/3 69/7/3
f 71/7/3 69/7/3 70/7/3
f 72/7/3 64/7/3 62/7/3
f 72/3/3 70/3/3 64/3/3
f 72/3/3 71/3/3 70/3/3
f 73/7/3 63/7/3 71/7/3
f 73/3/3 71/3/3 72/3/3
f 74/7/3 72/7/3 62/7/3
f 74/7/3 73/7/3 72/7/3
f 75/7/3 63/7/3 73/7/3
f 75/7/3 73/7/3 74/7/3
f 78/7/3 77/7/3 76/7/3
f 79/7/3 77/7/3 78/7/3
f 80/3/3 79/3/3 78/3/3
f 81/7/3 77/7/3 79/7/3
f 81/3/3 79/3/3 80/3/3
f 82/3/3 80/3/3 78/3/3
f 82/7/3 81/7/3 80/7/3
f 83/7/3 81/7/3 82/7/3
f 84/3/3 82/3/3 78/3/3
f 84/3/3 83/3/3 82/3/3
f 85/7/3 81/7/3 83/7/3
f 85/3/3 83/3/3 84/3/3
f 86/7/3 78/7/3 76/7/3
f 86/3/3 84/3/3 78/3/3
f 87/7/3 85/7/3 84/7/3
f 87/3/3 84/3/3 86/3/3
f 88/7/3 86/7/3 76/7/3
f 88/7/3 87/7/3 86/7/3
f 89/7/3 81/7/3 85/7/3
f 89/7/3 87/7/3 88/7/3
f 89/7/3 77/7/3 81/7/3
f 89/7/3 85/7/3 87/7/3
f 92/7/3 91/7/3 90/7/3
f 93/7/3 91/7/3 92/7/3
f 97/4/3 95/4/3 94/4/3
f 97/5/3 96/5/3 95/5/3
f 98/5/3 96/5/3 97/5/3
f 99/4/3 97/4/3 94/4/3
f 100/4/3 97/4/3 99/4/3
f 101/5/3 96/5/3 98/5/3
f 102/5/3 96/5/3 101/5/3
f 103/5/3 100/5/3 99/5/3
f 105/6/3 102/6/3 101/6/3
f 106/5/3 104/5/3 103/5/3
f 106/5/3 103/5/3 99/5/3
f 107/6/3 105/6/3 104/6/3
f 107/5/3 104/5/3 106/5/3
f 108/6/3 102/6/3 105/6/3
f 108/6/3 105/6/3 107/6/3
f 111/7/3 110/7/3 109/7/3
f 112/7/3 110/7/3 111/7/3
f 116/2/3 114/2/3 113/2/3
f 117/1/3 115/1/3 114/1/3
f 117/2/3 114/2/3 116/2/3
f 118/1/3 115/1/3 117/1/3
f 121/2/3 120/2/3 119/2/3
f 122/2/3 120/2/3 121/2/3
f 123/1/3 115/1/3 118/1/3
f 124/2/3 122/2/3 121/2/3
f 125/2/3 122/2/3 124/2/3
f 126/2/3 122/2/3 125/2/3
f 130/1/3 115/1/3 123/1/3
f 131/2/3 129/2/3 128/2/3
f 131/2/3 128/2/3 127/2/3
f 132/1/3 130/1/3 129/1/3
f 132/2/3 129/2/3 131/2/3
f 133/1/3 115/1/3 130/1/3
f 133/1/3 130/1/3 132/1/3
f 136/7/3 135/7/3 134/7/3
f 137/7/3 135/7/3 136/7/3
f 138/7/4 139/7/4 140/7/4
f 140/7/4 139/7/4 141/7/4
f 142/4/4 143/4/4 144/4/4
f 144/4/4 143/4/4 145/4/4
f 144/5/4 145/5/4 146/5/4
f 146/5/4 145/5/4 147/5/4
f 148/7/4 149/7/4 150/7/4
f 150/7/4 149/7/4 151/7/4
f 152/7/4 153/7/4 154/7/4
f 154/7/4 153/7/4 155/7/4
f 154/3/4 155/3/4 156/3/4
f 156/3/4 155/3/4 157/3/4
f 156/7/4 157/7/4 158/7/4
f 157/3/4 155/3/4 159/3/4
f 158/7/4 157/7/4 159/7/4
f 156/7/4 158/7/4 160/7/4
f 158/3/4 159/3/4 160/3/4
f 155/7/4 153/7/4 161/7/4
f 160/3/4 159/3/4 161/3/4
f 159/3/4 155/3/4 161/3/4
f 156/7/4 160/7/4 162/7/4
f 154/3/4 156/3/4 162/3/4
f 160/7/4 161/7/4 162/7/4
f 162/7/4 161/7/4 163/7/4
f 154/3/4 162/3/4 164/3/4
f 162/3/4 163/3/4 164/3/4
f 163/7/4 161/7/4 165/7/4
f 164/3/4 163/3/4 165/3/4
f 152/7/4 154/7/4 166/7/4
f 154/3/4 164/3/4 166/3/4
f 164/7/4 165/7/4 167/7/4
f 166/3/4 164/3/4 167/3/4
f 152/7/4 166/7/4 168/7/4
f 166/7/4 167/7/4 168/7/4
f 167/7/4 165/7/4 169/7/4
f 168/7/4 167/7/4 169/7/4
f 168/3/4 169/3/4 170/3/4
f 169/7/4 165/7/4 170/7/4
f 165/7/4 161/7/4 171/7/4
f 170/7/4 165/7/4 171/7/4
f 168/3/4 170/3/4 172/3/4
f 170/3/4 171/3/4 172/3/4
f 171/7/4 161/7/4 173/7/4
f 172/3/4 171/3/4 173/3/4
f 172/7/4 173/7/4 174/7/4
f 173/7/4 161/7/4 174/7/4
f 161/7/4 153/7/4 175/7/4
f 174/7/4 161/7/4 175/7/4
f 172/7/4 174/7/4 176/7/4
f 174/3/4 175/3/4 176/3/4
f 176/3/4 175/3/4 177/3/4
f 168/3/4 172/3/4 178/3/4
f 172/7/4 176/7/4 178/7/4
f 176/7/4 177/7/4 178/7/4
f 177/3/4 175/3/4 179/3/4
f 178/7/4 177/7/4 179/7/4
f 168/3/4 178/3/4 180/3/4
f 152/7/4 168/7/4 180/7/4
f 178/3/4 179/3/4 180/3/4
f 179/3/4 175/3/4 181/3/4
f 180/3/4 179/3/4 181/3/4
f 175/7/4 153/7/4 181/7/4
f 152/7/4 180/7/4 182/7/4
f 180/7/4 181/7/4 182/7/4
f 181/7/4 153/7/4 183/7/4
f 182/7/4 181/7/4 183/7/4
f 189/7/5 185/7/5 184/7/5
f 193/7/5 187/7/5 186/7/5
f 195/7/5 185/7/5 189/7/5
f 195/7/5 189/7/5 188/7/5
f 196/7/5 185/7/5 195/7/5
f 197/4/5 191/4/5 190/4/5
f 198/5/5 192/5/5 191/5/5
f 198/4/5 191/4/5 197/4/5
f 199/5/5 192/5/5 198/5/5
f 200/7/5 194/7/5 193/7/5
f 200/7/5 193/7/5 186/7/5
f 201/7/5 194/7/5 200/7/5
f 202/7/5 195/7/5 188/7/5
f 203/7/5 194/7/5 201/7/5
f 204/7/5 202/7/5 188/7/5
f 204/7/5 203/7/5 202/7/5
f 205/7/5 194/7/5 203/7/5
f 205/7/5 203/7/5 204/7/5
f 213/2/5 207/2/5 206/2/5
f 213/2/5 212/2/5 211/2/5
f 213/2/5 211/2/5 210/2/5
f 213/2/5 210/2/5 209/2/5
f 213/2/5 209/2/5 208/2/5
f 213/2/5 208/2/5 207/2/5
f 214/2/5 212/2/5 213/2/5
f 218/5/5 216/5/5 215/5/5
f 219/6/5 217/6/5 216/6/5
f 219/5/5 216/5/5 218/5/5
f 220/6/5 217/6/5 219/6/5
f 221/4/6 222/4/6 224/4/6
f 222/5/6 223/5/6 225/5/6
f 224/4/6 222/4/6 225/4/6
f 225/5/6 223/5/6 226/5/6
f 227/5/6 228/5/6 230/5/6
f 228/6/6 229/6/6 231/6/6
f 230/5/6 228/5/6 231/5/6
f 231/6/6 229/6/6 232/6/6
f 233/7/6 234/7/6 238/7/6
f 235/7/6 236/7/6 239/7/6
f 237/7/6 238/7/6 241/7/6
f 238/7/6 234/7/6 241/7/6
f 239/7/6 240/7/6 242/7/6
f 235/7/6 239/7/6 242/7/6
f 237/7/6 241/7/6 243/7/6
f 241/1/6 242/1/6 243/1/6
f 242/7/6 240/7/6 244/7/6
f 243/1/6 242/1/6 244/1/6
f 237/7/6 243/7/6 245/7/6
f 243/7/6 244/7/6 245/7/6
f 244/7/6 240/7/6 246/7/6
f 245/7/6 244/7/6 246/7/6
