# MagicaVoxel @ Ephtracy

# group
o 

# material
mtllib model-0.mtl
usemtl palette

# normals
vn 0 0 1
vn 0 0 -1
vn 1 0 0
vn -1 0 0
vn 0 -1 0
vn 0 1 0

# texcoords
vt 0.0761719 0.5
vt 0.107422 0.5
vt 0.138672 0.5
vt 0.568359 0.5

# verts
v 0.6 1.6 1.1
v 0.5 1.6 1.1
v -0.5 1.9 1.1
v -0.6 1.9 1.1
v 0.5 2 1.1
v -0.5 2 1.1
v 0.6 2.1 1.1
v -0.6 2.1 1.1
v 0.5 0.6 1
v -0.5 0.6 1
v 0.5 1.6 1
v -0.5 1.9 1
v 0.5 2 1
v -0.5 2 1
v 0.6 0.6 0.9
v 0.5 0.6 0.9
v 0.6 1.5 0.9
v 0.5 1.5 0.9
v 0.6 1.5 0.8
v 0.5 1.5 0.8
v 0.6 1.6 0.8
v 0.5 1.6 0.8
v 0.5 2.1 0.5
v -0.4 2.1 0.5
v 0.5 2.2 0.5
v -0.4 2.2 0.5
v 0.7 1.1 0.3
v 0.6 1.1 0.3
v 0.7 1.7 0.3
v 0.6 1.7 0.3
v 0.7 1 0.2
v 0.5 1 0.2
v 0.7 1.1 0.2
v 0.5 1.1 0.2
v 0.6 1.7 0.2
v 0.5 1.7 0.2
v 0.4 1.7 0.2
v 0.7 1.8 0.2
v 0.6 1.8 0.2
v 0.5 1.9 0.2
v 0.4 1.9 0.2
v 0.7 2.2 0.2
v 0.5 2.2 0.2
v 0.7 1 -0.1
v 0.5 1 -0.1
v 0.7 1.7 -0.1
v 0.6 1.7 -0.1
v 0.5 1.7 -0.1
v 0.6 0.6 -0.3
v 0.4 0.6 -0.3
v 0.6 1.1 -0.3
v 0.5 1.1 -0.3
v 0.6 1.7 -0.3
v 0.5 1.7 -0.3
v 0.5 1.9 -0.3
v 0.4 1.9 -0.3
v 0.6 2.1 -0.3
v 0.5 2.1 -0.3
v 0.6 0.6 0.3
v 0.4 0.6 0.3
v 0.6 1.1 0.3
v 0.5 1.1 0.3
v 0.6 1.7 0.3
v 0.5 1.7 0.3
v 0.5 1.9 0.3
v 0.4 1.9 0.3
v 0.6 2.1 0.3
v 0.5 2.1 0.3
v 0.7 1 0.1
v 0.5 1 0.1
v 0.7 1.7 0.1
v 0.6 1.7 0.1
v 0.5 1.7 0.1
v 0.7 1 -0.2
v 0.5 1 -0.2
v 0.7 1.1 -0.2
v 0.5 1.1 -0.2
v 0.6 1.7 -0.2
v 0.5 1.7 -0.2
v 0.4 1.7 -0.2
v 0.7 1.8 -0.2
v 0.6 1.8 -0.2
v 0.5 1.9 -0.2
v 0.4 1.9 -0.2
v 0.7 2.2 -0.2
v 0.5 2.2 -0.2
v 0.7 1.1 -0.3
v 0.6 1.1 -0.3
v 0.7 1.7 -0.3
v 0.6 1.7 -0.3
v 0.5 2.1 -0.5
v -0.4 2.1 -0.5
v 0.5 2.2 -0.5
v -0.4 2.2 -0.5
v 0.6 1.5 -0.8
v 0.5 1.5 -0.8
v 0.6 1.6 -0.8
v 0.5 1.6 -0.8
v 0.6 0.6 -0.9
v 0.5 0.6 -0.9
v 0.6 1.5 -0.9
v 0.5 1.5 -0.9
v 0.5 0.6 -1
v -0.5 0.6 -1
v 0.5 1.6 -1
v -0.5 1.9 -1
v 0.5 2 -1
v -0.5 2 -1
v 0.6 1.6 -1.1
v 0.5 1.6 -1.1
v -0.5 1.9 -1.1
v -0.6 1.9 -1.1
v 0.5 2 -1.1
v -0.5 2 -1.1
v 0.6 2.1 -1.1
v -0.6 2.1 -1.1
v 0.7 1.1 0.3
v 0.7 1.7 0.3
v 0.7 1 0.2
v 0.7 1.1 0.2
v 0.7 1.8 0.2
v 0.7 2.2 0.2
v 0.7 1 0.1
v 0.7 1.7 0.1
v 0.7 1 -0.1
v 0.7 1.7 -0.1
v 0.7 1 -0.2
v 0.7 1.1 -0.2
v 0.7 1.8 -0.2
v 0.7 2.2 -0.2
v 0.7 1.1 -0.3
v 0.7 1.7 -0.3
v 0.6 1.6 1.1
v 0.6 2.1 1.1
v 0.6 1.7 1
v 0.6 2 1
v 0.6 0.6 0.9
v 0.6 1.5 0.9
v 0.6 1.8 0.9
v 0.6 1.9 0.9
v 0.6 1.1 0.8
v 0.6 1.4 0.8
v 0.6 1.5 0.8
v 0.6 1.6 0.8
v 0.6 1.9 0.8
v 0.6 2 0.8
v 0.6 0.8 0.7
v 0.6 1 0.7
v 0.6 1.2 0.7
v 0.6 1.3 0.7
v 0.6 1.5 0.7
v 0.6 1.7 0.7
v 0.6 1.8 0.7
v 0.6 2 0.7
v 0.6 0.8 0.6
v 0.6 0.9 0.6
v 0.6 1.1 0.6
v 0.6 1.2 0.6
v 0.6 1.5 0.6
v 0.6 1.9 0.6
v 0.6 0.7 0.5
v 0.6 0.9 0.5
v 0.6 1 0.5
v 0.6 1.3 0.5
v 0.6 1.8 0.5
v 0.6 1.9 0.5
v 0.6 0.7 0.4
v 0.6 1.4 0.4
v 0.6 1.8 0.4
v 0.6 2 0.4
v 0.6 0.6 0.3
v 0.6 1.1 0.3
v 0.6 1.7 0.3
v 0.6 2.1 0.3
v 0.6 1.7 0.2
v 0.6 1.8 0.2
v 0.6 1.7 0.1
v 0.6 1.7 -0.1
v 0.6 1.7 -0.2
v 0.6 1.8 -0.2
v 0.6 0.6 -0.3
v 0.6 1.1 -0.3
v 0.6 1.7 -0.3
v 0.6 2.1 -0.3
v 0.6 0.7 -0.4
v 0.6 1.4 -0.4
v 0.6 1.8 -0.4
v 0.6 2 -0.4
v 0.6 0.7 -0.5
v 0.6 0.9 -0.5
v 0.6 1 -0.5
v 0.6 1.3 -0.5
v 0.6 1.8 -0.5
v 0.6 1.9 -0.5
v 0.6 0.8 -0.6
v 0.6 0.9 -0.6
v 0.6 1.1 -0.6
v 0.6 1.2 -0.6
v 0.6 1.5 -0.6
v 0.6 1.9 -0.6
v 0.6 0.8 -0.7
v 0.6 1 -0.7
v 0.6 1.2 -0.7
v 0.6 1.3 -0.7
v 0.6 1.5 -0.7
v 0.6 1.7 -0.7
v 0.6 1.8 -0.7
v 0.6 2 -0.7
v 0.6 1.1 -0.8
v 0.6 1.4 -0.8
v 0.6 1.5 -0.8
v 0.6 1.6 -0.8
v 0.6 1.9 -0.8
v 0.6 2 -0.8
v 0.6 0.6 -0.9
v 0.6 1.5 -0.9
v 0.6 1.8 -0.9
v 0.6 1.9 -0.9
v 0.6 1.7 -1
v 0.6 2 -1
v 0.6 1.6 -1.1
v 0.6 2.1 -1.1
v 0.5 0.6 1
v 0.5 1.6 1
v 0.5 0.6 0.9
v 0.5 1.5 0.9
v 0.5 1.5 0.8
v 0.5 1.6 0.8
v 0.5 2.1 0.5
v 0.5 2.2 0.5
v 0.5 1.9 0.3
v 0.5 2.1 0.3
v 0.5 1.9 0.2
v 0.5 2.2 0.2
v 0.5 1.9 -0.2
v 0.5 2.2 -0.2
v 0.5 1.9 -0.3
v 0.5 2.1 -0.3
v 0.5 2.1 -0.5
v 0.5 2.2 -0.5
v 0.5 1.5 -0.8
v 0.5 1.6 -0.8
v 0.5 0.6 -0.9
v 0.5 1.5 -0.9
v 0.5 0.6 -1
v 0.5 1.6 -1
v 0.4 0.6 0.3
v 0.4 1.9 0.3
v 0.4 1.7 0.2
v 0.4 1.9 0.2
v 0.4 1.7 -0.2
v 0.4 1.9 -0.2
v 0.4 0.6 -0.3
v 0.4 1.9 -0.3
v -0.5 1.9 1.1
v -0.5 2 1.1
v -0.5 1.9 1
v -0.5 2 1
v -0.5 1.9 -1
v -0.5 2 -1
v -0.5 1.9 -1.1
v -0.5 2 -1.1
v 0.5 1.6 1.1
v 0.5 2 1.1
v 0.5 1.6 1
v 0.5 2 1
v 0.5 1.1 0.3
v 0.5 1.7 0.3
v 0.5 1 0.2
v 0.5 1.1 0.2
v 0.5 1.7 0.2
v 0.5 1 0.1
v 0.5 1.7 0.1
v 0.5 1 -0.1
v 0.5 1.7 -0.1
v 0.5 1 -0.2
v 0.5 1.1 -0.2
v 0.5 1.7 -0.2
v 0.5 1.1 -0.3
v 0.5 1.7 -0.3
v 0.5 1.6 -1
v 0.5 2 -1
v 0.5 1.6 -1.1
v 0.5 2 -1.1
v -0.4 2.1 0.5
v -0.4 2.2 0.5
v -0.4 2.1 -0.5
v -0.4 2.2 -0.5
v -0.5 0.6 1
v -0.5 1.9 1
v -0.5 1.7 0.9
v -0.5 1.8 0.9
v -0.5 1.6 0.8
v -0.5 1.7 0.8
v -0.5 1.6 0.7
v -0.5 1.7 0.7
v -0.5 1.3 0.5
v -0.5 1.7 0.5
v -0.5 1.4 0.4
v -0.5 1.7 0.4
v -0.5 1.5 0.3
v -0.5 1.6 0.3
v -0.5 1.4 0.2
v -0.5 1.5 0.2
v -0.5 1.3 0.1
v -0.5 1.6 0.1
v -0.5 1.3 -0.1
v -0.5 1.6 -0.1
v -0.5 1.4 -0.2
v -0.5 1.5 -0.2
v -0.5 1.5 -0.3
v -0.5 1.6 -0.3
v -0.5 1.4 -0.4
v -0.5 1.7 -0.4
v -0.5 1.3 -0.5
v -0.5 1.7 -0.5
v -0.5 1.6 -0.7
v -0.5 1.7 -0.7
v -0.5 1.6 -0.8
v -0.5 1.7 -0.8
v -0.5 1.7 -0.9
v -0.5 1.8 -0.9
v -0.5 0.6 -1
v -0.5 1.9 -1
v -0.6 1.9 1.1
v -0.6 2.1 1.1
v -0.6 1.9 -1.1
v -0.6 2.1 -1.1
v 0.6 0.6 0.9
v 0.6 0.6 0.3
v 0.6 0.6 -0.3
v 0.6 0.6 -0.9
v 0.5 0.6 1
v 0.5 0.6 0.9
v 0.5 0.6 -0.9
v 0.5 0.6 -1
v 0.4 0.6 0.4
v 0.4 0.6 0.3
v 0.4 0.6 -0.3
v 0.4 0.6 -0.4
v 0.3 0.6 0.4
v 0.3 0.6 -0.4
v -0.5 0.6 1
v -0.5 0.6 -1
v 0.7 1 0.2
v 0.7 1 0.1
v 0.7 1 -0.1
v 0.7 1 -0.2
v 0.5 1 0.2
v 0.5 1 0.1
v 0.5 1 -0.1
v 0.5 1 -0.2
v 0.7 1.1 0.3
v 0.7 1.1 0.2
v 0.7 1.1 -0.2
v 0.7 1.1 -0.3
v 0.6 1.1 0.3
v 0.6 1.1 -0.3
v 0.5 1.1 0.3
v 0.5 1.1 0.2
v 0.5 1.1 -0.2
v 0.5 1.1 -0.3
v 0.6 1.6 1.1
v 0.6 1.6 0.8
v 0.6 1.6 -0.8
v 0.6 1.6 -1.1
v 0.5 1.6 1.1
v 0.5 1.6 1
v 0.5 1.6 0.8
v 0.5 1.6 -0.8
v 0.5 1.6 -1
v 0.5 1.6 -1.1
v 0.6 1.7 0.1
v 0.6 1.7 -0.1
v 0.5 1.7 0.2
v 0.5 1.7 0.1
v 0.5 1.7 -0.1
v 0.5 1.7 -0.2
v 0.4 1.7 0.2
v 0.4 1.7 -0.2
v 0.7 1.8 0.2
v 0.7 1.8 -0.2
v 0.6 1.8 0.2
v 0.6 1.8 -0.2
v 0.5 1.9 0.3
v 0.5 1.9 0.2
v 0.5 1.9 -0.2
v 0.5 1.9 -0.3
v 0.4 1.9 0.3
v 0.4 1.9 0.2
v 0.4 1.9 -0.2
v 0.4 1.9 -0.3
v -0.5 1.9 1.1
v -0.5 1.9 1
v -0.5 1.9 -1
v -0.5 1.9 -1.1
v -0.6 1.9 1.1
v -0.6 1.9 -1.1
v 0.5 2 1.1
v 0.5 2 1
v 0.5 2 -1
v 0.5 2 -1.1
v -0.5 2 1.1
v -0.5 2 1
v -0.5 2 -1
v -0.5 2 -1.1
v 0.6 1.5 0.9
v 0.6 1.5 0.8
v 0.6 1.5 -0.8
v 0.6 1.5 -0.9
v 0.5 1.5 0.9
v 0.5 1.5 0.8
v 0.5 1.5 -0.8
v 0.5 1.5 -0.9
v 0.7 1.7 0.3
v 0.7 1.7 0.1
v 0.7 1.7 -0.1
v 0.7 1.7 -0.3
v 0.6 1.7 0.3
v 0.6 1.7 0.2
v 0.6 1.7 0.1
v 0.6 1.7 -0.1
v 0.6 1.7 -0.2
v 0.6 1.7 -0.3
v 0.5 1.7 0.3
v 0.5 1.7 0.2
v 0.5 1.7 -0.2
v 0.5 1.7 -0.3
v 0.6 2.1 1.1
v 0.6 2.1 0.3
v 0.6 2.1 -0.3
v 0.6 2.1 -1.1
v 0.5 2.1 0.5
v 0.5 2.1 0.3
v 0.5 2.1 -0.3
v 0.5 2.1 -0.5
v -0.4 2.1 0.5
v -0.4 2.1 -0.5
v -0.6 2.1 1.1
v -0.6 2.1 -1.1
v 0.7 2.2 0.2
v 0.7 2.2 -0.2
v 0.5 2.2 0.5
v 0.5 2.2 0.2
v 0.5 2.2 -0.2
v 0.5 2.2 -0.5
v -0.4 2.2 0.5
v -0.4 2.2 -0.5

# faces
f 5/4/1 2/4/1 1/4/1
f 6/4/1 4/4/1 3/4/1
f 7/4/1 5/4/1 1/4/1
f 7/4/1 6/4/1 5/4/1
f 8/4/1 4/4/1 6/4/1
f 8/4/1 6/4/1 7/4/1
f 11/4/1 10/4/1 9/4/1
f 12/4/1 10/4/1 11/4/1
f 13/4/1 12/4/1 11/4/1
f 14/4/1 12/4/1 13/4/1
f 17/4/1 16/4/1 15/4/1
f 18/4/1 16/4/1 17/4/1
f 21/4/1 20/4/1 19/4/1
f 22/4/1 20/4/1 21/4/1
f 25/2/1 24/2/1 23/2/1
f 26/2/1 24/2/1 25/2/1
f 29/2/1 28/2/1 27/2/1
f 30/2/1 28/2/1 29/2/1
f 33/2/1 32/2/1 31/2/1
f 34/2/1 32/2/1 33/2/1
f 39/2/1 36/2/1 35/2/1
f 39/2/1 37/2/1 36/2/1
f 40/2/1 37/2/1 39/2/1
f 40/2/1 39/2/1 38/2/1
f 41/2/1 37/2/1 40/2/1
f 42/2/1 40/2/1 38/2/1
f 43/2/1 40/2/1 42/2/1
f 46/2/1 45/2/1 44/2/1
f 47/2/1 45/2/1 46/2/1
f 48/2/1 45/2/1 47/2/1
f 51/4/1 50/4/1 49/4/1
f 52/4/1 50/4/1 51/4/1
f 54/4/1 50/4/1 52/4/1
f 55/4/1 50/4/1 54/4/1
f 55/4/1 54/4/1 53/4/1
f 56/4/1 50/4/1 55/4/1
f 57/4/1 55/4/1 53/4/1
f 58/4/1 55/4/1 57/4/1
f 59/4/2 60/4/2 61/4/2
f 61/4/2 60/4/2 62/4/2
f 62/4/2 60/4/2 64/4/2
f 64/4/2 60/4/2 65/4/2
f 63/4/2 64/4/2 65/4/2
f 65/4/2 60/4/2 66/4/2
f 63/4/2 65/4/2 67/4/2
f 67/4/2 65/4/2 68/4/2
f 69/2/2 70/2/2 71/2/2
f 71/2/2 70/2/2 72/2/2
f 72/2/2 70/2/2 73/2/2
f 74/2/2 75/2/2 76/2/2
f 76/2/2 75/2/2 77/2/2
f 78/2/2 79/2/2 82/2/2
f 79/2/2 80/2/2 82/2/2
f 82/2/2 80/2/2 83/2/2
f 81/2/2 82/2/2 83/2/2
f 83/2/2 80/2/2 84/2/2
f 81/2/2 83/2/2 85/2/2
f 85/2/2 83/2/2 86/2/2
f 87/2/2 88/2/2 89/2/2
f 89/2/2 88/2/2 90/2/2
f 91/2/2 92/2/2 93/2/2
f 93/2/2 92/2/2 94/2/2
f 95/4/2 96/4/2 97/4/2
f 97/4/2 96/4/2 98/4/2
f 99/4/2 100/4/2 101/4/2
f 101/4/2 100/4/2 102/4/2
f 103/4/2 104/4/2 105/4/2
f 105/4/2 104/4/2 106/4/2
f 105/4/2 106/4/2 107/4/2
f 107/4/2 106/4/2 108/4/2
f 109/4/2 110/4/2 113/4/2
f 111/4/2 112/4/2 114/4/2
f 109/4/2 113/4/2 115/4/2
f 113/4/2 114/4/2 115/4/2
f 114/4/2 112/4/2 116/4/2
f 115/4/2 114/4/2 116/4/2
f 120/2/3 118/2/3 117/2/3
f 123/2/3 120/2/3 119/2/3
f 124/2/3 118/2/3 120/2/3
f 124/2/3 120/2/3 123/2/3
f 127/2/3 126/2/3 125/2/3
f 128/2/3 126/2/3 127/2/3
f 129/2/3 122/2/3 121/2/3
f 130/2/3 122/2/3 129/2/3
f 131/2/3 126/2/3 128/2/3
f 132/2/3 126/2/3 131/2/3
f 135/4/3 134/4/3 133/4/3
f 136/4/3 134/4/3 135/4/3
f 139/3/3 136/3/3 135/3/3
f 140/3/3 136/3/3 139/3/3
f 141/4/3 138/4/3 137/4/3
f 142/4/3 138/4/3 141/4/3
f 143/4/3 138/4/3 142/4/3
f 144/4/3 135/4/3 133/4/3
f 145/3/3 136/3/3 140/3/3
f 145/4/3 140/4/3 139/4/3
f 146/4/3 134/4/3 136/4/3
f 146/3/3 136/3/3 145/3/3
f 147/4/3 141/4/3 137/4/3
f 148/4/3 141/4/3 147/4/3
f 149/3/3 142/3/3 141/3/3
f 150/3/3 142/3/3 149/3/3
f 151/4/3 143/4/3 142/4/3
f 151/4/3 144/4/3 143/4/3
f 152/3/3 139/3/3 135/3/3
f 152/4/3 144/4/3 151/4/3
f 152/4/3 135/4/3 144/4/3
f 153/4/3 145/4/3 139/4/3
f 153/3/3 139/3/3 152/3/3
f 153/4/3 146/4/3 145/4/3
f 154/4/3 134/4/3 146/4/3
f 154/4/3 146/4/3 153/4/3
f 155/3/3 148/3/3 147/3/3
f 155/4/3 147/4/3 137/4/3
f 156/3/3 148/3/3 155/3/3
f 157/3/3 149/3/3 141/3/3
f 157/4/3 141/4/3 148/4/3
f 158/4/3 150/4/3 149/4/3
f 158/3/3 149/3/3 157/3/3
f 159/3/3 152/3/3 151/3/3
f 159/4/3 151/4/3 142/4/3
f 159/3/3 153/3/3 152/3/3
f 159/3/3 154/3/3 153/3/3
f 160/3/3 154/3/3 159/3/3
f 161/4/3 155/4/3 137/4/3
f 161/4/3 156/4/3 155/4/3
f 162/3/3 148/3/3 156/3/3
f 162/4/3 156/4/3 161/4/3
f 163/4/3 157/4/3 148/4/3
f 163/3/3 148/3/3 162/3/3
f 163/4/3 158/4/3 157/4/3
f 164/3/3 142/3/3 150/3/3
f 164/4/3 158/4/3 163/4/3
f 164/4/3 150/4/3 158/4/3
f 165/4/3 160/4/3 159/4/3
f 166/3/3 154/3/3 160/3/3
f 166/4/3 160/4/3 165/4/3
f 167/3/3 163/3/3 162/3/3
f 167/3/3 162/3/3 161/3/3
f 167/4/3 161/4/3 137/4/3
f 167/3/3 164/3/3 163/3/3
f 168/4/3 159/4/3 142/4/3
f 168/3/3 164/3/3 167/3/3
f 168/4/3 165/4/3 159/4/3
f 168/3/3 142/3/3 164/3/3
f 169/3/3 166/3/3 165/3/3
f 169/4/3 165/4/3 168/4/3
f 170/3/3 154/3/3 166/3/3
f 170/3/3 166/3/3 169/3/3
f 170/4/3 134/4/3 154/4/3
f 171/4/3 169/4/3 168/4/3
f 171/4/3 168/4/3 167/4/3
f 171/4/3 170/4/3 169/4/3
f 171/4/3 167/4/3 137/4/3
f 172/4/3 170/4/3 171/4/3
f 173/4/3 170/4/3 172/4/3
f 174/4/3 134/4/3 170/4/3
f 174/4/3 170/4/3 173/4/3
f 177/2/3 176/2/3 175/2/3
f 178/2/3 176/2/3 177/2/3
f 179/2/3 176/2/3 178/2/3
f 180/2/3 176/2/3 179/2/3
f 185/4/3 183/4/3 182/4/3
f 185/4/3 184/4/3 183/4/3
f 185/4/3 182/4/3 181/4/3
f 186/4/3 184/4/3 185/4/3
f 187/4/3 184/4/3 186/4/3
f 188/4/3 184/4/3 187/4/3
f 189/4/3 185/4/3 181/4/3
f 189/3/3 186/3/3 185/3/3
f 190/3/3 186/3/3 189/3/3
f 191/3/3 186/3/3 190/3/3
f 192/3/3 186/3/3 191/3/3
f 193/3/3 188/3/3 187/3/3
f 193/4/3 187/4/3 186/4/3
f 194/3/3 188/3/3 193/3/3
f 195/4/3 190/4/3 189/4/3
f 196/3/3 191/3/3 190/3/3
f 196/4/3 190/4/3 195/4/3
f 197/4/3 192/4/3 191/4/3
f 198/4/3 192/4/3 197/4/3
f 199/4/3 193/4/3 186/4/3
f 199/4/3 194/4/3 193/4/3
f 200/3/3 188/3/3 194/3/3
f 200/4/3 194/4/3 199/4/3
f 201/4/3 195/4/3 189/4/3
f 201/3/3 196/3/3 195/3/3
f 202/3/3 191/3/3 196/3/3
f 202/3/3 196/3/3 201/3/3
f 202/4/3 197/4/3 191/4/3
f 203/4/3 192/4/3 198/4/3
f 203/3/3 198/3/3 197/3/3
f 204/3/3 186/3/3 192/3/3
f 204/4/3 192/4/3 203/4/3
f 205/4/3 199/4/3 186/4/3
f 205/3/3 200/3/3 199/3/3
f 206/3/3 200/3/3 205/3/3
f 207/3/3 200/3/3 206/3/3
f 208/4/3 184/4/3 188/4/3
f 208/3/3 200/3/3 207/3/3
f 208/3/3 188/3/3 200/3/3
f 209/3/3 203/3/3 197/3/3
f 209/4/3 197/4/3 202/4/3
f 209/4/3 202/4/3 201/4/3
f 209/3/3 204/3/3 203/3/3
f 210/3/3 186/3/3 204/3/3
f 210/3/3 204/3/3 209/3/3
f 210/4/3 206/4/3 205/4/3
f 210/4/3 205/4/3 186/4/3
f 211/4/3 206/4/3 210/4/3
f 212/4/3 206/4/3 211/4/3
f 213/4/3 208/4/3 207/4/3
f 214/4/3 184/4/3 208/4/3
f 214/4/3 208/4/3 213/4/3
f 215/4/3 201/4/3 189/4/3
f 215/4/3 189/4/3 181/4/3
f 215/4/3 209/4/3 201/4/3
f 215/4/3 211/4/3 210/4/3
f 215/4/3 210/4/3 209/4/3
f 216/4/3 211/4/3 215/4/3
f 217/3/3 207/3/3 206/3/3
f 217/4/3 213/4/3 207/4/3
f 218/3/3 214/3/3 213/3/3
f 218/4/3 213/4/3 217/4/3
f 219/3/3 217/3/3 206/3/3
f 219/3/3 218/3/3 217/3/3
f 219/4/3 206/4/3 212/4/3
f 220/3/3 214/3/3 218/3/3
f 220/3/3 218/3/3 219/3/3
f 220/4/3 184/4/3 214/4/3
f 221/4/3 219/4/3 212/4/3
f 221/4/3 220/4/3 219/4/3
f 222/4/3 184/4/3 220/4/3
f 222/4/3 220/4/3 221/4/3
f 225/4/3 224/4/3 223/4/3
f 226/4/3 224/4/3 225/4/3
f 227/4/3 224/4/3 226/4/3
f 228/4/3 224/4/3 227/4/3
f 232/2/3 230/2/3 229/2/3
f 233/2/3 232/2/3 231/2/3
f 234/2/3 230/2/3 232/2/3
f 234/2/3 232/2/3 233/2/3
f 237/2/3 236/2/3 235/2/3
f 238/2/3 236/2/3 237/2/3
f 239/2/3 236/2/3 238/2/3
f 240/2/3 236/2/3 239/2/3
f 244/4/3 242/4/3 241/4/3
f 245/4/3 244/4/3 243/4/3
f 246/4/3 242/4/3 244/4/3
f 246/4/3 244/4/3 245/4/3
f 249/1/3 248/1/3 247/1/3
f 250/1/3 248/1/3 249/1/3
f 251/1/3 249/1/3 247/1/3
f 253/1/3 251/1/3 247/1/3
f 253/1/3 252/1/3 251/1/3
f 254/1/3 252/1/3 253/1/3
f 257/4/3 256/4/3 255/4/3
f 258/4/3 256/4/3 257/4/3
f 261/4/3 260/4/3 259/4/3
f 262/4/3 260/4/3 261/4/3
f 263/4/4 264/4/4 265/4/4
f 265/4/4 264/4/4 266/4/4
f 267/2/4 268/2/4 270/2/4
f 270/2/4 268/2/4 271/2/4
f 269/2/4 270/2/4 272/2/4
f 270/2/4 271/2/4 272/2/4
f 272/2/4 271/2/4 273/2/4
f 274/2/4 275/2/4 276/2/4
f 276/2/4 275/2/4 277/2/4
f 277/2/4 275/2/4 278/2/4
f 277/2/4 278/2/4 279/2/4
f 279/2/4 278/2/4 280/2/4
f 281/4/4 282/4/4 283/4/4
f 283/4/4 282/4/4 284/4/4
f 285/2/4 286/2/4 287/2/4
f 287/2/4 286/2/4 288/2/4
f 289/4/4 290/4/4 291/4/4
f 291/4/4 290/4/4 292/4/4
f 289/4/4 291/4/4 293/4/4
f 291/3/4 292/3/4 294/3/4
f 293/4/4 291/4/4 294/4/4
f 289/4/4 293/4/4 295/4/4
f 293/3/4 294/3/4 295/3/4
f 294/3/4 292/3/4 296/3/4
f 295/3/4 294/3/4 296/3/4
f 289/4/4 295/4/4 297/4/4
f 295/4/4 296/4/4 297/4/4
f 296/3/4 292/3/4 298/3/4
f 297/4/4 296/4/4 298/4/4
f 297/3/4 298/3/4 299/3/4
f 298/3/4 292/3/4 300/3/4
f 299/3/4 298/3/4 300/3/4
f 299/4/4 300/4/4 301/4/4
f 301/4/4 300/4/4 302/4/4
f 297/3/4 299/3/4 303/3/4
f 299/4/4 301/4/4 303/4/4
f 301/3/4 302/3/4 304/3/4
f 303/4/4 301/4/4 304/4/4
f 289/4/4 297/4/4 305/4/4
f 297/3/4 303/3/4 305/3/4
f 303/3/4 304/3/4 305/3/4
f 304/3/4 302/3/4 306/3/4
f 305/3/4 304/3/4 306/3/4
f 302/4/4 300/4/4 306/4/4
f 289/4/4 305/4/4 307/4/4
f 305/4/4 306/4/4 307/4/4
f 306/4/4 300/4/4 308/4/4
f 307/4/4 306/4/4 308/4/4
f 307/3/4 308/3/4 309/3/4
f 309/3/4 308/3/4 310/3/4
f 309/4/4 310/4/4 311/4/4
f 310/3/4 308/3/4 311/3/4
f 308/4/4 300/4/4 312/4/4
f 311/3/4 308/3/4 312/3/4
f 309/4/4 311/4/4 313/4/4
f 307/3/4 309/3/4 313/3/4
f 311/4/4 312/4/4 313/4/4
f 300/3/4 292/3/4 314/3/4
f 313/4/4 312/4/4 314/4/4
f 312/4/4 300/4/4 314/4/4
f 289/4/4 307/4/4 315/4/4
f 307/3/4 313/3/4 315/3/4
f 313/3/4 314/3/4 315/3/4
f 314/3/4 292/3/4 316/3/4
f 315/3/4 314/3/4 316/3/4
f 315/4/4 316/4/4 317/4/4
f 316/3/4 292/3/4 318/3/4
f 317/4/4 316/4/4 318/4/4
f 315/4/4 317/4/4 319/4/4
f 317/3/4 318/3/4 319/3/4
f 318/3/4 292/3/4 320/3/4
f 319/3/4 318/3/4 320/3/4
f 319/4/4 320/4/4 321/4/4
f 320/3/4 292/3/4 321/3/4
f 292/4/4 290/4/4 322/4/4
f 321/3/4 292/3/4 322/3/4
f 319/4/4 321/4/4 323/4/4
f 289/4/4 315/4/4 323/4/4
f 321/4/4 322/4/4 323/4/4
f 315/4/4 319/4/4 323/4/4
f 322/4/4 290/4/4 324/4/4
f 323/4/4 322/4/4 324/4/4
f 325/4/4 326/4/4 327/4/4
f 327/4/4 326/4/4 328/4/4
f 334/4/5 330/4/5 329/4/5
f 335/4/5 332/4/5 331/4/5
f 337/4/5 334/4/5 333/4/5
f 337/4/5 330/4/5 334/4/5
f 338/4/5 330/4/5 337/4/5
f 339/4/5 336/4/5 335/4/5
f 339/4/5 335/4/5 331/4/5
f 340/4/5 336/4/5 339/4/5
f 341/1/5 338/1/5 337/1/5
f 341/4/5 337/4/5 333/4/5
f 341/1/5 340/1/5 339/1/5
f 341/1/5 339/1/5 338/1/5
f 342/4/5 336/4/5 340/4/5
f 342/1/5 340/1/5 341/1/5
f 343/4/5 341/4/5 333/4/5
f 343/4/5 342/4/5 341/4/5
f 344/4/5 336/4/5 342/4/5
f 344/4/5 342/4/5 343/4/5
f 349/2/5 346/2/5 345/2/5
f 350/2/5 346/2/5 349/2/5
f 351/2/5 348/2/5 347/2/5
f 352/2/5 348/2/5 351/2/5
f 357/2/5 354/2/5 353/2/5
f 358/2/5 356/2/5 355/2/5
f 359/2/5 354/2/5 357/2/5
f 360/2/5 354/2/5 359/2/5
f 361/2/5 358/2/5 355/2/5
f 362/2/5 358/2/5 361/2/5
f 367/4/5 364/4/5 363/4/5
f 368/4/5 364/4/5 367/4/5
f 369/4/5 364/4/5 368/4/5
f 370/4/5 366/4/5 365/4/5
f 371/4/5 366/4/5 370/4/5
f 372/4/5 366/4/5 371/4/5
f 376/2/5 374/2/5 373/2/5
f 377/2/5 374/2/5 376/2/5
f 379/2/5 376/2/5 375/2/5
f 379/2/5 378/2/5 377/2/5
f 379/2/5 377/2/5 376/2/5
f 380/2/5 378/2/5 379/2/5
f 383/2/5 382/2/5 381/2/5
f 384/2/5 382/2/5 383/2/5
f 389/2/5 386/2/5 385/2/5
f 390/2/5 386/2/5 389/2/5
f 391/2/5 388/2/5 387/2/5
f 392/2/5 388/2/5 391/2/5
f 397/4/5 394/4/5 393/4/5
f 397/4/5 396/4/5 395/4/5
f 397/4/5 395/4/5 394/4/5
f 398/4/5 396/4/5 397/4/5
f 403/4/5 400/4/5 399/4/5
f 404/4/5 400/4/5 403/4/5
f 405/4/5 402/4/5 401/4/5
f 406/4/5 402/4/5 405/4/5
f 407/4/6 408/4/6 411/4/6
f 411/4/6 408/4/6 412/4/6
f 409/4/6 410/4/6 413/4/6
f 413/4/6 410/4/6 414/4/6
f 415/2/6 416/2/6 419/2/6
f 419/2/6 416/2/6 420/2/6
f 420/2/6 416/2/6 421/2/6
f 417/2/6 418/2/6 422/2/6
f 422/2/6 418/2/6 423/2/6
f 423/2/6 418/2/6 424/2/6
f 419/2/6 420/2/6 425/2/6
f 425/2/6 420/2/6 426/2/6
f 423/2/6 424/2/6 427/2/6
f 427/2/6 424/2/6 428/2/6
f 429/4/6 430/4/6 433/4/6
f 433/4/6 430/4/6 434/4/6
f 431/4/6 432/4/6 435/4/6
f 435/4/6 432/4/6 436/4/6
f 429/4/6 433/4/6 437/4/6
f 436/4/6 432/4/6 438/4/6
f 429/4/6 437/4/6 439/4/6
f 437/4/6 438/4/6 439/4/6
f 438/4/6 432/4/6 440/4/6
f 439/4/6 438/4/6 440/4/6
f 441/2/6 442/2/6 444/2/6
f 444/2/6 442/2/6 445/2/6
f 443/2/6 444/2/6 447/2/6
f 445/2/6 446/2/6 447/2/6
f 444/2/6 445/2/6 447/2/6
f 447/2/6 446/2/6 448/2/6
