# MagicaVoxel @ Ephtracy

# group
o 

# material
mtllib model.mtl
usemtl palette

# normals
vn 0 0 1
vn 0 0 -1
vn 1 0 0
vn -1 0 0
vn 0 -1 0
vn 0 1 0

# texcoords
vt 0.564453 0.5
vt 0.568359 0.5
vt 0.572266 0.5
vt 0.693359 0.5

# verts
v 0.2 0 3.7
v -0.2 0 3.7
v 0.2 1.7 3.7
v -0.2 1.7 3.7
v 0.2 1.8 3.7
v -0.2 1.8 3.7
v 0.2 1.8 3.5
v -0.2 1.8 3.5
v 0.2 2.7 3.5
v -0.2 2.7 3.5
v 0.2 2.8 3.5
v -0.2 2.8 3.5
v 0.2 2.8 3.3
v -0.2 2.8 3.3
v 0.2 3.5 3.3
v -0.2 3.5 3.3
v 0.2 3.6 3.3
v -0.2 3.6 3.3
v 0.2 3.6 3.1
v -0.2 3.6 3.1
v 0.2 4.1 3.1
v -0.2 4.1 3.1
v 0.2 4.2 3.1
v -0.2 4.2 3.1
v 0.2 0.3 3
v -0.2 0.3 3
v 0.2 0.4 3
v -0.2 0.4 3
v 0.2 4.2 2.9
v -0.2 4.2 2.9
v 0.2 4.5 2.9
v -0.2 4.5 2.9
v 0.2 4.6 2.9
v -0.2 4.6 2.9
v 0.2 4.6 2.7
v -0.2 4.6 2.7
v 0.2 4.9 2.7
v -0.2 4.9 2.7
v 0.2 5 2.7
v -0.2 5 2.7
v 0.2 5 2.5
v -0.2 5 2.5
v 0.2 5.3 2.5
v -0.2 5.3 2.5
v 0.2 5.4 2.5
v -0.2 5.4 2.5
v 0.2 2.4 -0.5
v -0.2 2.4 -0.5
v 0.2 3.1 -0.5
v -0.2 3.1 -0.5
v 0.2 3.2 -0.5
v -0.2 3.2 -0.5
v 0.2 1 -0.9
v -0.2 1 -0.9
v 0.2 2.4 -0.9
v -0.2 2.4 -0.9
v 0.2 3.2 -1.5
v -0.2 3.2 -1.5
v 0.2 3.3 -1.5
v -0.2 3.3 -1.5
v 0.2 3.4 -1.5
v -0.2 3.4 -1.5
v 0.2 3.4 -1.7
v -0.2 3.4 -1.7
v 0.2 3.6 -1.7
v -0.2 3.6 -1.7
v 0.2 3.7 -1.7
v -0.2 3.7 -1.7
v 0.2 5.2 -1.7
v -0.2 5.2 -1.7
v 0.2 5.3 -1.7
v -0.2 5.3 -1.7
v 0.2 3.7 -1.9
v -0.2 3.7 -1.9
v 0.2 4 -1.9
v -0.2 4 -1.9
v 0.2 4.1 -1.9
v -0.2 4.1 -1.9
v 0.2 5.3 -1.9
v -0.2 5.3 -1.9
v 0.2 5.4 -1.9
v -0.2 5.4 -1.9
v 0.2 4.1 -2.1
v -0.2 4.1 -2.1
v 0.2 5.2 -2.1
v -0.2 5.2 -2.1
v 0.2 0 -2.8
v -0.2 0 -2.8
v 0.2 0.4 -2.8
v -0.2 0.4 -2.8
v 0.2 0.3 -3.3
v -0.2 0.3 -3.3
v 0.2 1 -3.3
v -0.2 1 -3.3
v 0.2 0.3 3.3
v -0.2 0.3 3.3
v 0.2 1 3.3
v -0.2 1 3.3
v 0.2 0 2.8
v -0.2 0 2.8
v 0.2 0.4 2.8
v -0.2 0.4 2.8
v 0.2 4.1 2.1
v -0.2 4.1 2.1
v 0.2 5.2 2.1
v -0.2 5.2 2.1
v 0.2 3.7 1.9
v -0.2 3.7 1.9
v 0.2 4 1.9
v -0.2 4 1.9
v 0.2 4.1 1.9
v -0.2 4.1 1.9
v 0.2 5.3 1.9
v -0.2 5.3 1.9
v 0.2 5.4 1.9
v -0.2 5.4 1.9
v 0.2 3.4 1.7
v -0.2 3.4 1.7
v 0.2 3.6 1.7
v -0.2 3.6 1.7
v 0.2 3.7 1.7
v -0.2 3.7 1.7
v 0.2 5.2 1.7
v -0.2 5.2 1.7
v 0.2 5.3 1.7
v -0.2 5.3 1.7
v 0.2 3.2 1.5
v -0.2 3.2 1.5
v 0.2 3.3 1.5
v -0.2 3.3 1.5
v 0.2 3.4 1.5
v -0.2 3.4 1.5
v 0.2 1 0.9
v -0.2 1 0.9
v 0.2 2.4 0.9
v -0.2 2.4 0.9
v 0.2 2.4 0.5
v -0.2 2.4 0.5
v 0.2 3.1 0.5
v -0.2 3.1 0.5
v 0.2 3.2 0.5
v -0.2 3.2 0.5
v 0.2 5 -2.5
v -0.2 5 -2.5
v 0.2 5.3 -2.5
v -0.2 5.3 -2.5
v 0.2 5.4 -2.5
v -0.2 5.4 -2.5
v 0.2 4.6 -2.7
v -0.2 4.6 -2.7
v 0.2 4.9 -2.7
v -0.2 4.9 -2.7
v 0.2 5 -2.7
v -0.2 5 -2.7
v 0.2 4.2 -2.9
v -0.2 4.2 -2.9
v 0.2 4.5 -2.9
v -0.2 4.5 -2.9
v 0.2 4.6 -2.9
v -0.2 4.6 -2.9
v 0.2 0.3 -3
v -0.2 0.3 -3
v 0.2 0.4 -3
v -0.2 0.4 -3
v 0.2 3.6 -3.1
v -0.2 3.6 -3.1
v 0.2 4.1 -3.1
v -0.2 4.1 -3.1
v 0.2 4.2 -3.1
v -0.2 4.2 -3.1
v 0.2 2.8 -3.3
v -0.2 2.8 -3.3
v 0.2 3.5 -3.3
v -0.2 3.5 -3.3
v 0.2 3.6 -3.3
v -0.2 3.6 -3.3
v 0.2 1.8 -3.5
v -0.2 1.8 -3.5
v 0.2 2.7 -3.5
v -0.2 2.7 -3.5
v 0.2 2.8 -3.5
v -0.2 2.8 -3.5
v 0.2 0 -3.7
v -0.2 0 -3.7
v 0.2 1.7 -3.7
v -0.2 1.7 -3.7
v 0.2 1.8 -3.7
v -0.2 1.8 -3.7
v 0.2 0 3.7
v 0.2 1.7 3.7
v 0.2 1.8 3.7
v 0.2 0.2 3.5
v 0.2 1.6 3.5
v 0.2 1.7 3.5
v 0.2 1.8 3.5
v 0.2 2.7 3.5
v 0.2 2.8 3.5
v 0.2 0.2 3.4
v 0.2 1.5 3.4
v 0.2 0.3 3.3
v 0.2 1 3.3
v 0.2 1.6 3.3
v 0.2 2.6 3.3
v 0.2 2.7 3.3
v 0.2 2.8 3.3
v 0.2 3.5 3.3
v 0.2 3.6 3.3
v 0.2 1.5 3.2
v 0.2 2.5 3.2
v 0.2 2.6 3.1
v 0.2 3.4 3.1
v 0.2 3.5 3.1
v 0.2 3.6 3.1
v 0.2 4.1 3.1
v 0.2 4.2 3.1
v 0.2 0.2 3
v 0.2 0.3 3
v 0.2 0.4 3
v 0.2 2.5 3
v 0.2 3.3 3
v 0.2 3.4 2.9
v 0.2 4 2.9
v 0.2 4.1 2.9
v 0.2 4.2 2.9
v 0.2 4.5 2.9
v 0.2 4.6 2.9
v 0.2 0 2.8
v 0.2 0.4 2.8
v 0.2 1 2.8
v 0.2 2.5 2.8
v 0.2 3.3 2.8
v 0.2 3.9 2.8
v 0.2 1 2.7
v 0.2 2.4 2.7
v 0.2 4 2.7
v 0.2 4.4 2.7
v 0.2 4.5 2.7
v 0.2 4.6 2.7
v 0.2 4.9 2.7
v 0.2 5 2.7
v 0.2 2.5 2.6
v 0.2 3.9 2.6
v 0.2 1 2.5
v 0.2 2.2 2.5
v 0.2 2.4 2.5
v 0.2 4.1 2.5
v 0.2 4.4 2.5
v 0.2 4.8 2.5
v 0.2 4.9 2.5
v 0.2 5 2.5
v 0.2 5.3 2.5
v 0.2 5.4 2.5
v 0.2 1 2.4
v 0.2 2.1 2.4
v 0.2 2.2 2.3
v 0.2 3.9 2.3
v 0.2 4.1 2.3
v 0.2 4.8 2.3
v 0.2 2.1 2.2
v 0.2 3.4 2.2
v 0.2 3.5 2.1
v 0.2 3.9 2.1
v 0.2 4 2.1
v 0.2 4.1 2.1
v 0.2 5.2 2.1
v 0.2 1 2
v 0.2 3.4 2
v 0.2 1 1.9
v 0.2 3.5 1.9
v 0.2 3.6 1.9
v 0.2 3.7 1.9
v 0.2 4 1.9
v 0.2 4.1 1.9
v 0.2 5.2 1.9
v 0.2 5.3 1.9
v 0.2 5.4 1.9
v 0.2 1 1.7
v 0.2 3 1.7
v 0.2 3.3 1.7
v 0.2 3.4 1.7
v 0.2 3.6 1.7
v 0.2 3.7 1.7
v 0.2 5.2 1.7
v 0.2 5.3 1.7
v 0.2 1 1.6
v 0.2 2.3 1.6
v 0.2 3.1 1.5
v 0.2 3.2 1.5
v 0.2 3.3 1.5
v 0.2 3.4 1.5
v 0.2 1.7 1.4
v 0.2 2.3 1.4
v 0.2 1 1.2
v 0.2 1.7 1.2
v 0.2 1 0.9
v 0.2 2.4 0.9
v 0.2 3 0.9
v 0.2 2.4 0.5
v 0.2 3.1 0.5
v 0.2 3.2 0.5
v 0.2 2.4 -0.5
v 0.2 3.1 -0.5
v 0.2 3.2 -0.5
v 0.2 1 -0.9
v 0.2 2.4 -0.9
v 0.2 3 -0.9
v 0.2 1 -1.2
v 0.2 1.7 -1.2
v 0.2 1.7 -1.4
v 0.2 2.3 -1.4
v 0.2 3.1 -1.5
v 0.2 3.2 -1.5
v 0.2 3.3 -1.5
v 0.2 3.4 -1.5
v 0.2 1 -1.6
v 0.2 2.3 -1.6
v 0.2 1 -1.7
v 0.2 3 -1.7
v 0.2 3.3 -1.7
v 0.2 3.4 -1.7
v 0.2 3.6 -1.7
v 0.2 3.7 -1.7
v 0.2 5.2 -1.7
v 0.2 5.3 -1.7
v 0.2 1 -1.9
v 0.2 3.5 -1.9
v 0.2 3.6 -1.9
v 0.2 3.7 -1.9
v 0.2 4 -1.9
v 0.2 4.1 -1.9
v 0.2 5.2 -1.9
v 0.2 5.3 -1.9
v 0.2 5.4 -1.9
v 0.2 1 -2
v 0.2 3.4 -2
v 0.2 3.5 -2.1
v 0.2 3.9 -2.1
v 0.2 4 -2.1
v 0.2 4.1 -2.1
v 0.2 5.2 -2.1
v 0.2 2.1 -2.2
v 0.2 3.4 -2.2
v 0.2 2.2 -2.3
v 0.2 3.9 -2.3
v 0.2 4.1 -2.3
v 0.2 4.8 -2.3
v 0.2 1 -2.4
v 0.2 2.1 -2.4
v 0.2 1 -2.5
v 0.2 2.2 -2.5
v 0.2 2.4 -2.5
v 0.2 4.1 -2.5
v 0.2 4.4 -2.5
v 0.2 4.8 -2.5
v 0.2 4.9 -2.5
v 0.2 5 -2.5
v 0.2 5.3 -2.5
v 0.2 5.4 -2.5
v 0.2 2.5 -2.6
v 0.2 3.9 -2.6
v 0.2 1 -2.7
v 0.2 2.4 -2.7
v 0.2 4 -2.7
v 0.2 4.4 -2.7
v 0.2 4.5 -2.7
v 0.2 4.6 -2.7
v 0.2 4.9 -2.7
v 0.2 5 -2.7
v 0.2 0 -2.8
v 0.2 0.4 -2.8
v 0.2 1 -2.8
v 0.2 2.5 -2.8
v 0.2 3.3 -2.8
v 0.2 3.9 -2.8
v 0.2 3.4 -2.9
v 0.2 4 -2.9
v 0.2 4.1 -2.9
v 0.2 4.2 -2.9
v 0.2 4.5 -2.9
v 0.2 4.6 -2.9
v 0.2 0.2 -3
v 0.2 0.3 -3
v 0.2 0.4 -3
v 0.2 2.5 -3
v 0.2 3.3 -3
v 0.2 2.6 -3.1
v 0.2 3.4 -3.1
v 0.2 3.5 -3.1
v 0.2 3.6 -3.1
v 0.2 4.1 -3.1
v 0.2 4.2 -3.1
v 0.2 1.5 -3.2
v 0.2 2.5 -3.2
v 0.2 0.3 -3.3
v 0.2 1 -3.3
v 0.2 1.6 -3.3
v 0.2 2.6 -3.3
v 0.2 2.7 -3.3
v 0.2 2.8 -3.3
v 0.2 3.5 -3.3
v 0.2 3.6 -3.3
v 0.2 0.2 -3.4
v 0.2 1.5 -3.4
v 0.2 0.2 -3.5
v 0.2 1.6 -3.5
v 0.2 1.7 -3.5
v 0.2 1.8 -3.5
v 0.2 2.7 -3.5
v 0.2 2.8 -3.5
v 0.2 0 -3.7
v 0.2 1.7 -3.7
v 0.2 1.8 -3.7
v -0.2 0 3.7
v -0.2 1.7 3.7
v -0.2 1.8 3.7
v -0.2 0.2 3.5
v -0.2 1.6 3.5
v -0.2 1.7 3.5
v -0.2 1.8 3.5
v -0.2 2.7 3.5
v -0.2 2.8 3.5
v -0.2 0.2 3.4
v -0.2 1.5 3.4
v -0.2 0.3 3.3
v -0.2 1 3.3
v -0.2 1.6 3.3
v -0.2 2.6 3.3
v -0.2 2.7 3.3
v -0.2 2.8 3.3
v -0.2 3.5 3.3
v -0.2 3.6 3.3
v -0.2 1.5 3.2
v -0.2 2.5 3.2
v -0.2 2.6 3.1
v -0.2 3.4 3.1
v -0.2 3.5 3.1
v -0.2 3.6 3.1
v -0.2 4.1 3.1
v -0.2 4.2 3.1
v -0.2 0.2 3
v -0.2 0.3 3
v -0.2 0.4 3
v -0.2 2.5 3
v -0.2 3.3 3
v -0.2 3.4 2.9
v -0.2 4 2.9
v -0.2 4.1 2.9
v -0.2 4.2 2.9
v -0.2 4.5 2.9
v -0.2 4.6 2.9
v -0.2 0 2.8
v -0.2 0.4 2.8
v -0.2 1 2.8
v -0.2 2.5 2.8
v -0.2 3.3 2.8
v -0.2 3.9 2.8
v -0.2 1 2.7
v -0.2 2.4 2.7
v -0.2 4 2.7
v -0.2 4.4 2.7
v -0.2 4.5 2.7
v -0.2 4.6 2.7
v -0.2 4.9 2.7
v -0.2 5 2.7
v -0.2 2.5 2.6
v -0.2 3.9 2.6
v -0.2 1 2.5
v -0.2 2.2 2.5
v -0.2 2.4 2.5
v -0.2 4.1 2.5
v -0.2 4.4 2.5
v -0.2 4.8 2.5
v -0.2 4.9 2.5
v -0.2 5 2.5
v -0.2 5.3 2.5
v -0.2 5.4 2.5
v -0.2 1 2.4
v -0.2 2.1 2.4
v -0.2 2.2 2.3
v -0.2 3.9 2.3
v -0.2 4.1 2.3
v -0.2 4.8 2.3
v -0.2 2.1 2.2
v -0.2 3.4 2.2
v -0.2 3.5 2.1
v -0.2 3.9 2.1
v -0.2 4 2.1
v -0.2 4.1 2.1
v -0.2 5.2 2.1
v -0.2 1 2
v -0.2 3.4 2
v -0.2 1 1.9
v -0.2 3.5 1.9
v -0.2 3.6 1.9
v -0.2 3.7 1.9
v -0.2 4 1.9
v -0.2 4.1 1.9
v -0.2 5.2 1.9
v -0.2 5.3 1.9
v -0.2 5.4 1.9
v -0.2 1 1.7
v -0.2 3 1.7
v -0.2 3.3 1.7
v -0.2 3.4 1.7
v -0.2 3.6 1.7
v -0.2 3.7 1.7
v -0.2 5.2 1.7
v -0.2 5.3 1.7
v -0.2 1 1.6
v -0.2 2.3 1.6
v -0.2 3.1 1.5
v -0.2 3.2 1.5
v -0.2 3.3 1.5
v -0.2 3.4 1.5
v -0.2 1.7 1.4
v -0.2 2.3 1.4
v -0.2 1 1.2
v -0.2 1.7 1.2
v -0.2 1 0.9
v -0.2 2.4 0.9
v -0.2 3 0.9
v -0.2 2.4 0.5
v -0.2 3.1 0.5
v -0.2 3.2 0.5
v -0.2 2.4 -0.5
v -0.2 3.1 -0.5
v -0.2 3.2 -0.5
v -0.2 1 -0.9
v -0.2 2.4 -0.9
v -0.2 3 -0.9
v -0.2 1 -1.2
v -0.2 1.7 -1.2
v -0.2 1.7 -1.4
v -0.2 2.3 -1.4
v -0.2 3.1 -1.5
v -0.2 3.2 -1.5
v -0.2 3.3 -1.5
v -0.2 3.4 -1.5
v -0.2 1 -1.6
v -0.2 2.3 -1.6
v -0.2 1 -1.7
v -0.2 3 -1.7
v -0.2 3.3 -1.7
v -0.2 3.4 -1.7
v -0.2 3.6 -1.7
v -0.2 3.7 -1.7
v -0.2 5.2 -1.7
v -0.2 5.3 -1.7
v -0.2 1 -1.9
v -0.2 3.5 -1.9
v -0.2 3.6 -1.9
v -0.2 3.7 -1.9
v -0.2 4 -1.9
v -0.2 4.1 -1.9
v -0.2 5.2 -1.9
v -0.2 5.3 -1.9
v -0.2 5.4 -1.9
v -0.2 1 -2
v -0.2 3.4 -2
v -0.2 3.5 -2.1
v -0.2 3.9 -2.1
v -0.2 4 -2.1
v -0.2 4.1 -2.1
v -0.2 5.2 -2.1
v -0.2 2.1 -2.2
v -0.2 3.4 -2.2
v -0.2 2.2 -2.3
v -0.2 3.9 -2.3
v -0.2 4.1 -2.3
v -0.2 4.8 -2.3
v -0.2 1 -2.4
v -0.2 2.1 -2.4
v -0.2 1 -2.5
v -0.2 2.2 -2.5
v -0.2 2.4 -2.5
v -0.2 4.1 -2.5
v -0.2 4.4 -2.5
v -0.2 4.8 -2.5
v -0.2 4.9 -2.5
v -0.2 5 -2.5
v -0.2 5.3 -2.5
v -0.2 5.4 -2.5
v -0.2 2.5 -2.6
v -0.2 3.9 -2.6
v -0.2 1 -2.7
v -0.2 2.4 -2.7
v -0.2 4 -2.7
v -0.2 4.4 -2.7
v -0.2 4.5 -2.7
v -0.2 4.6 -2.7
v -0.2 4.9 -2.7
v -0.2 5 -2.7
v -0.2 0 -2.8
v -0.2 0.4 -2.8
v -0.2 1 -2.8
v -0.2 2.5 -2.8
v -0.2 3.3 -2.8
v -0.2 3.9 -2.8
v -0.2 3.4 -2.9
v -0.2 4 -2.9
v -0.2 4.1 -2.9
v -0.2 4.2 -2.9
v -0.2 4.5 -2.9
v -0.2 4.6 -2.9
v -0.2 0.2 -3
v -0.2 0.3 -3
v -0.2 0.4 -3
v -0.2 2.5 -3
v -0.2 3.3 -3
v -0.2 2.6 -3.1
v -0.2 3.4 -3.1
v -0.2 3.5 -3.1
v -0.2 3.6 -3.1
v -0.2 4.1 -3.1
v -0.2 4.2 -3.1
v -0.2 1.5 -3.2
v -0.2 2.5 -3.2
v -0.2 0.3 -3.3
v -0.2 1 -3.3
v -0.2 1.6 -3.3
v -0.2 2.6 -3.3
v -0.2 2.7 -3.3
v -0.2 2.8 -3.3
v -0.2 3.5 -3.3
v -0.2 3.6 -3.3
v -0.2 0.2 -3.4
v -0.2 1.5 -3.4
v -0.2 0.2 -3.5
v -0.2 1.6 -3.5
v -0.2 1.7 -3.5
v -0.2 1.8 -3.5
v -0.2 2.7 -3.5
v -0.2 2.8 -3.5
v -0.2 0 -3.7
v -0.2 1.7 -3.7
v -0.2 1.8 -3.7
v 0.2 0 3.7
v 0.2 0 2.8
v 0.2 0 -2.8
v 0.2 0 -3.7
v -0.2 0 3.7
v -0.2 0 2.8
v -0.2 0 -2.8
v -0.2 0 -3.7
v 0.2 1 3.3
v 0.2 1 2.8
v 0.2 1 2.7
v 0.2 1 2.5
v 0.2 1 2.4
v 0.2 1 2
v 0.2 1 1.9
v 0.2 1 1.7
v 0.2 1 1.6
v 0.2 1 1.2
v 0.2 1 0.9
v 0.2 1 -0.9
v 0.2 1 -1.2
v 0.2 1 -1.6
v 0.2 1 -1.7
v 0.2 1 -1.9
v 0.2 1 -2
v 0.2 1 -2.4
v 0.2 1 -2.5
v 0.2 1 -2.7
v 0.2 1 -2.8
v 0.2 1 -3.3
v 0.1 1 3
v 0.1 1 2.9
v 0.1 1 2.8
v 0.1 1 2.7
v 0.1 1 2.6
v 0.1 1 2.5
v 0.1 1 2.4
v 0.1 1 2.2
v 0.1 1 2.1
v 0.1 1 2
v 0.1 1 1.9
v 0.1 1 1.8
v 0.1 1 1.7
v 0.1 1 1.6
v 0.1 1 -1.6
v 0.1 1 -1.7
v 0.1 1 -1.8
v 0.1 1 -1.9
v 0.1 1 -2
v 0.1 1 -2.1
v 0.1 1 -2.2
v 0.1 1 -2.4
v 0.1 1 -2.5
v 0.1 1 -2.6
v 0.1 1 -2.7
v 0.1 1 -2.8
v 0.1 1 -2.9
v 0.1 1 -3
v -0.1 1 3
v -0.1 1 2.9
v -0.1 1 2.8
v -0.1 1 2.7
v -0.1 1 2.6
v -0.1 1 2.5
v -0.1 1 2.4
v -0.1 1 2.2
v -0.1 1 2.1
v -0.1 1 2
v -0.1 1 1.9
v -0.1 1 1.8
v -0.1 1 1.7
v -0.1 1 1.6
v -0.1 1 -1.6
v -0.1 1 -1.7
v -0.1 1 -1.8
v -0.1 1 -1.9
v -0.1 1 -2
v -0.1 1 -2.1
v -0.1 1 -2.2
v -0.1 1 -2.4
v -0.1 1 -2.5
v -0.1 1 -2.6
v -0.1 1 -2.7
v -0.1 1 -2.8
v -0.1 1 -2.9
v -0.1 1 -3
v -0.2 1 3.3
v -0.2 1 2.8
v -0.2 1 2.7
v -0.2 1 2.5
v -0.2 1 2.4
v -0.2 1 2
v -0.2 1 1.9
v -0.2 1 1.7
v -0.2 1 1.6
v -0.2 1 1.2
v -0.2 1 0.9
v -0.2 1 -0.9
v -0.2 1 -1.2
v -0.2 1 -1.6
v -0.2 1 -1.7
v -0.2 1 -1.9
v -0.2 1 -2
v -0.2 1 -2.4
v -0.2 1 -2.5
v -0.2 1 -2.7
v -0.2 1 -2.8
v -0.2 1 -3.3
v 0.2 2.4 0.9
v 0.2 2.4 0.5
v 0.2 2.4 -0.5
v 0.2 2.4 -0.9
v -0.2 2.4 0.9
v -0.2 2.4 0.5
v -0.2 2.4 -0.5
v -0.2 2.4 -0.9
v 0.2 5.2 2.1
v 0.2 5.2 1.9
v 0.2 5.2 1.7
v 0.2 5.2 -1.7
v 0.2 5.2 -1.9
v 0.2 5.2 -2.1
v -0.2 5.2 2.1
v -0.2 5.2 1.9
v -0.2 5.2 1.7
v -0.2 5.2 -1.7
v -0.2 5.2 -1.9
v -0.2 5.2 -2.1
v 0.2 0.3 3.3
v 0.2 0.3 3
v 0.2 0.3 -3
v 0.2 0.3 -3.3
v -0.2 0.3 3.3
v -0.2 0.3 3
v -0.2 0.3 -3
v -0.2 0.3 -3.3
v 0.2 0.4 3
v 0.2 0.4 2.8
v 0.2 0.4 -2.8
v 0.2 0.4 -3
v -0.2 0.4 3
v -0.2 0.4 2.8
v -0.2 0.4 -2.8
v -0.2 0.4 -3
v 0.2 1.8 3.7
v 0.2 1.8 3.5
v 0.2 1.8 -3.5
v 0.2 1.8 -3.7
v -0.2 1.8 3.7
v -0.2 1.8 3.5
v -0.2 1.8 -3.5
v -0.2 1.8 -3.7
v 0.2 2.8 3.5
v 0.2 2.8 3.3
v 0.2 2.8 -3.3
v 0.2 2.8 -3.5
v -0.2 2.8 3.5
v -0.2 2.8 3.3
v -0.2 2.8 -3.3
v -0.2 2.8 -3.5
v 0.2 3.2 1.5
v 0.2 3.2 0.5
v 0.2 3.2 -0.5
v 0.2 3.2 -1.5
v -0.2 3.2 1.5
v -0.2 3.2 0.5
v -0.2 3.2 -0.5
v -0.2 3.2 -1.5
v 0.2 3.4 1.7
v 0.2 3.4 1.5
v 0.2 3.4 -1.5
v 0.2 3.4 -1.7
v -0.2 3.4 1.7
v -0.2 3.4 1.5
v -0.2 3.4 -1.5
v -0.2 3.4 -1.7
v 0.2 3.6 3.3
v 0.2 3.6 3.1
v 0.2 3.6 -3.1
v 0.2 3.6 -3.3
v -0.2 3.6 3.3
v -0.2 3.6 3.1
v -0.2 3.6 -3.1
v -0.2 3.6 -3.3
v 0.2 3.7 1.9
v 0.2 3.7 1.7
v 0.2 3.7 -1.7
v 0.2 3.7 -1.9
v -0.2 3.7 1.9
v -0.2 3.7 1.7
v -0.2 3.7 -1.7
v -0.2 3.7 -1.9
v 0.2 4.1 2.1
v 0.2 4.1 1.9
v 0.2 4.1 -1.9
v 0.2 4.1 -2.1
v -0.2 4.1 2.1
v -0.2 4.1 1.9
v -0.2 4.1 -1.9
v -0.2 4.1 -2.1
v 0.2 4.2 3.1
v 0.2 4.2 2.9
v 0.2 4.2 -2.9
v 0.2 4.2 -3.1
v -0.2 4.2 3.1
v -0.2 4.2 2.9
v -0.2 4.2 -2.9
v -0.2 4.2 -3.1
v 0.2 4.6 2.9
v 0.2 4.6 2.7
v 0.2 4.6 -2.7
v 0.2 4.6 -2.9
v -0.2 4.6 2.9
v -0.2 4.6 2.7
v -0.2 4.6 -2.7
v -0.2 4.6 -2.9
v 0.2 5 2.7
v 0.2 5 2.5
v 0.2 5 -2.5
v 0.2 5 -2.7
v -0.2 5 2.7
v -0.2 5 2.5
v -0.2 5 -2.5
v -0.2 5 -2.7
v 0.2 5.3 1.9
v 0.2 5.3 1.7
v 0.2 5.3 -1.7
v 0.2 5.3 -1.9
v -0.2 5.3 1.9
v -0.2 5.3 1.7
v -0.2 5.3 -1.7
v -0.2 5.3 -1.9
v 0.2 5.4 2.5
v 0.2 5.4 1.9
v 0.2 5.4 -1.9
v 0.2 5.4 -2.5
v -0.2 5.4 2.5
v -0.2 5.4 1.9
v -0.2 5.4 -1.9
v -0.2 5.4 -2.5

# faces
f 3/3/1 2/3/1 1/3/1
f 4/3/1 2/3/1 3/3/1
f 5/4/1 4/4/1 3/4/1
f 6/4/1 4/4/1 5/4/1
f 9/3/1 8/3/1 7/3/1
f 10/3/1 8/3/1 9/3/1
f 11/4/1 10/4/1 9/4/1
f 12/4/1 10/4/1 11/4/1
f 15/3/1 14/3/1 13/3/1
f 16/3/1 14/3/1 15/3/1
f 17/4/1 16/4/1 15/4/1
f 18/4/1 16/4/1 17/4/1
f 21/3/1 20/3/1 19/3/1
f 22/3/1 20/3/1 21/3/1
f 23/4/1 22/4/1 21/4/1
f 24/4/1 22/4/1 23/4/1
f 27/3/1 26/3/1 25/3/1
f 28/3/1 26/3/1 27/3/1
f 31/3/1 30/3/1 29/3/1
f 32/3/1 30/3/1 31/3/1
f 33/4/1 32/4/1 31/4/1
f 34/4/1 32/4/1 33/4/1
f 37/3/1 36/3/1 35/3/1
f 38/3/1 36/3/1 37/3/1
f 39/4/1 38/4/1 37/4/1
f 40/4/1 38/4/1 39/4/1
f 43/3/1 42/3/1 41/3/1
f 44/3/1 42/3/1 43/3/1
f 45/4/1 44/4/1 43/4/1
f 46/4/1 44/4/1 45/4/1
f 49/3/1 48/3/1 47/3/1
f 50/3/1 48/3/1 49/3/1
f 51/4/1 50/4/1 49/4/1
f 52/4/1 50/4/1 51/4/1
f 55/1/1 54/1/1 53/1/1
f 56/1/1 54/1/1 55/1/1
f 59/3/1 58/3/1 57/3/1
f 60/3/1 58/3/1 59/3/1
f 61/4/1 60/4/1 59/4/1
f 62/4/1 60/4/1 61/4/1
f 65/3/1 64/3/1 63/3/1
f 66/3/1 64/3/1 65/3/1
f 67/4/1 66/4/1 65/4/1
f 68/4/1 66/4/1 67/4/1
f 71/1/1 70/1/1 69/1/1
f 72/1/1 70/1/1 71/1/1
f 75/3/1 74/3/1 73/3/1
f 76/3/1 74/3/1 75/3/1
f 77/4/1 76/4/1 75/4/1
f 78/4/1 76/4/1 77/4/1
f 81/4/1 80/4/1 79/4/1
f 82/4/1 80/4/1 81/4/1
f 85/3/1 84/3/1 83/3/1
f 86/3/1 84/3/1 85/3/1
f 89/3/1 88/3/1 87/3/1
f 90/3/1 88/3/1 89/3/1
f 93/2/1 92/2/1 91/2/1
f 94/2/1 92/2/1 93/2/1
f 95/2/2 96/2/2 97/2/2
f 97/2/2 96/2/2 98/2/2
f 99/3/2 100/3/2 101/3/2
f 101/3/2 100/3/2 102/3/2
f 103/3/2 104/3/2 105/3/2
f 105/3/2 104/3/2 106/3/2
f 107/3/2 108/3/2 109/3/2
f 109/3/2 108/3/2 110/3/2
f 109/4/2 110/4/2 111/4/2
f 111/4/2 110/4/2 112/4/2
f 113/4/2 114/4/2 115/4/2
f 115/4/2 114/4/2 116/4/2
f 117/3/2 118/3/2 119/3/2
f 119/3/2 118/3/2 120/3/2
f 119/4/2 120/4/2 121/4/2
f 121/4/2 120/4/2 122/4/2
f 123/1/2 124/1/2 125/1/2
f 125/1/2 124/1/2 126/1/2
f 127/3/2 128/3/2 129/3/2
f 129/3/2 128/3/2 130/3/2
f 129/4/2 130/4/2 131/4/2
f 131/4/2 130/4/2 132/4/2
f 133/1/2 134/1/2 135/1/2
f 135/1/2 134/1/2 136/1/2
f 137/3/2 138/3/2 139/3/2
f 139/3/2 138/3/2 140/3/2
f 139/4/2 140/4/2 141/4/2
f 141/4/2 140/4/2 142/4/2
f 143/3/2 144/3/2 145/3/2
f 145/3/2 144/3/2 146/3/2
f 145/4/2 146/4/2 147/4/2
f 147/4/2 146/4/2 148/4/2
f 149/3/2 150/3/2 151/3/2
f 151/3/2 150/3/2 152/3/2
f 151/4/2 152/4/2 153/4/2
f 153/4/2 152/4/2 154/4/2
f 155/3/2 156/3/2 157/3/2
f 157/3/2 156/3/2 158/3/2
f 157/4/2 158/4/2 159/4/2
f 159/4/2 158/4/2 160/4/2
f 161/3/2 162/3/2 163/3/2
f 163/3/2 162/3/2 164/3/2
f 165/3/2 166/3/2 167/3/2
f 167/3/2 166/3/2 168/3/2
f 167/4/2 168/4/2 169/4/2
f 169/4/2 168/4/2 170/4/2
f 171/3/2 172/3/2 173/3/2
f 173/3/2 172/3/2 174/3/2
f 173/4/2 174/4/2 175/4/2
f 175/4/2 174/4/2 176/4/2
f 177/3/2 178/3/2 179/3/2
f 179/3/2 178/3/2 180/3/2
f 179/4/2 180/4/2 181/4/2
f 181/4/2 180/4/2 182/4/2
f 183/3/2 184/3/2 185/3/2
f 185/3/2 184/3/2 186/3/2
f 185/4/2 186/4/2 187/4/2
f 187/4/2 186/4/2 188/4/2
f 192/3/3 190/3/3 189/3/3
f 193/3/3 190/3/3 192/3/3
f 194/4/3 191/4/3 190/4/3
f 194/3/3 190/3/3 193/3/3
f 195/4/3 191/4/3 194/4/3
f 198/1/3 193/1/3 192/1/3
f 198/3/3 192/3/3 189/3/3
f 199/1/3 193/1/3 198/1/3
f 200/2/3 199/2/3 198/2/3
f 201/2/3 199/2/3 200/2/3
f 202/3/3 196/3/3 195/3/3
f 202/3/3 194/3/3 193/3/3
f 202/3/3 195/3/3 194/3/3
f 202/1/3 193/1/3 199/1/3
f 203/3/3 196/3/3 202/3/3
f 204/4/3 197/4/3 196/4/3
f 204/3/3 196/3/3 203/3/3
f 205/4/3 197/4/3 204/4/3
f 208/1/3 203/1/3 202/1/3
f 208/2/3 199/2/3 201/2/3
f 208/1/3 202/1/3 199/1/3
f 209/1/3 203/1/3 208/1/3
f 210/3/3 206/3/3 205/3/3
f 210/1/3 203/1/3 209/1/3
f 210/3/3 205/3/3 204/3/3
f 210/3/3 204/3/3 203/3/3
f 211/3/3 206/3/3 210/3/3
f 212/4/3 207/4/3 206/4/3
f 212/3/3 206/3/3 211/3/3
f 213/4/3 207/4/3 212/4/3
f 216/2/3 200/2/3 198/2/3
f 216/3/3 198/3/3 189/3/3
f 217/2/3 200/2/3 216/2/3
f 219/1/3 211/1/3 210/1/3
f 219/2/3 209/2/3 208/2/3
f 219/1/3 210/1/3 209/1/3
f 220/1/3 211/1/3 219/1/3
f 221/3/3 214/3/3 213/3/3
f 221/1/3 211/1/3 220/1/3
f 221/3/3 212/3/3 211/3/3
f 221/3/3 213/3/3 212/3/3
f 222/3/3 214/3/3 221/3/3
f 223/4/3 215/4/3 214/4/3
f 223/3/3 214/3/3 222/3/3
f 224/4/3 215/4/3 223/4/3
f 227/3/3 218/3/3 217/3/3
f 227/3/3 217/3/3 216/3/3
f 227/3/3 216/3/3 189/3/3
f 228/3/3 218/3/3 227/3/3
f 229/2/3 208/2/3 201/2/3
f 229/2/3 220/2/3 219/2/3
f 229/2/3 219/2/3 208/2/3
f 230/2/3 220/2/3 229/2/3
f 231/1/3 222/1/3 221/1/3
f 231/2/3 220/2/3 230/2/3
f 231/1/3 221/1/3 220/1/3
f 232/1/3 222/1/3 231/1/3
f 233/1/3 230/1/3 229/1/3
f 234/1/3 230/1/3 233/1/3
f 235/3/3 225/3/3 224/3/3
f 235/1/3 222/1/3 232/1/3
f 235/3/3 224/3/3 223/3/3
f 235/3/3 223/3/3 222/3/3
f 236/3/3 225/3/3 235/3/3
f 237/4/3 226/4/3 225/4/3
f 237/3/3 225/3/3 236/3/3
f 238/4/3 226/4/3 237/4/3
f 241/1/3 230/1/3 234/1/3
f 241/2/3 232/2/3 231/2/3
f 241/2/3 231/2/3 230/2/3
f 242/1/3 236/1/3 235/1/3
f 242/2/3 232/2/3 241/2/3
f 242/1/3 235/1/3 232/1/3
f 243/3/3 234/3/3 233/3/3
f 244/3/3 234/3/3 243/3/3
f 245/1/3 241/1/3 234/1/3
f 245/3/3 234/3/3 244/3/3
f 245/1/3 242/1/3 241/1/3
f 246/1/3 236/1/3 242/1/3
f 246/1/3 242/1/3 245/1/3
f 247/3/3 239/3/3 238/3/3
f 247/1/3 236/1/3 246/1/3
f 247/3/3 238/3/3 237/3/3
f 247/3/3 237/3/3 236/3/3
f 248/3/3 239/3/3 247/3/3
f 249/4/3 240/4/3 239/4/3
f 249/3/3 239/3/3 248/3/3
f 250/4/3 240/4/3 249/4/3
f 253/1/3 244/1/3 243/1/3
f 254/1/3 244/1/3 253/1/3
f 255/3/3 245/3/3 244/3/3
f 255/1/3 244/1/3 254/1/3
f 255/3/3 246/3/3 245/3/3
f 256/3/3 246/3/3 255/3/3
f 257/1/3 248/1/3 247/1/3
f 257/3/3 246/3/3 256/3/3
f 257/1/3 247/1/3 246/1/3
f 258/3/3 249/3/3 248/3/3
f 258/1/3 248/1/3 257/1/3
f 258/3/3 250/3/3 249/3/3
f 258/3/3 251/3/3 250/3/3
f 259/1/3 256/1/3 255/1/3
f 259/2/3 254/2/3 253/2/3
f 259/1/3 255/1/3 254/1/3
f 260/1/3 256/1/3 259/1/3
f 261/1/3 256/1/3 260/1/3
f 262/3/3 258/3/3 257/3/3
f 262/1/3 256/1/3 261/1/3
f 262/3/3 257/3/3 256/3/3
f 263/3/3 258/3/3 262/3/3
f 264/3/3 258/3/3 263/3/3
f 265/3/3 251/3/3 258/3/3
f 265/3/3 258/3/3 264/3/3
f 266/2/3 260/2/3 259/2/3
f 266/2/3 259/2/3 253/2/3
f 267/1/3 261/1/3 260/1/3
f 267/2/3 260/2/3 266/2/3
f 268/1/3 267/1/3 266/1/3
f 269/3/3 263/3/3 262/3/3
f 269/1/3 267/1/3 268/1/3
f 269/3/3 262/3/3 261/3/3
f 269/1/3 261/1/3 267/1/3
f 270/3/3 263/3/3 269/3/3
f 271/3/3 263/3/3 270/3/3
f 272/4/3 264/4/3 263/4/3
f 272/3/3 263/3/3 271/3/3
f 273/4/3 264/4/3 272/4/3
f 274/3/3 251/3/3 265/3/3
f 275/4/3 252/4/3 251/4/3
f 275/3/3 251/3/3 274/3/3
f 276/4/3 252/4/3 275/4/3
f 277/3/3 269/3/3 268/3/3
f 277/3/3 270/3/3 269/3/3
f 278/3/3 270/3/3 277/3/3
f 279/3/3 270/3/3 278/3/3
f 280/3/3 270/3/3 279/3/3
f 281/4/3 271/4/3 270/4/3
f 281/3/3 270/3/3 280/3/3
f 282/4/3 271/4/3 281/4/3
f 283/1/3 275/1/3 274/1/3
f 284/1/3 275/1/3 283/1/3
f 285/1/3 278/1/3 277/1/3
f 286/1/3 278/1/3 285/1/3
f 287/3/3 279/3/3 278/3/3
f 288/3/3 279/3/3 287/3/3
f 289/4/3 280/4/3 279/4/3
f 289/3/3 279/3/3 288/3/3
f 290/4/3 280/4/3 289/4/3
f 291/2/3 286/2/3 285/2/3
f 292/1/3 278/1/3 286/1/3
f 292/2/3 286/2/3 291/2/3
f 293/2/3 291/2/3 285/2/3
f 294/1/3 292/1/3 291/1/3
f 294/2/3 291/2/3 293/2/3
f 295/1/3 294/1/3 293/1/3
f 296/1/3 278/1/3 292/1/3
f 296/1/3 294/1/3 295/1/3
f 296/1/3 292/1/3 294/1/3
f 297/3/3 287/3/3 278/3/3
f 297/1/3 278/1/3 296/1/3
f 298/3/3 297/3/3 296/3/3
f 299/4/3 288/4/3 287/4/3
f 299/3/3 297/3/3 298/3/3
f 299/3/3 287/3/3 297/3/3
f 300/4/3 288/4/3 299/4/3
f 305/3/3 302/3/3 301/3/3
f 306/3/3 302/3/3 305/3/3
f 307/1/3 305/1/3 304/1/3
f 307/1/3 306/1/3 305/1/3
f 308/1/3 306/1/3 307/1/3
f 309/2/3 308/2/3 307/2/3
f 309/1/3 306/1/3 308/1/3
f 310/1/3 306/1/3 309/1/3
f 311/4/3 303/4/3 302/4/3
f 311/3/3 302/3/3 306/3/3
f 312/4/3 303/4/3 311/4/3
f 315/2/3 310/2/3 309/2/3
f 315/2/3 309/2/3 307/2/3
f 316/1/3 306/1/3 310/1/3
f 316/2/3 310/2/3 315/2/3
f 317/1/3 316/1/3 315/1/3
f 318/3/3 312/3/3 311/3/3
f 318/1/3 316/1/3 317/1/3
f 318/3/3 313/3/3 312/3/3
f 318/1/3 306/1/3 316/1/3
f 318/3/3 311/3/3 306/3/3
f 319/4/3 314/4/3 313/4/3
f 319/3/3 313/3/3 318/3/3
f 320/4/3 314/4/3 319/4/3
f 325/3/3 320/3/3 319/3/3
f 325/3/3 318/3/3 317/3/3
f 325/3/3 319/3/3 318/3/3
f 325/3/3 321/3/3 320/3/3
f 326/3/3 321/3/3 325/3/3
f 327/4/3 322/4/3 321/4/3
f 327/3/3 321/3/3 326/3/3
f 328/4/3 322/4/3 327/4/3
f 331/1/3 324/1/3 323/1/3
f 332/1/3 324/1/3 331/1/3
f 334/1/3 326/1/3 325/1/3
f 335/1/3 326/1/3 334/1/3
f 336/3/3 327/3/3 326/3/3
f 336/1/3 326/1/3 335/1/3
f 336/3/3 328/3/3 327/3/3
f 336/3/3 329/3/3 328/3/3
f 337/3/3 329/3/3 336/3/3
f 338/4/3 330/4/3 329/4/3
f 338/3/3 329/3/3 337/3/3
f 339/4/3 330/4/3 338/4/3
f 340/3/3 332/3/3 331/3/3
f 341/2/3 335/2/3 334/2/3
f 342/1/3 337/1/3 336/1/3
f 342/2/3 335/2/3 341/2/3
f 342/1/3 336/1/3 335/1/3
f 343/1/3 342/1/3 341/1/3
f 344/3/3 339/3/3 338/3/3
f 344/1/3 342/1/3 343/1/3
f 344/3/3 340/3/3 339/3/3
f 344/1/3 337/1/3 342/1/3
f 344/3/3 338/3/3 337/3/3
f 345/3/3 340/3/3 344/3/3
f 346/3/3 340/3/3 345/3/3
f 347/2/3 341/2/3 334/2/3
f 348/1/3 343/1/3 341/1/3
f 348/2/3 341/2/3 347/2/3
f 349/1/3 348/1/3 347/1/3
f 350/3/3 344/3/3 343/3/3
f 350/1/3 348/1/3 349/1/3
f 350/3/3 345/3/3 344/3/3
f 350/1/3 343/1/3 348/1/3
f 351/3/3 345/3/3 350/3/3
f 352/1/3 346/1/3 345/1/3
f 352/3/3 345/3/3 351/3/3
f 353/1/3 346/1/3 352/1/3
f 354/3/3 340/3/3 346/3/3
f 354/1/3 346/1/3 353/1/3
f 355/3/3 340/3/3 354/3/3
f 356/3/3 340/3/3 355/3/3
f 357/4/3 333/4/3 332/4/3
f 357/3/3 340/3/3 356/3/3
f 357/3/3 332/3/3 340/3/3
f 358/4/3 333/4/3 357/4/3
f 359/1/3 353/1/3 352/1/3
f 359/1/3 352/1/3 351/1/3
f 360/1/3 353/1/3 359/1/3
f 361/3/3 351/3/3 350/3/3
f 361/3/3 350/3/3 349/3/3
f 362/1/3 359/1/3 351/1/3
f 362/3/3 351/3/3 361/3/3
f 363/1/3 353/1/3 360/1/3
f 364/3/3 355/3/3 354/3/3
f 364/1/3 353/1/3 363/1/3
f 364/3/3 354/3/3 353/3/3
f 365/3/3 355/3/3 364/3/3
f 366/3/3 355/3/3 365/3/3
f 367/4/3 356/4/3 355/4/3
f 367/3/3 355/3/3 366/3/3
f 368/4/3 356/4/3 367/4/3
f 371/1/3 362/1/3 361/1/3
f 372/1/3 359/1/3 362/1/3
f 372/1/3 362/1/3 371/1/3
f 372/2/3 360/2/3 359/2/3
f 373/2/3 360/2/3 372/2/3
f 374/1/3 363/1/3 360/1/3
f 374/2/3 360/2/3 373/2/3
f 375/1/3 374/1/3 373/1/3
f 376/3/3 364/3/3 363/3/3
f 376/1/3 374/1/3 375/1/3
f 376/3/3 365/3/3 364/3/3
f 376/1/3 363/1/3 374/1/3
f 377/3/3 365/3/3 376/3/3
f 378/3/3 365/3/3 377/3/3
f 379/4/3 366/4/3 365/4/3
f 379/3/3 365/3/3 378/3/3
f 380/4/3 366/4/3 379/4/3
f 381/3/3 370/3/3 369/3/3
f 382/3/3 370/3/3 381/3/3
f 383/3/3 370/3/3 382/3/3
f 384/2/3 373/2/3 372/2/3
f 384/2/3 372/2/3 371/2/3
f 385/1/3 375/1/3 373/1/3
f 385/2/3 373/2/3 384/2/3
f 386/1/3 385/1/3 384/1/3
f 387/1/3 375/1/3 385/1/3
f 387/1/3 385/1/3 386/1/3
f 387/3/3 376/3/3 375/3/3
f 387/3/3 377/3/3 376/3/3
f 388/3/3 377/3/3 387/3/3
f 389/3/3 377/3/3 388/3/3
f 390/4/3 378/4/3 377/4/3
f 390/3/3 377/3/3 389/3/3
f 391/4/3 378/4/3 390/4/3
f 392/2/3 384/2/3 371/2/3
f 393/1/3 386/1/3 384/1/3
f 393/2/3 384/2/3 392/2/3
f 394/2/3 382/2/3 381/2/3
f 395/2/3 392/2/3 371/2/3
f 396/1/3 393/1/3 392/1/3
f 397/1/3 386/1/3 393/1/3
f 397/1/3 393/1/3 396/1/3
f 397/3/3 387/3/3 386/3/3
f 397/3/3 388/3/3 387/3/3
f 398/3/3 388/3/3 397/3/3
f 399/3/3 388/3/3 398/3/3
f 400/4/3 389/4/3 388/4/3
f 400/3/3 388/3/3 399/3/3
f 401/4/3 389/4/3 400/4/3
f 402/2/3 394/2/3 381/2/3
f 402/3/3 381/3/3 369/3/3
f 402/2/3 395/2/3 394/2/3
f 403/1/3 396/1/3 392/1/3
f 403/2/3 395/2/3 402/2/3
f 403/2/3 392/2/3 395/2/3
f 404/3/3 402/3/3 369/3/3
f 404/1/3 403/1/3 402/1/3
f 405/1/3 396/1/3 403/1/3
f 405/1/3 403/1/3 404/1/3
f 405/3/3 398/3/3 397/3/3
f 405/3/3 397/3/3 396/3/3
f 406/3/3 398/3/3 405/3/3
f 407/3/3 398/3/3 406/3/3
f 408/4/3 399/4/3 398/4/3
f 408/3/3 398/3/3 407/3/3
f 409/4/3 399/4/3 408/4/3
f 410/3/3 404/3/3 369/3/3
f 410/3/3 405/3/3 404/3/3
f 410/3/3 406/3/3 405/3/3
f 411/4/3 407/4/3 406/4/3
f 411/3/3 406/3/3 410/3/3
f 412/4/3 407/4/3 411/4/3
f 413/3/4 414/3/4 416/3/4
f 416/3/4 414/3/4 417/3/4
f 414/4/4 415/4/4 418/4/4
f 417/3/4 414/3/4 418/3/4
f 418/4/4 415/4/4 419/4/4
f 416/1/4 417/1/4 422/1/4
f 413/3/4 416/3/4 422/3/4
f 422/1/4 417/1/4 423/1/4
f 422/2/4 423/2/4 424/2/4
f 424/2/4 423/2/4 425/2/4
f 419/3/4 420/3/4 426/3/4
f 417/3/4 418/3/4 426/3/4
f 418/3/4 419/3/4 426/3/4
f 423/1/4 417/1/4 426/1/4
f 426/3/4 420/3/4 427/3/4
f 420/4/4 421/4/4 428/4/4
f 427/3/4 420/3/4 428/3/4
f 428/4/4 421/4/4 429/4/4
f 426/1/4 427/1/4 432/1/4
f 425/2/4 423/2/4 432/2/4
f 423/1/4 426/1/4 432/1/4
f 432/1/4 427/1/4 433/1/4
f 429/3/4 430/3/4 434/3/4
f 433/1/4 427/1/4 434/1/4
f 428/3/4 429/3/4 434/3/4
f 427/3/4 428/3/4 434/3/4
f 434/3/4 430/3/4 435/3/4
f 430/4/4 431/4/4 436/4/4
f 435/3/4 430/3/4 436/3/4
f 436/4/4 431/4/4 437/4/4
f 422/2/4 424/2/4 440/2/4
f 413/3/4 422/3/4 440/3/4
f 440/2/4 424/2/4 441/2/4
f 434/1/4 435/1/4 443/1/4
f 432/2/4 433/2/4 443/2/4
f 433/1/4 434/1/4 443/1/4
f 443/1/4 435/1/4 444/1/4
f 437/3/4 438/3/4 445/3/4
f 444/1/4 435/1/4 445/1/4
f 435/3/4 436/3/4 445/3/4
f 436/3/4 437/3/4 445/3/4
f 445/3/4 438/3/4 446/3/4
f 438/4/4 439/4/4 447/4/4
f 446/3/4 438/3/4 447/3/4
f 447/4/4 439/4/4 448/4/4
f 441/3/4 442/3/4 451/3/4
f 440/3/4 441/3/4 451/3/4
f 413/3/4 440/3/4 451/3/4
f 451/3/4 442/3/4 452/3/4
f 425/2/4 432/2/4 453/2/4
f 443/2/4 444/2/4 453/2/4
f 432/2/4 443/2/4 453/2/4
f 453/2/4 444/2/4 454/2/4
f 445/1/4 446/1/4 455/1/4
f 454/2/4 444/2/4 455/2/4
f 444/1/4 445/1/4 455/1/4
f 455/1/4 446/1/4 456/1/4
f 453/1/4 454/1/4 457/1/4
f 457/1/4 454/1/4 458/1/4
f 448/3/4 449/3/4 459/3/4
f 456/1/4 446/1/4 459/1/4
f 447/3/4 448/3/4 459/3/4
f 446/3/4 447/3/4 459/3/4
f 459/3/4 449/3/4 460/3/4
f 449/4/4 450/4/4 461/4/4
f 460/3/4 449/3/4 461/3/4
f 461/4/4 450/4/4 462/4/4
f 458/1/4 454/1/4 465/1/4
f 455/2/4 456/2/4 465/2/4
f 454/2/4 455/2/4 465/2/4
f 459/1/4 460/1/4 466/1/4
f 465/2/4 456/2/4 466/2/4
f 456/1/4 459/1/4 466/1/4
f 457/3/4 458/3/4 467/3/4
f 467/3/4 458/3/4 468/3/4
f 458/1/4 465/1/4 469/1/4
f 468/3/4 458/3/4 469/3/4
f 465/1/4 466/1/4 469/1/4
f 466/1/4 460/1/4 470/1/4
f 469/1/4 466/1/4 470/1/4
f 462/3/4 463/3/4 471/3/4
f 470/1/4 460/1/4 471/1/4
f 461/3/4 462/3/4 471/3/4
f 460/3/4 461/3/4 471/3/4
f 471/3/4 463/3/4 472/3/4
f 463/4/4 464/4/4 473/4/4
f 472/3/4 463/3/4 473/3/4
f 473/4/4 464/4/4 474/4/4
f 467/1/4 468/1/4 477/1/4
f 477/1/4 468/1/4 478/1/4
f 468/3/4 469/3/4 479/3/4
f 478/1/4 468/1/4 479/1/4
f 469/3/4 470/3/4 479/3/4
f 479/3/4 470/3/4 480/3/4
f 471/1/4 472/1/4 481/1/4
f 480/3/4 470/3/4 481/3/4
f 470/1/4 471/1/4 481/1/4
f 472/3/4 473/3/4 482/3/4
f 481/1/4 472/1/4 482/1/4
f 473/3/4 474/3/4 482/3/4
f 474/3/4 475/3/4 482/3/4
f 479/1/4 480/1/4 483/1/4
f 477/2/4 478/2/4 483/2/4
f 478/1/4 479/1/4 483/1/4
f 483/1/4 480/1/4 484/1/4
f 484/1/4 480/1/4 485/1/4
f 481/3/4 482/3/4 486/3/4
f 485/1/4 480/1/4 486/1/4
f 480/3/4 481/3/4 486/3/4
f 486/3/4 482/3/4 487/3/4
f 487/3/4 482/3/4 488/3/4
f 482/3/4 475/3/4 489/3/4
f 488/3/4 482/3/4 489/3/4
f 483/2/4 484/2/4 490/2/4
f 477/2/4 483/2/4 490/2/4
f 484/1/4 485/1/4 491/1/4
f 490/2/4 484/2/4 491/2/4
f 490/1/4 491/1/4 492/1/4
f 486/3/4 487/3/4 493/3/4
f 492/1/4 491/1/4 493/1/4
f 485/3/4 486/3/4 493/3/4
f 491/1/4 485/1/4 493/1/4
f 493/3/4 487/3/4 494/3/4
f 494/3/4 487/3/4 495/3/4
f 487/4/4 488/4/4 496/4/4
f 495/3/4 487/3/4 496/3/4
f 496/4/4 488/4/4 497/4/4
f 489/3/4 475/3/4 498/3/4
f 475/4/4 476/4/4 499/4/4
f 498/3/4 475/3/4 499/3/4
f 499/4/4 476/4/4 500/4/4
f 492/3/4 493/3/4 501/3/4
f 493/3/4 494/3/4 501/3/4
f 501/3/4 494/3/4 502/3/4
f 502/3/4 494/3/4 503/3/4
f 503/3/4 494/3/4 504/3/4
f 494/4/4 495/4/4 505/4/4
f 504/3/4 494/3/4 505/3/4
f 505/4/4 495/4/4 506/4/4
f 498/1/4 499/1/4 507/1/4
f 507/1/4 499/1/4 508/1/4
f 501/1/4 502/1/4 509/1/4
f 509/1/4 502/1/4 510/1/4
f 502/3/4 503/3/4 511/3/4
f 511/3/4 503/3/4 512/3/4
f 503/4/4 504/4/4 513/4/4
f 512/3/4 503/3/4 513/3/4
f 513/4/4 504/4/4 514/4/4
f 509/2/4 510/2/4 515/2/4
f 510/1/4 502/1/4 516/1/4
f 515/2/4 510/2/4 516/2/4
f 509/2/4 515/2/4 517/2/4
f 515/1/4 516/1/4 518/1/4
f 517/2/4 515/2/4 518/2/4
f 517/1/4 518/1/4 519/1/4
f 516/1/4 502/1/4 520/1/4
f 519/1/4 518/1/4 520/1/4
f 518/1/4 516/1/4 520/1/4
f 502/3/4 511/3/4 521/3/4
f 520/1/4 502/1/4 521/1/4
f 520/3/4 521/3/4 522/3/4
f 511/4/4 512/4/4 523/4/4
f 522/3/4 521/3/4 523/3/4
f 521/3/4 511/3/4 523/3/4
f 523/4/4 512/4/4 524/4/4
f 525/3/4 526/3/4 529/3/4
f 529/3/4 526/3/4 530/3/4
f 528/1/4 529/1/4 531/1/4
f 529/1/4 530/1/4 531/1/4
f 531/1/4 530/1/4 532/1/4
f 531/2/4 532/2/4 533/2/4
f 532/1/4 530/1/4 533/1/4
f 533/1/4 530/1/4 534/1/4
f 526/4/4 527/4/4 535/4/4
f 530/3/4 526/3/4 535/3/4
f 535/4/4 527/4/4 536/4/4
f 533/2/4 534/2/4 539/2/4
f 531/2/4 533/2/4 539/2/4
f 534/1/4 530/1/4 540/1/4
f 539/2/4 534/2/4 540/2/4
f 539/1/4 540/1/4 541/1/4
f 535/3/4 536/3/4 542/3/4
f 541/1/4 540/1/4 542/1/4
f 536/3/4 537/3/4 542/3/4
f 540/1/4 530/1/4 542/1/4
f 530/3/4 535/3/4 542/3/4
f 537/4/4 538/4/4 543/4/4
f 542/3/4 537/3/4 543/3/4
f 543/4/4 538/4/4 544/4/4
f 543/3/4 544/3/4 549/3/4
f 541/3/4 542/3/4 549/3/4
f 542/3/4 543/3/4 549/3/4
f 544/3/4 545/3/4 549/3/4
f 549/3/4 545/3/4 550/3/4
f 545/4/4 546/4/4 551/4/4
f 550/3/4 545/3/4 551/3/4
f 551/4/4 546/4/4 552/4/4
f 547/1/4 548/1/4 555/1/4
f 555/1/4 548/1/4 556/1/4
f 549/1/4 550/1/4 558/1/4
f 558/1/4 550/1/4 559/1/4
f 550/3/4 551/3/4 560/3/4
f 559/1/4 550/1/4 560/1/4
f 551/3/4 552/3/4 560/3/4
f 552/3/4 553/3/4 560/3/4
f 560/3/4 553/3/4 561/3/4
f 553/4/4 554/4/4 562/4/4
f 561/3/4 553/3/4 562/3/4
f 562/4/4 554/4/4 563/4/4
f 555/3/4 556/3/4 564/3/4
f 558/2/4 559/2/4 565/2/4
f 560/1/4 561/1/4 566/1/4
f 565/2/4 559/2/4 566/2/4
f 559/1/4 560/1/4 566/1/4
f 565/1/4 566/1/4 567/1/4
f 562/3/4 563/3/4 568/3/4
f 567/1/4 566/1/4 568/1/4
f 563/3/4 564/3/4 568/3/4
f 566/1/4 561/1/4 568/1/4
f 561/3/4 562/3/4 568/3/4
f 568/3/4 564/3/4 569/3/4
f 569/3/4 564/3/4 570/3/4
f 558/2/4 565/2/4 571/2/4
f 565/1/4 567/1/4 572/1/4
f 571/2/4 565/2/4 572/2/4
f 571/1/4 572/1/4 573/1/4
f 567/3/4 568/3/4 574/3/4
f 573/1/4 572/1/4 574/1/4
f 568/3/4 569/3/4 574/3/4
f 572/1/4 567/1/4 574/1/4
f 574/3/4 569/3/4 575/3/4
f 569/1/4 570/1/4 576/1/4
f 575/3/4 569/3/4 576/3/4
f 576/1/4 570/1/4 577/1/4
f 570/3/4 564/3/4 578/3/4
f 577/1/4 570/1/4 578/1/4
f 578/3/4 564/3/4 579/3/4
f 579/3/4 564/3/4 580/3/4
f 556/4/4 557/4/4 581/4/4
f 580/3/4 564/3/4 581/3/4
f 564/3/4 556/3/4 581/3/4
f 581/4/4 557/4/4 582/4/4
f 576/1/4 577/1/4 583/1/4
f 575/1/4 576/1/4 583/1/4
f 583/1/4 577/1/4 584/1/4
f 574/3/4 575/3/4 585/3/4
f 573/3/4 574/3/4 585/3/4
f 575/1/4 583/1/4 586/1/4
f 585/3/4 575/3/4 586/3/4
f 584/1/4 577/1/4 587/1/4
f 578/3/4 579/3/4 588/3/4
f 587/1/4 577/1/4 588/1/4
f 577/3/4 578/3/4 588/3/4
f 588/3/4 579/3/4 589/3/4
f 589/3/4 579/3/4 590/3/4
f 579/4/4 580/4/4 591/4/4
f 590/3/4 579/3/4 591/3/4
f 591/4/4 580/4/4 592/4/4
f 585/1/4 586/1/4 595/1/4
f 586/1/4 583/1/4 596/1/4
f 595/1/4 586/1/4 596/1/4
f 583/2/4 584/2/4 596/2/4
f 596/2/4 584/2/4 597/2/4
f 584/1/4 587/1/4 598/1/4
f 597/2/4 584/2/4 598/2/4
f 597/1/4 598/1/4 599/1/4
f 587/3/4 588/3/4 600/3/4
f 599/1/4 598/1/4 600/1/4
f 588/3/4 589/3/4 600/3/4
f 598/1/4 587/1/4 600/1/4
f 600/3/4 589/3/4 601/3/4
f 601/3/4 589/3/4 602/3/4
f 589/4/4 590/4/4 603/4/4
f 602/3/4 589/3/4 603/3/4
f 603/4/4 590/4/4 604/4/4
f 593/3/4 594/3/4 605/3/4
f 605/3/4 594/3/4 606/3/4
f 606/3/4 594/3/4 607/3/4
f 596/2/4 597/2/4 608/2/4
f 595/2/4 596/2/4 608/2/4
f 597/1/4 599/1/4 609/1/4
f 608/2/4 597/2/4 609/2/4
f 608/1/4 609/1/4 610/1/4
f 609/1/4 599/1/4 611/1/4
f 610/1/4 609/1/4 611/1/4
f 599/3/4 600/3/4 611/3/4
f 600/3/4 601/3/4 611/3/4
f 611/3/4 601/3/4 612/3/4
f 612/3/4 601/3/4 613/3/4
f 601/4/4 602/4/4 614/4/4
f 613/3/4 601/3/4 614/3/4
f 614/4/4 602/4/4 615/4/4
f 595/2/4 608/2/4 616/2/4
f 608/1/4 610/1/4 617/1/4
f 616/2/4 608/2/4 617/2/4
f 605/2/4 606/2/4 618/2/4
f 595/2/4 616/2/4 619/2/4
f 616/1/4 617/1/4 620/1/4
f 617/1/4 610/1/4 621/1/4
f 620/1/4 617/1/4 621/1/4
f 610/3/4 611/3/4 621/3/4
f 611/3/4 612/3/4 621/3/4
f 621/3/4 612/3/4 622/3/4
f 622/3/4 612/3/4 623/3/4
f 612/4/4 613/4/4 624/4/4
f 623/3/4 612/3/4 624/3/4
f 624/4/4 613/4/4 625/4/4
f 605/2/4 618/2/4 626/2/4
f 593/3/4 605/3/4 626/3/4
f 618/2/4 619/2/4 626/2/4
f 616/1/4 620/1/4 627/1/4
f 626/2/4 619/2/4 627/2/4
f 619/2/4 616/2/4 627/2/4
f 593/3/4 626/3/4 628/3/4
f 626/1/4 627/1/4 628/1/4
f 627/1/4 620/1/4 629/1/4
f 628/1/4 627/1/4 629/1/4
f 621/3/4 622/3/4 629/3/4
f 620/3/4 621/3/4 629/3/4
f 629/3/4 622/3/4 630/3/4
f 630/3/4 622/3/4 631/3/4
f 622/4/4 623/4/4 632/4/4
f 631/3/4 622/3/4 632/3/4
f 632/4/4 623/4/4 633/4/4
f 593/3/4 628/3/4 634/3/4
f 628/3/4 629/3/4 634/3/4
f 629/3/4 630/3/4 634/3/4
f 630/4/4 631/4/4 635/4/4
f 634/3/4 630/3/4 635/3/4
f 635/4/4 631/4/4 636/4/4
f 641/3/5 638/3/5 637/3/5
f 642/3/5 638/3/5 641/3/5
f 643/3/5 640/3/5 639/3/5
f 644/3/5 640/3/5 643/3/5
f 667/2/5 646/2/5 645/2/5
f 668/2/5 646/2/5 667/2/5
f 669/1/5 647/1/5 646/1/5
f 669/2/5 646/2/5 668/2/5
f 670/3/5 648/3/5 647/3/5
f 670/1/5 647/1/5 669/1/5
f 671/3/5 648/3/5 670/3/5
f 672/1/5 649/1/5 648/1/5
f 672/3/5 648/3/5 671/3/5
f 673/2/5 650/2/5 649/2/5
f 673/1/5 649/1/5 672/1/5
f 674/2/5 650/2/5 673/2/5
f 675/2/5 650/2/5 674/2/5
f 676/1/5 651/1/5 650/1/5
f 676/2/5 650/2/5 675/2/5
f 677/3/5 652/3/5 651/3/5
f 677/1/5 651/1/5 676/1/5
f 678/3/5 652/3/5 677/3/5
f 679/1/5 653/1/5 652/1/5
f 679/3/5 652/3/5 678/3/5
f 680/2/5 654/2/5 653/2/5
f 680/1/5 653/1/5 679/1/5
f 681/2/5 658/2/5 657/2/5
f 681/1/5 659/1/5 658/1/5
f 682/3/5 660/3/5 659/3/5
f 682/1/5 659/1/5 681/1/5
f 683/3/5 660/3/5 682/3/5
f 684/1/5 661/1/5 660/1/5
f 684/3/5 660/3/5 683/3/5
f 685/2/5 662/2/5 661/2/5
f 685/1/5 661/1/5 684/1/5
f 686/2/5 662/2/5 685/2/5
f 687/2/5 662/2/5 686/2/5
f 688/1/5 663/1/5 662/1/5
f 688/2/5 662/2/5 687/2/5
f 689/3/5 664/3/5 663/3/5
f 689/1/5 663/1/5 688/1/5
f 690/3/5 664/3/5 689/3/5
f 691/1/5 665/1/5 664/1/5
f 691/3/5 664/3/5 690/3/5
f 692/2/5 666/2/5 665/2/5
f 692/1/5 665/1/5 691/1/5
f 693/2/5 666/2/5 692/2/5
f 694/2/5 666/2/5 693/2/5
f 695/1/5 668/1/5 667/1/5
f 695/2/5 667/2/5 645/2/5
f 696/3/5 669/3/5 668/3/5
f 696/1/5 668/1/5 695/1/5
f 696/3/5 670/3/5 669/3/5
f 697/3/5 670/3/5 696/3/5
f 698/1/5 671/1/5 670/1/5
f 698/3/5 670/3/5 697/3/5
f 699/2/5 672/2/5 671/2/5
f 699/1/5 671/1/5 698/1/5
f 699/2/5 673/2/5 672/2/5
f 699/2/5 674/2/5 673/2/5
f 700/2/5 674/2/5 699/2/5
f 701/2/5 674/2/5 700/2/5
f 702/1/5 675/1/5 674/1/5
f 702/2/5 674/2/5 701/2/5
f 703/3/5 676/3/5 675/3/5
f 703/1/5 675/1/5 702/1/5
f 703/3/5 677/3/5 676/3/5
f 704/3/5 677/3/5 703/3/5
f 705/1/5 678/1/5 677/1/5
f 705/3/5 677/3/5 704/3/5
f 706/2/5 679/2/5 678/2/5
f 706/1/5 678/1/5 705/1/5
f 706/2/5 680/2/5 679/2/5
f 707/2/5 680/2/5 706/2/5
f 708/2/5 654/2/5 680/2/5
f 708/2/5 680/2/5 707/2/5
f 709/2/5 681/2/5 657/2/5
f 709/2/5 683/2/5 682/2/5
f 709/2/5 682/2/5 681/2/5
f 710/2/5 683/2/5 709/2/5
f 711/1/5 684/1/5 683/1/5
f 711/2/5 683/2/5 710/2/5
f 712/3/5 685/3/5 684/3/5
f 712/1/5 684/1/5 711/1/5
f 712/3/5 686/3/5 685/3/5
f 713/3/5 686/3/5 712/3/5
f 714/1/5 687/1/5 686/1/5
f 714/3/5 686/3/5 713/3/5
f 715/2/5 688/2/5 687/2/5
f 715/1/5 687/1/5 714/1/5
f 715/2/5 690/2/5 689/2/5
f 715/2/5 689/2/5 688/2/5
f 716/2/5 690/2/5 715/2/5
f 717/2/5 690/2/5 716/2/5
f 718/1/5 691/1/5 690/1/5
f 718/2/5 690/2/5 717/2/5
f 719/3/5 693/3/5 692/3/5
f 719/1/5 691/1/5 718/1/5
f 719/3/5 692/3/5 691/3/5
f 720/3/5 693/3/5 719/3/5
f 721/1/5 694/1/5 693/1/5
f 721/3/5 693/3/5 720/3/5
f 722/2/5 666/2/5 694/2/5
f 722/1/5 694/1/5 721/1/5
f 723/2/5 695/2/5 645/2/5
f 723/2/5 697/2/5 696/2/5
f 723/2/5 696/2/5 695/2/5
f 724/1/5 698/1/5 697/1/5
f 724/2/5 697/2/5 723/2/5
f 725/3/5 700/3/5 699/3/5
f 725/1/5 698/1/5 724/1/5
f 725/3/5 699/3/5 698/3/5
f 726/1/5 701/1/5 700/1/5
f 726/3/5 700/3/5 725/3/5
f 727/2/5 702/2/5 701/2/5
f 727/1/5 701/1/5 726/1/5
f 727/2/5 704/2/5 703/2/5
f 727/2/5 703/2/5 702/2/5
f 728/1/5 705/1/5 704/1/5
f 728/2/5 704/2/5 727/2/5
f 729/3/5 707/3/5 706/3/5
f 729/1/5 705/1/5 728/1/5
f 729/3/5 706/3/5 705/3/5
f 730/1/5 708/1/5 707/1/5
f 730/3/5 707/3/5 729/3/5
f 731/2/5 654/2/5 708/2/5
f 731/1/5 708/1/5 730/1/5
f 732/1/5 655/1/5 654/1/5
f 732/2/5 654/2/5 731/2/5
f 733/1/5 655/1/5 732/1/5
f 734/1/5 657/1/5 656/1/5
f 735/2/5 709/2/5 657/2/5
f 735/1/5 657/1/5 734/1/5
f 736/1/5 710/1/5 709/1/5
f 736/2/5 709/2/5 735/2/5
f 737/3/5 712/3/5 711/3/5
f 737/1/5 710/1/5 736/1/5
f 737/3/5 711/3/5 710/3/5
f 738/1/5 713/1/5 712/1/5
f 738/3/5 712/3/5 737/3/5
f 739/2/5 715/2/5 714/2/5
f 739/1/5 713/1/5 738/1/5
f 739/2/5 714/2/5 713/2/5
f 739/2/5 716/2/5 715/2/5
f 740/1/5 717/1/5 716/1/5
f 740/2/5 716/2/5 739/2/5
f 741/3/5 718/3/5 717/3/5
f 741/1/5 717/1/5 740/1/5
f 741/3/5 719/3/5 718/3/5
f 742/1/5 720/1/5 719/1/5
f 742/3/5 719/3/5 741/3/5
f 743/2/5 721/2/5 720/2/5
f 743/1/5 720/1/5 742/1/5
f 743/2/5 722/2/5 721/2/5
f 744/2/5 666/2/5 722/2/5
f 744/2/5 722/2/5 743/2/5
f 749/3/5 746/3/5 745/3/5
f 750/3/5 746/3/5 749/3/5
f 751/3/5 748/3/5 747/3/5
f 752/3/5 748/3/5 751/3/5
f 759/3/5 754/3/5 753/3/5
f 760/1/5 755/1/5 754/1/5
f 760/3/5 754/3/5 759/3/5
f 761/1/5 755/1/5 760/1/5
f 762/1/5 757/1/5 756/1/5
f 763/3/5 758/3/5 757/3/5
f 763/1/5 757/1/5 762/1/5
f 764/3/5 758/3/5 763/3/5
f 765/2/6 766/2/6 769/2/6
f 769/2/6 766/2/6 770/2/6
f 767/2/6 768/2/6 771/2/6
f 771/2/6 768/2/6 772/2/6
f 773/3/6 774/3/6 777/3/6
f 777/3/6 774/3/6 778/3/6
f 775/3/6 776/3/6 779/3/6
f 779/3/6 776/3/6 780/3/6
f 781/4/6 782/4/6 785/4/6
f 785/4/6 782/4/6 786/4/6
f 783/4/6 784/4/6 787/4/6
f 787/4/6 784/4/6 788/4/6
f 789/4/6 790/4/6 793/4/6
f 793/4/6 790/4/6 794/4/6
f 791/4/6 792/4/6 795/4/6
f 795/4/6 792/4/6 796/4/6
f 797/4/6 798/4/6 801/4/6
f 801/4/6 798/4/6 802/4/6
f 799/4/6 800/4/6 803/4/6
f 803/4/6 800/4/6 804/4/6
f 805/4/6 806/4/6 809/4/6
f 809/4/6 806/4/6 810/4/6
f 807/4/6 808/4/6 811/4/6
f 811/4/6 808/4/6 812/4/6
f 813/4/6 814/4/6 817/4/6
f 817/4/6 814/4/6 818/4/6
f 815/4/6 816/4/6 819/4/6
f 819/4/6 816/4/6 820/4/6
f 821/4/6 822/4/6 825/4/6
f 825/4/6 822/4/6 826/4/6
f 823/4/6 824/4/6 827/4/6
f 827/4/6 824/4/6 828/4/6
f 829/4/6 830/4/6 833/4/6
f 833/4/6 830/4/6 834/4/6
f 831/4/6 832/4/6 835/4/6
f 835/4/6 832/4/6 836/4/6
f 837/4/6 838/4/6 841/4/6
f 841/4/6 838/4/6 842/4/6
f 839/4/6 840/4/6 843/4/6
f 843/4/6 840/4/6 844/4/6
f 845/4/6 846/4/6 849/4/6
f 849/4/6 846/4/6 850/4/6
f 847/4/6 848/4/6 851/4/6
f 851/4/6 848/4/6 852/4/6
f 853/4/6 854/4/6 857/4/6
f 857/4/6 854/4/6 858/4/6
f 855/4/6 856/4/6 859/4/6
f 859/4/6 856/4/6 860/4/6
f 861/1/6 862/1/6 865/1/6
f 865/1/6 862/1/6 866/1/6
f 863/1/6 864/1/6 867/1/6
f 867/1/6 864/1/6 868/1/6
f 869/4/6 870/4/6 873/4/6
f 873/4/6 870/4/6 874/4/6
f 871/4/6 872/4/6 875/4/6
f 875/4/6 872/4/6 876/4/6
