# MagicaVoxel @ Ephtracy

# group
o 

# material
mtllib model.mtl
usemtl palette

# normals
vn 0 0 1
vn 0 0 -1
vn 1 0 0
vn -1 0 0
vn 0 -1 0
vn 0 1 0

# texcoords
vt 0.521484 0.5
vt 0.830078 0.5

# verts
v 1.1 0.2 2.1
v -1.1 0.2 2.1
v 1.1 0.8 2.1
v 0.8 0.8 2.1
v -0.8 0.8 2.1
v -1.1 0.8 2.1
v 0.8 1.1 2.1
v -0.8 1.1 2.1
v 1.4 0 1.9
v -1.4 0 1.9
v 1.1 0.2 1.9
v -1.1 0.2 1.9
v 1.4 0.4 1.9
v 1.1 0.4 1.9
v -1.1 0.4 1.9
v -1.4 0.4 1.9
v 1.6 0 1.7
v 1.4 0 1.7
v -1.4 0 1.7
v -1.6 0 1.7
v 1.6 0.2 1.7
v 1.4 0.2 1.7
v -1.4 0.2 1.7
v -1.6 0.2 1.7
v 1.8 0 1.4
v 1.6 0 1.4
v -1.6 0 1.4
v -1.8 0 1.4
v 1.8 0.2 1.4
v 1.6 0.2 1.4
v -1.6 0.2 1.4
v -1.8 0.2 1.4
v 1 0.2 1.3
v -1 0.2 1.3
v 1 0.7 1.3
v -1 0.7 1.3
v 0.9 0.7 1.2
v -0.9 0.7 1.2
v 0.9 1.6 1.2
v -0.9 1.6 1.2
v 1.2 0.2 1.1
v 1 0.2 1.1
v -1 0.2 1.1
v -1.2 0.2 1.1
v 1.2 0.7 1.1
v 1 0.7 1.1
v -1 0.7 1.1
v -1.2 0.7 1.1
v 1.1 0.7 1
v 0.9 0.7 1
v -0.9 0.7 1
v -1.1 0.7 1
v 1.1 1.6 1
v 0.9 1.6 1
v -0.9 1.6 1
v -1.1 1.6 1
v 1.1 1.4 -0.4
v -1.1 1.4 -0.4
v 1.1 1.6 -0.4
v -1.1 1.6 -0.4
v 1.4 0.2 -1.7
v -1.4 0.2 -1.7
v 1.4 0.4 -1.7
v -1.4 0.4 -1.7
v 1.1 0.4 -1.9
v -1.1 0.4 -1.9
v 1.1 0.8 -1.9
v 0.8 0.8 -1.9
v -0.8 0.8 -1.9
v -1.1 0.8 -1.9
v 0.8 1.1 -1.9
v -0.8 1.1 -1.9
v 1.1 0.4 1.9
v -1.1 0.4 1.9
v 1.1 0.8 1.9
v 0.8 0.8 1.9
v -0.8 0.8 1.9
v -1.1 0.8 1.9
v 0.8 1.1 1.9
v -0.8 1.1 1.9
v 1.4 0.2 1.7
v -1.4 0.2 1.7
v 1.4 0.4 1.7
v -1.4 0.4 1.7
v 1.1 1.4 0.4
v -1.1 1.4 0.4
v 1.1 1.6 0.4
v -1.1 1.6 0.4
v 1.1 0.7 -1
v 0.9 0.7 -1
v -0.9 0.7 -1
v -1.1 0.7 -1
v 1.1 1.6 -1
v 0.9 1.6 -1
v -0.9 1.6 -1
v -1.1 1.6 -1
v 1.2 0.2 -1.1
v 1 0.2 -1.1
v -1 0.2 -1.1
v -1.2 0.2 -1.1
v 1.2 0.7 -1.1
v 1 0.7 -1.1
v -1 0.7 -1.1
v -1.2 0.7 -1.1
v 0.9 0.7 -1.2
v -0.9 0.7 -1.2
v 0.9 1.6 -1.2
v -0.9 1.6 -1.2
v 1 0.2 -1.3
v -1 0.2 -1.3
v 1 0.7 -1.3
v -1 0.7 -1.3
v 1.8 0 -1.4
v 1.6 0 -1.4
v -1.6 0 -1.4
v -1.8 0 -1.4
v 1.8 0.2 -1.4
v 1.6 0.2 -1.4
v -1.6 0.2 -1.4
v -1.8 0.2 -1.4
v 1.6 0 -1.7
v 1.4 0 -1.7
v -1.4 0 -1.7
v -1.6 0 -1.7
v 1.6 0.2 -1.7
v 1.4 0.2 -1.7
v -1.4 0.2 -1.7
v -1.6 0.2 -1.7
v 1.4 0 -1.9
v -1.4 0 -1.9
v 1.1 0.2 -1.9
v -1.1 0.2 -1.9
v 1.4 0.4 -1.9
v 1.1 0.4 -1.9
v -1.1 0.4 -1.9
v -1.4 0.4 -1.9
v 1.1 0.2 -2.1
v -1.1 0.2 -2.1
v 1.1 0.8 -2.1
v 0.8 0.8 -2.1
v -0.8 0.8 -2.1
v -1.1 0.8 -2.1
v 0.8 1.1 -2.1
v -0.8 1.1 -2.1
v 1.8 0 1.4
v 1.8 0.2 1.4
v 1.8 0 -1.4
v 1.8 0.2 -1.4
v 1.6 0 1.7
v 1.6 0.2 1.7
v 1.6 0 1.4
v 1.6 0.2 1.4
v 1.6 0 -1.4
v 1.6 0.2 -1.4
v 1.6 0 -1.7
v 1.6 0.2 -1.7
v 1.4 0 1.9
v 1.4 0.4 1.9
v 1.4 0 1.7
v 1.4 0.2 1.7
v 1.4 0.4 1.7
v 1.4 0 -1.7
v 1.4 0.2 -1.7
v 1.4 0.4 -1.7
v 1.4 0 -1.9
v 1.4 0.4 -1.9
v 1.2 0.2 1.1
v 1.2 0.7 1.1
v 1.2 0.2 -1.1
v 1.2 0.7 -1.1
v 1.1 0.2 2.1
v 1.1 0.8 2.1
v 1.1 0.2 1.9
v 1.1 0.4 1.9
v 1.1 0.8 1.9
v 1.1 0.7 1
v 1.1 1.6 1
v 1.1 1.4 0.4
v 1.1 1.6 0.4
v 1.1 1.4 -0.4
v 1.1 1.6 -0.4
v 1.1 0.7 -1
v 1.1 1.6 -1
v 1.1 0.2 -1.9
v 1.1 0.4 -1.9
v 1.1 0.8 -1.9
v 1.1 0.2 -2.1
v 1.1 0.8 -2.1
v 1 0.2 1.3
v 1 0.7 1.3
v 1 0.2 1.1
v 1 0.7 1.1
v 1 0.2 -1.1
v 1 0.7 -1.1
v 1 0.2 -1.3
v 1 0.7 -1.3
v 0.9 0.7 1.2
v 0.9 1.6 1.2
v 0.9 0.7 1
v 0.9 1.6 1
v 0.9 0.7 -1
v 0.9 1.6 -1
v 0.9 0.7 -1.2
v 0.9 1.6 -1.2
v 0.8 0.8 2.1
v 0.8 1.1 2.1
v 0.8 0.8 1.9
v 0.8 1.1 1.9
v 0.8 0.8 -1.9
v 0.8 1.1 -1.9
v 0.8 0.8 -2.1
v 0.8 1.1 -2.1
v -0.8 0.8 2.1
v -0.8 1.1 2.1
v -0.8 0.8 1.9
v -0.8 1.1 1.9
v -0.8 0.8 -1.9
v -0.8 1.1 -1.9
v -0.8 0.8 -2.1
v -0.8 1.1 -2.1
v -0.9 0.7 1.2
v -0.9 1.6 1.2
v -0.9 0.7 1
v -0.9 1.6 1
v -0.9 0.7 -1
v -0.9 1.6 -1
v -0.9 0.7 -1.2
v -0.9 1.6 -1.2
v -1 0.2 1.3
v -1 0.7 1.3
v -1 0.2 1.1
v -1 0.7 1.1
v -1 0.2 -1.1
v -1 0.7 -1.1
v -1 0.2 -1.3
v -1 0.7 -1.3
v -1.1 0.2 2.1
v -1.1 0.8 2.1
v -1.1 0.2 1.9
v -1.1 0.4 1.9
v -1.1 0.8 1.9
v -1.1 0.7 1
v -1.1 1.6 1
v -1.1 1.4 0.4
v -1.1 1.6 0.4
v -1.1 1.4 -0.4
v -1.1 1.6 -0.4
v -1.1 0.7 -1
v -1.1 1.6 -1
v -1.1 0.2 -1.9
v -1.1 0.4 -1.9
v -1.1 0.8 -1.9
v -1.1 0.2 -2.1
v -1.1 0.8 -2.1
v -1.2 0.2 1.1
v -1.2 0.7 1.1
v -1.2 0.2 -1.1
v -1.2 0.7 -1.1
v -1.4 0 1.9
v -1.4 0.4 1.9
v -1.4 0 1.7
v -1.4 0.2 1.7
v -1.4 0.4 1.7
v -1.4 0 -1.7
v -1.4 0.2 -1.7
v -1.4 0.4 -1.7
v -1.4 0 -1.9
v -1.4 0.4 -1.9
v -1.6 0 1.7
v -1.6 0.2 1.7
v -1.6 0 1.4
v -1.6 0.2 1.4
v -1.6 0 -1.4
v -1.6 0.2 -1.4
v -1.6 0 -1.7
v -1.6 0.2 -1.7
v -1.8 0 1.4
v -1.8 0.2 1.4
v -1.8 0 -1.4
v -1.8 0.2 -1.4
v 1.8 0 1.4
v 1.8 0 -1.4
v 1.6 0 1.7
v 1.6 0 1.4
v 1.6 0 -1.4
v 1.6 0 -1.7
v 1.4 0 1.9
v 1.4 0 1.7
v 1.4 0 -1.7
v 1.4 0 -1.9
v -1.4 0 1.9
v -1.4 0 1.7
v -1.4 0 -1.7
v -1.4 0 -1.9
v -1.6 0 1.7
v -1.6 0 1.4
v -1.6 0 -1.4
v -1.6 0 -1.7
v -1.8 0 1.4
v -1.8 0 -1.4
v 1.1 0.2 2.1
v 1.1 0.2 1.9
v 1.1 0.2 -1.9
v 1.1 0.2 -2.1
v -1.1 0.2 2.1
v -1.1 0.2 1.9
v -1.1 0.2 -1.9
v -1.1 0.2 -2.1
v 1.8 0.2 1.4
v 1.8 0.2 -1.4
v 1.6 0.2 1.7
v 1.6 0.2 1.4
v 1.6 0.2 -1.4
v 1.6 0.2 -1.7
v 1.4 0.2 1.7
v 1.4 0.2 -1.7
v 1.2 0.2 1.1
v 1.2 0.2 -1.1
v 1 0.2 1.3
v 1 0.2 1.1
v 1 0.2 -1.1
v 1 0.2 -1.3
v -1 0.2 1.3
v -1 0.2 1.1
v -1 0.2 -1.1
v -1 0.2 -1.3
v -1.2 0.2 1.1
v -1.2 0.2 -1.1
v -1.4 0.2 1.7
v -1.4 0.2 -1.7
v -1.6 0.2 1.7
v -1.6 0.2 1.4
v -1.6 0.2 -1.4
v -1.6 0.2 -1.7
v -1.8 0.2 1.4
v -1.8 0.2 -1.4
v 1.4 0.4 1.9
v 1.4 0.4 1.7
v 1.4 0.4 -1.7
v 1.4 0.4 -1.9
v 1.1 0.4 1.9
v 1.1 0.4 -1.9
v -1.1 0.4 1.9
v -1.1 0.4 -1.9
v -1.4 0.4 1.9
v -1.4 0.4 1.7
v -1.4 0.4 -1.7
v -1.4 0.4 -1.9
v 1.2 0.7 1.1
v 1.2 0.7 -1.1
v 1.1 0.7 1
v 1.1 0.7 -1
v 1 0.7 1.3
v 1 0.7 1.1
v 1 0.7 -1.1
v 1 0.7 -1.3
v 0.9 0.7 1.2
v 0.9 0.7 1
v 0.9 0.7 -1
v 0.9 0.7 -1.2
v -0.9 0.7 1.2
v -0.9 0.7 1
v -0.9 0.7 -1
v -0.9 0.7 -1.2
v -1 0.7 1.3
v -1 0.7 1.1
v -1 0.7 -1.1
v -1 0.7 -1.3
v -1.1 0.7 1
v -1.1 0.7 -1
v -1.2 0.7 1.1
v -1.2 0.7 -1.1
v 1.1 0.8 2.1
v 1.1 0.8 1.9
v 1.1 0.8 -1.9
v 1.1 0.8 -2.1
v 0.8 0.8 2.1
v 0.8 0.8 1.9
v 0.8 0.8 -1.9
v 0.8 0.8 -2.1
v -0.8 0.8 2.1
v -0.8 0.8 1.9
v -0.8 0.8 -1.9
v -0.8 0.8 -2.1
v -1.1 0.8 2.1
v -1.1 0.8 1.9
v -1.1 0.8 -1.9
v -1.1 0.8 -2.1
v 0.8 1.1 2.1
v 0.8 1.1 1.9
v 0.8 1.1 -1.9
v 0.8 1.1 -2.1
v -0.8 1.1 2.1
v -0.8 1.1 1.9
v -0.8 1.1 -1.9
v -0.8 1.1 -2.1
v 1.1 1.4 0.4
v 1.1 1.4 -0.4
v -1.1 1.4 0.4
v -1.1 1.4 -0.4
v 1.1 1.6 1
v 1.1 1.6 0.4
v 1.1 1.6 -0.4
v 1.1 1.6 -1
v 0.9 1.6 1.2
v 0.9 1.6 1
v 0.9 1.6 -1
v 0.9 1.6 -1.2
v -0.9 1.6 1.2
v -0.9 1.6 1
v -0.9 1.6 -1
v -0.9 1.6 -1.2
v -1.1 1.6 1
v -1.1 1.6 0.4
v -1.1 1.6 -0.4
v -1.1 1.6 -1

# faces
f 3/2/1 2/2/1 1/2/1
f 4/2/1 2/2/1 3/2/1
f 5/2/1 2/2/1 4/2/1
f 6/2/1 2/2/1 5/2/1
f 7/2/1 5/2/1 4/2/1
f 8/2/1 5/2/1 7/2/1
f 11/2/1 10/2/1 9/2/1
f 12/2/1 10/2/1 11/2/1
f 13/2/1 11/2/1 9/2/1
f 14/2/1 11/2/1 13/2/1
f 15/2/1 10/2/1 12/2/1
f 16/2/1 10/2/1 15/2/1
f 21/2/1 18/2/1 17/2/1
f 22/2/1 18/2/1 21/2/1
f 23/2/1 20/2/1 19/2/1
f 24/2/1 20/2/1 23/2/1
f 29/2/1 26/2/1 25/2/1
f 30/2/1 26/2/1 29/2/1
f 31/2/1 28/2/1 27/2/1
f 32/2/1 28/2/1 31/2/1
f 35/1/1 34/1/1 33/1/1
f 36/1/1 34/1/1 35/1/1
f 39/2/1 38/2/1 37/2/1
f 40/2/1 38/2/1 39/2/1
f 45/1/1 42/1/1 41/1/1
f 46/1/1 42/1/1 45/1/1
f 47/1/1 44/1/1 43/1/1
f 48/1/1 44/1/1 47/1/1
f 53/2/1 50/2/1 49/2/1
f 54/2/1 50/2/1 53/2/1
f 55/2/1 52/2/1 51/2/1
f 56/2/1 52/2/1 55/2/1
f 59/2/1 58/2/1 57/2/1
f 60/2/1 58/2/1 59/2/1
f 63/2/1 62/2/1 61/2/1
f 64/2/1 62/2/1 63/2/1
f 67/2/1 66/2/1 65/2/1
f 68/2/1 66/2/1 67/2/1
f 69/2/1 66/2/1 68/2/1
f 70/2/1 66/2/1 69/2/1
f 71/2/1 69/2/1 68/2/1
f 72/2/1 69/2/1 71/2/1
f 73/2/2 74/2/2 75/2/2
f 75/2/2 74/2/2 76/2/2
f 76/2/2 74/2/2 77/2/2
f 77/2/2 74/2/2 78/2/2
f 76/2/2 77/2/2 79/2/2
f 79/2/2 77/2/2 80/2/2
f 81/2/2 82/2/2 83/2/2
f 83/2/2 82/2/2 84/2/2
f 85/2/2 86/2/2 87/2/2
f 87/2/2 86/2/2 88/2/2
f 89/2/2 90/2/2 93/2/2
f 93/2/2 90/2/2 94/2/2
f 91/2/2 92/2/2 95/2/2
f 95/2/2 92/2/2 96/2/2
f 97/1/2 98/1/2 101/1/2
f 101/1/2 98/1/2 102/1/2
f 99/1/2 100/1/2 103/1/2
f 103/1/2 100/1/2 104/1/2
f 105/2/2 106/2/2 107/2/2
f 107/2/2 106/2/2 108/2/2
f 109/1/2 110/1/2 111/1/2
f 111/1/2 110/1/2 112/1/2
f 113/2/2 114/2/2 117/2/2
f 117/2/2 114/2/2 118/2/2
f 115/2/2 116/2/2 119/2/2
f 119/2/2 116/2/2 120/2/2
f 121/2/2 122/2/2 125/2/2
f 125/2/2 122/2/2 126/2/2
f 123/2/2 124/2/2 127/2/2
f 127/2/2 124/2/2 128/2/2
f 129/2/2 130/2/2 131/2/2
f 131/2/2 130/2/2 132/2/2
f 129/2/2 131/2/2 133/2/2
f 133/2/2 131/2/2 134/2/2
f 132/2/2 130/2/2 135/2/2
f 135/2/2 130/2/2 136/2/2
f 137/2/2 138/2/2 139/2/2
f 139/2/2 138/2/2 140/2/2
f 140/2/2 138/2/2 141/2/2
f 141/2/2 138/2/2 142/2/2
f 140/2/2 141/2/2 143/2/2
f 143/2/2 141/2/2 144/2/2
f 147/2/3 146/2/3 145/2/3
f 148/2/3 146/2/3 147/2/3
f 151/2/3 150/2/3 149/2/3
f 152/2/3 150/2/3 151/2/3
f 155/2/3 154/2/3 153/2/3
f 156/2/3 154/2/3 155/2/3
f 159/2/3 158/2/3 157/2/3
f 160/2/3 158/2/3 159/2/3
f 161/2/3 158/2/3 160/2/3
f 165/2/3 163/2/3 162/2/3
f 165/2/3 164/2/3 163/2/3
f 166/2/3 164/2/3 165/2/3
f 169/1/3 168/1/3 167/1/3
f 170/1/3 168/1/3 169/1/3
f 173/2/3 172/2/3 171/2/3
f 174/2/3 172/2/3 173/2/3
f 175/2/3 172/2/3 174/2/3
f 178/2/3 177/2/3 176/2/3
f 179/2/3 177/2/3 178/2/3
f 180/2/3 178/2/3 176/2/3
f 182/2/3 180/2/3 176/2/3
f 182/2/3 181/2/3 180/2/3
f 183/2/3 181/2/3 182/2/3
f 187/2/3 185/2/3 184/2/3
f 187/2/3 186/2/3 185/2/3
f 188/2/3 186/2/3 187/2/3
f 191/1/3 190/1/3 189/1/3
f 192/1/3 190/1/3 191/1/3
f 195/1/3 194/1/3 193/1/3
f 196/1/3 194/1/3 195/1/3
f 199/2/3 198/2/3 197/2/3
f 200/2/3 198/2/3 199/2/3
f 203/2/3 202/2/3 201/2/3
f 204/2/3 202/2/3 203/2/3
f 207/2/3 206/2/3 205/2/3
f 208/2/3 206/2/3 207/2/3
f 211/2/3 210/2/3 209/2/3
f 212/2/3 210/2/3 211/2/3
f 213/2/4 214/2/4 215/2/4
f 215/2/4 214/2/4 216/2/4
f 217/2/4 218/2/4 219/2/4
f 219/2/4 218/2/4 220/2/4
f 221/2/4 222/2/4 223/2/4
f 223/2/4 222/2/4 224/2/4
f 225/2/4 226/2/4 227/2/4
f 227/2/4 226/2/4 228/2/4
f 229/1/4 230/1/4 231/1/4
f 231/1/4 230/1/4 232/1/4
f 233/1/4 234/1/4 235/1/4
f 235/1/4 234/1/4 236/1/4
f 237/2/4 238/2/4 239/2/4
f 239/2/4 238/2/4 240/2/4
f 240/2/4 238/2/4 241/2/4
f 242/2/4 243/2/4 244/2/4
f 244/2/4 243/2/4 245/2/4
f 242/2/4 244/2/4 246/2/4
f 242/2/4 246/2/4 248/2/4
f 246/2/4 247/2/4 248/2/4
f 248/2/4 247/2/4 249/2/4
f 250/2/4 251/2/4 253/2/4
f 251/2/4 252/2/4 253/2/4
f 253/2/4 252/2/4 254/2/4
f 255/1/4 256/1/4 257/1/4
f 257/1/4 256/1/4 258/1/4
f 259/2/4 260/2/4 261/2/4
f 261/2/4 260/2/4 262/2/4
f 262/2/4 260/2/4 263/2/4
f 264/2/4 265/2/4 267/2/4
f 265/2/4 266/2/4 267/2/4
f 267/2/4 266/2/4 268/2/4
f 269/2/4 270/2/4 271/2/4
f 271/2/4 270/2/4 272/2/4
f 273/2/4 274/2/4 275/2/4
f 275/2/4 274/2/4 276/2/4
f 277/2/4 278/2/4 279/2/4
f 279/2/4 278/2/4 280/2/4
f 284/2/5 282/2/5 281/2/5
f 285/2/5 282/2/5 284/2/5
f 288/2/5 284/2/5 283/2/5
f 288/2/5 286/2/5 285/2/5
f 288/2/5 285/2/5 284/2/5
f 289/2/5 286/2/5 288/2/5
f 291/2/5 288/2/5 287/2/5
f 291/2/5 290/2/5 289/2/5
f 291/2/5 289/2/5 288/2/5
f 292/2/5 290/2/5 291/2/5
f 293/2/5 290/2/5 292/2/5
f 294/2/5 290/2/5 293/2/5
f 295/2/5 293/2/5 292/2/5
f 296/2/5 293/2/5 295/2/5
f 297/2/5 293/2/5 296/2/5
f 298/2/5 293/2/5 297/2/5
f 299/2/5 297/2/5 296/2/5
f 300/2/5 297/2/5 299/2/5
f 305/2/5 302/2/5 301/2/5
f 306/2/5 302/2/5 305/2/5
f 307/2/5 304/2/5 303/2/5
f 308/2/5 304/2/5 307/2/5
f 309/2/6 310/2/6 312/2/6
f 312/2/6 310/2/6 313/2/6
f 311/2/6 312/2/6 315/2/6
f 313/2/6 314/2/6 315/2/6
f 312/2/6 313/2/6 315/2/6
f 315/2/6 314/2/6 316/2/6
f 315/2/6 316/2/6 317/2/6
f 317/2/6 316/2/6 318/2/6
f 315/2/6 317/2/6 319/2/6
f 319/2/6 317/2/6 320/2/6
f 318/2/6 316/2/6 321/2/6
f 321/2/6 316/2/6 322/2/6
f 315/2/6 319/2/6 323/2/6
f 322/2/6 316/2/6 326/2/6
f 323/2/6 324/2/6 327/2/6
f 325/2/6 326/2/6 328/2/6
f 323/2/6 327/2/6 329/2/6
f 327/2/6 328/2/6 329/2/6
f 315/2/6 323/2/6 329/2/6
f 328/2/6 326/2/6 330/2/6
f 329/2/6 328/2/6 330/2/6
f 326/2/6 316/2/6 330/2/6
f 329/2/6 330/2/6 331/2/6
f 331/2/6 330/2/6 332/2/6
f 332/2/6 330/2/6 333/2/6
f 333/2/6 330/2/6 334/2/6
f 332/2/6 333/2/6 335/2/6
f 335/2/6 333/2/6 336/2/6
f 337/2/6 338/2/6 341/2/6
f 339/2/6 340/2/6 342/2/6
f 341/2/6 338/2/6 343/2/6
f 339/2/6 342/2/6 344/2/6
f 343/2/6 338/2/6 345/2/6
f 345/2/6 338/2/6 346/2/6
f 339/2/6 344/2/6 347/2/6
f 347/2/6 344/2/6 348/2/6
f 349/1/6 350/1/6 351/1/6
f 351/1/6 350/1/6 352/1/6
f 349/1/6 351/1/6 354/1/6
f 352/1/6 350/1/6 355/1/6
f 353/1/6 354/1/6 357/1/6
f 354/1/6 351/1/6 358/1/6
f 357/1/6 354/1/6 358/1/6
f 355/1/6 356/1/6 359/1/6
f 352/1/6 355/1/6 359/1/6
f 359/1/6 356/1/6 360/1/6
f 353/1/6 357/1/6 361/1/6
f 360/1/6 356/1/6 364/1/6
f 361/1/6 362/1/6 365/1/6
f 353/1/6 361/1/6 365/1/6
f 365/1/6 362/1/6 366/1/6
f 363/1/6 364/1/6 367/1/6
f 364/1/6 356/1/6 368/1/6
f 367/1/6 364/1/6 368/1/6
f 366/1/6 362/1/6 369/1/6
f 363/1/6 367/1/6 370/1/6
f 366/1/6 369/1/6 371/1/6
f 369/1/6 370/1/6 371/1/6
f 370/1/6 367/1/6 372/1/6
f 371/1/6 370/1/6 372/1/6
f 373/2/6 374/2/6 377/2/6
f 377/2/6 374/2/6 378/2/6
f 375/2/6 376/2/6 379/2/6
f 379/2/6 376/2/6 380/2/6
f 381/2/6 382/2/6 385/2/6
f 385/2/6 382/2/6 386/2/6
f 383/2/6 384/2/6 387/2/6
f 387/2/6 384/2/6 388/2/6
f 389/2/6 390/2/6 393/2/6
f 393/2/6 390/2/6 394/2/6
f 391/2/6 392/2/6 395/2/6
f 395/2/6 392/2/6 396/2/6
f 397/2/6 398/2/6 399/2/6
f 399/2/6 398/2/6 400/2/6
f 401/2/6 402/2/6 406/2/6
f 403/2/6 404/2/6 407/2/6
f 405/2/6 406/2/6 409/2/6
f 406/2/6 402/2/6 410/2/6
f 409/2/6 406/2/6 410/2/6
f 407/2/6 408/2/6 411/2/6
f 403/2/6 407/2/6 411/2/6
f 411/2/6 408/2/6 412/2/6
f 410/2/6 402/2/6 413/2/6
f 413/2/6 402/2/6 414/2/6
f 403/2/6 411/2/6 415/2/6
f 415/2/6 411/2/6 416/2/6
