# MagicaVoxel @ Ephtracy

# group
o 

# material
mtllib model-0.mtl
usemtl palette

# normals
vn 0 0 1
vn 0 0 -1
vn 1 0 0
vn -1 0 0
vn 0 -1 0
vn 0 1 0

# texcoords
vt 0.0878906 0.5
vt 0.322266 0.5
vt 0.341797 0.5
vt 0.392578 0.5
vt 0.486328 0.5
vt 0.517578 0.5

# verts
v 0.5 0 1
v -0.5 0 1
v 0.5 0.2 1
v 0.4 0.2 1
v 5.96046e-08 0.2 1
v -0.3 0.2 1
v -0.2 0.3 1
v -0.3 0.3 1
v 0.5 0.4 1
v 0.4 0.4 1
v 5.96046e-08 0.4 1
v -0.2 0.4 1
v 0.5 0.5 1
v 0.4 0.5 1
v 0.5 0.7 1
v -0.5 0.7 1
v 0.6 0 0.2
v 0.5 0 0.2
v 0.5 0.1 0.2
v 0.5 0.2 0.2
v 0.6 0.7 0.2
v 0.5 0.7 0.2
v 0.6 0 -0.1
v 0.5 0 -0.1
v 0.6 0.7 -0.1
v 0.5 0.7 -0.1
v 0.6 0 0.1
v 0.5 0 0.1
v 0.6 0.7 0.1
v 0.5 0.7 0.1
v 0.6 0 -0.2
v 0.5 0 -0.2
v 0.5 0.6 -0.2
v 0.6 0.7 -0.2
v 0.5 0.7 -0.2
v 0.5 0 -1
v -0.5 0 -1
v 0.1 0.2 -1
v -0.2 0.2 -1
v -0.1 0.3 -1
v -0.2 0.3 -1
v 0.1 0.4 -1
v -0.1 0.4 -1
v 0.5 0.7 -1
v -0.5 0.7 -1
v 0.6 0 0.2
v 0.6 0.7 0.2
v 0.6 0 0.1
v 0.6 0.7 0.1
v 0.6 0 -0.1
v 0.6 0.7 -0.1
v 0.6 0 -0.2
v 0.6 0.7 -0.2
v 0.5 0 1
v 0.5 0.2 1
v 0.5 0.4 1
v 0.5 0.5 1
v 0.5 0.7 1
v 0.5 0.1 0.9
v 0.5 0.2 0.9
v 0.5 0.3 0.9
v 0.5 0.4 0.9
v 0.5 0.5 0.9
v 0.5 0.2 0.8
v 0.5 0.3 0.8
v 0.5 0.1 0.7
v 0.5 0.2 0.7
v 0.5 0.4 0.7
v 0.5 0.5 0.7
v 0.5 0.2 0.6
v 0.5 0.3 0.6
v 0.5 0.4 0.6
v 0.5 0.1 0.5
v 0.5 0.3 0.5
v 0.5 0.5 0.5
v 0.5 0.2 0.3
v 0.5 0.3 0.3
v 0.5 0 0.2
v 0.5 0.1 0.2
v 0.5 0.2 0.2
v 0.5 0.7 0.2
v 0.5 0 0.1
v 0.5 0.7 0.1
v 0.5 0 -0.1
v 0.5 0.7 -0.1
v 0.5 0 -0.2
v 0.5 0.6 -0.2
v 0.5 0.7 -0.2
v 0.5 0.6 -0.3
v 0.5 0.7 -0.3
v 0.5 0.1 -0.4
v 0.5 0.3 -0.4
v 0.5 0.2 -0.5
v 0.5 0.3 -0.5
v 0.5 0.4 -0.5
v 0.5 0.6 -0.5
v 0.5 0.7 -0.5
v 0.5 0.1 -0.6
v 0.5 0.2 -0.6
v 0.5 0.4 -0.6
v 0.5 0.5 -0.6
v 0.5 0.3 -0.7
v 0.5 0.4 -0.7
v 0.5 0.1 -0.8
v 0.5 0.2 -0.8
v 0.5 0.3 -0.8
v 0.5 0.4 -0.8
v 0.5 0.5 -0.8
v 0.5 0.1 -0.9
v 0.5 0.2 -0.9
v 0.5 0.4 -0.9
v 0.5 0 -1
v 0.5 0.7 -1
v -0.5 0 1
v -0.5 0.7 1
v -0.5 0.1 0.6
v -0.5 0.3 0.6
v -0.5 0.5 0.6
v -0.5 0.6 0.6
v -0.5 0.2 0.5
v -0.5 0.3 0.5
v -0.5 0.5 0.5
v -0.5 0.6 0.5
v -0.5 0.1 0.4
v -0.5 0.2 0.4
v -0.5 0.3 0.4
v -0.5 0.4 0.4
v -0.5 0.2 0.3
v -0.5 0.3 0.3
v -0.5 0.4 0.3
v -0.5 0.5 0.3
v -0.5 0.6 0.3
v -0.5 0.3 0.2
v -0.5 0.5 0.2
v -0.5 0.1 0
v -0.5 0.3 0
v -0.5 0.2 -0.2
v -0.5 0.3 -0.2
v -0.5 0.1 -0.3
v -0.5 0.2 -0.3
v -0.5 0.1 -0.5
v -0.5 0.2 -0.5
v -0.5 0.4 -0.5
v -0.5 0.1 -0.6
v -0.5 0.2 -0.6
v -0.5 0.3 -0.6
v -0.5 0.4 -0.6
v -0.5 0.5 -0.6
v -0.5 0 -0.7
v -0.5 0.1 -0.7
v -0.5 0.3 -0.7
v -0.5 0.4 -0.7
v -0.5 0.1 -0.8
v -0.5 0.2 -0.8
v -0.5 0.4 -0.8
v -0.5 0.5 -0.8
v -0.5 0 -0.9
v -0.5 0.2 -0.9
v -0.5 0.4 -0.9
v -0.5 0 -1
v -0.5 0.7 -1
v 0.6 0 0.2
v 0.6 0 0.1
v 0.6 0 -0.1
v 0.6 0 -0.2
v 0.5 0 1
v 0.5 0 0.2
v 0.5 0 0.1
v 0.5 0 -0.1
v 0.5 0 -0.2
v 0.5 0 -1
v 0.4 0 0.1
v 0.4 0 -0.1
v -0.4 0 -0.7
v -0.4 0 -0.9
v -0.5 0 1
v -0.5 0 -0.7
v -0.5 0 -0.9
v -0.5 0 -1
v 0.6 0.7 0.2
v 0.6 0.7 0.1
v 0.6 0.7 -0.1
v 0.6 0.7 -0.2
v 0.5 0.7 1
v 0.5 0.7 0.2
v 0.5 0.7 0.1
v 0.5 0.7 -0.1
v 0.5 0.7 -0.2
v 0.5 0.7 -0.3
v 0.5 0.7 -0.5
v 0.5 0.7 -1
v 0.4 0.7 0.1
v 0.4 0.7 -0.1
v 0.4 0.7 -0.2
v 0.4 0.7 -0.3
v 0.4 0.7 -0.5
v -0.5 0.7 1
v -0.5 0.7 -1

# faces
f 3/2/1 2/2/1 1/2/1
f 4/2/1 2/2/1 3/2/1
f 5/2/1 2/2/1 4/2/1
f 6/2/1 2/2/1 5/2/1
f 7/3/1 6/3/1 5/3/1
f 8/2/1 2/2/1 6/2/1
f 8/3/1 6/3/1 7/3/1
f 9/5/1 4/5/1 3/5/1
f 10/2/1 5/2/1 4/2/1
f 10/5/1 4/5/1 9/5/1
f 11/3/1 7/3/1 5/3/1
f 11/2/1 5/2/1 10/2/1
f 12/2/1 8/2/1 7/2/1
f 12/3/1 7/3/1 11/3/1
f 13/4/1 10/4/1 9/4/1
f 14/2/1 11/2/1 10/2/1
f 14/4/1 10/4/1 13/4/1
f 14/2/1 12/2/1 11/2/1
f 15/2/1 14/2/1 13/2/1
f 16/2/1 2/2/1 8/2/1
f 16/2/1 14/2/1 15/2/1
f 16/2/1 8/2/1 12/2/1
f 16/2/1 12/2/1 14/2/1
f 19/2/1 18/2/1 17/2/1
f 20/2/1 19/2/1 17/2/1
f 21/2/1 20/2/1 17/2/1
f 22/2/1 20/2/1 21/2/1
f 25/2/1 24/2/1 23/2/1
f 26/2/1 24/2/1 25/2/1
f 27/2/2 28/2/2 29/2/2
f 29/2/2 28/2/2 30/2/2
f 31/2/2 32/2/2 33/2/2
f 31/2/2 33/2/2 34/2/2
f 34/2/2 33/2/2 35/2/2
f 36/2/2 37/2/2 38/2/2
f 38/2/2 37/2/2 39/2/2
f 38/3/2 39/3/2 40/3/2
f 39/2/2 37/2/2 41/2/2
f 40/3/2 39/3/2 41/3/2
f 36/2/2 38/2/2 42/2/2
f 38/3/2 40/3/2 42/3/2
f 40/2/2 41/2/2 43/2/2
f 42/3/2 40/3/2 43/3/2
f 36/2/2 42/2/2 44/2/2
f 42/2/2 43/2/2 44/2/2
f 41/2/2 37/2/2 45/2/2
f 44/2/2 43/2/2 45/2/2
f 43/2/2 41/2/2 45/2/2
f 48/2/3 47/2/3 46/2/3
f 49/2/3 47/2/3 48/2/3
f 52/2/3 51/2/3 50/2/3
f 53/2/3 51/2/3 52/2/3
f 59/2/3 55/2/3 54/2/3
f 60/5/3 56/5/3 55/5/3
f 60/2/3 55/2/3 59/2/3
f 61/5/3 56/5/3 60/5/3
f 62/4/3 57/4/3 56/4/3
f 62/5/3 56/5/3 61/5/3
f 63/2/3 58/2/3 57/2/3
f 63/4/3 57/4/3 62/4/3
f 64/6/3 61/6/3 60/6/3
f 64/5/3 60/5/3 59/5/3
f 65/5/3 62/5/3 61/5/3
f 65/6/3 61/6/3 64/6/3
f 65/5/3 63/5/3 62/5/3
f 66/5/3 64/5/3 59/5/3
f 66/2/3 59/2/3 54/2/3
f 66/5/3 65/5/3 64/5/3
f 67/5/3 65/5/3 66/5/3
f 68/5/3 63/5/3 65/5/3
f 68/5/3 65/5/3 67/5/3
f 69/2/3 58/2/3 63/2/3
f 69/5/3 63/5/3 68/5/3
f 70/2/3 67/2/3 66/2/3
f 70/5/3 68/5/3 67/5/3
f 71/5/3 68/5/3 70/5/3
f 72/4/3 69/4/3 68/4/3
f 72/5/3 68/5/3 71/5/3
f 73/2/3 71/2/3 70/2/3
f 73/2/3 66/2/3 54/2/3
f 73/2/3 70/2/3 66/2/3
f 74/4/3 72/4/3 71/4/3
f 74/2/3 71/2/3 73/2/3
f 75/2/3 58/2/3 69/2/3
f 75/4/3 72/4/3 74/4/3
f 75/4/3 69/4/3 72/4/3
f 76/3/3 74/3/3 73/3/3
f 77/2/3 75/2/3 74/2/3
f 77/3/3 74/3/3 76/3/3
f 78/2/3 73/2/3 54/2/3
f 79/3/3 76/3/3 73/3/3
f 79/2/3 73/2/3 78/2/3
f 80/2/3 77/2/3 76/2/3
f 80/3/3 76/3/3 79/3/3
f 81/2/3 58/2/3 75/2/3
f 81/2/3 77/2/3 80/2/3
f 81/2/3 75/2/3 77/2/3
f 84/1/3 83/1/3 82/1/3
f 85/1/3 83/1/3 84/1/3
f 89/2/3 87/2/3 86/2/3
f 89/4/3 88/4/3 87/4/3
f 90/4/3 88/4/3 89/4/3
f 91/2/3 89/2/3 86/2/3
f 92/2/3 89/2/3 91/2/3
f 93/4/3 92/4/3 91/4/3
f 94/2/3 89/2/3 92/2/3
f 94/4/3 92/4/3 93/4/3
f 95/2/3 89/2/3 94/2/3
f 96/5/3 90/5/3 89/5/3
f 96/2/3 89/2/3 95/2/3
f 97/5/3 90/5/3 96/5/3
f 98/2/3 91/2/3 86/2/3
f 98/4/3 93/4/3 91/4/3
f 99/5/3 95/5/3 94/5/3
f 99/4/3 93/4/3 98/4/3
f 99/5/3 94/5/3 93/5/3
f 100/2/3 97/2/3 96/2/3
f 100/5/3 95/5/3 99/5/3
f 100/2/3 96/2/3 95/2/3
f 101/2/3 97/2/3 100/2/3
f 102/5/3 99/5/3 98/5/3
f 102/5/3 100/5/3 99/5/3
f 102/5/3 101/5/3 100/5/3
f 103/5/3 101/5/3 102/5/3
f 104/2/3 98/2/3 86/2/3
f 104/5/3 102/5/3 98/5/3
f 105/5/3 102/5/3 104/5/3
f 106/6/3 103/6/3 102/6/3
f 106/5/3 102/5/3 105/5/3
f 107/5/3 101/5/3 103/5/3
f 107/6/3 103/6/3 106/6/3
f 108/2/3 97/2/3 101/2/3
f 108/5/3 101/5/3 107/5/3
f 109/4/3 105/4/3 104/4/3
f 109/2/3 104/2/3 86/2/3
f 110/5/3 106/5/3 105/5/3
f 110/4/3 105/4/3 109/4/3
f 110/5/3 107/5/3 106/5/3
f 111/2/3 108/2/3 107/2/3
f 111/5/3 107/5/3 110/5/3
f 112/2/3 109/2/3 86/2/3
f 112/2/3 110/2/3 109/2/3
f 112/2/3 111/2/3 110/2/3
f 113/2/3 108/2/3 111/2/3
f 113/2/3 111/2/3 112/2/3
f 113/2/3 97/2/3 108/2/3
f 114/2/4 115/2/4 116/2/4
f 116/2/4 115/2/4 117/2/4
f 117/2/4 115/2/4 118/2/4
f 118/2/4 115/2/4 119/2/4
f 116/4/4 117/4/4 120/4/4
f 117/5/4 118/5/4 121/5/4
f 120/4/4 117/4/4 121/4/4
f 118/4/4 119/4/4 122/4/4
f 121/5/4 118/5/4 122/5/4
f 119/2/4 115/2/4 123/2/4
f 122/4/4 119/4/4 123/4/4
f 114/2/4 116/2/4 124/2/4
f 116/4/4 120/4/4 124/4/4
f 121/5/4 122/5/4 125/5/4
f 124/4/4 120/4/4 125/4/4
f 122/5/4 123/5/4 125/5/4
f 120/5/4 121/5/4 125/5/4
f 125/5/4 123/5/4 126/5/4
f 126/5/4 123/5/4 127/5/4
f 124/2/4 125/2/4 128/2/4
f 125/5/4 126/5/4 128/5/4
f 126/6/4 127/6/4 129/6/4
f 128/5/4 126/5/4 129/5/4
f 127/5/4 123/5/4 130/5/4
f 129/6/4 127/6/4 130/6/4
f 130/5/4 123/5/4 131/5/4
f 123/2/4 115/2/4 132/2/4
f 131/5/4 123/5/4 132/5/4
f 130/5/4 131/5/4 133/5/4
f 128/2/4 129/2/4 133/2/4
f 129/5/4 130/5/4 133/5/4
f 131/2/4 132/2/4 134/2/4
f 133/5/4 131/5/4 134/5/4
f 114/2/4 124/2/4 135/2/4
f 128/2/4 133/2/4 135/2/4
f 133/2/4 134/2/4 135/2/4
f 124/2/4 128/2/4 135/2/4
f 135/2/4 134/2/4 136/2/4
f 135/3/4 136/3/4 137/3/4
f 136/2/4 134/2/4 138/2/4
f 137/3/4 136/3/4 138/3/4
f 114/2/4 135/2/4 139/2/4
f 135/3/4 137/3/4 139/3/4
f 137/2/4 138/2/4 140/2/4
f 139/3/4 137/3/4 140/3/4
f 114/2/4 139/2/4 141/2/4
f 139/2/4 140/2/4 141/2/4
f 140/2/4 138/2/4 142/2/4
f 141/2/4 140/2/4 142/2/4
f 138/2/4 134/2/4 143/2/4
f 142/2/4 138/2/4 143/2/4
f 141/4/4 142/4/4 144/4/4
f 114/2/4 141/2/4 144/2/4
f 142/5/4 143/5/4 145/5/4
f 144/4/4 142/4/4 145/4/4
f 145/5/4 143/5/4 146/5/4
f 143/2/4 134/2/4 147/2/4
f 146/5/4 143/5/4 147/5/4
f 134/2/4 132/2/4 148/2/4
f 147/2/4 134/2/4 148/2/4
f 114/2/4 144/2/4 149/2/4
f 145/5/4 146/5/4 150/5/4
f 149/2/4 144/2/4 150/2/4
f 144/5/4 145/5/4 150/5/4
f 146/6/4 147/6/4 151/6/4
f 150/5/4 146/5/4 151/5/4
f 147/5/4 148/5/4 152/5/4
f 151/6/4 147/6/4 152/6/4
f 149/4/4 150/4/4 153/4/4
f 150/5/4 151/5/4 153/5/4
f 151/5/4 152/5/4 153/5/4
f 153/5/4 152/5/4 154/5/4
f 152/5/4 148/5/4 155/5/4
f 154/5/4 152/5/4 155/5/4
f 148/2/4 132/2/4 156/2/4
f 155/5/4 148/5/4 156/5/4
f 153/4/4 154/4/4 157/4/4
f 149/4/4 153/4/4 157/4/4
f 154/5/4 155/5/4 158/5/4
f 157/4/4 154/4/4 158/4/4
f 155/2/4 156/2/4 159/2/4
f 158/5/4 155/5/4 159/5/4
f 157/2/4 158/2/4 160/2/4
f 158/2/4 159/2/4 160/2/4
f 132/2/4 115/2/4 161/2/4
f 160/2/4 159/2/4 161/2/4
f 156/2/4 132/2/4 161/2/4
f 159/2/4 156/2/4 161/2/4
f 167/2/5 163/2/5 162/2/5
f 168/2/5 163/2/5 167/2/5
f 169/2/5 165/2/5 164/2/5
f 170/2/5 165/2/5 169/2/5
f 172/2/5 168/2/5 167/2/5
f 172/2/5 167/2/5 166/2/5
f 172/1/5 169/1/5 168/1/5
f 173/2/5 171/2/5 170/2/5
f 173/1/5 169/1/5 172/1/5
f 173/2/5 170/2/5 169/2/5
f 174/2/5 173/2/5 172/2/5
f 174/2/5 171/2/5 173/2/5
f 175/2/5 171/2/5 174/2/5
f 176/2/5 172/2/5 166/2/5
f 176/2/5 174/2/5 172/2/5
f 177/4/5 175/4/5 174/4/5
f 177/2/5 174/2/5 176/2/5
f 178/2/5 171/2/5 175/2/5
f 178/4/5 175/4/5 177/4/5
f 179/2/5 171/2/5 178/2/5
f 180/2/6 181/2/6 185/2/6
f 185/2/6 181/2/6 186/2/6
f 182/2/6 183/2/6 187/2/6
f 187/2/6 183/2/6 188/2/6
f 185/2/6 186/2/6 192/2/6
f 184/2/6 185/2/6 192/2/6
f 186/1/6 187/1/6 192/1/6
f 187/2/6 188/2/6 193/2/6
f 192/1/6 187/1/6 193/1/6
f 188/4/6 189/4/6 194/4/6
f 193/2/6 188/2/6 194/2/6
f 189/5/6 190/5/6 195/5/6
f 194/4/6 189/4/6 195/4/6
f 190/2/6 191/2/6 196/2/6
f 195/5/6 190/5/6 196/5/6
f 194/2/6 195/2/6 197/2/6
f 193/2/6 194/2/6 197/2/6
f 195/2/6 196/2/6 197/2/6
f 184/2/6 192/2/6 197/2/6
f 192/2/6 193/2/6 197/2/6
f 196/2/6 191/2/6 198/2/6
f 197/2/6 196/2/6 198/2/6
