# MagicaVoxel @ Ephtracy

# group
o 

# material
mtllib model-2.mtl
usemtl palette

# normals
vn 0 0 1
vn 0 0 -1
vn 1 0 0
vn -1 0 0
vn 0 -1 0
vn 0 1 0

# texcoords
vt 0.322266 0.5
vt 0.341797 0.5
vt 0.486328 0.5

# verts
v 0.3 1.4 1.7
v -0.3 1.4 1.7
v 0.3 2 1.7
v -0.3 2 1.7
v 0.3 1.4 0.9
v -0.3 1.4 0.9
v 0.3 1.6 0.9
v 0.2 1.6 0.9
v 0.3 1.8 0.9
v 0.2 1.8 0.9
v 0.3 2 0.9
v -0.3 2 0.9
v 0.3 1.4 1.7
v 0.3 2 1.7
v 0.3 1.4 1.6
v 0.3 1.5 1.6
v 0.3 1.5 1.5
v 0.3 1.6 1.5
v 0.3 1.4 1.3
v 0.3 1.6 1.3
v 0.3 1.6 1.1
v 0.3 1.8 1.1
v 0.3 1.4 0.9
v 0.3 1.6 0.9
v 0.3 1.8 0.9
v 0.3 2 0.9
v -0.3 1.4 1.7
v -0.3 2 1.7
v -0.3 1.6 1.3
v -0.3 1.7 1.3
v -0.3 1.7 1.2
v -0.3 1.8 1.2
v -0.3 1.6 1
v -0.3 1.8 1
v -0.3 1.4 0.9
v -0.3 2 0.9
v 0.3 1.4 1.7
v 0.3 1.4 1.6
v 0.3 1.4 1.3
v 0.3 1.4 0.9
v 0.2 1.4 1.6
v 0.2 1.4 1.3
v -0.3 1.4 1.7
v -0.3 1.4 0.9
v 0.3 2 1.7
v 0.3 2 0.9
v -0.3 2 1.7
v -0.3 2 0.9

# faces
f 3/1/1 2/1/1 1/1/1
f 4/1/1 2/1/1 3/1/1
f 5/1/2 6/1/2 7/1/2
f 7/1/2 6/1/2 8/1/2
f 7/3/2 8/3/2 9/3/2
f 8/1/2 6/1/2 10/1/2
f 9/3/2 8/3/2 10/3/2
f 9/1/2 10/1/2 11/1/2
f 10/1/2 6/1/2 12/1/2
f 11/1/2 10/1/2 12/1/2
f 15/1/3 14/1/3 13/1/3
f 16/1/3 14/1/3 15/1/3
f 17/2/3 16/2/3 15/2/3
f 17/1/3 14/1/3 16/1/3
f 18/1/3 14/1/3 17/1/3
f 19/2/3 17/2/3 15/2/3
f 19/2/3 18/2/3 17/2/3
f 20/1/3 14/1/3 18/1/3
f 20/2/3 18/2/3 19/2/3
f 21/1/3 20/1/3 19/1/3
f 21/1/3 14/1/3 20/1/3
f 22/1/3 14/1/3 21/1/3
f 23/1/3 21/1/3 19/1/3
f 24/3/3 22/3/3 21/3/3
f 24/1/3 21/1/3 23/1/3
f 25/1/3 14/1/3 22/1/3
f 25/3/3 22/3/3 24/3/3
f 26/1/3 14/1/3 25/1/3
f 27/1/4 28/1/4 29/1/4
f 29/1/4 28/1/4 30/1/4
f 29/2/4 30/2/4 31/2/4
f 30/1/4 28/1/4 31/1/4
f 31/1/4 28/1/4 32/1/4
f 27/1/4 29/1/4 33/1/4
f 29/2/4 31/2/4 33/2/4
f 31/2/4 32/2/4 33/2/4
f 32/1/4 28/1/4 34/1/4
f 33/2/4 32/2/4 34/2/4
f 27/1/4 33/1/4 35/1/4
f 33/1/4 34/1/4 35/1/4
f 34/1/4 28/1/4 36/1/4
f 35/1/4 34/1/4 36/1/4
f 41/1/5 38/1/5 37/1/5
f 41/2/5 39/2/5 38/2/5
f 42/1/5 40/1/5 39/1/5
f 42/2/5 39/2/5 41/2/5
f 43/1/5 41/1/5 37/1/5
f 43/1/5 42/1/5 41/1/5
f 44/1/5 40/1/5 42/1/5
f 44/1/5 42/1/5 43/1/5
f 45/1/6 46/1/6 47/1/6
f 47/1/6 46/1/6 48/1/6
