# MagicaVoxel @ Ephtracy

# group
o 

# material
mtllib model-3.mtl
usemtl palette

# normals
vn 0 0 1
vn 0 0 -1
vn 1 0 0
vn -1 0 0
vn 0 -1 0
vn 0 1 0

# texcoords
vt 0.0878906 0.5
vt 0.322266 0.5
vt 0.341797 0.5
vt 0.392578 0.5
vt 0.486328 0.5
vt 0.517578 0.5

# verts
v 0.5 0.6 1
v -0.5 0.6 1
v 0.2 0.7 1
v 0.1 0.7 1
v -0.1 0.7 1
v -0.3 0.7 1
v 0.2 0.8 1
v 0.1 0.8 1
v -0.1 0.8 1
v -0.2 0.8 1
v 5.96046e-08 0.9 1
v -0.1 0.9 1
v -0.2 0.9 1
v -0.3 0.9 1
v 0.2 1 1
v 0.1 1 1
v 5.96046e-08 1 1
v -0.1 1 1
v -0.2 1 1
v 0.5 1.1 1
v 0.2 1.1 1
v 0.1 1.1 1
v -0.1 1.1 1
v 0.3 1.2 1
v 0.2 1.2 1
v 0.5 1.3 1
v 0.3 1.3 1
v 0.5 1.5 1
v 0.3 1.5 1
v 0.5 1.6 1
v 0.4 1.6 1
v 0.3 1.6 1
v 0.2 1.6 1
v 0.5 1.7 1
v 0.4 1.7 1
v 0.3 1.8 1
v 0.2 1.8 1
v 0.5 1.9 1
v 0.4 1.9 1
v 0.3 1.9 1
v 0.5 2 1
v 0.4 2 1
v 0.5 2.1 1
v -0.5 2.1 1
v 0.6 1.7 0.8
v 0.5 1.7 0.8
v 0.5 1.8 0.8
v -0.5 1.9 0.8
v -0.6 1.9 0.8
v 0.6 2 0.8
v 0.5 2 0.8
v 0.6 2.1 0.8
v 0.5 2.1 0.8
v -0.5 2.1 0.8
v 0.6 2.2 0.8
v -0.6 2.2 0.8
v 0.6 1.3 0.5
v 0.5 1.3 0.5
v 0.6 1.4 0.5
v 0.5 1.4 0.5
v 0.6 1.5 0.5
v 0.5 1.5 0.5
v 0.6 1.7 0.5
v 0.5 1.7 0.5
v 0.6 0.6 0.2
v 0.5 0.6 0.2
v 0.6 1.3 0.2
v 0.5 1.3 0.2
v 0.6 0.6 -0.1
v 0.5 0.6 -0.1
v 0.5 1.7 -0.1
v -0.4 1.7 -0.1
v 0.6 1.8 -0.1
v 0.5 1.8 -0.1
v -0.4 1.8 -0.1
v 0.6 1.8 -0.3
v 0.5 1.8 -0.3
v -0.4 1.8 -0.3
v 0.6 1.9 -0.3
v 0.5 1.9 -0.3
v -0.4 1.9 -0.3
v 0.6 1.9 -0.4
v 0.5 1.9 -0.4
v -0.4 1.9 -0.4
v 0.6 2 -0.4
v 0.5 2 -0.4
v 0.5 2.1 -0.4
v -0.4 2.1 -0.4
v 0.6 2.2 -0.4
v -0.4 2.2 -0.4
v 0.6 1.9 0.4
v 0.5 1.9 0.4
v -0.4 1.9 0.4
v 0.5 2.1 0.4
v -0.4 2.1 0.4
v 0.6 2.2 0.4
v -0.4 2.2 0.4
v 0.6 1.8 0.3
v 0.5 1.8 0.3
v -0.4 1.8 0.3
v 0.6 1.9 0.3
v 0.5 1.9 0.3
v -0.4 1.9 0.3
v 0.6 0.6 0.1
v 0.5 0.6 0.1
v 0.5 1.7 0.1
v -0.4 1.7 0.1
v 0.6 1.8 0.1
v 0.5 1.8 0.1
v -0.4 1.8 0.1
v 0.6 0.6 -0.2
v 0.5 0.6 -0.2
v 0.5 0.7 -0.2
v 0.5 0.9 -0.2
v 0.5 1 -0.2
v 0.6 1.3 -0.2
v 0.5 1.3 -0.2
v 0.6 1.3 -0.5
v 0.5 1.3 -0.5
v 0.5 1.4 -0.5
v 0.6 1.7 -0.5
v 0.5 1.7 -0.5
v 0.6 1.7 -0.7
v 0.5 1.7 -0.7
v 0.6 1.8 -0.7
v 0.5 1.8 -0.7
v 0.6 1.9 -0.7
v 0.5 1.9 -0.7
v 0.6 2.1 -0.7
v 0.5 2.1 -0.7
v -0.5 1.9 -0.8
v -0.6 1.9 -0.8
v 0.6 2.1 -0.8
v 0.5 2.1 -0.8
v -0.5 2.1 -0.8
v 0.6 2.2 -0.8
v -0.6 2.2 -0.8
v 0.5 0.6 -1
v -0.5 0.6 -1
v 0.5 0.7 -1
v 0.4 0.7 -1
v -0.4 0.7 -1
v -0.5 0.7 -1
v 0.5 0.8 -1
v 0.4 0.8 -1
v 0.2 0.8 -1
v 5.96046e-08 0.8 -1
v -0.2 0.8 -1
v -0.4 0.8 -1
v -0.5 0.8 -1
v 0.3 0.9 -1
v 0.2 0.9 -1
v 0.1 0.9 -1
v 5.96046e-08 0.9 -1
v -0.1 0.9 -1
v 0.2 1 -1
v 0.1 1 -1
v -0.1 1 -1
v -0.2 1 -1
v 0.3 1.1 -1
v 0.2 1.1 -1
v 5.96046e-08 1.1 -1
v -0.1 1.1 -1
v 0.3 1.2 -1
v 0.2 1.2 -1
v 5.96046e-08 1.2 -1
v -0.4 1.2 -1
v -0.5 1.2 -1
v -0.4 1.4 -1
v -0.5 1.4 -1
v 0.5 2.1 -1
v -0.5 2.1 -1
v 0.6 1.7 0.8
v 0.6 2 0.8
v 0.6 2.1 0.8
v 0.6 2.2 0.8
v 0.6 2.1 0.7
v 0.6 2.2 0.7
v 0.6 1.3 0.5
v 0.6 1.4 0.5
v 0.6 1.5 0.5
v 0.6 1.7 0.5
v 0.6 2 0.5
v 0.6 2.2 0.5
v 0.6 1.5 0.4
v 0.6 1.6 0.4
v 0.6 1.9 0.4
v 0.6 2.2 0.4
v 0.6 1.8 0.3
v 0.6 1.9 0.3
v 0.6 0.6 0.2
v 0.6 1.3 0.2
v 0.6 1.4 0.2
v 0.6 1.6 0.2
v 0.6 0.6 0.1
v 0.6 1.8 0.1
v 0.6 0.6 -0.1
v 0.6 1.8 -0.1
v 0.6 0.6 -0.2
v 0.6 1.3 -0.2
v 0.6 1.8 -0.3
v 0.6 1.9 -0.3
v 0.6 1.8 -0.4
v 0.6 1.9 -0.4
v 0.6 2 -0.4
v 0.6 2.2 -0.4
v 0.6 1.3 -0.5
v 0.6 1.7 -0.5
v 0.6 1.9 -0.6
v 0.6 2 -0.6
v 0.6 1.7 -0.7
v 0.6 1.8 -0.7
v 0.6 1.9 -0.7
v 0.6 2.1 -0.7
v 0.6 2.1 -0.8
v 0.6 2.2 -0.8
v 0.5 0.6 1
v 0.5 1.1 1
v 0.5 1.3 1
v 0.5 1.5 1
v 0.5 1.6 1
v 0.5 1.7 1
v 0.5 1.9 1
v 0.5 2 1
v 0.5 2.1 1
v 0.5 1.1 0.9
v 0.5 1.3 0.9
v 0.5 1.5 0.9
v 0.5 1.6 0.9
v 0.5 1.7 0.9
v 0.5 1.8 0.9
v 0.5 1.9 0.9
v 0.5 0.7 0.8
v 0.5 0.9 0.8
v 0.5 1.1 0.8
v 0.5 1.6 0.8
v 0.5 1.7 0.8
v 0.5 1.8 0.8
v 0.5 2 0.8
v 0.5 2.1 0.8
v 0.5 0.8 0.7
v 0.5 0.9 0.7
v 0.5 1.1 0.7
v 0.5 1.2 0.7
v 0.5 0.7 0.6
v 0.5 0.8 0.6
v 0.5 1 0.6
v 0.5 1.1 0.6
v 0.5 0.8 0.5
v 0.5 0.9 0.5
v 0.5 1 0.5
v 0.5 1.1 0.5
v 0.5 1.2 0.5
v 0.5 1.3 0.5
v 0.5 1.4 0.5
v 0.5 1.5 0.5
v 0.5 1.7 0.5
v 0.5 0.8 0.4
v 0.5 0.9 0.4
v 0.5 1.1 0.4
v 0.5 0.6 0.2
v 0.5 1.3 0.2
v 0.5 0.6 0.1
v 0.5 1.7 0.1
v 0.5 0.6 -0.1
v 0.5 1.7 -0.1
v 0.5 0.6 -0.2
v 0.5 0.7 -0.2
v 0.5 0.9 -0.2
v 0.5 1 -0.2
v 0.5 1.3 -0.2
v 0.5 0.6 -0.3
v 0.5 0.7 -0.3
v 0.5 0.9 -0.3
v 0.5 1 -0.3
v 0.5 0.7 -0.4
v 0.5 0.8 -0.4
v 0.5 0.6 -0.5
v 0.5 0.7 -0.5
v 0.5 0.8 -0.5
v 0.5 0.9 -0.5
v 0.5 1 -0.5
v 0.5 1.2 -0.5
v 0.5 1.3 -0.5
v 0.5 1.4 -0.5
v 0.5 1.7 -0.5
v 0.5 0.7 -0.6
v 0.5 0.9 -0.6
v 0.5 1.1 -0.6
v 0.5 1.2 -0.6
v 0.5 1.3 -0.6
v 0.5 1.4 -0.6
v 0.5 1.5 -0.6
v 0.5 0.7 -0.7
v 0.5 0.9 -0.7
v 0.5 1 -0.7
v 0.5 1.1 -0.7
v 0.5 1.3 -0.7
v 0.5 1.4 -0.7
v 0.5 1.7 -0.7
v 0.5 1.8 -0.7
v 0.5 1.9 -0.7
v 0.5 2.1 -0.7
v 0.5 1.1 -0.8
v 0.5 1.2 -0.8
v 0.5 1.4 -0.8
v 0.5 1.5 -0.8
v 0.5 2.1 -0.8
v 0.5 0.8 -0.9
v 0.5 0.9 -0.9
v 0.5 1.1 -0.9
v 0.5 1.2 -0.9
v 0.5 1.4 -0.9
v 0.5 0.6 -1
v 0.5 0.7 -1
v 0.5 0.8 -1
v 0.5 2.1 -1
v -0.4 1.9 0.4
v -0.4 2.1 0.4
v -0.4 2.2 0.4
v -0.4 1.8 0.3
v -0.4 1.9 0.3
v -0.4 1.7 0.1
v -0.4 1.8 0.1
v -0.4 1.7 0
v -0.4 1.8 0
v -0.4 1.7 -0.1
v -0.4 1.8 -0.1
v -0.4 1.8 -0.3
v -0.4 1.9 -0.3
v -0.4 1.9 -0.4
v -0.4 2.1 -0.4
v -0.4 2.2 -0.4
v -0.5 0.6 1
v -0.5 2.1 1
v -0.5 0.7 0.8
v -0.5 0.8 0.8
v -0.5 1.9 0.8
v -0.5 2.1 0.8
v -0.5 0.8 0.7
v -0.5 0.9 0.7
v -0.5 1.2 0.7
v -0.5 1.3 0.7
v -0.5 1.5 0.7
v -0.5 1.2 0.6
v -0.5 1.3 0.6
v -0.5 1.4 0.6
v -0.5 1.5 0.6
v -0.5 1.6 0.6
v -0.5 0.7 0.5
v -0.5 0.9 0.5
v -0.5 1.1 0.5
v -0.5 1.2 0.5
v -0.5 1.4 0.5
v -0.5 1.5 0.5
v -0.5 1.2 0.4
v -0.5 1.3 0.4
v -0.5 1.5 0.4
v -0.5 1.6 0.4
v -0.5 1.1 0.3
v -0.5 1.3 0.3
v -0.5 1.5 0.3
v -0.5 1.1 0.2
v -0.5 1.3 0.2
v -0.5 1.5 0.1
v -0.5 1.7 0.1
v -0.5 1.8 0.1
v -0.5 0.7 0
v -0.5 0.9 0
v -0.5 1.2 0
v -0.5 1.3 0
v -0.5 1.4 0
v -0.5 1.5 0
v -0.5 1.6 0
v -0.5 1.7 0
v -0.5 1.8 0
v -0.5 0.8 -0.1
v -0.5 0.9 -0.1
v -0.5 1 -0.1
v -0.5 1.1 -0.1
v -0.5 1.2 -0.1
v -0.5 1.5 -0.1
v -0.5 1.6 -0.1
v -0.5 0.7 -0.2
v -0.5 0.8 -0.2
v -0.5 1 -0.2
v -0.5 1.1 -0.2
v -0.5 1.4 -0.2
v -0.5 1.5 -0.2
v -0.5 1.7 -0.2
v -0.5 1.8 -0.2
v -0.5 0.9 -0.3
v -0.5 1 -0.3
v -0.5 1.5 -0.3
v -0.5 1.6 -0.3
v -0.5 1.7 -0.3
v -0.5 0.7 -0.4
v -0.5 0.8 -0.4
v -0.5 0.9 -0.4
v -0.5 1 -0.4
v -0.5 1.1 -0.4
v -0.5 1.6 -0.4
v -0.5 1.8 -0.4
v -0.5 0.8 -0.5
v -0.5 1 -0.5
v -0.5 1.3 -0.5
v -0.5 1.5 -0.5
v -0.5 1.1 -0.6
v -0.5 1.2 -0.6
v -0.5 1.3 -0.6
v -0.5 1.4 -0.6
v -0.5 1.7 -0.6
v -0.5 1.8 -0.6
v -0.5 0.7 -0.7
v -0.5 0.9 -0.7
v -0.5 1.1 -0.7
v -0.5 1.2 -0.7
v -0.5 1.4 -0.7
v -0.5 1.5 -0.7
v -0.5 1.8 -0.7
v -0.5 1.9 -0.7
v -0.5 1.2 -0.8
v -0.5 1.3 -0.8
v -0.5 1.9 -0.8
v -0.5 2.1 -0.8
v -0.5 0.8 -0.9
v -0.5 0.9 -0.9
v -0.5 1.1 -0.9
v -0.5 1.2 -0.9
v -0.5 1.3 -0.9
v -0.5 1.4 -0.9
v -0.5 1.5 -0.9
v -0.5 1.7 -0.9
v -0.5 1.9 -0.9
v -0.5 0.6 -1
v -0.5 0.7 -1
v -0.5 0.8 -1
v -0.5 1.2 -1
v -0.5 1.4 -1
v -0.5 2.1 -1
v -0.6 1.9 0.8
v -0.6 2.2 0.8
v -0.6 1.9 -0.8
v -0.6 2.2 -0.8
v 0.6 0.6 0.2
v 0.6 0.6 0.1
v 0.6 0.6 -0.1
v 0.6 0.6 -0.2
v 0.5 0.6 1
v 0.5 0.6 0.2
v 0.5 0.6 0.1
v 0.5 0.6 -0.1
v 0.5 0.6 -0.2
v 0.5 0.6 -0.3
v 0.5 0.6 -0.5
v 0.5 0.6 -1
v 0.4 0.6 0.1
v 0.4 0.6 -0.1
v 0.4 0.6 -0.2
v 0.4 0.6 -0.3
v 0.4 0.6 -0.5
v -0.5 0.6 1
v -0.5 0.6 -1
v 0.6 1.3 0.5
v 0.6 1.3 0.2
v 0.6 1.3 -0.2
v 0.6 1.3 -0.5
v 0.5 1.3 0.5
v 0.5 1.3 0.2
v 0.5 1.3 -0.2
v 0.5 1.3 -0.5
v 0.6 1.7 0.8
v 0.6 1.7 0.5
v 0.6 1.7 -0.5
v 0.6 1.7 -0.7
v 0.5 1.7 0.8
v 0.5 1.7 0.5
v 0.5 1.7 -0.5
v 0.5 1.7 -0.7
v -0.5 1.9 0.8
v -0.5 1.9 -0.7
v -0.5 1.9 -0.8
v -0.6 1.9 0.8
v -0.6 1.9 -0.8
v 0.6 2.1 -0.7
v 0.6 2.1 -0.8
v 0.5 2.1 -0.7
v 0.5 2.1 -0.8
v 0.5 1.7 0.1
v 0.5 1.7 -0.1
v -0.4 1.7 0.1
v -0.4 1.7 0
v -0.4 1.7 -0.1
v 0.6 1.8 0.3
v 0.6 1.8 0.1
v 0.6 1.8 -0.1
v 0.6 1.8 -0.3
v 0.5 1.8 0.3
v 0.5 1.8 0.1
v 0.5 1.8 -0.1
v 0.5 1.8 -0.3
v -0.4 1.8 0.3
v -0.4 1.8 0.1
v -0.4 1.8 -0.1
v -0.4 1.8 -0.3
v 0.6 1.9 0.4
v 0.6 1.9 0.3
v 0.6 1.9 -0.3
v 0.6 1.9 -0.4
v 0.5 1.9 0.4
v 0.5 1.9 0.3
v 0.5 1.9 -0.3
v 0.5 1.9 -0.4
v -0.4 1.9 0.4
v -0.4 1.9 0.3
v -0.4 1.9 -0.3
v -0.4 1.9 -0.4
v 0.5 2.1 1
v 0.5 2.1 0.8
v 0.5 2.1 -0.8
v 0.5 2.1 -1
v -0.5 2.1 1
v -0.5 2.1 0.8
v -0.5 2.1 -0.8
v -0.5 2.1 -1
v 0.6 2.2 0.8
v 0.6 2.2 0.7
v 0.6 2.2 0.5
v 0.6 2.2 0.4
v 0.6 2.2 -0.4
v 0.6 2.2 -0.8
v 0.5 2.2 0.7
v 0.5 2.2 0.5
v -0.4 2.2 0.4
v -0.4 2.2 -0.4
v -0.6 2.2 0.8
v -0.6 2.2 -0.8

# faces
f 3/2/1 2/2/1 1/2/1
f 4/2/1 2/2/1 3/2/1
f 5/2/1 2/2/1 4/2/1
f 6/2/1 2/2/1 5/2/1
f 7/2/1 3/2/1 1/2/1
f 7/4/1 4/4/1 3/4/1
f 8/5/1 5/5/1 4/5/1
f 8/4/1 4/4/1 7/4/1
f 9/4/1 6/4/1 5/4/1
f 9/5/1 5/5/1 8/5/1
f 10/4/1 6/4/1 9/4/1
f 11/5/1 8/5/1 7/5/1
f 11/5/1 9/5/1 8/5/1
f 11/5/1 10/5/1 9/5/1
f 12/5/1 10/5/1 11/5/1
f 13/4/1 6/4/1 10/4/1
f 13/5/1 10/5/1 12/5/1
f 14/2/1 2/2/1 6/2/1
f 14/4/1 6/4/1 13/4/1
f 15/2/1 7/2/1 1/2/1
f 15/5/1 11/5/1 7/5/1
f 16/5/1 11/5/1 15/5/1
f 17/6/1 12/6/1 11/6/1
f 17/5/1 11/5/1 16/5/1
f 18/5/1 13/5/1 12/5/1
f 18/6/1 12/6/1 17/6/1
f 19/2/1 14/2/1 13/2/1
f 19/5/1 13/5/1 18/5/1
f 20/2/1 16/2/1 15/2/1
f 20/2/1 15/2/1 1/2/1
f 21/2/1 16/2/1 20/2/1
f 22/5/1 17/5/1 16/5/1
f 22/2/1 16/2/1 21/2/1
f 22/5/1 18/5/1 17/5/1
f 23/2/1 19/2/1 18/2/1
f 23/5/1 18/5/1 22/5/1
f 24/3/1 21/3/1 20/3/1
f 25/2/1 22/2/1 21/2/1
f 25/3/1 21/3/1 24/3/1
f 25/2/1 23/2/1 22/2/1
f 26/3/1 24/3/1 20/3/1
f 27/2/1 25/2/1 24/2/1
f 27/3/1 24/3/1 26/3/1
f 28/2/1 27/2/1 26/2/1
f 29/2/1 25/2/1 27/2/1
f 29/2/1 27/2/1 28/2/1
f 30/5/1 29/5/1 28/5/1
f 31/5/1 29/5/1 30/5/1
f 32/2/1 25/2/1 29/2/1
f 32/5/1 29/5/1 31/5/1
f 33/2/1 23/2/1 25/2/1
f 33/2/1 25/2/1 32/2/1
f 34/6/1 31/6/1 30/6/1
f 35/5/1 32/5/1 31/5/1
f 35/6/1 31/6/1 34/6/1
f 35/5/1 33/5/1 32/5/1
f 36/5/1 35/5/1 34/5/1
f 36/5/1 33/5/1 35/5/1
f 37/2/1 23/2/1 33/2/1
f 37/5/1 33/5/1 36/5/1
f 38/5/1 36/5/1 34/5/1
f 39/5/1 36/5/1 38/5/1
f 40/2/1 37/2/1 36/2/1
f 40/5/1 36/5/1 39/5/1
f 41/4/1 39/4/1 38/4/1
f 42/2/1 40/2/1 39/2/1
f 42/4/1 39/4/1 41/4/1
f 43/2/1 42/2/1 41/2/1
f 44/2/1 19/2/1 23/2/1
f 44/2/1 42/2/1 43/2/1
f 44/2/1 14/2/1 19/2/1
f 44/2/1 40/2/1 42/2/1
f 44/2/1 2/2/1 14/2/1
f 44/2/1 23/2/1 37/2/1
f 44/2/1 37/2/1 40/2/1
f 47/2/1 46/2/1 45/2/1
f 50/2/1 47/2/1 45/2/1
f 51/2/1 47/2/1 50/2/1
f 52/3/1 51/3/1 50/3/1
f 53/3/1 51/3/1 52/3/1
f 54/2/1 49/2/1 48/2/1
f 55/2/1 53/2/1 52/2/1
f 55/2/1 54/2/1 53/2/1
f 56/2/1 49/2/1 54/2/1
f 56/2/1 54/2/1 55/2/1
f 59/2/1 58/2/1 57/2/1
f 60/2/1 58/2/1 59/2/1
f 61/3/1 60/3/1 59/3/1
f 62/3/1 60/3/1 61/3/1
f 63/2/1 62/2/1 61/2/1
f 64/2/1 62/2/1 63/2/1
f 67/2/1 66/2/1 65/2/1
f 68/2/1 66/2/1 67/2/1
f 71/2/1 70/2/1 69/2/1
f 73/2/1 71/2/1 69/2/1
f 74/1/1 72/1/1 71/1/1
f 74/2/1 71/2/1 73/2/1
f 75/1/1 72/1/1 74/1/1
f 79/2/1 77/2/1 76/2/1
f 80/1/1 78/1/1 77/1/1
f 80/2/1 77/2/1 79/2/1
f 81/1/1 78/1/1 80/1/1
f 85/3/1 83/3/1 82/3/1
f 86/1/1 84/1/1 83/1/1
f 86/3/1 83/3/1 85/3/1
f 87/2/1 86/2/1 85/2/1
f 87/1/1 84/1/1 86/1/1
f 88/1/1 84/1/1 87/1/1
f 89/2/1 87/2/1 85/2/1
f 89/2/1 88/2/1 87/2/1
f 90/2/1 88/2/1 89/2/1
f 91/2/2 92/2/2 94/2/2
f 92/1/2 93/1/2 94/1/2
f 94/1/2 93/1/2 95/1/2
f 91/2/2 94/2/2 96/2/2
f 94/2/2 95/2/2 96/2/2
f 96/2/2 95/2/2 97/2/2
f 98/2/2 99/2/2 101/2/2
f 99/1/2 100/1/2 102/1/2
f 101/2/2 99/2/2 102/2/2
f 102/1/2 100/1/2 103/1/2
f 104/2/2 105/2/2 106/2/2
f 104/2/2 106/2/2 108/2/2
f 106/1/2 107/1/2 109/1/2
f 108/2/2 106/2/2 109/2/2
f 109/1/2 107/1/2 110/1/2
f 111/2/2 112/2/2 113/2/2
f 111/2/2 113/2/2 114/2/2
f 111/2/2 114/2/2 115/2/2
f 111/2/2 115/2/2 116/2/2
f 116/2/2 115/2/2 117/2/2
f 118/2/2 119/2/2 120/2/2
f 118/2/2 120/2/2 121/2/2
f 121/2/2 120/2/2 122/2/2
f 123/2/2 124/2/2 125/2/2
f 125/2/2 124/2/2 126/2/2
f 125/3/2 126/3/2 127/3/2
f 127/3/2 126/3/2 128/3/2
f 127/2/2 128/2/2 129/2/2
f 129/2/2 128/2/2 130/2/2
f 131/2/2 132/2/2 135/2/2
f 133/2/2 134/2/2 136/2/2
f 134/2/2 135/2/2 136/2/2
f 135/2/2 132/2/2 137/2/2
f 136/2/2 135/2/2 137/2/2
f 138/2/2 139/2/2 140/2/2
f 140/2/2 139/2/2 141/2/2
f 141/2/2 139/2/2 142/2/2
f 142/2/2 139/2/2 143/2/2
f 140/3/2 141/3/2 144/3/2
f 141/2/2 142/2/2 145/2/2
f 144/3/2 141/3/2 145/3/2
f 145/2/2 142/2/2 146/2/2
f 146/2/2 142/2/2 147/2/2
f 147/2/2 142/2/2 148/2/2
f 142/3/2 143/3/2 149/3/2
f 148/2/2 142/2/2 149/2/2
f 149/3/2 143/3/2 150/3/2
f 144/2/2 145/2/2 151/2/2
f 145/2/2 146/2/2 151/2/2
f 146/5/2 147/5/2 152/5/2
f 151/2/2 146/2/2 152/2/2
f 152/5/2 147/5/2 153/5/2
f 147/4/2 148/4/2 154/4/2
f 153/5/2 147/5/2 154/5/2
f 154/4/2 148/4/2 155/4/2
f 152/6/2 153/6/2 156/6/2
f 151/5/2 152/5/2 156/5/2
f 154/5/2 155/5/2 157/5/2
f 156/6/2 153/6/2 157/6/2
f 153/5/2 154/5/2 157/5/2
f 155/4/2 148/4/2 158/4/2
f 157/5/2 155/5/2 158/5/2
f 149/2/2 150/2/2 159/2/2
f 158/4/2 148/4/2 159/4/2
f 148/2/2 149/2/2 159/2/2
f 156/5/2 157/5/2 160/5/2
f 157/5/2 158/5/2 160/5/2
f 144/2/2 151/2/2 160/2/2
f 151/5/2 156/5/2 160/5/2
f 160/5/2 158/5/2 161/5/2
f 161/5/2 158/5/2 162/5/2
f 158/2/2 159/2/2 163/2/2
f 162/5/2 158/5/2 163/5/2
f 144/2/2 160/2/2 164/2/2
f 160/4/2 161/4/2 164/4/2
f 161/5/2 162/5/2 165/5/2
f 164/4/2 161/4/2 165/4/2
f 162/2/2 163/2/2 166/2/2
f 165/5/2 162/5/2 166/5/2
f 159/2/2 150/2/2 167/2/2
f 166/2/2 163/2/2 167/2/2
f 163/2/2 159/2/2 167/2/2
f 167/2/2 150/2/2 168/2/2
f 165/2/2 166/2/2 169/2/2
f 164/2/2 165/2/2 169/2/2
f 167/5/2 168/5/2 169/5/2
f 166/2/2 167/2/2 169/2/2
f 169/5/2 168/5/2 170/5/2
f 144/2/2 164/2/2 171/2/2
f 164/2/2 169/2/2 171/2/2
f 169/2/2 170/2/2 171/2/2
f 171/2/2 170/2/2 172/2/2
f 177/3/3 175/3/3 174/3/3
f 177/2/3 176/2/3 175/2/3
f 178/2/3 176/2/3 177/2/3
f 182/2/3 174/2/3 173/2/3
f 183/3/3 177/3/3 174/3/3
f 183/3/3 178/3/3 177/3/3
f 183/2/3 174/2/3 182/2/3
f 184/3/3 178/3/3 183/3/3
f 185/3/3 181/3/3 180/3/3
f 185/2/3 182/2/3 181/2/3
f 185/2/3 184/2/3 183/2/3
f 185/2/3 183/2/3 182/2/3
f 186/2/3 184/2/3 185/2/3
f 187/2/3 184/2/3 186/2/3
f 188/2/3 184/2/3 187/2/3
f 189/2/3 187/2/3 186/2/3
f 190/2/3 187/2/3 189/2/3
f 192/2/3 180/2/3 179/2/3
f 193/3/3 185/3/3 180/3/3
f 193/3/3 186/3/3 185/3/3
f 193/2/3 180/2/3 192/2/3
f 194/2/3 189/2/3 186/2/3
f 194/3/3 186/3/3 193/3/3
f 195/2/3 192/2/3 191/2/3
f 195/2/3 193/2/3 192/2/3
f 195/2/3 194/2/3 193/2/3
f 196/2/3 189/2/3 194/2/3
f 196/2/3 194/2/3 195/2/3
f 199/2/3 198/2/3 197/2/3
f 200/2/3 198/2/3 199/2/3
f 201/2/3 198/2/3 200/2/3
f 203/2/3 201/2/3 200/2/3
f 203/2/3 202/2/3 201/2/3
f 204/2/3 202/2/3 203/2/3
f 207/2/3 203/2/3 200/2/3
f 208/2/3 203/2/3 207/2/3
f 209/3/3 204/3/3 203/3/3
f 209/3/3 205/3/3 204/3/3
f 210/2/3 206/2/3 205/2/3
f 210/3/3 205/3/3 209/3/3
f 211/2/3 203/2/3 208/2/3
f 212/3/3 209/3/3 203/3/3
f 212/2/3 203/2/3 211/2/3
f 213/2/3 210/2/3 209/2/3
f 213/3/3 209/3/3 212/3/3
f 214/2/3 206/2/3 210/2/3
f 214/2/3 210/2/3 213/2/3
f 215/2/3 206/2/3 214/2/3
f 216/2/3 206/2/3 215/2/3
f 226/2/3 218/2/3 217/2/3
f 226/3/3 219/3/3 218/3/3
f 227/2/3 220/2/3 219/2/3
f 227/3/3 219/3/3 226/3/3
f 228/5/3 221/5/3 220/5/3
f 228/2/3 220/2/3 227/2/3
f 229/6/3 222/6/3 221/6/3
f 229/5/3 221/5/3 228/5/3
f 230/5/3 223/5/3 222/5/3
f 230/6/3 222/6/3 229/6/3
f 231/5/3 223/5/3 230/5/3
f 232/4/3 224/4/3 223/4/3
f 232/5/3 223/5/3 231/5/3
f 233/2/3 226/2/3 217/2/3
f 233/2/3 227/2/3 226/2/3
f 233/2/3 228/2/3 227/2/3
f 233/2/3 229/2/3 228/2/3
f 234/2/3 229/2/3 233/2/3
f 235/2/3 229/2/3 234/2/3
f 236/5/3 231/5/3 230/5/3
f 236/2/3 229/2/3 235/2/3
f 236/5/3 230/5/3 229/5/3
f 237/5/3 231/5/3 236/5/3
f 238/4/3 232/4/3 231/4/3
f 238/5/3 231/5/3 237/5/3
f 239/2/3 225/2/3 224/2/3
f 239/4/3 232/4/3 238/4/3
f 239/4/3 224/4/3 232/4/3
f 240/2/3 225/2/3 239/2/3
f 241/4/3 234/4/3 233/4/3
f 242/5/3 235/5/3 234/5/3
f 242/4/3 234/4/3 241/4/3
f 243/2/3 236/2/3 235/2/3
f 243/5/3 235/5/3 242/5/3
f 243/2/3 237/2/3 236/2/3
f 244/2/3 237/2/3 243/2/3
f 245/4/3 241/4/3 233/4/3
f 245/2/3 233/2/3 217/2/3
f 246/5/3 242/5/3 241/5/3
f 246/4/3 241/4/3 245/4/3
f 246/5/3 244/5/3 243/5/3
f 246/5/3 243/5/3 242/5/3
f 247/5/3 244/5/3 246/5/3
f 248/5/3 244/5/3 247/5/3
f 249/2/3 246/2/3 245/2/3
f 249/5/3 247/5/3 246/5/3
f 250/5/3 247/5/3 249/5/3
f 251/6/3 248/6/3 247/6/3
f 251/5/3 247/5/3 250/5/3
f 252/5/3 244/5/3 248/5/3
f 252/6/3 248/6/3 251/6/3
f 253/2/3 237/2/3 244/2/3
f 253/5/3 244/5/3 252/5/3
f 254/2/3 237/2/3 253/2/3
f 255/2/3 237/2/3 254/2/3
f 256/2/3 237/2/3 255/2/3
f 257/2/3 237/2/3 256/2/3
f 258/4/3 250/4/3 249/4/3
f 258/2/3 249/2/3 245/2/3
f 259/5/3 252/5/3 251/5/3
f 259/4/3 250/4/3 258/4/3
f 259/5/3 251/5/3 250/5/3
f 260/2/3 253/2/3 252/2/3
f 260/5/3 252/5/3 259/5/3
f 260/2/3 254/2/3 253/2/3
f 261/2/3 258/2/3 245/2/3
f 261/2/3 245/2/3 217/2/3
f 261/2/3 260/2/3 259/2/3
f 261/2/3 259/2/3 258/2/3
f 262/2/3 254/2/3 260/2/3
f 262/2/3 260/2/3 261/2/3
f 265/1/3 264/1/3 263/1/3
f 266/1/3 264/1/3 265/1/3
f 272/4/3 268/4/3 267/4/3
f 273/5/3 269/5/3 268/5/3
f 273/4/3 268/4/3 272/4/3
f 274/4/3 270/4/3 269/4/3
f 274/5/3 269/5/3 273/5/3
f 275/2/3 271/2/3 270/2/3
f 275/4/3 270/4/3 274/4/3
f 276/5/3 274/5/3 273/5/3
f 276/5/3 273/5/3 272/5/3
f 276/5/3 275/5/3 274/5/3
f 277/5/3 275/5/3 276/5/3
f 278/5/3 276/5/3 272/5/3
f 279/6/3 277/6/3 276/6/3
f 279/5/3 276/5/3 278/5/3
f 280/5/3 275/5/3 277/5/3
f 280/6/3 277/6/3 279/6/3
f 281/5/3 275/5/3 280/5/3
f 282/2/3 271/2/3 275/2/3
f 282/5/3 275/5/3 281/5/3
f 283/2/3 271/2/3 282/2/3
f 284/2/3 271/2/3 283/2/3
f 287/5/3 281/5/3 280/5/3
f 287/2/3 279/2/3 278/2/3
f 287/5/3 280/5/3 279/5/3
f 288/2/3 282/2/3 281/2/3
f 288/5/3 281/5/3 287/5/3
f 289/4/3 283/4/3 282/4/3
f 290/5/3 285/5/3 284/5/3
f 290/4/3 283/4/3 289/4/3
f 290/5/3 284/5/3 283/5/3
f 291/5/3 285/5/3 290/5/3
f 292/2/3 286/2/3 285/2/3
f 292/5/3 285/5/3 291/5/3
f 293/2/3 286/2/3 292/2/3
f 294/2/3 288/2/3 287/2/3
f 294/2/3 287/2/3 278/2/3
f 295/2/3 282/2/3 288/2/3
f 295/2/3 288/2/3 294/2/3
f 296/4/3 289/4/3 282/4/3
f 296/2/3 282/2/3 295/2/3
f 297/5/3 291/5/3 290/5/3
f 297/4/3 289/4/3 296/4/3
f 297/5/3 290/5/3 289/5/3
f 298/6/3 292/6/3 291/6/3
f 298/5/3 291/5/3 297/5/3
f 299/5/3 293/5/3 292/5/3
f 299/6/3 292/6/3 298/6/3
f 300/2/3 286/2/3 293/2/3
f 304/5/3 299/5/3 298/5/3
f 304/2/3 296/2/3 295/2/3
f 304/5/3 298/5/3 297/5/3
f 304/2/3 297/2/3 296/2/3
f 305/5/3 299/5/3 304/5/3
f 306/5/3 293/5/3 299/5/3
f 306/5/3 299/5/3 305/5/3
f 307/2/3 300/2/3 293/2/3
f 307/5/3 293/5/3 306/5/3
f 307/2/3 303/2/3 302/2/3
f 307/2/3 302/2/3 301/2/3
f 307/2/3 301/2/3 300/2/3
f 308/2/3 303/2/3 307/2/3
f 309/3/3 295/3/3 294/3/3
f 310/2/3 304/2/3 295/2/3
f 310/3/3 295/3/3 309/3/3
f 311/4/3 305/4/3 304/4/3
f 311/2/3 304/2/3 310/2/3
f 312/5/3 306/5/3 305/5/3
f 312/4/3 305/4/3 311/4/3
f 313/2/3 307/2/3 306/2/3
f 313/5/3 306/5/3 312/5/3
f 313/2/3 308/2/3 307/2/3
f 314/2/3 294/2/3 278/2/3
f 315/3/3 309/3/3 294/3/3
f 315/2/3 294/2/3 314/2/3
f 316/2/3 311/2/3 310/2/3
f 316/3/3 309/3/3 315/3/3
f 316/2/3 310/2/3 309/2/3
f 316/2/3 313/2/3 312/2/3
f 316/2/3 312/2/3 311/2/3
f 317/2/3 308/2/3 313/2/3
f 317/2/3 313/2/3 316/2/3
f 322/2/3 319/2/3 318/2/3
f 322/2/3 320/2/3 319/2/3
f 324/2/3 322/2/3 321/2/3
f 325/4/3 324/4/3 323/4/3
f 326/2/3 322/2/3 324/2/3
f 326/4/3 324/4/3 325/4/3
f 327/5/3 326/5/3 325/5/3
f 328/2/3 322/2/3 326/2/3
f 328/5/3 326/5/3 327/5/3
f 329/2/3 322/2/3 328/2/3
f 330/2/3 320/2/3 322/2/3
f 330/2/3 322/2/3 329/2/3
f 331/2/3 320/2/3 330/2/3
f 332/2/3 320/2/3 331/2/3
f 333/2/3 320/2/3 332/2/3
f 334/2/4 335/2/4 336/2/4
f 336/2/4 335/2/4 337/2/4
f 337/2/4 335/2/4 338/2/4
f 338/2/4 335/2/4 339/2/4
f 336/3/4 337/3/4 340/3/4
f 337/2/4 338/2/4 340/2/4
f 340/2/4 338/2/4 341/2/4
f 341/2/4 338/2/4 342/2/4
f 342/2/4 338/2/4 343/2/4
f 343/2/4 338/2/4 344/2/4
f 341/2/4 342/2/4 345/2/4
f 342/4/4 343/4/4 345/4/4
f 343/5/4 344/5/4 346/5/4
f 345/4/4 343/4/4 346/4/4
f 346/5/4 344/5/4 347/5/4
f 344/2/4 338/2/4 348/2/4
f 347/5/4 344/5/4 348/5/4
f 348/2/4 338/2/4 349/2/4
f 334/2/4 336/2/4 350/2/4
f 336/3/4 340/3/4 350/3/4
f 340/3/4 341/3/4 350/3/4
f 341/2/4 345/2/4 351/2/4
f 350/3/4 341/3/4 351/3/4
f 351/2/4 345/2/4 352/2/4
f 346/5/4 347/5/4 353/5/4
f 352/2/4 345/2/4 353/2/4
f 345/5/4 346/5/4 353/5/4
f 347/6/4 348/6/4 354/6/4
f 353/5/4 347/5/4 354/5/4
f 348/5/4 349/5/4 355/5/4
f 354/6/4 348/6/4 355/6/4
f 353/5/4 354/5/4 356/5/4
f 352/4/4 353/4/4 356/4/4
f 354/5/4 355/5/4 356/5/4
f 356/5/4 355/5/4 357/5/4
f 355/5/4 349/5/4 358/5/4
f 357/5/4 355/5/4 358/5/4
f 349/2/4 338/2/4 359/2/4
f 358/5/4 349/5/4 359/5/4
f 356/4/4 357/4/4 360/4/4
f 350/2/4 351/2/4 360/2/4
f 351/2/4 352/2/4 360/2/4
f 352/4/4 356/4/4 360/4/4
f 357/5/4 358/5/4 361/5/4
f 360/4/4 357/4/4 361/4/4
f 358/2/4 359/2/4 362/2/4
f 361/5/4 358/5/4 362/5/4
f 350/2/4 360/2/4 363/2/4
f 360/2/4 361/2/4 363/2/4
f 361/2/4 362/2/4 363/2/4
f 363/2/4 362/2/4 364/2/4
f 362/2/4 359/2/4 365/2/4
f 364/2/4 362/2/4 365/2/4
f 359/2/4 338/2/4 366/2/4
f 365/2/4 359/2/4 366/2/4
f 366/2/4 338/2/4 367/2/4
f 334/2/4 350/2/4 368/2/4
f 350/2/4 363/2/4 368/2/4
f 368/2/4 363/2/4 369/2/4
f 363/3/4 364/3/4 370/3/4
f 364/2/4 365/2/4 371/2/4
f 370/3/4 364/3/4 371/3/4
f 371/2/4 365/2/4 372/2/4
f 365/5/4 366/5/4 373/5/4
f 372/2/4 365/2/4 373/2/4
f 373/5/4 366/5/4 374/5/4
f 366/4/4 367/4/4 375/4/4
f 374/5/4 366/5/4 375/5/4
f 367/2/4 338/2/4 376/2/4
f 375/4/4 367/4/4 376/4/4
f 368/4/4 369/4/4 377/4/4
f 369/2/4 363/2/4 378/2/4
f 377/4/4 369/4/4 378/4/4
f 378/2/4 363/2/4 379/2/4
f 363/3/4 370/3/4 380/3/4
f 379/2/4 363/2/4 380/2/4
f 371/2/4 372/2/4 381/2/4
f 380/3/4 370/3/4 381/3/4
f 370/2/4 371/2/4 381/2/4
f 373/6/4 374/6/4 382/6/4
f 372/5/4 373/5/4 382/5/4
f 374/5/4 375/5/4 383/5/4
f 382/6/4 374/6/4 383/6/4
f 375/5/4 376/5/4 383/5/4
f 368/4/4 377/4/4 384/4/4
f 334/2/4 368/2/4 384/2/4
f 378/5/4 379/5/4 385/5/4
f 384/4/4 377/4/4 385/4/4
f 377/5/4 378/5/4 385/5/4
f 379/4/4 380/4/4 386/4/4
f 385/5/4 379/5/4 386/5/4
f 380/2/4 381/2/4 387/2/4
f 386/4/4 380/4/4 387/4/4
f 372/5/4 382/5/4 388/5/4
f 387/2/4 381/2/4 388/2/4
f 381/2/4 372/2/4 388/2/4
f 382/5/4 383/5/4 388/5/4
f 388/5/4 383/5/4 389/5/4
f 383/5/4 376/5/4 390/5/4
f 389/5/4 383/5/4 390/5/4
f 376/2/4 338/2/4 391/2/4
f 390/5/4 376/5/4 391/5/4
f 386/5/4 387/5/4 392/5/4
f 385/5/4 386/5/4 392/5/4
f 384/5/4 385/5/4 392/5/4
f 392/5/4 387/5/4 393/5/4
f 388/2/4 389/2/4 394/2/4
f 387/2/4 388/2/4 394/2/4
f 389/5/4 390/5/4 394/5/4
f 394/5/4 390/5/4 395/5/4
f 390/4/4 391/4/4 396/4/4
f 395/5/4 390/5/4 396/5/4
f 334/2/4 384/2/4 397/2/4
f 384/5/4 392/5/4 397/5/4
f 397/5/4 392/5/4 398/5/4
f 392/6/4 393/6/4 399/6/4
f 398/5/4 392/5/4 399/5/4
f 393/5/4 387/5/4 400/5/4
f 399/6/4 393/6/4 400/6/4
f 394/2/4 395/2/4 401/2/4
f 400/5/4 387/5/4 401/5/4
f 387/2/4 394/2/4 401/2/4
f 395/4/4 396/4/4 402/4/4
f 401/2/4 395/2/4 402/2/4
f 396/4/4 391/4/4 403/4/4
f 402/4/4 396/4/4 403/4/4
f 391/2/4 338/2/4 403/2/4
f 398/5/4 399/5/4 404/5/4
f 399/5/4 400/5/4 404/5/4
f 397/2/4 398/2/4 404/2/4
f 401/2/4 402/2/4 405/2/4
f 404/5/4 400/5/4 405/5/4
f 402/2/4 403/2/4 405/2/4
f 400/2/4 401/2/4 405/2/4
f 405/2/4 403/2/4 406/2/4
f 406/2/4 403/2/4 407/2/4
f 404/2/4 405/2/4 408/2/4
f 405/2/4 406/2/4 408/2/4
f 408/2/4 406/2/4 409/2/4
f 406/4/4 407/4/4 410/4/4
f 409/2/4 406/2/4 410/2/4
f 410/4/4 407/4/4 411/4/4
f 407/2/4 403/2/4 412/2/4
f 403/2/4 338/2/4 413/2/4
f 412/2/4 403/2/4 413/2/4
f 397/2/4 404/2/4 414/2/4
f 334/2/4 397/2/4 414/2/4
f 404/2/4 408/2/4 414/2/4
f 414/2/4 408/2/4 415/2/4
f 408/4/4 409/4/4 416/4/4
f 415/2/4 408/2/4 416/2/4
f 410/5/4 411/5/4 417/5/4
f 416/4/4 409/4/4 417/4/4
f 409/5/4 410/5/4 417/5/4
f 411/4/4 407/4/4 418/4/4
f 417/5/4 411/5/4 418/5/4
f 407/2/4 412/2/4 419/2/4
f 418/4/4 407/4/4 419/4/4
f 413/2/4 338/2/4 420/2/4
f 412/3/4 413/3/4 420/3/4
f 420/2/4 338/2/4 421/2/4
f 417/5/4 418/5/4 422/5/4
f 418/5/4 419/5/4 422/5/4
f 416/5/4 417/5/4 422/5/4
f 422/5/4 419/5/4 423/5/4
f 420/3/4 421/3/4 424/3/4
f 414/3/4 415/3/4 426/3/4
f 415/2/4 416/2/4 427/2/4
f 426/3/4 415/3/4 427/3/4
f 416/5/4 422/5/4 428/5/4
f 427/2/4 416/2/4 428/2/4
f 422/6/4 423/6/4 429/6/4
f 428/5/4 422/5/4 429/5/4
f 423/5/4 419/5/4 430/5/4
f 429/6/4 423/6/4 430/6/4
f 430/5/4 419/5/4 431/5/4
f 419/2/4 412/2/4 432/2/4
f 431/5/4 419/5/4 432/5/4
f 420/3/4 424/3/4 433/3/4
f 432/2/4 412/2/4 433/2/4
f 412/3/4 420/3/4 433/3/4
f 424/2/4 425/2/4 434/2/4
f 433/3/4 424/3/4 434/3/4
f 334/2/4 414/2/4 435/2/4
f 414/3/4 426/3/4 436/3/4
f 435/2/4 414/2/4 436/2/4
f 428/2/4 429/2/4 437/2/4
f 436/3/4 426/3/4 437/3/4
f 426/2/4 427/2/4 437/2/4
f 427/2/4 428/2/4 437/2/4
f 430/5/4 431/5/4 438/5/4
f 437/2/4 429/2/4 438/2/4
f 429/5/4 430/5/4 438/5/4
f 431/2/4 432/2/4 439/2/4
f 438/5/4 431/5/4 439/5/4
f 433/2/4 434/2/4 439/2/4
f 432/2/4 433/2/4 439/2/4
f 434/2/4 425/2/4 440/2/4
f 439/2/4 434/2/4 440/2/4
f 441/2/4 442/2/4 443/2/4
f 443/2/4 442/2/4 444/2/4
f 450/2/5 446/2/5 445/2/5
f 451/2/5 446/2/5 450/2/5
f 452/2/5 448/2/5 447/2/5
f 453/2/5 448/2/5 452/2/5
f 457/2/5 451/2/5 450/2/5
f 457/2/5 450/2/5 449/2/5
f 457/1/5 452/1/5 451/1/5
f 458/2/5 453/2/5 452/2/5
f 458/1/5 452/1/5 457/1/5
f 459/4/5 454/4/5 453/4/5
f 459/2/5 453/2/5 458/2/5
f 460/5/5 455/5/5 454/5/5
f 460/4/5 454/4/5 459/4/5
f 461/2/5 456/2/5 455/2/5
f 461/5/5 455/5/5 460/5/5
f 462/2/5 460/2/5 459/2/5
f 462/2/5 459/2/5 458/2/5
f 462/2/5 461/2/5 460/2/5
f 462/2/5 457/2/5 449/2/5
f 462/2/5 458/2/5 457/2/5
f 463/2/5 456/2/5 461/2/5
f 463/2/5 461/2/5 462/2/5
f 468/2/5 465/2/5 464/2/5
f 469/2/5 465/2/5 468/2/5
f 470/2/5 467/2/5 466/2/5
f 471/2/5 467/2/5 470/2/5
f 476/2/5 473/2/5 472/2/5
f 477/2/5 473/2/5 476/2/5
f 478/2/5 475/2/5 474/2/5
f 479/2/5 475/2/5 478/2/5
f 483/2/5 481/2/5 480/2/5
f 483/2/5 482/2/5 481/2/5
f 484/2/5 482/2/5 483/2/5
f 487/2/5 486/2/5 485/2/5
f 488/2/5 486/2/5 487/2/5
f 489/1/6 490/1/6 491/1/6
f 491/1/6 490/1/6 492/1/6
f 492/1/6 490/1/6 493/1/6
f 494/2/6 495/2/6 498/2/6
f 498/2/6 495/2/6 499/2/6
f 496/2/6 497/2/6 500/2/6
f 500/2/6 497/2/6 501/2/6
f 498/1/6 499/1/6 502/1/6
f 502/1/6 499/1/6 503/1/6
f 500/1/6 501/1/6 504/1/6
f 504/1/6 501/1/6 505/1/6
f 506/2/6 507/2/6 510/2/6
f 510/2/6 507/2/6 511/2/6
f 508/2/6 509/2/6 512/2/6
f 512/2/6 509/2/6 513/2/6
f 510/1/6 511/1/6 514/1/6
f 514/1/6 511/1/6 515/1/6
f 512/1/6 513/1/6 516/1/6
f 516/1/6 513/1/6 517/1/6
f 518/2/6 519/2/6 522/2/6
f 522/2/6 519/2/6 523/2/6
f 520/2/6 521/2/6 524/2/6
f 524/2/6 521/2/6 525/2/6
f 526/2/6 527/2/6 532/2/6
f 527/3/6 528/3/6 532/3/6
f 528/2/6 529/2/6 533/2/6
f 532/3/6 528/3/6 533/3/6
f 532/2/6 533/2/6 534/2/6
f 533/2/6 529/2/6 534/2/6
f 530/2/6 531/2/6 535/2/6
f 532/2/6 534/2/6 536/2/6
f 534/2/6 535/2/6 536/2/6
f 526/2/6 532/2/6 536/2/6
f 535/2/6 531/2/6 537/2/6
f 536/2/6 535/2/6 537/2/6
