# MagicaVoxel @ Ephtracy

# group
o 

# material
mtllib model-1.mtl
usemtl palette

# normals
vn 0 0 1
vn 0 0 -1
vn 1 0 0
vn -1 0 0
vn 0 -1 0
vn 0 1 0

# texcoords
vt 0.322266 0.5
vt 0.341797 0.5
vt 0.392578 0.5
vt 0.486328 0.5
vt 0.517578 0.5

# verts
v 0.3 1.4 -0.9
v -0.3 1.4 -0.9
v 0.3 2 -0.9
v -0.3 2 -0.9
v 0.3 1.4 -1.7
v -0.3 1.4 -1.7
v 0.3 2 -1.7
v -0.3 2 -1.7
v 0.3 1.4 -0.9
v 0.3 2 -0.9
v 0.3 1.7 -1.2
v 0.3 1.8 -1.2
v 0.3 1.8 -1.3
v 0.3 1.9 -1.3
v 0.3 1.7 -1.5
v 0.3 1.9 -1.5
v 0.3 1.4 -1.7
v 0.3 2 -1.7
v -0.3 1.4 -0.9
v -0.3 2 -0.9
v -0.3 1.9 -1.1
v -0.3 2 -1.1
v -0.3 1.8 -1.2
v -0.3 1.9 -1.2
v -0.3 1.7 -1.3
v -0.3 1.8 -1.3
v -0.3 1.8 -1.4
v -0.3 1.9 -1.4
v -0.3 1.7 -1.5
v -0.3 1.9 -1.5
v -0.3 2 -1.5
v -0.3 1.4 -1.7
v -0.3 2 -1.7
v 0.3 1.4 -0.9
v 0.3 1.4 -1.7
v -0.3 1.4 -0.9
v -0.3 1.4 -1.7
v 0.3 2 -0.9
v 0.3 2 -1.7
v 0 2 -1.2
v 0 2 -1.4
v 0 2 -1.5
v -0.1 2 -1.1
v -0.1 2 -1.2
v -0.1 2 -1.3
v -0.1 2 -1.4
v -0.1 2 -1.5
v -0.2 2 -1.2
v -0.2 2 -1.3
v -0.3 2 -0.9
v -0.3 2 -1.1
v -0.3 2 -1.5
v -0.3 2 -1.7

# faces
f 3/1/1 2/1/1 1/1/1
f 4/1/1 2/1/1 3/1/1
f 5/1/2 6/1/2 7/1/2
f 7/1/2 6/1/2 8/1/2
f 11/1/3 10/1/3 9/1/3
f 12/1/3 10/1/3 11/1/3
f 13/2/3 12/2/3 11/2/3
f 13/1/3 10/1/3 12/1/3
f 14/1/3 10/1/3 13/1/3
f 15/1/3 11/1/3 9/1/3
f 15/2/3 13/2/3 11/2/3
f 15/2/3 14/2/3 13/2/3
f 16/1/3 10/1/3 14/1/3
f 16/2/3 14/2/3 15/2/3
f 17/1/3 15/1/3 9/1/3
f 17/1/3 16/1/3 15/1/3
f 18/1/3 10/1/3 16/1/3
f 18/1/3 16/1/3 17/1/3
f 19/1/4 20/1/4 21/1/4
f 21/1/4 20/1/4 22/1/4
f 19/1/4 21/1/4 23/1/4
f 21/4/4 22/4/4 24/4/4
f 23/1/4 21/1/4 24/1/4
f 19/1/4 23/1/4 25/1/4
f 23/4/4 24/4/4 26/4/4
f 25/1/4 23/1/4 26/1/4
f 25/3/4 26/3/4 27/3/4
f 26/4/4 24/4/4 27/4/4
f 24/4/4 22/4/4 28/4/4
f 27/4/4 24/4/4 28/4/4
f 25/3/4 27/3/4 29/3/4
f 19/1/4 25/1/4 29/1/4
f 27/3/4 28/3/4 29/3/4
f 28/4/4 22/4/4 30/4/4
f 29/3/4 28/3/4 30/3/4
f 30/4/4 22/4/4 31/4/4
f 19/1/4 29/1/4 32/1/4
f 29/1/4 30/1/4 32/1/4
f 30/1/4 31/1/4 32/1/4
f 32/1/4 31/1/4 33/1/4
f 36/1/5 35/1/5 34/1/5
f 37/1/5 35/1/5 36/1/5
f 38/1/6 39/1/6 40/1/6
f 40/1/6 39/1/6 41/1/6
f 41/1/6 39/1/6 42/1/6
f 38/1/6 40/1/6 43/1/6
f 40/4/6 41/4/6 44/4/6
f 43/1/6 40/1/6 44/1/6
f 44/4/6 41/4/6 45/4/6
f 41/3/6 42/3/6 46/3/6
f 45/4/6 41/4/6 46/4/6
f 42/1/6 39/1/6 47/1/6
f 46/3/6 42/3/6 47/3/6
f 44/5/6 45/5/6 48/5/6
f 43/4/6 44/4/6 48/4/6
f 45/4/6 46/4/6 49/4/6
f 48/5/6 45/5/6 49/5/6
f 46/4/6 47/4/6 49/4/6
f 38/1/6 43/1/6 50/1/6
f 43/4/6 48/4/6 51/4/6
f 50/1/6 43/1/6 51/1/6
f 48/4/6 49/4/6 51/4/6
f 49/4/6 47/4/6 52/4/6
f 51/4/6 49/4/6 52/4/6
f 47/1/6 39/1/6 52/1/6
f 52/1/6 39/1/6 53/1/6
