# MagicaVoxel @ Ephtracy

# group
o 

# material
mtllib model.mtl
usemtl palette

# normals
vn 0 0 1
vn 0 0 -1
vn 1 0 0
vn -1 0 0
vn 0 -1 0
vn 0 1 0

# texcoords
vt 0.0292969 0.5
vt 0.572266 0.5

# verts
v 1 0 1.4
v -1 0 1.4
v 1 0.6 1.4
v -1 0.6 1.4
v 0.9 0.6 1.3
v -0.9 0.6 1.3
v 0.9 1.3 1.3
v -0.9 1.3 1.3
v 1.2 0 1.2
v 1 0 1.2
v -1 0 1.2
v -1.2 0 1.2
v 1.2 0.6 1.2
v 1 0.6 1.2
v -1 0.6 1.2
v -1.2 0.6 1.2
v 1.1 0.6 1.1
v 0.9 0.6 1.1
v -0.9 0.6 1.1
v -1.1 0.6 1.1
v 1.1 1.3 1.1
v 0.9 1.3 1.1
v 0.7 1.3 1.1
v -0.7 1.3 1.1
v -0.9 1.3 1.1
v -1.1 1.3 1.1
v 0.7 1.5 1.1
v -0.7 1.5 1.1
v 0.9 1.3 0.9
v 0.7 1.3 0.9
v 0.9 1.5 0.9
v 0.7 1.5 0.9
v -0.7 1.3 0.8
v -0.9 1.3 0.8
v -0.7 1.5 0.8
v -0.9 1.5 0.8
v -1.1 0.8 0.5
v -1.8 0.8 0.5
v -0.9 1.3 0.5
v -1.1 1.3 0.5
v -0.9 1.5 0.5
v -1.8 1.5 0.5
v -1.6 0.5 0.3
v -2.2 0.5 0.3
v -1.6 0.8 0.3
v -1.8 0.8 0.3
v -1.8 1.1 0.3
v -2.2 1.1 0.3
v -1.6 0.5 -0.3
v -2.2 0.5 -0.3
v -1.6 0.8 -0.3
v -1.8 0.8 -0.3
v -1.8 1.1 -0.3
v -2.2 1.1 -0.3
v -1.1 0.8 -0.5
v -1.8 0.8 -0.5
v -0.9 1.3 -0.5
v -1.1 1.3 -0.5
v -0.9 1.5 -0.5
v -1.8 1.5 -0.5
v -0.7 1.3 -0.8
v -0.9 1.3 -0.8
v -0.7 1.5 -0.8
v -0.9 1.5 -0.8
v 0.9 1.3 -0.9
v 0.7 1.3 -0.9
v 0.9 1.5 -0.9
v 0.7 1.5 -0.9
v 1.1 0.6 -1.1
v 0.9 0.6 -1.1
v -0.9 0.6 -1.1
v -1.1 0.6 -1.1
v 1.1 1.3 -1.1
v 0.9 1.3 -1.1
v 0.7 1.3 -1.1
v -0.7 1.3 -1.1
v -0.9 1.3 -1.1
v -1.1 1.3 -1.1
v 0.7 1.5 -1.1
v -0.7 1.5 -1.1
v 1.2 0 -1.2
v 1 0 -1.2
v -1 0 -1.2
v -1.2 0 -1.2
v 1.2 0.6 -1.2
v 1 0.6 -1.2
v -1 0.6 -1.2
v -1.2 0.6 -1.2
v 0.9 0.6 -1.3
v -0.9 0.6 -1.3
v 0.9 1.3 -1.3
v -0.9 1.3 -1.3
v 1 0 -1.4
v -1 0 -1.4
v 1 0.6 -1.4
v -1 0.6 -1.4
v 1.2 0 1.2
v 1.2 0.6 1.2
v 1.2 0 -1.2
v 1.2 0.6 -1.2
v 1.1 0.6 1.1
v 1.1 1.3 1.1
v 1.1 0.6 -1.1
v 1.1 1.3 -1.1
v 1 0 1.4
v 1 0.6 1.4
v 1 0 1.2
v 1 0.6 1.2
v 1 0 -1.2
v 1 0.6 -1.2
v 1 0 -1.4
v 1 0.6 -1.4
v 0.9 0.6 1.3
v 0.9 1.3 1.3
v 0.9 0.6 1.1
v 0.9 1.3 1.1
v 0.9 1.3 0.9
v 0.9 1.5 0.9
v 0.9 1.3 -0.9
v 0.9 1.5 -0.9
v 0.9 0.6 -1.1
v 0.9 1.3 -1.1
v 0.9 0.6 -1.3
v 0.9 1.3 -1.3
v 0.7 1.3 1.1
v 0.7 1.5 1.1
v 0.7 1.3 0.9
v 0.7 1.5 0.9
v 0.7 1.3 -0.9
v 0.7 1.5 -0.9
v 0.7 1.3 -1.1
v 0.7 1.5 -1.1
v -1.6 0.5 0.3
v -1.6 0.8 0.3
v -1.6 0.5 -0.3
v -1.6 0.8 -0.3
v -0.7 1.3 1.1
v -0.7 1.5 1.1
v -0.7 1.3 0.8
v -0.7 1.5 0.8
v -0.7 1.3 -0.8
v -0.7 1.5 -0.8
v -0.7 1.3 -1.1
v -0.7 1.5 -1.1
v -0.9 0.6 1.3
v -0.9 1.3 1.3
v -0.9 0.6 1.1
v -0.9 1.3 1.1
v -0.9 1.3 0.8
v -0.9 1.5 0.8
v -0.9 1.3 0.5
v -0.9 1.5 0.5
v -0.9 1.3 -0.5
v -0.9 1.5 -0.5
v -0.9 1.3 -0.8
v -0.9 1.5 -0.8
v -0.9 0.6 -1.1
v -0.9 1.3 -1.1
v -0.9 0.6 -1.3
v -0.9 1.3 -1.3
v -1 0 1.4
v -1 0.6 1.4
v -1 0 1.2
v -1 0.6 1.2
v -1 0 -1.2
v -1 0.6 -1.2
v -1 0 -1.4
v -1 0.6 -1.4
v -1.1 0.6 1.1
v -1.1 1.3 1.1
v -1.1 0.8 0.5
v -1.1 1.3 0.5
v -1.1 0.8 -0.5
v -1.1 1.3 -0.5
v -1.1 0.6 -1.1
v -1.1 1.3 -1.1
v -1.2 0 1.2
v -1.2 0.6 1.2
v -1.2 0 -1.2
v -1.2 0.6 -1.2
v -1.8 0.8 0.5
v -1.8 1.5 0.5
v -1.8 0.8 0.3
v -1.8 1.1 0.3
v -1.8 0.8 -0.3
v -1.8 1.1 -0.3
v -1.8 0.8 -0.5
v -1.8 1.5 -0.5
v -2.2 0.5 0.3
v -2.2 1.1 0.3
v -2.2 0.5 -0.3
v -2.2 1.1 -0.3
v 1.2 0 1.2
v 1.2 0 -1.2
v 1 0 1.4
v 1 0 1.2
v 1 0 -1.2
v 1 0 -1.4
v -1 0 1.4
v -1 0 1.2
v -1 0 -1.2
v -1 0 -1.4
v -1.2 0 1.2
v -1.2 0 -1.2
v -1.6 0.5 0.3
v -1.6 0.5 -0.3
v -2.2 0.5 0.3
v -2.2 0.5 -0.3
v -1.1 0.8 0.5
v -1.1 0.8 -0.5
v -1.6 0.8 0.3
v -1.6 0.8 -0.3
v -1.8 0.8 0.5
v -1.8 0.8 0.3
v -1.8 0.8 -0.3
v -1.8 0.8 -0.5
v 1.2 0.6 1.2
v 1.2 0.6 -1.2
v 1.1 0.6 1.1
v 1.1 0.6 -1.1
v 1 0.6 1.4
v 1 0.6 1.2
v 1 0.6 -1.2
v 1 0.6 -1.4
v 0.9 0.6 1.3
v 0.9 0.6 1.1
v 0.9 0.6 -1.1
v 0.9 0.6 -1.3
v -0.9 0.6 1.3
v -0.9 0.6 1.1
v -0.9 0.6 -1.1
v -0.9 0.6 -1.3
v -1 0.6 1.4
v -1 0.6 1.2
v -1 0.6 -1.2
v -1 0.6 -1.4
v -1.1 0.6 1.1
v -1.1 0.6 -1.1
v -1.2 0.6 1.2
v -1.2 0.6 -1.2
v -1.8 1.1 0.3
v -1.8 1.1 -0.3
v -2.2 1.1 0.3
v -2.2 1.1 -0.3
v 1.1 1.3 1.1
v 1.1 1.3 -1.1
v 0.9 1.3 1.3
v 0.9 1.3 1.1
v 0.9 1.3 0.9
v 0.9 1.3 -0.9
v 0.9 1.3 -1.1
v 0.9 1.3 -1.3
v 0.7 1.3 1.1
v 0.7 1.3 0.9
v 0.7 1.3 -0.9
v 0.7 1.3 -1.1
v -0.7 1.3 1.1
v -0.7 1.3 0.8
v -0.7 1.3 -0.8
v -0.7 1.3 -1.1
v -0.9 1.3 1.3
v -0.9 1.3 1.1
v -0.9 1.3 0.8
v -0.9 1.3 0.5
v -0.9 1.3 -0.5
v -0.9 1.3 -0.8
v -0.9 1.3 -1.1
v -0.9 1.3 -1.3
v -1.1 1.3 1.1
v -1.1 1.3 0.5
v -1.1 1.3 -0.5
v -1.1 1.3 -1.1
v 0.9 1.5 0.9
v 0.9 1.5 -0.9
v 0.7 1.5 1.1
v 0.7 1.5 0.9
v 0.7 1.5 -0.9
v 0.7 1.5 -1.1
v -0.7 1.5 1.1
v -0.7 1.5 0.8
v -0.7 1.5 -0.8
v -0.7 1.5 -1.1
v -0.9 1.5 0.8
v -0.9 1.5 0.5
v -0.9 1.5 -0.5
v -0.9 1.5 -0.8
v -1.8 1.5 0.5
v -1.8 1.5 -0.5

# faces
f 3/1/1 2/1/1 1/1/1
f 4/1/1 2/1/1 3/1/1
f 7/2/1 6/2/1 5/2/1
f 8/2/1 6/2/1 7/2/1
f 13/1/1 10/1/1 9/1/1
f 14/1/1 10/1/1 13/1/1
f 15/1/1 12/1/1 11/1/1
f 16/1/1 12/1/1 15/1/1
f 21/2/1 18/2/1 17/2/1
f 22/2/1 18/2/1 21/2/1
f 25/2/1 20/2/1 19/2/1
f 26/2/1 20/2/1 25/2/1
f 27/2/1 24/2/1 23/2/1
f 28/2/1 24/2/1 27/2/1
f 31/2/1 30/2/1 29/2/1
f 32/2/1 30/2/1 31/2/1
f 35/2/1 34/2/1 33/2/1
f 36/2/1 34/2/1 35/2/1
f 40/2/1 38/2/1 37/2/1
f 41/2/1 40/2/1 39/2/1
f 42/2/1 38/2/1 40/2/1
f 42/2/1 40/2/1 41/2/1
f 45/1/1 44/1/1 43/1/1
f 46/1/1 44/1/1 45/1/1
f 47/1/1 44/1/1 46/1/1
f 48/1/1 44/1/1 47/1/1
f 49/1/2 50/1/2 51/1/2
f 51/1/2 50/1/2 52/1/2
f 52/1/2 50/1/2 53/1/2
f 53/1/2 50/1/2 54/1/2
f 55/2/2 56/2/2 58/2/2
f 57/2/2 58/2/2 59/2/2
f 58/2/2 56/2/2 60/2/2
f 59/2/2 58/2/2 60/2/2
f 61/2/2 62/2/2 63/2/2
f 63/2/2 62/2/2 64/2/2
f 65/2/2 66/2/2 67/2/2
f 67/2/2 66/2/2 68/2/2
f 69/2/2 70/2/2 73/2/2
f 73/2/2 70/2/2 74/2/2
f 71/2/2 72/2/2 77/2/2
f 77/2/2 72/2/2 78/2/2
f 75/2/2 76/2/2 79/2/2
f 79/2/2 76/2/2 80/2/2
f 81/1/2 82/1/2 85/1/2
f 85/1/2 82/1/2 86/1/2
f 83/1/2 84/1/2 87/1/2
f 87/1/2 84/1/2 88/1/2
f 89/2/2 90/2/2 91/2/2
f 91/2/2 90/2/2 92/2/2
f 93/1/2 94/1/2 95/1/2
f 95/1/2 94/1/2 96/1/2
f 99/1/3 98/1/3 97/1/3
f 100/1/3 98/1/3 99/1/3
f 103/2/3 102/2/3 101/2/3
f 104/2/3 102/2/3 103/2/3
f 107/1/3 106/1/3 105/1/3
f 108/1/3 106/1/3 107/1/3
f 111/1/3 110/1/3 109/1/3
f 112/1/3 110/1/3 111/1/3
f 115/2/3 114/2/3 113/2/3
f 116/2/3 114/2/3 115/2/3
f 119/2/3 118/2/3 117/2/3
f 120/2/3 118/2/3 119/2/3
f 123/2/3 122/2/3 121/2/3
f 124/2/3 122/2/3 123/2/3
f 127/2/3 126/2/3 125/2/3
f 128/2/3 126/2/3 127/2/3
f 131/2/3 130/2/3 129/2/3
f 132/2/3 130/2/3 131/2/3
f 135/1/3 134/1/3 133/1/3
f 136/1/3 134/1/3 135/1/3
f 137/2/4 138/2/4 139/2/4
f 139/2/4 138/2/4 140/2/4
f 141/2/4 142/2/4 143/2/4
f 143/2/4 142/2/4 144/2/4
f 145/2/4 146/2/4 147/2/4
f 147/2/4 146/2/4 148/2/4
f 149/2/4 150/2/4 151/2/4
f 151/2/4 150/2/4 152/2/4
f 153/2/4 154/2/4 155/2/4
f 155/2/4 154/2/4 156/2/4
f 157/2/4 158/2/4 159/2/4
f 159/2/4 158/2/4 160/2/4
f 161/1/4 162/1/4 163/1/4
f 163/1/4 162/1/4 164/1/4
f 165/1/4 166/1/4 167/1/4
f 167/1/4 166/1/4 168/1/4
f 169/2/4 170/2/4 171/2/4
f 171/2/4 170/2/4 172/2/4
f 169/2/4 171/2/4 173/2/4
f 169/2/4 173/2/4 175/2/4
f 173/2/4 174/2/4 175/2/4
f 175/2/4 174/2/4 176/2/4
f 177/1/4 178/1/4 179/1/4
f 179/1/4 178/1/4 180/1/4
f 181/2/4 182/2/4 183/2/4
f 183/2/4 182/2/4 184/2/4
f 184/2/4 182/2/4 186/2/4
f 185/2/4 186/2/4 187/2/4
f 186/2/4 182/2/4 188/2/4
f 187/2/4 186/2/4 188/2/4
f 189/1/4 190/1/4 191/1/4
f 191/1/4 190/1/4 192/1/4
f 196/1/5 194/1/5 193/1/5
f 197/1/5 194/1/5 196/1/5
f 199/1/5 196/1/5 195/1/5
f 199/1/5 198/1/5 197/1/5
f 199/1/5 197/1/5 196/1/5
f 200/1/5 198/1/5 199/1/5
f 201/1/5 198/1/5 200/1/5
f 202/1/5 198/1/5 201/1/5
f 203/1/5 201/1/5 200/1/5
f 204/1/5 201/1/5 203/1/5
f 207/1/5 206/1/5 205/1/5
f 208/1/5 206/1/5 207/1/5
f 211/2/5 210/2/5 209/2/5
f 212/2/5 210/2/5 211/2/5
f 213/2/5 211/2/5 209/2/5
f 214/2/5 211/2/5 213/2/5
f 215/2/5 210/2/5 212/2/5
f 216/2/5 210/2/5 215/2/5
f 217/1/6 218/1/6 219/1/6
f 219/1/6 218/1/6 220/1/6
f 217/1/6 219/1/6 222/1/6
f 220/1/6 218/1/6 223/1/6
f 221/1/6 222/1/6 225/1/6
f 222/1/6 219/1/6 226/1/6
f 225/1/6 222/1/6 226/1/6
f 223/1/6 224/1/6 227/1/6
f 220/1/6 223/1/6 227/1/6
f 227/1/6 224/1/6 228/1/6
f 221/1/6 225/1/6 229/1/6
f 228/1/6 224/1/6 232/1/6
f 229/1/6 230/1/6 233/1/6
f 221/1/6 229/1/6 233/1/6
f 233/1/6 230/1/6 234/1/6
f 231/1/6 232/1/6 235/1/6
f 232/1/6 224/1/6 236/1/6
f 235/1/6 232/1/6 236/1/6
f 234/1/6 230/1/6 237/1/6
f 231/1/6 235/1/6 238/1/6
f 234/1/6 237/1/6 239/1/6
f 237/1/6 238/1/6 239/1/6
f 238/1/6 235/1/6 240/1/6
f 239/1/6 238/1/6 240/1/6
f 241/1/6 242/1/6 243/1/6
f 243/1/6 242/1/6 244/1/6
f 245/2/6 246/2/6 248/2/6
f 248/2/6 246/2/6 249/2/6
f 249/2/6 246/2/6 250/2/6
f 250/2/6 246/2/6 251/2/6
f 247/2/6 248/2/6 253/2/6
f 248/2/6 249/2/6 253/2/6
f 253/2/6 249/2/6 254/2/6
f 251/2/6 252/2/6 255/2/6
f 250/2/6 251/2/6 255/2/6
f 255/2/6 252/2/6 256/2/6
f 247/2/6 253/2/6 257/2/6
f 256/2/6 252/2/6 260/2/6
f 257/2/6 258/2/6 261/2/6
f 247/2/6 257/2/6 261/2/6
f 261/2/6 258/2/6 262/2/6
f 262/2/6 258/2/6 263/2/6
f 259/2/6 260/2/6 266/2/6
f 260/2/6 252/2/6 267/2/6
f 266/2/6 260/2/6 267/2/6
f 267/2/6 252/2/6 268/2/6
f 263/2/6 264/2/6 269/2/6
f 262/2/6 263/2/6 269/2/6
f 269/2/6 264/2/6 270/2/6
f 265/2/6 266/2/6 271/2/6
f 266/2/6 267/2/6 271/2/6
f 271/2/6 267/2/6 272/2/6
f 273/2/6 274/2/6 276/2/6
f 276/2/6 274/2/6 277/2/6
f 275/2/6 276/2/6 279/2/6
f 277/2/6 278/2/6 279/2/6
f 276/2/6 277/2/6 279/2/6
f 279/2/6 278/2/6 280/2/6
f 280/2/6 278/2/6 281/2/6
f 281/2/6 278/2/6 282/2/6
f 280/2/6 281/2/6 283/2/6
f 283/2/6 281/2/6 284/2/6
f 284/2/6 281/2/6 285/2/6
f 285/2/6 281/2/6 286/2/6
f 284/2/6 285/2/6 287/2/6
f 287/2/6 285/2/6 288/2/6
