# MagicaVoxel @ Ephtracy

# group
o 

# material
mtllib model.mtl
usemtl palette

# normals
vn 0 0 1
vn 0 0 -1
vn 1 0 0
vn -1 0 0
vn 0 -1 0
vn 0 1 0

# texcoords
vt 0.00195313 0.5
vt 0.0253906 0.5
vt 0.0332031 0.5
vt 0.0371094 0.5
vt 0.0800781 0.5
vt 0.525391 0.5
vt 0.548828 0.5

# verts
v 1.4 0 2
v 1.1 0 2
v 0.9 0 2
v 0.7 0 2
v 0.5 0 2
v 0.3 0 2
v 0.1 0 2
v -0.0999999 0 2
v -0.3 0 2
v -0.5 0 2
v -0.7 0 2
v -0.9 0 2
v -1.1 0 2
v -1.4 0 2
v 1.4 0.1 2
v 1.3 0.1 2
v -1.3 0.1 2
v -1.4 0.1 2
v 1.3 0.2 2
v 1.1 0.2 2
v 0.9 0.2 2
v 0.7 0.2 2
v 0.5 0.2 2
v 0.3 0.2 2
v 0.1 0.2 2
v -0.0999999 0.2 2
v -0.3 0.2 2
v -0.5 0.2 2
v -0.7 0.2 2
v -0.9 0.2 2
v -1.1 0.2 2
v -1.3 0.2 2
v 1.1 0 1.9
v 0.9 0 1.9
v 0.7 0 1.9
v 0.5 0 1.9
v 0.3 0 1.9
v 0.1 0 1.9
v -0.0999999 0 1.9
v -0.3 0 1.9
v -0.5 0 1.9
v -0.7 0 1.9
v -0.9 0 1.9
v -1.1 0 1.9
v 1.1 0.1 1.9
v 0.9 0.1 1.9
v 0.7 0.1 1.9
v 0.5 0.1 1.9
v 0.3 0.1 1.9
v 0.1 0.1 1.9
v -0.0999999 0.1 1.9
v -0.3 0.1 1.9
v -0.5 0.1 1.9
v -0.7 0.1 1.9
v -0.9 0.1 1.9
v -1.1 0.1 1.9
v 1.8 0 1.8
v 1.4 0 1.8
v -1.4 0 1.8
v -1.8 0 1.8
v 1.8 0.1 1.8
v 1.4 0.1 1.8
v -1.4 0.1 1.8
v -1.8 0.1 1.8
v 1.8 0.1 1.7
v 1.3 0.1 1.7
v -1.3 0.1 1.7
v -1.8 0.1 1.7
v 1.8 0.2 1.7
v 1.3 0.2 1.7
v -1.3 0.2 1.7
v -1.8 0.2 1.7
v 1.1 0.1 1.6
v 0.9 0.1 1.6
v 0.7 0.1 1.6
v 0.5 0.1 1.6
v 0.3 0.1 1.6
v 0.1 0.1 1.6
v -0.0999999 0.1 1.6
v -0.3 0.1 1.6
v -0.5 0.1 1.6
v -0.7 0.1 1.6
v -0.9 0.1 1.6
v -1.1 0.1 1.6
v 1.4 0.2 1.6
v 1.1 0.2 1.6
v 0.9 0.2 1.6
v 0.7 0.2 1.6
v 0.5 0.2 1.6
v 0.3 0.2 1.6
v 0.1 0.2 1.6
v -0.0999999 0.2 1.6
v -0.3 0.2 1.6
v -0.5 0.2 1.6
v -0.7 0.2 1.6
v -0.9 0.2 1.6
v -1.1 0.2 1.6
v -1.4 0.2 1.6
v 1.4 0.3 1.6
v -1.4 0.3 1.6
v 1.8 0 1.3
v 1.7 0 1.3
v -1.7 0 1.3
v -1.8 0 1.3
v 1.7 0.1 1.3
v 1.4 0.1 1.3
v -1.4 0.1 1.3
v -1.7 0.1 1.3
v 1.8 0.2 1.3
v 1.4 0.2 1.3
v -1.4 0.2 1.3
v -1.8 0.2 1.3
v 0.9 0.3 1.3
v 0.7 0.3 1.3
v 0.5 0.3 1.3
v 0.3 0.3 1.3
v 0.1 0.3 1.3
v -0.0999999 0.3 1.3
v -0.3 0.3 1.3
v -0.5 0.3 1.3
v -0.7 0.3 1.3
v -0.9 0.3 1.3
v 0.9 0.4 1.3
v 0.7 0.4 1.3
v 0.5 0.4 1.3
v 0.3 0.4 1.3
v 0.1 0.4 1.3
v -0.0999999 0.4 1.3
v -0.3 0.4 1.3
v -0.5 0.4 1.3
v -0.7 0.4 1.3
v -0.9 0.4 1.3
v 0.9 0.5 1.3
v 0.7 0.5 1.3
v 0.5 0.5 1.3
v 0.3 0.5 1.3
v 0.1 0.5 1.3
v -0.0999999 0.5 1.3
v -0.3 0.5 1.3
v -0.5 0.5 1.3
v -0.7 0.5 1.3
v -0.9 0.5 1.3
v 0.8 0.5 1.2
v 0.7 0.5 1.2
v 0.5 0.5 1.2
v 0.3 0.5 1.2
v 0.1 0.5 1.2
v -0.0999999 0.5 1.2
v -0.3 0.5 1.2
v -0.5 0.5 1.2
v -0.7 0.5 1.2
v -0.8 0.5 1.2
v 0.7 0.6 1.2
v 0.6 0.6 1.2
v 0.5 0.6 1.2
v 0.4 0.6 1.2
v 0.2 0.6 1.2
v 0.1 0.6 1.2
v -0.0999999 0.6 1.2
v -0.2 0.6 1.2
v 0.7 0.7 1.2
v 0.6 0.7 1.2
v 0.5 0.7 1.2
v 0.4 0.7 1.2
v 0.4 0.8 1.2
v 0.2 0.8 1.2
v 0.1 0.8 1.2
v -0.0999999 0.8 1.2
v -0.2 0.8 1.2
v -0.4 0.8 1.2
v 0.4 0.9 1.2
v 0.2 0.9 1.2
v 0.1 0.9 1.2
v -0.0999999 0.9 1.2
v -0.2 0.9 1.2
v -0.4 0.9 1.2
v -0.6 1 1.2
v -0.7 1 1.2
v 0.4 1.1 1.2
v 0.2 1.1 1.2
v 0.1 1.1 1.2
v -0.0999999 1.1 1.2
v -0.2 1.1 1.2
v -0.4 1.1 1.2
v -0.6 1.1 1.2
v -0.7 1.1 1.2
v 0.4 1.2 1.2
v 0.2 1.2 1.2
v 0.1 1.2 1.2
v -0.0999999 1.2 1.2
v -0.2 1.2 1.2
v -0.4 1.2 1.2
v -0.6 1.2 1.2
v -0.7 1.2 1.2
v -0.6 1.3 1.2
v -0.7 1.3 1.2
v 0.2 1.4 1.2
v 0.1 1.4 1.2
v -0.0999999 1.4 1.2
v -0.2 1.4 1.2
v 0.8 1.5 1.2
v -0.8 1.5 1.2
v 1.1 0.3 1.1
v 1 0.3 1.1
v 0.9 0.3 1.1
v -0.9 0.3 1.1
v -1 0.3 1.1
v -1.1 0.3 1.1
v 1.1 0.4 1.1
v 1 0.4 1.1
v 0.9 0.4 1.1
v -0.9 0.4 1.1
v -1 0.4 1.1
v -1.1 0.4 1.1
v 1.1 0.5 1.1
v 1 0.5 1.1
v 0.9 0.5 1.1
v -0.9 0.5 1.1
v -1 0.5 1.1
v -1.1 0.5 1.1
v 1 0.5 1
v 0.8 0.5 1
v -0.8 0.5 1
v -1 0.5 1
v 1 1.5 1
v 0.8 1.5 1
v 0.6 1.5 1
v -0.6 1.5 1
v -0.8 1.5 1
v -1 1.5 1
v 0.6 1.6 1
v -0.6 1.6 1
v 1.8 0 0.9
v 1.7 0 0.9
v -1.7 0 0.9
v -1.8 0 0.9
v 1.7 0.1 0.9
v 1.4 0.1 0.9
v -1.4 0.1 0.9
v -1.7 0.1 0.9
v 1.8 0.2 0.9
v 1.4 0.2 0.9
v -1.4 0.2 0.9
v -1.8 0.2 0.9
v 0.8 1.5 0.8
v 0.6 1.5 0.8
v -0.6 1.5 0.8
v -0.8 1.5 0.8
v 0.8 1.6 0.8
v 0.6 1.6 0.8
v -0.6 1.6 0.8
v -0.8 1.6 0.8
v 1.8 0 0.5
v 1.7 0 0.5
v -1.7 0 0.5
v -1.8 0 0.5
v 1.7 0.1 0.5
v 1.4 0.1 0.5
v -1.4 0.1 0.5
v -1.7 0.1 0.5
v 1.8 0.2 0.5
v 1.4 0.2 0.5
v -1.4 0.2 0.5
v -1.8 0.2 0.5
v 1.8 0 0.0999999
v 1.7 0 0.0999999
v -1.7 0 0.0999999
v -1.8 0 0.0999999
v 1.7 0.1 0.0999999
v 1.4 0.1 0.0999999
v -1.4 0.1 0.0999999
v -1.7 0.1 0.0999999
v 1.8 0.2 0.0999999
v 1.4 0.2 0.0999999
v -1.4 0.2 0.0999999
v -1.8 0.2 0.0999999
v 1.8 0 -0.3
v 1.7 0 -0.3
v -1.7 0 -0.3
v -1.8 0 -0.3
v 1.7 0.1 -0.3
v 1.4 0.1 -0.3
v -1.4 0.1 -0.3
v -1.7 0.1 -0.3
v 1.8 0.2 -0.3
v 1.4 0.2 -0.3
v -1.4 0.2 -0.3
v -1.8 0.2 -0.3
v 1.8 0 -0.7
v 1.7 0 -0.7
v -1.7 0 -0.7
v -1.8 0 -0.7
v 1.7 0.1 -0.7
v 1.4 0.1 -0.7
v -1.4 0.1 -0.7
v -1.7 0.1 -0.7
v 1.8 0.2 -0.7
v 1.4 0.2 -0.7
v -1.4 0.2 -0.7
v -1.8 0.2 -0.7
v 1.8 0 -1.1
v 1.7 0 -1.1
v -1.7 0 -1.1
v -1.8 0 -1.1
v 1.7 0.1 -1.1
v 1.4 0.1 -1.1
v -1.4 0.1 -1.1
v -1.7 0.1 -1.1
v 1.8 0.2 -1.1
v 1.4 0.2 -1.1
v -1.4 0.2 -1.1
v -1.8 0.2 -1.1
v 1.8 0 -1.5
v 1.7 0 -1.5
v -1.7 0 -1.5
v -1.8 0 -1.5
v 1.7 0.1 -1.5
v 1.4 0.1 -1.5
v -1.4 0.1 -1.5
v -1.7 0.1 -1.5
v 1.8 0.2 -1.5
v 1.4 0.2 -1.5
v -1.4 0.2 -1.5
v -1.8 0.2 -1.5
v 1.8 0 1.5
v 1.7 0 1.5
v -1.7 0 1.5
v -1.8 0 1.5
v 1.7 0.1 1.5
v 1.4 0.1 1.5
v -1.4 0.1 1.5
v -1.7 0.1 1.5
v 1.8 0.2 1.5
v 1.4 0.2 1.5
v -1.4 0.2 1.5
v -1.8 0.2 1.5
v 1.8 0 1.1
v 1.7 0 1.1
v -1.7 0 1.1
v -1.8 0 1.1
v 1.7 0.1 1.1
v 1.4 0.1 1.1
v -1.4 0.1 1.1
v -1.7 0.1 1.1
v 1.8 0.2 1.1
v 1.4 0.2 1.1
v -1.4 0.2 1.1
v -1.8 0.2 1.1
v 1.8 0 0.7
v 1.7 0 0.7
v -1.7 0 0.7
v -1.8 0 0.7
v 1.7 0.1 0.7
v 1.4 0.1 0.7
v -1.4 0.1 0.7
v -1.7 0.1 0.7
v 1.8 0.2 0.7
v 1.4 0.2 0.7
v -1.4 0.2 0.7
v -1.8 0.2 0.7
v 1.8 0 0.3
v 1.7 0 0.3
v -1.7 0 0.3
v -1.8 0 0.3
v 1.7 0.1 0.3
v 1.4 0.1 0.3
v -1.4 0.1 0.3
v -1.7 0.1 0.3
v 1.8 0.2 0.3
v 1.4 0.2 0.3
v -1.4 0.2 0.3
v -1.8 0.2 0.3
v 1.8 0 -0.1
v 1.7 0 -0.1
v -1.7 0 -0.1
v -1.8 0 -0.1
v 1.7 0.1 -0.1
v 1.4 0.1 -0.1
v -1.4 0.1 -0.1
v -1.7 0.1 -0.1
v 1.8 0.2 -0.1
v 1.4 0.2 -0.1
v -1.4 0.2 -0.1
v -1.8 0.2 -0.1
v 1.8 0 -0.5
v 1.7 0 -0.5
v -1.7 0 -0.5
v -1.8 0 -0.5
v 1.7 0.1 -0.5
v 1.4 0.1 -0.5
v -1.4 0.1 -0.5
v -1.7 0.1 -0.5
v 1.8 0.2 -0.5
v 1.4 0.2 -0.5
v -1.4 0.2 -0.5
v -1.8 0.2 -0.5
v 0.8 1.5 -0.8
v 0.6 1.5 -0.8
v -0.6 1.5 -0.8
v -0.8 1.5 -0.8
v 0.8 1.6 -0.8
v 0.6 1.6 -0.8
v -0.6 1.6 -0.8
v -0.8 1.6 -0.8
v 1.8 0 -0.9
v 1.7 0 -0.9
v -1.7 0 -0.9
v -1.8 0 -0.9
v 1.7 0.1 -0.9
v 1.4 0.1 -0.9
v -1.4 0.1 -0.9
v -1.7 0.1 -0.9
v 1.8 0.2 -0.9
v 1.4 0.2 -0.9
v -1.4 0.2 -0.9
v -1.8 0.2 -0.9
v 1 0.5 -1
v 0.8 0.5 -1
v -0.8 0.5 -1
v -1 0.5 -1
v 1 1.5 -1
v 0.8 1.5 -1
v 0.6 1.5 -1
v -0.6 1.5 -1
v -0.8 1.5 -1
v -1 1.5 -1
v 0.6 1.6 -1
v -0.6 1.6 -1
v 1.1 0.3 -1.1
v 1 0.3 -1.1
v 0.9 0.3 -1.1
v -0.9 0.3 -1.1
v -1 0.3 -1.1
v -1.1 0.3 -1.1
v 1.1 0.4 -1.1
v 1 0.4 -1.1
v 0.9 0.4 -1.1
v -0.9 0.4 -1.1
v -1 0.4 -1.1
v -1.1 0.4 -1.1
v 1.1 0.5 -1.1
v 1 0.5 -1.1
v 0.9 0.5 -1.1
v -0.9 0.5 -1.1
v -1 0.5 -1.1
v -1.1 0.5 -1.1
v 0.8 0.5 -1.2
v 0.7 0.5 -1.2
v 0.5 0.5 -1.2
v 0.3 0.5 -1.2
v 0.1 0.5 -1.2
v -0.0999999 0.5 -1.2
v -0.3 0.5 -1.2
v -0.5 0.5 -1.2
v -0.7 0.5 -1.2
v -0.8 0.5 -1.2
v 0.7 0.6 -1.2
v 0.6 0.6 -1.2
v 0.5 0.6 -1.2
v 0.4 0.6 -1.2
v 0.2 0.6 -1.2
v 0.1 0.6 -1.2
v -0.0999999 0.6 -1.2
v -0.2 0.6 -1.2
v 0.7 0.7 -1.2
v 0.6 0.7 -1.2
v 0.5 0.7 -1.2
v 0.4 0.7 -1.2
v 0.4 0.8 -1.2
v 0.2 0.8 -1.2
v 0.1 0.8 -1.2
v -0.0999999 0.8 -1.2
v -0.2 0.8 -1.2
v -0.4 0.8 -1.2
v 0.4 0.9 -1.2
v 0.2 0.9 -1.2
v 0.1 0.9 -1.2
v -0.0999999 0.9 -1.2
v -0.2 0.9 -1.2
v -0.4 0.9 -1.2
v -0.5 0.9 -1.2
v -0.6 0.9 -1.2
v -0.5 1 -1.2
v -0.6 1 -1.2
v 0.4 1.1 -1.2
v 0.2 1.1 -1.2
v 0.1 1.1 -1.2
v -0.0999999 1.1 -1.2
v -0.2 1.1 -1.2
v -0.4 1.1 -1.2
v -0.5 1.1 -1.2
v -0.6 1.1 -1.2
v 0.4 1.2 -1.2
v 0.2 1.2 -1.2
v 0.1 1.2 -1.2
v -0.0999999 1.2 -1.2
v -0.2 1.2 -1.2
v -0.4 1.2 -1.2
v -0.5 1.3 -1.2
v -0.6 1.3 -1.2
v 0.2 1.4 -1.2
v 0.1 1.4 -1.2
v -0.0999999 1.4 -1.2
v -0.2 1.4 -1.2
v 0.8 1.5 -1.2
v -0.8 1.5 -1.2
v 1.8 0 -1.3
v 1.7 0 -1.3
v -1.7 0 -1.3
v -1.8 0 -1.3
v 1.7 0.1 -1.3
v 1.4 0.1 -1.3
v -1.4 0.1 -1.3
v -1.7 0.1 -1.3
v 1.8 0.2 -1.3
v 1.4 0.2 -1.3
v -1.4 0.2 -1.3
v -1.8 0.2 -1.3
v 0.9 0.3 -1.3
v 0.7 0.3 -1.3
v 0.5 0.3 -1.3
v 0.3 0.3 -1.3
v 0.1 0.3 -1.3
v -0.0999999 0.3 -1.3
v -0.3 0.3 -1.3
v -0.5 0.3 -1.3
v -0.7 0.3 -1.3
v -0.9 0.3 -1.3
v 0.9 0.4 -1.3
v 0.7 0.4 -1.3
v 0.5 0.4 -1.3
v 0.3 0.4 -1.3
v 0.1 0.4 -1.3
v -0.0999999 0.4 -1.3
v -0.3 0.4 -1.3
v -0.5 0.4 -1.3
v -0.7 0.4 -1.3
v -0.9 0.4 -1.3
v 0.9 0.5 -1.3
v 0.7 0.5 -1.3
v 0.5 0.5 -1.3
v 0.3 0.5 -1.3
v 0.1 0.5 -1.3
v -0.0999999 0.5 -1.3
v -0.3 0.5 -1.3
v -0.5 0.5 -1.3
v -0.7 0.5 -1.3
v -0.9 0.5 -1.3
v 1.1 0.1 -1.6
v 0.9 0.1 -1.6
v 0.7 0.1 -1.6
v 0.5 0.1 -1.6
v 0.3 0.1 -1.6
v 0.1 0.1 -1.6
v -0.0999999 0.1 -1.6
v -0.3 0.1 -1.6
v -0.5 0.1 -1.6
v -0.7 0.1 -1.6
v -0.9 0.1 -1.6
v -1.1 0.1 -1.6
v 1.4 0.2 -1.6
v 1.1 0.2 -1.6
v 0.9 0.2 -1.6
v 0.7 0.2 -1.6
v 0.5 0.2 -1.6
v 0.3 0.2 -1.6
v 0.1 0.2 -1.6
v -0.0999999 0.2 -1.6
v -0.3 0.2 -1.6
v -0.5 0.2 -1.6
v -0.7 0.2 -1.6
v -0.9 0.2 -1.6
v -1.1 0.2 -1.6
v -1.4 0.2 -1.6
v 1.4 0.3 -1.6
v -1.4 0.3 -1.6
v 1.8 0.1 -1.7
v 1.3 0.1 -1.7
v -1.3 0.1 -1.7
v -1.8 0.1 -1.7
v 1.8 0.2 -1.7
v 1.3 0.2 -1.7
v -1.3 0.2 -1.7
v -1.8 0.2 -1.7
v 1.8 0 -1.8
v 1.4 0 -1.8
v -1.4 0 -1.8
v -1.8 0 -1.8
v 1.8 0.1 -1.8
v 1.4 0.1 -1.8
v -1.4 0.1 -1.8
v -1.8 0.1 -1.8
v 1.1 0 -1.9
v 0.9 0 -1.9
v 0.7 0 -1.9
v 0.5 0 -1.9
v 0.3 0 -1.9
v 0.1 0 -1.9
v -0.0999999 0 -1.9
v -0.3 0 -1.9
v -0.5 0 -1.9
v -0.7 0 -1.9
v -0.9 0 -1.9
v -1.1 0 -1.9
v 1.1 0.1 -1.9
v 0.9 0.1 -1.9
v 0.7 0.1 -1.9
v 0.5 0.1 -1.9
v 0.3 0.1 -1.9
v 0.1 0.1 -1.9
v -0.0999999 0.1 -1.9
v -0.3 0.1 -1.9
v -0.5 0.1 -1.9
v -0.7 0.1 -1.9
v -0.9 0.1 -1.9
v -1.1 0.1 -1.9
v 1.4 0 -2
v 1.1 0 -2
v 0.9 0 -2
v 0.7 0 -2
v 0.5 0 -2
v 0.3 0 -2
v 0.1 0 -2
v -0.0999999 0 -2
v -0.3 0 -2
v -0.5 0 -2
v -0.7 0 -2
v -0.9 0 -2
v -1.1 0 -2
v -1.4 0 -2
v 1.4 0.1 -2
v 1.3 0.1 -2
v -1.3 0.1 -2
v -1.4 0.1 -2
v 1.3 0.2 -2
v 1.1 0.2 -2
v 0.9 0.2 -2
v 0.7 0.2 -2
v 0.5 0.2 -2
v 0.3 0.2 -2
v 0.1 0.2 -2
v -0.0999999 0.2 -2
v -0.3 0.2 -2
v -0.5 0.2 -2
v -0.7 0.2 -2
v -0.9 0.2 -2
v -1.1 0.2 -2
v -1.3 0.2 -2
v 1.8 0 1.8
v 1.8 0.1 1.8
v 1.8 0.1 1.7
v 1.8 0.2 1.7
v 1.8 0 1.5
v 1.8 0.2 1.5
v 1.8 0 1.3
v 1.8 0.2 1.3
v 1.8 0 1.1
v 1.8 0.2 1.1
v 1.8 0 0.9
v 1.8 0.2 0.9
v 1.8 0 0.7
v 1.8 0.2 0.7
v 1.8 0 0.5
v 1.8 0.2 0.5
v 1.8 0 0.3
v 1.8 0.2 0.3
v 1.8 0 0.0999999
v 1.8 0.2 0.0999999
v 1.8 0 -0.1
v 1.8 0.2 -0.1
v 1.8 0 -0.3
v 1.8 0.2 -0.3
v 1.8 0 -0.5
v 1.8 0.2 -0.5
v 1.8 0 -0.7
v 1.8 0.2 -0.7
v 1.8 0 -0.9
v 1.8 0.2 -0.9
v 1.8 0 -1.1
v 1.8 0.2 -1.1
v 1.8 0 -1.3
v 1.8 0.2 -1.3
v 1.8 0 -1.5
v 1.8 0.2 -1.5
v 1.8 0.1 -1.7
v 1.8 0.2 -1.7
v 1.8 0 -1.8
v 1.8 0.1 -1.8
v 1.7 0 1.5
v 1.7 0.1 1.5
v 1.7 0 1.3
v 1.7 0.1 1.3
v 1.7 0 1.1
v 1.7 0.1 1.1
v 1.7 0 0.9
v 1.7 0.1 0.9
v 1.7 0 0.7
v 1.7 0.1 0.7
v 1.7 0 0.5
v 1.7 0.1 0.5
v 1.7 0 0.3
v 1.7 0.1 0.3
v 1.7 0 0.0999999
v 1.7 0.1 0.0999999
v 1.7 0 -0.1
v 1.7 0.1 -0.1
v 1.7 0 -0.3
v 1.7 0.1 -0.3
v 1.7 0 -0.5
v 1.7 0.1 -0.5
v 1.7 0 -0.7
v 1.7 0.1 -0.7
v 1.7 0 -0.9
v 1.7 0.1 -0.9
v 1.7 0 -1.1
v 1.7 0.1 -1.1
v 1.7 0 -1.3
v 1.7 0.1 -1.3
v 1.7 0 -1.5
v 1.7 0.1 -1.5
v 1.4 0 2
v 1.4 0.1 2
v 1.4 0 1.8
v 1.4 0.1 1.8
v 1.4 0.2 1.6
v 1.4 0.3 1.6
v 1.4 0.1 1.5
v 1.4 0.2 1.5
v 1.4 0.1 1.3
v 1.4 0.2 1.3
v 1.4 0.1 1.1
v 1.4 0.2 1.1
v 1.4 0.1 0.9
v 1.4 0.2 0.9
v 1.4 0.1 0.7
v 1.4 0.2 0.7
v 1.4 0.1 0.5
v 1.4 0.2 0.5
v 1.4 0.1 0.3
v 1.4 0.2 0.3
v 1.4 0.1 0.0999999
v 1.4 0.2 0.0999999
v 1.4 0.1 -0.1
v 1.4 0.2 -0.1
v 1.4 0.1 -0.3
v 1.4 0.2 -0.3
v 1.4 0.1 -0.5
v 1.4 0.2 -0.5
v 1.4 0.1 -0.7
v 1.4 0.2 -0.7
v 1.4 0.1 -0.9
v 1.4 0.2 -0.9
v 1.4 0.1 -1.1
v 1.4 0.2 -1.1
v 1.4 0.1 -1.3
v 1.4 0.2 -1.3
v 1.4 0.1 -1.5
v 1.4 0.2 -1.5
v 1.4 0.2 -1.6
v 1.4 0.3 -1.6
v 1.4 0 -1.8
v 1.4 0.1 -1.8
v 1.4 0 -2
v 1.4 0.1 -2
v 1.3 0.1 2
v 1.3 0.2 2
v 1.3 0.1 1.7
v 1.3 0.2 1.7
v 1.3 0.1 -1.7
v 1.3 0.2 -1.7
v 1.3 0.1 -2
v 1.3 0.2 -2
v 1.1 0.3 1.1
v 1.1 0.4 1.1
v 1.1 0.5 1.1
v 1.1 0.3 0.9
v 1.1 0.4 0.9
v 1.1 0.5 0.9
v 1.1 0.3 0.7
v 1.1 0.4 0.7
v 1.1 0.5 0.7
v 1.1 0.3 0.5
v 1.1 0.4 0.5
v 1.1 0.5 0.5
v 1.1 0.3 0.3
v 1.1 0.4 0.3
v 1.1 0.5 0.3
v 1.1 0.3 0.0999999
v 1.1 0.4 0.0999999
v 1.1 0.5 0.0999999
v 1.1 0.3 -0.1
v 1.1 0.4 -0.1
v 1.1 0.5 -0.1
v 1.1 0.3 -0.3
v 1.1 0.4 -0.3
v 1.1 0.5 -0.3
v 1.1 0.3 -0.5
v 1.1 0.4 -0.5
v 1.1 0.5 -0.5
v 1.1 0.3 -0.7
v 1.1 0.4 -0.7
v 1.1 0.5 -0.7
v 1.1 0.3 -0.9
v 1.1 0.4 -0.9
v 1.1 0.5 -0.9
v 1.1 0.3 -1.1
v 1.1 0.4 -1.1
v 1.1 0.5 -1.1
v 1 0.5 1
v 1 1.5 1
v 1 0.5 0.9
v 1 1.3 0.9
v 1 1.4 0.9
v 1 1 0.8
v 1 1.3 0.8
v 1 1.4 0.8
v 1 0.5 0.7
v 1 1 0.7
v 1 1.3 0.7
v 1 1.4 0.7
v 1 0.5 0.5
v 1 1.3 0.5
v 1 1.4 0.5
v 1 0.8 0.4
v 1 0.9 0.4
v 1 1.1 0.4
v 1 1.2 0.4
v 1 0.5 0.3
v 1 0.6 0.2
v 1 0.8 0.2
v 1 0.9 0.2
v 1 1.1 0.2
v 1 1.2 0.2
v 1 1.4 0.2
v 1 0.5 0.0999999
v 1 0.6 0.0999999
v 1 0.8 0.0999999
v 1 0.9 0.0999999
v 1 1.1 0.0999999
v 1 1.2 0.0999999
v 1 1.4 0.0999999
v 1 0.5 -0.1
v 1 0.6 -0.1
v 1 0.8 -0.1
v 1 0.9 -0.1
v 1 1.1 -0.1
v 1 1.2 -0.1
v 1 1.4 -0.1
v 1 0.6 -0.2
v 1 0.8 -0.2
v 1 0.9 -0.2
v 1 1.1 -0.2
v 1 1.2 -0.2
v 1 1.4 -0.2
v 1 0.5 -0.3
v 1 0.8 -0.4
v 1 0.9 -0.4
v 1 1.1 -0.4
v 1 1.2 -0.4
v 1 0.5 -0.5
v 1 0.7 -0.5
v 1 0.8 -0.5
v 1 0.5 -0.7
v 1 0.6 -0.7
v 1 0.7 -0.7
v 1 0.8 -0.7
v 1 1.1 -0.7
v 1 0.6 -0.8
v 1 0.7 -0.8
v 1 0.8 -0.8
v 1 1.1 -0.8
v 1 0.5 -0.9
v 1 0.5 -1
v 1 1.5 -1
v 0.9 0 2
v 0.9 0.2 2
v 0.9 0 1.9
v 0.9 0.1 1.9
v 0.9 0.1 1.6
v 0.9 0.2 1.6
v 0.9 0.3 1.3
v 0.9 0.4 1.3
v 0.9 0.5 1.3
v 0.9 0.3 1.2
v 0.9 0.4 1.2
v 0.9 0.5 1.2
v 0.9 0.3 1.1
v 0.9 0.4 1.1
v 0.9 0.5 1.1
v 0.9 0.3 -1.1
v 0.9 0.4 -1.1
v 0.9 0.5 -1.1
v 0.9 0.3 -1.2
v 0.9 0.4 -1.2
v 0.9 0.5 -1.2
v 0.9 0.3 -1.3
v 0.9 0.4 -1.3
v 0.9 0.5 -1.3
v 0.9 0.1 -1.6
v 0.9 0.2 -1.6
v 0.9 0 -1.9
v 0.9 0.1 -1.9
v 0.9 0 -2
v 0.9 0.2 -2
v 0.8 0.5 1.2
v 0.8 1.5 1.2
v 0.8 0.5 1
v 0.8 1.5 1
v 0.8 1.5 0.8
v 0.8 1.6 0.8
v 0.8 1.5 -0.8
v 0.8 1.6 -0.8
v 0.8 0.5 -1
v 0.8 1.5 -1
v 0.8 0.5 -1.2
v 0.8 1.5 -1.2
v 0.6 1.5 1
v 0.6 1.6 1
v 0.6 1.5 0.8
v 0.6 1.6 0.8
v 0.6 1.5 -0.8
v 0.6 1.6 -0.8
v 0.6 1.5 -1
v 0.6 1.6 -1
v 0.5 0 2
v 0.5 0.2 2
v 0.5 0 1.9
v 0.5 0.1 1.9
v 0.5 0.1 1.6
v 0.5 0.2 1.6
v 0.5 0.1 -1.6
v 0.5 0.2 -1.6
v 0.5 0 -1.9
v 0.5 0.1 -1.9
v 0.5 0 -2
v 0.5 0.2 -2
v 0.1 0 2
v 0.1 0.2 2
v 0.1 0 1.9
v 0.1 0.1 1.9
v 0.1 0.1 1.6
v 0.1 0.2 1.6
v 0.1 0.1 -1.6
v 0.1 0.2 -1.6
v 0.1 0 -1.9
v 0.1 0.1 -1.9
v 0.1 0 -2
v 0.1 0.2 -2
v -0.3 0 2
v -0.3 0.2 2
v -0.3 0 1.9
v -0.3 0.1 1.9
v -0.3 0.1 1.6
v -0.3 0.2 1.6
v -0.3 0.1 -1.6
v -0.3 0.2 -1.6
v -0.3 0 -1.9
v -0.3 0.1 -1.9
v -0.3 0 -2
v -0.3 0.2 -2
v -0.7 0 2
v -0.7 0.2 2
v -0.7 0 1.9
v -0.7 0.1 1.9
v -0.7 0.1 1.6
v -0.7 0.2 1.6
v -0.7 0.1 -1.6
v -0.7 0.2 -1.6
v -0.7 0 -1.9
v -0.7 0.1 -1.9
v -0.7 0 -2
v -0.7 0.2 -2
v -1.1 0 2
v -1.1 0.2 2
v -1.1 0 1.9
v -1.1 0.1 1.9
v -1.1 0.1 1.6
v -1.1 0.2 1.6
v -1.1 0.1 -1.6
v -1.1 0.2 -1.6
v -1.1 0 -1.9
v -1.1 0.1 -1.9
v -1.1 0 -2
v -1.1 0.2 -2
v 1.1 0 2
v 1.1 0.2 2
v 1.1 0 1.9
v 1.1 0.1 1.9
v 1.1 0.1 1.6
v 1.1 0.2 1.6
v 1.1 0.1 -1.6
v 1.1 0.2 -1.6
v 1.1 0 -1.9
v 1.1 0.1 -1.9
v 1.1 0 -2
v 1.1 0.2 -2
v 0.7 0 2
v 0.7 0.2 2
v 0.7 0 1.9
v 0.7 0.1 1.9
v 0.7 0.1 1.6
v 0.7 0.2 1.6
v 0.7 0.1 -1.6
v 0.7 0.2 -1.6
v 0.7 0 -1.9
v 0.7 0.1 -1.9
v 0.7 0 -2
v 0.7 0.2 -2
v 0.3 0 2
v 0.3 0.2 2
v 0.3 0 1.9
v 0.3 0.1 1.9
v 0.3 0.1 1.6
v 0.3 0.2 1.6
v 0.3 0.1 -1.6
v 0.3 0.2 -1.6
v 0.3 0 -1.9
v 0.3 0.1 -1.9
v 0.3 0 -2
v 0.3 0.2 -2
v -0.0999999 0 2
v -0.0999999 0.2 2
v -0.0999999 0 1.9
v -0.0999999 0.1 1.9
v -0.0999999 0.1 1.6
v -0.0999999 0.2 1.6
v -0.0999999 0.1 -1.6
v -0.0999999 0.2 -1.6
v -0.0999999 0 -1.9
v -0.0999999 0.1 -1.9
v -0.0999999 0 -2
v -0.0999999 0.2 -2
v -0.5 0 2
v -0.5 0.2 2
v -0.5 0 1.9
v -0.5 0.1 1.9
v -0.5 0.1 1.6
v -0.5 0.2 1.6
v -0.5 0.1 -1.6
v -0.5 0.2 -1.6
v -0.5 0 -1.9
v -0.5 0.1 -1.9
v -0.5 0 -2
v -0.5 0.2 -2
v -0.6 1.5 1
v -0.6 1.6 1
v -0.6 1.5 0.8
v -0.6 1.6 0.8
v -0.6 1.5 -0.8
v -0.6 1.6 -0.8
v -0.6 1.5 -1
v -0.6 1.6 -1
v -0.8 0.5 1.2
v -0.8 1.5 1.2
v -0.8 0.5 1
v -0.8 1.5 1
v -0.8 1.5 0.8
v -0.8 1.6 0.8
v -0.8 1.5 -0.8
v -0.8 1.6 -0.8
v -0.8 0.5 -1
v -0.8 1.5 -1
v -0.8 0.5 -1.2
v -0.8 1.5 -1.2
v -0.9 0 2
v -0.9 0.2 2
v -0.9 0 1.9
v -0.9 0.1 1.9
v -0.9 0.1 1.6
v -0.9 0.2 1.6
v -0.9 0.3 1.3
v -0.9 0.4 1.3
v -0.9 0.5 1.3
v -0.9 0.3 1.2
v -0.9 0.4 1.2
v -0.9 0.5 1.2
v -0.9 0.3 1.1
v -0.9 0.4 1.1
v -0.9 0.5 1.1
v -0.9 0.3 -1.1
v -0.9 0.4 -1.1
v -0.9 0.5 -1.1
v -0.9 0.3 -1.2
v -0.9 0.4 -1.2
v -0.9 0.5 -1.2
v -0.9 0.3 -1.3
v -0.9 0.4 -1.3
v -0.9 0.5 -1.3
v -0.9 0.1 -1.6
v -0.9 0.2 -1.6
v -0.9 0 -1.9
v -0.9 0.1 -1.9
v -0.9 0 -2
v -0.9 0.2 -2
v -1 0.5 1
v -1 1.5 1
v -1 0.5 0.9
v -1 0.6 0.9
v -1 0.7 0.9
v -1 0.6 0.8
v -1 0.7 0.8
v -1 1 0.8
v -1 0.5 0.7
v -1 0.6 0.7
v -1 0.7 0.7
v -1 1 0.7
v -1 0.5 0.5
v -1 0.6 0.5
v -1 0.7 0.5
v -1 0.8 0.4
v -1 0.9 0.4
v -1 1.1 0.4
v -1 1.2 0.4
v -1 0.5 0.3
v -1 0.6 0.2
v -1 0.8 0.2
v -1 0.9 0.2
v -1 1.1 0.2
v -1 1.2 0.2
v -1 1.4 0.2
v -1 0.5 0.0999999
v -1 0.6 0.0999999
v -1 0.8 0.0999999
v -1 0.9 0.0999999
v -1 1.1 0.0999999
v -1 1.2 0.0999999
v -1 1.4 0.0999999
v -1 0.5 -0.1
v -1 0.6 -0.1
v -1 0.8 -0.1
v -1 0.9 -0.1
v -1 1.1 -0.1
v -1 1.2 -0.1
v -1 1.4 -0.1
v -1 0.6 -0.2
v -1 0.8 -0.2
v -1 0.9 -0.2
v -1 1.1 -0.2
v -1 1.2 -0.2
v -1 1.4 -0.2
v -1 0.5 -0.3
v -1 0.8 -0.4
v -1 0.9 -0.4
v -1 1.1 -0.4
v -1 1.2 -0.4
v -1 0.5 -0.5
v -1 0.5 -0.7
v -1 0.9 -0.7
v -1 1.1 -0.7
v -1 1.2 -0.7
v -1 1.3 -0.7
v -1 0.9 -0.8
v -1 1.1 -0.8
v -1 1.2 -0.8
v -1 1.3 -0.8
v -1 0.5 -0.9
v -1 0.5 -1
v -1 1.5 -1
v -1.1 0.3 1.1
v -1.1 0.4 1.1
v -1.1 0.5 1.1
v -1.1 0.3 0.9
v -1.1 0.4 0.9
v -1.1 0.5 0.9
v -1.1 0.3 0.7
v -1.1 0.4 0.7
v -1.1 0.5 0.7
v -1.1 0.3 0.5
v -1.1 0.4 0.5
v -1.1 0.5 0.5
v -1.1 0.3 0.3
v -1.1 0.4 0.3
v -1.1 0.5 0.3
v -1.1 0.3 0.0999999
v -1.1 0.4 0.0999999
v -1.1 0.5 0.0999999
v -1.1 0.3 -0.1
v -1.1 0.4 -0.1
v -1.1 0.5 -0.1
v -1.1 0.3 -0.3
v -1.1 0.4 -0.3
v -1.1 0.5 -0.3
v -1.1 0.3 -0.5
v -1.1 0.4 -0.5
v -1.1 0.5 -0.5
v -1.1 0.3 -0.7
v -1.1 0.4 -0.7
v -1.1 0.5 -0.7
v -1.1 0.3 -0.9
v -1.1 0.4 -0.9
v -1.1 0.5 -0.9
v -1.1 0.3 -1.1
v -1.1 0.4 -1.1
v -1.1 0.5 -1.1
v -1.3 0.1 2
v -1.3 0.2 2
v -1.3 0.1 1.7
v -1.3 0.2 1.7
v -1.3 0.1 -1.7
v -1.3 0.2 -1.7
v -1.3 0.1 -2
v -1.3 0.2 -2
v -1.4 0 2
v -1.4 0.1 2
v -1.4 0 1.8
v -1.4 0.1 1.8
v -1.4 0.2 1.6
v -1.4 0.3 1.6
v -1.4 0.1 1.5
v -1.4 0.2 1.5
v -1.4 0.1 1.3
v -1.4 0.2 1.3
v -1.4 0.1 1.1
v -1.4 0.2 1.1
v -1.4 0.1 0.9
v -1.4 0.2 0.9
v -1.4 0.1 0.7
v -1.4 0.2 0.7
v -1.4 0.1 0.5
v -1.4 0.2 0.5
v -1.4 0.1 0.3
v -1.4 0.2 0.3
v -1.4 0.1 0.0999999
v -1.4 0.2 0.0999999
v -1.4 0.1 -0.1
v -1.4 0.2 -0.1
v -1.4 0.1 -0.3
v -1.4 0.2 -0.3
v -1.4 0.1 -0.5
v -1.4 0.2 -0.5
v -1.4 0.1 -0.7
v -1.4 0.2 -0.7
v -1.4 0.1 -0.9
v -1.4 0.2 -0.9
v -1.4 0.1 -1.1
v -1.4 0.2 -1.1
v -1.4 0.1 -1.3
v -1.4 0.2 -1.3
v -1.4 0.1 -1.5
v -1.4 0.2 -1.5
v -1.4 0.2 -1.6
v -1.4 0.3 -1.6
v -1.4 0 -1.8
v -1.4 0.1 -1.8
v -1.4 0 -2
v -1.4 0.1 -2
v -1.7 0 1.5
v -1.7 0.1 1.5
v -1.7 0 1.3
v -1.7 0.1 1.3
v -1.7 0 1.1
v -1.7 0.1 1.1
v -1.7 0 0.9
v -1.7 0.1 0.9
v -1.7 0 0.7
v -1.7 0.1 0.7
v -1.7 0 0.5
v -1.7 0.1 0.5
v -1.7 0 0.3
v -1.7 0.1 0.3
v -1.7 0 0.0999999
v -1.7 0.1 0.0999999
v -1.7 0 -0.1
v -1.7 0.1 -0.1
v -1.7 0 -0.3
v -1.7 0.1 -0.3
v -1.7 0 -0.5
v -1.7 0.1 -0.5
v -1.7 0 -0.7
v -1.7 0.1 -0.7
v -1.7 0 -0.9
v -1.7 0.1 -0.9
v -1.7 0 -1.1
v -1.7 0.1 -1.1
v -1.7 0 -1.3
v -1.7 0.1 -1.3
v -1.7 0 -1.5
v -1.7 0.1 -1.5
v -1.8 0 1.8
v -1.8 0.1 1.8
v -1.8 0.1 1.7
v -1.8 0.2 1.7
v -1.8 0 1.5
v -1.8 0.2 1.5
v -1.8 0 1.3
v -1.8 0.2 1.3
v -1.8 0 1.1
v -1.8 0.2 1.1
v -1.8 0 0.9
v -1.8 0.2 0.9
v -1.8 0 0.7
v -1.8 0.2 0.7
v -1.8 0 0.5
v -1.8 0.2 0.5
v -1.8 0 0.3
v -1.8 0.2 0.3
v -1.8 0 0.0999999
v -1.8 0.2 0.0999999
v -1.8 0 -0.1
v -1.8 0.2 -0.1
v -1.8 0 -0.3
v -1.8 0.2 -0.3
v -1.8 0 -0.5
v -1.8 0.2 -0.5
v -1.8 0 -0.7
v -1.8 0.2 -0.7
v -1.8 0 -0.9
v -1.8 0.2 -0.9
v -1.8 0 -1.1
v -1.8 0.2 -1.1
v -1.8 0 -1.3
v -1.8 0.2 -1.3
v -1.8 0 -1.5
v -1.8 0.2 -1.5
v -1.8 0.1 -1.7
v -1.8 0.2 -1.7
v -1.8 0 -1.8
v -1.8 0.1 -1.8
v 1.8 0 1.8
v 1.8 0 1.5
v 1.8 0 1.3
v 1.8 0 1.1
v 1.8 0 0.9
v 1.8 0 0.7
v 1.8 0 0.5
v 1.8 0 0.3
v 1.8 0 0.0999999
v 1.8 0 -0.1
v 1.8 0 -0.3
v 1.8 0 -0.5
v 1.8 0 -0.7
v 1.8 0 -0.9
v 1.8 0 -1.1
v 1.8 0 -1.3
v 1.8 0 -1.5
v 1.8 0 -1.8
v 1.7 0 1.5
v 1.7 0 1.3
v 1.7 0 1.1
v 1.7 0 0.9
v 1.7 0 0.7
v 1.7 0 0.5
v 1.7 0 0.3
v 1.7 0 0.0999999
v 1.7 0 -0.1
v 1.7 0 -0.3
v 1.7 0 -0.5
v 1.7 0 -0.7
v 1.7 0 -0.9
v 1.7 0 -1.1
v 1.7 0 -1.3
v 1.7 0 -1.5
v 1.4 0 2
v 1.4 0 1.8
v 1.4 0 -1.8
v 1.4 0 -2
v 1.1 0 2
v 1.1 0 1.9
v 1.1 0 -1.9
v 1.1 0 -2
v 0.9 0 2
v 0.9 0 1.9
v 0.9 0 -1.9
v 0.9 0 -2
v 0.7 0 2
v 0.7 0 1.9
v 0.7 0 -1.9
v 0.7 0 -2
v 0.5 0 2
v 0.5 0 1.9
v 0.5 0 -1.9
v 0.5 0 -2
v 0.3 0 2
v 0.3 0 1.9
v 0.3 0 -1.9
v 0.3 0 -2
v 0.1 0 2
v 0.1 0 1.9
v 0.1 0 -1.9
v 0.1 0 -2
v -0.0999999 0 2
v -0.0999999 0 1.9
v -0.0999999 0 -1.9
v -0.0999999 0 -2
v -0.3 0 2
v -0.3 0 1.9
v -0.3 0 -1.9
v -0.3 0 -2
v -0.5 0 2
v -0.5 0 1.9
v -0.5 0 -1.9
v -0.5 0 -2
v -0.7 0 2
v -0.7 0 1.9
v -0.7 0 -1.9
v -0.7 0 -2
v -0.9 0 2
v -0.9 0 1.9
v -0.9 0 -1.9
v -0.9 0 -2
v -1.1 0 2
v -1.1 0 1.9
v -1.1 0 -1.9
v -1.1 0 -2
v -1.4 0 2
v -1.4 0 1.8
v -1.4 0 -1.8
v -1.4 0 -2
v -1.7 0 1.5
v -1.7 0 1.3
v -1.7 0 1.1
v -1.7 0 0.9
v -1.7 0 0.7
v -1.7 0 0.5
v -1.7 0 0.3
v -1.7 0 0.0999999
v -1.7 0 -0.1
v -1.7 0 -0.3
v -1.7 0 -0.5
v -1.7 0 -0.7
v -1.7 0 -0.9
v -1.7 0 -1.1
v -1.7 0 -1.3
v -1.7 0 -1.5
v -1.8 0 1.8
v -1.8 0 1.5
v -1.8 0 1.3
v -1.8 0 1.1
v -1.8 0 0.9
v -1.8 0 0.7
v -1.8 0 0.5
v -1.8 0 0.3
v -1.8 0 0.0999999
v -1.8 0 -0.1
v -1.8 0 -0.3
v -1.8 0 -0.5
v -1.8 0 -0.7
v -1.8 0 -0.9
v -1.8 0 -1.1
v -1.8 0 -1.3
v -1.8 0 -1.5
v -1.8 0 -1.8
v 1.8 0.1 1.8
v 1.8 0.1 1.7
v 1.8 0.1 -1.7
v 1.8 0.1 -1.8
v 1.7 0.1 1.5
v 1.7 0.1 1.3
v 1.7 0.1 1.1
v 1.7 0.1 0.9
v 1.7 0.1 0.7
v 1.7 0.1 0.5
v 1.7 0.1 0.3
v 1.7 0.1 0.0999999
v 1.7 0.1 -0.1
v 1.7 0.1 -0.3
v 1.7 0.1 -0.5
v 1.7 0.1 -0.7
v 1.7 0.1 -0.9
v 1.7 0.1 -1.1
v 1.7 0.1 -1.3
v 1.7 0.1 -1.5
v 1.4 0.1 2
v 1.4 0.1 1.8
v 1.4 0.1 1.5
v 1.4 0.1 1.3
v 1.4 0.1 1.1
v 1.4 0.1 0.9
v 1.4 0.1 0.7
v 1.4 0.1 0.5
v 1.4 0.1 0.3
v 1.4 0.1 0.0999999
v 1.4 0.1 -0.1
v 1.4 0.1 -0.3
v 1.4 0.1 -0.5
v 1.4 0.1 -0.7
v 1.4 0.1 -0.9
v 1.4 0.1 -1.1
v 1.4 0.1 -1.3
v 1.4 0.1 -1.5
v 1.4 0.1 -1.8
v 1.4 0.1 -2
v 1.3 0.1 2
v 1.3 0.1 1.7
v 1.3 0.1 -1.7
v 1.3 0.1 -2
v 1.1 0.1 1.9
v 1.1 0.1 1.6
v 1.1 0.1 -1.6
v 1.1 0.1 -1.9
v 0.9 0.1 1.9
v 0.9 0.1 1.6
v 0.9 0.1 -1.6
v 0.9 0.1 -1.9
v 0.7 0.1 1.9
v 0.7 0.1 1.6
v 0.7 0.1 -1.6
v 0.7 0.1 -1.9
v 0.5 0.1 1.9
v 0.5 0.1 1.6
v 0.5 0.1 -1.6
v 0.5 0.1 -1.9
v 0.3 0.1 1.9
v 0.3 0.1 1.6
v 0.3 0.1 -1.6
v 0.3 0.1 -1.9
v 0.1 0.1 1.9
v 0.1 0.1 1.6
v 0.1 0.1 -1.6
v 0.1 0.1 -1.9
v -0.0999999 0.1 1.9
v -0.0999999 0.1 1.6
v -0.0999999 0.1 -1.6
v -0.0999999 0.1 -1.9
v -0.3 0.1 1.9
v -0.3 0.1 1.6
v -0.3 0.1 -1.6
v -0.3 0.1 -1.9
v -0.5 0.1 1.9
v -0.5 0.1 1.6
v -0.5 0.1 -1.6
v -0.5 0.1 -1.9
v -0.7 0.1 1.9
v -0.7 0.1 1.6
v -0.7 0.1 -1.6
v -0.7 0.1 -1.9
v -0.9 0.1 1.9
v -0.9 0.1 1.6
v -0.9 0.1 -1.6
v -0.9 0.1 -1.9
v -1.1 0.1 1.9
v -1.1 0.1 1.6
v -1.1 0.1 -1.6
v -1.1 0.1 -1.9
v -1.3 0.1 2
v -1.3 0.1 1.7
v -1.3 0.1 -1.7
v -1.3 0.1 -2
v -1.4 0.1 2
v -1.4 0.1 1.8
v -1.4 0.1 1.5
v -1.4 0.1 1.3
v -1.4 0.1 1.1
v -1.4 0.1 0.9
v -1.4 0.1 0.7
v -1.4 0.1 0.5
v -1.4 0.1 0.3
v -1.4 0.1 0.0999999
v -1.4 0.1 -0.1
v -1.4 0.1 -0.3
v -1.4 0.1 -0.5
v -1.4 0.1 -0.7
v -1.4 0.1 -0.9
v -1.4 0.1 -1.1
v -1.4 0.1 -1.3
v -1.4 0.1 -1.5
v -1.4 0.1 -1.8
v -1.4 0.1 -2
v -1.7 0.1 1.5
v -1.7 0.1 1.3
v -1.7 0.1 1.1
v -1.7 0.1 0.9
v -1.7 0.1 0.7
v -1.7 0.1 0.5
v -1.7 0.1 0.3
v -1.7 0.1 0.0999999
v -1.7 0.1 -0.1
v -1.7 0.1 -0.3
v -1.7 0.1 -0.5
v -1.7 0.1 -0.7
v -1.7 0.1 -0.9
v -1.7 0.1 -1.1
v -1.7 0.1 -1.3
v -1.7 0.1 -1.5
v -1.8 0.1 1.8
v -1.8 0.1 1.7
v -1.8 0.1 -1.7
v -1.8 0.1 -1.8
v 1.8 0.2 1.7
v 1.8 0.2 1.5
v 1.8 0.2 1.3
v 1.8 0.2 1.1
v 1.8 0.2 0.9
v 1.8 0.2 0.7
v 1.8 0.2 0.5
v 1.8 0.2 0.3
v 1.8 0.2 0.0999999
v 1.8 0.2 -0.1
v 1.8 0.2 -0.3
v 1.8 0.2 -0.5
v 1.8 0.2 -0.7
v 1.8 0.2 -0.9
v 1.8 0.2 -1.1
v 1.8 0.2 -1.3
v 1.8 0.2 -1.5
v 1.8 0.2 -1.7
v 1.4 0.2 1.6
v 1.4 0.2 1.5
v 1.4 0.2 1.3
v 1.4 0.2 1.1
v 1.4 0.2 0.9
v 1.4 0.2 0.7
v 1.4 0.2 0.5
v 1.4 0.2 0.3
v 1.4 0.2 0.0999999
v 1.4 0.2 -0.1
v 1.4 0.2 -0.3
v 1.4 0.2 -0.5
v 1.4 0.2 -0.7
v 1.4 0.2 -0.9
v 1.4 0.2 -1.1
v 1.4 0.2 -1.3
v 1.4 0.2 -1.5
v 1.4 0.2 -1.6
v 1.3 0.2 2
v 1.3 0.2 1.7
v 1.3 0.2 -1.7
v 1.3 0.2 -2
v 1.1 0.2 2
v 1.1 0.2 1.6
v 1.1 0.2 -1.6
v 1.1 0.2 -2
v 0.9 0.2 2
v 0.9 0.2 1.6
v 0.9 0.2 -1.6
v 0.9 0.2 -2
v 0.7 0.2 2
v 0.7 0.2 1.6
v 0.7 0.2 -1.6
v 0.7 0.2 -2
v 0.5 0.2 2
v 0.5 0.2 1.6
v 0.5 0.2 -1.6
v 0.5 0.2 -2
v 0.3 0.2 2
v 0.3 0.2 1.6
v 0.3 0.2 -1.6
v 0.3 0.2 -2
v 0.1 0.2 2
v 0.1 0.2 1.6
v 0.1 0.2 -1.6
v 0.1 0.2 -2
v -0.0999999 0.2 2
v -0.0999999 0.2 1.6
v -0.0999999 0.2 -1.6
v -0.0999999 0.2 -2
v -0.3 0.2 2
v -0.3 0.2 1.6
v -0.3 0.2 -1.6
v -0.3 0.2 -2
v -0.5 0.2 2
v -0.5 0.2 1.6
v -0.5 0.2 -1.6
v -0.5 0.2 -2
v -0.7 0.2 2
v -0.7 0.2 1.6
v -0.7 0.2 -1.6
v -0.7 0.2 -2
v -0.9 0.2 2
v -0.9 0.2 1.6
v -0.9 0.2 -1.6
v -0.9 0.2 -2
v -1.1 0.2 2
v -1.1 0.2 1.6
v -1.1 0.2 -1.6
v -1.1 0.2 -2
v -1.3 0.2 2
v -1.3 0.2 1.7
v -1.3 0.2 -1.7
v -1.3 0.2 -2
v -1.4 0.2 1.6
v -1.4 0.2 1.5
v -1.4 0.2 1.3
v -1.4 0.2 1.1
v -1.4 0.2 0.9
v -1.4 0.2 0.7
v -1.4 0.2 0.5
v -1.4 0.2 0.3
v -1.4 0.2 0.0999999
v -1.4 0.2 -0.1
v -1.4 0.2 -0.3
v -1.4 0.2 -0.5
v -1.4 0.2 -0.7
v -1.4 0.2 -0.9
v -1.4 0.2 -1.1
v -1.4 0.2 -1.3
v -1.4 0.2 -1.5
v -1.4 0.2 -1.6
v -1.8 0.2 1.7
v -1.8 0.2 1.5
v -1.8 0.2 1.3
v -1.8 0.2 1.1
v -1.8 0.2 0.9
v -1.8 0.2 0.7
v -1.8 0.2 0.5
v -1.8 0.2 0.3
v -1.8 0.2 0.0999999
v -1.8 0.2 -0.1
v -1.8 0.2 -0.3
v -1.8 0.2 -0.5
v -1.8 0.2 -0.7
v -1.8 0.2 -0.9
v -1.8 0.2 -1.1
v -1.8 0.2 -1.3
v -1.8 0.2 -1.5
v -1.8 0.2 -1.7
v 1.4 0.3 1.6
v 1.4 0.3 -1.6
v 1.3 0.3 1.5
v 1.3 0.3 1.4
v 1.3 0.3 1
v 1.3 0.3 -1
v 1.3 0.3 -1.4
v 1.3 0.3 -1.5
v 1.2 0.3 1.5
v 1.2 0.3 1.4
v 1.2 0.3 1
v 1.2 0.3 -1
v 1.2 0.3 -1.4
v 1.2 0.3 -1.5
v 1.1 0.3 1.1
v 1.1 0.3 0.9
v 1.1 0.3 0.7
v 1.1 0.3 0.5
v 1.1 0.3 0.3
v 1.1 0.3 0.0999999
v 1.1 0.3 -0.1
v 1.1 0.3 -0.3
v 1.1 0.3 -0.5
v 1.1 0.3 -0.7
v 1.1 0.3 -0.9
v 1.1 0.3 -1.1
v 1 0.3 1.1
v 1 0.3 -1.1
v 0.9 0.3 1.3
v 0.9 0.3 1.2
v 0.9 0.3 1.1
v 0.9 0.3 -1.1
v 0.9 0.3 -1.2
v 0.9 0.3 -1.3
v 0.8 0.3 1.5
v 0.8 0.3 1.4
v 0.8 0.3 -1.4
v 0.8 0.3 -1.5
v 0.7 0.3 1.3
v 0.7 0.3 -1.3
v 0.5 0.3 1.3
v 0.5 0.3 -1.3
v 0.3 0.3 1.3
v 0.3 0.3 -1.3
v 0.1 0.3 1.3
v 0.1 0.3 -1.3
v -0.0999999 0.3 1.3
v -0.0999999 0.3 -1.3
v -0.3 0.3 1.3
v -0.3 0.3 -1.3
v -0.5 0.3 1.3
v -0.5 0.3 -1.3
v -0.7 0.3 1.3
v -0.7 0.3 -1.3
v -0.8 0.3 1.5
v -0.8 0.3 1.4
v -0.8 0.3 -1.4
v -0.8 0.3 -1.5
v -0.9 0.3 1.3
v -0.9 0.3 1.2
v -0.9 0.3 1.1
v -0.9 0.3 -1.1
v -0.9 0.3 -1.2
v -0.9 0.3 -1.3
v -1 0.3 1.1
v -1 0.3 -1.1
v -1.1 0.3 1.1
v -1.1 0.3 0.9
v -1.1 0.3 0.7
v -1.1 0.3 0.5
v -1.1 0.3 0.3
v -1.1 0.3 0.0999999
v -1.1 0.3 -0.1
v -1.1 0.3 -0.3
v -1.1 0.3 -0.5
v -1.1 0.3 -0.7
v -1.1 0.3 -0.9
v -1.1 0.3 -1.1
v -1.2 0.3 1.5
v -1.2 0.3 1.4
v -1.2 0.3 1
v -1.2 0.3 -1
v -1.2 0.3 -1.4
v -1.2 0.3 -1.5
v -1.3 0.3 1.5
v -1.3 0.3 1.4
v -1.3 0.3 1
v -1.3 0.3 -1
v -1.3 0.3 -1.4
v -1.3 0.3 -1.5
v -1.4 0.3 1.6
v -1.4 0.3 -1.6
v 1.1 0.5 1.1
v 1.1 0.5 0.9
v 1.1 0.5 0.7
v 1.1 0.5 0.5
v 1.1 0.5 0.3
v 1.1 0.5 0.0999999
v 1.1 0.5 -0.1
v 1.1 0.5 -0.3
v 1.1 0.5 -0.5
v 1.1 0.5 -0.7
v 1.1 0.5 -0.9
v 1.1 0.5 -1.1
v 1 0.5 1.1
v 1 0.5 1
v 1 0.5 0.9
v 1 0.5 0.7
v 1 0.5 0.5
v 1 0.5 0.3
v 1 0.5 0.0999999
v 1 0.5 -0.1
v 1 0.5 -0.3
v 1 0.5 -0.5
v 1 0.5 -0.7
v 1 0.5 -0.9
v 1 0.5 -1
v 1 0.5 -1.1
v 0.9 0.5 1.3
v 0.9 0.5 1.2
v 0.9 0.5 1.1
v 0.9 0.5 -1.1
v 0.9 0.5 -1.2
v 0.9 0.5 -1.3
v 0.8 0.5 1.2
v 0.8 0.5 1
v 0.8 0.5 -1
v 0.8 0.5 -1.2
v 0.7 0.5 1.3
v 0.7 0.5 1.2
v 0.7 0.5 -1.2
v 0.7 0.5 -1.3
v 0.5 0.5 1.3
v 0.5 0.5 1.2
v 0.5 0.5 -1.2
v 0.5 0.5 -1.3
v 0.3 0.5 1.3
v 0.3 0.5 1.2
v 0.3 0.5 -1.2
v 0.3 0.5 -1.3
v 0.1 0.5 1.3
v 0.1 0.5 1.2
v 0.1 0.5 -1.2
v 0.1 0.5 -1.3
v -0.0999999 0.5 1.3
v -0.0999999 0.5 1.2
v -0.0999999 0.5 -1.2
v -0.0999999 0.5 -1.3
v -0.3 0.5 1.3
v -0.3 0.5 1.2
v -0.3 0.5 -1.2
v -0.3 0.5 -1.3
v -0.5 0.5 1.3
v -0.5 0.5 1.2
v -0.5 0.5 -1.2
v -0.5 0.5 -1.3
v -0.7 0.5 1.3
v -0.7 0.5 1.2
v -0.7 0.5 -1.2
v -0.7 0.5 -1.3
v -0.8 0.5 1.2
v -0.8 0.5 1
v -0.8 0.5 -1
v -0.8 0.5 -1.2
v -0.9 0.5 1.3
v -0.9 0.5 1.2
v -0.9 0.5 1.1
v -0.9 0.5 -1.1
v -0.9 0.5 -1.2
v -0.9 0.5 -1.3
v -1 0.5 1.1
v -1 0.5 1
v -1 0.5 0.9
v -1 0.5 0.7
v -1 0.5 0.5
v -1 0.5 0.3
v -1 0.5 0.0999999
v -1 0.5 -0.1
v -1 0.5 -0.3
v -1 0.5 -0.5
v -1 0.5 -0.7
v -1 0.5 -0.9
v -1 0.5 -1
v -1 0.5 -1.1
v -1.1 0.5 1.1
v -1.1 0.5 0.9
v -1.1 0.5 0.7
v -1.1 0.5 0.5
v -1.1 0.5 0.3
v -1.1 0.5 0.0999999
v -1.1 0.5 -0.1
v -1.1 0.5 -0.3
v -1.1 0.5 -0.5
v -1.1 0.5 -0.7
v -1.1 0.5 -0.9
v -1.1 0.5 -1.1
v 1 1.5 1
v 1 1.5 -1
v 0.8 1.5 1.2
v 0.8 1.5 1
v 0.8 1.5 0.8
v 0.8 1.5 -0.8
v 0.8 1.5 -1
v 0.8 1.5 -1.2
v 0.6 1.5 1
v 0.6 1.5 0.8
v 0.6 1.5 -0.8
v 0.6 1.5 -1
v -0.6 1.5 1
v -0.6 1.5 0.8
v -0.6 1.5 -0.8
v -0.6 1.5 -1
v -0.8 1.5 1.2
v -0.8 1.5 1
v -0.8 1.5 0.8
v -0.8 1.5 -0.8
v -0.8 1.5 -1
v -0.8 1.5 -1.2
v -1 1.5 1
v -1 1.5 -1
v 0.8 1.6 0.8
v 0.8 1.6 -0.8
v 0.6 1.6 1
v 0.6 1.6 0.8
v 0.6 1.6 -0.6
v 0.6 1.6 -0.7
v 0.6 1.6 -0.8
v 0.6 1.6 -1
v 0.4 1.6 0.2
v 0.4 1.6 0.0999999
v 0.4 1.6 -0.1
v 0.4 1.6 -0.2
v 0.4 1.6 -0.4
v 0.4 1.6 -0.6
v 0.4 1.6 -0.7
v 0.4 1.6 -0.9
v 0.3 1.6 -0.4
v 0.3 1.6 -0.6
v 0.3 1.6 -0.7
v 0.3 1.6 -0.9
v 0.2 1.6 0.4
v 0.2 1.6 0.2
v 0.2 1.6 0.0999999
v 0.2 1.6 -0.1
v 0.2 1.6 -0.2
v 0.2 1.6 -0.4
v 0.1 1.6 0.4
v 0.1 1.6 0.2
v 0.1 1.6 0.0999999
v 0.1 1.6 -0.1
v 0.1 1.6 -0.2
v 0.1 1.6 -0.4
v 1.19209e-07 1.6 -0.6
v 1.19209e-07 1.6 -0.7
v -0.0999999 1.6 0.7
v -0.0999999 1.6 0.6
v -0.0999999 1.6 0.4
v -0.0999999 1.6 0.2
v -0.0999999 1.6 0.0999999
v -0.0999999 1.6 -0.1
v -0.0999999 1.6 -0.2
v -0.0999999 1.6 -0.4
v -0.2 1.6 0.4
v -0.2 1.6 0.2
v -0.2 1.6 0.0999999
v -0.2 1.6 -0.1
v -0.2 1.6 -0.2
v -0.2 1.6 -0.4
v -0.4 1.6 0.2
v -0.4 1.6 0.0999999
v -0.4 1.6 -0.1
v -0.4 1.6 -0.2
v -0.5 1.6 0.7
v -0.5 1.6 0.6
v -0.5 1.6 0.3
v -0.6 1.6 1
v -0.6 1.6 0.8
v -0.6 1.6 0.7
v -0.6 1.6 0.6
v -0.6 1.6 0.3
v -0.6 1.6 -0.8
v -0.6 1.6 -1
v -0.8 1.6 0.8
v -0.8 1.6 -0.8

# faces
f 15/4/1 2/4/1 1/4/1
f 16/4/1 2/4/1 15/4/1
f 17/4/1 14/4/1 13/4/1
f 18/4/1 14/4/1 17/4/1
f 19/4/1 2/4/1 16/4/1
f 20/4/1 2/4/1 19/4/1
f 21/4/1 4/4/1 3/4/1
f 22/4/1 4/4/1 21/4/1
f 23/4/1 6/4/1 5/4/1
f 24/4/1 6/4/1 23/4/1
f 25/4/1 8/4/1 7/4/1
f 26/4/1 8/4/1 25/4/1
f 27/4/1 10/4/1 9/4/1
f 28/4/1 10/4/1 27/4/1
f 29/4/1 12/4/1 11/4/1
f 30/4/1 12/4/1 29/4/1
f 31/4/1 17/4/1 13/4/1
f 32/4/1 17/4/1 31/4/1
f 45/4/1 34/4/1 33/4/1
f 46/4/1 34/4/1 45/4/1
f 47/4/1 36/4/1 35/4/1
f 48/4/1 36/4/1 47/4/1
f 49/4/1 38/4/1 37/4/1
f 50/4/1 38/4/1 49/4/1
f 51/4/1 40/4/1 39/4/1
f 52/4/1 40/4/1 51/4/1
f 53/4/1 42/4/1 41/4/1
f 54/4/1 42/4/1 53/4/1
f 55/4/1 44/4/1 43/4/1
f 56/4/1 44/4/1 55/4/1
f 61/4/1 58/4/1 57/4/1
f 62/4/1 58/4/1 61/4/1
f 63/4/1 60/4/1 59/4/1
f 64/4/1 60/4/1 63/4/1
f 69/4/1 66/4/1 65/4/1
f 70/4/1 66/4/1 69/4/1
f 71/4/1 68/4/1 67/4/1
f 72/4/1 68/4/1 71/4/1
f 86/4/1 74/4/1 73/4/1
f 87/4/1 74/4/1 86/4/1
f 88/4/1 76/4/1 75/4/1
f 89/4/1 76/4/1 88/4/1
f 90/4/1 78/4/1 77/4/1
f 91/4/1 78/4/1 90/4/1
f 92/4/1 80/4/1 79/4/1
f 93/4/1 80/4/1 92/4/1
f 94/4/1 82/4/1 81/4/1
f 95/4/1 82/4/1 94/4/1
f 96/4/1 84/4/1 83/4/1
f 97/4/1 84/4/1 96/4/1
f 99/4/1 95/4/1 94/4/1
f 99/4/1 98/4/1 97/4/1
f 99/4/1 97/4/1 96/4/1
f 99/4/1 96/4/1 95/4/1
f 99/4/1 87/4/1 86/4/1
f 99/4/1 94/4/1 93/4/1
f 99/4/1 89/4/1 88/4/1
f 99/4/1 92/4/1 91/4/1
f 99/4/1 91/4/1 90/4/1
f 99/4/1 90/4/1 89/4/1
f 99/4/1 93/4/1 92/4/1
f 99/4/1 88/4/1 87/4/1
f 99/4/1 86/4/1 85/4/1
f 100/4/1 98/4/1 99/4/1
f 105/4/1 102/4/1 101/4/1
f 108/4/1 104/4/1 103/4/1
f 109/4/1 106/4/1 105/4/1
f 109/4/1 105/4/1 101/4/1
f 110/4/1 106/4/1 109/4/1
f 111/4/1 108/4/1 107/4/1
f 112/4/1 104/4/1 108/4/1
f 112/4/1 108/4/1 111/4/1
f 123/5/1 114/5/1 113/5/1
f 124/2/1 115/2/1 114/2/1
f 124/5/1 114/5/1 123/5/1
f 125/5/1 116/5/1 115/5/1
f 125/2/1 115/2/1 124/2/1
f 126/2/1 117/2/1 116/2/1
f 126/5/1 116/5/1 125/5/1
f 127/5/1 118/5/1 117/5/1
f 127/2/1 117/2/1 126/2/1
f 128/2/1 119/2/1 118/2/1
f 128/5/1 118/5/1 127/5/1
f 129/5/1 120/5/1 119/5/1
f 129/2/1 119/2/1 128/2/1
f 130/2/1 121/2/1 120/2/1
f 130/5/1 120/5/1 129/5/1
f 131/5/1 122/5/1 121/5/1
f 131/2/1 121/2/1 130/2/1
f 132/5/1 122/5/1 131/5/1
f 133/6/1 124/6/1 123/6/1
f 134/7/1 125/7/1 124/7/1
f 134/6/1 124/6/1 133/6/1
f 135/6/1 126/6/1 125/6/1
f 135/7/1 125/7/1 134/7/1
f 136/7/1 127/7/1 126/7/1
f 136/6/1 126/6/1 135/6/1
f 137/6/1 128/6/1 127/6/1
f 137/7/1 127/7/1 136/7/1
f 138/7/1 129/7/1 128/7/1
f 138/6/1 128/6/1 137/6/1
f 139/6/1 130/6/1 129/6/1
f 139/7/1 129/7/1 138/7/1
f 140/7/1 131/7/1 130/7/1
f 140/6/1 130/6/1 139/6/1
f 141/6/1 132/6/1 131/6/1
f 141/7/1 131/7/1 140/7/1
f 142/6/1 132/6/1 141/6/1
f 153/4/1 144/4/1 143/4/1
f 153/4/1 152/4/1 151/4/1
f 153/4/1 151/4/1 150/4/1
f 153/4/1 150/4/1 149/4/1
f 153/4/1 149/4/1 148/4/1
f 153/4/1 148/4/1 147/4/1
f 153/4/1 147/4/1 146/4/1
f 153/4/1 146/4/1 145/4/1
f 153/4/1 145/4/1 144/4/1
f 154/4/1 152/4/1 153/4/1
f 155/4/1 152/4/1 154/4/1
f 156/4/1 152/4/1 155/4/1
f 157/4/1 152/4/1 156/4/1
f 158/4/1 152/4/1 157/4/1
f 159/4/1 152/4/1 158/4/1
f 160/4/1 152/4/1 159/4/1
f 161/4/1 153/4/1 143/4/1
f 161/3/1 154/3/1 153/3/1
f 162/1/1 155/1/1 154/1/1
f 162/3/1 154/3/1 161/3/1
f 163/3/1 156/3/1 155/3/1
f 163/1/1 155/1/1 162/1/1
f 164/4/1 157/4/1 156/4/1
f 164/3/1 156/3/1 163/3/1
f 165/4/1 162/4/1 161/4/1
f 165/4/1 157/4/1 164/4/1
f 165/4/1 164/4/1 163/4/1
f 165/4/1 163/4/1 162/4/1
f 166/3/1 158/3/1 157/3/1
f 166/4/1 157/4/1 165/4/1
f 167/4/1 159/4/1 158/4/1
f 167/3/1 158/3/1 166/3/1
f 168/3/1 160/3/1 159/3/1
f 168/4/1 159/4/1 167/4/1
f 169/4/1 152/4/1 160/4/1
f 169/3/1 160/3/1 168/3/1
f 170/4/1 152/4/1 169/4/1
f 171/3/1 166/3/1 165/3/1
f 171/4/1 165/4/1 161/4/1
f 172/1/1 167/1/1 166/1/1
f 172/3/1 166/3/1 171/3/1
f 173/3/1 168/3/1 167/3/1
f 173/1/1 167/1/1 172/1/1
f 174/1/1 169/1/1 168/1/1
f 174/3/1 168/3/1 173/3/1
f 175/3/1 170/3/1 169/3/1
f 175/1/1 169/1/1 174/1/1
f 176/4/1 152/4/1 170/4/1
f 176/3/1 170/3/1 175/3/1
f 177/4/1 176/4/1 175/4/1
f 177/4/1 152/4/1 176/4/1
f 178/4/1 152/4/1 177/4/1
f 179/4/1 172/4/1 171/4/1
f 179/4/1 171/4/1 161/4/1
f 180/3/1 173/3/1 172/3/1
f 180/4/1 172/4/1 179/4/1
f 181/4/1 174/4/1 173/4/1
f 181/3/1 173/3/1 180/3/1
f 182/3/1 175/3/1 174/3/1
f 182/4/1 174/4/1 181/4/1
f 183/4/1 177/4/1 175/4/1
f 183/3/1 175/3/1 182/3/1
f 184/4/1 177/4/1 183/4/1
f 185/3/1 178/3/1 177/3/1
f 185/4/1 177/4/1 184/4/1
f 186/4/1 152/4/1 178/4/1
f 186/3/1 178/3/1 185/3/1
f 187/3/1 180/3/1 179/3/1
f 187/4/1 179/4/1 161/4/1
f 188/1/1 181/1/1 180/1/1
f 188/3/1 180/3/1 187/3/1
f 189/3/1 182/3/1 181/3/1
f 189/1/1 181/1/1 188/1/1
f 190/1/1 183/1/1 182/1/1
f 190/3/1 182/3/1 189/3/1
f 191/3/1 184/3/1 183/3/1
f 191/1/1 183/1/1 190/1/1
f 192/4/1 185/4/1 184/4/1
f 192/3/1 184/3/1 191/3/1
f 193/1/1 186/1/1 185/1/1
f 193/4/1 185/4/1 192/4/1
f 194/4/1 152/4/1 186/4/1
f 194/1/1 186/1/1 193/1/1
f 195/4/1 193/4/1 192/4/1
f 195/4/1 192/4/1 191/4/1
f 195/3/1 194/3/1 193/3/1
f 196/4/1 152/4/1 194/4/1
f 196/3/1 194/3/1 195/3/1
f 197/3/1 189/3/1 188/3/1
f 197/4/1 188/4/1 187/4/1
f 198/4/1 190/4/1 189/4/1
f 198/3/1 189/3/1 197/3/1
f 199/3/1 191/3/1 190/3/1
f 199/4/1 190/4/1 198/4/1
f 200/4/1 195/4/1 191/4/1
f 200/3/1 191/3/1 199/3/1
f 200/4/1 196/4/1 195/4/1
f 201/4/1 198/4/1 197/4/1
f 201/4/1 197/4/1 187/4/1
f 201/4/1 200/4/1 199/4/1
f 201/4/1 161/4/1 143/4/1
f 201/4/1 199/4/1 198/4/1
f 201/4/1 187/4/1 161/4/1
f 202/4/1 196/4/1 200/4/1
f 202/4/1 200/4/1 201/4/1
f 202/4/1 152/4/1 196/4/1
f 209/5/1 204/5/1 203/5/1
f 210/2/1 205/2/1 204/2/1
f 210/5/1 204/5/1 209/5/1
f 211/2/1 205/2/1 210/2/1
f 212/2/1 207/2/1 206/2/1
f 213/5/1 208/5/1 207/5/1
f 213/2/1 207/2/1 212/2/1
f 214/5/1 208/5/1 213/5/1
f 215/6/1 210/6/1 209/6/1
f 216/7/1 211/7/1 210/7/1
f 216/6/1 210/6/1 215/6/1
f 217/7/1 211/7/1 216/7/1
f 218/7/1 213/7/1 212/7/1
f 219/6/1 214/6/1 213/6/1
f 219/7/1 213/7/1 218/7/1
f 220/6/1 214/6/1 219/6/1
f 225/4/1 222/4/1 221/4/1
f 226/4/1 222/4/1 225/4/1
f 229/4/1 224/4/1 223/4/1
f 230/4/1 224/4/1 229/4/1
f 231/4/1 228/4/1 227/4/1
f 232/4/1 228/4/1 231/4/1
f 237/4/1 234/4/1 233/4/1
f 240/4/1 236/4/1 235/4/1
f 241/4/1 238/4/1 237/4/1
f 241/4/1 237/4/1 233/4/1
f 242/4/1 238/4/1 241/4/1
f 243/4/1 240/4/1 239/4/1
f 244/4/1 236/4/1 240/4/1
f 244/4/1 240/4/1 243/4/1
f 249/4/1 246/4/1 245/4/1
f 250/4/1 246/4/1 249/4/1
f 251/4/1 248/4/1 247/4/1
f 252/4/1 248/4/1 251/4/1
f 257/4/1 254/4/1 253/4/1
f 260/4/1 256/4/1 255/4/1
f 261/4/1 258/4/1 257/4/1
f 261/4/1 257/4/1 253/4/1
f 262/4/1 258/4/1 261/4/1
f 263/4/1 260/4/1 259/4/1
f 264/4/1 256/4/1 260/4/1
f 264/4/1 260/4/1 263/4/1
f 269/4/1 266/4/1 265/4/1
f 272/4/1 268/4/1 267/4/1
f 273/4/1 270/4/1 269/4/1
f 273/4/1 269/4/1 265/4/1
f 274/4/1 270/4/1 273/4/1
f 275/4/1 272/4/1 271/4/1
f 276/4/1 268/4/1 272/4/1
f 276/4/1 272/4/1 275/4/1
f 281/4/1 278/4/1 277/4/1
f 284/4/1 280/4/1 279/4/1
f 285/4/1 282/4/1 281/4/1
f 285/4/1 281/4/1 277/4/1
f 286/4/1 282/4/1 285/4/1
f 287/4/1 284/4/1 283/4/1
f 288/4/1 280/4/1 284/4/1
f 288/4/1 284/4/1 287/4/1
f 293/4/1 290/4/1 289/4/1
f 296/4/1 292/4/1 291/4/1
f 297/4/1 294/4/1 293/4/1
f 297/4/1 293/4/1 289/4/1
f 298/4/1 294/4/1 297/4/1
f 299/4/1 296/4/1 295/4/1
f 300/4/1 292/4/1 296/4/1
f 300/4/1 296/4/1 299/4/1
f 305/4/1 302/4/1 301/4/1
f 308/4/1 304/4/1 303/4/1
f 309/4/1 306/4/1 305/4/1
f 309/4/1 305/4/1 301/4/1
f 310/4/1 306/4/1 309/4/1
f 311/4/1 308/4/1 307/4/1
f 312/4/1 304/4/1 308/4/1
f 312/4/1 308/4/1 311/4/1
f 317/4/1 314/4/1 313/4/1
f 320/4/1 316/4/1 315/4/1
f 321/4/1 318/4/1 317/4/1
f 321/4/1 317/4/1 313/4/1
f 322/4/1 318/4/1 321/4/1
f 323/4/1 320/4/1 319/4/1
f 324/4/1 316/4/1 320/4/1
f 324/4/1 320/4/1 323/4/1
f 325/4/2 326/4/2 329/4/2
f 327/4/2 328/4/2 332/4/2
f 329/4/2 330/4/2 333/4/2
f 325/4/2 329/4/2 333/4/2
f 333/4/2 330/4/2 334/4/2
f 331/4/2 332/4/2 335/4/2
f 332/4/2 328/4/2 336/4/2
f 335/4/2 332/4/2 336/4/2
f 337/4/2 338/4/2 341/4/2
f 339/4/2 340/4/2 344/4/2
f 341/4/2 342/4/2 345/4/2
f 337/4/2 341/4/2 345/4/2
f 345/4/2 342/4/2 346/4/2
f 343/4/2 344/4/2 347/4/2
f 344/4/2 340/4/2 348/4/2
f 347/4/2 344/4/2 348/4/2
f 349/4/2 350/4/2 353/4/2
f 351/4/2 352/4/2 356/4/2
f 353/4/2 354/4/2 357/4/2
f 349/4/2 353/4/2 357/4/2
f 357/4/2 354/4/2 358/4/2
f 355/4/2 356/4/2 359/4/2
f 356/4/2 352/4/2 360/4/2
f 359/4/2 356/4/2 360/4/2
f 361/4/2 362/4/2 365/4/2
f 363/4/2 364/4/2 368/4/2
f 365/4/2 366/4/2 369/4/2
f 361/4/2 365/4/2 369/4/2
f 369/4/2 366/4/2 370/4/2
f 367/4/2 368/4/2 371/4/2
f 368/4/2 364/4/2 372/4/2
f 371/4/2 368/4/2 372/4/2
f 373/4/2 374/4/2 377/4/2
f 375/4/2 376/4/2 380/4/2
f 377/4/2 378/4/2 381/4/2
f 373/4/2 377/4/2 381/4/2
f 381/4/2 378/4/2 382/4/2
f 379/4/2 380/4/2 383/4/2
f 380/4/2 376/4/2 384/4/2
f 383/4/2 380/4/2 384/4/2
f 385/4/2 386/4/2 389/4/2
f 387/4/2 388/4/2 392/4/2
f 389/4/2 390/4/2 393/4/2
f 385/4/2 389/4/2 393/4/2
f 393/4/2 390/4/2 394/4/2
f 391/4/2 392/4/2 395/4/2
f 392/4/2 388/4/2 396/4/2
f 395/4/2 392/4/2 396/4/2
f 397/4/2 398/4/2 401/4/2
f 401/4/2 398/4/2 402/4/2
f 399/4/2 400/4/2 403/4/2
f 403/4/2 400/4/2 404/4/2
f 405/4/2 406/4/2 409/4/2
f 407/4/2 408/4/2 412/4/2
f 409/4/2 410/4/2 413/4/2
f 405/4/2 409/4/2 413/4/2
f 413/4/2 410/4/2 414/4/2
f 411/4/2 412/4/2 415/4/2
f 412/4/2 408/4/2 416/4/2
f 415/4/2 412/4/2 416/4/2
f 417/4/2 418/4/2 421/4/2
f 421/4/2 418/4/2 422/4/2
f 419/4/2 420/4/2 425/4/2
f 425/4/2 420/4/2 426/4/2
f 423/4/2 424/4/2 427/4/2
f 427/4/2 424/4/2 428/4/2
f 429/5/2 430/5/2 435/5/2
f 430/2/2 431/2/2 436/2/2
f 435/5/2 430/5/2 436/5/2
f 436/2/2 431/2/2 437/2/2
f 432/2/2 433/2/2 438/2/2
f 433/5/2 434/5/2 439/5/2
f 438/2/2 433/2/2 439/2/2
f 439/5/2 434/5/2 440/5/2
f 435/6/2 436/6/2 441/6/2
f 436/7/2 437/7/2 442/7/2
f 441/6/2 436/6/2 442/6/2
f 442/7/2 437/7/2 443/7/2
f 438/7/2 439/7/2 444/7/2
f 439/6/2 440/6/2 445/6/2
f 444/7/2 439/7/2 445/7/2
f 445/6/2 440/6/2 446/6/2
f 447/4/2 448/4/2 457/4/2
f 455/4/2 456/4/2 457/4/2
f 454/4/2 455/4/2 457/4/2
f 453/4/2 454/4/2 457/4/2
f 452/4/2 453/4/2 457/4/2
f 451/4/2 452/4/2 457/4/2
f 450/4/2 451/4/2 457/4/2
f 449/4/2 450/4/2 457/4/2
f 448/4/2 449/4/2 457/4/2
f 457/4/2 456/4/2 458/4/2
f 458/4/2 456/4/2 459/4/2
f 459/4/2 456/4/2 460/4/2
f 460/4/2 456/4/2 461/4/2
f 461/4/2 456/4/2 462/4/2
f 462/4/2 456/4/2 463/4/2
f 463/4/2 456/4/2 464/4/2
f 447/4/2 457/4/2 465/4/2
f 457/3/2 458/3/2 465/3/2
f 458/1/2 459/1/2 466/1/2
f 465/3/2 458/3/2 466/3/2
f 459/3/2 460/3/2 467/3/2
f 466/1/2 459/1/2 467/1/2
f 460/4/2 461/4/2 468/4/2
f 467/3/2 460/3/2 468/3/2
f 465/4/2 466/4/2 469/4/2
f 468/4/2 461/4/2 469/4/2
f 467/4/2 468/4/2 469/4/2
f 466/4/2 467/4/2 469/4/2
f 461/3/2 462/3/2 470/3/2
f 469/4/2 461/4/2 470/4/2
f 462/4/2 463/4/2 471/4/2
f 470/3/2 462/3/2 471/3/2
f 463/3/2 464/3/2 472/3/2
f 471/4/2 463/4/2 472/4/2
f 464/4/2 456/4/2 473/4/2
f 472/3/2 464/3/2 473/3/2
f 473/4/2 456/4/2 474/4/2
f 469/3/2 470/3/2 475/3/2
f 465/4/2 469/4/2 475/4/2
f 470/1/2 471/1/2 476/1/2
f 475/3/2 470/3/2 476/3/2
f 471/3/2 472/3/2 477/3/2
f 476/1/2 471/1/2 477/1/2
f 472/1/2 473/1/2 478/1/2
f 477/3/2 472/3/2 478/3/2
f 473/3/2 474/3/2 479/3/2
f 478/1/2 473/1/2 479/1/2
f 474/4/2 456/4/2 480/4/2
f 479/3/2 474/3/2 480/3/2
f 480/4/2 456/4/2 481/4/2
f 481/4/2 456/4/2 482/4/2
f 479/4/2 480/4/2 483/4/2
f 480/4/2 481/4/2 483/4/2
f 481/3/2 482/3/2 483/3/2
f 482/4/2 456/4/2 484/4/2
f 483/3/2 482/3/2 484/3/2
f 475/4/2 476/4/2 485/4/2
f 465/4/2 475/4/2 485/4/2
f 476/3/2 477/3/2 486/3/2
f 485/4/2 476/4/2 486/4/2
f 477/4/2 478/4/2 487/4/2
f 486/3/2 477/3/2 487/3/2
f 478/3/2 479/3/2 488/3/2
f 487/4/2 478/4/2 488/4/2
f 479/4/2 483/4/2 489/4/2
f 488/3/2 479/3/2 489/3/2
f 489/4/2 483/4/2 490/4/2
f 483/1/2 484/1/2 491/1/2
f 490/4/2 483/4/2 491/4/2
f 484/4/2 456/4/2 492/4/2
f 491/1/2 484/1/2 492/1/2
f 485/3/2 486/3/2 493/3/2
f 465/4/2 485/4/2 493/4/2
f 486/1/2 487/1/2 494/1/2
f 493/3/2 486/3/2 494/3/2
f 487/3/2 488/3/2 495/3/2
f 494/1/2 487/1/2 495/1/2
f 488/1/2 489/1/2 496/1/2
f 495/3/2 488/3/2 496/3/2
f 489/3/2 490/3/2 497/3/2
f 496/1/2 489/1/2 497/1/2
f 490/4/2 491/4/2 498/4/2
f 497/3/2 490/3/2 498/3/2
f 491/3/2 492/3/2 499/3/2
f 498/4/2 491/4/2 499/4/2
f 497/4/2 498/4/2 499/4/2
f 492/4/2 456/4/2 500/4/2
f 499/3/2 492/3/2 500/3/2
f 494/3/2 495/3/2 501/3/2
f 493/4/2 494/4/2 501/4/2
f 495/4/2 496/4/2 502/4/2
f 501/3/2 495/3/2 502/3/2
f 496/3/2 497/3/2 503/3/2
f 502/4/2 496/4/2 503/4/2
f 497/4/2 499/4/2 504/4/2
f 503/3/2 497/3/2 504/3/2
f 499/4/2 500/4/2 504/4/2
f 501/4/2 502/4/2 505/4/2
f 493/4/2 501/4/2 505/4/2
f 503/4/2 504/4/2 505/4/2
f 447/4/2 465/4/2 505/4/2
f 502/4/2 503/4/2 505/4/2
f 465/4/2 493/4/2 505/4/2
f 504/4/2 500/4/2 506/4/2
f 505/4/2 504/4/2 506/4/2
f 500/4/2 456/4/2 506/4/2
f 507/4/2 508/4/2 511/4/2
f 509/4/2 510/4/2 514/4/2
f 511/4/2 512/4/2 515/4/2
f 507/4/2 511/4/2 515/4/2
f 515/4/2 512/4/2 516/4/2
f 513/4/2 514/4/2 517/4/2
f 514/4/2 510/4/2 518/4/2
f 517/4/2 514/4/2 518/4/2
f 519/5/2 520/5/2 529/5/2
f 520/2/2 521/2/2 530/2/2
f 529/5/2 520/5/2 530/5/2
f 521/5/2 522/5/2 531/5/2
f 530/2/2 521/2/2 531/2/2
f 522/2/2 523/2/2 532/2/2
f 531/5/2 522/5/2 532/5/2
f 523/5/2 524/5/2 533/5/2
f 532/2/2 523/2/2 533/2/2
f 524/2/2 525/2/2 534/2/2
f 533/5/2 524/5/2 534/5/2
f 525/5/2 526/5/2 535/5/2
f 534/2/2 525/2/2 535/2/2
f 526/2/2 527/2/2 536/2/2
f 535/5/2 526/5/2 536/5/2
f 527/5/2 528/5/2 537/5/2
f 536/2/2 527/2/2 537/2/2
f 537/5/2 528/5/2 538/5/2
f 529/6/2 530/6/2 539/6/2
f 530/7/2 531/7/2 540/7/2
f 539/6/2 530/6/2 540/6/2
f 531/6/2 532/6/2 541/6/2
f 540/7/2 531/7/2 541/7/2
f 532/7/2 533/7/2 542/7/2
f 541/6/2 532/6/2 542/6/2
f 533/6/2 534/6/2 543/6/2
f 542/7/2 533/7/2 543/7/2
f 534/7/2 535/7/2 544/7/2
f 543/6/2 534/6/2 544/6/2
f 535/6/2 536/6/2 545/6/2
f 544/7/2 535/7/2 545/7/2
f 536/7/2 537/7/2 546/7/2
f 545/6/2 536/6/2 546/6/2
f 537/6/2 538/6/2 547/6/2
f 546/7/2 537/7/2 547/7/2
f 547/6/2 538/6/2 548/6/2
f 549/4/2 550/4/2 562/4/2
f 562/4/2 550/4/2 563/4/2
f 551/4/2 552/4/2 564/4/2
f 564/4/2 552/4/2 565/4/2
f 553/4/2 554/4/2 566/4/2
f 566/4/2 554/4/2 567/4/2
f 555/4/2 556/4/2 568/4/2
f 568/4/2 556/4/2 569/4/2
f 557/4/2 558/4/2 570/4/2
f 570/4/2 558/4/2 571/4/2
f 559/4/2 560/4/2 572/4/2
f 572/4/2 560/4/2 573/4/2
f 570/4/2 571/4/2 575/4/2
f 573/4/2 574/4/2 575/4/2
f 572/4/2 573/4/2 575/4/2
f 571/4/2 572/4/2 575/4/2
f 562/4/2 563/4/2 575/4/2
f 569/4/2 570/4/2 575/4/2
f 564/4/2 565/4/2 575/4/2
f 567/4/2 568/4/2 575/4/2
f 566/4/2 567/4/2 575/4/2
f 565/4/2 566/4/2 575/4/2
f 568/4/2 569/4/2 575/4/2
f 563/4/2 564/4/2 575/4/2
f 561/4/2 562/4/2 575/4/2
f 575/4/2 574/4/2 576/4/2
f 577/4/2 578/4/2 581/4/2
f 581/4/2 578/4/2 582/4/2
f 579/4/2 580/4/2 583/4/2
f 583/4/2 580/4/2 584/4/2
f 585/4/2 586/4/2 589/4/2
f 589/4/2 586/4/2 590/4/2
f 587/4/2 588/4/2 591/4/2
f 591/4/2 588/4/2 592/4/2
f 593/4/2 594/4/2 605/4/2
f 605/4/2 594/4/2 606/4/2
f 595/4/2 596/4/2 607/4/2
f 607/4/2 596/4/2 608/4/2
f 597/4/2 598/4/2 609/4/2
f 609/4/2 598/4/2 610/4/2
f 599/4/2 600/4/2 611/4/2
f 611/4/2 600/4/2 612/4/2
f 601/4/2 602/4/2 613/4/2
f 613/4/2 602/4/2 614/4/2
f 603/4/2 604/4/2 615/4/2
f 615/4/2 604/4/2 616/4/2
f 617/4/2 618/4/2 631/4/2
f 631/4/2 618/4/2 632/4/2
f 629/4/2 630/4/2 633/4/2
f 633/4/2 630/4/2 634/4/2
f 632/4/2 618/4/2 635/4/2
f 635/4/2 618/4/2 636/4/2
f 619/4/2 620/4/2 637/4/2
f 637/4/2 620/4/2 638/4/2
f 621/4/2 622/4/2 639/4/2
f 639/4/2 622/4/2 640/4/2
f 623/4/2 624/4/2 641/4/2
f 641/4/2 624/4/2 642/4/2
f 625/4/2 626/4/2 643/4/2
f 643/4/2 626/4/2 644/4/2
f 627/4/2 628/4/2 645/4/2
f 645/4/2 628/4/2 646/4/2
f 629/4/2 633/4/2 647/4/2
f 647/4/2 633/4/2 648/4/2
f 651/4/3 650/4/3 649/4/3
f 653/4/3 651/4/3 649/4/3
f 653/4/3 652/4/3 651/4/3
f 654/4/3 652/4/3 653/4/3
f 657/4/3 656/4/3 655/4/3
f 658/4/3 656/4/3 657/4/3
f 661/4/3 660/4/3 659/4/3
f 662/4/3 660/4/3 661/4/3
f 665/4/3 664/4/3 663/4/3
f 666/4/3 664/4/3 665/4/3
f 669/4/3 668/4/3 667/4/3
f 670/4/3 668/4/3 669/4/3
f 673/4/3 672/4/3 671/4/3
f 674/4/3 672/4/3 673/4/3
f 677/4/3 676/4/3 675/4/3
f 678/4/3 676/4/3 677/4/3
f 681/4/3 680/4/3 679/4/3
f 682/4/3 680/4/3 681/4/3
f 685/4/3 684/4/3 683/4/3
f 686/4/3 684/4/3 685/4/3
f 687/4/3 685/4/3 683/4/3
f 688/4/3 685/4/3 687/4/3
f 691/4/3 690/4/3 689/4/3
f 692/4/3 690/4/3 691/4/3
f 695/4/3 694/4/3 693/4/3
f 696/4/3 694/4/3 695/4/3
f 699/4/3 698/4/3 697/4/3
f 700/4/3 698/4/3 699/4/3
f 703/4/3 702/4/3 701/4/3
f 704/4/3 702/4/3 703/4/3
f 707/4/3 706/4/3 705/4/3
f 708/4/3 706/4/3 707/4/3
f 711/4/3 710/4/3 709/4/3
f 712/4/3 710/4/3 711/4/3
f 715/4/3 714/4/3 713/4/3
f 716/4/3 714/4/3 715/4/3
f 719/4/3 718/4/3 717/4/3
f 720/4/3 718/4/3 719/4/3
f 723/4/3 722/4/3 721/4/3
f 724/4/3 722/4/3 723/4/3
f 728/4/3 726/4/3 725/4/3
f 729/4/3 728/4/3 727/4/3
f 730/4/3 726/4/3 728/4/3
f 730/4/3 728/4/3 729/4/3
f 732/4/3 726/4/3 730/4/3
f 733/4/3 732/4/3 731/4/3
f 734/4/3 726/4/3 732/4/3
f 734/4/3 732/4/3 733/4/3
f 736/4/3 726/4/3 734/4/3
f 737/4/3 736/4/3 735/4/3
f 738/4/3 726/4/3 736/4/3
f 738/4/3 736/4/3 737/4/3
f 740/4/3 726/4/3 738/4/3
f 741/4/3 740/4/3 739/4/3
f 742/4/3 726/4/3 740/4/3
f 742/4/3 740/4/3 741/4/3
f 744/4/3 726/4/3 742/4/3
f 745/4/3 744/4/3 743/4/3
f 746/4/3 726/4/3 744/4/3
f 746/4/3 744/4/3 745/4/3
f 748/4/3 726/4/3 746/4/3
f 749/4/3 748/4/3 747/4/3
f 750/4/3 726/4/3 748/4/3
f 750/4/3 748/4/3 749/4/3
f 752/4/3 726/4/3 750/4/3
f 753/4/3 752/4/3 751/4/3
f 754/4/3 726/4/3 752/4/3
f 754/4/3 752/4/3 753/4/3
f 756/4/3 726/4/3 754/4/3
f 757/4/3 756/4/3 755/4/3
f 758/4/3 726/4/3 756/4/3
f 758/4/3 756/4/3 757/4/3
f 759/4/3 726/4/3 758/4/3
f 760/4/3 726/4/3 759/4/3
f 763/4/3 762/4/3 761/4/3
f 764/4/3 762/4/3 763/4/3
f 767/4/3 766/4/3 765/4/3
f 768/4/3 766/4/3 767/4/3
f 771/4/3 770/4/3 769/4/3
f 772/4/3 770/4/3 771/4/3
f 776/5/3 774/5/3 773/5/3
f 777/6/3 775/6/3 774/6/3
f 777/5/3 774/5/3 776/5/3
f 778/6/3 775/6/3 777/6/3
f 779/2/3 777/2/3 776/2/3
f 780/7/3 778/7/3 777/7/3
f 780/2/3 777/2/3 779/2/3
f 781/7/3 778/7/3 780/7/3
f 782/5/3 780/5/3 779/5/3
f 783/6/3 781/6/3 780/6/3
f 783/5/3 780/5/3 782/5/3
f 784/6/3 781/6/3 783/6/3
f 785/2/3 783/2/3 782/2/3
f 786/7/3 784/7/3 783/7/3
f 786/2/3 783/2/3 785/2/3
f 787/7/3 784/7/3 786/7/3
f 788/5/3 786/5/3 785/5/3
f 789/6/3 787/6/3 786/6/3
f 789/5/3 786/5/3 788/5/3
f 790/6/3 787/6/3 789/6/3
f 791/2/3 789/2/3 788/2/3
f 792/7/3 790/7/3 789/7/3
f 792/2/3 789/2/3 791/2/3
f 793/7/3 790/7/3 792/7/3
f 794/5/3 792/5/3 791/5/3
f 795/6/3 793/6/3 792/6/3
f 795/5/3 792/5/3 794/5/3
f 796/6/3 793/6/3 795/6/3
f 797/2/3 795/2/3 794/2/3
f 798/7/3 796/7/3 795/7/3
f 798/2/3 795/2/3 797/2/3
f 799/7/3 796/7/3 798/7/3
f 800/5/3 798/5/3 797/5/3
f 801/6/3 799/6/3 798/6/3
f 801/5/3 798/5/3 800/5/3
f 802/6/3 799/6/3 801/6/3
f 803/2/3 801/2/3 800/2/3
f 804/7/3 802/7/3 801/7/3
f 804/2/3 801/2/3 803/2/3
f 805/7/3 802/7/3 804/7/3
f 806/5/3 804/5/3 803/5/3
f 807/6/3 805/6/3 804/6/3
f 807/5/3 804/5/3 806/5/3
f 808/6/3 805/6/3 807/6/3
f 811/4/3 810/4/3 809/4/3
f 812/4/3 810/4/3 811/4/3
f 813/4/3 810/4/3 812/4/3
f 814/4/3 812/4/3 811/4/3
f 815/3/3 813/3/3 812/3/3
f 815/4/3 812/4/3 814/4/3
f 816/4/3 810/4/3 813/4/3
f 816/3/3 813/3/3 815/3/3
f 817/4/3 814/4/3 811/4/3
f 818/3/3 815/3/3 814/3/3
f 818/4/3 814/4/3 817/4/3
f 819/1/3 816/1/3 815/1/3
f 819/3/3 815/3/3 818/3/3
f 820/4/3 810/4/3 816/4/3
f 820/1/3 816/1/3 819/1/3
f 821/4/3 819/4/3 818/4/3
f 821/4/3 818/4/3 817/4/3
f 822/3/3 820/3/3 819/3/3
f 822/4/3 819/4/3 821/4/3
f 823/4/3 810/4/3 820/4/3
f 823/3/3 820/3/3 822/3/3
f 824/4/3 822/4/3 821/4/3
f 824/4/3 823/4/3 822/4/3
f 825/4/3 823/4/3 824/4/3
f 826/4/3 823/4/3 825/4/3
f 827/4/3 823/4/3 826/4/3
f 828/4/3 824/4/3 821/4/3
f 829/4/3 824/4/3 828/4/3
f 830/3/3 825/3/3 824/3/3
f 830/4/3 824/4/3 829/4/3
f 831/4/3 826/4/3 825/4/3
f 831/3/3 825/3/3 830/3/3
f 832/3/3 827/3/3 826/3/3
f 832/4/3 826/4/3 831/4/3
f 833/4/3 823/4/3 827/4/3
f 833/3/3 827/3/3 832/3/3
f 834/4/3 810/4/3 823/4/3
f 834/4/3 823/4/3 833/4/3
f 835/4/3 829/4/3 828/4/3
f 836/3/3 830/3/3 829/3/3
f 836/4/3 829/4/3 835/4/3
f 837/1/3 831/1/3 830/1/3
f 837/3/3 830/3/3 836/3/3
f 838/3/3 832/3/3 831/3/3
f 838/1/3 831/1/3 837/1/3
f 839/1/3 833/1/3 832/1/3
f 839/3/3 832/3/3 838/3/3
f 840/3/3 834/3/3 833/3/3
f 840/1/3 833/1/3 839/1/3
f 841/4/3 810/4/3 834/4/3
f 841/3/3 834/3/3 840/3/3
f 842/4/3 837/4/3 836/4/3
f 842/4/3 836/4/3 835/4/3
f 843/4/3 837/4/3 842/4/3
f 844/3/3 838/3/3 837/3/3
f 844/4/3 837/4/3 843/4/3
f 845/4/3 839/4/3 838/4/3
f 845/3/3 838/3/3 844/3/3
f 846/3/3 840/3/3 839/3/3
f 846/4/3 839/4/3 845/4/3
f 847/4/3 841/4/3 840/4/3
f 847/3/3 840/3/3 846/3/3
f 848/4/3 810/4/3 841/4/3
f 848/4/3 841/4/3 847/4/3
f 849/4/3 843/4/3 842/4/3
f 849/3/3 844/3/3 843/3/3
f 850/1/3 845/1/3 844/1/3
f 850/3/3 844/3/3 849/3/3
f 851/3/3 846/3/3 845/3/3
f 851/1/3 845/1/3 850/1/3
f 852/1/3 847/1/3 846/1/3
f 852/3/3 846/3/3 851/3/3
f 853/3/3 848/3/3 847/3/3
f 853/1/3 847/1/3 852/1/3
f 854/4/3 810/4/3 848/4/3
f 854/3/3 848/3/3 853/3/3
f 855/4/3 849/4/3 842/4/3
f 855/4/3 850/4/3 849/4/3
f 856/3/3 851/3/3 850/3/3
f 856/4/3 850/4/3 855/4/3
f 857/4/3 852/4/3 851/4/3
f 857/3/3 851/3/3 856/3/3
f 858/3/3 853/3/3 852/3/3
f 858/4/3 852/4/3 857/4/3
f 859/4/3 854/4/3 853/4/3
f 859/3/3 853/3/3 858/3/3
f 860/4/3 857/4/3 856/4/3
f 860/4/3 858/4/3 857/4/3
f 860/4/3 859/4/3 858/4/3
f 860/4/3 856/4/3 855/4/3
f 861/4/3 859/4/3 860/4/3
f 862/4/3 859/4/3 861/4/3
f 863/4/3 861/4/3 860/4/3
f 864/4/3 861/4/3 863/4/3
f 865/3/3 862/3/3 861/3/3
f 865/4/3 861/4/3 864/4/3
f 866/4/3 859/4/3 862/4/3
f 866/3/3 862/3/3 865/3/3
f 867/4/3 859/4/3 866/4/3
f 868/3/3 865/3/3 864/3/3
f 868/4/3 864/4/3 863/4/3
f 869/1/3 866/1/3 865/1/3
f 869/3/3 865/3/3 868/3/3
f 870/3/3 867/3/3 866/3/3
f 870/1/3 866/1/3 869/1/3
f 871/4/3 859/4/3 867/4/3
f 871/3/3 867/3/3 870/3/3
f 872/4/3 870/4/3 869/4/3
f 872/4/3 869/4/3 868/4/3
f 872/4/3 871/4/3 870/4/3
f 872/4/3 868/4/3 863/4/3
f 873/4/3 871/4/3 872/4/3
f 874/4/3 854/4/3 859/4/3
f 874/4/3 871/4/3 873/4/3
f 874/4/3 810/4/3 854/4/3
f 874/4/3 859/4/3 871/4/3
f 877/4/3 876/4/3 875/4/3
f 878/4/3 876/4/3 877/4/3
f 879/4/3 876/4/3 878/4/3
f 880/4/3 876/4/3 879/4/3
f 884/5/3 882/5/3 881/5/3
f 885/6/3 883/6/3 882/6/3
f 885/5/3 882/5/3 884/5/3
f 886/6/3 883/6/3 885/6/3
f 887/2/3 885/2/3 884/2/3
f 888/7/3 886/7/3 885/7/3
f 888/2/3 885/2/3 887/2/3
f 889/7/3 886/7/3 888/7/3
f 893/2/3 891/2/3 890/2/3
f 894/7/3 892/7/3 891/7/3
f 894/2/3 891/2/3 893/2/3
f 895/7/3 892/7/3 894/7/3
f 896/5/3 894/5/3 893/5/3
f 897/6/3 895/6/3 894/6/3
f 897/5/3 894/5/3 896/5/3
f 898/6/3 895/6/3 897/6/3
f 902/4/3 900/4/3 899/4/3
f 903/4/3 902/4/3 901/4/3
f 904/4/3 900/4/3 902/4/3
f 904/4/3 902/4/3 903/4/3
f 907/4/3 906/4/3 905/4/3
f 908/4/3 906/4/3 907/4/3
f 911/4/3 910/4/3 909/4/3
f 912/4/3 910/4/3 911/4/3
f 915/4/3 914/4/3 913/4/3
f 916/4/3 914/4/3 915/4/3
f 919/4/3 918/4/3 917/4/3
f 920/4/3 918/4/3 919/4/3
f 923/4/3 922/4/3 921/4/3
f 924/4/3 922/4/3 923/4/3
f 927/4/3 926/4/3 925/4/3
f 928/4/3 926/4/3 927/4/3
f 929/4/3 926/4/3 928/4/3
f 930/4/3 926/4/3 929/4/3
f 934/4/3 932/4/3 931/4/3
f 935/4/3 934/4/3 933/4/3
f 936/4/3 932/4/3 934/4/3
f 936/4/3 934/4/3 935/4/3
f 939/4/3 938/4/3 937/4/3
f 940/4/3 938/4/3 939/4/3
f 941/4/3 938/4/3 940/4/3
f 942/4/3 938/4/3 941/4/3
f 946/4/3 944/4/3 943/4/3
f 947/4/3 946/4/3 945/4/3
f 948/4/3 944/4/3 946/4/3
f 948/4/3 946/4/3 947/4/3
f 951/4/3 950/4/3 949/4/3
f 952/4/3 950/4/3 951/4/3
f 953/4/3 950/4/3 952/4/3
f 954/4/3 950/4/3 953/4/3
f 958/4/3 956/4/3 955/4/3
f 959/4/3 958/4/3 957/4/3
f 960/4/3 956/4/3 958/4/3
f 960/4/3 958/4/3 959/4/3
f 963/4/3 962/4/3 961/4/3
f 964/4/3 962/4/3 963/4/3
f 965/4/3 962/4/3 964/4/3
f 966/4/3 962/4/3 965/4/3
f 970/4/3 968/4/3 967/4/3
f 971/4/3 970/4/3 969/4/3
f 972/4/3 968/4/3 970/4/3
f 972/4/3 970/4/3 971/4/3
f 975/4/3 974/4/3 973/4/3
f 976/4/3 974/4/3 975/4/3
f 977/4/3 974/4/3 976/4/3
f 978/4/3 974/4/3 977/4/3
f 982/4/3 980/4/3 979/4/3
f 983/4/3 982/4/3 981/4/3
f 984/4/3 980/4/3 982/4/3
f 984/4/3 982/4/3 983/4/3
f 985/4/4 986/4/4 987/4/4
f 987/4/4 986/4/4 988/4/4
f 988/4/4 986/4/4 989/4/4
f 989/4/4 986/4/4 990/4/4
f 991/4/4 992/4/4 994/4/4
f 993/4/4 994/4/4 995/4/4
f 994/4/4 992/4/4 996/4/4
f 995/4/4 994/4/4 996/4/4
f 997/4/4 998/4/4 999/4/4
f 999/4/4 998/4/4 1000/4/4
f 1000/4/4 998/4/4 1001/4/4
f 1001/4/4 998/4/4 1002/4/4
f 1003/4/4 1004/4/4 1006/4/4
f 1005/4/4 1006/4/4 1007/4/4
f 1006/4/4 1004/4/4 1008/4/4
f 1007/4/4 1006/4/4 1008/4/4
f 1009/4/4 1010/4/4 1011/4/4
f 1011/4/4 1010/4/4 1012/4/4
f 1012/4/4 1010/4/4 1013/4/4
f 1013/4/4 1010/4/4 1014/4/4
f 1015/4/4 1016/4/4 1018/4/4
f 1017/4/4 1018/4/4 1019/4/4
f 1018/4/4 1016/4/4 1020/4/4
f 1019/4/4 1018/4/4 1020/4/4
f 1021/4/4 1022/4/4 1023/4/4
f 1023/4/4 1022/4/4 1024/4/4
f 1024/4/4 1022/4/4 1025/4/4
f 1025/4/4 1022/4/4 1026/4/4
f 1027/4/4 1028/4/4 1030/4/4
f 1029/4/4 1030/4/4 1031/4/4
f 1030/4/4 1028/4/4 1032/4/4
f 1031/4/4 1030/4/4 1032/4/4
f 1033/4/4 1034/4/4 1035/4/4
f 1035/4/4 1034/4/4 1036/4/4
f 1036/4/4 1034/4/4 1037/4/4
f 1037/4/4 1034/4/4 1038/4/4
f 1039/4/4 1040/4/4 1042/4/4
f 1041/4/4 1042/4/4 1043/4/4
f 1042/4/4 1040/4/4 1044/4/4
f 1043/4/4 1042/4/4 1044/4/4
f 1045/4/4 1046/4/4 1047/4/4
f 1047/4/4 1046/4/4 1048/4/4
f 1049/4/4 1050/4/4 1051/4/4
f 1051/4/4 1050/4/4 1052/4/4
f 1053/4/4 1054/4/4 1055/4/4
f 1055/4/4 1054/4/4 1056/4/4
f 1057/4/4 1058/4/4 1059/4/4
f 1059/4/4 1058/4/4 1060/4/4
f 1061/4/4 1062/4/4 1063/4/4
f 1063/4/4 1062/4/4 1064/4/4
f 1065/4/4 1066/4/4 1067/4/4
f 1067/4/4 1066/4/4 1068/4/4
f 1068/4/4 1066/4/4 1069/4/4
f 1069/4/4 1066/4/4 1070/4/4
f 1071/5/4 1072/5/4 1074/5/4
f 1072/6/4 1073/6/4 1075/6/4
f 1074/5/4 1072/5/4 1075/5/4
f 1075/6/4 1073/6/4 1076/6/4
f 1074/2/4 1075/2/4 1077/2/4
f 1075/7/4 1076/7/4 1078/7/4
f 1077/2/4 1075/2/4 1078/2/4
f 1078/7/4 1076/7/4 1079/7/4
f 1080/2/4 1081/2/4 1083/2/4
f 1081/7/4 1082/7/4 1084/7/4
f 1083/2/4 1081/2/4 1084/2/4
f 1084/7/4 1082/7/4 1085/7/4
f 1083/5/4 1084/5/4 1086/5/4
f 1084/6/4 1085/6/4 1087/6/4
f 1086/5/4 1084/5/4 1087/5/4
f 1087/6/4 1085/6/4 1088/6/4
f 1089/4/4 1090/4/4 1092/4/4
f 1091/4/4 1092/4/4 1093/4/4
f 1092/4/4 1090/4/4 1094/4/4
f 1093/4/4 1092/4/4 1094/4/4
f 1095/4/4 1096/4/4 1097/4/4
f 1097/4/4 1096/4/4 1098/4/4
f 1098/4/4 1096/4/4 1099/4/4
f 1097/4/4 1098/4/4 1100/4/4
f 1098/3/4 1099/3/4 1100/3/4
f 1099/4/4 1096/4/4 1101/4/4
f 1100/3/4 1099/3/4 1101/3/4
f 1101/4/4 1096/4/4 1102/4/4
f 1097/4/4 1100/4/4 1103/4/4
f 1100/1/4 1101/1/4 1104/1/4
f 1103/4/4 1100/4/4 1104/4/4
f 1101/3/4 1102/3/4 1105/3/4
f 1104/1/4 1101/1/4 1105/1/4
f 1102/4/4 1096/4/4 1106/4/4
f 1105/3/4 1102/3/4 1106/3/4
f 1103/4/4 1104/4/4 1107/4/4
f 1104/3/4 1105/3/4 1108/3/4
f 1107/4/4 1104/4/4 1108/4/4
f 1105/4/4 1106/4/4 1109/4/4
f 1108/3/4 1105/3/4 1109/3/4
f 1107/4/4 1108/4/4 1110/4/4
f 1109/4/4 1106/4/4 1110/4/4
f 1108/4/4 1109/4/4 1110/4/4
f 1110/4/4 1106/4/4 1111/4/4
f 1106/4/4 1096/4/4 1112/4/4
f 1111/4/4 1106/4/4 1112/4/4
f 1112/4/4 1096/4/4 1113/4/4
f 1107/4/4 1110/4/4 1114/4/4
f 1114/4/4 1110/4/4 1115/4/4
f 1110/3/4 1111/3/4 1116/3/4
f 1115/4/4 1110/4/4 1116/4/4
f 1111/4/4 1112/4/4 1117/4/4
f 1116/3/4 1111/3/4 1117/3/4
f 1112/3/4 1113/3/4 1118/3/4
f 1117/4/4 1112/4/4 1118/4/4
f 1113/4/4 1096/4/4 1119/4/4
f 1118/3/4 1113/3/4 1119/3/4
f 1119/4/4 1096/4/4 1120/4/4
f 1114/4/4 1115/4/4 1121/4/4
f 1115/3/4 1116/3/4 1122/3/4
f 1121/4/4 1115/4/4 1122/4/4
f 1116/1/4 1117/1/4 1123/1/4
f 1122/3/4 1116/3/4 1123/3/4
f 1117/3/4 1118/3/4 1124/3/4
f 1123/1/4 1117/1/4 1124/1/4
f 1118/1/4 1119/1/4 1125/1/4
f 1124/3/4 1118/3/4 1125/3/4
f 1119/3/4 1120/3/4 1126/3/4
f 1125/1/4 1119/1/4 1126/1/4
f 1120/4/4 1096/4/4 1127/4/4
f 1126/3/4 1120/3/4 1127/3/4
f 1122/4/4 1123/4/4 1128/4/4
f 1121/4/4 1122/4/4 1128/4/4
f 1128/4/4 1123/4/4 1129/4/4
f 1123/3/4 1124/3/4 1130/3/4
f 1129/4/4 1123/4/4 1130/4/4
f 1124/4/4 1125/4/4 1131/4/4
f 1130/3/4 1124/3/4 1131/3/4
f 1125/3/4 1126/3/4 1132/3/4
f 1131/4/4 1125/4/4 1132/4/4
f 1126/4/4 1127/4/4 1133/4/4
f 1132/3/4 1126/3/4 1133/3/4
f 1127/4/4 1096/4/4 1134/4/4
f 1133/4/4 1127/4/4 1134/4/4
f 1128/4/4 1129/4/4 1135/4/4
f 1129/3/4 1130/3/4 1135/3/4
f 1130/1/4 1131/1/4 1136/1/4
f 1135/3/4 1130/3/4 1136/3/4
f 1131/3/4 1132/3/4 1137/3/4
f 1136/1/4 1131/1/4 1137/1/4
f 1132/1/4 1133/1/4 1138/1/4
f 1137/3/4 1132/3/4 1138/3/4
f 1133/3/4 1134/3/4 1139/3/4
f 1138/1/4 1133/1/4 1139/1/4
f 1134/4/4 1096/4/4 1140/4/4
f 1139/3/4 1134/3/4 1140/3/4
f 1128/4/4 1135/4/4 1141/4/4
f 1135/4/4 1136/4/4 1141/4/4
f 1136/3/4 1137/3/4 1142/3/4
f 1141/4/4 1136/4/4 1142/4/4
f 1137/4/4 1138/4/4 1143/4/4
f 1142/3/4 1137/3/4 1143/3/4
f 1138/3/4 1139/3/4 1144/3/4
f 1143/4/4 1138/4/4 1144/4/4
f 1139/4/4 1140/4/4 1145/4/4
f 1144/3/4 1139/3/4 1145/3/4
f 1143/4/4 1144/4/4 1146/4/4
f 1142/4/4 1143/4/4 1146/4/4
f 1144/4/4 1145/4/4 1146/4/4
f 1141/4/4 1142/4/4 1146/4/4
f 1146/4/4 1145/4/4 1147/4/4
f 1147/4/4 1145/4/4 1148/4/4
f 1148/4/4 1145/4/4 1149/4/4
f 1145/4/4 1140/4/4 1150/4/4
f 1149/4/4 1145/4/4 1150/4/4
f 1150/4/4 1140/4/4 1151/4/4
f 1148/3/4 1149/3/4 1152/3/4
f 1147/4/4 1148/4/4 1152/4/4
f 1149/1/4 1150/1/4 1153/1/4
f 1152/3/4 1149/3/4 1153/3/4
f 1150/3/4 1151/3/4 1154/3/4
f 1153/1/4 1150/1/4 1154/1/4
f 1151/4/4 1140/4/4 1155/4/4
f 1154/3/4 1151/3/4 1155/3/4
f 1153/4/4 1154/4/4 1156/4/4
f 1152/4/4 1153/4/4 1156/4/4
f 1154/4/4 1155/4/4 1156/4/4
f 1147/4/4 1152/4/4 1156/4/4
f 1156/4/4 1155/4/4 1157/4/4
f 1140/4/4 1096/4/4 1158/4/4
f 1157/4/4 1155/4/4 1158/4/4
f 1155/4/4 1140/4/4 1158/4/4
f 1159/5/4 1160/5/4 1162/5/4
f 1160/6/4 1161/6/4 1163/6/4
f 1162/5/4 1160/5/4 1163/5/4
f 1163/6/4 1161/6/4 1164/6/4
f 1162/2/4 1163/2/4 1165/2/4
f 1163/7/4 1164/7/4 1166/7/4
f 1165/2/4 1163/2/4 1166/2/4
f 1166/7/4 1164/7/4 1167/7/4
f 1165/5/4 1166/5/4 1168/5/4
f 1166/6/4 1167/6/4 1169/6/4
f 1168/5/4 1166/5/4 1169/5/4
f 1169/6/4 1167/6/4 1170/6/4
f 1168/2/4 1169/2/4 1171/2/4
f 1169/7/4 1170/7/4 1172/7/4
f 1171/2/4 1169/2/4 1172/2/4
f 1172/7/4 1170/7/4 1173/7/4
f 1171/5/4 1172/5/4 1174/5/4
f 1172/6/4 1173/6/4 1175/6/4
f 1174/5/4 1172/5/4 1175/5/4
f 1175/6/4 1173/6/4 1176/6/4
f 1174/2/4 1175/2/4 1177/2/4
f 1175/7/4 1176/7/4 1178/7/4
f 1177/2/4 1175/2/4 1178/2/4
f 1178/7/4 1176/7/4 1179/7/4
f 1177/5/4 1178/5/4 1180/5/4
f 1178/6/4 1179/6/4 1181/6/4
f 1180/5/4 1178/5/4 1181/5/4
f 1181/6/4 1179/6/4 1182/6/4
f 1180/2/4 1181/2/4 1183/2/4
f 1181/7/4 1182/7/4 1184/7/4
f 1183/2/4 1181/2/4 1184/2/4
f 1184/7/4 1182/7/4 1185/7/4
f 1183/5/4 1184/5/4 1186/5/4
f 1184/6/4 1185/6/4 1187/6/4
f 1186/5/4 1184/5/4 1187/5/4
f 1187/6/4 1185/6/4 1188/6/4
f 1186/2/4 1187/2/4 1189/2/4
f 1187/7/4 1188/7/4 1190/7/4
f 1189/2/4 1187/2/4 1190/2/4
f 1190/7/4 1188/7/4 1191/7/4
f 1189/5/4 1190/5/4 1192/5/4
f 1190/6/4 1191/6/4 1193/6/4
f 1192/5/4 1190/5/4 1193/5/4
f 1193/6/4 1191/6/4 1194/6/4
f 1195/4/4 1196/4/4 1197/4/4
f 1197/4/4 1196/4/4 1198/4/4
f 1199/4/4 1200/4/4 1201/4/4
f 1201/4/4 1200/4/4 1202/4/4
f 1203/4/4 1204/4/4 1205/4/4
f 1205/4/4 1204/4/4 1206/4/4
f 1207/4/4 1208/4/4 1210/4/4
f 1209/4/4 1210/4/4 1211/4/4
f 1210/4/4 1208/4/4 1212/4/4
f 1211/4/4 1210/4/4 1212/4/4
f 1212/4/4 1208/4/4 1214/4/4
f 1213/4/4 1214/4/4 1215/4/4
f 1214/4/4 1208/4/4 1216/4/4
f 1215/4/4 1214/4/4 1216/4/4
f 1216/4/4 1208/4/4 1218/4/4
f 1217/4/4 1218/4/4 1219/4/4
f 1218/4/4 1208/4/4 1220/4/4
f 1219/4/4 1218/4/4 1220/4/4
f 1220/4/4 1208/4/4 1222/4/4
f 1221/4/4 1222/4/4 1223/4/4
f 1222/4/4 1208/4/4 1224/4/4
f 1223/4/4 1222/4/4 1224/4/4
f 1224/4/4 1208/4/4 1226/4/4
f 1225/4/4 1226/4/4 1227/4/4
f 1226/4/4 1208/4/4 1228/4/4
f 1227/4/4 1226/4/4 1228/4/4
f 1228/4/4 1208/4/4 1230/4/4
f 1229/4/4 1230/4/4 1231/4/4
f 1230/4/4 1208/4/4 1232/4/4
f 1231/4/4 1230/4/4 1232/4/4
f 1232/4/4 1208/4/4 1234/4/4
f 1233/4/4 1234/4/4 1235/4/4
f 1234/4/4 1208/4/4 1236/4/4
f 1235/4/4 1234/4/4 1236/4/4
f 1236/4/4 1208/4/4 1238/4/4
f 1237/4/4 1238/4/4 1239/4/4
f 1238/4/4 1208/4/4 1240/4/4
f 1239/4/4 1238/4/4 1240/4/4
f 1240/4/4 1208/4/4 1241/4/4
f 1241/4/4 1208/4/4 1242/4/4
f 1243/4/4 1244/4/4 1245/4/4
f 1245/4/4 1244/4/4 1246/4/4
f 1247/4/4 1248/4/4 1249/4/4
f 1249/4/4 1248/4/4 1250/4/4
f 1251/4/4 1252/4/4 1253/4/4
f 1253/4/4 1252/4/4 1254/4/4
f 1255/4/4 1256/4/4 1257/4/4
f 1257/4/4 1256/4/4 1258/4/4
f 1259/4/4 1260/4/4 1261/4/4
f 1261/4/4 1260/4/4 1262/4/4
f 1263/4/4 1264/4/4 1265/4/4
f 1265/4/4 1264/4/4 1266/4/4
f 1267/4/4 1268/4/4 1269/4/4
f 1269/4/4 1268/4/4 1270/4/4
f 1271/4/4 1272/4/4 1273/4/4
f 1273/4/4 1272/4/4 1274/4/4
f 1275/4/4 1276/4/4 1277/4/4
f 1277/4/4 1276/4/4 1278/4/4
f 1279/4/4 1280/4/4 1281/4/4
f 1279/4/4 1281/4/4 1283/4/4
f 1281/4/4 1282/4/4 1283/4/4
f 1283/4/4 1282/4/4 1284/4/4
f 1285/4/4 1286/4/4 1287/4/4
f 1287/4/4 1286/4/4 1288/4/4
f 1289/4/4 1290/4/4 1291/4/4
f 1291/4/4 1290/4/4 1292/4/4
f 1293/4/4 1294/4/4 1295/4/4
f 1295/4/4 1294/4/4 1296/4/4
f 1297/4/4 1298/4/4 1299/4/4
f 1299/4/4 1298/4/4 1300/4/4
f 1301/4/4 1302/4/4 1303/4/4
f 1303/4/4 1302/4/4 1304/4/4
f 1305/4/4 1306/4/4 1307/4/4
f 1307/4/4 1306/4/4 1308/4/4
f 1309/4/4 1310/4/4 1311/4/4
f 1311/4/4 1310/4/4 1312/4/4
f 1313/4/4 1314/4/4 1315/4/4
f 1315/4/4 1314/4/4 1316/4/4
f 1313/4/4 1315/4/4 1317/4/4
f 1317/4/4 1315/4/4 1318/4/4
f 1337/4/5 1320/4/5 1319/4/5
f 1338/4/5 1322/4/5 1321/4/5
f 1339/4/5 1322/4/5 1338/4/5
f 1340/4/5 1324/4/5 1323/4/5
f 1341/4/5 1324/4/5 1340/4/5
f 1342/4/5 1326/4/5 1325/4/5
f 1343/4/5 1326/4/5 1342/4/5
f 1344/4/5 1328/4/5 1327/4/5
f 1345/4/5 1328/4/5 1344/4/5
f 1346/4/5 1330/4/5 1329/4/5
f 1347/4/5 1330/4/5 1346/4/5
f 1348/4/5 1332/4/5 1331/4/5
f 1349/4/5 1332/4/5 1348/4/5
f 1350/4/5 1334/4/5 1333/4/5
f 1351/4/5 1334/4/5 1350/4/5
f 1352/4/5 1336/4/5 1335/4/5
f 1354/4/5 1351/4/5 1350/4/5
f 1354/4/5 1352/4/5 1351/4/5
f 1354/4/5 1337/4/5 1319/4/5
f 1354/4/5 1339/4/5 1338/4/5
f 1354/4/5 1350/4/5 1349/4/5
f 1354/4/5 1341/4/5 1340/4/5
f 1354/4/5 1348/4/5 1347/4/5
f 1354/4/5 1343/4/5 1342/4/5
f 1354/4/5 1346/4/5 1345/4/5
f 1354/4/5 1345/4/5 1344/4/5
f 1354/4/5 1344/4/5 1343/4/5
f 1354/4/5 1347/4/5 1346/4/5
f 1354/4/5 1342/4/5 1341/4/5
f 1354/4/5 1349/4/5 1348/4/5
f 1354/4/5 1340/4/5 1339/4/5
f 1354/4/5 1338/4/5 1337/4/5
f 1355/4/5 1336/4/5 1352/4/5
f 1355/4/5 1352/4/5 1354/4/5
f 1357/4/5 1354/4/5 1353/4/5
f 1357/4/5 1356/4/5 1355/4/5
f 1357/4/5 1355/4/5 1354/4/5
f 1358/4/5 1356/4/5 1357/4/5
f 1359/4/5 1356/4/5 1358/4/5
f 1360/4/5 1356/4/5 1359/4/5
f 1362/4/5 1359/4/5 1358/4/5
f 1363/4/5 1359/4/5 1362/4/5
f 1365/4/5 1362/4/5 1361/4/5
f 1365/4/5 1364/4/5 1363/4/5
f 1365/4/5 1363/4/5 1362/4/5
f 1366/4/5 1364/4/5 1365/4/5
f 1367/4/5 1364/4/5 1366/4/5
f 1368/4/5 1364/4/5 1367/4/5
f 1370/4/5 1367/4/5 1366/4/5
f 1371/4/5 1367/4/5 1370/4/5
f 1373/4/5 1370/4/5 1369/4/5
f 1373/4/5 1372/4/5 1371/4/5
f 1373/4/5 1371/4/5 1370/4/5
f 1374/4/5 1372/4/5 1373/4/5
f 1375/4/5 1372/4/5 1374/4/5
f 1376/4/5 1372/4/5 1375/4/5
f 1378/4/5 1375/4/5 1374/4/5
f 1379/4/5 1375/4/5 1378/4/5
f 1381/4/5 1378/4/5 1377/4/5
f 1381/4/5 1380/4/5 1379/4/5
f 1381/4/5 1379/4/5 1378/4/5
f 1382/4/5 1380/4/5 1381/4/5
f 1383/4/5 1380/4/5 1382/4/5
f 1384/4/5 1380/4/5 1383/4/5
f 1386/4/5 1383/4/5 1382/4/5
f 1387/4/5 1383/4/5 1386/4/5
f 1389/4/5 1386/4/5 1385/4/5
f 1389/4/5 1388/4/5 1387/4/5
f 1389/4/5 1387/4/5 1386/4/5
f 1390/4/5 1388/4/5 1389/4/5
f 1391/4/5 1388/4/5 1390/4/5
f 1392/4/5 1388/4/5 1391/4/5
f 1394/4/5 1391/4/5 1390/4/5
f 1395/4/5 1391/4/5 1394/4/5
f 1397/4/5 1394/4/5 1393/4/5
f 1397/4/5 1396/4/5 1395/4/5
f 1397/4/5 1395/4/5 1394/4/5
f 1398/4/5 1396/4/5 1397/4/5
f 1399/4/5 1396/4/5 1398/4/5
f 1400/4/5 1396/4/5 1399/4/5
f 1402/4/5 1399/4/5 1398/4/5
f 1403/4/5 1399/4/5 1402/4/5
f 1405/4/5 1402/4/5 1401/4/5
f 1405/4/5 1404/4/5 1403/4/5
f 1405/4/5 1403/4/5 1402/4/5
f 1406/4/5 1404/4/5 1405/4/5
f 1407/4/5 1404/4/5 1406/4/5
f 1408/4/5 1404/4/5 1407/4/5
f 1409/4/5 1407/4/5 1406/4/5
f 1410/4/5 1407/4/5 1409/4/5
f 1411/4/5 1407/4/5 1410/4/5
f 1412/4/5 1407/4/5 1411/4/5
f 1413/4/5 1407/4/5 1412/4/5
f 1414/4/5 1407/4/5 1413/4/5
f 1415/4/5 1407/4/5 1414/4/5
f 1416/4/5 1407/4/5 1415/4/5
f 1417/4/5 1407/4/5 1416/4/5
f 1418/4/5 1407/4/5 1417/4/5
f 1419/4/5 1407/4/5 1418/4/5
f 1420/4/5 1407/4/5 1419/4/5
f 1421/4/5 1407/4/5 1420/4/5
f 1422/4/5 1407/4/5 1421/4/5
f 1423/4/5 1407/4/5 1422/4/5
f 1424/4/5 1407/4/5 1423/4/5
f 1425/4/5 1409/4/5 1406/4/5
f 1426/4/5 1409/4/5 1425/4/5
f 1427/4/5 1411/4/5 1410/4/5
f 1428/4/5 1411/4/5 1427/4/5
f 1429/4/5 1413/4/5 1412/4/5
f 1430/4/5 1413/4/5 1429/4/5
f 1431/4/5 1415/4/5 1414/4/5
f 1432/4/5 1415/4/5 1431/4/5
f 1433/4/5 1417/4/5 1416/4/5
f 1434/4/5 1417/4/5 1433/4/5
f 1435/4/5 1419/4/5 1418/4/5
f 1436/4/5 1419/4/5 1435/4/5
f 1437/4/5 1421/4/5 1420/4/5
f 1438/4/5 1421/4/5 1437/4/5
f 1439/4/5 1423/4/5 1422/4/5
f 1440/4/5 1423/4/5 1439/4/5
f 1441/4/5 1407/4/5 1424/4/5
f 1442/4/5 1407/4/5 1441/4/5
f 1443/4/6 1444/4/6 1464/4/6
f 1447/4/6 1448/4/6 1465/4/6
f 1465/4/6 1448/4/6 1466/4/6
f 1449/4/6 1450/4/6 1467/4/6
f 1467/4/6 1450/4/6 1468/4/6
f 1451/4/6 1452/4/6 1469/4/6
f 1469/4/6 1452/4/6 1470/4/6
f 1453/4/6 1454/4/6 1471/4/6
f 1471/4/6 1454/4/6 1472/4/6
f 1455/4/6 1456/4/6 1473/4/6
f 1473/4/6 1456/4/6 1474/4/6
f 1457/4/6 1458/4/6 1475/4/6
f 1475/4/6 1458/4/6 1476/4/6
f 1459/4/6 1460/4/6 1477/4/6
f 1477/4/6 1460/4/6 1478/4/6
f 1461/4/6 1462/4/6 1479/4/6
f 1479/4/6 1462/4/6 1480/4/6
f 1445/4/6 1446/4/6 1481/4/6
f 1463/4/6 1464/4/6 1483/4/6
f 1464/4/6 1444/4/6 1484/4/6
f 1483/4/6 1464/4/6 1484/4/6
f 1481/4/6 1482/4/6 1485/4/6
f 1445/4/6 1481/4/6 1485/4/6
f 1485/4/6 1482/4/6 1486/4/6
f 1487/4/6 1488/4/6 1491/4/6
f 1491/4/6 1488/4/6 1492/4/6
f 1489/4/6 1490/4/6 1493/4/6
f 1493/4/6 1490/4/6 1494/4/6
f 1495/4/6 1496/4/6 1499/4/6
f 1499/4/6 1496/4/6 1500/4/6
f 1497/4/6 1498/4/6 1501/4/6
f 1501/4/6 1498/4/6 1502/4/6
f 1503/4/6 1504/4/6 1507/4/6
f 1507/4/6 1504/4/6 1508/4/6
f 1505/4/6 1506/4/6 1509/4/6
f 1509/4/6 1506/4/6 1510/4/6
f 1511/4/6 1512/4/6 1515/4/6
f 1515/4/6 1512/4/6 1516/4/6
f 1513/4/6 1514/4/6 1517/4/6
f 1517/4/6 1514/4/6 1518/4/6
f 1519/4/6 1520/4/6 1523/4/6
f 1523/4/6 1520/4/6 1524/4/6
f 1521/4/6 1522/4/6 1525/4/6
f 1525/4/6 1522/4/6 1526/4/6
f 1527/4/6 1528/4/6 1531/4/6
f 1531/4/6 1528/4/6 1532/4/6
f 1529/4/6 1530/4/6 1533/4/6
f 1533/4/6 1530/4/6 1534/4/6
f 1535/4/6 1536/4/6 1539/4/6
f 1539/4/6 1536/4/6 1540/4/6
f 1537/4/6 1538/4/6 1557/4/6
f 1557/4/6 1538/4/6 1558/4/6
f 1541/4/6 1542/4/6 1559/4/6
f 1559/4/6 1542/4/6 1560/4/6
f 1543/4/6 1544/4/6 1561/4/6
f 1561/4/6 1544/4/6 1562/4/6
f 1545/4/6 1546/4/6 1563/4/6
f 1563/4/6 1546/4/6 1564/4/6
f 1547/4/6 1548/4/6 1565/4/6
f 1565/4/6 1548/4/6 1566/4/6
f 1549/4/6 1550/4/6 1567/4/6
f 1567/4/6 1550/4/6 1568/4/6
f 1551/4/6 1552/4/6 1569/4/6
f 1569/4/6 1552/4/6 1570/4/6
f 1553/4/6 1554/4/6 1571/4/6
f 1571/4/6 1554/4/6 1572/4/6
f 1555/4/6 1556/4/6 1573/4/6
f 1573/4/6 1556/4/6 1574/4/6
f 1540/4/6 1536/4/6 1575/4/6
f 1575/4/6 1536/4/6 1576/4/6
f 1537/4/6 1557/4/6 1577/4/6
f 1577/4/6 1557/4/6 1578/4/6
f 1579/4/6 1580/4/6 1597/4/6
f 1597/4/6 1580/4/6 1598/4/6
f 1581/4/6 1582/4/6 1599/4/6
f 1599/4/6 1582/4/6 1600/4/6
f 1583/4/6 1584/4/6 1601/4/6
f 1601/4/6 1584/4/6 1602/4/6
f 1585/4/6 1586/4/6 1603/4/6
f 1603/4/6 1586/4/6 1604/4/6
f 1587/4/6 1588/4/6 1605/4/6
f 1605/4/6 1588/4/6 1606/4/6
f 1589/4/6 1590/4/6 1607/4/6
f 1607/4/6 1590/4/6 1608/4/6
f 1591/4/6 1592/4/6 1609/4/6
f 1609/4/6 1592/4/6 1610/4/6
f 1593/4/6 1594/4/6 1611/4/6
f 1611/4/6 1594/4/6 1612/4/6
f 1595/4/6 1596/4/6 1613/4/6
f 1613/4/6 1596/4/6 1614/4/6
f 1579/4/6 1597/4/6 1616/4/6
f 1614/4/6 1596/4/6 1617/4/6
f 1615/4/6 1616/4/6 1619/4/6
f 1616/4/6 1597/4/6 1620/4/6
f 1619/4/6 1616/4/6 1620/4/6
f 1617/4/6 1618/4/6 1621/4/6
f 1614/4/6 1617/4/6 1621/4/6
f 1621/4/6 1618/4/6 1622/4/6
f 1623/4/6 1624/4/6 1627/4/6
f 1627/4/6 1624/4/6 1628/4/6
f 1625/4/6 1626/4/6 1629/4/6
f 1629/4/6 1626/4/6 1630/4/6
f 1631/4/6 1632/4/6 1635/4/6
f 1635/4/6 1632/4/6 1636/4/6
f 1633/4/6 1634/4/6 1637/4/6
f 1637/4/6 1634/4/6 1638/4/6
f 1639/4/6 1640/4/6 1643/4/6
f 1643/4/6 1640/4/6 1644/4/6
f 1641/4/6 1642/4/6 1645/4/6
f 1645/4/6 1642/4/6 1646/4/6
f 1647/4/6 1648/4/6 1651/4/6
f 1651/4/6 1648/4/6 1652/4/6
f 1649/4/6 1650/4/6 1653/4/6
f 1653/4/6 1650/4/6 1654/4/6
f 1655/4/6 1656/4/6 1659/4/6
f 1659/4/6 1656/4/6 1660/4/6
f 1657/4/6 1658/4/6 1661/4/6
f 1661/4/6 1658/4/6 1662/4/6
f 1663/4/6 1664/4/6 1667/4/6
f 1667/4/6 1664/4/6 1668/4/6
f 1665/4/6 1666/4/6 1669/4/6
f 1669/4/6 1666/4/6 1670/4/6
f 1668/4/6 1664/4/6 1671/4/6
f 1665/4/6 1669/4/6 1688/4/6
f 1668/4/6 1671/4/6 1689/4/6
f 1671/4/6 1672/4/6 1689/4/6
f 1689/4/6 1672/4/6 1690/4/6
f 1673/4/6 1674/4/6 1691/4/6
f 1691/4/6 1674/4/6 1692/4/6
f 1675/4/6 1676/4/6 1693/4/6
f 1693/4/6 1676/4/6 1694/4/6
f 1677/4/6 1678/4/6 1695/4/6
f 1695/4/6 1678/4/6 1696/4/6
f 1679/4/6 1680/4/6 1697/4/6
f 1697/4/6 1680/4/6 1698/4/6
f 1681/4/6 1682/4/6 1699/4/6
f 1699/4/6 1682/4/6 1700/4/6
f 1683/4/6 1684/4/6 1701/4/6
f 1701/4/6 1684/4/6 1702/4/6
f 1685/4/6 1686/4/6 1703/4/6
f 1703/4/6 1686/4/6 1704/4/6
f 1687/4/6 1688/4/6 1705/4/6
f 1688/4/6 1669/4/6 1706/4/6
f 1705/4/6 1688/4/6 1706/4/6
f 1707/4/6 1708/4/6 1709/4/6
f 1709/4/6 1708/4/6 1710/4/6
f 1710/4/6 1708/4/6 1711/4/6
f 1711/4/6 1708/4/6 1712/4/6
f 1712/4/6 1708/4/6 1713/4/6
f 1713/4/6 1708/4/6 1714/4/6
f 1707/4/6 1709/4/6 1715/4/6
f 1709/1/6 1710/1/6 1715/1/6
f 1710/3/6 1711/3/6 1716/3/6
f 1715/1/6 1710/1/6 1716/1/6
f 1711/4/6 1712/4/6 1717/4/6
f 1716/3/6 1711/3/6 1717/3/6
f 1712/3/6 1713/3/6 1718/3/6
f 1717/4/6 1712/4/6 1718/4/6
f 1713/1/6 1714/1/6 1719/1/6
f 1718/3/6 1713/3/6 1719/3/6
f 1714/4/6 1708/4/6 1720/4/6
f 1719/1/6 1714/1/6 1720/1/6
f 1718/4/6 1719/4/6 1721/4/6
f 1717/4/6 1718/4/6 1721/4/6
f 1716/4/6 1717/4/6 1721/4/6
f 1721/4/6 1719/4/6 1722/4/6
f 1722/4/6 1719/4/6 1723/4/6
f 1723/4/6 1719/4/6 1724/4/6
f 1724/4/6 1719/4/6 1725/4/6
f 1725/4/6 1719/4/6 1726/4/6
f 1726/4/6 1719/4/6 1727/4/6
f 1727/4/6 1719/4/6 1728/4/6
f 1728/4/6 1719/4/6 1729/4/6
f 1729/4/6 1719/4/6 1730/4/6
f 1730/4/6 1719/4/6 1731/4/6
f 1731/4/6 1719/4/6 1732/4/6
f 1716/4/6 1721/4/6 1733/4/6
f 1732/4/6 1719/4/6 1734/4/6
f 1716/4/6 1733/4/6 1735/4/6
f 1735/4/6 1733/4/6 1736/4/6
f 1736/4/6 1733/4/6 1737/4/6
f 1734/4/6 1719/4/6 1738/4/6
f 1738/4/6 1719/4/6 1739/4/6
f 1739/4/6 1719/4/6 1740/4/6
f 1707/4/6 1715/4/6 1741/4/6
f 1715/3/6 1716/3/6 1741/3/6
f 1716/4/6 1735/4/6 1742/4/6
f 1741/3/6 1716/3/6 1742/3/6
f 1719/3/6 1720/3/6 1743/3/6
f 1740/4/6 1719/4/6 1743/4/6
f 1720/4/6 1708/4/6 1744/4/6
f 1743/3/6 1720/3/6 1744/3/6
f 1742/4/6 1735/4/6 1745/4/6
f 1741/4/6 1742/4/6 1745/4/6
f 1740/4/6 1743/4/6 1746/4/6
f 1743/4/6 1744/4/6 1746/4/6
f 1741/4/6 1745/4/6 1747/4/6
f 1746/4/6 1744/4/6 1748/4/6
f 1741/4/6 1747/4/6 1749/4/6
f 1748/4/6 1744/4/6 1750/4/6
f 1741/4/6 1749/4/6 1751/4/6
f 1750/4/6 1744/4/6 1752/4/6
f 1741/4/6 1751/4/6 1753/4/6
f 1752/4/6 1744/4/6 1754/4/6
f 1741/4/6 1753/4/6 1755/4/6
f 1754/4/6 1744/4/6 1756/4/6
f 1741/4/6 1755/4/6 1757/4/6
f 1756/4/6 1744/4/6 1758/4/6
f 1741/4/6 1757/4/6 1759/4/6
f 1758/4/6 1744/4/6 1760/4/6
f 1741/4/6 1759/4/6 1761/4/6
f 1707/4/6 1741/4/6 1761/4/6
f 1761/4/6 1759/4/6 1762/4/6
f 1760/4/6 1744/4/6 1763/4/6
f 1744/4/6 1708/4/6 1764/4/6
f 1763/4/6 1744/4/6 1764/4/6
f 1762/4/6 1759/4/6 1765/4/6
f 1760/4/6 1763/4/6 1770/4/6
f 1765/4/6 1766/4/6 1771/4/6
f 1766/4/6 1767/4/6 1771/4/6
f 1768/4/6 1769/4/6 1772/4/6
f 1769/4/6 1770/4/6 1772/4/6
f 1765/4/6 1771/4/6 1773/4/6
f 1772/4/6 1770/4/6 1784/4/6
f 1707/4/6 1761/4/6 1785/4/6
f 1761/3/6 1762/3/6 1785/3/6
f 1782/4/6 1783/4/6 1786/4/6
f 1785/3/6 1762/3/6 1786/3/6
f 1783/4/6 1784/4/6 1786/4/6
f 1762/4/6 1765/4/6 1786/4/6
f 1781/4/6 1782/4/6 1786/4/6
f 1780/4/6 1781/4/6 1786/4/6
f 1779/4/6 1780/4/6 1786/4/6
f 1778/4/6 1779/4/6 1786/4/6
f 1777/4/6 1778/4/6 1786/4/6
f 1776/4/6 1777/4/6 1786/4/6
f 1775/4/6 1776/4/6 1786/4/6
f 1774/4/6 1775/4/6 1786/4/6
f 1773/4/6 1774/4/6 1786/4/6
f 1765/4/6 1773/4/6 1786/4/6
f 1786/4/6 1784/4/6 1787/4/6
f 1787/4/6 1784/4/6 1788/4/6
f 1784/4/6 1770/4/6 1789/4/6
f 1788/4/6 1784/4/6 1789/4/6
f 1763/3/6 1764/3/6 1789/3/6
f 1770/4/6 1763/4/6 1789/4/6
f 1764/4/6 1708/4/6 1790/4/6
f 1789/3/6 1764/3/6 1790/3/6
f 1707/4/6 1785/4/6 1791/4/6
f 1785/1/6 1786/1/6 1791/1/6
f 1786/3/6 1787/3/6 1792/3/6
f 1791/1/6 1786/1/6 1792/1/6
f 1787/4/6 1788/4/6 1793/4/6
f 1792/3/6 1787/3/6 1793/3/6
f 1788/3/6 1789/3/6 1794/3/6
f 1793/4/6 1788/4/6 1794/4/6
f 1789/1/6 1790/1/6 1795/1/6
f 1794/3/6 1789/3/6 1795/3/6
f 1790/4/6 1708/4/6 1796/4/6
f 1795/1/6 1790/1/6 1796/1/6
f 1792/4/6 1793/4/6 1797/4/6
f 1794/4/6 1795/4/6 1797/4/6
f 1795/4/6 1796/4/6 1797/4/6
f 1793/4/6 1794/4/6 1797/4/6
f 1791/4/6 1792/4/6 1797/4/6
f 1707/4/6 1791/4/6 1797/4/6
f 1796/4/6 1708/4/6 1798/4/6
f 1797/4/6 1796/4/6 1798/4/6
f 1799/6/6 1800/6/6 1811/6/6
f 1811/6/6 1800/6/6 1812/6/6
f 1800/7/6 1801/7/6 1813/7/6
f 1812/6/6 1800/6/6 1813/6/6
f 1801/6/6 1802/6/6 1814/6/6
f 1813/7/6 1801/7/6 1814/7/6
f 1802/7/6 1803/7/6 1815/7/6
f 1814/6/6 1802/6/6 1815/6/6
f 1803/6/6 1804/6/6 1816/6/6
f 1815/7/6 1803/7/6 1816/7/6
f 1804/7/6 1805/7/6 1817/7/6
f 1816/6/6 1804/6/6 1817/6/6
f 1805/6/6 1806/6/6 1818/6/6
f 1817/7/6 1805/7/6 1818/7/6
f 1806/7/6 1807/7/6 1819/7/6
f 1818/6/6 1806/6/6 1819/6/6
f 1807/6/6 1808/6/6 1820/6/6
f 1819/7/6 1807/7/6 1820/7/6
f 1808/7/6 1809/7/6 1821/7/6
f 1820/6/6 1808/6/6 1821/6/6
f 1809/6/6 1810/6/6 1822/6/6
f 1821/7/6 1809/7/6 1822/7/6
f 1822/6/6 1810/6/6 1823/6/6
f 1823/6/6 1810/6/6 1824/6/6
f 1811/7/6 1812/7/6 1827/7/6
f 1823/7/6 1824/7/6 1828/7/6
f 1825/6/6 1826/6/6 1831/6/6
f 1826/7/6 1827/7/6 1831/7/6
f 1827/7/6 1812/7/6 1832/7/6
f 1831/7/6 1827/7/6 1832/7/6
f 1823/7/6 1828/7/6 1833/7/6
f 1828/7/6 1829/7/6 1833/7/6
f 1829/6/6 1830/6/6 1834/6/6
f 1833/7/6 1829/7/6 1834/7/6
f 1825/6/6 1831/6/6 1835/6/6
f 1835/6/6 1831/6/6 1836/6/6
f 1834/6/6 1830/6/6 1837/6/6
f 1837/6/6 1830/6/6 1838/6/6
f 1835/7/6 1836/7/6 1839/7/6
f 1839/7/6 1836/7/6 1840/7/6
f 1837/7/6 1838/7/6 1841/7/6
f 1841/7/6 1838/7/6 1842/7/6
f 1839/6/6 1840/6/6 1843/6/6
f 1843/6/6 1840/6/6 1844/6/6
f 1841/6/6 1842/6/6 1845/6/6
f 1845/6/6 1842/6/6 1846/6/6
f 1843/7/6 1844/7/6 1847/7/6
f 1847/7/6 1844/7/6 1848/7/6
f 1845/7/6 1846/7/6 1849/7/6
f 1849/7/6 1846/7/6 1850/7/6
f 1847/6/6 1848/6/6 1851/6/6
f 1851/6/6 1848/6/6 1852/6/6
f 1849/6/6 1850/6/6 1853/6/6
f 1853/6/6 1850/6/6 1854/6/6
f 1851/7/6 1852/7/6 1855/7/6
f 1855/7/6 1852/7/6 1856/7/6
f 1853/7/6 1854/7/6 1857/7/6
f 1857/7/6 1854/7/6 1858/7/6
f 1855/6/6 1856/6/6 1859/6/6
f 1859/6/6 1856/6/6 1860/6/6
f 1857/6/6 1858/6/6 1861/6/6
f 1861/6/6 1858/6/6 1862/6/6
f 1859/7/6 1860/7/6 1863/7/6
f 1863/7/6 1860/7/6 1864/7/6
f 1861/7/6 1862/7/6 1865/7/6
f 1865/7/6 1862/7/6 1866/7/6
f 1863/6/6 1864/6/6 1867/6/6
f 1865/6/6 1866/6/6 1870/6/6
f 1863/6/6 1867/6/6 1871/6/6
f 1867/7/6 1868/7/6 1872/7/6
f 1871/6/6 1867/6/6 1872/6/6
f 1872/7/6 1868/7/6 1873/7/6
f 1869/7/6 1870/7/6 1874/7/6
f 1870/6/6 1866/6/6 1875/6/6
f 1874/7/6 1870/7/6 1875/7/6
f 1875/6/6 1866/6/6 1876/6/6
f 1873/7/6 1868/7/6 1877/7/6
f 1877/7/6 1868/7/6 1878/7/6
f 1869/7/6 1874/7/6 1889/7/6
f 1889/7/6 1874/7/6 1890/7/6
f 1877/6/6 1878/6/6 1891/6/6
f 1878/6/6 1879/6/6 1891/6/6
f 1879/7/6 1880/7/6 1892/7/6
f 1891/6/6 1879/6/6 1892/6/6
f 1880/6/6 1881/6/6 1893/6/6
f 1892/7/6 1880/7/6 1893/7/6
f 1881/7/6 1882/7/6 1894/7/6
f 1893/6/6 1881/6/6 1894/6/6
f 1882/6/6 1883/6/6 1895/6/6
f 1894/7/6 1882/7/6 1895/7/6
f 1883/7/6 1884/7/6 1896/7/6
f 1895/6/6 1883/6/6 1896/6/6
f 1884/6/6 1885/6/6 1897/6/6
f 1896/7/6 1884/7/6 1897/7/6
f 1885/7/6 1886/7/6 1898/7/6
f 1897/6/6 1885/6/6 1898/6/6
f 1886/6/6 1887/6/6 1899/6/6
f 1898/7/6 1886/7/6 1899/7/6
f 1887/7/6 1888/7/6 1900/7/6
f 1899/6/6 1887/6/6 1900/6/6
f 1889/6/6 1890/6/6 1901/6/6
f 1900/7/6 1888/7/6 1901/7/6
f 1888/6/6 1889/6/6 1901/6/6
f 1901/6/6 1890/6/6 1902/6/6
f 1903/4/6 1904/4/6 1906/4/6
f 1906/4/6 1904/4/6 1907/4/6
f 1907/4/6 1904/4/6 1908/4/6
f 1908/4/6 1904/4/6 1909/4/6
f 1905/4/6 1906/4/6 1911/4/6
f 1906/4/6 1907/4/6 1911/4/6
f 1911/4/6 1907/4/6 1912/4/6
f 1909/4/6 1910/4/6 1913/4/6
f 1908/4/6 1909/4/6 1913/4/6
f 1913/4/6 1910/4/6 1914/4/6
f 1905/4/6 1911/4/6 1915/4/6
f 1914/4/6 1910/4/6 1918/4/6
f 1915/4/6 1916/4/6 1919/4/6
f 1905/4/6 1915/4/6 1919/4/6
f 1919/4/6 1916/4/6 1920/4/6
f 1920/4/6 1916/4/6 1921/4/6
f 1917/4/6 1918/4/6 1922/4/6
f 1918/4/6 1910/4/6 1923/4/6
f 1922/4/6 1918/4/6 1923/4/6
f 1923/4/6 1910/4/6 1924/4/6
f 1920/4/6 1921/4/6 1925/4/6
f 1921/4/6 1922/4/6 1925/4/6
f 1922/4/6 1923/4/6 1925/4/6
f 1925/4/6 1923/4/6 1926/4/6
f 1927/4/6 1928/4/6 1930/4/6
f 1930/4/6 1928/4/6 1931/4/6
f 1931/4/6 1928/4/6 1932/4/6
f 1932/4/6 1928/4/6 1933/4/6
f 1929/4/6 1930/4/6 1935/4/6
f 1930/4/6 1931/4/6 1935/4/6
f 1935/4/6 1931/4/6 1936/4/6
f 1936/4/6 1931/4/6 1937/4/6
f 1937/4/6 1931/4/6 1938/4/6
f 1938/4/6 1931/4/6 1939/4/6
f 1931/3/6 1932/3/6 1940/3/6
f 1939/4/6 1931/4/6 1940/4/6
f 1933/4/6 1934/4/6 1941/4/6
f 1940/3/6 1932/3/6 1941/3/6
f 1932/4/6 1933/4/6 1941/4/6
f 1941/4/6 1934/4/6 1942/4/6
f 1939/3/6 1940/3/6 1943/3/6
f 1938/4/6 1939/4/6 1943/4/6
f 1940/1/6 1941/1/6 1944/1/6
f 1943/3/6 1940/3/6 1944/3/6
f 1941/3/6 1942/3/6 1945/3/6
f 1944/1/6 1941/1/6 1945/1/6
f 1942/4/6 1934/4/6 1946/4/6
f 1945/3/6 1942/3/6 1946/3/6
f 1929/4/6 1935/4/6 1947/4/6
f 1935/3/6 1936/3/6 1948/3/6
f 1947/4/6 1935/4/6 1948/4/6
f 1936/4/6 1937/4/6 1949/4/6
f 1948/3/6 1936/3/6 1949/3/6
f 1937/3/6 1938/3/6 1950/3/6
f 1949/4/6 1937/4/6 1950/4/6
f 1943/4/6 1944/4/6 1951/4/6
f 1950/3/6 1938/3/6 1951/3/6
f 1938/4/6 1943/4/6 1951/4/6
f 1951/4/6 1944/4/6 1952/4/6
f 1929/4/6 1947/4/6 1953/4/6
f 1947/3/6 1948/3/6 1953/3/6
f 1948/1/6 1949/1/6 1954/1/6
f 1953/3/6 1948/3/6 1954/3/6
f 1949/3/6 1950/3/6 1955/3/6
f 1954/1/6 1949/1/6 1955/1/6
f 1950/1/6 1951/1/6 1956/1/6
f 1955/3/6 1950/3/6 1956/3/6
f 1951/3/6 1952/3/6 1957/3/6
f 1956/1/6 1951/1/6 1957/1/6
f 1952/4/6 1944/4/6 1958/4/6
f 1957/3/6 1952/3/6 1958/3/6
f 1944/3/6 1945/3/6 1959/3/6
f 1958/4/6 1944/4/6 1959/4/6
f 1957/4/6 1958/4/6 1959/4/6
f 1945/4/6 1946/4/6 1960/4/6
f 1959/3/6 1945/3/6 1960/3/6
f 1929/4/6 1953/4/6 1961/4/6
f 1953/4/6 1954/4/6 1961/4/6
f 1961/4/6 1954/4/6 1962/4/6
f 1962/4/6 1954/4/6 1963/4/6
f 1954/3/6 1955/3/6 1964/3/6
f 1963/4/6 1954/4/6 1964/4/6
f 1955/4/6 1956/4/6 1965/4/6
f 1964/3/6 1955/3/6 1965/3/6
f 1956/3/6 1957/3/6 1966/3/6
f 1965/4/6 1956/4/6 1966/4/6
f 1959/4/6 1960/4/6 1967/4/6
f 1966/3/6 1957/3/6 1967/3/6
f 1957/4/6 1959/4/6 1967/4/6
f 1967/4/6 1960/4/6 1968/4/6
f 1962/4/6 1963/4/6 1969/4/6
f 1963/3/6 1964/3/6 1969/3/6
f 1964/1/6 1965/1/6 1970/1/6
f 1969/3/6 1964/3/6 1970/3/6
f 1965/3/6 1966/3/6 1971/3/6
f 1970/1/6 1965/1/6 1971/1/6
f 1966/1/6 1967/1/6 1972/1/6
f 1971/3/6 1966/3/6 1972/3/6
f 1967/3/6 1968/3/6 1973/3/6
f 1972/1/6 1967/1/6 1973/1/6
f 1968/4/6 1960/4/6 1974/4/6
f 1973/3/6 1968/3/6 1974/3/6
f 1969/4/6 1970/4/6 1975/4/6
f 1970/3/6 1971/3/6 1975/3/6
f 1971/4/6 1972/4/6 1976/4/6
f 1975/3/6 1971/3/6 1976/3/6
f 1972/3/6 1973/3/6 1977/3/6
f 1976/4/6 1972/4/6 1977/4/6
f 1973/4/6 1974/4/6 1978/4/6
f 1977/3/6 1973/3/6 1978/3/6
f 1961/3/6 1962/3/6 1979/3/6
f 1929/4/6 1961/4/6 1979/4/6
f 1975/4/6 1976/4/6 1980/4/6
f 1979/3/6 1962/3/6 1980/3/6
f 1962/4/6 1969/4/6 1980/4/6
f 1976/4/6 1977/4/6 1980/4/6
f 1977/4/6 1978/4/6 1980/4/6
f 1969/4/6 1975/4/6 1980/4/6
f 1980/4/6 1978/4/6 1981/4/6
f 1929/4/6 1979/4/6 1982/4/6
f 1982/4/6 1979/4/6 1983/4/6
f 1979/1/6 1980/1/6 1984/1/6
f 1983/4/6 1979/4/6 1984/4/6
f 1980/3/6 1981/3/6 1985/3/6
f 1984/1/6 1980/1/6 1985/1/6
f 1981/4/6 1978/4/6 1986/4/6
f 1985/3/6 1981/3/6 1986/3/6
f 1960/4/6 1946/4/6 1987/4/6
f 1986/4/6 1978/4/6 1987/4/6
f 1974/4/6 1960/4/6 1987/4/6
f 1978/4/6 1974/4/6 1987/4/6
f 1946/4/6 1934/4/6 1988/4/6
f 1987/4/6 1946/4/6 1988/4/6
f 1984/4/6 1985/4/6 1989/4/6
f 1985/4/6 1986/4/6 1989/4/6
f 1983/4/6 1984/4/6 1989/4/6
f 1986/4/6 1987/4/6 1989/4/6
f 1989/4/6 1987/4/6 1990/4/6
