# MagicaVoxel @ Ephtracy

# group
o 

# material
mtllib model-0.mtl
usemtl palette

# normals
vn 0 0 1
vn 0 0 -1
vn 1 0 0
vn -1 0 0
vn 0 -1 0
vn 0 1 0

# texcoords
vt 0.00195313 0.5
vt 0.0292969 0.5
vt 0.822266 0.5

# verts
v 0.9 3.8 1.1
v -0.7 3.8 1.1
v 0.9 5.9 1.1
v -0.7 5.9 1.1
v 0.9 3.7 1
v -0.7 3.7 1
v 0.9 3.8 1
v -0.7 3.8 1
v 1 5.4 1
v 0.9 5.4 1
v 1 5.5 1
v 0.9 5.5 1
v 1 5.3 0.6
v 0.9 5.3 0.6
v 1 5.4 0.6
v 0.9 5.4 0.6
v 0.3 3.6 0.3
v -0.3 3.6 0.3
v 0.3 3.7 0.3
v -0.3 3.7 0.3
v 1 5.4 -0.3
v 0.9 5.4 -0.3
v 1 5.5 -0.3
v 0.9 5.5 -0.3
v 1 5.4 0.5
v 0.9 5.4 0.5
v 1 5.5 0.5
v 0.9 5.5 0.5
v 1 5.3 0.3
v 0.9 5.3 0.3
v 1 5.4 0.3
v 0.9 5.4 0.3
v 0.3 3.6 -0.3
v -0.3 3.6 -0.3
v 0.3 3.7 -0.3
v -0.3 3.7 -0.3
v 0.9 3.7 -1
v -0.7 3.7 -1
v 0.9 3.8 -1
v -0.7 3.8 -1
v 1 5.4 -1
v 0.9 5.4 -1
v 1 5.5 -1
v 0.9 5.5 -1
v 0.9 3.8 -1.1
v -0.7 3.8 -1.1
v 0.9 5.9 -1.1
v -0.7 5.9 -1.1
v 1 5.4 1
v 1 5.5 1
v 1 5.3 0.6
v 1 5.4 0.6
v 1 5.4 0.5
v 1 5.5 0.5
v 1 5.3 0.3
v 1 5.4 0.3
v 1 5.4 -0.3
v 1 5.5 -0.3
v 1 5.4 -1
v 1 5.5 -1
v 0.9 3.8 1.1
v 0.9 5.9 1.1
v 0.9 3.7 1
v 0.9 3.8 1
v 0.9 5.4 1
v 0.9 5.5 1
v 0.9 5.1 0.9
v 0.9 5.2 0.9
v 0.9 4.9 0.8
v 0.9 5 0.8
v 0.9 4.6 0.7
v 0.9 4.9 0.7
v 0.9 5 0.7
v 0.9 5.1 0.7
v 0.9 5 0.6
v 0.9 5.1 0.6
v 0.9 5.3 0.6
v 0.9 5.4 0.6
v 0.9 5 0.5
v 0.9 5.1 0.5
v 0.9 5.4 0.5
v 0.9 5.5 0.5
v 0.9 4 0.4
v 0.9 4.2 0.4
v 0.9 4.6 0.4
v 0.9 5.2 0.4
v 0.9 4.1 0.3
v 0.9 4.2 0.3
v 0.9 5.3 0.3
v 0.9 5.4 0.3
v 0.9 4.1 0.2
v 0.9 4.2 0.2
v 0.9 4.1 -0.2
v 0.9 4.2 -0.2
v 0.9 4.1 -0.3
v 0.9 4.2 -0.3
v 0.9 5.4 -0.3
v 0.9 5.5 -0.3
v 0.9 4 -0.4
v 0.9 4.2 -0.4
v 0.9 4.6 -0.4
v 0.9 5.2 -0.4
v 0.9 5 -0.5
v 0.9 5.1 -0.5
v 0.9 5 -0.6
v 0.9 5.1 -0.6
v 0.9 4.6 -0.7
v 0.9 4.9 -0.7
v 0.9 5 -0.7
v 0.9 5.1 -0.7
v 0.9 4.9 -0.8
v 0.9 5 -0.8
v 0.9 5.1 -0.9
v 0.9 5.2 -0.9
v 0.9 3.7 -1
v 0.9 3.8 -1
v 0.9 5.4 -1
v 0.9 5.5 -1
v 0.9 3.8 -1.1
v 0.9 5.9 -1.1
v 0.3 3.6 0.3
v 0.3 3.7 0.3
v 0.3 3.6 -0.3
v 0.3 3.7 -0.3
v -0.3 3.6 0.3
v -0.3 3.7 0.3
v -0.3 3.6 -0.3
v -0.3 3.7 -0.3
v -0.7 3.8 1.1
v -0.7 5.9 1.1
v -0.7 3.7 1
v -0.7 3.8 1
v -0.7 3.7 -1
v -0.7 3.8 -1
v -0.7 3.8 -1.1
v -0.7 5.9 -1.1
v 0.3 3.6 0.3
v 0.3 3.6 -0.3
v -0.3 3.6 0.3
v -0.3 3.6 -0.3
v 0.9 3.7 1
v 0.9 3.7 -1
v 0.3 3.7 0.3
v 0.3 3.7 -0.3
v -0.3 3.7 0.3
v -0.3 3.7 -0.3
v -0.7 3.7 1
v -0.7 3.7 -1
v 0.9 3.8 1.1
v 0.9 3.8 1
v 0.9 3.8 -1
v 0.9 3.8 -1.1
v -0.7 3.8 1.1
v -0.7 3.8 1
v -0.7 3.8 -1
v -0.7 3.8 -1.1
v 1 5.3 0.6
v 1 5.3 0.3
v 0.9 5.3 0.6
v 0.9 5.3 0.3
v 1 5.4 1
v 1 5.4 0.6
v 1 5.4 -0.3
v 1 5.4 -1
v 0.9 5.4 1
v 0.9 5.4 0.6
v 0.9 5.4 -0.3
v 0.9 5.4 -1
v 1 5.4 0.5
v 1 5.4 0.3
v 0.9 5.4 0.5
v 0.9 5.4 0.3
v 1 5.5 1
v 1 5.5 0.5
v 1 5.5 -0.3
v 1 5.5 -1
v 0.9 5.5 1
v 0.9 5.5 0.5
v 0.9 5.5 -0.3
v 0.9 5.5 -1
v 0.9 5.9 1.1
v 0.9 5.9 -1.1
v -0.7 5.9 1.1
v -0.7 5.9 -1.1

# faces
f 3/2/1 2/2/1 1/2/1
f 4/2/1 2/2/1 3/2/1
f 7/2/1 6/2/1 5/2/1
f 8/2/1 6/2/1 7/2/1
f 11/3/1 10/3/1 9/3/1
f 12/3/1 10/3/1 11/3/1
f 15/3/1 14/3/1 13/3/1
f 16/3/1 14/3/1 15/3/1
f 19/2/1 18/2/1 17/2/1
f 20/2/1 18/2/1 19/2/1
f 23/3/1 22/3/1 21/3/1
f 24/3/1 22/3/1 23/3/1
f 25/3/2 26/3/2 27/3/2
f 27/3/2 26/3/2 28/3/2
f 29/3/2 30/3/2 31/3/2
f 31/3/2 30/3/2 32/3/2
f 33/2/2 34/2/2 35/2/2
f 35/2/2 34/2/2 36/2/2
f 37/2/2 38/2/2 39/2/2
f 39/2/2 38/2/2 40/2/2
f 41/3/2 42/3/2 43/3/2
f 43/3/2 42/3/2 44/3/2
f 45/2/2 46/2/2 47/2/2
f 47/2/2 46/2/2 48/2/2
f 52/3/3 50/3/3 49/3/3
f 53/3/3 50/3/3 52/3/3
f 53/3/3 52/3/3 51/3/3
f 54/3/3 50/3/3 53/3/3
f 55/3/3 53/3/3 51/3/3
f 56/3/3 53/3/3 55/3/3
f 59/3/3 58/3/3 57/3/3
f 60/3/3 58/3/3 59/3/3
f 64/2/3 62/2/3 61/2/3
f 65/2/3 62/2/3 64/2/3
f 66/2/3 62/2/3 65/2/3
f 67/2/3 64/2/3 63/2/3
f 67/2/3 65/2/3 64/2/3
f 68/2/3 65/2/3 67/2/3
f 69/2/3 67/2/3 63/2/3
f 70/2/3 67/2/3 69/2/3
f 71/2/3 69/2/3 63/2/3
f 72/1/3 70/1/3 69/1/3
f 72/2/3 69/2/3 71/2/3
f 73/2/3 67/2/3 70/2/3
f 73/1/3 70/1/3 72/1/3
f 74/1/3 68/1/3 67/1/3
f 74/2/3 67/2/3 73/2/3
f 75/1/3 73/1/3 72/1/3
f 75/1/3 72/1/3 71/1/3
f 75/1/3 74/1/3 73/1/3
f 76/1/3 68/1/3 74/1/3
f 76/1/3 74/1/3 75/1/3
f 77/2/3 65/2/3 68/2/3
f 78/2/3 65/2/3 77/2/3
f 79/1/3 75/1/3 71/1/3
f 79/2/3 76/2/3 75/2/3
f 80/1/3 68/1/3 76/1/3
f 80/2/3 76/2/3 79/2/3
f 82/2/3 62/2/3 66/2/3
f 83/2/3 71/2/3 63/2/3
f 84/2/3 71/2/3 83/2/3
f 85/1/3 79/1/3 71/1/3
f 85/2/3 71/2/3 84/2/3
f 85/1/3 80/1/3 79/1/3
f 86/1/3 68/1/3 80/1/3
f 86/1/3 80/1/3 85/1/3
f 86/2/3 77/2/3 68/2/3
f 87/1/3 84/1/3 83/1/3
f 88/2/3 85/2/3 84/2/3
f 88/1/3 84/1/3 87/1/3
f 88/2/3 86/2/3 85/2/3
f 89/2/3 77/2/3 86/2/3
f 89/2/3 86/2/3 88/2/3
f 90/2/3 82/2/3 81/2/3
f 91/1/3 87/1/3 83/1/3
f 91/2/3 90/2/3 89/2/3
f 91/2/3 88/2/3 87/2/3
f 91/2/3 89/2/3 88/2/3
f 92/2/3 90/2/3 91/2/3
f 93/1/3 91/1/3 83/1/3
f 93/1/3 92/1/3 91/1/3
f 94/2/3 90/2/3 92/2/3
f 94/1/3 92/1/3 93/1/3
f 95/1/3 93/1/3 83/1/3
f 95/2/3 94/2/3 93/2/3
f 96/2/3 90/2/3 94/2/3
f 96/2/3 94/2/3 95/2/3
f 97/2/3 82/2/3 90/2/3
f 97/2/3 90/2/3 96/2/3
f 98/2/3 62/2/3 82/2/3
f 98/2/3 82/2/3 97/2/3
f 99/1/3 96/1/3 95/1/3
f 99/2/3 83/2/3 63/2/3
f 99/1/3 95/1/3 83/1/3
f 100/2/3 97/2/3 96/2/3
f 100/1/3 96/1/3 99/1/3
f 101/2/3 97/2/3 100/2/3
f 102/2/3 97/2/3 101/2/3
f 103/1/3 102/1/3 101/1/3
f 104/1/3 102/1/3 103/1/3
f 105/1/3 103/1/3 101/1/3
f 105/2/3 104/2/3 103/2/3
f 106/1/3 102/1/3 104/1/3
f 106/2/3 104/2/3 105/2/3
f 107/2/3 100/2/3 99/2/3
f 107/2/3 101/2/3 100/2/3
f 107/1/3 106/1/3 105/1/3
f 107/1/3 105/1/3 101/1/3
f 108/1/3 106/1/3 107/1/3
f 109/1/3 106/1/3 108/1/3
f 110/1/3 102/1/3 106/1/3
f 110/1/3 106/1/3 109/1/3
f 111/1/3 109/1/3 108/1/3
f 111/2/3 108/2/3 107/2/3
f 112/2/3 110/2/3 109/2/3
f 112/1/3 109/1/3 111/1/3
f 113/1/3 102/1/3 110/1/3
f 113/2/3 110/2/3 112/2/3
f 113/2/3 112/2/3 111/2/3
f 114/2/3 97/2/3 102/2/3
f 114/1/3 102/1/3 113/1/3
f 115/2/3 99/2/3 63/2/3
f 115/2/3 111/2/3 107/2/3
f 115/2/3 114/2/3 113/2/3
f 115/2/3 107/2/3 99/2/3
f 115/2/3 113/2/3 111/2/3
f 116/2/3 114/2/3 115/2/3
f 117/2/3 97/2/3 114/2/3
f 117/2/3 114/2/3 116/2/3
f 118/2/3 62/2/3 98/2/3
f 119/2/3 117/2/3 116/2/3
f 119/2/3 118/2/3 117/2/3
f 120/2/3 62/2/3 118/2/3
f 120/2/3 118/2/3 119/2/3
f 123/2/3 122/2/3 121/2/3
f 124/2/3 122/2/3 123/2/3
f 125/2/4 126/2/4 127/2/4
f 127/2/4 126/2/4 128/2/4
f 129/2/4 130/2/4 132/2/4
f 131/2/4 132/2/4 133/2/4
f 132/2/4 130/2/4 134/2/4
f 133/2/4 132/2/4 134/2/4
f 134/2/4 130/2/4 135/2/4
f 135/2/4 130/2/4 136/2/4
f 139/2/5 138/2/5 137/2/5
f 140/2/5 138/2/5 139/2/5
f 143/2/5 142/2/5 141/2/5
f 144/2/5 142/2/5 143/2/5
f 145/2/5 143/2/5 141/2/5
f 146/2/5 142/2/5 144/2/5
f 147/2/5 145/2/5 141/2/5
f 147/2/5 146/2/5 145/2/5
f 148/2/5 142/2/5 146/2/5
f 148/2/5 146/2/5 147/2/5
f 153/2/5 150/2/5 149/2/5
f 154/2/5 150/2/5 153/2/5
f 155/2/5 152/2/5 151/2/5
f 156/2/5 152/2/5 155/2/5
f 159/3/5 158/3/5 157/3/5
f 160/3/5 158/3/5 159/3/5
f 165/3/5 162/3/5 161/3/5
f 166/3/5 162/3/5 165/3/5
f 167/3/5 164/3/5 163/3/5
f 168/3/5 164/3/5 167/3/5
f 169/3/6 170/3/6 171/3/6
f 171/3/6 170/3/6 172/3/6
f 173/3/6 174/3/6 177/3/6
f 177/3/6 174/3/6 178/3/6
f 175/3/6 176/3/6 179/3/6
f 179/3/6 176/3/6 180/3/6
f 181/2/6 182/2/6 183/2/6
f 183/2/6 182/2/6 184/2/6
