# MagicaVoxel @ Ephtracy

# group
o 

# material
mtllib model.mtl
usemtl palette

# normals
vn -1 0 0
vn 1 0 0
vn 0 0 1
vn 0 0 -1
vn 0 -1 0
vn 0 1 0

# texcoords
vt 0.501953 0.5
vt 0.513672 0.5
vt 0.517578 0.5

# verts
v -0.7 0.5 1.2
v -0.7 0.5 1.1
v -0.7 0.5 -1.1
v -0.7 0.5 -1.2
v -0.7 0.9 1.2
v -0.7 0.9 1.1
v -0.7 0.9 -1.1
v -0.7 0.9 -1.2
v 0.5 0.1 1
v 0.5 0.1 0.4
v 0.5 0.1 -0.4
v 0.5 0.1 -1
v 0.5 0.2 1.2
v 0.5 0.2 1
v 0.5 0.2 0.4
v 0.5 0.2 0.2
v 0.5 0.2 -0.2
v 0.5 0.2 -0.4
v 0.5 0.2 -1
v 0.5 0.2 -1.2
v 0.5 0.3 1.1
v 0.5 0.3 1
v 0.5 0.3 0.4
v 0.5 0.3 0.3
v 0.5 0.3 -0.3
v 0.5 0.3 -0.4
v 0.5 0.3 -1
v 0.5 0.3 -1.1
v 0.5 0.4 1.3
v 0.5 0.4 1.2
v 0.5 0.4 1.1
v 0.5 0.4 0.3
v 0.5 0.4 0.2
v 0.5 0.4 0.1
v 0.5 0.4 -0.0999999
v 0.5 0.4 -0.2
v 0.5 0.4 -0.3
v 0.5 0.4 -1.1
v 0.5 0.4 -1.2
v 0.5 0.4 -1.3
v 0.5 0.7 1.2
v 0.5 0.7 1.1
v 0.5 0.7 0.1
v 0.5 0.7 -0.0999999
v 0.5 0.7 -1.1
v 0.5 0.7 -1.2
v 0.5 0.9 1.3
v 0.5 0.9 1.2
v 0.5 0.9 1.1
v 0.5 0.9 0.3
v 0.5 0.9 0.2
v 0.5 0.9 -0.2
v 0.5 0.9 -0.3
v 0.5 0.9 -1.1
v 0.5 0.9 -1.2
v 0.5 0.9 -1.3
v 0.5 1 1.1
v 0.5 1 1
v 0.5 1 0.4
v 0.5 1 0.3
v 0.5 1 -0.3
v 0.5 1 -0.4
v 0.5 1 -1
v 0.5 1 -1.1
v 0.5 1.1 1.2
v 0.5 1.1 1
v 0.5 1.1 0.4
v 0.5 1.1 0.2
v 0.5 1.1 -0.2
v 0.5 1.1 -0.4
v 0.5 1.1 -1
v 0.5 1.1 -1.2
v 0.5 1.2 1
v 0.5 1.2 0.4
v 0.5 1.2 -0.4
v 0.5 1.2 -1
v 0.6 0 0.9
v 0.6 0 0.8
v 0.6 0 0.6
v 0.6 0 0.5
v 0.6 0 -0.5
v 0.6 0 -0.6
v 0.6 0 -0.8
v 0.6 0 -0.9
v 0.6 0.1 0.9
v 0.6 0.1 0.8
v 0.6 0.1 0.6
v 0.6 0.1 0.5
v 0.6 0.1 -0.5
v 0.6 0.1 -0.6
v 0.6 0.1 -0.8
v 0.6 0.1 -0.9
v 0.6 1.2 0.9
v 0.6 1.2 0.8
v 0.6 1.2 0.6
v 0.6 1.2 0.5
v 0.6 1.2 -0.5
v 0.6 1.2 -0.6
v 0.6 1.2 -0.8
v 0.6 1.2 -0.9
v 0.6 1.3 0.9
v 0.6 1.3 0.8
v 0.6 1.3 0.6
v 0.6 1.3 0.5
v 0.6 1.3 -0.5
v 0.6 1.3 -0.6
v 0.6 1.3 -0.8
v 0.6 1.3 -0.9
v -0.5 0.5 1.2
v -0.5 0.5 1.1
v -0.5 0.5 -1.1
v -0.5 0.5 -1.2
v -0.5 0.7 1.2
v -0.5 0.7 1.1
v -0.5 0.7 -1.1
v -0.5 0.7 -1.2
v 0.6 0.2 1
v 0.6 0.2 0.9
v 0.6 0.2 0.8
v 0.6 0.2 0.6
v 0.6 0.2 0.5
v 0.6 0.2 0.4
v 0.6 0.2 -0.4
v 0.6 0.2 -0.5
v 0.6 0.2 -0.6
v 0.6 0.2 -0.8
v 0.6 0.2 -0.9
v 0.6 0.2 -1
v 0.6 0.3 1.1
v 0.6 0.3 1
v 0.6 0.3 0.9
v 0.6 0.3 0.8
v 0.6 0.3 0.6
v 0.6 0.3 0.5
v 0.6 0.3 0.4
v 0.6 0.3 0.3
v 0.6 0.3 -0.3
v 0.6 0.3 -0.4
v 0.6 0.3 -0.5
v 0.6 0.3 -0.6
v 0.6 0.3 -0.8
v 0.6 0.3 -0.9
v 0.6 0.3 -1
v 0.6 0.3 -1.1
v 0.6 0.4 1.2
v 0.6 0.4 1.1
v 0.6 0.4 0.8
v 0.6 0.4 0.6
v 0.6 0.4 0.3
v 0.6 0.4 0.2
v 0.6 0.4 -0.2
v 0.6 0.4 -0.3
v 0.6 0.4 -0.6
v 0.6 0.4 -0.8
v 0.6 0.4 -1.1
v 0.6 0.4 -1.2
v 0.6 0.6 0.8
v 0.6 0.6 0.6
v 0.6 0.6 0.5
v 0.6 0.6 0.4
v 0.6 0.6 -0.6
v 0.6 0.6 -0.8
v 0.6 0.6 -0.9
v 0.6 0.6 -1
v 0.6 0.7 0.8
v 0.6 0.7 0.6
v 0.6 0.7 0.5
v 0.6 0.7 0.4
v 0.6 0.7 0.1
v 0.6 0.7 -0.0999999
v 0.6 0.7 -0.6
v 0.6 0.7 -0.8
v 0.6 0.7 -0.9
v 0.6 0.7 -1
v 0.6 0.9 1.2
v 0.6 0.9 1.1
v 0.6 0.9 0.8
v 0.6 0.9 0.6
v 0.6 0.9 0.3
v 0.6 0.9 0.2
v 0.6 0.9 0.1
v 0.6 0.9 -0.0999999
v 0.6 0.9 -0.2
v 0.6 0.9 -0.3
v 0.6 0.9 -0.6
v 0.6 0.9 -0.8
v 0.6 0.9 -1.1
v 0.6 0.9 -1.2
v 0.6 1 1.1
v 0.6 1 1
v 0.6 1 0.9
v 0.6 1 0.8
v 0.6 1 0.6
v 0.6 1 0.5
v 0.6 1 0.4
v 0.6 1 0.3
v 0.6 1 -0.3
v 0.6 1 -0.4
v 0.6 1 -0.5
v 0.6 1 -0.6
v 0.6 1 -0.8
v 0.6 1 -0.9
v 0.6 1 -1
v 0.6 1 -1.1
v 0.6 1.1 1
v 0.6 1.1 0.9
v 0.6 1.1 0.8
v 0.6 1.1 0.6
v 0.6 1.1 0.5
v 0.6 1.1 0.4
v 0.6 1.1 -0.4
v 0.6 1.1 -0.5
v 0.6 1.1 -0.6
v 0.6 1.1 -0.8
v 0.6 1.1 -0.9
v 0.6 1.1 -1
v 0.7 0 0.9
v 0.7 0 0.8
v 0.7 0 0.6
v 0.7 0 0.5
v 0.7 0 -0.5
v 0.7 0 -0.6
v 0.7 0 -0.8
v 0.7 0 -0.9
v 0.7 0.1 1
v 0.7 0.1 0.9
v 0.7 0.1 0.8
v 0.7 0.1 0.6
v 0.7 0.1 0.5
v 0.7 0.1 0.4
v 0.7 0.1 -0.4
v 0.7 0.1 -0.5
v 0.7 0.1 -0.6
v 0.7 0.1 -0.8
v 0.7 0.1 -0.9
v 0.7 0.1 -1
v 0.7 0.2 1.2
v 0.7 0.2 1
v 0.7 0.2 0.9
v 0.7 0.2 0.8
v 0.7 0.2 0.6
v 0.7 0.2 0.5
v 0.7 0.2 0.4
v 0.7 0.2 0.2
v 0.7 0.2 -0.2
v 0.7 0.2 -0.4
v 0.7 0.2 -0.5
v 0.7 0.2 -0.6
v 0.7 0.2 -0.8
v 0.7 0.2 -0.9
v 0.7 0.2 -1
v 0.7 0.2 -1.2
v 0.7 0.3 1.1
v 0.7 0.3 1
v 0.7 0.3 0.9
v 0.7 0.3 0.8
v 0.7 0.3 0.6
v 0.7 0.3 0.5
v 0.7 0.3 0.4
v 0.7 0.3 0.3
v 0.7 0.3 -0.3
v 0.7 0.3 -0.4
v 0.7 0.3 -0.5
v 0.7 0.3 -0.6
v 0.7 0.3 -0.8
v 0.7 0.3 -0.9
v 0.7 0.3 -1
v 0.7 0.3 -1.1
v 0.7 0.4 1.3
v 0.7 0.4 1.2
v 0.7 0.4 1.1
v 0.7 0.4 0.8
v 0.7 0.4 0.6
v 0.7 0.4 0.3
v 0.7 0.4 0.2
v 0.7 0.4 0.1
v 0.7 0.4 -0.0999999
v 0.7 0.4 -0.2
v 0.7 0.4 -0.3
v 0.7 0.4 -0.6
v 0.7 0.4 -0.8
v 0.7 0.4 -1.1
v 0.7 0.4 -1.2
v 0.7 0.4 -1.3
v 0.7 0.6 0.8
v 0.7 0.6 0.6
v 0.7 0.6 0.5
v 0.7 0.6 0.4
v 0.7 0.6 -0.6
v 0.7 0.6 -0.8
v 0.7 0.6 -0.9
v 0.7 0.6 -1
v 0.7 0.7 0.8
v 0.7 0.7 0.6
v 0.7 0.7 0.5
v 0.7 0.7 0.4
v 0.7 0.7 -0.6
v 0.7 0.7 -0.8
v 0.7 0.7 -0.9
v 0.7 0.7 -1
v 0.7 0.9 1.3
v 0.7 0.9 1.2
v 0.7 0.9 1.1
v 0.7 0.9 0.8
v 0.7 0.9 0.6
v 0.7 0.9 0.3
v 0.7 0.9 0.2
v 0.7 0.9 0.1
v 0.7 0.9 -0.0999999
v 0.7 0.9 -0.2
v 0.7 0.9 -0.3
v 0.7 0.9 -0.6
v 0.7 0.9 -0.8
v 0.7 0.9 -1.1
v 0.7 0.9 -1.2
v 0.7 0.9 -1.3
v 0.7 1 1.1
v 0.7 1 1
v 0.7 1 0.9
v 0.7 1 0.8
v 0.7 1 0.6
v 0.7 1 0.5
v 0.7 1 0.4
v 0.7 1 0.3
v 0.7 1 -0.3
v 0.7 1 -0.4
v 0.7 1 -0.5
v 0.7 1 -0.6
v 0.7 1 -0.8
v 0.7 1 -0.9
v 0.7 1 -1
v 0.7 1 -1.1
v 0.7 1.1 1.2
v 0.7 1.1 1
v 0.7 1.1 0.9
v 0.7 1.1 0.8
v 0.7 1.1 0.6
v 0.7 1.1 0.5
v 0.7 1.1 0.4
v 0.7 1.1 0.2
v 0.7 1.1 -0.2
v 0.7 1.1 -0.4
v 0.7 1.1 -0.5
v 0.7 1.1 -0.6
v 0.7 1.1 -0.8
v 0.7 1.1 -0.9
v 0.7 1.1 -1
v 0.7 1.1 -1.2
v 0.7 1.2 1
v 0.7 1.2 0.9
v 0.7 1.2 0.8
v 0.7 1.2 0.6
v 0.7 1.2 0.5
v 0.7 1.2 0.4
v 0.7 1.2 -0.4
v 0.7 1.2 -0.5
v 0.7 1.2 -0.6
v 0.7 1.2 -0.8
v 0.7 1.2 -0.9
v 0.7 1.2 -1
v 0.7 1.3 0.9
v 0.7 1.3 0.8
v 0.7 1.3 0.6
v 0.7 1.3 0.5
v 0.7 1.3 -0.5
v 0.7 1.3 -0.6
v 0.7 1.3 -0.8
v 0.7 1.3 -0.9
v 0.5 0.4 1.3
v 0.5 0.9 1.3
v 0.7 0.4 1.3
v 0.7 0.9 1.3
v -0.7 0.5 1.2
v -0.7 0.9 1.2
v -0.5 0.5 1.2
v -0.5 0.7 1.2
v 0.5 0.2 1.2
v 0.5 0.4 1.2
v 0.5 0.7 1.2
v 0.5 0.9 1.2
v 0.5 1.1 1.2
v 0.7 0.2 1.2
v 0.7 0.4 1.2
v 0.7 0.9 1.2
v 0.7 1.1 1.2
v 0.5 0.1 1
v 0.5 0.2 1
v 0.5 1.1 1
v 0.5 1.2 1
v 0.6 0.3 1
v 0.6 1 1
v 0.7 0.1 1
v 0.7 0.2 1
v 0.7 0.3 1
v 0.7 1 1
v 0.7 1.1 1
v 0.7 1.2 1
v 0.6 0 0.9
v 0.6 0.1 0.9
v 0.6 0.2 0.9
v 0.6 0.3 0.9
v 0.6 1 0.9
v 0.6 1.1 0.9
v 0.6 1.2 0.9
v 0.6 1.3 0.9
v 0.7 0 0.9
v 0.7 0.1 0.9
v 0.7 0.2 0.9
v 0.7 0.3 0.9
v 0.7 1 0.9
v 0.7 1.1 0.9
v 0.7 1.2 0.9
v 0.7 1.3 0.9
v 0.6 0 0.6
v 0.6 0.1 0.6
v 0.6 0.2 0.6
v 0.6 0.3 0.6
v 0.6 0.4 0.6
v 0.6 0.6 0.6
v 0.6 0.7 0.6
v 0.6 0.9 0.6
v 0.6 1 0.6
v 0.6 1.1 0.6
v 0.6 1.2 0.6
v 0.6 1.3 0.6
v 0.7 0 0.6
v 0.7 0.1 0.6
v 0.7 0.2 0.6
v 0.7 0.3 0.6
v 0.7 0.4 0.6
v 0.7 0.6 0.6
v 0.7 0.7 0.6
v 0.7 0.9 0.6
v 0.7 1 0.6
v 0.7 1.1 0.6
v 0.7 1.2 0.6
v 0.7 1.3 0.6
v 0.6 0.2 0.4
v 0.6 0.3 0.4
v 0.6 1 0.4
v 0.6 1.1 0.4
v 0.7 0.2 0.4
v 0.7 0.3 0.4
v 0.7 1 0.4
v 0.7 1.1 0.4
v 0.6 0.3 0.3
v 0.6 0.4 0.3
v 0.6 0.9 0.3
v 0.6 1 0.3
v 0.7 0.3 0.3
v 0.7 0.4 0.3
v 0.7 0.9 0.3
v 0.7 1 0.3
v 0.6 0.4 0.2
v 0.6 0.9 0.2
v 0.7 0.4 0.2
v 0.7 0.9 0.2
v 0.5 0.4 -0.0999999
v 0.5 0.7 -0.0999999
v 0.6 0.7 -0.0999999
v 0.6 0.9 -0.0999999
v 0.7 0.4 -0.0999999
v 0.7 0.9 -0.0999999
v 0.5 0.2 -0.2
v 0.5 0.4 -0.2
v 0.5 0.9 -0.2
v 0.5 1.1 -0.2
v 0.7 0.2 -0.2
v 0.7 0.4 -0.2
v 0.7 0.9 -0.2
v 0.7 1.1 -0.2
v 0.5 0.1 -0.4
v 0.5 0.2 -0.4
v 0.5 1.1 -0.4
v 0.5 1.2 -0.4
v 0.6 0.3 -0.4
v 0.6 1 -0.4
v 0.7 0.1 -0.4
v 0.7 0.2 -0.4
v 0.7 0.3 -0.4
v 0.7 1 -0.4
v 0.7 1.1 -0.4
v 0.7 1.2 -0.4
v 0.6 0 -0.5
v 0.6 0.1 -0.5
v 0.6 0.2 -0.5
v 0.6 0.3 -0.5
v 0.6 1 -0.5
v 0.6 1.1 -0.5
v 0.6 1.2 -0.5
v 0.6 1.3 -0.5
v 0.7 0 -0.5
v 0.7 0.1 -0.5
v 0.7 0.2 -0.5
v 0.7 0.3 -0.5
v 0.7 1 -0.5
v 0.7 1.1 -0.5
v 0.7 1.2 -0.5
v 0.7 1.3 -0.5
v 0.6 0 -0.8
v 0.6 0.1 -0.8
v 0.6 0.2 -0.8
v 0.6 0.3 -0.8
v 0.6 0.4 -0.8
v 0.6 0.6 -0.8
v 0.6 0.7 -0.8
v 0.6 0.9 -0.8
v 0.6 1 -0.8
v 0.6 1.1 -0.8
v 0.6 1.2 -0.8
v 0.6 1.3 -0.8
v 0.7 0 -0.8
v 0.7 0.1 -0.8
v 0.7 0.2 -0.8
v 0.7 0.3 -0.8
v 0.7 0.4 -0.8
v 0.7 0.6 -0.8
v 0.7 0.7 -0.8
v 0.7 0.9 -0.8
v 0.7 1 -0.8
v 0.7 1.1 -0.8
v 0.7 1.2 -0.8
v 0.7 1.3 -0.8
v 0.6 0.2 -1
v 0.6 0.3 -1
v 0.6 1 -1
v 0.6 1.1 -1
v 0.7 0.2 -1
v 0.7 0.3 -1
v 0.7 1 -1
v 0.7 1.1 -1
v -0.7 0.5 -1.1
v -0.7 0.9 -1.1
v -0.5 0.5 -1.1
v -0.5 0.7 -1.1
v 0.5 0.7 -1.1
v 0.5 0.9 -1.1
v 0.6 0.3 -1.1
v 0.6 0.4 -1.1
v 0.6 0.9 -1.1
v 0.6 1 -1.1
v 0.7 0.3 -1.1
v 0.7 0.4 -1.1
v 0.7 0.9 -1.1
v 0.7 1 -1.1
v 0.6 0.4 -1.2
v 0.6 0.9 -1.2
v 0.7 0.4 -1.2
v 0.7 0.9 -1.2
v 0.6 0.4 1.2
v 0.6 0.9 1.2
v 0.7 0.4 1.2
v 0.7 0.9 1.2
v -0.7 0.5 1.1
v -0.7 0.9 1.1
v -0.5 0.5 1.1
v -0.5 0.7 1.1
v 0.5 0.7 1.1
v 0.5 0.9 1.1
v 0.6 0.3 1.1
v 0.6 0.4 1.1
v 0.6 0.9 1.1
v 0.6 1 1.1
v 0.7 0.3 1.1
v 0.7 0.4 1.1
v 0.7 0.9 1.1
v 0.7 1 1.1
v 0.6 0.2 1
v 0.6 0.3 1
v 0.6 1 1
v 0.6 1.1 1
v 0.7 0.2 1
v 0.7 0.3 1
v 0.7 1 1
v 0.7 1.1 1
v 0.6 0 0.8
v 0.6 0.1 0.8
v 0.6 0.2 0.8
v 0.6 0.3 0.8
v 0.6 0.4 0.8
v 0.6 0.6 0.8
v 0.6 0.7 0.8
v 0.6 0.9 0.8
v 0.6 1 0.8
v 0.6 1.1 0.8
v 0.6 1.2 0.8
v 0.6 1.3 0.8
v 0.7 0 0.8
v 0.7 0.1 0.8
v 0.7 0.2 0.8
v 0.7 0.3 0.8
v 0.7 0.4 0.8
v 0.7 0.6 0.8
v 0.7 0.7 0.8
v 0.7 0.9 0.8
v 0.7 1 0.8
v 0.7 1.1 0.8
v 0.7 1.2 0.8
v 0.7 1.3 0.8
v 0.6 0 0.5
v 0.6 0.1 0.5
v 0.6 0.2 0.5
v 0.6 0.3 0.5
v 0.6 0.6 0.5
v 0.6 0.7 0.5
v 0.6 1 0.5
v 0.6 1.1 0.5
v 0.6 1.2 0.5
v 0.6 1.3 0.5
v 0.7 0 0.5
v 0.7 0.1 0.5
v 0.7 0.2 0.5
v 0.7 0.3 0.5
v 0.7 0.6 0.5
v 0.7 0.7 0.5
v 0.7 1 0.5
v 0.7 1.1 0.5
v 0.7 1.2 0.5
v 0.7 1.3 0.5
v 0.5 0.1 0.4
v 0.5 0.2 0.4
v 0.5 1.1 0.4
v 0.5 1.2 0.4
v 0.6 0.3 0.4
v 0.6 0.6 0.4
v 0.6 0.7 0.4
v 0.6 1 0.4
v 0.7 0.1 0.4
v 0.7 0.2 0.4
v 0.7 0.3 0.4
v 0.7 0.6 0.4
v 0.7 0.7 0.4
v 0.7 1 0.4
v 0.7 1.1 0.4
v 0.7 1.2 0.4
v 0.5 0.2 0.2
v 0.5 0.4 0.2
v 0.5 0.9 0.2
v 0.5 1.1 0.2
v 0.7 0.2 0.2
v 0.7 0.4 0.2
v 0.7 0.9 0.2
v 0.7 1.1 0.2
v 0.5 0.4 0.1
v 0.5 0.7 0.1
v 0.6 0.7 0.1
v 0.6 0.9 0.1
v 0.7 0.4 0.1
v 0.7 0.9 0.1
v 0.6 0.4 -0.2
v 0.6 0.9 -0.2
v 0.7 0.4 -0.2
v 0.7 0.9 -0.2
v 0.6 0.3 -0.3
v 0.6 0.4 -0.3
v 0.6 0.9 -0.3
v 0.6 1 -0.3
v 0.7 0.3 -0.3
v 0.7 0.4 -0.3
v 0.7 0.9 -0.3
v 0.7 1 -0.3
v 0.6 0.2 -0.4
v 0.6 0.3 -0.4
v 0.6 1 -0.4
v 0.6 1.1 -0.4
v 0.7 0.2 -0.4
v 0.7 0.3 -0.4
v 0.7 1 -0.4
v 0.7 1.1 -0.4
v 0.6 0 -0.6
v 0.6 0.1 -0.6
v 0.6 0.2 -0.6
v 0.6 0.3 -0.6
v 0.6 0.4 -0.6
v 0.6 0.6 -0.6
v 0.6 0.7 -0.6
v 0.6 0.9 -0.6
v 0.6 1 -0.6
v 0.6 1.1 -0.6
v 0.6 1.2 -0.6
v 0.6 1.3 -0.6
v 0.7 0 -0.6
v 0.7 0.1 -0.6
v 0.7 0.2 -0.6
v 0.7 0.3 -0.6
v 0.7 0.4 -0.6
v 0.7 0.6 -0.6
v 0.7 0.7 -0.6
v 0.7 0.9 -0.6
v 0.7 1 -0.6
v 0.7 1.1 -0.6
v 0.7 1.2 -0.6
v 0.7 1.3 -0.6
v 0.6 0 -0.9
v 0.6 0.1 -0.9
v 0.6 0.2 -0.9
v 0.6 0.3 -0.9
v 0.6 0.6 -0.9
v 0.6 0.7 -0.9
v 0.6 1 -0.9
v 0.6 1.1 -0.9
v 0.6 1.2 -0.9
v 0.6 1.3 -0.9
v 0.7 0 -0.9
v 0.7 0.1 -0.9
v 0.7 0.2 -0.9
v 0.7 0.3 -0.9
v 0.7 0.6 -0.9
v 0.7 0.7 -0.9
v 0.7 1 -0.9
v 0.7 1.1 -0.9
v 0.7 1.2 -0.9
v 0.7 1.3 -0.9
v 0.5 0.1 -1
v 0.5 0.2 -1
v 0.5 1.1 -1
v 0.5 1.2 -1
v 0.6 0.3 -1
v 0.6 0.6 -1
v 0.6 0.7 -1
v 0.6 1 -1
v 0.7 0.1 -1
v 0.7 0.2 -1
v 0.7 0.3 -1
v 0.7 0.6 -1
v 0.7 0.7 -1
v 0.7 1 -1
v 0.7 1.1 -1
v 0.7 1.2 -1
v -0.7 0.5 -1.2
v -0.7 0.9 -1.2
v -0.5 0.5 -1.2
v -0.5 0.7 -1.2
v 0.5 0.2 -1.2
v 0.5 0.4 -1.2
v 0.5 0.7 -1.2
v 0.5 0.9 -1.2
v 0.5 1.1 -1.2
v 0.7 0.2 -1.2
v 0.7 0.4 -1.2
v 0.7 0.9 -1.2
v 0.7 1.1 -1.2
v 0.5 0.4 -1.3
v 0.5 0.9 -1.3
v 0.7 0.4 -1.3
v 0.7 0.9 -1.3
v 0.6 0 0.9
v 0.7 0 0.9
v 0.6 0 0.8
v 0.7 0 0.8
v 0.6 0 0.6
v 0.7 0 0.6
v 0.6 0 0.5
v 0.7 0 0.5
v 0.6 0 -0.5
v 0.7 0 -0.5
v 0.6 0 -0.6
v 0.7 0 -0.6
v 0.6 0 -0.8
v 0.7 0 -0.8
v 0.6 0 -0.9
v 0.7 0 -0.9
v 0.5 0.1 1
v 0.7 0.1 1
v 0.6 0.1 0.9
v 0.7 0.1 0.9
v 0.6 0.1 0.8
v 0.7 0.1 0.8
v 0.6 0.1 0.6
v 0.7 0.1 0.6
v 0.6 0.1 0.5
v 0.7 0.1 0.5
v 0.5 0.1 0.4
v 0.7 0.1 0.4
v 0.5 0.1 -0.4
v 0.7 0.1 -0.4
v 0.6 0.1 -0.5
v 0.7 0.1 -0.5
v 0.6 0.1 -0.6
v 0.7 0.1 -0.6
v 0.6 0.1 -0.8
v 0.7 0.1 -0.8
v 0.6 0.1 -0.9
v 0.7 0.1 -0.9
v 0.5 0.1 -1
v 0.7 0.1 -1
v 0.5 0.2 1.2
v 0.7 0.2 1.2
v 0.5 0.2 1
v 0.7 0.2 1
v 0.5 0.2 0.4
v 0.7 0.2 0.4
v 0.5 0.2 0.2
v 0.7 0.2 0.2
v 0.5 0.2 -0.2
v 0.7 0.2 -0.2
v 0.5 0.2 -0.4
v 0.7 0.2 -0.4
v 0.5 0.2 -1
v 0.7 0.2 -1
v 0.5 0.2 -1.2
v 0.7 0.2 -1.2
v 0.6 0.3 1
v 0.7 0.3 1
v 0.6 0.3 0.9
v 0.7 0.3 0.9
v 0.6 0.3 0.8
v 0.7 0.3 0.8
v 0.6 0.3 0.6
v 0.7 0.3 0.6
v 0.6 0.3 0.5
v 0.7 0.3 0.5
v 0.6 0.3 0.4
v 0.7 0.3 0.4
v 0.6 0.3 -0.4
v 0.7 0.3 -0.4
v 0.6 0.3 -0.5
v 0.7 0.3 -0.5
v 0.6 0.3 -0.6
v 0.7 0.3 -0.6
v 0.6 0.3 -0.8
v 0.7 0.3 -0.8
v 0.6 0.3 -0.9
v 0.7 0.3 -0.9
v 0.6 0.3 -1
v 0.7 0.3 -1
v 0.5 0.4 1.3
v 0.7 0.4 1.3
v 0.5 0.4 1.2
v 0.7 0.4 1.2
v 0.5 0.4 0.2
v 0.7 0.4 0.2
v 0.5 0.4 0.1
v 0.7 0.4 0.1
v 0.5 0.4 -0.0999999
v 0.7 0.4 -0.0999999
v 0.5 0.4 -0.2
v 0.7 0.4 -0.2
v 0.5 0.4 -1.2
v 0.7 0.4 -1.2
v 0.5 0.4 -1.3
v 0.7 0.4 -1.3
v -0.7 0.5 1.2
v -0.5 0.5 1.2
v -0.7 0.5 1.1
v -0.5 0.5 1.1
v -0.7 0.5 -1.1
v -0.5 0.5 -1.1
v -0.7 0.5 -1.2
v -0.5 0.5 -1.2
v 0.6 0.6 0.8
v 0.7 0.6 0.8
v 0.6 0.6 0.6
v 0.7 0.6 0.6
v 0.6 0.6 -0.6
v 0.7 0.6 -0.6
v 0.6 0.6 -0.8
v 0.7 0.6 -0.8
v -0.5 0.7 1.2
v 0.5 0.7 1.2
v -0.5 0.7 1.1
v 0.5 0.7 1.1
v 0.6 0.7 0.5
v 0.7 0.7 0.5
v 0.6 0.7 0.4
v 0.7 0.7 0.4
v 0.5 0.7 0.1
v 0.6 0.7 0.1
v 0.5 0.7 -0.0999999
v 0.6 0.7 -0.0999999
v 0.6 0.7 -0.9
v 0.7 0.7 -0.9
v 0.6 0.7 -1
v 0.7 0.7 -1
v -0.5 0.7 -1.1
v 0.5 0.7 -1.1
v -0.5 0.7 -1.2
v 0.5 0.7 -1.2
v 0.6 0.9 1.2
v 0.7 0.9 1.2
v 0.6 0.9 1.1
v 0.7 0.9 1.1
v 0.6 0.9 0.8
v 0.7 0.9 0.8
v 0.6 0.9 0.6
v 0.7 0.9 0.6
v 0.6 0.9 0.3
v 0.7 0.9 0.3
v 0.6 0.9 0.2
v 0.7 0.9 0.2
v 0.6 0.9 -0.2
v 0.7 0.9 -0.2
v 0.6 0.9 -0.3
v 0.7 0.9 -0.3
v 0.6 0.9 -0.6
v 0.7 0.9 -0.6
v 0.6 0.9 -0.8
v 0.7 0.9 -0.8
v 0.6 0.9 -1.1
v 0.7 0.9 -1.1
v 0.6 0.9 -1.2
v 0.7 0.9 -1.2
v 0.6 1 1.1
v 0.7 1 1.1
v 0.6 1 1
v 0.7 1 1
v 0.6 1 0.4
v 0.7 1 0.4
v 0.6 1 0.3
v 0.7 1 0.3
v 0.6 1 -0.3
v 0.7 1 -0.3
v 0.6 1 -0.4
v 0.7 1 -0.4
v 0.6 1 -1
v 0.7 1 -1
v 0.6 1 -1.1
v 0.7 1 -1.1
v 0.6 1.1 1
v 0.7 1.1 1
v 0.6 1.1 0.9
v 0.7 1.1 0.9
v 0.6 1.1 0.8
v 0.7 1.1 0.8
v 0.6 1.1 0.6
v 0.7 1.1 0.6
v 0.6 1.1 0.5
v 0.7 1.1 0.5
v 0.6 1.1 0.4
v 0.7 1.1 0.4
v 0.6 1.1 -0.4
v 0.7 1.1 -0.4
v 0.6 1.1 -0.5
v 0.7 1.1 -0.5
v 0.6 1.1 -0.6
v 0.7 1.1 -0.6
v 0.6 1.1 -0.8
v 0.7 1.1 -0.8
v 0.6 1.1 -0.9
v 0.7 1.1 -0.9
v 0.6 1.1 -1
v 0.7 1.1 -1
v 0.6 0.2 1
v 0.7 0.2 1
v 0.6 0.2 0.9
v 0.7 0.2 0.9
v 0.6 0.2 0.8
v 0.7 0.2 0.8
v 0.6 0.2 0.6
v 0.7 0.2 0.6
v 0.6 0.2 0.5
v 0.7 0.2 0.5
v 0.6 0.2 0.4
v 0.7 0.2 0.4
v 0.6 0.2 -0.4
v 0.7 0.2 -0.4
v 0.6 0.2 -0.5
v 0.7 0.2 -0.5
v 0.6 0.2 -0.6
v 0.7 0.2 -0.6
v 0.6 0.2 -0.8
v 0.7 0.2 -0.8
v 0.6 0.2 -0.9
v 0.7 0.2 -0.9
v 0.6 0.2 -1
v 0.7 0.2 -1
v 0.6 0.3 1.1
v 0.7 0.3 1.1
v 0.6 0.3 1
v 0.7 0.3 1
v 0.6 0.3 0.4
v 0.7 0.3 0.4
v 0.6 0.3 0.3
v 0.7 0.3 0.3
v 0.6 0.3 -0.3
v 0.7 0.3 -0.3
v 0.6 0.3 -0.4
v 0.7 0.3 -0.4
v 0.6 0.3 -1
v 0.7 0.3 -1
v 0.6 0.3 -1.1
v 0.7 0.3 -1.1
v 0.6 0.4 1.2
v 0.7 0.4 1.2
v 0.6 0.4 1.1
v 0.7 0.4 1.1
v 0.6 0.4 0.8
v 0.7 0.4 0.8
v 0.6 0.4 0.6
v 0.7 0.4 0.6
v 0.6 0.4 0.3
v 0.7 0.4 0.3
v 0.6 0.4 0.2
v 0.7 0.4 0.2
v 0.6 0.4 -0.2
v 0.7 0.4 -0.2
v 0.6 0.4 -0.3
v 0.7 0.4 -0.3
v 0.6 0.4 -0.6
v 0.7 0.4 -0.6
v 0.6 0.4 -0.8
v 0.7 0.4 -0.8
v 0.6 0.4 -1.1
v 0.7 0.4 -1.1
v 0.6 0.4 -1.2
v 0.7 0.4 -1.2
v 0.6 0.6 0.5
v 0.7 0.6 0.5
v 0.6 0.6 0.4
v 0.7 0.6 0.4
v 0.6 0.6 -0.9
v 0.7 0.6 -0.9
v 0.6 0.6 -1
v 0.7 0.6 -1
v 0.6 0.7 0.8
v 0.7 0.7 0.8
v 0.6 0.7 0.6
v 0.7 0.7 0.6
v 0.6 0.7 -0.6
v 0.7 0.7 -0.6
v 0.6 0.7 -0.8
v 0.7 0.7 -0.8
v 0.5 0.9 1.3
v 0.7 0.9 1.3
v -0.7 0.9 1.2
v 0.5 0.9 1.2
v 0.7 0.9 1.2
v -0.7 0.9 1.1
v 0.5 0.9 1.1
v 0.5 0.9 0.2
v 0.7 0.9 0.2
v 0.6 0.9 0.1
v 0.7 0.9 0.1
v 0.6 0.9 -0.0999999
v 0.7 0.9 -0.0999999
v 0.5 0.9 -0.2
v 0.7 0.9 -0.2
v -0.7 0.9 -1.1
v 0.5 0.9 -1.1
v -0.7 0.9 -1.2
v 0.5 0.9 -1.2
v 0.7 0.9 -1.2
v 0.5 0.9 -1.3
v 0.7 0.9 -1.3
v 0.6 1 1
v 0.7 1 1
v 0.6 1 0.9
v 0.7 1 0.9
v 0.6 1 0.8
v 0.7 1 0.8
v 0.6 1 0.6
v 0.7 1 0.6
v 0.6 1 0.5
v 0.7 1 0.5
v 0.6 1 0.4
v 0.7 1 0.4
v 0.6 1 -0.4
v 0.7 1 -0.4
v 0.6 1 -0.5
v 0.7 1 -0.5
v 0.6 1 -0.6
v 0.7 1 -0.6
v 0.6 1 -0.8
v 0.7 1 -0.8
v 0.6 1 -0.9
v 0.7 1 -0.9
v 0.6 1 -1
v 0.7 1 -1
v 0.5 1.1 1.2
v 0.7 1.1 1.2
v 0.5 1.1 1
v 0.7 1.1 1
v 0.5 1.1 0.4
v 0.7 1.1 0.4
v 0.5 1.1 0.2
v 0.7 1.1 0.2
v 0.5 1.1 -0.2
v 0.7 1.1 -0.2
v 0.5 1.1 -0.4
v 0.7 1.1 -0.4
v 0.5 1.1 -1
v 0.7 1.1 -1
v 0.5 1.1 -1.2
v 0.7 1.1 -1.2
v 0.5 1.2 1
v 0.7 1.2 1
v 0.6 1.2 0.9
v 0.7 1.2 0.9
v 0.6 1.2 0.8
v 0.7 1.2 0.8
v 0.6 1.2 0.6
v 0.7 1.2 0.6
v 0.6 1.2 0.5
v 0.7 1.2 0.5
v 0.5 1.2 0.4
v 0.7 1.2 0.4
v 0.5 1.2 -0.4
v 0.7 1.2 -0.4
v 0.6 1.2 -0.5
v 0.7 1.2 -0.5
v 0.6 1.2 -0.6
v 0.7 1.2 -0.6
v 0.6 1.2 -0.8
v 0.7 1.2 -0.8
v 0.6 1.2 -0.9
v 0.7 1.2 -0.9
v 0.5 1.2 -1
v 0.7 1.2 -1
v 0.6 1.3 0.9
v 0.7 1.3 0.9
v 0.6 1.3 0.8
v 0.7 1.3 0.8
v 0.6 1.3 0.6
v 0.7 1.3 0.6
v 0.6 1.3 0.5
v 0.7 1.3 0.5
v 0.6 1.3 -0.5
v 0.7 1.3 -0.5
v 0.6 1.3 -0.6
v 0.7 1.3 -0.6
v 0.6 1.3 -0.8
v 0.7 1.3 -0.8
v 0.6 1.3 -0.9
v 0.7 1.3 -0.9

# faces
f 5/2/1 2/2/1 1/2/1
f 6/2/1 2/2/1 5/2/1
f 7/2/1 4/2/1 3/2/1
f 8/2/1 4/2/1 7/2/1
f 14/2/1 10/2/1 9/2/1
f 15/2/1 10/2/1 14/2/1
f 18/2/1 12/2/1 11/2/1
f 19/2/1 12/2/1 18/2/1
f 21/2/1 14/2/1 13/2/1
f 22/1/1 15/1/1 14/1/1
f 22/2/1 14/2/1 21/2/1
f 23/2/1 16/2/1 15/2/1
f 23/1/1 15/1/1 22/1/1
f 24/2/1 16/2/1 23/2/1
f 25/2/1 18/2/1 17/2/1
f 26/1/1 19/1/1 18/1/1
f 26/2/1 18/2/1 25/2/1
f 27/2/1 20/2/1 19/2/1
f 27/1/1 19/1/1 26/1/1
f 28/2/1 20/2/1 27/2/1
f 30/2/1 21/2/1 13/2/1
f 31/1/1 22/1/1 21/1/1
f 31/1/1 23/1/1 22/1/1
f 31/2/1 21/2/1 30/2/1
f 31/1/1 24/1/1 23/1/1
f 32/2/1 16/2/1 24/2/1
f 32/1/1 24/1/1 31/1/1
f 33/2/1 16/2/1 32/2/1
f 36/2/1 25/2/1 17/2/1
f 37/1/1 26/1/1 25/1/1
f 37/1/1 28/1/1 27/1/1
f 37/2/1 25/2/1 36/2/1
f 37/1/1 27/1/1 26/1/1
f 38/2/1 20/2/1 28/2/1
f 38/1/1 28/1/1 37/1/1
f 39/2/1 20/2/1 38/2/1
f 41/2/1 30/2/1 29/2/1
f 41/1/1 31/1/1 30/1/1
f 41/1/1 33/1/1 32/1/1
f 41/1/1 32/1/1 31/1/1
f 42/1/1 33/1/1 41/1/1
f 43/2/1 34/2/1 33/2/1
f 44/2/1 36/2/1 35/2/1
f 45/1/1 37/1/1 36/1/1
f 45/1/1 39/1/1 38/1/1
f 45/1/1 38/1/1 37/1/1
f 46/2/1 40/2/1 39/2/1
f 46/1/1 39/1/1 45/1/1
f 47/2/1 41/2/1 29/2/1
f 48/2/1 41/2/1 47/2/1
f 49/1/1 33/1/1 42/1/1
f 50/1/1 33/1/1 49/1/1
f 51/2/1 43/2/1 33/2/1
f 51/1/1 33/1/1 50/1/1
f 51/2/1 44/2/1 43/2/1
f 52/1/1 45/1/1 36/1/1
f 52/2/1 44/2/1 51/2/1
f 52/2/1 36/2/1 44/2/1
f 53/1/1 45/1/1 52/1/1
f 54/1/1 45/1/1 53/1/1
f 55/2/1 40/2/1 46/2/1
f 56/2/1 40/2/1 55/2/1
f 57/1/1 50/1/1 49/1/1
f 57/2/1 49/2/1 48/2/1
f 58/1/1 50/1/1 57/1/1
f 59/1/1 50/1/1 58/1/1
f 60/2/1 51/2/1 50/2/1
f 60/1/1 50/1/1 59/1/1
f 61/1/1 54/1/1 53/1/1
f 61/2/1 53/2/1 52/2/1
f 62/1/1 54/1/1 61/1/1
f 63/1/1 54/1/1 62/1/1
f 64/2/1 55/2/1 54/2/1
f 64/1/1 54/1/1 63/1/1
f 65/2/1 57/2/1 48/2/1
f 65/2/1 58/2/1 57/2/1
f 66/1/1 59/1/1 58/1/1
f 66/2/1 58/2/1 65/2/1
f 67/2/1 60/2/1 59/2/1
f 67/1/1 59/1/1 66/1/1
f 68/2/1 51/2/1 60/2/1
f 68/2/1 60/2/1 67/2/1
f 69/2/1 61/2/1 52/2/1
f 69/2/1 62/2/1 61/2/1
f 70/1/1 63/1/1 62/1/1
f 70/2/1 62/2/1 69/2/1
f 71/2/1 64/2/1 63/2/1
f 71/1/1 63/1/1 70/1/1
f 72/2/1 55/2/1 64/2/1
f 72/2/1 64/2/1 71/2/1
f 73/2/1 67/2/1 66/2/1
f 74/2/1 67/2/1 73/2/1
f 75/2/1 71/2/1 70/2/1
f 76/2/1 71/2/1 75/2/1
f 85/3/1 78/3/1 77/3/1
f 86/3/1 78/3/1 85/3/1
f 87/3/1 80/3/1 79/3/1
f 88/3/1 80/3/1 87/3/1
f 89/3/1 82/3/1 81/3/1
f 90/3/1 82/3/1 89/3/1
f 91/3/1 84/3/1 83/3/1
f 92/3/1 84/3/1 91/3/1
f 101/3/1 94/3/1 93/3/1
f 102/3/1 94/3/1 101/3/1
f 103/3/1 96/3/1 95/3/1
f 104/3/1 96/3/1 103/3/1
f 105/3/1 98/3/1 97/3/1
f 106/3/1 98/3/1 105/3/1
f 107/3/1 100/3/1 99/3/1
f 108/3/1 100/3/1 107/3/1
f 109/2/2 110/2/2 113/2/2
f 113/2/2 110/2/2 114/2/2
f 111/2/2 112/2/2 115/2/2
f 115/2/2 112/2/2 116/2/2
f 117/1/2 118/1/2 130/1/2
f 130/1/2 118/1/2 131/1/2
f 119/1/2 120/1/2 132/1/2
f 132/1/2 120/1/2 133/1/2
f 121/1/2 122/1/2 134/1/2
f 134/1/2 122/1/2 135/1/2
f 123/1/2 124/1/2 138/1/2
f 138/1/2 124/1/2 139/1/2
f 125/1/2 126/1/2 140/1/2
f 140/1/2 126/1/2 141/1/2
f 127/1/2 128/1/2 142/1/2
f 142/1/2 128/1/2 143/1/2
f 129/1/2 130/1/2 146/1/2
f 135/1/2 136/1/2 149/1/2
f 137/1/2 138/1/2 152/1/2
f 143/1/2 144/1/2 155/1/2
f 147/1/2 148/1/2 157/1/2
f 157/1/2 148/1/2 158/1/2
f 149/1/2 150/1/2 160/1/2
f 135/1/2 149/1/2 160/1/2
f 153/1/2 154/1/2 161/1/2
f 161/1/2 154/1/2 162/1/2
f 155/1/2 156/1/2 164/1/2
f 143/1/2 155/1/2 164/1/2
f 159/1/2 160/1/2 167/1/2
f 160/1/2 150/1/2 168/1/2
f 167/1/2 160/1/2 168/1/2
f 163/1/2 164/1/2 173/1/2
f 164/1/2 156/1/2 174/1/2
f 173/1/2 164/1/2 174/1/2
f 145/1/2 146/1/2 175/1/2
f 146/1/2 130/1/2 176/1/2
f 175/1/2 146/1/2 176/1/2
f 165/1/2 166/1/2 177/1/2
f 177/1/2 166/1/2 178/1/2
f 168/1/2 150/1/2 179/1/2
f 179/1/2 150/1/2 180/1/2
f 169/2/2 170/2/2 181/2/2
f 181/2/2 170/2/2 182/2/2
f 151/1/2 152/1/2 183/1/2
f 152/1/2 138/1/2 184/1/2
f 183/1/2 152/1/2 184/1/2
f 171/1/2 172/1/2 185/1/2
f 185/1/2 172/1/2 186/1/2
f 174/1/2 156/1/2 187/1/2
f 187/1/2 156/1/2 188/1/2
f 176/1/2 130/1/2 189/1/2
f 189/1/2 130/1/2 190/1/2
f 168/1/2 179/1/2 195/1/2
f 195/1/2 179/1/2 196/1/2
f 184/1/2 138/1/2 197/1/2
f 197/1/2 138/1/2 198/1/2
f 174/1/2 187/1/2 203/1/2
f 203/1/2 187/1/2 204/1/2
f 190/1/2 191/1/2 205/1/2
f 205/1/2 191/1/2 206/1/2
f 192/1/2 193/1/2 207/1/2
f 207/1/2 193/1/2 208/1/2
f 194/1/2 195/1/2 209/1/2
f 209/1/2 195/1/2 210/1/2
f 198/1/2 199/1/2 211/1/2
f 211/1/2 199/1/2 212/1/2
f 200/1/2 201/1/2 213/1/2
f 213/1/2 201/1/2 214/1/2
f 202/1/2 203/1/2 215/1/2
f 215/1/2 203/1/2 216/1/2
f 217/3/2 218/3/2 226/3/2
f 226/3/2 218/3/2 227/3/2
f 219/3/2 220/3/2 228/3/2
f 228/3/2 220/3/2 229/3/2
f 221/3/2 222/3/2 232/3/2
f 232/3/2 222/3/2 233/3/2
f 223/3/2 224/3/2 234/3/2
f 234/3/2 224/3/2 235/3/2
f 226/2/2 227/2/2 238/2/2
f 229/2/2 230/2/2 238/2/2
f 225/2/2 226/2/2 238/2/2
f 227/2/2 228/2/2 238/2/2
f 228/2/2 229/2/2 238/2/2
f 238/2/2 230/2/2 239/2/2
f 239/2/2 230/2/2 240/2/2
f 240/2/2 230/2/2 241/2/2
f 241/2/2 230/2/2 242/2/2
f 242/2/2 230/2/2 243/2/2
f 232/2/2 233/2/2 246/2/2
f 235/2/2 236/2/2 246/2/2
f 234/2/2 235/2/2 246/2/2
f 233/2/2 234/2/2 246/2/2
f 231/2/2 232/2/2 246/2/2
f 246/2/2 236/2/2 247/2/2
f 247/2/2 236/2/2 248/2/2
f 248/2/2 236/2/2 249/2/2
f 249/2/2 236/2/2 250/2/2
f 250/2/2 236/2/2 251/2/2
f 237/2/2 238/2/2 253/2/2
f 253/2/2 238/2/2 254/2/2
f 239/3/2 240/3/2 255/3/2
f 255/3/2 240/3/2 256/3/2
f 241/3/2 242/3/2 257/3/2
f 257/3/2 242/3/2 258/3/2
f 243/2/2 244/2/2 259/2/2
f 259/2/2 244/2/2 260/2/2
f 245/2/2 246/2/2 261/2/2
f 261/2/2 246/2/2 262/2/2
f 247/3/2 248/3/2 263/3/2
f 263/3/2 248/3/2 264/3/2
f 249/3/2 250/3/2 265/3/2
f 265/3/2 250/3/2 266/3/2
f 251/2/2 252/2/2 267/2/2
f 267/2/2 252/2/2 268/2/2
f 237/2/2 253/2/2 270/2/2
f 270/2/2 253/2/2 271/2/2
f 257/3/2 258/3/2 272/3/2
f 255/3/2 256/3/2 272/3/2
f 254/3/2 255/3/2 272/3/2
f 256/3/2 257/3/2 272/3/2
f 258/3/2 259/3/2 272/3/2
f 272/3/2 259/3/2 273/3/2
f 260/2/2 244/2/2 274/2/2
f 274/2/2 244/2/2 275/2/2
f 245/2/2 261/2/2 278/2/2
f 278/2/2 261/2/2 279/2/2
f 265/3/2 266/3/2 280/3/2
f 263/3/2 264/3/2 280/3/2
f 266/3/2 267/3/2 280/3/2
f 264/3/2 265/3/2 280/3/2
f 262/3/2 263/3/2 280/3/2
f 280/3/2 267/3/2 281/3/2
f 268/2/2 252/2/2 282/2/2
f 282/2/2 252/2/2 283/2/2
f 254/3/2 272/3/2 285/3/2
f 273/3/2 259/3/2 286/3/2
f 286/3/2 259/3/2 287/3/2
f 287/3/2 259/3/2 288/3/2
f 262/3/2 280/3/2 289/3/2
f 281/3/2 267/3/2 290/3/2
f 290/3/2 267/3/2 291/3/2
f 291/3/2 267/3/2 292/3/2
f 254/3/2 285/3/2 293/3/2
f 285/3/2 286/3/2 293/3/2
f 286/3/2 287/3/2 293/3/2
f 293/3/2 287/3/2 294/3/2
f 294/3/2 287/3/2 295/3/2
f 262/3/2 289/3/2 297/3/2
f 290/3/2 291/3/2 297/3/2
f 289/3/2 290/3/2 297/3/2
f 297/3/2 291/3/2 298/3/2
f 298/3/2 291/3/2 299/3/2
f 269/2/2 270/2/2 301/2/2
f 301/2/2 270/2/2 302/2/2
f 254/3/2 293/3/2 304/3/2
f 295/3/2 296/3/2 305/3/2
f 294/3/2 295/3/2 305/3/2
f 275/2/2 276/2/2 307/2/2
f 307/2/2 276/2/2 308/2/2
f 277/2/2 278/2/2 309/2/2
f 309/2/2 278/2/2 310/2/2
f 262/3/2 297/3/2 312/3/2
f 299/3/2 300/3/2 313/3/2
f 298/3/2 299/3/2 313/3/2
f 283/2/2 284/2/2 315/2/2
f 315/2/2 284/2/2 316/2/2
f 302/2/2 303/2/2 317/2/2
f 254/3/2 304/3/2 318/3/2
f 304/3/2 305/3/2 318/3/2
f 318/3/2 305/3/2 319/3/2
f 319/3/2 305/3/2 320/3/2
f 305/3/2 296/3/2 321/3/2
f 320/3/2 305/3/2 321/3/2
f 321/3/2 296/3/2 322/3/2
f 322/3/2 296/3/2 323/3/2
f 306/2/2 307/2/2 324/2/2
f 310/2/2 311/2/2 325/2/2
f 262/3/2 312/3/2 326/3/2
f 312/3/2 313/3/2 326/3/2
f 326/3/2 313/3/2 327/3/2
f 327/3/2 313/3/2 328/3/2
f 313/3/2 300/3/2 329/3/2
f 328/3/2 313/3/2 329/3/2
f 329/3/2 300/3/2 330/3/2
f 330/3/2 300/3/2 331/3/2
f 314/2/2 315/2/2 332/2/2
f 302/2/2 317/2/2 333/2/2
f 317/2/2 318/2/2 333/2/2
f 333/2/2 318/2/2 334/2/2
f 319/3/2 320/3/2 335/3/2
f 335/3/2 320/3/2 336/3/2
f 321/3/2 322/3/2 337/3/2
f 337/3/2 322/3/2 338/3/2
f 323/2/2 324/2/2 339/2/2
f 324/2/2 307/2/2 340/2/2
f 339/2/2 324/2/2 340/2/2
f 310/2/2 325/2/2 341/2/2
f 325/2/2 326/2/2 341/2/2
f 341/2/2 326/2/2 342/2/2
f 327/3/2 328/3/2 343/3/2
f 343/3/2 328/3/2 344/3/2
f 329/3/2 330/3/2 345/3/2
f 345/3/2 330/3/2 346/3/2
f 331/2/2 332/2/2 347/2/2
f 332/2/2 315/2/2 348/2/2
f 347/2/2 332/2/2 348/2/2
f 338/2/2 339/2/2 349/2/2
f 337/2/2 338/2/2 349/2/2
f 335/2/2 336/2/2 349/2/2
f 334/2/2 335/2/2 349/2/2
f 336/2/2 337/2/2 349/2/2
f 349/2/2 339/2/2 350/2/2
f 350/2/2 339/2/2 351/2/2
f 351/2/2 339/2/2 352/2/2
f 352/2/2 339/2/2 353/2/2
f 353/2/2 339/2/2 354/2/2
f 345/2/2 346/2/2 355/2/2
f 344/2/2 345/2/2 355/2/2
f 346/2/2 347/2/2 355/2/2
f 342/2/2 343/2/2 355/2/2
f 343/2/2 344/2/2 355/2/2
f 355/2/2 347/2/2 356/2/2
f 356/2/2 347/2/2 357/2/2
f 357/2/2 347/2/2 358/2/2
f 358/2/2 347/2/2 359/2/2
f 359/2/2 347/2/2 360/2/2
f 350/3/2 351/3/2 361/3/2
f 361/3/2 351/3/2 362/3/2
f 352/3/2 353/3/2 363/3/2
f 363/3/2 353/3/2 364/3/2
f 356/3/2 357/3/2 365/3/2
f 365/3/2 357/3/2 366/3/2
f 358/3/2 359/3/2 367/3/2
f 367/3/2 359/3/2 368/3/2
f 371/2/3 370/2/3 369/2/3
f 372/2/3 370/2/3 371/2/3
f 375/2/3 374/2/3 373/2/3
f 376/2/3 374/2/3 375/2/3
f 379/2/3 374/2/3 376/2/3
f 380/2/3 374/2/3 379/2/3
f 382/2/3 378/2/3 377/2/3
f 383/2/3 378/2/3 382/2/3
f 384/2/3 381/2/3 380/2/3
f 385/2/3 381/2/3 384/2/3
f 392/2/3 387/2/3 386/2/3
f 393/2/3 387/2/3 392/2/3
f 394/3/3 391/3/3 390/3/3
f 395/3/3 391/3/3 394/3/3
f 396/2/3 389/2/3 388/2/3
f 397/2/3 389/2/3 396/2/3
f 406/3/3 399/3/3 398/3/3
f 407/3/3 399/3/3 406/3/3
f 408/3/3 401/3/3 400/3/3
f 409/3/3 401/3/3 408/3/3
f 410/3/3 403/3/3 402/3/3
f 411/3/3 403/3/3 410/3/3
f 412/3/3 405/3/3 404/3/3
f 413/3/3 405/3/3 412/3/3
f 426/3/3 415/3/3 414/3/3
f 427/3/3 415/3/3 426/3/3
f 428/3/3 417/3/3 416/3/3
f 429/3/3 417/3/3 428/3/3
f 430/3/3 419/3/3 418/3/3
f 431/3/3 419/3/3 430/3/3
f 432/3/3 421/3/3 420/3/3
f 433/3/3 421/3/3 432/3/3
f 434/3/3 423/3/3 422/3/3
f 435/3/3 423/3/3 434/3/3
f 436/3/3 425/3/3 424/3/3
f 437/3/3 425/3/3 436/3/3
f 442/2/3 439/2/3 438/2/3
f 443/2/3 439/2/3 442/2/3
f 444/2/3 441/2/3 440/2/3
f 445/2/3 441/2/3 444/2/3
f 450/2/3 447/2/3 446/2/3
f 451/2/3 447/2/3 450/2/3
f 452/2/3 449/2/3 448/2/3
f 453/2/3 449/2/3 452/2/3
f 456/2/3 455/2/3 454/2/3
f 457/2/3 455/2/3 456/2/3
f 460/2/3 459/2/3 458/2/3
f 462/2/3 460/2/3 458/2/3
f 462/2/3 461/2/3 460/2/3
f 463/2/3 461/2/3 462/2/3
f 468/2/3 465/2/3 464/2/3
f 469/2/3 465/2/3 468/2/3
f 470/2/3 467/2/3 466/2/3
f 471/2/3 467/2/3 470/2/3
f 478/2/3 473/2/3 472/2/3
f 479/2/3 473/2/3 478/2/3
f 480/3/3 477/3/3 476/3/3
f 481/3/3 477/3/3 480/3/3
f 482/2/3 475/2/3 474/2/3
f 483/2/3 475/2/3 482/2/3
f 492/3/3 485/3/3 484/3/3
f 493/3/3 485/3/3 492/3/3
f 494/3/3 487/3/3 486/3/3
f 495/3/3 487/3/3 494/3/3
f 496/3/3 489/3/3 488/3/3
f 497/3/3 489/3/3 496/3/3
f 498/3/3 491/3/3 490/3/3
f 499/3/3 491/3/3 498/3/3
f 512/3/3 501/3/3 500/3/3
f 513/3/3 501/3/3 512/3/3
f 514/3/3 503/3/3 502/3/3
f 515/3/3 503/3/3 514/3/3
f 516/3/3 505/3/3 504/3/3
f 517/3/3 505/3/3 516/3/3
f 518/3/3 507/3/3 506/3/3
f 519/3/3 507/3/3 518/3/3
f 520/3/3 509/3/3 508/3/3
f 521/3/3 509/3/3 520/3/3
f 522/3/3 511/3/3 510/3/3
f 523/3/3 511/3/3 522/3/3
f 528/2/3 525/2/3 524/2/3
f 529/2/3 525/2/3 528/2/3
f 530/2/3 527/2/3 526/2/3
f 531/2/3 527/2/3 530/2/3
f 534/2/3 533/2/3 532/2/3
f 535/2/3 533/2/3 534/2/3
f 536/2/3 533/2/3 535/2/3
f 537/2/3 533/2/3 536/2/3
f 542/2/3 539/2/3 538/2/3
f 543/2/3 539/2/3 542/2/3
f 544/2/3 541/2/3 540/2/3
f 545/2/3 541/2/3 544/2/3
f 548/2/3 547/2/3 546/2/3
f 549/2/3 547/2/3 548/2/3
f 550/2/4 551/2/4 552/2/4
f 552/2/4 551/2/4 553/2/4
f 554/2/4 555/2/4 556/2/4
f 556/2/4 555/2/4 557/2/4
f 557/2/4 555/2/4 558/2/4
f 558/2/4 555/2/4 559/2/4
f 560/2/4 561/2/4 564/2/4
f 564/2/4 561/2/4 565/2/4
f 562/2/4 563/2/4 566/2/4
f 566/2/4 563/2/4 567/2/4
f 568/2/4 569/2/4 572/2/4
f 572/2/4 569/2/4 573/2/4
f 570/2/4 571/2/4 574/2/4
f 574/2/4 571/2/4 575/2/4
f 576/3/4 577/3/4 588/3/4
f 588/3/4 577/3/4 589/3/4
f 578/3/4 579/3/4 590/3/4
f 590/3/4 579/3/4 591/3/4
f 580/3/4 581/3/4 592/3/4
f 592/3/4 581/3/4 593/3/4
f 582/3/4 583/3/4 594/3/4
f 594/3/4 583/3/4 595/3/4
f 584/3/4 585/3/4 596/3/4
f 596/3/4 585/3/4 597/3/4
f 586/3/4 587/3/4 598/3/4
f 598/3/4 587/3/4 599/3/4
f 600/3/4 601/3/4 610/3/4
f 610/3/4 601/3/4 611/3/4
f 602/3/4 603/3/4 612/3/4
f 612/3/4 603/3/4 613/3/4
f 604/3/4 605/3/4 614/3/4
f 614/3/4 605/3/4 615/3/4
f 606/3/4 607/3/4 616/3/4
f 616/3/4 607/3/4 617/3/4
f 608/3/4 609/3/4 618/3/4
f 618/3/4 609/3/4 619/3/4
f 620/2/4 621/2/4 628/2/4
f 628/2/4 621/2/4 629/2/4
f 624/3/4 625/3/4 630/3/4
f 630/3/4 625/3/4 631/3/4
f 626/3/4 627/3/4 632/3/4
f 632/3/4 627/3/4 633/3/4
f 622/2/4 623/2/4 634/2/4
f 634/2/4 623/2/4 635/2/4
f 636/2/4 637/2/4 640/2/4
f 640/2/4 637/2/4 641/2/4
f 638/2/4 639/2/4 642/2/4
f 642/2/4 639/2/4 643/2/4
f 644/2/4 645/2/4 646/2/4
f 644/2/4 646/2/4 648/2/4
f 646/2/4 647/2/4 648/2/4
f 648/2/4 647/2/4 649/2/4
f 650/2/4 651/2/4 652/2/4
f 652/2/4 651/2/4 653/2/4
f 654/2/4 655/2/4 658/2/4
f 658/2/4 655/2/4 659/2/4
f 656/2/4 657/2/4 660/2/4
f 660/2/4 657/2/4 661/2/4
f 662/2/4 663/2/4 666/2/4
f 666/2/4 663/2/4 667/2/4
f 664/2/4 665/2/4 668/2/4
f 668/2/4 665/2/4 669/2/4
f 670/3/4 671/3/4 682/3/4
f 682/3/4 671/3/4 683/3/4
f 672/3/4 673/3/4 684/3/4
f 684/3/4 673/3/4 685/3/4
f 674/3/4 675/3/4 686/3/4
f 686/3/4 675/3/4 687/3/4
f 676/3/4 677/3/4 688/3/4
f 688/3/4 677/3/4 689/3/4
f 678/3/4 679/3/4 690/3/4
f 690/3/4 679/3/4 691/3/4
f 680/3/4 681/3/4 692/3/4
f 692/3/4 681/3/4 693/3/4
f 694/3/4 695/3/4 704/3/4
f 704/3/4 695/3/4 705/3/4
f 696/3/4 697/3/4 706/3/4
f 706/3/4 697/3/4 707/3/4
f 698/3/4 699/3/4 708/3/4
f 708/3/4 699/3/4 709/3/4
f 700/3/4 701/3/4 710/3/4
f 710/3/4 701/3/4 711/3/4
f 702/3/4 703/3/4 712/3/4
f 712/3/4 703/3/4 713/3/4
f 714/2/4 715/2/4 722/2/4
f 722/2/4 715/2/4 723/2/4
f 718/3/4 719/3/4 724/3/4
f 724/3/4 719/3/4 725/3/4
f 720/3/4 721/3/4 726/3/4
f 726/3/4 721/3/4 727/3/4
f 716/2/4 717/2/4 728/2/4
f 728/2/4 717/2/4 729/2/4
f 730/2/4 731/2/4 732/2/4
f 732/2/4 731/2/4 733/2/4
f 733/2/4 731/2/4 736/2/4
f 736/2/4 731/2/4 737/2/4
f 734/2/4 735/2/4 739/2/4
f 739/2/4 735/2/4 740/2/4
f 737/2/4 738/2/4 741/2/4
f 741/2/4 738/2/4 742/2/4
f 743/2/4 744/2/4 745/2/4
f 745/2/4 744/2/4 746/2/4
f 749/3/5 748/3/5 747/3/5
f 750/3/5 748/3/5 749/3/5
f 753/3/5 752/3/5 751/3/5
f 754/3/5 752/3/5 753/3/5
f 757/3/5 756/3/5 755/3/5
f 758/3/5 756/3/5 757/3/5
f 761/3/5 760/3/5 759/3/5
f 762/3/5 760/3/5 761/3/5
f 765/2/5 764/2/5 763/2/5
f 766/2/5 764/2/5 765/2/5
f 767/2/5 765/2/5 763/2/5
f 769/2/5 767/2/5 763/2/5
f 769/2/5 768/2/5 767/2/5
f 770/2/5 768/2/5 769/2/5
f 771/2/5 769/2/5 763/2/5
f 773/2/5 771/2/5 763/2/5
f 773/2/5 772/2/5 771/2/5
f 774/2/5 772/2/5 773/2/5
f 777/2/5 776/2/5 775/2/5
f 778/2/5 776/2/5 777/2/5
f 779/2/5 777/2/5 775/2/5
f 781/2/5 779/2/5 775/2/5
f 781/2/5 780/2/5 779/2/5
f 782/2/5 780/2/5 781/2/5
f 783/2/5 781/2/5 775/2/5
f 785/2/5 783/2/5 775/2/5
f 785/2/5 784/2/5 783/2/5
f 786/2/5 784/2/5 785/2/5
f 789/2/5 788/2/5 787/2/5
f 790/2/5 788/2/5 789/2/5
f 793/2/5 792/2/5 791/2/5
f 794/2/5 792/2/5 793/2/5
f 797/2/5 796/2/5 795/2/5
f 798/2/5 796/2/5 797/2/5
f 801/2/5 800/2/5 799/2/5
f 802/2/5 800/2/5 801/2/5
f 805/3/5 804/3/5 803/3/5
f 806/3/5 804/3/5 805/3/5
f 809/3/5 808/3/5 807/3/5
f 810/3/5 808/3/5 809/3/5
f 813/3/5 812/3/5 811/3/5
f 814/3/5 812/3/5 813/3/5
f 817/3/5 816/3/5 815/3/5
f 818/3/5 816/3/5 817/3/5
f 821/3/5 820/3/5 819/3/5
f 822/3/5 820/3/5 821/3/5
f 825/3/5 824/3/5 823/3/5
f 826/3/5 824/3/5 825/3/5
f 829/2/5 828/2/5 827/2/5
f 830/2/5 828/2/5 829/2/5
f 833/2/5 832/2/5 831/2/5
f 834/2/5 832/2/5 833/2/5
f 837/2/5 836/2/5 835/2/5
f 838/2/5 836/2/5 837/2/5
f 841/2/5 840/2/5 839/2/5
f 842/2/5 840/2/5 841/2/5
f 845/2/5 844/2/5 843/2/5
f 846/2/5 844/2/5 845/2/5
f 849/2/5 848/2/5 847/2/5
f 850/2/5 848/2/5 849/2/5
f 853/3/5 852/3/5 851/3/5
f 854/3/5 852/3/5 853/3/5
f 857/3/5 856/3/5 855/3/5
f 858/3/5 856/3/5 857/3/5
f 861/2/5 860/2/5 859/2/5
f 862/2/5 860/2/5 861/2/5
f 865/3/5 864/3/5 863/3/5
f 866/3/5 864/3/5 865/3/5
f 869/2/5 868/2/5 867/2/5
f 870/2/5 868/2/5 869/2/5
f 873/3/5 872/3/5 871/3/5
f 874/3/5 872/3/5 873/3/5
f 877/2/5 876/2/5 875/2/5
f 878/2/5 876/2/5 877/2/5
f 881/2/5 880/2/5 879/2/5
f 882/2/5 880/2/5 881/2/5
f 885/3/5 884/3/5 883/3/5
f 886/3/5 884/3/5 885/3/5
f 889/2/5 888/2/5 887/2/5
f 890/2/5 888/2/5 889/2/5
f 893/2/5 892/2/5 891/2/5
f 894/2/5 892/2/5 893/2/5
f 897/3/5 896/3/5 895/3/5
f 898/3/5 896/3/5 897/3/5
f 901/2/5 900/2/5 899/2/5
f 902/2/5 900/2/5 901/2/5
f 905/2/5 904/2/5 903/2/5
f 906/2/5 904/2/5 905/2/5
f 909/2/5 908/2/5 907/2/5
f 910/2/5 908/2/5 909/2/5
f 913/2/5 912/2/5 911/2/5
f 914/2/5 912/2/5 913/2/5
f 917/2/5 916/2/5 915/2/5
f 918/2/5 916/2/5 917/2/5
f 921/2/5 920/2/5 919/2/5
f 922/2/5 920/2/5 921/2/5
f 925/2/5 924/2/5 923/2/5
f 926/2/5 924/2/5 925/2/5
f 929/2/5 928/2/5 927/2/5
f 930/2/5 928/2/5 929/2/5
f 933/2/5 932/2/5 931/2/5
f 934/2/5 932/2/5 933/2/5
f 937/2/5 936/2/5 935/2/5
f 938/2/5 936/2/5 937/2/5
f 941/2/5 940/2/5 939/2/5
f 942/2/5 940/2/5 941/2/5
f 943/2/6 944/2/6 945/2/6
f 945/2/6 944/2/6 946/2/6
f 947/2/6 948/2/6 949/2/6
f 949/2/6 948/2/6 950/2/6
f 951/2/6 952/2/6 953/2/6
f 953/2/6 952/2/6 954/2/6
f 955/2/6 956/2/6 957/2/6
f 957/2/6 956/2/6 958/2/6
f 959/2/6 960/2/6 961/2/6
f 961/2/6 960/2/6 962/2/6
f 963/2/6 964/2/6 965/2/6
f 965/2/6 964/2/6 966/2/6
f 967/2/6 968/2/6 969/2/6
f 969/2/6 968/2/6 970/2/6
f 971/2/6 972/2/6 973/2/6
f 973/2/6 972/2/6 974/2/6
f 975/2/6 976/2/6 977/2/6
f 977/2/6 976/2/6 978/2/6
f 979/2/6 980/2/6 981/2/6
f 981/2/6 980/2/6 982/2/6
f 983/2/6 984/2/6 985/2/6
f 985/2/6 984/2/6 986/2/6
f 987/3/6 988/3/6 989/3/6
f 989/3/6 988/3/6 990/3/6
f 991/2/6 992/2/6 993/2/6
f 993/2/6 992/2/6 994/2/6
f 995/2/6 996/2/6 997/2/6
f 997/2/6 996/2/6 998/2/6
f 999/3/6 1000/3/6 1001/3/6
f 1001/3/6 1000/3/6 1002/3/6
f 1003/2/6 1004/2/6 1005/2/6
f 1005/2/6 1004/2/6 1006/2/6
f 1007/3/6 1008/3/6 1009/3/6
f 1009/3/6 1008/3/6 1010/3/6
f 1011/3/6 1012/3/6 1013/3/6
f 1013/3/6 1012/3/6 1014/3/6
f 1015/3/6 1016/3/6 1017/3/6
f 1017/3/6 1016/3/6 1018/3/6
f 1019/3/6 1020/3/6 1021/3/6
f 1021/3/6 1020/3/6 1022/3/6
f 1023/2/6 1024/2/6 1026/2/6
f 1026/2/6 1024/2/6 1027/2/6
f 1025/2/6 1026/2/6 1028/2/6
f 1028/2/6 1026/2/6 1029/2/6
f 1030/2/6 1031/2/6 1032/2/6
f 1032/2/6 1031/2/6 1033/2/6
f 1030/2/6 1032/2/6 1034/2/6
f 1030/2/6 1034/2/6 1036/2/6
f 1034/2/6 1035/2/6 1036/2/6
f 1036/2/6 1035/2/6 1037/2/6
f 1038/2/6 1039/2/6 1040/2/6
f 1040/2/6 1039/2/6 1041/2/6
f 1041/2/6 1042/2/6 1043/2/6
f 1043/2/6 1042/2/6 1044/2/6
f 1045/3/6 1046/3/6 1047/3/6
f 1047/3/6 1046/3/6 1048/3/6
f 1049/3/6 1050/3/6 1051/3/6
f 1051/3/6 1050/3/6 1052/3/6
f 1053/3/6 1054/3/6 1055/3/6
f 1055/3/6 1054/3/6 1056/3/6
f 1057/3/6 1058/3/6 1059/3/6
f 1059/3/6 1058/3/6 1060/3/6
f 1061/3/6 1062/3/6 1063/3/6
f 1063/3/6 1062/3/6 1064/3/6
f 1065/3/6 1066/3/6 1067/3/6
f 1067/3/6 1066/3/6 1068/3/6
f 1069/2/6 1070/2/6 1071/2/6
f 1071/2/6 1070/2/6 1072/2/6
f 1073/2/6 1074/2/6 1075/2/6
f 1075/2/6 1074/2/6 1076/2/6
f 1077/2/6 1078/2/6 1079/2/6
f 1079/2/6 1078/2/6 1080/2/6
f 1081/2/6 1082/2/6 1083/2/6
f 1083/2/6 1082/2/6 1084/2/6
f 1085/2/6 1086/2/6 1087/2/6
f 1087/2/6 1086/2/6 1088/2/6
f 1085/2/6 1087/2/6 1089/2/6
f 1085/2/6 1089/2/6 1091/2/6
f 1089/2/6 1090/2/6 1091/2/6
f 1091/2/6 1090/2/6 1092/2/6
f 1085/2/6 1091/2/6 1093/2/6
f 1085/2/6 1093/2/6 1095/2/6
f 1093/2/6 1094/2/6 1095/2/6
f 1095/2/6 1094/2/6 1096/2/6
f 1097/2/6 1098/2/6 1099/2/6
f 1099/2/6 1098/2/6 1100/2/6
f 1097/2/6 1099/2/6 1101/2/6
f 1097/2/6 1101/2/6 1103/2/6
f 1101/2/6 1102/2/6 1103/2/6
f 1103/2/6 1102/2/6 1104/2/6
f 1097/2/6 1103/2/6 1105/2/6
f 1097/2/6 1105/2/6 1107/2/6
f 1105/2/6 1106/2/6 1107/2/6
f 1107/2/6 1106/2/6 1108/2/6
f 1109/3/6 1110/3/6 1111/3/6
f 1111/3/6 1110/3/6 1112/3/6
f 1113/3/6 1114/3/6 1115/3/6
f 1115/3/6 1114/3/6 1116/3/6
f 1117/3/6 1118/3/6 1119/3/6
f 1119/3/6 1118/3/6 1120/3/6
f 1121/3/6 1122/3/6 1123/3/6
f 1123/3/6 1122/3/6 1124/3/6
