# MagicaVoxel @ Ephtracy

# group
o 

# material
mtllib model-1.mtl
usemtl palette

# normals
vn 0 0 1
vn 0 0 -1
vn 1 0 0
vn -1 0 0
vn 0 -1 0
vn 0 1 0

# texcoords
vt 0.00585938 0.5
vt 0.00976563 0.5
vt 0.384766 0.5
vt 0.517578 0.5
vt 0.572266 0.5
vt 0.759766 0.5

# verts
v 0.5 0.6 1
v -0.5 0.6 1
v 0.5 0.8 1
v 0.4 0.8 1
v -0.4 0.8 1
v -0.5 0.8 1
v 0.5 1 1
v 0.4 1 1
v -0.4 1 1
v -0.5 1 1
v 0.5 1.3 1
v 0.4 1.3 1
v -0.4 1.3 1
v -0.5 1.3 1
v 0.5 1.5 1
v -0.5 1.5 1
v 0.5 1.6 1
v -0.5 1.6 1
v 0.5 1.7 1
v -0.5 1.7 1
v 0.5 1.8 1
v -0.5 1.8 1
v 0.5 1.9 1
v -0.5 1.9 1
v 0.5 2.1 1
v -0.5 2.1 1
v 0.6 2.1 0.6
v 0.5 2.1 0.6
v -0.5 2.1 0.6
v 0.6 2.2 0.6
v -0.5 2.2 0.6
v 0.6 1.9 0.5
v 0.5 1.9 0.5
v 0.6 2.1 0.5
v 0.5 2.1 0.5
v 0.6 1.8 0.4
v 0.5 1.8 0.4
v 0.6 1.9 0.4
v 0.5 1.9 0.4
v 0.6 1.6 0.2
v 0.5 1.6 0.2
v 0.5 1.7 0.2
v 0.6 1.8 0.2
v 0.5 1.8 0.2
v 0.6 1.4 0.1
v 0.5 1.4 0.1
v 0.5 1.5 0.1
v 0.6 1.6 0.1
v 0.5 1.6 0.1
v 0.6 1.7 -0.1
v -0.4 1.7 -0.1
v -0.4 1.8 -0.1
v 0.6 1.9 -0.1
v -0.4 1.9 -0.1
v 0.6 1.9 -0.3
v -0.4 1.9 -0.3
v 0.6 2 -0.3
v -0.4 2 -0.3
v 0.6 2 -0.4
v -0.4 2 -0.4
v 0.6 2.2 -0.4
v -0.4 2.2 -0.4
v 0.6 2 0.4
v -0.4 2 0.4
v 0.6 2.2 0.4
v -0.4 2.2 0.4
v 0.6 1.9 0.3
v -0.4 1.9 0.3
v 0.6 2 0.3
v -0.4 2 0.3
v 0.6 1.7 0.1
v -0.4 1.7 0.1
v -0.4 1.8 0.1
v 0.6 1.9 0.1
v -0.4 1.9 0.1
v 0.6 1.4 -0.1
v 0.5 1.4 -0.1
v 0.5 1.5 -0.1
v 0.6 1.6 -0.1
v 0.5 1.6 -0.1
v 0.6 1.6 -0.2
v 0.5 1.6 -0.2
v 0.5 1.7 -0.2
v 0.6 1.8 -0.2
v 0.5 1.8 -0.2
v 0.6 1.8 -0.4
v 0.5 1.8 -0.4
v 0.6 1.9 -0.4
v 0.5 1.9 -0.4
v 0.6 1.9 -0.5
v 0.5 1.9 -0.5
v 0.6 2.1 -0.5
v 0.5 2.1 -0.5
v 0.6 2.1 -0.6
v 0.5 2.1 -0.6
v -0.5 2.1 -0.6
v 0.6 2.2 -0.6
v -0.5 2.2 -0.6
v 0.5 0.6 -1
v -0.5 0.6 -1
v 0.5 0.8 -1
v 0.4 0.8 -1
v -0.4 0.8 -1
v -0.5 0.8 -1
v 0.5 1 -1
v 0.4 1 -1
v -0.4 1 -1
v -0.5 1 -1
v 0.5 1.3 -1
v 0.4 1.3 -1
v -0.4 1.3 -1
v -0.5 1.3 -1
v 0.5 1.5 -1
v -0.5 1.5 -1
v 0.5 1.6 -1
v -0.5 1.6 -1
v 0.5 1.7 -1
v -0.5 1.7 -1
v 0.5 1.8 -1
v -0.5 1.8 -1
v 0.5 1.9 -1
v -0.5 1.9 -1
v 0.5 2.1 -1
v -0.5 2.1 -1
v 0.6 2.1 0.6
v 0.6 2.2 0.6
v 0.6 1.9 0.5
v 0.6 2.1 0.5
v 0.6 1.8 0.4
v 0.6 1.9 0.4
v 0.6 2 0.4
v 0.6 2.2 0.4
v 0.6 1.9 0.3
v 0.6 2 0.3
v 0.6 1.6 0.2
v 0.6 1.8 0.2
v 0.6 1.4 0.1
v 0.6 1.6 0.1
v 0.6 1.7 0.1
v 0.6 1.9 0.1
v 0.6 1.4 -0.1
v 0.6 1.6 -0.1
v 0.6 1.7 -0.1
v 0.6 1.9 -0.1
v 0.6 1.6 -0.2
v 0.6 1.8 -0.2
v 0.6 1.9 -0.3
v 0.6 2 -0.3
v 0.6 1.8 -0.4
v 0.6 1.9 -0.4
v 0.6 2 -0.4
v 0.6 2.2 -0.4
v 0.6 1.9 -0.5
v 0.6 2.1 -0.5
v 0.6 2.1 -0.6
v 0.6 2.2 -0.6
v 0.5 0.6 1
v 0.5 0.8 1
v 0.5 1 1
v 0.5 1.3 1
v 0.5 1.5 1
v 0.5 1.6 1
v 0.5 1.7 1
v 0.5 1.8 1
v 0.5 1.9 1
v 0.5 2.1 1
v 0.5 0.7 0.9
v 0.5 0.8 0.9
v 0.5 1.3 0.9
v 0.5 1.4 0.9
v 0.5 0.8 0.8
v 0.5 1 0.8
v 0.5 1.3 0.8
v 0.5 1.4 0.8
v 0.5 0.8 0.7
v 0.5 1 0.7
v 0.5 1.3 0.7
v 0.5 1.3 0.6
v 0.5 1.4 0.6
v 0.5 2.1 0.6
v 0.5 0.8 0.5
v 0.5 1 0.5
v 0.5 1.3 0.5
v 0.5 1.4 0.5
v 0.5 1.9 0.5
v 0.5 2.1 0.5
v 0.5 0.9 0.4
v 0.5 1.1 0.4
v 0.5 1.3 0.4
v 0.5 1.8 0.4
v 0.5 1.9 0.4
v 0.5 1.3 0.3
v 0.5 1.4 0.3
v 0.5 0.8 0.2
v 0.5 0.9 0.2
v 0.5 1.1 0.2
v 0.5 1.3 0.2
v 0.5 1.4 0.2
v 0.5 1.6 0.2
v 0.5 1.7 0.2
v 0.5 1.8 0.2
v 0.5 0.9 0.1
v 0.5 1.2 0.1
v 0.5 1.3 0.1
v 0.5 1.4 0.1
v 0.5 1.5 0.1
v 0.5 1.6 0.1
v 0.5 1.2 0
v 0.5 1.3 0
v 0.5 0.9 -0.1
v 0.5 1.2 -0.1
v 0.5 1.4 -0.1
v 0.5 1.5 -0.1
v 0.5 1.6 -0.1
v 0.5 0.8 -0.2
v 0.5 0.9 -0.2
v 0.5 1.1 -0.2
v 0.5 1.3 -0.2
v 0.5 1.4 -0.2
v 0.5 1.6 -0.2
v 0.5 1.7 -0.2
v 0.5 1.8 -0.2
v 0.5 1.3 -0.3
v 0.5 1.4 -0.3
v 0.5 0.9 -0.4
v 0.5 1.1 -0.4
v 0.5 1.3 -0.4
v 0.5 1.8 -0.4
v 0.5 1.9 -0.4
v 0.5 0.8 -0.5
v 0.5 1 -0.5
v 0.5 1.3 -0.5
v 0.5 1.4 -0.5
v 0.5 1.9 -0.5
v 0.5 2.1 -0.5
v 0.5 1.3 -0.6
v 0.5 1.4 -0.6
v 0.5 2.1 -0.6
v 0.5 0.8 -0.7
v 0.5 1 -0.7
v 0.5 1.3 -0.7
v 0.5 0.8 -0.8
v 0.5 1 -0.8
v 0.5 1.3 -0.8
v 0.5 1.4 -0.8
v 0.5 0.7 -0.9
v 0.5 0.8 -0.9
v 0.5 1.3 -0.9
v 0.5 1.4 -0.9
v 0.5 0.6 -1
v 0.5 0.8 -1
v 0.5 1 -1
v 0.5 1.3 -1
v 0.5 1.5 -1
v 0.5 1.6 -1
v 0.5 1.7 -1
v 0.5 1.8 -1
v 0.5 1.9 -1
v 0.5 2.1 -1
v -0.4 2 0.4
v -0.4 2.2 0.4
v -0.4 1.9 0.3
v -0.4 2 0.3
v -0.4 1.7 0.1
v -0.4 1.8 0.1
v -0.4 1.9 0.1
v -0.4 1.7 -0.1
v -0.4 1.8 -0.1
v -0.4 1.9 -0.1
v -0.4 1.9 -0.3
v -0.4 2 -0.3
v -0.4 2 -0.4
v -0.4 2.2 -0.4
v -0.5 0.6 1
v -0.5 0.8 1
v -0.5 1 1
v -0.5 1.3 1
v -0.5 1.5 1
v -0.5 1.6 1
v -0.5 1.7 1
v -0.5 1.8 1
v -0.5 1.9 1
v -0.5 2.1 1
v -0.5 0.7 0.9
v -0.5 0.8 0.9
v -0.5 1.3 0.9
v -0.5 1.4 0.9
v -0.5 0.8 0.8
v -0.5 1 0.8
v -0.5 1.3 0.8
v -0.5 1.4 0.8
v -0.5 0.8 0.7
v -0.5 1 0.7
v -0.5 1.3 0.7
v -0.5 1.3 0.6
v -0.5 1.4 0.6
v -0.5 2.1 0.6
v -0.5 2.2 0.6
v -0.5 0.8 0.5
v -0.5 1 0.5
v -0.5 1.3 0.5
v -0.5 1.4 0.5
v -0.5 0.9 0.4
v -0.5 1.1 0.4
v -0.5 1.3 0.4
v -0.5 1.3 0.3
v -0.5 1.4 0.3
v -0.5 0.8 0.2
v -0.5 0.9 0.2
v -0.5 1.1 0.2
v -0.5 1.3 0.2
v -0.5 1.4 0.2
v -0.5 0.9 0.1
v -0.5 1.2 0.1
v -0.5 1.2 0
v -0.5 1.3 0
v -0.5 0.9 -0.1
v -0.5 1.2 -0.1
v -0.5 1.3 -0.1
v -0.5 0.8 -0.2
v -0.5 0.9 -0.2
v -0.5 1.1 -0.2
v -0.5 1.3 -0.2
v -0.5 1.4 -0.2
v -0.5 1.3 -0.3
v -0.5 1.4 -0.3
v -0.5 0.9 -0.4
v -0.5 1.1 -0.4
v -0.5 1.3 -0.4
v -0.5 0.8 -0.5
v -0.5 1 -0.5
v -0.5 1.3 -0.5
v -0.5 1.4 -0.5
v -0.5 1.3 -0.6
v -0.5 1.4 -0.6
v -0.5 2.1 -0.6
v -0.5 2.2 -0.6
v -0.5 0.8 -0.7
v -0.5 1 -0.7
v -0.5 1.3 -0.7
v -0.5 0.8 -0.8
v -0.5 1 -0.8
v -0.5 1.3 -0.8
v -0.5 1.4 -0.8
v -0.5 0.7 -0.9
v -0.5 0.8 -0.9
v -0.5 1.3 -0.9
v -0.5 1.4 -0.9
v -0.5 0.6 -1
v -0.5 0.8 -1
v -0.5 1 -1
v -0.5 1.3 -1
v -0.5 1.5 -1
v -0.5 1.6 -1
v -0.5 1.7 -1
v -0.5 1.8 -1
v -0.5 1.9 -1
v -0.5 2.1 -1
v 0.5 0.6 1
v 0.5 0.6 -1
v -0.5 0.6 1
v -0.5 0.6 -1
v 0.6 1.4 0.1
v 0.6 1.4 -0.1
v 0.5 1.4 0.1
v 0.5 1.4 -0.1
v 0.6 1.6 0.2
v 0.6 1.6 0.1
v 0.6 1.6 -0.1
v 0.6 1.6 -0.2
v 0.5 1.6 0.2
v 0.5 1.6 0.1
v 0.5 1.6 -0.1
v 0.5 1.6 -0.2
v 0.6 1.8 0.4
v 0.6 1.8 0.2
v 0.6 1.8 -0.2
v 0.6 1.8 -0.4
v 0.5 1.8 0.4
v 0.5 1.8 0.2
v 0.5 1.8 -0.2
v 0.5 1.8 -0.4
v 0.6 1.9 0.5
v 0.6 1.9 0.4
v 0.6 1.9 -0.4
v 0.6 1.9 -0.5
v 0.5 1.9 0.5
v 0.5 1.9 0.4
v 0.5 1.9 -0.4
v 0.5 1.9 -0.5
v 0.6 2.1 0.6
v 0.6 2.1 0.5
v 0.6 2.1 -0.5
v 0.6 2.1 -0.6
v 0.5 2.1 0.6
v 0.5 2.1 0.5
v 0.5 2.1 -0.5
v 0.5 2.1 -0.6
v 0.6 1.7 0.1
v 0.6 1.7 -0.1
v -0.4 1.7 0.1
v -0.4 1.7 -0.1
v 0.6 1.9 0.3
v 0.6 1.9 0.1
v 0.6 1.9 -0.1
v 0.6 1.9 -0.3
v -0.4 1.9 0.3
v -0.4 1.9 0.1
v -0.4 1.9 -0.1
v -0.4 1.9 -0.3
v 0.6 2 0.4
v 0.6 2 0.3
v 0.6 2 -0.3
v 0.6 2 -0.4
v -0.4 2 0.4
v -0.4 2 0.3
v -0.4 2 -0.3
v -0.4 2 -0.4
v 0.5 2.1 1
v 0.5 2.1 0.6
v 0.5 2.1 -0.6
v 0.5 2.1 -1
v -0.5 2.1 1
v -0.5 2.1 0.6
v -0.5 2.1 -0.6
v -0.5 2.1 -1
v 0.6 2.2 0.6
v 0.6 2.2 0.4
v 0.6 2.2 -0.4
v 0.6 2.2 -0.6
v -0.4 2.2 0.4
v -0.4 2.2 -0.4
v -0.5 2.2 0.6
v -0.5 2.2 -0.6

# faces
f 3/1/1 2/1/1 1/1/1
f 4/1/1 2/1/1 3/1/1
f 5/1/1 2/1/1 4/1/1
f 6/1/1 2/1/1 5/1/1
f 7/4/1 4/4/1 3/4/1
f 8/1/1 5/1/1 4/1/1
f 8/4/1 4/4/1 7/4/1
f 9/4/1 6/4/1 5/4/1
f 9/1/1 5/1/1 8/1/1
f 10/4/1 6/4/1 9/4/1
f 11/5/1 8/5/1 7/5/1
f 12/1/1 9/1/1 8/1/1
f 12/5/1 8/5/1 11/5/1
f 13/3/1 10/3/1 9/3/1
f 13/1/1 9/1/1 12/1/1
f 14/3/1 10/3/1 13/3/1
f 15/1/1 12/1/1 11/1/1
f 15/1/1 13/1/1 12/1/1
f 15/1/1 14/1/1 13/1/1
f 16/1/1 14/1/1 15/1/1
f 17/3/1 16/3/1 15/3/1
f 18/3/1 16/3/1 17/3/1
f 19/1/1 18/1/1 17/1/1
f 20/1/1 18/1/1 19/1/1
f 21/4/1 20/4/1 19/4/1
f 22/4/1 20/4/1 21/4/1
f 23/5/1 22/5/1 21/5/1
f 24/5/1 22/5/1 23/5/1
f 25/1/1 24/1/1 23/1/1
f 26/1/1 24/1/1 25/1/1
f 30/1/1 28/1/1 27/1/1
f 30/1/1 29/1/1 28/1/1
f 31/1/1 29/1/1 30/1/1
f 34/1/1 33/1/1 32/1/1
f 35/1/1 33/1/1 34/1/1
f 38/1/1 37/1/1 36/1/1
f 39/1/1 37/1/1 38/1/1
f 42/1/1 41/1/1 40/1/1
f 43/1/1 42/1/1 40/1/1
f 44/1/1 42/1/1 43/1/1
f 47/1/1 46/1/1 45/1/1
f 48/1/1 47/1/1 45/1/1
f 49/1/1 47/1/1 48/1/1
f 52/1/1 51/1/1 50/1/1
f 53/1/1 52/1/1 50/1/1
f 54/1/1 52/1/1 53/1/1
f 57/1/1 56/1/1 55/1/1
f 58/1/1 56/1/1 57/1/1
f 61/1/1 60/1/1 59/1/1
f 62/1/1 60/1/1 61/1/1
f 63/1/2 64/1/2 65/1/2
f 65/1/2 64/1/2 66/1/2
f 67/1/2 68/1/2 69/1/2
f 69/1/2 68/1/2 70/1/2
f 71/1/2 72/1/2 73/1/2
f 71/1/2 73/1/2 74/1/2
f 74/1/2 73/1/2 75/1/2
f 76/1/2 77/1/2 78/1/2
f 76/1/2 78/1/2 79/1/2
f 79/1/2 78/1/2 80/1/2
f 81/1/2 82/1/2 83/1/2
f 81/1/2 83/1/2 84/1/2
f 84/1/2 83/1/2 85/1/2
f 86/1/2 87/1/2 88/1/2
f 88/1/2 87/1/2 89/1/2
f 90/1/2 91/1/2 92/1/2
f 92/1/2 91/1/2 93/1/2
f 94/1/2 95/1/2 97/1/2
f 95/1/2 96/1/2 97/1/2
f 97/1/2 96/1/2 98/1/2
f 99/1/2 100/1/2 101/1/2
f 101/1/2 100/1/2 102/1/2
f 102/1/2 100/1/2 103/1/2
f 103/1/2 100/1/2 104/1/2
f 101/4/2 102/4/2 105/4/2
f 102/1/2 103/1/2 106/1/2
f 105/4/2 102/4/2 106/4/2
f 103/4/2 104/4/2 107/4/2
f 106/1/2 103/1/2 107/1/2
f 107/4/2 104/4/2 108/4/2
f 105/3/2 106/3/2 109/3/2
f 106/1/2 107/1/2 110/1/2
f 109/3/2 106/3/2 110/3/2
f 107/5/2 108/5/2 111/5/2
f 110/1/2 107/1/2 111/1/2
f 111/5/2 108/5/2 112/5/2
f 109/1/2 110/1/2 113/1/2
f 110/1/2 111/1/2 113/1/2
f 111/1/2 112/1/2 113/1/2
f 113/1/2 112/1/2 114/1/2
f 113/3/2 114/3/2 115/3/2
f 115/3/2 114/3/2 116/3/2
f 115/1/2 116/1/2 117/1/2
f 117/1/2 116/1/2 118/1/2
f 117/4/2 118/4/2 119/4/2
f 119/4/2 118/4/2 120/4/2
f 119/5/2 120/5/2 121/5/2
f 121/5/2 120/5/2 122/5/2
f 121/1/2 122/1/2 123/1/2
f 123/1/2 122/1/2 124/1/2
f 128/1/3 126/1/3 125/1/3
f 130/1/3 128/1/3 127/1/3
f 131/1/3 128/1/3 130/1/3
f 132/1/3 126/1/3 128/1/3
f 132/1/3 128/1/3 131/1/3
f 133/1/3 131/1/3 130/1/3
f 133/1/3 130/1/3 129/1/3
f 134/1/3 131/1/3 133/1/3
f 136/1/3 133/1/3 129/1/3
f 138/1/3 136/1/3 135/1/3
f 139/1/3 136/1/3 138/1/3
f 140/1/3 133/1/3 136/1/3
f 140/1/3 136/1/3 139/1/3
f 141/1/3 139/1/3 138/1/3
f 141/1/3 138/1/3 137/1/3
f 142/1/3 139/1/3 141/1/3
f 143/1/3 139/1/3 142/1/3
f 145/1/3 144/1/3 143/1/3
f 145/1/3 143/1/3 142/1/3
f 146/1/3 144/1/3 145/1/3
f 147/1/3 144/1/3 146/1/3
f 149/1/3 147/1/3 146/1/3
f 149/1/3 148/1/3 147/1/3
f 150/1/3 148/1/3 149/1/3
f 151/1/3 148/1/3 150/1/3
f 153/1/3 151/1/3 150/1/3
f 153/1/3 152/1/3 151/1/3
f 154/1/3 152/1/3 153/1/3
f 155/1/3 152/1/3 154/1/3
f 156/1/3 152/1/3 155/1/3
f 167/1/3 158/1/3 157/1/3
f 168/4/3 159/4/3 158/4/3
f 168/1/3 158/1/3 167/1/3
f 169/5/3 160/5/3 159/5/3
f 169/1/3 161/1/3 160/1/3
f 170/1/3 161/1/3 169/1/3
f 171/4/3 159/4/3 168/4/3
f 171/4/3 168/4/3 167/4/3
f 172/5/3 169/5/3 159/5/3
f 172/4/3 159/4/3 171/4/3
f 173/6/3 170/6/3 169/6/3
f 173/5/3 169/5/3 172/5/3
f 174/1/3 161/1/3 170/1/3
f 174/6/3 170/6/3 173/6/3
f 175/1/3 173/1/3 172/1/3
f 175/1/3 172/1/3 171/1/3
f 175/1/3 174/1/3 173/1/3
f 175/4/3 171/4/3 167/4/3
f 176/1/3 174/1/3 175/1/3
f 177/1/3 174/1/3 176/1/3
f 178/5/3 177/5/3 176/5/3
f 178/1/3 174/1/3 177/1/3
f 179/1/3 161/1/3 174/1/3
f 179/1/3 174/1/3 178/1/3
f 180/1/3 166/1/3 165/1/3
f 181/4/3 175/4/3 167/4/3
f 181/4/3 176/4/3 175/4/3
f 182/5/3 178/5/3 176/5/3
f 182/4/3 176/4/3 181/4/3
f 183/6/3 179/6/3 178/6/3
f 183/5/3 178/5/3 182/5/3
f 184/1/3 161/1/3 179/1/3
f 184/6/3 179/6/3 183/6/3
f 185/5/3 165/5/3 164/5/3
f 185/1/3 180/1/3 165/1/3
f 186/1/3 180/1/3 185/1/3
f 187/1/3 183/1/3 182/1/3
f 187/1/3 184/1/3 183/1/3
f 187/1/3 182/1/3 181/1/3
f 188/1/3 184/1/3 187/1/3
f 189/1/3 184/1/3 188/1/3
f 190/4/3 164/4/3 163/4/3
f 190/5/3 185/5/3 164/5/3
f 191/5/3 185/5/3 190/5/3
f 192/1/3 184/1/3 189/1/3
f 192/5/3 189/5/3 188/5/3
f 193/1/3 161/1/3 184/1/3
f 193/1/3 184/1/3 192/1/3
f 194/4/3 181/4/3 167/4/3
f 194/1/3 187/1/3 181/1/3
f 195/4/3 188/4/3 187/4/3
f 195/1/3 187/1/3 194/1/3
f 196/5/3 192/5/3 188/5/3
f 196/4/3 188/4/3 195/4/3
f 197/6/3 193/6/3 192/6/3
f 197/5/3 192/5/3 196/5/3
f 198/1/3 161/1/3 193/1/3
f 198/6/3 193/6/3 197/6/3
f 199/3/3 162/3/3 161/3/3
f 199/1/3 163/1/3 162/1/3
f 200/4/3 190/4/3 163/4/3
f 200/1/3 163/1/3 199/1/3
f 201/4/3 190/4/3 200/4/3
f 202/1/3 197/1/3 196/1/3
f 202/4/3 195/4/3 194/4/3
f 202/1/3 198/1/3 197/1/3
f 202/1/3 196/1/3 195/1/3
f 203/1/3 198/1/3 202/1/3
f 204/1/3 198/1/3 203/1/3
f 205/1/3 161/1/3 198/1/3
f 205/1/3 198/1/3 204/1/3
f 206/3/3 199/3/3 161/3/3
f 206/1/3 161/1/3 205/1/3
f 207/3/3 199/3/3 206/3/3
f 208/6/3 204/6/3 203/6/3
f 208/2/3 203/2/3 202/2/3
f 209/1/3 205/1/3 204/1/3
f 209/6/3 204/6/3 208/6/3
f 210/2/3 208/2/3 202/2/3
f 210/4/3 202/4/3 194/4/3
f 211/1/3 209/1/3 208/1/3
f 211/2/3 208/2/3 210/2/3
f 212/1/3 205/1/3 209/1/3
f 212/1/3 209/1/3 211/1/3
f 215/4/3 194/4/3 167/4/3
f 215/4/3 210/4/3 194/4/3
f 216/1/3 211/1/3 210/1/3
f 216/4/3 210/4/3 215/4/3
f 216/1/3 213/1/3 212/1/3
f 216/1/3 212/1/3 211/1/3
f 217/1/3 213/1/3 216/1/3
f 218/1/3 213/1/3 217/1/3
f 219/1/3 213/1/3 218/1/3
f 220/3/3 214/3/3 213/3/3
f 223/3/3 218/3/3 217/3/3
f 223/6/3 219/6/3 218/6/3
f 224/1/3 213/1/3 219/1/3
f 224/6/3 219/6/3 223/6/3
f 225/1/3 216/1/3 215/1/3
f 225/4/3 217/4/3 216/4/3
f 226/3/3 223/3/3 217/3/3
f 226/4/3 217/4/3 225/4/3
f 227/1/3 224/1/3 223/1/3
f 227/3/3 223/3/3 226/3/3
f 228/4/3 222/4/3 221/4/3
f 230/1/3 225/1/3 215/1/3
f 230/4/3 215/4/3 167/4/3
f 230/1/3 227/1/3 226/1/3
f 230/1/3 226/1/3 225/1/3
f 231/1/3 227/1/3 230/1/3
f 232/1/3 224/1/3 227/1/3
f 232/1/3 227/1/3 231/1/3
f 233/1/3 213/1/3 224/1/3
f 233/1/3 224/1/3 232/1/3
f 234/5/3 229/5/3 228/5/3
f 236/3/3 232/3/3 231/3/3
f 236/6/3 233/6/3 232/6/3
f 237/1/3 213/1/3 233/1/3
f 237/6/3 233/6/3 236/6/3
f 238/1/3 235/1/3 234/1/3
f 239/4/3 231/4/3 230/4/3
f 239/4/3 230/4/3 167/4/3
f 240/3/3 236/3/3 231/3/3
f 240/4/3 231/4/3 239/4/3
f 241/1/3 237/1/3 236/1/3
f 241/3/3 236/3/3 240/3/3
f 242/4/3 239/4/3 167/4/3
f 242/1/3 240/1/3 239/1/3
f 242/1/3 241/1/3 240/1/3
f 243/1/3 241/1/3 242/1/3
f 244/1/3 237/1/3 241/1/3
f 244/1/3 241/1/3 243/1/3
f 245/1/3 213/1/3 237/1/3
f 245/1/3 237/1/3 244/1/3
f 246/1/3 167/1/3 157/1/3
f 246/4/3 243/4/3 242/4/3
f 246/4/3 242/4/3 167/4/3
f 247/4/3 243/4/3 246/4/3
f 248/6/3 245/6/3 244/6/3
f 248/3/3 244/3/3 243/3/3
f 249/1/3 213/1/3 245/1/3
f 249/6/3 245/6/3 248/6/3
f 250/1/3 247/1/3 246/1/3
f 250/1/3 246/1/3 157/1/3
f 251/4/3 243/4/3 247/4/3
f 251/1/3 247/1/3 250/1/3
f 252/3/3 248/3/3 243/3/3
f 252/4/3 243/4/3 251/4/3
f 253/1/3 249/1/3 248/1/3
f 253/3/3 248/3/3 252/3/3
f 254/3/3 220/3/3 213/3/3
f 254/1/3 249/1/3 253/1/3
f 254/1/3 213/1/3 249/1/3
f 255/1/3 221/1/3 220/1/3
f 255/3/3 220/3/3 254/3/3
f 256/4/3 228/4/3 221/4/3
f 256/1/3 221/1/3 255/1/3
f 257/5/3 234/5/3 228/5/3
f 257/4/3 228/4/3 256/4/3
f 258/1/3 238/1/3 234/1/3
f 258/5/3 234/5/3 257/5/3
f 259/1/3 238/1/3 258/1/3
f 263/1/3 261/1/3 260/1/3
f 266/1/3 263/1/3 262/1/3
f 267/4/3 265/4/3 264/4/3
f 268/5/3 266/5/3 265/5/3
f 268/4/3 265/4/3 267/4/3
f 269/1/3 263/1/3 266/1/3
f 269/5/3 266/5/3 268/5/3
f 270/1/3 263/1/3 269/1/3
f 271/1/3 261/1/3 263/1/3
f 271/1/3 263/1/3 270/1/3
f 272/1/3 261/1/3 271/1/3
f 273/1/3 261/1/3 272/1/3
f 274/1/4 275/1/4 284/1/4
f 275/4/4 276/4/4 285/4/4
f 284/1/4 275/1/4 285/1/4
f 276/3/4 277/3/4 286/3/4
f 277/1/4 278/1/4 286/1/4
f 286/1/4 278/1/4 287/1/4
f 285/4/4 276/4/4 288/4/4
f 284/4/4 285/4/4 288/4/4
f 276/3/4 286/3/4 289/3/4
f 288/4/4 276/4/4 289/4/4
f 286/6/4 287/6/4 290/6/4
f 289/3/4 286/3/4 290/3/4
f 287/1/4 278/1/4 291/1/4
f 290/6/4 287/6/4 291/6/4
f 289/1/4 290/1/4 292/1/4
f 288/1/4 289/1/4 292/1/4
f 290/1/4 291/1/4 292/1/4
f 284/4/4 288/4/4 292/4/4
f 292/1/4 291/1/4 293/1/4
f 293/1/4 291/1/4 294/1/4
f 293/3/4 294/3/4 295/3/4
f 294/1/4 291/1/4 295/1/4
f 291/1/4 278/1/4 296/1/4
f 295/1/4 291/1/4 296/1/4
f 282/1/4 283/1/4 297/1/4
f 284/4/4 292/4/4 299/4/4
f 292/4/4 293/4/4 299/4/4
f 293/3/4 295/3/4 300/3/4
f 299/4/4 293/4/4 300/4/4
f 295/6/4 296/6/4 301/6/4
f 300/3/4 295/3/4 301/3/4
f 296/1/4 278/1/4 302/1/4
f 301/6/4 296/6/4 302/6/4
f 300/1/4 301/1/4 303/1/4
f 299/1/4 300/1/4 303/1/4
f 301/1/4 302/1/4 303/1/4
f 303/1/4 302/1/4 304/1/4
f 304/1/4 302/1/4 305/1/4
f 304/3/4 305/3/4 306/3/4
f 305/1/4 302/1/4 306/1/4
f 302/1/4 278/1/4 307/1/4
f 306/1/4 302/1/4 307/1/4
f 284/4/4 299/4/4 308/4/4
f 299/1/4 303/1/4 308/1/4
f 303/4/4 304/4/4 309/4/4
f 308/1/4 303/1/4 309/1/4
f 304/3/4 306/3/4 310/3/4
f 309/4/4 304/4/4 310/4/4
f 306/6/4 307/6/4 311/6/4
f 310/3/4 306/3/4 311/3/4
f 307/1/4 278/1/4 312/1/4
f 311/6/4 307/6/4 312/6/4
f 308/4/4 309/4/4 313/4/4
f 310/1/4 311/1/4 313/1/4
f 311/1/4 312/1/4 313/1/4
f 309/1/4 310/1/4 313/1/4
f 313/1/4 312/1/4 314/1/4
f 313/2/4 314/2/4 315/2/4
f 314/1/4 312/1/4 315/1/4
f 315/1/4 312/1/4 316/1/4
f 308/4/4 313/4/4 317/4/4
f 313/2/4 315/2/4 317/2/4
f 315/6/4 316/6/4 318/6/4
f 317/2/4 315/2/4 318/2/4
f 316/1/4 312/1/4 319/1/4
f 318/6/4 316/6/4 319/6/4
f 284/4/4 308/4/4 320/4/4
f 308/4/4 317/4/4 320/4/4
f 317/1/4 318/1/4 321/1/4
f 320/4/4 317/4/4 321/4/4
f 318/1/4 319/1/4 321/1/4
f 321/1/4 319/1/4 322/1/4
f 319/1/4 312/1/4 323/1/4
f 322/1/4 319/1/4 323/1/4
f 312/1/4 278/1/4 324/1/4
f 323/1/4 312/1/4 324/1/4
f 322/5/4 323/5/4 325/5/4
f 323/6/4 324/6/4 325/6/4
f 324/1/4 278/1/4 326/1/4
f 325/6/4 324/6/4 326/6/4
f 321/4/4 322/4/4 327/4/4
f 320/1/4 321/1/4 327/1/4
f 322/5/4 325/5/4 328/5/4
f 327/4/4 322/4/4 328/4/4
f 325/1/4 326/1/4 329/1/4
f 328/5/4 325/5/4 329/5/4
f 320/1/4 327/1/4 330/1/4
f 284/4/4 320/4/4 330/4/4
f 328/1/4 329/1/4 330/1/4
f 327/1/4 328/1/4 330/1/4
f 330/1/4 329/1/4 331/1/4
f 329/1/4 326/1/4 332/1/4
f 331/1/4 329/1/4 332/1/4
f 326/1/4 278/1/4 333/1/4
f 332/1/4 326/1/4 333/1/4
f 331/5/4 332/5/4 334/5/4
f 332/6/4 333/6/4 334/6/4
f 333/1/4 278/1/4 335/1/4
f 334/6/4 333/6/4 335/6/4
f 297/1/4 298/1/4 336/1/4
f 282/1/4 297/1/4 336/1/4
f 336/1/4 298/1/4 337/1/4
f 330/4/4 331/4/4 338/4/4
f 284/4/4 330/4/4 338/4/4
f 331/5/4 334/5/4 339/5/4
f 338/4/4 331/4/4 339/4/4
f 334/1/4 335/1/4 340/1/4
f 339/5/4 334/5/4 340/5/4
f 284/4/4 338/4/4 341/4/4
f 338/1/4 339/1/4 341/1/4
f 339/1/4 340/1/4 341/1/4
f 341/1/4 340/1/4 342/1/4
f 340/1/4 335/1/4 343/1/4
f 342/1/4 340/1/4 343/1/4
f 335/1/4 278/1/4 344/1/4
f 343/1/4 335/1/4 344/1/4
f 274/1/4 284/1/4 345/1/4
f 341/4/4 342/4/4 345/4/4
f 284/4/4 341/4/4 345/4/4
f 345/4/4 342/4/4 346/4/4
f 343/6/4 344/6/4 347/6/4
f 342/5/4 343/5/4 347/5/4
f 344/1/4 278/1/4 348/1/4
f 347/6/4 344/6/4 348/6/4
f 345/1/4 346/1/4 349/1/4
f 274/1/4 345/1/4 349/1/4
f 346/4/4 342/4/4 350/4/4
f 349/1/4 346/1/4 350/1/4
f 342/5/4 347/5/4 351/5/4
f 350/4/4 342/4/4 351/4/4
f 347/1/4 348/1/4 352/1/4
f 351/5/4 347/5/4 352/5/4
f 278/3/4 279/3/4 353/3/4
f 352/1/4 348/1/4 353/1/4
f 348/1/4 278/1/4 353/1/4
f 279/1/4 280/1/4 354/1/4
f 353/3/4 279/3/4 354/3/4
f 280/4/4 281/4/4 355/4/4
f 354/1/4 280/1/4 355/1/4
f 281/5/4 282/5/4 356/5/4
f 355/4/4 281/4/4 356/4/4
f 282/1/4 336/1/4 357/1/4
f 356/5/4 282/5/4 357/5/4
f 357/1/4 336/1/4 358/1/4
f 361/1/5 360/1/5 359/1/5
f 362/1/5 360/1/5 361/1/5
f 365/1/5 364/1/5 363/1/5
f 366/1/5 364/1/5 365/1/5
f 371/1/5 368/1/5 367/1/5
f 372/1/5 368/1/5 371/1/5
f 373/1/5 370/1/5 369/1/5
f 374/1/5 370/1/5 373/1/5
f 379/1/5 376/1/5 375/1/5
f 380/1/5 376/1/5 379/1/5
f 381/1/5 378/1/5 377/1/5
f 382/1/5 378/1/5 381/1/5
f 387/1/5 384/1/5 383/1/5
f 388/1/5 384/1/5 387/1/5
f 389/1/5 386/1/5 385/1/5
f 390/1/5 386/1/5 389/1/5
f 395/1/5 392/1/5 391/1/5
f 396/1/5 392/1/5 395/1/5
f 397/1/5 394/1/5 393/1/5
f 398/1/5 394/1/5 397/1/5
f 399/1/6 400/1/6 401/1/6
f 401/1/6 400/1/6 402/1/6
f 403/1/6 404/1/6 407/1/6
f 407/1/6 404/1/6 408/1/6
f 405/1/6 406/1/6 409/1/6
f 409/1/6 406/1/6 410/1/6
f 411/1/6 412/1/6 415/1/6
f 415/1/6 412/1/6 416/1/6
f 413/1/6 414/1/6 417/1/6
f 417/1/6 414/1/6 418/1/6
f 419/1/6 420/1/6 423/1/6
f 423/1/6 420/1/6 424/1/6
f 421/1/6 422/1/6 425/1/6
f 425/1/6 422/1/6 426/1/6
f 427/1/6 428/1/6 431/1/6
f 429/1/6 430/1/6 432/1/6
f 427/1/6 431/1/6 433/1/6
f 431/1/6 432/1/6 433/1/6
f 432/1/6 430/1/6 434/1/6
f 433/1/6 432/1/6 434/1/6
