# MagicaVoxel @ Ephtracy

# group
o 

# material
mtllib model.mtl
usemtl palette

# normals
vn 0 0 1
vn 0 0 -1
vn 1 0 0
vn -1 0 0
vn 0 -1 0
vn 0 1 0

# texcoords
vt 0.0253906 0.5
vt 0.517578 0.5
vt 0.521484 0.5

# verts
v 0.2 0.9 2.3
v -0.2 0.9 2.3
v 0.2 1.9 2.3
v -0.2 1.9 2.3
v 0.2 0.8 2.2
v -0.2 0.8 2.2
v 0.2 0.9 2.2
v -0.2 0.9 2.2
v 0.2 1.9 2.2
v -0.2 1.9 2.2
v 0.2 2 2.2
v -0.2 2 2.2
v 1 0.4 1.4
v -1 0.4 1.4
v 1 0.8 1.4
v 0.3 0.8 1.4
v 0.2 0.8 1.4
v -0.2 0.8 1.4
v -0.3 0.8 1.4
v -1 0.8 1.4
v 0.2 1.2 1.4
v -0.2 1.2 1.4
v 0.3 1.4 1.4
v -0.3 1.4 1.4
v 0.9 1 1.3
v 0.3 1 1.3
v -0.3 1 1.3
v -0.9 1 1.3
v 0.9 1.2 1.3
v 0.3 1.2 1.3
v -0.3 1.2 1.3
v -0.9 1.2 1.3
v 1.2 0.4 1.2
v 1 0.4 1.2
v -1 0.4 1.2
v -1.2 0.4 1.2
v 1.2 0.8 1.2
v 1 0.8 1.2
v 0.8 0.8 1.2
v 0.3 0.8 1.2
v -0.3 0.8 1.2
v -0.8 0.8 1.2
v -1 0.8 1.2
v -1.2 0.8 1.2
v 0.8 1 1.2
v 0.3 1 1.2
v -0.3 1 1.2
v -0.8 1 1.2
v 0.8 1.2 1.2
v 0.3 1.2 1.2
v -0.3 1.2 1.2
v -0.8 1.2 1.2
v 0.3 1.4 1.2
v -0.3 1.4 1.2
v 0.8 1.8 1.2
v -0.8 1.8 1.2
v 1.1 1 1.1
v 0.9 1 1.1
v -0.9 1 1.1
v -1.1 1 1.1
v 1.1 1.2 1.1
v 0.9 1.2 1.1
v -0.9 1.2 1.1
v -1.1 1.2 1.1
v 1 0.8 1
v 0.8 0.8 1
v -0.8 0.8 1
v -1 0.8 1
v 1 1 1
v 0.8 1 1
v -0.8 1 1
v -1 1 1
v 1 1.2 1
v 0.8 1.2 1
v -0.8 1.2 1
v -1 1.2 1
v 1 1.8 1
v 0.8 1.8 1
v 0.6 1.8 1
v -0.6 1.8 1
v -0.8 1.8 1
v -1 1.8 1
v 0.6 2.1 1
v -0.6 2.1 1
v 0.8 1.8 0.8
v 0.6 1.8 0.8
v -0.6 1.8 0.8
v -0.8 1.8 0.8
v 0.8 2.1 0.8
v 0.6 2.1 0.8
v -0.6 2.1 0.8
v -0.8 2.1 0.8
v 0.2 2.1 0.6
v -0.2 2.1 0.6
v 0.2 2.3 0.6
v -0.2 2.3 0.6
v 0.4 2.1 0.4
v 0.2 2.1 0.4
v -0.2 2.1 0.4
v -0.4 2.1 0.4
v 0.4 2.3 0.4
v 0.2 2.3 0.4
v -0.2 2.3 0.4
v -0.4 2.3 0.4
v 1.1 1.2 0.3
v 1 1.2 0.3
v -1 1.2 0.3
v -1.1 1.2 0.3
v 1 1.8 0.3
v 0.8 1.8 0.3
v -0.8 1.8 0.3
v -1 1.8 0.3
v 1.1 1.9 0.3
v 0.9 1.9 0.3
v -0.9 1.9 0.3
v -1.1 1.9 0.3
v 0.8 2.1 0.3
v 0.4 2.1 0.3
v -0.4 2.1 0.3
v -0.8 2.1 0.3
v 0.9 2.2 0.3
v 0.5 2.2 0.3
v -0.5 2.2 0.3
v -0.9 2.2 0.3
v 0.4 2.3 0.3
v -0.4 2.3 0.3
v 0.5 2.4 0.3
v -0.5 2.4 0.3
v 1.1 1 -0.1
v 1 1 -0.1
v -1 1 -0.1
v -1.1 1 -0.1
v 1 1.8 -0.1
v 0.8 1.8 -0.1
v -0.8 1.8 -0.1
v -1 1.8 -0.1
v 1.1 1.9 -0.1
v 0.9 1.9 -0.1
v -0.9 1.9 -0.1
v -1.1 1.9 -0.1
v 0.8 2.1 -0.1
v 0.4 2.1 -0.1
v -0.4 2.1 -0.1
v -0.8 2.1 -0.1
v 0.9 2.2 -0.1
v 0.5 2.2 -0.1
v -0.5 2.2 -0.1
v -0.9 2.2 -0.1
v 0.4 2.3 -0.1
v -0.4 2.3 -0.1
v 0.5 2.4 -0.1
v -0.5 2.4 -0.1
v 0.2 0 -1.8
v -0.2 0 -1.8
v 0.2 0.2 -1.8
v -0.2 0.2 -1.8
v 0.2 0.2 -2
v -0.2 0.2 -2
v 0.2 0.8 -2
v -0.2 0.8 -2
v 0.2 1.2 2
v -0.2 1.2 2
v 0.2 1.8 2
v -0.2 1.8 2
v 0.2 1.8 1.8
v -0.2 1.8 1.8
v 0.2 2 1.8
v -0.2 2 1.8
v 1.1 1 0.0999999
v 1 1 0.0999999
v -1 1 0.0999999
v -1.1 1 0.0999999
v 1 1.8 0.0999999
v 0.8 1.8 0.0999999
v -0.8 1.8 0.0999999
v -1 1.8 0.0999999
v 1.1 1.9 0.0999999
v 0.9 1.9 0.0999999
v -0.9 1.9 0.0999999
v -1.1 1.9 0.0999999
v 0.8 2.1 0.0999999
v 0.4 2.1 0.0999999
v -0.4 2.1 0.0999999
v -0.8 2.1 0.0999999
v 0.9 2.2 0.0999999
v 0.5 2.2 0.0999999
v -0.5 2.2 0.0999999
v -0.9 2.2 0.0999999
v 0.4 2.3 0.0999999
v -0.4 2.3 0.0999999
v 0.5 2.4 0.0999999
v -0.5 2.4 0.0999999
v 1.1 1.2 -0.3
v 1 1.2 -0.3
v -1 1.2 -0.3
v -1.1 1.2 -0.3
v 1 1.8 -0.3
v 0.8 1.8 -0.3
v -0.8 1.8 -0.3
v -1 1.8 -0.3
v 1.1 1.9 -0.3
v 0.9 1.9 -0.3
v -0.9 1.9 -0.3
v -1.1 1.9 -0.3
v 0.8 2.1 -0.3
v 0.4 2.1 -0.3
v -0.4 2.1 -0.3
v -0.8 2.1 -0.3
v 0.9 2.2 -0.3
v 0.5 2.2 -0.3
v -0.5 2.2 -0.3
v -0.9 2.2 -0.3
v 0.4 2.3 -0.3
v -0.4 2.3 -0.3
v 0.5 2.4 -0.3
v -0.5 2.4 -0.3
v 0.4 2.1 -0.4
v 0.2 2.1 -0.4
v -0.2 2.1 -0.4
v -0.4 2.1 -0.4
v 0.4 2.3 -0.4
v 0.2 2.3 -0.4
v -0.2 2.3 -0.4
v -0.4 2.3 -0.4
v 0.2 2.1 -0.6
v -0.2 2.1 -0.6
v 0.2 2.3 -0.6
v -0.2 2.3 -0.6
v 0.8 1.8 -0.8
v 0.6 1.8 -0.8
v -0.6 1.8 -0.8
v -0.8 1.8 -0.8
v 0.8 2.1 -0.8
v 0.6 2.1 -0.8
v -0.6 2.1 -0.8
v -0.8 2.1 -0.8
v 1 0.8 -1
v 0.8 0.8 -1
v -0.8 0.8 -1
v -1 0.8 -1
v 1 1 -1
v 0.8 1 -1
v -0.8 1 -1
v -1 1 -1
v 1 1.2 -1
v 0.8 1.2 -1
v -0.8 1.2 -1
v -1 1.2 -1
v 1 1.8 -1
v 0.8 1.8 -1
v 0.6 1.8 -1
v -0.6 1.8 -1
v -0.8 1.8 -1
v -1 1.8 -1
v 0.6 2.1 -1
v -0.6 2.1 -1
v 1.1 1 -1.1
v 0.9 1 -1.1
v -0.9 1 -1.1
v -1.1 1 -1.1
v 1.1 1.2 -1.1
v 0.9 1.2 -1.1
v -0.9 1.2 -1.1
v -1.1 1.2 -1.1
v 1.2 0.4 -1.2
v 1 0.4 -1.2
v -1 0.4 -1.2
v -1.2 0.4 -1.2
v 1.2 0.8 -1.2
v 1 0.8 -1.2
v 0.8 0.8 -1.2
v 0.3 0.8 -1.2
v -0.3 0.8 -1.2
v -0.8 0.8 -1.2
v -1 0.8 -1.2
v -1.2 0.8 -1.2
v 0.8 1 -1.2
v 0.3 1 -1.2
v -0.3 1 -1.2
v -0.8 1 -1.2
v 0.8 1.2 -1.2
v 0.3 1.2 -1.2
v -0.3 1.2 -1.2
v -0.8 1.2 -1.2
v 0.3 1.4 -1.2
v -0.3 1.4 -1.2
v 0.8 1.8 -1.2
v -0.8 1.8 -1.2
v 0.9 1 -1.3
v 0.3 1 -1.3
v -0.3 1 -1.3
v -0.9 1 -1.3
v 0.9 1.2 -1.3
v 0.3 1.2 -1.3
v -0.3 1.2 -1.3
v -0.9 1.2 -1.3
v 1 0.4 -1.4
v -1 0.4 -1.4
v 1 0.8 -1.4
v 0.3 0.8 -1.4
v 0.2 0.8 -1.4
v -0.2 0.8 -1.4
v -0.3 0.8 -1.4
v -1 0.8 -1.4
v 0.2 1.2 -1.4
v -0.2 1.2 -1.4
v 0.3 1.4 -1.4
v -0.3 1.4 -1.4
v 0.2 0 -2.2
v -0.2 0 -2.2
v 0.2 0.1 -2.2
v -0.2 0.1 -2.2
v 0.2 1.1 -2.2
v -0.2 1.1 -2.2
v 0.2 1.2 -2.2
v -0.2 1.2 -2.2
v 0.2 0.1 -2.3
v -0.2 0.1 -2.3
v 0.2 1.1 -2.3
v -0.2 1.1 -2.3
v 1.2 0.4 1.2
v 1.2 0.8 1.2
v 1.2 0.4 -1.2
v 1.2 0.8 -1.2
v 1.1 1 1.1
v 1.1 1.2 1.1
v 1.1 1.2 0.3
v 1.1 1.9 0.3
v 1.1 1 0.0999999
v 1.1 1.9 0.0999999
v 1.1 1 -0.1
v 1.1 1.9 -0.1
v 1.1 1.2 -0.3
v 1.1 1.9 -0.3
v 1.1 1 -1.1
v 1.1 1.2 -1.1
v 1 0.4 1.4
v 1 0.8 1.4
v 1 0.4 1.2
v 1 0.8 1.2
v 1 0.8 1
v 1 1 1
v 1 1.2 1
v 1 1.8 1
v 1 1.2 0.3
v 1 1.8 0.3
v 1 1 0.0999999
v 1 1.8 0.0999999
v 1 1 -0.1
v 1 1.8 -0.1
v 1 1.2 -0.3
v 1 1.8 -0.3
v 1 0.8 -1
v 1 1 -1
v 1 1.2 -1
v 1 1.8 -1
v 1 0.4 -1.2
v 1 0.8 -1.2
v 1 0.4 -1.4
v 1 0.8 -1.4
v 0.9 1 1.3
v 0.9 1.2 1.3
v 0.9 1 1.1
v 0.9 1.2 1.1
v 0.9 1.9 0.3
v 0.9 2.2 0.3
v 0.9 1.9 0.0999999
v 0.9 2.2 0.0999999
v 0.9 1.9 -0.1
v 0.9 2.2 -0.1
v 0.9 1.9 -0.3
v 0.9 2.2 -0.3
v 0.9 1 -1.1
v 0.9 1.2 -1.1
v 0.9 1 -1.3
v 0.9 1.2 -1.3
v 0.8 0.8 1.2
v 0.8 1 1.2
v 0.8 1.2 1.2
v 0.8 1.8 1.2
v 0.8 0.8 1
v 0.8 1 1
v 0.8 1.2 1
v 0.8 1.8 1
v 0.8 1.8 0.8
v 0.8 2.1 0.8
v 0.8 1.8 0.3
v 0.8 2.1 0.3
v 0.8 1.8 0.0999999
v 0.8 2.1 0.0999999
v 0.8 1.8 -0.1
v 0.8 2.1 -0.1
v 0.8 1.8 -0.3
v 0.8 2.1 -0.3
v 0.8 1.8 -0.8
v 0.8 2.1 -0.8
v 0.8 0.8 -1
v 0.8 1 -1
v 0.8 1.2 -1
v 0.8 1.8 -1
v 0.8 0.8 -1.2
v 0.8 1 -1.2
v 0.8 1.2 -1.2
v 0.8 1.8 -1.2
v 0.6 1.8 1
v 0.6 2.1 1
v 0.6 1.8 0.8
v 0.6 2.1 0.8
v 0.6 1.8 -0.8
v 0.6 2.1 -0.8
v 0.6 1.8 -1
v 0.6 2.1 -1
v 0.5 2.2 0.3
v 0.5 2.4 0.3
v 0.5 2.2 0.0999999
v 0.5 2.4 0.0999999
v 0.5 2.2 -0.1
v 0.5 2.4 -0.1
v 0.5 2.2 -0.3
v 0.5 2.4 -0.3
v 0.4 2.1 0.4
v 0.4 2.3 0.4
v 0.4 2.1 0.3
v 0.4 2.3 0.3
v 0.4 2.1 0.0999999
v 0.4 2.3 0.0999999
v 0.4 2.1 -0.1
v 0.4 2.3 -0.1
v 0.4 2.1 -0.3
v 0.4 2.3 -0.3
v 0.4 2.1 -0.4
v 0.4 2.3 -0.4
v 0.3 0.8 1.4
v 0.3 1.4 1.4
v 0.3 1 1.3
v 0.3 1.2 1.3
v 0.3 0.8 1.2
v 0.3 1 1.2
v 0.3 1.2 1.2
v 0.3 1.4 1.2
v 0.3 0.8 -1.2
v 0.3 1 -1.2
v 0.3 1.2 -1.2
v 0.3 1.4 -1.2
v 0.3 1 -1.3
v 0.3 1.2 -1.3
v 0.3 0.8 -1.4
v 0.3 1.4 -1.4
v 0.2 0.9 2.3
v 0.2 1.9 2.3
v 0.2 0.8 2.2
v 0.2 0.9 2.2
v 0.2 1.9 2.2
v 0.2 2 2.2
v 0.2 1.2 2
v 0.2 1.8 2
v 0.2 1.8 1.8
v 0.2 2 1.8
v 0.2 0.8 1.4
v 0.2 1.2 1.4
v 0.2 2.1 0.6
v 0.2 2.3 0.6
v 0.2 2.1 0.4
v 0.2 2.3 0.4
v 0.2 2.1 -0.4
v 0.2 2.3 -0.4
v 0.2 2.1 -0.6
v 0.2 2.3 -0.6
v 0.2 0.8 -1.4
v 0.2 1.2 -1.4
v 0.2 0 -1.8
v 0.2 0.2 -1.8
v 0.2 0.2 -2
v 0.2 0.8 -2
v 0.2 0 -2.2
v 0.2 0.1 -2.2
v 0.2 1.1 -2.2
v 0.2 1.2 -2.2
v 0.2 0.1 -2.3
v 0.2 1.1 -2.3
v -0.2 0.9 2.3
v -0.2 1.9 2.3
v -0.2 0.8 2.2
v -0.2 0.9 2.2
v -0.2 1.9 2.2
v -0.2 2 2.2
v -0.2 1.2 2
v -0.2 1.8 2
v -0.2 1.8 1.8
v -0.2 2 1.8
v -0.2 0.8 1.4
v -0.2 1.2 1.4
v -0.2 2.1 0.6
v -0.2 2.3 0.6
v -0.2 2.1 0.4
v -0.2 2.3 0.4
v -0.2 2.1 -0.4
v -0.2 2.3 -0.4
v -0.2 2.1 -0.6
v -0.2 2.3 -0.6
v -0.2 0.8 -1.4
v -0.2 1.2 -1.4
v -0.2 0 -1.8
v -0.2 0.2 -1.8
v -0.2 0.2 -2
v -0.2 0.8 -2
v -0.2 0 -2.2
v -0.2 0.1 -2.2
v -0.2 1.1 -2.2
v -0.2 1.2 -2.2
v -0.2 0.1 -2.3
v -0.2 1.1 -2.3
v -0.3 0.8 1.4
v -0.3 1.4 1.4
v -0.3 1 1.3
v -0.3 1.2 1.3
v -0.3 0.8 1.2
v -0.3 1 1.2
v -0.3 1.2 1.2
v -0.3 1.4 1.2
v -0.3 0.8 -1.2
v -0.3 1 -1.2
v -0.3 1.2 -1.2
v -0.3 1.4 -1.2
v -0.3 1 -1.3
v -0.3 1.2 -1.3
v -0.3 0.8 -1.4
v -0.3 1.4 -1.4
v -0.4 2.1 0.4
v -0.4 2.3 0.4
v -0.4 2.1 0.3
v -0.4 2.3 0.3
v -0.4 2.1 0.0999999
v -0.4 2.3 0.0999999
v -0.4 2.1 -0.1
v -0.4 2.3 -0.1
v -0.4 2.1 -0.3
v -0.4 2.3 -0.3
v -0.4 2.1 -0.4
v -0.4 2.3 -0.4
v -0.5 2.2 0.3
v -0.5 2.4 0.3
v -0.5 2.2 0.0999999
v -0.5 2.4 0.0999999
v -0.5 2.2 -0.1
v -0.5 2.4 -0.1
v -0.5 2.2 -0.3
v -0.5 2.4 -0.3
v -0.6 1.8 1
v -0.6 2.1 1
v -0.6 1.8 0.8
v -0.6 2.1 0.8
v -0.6 1.8 -0.8
v -0.6 2.1 -0.8
v -0.6 1.8 -1
v -0.6 2.1 -1
v -0.8 0.8 1.2
v -0.8 1 1.2
v -0.8 1.2 1.2
v -0.8 1.8 1.2
v -0.8 0.8 1
v -0.8 1 1
v -0.8 1.2 1
v -0.8 1.8 1
v -0.8 1.8 0.8
v -0.8 2.1 0.8
v -0.8 1.8 0.3
v -0.8 2.1 0.3
v -0.8 1.8 0.0999999
v -0.8 2.1 0.0999999
v -0.8 1.8 -0.1
v -0.8 2.1 -0.1
v -0.8 1.8 -0.3
v -0.8 2.1 -0.3
v -0.8 1.8 -0.8
v -0.8 2.1 -0.8
v -0.8 0.8 -1
v -0.8 1 -1
v -0.8 1.2 -1
v -0.8 1.8 -1
v -0.8 0.8 -1.2
v -0.8 1 -1.2
v -0.8 1.2 -1.2
v -0.8 1.8 -1.2
v -0.9 1 1.3
v -0.9 1.2 1.3
v -0.9 1 1.1
v -0.9 1.2 1.1
v -0.9 1.9 0.3
v -0.9 2.2 0.3
v -0.9 1.9 0.0999999
v -0.9 2.2 0.0999999
v -0.9 1.9 -0.1
v -0.9 2.2 -0.1
v -0.9 1.9 -0.3
v -0.9 2.2 -0.3
v -0.9 1 -1.1
v -0.9 1.2 -1.1
v -0.9 1 -1.3
v -0.9 1.2 -1.3
v -1 0.4 1.4
v -1 0.8 1.4
v -1 0.4 1.2
v -1 0.8 1.2
v -1 0.8 1
v -1 1 1
v -1 1.2 1
v -1 1.8 1
v -1 1.2 0.3
v -1 1.8 0.3
v -1 1 0.0999999
v -1 1.8 0.0999999
v -1 1 -0.1
v -1 1.8 -0.1
v -1 1.2 -0.3
v -1 1.8 -0.3
v -1 0.8 -1
v -1 1 -1
v -1 1.2 -1
v -1 1.8 -1
v -1 0.4 -1.2
v -1 0.8 -1.2
v -1 0.4 -1.4
v -1 0.8 -1.4
v -1.1 1 1.1
v -1.1 1.2 1.1
v -1.1 1.2 0.3
v -1.1 1.9 0.3
v -1.1 1 0.0999999
v -1.1 1.9 0.0999999
v -1.1 1 -0.1
v -1.1 1.9 -0.1
v -1.1 1.2 -0.3
v -1.1 1.9 -0.3
v -1.1 1 -1.1
v -1.1 1.2 -1.1
v -1.2 0.4 1.2
v -1.2 0.8 1.2
v -1.2 0.4 -1.2
v -1.2 0.8 -1.2
v 0.2 0 -1.8
v 0.2 0 -2.2
v -0.2 0 -1.8
v -0.2 0 -2.2
v 0.2 0.1 -2.2
v 0.2 0.1 -2.3
v -0.2 0.1 -2.2
v -0.2 0.1 -2.3
v 1.2 0.4 1.2
v 1.2 0.4 -1.2
v 1 0.4 1.4
v 1 0.4 1.2
v 1 0.4 -1.2
v 1 0.4 -1.4
v -1 0.4 1.4
v -1 0.4 1.2
v -1 0.4 -1.2
v -1 0.4 -1.4
v -1.2 0.4 1.2
v -1.2 0.4 -1.2
v 0.2 0.8 2.2
v 0.2 0.8 1.4
v 0.2 0.8 -1.4
v 0.2 0.8 -2
v -0.2 0.8 2.2
v -0.2 0.8 1.4
v -0.2 0.8 -1.4
v -0.2 0.8 -2
v 0.2 0.9 2.3
v 0.2 0.9 2.2
v -0.2 0.9 2.3
v -0.2 0.9 2.2
v 1.1 1 1.1
v 1.1 1 0.0999999
v 1.1 1 -0.1
v 1.1 1 -1.1
v 1 1 1
v 1 1 0.0999999
v 1 1 -0.1
v 1 1 -1
v 0.9 1 1.3
v 0.9 1 1.1
v 0.9 1 -1.1
v 0.9 1 -1.3
v 0.8 1 1.2
v 0.8 1 1
v 0.8 1 -1
v 0.8 1 -1.2
v 0.3 1 1.3
v 0.3 1 1.2
v 0.3 1 -1.2
v 0.3 1 -1.3
v -0.3 1 1.3
v -0.3 1 1.2
v -0.3 1 -1.2
v -0.3 1 -1.3
v -0.8 1 1.2
v -0.8 1 1
v -0.8 1 -1
v -0.8 1 -1.2
v -0.9 1 1.3
v -0.9 1 1.1
v -0.9 1 -1.1
v -0.9 1 -1.3
v -1 1 1
v -1 1 0.0999999
v -1 1 -0.1
v -1 1 -1
v -1.1 1 1.1
v -1.1 1 0.0999999
v -1.1 1 -0.1
v -1.1 1 -1.1
v 0.2 1.8 2
v 0.2 1.8 1.8
v -0.2 1.8 2
v -0.2 1.8 1.8
v 0.2 0.2 -1.8
v 0.2 0.2 -2
v -0.2 0.2 -1.8
v -0.2 0.2 -2
v 1.2 0.8 1.2
v 1.2 0.8 -1.2
v 1 0.8 1.4
v 1 0.8 1.2
v 1 0.8 1
v 1 0.8 -1
v 1 0.8 -1.2
v 1 0.8 -1.4
v 0.8 0.8 1.2
v 0.8 0.8 1
v 0.8 0.8 -1
v 0.8 0.8 -1.2
v 0.3 0.8 1.4
v 0.3 0.8 1.2
v 0.3 0.8 -1.2
v 0.3 0.8 -1.4
v -0.3 0.8 1.4
v -0.3 0.8 1.2
v -0.3 0.8 -1.2
v -0.3 0.8 -1.4
v -0.8 0.8 1.2
v -0.8 0.8 1
v -0.8 0.8 -1
v -0.8 0.8 -1.2
v -1 0.8 1.4
v -1 0.8 1.2
v -1 0.8 1
v -1 0.8 -1
v -1 0.8 -1.2
v -1 0.8 -1.4
v -1.2 0.8 1.2
v -1.2 0.8 -1.2
v 0.2 1.1 -2.2
v 0.2 1.1 -2.3
v -0.2 1.1 -2.2
v -0.2 1.1 -2.3
v 1.1 1.2 1.1
v 1.1 1.2 0.3
v 1.1 1.2 -0.3
v 1.1 1.2 -1.1
v 1 1.2 1
v 1 1.2 0.3
v 1 1.2 -0.3
v 1 1.2 -1
v 0.9 1.2 1.3
v 0.9 1.2 1.1
v 0.9 1.2 -1.1
v 0.9 1.2 -1.3
v 0.8 1.2 1.2
v 0.8 1.2 1
v 0.8 1.2 -1
v 0.8 1.2 -1.2
v 0.3 1.2 1.3
v 0.3 1.2 1.2
v 0.3 1.2 -1.2
v 0.3 1.2 -1.3
v 0.2 1.2 2
v 0.2 1.2 1.4
v 0.2 1.2 -1.4
v 0.2 1.2 -2.2
v -0.2 1.2 2
v -0.2 1.2 1.4
v -0.2 1.2 -1.4
v -0.2 1.2 -2.2
v -0.3 1.2 1.3
v -0.3 1.2 1.2
v -0.3 1.2 -1.2
v -0.3 1.2 -1.3
v -0.8 1.2 1.2
v -0.8 1.2 1
v -0.8 1.2 -1
v -0.8 1.2 -1.2
v -0.9 1.2 1.3
v -0.9 1.2 1.1
v -0.9 1.2 -1.1
v -0.9 1.2 -1.3
v -1 1.2 1
v -1 1.2 0.3
v -1 1.2 -0.3
v -1 1.2 -1
v -1.1 1.2 1.1
v -1.1 1.2 0.3
v -1.1 1.2 -0.3
v -1.1 1.2 -1.1
v 0.3 1.4 1.4
v 0.3 1.4 1.2
v 0.3 1.4 -1.2
v 0.3 1.4 -1.4
v -0.3 1.4 1.4
v -0.3 1.4 1.2
v -0.3 1.4 -1.2
v -0.3 1.4 -1.4
v 1 1.8 1
v 1 1.8 0.3
v 1 1.8 0.0999999
v 1 1.8 -0.1
v 1 1.8 -0.3
v 1 1.8 -1
v 0.8 1.8 1.2
v 0.8 1.8 1
v 0.8 1.8 0.8
v 0.8 1.8 0.3
v 0.8 1.8 0.0999999
v 0.8 1.8 -0.1
v 0.8 1.8 -0.3
v 0.8 1.8 -0.8
v 0.8 1.8 -1
v 0.8 1.8 -1.2
v 0.6 1.8 1
v 0.6 1.8 0.8
v 0.6 1.8 -0.8
v 0.6 1.8 -1
v -0.6 1.8 1
v -0.6 1.8 0.8
v -0.6 1.8 -0.8
v -0.6 1.8 -1
v -0.8 1.8 1.2
v -0.8 1.8 1
v -0.8 1.8 0.8
v -0.8 1.8 0.3
v -0.8 1.8 0.0999999
v -0.8 1.8 -0.1
v -0.8 1.8 -0.3
v -0.8 1.8 -0.8
v -0.8 1.8 -1
v -0.8 1.8 -1.2
v -1 1.8 1
v -1 1.8 0.3
v -1 1.8 0.0999999
v -1 1.8 -0.1
v -1 1.8 -0.3
v -1 1.8 -1
v 1.1 1.9 0.3
v 1.1 1.9 0.0999999
v 1.1 1.9 -0.1
v 1.1 1.9 -0.3
v 0.9 1.9 0.3
v 0.9 1.9 0.0999999
v 0.9 1.9 -0.1
v 0.9 1.9 -0.3
v 0.2 1.9 2.3
v 0.2 1.9 2.2
v -0.2 1.9 2.3
v -0.2 1.9 2.2
v -0.9 1.9 0.3
v -0.9 1.9 0.0999999
v -0.9 1.9 -0.1
v -0.9 1.9 -0.3
v -1.1 1.9 0.3
v -1.1 1.9 0.0999999
v -1.1 1.9 -0.1
v -1.1 1.9 -0.3
v 0.2 2 2.2
v 0.2 2 1.8
v -0.2 2 2.2
v -0.2 2 1.8
v 0.8 2.1 0.8
v 0.8 2.1 0.3
v 0.8 2.1 0.0999999
v 0.8 2.1 -0.1
v 0.8 2.1 -0.3
v 0.8 2.1 -0.8
v 0.6 2.1 1
v 0.6 2.1 0.8
v 0.6 2.1 -0.8
v 0.6 2.1 -1
v 0.4 2.1 0.4
v 0.4 2.1 0.3
v 0.4 2.1 0.0999999
v 0.4 2.1 -0.1
v 0.4 2.1 -0.3
v 0.4 2.1 -0.4
v 0.2 2.1 0.6
v 0.2 2.1 0.4
v 0.2 2.1 -0.4
v 0.2 2.1 -0.6
v -0.2 2.1 0.6
v -0.2 2.1 0.4
v -0.2 2.1 -0.4
v -0.2 2.1 -0.6
v -0.4 2.1 0.4
v -0.4 2.1 0.3
v -0.4 2.1 0.0999999
v -0.4 2.1 -0.1
v -0.4 2.1 -0.3
v -0.4 2.1 -0.4
v -0.6 2.1 1
v -0.6 2.1 0.8
v -0.6 2.1 -0.8
v -0.6 2.1 -1
v -0.8 2.1 0.8
v -0.8 2.1 0.3
v -0.8 2.1 0.0999999
v -0.8 2.1 -0.1
v -0.8 2.1 -0.3
v -0.8 2.1 -0.8
v 0.9 2.2 0.3
v 0.9 2.2 0.0999999
v 0.9 2.2 -0.1
v 0.9 2.2 -0.3
v 0.5 2.2 0.3
v 0.5 2.2 0.0999999
v 0.5 2.2 -0.1
v 0.5 2.2 -0.3
v -0.5 2.2 0.3
v -0.5 2.2 0.0999999
v -0.5 2.2 -0.1
v -0.5 2.2 -0.3
v -0.9 2.2 0.3
v -0.9 2.2 0.0999999
v -0.9 2.2 -0.1
v -0.9 2.2 -0.3
v 0.4 2.3 0.4
v 0.4 2.3 0.3
v 0.4 2.3 0.0999999
v 0.4 2.3 -0.1
v 0.4 2.3 -0.3
v 0.4 2.3 -0.4
v 0.2 2.3 0.6
v 0.2 2.3 0.4
v 0.2 2.3 -0.4
v 0.2 2.3 -0.6
v -0.2 2.3 0.6
v -0.2 2.3 0.4
v -0.2 2.3 -0.4
v -0.2 2.3 -0.6
v -0.4 2.3 0.4
v -0.4 2.3 0.3
v -0.4 2.3 0.0999999
v -0.4 2.3 -0.1
v -0.4 2.3 -0.3
v -0.4 2.3 -0.4
v 0.5 2.4 0.3
v 0.5 2.4 0.0999999
v 0.5 2.4 -0.1
v 0.5 2.4 -0.3
v -0.5 2.4 0.3
v -0.5 2.4 0.0999999
v -0.5 2.4 -0.1
v -0.5 2.4 -0.3

# faces
f 3/1/1 2/1/1 1/1/1
f 4/1/1 2/1/1 3/1/1
f 7/1/1 6/1/1 5/1/1
f 8/1/1 6/1/1 7/1/1
f 11/1/1 10/1/1 9/1/1
f 12/1/1 10/1/1 11/1/1
f 15/3/1 14/3/1 13/3/1
f 16/3/1 14/3/1 15/3/1
f 17/3/1 14/3/1 16/3/1
f 18/3/1 14/3/1 17/3/1
f 19/3/1 14/3/1 18/3/1
f 20/3/1 14/3/1 19/3/1
f 21/3/1 17/3/1 16/3/1
f 22/3/1 19/3/1 18/3/1
f 23/3/1 21/3/1 16/3/1
f 23/3/1 22/3/1 21/3/1
f 24/3/1 19/3/1 22/3/1
f 24/3/1 22/3/1 23/3/1
f 29/3/1 26/3/1 25/3/1
f 30/3/1 26/3/1 29/3/1
f 31/3/1 28/3/1 27/3/1
f 32/3/1 28/3/1 31/3/1
f 37/3/1 34/3/1 33/3/1
f 38/3/1 34/3/1 37/3/1
f 43/3/1 36/3/1 35/3/1
f 44/3/1 36/3/1 43/3/1
f 45/2/1 40/2/1 39/2/1
f 46/2/1 40/2/1 45/2/1
f 47/2/1 42/2/1 41/2/1
f 48/2/1 42/2/1 47/2/1
f 53/2/1 50/2/1 49/2/1
f 54/2/1 52/2/1 51/2/1
f 55/2/1 53/2/1 49/2/1
f 55/2/1 54/2/1 53/2/1
f 56/2/1 52/2/1 54/2/1
f 56/2/1 54/2/1 55/2/1
f 61/3/1 58/3/1 57/3/1
f 62/3/1 58/3/1 61/3/1
f 63/3/1 60/3/1 59/3/1
f 64/3/1 60/3/1 63/3/1
f 69/2/1 66/2/1 65/2/1
f 70/2/1 66/2/1 69/2/1
f 71/2/1 68/2/1 67/2/1
f 72/2/1 68/2/1 71/2/1
f 77/2/1 74/2/1 73/2/1
f 78/2/1 74/2/1 77/2/1
f 81/2/1 76/2/1 75/2/1
f 82/2/1 76/2/1 81/2/1
f 83/2/1 80/2/1 79/2/1
f 84/2/1 80/2/1 83/2/1
f 89/2/1 86/2/1 85/2/1
f 90/2/1 86/2/1 89/2/1
f 91/2/1 88/2/1 87/2/1
f 92/2/1 88/2/1 91/2/1
f 95/2/1 94/2/1 93/2/1
f 96/2/1 94/2/1 95/2/1
f 101/2/1 98/2/1 97/2/1
f 102/2/1 98/2/1 101/2/1
f 103/2/1 100/2/1 99/2/1
f 104/2/1 100/2/1 103/2/1
f 109/3/1 106/3/1 105/3/1
f 112/3/1 108/3/1 107/3/1
f 113/3/1 110/3/1 109/3/1
f 113/3/1 109/3/1 105/3/1
f 114/3/1 110/3/1 113/3/1
f 115/3/1 112/3/1 111/3/1
f 116/3/1 108/3/1 112/3/1
f 116/3/1 112/3/1 115/3/1
f 117/3/1 110/3/1 114/3/1
f 120/3/1 115/3/1 111/3/1
f 121/3/1 118/3/1 117/3/1
f 121/3/1 117/3/1 114/3/1
f 122/3/1 118/3/1 121/3/1
f 123/3/1 120/3/1 119/3/1
f 124/3/1 115/3/1 120/3/1
f 124/3/1 120/3/1 123/3/1
f 125/3/1 118/3/1 122/3/1
f 126/3/1 123/3/1 119/3/1
f 127/3/1 125/3/1 122/3/1
f 127/3/1 126/3/1 125/3/1
f 128/3/1 123/3/1 126/3/1
f 128/3/1 126/3/1 127/3/1
f 133/3/1 130/3/1 129/3/1
f 136/3/1 132/3/1 131/3/1
f 137/3/1 134/3/1 133/3/1
f 137/3/1 133/3/1 129/3/1
f 138/3/1 134/3/1 137/3/1
f 139/3/1 136/3/1 135/3/1
f 140/3/1 132/3/1 136/3/1
f 140/3/1 136/3/1 139/3/1
f 141/3/1 134/3/1 138/3/1
f 144/3/1 139/3/1 135/3/1
f 145/3/1 142/3/1 141/3/1
f 145/3/1 141/3/1 138/3/1
f 146/3/1 142/3/1 145/3/1
f 147/3/1 144/3/1 143/3/1
f 148/3/1 139/3/1 144/3/1
f 148/3/1 144/3/1 147/3/1
f 149/3/1 142/3/1 146/3/1
f 150/3/1 147/3/1 143/3/1
f 151/3/1 149/3/1 146/3/1
f 151/3/1 150/3/1 149/3/1
f 152/3/1 147/3/1 150/3/1
f 152/3/1 150/3/1 151/3/1
f 155/1/1 154/1/1 153/1/1
f 156/1/1 154/1/1 155/1/1
f 159/1/1 158/1/1 157/1/1
f 160/1/1 158/1/1 159/1/1
f 161/1/2 162/1/2 163/1/2
f 163/1/2 162/1/2 164/1/2
f 165/1/2 166/1/2 167/1/2
f 167/1/2 166/1/2 168/1/2
f 169/3/2 170/3/2 173/3/2
f 171/3/2 172/3/2 176/3/2
f 173/3/2 174/3/2 177/3/2
f 169/3/2 173/3/2 177/3/2
f 177/3/2 174/3/2 178/3/2
f 175/3/2 176/3/2 179/3/2
f 176/3/2 172/3/2 180/3/2
f 179/3/2 176/3/2 180/3/2
f 178/3/2 174/3/2 181/3/2
f 175/3/2 179/3/2 184/3/2
f 181/3/2 182/3/2 185/3/2
f 178/3/2 181/3/2 185/3/2
f 185/3/2 182/3/2 186/3/2
f 183/3/2 184/3/2 187/3/2
f 184/3/2 179/3/2 188/3/2
f 187/3/2 184/3/2 188/3/2
f 186/3/2 182/3/2 189/3/2
f 183/3/2 187/3/2 190/3/2
f 186/3/2 189/3/2 191/3/2
f 189/3/2 190/3/2 191/3/2
f 190/3/2 187/3/2 192/3/2
f 191/3/2 190/3/2 192/3/2
f 193/3/2 194/3/2 197/3/2
f 195/3/2 196/3/2 200/3/2
f 197/3/2 198/3/2 201/3/2
f 193/3/2 197/3/2 201/3/2
f 201/3/2 198/3/2 202/3/2
f 199/3/2 200/3/2 203/3/2
f 200/3/2 196/3/2 204/3/2
f 203/3/2 200/3/2 204/3/2
f 202/3/2 198/3/2 205/3/2
f 199/3/2 203/3/2 208/3/2
f 205/3/2 206/3/2 209/3/2
f 202/3/2 205/3/2 209/3/2
f 209/3/2 206/3/2 210/3/2
f 207/3/2 208/3/2 211/3/2
f 208/3/2 203/3/2 212/3/2
f 211/3/2 208/3/2 212/3/2
f 210/3/2 206/3/2 213/3/2
f 207/3/2 211/3/2 214/3/2
f 210/3/2 213/3/2 215/3/2
f 213/3/2 214/3/2 215/3/2
f 214/3/2 211/3/2 216/3/2
f 215/3/2 214/3/2 216/3/2
f 217/2/2 218/2/2 221/2/2
f 221/2/2 218/2/2 222/2/2
f 219/2/2 220/2/2 223/2/2
f 223/2/2 220/2/2 224/2/2
f 225/2/2 226/2/2 227/2/2
f 227/2/2 226/2/2 228/2/2
f 229/2/2 230/2/2 233/2/2
f 233/2/2 230/2/2 234/2/2
f 231/2/2 232/2/2 235/2/2
f 235/2/2 232/2/2 236/2/2
f 237/2/2 238/2/2 241/2/2
f 241/2/2 238/2/2 242/2/2
f 239/2/2 240/2/2 243/2/2
f 243/2/2 240/2/2 244/2/2
f 245/2/2 246/2/2 249/2/2
f 249/2/2 246/2/2 250/2/2
f 247/2/2 248/2/2 253/2/2
f 253/2/2 248/2/2 254/2/2
f 251/2/2 252/2/2 255/2/2
f 255/2/2 252/2/2 256/2/2
f 257/3/2 258/3/2 261/3/2
f 261/3/2 258/3/2 262/3/2
f 259/3/2 260/3/2 263/3/2
f 263/3/2 260/3/2 264/3/2
f 265/3/2 266/3/2 269/3/2
f 269/3/2 266/3/2 270/3/2
f 267/3/2 268/3/2 275/3/2
f 275/3/2 268/3/2 276/3/2
f 271/2/2 272/2/2 277/2/2
f 277/2/2 272/2/2 278/2/2
f 273/2/2 274/2/2 279/2/2
f 279/2/2 274/2/2 280/2/2
f 281/2/2 282/2/2 285/2/2
f 283/2/2 284/2/2 286/2/2
f 281/2/2 285/2/2 287/2/2
f 285/2/2 286/2/2 287/2/2
f 286/2/2 284/2/2 288/2/2
f 287/2/2 286/2/2 288/2/2
f 289/3/2 290/3/2 293/3/2
f 293/3/2 290/3/2 294/3/2
f 291/3/2 292/3/2 295/3/2
f 295/3/2 292/3/2 296/3/2
f 297/3/2 298/3/2 299/3/2
f 299/3/2 298/3/2 300/3/2
f 300/3/2 298/3/2 301/3/2
f 301/3/2 298/3/2 302/3/2
f 302/3/2 298/3/2 303/3/2
f 303/3/2 298/3/2 304/3/2
f 300/3/2 301/3/2 305/3/2
f 302/3/2 303/3/2 306/3/2
f 300/3/2 305/3/2 307/3/2
f 305/3/2 306/3/2 307/3/2
f 306/3/2 303/3/2 308/3/2
f 307/3/2 306/3/2 308/3/2
f 309/1/2 310/1/2 311/1/2
f 311/1/2 310/1/2 312/1/2
f 313/1/2 314/1/2 315/1/2
f 315/1/2 314/1/2 316/1/2
f 317/1/2 318/1/2 319/1/2
f 319/1/2 318/1/2 320/1/2
f 323/3/3 322/3/3 321/3/3
f 324/3/3 322/3/3 323/3/3
f 327/3/3 326/3/3 325/3/3
f 329/3/3 327/3/3 325/3/3
f 329/3/3 328/3/3 327/3/3
f 330/3/3 328/3/3 329/3/3
f 333/3/3 332/3/3 331/3/3
f 334/3/3 332/3/3 333/3/3
f 335/3/3 333/3/3 331/3/3
f 336/3/3 333/3/3 335/3/3
f 339/3/3 338/3/3 337/3/3
f 340/3/3 338/3/3 339/3/3
f 345/2/3 344/2/3 343/2/3
f 346/2/3 344/2/3 345/2/3
f 347/2/3 342/2/3 341/2/3
f 349/2/3 347/2/3 341/2/3
f 349/2/3 348/2/3 347/2/3
f 350/2/3 348/2/3 349/2/3
f 353/2/3 349/2/3 341/2/3
f 354/2/3 349/2/3 353/2/3
f 355/2/3 352/2/3 351/2/3
f 356/2/3 352/2/3 355/2/3
f 359/3/3 358/3/3 357/3/3
f 360/3/3 358/3/3 359/3/3
f 363/3/3 362/3/3 361/3/3
f 364/3/3 362/3/3 363/3/3
f 367/3/3 366/3/3 365/3/3
f 368/3/3 366/3/3 367/3/3
f 371/3/3 370/3/3 369/3/3
f 372/3/3 370/3/3 371/3/3
f 375/3/3 374/3/3 373/3/3
f 376/3/3 374/3/3 375/3/3
f 381/2/3 378/2/3 377/2/3
f 382/2/3 378/2/3 381/2/3
f 383/2/3 380/2/3 379/2/3
f 384/2/3 380/2/3 383/2/3
f 387/2/3 386/2/3 385/2/3
f 388/2/3 386/2/3 387/2/3
f 391/2/3 390/2/3 389/2/3
f 392/2/3 390/2/3 391/2/3
f 395/2/3 394/2/3 393/2/3
f 396/2/3 394/2/3 395/2/3
f 401/2/3 398/2/3 397/2/3
f 402/2/3 398/2/3 401/2/3
f 403/2/3 400/2/3 399/2/3
f 404/2/3 400/2/3 403/2/3
f 407/2/3 406/2/3 405/2/3
f 408/2/3 406/2/3 407/2/3
f 411/2/3 410/2/3 409/2/3
f 412/2/3 410/2/3 411/2/3
f 415/3/3 414/3/3 413/3/3
f 416/3/3 414/3/3 415/3/3
f 419/3/3 418/3/3 417/3/3
f 420/3/3 418/3/3 419/3/3
f 423/2/3 422/2/3 421/2/3
f 424/2/3 422/2/3 423/2/3
f 427/2/3 426/2/3 425/2/3
f 428/2/3 426/2/3 427/2/3
f 431/2/3 430/2/3 429/2/3
f 432/2/3 430/2/3 431/2/3
f 435/3/3 434/3/3 433/3/3
f 436/3/3 434/3/3 435/3/3
f 437/3/3 435/3/3 433/3/3
f 438/3/3 435/3/3 437/3/3
f 439/3/3 434/3/3 436/3/3
f 440/3/3 434/3/3 439/3/3
f 445/3/3 442/3/3 441/3/3
f 446/3/3 444/3/3 443/3/3
f 447/3/3 445/3/3 441/3/3
f 447/3/3 446/3/3 445/3/3
f 448/3/3 444/3/3 446/3/3
f 448/3/3 446/3/3 447/3/3
f 452/1/3 450/1/3 449/1/3
f 453/1/3 450/1/3 452/1/3
f 455/1/3 452/1/3 451/1/3
f 455/1/3 454/1/3 453/1/3
f 455/1/3 453/1/3 452/1/3
f 456/1/3 454/1/3 455/1/3
f 457/1/3 454/1/3 456/1/3
f 458/1/3 454/1/3 457/1/3
f 459/1/3 455/1/3 451/1/3
f 460/1/3 455/1/3 459/1/3
f 463/2/3 462/2/3 461/2/3
f 464/2/3 462/2/3 463/2/3
f 467/2/3 466/2/3 465/2/3
f 468/2/3 466/2/3 467/2/3
f 473/1/3 472/1/3 471/1/3
f 474/1/3 470/1/3 469/1/3
f 475/1/3 473/1/3 471/1/3
f 475/1/3 474/1/3 473/1/3
f 476/1/3 474/1/3 475/1/3
f 477/1/3 470/1/3 474/1/3
f 477/1/3 474/1/3 476/1/3
f 478/1/3 470/1/3 477/1/3
f 479/1/3 477/1/3 476/1/3
f 480/1/3 477/1/3 479/1/3
f 481/1/4 482/1/4 484/1/4
f 484/1/4 482/1/4 485/1/4
f 483/1/4 484/1/4 487/1/4
f 485/1/4 486/1/4 487/1/4
f 484/1/4 485/1/4 487/1/4
f 487/1/4 486/1/4 488/1/4
f 488/1/4 486/1/4 489/1/4
f 489/1/4 486/1/4 490/1/4
f 483/1/4 487/1/4 491/1/4
f 491/1/4 487/1/4 492/1/4
f 493/2/4 494/2/4 495/2/4
f 495/2/4 494/2/4 496/2/4
f 497/2/4 498/2/4 499/2/4
f 499/2/4 498/2/4 500/2/4
f 503/1/4 504/1/4 505/1/4
f 501/1/4 502/1/4 506/1/4
f 503/1/4 505/1/4 507/1/4
f 505/1/4 506/1/4 507/1/4
f 507/1/4 506/1/4 508/1/4
f 506/1/4 502/1/4 509/1/4
f 508/1/4 506/1/4 509/1/4
f 509/1/4 502/1/4 510/1/4
f 508/1/4 509/1/4 511/1/4
f 511/1/4 509/1/4 512/1/4
f 513/3/4 514/3/4 515/3/4
f 515/3/4 514/3/4 516/3/4
f 513/3/4 515/3/4 517/3/4
f 517/3/4 515/3/4 518/3/4
f 516/3/4 514/3/4 519/3/4
f 519/3/4 514/3/4 520/3/4
f 521/3/4 522/3/4 525/3/4
f 523/3/4 524/3/4 526/3/4
f 521/3/4 525/3/4 527/3/4
f 525/3/4 526/3/4 527/3/4
f 526/3/4 524/3/4 528/3/4
f 527/3/4 526/3/4 528/3/4
f 529/2/4 530/2/4 531/2/4
f 531/2/4 530/2/4 532/2/4
f 533/2/4 534/2/4 535/2/4
f 535/2/4 534/2/4 536/2/4
f 537/2/4 538/2/4 539/2/4
f 539/2/4 538/2/4 540/2/4
f 541/3/4 542/3/4 543/3/4
f 543/3/4 542/3/4 544/3/4
f 545/3/4 546/3/4 547/3/4
f 547/3/4 546/3/4 548/3/4
f 549/2/4 550/2/4 551/2/4
f 551/2/4 550/2/4 552/2/4
f 553/2/4 554/2/4 555/2/4
f 555/2/4 554/2/4 556/2/4
f 557/2/4 558/2/4 561/2/4
f 561/2/4 558/2/4 562/2/4
f 559/2/4 560/2/4 563/2/4
f 563/2/4 560/2/4 564/2/4
f 565/2/4 566/2/4 567/2/4
f 567/2/4 566/2/4 568/2/4
f 569/2/4 570/2/4 571/2/4
f 571/2/4 570/2/4 572/2/4
f 573/2/4 574/2/4 575/2/4
f 575/2/4 574/2/4 576/2/4
f 577/2/4 578/2/4 581/2/4
f 581/2/4 578/2/4 582/2/4
f 579/2/4 580/2/4 583/2/4
f 583/2/4 580/2/4 584/2/4
f 585/3/4 586/3/4 587/3/4
f 587/3/4 586/3/4 588/3/4
f 589/3/4 590/3/4 591/3/4
f 591/3/4 590/3/4 592/3/4
f 593/3/4 594/3/4 595/3/4
f 595/3/4 594/3/4 596/3/4
f 597/3/4 598/3/4 599/3/4
f 599/3/4 598/3/4 600/3/4
f 601/3/4 602/3/4 603/3/4
f 603/3/4 602/3/4 604/3/4
f 607/2/4 608/2/4 609/2/4
f 609/2/4 608/2/4 610/2/4
f 605/2/4 606/2/4 611/2/4
f 605/2/4 611/2/4 613/2/4
f 611/2/4 612/2/4 613/2/4
f 613/2/4 612/2/4 614/2/4
f 605/2/4 613/2/4 617/2/4
f 617/2/4 613/2/4 618/2/4
f 615/2/4 616/2/4 619/2/4
f 619/2/4 616/2/4 620/2/4
f 621/3/4 622/3/4 623/3/4
f 623/3/4 622/3/4 624/3/4
f 625/3/4 626/3/4 627/3/4
f 625/3/4 627/3/4 629/3/4
f 627/3/4 628/3/4 629/3/4
f 629/3/4 628/3/4 630/3/4
f 631/3/4 632/3/4 633/3/4
f 633/3/4 632/3/4 634/3/4
f 631/3/4 633/3/4 635/3/4
f 635/3/4 633/3/4 636/3/4
f 637/3/4 638/3/4 639/3/4
f 639/3/4 638/3/4 640/3/4
f 643/1/5 642/1/5 641/1/5
f 644/1/5 642/1/5 643/1/5
f 647/1/5 646/1/5 645/1/5
f 648/1/5 646/1/5 647/1/5
f 652/3/5 650/3/5 649/3/5
f 653/3/5 650/3/5 652/3/5
f 655/3/5 652/3/5 651/3/5
f 655/3/5 654/3/5 653/3/5
f 655/3/5 653/3/5 652/3/5
f 656/3/5 654/3/5 655/3/5
f 657/3/5 654/3/5 656/3/5
f 658/3/5 654/3/5 657/3/5
f 659/3/5 657/3/5 656/3/5
f 660/3/5 657/3/5 659/3/5
f 665/1/5 662/1/5 661/1/5
f 666/1/5 662/1/5 665/1/5
f 667/1/5 664/1/5 663/1/5
f 668/1/5 664/1/5 667/1/5
f 671/1/5 670/1/5 669/1/5
f 672/1/5 670/1/5 671/1/5
f 677/3/5 674/3/5 673/3/5
f 678/3/5 674/3/5 677/3/5
f 679/3/5 676/3/5 675/3/5
f 680/3/5 676/3/5 679/3/5
f 682/3/5 677/3/5 673/3/5
f 683/3/5 676/3/5 680/3/5
f 685/3/5 682/3/5 681/3/5
f 686/3/5 677/3/5 682/3/5
f 686/3/5 682/3/5 685/3/5
f 687/3/5 684/3/5 683/3/5
f 687/3/5 683/3/5 680/3/5
f 688/3/5 684/3/5 687/3/5
f 689/3/5 685/3/5 681/3/5
f 690/3/5 685/3/5 689/3/5
f 691/3/5 684/3/5 688/3/5
f 692/3/5 684/3/5 691/3/5
f 697/3/5 694/3/5 693/3/5
f 700/3/5 696/3/5 695/3/5
f 701/3/5 698/3/5 697/3/5
f 701/3/5 697/3/5 693/3/5
f 702/3/5 698/3/5 701/3/5
f 703/3/5 700/3/5 699/3/5
f 704/3/5 696/3/5 700/3/5
f 704/3/5 700/3/5 703/3/5
f 705/3/5 698/3/5 702/3/5
f 708/3/5 703/3/5 699/3/5
f 709/3/5 706/3/5 705/3/5
f 709/3/5 705/3/5 702/3/5
f 710/3/5 706/3/5 709/3/5
f 711/3/5 708/3/5 707/3/5
f 712/3/5 703/3/5 708/3/5
f 712/3/5 708/3/5 711/3/5
f 715/1/5 714/1/5 713/1/5
f 716/1/5 714/1/5 715/1/5
f 717/1/6 718/1/6 719/1/6
f 719/1/6 718/1/6 720/1/6
f 721/3/6 722/3/6 724/3/6
f 724/3/6 722/3/6 725/3/6
f 725/3/6 722/3/6 726/3/6
f 726/3/6 722/3/6 727/3/6
f 723/3/6 724/3/6 729/3/6
f 724/3/6 725/3/6 729/3/6
f 729/3/6 725/3/6 730/3/6
f 727/3/6 728/3/6 731/3/6
f 726/3/6 727/3/6 731/3/6
f 731/3/6 728/3/6 732/3/6
f 723/3/6 729/3/6 733/3/6
f 733/3/6 729/3/6 734/3/6
f 732/3/6 728/3/6 735/3/6
f 735/3/6 728/3/6 736/3/6
f 737/3/6 738/3/6 741/3/6
f 739/3/6 740/3/6 744/3/6
f 741/3/6 742/3/6 745/3/6
f 737/3/6 741/3/6 745/3/6
f 745/3/6 742/3/6 746/3/6
f 746/3/6 742/3/6 747/3/6
f 743/3/6 744/3/6 748/3/6
f 744/3/6 740/3/6 749/3/6
f 748/3/6 744/3/6 749/3/6
f 749/3/6 740/3/6 750/3/6
f 746/3/6 747/3/6 751/3/6
f 747/3/6 748/3/6 751/3/6
f 748/3/6 749/3/6 751/3/6
f 751/3/6 749/3/6 752/3/6
f 753/1/6 754/1/6 755/1/6
f 755/1/6 754/1/6 756/1/6
f 757/3/6 758/3/6 761/3/6
f 761/3/6 758/3/6 762/3/6
f 759/3/6 760/3/6 763/3/6
f 763/3/6 760/3/6 764/3/6
f 757/3/6 761/3/6 766/3/6
f 764/3/6 760/3/6 767/3/6
f 765/3/6 766/3/6 769/3/6
f 766/3/6 761/3/6 770/3/6
f 769/3/6 766/3/6 770/3/6
f 767/3/6 768/3/6 771/3/6
f 764/3/6 767/3/6 771/3/6
f 771/3/6 768/3/6 772/3/6
f 765/3/6 769/3/6 773/3/6
f 773/3/6 769/3/6 774/3/6
f 772/3/6 768/3/6 775/3/6
f 775/3/6 768/3/6 776/3/6
f 777/1/6 778/1/6 781/1/6
f 781/1/6 778/1/6 782/1/6
f 779/1/6 780/1/6 783/1/6
f 783/1/6 780/1/6 784/1/6
f 785/3/6 786/3/6 789/3/6
f 787/3/6 788/3/6 792/3/6
f 789/3/6 790/3/6 793/3/6
f 785/3/6 789/3/6 793/3/6
f 793/3/6 790/3/6 794/3/6
f 791/3/6 792/3/6 795/3/6
f 792/3/6 788/3/6 796/3/6
f 795/3/6 792/3/6 796/3/6
f 794/3/6 790/3/6 797/3/6
f 791/3/6 795/3/6 800/3/6
f 797/3/6 798/3/6 801/3/6
f 794/3/6 797/3/6 801/3/6
f 801/3/6 798/3/6 802/3/6
f 799/3/6 800/3/6 803/3/6
f 800/3/6 795/3/6 804/3/6
f 803/3/6 800/3/6 804/3/6
f 805/3/6 806/3/6 809/3/6
f 809/3/6 806/3/6 810/3/6
f 807/3/6 808/3/6 811/3/6
f 811/3/6 808/3/6 812/3/6
f 813/2/6 814/2/6 820/2/6
f 820/2/6 814/2/6 821/2/6
f 821/2/6 814/2/6 822/2/6
f 815/2/6 816/2/6 823/2/6
f 823/2/6 816/2/6 824/2/6
f 817/2/6 818/2/6 825/2/6
f 825/2/6 818/2/6 826/2/6
f 826/2/6 818/2/6 827/2/6
f 819/2/6 820/2/6 829/2/6
f 820/2/6 821/2/6 829/2/6
f 829/2/6 821/2/6 830/2/6
f 827/2/6 828/2/6 831/2/6
f 826/2/6 827/2/6 831/2/6
f 831/2/6 828/2/6 832/2/6
f 819/2/6 829/2/6 833/2/6
f 832/2/6 828/2/6 836/2/6
f 833/2/6 834/2/6 837/2/6
f 819/2/6 833/2/6 837/2/6
f 837/2/6 834/2/6 838/2/6
f 838/2/6 834/2/6 839/2/6
f 835/2/6 836/2/6 844/2/6
f 836/2/6 828/2/6 845/2/6
f 844/2/6 836/2/6 845/2/6
f 845/2/6 828/2/6 846/2/6
f 838/2/6 839/2/6 847/2/6
f 839/2/6 840/2/6 847/2/6
f 847/2/6 840/2/6 848/2/6
f 841/2/6 842/2/6 849/2/6
f 849/2/6 842/2/6 850/2/6
f 843/2/6 844/2/6 851/2/6
f 844/2/6 845/2/6 851/2/6
f 851/2/6 845/2/6 852/2/6
f 853/3/6 854/3/6 857/3/6
f 857/3/6 854/3/6 858/3/6
f 855/3/6 856/3/6 859/3/6
f 859/3/6 856/3/6 860/3/6
f 861/1/6 862/1/6 863/1/6
f 863/1/6 862/1/6 864/1/6
f 865/3/6 866/3/6 869/3/6
f 869/3/6 866/3/6 870/3/6
f 867/3/6 868/3/6 871/3/6
f 871/3/6 868/3/6 872/3/6
f 873/1/6 874/1/6 875/1/6
f 875/1/6 874/1/6 876/1/6
f 877/2/6 878/2/6 884/2/6
f 881/2/6 882/2/6 885/2/6
f 883/2/6 884/2/6 887/2/6
f 884/2/6 878/2/6 887/2/6
f 887/2/6 878/2/6 888/2/6
f 879/2/6 880/2/6 889/2/6
f 889/2/6 880/2/6 890/2/6
f 885/2/6 886/2/6 891/2/6
f 881/2/6 885/2/6 891/2/6
f 891/2/6 886/2/6 892/2/6
f 883/2/6 887/2/6 893/2/6
f 893/2/6 887/2/6 894/2/6
f 892/2/6 886/2/6 895/2/6
f 895/2/6 886/2/6 896/2/6
f 883/2/6 893/2/6 897/2/6
f 896/2/6 886/2/6 900/2/6
f 897/2/6 898/2/6 901/2/6
f 899/2/6 900/2/6 906/2/6
f 883/2/6 897/2/6 907/2/6
f 897/2/6 901/2/6 907/2/6
f 901/2/6 902/2/6 907/2/6
f 907/2/6 902/2/6 908/2/6
f 905/2/6 906/2/6 909/2/6
f 900/2/6 886/2/6 909/2/6
f 906/2/6 900/2/6 909/2/6
f 909/2/6 886/2/6 910/2/6
f 908/2/6 902/2/6 911/2/6
f 911/2/6 902/2/6 912/2/6
f 903/2/6 904/2/6 913/2/6
f 913/2/6 904/2/6 914/2/6
f 905/2/6 909/2/6 915/2/6
f 915/2/6 909/2/6 916/2/6
f 917/3/6 918/3/6 921/3/6
f 921/3/6 918/3/6 922/3/6
f 919/3/6 920/3/6 923/3/6
f 923/3/6 920/3/6 924/3/6
f 925/3/6 926/3/6 929/3/6
f 929/3/6 926/3/6 930/3/6
f 927/3/6 928/3/6 931/3/6
f 931/3/6 928/3/6 932/3/6
f 933/2/6 934/2/6 940/2/6
f 937/2/6 938/2/6 941/2/6
f 939/2/6 940/2/6 943/2/6
f 940/2/6 934/2/6 944/2/6
f 943/2/6 940/2/6 944/2/6
f 941/2/6 942/2/6 945/2/6
f 937/2/6 941/2/6 945/2/6
f 945/2/6 942/2/6 946/2/6
f 944/2/6 934/2/6 947/2/6
f 947/2/6 934/2/6 948/2/6
f 935/2/6 936/2/6 949/2/6
f 949/2/6 936/2/6 950/2/6
f 937/2/6 945/2/6 951/2/6
f 951/2/6 945/2/6 952/2/6
f 953/3/6 954/3/6 957/3/6
f 957/3/6 954/3/6 958/3/6
f 955/3/6 956/3/6 959/3/6
f 959/3/6 956/3/6 960/3/6
