# MagicaVoxel @ Ephtracy

# group
o 

# material
mtllib model.mtl
usemtl palette

# normals
vn -1 0 0
vn 1 0 0
vn 0 0 1
vn 0 0 -1
vn 0 -1 0
vn 0 1 0

# texcoords
vt 0.0292969 0.5
vt 0.814453 0.5
vt 0.822266 0.5

# verts
v -0.1 0 0.3
v -0.1 0 -0.3
v -0.1 0.1 0.3
v -0.1 0.1 -0.3
v -0.1 0.5 0.7
v -0.1 0.5 0.4
v -0.1 0.5 -0.4
v -0.1 0.5 -0.7
v -0.1 0.8 0.8
v -0.1 0.8 0.7
v -0.1 0.8 -0.7
v -0.1 0.8 -0.8
v -0.1 0.9 0.8
v -0.1 0.9 0.7
v -0.1 0.9 0.6
v -0.1 0.9 0.5
v -0.1 0.9 -0.5
v -0.1 0.9 -0.6
v -0.1 0.9 -0.7
v -0.1 0.9 -0.8
v -0.1 1 0.9
v -0.1 1 0.7
v -0.1 1 0.6
v -0.1 1 0.5
v -0.1 1 -0.5
v -0.1 1 -0.6
v -0.1 1 -0.7
v -0.1 1 -0.9
v -0.1 1.1 0.9
v -0.1 1.1 0.4
v -0.1 1.1 -0.4
v -0.1 1.1 -0.9
v -0.1 1.2 0.6
v -0.1 1.2 0.3
v -0.1 1.3 1
v -0.1 1.3 0.6
v -0.1 1.3 0.5
v -0.1 1.3 0.3
v -0.1 1.3 -0.3
v -0.1 1.3 -1
v -0.1 1.4 1
v -0.1 1.4 0.5
v -0.1 1.4 -0.3
v -0.1 1.4 -1
v 0 0 0.3
v 0 0 -0.3
v 0 0.1 0.3
v 0 0.1 -0.3
v 0 0.5 0.7
v 0 0.5 0.4
v 0 0.5 -0.4
v 0 0.5 -0.7
v 0 0.8 0.8
v 0 0.8 0.7
v 0 0.8 -0.7
v 0 0.8 -0.8
v 0 0.9 0.8
v 0 0.9 0.7
v 0 0.9 0.6
v 0 0.9 0.5
v 0 0.9 -0.5
v 0 0.9 -0.6
v 0 0.9 -0.7
v 0 0.9 -0.8
v 0 1 0.9
v 0 1 0.7
v 0 1 0.6
v 0 1 0.5
v 0 1 -0.5
v 0 1 -0.6
v 0 1 -0.7
v 0 1 -0.9
v 0 1.1 0.9
v 0 1.1 0.4
v 0 1.1 -0.4
v 0 1.1 -0.9
v 0.1 1.2 0.6
v 0.1 1.2 0.3
v 0.1 1.3 1
v 0.1 1.3 0.6
v 0.1 1.3 0.5
v 0.1 1.3 0.3
v 0.1 1.3 -0.3
v 0.1 1.3 -1
v 0.1 1.4 1
v 0.1 1.4 0.5
v 0.1 1.4 -0.3
v 0.1 1.4 -1
v -0.1 1.3 1
v -0.1 1.4 1
v 0.1 1.3 1
v 0.1 1.4 1
v -0.1 1 0.9
v -0.1 1.1 0.9
v 0 1 0.9
v 0 1.1 0.9
v -0.1 0.8 0.8
v -0.1 0.9 0.8
v 0 0.8 0.8
v 0 0.9 0.8
v -0.1 0.5 0.7
v -0.1 0.8 0.7
v -0.1 0.9 0.7
v -0.1 1 0.7
v 0 0.5 0.7
v 0 0.8 0.7
v 0 0.9 0.7
v 0 1 0.7
v -0.1 1.2 0.6
v -0.1 1.3 0.6
v 0.1 1.2 0.6
v 0.1 1.3 0.6
v -0.1 0 0.3
v -0.1 0.1 0.3
v 0 0 0.3
v 0 0.1 0.3
v -0.1 1.3 -0.3
v -0.1 1.4 -0.3
v 0.1 1.3 -0.3
v 0.1 1.4 -0.3
v -0.1 0.5 -0.4
v -0.1 1.1 -0.4
v 0 0.5 -0.4
v 0 1.1 -0.4
v -0.1 1.3 0.5
v -0.1 1.4 0.5
v 0.1 1.3 0.5
v 0.1 1.4 0.5
v -0.1 0.5 0.4
v -0.1 1.1 0.4
v 0 0.5 0.4
v 0 1.1 0.4
v -0.1 1.2 0.3
v -0.1 1.3 0.3
v 0.1 1.2 0.3
v 0.1 1.3 0.3
v -0.1 0 -0.3
v -0.1 0.1 -0.3
v 0 0 -0.3
v 0 0.1 -0.3
v -0.1 0.5 -0.7
v -0.1 0.8 -0.7
v -0.1 0.9 -0.7
v -0.1 1 -0.7
v 0 0.5 -0.7
v 0 0.8 -0.7
v 0 0.9 -0.7
v 0 1 -0.7
v -0.1 0.8 -0.8
v -0.1 0.9 -0.8
v 0 0.8 -0.8
v 0 0.9 -0.8
v -0.1 1 -0.9
v -0.1 1.1 -0.9
v 0 1 -0.9
v 0 1.1 -0.9
v -0.1 1.3 -1
v -0.1 1.4 -1
v 0.1 1.3 -1
v 0.1 1.4 -1
v -0.1 0 0.3
v 0 0 0.3
v -0.1 0 -0.3
v 0 0 -0.3
v -0.1 0.5 0.7
v 0 0.5 0.7
v -0.1 0.5 0.4
v 0 0.5 0.4
v -0.1 0.5 -0.4
v 0 0.5 -0.4
v -0.1 0.5 -0.7
v 0 0.5 -0.7
v -0.1 0.8 0.8
v 0 0.8 0.8
v -0.1 0.8 0.7
v 0 0.8 0.7
v -0.1 0.8 -0.7
v 0 0.8 -0.7
v -0.1 0.8 -0.8
v 0 0.8 -0.8
v -0.1 1 0.9
v 0 1 0.9
v -0.1 1 0.7
v 0 1 0.7
v -0.1 1 -0.7
v 0 1 -0.7
v -0.1 1 -0.9
v 0 1 -0.9
v -0.1 1.2 0.6
v 0.1 1.2 0.6
v -0.1 1.2 0.3
v 0.1 1.2 0.3
v -0.1 1.3 1
v 0.1 1.3 1
v -0.1 1.3 0.6
v 0.1 1.3 0.6
v -0.1 1.3 -0.3
v 0.1 1.3 -0.3
v -0.1 1.3 -1
v 0.1 1.3 -1
v -0.1 0.1 0.3
v 0 0.1 0.3
v -0.1 0.1 -0.3
v 0 0.1 -0.3
v -0.1 0.9 0.8
v 0 0.9 0.8
v -0.1 0.9 0.7
v 0 0.9 0.7
v -0.1 0.9 -0.7
v 0 0.9 -0.7
v -0.1 0.9 -0.8
v 0 0.9 -0.8
v -0.1 1.1 0.9
v 0 1.1 0.9
v -0.1 1.1 0.4
v 0 1.1 0.4
v -0.1 1.1 -0.4
v 0 1.1 -0.4
v -0.1 1.1 -0.9
v 0 1.1 -0.9
v -0.1 1.3 0.5
v 0.1 1.3 0.5
v -0.1 1.3 0.3
v 0.1 1.3 0.3
v -0.1 1.4 1
v 0.1 1.4 1
v -0.1 1.4 0.5
v 0.1 1.4 0.5
v -0.1 1.4 -0.3
v 0.1 1.4 -0.3
v -0.1 1.4 -1
v 0.1 1.4 -1

# faces
f 3/2/1 2/2/1 1/2/1
f 4/2/1 2/2/1 3/2/1
f 10/2/1 6/2/1 5/2/1
f 11/2/1 8/2/1 7/2/1
f 13/2/1 10/2/1 9/2/1
f 14/2/1 6/2/1 10/2/1
f 14/2/1 10/2/1 13/2/1
f 15/2/1 6/2/1 14/2/1
f 16/2/1 6/2/1 15/2/1
f 17/2/1 12/2/1 11/2/1
f 17/2/1 11/2/1 7/2/1
f 18/2/1 12/2/1 17/2/1
f 19/2/1 12/2/1 18/2/1
f 20/2/1 12/2/1 19/2/1
f 22/2/1 15/2/1 14/2/1
f 23/1/1 16/1/1 15/1/1
f 23/2/1 15/2/1 22/2/1
f 24/2/1 6/2/1 16/2/1
f 24/1/1 16/1/1 23/1/1
f 25/2/1 17/2/1 7/2/1
f 25/1/1 18/1/1 17/1/1
f 26/2/1 19/2/1 18/2/1
f 26/1/1 18/1/1 25/1/1
f 27/2/1 19/2/1 26/2/1
f 29/2/1 23/2/1 22/2/1
f 29/2/1 22/2/1 21/2/1
f 29/2/1 24/2/1 23/2/1
f 30/2/1 6/2/1 24/2/1
f 30/2/1 24/2/1 29/2/1
f 31/2/1 28/2/1 27/2/1
f 31/2/1 26/2/1 25/2/1
f 31/2/1 27/2/1 26/2/1
f 31/2/1 25/2/1 7/2/1
f 32/2/1 28/2/1 31/2/1
f 36/3/1 34/3/1 33/3/1
f 37/3/1 34/3/1 36/3/1
f 38/3/1 34/3/1 37/3/1
f 41/3/1 36/3/1 35/3/1
f 41/3/1 37/3/1 36/3/1
f 42/3/1 37/3/1 41/3/1
f 43/3/1 40/3/1 39/3/1
f 44/3/1 40/3/1 43/3/1
f 45/2/2 46/2/2 47/2/2
f 47/2/2 46/2/2 48/2/2
f 49/2/2 50/2/2 54/2/2
f 51/2/2 52/2/2 55/2/2
f 53/2/2 54/2/2 57/2/2
f 54/2/2 50/2/2 58/2/2
f 57/2/2 54/2/2 58/2/2
f 58/2/2 50/2/2 59/2/2
f 59/2/2 50/2/2 60/2/2
f 55/2/2 56/2/2 61/2/2
f 51/2/2 55/2/2 61/2/2
f 61/2/2 56/2/2 62/2/2
f 62/2/2 56/2/2 63/2/2
f 63/2/2 56/2/2 64/2/2
f 58/2/2 59/2/2 66/2/2
f 59/1/2 60/1/2 67/1/2
f 66/2/2 59/2/2 67/2/2
f 60/2/2 50/2/2 68/2/2
f 67/1/2 60/1/2 68/1/2
f 51/2/2 61/2/2 69/2/2
f 61/1/2 62/1/2 69/1/2
f 62/2/2 63/2/2 70/2/2
f 69/1/2 62/1/2 70/1/2
f 70/2/2 63/2/2 71/2/2
f 66/2/2 67/2/2 73/2/2
f 65/2/2 66/2/2 73/2/2
f 67/2/2 68/2/2 73/2/2
f 68/2/2 50/2/2 74/2/2
f 73/2/2 68/2/2 74/2/2
f 71/2/2 72/2/2 75/2/2
f 69/2/2 70/2/2 75/2/2
f 70/2/2 71/2/2 75/2/2
f 51/2/2 69/2/2 75/2/2
f 75/2/2 72/2/2 76/2/2
f 77/3/2 78/3/2 80/3/2
f 80/3/2 78/3/2 81/3/2
f 81/3/2 78/3/2 82/3/2
f 79/3/2 80/3/2 85/3/2
f 80/3/2 81/3/2 85/3/2
f 85/3/2 81/3/2 86/3/2
f 83/3/2 84/3/2 87/3/2
f 87/3/2 84/3/2 88/3/2
f 91/3/3 90/3/3 89/3/3
f 92/3/3 90/3/3 91/3/3
f 95/2/3 94/2/3 93/2/3
f 96/2/3 94/2/3 95/2/3
f 99/2/3 98/2/3 97/2/3
f 100/2/3 98/2/3 99/2/3
f 105/2/3 102/2/3 101/2/3
f 106/2/3 102/2/3 105/2/3
f 107/2/3 104/2/3 103/2/3
f 108/2/3 104/2/3 107/2/3
f 111/3/3 110/3/3 109/3/3
f 112/3/3 110/3/3 111/3/3
f 115/2/3 114/2/3 113/2/3
f 116/2/3 114/2/3 115/2/3
f 119/3/3 118/3/3 117/3/3
f 120/3/3 118/3/3 119/3/3
f 123/2/3 122/2/3 121/2/3
f 124/2/3 122/2/3 123/2/3
f 125/3/4 126/3/4 127/3/4
f 127/3/4 126/3/4 128/3/4
f 129/2/4 130/2/4 131/2/4
f 131/2/4 130/2/4 132/2/4
f 133/3/4 134/3/4 135/3/4
f 135/3/4 134/3/4 136/3/4
f 137/2/4 138/2/4 139/2/4
f 139/2/4 138/2/4 140/2/4
f 141/2/4 142/2/4 145/2/4
f 145/2/4 142/2/4 146/2/4
f 143/2/4 144/2/4 147/2/4
f 147/2/4 144/2/4 148/2/4
f 149/2/4 150/2/4 151/2/4
f 151/2/4 150/2/4 152/2/4
f 153/2/4 154/2/4 155/2/4
f 155/2/4 154/2/4 156/2/4
f 157/3/4 158/3/4 159/3/4
f 159/3/4 158/3/4 160/3/4
f 163/2/5 162/2/5 161/2/5
f 164/2/5 162/2/5 163/2/5
f 167/2/5 166/2/5 165/2/5
f 168/2/5 166/2/5 167/2/5
f 171/2/5 170/2/5 169/2/5
f 172/2/5 170/2/5 171/2/5
f 175/2/5 174/2/5 173/2/5
f 176/2/5 174/2/5 175/2/5
f 179/2/5 178/2/5 177/2/5
f 180/2/5 178/2/5 179/2/5
f 183/2/5 182/2/5 181/2/5
f 184/2/5 182/2/5 183/2/5
f 187/2/5 186/2/5 185/2/5
f 188/2/5 186/2/5 187/2/5
f 191/3/5 190/3/5 189/3/5
f 192/3/5 190/3/5 191/3/5
f 195/3/5 194/3/5 193/3/5
f 196/3/5 194/3/5 195/3/5
f 199/3/5 198/3/5 197/3/5
f 200/3/5 198/3/5 199/3/5
f 201/2/6 202/2/6 203/2/6
f 203/2/6 202/2/6 204/2/6
f 205/2/6 206/2/6 207/2/6
f 207/2/6 206/2/6 208/2/6
f 209/2/6 210/2/6 211/2/6
f 211/2/6 210/2/6 212/2/6
f 213/2/6 214/2/6 215/2/6
f 215/2/6 214/2/6 216/2/6
f 217/2/6 218/2/6 219/2/6
f 219/2/6 218/2/6 220/2/6
f 221/3/6 222/3/6 223/3/6
f 223/3/6 222/3/6 224/3/6
f 225/3/6 226/3/6 227/3/6
f 227/3/6 226/3/6 228/3/6
f 229/3/6 230/3/6 231/3/6
f 231/3/6 230/3/6 232/3/6
