# MagicaVoxel @ Ephtracy

# group
o 

# material
mtllib model-4.mtl
usemtl palette

# normals
vn 0 0 1
vn 0 0 -1
vn 1 0 0
vn -1 0 0
vn 0 -1 0
vn 0 1 0

# texcoords
vt 0.103516 0.5
vt 0.107422 0.5
vt 0.111328 0.5

# verts
v 0.5 0 1
v -0.5 0 1
v 0.5 0.7 1
v -0.5 0.7 1
v 0.6 0 0.7
v 0.5 0 0.7
v 0.6 0.7 0.7
v 0.5 0.7 0.7
v -1.1 0 0.6
v -1.3 0 0.6
v -1.1 2.2 0.6
v -1.3 2.2 0.6
v -1.1 2.6 0.6
v -1.3 2.6 0.6
v -1.1 2.6 0.4
v -1.3 2.6 0.4
v -1.1 2.8 0.4
v -1.3 2.8 0.4
v -0.5 0.1 0.3
v -1 0.1 0.3
v -0.5 0.7 0.3
v -1 0.7 0.3
v -0.5 0.1 -0.3
v -1 0.1 -0.3
v -0.5 0.7 -0.3
v -1 0.7 -0.3
v -1.1 2.6 -0.4
v -1.3 2.6 -0.4
v -1.1 2.8 -0.4
v -1.3 2.8 -0.4
v -1.1 0 -0.6
v -1.3 0 -0.6
v -1.1 2.2 -0.6
v -1.3 2.2 -0.6
v -1.1 2.6 -0.6
v -1.3 2.6 -0.6
v 0.6 0 -0.7
v 0.5 0 -0.7
v 0.6 0.7 -0.7
v 0.5 0.7 -0.7
v 0.5 0 -1
v -0.5 0 -1
v 0.5 0.7 -1
v -0.5 0.7 -1
v 0.6 0 0.7
v 0.6 0.7 0.7
v 0.6 0 0.0999999
v 0.6 0.7 0.0999999
v 0.6 0 -1.19209e-07
v 0.6 0.7 -1.19209e-07
v 0.6 0 -0.1
v 0.6 0.7 -0.1
v 0.6 0 -0.7
v 0.6 0.7 -0.7
v 0.5 0 1
v 0.5 0.7 1
v 0.5 0 0.7
v 0.5 0.7 0.7
v 0.5 0 -0.7
v 0.5 0.7 -0.7
v 0.5 0 -1
v 0.5 0.7 -1
v -1.1 0 0.6
v -1.1 2.2 0.6
v -1.1 2.6 0.6
v -1.1 2.2 0.4
v -1.1 2.3 0.4
v -1.1 2.6 0.4
v -1.1 2.8 0.4
v -1.1 2.2 -0.4
v -1.1 2.3 -0.4
v -1.1 2.6 -0.4
v -1.1 2.8 -0.4
v -1.1 0 -0.6
v -1.1 2.2 -0.6
v -1.1 2.6 -0.6
v -0.5 0 1
v -0.5 0.7 1
v -0.5 0.1 0.3
v -0.5 0.7 0.3
v -0.5 0.1 -0.3
v -0.5 0.7 -0.3
v -0.5 0 -1
v -0.5 0.7 -1
v -1 0.1 0.3
v -1 0.7 0.3
v -1 0.1 -0.3
v -1 0.7 -0.3
v -1.3 0 0.6
v -1.3 2.2 0.6
v -1.3 2.6 0.6
v -1.3 2.2 0.4
v -1.3 2.3 0.4
v -1.3 2.6 0.4
v -1.3 2.8 0.4
v -1.3 2.2 -0.4
v -1.3 2.3 -0.4
v -1.3 2.6 -0.4
v -1.3 2.8 -0.4
v -1.3 0 -0.6
v -1.3 2.2 -0.6
v -1.3 2.6 -0.6
v 0.6 0 0.7
v 0.6 0 0.0999999
v 0.6 0 -1.19209e-07
v 0.6 0 -0.1
v 0.6 0 -0.7
v 0.5 0 1
v 0.5 0 0.7
v 0.5 0 0.0999999
v 0.5 0 -1.19209e-07
v 0.5 0 -0.1
v 0.5 0 -0.7
v 0.5 0 -1
v -0.5 0 1
v -0.5 0 -1
v -1.1 0 0.6
v -1.1 0 -0.6
v -1.3 0 0.6
v -1.3 0 -0.6
v -0.5 0.1 0.3
v -0.5 0.1 -0.3
v -1 0.1 0.3
v -1 0.1 -0.3
v 0.6 0.7 0.7
v 0.6 0.7 0.0999999
v 0.6 0.7 -1.19209e-07
v 0.6 0.7 -0.1
v 0.6 0.7 -0.7
v 0.5 0.7 1
v 0.5 0.7 0.7
v 0.5 0.7 0.0999999
v 0.5 0.7 -1.19209e-07
v 0.5 0.7 -0.1
v 0.5 0.7 -0.7
v 0.5 0.7 -1
v -0.5 0.7 1
v -0.5 0.7 0.3
v -0.5 0.7 -0.3
v -0.5 0.7 -1
v -1 0.7 0.3
v -1 0.7 -0.3
v -1.1 2.6 0.6
v -1.1 2.6 0.4
v -1.1 2.6 -0.4
v -1.1 2.6 -0.6
v -1.3 2.6 0.6
v -1.3 2.6 0.4
v -1.3 2.6 -0.4
v -1.3 2.6 -0.6
v -1.1 2.8 0.4
v -1.1 2.8 -0.4
v -1.3 2.8 0.4
v -1.3 2.8 -0.4

# faces
f 3/2/1 2/2/1 1/2/1
f 4/2/1 2/2/1 3/2/1
f 7/2/1 6/2/1 5/2/1
f 8/2/1 6/2/1 7/2/1
f 11/1/1 10/1/1 9/1/1
f 12/1/1 10/1/1 11/1/1
f 13/2/1 12/2/1 11/2/1
f 14/2/1 12/2/1 13/2/1
f 17/2/1 16/2/1 15/2/1
f 18/2/1 16/2/1 17/2/1
f 21/1/1 20/1/1 19/1/1
f 22/1/1 20/1/1 21/1/1
f 23/1/2 24/1/2 25/1/2
f 25/1/2 24/1/2 26/1/2
f 27/2/2 28/2/2 29/2/2
f 29/2/2 28/2/2 30/2/2
f 31/1/2 32/1/2 33/1/2
f 33/1/2 32/1/2 34/1/2
f 33/2/2 34/2/2 35/2/2
f 35/2/2 34/2/2 36/2/2
f 37/2/2 38/2/2 39/2/2
f 39/2/2 38/2/2 40/2/2
f 41/2/2 42/2/2 43/2/2
f 43/2/2 42/2/2 44/2/2
f 47/2/3 46/2/3 45/2/3
f 48/2/3 46/2/3 47/2/3
f 49/3/3 48/3/3 47/3/3
f 50/3/3 48/3/3 49/3/3
f 51/1/3 50/1/3 49/1/3
f 52/1/3 50/1/3 51/1/3
f 53/2/3 52/2/3 51/2/3
f 54/2/3 52/2/3 53/2/3
f 57/2/3 56/2/3 55/2/3
f 58/2/3 56/2/3 57/2/3
f 61/2/3 60/2/3 59/2/3
f 62/2/3 60/2/3 61/2/3
f 66/1/3 64/1/3 63/1/3
f 66/2/3 65/2/3 64/2/3
f 67/2/3 65/2/3 66/2/3
f 68/2/3 65/2/3 67/2/3
f 70/1/3 66/1/3 63/1/3
f 70/1/3 67/1/3 66/1/3
f 71/2/3 69/2/3 68/2/3
f 71/1/3 67/1/3 70/1/3
f 71/2/3 68/2/3 67/2/3
f 72/2/3 69/2/3 71/2/3
f 73/2/3 69/2/3 72/2/3
f 74/1/3 70/1/3 63/1/3
f 75/2/3 71/2/3 70/2/3
f 75/1/3 70/1/3 74/1/3
f 75/2/3 72/2/3 71/2/3
f 76/2/3 72/2/3 75/2/3
f 77/2/4 78/2/4 79/2/4
f 79/2/4 78/2/4 80/2/4
f 77/2/4 79/2/4 81/2/4
f 77/2/4 81/2/4 83/2/4
f 81/2/4 82/2/4 83/2/4
f 83/2/4 82/2/4 84/2/4
f 85/1/4 86/1/4 87/1/4
f 87/1/4 86/1/4 88/1/4
f 89/1/4 90/1/4 92/1/4
f 90/2/4 91/2/4 92/2/4
f 92/2/4 91/2/4 93/2/4
f 93/2/4 91/2/4 94/2/4
f 89/1/4 92/1/4 96/1/4
f 92/1/4 93/1/4 96/1/4
f 94/2/4 95/2/4 97/2/4
f 96/1/4 93/1/4 97/1/4
f 93/2/4 94/2/4 97/2/4
f 97/2/4 95/2/4 98/2/4
f 98/2/4 95/2/4 99/2/4
f 89/1/4 96/1/4 100/1/4
f 96/2/4 97/2/4 101/2/4
f 100/1/4 96/1/4 101/1/4
f 97/2/4 98/2/4 101/2/4
f 101/2/4 98/2/4 102/2/4
f 109/2/5 104/2/5 103/2/5
f 110/3/5 105/3/5 104/3/5
f 110/2/5 104/2/5 109/2/5
f 111/1/5 106/1/5 105/1/5
f 111/3/5 105/3/5 110/3/5
f 112/2/5 107/2/5 106/2/5
f 112/1/5 106/1/5 111/1/5
f 113/2/5 107/2/5 112/2/5
f 115/2/5 111/2/5 110/2/5
f 115/2/5 114/2/5 113/2/5
f 115/2/5 113/2/5 112/2/5
f 115/2/5 112/2/5 111/2/5
f 115/2/5 109/2/5 108/2/5
f 115/2/5 110/2/5 109/2/5
f 116/2/5 114/2/5 115/2/5
f 119/1/5 118/1/5 117/1/5
f 120/1/5 118/1/5 119/1/5
f 123/1/5 122/1/5 121/1/5
f 124/1/5 122/1/5 123/1/5
f 125/2/6 126/2/6 131/2/6
f 126/3/6 127/3/6 132/3/6
f 131/2/6 126/2/6 132/2/6
f 127/1/6 128/1/6 133/1/6
f 132/3/6 127/3/6 133/3/6
f 128/2/6 129/2/6 134/2/6
f 133/1/6 128/1/6 134/1/6
f 134/2/6 129/2/6 135/2/6
f 132/2/6 133/2/6 137/2/6
f 135/2/6 136/2/6 137/2/6
f 134/2/6 135/2/6 137/2/6
f 133/2/6 134/2/6 137/2/6
f 130/2/6 131/2/6 137/2/6
f 131/2/6 132/2/6 137/2/6
f 137/2/6 136/2/6 138/2/6
f 138/2/6 136/2/6 139/2/6
f 139/2/6 136/2/6 140/2/6
f 138/1/6 139/1/6 141/1/6
f 141/1/6 139/1/6 142/1/6
f 143/2/6 144/2/6 147/2/6
f 147/2/6 144/2/6 148/2/6
f 145/2/6 146/2/6 149/2/6
f 149/2/6 146/2/6 150/2/6
f 151/2/6 152/2/6 153/2/6
f 153/2/6 152/2/6 154/2/6
