# MagicaVoxel @ Ephtracy

# group
o 

# material
mtllib model-2.mtl
usemtl palette

# normals
vn 0 0 -1
vn 0 0 1
vn 1 0 0
vn -1 0 0
vn 0 -1 0
vn 0 1 0

# texcoords
vt 0.103516 0.5
vt 0.107422 0.5
vt 0.115234 0.5

# verts
v 0.3 1.8 -3.2
v -0.3 1.8 -3.2
v 0.3 1.9 -3.2
v -0.3 1.9 -3.2
v 0.3 2 -3.2
v -0.3 2 -3.2
v 0.5 1.8 -3
v 0.3 1.8 -3
v -0.3 1.8 -3
v -0.5 1.8 -3
v 0.5 1.9 -3
v 0.3 1.9 -3
v -0.3 1.9 -3
v -0.5 1.9 -3
v 0.5 2 -3
v 0.3 2 -3
v -0.3 2 -3
v -0.5 2 -3
v 0.3 1.4 -2.9
v -0.3 1.4 -2.9
v 0.3 1.8 -2.9
v -0.3 1.8 -2.9
v 0.3 1.4 -2.4
v -0.3 1.4 -2.4
v 0.5 1.8 -2.4
v 0.3 1.8 -2.4
v -0.3 1.8 -2.4
v -0.5 1.8 -2.4
v 0.5 1.9 -2.4
v 0.3 1.9 -2.4
v -0.3 1.9 -2.4
v -0.5 1.9 -2.4
v 0.5 2 -2.4
v -0.5 2 -2.4
v 0.5 1.8 -3
v 0.5 1.9 -3
v 0.5 2 -3
v 0.5 1.8 -2.4
v 0.5 1.9 -2.4
v 0.5 2 -2.4
v 0.3 1.8 -3.2
v 0.3 1.9 -3.2
v 0.3 2 -3.2
v 0.3 1.8 -3
v 0.3 1.9 -3
v 0.3 2 -3
v 0.3 1.4 -2.9
v 0.3 1.8 -2.9
v 0.3 1.4 -2.4
v 0.3 1.8 -2.4
v -0.3 1.8 -3.2
v -0.3 1.9 -3.2
v -0.3 2 -3.2
v -0.3 1.8 -3
v -0.3 1.9 -3
v -0.3 2 -3
v -0.3 1.4 -2.9
v -0.3 1.8 -2.9
v -0.3 1.4 -2.4
v -0.3 1.8 -2.4
v -0.5 1.8 -3
v -0.5 1.9 -3
v -0.5 2 -3
v -0.5 1.8 -2.4
v -0.5 1.9 -2.4
v -0.5 2 -2.4
v 0.3 1.4 -2.9
v 0.3 1.4 -2.4
v -0.3 1.4 -2.9
v -0.3 1.4 -2.4
v 0.5 1.8 -3
v 0.5 1.8 -2.4
v 0.3 1.8 -3.2
v 0.3 1.8 -3
v 0.3 1.8 -2.9
v 0.3 1.8 -2.4
v -0.3 1.8 -3.2
v -0.3 1.8 -3
v -0.3 1.8 -2.9
v -0.3 1.8 -2.4
v -0.5 1.8 -3
v -0.5 1.8 -2.4
v 0.5 2 -3
v 0.5 2 -2.4
v 0.3 2 -3.2
v 0.3 2 -3
v -0.3 2 -3.2
v -0.3 2 -3
v -0.5 2 -3
v -0.5 2 -2.4

# faces
f 1/3/1 2/3/1 3/3/1
f 3/3/1 2/3/1 4/3/1
f 3/1/1 4/1/1 5/1/1
f 5/1/1 4/1/1 6/1/1
f 7/3/1 8/3/1 11/3/1
f 11/3/1 8/3/1 12/3/1
f 9/3/1 10/3/1 13/3/1
f 13/3/1 10/3/1 14/3/1
f 11/1/1 12/1/1 15/1/1
f 15/1/1 12/1/1 16/1/1
f 13/1/1 14/1/1 17/1/1
f 17/1/1 14/1/1 18/1/1
f 19/2/1 20/2/1 21/2/1
f 21/2/1 20/2/1 22/2/1
f 26/2/2 24/2/2 23/2/2
f 27/2/2 24/2/2 26/2/2
f 29/3/2 26/3/2 25/3/2
f 30/2/2 27/2/2 26/2/2
f 30/3/2 26/3/2 29/3/2
f 31/3/2 28/3/2 27/3/2
f 31/2/2 27/2/2 30/2/2
f 32/3/2 28/3/2 31/3/2
f 33/1/2 30/1/2 29/1/2
f 33/1/2 31/1/2 30/1/2
f 33/1/2 32/1/2 31/1/2
f 34/1/2 32/1/2 33/1/2
f 35/3/3 36/3/3 38/3/3
f 36/1/3 37/1/3 39/1/3
f 38/3/3 36/3/3 39/3/3
f 39/1/3 37/1/3 40/1/3
f 41/3/3 42/3/3 44/3/3
f 42/1/3 43/1/3 45/1/3
f 44/3/3 42/3/3 45/3/3
f 45/1/3 43/1/3 46/1/3
f 47/2/3 48/2/3 49/2/3
f 49/2/3 48/2/3 50/2/3
f 54/3/4 52/3/4 51/3/4
f 55/1/4 53/1/4 52/1/4
f 55/3/4 52/3/4 54/3/4
f 56/1/4 53/1/4 55/1/4
f 59/2/4 58/2/4 57/2/4
f 60/2/4 58/2/4 59/2/4
f 64/3/4 62/3/4 61/3/4
f 65/1/4 63/1/4 62/1/4
f 65/3/4 62/3/4 64/3/4
f 66/1/4 63/1/4 65/1/4
f 67/2/5 68/2/5 69/2/5
f 69/2/5 68/2/5 70/2/5
f 71/3/5 72/3/5 74/3/5
f 74/3/5 72/3/5 75/3/5
f 75/3/5 72/3/5 76/3/5
f 73/3/5 74/3/5 77/3/5
f 74/3/5 75/3/5 77/3/5
f 77/3/5 75/3/5 78/3/5
f 78/3/5 75/3/5 79/3/5
f 79/3/5 80/3/5 81/3/5
f 78/3/5 79/3/5 81/3/5
f 81/3/5 80/3/5 82/3/5
f 86/1/6 84/1/6 83/1/6
f 87/1/6 86/1/6 85/1/6
f 88/1/6 84/1/6 86/1/6
f 88/1/6 86/1/6 87/1/6
f 89/1/6 84/1/6 88/1/6
f 90/1/6 84/1/6 89/1/6
