# MagicaVoxel @ Ephtracy

# group
o 

# material
mtllib model-3.mtl
usemtl palette

# normals
vn 0 0 1
vn 0 0 -1
vn 1 0 0
vn -1 0 0
vn 0 -1 0
vn 0 1 0

# texcoords
vt 0.103516 0.5
vt 0.107422 0.5
vt 0.111328 0.5

# verts
v 0.5 0.6 1
v -0.5 0.6 1
v 0.5 2.1 1
v -0.5 2.1 1
v 0.6 0.6 0.7
v 0.5 0.6 0.7
v 0.5 2.1 0.7
v -0.5 2.1 0.7
v 0.6 2.2 0.7
v -0.5 2.2 0.7
v 0.6 0.6 -0.7
v 0.5 0.6 -0.7
v 0.5 2.1 -0.7
v -0.5 2.1 -0.7
v 0.6 2.2 -0.7
v -0.5 2.2 -0.7
v 0.5 0.6 -1
v -0.5 0.6 -1
v 0.5 2.1 -1
v -0.5 2.1 -1
v 0.6 0.6 0.7
v 0.6 2.2 0.7
v 0.6 0.6 0.1
v 0.6 2.2 0.1
v 0.6 0.6 0
v 0.6 2.2 0
v 0.6 0.6 -0.1
v 0.6 2.2 -0.1
v 0.6 0.6 -0.7
v 0.6 2.2 -0.7
v 0.5 0.6 1
v 0.5 2.1 1
v 0.5 0.6 0.7
v 0.5 2.1 0.7
v 0.5 0.6 -0.7
v 0.5 2.1 -0.7
v 0.5 0.6 -1
v 0.5 2.1 -1
v -0.5 0.6 1
v -0.5 2.1 1
v -0.5 2.1 0.7
v -0.5 2.2 0.7
v -0.5 2.1 -0.7
v -0.5 2.2 -0.7
v -0.5 0.6 -1
v -0.5 2.1 -1
v 0.6 0.6 0.7
v 0.6 0.6 0.1
v 0.6 0.6 0
v 0.6 0.6 -0.1
v 0.6 0.6 -0.7
v 0.5 0.6 1
v 0.5 0.6 0.7
v 0.5 0.6 0.1
v 0.5 0.6 0
v 0.5 0.6 -0.1
v 0.5 0.6 -0.7
v 0.5 0.6 -1
v -0.5 0.6 1
v -0.5 0.6 -1
v 0.5 2.1 1
v 0.5 2.1 0.7
v 0.5 2.1 -0.7
v 0.5 2.1 -1
v -0.5 2.1 1
v -0.5 2.1 0.7
v -0.5 2.1 -0.7
v -0.5 2.1 -1
v 0.6 2.2 0.7
v 0.6 2.2 0.1
v 0.6 2.2 0
v 0.6 2.2 -0.1
v 0.6 2.2 -0.7
v 0.5 2.2 0.1
v 0.5 2.2 0
v 0.5 2.2 -0.1
v -0.5 2.2 0.7
v -0.5 2.2 -0.7

# faces
f 3/2/1 2/2/1 1/2/1
f 4/2/1 2/2/1 3/2/1
f 7/2/1 6/2/1 5/2/1
f 9/2/1 7/2/1 5/2/1
f 9/2/1 8/2/1 7/2/1
f 10/2/1 8/2/1 9/2/1
f 11/2/2 12/2/2 13/2/2
f 11/2/2 13/2/2 15/2/2
f 13/2/2 14/2/2 15/2/2
f 15/2/2 14/2/2 16/2/2
f 17/2/2 18/2/2 19/2/2
f 19/2/2 18/2/2 20/2/2
f 23/2/3 22/2/3 21/2/3
f 24/2/3 22/2/3 23/2/3
f 25/3/3 24/3/3 23/3/3
f 26/3/3 24/3/3 25/3/3
f 27/1/3 26/1/3 25/1/3
f 28/1/3 26/1/3 27/1/3
f 29/2/3 28/2/3 27/2/3
f 30/2/3 28/2/3 29/2/3
f 33/2/3 32/2/3 31/2/3
f 34/2/3 32/2/3 33/2/3
f 37/2/3 36/2/3 35/2/3
f 38/2/3 36/2/3 37/2/3
f 39/2/4 40/2/4 41/2/4
f 39/2/4 41/2/4 43/2/4
f 41/2/4 42/2/4 43/2/4
f 43/2/4 42/2/4 44/2/4
f 39/2/4 43/2/4 45/2/4
f 45/2/4 43/2/4 46/2/4
f 53/2/5 48/2/5 47/2/5
f 54/3/5 49/3/5 48/3/5
f 54/2/5 48/2/5 53/2/5
f 55/1/5 50/1/5 49/1/5
f 55/3/5 49/3/5 54/3/5
f 56/2/5 51/2/5 50/2/5
f 56/1/5 50/1/5 55/1/5
f 57/2/5 51/2/5 56/2/5
f 59/2/5 55/2/5 54/2/5
f 59/2/5 58/2/5 57/2/5
f 59/2/5 57/2/5 56/2/5
f 59/2/5 56/2/5 55/2/5
f 59/2/5 53/2/5 52/2/5
f 59/2/5 54/2/5 53/2/5
f 60/2/5 58/2/5 59/2/5
f 61/2/6 62/2/6 65/2/6
f 65/2/6 62/2/6 66/2/6
f 63/2/6 64/2/6 67/2/6
f 67/2/6 64/2/6 68/2/6
f 69/2/6 70/2/6 74/2/6
f 70/3/6 71/3/6 74/3/6
f 71/1/6 72/1/6 75/1/6
f 74/3/6 71/3/6 75/3/6
f 72/2/6 73/2/6 76/2/6
f 75/1/6 72/1/6 76/1/6
f 74/2/6 75/2/6 77/2/6
f 69/2/6 74/2/6 77/2/6
f 75/2/6 76/2/6 77/2/6
f 76/2/6 73/2/6 78/2/6
f 77/2/6 76/2/6 78/2/6
