# MagicaVoxel @ Ephtracy

# group
o 

# material
mtllib model-6.mtl
usemtl palette

# normals
vn 0 0 1
vn 0 0 -1
vn 1 0 0
vn -1 0 0
vn 0 -1 0
vn 0 1 0

# texcoords
vt 0.103516 0.5
vt 0.107422 0.5
vt 0.115234 0.5

# verts
v 0.3 1.4 1.7
v -0.3 1.4 1.7
v 0.5 1.8 1.7
v 0.3 1.8 1.7
v -0.3 1.8 1.7
v -0.5 1.8 1.7
v 0.5 1.9 1.7
v 0.3 1.9 1.7
v -0.3 1.9 1.7
v -0.5 1.9 1.7
v 0.5 2 1.7
v -0.5 2 1.7
v 0.5 1.8 1.3
v 0.4 1.8 1.3
v -0.4 1.8 1.3
v -0.5 1.8 1.3
v 0.5 1.9 1.3
v 0.4 1.9 1.3
v -0.4 1.9 1.3
v -0.5 1.9 1.3
v 0.5 2 1.3
v 0.4 2 1.3
v -0.4 2 1.3
v -0.5 2 1.3
v 0.3 1.4 0.9
v -0.3 1.4 0.9
v 0.4 1.8 0.9
v 0.3 1.8 0.9
v -0.3 1.8 0.9
v -0.4 1.8 0.9
v 0.4 1.9 0.9
v 0.3 1.9 0.9
v -0.3 1.9 0.9
v -0.4 1.9 0.9
v 0.4 2 0.9
v -0.4 2 0.9
v 0.5 1.8 1.7
v 0.5 1.9 1.7
v 0.5 2 1.7
v 0.5 1.8 1.3
v 0.5 1.9 1.3
v 0.5 2 1.3
v 0.4 1.8 1.3
v 0.4 1.9 1.3
v 0.4 2 1.3
v 0.4 1.8 0.9
v 0.4 1.9 0.9
v 0.4 2 0.9
v 0.3 1.4 1.7
v 0.3 1.8 1.7
v 0.3 1.4 0.9
v 0.3 1.8 0.9
v -0.3 1.4 1.7
v -0.3 1.8 1.7
v -0.3 1.4 0.9
v -0.3 1.8 0.9
v -0.4 1.8 1.3
v -0.4 1.9 1.3
v -0.4 2 1.3
v -0.4 1.8 0.9
v -0.4 1.9 0.9
v -0.4 2 0.9
v -0.5 1.8 1.7
v -0.5 1.9 1.7
v -0.5 2 1.7
v -0.5 1.8 1.3
v -0.5 1.9 1.3
v -0.5 2 1.3
v 0.3 1.4 1.7
v 0.3 1.4 0.9
v -0.3 1.4 1.7
v -0.3 1.4 0.9
v 0.5 1.8 1.7
v 0.5 1.8 1.3
v 0.4 1.8 1.3
v 0.4 1.8 0.9
v 0.3 1.8 1.7
v 0.3 1.8 0.9
v -0.3 1.8 1.7
v -0.3 1.8 0.9
v -0.4 1.8 1.3
v -0.4 1.8 0.9
v -0.5 1.8 1.7
v -0.5 1.8 1.3
v 0.5 2 1.7
v 0.5 2 1.3
v 0.4 2 1.3
v 0.4 2 0.9
v -0.4 2 1.3
v -0.4 2 0.9
v -0.5 2 1.7
v -0.5 2 1.3

# faces
f 4/2/1 2/2/1 1/2/1
f 5/2/1 2/2/1 4/2/1
f 7/3/1 4/3/1 3/3/1
f 8/2/1 5/2/1 4/2/1
f 8/3/1 4/3/1 7/3/1
f 9/3/1 6/3/1 5/3/1
f 9/2/1 5/2/1 8/2/1
f 10/3/1 6/3/1 9/3/1
f 11/1/1 8/1/1 7/1/1
f 11/1/1 9/1/1 8/1/1
f 11/1/1 10/1/1 9/1/1
f 12/1/1 10/1/1 11/1/1
f 13/3/2 14/3/2 17/3/2
f 17/3/2 14/3/2 18/3/2
f 15/3/2 16/3/2 19/3/2
f 19/3/2 16/3/2 20/3/2
f 17/1/2 18/1/2 21/1/2
f 21/1/2 18/1/2 22/1/2
f 19/1/2 20/1/2 23/1/2
f 23/1/2 20/1/2 24/1/2
f 25/2/2 26/2/2 28/2/2
f 28/2/2 26/2/2 29/2/2
f 27/3/2 28/3/2 31/3/2
f 28/2/2 29/2/2 32/2/2
f 31/3/2 28/3/2 32/3/2
f 29/3/2 30/3/2 33/3/2
f 32/2/2 29/2/2 33/2/2
f 33/3/2 30/3/2 34/3/2
f 31/1/2 32/1/2 35/1/2
f 32/1/2 33/1/2 35/1/2
f 33/1/2 34/1/2 35/1/2
f 35/1/2 34/1/2 36/1/2
f 40/3/3 38/3/3 37/3/3
f 41/1/3 39/1/3 38/1/3
f 41/3/3 38/3/3 40/3/3
f 42/1/3 39/1/3 41/1/3
f 46/3/3 44/3/3 43/3/3
f 47/1/3 45/1/3 44/1/3
f 47/3/3 44/3/3 46/3/3
f 48/1/3 45/1/3 47/1/3
f 51/2/3 50/2/3 49/2/3
f 52/2/3 50/2/3 51/2/3
f 53/2/4 54/2/4 55/2/4
f 55/2/4 54/2/4 56/2/4
f 57/3/4 58/3/4 60/3/4
f 58/1/4 59/1/4 61/1/4
f 60/3/4 58/3/4 61/3/4
f 61/1/4 59/1/4 62/1/4
f 63/3/4 64/3/4 66/3/4
f 64/1/4 65/1/4 67/1/4
f 66/3/4 64/3/4 67/3/4
f 67/1/4 65/1/4 68/1/4
f 71/2/5 70/2/5 69/2/5
f 72/2/5 70/2/5 71/2/5
f 75/3/5 74/3/5 73/3/5
f 77/3/5 75/3/5 73/3/5
f 77/3/5 76/3/5 75/3/5
f 78/3/5 76/3/5 77/3/5
f 81/3/5 80/3/5 79/3/5
f 82/3/5 80/3/5 81/3/5
f 83/3/5 81/3/5 79/3/5
f 84/3/5 81/3/5 83/3/5
f 85/1/6 86/1/6 87/1/6
f 85/1/6 87/1/6 89/1/6
f 87/1/6 88/1/6 89/1/6
f 89/1/6 88/1/6 90/1/6
f 85/1/6 89/1/6 91/1/6
f 91/1/6 89/1/6 92/1/6
