# MagicaVoxel @ Ephtracy

# group
o 

# material
mtllib model-7.mtl
usemtl palette

# normals
vn 0 0 1
vn 0 0 -1
vn 1 0 0
vn -1 0 0
vn 0 -1 0
vn 0 1 0

# texcoords
vt 0.103516 0.5
vt 0.107422 0.5
vt 0.115234 0.5

# verts
v 0.3 1.8 3.2
v -0.3 1.8 3.2
v 0.3 1.9 3.2
v -0.3 1.9 3.2
v 0.3 2 3.2
v -0.3 2 3.2
v 0.5 1.8 3
v 0.3 1.8 3
v -0.3 1.8 3
v -0.5 1.8 3
v 0.5 1.9 3
v 0.3 1.9 3
v -0.3 1.9 3
v -0.5 1.9 3
v 0.5 2 3
v 0.3 2 3
v -0.3 2 3
v -0.5 2 3
v 0.3 1.4 2.9
v -0.3 1.4 2.9
v 0.3 1.8 2.9
v -0.3 1.8 2.9
v 0.3 1.4 2.4
v -0.3 1.4 2.4
v 0.5 1.8 2.4
v 0.3 1.8 2.4
v -0.3 1.8 2.4
v -0.5 1.8 2.4
v 0.5 1.9 2.4
v 0.3 1.9 2.4
v -0.3 1.9 2.4
v -0.5 1.9 2.4
v 0.5 2 2.4
v -0.5 2 2.4
v 0.5 1.8 3
v 0.5 1.9 3
v 0.5 2 3
v 0.5 1.8 2.4
v 0.5 1.9 2.4
v 0.5 2 2.4
v 0.3 1.8 3.2
v 0.3 1.9 3.2
v 0.3 2 3.2
v 0.3 1.8 3
v 0.3 1.9 3
v 0.3 2 3
v 0.3 1.4 2.9
v 0.3 1.8 2.9
v 0.3 1.4 2.4
v 0.3 1.8 2.4
v -0.3 1.8 3.2
v -0.3 1.9 3.2
v -0.3 2 3.2
v -0.3 1.8 3
v -0.3 1.9 3
v -0.3 2 3
v -0.3 1.4 2.9
v -0.3 1.8 2.9
v -0.3 1.4 2.4
v -0.3 1.8 2.4
v -0.5 1.8 3
v -0.5 1.9 3
v -0.5 2 3
v -0.5 1.8 2.4
v -0.5 1.9 2.4
v -0.5 2 2.4
v 0.3 1.4 2.9
v 0.3 1.4 2.4
v -0.3 1.4 2.9
v -0.3 1.4 2.4
v 0.5 1.8 3
v 0.5 1.8 2.4
v 0.3 1.8 3.2
v 0.3 1.8 3
v 0.3 1.8 2.9
v 0.3 1.8 2.4
v -0.3 1.8 3.2
v -0.3 1.8 3
v -0.3 1.8 2.9
v -0.3 1.8 2.4
v -0.5 1.8 3
v -0.5 1.8 2.4
v 0.5 2 3
v 0.5 2 2.4
v 0.3 2 3.2
v 0.3 2 3
v -0.3 2 3.2
v -0.3 2 3
v -0.5 2 3
v -0.5 2 2.4

# faces
f 3/3/1 2/3/1 1/3/1
f 4/3/1 2/3/1 3/3/1
f 5/1/1 4/1/1 3/1/1
f 6/1/1 4/1/1 5/1/1
f 11/3/1 8/3/1 7/3/1
f 12/3/1 8/3/1 11/3/1
f 13/3/1 10/3/1 9/3/1
f 14/3/1 10/3/1 13/3/1
f 15/1/1 12/1/1 11/1/1
f 16/1/1 12/1/1 15/1/1
f 17/1/1 14/1/1 13/1/1
f 18/1/1 14/1/1 17/1/1
f 21/2/1 20/2/1 19/2/1
f 22/2/1 20/2/1 21/2/1
f 23/2/2 24/2/2 26/2/2
f 26/2/2 24/2/2 27/2/2
f 25/3/2 26/3/2 29/3/2
f 26/2/2 27/2/2 30/2/2
f 29/3/2 26/3/2 30/3/2
f 27/3/2 28/3/2 31/3/2
f 30/2/2 27/2/2 31/2/2
f 31/3/2 28/3/2 32/3/2
f 29/1/2 30/1/2 33/1/2
f 30/1/2 31/1/2 33/1/2
f 31/1/2 32/1/2 33/1/2
f 33/1/2 32/1/2 34/1/2
f 38/3/3 36/3/3 35/3/3
f 39/1/3 37/1/3 36/1/3
f 39/3/3 36/3/3 38/3/3
f 40/1/3 37/1/3 39/1/3
f 44/3/3 42/3/3 41/3/3
f 45/1/3 43/1/3 42/1/3
f 45/3/3 42/3/3 44/3/3
f 46/1/3 43/1/3 45/1/3
f 49/2/3 48/2/3 47/2/3
f 50/2/3 48/2/3 49/2/3
f 51/3/4 52/3/4 54/3/4
f 52/1/4 53/1/4 55/1/4
f 54/3/4 52/3/4 55/3/4
f 55/1/4 53/1/4 56/1/4
f 57/2/4 58/2/4 59/2/4
f 59/2/4 58/2/4 60/2/4
f 61/3/4 62/3/4 64/3/4
f 62/1/4 63/1/4 65/1/4
f 64/3/4 62/3/4 65/3/4
f 65/1/4 63/1/4 66/1/4
f 69/2/5 68/2/5 67/2/5
f 70/2/5 68/2/5 69/2/5
f 74/3/5 72/3/5 71/3/5
f 75/3/5 72/3/5 74/3/5
f 76/3/5 72/3/5 75/3/5
f 77/3/5 74/3/5 73/3/5
f 77/3/5 75/3/5 74/3/5
f 78/3/5 75/3/5 77/3/5
f 79/3/5 75/3/5 78/3/5
f 81/3/5 80/3/5 79/3/5
f 81/3/5 79/3/5 78/3/5
f 82/3/5 80/3/5 81/3/5
f 83/1/6 84/1/6 86/1/6
f 85/1/6 86/1/6 87/1/6
f 86/1/6 84/1/6 88/1/6
f 87/1/6 86/1/6 88/1/6
f 88/1/6 84/1/6 89/1/6
f 89/1/6 84/1/6 90/1/6
