# MagicaVoxel @ Ephtracy

# group
o 

# material
mtllib model.mtl
usemtl palette

# normals
vn 0 0 1
vn 0 0 -1
vn 1 0 0
vn -1 0 0
vn 0 -1 0
vn 0 1 0

# texcoords
vt 0.0292969 0.5
vt 0.755859 0.5
vt 0.759766 0.5

# verts
v 0 0.1 1.8
v -0.1 0.1 1.8
v -0.9 0.1 1.8
v -0.1 0.4 1.8
v -0.9 0.4 1.8
v 0 0.5 1.8
v -0.9 0.5 1.8
v 0 0 1.7
v -0.9 0 1.7
v 0 0.1 1.7
v -0.1 0.1 1.7
v -0.9 0.1 1.7
v 0 0.5 1.7
v -0.6 0.5 1.7
v -0.9 0.5 1.7
v 0 0.6 1.7
v -0.6 0.6 1.7
v -0.9 0.6 1.7
v 0 0.4 1.5
v -0.9 0.4 1.5
v 0 0.5 1.5
v -0.1 0.5 1.5
v -0.9 0.5 1.5
v 0 0.3 1.3
v -0.8 0.3 1.3
v -0.9 0.3 1.3
v 0.4 1.2 1.3
v 0 1.2 1.3
v -0.8 1.7 1.3
v -0.9 1.7 1.3
v 0.9 2.1 1.3
v 0.8 2.1 1.3
v 0.4 2.1 1.3
v 0.9 2.3 1.3
v 0.8 2.3 1.3
v 0.6 2.3 1.3
v -0.8 2.3 1.3
v 0.9 2.4 1.3
v 0.6 2.4 1.3
v -0.8 2.4 1.3
v -0.9 2.4 1.3
v 0.9 2.4 1.2
v 0.6 2.4 1.2
v 0.3 2.4 1.2
v -0.5 2.4 1.2
v -0.8 2.4 1.2
v -0.9 2.4 1.2
v 0.9 2.5 1.2
v 0.3 2.5 1.2
v -0.5 2.5 1.2
v -0.9 2.5 1.2
v 1.1 2 0.9
v 1 2 0.9
v 0.4 2 0.9
v 0.9 2.1 0.9
v 0.4 2.1 0.9
v 0.9 2.4 0.9
v 0.9 2.5 0.9
v 0.8 2.5 0.9
v -0.8 2.5 0.9
v 1 2.6 0.9
v -0.8 2.6 0.9
v 1.1 2.7 0.9
v -0.8 2.7 0.9
v 1.1 1.9 0.8
v 0.4 1.9 0.8
v 1.1 2 0.8
v 1 2 0.8
v 0.4 2 0.8
v 1.1 2.7 0.8
v 0.7 2.7 0.8
v 0 2.7 0.8
v -0.3 2.7 0.8
v -0.8 2.7 0.8
v 1.1 2.8 0.8
v 0.7 2.8 0.8
v 0 2.8 0.8
v -0.3 2.8 0.8
v -0.8 2.8 0.8
v 1.1 2.2 0.5
v 0.9 2.2 0.5
v 1.1 2.3 0.5
v 1 2.3 0.5
v 1.1 2.4 0.5
v 1 2.4 0.5
v 0.9 2.4 0.5
v 1.1 2.1 0.3
v 1 2.1 0.3
v 0.9 2.1 0.3
v 1.1 2.3 0.3
v 1 2.3 0.3
v 0.9 2.3 0.3
v 1.1 2 -0.0999999
v 0.4 2 -0.0999999
v 0.9 2.1 -0.0999999
v 0.4 2.1 -0.0999999
v 1.1 2.3 -0.0999999
v 1 2.3 -0.0999999
v 1.1 2.4 -0.0999999
v 1 2.4 -0.0999999
v 0.9 2.4 -0.0999999
v 1.1 2.6 -0.0999999
v 0.9 2.6 -0.0999999
v -0.8 2.6 -0.0999999
v 1.1 2.7 -0.0999999
v -0.8 2.7 -0.0999999
v 1.1 1.9 -0.2
v 0.4 1.9 -0.2
v 1.1 2 -0.2
v 0.4 2 -0.2
v 1.1 2.7 -0.2
v 0.5 2.7 -0.2
v 0.1 2.7 -0.2
v -0.1 2.7 -0.2
v -0.8 2.7 -0.2
v 1.1 2.8 -0.2
v 0.5 2.8 -0.2
v 0.1 2.8 -0.2
v -0.1 2.8 -0.2
v -0.8 2.8 -0.2
v 1.1 2.2 -0.4
v 0.9 2.2 -0.4
v 1.1 2.3 -0.4
v 1 2.3 -0.4
v 0.9 2.3 -0.4
v 1.1 2.1 -0.6
v 1 2.1 -0.6
v 0.9 2.1 -0.6
v 1.1 2.6 -0.6
v 0.9 2.6 -0.6
v 0 0.4 -1.4
v -0.9 0.4 -1.4
v 0 0.5 -1.4
v -0.1 0.5 -1.4
v 0 0.6 -1.4
v -0.1 0.6 -1.4
v -0.9 0.6 -1.4
v 0 0.3 -1.6
v -0.9 0.3 -1.6
v 0 0.5 -1.6
v -0.1 0.5 -1.6
v -0.9 0.5 -1.6
v 0 0.3 1.6
v -0.9 0.3 1.6
v 0 0.5 1.6
v -0.1 0.5 1.6
v -0.9 0.5 1.6
v 0 0.4 1.4
v -0.9 0.4 1.4
v 0 0.5 1.4
v -0.1 0.5 1.4
v 0 0.6 1.4
v -0.1 0.6 1.4
v -0.9 0.6 1.4
v 1.1 2.1 0.6
v 1 2.1 0.6
v 0.9 2.1 0.6
v 1.1 2.6 0.6
v 0.9 2.6 0.6
v 1.1 2.2 0.4
v 0.9 2.2 0.4
v 1.1 2.3 0.4
v 1 2.3 0.4
v 0.9 2.3 0.4
v 1.1 1.9 0.2
v 0.4 1.9 0.2
v 1.1 2 0.2
v 0.4 2 0.2
v 1.1 2.7 0.2
v -0.8 2.7 0.2
v 1.1 2.8 0.2
v -0.8 2.8 0.2
v 1.1 2 0.1
v 0.4 2 0.1
v 0.9 2.1 0.1
v 0.4 2.1 0.1
v 1.1 2.3 0.1
v 1 2.3 0.1
v 1.1 2.4 0.1
v 1 2.4 0.1
v 0.9 2.4 0.1
v 1.1 2.6 0.1
v 0.9 2.6 0.1
v -0.8 2.6 0.1
v 1.1 2.7 0.1
v -0.8 2.7 0.1
v 1.1 2.1 -0.3
v 1 2.1 -0.3
v 0.9 2.1 -0.3
v 1.1 2.3 -0.3
v 1 2.3 -0.3
v 0.9 2.3 -0.3
v 1.1 2.2 -0.5
v 0.9 2.2 -0.5
v 1.1 2.3 -0.5
v 1 2.3 -0.5
v 1.1 2.4 -0.5
v 1 2.4 -0.5
v 0.9 2.4 -0.5
v 1.1 1.9 -0.8
v 0.4 1.9 -0.8
v 1.1 2 -0.8
v 1 2 -0.8
v 0.4 2 -0.8
v 1.1 2.7 -0.8
v 1 2.7 -0.8
v 0.7 2.7 -0.8
v -0.8 2.7 -0.8
v 1.1 2.8 -0.8
v 0.7 2.8 -0.8
v -0.8 2.8 -0.8
v 1.1 2 -0.9
v 1 2 -0.9
v 0.4 2 -0.9
v 0.9 2.1 -0.9
v 0.4 2.1 -0.9
v 1.1 2.4 -0.9
v 1 2.4 -0.9
v 0.9 2.4 -0.9
v 0.9 2.5 -0.9
v 0.8 2.5 -0.9
v -0.8 2.5 -0.9
v 1 2.6 -0.9
v -0.8 2.6 -0.9
v 1.1 2.7 -0.9
v 1 2.7 -0.9
v -0.8 2.7 -0.9
v 0.9 2.4 -1.2
v -0.4 2.4 -1.2
v -0.8 2.4 -1.2
v -0.9 2.4 -1.2
v 0.9 2.5 -1.2
v -0.4 2.5 -1.2
v -0.9 2.5 -1.2
v 0 0.3 -1.3
v -0.8 0.3 -1.3
v -0.9 0.3 -1.3
v 0.4 1.2 -1.3
v 0 1.2 -1.3
v -0.8 1.9 -1.3
v -0.9 1.9 -1.3
v 0.9 2.1 -1.3
v 0.8 2.1 -1.3
v 0.4 2.1 -1.3
v 0.8 2.3 -1.3
v -0.8 2.3 -1.3
v 0.9 2.4 -1.3
v -0.8 2.4 -1.3
v -0.9 2.4 -1.3
v 0 0.4 -1.5
v -0.9 0.4 -1.5
v 0 0.5 -1.5
v -0.1 0.5 -1.5
v -0.9 0.5 -1.5
v 0 0 -1.7
v -0.9 0 -1.7
v 0 0.1 -1.7
v -0.1 0.1 -1.7
v -0.9 0.1 -1.7
v 0 0.5 -1.7
v -0.1 0.5 -1.7
v -0.6 0.5 -1.7
v -0.9 0.5 -1.7
v 0 0.6 -1.7
v -0.6 0.6 -1.7
v -0.9 0.6 -1.7
v 0 0.1 -1.8
v -0.1 0.1 -1.8
v -0.9 0.1 -1.8
v 0 0.3 -1.8
v -0.1 0.3 -1.8
v -0.1 0.4 -1.8
v -0.9 0.4 -1.8
v 0 0.5 -1.8
v -0.1 0.5 -1.8
v -0.9 0.5 -1.8
v 1.1 2 0.9
v 1.1 2.7 0.9
v 1.1 1.9 0.8
v 1.1 2 0.8
v 1.1 2.7 0.8
v 1.1 2.8 0.8
v 1.1 2 0.6
v 1.1 2.1 0.6
v 1.1 2.6 0.6
v 1.1 2.2 0.5
v 1.1 2.3 0.5
v 1.1 2.4 0.5
v 1.1 2.7 0.5
v 1.1 2.8 0.5
v 1.1 2.2 0.4
v 1.1 2.3 0.4
v 1.1 2 0.3
v 1.1 2.1 0.3
v 1.1 2.3 0.3
v 1.1 2.4 0.3
v 1.1 1.9 0.2
v 1.1 2 0.2
v 1.1 2.7 0.2
v 1.1 2.8 0.2
v 1.1 2 0.1
v 1.1 2.3 0.1
v 1.1 2.4 0.1
v 1.1 2.6 0.1
v 1.1 2.7 0.1
v 1.1 2 -0.0999999
v 1.1 2.3 -0.0999999
v 1.1 2.4 -0.0999999
v 1.1 2.6 -0.0999999
v 1.1 2.7 -0.0999999
v 1.1 1.9 -0.2
v 1.1 2 -0.2
v 1.1 2.7 -0.2
v 1.1 2.8 -0.2
v 1.1 2 -0.3
v 1.1 2.1 -0.3
v 1.1 2.3 -0.3
v 1.1 2.4 -0.3
v 1.1 2.7 -0.3
v 1.1 2.8 -0.3
v 1.1 2.2 -0.4
v 1.1 2.3 -0.4
v 1.1 2.2 -0.5
v 1.1 2.3 -0.5
v 1.1 2.4 -0.5
v 1.1 2 -0.6
v 1.1 2.1 -0.6
v 1.1 2.6 -0.6
v 1.1 2.7 -0.6
v 1.1 2.8 -0.6
v 1.1 1.9 -0.8
v 1.1 2 -0.8
v 1.1 2.4 -0.8
v 1.1 2.7 -0.8
v 1.1 2.8 -0.8
v 1.1 2 -0.9
v 1.1 2.4 -0.9
v 1.1 2.7 -0.9
v 0.9 2.1 1.3
v 0.9 2.3 1.3
v 0.9 2.4 1.3
v 0.9 2.1 1.2
v 0.9 2.3 1.2
v 0.9 2.4 1.2
v 0.9 2.5 1.2
v 0.9 2.4 1
v 0.9 2.5 1
v 0.9 2.1 0.9
v 0.9 2.4 0.9
v 0.9 2.5 0.9
v 0.9 2.1 0.6
v 0.9 2.6 0.6
v 0.9 2.2 0.5
v 0.9 2.4 0.5
v 0.9 2.2 0.4
v 0.9 2.3 0.4
v 0.9 2.1 0.3
v 0.9 2.3 0.3
v 0.9 2.1 0.1
v 0.9 2.4 0.1
v 0.9 2.6 0.1
v 0.9 2.1 -0.0999999
v 0.9 2.4 -0.0999999
v 0.9 2.6 -0.0999999
v 0.9 2.1 -0.3
v 0.9 2.3 -0.3
v 0.9 2.2 -0.4
v 0.9 2.3 -0.4
v 0.9 2.2 -0.5
v 0.9 2.4 -0.5
v 0.9 2.1 -0.6
v 0.9 2.6 -0.6
v 0.9 2.1 -0.9
v 0.9 2.4 -0.9
v 0.9 2.5 -0.9
v 0.9 2.1 -1.2
v 0.9 2.4 -1.2
v 0.9 2.5 -1.2
v 0.9 2.1 -1.3
v 0.9 2.4 -1.3
v 0.4 1.2 1.3
v 0.4 2.1 1.3
v 0.4 2 0.9
v 0.4 2.1 0.9
v 0.4 1.9 0.8
v 0.4 2 0.8
v 0.4 1.9 0.2
v 0.4 2 0.2
v 0.4 2 0.1
v 0.4 2.1 0.1
v 0.4 2 -0.0999999
v 0.4 2.1 -0.0999999
v 0.4 1.9 -0.2
v 0.4 2 -0.2
v 0.4 1.9 -0.8
v 0.4 2 -0.8
v 0.4 2 -0.9
v 0.4 2.1 -0.9
v 0.4 1.2 -1.3
v 0.4 2.1 -1.3
v 0 0.1 1.8
v 0 0.5 1.8
v 0 0 1.7
v 0 0.1 1.7
v 0 0.5 1.7
v 0 0.6 1.7
v 0 0.3 1.6
v 0 0.5 1.6
v 0 0.4 1.5
v 0 0.5 1.5
v 0 0.6 1.5
v 0 0.4 1.4
v 0 0.5 1.4
v 0 0.6 1.4
v 0 0.3 1.3
v 0 1.2 1.3
v 0 0.3 -1.3
v 0 1.2 -1.3
v 0 0.4 -1.4
v 0 0.5 -1.4
v 0 0.6 -1.4
v 0 0.4 -1.5
v 0 0.5 -1.5
v 0 0.3 -1.6
v 0 0.5 -1.6
v 0 0.6 -1.6
v 0 0 -1.7
v 0 0.1 -1.7
v 0 0.3 -1.7
v 0 0.5 -1.7
v 0 0.6 -1.7
v 0 0.1 -1.8
v 0 0.3 -1.8
v 0 0.5 -1.8
v -0.8 2.5 0.9
v -0.8 2.6 0.9
v -0.8 2.7 0.9
v -0.8 2.6 0.8
v -0.8 2.7 0.8
v -0.8 2.8 0.8
v -0.8 2.5 0.7
v -0.8 2.5 0.5
v -0.8 2.5 0.2
v -0.8 2.7 0.2
v -0.8 2.8 0.2
v -0.8 2.6 0.1
v -0.8 2.7 0.1
v -0.8 2.6 -0.0999999
v -0.8 2.7 -0.0999999
v -0.8 2.7 -0.2
v -0.8 2.8 -0.2
v -0.8 2.5 -0.4
v -0.8 2.6 -0.8
v -0.8 2.7 -0.8
v -0.8 2.8 -0.8
v -0.8 2.5 -0.9
v -0.8 2.6 -0.9
v -0.8 2.7 -0.9
v -0.9 0.1 1.8
v -0.9 0.4 1.8
v -0.9 0.5 1.8
v -0.9 0 1.7
v -0.9 0.1 1.7
v -0.9 0.4 1.7
v -0.9 0.5 1.7
v -0.9 0.6 1.7
v -0.9 0.3 1.6
v -0.9 0.5 1.6
v -0.9 0.6 1.6
v -0.9 0.4 1.5
v -0.9 0.5 1.5
v -0.9 0.4 1.4
v -0.9 0.6 1.4
v -0.9 0.3 1.3
v -0.9 1.7 1.3
v -0.9 2.4 1.3
v -0.9 0.3 1.2
v -0.9 1.7 1.2
v -0.9 2.4 1.2
v -0.9 2.5 1.2
v -0.9 2.4 1.1
v -0.9 2.5 1.1
v -0.9 2.4 0.7
v -0.9 2.5 0.7
v -0.9 2.4 0.5
v -0.9 2.5 0.5
v -0.9 2.4 0.2
v -0.9 2.5 0.2
v -0.9 2.4 -0.4
v -0.9 2.5 -0.4
v -0.9 2.4 -1
v -0.9 2.5 -1
v -0.9 0.3 -1.2
v -0.9 1.9 -1.2
v -0.9 2.4 -1.2
v -0.9 2.5 -1.2
v -0.9 0.3 -1.3
v -0.9 1.9 -1.3
v -0.9 2.4 -1.3
v -0.9 0.4 -1.4
v -0.9 0.6 -1.4
v -0.9 0.4 -1.5
v -0.9 0.5 -1.5
v -0.9 0.3 -1.6
v -0.9 0.5 -1.6
v -0.9 0.6 -1.6
v -0.9 0 -1.7
v -0.9 0.1 -1.7
v -0.9 0.4 -1.7
v -0.9 0.5 -1.7
v -0.9 0.6 -1.7
v -0.9 0.1 -1.8
v -0.9 0.4 -1.8
v -0.9 0.5 -1.8
v 0 0 1.7
v 0 0 -1.7
v -0.9 0 1.7
v -0.9 0 -1.7
v 0 0.1 1.8
v 0 0.1 1.7
v 0 0.1 -1.7
v 0 0.1 -1.8
v -0.1 0.1 1.8
v -0.1 0.1 1.7
v -0.1 0.1 -1.7
v -0.1 0.1 -1.8
v -0.9 0.1 1.8
v -0.9 0.1 1.7
v -0.9 0.1 -1.7
v -0.9 0.1 -1.8
v 0 0.4 1.5
v 0 0.4 1.4
v 0 0.4 -1.4
v 0 0.4 -1.5
v -0.9 0.4 1.5
v -0.9 0.4 1.4
v -0.9 0.4 -1.4
v -0.9 0.4 -1.5
v 0 0.5 1.6
v 0 0.5 1.5
v 0 0.5 -1.5
v 0 0.5 -1.6
v -0.1 0.5 1.6
v -0.1 0.5 1.5
v -0.1 0.5 -1.5
v -0.1 0.5 -1.6
v -0.9 0.5 1.6
v -0.9 0.5 1.5
v -0.9 0.5 -1.5
v -0.9 0.5 -1.6
v 0.4 1.2 1.3
v 0.4 1.2 -1.3
v 0 1.2 1.3
v 0 1.2 -1.3
v 1.1 1.9 0.8
v 1.1 1.9 0.2
v 1.1 1.9 -0.2
v 1.1 1.9 -0.8
v 0.4 1.9 0.8
v 0.4 1.9 0.2
v 0.4 1.9 -0.2
v 0.4 1.9 -0.8
v 1.1 2 0.9
v 1.1 2 0.8
v 1.1 2 0.2
v 1.1 2 0.1
v 1.1 2 -0.0999999
v 1.1 2 -0.2
v 1.1 2 -0.8
v 1.1 2 -0.9
v 1 2 0.9
v 1 2 0.8
v 1 2 -0.8
v 1 2 -0.9
v 0.4 2 0.9
v 0.4 2 0.8
v 0.4 2 0.2
v 0.4 2 0.1
v 0.4 2 -0.0999999
v 0.4 2 -0.2
v 0.4 2 -0.8
v 0.4 2 -0.9
v 0.9 2.1 1.3
v 0.9 2.1 1.2
v 0.9 2.1 0.9
v 0.9 2.1 0.1
v 0.9 2.1 -0.0999999
v 0.9 2.1 -0.9
v 0.9 2.1 -1.2
v 0.9 2.1 -1.3
v 0.8 2.1 1.3
v 0.8 2.1 1.2
v 0.8 2.1 -1.2
v 0.8 2.1 -1.3
v 0.4 2.1 1.3
v 0.4 2.1 0.9
v 0.4 2.1 0.1
v 0.4 2.1 -0.0999999
v 0.4 2.1 -0.9
v 0.4 2.1 -1.3
v 1.1 2.2 0.5
v 1.1 2.2 0.4
v 1.1 2.2 -0.4
v 1.1 2.2 -0.5
v 0.9 2.2 0.5
v 0.9 2.2 0.4
v 0.9 2.2 -0.4
v 0.9 2.2 -0.5
v 1.1 2.3 0.4
v 1.1 2.3 0.3
v 1.1 2.3 -0.3
v 1.1 2.3 -0.4
v 1 2.3 0.4
v 1 2.3 0.3
v 1 2.3 -0.3
v 1 2.3 -0.4
v 0.9 2.3 0.4
v 0.9 2.3 0.3
v 0.9 2.3 -0.3
v 0.9 2.3 -0.4
v 1.1 2.6 0.6
v 1.1 2.6 0.1
v 1.1 2.6 -0.0999999
v 1.1 2.6 -0.6
v 0.9 2.6 0.6
v 0.9 2.6 0.1
v 0.9 2.6 -0.0999999
v 0.9 2.6 -0.6
v 0 0.3 1.6
v 0 0.3 1.3
v 0 0.3 -1.3
v 0 0.3 -1.6
v -0.8 0.3 1.3
v -0.8 0.3 -1.3
v -0.9 0.3 1.6
v -0.9 0.3 1.3
v -0.9 0.3 -1.3
v -0.9 0.3 -1.6
v 0 0.5 1.8
v 0 0.5 1.7
v 0 0.5 -1.7
v 0 0.5 -1.8
v -0.1 0.5 -1.7
v -0.1 0.5 -1.8
v -0.6 0.5 1.7
v -0.6 0.5 -1.7
v -0.9 0.5 1.8
v -0.9 0.5 1.7
v -0.9 0.5 -1.7
v -0.9 0.5 -1.8
v 0 0.6 1.7
v 0 0.6 1.5
v 0 0.6 1.4
v 0 0.6 -1.4
v 0 0.6 -1.6
v 0 0.6 -1.7
v -0.1 0.6 1.6
v -0.1 0.6 1.5
v -0.1 0.6 1.4
v -0.1 0.6 -1.4
v -0.1 0.6 -1.6
v -0.6 0.6 1.7
v -0.6 0.6 1.6
v -0.6 0.6 -1.6
v -0.6 0.6 -1.7
v -0.9 0.6 1.7
v -0.9 0.6 1.6
v -0.9 0.6 1.4
v -0.9 0.6 -1.4
v -0.9 0.6 -1.6
v -0.9 0.6 -1.7
v 1.1 2.1 0.6
v 1.1 2.1 0.3
v 1.1 2.1 -0.3
v 1.1 2.1 -0.6
v 1 2.1 0.6
v 1 2.1 0.3
v 1 2.1 -0.3
v 1 2.1 -0.6
v 0.9 2.1 0.6
v 0.9 2.1 0.3
v 0.9 2.1 -0.3
v 0.9 2.1 -0.6
v 1.1 2.4 0.5
v 1.1 2.4 0.3
v 1.1 2.4 0.1
v 1.1 2.4 -0.0999999
v 1.1 2.4 -0.3
v 1.1 2.4 -0.5
v 1 2.4 0.5
v 1 2.4 0.3
v 1 2.4 0.1
v 1 2.4 -0.0999999
v 1 2.4 -0.3
v 1 2.4 -0.5
v 0.9 2.4 1.3
v 0.9 2.4 1.2
v 0.9 2.4 0.5
v 0.9 2.4 0.1
v 0.9 2.4 -0.0999999
v 0.9 2.4 -0.5
v 0.9 2.4 -1.2
v 0.9 2.4 -1.3
v 0.6 2.4 1.3
v 0.6 2.4 1.2
v 0.3 2.4 1.2
v -0.4 2.4 -1.2
v -0.5 2.4 1.2
v -0.8 2.4 1.3
v -0.8 2.4 1.2
v -0.8 2.4 -1.2
v -0.8 2.4 -1.3
v -0.9 2.4 1.3
v -0.9 2.4 1.2
v -0.9 2.4 -1.2
v -0.9 2.4 -1.3
v 0.9 2.5 1.2
v 0.9 2.5 1
v 0.9 2.5 0.9
v 0.9 2.5 -0.9
v 0.9 2.5 -1.2
v 0.8 2.5 1.1
v 0.8 2.5 1
v 0.8 2.5 0.9
v 0.8 2.5 -0.9
v 0.8 2.5 -1.1
v 0.3 2.5 1.2
v 0.3 2.5 1.1
v -0.4 2.5 -1.1
v -0.4 2.5 -1.2
v -0.5 2.5 1.2
v -0.5 2.5 1.1
v -0.8 2.5 1.1
v -0.8 2.5 0.9
v -0.8 2.5 0.7
v -0.8 2.5 0.5
v -0.8 2.5 0.2
v -0.8 2.5 -0.4
v -0.8 2.5 -0.9
v -0.8 2.5 -1
v -0.8 2.5 -1.1
v -0.9 2.5 1.2
v -0.9 2.5 1.1
v -0.9 2.5 0.7
v -0.9 2.5 0.5
v -0.9 2.5 0.2
v -0.9 2.5 -0.4
v -0.9 2.5 -1
v -0.9 2.5 -1.2
v 0.9 2.6 0.1
v 0.9 2.6 -0.0999999
v -0.8 2.6 0.1
v -0.8 2.6 -0.0999999
v 1.1 2.7 0.9
v 1.1 2.7 0.8
v 1.1 2.7 0.2
v 1.1 2.7 0.1
v 1.1 2.7 -0.0999999
v 1.1 2.7 -0.2
v 1.1 2.7 -0.8
v 1.1 2.7 -0.9
v 1 2.7 -0.8
v 1 2.7 -0.9
v 0.7 2.7 0.8
v 0.7 2.7 -0.8
v 0.5 2.7 -0.2
v 0.1 2.7 -0.2
v 0 2.7 0.8
v -0.1 2.7 -0.2
v -0.3 2.7 0.8
v -0.8 2.7 0.9
v -0.8 2.7 0.8
v -0.8 2.7 0.2
v -0.8 2.7 0.1
v -0.8 2.7 -0.0999999
v -0.8 2.7 -0.2
v -0.8 2.7 -0.8
v -0.8 2.7 -0.9
v 1.1 2.8 0.8
v 1.1 2.8 0.5
v 1.1 2.8 0.2
v 1.1 2.8 -0.2
v 1.1 2.8 -0.3
v 1.1 2.8 -0.6
v 1.1 2.8 -0.8
v 1 2.8 0.7
v 1 2.8 0.5
v 1 2.8 0.3
v 1 2.8 -0.3
v 1 2.8 -0.6
v 1 2.8 -0.7
v 0.7 2.8 0.8
v 0.7 2.8 0.7
v 0.7 2.8 -0.7
v 0.7 2.8 -0.8
v 0.5 2.8 -0.2
v 0.5 2.8 -0.3
v 0.1 2.8 -0.2
v 0.1 2.8 -0.3
v 0 2.8 0.8
v 0 2.8 0.7
v -0.1 2.8 -0.2
v -0.1 2.8 -0.3
v -0.3 2.8 0.8
v -0.3 2.8 0.7
v -0.7 2.8 0.7
v -0.7 2.8 0.3
v -0.7 2.8 -0.3
v -0.7 2.8 -0.7
v -0.8 2.8 0.8
v -0.8 2.8 0.2
v -0.8 2.8 -0.2
v -0.8 2.8 -0.8

# faces
f 4/3/1 2/3/1 1/3/1
f 4/2/1 3/2/1 2/2/1
f 5/2/1 3/2/1 4/2/1
f 6/3/1 4/3/1 1/3/1
f 6/3/1 5/3/1 4/3/1
f 7/3/1 5/3/1 6/3/1
f 10/2/1 9/2/1 8/2/1
f 11/2/1 9/2/1 10/2/1
f 12/2/1 9/2/1 11/2/1
f 16/1/1 14/1/1 13/1/1
f 17/3/1 15/3/1 14/3/1
f 17/1/1 14/1/1 16/1/1
f 18/3/1 15/3/1 17/3/1
f 21/2/1 20/2/1 19/2/1
f 22/2/1 20/2/1 21/2/1
f 23/2/1 20/2/1 22/2/1
f 28/2/1 25/2/1 24/2/1
f 29/3/1 26/3/1 25/3/1
f 29/2/1 28/2/1 27/2/1
f 29/2/1 25/2/1 28/2/1
f 30/3/1 26/3/1 29/3/1
f 33/2/1 29/2/1 27/2/1
f 34/3/1 32/3/1 31/3/1
f 35/2/1 33/2/1 32/2/1
f 35/3/1 32/3/1 34/3/1
f 36/2/1 33/2/1 35/2/1
f 37/1/1 30/1/1 29/1/1
f 37/2/1 33/2/1 36/2/1
f 37/2/1 29/2/1 33/2/1
f 38/1/1 36/1/1 35/1/1
f 38/1/1 35/1/1 34/1/1
f 39/3/1 37/3/1 36/3/1
f 39/1/1 36/1/1 38/1/1
f 40/1/1 30/1/1 37/1/1
f 40/3/1 37/3/1 39/3/1
f 41/1/1 30/1/1 40/1/1
f 48/1/1 43/1/1 42/1/1
f 48/1/1 44/1/1 43/1/1
f 49/3/1 45/3/1 44/3/1
f 49/1/1 44/1/1 48/1/1
f 50/1/1 47/1/1 46/1/1
f 50/3/1 45/3/1 49/3/1
f 50/1/1 46/1/1 45/1/1
f 51/1/1 47/1/1 50/1/1
f 55/2/1 54/2/1 53/2/1
f 56/2/1 54/2/1 55/2/1
f 57/2/1 55/2/1 53/2/1
f 58/2/1 57/2/1 53/2/1
f 61/3/1 53/3/1 52/3/1
f 61/2/1 60/2/1 59/2/1
f 61/2/1 58/2/1 53/2/1
f 61/2/1 59/2/1 58/2/1
f 62/2/1 60/2/1 61/2/1
f 63/3/1 61/3/1 52/3/1
f 63/3/1 62/3/1 61/3/1
f 64/3/1 62/3/1 63/3/1
f 67/2/1 66/2/1 65/2/1
f 68/2/1 66/2/1 67/2/1
f 69/2/1 66/2/1 68/2/1
f 75/1/1 71/1/1 70/1/1
f 76/3/1 72/3/1 71/3/1
f 76/1/1 71/1/1 75/1/1
f 77/1/1 73/1/1 72/1/1
f 77/3/1 72/3/1 76/3/1
f 78/3/1 74/3/1 73/3/1
f 78/1/1 73/1/1 77/1/1
f 79/3/1 74/3/1 78/3/1
f 82/2/1 81/2/1 80/2/1
f 83/2/1 81/2/1 82/2/1
f 84/1/1 83/1/1 82/1/1
f 85/2/1 81/2/1 83/2/1
f 85/1/1 83/1/1 84/1/1
f 86/2/1 81/2/1 85/2/1
f 90/2/1 88/2/1 87/2/1
f 90/2/1 89/2/1 88/2/1
f 91/2/1 89/2/1 90/2/1
f 92/2/1 89/2/1 91/2/1
f 95/2/1 94/2/1 93/2/1
f 96/2/1 94/2/1 95/2/1
f 97/2/1 95/2/1 93/2/1
f 98/2/1 95/2/1 97/2/1
f 99/1/1 98/1/1 97/1/1
f 100/2/1 95/2/1 98/2/1
f 100/1/1 98/1/1 99/1/1
f 101/2/1 95/2/1 100/2/1
f 105/2/1 103/2/1 102/2/1
f 105/2/1 104/2/1 103/2/1
f 106/2/1 104/2/1 105/2/1
f 109/2/1 108/2/1 107/2/1
f 110/2/1 108/2/1 109/2/1
f 116/1/1 112/1/1 111/1/1
f 117/3/1 113/3/1 112/3/1
f 117/1/1 112/1/1 116/1/1
f 118/1/1 114/1/1 113/1/1
f 118/3/1 113/3/1 117/3/1
f 119/3/1 115/3/1 114/3/1
f 119/1/1 114/1/1 118/1/1
f 120/3/1 115/3/1 119/3/1
f 123/2/1 122/2/1 121/2/1
f 124/2/1 122/2/1 123/2/1
f 125/2/1 122/2/1 124/2/1
f 129/2/1 127/2/1 126/2/1
f 129/2/1 128/2/1 127/2/1
f 130/2/1 128/2/1 129/2/1
f 133/2/1 132/2/1 131/2/1
f 134/2/1 132/2/1 133/2/1
f 135/3/1 134/3/1 133/3/1
f 136/2/1 132/2/1 134/2/1
f 136/3/1 134/3/1 135/3/1
f 137/2/1 132/2/1 136/2/1
f 140/2/1 139/2/1 138/2/1
f 141/2/1 139/2/1 140/2/1
f 142/2/1 139/2/1 141/2/1
f 143/2/2 144/2/2 145/2/2
f 145/2/2 144/2/2 146/2/2
f 146/2/2 144/2/2 147/2/2
f 148/2/2 149/2/2 150/2/2
f 150/2/2 149/2/2 151/2/2
f 150/3/2 151/3/2 152/3/2
f 151/2/2 149/2/2 153/2/2
f 152/3/2 151/3/2 153/3/2
f 153/2/2 149/2/2 154/2/2
f 155/2/2 156/2/2 158/2/2
f 156/2/2 157/2/2 158/2/2
f 158/2/2 157/2/2 159/2/2
f 160/2/2 161/2/2 162/2/2
f 162/2/2 161/2/2 163/2/2
f 163/2/2 161/2/2 164/2/2
f 165/2/2 166/2/2 167/2/2
f 167/2/2 166/2/2 168/2/2
f 169/3/2 170/3/2 171/3/2
f 171/3/2 170/3/2 172/3/2
f 173/2/2 174/2/2 175/2/2
f 175/2/2 174/2/2 176/2/2
f 173/2/2 175/2/2 177/2/2
f 177/2/2 175/2/2 178/2/2
f 177/3/2 178/3/2 179/3/2
f 178/2/2 175/2/2 180/2/2
f 179/3/2 178/3/2 180/3/2
f 180/2/2 175/2/2 181/2/2
f 182/2/2 183/2/2 185/2/2
f 183/2/2 184/2/2 185/2/2
f 185/2/2 184/2/2 186/2/2
f 187/2/2 188/2/2 190/2/2
f 188/2/2 189/2/2 190/2/2
f 190/2/2 189/2/2 191/2/2
f 191/2/2 189/2/2 192/2/2
f 193/2/2 194/2/2 195/2/2
f 195/2/2 194/2/2 196/2/2
f 195/3/2 196/3/2 197/3/2
f 196/2/2 194/2/2 198/2/2
f 197/3/2 196/3/2 198/3/2
f 198/2/2 194/2/2 199/2/2
f 200/2/2 201/2/2 202/2/2
f 202/2/2 201/2/2 203/2/2
f 203/2/2 201/2/2 204/2/2
f 206/1/2 207/1/2 209/1/2
f 205/1/2 206/1/2 209/1/2
f 207/3/2 208/3/2 210/3/2
f 209/1/2 207/1/2 210/1/2
f 210/3/2 208/3/2 211/3/2
f 213/2/2 214/2/2 215/2/2
f 215/2/2 214/2/2 216/2/2
f 212/3/2 213/3/2 217/3/2
f 213/2/2 215/2/2 218/2/2
f 217/3/2 213/3/2 218/3/2
f 218/2/2 215/2/2 219/2/2
f 218/2/2 219/2/2 220/2/2
f 220/2/2 221/2/2 223/2/2
f 221/2/2 222/2/2 223/2/2
f 218/2/2 220/2/2 223/2/2
f 217/1/2 218/1/2 223/1/2
f 223/2/2 222/2/2 224/2/2
f 217/1/2 223/1/2 225/1/2
f 223/3/2 224/3/2 226/3/2
f 225/1/2 223/1/2 226/1/2
f 226/3/2 224/3/2 227/3/2
f 228/3/2 229/3/2 232/3/2
f 230/1/2 231/1/2 233/1/2
f 232/3/2 229/3/2 233/3/2
f 229/1/2 230/1/2 233/1/2
f 233/1/2 231/1/2 234/1/2
f 235/2/2 236/2/2 239/2/2
f 236/3/2 237/3/2 240/3/2
f 238/2/2 239/2/2 240/2/2
f 239/2/2 236/2/2 240/2/2
f 240/3/2 237/3/2 241/3/2
f 238/2/2 240/2/2 244/2/2
f 242/3/2 243/3/2 245/3/2
f 243/2/2 244/2/2 245/2/2
f 244/2/2 240/2/2 246/2/2
f 245/2/2 244/2/2 246/2/2
f 240/1/2 241/1/2 246/1/2
f 242/3/2 245/3/2 247/3/2
f 245/3/2 246/3/2 247/3/2
f 246/1/2 241/1/2 248/1/2
f 247/3/2 246/3/2 248/3/2
f 248/1/2 241/1/2 249/1/2
f 250/2/2 251/2/2 252/2/2
f 252/2/2 251/2/2 253/2/2
f 253/2/2 251/2/2 254/2/2
f 255/2/2 256/2/2 257/2/2
f 257/2/2 256/2/2 258/2/2
f 258/2/2 256/2/2 259/2/2
f 260/1/2 261/1/2 264/1/2
f 261/1/2 262/1/2 264/1/2
f 262/3/2 263/3/2 265/3/2
f 264/1/2 262/1/2 265/1/2
f 265/3/2 263/3/2 266/3/2
f 267/3/2 268/3/2 270/3/2
f 268/2/2 269/2/2 271/2/2
f 270/3/2 268/3/2 271/3/2
f 270/1/2 271/1/2 272/1/2
f 271/2/2 269/2/2 272/2/2
f 272/2/2 269/2/2 273/2/2
f 270/1/2 272/1/2 274/1/2
f 272/3/2 273/3/2 275/3/2
f 274/1/2 272/1/2 275/1/2
f 275/3/2 273/3/2 276/3/2
f 280/3/3 278/3/3 277/3/3
f 281/3/3 278/3/3 280/3/3
f 283/2/3 280/2/3 279/2/3
f 283/2/3 281/2/3 280/2/3
f 284/2/3 281/2/3 283/2/3
f 285/2/3 281/2/3 284/2/3
f 289/1/3 282/1/3 281/1/3
f 289/2/3 281/2/3 285/2/3
f 290/1/3 282/1/3 289/1/3
f 291/2/3 287/2/3 286/2/3
f 292/1/3 288/1/3 287/1/3
f 292/2/3 287/2/3 291/2/3
f 293/2/3 283/2/3 279/2/3
f 293/3/3 284/3/3 283/3/3
f 294/3/3 284/3/3 293/3/3
f 295/1/3 288/1/3 292/1/3
f 296/1/3 288/1/3 295/1/3
f 297/2/3 294/2/3 293/2/3
f 297/2/3 293/2/3 279/2/3
f 297/2/3 295/2/3 294/2/3
f 298/2/3 295/2/3 297/2/3
f 299/3/3 290/3/3 289/3/3
f 299/2/3 289/2/3 285/2/3
f 300/3/3 290/3/3 299/3/3
f 301/2/3 295/2/3 298/2/3
f 302/3/3 296/3/3 295/3/3
f 302/2/3 295/2/3 301/2/3
f 303/3/3 296/3/3 302/3/3
f 304/2/3 299/2/3 285/2/3
f 305/2/3 299/2/3 304/2/3
f 312/2/3 307/2/3 306/2/3
f 313/2/3 310/2/3 309/2/3
f 315/2/3 312/2/3 311/2/3
f 315/2/3 307/2/3 312/2/3
f 316/2/3 307/2/3 315/2/3
f 317/1/3 308/1/3 307/1/3
f 317/2/3 307/2/3 316/2/3
f 318/1/3 308/1/3 317/1/3
f 319/2/3 313/2/3 309/2/3
f 319/1/3 314/1/3 313/1/3
f 320/1/3 314/1/3 319/1/3
f 322/3/3 318/3/3 317/3/3
f 323/2/3 322/2/3 321/2/3
f 324/3/3 318/3/3 322/3/3
f 324/2/3 322/2/3 323/2/3
f 325/3/3 318/3/3 324/3/3
f 326/3/3 316/3/3 315/3/3
f 326/2/3 315/2/3 311/2/3
f 327/3/3 316/3/3 326/3/3
f 328/2/3 319/2/3 309/2/3
f 329/3/3 320/3/3 319/3/3
f 329/2/3 319/2/3 328/2/3
f 330/3/3 320/3/3 329/3/3
f 331/2/3 328/2/3 327/2/3
f 331/2/3 327/2/3 326/2/3
f 331/2/3 326/2/3 311/2/3
f 331/2/3 329/2/3 328/2/3
f 332/2/3 329/2/3 331/2/3
f 333/2/3 329/2/3 332/2/3
f 334/1/3 330/1/3 329/1/3
f 334/2/3 329/2/3 333/2/3
f 335/1/3 330/1/3 334/1/3
f 336/3/3 333/3/3 332/3/3
f 337/1/3 334/1/3 333/1/3
f 337/3/3 333/3/3 336/3/3
f 338/1/3 334/1/3 337/1/3
f 342/3/3 340/3/3 339/3/3
f 343/1/3 341/1/3 340/1/3
f 343/3/3 340/3/3 342/3/3
f 344/1/3 341/1/3 343/1/3
f 346/2/3 343/2/3 342/2/3
f 346/1/3 345/1/3 344/1/3
f 346/2/3 344/2/3 343/2/3
f 347/1/3 345/1/3 346/1/3
f 348/2/3 346/2/3 342/2/3
f 349/3/3 347/3/3 346/3/3
f 349/2/3 346/2/3 348/2/3
f 350/3/3 347/3/3 349/3/3
f 353/2/3 352/2/3 351/2/3
f 354/2/3 352/2/3 353/2/3
f 355/2/3 353/2/3 351/2/3
f 357/2/3 355/2/3 351/2/3
f 357/2/3 356/2/3 355/2/3
f 358/2/3 356/2/3 357/2/3
f 360/2/3 352/2/3 354/2/3
f 361/2/3 352/2/3 360/2/3
f 362/2/3 360/2/3 359/2/3
f 362/2/3 361/2/3 360/2/3
f 363/2/3 361/2/3 362/2/3
f 364/2/3 361/2/3 363/2/3
f 367/2/3 366/2/3 365/2/3
f 368/2/3 366/2/3 367/2/3
f 369/2/3 367/2/3 365/2/3
f 370/2/3 364/2/3 363/2/3
f 371/2/3 369/2/3 365/2/3
f 371/2/3 370/2/3 369/2/3
f 372/2/3 364/2/3 370/2/3
f 372/2/3 370/2/3 371/2/3
f 376/2/3 374/2/3 373/2/3
f 377/3/3 375/3/3 374/3/3
f 377/2/3 374/2/3 376/2/3
f 378/3/3 375/3/3 377/3/3
f 379/3/3 377/3/3 376/3/3
f 380/3/3 377/3/3 379/3/3
f 383/2/3 382/2/3 381/2/3
f 384/2/3 382/2/3 383/2/3
f 385/2/3 383/2/3 381/2/3
f 386/2/3 383/2/3 385/2/3
f 387/2/3 385/2/3 381/2/3
f 389/2/3 388/2/3 387/2/3
f 391/2/3 389/2/3 387/2/3
f 391/2/3 390/2/3 389/2/3
f 392/2/3 390/2/3 391/2/3
f 393/2/3 387/2/3 381/2/3
f 393/2/3 391/2/3 387/2/3
f 394/2/3 391/2/3 393/2/3
f 395/2/3 393/2/3 381/2/3
f 397/2/3 396/2/3 395/2/3
f 399/2/3 397/2/3 395/2/3
f 399/2/3 398/2/3 397/2/3
f 399/2/3 395/2/3 381/2/3
f 400/2/3 398/2/3 399/2/3
f 404/3/3 402/3/3 401/3/3
f 405/3/3 402/3/3 404/3/3
f 407/2/3 404/2/3 403/2/3
f 407/2/3 405/2/3 404/2/3
f 408/1/3 406/1/3 405/1/3
f 408/2/3 405/2/3 407/2/3
f 410/1/3 406/1/3 408/1/3
f 411/1/3 406/1/3 410/1/3
f 412/2/3 410/2/3 409/2/3
f 413/3/3 411/3/3 410/3/3
f 413/2/3 410/2/3 412/2/3
f 414/3/3 411/3/3 413/3/3
f 415/2/3 407/2/3 403/2/3
f 417/2/3 415/2/3 403/2/3
f 417/2/3 416/2/3 415/2/3
f 418/2/3 416/2/3 417/2/3
f 422/2/3 420/2/3 419/2/3
f 423/3/3 421/3/3 420/3/3
f 423/2/3 420/2/3 422/2/3
f 424/2/3 417/2/3 403/2/3
f 425/3/3 421/3/3 423/3/3
f 426/3/3 421/3/3 425/3/3
f 427/2/3 424/2/3 403/2/3
f 427/2/3 425/2/3 424/2/3
f 428/2/3 425/2/3 427/2/3
f 429/2/3 425/2/3 428/2/3
f 430/1/3 426/1/3 425/1/3
f 430/2/3 425/2/3 429/2/3
f 431/1/3 426/1/3 430/1/3
f 432/3/3 429/3/3 428/3/3
f 433/1/3 430/1/3 429/1/3
f 433/3/3 429/3/3 432/3/3
f 434/1/3 430/1/3 433/1/3
f 435/2/4 436/2/4 438/2/4
f 436/3/4 437/3/4 438/3/4
f 438/3/4 437/3/4 439/3/4
f 435/2/4 438/2/4 441/2/4
f 438/2/4 439/2/4 441/2/4
f 441/2/4 439/2/4 442/2/4
f 442/2/4 439/2/4 443/2/4
f 439/3/4 440/3/4 444/3/4
f 443/2/4 439/2/4 444/2/4
f 444/3/4 440/3/4 445/3/4
f 443/2/4 444/2/4 446/2/4
f 446/2/4 444/2/4 447/2/4
f 443/2/4 446/2/4 448/2/4
f 448/2/4 449/2/4 450/2/4
f 448/2/4 450/2/4 452/2/4
f 443/2/4 448/2/4 452/2/4
f 452/2/4 450/2/4 453/2/4
f 450/3/4 451/3/4 454/3/4
f 453/2/4 450/2/4 454/2/4
f 454/3/4 451/3/4 455/3/4
f 452/2/4 453/2/4 456/2/4
f 453/3/4 454/3/4 457/3/4
f 456/2/4 453/2/4 457/2/4
f 457/3/4 454/3/4 458/3/4
f 459/2/4 460/2/4 463/2/4
f 460/3/4 461/3/4 464/3/4
f 463/2/4 460/2/4 464/2/4
f 464/3/4 461/3/4 465/3/4
f 462/2/4 463/2/4 467/2/4
f 463/2/4 464/2/4 467/2/4
f 464/2/4 465/2/4 467/2/4
f 465/3/4 466/3/4 468/3/4
f 467/2/4 465/2/4 468/2/4
f 468/3/4 466/3/4 469/3/4
f 468/2/4 469/2/4 471/2/4
f 470/2/4 471/2/4 472/2/4
f 471/2/4 469/2/4 473/2/4
f 472/2/4 471/2/4 473/2/4
f 462/2/4 467/2/4 474/2/4
f 462/2/4 474/2/4 477/2/4
f 474/3/4 475/3/4 477/3/4
f 475/1/4 476/1/4 478/1/4
f 477/3/4 475/3/4 478/3/4
f 478/1/4 476/1/4 479/1/4
f 477/2/4 478/2/4 481/2/4
f 479/1/4 480/1/4 481/1/4
f 478/2/4 479/2/4 481/2/4
f 481/1/4 480/1/4 482/1/4
f 477/2/4 481/2/4 483/2/4
f 481/3/4 482/3/4 483/3/4
f 483/3/4 482/3/4 484/3/4
f 477/2/4 483/2/4 485/2/4
f 483/1/4 484/1/4 485/1/4
f 485/1/4 484/1/4 486/1/4
f 477/2/4 485/2/4 487/2/4
f 485/3/4 486/3/4 487/3/4
f 487/3/4 486/3/4 488/3/4
f 477/2/4 487/2/4 489/2/4
f 487/1/4 488/1/4 489/1/4
f 489/1/4 488/1/4 490/1/4
f 477/2/4 489/2/4 491/2/4
f 489/3/4 490/3/4 491/3/4
f 491/3/4 490/3/4 492/3/4
f 462/2/4 477/2/4 493/2/4
f 477/2/4 491/2/4 493/2/4
f 493/2/4 491/2/4 494/2/4
f 491/1/4 492/1/4 495/1/4
f 494/2/4 491/2/4 495/2/4
f 495/1/4 492/1/4 496/1/4
f 493/3/4 494/3/4 497/3/4
f 462/2/4 493/2/4 497/2/4
f 494/1/4 495/1/4 498/1/4
f 497/3/4 494/3/4 498/3/4
f 498/1/4 495/1/4 499/1/4
f 500/2/4 501/2/4 502/2/4
f 502/2/4 501/2/4 503/2/4
f 462/2/4 497/2/4 504/2/4
f 503/2/4 501/2/4 505/2/4
f 505/2/4 501/2/4 506/2/4
f 462/2/4 504/2/4 507/2/4
f 504/2/4 505/2/4 507/2/4
f 507/2/4 505/2/4 508/2/4
f 508/2/4 505/2/4 509/2/4
f 505/3/4 506/3/4 510/3/4
f 509/2/4 505/2/4 510/2/4
f 510/3/4 506/3/4 511/3/4
f 508/2/4 509/2/4 512/2/4
f 509/3/4 510/3/4 513/3/4
f 512/2/4 509/2/4 513/2/4
f 513/3/4 510/3/4 514/3/4
f 517/2/5 516/2/5 515/2/5
f 518/2/5 516/2/5 517/2/5
f 523/3/5 520/3/5 519/3/5
f 524/3/5 520/3/5 523/3/5
f 525/3/5 522/3/5 521/3/5
f 526/3/5 522/3/5 525/3/5
f 527/2/5 524/2/5 523/2/5
f 528/2/5 524/2/5 527/2/5
f 529/2/5 526/2/5 525/2/5
f 530/2/5 526/2/5 529/2/5
f 535/2/5 532/2/5 531/2/5
f 536/2/5 532/2/5 535/2/5
f 537/2/5 534/2/5 533/2/5
f 538/2/5 534/2/5 537/2/5
f 543/1/5 540/1/5 539/1/5
f 544/1/5 540/1/5 543/1/5
f 545/3/5 542/3/5 541/3/5
f 546/3/5 542/3/5 545/3/5
f 547/2/5 544/2/5 543/2/5
f 548/2/5 544/2/5 547/2/5
f 549/2/5 546/2/5 545/2/5
f 550/2/5 546/2/5 549/2/5
f 553/2/5 552/2/5 551/2/5
f 554/2/5 552/2/5 553/2/5
f 559/2/5 556/2/5 555/2/5
f 560/2/5 556/2/5 559/2/5
f 561/2/5 558/2/5 557/2/5
f 562/2/5 558/2/5 561/2/5
f 571/3/5 564/3/5 563/3/5
f 572/3/5 564/3/5 571/3/5
f 573/3/5 570/3/5 569/3/5
f 574/3/5 570/3/5 573/3/5
f 575/2/5 572/2/5 571/2/5
f 576/2/5 572/2/5 575/2/5
f 577/2/5 566/2/5 565/2/5
f 578/2/5 566/2/5 577/2/5
f 579/2/5 568/2/5 567/2/5
f 580/2/5 568/2/5 579/2/5
f 581/2/5 574/2/5 573/2/5
f 582/2/5 574/2/5 581/2/5
f 591/3/5 584/3/5 583/3/5
f 592/2/5 585/2/5 584/2/5
f 592/3/5 584/3/5 591/3/5
f 593/3/5 590/3/5 589/3/5
f 593/2/5 589/2/5 588/2/5
f 594/3/5 590/3/5 593/3/5
f 595/2/5 592/2/5 591/2/5
f 596/2/5 585/2/5 592/2/5
f 596/2/5 592/2/5 595/2/5
f 597/2/5 587/2/5 586/2/5
f 598/2/5 587/2/5 597/2/5
f 599/2/5 593/2/5 588/2/5
f 599/2/5 594/2/5 593/2/5
f 600/2/5 594/2/5 599/2/5
f 605/2/5 602/2/5 601/2/5
f 606/2/5 602/2/5 605/2/5
f 607/2/5 604/2/5 603/2/5
f 608/2/5 604/2/5 607/2/5
f 613/1/5 610/1/5 609/1/5
f 614/1/5 610/1/5 613/1/5
f 615/3/5 612/3/5 611/3/5
f 616/3/5 612/3/5 615/3/5
f 617/2/5 614/2/5 613/2/5
f 618/2/5 614/2/5 617/2/5
f 619/2/5 616/2/5 615/2/5
f 620/2/5 616/2/5 619/2/5
f 625/2/5 622/2/5 621/2/5
f 626/2/5 622/2/5 625/2/5
f 627/2/5 624/2/5 623/2/5
f 628/2/5 624/2/5 627/2/5
f 629/2/6 630/2/6 633/2/6
f 631/2/6 632/2/6 634/2/6
f 629/2/6 633/2/6 635/2/6
f 635/2/6 633/2/6 636/2/6
f 634/2/6 632/2/6 637/2/6
f 637/2/6 632/2/6 638/2/6
f 641/1/6 642/1/6 643/1/6
f 643/1/6 642/1/6 644/1/6
f 639/3/6 640/3/6 645/3/6
f 643/3/6 644/3/6 646/3/6
f 639/3/6 645/3/6 647/3/6
f 647/3/6 645/3/6 648/3/6
f 646/3/6 644/3/6 649/3/6
f 649/3/6 644/3/6 650/3/6
f 651/1/6 652/1/6 657/1/6
f 652/3/6 653/3/6 658/3/6
f 657/1/6 652/1/6 658/1/6
f 658/3/6 653/3/6 659/3/6
f 654/3/6 655/3/6 660/3/6
f 655/1/6 656/1/6 661/1/6
f 660/3/6 655/3/6 661/3/6
f 651/1/6 657/1/6 662/1/6
f 658/2/6 659/2/6 663/2/6
f 662/1/6 657/1/6 663/1/6
f 657/2/6 658/2/6 663/2/6
f 661/1/6 656/1/6 664/1/6
f 660/2/6 661/2/6 664/2/6
f 664/1/6 656/1/6 665/1/6
f 662/3/6 663/3/6 666/3/6
f 663/2/6 659/2/6 667/2/6
f 666/3/6 663/3/6 667/3/6
f 667/2/6 659/2/6 668/2/6
f 660/2/6 664/2/6 669/2/6
f 664/3/6 665/3/6 670/3/6
f 669/2/6 664/2/6 670/2/6
f 670/3/6 665/3/6 671/3/6
f 672/3/6 673/3/6 676/3/6
f 676/3/6 673/3/6 677/3/6
f 674/3/6 675/3/6 678/3/6
f 678/3/6 675/3/6 679/3/6
f 676/2/6 677/2/6 680/2/6
f 680/2/6 677/2/6 681/2/6
f 678/2/6 679/2/6 682/2/6
f 682/2/6 679/2/6 683/2/6
f 684/1/6 685/1/6 690/1/6
f 685/3/6 686/3/6 691/3/6
f 690/1/6 685/1/6 691/1/6
f 691/3/6 686/3/6 692/3/6
f 687/1/6 688/1/6 693/1/6
f 688/3/6 689/3/6 694/3/6
f 693/1/6 688/1/6 694/1/6
f 694/3/6 689/3/6 695/3/6
f 691/2/6 692/2/6 698/2/6
f 690/2/6 691/2/6 698/2/6
f 698/2/6 692/2/6 699/2/6
f 693/2/6 694/2/6 700/2/6
f 694/2/6 695/2/6 700/2/6
f 700/2/6 695/2/6 701/2/6
f 696/1/6 697/1/6 704/1/6
f 704/1/6 697/1/6 705/1/6
f 704/3/6 705/3/6 706/3/6
f 702/3/6 703/3/6 707/3/6
f 704/3/6 706/3/6 708/3/6
f 704/3/6 708/3/6 709/3/6
f 709/3/6 708/3/6 710/3/6
f 707/3/6 703/3/6 711/3/6
f 711/3/6 703/3/6 712/3/6
f 709/1/6 710/1/6 713/1/6
f 713/1/6 710/1/6 714/1/6
f 711/1/6 712/1/6 715/1/6
f 715/1/6 712/1/6 716/1/6
f 717/1/6 718/1/6 722/1/6
f 718/3/6 719/3/6 723/3/6
f 722/1/6 718/1/6 723/1/6
f 723/3/6 719/3/6 724/3/6
f 720/3/6 721/3/6 725/3/6
f 725/3/6 721/3/6 726/3/6
f 717/1/6 722/1/6 727/1/6
f 723/2/6 724/2/6 728/2/6
f 727/1/6 722/1/6 728/1/6
f 722/2/6 723/2/6 728/2/6
f 726/3/6 721/3/6 729/3/6
f 725/2/6 726/2/6 729/2/6
f 729/3/6 721/3/6 730/3/6
f 727/3/6 728/3/6 731/3/6
f 728/2/6 724/2/6 732/2/6
f 731/3/6 728/3/6 732/3/6
f 731/1/6 732/1/6 733/1/6
f 732/2/6 724/2/6 733/2/6
f 733/2/6 724/2/6 734/2/6
f 725/2/6 729/2/6 739/2/6
f 739/2/6 729/2/6 740/2/6
f 729/1/6 730/1/6 741/1/6
f 740/2/6 729/2/6 741/2/6
f 731/1/6 733/1/6 742/1/6
f 733/3/6 734/3/6 743/3/6
f 742/1/6 733/1/6 743/1/6
f 734/3/6 735/3/6 743/3/6
f 735/1/6 736/1/6 744/1/6
f 743/3/6 735/3/6 744/3/6
f 736/3/6 737/3/6 745/3/6
f 744/1/6 736/1/6 745/1/6
f 737/1/6 738/1/6 746/1/6
f 745/3/6 737/3/6 746/3/6
f 739/3/6 740/3/6 747/3/6
f 746/1/6 738/1/6 747/1/6
f 738/3/6 739/3/6 747/3/6
f 740/1/6 741/1/6 748/1/6
f 747/3/6 740/3/6 748/3/6
f 741/1/6 730/1/6 749/1/6
f 748/1/6 741/1/6 749/1/6
f 750/2/6 751/2/6 752/2/6
f 752/2/6 751/2/6 753/2/6
f 760/1/6 761/1/6 762/1/6
f 762/1/6 761/1/6 763/1/6
f 754/3/6 755/3/6 764/3/6
f 762/3/6 763/3/6 765/3/6
f 758/2/6 759/2/6 766/2/6
f 758/2/6 766/2/6 767/2/6
f 754/3/6 764/3/6 768/3/6
f 758/2/6 767/2/6 769/2/6
f 754/3/6 768/3/6 770/3/6
f 754/3/6 770/3/6 771/3/6
f 771/3/6 770/3/6 772/3/6
f 756/2/6 757/2/6 773/2/6
f 773/2/6 757/2/6 774/2/6
f 758/2/6 769/2/6 775/2/6
f 775/2/6 769/2/6 776/2/6
f 765/3/6 763/3/6 777/3/6
f 777/3/6 763/3/6 778/3/6
f 779/1/6 780/1/6 786/1/6
f 780/3/6 781/3/6 787/3/6
f 786/1/6 780/1/6 787/1/6
f 787/3/6 781/3/6 788/3/6
f 782/1/6 783/1/6 789/1/6
f 783/3/6 784/3/6 789/3/6
f 784/1/6 785/1/6 790/1/6
f 789/3/6 784/3/6 790/3/6
f 790/1/6 785/1/6 791/1/6
f 779/1/6 786/1/6 792/1/6
f 787/2/6 788/2/6 793/2/6
f 792/1/6 786/1/6 793/1/6
f 786/2/6 787/2/6 793/2/6
f 791/1/6 785/1/6 794/1/6
f 790/2/6 791/2/6 794/2/6
f 789/2/6 790/2/6 794/2/6
f 794/1/6 785/1/6 795/1/6
f 782/1/6 789/1/6 796/1/6
f 789/2/6 794/2/6 797/2/6
f 796/1/6 789/1/6 797/1/6
f 796/3/6 797/3/6 798/3/6
f 797/2/6 794/2/6 799/2/6
f 798/3/6 797/3/6 799/3/6
f 792/3/6 793/3/6 800/3/6
f 793/2/6 788/2/6 801/2/6
f 800/3/6 793/3/6 801/3/6
f 798/1/6 799/1/6 802/1/6
f 799/2/6 794/2/6 803/2/6
f 802/1/6 799/1/6 803/1/6
f 800/1/6 801/1/6 804/1/6
f 801/2/6 788/2/6 805/2/6
f 804/1/6 801/1/6 805/1/6
f 804/3/6 805/3/6 806/3/6
f 805/2/6 788/2/6 806/2/6
f 788/3/6 781/3/6 807/3/6
f 806/2/6 788/2/6 807/2/6
f 803/2/6 794/2/6 808/2/6
f 802/3/6 803/3/6 808/3/6
f 794/3/6 795/3/6 809/3/6
f 808/2/6 794/2/6 809/2/6
f 804/3/6 806/3/6 810/3/6
f 806/3/6 807/3/6 810/3/6
f 807/3/6 781/3/6 811/3/6
f 810/3/6 807/3/6 811/3/6
f 802/3/6 808/3/6 812/3/6
f 808/3/6 809/3/6 812/3/6
f 809/3/6 795/3/6 813/3/6
f 812/3/6 809/3/6 813/3/6
