# MagicaVoxel @ Ephtracy

# group
o 

# material
mtllib model.mtl
usemtl palette

# normals
vn 0 0 1
vn 0 0 -1
vn 1 0 0
vn -1 0 0
vn 0 -1 0
vn 0 1 0

# texcoords
vt 0.576172 0.5
vt 0.587891 0.5

# verts
v 1 1.9 2
v 0.8 1.9 2
v -0.8 1.9 2
v -1 1.9 2
v 1 3.2 2
v 0.8 3.2 2
v -0.8 3.2 2
v -1 3.2 2
v 1 1.4 1.8
v 0.8 1.4 1.8
v -0.8 1.4 1.8
v -1 1.4 1.8
v 1 1.9 1.8
v 0.8 1.9 1.8
v -0.8 1.9 1.8
v -1 1.9 1.8
v 1 3.2 1.8
v 0.8 3.2 1.8
v -0.8 3.2 1.8
v -1 3.2 1.8
v 1 3.6 1.8
v 0.8 3.6 1.8
v -0.8 3.6 1.8
v -1 3.6 1.8
v 1 1.1 1.6
v 0.8 1.1 1.6
v -0.8 1.1 1.6
v -1 1.1 1.6
v 1 1.4 1.6
v 0.8 1.4 1.6
v -0.8 1.4 1.6
v -1 1.4 1.6
v 1 3.6 1.5
v 0.8 3.6 1.5
v -0.8 3.6 1.5
v -1 3.6 1.5
v 1 3.9 1.5
v 0.8 3.9 1.5
v -0.8 3.9 1.5
v -1 3.9 1.5
v 1 0.8 1.4
v 0.8 0.8 1.4
v -0.8 0.8 1.4
v -1 0.8 1.4
v 1 1.1 1.4
v 0.8 1.1 1.4
v -0.8 1.1 1.4
v -1 1.1 1.4
v 1 0.6 1.2
v 0.8 0.6 1.2
v -0.8 0.6 1.2
v -1 0.6 1.2
v 1 0.8 1.2
v 0.8 0.8 1.2
v -0.8 0.8 1.2
v -1 0.8 1.2
v 1 3.9 1.2
v 0.8 3.9 1.2
v -0.8 3.9 1.2
v -1 3.9 1.2
v 1 4.1 1.2
v 0.8 4.1 1.2
v -0.8 4.1 1.2
v -1 4.1 1.2
v 1 0.4 0.9
v 0.8 0.4 0.9
v -0.8 0.4 0.9
v -1 0.4 0.9
v 1 0.6 0.9
v 0.8 0.6 0.9
v -0.8 0.6 0.9
v -1 0.6 0.9
v 1 0.2 0.6
v 0.8 0.2 0.6
v -0.8 0.2 0.6
v -1 0.2 0.6
v 1 0.4 0.6
v 0.8 0.4 0.6
v -0.8 0.4 0.6
v -1 0.4 0.6
v 1 2.5 0.4
v 0.2 2.5 0.4
v 1 2.7 0.4
v 0.2 2.7 0.4
v 1 0 0.2
v 0.8 0 0.2
v -0.8 0 0.2
v -1 0 0.2
v 1 0.2 0.2
v 0.8 0.2 0.2
v -0.8 0.2 0.2
v -1 0.2 0.2
v 1 2.3 0.0999999
v 0.2 2.3 0.0999999
v 1 2.5 0.0999999
v 0.2 2.5 0.0999999
v 1 3.5 -0.1
v 0.8 3.5 -0.1
v -0.8 3.5 -0.1
v -1 3.5 -0.1
v 1 3.7 -0.1
v 0.8 3.7 -0.1
v -0.8 3.7 -0.1
v -1 3.7 -0.1
v 1 3.7 -0.3
v 0.8 3.7 -0.3
v -0.8 3.7 -0.3
v -1 3.7 -0.3
v 1 3.9 -0.3
v 0.8 3.9 -0.3
v -0.8 3.9 -0.3
v -1 3.9 -0.3
v 1 3.9 -0.6
v 0.8 3.9 -0.6
v -0.8 3.9 -0.6
v -1 3.9 -0.6
v 1 4.1 -0.6
v 0.8 4.1 -0.6
v -0.8 4.1 -0.6
v -1 4.1 -0.6
v 1 0.6 -0.7
v 0.2 0.6 -0.7
v 1 0.8 -0.7
v 0.2 0.8 -0.7
v 1 0.8 -0.9
v 0.2 0.8 -0.9
v 1 1.1 -0.9
v 0.2 1.1 -0.9
v 1 2.5 -0.9
v 0.2 2.5 -0.9
v 1 2.7 -0.9
v 0.2 2.7 -0.9
v 1 1.1 -1.1
v 0.2 1.1 -1.1
v 1 2.5 -1.1
v 0.2 2.5 -1.1
v 1 1.1 1.1
v 0.2 1.1 1.1
v 1 2.5 1.1
v 0.2 2.5 1.1
v 1 0.8 0.9
v 0.2 0.8 0.9
v 1 1.1 0.9
v 0.2 1.1 0.9
v 1 2.5 0.9
v 0.2 2.5 0.9
v 1 2.7 0.9
v 0.2 2.7 0.9
v 1 0.6 0.7
v 0.2 0.6 0.7
v 1 0.8 0.7
v 0.2 0.8 0.7
v 1 3.9 0.6
v 0.8 3.9 0.6
v -0.8 3.9 0.6
v -1 3.9 0.6
v 1 4.1 0.6
v 0.8 4.1 0.6
v -0.8 4.1 0.6
v -1 4.1 0.6
v 1 3.7 0.3
v 0.8 3.7 0.3
v -0.8 3.7 0.3
v -1 3.7 0.3
v 1 3.9 0.3
v 0.8 3.9 0.3
v -0.8 3.9 0.3
v -1 3.9 0.3
v 1 3.5 0.0999999
v 0.8 3.5 0.0999999
v -0.8 3.5 0.0999999
v -1 3.5 0.0999999
v 1 3.7 0.0999999
v 0.8 3.7 0.0999999
v -0.8 3.7 0.0999999
v -1 3.7 0.0999999
v 1 2.3 -0.1
v 0.2 2.3 -0.1
v 1 2.5 -0.1
v 0.2 2.5 -0.1
v 1 0 -0.2
v 0.8 0 -0.2
v -0.8 0 -0.2
v -1 0 -0.2
v 1 0.2 -0.2
v 0.8 0.2 -0.2
v -0.8 0.2 -0.2
v -1 0.2 -0.2
v 1 2.5 -0.4
v 0.2 2.5 -0.4
v 1 2.7 -0.4
v 0.2 2.7 -0.4
v 1 0.2 -0.6
v 0.8 0.2 -0.6
v -0.8 0.2 -0.6
v -1 0.2 -0.6
v 1 0.4 -0.6
v 0.8 0.4 -0.6
v -0.8 0.4 -0.6
v -1 0.4 -0.6
v 1 0.4 -0.9
v 0.8 0.4 -0.9
v -0.8 0.4 -0.9
v -1 0.4 -0.9
v 1 0.6 -0.9
v 0.8 0.6 -0.9
v -0.8 0.6 -0.9
v -1 0.6 -0.9
v 1 0.6 -1.2
v 0.8 0.6 -1.2
v -0.8 0.6 -1.2
v -1 0.6 -1.2
v 1 0.8 -1.2
v 0.8 0.8 -1.2
v -0.8 0.8 -1.2
v -1 0.8 -1.2
v 1 3.9 -1.2
v 0.8 3.9 -1.2
v -0.8 3.9 -1.2
v -1 3.9 -1.2
v 1 4.1 -1.2
v 0.8 4.1 -1.2
v -0.8 4.1 -1.2
v -1 4.1 -1.2
v 1 0.8 -1.4
v 0.8 0.8 -1.4
v -0.8 0.8 -1.4
v -1 0.8 -1.4
v 1 1.1 -1.4
v 0.8 1.1 -1.4
v -0.8 1.1 -1.4
v -1 1.1 -1.4
v 1 3.6 -1.5
v 0.8 3.6 -1.5
v -0.8 3.6 -1.5
v -1 3.6 -1.5
v 1 3.9 -1.5
v 0.8 3.9 -1.5
v -0.8 3.9 -1.5
v -1 3.9 -1.5
v 1 1.1 -1.6
v 0.8 1.1 -1.6
v -0.8 1.1 -1.6
v -1 1.1 -1.6
v 1 1.4 -1.6
v 0.8 1.4 -1.6
v -0.8 1.4 -1.6
v -1 1.4 -1.6
v 1 1.4 -1.8
v 0.8 1.4 -1.8
v -0.8 1.4 -1.8
v -1 1.4 -1.8
v 1 1.9 -1.8
v 0.8 1.9 -1.8
v -0.8 1.9 -1.8
v -1 1.9 -1.8
v 1 3.2 -1.8
v 0.8 3.2 -1.8
v -0.8 3.2 -1.8
v -1 3.2 -1.8
v 1 3.6 -1.8
v 0.8 3.6 -1.8
v -0.8 3.6 -1.8
v -1 3.6 -1.8
v 1 1.9 -2
v 0.8 1.9 -2
v -0.8 1.9 -2
v -1 1.9 -2
v 1 3.2 -2
v 0.8 3.2 -2
v -0.8 3.2 -2
v -1 3.2 -2
v 1 1.9 2
v 1 3.2 2
v 1 2 1.9
v 1 3.1 1.9
v 1 1.4 1.8
v 1 1.9 1.8
v 1 3.2 1.8
v 1 3.6 1.8
v 1 1.5 1.7
v 1 2 1.7
v 1 3.1 1.7
v 1 3.5 1.7
v 1 1.1 1.6
v 1 1.4 1.6
v 1 1.2 1.5
v 1 1.5 1.5
v 1 3.6 1.5
v 1 3.9 1.5
v 1 0.8 1.4
v 1 1.1 1.4
v 1 3.5 1.4
v 1 3.8 1.4
v 1 0.9 1.3
v 1 1.2 1.3
v 1 0.6 1.2
v 1 0.8 1.2
v 1 3.9 1.2
v 1 4.1 1.2
v 1 0.7 1.1
v 1 0.9 1.1
v 1 1.1 1.1
v 1 2.5 1.1
v 1 3.8 1.1
v 1 4 1.1
v 1 0.4 0.9
v 1 0.6 0.9
v 1 0.8 0.9
v 1 1.1 0.9
v 1 2.5 0.9
v 1 2.7 0.9
v 1 0.5 0.8
v 1 0.7 0.8
v 1 0.6 0.7
v 1 0.8 0.7
v 1 3.8 0.7
v 1 4 0.7
v 1 0.2 0.6
v 1 0.4 0.6
v 1 3.9 0.6
v 1 4.1 0.6
v 1 0.3 0.5
v 1 0.5 0.5
v 1 2.5 0.4
v 1 2.7 0.4
v 1 3.6 0.4
v 1 3.8 0.4
v 1 3.7 0.3
v 1 3.9 0.3
v 1 0 0.2
v 1 0.2 0.2
v 1 3.4 0.2
v 1 3.6 0.2
v 1 0.1 0.0999999
v 1 0.3 0.0999999
v 1 2.3 0.0999999
v 1 2.5 0.0999999
v 1 3.5 0.0999999
v 1 3.7 0.0999999
v 1 0.1 -0.1
v 1 0.3 -0.1
v 1 2.3 -0.1
v 1 2.5 -0.1
v 1 3.5 -0.1
v 1 3.7 -0.1
v 1 0 -0.2
v 1 0.2 -0.2
v 1 3.4 -0.2
v 1 3.6 -0.2
v 1 3.7 -0.3
v 1 3.9 -0.3
v 1 2.5 -0.4
v 1 2.7 -0.4
v 1 3.6 -0.4
v 1 3.8 -0.4
v 1 0.3 -0.5
v 1 0.5 -0.5
v 1 0.2 -0.6
v 1 0.4 -0.6
v 1 3.9 -0.6
v 1 4.1 -0.6
v 1 0.6 -0.7
v 1 0.8 -0.7
v 1 3.8 -0.7
v 1 4 -0.7
v 1 0.5 -0.8
v 1 0.7 -0.8
v 1 0.4 -0.9
v 1 0.6 -0.9
v 1 0.8 -0.9
v 1 1.1 -0.9
v 1 2.5 -0.9
v 1 2.7 -0.9
v 1 0.7 -1.1
v 1 0.9 -1.1
v 1 1.1 -1.1
v 1 2.5 -1.1
v 1 3.8 -1.1
v 1 4 -1.1
v 1 0.6 -1.2
v 1 0.8 -1.2
v 1 3.9 -1.2
v 1 4.1 -1.2
v 1 0.9 -1.3
v 1 1.2 -1.3
v 1 0.8 -1.4
v 1 1.1 -1.4
v 1 3.5 -1.4
v 1 3.8 -1.4
v 1 1.2 -1.5
v 1 1.5 -1.5
v 1 3.6 -1.5
v 1 3.9 -1.5
v 1 1.1 -1.6
v 1 1.4 -1.6
v 1 1.5 -1.7
v 1 2 -1.7
v 1 3.1 -1.7
v 1 3.5 -1.7
v 1 1.4 -1.8
v 1 1.9 -1.8
v 1 3.2 -1.8
v 1 3.6 -1.8
v 1 2 -1.9
v 1 3.1 -1.9
v 1 1.9 -2
v 1 3.2 -2
v 0.2 1.1 1.1
v 0.2 2.5 1.1
v 0.2 0.8 0.9
v 0.2 1.1 0.9
v 0.2 2.5 0.9
v 0.2 2.7 0.9
v 0.2 0.6 0.7
v 0.2 0.8 0.7
v 0.2 2.5 0.4
v 0.2 2.7 0.4
v 0.2 2.3 0.0999999
v 0.2 2.5 0.0999999
v 0.2 2.3 -0.1
v 0.2 2.5 -0.1
v 0.2 2.5 -0.4
v 0.2 2.7 -0.4
v 0.2 0.6 -0.7
v 0.2 0.8 -0.7
v 0.2 0.8 -0.9
v 0.2 1.1 -0.9
v 0.2 2.5 -0.9
v 0.2 2.7 -0.9
v 0.2 1.1 -1.1
v 0.2 2.5 -1.1
v -1 1.9 2
v -1 3.2 2
v -1 2 1.9
v -1 3.1 1.9
v -1 1.4 1.8
v -1 1.9 1.8
v -1 3.2 1.8
v -1 3.6 1.8
v -1 1.5 1.7
v -1 2 1.7
v -1 3.1 1.7
v -1 3.5 1.7
v -1 1.1 1.6
v -1 1.4 1.6
v -1 1.2 1.5
v -1 1.5 1.5
v -1 3.6 1.5
v -1 3.9 1.5
v -1 0.8 1.4
v -1 1.1 1.4
v -1 3.5 1.4
v -1 3.8 1.4
v -1 0.9 1.3
v -1 1.2 1.3
v -1 0.6 1.2
v -1 0.8 1.2
v -1 3.9 1.2
v -1 4.1 1.2
v -1 0.7 1.1
v -1 0.9 1.1
v -1 3.8 1.1
v -1 4 1.1
v -1 0.4 0.9
v -1 0.6 0.9
v -1 0.5 0.8
v -1 0.7 0.8
v -1 3.8 0.7
v -1 4 0.7
v -1 0.2 0.6
v -1 0.4 0.6
v -1 3.9 0.6
v -1 4.1 0.6
v -1 0.3 0.5
v -1 0.5 0.5
v -1 3.6 0.4
v -1 3.8 0.4
v -1 3.7 0.3
v -1 3.9 0.3
v -1 0 0.2
v -1 0.2 0.2
v -1 3.4 0.2
v -1 3.6 0.2
v -1 0.1 0.0999999
v -1 0.3 0.0999999
v -1 3.5 0.0999999
v -1 3.7 0.0999999
v -1 0.1 -0.1
v -1 0.3 -0.1
v -1 3.5 -0.1
v -1 3.7 -0.1
v -1 0 -0.2
v -1 0.2 -0.2
v -1 3.4 -0.2
v -1 3.6 -0.2
v -1 3.7 -0.3
v -1 3.9 -0.3
v -1 3.6 -0.4
v -1 3.8 -0.4
v -1 0.3 -0.5
v -1 0.5 -0.5
v -1 0.2 -0.6
v -1 0.4 -0.6
v -1 3.9 -0.6
v -1 4.1 -0.6
v -1 3.8 -0.7
v -1 4 -0.7
v -1 0.5 -0.8
v -1 0.7 -0.8
v -1 0.4 -0.9
v -1 0.6 -0.9
v -1 0.7 -1.1
v -1 0.9 -1.1
v -1 3.8 -1.1
v -1 4 -1.1
v -1 0.6 -1.2
v -1 0.8 -1.2
v -1 3.9 -1.2
v -1 4.1 -1.2
v -1 0.9 -1.3
v -1 1.2 -1.3
v -1 0.8 -1.4
v -1 1.1 -1.4
v -1 3.5 -1.4
v -1 3.8 -1.4
v -1 1.2 -1.5
v -1 1.5 -1.5
v -1 3.6 -1.5
v -1 3.9 -1.5
v -1 1.1 -1.6
v -1 1.4 -1.6
v -1 1.5 -1.7
v -1 2 -1.7
v -1 3.1 -1.7
v -1 3.5 -1.7
v -1 1.4 -1.8
v -1 1.9 -1.8
v -1 3.2 -1.8
v -1 3.6 -1.8
v -1 2 -1.9
v -1 3.1 -1.9
v -1 1.9 -2
v -1 3.2 -2
v 1 0 0.2
v 1 0 -0.2
v 0.8 0 0.2
v 0.8 0 -0.2
v -0.8 0 0.2
v -0.8 0 -0.2
v -1 0 0.2
v -1 0 -0.2
v 1 0.2 0.6
v 1 0.2 0.2
v 1 0.2 -0.2
v 1 0.2 -0.6
v 0.8 0.2 0.6
v 0.8 0.2 0.2
v 0.8 0.2 -0.2
v 0.8 0.2 -0.6
v -0.8 0.2 0.6
v -0.8 0.2 0.2
v -0.8 0.2 -0.2
v -0.8 0.2 -0.6
v -1 0.2 0.6
v -1 0.2 0.2
v -1 0.2 -0.2
v -1 0.2 -0.6
v 1 0.4 0.9
v 1 0.4 0.6
v 1 0.4 -0.6
v 1 0.4 -0.9
v 0.8 0.4 0.9
v 0.8 0.4 0.6
v 0.8 0.4 -0.6
v 0.8 0.4 -0.9
v -0.8 0.4 0.9
v -0.8 0.4 0.6
v -0.8 0.4 -0.6
v -0.8 0.4 -0.9
v -1 0.4 0.9
v -1 0.4 0.6
v -1 0.4 -0.6
v -1 0.4 -0.9
v 1 0.6 1.2
v 1 0.6 0.9
v 1 0.6 -0.9
v 1 0.6 -1.2
v 0.8 0.6 1.2
v 0.8 0.6 0.9
v 0.8 0.6 -0.9
v 0.8 0.6 -1.2
v -0.8 0.6 1.2
v -0.8 0.6 0.9
v -0.8 0.6 -0.9
v -0.8 0.6 -1.2
v -1 0.6 1.2
v -1 0.6 0.9
v -1 0.6 -0.9
v -1 0.6 -1.2
v 1 0.8 1.4
v 1 0.8 1.2
v 1 0.8 -1.2
v 1 0.8 -1.4
v 0.8 0.8 1.4
v 0.8 0.8 1.2
v 0.8 0.8 -1.2
v 0.8 0.8 -1.4
v -0.8 0.8 1.4
v -0.8 0.8 1.2
v -0.8 0.8 -1.2
v -0.8 0.8 -1.4
v -1 0.8 1.4
v -1 0.8 1.2
v -1 0.8 -1.2
v -1 0.8 -1.4
v 1 1.1 1.6
v 1 1.1 1.4
v 1 1.1 -1.4
v 1 1.1 -1.6
v 0.8 1.1 1.6
v 0.8 1.1 1.4
v 0.8 1.1 -1.4
v 0.8 1.1 -1.6
v -0.8 1.1 1.6
v -0.8 1.1 1.4
v -0.8 1.1 -1.4
v -0.8 1.1 -1.6
v -1 1.1 1.6
v -1 1.1 1.4
v -1 1.1 -1.4
v -1 1.1 -1.6
v 1 1.4 1.8
v 1 1.4 1.6
v 1 1.4 -1.6
v 1 1.4 -1.8
v 0.8 1.4 1.8
v 0.8 1.4 1.6
v 0.8 1.4 -1.6
v 0.8 1.4 -1.8
v -0.8 1.4 1.8
v -0.8 1.4 1.6
v -0.8 1.4 -1.6
v -0.8 1.4 -1.8
v -1 1.4 1.8
v -1 1.4 1.6
v -1 1.4 -1.6
v -1 1.4 -1.8
v 1 1.9 2
v 1 1.9 1.8
v 1 1.9 -1.8
v 1 1.9 -2
v 0.8 1.9 2
v 0.8 1.9 1.8
v 0.8 1.9 -1.8
v 0.8 1.9 -2
v -0.8 1.9 2
v -0.8 1.9 1.8
v -0.8 1.9 -1.8
v -0.8 1.9 -2
v -1 1.9 2
v -1 1.9 1.8
v -1 1.9 -1.8
v -1 1.9 -2
v 1 2.3 0.0999999
v 1 2.3 -0.1
v 0.2 2.3 0.0999999
v 0.2 2.3 -0.1
v 1 2.5 1.1
v 1 2.5 0.9
v 1 2.5 0.4
v 1 2.5 0.0999999
v 1 2.5 -0.1
v 1 2.5 -0.4
v 1 2.5 -0.9
v 1 2.5 -1.1
v 0.2 2.5 1.1
v 0.2 2.5 0.9
v 0.2 2.5 0.4
v 0.2 2.5 0.0999999
v 0.2 2.5 -0.1
v 0.2 2.5 -0.4
v 0.2 2.5 -0.9
v 0.2 2.5 -1.1
v 1 2.7 0.9
v 1 2.7 0.4
v 1 2.7 -0.4
v 1 2.7 -0.9
v 0.2 2.7 0.9
v 0.2 2.7 0.4
v 0.2 2.7 -0.4
v 0.2 2.7 -0.9
v 1 0.6 0.7
v 1 0.6 -0.7
v 0.2 0.6 0.7
v 0.2 0.6 -0.7
v 1 0.8 0.9
v 1 0.8 0.7
v 1 0.8 -0.7
v 1 0.8 -0.9
v 0.2 0.8 0.9
v 0.2 0.8 0.7
v 0.2 0.8 -0.7
v 0.2 0.8 -0.9
v 1 1.1 1.1
v 1 1.1 0.9
v 1 1.1 -0.9
v 1 1.1 -1.1
v 0.2 1.1 1.1
v 0.2 1.1 0.9
v 0.2 1.1 -0.9
v 0.2 1.1 -1.1
v 1 3.2 2
v 1 3.2 1.8
v 1 3.2 -1.8
v 1 3.2 -2
v 0.8 3.2 2
v 0.8 3.2 1.8
v 0.8 3.2 -1.8
v 0.8 3.2 -2
v -0.8 3.2 2
v -0.8 3.2 1.8
v -0.8 3.2 -1.8
v -0.8 3.2 -2
v -1 3.2 2
v -1 3.2 1.8
v -1 3.2 -1.8
v -1 3.2 -2
v 1 3.5 0.0999999
v 1 3.5 -0.1
v 0.8 3.5 0.0999999
v 0.8 3.5 -0.1
v -0.8 3.5 0.0999999
v -0.8 3.5 -0.1
v -1 3.5 0.0999999
v -1 3.5 -0.1
v 1 3.6 1.8
v 1 3.6 1.5
v 1 3.6 -1.5
v 1 3.6 -1.8
v 0.8 3.6 1.8
v 0.8 3.6 1.5
v 0.8 3.6 -1.5
v 0.8 3.6 -1.8
v -0.8 3.6 1.8
v -0.8 3.6 1.5
v -0.8 3.6 -1.5
v -0.8 3.6 -1.8
v -1 3.6 1.8
v -1 3.6 1.5
v -1 3.6 -1.5
v -1 3.6 -1.8
v 1 3.7 0.3
v 1 3.7 0.0999999
v 1 3.7 -0.1
v 1 3.7 -0.3
v 0.8 3.7 0.3
v 0.8 3.7 0.0999999
v 0.8 3.7 -0.1
v 0.8 3.7 -0.3
v -0.8 3.7 0.3
v -0.8 3.7 0.0999999
v -0.8 3.7 -0.1
v -0.8 3.7 -0.3
v -1 3.7 0.3
v -1 3.7 0.0999999
v -1 3.7 -0.1
v -1 3.7 -0.3
v 1 3.9 1.5
v 1 3.9 1.2
v 1 3.9 0.6
v 1 3.9 0.3
v 1 3.9 -0.3
v 1 3.9 -0.6
v 1 3.9 -1.2
v 1 3.9 -1.5
v 0.8 3.9 1.5
v 0.8 3.9 1.2
v 0.8 3.9 0.6
v 0.8 3.9 0.3
v 0.8 3.9 -0.3
v 0.8 3.9 -0.6
v 0.8 3.9 -1.2
v 0.8 3.9 -1.5
v -0.8 3.9 1.5
v -0.8 3.9 1.2
v -0.8 3.9 0.6
v -0.8 3.9 0.3
v -0.8 3.9 -0.3
v -0.8 3.9 -0.6
v -0.8 3.9 -1.2
v -0.8 3.9 -1.5
v -1 3.9 1.5
v -1 3.9 1.2
v -1 3.9 0.6
v -1 3.9 0.3
v -1 3.9 -0.3
v -1 3.9 -0.6
v -1 3.9 -1.2
v -1 3.9 -1.5
v 1 4.1 1.2
v 1 4.1 0.6
v 1 4.1 -0.6
v 1 4.1 -1.2
v 0.8 4.1 1.2
v 0.8 4.1 0.6
v 0.8 4.1 -0.6
v 0.8 4.1 -1.2
v -0.8 4.1 1.2
v -0.8 4.1 0.6
v -0.8 4.1 -0.6
v -0.8 4.1 -1.2
v -1 4.1 1.2
v -1 4.1 0.6
v -1 4.1 -0.6
v -1 4.1 -1.2

# faces
f 5/1/1 2/1/1 1/1/1
f 6/2/1 3/2/1 2/2/1
f 6/1/1 2/1/1 5/1/1
f 7/1/1 4/1/1 3/1/1
f 7/2/1 3/2/1 6/2/1
f 8/1/1 4/1/1 7/1/1
f 13/1/1 10/1/1 9/1/1
f 14/2/1 11/2/1 10/2/1
f 14/1/1 10/1/1 13/1/1
f 15/1/1 12/1/1 11/1/1
f 15/2/1 11/2/1 14/2/1
f 16/1/1 12/1/1 15/1/1
f 21/1/1 18/1/1 17/1/1
f 22/2/1 19/2/1 18/2/1
f 22/1/1 18/1/1 21/1/1
f 23/1/1 20/1/1 19/1/1
f 23/2/1 19/2/1 22/2/1
f 24/1/1 20/1/1 23/1/1
f 29/1/1 26/1/1 25/1/1
f 30/2/1 27/2/1 26/2/1
f 30/1/1 26/1/1 29/1/1
f 31/1/1 28/1/1 27/1/1
f 31/2/1 27/2/1 30/2/1
f 32/1/1 28/1/1 31/1/1
f 37/1/1 34/1/1 33/1/1
f 38/2/1 35/2/1 34/2/1
f 38/1/1 34/1/1 37/1/1
f 39/1/1 36/1/1 35/1/1
f 39/2/1 35/2/1 38/2/1
f 40/1/1 36/1/1 39/1/1
f 45/1/1 42/1/1 41/1/1
f 46/2/1 43/2/1 42/2/1
f 46/1/1 42/1/1 45/1/1
f 47/1/1 44/1/1 43/1/1
f 47/2/1 43/2/1 46/2/1
f 48/1/1 44/1/1 47/1/1
f 53/1/1 50/1/1 49/1/1
f 54/2/1 51/2/1 50/2/1
f 54/1/1 50/1/1 53/1/1
f 55/1/1 52/1/1 51/1/1
f 55/2/1 51/2/1 54/2/1
f 56/1/1 52/1/1 55/1/1
f 61/1/1 58/1/1 57/1/1
f 62/2/1 59/2/1 58/2/1
f 62/1/1 58/1/1 61/1/1
f 63/1/1 60/1/1 59/1/1
f 63/2/1 59/2/1 62/2/1
f 64/1/1 60/1/1 63/1/1
f 69/1/1 66/1/1 65/1/1
f 70/2/1 67/2/1 66/2/1
f 70/1/1 66/1/1 69/1/1
f 71/1/1 68/1/1 67/1/1
f 71/2/1 67/2/1 70/2/1
f 72/1/1 68/1/1 71/1/1
f 77/1/1 74/1/1 73/1/1
f 78/2/1 75/2/1 74/2/1
f 78/1/1 74/1/1 77/1/1
f 79/1/1 76/1/1 75/1/1
f 79/2/1 75/2/1 78/2/1
f 80/1/1 76/1/1 79/1/1
f 83/2/1 82/2/1 81/2/1
f 84/2/1 82/2/1 83/2/1
f 89/1/1 86/1/1 85/1/1
f 90/2/1 87/2/1 86/2/1
f 90/1/1 86/1/1 89/1/1
f 91/1/1 88/1/1 87/1/1
f 91/2/1 87/2/1 90/2/1
f 92/1/1 88/1/1 91/1/1
f 95/2/1 94/2/1 93/2/1
f 96/2/1 94/2/1 95/2/1
f 101/1/1 98/1/1 97/1/1
f 102/2/1 99/2/1 98/2/1
f 102/1/1 98/1/1 101/1/1
f 103/1/1 100/1/1 99/1/1
f 103/2/1 99/2/1 102/2/1
f 104/1/1 100/1/1 103/1/1
f 109/1/1 106/1/1 105/1/1
f 110/2/1 107/2/1 106/2/1
f 110/1/1 106/1/1 109/1/1
f 111/1/1 108/1/1 107/1/1
f 111/2/1 107/2/1 110/2/1
f 112/1/1 108/1/1 111/1/1
f 117/1/1 114/1/1 113/1/1
f 118/2/1 115/2/1 114/2/1
f 118/1/1 114/1/1 117/1/1
f 119/1/1 116/1/1 115/1/1
f 119/2/1 115/2/1 118/2/1
f 120/1/1 116/1/1 119/1/1
f 123/2/1 122/2/1 121/2/1
f 124/2/1 122/2/1 123/2/1
f 127/2/1 126/2/1 125/2/1
f 128/2/1 126/2/1 127/2/1
f 131/2/1 130/2/1 129/2/1
f 132/2/1 130/2/1 131/2/1
f 135/2/1 134/2/1 133/2/1
f 136/2/1 134/2/1 135/2/1
f 137/2/2 138/2/2 139/2/2
f 139/2/2 138/2/2 140/2/2
f 141/2/2 142/2/2 143/2/2
f 143/2/2 142/2/2 144/2/2
f 145/2/2 146/2/2 147/2/2
f 147/2/2 146/2/2 148/2/2
f 149/2/2 150/2/2 151/2/2
f 151/2/2 150/2/2 152/2/2
f 153/1/2 154/1/2 157/1/2
f 154/2/2 155/2/2 158/2/2
f 157/1/2 154/1/2 158/1/2
f 155/1/2 156/1/2 159/1/2
f 158/2/2 155/2/2 159/2/2
f 159/1/2 156/1/2 160/1/2
f 161/1/2 162/1/2 165/1/2
f 162/2/2 163/2/2 166/2/2
f 165/1/2 162/1/2 166/1/2
f 163/1/2 164/1/2 167/1/2
f 166/2/2 163/2/2 167/2/2
f 167/1/2 164/1/2 168/1/2
f 169/1/2 170/1/2 173/1/2
f 170/2/2 171/2/2 174/2/2
f 173/1/2 170/1/2 174/1/2
f 171/1/2 172/1/2 175/1/2
f 174/2/2 171/2/2 175/2/2
f 175/1/2 172/1/2 176/1/2
f 177/2/2 178/2/2 179/2/2
f 179/2/2 178/2/2 180/2/2
f 181/1/2 182/1/2 185/1/2
f 182/2/2 183/2/2 186/2/2
f 185/1/2 182/1/2 186/1/2
f 183/1/2 184/1/2 187/1/2
f 186/2/2 183/2/2 187/2/2
f 187/1/2 184/1/2 188/1/2
f 189/2/2 190/2/2 191/2/2
f 191/2/2 190/2/2 192/2/2
f 193/1/2 194/1/2 197/1/2
f 194/2/2 195/2/2 198/2/2
f 197/1/2 194/1/2 198/1/2
f 195/1/2 196/1/2 199/1/2
f 198/2/2 195/2/2 199/2/2
f 199/1/2 196/1/2 200/1/2
f 201/1/2 202/1/2 205/1/2
f 202/2/2 203/2/2 206/2/2
f 205/1/2 202/1/2 206/1/2
f 203/1/2 204/1/2 207/1/2
f 206/2/2 203/2/2 207/2/2
f 207/1/2 204/1/2 208/1/2
f 209/1/2 210/1/2 213/1/2
f 210/2/2 211/2/2 214/2/2
f 213/1/2 210/1/2 214/1/2
f 211/1/2 212/1/2 215/1/2
f 214/2/2 211/2/2 215/2/2
f 215/1/2 212/1/2 216/1/2
f 217/1/2 218/1/2 221/1/2
f 218/2/2 219/2/2 222/2/2
f 221/1/2 218/1/2 222/1/2
f 219/1/2 220/1/2 223/1/2
f 222/2/2 219/2/2 223/2/2
f 223/1/2 220/1/2 224/1/2
f 225/1/2 226/1/2 229/1/2
f 226/2/2 227/2/2 230/2/2
f 229/1/2 226/1/2 230/1/2
f 227/1/2 228/1/2 231/1/2
f 230/2/2 227/2/2 231/2/2
f 231/1/2 228/1/2 232/1/2
f 233/1/2 234/1/2 237/1/2
f 234/2/2 235/2/2 238/2/2
f 237/1/2 234/1/2 238/1/2
f 235/1/2 236/1/2 239/1/2
f 238/2/2 235/2/2 239/2/2
f 239/1/2 236/1/2 240/1/2
f 241/1/2 242/1/2 245/1/2
f 242/2/2 243/2/2 246/2/2
f 245/1/2 242/1/2 246/1/2
f 243/1/2 244/1/2 247/1/2
f 246/2/2 243/2/2 247/2/2
f 247/1/2 244/1/2 248/1/2
f 249/1/2 250/1/2 253/1/2
f 250/2/2 251/2/2 254/2/2
f 253/1/2 250/1/2 254/1/2
f 251/1/2 252/1/2 255/1/2
f 254/2/2 251/2/2 255/2/2
f 255/1/2 252/1/2 256/1/2
f 257/1/2 258/1/2 261/1/2
f 258/2/2 259/2/2 262/2/2
f 261/1/2 258/1/2 262/1/2
f 259/1/2 260/1/2 263/1/2
f 262/2/2 259/2/2 263/2/2
f 263/1/2 260/1/2 264/1/2
f 265/1/2 266/1/2 269/1/2
f 266/2/2 267/2/2 270/2/2
f 269/1/2 266/1/2 270/1/2
f 267/1/2 268/1/2 271/1/2
f 270/2/2 267/2/2 271/2/2
f 271/1/2 268/1/2 272/1/2
f 275/1/3 274/1/3 273/1/3
f 276/1/3 274/1/3 275/1/3
f 278/1/3 275/1/3 273/1/3
f 279/1/3 274/1/3 276/1/3
f 281/1/3 278/1/3 277/1/3
f 282/2/3 276/2/3 275/2/3
f 282/1/3 278/1/3 281/1/3
f 282/1/3 275/1/3 278/1/3
f 283/1/3 280/1/3 279/1/3
f 283/2/3 276/2/3 282/2/3
f 283/1/3 279/1/3 276/1/3
f 284/1/3 280/1/3 283/1/3
f 286/1/3 281/1/3 277/1/3
f 287/1/3 286/1/3 285/1/3
f 288/2/3 282/2/3 281/2/3
f 288/1/3 286/1/3 287/1/3
f 288/2/3 283/2/3 282/2/3
f 288/1/3 281/1/3 286/1/3
f 288/2/3 284/2/3 283/2/3
f 289/1/3 280/1/3 284/1/3
f 292/1/3 287/1/3 285/1/3
f 293/1/3 290/1/3 289/1/3
f 293/2/3 284/2/3 288/2/3
f 293/2/3 288/2/3 287/2/3
f 293/1/3 289/1/3 284/1/3
f 294/1/3 290/1/3 293/1/3
f 295/1/3 292/1/3 291/1/3
f 296/1/3 287/1/3 292/1/3
f 296/1/3 292/1/3 295/1/3
f 296/2/3 293/2/3 287/2/3
f 296/2/3 294/2/3 293/2/3
f 298/1/3 295/1/3 291/1/3
f 299/1/3 290/1/3 294/1/3
f 301/1/3 298/1/3 297/1/3
f 302/2/3 296/2/3 295/2/3
f 302/1/3 298/1/3 301/1/3
f 302/1/3 295/1/3 298/1/3
f 303/2/3 296/2/3 302/2/3
f 304/2/3 294/2/3 296/2/3
f 304/2/3 296/2/3 303/2/3
f 305/1/3 300/1/3 299/1/3
f 305/2/3 294/2/3 304/2/3
f 305/1/3 299/1/3 294/1/3
f 306/1/3 300/1/3 305/1/3
f 308/1/3 301/1/3 297/1/3
f 309/2/3 303/2/3 302/2/3
f 309/2/3 302/2/3 301/2/3
f 310/2/3 303/2/3 309/2/3
f 311/2/3 306/2/3 305/2/3
f 311/2/3 305/2/3 304/2/3
f 312/2/3 306/2/3 311/2/3
f 313/1/3 308/1/3 307/1/3
f 314/1/3 301/1/3 308/1/3
f 314/1/3 308/1/3 313/1/3
f 314/2/3 309/2/3 301/2/3
f 315/2/3 314/2/3 313/2/3
f 316/2/3 309/2/3 314/2/3
f 316/2/3 314/2/3 315/2/3
f 317/2/3 306/2/3 312/2/3
f 318/1/3 300/1/3 306/1/3
f 318/2/3 306/2/3 317/2/3
f 320/1/3 313/1/3 307/1/3
f 321/1/3 318/1/3 317/1/3
f 322/1/3 300/1/3 318/1/3
f 322/1/3 318/1/3 321/1/3
f 323/1/3 320/1/3 319/1/3
f 324/2/3 315/2/3 313/2/3
f 324/1/3 320/1/3 323/1/3
f 324/1/3 313/1/3 320/1/3
f 326/2/3 317/2/3 312/2/3
f 327/2/3 317/2/3 326/2/3
f 328/1/3 321/1/3 317/1/3
f 328/2/3 317/2/3 327/2/3
f 329/1/3 328/1/3 327/1/3
f 330/1/3 321/1/3 328/1/3
f 330/1/3 328/1/3 329/1/3
f 332/1/3 323/1/3 319/1/3
f 333/2/3 327/2/3 326/2/3
f 333/2/3 326/2/3 325/2/3
f 334/1/3 329/1/3 327/1/3
f 334/2/3 327/2/3 333/2/3
f 335/1/3 332/1/3 331/1/3
f 336/2/3 324/2/3 323/2/3
f 336/1/3 332/1/3 335/1/3
f 336/1/3 323/1/3 332/1/3
f 338/2/3 333/2/3 325/2/3
f 339/1/3 334/1/3 333/1/3
f 340/1/3 329/1/3 334/1/3
f 340/1/3 334/1/3 339/1/3
f 341/1/3 335/1/3 331/1/3
f 341/2/3 336/2/3 335/2/3
f 342/2/3 324/2/3 336/2/3
f 342/2/3 336/2/3 341/2/3
f 343/2/3 338/2/3 337/2/3
f 344/2/3 333/2/3 338/2/3
f 344/2/3 338/2/3 343/2/3
f 345/1/3 339/1/3 333/1/3
f 347/1/3 341/1/3 331/1/3
f 347/1/3 342/1/3 341/1/3
f 348/1/3 342/1/3 347/1/3
f 349/2/3 333/2/3 344/2/3
f 349/1/3 346/1/3 345/1/3
f 349/1/3 345/1/3 333/1/3
f 350/1/3 346/1/3 349/1/3
f 351/1/3 346/1/3 350/1/3
f 353/2/3 350/2/3 349/2/3
f 353/2/3 349/2/3 344/2/3
f 354/2/3 350/2/3 353/2/3
f 355/1/3 351/1/3 350/1/3
f 355/2/3 350/2/3 354/2/3
f 355/1/3 352/1/3 351/1/3
f 356/1/3 352/1/3 355/1/3
f 357/1/3 342/1/3 348/1/3
f 357/2/3 324/2/3 342/2/3
f 358/2/3 315/2/3 324/2/3
f 358/2/3 324/2/3 357/2/3
f 359/1/3 357/1/3 348/1/3
f 359/1/3 358/1/3 357/1/3
f 360/1/3 358/1/3 359/1/3
f 361/1/3 352/1/3 356/1/3
f 363/2/3 315/2/3 358/2/3
f 365/1/3 362/1/3 361/1/3
f 365/1/3 361/1/3 356/1/3
f 365/2/3 356/2/3 355/2/3
f 365/2/3 355/2/3 354/2/3
f 366/1/3 362/1/3 365/1/3
f 367/2/3 364/2/3 363/2/3
f 367/1/3 358/1/3 360/1/3
f 367/2/3 363/2/3 358/2/3
f 368/2/3 364/2/3 367/2/3
f 369/1/3 367/1/3 360/1/3
f 369/1/3 368/1/3 367/1/3
f 370/1/3 368/1/3 369/1/3
f 371/2/3 364/2/3 368/2/3
f 374/2/3 366/2/3 365/2/3
f 374/2/3 365/2/3 354/2/3
f 375/2/3 372/2/3 371/2/3
f 375/2/3 371/2/3 368/2/3
f 375/1/3 368/1/3 370/1/3
f 376/2/3 372/2/3 375/2/3
f 377/2/3 372/2/3 376/2/3
f 378/2/3 374/2/3 373/2/3
f 379/2/3 366/2/3 374/2/3
f 379/2/3 374/2/3 378/2/3
f 380/1/3 362/1/3 366/1/3
f 380/2/3 366/2/3 379/2/3
f 381/1/3 375/1/3 370/1/3
f 381/1/3 376/1/3 375/1/3
f 382/1/3 376/1/3 381/1/3
f 383/1/3 380/1/3 379/1/3
f 384/1/3 362/1/3 380/1/3
f 384/1/3 380/1/3 383/1/3
f 385/2/3 379/2/3 378/2/3
f 385/2/3 377/2/3 376/2/3
f 385/2/3 378/2/3 377/2/3
f 385/1/3 376/1/3 382/1/3
f 386/2/3 379/2/3 385/2/3
f 387/1/3 385/1/3 382/1/3
f 387/1/3 386/1/3 385/1/3
f 388/1/3 386/1/3 387/1/3
f 389/2/3 379/2/3 386/2/3
f 390/1/3 383/1/3 379/1/3
f 390/2/3 379/2/3 389/2/3
f 391/2/3 389/2/3 386/2/3
f 391/1/3 386/1/3 388/1/3
f 392/2/3 389/2/3 391/2/3
f 393/1/3 390/1/3 389/1/3
f 394/1/3 383/1/3 390/1/3
f 394/1/3 390/1/3 393/1/3
f 395/1/3 391/1/3 388/1/3
f 395/1/3 392/1/3 391/1/3
f 396/1/3 392/1/3 395/1/3
f 397/2/3 389/2/3 392/2/3
f 397/1/3 392/1/3 396/1/3
f 398/2/3 389/2/3 397/2/3
f 399/2/3 389/2/3 398/2/3
f 400/1/3 393/1/3 389/1/3
f 400/2/3 389/2/3 399/2/3
f 401/1/3 397/1/3 396/1/3
f 401/1/3 398/1/3 397/1/3
f 402/1/3 398/1/3 401/1/3
f 403/1/3 400/1/3 399/1/3
f 404/1/3 393/1/3 400/1/3
f 404/1/3 400/1/3 403/1/3
f 405/2/3 399/2/3 398/2/3
f 405/1/3 398/1/3 402/1/3
f 406/1/3 403/1/3 399/1/3
f 406/2/3 399/2/3 405/2/3
f 407/1/3 405/1/3 402/1/3
f 407/1/3 406/1/3 405/1/3
f 408/1/3 403/1/3 406/1/3
f 408/1/3 406/1/3 407/1/3
f 412/2/3 410/2/3 409/2/3
f 413/2/3 410/2/3 412/2/3
f 416/2/3 412/2/3 411/2/3
f 416/2/3 414/2/3 413/2/3
f 416/2/3 413/2/3 412/2/3
f 417/2/3 414/2/3 416/2/3
f 417/2/3 416/2/3 415/2/3
f 418/2/3 414/2/3 417/2/3
f 419/2/3 417/2/3 415/2/3
f 420/2/3 417/2/3 419/2/3
f 421/2/3 419/2/3 415/2/3
f 423/2/3 422/2/3 421/2/3
f 425/2/3 423/2/3 421/2/3
f 425/2/3 424/2/3 423/2/3
f 425/2/3 421/2/3 415/2/3
f 426/2/3 424/2/3 425/2/3
f 427/2/3 424/2/3 426/2/3
f 428/2/3 424/2/3 427/2/3
f 429/2/3 424/2/3 428/2/3
f 430/2/3 424/2/3 429/2/3
f 431/2/3 429/2/3 428/2/3
f 432/2/3 429/2/3 431/2/3
f 433/1/4 434/1/4 435/1/4
f 435/1/4 434/1/4 436/1/4
f 433/1/4 435/1/4 438/1/4
f 436/1/4 434/1/4 439/1/4
f 437/1/4 438/1/4 441/1/4
f 435/2/4 436/2/4 442/2/4
f 441/1/4 438/1/4 442/1/4
f 438/1/4 435/1/4 442/1/4
f 439/1/4 440/1/4 443/1/4
f 442/2/4 436/2/4 443/2/4
f 436/1/4 439/1/4 443/1/4
f 443/1/4 440/1/4 444/1/4
f 437/1/4 441/1/4 446/1/4
f 445/1/4 446/1/4 447/1/4
f 441/2/4 442/2/4 448/2/4
f 447/1/4 446/1/4 448/1/4
f 442/2/4 443/2/4 448/2/4
f 446/1/4 441/1/4 448/1/4
f 443/2/4 444/2/4 448/2/4
f 444/1/4 440/1/4 449/1/4
f 445/1/4 447/1/4 452/1/4
f 449/1/4 450/1/4 453/1/4
f 448/2/4 444/2/4 453/2/4
f 447/2/4 448/2/4 453/2/4
f 444/1/4 449/1/4 453/1/4
f 453/1/4 450/1/4 454/1/4
f 451/1/4 452/1/4 455/1/4
f 452/1/4 447/1/4 456/1/4
f 455/1/4 452/1/4 456/1/4
f 447/2/4 453/2/4 456/2/4
f 453/2/4 454/2/4 456/2/4
f 451/1/4 455/1/4 458/1/4
f 454/1/4 450/1/4 459/1/4
f 457/1/4 458/1/4 461/1/4
f 455/2/4 456/2/4 462/2/4
f 461/1/4 458/1/4 462/1/4
f 458/1/4 455/1/4 462/1/4
f 459/1/4 460/1/4 463/1/4
f 462/2/4 456/2/4 463/2/4
f 456/2/4 454/2/4 463/2/4
f 454/1/4 459/1/4 463/1/4
f 463/1/4 460/1/4 464/1/4
f 457/1/4 461/1/4 466/1/4
f 465/1/4 466/1/4 467/1/4
f 461/2/4 462/2/4 468/2/4
f 467/1/4 466/1/4 468/1/4
f 462/2/4 463/2/4 468/2/4
f 466/1/4 461/1/4 468/1/4
f 463/2/4 464/2/4 468/2/4
f 467/2/4 468/2/4 469/2/4
f 468/2/4 464/2/4 469/2/4
f 464/1/4 460/1/4 470/1/4
f 469/2/4 464/2/4 470/2/4
f 465/1/4 467/1/4 472/1/4
f 469/1/4 470/1/4 473/1/4
f 470/1/4 460/1/4 474/1/4
f 473/1/4 470/1/4 474/1/4
f 471/1/4 472/1/4 475/1/4
f 467/2/4 469/2/4 476/2/4
f 475/1/4 472/1/4 476/1/4
f 472/1/4 467/1/4 476/1/4
f 475/2/4 476/2/4 477/2/4
f 476/2/4 469/2/4 477/2/4
f 469/1/4 473/1/4 478/1/4
f 477/2/4 469/2/4 478/2/4
f 477/1/4 478/1/4 479/1/4
f 478/1/4 473/1/4 480/1/4
f 479/1/4 478/1/4 480/1/4
f 471/1/4 475/1/4 482/1/4
f 475/2/4 477/2/4 483/2/4
f 477/1/4 479/1/4 484/1/4
f 483/2/4 477/2/4 484/2/4
f 481/1/4 482/1/4 485/1/4
f 475/2/4 483/2/4 486/2/4
f 485/1/4 482/1/4 486/1/4
f 482/1/4 475/1/4 486/1/4
f 483/1/4 484/1/4 487/1/4
f 484/1/4 479/1/4 488/1/4
f 487/1/4 484/1/4 488/1/4
f 481/1/4 485/1/4 489/1/4
f 485/2/4 486/2/4 489/2/4
f 486/2/4 483/2/4 490/2/4
f 489/2/4 486/2/4 490/2/4
f 483/1/4 487/1/4 491/1/4
f 481/1/4 489/1/4 493/1/4
f 489/1/4 490/1/4 493/1/4
f 493/1/4 490/1/4 494/1/4
f 490/2/4 483/2/4 495/2/4
f 491/1/4 492/1/4 495/1/4
f 483/1/4 491/1/4 495/1/4
f 495/1/4 492/1/4 496/1/4
f 496/1/4 492/1/4 497/1/4
f 496/1/4 497/1/4 499/1/4
f 497/1/4 498/1/4 499/1/4
f 495/2/4 496/2/4 499/2/4
f 499/1/4 498/1/4 500/1/4
f 494/1/4 490/1/4 501/1/4
f 490/2/4 495/2/4 501/2/4
f 499/2/4 500/2/4 501/2/4
f 495/2/4 499/2/4 501/2/4
f 501/2/4 500/2/4 502/2/4
f 494/1/4 501/1/4 503/1/4
f 501/1/4 502/1/4 503/1/4
f 503/1/4 502/1/4 504/1/4
f 500/1/4 498/1/4 505/1/4
f 500/1/4 505/1/4 507/1/4
f 505/1/4 506/1/4 507/1/4
f 502/2/4 500/2/4 507/2/4
f 507/1/4 506/1/4 508/1/4
f 504/1/4 502/1/4 509/1/4
f 502/2/4 507/2/4 509/2/4
f 507/2/4 508/2/4 509/2/4
f 509/2/4 508/2/4 510/2/4
f 504/1/4 509/1/4 511/1/4
f 509/1/4 510/1/4 511/1/4
f 511/1/4 510/1/4 512/1/4
f 510/2/4 508/2/4 513/2/4
f 512/1/4 510/1/4 513/1/4
f 513/2/4 508/2/4 514/2/4
f 514/2/4 508/2/4 515/2/4
f 508/1/4 506/1/4 516/1/4
f 515/2/4 508/2/4 516/2/4
f 512/1/4 513/1/4 517/1/4
f 513/1/4 514/1/4 517/1/4
f 517/1/4 514/1/4 518/1/4
f 515/1/4 516/1/4 519/1/4
f 516/1/4 506/1/4 520/1/4
f 519/1/4 516/1/4 520/1/4
f 514/2/4 515/2/4 521/2/4
f 518/1/4 514/1/4 521/1/4
f 521/2/4 515/2/4 522/2/4
f 518/1/4 521/1/4 523/1/4
f 521/1/4 522/1/4 523/1/4
f 523/1/4 522/1/4 524/1/4
f 522/2/4 515/2/4 525/2/4
f 515/1/4 519/1/4 526/1/4
f 525/2/4 515/2/4 526/2/4
f 522/2/4 525/2/4 527/2/4
f 524/1/4 522/1/4 527/1/4
f 527/2/4 525/2/4 528/2/4
f 525/1/4 526/1/4 529/1/4
f 526/1/4 519/1/4 530/1/4
f 529/1/4 526/1/4 530/1/4
f 524/1/4 527/1/4 531/1/4
f 527/1/4 528/1/4 531/1/4
f 531/1/4 528/1/4 532/1/4
f 528/2/4 525/2/4 533/2/4
f 532/1/4 528/1/4 533/1/4
f 533/2/4 525/2/4 534/2/4
f 534/2/4 525/2/4 535/2/4
f 525/1/4 529/1/4 536/1/4
f 535/2/4 525/2/4 536/2/4
f 532/1/4 533/1/4 537/1/4
f 533/1/4 534/1/4 537/1/4
f 537/1/4 534/1/4 538/1/4
f 535/1/4 536/1/4 539/1/4
f 536/1/4 529/1/4 540/1/4
f 539/1/4 536/1/4 540/1/4
f 534/2/4 535/2/4 541/2/4
f 538/1/4 534/1/4 541/1/4
f 535/1/4 539/1/4 542/1/4
f 541/2/4 535/2/4 542/2/4
f 538/1/4 541/1/4 543/1/4
f 541/1/4 542/1/4 543/1/4
f 542/1/4 539/1/4 544/1/4
f 543/1/4 542/1/4 544/1/4
f 547/1/5 546/1/5 545/1/5
f 548/1/5 546/1/5 547/1/5
f 549/2/5 548/2/5 547/2/5
f 550/2/5 548/2/5 549/2/5
f 551/1/5 550/1/5 549/1/5
f 552/1/5 550/1/5 551/1/5
f 557/1/5 554/1/5 553/1/5
f 558/1/5 554/1/5 557/1/5
f 559/1/5 556/1/5 555/1/5
f 560/1/5 556/1/5 559/1/5
f 561/2/5 558/2/5 557/2/5
f 562/2/5 558/2/5 561/2/5
f 563/2/5 560/2/5 559/2/5
f 564/2/5 560/2/5 563/2/5
f 565/1/5 562/1/5 561/1/5
f 566/1/5 562/1/5 565/1/5
f 567/1/5 564/1/5 563/1/5
f 568/1/5 564/1/5 567/1/5
f 573/1/5 570/1/5 569/1/5
f 574/1/5 570/1/5 573/1/5
f 575/1/5 572/1/5 571/1/5
f 576/1/5 572/1/5 575/1/5
f 577/2/5 574/2/5 573/2/5
f 578/2/5 574/2/5 577/2/5
f 579/2/5 576/2/5 575/2/5
f 580/2/5 576/2/5 579/2/5
f 581/1/5 578/1/5 577/1/5
f 582/1/5 578/1/5 581/1/5
f 583/1/5 580/1/5 579/1/5
f 584/1/5 580/1/5 583/1/5
f 589/1/5 586/1/5 585/1/5
f 590/1/5 586/1/5 589/1/5
f 591/1/5 588/1/5 587/1/5
f 592/1/5 588/1/5 591/1/5
f 593/2/5 590/2/5 589/2/5
f 594/2/5 590/2/5 593/2/5
f 595/2/5 592/2/5 591/2/5
f 596/2/5 592/2/5 595/2/5
f 597/1/5 594/1/5 593/1/5
f 598/1/5 594/1/5 597/1/5
f 599/1/5 596/1/5 595/1/5
f 600/1/5 596/1/5 599/1/5
f 605/1/5 602/1/5 601/1/5
f 606/1/5 602/1/5 605/1/5
f 607/1/5 604/1/5 603/1/5
f 608/1/5 604/1/5 607/1/5
f 609/2/5 606/2/5 605/2/5
f 610/2/5 606/2/5 609/2/5
f 611/2/5 608/2/5 607/2/5
f 612/2/5 608/2/5 611/2/5
f 613/1/5 610/1/5 609/1/5
f 614/1/5 610/1/5 613/1/5
f 615/1/5 612/1/5 611/1/5
f 616/1/5 612/1/5 615/1/5
f 621/1/5 618/1/5 617/1/5
f 622/1/5 618/1/5 621/1/5
f 623/1/5 620/1/5 619/1/5
f 624/1/5 620/1/5 623/1/5
f 625/2/5 622/2/5 621/2/5
f 626/2/5 622/2/5 625/2/5
f 627/2/5 624/2/5 623/2/5
f 628/2/5 624/2/5 627/2/5
f 629/1/5 626/1/5 625/1/5
f 630/1/5 626/1/5 629/1/5
f 631/1/5 628/1/5 627/1/5
f 632/1/5 628/1/5 631/1/5
f 637/1/5 634/1/5 633/1/5
f 638/1/5 634/1/5 637/1/5
f 639/1/5 636/1/5 635/1/5
f 640/1/5 636/1/5 639/1/5
f 641/2/5 638/2/5 637/2/5
f 642/2/5 638/2/5 641/2/5
f 643/2/5 640/2/5 639/2/5
f 644/2/5 640/2/5 643/2/5
f 645/1/5 642/1/5 641/1/5
f 646/1/5 642/1/5 645/1/5
f 647/1/5 644/1/5 643/1/5
f 648/1/5 644/1/5 647/1/5
f 653/1/5 650/1/5 649/1/5
f 654/1/5 650/1/5 653/1/5
f 655/1/5 652/1/5 651/1/5
f 656/1/5 652/1/5 655/1/5
f 657/2/5 654/2/5 653/2/5
f 658/2/5 654/2/5 657/2/5
f 659/2/5 656/2/5 655/2/5
f 660/2/5 656/2/5 659/2/5
f 661/1/5 658/1/5 657/1/5
f 662/1/5 658/1/5 661/1/5
f 663/1/5 660/1/5 659/1/5
f 664/1/5 660/1/5 663/1/5
f 667/2/5 666/2/5 665/2/5
f 668/2/5 666/2/5 667/2/5
f 677/2/5 670/2/5 669/2/5
f 678/2/5 670/2/5 677/2/5
f 679/2/5 672/2/5 671/2/5
f 680/2/5 672/2/5 679/2/5
f 681/2/5 674/2/5 673/2/5
f 682/2/5 674/2/5 681/2/5
f 683/2/5 676/2/5 675/2/5
f 684/2/5 676/2/5 683/2/5
f 689/2/5 686/2/5 685/2/5
f 690/2/5 686/2/5 689/2/5
f 691/2/5 688/2/5 687/2/5
f 692/2/5 688/2/5 691/2/5
f 693/2/6 694/2/6 695/2/6
f 695/2/6 694/2/6 696/2/6
f 697/2/6 698/2/6 701/2/6
f 701/2/6 698/2/6 702/2/6
f 699/2/6 700/2/6 703/2/6
f 703/2/6 700/2/6 704/2/6
f 705/2/6 706/2/6 709/2/6
f 709/2/6 706/2/6 710/2/6
f 707/2/6 708/2/6 711/2/6
f 711/2/6 708/2/6 712/2/6
f 713/1/6 714/1/6 717/1/6
f 717/1/6 714/1/6 718/1/6
f 715/1/6 716/1/6 719/1/6
f 719/1/6 716/1/6 720/1/6
f 717/2/6 718/2/6 721/2/6
f 721/2/6 718/2/6 722/2/6
f 719/2/6 720/2/6 723/2/6
f 723/2/6 720/2/6 724/2/6
f 721/1/6 722/1/6 725/1/6
f 725/1/6 722/1/6 726/1/6
f 723/1/6 724/1/6 727/1/6
f 727/1/6 724/1/6 728/1/6
f 729/1/6 730/1/6 731/1/6
f 731/1/6 730/1/6 732/1/6
f 731/2/6 732/2/6 733/2/6
f 733/2/6 732/2/6 734/2/6
f 733/1/6 734/1/6 735/1/6
f 735/1/6 734/1/6 736/1/6
f 737/1/6 738/1/6 741/1/6
f 741/1/6 738/1/6 742/1/6
f 739/1/6 740/1/6 743/1/6
f 743/1/6 740/1/6 744/1/6
f 741/2/6 742/2/6 745/2/6
f 745/2/6 742/2/6 746/2/6
f 743/2/6 744/2/6 747/2/6
f 747/2/6 744/2/6 748/2/6
f 745/1/6 746/1/6 749/1/6
f 749/1/6 746/1/6 750/1/6
f 747/1/6 748/1/6 751/1/6
f 751/1/6 748/1/6 752/1/6
f 753/1/6 754/1/6 757/1/6
f 757/1/6 754/1/6 758/1/6
f 755/1/6 756/1/6 759/1/6
f 759/1/6 756/1/6 760/1/6
f 757/2/6 758/2/6 761/2/6
f 761/2/6 758/2/6 762/2/6
f 759/2/6 760/2/6 763/2/6
f 763/2/6 760/2/6 764/2/6
f 761/1/6 762/1/6 765/1/6
f 765/1/6 762/1/6 766/1/6
f 763/1/6 764/1/6 767/1/6
f 767/1/6 764/1/6 768/1/6
f 769/1/6 770/1/6 777/1/6
f 777/1/6 770/1/6 778/1/6
f 771/1/6 772/1/6 779/1/6
f 779/1/6 772/1/6 780/1/6
f 773/1/6 774/1/6 781/1/6
f 781/1/6 774/1/6 782/1/6
f 775/1/6 776/1/6 783/1/6
f 783/1/6 776/1/6 784/1/6
f 777/2/6 778/2/6 785/2/6
f 785/2/6 778/2/6 786/2/6
f 779/2/6 780/2/6 787/2/6
f 787/2/6 780/2/6 788/2/6
f 781/2/6 782/2/6 789/2/6
f 789/2/6 782/2/6 790/2/6
f 783/2/6 784/2/6 791/2/6
f 791/2/6 784/2/6 792/2/6
f 785/1/6 786/1/6 793/1/6
f 793/1/6 786/1/6 794/1/6
f 787/1/6 788/1/6 795/1/6
f 795/1/6 788/1/6 796/1/6
f 789/1/6 790/1/6 797/1/6
f 797/1/6 790/1/6 798/1/6
f 791/1/6 792/1/6 799/1/6
f 799/1/6 792/1/6 800/1/6
f 801/1/6 802/1/6 805/1/6
f 805/1/6 802/1/6 806/1/6
f 803/1/6 804/1/6 807/1/6
f 807/1/6 804/1/6 808/1/6
f 805/2/6 806/2/6 809/2/6
f 809/2/6 806/2/6 810/2/6
f 807/2/6 808/2/6 811/2/6
f 811/2/6 808/2/6 812/2/6
f 809/1/6 810/1/6 813/1/6
f 813/1/6 810/1/6 814/1/6
f 811/1/6 812/1/6 815/1/6
f 815/1/6 812/1/6 816/1/6
