# MagicaVoxel @ Ephtracy

# group
o 

# material
mtllib model-3.mtl
usemtl palette

# normals
vn 0 0 1
vn 0 0 -1
vn 1 0 0
vn -1 0 0
vn 0 -1 0
vn 0 1 0

# texcoords
vt 0.00195313 0.5
vt 0.0292969 0.5
vt 0.232422 0.5
vt 0.236328 0.5
vt 0.486328 0.5
vt 0.513672 0.5
vt 0.548828 0.5
vt 0.572266 0.5
vt 0.576172 0.5

# verts
v 0.5 0.6 1
v -0.5 0.6 1
v 0.5 2.1 1
v -0.5 2.1 1
v 0.5 1.8 -0.3
v -0.3 1.8 -0.3
v 0.5 1.9 -0.3
v -0.3 1.9 -0.3
v 0.5 1.9 -0.4
v -0.3 1.9 -0.4
v 0.5 2.1 -0.4
v -0.3 2.1 -0.4
v 0.5 1.9 0.4
v -0.3 1.9 0.4
v 0.5 2.1 0.4
v -0.3 2.1 0.4
v 0.5 1.8 0.3
v -0.3 1.8 0.3
v 0.5 1.9 0.3
v -0.3 1.9 0.3
v 0.5 0.6 -1
v -0.5 0.6 -1
v 0.5 2.1 -1
v -0.5 2.1 -1
v 0.5 0.6 1
v 0.5 2.1 1
v 0.5 1.1 0.6
v 0.5 1.3 0.6
v 0.5 1.8 0.6
v 0.5 2.1 0.6
v 0.5 0.7 0.5
v 0.5 1 0.5
v 0.5 1.1 0.5
v 0.5 1.3 0.5
v 0.5 1.4 0.5
v 0.5 1.7 0.5
v 0.5 1.8 0.5
v 0.5 2.1 0.5
v 0.5 0.6 0.4
v 0.5 0.7 0.4
v 0.5 0.9 0.4
v 0.5 1 0.4
v 0.5 1.1 0.4
v 0.5 1.3 0.4
v 0.5 1.6 0.4
v 0.5 1.7 0.4
v 0.5 1.8 0.4
v 0.5 1.9 0.4
v 0.5 2.1 0.4
v 0.5 0.8 0.3
v 0.5 0.9 0.3
v 0.5 1 0.3
v 0.5 1.3 0.3
v 0.5 1.4 0.3
v 0.5 1.8 0.3
v 0.5 1.9 0.3
v 0.5 1.3 0.2
v 0.5 1.4 0.2
v 0.5 0.7 0.1
v 0.5 0.8 0.1
v 0.5 0.9 0.1
v 0.5 0.8 0
v 0.5 0.9 0
v 0.5 1 0
v 0.5 1.1 0
v 0.5 1.2 0
v 0.5 0.6 -0.1
v 0.5 0.7 -0.1
v 0.5 0.8 -0.1
v 0.5 0.9 -0.1
v 0.5 1 -0.1
v 0.5 1.1 -0.1
v 0.5 1.2 -0.1
v 0.5 1.3 -0.1
v 0.5 0.9 -0.2
v 0.5 1 -0.2
v 0.5 1.1 -0.2
v 0.5 1.2 -0.2
v 0.5 1.3 -0.2
v 0.5 1.4 -0.2
v 0.5 0.9 -0.3
v 0.5 1 -0.3
v 0.5 1.1 -0.3
v 0.5 1.2 -0.3
v 0.5 1.3 -0.3
v 0.5 1.4 -0.3
v 0.5 1.8 -0.3
v 0.5 1.9 -0.3
v 0.5 0.6 -0.4
v 0.5 0.7 -0.4
v 0.5 1 -0.4
v 0.5 1.1 -0.4
v 0.5 1.2 -0.4
v 0.5 1.3 -0.4
v 0.5 1.4 -0.4
v 0.5 1.5 -0.4
v 0.5 1.6 -0.4
v 0.5 1.7 -0.4
v 0.5 1.8 -0.4
v 0.5 1.9 -0.4
v 0.5 2.1 -0.4
v 0.5 0.7 -0.5
v 0.5 0.8 -0.5
v 0.5 1.1 -0.5
v 0.5 1.2 -0.5
v 0.5 1.3 -0.5
v 0.5 1.4 -0.5
v 0.5 1.7 -0.5
v 0.5 1.8 -0.5
v 0.5 2.1 -0.5
v 0.5 0.6 -0.6
v 0.5 0.7 -0.6
v 0.5 0.8 -0.6
v 0.5 1.3 -0.6
v 0.5 1.4 -0.6
v 0.5 1.5 -0.6
v 0.5 1.8 -0.6
v 0.5 2.1 -0.6
v 0.5 0.6 -0.7
v 0.5 0.7 -0.7
v 0.5 0.6 -1
v 0.5 2.1 -1
v -0.3 1.9 0.4
v -0.3 2.1 0.4
v -0.3 1.8 0.3
v -0.3 1.9 0.3
v -0.3 1.8 -0.3
v -0.3 1.9 -0.3
v -0.3 1.9 -0.4
v -0.3 2.1 -0.4
v -0.5 0.6 1
v -0.5 2.1 1
v -0.5 1.9 0.6
v -0.5 2.1 0.6
v -0.5 2 0.5
v -0.5 2.1 0.5
v -0.5 2 -0.5
v -0.5 2.1 -0.5
v -0.5 1.9 -0.6
v -0.5 2.1 -0.6
v -0.5 0.6 -1
v -0.5 2.1 -1
v 0.5 0.6 1
v 0.5 0.6 0.4
v 0.5 0.6 -0.1
v 0.5 0.6 -0.4
v 0.5 0.6 -0.6
v 0.5 0.6 -0.7
v 0.5 0.6 -1
v 0.4 0.6 0.4
v 0.4 0.6 -0.1
v 0.4 0.6 -0.4
v 0.4 0.6 -0.6
v 0.4 0.6 -0.7
v -0.5 0.6 1
v -0.5 0.6 -1
v 0.5 1.8 0.3
v 0.5 1.8 -0.3
v -0.3 1.8 0.3
v -0.3 1.8 -0.3
v 0.5 1.9 0.4
v 0.5 1.9 0.3
v 0.5 1.9 -0.3
v 0.5 1.9 -0.4
v -0.3 1.9 0.4
v -0.3 1.9 0.3
v -0.3 1.9 -0.3
v -0.3 1.9 -0.4
v 0.5 2.1 1
v 0.5 2.1 0.6
v 0.5 2.1 0.5
v 0.5 2.1 0.4
v 0.5 2.1 -0.4
v 0.5 2.1 -0.5
v 0.5 2.1 -0.6
v 0.5 2.1 -1
v -0.3 2.1 0.4
v -0.3 2.1 -0.4
v -0.5 2.1 1
v -0.5 2.1 0.6
v -0.5 2.1 0.5
v -0.5 2.1 -0.5
v -0.5 2.1 -0.6
v -0.5 2.1 -1

# faces
f 3/3/1 2/3/1 1/3/1
f 4/3/1 2/3/1 3/3/1
f 7/3/1 6/3/1 5/3/1
f 8/3/1 6/3/1 7/3/1
f 11/3/1 10/3/1 9/3/1
f 12/3/1 10/3/1 11/3/1
f 13/3/2 14/3/2 15/3/2
f 15/3/2 14/3/2 16/3/2
f 17/3/2 18/3/2 19/3/2
f 19/3/2 18/3/2 20/3/2
f 21/3/2 22/3/2 23/3/2
f 23/3/2 22/3/2 24/3/2
f 27/3/3 26/3/3 25/3/3
f 28/3/3 26/3/3 27/3/3
f 29/3/3 26/3/3 28/3/3
f 30/3/3 26/3/3 29/3/3
f 31/3/3 27/3/3 25/3/3
f 32/3/3 27/3/3 31/3/3
f 33/2/3 28/2/3 27/2/3
f 33/3/3 27/3/3 32/3/3
f 34/3/3 29/3/3 28/3/3
f 34/2/3 28/2/3 33/2/3
f 35/3/3 29/3/3 34/3/3
f 36/3/3 29/3/3 35/3/3
f 37/4/3 30/4/3 29/4/3
f 37/3/3 29/3/3 36/3/3
f 38/4/3 30/4/3 37/4/3
f 39/3/3 31/3/3 25/3/3
f 40/1/3 32/1/3 31/1/3
f 40/3/3 31/3/3 39/3/3
f 41/1/3 32/1/3 40/1/3
f 42/2/3 33/2/3 32/2/3
f 42/1/3 32/1/3 41/1/3
f 43/3/3 34/3/3 33/3/3
f 43/2/3 33/2/3 42/2/3
f 44/2/3 35/2/3 34/2/3
f 44/3/3 34/3/3 43/3/3
f 45/3/3 36/3/3 35/3/3
f 46/4/3 37/4/3 36/4/3
f 46/3/3 36/3/3 45/3/3
f 47/3/3 38/3/3 37/3/3
f 47/4/3 37/4/3 46/4/3
f 48/3/3 38/3/3 47/3/3
f 49/3/3 38/3/3 48/3/3
f 50/1/3 41/1/3 40/1/3
f 50/1/3 40/1/3 39/1/3
f 51/2/3 42/2/3 41/2/3
f 51/1/3 41/1/3 50/1/3
f 52/1/3 43/1/3 42/1/3
f 52/2/3 42/2/3 51/2/3
f 52/1/3 44/1/3 43/1/3
f 53/2/3 35/2/3 44/2/3
f 53/1/3 44/1/3 52/1/3
f 54/3/3 45/3/3 35/3/3
f 54/2/3 35/2/3 53/2/3
f 55/3/3 48/3/3 47/3/3
f 55/3/3 47/3/3 46/3/3
f 56/3/3 48/3/3 55/3/3
f 57/1/3 52/1/3 51/1/3
f 57/1/3 53/1/3 52/1/3
f 57/3/3 54/3/3 53/3/3
f 58/3/3 45/3/3 54/3/3
f 58/3/3 54/3/3 57/3/3
f 59/1/3 50/1/3 39/1/3
f 60/2/3 51/2/3 50/2/3
f 60/1/3 50/1/3 59/1/3
f 61/1/3 57/1/3 51/1/3
f 61/2/3 51/2/3 60/2/3
f 61/1/3 58/1/3 57/1/3
f 62/2/3 60/2/3 59/2/3
f 62/7/3 61/7/3 60/7/3
f 63/1/3 58/1/3 61/1/3
f 63/7/3 61/7/3 62/7/3
f 64/1/3 58/1/3 63/1/3
f 65/1/3 58/1/3 64/1/3
f 66/1/3 58/1/3 65/1/3
f 67/1/3 59/1/3 39/1/3
f 68/2/3 62/2/3 59/2/3
f 68/1/3 59/1/3 67/1/3
f 69/1/3 63/1/3 62/1/3
f 69/2/3 62/2/3 68/2/3
f 70/6/3 64/6/3 63/6/3
f 70/1/3 63/1/3 69/1/3
f 71/1/3 65/1/3 64/1/3
f 71/6/3 64/6/3 70/6/3
f 72/9/3 66/9/3 65/9/3
f 72/1/3 65/1/3 71/1/3
f 73/1/3 58/1/3 66/1/3
f 73/9/3 66/9/3 72/9/3
f 74/1/3 58/1/3 73/1/3
f 75/1/3 69/1/3 68/1/3
f 75/1/3 70/1/3 69/1/3
f 75/1/3 71/1/3 70/1/3
f 76/5/3 72/5/3 71/5/3
f 76/1/3 71/1/3 75/1/3
f 77/1/3 73/1/3 72/1/3
f 77/5/3 72/5/3 76/5/3
f 78/9/3 74/9/3 73/9/3
f 78/1/3 73/1/3 77/1/3
f 79/1/3 58/1/3 74/1/3
f 79/9/3 74/9/3 78/9/3
f 80/3/3 45/3/3 58/3/3
f 80/1/3 58/1/3 79/1/3
f 81/1/3 75/1/3 68/1/3
f 81/8/3 76/8/3 75/8/3
f 82/1/3 77/1/3 76/1/3
f 82/8/3 76/8/3 81/8/3
f 83/9/3 79/9/3 78/9/3
f 83/1/3 77/1/3 82/1/3
f 83/9/3 78/9/3 77/9/3
f 84/9/3 79/9/3 83/9/3
f 85/3/3 80/3/3 79/3/3
f 85/9/3 79/9/3 84/9/3
f 86/3/3 45/3/3 80/3/3
f 86/3/3 80/3/3 85/3/3
f 87/3/3 55/3/3 46/3/3
f 89/2/3 68/2/3 67/2/3
f 90/1/3 82/1/3 81/1/3
f 90/2/3 68/2/3 89/2/3
f 90/1/3 81/1/3 68/1/3
f 91/8/3 84/8/3 83/8/3
f 91/1/3 82/1/3 90/1/3
f 91/8/3 83/8/3 82/8/3
f 92/8/3 84/8/3 91/8/3
f 93/9/3 85/9/3 84/9/3
f 93/8/3 84/8/3 92/8/3
f 93/9/3 86/9/3 85/9/3
f 94/9/3 86/9/3 93/9/3
f 95/3/3 45/3/3 86/3/3
f 95/9/3 86/9/3 94/9/3
f 96/3/3 45/3/3 95/3/3
f 97/4/3 46/4/3 45/4/3
f 97/3/3 45/3/3 96/3/3
f 98/3/3 88/3/3 87/3/3
f 98/4/3 46/4/3 97/4/3
f 98/3/3 87/3/3 46/3/3
f 99/3/3 88/3/3 98/3/3
f 100/3/3 88/3/3 99/3/3
f 102/1/3 92/1/3 91/1/3
f 102/3/3 90/3/3 89/3/3
f 102/1/3 91/1/3 90/1/3
f 103/1/3 92/1/3 102/1/3
f 104/3/3 93/3/3 92/3/3
f 104/1/3 92/1/3 103/1/3
f 105/8/3 94/8/3 93/8/3
f 105/3/3 93/3/3 104/3/3
f 106/9/3 96/9/3 95/9/3
f 106/8/3 94/8/3 105/8/3
f 106/9/3 95/9/3 94/9/3
f 107/9/3 96/9/3 106/9/3
f 108/3/3 97/3/3 96/3/3
f 108/4/3 99/4/3 98/4/3
f 108/3/3 98/3/3 97/3/3
f 109/3/3 100/3/3 99/3/3
f 109/4/3 99/4/3 108/4/3
f 109/3/3 101/3/3 100/3/3
f 110/3/3 101/3/3 109/3/3
f 111/3/3 102/3/3 89/3/3
f 112/2/3 103/2/3 102/2/3
f 112/3/3 102/3/3 111/3/3
f 113/3/3 104/3/3 103/3/3
f 113/2/3 103/2/3 112/2/3
f 113/3/3 105/3/3 104/3/3
f 113/3/3 106/3/3 105/3/3
f 114/8/3 107/8/3 106/8/3
f 114/3/3 106/3/3 113/3/3
f 115/9/3 96/9/3 107/9/3
f 115/8/3 107/8/3 114/8/3
f 116/3/3 108/3/3 96/3/3
f 116/9/3 96/9/3 115/9/3
f 116/3/3 109/3/3 108/3/3
f 117/4/3 110/4/3 109/4/3
f 117/3/3 109/3/3 116/3/3
f 118/4/3 110/4/3 117/4/3
f 119/2/3 112/2/3 111/2/3
f 120/3/3 115/3/3 114/3/3
f 120/2/3 112/2/3 119/2/3
f 120/3/3 116/3/3 115/3/3
f 120/3/3 118/3/3 117/3/3
f 120/3/3 117/3/3 116/3/3
f 120/3/3 114/3/3 113/3/3
f 120/3/3 113/3/3 112/3/3
f 121/3/3 120/3/3 119/3/3
f 122/3/3 118/3/3 120/3/3
f 122/3/3 120/3/3 121/3/3
f 126/3/3 124/3/3 123/3/3
f 127/3/3 126/3/3 125/3/3
f 128/3/3 124/3/3 126/3/3
f 128/3/3 126/3/3 127/3/3
f 129/3/3 124/3/3 128/3/3
f 130/3/3 124/3/3 129/3/3
f 131/3/4 132/3/4 133/3/4
f 133/3/4 132/3/4 134/3/4
f 133/4/4 134/4/4 135/4/4
f 135/4/4 134/4/4 136/4/4
f 133/4/4 135/4/4 137/4/4
f 135/3/4 136/3/4 137/3/4
f 137/3/4 136/3/4 138/3/4
f 131/3/4 133/3/4 139/3/4
f 133/4/4 137/4/4 139/4/4
f 137/4/4 138/4/4 139/4/4
f 139/4/4 138/4/4 140/4/4
f 131/3/4 139/3/4 141/3/4
f 139/3/4 140/3/4 141/3/4
f 141/3/4 140/3/4 142/3/4
f 150/3/5 144/3/5 143/3/5
f 150/1/5 145/1/5 144/1/5
f 151/2/5 146/2/5 145/2/5
f 151/1/5 145/1/5 150/1/5
f 152/3/5 147/3/5 146/3/5
f 152/2/5 146/2/5 151/2/5
f 153/2/5 148/2/5 147/2/5
f 153/3/5 147/3/5 152/3/5
f 154/3/5 149/3/5 148/3/5
f 154/2/5 148/2/5 153/2/5
f 155/3/5 153/3/5 152/3/5
f 155/3/5 152/3/5 151/3/5
f 155/3/5 154/3/5 153/3/5
f 155/3/5 151/3/5 150/3/5
f 155/3/5 150/3/5 143/3/5
f 156/3/5 149/3/5 154/3/5
f 156/3/5 154/3/5 155/3/5
f 157/3/6 158/3/6 159/3/6
f 159/3/6 158/3/6 160/3/6
f 161/3/6 162/3/6 165/3/6
f 165/3/6 162/3/6 166/3/6
f 163/3/6 164/3/6 167/3/6
f 167/3/6 164/3/6 168/3/6
f 171/3/6 172/3/6 177/3/6
f 173/3/6 174/3/6 178/3/6
f 169/3/6 170/3/6 179/3/6
f 170/4/6 171/4/6 180/4/6
f 179/3/6 170/3/6 180/3/6
f 177/3/6 178/3/6 181/3/6
f 180/4/6 171/4/6 181/4/6
f 171/3/6 177/3/6 181/3/6
f 178/3/6 174/3/6 182/3/6
f 181/3/6 178/3/6 182/3/6
f 174/4/6 175/4/6 182/4/6
f 175/3/6 176/3/6 183/3/6
f 182/4/6 175/4/6 183/4/6
f 183/3/6 176/3/6 184/3/6
