# MagicaVoxel @ Ephtracy

# group
o 

# material
mtllib model-0.mtl
usemtl palette

# normals
vn -1 0 0
vn 1 0 0
vn 0 0 1
vn 0 0 -1
vn 0 -1 0
vn 0 1 0

# texcoords
vt 0.00195313 0.5
vt 0.0292969 0.5
vt 0.775391 0.5

# verts
v 0.9 0 0.9
v 0.9 0 0.2
v 0.9 0 -0.2
v 0.9 0 -0.9
v 0.9 0.9 0.9
v 0.9 0.9 0.2
v 0.9 0.9 -0.2
v 0.9 0.9 -0.9
v 1 0 -0.2
v 1 0 -0.9
v 1 0.9 -0.2
v 1 0.9 -0.9
v 1.1 0 0.9
v 1.1 0 0.2
v 1.1 0.2 0.7
v 1.1 0.2 0.4
v 1.1 0.5 0.6
v 1.1 0.5 0.5
v 1.1 0.6 0.6
v 1.1 0.6 0.5
v 1.1 0.7 0.7
v 1.1 0.7 0.4
v 1.1 0.9 0.9
v 1.1 0.9 0.2
v 0.9 0 0.9
v 0.9 0.9 0.9
v 1.1 0 0.9
v 1.1 0.9 0.9
v 0.9 0 -0.2
v 0.9 0.9 -0.2
v 1 0 -0.2
v 1 0.9 -0.2
v 0.9 0 0.2
v 0.9 0.9 0.2
v 1.1 0 0.2
v 1.1 0.9 0.2
v 0.9 0 -0.9
v 0.9 0.9 -0.9
v 1 0 -0.9
v 1 0.9 -0.9
v 0.9 0 0.9
v 1.1 0 0.9
v 0.9 0 0.2
v 1.1 0 0.2
v 0.9 0 -0.2
v 1 0 -0.2
v 0.9 0 -0.9
v 1 0 -0.9
v 0.9 0.9 0.9
v 1.1 0.9 0.9
v 0.9 0.9 0.2
v 1.1 0.9 0.2
v 0.9 0.9 -0.2
v 1 0.9 -0.2
v 0.9 0.9 -0.9
v 1 0.9 -0.9

# faces
f 5/3/1 2/3/1 1/3/1
f 6/3/1 2/3/1 5/3/1
f 7/1/1 4/1/1 3/1/1
f 8/1/1 4/1/1 7/1/1
f 9/1/2 10/1/2 11/1/2
f 11/1/2 10/1/2 12/1/2
f 13/3/2 14/3/2 15/3/2
f 15/3/2 14/3/2 16/3/2
f 15/1/2 16/1/2 17/1/2
f 17/1/2 16/1/2 18/1/2
f 15/1/2 17/1/2 19/1/2
f 17/2/2 18/2/2 19/2/2
f 18/1/2 16/1/2 20/1/2
f 19/2/2 18/2/2 20/2/2
f 13/3/2 15/3/2 21/3/2
f 15/1/2 19/1/2 21/1/2
f 19/1/2 20/1/2 21/1/2
f 20/1/2 16/1/2 22/1/2
f 21/1/2 20/1/2 22/1/2
f 16/3/2 14/3/2 22/3/2
f 13/3/2 21/3/2 23/3/2
f 21/3/2 22/3/2 23/3/2
f 22/3/2 14/3/2 24/3/2
f 23/3/2 22/3/2 24/3/2
f 27/3/3 26/3/3 25/3/3
f 28/3/3 26/3/3 27/3/3
f 31/1/3 30/1/3 29/1/3
f 32/1/3 30/1/3 31/1/3
f 33/3/4 34/3/4 35/3/4
f 35/3/4 34/3/4 36/3/4
f 37/1/4 38/1/4 39/1/4
f 39/1/4 38/1/4 40/1/4
f 43/3/5 42/3/5 41/3/5
f 44/3/5 42/3/5 43/3/5
f 47/1/5 46/1/5 45/1/5
f 48/1/5 46/1/5 47/1/5
f 49/3/6 50/3/6 51/3/6
f 51/3/6 50/3/6 52/3/6
f 53/1/6 54/1/6 55/1/6
f 55/1/6 54/1/6 56/1/6
