# MagicaVoxel @ Ephtracy

# group
o 

# material
mtllib model-1.mtl
usemtl palette

# normals
vn -1 0 0
vn 1 0 0
vn 0 0 1
vn 0 0 -1
vn 0 -1 0
vn 0 1 0

# texcoords
vt 0.00195313 0.5
vt 0.0292969 0.5
vt 0.775391 0.5

# verts
v 1 0.1 -0.3
v 1 0.1 -0.8
v 1 0.2 -0.4
v 1 0.2 -0.7
v 1 0.5 -0.5
v 1 0.5 -0.6
v 1 0.6 -0.5
v 1 0.6 -0.6
v 1 0.7 -0.4
v 1 0.7 -0.7
v 1 0.8 -0.3
v 1 0.8 -0.8
v 1.1 0.1 -0.3
v 1.1 0.1 -0.8
v 1.1 0.2 -0.4
v 1.1 0.2 -0.7
v 1.1 0.5 -0.5
v 1.1 0.5 -0.6
v 1.1 0.6 -0.5
v 1.1 0.6 -0.6
v 1.1 0.7 -0.4
v 1.1 0.7 -0.7
v 1.1 0.8 -0.3
v 1.1 0.8 -0.8
v 1 0.1 -0.3
v 1 0.8 -0.3
v 1.1 0.1 -0.3
v 1.1 0.8 -0.3
v 1 0.1 -0.8
v 1 0.8 -0.8
v 1.1 0.1 -0.8
v 1.1 0.8 -0.8
v 1 0.1 -0.3
v 1.1 0.1 -0.3
v 1 0.1 -0.8
v 1.1 0.1 -0.8
v 1 0.8 -0.3
v 1.1 0.8 -0.3
v 1 0.8 -0.8
v 1.1 0.8 -0.8

# faces
f 3/3/1 2/3/1 1/3/1
f 4/3/1 2/3/1 3/3/1
f 5/1/1 4/1/1 3/1/1
f 6/1/1 4/1/1 5/1/1
f 7/1/1 5/1/1 3/1/1
f 7/2/1 6/2/1 5/2/1
f 8/1/1 4/1/1 6/1/1
f 8/2/1 6/2/1 7/2/1
f 9/3/1 3/3/1 1/3/1
f 9/1/1 7/1/1 3/1/1
f 9/1/1 8/1/1 7/1/1
f 10/1/1 4/1/1 8/1/1
f 10/1/1 8/1/1 9/1/1
f 10/3/1 2/3/1 4/3/1
f 11/3/1 9/3/1 1/3/1
f 11/3/1 10/3/1 9/3/1
f 12/3/1 2/3/1 10/3/1
f 12/3/1 10/3/1 11/3/1
f 13/3/2 14/3/2 15/3/2
f 15/3/2 14/3/2 16/3/2
f 15/1/2 16/1/2 17/1/2
f 17/1/2 16/1/2 18/1/2
f 15/1/2 17/1/2 19/1/2
f 17/2/2 18/2/2 19/2/2
f 18/1/2 16/1/2 20/1/2
f 19/2/2 18/2/2 20/2/2
f 13/3/2 15/3/2 21/3/2
f 15/1/2 19/1/2 21/1/2
f 19/1/2 20/1/2 21/1/2
f 20/1/2 16/1/2 22/1/2
f 21/1/2 20/1/2 22/1/2
f 16/3/2 14/3/2 22/3/2
f 13/3/2 21/3/2 23/3/2
f 21/3/2 22/3/2 23/3/2
f 22/3/2 14/3/2 24/3/2
f 23/3/2 22/3/2 24/3/2
f 27/3/3 26/3/3 25/3/3
f 28/3/3 26/3/3 27/3/3
f 29/3/4 30/3/4 31/3/4
f 31/3/4 30/3/4 32/3/4
f 35/3/5 34/3/5 33/3/5
f 36/3/5 34/3/5 35/3/5
f 37/3/6 38/3/6 39/3/6
f 39/3/6 38/3/6 40/3/6
