# MagicaVoxel @ Ephtracy

# group
o 

# material
mtllib model.mtl
usemtl palette

# normals
vn -1 0 0
vn 1 0 0
vn 0 0 1
vn 0 0 -1
vn 0 -1 0
vn 0 1 0

# texcoords
vt 0.0292969 0.5
vt 0.533203 0.5
vt 0.537109 0.5
vt 0.814453 0.5
vt 0.822266 0.5

# verts
v -0.1 0 0.4
v -0.1 0 0.2
v -0.1 0 -0.2
v -0.1 0 -0.4
v -0.1 0.1 0.5
v -0.1 0.1 0.4
v -0.1 0.1 0.2
v -0.1 0.1 -0.2
v -0.1 0.1 -0.4
v -0.1 0.1 -0.5
v -0.1 0.2 0.4
v -0.1 0.2 -0.4
v -0.1 0.3 0.5
v -0.1 0.3 0.4
v -0.1 0.3 -0.4
v -0.1 0.3 -0.5
v -0.1 0.6 0.7
v -0.1 0.6 0.4
v -0.1 0.6 -0.4
v -0.1 0.6 -0.7
v -0.1 1 0.6
v -0.1 1 0.5
v -0.1 1 -0.5
v -0.1 1 -0.6
v -0.1 1.1 0.6
v -0.1 1.1 0.5
v -0.1 1.1 -0.5
v -0.1 1.1 -0.6
v -0.1 1.2 0.7
v -0.1 1.2 0.4
v -0.1 1.2 -0.4
v -0.1 1.2 -0.7
v -0.1 1.3 1
v -0.1 1.3 0.8
v -0.1 1.3 0.4
v -0.1 1.3 0.2
v -0.1 1.4 0.8
v -0.1 1.4 0.4
v -0.1 1.5 1
v -0.1 1.5 0.9
v -0.1 1.5 0.3
v -0.1 1.5 0.2
v -0.1 1.5 -0.2
v -0.1 1.5 -0.4
v -0.1 1.5 -0.8
v -0.1 1.5 -1
v -0.1 1.6 0.9
v -0.1 1.6 0.3
v -0.1 1.6 -0.4
v -0.1 1.6 -0.8
v -0.1 1.7 -0.2
v -0.1 1.7 -0.3
v -0.1 1.7 -0.9
v -0.1 1.7 -1
v -0.1 1.8 -0.3
v -0.1 1.8 -0.9
v 0 0 0.4
v 0 0 0.2
v 0 0 -0.2
v 0 0 -0.4
v 0 0.1 0.5
v 0 0.1 0.4
v 0 0.1 0.2
v 0 0.1 -0.2
v 0 0.1 -0.4
v 0 0.1 -0.5
v 0 0.2 0.4
v 0 0.2 -0.4
v 0 0.3 0.5
v 0 0.3 0.4
v 0 0.3 -0.4
v 0 0.3 -0.5
v 0 0.6 0.7
v 0 0.6 0.4
v 0 0.6 -0.4
v 0 0.6 -0.7
v 0 1 0.6
v 0 1 0.5
v 0 1 -0.5
v 0 1 -0.6
v 0 1.1 0.6
v 0 1.1 0.5
v 0 1.1 -0.5
v 0 1.1 -0.6
v 0 1.2 0.7
v 0 1.2 0.4
v 0 1.2 -0.4
v 0 1.2 -0.7
v 0.1 1.3 1
v 0.1 1.3 0.8
v 0.1 1.3 0.4
v 0.1 1.3 0.2
v 0.1 1.4 0.8
v 0.1 1.4 0.4
v 0.1 1.5 1
v 0.1 1.5 0.9
v 0.1 1.5 0.3
v 0.1 1.5 0.2
v 0.1 1.5 -0.2
v 0.1 1.5 -0.4
v 0.1 1.5 -0.8
v 0.1 1.5 -1
v 0.1 1.6 0.9
v 0.1 1.6 0.3
v 0.1 1.6 -0.4
v 0.1 1.6 -0.8
v 0.1 1.7 -0.2
v 0.1 1.7 -0.3
v 0.1 1.7 -0.9
v 0.1 1.7 -1
v 0.1 1.8 -0.3
v 0.1 1.8 -0.9
v -0.1 1.3 1
v -0.1 1.5 1
v 0.1 1.3 1
v 0.1 1.5 1
v -0.1 1.5 0.9
v -0.1 1.6 0.9
v 0.1 1.5 0.9
v 0.1 1.6 0.9
v -0.1 0.6 0.7
v -0.1 1.2 0.7
v 0 0.6 0.7
v 0 1.2 0.7
v -0.1 0.1 0.5
v -0.1 0.3 0.5
v 0 0.1 0.5
v 0 0.3 0.5
v -0.1 0 0.4
v -0.1 0.1 0.4
v -0.1 1.3 0.4
v -0.1 1.4 0.4
v 0 0 0.4
v 0 0.1 0.4
v 0.1 1.3 0.4
v 0.1 1.4 0.4
v -0.1 1.5 -0.2
v -0.1 1.7 -0.2
v 0.1 1.5 -0.2
v 0.1 1.7 -0.2
v -0.1 1.7 -0.3
v -0.1 1.8 -0.3
v 0.1 1.7 -0.3
v 0.1 1.8 -0.3
v -0.1 0.6 -0.4
v -0.1 1.2 -0.4
v 0 0.6 -0.4
v 0 1.2 -0.4
v -0.1 1.5 -0.8
v -0.1 1.6 -0.8
v 0.1 1.5 -0.8
v 0.1 1.6 -0.8
v -0.1 1.3 0.8
v -0.1 1.4 0.8
v 0.1 1.3 0.8
v 0.1 1.4 0.8
v -0.1 0.6 0.4
v -0.1 1.2 0.4
v 0 0.6 0.4
v 0 1.2 0.4
v -0.1 1.5 0.3
v -0.1 1.6 0.3
v 0.1 1.5 0.3
v 0.1 1.6 0.3
v -0.1 1.3 0.2
v -0.1 1.5 0.2
v 0.1 1.3 0.2
v 0.1 1.5 0.2
v -0.1 0 -0.4
v -0.1 0.1 -0.4
v -0.1 1.5 -0.4
v -0.1 1.6 -0.4
v 0 0 -0.4
v 0 0.1 -0.4
v 0.1 1.5 -0.4
v 0.1 1.6 -0.4
v -0.1 0.1 -0.5
v -0.1 0.3 -0.5
v 0 0.1 -0.5
v 0 0.3 -0.5
v -0.1 0.6 -0.7
v -0.1 1.2 -0.7
v 0 0.6 -0.7
v 0 1.2 -0.7
v -0.1 1.7 -0.9
v -0.1 1.8 -0.9
v 0.1 1.7 -0.9
v 0.1 1.8 -0.9
v -0.1 1.5 -1
v -0.1 1.7 -1
v 0.1 1.5 -1
v 0.1 1.7 -1
v -0.1 0 0.4
v 0 0 0.4
v -0.1 0 0.2
v 0 0 0.2
v -0.1 0 -0.2
v 0 0 -0.2
v -0.1 0 -0.4
v 0 0 -0.4
v -0.1 0.1 0.5
v 0 0.1 0.5
v -0.1 0.1 0.4
v 0 0.1 0.4
v -0.1 0.1 -0.4
v 0 0.1 -0.4
v -0.1 0.1 -0.5
v 0 0.1 -0.5
v -0.1 0.6 0.7
v 0 0.6 0.7
v -0.1 0.6 0.4
v 0 0.6 0.4
v -0.1 0.6 -0.4
v 0 0.6 -0.4
v -0.1 0.6 -0.7
v 0 0.6 -0.7
v -0.1 1.3 1
v 0.1 1.3 1
v -0.1 1.3 0.8
v 0.1 1.3 0.8
v -0.1 1.3 0.4
v 0.1 1.3 0.4
v -0.1 1.3 0.2
v 0.1 1.3 0.2
v -0.1 1.4 0.8
v 0.1 1.4 0.8
v -0.1 1.4 0.4
v 0.1 1.4 0.4
v -0.1 1.5 -0.2
v 0.1 1.5 -0.2
v -0.1 1.5 -0.4
v 0.1 1.5 -0.4
v -0.1 1.5 -0.8
v 0.1 1.5 -0.8
v -0.1 1.5 -1
v 0.1 1.5 -1
v -0.1 1.6 -0.4
v 0.1 1.6 -0.4
v -0.1 1.6 -0.8
v 0.1 1.6 -0.8
v -0.1 0.3 0.5
v 0 0.3 0.5
v -0.1 0.3 0.4
v 0 0.3 0.4
v -0.1 0.3 -0.4
v 0 0.3 -0.4
v -0.1 0.3 -0.5
v 0 0.3 -0.5
v -0.1 1.2 0.7
v 0 1.2 0.7
v -0.1 1.2 0.4
v 0 1.2 0.4
v -0.1 1.2 -0.4
v 0 1.2 -0.4
v -0.1 1.2 -0.7
v 0 1.2 -0.7
v -0.1 1.5 1
v 0.1 1.5 1
v -0.1 1.5 0.9
v 0.1 1.5 0.9
v -0.1 1.5 0.3
v 0.1 1.5 0.3
v -0.1 1.5 0.2
v 0.1 1.5 0.2
v -0.1 1.6 0.9
v 0.1 1.6 0.9
v -0.1 1.6 0.3
v 0.1 1.6 0.3
v -0.1 1.7 -0.2
v 0.1 1.7 -0.2
v -0.1 1.7 -0.3
v 0.1 1.7 -0.3
v -0.1 1.7 -0.9
v 0.1 1.7 -0.9
v -0.1 1.7 -1
v 0.1 1.7 -1
v -0.1 1.8 -0.3
v 0.1 1.8 -0.3
v -0.1 1.8 -0.9
v 0.1 1.8 -0.9

# faces
f 6/2/1 2/2/1 1/2/1
f 7/3/1 3/3/1 2/3/1
f 7/2/1 2/2/1 6/2/1
f 8/2/1 4/2/1 3/2/1
f 8/3/1 3/3/1 7/3/1
f 9/2/1 4/2/1 8/2/1
f 11/2/1 7/2/1 6/2/1
f 11/2/1 10/2/1 9/2/1
f 11/2/1 9/2/1 8/2/1
f 11/2/1 8/2/1 7/2/1
f 11/2/1 6/2/1 5/2/1
f 12/2/1 10/2/1 11/2/1
f 13/2/1 11/2/1 5/2/1
f 14/1/1 12/1/1 11/1/1
f 14/2/1 11/2/1 13/2/1
f 15/2/1 10/2/1 12/2/1
f 15/1/1 12/1/1 14/1/1
f 16/2/1 10/2/1 15/2/1
f 21/4/1 18/4/1 17/4/1
f 22/4/1 18/4/1 21/4/1
f 23/4/1 20/4/1 19/4/1
f 24/4/1 20/4/1 23/4/1
f 25/4/1 21/4/1 17/4/1
f 25/1/1 22/1/1 21/1/1
f 26/4/1 18/4/1 22/4/1
f 26/1/1 22/1/1 25/1/1
f 27/1/1 24/1/1 23/1/1
f 27/4/1 23/4/1 19/4/1
f 28/4/1 20/4/1 24/4/1
f 28/1/1 24/1/1 27/1/1
f 29/4/1 25/4/1 17/4/1
f 29/4/1 26/4/1 25/4/1
f 30/4/1 18/4/1 26/4/1
f 30/4/1 26/4/1 29/4/1
f 31/4/1 27/4/1 19/4/1
f 31/4/1 28/4/1 27/4/1
f 32/4/1 20/4/1 28/4/1
f 32/4/1 28/4/1 31/4/1
f 37/5/1 34/5/1 33/5/1
f 38/5/1 36/5/1 35/5/1
f 39/5/1 37/5/1 33/5/1
f 39/5/1 38/5/1 37/5/1
f 40/5/1 38/5/1 39/5/1
f 41/5/1 36/5/1 38/5/1
f 41/5/1 38/5/1 40/5/1
f 42/5/1 36/5/1 41/5/1
f 47/5/1 41/5/1 40/5/1
f 48/5/1 41/5/1 47/5/1
f 49/5/1 44/5/1 43/5/1
f 50/5/1 46/5/1 45/5/1
f 51/5/1 50/5/1 49/5/1
f 51/5/1 49/5/1 43/5/1
f 52/5/1 50/5/1 51/5/1
f 53/5/1 46/5/1 50/5/1
f 53/5/1 50/5/1 52/5/1
f 54/5/1 46/5/1 53/5/1
f 55/5/1 53/5/1 52/5/1
f 56/5/1 53/5/1 55/5/1
f 57/2/2 58/2/2 62/2/2
f 58/3/2 59/3/2 63/3/2
f 62/2/2 58/2/2 63/2/2
f 59/2/2 60/2/2 64/2/2
f 63/3/2 59/3/2 64/3/2
f 64/2/2 60/2/2 65/2/2
f 62/2/2 63/2/2 67/2/2
f 65/2/2 66/2/2 67/2/2
f 64/2/2 65/2/2 67/2/2
f 63/2/2 64/2/2 67/2/2
f 61/2/2 62/2/2 67/2/2
f 67/2/2 66/2/2 68/2/2
f 61/2/2 67/2/2 69/2/2
f 67/1/2 68/1/2 70/1/2
f 69/2/2 67/2/2 70/2/2
f 68/2/2 66/2/2 71/2/2
f 70/1/2 68/1/2 71/1/2
f 71/2/2 66/2/2 72/2/2
f 73/4/2 74/4/2 77/4/2
f 77/4/2 74/4/2 78/4/2
f 75/4/2 76/4/2 79/4/2
f 79/4/2 76/4/2 80/4/2
f 73/4/2 77/4/2 81/4/2
f 77/1/2 78/1/2 81/1/2
f 78/4/2 74/4/2 82/4/2
f 81/1/2 78/1/2 82/1/2
f 79/1/2 80/1/2 83/1/2
f 75/4/2 79/4/2 83/4/2
f 80/4/2 76/4/2 84/4/2
f 83/1/2 80/1/2 84/1/2
f 73/4/2 81/4/2 85/4/2
f 81/4/2 82/4/2 85/4/2
f 82/4/2 74/4/2 86/4/2
f 85/4/2 82/4/2 86/4/2
f 75/4/2 83/4/2 87/4/2
f 83/4/2 84/4/2 87/4/2
f 84/4/2 76/4/2 88/4/2
f 87/4/2 84/4/2 88/4/2
f 89/5/2 90/5/2 93/5/2
f 91/5/2 92/5/2 94/5/2
f 89/5/2 93/5/2 95/5/2
f 93/5/2 94/5/2 95/5/2
f 95/5/2 94/5/2 96/5/2
f 94/5/2 92/5/2 97/5/2
f 96/5/2 94/5/2 97/5/2
f 97/5/2 92/5/2 98/5/2
f 96/5/2 97/5/2 103/5/2
f 103/5/2 97/5/2 104/5/2
f 99/5/2 100/5/2 105/5/2
f 101/5/2 102/5/2 106/5/2
f 99/5/2 105/5/2 107/5/2
f 105/5/2 106/5/2 107/5/2
f 107/5/2 106/5/2 108/5/2
f 106/5/2 102/5/2 109/5/2
f 108/5/2 106/5/2 109/5/2
f 109/5/2 102/5/2 110/5/2
f 108/5/2 109/5/2 111/5/2
f 111/5/2 109/5/2 112/5/2
f 115/5/3 114/5/3 113/5/3
f 116/5/3 114/5/3 115/5/3
f 119/5/3 118/5/3 117/5/3
f 120/5/3 118/5/3 119/5/3
f 123/4/3 122/4/3 121/4/3
f 124/4/3 122/4/3 123/4/3
f 127/2/3 126/2/3 125/2/3
f 128/2/3 126/2/3 127/2/3
f 133/2/3 130/2/3 129/2/3
f 134/2/3 130/2/3 133/2/3
f 135/5/3 132/5/3 131/5/3
f 136/5/3 132/5/3 135/5/3
f 139/5/3 138/5/3 137/5/3
f 140/5/3 138/5/3 139/5/3
f 143/5/3 142/5/3 141/5/3
f 144/5/3 142/5/3 143/5/3
f 147/4/3 146/4/3 145/4/3
f 148/4/3 146/4/3 147/4/3
f 151/5/3 150/5/3 149/5/3
f 152/5/3 150/5/3 151/5/3
f 153/5/4 154/5/4 155/5/4
f 155/5/4 154/5/4 156/5/4
f 157/4/4 158/4/4 159/4/4
f 159/4/4 158/4/4 160/4/4
f 161/5/4 162/5/4 163/5/4
f 163/5/4 162/5/4 164/5/4
f 165/5/4 166/5/4 167/5/4
f 167/5/4 166/5/4 168/5/4
f 169/2/4 170/2/4 173/2/4
f 173/2/4 170/2/4 174/2/4
f 171/5/4 172/5/4 175/5/4
f 175/5/4 172/5/4 176/5/4
f 177/2/4 178/2/4 179/2/4
f 179/2/4 178/2/4 180/2/4
f 181/4/4 182/4/4 183/4/4
f 183/4/4 182/4/4 184/4/4
f 185/5/4 186/5/4 187/5/4
f 187/5/4 186/5/4 188/5/4
f 189/5/4 190/5/4 191/5/4
f 191/5/4 190/5/4 192/5/4
f 195/2/5 194/2/5 193/2/5
f 196/2/5 194/2/5 195/2/5
f 197/3/5 196/3/5 195/3/5
f 198/3/5 196/3/5 197/3/5
f 199/2/5 198/2/5 197/2/5
f 200/2/5 198/2/5 199/2/5
f 203/2/5 202/2/5 201/2/5
f 204/2/5 202/2/5 203/2/5
f 207/2/5 206/2/5 205/2/5
f 208/2/5 206/2/5 207/2/5
f 211/4/5 210/4/5 209/4/5
f 212/4/5 210/4/5 211/4/5
f 215/4/5 214/4/5 213/4/5
f 216/4/5 214/4/5 215/4/5
f 219/5/5 218/5/5 217/5/5
f 220/5/5 218/5/5 219/5/5
f 223/5/5 222/5/5 221/5/5
f 224/5/5 222/5/5 223/5/5
f 227/5/5 226/5/5 225/5/5
f 228/5/5 226/5/5 227/5/5
f 231/5/5 230/5/5 229/5/5
f 232/5/5 230/5/5 231/5/5
f 235/5/5 234/5/5 233/5/5
f 236/5/5 234/5/5 235/5/5
f 239/5/5 238/5/5 237/5/5
f 240/5/5 238/5/5 239/5/5
f 241/2/6 242/2/6 243/2/6
f 243/2/6 242/2/6 244/2/6
f 243/1/6 244/1/6 245/1/6
f 245/1/6 244/1/6 246/1/6
f 245/2/6 246/2/6 247/2/6
f 247/2/6 246/2/6 248/2/6
f 249/4/6 250/4/6 251/4/6
f 251/4/6 250/4/6 252/4/6
f 253/4/6 254/4/6 255/4/6
f 255/4/6 254/4/6 256/4/6
f 257/5/6 258/5/6 259/5/6
f 259/5/6 258/5/6 260/5/6
f 261/5/6 262/5/6 263/5/6
f 263/5/6 262/5/6 264/5/6
f 265/5/6 266/5/6 267/5/6
f 267/5/6 266/5/6 268/5/6
f 269/5/6 270/5/6 271/5/6
f 271/5/6 270/5/6 272/5/6
f 273/5/6 274/5/6 275/5/6
f 275/5/6 274/5/6 276/5/6
f 277/5/6 278/5/6 279/5/6
f 279/5/6 278/5/6 280/5/6
