# MagicaVoxel @ Ephtracy

# group
o 

# material
mtllib model-1.mtl
usemtl palette

# normals
vn 0 0 1
vn 0 0 -1
vn 1 0 0
vn -1 0 0
vn 0 -1 0
vn 0 1 0

# texcoords
vt 0.0253906 0.5
vt 0.0996094 0.5
vt 0.509766 0.5
vt 0.513672 0.5
vt 0.521484 0.5
vt 0.564453 0.5
vt 0.568359 0.5
vt 0.572266 0.5
vt 0.591797 0.5

# verts
v 0.5 0 1
v -0.5 0 1
v 0.5 0.1 1
v -0.5 0.1 1
v 0.5 0.7 1
v -0.5 0.7 1
v 0.6 0 0.6
v 0.5 0 0.6
v 0.5 0.1 0.6
v 0.6 0.7 0.6
v 0.5 0.7 0.6
v 0.5 0 0.2
v 0.4 0 0.2
v 0.5 0.1 0.2
v 0.4 0.1 0.2
v 0.4 0.3 0.2
v 0.5 0.4 0.2
v 0.4 0.4 0.2
v 0.5 0.1 -0.1
v 0.4 0.1 -0.1
v 0.5 0.2 -0.1
v 0.4 0.2 -0.1
v 0.5 0.3 -0.1
v 0.4 0.3 -0.1
v 0.6 0 -0.3
v 0.4 0 -0.3
v 0.4 0.1 -0.3
v 0.4 0.3 -0.3
v 0.6 0.7 -0.3
v 0.4 0.7 -0.3
v 0.4 0 -0.9
v -0.4 0 -0.9
v 0.4 0.1 -0.9
v -0.4 0.1 -0.9
v 0.4 0 0.9
v -0.4 0 0.9
v 0.4 0.1 0.9
v -0.4 0.1 0.9
v 0.6 0 0.3
v 0.4 0 0.3
v 0.4 0.1 0.3
v 0.4 0.3 0.3
v 0.6 0.7 0.3
v 0.4 0.7 0.3
v 0.5 0.1 0.1
v 0.4 0.1 0.1
v 0.5 0.3 0.1
v 0.4 0.3 0.1
v 0.5 0 -0.2
v 0.4 0 -0.2
v 0.4 0.1 -0.2
v 0.5 0.2 -0.2
v 0.4 0.2 -0.2
v 0.4 0.3 -0.2
v 0.5 0.4 -0.2
v 0.4 0.4 -0.2
v 0.6 0 -0.6
v 0.5 0 -0.6
v 0.5 0.1 -0.6
v 0.5 0.3 -0.6
v 0.5 0.4 -0.6
v 0.6 0.7 -0.6
v 0.5 0.7 -0.6
v 0.5 0 -1
v -0.5 0 -1
v 0.5 0.1 -1
v -0.5 0.1 -1
v 0.5 0.7 -1
v -0.5 0.7 -1
v 0.6 0 0.6
v 0.6 0.7 0.6
v 0.6 0 0.5
v 0.6 0.7 0.5
v 0.6 0 0.4
v 0.6 0.7 0.4
v 0.6 0 0.3
v 0.6 0.7 0.3
v 0.6 0 -0.3
v 0.6 0.7 -0.3
v 0.6 0 -0.4
v 0.6 0.7 -0.4
v 0.6 0 -0.5
v 0.6 0.7 -0.5
v 0.6 0 -0.6
v 0.6 0.7 -0.6
v 0.5 0 1
v 0.5 0.1 1
v 0.5 0.7 1
v 0.5 0.3 0.8
v 0.5 0.4 0.8
v 0.5 0.3 0.7
v 0.5 0.4 0.7
v 0.5 0 0.6
v 0.5 0.1 0.6
v 0.5 0.7 0.6
v 0.5 0 0.2
v 0.5 0.1 0.2
v 0.5 0.4 0.2
v 0.5 0.1 0.1
v 0.5 0.3 0.1
v 0.5 0 0
v 0.5 0.1 0
v 0.5 0.3 0
v 0.5 0.4 0
v 0.5 0.1 -0.1
v 0.5 0.2 -0.1
v 0.5 0.3 -0.1
v 0.5 0 -0.2
v 0.5 0.2 -0.2
v 0.5 0.4 -0.2
v 0.5 0 -0.6
v 0.5 0.1 -0.6
v 0.5 0.3 -0.6
v 0.5 0.4 -0.6
v 0.5 0.7 -0.6
v 0.5 0.3 -0.8
v 0.5 0.4 -0.8
v 0.5 0 -1
v 0.5 0.1 -1
v 0.5 0.7 -1
v 0.4 0.1 0.3
v 0.4 0.3 0.3
v 0.4 0.7 0.3
v 0.4 0.1 0.2
v 0.4 0.3 0.2
v 0.4 0.4 0.2
v 0.4 0.1 0.1
v 0.4 0.3 0.1
v 0.4 0.1 0
v 0.4 0.3 0
v 0.4 0.4 0
v 0.4 0.1 -0.1
v 0.4 0.2 -0.1
v 0.4 0.3 -0.1
v 0.4 0.1 -0.2
v 0.4 0.2 -0.2
v 0.4 0.3 -0.2
v 0.4 0.4 -0.2
v 0.4 0.1 -0.3
v 0.4 0.3 -0.3
v 0.4 0.7 -0.3
v -0.4 0 0.9
v -0.4 0.1 0.9
v -0.4 0 -0.9
v -0.4 0.1 -0.9
v 0.4 0 0.9
v 0.4 0.1 0.9
v 0.4 0 0.5
v 0.4 0.1 0.5
v 0.4 0 0.3
v 0.4 0.1 0.3
v 0.4 0 0.2
v 0.4 0.1 0.2
v 0.4 0 0
v 0.4 0.1 0
v 0.4 0 -0.2
v 0.4 0.1 -0.2
v 0.4 0 -0.3
v 0.4 0.1 -0.3
v 0.4 0 -0.5
v 0.4 0.1 -0.5
v 0.4 0 -0.9
v 0.4 0.1 -0.9
v -0.5 0 1
v -0.5 0.1 1
v -0.5 0.7 1
v -0.5 0 -1
v -0.5 0.1 -1
v -0.5 0.7 -1
v 0.6 0 0.6
v 0.6 0 0.5
v 0.6 0 0.4
v 0.6 0 0.3
v 0.6 0 -0.3
v 0.6 0 -0.4
v 0.6 0 -0.5
v 0.6 0 -0.6
v 0.5 0 1
v 0.5 0 0.6
v 0.5 0 0.5
v 0.5 0 0.4
v 0.5 0 0.2
v 0.5 0 0
v 0.5 0 -0.2
v 0.5 0 -0.4
v 0.5 0 -0.5
v 0.5 0 -0.6
v 0.5 0 -1
v 0.4 0 0.9
v 0.4 0 0.5
v 0.4 0 0.3
v 0.4 0 0.2
v 0.4 0 0
v 0.4 0 -0.2
v 0.4 0 -0.3
v 0.4 0 -0.5
v 0.4 0 -0.9
v -0.4 0 0.9
v -0.4 0 -0.9
v -0.5 0 1
v -0.5 0 -1
v 0.4 0.1 0.9
v 0.4 0.1 0.5
v 0.4 0.1 0.3
v 0.4 0.1 0.2
v 0.4 0.1 0
v 0.4 0.1 -0.2
v 0.4 0.1 -0.3
v 0.4 0.1 -0.5
v 0.4 0.1 -0.9
v -0.4 0.1 0.9
v -0.4 0.1 -0.9
v 0.5 0.3 0.1
v 0.5 0.3 0
v 0.5 0.3 -0.1
v 0.4 0.3 0.1
v 0.4 0.3 0
v 0.4 0.3 -0.1
v 0.5 0.1 0.1
v 0.5 0.1 0
v 0.5 0.1 -0.1
v 0.4 0.1 0.1
v 0.4 0.1 0
v 0.4 0.1 -0.1
v 0.5 0.4 0.2
v 0.5 0.4 0
v 0.5 0.4 -0.2
v 0.4 0.4 0.2
v 0.4 0.4 0
v 0.4 0.4 -0.2
v 0.6 0.7 0.6
v 0.6 0.7 0.5
v 0.6 0.7 0.4
v 0.6 0.7 0.3
v 0.6 0.7 -0.3
v 0.6 0.7 -0.4
v 0.6 0.7 -0.5
v 0.6 0.7 -0.6
v 0.5 0.7 1
v 0.5 0.7 0.6
v 0.5 0.7 0.5
v 0.5 0.7 0.4
v 0.5 0.7 -0.4
v 0.5 0.7 -0.5
v 0.5 0.7 -0.6
v 0.5 0.7 -1
v 0.4 0.7 0.3
v 0.4 0.7 -0.3
v 0.3 0.7 0.3
v 0.3 0.7 -0.3
v -0.5 0.7 1
v -0.5 0.7 -1

# faces
f 3/1/1 2/1/1 1/1/1
f 4/1/1 2/1/1 3/1/1
f 5/8/1 4/8/1 3/8/1
f 6/8/1 4/8/1 5/8/1
f 9/1/1 8/1/1 7/1/1
f 10/1/1 9/1/1 7/1/1
f 11/1/1 9/1/1 10/1/1
f 14/3/1 13/3/1 12/3/1
f 15/3/1 13/3/1 14/3/1
f 16/4/1 15/4/1 14/4/1
f 17/4/1 16/4/1 14/4/1
f 18/4/1 16/4/1 17/4/1
f 21/4/1 20/4/1 19/4/1
f 22/4/1 20/4/1 21/4/1
f 23/5/1 22/5/1 21/5/1
f 24/5/1 22/5/1 23/5/1
f 27/8/1 26/8/1 25/8/1
f 28/8/1 27/8/1 25/8/1
f 29/8/1 28/8/1 25/8/1
f 30/8/1 28/8/1 29/8/1
f 33/1/1 32/1/1 31/1/1
f 34/1/1 32/1/1 33/1/1
f 35/1/2 36/1/2 37/1/2
f 37/1/2 36/1/2 38/1/2
f 39/8/2 40/8/2 41/8/2
f 39/8/2 41/8/2 42/8/2
f 39/8/2 42/8/2 43/8/2
f 43/8/2 42/8/2 44/8/2
f 45/4/2 46/4/2 47/4/2
f 47/4/2 46/4/2 48/4/2
f 49/4/2 50/4/2 51/4/2
f 49/4/2 51/4/2 52/4/2
f 52/4/2 51/4/2 53/4/2
f 52/5/2 53/5/2 54/5/2
f 52/5/2 54/5/2 55/5/2
f 55/5/2 54/5/2 56/5/2
f 57/1/2 58/1/2 59/1/2
f 57/1/2 59/1/2 60/1/2
f 57/1/2 60/1/2 61/1/2
f 57/1/2 61/1/2 62/1/2
f 62/1/2 61/1/2 63/1/2
f 64/1/2 65/1/2 66/1/2
f 66/1/2 65/1/2 67/1/2
f 66/8/2 67/8/2 68/8/2
f 68/8/2 67/8/2 69/8/2
f 72/1/3 71/1/3 70/1/3
f 73/1/3 71/1/3 72/1/3
f 74/7/3 73/7/3 72/7/3
f 75/7/3 73/7/3 74/7/3
f 76/8/3 75/8/3 74/8/3
f 77/8/3 75/8/3 76/8/3
f 80/8/3 79/8/3 78/8/3
f 81/8/3 79/8/3 80/8/3
f 82/7/3 81/7/3 80/7/3
f 83/7/3 81/7/3 82/7/3
f 84/1/3 83/1/3 82/1/3
f 85/1/3 83/1/3 84/1/3
f 89/8/3 88/8/3 87/8/3
f 90/8/3 88/8/3 89/8/3
f 91/8/3 89/8/3 87/8/3
f 91/9/3 90/9/3 89/9/3
f 92/8/3 88/8/3 90/8/3
f 92/9/3 90/9/3 91/9/3
f 93/1/3 87/1/3 86/1/3
f 94/8/3 91/8/3 87/8/3
f 94/1/3 87/1/3 93/1/3
f 94/8/3 92/8/3 91/8/3
f 95/8/3 88/8/3 92/8/3
f 95/8/3 92/8/3 94/8/3
f 99/3/3 97/3/3 96/3/3
f 99/4/3 98/4/3 97/4/3
f 100/4/3 98/4/3 99/4/3
f 101/3/3 99/3/3 96/3/3
f 102/3/3 99/3/3 101/3/3
f 103/4/3 98/4/3 100/4/3
f 104/4/3 98/4/3 103/4/3
f 105/4/3 102/4/3 101/4/3
f 107/5/3 104/5/3 103/5/3
f 108/4/3 106/4/3 105/4/3
f 108/4/3 105/4/3 101/4/3
f 109/5/3 107/5/3 106/5/3
f 109/4/3 106/4/3 108/4/3
f 110/5/3 104/5/3 107/5/3
f 110/5/3 107/5/3 109/5/3
f 116/7/3 114/7/3 113/7/3
f 116/8/3 113/8/3 112/8/3
f 117/8/3 115/8/3 114/8/3
f 117/7/3 114/7/3 116/7/3
f 118/1/3 112/1/3 111/1/3
f 119/8/3 116/8/3 112/8/3
f 119/1/3 112/1/3 118/1/3
f 119/8/3 117/8/3 116/8/3
f 120/8/3 115/8/3 117/8/3
f 120/8/3 117/8/3 119/8/3
f 124/2/3 122/2/3 121/2/3
f 125/6/3 123/6/3 122/6/3
f 125/2/3 122/2/3 124/2/3
f 126/6/3 123/6/3 125/6/3
f 129/2/3 128/2/3 127/2/3
f 130/2/3 128/2/3 129/2/3
f 131/6/3 123/6/3 126/6/3
f 132/2/3 130/2/3 129/2/3
f 133/2/3 130/2/3 132/2/3
f 134/2/3 130/2/3 133/2/3
f 138/6/3 123/6/3 131/6/3
f 139/2/3 137/2/3 136/2/3
f 139/2/3 136/2/3 135/2/3
f 140/6/3 138/6/3 137/6/3
f 140/2/3 137/2/3 139/2/3
f 141/6/3 123/6/3 138/6/3
f 141/6/3 138/6/3 140/6/3
f 144/1/3 143/1/3 142/1/3
f 145/1/3 143/1/3 144/1/3
f 146/1/4 147/1/4 148/1/4
f 148/1/4 147/1/4 149/1/4
f 148/8/4 149/8/4 150/8/4
f 150/8/4 149/8/4 151/8/4
f 152/3/4 153/3/4 154/3/4
f 154/3/4 153/3/4 155/3/4
f 154/4/4 155/4/4 156/4/4
f 156/4/4 155/4/4 157/4/4
f 158/8/4 159/8/4 160/8/4
f 160/8/4 159/8/4 161/8/4
f 160/1/4 161/1/4 162/1/4
f 162/1/4 161/1/4 163/1/4
f 164/1/4 165/1/4 167/1/4
f 165/8/4 166/8/4 168/8/4
f 167/1/4 165/1/4 168/1/4
f 168/8/4 166/8/4 169/8/4
f 179/1/5 171/1/5 170/1/5
f 180/7/5 172/7/5 171/7/5
f 180/1/5 171/1/5 179/1/5
f 181/8/5 173/8/5 172/8/5
f 181/7/5 172/7/5 180/7/5
f 185/8/5 175/8/5 174/8/5
f 185/7/5 176/7/5 175/7/5
f 186/1/5 177/1/5 176/1/5
f 186/7/5 176/7/5 185/7/5
f 187/1/5 177/1/5 186/1/5
f 189/1/5 179/1/5 178/1/5
f 189/1/5 180/1/5 179/1/5
f 190/8/5 181/8/5 180/8/5
f 190/1/5 180/1/5 189/1/5
f 191/8/5 173/8/5 181/8/5
f 191/8/5 181/8/5 190/8/5
f 192/3/5 183/3/5 182/3/5
f 193/4/5 184/4/5 183/4/5
f 193/3/5 183/3/5 192/3/5
f 194/4/5 184/4/5 193/4/5
f 195/8/5 185/8/5 174/8/5
f 195/8/5 186/8/5 185/8/5
f 196/1/5 188/1/5 187/1/5
f 196/8/5 186/8/5 195/8/5
f 196/1/5 187/1/5 186/1/5
f 197/1/5 188/1/5 196/1/5
f 198/1/5 189/1/5 178/1/5
f 199/1/5 188/1/5 197/1/5
f 200/1/5 198/1/5 178/1/5
f 200/1/5 199/1/5 198/1/5
f 201/1/5 188/1/5 199/1/5
f 201/1/5 199/1/5 200/1/5
f 211/2/5 203/2/5 202/2/5
f 211/2/5 210/2/5 209/2/5
f 211/2/5 209/2/5 208/2/5
f 211/2/5 208/2/5 207/2/5
f 211/2/5 207/2/5 206/2/5
f 211/2/5 206/2/5 205/2/5
f 211/2/5 205/2/5 204/2/5
f 211/2/5 204/2/5 203/2/5
f 212/2/5 210/2/5 211/2/5
f 216/4/5 214/4/5 213/4/5
f 217/5/5 215/5/5 214/5/5
f 217/4/5 214/4/5 216/4/5
f 218/5/5 215/5/5 217/5/5
f 219/3/6 220/3/6 222/3/6
f 220/4/6 221/4/6 223/4/6
f 222/3/6 220/3/6 223/3/6
f 223/4/6 221/4/6 224/4/6
f 225/4/6 226/4/6 228/4/6
f 226/5/6 227/5/6 229/5/6
f 228/4/6 226/4/6 229/4/6
f 229/5/6 227/5/6 230/5/6
f 231/1/6 232/1/6 240/1/6
f 232/7/6 233/7/6 241/7/6
f 240/1/6 232/1/6 241/1/6
f 233/8/6 234/8/6 242/8/6
f 241/7/6 233/7/6 242/7/6
f 235/8/6 236/8/6 243/8/6
f 236/7/6 237/7/6 243/7/6
f 237/1/6 238/1/6 244/1/6
f 243/7/6 237/7/6 244/7/6
f 244/1/6 238/1/6 245/1/6
f 239/8/6 240/8/6 247/8/6
f 240/8/6 241/8/6 247/8/6
f 242/8/6 234/8/6 247/8/6
f 241/8/6 242/8/6 247/8/6
f 235/8/6 243/8/6 248/8/6
f 245/8/6 246/8/6 248/8/6
f 244/8/6 245/8/6 248/8/6
f 243/8/6 244/8/6 248/8/6
f 239/8/6 247/8/6 249/8/6
f 247/6/6 248/6/6 249/6/6
f 248/8/6 246/8/6 250/8/6
f 249/6/6 248/6/6 250/6/6
f 239/8/6 249/8/6 251/8/6
f 249/8/6 250/8/6 251/8/6
f 250/8/6 246/8/6 252/8/6
f 251/8/6 250/8/6 252/8/6
