# MagicaVoxel @ Ephtracy

# group
o 

# material
mtllib model-0.mtl
usemtl palette

# normals
vn 0 0 1
vn 0 0 -1
vn 1 0 0
vn -1 0 0
vn 0 -1 0
vn 0 1 0

# texcoords
vt 0.0253906 0.5
vt 0.0683594 0.5
vt 0.103516 0.5
vt 0.193359 0.5
vt 0.494141 0.5
vt 0.513672 0.5
vt 0.517578 0.5
vt 0.521484 0.5

# verts
v 0.5 0 1
v -0.5 0 1
v 0.5 0.1 1
v -0.5 0.1 1
v 0.5 0.2 1
v -0.5 0.2 1
v 0.5 0.7 1
v -0.5 0.7 1
v 0.7 0 0.4
v 0.5 0 0.4
v 0.6 0.1 0.4
v 0.5 0.1 0.4
v 0.5 0.2 0.4
v 0.7 0.7 0.4
v 0.6 0.7 0.4
v 0.5 0.7 0.4
v 0.5 0 0.2
v 0.4 0 0.2
v 0.5 0.1 0.2
v 0.4 0.1 0.2
v 0.4 0.3 0.2
v 0.5 0.4 0.2
v 0.4 0.4 0.2
v 0.5 0.1 -0.1
v 0.4 0.1 -0.1
v 0.5 0.2 -0.1
v 0.4 0.2 -0.1
v 0.5 0.3 -0.1
v 0.4 0.3 -0.1
v 0.7 0 -0.3
v 0.4 0 -0.3
v 0.6 0.1 -0.3
v 0.5 0.1 -0.3
v 0.4 0.1 -0.3
v 0.4 0.3 -0.3
v 0.7 0.7 -0.3
v 0.6 0.7 -0.3
v 0.5 0.7 -0.3
v 0.4 0.7 -0.3
v 0.4 0 -0.9
v -0.4 0 -0.9
v 0.4 0.1 -0.9
v -0.4 0.1 -0.9
v 0.4 0 0.9
v -0.4 0 0.9
v 0.4 0.1 0.9
v -0.4 0.1 0.9
v 0.7 0 0.3
v 0.4 0 0.3
v 0.6 0.1 0.3
v 0.5 0.1 0.3
v 0.4 0.1 0.3
v 0.4 0.3 0.3
v 0.7 0.7 0.3
v 0.6 0.7 0.3
v 0.5 0.7 0.3
v 0.4 0.7 0.3
v 0.5 0.1 0.1
v 0.4 0.1 0.1
v 0.5 0.3 0.1
v 0.4 0.3 0.1
v 0.5 0 -0.2
v 0.4 0 -0.2
v 0.4 0.1 -0.2
v 0.5 0.2 -0.2
v 0.4 0.2 -0.2
v 0.4 0.3 -0.2
v 0.5 0.4 -0.2
v 0.4 0.4 -0.2
v 0.7 0 -0.4
v 0.5 0 -0.4
v 0.6 0.1 -0.4
v 0.5 0.1 -0.4
v 0.5 0.2 -0.4
v 0.7 0.7 -0.4
v 0.6 0.7 -0.4
v 0.5 0.7 -0.4
v 0.5 0 -1
v -0.5 0 -1
v 0.5 0.1 -1
v -0.5 0.1 -1
v 0.5 0.2 -1
v -0.5 0.2 -1
v 0.5 0.7 -1
v -0.5 0.7 -1
v 0.7 0 0.4
v 0.7 0.7 0.4
v 0.7 0 0.3
v 0.7 0.7 0.3
v 0.7 0 -0.3
v 0.7 0.7 -0.3
v 0.7 0 -0.4
v 0.7 0.7 -0.4
v 0.5 0 1
v 0.5 0.1 1
v 0.5 0.2 1
v 0.5 0.7 1
v 0.5 0.3 0.7
v 0.5 0.5 0.7
v 0.5 0.3 0.5
v 0.5 0.5 0.5
v 0.5 0 0.4
v 0.5 0.1 0.4
v 0.5 0.2 0.4
v 0.5 0.7 0.4
v 0.5 0 0.2
v 0.5 0.1 0.2
v 0.5 0.4 0.2
v 0.5 0.1 0.1
v 0.5 0.3 0.1
v 0.5 0 0
v 0.5 0.1 0
v 0.5 0.3 0
v 0.5 0.4 0
v 0.5 0.1 -0.1
v 0.5 0.2 -0.1
v 0.5 0.3 -0.1
v 0.5 0 -0.2
v 0.5 0.2 -0.2
v 0.5 0.4 -0.2
v 0.5 0 -0.4
v 0.5 0.1 -0.4
v 0.5 0.2 -0.4
v 0.5 0.7 -0.4
v 0.5 0.3 -0.5
v 0.5 0.5 -0.5
v 0.5 0.3 -0.7
v 0.5 0.5 -0.7
v 0.5 0 -1
v 0.5 0.1 -1
v 0.5 0.2 -1
v 0.5 0.7 -1
v 0.4 0.1 0.3
v 0.4 0.3 0.3
v 0.4 0.7 0.3
v 0.4 0.1 0.2
v 0.4 0.3 0.2
v 0.4 0.4 0.2
v 0.4 0.1 0.1
v 0.4 0.3 0.1
v 0.4 0.1 0
v 0.4 0.3 0
v 0.4 0.4 0
v 0.4 0.1 -0.1
v 0.4 0.2 -0.1
v 0.4 0.3 -0.1
v 0.4 0.1 -0.2
v 0.4 0.2 -0.2
v 0.4 0.3 -0.2
v 0.4 0.4 -0.2
v 0.4 0.1 -0.3
v 0.4 0.3 -0.3
v 0.4 0.7 -0.3
v -0.4 0 0.9
v -0.4 0.1 0.9
v -0.4 0 -0.9
v -0.4 0.1 -0.9
v 0.4 0 0.9
v 0.4 0.1 0.9
v 0.4 0 0.3
v 0.4 0.1 0.3
v 0.4 0 0.2
v 0.4 0.1 0.2
v 0.4 0 0
v 0.4 0.1 0
v 0.4 0 -0.2
v 0.4 0.1 -0.2
v 0.4 0 -0.3
v 0.4 0.1 -0.3
v 0.4 0 -0.9
v 0.4 0.1 -0.9
v -0.5 0 1
v -0.5 0.1 1
v -0.5 0.2 1
v -0.5 0.7 1
v -0.5 0 -1
v -0.5 0.1 -1
v -0.5 0.2 -1
v -0.5 0.7 -1
v 0.7 0 0.4
v 0.7 0 0.3
v 0.7 0 -0.3
v 0.7 0 -0.4
v 0.5 0 1
v 0.5 0 0.4
v 0.5 0 0.2
v 0.5 0 0
v 0.5 0 -0.2
v 0.5 0 -0.4
v 0.5 0 -1
v 0.4 0 0.9
v 0.4 0 0.3
v 0.4 0 0.2
v 0.4 0 0
v 0.4 0 -0.2
v 0.4 0 -0.3
v 0.4 0 -0.9
v -0.4 0 0.9
v -0.4 0 -0.9
v -0.5 0 1
v -0.5 0 -1
v 0.4 0.1 0.9
v 0.4 0.1 0.3
v 0.4 0.1 0.2
v 0.4 0.1 0
v 0.4 0.1 -0.2
v 0.4 0.1 -0.3
v 0.4 0.1 -0.9
v -0.4 0.1 0.9
v -0.4 0.1 -0.9
v 0.5 0.3 0.1
v 0.5 0.3 0
v 0.5 0.3 -0.1
v 0.4 0.3 0.1
v 0.4 0.3 0
v 0.4 0.3 -0.1
v 0.5 0.1 0.1
v 0.5 0.1 0
v 0.5 0.1 -0.1
v 0.4 0.1 0.1
v 0.4 0.1 0
v 0.4 0.1 -0.1
v 0.5 0.4 0.2
v 0.5 0.4 0
v 0.5 0.4 -0.2
v 0.4 0.4 0.2
v 0.4 0.4 0
v 0.4 0.4 -0.2
v 0.7 0.7 0.4
v 0.7 0.7 0.3
v 0.7 0.7 -0.3
v 0.7 0.7 -0.4
v 0.6 0.7 0.4
v 0.6 0.7 0.3
v 0.6 0.7 -0.3
v 0.6 0.7 -0.4
v 0.5 0.7 1
v 0.5 0.7 0.4
v 0.5 0.7 0.3
v 0.5 0.7 -0.3
v 0.5 0.7 -0.4
v 0.5 0.7 -1
v 0.4 0.7 0.3
v 0.4 0.7 -0.3
v 0.3 0.7 0.3
v 0.3 0.7 -0.3
v -0.5 0.7 1
v -0.5 0.7 -1

# faces
f 3/3/1 2/3/1 1/3/1
f 4/3/1 2/3/1 3/3/1
f 5/1/1 4/1/1 3/1/1
f 6/1/1 4/1/1 5/1/1
f 7/3/1 6/3/1 5/3/1
f 8/3/1 6/3/1 7/3/1
f 11/3/1 10/3/1 9/3/1
f 12/3/1 10/3/1 11/3/1
f 13/1/1 12/1/1 11/1/1
f 14/3/1 11/3/1 9/3/1
f 15/1/1 13/1/1 11/1/1
f 15/3/1 11/3/1 14/3/1
f 16/1/1 13/1/1 15/1/1
f 19/6/1 18/6/1 17/6/1
f 20/6/1 18/6/1 19/6/1
f 21/7/1 20/7/1 19/7/1
f 22/7/1 21/7/1 19/7/1
f 23/7/1 21/7/1 22/7/1
f 26/7/1 25/7/1 24/7/1
f 27/7/1 25/7/1 26/7/1
f 28/8/1 27/8/1 26/8/1
f 29/8/1 27/8/1 28/8/1
f 32/3/1 31/3/1 30/3/1
f 33/3/1 31/3/1 32/3/1
f 34/3/1 31/3/1 33/3/1
f 35/3/1 34/3/1 33/3/1
f 36/3/1 32/3/1 30/3/1
f 37/1/1 33/1/1 32/1/1
f 37/3/1 32/3/1 36/3/1
f 38/3/1 35/3/1 33/3/1
f 38/1/1 33/1/1 37/1/1
f 39/3/1 35/3/1 38/3/1
f 42/3/1 41/3/1 40/3/1
f 43/3/1 41/3/1 42/3/1
f 44/3/2 45/3/2 46/3/2
f 46/3/2 45/3/2 47/3/2
f 48/3/2 49/3/2 50/3/2
f 50/3/2 49/3/2 51/3/2
f 51/3/2 49/3/2 52/3/2
f 51/3/2 52/3/2 53/3/2
f 48/3/2 50/3/2 54/3/2
f 50/1/2 51/1/2 55/1/2
f 54/3/2 50/3/2 55/3/2
f 51/3/2 53/3/2 56/3/2
f 55/1/2 51/1/2 56/1/2
f 56/3/2 53/3/2 57/3/2
f 58/7/2 59/7/2 60/7/2
f 60/7/2 59/7/2 61/7/2
f 62/7/2 63/7/2 64/7/2
f 62/7/2 64/7/2 65/7/2
f 65/7/2 64/7/2 66/7/2
f 65/8/2 66/8/2 67/8/2
f 65/8/2 67/8/2 68/8/2
f 68/8/2 67/8/2 69/8/2
f 70/3/2 71/3/2 72/3/2
f 72/3/2 71/3/2 73/3/2
f 72/1/2 73/1/2 74/1/2
f 70/3/2 72/3/2 75/3/2
f 72/1/2 74/1/2 76/1/2
f 75/3/2 72/3/2 76/3/2
f 76/1/2 74/1/2 77/1/2
f 78/3/2 79/3/2 80/3/2
f 80/3/2 79/3/2 81/3/2
f 80/1/2 81/1/2 82/1/2
f 82/1/2 81/1/2 83/1/2
f 82/3/2 83/3/2 84/3/2
f 84/3/2 83/3/2 85/3/2
f 88/3/3 87/3/3 86/3/3
f 89/3/3 87/3/3 88/3/3
f 92/3/3 91/3/3 90/3/3
f 93/3/3 91/3/3 92/3/3
f 98/3/3 97/3/3 96/3/3
f 99/3/3 97/3/3 98/3/3
f 100/3/3 98/3/3 96/3/3
f 100/4/3 99/4/3 98/4/3
f 101/3/3 97/3/3 99/3/3
f 101/4/3 99/4/3 100/4/3
f 102/3/3 95/3/3 94/3/3
f 103/1/3 96/1/3 95/1/3
f 103/3/3 95/3/3 102/3/3
f 104/3/3 100/3/3 96/3/3
f 104/1/3 96/1/3 103/1/3
f 104/3/3 101/3/3 100/3/3
f 105/3/3 97/3/3 101/3/3
f 105/3/3 101/3/3 104/3/3
f 109/6/3 107/6/3 106/6/3
f 109/7/3 108/7/3 107/7/3
f 110/7/3 108/7/3 109/7/3
f 111/6/3 109/6/3 106/6/3
f 112/6/3 109/6/3 111/6/3
f 113/7/3 108/7/3 110/7/3
f 114/7/3 108/7/3 113/7/3
f 115/7/3 112/7/3 111/7/3
f 117/8/3 114/8/3 113/8/3
f 118/7/3 116/7/3 115/7/3
f 118/7/3 115/7/3 111/7/3
f 119/8/3 117/8/3 116/8/3
f 119/7/3 116/7/3 118/7/3
f 120/8/3 114/8/3 117/8/3
f 120/8/3 117/8/3 119/8/3
f 125/3/3 124/3/3 123/3/3
f 126/3/3 124/3/3 125/3/3
f 127/3/3 125/3/3 123/3/3
f 127/4/3 126/4/3 125/4/3
f 128/3/3 124/3/3 126/3/3
f 128/4/3 126/4/3 127/4/3
f 129/3/3 122/3/3 121/3/3
f 130/1/3 123/1/3 122/1/3
f 130/3/3 122/3/3 129/3/3
f 131/3/3 127/3/3 123/3/3
f 131/1/3 123/1/3 130/1/3
f 131/3/3 128/3/3 127/3/3
f 132/3/3 124/3/3 128/3/3
f 132/3/3 128/3/3 131/3/3
f 136/2/3 134/2/3 133/2/3
f 137/5/3 135/5/3 134/5/3
f 137/2/3 134/2/3 136/2/3
f 138/5/3 135/5/3 137/5/3
f 141/2/3 140/2/3 139/2/3
f 142/2/3 140/2/3 141/2/3
f 143/5/3 135/5/3 138/5/3
f 144/2/3 142/2/3 141/2/3
f 145/2/3 142/2/3 144/2/3
f 146/2/3 142/2/3 145/2/3
f 150/5/3 135/5/3 143/5/3
f 151/2/3 149/2/3 148/2/3
f 151/2/3 148/2/3 147/2/3
f 152/5/3 150/5/3 149/5/3
f 152/2/3 149/2/3 151/2/3
f 153/5/3 135/5/3 150/5/3
f 153/5/3 150/5/3 152/5/3
f 156/3/3 155/3/3 154/3/3
f 157/3/3 155/3/3 156/3/3
f 158/3/4 159/3/4 160/3/4
f 160/3/4 159/3/4 161/3/4
f 162/6/4 163/6/4 164/6/4
f 164/6/4 163/6/4 165/6/4
f 164/7/4 165/7/4 166/7/4
f 166/7/4 165/7/4 167/7/4
f 168/3/4 169/3/4 170/3/4
f 170/3/4 169/3/4 171/3/4
f 172/3/4 173/3/4 176/3/4
f 173/1/4 174/1/4 177/1/4
f 176/3/4 173/3/4 177/3/4
f 174/3/4 175/3/4 178/3/4
f 177/1/4 174/1/4 178/1/4
f 178/3/4 175/3/4 179/3/4
f 185/3/5 181/3/5 180/3/5
f 189/3/5 183/3/5 182/3/5
f 191/3/5 185/3/5 184/3/5
f 192/3/5 181/3/5 185/3/5
f 192/3/5 185/3/5 191/3/5
f 193/6/5 187/6/5 186/6/5
f 194/7/5 188/7/5 187/7/5
f 194/6/5 187/6/5 193/6/5
f 195/7/5 188/7/5 194/7/5
f 196/3/5 190/3/5 189/3/5
f 196/3/5 189/3/5 182/3/5
f 197/3/5 190/3/5 196/3/5
f 198/3/5 191/3/5 184/3/5
f 199/3/5 190/3/5 197/3/5
f 200/3/5 198/3/5 184/3/5
f 200/3/5 199/3/5 198/3/5
f 201/3/5 190/3/5 199/3/5
f 201/3/5 199/3/5 200/3/5
f 209/2/5 203/2/5 202/2/5
f 209/2/5 208/2/5 207/2/5
f 209/2/5 207/2/5 206/2/5
f 209/2/5 206/2/5 205/2/5
f 209/2/5 205/2/5 204/2/5
f 209/2/5 204/2/5 203/2/5
f 210/2/5 208/2/5 209/2/5
f 214/7/5 212/7/5 211/7/5
f 215/8/5 213/8/5 212/8/5
f 215/7/5 212/7/5 214/7/5
f 216/8/5 213/8/5 215/8/5
f 217/6/6 218/6/6 220/6/6
f 218/7/6 219/7/6 221/7/6
f 220/6/6 218/6/6 221/6/6
f 221/7/6 219/7/6 222/7/6
f 223/7/6 224/7/6 226/7/6
f 224/8/6 225/8/6 227/8/6
f 226/7/6 224/7/6 227/7/6
f 227/8/6 225/8/6 228/8/6
f 229/3/6 230/3/6 233/3/6
f 233/3/6 230/3/6 234/3/6
f 231/3/6 232/3/6 235/3/6
f 235/3/6 232/3/6 236/3/6
f 233/1/6 234/1/6 238/1/6
f 238/1/6 234/1/6 239/1/6
f 235/1/6 236/1/6 240/1/6
f 240/1/6 236/1/6 241/1/6
f 238/3/6 239/3/6 243/3/6
f 237/3/6 238/3/6 243/3/6
f 240/3/6 241/3/6 244/3/6
f 241/3/6 242/3/6 244/3/6
f 237/3/6 243/3/6 245/3/6
f 243/5/6 244/5/6 245/5/6
f 244/3/6 242/3/6 246/3/6
f 245/5/6 244/5/6 246/5/6
f 237/3/6 245/3/6 247/3/6
f 245/3/6 246/3/6 247/3/6
f 246/3/6 242/3/6 248/3/6
f 247/3/6 246/3/6 248/3/6
