# MagicaVoxel @ Ephtracy

# group
o 

# material
mtllib model-1.mtl
usemtl palette

# normals
vn 0 0 1
vn 0 0 -1
vn 1 0 0
vn -1 0 0
vn 0 -1 0
vn 0 1 0

# texcoords
vt 0.00195313 0.5
vt 0.00585938 0.5
vt 0.0449219 0.5
vt 0.513672 0.5

# verts
v 0.5 1.3 1.1
v 0.4 1.3 1.1
v -0.4 1.3 1.1
v -0.5 1.3 1.1
v 0.5 1.5 1.1
v 0.4 1.5 1.1
v -0.4 1.5 1.1
v -0.5 1.5 1.1
v 0.5 1.6 1.1
v 0.4 1.6 1.1
v -0.4 1.6 1.1
v -0.5 1.6 1.1
v 0.5 1.8 1.1
v 0.4 1.8 1.1
v -0.4 1.8 1.1
v -0.5 1.8 1.1
v 0.5 1.9 1.1
v 0.4 1.9 1.1
v -0.4 1.9 1.1
v -0.5 1.9 1.1
v 0.5 2.1 1.1
v 0.4 2.1 1.1
v 0.2 2.1 1.1
v 0.1 2.1 1.1
v -0.1 2.1 1.1
v -0.2 2.1 1.1
v -0.4 2.1 1.1
v -0.5 2.1 1.1
v 0.4 2.2 1.1
v 0.2 2.2 1.1
v 0.1 2.2 1.1
v -0.1 2.2 1.1
v -0.2 2.2 1.1
v -0.4 2.2 1.1
v 0.5 0.7 1
v -0.5 0.7 1
v 0.5 0.9 1
v -0.5 0.9 1
v 0.6 1.1 1
v 0.5 1.1 1
v 0.6 1.2 1
v 0.5 1.2 1
v 0.5 1.3 1
v 0.4 1.3 1
v -0.4 1.3 1
v -0.5 1.3 1
v 0.6 1.4 1
v 0.5 1.4 1
v 0.6 1.5 1
v 0.5 1.5 1
v 0.4 1.5 1
v -0.4 1.5 1
v -0.5 1.5 1
v 0.5 1.6 1
v 0.4 1.6 1
v -0.4 1.6 1
v -0.5 1.6 1
v 0.5 1.8 1
v 0.4 1.8 1
v -0.4 1.8 1
v -0.5 1.8 1
v 0.5 1.9 1
v 0.4 1.9 1
v -0.4 1.9 1
v -0.5 1.9 1
v 0.5 2.1 1
v 0.4 2.1 1
v 0.2 2.1 1
v 0.1 2.1 1
v -0.1 2.1 1
v -0.2 2.1 1
v -0.4 2.1 1
v -0.5 2.1 1
v 0.5 2.2 1
v 0.4 2.2 1
v 0.2 2.2 1
v 0.1 2.2 1
v -0.1 2.2 1
v -0.2 2.2 1
v -0.4 2.2 1
v -0.5 2.2 1
v 0.6 1 0.9
v 0.5 1 0.9
v 0.6 1.1 0.9
v 0.5 1.1 0.9
v 0.6 1.3 0.9
v 0.5 1.3 0.9
v 0.6 1.4 0.9
v 0.5 1.4 0.9
v 0.7 2 0.6
v 0.5 2 0.6
v -0.5 2.1 0.6
v -0.6 2.1 0.6
v 0.5 2.2 0.6
v -0.5 2.2 0.6
v 0.7 2.3 0.6
v -0.6 2.3 0.6
v 0.7 1.8 0.4
v 0.5 1.8 0.4
v 0.7 2 0.4
v 0.5 2 0.4
v 0.7 1.6 0.2
v 0.5 1.6 0.2
v 0.7 1.8 0.2
v 0.5 1.8 0.2
v 0.6 0.7 0.1
v 0.5 0.7 0.1
v 0.5 0.9 0.1
v 0.6 1 0.1
v 0.5 1 0.1
v 0.6 1.1 0.1
v 0.5 1.1 0.1
v 0.6 1.4 0.1
v 0.5 1.4 0.1
v 0.6 1.5 0.1
v 0.5 1.5 0.1
v 0.6 1.6 0.1
v 0.5 1.6 0.1
v 0.6 1 0
v 0.5 1 0
v 0.6 1.1 0
v 0.5 1.1 0
v 0.6 1.4 0
v 0.5 1.4 0
v 0.6 1.5 0
v 0.5 1.5 0
v 0.7 1.6 -0.1
v 0.6 1.6 -0.1
v 0.5 1.6 -0.1
v 0.5 1.7 -0.1
v 0.4 1.7 -0.1
v -0.4 1.7 -0.1
v 0.7 1.9 -0.1
v -0.4 1.9 -0.1
v 0.7 1.9 -0.3
v -0.4 1.9 -0.3
v 0.7 2.1 -0.3
v -0.4 2.1 -0.3
v 0.7 2.1 -0.5
v 0.5 2.1 -0.5
v -0.5 2.1 -0.5
v 0.5 2.2 -0.5
v -0.5 2.2 -0.5
v 0.7 2.3 -0.5
v -0.5 2.3 -0.5
v 0.7 2.1 0.5
v 0.5 2.1 0.5
v -0.5 2.1 0.5
v 0.5 2.2 0.5
v -0.5 2.2 0.5
v 0.7 2.3 0.5
v -0.5 2.3 0.5
v 0.6 1 0.4
v 0.5 1 0.4
v 0.6 1.1 0.4
v 0.5 1.1 0.4
v 0.6 1.3 0.4
v 0.5 1.3 0.4
v 0.6 1.4 0.4
v 0.5 1.4 0.4
v 0.7 1.9 0.3
v -0.4 1.9 0.3
v 0.7 2.1 0.3
v -0.4 2.1 0.3
v 0.6 1.1 0.2
v 0.5 1.1 0.2
v 0.6 1.2 0.2
v 0.5 1.2 0.2
v 0.6 1.4 0.2
v 0.5 1.4 0.2
v 0.6 1.5 0.2
v 0.5 1.5 0.2
v 0.7 1.6 0.1
v 0.6 1.6 0.1
v 0.5 1.6 0.1
v 0.5 1.7 0.1
v 0.4 1.7 0.1
v -0.4 1.7 0.1
v 0.7 1.9 0.1
v -0.4 1.9 0.1
v 0.6 0.8 0
v 0.5 0.8 0
v 0.6 0.9 0
v 0.5 0.9 0
v 0.6 1.2 0
v 0.5 1.2 0
v 0.6 1.3 0
v 0.5 1.3 0
v 0.6 0.7 -0.1
v 0.5 0.7 -0.1
v 0.6 0.8 -0.1
v 0.5 0.8 -0.1
v 0.6 0.9 -0.1
v 0.5 0.9 -0.1
v 0.6 1.2 -0.1
v 0.5 1.2 -0.1
v 0.6 1.3 -0.1
v 0.5 1.3 -0.1
v 0.6 1.6 -0.1
v 0.5 1.6 -0.1
v 0.7 1.6 -0.2
v 0.5 1.6 -0.2
v 0.7 1.8 -0.2
v 0.5 1.8 -0.2
v 0.7 1.8 -0.4
v 0.5 1.8 -0.4
v 0.7 2 -0.4
v 0.5 2 -0.4
v 0.7 2 -0.6
v 0.5 2 -0.6
v -0.5 2.1 -0.6
v -0.6 2.1 -0.6
v 0.5 2.2 -0.6
v -0.5 2.2 -0.6
v 0.7 2.3 -0.6
v -0.6 2.3 -0.6
v 0.5 0.7 -1
v -0.5 0.7 -1
v 0.5 0.9 -1
v -0.5 0.9 -1
v 0.5 1.3 -1
v 0.4 1.3 -1
v -0.4 1.3 -1
v -0.5 1.3 -1
v 0.5 1.5 -1
v 0.4 1.5 -1
v -0.4 1.5 -1
v -0.5 1.5 -1
v 0.5 1.6 -1
v 0.4 1.6 -1
v -0.4 1.6 -1
v -0.5 1.6 -1
v 0.5 1.8 -1
v 0.4 1.8 -1
v -0.4 1.8 -1
v -0.5 1.8 -1
v 0.5 1.9 -1
v 0.4 1.9 -1
v -0.4 1.9 -1
v -0.5 1.9 -1
v 0.5 2.1 -1
v 0.4 2.1 -1
v 0.2 2.1 -1
v 0.1 2.1 -1
v -0.1 2.1 -1
v -0.2 2.1 -1
v -0.4 2.1 -1
v -0.5 2.1 -1
v 0.5 2.2 -1
v 0.4 2.2 -1
v 0.2 2.2 -1
v 0.1 2.2 -1
v -0.1 2.2 -1
v -0.2 2.2 -1
v -0.4 2.2 -1
v -0.5 2.2 -1
v 0.5 1.3 -1.1
v 0.4 1.3 -1.1
v -0.4 1.3 -1.1
v -0.5 1.3 -1.1
v 0.5 1.5 -1.1
v 0.4 1.5 -1.1
v -0.4 1.5 -1.1
v -0.5 1.5 -1.1
v 0.5 1.6 -1.1
v 0.4 1.6 -1.1
v -0.4 1.6 -1.1
v -0.5 1.6 -1.1
v 0.5 1.8 -1.1
v 0.4 1.8 -1.1
v -0.4 1.8 -1.1
v -0.5 1.8 -1.1
v 0.5 1.9 -1.1
v 0.4 1.9 -1.1
v -0.4 1.9 -1.1
v -0.5 1.9 -1.1
v 0.5 2.1 -1.1
v 0.4 2.1 -1.1
v 0.2 2.1 -1.1
v 0.1 2.1 -1.1
v -0.1 2.1 -1.1
v -0.2 2.1 -1.1
v -0.4 2.1 -1.1
v -0.5 2.1 -1.1
v 0.4 2.2 -1.1
v 0.2 2.2 -1.1
v 0.1 2.2 -1.1
v -0.1 2.2 -1.1
v -0.2 2.2 -1.1
v -0.4 2.2 -1.1
v 0.7 2 0.6
v 0.7 2.3 0.6
v 0.7 2.1 0.5
v 0.7 2.3 0.5
v 0.7 1.8 0.4
v 0.7 2 0.4
v 0.7 1.9 0.3
v 0.7 2.1 0.3
v 0.7 1.6 0.2
v 0.7 1.8 0.2
v 0.7 1.6 0.1
v 0.7 1.9 0.1
v 0.7 1.6 -0.1
v 0.7 1.9 -0.1
v 0.7 1.6 -0.2
v 0.7 1.8 -0.2
v 0.7 1.9 -0.3
v 0.7 2.1 -0.3
v 0.7 1.8 -0.4
v 0.7 2 -0.4
v 0.7 2.1 -0.5
v 0.7 2.3 -0.5
v 0.7 2 -0.6
v 0.7 2.3 -0.6
v 0.6 1.1 1
v 0.6 1.2 1
v 0.6 1.4 1
v 0.6 1.5 1
v 0.6 1 0.9
v 0.6 1.1 0.9
v 0.6 1.2 0.9
v 0.6 1.3 0.9
v 0.6 1.4 0.9
v 0.6 1.5 0.9
v 0.6 1 0.8
v 0.6 1.1 0.8
v 0.6 1.3 0.8
v 0.6 1.4 0.8
v 0.6 1.1 0.6
v 0.6 1.2 0.6
v 0.6 1.4 0.6
v 0.6 1.5 0.6
v 0.6 1 0.5
v 0.6 1.1 0.5
v 0.6 1.3 0.5
v 0.6 1.4 0.5
v 0.6 1 0.4
v 0.6 1.1 0.4
v 0.6 1.2 0.4
v 0.6 1.3 0.4
v 0.6 1.4 0.4
v 0.6 1.5 0.4
v 0.6 1.1 0.2
v 0.6 1.2 0.2
v 0.6 1.4 0.2
v 0.6 1.5 0.2
v 0.6 0.7 0.1
v 0.6 1 0.1
v 0.6 1.1 0.1
v 0.6 1.4 0.1
v 0.6 1.5 0.1
v 0.6 1.6 0.1
v 0.6 0.8 0
v 0.6 0.9 0
v 0.6 1 0
v 0.6 1.1 0
v 0.6 1.2 0
v 0.6 1.3 0
v 0.6 1.4 0
v 0.6 1.5 0
v 0.6 0.7 -0.1
v 0.6 0.8 -0.1
v 0.6 0.9 -0.1
v 0.6 1.2 -0.1
v 0.6 1.3 -0.1
v 0.6 1.6 -0.1
v 0.5 1.3 1.1
v 0.5 1.5 1.1
v 0.5 1.6 1.1
v 0.5 1.8 1.1
v 0.5 1.9 1.1
v 0.5 2.1 1.1
v 0.5 0.7 1
v 0.5 0.9 1
v 0.5 1.1 1
v 0.5 1.2 1
v 0.5 1.3 1
v 0.5 1.4 1
v 0.5 1.5 1
v 0.5 1.6 1
v 0.5 1.8 1
v 0.5 1.9 1
v 0.5 2.1 1
v 0.5 2.2 1
v 0.5 1 0.9
v 0.5 1.1 0.9
v 0.5 1.2 0.9
v 0.5 1.3 0.9
v 0.5 1.4 0.9
v 0.5 1.5 0.9
v 0.5 1 0.8
v 0.5 1.3 0.8
v 0.5 0.9 0.7
v 0.5 1 0.7
v 0.5 1.2 0.7
v 0.5 1.3 0.7
v 0.5 1.5 0.7
v 0.5 2.2 0.7
v 0.5 1.2 0.6
v 0.5 1.5 0.6
v 0.5 2 0.6
v 0.5 2.2 0.6
v 0.5 0.9 0.5
v 0.5 1 0.5
v 0.5 1.2 0.5
v 0.5 1.3 0.5
v 0.5 1.5 0.5
v 0.5 2 0.5
v 0.5 1 0.4
v 0.5 1.1 0.4
v 0.5 1.2 0.4
v 0.5 1.3 0.4
v 0.5 1.4 0.4
v 0.5 1.5 0.4
v 0.5 1.8 0.4
v 0.5 2 0.4
v 0.5 1.1 0.2
v 0.5 1.2 0.2
v 0.5 1.4 0.2
v 0.5 1.5 0.2
v 0.5 1.6 0.2
v 0.5 1.8 0.2
v 0.5 0.7 0.1
v 0.5 0.9 0.1
v 0.5 1 0.1
v 0.5 1.1 0.1
v 0.5 1.4 0.1
v 0.5 1.5 0.1
v 0.5 1.6 0.1
v 0.5 1.7 0.1
v 0.5 0.8 0
v 0.5 0.9 0
v 0.5 1 0
v 0.5 1.1 0
v 0.5 1.2 0
v 0.5 1.3 0
v 0.5 1.4 0
v 0.5 1.5 0
v 0.5 0.7 -0.1
v 0.5 0.8 -0.1
v 0.5 0.9 -0.1
v 0.5 1.2 -0.1
v 0.5 1.3 -0.1
v 0.5 1.6 -0.1
v 0.5 1.7 -0.1
v 0.5 1.6 -0.2
v 0.5 1.8 -0.2
v 0.5 1.8 -0.4
v 0.5 2 -0.4
v 0.5 0.9 -0.5
v 0.5 2 -0.5
v 0.5 2 -0.6
v 0.5 2.2 -0.6
v 0.5 0.9 -0.7
v 0.5 2.2 -0.7
v 0.5 0.7 -1
v 0.5 0.9 -1
v 0.5 1.3 -1
v 0.5 1.5 -1
v 0.5 1.6 -1
v 0.5 1.8 -1
v 0.5 1.9 -1
v 0.5 2.1 -1
v 0.5 2.2 -1
v 0.5 1.3 -1.1
v 0.5 1.5 -1.1
v 0.5 1.6 -1.1
v 0.5 1.8 -1.1
v 0.5 1.9 -1.1
v 0.5 2.1 -1.1
v 0.4 2.1 1.1
v 0.4 2.2 1.1
v 0.4 2.1 1
v 0.4 2.2 1
v 0.4 2.1 -1
v 0.4 2.2 -1
v 0.4 2.1 -1.1
v 0.4 2.2 -1.1
v 0.1 2.1 1.1
v 0.1 2.2 1.1
v 0.1 2.1 1
v 0.1 2.2 1
v 0.1 2.1 -1
v 0.1 2.2 -1
v 0.1 2.1 -1.1
v 0.1 2.2 -1.1
v -0.2 2.1 1.1
v -0.2 2.2 1.1
v -0.2 2.1 1
v -0.2 2.2 1
v -0.2 2.1 -1
v -0.2 2.2 -1
v -0.2 2.1 -1.1
v -0.2 2.2 -1.1
v -0.4 1.3 1.1
v -0.4 1.5 1.1
v -0.4 1.6 1.1
v -0.4 1.8 1.1
v -0.4 1.9 1.1
v -0.4 2.1 1.1
v -0.4 1.3 1
v -0.4 1.5 1
v -0.4 1.6 1
v -0.4 1.8 1
v -0.4 1.9 1
v -0.4 2.1 1
v -0.4 1.9 0.3
v -0.4 2.1 0.3
v -0.4 1.7 0.1
v -0.4 1.9 0.1
v -0.4 1.7 -0.1
v -0.4 1.9 -0.1
v -0.4 1.9 -0.3
v -0.4 2.1 -0.3
v -0.4 1.3 -1
v -0.4 1.5 -1
v -0.4 1.6 -1
v -0.4 1.8 -1
v -0.4 1.9 -1
v -0.4 2.1 -1
v -0.4 1.3 -1.1
v -0.4 1.5 -1.1
v -0.4 1.6 -1.1
v -0.4 1.8 -1.1
v -0.4 1.9 -1.1
v -0.4 2.1 -1.1
v -0.5 2.1 0.5
v -0.5 2.2 0.5
v -0.5 2.3 0.5
v -0.5 2.1 -0.5
v -0.5 2.2 -0.5
v -0.5 2.3 -0.5
v 0.4 1.3 1.1
v 0.4 1.5 1.1
v 0.4 1.6 1.1
v 0.4 1.8 1.1
v 0.4 1.9 1.1
v 0.4 2.1 1.1
v 0.4 1.3 1
v 0.4 1.5 1
v 0.4 1.6 1
v 0.4 1.8 1
v 0.4 1.9 1
v 0.4 2.1 1
v 0.4 1.3 -1
v 0.4 1.5 -1
v 0.4 1.6 -1
v 0.4 1.8 -1
v 0.4 1.9 -1
v 0.4 2.1 -1
v 0.4 1.3 -1.1
v 0.4 1.5 -1.1
v 0.4 1.6 -1.1
v 0.4 1.8 -1.1
v 0.4 1.9 -1.1
v 0.4 2.1 -1.1
v 0.2 2.1 1.1
v 0.2 2.2 1.1
v 0.2 2.1 1
v 0.2 2.2 1
v 0.2 2.1 -1
v 0.2 2.2 -1
v 0.2 2.1 -1.1
v 0.2 2.2 -1.1
v -0.1 2.1 1.1
v -0.1 2.2 1.1
v -0.1 2.1 1
v -0.1 2.2 1
v -0.1 2.1 -1
v -0.1 2.2 -1
v -0.1 2.1 -1.1
v -0.1 2.2 -1.1
v -0.4 2.1 1.1
v -0.4 2.2 1.1
v -0.4 2.1 1
v -0.4 2.2 1
v -0.4 2.1 -1
v -0.4 2.2 -1
v -0.4 2.1 -1.1
v -0.4 2.2 -1.1
v -0.5 1.3 1.1
v -0.5 1.5 1.1
v -0.5 1.6 1.1
v -0.5 1.8 1.1
v -0.5 1.9 1.1
v -0.5 2.1 1.1
v -0.5 0.7 1
v -0.5 0.9 1
v -0.5 1.3 1
v -0.5 1.5 1
v -0.5 1.6 1
v -0.5 1.8 1
v -0.5 1.9 1
v -0.5 2.1 1
v -0.5 2.2 1
v -0.5 0.9 0.7
v -0.5 2.2 0.7
v -0.5 2.1 0.6
v -0.5 2.2 0.6
v -0.5 0.9 0.5
v -0.5 2.1 0.5
v -0.5 0.9 -0.5
v -0.5 2.1 -0.5
v -0.5 2.1 -0.6
v -0.5 2.2 -0.6
v -0.5 0.9 -0.7
v -0.5 2.2 -0.7
v -0.5 0.7 -1
v -0.5 0.9 -1
v -0.5 1.3 -1
v -0.5 1.5 -1
v -0.5 1.6 -1
v -0.5 1.8 -1
v -0.5 1.9 -1
v -0.5 2.1 -1
v -0.5 2.2 -1
v -0.5 1.3 -1.1
v -0.5 1.5 -1.1
v -0.5 1.6 -1.1
v -0.5 1.8 -1.1
v -0.5 1.9 -1.1
v -0.5 2.1 -1.1
v -0.6 2.1 0.6
v -0.6 2.3 0.6
v -0.6 2.1 -0.6
v -0.6 2.3 -0.6
v 0.6 0.7 0.1
v 0.6 0.7 -0.1
v 0.5 0.7 1
v 0.5 0.7 0.1
v 0.5 0.7 -0.1
v 0.5 0.7 -1
v -0.5 0.7 1
v -0.5 0.7 -1
v 0.6 0.9 0
v 0.6 0.9 -0.1
v 0.5 0.9 0
v 0.5 0.9 -0.1
v 0.6 1 0.9
v 0.6 1 0.8
v 0.6 1 0.5
v 0.6 1 0.4
v 0.5 1 0.9
v 0.5 1 0.8
v 0.5 1 0.7
v 0.5 1 0.5
v 0.5 1 0.4
v 0.6 1.1 1
v 0.6 1.1 0.9
v 0.6 1.1 0.4
v 0.6 1.1 0.2
v 0.6 1.1 0.1
v 0.6 1.1 0
v 0.5 1.1 1
v 0.5 1.1 0.9
v 0.5 1.1 0.4
v 0.5 1.1 0.2
v 0.5 1.1 0.1
v 0.5 1.1 0
v 0.6 1.3 0.9
v 0.6 1.3 0.8
v 0.6 1.3 0.5
v 0.6 1.3 0.4
v 0.6 1.3 0
v 0.6 1.3 -0.1
v 0.5 1.3 1.1
v 0.5 1.3 1
v 0.5 1.3 0.9
v 0.5 1.3 0.8
v 0.5 1.3 0.7
v 0.5 1.3 0.5
v 0.5 1.3 0.4
v 0.5 1.3 0
v 0.5 1.3 -0.1
v 0.5 1.3 -1
v 0.5 1.3 -1.1
v 0.4 1.3 1.1
v 0.4 1.3 1
v 0.4 1.3 -1
v 0.4 1.3 -1.1
v -0.4 1.3 1.1
v -0.4 1.3 1
v -0.4 1.3 -1
v -0.4 1.3 -1.1
v -0.5 1.3 1.1
v -0.5 1.3 1
v -0.5 1.3 -1
v -0.5 1.3 -1.1
v 0.6 1.4 1
v 0.6 1.4 0.9
v 0.6 1.4 0.4
v 0.6 1.4 0.2
v 0.5 1.4 1
v 0.5 1.4 0.9
v 0.5 1.4 0.4
v 0.5 1.4 0.2
v 0.6 1.5 0.1
v 0.6 1.5 0
v 0.5 1.5 0.1
v 0.5 1.5 0
v 0.7 1.6 0.2
v 0.7 1.6 0.1
v 0.7 1.6 -0.1
v 0.7 1.6 -0.2
v 0.6 1.6 0.1
v 0.6 1.6 -0.1
v 0.5 1.6 1.1
v 0.5 1.6 1
v 0.5 1.6 0.2
v 0.5 1.6 0.1
v 0.5 1.6 -0.1
v 0.5 1.6 -0.2
v 0.5 1.6 -1
v 0.5 1.6 -1.1
v 0.4 1.6 1.1
v 0.4 1.6 1
v 0.4 1.6 -1
v 0.4 1.6 -1.1
v -0.4 1.6 1.1
v -0.4 1.6 1
v -0.4 1.6 -1
v -0.4 1.6 -1.1
v -0.5 1.6 1.1
v -0.5 1.6 1
v -0.5 1.6 -1
v -0.5 1.6 -1.1
v 0.7 1.8 0.4
v 0.7 1.8 0.2
v 0.7 1.8 -0.2
v 0.7 1.8 -0.4
v 0.5 1.8 0.4
v 0.5 1.8 0.2
v 0.5 1.8 -0.2
v 0.5 1.8 -0.4
v 0.5 1.9 1.1
v 0.5 1.9 1
v 0.5 1.9 -1
v 0.5 1.9 -1.1
v 0.4 1.9 1.1
v 0.4 1.9 1
v 0.4 1.9 -1
v 0.4 1.9 -1.1
v -0.4 1.9 1.1
v -0.4 1.9 1
v -0.4 1.9 -1
v -0.4 1.9 -1.1
v -0.5 1.9 1.1
v -0.5 1.9 1
v -0.5 1.9 -1
v -0.5 1.9 -1.1
v 0.7 2 0.6
v 0.7 2 0.4
v 0.7 2 -0.4
v 0.7 2 -0.6
v 0.5 2 0.6
v 0.5 2 0.5
v 0.5 2 0.4
v 0.5 2 -0.4
v 0.5 2 -0.5
v 0.5 2 -0.6
v 0.4 2.1 1.1
v 0.4 2.1 1
v 0.4 2.1 -1
v 0.4 2.1 -1.1
v 0.2 2.1 1.1
v 0.2 2.1 1
v 0.2 2.1 -1
v 0.2 2.1 -1.1
v 0.1 2.1 1.1
v 0.1 2.1 1
v 0.1 2.1 -1
v 0.1 2.1 -1.1
v -0.1 2.1 1.1
v -0.1 2.1 1
v -0.1 2.1 -1
v -0.1 2.1 -1.1
v -0.2 2.1 1.1
v -0.2 2.1 1
v -0.2 2.1 -1
v -0.2 2.1 -1.1
v -0.4 2.1 1.1
v -0.4 2.1 1
v -0.4 2.1 -1
v -0.4 2.1 -1.1
v -0.5 2.1 0.6
v -0.5 2.1 0.5
v -0.5 2.1 -0.5
v -0.5 2.1 -0.6
v -0.6 2.1 0.6
v -0.6 2.1 -0.6
v 0.6 0.8 0
v 0.6 0.8 -0.1
v 0.5 0.8 0
v 0.5 0.8 -0.1
v 0.6 1 0.1
v 0.6 1 0
v 0.5 1 0.1
v 0.5 1 0
v 0.6 1.2 1
v 0.6 1.2 0.9
v 0.6 1.2 0.6
v 0.6 1.2 0.4
v 0.6 1.2 0.2
v 0.6 1.2 0
v 0.6 1.2 -0.1
v 0.5 1.2 1
v 0.5 1.2 0.9
v 0.5 1.2 0.7
v 0.5 1.2 0.6
v 0.5 1.2 0.5
v 0.5 1.2 0.4
v 0.5 1.2 0.2
v 0.5 1.2 0
v 0.5 1.2 -0.1
v 0.6 1.4 0.1
v 0.6 1.4 0
v 0.5 1.4 0.1
v 0.5 1.4 0
v 0.6 1.5 1
v 0.6 1.5 0.9
v 0.6 1.5 0.6
v 0.6 1.5 0.4
v 0.6 1.5 0.2
v 0.5 1.5 1.1
v 0.5 1.5 1
v 0.5 1.5 0.9
v 0.5 1.5 0.7
v 0.5 1.5 0.6
v 0.5 1.5 0.5
v 0.5 1.5 0.4
v 0.5 1.5 0.2
v 0.5 1.5 -1
v 0.5 1.5 -1.1
v 0.4 1.5 1.1
v 0.4 1.5 1
v 0.4 1.5 -1
v 0.4 1.5 -1.1
v -0.4 1.5 1.1
v -0.4 1.5 1
v -0.4 1.5 -1
v -0.4 1.5 -1.1
v -0.5 1.5 1.1
v -0.5 1.5 1
v -0.5 1.5 -1
v -0.5 1.5 -1.1
v 0.6 1.6 0.1
v 0.6 1.6 -0.1
v 0.5 1.6 0.1
v 0.5 1.6 -0.1
v 0.5 1.7 0.1
v 0.5 1.7 -0.1
v 0.4 1.7 0.1
v 0.4 1.7 -0.1
v -0.4 1.7 0.1
v -0.4 1.7 -0.1
v 0.5 1.8 1.1
v 0.5 1.8 1
v 0.5 1.8 -1
v 0.5 1.8 -1.1
v 0.4 1.8 1.1
v 0.4 1.8 1
v 0.4 1.8 -1
v 0.4 1.8 -1.1
v -0.4 1.8 1.1
v -0.4 1.8 1
v -0.4 1.8 -1
v -0.4 1.8 -1.1
v -0.5 1.8 1.1
v -0.5 1.8 1
v -0.5 1.8 -1
v -0.5 1.8 -1.1
v 0.7 1.9 0.3
v 0.7 1.9 0.1
v 0.7 1.9 -0.1
v 0.7 1.9 -0.3
v -0.4 1.9 0.3
v -0.4 1.9 0.1
v -0.4 1.9 -0.1
v -0.4 1.9 -0.3
v 0.7 2.1 0.5
v 0.7 2.1 0.3
v 0.7 2.1 -0.3
v 0.7 2.1 -0.5
v 0.5 2.1 1.1
v 0.5 2.1 1
v 0.5 2.1 0.5
v 0.5 2.1 -0.5
v 0.5 2.1 -1
v 0.5 2.1 -1.1
v 0.4 2.1 1.1
v 0.4 2.1 1
v 0.4 2.1 -1
v 0.4 2.1 -1.1
v -0.4 2.1 1.1
v -0.4 2.1 1
v -0.4 2.1 0.3
v -0.4 2.1 -0.3
v -0.4 2.1 -1
v -0.4 2.1 -1.1
v -0.5 2.1 1.1
v -0.5 2.1 1
v -0.5 2.1 0.5
v -0.5 2.1 -0.5
v -0.5 2.1 -1
v -0.5 2.1 -1.1
v 0.5 2.2 1
v 0.5 2.2 0.7
v 0.5 2.2 0.6
v 0.5 2.2 -0.6
v 0.5 2.2 -0.7
v 0.5 2.2 -1
v 0.4 2.2 1.1
v 0.4 2.2 1
v 0.4 2.2 -1
v 0.4 2.2 -1.1
v 0.2 2.2 1.1
v 0.2 2.2 1
v 0.2 2.2 -1
v 0.2 2.2 -1.1
v 0.1 2.2 1.1
v 0.1 2.2 1
v 0.1 2.2 -1
v 0.1 2.2 -1.1
v -0.1 2.2 1.1
v -0.1 2.2 1
v -0.1 2.2 -1
v -0.1 2.2 -1.1
v -0.2 2.2 1.1
v -0.2 2.2 1
v -0.2 2.2 -1
v -0.2 2.2 -1.1
v -0.4 2.2 1.1
v -0.4 2.2 1
v -0.4 2.2 -1
v -0.4 2.2 -1.1
v -0.5 2.2 1
v -0.5 2.2 0.7
v -0.5 2.2 0.6
v -0.5 2.2 -0.6
v -0.5 2.2 -0.7
v -0.5 2.2 -1
v 0.7 2.3 0.6
v 0.7 2.3 0.5
v 0.7 2.3 -0.5
v 0.7 2.3 -0.6
v -0.5 2.3 0.5
v -0.5 2.3 -0.5
v -0.6 2.3 0.6
v -0.6 2.3 -0.6

# faces
f 5/2/1 2/2/1 1/2/1
f 6/2/1 2/2/1 5/2/1
f 7/2/1 4/2/1 3/2/1
f 8/2/1 4/2/1 7/2/1
f 13/2/1 10/2/1 9/2/1
f 14/2/1 10/2/1 13/2/1
f 15/2/1 12/2/1 11/2/1
f 16/2/1 12/2/1 15/2/1
f 21/2/1 18/2/1 17/2/1
f 22/2/1 18/2/1 21/2/1
f 27/2/1 20/2/1 19/2/1
f 28/2/1 20/2/1 27/2/1
f 29/2/1 23/2/1 22/2/1
f 30/2/1 23/2/1 29/2/1
f 31/2/1 25/2/1 24/2/1
f 32/2/1 25/2/1 31/2/1
f 33/2/1 27/2/1 26/2/1
f 34/2/1 27/2/1 33/2/1
f 37/1/1 36/1/1 35/1/1
f 38/1/1 36/1/1 37/1/1
f 40/2/1 38/2/1 37/2/1
f 41/4/1 40/4/1 39/4/1
f 42/2/1 38/2/1 40/2/1
f 42/4/1 40/4/1 41/4/1
f 43/2/1 38/2/1 42/2/1
f 44/2/1 38/2/1 43/2/1
f 45/2/1 38/2/1 44/2/1
f 46/2/1 38/2/1 45/2/1
f 49/4/1 48/4/1 47/4/1
f 50/4/1 48/4/1 49/4/1
f 51/2/1 45/2/1 44/2/1
f 52/2/1 45/2/1 51/2/1
f 54/2/1 53/2/1 52/2/1
f 54/2/1 52/2/1 51/2/1
f 54/2/1 51/2/1 50/2/1
f 55/2/1 53/2/1 54/2/1
f 56/2/1 53/2/1 55/2/1
f 57/2/1 53/2/1 56/2/1
f 59/2/1 56/2/1 55/2/1
f 60/2/1 56/2/1 59/2/1
f 62/2/1 59/2/1 58/2/1
f 62/2/1 61/2/1 60/2/1
f 62/2/1 60/2/1 59/2/1
f 63/2/1 61/2/1 62/2/1
f 64/2/1 61/2/1 63/2/1
f 65/2/1 61/2/1 64/2/1
f 67/2/1 64/2/1 63/2/1
f 68/2/1 64/2/1 67/2/1
f 69/2/1 64/2/1 68/2/1
f 70/2/1 64/2/1 69/2/1
f 71/2/1 64/2/1 70/2/1
f 72/2/1 64/2/1 71/2/1
f 74/2/1 67/2/1 66/2/1
f 75/2/1 67/2/1 74/2/1
f 76/2/1 69/2/1 68/2/1
f 77/2/1 69/2/1 76/2/1
f 78/2/1 71/2/1 70/2/1
f 79/2/1 71/2/1 78/2/1
f 80/2/1 73/2/1 72/2/1
f 81/2/1 73/2/1 80/2/1
f 84/4/1 83/4/1 82/4/1
f 85/4/1 83/4/1 84/4/1
f 88/4/1 87/4/1 86/4/1
f 89/4/1 87/4/1 88/4/1
f 94/2/1 91/2/1 90/2/1
f 95/2/1 93/2/1 92/2/1
f 96/2/1 94/2/1 90/2/1
f 96/2/1 95/2/1 94/2/1
f 97/2/1 93/2/1 95/2/1
f 97/2/1 95/2/1 96/2/1
f 100/2/1 99/2/1 98/2/1
f 101/2/1 99/2/1 100/2/1
f 104/2/1 103/2/1 102/2/1
f 105/2/1 103/2/1 104/2/1
f 108/2/1 107/2/1 106/2/1
f 109/2/1 108/2/1 106/2/1
f 110/2/1 108/2/1 109/2/1
f 113/2/1 112/2/1 111/2/1
f 114/2/1 112/2/1 113/2/1
f 117/2/1 116/2/1 115/2/1
f 118/2/1 116/2/1 117/2/1
f 121/2/1 120/2/1 119/2/1
f 122/2/1 120/2/1 121/2/1
f 125/2/1 124/2/1 123/2/1
f 126/2/1 124/2/1 125/2/1
f 130/2/1 128/2/1 127/2/1
f 130/2/1 129/2/1 128/2/1
f 133/2/1 130/2/1 127/2/1
f 133/2/1 132/2/1 131/2/1
f 133/2/1 131/2/1 130/2/1
f 134/2/1 132/2/1 133/2/1
f 137/2/1 136/2/1 135/2/1
f 138/2/1 136/2/1 137/2/1
f 142/2/1 140/2/1 139/2/1
f 142/1/1 141/1/1 140/1/1
f 143/1/1 141/1/1 142/1/1
f 144/2/1 142/2/1 139/2/1
f 144/2/1 143/2/1 142/2/1
f 145/2/1 143/2/1 144/2/1
f 146/2/2 147/2/2 149/2/2
f 147/1/2 148/1/2 149/1/2
f 149/1/2 148/1/2 150/1/2
f 146/2/2 149/2/2 151/2/2
f 149/2/2 150/2/2 151/2/2
f 151/2/2 150/2/2 152/2/2
f 153/4/2 154/4/2 155/4/2
f 155/4/2 154/4/2 156/4/2
f 157/4/2 158/4/2 159/4/2
f 159/4/2 158/4/2 160/4/2
f 161/2/2 162/2/2 163/2/2
f 163/2/2 162/2/2 164/2/2
f 165/3/2 166/3/2 167/3/2
f 167/3/2 166/3/2 168/3/2
f 169/3/2 170/3/2 171/3/2
f 171/3/2 170/3/2 172/3/2
f 173/2/2 174/2/2 176/2/2
f 174/2/2 175/2/2 176/2/2
f 173/2/2 176/2/2 179/2/2
f 177/2/2 178/2/2 179/2/2
f 176/2/2 177/2/2 179/2/2
f 179/2/2 178/2/2 180/2/2
f 181/2/2 182/2/2 183/2/2
f 183/2/2 182/2/2 184/2/2
f 185/2/2 186/2/2 187/2/2
f 187/2/2 186/2/2 188/2/2
f 189/2/2 190/2/2 191/2/2
f 191/2/2 190/2/2 192/2/2
f 193/2/2 194/2/2 195/2/2
f 195/2/2 194/2/2 196/2/2
f 197/2/2 198/2/2 199/2/2
f 199/2/2 198/2/2 200/2/2
f 201/2/2 202/2/2 203/2/2
f 203/2/2 202/2/2 204/2/2
f 205/2/2 206/2/2 207/2/2
f 207/2/2 206/2/2 208/2/2
f 209/2/2 210/2/2 213/2/2
f 211/2/2 212/2/2 214/2/2
f 209/2/2 213/2/2 215/2/2
f 213/2/2 214/2/2 215/2/2
f 214/2/2 212/2/2 216/2/2
f 215/2/2 214/2/2 216/2/2
f 217/1/2 218/1/2 219/1/2
f 219/1/2 218/1/2 220/1/2
f 219/2/2 220/2/2 221/2/2
f 221/2/2 220/2/2 222/2/2
f 222/2/2 220/2/2 223/2/2
f 223/2/2 220/2/2 224/2/2
f 222/2/2 223/2/2 226/2/2
f 226/2/2 223/2/2 227/2/2
f 225/2/2 226/2/2 229/2/2
f 227/2/2 228/2/2 229/2/2
f 226/2/2 227/2/2 229/2/2
f 229/2/2 228/2/2 230/2/2
f 230/2/2 228/2/2 231/2/2
f 231/2/2 228/2/2 232/2/2
f 230/2/2 231/2/2 234/2/2
f 234/2/2 231/2/2 235/2/2
f 233/2/2 234/2/2 237/2/2
f 235/2/2 236/2/2 237/2/2
f 234/2/2 235/2/2 237/2/2
f 237/2/2 236/2/2 238/2/2
f 238/2/2 236/2/2 239/2/2
f 239/2/2 236/2/2 240/2/2
f 238/2/2 239/2/2 242/2/2
f 242/2/2 239/2/2 243/2/2
f 243/2/2 239/2/2 244/2/2
f 244/2/2 239/2/2 245/2/2
f 245/2/2 239/2/2 246/2/2
f 246/2/2 239/2/2 247/2/2
f 241/2/2 242/2/2 249/2/2
f 249/2/2 242/2/2 250/2/2
f 243/2/2 244/2/2 251/2/2
f 251/2/2 244/2/2 252/2/2
f 245/2/2 246/2/2 253/2/2
f 253/2/2 246/2/2 254/2/2
f 247/2/2 248/2/2 255/2/2
f 255/2/2 248/2/2 256/2/2
f 257/2/2 258/2/2 261/2/2
f 261/2/2 258/2/2 262/2/2
f 259/2/2 260/2/2 263/2/2
f 263/2/2 260/2/2 264/2/2
f 265/2/2 266/2/2 269/2/2
f 269/2/2 266/2/2 270/2/2
f 267/2/2 268/2/2 271/2/2
f 271/2/2 268/2/2 272/2/2
f 273/2/2 274/2/2 277/2/2
f 277/2/2 274/2/2 278/2/2
f 275/2/2 276/2/2 283/2/2
f 283/2/2 276/2/2 284/2/2
f 278/2/2 279/2/2 285/2/2
f 285/2/2 279/2/2 286/2/2
f 280/2/2 281/2/2 287/2/2
f 287/2/2 281/2/2 288/2/2
f 282/2/2 283/2/2 289/2/2
f 289/2/2 283/2/2 290/2/2
f 293/2/3 292/2/3 291/2/3
f 294/2/3 292/2/3 293/2/3
f 296/2/3 293/2/3 291/2/3
f 297/2/3 296/2/3 295/2/3
f 298/2/3 293/2/3 296/2/3
f 298/2/3 296/2/3 297/2/3
f 300/2/3 297/2/3 295/2/3
f 301/2/3 300/2/3 299/2/3
f 302/2/3 297/2/3 300/2/3
f 302/2/3 300/2/3 301/2/3
f 305/2/3 304/2/3 303/2/3
f 306/2/3 304/2/3 305/2/3
f 307/2/3 304/2/3 306/2/3
f 309/2/3 307/2/3 306/2/3
f 309/2/3 308/2/3 307/2/3
f 310/2/3 308/2/3 309/2/3
f 311/2/3 308/2/3 310/2/3
f 313/2/3 311/2/3 310/2/3
f 313/2/3 312/2/3 311/2/3
f 314/2/3 312/2/3 313/2/3
f 320/4/3 316/4/3 315/4/3
f 321/4/3 316/4/3 320/4/3
f 323/4/3 318/4/3 317/4/3
f 324/4/3 318/4/3 323/4/3
f 325/4/3 320/4/3 319/4/3
f 326/3/3 321/3/3 320/3/3
f 326/4/3 320/4/3 325/4/3
f 327/4/3 323/4/3 322/4/3
f 328/3/3 324/3/3 323/3/3
f 328/4/3 323/4/3 327/4/3
f 329/3/3 321/3/3 326/3/3
f 329/3/3 326/3/3 325/3/3
f 330/3/3 321/3/3 329/3/3
f 331/3/3 324/3/3 328/3/3
f 331/3/3 328/3/3 327/3/3
f 332/3/3 324/3/3 331/3/3
f 333/3/3 329/3/3 325/3/3
f 334/4/3 330/4/3 329/4/3
f 334/3/3 329/3/3 333/3/3
f 335/3/3 331/3/3 327/3/3
f 336/4/3 332/4/3 331/4/3
f 336/3/3 331/3/3 335/3/3
f 337/4/3 334/4/3 333/4/3
f 338/4/3 330/4/3 334/4/3
f 338/4/3 334/4/3 337/4/3
f 339/4/3 330/4/3 338/4/3
f 340/4/3 336/4/3 335/4/3
f 341/4/3 332/4/3 336/4/3
f 341/4/3 336/4/3 340/4/3
f 342/4/3 332/4/3 341/4/3
f 343/3/3 339/3/3 338/3/3
f 344/3/3 339/3/3 343/3/3
f 345/3/3 342/3/3 341/3/3
f 346/3/3 342/3/3 345/3/3
f 353/2/3 348/2/3 347/2/3
f 354/2/3 348/2/3 353/2/3
f 355/2/3 348/2/3 354/2/3
f 356/2/3 350/2/3 349/2/3
f 357/2/3 350/2/3 356/2/3
f 358/2/3 350/2/3 357/2/3
f 359/2/3 350/2/3 358/2/3
f 360/2/3 352/2/3 351/2/3
f 361/2/3 353/2/3 347/2/3
f 362/2/3 353/2/3 361/2/3
f 363/2/3 355/2/3 354/2/3
f 363/2/3 356/2/3 355/2/3
f 363/2/3 357/2/3 356/2/3
f 364/2/3 357/2/3 363/2/3
f 365/2/3 359/2/3 358/2/3
f 365/2/3 360/2/3 359/2/3
f 366/2/3 352/2/3 360/2/3
f 366/2/3 360/2/3 365/2/3
f 377/2/3 368/2/3 367/2/3
f 378/2/3 368/2/3 377/2/3
f 379/2/3 368/2/3 378/2/3
f 380/2/3 370/2/3 369/2/3
f 381/2/3 370/2/3 380/2/3
f 382/2/3 372/2/3 371/2/3
f 383/2/3 372/2/3 382/2/3
f 385/2/3 375/2/3 374/2/3
f 386/2/3 375/2/3 385/2/3
f 387/2/3 377/2/3 376/2/3
f 387/2/3 378/2/3 377/2/3
f 388/2/3 378/2/3 387/2/3
f 389/2/3 378/2/3 388/2/3
f 390/2/3 384/2/3 383/2/3
f 390/2/3 383/2/3 382/2/3
f 390/2/3 381/2/3 380/2/3
f 390/2/3 380/2/3 379/2/3
f 390/2/3 382/2/3 381/2/3
f 391/2/3 385/2/3 374/2/3
f 392/2/3 388/2/3 387/2/3
f 393/2/3 391/2/3 374/2/3
f 393/1/3 374/1/3 373/1/3
f 394/2/3 391/2/3 393/2/3
f 395/2/3 392/2/3 387/2/3
f 396/2/3 392/2/3 395/2/3
f 397/2/3 384/2/3 390/2/3
f 398/2/3 384/2/3 397/2/3
f 399/1/3 396/1/3 395/1/3
f 400/1/3 398/1/3 397/1/3
f 401/1/3 398/1/3 400/1/3
f 402/1/3 398/1/3 401/1/3
f 403/1/3 394/1/3 393/1/3
f 403/1/3 393/1/3 373/1/3
f 404/1/3 394/1/3 403/1/3
f 405/1/3 396/1/3 399/1/3
f 406/1/3 396/1/3 405/1/3
f 407/1/3 401/1/3 400/1/3
f 408/1/3 401/1/3 407/1/3
f 409/2/3 404/2/3 403/2/3
f 411/2/3 406/2/3 405/2/3
f 412/2/3 406/2/3 411/2/3
f 414/2/3 408/2/3 407/2/3
f 415/2/3 408/2/3 414/2/3
f 416/2/3 408/2/3 415/2/3
f 417/2/3 410/2/3 409/2/3
f 418/2/3 413/2/3 412/2/3
f 418/2/3 412/2/3 411/2/3
f 419/2/3 413/2/3 418/2/3
f 420/2/3 415/2/3 414/2/3
f 421/2/3 415/2/3 420/2/3
f 422/2/3 415/2/3 421/2/3
f 423/1/3 403/1/3 373/1/3
f 424/2/3 417/2/3 409/2/3
f 424/1/3 403/1/3 423/1/3
f 424/2/3 409/2/3 403/2/3
f 424/2/3 421/2/3 420/2/3
f 424/2/3 420/2/3 419/2/3
f 424/2/3 419/2/3 418/2/3
f 424/2/3 418/2/3 417/2/3
f 425/2/3 421/2/3 424/2/3
f 426/2/3 421/2/3 425/2/3
f 427/2/3 421/2/3 426/2/3
f 428/2/3 421/2/3 427/2/3
f 429/2/3 421/2/3 428/2/3
f 433/1/3 426/1/3 425/1/3
f 434/1/3 426/1/3 433/1/3
f 437/1/3 428/1/3 427/1/3
f 438/1/3 428/1/3 437/1/3
f 440/1/3 432/1/3 431/1/3
f 441/1/3 432/1/3 440/1/3
f 442/1/3 436/1/3 435/1/3
f 443/1/3 436/1/3 442/1/3
f 444/1/3 430/1/3 429/1/3
f 445/1/3 430/1/3 444/1/3
f 446/2/3 443/2/3 442/2/3
f 446/2/3 442/2/3 441/2/3
f 446/2/3 444/2/3 443/2/3
f 448/2/3 447/2/3 446/2/3
f 450/2/3 448/2/3 446/2/3
f 450/2/3 449/2/3 448/2/3
f 450/2/3 446/2/3 441/2/3
f 450/1/3 440/1/3 439/1/3
f 450/1/3 441/1/3 440/1/3
f 451/2/3 449/2/3 450/2/3
f 452/1/3 451/1/3 450/1/3
f 454/1/3 452/1/3 450/1/3
f 454/1/3 453/1/3 452/1/3
f 454/1/3 450/1/3 439/1/3
f 455/1/3 453/1/3 454/1/3
f 456/1/3 454/1/3 439/1/3
f 457/2/3 455/2/3 454/2/3
f 457/1/3 454/1/3 456/1/3
f 458/2/3 455/2/3 457/2/3
f 459/2/3 455/2/3 458/2/3
f 460/2/3 455/2/3 459/2/3
f 461/2/3 455/2/3 460/2/3
f 462/2/3 455/2/3 461/2/3
f 463/2/3 455/2/3 462/2/3
f 464/2/3 455/2/3 463/2/3
f 465/2/3 459/2/3 458/2/3
f 466/2/3 459/2/3 465/2/3
f 467/2/3 461/2/3 460/2/3
f 468/2/3 461/2/3 467/2/3
f 469/2/3 463/2/3 462/2/3
f 470/2/3 463/2/3 469/2/3
f 473/2/3 472/2/3 471/2/3
f 474/2/3 472/2/3 473/2/3
f 477/2/3 476/2/3 475/2/3
f 478/2/3 476/2/3 477/2/3
f 481/2/3 480/2/3 479/2/3
f 482/2/3 480/2/3 481/2/3
f 485/2/3 484/2/3 483/2/3
f 486/2/3 484/2/3 485/2/3
f 489/2/3 488/2/3 487/2/3
f 490/2/3 488/2/3 489/2/3
f 493/2/3 492/2/3 491/2/3
f 494/2/3 492/2/3 493/2/3
f 501/2/3 496/2/3 495/2/3
f 502/2/3 496/2/3 501/2/3
f 503/2/3 498/2/3 497/2/3
f 504/2/3 498/2/3 503/2/3
f 505/2/3 500/2/3 499/2/3
f 506/2/3 500/2/3 505/2/3
f 510/2/3 508/2/3 507/2/3
f 511/2/3 510/2/3 509/2/3
f 512/2/3 508/2/3 510/2/3
f 512/2/3 510/2/3 511/2/3
f 513/2/3 508/2/3 512/2/3
f 514/2/3 508/2/3 513/2/3
f 521/2/3 516/2/3 515/2/3
f 522/2/3 516/2/3 521/2/3
f 523/2/3 518/2/3 517/2/3
f 524/2/3 518/2/3 523/2/3
f 525/2/3 520/2/3 519/2/3
f 526/2/3 520/2/3 525/2/3
f 530/2/3 528/2/3 527/2/3
f 530/2/3 529/2/3 528/2/3
f 531/2/3 529/2/3 530/2/3
f 532/2/3 529/2/3 531/2/3
f 533/2/4 534/2/4 539/2/4
f 539/2/4 534/2/4 540/2/4
f 535/2/4 536/2/4 541/2/4
f 541/2/4 536/2/4 542/2/4
f 537/2/4 538/2/4 543/2/4
f 543/2/4 538/2/4 544/2/4
f 545/2/4 546/2/4 551/2/4
f 551/2/4 546/2/4 552/2/4
f 547/2/4 548/2/4 553/2/4
f 553/2/4 548/2/4 554/2/4
f 549/2/4 550/2/4 555/2/4
f 555/2/4 550/2/4 556/2/4
f 557/2/4 558/2/4 559/2/4
f 559/2/4 558/2/4 560/2/4
f 561/2/4 562/2/4 563/2/4
f 563/2/4 562/2/4 564/2/4
f 565/2/4 566/2/4 567/2/4
f 567/2/4 566/2/4 568/2/4
f 569/2/4 570/2/4 571/2/4
f 571/2/4 570/2/4 572/2/4
f 573/2/4 574/2/4 575/2/4
f 575/2/4 574/2/4 576/2/4
f 577/2/4 578/2/4 579/2/4
f 579/2/4 578/2/4 580/2/4
f 581/2/4 582/2/4 589/2/4
f 589/2/4 582/2/4 590/2/4
f 583/2/4 584/2/4 591/2/4
f 591/2/4 584/2/4 592/2/4
f 585/2/4 586/2/4 593/2/4
f 593/2/4 586/2/4 594/2/4
f 587/1/4 588/1/4 596/1/4
f 594/2/4 595/2/4 596/2/4
f 593/2/4 594/2/4 596/2/4
f 592/2/4 593/2/4 596/2/4
f 589/2/4 590/2/4 596/2/4
f 590/2/4 591/2/4 596/2/4
f 591/2/4 592/2/4 596/2/4
f 588/2/4 589/2/4 596/2/4
f 596/2/4 595/2/4 597/2/4
f 596/1/4 597/1/4 598/1/4
f 598/1/4 597/1/4 599/1/4
f 587/1/4 596/1/4 600/1/4
f 596/1/4 598/1/4 600/1/4
f 600/1/4 598/1/4 601/1/4
f 587/1/4 600/1/4 602/1/4
f 600/2/4 601/2/4 602/2/4
f 602/2/4 601/2/4 603/2/4
f 602/1/4 603/1/4 604/1/4
f 602/1/4 604/1/4 606/1/4
f 604/1/4 605/1/4 606/1/4
f 587/1/4 602/1/4 606/1/4
f 606/1/4 605/1/4 607/1/4
f 587/1/4 606/1/4 608/1/4
f 606/2/4 607/2/4 609/2/4
f 608/1/4 606/1/4 609/1/4
f 609/2/4 607/2/4 610/2/4
f 610/2/4 607/2/4 611/2/4
f 611/2/4 607/2/4 612/2/4
f 612/2/4 607/2/4 613/2/4
f 613/2/4 607/2/4 614/2/4
f 614/2/4 607/2/4 615/2/4
f 615/2/4 607/2/4 616/2/4
f 610/2/4 611/2/4 617/2/4
f 617/2/4 611/2/4 618/2/4
f 612/2/4 613/2/4 619/2/4
f 619/2/4 613/2/4 620/2/4
f 614/2/4 615/2/4 621/2/4
f 621/2/4 615/2/4 622/2/4
f 623/2/4 624/2/4 625/2/4
f 625/2/4 624/2/4 626/2/4
f 630/2/5 628/2/5 627/2/5
f 631/2/5 628/2/5 630/2/5
f 633/1/5 630/1/5 629/1/5
f 633/1/5 632/1/5 631/1/5
f 633/1/5 631/1/5 630/1/5
f 634/1/5 632/1/5 633/1/5
f 637/2/5 636/2/5 635/2/5
f 638/2/5 636/2/5 637/2/5
f 643/4/5 640/4/5 639/4/5
f 644/3/5 641/3/5 640/3/5
f 644/4/5 640/4/5 643/4/5
f 645/3/5 641/3/5 644/3/5
f 646/4/5 642/4/5 641/4/5
f 646/3/5 641/3/5 645/3/5
f 647/4/5 642/4/5 646/4/5
f 654/4/5 649/4/5 648/4/5
f 655/4/5 649/4/5 654/4/5
f 656/3/5 651/3/5 650/3/5
f 657/3/5 651/3/5 656/3/5
f 658/2/5 653/2/5 652/2/5
f 659/2/5 653/2/5 658/2/5
f 668/4/5 661/4/5 660/4/5
f 669/3/5 662/3/5 661/3/5
f 669/4/5 661/4/5 668/4/5
f 670/3/5 662/3/5 669/3/5
f 671/4/5 663/4/5 662/4/5
f 671/3/5 662/3/5 670/3/5
f 672/4/5 663/4/5 671/4/5
f 673/2/5 665/2/5 664/2/5
f 674/2/5 665/2/5 673/2/5
f 677/2/5 667/2/5 666/2/5
f 678/2/5 667/2/5 677/2/5
f 679/2/5 676/2/5 675/2/5
f 680/2/5 676/2/5 679/2/5
f 685/2/5 682/2/5 681/2/5
f 686/2/5 682/2/5 685/2/5
f 687/2/5 684/2/5 683/2/5
f 688/2/5 684/2/5 687/2/5
f 693/4/5 690/4/5 689/4/5
f 694/4/5 690/4/5 693/4/5
f 695/3/5 692/3/5 691/3/5
f 696/3/5 692/3/5 695/3/5
f 699/2/5 698/2/5 697/2/5
f 700/2/5 698/2/5 699/2/5
f 705/2/5 702/2/5 701/2/5
f 706/2/5 704/2/5 703/2/5
f 709/2/5 705/2/5 701/2/5
f 710/2/5 705/2/5 709/2/5
f 711/2/5 704/2/5 706/2/5
f 712/2/5 704/2/5 711/2/5
f 715/2/5 708/2/5 707/2/5
f 716/2/5 708/2/5 715/2/5
f 717/2/5 714/2/5 713/2/5
f 718/2/5 714/2/5 717/2/5
f 723/2/5 720/2/5 719/2/5
f 724/2/5 720/2/5 723/2/5
f 725/2/5 722/2/5 721/2/5
f 726/2/5 722/2/5 725/2/5
f 731/2/5 728/2/5 727/2/5
f 732/2/5 728/2/5 731/2/5
f 733/2/5 730/2/5 729/2/5
f 734/2/5 730/2/5 733/2/5
f 739/2/5 736/2/5 735/2/5
f 740/2/5 736/2/5 739/2/5
f 741/2/5 738/2/5 737/2/5
f 742/2/5 738/2/5 741/2/5
f 747/2/5 744/2/5 743/2/5
f 748/2/5 744/2/5 747/2/5
f 749/2/5 746/2/5 745/2/5
f 750/2/5 746/2/5 749/2/5
f 755/2/5 752/2/5 751/2/5
f 756/2/5 752/2/5 755/2/5
f 757/2/5 752/2/5 756/2/5
f 758/2/5 754/2/5 753/2/5
f 759/2/5 754/2/5 758/2/5
f 760/2/5 754/2/5 759/2/5
f 765/2/5 762/2/5 761/2/5
f 766/2/5 762/2/5 765/2/5
f 767/2/5 764/2/5 763/2/5
f 768/2/5 764/2/5 767/2/5
f 773/2/5 770/2/5 769/2/5
f 774/2/5 770/2/5 773/2/5
f 775/2/5 772/2/5 771/2/5
f 776/2/5 772/2/5 775/2/5
f 781/2/5 778/2/5 777/2/5
f 782/2/5 778/2/5 781/2/5
f 783/2/5 780/2/5 779/2/5
f 784/2/5 780/2/5 783/2/5
f 789/2/5 786/2/5 785/2/5
f 789/2/5 788/2/5 787/2/5
f 789/2/5 787/2/5 786/2/5
f 790/2/5 788/2/5 789/2/5
f 791/2/6 792/2/6 793/2/6
f 793/2/6 792/2/6 794/2/6
f 795/2/6 796/2/6 797/2/6
f 797/2/6 796/2/6 798/2/6
f 799/4/6 800/4/6 806/4/6
f 800/3/6 801/3/6 807/3/6
f 806/4/6 800/4/6 807/4/6
f 807/3/6 801/3/6 808/3/6
f 801/4/6 802/4/6 809/4/6
f 808/3/6 801/3/6 809/3/6
f 809/4/6 802/4/6 810/4/6
f 802/3/6 803/3/6 811/3/6
f 810/4/6 802/4/6 811/4/6
f 811/3/6 803/3/6 812/3/6
f 804/2/6 805/2/6 813/2/6
f 813/2/6 805/2/6 814/2/6
f 815/2/6 816/2/6 817/2/6
f 817/2/6 816/2/6 818/2/6
f 819/4/6 820/4/6 825/4/6
f 820/3/6 821/3/6 826/3/6
f 825/4/6 820/4/6 826/4/6
f 826/3/6 821/3/6 827/3/6
f 821/4/6 822/4/6 828/4/6
f 827/3/6 821/3/6 828/3/6
f 828/4/6 822/4/6 829/4/6
f 822/3/6 823/3/6 830/3/6
f 829/4/6 822/4/6 830/4/6
f 830/3/6 823/3/6 831/3/6
f 824/2/6 825/2/6 834/2/6
f 834/2/6 825/2/6 835/2/6
f 832/2/6 833/2/6 836/2/6
f 836/2/6 833/2/6 837/2/6
f 838/2/6 839/2/6 842/2/6
f 842/2/6 839/2/6 843/2/6
f 840/2/6 841/2/6 844/2/6
f 844/2/6 841/2/6 845/2/6
f 846/2/6 847/2/6 848/2/6
f 848/2/6 847/2/6 849/2/6
f 850/1/6 851/1/6 852/1/6
f 852/1/6 851/1/6 853/1/6
f 852/2/6 853/2/6 854/2/6
f 854/2/6 853/2/6 855/2/6
f 856/2/6 857/2/6 860/2/6
f 860/2/6 857/2/6 861/2/6
f 858/2/6 859/2/6 862/2/6
f 862/2/6 859/2/6 863/2/6
f 864/2/6 865/2/6 868/2/6
f 868/2/6 865/2/6 869/2/6
f 866/2/6 867/2/6 870/2/6
f 870/2/6 867/2/6 871/2/6
f 872/2/6 873/2/6 876/2/6
f 876/2/6 873/2/6 877/2/6
f 874/2/6 875/2/6 878/2/6
f 878/2/6 875/2/6 879/2/6
f 880/2/6 881/2/6 886/2/6
f 882/2/6 883/2/6 887/2/6
f 884/2/6 885/2/6 890/2/6
f 890/2/6 885/2/6 891/2/6
f 888/2/6 889/2/6 892/2/6
f 892/2/6 889/2/6 893/2/6
f 886/2/6 881/2/6 896/2/6
f 882/2/6 887/2/6 897/2/6
f 894/2/6 895/2/6 900/2/6
f 900/2/6 895/2/6 901/2/6
f 886/2/6 896/2/6 902/2/6
f 896/2/6 897/2/6 902/2/6
f 897/2/6 887/2/6 903/2/6
f 902/2/6 897/2/6 903/2/6
f 898/2/6 899/2/6 904/2/6
f 904/2/6 899/2/6 905/2/6
f 906/2/6 907/2/6 913/2/6
f 910/2/6 911/2/6 914/2/6
f 912/2/6 913/2/6 916/2/6
f 913/2/6 907/2/6 917/2/6
f 916/2/6 913/2/6 917/2/6
f 914/2/6 915/2/6 918/2/6
f 910/2/6 914/2/6 918/2/6
f 918/2/6 915/2/6 919/2/6
f 917/2/6 907/2/6 921/2/6
f 910/2/6 918/2/6 922/2/6
f 920/2/6 921/2/6 924/2/6
f 921/2/6 907/2/6 925/2/6
f 924/2/6 921/2/6 925/2/6
f 922/2/6 923/2/6 926/2/6
f 910/2/6 922/2/6 926/2/6
f 926/2/6 923/2/6 927/2/6
f 925/2/6 907/2/6 929/2/6
f 910/2/6 926/2/6 930/2/6
f 928/2/6 929/2/6 932/2/6
f 929/2/6 907/2/6 933/2/6
f 932/2/6 929/2/6 933/2/6
f 930/2/6 931/2/6 934/2/6
f 910/2/6 930/2/6 934/2/6
f 934/2/6 931/2/6 935/2/6
f 933/2/6 907/2/6 936/2/6
f 907/1/6 908/1/6 937/1/6
f 936/2/6 907/2/6 937/2/6
f 937/1/6 908/1/6 938/1/6
f 909/1/6 910/1/6 939/1/6
f 910/2/6 934/2/6 940/2/6
f 939/1/6 910/1/6 940/1/6
f 940/2/6 934/2/6 941/2/6
f 942/2/6 943/2/6 946/2/6
f 944/2/6 945/2/6 947/2/6
f 942/2/6 946/2/6 948/2/6
f 946/2/6 947/2/6 948/2/6
f 947/2/6 945/2/6 949/2/6
f 948/2/6 947/2/6 949/2/6
