# MagicaVoxel @ Ephtracy

# group
o 

# material
mtllib model-0.mtl
usemtl palette

# normals
vn 0 0 1
vn 0 0 -1
vn 1 0 0
vn -1 0 0
vn 0 -1 0
vn 0 1 0

# texcoords
vt 0.0214844 0.5
vt 0.0996094 0.5
vt 0.251953 0.5
vt 0.283203 0.5
vt 0.513672 0.5
vt 0.517578 0.5
vt 0.521484 0.5
vt 0.759766 0.5

# verts
v 0.5 0 1
v -0.5 0 1
v 0.5 0.1 1
v -0.5 0.1 1
v 0.5 0.7 1
v -0.5 0.7 1
v 0.5 0 0.2
v 0.4 0 0.2
v 0.5 0.1 0.2
v 0.4 0.1 0.2
v 0.4 0.3 0.2
v 0.5 0.4 0.2
v 0.4 0.4 0.2
v 0.5 0.1 -0.1
v 0.4 0.1 -0.1
v 0.5 0.2 -0.1
v 0.4 0.2 -0.1
v 0.5 0.3 -0.1
v 0.4 0.3 -0.1
v 0.5 0.2 -0.3
v 0.4 0.2 -0.3
v 0.4 0.3 -0.3
v 0.5 0.7 -0.3
v 0.4 0.7 -0.3
v 0.5 0 -0.5
v 0.4 0 -0.5
v 0.4 0.1 -0.5
v 0.5 0.2 -0.5
v 0.4 0.2 -0.5
v 0.4 0 -0.9
v -0.4 0 -0.9
v 0.4 0.1 -0.9
v -0.4 0.1 -0.9
v 0.4 0 0.9
v -0.4 0 0.9
v 0.4 0.1 0.9
v -0.4 0.1 0.9
v 0.5 0 0.5
v 0.4 0 0.5
v 0.4 0.1 0.5
v 0.5 0.2 0.5
v 0.4 0.2 0.5
v 0.5 0.2 0.3
v 0.4 0.2 0.3
v 0.4 0.3 0.3
v 0.5 0.7 0.3
v 0.4 0.7 0.3
v 0.5 0.1 0.1
v 0.4 0.1 0.1
v 0.5 0.3 0.1
v 0.4 0.3 0.1
v 0.5 0 -0.2
v 0.4 0 -0.2
v 0.4 0.1 -0.2
v 0.5 0.2 -0.2
v 0.4 0.2 -0.2
v 0.4 0.3 -0.2
v 0.5 0.4 -0.2
v 0.4 0.4 -0.2
v 0.5 0 -1
v -0.5 0 -1
v 0.5 0.1 -1
v -0.5 0.1 -1
v 0.5 0.7 -1
v -0.5 0.7 -1
v 0.5 0 1
v 0.5 0.1 1
v 0.5 0.7 1
v 0.5 0.1 0.6
v 0.5 0.3 0.6
v 0.5 0.5 0.6
v 0.5 0.6 0.6
v 0.5 0 0.5
v 0.5 0.2 0.5
v 0.5 0.5 0.5
v 0.5 0.6 0.5
v 0.5 0.3 0.4
v 0.5 0.7 0.4
v 0.5 0.2 0.3
v 0.5 0.7 0.3
v 0.5 0 0.2
v 0.5 0.1 0.2
v 0.5 0.4 0.2
v 0.5 0.1 0.1
v 0.5 0.3 0.1
v 0.5 0 0
v 0.5 0.1 0
v 0.5 0.3 0
v 0.5 0.4 0
v 0.5 0.1 -0.1
v 0.5 0.2 -0.1
v 0.5 0.3 -0.1
v 0.5 0 -0.2
v 0.5 0.2 -0.2
v 0.5 0.4 -0.2
v 0.5 0.2 -0.3
v 0.5 0.7 -0.3
v 0.5 0.3 -0.4
v 0.5 0.7 -0.4
v 0.5 0 -0.5
v 0.5 0.2 -0.5
v 0.5 0.5 -0.5
v 0.5 0.6 -0.5
v 0.5 0.1 -0.6
v 0.5 0.3 -0.6
v 0.5 0.5 -0.6
v 0.5 0.6 -0.6
v 0.5 0 -1
v 0.5 0.1 -1
v 0.5 0.7 -1
v 0.4 0.1 0.5
v 0.4 0.2 0.5
v 0.4 0.2 0.3
v 0.4 0.3 0.3
v 0.4 0.7 0.3
v 0.4 0.1 0.2
v 0.4 0.3 0.2
v 0.4 0.4 0.2
v 0.4 0.1 0.1
v 0.4 0.3 0.1
v 0.4 0.1 0
v 0.4 0.3 0
v 0.4 0.4 0
v 0.4 0.1 -0.1
v 0.4 0.2 -0.1
v 0.4 0.3 -0.1
v 0.4 0.1 -0.2
v 0.4 0.2 -0.2
v 0.4 0.3 -0.2
v 0.4 0.4 -0.2
v 0.4 0.2 -0.3
v 0.4 0.3 -0.3
v 0.4 0.7 -0.3
v 0.4 0.1 -0.5
v 0.4 0.2 -0.5
v -0.4 0 0.9
v -0.4 0.1 0.9
v -0.4 0 -0.9
v -0.4 0.1 -0.9
v 0.4 0 0.9
v 0.4 0.1 0.9
v 0.4 0 0.5
v 0.4 0.1 0.5
v 0.4 0 0.2
v 0.4 0.1 0.2
v 0.4 0 0
v 0.4 0.1 0
v 0.4 0 -0.2
v 0.4 0.1 -0.2
v 0.4 0 -0.5
v 0.4 0.1 -0.5
v 0.4 0 -0.9
v 0.4 0.1 -0.9
v -0.5 0 1
v -0.5 0.1 1
v -0.5 0.7 1
v -0.5 0 -1
v -0.5 0.1 -1
v -0.5 0.7 -1
v 0.5 0 1
v 0.5 0 0.5
v 0.5 0 0.2
v 0.5 0 0
v 0.5 0 -0.2
v 0.5 0 -0.5
v 0.5 0 -1
v 0.4 0 0.9
v 0.4 0 0.5
v 0.4 0 0.2
v 0.4 0 0
v 0.4 0 -0.2
v 0.4 0 -0.5
v 0.4 0 -0.9
v -0.4 0 0.9
v -0.4 0 -0.9
v -0.5 0 1
v -0.5 0 -1
v 0.4 0.1 0.9
v 0.4 0.1 0.5
v 0.4 0.1 0.2
v 0.4 0.1 0
v 0.4 0.1 -0.2
v 0.4 0.1 -0.5
v 0.4 0.1 -0.9
v -0.4 0.1 0.9
v -0.4 0.1 -0.9
v 0.5 0.2 0.5
v 0.5 0.2 0.3
v 0.5 0.2 -0.3
v 0.5 0.2 -0.5
v 0.4 0.2 0.5
v 0.4 0.2 0.3
v 0.4 0.2 -0.3
v 0.4 0.2 -0.5
v 0.5 0.3 0.1
v 0.5 0.3 0
v 0.5 0.3 -0.1
v 0.4 0.3 0.1
v 0.4 0.3 0
v 0.4 0.3 -0.1
v 0.5 0.1 0.1
v 0.5 0.1 0
v 0.5 0.1 -0.1
v 0.4 0.1 0.1
v 0.4 0.1 0
v 0.4 0.1 -0.1
v 0.5 0.4 0.2
v 0.5 0.4 0
v 0.5 0.4 -0.2
v 0.4 0.4 0.2
v 0.4 0.4 0
v 0.4 0.4 -0.2
v 0.5 0.7 1
v 0.5 0.7 0.4
v 0.5 0.7 0.3
v 0.5 0.7 -0.3
v 0.5 0.7 -0.4
v 0.5 0.7 -1
v 0.4 0.7 0.4
v 0.4 0.7 0.3
v 0.4 0.7 -0.3
v 0.4 0.7 -0.4
v 0.3 0.7 0.3
v 0.3 0.7 -0.3
v -0.5 0.7 1
v -0.5 0.7 -1

# faces
f 3/8/1 2/8/1 1/8/1
f 4/8/1 2/8/1 3/8/1
f 5/4/1 4/4/1 3/4/1
f 6/4/1 4/4/1 5/4/1
f 9/5/1 8/5/1 7/5/1
f 10/5/1 8/5/1 9/5/1
f 11/6/1 10/6/1 9/6/1
f 12/6/1 11/6/1 9/6/1
f 13/6/1 11/6/1 12/6/1
f 16/6/1 15/6/1 14/6/1
f 17/6/1 15/6/1 16/6/1
f 18/7/1 17/7/1 16/7/1
f 19/7/1 17/7/1 18/7/1
f 22/8/1 21/8/1 20/8/1
f 23/8/1 22/8/1 20/8/1
f 24/8/1 22/8/1 23/8/1
f 27/8/1 26/8/1 25/8/1
f 28/8/1 27/8/1 25/8/1
f 29/8/1 27/8/1 28/8/1
f 32/8/1 31/8/1 30/8/1
f 33/8/1 31/8/1 32/8/1
f 34/8/2 35/8/2 36/8/2
f 36/8/2 35/8/2 37/8/2
f 38/8/2 39/8/2 40/8/2
f 38/8/2 40/8/2 41/8/2
f 41/8/2 40/8/2 42/8/2
f 43/8/2 44/8/2 45/8/2
f 43/8/2 45/8/2 46/8/2
f 46/8/2 45/8/2 47/8/2
f 48/6/2 49/6/2 50/6/2
f 50/6/2 49/6/2 51/6/2
f 52/6/2 53/6/2 54/6/2
f 52/6/2 54/6/2 55/6/2
f 55/6/2 54/6/2 56/6/2
f 55/7/2 56/7/2 57/7/2
f 55/7/2 57/7/2 58/7/2
f 58/7/2 57/7/2 59/7/2
f 60/8/2 61/8/2 62/8/2
f 62/8/2 61/8/2 63/8/2
f 62/4/2 63/4/2 64/4/2
f 64/4/2 63/4/2 65/4/2
f 69/8/3 67/8/3 66/8/3
f 69/4/3 68/4/3 67/4/3
f 70/4/3 68/4/3 69/4/3
f 71/4/3 68/4/3 70/4/3
f 72/4/3 68/4/3 71/4/3
f 73/8/3 69/8/3 66/8/3
f 73/8/3 70/8/3 69/8/3
f 74/8/3 70/8/3 73/8/3
f 75/8/3 72/8/3 71/8/3
f 75/4/3 71/4/3 70/4/3
f 76/4/3 68/4/3 72/4/3
f 76/8/3 72/8/3 75/8/3
f 77/4/3 75/4/3 70/4/3
f 77/8/3 70/8/3 74/8/3
f 77/4/3 76/4/3 75/4/3
f 78/4/3 68/4/3 76/4/3
f 78/4/3 76/4/3 77/4/3
f 79/8/3 77/8/3 74/8/3
f 79/8/3 78/8/3 77/8/3
f 80/8/3 78/8/3 79/8/3
f 84/5/3 82/5/3 81/5/3
f 84/6/3 83/6/3 82/6/3
f 85/6/3 83/6/3 84/6/3
f 86/5/3 84/5/3 81/5/3
f 87/5/3 84/5/3 86/5/3
f 88/6/3 83/6/3 85/6/3
f 89/6/3 83/6/3 88/6/3
f 90/6/3 87/6/3 86/6/3
f 92/7/3 89/7/3 88/7/3
f 93/6/3 91/6/3 90/6/3
f 93/6/3 90/6/3 86/6/3
f 94/7/3 92/7/3 91/7/3
f 94/6/3 91/6/3 93/6/3
f 95/7/3 89/7/3 92/7/3
f 95/7/3 92/7/3 94/7/3
f 98/8/3 97/8/3 96/8/3
f 99/8/3 97/8/3 98/8/3
f 101/8/3 98/8/3 96/8/3
f 102/4/3 99/4/3 98/4/3
f 103/4/3 99/4/3 102/4/3
f 104/8/3 101/8/3 100/8/3
f 105/8/3 98/8/3 101/8/3
f 105/8/3 101/8/3 104/8/3
f 105/4/3 102/4/3 98/4/3
f 106/3/3 103/3/3 102/3/3
f 106/4/3 102/4/3 105/4/3
f 107/4/3 99/4/3 103/4/3
f 107/3/3 103/3/3 106/3/3
f 108/8/3 104/8/3 100/8/3
f 109/4/3 106/4/3 105/4/3
f 109/8/3 104/8/3 108/8/3
f 109/4/3 105/4/3 104/4/3
f 109/4/3 107/4/3 106/4/3
f 110/4/3 99/4/3 107/4/3
f 110/4/3 107/4/3 109/4/3
f 113/2/3 112/2/3 111/2/3
f 116/2/3 113/2/3 111/2/3
f 116/2/3 114/2/3 113/2/3
f 117/1/3 115/1/3 114/1/3
f 117/2/3 114/2/3 116/2/3
f 118/1/3 115/1/3 117/1/3
f 121/2/3 120/2/3 119/2/3
f 122/2/3 120/2/3 121/2/3
f 123/1/3 115/1/3 118/1/3
f 124/2/3 122/2/3 121/2/3
f 125/2/3 122/2/3 124/2/3
f 126/2/3 122/2/3 125/2/3
f 130/1/3 115/1/3 123/1/3
f 131/2/3 129/2/3 128/2/3
f 131/2/3 128/2/3 127/2/3
f 132/1/3 130/1/3 129/1/3
f 132/2/3 129/2/3 131/2/3
f 133/1/3 115/1/3 130/1/3
f 133/1/3 130/1/3 132/1/3
f 134/2/3 131/2/3 127/2/3
f 135/2/3 131/2/3 134/2/3
f 138/8/3 137/8/3 136/8/3
f 139/8/3 137/8/3 138/8/3
f 140/8/4 141/8/4 142/8/4
f 142/8/4 141/8/4 143/8/4
f 144/5/4 145/5/4 146/5/4
f 146/5/4 145/5/4 147/5/4
f 146/6/4 147/6/4 148/6/4
f 148/6/4 147/6/4 149/6/4
f 150/8/4 151/8/4 152/8/4
f 152/8/4 151/8/4 153/8/4
f 154/8/4 155/8/4 157/8/4
f 155/4/4 156/4/4 158/4/4
f 157/8/4 155/8/4 158/8/4
f 158/4/4 156/4/4 159/4/4
f 167/8/5 161/8/5 160/8/5
f 168/8/5 161/8/5 167/8/5
f 169/5/5 163/5/5 162/5/5
f 170/6/5 164/6/5 163/6/5
f 170/5/5 163/5/5 169/5/5
f 171/6/5 164/6/5 170/6/5
f 172/8/5 166/8/5 165/8/5
f 173/8/5 166/8/5 172/8/5
f 174/8/5 167/8/5 160/8/5
f 175/8/5 166/8/5 173/8/5
f 176/8/5 174/8/5 160/8/5
f 176/8/5 175/8/5 174/8/5
f 177/8/5 166/8/5 175/8/5
f 177/8/5 175/8/5 176/8/5
f 185/2/5 179/2/5 178/2/5
f 185/2/5 184/2/5 183/2/5
f 185/2/5 183/2/5 182/2/5
f 185/2/5 182/2/5 181/2/5
f 185/2/5 181/2/5 180/2/5
f 185/2/5 180/2/5 179/2/5
f 186/2/5 184/2/5 185/2/5
f 191/8/5 188/8/5 187/8/5
f 192/8/5 188/8/5 191/8/5
f 193/8/5 190/8/5 189/8/5
f 194/8/5 190/8/5 193/8/5
f 198/6/5 196/6/5 195/6/5
f 199/7/5 197/7/5 196/7/5
f 199/6/5 196/6/5 198/6/5
f 200/7/5 197/7/5 199/7/5
f 201/5/6 202/5/6 204/5/6
f 202/6/6 203/6/6 205/6/6
f 204/5/6 202/5/6 205/5/6
f 205/6/6 203/6/6 206/6/6
f 207/6/6 208/6/6 210/6/6
f 208/7/6 209/7/6 211/7/6
f 210/6/6 208/6/6 211/6/6
f 211/7/6 209/7/6 212/7/6
f 213/4/6 214/4/6 219/4/6
f 214/8/6 215/8/6 219/8/6
f 219/8/6 215/8/6 220/8/6
f 216/8/6 217/8/6 221/8/6
f 217/4/6 218/4/6 222/4/6
f 221/8/6 217/8/6 222/8/6
f 220/1/6 221/1/6 223/1/6
f 219/4/6 220/4/6 223/4/6
f 221/4/6 222/4/6 224/4/6
f 223/1/6 221/1/6 224/1/6
f 219/4/6 223/4/6 225/4/6
f 213/4/6 219/4/6 225/4/6
f 223/4/6 224/4/6 225/4/6
f 222/4/6 218/4/6 226/4/6
f 225/4/6 224/4/6 226/4/6
f 224/4/6 222/4/6 226/4/6
