# MagicaVoxel @ Ephtracy

# group
o 

# material
mtllib model-4.mtl
usemtl palette

# normals
vn 0 0 1
vn 0 0 -1
vn 1 0 0
vn -1 0 0
vn 0 -1 0
vn 0 1 0

# texcoords
vt 0.00585938 0.5
vt 0.00976563 0.5
vt 0.0136719 0.5
vt 0.0175781 0.5

# verts
v 0.4 1.9 1.5
v 0.2 1.9 1.5
v 0.1 1.9 1.5
v -0.1 1.9 1.5
v -0.2 1.9 1.5
v -0.4 1.9 1.5
v 0.4 2.1 1.5
v 0.2 2.1 1.5
v 0.1 2.1 1.5
v -0.1 2.1 1.5
v -0.2 2.1 1.5
v -0.4 2.1 1.5
v 0.4 2.2 1.5
v -0.4 2.2 1.5
v 0.5 1.9 1.4
v 0.4 1.9 1.4
v 0.2 1.9 1.4
v 0.1 1.9 1.4
v -0.1 1.9 1.4
v -0.2 1.9 1.4
v -0.4 1.9 1.4
v -0.5 1.9 1.4
v 0.5 2.1 1.4
v 0.4 2.1 1.4
v 0.2 2.1 1.4
v 0.1 2.1 1.4
v -0.1 2.1 1.4
v -0.2 2.1 1.4
v -0.4 2.1 1.4
v -0.5 2.1 1.4
v 0.5 2.2 1.4
v 0.4 2.2 1.4
v -0.4 2.2 1.4
v -0.5 2.2 1.4
v 0.5 1.9 1.1
v 0.4 1.9 1.1
v -0.4 1.9 1.1
v -0.5 1.9 1.1
v 0.5 2.1 1.1
v 0.4 2.1 1.1
v -0.4 2.1 1.1
v -0.5 2.1 1.1
v 0.5 0.6 1
v -0.5 0.6 1
v 0.5 1.9 1
v -0.5 1.9 1
v -0.5 2 0.7
v -0.6 2 0.7
v 0.8 2.1 0.7
v 0.5 2.1 0.7
v -0.5 2.1 0.7
v 0.8 2.2 0.7
v 0.5 2.2 0.7
v -0.5 2.2 0.7
v -0.6 2.2 0.7
v 0.8 1.4 0.6
v 0.7 1.4 0.6
v 0.6 1.4 0.6
v 0.5 1.4 0.6
v 0.8 2.1 0.6
v 0.7 2.1 0.6
v 0.6 2.1 0.6
v 0.5 2.1 0.6
v 0.7 0.6 0.4
v 0.6 0.6 0.4
v 0.5 0.6 0.4
v 0.7 1.4 0.4
v 0.6 1.4 0.4
v 0.5 1.4 0.4
v 0.4 2.1 0.4
v -0.4 2.1 0.4
v 0.4 2.2 0.4
v -0.4 2.2 0.4
v 0.7 0.6 -0.3
v 0.6 0.6 -0.3
v 0.5 0.6 -0.3
v 0.4 0.6 -0.3
v 0.8 1.4 -0.3
v 0.7 1.4 -0.3
v 0.8 1.5 -0.3
v 0.6 1.5 -0.3
v 0.5 1.5 -0.3
v 0.4 1.5 -0.3
v 0.8 1.5 -0.5
v 0.7 1.5 -0.5
v 0.6 1.5 -0.5
v 0.5 1.5 -0.5
v 0.4 1.5 -0.5
v 0.6 2.1 -0.5
v 0.4 2.1 -0.5
v -0.4 2.1 -0.5
v -0.5 2.1 -0.5
v 0.8 2.2 -0.5
v 0.7 2.2 -0.5
v -0.5 2.2 -0.5
v 0.5 1.9 -1.2
v 0.4 1.9 -1.2
v -0.4 1.9 -1.2
v -0.5 1.9 -1.2
v 0.5 2.1 -1.2
v 0.4 2.1 -1.2
v -0.4 2.1 -1.2
v -0.5 2.1 -1.2
v 0.5 1.9 1.2
v 0.4 1.9 1.2
v -0.4 1.9 1.2
v -0.5 1.9 1.2
v 0.5 2.1 1.2
v 0.4 2.1 1.2
v -0.4 2.1 1.2
v -0.5 2.1 1.2
v 0.8 1.5 0.5
v 0.7 1.5 0.5
v 0.6 1.5 0.5
v 0.5 1.5 0.5
v 0.4 1.5 0.5
v 0.6 2.1 0.5
v 0.4 2.1 0.5
v -0.4 2.1 0.5
v -0.5 2.1 0.5
v 0.8 2.2 0.5
v 0.7 2.2 0.5
v -0.5 2.2 0.5
v 0.7 0.6 0.3
v 0.6 0.6 0.3
v 0.5 0.6 0.3
v 0.4 0.6 0.3
v 0.8 1.4 0.3
v 0.7 1.4 0.3
v 0.8 1.5 0.3
v 0.6 1.5 0.3
v 0.5 1.5 0.3
v 0.4 1.5 0.3
v 0.7 0.6 -0.4
v 0.6 0.6 -0.4
v 0.5 0.6 -0.4
v 0.7 1.4 -0.4
v 0.6 1.4 -0.4
v 0.5 1.4 -0.4
v 0.4 2.1 -0.4
v -0.4 2.1 -0.4
v 0.4 2.2 -0.4
v -0.4 2.2 -0.4
v 0.8 1.4 -0.6
v 0.7 1.4 -0.6
v 0.6 1.4 -0.6
v 0.5 1.4 -0.6
v 0.8 2.1 -0.6
v 0.7 2.1 -0.6
v 0.6 2.1 -0.6
v 0.5 2.1 -0.6
v -0.5 2 -0.7
v -0.6 2 -0.7
v 0.8 2.1 -0.7
v 0.5 2.1 -0.7
v -0.5 2.1 -0.7
v 0.8 2.2 -0.7
v 0.5 2.2 -0.7
v -0.5 2.2 -0.7
v -0.6 2.2 -0.7
v 0.5 0.6 -1
v -0.5 0.6 -1
v 0.5 1.9 -1
v -0.5 1.9 -1
v 0.5 1.9 -1.1
v 0.4 1.9 -1.1
v -0.4 1.9 -1.1
v -0.5 1.9 -1.1
v 0.5 2.1 -1.1
v 0.4 2.1 -1.1
v -0.4 2.1 -1.1
v -0.5 2.1 -1.1
v 0.5 1.9 -1.4
v 0.4 1.9 -1.4
v 0.2 1.9 -1.4
v 0.1 1.9 -1.4
v -0.1 1.9 -1.4
v -0.2 1.9 -1.4
v -0.4 1.9 -1.4
v -0.5 1.9 -1.4
v 0.5 2.1 -1.4
v 0.4 2.1 -1.4
v 0.2 2.1 -1.4
v 0.1 2.1 -1.4
v -0.1 2.1 -1.4
v -0.2 2.1 -1.4
v -0.4 2.1 -1.4
v -0.5 2.1 -1.4
v 0.5 2.2 -1.4
v 0.4 2.2 -1.4
v -0.4 2.2 -1.4
v -0.5 2.2 -1.4
v 0.4 1.9 -1.5
v 0.2 1.9 -1.5
v 0.1 1.9 -1.5
v -0.1 1.9 -1.5
v -0.2 1.9 -1.5
v -0.4 1.9 -1.5
v 0.4 2.1 -1.5
v 0.2 2.1 -1.5
v 0.1 2.1 -1.5
v -0.1 2.1 -1.5
v -0.2 2.1 -1.5
v -0.4 2.1 -1.5
v 0.4 2.2 -1.5
v -0.4 2.2 -1.5
v 0.8 2.1 0.7
v 0.8 2.2 0.7
v 0.8 1.4 0.6
v 0.8 2.1 0.6
v 0.8 1.5 0.5
v 0.8 2.2 0.5
v 0.8 1.4 0.3
v 0.8 1.5 0.3
v 0.8 1.4 -0.3
v 0.8 1.5 -0.3
v 0.8 1.5 -0.5
v 0.8 2.2 -0.5
v 0.8 1.4 -0.6
v 0.8 2.1 -0.6
v 0.8 2.1 -0.7
v 0.8 2.2 -0.7
v 0.7 0.6 0.4
v 0.7 1.4 0.4
v 0.7 0.6 0.3
v 0.7 1.4 0.3
v 0.7 0.6 -0.3
v 0.7 1.4 -0.3
v 0.7 0.6 -0.4
v 0.7 1.4 -0.4
v 0.5 1.9 1.4
v 0.5 2.1 1.4
v 0.5 2.2 1.4
v 0.5 1.9 1.2
v 0.5 2.1 1.2
v 0.5 1.9 1.1
v 0.5 2.1 1.1
v 0.5 0.6 1
v 0.5 1.9 1
v 0.5 1.9 0.9
v 0.5 2.1 0.9
v 0.5 0.7 0.7
v 0.5 0.9 0.7
v 0.5 1.1 0.7
v 0.5 1.3 0.7
v 0.5 2.1 0.7
v 0.5 2.2 0.7
v 0.5 1.4 0.6
v 0.5 2.1 0.6
v 0.5 0.7 0.5
v 0.5 0.9 0.5
v 0.5 1.1 0.5
v 0.5 1.3 0.5
v 0.5 1.4 0.5
v 0.5 0.6 0.4
v 0.5 1.4 0.4
v 0.5 0.6 -0.4
v 0.5 1.4 -0.4
v 0.5 0.7 -0.5
v 0.5 0.9 -0.5
v 0.5 1.1 -0.5
v 0.5 1.3 -0.5
v 0.5 1.4 -0.5
v 0.5 1.4 -0.6
v 0.5 2.1 -0.6
v 0.5 0.7 -0.7
v 0.5 0.9 -0.7
v 0.5 1.1 -0.7
v 0.5 1.3 -0.7
v 0.5 2.1 -0.7
v 0.5 2.2 -0.7
v 0.5 1.9 -0.9
v 0.5 2.1 -0.9
v 0.5 0.6 -1
v 0.5 1.9 -1
v 0.5 1.9 -1.1
v 0.5 2.1 -1.1
v 0.5 1.9 -1.2
v 0.5 2.1 -1.2
v 0.5 1.9 -1.4
v 0.5 2.1 -1.4
v 0.5 2.2 -1.4
v 0.4 1.9 1.5
v 0.4 2.1 1.5
v 0.4 2.2 1.5
v 0.4 1.9 1.4
v 0.4 2.1 1.4
v 0.4 2.2 1.4
v 0.4 1.9 1.2
v 0.4 2.1 1.2
v 0.4 1.9 1.1
v 0.4 2.1 1.1
v 0.4 1.5 0.5
v 0.4 2.1 0.5
v 0.4 2.1 0.4
v 0.4 2.2 0.4
v 0.4 0.6 0.3
v 0.4 1.5 0.3
v 0.4 0.6 -0.3
v 0.4 1.5 -0.3
v 0.4 2.1 -0.4
v 0.4 2.2 -0.4
v 0.4 1.5 -0.5
v 0.4 2.1 -0.5
v 0.4 1.9 -1.1
v 0.4 2.1 -1.1
v 0.4 1.9 -1.2
v 0.4 2.1 -1.2
v 0.4 1.9 -1.4
v 0.4 2.1 -1.4
v 0.4 2.2 -1.4
v 0.4 1.9 -1.5
v 0.4 2.1 -1.5
v 0.4 2.2 -1.5
v 0.1 1.9 1.5
v 0.1 2.1 1.5
v 0.1 1.9 1.4
v 0.1 2.1 1.4
v 0.1 1.9 -1.4
v 0.1 2.1 -1.4
v 0.1 1.9 -1.5
v 0.1 2.1 -1.5
v -0.2 1.9 1.5
v -0.2 2.1 1.5
v -0.2 1.9 1.4
v -0.2 2.1 1.4
v -0.2 1.9 -1.4
v -0.2 2.1 -1.4
v -0.2 1.9 -1.5
v -0.2 2.1 -1.5
v -0.5 2.1 0.5
v -0.5 2.2 0.5
v -0.5 2.1 -0.5
v -0.5 2.2 -0.5
v 0.2 1.9 1.5
v 0.2 2.1 1.5
v 0.2 1.9 1.4
v 0.2 2.1 1.4
v 0.2 1.9 -1.4
v 0.2 2.1 -1.4
v 0.2 1.9 -1.5
v 0.2 2.1 -1.5
v -0.1 1.9 1.5
v -0.1 2.1 1.5
v -0.1 1.9 1.4
v -0.1 2.1 1.4
v -0.1 1.9 -1.4
v -0.1 2.1 -1.4
v -0.1 1.9 -1.5
v -0.1 2.1 -1.5
v -0.4 1.9 1.5
v -0.4 2.1 1.5
v -0.4 2.2 1.5
v -0.4 1.9 1.4
v -0.4 2.1 1.4
v -0.4 2.2 1.4
v -0.4 1.9 1.2
v -0.4 2.1 1.2
v -0.4 1.9 1.1
v -0.4 2.1 1.1
v -0.4 2.1 0.4
v -0.4 2.2 0.4
v -0.4 2.1 -0.4
v -0.4 2.2 -0.4
v -0.4 1.9 -1.1
v -0.4 2.1 -1.1
v -0.4 1.9 -1.2
v -0.4 2.1 -1.2
v -0.4 1.9 -1.4
v -0.4 2.1 -1.4
v -0.4 2.2 -1.4
v -0.4 1.9 -1.5
v -0.4 2.1 -1.5
v -0.4 2.2 -1.5
v -0.5 1.9 1.4
v -0.5 2.1 1.4
v -0.5 2.2 1.4
v -0.5 1.9 1.2
v -0.5 2.1 1.2
v -0.5 1.9 1.1
v -0.5 2.1 1.1
v -0.5 0.6 1
v -0.5 1.9 1
v -0.5 1.9 0.9
v -0.5 2.1 0.9
v -0.5 2 0.7
v -0.5 2.1 0.7
v -0.5 2.2 0.7
v -0.5 2 -0.7
v -0.5 2.1 -0.7
v -0.5 2.2 -0.7
v -0.5 1.9 -0.9
v -0.5 2.1 -0.9
v -0.5 0.6 -1
v -0.5 1.9 -1
v -0.5 1.9 -1.1
v -0.5 2.1 -1.1
v -0.5 1.9 -1.2
v -0.5 2.1 -1.2
v -0.5 1.9 -1.4
v -0.5 2.1 -1.4
v -0.5 2.2 -1.4
v -0.6 2 0.7
v -0.6 2.2 0.7
v -0.6 2.1 0.6
v -0.6 2.2 0.6
v -0.6 2.1 -0.6
v -0.6 2.2 -0.6
v -0.6 2 -0.7
v -0.6 2.2 -0.7
v 0.7 0.6 0.4
v 0.7 0.6 0.3
v 0.7 0.6 -0.3
v 0.7 0.6 -0.4
v 0.6 0.6 0.4
v 0.6 0.6 0.3
v 0.6 0.6 -0.3
v 0.6 0.6 -0.4
v 0.5 0.6 1
v 0.5 0.6 0.4
v 0.5 0.6 0.3
v 0.5 0.6 -0.3
v 0.5 0.6 -0.4
v 0.5 0.6 -1
v 0.4 0.6 0.3
v 0.4 0.6 -0.3
v 0.3 0.6 0.3
v 0.3 0.6 -0.3
v -0.5 0.6 1
v -0.5 0.6 -1
v 0.8 1.4 0.6
v 0.8 1.4 0.3
v 0.8 1.4 -0.3
v 0.8 1.4 -0.6
v 0.7 1.4 0.6
v 0.7 1.4 0.4
v 0.7 1.4 0.3
v 0.7 1.4 -0.3
v 0.7 1.4 -0.4
v 0.7 1.4 -0.6
v 0.6 1.4 0.6
v 0.6 1.4 0.5
v 0.6 1.4 0.4
v 0.6 1.4 -0.4
v 0.6 1.4 -0.5
v 0.6 1.4 -0.6
v 0.5 1.4 0.6
v 0.5 1.4 0.5
v 0.5 1.4 0.4
v 0.5 1.4 -0.4
v 0.5 1.4 -0.5
v 0.5 1.4 -0.6
v 0.5 1.9 1.4
v 0.5 1.9 1.2
v 0.5 1.9 1.1
v 0.5 1.9 1
v 0.5 1.9 -1
v 0.5 1.9 -1.1
v 0.5 1.9 -1.2
v 0.5 1.9 -1.4
v 0.4 1.9 1.5
v 0.4 1.9 1.4
v 0.4 1.9 1.2
v 0.4 1.9 1.1
v 0.4 1.9 -1.1
v 0.4 1.9 -1.2
v 0.4 1.9 -1.4
v 0.4 1.9 -1.5
v 0.2 1.9 1.5
v 0.2 1.9 1.4
v 0.2 1.9 -1.4
v 0.2 1.9 -1.5
v 0.1 1.9 1.5
v 0.1 1.9 1.4
v 0.1 1.9 -1.4
v 0.1 1.9 -1.5
v -0.1 1.9 1.5
v -0.1 1.9 1.4
v -0.1 1.9 -1.4
v -0.1 1.9 -1.5
v -0.2 1.9 1.5
v -0.2 1.9 1.4
v -0.2 1.9 -1.4
v -0.2 1.9 -1.5
v -0.4 1.9 1.5
v -0.4 1.9 1.4
v -0.4 1.9 1.2
v -0.4 1.9 1.1
v -0.4 1.9 -1.1
v -0.4 1.9 -1.2
v -0.4 1.9 -1.4
v -0.4 1.9 -1.5
v -0.5 1.9 1.4
v -0.5 1.9 1.2
v -0.5 1.9 1.1
v -0.5 1.9 1
v -0.5 1.9 -1
v -0.5 1.9 -1.1
v -0.5 1.9 -1.2
v -0.5 1.9 -1.4
v -0.5 2 0.7
v -0.5 2 -0.7
v -0.6 2 0.7
v -0.6 2 -0.7
v 0.8 2.1 0.7
v 0.8 2.1 0.6
v 0.8 2.1 -0.6
v 0.8 2.1 -0.7
v 0.7 2.1 0.6
v 0.7 2.1 -0.6
v 0.6 2.1 0.6
v 0.6 2.1 -0.6
v 0.5 2.1 1.2
v 0.5 2.1 1.1
v 0.5 2.1 0.7
v 0.5 2.1 0.6
v 0.5 2.1 -0.6
v 0.5 2.1 -0.7
v 0.5 2.1 -1.1
v 0.5 2.1 -1.2
v 0.4 2.1 1.2
v 0.4 2.1 1.1
v 0.4 2.1 -1.1
v 0.4 2.1 -1.2
v 0.2 2.1 1.5
v 0.2 2.1 1.4
v 0.2 2.1 -1.4
v 0.2 2.1 -1.5
v 0.1 2.1 1.5
v 0.1 2.1 1.4
v 0.1 2.1 -1.4
v 0.1 2.1 -1.5
v -0.1 2.1 1.5
v -0.1 2.1 1.4
v -0.1 2.1 -1.4
v -0.1 2.1 -1.5
v -0.2 2.1 1.5
v -0.2 2.1 1.4
v -0.2 2.1 -1.4
v -0.2 2.1 -1.5
v -0.4 2.1 1.2
v -0.4 2.1 1.1
v -0.4 2.1 -1.1
v -0.4 2.1 -1.2
v -0.5 2.1 1.2
v -0.5 2.1 1.1
v -0.5 2.1 -1.1
v -0.5 2.1 -1.2
v 0.8 1.5 0.5
v 0.8 1.5 0.3
v 0.8 1.5 -0.3
v 0.8 1.5 -0.5
v 0.7 1.5 0.5
v 0.7 1.5 0.4
v 0.7 1.5 -0.4
v 0.7 1.5 -0.5
v 0.6 1.5 0.5
v 0.6 1.5 0.4
v 0.6 1.5 0.3
v 0.6 1.5 -0.3
v 0.6 1.5 -0.4
v 0.6 1.5 -0.5
v 0.5 1.5 0.5
v 0.5 1.5 0.3
v 0.5 1.5 -0.3
v 0.5 1.5 -0.5
v 0.4 1.5 0.5
v 0.4 1.5 0.3
v 0.4 1.5 -0.3
v 0.4 1.5 -0.5
v 0.4 2.1 0.5
v 0.4 2.1 0.4
v 0.4 2.1 -0.4
v 0.4 2.1 -0.5
v -0.4 2.1 0.5
v -0.4 2.1 0.4
v -0.4 2.1 -0.4
v -0.4 2.1 -0.5
v -0.5 2.1 0.5
v -0.5 2.1 -0.5
v 0.8 2.2 0.7
v 0.8 2.2 0.5
v 0.8 2.2 -0.5
v 0.8 2.2 -0.7
v 0.7 2.2 0.6
v 0.7 2.2 0.5
v 0.7 2.2 -0.5
v 0.7 2.2 -0.6
v 0.5 2.2 1.4
v 0.5 2.2 0.7
v 0.5 2.2 -0.7
v 0.5 2.2 -1.4
v 0.4 2.2 1.5
v 0.4 2.2 1.4
v 0.4 2.2 0.4
v 0.4 2.2 -0.4
v 0.4 2.2 -1.4
v 0.4 2.2 -1.5
v -0.4 2.2 1.5
v -0.4 2.2 1.4
v -0.4 2.2 0.4
v -0.4 2.2 -0.4
v -0.4 2.2 -1.4
v -0.4 2.2 -1.5
v -0.5 2.2 1.4
v -0.5 2.2 0.7
v -0.5 2.2 0.5
v -0.5 2.2 -0.5
v -0.5 2.2 -0.7
v -0.5 2.2 -1.4
v -0.6 2.2 0.7
v -0.6 2.2 0.6
v -0.6 2.2 -0.6
v -0.6 2.2 -0.7

# faces
f 7/3/1 2/3/1 1/3/1
f 8/3/1 2/3/1 7/3/1
f 9/3/1 4/3/1 3/3/1
f 10/3/1 4/3/1 9/3/1
f 11/3/1 6/3/1 5/3/1
f 12/3/1 6/3/1 11/3/1
f 13/4/1 10/4/1 9/4/1
f 13/4/1 8/4/1 7/4/1
f 13/4/1 12/4/1 11/4/1
f 13/4/1 11/4/1 10/4/1
f 13/4/1 9/4/1 8/4/1
f 14/4/1 12/4/1 13/4/1
f 23/3/1 16/3/1 15/3/1
f 24/3/1 16/3/1 23/3/1
f 25/3/1 18/3/1 17/3/1
f 26/3/1 18/3/1 25/3/1
f 27/3/1 20/3/1 19/3/1
f 28/3/1 20/3/1 27/3/1
f 29/3/1 22/3/1 21/3/1
f 30/3/1 22/3/1 29/3/1
f 31/4/1 24/4/1 23/4/1
f 32/4/1 24/4/1 31/4/1
f 33/4/1 30/4/1 29/4/1
f 34/4/1 30/4/1 33/4/1
f 39/3/1 36/3/1 35/3/1
f 40/3/1 36/3/1 39/3/1
f 41/3/1 38/3/1 37/3/1
f 42/3/1 38/3/1 41/3/1
f 45/1/1 44/1/1 43/1/1
f 46/1/1 44/1/1 45/1/1
f 51/1/1 48/1/1 47/1/1
f 52/1/1 50/1/1 49/1/1
f 53/1/1 50/1/1 52/1/1
f 54/1/1 48/1/1 51/1/1
f 55/1/1 48/1/1 54/1/1
f 60/1/1 57/1/1 56/1/1
f 61/3/1 58/3/1 57/3/1
f 61/1/1 57/1/1 60/1/1
f 62/1/1 59/1/1 58/1/1
f 62/3/1 58/3/1 61/3/1
f 63/1/1 59/1/1 62/1/1
f 67/1/1 65/1/1 64/1/1
f 68/3/1 66/3/1 65/3/1
f 68/1/1 65/1/1 67/1/1
f 69/3/1 66/3/1 68/3/1
f 72/2/1 71/2/1 70/2/1
f 73/2/1 71/2/1 72/2/1
f 79/1/1 75/1/1 74/1/1
f 80/1/1 79/1/1 78/1/1
f 81/3/1 76/3/1 75/3/1
f 81/1/1 79/1/1 80/1/1
f 81/1/1 75/1/1 79/1/1
f 82/1/1 77/1/1 76/1/1
f 82/3/1 76/3/1 81/3/1
f 83/1/1 77/1/1 82/1/1
f 89/3/1 86/3/1 85/3/1
f 89/1/1 88/1/1 87/1/1
f 89/1/1 87/1/1 86/1/1
f 90/1/1 88/1/1 89/1/1
f 93/1/1 85/1/1 84/1/1
f 94/3/1 92/3/1 91/3/1
f 94/1/1 85/1/1 93/1/1
f 94/3/1 89/3/1 85/3/1
f 94/3/1 91/3/1 90/3/1
f 94/3/1 90/3/1 89/3/1
f 95/3/1 92/3/1 94/3/1
f 100/3/1 97/3/1 96/3/1
f 101/3/1 97/3/1 100/3/1
f 102/3/1 99/3/1 98/3/1
f 103/3/1 99/3/1 102/3/1
f 104/3/2 105/3/2 108/3/2
f 108/3/2 105/3/2 109/3/2
f 106/3/2 107/3/2 110/3/2
f 110/3/2 107/3/2 111/3/2
f 113/3/2 114/3/2 117/3/2
f 115/1/2 116/1/2 117/1/2
f 114/1/2 115/1/2 117/1/2
f 117/1/2 116/1/2 118/1/2
f 112/1/2 113/1/2 121/1/2
f 119/3/2 120/3/2 122/3/2
f 121/1/2 113/1/2 122/1/2
f 113/3/2 117/3/2 122/3/2
f 118/3/2 119/3/2 122/3/2
f 117/3/2 118/3/2 122/3/2
f 122/3/2 120/3/2 123/3/2
f 124/1/2 125/1/2 129/1/2
f 128/1/2 129/1/2 130/1/2
f 125/3/2 126/3/2 131/3/2
f 130/1/2 129/1/2 131/1/2
f 129/1/2 125/1/2 131/1/2
f 126/1/2 127/1/2 132/1/2
f 131/3/2 126/3/2 132/3/2
f 132/1/2 127/1/2 133/1/2
f 134/1/2 135/1/2 137/1/2
f 135/3/2 136/3/2 138/3/2
f 137/1/2 135/1/2 138/1/2
f 138/3/2 136/3/2 139/3/2
f 140/2/2 141/2/2 142/2/2
f 142/2/2 141/2/2 143/2/2
f 144/1/2 145/1/2 148/1/2
f 145/3/2 146/3/2 149/3/2
f 148/1/2 145/1/2 149/1/2
f 146/1/2 147/1/2 150/1/2
f 149/3/2 146/3/2 150/3/2
f 150/1/2 147/1/2 151/1/2
f 152/1/2 153/1/2 156/1/2
f 154/1/2 155/1/2 157/1/2
f 157/1/2 155/1/2 158/1/2
f 156/1/2 153/1/2 159/1/2
f 159/1/2 153/1/2 160/1/2
f 161/1/2 162/1/2 163/1/2
f 163/1/2 162/1/2 164/1/2
f 165/3/2 166/3/2 169/3/2
f 169/3/2 166/3/2 170/3/2
f 167/3/2 168/3/2 171/3/2
f 171/3/2 168/3/2 172/3/2
f 173/3/2 174/3/2 181/3/2
f 181/3/2 174/3/2 182/3/2
f 175/3/2 176/3/2 183/3/2
f 183/3/2 176/3/2 184/3/2
f 177/3/2 178/3/2 185/3/2
f 185/3/2 178/3/2 186/3/2
f 179/3/2 180/3/2 187/3/2
f 187/3/2 180/3/2 188/3/2
f 181/4/2 182/4/2 189/4/2
f 189/4/2 182/4/2 190/4/2
f 187/4/2 188/4/2 191/4/2
f 191/4/2 188/4/2 192/4/2
f 193/3/2 194/3/2 199/3/2
f 199/3/2 194/3/2 200/3/2
f 195/3/2 196/3/2 201/3/2
f 201/3/2 196/3/2 202/3/2
f 197/3/2 198/3/2 203/3/2
f 203/3/2 198/3/2 204/3/2
f 201/4/2 202/4/2 205/4/2
f 199/4/2 200/4/2 205/4/2
f 203/4/2 204/4/2 205/4/2
f 202/4/2 203/4/2 205/4/2
f 200/4/2 201/4/2 205/4/2
f 205/4/2 204/4/2 206/4/2
f 210/1/3 208/1/3 207/1/3
f 211/1/3 210/1/3 209/1/3
f 212/1/3 208/1/3 210/1/3
f 212/1/3 210/1/3 211/1/3
f 213/1/3 211/1/3 209/1/3
f 214/1/3 211/1/3 213/1/3
f 217/1/3 216/1/3 215/1/3
f 219/1/3 217/1/3 215/1/3
f 219/1/3 218/1/3 217/1/3
f 220/1/3 218/1/3 219/1/3
f 221/1/3 218/1/3 220/1/3
f 222/1/3 218/1/3 221/1/3
f 225/1/3 224/1/3 223/1/3
f 226/1/3 224/1/3 225/1/3
f 229/1/3 228/1/3 227/1/3
f 230/1/3 228/1/3 229/1/3
f 234/3/3 232/3/3 231/3/3
f 235/4/3 233/4/3 232/4/3
f 235/3/3 232/3/3 234/3/3
f 237/4/3 233/4/3 235/4/3
f 239/3/3 237/3/3 236/3/3
f 240/3/3 237/3/3 239/3/3
f 240/1/3 239/1/3 238/1/3
f 241/4/3 233/4/3 237/4/3
f 241/3/3 237/3/3 240/3/3
f 242/1/3 240/1/3 238/1/3
f 242/1/3 241/1/3 240/1/3
f 243/1/3 241/1/3 242/1/3
f 244/1/3 241/1/3 243/1/3
f 245/1/3 241/1/3 244/1/3
f 246/4/3 233/4/3 241/4/3
f 246/1/3 241/1/3 245/1/3
f 247/4/3 233/4/3 246/4/3
f 248/1/3 246/1/3 245/1/3
f 249/1/3 246/1/3 248/1/3
f 250/1/3 242/1/3 238/1/3
f 250/4/3 243/4/3 242/4/3
f 251/1/3 244/1/3 243/1/3
f 251/4/3 243/4/3 250/4/3
f 252/4/3 245/4/3 244/4/3
f 252/1/3 244/1/3 251/1/3
f 253/1/3 248/1/3 245/1/3
f 253/4/3 245/4/3 252/4/3
f 254/1/3 248/1/3 253/1/3
f 255/1/3 251/1/3 250/1/3
f 255/1/3 252/1/3 251/1/3
f 255/1/3 254/1/3 253/1/3
f 255/1/3 253/1/3 252/1/3
f 255/1/3 250/1/3 238/1/3
f 256/1/3 254/1/3 255/1/3
f 259/1/3 258/1/3 257/1/3
f 260/1/3 258/1/3 259/1/3
f 261/1/3 258/1/3 260/1/3
f 262/1/3 258/1/3 261/1/3
f 263/1/3 258/1/3 262/1/3
f 264/1/3 263/1/3 262/1/3
f 266/1/3 259/1/3 257/1/3
f 266/4/3 260/4/3 259/4/3
f 267/1/3 261/1/3 260/1/3
f 267/4/3 260/4/3 266/4/3
f 268/4/3 262/4/3 261/4/3
f 268/1/3 261/1/3 267/1/3
f 269/1/3 264/1/3 262/1/3
f 269/4/3 262/4/3 268/4/3
f 269/1/3 265/1/3 264/1/3
f 270/1/3 265/1/3 269/1/3
f 272/1/3 268/1/3 267/1/3
f 272/1/3 270/1/3 269/1/3
f 272/1/3 269/1/3 268/1/3
f 272/1/3 267/1/3 266/1/3
f 273/4/3 271/4/3 270/4/3
f 273/1/3 270/1/3 272/1/3
f 274/1/3 272/1/3 266/1/3
f 274/1/3 266/1/3 257/1/3
f 275/3/3 273/3/3 272/3/3
f 275/1/3 272/1/3 274/1/3
f 276/3/3 273/3/3 275/3/3
f 277/4/3 271/4/3 273/4/3
f 277/3/3 273/3/3 276/3/3
f 279/4/3 271/4/3 277/4/3
f 280/3/3 279/3/3 278/3/3
f 281/4/3 271/4/3 279/4/3
f 281/3/3 279/3/3 280/3/3
f 282/4/3 271/4/3 281/4/3
f 286/3/3 284/3/3 283/3/3
f 287/4/3 285/4/3 284/4/3
f 287/3/3 284/3/3 286/3/3
f 288/4/3 285/4/3 287/4/3
f 291/3/3 290/3/3 289/3/3
f 292/3/3 290/3/3 291/3/3
f 295/2/3 294/2/3 293/2/3
f 298/2/3 295/2/3 293/2/3
f 298/2/3 296/2/3 295/2/3
f 299/2/3 298/2/3 297/2/3
f 300/2/3 296/2/3 298/2/3
f 300/2/3 298/2/3 299/2/3
f 301/2/3 296/2/3 300/2/3
f 302/2/3 296/2/3 301/2/3
f 303/2/3 301/2/3 300/2/3
f 304/2/3 301/2/3 303/2/3
f 307/3/3 306/3/3 305/3/3
f 308/3/3 306/3/3 307/3/3
f 312/3/3 310/3/3 309/3/3
f 313/4/3 311/4/3 310/4/3
f 313/3/3 310/3/3 312/3/3
f 314/4/3 311/4/3 313/4/3
f 317/3/3 316/3/3 315/3/3
f 318/3/3 316/3/3 317/3/3
f 321/3/3 320/3/3 319/3/3
f 322/3/3 320/3/3 321/3/3
f 325/3/3 324/3/3 323/3/3
f 326/3/3 324/3/3 325/3/3
f 329/3/3 328/3/3 327/3/3
f 330/3/3 328/3/3 329/3/3
f 333/3/3 332/3/3 331/3/3
f 334/3/3 332/3/3 333/3/3
f 335/3/4 336/3/4 337/3/4
f 337/3/4 336/3/4 338/3/4
f 339/3/4 340/3/4 341/3/4
f 341/3/4 340/3/4 342/3/4
f 343/3/4 344/3/4 345/3/4
f 345/3/4 344/3/4 346/3/4
f 347/3/4 348/3/4 349/3/4
f 349/3/4 348/3/4 350/3/4
f 351/3/4 352/3/4 354/3/4
f 352/4/4 353/4/4 355/4/4
f 354/3/4 352/3/4 355/3/4
f 355/4/4 353/4/4 356/4/4
f 357/3/4 358/3/4 359/3/4
f 359/3/4 358/3/4 360/3/4
f 361/2/4 362/2/4 363/2/4
f 363/2/4 362/2/4 364/2/4
f 365/3/4 366/3/4 367/3/4
f 367/3/4 366/3/4 368/3/4
f 369/3/4 370/3/4 372/3/4
f 370/4/4 371/4/4 373/4/4
f 372/3/4 370/3/4 373/3/4
f 373/4/4 371/4/4 374/4/4
f 375/3/4 376/3/4 378/3/4
f 376/4/4 377/4/4 379/4/4
f 378/3/4 376/3/4 379/3/4
f 379/4/4 377/4/4 381/4/4
f 380/3/4 381/3/4 383/3/4
f 383/3/4 381/3/4 384/3/4
f 382/1/4 383/1/4 384/1/4
f 381/4/4 377/4/4 385/4/4
f 384/3/4 381/3/4 385/3/4
f 384/1/4 385/1/4 386/1/4
f 385/4/4 377/4/4 387/4/4
f 386/1/4 385/1/4 387/1/4
f 387/4/4 377/4/4 388/4/4
f 384/1/4 386/1/4 389/1/4
f 382/1/4 384/1/4 392/1/4
f 384/1/4 389/1/4 392/1/4
f 389/1/4 390/1/4 392/1/4
f 390/4/4 391/4/4 393/4/4
f 392/1/4 390/1/4 393/1/4
f 382/1/4 392/1/4 394/1/4
f 392/3/4 393/3/4 395/3/4
f 394/1/4 392/1/4 395/1/4
f 395/3/4 393/3/4 396/3/4
f 393/4/4 391/4/4 397/4/4
f 396/3/4 393/3/4 397/3/4
f 397/4/4 391/4/4 399/4/4
f 398/3/4 399/3/4 400/3/4
f 399/4/4 391/4/4 401/4/4
f 400/3/4 399/3/4 401/3/4
f 401/4/4 391/4/4 402/4/4
f 403/1/4 404/1/4 405/1/4
f 405/1/4 404/1/4 406/1/4
f 403/1/4 405/1/4 407/1/4
f 405/3/4 406/3/4 407/3/4
f 407/3/4 406/3/4 408/3/4
f 403/1/4 407/1/4 409/1/4
f 407/1/4 408/1/4 409/1/4
f 409/1/4 408/1/4 410/1/4
f 415/1/5 412/1/5 411/1/5
f 416/1/5 412/1/5 415/1/5
f 417/1/5 414/1/5 413/1/5
f 418/1/5 414/1/5 417/1/5
f 420/3/5 416/3/5 415/3/5
f 421/3/5 416/3/5 420/3/5
f 422/3/5 418/3/5 417/3/5
f 423/3/5 418/3/5 422/3/5
f 425/1/5 421/1/5 420/1/5
f 425/1/5 420/1/5 419/1/5
f 426/1/5 423/1/5 422/1/5
f 426/1/5 424/1/5 423/1/5
f 427/1/5 425/1/5 419/1/5
f 427/2/5 426/2/5 425/2/5
f 428/1/5 424/1/5 426/1/5
f 428/2/5 426/2/5 427/2/5
f 429/1/5 427/1/5 419/1/5
f 429/1/5 428/1/5 427/1/5
f 430/1/5 424/1/5 428/1/5
f 430/1/5 428/1/5 429/1/5
f 435/1/5 432/1/5 431/1/5
f 436/1/5 432/1/5 435/1/5
f 437/1/5 432/1/5 436/1/5
f 438/1/5 434/1/5 433/1/5
f 439/1/5 434/1/5 438/1/5
f 440/1/5 434/1/5 439/1/5
f 441/3/5 436/3/5 435/3/5
f 442/3/5 436/3/5 441/3/5
f 443/3/5 436/3/5 442/3/5
f 444/3/5 440/3/5 439/3/5
f 445/3/5 440/3/5 444/3/5
f 446/3/5 440/3/5 445/3/5
f 447/1/5 442/1/5 441/1/5
f 448/3/5 443/3/5 442/3/5
f 448/1/5 442/1/5 447/1/5
f 449/3/5 443/3/5 448/3/5
f 450/3/5 445/3/5 444/3/5
f 451/1/5 446/1/5 445/1/5
f 451/3/5 445/3/5 450/3/5
f 452/1/5 446/1/5 451/1/5
f 462/3/5 454/3/5 453/3/5
f 463/3/5 454/3/5 462/3/5
f 464/3/5 456/3/5 455/3/5
f 465/3/5 458/3/5 457/3/5
f 466/3/5 460/3/5 459/3/5
f 467/3/5 460/3/5 466/3/5
f 469/3/5 463/3/5 462/3/5
f 469/3/5 464/3/5 463/3/5
f 469/3/5 462/3/5 461/3/5
f 470/3/5 464/3/5 469/3/5
f 471/3/5 468/3/5 467/3/5
f 471/3/5 467/3/5 466/3/5
f 471/3/5 466/3/5 465/3/5
f 472/3/5 468/3/5 471/3/5
f 474/3/5 464/3/5 470/3/5
f 475/3/5 471/3/5 465/3/5
f 477/3/5 474/3/5 473/3/5
f 478/3/5 464/3/5 474/3/5
f 478/3/5 474/3/5 477/3/5
f 479/3/5 476/3/5 475/3/5
f 479/3/5 475/3/5 465/3/5
f 480/3/5 476/3/5 479/3/5
f 482/3/5 464/3/5 478/3/5
f 483/3/5 479/3/5 465/3/5
f 485/3/5 482/3/5 481/3/5
f 486/3/5 464/3/5 482/3/5
f 486/3/5 482/3/5 485/3/5
f 487/3/5 464/3/5 486/3/5
f 488/3/5 456/3/5 464/3/5
f 488/3/5 464/3/5 487/3/5
f 489/3/5 465/3/5 457/3/5
f 489/3/5 484/3/5 483/3/5
f 489/3/5 483/3/5 465/3/5
f 490/3/5 484/3/5 489/3/5
f 491/3/5 484/3/5 490/3/5
f 492/3/5 484/3/5 491/3/5
f 493/3/5 487/3/5 486/3/5
f 494/3/5 487/3/5 493/3/5
f 495/3/5 456/3/5 488/3/5
f 496/3/5 456/3/5 495/3/5
f 497/3/5 489/3/5 457/3/5
f 498/3/5 489/3/5 497/3/5
f 499/3/5 491/3/5 490/3/5
f 500/3/5 491/3/5 499/3/5
f 503/1/5 502/1/5 501/1/5
f 504/1/5 502/1/5 503/1/5
f 509/1/5 506/1/5 505/1/5
f 510/1/5 508/1/5 507/1/5
f 511/1/5 509/1/5 505/1/5
f 512/1/5 508/1/5 510/1/5
f 515/1/5 511/1/5 505/1/5
f 516/1/5 511/1/5 515/1/5
f 517/1/5 508/1/5 512/1/5
f 518/1/5 508/1/5 517/1/5
f 521/4/5 514/4/5 513/4/5
f 522/4/5 514/4/5 521/4/5
f 523/4/5 520/4/5 519/4/5
f 524/4/5 520/4/5 523/4/5
f 529/4/5 526/4/5 525/4/5
f 530/4/5 526/4/5 529/4/5
f 531/4/5 528/4/5 527/4/5
f 532/4/5 528/4/5 531/4/5
f 537/4/5 534/4/5 533/4/5
f 538/4/5 534/4/5 537/4/5
f 539/4/5 536/4/5 535/4/5
f 540/4/5 536/4/5 539/4/5
f 545/4/5 542/4/5 541/4/5
f 546/4/5 542/4/5 545/4/5
f 547/4/5 544/4/5 543/4/5
f 548/4/5 544/4/5 547/4/5
f 549/1/6 550/1/6 553/1/6
f 553/1/6 550/1/6 554/1/6
f 551/1/6 552/1/6 555/1/6
f 555/1/6 552/1/6 556/1/6
f 553/3/6 554/3/6 557/3/6
f 554/1/6 550/1/6 558/1/6
f 557/3/6 554/3/6 558/3/6
f 558/1/6 550/1/6 559/1/6
f 551/1/6 555/1/6 560/1/6
f 555/3/6 556/3/6 561/3/6
f 560/1/6 555/1/6 561/1/6
f 561/3/6 556/3/6 562/3/6
f 558/3/6 559/3/6 563/3/6
f 557/3/6 558/3/6 563/3/6
f 563/3/6 559/3/6 564/3/6
f 561/3/6 562/3/6 565/3/6
f 560/3/6 561/3/6 565/3/6
f 565/3/6 562/3/6 566/3/6
f 563/1/6 564/1/6 567/1/6
f 567/1/6 564/1/6 568/1/6
f 565/1/6 566/1/6 569/1/6
f 569/1/6 566/1/6 570/1/6
f 571/2/6 572/2/6 575/2/6
f 575/2/6 572/2/6 576/2/6
f 573/2/6 574/2/6 577/2/6
f 577/2/6 574/2/6 578/2/6
f 575/1/6 576/1/6 579/1/6
f 576/1/6 577/1/6 579/1/6
f 577/1/6 578/1/6 579/1/6
f 579/1/6 578/1/6 580/1/6
f 581/1/6 582/1/6 585/1/6
f 585/1/6 582/1/6 586/1/6
f 583/1/6 584/1/6 587/1/6
f 587/1/6 584/1/6 588/1/6
f 581/1/6 585/1/6 590/1/6
f 588/1/6 584/1/6 591/1/6
f 589/4/6 590/4/6 594/4/6
f 591/4/6 592/4/6 597/4/6
f 593/4/6 594/4/6 599/4/6
f 594/4/6 590/4/6 600/4/6
f 599/4/6 594/4/6 600/4/6
f 595/2/6 596/2/6 601/2/6
f 601/2/6 596/2/6 602/2/6
f 597/4/6 598/4/6 603/4/6
f 591/4/6 597/4/6 603/4/6
f 603/4/6 598/4/6 604/4/6
f 600/4/6 590/4/6 605/4/6
f 590/1/6 585/1/6 606/1/6
f 605/4/6 590/4/6 606/4/6
f 585/3/6 586/3/6 607/3/6
f 587/3/6 588/3/6 608/3/6
f 588/1/6 591/1/6 609/1/6
f 591/4/6 603/4/6 609/4/6
f 609/4/6 603/4/6 610/4/6
f 606/1/6 585/1/6 611/1/6
f 585/3/6 607/3/6 612/3/6
f 611/1/6 585/1/6 612/1/6
f 607/3/6 608/3/6 612/3/6
f 608/3/6 588/3/6 613/3/6
f 612/3/6 608/3/6 613/3/6
f 588/1/6 609/1/6 613/1/6
f 613/1/6 609/1/6 614/1/6
