# MagicaVoxel @ Ephtracy

# group
o 

# material
mtllib model.mtl
usemtl palette

# normals
vn 0 0 1
vn 0 0 -1
vn 1 0 0
vn -1 0 0
vn 0 -1 0
vn 0 1 0

# texcoords
vt 0.0253906 0.5
vt 0.0761719 0.5
vt 0.169922 0.5
vt 0.443359 0.5
vt 0.447266 0.5
vt 0.451172 0.5
vt 0.572266 0.5

# verts
v 1.4 0 2
v 1.1 0 2
v 0.9 0 2
v 0.7 0 2
v 0.5 0 2
v 0.3 0 2
v 0.1 0 2
v -0.0999999 0 2
v -0.3 0 2
v -0.5 0 2
v -0.7 0 2
v -0.9 0 2
v -1.1 0 2
v -1.4 0 2
v 1.4 0.1 2
v 1.3 0.1 2
v -1.3 0.1 2
v -1.4 0.1 2
v 1.3 0.2 2
v 1.1 0.2 2
v 0.9 0.2 2
v 0.7 0.2 2
v 0.5 0.2 2
v 0.3 0.2 2
v 0.1 0.2 2
v -0.0999999 0.2 2
v -0.3 0.2 2
v -0.5 0.2 2
v -0.7 0.2 2
v -0.9 0.2 2
v -1.1 0.2 2
v -1.3 0.2 2
v 1.1 0 1.9
v 0.9 0 1.9
v 0.7 0 1.9
v 0.5 0 1.9
v 0.3 0 1.9
v 0.1 0 1.9
v -0.0999999 0 1.9
v -0.3 0 1.9
v -0.5 0 1.9
v -0.7 0 1.9
v -0.9 0 1.9
v -1.1 0 1.9
v 1.1 0.1 1.9
v 0.9 0.1 1.9
v 0.7 0.1 1.9
v 0.5 0.1 1.9
v 0.3 0.1 1.9
v 0.1 0.1 1.9
v -0.0999999 0.1 1.9
v -0.3 0.1 1.9
v -0.5 0.1 1.9
v -0.7 0.1 1.9
v -0.9 0.1 1.9
v -1.1 0.1 1.9
v 1.8 0 1.8
v 1.4 0 1.8
v -1.4 0 1.8
v -1.8 0 1.8
v 1.8 0.1 1.8
v 1.4 0.1 1.8
v -1.4 0.1 1.8
v -1.8 0.1 1.8
v 1.8 0.1 1.7
v 1.3 0.1 1.7
v -1.3 0.1 1.7
v -1.8 0.1 1.7
v 1.8 0.2 1.7
v 1.3 0.2 1.7
v -1.3 0.2 1.7
v -1.8 0.2 1.7
v 1.1 0.1 1.6
v 0.9 0.1 1.6
v 0.7 0.1 1.6
v 0.5 0.1 1.6
v 0.3 0.1 1.6
v 0.1 0.1 1.6
v -0.0999999 0.1 1.6
v -0.3 0.1 1.6
v -0.5 0.1 1.6
v -0.7 0.1 1.6
v -0.9 0.1 1.6
v -1.1 0.1 1.6
v 1.4 0.2 1.6
v 1.1 0.2 1.6
v 0.9 0.2 1.6
v 0.7 0.2 1.6
v 0.5 0.2 1.6
v 0.3 0.2 1.6
v 0.1 0.2 1.6
v -0.0999999 0.2 1.6
v -0.3 0.2 1.6
v -0.5 0.2 1.6
v -0.7 0.2 1.6
v -0.9 0.2 1.6
v -1.1 0.2 1.6
v -1.4 0.2 1.6
v 1.4 0.3 1.6
v -1.4 0.3 1.6
v 1.8 0 1.3
v 1.7 0 1.3
v -1.7 0 1.3
v -1.8 0 1.3
v 1.7 0.1 1.3
v 1.4 0.1 1.3
v -1.4 0.1 1.3
v -1.7 0.1 1.3
v 1.8 0.2 1.3
v 1.4 0.2 1.3
v -1.4 0.2 1.3
v -1.8 0.2 1.3
v 0.9 0.3 1.3
v 0.7 0.3 1.3
v 0.5 0.3 1.3
v 0.3 0.3 1.3
v 0.1 0.3 1.3
v -0.0999999 0.3 1.3
v -0.3 0.3 1.3
v -0.5 0.3 1.3
v -0.7 0.3 1.3
v -0.9 0.3 1.3
v 0.9 0.4 1.3
v 0.7 0.4 1.3
v 0.5 0.4 1.3
v 0.3 0.4 1.3
v 0.1 0.4 1.3
v -0.0999999 0.4 1.3
v -0.3 0.4 1.3
v -0.5 0.4 1.3
v -0.7 0.4 1.3
v -0.9 0.4 1.3
v 0.9 0.5 1.3
v 0.7 0.5 1.3
v 0.5 0.5 1.3
v 0.3 0.5 1.3
v 0.1 0.5 1.3
v -0.0999999 0.5 1.3
v -0.3 0.5 1.3
v -0.5 0.5 1.3
v -0.7 0.5 1.3
v -0.9 0.5 1.3
v 0.8 0.5 1.2
v 0.7 0.5 1.2
v 0.5 0.5 1.2
v 0.3 0.5 1.2
v 0.1 0.5 1.2
v -0.0999999 0.5 1.2
v -0.3 0.5 1.2
v -0.5 0.5 1.2
v -0.7 0.5 1.2
v -0.8 0.5 1.2
v 0.7 0.6 1.2
v 0.6 0.6 1.2
v 0.5 0.6 1.2
v 0.4 0.6 1.2
v 0.2 0.6 1.2
v 0.1 0.6 1.2
v -0.0999999 0.6 1.2
v -0.2 0.6 1.2
v 0.7 0.7 1.2
v 0.6 0.7 1.2
v 0.5 0.7 1.2
v 0.4 0.7 1.2
v 0.4 0.8 1.2
v 0.2 0.8 1.2
v 0.1 0.8 1.2
v -0.0999999 0.8 1.2
v -0.2 0.8 1.2
v -0.4 0.8 1.2
v 0.4 0.9 1.2
v 0.2 0.9 1.2
v 0.1 0.9 1.2
v -0.0999999 0.9 1.2
v -0.2 0.9 1.2
v -0.4 0.9 1.2
v -0.6 1 1.2
v -0.7 1 1.2
v 0.4 1.1 1.2
v 0.2 1.1 1.2
v 0.1 1.1 1.2
v -0.0999999 1.1 1.2
v -0.2 1.1 1.2
v -0.4 1.1 1.2
v -0.6 1.1 1.2
v -0.7 1.1 1.2
v 0.4 1.2 1.2
v 0.2 1.2 1.2
v 0.1 1.2 1.2
v -0.0999999 1.2 1.2
v -0.2 1.2 1.2
v -0.4 1.2 1.2
v -0.6 1.2 1.2
v -0.7 1.2 1.2
v -0.6 1.3 1.2
v -0.7 1.3 1.2
v 0.2 1.4 1.2
v 0.1 1.4 1.2
v -0.0999999 1.4 1.2
v -0.2 1.4 1.2
v 0.8 1.5 1.2
v -0.8 1.5 1.2
v 1.1 0.3 1.1
v 1 0.3 1.1
v 0.9 0.3 1.1
v -0.9 0.3 1.1
v -1 0.3 1.1
v -1.1 0.3 1.1
v 1.1 0.4 1.1
v 1 0.4 1.1
v 0.9 0.4 1.1
v -0.9 0.4 1.1
v -1 0.4 1.1
v -1.1 0.4 1.1
v 1.1 0.5 1.1
v 1 0.5 1.1
v 0.9 0.5 1.1
v -0.9 0.5 1.1
v -1 0.5 1.1
v -1.1 0.5 1.1
v 1 0.5 1
v 0.8 0.5 1
v -0.8 0.5 1
v -1 0.5 1
v 1 1.5 1
v 0.8 1.5 1
v 0.6 1.5 1
v -0.6 1.5 1
v -0.8 1.5 1
v -1 1.5 1
v 0.6 1.6 1
v -0.6 1.6 1
v 1.8 0 0.9
v 1.7 0 0.9
v -1.7 0 0.9
v -1.8 0 0.9
v 1.7 0.1 0.9
v 1.4 0.1 0.9
v -1.4 0.1 0.9
v -1.7 0.1 0.9
v 1.8 0.2 0.9
v 1.4 0.2 0.9
v -1.4 0.2 0.9
v -1.8 0.2 0.9
v 0.8 1.5 0.8
v 0.6 1.5 0.8
v -0.6 1.5 0.8
v -0.8 1.5 0.8
v 0.8 1.6 0.8
v 0.6 1.6 0.8
v -0.6 1.6 0.8
v -0.8 1.6 0.8
v 1.8 0 0.5
v 1.7 0 0.5
v -1.7 0 0.5
v -1.8 0 0.5
v 1.7 0.1 0.5
v 1.4 0.1 0.5
v -1.4 0.1 0.5
v -1.7 0.1 0.5
v 1.8 0.2 0.5
v 1.4 0.2 0.5
v -1.4 0.2 0.5
v -1.8 0.2 0.5
v 1.8 0 0.0999999
v 1.7 0 0.0999999
v -1.7 0 0.0999999
v -1.8 0 0.0999999
v 1.7 0.1 0.0999999
v 1.4 0.1 0.0999999
v -1.4 0.1 0.0999999
v -1.7 0.1 0.0999999
v 1.8 0.2 0.0999999
v 1.4 0.2 0.0999999
v -1.4 0.2 0.0999999
v -1.8 0.2 0.0999999
v 1.8 0 -0.3
v 1.7 0 -0.3
v -1.7 0 -0.3
v -1.8 0 -0.3
v 1.7 0.1 -0.3
v 1.4 0.1 -0.3
v -1.4 0.1 -0.3
v -1.7 0.1 -0.3
v 1.8 0.2 -0.3
v 1.4 0.2 -0.3
v -1.4 0.2 -0.3
v -1.8 0.2 -0.3
v 1.8 0 -0.7
v 1.7 0 -0.7
v -1.7 0 -0.7
v -1.8 0 -0.7
v 1.7 0.1 -0.7
v 1.4 0.1 -0.7
v -1.4 0.1 -0.7
v -1.7 0.1 -0.7
v 1.8 0.2 -0.7
v 1.4 0.2 -0.7
v -1.4 0.2 -0.7
v -1.8 0.2 -0.7
v 1.8 0 -1.1
v 1.7 0 -1.1
v -1.7 0 -1.1
v -1.8 0 -1.1
v 1.7 0.1 -1.1
v 1.4 0.1 -1.1
v -1.4 0.1 -1.1
v -1.7 0.1 -1.1
v 1.8 0.2 -1.1
v 1.4 0.2 -1.1
v -1.4 0.2 -1.1
v -1.8 0.2 -1.1
v 1.8 0 -1.5
v 1.7 0 -1.5
v -1.7 0 -1.5
v -1.8 0 -1.5
v 1.7 0.1 -1.5
v 1.4 0.1 -1.5
v -1.4 0.1 -1.5
v -1.7 0.1 -1.5
v 1.8 0.2 -1.5
v 1.4 0.2 -1.5
v -1.4 0.2 -1.5
v -1.8 0.2 -1.5
v 1.8 0 1.5
v 1.7 0 1.5
v -1.7 0 1.5
v -1.8 0 1.5
v 1.7 0.1 1.5
v 1.4 0.1 1.5
v -1.4 0.1 1.5
v -1.7 0.1 1.5
v 1.8 0.2 1.5
v 1.4 0.2 1.5
v -1.4 0.2 1.5
v -1.8 0.2 1.5
v 1.8 0 1.1
v 1.7 0 1.1
v -1.7 0 1.1
v -1.8 0 1.1
v 1.7 0.1 1.1
v 1.4 0.1 1.1
v -1.4 0.1 1.1
v -1.7 0.1 1.1
v 1.8 0.2 1.1
v 1.4 0.2 1.1
v -1.4 0.2 1.1
v -1.8 0.2 1.1
v 1.8 0 0.7
v 1.7 0 0.7
v -1.7 0 0.7
v -1.8 0 0.7
v 1.7 0.1 0.7
v 1.4 0.1 0.7
v -1.4 0.1 0.7
v -1.7 0.1 0.7
v 1.8 0.2 0.7
v 1.4 0.2 0.7
v -1.4 0.2 0.7
v -1.8 0.2 0.7
v 1.8 0 0.3
v 1.7 0 0.3
v -1.7 0 0.3
v -1.8 0 0.3
v 1.7 0.1 0.3
v 1.4 0.1 0.3
v -1.4 0.1 0.3
v -1.7 0.1 0.3
v 1.8 0.2 0.3
v 1.4 0.2 0.3
v -1.4 0.2 0.3
v -1.8 0.2 0.3
v 1.8 0 -0.1
v 1.7 0 -0.1
v -1.7 0 -0.1
v -1.8 0 -0.1
v 1.7 0.1 -0.1
v 1.4 0.1 -0.1
v -1.4 0.1 -0.1
v -1.7 0.1 -0.1
v 1.8 0.2 -0.1
v 1.4 0.2 -0.1
v -1.4 0.2 -0.1
v -1.8 0.2 -0.1
v 1.8 0 -0.5
v 1.7 0 -0.5
v -1.7 0 -0.5
v -1.8 0 -0.5
v 1.7 0.1 -0.5
v 1.4 0.1 -0.5
v -1.4 0.1 -0.5
v -1.7 0.1 -0.5
v 1.8 0.2 -0.5
v 1.4 0.2 -0.5
v -1.4 0.2 -0.5
v -1.8 0.2 -0.5
v 0.8 1.5 -0.8
v 0.6 1.5 -0.8
v -0.6 1.5 -0.8
v -0.8 1.5 -0.8
v 0.8 1.6 -0.8
v 0.6 1.6 -0.8
v -0.6 1.6 -0.8
v -0.8 1.6 -0.8
v 1.8 0 -0.9
v 1.7 0 -0.9
v -1.7 0 -0.9
v -1.8 0 -0.9
v 1.7 0.1 -0.9
v 1.4 0.1 -0.9
v -1.4 0.1 -0.9
v -1.7 0.1 -0.9
v 1.8 0.2 -0.9
v 1.4 0.2 -0.9
v -1.4 0.2 -0.9
v -1.8 0.2 -0.9
v 1 0.5 -1
v 0.8 0.5 -1
v -0.8 0.5 -1
v -1 0.5 -1
v 1 1.5 -1
v 0.8 1.5 -1
v 0.6 1.5 -1
v -0.6 1.5 -1
v -0.8 1.5 -1
v -1 1.5 -1
v 0.6 1.6 -1
v -0.6 1.6 -1
v 1.1 0.3 -1.1
v 1 0.3 -1.1
v 0.9 0.3 -1.1
v -0.9 0.3 -1.1
v -1 0.3 -1.1
v -1.1 0.3 -1.1
v 1.1 0.4 -1.1
v 1 0.4 -1.1
v 0.9 0.4 -1.1
v -0.9 0.4 -1.1
v -1 0.4 -1.1
v -1.1 0.4 -1.1
v 1.1 0.5 -1.1
v 1 0.5 -1.1
v 0.9 0.5 -1.1
v -0.9 0.5 -1.1
v -1 0.5 -1.1
v -1.1 0.5 -1.1
v 0.8 0.5 -1.2
v 0.7 0.5 -1.2
v 0.5 0.5 -1.2
v 0.3 0.5 -1.2
v 0.1 0.5 -1.2
v -0.0999999 0.5 -1.2
v -0.3 0.5 -1.2
v -0.5 0.5 -1.2
v -0.7 0.5 -1.2
v -0.8 0.5 -1.2
v 0.7 0.6 -1.2
v 0.6 0.6 -1.2
v 0.5 0.6 -1.2
v 0.4 0.6 -1.2
v 0.2 0.6 -1.2
v 0.1 0.6 -1.2
v -0.0999999 0.6 -1.2
v -0.2 0.6 -1.2
v 0.7 0.7 -1.2
v 0.6 0.7 -1.2
v 0.5 0.7 -1.2
v 0.4 0.7 -1.2
v 0.4 0.8 -1.2
v 0.2 0.8 -1.2
v 0.1 0.8 -1.2
v -0.0999999 0.8 -1.2
v -0.2 0.8 -1.2
v -0.4 0.8 -1.2
v 0.4 0.9 -1.2
v 0.2 0.9 -1.2
v 0.1 0.9 -1.2
v -0.0999999 0.9 -1.2
v -0.2 0.9 -1.2
v -0.4 0.9 -1.2
v -0.5 0.9 -1.2
v -0.6 0.9 -1.2
v -0.5 1 -1.2
v -0.6 1 -1.2
v 0.4 1.1 -1.2
v 0.2 1.1 -1.2
v 0.1 1.1 -1.2
v -0.0999999 1.1 -1.2
v -0.2 1.1 -1.2
v -0.4 1.1 -1.2
v -0.5 1.1 -1.2
v -0.6 1.1 -1.2
v 0.4 1.2 -1.2
v 0.2 1.2 -1.2
v 0.1 1.2 -1.2
v -0.0999999 1.2 -1.2
v -0.2 1.2 -1.2
v -0.4 1.2 -1.2
v -0.5 1.3 -1.2
v -0.6 1.3 -1.2
v 0.2 1.4 -1.2
v 0.1 1.4 -1.2
v -0.0999999 1.4 -1.2
v -0.2 1.4 -1.2
v 0.8 1.5 -1.2
v -0.8 1.5 -1.2
v 1.8 0 -1.3
v 1.7 0 -1.3
v -1.7 0 -1.3
v -1.8 0 -1.3
v 1.7 0.1 -1.3
v 1.4 0.1 -1.3
v -1.4 0.1 -1.3
v -1.7 0.1 -1.3
v 1.8 0.2 -1.3
v 1.4 0.2 -1.3
v -1.4 0.2 -1.3
v -1.8 0.2 -1.3
v 0.9 0.3 -1.3
v 0.7 0.3 -1.3
v 0.5 0.3 -1.3
v 0.3 0.3 -1.3
v 0.1 0.3 -1.3
v -0.0999999 0.3 -1.3
v -0.3 0.3 -1.3
v -0.5 0.3 -1.3
v -0.7 0.3 -1.3
v -0.9 0.3 -1.3
v 0.9 0.4 -1.3
v 0.7 0.4 -1.3
v 0.5 0.4 -1.3
v 0.3 0.4 -1.3
v 0.1 0.4 -1.3
v -0.0999999 0.4 -1.3
v -0.3 0.4 -1.3
v -0.5 0.4 -1.3
v -0.7 0.4 -1.3
v -0.9 0.4 -1.3
v 0.9 0.5 -1.3
v 0.7 0.5 -1.3
v 0.5 0.5 -1.3
v 0.3 0.5 -1.3
v 0.1 0.5 -1.3
v -0.0999999 0.5 -1.3
v -0.3 0.5 -1.3
v -0.5 0.5 -1.3
v -0.7 0.5 -1.3
v -0.9 0.5 -1.3
v 1.1 0.1 -1.6
v 0.9 0.1 -1.6
v 0.7 0.1 -1.6
v 0.5 0.1 -1.6
v 0.3 0.1 -1.6
v 0.1 0.1 -1.6
v -0.0999999 0.1 -1.6
v -0.3 0.1 -1.6
v -0.5 0.1 -1.6
v -0.7 0.1 -1.6
v -0.9 0.1 -1.6
v -1.1 0.1 -1.6
v 1.4 0.2 -1.6
v 1.1 0.2 -1.6
v 0.9 0.2 -1.6
v 0.7 0.2 -1.6
v 0.5 0.2 -1.6
v 0.3 0.2 -1.6
v 0.1 0.2 -1.6
v -0.0999999 0.2 -1.6
v -0.3 0.2 -1.6
v -0.5 0.2 -1.6
v -0.7 0.2 -1.6
v -0.9 0.2 -1.6
v -1.1 0.2 -1.6
v -1.4 0.2 -1.6
v 1.4 0.3 -1.6
v -1.4 0.3 -1.6
v 1.8 0.1 -1.7
v 1.3 0.1 -1.7
v -1.3 0.1 -1.7
v -1.8 0.1 -1.7
v 1.8 0.2 -1.7
v 1.3 0.2 -1.7
v -1.3 0.2 -1.7
v -1.8 0.2 -1.7
v 1.8 0 -1.8
v 1.4 0 -1.8
v -1.4 0 -1.8
v -1.8 0 -1.8
v 1.8 0.1 -1.8
v 1.4 0.1 -1.8
v -1.4 0.1 -1.8
v -1.8 0.1 -1.8
v 1.1 0 -1.9
v 0.9 0 -1.9
v 0.7 0 -1.9
v 0.5 0 -1.9
v 0.3 0 -1.9
v 0.1 0 -1.9
v -0.0999999 0 -1.9
v -0.3 0 -1.9
v -0.5 0 -1.9
v -0.7 0 -1.9
v -0.9 0 -1.9
v -1.1 0 -1.9
v 1.1 0.1 -1.9
v 0.9 0.1 -1.9
v 0.7 0.1 -1.9
v 0.5 0.1 -1.9
v 0.3 0.1 -1.9
v 0.1 0.1 -1.9
v -0.0999999 0.1 -1.9
v -0.3 0.1 -1.9
v -0.5 0.1 -1.9
v -0.7 0.1 -1.9
v -0.9 0.1 -1.9
v -1.1 0.1 -1.9
v 1.4 0 -2
v 1.1 0 -2
v 0.9 0 -2
v 0.7 0 -2
v 0.5 0 -2
v 0.3 0 -2
v 0.1 0 -2
v -0.0999999 0 -2
v -0.3 0 -2
v -0.5 0 -2
v -0.7 0 -2
v -0.9 0 -2
v -1.1 0 -2
v -1.4 0 -2
v 1.4 0.1 -2
v 1.3 0.1 -2
v -1.3 0.1 -2
v -1.4 0.1 -2
v 1.3 0.2 -2
v 1.1 0.2 -2
v 0.9 0.2 -2
v 0.7 0.2 -2
v 0.5 0.2 -2
v 0.3 0.2 -2
v 0.1 0.2 -2
v -0.0999999 0.2 -2
v -0.3 0.2 -2
v -0.5 0.2 -2
v -0.7 0.2 -2
v -0.9 0.2 -2
v -1.1 0.2 -2
v -1.3 0.2 -2
v 1.8 0 1.8
v 1.8 0.1 1.8
v 1.8 0.1 1.7
v 1.8 0.2 1.7
v 1.8 0 1.5
v 1.8 0.2 1.5
v 1.8 0 1.3
v 1.8 0.2 1.3
v 1.8 0 1.1
v 1.8 0.2 1.1
v 1.8 0 0.9
v 1.8 0.2 0.9
v 1.8 0 0.7
v 1.8 0.2 0.7
v 1.8 0 0.5
v 1.8 0.2 0.5
v 1.8 0 0.3
v 1.8 0.2 0.3
v 1.8 0 0.0999999
v 1.8 0.2 0.0999999
v 1.8 0 -0.1
v 1.8 0.2 -0.1
v 1.8 0 -0.3
v 1.8 0.2 -0.3
v 1.8 0 -0.5
v 1.8 0.2 -0.5
v 1.8 0 -0.7
v 1.8 0.2 -0.7
v 1.8 0 -0.9
v 1.8 0.2 -0.9
v 1.8 0 -1.1
v 1.8 0.2 -1.1
v 1.8 0 -1.3
v 1.8 0.2 -1.3
v 1.8 0 -1.5
v 1.8 0.2 -1.5
v 1.8 0.1 -1.7
v 1.8 0.2 -1.7
v 1.8 0 -1.8
v 1.8 0.1 -1.8
v 1.7 0 1.5
v 1.7 0.1 1.5
v 1.7 0 1.3
v 1.7 0.1 1.3
v 1.7 0 1.1
v 1.7 0.1 1.1
v 1.7 0 0.9
v 1.7 0.1 0.9
v 1.7 0 0.7
v 1.7 0.1 0.7
v 1.7 0 0.5
v 1.7 0.1 0.5
v 1.7 0 0.3
v 1.7 0.1 0.3
v 1.7 0 0.0999999
v 1.7 0.1 0.0999999
v 1.7 0 -0.1
v 1.7 0.1 -0.1
v 1.7 0 -0.3
v 1.7 0.1 -0.3
v 1.7 0 -0.5
v 1.7 0.1 -0.5
v 1.7 0 -0.7
v 1.7 0.1 -0.7
v 1.7 0 -0.9
v 1.7 0.1 -0.9
v 1.7 0 -1.1
v 1.7 0.1 -1.1
v 1.7 0 -1.3
v 1.7 0.1 -1.3
v 1.7 0 -1.5
v 1.7 0.1 -1.5
v 1.4 0 2
v 1.4 0.1 2
v 1.4 0 1.8
v 1.4 0.1 1.8
v 1.4 0.2 1.6
v 1.4 0.3 1.6
v 1.4 0.1 1.5
v 1.4 0.2 1.5
v 1.4 0.1 1.3
v 1.4 0.2 1.3
v 1.4 0.1 1.1
v 1.4 0.2 1.1
v 1.4 0.1 0.9
v 1.4 0.2 0.9
v 1.4 0.1 0.7
v 1.4 0.2 0.7
v 1.4 0.1 0.5
v 1.4 0.2 0.5
v 1.4 0.1 0.3
v 1.4 0.2 0.3
v 1.4 0.1 0.0999999
v 1.4 0.2 0.0999999
v 1.4 0.1 -0.1
v 1.4 0.2 -0.1
v 1.4 0.1 -0.3
v 1.4 0.2 -0.3
v 1.4 0.1 -0.5
v 1.4 0.2 -0.5
v 1.4 0.1 -0.7
v 1.4 0.2 -0.7
v 1.4 0.1 -0.9
v 1.4 0.2 -0.9
v 1.4 0.1 -1.1
v 1.4 0.2 -1.1
v 1.4 0.1 -1.3
v 1.4 0.2 -1.3
v 1.4 0.1 -1.5
v 1.4 0.2 -1.5
v 1.4 0.2 -1.6
v 1.4 0.3 -1.6
v 1.4 0 -1.8
v 1.4 0.1 -1.8
v 1.4 0 -2
v 1.4 0.1 -2
v 1.3 0.1 2
v 1.3 0.2 2
v 1.3 0.1 1.7
v 1.3 0.2 1.7
v 1.3 0.1 -1.7
v 1.3 0.2 -1.7
v 1.3 0.1 -2
v 1.3 0.2 -2
v 1.1 0.3 1.1
v 1.1 0.4 1.1
v 1.1 0.5 1.1
v 1.1 0.3 0.9
v 1.1 0.4 0.9
v 1.1 0.5 0.9
v 1.1 0.3 0.7
v 1.1 0.4 0.7
v 1.1 0.5 0.7
v 1.1 0.3 0.5
v 1.1 0.4 0.5
v 1.1 0.5 0.5
v 1.1 0.3 0.3
v 1.1 0.4 0.3
v 1.1 0.5 0.3
v 1.1 0.3 0.0999999
v 1.1 0.4 0.0999999
v 1.1 0.5 0.0999999
v 1.1 0.3 -0.1
v 1.1 0.4 -0.1
v 1.1 0.5 -0.1
v 1.1 0.3 -0.3
v 1.1 0.4 -0.3
v 1.1 0.5 -0.3
v 1.1 0.3 -0.5
v 1.1 0.4 -0.5
v 1.1 0.5 -0.5
v 1.1 0.3 -0.7
v 1.1 0.4 -0.7
v 1.1 0.5 -0.7
v 1.1 0.3 -0.9
v 1.1 0.4 -0.9
v 1.1 0.5 -0.9
v 1.1 0.3 -1.1
v 1.1 0.4 -1.1
v 1.1 0.5 -1.1
v 1 0.5 1
v 1 1.5 1
v 1 0.5 0.9
v 1 1.3 0.9
v 1 1.4 0.9
v 1 1 0.8
v 1 1.3 0.8
v 1 1.4 0.8
v 1 0.5 0.7
v 1 1 0.7
v 1 1.3 0.7
v 1 1.4 0.7
v 1 0.5 0.5
v 1 1.3 0.5
v 1 1.4 0.5
v 1 0.8 0.4
v 1 0.9 0.4
v 1 1.1 0.4
v 1 1.2 0.4
v 1 0.5 0.3
v 1 0.6 0.2
v 1 0.8 0.2
v 1 0.9 0.2
v 1 1.1 0.2
v 1 1.2 0.2
v 1 1.4 0.2
v 1 0.5 0.0999999
v 1 0.6 0.0999999
v 1 0.8 0.0999999
v 1 0.9 0.0999999
v 1 1.1 0.0999999
v 1 1.2 0.0999999
v 1 1.4 0.0999999
v 1 0.5 -0.1
v 1 0.6 -0.1
v 1 0.8 -0.1
v 1 0.9 -0.1
v 1 1.1 -0.1
v 1 1.2 -0.1
v 1 1.4 -0.1
v 1 0.6 -0.2
v 1 0.8 -0.2
v 1 0.9 -0.2
v 1 1.1 -0.2
v 1 1.2 -0.2
v 1 1.4 -0.2
v 1 0.5 -0.3
v 1 0.8 -0.4
v 1 0.9 -0.4
v 1 1.1 -0.4
v 1 1.2 -0.4
v 1 0.5 -0.5
v 1 0.7 -0.5
v 1 0.8 -0.5
v 1 0.5 -0.7
v 1 0.6 -0.7
v 1 0.7 -0.7
v 1 0.8 -0.7
v 1 1.1 -0.7
v 1 0.6 -0.8
v 1 0.7 -0.8
v 1 0.8 -0.8
v 1 1.1 -0.8
v 1 0.5 -0.9
v 1 0.5 -1
v 1 1.5 -1
v 0.9 0 2
v 0.9 0.2 2
v 0.9 0 1.9
v 0.9 0.1 1.9
v 0.9 0.1 1.6
v 0.9 0.2 1.6
v 0.9 0.3 1.3
v 0.9 0.4 1.3
v 0.9 0.5 1.3
v 0.9 0.3 1.2
v 0.9 0.4 1.2
v 0.9 0.5 1.2
v 0.9 0.3 1.1
v 0.9 0.4 1.1
v 0.9 0.5 1.1
v 0.9 0.3 -1.1
v 0.9 0.4 -1.1
v 0.9 0.5 -1.1
v 0.9 0.3 -1.2
v 0.9 0.4 -1.2
v 0.9 0.5 -1.2
v 0.9 0.3 -1.3
v 0.9 0.4 -1.3
v 0.9 0.5 -1.3
v 0.9 0.1 -1.6
v 0.9 0.2 -1.6
v 0.9 0 -1.9
v 0.9 0.1 -1.9
v 0.9 0 -2
v 0.9 0.2 -2
v 0.8 0.5 1.2
v 0.8 1.5 1.2
v 0.8 0.5 1
v 0.8 1.5 1
v 0.8 1.5 0.8
v 0.8 1.6 0.8
v 0.8 1.5 -0.8
v 0.8 1.6 -0.8
v 0.8 0.5 -1
v 0.8 1.5 -1
v 0.8 0.5 -1.2
v 0.8 1.5 -1.2
v 0.6 1.5 1
v 0.6 1.6 1
v 0.6 1.5 0.8
v 0.6 1.6 0.8
v 0.6 1.5 -0.8
v 0.6 1.6 -0.8
v 0.6 1.5 -1
v 0.6 1.6 -1
v 0.5 0 2
v 0.5 0.2 2
v 0.5 0 1.9
v 0.5 0.1 1.9
v 0.5 0.1 1.6
v 0.5 0.2 1.6
v 0.5 0.1 -1.6
v 0.5 0.2 -1.6
v 0.5 0 -1.9
v 0.5 0.1 -1.9
v 0.5 0 -2
v 0.5 0.2 -2
v 0.1 0 2
v 0.1 0.2 2
v 0.1 0 1.9
v 0.1 0.1 1.9
v 0.1 0.1 1.6
v 0.1 0.2 1.6
v 0.1 0.1 -1.6
v 0.1 0.2 -1.6
v 0.1 0 -1.9
v 0.1 0.1 -1.9
v 0.1 0 -2
v 0.1 0.2 -2
v -0.3 0 2
v -0.3 0.2 2
v -0.3 0 1.9
v -0.3 0.1 1.9
v -0.3 0.1 1.6
v -0.3 0.2 1.6
v -0.3 0.1 -1.6
v -0.3 0.2 -1.6
v -0.3 0 -1.9
v -0.3 0.1 -1.9
v -0.3 0 -2
v -0.3 0.2 -2
v -0.7 0 2
v -0.7 0.2 2
v -0.7 0 1.9
v -0.7 0.1 1.9
v -0.7 0.1 1.6
v -0.7 0.2 1.6
v -0.7 0.1 -1.6
v -0.7 0.2 -1.6
v -0.7 0 -1.9
v -0.7 0.1 -1.9
v -0.7 0 -2
v -0.7 0.2 -2
v -1.1 0 2
v -1.1 0.2 2
v -1.1 0 1.9
v -1.1 0.1 1.9
v -1.1 0.1 1.6
v -1.1 0.2 1.6
v -1.1 0.1 -1.6
v -1.1 0.2 -1.6
v -1.1 0 -1.9
v -1.1 0.1 -1.9
v -1.1 0 -2
v -1.1 0.2 -2
v 1.1 0 2
v 1.1 0.2 2
v 1.1 0 1.9
v 1.1 0.1 1.9
v 1.1 0.1 1.6
v 1.1 0.2 1.6
v 1.1 0.1 -1.6
v 1.1 0.2 -1.6
v 1.1 0 -1.9
v 1.1 0.1 -1.9
v 1.1 0 -2
v 1.1 0.2 -2
v 0.7 0 2
v 0.7 0.2 2
v 0.7 0 1.9
v 0.7 0.1 1.9
v 0.7 0.1 1.6
v 0.7 0.2 1.6
v 0.7 0.1 -1.6
v 0.7 0.2 -1.6
v 0.7 0 -1.9
v 0.7 0.1 -1.9
v 0.7 0 -2
v 0.7 0.2 -2
v 0.3 0 2
v 0.3 0.2 2
v 0.3 0 1.9
v 0.3 0.1 1.9
v 0.3 0.1 1.6
v 0.3 0.2 1.6
v 0.3 0.1 -1.6
v 0.3 0.2 -1.6
v 0.3 0 -1.9
v 0.3 0.1 -1.9
v 0.3 0 -2
v 0.3 0.2 -2
v -0.0999999 0 2
v -0.0999999 0.2 2
v -0.0999999 0 1.9
v -0.0999999 0.1 1.9
v -0.0999999 0.1 1.6
v -0.0999999 0.2 1.6
v -0.0999999 0.1 -1.6
v -0.0999999 0.2 -1.6
v -0.0999999 0 -1.9
v -0.0999999 0.1 -1.9
v -0.0999999 0 -2
v -0.0999999 0.2 -2
v -0.5 0 2
v -0.5 0.2 2
v -0.5 0 1.9
v -0.5 0.1 1.9
v -0.5 0.1 1.6
v -0.5 0.2 1.6
v -0.5 0.1 -1.6
v -0.5 0.2 -1.6
v -0.5 0 -1.9
v -0.5 0.1 -1.9
v -0.5 0 -2
v -0.5 0.2 -2
v -0.6 1.5 1
v -0.6 1.6 1
v -0.6 1.5 0.8
v -0.6 1.6 0.8
v -0.6 1.5 -0.8
v -0.6 1.6 -0.8
v -0.6 1.5 -1
v -0.6 1.6 -1
v -0.8 0.5 1.2
v -0.8 1.5 1.2
v -0.8 0.5 1
v -0.8 1.5 1
v -0.8 1.5 0.8
v -0.8 1.6 0.8
v -0.8 1.5 -0.8
v -0.8 1.6 -0.8
v -0.8 0.5 -1
v -0.8 1.5 -1
v -0.8 0.5 -1.2
v -0.8 1.5 -1.2
v -0.9 0 2
v -0.9 0.2 2
v -0.9 0 1.9
v -0.9 0.1 1.9
v -0.9 0.1 1.6
v -0.9 0.2 1.6
v -0.9 0.3 1.3
v -0.9 0.4 1.3
v -0.9 0.5 1.3
v -0.9 0.3 1.2
v -0.9 0.4 1.2
v -0.9 0.5 1.2
v -0.9 0.3 1.1
v -0.9 0.4 1.1
v -0.9 0.5 1.1
v -0.9 0.3 -1.1
v -0.9 0.4 -1.1
v -0.9 0.5 -1.1
v -0.9 0.3 -1.2
v -0.9 0.4 -1.2
v -0.9 0.5 -1.2
v -0.9 0.3 -1.3
v -0.9 0.4 -1.3
v -0.9 0.5 -1.3
v -0.9 0.1 -1.6
v -0.9 0.2 -1.6
v -0.9 0 -1.9
v -0.9 0.1 -1.9
v -0.9 0 -2
v -0.9 0.2 -2
v -1 0.5 1
v -1 1.5 1
v -1 0.5 0.9
v -1 0.6 0.9
v -1 0.7 0.9
v -1 0.6 0.8
v -1 0.7 0.8
v -1 1 0.8
v -1 0.5 0.7
v -1 0.6 0.7
v -1 0.7 0.7
v -1 1 0.7
v -1 0.5 0.5
v -1 0.6 0.5
v -1 0.7 0.5
v -1 0.8 0.4
v -1 0.9 0.4
v -1 1.1 0.4
v -1 1.2 0.4
v -1 0.5 0.3
v -1 0.6 0.2
v -1 0.8 0.2
v -1 0.9 0.2
v -1 1.1 0.2
v -1 1.2 0.2
v -1 1.4 0.2
v -1 0.5 0.0999999
v -1 0.6 0.0999999
v -1 0.8 0.0999999
v -1 0.9 0.0999999
v -1 1.1 0.0999999
v -1 1.2 0.0999999
v -1 1.4 0.0999999
v -1 0.5 -0.1
v -1 0.6 -0.1
v -1 0.8 -0.1
v -1 0.9 -0.1
v -1 1.1 -0.1
v -1 1.2 -0.1
v -1 1.4 -0.1
v -1 0.6 -0.2
v -1 0.8 -0.2
v -1 0.9 -0.2
v -1 1.1 -0.2
v -1 1.2 -0.2
v -1 1.4 -0.2
v -1 0.5 -0.3
v -1 0.8 -0.4
v -1 0.9 -0.4
v -1 1.1 -0.4
v -1 1.2 -0.4
v -1 0.5 -0.5
v -1 0.5 -0.7
v -1 0.9 -0.7
v -1 1.1 -0.7
v -1 1.2 -0.7
v -1 1.3 -0.7
v -1 0.9 -0.8
v -1 1.1 -0.8
v -1 1.2 -0.8
v -1 1.3 -0.8
v -1 0.5 -0.9
v -1 0.5 -1
v -1 1.5 -1
v -1.1 0.3 1.1
v -1.1 0.4 1.1
v -1.1 0.5 1.1
v -1.1 0.3 0.9
v -1.1 0.4 0.9
v -1.1 0.5 0.9
v -1.1 0.3 0.7
v -1.1 0.4 0.7
v -1.1 0.5 0.7
v -1.1 0.3 0.5
v -1.1 0.4 0.5
v -1.1 0.5 0.5
v -1.1 0.3 0.3
v -1.1 0.4 0.3
v -1.1 0.5 0.3
v -1.1 0.3 0.0999999
v -1.1 0.4 0.0999999
v -1.1 0.5 0.0999999
v -1.1 0.3 -0.1
v -1.1 0.4 -0.1
v -1.1 0.5 -0.1
v -1.1 0.3 -0.3
v -1.1 0.4 -0.3
v -1.1 0.5 -0.3
v -1.1 0.3 -0.5
v -1.1 0.4 -0.5
v -1.1 0.5 -0.5
v -1.1 0.3 -0.7
v -1.1 0.4 -0.7
v -1.1 0.5 -0.7
v -1.1 0.3 -0.9
v -1.1 0.4 -0.9
v -1.1 0.5 -0.9
v -1.1 0.3 -1.1
v -1.1 0.4 -1.1
v -1.1 0.5 -1.1
v -1.3 0.1 2
v -1.3 0.2 2
v -1.3 0.1 1.7
v -1.3 0.2 1.7
v -1.3 0.1 -1.7
v -1.3 0.2 -1.7
v -1.3 0.1 -2
v -1.3 0.2 -2
v -1.4 0 2
v -1.4 0.1 2
v -1.4 0 1.8
v -1.4 0.1 1.8
v -1.4 0.2 1.6
v -1.4 0.3 1.6
v -1.4 0.1 1.5
v -1.4 0.2 1.5
v -1.4 0.1 1.3
v -1.4 0.2 1.3
v -1.4 0.1 1.1
v -1.4 0.2 1.1
v -1.4 0.1 0.9
v -1.4 0.2 0.9
v -1.4 0.1 0.7
v -1.4 0.2 0.7
v -1.4 0.1 0.5
v -1.4 0.2 0.5
v -1.4 0.1 0.3
v -1.4 0.2 0.3
v -1.4 0.1 0.0999999
v -1.4 0.2 0.0999999
v -1.4 0.1 -0.1
v -1.4 0.2 -0.1
v -1.4 0.1 -0.3
v -1.4 0.2 -0.3
v -1.4 0.1 -0.5
v -1.4 0.2 -0.5
v -1.4 0.1 -0.7
v -1.4 0.2 -0.7
v -1.4 0.1 -0.9
v -1.4 0.2 -0.9
v -1.4 0.1 -1.1
v -1.4 0.2 -1.1
v -1.4 0.1 -1.3
v -1.4 0.2 -1.3
v -1.4 0.1 -1.5
v -1.4 0.2 -1.5
v -1.4 0.2 -1.6
v -1.4 0.3 -1.6
v -1.4 0 -1.8
v -1.4 0.1 -1.8
v -1.4 0 -2
v -1.4 0.1 -2
v -1.7 0 1.5
v -1.7 0.1 1.5
v -1.7 0 1.3
v -1.7 0.1 1.3
v -1.7 0 1.1
v -1.7 0.1 1.1
v -1.7 0 0.9
v -1.7 0.1 0.9
v -1.7 0 0.7
v -1.7 0.1 0.7
v -1.7 0 0.5
v -1.7 0.1 0.5
v -1.7 0 0.3
v -1.7 0.1 0.3
v -1.7 0 0.0999999
v -1.7 0.1 0.0999999
v -1.7 0 -0.1
v -1.7 0.1 -0.1
v -1.7 0 -0.3
v -1.7 0.1 -0.3
v -1.7 0 -0.5
v -1.7 0.1 -0.5
v -1.7 0 -0.7
v -1.7 0.1 -0.7
v -1.7 0 -0.9
v -1.7 0.1 -0.9
v -1.7 0 -1.1
v -1.7 0.1 -1.1
v -1.7 0 -1.3
v -1.7 0.1 -1.3
v -1.7 0 -1.5
v -1.7 0.1 -1.5
v -1.8 0 1.8
v -1.8 0.1 1.8
v -1.8 0.1 1.7
v -1.8 0.2 1.7
v -1.8 0 1.5
v -1.8 0.2 1.5
v -1.8 0 1.3
v -1.8 0.2 1.3
v -1.8 0 1.1
v -1.8 0.2 1.1
v -1.8 0 0.9
v -1.8 0.2 0.9
v -1.8 0 0.7
v -1.8 0.2 0.7
v -1.8 0 0.5
v -1.8 0.2 0.5
v -1.8 0 0.3
v -1.8 0.2 0.3
v -1.8 0 0.0999999
v -1.8 0.2 0.0999999
v -1.8 0 -0.1
v -1.8 0.2 -0.1
v -1.8 0 -0.3
v -1.8 0.2 -0.3
v -1.8 0 -0.5
v -1.8 0.2 -0.5
v -1.8 0 -0.7
v -1.8 0.2 -0.7
v -1.8 0 -0.9
v -1.8 0.2 -0.9
v -1.8 0 -1.1
v -1.8 0.2 -1.1
v -1.8 0 -1.3
v -1.8 0.2 -1.3
v -1.8 0 -1.5
v -1.8 0.2 -1.5
v -1.8 0.1 -1.7
v -1.8 0.2 -1.7
v -1.8 0 -1.8
v -1.8 0.1 -1.8
v 1.8 0 1.8
v 1.8 0 1.5
v 1.8 0 1.3
v 1.8 0 1.1
v 1.8 0 0.9
v 1.8 0 0.7
v 1.8 0 0.5
v 1.8 0 0.3
v 1.8 0 0.0999999
v 1.8 0 -0.1
v 1.8 0 -0.3
v 1.8 0 -0.5
v 1.8 0 -0.7
v 1.8 0 -0.9
v 1.8 0 -1.1
v 1.8 0 -1.3
v 1.8 0 -1.5
v 1.8 0 -1.8
v 1.7 0 1.5
v 1.7 0 1.3
v 1.7 0 1.1
v 1.7 0 0.9
v 1.7 0 0.7
v 1.7 0 0.5
v 1.7 0 0.3
v 1.7 0 0.0999999
v 1.7 0 -0.1
v 1.7 0 -0.3
v 1.7 0 -0.5
v 1.7 0 -0.7
v 1.7 0 -0.9
v 1.7 0 -1.1
v 1.7 0 -1.3
v 1.7 0 -1.5
v 1.4 0 2
v 1.4 0 1.8
v 1.4 0 -1.8
v 1.4 0 -2
v 1.1 0 2
v 1.1 0 1.9
v 1.1 0 -1.9
v 1.1 0 -2
v 0.9 0 2
v 0.9 0 1.9
v 0.9 0 -1.9
v 0.9 0 -2
v 0.7 0 2
v 0.7 0 1.9
v 0.7 0 -1.9
v 0.7 0 -2
v 0.5 0 2
v 0.5 0 1.9
v 0.5 0 -1.9
v 0.5 0 -2
v 0.3 0 2
v 0.3 0 1.9
v 0.3 0 -1.9
v 0.3 0 -2
v 0.1 0 2
v 0.1 0 1.9
v 0.1 0 -1.9
v 0.1 0 -2
v -0.0999999 0 2
v -0.0999999 0 1.9
v -0.0999999 0 -1.9
v -0.0999999 0 -2
v -0.3 0 2
v -0.3 0 1.9
v -0.3 0 -1.9
v -0.3 0 -2
v -0.5 0 2
v -0.5 0 1.9
v -0.5 0 -1.9
v -0.5 0 -2
v -0.7 0 2
v -0.7 0 1.9
v -0.7 0 -1.9
v -0.7 0 -2
v -0.9 0 2
v -0.9 0 1.9
v -0.9 0 -1.9
v -0.9 0 -2
v -1.1 0 2
v -1.1 0 1.9
v -1.1 0 -1.9
v -1.1 0 -2
v -1.4 0 2
v -1.4 0 1.8
v -1.4 0 -1.8
v -1.4 0 -2
v -1.7 0 1.5
v -1.7 0 1.3
v -1.7 0 1.1
v -1.7 0 0.9
v -1.7 0 0.7
v -1.7 0 0.5
v -1.7 0 0.3
v -1.7 0 0.0999999
v -1.7 0 -0.1
v -1.7 0 -0.3
v -1.7 0 -0.5
v -1.7 0 -0.7
v -1.7 0 -0.9
v -1.7 0 -1.1
v -1.7 0 -1.3
v -1.7 0 -1.5
v -1.8 0 1.8
v -1.8 0 1.5
v -1.8 0 1.3
v -1.8 0 1.1
v -1.8 0 0.9
v -1.8 0 0.7
v -1.8 0 0.5
v -1.8 0 0.3
v -1.8 0 0.0999999
v -1.8 0 -0.1
v -1.8 0 -0.3
v -1.8 0 -0.5
v -1.8 0 -0.7
v -1.8 0 -0.9
v -1.8 0 -1.1
v -1.8 0 -1.3
v -1.8 0 -1.5
v -1.8 0 -1.8
v 1.8 0.1 1.8
v 1.8 0.1 1.7
v 1.8 0.1 -1.7
v 1.8 0.1 -1.8
v 1.7 0.1 1.5
v 1.7 0.1 1.3
v 1.7 0.1 1.1
v 1.7 0.1 0.9
v 1.7 0.1 0.7
v 1.7 0.1 0.5
v 1.7 0.1 0.3
v 1.7 0.1 0.0999999
v 1.7 0.1 -0.1
v 1.7 0.1 -0.3
v 1.7 0.1 -0.5
v 1.7 0.1 -0.7
v 1.7 0.1 -0.9
v 1.7 0.1 -1.1
v 1.7 0.1 -1.3
v 1.7 0.1 -1.5
v 1.4 0.1 2
v 1.4 0.1 1.8
v 1.4 0.1 1.5
v 1.4 0.1 1.3
v 1.4 0.1 1.1
v 1.4 0.1 0.9
v 1.4 0.1 0.7
v 1.4 0.1 0.5
v 1.4 0.1 0.3
v 1.4 0.1 0.0999999
v 1.4 0.1 -0.1
v 1.4 0.1 -0.3
v 1.4 0.1 -0.5
v 1.4 0.1 -0.7
v 1.4 0.1 -0.9
v 1.4 0.1 -1.1
v 1.4 0.1 -1.3
v 1.4 0.1 -1.5
v 1.4 0.1 -1.8
v 1.4 0.1 -2
v 1.3 0.1 2
v 1.3 0.1 1.7
v 1.3 0.1 -1.7
v 1.3 0.1 -2
v 1.1 0.1 1.9
v 1.1 0.1 1.6
v 1.1 0.1 -1.6
v 1.1 0.1 -1.9
v 0.9 0.1 1.9
v 0.9 0.1 1.6
v 0.9 0.1 -1.6
v 0.9 0.1 -1.9
v 0.7 0.1 1.9
v 0.7 0.1 1.6
v 0.7 0.1 -1.6
v 0.7 0.1 -1.9
v 0.5 0.1 1.9
v 0.5 0.1 1.6
v 0.5 0.1 -1.6
v 0.5 0.1 -1.9
v 0.3 0.1 1.9
v 0.3 0.1 1.6
v 0.3 0.1 -1.6
v 0.3 0.1 -1.9
v 0.1 0.1 1.9
v 0.1 0.1 1.6
v 0.1 0.1 -1.6
v 0.1 0.1 -1.9
v -0.0999999 0.1 1.9
v -0.0999999 0.1 1.6
v -0.0999999 0.1 -1.6
v -0.0999999 0.1 -1.9
v -0.3 0.1 1.9
v -0.3 0.1 1.6
v -0.3 0.1 -1.6
v -0.3 0.1 -1.9
v -0.5 0.1 1.9
v -0.5 0.1 1.6
v -0.5 0.1 -1.6
v -0.5 0.1 -1.9
v -0.7 0.1 1.9
v -0.7 0.1 1.6
v -0.7 0.1 -1.6
v -0.7 0.1 -1.9
v -0.9 0.1 1.9
v -0.9 0.1 1.6
v -0.9 0.1 -1.6
v -0.9 0.1 -1.9
v -1.1 0.1 1.9
v -1.1 0.1 1.6
v -1.1 0.1 -1.6
v -1.1 0.1 -1.9
v -1.3 0.1 2
v -1.3 0.1 1.7
v -1.3 0.1 -1.7
v -1.3 0.1 -2
v -1.4 0.1 2
v -1.4 0.1 1.8
v -1.4 0.1 1.5
v -1.4 0.1 1.3
v -1.4 0.1 1.1
v -1.4 0.1 0.9
v -1.4 0.1 0.7
v -1.4 0.1 0.5
v -1.4 0.1 0.3
v -1.4 0.1 0.0999999
v -1.4 0.1 -0.1
v -1.4 0.1 -0.3
v -1.4 0.1 -0.5
v -1.4 0.1 -0.7
v -1.4 0.1 -0.9
v -1.4 0.1 -1.1
v -1.4 0.1 -1.3
v -1.4 0.1 -1.5
v -1.4 0.1 -1.8
v -1.4 0.1 -2
v -1.7 0.1 1.5
v -1.7 0.1 1.3
v -1.7 0.1 1.1
v -1.7 0.1 0.9
v -1.7 0.1 0.7
v -1.7 0.1 0.5
v -1.7 0.1 0.3
v -1.7 0.1 0.0999999
v -1.7 0.1 -0.1
v -1.7 0.1 -0.3
v -1.7 0.1 -0.5
v -1.7 0.1 -0.7
v -1.7 0.1 -0.9
v -1.7 0.1 -1.1
v -1.7 0.1 -1.3
v -1.7 0.1 -1.5
v -1.8 0.1 1.8
v -1.8 0.1 1.7
v -1.8 0.1 -1.7
v -1.8 0.1 -1.8
v 1.8 0.2 1.7
v 1.8 0.2 1.5
v 1.8 0.2 1.3
v 1.8 0.2 1.1
v 1.8 0.2 0.9
v 1.8 0.2 0.7
v 1.8 0.2 0.5
v 1.8 0.2 0.3
v 1.8 0.2 0.0999999
v 1.8 0.2 -0.1
v 1.8 0.2 -0.3
v 1.8 0.2 -0.5
v 1.8 0.2 -0.7
v 1.8 0.2 -0.9
v 1.8 0.2 -1.1
v 1.8 0.2 -1.3
v 1.8 0.2 -1.5
v 1.8 0.2 -1.7
v 1.4 0.2 1.6
v 1.4 0.2 1.5
v 1.4 0.2 1.3
v 1.4 0.2 1.1
v 1.4 0.2 0.9
v 1.4 0.2 0.7
v 1.4 0.2 0.5
v 1.4 0.2 0.3
v 1.4 0.2 0.0999999
v 1.4 0.2 -0.1
v 1.4 0.2 -0.3
v 1.4 0.2 -0.5
v 1.4 0.2 -0.7
v 1.4 0.2 -0.9
v 1.4 0.2 -1.1
v 1.4 0.2 -1.3
v 1.4 0.2 -1.5
v 1.4 0.2 -1.6
v 1.3 0.2 2
v 1.3 0.2 1.7
v 1.3 0.2 -1.7
v 1.3 0.2 -2
v 1.1 0.2 2
v 1.1 0.2 1.6
v 1.1 0.2 -1.6
v 1.1 0.2 -2
v 0.9 0.2 2
v 0.9 0.2 1.6
v 0.9 0.2 -1.6
v 0.9 0.2 -2
v 0.7 0.2 2
v 0.7 0.2 1.6
v 0.7 0.2 -1.6
v 0.7 0.2 -2
v 0.5 0.2 2
v 0.5 0.2 1.6
v 0.5 0.2 -1.6
v 0.5 0.2 -2
v 0.3 0.2 2
v 0.3 0.2 1.6
v 0.3 0.2 -1.6
v 0.3 0.2 -2
v 0.1 0.2 2
v 0.1 0.2 1.6
v 0.1 0.2 -1.6
v 0.1 0.2 -2
v -0.0999999 0.2 2
v -0.0999999 0.2 1.6
v -0.0999999 0.2 -1.6
v -0.0999999 0.2 -2
v -0.3 0.2 2
v -0.3 0.2 1.6
v -0.3 0.2 -1.6
v -0.3 0.2 -2
v -0.5 0.2 2
v -0.5 0.2 1.6
v -0.5 0.2 -1.6
v -0.5 0.2 -2
v -0.7 0.2 2
v -0.7 0.2 1.6
v -0.7 0.2 -1.6
v -0.7 0.2 -2
v -0.9 0.2 2
v -0.9 0.2 1.6
v -0.9 0.2 -1.6
v -0.9 0.2 -2
v -1.1 0.2 2
v -1.1 0.2 1.6
v -1.1 0.2 -1.6
v -1.1 0.2 -2
v -1.3 0.2 2
v -1.3 0.2 1.7
v -1.3 0.2 -1.7
v -1.3 0.2 -2
v -1.4 0.2 1.6
v -1.4 0.2 1.5
v -1.4 0.2 1.3
v -1.4 0.2 1.1
v -1.4 0.2 0.9
v -1.4 0.2 0.7
v -1.4 0.2 0.5
v -1.4 0.2 0.3
v -1.4 0.2 0.0999999
v -1.4 0.2 -0.1
v -1.4 0.2 -0.3
v -1.4 0.2 -0.5
v -1.4 0.2 -0.7
v -1.4 0.2 -0.9
v -1.4 0.2 -1.1
v -1.4 0.2 -1.3
v -1.4 0.2 -1.5
v -1.4 0.2 -1.6
v -1.8 0.2 1.7
v -1.8 0.2 1.5
v -1.8 0.2 1.3
v -1.8 0.2 1.1
v -1.8 0.2 0.9
v -1.8 0.2 0.7
v -1.8 0.2 0.5
v -1.8 0.2 0.3
v -1.8 0.2 0.0999999
v -1.8 0.2 -0.1
v -1.8 0.2 -0.3
v -1.8 0.2 -0.5
v -1.8 0.2 -0.7
v -1.8 0.2 -0.9
v -1.8 0.2 -1.1
v -1.8 0.2 -1.3
v -1.8 0.2 -1.5
v -1.8 0.2 -1.7
v 1.4 0.3 1.6
v 1.4 0.3 -1.6
v 1.3 0.3 1.5
v 1.3 0.3 1.4
v 1.3 0.3 1
v 1.3 0.3 -1
v 1.3 0.3 -1.4
v 1.3 0.3 -1.5
v 1.2 0.3 1.5
v 1.2 0.3 1.4
v 1.2 0.3 1
v 1.2 0.3 -1
v 1.2 0.3 -1.4
v 1.2 0.3 -1.5
v 1.1 0.3 1.1
v 1.1 0.3 0.9
v 1.1 0.3 0.7
v 1.1 0.3 0.5
v 1.1 0.3 0.3
v 1.1 0.3 0.0999999
v 1.1 0.3 -0.1
v 1.1 0.3 -0.3
v 1.1 0.3 -0.5
v 1.1 0.3 -0.7
v 1.1 0.3 -0.9
v 1.1 0.3 -1.1
v 1 0.3 1.1
v 1 0.3 -1.1
v 0.9 0.3 1.3
v 0.9 0.3 1.2
v 0.9 0.3 1.1
v 0.9 0.3 -1.1
v 0.9 0.3 -1.2
v 0.9 0.3 -1.3
v 0.8 0.3 1.5
v 0.8 0.3 1.4
v 0.8 0.3 -1.4
v 0.8 0.3 -1.5
v 0.7 0.3 1.3
v 0.7 0.3 -1.3
v 0.5 0.3 1.3
v 0.5 0.3 -1.3
v 0.3 0.3 1.3
v 0.3 0.3 -1.3
v 0.1 0.3 1.3
v 0.1 0.3 -1.3
v -0.0999999 0.3 1.3
v -0.0999999 0.3 -1.3
v -0.3 0.3 1.3
v -0.3 0.3 -1.3
v -0.5 0.3 1.3
v -0.5 0.3 -1.3
v -0.7 0.3 1.3
v -0.7 0.3 -1.3
v -0.8 0.3 1.5
v -0.8 0.3 1.4
v -0.8 0.3 -1.4
v -0.8 0.3 -1.5
v -0.9 0.3 1.3
v -0.9 0.3 1.2
v -0.9 0.3 1.1
v -0.9 0.3 -1.1
v -0.9 0.3 -1.2
v -0.9 0.3 -1.3
v -1 0.3 1.1
v -1 0.3 -1.1
v -1.1 0.3 1.1
v -1.1 0.3 0.9
v -1.1 0.3 0.7
v -1.1 0.3 0.5
v -1.1 0.3 0.3
v -1.1 0.3 0.0999999
v -1.1 0.3 -0.1
v -1.1 0.3 -0.3
v -1.1 0.3 -0.5
v -1.1 0.3 -0.7
v -1.1 0.3 -0.9
v -1.1 0.3 -1.1
v -1.2 0.3 1.5
v -1.2 0.3 1.4
v -1.2 0.3 1
v -1.2 0.3 -1
v -1.2 0.3 -1.4
v -1.2 0.3 -1.5
v -1.3 0.3 1.5
v -1.3 0.3 1.4
v -1.3 0.3 1
v -1.3 0.3 -1
v -1.3 0.3 -1.4
v -1.3 0.3 -1.5
v -1.4 0.3 1.6
v -1.4 0.3 -1.6
v 1.1 0.5 1.1
v 1.1 0.5 0.9
v 1.1 0.5 0.7
v 1.1 0.5 0.5
v 1.1 0.5 0.3
v 1.1 0.5 0.0999999
v 1.1 0.5 -0.1
v 1.1 0.5 -0.3
v 1.1 0.5 -0.5
v 1.1 0.5 -0.7
v 1.1 0.5 -0.9
v 1.1 0.5 -1.1
v 1 0.5 1.1
v 1 0.5 1
v 1 0.5 0.9
v 1 0.5 0.7
v 1 0.5 0.5
v 1 0.5 0.3
v 1 0.5 0.0999999
v 1 0.5 -0.1
v 1 0.5 -0.3
v 1 0.5 -0.5
v 1 0.5 -0.7
v 1 0.5 -0.9
v 1 0.5 -1
v 1 0.5 -1.1
v 0.9 0.5 1.3
v 0.9 0.5 1.2
v 0.9 0.5 1.1
v 0.9 0.5 -1.1
v 0.9 0.5 -1.2
v 0.9 0.5 -1.3
v 0.8 0.5 1.2
v 0.8 0.5 1
v 0.8 0.5 -1
v 0.8 0.5 -1.2
v 0.7 0.5 1.3
v 0.7 0.5 1.2
v 0.7 0.5 -1.2
v 0.7 0.5 -1.3
v 0.5 0.5 1.3
v 0.5 0.5 1.2
v 0.5 0.5 -1.2
v 0.5 0.5 -1.3
v 0.3 0.5 1.3
v 0.3 0.5 1.2
v 0.3 0.5 -1.2
v 0.3 0.5 -1.3
v 0.1 0.5 1.3
v 0.1 0.5 1.2
v 0.1 0.5 -1.2
v 0.1 0.5 -1.3
v -0.0999999 0.5 1.3
v -0.0999999 0.5 1.2
v -0.0999999 0.5 -1.2
v -0.0999999 0.5 -1.3
v -0.3 0.5 1.3
v -0.3 0.5 1.2
v -0.3 0.5 -1.2
v -0.3 0.5 -1.3
v -0.5 0.5 1.3
v -0.5 0.5 1.2
v -0.5 0.5 -1.2
v -0.5 0.5 -1.3
v -0.7 0.5 1.3
v -0.7 0.5 1.2
v -0.7 0.5 -1.2
v -0.7 0.5 -1.3
v -0.8 0.5 1.2
v -0.8 0.5 1
v -0.8 0.5 -1
v -0.8 0.5 -1.2
v -0.9 0.5 1.3
v -0.9 0.5 1.2
v -0.9 0.5 1.1
v -0.9 0.5 -1.1
v -0.9 0.5 -1.2
v -0.9 0.5 -1.3
v -1 0.5 1.1
v -1 0.5 1
v -1 0.5 0.9
v -1 0.5 0.7
v -1 0.5 0.5
v -1 0.5 0.3
v -1 0.5 0.0999999
v -1 0.5 -0.1
v -1 0.5 -0.3
v -1 0.5 -0.5
v -1 0.5 -0.7
v -1 0.5 -0.9
v -1 0.5 -1
v -1 0.5 -1.1
v -1.1 0.5 1.1
v -1.1 0.5 0.9
v -1.1 0.5 0.7
v -1.1 0.5 0.5
v -1.1 0.5 0.3
v -1.1 0.5 0.0999999
v -1.1 0.5 -0.1
v -1.1 0.5 -0.3
v -1.1 0.5 -0.5
v -1.1 0.5 -0.7
v -1.1 0.5 -0.9
v -1.1 0.5 -1.1
v 1 1.5 1
v 1 1.5 -1
v 0.8 1.5 1.2
v 0.8 1.5 1
v 0.8 1.5 0.8
v 0.8 1.5 -0.8
v 0.8 1.5 -1
v 0.8 1.5 -1.2
v 0.6 1.5 1
v 0.6 1.5 0.8
v 0.6 1.5 -0.8
v 0.6 1.5 -1
v -0.6 1.5 1
v -0.6 1.5 0.8
v -0.6 1.5 -0.8
v -0.6 1.5 -1
v -0.8 1.5 1.2
v -0.8 1.5 1
v -0.8 1.5 0.8
v -0.8 1.5 -0.8
v -0.8 1.5 -1
v -0.8 1.5 -1.2
v -1 1.5 1
v -1 1.5 -1
v 0.8 1.6 0.8
v 0.8 1.6 -0.8
v 0.6 1.6 1
v 0.6 1.6 0.8
v 0.6 1.6 -0.6
v 0.6 1.6 -0.7
v 0.6 1.6 -0.8
v 0.6 1.6 -1
v 0.4 1.6 0.2
v 0.4 1.6 0.0999999
v 0.4 1.6 -0.1
v 0.4 1.6 -0.2
v 0.4 1.6 -0.4
v 0.4 1.6 -0.6
v 0.4 1.6 -0.7
v 0.4 1.6 -0.9
v 0.3 1.6 -0.4
v 0.3 1.6 -0.6
v 0.3 1.6 -0.7
v 0.3 1.6 -0.9
v 0.2 1.6 0.4
v 0.2 1.6 0.2
v 0.2 1.6 0.0999999
v 0.2 1.6 -0.1
v 0.2 1.6 -0.2
v 0.2 1.6 -0.4
v 0.1 1.6 0.4
v 0.1 1.6 0.2
v 0.1 1.6 0.0999999
v 0.1 1.6 -0.1
v 0.1 1.6 -0.2
v 0.1 1.6 -0.4
v 1.19209e-07 1.6 -0.6
v 1.19209e-07 1.6 -0.7
v -0.0999999 1.6 0.7
v -0.0999999 1.6 0.6
v -0.0999999 1.6 0.4
v -0.0999999 1.6 0.2
v -0.0999999 1.6 0.0999999
v -0.0999999 1.6 -0.1
v -0.0999999 1.6 -0.2
v -0.0999999 1.6 -0.4
v -0.2 1.6 0.4
v -0.2 1.6 0.2
v -0.2 1.6 0.0999999
v -0.2 1.6 -0.1
v -0.2 1.6 -0.2
v -0.2 1.6 -0.4
v -0.4 1.6 0.2
v -0.4 1.6 0.0999999
v -0.4 1.6 -0.1
v -0.4 1.6 -0.2
v -0.5 1.6 0.7
v -0.5 1.6 0.6
v -0.5 1.6 0.3
v -0.6 1.6 1
v -0.6 1.6 0.8
v -0.6 1.6 0.7
v -0.6 1.6 0.6
v -0.6 1.6 0.3
v -0.6 1.6 -0.8
v -0.6 1.6 -1
v -0.8 1.6 0.8
v -0.8 1.6 -0.8

# faces
f 15/6/1 2/6/1 1/6/1
f 16/6/1 2/6/1 15/6/1
f 17/6/1 14/6/1 13/6/1
f 18/6/1 14/6/1 17/6/1
f 19/6/1 2/6/1 16/6/1
f 20/6/1 2/6/1 19/6/1
f 21/6/1 4/6/1 3/6/1
f 22/6/1 4/6/1 21/6/1
f 23/6/1 6/6/1 5/6/1
f 24/6/1 6/6/1 23/6/1
f 25/6/1 8/6/1 7/6/1
f 26/6/1 8/6/1 25/6/1
f 27/6/1 10/6/1 9/6/1
f 28/6/1 10/6/1 27/6/1
f 29/6/1 12/6/1 11/6/1
f 30/6/1 12/6/1 29/6/1
f 31/6/1 17/6/1 13/6/1
f 32/6/1 17/6/1 31/6/1
f 45/6/1 34/6/1 33/6/1
f 46/6/1 34/6/1 45/6/1
f 47/6/1 36/6/1 35/6/1
f 48/6/1 36/6/1 47/6/1
f 49/6/1 38/6/1 37/6/1
f 50/6/1 38/6/1 49/6/1
f 51/6/1 40/6/1 39/6/1
f 52/6/1 40/6/1 51/6/1
f 53/6/1 42/6/1 41/6/1
f 54/6/1 42/6/1 53/6/1
f 55/6/1 44/6/1 43/6/1
f 56/6/1 44/6/1 55/6/1
f 61/6/1 58/6/1 57/6/1
f 62/6/1 58/6/1 61/6/1
f 63/6/1 60/6/1 59/6/1
f 64/6/1 60/6/1 63/6/1
f 69/6/1 66/6/1 65/6/1
f 70/6/1 66/6/1 69/6/1
f 71/6/1 68/6/1 67/6/1
f 72/6/1 68/6/1 71/6/1
f 86/6/1 74/6/1 73/6/1
f 87/6/1 74/6/1 86/6/1
f 88/6/1 76/6/1 75/6/1
f 89/6/1 76/6/1 88/6/1
f 90/6/1 78/6/1 77/6/1
f 91/6/1 78/6/1 90/6/1
f 92/6/1 80/6/1 79/6/1
f 93/6/1 80/6/1 92/6/1
f 94/6/1 82/6/1 81/6/1
f 95/6/1 82/6/1 94/6/1
f 96/6/1 84/6/1 83/6/1
f 97/6/1 84/6/1 96/6/1
f 99/6/1 95/6/1 94/6/1
f 99/6/1 98/6/1 97/6/1
f 99/6/1 97/6/1 96/6/1
f 99/6/1 96/6/1 95/6/1
f 99/6/1 87/6/1 86/6/1
f 99/6/1 94/6/1 93/6/1
f 99/6/1 89/6/1 88/6/1
f 99/6/1 92/6/1 91/6/1
f 99/6/1 91/6/1 90/6/1
f 99/6/1 90/6/1 89/6/1
f 99/6/1 93/6/1 92/6/1
f 99/6/1 88/6/1 87/6/1
f 99/6/1 86/6/1 85/6/1
f 100/6/1 98/6/1 99/6/1
f 105/6/1 102/6/1 101/6/1
f 108/6/1 104/6/1 103/6/1
f 109/6/1 106/6/1 105/6/1
f 109/6/1 105/6/1 101/6/1
f 110/6/1 106/6/1 109/6/1
f 111/6/1 108/6/1 107/6/1
f 112/6/1 104/6/1 108/6/1
f 112/6/1 108/6/1 111/6/1
f 123/7/1 114/7/1 113/7/1
f 124/1/1 115/1/1 114/1/1
f 124/7/1 114/7/1 123/7/1
f 125/7/1 116/7/1 115/7/1
f 125/1/1 115/1/1 124/1/1
f 126/1/1 117/1/1 116/1/1
f 126/7/1 116/7/1 125/7/1
f 127/7/1 118/7/1 117/7/1
f 127/1/1 117/1/1 126/1/1
f 128/1/1 119/1/1 118/1/1
f 128/7/1 118/7/1 127/7/1
f 129/7/1 120/7/1 119/7/1
f 129/1/1 119/1/1 128/1/1
f 130/1/1 121/1/1 120/1/1
f 130/7/1 120/7/1 129/7/1
f 131/7/1 122/7/1 121/7/1
f 131/1/1 121/1/1 130/1/1
f 132/7/1 122/7/1 131/7/1
f 133/3/1 124/3/1 123/3/1
f 134/2/1 125/2/1 124/2/1
f 134/3/1 124/3/1 133/3/1
f 135/3/1 126/3/1 125/3/1
f 135/2/1 125/2/1 134/2/1
f 136/2/1 127/2/1 126/2/1
f 136/3/1 126/3/1 135/3/1
f 137/3/1 128/3/1 127/3/1
f 137/2/1 127/2/1 136/2/1
f 138/2/1 129/2/1 128/2/1
f 138/3/1 128/3/1 137/3/1
f 139/3/1 130/3/1 129/3/1
f 139/2/1 129/2/1 138/2/1
f 140/2/1 131/2/1 130/2/1
f 140/3/1 130/3/1 139/3/1
f 141/3/1 132/3/1 131/3/1
f 141/2/1 131/2/1 140/2/1
f 142/3/1 132/3/1 141/3/1
f 153/6/1 144/6/1 143/6/1
f 153/6/1 152/6/1 151/6/1
f 153/6/1 151/6/1 150/6/1
f 153/6/1 150/6/1 149/6/1
f 153/6/1 149/6/1 148/6/1
f 153/6/1 148/6/1 147/6/1
f 153/6/1 147/6/1 146/6/1
f 153/6/1 146/6/1 145/6/1
f 153/6/1 145/6/1 144/6/1
f 154/6/1 152/6/1 153/6/1
f 155/6/1 152/6/1 154/6/1
f 156/6/1 152/6/1 155/6/1
f 157/6/1 152/6/1 156/6/1
f 158/6/1 152/6/1 157/6/1
f 159/6/1 152/6/1 158/6/1
f 160/6/1 152/6/1 159/6/1
f 161/6/1 153/6/1 143/6/1
f 161/5/1 154/5/1 153/5/1
f 162/4/1 155/4/1 154/4/1
f 162/5/1 154/5/1 161/5/1
f 163/5/1 156/5/1 155/5/1
f 163/4/1 155/4/1 162/4/1
f 164/6/1 157/6/1 156/6/1
f 164/5/1 156/5/1 163/5/1
f 165/6/1 162/6/1 161/6/1
f 165/6/1 157/6/1 164/6/1
f 165/6/1 164/6/1 163/6/1
f 165/6/1 163/6/1 162/6/1
f 166/5/1 158/5/1 157/5/1
f 166/6/1 157/6/1 165/6/1
f 167/6/1 159/6/1 158/6/1
f 167/5/1 158/5/1 166/5/1
f 168/5/1 160/5/1 159/5/1
f 168/6/1 159/6/1 167/6/1
f 169/6/1 152/6/1 160/6/1
f 169/5/1 160/5/1 168/5/1
f 170/6/1 152/6/1 169/6/1
f 171/5/1 166/5/1 165/5/1
f 171/6/1 165/6/1 161/6/1
f 172/4/1 167/4/1 166/4/1
f 172/5/1 166/5/1 171/5/1
f 173/5/1 168/5/1 167/5/1
f 173/4/1 167/4/1 172/4/1
f 174/4/1 169/4/1 168/4/1
f 174/5/1 168/5/1 173/5/1
f 175/5/1 170/5/1 169/5/1
f 175/4/1 169/4/1 174/4/1
f 176/6/1 152/6/1 170/6/1
f 176/5/1 170/5/1 175/5/1
f 177/6/1 176/6/1 175/6/1
f 177/6/1 152/6/1 176/6/1
f 178/6/1 152/6/1 177/6/1
f 179/6/1 172/6/1 171/6/1
f 179/6/1 171/6/1 161/6/1
f 180/5/1 173/5/1 172/5/1
f 180/6/1 172/6/1 179/6/1
f 181/6/1 174/6/1 173/6/1
f 181/5/1 173/5/1 180/5/1
f 182/5/1 175/5/1 174/5/1
f 182/6/1 174/6/1 181/6/1
f 183/6/1 177/6/1 175/6/1
f 183/5/1 175/5/1 182/5/1
f 184/6/1 177/6/1 183/6/1
f 185/5/1 178/5/1 177/5/1
f 185/6/1 177/6/1 184/6/1
f 186/6/1 152/6/1 178/6/1
f 186/5/1 178/5/1 185/5/1
f 187/5/1 180/5/1 179/5/1
f 187/6/1 179/6/1 161/6/1
f 188/4/1 181/4/1 180/4/1
f 188/5/1 180/5/1 187/5/1
f 189/5/1 182/5/1 181/5/1
f 189/4/1 181/4/1 188/4/1
f 190/4/1 183/4/1 182/4/1
f 190/5/1 182/5/1 189/5/1
f 191/5/1 184/5/1 183/5/1
f 191/4/1 183/4/1 190/4/1
f 192/6/1 185/6/1 184/6/1
f 192/5/1 184/5/1 191/5/1
f 193/4/1 186/4/1 185/4/1
f 193/6/1 185/6/1 192/6/1
f 194/6/1 152/6/1 186/6/1
f 194/4/1 186/4/1 193/4/1
f 195/6/1 193/6/1 192/6/1
f 195/6/1 192/6/1 191/6/1
f 195/5/1 194/5/1 193/5/1
f 196/6/1 152/6/1 194/6/1
f 196/5/1 194/5/1 195/5/1
f 197/5/1 189/5/1 188/5/1
f 197/6/1 188/6/1 187/6/1
f 198/6/1 190/6/1 189/6/1
f 198/5/1 189/5/1 197/5/1
f 199/5/1 191/5/1 190/5/1
f 199/6/1 190/6/1 198/6/1
f 200/6/1 195/6/1 191/6/1
f 200/5/1 191/5/1 199/5/1
f 200/6/1 196/6/1 195/6/1
f 201/6/1 198/6/1 197/6/1
f 201/6/1 197/6/1 187/6/1
f 201/6/1 200/6/1 199/6/1
f 201/6/1 161/6/1 143/6/1
f 201/6/1 199/6/1 198/6/1
f 201/6/1 187/6/1 161/6/1
f 202/6/1 196/6/1 200/6/1
f 202/6/1 200/6/1 201/6/1
f 202/6/1 152/6/1 196/6/1
f 209/7/1 204/7/1 203/7/1
f 210/1/1 205/1/1 204/1/1
f 210/7/1 204/7/1 209/7/1
f 211/1/1 205/1/1 210/1/1
f 212/1/1 207/1/1 206/1/1
f 213/7/1 208/7/1 207/7/1
f 213/1/1 207/1/1 212/1/1
f 214/7/1 208/7/1 213/7/1
f 215/3/1 210/3/1 209/3/1
f 216/2/1 211/2/1 210/2/1
f 216/3/1 210/3/1 215/3/1
f 217/2/1 211/2/1 216/2/1
f 218/2/1 213/2/1 212/2/1
f 219/3/1 214/3/1 213/3/1
f 219/2/1 213/2/1 218/2/1
f 220/3/1 214/3/1 219/3/1
f 225/6/1 222/6/1 221/6/1
f 226/6/1 222/6/1 225/6/1
f 229/6/1 224/6/1 223/6/1
f 230/6/1 224/6/1 229/6/1
f 231/6/1 228/6/1 227/6/1
f 232/6/1 228/6/1 231/6/1
f 237/6/1 234/6/1 233/6/1
f 240/6/1 236/6/1 235/6/1
f 241/6/1 238/6/1 237/6/1
f 241/6/1 237/6/1 233/6/1
f 242/6/1 238/6/1 241/6/1
f 243/6/1 240/6/1 239/6/1
f 244/6/1 236/6/1 240/6/1
f 244/6/1 240/6/1 243/6/1
f 249/6/1 246/6/1 245/6/1
f 250/6/1 246/6/1 249/6/1
f 251/6/1 248/6/1 247/6/1
f 252/6/1 248/6/1 251/6/1
f 257/6/1 254/6/1 253/6/1
f 260/6/1 256/6/1 255/6/1
f 261/6/1 258/6/1 257/6/1
f 261/6/1 257/6/1 253/6/1
f 262/6/1 258/6/1 261/6/1
f 263/6/1 260/6/1 259/6/1
f 264/6/1 256/6/1 260/6/1
f 264/6/1 260/6/1 263/6/1
f 269/6/1 266/6/1 265/6/1
f 272/6/1 268/6/1 267/6/1
f 273/6/1 270/6/1 269/6/1
f 273/6/1 269/6/1 265/6/1
f 274/6/1 270/6/1 273/6/1
f 275/6/1 272/6/1 271/6/1
f 276/6/1 268/6/1 272/6/1
f 276/6/1 272/6/1 275/6/1
f 281/6/1 278/6/1 277/6/1
f 284/6/1 280/6/1 279/6/1
f 285/6/1 282/6/1 281/6/1
f 285/6/1 281/6/1 277/6/1
f 286/6/1 282/6/1 285/6/1
f 287/6/1 284/6/1 283/6/1
f 288/6/1 280/6/1 284/6/1
f 288/6/1 284/6/1 287/6/1
f 293/6/1 290/6/1 289/6/1
f 296/6/1 292/6/1 291/6/1
f 297/6/1 294/6/1 293/6/1
f 297/6/1 293/6/1 289/6/1
f 298/6/1 294/6/1 297/6/1
f 299/6/1 296/6/1 295/6/1
f 300/6/1 292/6/1 296/6/1
f 300/6/1 296/6/1 299/6/1
f 305/6/1 302/6/1 301/6/1
f 308/6/1 304/6/1 303/6/1
f 309/6/1 306/6/1 305/6/1
f 309/6/1 305/6/1 301/6/1
f 310/6/1 306/6/1 309/6/1
f 311/6/1 308/6/1 307/6/1
f 312/6/1 304/6/1 308/6/1
f 312/6/1 308/6/1 311/6/1
f 317/6/1 314/6/1 313/6/1
f 320/6/1 316/6/1 315/6/1
f 321/6/1 318/6/1 317/6/1
f 321/6/1 317/6/1 313/6/1
f 322/6/1 318/6/1 321/6/1
f 323/6/1 320/6/1 319/6/1
f 324/6/1 316/6/1 320/6/1
f 324/6/1 320/6/1 323/6/1
f 325/6/2 326/6/2 329/6/2
f 327/6/2 328/6/2 332/6/2
f 329/6/2 330/6/2 333/6/2
f 325/6/2 329/6/2 333/6/2
f 333/6/2 330/6/2 334/6/2
f 331/6/2 332/6/2 335/6/2
f 332/6/2 328/6/2 336/6/2
f 335/6/2 332/6/2 336/6/2
f 337/6/2 338/6/2 341/6/2
f 339/6/2 340/6/2 344/6/2
f 341/6/2 342/6/2 345/6/2
f 337/6/2 341/6/2 345/6/2
f 345/6/2 342/6/2 346/6/2
f 343/6/2 344/6/2 347/6/2
f 344/6/2 340/6/2 348/6/2
f 347/6/2 344/6/2 348/6/2
f 349/6/2 350/6/2 353/6/2
f 351/6/2 352/6/2 356/6/2
f 353/6/2 354/6/2 357/6/2
f 349/6/2 353/6/2 357/6/2
f 357/6/2 354/6/2 358/6/2
f 355/6/2 356/6/2 359/6/2
f 356/6/2 352/6/2 360/6/2
f 359/6/2 356/6/2 360/6/2
f 361/6/2 362/6/2 365/6/2
f 363/6/2 364/6/2 368/6/2
f 365/6/2 366/6/2 369/6/2
f 361/6/2 365/6/2 369/6/2
f 369/6/2 366/6/2 370/6/2
f 367/6/2 368/6/2 371/6/2
f 368/6/2 364/6/2 372/6/2
f 371/6/2 368/6/2 372/6/2
f 373/6/2 374/6/2 377/6/2
f 375/6/2 376/6/2 380/6/2
f 377/6/2 378/6/2 381/6/2
f 373/6/2 377/6/2 381/6/2
f 381/6/2 378/6/2 382/6/2
f 379/6/2 380/6/2 383/6/2
f 380/6/2 376/6/2 384/6/2
f 383/6/2 380/6/2 384/6/2
f 385/6/2 386/6/2 389/6/2
f 387/6/2 388/6/2 392/6/2
f 389/6/2 390/6/2 393/6/2
f 385/6/2 389/6/2 393/6/2
f 393/6/2 390/6/2 394/6/2
f 391/6/2 392/6/2 395/6/2
f 392/6/2 388/6/2 396/6/2
f 395/6/2 392/6/2 396/6/2
f 397/6/2 398/6/2 401/6/2
f 401/6/2 398/6/2 402/6/2
f 399/6/2 400/6/2 403/6/2
f 403/6/2 400/6/2 404/6/2
f 405/6/2 406/6/2 409/6/2
f 407/6/2 408/6/2 412/6/2
f 409/6/2 410/6/2 413/6/2
f 405/6/2 409/6/2 413/6/2
f 413/6/2 410/6/2 414/6/2
f 411/6/2 412/6/2 415/6/2
f 412/6/2 408/6/2 416/6/2
f 415/6/2 412/6/2 416/6/2
f 417/6/2 418/6/2 421/6/2
f 421/6/2 418/6/2 422/6/2
f 419/6/2 420/6/2 425/6/2
f 425/6/2 420/6/2 426/6/2
f 423/6/2 424/6/2 427/6/2
f 427/6/2 424/6/2 428/6/2
f 429/7/2 430/7/2 435/7/2
f 430/1/2 431/1/2 436/1/2
f 435/7/2 430/7/2 436/7/2
f 436/1/2 431/1/2 437/1/2
f 432/1/2 433/1/2 438/1/2
f 433/7/2 434/7/2 439/7/2
f 438/1/2 433/1/2 439/1/2
f 439/7/2 434/7/2 440/7/2
f 435/3/2 436/3/2 441/3/2
f 436/2/2 437/2/2 442/2/2
f 441/3/2 436/3/2 442/3/2
f 442/2/2 437/2/2 443/2/2
f 438/2/2 439/2/2 444/2/2
f 439/3/2 440/3/2 445/3/2
f 444/2/2 439/2/2 445/2/2
f 445/3/2 440/3/2 446/3/2
f 447/6/2 448/6/2 457/6/2
f 455/6/2 456/6/2 457/6/2
f 454/6/2 455/6/2 457/6/2
f 453/6/2 454/6/2 457/6/2
f 452/6/2 453/6/2 457/6/2
f 451/6/2 452/6/2 457/6/2
f 450/6/2 451/6/2 457/6/2
f 449/6/2 450/6/2 457/6/2
f 448/6/2 449/6/2 457/6/2
f 457/6/2 456/6/2 458/6/2
f 458/6/2 456/6/2 459/6/2
f 459/6/2 456/6/2 460/6/2
f 460/6/2 456/6/2 461/6/2
f 461/6/2 456/6/2 462/6/2
f 462/6/2 456/6/2 463/6/2
f 463/6/2 456/6/2 464/6/2
f 447/6/2 457/6/2 465/6/2
f 457/5/2 458/5/2 465/5/2
f 458/4/2 459/4/2 466/4/2
f 465/5/2 458/5/2 466/5/2
f 459/5/2 460/5/2 467/5/2
f 466/4/2 459/4/2 467/4/2
f 460/6/2 461/6/2 468/6/2
f 467/5/2 460/5/2 468/5/2
f 465/6/2 466/6/2 469/6/2
f 468/6/2 461/6/2 469/6/2
f 467/6/2 468/6/2 469/6/2
f 466/6/2 467/6/2 469/6/2
f 461/5/2 462/5/2 470/5/2
f 469/6/2 461/6/2 470/6/2
f 462/6/2 463/6/2 471/6/2
f 470/5/2 462/5/2 471/5/2
f 463/5/2 464/5/2 472/5/2
f 471/6/2 463/6/2 472/6/2
f 464/6/2 456/6/2 473/6/2
f 472/5/2 464/5/2 473/5/2
f 473/6/2 456/6/2 474/6/2
f 469/5/2 470/5/2 475/5/2
f 465/6/2 469/6/2 475/6/2
f 470/4/2 471/4/2 476/4/2
f 475/5/2 470/5/2 476/5/2
f 471/5/2 472/5/2 477/5/2
f 476/4/2 471/4/2 477/4/2
f 472/4/2 473/4/2 478/4/2
f 477/5/2 472/5/2 478/5/2
f 473/5/2 474/5/2 479/5/2
f 478/4/2 473/4/2 479/4/2
f 474/6/2 456/6/2 480/6/2
f 479/5/2 474/5/2 480/5/2
f 480/6/2 456/6/2 481/6/2
f 481/6/2 456/6/2 482/6/2
f 479/6/2 480/6/2 483/6/2
f 480/6/2 481/6/2 483/6/2
f 481/5/2 482/5/2 483/5/2
f 482/6/2 456/6/2 484/6/2
f 483/5/2 482/5/2 484/5/2
f 475/6/2 476/6/2 485/6/2
f 465/6/2 475/6/2 485/6/2
f 476/5/2 477/5/2 486/5/2
f 485/6/2 476/6/2 486/6/2
f 477/6/2 478/6/2 487/6/2
f 486/5/2 477/5/2 487/5/2
f 478/5/2 479/5/2 488/5/2
f 487/6/2 478/6/2 488/6/2
f 479/6/2 483/6/2 489/6/2
f 488/5/2 479/5/2 489/5/2
f 489/6/2 483/6/2 490/6/2
f 483/4/2 484/4/2 491/4/2
f 490/6/2 483/6/2 491/6/2
f 484/6/2 456/6/2 492/6/2
f 491/4/2 484/4/2 492/4/2
f 485/5/2 486/5/2 493/5/2
f 465/6/2 485/6/2 493/6/2
f 486/4/2 487/4/2 494/4/2
f 493/5/2 486/5/2 494/5/2
f 487/5/2 488/5/2 495/5/2
f 494/4/2 487/4/2 495/4/2
f 488/4/2 489/4/2 496/4/2
f 495/5/2 488/5/2 496/5/2
f 489/5/2 490/5/2 497/5/2
f 496/4/2 489/4/2 497/4/2
f 490/6/2 491/6/2 498/6/2
f 497/5/2 490/5/2 498/5/2
f 491/5/2 492/5/2 499/5/2
f 498/6/2 491/6/2 499/6/2
f 497/6/2 498/6/2 499/6/2
f 492/6/2 456/6/2 500/6/2
f 499/5/2 492/5/2 500/5/2
f 494/5/2 495/5/2 501/5/2
f 493/6/2 494/6/2 501/6/2
f 495/6/2 496/6/2 502/6/2
f 501/5/2 495/5/2 502/5/2
f 496/5/2 497/5/2 503/5/2
f 502/6/2 496/6/2 503/6/2
f 497/6/2 499/6/2 504/6/2
f 503/5/2 497/5/2 504/5/2
f 499/6/2 500/6/2 504/6/2
f 501/6/2 502/6/2 505/6/2
f 493/6/2 501/6/2 505/6/2
f 503/6/2 504/6/2 505/6/2
f 447/6/2 465/6/2 505/6/2
f 502/6/2 503/6/2 505/6/2
f 465/6/2 493/6/2 505/6/2
f 504/6/2 500/6/2 506/6/2
f 505/6/2 504/6/2 506/6/2
f 500/6/2 456/6/2 506/6/2
f 507/6/2 508/6/2 511/6/2
f 509/6/2 510/6/2 514/6/2
f 511/6/2 512/6/2 515/6/2
f 507/6/2 511/6/2 515/6/2
f 515/6/2 512/6/2 516/6/2
f 513/6/2 514/6/2 517/6/2
f 514/6/2 510/6/2 518/6/2
f 517/6/2 514/6/2 518/6/2
f 519/7/2 520/7/2 529/7/2
f 520/1/2 521/1/2 530/1/2
f 529/7/2 520/7/2 530/7/2
f 521/7/2 522/7/2 531/7/2
f 530/1/2 521/1/2 531/1/2
f 522/1/2 523/1/2 532/1/2
f 531/7/2 522/7/2 532/7/2
f 523/7/2 524/7/2 533/7/2
f 532/1/2 523/1/2 533/1/2
f 524/1/2 525/1/2 534/1/2
f 533/7/2 524/7/2 534/7/2
f 525/7/2 526/7/2 535/7/2
f 534/1/2 525/1/2 535/1/2
f 526/1/2 527/1/2 536/1/2
f 535/7/2 526/7/2 536/7/2
f 527/7/2 528/7/2 537/7/2
f 536/1/2 527/1/2 537/1/2
f 537/7/2 528/7/2 538/7/2
f 529/3/2 530/3/2 539/3/2
f 530/2/2 531/2/2 540/2/2
f 539/3/2 530/3/2 540/3/2
f 531/3/2 532/3/2 541/3/2
f 540/2/2 531/2/2 541/2/2
f 532/2/2 533/2/2 542/2/2
f 541/3/2 532/3/2 542/3/2
f 533/3/2 534/3/2 543/3/2
f 542/2/2 533/2/2 543/2/2
f 534/2/2 535/2/2 544/2/2
f 543/3/2 534/3/2 544/3/2
f 535/3/2 536/3/2 545/3/2
f 544/2/2 535/2/2 545/2/2
f 536/2/2 537/2/2 546/2/2
f 545/3/2 536/3/2 546/3/2
f 537/3/2 538/3/2 547/3/2
f 546/2/2 537/2/2 547/2/2
f 547/3/2 538/3/2 548/3/2
f 549/6/2 550/6/2 562/6/2
f 562/6/2 550/6/2 563/6/2
f 551/6/2 552/6/2 564/6/2
f 564/6/2 552/6/2 565/6/2
f 553/6/2 554/6/2 566/6/2
f 566/6/2 554/6/2 567/6/2
f 555/6/2 556/6/2 568/6/2
f 568/6/2 556/6/2 569/6/2
f 557/6/2 558/6/2 570/6/2
f 570/6/2 558/6/2 571/6/2
f 559/6/2 560/6/2 572/6/2
f 572/6/2 560/6/2 573/6/2
f 570/6/2 571/6/2 575/6/2
f 573/6/2 574/6/2 575/6/2
f 572/6/2 573/6/2 575/6/2
f 571/6/2 572/6/2 575/6/2
f 562/6/2 563/6/2 575/6/2
f 569/6/2 570/6/2 575/6/2
f 564/6/2 565/6/2 575/6/2
f 567/6/2 568/6/2 575/6/2
f 566/6/2 567/6/2 575/6/2
f 565/6/2 566/6/2 575/6/2
f 568/6/2 569/6/2 575/6/2
f 563/6/2 564/6/2 575/6/2
f 561/6/2 562/6/2 575/6/2
f 575/6/2 574/6/2 576/6/2
f 577/6/2 578/6/2 581/6/2
f 581/6/2 578/6/2 582/6/2
f 579/6/2 580/6/2 583/6/2
f 583/6/2 580/6/2 584/6/2
f 585/6/2 586/6/2 589/6/2
f 589/6/2 586/6/2 590/6/2
f 587/6/2 588/6/2 591/6/2
f 591/6/2 588/6/2 592/6/2
f 593/6/2 594/6/2 605/6/2
f 605/6/2 594/6/2 606/6/2
f 595/6/2 596/6/2 607/6/2
f 607/6/2 596/6/2 608/6/2
f 597/6/2 598/6/2 609/6/2
f 609/6/2 598/6/2 610/6/2
f 599/6/2 600/6/2 611/6/2
f 611/6/2 600/6/2 612/6/2
f 601/6/2 602/6/2 613/6/2
f 613/6/2 602/6/2 614/6/2
f 603/6/2 604/6/2 615/6/2
f 615/6/2 604/6/2 616/6/2
f 617/6/2 618/6/2 631/6/2
f 631/6/2 618/6/2 632/6/2
f 629/6/2 630/6/2 633/6/2
f 633/6/2 630/6/2 634/6/2
f 632/6/2 618/6/2 635/6/2
f 635/6/2 618/6/2 636/6/2
f 619/6/2 620/6/2 637/6/2
f 637/6/2 620/6/2 638/6/2
f 621/6/2 622/6/2 639/6/2
f 639/6/2 622/6/2 640/6/2
f 623/6/2 624/6/2 641/6/2
f 641/6/2 624/6/2 642/6/2
f 625/6/2 626/6/2 643/6/2
f 643/6/2 626/6/2 644/6/2
f 627/6/2 628/6/2 645/6/2
f 645/6/2 628/6/2 646/6/2
f 629/6/2 633/6/2 647/6/2
f 647/6/2 633/6/2 648/6/2
f 651/6/3 650/6/3 649/6/3
f 653/6/3 651/6/3 649/6/3
f 653/6/3 652/6/3 651/6/3
f 654/6/3 652/6/3 653/6/3
f 657/6/3 656/6/3 655/6/3
f 658/6/3 656/6/3 657/6/3
f 661/6/3 660/6/3 659/6/3
f 662/6/3 660/6/3 661/6/3
f 665/6/3 664/6/3 663/6/3
f 666/6/3 664/6/3 665/6/3
f 669/6/3 668/6/3 667/6/3
f 670/6/3 668/6/3 669/6/3
f 673/6/3 672/6/3 671/6/3
f 674/6/3 672/6/3 673/6/3
f 677/6/3 676/6/3 675/6/3
f 678/6/3 676/6/3 677/6/3
f 681/6/3 680/6/3 679/6/3
f 682/6/3 680/6/3 681/6/3
f 685/6/3 684/6/3 683/6/3
f 686/6/3 684/6/3 685/6/3
f 687/6/3 685/6/3 683/6/3
f 688/6/3 685/6/3 687/6/3
f 691/6/3 690/6/3 689/6/3
f 692/6/3 690/6/3 691/6/3
f 695/6/3 694/6/3 693/6/3
f 696/6/3 694/6/3 695/6/3
f 699/6/3 698/6/3 697/6/3
f 700/6/3 698/6/3 699/6/3
f 703/6/3 702/6/3 701/6/3
f 704/6/3 702/6/3 703/6/3
f 707/6/3 706/6/3 705/6/3
f 708/6/3 706/6/3 707/6/3
f 711/6/3 710/6/3 709/6/3
f 712/6/3 710/6/3 711/6/3
f 715/6/3 714/6/3 713/6/3
f 716/6/3 714/6/3 715/6/3
f 719/6/3 718/6/3 717/6/3
f 720/6/3 718/6/3 719/6/3
f 723/6/3 722/6/3 721/6/3
f 724/6/3 722/6/3 723/6/3
f 728/6/3 726/6/3 725/6/3
f 729/6/3 728/6/3 727/6/3
f 730/6/3 726/6/3 728/6/3
f 730/6/3 728/6/3 729/6/3
f 732/6/3 726/6/3 730/6/3
f 733/6/3 732/6/3 731/6/3
f 734/6/3 726/6/3 732/6/3
f 734/6/3 732/6/3 733/6/3
f 736/6/3 726/6/3 734/6/3
f 737/6/3 736/6/3 735/6/3
f 738/6/3 726/6/3 736/6/3
f 738/6/3 736/6/3 737/6/3
f 740/6/3 726/6/3 738/6/3
f 741/6/3 740/6/3 739/6/3
f 742/6/3 726/6/3 740/6/3
f 742/6/3 740/6/3 741/6/3
f 744/6/3 726/6/3 742/6/3
f 745/6/3 744/6/3 743/6/3
f 746/6/3 726/6/3 744/6/3
f 746/6/3 744/6/3 745/6/3
f 748/6/3 726/6/3 746/6/3
f 749/6/3 748/6/3 747/6/3
f 750/6/3 726/6/3 748/6/3
f 750/6/3 748/6/3 749/6/3
f 752/6/3 726/6/3 750/6/3
f 753/6/3 752/6/3 751/6/3
f 754/6/3 726/6/3 752/6/3
f 754/6/3 752/6/3 753/6/3
f 756/6/3 726/6/3 754/6/3
f 757/6/3 756/6/3 755/6/3
f 758/6/3 726/6/3 756/6/3
f 758/6/3 756/6/3 757/6/3
f 759/6/3 726/6/3 758/6/3
f 760/6/3 726/6/3 759/6/3
f 763/6/3 762/6/3 761/6/3
f 764/6/3 762/6/3 763/6/3
f 767/6/3 766/6/3 765/6/3
f 768/6/3 766/6/3 767/6/3
f 771/6/3 770/6/3 769/6/3
f 772/6/3 770/6/3 771/6/3
f 776/7/3 774/7/3 773/7/3
f 777/3/3 775/3/3 774/3/3
f 777/7/3 774/7/3 776/7/3
f 778/3/3 775/3/3 777/3/3
f 779/1/3 777/1/3 776/1/3
f 780/2/3 778/2/3 777/2/3
f 780/1/3 777/1/3 779/1/3
f 781/2/3 778/2/3 780/2/3
f 782/7/3 780/7/3 779/7/3
f 783/3/3 781/3/3 780/3/3
f 783/7/3 780/7/3 782/7/3
f 784/3/3 781/3/3 783/3/3
f 785/1/3 783/1/3 782/1/3
f 786/2/3 784/2/3 783/2/3
f 786/1/3 783/1/3 785/1/3
f 787/2/3 784/2/3 786/2/3
f 788/7/3 786/7/3 785/7/3
f 789/3/3 787/3/3 786/3/3
f 789/7/3 786/7/3 788/7/3
f 790/3/3 787/3/3 789/3/3
f 791/1/3 789/1/3 788/1/3
f 792/2/3 790/2/3 789/2/3
f 792/1/3 789/1/3 791/1/3
f 793/2/3 790/2/3 792/2/3
f 794/7/3 792/7/3 791/7/3
f 795/3/3 793/3/3 792/3/3
f 795/7/3 792/7/3 794/7/3
f 796/3/3 793/3/3 795/3/3
f 797/1/3 795/1/3 794/1/3
f 798/2/3 796/2/3 795/2/3
f 798/1/3 795/1/3 797/1/3
f 799/2/3 796/2/3 798/2/3
f 800/7/3 798/7/3 797/7/3
f 801/3/3 799/3/3 798/3/3
f 801/7/3 798/7/3 800/7/3
f 802/3/3 799/3/3 801/3/3
f 803/1/3 801/1/3 800/1/3
f 804/2/3 802/2/3 801/2/3
f 804/1/3 801/1/3 803/1/3
f 805/2/3 802/2/3 804/2/3
f 806/7/3 804/7/3 803/7/3
f 807/3/3 805/3/3 804/3/3
f 807/7/3 804/7/3 806/7/3
f 808/3/3 805/3/3 807/3/3
f 811/6/3 810/6/3 809/6/3
f 812/6/3 810/6/3 811/6/3
f 813/6/3 810/6/3 812/6/3
f 814/6/3 812/6/3 811/6/3
f 815/5/3 813/5/3 812/5/3
f 815/6/3 812/6/3 814/6/3
f 816/6/3 810/6/3 813/6/3
f 816/5/3 813/5/3 815/5/3
f 817/6/3 814/6/3 811/6/3
f 818/5/3 815/5/3 814/5/3
f 818/6/3 814/6/3 817/6/3
f 819/4/3 816/4/3 815/4/3
f 819/5/3 815/5/3 818/5/3
f 820/6/3 810/6/3 816/6/3
f 820/4/3 816/4/3 819/4/3
f 821/6/3 819/6/3 818/6/3
f 821/6/3 818/6/3 817/6/3
f 822/5/3 820/5/3 819/5/3
f 822/6/3 819/6/3 821/6/3
f 823/6/3 810/6/3 820/6/3
f 823/5/3 820/5/3 822/5/3
f 824/6/3 822/6/3 821/6/3
f 824/6/3 823/6/3 822/6/3
f 825/6/3 823/6/3 824/6/3
f 826/6/3 823/6/3 825/6/3
f 827/6/3 823/6/3 826/6/3
f 828/6/3 824/6/3 821/6/3
f 829/6/3 824/6/3 828/6/3
f 830/5/3 825/5/3 824/5/3
f 830/6/3 824/6/3 829/6/3
f 831/6/3 826/6/3 825/6/3
f 831/5/3 825/5/3 830/5/3
f 832/5/3 827/5/3 826/5/3
f 832/6/3 826/6/3 831/6/3
f 833/6/3 823/6/3 827/6/3
f 833/5/3 827/5/3 832/5/3
f 834/6/3 810/6/3 823/6/3
f 834/6/3 823/6/3 833/6/3
f 835/6/3 829/6/3 828/6/3
f 836/5/3 830/5/3 829/5/3
f 836/6/3 829/6/3 835/6/3
f 837/4/3 831/4/3 830/4/3
f 837/5/3 830/5/3 836/5/3
f 838/5/3 832/5/3 831/5/3
f 838/4/3 831/4/3 837/4/3
f 839/4/3 833/4/3 832/4/3
f 839/5/3 832/5/3 838/5/3
f 840/5/3 834/5/3 833/5/3
f 840/4/3 833/4/3 839/4/3
f 841/6/3 810/6/3 834/6/3
f 841/5/3 834/5/3 840/5/3
f 842/6/3 837/6/3 836/6/3
f 842/6/3 836/6/3 835/6/3
f 843/6/3 837/6/3 842/6/3
f 844/5/3 838/5/3 837/5/3
f 844/6/3 837/6/3 843/6/3
f 845/6/3 839/6/3 838/6/3
f 845/5/3 838/5/3 844/5/3
f 846/5/3 840/5/3 839/5/3
f 846/6/3 839/6/3 845/6/3
f 847/6/3 841/6/3 840/6/3
f 847/5/3 840/5/3 846/5/3
f 848/6/3 810/6/3 841/6/3
f 848/6/3 841/6/3 847/6/3
f 849/6/3 843/6/3 842/6/3
f 849/5/3 844/5/3 843/5/3
f 850/4/3 845/4/3 844/4/3
f 850/5/3 844/5/3 849/5/3
f 851/5/3 846/5/3 845/5/3
f 851/4/3 845/4/3 850/4/3
f 852/4/3 847/4/3 846/4/3
f 852/5/3 846/5/3 851/5/3
f 853/5/3 848/5/3 847/5/3
f 853/4/3 847/4/3 852/4/3
f 854/6/3 810/6/3 848/6/3
f 854/5/3 848/5/3 853/5/3
f 855/6/3 849/6/3 842/6/3
f 855/6/3 850/6/3 849/6/3
f 856/5/3 851/5/3 850/5/3
f 856/6/3 850/6/3 855/6/3
f 857/6/3 852/6/3 851/6/3
f 857/5/3 851/5/3 856/5/3
f 858/5/3 853/5/3 852/5/3
f 858/6/3 852/6/3 857/6/3
f 859/6/3 854/6/3 853/6/3
f 859/5/3 853/5/3 858/5/3
f 860/6/3 857/6/3 856/6/3
f 860/6/3 858/6/3 857/6/3
f 860/6/3 859/6/3 858/6/3
f 860/6/3 856/6/3 855/6/3
f 861/6/3 859/6/3 860/6/3
f 862/6/3 859/6/3 861/6/3
f 863/6/3 861/6/3 860/6/3
f 864/6/3 861/6/3 863/6/3
f 865/5/3 862/5/3 861/5/3
f 865/6/3 861/6/3 864/6/3
f 866/6/3 859/6/3 862/6/3
f 866/5/3 862/5/3 865/5/3
f 867/6/3 859/6/3 866/6/3
f 868/5/3 865/5/3 864/5/3
f 868/6/3 864/6/3 863/6/3
f 869/4/3 866/4/3 865/4/3
f 869/5/3 865/5/3 868/5/3
f 870/5/3 867/5/3 866/5/3
f 870/4/3 866/4/3 869/4/3
f 871/6/3 859/6/3 867/6/3
f 871/5/3 867/5/3 870/5/3
f 872/6/3 870/6/3 869/6/3
f 872/6/3 869/6/3 868/6/3
f 872/6/3 871/6/3 870/6/3
f 872/6/3 868/6/3 863/6/3
f 873/6/3 871/6/3 872/6/3
f 874/6/3 854/6/3 859/6/3
f 874/6/3 871/6/3 873/6/3
f 874/6/3 810/6/3 854/6/3
f 874/6/3 859/6/3 871/6/3
f 877/6/3 876/6/3 875/6/3
f 878/6/3 876/6/3 877/6/3
f 879/6/3 876/6/3 878/6/3
f 880/6/3 876/6/3 879/6/3
f 884/7/3 882/7/3 881/7/3
f 885/3/3 883/3/3 882/3/3
f 885/7/3 882/7/3 884/7/3
f 886/3/3 883/3/3 885/3/3
f 887/1/3 885/1/3 884/1/3
f 888/2/3 886/2/3 885/2/3
f 888/1/3 885/1/3 887/1/3
f 889/2/3 886/2/3 888/2/3
f 893/1/3 891/1/3 890/1/3
f 894/2/3 892/2/3 891/2/3
f 894/1/3 891/1/3 893/1/3
f 895/2/3 892/2/3 894/2/3
f 896/7/3 894/7/3 893/7/3
f 897/3/3 895/3/3 894/3/3
f 897/7/3 894/7/3 896/7/3
f 898/3/3 895/3/3 897/3/3
f 902/6/3 900/6/3 899/6/3
f 903/6/3 902/6/3 901/6/3
f 904/6/3 900/6/3 902/6/3
f 904/6/3 902/6/3 903/6/3
f 907/6/3 906/6/3 905/6/3
f 908/6/3 906/6/3 907/6/3
f 911/6/3 910/6/3 909/6/3
f 912/6/3 910/6/3 911/6/3
f 915/6/3 914/6/3 913/6/3
f 916/6/3 914/6/3 915/6/3
f 919/6/3 918/6/3 917/6/3
f 920/6/3 918/6/3 919/6/3
f 923/6/3 922/6/3 921/6/3
f 924/6/3 922/6/3 923/6/3
f 927/6/3 926/6/3 925/6/3
f 928/6/3 926/6/3 927/6/3
f 929/6/3 926/6/3 928/6/3
f 930/6/3 926/6/3 929/6/3
f 934/6/3 932/6/3 931/6/3
f 935/6/3 934/6/3 933/6/3
f 936/6/3 932/6/3 934/6/3
f 936/6/3 934/6/3 935/6/3
f 939/6/3 938/6/3 937/6/3
f 940/6/3 938/6/3 939/6/3
f 941/6/3 938/6/3 940/6/3
f 942/6/3 938/6/3 941/6/3
f 946/6/3 944/6/3 943/6/3
f 947/6/3 946/6/3 945/6/3
f 948/6/3 944/6/3 946/6/3
f 948/6/3 946/6/3 947/6/3
f 951/6/3 950/6/3 949/6/3
f 952/6/3 950/6/3 951/6/3
f 953/6/3 950/6/3 952/6/3
f 954/6/3 950/6/3 953/6/3
f 958/6/3 956/6/3 955/6/3
f 959/6/3 958/6/3 957/6/3
f 960/6/3 956/6/3 958/6/3
f 960/6/3 958/6/3 959/6/3
f 963/6/3 962/6/3 961/6/3
f 964/6/3 962/6/3 963/6/3
f 965/6/3 962/6/3 964/6/3
f 966/6/3 962/6/3 965/6/3
f 970/6/3 968/6/3 967/6/3
f 971/6/3 970/6/3 969/6/3
f 972/6/3 968/6/3 970/6/3
f 972/6/3 970/6/3 971/6/3
f 975/6/3 974/6/3 973/6/3
f 976/6/3 974/6/3 975/6/3
f 977/6/3 974/6/3 976/6/3
f 978/6/3 974/6/3 977/6/3
f 982/6/3 980/6/3 979/6/3
f 983/6/3 982/6/3 981/6/3
f 984/6/3 980/6/3 982/6/3
f 984/6/3 982/6/3 983/6/3
f 985/6/4 986/6/4 987/6/4
f 987/6/4 986/6/4 988/6/4
f 988/6/4 986/6/4 989/6/4
f 989/6/4 986/6/4 990/6/4
f 991/6/4 992/6/4 994/6/4
f 993/6/4 994/6/4 995/6/4
f 994/6/4 992/6/4 996/6/4
f 995/6/4 994/6/4 996/6/4
f 997/6/4 998/6/4 999/6/4
f 999/6/4 998/6/4 1000/6/4
f 1000/6/4 998/6/4 1001/6/4
f 1001/6/4 998/6/4 1002/6/4
f 1003/6/4 1004/6/4 1006/6/4
f 1005/6/4 1006/6/4 1007/6/4
f 1006/6/4 1004/6/4 1008/6/4
f 1007/6/4 1006/6/4 1008/6/4
f 1009/6/4 1010/6/4 1011/6/4
f 1011/6/4 1010/6/4 1012/6/4
f 1012/6/4 1010/6/4 1013/6/4
f 1013/6/4 1010/6/4 1014/6/4
f 1015/6/4 1016/6/4 1018/6/4
f 1017/6/4 1018/6/4 1019/6/4
f 1018/6/4 1016/6/4 1020/6/4
f 1019/6/4 1018/6/4 1020/6/4
f 1021/6/4 1022/6/4 1023/6/4
f 1023/6/4 1022/6/4 1024/6/4
f 1024/6/4 1022/6/4 1025/6/4
f 1025/6/4 1022/6/4 1026/6/4
f 1027/6/4 1028/6/4 1030/6/4
f 1029/6/4 1030/6/4 1031/6/4
f 1030/6/4 1028/6/4 1032/6/4
f 1031/6/4 1030/6/4 1032/6/4
f 1033/6/4 1034/6/4 1035/6/4
f 1035/6/4 1034/6/4 1036/6/4
f 1036/6/4 1034/6/4 1037/6/4
f 1037/6/4 1034/6/4 1038/6/4
f 1039/6/4 1040/6/4 1042/6/4
f 1041/6/4 1042/6/4 1043/6/4
f 1042/6/4 1040/6/4 1044/6/4
f 1043/6/4 1042/6/4 1044/6/4
f 1045/6/4 1046/6/4 1047/6/4
f 1047/6/4 1046/6/4 1048/6/4
f 1049/6/4 1050/6/4 1051/6/4
f 1051/6/4 1050/6/4 1052/6/4
f 1053/6/4 1054/6/4 1055/6/4
f 1055/6/4 1054/6/4 1056/6/4
f 1057/6/4 1058/6/4 1059/6/4
f 1059/6/4 1058/6/4 1060/6/4
f 1061/6/4 1062/6/4 1063/6/4
f 1063/6/4 1062/6/4 1064/6/4
f 1065/6/4 1066/6/4 1067/6/4
f 1067/6/4 1066/6/4 1068/6/4
f 1068/6/4 1066/6/4 1069/6/4
f 1069/6/4 1066/6/4 1070/6/4
f 1071/7/4 1072/7/4 1074/7/4
f 1072/3/4 1073/3/4 1075/3/4
f 1074/7/4 1072/7/4 1075/7/4
f 1075/3/4 1073/3/4 1076/3/4
f 1074/1/4 1075/1/4 1077/1/4
f 1075/2/4 1076/2/4 1078/2/4
f 1077/1/4 1075/1/4 1078/1/4
f 1078/2/4 1076/2/4 1079/2/4
f 1080/1/4 1081/1/4 1083/1/4
f 1081/2/4 1082/2/4 1084/2/4
f 1083/1/4 1081/1/4 1084/1/4
f 1084/2/4 1082/2/4 1085/2/4
f 1083/7/4 1084/7/4 1086/7/4
f 1084/3/4 1085/3/4 1087/3/4
f 1086/7/4 1084/7/4 1087/7/4
f 1087/3/4 1085/3/4 1088/3/4
f 1089/6/4 1090/6/4 1092/6/4
f 1091/6/4 1092/6/4 1093/6/4
f 1092/6/4 1090/6/4 1094/6/4
f 1093/6/4 1092/6/4 1094/6/4
f 1095/6/4 1096/6/4 1097/6/4
f 1097/6/4 1096/6/4 1098/6/4
f 1098/6/4 1096/6/4 1099/6/4
f 1097/6/4 1098/6/4 1100/6/4
f 1098/5/4 1099/5/4 1100/5/4
f 1099/6/4 1096/6/4 1101/6/4
f 1100/5/4 1099/5/4 1101/5/4
f 1101/6/4 1096/6/4 1102/6/4
f 1097/6/4 1100/6/4 1103/6/4
f 1100/4/4 1101/4/4 1104/4/4
f 1103/6/4 1100/6/4 1104/6/4
f 1101/5/4 1102/5/4 1105/5/4
f 1104/4/4 1101/4/4 1105/4/4
f 1102/6/4 1096/6/4 1106/6/4
f 1105/5/4 1102/5/4 1106/5/4
f 1103/6/4 1104/6/4 1107/6/4
f 1104/5/4 1105/5/4 1108/5/4
f 1107/6/4 1104/6/4 1108/6/4
f 1105/6/4 1106/6/4 1109/6/4
f 1108/5/4 1105/5/4 1109/5/4
f 1107/6/4 1108/6/4 1110/6/4
f 1109/6/4 1106/6/4 1110/6/4
f 1108/6/4 1109/6/4 1110/6/4
f 1110/6/4 1106/6/4 1111/6/4
f 1106/6/4 1096/6/4 1112/6/4
f 1111/6/4 1106/6/4 1112/6/4
f 1112/6/4 1096/6/4 1113/6/4
f 1107/6/4 1110/6/4 1114/6/4
f 1114/6/4 1110/6/4 1115/6/4
f 1110/5/4 1111/5/4 1116/5/4
f 1115/6/4 1110/6/4 1116/6/4
f 1111/6/4 1112/6/4 1117/6/4
f 1116/5/4 1111/5/4 1117/5/4
f 1112/5/4 1113/5/4 1118/5/4
f 1117/6/4 1112/6/4 1118/6/4
f 1113/6/4 1096/6/4 1119/6/4
f 1118/5/4 1113/5/4 1119/5/4
f 1119/6/4 1096/6/4 1120/6/4
f 1114/6/4 1115/6/4 1121/6/4
f 1115/5/4 1116/5/4 1122/5/4
f 1121/6/4 1115/6/4 1122/6/4
f 1116/4/4 1117/4/4 1123/4/4
f 1122/5/4 1116/5/4 1123/5/4
f 1117/5/4 1118/5/4 1124/5/4
f 1123/4/4 1117/4/4 1124/4/4
f 1118/4/4 1119/4/4 1125/4/4
f 1124/5/4 1118/5/4 1125/5/4
f 1119/5/4 1120/5/4 1126/5/4
f 1125/4/4 1119/4/4 1126/4/4
f 1120/6/4 1096/6/4 1127/6/4
f 1126/5/4 1120/5/4 1127/5/4
f 1122/6/4 1123/6/4 1128/6/4
f 1121/6/4 1122/6/4 1128/6/4
f 1128/6/4 1123/6/4 1129/6/4
f 1123/5/4 1124/5/4 1130/5/4
f 1129/6/4 1123/6/4 1130/6/4
f 1124/6/4 1125/6/4 1131/6/4
f 1130/5/4 1124/5/4 1131/5/4
f 1125/5/4 1126/5/4 1132/5/4
f 1131/6/4 1125/6/4 1132/6/4
f 1126/6/4 1127/6/4 1133/6/4
f 1132/5/4 1126/5/4 1133/5/4
f 1127/6/4 1096/6/4 1134/6/4
f 1133/6/4 1127/6/4 1134/6/4
f 1128/6/4 1129/6/4 1135/6/4
f 1129/5/4 1130/5/4 1135/5/4
f 1130/4/4 1131/4/4 1136/4/4
f 1135/5/4 1130/5/4 1136/5/4
f 1131/5/4 1132/5/4 1137/5/4
f 1136/4/4 1131/4/4 1137/4/4
f 1132/4/4 1133/4/4 1138/4/4
f 1137/5/4 1132/5/4 1138/5/4
f 1133/5/4 1134/5/4 1139/5/4
f 1138/4/4 1133/4/4 1139/4/4
f 1134/6/4 1096/6/4 1140/6/4
f 1139/5/4 1134/5/4 1140/5/4
f 1128/6/4 1135/6/4 1141/6/4
f 1135/6/4 1136/6/4 1141/6/4
f 1136/5/4 1137/5/4 1142/5/4
f 1141/6/4 1136/6/4 1142/6/4
f 1137/6/4 1138/6/4 1143/6/4
f 1142/5/4 1137/5/4 1143/5/4
f 1138/5/4 1139/5/4 1144/5/4
f 1143/6/4 1138/6/4 1144/6/4
f 1139/6/4 1140/6/4 1145/6/4
f 1144/5/4 1139/5/4 1145/5/4
f 1143/6/4 1144/6/4 1146/6/4
f 1142/6/4 1143/6/4 1146/6/4
f 1144/6/4 1145/6/4 1146/6/4
f 1141/6/4 1142/6/4 1146/6/4
f 1146/6/4 1145/6/4 1147/6/4
f 1147/6/4 1145/6/4 1148/6/4
f 1148/6/4 1145/6/4 1149/6/4
f 1145/6/4 1140/6/4 1150/6/4
f 1149/6/4 1145/6/4 1150/6/4
f 1150/6/4 1140/6/4 1151/6/4
f 1148/5/4 1149/5/4 1152/5/4
f 1147/6/4 1148/6/4 1152/6/4
f 1149/4/4 1150/4/4 1153/4/4
f 1152/5/4 1149/5/4 1153/5/4
f 1150/5/4 1151/5/4 1154/5/4
f 1153/4/4 1150/4/4 1154/4/4
f 1151/6/4 1140/6/4 1155/6/4
f 1154/5/4 1151/5/4 1155/5/4
f 1153/6/4 1154/6/4 1156/6/4
f 1152/6/4 1153/6/4 1156/6/4
f 1154/6/4 1155/6/4 1156/6/4
f 1147/6/4 1152/6/4 1156/6/4
f 1156/6/4 1155/6/4 1157/6/4
f 1140/6/4 1096/6/4 1158/6/4
f 1157/6/4 1155/6/4 1158/6/4
f 1155/6/4 1140/6/4 1158/6/4
f 1159/7/4 1160/7/4 1162/7/4
f 1160/3/4 1161/3/4 1163/3/4
f 1162/7/4 1160/7/4 1163/7/4
f 1163/3/4 1161/3/4 1164/3/4
f 1162/1/4 1163/1/4 1165/1/4
f 1163/2/4 1164/2/4 1166/2/4
f 1165/1/4 1163/1/4 1166/1/4
f 1166/2/4 1164/2/4 1167/2/4
f 1165/7/4 1166/7/4 1168/7/4
f 1166/3/4 1167/3/4 1169/3/4
f 1168/7/4 1166/7/4 1169/7/4
f 1169/3/4 1167/3/4 1170/3/4
f 1168/1/4 1169/1/4 1171/1/4
f 1169/2/4 1170/2/4 1172/2/4
f 1171/1/4 1169/1/4 1172/1/4
f 1172/2/4 1170/2/4 1173/2/4
f 1171/7/4 1172/7/4 1174/7/4
f 1172/3/4 1173/3/4 1175/3/4
f 1174/7/4 1172/7/4 1175/7/4
f 1175/3/4 1173/3/4 1176/3/4
f 1174/1/4 1175/1/4 1177/1/4
f 1175/2/4 1176/2/4 1178/2/4
f 1177/1/4 1175/1/4 1178/1/4
f 1178/2/4 1176/2/4 1179/2/4
f 1177/7/4 1178/7/4 1180/7/4
f 1178/3/4 1179/3/4 1181/3/4
f 1180/7/4 1178/7/4 1181/7/4
f 1181/3/4 1179/3/4 1182/3/4
f 1180/1/4 1181/1/4 1183/1/4
f 1181/2/4 1182/2/4 1184/2/4
f 1183/1/4 1181/1/4 1184/1/4
f 1184/2/4 1182/2/4 1185/2/4
f 1183/7/4 1184/7/4 1186/7/4
f 1184/3/4 1185/3/4 1187/3/4
f 1186/7/4 1184/7/4 1187/7/4
f 1187/3/4 1185/3/4 1188/3/4
f 1186/1/4 1187/1/4 1189/1/4
f 1187/2/4 1188/2/4 1190/2/4
f 1189/1/4 1187/1/4 1190/1/4
f 1190/2/4 1188/2/4 1191/2/4
f 1189/7/4 1190/7/4 1192/7/4
f 1190/3/4 1191/3/4 1193/3/4
f 1192/7/4 1190/7/4 1193/7/4
f 1193/3/4 1191/3/4 1194/3/4
f 1195/6/4 1196/6/4 1197/6/4
f 1197/6/4 1196/6/4 1198/6/4
f 1199/6/4 1200/6/4 1201/6/4
f 1201/6/4 1200/6/4 1202/6/4
f 1203/6/4 1204/6/4 1205/6/4
f 1205/6/4 1204/6/4 1206/6/4
f 1207/6/4 1208/6/4 1210/6/4
f 1209/6/4 1210/6/4 1211/6/4
f 1210/6/4 1208/6/4 1212/6/4
f 1211/6/4 1210/6/4 1212/6/4
f 1212/6/4 1208/6/4 1214/6/4
f 1213/6/4 1214/6/4 1215/6/4
f 1214/6/4 1208/6/4 1216/6/4
f 1215/6/4 1214/6/4 1216/6/4
f 1216/6/4 1208/6/4 1218/6/4
f 1217/6/4 1218/6/4 1219/6/4
f 1218/6/4 1208/6/4 1220/6/4
f 1219/6/4 1218/6/4 1220/6/4
f 1220/6/4 1208/6/4 1222/6/4
f 1221/6/4 1222/6/4 1223/6/4
f 1222/6/4 1208/6/4 1224/6/4
f 1223/6/4 1222/6/4 1224/6/4
f 1224/6/4 1208/6/4 1226/6/4
f 1225/6/4 1226/6/4 1227/6/4
f 1226/6/4 1208/6/4 1228/6/4
f 1227/6/4 1226/6/4 1228/6/4
f 1228/6/4 1208/6/4 1230/6/4
f 1229/6/4 1230/6/4 1231/6/4
f 1230/6/4 1208/6/4 1232/6/4
f 1231/6/4 1230/6/4 1232/6/4
f 1232/6/4 1208/6/4 1234/6/4
f 1233/6/4 1234/6/4 1235/6/4
f 1234/6/4 1208/6/4 1236/6/4
f 1235/6/4 1234/6/4 1236/6/4
f 1236/6/4 1208/6/4 1238/6/4
f 1237/6/4 1238/6/4 1239/6/4
f 1238/6/4 1208/6/4 1240/6/4
f 1239/6/4 1238/6/4 1240/6/4
f 1240/6/4 1208/6/4 1241/6/4
f 1241/6/4 1208/6/4 1242/6/4
f 1243/6/4 1244/6/4 1245/6/4
f 1245/6/4 1244/6/4 1246/6/4
f 1247/6/4 1248/6/4 1249/6/4
f 1249/6/4 1248/6/4 1250/6/4
f 1251/6/4 1252/6/4 1253/6/4
f 1253/6/4 1252/6/4 1254/6/4
f 1255/6/4 1256/6/4 1257/6/4
f 1257/6/4 1256/6/4 1258/6/4
f 1259/6/4 1260/6/4 1261/6/4
f 1261/6/4 1260/6/4 1262/6/4
f 1263/6/4 1264/6/4 1265/6/4
f 1265/6/4 1264/6/4 1266/6/4
f 1267/6/4 1268/6/4 1269/6/4
f 1269/6/4 1268/6/4 1270/6/4
f 1271/6/4 1272/6/4 1273/6/4
f 1273/6/4 1272/6/4 1274/6/4
f 1275/6/4 1276/6/4 1277/6/4
f 1277/6/4 1276/6/4 1278/6/4
f 1279/6/4 1280/6/4 1281/6/4
f 1279/6/4 1281/6/4 1283/6/4
f 1281/6/4 1282/6/4 1283/6/4
f 1283/6/4 1282/6/4 1284/6/4
f 1285/6/4 1286/6/4 1287/6/4
f 1287/6/4 1286/6/4 1288/6/4
f 1289/6/4 1290/6/4 1291/6/4
f 1291/6/4 1290/6/4 1292/6/4
f 1293/6/4 1294/6/4 1295/6/4
f 1295/6/4 1294/6/4 1296/6/4
f 1297/6/4 1298/6/4 1299/6/4
f 1299/6/4 1298/6/4 1300/6/4
f 1301/6/4 1302/6/4 1303/6/4
f 1303/6/4 1302/6/4 1304/6/4
f 1305/6/4 1306/6/4 1307/6/4
f 1307/6/4 1306/6/4 1308/6/4
f 1309/6/4 1310/6/4 1311/6/4
f 1311/6/4 1310/6/4 1312/6/4
f 1313/6/4 1314/6/4 1315/6/4
f 1315/6/4 1314/6/4 1316/6/4
f 1313/6/4 1315/6/4 1317/6/4
f 1317/6/4 1315/6/4 1318/6/4
f 1337/6/5 1320/6/5 1319/6/5
f 1338/6/5 1322/6/5 1321/6/5
f 1339/6/5 1322/6/5 1338/6/5
f 1340/6/5 1324/6/5 1323/6/5
f 1341/6/5 1324/6/5 1340/6/5
f 1342/6/5 1326/6/5 1325/6/5
f 1343/6/5 1326/6/5 1342/6/5
f 1344/6/5 1328/6/5 1327/6/5
f 1345/6/5 1328/6/5 1344/6/5
f 1346/6/5 1330/6/5 1329/6/5
f 1347/6/5 1330/6/5 1346/6/5
f 1348/6/5 1332/6/5 1331/6/5
f 1349/6/5 1332/6/5 1348/6/5
f 1350/6/5 1334/6/5 1333/6/5
f 1351/6/5 1334/6/5 1350/6/5
f 1352/6/5 1336/6/5 1335/6/5
f 1354/6/5 1351/6/5 1350/6/5
f 1354/6/5 1352/6/5 1351/6/5
f 1354/6/5 1337/6/5 1319/6/5
f 1354/6/5 1339/6/5 1338/6/5
f 1354/6/5 1350/6/5 1349/6/5
f 1354/6/5 1341/6/5 1340/6/5
f 1354/6/5 1348/6/5 1347/6/5
f 1354/6/5 1343/6/5 1342/6/5
f 1354/6/5 1346/6/5 1345/6/5
f 1354/6/5 1345/6/5 1344/6/5
f 1354/6/5 1344/6/5 1343/6/5
f 1354/6/5 1347/6/5 1346/6/5
f 1354/6/5 1342/6/5 1341/6/5
f 1354/6/5 1349/6/5 1348/6/5
f 1354/6/5 1340/6/5 1339/6/5
f 1354/6/5 1338/6/5 1337/6/5
f 1355/6/5 1336/6/5 1352/6/5
f 1355/6/5 1352/6/5 1354/6/5
f 1357/6/5 1354/6/5 1353/6/5
f 1357/6/5 1356/6/5 1355/6/5
f 1357/6/5 1355/6/5 1354/6/5
f 1358/6/5 1356/6/5 1357/6/5
f 1359/6/5 1356/6/5 1358/6/5
f 1360/6/5 1356/6/5 1359/6/5
f 1362/6/5 1359/6/5 1358/6/5
f 1363/6/5 1359/6/5 1362/6/5
f 1365/6/5 1362/6/5 1361/6/5
f 1365/6/5 1364/6/5 1363/6/5
f 1365/6/5 1363/6/5 1362/6/5
f 1366/6/5 1364/6/5 1365/6/5
f 1367/6/5 1364/6/5 1366/6/5
f 1368/6/5 1364/6/5 1367/6/5
f 1370/6/5 1367/6/5 1366/6/5
f 1371/6/5 1367/6/5 1370/6/5
f 1373/6/5 1370/6/5 1369/6/5
f 1373/6/5 1372/6/5 1371/6/5
f 1373/6/5 1371/6/5 1370/6/5
f 1374/6/5 1372/6/5 1373/6/5
f 1375/6/5 1372/6/5 1374/6/5
f 1376/6/5 1372/6/5 1375/6/5
f 1378/6/5 1375/6/5 1374/6/5
f 1379/6/5 1375/6/5 1378/6/5
f 1381/6/5 1378/6/5 1377/6/5
f 1381/6/5 1380/6/5 1379/6/5
f 1381/6/5 1379/6/5 1378/6/5
f 1382/6/5 1380/6/5 1381/6/5
f 1383/6/5 1380/6/5 1382/6/5
f 1384/6/5 1380/6/5 1383/6/5
f 1386/6/5 1383/6/5 1382/6/5
f 1387/6/5 1383/6/5 1386/6/5
f 1389/6/5 1386/6/5 1385/6/5
f 1389/6/5 1388/6/5 1387/6/5
f 1389/6/5 1387/6/5 1386/6/5
f 1390/6/5 1388/6/5 1389/6/5
f 1391/6/5 1388/6/5 1390/6/5
f 1392/6/5 1388/6/5 1391/6/5
f 1394/6/5 1391/6/5 1390/6/5
f 1395/6/5 1391/6/5 1394/6/5
f 1397/6/5 1394/6/5 1393/6/5
f 1397/6/5 1396/6/5 1395/6/5
f 1397/6/5 1395/6/5 1394/6/5
f 1398/6/5 1396/6/5 1397/6/5
f 1399/6/5 1396/6/5 1398/6/5
f 1400/6/5 1396/6/5 1399/6/5
f 1402/6/5 1399/6/5 1398/6/5
f 1403/6/5 1399/6/5 1402/6/5
f 1405/6/5 1402/6/5 1401/6/5
f 1405/6/5 1404/6/5 1403/6/5
f 1405/6/5 1403/6/5 1402/6/5
f 1406/6/5 1404/6/5 1405/6/5
f 1407/6/5 1404/6/5 1406/6/5
f 1408/6/5 1404/6/5 1407/6/5
f 1409/6/5 1407/6/5 1406/6/5
f 1410/6/5 1407/6/5 1409/6/5
f 1411/6/5 1407/6/5 1410/6/5
f 1412/6/5 1407/6/5 1411/6/5
f 1413/6/5 1407/6/5 1412/6/5
f 1414/6/5 1407/6/5 1413/6/5
f 1415/6/5 1407/6/5 1414/6/5
f 1416/6/5 1407/6/5 1415/6/5
f 1417/6/5 1407/6/5 1416/6/5
f 1418/6/5 1407/6/5 1417/6/5
f 1419/6/5 1407/6/5 1418/6/5
f 1420/6/5 1407/6/5 1419/6/5
f 1421/6/5 1407/6/5 1420/6/5
f 1422/6/5 1407/6/5 1421/6/5
f 1423/6/5 1407/6/5 1422/6/5
f 1424/6/5 1407/6/5 1423/6/5
f 1425/6/5 1409/6/5 1406/6/5
f 1426/6/5 1409/6/5 1425/6/5
f 1427/6/5 1411/6/5 1410/6/5
f 1428/6/5 1411/6/5 1427/6/5
f 1429/6/5 1413/6/5 1412/6/5
f 1430/6/5 1413/6/5 1429/6/5
f 1431/6/5 1415/6/5 1414/6/5
f 1432/6/5 1415/6/5 1431/6/5
f 1433/6/5 1417/6/5 1416/6/5
f 1434/6/5 1417/6/5 1433/6/5
f 1435/6/5 1419/6/5 1418/6/5
f 1436/6/5 1419/6/5 1435/6/5
f 1437/6/5 1421/6/5 1420/6/5
f 1438/6/5 1421/6/5 1437/6/5
f 1439/6/5 1423/6/5 1422/6/5
f 1440/6/5 1423/6/5 1439/6/5
f 1441/6/5 1407/6/5 1424/6/5
f 1442/6/5 1407/6/5 1441/6/5
f 1443/6/6 1444/6/6 1464/6/6
f 1447/6/6 1448/6/6 1465/6/6
f 1465/6/6 1448/6/6 1466/6/6
f 1449/6/6 1450/6/6 1467/6/6
f 1467/6/6 1450/6/6 1468/6/6
f 1451/6/6 1452/6/6 1469/6/6
f 1469/6/6 1452/6/6 1470/6/6
f 1453/6/6 1454/6/6 1471/6/6
f 1471/6/6 1454/6/6 1472/6/6
f 1455/6/6 1456/6/6 1473/6/6
f 1473/6/6 1456/6/6 1474/6/6
f 1457/6/6 1458/6/6 1475/6/6
f 1475/6/6 1458/6/6 1476/6/6
f 1459/6/6 1460/6/6 1477/6/6
f 1477/6/6 1460/6/6 1478/6/6
f 1461/6/6 1462/6/6 1479/6/6
f 1479/6/6 1462/6/6 1480/6/6
f 1445/6/6 1446/6/6 1481/6/6
f 1463/6/6 1464/6/6 1483/6/6
f 1464/6/6 1444/6/6 1484/6/6
f 1483/6/6 1464/6/6 1484/6/6
f 1481/6/6 1482/6/6 1485/6/6
f 1445/6/6 1481/6/6 1485/6/6
f 1485/6/6 1482/6/6 1486/6/6
f 1487/6/6 1488/6/6 1491/6/6
f 1491/6/6 1488/6/6 1492/6/6
f 1489/6/6 1490/6/6 1493/6/6
f 1493/6/6 1490/6/6 1494/6/6
f 1495/6/6 1496/6/6 1499/6/6
f 1499/6/6 1496/6/6 1500/6/6
f 1497/6/6 1498/6/6 1501/6/6
f 1501/6/6 1498/6/6 1502/6/6
f 1503/6/6 1504/6/6 1507/6/6
f 1507/6/6 1504/6/6 1508/6/6
f 1505/6/6 1506/6/6 1509/6/6
f 1509/6/6 1506/6/6 1510/6/6
f 1511/6/6 1512/6/6 1515/6/6
f 1515/6/6 1512/6/6 1516/6/6
f 1513/6/6 1514/6/6 1517/6/6
f 1517/6/6 1514/6/6 1518/6/6
f 1519/6/6 1520/6/6 1523/6/6
f 1523/6/6 1520/6/6 1524/6/6
f 1521/6/6 1522/6/6 1525/6/6
f 1525/6/6 1522/6/6 1526/6/6
f 1527/6/6 1528/6/6 1531/6/6
f 1531/6/6 1528/6/6 1532/6/6
f 1529/6/6 1530/6/6 1533/6/6
f 1533/6/6 1530/6/6 1534/6/6
f 1535/6/6 1536/6/6 1539/6/6
f 1539/6/6 1536/6/6 1540/6/6
f 1537/6/6 1538/6/6 1557/6/6
f 1557/6/6 1538/6/6 1558/6/6
f 1541/6/6 1542/6/6 1559/6/6
f 1559/6/6 1542/6/6 1560/6/6
f 1543/6/6 1544/6/6 1561/6/6
f 1561/6/6 1544/6/6 1562/6/6
f 1545/6/6 1546/6/6 1563/6/6
f 1563/6/6 1546/6/6 1564/6/6
f 1547/6/6 1548/6/6 1565/6/6
f 1565/6/6 1548/6/6 1566/6/6
f 1549/6/6 1550/6/6 1567/6/6
f 1567/6/6 1550/6/6 1568/6/6
f 1551/6/6 1552/6/6 1569/6/6
f 1569/6/6 1552/6/6 1570/6/6
f 1553/6/6 1554/6/6 1571/6/6
f 1571/6/6 1554/6/6 1572/6/6
f 1555/6/6 1556/6/6 1573/6/6
f 1573/6/6 1556/6/6 1574/6/6
f 1540/6/6 1536/6/6 1575/6/6
f 1575/6/6 1536/6/6 1576/6/6
f 1537/6/6 1557/6/6 1577/6/6
f 1577/6/6 1557/6/6 1578/6/6
f 1579/6/6 1580/6/6 1597/6/6
f 1597/6/6 1580/6/6 1598/6/6
f 1581/6/6 1582/6/6 1599/6/6
f 1599/6/6 1582/6/6 1600/6/6
f 1583/6/6 1584/6/6 1601/6/6
f 1601/6/6 1584/6/6 1602/6/6
f 1585/6/6 1586/6/6 1603/6/6
f 1603/6/6 1586/6/6 1604/6/6
f 1587/6/6 1588/6/6 1605/6/6
f 1605/6/6 1588/6/6 1606/6/6
f 1589/6/6 1590/6/6 1607/6/6
f 1607/6/6 1590/6/6 1608/6/6
f 1591/6/6 1592/6/6 1609/6/6
f 1609/6/6 1592/6/6 1610/6/6
f 1593/6/6 1594/6/6 1611/6/6
f 1611/6/6 1594/6/6 1612/6/6
f 1595/6/6 1596/6/6 1613/6/6
f 1613/6/6 1596/6/6 1614/6/6
f 1579/6/6 1597/6/6 1616/6/6
f 1614/6/6 1596/6/6 1617/6/6
f 1615/6/6 1616/6/6 1619/6/6
f 1616/6/6 1597/6/6 1620/6/6
f 1619/6/6 1616/6/6 1620/6/6
f 1617/6/6 1618/6/6 1621/6/6
f 1614/6/6 1617/6/6 1621/6/6
f 1621/6/6 1618/6/6 1622/6/6
f 1623/6/6 1624/6/6 1627/6/6
f 1627/6/6 1624/6/6 1628/6/6
f 1625/6/6 1626/6/6 1629/6/6
f 1629/6/6 1626/6/6 1630/6/6
f 1631/6/6 1632/6/6 1635/6/6
f 1635/6/6 1632/6/6 1636/6/6
f 1633/6/6 1634/6/6 1637/6/6
f 1637/6/6 1634/6/6 1638/6/6
f 1639/6/6 1640/6/6 1643/6/6
f 1643/6/6 1640/6/6 1644/6/6
f 1641/6/6 1642/6/6 1645/6/6
f 1645/6/6 1642/6/6 1646/6/6
f 1647/6/6 1648/6/6 1651/6/6
f 1651/6/6 1648/6/6 1652/6/6
f 1649/6/6 1650/6/6 1653/6/6
f 1653/6/6 1650/6/6 1654/6/6
f 1655/6/6 1656/6/6 1659/6/6
f 1659/6/6 1656/6/6 1660/6/6
f 1657/6/6 1658/6/6 1661/6/6
f 1661/6/6 1658/6/6 1662/6/6
f 1663/6/6 1664/6/6 1667/6/6
f 1667/6/6 1664/6/6 1668/6/6
f 1665/6/6 1666/6/6 1669/6/6
f 1669/6/6 1666/6/6 1670/6/6
f 1668/6/6 1664/6/6 1671/6/6
f 1665/6/6 1669/6/6 1688/6/6
f 1668/6/6 1671/6/6 1689/6/6
f 1671/6/6 1672/6/6 1689/6/6
f 1689/6/6 1672/6/6 1690/6/6
f 1673/6/6 1674/6/6 1691/6/6
f 1691/6/6 1674/6/6 1692/6/6
f 1675/6/6 1676/6/6 1693/6/6
f 1693/6/6 1676/6/6 1694/6/6
f 1677/6/6 1678/6/6 1695/6/6
f 1695/6/6 1678/6/6 1696/6/6
f 1679/6/6 1680/6/6 1697/6/6
f 1697/6/6 1680/6/6 1698/6/6
f 1681/6/6 1682/6/6 1699/6/6
f 1699/6/6 1682/6/6 1700/6/6
f 1683/6/6 1684/6/6 1701/6/6
f 1701/6/6 1684/6/6 1702/6/6
f 1685/6/6 1686/6/6 1703/6/6
f 1703/6/6 1686/6/6 1704/6/6
f 1687/6/6 1688/6/6 1705/6/6
f 1688/6/6 1669/6/6 1706/6/6
f 1705/6/6 1688/6/6 1706/6/6
f 1707/6/6 1708/6/6 1709/6/6
f 1709/6/6 1708/6/6 1710/6/6
f 1710/6/6 1708/6/6 1711/6/6
f 1711/6/6 1708/6/6 1712/6/6
f 1712/6/6 1708/6/6 1713/6/6
f 1713/6/6 1708/6/6 1714/6/6
f 1707/6/6 1709/6/6 1715/6/6
f 1709/4/6 1710/4/6 1715/4/6
f 1710/5/6 1711/5/6 1716/5/6
f 1715/4/6 1710/4/6 1716/4/6
f 1711/6/6 1712/6/6 1717/6/6
f 1716/5/6 1711/5/6 1717/5/6
f 1712/5/6 1713/5/6 1718/5/6
f 1717/6/6 1712/6/6 1718/6/6
f 1713/4/6 1714/4/6 1719/4/6
f 1718/5/6 1713/5/6 1719/5/6
f 1714/6/6 1708/6/6 1720/6/6
f 1719/4/6 1714/4/6 1720/4/6
f 1718/6/6 1719/6/6 1721/6/6
f 1717/6/6 1718/6/6 1721/6/6
f 1716/6/6 1717/6/6 1721/6/6
f 1721/6/6 1719/6/6 1722/6/6
f 1722/6/6 1719/6/6 1723/6/6
f 1723/6/6 1719/6/6 1724/6/6
f 1724/6/6 1719/6/6 1725/6/6
f 1725/6/6 1719/6/6 1726/6/6
f 1726/6/6 1719/6/6 1727/6/6
f 1727/6/6 1719/6/6 1728/6/6
f 1728/6/6 1719/6/6 1729/6/6
f 1729/6/6 1719/6/6 1730/6/6
f 1730/6/6 1719/6/6 1731/6/6
f 1731/6/6 1719/6/6 1732/6/6
f 1716/6/6 1721/6/6 1733/6/6
f 1732/6/6 1719/6/6 1734/6/6
f 1716/6/6 1733/6/6 1735/6/6
f 1735/6/6 1733/6/6 1736/6/6
f 1736/6/6 1733/6/6 1737/6/6
f 1734/6/6 1719/6/6 1738/6/6
f 1738/6/6 1719/6/6 1739/6/6
f 1739/6/6 1719/6/6 1740/6/6
f 1707/6/6 1715/6/6 1741/6/6
f 1715/5/6 1716/5/6 1741/5/6
f 1716/6/6 1735/6/6 1742/6/6
f 1741/5/6 1716/5/6 1742/5/6
f 1719/5/6 1720/5/6 1743/5/6
f 1740/6/6 1719/6/6 1743/6/6
f 1720/6/6 1708/6/6 1744/6/6
f 1743/5/6 1720/5/6 1744/5/6
f 1742/6/6 1735/6/6 1745/6/6
f 1741/6/6 1742/6/6 1745/6/6
f 1740/6/6 1743/6/6 1746/6/6
f 1743/6/6 1744/6/6 1746/6/6
f 1741/6/6 1745/6/6 1747/6/6
f 1746/6/6 1744/6/6 1748/6/6
f 1741/6/6 1747/6/6 1749/6/6
f 1748/6/6 1744/6/6 1750/6/6
f 1741/6/6 1749/6/6 1751/6/6
f 1750/6/6 1744/6/6 1752/6/6
f 1741/6/6 1751/6/6 1753/6/6
f 1752/6/6 1744/6/6 1754/6/6
f 1741/6/6 1753/6/6 1755/6/6
f 1754/6/6 1744/6/6 1756/6/6
f 1741/6/6 1755/6/6 1757/6/6
f 1756/6/6 1744/6/6 1758/6/6
f 1741/6/6 1757/6/6 1759/6/6
f 1758/6/6 1744/6/6 1760/6/6
f 1741/6/6 1759/6/6 1761/6/6
f 1707/6/6 1741/6/6 1761/6/6
f 1761/6/6 1759/6/6 1762/6/6
f 1760/6/6 1744/6/6 1763/6/6
f 1744/6/6 1708/6/6 1764/6/6
f 1763/6/6 1744/6/6 1764/6/6
f 1762/6/6 1759/6/6 1765/6/6
f 1760/6/6 1763/6/6 1770/6/6
f 1765/6/6 1766/6/6 1771/6/6
f 1766/6/6 1767/6/6 1771/6/6
f 1768/6/6 1769/6/6 1772/6/6
f 1769/6/6 1770/6/6 1772/6/6
f 1765/6/6 1771/6/6 1773/6/6
f 1772/6/6 1770/6/6 1784/6/6
f 1707/6/6 1761/6/6 1785/6/6
f 1761/5/6 1762/5/6 1785/5/6
f 1782/6/6 1783/6/6 1786/6/6
f 1785/5/6 1762/5/6 1786/5/6
f 1783/6/6 1784/6/6 1786/6/6
f 1762/6/6 1765/6/6 1786/6/6
f 1781/6/6 1782/6/6 1786/6/6
f 1780/6/6 1781/6/6 1786/6/6
f 1779/6/6 1780/6/6 1786/6/6
f 1778/6/6 1779/6/6 1786/6/6
f 1777/6/6 1778/6/6 1786/6/6
f 1776/6/6 1777/6/6 1786/6/6
f 1775/6/6 1776/6/6 1786/6/6
f 1774/6/6 1775/6/6 1786/6/6
f 1773/6/6 1774/6/6 1786/6/6
f 1765/6/6 1773/6/6 1786/6/6
f 1786/6/6 1784/6/6 1787/6/6
f 1787/6/6 1784/6/6 1788/6/6
f 1784/6/6 1770/6/6 1789/6/6
f 1788/6/6 1784/6/6 1789/6/6
f 1763/5/6 1764/5/6 1789/5/6
f 1770/6/6 1763/6/6 1789/6/6
f 1764/6/6 1708/6/6 1790/6/6
f 1789/5/6 1764/5/6 1790/5/6
f 1707/6/6 1785/6/6 1791/6/6
f 1785/4/6 1786/4/6 1791/4/6
f 1786/5/6 1787/5/6 1792/5/6
f 1791/4/6 1786/4/6 1792/4/6
f 1787/6/6 1788/6/6 1793/6/6
f 1792/5/6 1787/5/6 1793/5/6
f 1788/5/6 1789/5/6 1794/5/6
f 1793/6/6 1788/6/6 1794/6/6
f 1789/4/6 1790/4/6 1795/4/6
f 1794/5/6 1789/5/6 1795/5/6
f 1790/6/6 1708/6/6 1796/6/6
f 1795/4/6 1790/4/6 1796/4/6
f 1792/6/6 1793/6/6 1797/6/6
f 1794/6/6 1795/6/6 1797/6/6
f 1795/6/6 1796/6/6 1797/6/6
f 1793/6/6 1794/6/6 1797/6/6
f 1791/6/6 1792/6/6 1797/6/6
f 1707/6/6 1791/6/6 1797/6/6
f 1796/6/6 1708/6/6 1798/6/6
f 1797/6/6 1796/6/6 1798/6/6
f 1799/3/6 1800/3/6 1811/3/6
f 1811/3/6 1800/3/6 1812/3/6
f 1800/2/6 1801/2/6 1813/2/6
f 1812/3/6 1800/3/6 1813/3/6
f 1801/3/6 1802/3/6 1814/3/6
f 1813/2/6 1801/2/6 1814/2/6
f 1802/2/6 1803/2/6 1815/2/6
f 1814/3/6 1802/3/6 1815/3/6
f 1803/3/6 1804/3/6 1816/3/6
f 1815/2/6 1803/2/6 1816/2/6
f 1804/2/6 1805/2/6 1817/2/6
f 1816/3/6 1804/3/6 1817/3/6
f 1805/3/6 1806/3/6 1818/3/6
f 1817/2/6 1805/2/6 1818/2/6
f 1806/2/6 1807/2/6 1819/2/6
f 1818/3/6 1806/3/6 1819/3/6
f 1807/3/6 1808/3/6 1820/3/6
f 1819/2/6 1807/2/6 1820/2/6
f 1808/2/6 1809/2/6 1821/2/6
f 1820/3/6 1808/3/6 1821/3/6
f 1809/3/6 1810/3/6 1822/3/6
f 1821/2/6 1809/2/6 1822/2/6
f 1822/3/6 1810/3/6 1823/3/6
f 1823/3/6 1810/3/6 1824/3/6
f 1811/2/6 1812/2/6 1827/2/6
f 1823/2/6 1824/2/6 1828/2/6
f 1825/3/6 1826/3/6 1831/3/6
f 1826/2/6 1827/2/6 1831/2/6
f 1827/2/6 1812/2/6 1832/2/6
f 1831/2/6 1827/2/6 1832/2/6
f 1823/2/6 1828/2/6 1833/2/6
f 1828/2/6 1829/2/6 1833/2/6
f 1829/3/6 1830/3/6 1834/3/6
f 1833/2/6 1829/2/6 1834/2/6
f 1825/3/6 1831/3/6 1835/3/6
f 1835/3/6 1831/3/6 1836/3/6
f 1834/3/6 1830/3/6 1837/3/6
f 1837/3/6 1830/3/6 1838/3/6
f 1835/2/6 1836/2/6 1839/2/6
f 1839/2/6 1836/2/6 1840/2/6
f 1837/2/6 1838/2/6 1841/2/6
f 1841/2/6 1838/2/6 1842/2/6
f 1839/3/6 1840/3/6 1843/3/6
f 1843/3/6 1840/3/6 1844/3/6
f 1841/3/6 1842/3/6 1845/3/6
f 1845/3/6 1842/3/6 1846/3/6
f 1843/2/6 1844/2/6 1847/2/6
f 1847/2/6 1844/2/6 1848/2/6
f 1845/2/6 1846/2/6 1849/2/6
f 1849/2/6 1846/2/6 1850/2/6
f 1847/3/6 1848/3/6 1851/3/6
f 1851/3/6 1848/3/6 1852/3/6
f 1849/3/6 1850/3/6 1853/3/6
f 1853/3/6 1850/3/6 1854/3/6
f 1851/2/6 1852/2/6 1855/2/6
f 1855/2/6 1852/2/6 1856/2/6
f 1853/2/6 1854/2/6 1857/2/6
f 1857/2/6 1854/2/6 1858/2/6
f 1855/3/6 1856/3/6 1859/3/6
f 1859/3/6 1856/3/6 1860/3/6
f 1857/3/6 1858/3/6 1861/3/6
f 1861/3/6 1858/3/6 1862/3/6
f 1859/2/6 1860/2/6 1863/2/6
f 1863/2/6 1860/2/6 1864/2/6
f 1861/2/6 1862/2/6 1865/2/6
f 1865/2/6 1862/2/6 1866/2/6
f 1863/3/6 1864/3/6 1867/3/6
f 1865/3/6 1866/3/6 1870/3/6
f 1863/3/6 1867/3/6 1871/3/6
f 1867/2/6 1868/2/6 1872/2/6
f 1871/3/6 1867/3/6 1872/3/6
f 1872/2/6 1868/2/6 1873/2/6
f 1869/2/6 1870/2/6 1874/2/6
f 1870/3/6 1866/3/6 1875/3/6
f 1874/2/6 1870/2/6 1875/2/6
f 1875/3/6 1866/3/6 1876/3/6
f 1873/2/6 1868/2/6 1877/2/6
f 1877/2/6 1868/2/6 1878/2/6
f 1869/2/6 1874/2/6 1889/2/6
f 1889/2/6 1874/2/6 1890/2/6
f 1877/3/6 1878/3/6 1891/3/6
f 1878/3/6 1879/3/6 1891/3/6
f 1879/2/6 1880/2/6 1892/2/6
f 1891/3/6 1879/3/6 1892/3/6
f 1880/3/6 1881/3/6 1893/3/6
f 1892/2/6 1880/2/6 1893/2/6
f 1881/2/6 1882/2/6 1894/2/6
f 1893/3/6 1881/3/6 1894/3/6
f 1882/3/6 1883/3/6 1895/3/6
f 1894/2/6 1882/2/6 1895/2/6
f 1883/2/6 1884/2/6 1896/2/6
f 1895/3/6 1883/3/6 1896/3/6
f 1884/3/6 1885/3/6 1897/3/6
f 1896/2/6 1884/2/6 1897/2/6
f 1885/2/6 1886/2/6 1898/2/6
f 1897/3/6 1885/3/6 1898/3/6
f 1886/3/6 1887/3/6 1899/3/6
f 1898/2/6 1886/2/6 1899/2/6
f 1887/2/6 1888/2/6 1900/2/6
f 1899/3/6 1887/3/6 1900/3/6
f 1889/3/6 1890/3/6 1901/3/6
f 1900/2/6 1888/2/6 1901/2/6
f 1888/3/6 1889/3/6 1901/3/6
f 1901/3/6 1890/3/6 1902/3/6
f 1903/6/6 1904/6/6 1906/6/6
f 1906/6/6 1904/6/6 1907/6/6
f 1907/6/6 1904/6/6 1908/6/6
f 1908/6/6 1904/6/6 1909/6/6
f 1905/6/6 1906/6/6 1911/6/6
f 1906/6/6 1907/6/6 1911/6/6
f 1911/6/6 1907/6/6 1912/6/6
f 1909/6/6 1910/6/6 1913/6/6
f 1908/6/6 1909/6/6 1913/6/6
f 1913/6/6 1910/6/6 1914/6/6
f 1905/6/6 1911/6/6 1915/6/6
f 1914/6/6 1910/6/6 1918/6/6
f 1915/6/6 1916/6/6 1919/6/6
f 1905/6/6 1915/6/6 1919/6/6
f 1919/6/6 1916/6/6 1920/6/6
f 1920/6/6 1916/6/6 1921/6/6
f 1917/6/6 1918/6/6 1922/6/6
f 1918/6/6 1910/6/6 1923/6/6
f 1922/6/6 1918/6/6 1923/6/6
f 1923/6/6 1910/6/6 1924/6/6
f 1920/6/6 1921/6/6 1925/6/6
f 1921/6/6 1922/6/6 1925/6/6
f 1922/6/6 1923/6/6 1925/6/6
f 1925/6/6 1923/6/6 1926/6/6
f 1927/6/6 1928/6/6 1930/6/6
f 1930/6/6 1928/6/6 1931/6/6
f 1931/6/6 1928/6/6 1932/6/6
f 1932/6/6 1928/6/6 1933/6/6
f 1929/6/6 1930/6/6 1935/6/6
f 1930/6/6 1931/6/6 1935/6/6
f 1935/6/6 1931/6/6 1936/6/6
f 1936/6/6 1931/6/6 1937/6/6
f 1937/6/6 1931/6/6 1938/6/6
f 1938/6/6 1931/6/6 1939/6/6
f 1931/5/6 1932/5/6 1940/5/6
f 1939/6/6 1931/6/6 1940/6/6
f 1933/6/6 1934/6/6 1941/6/6
f 1940/5/6 1932/5/6 1941/5/6
f 1932/6/6 1933/6/6 1941/6/6
f 1941/6/6 1934/6/6 1942/6/6
f 1939/5/6 1940/5/6 1943/5/6
f 1938/6/6 1939/6/6 1943/6/6
f 1940/4/6 1941/4/6 1944/4/6
f 1943/5/6 1940/5/6 1944/5/6
f 1941/5/6 1942/5/6 1945/5/6
f 1944/4/6 1941/4/6 1945/4/6
f 1942/6/6 1934/6/6 1946/6/6
f 1945/5/6 1942/5/6 1946/5/6
f 1929/6/6 1935/6/6 1947/6/6
f 1935/5/6 1936/5/6 1948/5/6
f 1947/6/6 1935/6/6 1948/6/6
f 1936/6/6 1937/6/6 1949/6/6
f 1948/5/6 1936/5/6 1949/5/6
f 1937/5/6 1938/5/6 1950/5/6
f 1949/6/6 1937/6/6 1950/6/6
f 1943/6/6 1944/6/6 1951/6/6
f 1950/5/6 1938/5/6 1951/5/6
f 1938/6/6 1943/6/6 1951/6/6
f 1951/6/6 1944/6/6 1952/6/6
f 1929/6/6 1947/6/6 1953/6/6
f 1947/5/6 1948/5/6 1953/5/6
f 1948/4/6 1949/4/6 1954/4/6
f 1953/5/6 1948/5/6 1954/5/6
f 1949/5/6 1950/5/6 1955/5/6
f 1954/4/6 1949/4/6 1955/4/6
f 1950/4/6 1951/4/6 1956/4/6
f 1955/5/6 1950/5/6 1956/5/6
f 1951/5/6 1952/5/6 1957/5/6
f 1956/4/6 1951/4/6 1957/4/6
f 1952/6/6 1944/6/6 1958/6/6
f 1957/5/6 1952/5/6 1958/5/6
f 1944/5/6 1945/5/6 1959/5/6
f 1958/6/6 1944/6/6 1959/6/6
f 1957/6/6 1958/6/6 1959/6/6
f 1945/6/6 1946/6/6 1960/6/6
f 1959/5/6 1945/5/6 1960/5/6
f 1929/6/6 1953/6/6 1961/6/6
f 1953/6/6 1954/6/6 1961/6/6
f 1961/6/6 1954/6/6 1962/6/6
f 1962/6/6 1954/6/6 1963/6/6
f 1954/5/6 1955/5/6 1964/5/6
f 1963/6/6 1954/6/6 1964/6/6
f 1955/6/6 1956/6/6 1965/6/6
f 1964/5/6 1955/5/6 1965/5/6
f 1956/5/6 1957/5/6 1966/5/6
f 1965/6/6 1956/6/6 1966/6/6
f 1959/6/6 1960/6/6 1967/6/6
f 1966/5/6 1957/5/6 1967/5/6
f 1957/6/6 1959/6/6 1967/6/6
f 1967/6/6 1960/6/6 1968/6/6
f 1962/6/6 1963/6/6 1969/6/6
f 1963/5/6 1964/5/6 1969/5/6
f 1964/4/6 1965/4/6 1970/4/6
f 1969/5/6 1964/5/6 1970/5/6
f 1965/5/6 1966/5/6 1971/5/6
f 1970/4/6 1965/4/6 1971/4/6
f 1966/4/6 1967/4/6 1972/4/6
f 1971/5/6 1966/5/6 1972/5/6
f 1967/5/6 1968/5/6 1973/5/6
f 1972/4/6 1967/4/6 1973/4/6
f 1968/6/6 1960/6/6 1974/6/6
f 1973/5/6 1968/5/6 1974/5/6
f 1969/6/6 1970/6/6 1975/6/6
f 1970/5/6 1971/5/6 1975/5/6
f 1971/6/6 1972/6/6 1976/6/6
f 1975/5/6 1971/5/6 1976/5/6
f 1972/5/6 1973/5/6 1977/5/6
f 1976/6/6 1972/6/6 1977/6/6
f 1973/6/6 1974/6/6 1978/6/6
f 1977/5/6 1973/5/6 1978/5/6
f 1961/5/6 1962/5/6 1979/5/6
f 1929/6/6 1961/6/6 1979/6/6
f 1975/6/6 1976/6/6 1980/6/6
f 1979/5/6 1962/5/6 1980/5/6
f 1962/6/6 1969/6/6 1980/6/6
f 1976/6/6 1977/6/6 1980/6/6
f 1977/6/6 1978/6/6 1980/6/6
f 1969/6/6 1975/6/6 1980/6/6
f 1980/6/6 1978/6/6 1981/6/6
f 1929/6/6 1979/6/6 1982/6/6
f 1982/6/6 1979/6/6 1983/6/6
f 1979/4/6 1980/4/6 1984/4/6
f 1983/6/6 1979/6/6 1984/6/6
f 1980/5/6 1981/5/6 1985/5/6
f 1984/4/6 1980/4/6 1985/4/6
f 1981/6/6 1978/6/6 1986/6/6
f 1985/5/6 1981/5/6 1986/5/6
f 1960/6/6 1946/6/6 1987/6/6
f 1986/6/6 1978/6/6 1987/6/6
f 1974/6/6 1960/6/6 1987/6/6
f 1978/6/6 1974/6/6 1987/6/6
f 1946/6/6 1934/6/6 1988/6/6
f 1987/6/6 1946/6/6 1988/6/6
f 1984/6/6 1985/6/6 1989/6/6
f 1985/6/6 1986/6/6 1989/6/6
f 1983/6/6 1984/6/6 1989/6/6
f 1986/6/6 1987/6/6 1989/6/6
f 1989/6/6 1987/6/6 1990/6/6
