# MagicaVoxel @ Ephtracy

# group
o 

# material
mtllib model.mtl
usemtl palette

# normals
vn 0 0 1
vn 0 0 -1
vn 1 0 0
vn -1 0 0
vn 0 -1 0
vn 0 1 0

# texcoords
vt 0.0175781 0.5
vt 0.0214844 0.5
vt 0.0292969 0.5
vt 0.517578 0.5

# verts
v 0.2 1.9 1.6
v -0.2 1.9 1.6
v 0.2 2 1.6
v -0.2 2 1.6
v 1 0 1.4
v 0 0 1.4
v -1 0 1.4
v 1 0.4 1.4
v 0 0.4 1.4
v -1 0.4 1.4
v 0.3 1.9 1.4
v 0.2 1.9 1.4
v -0.2 1.9 1.4
v -0.3 1.9 1.4
v 0.3 2 1.4
v 0.2 2 1.4
v -0.2 2 1.4
v -0.3 2 1.4
v 0.9 0.4 1.3
v 0 0.4 1.3
v -0.9 0.4 1.3
v 0.9 1.1 1.3
v 0 1.1 1.3
v -0.9 1.1 1.3
v 1.2 0 1.2
v 1 0 1.2
v -1 0 1.2
v -1.2 0 1.2
v 1.2 0.4 1.2
v 1 0.4 1.2
v -1 0.4 1.2
v -1.2 0.4 1.2
v 1.1 0.4 1.1
v 0.9 0.4 1.1
v -0.9 0.4 1.1
v -1.1 0.4 1.1
v 1.1 1.1 1.1
v 0.9 1.1 1.1
v 0 1.1 1.1
v -0.9 1.1 1.1
v -1.1 1.1 1.1
v 0.9 1.3 1.1
v 0 1.3 1.1
v -0.9 1.3 1.1
v 0.1 1.4 0.1
v -0.0999999 1.4 0.1
v 0.1 1.9 0.1
v -0.0999999 1.9 0.1
v 0.1 2 0.1
v -0.0999999 2 0.1
v 0.1 2.1 0.1
v -0.0999999 2.1 0.1
v 0.3 1.9 -0.2
v 0.2 1.9 -0.2
v -0.2 1.9 -0.2
v -0.3 1.9 -0.2
v 0.3 2 -0.2
v 0.2 2 -0.2
v -0.2 2 -0.2
v -0.3 2 -0.2
v 0.3 1.9 0.2
v 0.2 1.9 0.2
v -0.2 1.9 0.2
v -0.3 1.9 0.2
v 0.3 2 0.2
v 0.2 2 0.2
v -0.2 2 0.2
v -0.3 2 0.2
v 0.1 1.4 -0.1
v -0.0999999 1.4 -0.1
v 0.1 1.9 -0.1
v -0.0999999 1.9 -0.1
v 0.1 2 -0.1
v -0.0999999 2 -0.1
v 0.1 2.1 -0.1
v -0.0999999 2.1 -0.1
v 1.1 0.4 -1.1
v 0.9 0.4 -1.1
v -0.9 0.4 -1.1
v -1.1 0.4 -1.1
v 1.1 1.1 -1.1
v 0.9 1.1 -1.1
v 0 1.1 -1.1
v -0.9 1.1 -1.1
v -1.1 1.1 -1.1
v 0.9 1.3 -1.1
v 0 1.3 -1.1
v -0.9 1.3 -1.1
v 1.2 0 -1.2
v 1 0 -1.2
v -1 0 -1.2
v -1.2 0 -1.2
v 1.2 0.4 -1.2
v 1 0.4 -1.2
v -1 0.4 -1.2
v -1.2 0.4 -1.2
v 0.9 0.4 -1.3
v 0 0.4 -1.3
v -0.9 0.4 -1.3
v 0.9 1.1 -1.3
v 0 1.1 -1.3
v -0.9 1.1 -1.3
v 1 0 -1.4
v 0 0 -1.4
v -1 0 -1.4
v 1 0.4 -1.4
v 0 0.4 -1.4
v -1 0.4 -1.4
v 0.3 1.9 -1.4
v 0.2 1.9 -1.4
v -0.2 1.9 -1.4
v -0.3 1.9 -1.4
v 0.3 2 -1.4
v 0.2 2 -1.4
v -0.2 2 -1.4
v -0.3 2 -1.4
v 0.2 1.9 -1.6
v -0.2 1.9 -1.6
v 0.2 2 -1.6
v -0.2 2 -1.6
v 1.2 0 1.2
v 1.2 0.4 1.2
v 1.2 0 0
v 1.2 0.4 0
v 1.2 0 -1.2
v 1.2 0.4 -1.2
v 1.1 0.4 1.1
v 1.1 1.1 1.1
v 1.1 0.4 0
v 1.1 1.1 0
v 1.1 0.4 -1.1
v 1.1 1.1 -1.1
v 1 0 1.4
v 1 0.4 1.4
v 1 0 1.2
v 1 0.4 1.2
v 1 0 -1.2
v 1 0.4 -1.2
v 1 0 -1.4
v 1 0.4 -1.4
v 0.9 0.4 1.3
v 0.9 1.1 1.3
v 0.9 0.4 1.1
v 0.9 1.1 1.1
v 0.9 1.3 1.1
v 0.9 1.1 0
v 0.9 1.3 0
v 0.9 0.4 -1.1
v 0.9 1.1 -1.1
v 0.9 1.3 -1.1
v 0.9 0.4 -1.3
v 0.9 1.1 -1.3
v 0.3 1.9 1.4
v 0.3 2 1.4
v 0.3 1.9 0.2
v 0.3 2 0.2
v 0.3 1.9 -0.2
v 0.3 2 -0.2
v 0.3 1.9 -1.4
v 0.3 2 -1.4
v 0.2 1.9 1.6
v 0.2 2 1.6
v 0.2 1.9 1.4
v 0.2 2 1.4
v 0.2 1.9 0.2
v 0.2 2 0.2
v 0.2 1.9 -0.2
v 0.2 2 -0.2
v 0.2 1.9 -1.4
v 0.2 2 -1.4
v 0.2 1.9 -1.6
v 0.2 2 -1.6
v 0.1 1.4 0.1
v 0.1 1.9 0.1
v 0.1 2 0.1
v 0.1 2.1 0.1
v 0.1 1.4 -0.1
v 0.1 1.9 -0.1
v 0.1 2 -0.1
v 0.1 2.1 -0.1
v -0.0999999 1.4 0.1
v -0.0999999 1.9 0.1
v -0.0999999 2 0.1
v -0.0999999 2.1 0.1
v -0.0999999 1.4 -0.1
v -0.0999999 1.9 -0.1
v -0.0999999 2 -0.1
v -0.0999999 2.1 -0.1
v -0.2 1.9 1.6
v -0.2 2 1.6
v -0.2 1.9 1.4
v -0.2 2 1.4
v -0.2 1.9 0.2
v -0.2 2 0.2
v -0.2 1.9 -0.2
v -0.2 2 -0.2
v -0.2 1.9 -1.4
v -0.2 2 -1.4
v -0.2 1.9 -1.6
v -0.2 2 -1.6
v -0.3 1.9 1.4
v -0.3 2 1.4
v -0.3 1.9 0.2
v -0.3 2 0.2
v -0.3 1.9 -0.2
v -0.3 2 -0.2
v -0.3 1.9 -1.4
v -0.3 2 -1.4
v -0.9 0.4 1.3
v -0.9 1.1 1.3
v -0.9 0.4 1.1
v -0.9 1.1 1.1
v -0.9 1.3 1.1
v -0.9 1.1 0
v -0.9 1.3 0
v -0.9 0.4 -1.1
v -0.9 1.1 -1.1
v -0.9 1.3 -1.1
v -0.9 0.4 -1.3
v -0.9 1.1 -1.3
v -1 0 1.4
v -1 0.4 1.4
v -1 0 1.2
v -1 0.4 1.2
v -1 0 -1.2
v -1 0.4 -1.2
v -1 0 -1.4
v -1 0.4 -1.4
v -1.1 0.4 1.1
v -1.1 1.1 1.1
v -1.1 0.4 0
v -1.1 1.1 0
v -1.1 0.4 -1.1
v -1.1 1.1 -1.1
v -1.2 0 1.2
v -1.2 0.4 1.2
v -1.2 0 0
v -1.2 0.4 0
v -1.2 0 -1.2
v -1.2 0.4 -1.2
v 1.2 0 1.2
v 1.2 0 0
v 1.2 0 -1.2
v 1 0 1.4
v 1 0 1.2
v 1 0 -1.2
v 1 0 -1.4
v 0 0 1.4
v 0 0 0
v 0 0 -1.4
v -1 0 1.4
v -1 0 1.2
v -1 0 -1.2
v -1 0 -1.4
v -1.2 0 1.2
v -1.2 0 0
v -1.2 0 -1.2
v 0.1 1.4 0.1
v 0.1 1.4 -0.1
v -0.0999999 1.4 0.1
v -0.0999999 1.4 -0.1
v 0.3 1.9 1.4
v 0.3 1.9 0.2
v 0.3 1.9 -0.2
v 0.3 1.9 -1.4
v 0.2 1.9 1.6
v 0.2 1.9 1.4
v 0.2 1.9 0.2
v 0.2 1.9 -0.2
v 0.2 1.9 -1.4
v 0.2 1.9 -1.6
v 0.1 1.9 0.1
v 0.1 1.9 -0.1
v -0.0999999 1.9 0.1
v -0.0999999 1.9 -0.1
v -0.2 1.9 1.6
v -0.2 1.9 1.4
v -0.2 1.9 0.2
v -0.2 1.9 -0.2
v -0.2 1.9 -1.4
v -0.2 1.9 -1.6
v -0.3 1.9 1.4
v -0.3 1.9 0.2
v -0.3 1.9 -0.2
v -0.3 1.9 -1.4
v 1.2 0.4 1.2
v 1.2 0.4 0
v 1.2 0.4 -1.2
v 1.1 0.4 1.1
v 1.1 0.4 0
v 1.1 0.4 -1.1
v 1 0.4 1.4
v 1 0.4 1.2
v 1 0.4 -1.2
v 1 0.4 -1.4
v 0.9 0.4 1.3
v 0.9 0.4 1.1
v 0.9 0.4 -1.1
v 0.9 0.4 -1.3
v 0 0.4 1.4
v 0 0.4 1.3
v 0 0.4 -1.3
v 0 0.4 -1.4
v -0.9 0.4 1.3
v -0.9 0.4 1.1
v -0.9 0.4 -1.1
v -0.9 0.4 -1.3
v -1 0.4 1.4
v -1 0.4 1.2
v -1 0.4 -1.2
v -1 0.4 -1.4
v -1.1 0.4 1.1
v -1.1 0.4 0
v -1.1 0.4 -1.1
v -1.2 0.4 1.2
v -1.2 0.4 0
v -1.2 0.4 -1.2
v 1.1 1.1 1.1
v 1.1 1.1 0
v 1.1 1.1 -1.1
v 0.9 1.1 1.3
v 0.9 1.1 1.1
v 0.9 1.1 0
v 0.9 1.1 -1.1
v 0.9 1.1 -1.3
v 0 1.1 1.3
v 0 1.1 1.1
v 0 1.1 -1.1
v 0 1.1 -1.3
v -0.9 1.1 1.3
v -0.9 1.1 1.1
v -0.9 1.1 0
v -0.9 1.1 -1.1
v -0.9 1.1 -1.3
v -1.1 1.1 1.1
v -1.1 1.1 0
v -1.1 1.1 -1.1
v 0.9 1.3 1.1
v 0.9 1.3 0
v 0.9 1.3 -1.1
v 0 1.3 1.1
v 0 1.3 0
v 0 1.3 -1.1
v -0.9 1.3 1.1
v -0.9 1.3 0
v -0.9 1.3 -1.1
v 0.3 2 1.4
v 0.3 2 0.2
v 0.3 2 -0.2
v 0.3 2 -1.4
v 0.2 2 1.6
v 0.2 2 1.4
v 0.2 2 0.2
v 0.2 2 -0.2
v 0.2 2 -1.4
v 0.2 2 -1.6
v 0.1 2 0.1
v 0.1 2 -0.1
v -0.0999999 2 0.1
v -0.0999999 2 -0.1
v -0.2 2 1.6
v -0.2 2 1.4
v -0.2 2 0.2
v -0.2 2 -0.2
v -0.2 2 -1.4
v -0.2 2 -1.6
v -0.3 2 1.4
v -0.3 2 0.2
v -0.3 2 -0.2
v -0.3 2 -1.4
v 0.1 2.1 0.1
v 0.1 2.1 -0.1
v -0.0999999 2.1 0.1
v -0.0999999 2.1 -0.1

# faces
f 3/4/1 2/4/1 1/4/1
f 4/4/1 2/4/1 3/4/1
f 8/2/1 6/2/1 5/2/1
f 9/3/1 7/3/1 6/3/1
f 9/2/1 6/2/1 8/2/1
f 10/3/1 7/3/1 9/3/1
f 15/4/1 12/4/1 11/4/1
f 16/4/1 12/4/1 15/4/1
f 17/4/1 14/4/1 13/4/1
f 18/4/1 14/4/1 17/4/1
f 22/2/1 20/2/1 19/2/1
f 23/3/1 21/3/1 20/3/1
f 23/2/1 20/2/1 22/2/1
f 24/3/1 21/3/1 23/3/1
f 29/2/1 26/2/1 25/2/1
f 30/2/1 26/2/1 29/2/1
f 31/3/1 28/3/1 27/3/1
f 32/3/1 28/3/1 31/3/1
f 37/2/1 34/2/1 33/2/1
f 38/2/1 34/2/1 37/2/1
f 40/3/1 36/3/1 35/3/1
f 41/3/1 36/3/1 40/3/1
f 42/2/1 39/2/1 38/2/1
f 43/3/1 40/3/1 39/3/1
f 43/2/1 39/2/1 42/2/1
f 44/3/1 40/3/1 43/3/1
f 47/1/1 46/1/1 45/1/1
f 48/1/1 46/1/1 47/1/1
f 51/1/1 50/1/1 49/1/1
f 52/1/1 50/1/1 51/1/1
f 57/4/1 54/4/1 53/4/1
f 58/4/1 54/4/1 57/4/1
f 59/4/1 56/4/1 55/4/1
f 60/4/1 56/4/1 59/4/1
f 61/4/2 62/4/2 65/4/2
f 65/4/2 62/4/2 66/4/2
f 63/4/2 64/4/2 67/4/2
f 67/4/2 64/4/2 68/4/2
f 69/1/2 70/1/2 71/1/2
f 71/1/2 70/1/2 72/1/2
f 73/1/2 74/1/2 75/1/2
f 75/1/2 74/1/2 76/1/2
f 77/3/2 78/3/2 81/3/2
f 81/3/2 78/3/2 82/3/2
f 79/2/2 80/2/2 84/2/2
f 84/2/2 80/2/2 85/2/2
f 82/3/2 83/3/2 86/3/2
f 83/2/2 84/2/2 87/2/2
f 86/3/2 83/3/2 87/3/2
f 87/2/2 84/2/2 88/2/2
f 89/3/2 90/3/2 93/3/2
f 93/3/2 90/3/2 94/3/2
f 91/2/2 92/2/2 95/2/2
f 95/2/2 92/2/2 96/2/2
f 97/3/2 98/3/2 100/3/2
f 98/2/2 99/2/2 101/2/2
f 100/3/2 98/3/2 101/3/2
f 101/2/2 99/2/2 102/2/2
f 103/3/2 104/3/2 106/3/2
f 104/2/2 105/2/2 107/2/2
f 106/3/2 104/3/2 107/3/2
f 107/2/2 105/2/2 108/2/2
f 109/4/2 110/4/2 113/4/2
f 113/4/2 110/4/2 114/4/2
f 111/4/2 112/4/2 115/4/2
f 115/4/2 112/4/2 116/4/2
f 117/4/2 118/4/2 119/4/2
f 119/4/2 118/4/2 120/4/2
f 123/2/3 122/2/3 121/2/3
f 124/2/3 122/2/3 123/2/3
f 125/3/3 124/3/3 123/3/3
f 126/3/3 124/3/3 125/3/3
f 129/2/3 128/2/3 127/2/3
f 130/2/3 128/2/3 129/2/3
f 131/3/3 130/3/3 129/3/3
f 132/3/3 130/3/3 131/3/3
f 135/2/3 134/2/3 133/2/3
f 136/2/3 134/2/3 135/2/3
f 139/3/3 138/3/3 137/3/3
f 140/3/3 138/3/3 139/3/3
f 143/2/3 142/2/3 141/2/3
f 144/2/3 142/2/3 143/2/3
f 146/2/3 145/2/3 144/2/3
f 147/2/3 145/2/3 146/2/3
f 149/3/3 147/3/3 146/3/3
f 150/3/3 147/3/3 149/3/3
f 151/3/3 149/3/3 148/3/3
f 152/3/3 149/3/3 151/3/3
f 155/4/3 154/4/3 153/4/3
f 156/4/3 154/4/3 155/4/3
f 159/4/3 158/4/3 157/4/3
f 160/4/3 158/4/3 159/4/3
f 163/4/3 162/4/3 161/4/3
f 164/4/3 162/4/3 163/4/3
f 167/4/3 166/4/3 165/4/3
f 168/4/3 166/4/3 167/4/3
f 171/4/3 170/4/3 169/4/3
f 172/4/3 170/4/3 171/4/3
f 177/1/3 174/1/3 173/1/3
f 178/1/3 174/1/3 177/1/3
f 179/1/3 176/1/3 175/1/3
f 180/1/3 176/1/3 179/1/3
f 181/1/4 182/1/4 185/1/4
f 185/1/4 182/1/4 186/1/4
f 183/1/4 184/1/4 187/1/4
f 187/1/4 184/1/4 188/1/4
f 189/4/4 190/4/4 191/4/4
f 191/4/4 190/4/4 192/4/4
f 193/4/4 194/4/4 195/4/4
f 195/4/4 194/4/4 196/4/4
f 197/4/4 198/4/4 199/4/4
f 199/4/4 198/4/4 200/4/4
f 201/4/4 202/4/4 203/4/4
f 203/4/4 202/4/4 204/4/4
f 205/4/4 206/4/4 207/4/4
f 207/4/4 206/4/4 208/4/4
f 209/3/4 210/3/4 211/3/4
f 211/3/4 210/3/4 212/3/4
f 212/3/4 213/3/4 214/3/4
f 214/3/4 213/3/4 215/3/4
f 214/2/4 215/2/4 217/2/4
f 217/2/4 215/2/4 218/2/4
f 216/2/4 217/2/4 219/2/4
f 219/2/4 217/2/4 220/2/4
f 221/3/4 222/3/4 223/3/4
f 223/3/4 222/3/4 224/3/4
f 225/2/4 226/2/4 227/2/4
f 227/2/4 226/2/4 228/2/4
f 229/3/4 230/3/4 231/3/4
f 231/3/4 230/3/4 232/3/4
f 231/2/4 232/2/4 233/2/4
f 233/2/4 232/2/4 234/2/4
f 235/3/4 236/3/4 237/3/4
f 237/3/4 236/3/4 238/3/4
f 237/2/4 238/2/4 239/2/4
f 239/2/4 238/2/4 240/2/4
f 245/2/5 242/2/5 241/2/5
f 246/3/5 243/3/5 242/3/5
f 248/2/5 245/2/5 244/2/5
f 249/3/5 247/3/5 246/3/5
f 249/2/5 245/2/5 248/2/5
f 249/2/5 242/2/5 245/2/5
f 249/3/5 246/3/5 242/3/5
f 250/3/5 247/3/5 249/3/5
f 251/3/5 249/3/5 248/3/5
f 252/3/5 249/3/5 251/3/5
f 253/2/5 250/2/5 249/2/5
f 254/2/5 250/2/5 253/2/5
f 255/3/5 249/3/5 252/3/5
f 256/2/5 253/2/5 249/2/5
f 256/3/5 249/3/5 255/3/5
f 257/2/5 253/2/5 256/2/5
f 260/1/5 259/1/5 258/1/5
f 261/1/5 259/1/5 260/1/5
f 267/4/5 263/4/5 262/4/5
f 268/4/5 263/4/5 267/4/5
f 269/4/5 265/4/5 264/4/5
f 270/4/5 265/4/5 269/4/5
f 272/4/5 268/4/5 267/4/5
f 272/4/5 271/4/5 270/4/5
f 272/4/5 270/4/5 269/4/5
f 272/4/5 269/4/5 268/4/5
f 272/4/5 267/4/5 266/4/5
f 273/4/5 271/4/5 272/4/5
f 274/4/5 272/4/5 266/4/5
f 275/4/5 271/4/5 273/4/5
f 276/4/5 274/4/5 266/4/5
f 276/4/5 275/4/5 274/4/5
f 277/4/5 275/4/5 276/4/5
f 278/4/5 275/4/5 277/4/5
f 279/4/5 271/4/5 275/4/5
f 279/4/5 275/4/5 278/4/5
f 280/4/5 271/4/5 279/4/5
f 281/4/5 271/4/5 280/4/5
f 282/4/5 278/4/5 277/4/5
f 283/4/5 278/4/5 282/4/5
f 284/4/5 280/4/5 279/4/5
f 285/4/5 280/4/5 284/4/5
f 286/2/6 287/2/6 289/2/6
f 287/3/6 288/3/6 290/3/6
f 289/2/6 287/2/6 290/2/6
f 290/3/6 288/3/6 291/3/6
f 286/2/6 289/2/6 293/2/6
f 291/3/6 288/3/6 294/3/6
f 292/2/6 293/2/6 296/2/6
f 293/2/6 289/2/6 297/2/6
f 296/2/6 293/2/6 297/2/6
f 294/3/6 295/3/6 298/3/6
f 291/3/6 294/3/6 298/3/6
f 298/3/6 295/3/6 299/3/6
f 292/2/6 296/2/6 300/2/6
f 300/2/6 296/2/6 301/2/6
f 299/3/6 295/3/6 302/3/6
f 302/3/6 295/3/6 303/3/6
f 300/3/6 301/3/6 304/3/6
f 302/2/6 303/2/6 307/2/6
f 304/3/6 305/3/6 308/3/6
f 300/3/6 304/3/6 308/3/6
f 308/3/6 305/3/6 309/3/6
f 306/2/6 307/2/6 310/2/6
f 307/2/6 303/2/6 311/2/6
f 310/2/6 307/2/6 311/2/6
f 309/3/6 305/3/6 312/3/6
f 306/2/6 310/2/6 314/2/6
f 312/3/6 313/3/6 315/3/6
f 309/3/6 312/3/6 315/3/6
f 313/2/6 314/2/6 316/2/6
f 315/3/6 313/3/6 316/3/6
f 314/2/6 310/2/6 317/2/6
f 316/2/6 314/2/6 317/2/6
f 318/2/6 319/2/6 322/2/6
f 319/3/6 320/3/6 323/3/6
f 322/2/6 319/2/6 323/2/6
f 323/3/6 320/3/6 324/3/6
f 321/2/6 322/2/6 326/2/6
f 326/2/6 322/2/6 327/2/6
f 324/3/6 325/3/6 328/3/6
f 328/3/6 325/3/6 329/3/6
f 326/3/6 327/3/6 330/3/6
f 330/3/6 327/3/6 331/3/6
f 328/2/6 329/2/6 333/2/6
f 333/2/6 329/2/6 334/2/6
f 331/3/6 332/3/6 335/3/6
f 332/2/6 333/2/6 336/2/6
f 335/3/6 332/3/6 336/3/6
f 336/2/6 333/2/6 337/2/6
f 338/2/6 339/2/6 341/2/6
f 339/3/6 340/3/6 342/3/6
f 341/2/6 339/2/6 342/2/6
f 342/3/6 340/3/6 343/3/6
f 341/3/6 342/3/6 344/3/6
f 342/2/6 343/2/6 345/2/6
f 344/3/6 342/3/6 345/3/6
f 345/2/6 343/2/6 346/2/6
f 347/4/6 348/4/6 352/4/6
f 352/4/6 348/4/6 353/4/6
f 349/4/6 350/4/6 354/4/6
f 354/4/6 350/4/6 355/4/6
f 352/4/6 353/4/6 357/4/6
f 355/4/6 356/4/6 357/4/6
f 354/4/6 355/4/6 357/4/6
f 353/4/6 354/4/6 357/4/6
f 351/4/6 352/4/6 357/4/6
f 357/4/6 356/4/6 358/4/6
f 351/4/6 357/4/6 359/4/6
f 358/4/6 356/4/6 360/4/6
f 351/4/6 359/4/6 361/4/6
f 359/4/6 360/4/6 361/4/6
f 361/4/6 360/4/6 362/4/6
f 362/4/6 360/4/6 363/4/6
f 360/4/6 356/4/6 364/4/6
f 363/4/6 360/4/6 364/4/6
f 364/4/6 356/4/6 365/4/6
f 365/4/6 356/4/6 366/4/6
f 362/4/6 363/4/6 367/4/6
f 367/4/6 363/4/6 368/4/6
f 364/4/6 365/4/6 369/4/6
f 369/4/6 365/4/6 370/4/6
f 371/1/6 372/1/6 373/1/6
f 373/1/6 372/1/6 374/1/6
