# MagicaVoxel @ Ephtracy

# group
o 

# material
mtllib model-1.mtl
usemtl palette

# normals
vn 0 0 1
vn 0 0 -1
vn 1 0 0
vn -1 0 0
vn 0 -1 0
vn 0 1 0

# texcoords
vt 0.173828 0.5
vt 0.236328 0.5
vt 0.255859 0.5
vt 0.826172 0.5

# verts
v 0.9 5.7 2.1
v -0.9 5.7 2.1
v 0.9 6.5 2.1
v -0.9 6.5 2.1
v 0.9 6.6 2.1
v -0.9 6.6 2.1
v 1.1 5.7 1.9
v 0.9 5.7 1.9
v -0.9 5.7 1.9
v -1.1 5.7 1.9
v 1.1 6.3 1.9
v 0.9 6.3 1.9
v -0.9 6.3 1.9
v -1.1 6.3 1.9
v 1.1 6.4 1.9
v 0.9 6.4 1.9
v -0.9 6.4 1.9
v -1.1 6.4 1.9
v 1.3 5.7 1.4
v 1.1 5.7 1.4
v -1.1 5.7 1.4
v -1.3 5.7 1.4
v 1.3 6 1.4
v 1.1 6 1.4
v -1.1 6 1.4
v -1.3 6 1.4
v 1.3 6.1 1.4
v 1.1 6.1 1.4
v -1.1 6.1 1.4
v -1.3 6.1 1.4
v 0.8 6.1 1.2
v -0.8 6.1 1.2
v 0.8 6.5 1.2
v -0.8 6.5 1.2
v 0.8 7.4 1.2
v -0.8 7.4 1.2
v 1 6.1 1
v 0.8 6.1 1
v -0.8 6.1 1
v -1 6.1 1
v 1 6.5 1
v 0.8 6.5 1
v -0.8 6.5 1
v -1 6.5 1
v 1 7.4 1
v 0.8 7.4 1
v -0.8 7.4 1
v -1 7.4 1
v 1.19209e-07 7.4 -1.2
v -0.2 7.4 -1.2
v 1.19209e-07 7.6 -1.2
v -0.2 7.6 -1.2
v 0.4 7.3 -1.4
v 0.2 7.3 -1.4
v 0.4 7.6 -1.4
v 0.2 7.6 -1.4
v 1.19209e-07 7.6 -1.4
v -0.2 7.6 -1.4
v 1.19209e-07 7.9 -1.4
v -0.2 7.9 -1.4
v 0.4 7.6 -1.6
v 0.2 7.6 -1.6
v 0.4 7.8 -1.6
v 0.2 7.8 -1.6
v 1.19209e-07 7.9 -1.6
v -0.2 7.9 -1.6
v 1.19209e-07 8.1 -1.6
v -0.2 8.1 -1.6
v 0.8 6.1 2
v -0.8 6.1 2
v 0.8 6.5 2
v -0.8 6.5 2
v 0.8 6.6 2
v -0.8 6.6 2
v 1 6.1 1.8
v 0.8 6.1 1.8
v -0.8 6.1 1.8
v -1 6.1 1.8
v 1 6.3 1.8
v 0.8 6.3 1.8
v -0.8 6.3 1.8
v -1 6.3 1.8
v 1 6.4 1.8
v 0.9 6.4 1.8
v -0.9 6.4 1.8
v -1 6.4 1.8
v 0.9 6.6 1.8
v 0.8 6.6 1.8
v -0.8 6.6 1.8
v -0.9 6.6 1.8
v 1.1 6.1 1.4
v 1 6.1 1.4
v -1 6.1 1.4
v -1.1 6.1 1.4
v 1.1 6.4 1.4
v 1 6.4 1.4
v -1 6.4 1.4
v -1.1 6.4 1.4
v 1 6.1 -1
v 0.8 6.1 -1
v -0.8 6.1 -1
v -1 6.1 -1
v 1 6.5 -1
v 0.8 6.5 -1
v -0.8 6.5 -1
v -1 6.5 -1
v 1 7.4 -1
v 0.8 7.4 -1
v -0.8 7.4 -1
v -1 7.4 -1
v 0.8 6.1 -1.2
v 0.4 6.1 -1.2
v 0.2 6.1 -1.2
v 1.19209e-07 6.1 -1.2
v -0.2 6.1 -1.2
v -0.8 6.1 -1.2
v 0.8 6.5 -1.2
v 0.4 6.5 -1.2
v 0.2 6.5 -1.2
v 1.19209e-07 6.5 -1.2
v -0.2 6.5 -1.2
v -0.8 6.5 -1.2
v 0.4 7.3 -1.2
v 0.2 7.3 -1.2
v 0.8 7.4 -1.2
v 1.19209e-07 7.4 -1.2
v -0.2 7.4 -1.2
v -0.8 7.4 -1.2
v 1.3 5.7 -1.4
v 1.1 5.7 -1.4
v -1.1 5.7 -1.4
v -1.3 5.7 -1.4
v 1.3 6 -1.4
v 1.1 6 -1.4
v -1.1 6 -1.4
v -1.3 6 -1.4
v 1.3 6.1 -1.4
v 1.1 6.1 -1.4
v 0.4 6.1 -1.4
v 0.2 6.1 -1.4
v 1.19209e-07 6.1 -1.4
v -0.2 6.1 -1.4
v -1.1 6.1 -1.4
v -1.3 6.1 -1.4
v 0.4 6.3 -1.4
v 0.2 6.3 -1.4
v 0.4 6.6 -1.4
v 0.2 6.6 -1.4
v 1.19209e-07 6.6 -1.4
v -0.2 6.6 -1.4
v 0.4 6.7 -1.4
v 0.2 6.7 -1.4
v 1.19209e-07 6.9 -1.4
v -0.2 6.9 -1.4
v 1.19209e-07 7 -1.4
v -0.2 7 -1.4
v 0.4 6.9 -1.5
v 0.2 6.9 -1.5
v 0.4 7 -1.5
v 0.2 7 -1.5
v 1.19209e-07 7.2 -1.5
v -0.2 7.2 -1.5
v 1.19209e-07 7.3 -1.5
v -0.2 7.3 -1.5
v 0.4 6.3 -1.6
v 0.2 6.3 -1.6
v 0.4 6.6 -1.6
v 0.2 6.6 -1.6
v 1.19209e-07 6.6 -1.6
v -0.2 6.6 -1.6
v 1.19209e-07 6.9 -1.6
v -0.2 6.9 -1.6
v 0.4 7.2 -1.7
v 0.2 7.2 -1.7
v 0.4 7.3 -1.7
v 0.2 7.3 -1.7
v 1.19209e-07 7.5 -1.7
v -0.2 7.5 -1.7
v 1.19209e-07 7.6 -1.7
v -0.2 7.6 -1.7
v 0.4 6.7 -1.8
v 0.2 6.7 -1.8
v 0.4 6.9 -1.8
v 0.2 6.9 -1.8
v 1.19209e-07 7 -1.8
v -0.2 7 -1.8
v 1.19209e-07 7.2 -1.8
v -0.2 7.2 -1.8
v 0.4 7.5 -1.8
v 0.2 7.5 -1.8
v 0.4 7.6 -1.8
v 0.2 7.6 -1.8
v 1.19209e-07 7.8 -1.8
v -0.2 7.8 -1.8
v 1.19209e-07 7.9 -1.8
v -0.2 7.9 -1.8
v 1.1 5.7 -1.9
v 0.9 5.7 -1.9
v -0.9 5.7 -1.9
v -1.1 5.7 -1.9
v 1.1 6 -1.9
v 0.9 6 -1.9
v -0.9 6 -1.9
v -1.1 6 -1.9
v 1.1 6.1 -1.9
v 0.9 6.1 -1.9
v -0.9 6.1 -1.9
v -1.1 6.1 -1.9
v 0.4 7 -1.9
v 0.2 7 -1.9
v 0.4 7.2 -1.9
v 0.2 7.2 -1.9
v 1.19209e-07 7.3 -1.9
v -0.2 7.3 -1.9
v 1.19209e-07 7.5 -1.9
v -0.2 7.5 -1.9
v 0.4 7.3 -2
v 0.2 7.3 -2
v 0.4 7.5 -2
v 0.2 7.5 -2
v 1.19209e-07 7.6 -2
v -0.2 7.6 -2
v 1.19209e-07 7.8 -2
v -0.2 7.8 -2
v 0.9 5.7 -2.1
v -0.9 5.7 -2.1
v 0.9 6 -2.1
v -0.9 6 -2.1
v 0.9 6.1 -2.1
v -0.9 6.1 -2.1
v 0.4 7.6 -2.1
v 0.2 7.6 -2.1
v 0.4 7.8 -2.1
v 0.2 7.8 -2.1
v 1.19209e-07 7.9 -2.1
v -0.2 7.9 -2.1
v 1.19209e-07 8.1 -2.1
v -0.2 8.1 -2.1
v 1.3 5.7 1.4
v 1.3 6 1.4
v 1.3 6.1 1.4
v 1.3 5.7 -1.4
v 1.3 6 -1.4
v 1.3 6.1 -1.4
v 1.1 5.7 1.9
v 1.1 6.3 1.9
v 1.1 6.4 1.9
v 1.1 6 1.5
v 1.1 6.3 1.5
v 1.1 5.7 1.4
v 1.1 6 1.4
v 1.1 6.1 1.4
v 1.1 6.4 1.4
v 1.1 5.7 -1.4
v 1.1 6 -1.4
v 1.1 6.1 -1.4
v 1.1 5.7 -1.9
v 1.1 6 -1.9
v 1.1 6.1 -1.9
v 1 6.1 1
v 1 6.5 1
v 1 7.4 1
v 1 6.1 -1
v 1 6.5 -1
v 1 7.4 -1
v 0.9 5.7 2.1
v 0.9 6.5 2.1
v 0.9 6.6 2.1
v 0.9 5.7 1.9
v 0.9 6.3 1.9
v 0.9 6.4 1.9
v 0.9 6.5 1.9
v 0.9 6.4 1.8
v 0.9 6.6 1.8
v 0.9 5.7 -1.9
v 0.9 6 -1.9
v 0.9 6.1 -1.9
v 0.9 5.7 -2.1
v 0.9 6 -2.1
v 0.9 6.1 -2.1
v 0.8 6.1 1.2
v 0.8 6.5 1.2
v 0.8 7.4 1.2
v 0.8 6.1 1
v 0.8 6.5 1
v 0.8 7.4 1
v 0.8 6.1 -1
v 0.8 6.5 -1
v 0.8 7.4 -1
v 0.8 6.1 -1.2
v 0.8 6.5 -1.2
v 0.8 7.4 -1.2
v 0.4 6.1 -1.2
v 0.4 6.5 -1.2
v 0.4 7.3 -1.2
v 0.4 6.1 -1.4
v 0.4 6.3 -1.4
v 0.4 6.6 -1.4
v 0.4 6.7 -1.4
v 0.4 7.3 -1.4
v 0.4 7.6 -1.4
v 0.4 6.9 -1.5
v 0.4 7 -1.5
v 0.4 6.3 -1.6
v 0.4 6.6 -1.6
v 0.4 7.6 -1.6
v 0.4 7.8 -1.6
v 0.4 7.2 -1.7
v 0.4 7.3 -1.7
v 0.4 6.7 -1.8
v 0.4 6.9 -1.8
v 0.4 7.5 -1.8
v 0.4 7.6 -1.8
v 0.4 7 -1.9
v 0.4 7.2 -1.9
v 0.4 7.3 -2
v 0.4 7.5 -2
v 0.4 7.6 -2.1
v 0.4 7.8 -2.1
v 1.19209e-07 6.1 -1.2
v 1.19209e-07 6.5 -1.2
v 1.19209e-07 7.4 -1.2
v 1.19209e-07 7.6 -1.2
v 1.19209e-07 6.1 -1.4
v 1.19209e-07 6.6 -1.4
v 1.19209e-07 6.9 -1.4
v 1.19209e-07 7 -1.4
v 1.19209e-07 7.6 -1.4
v 1.19209e-07 7.9 -1.4
v 1.19209e-07 7.2 -1.5
v 1.19209e-07 7.3 -1.5
v 1.19209e-07 6.6 -1.6
v 1.19209e-07 6.9 -1.6
v 1.19209e-07 7.9 -1.6
v 1.19209e-07 8.1 -1.6
v 1.19209e-07 7.5 -1.7
v 1.19209e-07 7.6 -1.7
v 1.19209e-07 7 -1.8
v 1.19209e-07 7.2 -1.8
v 1.19209e-07 7.8 -1.8
v 1.19209e-07 7.9 -1.8
v 1.19209e-07 7.3 -1.9
v 1.19209e-07 7.5 -1.9
v 1.19209e-07 7.6 -2
v 1.19209e-07 7.8 -2
v 1.19209e-07 7.9 -2.1
v 1.19209e-07 8.1 -2.1
v -0.8 6.1 2
v -0.8 6.5 2
v -0.8 6.6 2
v -0.8 6.3 1.9
v -0.8 6.5 1.9
v -0.8 6.1 1.8
v -0.8 6.3 1.8
v -0.8 6.6 1.8
v -1 6.1 1.8
v -1 6.3 1.8
v -1 6.4 1.8
v -1 6.1 1.5
v -1 6.3 1.5
v -1 6.1 1.4
v -1 6.4 1.4
v 1 6.1 1.8
v 1 6.3 1.8
v 1 6.4 1.8
v 1 6.1 1.5
v 1 6.3 1.5
v 1 6.1 1.4
v 1 6.4 1.4
v 0.8 6.1 2
v 0.8 6.5 2
v 0.8 6.6 2
v 0.8 6.3 1.9
v 0.8 6.5 1.9
v 0.8 6.1 1.8
v 0.8 6.3 1.8
v 0.8 6.6 1.8
v 0.2 6.1 -1.2
v 0.2 6.5 -1.2
v 0.2 7.3 -1.2
v 0.2 6.1 -1.4
v 0.2 6.3 -1.4
v 0.2 6.6 -1.4
v 0.2 6.7 -1.4
v 0.2 7.3 -1.4
v 0.2 7.6 -1.4
v 0.2 6.9 -1.5
v 0.2 7 -1.5
v 0.2 6.3 -1.6
v 0.2 6.6 -1.6
v 0.2 7.6 -1.6
v 0.2 7.8 -1.6
v 0.2 7.2 -1.7
v 0.2 7.3 -1.7
v 0.2 6.7 -1.8
v 0.2 6.9 -1.8
v 0.2 7.5 -1.8
v 0.2 7.6 -1.8
v 0.2 7 -1.9
v 0.2 7.2 -1.9
v 0.2 7.3 -2
v 0.2 7.5 -2
v 0.2 7.6 -2.1
v 0.2 7.8 -2.1
v -0.2 6.1 -1.2
v -0.2 6.5 -1.2
v -0.2 7.4 -1.2
v -0.2 7.6 -1.2
v -0.2 6.1 -1.4
v -0.2 6.6 -1.4
v -0.2 6.9 -1.4
v -0.2 7 -1.4
v -0.2 7.6 -1.4
v -0.2 7.9 -1.4
v -0.2 7.2 -1.5
v -0.2 7.3 -1.5
v -0.2 6.6 -1.6
v -0.2 6.9 -1.6
v -0.2 7.9 -1.6
v -0.2 8.1 -1.6
v -0.2 7.5 -1.7
v -0.2 7.6 -1.7
v -0.2 7 -1.8
v -0.2 7.2 -1.8
v -0.2 7.8 -1.8
v -0.2 7.9 -1.8
v -0.2 7.3 -1.9
v -0.2 7.5 -1.9
v -0.2 7.6 -2
v -0.2 7.8 -2
v -0.2 7.9 -2.1
v -0.2 8.1 -2.1
v -0.8 6.1 1.2
v -0.8 6.5 1.2
v -0.8 7.4 1.2
v -0.8 6.1 1
v -0.8 6.5 1
v -0.8 7.4 1
v -0.8 6.1 -1
v -0.8 6.5 -1
v -0.8 7.4 -1
v -0.8 6.1 -1.2
v -0.8 6.5 -1.2
v -0.8 7.4 -1.2
v -0.9 5.7 2.1
v -0.9 6.5 2.1
v -0.9 6.6 2.1
v -0.9 5.7 1.9
v -0.9 6.3 1.9
v -0.9 6.4 1.9
v -0.9 6.5 1.9
v -0.9 6.4 1.8
v -0.9 6.6 1.8
v -0.9 5.7 -1.9
v -0.9 6 -1.9
v -0.9 6.1 -1.9
v -0.9 5.7 -2.1
v -0.9 6 -2.1
v -0.9 6.1 -2.1
v -1 6.1 1
v -1 6.5 1
v -1 7.4 1
v -1 6.1 -1
v -1 6.5 -1
v -1 7.4 -1
v -1.1 5.7 1.9
v -1.1 6.3 1.9
v -1.1 6.4 1.9
v -1.1 6 1.5
v -1.1 6.3 1.5
v -1.1 5.7 1.4
v -1.1 6 1.4
v -1.1 6.1 1.4
v -1.1 6.4 1.4
v -1.1 5.7 -1.4
v -1.1 6 -1.4
v -1.1 6.1 -1.4
v -1.1 5.7 -1.9
v -1.1 6 -1.9
v -1.1 6.1 -1.9
v -1.3 5.7 1.4
v -1.3 6 1.4
v -1.3 6.1 1.4
v -1.3 5.7 -1.4
v -1.3 6 -1.4
v -1.3 6.1 -1.4
v 1.3 5.7 1.4
v 1.3 5.7 -1.4
v 1.1 5.7 1.9
v 1.1 5.7 1.4
v 1.1 5.7 -1.4
v 1.1 5.7 -1.9
v 0.9 5.7 2.1
v 0.9 5.7 1.9
v 0.9 5.7 -1.9
v 0.9 5.7 -2.1
v -0.9 5.7 2.1
v -0.9 5.7 1.9
v -0.9 5.7 -1.9
v -0.9 5.7 -2.1
v -1.1 5.7 1.9
v -1.1 5.7 1.4
v -1.1 5.7 -1.4
v -1.1 5.7 -1.9
v -1.3 5.7 1.4
v -1.3 5.7 -1.4
v 0.4 6.3 -1.4
v 0.4 6.3 -1.6
v 0.2 6.3 -1.4
v 0.2 6.3 -1.6
v 1.19209e-07 6.6 -1.4
v 1.19209e-07 6.6 -1.6
v -0.2 6.6 -1.4
v -0.2 6.6 -1.6
v 0.4 6.7 -1.4
v 0.4 6.7 -1.8
v 0.2 6.7 -1.4
v 0.2 6.7 -1.8
v 0.4 7 -1.5
v 0.4 7 -1.9
v 0.2 7 -1.5
v 0.2 7 -1.9
v 1.19209e-07 7 -1.4
v 1.19209e-07 7 -1.8
v -0.2 7 -1.4
v -0.2 7 -1.8
v 0.4 7.3 -1.7
v 0.4 7.3 -2
v 0.2 7.3 -1.7
v 0.2 7.3 -2
v 1.19209e-07 7.3 -1.5
v 1.19209e-07 7.3 -1.9
v -0.2 7.3 -1.5
v -0.2 7.3 -1.9
v 0.4 7.6 -1.8
v 0.4 7.6 -2.1
v 0.2 7.6 -1.8
v 0.2 7.6 -2.1
v 1.19209e-07 7.6 -1.7
v 1.19209e-07 7.6 -2
v -0.2 7.6 -1.7
v -0.2 7.6 -2
v 1.19209e-07 7.9 -1.8
v 1.19209e-07 7.9 -2.1
v -0.2 7.9 -1.8
v -0.2 7.9 -2.1
v 1.3 6.1 1.4
v 1.3 6.1 -1.4
v 1.2 6.1 1.3
v 1.2 6.1 -1.3
v 1.1 6.1 1.4
v 1.1 6.1 -1.4
v 1.1 6.1 -1.9
v 1 6.1 1.8
v 1 6.1 1.5
v 1 6.1 1.4
v 1 6.1 1.3
v 1 6.1 1
v 1 6.1 -1
v 1 6.1 -1.3
v 1 6.1 -1.8
v 0.9 6.1 -1.9
v 0.9 6.1 -2.1
v 0.8 6.1 2
v 0.8 6.1 1.8
v 0.8 6.1 1.2
v 0.8 6.1 1
v 0.8 6.1 -1
v 0.8 6.1 -1.2
v 0.8 6.1 -1.8
v 0.8 6.1 -2
v 0.4 6.1 -1.2
v 0.4 6.1 -1.4
v 0.2 6.1 -1.2
v 0.2 6.1 -1.4
v 1.19209e-07 6.1 -1.2
v 1.19209e-07 6.1 -1.4
v -0.2 6.1 -1.2
v -0.2 6.1 -1.4
v -0.8 6.1 2
v -0.8 6.1 1.8
v -0.8 6.1 1.2
v -0.8 6.1 1
v -0.8 6.1 -1
v -0.8 6.1 -1.2
v -0.8 6.1 -1.8
v -0.8 6.1 -2
v -0.9 6.1 -1.9
v -0.9 6.1 -2.1
v -1 6.1 1.8
v -1 6.1 1.5
v -1 6.1 1.4
v -1 6.1 1.3
v -1 6.1 1
v -1 6.1 -1
v -1 6.1 -1.3
v -1 6.1 -1.8
v -1.1 6.1 1.4
v -1.1 6.1 -1.4
v -1.1 6.1 -1.9
v -1.2 6.1 1.3
v -1.2 6.1 -1.3
v -1.3 6.1 1.4
v -1.3 6.1 -1.4
v 1.1 6.4 1.9
v 1.1 6.4 1.4
v 1 6.4 1.8
v 1 6.4 1.4
v 0.9 6.4 1.9
v 0.9 6.4 1.8
v -0.9 6.4 1.9
v -0.9 6.4 1.8
v -1 6.4 1.8
v -1 6.4 1.4
v -1.1 6.4 1.9
v -1.1 6.4 1.4
v 0.9 6.6 2.1
v 0.9 6.6 1.8
v 0.8 6.6 2
v 0.8 6.6 1.8
v 0.4 6.6 -1.4
v 0.4 6.6 -1.6
v 0.2 6.6 -1.4
v 0.2 6.6 -1.6
v -0.8 6.6 2
v -0.8 6.6 1.8
v -0.9 6.6 2.1
v -0.9 6.6 1.8
v 0.4 6.9 -1.5
v 0.4 6.9 -1.8
v 0.2 6.9 -1.5
v 0.2 6.9 -1.8
v 1.19209e-07 6.9 -1.4
v 1.19209e-07 6.9 -1.6
v -0.2 6.9 -1.4
v -0.2 6.9 -1.6
v 0.4 7.2 -1.7
v 0.4 7.2 -1.9
v 0.2 7.2 -1.7
v 0.2 7.2 -1.9
v 1.19209e-07 7.2 -1.5
v 1.19209e-07 7.2 -1.8
v -0.2 7.2 -1.5
v -0.2 7.2 -1.8
v 0.4 7.3 -1.2
v 0.4 7.3 -1.4
v 0.2 7.3 -1.2
v 0.2 7.3 -1.4
v 1 7.4 1
v 1 7.4 -1
v 0.8 7.4 1.2
v 0.8 7.4 1
v 0.8 7.4 -1
v 0.8 7.4 -1.2
v 1.19209e-07 7.4 -1.2
v -0.2 7.4 -1.2
v -0.8 7.4 1.2
v -0.8 7.4 1
v -0.8 7.4 -1
v -0.8 7.4 -1.2
v -1 7.4 1
v -1 7.4 -1
v 0.4 7.5 -1.8
v 0.4 7.5 -2
v 0.2 7.5 -1.8
v 0.2 7.5 -2
v 1.19209e-07 7.5 -1.7
v 1.19209e-07 7.5 -1.9
v -0.2 7.5 -1.7
v -0.2 7.5 -1.9
v 0.4 7.6 -1.4
v 0.4 7.6 -1.6
v 0.2 7.6 -1.4
v 0.2 7.6 -1.6
v 1.19209e-07 7.6 -1.2
v 1.19209e-07 7.6 -1.4
v -0.2 7.6 -1.2
v -0.2 7.6 -1.4
v 0.4 7.8 -1.6
v 0.4 7.8 -2.1
v 0.2 7.8 -1.6
v 0.2 7.8 -2.1
v 1.19209e-07 7.8 -1.8
v 1.19209e-07 7.8 -2
v -0.2 7.8 -1.8
v -0.2 7.8 -2
v 1.19209e-07 7.9 -1.4
v 1.19209e-07 7.9 -1.6
v -0.2 7.9 -1.4
v -0.2 7.9 -1.6
v 1.19209e-07 8.1 -1.6
v 1.19209e-07 8.1 -2.1
v -0.2 8.1 -1.6
v -0.2 8.1 -2.1

# faces
f 3/4/1 2/4/1 1/4/1
f 4/4/1 2/4/1 3/4/1
f 5/2/1 4/2/1 3/2/1
f 6/2/1 4/2/1 5/2/1
f 11/4/1 8/4/1 7/4/1
f 12/4/1 8/4/1 11/4/1
f 13/4/1 10/4/1 9/4/1
f 14/4/1 10/4/1 13/4/1
f 15/2/1 12/2/1 11/2/1
f 16/2/1 12/2/1 15/2/1
f 17/2/1 14/2/1 13/2/1
f 18/2/1 14/2/1 17/2/1
f 23/4/1 20/4/1 19/4/1
f 24/4/1 20/4/1 23/4/1
f 25/4/1 22/4/1 21/4/1
f 26/4/1 22/4/1 25/4/1
f 27/2/1 24/2/1 23/2/1
f 28/2/1 24/2/1 27/2/1
f 29/2/1 26/2/1 25/2/1
f 30/2/1 26/2/1 29/2/1
f 33/3/1 32/3/1 31/3/1
f 34/3/1 32/3/1 33/3/1
f 35/4/1 34/4/1 33/4/1
f 36/4/1 34/4/1 35/4/1
f 41/3/1 38/3/1 37/3/1
f 42/3/1 38/3/1 41/3/1
f 43/3/1 40/3/1 39/3/1
f 44/3/1 40/3/1 43/3/1
f 45/4/1 42/4/1 41/4/1
f 46/4/1 42/4/1 45/4/1
f 47/4/1 44/4/1 43/4/1
f 48/4/1 44/4/1 47/4/1
f 51/2/1 50/2/1 49/2/1
f 52/2/1 50/2/1 51/2/1
f 55/1/1 54/1/1 53/1/1
f 56/1/1 54/1/1 55/1/1
f 59/2/1 58/2/1 57/2/1
f 60/2/1 58/2/1 59/2/1
f 63/1/1 62/1/1 61/1/1
f 64/1/1 62/1/1 63/1/1
f 67/2/1 66/2/1 65/2/1
f 68/2/1 66/2/1 67/2/1
f 69/4/2 70/4/2 71/4/2
f 71/4/2 70/4/2 72/4/2
f 71/2/2 72/2/2 73/2/2
f 73/2/2 72/2/2 74/2/2
f 75/4/2 76/4/2 79/4/2
f 79/4/2 76/4/2 80/4/2
f 77/4/2 78/4/2 81/4/2
f 81/4/2 78/4/2 82/4/2
f 79/2/2 80/2/2 83/2/2
f 83/2/2 80/2/2 84/2/2
f 81/2/2 82/2/2 85/2/2
f 85/2/2 82/2/2 86/2/2
f 84/2/2 80/2/2 87/2/2
f 87/2/2 80/2/2 88/2/2
f 81/2/2 85/2/2 89/2/2
f 89/2/2 85/2/2 90/2/2
f 91/2/2 92/2/2 95/2/2
f 95/2/2 92/2/2 96/2/2
f 93/2/2 94/2/2 97/2/2
f 97/2/2 94/2/2 98/2/2
f 99/3/2 100/3/2 103/3/2
f 103/3/2 100/3/2 104/3/2
f 101/3/2 102/3/2 105/3/2
f 105/3/2 102/3/2 106/3/2
f 103/4/2 104/4/2 107/4/2
f 107/4/2 104/4/2 108/4/2
f 105/4/2 106/4/2 109/4/2
f 109/4/2 106/4/2 110/4/2
f 111/3/2 112/3/2 117/3/2
f 117/3/2 112/3/2 118/3/2
f 113/3/2 114/3/2 119/3/2
f 119/3/2 114/3/2 120/3/2
f 115/3/2 116/3/2 121/3/2
f 121/3/2 116/3/2 122/3/2
f 117/4/2 118/4/2 123/4/2
f 119/4/2 120/4/2 124/4/2
f 117/4/2 123/4/2 125/4/2
f 123/4/2 124/4/2 125/4/2
f 124/4/2 120/4/2 126/4/2
f 125/4/2 124/4/2 126/4/2
f 121/4/2 122/4/2 127/4/2
f 127/4/2 122/4/2 128/4/2
f 129/4/2 130/4/2 133/4/2
f 133/4/2 130/4/2 134/4/2
f 131/4/2 132/4/2 135/4/2
f 135/4/2 132/4/2 136/4/2
f 133/2/2 134/2/2 137/2/2
f 137/2/2 134/2/2 138/2/2
f 135/2/2 136/2/2 143/2/2
f 143/2/2 136/2/2 144/2/2
f 139/1/2 140/1/2 145/1/2
f 145/1/2 140/1/2 146/1/2
f 141/2/2 142/2/2 149/2/2
f 149/2/2 142/2/2 150/2/2
f 147/1/2 148/1/2 151/1/2
f 151/1/2 148/1/2 152/1/2
f 153/2/2 154/2/2 155/2/2
f 155/2/2 154/2/2 156/2/2
f 157/1/2 158/1/2 159/1/2
f 159/1/2 158/1/2 160/1/2
f 161/2/2 162/2/2 163/2/2
f 163/2/2 162/2/2 164/2/2
f 165/1/2 166/1/2 167/1/2
f 167/1/2 166/1/2 168/1/2
f 169/2/2 170/2/2 171/2/2
f 171/2/2 170/2/2 172/2/2
f 173/1/2 174/1/2 175/1/2
f 175/1/2 174/1/2 176/1/2
f 177/2/2 178/2/2 179/2/2
f 179/2/2 178/2/2 180/2/2
f 181/1/2 182/1/2 183/1/2
f 183/1/2 182/1/2 184/1/2
f 185/2/2 186/2/2 187/2/2
f 187/2/2 186/2/2 188/2/2
f 189/1/2 190/1/2 191/1/2
f 191/1/2 190/1/2 192/1/2
f 193/2/2 194/2/2 195/2/2
f 195/2/2 194/2/2 196/2/2
f 197/4/2 198/4/2 201/4/2
f 201/4/2 198/4/2 202/4/2
f 199/4/2 200/4/2 203/4/2
f 203/4/2 200/4/2 204/4/2
f 201/2/2 202/2/2 205/2/2
f 205/2/2 202/2/2 206/2/2
f 203/2/2 204/2/2 207/2/2
f 207/2/2 204/2/2 208/2/2
f 209/1/2 210/1/2 211/1/2
f 211/1/2 210/1/2 212/1/2
f 213/2/2 214/2/2 215/2/2
f 215/2/2 214/2/2 216/2/2
f 217/1/2 218/1/2 219/1/2
f 219/1/2 218/1/2 220/1/2
f 221/2/2 222/2/2 223/2/2
f 223/2/2 222/2/2 224/2/2
f 225/4/2 226/4/2 227/4/2
f 227/4/2 226/4/2 228/4/2
f 227/2/2 228/2/2 229/2/2
f 229/2/2 228/2/2 230/2/2
f 231/1/2 232/1/2 233/1/2
f 233/1/2 232/1/2 234/1/2
f 235/2/2 236/2/2 237/2/2
f 237/2/2 236/2/2 238/2/2
f 242/4/3 240/4/3 239/4/3
f 243/2/3 241/2/3 240/2/3
f 243/4/3 240/4/3 242/4/3
f 244/2/3 241/2/3 243/2/3
f 248/4/3 246/4/3 245/4/3
f 249/2/3 247/2/3 246/2/3
f 249/4/3 246/4/3 248/4/3
f 250/4/3 248/4/3 245/4/3
f 251/2/3 249/2/3 248/2/3
f 251/4/3 248/4/3 250/4/3
f 252/2/3 249/2/3 251/2/3
f 253/2/3 247/2/3 249/2/3
f 253/2/3 249/2/3 252/2/3
f 257/4/3 255/4/3 254/4/3
f 258/2/3 256/2/3 255/2/3
f 258/4/3 255/4/3 257/4/3
f 259/2/3 256/2/3 258/2/3
f 263/3/3 261/3/3 260/3/3
f 264/4/3 262/4/3 261/4/3
f 264/3/3 261/3/3 263/3/3
f 265/4/3 262/4/3 264/4/3
f 269/4/3 267/4/3 266/4/3
f 270/4/3 267/4/3 269/4/3
f 271/4/3 267/4/3 270/4/3
f 272/2/3 268/2/3 267/2/3
f 272/4/3 267/4/3 271/4/3
f 273/2/3 272/2/3 271/2/3
f 274/2/3 268/2/3 272/2/3
f 274/2/3 272/2/3 273/2/3
f 278/4/3 276/4/3 275/4/3
f 279/2/3 277/2/3 276/2/3
f 279/4/3 276/4/3 278/4/3
f 280/2/3 277/2/3 279/2/3
f 284/3/3 282/3/3 281/3/3
f 285/4/3 283/4/3 282/4/3
f 285/3/3 282/3/3 284/3/3
f 286/4/3 283/4/3 285/4/3
f 290/3/3 288/3/3 287/3/3
f 291/4/3 289/4/3 288/4/3
f 291/3/3 288/3/3 290/3/3
f 292/4/3 289/4/3 291/4/3
f 296/1/3 294/1/3 293/1/3
f 296/1/3 295/1/3 294/1/3
f 297/1/3 295/1/3 296/1/3
f 298/1/3 295/1/3 297/1/3
f 299/1/3 295/1/3 298/1/3
f 300/1/3 295/1/3 299/1/3
f 302/1/3 301/1/3 300/1/3
f 302/1/3 300/1/3 299/1/3
f 303/1/3 301/1/3 302/1/3
f 304/1/3 298/1/3 297/1/3
f 305/1/3 298/1/3 304/1/3
f 306/1/3 301/1/3 303/1/3
f 308/1/3 307/1/3 306/1/3
f 308/1/3 306/1/3 303/1/3
f 309/1/3 307/1/3 308/1/3
f 310/1/3 302/1/3 299/1/3
f 311/1/3 302/1/3 310/1/3
f 312/1/3 307/1/3 309/1/3
f 313/1/3 307/1/3 312/1/3
f 314/1/3 308/1/3 303/1/3
f 315/1/3 308/1/3 314/1/3
f 316/1/3 312/1/3 309/1/3
f 317/1/3 312/1/3 316/1/3
f 318/1/3 307/1/3 313/1/3
f 319/1/3 307/1/3 318/1/3
f 324/2/3 321/2/3 320/2/3
f 324/2/3 323/2/3 322/2/3
f 324/2/3 322/2/3 321/2/3
f 325/2/3 323/2/3 324/2/3
f 326/2/3 323/2/3 325/2/3
f 327/2/3 323/2/3 326/2/3
f 328/2/3 323/2/3 327/2/3
f 330/2/3 329/2/3 328/2/3
f 330/2/3 328/2/3 327/2/3
f 331/2/3 329/2/3 330/2/3
f 332/2/3 326/2/3 325/2/3
f 333/2/3 326/2/3 332/2/3
f 334/2/3 329/2/3 331/2/3
f 336/2/3 335/2/3 334/2/3
f 336/2/3 334/2/3 331/2/3
f 337/2/3 335/2/3 336/2/3
f 338/2/3 330/2/3 327/2/3
f 339/2/3 330/2/3 338/2/3
f 340/2/3 335/2/3 337/2/3
f 341/2/3 335/2/3 340/2/3
f 342/2/3 336/2/3 331/2/3
f 343/2/3 336/2/3 342/2/3
f 344/2/3 340/2/3 337/2/3
f 345/2/3 340/2/3 344/2/3
f 346/2/3 335/2/3 341/2/3
f 347/2/3 335/2/3 346/2/3
f 351/4/3 349/4/3 348/4/3
f 352/2/3 350/2/3 349/2/3
f 352/4/3 349/4/3 351/4/3
f 353/4/3 351/4/3 348/4/3
f 354/2/3 352/2/3 351/2/3
f 354/4/3 351/4/3 353/4/3
f 355/2/3 350/2/3 352/2/3
f 355/2/3 352/2/3 354/2/3
f 359/4/3 357/4/3 356/4/3
f 360/2/3 358/2/3 357/2/3
f 360/4/3 357/4/3 359/4/3
f 361/2/3 360/2/3 359/2/3
f 362/2/3 358/2/3 360/2/3
f 362/2/3 360/2/3 361/2/3
f 363/4/4 364/4/4 366/4/4
f 364/2/4 365/2/4 367/2/4
f 366/4/4 364/4/4 367/4/4
f 366/2/4 367/2/4 368/2/4
f 367/2/4 365/2/4 369/2/4
f 368/2/4 367/2/4 369/2/4
f 370/4/4 371/4/4 373/4/4
f 371/2/4 372/2/4 374/2/4
f 373/4/4 371/4/4 374/4/4
f 370/4/4 373/4/4 375/4/4
f 373/2/4 374/2/4 376/2/4
f 375/4/4 373/4/4 376/4/4
f 374/2/4 372/2/4 377/2/4
f 376/2/4 374/2/4 377/2/4
f 378/1/4 379/1/4 381/1/4
f 379/1/4 380/1/4 381/1/4
f 381/1/4 380/1/4 382/1/4
f 382/1/4 380/1/4 383/1/4
f 383/1/4 380/1/4 384/1/4
f 384/1/4 380/1/4 385/1/4
f 385/1/4 386/1/4 387/1/4
f 384/1/4 385/1/4 387/1/4
f 387/1/4 386/1/4 388/1/4
f 382/1/4 383/1/4 389/1/4
f 389/1/4 383/1/4 390/1/4
f 388/1/4 386/1/4 391/1/4
f 391/1/4 392/1/4 393/1/4
f 388/1/4 391/1/4 393/1/4
f 393/1/4 392/1/4 394/1/4
f 384/1/4 387/1/4 395/1/4
f 395/1/4 387/1/4 396/1/4
f 394/1/4 392/1/4 397/1/4
f 397/1/4 392/1/4 398/1/4
f 388/1/4 393/1/4 399/1/4
f 399/1/4 393/1/4 400/1/4
f 394/1/4 397/1/4 401/1/4
f 401/1/4 397/1/4 402/1/4
f 398/1/4 392/1/4 403/1/4
f 403/1/4 392/1/4 404/1/4
f 405/2/4 406/2/4 409/2/4
f 407/2/4 408/2/4 409/2/4
f 406/2/4 407/2/4 409/2/4
f 409/2/4 408/2/4 410/2/4
f 410/2/4 408/2/4 411/2/4
f 411/2/4 408/2/4 412/2/4
f 412/2/4 408/2/4 413/2/4
f 413/2/4 414/2/4 415/2/4
f 412/2/4 413/2/4 415/2/4
f 415/2/4 414/2/4 416/2/4
f 410/2/4 411/2/4 417/2/4
f 417/2/4 411/2/4 418/2/4
f 416/2/4 414/2/4 419/2/4
f 419/2/4 420/2/4 421/2/4
f 416/2/4 419/2/4 421/2/4
f 421/2/4 420/2/4 422/2/4
f 412/2/4 415/2/4 423/2/4
f 423/2/4 415/2/4 424/2/4
f 422/2/4 420/2/4 425/2/4
f 425/2/4 420/2/4 426/2/4
f 416/2/4 421/2/4 427/2/4
f 427/2/4 421/2/4 428/2/4
f 422/2/4 425/2/4 429/2/4
f 429/2/4 425/2/4 430/2/4
f 426/2/4 420/2/4 431/2/4
f 431/2/4 420/2/4 432/2/4
f 433/3/4 434/3/4 436/3/4
f 434/4/4 435/4/4 437/4/4
f 436/3/4 434/3/4 437/3/4
f 437/4/4 435/4/4 438/4/4
f 439/3/4 440/3/4 442/3/4
f 440/4/4 441/4/4 443/4/4
f 442/3/4 440/3/4 443/3/4
f 443/4/4 441/4/4 444/4/4
f 445/4/4 446/4/4 448/4/4
f 448/4/4 446/4/4 449/4/4
f 449/4/4 446/4/4 450/4/4
f 446/2/4 447/2/4 451/2/4
f 450/4/4 446/4/4 451/4/4
f 450/2/4 451/2/4 452/2/4
f 451/2/4 447/2/4 453/2/4
f 452/2/4 451/2/4 453/2/4
f 454/4/4 455/4/4 457/4/4
f 455/2/4 456/2/4 458/2/4
f 457/4/4 455/4/4 458/4/4
f 458/2/4 456/2/4 459/2/4
f 460/3/4 461/3/4 463/3/4
f 461/4/4 462/4/4 464/4/4
f 463/3/4 461/3/4 464/3/4
f 464/4/4 462/4/4 465/4/4
f 466/4/4 467/4/4 469/4/4
f 467/2/4 468/2/4 470/2/4
f 469/4/4 467/4/4 470/4/4
f 466/4/4 469/4/4 471/4/4
f 469/2/4 470/2/4 472/2/4
f 471/4/4 469/4/4 472/4/4
f 472/2/4 470/2/4 473/2/4
f 470/2/4 468/2/4 474/2/4
f 473/2/4 470/2/4 474/2/4
f 475/4/4 476/4/4 478/4/4
f 476/2/4 477/2/4 479/2/4
f 478/4/4 476/4/4 479/4/4
f 479/2/4 477/2/4 480/2/4
f 481/4/4 482/4/4 484/4/4
f 482/2/4 483/2/4 485/2/4
f 484/4/4 482/4/4 485/4/4
f 485/2/4 483/2/4 486/2/4
f 490/4/5 488/4/5 487/4/5
f 491/4/5 488/4/5 490/4/5
f 494/4/5 490/4/5 489/4/5
f 494/4/5 492/4/5 491/4/5
f 494/4/5 491/4/5 490/4/5
f 495/4/5 492/4/5 494/4/5
f 497/4/5 494/4/5 493/4/5
f 497/4/5 496/4/5 495/4/5
f 497/4/5 495/4/5 494/4/5
f 498/4/5 496/4/5 497/4/5
f 499/4/5 496/4/5 498/4/5
f 500/4/5 496/4/5 499/4/5
f 501/4/5 499/4/5 498/4/5
f 502/4/5 499/4/5 501/4/5
f 503/4/5 499/4/5 502/4/5
f 504/4/5 499/4/5 503/4/5
f 505/4/5 503/4/5 502/4/5
f 506/4/5 503/4/5 505/4/5
f 509/1/5 508/1/5 507/1/5
f 510/1/5 508/1/5 509/1/5
f 513/2/5 512/2/5 511/2/5
f 514/2/5 512/2/5 513/2/5
f 517/1/5 516/1/5 515/1/5
f 518/1/5 516/1/5 517/1/5
f 521/1/5 520/1/5 519/1/5
f 522/1/5 520/1/5 521/1/5
f 525/2/5 524/2/5 523/2/5
f 526/2/5 524/2/5 525/2/5
f 529/1/5 528/1/5 527/1/5
f 530/1/5 528/1/5 529/1/5
f 533/2/5 532/2/5 531/2/5
f 534/2/5 532/2/5 533/2/5
f 537/1/5 536/1/5 535/1/5
f 538/1/5 536/1/5 537/1/5
f 541/2/5 540/2/5 539/2/5
f 542/2/5 540/2/5 541/2/5
f 545/2/5 544/2/5 543/2/5
f 546/2/5 544/2/5 545/2/5
f 547/2/6 548/2/6 549/2/6
f 549/2/6 548/2/6 550/2/6
f 547/2/6 549/2/6 551/2/6
f 550/2/6 548/2/6 552/2/6
f 551/2/6 549/2/6 556/2/6
f 549/4/6 550/4/6 557/4/6
f 556/2/6 549/2/6 557/2/6
f 557/4/6 550/4/6 558/4/6
f 558/4/6 550/4/6 559/4/6
f 550/2/6 552/2/6 560/2/6
f 559/4/6 550/4/6 560/4/6
f 552/2/6 553/2/6 560/2/6
f 560/2/6 553/2/6 561/2/6
f 561/2/6 553/2/6 562/2/6
f 554/4/6 555/4/6 565/4/6
f 555/4/6 556/4/6 565/4/6
f 557/4/6 558/4/6 565/4/6
f 556/4/6 557/4/6 565/4/6
f 565/4/6 558/4/6 566/4/6
f 566/4/6 558/4/6 567/4/6
f 560/4/6 561/4/6 568/4/6
f 559/4/6 560/4/6 568/4/6
f 568/4/6 561/4/6 569/4/6
f 562/2/6 563/2/6 570/2/6
f 569/4/6 561/4/6 570/4/6
f 561/2/6 562/2/6 570/2/6
f 570/2/6 563/2/6 571/2/6
f 570/4/6 571/4/6 572/4/6
f 569/4/6 570/4/6 572/4/6
f 572/4/6 571/4/6 573/4/6
f 573/4/6 571/4/6 575/4/6
f 574/4/6 575/4/6 576/4/6
f 575/4/6 571/4/6 577/4/6
f 576/4/6 575/4/6 577/4/6
f 577/4/6 571/4/6 579/4/6
f 564/4/6 565/4/6 580/4/6
f 565/4/6 566/4/6 580/4/6
f 580/4/6 566/4/6 581/4/6
f 581/4/6 566/4/6 582/4/6
f 578/4/6 579/4/6 585/4/6
f 579/4/6 571/4/6 586/4/6
f 585/4/6 579/4/6 586/4/6
f 571/2/6 563/2/6 587/2/6
f 586/4/6 571/4/6 587/4/6
f 586/2/6 587/2/6 588/2/6
f 587/2/6 563/2/6 589/2/6
f 588/2/6 587/2/6 589/2/6
f 582/4/6 583/4/6 590/4/6
f 581/4/6 582/4/6 590/4/6
f 590/4/6 583/4/6 591/4/6
f 591/4/6 583/4/6 592/4/6
f 592/4/6 583/4/6 593/4/6
f 593/4/6 583/4/6 594/4/6
f 585/4/6 586/4/6 595/4/6
f 584/4/6 585/4/6 595/4/6
f 595/4/6 586/4/6 596/4/6
f 586/2/6 588/2/6 597/2/6
f 596/4/6 586/4/6 597/4/6
f 592/2/6 593/2/6 598/2/6
f 596/2/6 597/2/6 599/2/6
f 597/2/6 588/2/6 600/2/6
f 599/2/6 597/2/6 600/2/6
f 593/4/6 594/4/6 601/4/6
f 595/4/6 596/4/6 601/4/6
f 598/2/6 593/2/6 601/2/6
f 594/4/6 595/4/6 601/4/6
f 596/2/6 599/2/6 602/2/6
f 601/4/6 596/4/6 602/4/6
f 598/2/6 601/2/6 603/2/6
f 601/2/6 602/2/6 603/2/6
f 602/2/6 599/2/6 604/2/6
f 603/2/6 602/2/6 604/2/6
f 605/2/6 606/2/6 607/2/6
f 607/2/6 606/2/6 608/2/6
f 605/2/6 607/2/6 609/2/6
f 609/2/6 607/2/6 610/2/6
f 611/2/6 612/2/6 613/2/6
f 611/2/6 613/2/6 615/2/6
f 613/2/6 614/2/6 615/2/6
f 615/2/6 614/2/6 616/2/6
f 617/2/6 618/2/6 619/2/6
f 619/2/6 618/2/6 620/2/6
f 621/1/6 622/1/6 623/1/6
f 623/1/6 622/1/6 624/1/6
f 617/2/6 619/2/6 625/2/6
f 617/2/6 625/2/6 627/2/6
f 625/2/6 626/2/6 627/2/6
f 627/2/6 626/2/6 628/2/6
f 629/1/6 630/1/6 631/1/6
f 631/1/6 630/1/6 632/1/6
f 633/2/6 634/2/6 635/2/6
f 635/2/6 634/2/6 636/2/6
f 637/1/6 638/1/6 639/1/6
f 639/1/6 638/1/6 640/1/6
f 641/2/6 642/2/6 643/2/6
f 643/2/6 642/2/6 644/2/6
f 645/1/6 646/1/6 647/1/6
f 647/1/6 646/1/6 648/1/6
f 649/4/6 650/4/6 652/4/6
f 652/4/6 650/4/6 653/4/6
f 651/4/6 652/4/6 655/4/6
f 653/4/6 654/4/6 655/4/6
f 652/4/6 653/4/6 655/4/6
f 651/4/6 655/4/6 656/4/6
f 651/4/6 656/4/6 657/4/6
f 657/4/6 656/4/6 658/4/6
f 658/4/6 656/4/6 659/4/6
f 659/4/6 656/4/6 660/4/6
f 658/4/6 659/4/6 661/4/6
f 661/4/6 659/4/6 662/4/6
f 663/1/6 664/1/6 665/1/6
f 665/1/6 664/1/6 666/1/6
f 667/2/6 668/2/6 669/2/6
f 669/2/6 668/2/6 670/2/6
f 671/1/6 672/1/6 673/1/6
f 673/1/6 672/1/6 674/1/6
f 675/2/6 676/2/6 677/2/6
f 677/2/6 676/2/6 678/2/6
f 679/1/6 680/1/6 681/1/6
f 681/1/6 680/1/6 682/1/6
f 683/2/6 684/2/6 685/2/6
f 685/2/6 684/2/6 686/2/6
f 687/2/6 688/2/6 689/2/6
f 689/2/6 688/2/6 690/2/6
f 691/2/6 692/2/6 693/2/6
f 693/2/6 692/2/6 694/2/6
