# MagicaVoxel @ Ephtracy

# group
o 

# material
mtllib model.mtl
usemtl palette

# normals
vn 0 0 1
vn 0 0 -1
vn 1 0 0
vn -1 0 0
vn 0 -1 0
vn 0 1 0

# texcoords
vt 0.0292969 0.5
vt 0.353516 0.5
vt 0.513672 0.5
vt 0.759766 0.5

# verts
v 1.1 0.2 1.8
v -1.1 0.2 1.8
v 1.1 0.9 1.8
v -1.1 0.9 1.8
v 1.1 1.1 1.8
v -1.1 1.1 1.8
v 1.1 0 1.5
v -1.1 0 1.5
v 1.1 0.2 1.5
v -1.1 0.2 1.5
v 0.9 1 1.1
v -0.9 1 1.1
v 0.9 1.9 1.1
v -0.9 1.9 1.1
v 1.1 0.7 -0.5
v 1 0.7 -0.5
v -1 0.7 -0.5
v -1.1 0.7 -0.5
v 1.1 1.1 -0.5
v 1 1.1 -0.5
v -1 1.1 -0.5
v -1.1 1.1 -0.5
v 1 0.6 -0.6
v 0.9 0.6 -0.6
v -0.9 0.6 -0.6
v -1 0.6 -0.6
v 1 1 -0.6
v 0.9 1 -0.6
v -0.9 1 -0.6
v -1 1 -0.6
v 1 1 -1.7
v -1 1 -1.7
v 1 1.1 -1.7
v -1 1.1 -1.7
v 1 1 1.7
v -1 1 1.7
v 1 1.1 1.7
v -1 1.1 1.7
v 1 0.6 0.6
v 0.9 0.6 0.6
v -0.9 0.6 0.6
v -1 0.6 0.6
v 1 1 0.6
v 0.9 1 0.6
v -0.9 1 0.6
v -1 1 0.6
v 1.1 0.7 0.5
v 1 0.7 0.5
v -1 0.7 0.5
v -1.1 0.7 0.5
v 1.1 1.1 0.5
v 1 1.1 0.5
v -1 1.1 0.5
v -1.1 1.1 0.5
v 0.9 1 -1.1
v -0.9 1 -1.1
v 0.9 1.9 -1.1
v -0.9 1.9 -1.1
v 1.1 0 -1.5
v -1.1 0 -1.5
v 1.1 0.2 -1.5
v -1.1 0.2 -1.5
v 1.1 0.2 -1.8
v -1.1 0.2 -1.8
v 1.1 0.9 -1.8
v -1.1 0.9 -1.8
v 1.1 1.1 -1.8
v -1.1 1.1 -1.8
v 1.1 0.2 1.8
v 1.1 0.9 1.8
v 1.1 1.1 1.8
v 1.1 0 1.5
v 1.1 0.2 1.5
v 1.1 0.5 0.7
v 1.1 0.9 0.7
v 1.1 0.7 0.5
v 1.1 1.1 0.5
v 1.1 0.7 -0.5
v 1.1 1.1 -0.5
v 1.1 0.5 -0.7
v 1.1 0.9 -0.7
v 1.1 0 -1.5
v 1.1 0.2 -1.5
v 1.1 0.2 -1.8
v 1.1 0.9 -1.8
v 1.1 1.1 -1.8
v 0.9 1 1.1
v 0.9 1.9 1.1
v 0.9 1.4 0.9
v 0.9 1.5 0.9
v 0.9 1.3 0.8
v 0.9 1.4 0.8
v 0.9 1.5 0.8
v 0.9 1.6 0.8
v 0.9 1.2 0.7
v 0.9 1.3 0.7
v 0.9 1.4 0.7
v 0.9 1.5 0.7
v 0.9 1.6 0.7
v 0.9 1.7 0.7
v 0.9 0.6 0.6
v 0.9 1 0.6
v 0.9 1.2 0.6
v 0.9 1.3 0.6
v 0.9 1.4 0.6
v 0.9 1.5 0.6
v 0.9 1.6 0.6
v 0.9 1.7 0.6
v 0.9 1.3 0.5
v 0.9 1.4 0.5
v 0.9 1.5 0.5
v 0.9 1.6 0.5
v 0.9 1.4 0.4
v 0.9 1.5 0.4
v 0.9 0.6 -0.6
v 0.9 1 -0.6
v 0.9 1 -1.1
v 0.9 1.9 -1.1
v -1 1 1.7
v -1 1.1 1.7
v -1 0.6 0.6
v -1 1 0.6
v -1 0.7 0.5
v -1 1.1 0.5
v -1 0.7 -0.5
v -1 1.1 -0.5
v -1 0.6 -0.6
v -1 1 -0.6
v -1 1 -1.7
v -1 1.1 -1.7
v 1 1 1.7
v 1 1.1 1.7
v 1 0.6 0.6
v 1 1 0.6
v 1 0.7 0.5
v 1 1.1 0.5
v 1 0.7 -0.5
v 1 1.1 -0.5
v 1 0.6 -0.6
v 1 1 -0.6
v 1 1 -1.7
v 1 1.1 -1.7
v -0.9 1 1.1
v -0.9 1.9 1.1
v -0.9 0.6 0.6
v -0.9 1 0.6
v -0.9 0.6 -0.6
v -0.9 1 -0.6
v -0.9 1 -1.1
v -0.9 1.9 -1.1
v -1.1 0.2 1.8
v -1.1 0.9 1.8
v -1.1 1.1 1.8
v -1.1 0 1.5
v -1.1 0.2 1.5
v -1.1 0.5 0.7
v -1.1 0.9 0.7
v -1.1 0.7 0.5
v -1.1 1.1 0.5
v -1.1 0.7 -0.5
v -1.1 1.1 -0.5
v -1.1 0.5 -0.7
v -1.1 0.9 -0.7
v -1.1 0 -1.5
v -1.1 0.2 -1.5
v -1.1 0.2 -1.8
v -1.1 0.9 -1.8
v -1.1 1.1 -1.8
v 1.1 0 1.5
v 1.1 0 -1.5
v -1.1 0 1.5
v -1.1 0 -1.5
v 1.1 0.2 1.8
v 1.1 0.2 1.5
v 1.1 0.2 -1.5
v 1.1 0.2 -1.8
v -1.1 0.2 1.8
v -1.1 0.2 1.5
v -1.1 0.2 -1.5
v -1.1 0.2 -1.8
v 1 0.6 0.6
v 1 0.6 -0.6
v 0.9 0.6 0.6
v 0.9 0.6 -0.6
v -0.9 0.6 0.6
v -0.9 0.6 -0.6
v -1 0.6 0.6
v -1 0.6 -0.6
v 1.1 0.7 0.5
v 1.1 0.7 -0.5
v 1 0.7 0.5
v 1 0.7 -0.5
v -1 0.7 0.5
v -1 0.7 -0.5
v -1.1 0.7 0.5
v -1.1 0.7 -0.5
v 1 1 1.7
v 1 1 0.6
v 1 1 -0.6
v 1 1 -1.7
v 0.9 1 1.1
v 0.9 1 0.6
v 0.9 1 -0.6
v 0.9 1 -1.1
v -0.9 1 1.1
v -0.9 1 0.6
v -0.9 1 -0.6
v -0.9 1 -1.1
v -1 1 1.7
v -1 1 0.6
v -1 1 -0.6
v -1 1 -1.7
v 1.1 1.1 1.8
v 1.1 1.1 0.5
v 1.1 1.1 -0.5
v 1.1 1.1 -1.8
v 1 1.1 1.7
v 1 1.1 0.5
v 1 1.1 -0.5
v 1 1.1 -1.7
v -1 1.1 1.7
v -1 1.1 0.5
v -1 1.1 -0.5
v -1 1.1 -1.7
v -1.1 1.1 1.8
v -1.1 1.1 0.5
v -1.1 1.1 -0.5
v -1.1 1.1 -1.8
v 0.9 1.9 1.1
v 0.9 1.9 -1.1
v -0.9 1.9 1.1
v -0.9 1.9 -1.1

# faces
f 3/2/1 2/2/1 1/2/1
f 4/2/1 2/2/1 3/2/1
f 5/4/1 4/4/1 3/4/1
f 6/4/1 4/4/1 5/4/1
f 9/2/1 8/2/1 7/2/1
f 10/2/1 8/2/1 9/2/1
f 13/2/1 12/2/1 11/2/1
f 14/2/1 12/2/1 13/2/1
f 19/4/1 16/4/1 15/4/1
f 20/4/1 16/4/1 19/4/1
f 21/4/1 18/4/1 17/4/1
f 22/4/1 18/4/1 21/4/1
f 27/2/1 24/2/1 23/2/1
f 28/2/1 24/2/1 27/2/1
f 29/2/1 26/2/1 25/2/1
f 30/2/1 26/2/1 29/2/1
f 33/4/1 32/4/1 31/4/1
f 34/4/1 32/4/1 33/4/1
f 35/4/2 36/4/2 37/4/2
f 37/4/2 36/4/2 38/4/2
f 39/2/2 40/2/2 43/2/2
f 43/2/2 40/2/2 44/2/2
f 41/2/2 42/2/2 45/2/2
f 45/2/2 42/2/2 46/2/2
f 47/4/2 48/4/2 51/4/2
f 51/4/2 48/4/2 52/4/2
f 49/4/2 50/4/2 53/4/2
f 53/4/2 50/4/2 54/4/2
f 55/2/2 56/2/2 57/2/2
f 57/2/2 56/2/2 58/2/2
f 59/2/2 60/2/2 61/2/2
f 61/2/2 60/2/2 62/2/2
f 63/2/2 64/2/2 65/2/2
f 65/2/2 64/2/2 66/2/2
f 65/4/2 66/4/2 67/4/2
f 67/4/2 66/4/2 68/4/2
f 73/2/3 70/2/3 69/2/3
f 74/2/3 70/2/3 73/2/3
f 74/2/3 73/2/3 72/2/3
f 75/4/3 71/4/3 70/4/3
f 75/2/3 70/2/3 74/2/3
f 76/4/3 75/4/3 74/4/3
f 77/4/3 71/4/3 75/4/3
f 77/4/3 75/4/3 76/4/3
f 78/4/3 76/4/3 74/4/3
f 80/2/3 74/2/3 72/2/3
f 80/4/3 79/4/3 78/4/3
f 80/4/3 78/4/3 74/4/3
f 81/4/3 79/4/3 80/4/3
f 82/2/3 80/2/3 72/2/3
f 82/2/3 81/2/3 80/2/3
f 83/2/3 81/2/3 82/2/3
f 84/2/3 81/2/3 83/2/3
f 85/4/3 79/4/3 81/4/3
f 85/2/3 81/2/3 84/2/3
f 86/4/3 79/4/3 85/4/3
f 89/2/3 88/2/3 87/2/3
f 90/2/3 88/2/3 89/2/3
f 91/2/3 89/2/3 87/2/3
f 92/4/3 90/4/3 89/4/3
f 92/2/3 89/2/3 91/2/3
f 93/2/3 88/2/3 90/2/3
f 93/4/3 90/4/3 92/4/3
f 94/2/3 88/2/3 93/2/3
f 95/2/3 91/2/3 87/2/3
f 96/3/3 92/3/3 91/3/3
f 96/2/3 91/2/3 95/2/3
f 97/4/3 93/4/3 92/4/3
f 97/3/3 92/3/3 96/3/3
f 98/3/3 94/3/3 93/3/3
f 98/4/3 93/4/3 97/4/3
f 99/2/3 88/2/3 94/2/3
f 99/3/3 94/3/3 98/3/3
f 100/2/3 88/2/3 99/2/3
f 102/2/3 95/2/3 87/2/3
f 103/4/3 96/4/3 95/4/3
f 103/4/3 97/4/3 96/4/3
f 103/2/3 95/2/3 102/2/3
f 104/4/3 97/4/3 103/4/3
f 105/1/3 98/1/3 97/1/3
f 105/4/3 97/4/3 104/4/3
f 106/4/3 99/4/3 98/4/3
f 106/1/3 98/1/3 105/1/3
f 106/4/3 100/4/3 99/4/3
f 107/4/3 100/4/3 106/4/3
f 108/2/3 88/2/3 100/2/3
f 108/4/3 100/4/3 107/4/3
f 109/2/3 104/2/3 103/2/3
f 109/2/3 102/2/3 101/2/3
f 109/3/3 105/3/3 104/3/3
f 109/2/3 103/2/3 102/2/3
f 110/4/3 106/4/3 105/4/3
f 110/3/3 105/3/3 109/3/3
f 111/3/3 107/3/3 106/3/3
f 111/4/3 106/4/3 110/4/3
f 112/2/3 108/2/3 107/2/3
f 112/3/3 107/3/3 111/3/3
f 113/2/3 110/2/3 109/2/3
f 113/4/3 111/4/3 110/4/3
f 114/2/3 112/2/3 111/2/3
f 114/4/3 111/4/3 113/4/3
f 115/2/3 113/2/3 109/2/3
f 115/2/3 109/2/3 101/2/3
f 115/2/3 114/2/3 113/2/3
f 116/2/3 114/2/3 115/2/3
f 117/2/3 114/2/3 116/2/3
f 118/2/3 108/2/3 112/2/3
f 118/2/3 114/2/3 117/2/3
f 118/2/3 88/2/3 108/2/3
f 118/2/3 112/2/3 114/2/3
f 122/4/3 120/4/3 119/4/3
f 123/4/3 122/4/3 121/4/3
f 124/4/3 120/4/3 122/4/3
f 124/4/3 122/4/3 123/4/3
f 125/4/3 123/4/3 121/4/3
f 127/4/3 125/4/3 121/4/3
f 127/4/3 126/4/3 125/4/3
f 128/4/3 126/4/3 127/4/3
f 129/4/3 126/4/3 128/4/3
f 130/4/3 126/4/3 129/4/3
f 131/4/4 132/4/4 134/4/4
f 133/4/4 134/4/4 135/4/4
f 134/4/4 132/4/4 136/4/4
f 135/4/4 134/4/4 136/4/4
f 133/4/4 135/4/4 137/4/4
f 133/4/4 137/4/4 139/4/4
f 137/4/4 138/4/4 139/4/4
f 139/4/4 138/4/4 140/4/4
f 140/4/4 138/4/4 141/4/4
f 141/4/4 138/4/4 142/4/4
f 143/2/4 144/2/4 146/2/4
f 145/2/4 146/2/4 147/2/4
f 146/2/4 144/2/4 148/2/4
f 147/2/4 146/2/4 148/2/4
f 148/2/4 144/2/4 149/2/4
f 149/2/4 144/2/4 150/2/4
f 151/2/4 152/2/4 155/2/4
f 155/2/4 152/2/4 156/2/4
f 154/2/4 155/2/4 156/2/4
f 152/4/4 153/4/4 157/4/4
f 156/2/4 152/2/4 157/2/4
f 156/4/4 157/4/4 158/4/4
f 157/4/4 153/4/4 159/4/4
f 158/4/4 157/4/4 159/4/4
f 156/4/4 158/4/4 160/4/4
f 154/2/4 156/2/4 162/2/4
f 160/4/4 161/4/4 162/4/4
f 156/4/4 160/4/4 162/4/4
f 162/4/4 161/4/4 163/4/4
f 154/2/4 162/2/4 164/2/4
f 162/2/4 163/2/4 164/2/4
f 164/2/4 163/2/4 165/2/4
f 165/2/4 163/2/4 166/2/4
f 163/4/4 161/4/4 167/4/4
f 166/2/4 163/2/4 167/2/4
f 167/4/4 161/4/4 168/4/4
f 171/2/5 170/2/5 169/2/5
f 172/2/5 170/2/5 171/2/5
f 177/2/5 174/2/5 173/2/5
f 178/2/5 174/2/5 177/2/5
f 179/2/5 176/2/5 175/2/5
f 180/2/5 176/2/5 179/2/5
f 181/2/6 182/2/6 183/2/6
f 183/2/6 182/2/6 184/2/6
f 185/2/6 186/2/6 187/2/6
f 187/2/6 186/2/6 188/2/6
f 189/4/6 190/4/6 191/4/6
f 191/4/6 190/4/6 192/4/6
f 193/4/6 194/4/6 195/4/6
f 195/4/6 194/4/6 196/4/6
f 197/2/6 198/2/6 201/2/6
f 201/2/6 198/2/6 202/2/6
f 199/2/6 200/2/6 203/2/6
f 203/2/6 200/2/6 204/2/6
f 197/2/6 201/2/6 205/2/6
f 204/2/6 200/2/6 208/2/6
f 205/2/6 206/2/6 209/2/6
f 197/2/6 205/2/6 209/2/6
f 209/2/6 206/2/6 210/2/6
f 207/2/6 208/2/6 211/2/6
f 208/2/6 200/2/6 212/2/6
f 211/2/6 208/2/6 212/2/6
f 213/4/6 214/4/6 217/4/6
f 217/4/6 214/4/6 218/4/6
f 215/4/6 216/4/6 219/4/6
f 219/4/6 216/4/6 220/4/6
f 213/4/6 217/4/6 221/4/6
f 220/4/6 216/4/6 224/4/6
f 221/4/6 222/4/6 225/4/6
f 213/4/6 221/4/6 225/4/6
f 225/4/6 222/4/6 226/4/6
f 223/4/6 224/4/6 227/4/6
f 224/4/6 216/4/6 228/4/6
f 227/4/6 224/4/6 228/4/6
f 229/2/6 230/2/6 231/2/6
f 231/2/6 230/2/6 232/2/6
