# MagicaVoxel @ Ephtracy

# group
o 

# material
mtllib model-1.mtl
usemtl palette

# normals
vn 0 0 1
vn 0 0 -1
vn 1 0 0
vn -1 0 0
vn 0 -1 0
vn 0 1 0

# texcoords
vt 0.00195313 0.5
vt 0.0292969 0.5
vt 0.353516 0.5
vt 0.357422 0.5

# verts
v 0.5 0 1
v -0.5 0 1
v 0.5 0.1 1
v -0.5 0.1 1
v 0.5 0.2 1
v -0.5 0.2 1
v 0.5 0.7 1
v -0.5 0.7 1
v 0.5 0 -1
v -0.5 0 -1
v 0.5 0.1 -1
v -0.5 0.1 -1
v 0.5 0.2 -1
v -0.5 0.2 -1
v 0.5 0.7 -1
v -0.5 0.7 -1
v 0.5 0 1
v 0.5 0.1 1
v 0.5 0.2 1
v 0.5 0.7 1
v 0.5 0.5 0.4
v 0.5 0.7 0.4
v 0.5 0.4 0.2
v 0.5 0.5 0.2
v 0.5 0.6 -0.1
v 0.5 0.7 -0.1
v 0.5 0.4 -0.2
v 0.5 0.5 -0.2
v 0.5 0.5 -0.4
v 0.5 0.6 -0.4
v 0.5 0.7 -0.4
v 0.5 0.5 -0.6
v 0.5 0.6 -0.6
v 0.5 0.7 -0.6
v 0.5 0.6 -0.7
v 0.5 0.7 -0.7
v 0.5 0 -1
v 0.5 0.1 -1
v 0.5 0.2 -1
v 0.5 0.7 -1
v -0.5 0 1
v -0.5 0.1 1
v -0.5 0.2 1
v -0.5 0.7 1
v -0.5 0 -1
v -0.5 0.1 -1
v -0.5 0.2 -1
v -0.5 0.7 -1
v 0.5 0 1
v 0.5 0 -1
v -0.5 0 1
v -0.5 0 -1
v 0.5 0.7 1
v 0.5 0.7 0.4
v 0.5 0.7 -0.1
v 0.5 0.7 -0.4
v 0.5 0.7 -0.6
v 0.5 0.7 -0.7
v 0.5 0.7 -1
v 0.4 0.7 0.4
v 0.4 0.7 -0.1
v 0.4 0.7 -0.4
v 0.4 0.7 -0.6
v 0.4 0.7 -0.7
v -0.5 0.7 1
v -0.5 0.7 -1

# faces
f 3/3/1 2/3/1 1/3/1
f 4/3/1 2/3/1 3/3/1
f 5/4/1 4/4/1 3/4/1
f 6/4/1 4/4/1 5/4/1
f 7/3/1 6/3/1 5/3/1
f 8/3/1 6/3/1 7/3/1
f 9/3/2 10/3/2 11/3/2
f 11/3/2 10/3/2 12/3/2
f 11/4/2 12/4/2 13/4/2
f 13/4/2 12/4/2 14/4/2
f 13/3/2 14/3/2 15/3/2
f 15/3/2 14/3/2 16/3/2
f 21/3/3 20/3/3 19/3/3
f 22/3/3 20/3/3 21/3/3
f 23/3/3 21/3/3 19/3/3
f 24/1/3 22/1/3 21/1/3
f 24/3/3 21/3/3 23/3/3
f 25/1/3 24/1/3 23/1/3
f 25/1/3 22/1/3 24/1/3
f 26/1/3 22/1/3 25/1/3
f 27/3/3 23/3/3 19/3/3
f 27/1/3 25/1/3 23/1/3
f 28/1/3 25/1/3 27/1/3
f 29/3/3 28/3/3 27/3/3
f 29/1/3 25/1/3 28/1/3
f 30/2/3 26/2/3 25/2/3
f 30/1/3 25/1/3 29/1/3
f 31/2/3 26/2/3 30/2/3
f 32/3/3 29/3/3 27/3/3
f 32/2/3 30/2/3 29/2/3
f 33/3/3 31/3/3 30/3/3
f 33/2/3 30/2/3 32/2/3
f 34/3/3 31/3/3 33/3/3
f 35/3/3 33/3/3 32/3/3
f 35/2/3 34/2/3 33/2/3
f 36/2/3 34/2/3 35/2/3
f 37/3/3 18/3/3 17/3/3
f 38/4/3 19/4/3 18/4/3
f 38/3/3 18/3/3 37/3/3
f 39/3/3 27/3/3 19/3/3
f 39/4/3 19/4/3 38/4/3
f 39/3/3 32/3/3 27/3/3
f 39/3/3 36/3/3 35/3/3
f 39/3/3 35/3/3 32/3/3
f 40/3/3 36/3/3 39/3/3
f 41/3/4 42/3/4 45/3/4
f 42/4/4 43/4/4 46/4/4
f 45/3/4 42/3/4 46/3/4
f 43/3/4 44/3/4 47/3/4
f 46/4/4 43/4/4 47/4/4
f 47/3/4 44/3/4 48/3/4
f 51/3/5 50/3/5 49/3/5
f 52/3/5 50/3/5 51/3/5
f 53/3/6 54/3/6 60/3/6
f 54/1/6 55/1/6 60/1/6
f 55/2/6 56/2/6 61/2/6
f 60/1/6 55/1/6 61/1/6
f 56/3/6 57/3/6 62/3/6
f 61/2/6 56/2/6 62/2/6
f 57/2/6 58/2/6 63/2/6
f 62/3/6 57/3/6 63/3/6
f 58/3/6 59/3/6 64/3/6
f 63/2/6 58/2/6 64/2/6
f 62/3/6 63/3/6 65/3/6
f 61/3/6 62/3/6 65/3/6
f 63/3/6 64/3/6 65/3/6
f 60/3/6 61/3/6 65/3/6
f 53/3/6 60/3/6 65/3/6
f 64/3/6 59/3/6 66/3/6
f 65/3/6 64/3/6 66/3/6
