# MagicaVoxel @ Ephtracy

# group
o 

# material
mtllib model-3.mtl
usemtl palette

# normals
vn -1 0 0
vn 1 0 0
vn 0 0 1
vn 0 0 -1
vn 0 -1 0
vn 0 1 0

# texcoords
vt 0.294922 0.5
vt 0.384766 0.5
vt 0.548828 0.5
vt 0.580078 0.5
vt 0.642578 0.5
vt 0.759766 0.5

# verts
v -0.5 0.6 1
v -0.5 0.6 0.9
v -0.5 0.6 0.6
v -0.5 0.6 0.3
v -0.5 0.6 -0.3
v -0.5 0.6 -0.6
v -0.5 0.6 -0.8
v -0.5 0.6 -1
v -0.5 0.7 0.9
v -0.5 0.7 0.8
v -0.5 0.7 0.6
v -0.5 0.7 0.5
v -0.5 0.7 0.3
v -0.5 0.7 0.2
v -0.5 0.7 -0.2
v -0.5 0.7 -0.3
v -0.5 0.7 -0.8
v -0.5 0.7 -0.9
v -0.5 0.8 1
v -0.5 0.8 0.8
v -0.5 0.8 0.6
v -0.5 0.8 0.5
v -0.5 0.8 0.4
v -0.5 0.8 0.2
v -0.5 0.8 0.1
v -0.5 0.8 -0.2
v -0.5 0.8 -0.3
v -0.5 0.8 -0.6
v -0.5 0.8 -0.8
v -0.5 0.8 -0.9
v -0.5 0.8 -1
v -0.5 0.9 1
v -0.5 0.9 0.9
v -0.5 0.9 0.7
v -0.5 0.9 0.6
v -0.5 0.9 0.4
v -0.5 0.9 0.2
v -0.5 0.9 0.1
v -0.5 0.9 0
v -0.5 0.9 -0.1
v -0.5 0.9 -0.2
v -0.5 0.9 -0.3
v -0.5 0.9 -0.4
v -0.5 0.9 -0.6
v -0.5 0.9 -0.8
v -0.5 0.9 -0.9
v -0.5 0.9 -1
v -0.5 1 0.7
v -0.5 1 0.5
v -0.5 1 0.4
v -0.5 1 0.3
v -0.5 1 0.2
v -0.5 1 0.1
v -0.5 1 -0.1
v -0.5 1 -0.2
v -0.5 1 -0.3
v -0.5 1 -0.4
v -0.5 1 -0.5
v -0.5 1 -0.6
v -0.5 1.1 0.9
v -0.5 1.1 0.7
v -0.5 1.1 0.5
v -0.5 1.1 0.4
v -0.5 1.1 0.3
v -0.5 1.1 -0.2
v -0.5 1.1 -0.3
v -0.5 1.1 -0.4
v -0.5 1.1 -0.5
v -0.5 1.1 -0.6
v -0.5 1.1 -0.8
v -0.5 1.1 -0.9
v -0.5 1.2 1
v -0.5 1.2 0.9
v -0.5 1.2 0.8
v -0.5 1.2 0.7
v -0.5 1.2 0.4
v -0.5 1.2 0.3
v -0.5 1.2 0.2
v -0.5 1.2 0.1
v -0.5 1.2 0
v -0.5 1.2 -0.2
v -0.5 1.2 -0.3
v -0.5 1.2 -0.4
v -0.5 1.2 -0.5
v -0.5 1.2 -0.6
v -0.5 1.2 -0.8
v -0.5 1.2 -0.9
v -0.5 1.3 1
v -0.5 1.3 0.9
v -0.5 1.3 0.8
v -0.5 1.3 0.7
v -0.5 1.3 0.4
v -0.5 1.3 0.3
v -0.5 1.3 0.2
v -0.5 1.3 0.1
v -0.5 1.3 -0.1
v -0.5 1.3 -0.2
v -0.5 1.3 -0.3
v -0.5 1.3 -0.5
v -0.5 1.3 -0.6
v -0.5 1.3 -0.7
v -0.5 1.3 -0.9
v -0.5 1.4 1
v -0.5 1.4 0.9
v -0.5 1.4 0.7
v -0.5 1.4 0.6
v -0.5 1.4 0.4
v -0.5 1.4 0.3
v -0.5 1.4 -0.5
v -0.5 1.4 -0.6
v -0.5 1.4 -0.7
v -0.5 1.4 -0.9
v -0.5 1.4 -1
v -0.5 1.5 0.9
v -0.5 1.5 0.8
v -0.5 1.5 0.7
v -0.5 1.5 0.6
v -0.5 1.5 0.4
v -0.5 1.5 0.3
v -0.5 1.5 0.2
v -0.5 1.5 -0.1
v -0.5 1.5 -0.2
v -0.5 1.5 -0.4
v -0.5 1.5 -0.5
v -0.5 1.5 -0.7
v -0.5 1.5 -0.8
v -0.5 1.6 0.7
v -0.5 1.6 0.6
v -0.5 1.6 0.4
v -0.5 1.6 0.3
v -0.5 1.6 0.2
v -0.5 1.6 0.1
v -0.5 1.6 0
v -0.5 1.6 -0.1
v -0.5 1.6 -0.4
v -0.5 1.6 -0.5
v -0.5 1.6 -0.6
v -0.5 1.6 -0.8
v -0.5 1.6 -0.9
v -0.5 1.7 0.7
v -0.5 1.7 0.6
v -0.5 1.7 0.5
v -0.5 1.7 0.4
v -0.5 1.7 0.3
v -0.5 1.7 0.1
v -0.5 1.7 0
v -0.5 1.7 -0.1
v -0.5 1.7 -0.6
v -0.5 1.7 -0.7
v -0.5 1.8 0.8
v -0.5 1.8 0.7
v -0.5 1.8 0.6
v -0.5 1.8 0.5
v -0.5 1.8 0.1
v -0.5 1.8 0
v -0.5 1.8 -0.4
v -0.5 1.8 -0.6
v -0.5 1.8 -0.7
v -0.5 1.9 1
v -0.5 1.9 0.9
v -0.5 1.9 0.8
v -0.5 1.9 0.7
v -0.5 1.9 0.4
v -0.5 1.9 0.3
v -0.5 1.9 0.2
v -0.5 1.9 0.1
v -0.5 1.9 0
v -0.5 1.9 -0.2
v -0.5 1.9 -0.3
v -0.5 1.9 -0.4
v -0.5 1.9 -0.6
v -0.5 1.9 -0.7
v -0.5 1.9 -0.9
v -0.5 1.9 -1
v -0.5 2 0.9
v -0.5 2 0.8
v -0.5 2 0.7
v -0.5 2 0.1
v -0.5 2 0
v -0.5 2 -0.2
v -0.5 2 -0.3
v -0.5 2 -0.8
v -0.5 2 -0.9
v -0.5 2.1 1
v -0.5 2.1 0.8
v -0.5 2.1 0.3
v -0.5 2.1 0.2
v -0.5 2.1 -0.8
v -0.5 2.1 -1
v -0.4 1.8 0.3
v -0.4 1.8 0.1
v -0.4 1.8 0
v -0.4 1.8 -0.3
v -0.4 1.9 0.4
v -0.4 1.9 0.3
v -0.4 1.9 0.2
v -0.4 1.9 0.1
v -0.4 1.9 0
v -0.4 1.9 -0.2
v -0.4 1.9 -0.3
v -0.4 1.9 -0.4
v -0.4 2 0.4
v -0.4 2 0.1
v -0.4 2 0
v -0.4 2 -0.2
v -0.4 2 -0.3
v -0.4 2 -0.4
v -0.4 2.1 0.4
v -0.4 2.1 0.3
v -0.4 2.1 0.2
v -0.4 2.1 -0.4
v 0.5 0.6 1
v 0.5 0.6 0.9
v 0.5 0.6 0.6
v 0.5 0.6 0.3
v 0.5 0.6 -0.3
v 0.5 0.6 -0.6
v 0.5 0.6 -0.8
v 0.5 0.6 -1
v 0.5 0.7 0.9
v 0.5 0.7 0.8
v 0.5 0.7 0.6
v 0.5 0.7 0.5
v 0.5 0.7 0.3
v 0.5 0.7 0.2
v 0.5 0.7 -0.2
v 0.5 0.7 -0.3
v 0.5 0.7 -0.8
v 0.5 0.7 -0.9
v 0.5 0.8 1
v 0.5 0.8 0.8
v 0.5 0.8 0.6
v 0.5 0.8 0.5
v 0.5 0.8 0.4
v 0.5 0.8 0.2
v 0.5 0.8 0.1
v 0.5 0.8 -0.2
v 0.5 0.8 -0.3
v 0.5 0.8 -0.6
v 0.5 0.8 -0.8
v 0.5 0.8 -0.9
v 0.5 0.8 -1
v 0.5 0.9 1
v 0.5 0.9 0.9
v 0.5 0.9 0.7
v 0.5 0.9 0.6
v 0.5 0.9 0.4
v 0.5 0.9 0.2
v 0.5 0.9 0.1
v 0.5 0.9 0
v 0.5 0.9 -0.1
v 0.5 0.9 -0.2
v 0.5 0.9 -0.3
v 0.5 0.9 -0.4
v 0.5 0.9 -0.6
v 0.5 0.9 -0.8
v 0.5 0.9 -0.9
v 0.5 0.9 -1
v 0.5 1 0.7
v 0.5 1 0.5
v 0.5 1 0.4
v 0.5 1 0.3
v 0.5 1 0.2
v 0.5 1 0.1
v 0.5 1 -0.1
v 0.5 1 -0.2
v 0.5 1 -0.3
v 0.5 1 -0.4
v 0.5 1 -0.5
v 0.5 1 -0.6
v 0.5 1.1 0.9
v 0.5 1.1 0.7
v 0.5 1.1 0.5
v 0.5 1.1 0.4
v 0.5 1.1 0.3
v 0.5 1.1 -0.2
v 0.5 1.1 -0.3
v 0.5 1.1 -0.4
v 0.5 1.1 -0.5
v 0.5 1.1 -0.6
v 0.5 1.1 -0.8
v 0.5 1.1 -0.9
v 0.5 1.2 1
v 0.5 1.2 0.9
v 0.5 1.2 0.8
v 0.5 1.2 0.7
v 0.5 1.2 0.4
v 0.5 1.2 0.3
v 0.5 1.2 0.2
v 0.5 1.2 0.1
v 0.5 1.2 0
v 0.5 1.2 -0.2
v 0.5 1.2 -0.3
v 0.5 1.2 -0.4
v 0.5 1.2 -0.5
v 0.5 1.2 -0.6
v 0.5 1.2 -0.8
v 0.5 1.2 -0.9
v 0.5 1.3 1
v 0.5 1.3 0.9
v 0.5 1.3 0.8
v 0.5 1.3 0.7
v 0.5 1.3 0.4
v 0.5 1.3 0.3
v 0.5 1.3 0.2
v 0.5 1.3 0.1
v 0.5 1.3 -0.1
v 0.5 1.3 -0.2
v 0.5 1.3 -0.3
v 0.5 1.3 -0.5
v 0.5 1.3 -0.6
v 0.5 1.3 -0.7
v 0.5 1.3 -0.9
v 0.5 1.4 1
v 0.5 1.4 0.9
v 0.5 1.4 0.7
v 0.5 1.4 0.6
v 0.5 1.4 0.4
v 0.5 1.4 0.3
v 0.5 1.4 -0.5
v 0.5 1.4 -0.6
v 0.5 1.4 -0.7
v 0.5 1.4 -0.9
v 0.5 1.4 -1
v 0.5 1.5 0.9
v 0.5 1.5 0.8
v 0.5 1.5 0.7
v 0.5 1.5 0.6
v 0.5 1.5 0.4
v 0.5 1.5 0.3
v 0.5 1.5 0.2
v 0.5 1.5 -0.1
v 0.5 1.5 -0.2
v 0.5 1.5 -0.4
v 0.5 1.5 -0.5
v 0.5 1.5 -0.7
v 0.5 1.5 -0.8
v 0.5 1.6 0.7
v 0.5 1.6 0.6
v 0.5 1.6 0.4
v 0.5 1.6 0.3
v 0.5 1.6 0.2
v 0.5 1.6 0.1
v 0.5 1.6 0
v 0.5 1.6 -0.1
v 0.5 1.6 -0.4
v 0.5 1.6 -0.5
v 0.5 1.6 -0.6
v 0.5 1.6 -0.8
v 0.5 1.6 -0.9
v 0.5 1.7 0.7
v 0.5 1.7 0.6
v 0.5 1.7 0.5
v 0.5 1.7 0.4
v 0.5 1.7 0.3
v 0.5 1.7 0.1
v 0.5 1.7 0
v 0.5 1.7 -0.1
v 0.5 1.7 -0.6
v 0.5 1.7 -0.7
v 0.5 1.8 0.8
v 0.5 1.8 0.7
v 0.5 1.8 0.6
v 0.5 1.8 0.5
v 0.5 1.8 0.3
v 0.5 1.8 -0.3
v 0.5 1.8 -0.4
v 0.5 1.8 -0.6
v 0.5 1.8 -0.7
v 0.5 1.9 1
v 0.5 1.9 0.9
v 0.5 1.9 0.8
v 0.5 1.9 0.7
v 0.5 1.9 0.4
v 0.5 1.9 0.3
v 0.5 1.9 -0.3
v 0.5 1.9 -0.4
v 0.5 1.9 -0.6
v 0.5 1.9 -0.7
v 0.5 1.9 -0.9
v 0.5 1.9 -1
v 0.5 2 0.9
v 0.5 2 0.8
v 0.5 2 0.7
v 0.5 2 -0.8
v 0.5 2 -0.9
v 0.5 2.1 1
v 0.5 2.1 0.8
v 0.5 2.1 0.4
v 0.5 2.1 -0.4
v 0.5 2.1 -0.8
v 0.5 2.1 -1
v -0.5 0.6 1
v -0.5 0.8 1
v -0.5 0.9 1
v -0.5 1.2 1
v -0.5 1.3 1
v -0.5 1.4 1
v -0.5 1.9 1
v -0.5 2.1 1
v -0.4 0.8 1
v -0.4 0.9 1
v -0.4 1.3 1
v -0.4 1.4 1
v -0.4 1.8 1
v -0.4 1.9 1
v -0.3 0.7 1
v -0.3 1 1
v -0.3 1.1 1
v -0.3 1.2 1
v -0.3 1.7 1
v -0.3 1.8 1
v -0.2 0.6 1
v -0.2 0.7 1
v -0.2 1.1 1
v -0.2 1.2 1
v -0.2 1.4 1
v -0.2 1.7 1
v -0.1 0.6 1
v -0.1 0.7 1
v -0.1 1 1
v -0.1 1.1 1
v -0.1 1.2 1
v -0.1 1.4 1
v 0 0.7 1
v 0 0.8 1
v 0 1 1
v 0 1.1 1
v 0.1 0.6 1
v 0.1 0.8 1
v 0.1 1 1
v 0.1 1.1 1
v 0.1 1.2 1
v 0.1 1.4 1
v 0.2 0.6 1
v 0.2 0.7 1
v 0.2 1.4 1
v 0.2 1.7 1
v 0.3 0.7 1
v 0.3 1 1
v 0.3 1.1 1
v 0.3 1.2 1
v 0.3 1.7 1
v 0.3 1.8 1
v 0.4 0.8 1
v 0.4 0.9 1
v 0.4 1.3 1
v 0.4 1.4 1
v 0.4 1.8 1
v 0.4 1.9 1
v 0.5 0.6 1
v 0.5 0.8 1
v 0.5 0.9 1
v 0.5 1.2 1
v 0.5 1.3 1
v 0.5 1.4 1
v 0.5 1.9 1
v 0.5 2.1 1
v -0.4 1.8 -0.3
v -0.4 1.9 -0.3
v 0.4 1.8 -0.3
v 0.4 1.9 -0.3
v 0.5 1.8 -0.3
v 0.5 1.9 -0.3
v -0.4 1.9 -0.4
v -0.4 2 -0.4
v -0.4 2.1 -0.4
v -0.2 2 -0.4
v -0.2 2.1 -0.4
v 0.2 2 -0.4
v 0.2 2.1 -0.4
v 0.4 1.9 -0.4
v 0.4 2 -0.4
v 0.5 1.9 -0.4
v 0.5 2.1 -0.4
v -0.4 1.9 0.4
v -0.4 2 0.4
v -0.4 2.1 0.4
v -0.2 2 0.4
v -0.2 2.1 0.4
v 0.2 2 0.4
v 0.2 2.1 0.4
v 0.4 1.9 0.4
v 0.4 2 0.4
v 0.5 1.9 0.4
v 0.5 2.1 0.4
v -0.4 1.8 0.3
v -0.4 1.9 0.3
v 0.4 1.8 0.3
v 0.4 1.9 0.3
v 0.5 1.8 0.3
v 0.5 1.9 0.3
v -0.5 0.6 -1
v -0.5 0.8 -1
v -0.5 0.9 -1
v -0.5 1.4 -1
v -0.5 1.9 -1
v -0.5 2.1 -1
v -0.4 0.8 -1
v -0.4 0.9 -1
v -0.4 1.2 -1
v -0.4 1.4 -1
v -0.4 1.6 -1
v -0.4 1.7 -1
v -0.4 1.8 -1
v -0.4 1.9 -1
v -0.3 0.7 -1
v -0.3 1 -1
v -0.3 1.1 -1
v -0.3 1.2 -1
v -0.3 1.6 -1
v -0.3 1.7 -1
v -0.3 1.8 -1
v -0.2 0.6 -1
v -0.2 0.7 -1
v -0.2 1 -1
v -0.2 1.1 -1
v -0.2 1.2 -1
v -0.2 1.4 -1
v -0.2 1.7 -1
v -0.1 0.6 -1
v -0.1 0.7 -1
v -0.1 0.8 -1
v -0.1 0.9 -1
v -0.1 1 -1
v -0.1 1.1 -1
v -0.1 1.2 -1
v -0.1 1.4 -1
v 0 0.7 -1
v 0 0.8 -1
v 0 1 -1
v 0 1.1 -1
v 0.1 0.6 -1
v 0.1 0.9 -1
v 0.1 1.2 -1
v 0.1 1.4 -1
v 0.2 0.6 -1
v 0.2 0.7 -1
v 0.2 1 -1
v 0.2 1.1 -1
v 0.2 1.4 -1
v 0.2 1.7 -1
v 0.3 0.7 -1
v 0.3 1 -1
v 0.3 1.1 -1
v 0.3 1.2 -1
v 0.3 1.6 -1
v 0.3 1.7 -1
v 0.3 1.8 -1
v 0.4 0.8 -1
v 0.4 0.9 -1
v 0.4 1.2 -1
v 0.4 1.4 -1
v 0.4 1.6 -1
v 0.4 1.7 -1
v 0.4 1.8 -1
v 0.4 1.9 -1
v 0.5 0.6 -1
v 0.5 0.8 -1
v 0.5 0.9 -1
v 0.5 1.4 -1
v 0.5 1.9 -1
v 0.5 2.1 -1
v -0.5 0.6 1
v -0.2 0.6 1
v -0.1 0.6 1
v 0.1 0.6 1
v 0.2 0.6 1
v 0.5 0.6 1
v -0.5 0.6 0.9
v -0.4 0.6 0.9
v -0.2 0.6 0.9
v -0.1 0.6 0.9
v 0.1 0.6 0.9
v 0.2 0.6 0.9
v 0.4 0.6 0.9
v 0.5 0.6 0.9
v -0.5 0.6 0.6
v -0.4 0.6 0.6
v 0.4 0.6 0.6
v 0.5 0.6 0.6
v -0.5 0.6 0.3
v -0.4 0.6 0.3
v 0.4 0.6 0.3
v 0.5 0.6 0.3
v -0.5 0.6 -0.3
v -0.4 0.6 -0.3
v 0.4 0.6 -0.3
v 0.5 0.6 -0.3
v -0.5 0.6 -0.6
v -0.4 0.6 -0.6
v 0.4 0.6 -0.6
v 0.5 0.6 -0.6
v -0.5 0.6 -0.8
v -0.4 0.6 -0.8
v 0.4 0.6 -0.8
v 0.5 0.6 -0.8
v -0.4 0.6 -0.9
v -0.2 0.6 -0.9
v -0.1 0.6 -0.9
v 0.1 0.6 -0.9
v 0.2 0.6 -0.9
v 0.4 0.6 -0.9
v -0.5 0.6 -1
v -0.2 0.6 -1
v -0.1 0.6 -1
v 0.1 0.6 -1
v 0.2 0.6 -1
v 0.5 0.6 -1
v -0.4 1.8 0.3
v 0.4 1.8 0.3
v 0.5 1.8 0.3
v -0.4 1.8 0.1
v -0.4 1.8 0
v -0.4 1.8 -0.3
v 0.4 1.8 -0.3
v 0.5 1.8 -0.3
v -0.4 1.9 0.4
v 0.4 1.9 0.4
v 0.5 1.9 0.4
v -0.4 1.9 0.3
v 0.4 1.9 0.3
v 0.5 1.9 0.3
v -0.4 1.9 -0.3
v 0.4 1.9 -0.3
v 0.5 1.9 -0.3
v -0.4 1.9 -0.4
v 0.4 1.9 -0.4
v 0.5 1.9 -0.4
v -0.5 2.1 1
v 0.5 2.1 1
v -0.5 2.1 0.8
v -0.4 2.1 0.8
v 0.4 2.1 0.8
v 0.5 2.1 0.8
v 0.3 2.1 0.7
v 0.4 2.1 0.7
v -0.4 2.1 0.6
v -0.3 2.1 0.6
v -0.3 2.1 0.5
v -0.2 2.1 0.5
v 0.2 2.1 0.5
v 0.3 2.1 0.5
v -0.4 2.1 0.4
v -0.2 2.1 0.4
v 0.2 2.1 0.4
v 0.5 2.1 0.4
v -0.5 2.1 0.3
v -0.4 2.1 0.3
v -0.5 2.1 0.2
v -0.4 2.1 0.2
v -0.4 2.1 -0.4
v -0.2 2.1 -0.4
v 0.2 2.1 -0.4
v 0.5 2.1 -0.4
v -0.4 2.1 -0.6
v -0.2 2.1 -0.6
v 0.2 2.1 -0.6
v 0.3 2.1 -0.6
v 0.3 2.1 -0.7
v 0.4 2.1 -0.7
v -0.5 2.1 -0.8
v -0.4 2.1 -0.8
v 0.4 2.1 -0.8
v 0.5 2.1 -0.8
v -0.5 2.1 -1
v 0.5 2.1 -1

# faces
f 9/5/1 2/5/1 1/5/1
f 9/4/1 3/4/1 2/4/1
f 10/4/1 3/4/1 9/4/1
f 11/3/1 4/3/1 3/3/1
f 11/4/1 3/4/1 10/4/1
f 12/3/1 4/3/1 11/3/1
f 13/6/1 5/6/1 4/6/1
f 13/3/1 4/3/1 12/3/1
f 14/6/1 5/6/1 13/6/1
f 15/6/1 5/6/1 14/6/1
f 16/3/1 6/3/1 5/3/1
f 16/6/1 5/6/1 15/6/1
f 17/5/1 8/5/1 7/5/1
f 17/4/1 7/4/1 6/4/1
f 18/5/1 8/5/1 17/5/1
f 19/5/1 10/5/1 9/5/1
f 19/5/1 9/5/1 1/5/1
f 20/4/1 12/4/1 11/4/1
f 20/5/1 10/5/1 19/5/1
f 20/4/1 11/4/1 10/4/1
f 21/4/1 12/4/1 20/4/1
f 22/3/1 13/3/1 12/3/1
f 22/4/1 12/4/1 21/4/1
f 22/3/1 14/3/1 13/3/1
f 23/3/1 14/3/1 22/3/1
f 24/6/1 15/6/1 14/6/1
f 24/3/1 14/3/1 23/3/1
f 25/6/1 15/6/1 24/6/1
f 26/3/1 16/3/1 15/3/1
f 26/6/1 15/6/1 25/6/1
f 27/3/1 6/3/1 16/3/1
f 27/3/1 16/3/1 26/3/1
f 28/4/1 18/4/1 17/4/1
f 28/3/1 6/3/1 27/3/1
f 28/4/1 17/4/1 6/4/1
f 29/4/1 18/4/1 28/4/1
f 30/5/1 8/5/1 18/5/1
f 30/4/1 18/4/1 29/4/1
f 31/5/1 8/5/1 30/5/1
f 32/4/1 21/4/1 20/4/1
f 32/4/1 20/4/1 19/4/1
f 33/4/1 21/4/1 32/4/1
f 34/4/1 21/4/1 33/4/1
f 35/3/1 23/3/1 22/3/1
f 35/4/1 21/4/1 34/4/1
f 35/3/1 22/3/1 21/3/1
f 36/6/1 24/6/1 23/6/1
f 36/3/1 23/3/1 35/3/1
f 37/3/1 25/3/1 24/3/1
f 37/6/1 24/6/1 36/6/1
f 38/6/1 26/6/1 25/6/1
f 38/3/1 25/3/1 37/3/1
f 38/6/1 27/6/1 26/6/1
f 39/6/1 27/6/1 38/6/1
f 40/6/1 27/6/1 39/6/1
f 41/6/1 27/6/1 40/6/1
f 42/3/1 29/3/1 28/3/1
f 42/6/1 27/6/1 41/6/1
f 42/3/1 28/3/1 27/3/1
f 43/3/1 29/3/1 42/3/1
f 44/3/1 29/3/1 43/3/1
f 45/4/1 31/4/1 30/4/1
f 45/3/1 29/3/1 44/3/1
f 45/4/1 30/4/1 29/4/1
f 46/4/1 31/4/1 45/4/1
f 47/4/1 31/4/1 46/4/1
f 48/3/1 37/3/1 36/3/1
f 48/3/1 36/3/1 35/3/1
f 48/4/1 34/4/1 33/4/1
f 48/3/1 35/3/1 34/3/1
f 49/3/1 37/3/1 48/3/1
f 50/3/1 37/3/1 49/3/1
f 51/3/1 37/3/1 50/3/1
f 52/6/1 38/6/1 37/6/1
f 52/3/1 37/3/1 51/3/1
f 52/6/1 39/6/1 38/6/1
f 53/6/1 39/6/1 52/6/1
f 54/6/1 41/6/1 40/6/1
f 54/3/1 40/3/1 39/3/1
f 55/3/1 42/3/1 41/3/1
f 55/6/1 41/6/1 54/6/1
f 56/6/1 43/6/1 42/6/1
f 56/3/1 42/3/1 55/3/1
f 57/3/1 44/3/1 43/3/1
f 57/6/1 43/6/1 56/6/1
f 58/3/1 44/3/1 57/3/1
f 59/4/1 46/4/1 45/4/1
f 59/3/1 44/3/1 58/3/1
f 59/4/1 45/4/1 44/4/1
f 60/5/1 33/5/1 32/5/1
f 60/4/1 48/4/1 33/4/1
f 60/4/1 49/4/1 48/4/1
f 61/4/1 49/4/1 60/4/1
f 62/3/1 50/3/1 49/3/1
f 62/4/1 49/4/1 61/4/1
f 63/4/1 51/4/1 50/4/1
f 63/3/1 50/3/1 62/3/1
f 64/3/1 53/3/1 52/3/1
f 64/4/1 51/4/1 63/4/1
f 64/3/1 52/3/1 51/3/1
f 65/3/1 58/3/1 57/3/1
f 65/3/1 57/3/1 56/3/1
f 65/3/1 56/3/1 55/3/1
f 65/3/1 55/3/1 54/3/1
f 66/3/1 58/3/1 65/3/1
f 67/3/1 58/3/1 66/3/1
f 68/4/1 59/4/1 58/4/1
f 68/3/1 58/3/1 67/3/1
f 69/4/1 46/4/1 59/4/1
f 69/4/1 59/4/1 68/4/1
f 70/4/1 46/4/1 69/4/1
f 71/5/1 47/5/1 46/5/1
f 71/4/1 46/4/1 70/4/1
f 72/5/1 60/5/1 32/5/1
f 72/5/1 61/5/1 60/5/1
f 73/5/1 61/5/1 72/5/1
f 74/5/1 61/5/1 73/5/1
f 75/4/1 63/4/1 62/4/1
f 75/5/1 61/5/1 74/5/1
f 75/4/1 62/4/1 61/4/1
f 76/3/1 64/3/1 63/3/1
f 76/4/1 63/4/1 75/4/1
f 77/3/1 53/3/1 64/3/1
f 77/3/1 64/3/1 76/3/1
f 78/3/1 53/3/1 77/3/1
f 79/6/1 39/6/1 53/6/1
f 79/3/1 53/3/1 78/3/1
f 80/3/1 54/3/1 39/3/1
f 80/6/1 39/6/1 79/6/1
f 80/3/1 65/3/1 54/3/1
f 81/4/1 66/4/1 65/4/1
f 81/3/1 65/3/1 80/3/1
f 82/3/1 67/3/1 66/3/1
f 82/4/1 66/4/1 81/4/1
f 83/4/1 68/4/1 67/4/1
f 83/3/1 67/3/1 82/3/1
f 84/3/1 69/3/1 68/3/1
f 84/4/1 68/4/1 83/4/1
f 85/4/1 70/4/1 69/4/1
f 85/3/1 69/3/1 84/3/1
f 86/5/1 71/5/1 70/5/1
f 86/4/1 70/4/1 85/4/1
f 87/5/1 47/5/1 71/5/1
f 87/5/1 71/5/1 86/5/1
f 88/1/1 73/1/1 72/1/1
f 89/5/1 74/5/1 73/5/1
f 89/1/1 73/1/1 88/1/1
f 90/4/1 76/4/1 75/4/1
f 90/5/1 74/5/1 89/5/1
f 90/4/1 75/4/1 74/4/1
f 90/4/1 77/4/1 76/4/1
f 91/4/1 77/4/1 90/4/1
f 92/4/1 77/4/1 91/4/1
f 93/3/1 78/3/1 77/3/1
f 93/4/1 77/4/1 92/4/1
f 94/4/1 79/4/1 78/4/1
f 94/3/1 78/3/1 93/3/1
f 95/3/1 82/3/1 81/3/1
f 95/4/1 79/4/1 94/4/1
f 95/3/1 81/3/1 80/3/1
f 95/3/1 80/3/1 79/3/1
f 96/3/1 82/3/1 95/3/1
f 97/3/1 82/3/1 96/3/1
f 98/4/1 84/4/1 83/4/1
f 98/3/1 82/3/1 97/3/1
f 98/4/1 87/4/1 86/4/1
f 98/4/1 86/4/1 85/4/1
f 98/4/1 85/4/1 84/4/1
f 98/4/1 83/4/1 82/4/1
f 99/4/1 87/4/1 98/4/1
f 100/4/1 87/4/1 99/4/1
f 101/4/1 87/4/1 100/4/1
f 102/5/1 47/5/1 87/5/1
f 102/4/1 87/4/1 101/4/1
f 103/5/1 89/5/1 88/5/1
f 103/5/1 91/5/1 90/5/1
f 103/5/1 90/5/1 89/5/1
f 104/5/1 91/5/1 103/5/1
f 105/4/1 92/4/1 91/4/1
f 105/5/1 91/5/1 104/5/1
f 106/4/1 92/4/1 105/4/1
f 107/3/1 93/3/1 92/3/1
f 107/4/1 92/4/1 106/4/1
f 108/4/1 96/4/1 95/4/1
f 108/3/1 93/3/1 107/3/1
f 108/4/1 95/4/1 94/4/1
f 108/4/1 94/4/1 93/4/1
f 109/5/1 100/5/1 99/5/1
f 109/4/1 98/4/1 97/4/1
f 109/4/1 99/4/1 98/4/1
f 110/4/1 101/4/1 100/4/1
f 110/5/1 100/5/1 109/5/1
f 111/5/1 102/5/1 101/5/1
f 111/4/1 101/4/1 110/4/1
f 112/5/1 47/5/1 102/5/1
f 112/5/1 102/5/1 111/5/1
f 113/5/1 47/5/1 112/5/1
f 114/1/1 104/1/1 103/1/1
f 114/5/1 105/5/1 104/5/1
f 114/5/1 106/5/1 105/5/1
f 115/5/1 106/5/1 114/5/1
f 116/5/1 106/5/1 115/5/1
f 117/4/1 107/4/1 106/4/1
f 117/5/1 106/5/1 116/5/1
f 117/4/1 108/4/1 107/4/1
f 118/4/1 108/4/1 117/4/1
f 119/4/1 96/4/1 108/4/1
f 119/4/1 108/4/1 118/4/1
f 120/4/1 96/4/1 119/4/1
f 121/3/1 97/3/1 96/3/1
f 121/4/1 96/4/1 120/4/1
f 122/4/1 110/4/1 109/4/1
f 122/3/1 97/3/1 121/3/1
f 122/4/1 109/4/1 97/4/1
f 123/4/1 110/4/1 122/4/1
f 124/4/1 110/4/1 123/4/1
f 125/5/1 111/5/1 110/5/1
f 125/5/1 112/5/1 111/5/1
f 126/5/1 112/5/1 125/5/1
f 127/5/1 116/5/1 115/5/1
f 127/4/1 117/4/1 116/4/1
f 128/5/1 118/5/1 117/5/1
f 128/4/1 117/4/1 127/4/1
f 129/4/1 119/4/1 118/4/1
f 129/5/1 118/5/1 128/5/1
f 130/5/1 120/5/1 119/5/1
f 130/4/1 119/4/1 129/4/1
f 131/4/1 121/4/1 120/4/1
f 131/5/1 120/5/1 130/5/1
f 131/4/1 122/4/1 121/4/1
f 131/4/1 123/4/1 122/4/1
f 132/4/1 123/4/1 131/4/1
f 133/4/1 123/4/1 132/4/1
f 134/4/1 123/4/1 133/4/1
f 135/5/1 124/5/1 123/5/1
f 135/4/1 123/4/1 134/4/1
f 136/4/1 110/4/1 124/4/1
f 136/5/1 124/5/1 135/5/1
f 137/5/1 125/5/1 110/5/1
f 137/4/1 110/4/1 136/4/1
f 138/5/1 112/5/1 126/5/1
f 138/1/1 126/1/1 125/1/1
f 139/1/1 113/1/1 112/1/1
f 139/5/1 112/5/1 138/5/1
f 140/5/1 129/5/1 128/5/1
f 140/5/1 130/5/1 129/5/1
f 140/5/1 128/5/1 127/5/1
f 140/5/1 127/5/1 115/5/1
f 141/5/1 130/5/1 140/5/1
f 142/5/1 130/5/1 141/5/1
f 143/5/1 130/5/1 142/5/1
f 144/4/1 132/4/1 131/4/1
f 144/5/1 130/5/1 143/5/1
f 144/4/1 131/4/1 130/4/1
f 145/5/1 133/5/1 132/5/1
f 145/4/1 132/4/1 144/4/1
f 146/4/1 134/4/1 133/4/1
f 146/5/1 133/5/1 145/5/1
f 147/5/1 135/5/1 134/5/1
f 147/4/1 134/4/1 146/4/1
f 147/5/1 137/5/1 136/5/1
f 147/5/1 136/5/1 135/5/1
f 148/5/1 125/5/1 137/5/1
f 148/5/1 137/5/1 147/5/1
f 149/1/1 138/1/1 125/1/1
f 149/5/1 125/5/1 148/5/1
f 149/1/1 139/1/1 138/1/1
f 150/1/1 115/1/1 114/1/1
f 150/5/1 140/5/1 115/5/1
f 151/1/1 141/1/1 140/1/1
f 151/5/1 140/5/1 150/5/1
f 152/5/1 142/5/1 141/5/1
f 152/1/1 141/1/1 151/1/1
f 153/1/1 143/1/1 142/1/1
f 153/5/1 142/5/1 152/5/1
f 154/5/1 146/5/1 145/5/1
f 154/5/1 147/5/1 146/5/1
f 154/5/1 148/5/1 147/5/1
f 154/5/1 144/5/1 143/5/1
f 154/5/1 145/5/1 144/5/1
f 155/5/1 148/5/1 154/5/1
f 156/5/1 148/5/1 155/5/1
f 157/1/1 149/1/1 148/1/1
f 157/5/1 148/5/1 156/5/1
f 158/1/1 139/1/1 149/1/1
f 158/1/1 149/1/1 157/1/1
f 159/1/1 153/1/1 152/1/1
f 159/1/1 151/1/1 150/1/1
f 159/1/1 150/1/1 114/1/1
f 159/1/1 152/1/1 151/1/1
f 159/1/1 114/1/1 103/1/1
f 160/1/1 153/1/1 159/1/1
f 161/1/1 153/1/1 160/1/1
f 162/1/1 153/1/1 161/1/1
f 163/1/1 143/1/1 153/1/1
f 163/1/1 153/1/1 162/1/1
f 163/5/1 154/5/1 143/5/1
f 164/5/1 154/5/1 163/5/1
f 165/5/1 154/5/1 164/5/1
f 166/1/1 155/1/1 154/1/1
f 166/5/1 154/5/1 165/5/1
f 167/5/1 156/5/1 155/5/1
f 167/1/1 155/1/1 166/1/1
f 168/5/1 156/5/1 167/5/1
f 169/5/1 156/5/1 168/5/1
f 170/1/1 157/1/1 156/1/1
f 170/5/1 156/5/1 169/5/1
f 171/5/1 158/5/1 157/5/1
f 171/1/1 157/1/1 170/1/1
f 172/1/1 139/1/1 158/1/1
f 172/5/1 158/5/1 171/5/1
f 173/1/1 113/1/1 139/1/1
f 173/1/1 139/1/1 172/1/1
f 174/1/1 113/1/1 173/1/1
f 175/1/1 161/1/1 160/1/1
f 175/2/1 160/2/1 159/2/1
f 176/2/1 162/2/1 161/2/1
f 176/1/1 161/1/1 175/1/1
f 177/1/1 163/1/1 162/1/1
f 177/2/1 162/2/1 176/2/1
f 177/1/1 164/1/1 163/1/1
f 178/1/1 166/1/1 165/1/1
f 178/5/1 167/5/1 166/5/1
f 179/1/1 168/1/1 167/1/1
f 179/5/1 167/5/1 178/5/1
f 180/5/1 169/5/1 168/5/1
f 180/1/1 168/1/1 179/1/1
f 181/1/1 172/1/1 171/1/1
f 181/5/1 169/5/1 180/5/1
f 181/1/1 171/1/1 170/1/1
f 181/1/1 170/1/1 169/1/1
f 181/1/1 173/1/1 172/1/1
f 182/1/1 173/1/1 181/1/1
f 183/2/1 174/2/1 173/2/1
f 183/1/1 173/1/1 182/1/1
f 184/2/1 175/2/1 159/2/1
f 184/2/1 176/2/1 175/2/1
f 185/1/1 177/1/1 176/1/1
f 185/2/1 176/2/1 184/2/1
f 186/1/1 164/1/1 177/1/1
f 186/1/1 177/1/1 185/1/1
f 186/5/1 165/5/1 164/5/1
f 187/1/1 180/1/1 179/1/1
f 187/5/1 165/5/1 186/5/1
f 187/1/1 178/1/1 165/1/1
f 187/1/1 181/1/1 180/1/1
f 187/1/1 182/1/1 181/1/1
f 187/1/1 179/1/1 178/1/1
f 188/2/1 183/2/1 182/2/1
f 188/1/1 182/1/1 187/1/1
f 189/2/1 174/2/1 183/2/1
f 189/2/1 183/2/1 188/2/1
f 190/5/2 191/5/2 195/5/2
f 195/5/2 191/5/2 196/5/2
f 191/1/2 192/1/2 197/1/2
f 196/5/2 191/5/2 197/5/2
f 192/5/2 193/5/2 198/5/2
f 197/1/2 192/1/2 198/1/2
f 198/5/2 193/5/2 199/5/2
f 199/5/2 193/5/2 200/5/2
f 194/1/2 195/1/2 202/1/2
f 196/1/2 197/1/2 203/1/2
f 197/5/2 198/5/2 203/5/2
f 198/1/2 199/1/2 204/1/2
f 203/5/2 198/5/2 204/5/2
f 199/5/2 200/5/2 205/5/2
f 204/1/2 199/1/2 205/1/2
f 200/1/2 201/1/2 206/1/2
f 205/5/2 200/5/2 206/5/2
f 206/1/2 201/1/2 207/1/2
f 202/1/2 195/1/2 208/1/2
f 195/5/2 196/5/2 209/5/2
f 208/1/2 195/1/2 209/1/2
f 204/1/2 205/1/2 210/1/2
f 209/5/2 196/5/2 210/5/2
f 196/1/2 203/1/2 210/1/2
f 206/1/2 207/1/2 210/1/2
f 205/1/2 206/1/2 210/1/2
f 203/1/2 204/1/2 210/1/2
f 210/1/2 207/1/2 211/1/2
f 212/5/2 213/5/2 220/5/2
f 213/4/2 214/4/2 220/4/2
f 220/4/2 214/4/2 221/4/2
f 214/3/2 215/3/2 222/3/2
f 221/4/2 214/4/2 222/4/2
f 222/3/2 215/3/2 223/3/2
f 215/6/2 216/6/2 224/6/2
f 223/3/2 215/3/2 224/3/2
f 224/6/2 216/6/2 225/6/2
f 225/6/2 216/6/2 226/6/2
f 216/3/2 217/3/2 227/3/2
f 226/6/2 216/6/2 227/6/2
f 218/5/2 219/5/2 228/5/2
f 217/4/2 218/4/2 228/4/2
f 228/5/2 219/5/2 229/5/2
f 220/5/2 221/5/2 230/5/2
f 212/5/2 220/5/2 230/5/2
f 222/4/2 223/4/2 231/4/2
f 230/5/2 221/5/2 231/5/2
f 221/4/2 222/4/2 231/4/2
f 231/4/2 223/4/2 232/4/2
f 223/3/2 224/3/2 233/3/2
f 232/4/2 223/4/2 233/4/2
f 224/3/2 225/3/2 233/3/2
f 233/3/2 225/3/2 234/3/2
f 225/6/2 226/6/2 235/6/2
f 234/3/2 225/3/2 235/3/2
f 235/6/2 226/6/2 236/6/2
f 226/3/2 227/3/2 237/3/2
f 236/6/2 226/6/2 237/6/2
f 227/3/2 217/3/2 238/3/2
f 237/3/2 227/3/2 238/3/2
f 228/4/2 229/4/2 239/4/2
f 238/3/2 217/3/2 239/3/2
f 217/4/2 228/4/2 239/4/2
f 239/4/2 229/4/2 240/4/2
f 229/5/2 219/5/2 241/5/2
f 240/4/2 229/4/2 241/4/2
f 241/5/2 219/5/2 242/5/2
f 231/4/2 232/4/2 243/4/2
f 230/4/2 231/4/2 243/4/2
f 243/4/2 232/4/2 244/4/2
f 244/4/2 232/4/2 245/4/2
f 233/3/2 234/3/2 246/3/2
f 245/4/2 232/4/2 246/4/2
f 232/3/2 233/3/2 246/3/2
f 234/6/2 235/6/2 247/6/2
f 246/3/2 234/3/2 247/3/2
f 235/3/2 236/3/2 248/3/2
f 247/6/2 235/6/2 248/6/2
f 236/6/2 237/6/2 249/6/2
f 248/3/2 236/3/2 249/3/2
f 237/6/2 238/6/2 249/6/2
f 249/6/2 238/6/2 250/6/2
f 250/6/2 238/6/2 251/6/2
f 251/6/2 238/6/2 252/6/2
f 239/3/2 240/3/2 253/3/2
f 252/6/2 238/6/2 253/6/2
f 238/3/2 239/3/2 253/3/2
f 253/3/2 240/3/2 254/3/2
f 254/3/2 240/3/2 255/3/2
f 241/4/2 242/4/2 256/4/2
f 255/3/2 240/3/2 256/3/2
f 240/4/2 241/4/2 256/4/2
f 256/4/2 242/4/2 257/4/2
f 257/4/2 242/4/2 258/4/2
f 247/3/2 248/3/2 259/3/2
f 246/3/2 247/3/2 259/3/2
f 244/4/2 245/4/2 259/4/2
f 245/3/2 246/3/2 259/3/2
f 259/3/2 248/3/2 260/3/2
f 260/3/2 248/3/2 261/3/2
f 261/3/2 248/3/2 262/3/2
f 248/6/2 249/6/2 263/6/2
f 262/3/2 248/3/2 263/3/2
f 249/6/2 250/6/2 263/6/2
f 263/6/2 250/6/2 264/6/2
f 251/6/2 252/6/2 265/6/2
f 250/3/2 251/3/2 265/3/2
f 252/3/2 253/3/2 266/3/2
f 265/6/2 252/6/2 266/6/2
f 253/6/2 254/6/2 267/6/2
f 266/3/2 253/3/2 267/3/2
f 254/3/2 255/3/2 268/3/2
f 267/6/2 254/6/2 268/6/2
f 268/3/2 255/3/2 269/3/2
f 256/4/2 257/4/2 270/4/2
f 269/3/2 255/3/2 270/3/2
f 255/4/2 256/4/2 270/4/2
f 243/5/2 244/5/2 271/5/2
f 244/4/2 259/4/2 271/4/2
f 259/4/2 260/4/2 271/4/2
f 271/4/2 260/4/2 272/4/2
f 260/3/2 261/3/2 273/3/2
f 272/4/2 260/4/2 273/4/2
f 261/4/2 262/4/2 274/4/2
f 273/3/2 261/3/2 274/3/2
f 263/3/2 264/3/2 275/3/2
f 274/4/2 262/4/2 275/4/2
f 262/3/2 263/3/2 275/3/2
f 268/3/2 269/3/2 276/3/2
f 267/3/2 268/3/2 276/3/2
f 266/3/2 267/3/2 276/3/2
f 265/3/2 266/3/2 276/3/2
f 276/3/2 269/3/2 277/3/2
f 277/3/2 269/3/2 278/3/2
f 269/4/2 270/4/2 279/4/2
f 278/3/2 269/3/2 279/3/2
f 270/4/2 257/4/2 280/4/2
f 279/4/2 270/4/2 280/4/2
f 280/4/2 257/4/2 281/4/2
f 257/5/2 258/5/2 282/5/2
f 281/4/2 257/4/2 282/4/2
f 243/5/2 271/5/2 283/5/2
f 271/5/2 272/5/2 283/5/2
f 283/5/2 272/5/2 284/5/2
f 284/5/2 272/5/2 285/5/2
f 273/4/2 274/4/2 286/4/2
f 285/5/2 272/5/2 286/5/2
f 272/4/2 273/4/2 286/4/2
f 274/3/2 275/3/2 287/3/2
f 286/4/2 274/4/2 287/4/2
f 275/3/2 264/3/2 288/3/2
f 287/3/2 275/3/2 288/3/2
f 288/3/2 264/3/2 289/3/2
f 264/6/2 250/6/2 290/6/2
f 289/3/2 264/3/2 290/3/2
f 250/3/2 265/3/2 291/3/2
f 290/6/2 250/6/2 291/6/2
f 265/3/2 276/3/2 291/3/2
f 276/4/2 277/4/2 292/4/2
f 291/3/2 276/3/2 292/3/2
f 277/3/2 278/3/2 293/3/2
f 292/4/2 277/4/2 293/4/2
f 278/4/2 279/4/2 294/4/2
f 293/3/2 278/3/2 294/3/2
f 279/3/2 280/3/2 295/3/2
f 294/4/2 279/4/2 295/4/2
f 280/4/2 281/4/2 296/4/2
f 295/3/2 280/3/2 296/3/2
f 281/5/2 282/5/2 297/5/2
f 296/4/2 281/4/2 297/4/2
f 282/5/2 258/5/2 298/5/2
f 297/5/2 282/5/2 298/5/2
f 283/1/2 284/1/2 299/1/2
f 284/5/2 285/5/2 300/5/2
f 299/1/2 284/1/2 300/1/2
f 286/4/2 287/4/2 301/4/2
f 300/5/2 285/5/2 301/5/2
f 285/4/2 286/4/2 301/4/2
f 287/4/2 288/4/2 301/4/2
f 301/4/2 288/4/2 302/4/2
f 302/4/2 288/4/2 303/4/2
f 288/3/2 289/3/2 304/3/2
f 303/4/2 288/4/2 304/4/2
f 289/4/2 290/4/2 305/4/2
f 304/3/2 289/3/2 305/3/2
f 292/3/2 293/3/2 306/3/2
f 305/4/2 290/4/2 306/4/2
f 291/3/2 292/3/2 306/3/2
f 290/3/2 291/3/2 306/3/2
f 306/3/2 293/3/2 307/3/2
f 307/3/2 293/3/2 308/3/2
f 294/4/2 295/4/2 309/4/2
f 308/3/2 293/3/2 309/3/2
f 297/4/2 298/4/2 309/4/2
f 296/4/2 297/4/2 309/4/2
f 295/4/2 296/4/2 309/4/2
f 293/4/2 294/4/2 309/4/2
f 309/4/2 298/4/2 310/4/2
f 310/4/2 298/4/2 311/4/2
f 311/4/2 298/4/2 312/4/2
f 298/5/2 258/5/2 313/5/2
f 312/4/2 298/4/2 313/4/2
f 299/5/2 300/5/2 314/5/2
f 301/5/2 302/5/2 314/5/2
f 300/5/2 301/5/2 314/5/2
f 314/5/2 302/5/2 315/5/2
f 302/4/2 303/4/2 316/4/2
f 315/5/2 302/5/2 316/5/2
f 316/4/2 303/4/2 317/4/2
f 303/3/2 304/3/2 318/3/2
f 317/4/2 303/4/2 318/4/2
f 306/4/2 307/4/2 319/4/2
f 318/3/2 304/3/2 319/3/2
f 305/4/2 306/4/2 319/4/2
f 304/4/2 305/4/2 319/4/2
f 310/5/2 311/5/2 320/5/2
f 308/4/2 309/4/2 320/4/2
f 309/4/2 310/4/2 320/4/2
f 311/4/2 312/4/2 321/4/2
f 320/5/2 311/5/2 321/5/2
f 312/5/2 313/5/2 322/5/2
f 321/4/2 312/4/2 322/4/2
f 313/5/2 258/5/2 323/5/2
f 322/5/2 313/5/2 323/5/2
f 323/5/2 258/5/2 324/5/2
f 314/1/2 315/1/2 325/1/2
f 315/5/2 316/5/2 325/5/2
f 316/5/2 317/5/2 325/5/2
f 325/5/2 317/5/2 326/5/2
f 326/5/2 317/5/2 327/5/2
f 317/4/2 318/4/2 328/4/2
f 327/5/2 317/5/2 328/5/2
f 318/4/2 319/4/2 328/4/2
f 328/4/2 319/4/2 329/4/2
f 319/4/2 307/4/2 330/4/2
f 329/4/2 319/4/2 330/4/2
f 330/4/2 307/4/2 331/4/2
f 307/3/2 308/3/2 332/3/2
f 331/4/2 307/4/2 332/4/2
f 320/4/2 321/4/2 333/4/2
f 332/3/2 308/3/2 333/3/2
f 308/4/2 320/4/2 333/4/2
f 333/4/2 321/4/2 334/4/2
f 334/4/2 321/4/2 335/4/2
f 321/5/2 322/5/2 336/5/2
f 322/5/2 323/5/2 336/5/2
f 336/5/2 323/5/2 337/5/2
f 326/5/2 327/5/2 338/5/2
f 327/4/2 328/4/2 338/4/2
f 328/5/2 329/5/2 339/5/2
f 338/4/2 328/4/2 339/4/2
f 329/4/2 330/4/2 340/4/2
f 339/5/2 329/5/2 340/5/2
f 330/5/2 331/5/2 341/5/2
f 340/4/2 330/4/2 341/4/2
f 331/4/2 332/4/2 342/4/2
f 341/5/2 331/5/2 342/5/2
f 332/4/2 333/4/2 342/4/2
f 333/4/2 334/4/2 342/4/2
f 342/4/2 334/4/2 343/4/2
f 343/4/2 334/4/2 344/4/2
f 344/4/2 334/4/2 345/4/2
f 334/5/2 335/5/2 346/5/2
f 345/4/2 334/4/2 346/4/2
f 335/4/2 321/4/2 347/4/2
f 346/5/2 335/5/2 347/5/2
f 321/5/2 336/5/2 348/5/2
f 347/4/2 321/4/2 348/4/2
f 337/5/2 323/5/2 349/5/2
f 336/1/2 337/1/2 349/1/2
f 323/1/2 324/1/2 350/1/2
f 349/5/2 323/5/2 350/5/2
f 339/5/2 340/5/2 351/5/2
f 340/5/2 341/5/2 351/5/2
f 338/5/2 339/5/2 351/5/2
f 326/5/2 338/5/2 351/5/2
f 351/5/2 341/5/2 352/5/2
f 352/5/2 341/5/2 353/5/2
f 353/5/2 341/5/2 354/5/2
f 342/4/2 343/4/2 355/4/2
f 354/5/2 341/5/2 355/5/2
f 341/4/2 342/4/2 355/4/2
f 343/5/2 344/5/2 356/5/2
f 355/4/2 343/4/2 356/4/2
f 344/4/2 345/4/2 357/4/2
f 356/5/2 344/5/2 357/5/2
f 345/5/2 346/5/2 358/5/2
f 357/4/2 345/4/2 358/4/2
f 347/5/2 348/5/2 358/5/2
f 346/5/2 347/5/2 358/5/2
f 348/5/2 336/5/2 359/5/2
f 358/5/2 348/5/2 359/5/2
f 336/1/2 349/1/2 360/1/2
f 359/5/2 336/5/2 360/5/2
f 349/1/2 350/1/2 360/1/2
f 325/1/2 326/1/2 361/1/2
f 326/5/2 351/5/2 361/5/2
f 351/1/2 352/1/2 362/1/2
f 361/5/2 351/5/2 362/5/2
f 352/5/2 353/5/2 363/5/2
f 362/1/2 352/1/2 363/1/2
f 353/1/2 354/1/2 364/1/2
f 363/5/2 353/5/2 364/5/2
f 356/5/2 357/5/2 365/5/2
f 357/5/2 358/5/2 365/5/2
f 358/5/2 359/5/2 365/5/2
f 354/5/2 355/5/2 365/5/2
f 355/5/2 356/5/2 365/5/2
f 365/5/2 359/5/2 366/5/2
f 366/5/2 359/5/2 367/5/2
f 359/1/2 360/1/2 368/1/2
f 367/5/2 359/5/2 368/5/2
f 360/1/2 350/1/2 369/1/2
f 368/1/2 360/1/2 369/1/2
f 363/1/2 364/1/2 370/1/2
f 361/1/2 362/1/2 370/1/2
f 325/1/2 361/1/2 370/1/2
f 362/1/2 363/1/2 370/1/2
f 314/1/2 325/1/2 370/1/2
f 370/1/2 364/1/2 371/1/2
f 371/1/2 364/1/2 372/1/2
f 372/1/2 364/1/2 373/1/2
f 364/1/2 354/1/2 374/1/2
f 373/1/2 364/1/2 374/1/2
f 354/5/2 365/5/2 374/5/2
f 374/5/2 365/5/2 375/5/2
f 366/5/2 367/5/2 376/5/2
f 367/1/2 368/1/2 377/1/2
f 376/5/2 367/5/2 377/5/2
f 368/5/2 369/5/2 378/5/2
f 377/1/2 368/1/2 378/1/2
f 369/1/2 350/1/2 379/1/2
f 378/5/2 369/5/2 379/5/2
f 350/1/2 324/1/2 380/1/2
f 379/1/2 350/1/2 380/1/2
f 380/1/2 324/1/2 381/1/2
f 371/1/2 372/1/2 382/1/2
f 370/2/2 371/2/2 382/2/2
f 372/2/2 373/2/2 383/2/2
f 382/1/2 372/1/2 383/1/2
f 373/1/2 374/1/2 384/1/2
f 383/2/2 373/2/2 384/2/2
f 378/1/2 379/1/2 385/1/2
f 377/1/2 378/1/2 385/1/2
f 379/1/2 380/1/2 385/1/2
f 380/2/2 381/2/2 386/2/2
f 385/1/2 380/1/2 386/1/2
f 370/2/2 382/2/2 387/2/2
f 382/2/2 383/2/2 387/2/2
f 383/1/2 384/1/2 388/1/2
f 387/2/2 383/2/2 388/2/2
f 384/1/2 374/1/2 389/1/2
f 388/1/2 384/1/2 389/1/2
f 377/1/2 385/1/2 390/1/2
f 385/2/2 386/2/2 391/2/2
f 390/1/2 385/1/2 391/1/2
f 386/2/2 381/2/2 392/2/2
f 391/2/2 386/2/2 392/2/2
f 401/5/3 394/5/3 393/5/3
f 401/4/3 395/4/3 394/4/3
f 402/5/3 396/5/3 395/5/3
f 402/4/3 395/4/3 401/4/3
f 403/1/3 397/1/3 396/1/3
f 403/5/3 398/5/3 397/5/3
f 404/1/3 399/1/3 398/1/3
f 404/5/3 398/5/3 403/5/3
f 405/1/3 399/1/3 404/1/3
f 406/2/3 400/2/3 399/2/3
f 406/1/3 399/1/3 405/1/3
f 407/5/3 401/5/3 393/5/3
f 407/5/3 402/5/3 401/5/3
f 408/5/3 396/5/3 402/5/3
f 408/5/3 402/5/3 407/5/3
f 409/5/3 396/5/3 408/5/3
f 410/1/3 405/1/3 404/1/3
f 410/5/3 396/5/3 409/5/3
f 410/1/3 403/1/3 396/1/3
f 410/1/3 404/1/3 403/1/3
f 411/1/3 405/1/3 410/1/3
f 412/2/3 406/2/3 405/2/3
f 412/1/3 405/1/3 411/1/3
f 413/5/3 407/5/3 393/5/3
f 414/1/3 408/1/3 407/1/3
f 414/5/3 407/5/3 413/5/3
f 415/5/3 409/5/3 408/5/3
f 415/1/3 411/1/3 410/1/3
f 415/1/3 410/1/3 409/1/3
f 416/1/3 411/1/3 415/1/3
f 417/1/3 411/1/3 416/1/3
f 418/2/3 412/2/3 411/2/3
f 418/1/3 411/1/3 417/1/3
f 419/1/3 414/1/3 413/1/3
f 420/1/3 408/1/3 414/1/3
f 420/1/3 414/1/3 419/1/3
f 421/5/3 415/5/3 408/5/3
f 421/1/3 408/1/3 420/1/3
f 422/2/3 416/2/3 415/2/3
f 422/5/3 415/5/3 421/5/3
f 423/1/3 417/1/3 416/1/3
f 423/2/3 416/2/3 422/2/3
f 424/2/3 418/2/3 417/2/3
f 424/1/3 417/1/3 423/1/3
f 425/2/3 420/2/3 419/2/3
f 425/1/3 421/1/3 420/1/3
f 426/1/3 421/1/3 425/1/3
f 427/2/3 422/2/3 421/2/3
f 427/1/3 421/1/3 426/1/3
f 428/1/3 423/1/3 422/1/3
f 428/2/3 422/2/3 427/2/3
f 429/2/3 426/2/3 425/2/3
f 429/2/3 425/2/3 419/2/3
f 430/1/3 427/1/3 426/1/3
f 430/2/3 426/2/3 429/2/3
f 430/1/3 428/1/3 427/1/3
f 431/1/3 428/1/3 430/1/3
f 432/1/3 423/1/3 428/1/3
f 432/1/3 428/1/3 431/1/3
f 433/2/3 424/2/3 423/2/3
f 433/1/3 423/1/3 432/1/3
f 434/2/3 418/2/3 424/2/3
f 434/2/3 424/2/3 433/2/3
f 435/1/3 431/1/3 430/1/3
f 435/1/3 430/1/3 429/1/3
f 436/1/3 431/1/3 435/1/3
f 437/2/3 418/2/3 434/2/3
f 437/1/3 433/1/3 432/1/3
f 437/1/3 434/1/3 433/1/3
f 438/2/3 412/2/3 418/2/3
f 438/2/3 418/2/3 437/2/3
f 439/1/3 431/1/3 436/1/3
f 439/5/3 436/5/3 435/5/3
f 440/5/3 432/5/3 431/5/3
f 440/1/3 431/1/3 439/1/3
f 441/1/3 437/1/3 432/1/3
f 441/5/3 432/5/3 440/5/3
f 441/1/3 438/1/3 437/1/3
f 442/1/3 438/1/3 441/1/3
f 443/2/3 412/2/3 438/2/3
f 443/1/3 438/1/3 442/1/3
f 444/2/3 406/2/3 412/2/3
f 444/2/3 412/2/3 443/2/3
f 445/5/3 440/5/3 439/5/3
f 445/5/3 442/5/3 441/5/3
f 445/5/3 441/5/3 440/5/3
f 446/5/3 442/5/3 445/5/3
f 447/1/3 443/1/3 442/1/3
f 447/1/3 444/1/3 443/1/3
f 448/1/3 444/1/3 447/1/3
f 449/2/3 406/2/3 444/2/3
f 449/1/3 444/1/3 448/1/3
f 450/2/3 400/2/3 406/2/3
f 450/2/3 406/2/3 449/2/3
f 451/5/3 439/5/3 435/5/3
f 451/5/3 445/5/3 439/5/3
f 452/4/3 446/4/3 445/4/3
f 452/5/3 445/5/3 451/5/3
f 453/5/3 442/5/3 446/5/3
f 453/4/3 446/4/3 452/4/3
f 454/1/3 447/1/3 442/1/3
f 454/5/3 442/5/3 453/5/3
f 455/5/3 448/5/3 447/5/3
f 455/1/3 447/1/3 454/1/3
f 456/1/3 449/1/3 448/1/3
f 456/5/3 448/5/3 455/5/3
f 456/1/3 450/1/3 449/1/3
f 457/2/3 400/2/3 450/2/3
f 457/1/3 450/1/3 456/1/3
f 458/2/3 400/2/3 457/2/3
f 461/2/3 460/2/3 459/2/3
f 462/2/3 460/2/3 461/2/3
f 463/5/3 462/5/3 461/5/3
f 464/5/3 462/5/3 463/5/3
f 468/2/3 466/2/3 465/2/3
f 468/1/3 467/1/3 466/1/3
f 469/1/3 467/1/3 468/1/3
f 470/2/3 468/2/3 465/2/3
f 470/2/3 469/2/3 468/2/3
f 471/2/3 469/2/3 470/2/3
f 472/2/3 470/2/3 465/2/3
f 473/1/3 471/1/3 470/1/3
f 473/2/3 470/2/3 472/2/3
f 474/1/3 473/1/3 472/1/3
f 475/1/3 471/1/3 473/1/3
f 475/1/3 473/1/3 474/1/3
f 476/2/4 477/2/4 479/2/4
f 477/1/4 478/1/4 479/1/4
f 479/1/4 478/1/4 480/1/4
f 476/2/4 479/2/4 481/2/4
f 479/2/4 480/2/4 481/2/4
f 481/2/4 480/2/4 482/2/4
f 476/2/4 481/2/4 483/2/4
f 481/1/4 482/1/4 484/1/4
f 483/2/4 481/2/4 484/2/4
f 483/1/4 484/1/4 485/1/4
f 484/1/4 482/1/4 486/1/4
f 485/1/4 484/1/4 486/1/4
f 487/2/4 488/2/4 489/2/4
f 489/2/4 488/2/4 490/2/4
f 489/5/4 490/5/4 491/5/4
f 491/5/4 490/5/4 492/5/4
f 493/5/4 494/5/4 499/5/4
f 494/4/4 495/4/4 499/4/4
f 495/5/4 496/5/4 500/5/4
f 499/4/4 495/4/4 500/4/4
f 500/5/4 496/5/4 501/5/4
f 496/1/4 497/1/4 502/1/4
f 501/5/4 496/5/4 502/5/4
f 502/1/4 497/1/4 503/1/4
f 503/1/4 497/1/4 504/1/4
f 504/1/4 497/1/4 505/1/4
f 497/2/4 498/2/4 506/2/4
f 505/1/4 497/1/4 506/1/4
f 500/5/4 501/5/4 507/5/4
f 493/5/4 499/5/4 507/5/4
f 499/5/4 500/5/4 507/5/4
f 507/5/4 501/5/4 508/5/4
f 508/5/4 501/5/4 509/5/4
f 501/1/4 502/1/4 510/1/4
f 509/5/4 501/5/4 510/5/4
f 502/1/4 503/1/4 510/1/4
f 503/2/4 504/2/4 511/2/4
f 510/1/4 503/1/4 511/1/4
f 504/1/4 505/1/4 512/1/4
f 511/2/4 504/2/4 512/2/4
f 505/2/4 506/2/4 513/2/4
f 512/1/4 505/1/4 513/1/4
f 493/5/4 507/5/4 514/5/4
f 507/1/4 508/1/4 515/1/4
f 514/5/4 507/5/4 515/5/4
f 508/5/4 509/5/4 516/5/4
f 515/1/4 508/1/4 516/1/4
f 510/1/4 511/1/4 517/1/4
f 516/5/4 509/5/4 517/5/4
f 511/1/4 512/1/4 517/1/4
f 509/1/4 510/1/4 517/1/4
f 517/1/4 512/1/4 518/1/4
f 518/1/4 512/1/4 519/1/4
f 512/2/4 513/2/4 520/2/4
f 519/1/4 512/1/4 520/1/4
f 515/1/4 516/1/4 521/1/4
f 514/1/4 515/1/4 521/1/4
f 516/1/4 517/1/4 521/1/4
f 521/1/4 517/1/4 522/1/4
f 522/1/4 517/1/4 523/1/4
f 523/1/4 517/1/4 524/1/4
f 524/1/4 517/1/4 525/1/4
f 517/2/4 518/2/4 526/2/4
f 525/1/4 517/1/4 526/1/4
f 518/1/4 519/1/4 527/1/4
f 526/2/4 518/2/4 527/2/4
f 519/2/4 520/2/4 528/2/4
f 527/1/4 519/1/4 528/1/4
f 521/2/4 522/2/4 529/2/4
f 522/1/4 523/1/4 529/1/4
f 523/2/4 524/2/4 530/2/4
f 529/1/4 523/1/4 530/1/4
f 525/2/4 526/2/4 531/2/4
f 524/1/4 525/1/4 531/1/4
f 526/1/4 527/1/4 532/1/4
f 531/2/4 526/2/4 532/2/4
f 529/2/4 530/2/4 533/2/4
f 521/2/4 529/2/4 533/2/4
f 530/2/4 524/2/4 534/2/4
f 533/2/4 530/2/4 534/2/4
f 524/1/4 531/1/4 534/1/4
f 531/1/4 532/1/4 534/1/4
f 527/2/4 528/2/4 535/2/4
f 534/1/4 532/1/4 535/1/4
f 532/1/4 527/1/4 535/1/4
f 528/2/4 520/2/4 536/2/4
f 535/2/4 528/2/4 536/2/4
f 533/1/4 534/1/4 537/1/4
f 534/1/4 535/1/4 537/1/4
f 535/1/4 536/1/4 537/1/4
f 537/1/4 536/1/4 538/1/4
f 538/1/4 536/1/4 539/1/4
f 539/1/4 536/1/4 540/1/4
f 536/2/4 520/2/4 541/2/4
f 540/1/4 536/1/4 541/1/4
f 520/2/4 513/2/4 542/2/4
f 541/2/4 520/2/4 542/2/4
f 537/5/4 538/5/4 543/5/4
f 538/1/4 539/1/4 543/1/4
f 539/5/4 540/5/4 544/5/4
f 543/1/4 539/1/4 544/1/4
f 540/1/4 541/1/4 545/1/4
f 544/5/4 540/5/4 545/5/4
f 541/1/4 542/1/4 545/1/4
f 545/1/4 542/1/4 546/1/4
f 546/1/4 542/1/4 547/1/4
f 542/2/4 513/2/4 548/2/4
f 547/1/4 542/1/4 548/1/4
f 513/2/4 506/2/4 549/2/4
f 548/2/4 513/2/4 549/2/4
f 543/5/4 544/5/4 550/5/4
f 544/5/4 545/5/4 550/5/4
f 545/5/4 546/5/4 550/5/4
f 550/5/4 546/5/4 551/5/4
f 546/1/4 547/1/4 552/1/4
f 551/5/4 546/5/4 552/5/4
f 552/1/4 547/1/4 553/1/4
f 547/2/4 548/2/4 554/2/4
f 553/1/4 547/1/4 554/1/4
f 548/1/4 549/1/4 555/1/4
f 554/2/4 548/2/4 555/2/4
f 549/2/4 506/2/4 556/2/4
f 555/1/4 549/1/4 556/1/4
f 506/2/4 498/2/4 557/2/4
f 556/2/4 506/2/4 557/2/4
f 537/5/4 543/5/4 558/5/4
f 543/5/4 550/5/4 558/5/4
f 550/4/4 551/4/4 559/4/4
f 558/5/4 550/5/4 559/5/4
f 552/5/4 553/5/4 560/5/4
f 559/4/4 551/4/4 560/4/4
f 551/5/4 552/5/4 560/5/4
f 554/1/4 555/1/4 561/1/4
f 560/5/4 553/5/4 561/5/4
f 555/1/4 556/1/4 561/1/4
f 556/1/4 557/1/4 561/1/4
f 553/1/4 554/1/4 561/1/4
f 557/2/4 498/2/4 562/2/4
f 561/1/4 557/1/4 562/1/4
f 562/2/4 498/2/4 563/2/4
f 570/5/5 565/5/5 564/5/5
f 571/5/5 565/5/5 570/5/5
f 572/1/5 566/1/5 565/1/5
f 572/5/5 565/5/5 571/5/5
f 573/2/5 567/2/5 566/2/5
f 573/1/5 566/1/5 572/1/5
f 574/1/5 568/1/5 567/1/5
f 574/2/5 567/2/5 573/2/5
f 575/5/5 569/5/5 568/5/5
f 575/1/5 568/1/5 574/1/5
f 576/5/5 569/5/5 575/5/5
f 577/5/5 569/5/5 576/5/5
f 578/4/5 571/4/5 570/4/5
f 579/2/5 574/2/5 573/2/5
f 579/4/5 571/4/5 578/4/5
f 579/2/5 572/2/5 571/2/5
f 579/2/5 573/2/5 572/2/5
f 579/2/5 576/2/5 575/2/5
f 579/2/5 575/2/5 574/2/5
f 580/4/5 577/4/5 576/4/5
f 580/2/5 576/2/5 579/2/5
f 581/4/5 577/4/5 580/4/5
f 582/3/5 579/3/5 578/3/5
f 583/2/5 580/2/5 579/2/5
f 583/3/5 579/3/5 582/3/5
f 584/3/5 581/3/5 580/3/5
f 584/2/5 580/2/5 583/2/5
f 585/3/5 581/3/5 584/3/5
f 586/6/5 583/6/5 582/6/5
f 587/2/5 584/2/5 583/2/5
f 587/6/5 583/6/5 586/6/5
f 588/6/5 585/6/5 584/6/5
f 588/2/5 584/2/5 587/2/5
f 589/6/5 585/6/5 588/6/5
f 590/3/5 587/3/5 586/3/5
f 591/2/5 588/2/5 587/2/5
f 591/3/5 587/3/5 590/3/5
f 592/3/5 589/3/5 588/3/5
f 592/2/5 588/2/5 591/2/5
f 593/3/5 589/3/5 592/3/5
f 594/4/5 591/4/5 590/4/5
f 595/2/5 592/2/5 591/2/5
f 595/4/5 591/4/5 594/4/5
f 596/4/5 593/4/5 592/4/5
f 596/2/5 592/2/5 595/2/5
f 597/4/5 593/4/5 596/4/5
f 598/5/5 595/5/5 594/5/5
f 598/2/5 596/2/5 595/2/5
f 599/2/5 596/2/5 598/2/5
f 600/2/5 596/2/5 599/2/5
f 601/2/5 596/2/5 600/2/5
f 602/2/5 596/2/5 601/2/5
f 603/5/5 597/5/5 596/5/5
f 603/2/5 596/2/5 602/2/5
f 604/5/5 598/5/5 594/5/5
f 604/5/5 599/5/5 598/5/5
f 605/1/5 600/1/5 599/1/5
f 605/5/5 599/5/5 604/5/5
f 606/2/5 601/2/5 600/2/5
f 606/1/5 600/1/5 605/1/5
f 607/1/5 602/1/5 601/1/5
f 607/2/5 601/2/5 606/2/5
f 608/5/5 603/5/5 602/5/5
f 608/1/5 602/1/5 607/1/5
f 609/5/5 597/5/5 603/5/5
f 609/5/5 603/5/5 608/5/5
f 610/2/6 611/2/6 613/2/6
f 613/2/6 611/2/6 614/2/6
f 614/2/6 611/2/6 615/2/6
f 611/5/6 612/5/6 616/5/6
f 615/2/6 611/2/6 616/2/6
f 616/5/6 612/5/6 617/5/6
f 618/2/6 619/2/6 621/2/6
f 619/5/6 620/5/6 622/5/6
f 621/2/6 619/2/6 622/2/6
f 622/5/6 620/5/6 623/5/6
f 624/2/6 625/2/6 627/2/6
f 625/5/6 626/5/6 628/5/6
f 627/2/6 625/2/6 628/2/6
f 628/5/6 626/5/6 629/5/6
f 630/2/6 631/2/6 632/2/6
f 632/2/6 631/2/6 633/2/6
f 633/2/6 631/2/6 634/2/6
f 634/2/6 631/2/6 635/2/6
f 633/2/6 634/2/6 636/2/6
f 634/1/6 635/1/6 637/1/6
f 636/2/6 634/2/6 637/2/6
f 632/1/6 633/1/6 638/1/6
f 633/2/6 636/2/6 638/2/6
f 638/2/6 636/2/6 639/2/6
f 638/1/6 639/1/6 640/1/6
f 639/2/6 636/2/6 640/2/6
f 640/2/6 636/2/6 641/2/6
f 641/2/6 636/2/6 642/2/6
f 636/1/6 637/1/6 643/1/6
f 642/2/6 636/2/6 643/2/6
f 632/1/6 638/1/6 644/1/6
f 638/1/6 640/1/6 644/1/6
f 640/1/6 641/1/6 644/1/6
f 641/2/6 642/2/6 645/2/6
f 644/1/6 641/1/6 645/1/6
f 642/1/6 643/1/6 646/1/6
f 645/2/6 642/2/6 646/2/6
f 637/1/6 635/1/6 647/1/6
f 646/1/6 643/1/6 647/1/6
f 643/1/6 637/1/6 647/1/6
f 632/1/6 644/1/6 648/1/6
f 648/1/6 644/1/6 649/1/6
f 648/5/6 649/5/6 650/5/6
f 650/5/6 649/5/6 651/5/6
f 650/1/6 651/1/6 652/1/6
f 650/1/6 652/1/6 656/1/6
f 652/1/6 653/1/6 656/1/6
f 653/2/6 654/2/6 657/2/6
f 656/1/6 653/1/6 657/1/6
f 654/1/6 655/1/6 658/1/6
f 657/2/6 654/2/6 658/2/6
f 658/1/6 655/1/6 659/1/6
f 656/2/6 657/2/6 660/2/6
f 659/1/6 655/1/6 660/1/6
f 658/2/6 659/2/6 660/2/6
f 657/2/6 658/2/6 660/2/6
f 660/1/6 655/1/6 661/1/6
f 650/1/6 656/1/6 662/1/6
f 656/2/6 660/2/6 663/2/6
f 662/1/6 656/1/6 663/1/6
f 660/2/6 661/2/6 663/2/6
f 661/1/6 655/1/6 664/1/6
f 663/2/6 661/2/6 664/2/6
f 664/1/6 655/1/6 665/1/6
f 662/2/6 663/2/6 666/2/6
f 663/2/6 664/2/6 666/2/6
f 664/2/6 665/2/6 666/2/6
f 666/2/6 665/2/6 667/2/6
