# MagicaVoxel @ Ephtracy

# group
o 

# material
mtllib model-5.mtl
usemtl palette

# normals
vn 0 0 1
vn 0 0 -1
vn 1 0 0
vn -1 0 0
vn 0 -1 0
vn 0 1 0

# texcoords
vt 0.185547 0.5
vt 0.458984 0.5
vt 0.607422 0.5
vt 0.611328 0.5

# verts
v 0.3 1.4 -1.6
v -0.3 1.4 -1.6
v -0.2 1.5 -1.6
v -0.3 1.5 -1.6
v -0.2 1.7 -1.6
v -0.3 1.7 -1.6
v 0.3 2 -1.6
v -0.3 2 -1.6
v 0.3 1.4 -2.4
v -0.3 1.4 -2.4
v 0.3 2 -2.4
v -0.3 2 -2.4
v 0.3 1.4 -1.6
v 0.3 2 -1.6
v 0.3 1.4 -1.8
v 0.3 1.6 -1.8
v 0.3 1.4 -1.9
v 0.3 1.5 -1.9
v 0.3 1.6 -1.9
v 0.3 1.7 -1.9
v 0.3 1.5 -2
v 0.3 1.6 -2
v 0.3 1.5 -2.1
v 0.3 1.6 -2.1
v 0.3 1.7 -2.1
v 0.3 1.9 -2.1
v 0.3 1.5 -2.2
v 0.3 1.6 -2.2
v 0.3 1.7 -2.2
v 0.3 1.7 -2.3
v 0.3 1.9 -2.3
v 0.3 2 -2.3
v 0.3 1.4 -2.4
v 0.3 2 -2.4
v -0.3 1.4 -1.6
v -0.3 1.5 -1.6
v -0.3 1.7 -1.6
v -0.3 2 -1.6
v -0.3 1.7 -1.8
v -0.3 1.8 -1.8
v -0.3 1.5 -1.9
v -0.3 1.6 -1.9
v -0.3 1.7 -1.9
v -0.3 1.8 -1.9
v -0.3 1.4 -2
v -0.3 1.5 -2
v -0.3 1.6 -2
v -0.3 1.7 -2
v -0.3 1.8 -2
v -0.3 1.9 -2
v -0.3 1.4 -2.1
v -0.3 1.6 -2.1
v -0.3 1.7 -2.1
v -0.3 1.8 -2.1
v -0.3 1.6 -2.2
v -0.3 1.8 -2.2
v -0.3 1.8 -2.3
v -0.3 1.9 -2.3
v -0.3 2 -2.3
v -0.3 1.4 -2.4
v -0.3 2 -2.4
v 0.3 1.4 -1.6
v 0.3 1.4 -1.8
v 0.3 1.4 -1.9
v 0.3 1.4 -2.4
v 0.2 1.4 -1.8
v 0.2 1.4 -1.9
v 0.2 1.4 -2.1
v 0.2 1.4 -2.3
v 0.1 1.4 -1.8
v 0.1 1.4 -1.9
v 0.1 1.4 -2
v 0.1 1.4 -2.1
v 0.1 1.4 -2.2
v 0.1 1.4 -2.3
v 0 1.4 -1.8
v 0 1.4 -1.9
v 0 1.4 -2
v 0 1.4 -2.1
v 0 1.4 -2.2
v 0 1.4 -2.3
v -0.1 1.4 -1.9
v -0.1 1.4 -2
v -0.1 1.4 -2.1
v -0.1 1.4 -2.3
v -0.3 1.4 -1.6
v -0.3 1.4 -2
v -0.3 1.4 -2.1
v -0.3 1.4 -2.4
v 0.3 2 -1.6
v 0.3 2 -2.3
v 0.3 2 -2.4
v 0.2 2 -2.2
v 0.2 2 -2.3
v 0.1 2 -1.8
v 0.1 2 -2
v 0.1 2 -2.1
v 0.1 2 -2.2
v 0.1 2 -2.3
v 0 2 -1.9
v 0 2 -2
v -0.1 2 -1.8
v -0.1 2 -1.9
v -0.1 2 -2.2
v -0.1 2 -2.3
v -0.2 2 -2.1
v -0.2 2 -2.3
v -0.3 2 -1.6
v -0.3 2 -2.3
v -0.3 2 -2.4

# faces
f 3/1/1 2/1/1 1/1/1
f 4/1/1 2/1/1 3/1/1
f 5/1/1 3/1/1 1/1/1
f 5/4/1 4/4/1 3/4/1
f 6/4/1 4/4/1 5/4/1
f 7/1/1 5/1/1 1/1/1
f 7/1/1 6/1/1 5/1/1
f 8/1/1 6/1/1 7/1/1
f 9/3/2 10/3/2 11/3/2
f 11/3/2 10/3/2 12/3/2
f 15/1/3 14/1/3 13/1/3
f 16/1/3 14/1/3 15/1/3
f 17/4/3 16/4/3 15/4/3
f 18/4/3 16/4/3 17/4/3
f 19/1/3 14/1/3 16/1/3
f 19/4/3 16/4/3 18/4/3
f 20/1/3 14/1/3 19/1/3
f 21/3/3 18/3/3 17/3/3
f 21/4/3 19/4/3 18/4/3
f 21/4/3 20/4/3 19/4/3
f 22/4/3 20/4/3 21/4/3
f 23/3/3 21/3/3 17/3/3
f 23/3/3 22/3/3 21/3/3
f 24/4/3 20/4/3 22/4/3
f 24/3/3 22/3/3 23/3/3
f 25/1/3 14/1/3 20/1/3
f 25/4/3 20/4/3 24/4/3
f 26/1/3 14/1/3 25/1/3
f 27/4/3 24/4/3 23/4/3
f 27/3/3 23/3/3 17/3/3
f 28/1/3 25/1/3 24/1/3
f 28/4/3 24/4/3 27/4/3
f 29/4/3 26/4/3 25/4/3
f 29/1/3 25/1/3 28/1/3
f 30/3/3 28/3/3 27/3/3
f 30/4/3 26/4/3 29/4/3
f 30/3/3 29/3/3 28/3/3
f 31/1/3 14/1/3 26/1/3
f 31/4/3 26/4/3 30/4/3
f 32/1/3 14/1/3 31/1/3
f 33/3/3 30/3/3 27/3/3
f 33/3/3 27/3/3 17/3/3
f 33/3/3 32/3/3 31/3/3
f 33/3/3 31/3/3 30/3/3
f 34/3/3 32/3/3 33/3/3
f 36/4/4 37/4/4 39/4/4
f 37/1/4 38/1/4 39/1/4
f 39/1/4 38/1/4 40/1/4
f 35/1/4 36/1/4 41/1/4
f 36/4/4 39/4/4 41/4/4
f 39/4/4 40/4/4 41/4/4
f 41/4/4 40/4/4 42/4/4
f 42/4/4 40/4/4 43/4/4
f 40/1/4 38/1/4 44/1/4
f 43/4/4 40/4/4 44/4/4
f 35/1/4 41/1/4 45/1/4
f 41/3/4 42/3/4 46/3/4
f 45/1/4 41/1/4 46/1/4
f 42/4/4 43/4/4 47/4/4
f 46/3/4 42/3/4 47/3/4
f 43/1/4 44/1/4 48/1/4
f 47/4/4 43/4/4 48/4/4
f 44/1/4 38/1/4 49/1/4
f 48/1/4 44/1/4 49/1/4
f 49/1/4 38/1/4 50/1/4
f 45/4/4 46/4/4 51/4/4
f 46/4/4 47/4/4 51/4/4
f 47/3/4 48/3/4 52/3/4
f 51/4/4 47/4/4 52/4/4
f 48/1/4 49/1/4 53/1/4
f 52/3/4 48/3/4 53/3/4
f 49/4/4 50/4/4 54/4/4
f 53/1/4 49/1/4 54/1/4
f 52/4/4 53/4/4 55/4/4
f 51/3/4 52/3/4 55/3/4
f 53/4/4 54/4/4 55/4/4
f 54/4/4 50/4/4 56/4/4
f 55/4/4 54/4/4 56/4/4
f 55/3/4 56/3/4 57/3/4
f 56/4/4 50/4/4 57/4/4
f 50/1/4 38/1/4 58/1/4
f 57/4/4 50/4/4 58/4/4
f 58/1/4 38/1/4 59/1/4
f 55/3/4 57/3/4 60/3/4
f 51/3/4 55/3/4 60/3/4
f 58/3/4 59/3/4 60/3/4
f 57/3/4 58/3/4 60/3/4
f 60/3/4 59/3/4 61/3/4
f 66/1/5 63/1/5 62/1/5
f 66/4/5 64/4/5 63/4/5
f 67/3/5 65/3/5 64/3/5
f 67/4/5 64/4/5 66/4/5
f 68/3/5 65/3/5 67/3/5
f 69/3/5 65/3/5 68/3/5
f 70/1/5 66/1/5 62/1/5
f 70/1/5 67/1/5 66/1/5
f 70/1/5 68/1/5 67/1/5
f 71/1/5 68/1/5 70/1/5
f 72/1/5 68/1/5 71/1/5
f 73/4/5 69/4/5 68/4/5
f 73/1/5 68/1/5 72/1/5
f 74/4/5 69/4/5 73/4/5
f 75/3/5 65/3/5 69/3/5
f 75/4/5 69/4/5 74/4/5
f 76/1/5 70/1/5 62/1/5
f 76/4/5 71/4/5 70/4/5
f 77/1/5 72/1/5 71/1/5
f 77/4/5 71/4/5 76/4/5
f 78/4/5 74/4/5 73/4/5
f 78/1/5 72/1/5 77/1/5
f 78/4/5 73/4/5 72/4/5
f 79/4/5 74/4/5 78/4/5
f 80/3/5 75/3/5 74/3/5
f 80/4/5 74/4/5 79/4/5
f 81/3/5 65/3/5 75/3/5
f 81/3/5 75/3/5 80/3/5
f 82/1/5 77/1/5 76/1/5
f 82/4/5 78/4/5 77/4/5
f 83/1/5 79/1/5 78/1/5
f 83/4/5 78/4/5 82/4/5
f 84/4/5 80/4/5 79/4/5
f 84/1/5 79/1/5 83/1/5
f 84/4/5 81/4/5 80/4/5
f 85/3/5 65/3/5 81/3/5
f 85/4/5 81/4/5 84/4/5
f 86/1/5 76/1/5 62/1/5
f 86/1/5 83/1/5 82/1/5
f 86/1/5 82/1/5 76/1/5
f 87/4/5 84/4/5 83/4/5
f 87/1/5 83/1/5 86/1/5
f 88/3/5 85/3/5 84/3/5
f 88/4/5 84/4/5 87/4/5
f 89/3/5 65/3/5 85/3/5
f 89/3/5 85/3/5 88/3/5
f 90/1/6 91/1/6 93/1/6
f 91/3/6 92/3/6 94/3/6
f 93/1/6 91/1/6 94/1/6
f 90/1/6 93/1/6 95/1/6
f 95/1/6 93/1/6 96/1/6
f 96/1/6 93/1/6 97/1/6
f 93/4/6 94/4/6 98/4/6
f 97/1/6 93/1/6 98/1/6
f 94/3/6 92/3/6 99/3/6
f 98/4/6 94/4/6 99/4/6
f 95/2/6 96/2/6 100/2/6
f 96/1/6 97/1/6 101/1/6
f 100/2/6 96/2/6 101/2/6
f 95/2/6 100/2/6 102/2/6
f 90/1/6 95/1/6 102/1/6
f 100/1/6 101/1/6 103/1/6
f 102/2/6 100/2/6 103/2/6
f 97/4/6 98/4/6 104/4/6
f 98/3/6 99/3/6 104/3/6
f 99/3/6 92/3/6 105/3/6
f 104/3/6 99/3/6 105/3/6
f 103/1/6 101/1/6 106/1/6
f 101/1/6 97/1/6 106/1/6
f 104/4/6 105/4/6 106/4/6
f 102/1/6 103/1/6 106/1/6
f 97/4/6 104/4/6 106/4/6
f 105/3/6 92/3/6 107/3/6
f 106/4/6 105/4/6 107/4/6
f 102/1/6 106/1/6 108/1/6
f 90/1/6 102/1/6 108/1/6
f 106/1/6 107/1/6 108/1/6
f 107/3/6 92/3/6 109/3/6
f 108/1/6 107/1/6 109/1/6
f 109/3/6 92/3/6 110/3/6
