# MagicaVoxel @ Ephtracy

# group
o 

# material
mtllib model-1.mtl
usemtl palette

# normals
vn -1 0 0
vn 1 0 0
vn 0 0 1
vn 0 0 -1
vn 0 -1 0
vn 0 1 0

# texcoords
vt 0.294922 0.5
vt 0.384766 0.5

# verts
v -0.3 1.4 1.7
v -0.3 1.4 0.9
v -0.3 2 1.7
v -0.3 2 0.9
v 0.3 1.4 1.7
v 0.3 1.4 1.2
v 0.3 1.4 1
v 0.3 1.4 0.9
v 0.3 1.5 1.3
v 0.3 1.5 1.2
v 0.3 1.5 1.1
v 0.3 1.6 1.3
v 0.3 1.6 1.2
v 0.3 1.7 1.1
v 0.3 1.7 1
v 0.3 2 1.7
v 0.3 2 0.9
v -0.3 1.4 1.7
v -0.3 2 1.7
v 0.3 1.4 1.7
v 0.3 2 1.7
v -0.3 1.4 0.9
v -0.3 2 0.9
v 0.3 1.4 0.9
v 0.3 2 0.9
v -0.3 1.4 1.7
v 0.3 1.4 1.7
v 0.2 1.4 1.2
v 0.3 1.4 1.2
v 0.1 1.4 1.1
v 0.2 1.4 1.1
v 0.1 1.4 1
v 0.3 1.4 1
v -0.3 1.4 0.9
v 0.3 1.4 0.9
v -0.3 2 1.7
v 0.3 2 1.7
v -0.3 2 0.9
v 0.3 2 0.9

# faces
f 3/2/1 2/2/1 1/2/1
f 4/2/1 2/2/1 3/2/1
f 5/2/2 6/2/2 9/2/2
f 6/1/2 7/1/2 10/1/2
f 9/2/2 6/2/2 10/2/2
f 10/1/2 7/1/2 11/1/2
f 5/2/2 9/2/2 12/2/2
f 9/1/2 10/1/2 12/1/2
f 10/2/2 11/2/2 13/2/2
f 12/1/2 10/1/2 13/1/2
f 11/1/2 7/1/2 14/1/2
f 13/2/2 11/2/2 14/2/2
f 12/2/2 13/2/2 14/2/2
f 7/2/2 8/2/2 15/2/2
f 14/1/2 7/1/2 15/1/2
f 12/2/2 14/2/2 16/2/2
f 5/2/2 12/2/2 16/2/2
f 14/2/2 15/2/2 16/2/2
f 15/2/2 8/2/2 17/2/2
f 16/2/2 15/2/2 17/2/2
f 20/2/3 19/2/3 18/2/3
f 21/2/3 19/2/3 20/2/3
f 22/2/4 23/2/4 24/2/4
f 24/2/4 23/2/4 25/2/4
f 28/2/5 27/2/5 26/2/5
f 29/2/5 27/2/5 28/2/5
f 30/2/5 28/2/5 26/2/5
f 31/1/5 29/1/5 28/1/5
f 31/2/5 28/2/5 30/2/5
f 32/2/5 30/2/5 26/2/5
f 32/1/5 31/1/5 30/1/5
f 33/1/5 29/1/5 31/1/5
f 33/1/5 31/1/5 32/1/5
f 34/2/5 32/2/5 26/2/5
f 34/2/5 33/2/5 32/2/5
f 35/2/5 33/2/5 34/2/5
f 36/2/6 37/2/6 38/2/6
f 38/2/6 37/2/6 39/2/6
