# MagicaVoxel @ Ephtracy

# group
o 

# material
mtllib model.mtl
usemtl palette

# normals
vn -1 0 0
vn 1 0 0
vn 0 0 1
vn 0 0 -1
vn 0 -1 0
vn 0 1 0

# texcoords
vt 0.771484 0.5
vt 0.775391 0.5

# verts
v -0.9 1 1.2
v -0.9 1 -1.2
v -0.9 1.5 1.2
v -0.9 1.5 -1.2
v -0.1 0.9 1.2
v -0.1 0.9 1.1
v -0.1 0.9 -1.1
v -0.1 0.9 -1.2
v -0.1 1 1.2
v -0.1 1 1.1
v -0.1 1 -1.1
v -0.1 1 -1.2
v 0.4 0.8 1.2
v 0.4 0.8 1.1
v 0.4 0.8 -1.1
v 0.4 0.8 -1.2
v 0.4 0.9 1.2
v 0.4 0.9 1.1
v 0.4 0.9 -1.1
v 0.4 0.9 -1.2
v 0.4 1.5 1.2
v 0.4 1.5 1.1
v 0.4 1.5 -1.1
v 0.4 1.5 -1.2
v 0.4 1.6 1.2
v 0.4 1.6 1.1
v 0.4 1.6 -1.1
v 0.4 1.6 -1.2
v 0.8 0.8 1.1
v 0.8 0.8 -1.1
v 0.8 0.9 1.1
v 0.8 1 -1.1
v 0.8 1.1 1.1
v 0.8 1.2 1.1
v 0.8 1.2 -1.1
v 0.8 1.3 -1.1
v 0.8 1.4 1.1
v 0.8 1.5 -1.1
v 0.8 1.6 1.1
v 0.8 1.6 -1.1
v 0.8 1.7 1.1
v 0.8 1.7 0.4
v 0.8 1.7 -0.4
v 0.8 1.7 -1.1
v 0.8 1.8 0.4
v 0.8 1.8 -0.4
v 0.9 0 0.4
v 0.9 0 -0.4
v 0.9 0.1 0.4
v 0.9 0.1 0.2
v 0.9 0.2 0.6
v 0.9 0.2 0.4
v 0.9 0.2 0.2
v 0.9 0.2 0.1
v 0.9 0.2 -0.4
v 0.9 0.2 -0.6
v 0.9 0.3 0.5
v 0.9 0.3 0.4
v 0.9 0.3 0.3
v 0.9 0.3 0.2
v 0.9 0.3 -0.2
v 0.9 0.3 -0.5
v 0.9 0.4 0.8
v 0.9 0.4 0.6
v 0.9 0.4 0.5
v 0.9 0.4 0.4
v 0.9 0.4 0.3
v 0.9 0.4 0.2
v 0.9 0.4 -0.0999999
v 0.9 0.4 -0.2
v 0.9 0.4 -0.5
v 0.9 0.4 -0.6
v 0.9 0.4 -0.8
v 0.9 0.5 -0.2
v 0.9 0.5 -0.3
v 0.9 0.5 -0.4
v 0.9 0.5 -0.5
v 0.9 0.6 1
v 0.9 0.6 0.8
v 0.9 0.6 0.6
v 0.9 0.6 0.1
v 0.9 0.6 -0.2
v 0.9 0.6 -0.3
v 0.9 0.6 -0.4
v 0.9 0.6 -0.5
v 0.9 0.6 -0.8
v 0.9 0.6 -1
v 0.9 0.8 1
v 0.9 0.8 -0.0999999
v 0.9 0.8 -0.6
v 0.9 0.8 -1
v -0.8 1 1.1
v -0.8 1 -1.1
v -0.8 1.5 1.1
v -0.8 1.5 -1.1
v 0.9 0.8 1.2
v 0.9 0.8 1
v 0.9 0.8 -1
v 0.9 0.8 -1.2
v 0.9 1 1.2
v 0.9 1 1.1
v 0.9 1.1 -1.1
v 0.9 1.1 -1.2
v 0.9 1.4 1.2
v 0.9 1.4 1.1
v 0.9 1.5 -1.1
v 0.9 1.5 -1.2
v 0.9 1.6 1.2
v 0.9 1.6 1.1
v 0.9 1.6 1
v 0.9 1.6 0.3
v 0.9 1.6 -0.3
v 0.9 1.6 -1
v 0.9 1.6 -1.1
v 0.9 1.6 -1.2
v 0.9 1.7 1.1
v 0.9 1.7 0.4
v 0.9 1.7 0.3
v 0.9 1.7 -0.3
v 0.9 1.7 -0.4
v 0.9 1.7 -1.1
v 0.9 1.8 0.4
v 0.9 1.8 -0.4
v 1 0 0.4
v 1 0 -0.4
v 1 0.1 0.4
v 1 0.1 0.2
v 1 0.2 0.6
v 1 0.2 0.4
v 1 0.2 0.2
v 1 0.2 0.1
v 1 0.2 -0.4
v 1 0.2 -0.6
v 1 0.3 0.5
v 1 0.3 0.4
v 1 0.3 0.3
v 1 0.3 0.2
v 1 0.3 -0.2
v 1 0.3 -0.5
v 1 0.4 0.8
v 1 0.4 0.6
v 1 0.4 0.5
v 1 0.4 0.4
v 1 0.4 0.3
v 1 0.4 0.2
v 1 0.4 -0.0999999
v 1 0.4 -0.2
v 1 0.4 -0.5
v 1 0.4 -0.6
v 1 0.4 -0.8
v 1 0.5 -0.2
v 1 0.5 -0.3
v 1 0.5 -0.4
v 1 0.5 -0.5
v 1 0.6 1
v 1 0.6 0.8
v 1 0.6 0.6
v 1 0.6 0.1
v 1 0.6 -0.2
v 1 0.6 -0.3
v 1 0.6 -0.4
v 1 0.6 -0.5
v 1 0.6 -0.8
v 1 0.6 -1
v 1 0.8 0.8
v 1 0.8 0.5
v 1 0.8 -0.0999999
v 1 0.8 -0.6
v 1 0.9 0.9
v 1 0.9 0.8
v 1 0.9 0.5
v 1 0.9 0.4
v 1 0.9 -0.5
v 1 0.9 -0.8
v 1 1 0.8
v 1 1 0.7
v 1 1 0.6
v 1 1 0.5
v 1 1 0.2
v 1 1 -0.0999999
v 1 1 -0.4
v 1 1 -0.5
v 1 1 -0.8
v 1 1 -0.9
v 1 1.1 0.8
v 1 1.1 0.7
v 1 1.1 0.6
v 1 1.1 0.5
v 1 1.1 0.3
v 1 1.1 0.2
v 1 1.1 -0.0999999
v 1 1.1 -0.2
v 1 1.1 -0.5
v 1 1.1 -0.6
v 1 1.1 -0.7
v 1 1.1 -0.8
v 1 1.2 0.2
v 1 1.2 0.1
v 1 1.2 0
v 1 1.2 -0.0999999
v 1 1.2 -0.5
v 1 1.2 -0.6
v 1 1.2 -0.7
v 1 1.2 -0.8
v 1 1.3 0.9
v 1 1.3 0.4
v 1 1.3 0.2
v 1 1.3 0.1
v 1 1.3 0
v 1 1.3 -0.0999999
v 1 1.4 -0.4
v 1 1.4 -0.9
v 1 1.5 0.3
v 1 1.5 -0.2
v 1 1.6 1
v 1 1.6 0.3
v 1 1.6 -0.3
v 1 1.6 -1
v 1 1.7 0.3
v 1 1.7 -0.3
v -0.9 1 1.2
v -0.9 1.5 1.2
v -0.3 1.1 1.2
v -0.3 1.5 1.2
v -0.2 1 1.2
v -0.2 1.1 1.2
v -0.2 1.2 1.2
v -0.2 1.3 1.2
v -0.1 0.9 1.2
v -0.1 1 1.2
v -0.1 1.2 1.2
v -0.1 1.3 1.2
v 0 1.2 1.2
v 0 1.3 1.2
v 0.1 1 1.2
v 0.1 1.1 1.2
v 0.1 1.2 1.2
v 0.1 1.3 1.2
v 0.2 1.1 1.2
v 0.2 1.5 1.2
v 0.4 0.8 1.2
v 0.4 0.9 1.2
v 0.4 1 1.2
v 0.4 1.4 1.2
v 0.4 1.5 1.2
v 0.4 1.6 1.2
v 0.5 0.9 1.2
v 0.5 1 1.2
v 0.5 1.1 1.2
v 0.5 1.2 1.2
v 0.6 1.1 1.2
v 0.6 1.2 1.2
v 0.7 1.1 1.2
v 0.7 1.2 1.2
v 0.8 0.9 1.2
v 0.8 1 1.2
v 0.8 1.1 1.2
v 0.8 1.2 1.2
v 0.9 0.8 1.2
v 0.9 1 1.2
v 0.9 1.4 1.2
v 0.9 1.6 1.2
v 0.8 1.6 1.1
v 0.8 1.7 1.1
v 0.9 1.6 1.1
v 0.9 1.7 1.1
v 0.9 0.6 1
v 0.9 0.8 1
v 0.9 1.6 1
v 1 0.6 1
v 1 1.6 1
v 0.9 0.4 0.8
v 0.9 0.6 0.8
v 1 0.4 0.8
v 1 0.6 0.8
v 0.9 0.2 0.6
v 0.9 0.4 0.6
v 1 0.2 0.6
v 1 0.4 0.6
v 0.8 1.7 0.4
v 0.8 1.8 0.4
v 0.9 0 0.4
v 0.9 0.1 0.4
v 0.9 0.2 0.4
v 0.9 1.7 0.4
v 0.9 1.8 0.4
v 1 0 0.4
v 1 0.1 0.4
v 1 0.2 0.4
v 0.9 1.6 0.3
v 0.9 1.7 0.3
v 1 1.6 0.3
v 1 1.7 0.3
v -0.8 1 -1.1
v -0.8 1.5 -1.1
v -0.3 1 -1.1
v -0.3 1.3 -1.1
v -0.2 1 -1.1
v -0.2 1.1 -1.1
v -0.1 0.9 -1.1
v -0.1 1 -1.1
v -0.1 1.1 -1.1
v 0 1 -1.1
v 0 1.1 -1.1
v 0.1 1 -1.1
v 0.1 1.1 -1.1
v 0.2 0.9 -1.1
v 0.2 1.3 -1.1
v 0.4 0.8 -1.1
v 0.4 0.9 -1.1
v 0.4 1.1 -1.1
v 0.4 1.5 -1.1
v 0.4 1.6 -1.1
v 0.5 1 -1.1
v 0.5 1.1 -1.1
v 0.5 1.2 -1.1
v 0.5 1.3 -1.1
v 0.6 1.2 -1.1
v 0.6 1.3 -1.1
v 0.7 1.2 -1.1
v 0.7 1.3 -1.1
v 0.8 0.8 -1.1
v 0.8 1 -1.1
v 0.8 1.2 -1.1
v 0.8 1.3 -1.1
v 0.8 1.5 -1.1
v 0.8 1.6 -1.1
v -0.8 1 1.1
v -0.8 1.5 1.1
v -0.3 1.1 1.1
v -0.3 1.5 1.1
v -0.2 1 1.1
v -0.2 1.1 1.1
v -0.2 1.2 1.1
v -0.2 1.3 1.1
v -0.1 0.9 1.1
v -0.1 1 1.1
v -0.1 1.2 1.1
v -0.1 1.3 1.1
v 0 1.2 1.1
v 0 1.3 1.1
v 0.1 1 1.1
v 0.1 1.1 1.1
v 0.1 1.2 1.1
v 0.1 1.3 1.1
v 0.2 1.1 1.1
v 0.2 1.5 1.1
v 0.4 0.8 1.1
v 0.4 0.9 1.1
v 0.4 1 1.1
v 0.4 1.4 1.1
v 0.4 1.5 1.1
v 0.4 1.6 1.1
v 0.5 0.9 1.1
v 0.5 1 1.1
v 0.5 1.1 1.1
v 0.5 1.2 1.1
v 0.6 1.1 1.1
v 0.6 1.2 1.1
v 0.7 1.1 1.1
v 0.7 1.2 1.1
v 0.8 0.8 1.1
v 0.8 0.9 1.1
v 0.8 1.1 1.1
v 0.8 1.2 1.1
v 0.8 1.4 1.1
v 0.8 1.6 1.1
v 0.9 1.6 -0.3
v 0.9 1.7 -0.3
v 1 1.6 -0.3
v 1 1.7 -0.3
v 0.8 1.7 -0.4
v 0.8 1.8 -0.4
v 0.9 0 -0.4
v 0.9 0.2 -0.4
v 0.9 1.7 -0.4
v 0.9 1.8 -0.4
v 1 0 -0.4
v 1 0.2 -0.4
v 0.9 0.2 -0.6
v 0.9 0.4 -0.6
v 1 0.2 -0.6
v 1 0.4 -0.6
v 0.9 0.4 -0.8
v 0.9 0.6 -0.8
v 1 0.4 -0.8
v 1 0.6 -0.8
v 0.9 0.6 -1
v 0.9 0.8 -1
v 0.9 1.6 -1
v 1 0.6 -1
v 1 1.6 -1
v 0.8 1.6 -1.1
v 0.8 1.7 -1.1
v 0.9 1.6 -1.1
v 0.9 1.7 -1.1
v -0.9 1 -1.2
v -0.9 1.5 -1.2
v -0.3 1 -1.2
v -0.3 1.3 -1.2
v -0.2 1 -1.2
v -0.2 1.1 -1.2
v -0.1 0.9 -1.2
v -0.1 1 -1.2
v -0.1 1.1 -1.2
v 0 1 -1.2
v 0 1.1 -1.2
v 0.1 1 -1.2
v 0.1 1.1 -1.2
v 0.2 0.9 -1.2
v 0.2 1.3 -1.2
v 0.4 0.8 -1.2
v 0.4 0.9 -1.2
v 0.4 1.1 -1.2
v 0.4 1.5 -1.2
v 0.4 1.6 -1.2
v 0.5 1 -1.2
v 0.5 1.1 -1.2
v 0.5 1.2 -1.2
v 0.5 1.3 -1.2
v 0.6 1.2 -1.2
v 0.6 1.3 -1.2
v 0.7 1.2 -1.2
v 0.7 1.3 -1.2
v 0.8 1 -1.2
v 0.8 1.1 -1.2
v 0.8 1.2 -1.2
v 0.8 1.3 -1.2
v 0.9 0.8 -1.2
v 0.9 1.1 -1.2
v 0.9 1.5 -1.2
v 0.9 1.6 -1.2
v 0.9 0 0.4
v 1 0 0.4
v 0.9 0 -0.4
v 1 0 -0.4
v 0.9 0.2 0.6
v 1 0.2 0.6
v 0.9 0.2 0.4
v 1 0.2 0.4
v 0.9 0.2 -0.4
v 1 0.2 -0.4
v 0.9 0.2 -0.6
v 1 0.2 -0.6
v 0.9 0.4 0.8
v 1 0.4 0.8
v 0.9 0.4 0.6
v 1 0.4 0.6
v 0.9 0.4 -0.6
v 1 0.4 -0.6
v 0.9 0.4 -0.8
v 1 0.4 -0.8
v 0.9 0.6 1
v 1 0.6 1
v 0.9 0.6 0.8
v 1 0.6 0.8
v 0.9 0.6 -0.8
v 1 0.6 -0.8
v 0.9 0.6 -1
v 1 0.6 -1
v 0.4 0.8 1.2
v 0.9 0.8 1.2
v 0.4 0.8 1.1
v 0.8 0.8 1.1
v 0.9 0.8 1
v 0.9 0.8 -0.0999999
v 0.9 0.8 -0.6
v 0.9 0.8 -1
v 0.4 0.8 -1.1
v 0.8 0.8 -1.1
v 0.4 0.8 -1.2
v 0.9 0.8 -1.2
v -0.1 0.9 1.2
v 0.4 0.9 1.2
v -0.1 0.9 1.1
v 0.4 0.9 1.1
v -0.1 0.9 -1.1
v 0.2 0.9 -1.1
v 0.4 0.9 -1.1
v -0.1 0.9 -1.2
v 0.2 0.9 -1.2
v 0.4 0.9 -1.2
v -0.9 1 1.2
v -0.2 1 1.2
v -0.1 1 1.2
v -0.8 1 1.1
v -0.2 1 1.1
v -0.1 1 1.1
v -0.8 1 -1.1
v -0.3 1 -1.1
v -0.2 1 -1.1
v -0.1 1 -1.1
v -0.9 1 -1.2
v -0.3 1 -1.2
v -0.2 1 -1.2
v -0.1 1 -1.2
v -0.9 1.5 1.2
v -0.3 1.5 1.2
v 0.2 1.5 1.2
v 0.4 1.5 1.2
v -0.8 1.5 1.1
v -0.3 1.5 1.1
v 0.2 1.5 1.1
v 0.4 1.5 1.1
v -0.8 1.5 -1.1
v 0.4 1.5 -1.1
v -0.9 1.5 -1.2
v 0.4 1.5 -1.2
v 0.4 1.6 1.2
v 0.9 1.6 1.2
v 0.4 1.6 1.1
v 0.8 1.6 1.1
v 0.9 1.6 1.1
v 0.9 1.6 1
v 1 1.6 1
v 0.9 1.6 0.3
v 1 1.6 0.3
v 0.9 1.6 -0.3
v 1 1.6 -0.3
v 0.9 1.6 -1
v 1 1.6 -1
v 0.4 1.6 -1.1
v 0.8 1.6 -1.1
v 0.9 1.6 -1.1
v 0.4 1.6 -1.2
v 0.9 1.6 -1.2
v 0.8 1.7 1.1
v 0.9 1.7 1.1
v 0.8 1.7 0.4
v 0.9 1.7 0.4
v 0.9 1.7 0.3
v 1 1.7 0.3
v 0.9 1.7 -0.3
v 1 1.7 -0.3
v 0.8 1.7 -0.4
v 0.9 1.7 -0.4
v 0.8 1.7 -1.1
v 0.9 1.7 -1.1
v 0.8 1.8 0.4
v 0.9 1.8 0.4
v 0.8 1.8 -0.4
v 0.9 1.8 -0.4

# faces
f 3/1/1 2/1/1 1/1/1
f 4/1/1 2/1/1 3/1/1
f 9/1/1 6/1/1 5/1/1
f 10/1/1 6/1/1 9/1/1
f 11/2/1 8/2/1 7/2/1
f 12/2/1 8/2/1 11/2/1
f 17/1/1 14/1/1 13/1/1
f 18/1/1 14/1/1 17/1/1
f 19/1/1 16/1/1 15/1/1
f 20/1/1 16/1/1 19/1/1
f 25/1/1 22/1/1 21/1/1
f 26/1/1 22/1/1 25/1/1
f 27/1/1 24/1/1 23/1/1
f 28/1/1 24/1/1 27/1/1
f 31/1/1 30/1/1 29/1/1
f 32/1/1 30/1/1 31/1/1
f 33/1/1 32/1/1 31/1/1
f 34/1/1 32/1/1 33/1/1
f 35/1/1 32/1/1 34/1/1
f 36/1/1 35/1/1 34/1/1
f 37/1/1 36/1/1 34/1/1
f 38/1/1 36/1/1 37/1/1
f 39/1/1 38/1/1 37/1/1
f 40/1/1 38/1/1 39/1/1
f 41/1/1 40/1/1 39/1/1
f 42/1/1 40/1/1 41/1/1
f 43/1/1 40/1/1 42/1/1
f 44/1/1 40/1/1 43/1/1
f 45/1/1 43/1/1 42/1/1
f 46/1/1 43/1/1 45/1/1
f 49/1/1 48/1/1 47/1/1
f 50/1/1 48/1/1 49/1/1
f 52/2/1 50/2/1 49/2/1
f 53/1/1 48/1/1 50/1/1
f 53/2/1 50/2/1 52/2/1
f 54/1/1 48/1/1 53/1/1
f 55/1/1 48/1/1 54/1/1
f 57/2/1 52/2/1 51/2/1
f 57/2/1 53/2/1 52/2/1
f 57/2/1 54/2/1 53/2/1
f 58/2/1 54/2/1 57/2/1
f 59/2/1 54/2/1 58/2/1
f 60/2/1 54/2/1 59/2/1
f 61/1/1 56/1/1 55/1/1
f 61/1/1 55/1/1 54/1/1
f 62/1/1 56/1/1 61/1/1
f 64/2/1 57/2/1 51/2/1
f 65/1/1 58/1/1 57/1/1
f 65/2/1 57/2/1 64/2/1
f 66/2/1 59/2/1 58/2/1
f 66/1/1 58/1/1 65/1/1
f 67/1/1 60/1/1 59/1/1
f 67/2/1 59/2/1 66/2/1
f 68/2/1 54/2/1 60/2/1
f 68/1/1 60/1/1 67/1/1
f 69/1/1 61/1/1 54/1/1
f 70/2/1 62/2/1 61/2/1
f 70/1/1 61/1/1 69/1/1
f 71/1/1 56/1/1 62/1/1
f 71/2/1 62/2/1 70/2/1
f 72/1/1 56/1/1 71/1/1
f 74/2/1 70/2/1 69/2/1
f 74/2/1 71/2/1 70/2/1
f 74/2/1 72/2/1 71/2/1
f 75/2/1 72/2/1 74/2/1
f 76/2/1 72/2/1 75/2/1
f 77/2/1 72/2/1 76/2/1
f 79/1/1 64/1/1 63/1/1
f 80/2/1 67/2/1 66/2/1
f 80/2/1 66/2/1 65/2/1
f 80/1/1 64/1/1 79/1/1
f 80/2/1 65/2/1 64/2/1
f 80/2/1 68/2/1 67/2/1
f 81/2/1 54/2/1 68/2/1
f 81/2/1 68/2/1 80/2/1
f 81/1/1 69/1/1 54/1/1
f 82/1/1 75/1/1 74/1/1
f 82/2/1 74/2/1 69/2/1
f 83/2/1 76/2/1 75/2/1
f 83/1/1 75/1/1 82/1/1
f 84/1/1 77/1/1 76/1/1
f 84/2/1 76/2/1 83/2/1
f 85/2/1 72/2/1 77/2/1
f 85/1/1 77/1/1 84/1/1
f 86/1/1 73/1/1 72/1/1
f 88/1/1 79/1/1 78/1/1
f 88/1/1 80/1/1 79/1/1
f 88/1/1 81/1/1 80/1/1
f 89/2/1 84/2/1 83/2/1
f 89/1/1 81/1/1 88/1/1
f 89/2/1 83/2/1 82/2/1
f 89/2/1 85/2/1 84/2/1
f 89/2/1 82/2/1 69/2/1
f 89/1/1 69/1/1 81/1/1
f 90/1/1 87/1/1 86/1/1
f 90/2/1 85/2/1 89/2/1
f 90/2/1 72/2/1 85/2/1
f 90/1/1 86/1/1 72/1/1
f 91/1/1 87/1/1 90/1/1
f 92/1/2 93/1/2 94/1/2
f 94/1/2 93/1/2 95/1/2
f 96/1/2 97/1/2 100/1/2
f 100/1/2 97/1/2 101/1/2
f 98/1/2 99/1/2 102/1/2
f 102/1/2 99/1/2 103/1/2
f 100/2/2 101/2/2 104/2/2
f 101/1/2 97/1/2 105/1/2
f 104/2/2 101/2/2 105/2/2
f 98/1/2 102/1/2 106/1/2
f 102/2/2 103/2/2 106/2/2
f 106/2/2 103/2/2 107/2/2
f 104/1/2 105/1/2 108/1/2
f 105/1/2 97/1/2 109/1/2
f 108/1/2 105/1/2 109/1/2
f 109/1/2 97/1/2 110/1/2
f 98/1/2 106/1/2 113/1/2
f 106/1/2 107/1/2 113/1/2
f 113/1/2 107/1/2 114/1/2
f 114/1/2 107/1/2 115/1/2
f 110/1/2 111/1/2 116/1/2
f 109/1/2 110/1/2 116/1/2
f 116/1/2 111/1/2 117/1/2
f 117/1/2 111/1/2 118/1/2
f 113/1/2 114/1/2 119/1/2
f 112/1/2 113/1/2 119/1/2
f 119/1/2 114/1/2 120/1/2
f 120/1/2 114/1/2 121/1/2
f 117/1/2 118/1/2 122/1/2
f 119/1/2 120/1/2 122/1/2
f 118/1/2 119/1/2 122/1/2
f 122/1/2 120/1/2 123/1/2
f 124/1/2 125/1/2 126/1/2
f 126/1/2 125/1/2 127/1/2
f 126/2/2 127/2/2 129/2/2
f 127/1/2 125/1/2 130/1/2
f 129/2/2 127/2/2 130/2/2
f 130/1/2 125/1/2 131/1/2
f 131/1/2 125/1/2 132/1/2
f 128/2/2 129/2/2 134/2/2
f 129/2/2 130/2/2 134/2/2
f 130/2/2 131/2/2 134/2/2
f 134/2/2 131/2/2 135/2/2
f 135/2/2 131/2/2 136/2/2
f 136/2/2 131/2/2 137/2/2
f 132/1/2 133/1/2 138/1/2
f 131/1/2 132/1/2 138/1/2
f 138/1/2 133/1/2 139/1/2
f 128/2/2 134/2/2 141/2/2
f 134/1/2 135/1/2 142/1/2
f 141/2/2 134/2/2 142/2/2
f 135/2/2 136/2/2 143/2/2
f 142/1/2 135/1/2 143/1/2
f 136/1/2 137/1/2 144/1/2
f 143/2/2 136/2/2 144/2/2
f 137/2/2 131/2/2 145/2/2
f 144/1/2 137/1/2 145/1/2
f 131/1/2 138/1/2 146/1/2
f 138/2/2 139/2/2 147/2/2
f 146/1/2 138/1/2 147/1/2
f 139/1/2 133/1/2 148/1/2
f 147/2/2 139/2/2 148/2/2
f 148/1/2 133/1/2 149/1/2
f 146/2/2 147/2/2 151/2/2
f 147/2/2 148/2/2 151/2/2
f 148/2/2 149/2/2 151/2/2
f 151/2/2 149/2/2 152/2/2
f 152/2/2 149/2/2 153/2/2
f 153/2/2 149/2/2 154/2/2
f 140/1/2 141/1/2 156/1/2
f 143/2/2 144/2/2 157/2/2
f 142/2/2 143/2/2 157/2/2
f 156/1/2 141/1/2 157/1/2
f 141/2/2 142/2/2 157/2/2
f 144/2/2 145/2/2 157/2/2
f 145/2/2 131/2/2 158/2/2
f 157/2/2 145/2/2 158/2/2
f 131/1/2 146/1/2 158/1/2
f 151/1/2 152/1/2 159/1/2
f 146/2/2 151/2/2 159/2/2
f 152/2/2 153/2/2 160/2/2
f 159/1/2 152/1/2 160/1/2
f 153/1/2 154/1/2 161/1/2
f 160/2/2 153/2/2 161/2/2
f 154/2/2 149/2/2 162/2/2
f 161/1/2 154/1/2 162/1/2
f 149/1/2 150/1/2 163/1/2
f 155/1/2 156/1/2 165/1/2
f 156/1/2 157/1/2 165/1/2
f 157/1/2 158/1/2 165/1/2
f 165/1/2 158/1/2 166/1/2
f 160/2/2 161/2/2 167/2/2
f 166/1/2 158/1/2 167/1/2
f 159/2/2 160/2/2 167/2/2
f 158/1/2 146/1/2 167/1/2
f 161/2/2 162/2/2 167/2/2
f 146/2/2 159/2/2 167/2/2
f 163/1/2 164/1/2 168/1/2
f 167/2/2 162/2/2 168/2/2
f 162/2/2 149/2/2 168/2/2
f 149/1/2 163/1/2 168/1/2
f 155/1/2 165/1/2 169/1/2
f 165/2/2 166/2/2 170/2/2
f 169/1/2 165/1/2 170/1/2
f 166/1/2 167/1/2 171/1/2
f 170/2/2 166/2/2 171/2/2
f 167/1/2 168/1/2 171/1/2
f 171/1/2 168/1/2 172/1/2
f 172/1/2 168/1/2 173/1/2
f 168/1/2 164/1/2 174/1/2
f 173/1/2 168/1/2 174/1/2
f 169/2/2 170/2/2 175/2/2
f 170/2/2 171/2/2 175/2/2
f 171/2/2 172/2/2 175/2/2
f 175/2/2 172/2/2 176/2/2
f 176/2/2 172/2/2 177/2/2
f 177/2/2 172/2/2 178/2/2
f 172/1/2 173/1/2 179/1/2
f 179/1/2 173/1/2 180/1/2
f 180/1/2 173/1/2 181/1/2
f 173/2/2 174/2/2 182/2/2
f 181/1/2 173/1/2 182/1/2
f 174/1/2 164/1/2 183/1/2
f 182/2/2 174/2/2 183/2/2
f 183/1/2 164/1/2 184/1/2
f 169/2/2 175/2/2 185/2/2
f 175/1/2 176/1/2 185/1/2
f 176/2/2 177/2/2 186/2/2
f 185/1/2 176/1/2 186/1/2
f 177/1/2 178/1/2 187/1/2
f 186/2/2 177/2/2 187/2/2
f 178/2/2 172/2/2 188/2/2
f 187/1/2 178/1/2 188/1/2
f 172/1/2 179/1/2 189/1/2
f 179/2/2 180/2/2 190/2/2
f 189/1/2 179/1/2 190/1/2
f 180/1/2 181/1/2 191/1/2
f 190/2/2 180/2/2 191/2/2
f 191/1/2 181/1/2 192/1/2
f 181/2/2 182/2/2 193/2/2
f 183/2/2 184/2/2 193/2/2
f 182/2/2 183/2/2 193/2/2
f 193/2/2 184/2/2 194/2/2
f 194/2/2 184/2/2 195/2/2
f 195/2/2 184/2/2 196/2/2
f 189/2/2 190/2/2 197/2/2
f 191/2/2 192/2/2 197/2/2
f 190/2/2 191/2/2 197/2/2
f 197/2/2 192/2/2 198/2/2
f 198/2/2 192/2/2 199/2/2
f 199/2/2 192/2/2 200/2/2
f 181/2/2 193/2/2 201/2/2
f 193/1/2 194/1/2 201/1/2
f 194/2/2 195/2/2 202/2/2
f 201/1/2 194/1/2 202/1/2
f 195/1/2 196/1/2 203/1/2
f 202/2/2 195/2/2 203/2/2
f 196/2/2 184/2/2 204/2/2
f 203/1/2 196/1/2 204/1/2
f 155/1/2 169/1/2 205/1/2
f 186/2/2 187/2/2 205/2/2
f 169/2/2 185/2/2 205/2/2
f 185/2/2 186/2/2 205/2/2
f 187/2/2 188/2/2 205/2/2
f 188/2/2 172/2/2 206/2/2
f 205/2/2 188/2/2 206/2/2
f 172/1/2 189/1/2 206/1/2
f 197/1/2 198/1/2 207/1/2
f 189/2/2 197/2/2 207/2/2
f 198/2/2 199/2/2 208/2/2
f 207/1/2 198/1/2 208/1/2
f 199/1/2 200/1/2 209/1/2
f 208/2/2 199/2/2 209/2/2
f 200/2/2 192/2/2 210/2/2
f 209/1/2 200/1/2 210/1/2
f 192/1/2 181/1/2 211/1/2
f 203/2/2 204/2/2 211/2/2
f 202/2/2 203/2/2 211/2/2
f 201/2/2 202/2/2 211/2/2
f 181/2/2 201/2/2 211/2/2
f 204/2/2 184/2/2 212/2/2
f 211/2/2 204/2/2 212/2/2
f 184/1/2 164/1/2 212/1/2
f 209/2/2 210/2/2 213/2/2
f 208/2/2 209/2/2 213/2/2
f 207/2/2 208/2/2 213/2/2
f 205/1/2 206/1/2 213/1/2
f 206/1/2 189/1/2 213/1/2
f 189/2/2 207/2/2 213/2/2
f 210/2/2 192/2/2 214/2/2
f 213/2/2 210/2/2 214/2/2
f 192/1/2 211/1/2 214/1/2
f 211/1/2 212/1/2 214/1/2
f 205/1/2 213/1/2 215/1/2
f 155/1/2 205/1/2 215/1/2
f 213/1/2 214/1/2 215/1/2
f 215/1/2 214/1/2 216/1/2
f 214/1/2 212/1/2 217/1/2
f 216/1/2 214/1/2 217/1/2
f 212/1/2 164/1/2 218/1/2
f 217/1/2 212/1/2 218/1/2
f 216/1/2 217/1/2 219/1/2
f 219/1/2 217/1/2 220/1/2
f 223/1/3 222/1/3 221/1/3
f 224/1/3 222/1/3 223/1/3
f 225/1/3 223/1/3 221/1/3
f 226/2/3 224/2/3 223/2/3
f 226/1/3 223/1/3 225/1/3
f 227/2/3 224/2/3 226/2/3
f 228/2/3 224/2/3 227/2/3
f 230/2/3 226/2/3 225/2/3
f 230/2/3 227/2/3 226/2/3
f 231/1/3 228/1/3 227/1/3
f 231/2/3 227/2/3 230/2/3
f 232/2/3 224/2/3 228/2/3
f 232/1/3 228/1/3 231/1/3
f 233/2/3 231/2/3 230/2/3
f 233/2/3 232/2/3 231/2/3
f 234/2/3 224/2/3 232/2/3
f 234/2/3 232/2/3 233/2/3
f 235/2/3 233/2/3 230/2/3
f 235/1/3 230/1/3 229/1/3
f 236/2/3 233/2/3 235/2/3
f 237/1/3 234/1/3 233/1/3
f 237/2/3 233/2/3 236/2/3
f 238/2/3 224/2/3 234/2/3
f 238/1/3 234/1/3 237/1/3
f 239/2/3 237/2/3 236/2/3
f 239/1/3 236/1/3 235/1/3
f 239/2/3 238/2/3 237/2/3
f 240/2/3 224/2/3 238/2/3
f 240/2/3 238/2/3 239/2/3
f 242/1/3 239/1/3 235/1/3
f 242/1/3 235/1/3 229/1/3
f 242/1/3 240/1/3 239/1/3
f 243/1/3 240/1/3 242/1/3
f 244/1/3 240/1/3 243/1/3
f 245/1/3 240/1/3 244/1/3
f 247/1/3 242/1/3 241/1/3
f 247/1/3 243/1/3 242/1/3
f 248/2/3 244/2/3 243/2/3
f 248/1/3 243/1/3 247/1/3
f 249/2/3 244/2/3 248/2/3
f 250/2/3 244/2/3 249/2/3
f 251/2/3 248/2/3 247/2/3
f 251/2/3 249/2/3 248/2/3
f 251/1/3 250/1/3 249/1/3
f 252/2/3 244/2/3 250/2/3
f 252/1/3 250/1/3 251/1/3
f 253/2/3 251/2/3 247/2/3
f 253/2/3 252/2/3 251/2/3
f 254/2/3 244/2/3 252/2/3
f 254/2/3 252/2/3 253/2/3
f 255/1/3 247/1/3 241/1/3
f 255/2/3 253/2/3 247/2/3
f 256/2/3 253/2/3 255/2/3
f 257/1/3 254/1/3 253/1/3
f 257/2/3 253/2/3 256/2/3
f 258/2/3 244/2/3 254/2/3
f 258/1/3 254/1/3 257/1/3
f 259/1/3 256/1/3 255/1/3
f 259/1/3 255/1/3 241/1/3
f 260/2/3 257/2/3 256/2/3
f 260/1/3 256/1/3 259/1/3
f 260/2/3 258/2/3 257/2/3
f 261/1/3 245/1/3 244/1/3
f 261/2/3 258/2/3 260/2/3
f 261/1/3 246/1/3 245/1/3
f 261/2/3 244/2/3 258/2/3
f 262/1/3 246/1/3 261/1/3
f 265/1/3 264/1/3 263/1/3
f 266/1/3 264/1/3 265/1/3
f 270/1/3 268/1/3 267/1/3
f 270/1/3 269/1/3 268/1/3
f 271/1/3 269/1/3 270/1/3
f 274/1/3 273/1/3 272/1/3
f 275/1/3 273/1/3 274/1/3
f 278/2/3 277/2/3 276/2/3
f 279/2/3 277/2/3 278/2/3
f 285/1/3 281/1/3 280/1/3
f 286/1/3 281/1/3 285/1/3
f 287/1/3 283/1/3 282/1/3
f 288/2/3 284/2/3 283/2/3
f 288/1/3 283/1/3 287/1/3
f 289/2/3 284/2/3 288/2/3
f 292/1/3 291/1/3 290/1/3
f 293/1/3 291/1/3 292/1/3
f 296/1/3 295/1/3 294/1/3
f 297/1/3 295/1/3 296/1/3
f 298/2/3 297/2/3 296/2/3
f 299/2/3 297/2/3 298/2/3
f 301/1/3 299/1/3 298/1/3
f 302/2/3 297/2/3 299/2/3
f 302/1/3 299/1/3 301/1/3
f 303/2/3 301/2/3 300/2/3
f 303/2/3 302/2/3 301/2/3
f 304/2/3 297/2/3 302/2/3
f 304/2/3 302/2/3 303/2/3
f 305/2/3 303/2/3 300/2/3
f 305/1/3 304/1/3 303/1/3
f 306/2/3 297/2/3 304/2/3
f 306/1/3 304/1/3 305/1/3
f 307/2/3 305/2/3 300/2/3
f 307/2/3 306/2/3 305/2/3
f 308/1/3 295/1/3 297/1/3
f 308/2/3 306/2/3 307/2/3
f 308/2/3 297/2/3 306/2/3
f 310/1/3 308/1/3 307/1/3
f 311/1/3 308/1/3 310/1/3
f 312/1/3 295/1/3 308/1/3
f 312/1/3 308/1/3 311/1/3
f 314/1/3 311/1/3 310/1/3
f 314/1/3 310/1/3 309/1/3
f 315/2/3 312/2/3 311/2/3
f 315/1/3 311/1/3 314/1/3
f 316/2/3 312/2/3 315/2/3
f 317/2/3 312/2/3 316/2/3
f 318/2/3 315/2/3 314/2/3
f 318/2/3 316/2/3 315/2/3
f 318/1/3 317/1/3 316/1/3
f 319/2/3 312/2/3 317/2/3
f 319/1/3 317/1/3 318/1/3
f 320/2/3 318/2/3 314/2/3
f 320/2/3 319/2/3 318/2/3
f 321/2/3 312/2/3 319/2/3
f 321/2/3 319/2/3 320/2/3
f 322/1/3 314/1/3 309/1/3
f 323/2/3 320/2/3 314/2/3
f 323/1/3 314/1/3 322/1/3
f 324/1/3 321/1/3 320/1/3
f 324/2/3 320/2/3 323/2/3
f 325/2/3 312/2/3 321/2/3
f 325/1/3 321/1/3 324/1/3
f 326/1/3 313/1/3 312/1/3
f 326/2/3 312/2/3 325/2/3
f 327/1/3 313/1/3 326/1/3
f 328/1/4 329/1/4 330/1/4
f 330/1/4 329/1/4 331/1/4
f 328/1/4 330/1/4 332/1/4
f 330/2/4 331/2/4 333/2/4
f 332/1/4 330/1/4 333/1/4
f 333/2/4 331/2/4 334/2/4
f 334/2/4 331/2/4 335/2/4
f 332/2/4 333/2/4 337/2/4
f 333/2/4 334/2/4 337/2/4
f 334/1/4 335/1/4 338/1/4
f 337/2/4 334/2/4 338/2/4
f 335/2/4 331/2/4 339/2/4
f 338/1/4 335/1/4 339/1/4
f 337/2/4 338/2/4 340/2/4
f 338/2/4 339/2/4 340/2/4
f 339/2/4 331/2/4 341/2/4
f 340/2/4 339/2/4 341/2/4
f 337/2/4 340/2/4 342/2/4
f 336/1/4 337/1/4 342/1/4
f 342/2/4 340/2/4 343/2/4
f 340/1/4 341/1/4 344/1/4
f 343/2/4 340/2/4 344/2/4
f 341/2/4 331/2/4 345/2/4
f 344/1/4 341/1/4 345/1/4
f 343/2/4 344/2/4 346/2/4
f 342/1/4 343/1/4 346/1/4
f 344/2/4 345/2/4 346/2/4
f 345/2/4 331/2/4 347/2/4
f 346/2/4 345/2/4 347/2/4
f 342/1/4 346/1/4 349/1/4
f 336/1/4 342/1/4 349/1/4
f 346/1/4 347/1/4 349/1/4
f 349/1/4 347/1/4 350/1/4
f 350/1/4 347/1/4 351/1/4
f 351/1/4 347/1/4 352/1/4
f 348/1/4 349/1/4 354/1/4
f 349/1/4 350/1/4 354/1/4
f 350/2/4 351/2/4 355/2/4
f 354/1/4 350/1/4 355/1/4
f 355/2/4 351/2/4 356/2/4
f 356/2/4 351/2/4 357/2/4
f 354/2/4 355/2/4 358/2/4
f 355/2/4 356/2/4 358/2/4
f 356/1/4 357/1/4 358/1/4
f 357/2/4 351/2/4 359/2/4
f 358/1/4 357/1/4 359/1/4
f 354/2/4 358/2/4 360/2/4
f 358/2/4 359/2/4 360/2/4
f 359/2/4 351/2/4 361/2/4
f 360/2/4 359/2/4 361/2/4
f 348/1/4 354/1/4 362/1/4
f 354/2/4 360/2/4 363/2/4
f 362/1/4 354/1/4 363/1/4
f 360/1/4 361/1/4 364/1/4
f 363/2/4 360/2/4 364/2/4
f 361/2/4 351/2/4 365/2/4
f 364/1/4 361/1/4 365/1/4
f 351/1/4 352/1/4 366/1/4
f 365/2/4 351/2/4 366/2/4
f 352/1/4 353/1/4 366/1/4
f 366/1/4 353/1/4 367/1/4
f 368/1/4 369/1/4 370/1/4
f 370/1/4 369/1/4 371/1/4
f 372/1/4 373/1/4 376/1/4
f 376/1/4 373/1/4 377/1/4
f 374/1/4 375/1/4 378/1/4
f 378/1/4 375/1/4 379/1/4
f 380/1/4 381/1/4 382/1/4
f 382/1/4 381/1/4 383/1/4
f 384/1/4 385/1/4 386/1/4
f 386/1/4 385/1/4 387/1/4
f 388/1/4 389/1/4 391/1/4
f 389/1/4 390/1/4 391/1/4
f 391/1/4 390/1/4 392/1/4
f 393/1/4 394/1/4 395/1/4
f 395/1/4 394/1/4 396/1/4
f 397/1/4 398/1/4 399/1/4
f 399/1/4 398/1/4 400/1/4
f 399/2/4 400/2/4 401/2/4
f 401/2/4 400/2/4 402/2/4
f 401/1/4 402/1/4 404/1/4
f 402/2/4 400/2/4 405/2/4
f 404/1/4 402/1/4 405/1/4
f 403/2/4 404/2/4 406/2/4
f 404/2/4 405/2/4 406/2/4
f 405/2/4 400/2/4 407/2/4
f 406/2/4 405/2/4 407/2/4
f 403/2/4 406/2/4 408/2/4
f 406/1/4 407/1/4 408/1/4
f 407/2/4 400/2/4 409/2/4
f 408/1/4 407/1/4 409/1/4
f 403/2/4 408/2/4 410/2/4
f 408/2/4 409/2/4 410/2/4
f 400/1/4 398/1/4 411/1/4
f 410/2/4 409/2/4 411/2/4
f 409/2/4 400/2/4 411/2/4
f 410/1/4 411/1/4 413/1/4
f 413/1/4 411/1/4 414/1/4
f 411/1/4 398/1/4 415/1/4
f 414/1/4 411/1/4 415/1/4
f 413/1/4 414/1/4 417/1/4
f 412/1/4 413/1/4 417/1/4
f 414/2/4 415/2/4 418/2/4
f 417/1/4 414/1/4 418/1/4
f 418/2/4 415/2/4 419/2/4
f 419/2/4 415/2/4 420/2/4
f 417/2/4 418/2/4 421/2/4
f 418/2/4 419/2/4 421/2/4
f 419/1/4 420/1/4 421/1/4
f 420/2/4 415/2/4 422/2/4
f 421/1/4 420/1/4 422/1/4
f 417/2/4 421/2/4 423/2/4
f 421/2/4 422/2/4 423/2/4
f 422/2/4 415/2/4 424/2/4
f 423/2/4 422/2/4 424/2/4
f 412/1/4 417/1/4 425/1/4
f 417/2/4 423/2/4 425/2/4
f 425/2/4 423/2/4 426/2/4
f 423/1/4 424/1/4 427/1/4
f 426/2/4 423/2/4 427/2/4
f 424/2/4 415/2/4 428/2/4
f 427/1/4 424/1/4 428/1/4
f 425/1/4 426/1/4 429/1/4
f 412/1/4 425/1/4 429/1/4
f 426/2/4 427/2/4 430/2/4
f 429/1/4 426/1/4 430/1/4
f 427/2/4 428/2/4 430/2/4
f 415/1/4 416/1/4 431/1/4
f 430/2/4 428/2/4 431/2/4
f 428/2/4 415/2/4 431/2/4
f 431/1/4 416/1/4 432/1/4
f 435/1/5 434/1/5 433/1/5
f 436/1/5 434/1/5 435/1/5
f 439/2/5 438/2/5 437/2/5
f 440/2/5 438/2/5 439/2/5
f 443/1/5 442/1/5 441/1/5
f 444/1/5 442/1/5 443/1/5
f 447/1/5 446/1/5 445/1/5
f 448/1/5 446/1/5 447/1/5
f 451/1/5 450/1/5 449/1/5
f 452/1/5 450/1/5 451/1/5
f 455/1/5 454/1/5 453/1/5
f 456/1/5 454/1/5 455/1/5
f 459/1/5 458/1/5 457/1/5
f 460/1/5 458/1/5 459/1/5
f 463/1/5 462/1/5 461/1/5
f 464/1/5 462/1/5 463/1/5
f 465/1/5 462/1/5 464/1/5
f 466/1/5 465/1/5 464/1/5
f 467/1/5 466/1/5 464/1/5
f 468/1/5 467/1/5 464/1/5
f 470/1/5 468/1/5 464/1/5
f 471/1/5 470/1/5 469/1/5
f 472/1/5 468/1/5 470/1/5
f 472/1/5 470/1/5 471/1/5
f 475/1/5 474/1/5 473/1/5
f 476/1/5 474/1/5 475/1/5
f 480/2/5 478/2/5 477/2/5
f 481/1/5 479/1/5 478/1/5
f 481/2/5 478/2/5 480/2/5
f 482/1/5 479/1/5 481/1/5
f 486/1/5 484/1/5 483/1/5
f 487/2/5 485/2/5 484/2/5
f 487/1/5 484/1/5 486/1/5
f 488/2/5 485/2/5 487/2/5
f 489/1/5 486/1/5 483/1/5
f 493/1/5 489/1/5 483/1/5
f 493/1/5 490/1/5 489/1/5
f 494/2/5 491/2/5 490/2/5
f 494/1/5 490/1/5 493/1/5
f 495/1/5 492/1/5 491/1/5
f 495/2/5 491/2/5 494/2/5
f 496/1/5 492/1/5 495/1/5
f 497/1/6 498/1/6 501/1/6
f 498/2/6 499/2/6 502/2/6
f 501/1/6 498/1/6 502/1/6
f 499/1/6 500/1/6 503/1/6
f 502/2/6 499/2/6 503/2/6
f 503/1/6 500/1/6 504/1/6
f 497/1/6 501/1/6 505/1/6
f 497/1/6 505/1/6 507/1/6
f 505/1/6 506/1/6 507/1/6
f 507/1/6 506/1/6 508/1/6
f 509/1/6 510/1/6 511/1/6
f 511/1/6 510/1/6 512/1/6
f 512/1/6 510/1/6 513/1/6
f 514/1/6 515/1/6 516/1/6
f 516/1/6 515/1/6 517/1/6
f 518/1/6 519/1/6 520/1/6
f 520/1/6 519/1/6 521/1/6
f 522/1/6 523/1/6 525/1/6
f 523/1/6 524/1/6 525/1/6
f 525/1/6 524/1/6 526/1/6
f 527/1/6 528/1/6 529/1/6
f 529/1/6 528/1/6 530/1/6
f 531/1/6 532/1/6 533/1/6
f 533/1/6 532/1/6 534/1/6
f 535/1/6 536/1/6 537/1/6
f 537/1/6 536/1/6 538/1/6
f 539/1/6 540/1/6 541/1/6
f 541/1/6 540/1/6 542/1/6
