# MagicaVoxel @ Ephtracy

# group
o 

# material
mtllib model-2.mtl
usemtl palette

# normals
vn -1 0 0
vn 1 0 0
vn 0 0 1
vn 0 0 -1
vn 0 -1 0
vn 0 1 0

# texcoords
vt 0.720703 0.5
vt 0.724609 0.5
vt 0.771484 0.5
vt 0.775391 0.5

# verts
v -0.2 0 0.6
v -0.2 0 -0.6
v -0.2 0.1 1.1
v -0.2 0.1 0.6
v -0.2 0.1 -0.6
v -0.2 0.1 -1.1
v -0.2 0.2 1.2
v -0.2 0.2 1.1
v -0.2 0.2 -1.1
v -0.2 0.2 -1.2
v -0.2 0.4 1.2
v -0.2 0.4 -1.2
v -0.2 0.5 1.2
v -0.2 0.5 -1.2
v -0.2 1.3 1.2
v -0.2 1.3 -1.2
v 0.5 0.8 1.2
v 0.5 0.8 0.5
v 0.5 0.8 -0.5
v 0.5 0.8 -1.2
v 0.5 1 1.2
v 0.5 1 0.5
v 0.5 1 -0.5
v 0.5 1 -1.2
v 0.5 1.1 1.2
v 0.5 1.1 -1.2
v 0.5 1.3 1.2
v 0.5 1.3 -1.2
v 1.1 0.1 1.1
v 1.1 0.1 0.6
v 1.1 0.1 -0.6
v 1.1 0.1 -1.1
v 1.1 0.2 1.2
v 1.1 0.2 1.1
v 1.1 0.2 -1.1
v 1.1 0.2 -1.2
v 1.1 0.8 1.2
v 1.1 0.8 0.6
v 1.1 0.8 -0.6
v 1.1 0.8 -1.2
v 1.2 0.1 0.4
v 1.2 0.1 0.3
v 1.2 0.1 0.2
v 1.2 0.1 0.1
v 1.2 0.1 0
v 1.2 0.1 -0.0999999
v 1.2 0.1 -0.2
v 1.2 0.1 -0.3
v 1.2 0.1 -0.4
v 1.2 0.8 0.4
v 1.2 0.8 0.3
v 1.2 0.8 0.2
v 1.2 0.8 0.1
v 1.2 0.8 0
v 1.2 0.8 -0.0999999
v 1.2 0.8 -0.2
v 1.2 0.8 -0.3
v 1.2 0.8 -0.4
v 1.3 0 0.6
v 1.3 0 -0.6
v 1.3 0.1 0.4
v 1.3 0.1 -0.4
v 1.3 0.8 0.6
v 1.3 0.8 0.5
v 1.3 0.8 0.4
v 1.3 0.8 -0.4
v 1.3 0.8 -0.5
v 1.3 0.8 -0.6
v 1.3 1 0.5
v 1.3 1 -0.5
v -0.2 0.2 1.2
v -0.2 0.4 1.2
v -0.2 0.5 1.2
v -0.2 1.3 1.2
v 0.1 0.5 1.2
v 0.1 1.1 1.2
v 0.2 0.4 1.2
v 0.2 1 1.2
v 0.5 0.8 1.2
v 0.5 1 1.2
v 0.5 1.1 1.2
v 0.5 1.3 1.2
v 1.1 0.2 1.2
v 1.1 0.8 1.2
v -0.2 0.1 1.1
v -0.2 0.2 1.1
v 1.1 0.1 1.1
v 1.1 0.2 1.1
v -0.2 0 0.6
v -0.2 0.1 0.6
v 1.1 0.1 0.6
v 1.1 0.8 0.6
v 1.3 0 0.6
v 1.3 0.8 0.6
v 0.5 0.8 0.5
v 0.5 1 0.5
v 1.3 0.8 0.5
v 1.3 1 0.5
v 1.2 0.1 -0.4
v 1.2 0.8 -0.4
v 1.3 0.1 -0.4
v 1.3 0.8 -0.4
v 1.2 0.1 0.4
v 1.2 0.8 0.4
v 1.3 0.1 0.4
v 1.3 0.8 0.4
v 0.5 0.8 -0.5
v 0.5 1 -0.5
v 1.3 0.8 -0.5
v 1.3 1 -0.5
v -0.2 0 -0.6
v -0.2 0.1 -0.6
v 1.1 0.1 -0.6
v 1.1 0.8 -0.6
v 1.3 0 -0.6
v 1.3 0.8 -0.6
v -0.2 0.1 -1.1
v -0.2 0.2 -1.1
v 1.1 0.1 -1.1
v 1.1 0.2 -1.1
v -0.2 0.2 -1.2
v -0.2 0.4 -1.2
v -0.2 0.5 -1.2
v -0.2 1.3 -1.2
v 0.1 0.5 -1.2
v 0.1 1.1 -1.2
v 0.2 0.4 -1.2
v 0.2 1 -1.2
v 0.5 0.8 -1.2
v 0.5 1 -1.2
v 0.5 1.1 -1.2
v 0.5 1.3 -1.2
v 1.1 0.2 -1.2
v 1.1 0.8 -1.2
v -0.2 0 0.6
v 1.3 0 0.6
v -0.2 0 -0.6
v 1.3 0 -0.6
v -0.2 0.1 1.1
v 1.1 0.1 1.1
v -0.2 0.1 0.6
v 1.1 0.1 0.6
v -0.2 0.1 -0.6
v 1.1 0.1 -0.6
v -0.2 0.1 -1.1
v 1.1 0.1 -1.1
v -0.2 0.2 1.2
v 1.1 0.2 1.2
v -0.2 0.2 1.1
v 1.1 0.2 1.1
v -0.2 0.2 -1.1
v 1.1 0.2 -1.1
v -0.2 0.2 -1.2
v 1.1 0.2 -1.2
v 1.2 0.8 0.4
v 1.3 0.8 0.4
v 1.2 0.8 0.3
v 1.2 0.8 0.2
v 1.2 0.8 0.1
v 1.2 0.8 0
v 1.2 0.8 -0.0999999
v 1.2 0.8 -0.2
v 1.2 0.8 -0.3
v 1.2 0.8 -0.4
v 1.3 0.8 -0.4
v 1.2 0.1 0.4
v 1.3 0.1 0.4
v 1.2 0.1 0.3
v 1.2 0.1 0.2
v 1.2 0.1 0.1
v 1.2 0.1 0
v 1.2 0.1 -0.0999999
v 1.2 0.1 -0.2
v 1.2 0.1 -0.3
v 1.2 0.1 -0.4
v 1.3 0.1 -0.4
v 0.5 0.8 1.2
v 1.1 0.8 1.2
v 1.1 0.8 0.6
v 1.3 0.8 0.6
v 0.5 0.8 0.5
v 1.3 0.8 0.5
v 0.5 0.8 -0.5
v 1.3 0.8 -0.5
v 1.1 0.8 -0.6
v 1.3 0.8 -0.6
v 0.5 0.8 -1.2
v 1.1 0.8 -1.2
v 0.5 1 0.5
v 1.3 1 0.5
v 0.5 1 -0.5
v 1.3 1 -0.5
v -0.2 1.3 1.2
v 0.5 1.3 1.2
v -0.2 1.3 -1.2
v 0.5 1.3 -1.2

# faces
f 4/4/1 2/4/1 1/4/1
f 5/4/1 2/4/1 4/4/1
f 8/4/1 4/4/1 3/4/1
f 8/4/1 6/4/1 5/4/1
f 8/4/1 5/4/1 4/4/1
f 9/4/1 6/4/1 8/4/1
f 11/4/1 8/4/1 7/4/1
f 11/4/1 10/4/1 9/4/1
f 11/4/1 9/4/1 8/4/1
f 12/4/1 10/4/1 11/4/1
f 13/3/1 12/3/1 11/3/1
f 14/3/1 12/3/1 13/3/1
f 15/4/1 14/4/1 13/4/1
f 16/4/1 14/4/1 15/4/1
f 17/4/2 18/4/2 21/4/2
f 21/4/2 18/4/2 22/4/2
f 19/4/2 20/4/2 23/4/2
f 23/4/2 20/4/2 24/4/2
f 21/3/2 22/3/2 25/3/2
f 22/3/2 23/3/2 25/3/2
f 23/3/2 24/3/2 25/3/2
f 25/3/2 24/3/2 26/3/2
f 25/4/2 26/4/2 27/4/2
f 27/4/2 26/4/2 28/4/2
f 29/4/2 30/4/2 34/4/2
f 31/4/2 32/4/2 35/4/2
f 33/4/2 34/4/2 37/4/2
f 34/4/2 30/4/2 38/4/2
f 37/4/2 34/4/2 38/4/2
f 35/4/2 36/4/2 39/4/2
f 31/4/2 35/4/2 39/4/2
f 39/4/2 36/4/2 40/4/2
f 41/2/2 42/2/2 50/2/2
f 42/1/2 43/1/2 51/1/2
f 50/2/2 42/2/2 51/2/2
f 43/2/2 44/2/2 52/2/2
f 51/1/2 43/1/2 52/1/2
f 44/1/2 45/1/2 53/1/2
f 52/2/2 44/2/2 53/2/2
f 45/2/2 46/2/2 54/2/2
f 53/1/2 45/1/2 54/1/2
f 46/1/2 47/1/2 55/1/2
f 54/2/2 46/2/2 55/2/2
f 47/2/2 48/2/2 56/2/2
f 55/1/2 47/1/2 56/1/2
f 48/1/2 49/1/2 57/1/2
f 56/2/2 48/2/2 57/2/2
f 57/1/2 49/1/2 58/1/2
f 59/4/2 60/4/2 61/4/2
f 61/4/2 60/4/2 62/4/2
f 59/4/2 61/4/2 63/4/2
f 63/4/2 61/4/2 64/4/2
f 64/4/2 61/4/2 65/4/2
f 62/4/2 60/4/2 66/4/2
f 66/4/2 60/4/2 67/4/2
f 67/4/2 60/4/2 68/4/2
f 64/4/2 65/4/2 69/4/2
f 66/4/2 67/4/2 69/4/2
f 65/4/2 66/4/2 69/4/2
f 69/4/2 67/4/2 70/4/2
f 75/3/3 73/3/3 72/3/3
f 75/4/3 74/4/3 73/4/3
f 76/4/3 74/4/3 75/4/3
f 77/4/3 72/4/3 71/4/3
f 77/3/3 75/3/3 72/3/3
f 77/3/3 76/3/3 75/3/3
f 78/3/3 76/3/3 77/3/3
f 79/4/3 78/4/3 77/4/3
f 80/3/3 76/3/3 78/3/3
f 80/4/3 78/4/3 79/4/3
f 81/4/3 74/4/3 76/4/3
f 81/3/3 76/3/3 80/3/3
f 82/4/3 74/4/3 81/4/3
f 83/4/3 77/4/3 71/4/3
f 83/4/3 79/4/3 77/4/3
f 84/4/3 79/4/3 83/4/3
f 87/4/3 86/4/3 85/4/3
f 88/4/3 86/4/3 87/4/3
f 91/4/3 90/4/3 89/4/3
f 93/4/3 91/4/3 89/4/3
f 93/4/3 92/4/3 91/4/3
f 94/4/3 92/4/3 93/4/3
f 97/4/3 96/4/3 95/4/3
f 98/4/3 96/4/3 97/4/3
f 101/4/3 100/4/3 99/4/3
f 102/4/3 100/4/3 101/4/3
f 103/4/4 104/4/4 105/4/4
f 105/4/4 104/4/4 106/4/4
f 107/4/4 108/4/4 109/4/4
f 109/4/4 108/4/4 110/4/4
f 111/4/4 112/4/4 113/4/4
f 111/4/4 113/4/4 115/4/4
f 113/4/4 114/4/4 115/4/4
f 115/4/4 114/4/4 116/4/4
f 117/4/4 118/4/4 119/4/4
f 119/4/4 118/4/4 120/4/4
f 122/3/4 123/3/4 125/3/4
f 123/4/4 124/4/4 125/4/4
f 125/4/4 124/4/4 126/4/4
f 121/4/4 122/4/4 127/4/4
f 122/3/4 125/3/4 127/3/4
f 125/3/4 126/3/4 127/3/4
f 127/3/4 126/3/4 128/3/4
f 127/4/4 128/4/4 129/4/4
f 128/3/4 126/3/4 130/3/4
f 129/4/4 128/4/4 130/4/4
f 126/4/4 124/4/4 131/4/4
f 130/3/4 126/3/4 131/3/4
f 131/4/4 124/4/4 132/4/4
f 121/4/4 127/4/4 133/4/4
f 127/4/4 129/4/4 133/4/4
f 133/4/4 129/4/4 134/4/4
f 137/4/5 136/4/5 135/4/5
f 138/4/5 136/4/5 137/4/5
f 141/4/5 140/4/5 139/4/5
f 142/4/5 140/4/5 141/4/5
f 145/4/5 144/4/5 143/4/5
f 146/4/5 144/4/5 145/4/5
f 149/4/5 148/4/5 147/4/5
f 150/4/5 148/4/5 149/4/5
f 153/4/5 152/4/5 151/4/5
f 154/4/5 152/4/5 153/4/5
f 157/4/5 156/4/5 155/4/5
f 158/4/5 156/4/5 157/4/5
f 159/4/5 156/4/5 158/4/5
f 160/4/5 156/4/5 159/4/5
f 161/4/5 156/4/5 160/4/5
f 162/4/5 156/4/5 161/4/5
f 163/4/5 156/4/5 162/4/5
f 164/4/5 156/4/5 163/4/5
f 165/4/5 156/4/5 164/4/5
f 166/4/6 167/4/6 168/4/6
f 168/4/6 167/4/6 169/4/6
f 169/4/6 167/4/6 170/4/6
f 170/4/6 167/4/6 171/4/6
f 171/4/6 167/4/6 172/4/6
f 172/4/6 167/4/6 173/4/6
f 173/4/6 167/4/6 174/4/6
f 174/4/6 167/4/6 175/4/6
f 175/4/6 167/4/6 176/4/6
f 177/4/6 178/4/6 179/4/6
f 177/4/6 179/4/6 181/4/6
f 179/4/6 180/4/6 181/4/6
f 181/4/6 180/4/6 182/4/6
f 183/4/6 184/4/6 185/4/6
f 185/4/6 184/4/6 186/4/6
f 183/4/6 185/4/6 187/4/6
f 187/4/6 185/4/6 188/4/6
f 189/4/6 190/4/6 191/4/6
f 191/4/6 190/4/6 192/4/6
f 193/4/6 194/4/6 195/4/6
f 195/4/6 194/4/6 196/4/6
