# MagicaVoxel @ Ephtracy

# group
o 

# material
mtllib model-0.mtl
usemtl palette

# normals
vn -1 0 0
vn 1 0 0
vn 0 0 1
vn 0 0 -1
vn 0 -1 0
vn 0 1 0

# texcoords
vt 0.767578 0.5
vt 0.771484 0.5

# verts
v 0.4 0 -0.9
v 0.4 0 -1.8
v 0.4 0.9 -0.9
v 0.4 0.9 -1.8
v 1.3 0 -0.9
v 1.3 0 -1.8
v 1.3 0.4 -0.9
v 1.3 0.4 -1.6
v 1.3 0.5 -0.9
v 1.3 0.5 -1.5
v 1.3 0.9 -0.9
v 1.3 0.9 -1.5
v 1.3 0.9 -1.6
v 1.3 0.9 -1.8
v 0.4 0 -0.9
v 0.4 0.9 -0.9
v 0.8 0.4 -0.9
v 0.8 0.9 -0.9
v 0.9 0.5 -0.9
v 0.9 0.9 -0.9
v 1.3 0 -0.9
v 1.3 0.4 -0.9
v 1.3 0.5 -0.9
v 1.3 0.9 -0.9
v 0.4 0 -1.8
v 0.4 0.9 -1.8
v 0.5 0.1 -1.8
v 0.5 0.8 -1.8
v 1.2 0.1 -1.8
v 1.2 0.8 -1.8
v 1.3 0 -1.8
v 1.3 0.9 -1.8
v 0.4 0 -0.9
v 1.3 0 -0.9
v 0.4 0 -1.8
v 1.3 0 -1.8
v 0.4 0.9 -0.9
v 0.8 0.9 -0.9
v 0.9 0.9 -0.9
v 1.3 0.9 -0.9
v 0.9 0.9 -1.5
v 1.3 0.9 -1.5
v 0.8 0.9 -1.6
v 1.3 0.9 -1.6
v 0.4 0.9 -1.8
v 1.3 0.9 -1.8

# faces
f 3/2/1 2/2/1 1/2/1
f 4/2/1 2/2/1 3/2/1
f 5/2/2 6/2/2 7/2/2
f 7/2/2 6/2/2 8/2/2
f 7/1/2 8/1/2 9/1/2
f 9/1/2 8/1/2 10/1/2
f 9/2/2 10/2/2 11/2/2
f 10/1/2 8/1/2 12/1/2
f 11/2/2 10/2/2 12/2/2
f 8/2/2 6/2/2 13/2/2
f 12/1/2 8/1/2 13/1/2
f 13/2/2 6/2/2 14/2/2
f 17/2/3 16/2/3 15/2/3
f 18/2/3 16/2/3 17/2/3
f 19/1/3 18/1/3 17/1/3
f 20/1/3 18/1/3 19/1/3
f 21/2/3 17/2/3 15/2/3
f 22/1/3 19/1/3 17/1/3
f 22/2/3 17/2/3 21/2/3
f 23/2/3 20/2/3 19/2/3
f 23/1/3 19/1/3 22/1/3
f 24/2/3 20/2/3 23/2/3
f 25/2/4 26/2/4 27/2/4
f 27/2/4 26/2/4 28/2/4
f 25/2/4 27/2/4 29/2/4
f 27/1/4 28/1/4 29/1/4
f 28/2/4 26/2/4 30/2/4
f 29/1/4 28/1/4 30/1/4
f 25/2/4 29/2/4 31/2/4
f 29/2/4 30/2/4 31/2/4
f 30/2/4 26/2/4 32/2/4
f 31/2/4 30/2/4 32/2/4
f 35/2/5 34/2/5 33/2/5
f 36/2/5 34/2/5 35/2/5
f 38/1/6 39/1/6 41/1/6
f 39/2/6 40/2/6 41/2/6
f 41/2/6 40/2/6 42/2/6
f 37/2/6 38/2/6 43/2/6
f 38/1/6 41/1/6 43/1/6
f 41/1/6 42/1/6 43/1/6
f 43/1/6 42/1/6 44/1/6
f 37/2/6 43/2/6 45/2/6
f 43/2/6 44/2/6 45/2/6
f 45/2/6 44/2/6 46/2/6
