# MagicaVoxel @ Ephtracy

# group
o 

# material
mtllib model.mtl
usemtl palette

# normals
vn 0 0 1
vn 0 0 -1
vn 1 0 0
vn -1 0 0
vn 0 -1 0
vn 0 1 0

# texcoords
vt 0.00585938 0.5
vt 0.00976563 0.5
vt 0.0136719 0.5
vt 0.0175781 0.5
vt 0.318359 0.5
vt 0.576172 0.5
vt 0.646484 0.5

# verts
v 0.9 0 1.5
v -0.9 0 1.5
v 0.6 0.1 1.5
v 0.4 0.1 1.5
v 0.3 0.1 1.5
v 0.1 0.1 1.5
v -0.2 0.1 1.5
v -0.4 0.1 1.5
v -0.5 0.1 1.5
v -0.7 0.1 1.5
v -0.9 0.1 1.5
v 0.9 0.2 1.5
v 0.6 0.2 1.5
v 0.4 0.2 1.5
v 0.3 0.2 1.5
v 0.1 0.2 1.5
v -0.2 0.2 1.5
v -0.4 0.2 1.5
v -0.5 0.2 1.5
v -0.7 0.2 1.5
v -0.9 0.2 1.5
v 0.1 0.3 1.5
v -0.0999999 0.3 1.5
v 0.6 0.4 1.5
v 0.4 0.4 1.5
v 0.2 0.4 1.5
v 0.1 0.4 1.5
v -0.0999999 0.4 1.5
v -0.2 0.4 1.5
v -0.4 0.4 1.5
v -0.6 0.4 1.5
v 0.6 0.6 1.5
v 0.4 0.6 1.5
v 0.2 0.6 1.5
v 0.1 0.6 1.5
v -0.0999999 0.6 1.5
v -0.2 0.6 1.5
v -0.4 0.6 1.5
v -0.6 0.6 1.5
v 0.1 0.7 1.5
v -0.0999999 0.7 1.5
v 0.9 0.8 1.5
v -0.9 0.8 1.5
v 0.9 0.9 1.5
v 0.7 0.9 1.5
v 0.5 0.9 1.5
v 0.1 0.9 1.5
v -0.6 0.9 1.5
v -0.7 0.9 1.5
v -0.8 0.9 1.5
v -0.9 0.9 1.5
v 0.9 1 1.5
v 0.7 1 1.5
v 0.5 1 1.5
v 0.1 1 1.5
v -0.6 1 1.5
v -0.7 1 1.5
v -0.8 1 1.5
v -0.9 1 1.5
v 0.8 0.2 1.4
v 0.6 0.2 1.4
v 0.4 0.2 1.4
v 0.3 0.2 1.4
v 0.1 0.2 1.4
v -0.2 0.2 1.4
v -0.4 0.2 1.4
v -0.5 0.2 1.4
v -0.7 0.2 1.4
v -0.8 0.2 1.4
v 0.1 0.3 1.4
v -0.0999999 0.3 1.4
v 0.6 0.4 1.4
v 0.4 0.4 1.4
v 0.2 0.4 1.4
v 0.1 0.4 1.4
v -0.0999999 0.4 1.4
v -0.2 0.4 1.4
v -0.4 0.4 1.4
v -0.6 0.4 1.4
v 0.6 0.6 1.4
v 0.4 0.6 1.4
v 0.2 0.6 1.4
v 0.1 0.6 1.4
v -0.0999999 0.6 1.4
v -0.2 0.6 1.4
v -0.4 0.6 1.4
v -0.6 0.6 1.4
v 0.1 0.7 1.4
v -0.0999999 0.7 1.4
v 0.8 0.8 1.4
v -0.8 0.8 1.4
v 0.8 1 1.4
v 0.7 1 1.4
v 0.5 1 1.4
v 0.1 1 1.4
v -0.6 1 1.4
v -0.7 1 1.4
v -0.8 1 1.4
v 0.8 1.5 1.4
v 0.6 1.5 1.4
v 0.2 1.5 1.4
v -0.2 1.5 1.4
v -0.6 1.5 1.4
v -0.8 1.5 1.4
v 0.6 1.7 1.4
v 0.5 1.7 1.4
v 0.4 1.7 1.4
v 0.2 1.7 1.4
v -0.2 1.7 1.4
v -0.3 1.7 1.4
v -0.4 1.7 1.4
v -0.6 1.7 1.4
v 0.6 1.8 1.4
v 0.5 1.8 1.4
v 0.4 1.8 1.4
v 0.2 1.8 1.4
v -0.2 1.8 1.4
v -0.3 1.8 1.4
v -0.4 1.8 1.4
v -0.6 1.8 1.4
v 1.1 0 1.3
v 0.9 0 1.3
v -0.9 0 1.3
v -1.1 0 1.3
v 1.1 0.1 1.3
v 0.9 0.1 1.3
v -0.9 0.1 1.3
v -1.1 0.1 1.3
v 1.1 0.2 1.3
v 0.9 0.2 1.3
v -0.9 0.2 1.3
v -1.1 0.2 1.3
v 1.1 0.8 1.3
v 0.9 0.8 1.3
v -0.9 0.8 1.3
v -1.1 0.8 1.3
v 1.1 0.9 1.3
v 1 0.9 1.3
v 0.9 0.9 1.3
v -0.9 0.9 1.3
v -1.1 0.9 1.3
v 1.1 1 1.3
v 1 1 1.3
v 0.9 1 1.3
v -0.9 1 1.3
v -1.1 1 1.3
v 1 0.2 1.2
v 0.8 0.2 1.2
v -0.8 0.2 1.2
v -1 0.2 1.2
v 1 0.8 1.2
v 0.8 0.8 1.2
v -0.8 0.8 1.2
v -1 0.8 1.2
v 1 1 1.2
v 0.8 1 1.2
v -0.8 1 1.2
v -1 1 1.2
v 1 1.5 1.2
v 0.8 1.5 1.2
v -0.8 1.5 1.2
v -1 1.5 1.2
v 1.1 0.4 1.1
v 1 0.4 1.1
v -1 0.4 1.1
v -1.1 0.4 1.1
v 1.1 0.6 1.1
v 1 0.6 1.1
v -1 0.6 1.1
v -1.1 0.6 1.1
v 1.1 0.3 1
v 1 0.3 1
v -1 0.3 1
v -1.1 0.3 1
v 1.1 0.4 1
v 1 0.4 1
v -1 0.4 1
v -1.1 0.4 1
v 1.1 0.6 1
v 1 0.6 1
v -1 0.6 1
v -1.1 0.6 1
v 1.1 0.7 1
v 1 0.7 1
v -1 0.7 1
v -1.1 0.7 1
v 1 1.5 1
v 0.8 1.5 1
v -0.8 1.5 1
v -1 1.5 1
v 1 1.7 1
v 0.9 1.7 1
v -0.9 1.7 1
v -1 1.7 1
v 1 1.8 1
v 0.9 1.8 1
v 0.8 1.8 1
v -0.8 1.8 1
v -0.9 1.8 1
v -1 1.8 1
v 1.2 0.6 0.6
v 1 0.6 0.6
v -1 0.6 0.6
v -1.2 0.6 0.6
v 1.1 0.8 0.6
v 1 0.8 0.6
v -1 0.8 0.6
v -1.1 0.8 0.6
v 1.1 1 0.6
v 1 1 0.6
v -1 1 0.6
v -1.1 1 0.6
v 1.2 1.2 0.6
v 1 1.2 0.6
v -1 1.2 0.6
v -1.2 1.2 0.6
v 1.2 0.4 0.5
v 1 0.4 0.5
v -1 0.4 0.5
v -1.2 0.4 0.5
v 1.2 0.6 0.5
v 1 0.6 0.5
v -1 0.6 0.5
v -1.2 0.6 0.5
v 1.2 1.2 0.5
v 1 1.2 0.5
v -1 1.2 0.5
v -1.2 1.2 0.5
v 1.2 1.3 0.5
v 1 1.3 0.5
v -1 1.3 0.5
v -1.2 1.3 0.5
v 1.2 0.3 0.4
v 1 0.3 0.4
v -1 0.3 0.4
v -1.2 0.3 0.4
v 1.2 0.4 0.4
v 1 0.4 0.4
v -1 0.4 0.4
v -1.2 0.4 0.4
v 1.2 1.3 0.4
v 1 1.3 0.4
v -1 1.3 0.4
v -1.2 1.3 0.4
v 1.2 1.4 0.4
v 1 1.4 0.4
v -1 1.4 0.4
v -1.2 1.4 0.4
v 1 1.5 0.2
v 0.8 1.5 0.2
v -0.8 1.5 0.2
v -1 1.5 0.2
v 1 1.7 0.2
v 0.9 1.7 0.2
v -0.9 1.7 0.2
v -1 1.7 0.2
v 1 1.8 0.2
v 0.9 1.8 0.2
v 0.8 1.8 0.2
v -0.8 1.8 0.2
v -0.9 1.8 0.2
v -1 1.8 0.2
v 1.2 0.3 0.1
v 1 0.3 0.1
v -1 0.3 0.1
v -1.2 0.3 0.1
v 1.2 0.4 0.1
v 1 0.4 0.1
v -1 0.4 0.1
v -1.2 0.4 0.1
v 1.2 0.3 -0.2
v 1 0.3 -0.2
v -1 0.3 -0.2
v -1.2 0.3 -0.2
v 1.2 0.4 -0.2
v 1 0.4 -0.2
v -1 0.4 -0.2
v -1.2 0.4 -0.2
v 1 1.5 -0.6
v 0.8 1.5 -0.6
v -0.8 1.5 -0.6
v -1 1.5 -0.6
v 1 1.7 -0.6
v 0.9 1.7 -0.6
v -0.9 1.7 -0.6
v -1 1.7 -0.6
v 1 1.8 -0.6
v 0.9 1.8 -0.6
v 0.8 1.8 -0.6
v -0.8 1.8 -0.6
v -0.9 1.8 -0.6
v -1 1.8 -0.6
v 1.1 0.4 -0.7
v 1 0.4 -0.7
v -1 0.4 -0.7
v -1.1 0.4 -0.7
v 1.1 0.6 -0.7
v 1 0.6 -0.7
v -1 0.6 -0.7
v -1.1 0.6 -0.7
v 1.1 0.3 -0.8
v 1 0.3 -0.8
v -1 0.3 -0.8
v -1.1 0.3 -0.8
v 1.1 0.4 -0.8
v 1 0.4 -0.8
v -1 0.4 -0.8
v -1.1 0.4 -0.8
v 1.1 0.6 -0.8
v 1 0.6 -0.8
v -1 0.6 -0.8
v -1.1 0.6 -0.8
v 1.1 0.7 -0.8
v 1 0.7 -0.8
v -1 0.7 -0.8
v -1.1 0.7 -0.8
v 0.8 0.9 -1.2
v -0.8 0.9 -1.2
v 0.8 1.5 -1.2
v 0.6 1.5 -1.2
v 0.2 1.5 -1.2
v -0.2 1.5 -1.2
v -0.6 1.5 -1.2
v -0.8 1.5 -1.2
v 0.6 1.8 -1.2
v 0.2 1.8 -1.2
v -0.2 1.8 -1.2
v -0.6 1.8 -1.2
v 0.8 0.9 1.2
v -0.8 0.9 1.2
v 0.8 1.5 1.2
v 0.6 1.5 1.2
v 0.2 1.5 1.2
v -0.2 1.5 1.2
v -0.6 1.5 1.2
v -0.8 1.5 1.2
v 0.6 1.8 1.2
v 0.2 1.8 1.2
v -0.2 1.8 1.2
v -0.6 1.8 1.2
v 1.1 0.3 0.8
v 1 0.3 0.8
v -1 0.3 0.8
v -1.1 0.3 0.8
v 1.1 0.4 0.8
v 1 0.4 0.8
v -1 0.4 0.8
v -1.1 0.4 0.8
v 1.1 0.6 0.8
v 1 0.6 0.8
v -1 0.6 0.8
v -1.1 0.6 0.8
v 1.1 0.7 0.8
v 1 0.7 0.8
v -1 0.7 0.8
v -1.1 0.7 0.8
v 1.1 0.4 0.7
v 1 0.4 0.7
v -1 0.4 0.7
v -1.1 0.4 0.7
v 1.1 0.6 0.7
v 1 0.6 0.7
v -1 0.6 0.7
v -1.1 0.6 0.7
v 1 1.5 0.6
v 0.8 1.5 0.6
v -0.8 1.5 0.6
v -1 1.5 0.6
v 1 1.7 0.6
v 0.9 1.7 0.6
v -0.9 1.7 0.6
v -1 1.7 0.6
v 1 1.8 0.6
v 0.9 1.8 0.6
v 0.8 1.8 0.6
v -0.8 1.8 0.6
v -0.9 1.8 0.6
v -1 1.8 0.6
v 1.2 0.3 0.2
v 1 0.3 0.2
v -1 0.3 0.2
v -1.2 0.3 0.2
v 1.2 0.4 0.2
v 1 0.4 0.2
v -1 0.4 0.2
v -1.2 0.4 0.2
v 1.2 0.3 -0.1
v 1 0.3 -0.1
v -1 0.3 -0.1
v -1.2 0.3 -0.1
v 1.2 0.4 -0.1
v 1 0.4 -0.1
v -1 0.4 -0.1
v -1.2 0.4 -0.1
v 1 1.5 -0.2
v 0.8 1.5 -0.2
v -0.8 1.5 -0.2
v -1 1.5 -0.2
v 1 1.7 -0.2
v 0.9 1.7 -0.2
v -0.9 1.7 -0.2
v -1 1.7 -0.2
v 1 1.8 -0.2
v 0.9 1.8 -0.2
v 0.8 1.8 -0.2
v -0.8 1.8 -0.2
v -0.9 1.8 -0.2
v -1 1.8 -0.2
v 1.2 0.3 -0.4
v 1 0.3 -0.4
v -1 0.3 -0.4
v -1.2 0.3 -0.4
v 1.2 0.4 -0.4
v 1 0.4 -0.4
v -1 0.4 -0.4
v -1.2 0.4 -0.4
v 1.2 1.3 -0.4
v 1.1 1.3 -0.4
v 1 1.3 -0.4
v -1 1.3 -0.4
v -1.1 1.3 -0.4
v -1.2 1.3 -0.4
v 1.2 1.4 -0.4
v 1.1 1.4 -0.4
v 1 1.4 -0.4
v -1 1.4 -0.4
v -1.1 1.4 -0.4
v -1.2 1.4 -0.4
v 1.2 0.4 -0.5
v 1 0.4 -0.5
v -1 0.4 -0.5
v -1.2 0.4 -0.5
v 1.2 0.6 -0.5
v 1 0.6 -0.5
v -1 0.6 -0.5
v -1.2 0.6 -0.5
v 1.2 1.2 -0.5
v 1.1 1.2 -0.5
v 1 1.2 -0.5
v -1 1.2 -0.5
v -1.1 1.2 -0.5
v -1.2 1.2 -0.5
v 1.2 1.3 -0.5
v 1.1 1.3 -0.5
v 1 1.3 -0.5
v -1 1.3 -0.5
v -1.1 1.3 -0.5
v -1.2 1.3 -0.5
v 1.2 0.6 -0.6
v 1 0.6 -0.6
v -1 0.6 -0.6
v -1.2 0.6 -0.6
v 1.1 0.8 -0.6
v 1 0.8 -0.6
v -1 0.8 -0.6
v -1.1 0.8 -0.6
v 1.1 1 -0.6
v 1 1 -0.6
v -1 1 -0.6
v -1.1 1 -0.6
v 1.2 1.1 -0.6
v 1.1 1.1 -0.6
v -1.1 1.1 -0.6
v -1.2 1.1 -0.6
v 1.2 1.2 -0.6
v 1.1 1.2 -0.6
v 1 1.2 -0.6
v -1 1.2 -0.6
v -1.1 1.2 -0.6
v -1.2 1.2 -0.6
v 1.1 0.3 -1
v 1 0.3 -1
v -1 0.3 -1
v -1.1 0.3 -1
v 1.1 0.4 -1
v 1 0.4 -1
v -1 0.4 -1
v -1.1 0.4 -1
v 1.1 0.6 -1
v 1 0.6 -1
v -1 0.6 -1
v -1.1 0.6 -1
v 1.1 0.7 -1
v 1 0.7 -1
v -1 0.7 -1
v -1.1 0.7 -1
v 1 1.5 -1
v 0.8 1.5 -1
v -0.8 1.5 -1
v -1 1.5 -1
v 1 1.7 -1
v 0.9 1.7 -1
v -0.9 1.7 -1
v -1 1.7 -1
v 1 1.8 -1
v 0.9 1.8 -1
v 0.8 1.8 -1
v -0.8 1.8 -1
v -0.9 1.8 -1
v -1 1.8 -1
v 1.1 0.4 -1.1
v 1 0.4 -1.1
v -1 0.4 -1.1
v -1.1 0.4 -1.1
v 1.1 0.6 -1.1
v 1 0.6 -1.1
v -1 0.6 -1.1
v -1.1 0.6 -1.1
v 1 0.2 -1.2
v 0.9 0.2 -1.2
v 0.8 0.2 -1.2
v -0.8 0.2 -1.2
v -1 0.2 -1.2
v 1 0.8 -1.2
v 0.8 0.8 -1.2
v -0.8 0.8 -1.2
v -1 0.8 -1.2
v 1 1 -1.2
v 0.8 1 -1.2
v -0.8 1 -1.2
v -1 1 -1.2
v 1 1.5 -1.2
v 0.8 1.5 -1.2
v -0.8 1.5 -1.2
v -1 1.5 -1.2
v 1.1 0 -1.3
v 0.9 0 -1.3
v -0.9 0 -1.3
v -1.1 0 -1.3
v 1.1 0.1 -1.3
v 0.9 0.1 -1.3
v -0.9 0.1 -1.3
v -1.1 0.1 -1.3
v 1.1 0.2 -1.3
v 0.9 0.2 -1.3
v -0.9 0.2 -1.3
v -1.1 0.2 -1.3
v 1.1 0.8 -1.3
v 0.9 0.8 -1.3
v -0.9 0.8 -1.3
v -1.1 0.8 -1.3
v 1.1 0.9 -1.3
v 0.9 0.9 -1.3
v -0.9 0.9 -1.3
v -1 0.9 -1.3
v -1.1 0.9 -1.3
v 1.1 1 -1.3
v 0.9 1 -1.3
v -0.9 1 -1.3
v -1 1 -1.3
v -1.1 1 -1.3
v 0.8 0.2 -1.4
v 0.6 0.2 -1.4
v 0.3 0.2 -1.4
v 0.2 0.2 -1.4
v -0.2 0.2 -1.4
v -0.6 0.2 -1.4
v -0.8 0.2 -1.4
v 0.1 0.3 -1.4
v -0.0999999 0.3 -1.4
v 0.6 0.4 -1.4
v 0.4 0.4 -1.4
v 0.2 0.4 -1.4
v 0.1 0.4 -1.4
v -0.0999999 0.4 -1.4
v -0.2 0.4 -1.4
v -0.4 0.4 -1.4
v -0.6 0.4 -1.4
v 0.6 0.6 -1.4
v 0.4 0.6 -1.4
v 0.2 0.6 -1.4
v 0.1 0.6 -1.4
v -0.0999999 0.6 -1.4
v -0.2 0.6 -1.4
v -0.4 0.6 -1.4
v -0.6 0.6 -1.4
v 0.1 0.7 -1.4
v -0.0999999 0.7 -1.4
v 0.8 0.8 -1.4
v -0.8 0.8 -1.4
v 0.8 1 -1.4
v 0.6 1 -1.4
v 0.1 1 -1.4
v -0.0999999 1 -1.4
v -0.2 1 -1.4
v -0.5 1 -1.4
v -0.8 1 -1.4
v 0.8 1.5 -1.4
v 0.6 1.5 -1.4
v 0.2 1.5 -1.4
v -0.2 1.5 -1.4
v -0.6 1.5 -1.4
v -0.8 1.5 -1.4
v 0.6 1.7 -1.4
v 0.5 1.7 -1.4
v 0.4 1.7 -1.4
v 0.2 1.7 -1.4
v -0.2 1.7 -1.4
v -0.3 1.7 -1.4
v -0.4 1.7 -1.4
v -0.6 1.7 -1.4
v 0.6 1.8 -1.4
v 0.5 1.8 -1.4
v 0.4 1.8 -1.4
v 0.2 1.8 -1.4
v -0.2 1.8 -1.4
v -0.3 1.8 -1.4
v -0.4 1.8 -1.4
v -0.6 1.8 -1.4
v 0.9 0 -1.5
v -0.9 0 -1.5
v 0.9 0.1 -1.5
v 0.6 0.1 -1.5
v 0.3 0.1 -1.5
v 0.2 0.1 -1.5
v -0.2 0.1 -1.5
v -0.6 0.1 -1.5
v -0.8 0.1 -1.5
v -0.9 0.1 -1.5
v 0.9 0.2 -1.5
v 0.6 0.2 -1.5
v 0.3 0.2 -1.5
v 0.2 0.2 -1.5
v -0.2 0.2 -1.5
v -0.6 0.2 -1.5
v -0.8 0.2 -1.5
v -0.9 0.2 -1.5
v 0.1 0.3 -1.5
v -0.0999999 0.3 -1.5
v 0.6 0.4 -1.5
v 0.4 0.4 -1.5
v 0.2 0.4 -1.5
v 0.1 0.4 -1.5
v -0.0999999 0.4 -1.5
v -0.2 0.4 -1.5
v -0.4 0.4 -1.5
v -0.6 0.4 -1.5
v 0.6 0.6 -1.5
v 0.4 0.6 -1.5
v 0.2 0.6 -1.5
v 0.1 0.6 -1.5
v -0.0999999 0.6 -1.5
v -0.2 0.6 -1.5
v -0.4 0.6 -1.5
v -0.6 0.6 -1.5
v 0.1 0.7 -1.5
v -0.0999999 0.7 -1.5
v 0.9 0.8 -1.5
v -0.9 0.8 -1.5
v 0.9 0.9 -1.5
v 0.8 0.9 -1.5
v 0.6 0.9 -1.5
v 0.1 0.9 -1.5
v -0.0999999 0.9 -1.5
v -0.2 0.9 -1.5
v -0.5 0.9 -1.5
v 0.9 1 -1.5
v 0.8 1 -1.5
v 0.6 1 -1.5
v 0.1 1 -1.5
v -0.0999999 1 -1.5
v -0.2 1 -1.5
v -0.5 1 -1.5
v -0.9 1 -1.5
v 1.2 0.6 0.6
v 1.2 1.2 0.6
v 1.2 0.4 0.5
v 1.2 0.6 0.5
v 1.2 0.7 0.5
v 1.2 0.9 0.5
v 1.2 1.2 0.5
v 1.2 1.3 0.5
v 1.2 0.3 0.4
v 1.2 0.4 0.4
v 1.2 0.7 0.4
v 1.2 0.8 0.4
v 1.2 0.9 0.4
v 1.2 1 0.4
v 1.2 1.3 0.4
v 1.2 1.4 0.4
v 1.2 0.3 0.2
v 1.2 0.4 0.2
v 1.2 0.7 0.2
v 1.2 0.8 0.2
v 1.2 1.3 0.2
v 1.2 1.4 0.2
v 1.2 0.3 0.1
v 1.2 0.4 0.1
v 1.2 0.5 0.1
v 1.2 0.6 0.1
v 1.2 0.7 0.1
v 1.2 1 0.1
v 1.2 0.3 -0.1
v 1.2 0.4 -0.1
v 1.2 0.5 -0.1
v 1.2 0.6 -0.1
v 1.2 0.7 -0.1
v 1.2 1 -0.1
v 1.2 1.3 -0.1
v 1.2 1.4 -0.1
v 1.2 0.3 -0.2
v 1.2 0.4 -0.2
v 1.2 0.7 -0.2
v 1.2 0.8 -0.2
v 1.2 1.3 -0.3
v 1.2 1.4 -0.3
v 1.2 0.3 -0.4
v 1.2 0.4 -0.4
v 1.2 0.7 -0.4
v 1.2 0.8 -0.4
v 1.2 0.9 -0.4
v 1.2 1 -0.4
v 1.2 1.2 -0.4
v 1.2 1.3 -0.4
v 1.2 1.4 -0.4
v 1.2 0.4 -0.5
v 1.2 0.6 -0.5
v 1.2 0.7 -0.5
v 1.2 0.9 -0.5
v 1.2 1.1 -0.5
v 1.2 1.2 -0.5
v 1.2 1.3 -0.5
v 1.2 0.6 -0.6
v 1.2 1.1 -0.6
v 1.2 1.2 -0.6
v 1.1 0 1.3
v 1.1 0.1 1.3
v 1.1 0.2 1.3
v 1.1 0.8 1.3
v 1.1 0.9 1.3
v 1.1 1 1.3
v 1.1 0.1 1.1
v 1.1 0.2 1.1
v 1.1 0.4 1.1
v 1.1 0.6 1.1
v 1.1 0.9 1.1
v 1.1 1 1.1
v 1.1 0.3 1
v 1.1 0.4 1
v 1.1 0.6 1
v 1.1 0.7 1
v 1.1 0.9 1
v 1.1 1 1
v 1.1 0.1 0.9
v 1.1 0.2 0.9
v 1.1 0.3 0.8
v 1.1 0.4 0.8
v 1.1 0.6 0.8
v 1.1 0.7 0.8
v 1.1 0.4 0.7
v 1.1 0.6 0.7
v 1.1 0.1 0.6
v 1.1 0.2 0.6
v 1.1 0.8 0.6
v 1.1 1 0.6
v 1.1 0.8 -0.6
v 1.1 1 -0.6
v 1.1 0.4 -0.7
v 1.1 0.6 -0.7
v 1.1 0.3 -0.8
v 1.1 0.4 -0.8
v 1.1 0.6 -0.8
v 1.1 0.7 -0.8
v 1.1 0.9 -0.9
v 1.1 1 -0.9
v 1.1 0.1 -1
v 1.1 0.2 -1
v 1.1 0.3 -1
v 1.1 0.4 -1
v 1.1 0.6 -1
v 1.1 0.7 -1
v 1.1 0.4 -1.1
v 1.1 0.6 -1.1
v 1.1 0.9 -1.1
v 1.1 1 -1.1
v 1.1 0.1 -1.2
v 1.1 0.2 -1.2
v 1.1 0.9 -1.2
v 1.1 1 -1.2
v 1.1 0 -1.3
v 1.1 0.1 -1.3
v 1.1 0.2 -1.3
v 1.1 0.8 -1.3
v 1.1 0.9 -1.3
v 1.1 1 -1.3
v 1 0.2 1.2
v 1 0.8 1.2
v 1 1 1.2
v 1 1.5 1.2
v 1 0.2 1.1
v 1 0.4 1.1
v 1 0.6 1.1
v 1 1 1.1
v 1 0.3 1
v 1 0.4 1
v 1 0.6 1
v 1 0.7 1
v 1 1 1
v 1 1.5 1
v 1 1.7 1
v 1 1.8 1
v 1 0.2 0.9
v 1 0.3 0.8
v 1 0.4 0.8
v 1 0.6 0.8
v 1 0.7 0.8
v 1 1.7 0.8
v 1 1.8 0.8
v 1 0.4 0.7
v 1 0.6 0.7
v 1 1.7 0.7
v 1 1.8 0.7
v 1 0.2 0.6
v 1 0.6 0.6
v 1 0.8 0.6
v 1 1 0.6
v 1 1.2 0.6
v 1 1.5 0.6
v 1 1.7 0.6
v 1 1.8 0.6
v 1 0.4 0.5
v 1 0.6 0.5
v 1 1.2 0.5
v 1 1.3 0.5
v 1 0.3 0.4
v 1 0.4 0.4
v 1 1.3 0.4
v 1 1.4 0.4
v 1 0.3 0.2
v 1 0.4 0.2
v 1 1.5 0.2
v 1 1.7 0.2
v 1 1.8 0.2
v 1 0.3 0.1
v 1 0.4 0.1
v 1 1.7 0
v 1 1.8 0
v 1 0.3 -0.1
v 1 0.4 -0.1
v 1 1.7 -0.1
v 1 1.8 -0.1
v 1 0.3 -0.2
v 1 0.4 -0.2
v 1 1.5 -0.2
v 1 1.7 -0.2
v 1 1.8 -0.2
v 1 0.3 -0.4
v 1 0.4 -0.4
v 1 1.3 -0.4
v 1 1.4 -0.4
v 1 0.4 -0.5
v 1 0.6 -0.5
v 1 1.2 -0.5
v 1 1.3 -0.5
v 1 0.6 -0.6
v 1 0.8 -0.6
v 1 1 -0.6
v 1 1.2 -0.6
v 1 1.5 -0.6
v 1 1.7 -0.6
v 1 1.8 -0.6
v 1 0.4 -0.7
v 1 0.6 -0.7
v 1 0.3 -0.8
v 1 0.4 -0.8
v 1 0.6 -0.8
v 1 0.7 -0.8
v 1 1.7 -0.8
v 1 1.8 -0.8
v 1 1 -0.9
v 1 1.7 -0.9
v 1 1.8 -0.9
v 1 0.2 -1
v 1 0.3 -1
v 1 0.4 -1
v 1 0.6 -1
v 1 0.7 -1
v 1 1.5 -1
v 1 1.7 -1
v 1 1.8 -1
v 1 0.4 -1.1
v 1 0.6 -1.1
v 1 1 -1.1
v 1 0.2 -1.2
v 1 0.8 -1.2
v 1 1 -1.2
v 1 1.5 -1.2
v 0.9 0 1.5
v 0.9 0.2 1.5
v 0.9 0.8 1.5
v 0.9 0.9 1.5
v 0.9 1 1.5
v 0.9 0 1.3
v 0.9 0.1 1.3
v 0.9 0.2 1.3
v 0.9 0.8 1.3
v 0.9 0.9 1.3
v 0.9 1 1.3
v 0.9 0 -1.3
v 0.9 0.1 -1.3
v 0.9 0.2 -1.3
v 0.9 0.8 -1.3
v 0.9 0.9 -1.3
v 0.9 1 -1.3
v 0.9 0.1 -1.4
v 0.9 0.2 -1.4
v 0.9 0 -1.5
v 0.9 0.1 -1.5
v 0.9 0.2 -1.5
v 0.9 0.8 -1.5
v 0.9 0.9 -1.5
v 0.9 1 -1.5
v 0.8 0.2 1.4
v 0.8 0.8 1.4
v 0.8 1 1.4
v 0.8 1.5 1.4
v 0.8 0.2 1.3
v 0.8 0.2 1.2
v 0.8 0.8 1.2
v 0.8 1 1.2
v 0.8 1.5 1.2
v 0.8 0.2 -1.2
v 0.8 0.8 -1.2
v 0.8 1 -1.2
v 0.8 1.5 -1.2
v 0.8 1 -1.3
v 0.8 0.2 -1.4
v 0.8 0.8 -1.4
v 0.8 1 -1.4
v 0.8 1.5 -1.4
v 0.6 0.4 1.5
v 0.6 0.6 1.5
v 0.6 0.4 1.4
v 0.6 0.6 1.4
v 0.6 1.5 1.4
v 0.6 1.7 1.4
v 0.6 1.8 1.4
v 0.6 1.7 1.3
v 0.6 1.8 1.3
v 0.6 1.5 1.2
v 0.6 1.8 1.2
v 0.6 1.5 -1.2
v 0.6 1.8 -1.2
v 0.6 1.7 -1.3
v 0.6 1.8 -1.3
v 0.6 0.4 -1.4
v 0.6 0.6 -1.4
v 0.6 1.5 -1.4
v 0.6 1.7 -1.4
v 0.6 1.8 -1.4
v 0.6 0.4 -1.5
v 0.6 0.6 -1.5
v 0.2 0.4 1.5
v 0.2 0.6 1.5
v 0.2 0.4 1.4
v 0.2 0.6 1.4
v 0.2 0.4 -1.4
v 0.2 0.6 -1.4
v 0.2 0.4 -1.5
v 0.2 0.6 -1.5
v 0.1 0.3 1.5
v 0.1 0.4 1.5
v 0.1 0.6 1.5
v 0.1 0.7 1.5
v 0.1 0.3 1.4
v 0.1 0.4 1.4
v 0.1 0.6 1.4
v 0.1 0.7 1.4
v 0.1 0.3 -1.4
v 0.1 0.4 -1.4
v 0.1 0.6 -1.4
v 0.1 0.7 -1.4
v 0.1 0.3 -1.5
v 0.1 0.4 -1.5
v 0.1 0.6 -1.5
v 0.1 0.7 -1.5
v -0.2 1.5 1.4
v -0.2 1.7 1.4
v -0.2 1.8 1.4
v -0.2 1.7 1.3
v -0.2 1.8 1.3
v -0.2 1.5 1.2
v -0.2 1.8 1.2
v -0.2 1.5 -1.2
v -0.2 1.8 -1.2
v -0.2 1.7 -1.3
v -0.2 1.8 -1.3
v -0.2 1.5 -1.4
v -0.2 1.7 -1.4
v -0.2 1.8 -1.4
v -0.4 0.4 1.5
v -0.4 0.6 1.5
v -0.4 0.4 1.4
v -0.4 0.6 1.4
v -0.4 0.4 -1.4
v -0.4 0.6 -1.4
v -0.4 0.4 -1.5
v -0.4 0.6 -1.5
v -0.8 0.9 1.2
v -0.8 1.5 1.2
v -0.8 1.5 1
v -0.8 1.8 1
v -0.8 1.5 0.6
v -0.8 1.8 0.6
v -0.8 1.5 0.2
v -0.8 1.8 0.2
v -0.8 1.5 -0.2
v -0.8 1.8 -0.2
v -0.8 1.5 -0.6
v -0.8 1.8 -0.6
v -0.8 1.5 -1
v -0.8 1.8 -1
v -0.8 0.9 -1.2
v -0.8 1.5 -1.2
v 0.8 0.9 1.2
v 0.8 1.5 1.2
v 0.8 1.5 1
v 0.8 1.8 1
v 0.8 1.5 0.6
v 0.8 1.8 0.6
v 0.8 1.5 0.2
v 0.8 1.8 0.2
v 0.8 1.5 -0.2
v 0.8 1.8 -0.2
v 0.8 1.5 -0.6
v 0.8 1.8 -0.6
v 0.8 1.5 -1
v 0.8 1.8 -1
v 0.8 0.9 -1.2
v 0.8 1.5 -1.2
v 0.4 0.4 1.5
v 0.4 0.6 1.5
v 0.4 0.4 1.4
v 0.4 0.6 1.4
v 0.4 0.4 -1.4
v 0.4 0.6 -1.4
v 0.4 0.4 -1.5
v 0.4 0.6 -1.5
v 0.2 1.5 1.4
v 0.2 1.7 1.4
v 0.2 1.8 1.4
v 0.2 1.7 1.3
v 0.2 1.8 1.3
v 0.2 1.5 1.2
v 0.2 1.8 1.2
v 0.2 1.5 -1.2
v 0.2 1.8 -1.2
v 0.2 1.7 -1.3
v 0.2 1.8 -1.3
v 0.2 1.5 -1.4
v 0.2 1.7 -1.4
v 0.2 1.8 -1.4
v -0.0999999 0.3 1.5
v -0.0999999 0.4 1.5
v -0.0999999 0.6 1.5
v -0.0999999 0.7 1.5
v -0.0999999 0.3 1.4
v -0.0999999 0.4 1.4
v -0.0999999 0.6 1.4
v -0.0999999 0.7 1.4
v -0.0999999 0.3 -1.4
v -0.0999999 0.4 -1.4
v -0.0999999 0.6 -1.4
v -0.0999999 0.7 -1.4
v -0.0999999 0.3 -1.5
v -0.0999999 0.4 -1.5
v -0.0999999 0.6 -1.5
v -0.0999999 0.7 -1.5
v -0.2 0.4 1.5
v -0.2 0.6 1.5
v -0.2 0.4 1.4
v -0.2 0.6 1.4
v -0.2 0.4 -1.4
v -0.2 0.6 -1.4
v -0.2 0.4 -1.5
v -0.2 0.6 -1.5
v -0.6 0.4 1.5
v -0.6 0.6 1.5
v -0.6 0.4 1.4
v -0.6 0.6 1.4
v -0.6 1.5 1.4
v -0.6 1.7 1.4
v -0.6 1.8 1.4
v -0.6 1.7 1.3
v -0.6 1.8 1.3
v -0.6 1.5 1.2
v -0.6 1.8 1.2
v -0.6 1.5 -1.2
v -0.6 1.8 -1.2
v -0.6 1.7 -1.3
v -0.6 1.8 -1.3
v -0.6 0.4 -1.4
v -0.6 0.6 -1.4
v -0.6 1.5 -1.4
v -0.6 1.7 -1.4
v -0.6 1.8 -1.4
v -0.6 0.4 -1.5
v -0.6 0.6 -1.5
v -0.8 0.2 1.4
v -0.8 0.8 1.4
v -0.8 1 1.4
v -0.8 1.5 1.4
v -0.8 0.2 1.3
v -0.8 0.2 1.2
v -0.8 0.8 1.2
v -0.8 1 1.2
v -0.8 1.5 1.2
v -0.8 0.2 -1.2
v -0.8 0.8 -1.2
v -0.8 1 -1.2
v -0.8 1.5 -1.2
v -0.8 1 -1.3
v -0.8 0.2 -1.4
v -0.8 0.8 -1.4
v -0.8 1 -1.4
v -0.8 1.5 -1.4
v -0.9 0 1.5
v -0.9 0.1 1.5
v -0.9 0.2 1.5
v -0.9 0.8 1.5
v -0.9 0.9 1.5
v -0.9 1 1.5
v -0.9 0 1.3
v -0.9 0.1 1.3
v -0.9 0.2 1.3
v -0.9 0.8 1.3
v -0.9 0.9 1.3
v -0.9 1 1.3
v -0.9 0 -1.3
v -0.9 0.1 -1.3
v -0.9 0.2 -1.3
v -0.9 0.8 -1.3
v -0.9 0.9 -1.3
v -0.9 1 -1.3
v -0.9 0.1 -1.4
v -0.9 0.2 -1.4
v -0.9 0 -1.5
v -0.9 0.1 -1.5
v -0.9 0.2 -1.5
v -0.9 0.8 -1.5
v -0.9 1 -1.5
v -1 0.2 1.2
v -1 0.8 1.2
v -1 1 1.2
v -1 1.5 1.2
v -1 0.2 1.1
v -1 0.4 1.1
v -1 0.6 1.1
v -1 0.3 1
v -1 0.4 1
v -1 0.6 1
v -1 0.7 1
v -1 1 1
v -1 1.5 1
v -1 1.7 1
v -1 1.8 1
v -1 1.7 0.9
v -1 1.8 0.9
v -1 0.3 0.8
v -1 0.4 0.8
v -1 0.6 0.8
v -1 0.7 0.8
v -1 1 0.8
v -1 1.7 0.8
v -1 1.8 0.8
v -1 0.4 0.7
v -1 0.6 0.7
v -1 0.6 0.6
v -1 0.8 0.6
v -1 1 0.6
v -1 1.2 0.6
v -1 1.5 0.6
v -1 1.7 0.6
v -1 1.8 0.6
v -1 0.4 0.5
v -1 0.6 0.5
v -1 1.2 0.5
v -1 1.3 0.5
v -1 0.3 0.4
v -1 0.4 0.4
v -1 1.3 0.4
v -1 1.4 0.4
v -1 0.3 0.2
v -1 0.4 0.2
v -1 1.5 0.2
v -1 1.7 0.2
v -1 1.8 0.2
v -1 0.3 0.1
v -1 0.4 0.1
v -1 1.7 0.1
v -1 1.8 0.1
v -1 1.7 0
v -1 1.8 0
v -1 0.3 -0.1
v -1 0.4 -0.1
v -1 0.3 -0.2
v -1 0.4 -0.2
v -1 1.5 -0.2
v -1 1.7 -0.2
v -1 1.8 -0.2
v -1 0.3 -0.4
v -1 0.4 -0.4
v -1 1.3 -0.4
v -1 1.4 -0.4
v -1 0.4 -0.5
v -1 0.6 -0.5
v -1 1.2 -0.5
v -1 1.3 -0.5
v -1 0.6 -0.6
v -1 0.8 -0.6
v -1 1 -0.6
v -1 1.2 -0.6
v -1 1.5 -0.6
v -1 1.7 -0.6
v -1 1.8 -0.6
v -1 0.4 -0.7
v -1 0.6 -0.7
v -1 1.7 -0.7
v -1 1.8 -0.7
v -1 0.3 -0.8
v -1 0.4 -0.8
v -1 0.6 -0.8
v -1 0.7 -0.8
v -1 1.7 -0.8
v -1 1.8 -0.8
v -1 0.2 -0.9
v -1 1 -0.9
v -1 0.3 -1
v -1 0.4 -1
v -1 0.6 -1
v -1 0.7 -1
v -1 1.5 -1
v -1 1.7 -1
v -1 1.8 -1
v -1 0.2 -1.1
v -1 0.4 -1.1
v -1 0.6 -1.1
v -1 1 -1.1
v -1 0.2 -1.2
v -1 0.8 -1.2
v -1 1 -1.2
v -1 1.5 -1.2
v -1.1 0 1.3
v -1.1 0.1 1.3
v -1.1 0.2 1.3
v -1.1 0.8 1.3
v -1.1 0.9 1.3
v -1.1 1 1.3
v -1.1 0.9 1.2
v -1.1 1 1.2
v -1.1 0.1 1.1
v -1.1 0.2 1.1
v -1.1 0.4 1.1
v -1.1 0.6 1.1
v -1.1 0.3 1
v -1.1 0.4 1
v -1.1 0.6 1
v -1.1 0.7 1
v -1.1 0.9 1
v -1.1 1 1
v -1.1 0.3 0.8
v -1.1 0.4 0.8
v -1.1 0.6 0.8
v -1.1 0.7 0.8
v -1.1 0.9 0.8
v -1.1 1 0.8
v -1.1 0.4 0.7
v -1.1 0.6 0.7
v -1.1 0.8 0.6
v -1.1 1 0.6
v -1.1 0.8 -0.6
v -1.1 1 -0.6
v -1.1 0.4 -0.7
v -1.1 0.6 -0.7
v -1.1 0.3 -0.8
v -1.1 0.4 -0.8
v -1.1 0.6 -0.8
v -1.1 0.7 -0.8
v -1.1 0.1 -0.9
v -1.1 0.2 -0.9
v -1.1 0.9 -0.9
v -1.1 1 -0.9
v -1.1 0.3 -1
v -1.1 0.4 -1
v -1.1 0.6 -1
v -1.1 0.7 -1
v -1.1 0.1 -1.1
v -1.1 0.2 -1.1
v -1.1 0.4 -1.1
v -1.1 0.6 -1.1
v -1.1 0.9 -1.1
v -1.1 1 -1.1
v -1.1 0.1 -1.2
v -1.1 0.2 -1.2
v -1.1 0 -1.3
v -1.1 0.1 -1.3
v -1.1 0.2 -1.3
v -1.1 0.8 -1.3
v -1.1 0.9 -1.3
v -1.1 1 -1.3
v -1.2 0.6 0.6
v -1.2 1.2 0.6
v -1.2 0.4 0.5
v -1.2 0.6 0.5
v -1.2 0.7 0.5
v -1.2 0.9 0.5
v -1.2 1.2 0.5
v -1.2 1.3 0.5
v -1.2 0.3 0.4
v -1.2 0.4 0.4
v -1.2 0.7 0.4
v -1.2 0.8 0.4
v -1.2 0.9 0.4
v -1.2 1 0.4
v -1.2 1.3 0.4
v -1.2 1.4 0.4
v -1.2 0.3 0.2
v -1.2 0.4 0.2
v -1.2 0.7 0.2
v -1.2 0.8 0.2
v -1.2 1.3 0.2
v -1.2 1.4 0.2
v -1.2 0.3 0.1
v -1.2 0.4 0.1
v -1.2 0.5 0.1
v -1.2 0.6 0.1
v -1.2 0.7 0.1
v -1.2 1 0.1
v -1.2 0.3 -0.1
v -1.2 0.4 -0.1
v -1.2 0.5 -0.1
v -1.2 0.6 -0.1
v -1.2 0.7 -0.1
v -1.2 1 -0.1
v -1.2 1.3 -0.1
v -1.2 1.4 -0.1
v -1.2 0.3 -0.2
v -1.2 0.4 -0.2
v -1.2 0.7 -0.2
v -1.2 0.8 -0.2
v -1.2 1.3 -0.3
v -1.2 1.4 -0.3
v -1.2 0.3 -0.4
v -1.2 0.4 -0.4
v -1.2 0.7 -0.4
v -1.2 0.8 -0.4
v -1.2 0.9 -0.4
v -1.2 1 -0.4
v -1.2 1.2 -0.4
v -1.2 1.3 -0.4
v -1.2 1.4 -0.4
v -1.2 0.4 -0.5
v -1.2 0.6 -0.5
v -1.2 0.7 -0.5
v -1.2 0.9 -0.5
v -1.2 1.1 -0.5
v -1.2 1.2 -0.5
v -1.2 1.3 -0.5
v -1.2 0.6 -0.6
v -1.2 1.1 -0.6
v -1.2 1.2 -0.6
v 1.1 0 1.3
v 1.1 0 -1.3
v 0.9 0 1.5
v 0.9 0 1.3
v 0.9 0 -1.3
v 0.9 0 -1.5
v -0.9 0 1.5
v -0.9 0 1.3
v -0.9 0 -1.3
v -0.9 0 -1.5
v -1.1 0 1.3
v -1.1 0 -1.3
v 1.2 0.3 0.4
v 1.2 0.3 0.2
v 1.2 0.3 0.1
v 1.2 0.3 -0.1
v 1.2 0.3 -0.2
v 1.2 0.3 -0.4
v 1.1 0.3 1
v 1.1 0.3 0.8
v 1.1 0.3 -0.8
v 1.1 0.3 -1
v 1 0.3 1
v 1 0.3 0.8
v 1 0.3 0.4
v 1 0.3 0.2
v 1 0.3 0.1
v 1 0.3 -0.1
v 1 0.3 -0.2
v 1 0.3 -0.4
v 1 0.3 -0.8
v 1 0.3 -1
v 0.1 0.3 1.5
v 0.1 0.3 1.4
v 0.1 0.3 -1.4
v 0.1 0.3 -1.5
v -0.0999999 0.3 1.5
v -0.0999999 0.3 1.4
v -0.0999999 0.3 -1.4
v -0.0999999 0.3 -1.5
v -1 0.3 1
v -1 0.3 0.8
v -1 0.3 0.4
v -1 0.3 0.2
v -1 0.3 0.1
v -1 0.3 -0.1
v -1 0.3 -0.2
v -1 0.3 -0.4
v -1 0.3 -0.8
v -1 0.3 -1
v -1.1 0.3 1
v -1.1 0.3 0.8
v -1.1 0.3 -0.8
v -1.1 0.3 -1
v -1.2 0.3 0.4
v -1.2 0.3 0.2
v -1.2 0.3 0.1
v -1.2 0.3 -0.1
v -1.2 0.3 -0.2
v -1.2 0.3 -0.4
v 1.2 0.4 0.5
v 1.2 0.4 0.4
v 1.2 0.4 0.2
v 1.2 0.4 0.1
v 1.2 0.4 -0.1
v 1.2 0.4 -0.2
v 1.2 0.4 -0.4
v 1.2 0.4 -0.5
v 1.1 0.4 1.1
v 1.1 0.4 1
v 1.1 0.4 0.8
v 1.1 0.4 0.7
v 1.1 0.4 -0.7
v 1.1 0.4 -0.8
v 1.1 0.4 -1
v 1.1 0.4 -1.1
v 1 0.4 1.1
v 1 0.4 1
v 1 0.4 0.8
v 1 0.4 0.7
v 1 0.4 0.5
v 1 0.4 0.4
v 1 0.4 0.2
v 1 0.4 0.1
v 1 0.4 -0.1
v 1 0.4 -0.2
v 1 0.4 -0.4
v 1 0.4 -0.5
v 1 0.4 -0.7
v 1 0.4 -0.8
v 1 0.4 -1
v 1 0.4 -1.1
v 0.6 0.4 1.5
v 0.6 0.4 1.4
v 0.6 0.4 -1.4
v 0.6 0.4 -1.5
v 0.4 0.4 1.5
v 0.4 0.4 1.4
v 0.4 0.4 -1.4
v 0.4 0.4 -1.5
v 0.2 0.4 1.5
v 0.2 0.4 1.4
v 0.2 0.4 -1.4
v 0.2 0.4 -1.5
v 0.1 0.4 1.5
v 0.1 0.4 1.4
v 0.1 0.4 -1.4
v 0.1 0.4 -1.5
v -0.0999999 0.4 1.5
v -0.0999999 0.4 1.4
v -0.0999999 0.4 -1.4
v -0.0999999 0.4 -1.5
v -0.2 0.4 1.5
v -0.2 0.4 1.4
v -0.2 0.4 -1.4
v -0.2 0.4 -1.5
v -0.4 0.4 1.5
v -0.4 0.4 1.4
v -0.4 0.4 -1.4
v -0.4 0.4 -1.5
v -0.6 0.4 1.5
v -0.6 0.4 1.4
v -0.6 0.4 -1.4
v -0.6 0.4 -1.5
v -1 0.4 1.1
v -1 0.4 1
v -1 0.4 0.8
v -1 0.4 0.7
v -1 0.4 0.5
v -1 0.4 0.4
v -1 0.4 0.2
v -1 0.4 0.1
v -1 0.4 -0.1
v -1 0.4 -0.2
v -1 0.4 -0.4
v -1 0.4 -0.5
v -1 0.4 -0.7
v -1 0.4 -0.8
v -1 0.4 -1
v -1 0.4 -1.1
v -1.1 0.4 1.1
v -1.1 0.4 1
v -1.1 0.4 0.8
v -1.1 0.4 0.7
v -1.1 0.4 -0.7
v -1.1 0.4 -0.8
v -1.1 0.4 -1
v -1.1 0.4 -1.1
v -1.2 0.4 0.5
v -1.2 0.4 0.4
v -1.2 0.4 0.2
v -1.2 0.4 0.1
v -1.2 0.4 -0.1
v -1.2 0.4 -0.2
v -1.2 0.4 -0.4
v -1.2 0.4 -0.5
v 1.2 0.6 0.6
v 1.2 0.6 0.5
v 1.2 0.6 -0.5
v 1.2 0.6 -0.6
v 1 0.6 0.6
v 1 0.6 0.5
v 1 0.6 -0.5
v 1 0.6 -0.6
v -1 0.6 0.6
v -1 0.6 0.5
v -1 0.6 -0.5
v -1 0.6 -0.6
v -1.2 0.6 0.6
v -1.2 0.6 0.5
v -1.2 0.6 -0.5
v -1.2 0.6 -0.6
v 1.1 0.8 1.3
v 1.1 0.8 0.6
v 1.1 0.8 -0.6
v 1.1 0.8 -1.3
v 1 0.8 1.2
v 1 0.8 0.6
v 1 0.8 -0.6
v 1 0.8 -1.2
v 0.9 0.8 1.5
v 0.9 0.8 1.3
v 0.9 0.8 -1.3
v 0.9 0.8 -1.5
v 0.8 0.8 1.4
v 0.8 0.8 1.2
v 0.8 0.8 -1.2
v 0.8 0.8 -1.4
v -0.8 0.8 1.4
v -0.8 0.8 1.2
v -0.8 0.8 -1.2
v -0.8 0.8 -1.4
v -0.9 0.8 1.5
v -0.9 0.8 1.3
v -0.9 0.8 -1.3
v -0.9 0.8 -1.5
v -1 0.8 1.2
v -1 0.8 0.6
v -1 0.8 -0.6
v -1 0.8 -1.2
v -1.1 0.8 1.3
v -1.1 0.8 0.6
v -1.1 0.8 -0.6
v -1.1 0.8 -1.3
v 1.1 0.2 1.3
v 1.1 0.2 1.1
v 1.1 0.2 0.9
v 1.1 0.2 0.6
v 1.1 0.2 -1
v 1.1 0.2 -1.2
v 1.1 0.2 -1.3
v 1 0.2 1.2
v 1 0.2 1.1
v 1 0.2 0.9
v 1 0.2 0.6
v 1 0.2 -1
v 1 0.2 -1.2
v 0.9 0.2 1.5
v 0.9 0.2 1.3
v 0.9 0.2 -1.2
v 0.9 0.2 -1.3
v 0.9 0.2 -1.4
v 0.9 0.2 -1.5
v 0.8 0.2 1.4
v 0.8 0.2 1.3
v 0.8 0.2 1.2
v 0.8 0.2 -1.2
v 0.8 0.2 -1.4
v 0.6 0.2 1.5
v 0.6 0.2 1.4
v 0.6 0.2 -1.4
v 0.6 0.2 -1.5
v 0.4 0.2 1.5
v 0.4 0.2 1.4
v 0.3 0.2 1.5
v 0.3 0.2 1.4
v 0.3 0.2 -1.4
v 0.3 0.2 -1.5
v 0.2 0.2 -1.4
v 0.2 0.2 -1.5
v 0.1 0.2 1.5
v 0.1 0.2 1.4
v -0.2 0.2 1.5
v -0.2 0.2 1.4
v -0.2 0.2 -1.4
v -0.2 0.2 -1.5
v -0.4 0.2 1.5
v -0.4 0.2 1.4
v -0.5 0.2 1.5
v -0.5 0.2 1.4
v -0.6 0.2 -1.4
v -0.6 0.2 -1.5
v -0.7 0.2 1.5
v -0.7 0.2 1.4
v -0.8 0.2 1.4
v -0.8 0.2 1.3
v -0.8 0.2 1.2
v -0.8 0.2 -1.2
v -0.8 0.2 -1.4
v -0.8 0.2 -1.5
v -0.9 0.2 1.5
v -0.9 0.2 1.3
v -0.9 0.2 -1.3
v -0.9 0.2 -1.4
v -0.9 0.2 -1.5
v -1 0.2 1.2
v -1 0.2 1.1
v -1 0.2 -0.9
v -1 0.2 -1.1
v -1 0.2 -1.2
v -1.1 0.2 1.3
v -1.1 0.2 1.1
v -1.1 0.2 -0.9
v -1.1 0.2 -1.1
v -1.1 0.2 -1.2
v -1.1 0.2 -1.3
v 1.1 0.6 1.1
v 1.1 0.6 1
v 1.1 0.6 0.8
v 1.1 0.6 0.7
v 1.1 0.6 -0.7
v 1.1 0.6 -0.8
v 1.1 0.6 -1
v 1.1 0.6 -1.1
v 1 0.6 1.1
v 1 0.6 1
v 1 0.6 0.8
v 1 0.6 0.7
v 1 0.6 -0.7
v 1 0.6 -0.8
v 1 0.6 -1
v 1 0.6 -1.1
v 0.6 0.6 1.5
v 0.6 0.6 1.4
v 0.6 0.6 -1.4
v 0.6 0.6 -1.5
v 0.4 0.6 1.5
v 0.4 0.6 1.4
v 0.4 0.6 -1.4
v 0.4 0.6 -1.5
v 0.2 0.6 1.5
v 0.2 0.6 1.4
v 0.2 0.6 -1.4
v 0.2 0.6 -1.5
v 0.1 0.6 1.5
v 0.1 0.6 1.4
v 0.1 0.6 -1.4
v 0.1 0.6 -1.5
v -0.0999999 0.6 1.5
v -0.0999999 0.6 1.4
v -0.0999999 0.6 -1.4
v -0.0999999 0.6 -1.5
v -0.2 0.6 1.5
v -0.2 0.6 1.4
v -0.2 0.6 -1.4
v -0.2 0.6 -1.5
v -0.4 0.6 1.5
v -0.4 0.6 1.4
v -0.4 0.6 -1.4
v -0.4 0.6 -1.5
v -0.6 0.6 1.5
v -0.6 0.6 1.4
v -0.6 0.6 -1.4
v -0.6 0.6 -1.5
v -1 0.6 1.1
v -1 0.6 1
v -1 0.6 0.8
v -1 0.6 0.7
v -1 0.6 -0.7
v -1 0.6 -0.8
v -1 0.6 -1
v -1 0.6 -1.1
v -1.1 0.6 1.1
v -1.1 0.6 1
v -1.1 0.6 0.8
v -1.1 0.6 0.7
v -1.1 0.6 -0.7
v -1.1 0.6 -0.8
v -1.1 0.6 -1
v -1.1 0.6 -1.1
v 1.1 0.7 1
v 1.1 0.7 0.8
v 1.1 0.7 -0.8
v 1.1 0.7 -1
v 1 0.7 1
v 1 0.7 0.8
v 1 0.7 -0.8
v 1 0.7 -1
v 0.1 0.7 1.5
v 0.1 0.7 1.4
v 0.1 0.7 -1.4
v 0.1 0.7 -1.5
v -0.0999999 0.7 1.5
v -0.0999999 0.7 1.4
v -0.0999999 0.7 -1.4
v -0.0999999 0.7 -1.5
v -1 0.7 1
v -1 0.7 0.8
v -1 0.7 -0.8
v -1 0.7 -1
v -1.1 0.7 1
v -1.1 0.7 0.8
v -1.1 0.7 -0.8
v -1.1 0.7 -1
v 0.8 0.9 1.2
v 0.8 0.9 -1.2
v -0.8 0.9 1.2
v -0.8 0.9 -1.2
v 1.1 1 1.3
v 1.1 1 1.1
v 1.1 1 1
v 1.1 1 0.6
v 1.1 1 -0.6
v 1.1 1 -0.9
v 1.1 1 -1.1
v 1.1 1 -1.2
v 1.1 1 -1.3
v 1 1 1.3
v 1 1 1.2
v 1 1 1.1
v 1 1 1
v 1 1 0.6
v 1 1 -0.6
v 1 1 -0.9
v 1 1 -1.1
v 1 1 -1.2
v 0.9 1 1.5
v 0.9 1 1.3
v 0.9 1 -1.3
v 0.9 1 -1.5
v 0.8 1 1.4
v 0.8 1 1.2
v 0.8 1 -1.2
v 0.8 1 -1.3
v 0.8 1 -1.4
v 0.8 1 -1.5
v 0.7 1 1.5
v 0.7 1 1.4
v 0.6 1 -1.4
v 0.6 1 -1.5
v 0.5 1 1.5
v 0.5 1 1.4
v 0.1 1 1.5
v 0.1 1 1.4
v 0.1 1 -1.4
v 0.1 1 -1.5
v -0.0999999 1 -1.4
v -0.0999999 1 -1.5
v -0.2 1 -1.4
v -0.2 1 -1.5
v -0.5 1 -1.4
v -0.5 1 -1.5
v -0.6 1 1.5
v -0.6 1 1.4
v -0.7 1 1.5
v -0.7 1 1.4
v -0.8 1 1.5
v -0.8 1 1.4
v -0.8 1 1.2
v -0.8 1 -1.2
v -0.8 1 -1.3
v -0.8 1 -1.4
v -0.9 1 1.5
v -0.9 1 1.3
v -0.9 1 -1.3
v -0.9 1 -1.5
v -1 1 1.2
v -1 1 1
v -1 1 0.8
v -1 1 0.6
v -1 1 -0.6
v -1 1 -0.9
v -1 1 -1.1
v -1 1 -1.2
v -1 1 -1.3
v -1.1 1 1.3
v -1.1 1 1.2
v -1.1 1 1
v -1.1 1 0.8
v -1.1 1 0.6
v -1.1 1 -0.6
v -1.1 1 -0.9
v -1.1 1 -1.1
v -1.1 1 -1.3
v 1.2 1.2 0.6
v 1.2 1.2 0.5
v 1.2 1.2 -0.5
v 1.2 1.2 -0.6
v 1.1 1.2 -0.5
v 1.1 1.2 -0.6
v 1 1.2 0.6
v 1 1.2 0.5
v 1 1.2 -0.5
v 1 1.2 -0.6
v -1 1.2 0.6
v -1 1.2 0.5
v -1 1.2 -0.5
v -1 1.2 -0.6
v -1.1 1.2 -0.5
v -1.1 1.2 -0.6
v -1.2 1.2 0.6
v -1.2 1.2 0.5
v -1.2 1.2 -0.5
v -1.2 1.2 -0.6
v 1.2 1.3 0.5
v 1.2 1.3 0.4
v 1.2 1.3 -0.4
v 1.2 1.3 -0.5
v 1.1 1.3 -0.4
v 1.1 1.3 -0.5
v 1 1.3 0.5
v 1 1.3 0.4
v 1 1.3 -0.4
v 1 1.3 -0.5
v -1 1.3 0.5
v -1 1.3 0.4
v -1 1.3 -0.4
v -1 1.3 -0.5
v -1.1 1.3 -0.4
v -1.1 1.3 -0.5
v -1.2 1.3 0.5
v -1.2 1.3 0.4
v -1.2 1.3 -0.4
v -1.2 1.3 -0.5
v 1.2 1.4 0.4
v 1.2 1.4 0.2
v 1.2 1.4 -0.1
v 1.2 1.4 -0.3
v 1.2 1.4 -0.4
v 1.1 1.4 0.2
v 1.1 1.4 -0.1
v 1.1 1.4 -0.3
v 1.1 1.4 -0.4
v 1 1.4 0.4
v 1 1.4 -0.4
v -1 1.4 0.4
v -1 1.4 -0.4
v -1.1 1.4 0.2
v -1.1 1.4 -0.1
v -1.1 1.4 -0.3
v -1.1 1.4 -0.4
v -1.2 1.4 0.4
v -1.2 1.4 0.2
v -1.2 1.4 -0.1
v -1.2 1.4 -0.3
v -1.2 1.4 -0.4
v 1 1.5 1.2
v 1 1.5 1
v 1 1.5 0.6
v 1 1.5 0.2
v 1 1.5 -0.2
v 1 1.5 -0.6
v 1 1.5 -1
v 1 1.5 -1.2
v 0.8 1.5 1.4
v 0.8 1.5 1.2
v 0.8 1.5 1
v 0.8 1.5 0.6
v 0.8 1.5 0.2
v 0.8 1.5 -0.2
v 0.8 1.5 -0.6
v 0.8 1.5 -1
v 0.8 1.5 -1.2
v 0.8 1.5 -1.4
v 0.6 1.5 1.4
v 0.6 1.5 1.2
v 0.6 1.5 -1.2
v 0.6 1.5 -1.4
v 0.2 1.5 1.4
v 0.2 1.5 1.2
v 0.2 1.5 -1.2
v 0.2 1.5 -1.4
v -0.2 1.5 1.4
v -0.2 1.5 1.2
v -0.2 1.5 -1.2
v -0.2 1.5 -1.4
v -0.6 1.5 1.4
v -0.6 1.5 1.2
v -0.6 1.5 -1.2
v -0.6 1.5 -1.4
v -0.8 1.5 1.4
v -0.8 1.5 1.2
v -0.8 1.5 1
v -0.8 1.5 0.6
v -0.8 1.5 0.2
v -0.8 1.5 -0.2
v -0.8 1.5 -0.6
v -0.8 1.5 -1
v -0.8 1.5 -1.2
v -0.8 1.5 -1.4
v -1 1.5 1.2
v -1 1.5 1
v -1 1.5 0.6
v -1 1.5 0.2
v -1 1.5 -0.2
v -1 1.5 -0.6
v -1 1.5 -1
v -1 1.5 -1.2
v 1 1.8 1
v 1 1.8 0.8
v 1 1.8 0.7
v 1 1.8 0.6
v 1 1.8 0.2
v 1 1.8 0
v 1 1.8 -0.1
v 1 1.8 -0.2
v 1 1.8 -0.6
v 1 1.8 -0.8
v 1 1.8 -0.9
v 1 1.8 -1
v 0.9 1.8 1
v 0.9 1.8 0.8
v 0.9 1.8 0.7
v 0.9 1.8 0.6
v 0.9 1.8 0.2
v 0.9 1.8 0
v 0.9 1.8 -0.1
v 0.9 1.8 -0.2
v 0.9 1.8 -0.6
v 0.9 1.8 -0.8
v 0.9 1.8 -0.9
v 0.9 1.8 -1
v 0.8 1.8 1
v 0.8 1.8 0.6
v 0.8 1.8 0.2
v 0.8 1.8 -0.2
v 0.8 1.8 -0.6
v 0.8 1.8 -1
v 0.6 1.8 1.4
v 0.6 1.8 1.3
v 0.6 1.8 1.2
v 0.6 1.8 -1.2
v 0.6 1.8 -1.3
v 0.6 1.8 -1.4
v 0.5 1.8 1.4
v 0.5 1.8 1.3
v 0.5 1.8 -1.3
v 0.5 1.8 -1.4
v 0.4 1.8 1.4
v 0.4 1.8 1.3
v 0.4 1.8 -1.3
v 0.4 1.8 -1.4
v 0.2 1.8 1.4
v 0.2 1.8 1.3
v 0.2 1.8 1.2
v 0.2 1.8 -1.2
v 0.2 1.8 -1.3
v 0.2 1.8 -1.4
v -0.2 1.8 1.4
v -0.2 1.8 1.3
v -0.2 1.8 1.2
v -0.2 1.8 -1.2
v -0.2 1.8 -1.3
v -0.2 1.8 -1.4
v -0.3 1.8 1.4
v -0.3 1.8 1.3
v -0.3 1.8 -1.3
v -0.3 1.8 -1.4
v -0.4 1.8 1.4
v -0.4 1.8 1.3
v -0.4 1.8 -1.3
v -0.4 1.8 -1.4
v -0.6 1.8 1.4
v -0.6 1.8 1.3
v -0.6 1.8 1.2
v -0.6 1.8 -1.2
v -0.6 1.8 -1.3
v -0.6 1.8 -1.4
v -0.8 1.8 1
v -0.8 1.8 0.6
v -0.8 1.8 0.2
v -0.8 1.8 -0.2
v -0.8 1.8 -0.6
v -0.8 1.8 -1
v -0.9 1.8 1
v -0.9 1.8 0.9
v -0.9 1.8 0.8
v -0.9 1.8 0.6
v -0.9 1.8 0.2
v -0.9 1.8 0.1
v -0.9 1.8 0
v -0.9 1.8 -0.2
v -0.9 1.8 -0.6
v -0.9 1.8 -0.7
v -0.9 1.8 -0.8
v -0.9 1.8 -1
v -1 1.8 1
v -1 1.8 0.9
v -1 1.8 0.8
v -1 1.8 0.6
v -1 1.8 0.2
v -1 1.8 0.1
v -1 1.8 0
v -1 1.8 -0.2
v -1 1.8 -0.6
v -1 1.8 -0.7
v -1 1.8 -0.8
v -1 1.8 -1

# faces
f 3/1/1 2/1/1 1/1/1
f 4/1/1 2/1/1 3/1/1
f 5/1/1 2/1/1 4/1/1
f 6/1/1 2/1/1 5/1/1
f 7/1/1 2/1/1 6/1/1
f 8/1/1 2/1/1 7/1/1
f 9/1/1 2/1/1 8/1/1
f 10/1/1 2/1/1 9/1/1
f 11/1/1 2/1/1 10/1/1
f 12/1/1 3/1/1 1/1/1
f 13/2/1 4/2/1 3/2/1
f 13/1/1 3/1/1 12/1/1
f 14/3/1 5/3/1 4/3/1
f 14/2/1 4/2/1 13/2/1
f 15/2/1 6/2/1 5/2/1
f 15/3/1 5/3/1 14/3/1
f 16/1/1 7/1/1 6/1/1
f 16/2/1 6/2/1 15/2/1
f 17/2/1 8/2/1 7/2/1
f 17/1/1 7/1/1 16/1/1
f 18/3/1 9/3/1 8/3/1
f 18/2/1 8/2/1 17/2/1
f 19/2/1 10/2/1 9/2/1
f 19/3/1 9/3/1 18/3/1
f 20/3/1 11/3/1 10/3/1
f 20/2/1 10/2/1 19/2/1
f 21/3/1 11/3/1 20/3/1
f 27/7/1 23/7/1 22/7/1
f 28/7/1 23/7/1 27/7/1
f 32/5/1 25/5/1 24/5/1
f 33/5/1 25/5/1 32/5/1
f 34/7/1 27/7/1 26/7/1
f 34/7/1 28/7/1 27/7/1
f 34/7/1 29/7/1 28/7/1
f 35/7/1 29/7/1 34/7/1
f 36/7/1 29/7/1 35/7/1
f 37/7/1 29/7/1 36/7/1
f 38/5/1 31/5/1 30/5/1
f 39/5/1 31/5/1 38/5/1
f 40/7/1 36/7/1 35/7/1
f 41/7/1 36/7/1 40/7/1
f 44/1/1 43/1/1 42/1/1
f 45/1/1 43/1/1 44/1/1
f 46/1/1 43/1/1 45/1/1
f 47/1/1 43/1/1 46/1/1
f 48/1/1 43/1/1 47/1/1
f 49/1/1 43/1/1 48/1/1
f 50/1/1 43/1/1 49/1/1
f 51/1/1 43/1/1 50/1/1
f 52/2/1 45/2/1 44/2/1
f 53/3/1 46/3/1 45/3/1
f 53/2/1 45/2/1 52/2/1
f 54/2/1 47/2/1 46/2/1
f 54/3/1 46/3/1 53/3/1
f 55/1/1 48/1/1 47/1/1
f 55/2/1 47/2/1 54/2/1
f 56/2/1 49/2/1 48/2/1
f 56/1/1 48/1/1 55/1/1
f 57/3/1 50/3/1 49/3/1
f 57/2/1 49/2/1 56/2/1
f 58/2/1 51/2/1 50/2/1
f 58/3/1 50/3/1 57/3/1
f 59/2/1 51/2/1 58/2/1
f 70/1/1 61/1/1 60/1/1
f 70/1/1 69/1/1 68/1/1
f 70/1/1 68/1/1 67/1/1
f 70/1/1 67/1/1 66/1/1
f 70/1/1 66/1/1 65/1/1
f 70/1/1 65/1/1 64/1/1
f 70/1/1 64/1/1 63/1/1
f 70/1/1 63/1/1 62/1/1
f 70/1/1 62/1/1 61/1/1
f 71/1/1 69/1/1 70/1/1
f 72/1/1 70/1/1 60/1/1
f 73/1/1 70/1/1 72/1/1
f 74/1/1 70/1/1 73/1/1
f 75/1/1 70/1/1 74/1/1
f 76/1/1 69/1/1 71/1/1
f 77/1/1 69/1/1 76/1/1
f 78/1/1 69/1/1 77/1/1
f 79/1/1 69/1/1 78/1/1
f 80/1/1 72/1/1 60/1/1
f 81/1/1 74/1/1 73/1/1
f 82/1/1 74/1/1 81/1/1
f 85/1/1 78/1/1 77/1/1
f 86/1/1 78/1/1 85/1/1
f 87/1/1 69/1/1 79/1/1
f 88/1/1 83/1/1 82/1/1
f 88/1/1 81/1/1 80/1/1
f 88/1/1 82/1/1 81/1/1
f 89/1/1 86/1/1 85/1/1
f 89/1/1 87/1/1 86/1/1
f 89/1/1 85/1/1 84/1/1
f 90/1/1 88/1/1 80/1/1
f 90/1/1 89/1/1 88/1/1
f 90/1/1 80/1/1 60/1/1
f 91/1/1 87/1/1 89/1/1
f 91/1/1 89/1/1 90/1/1
f 91/1/1 69/1/1 87/1/1
f 99/1/1 93/1/1 92/1/1
f 99/1/1 98/1/1 97/1/1
f 99/1/1 97/1/1 96/1/1
f 99/1/1 96/1/1 95/1/1
f 99/1/1 95/1/1 94/1/1
f 99/1/1 94/1/1 93/1/1
f 100/1/1 98/1/1 99/1/1
f 101/1/1 98/1/1 100/1/1
f 102/1/1 98/1/1 101/1/1
f 103/1/1 98/1/1 102/1/1
f 104/1/1 98/1/1 103/1/1
f 105/1/1 101/1/1 100/1/1
f 106/1/1 101/1/1 105/1/1
f 107/1/1 101/1/1 106/1/1
f 108/1/1 101/1/1 107/1/1
f 109/1/1 103/1/1 102/1/1
f 110/1/1 103/1/1 109/1/1
f 111/1/1 103/1/1 110/1/1
f 112/1/1 103/1/1 111/1/1
f 113/2/1 106/2/1 105/2/1
f 114/3/1 107/3/1 106/3/1
f 114/2/1 106/2/1 113/2/1
f 115/2/1 108/2/1 107/2/1
f 115/3/1 107/3/1 114/3/1
f 116/2/1 108/2/1 115/2/1
f 117/2/1 110/2/1 109/2/1
f 118/3/1 111/3/1 110/3/1
f 118/2/1 110/2/1 117/2/1
f 119/2/1 112/2/1 111/2/1
f 119/3/1 111/3/1 118/3/1
f 120/2/1 112/2/1 119/2/1
f 125/1/1 122/1/1 121/1/1
f 126/1/1 122/1/1 125/1/1
f 127/1/1 124/1/1 123/1/1
f 128/1/1 124/1/1 127/1/1
f 129/2/1 126/2/1 125/2/1
f 130/2/1 126/2/1 129/2/1
f 131/2/1 128/2/1 127/2/1
f 132/2/1 128/2/1 131/2/1
f 137/1/1 134/1/1 133/1/1
f 138/1/1 134/1/1 137/1/1
f 139/1/1 134/1/1 138/1/1
f 140/1/1 136/1/1 135/1/1
f 141/1/1 136/1/1 140/1/1
f 142/3/1 138/3/1 137/3/1
f 143/2/1 139/2/1 138/2/1
f 143/3/1 138/3/1 142/3/1
f 144/2/1 139/2/1 143/2/1
f 145/2/1 141/2/1 140/2/1
f 146/2/1 141/2/1 145/2/1
f 151/1/1 148/1/1 147/1/1
f 152/1/1 148/1/1 151/1/1
f 153/1/1 150/1/1 149/1/1
f 154/1/1 150/1/1 153/1/1
f 159/1/1 156/1/1 155/1/1
f 160/1/1 156/1/1 159/1/1
f 161/1/1 158/1/1 157/1/1
f 162/1/1 158/1/1 161/1/1
f 167/6/1 164/6/1 163/6/1
f 168/6/1 164/6/1 167/6/1
f 169/6/1 166/6/1 165/6/1
f 170/6/1 166/6/1 169/6/1
f 175/6/1 172/6/1 171/6/1
f 176/6/1 172/6/1 175/6/1
f 177/6/1 174/6/1 173/6/1
f 178/6/1 174/6/1 177/6/1
f 183/6/1 180/6/1 179/6/1
f 184/6/1 180/6/1 183/6/1
f 185/6/1 182/6/1 181/6/1
f 186/6/1 182/6/1 185/6/1
f 191/1/1 188/1/1 187/1/1
f 192/1/1 188/1/1 191/1/1
f 193/1/1 190/1/1 189/1/1
f 194/1/1 190/1/1 193/1/1
f 195/2/1 192/2/1 191/2/1
f 196/1/1 188/1/1 192/1/1
f 196/2/1 192/2/1 195/2/1
f 197/1/1 188/1/1 196/1/1
f 198/1/1 193/1/1 189/1/1
f 199/2/1 194/2/1 193/2/1
f 199/1/1 193/1/1 198/1/1
f 200/2/1 194/2/1 199/2/1
f 205/2/1 202/2/1 201/2/1
f 206/2/1 202/2/1 205/2/1
f 207/2/1 204/2/1 203/2/1
f 208/2/1 204/2/1 207/2/1
f 209/2/1 205/2/1 201/2/1
f 212/2/1 204/2/1 208/2/1
f 213/2/1 210/2/1 209/2/1
f 213/2/1 209/2/1 201/2/1
f 214/2/1 210/2/1 213/2/1
f 215/2/1 212/2/1 211/2/1
f 216/2/1 204/2/1 212/2/1
f 216/2/1 212/2/1 215/2/1
f 221/2/1 218/2/1 217/2/1
f 222/2/1 218/2/1 221/2/1
f 223/2/1 220/2/1 219/2/1
f 224/2/1 220/2/1 223/2/1
f 229/2/1 226/2/1 225/2/1
f 230/2/1 226/2/1 229/2/1
f 231/2/1 228/2/1 227/2/1
f 232/2/1 228/2/1 231/2/1
f 237/2/1 234/2/1 233/2/1
f 238/2/1 234/2/1 237/2/1
f 239/2/1 236/2/1 235/2/1
f 240/2/1 236/2/1 239/2/1
f 245/2/1 242/2/1 241/2/1
f 246/2/1 242/2/1 245/2/1
f 247/2/1 244/2/1 243/2/1
f 248/2/1 244/2/1 247/2/1
f 253/1/1 250/1/1 249/1/1
f 254/1/1 250/1/1 253/1/1
f 255/1/1 252/1/1 251/1/1
f 256/1/1 252/1/1 255/1/1
f 257/2/1 254/2/1 253/2/1
f 258/1/1 250/1/1 254/1/1
f 258/2/1 254/2/1 257/2/1
f 259/1/1 250/1/1 258/1/1
f 260/1/1 255/1/1 251/1/1
f 261/2/1 256/2/1 255/2/1
f 261/1/1 255/1/1 260/1/1
f 262/2/1 256/2/1 261/2/1
f 267/2/1 264/2/1 263/2/1
f 268/2/1 264/2/1 267/2/1
f 269/2/1 266/2/1 265/2/1
f 270/2/1 266/2/1 269/2/1
f 275/2/1 272/2/1 271/2/1
f 276/2/1 272/2/1 275/2/1
f 277/2/1 274/2/1 273/2/1
f 278/2/1 274/2/1 277/2/1
f 283/1/1 280/1/1 279/1/1
f 284/1/1 280/1/1 283/1/1
f 285/1/1 282/1/1 281/1/1
f 286/1/1 282/1/1 285/1/1
f 287/2/1 284/2/1 283/2/1
f 288/1/1 280/1/1 284/1/1
f 288/2/1 284/2/1 287/2/1
f 289/1/1 280/1/1 288/1/1
f 290/1/1 285/1/1 281/1/1
f 291/2/1 286/2/1 285/2/1
f 291/1/1 285/1/1 290/1/1
f 292/2/1 286/2/1 291/2/1
f 297/6/1 294/6/1 293/6/1
f 298/6/1 294/6/1 297/6/1
f 299/6/1 296/6/1 295/6/1
f 300/6/1 296/6/1 299/6/1
f 305/6/1 302/6/1 301/6/1
f 306/6/1 302/6/1 305/6/1
f 307/6/1 304/6/1 303/6/1
f 308/6/1 304/6/1 307/6/1
f 313/6/1 310/6/1 309/6/1
f 314/6/1 310/6/1 313/6/1
f 315/6/1 312/6/1 311/6/1
f 316/6/1 312/6/1 315/6/1
f 319/1/1 318/1/1 317/1/1
f 320/1/1 318/1/1 319/1/1
f 321/1/1 318/1/1 320/1/1
f 322/1/1 318/1/1 321/1/1
f 323/1/1 318/1/1 322/1/1
f 324/1/1 318/1/1 323/1/1
f 325/1/1 321/1/1 320/1/1
f 326/1/1 321/1/1 325/1/1
f 327/1/1 323/1/1 322/1/1
f 328/1/1 323/1/1 327/1/1
f 329/1/2 330/1/2 331/1/2
f 331/1/2 330/1/2 332/1/2
f 332/1/2 330/1/2 333/1/2
f 333/1/2 330/1/2 334/1/2
f 334/1/2 330/1/2 335/1/2
f 335/1/2 330/1/2 336/1/2
f 332/1/2 333/1/2 337/1/2
f 337/1/2 333/1/2 338/1/2
f 334/1/2 335/1/2 339/1/2
f 339/1/2 335/1/2 340/1/2
f 341/6/2 342/6/2 345/6/2
f 345/6/2 342/6/2 346/6/2
f 343/6/2 344/6/2 347/6/2
f 347/6/2 344/6/2 348/6/2
f 349/6/2 350/6/2 353/6/2
f 353/6/2 350/6/2 354/6/2
f 351/6/2 352/6/2 355/6/2
f 355/6/2 352/6/2 356/6/2
f 357/6/2 358/6/2 361/6/2
f 361/6/2 358/6/2 362/6/2
f 359/6/2 360/6/2 363/6/2
f 363/6/2 360/6/2 364/6/2
f 365/1/2 366/1/2 369/1/2
f 369/1/2 366/1/2 370/1/2
f 367/1/2 368/1/2 371/1/2
f 371/1/2 368/1/2 372/1/2
f 369/2/2 370/2/2 373/2/2
f 370/1/2 366/1/2 374/1/2
f 373/2/2 370/2/2 374/2/2
f 374/1/2 366/1/2 375/1/2
f 367/1/2 371/1/2 376/1/2
f 371/2/2 372/2/2 377/2/2
f 376/1/2 371/1/2 377/1/2
f 377/2/2 372/2/2 378/2/2
f 379/2/2 380/2/2 383/2/2
f 383/2/2 380/2/2 384/2/2
f 381/2/2 382/2/2 385/2/2
f 385/2/2 382/2/2 386/2/2
f 387/2/2 388/2/2 391/2/2
f 391/2/2 388/2/2 392/2/2
f 389/2/2 390/2/2 393/2/2
f 393/2/2 390/2/2 394/2/2
f 395/1/2 396/1/2 399/1/2
f 399/1/2 396/1/2 400/1/2
f 397/1/2 398/1/2 401/1/2
f 401/1/2 398/1/2 402/1/2
f 399/2/2 400/2/2 403/2/2
f 400/1/2 396/1/2 404/1/2
f 403/2/2 400/2/2 404/2/2
f 404/1/2 396/1/2 405/1/2
f 397/1/2 401/1/2 406/1/2
f 401/2/2 402/2/2 407/2/2
f 406/1/2 401/1/2 407/1/2
f 407/2/2 402/2/2 408/2/2
f 409/2/2 410/2/2 413/2/2
f 413/2/2 410/2/2 414/2/2
f 411/2/2 412/2/2 415/2/2
f 415/2/2 412/2/2 416/2/2
f 417/3/2 418/3/2 423/3/2
f 418/2/2 419/2/2 424/2/2
f 423/3/2 418/3/2 424/3/2
f 424/2/2 419/2/2 425/2/2
f 420/2/2 421/2/2 426/2/2
f 421/3/2 422/3/2 427/3/2
f 426/2/2 421/2/2 427/2/2
f 427/3/2 422/3/2 428/3/2
f 429/2/2 430/2/2 433/2/2
f 433/2/2 430/2/2 434/2/2
f 431/2/2 432/2/2 435/2/2
f 435/2/2 432/2/2 436/2/2
f 437/3/2 438/3/2 443/3/2
f 438/2/2 439/2/2 444/2/2
f 443/3/2 438/3/2 444/3/2
f 444/2/2 439/2/2 445/2/2
f 440/2/2 441/2/2 446/2/2
f 441/3/2 442/3/2 447/3/2
f 446/2/2 441/2/2 447/2/2
f 447/3/2 442/3/2 448/3/2
f 449/2/2 450/2/2 453/2/2
f 453/2/2 450/2/2 454/2/2
f 451/2/2 452/2/2 455/2/2
f 455/2/2 452/2/2 456/2/2
f 449/2/2 453/2/2 457/2/2
f 456/2/2 452/2/2 460/2/2
f 457/2/2 458/2/2 461/2/2
f 449/2/2 457/2/2 461/2/2
f 461/2/2 458/2/2 462/2/2
f 459/2/2 460/2/2 463/2/2
f 460/2/2 452/2/2 463/2/2
f 463/2/2 452/2/2 464/2/2
f 461/3/2 462/3/2 465/3/2
f 462/2/2 458/2/2 466/2/2
f 465/3/2 462/3/2 466/3/2
f 466/2/2 458/2/2 467/2/2
f 459/2/2 463/2/2 468/2/2
f 463/3/2 464/3/2 469/3/2
f 468/2/2 463/2/2 469/2/2
f 469/3/2 464/3/2 470/3/2
f 471/6/2 472/6/2 475/6/2
f 475/6/2 472/6/2 476/6/2
f 473/6/2 474/6/2 477/6/2
f 477/6/2 474/6/2 478/6/2
f 479/6/2 480/6/2 483/6/2
f 483/6/2 480/6/2 484/6/2
f 481/6/2 482/6/2 485/6/2
f 485/6/2 482/6/2 486/6/2
f 487/1/2 488/1/2 491/1/2
f 491/1/2 488/1/2 492/1/2
f 489/1/2 490/1/2 493/1/2
f 493/1/2 490/1/2 494/1/2
f 491/2/2 492/2/2 495/2/2
f 492/1/2 488/1/2 496/1/2
f 495/2/2 492/2/2 496/2/2
f 496/1/2 488/1/2 497/1/2
f 489/1/2 493/1/2 498/1/2
f 493/2/2 494/2/2 499/2/2
f 498/1/2 493/1/2 499/1/2
f 499/2/2 494/2/2 500/2/2
f 501/6/2 502/6/2 505/6/2
f 505/6/2 502/6/2 506/6/2
f 503/6/2 504/6/2 507/6/2
f 507/6/2 504/6/2 508/6/2
f 509/1/2 510/1/2 514/1/2
f 510/1/2 511/1/2 514/1/2
f 514/1/2 511/1/2 515/1/2
f 512/1/2 513/1/2 516/1/2
f 516/1/2 513/1/2 517/1/2
f 518/1/2 519/1/2 522/1/2
f 522/1/2 519/1/2 523/1/2
f 520/1/2 521/1/2 524/1/2
f 524/1/2 521/1/2 525/1/2
f 526/1/2 527/1/2 530/1/2
f 530/1/2 527/1/2 531/1/2
f 528/1/2 529/1/2 532/1/2
f 532/1/2 529/1/2 533/1/2
f 530/3/2 531/3/2 534/3/2
f 534/3/2 531/3/2 535/3/2
f 532/2/2 533/2/2 536/2/2
f 536/2/2 533/2/2 537/2/2
f 538/1/2 539/1/2 542/1/2
f 542/1/2 539/1/2 543/1/2
f 540/1/2 541/1/2 544/1/2
f 544/1/2 541/1/2 545/1/2
f 545/1/2 541/1/2 546/1/2
f 542/2/2 543/2/2 547/2/2
f 547/2/2 543/2/2 548/2/2
f 544/2/2 545/2/2 549/2/2
f 545/3/2 546/3/2 550/3/2
f 549/2/2 545/2/2 550/2/2
f 550/3/2 546/3/2 551/3/2
f 552/1/2 553/1/2 559/1/2
f 557/1/2 558/1/2 559/1/2
f 556/1/2 557/1/2 559/1/2
f 555/1/2 556/1/2 559/1/2
f 554/1/2 555/1/2 559/1/2
f 553/1/2 554/1/2 559/1/2
f 559/1/2 558/1/2 560/1/2
f 552/1/2 559/1/2 561/1/2
f 561/1/2 559/1/2 562/1/2
f 562/1/2 559/1/2 563/1/2
f 563/1/2 559/1/2 564/1/2
f 560/1/2 558/1/2 565/1/2
f 565/1/2 558/1/2 566/1/2
f 566/1/2 558/1/2 567/1/2
f 567/1/2 558/1/2 568/1/2
f 552/1/2 561/1/2 569/1/2
f 562/1/2 563/1/2 570/1/2
f 570/1/2 563/1/2 571/1/2
f 566/1/2 567/1/2 574/1/2
f 574/1/2 567/1/2 575/1/2
f 568/1/2 558/1/2 576/1/2
f 571/1/2 572/1/2 577/1/2
f 569/1/2 570/1/2 577/1/2
f 570/1/2 571/1/2 577/1/2
f 574/1/2 575/1/2 578/1/2
f 575/1/2 576/1/2 578/1/2
f 573/1/2 574/1/2 578/1/2
f 569/1/2 577/1/2 579/1/2
f 577/1/2 578/1/2 579/1/2
f 552/1/2 569/1/2 579/1/2
f 578/1/2 576/1/2 580/1/2
f 579/1/2 578/1/2 580/1/2
f 576/1/2 558/1/2 580/1/2
f 581/1/2 582/1/2 588/1/2
f 586/1/2 587/1/2 588/1/2
f 585/1/2 586/1/2 588/1/2
f 584/1/2 585/1/2 588/1/2
f 583/1/2 584/1/2 588/1/2
f 582/1/2 583/1/2 588/1/2
f 588/1/2 587/1/2 589/1/2
f 589/1/2 587/1/2 590/1/2
f 590/1/2 587/1/2 591/1/2
f 591/1/2 587/1/2 592/1/2
f 592/1/2 587/1/2 593/1/2
f 589/1/2 590/1/2 594/1/2
f 594/1/2 590/1/2 595/1/2
f 595/1/2 590/1/2 596/1/2
f 596/1/2 590/1/2 597/1/2
f 591/1/2 592/1/2 598/1/2
f 598/1/2 592/1/2 599/1/2
f 599/1/2 592/1/2 600/1/2
f 600/1/2 592/1/2 601/1/2
f 594/2/2 595/2/2 602/2/2
f 595/3/2 596/3/2 603/3/2
f 602/2/2 595/2/2 603/2/2
f 596/2/2 597/2/2 604/2/2
f 603/3/2 596/3/2 604/3/2
f 604/2/2 597/2/2 605/2/2
f 598/2/2 599/2/2 606/2/2
f 599/3/2 600/3/2 607/3/2
f 606/2/2 599/2/2 607/2/2
f 600/2/2 601/2/2 608/2/2
f 607/3/2 600/3/2 608/3/2
f 608/2/2 601/2/2 609/2/2
f 610/1/2 611/1/2 612/1/2
f 612/1/2 611/1/2 613/1/2
f 613/1/2 611/1/2 614/1/2
f 614/1/2 611/1/2 615/1/2
f 615/1/2 611/1/2 616/1/2
f 616/1/2 611/1/2 617/1/2
f 617/1/2 611/1/2 618/1/2
f 618/1/2 611/1/2 619/1/2
f 612/3/2 613/3/2 620/3/2
f 613/2/2 614/2/2 621/2/2
f 620/3/2 613/3/2 621/3/2
f 614/3/2 615/3/2 622/3/2
f 621/2/2 614/2/2 622/2/2
f 615/2/2 616/2/2 623/2/2
f 622/3/2 615/3/2 623/3/2
f 616/1/2 617/1/2 624/1/2
f 623/2/2 616/2/2 624/2/2
f 617/2/2 618/2/2 625/2/2
f 624/1/2 617/1/2 625/1/2
f 618/3/2 619/3/2 626/3/2
f 625/2/2 618/2/2 626/2/2
f 626/3/2 619/3/2 627/3/2
f 628/7/2 629/7/2 633/7/2
f 633/7/2 629/7/2 634/7/2
f 630/5/2 631/5/2 638/5/2
f 638/5/2 631/5/2 639/5/2
f 632/7/2 633/7/2 640/7/2
f 633/7/2 634/7/2 640/7/2
f 634/7/2 635/7/2 640/7/2
f 640/7/2 635/7/2 641/7/2
f 641/7/2 635/7/2 642/7/2
f 642/7/2 635/7/2 643/7/2
f 636/5/2 637/5/2 644/5/2
f 644/5/2 637/5/2 645/5/2
f 641/7/2 642/7/2 646/7/2
f 646/7/2 642/7/2 647/7/2
f 648/1/2 649/1/2 650/1/2
f 650/1/2 649/1/2 651/1/2
f 651/1/2 649/1/2 652/1/2
f 652/1/2 649/1/2 653/1/2
f 653/1/2 649/1/2 654/1/2
f 654/1/2 649/1/2 655/1/2
f 655/1/2 649/1/2 656/1/2
f 650/3/2 651/3/2 657/3/2
f 651/2/2 652/2/2 658/2/2
f 657/3/2 651/3/2 658/3/2
f 652/1/2 653/1/2 659/1/2
f 658/2/2 652/2/2 659/2/2
f 653/2/2 654/2/2 660/2/2
f 659/1/2 653/1/2 660/1/2
f 654/3/2 655/3/2 661/3/2
f 660/2/2 654/2/2 661/2/2
f 655/2/2 656/2/2 662/2/2
f 661/3/2 655/3/2 662/3/2
f 656/1/2 649/1/2 663/1/2
f 662/2/2 656/2/2 663/2/2
f 663/1/2 649/1/2 664/1/2
f 668/2/3 666/2/3 665/2/3
f 669/2/3 666/2/3 668/2/3
f 670/2/3 666/2/3 669/2/3
f 671/2/3 666/2/3 670/2/3
f 674/2/3 668/2/3 667/2/3
f 674/2/3 669/2/3 668/2/3
f 675/1/3 670/1/3 669/1/3
f 675/2/3 669/2/3 674/2/3
f 676/1/3 670/1/3 675/1/3
f 677/2/3 672/2/3 671/2/3
f 677/1/3 670/1/3 676/1/3
f 677/2/3 671/2/3 670/2/3
f 678/2/3 672/2/3 677/2/3
f 679/2/3 672/2/3 678/2/3
f 681/2/3 676/2/3 675/2/3
f 681/2/3 675/2/3 674/2/3
f 681/2/3 674/2/3 673/2/3
f 682/2/3 676/2/3 681/2/3
f 683/2/3 676/2/3 682/2/3
f 684/1/3 678/1/3 677/1/3
f 684/2/3 676/2/3 683/2/3
f 684/1/3 677/1/3 676/1/3
f 685/2/3 680/2/3 679/2/3
f 685/2/3 679/2/3 678/2/3
f 686/2/3 680/2/3 685/2/3
f 688/2/3 683/2/3 682/2/3
f 689/2/3 683/2/3 688/2/3
f 690/2/3 683/2/3 689/2/3
f 691/1/3 684/1/3 683/1/3
f 691/2/3 683/2/3 690/2/3
f 692/1/3 678/1/3 684/1/3
f 692/1/3 684/1/3 691/1/3
f 692/2/3 685/2/3 678/2/3
f 693/2/3 689/2/3 688/2/3
f 693/2/3 688/2/3 687/2/3
f 694/2/3 689/2/3 693/2/3
f 695/1/3 690/1/3 689/1/3
f 695/2/3 689/2/3 694/2/3
f 696/2/3 691/2/3 690/2/3
f 696/1/3 690/1/3 695/1/3
f 696/2/3 692/2/3 691/2/3
f 697/2/3 692/2/3 696/2/3
f 698/2/3 685/2/3 692/2/3
f 698/2/3 692/2/3 697/2/3
f 699/3/3 686/3/3 685/3/3
f 699/2/3 685/2/3 698/2/3
f 700/3/3 686/3/3 699/3/3
f 702/2/3 695/2/3 694/2/3
f 702/2/3 697/2/3 696/2/3
f 702/2/3 696/2/3 695/2/3
f 703/1/3 698/1/3 697/1/3
f 703/2/3 697/2/3 702/2/3
f 704/1/3 698/1/3 703/1/3
f 705/4/3 700/4/3 699/4/3
f 705/2/3 699/2/3 698/2/3
f 706/4/3 700/4/3 705/4/3
f 707/2/3 702/2/3 701/2/3
f 707/2/3 704/2/3 703/2/3
f 707/2/3 703/2/3 702/2/3
f 708/2/3 704/2/3 707/2/3
f 709/2/3 704/2/3 708/2/3
f 710/1/3 698/1/3 704/1/3
f 710/2/3 704/2/3 709/2/3
f 711/1/3 698/1/3 710/1/3
f 712/2/3 705/2/3 698/2/3
f 712/1/3 698/1/3 711/1/3
f 713/2/3 705/2/3 712/2/3
f 714/3/3 706/3/3 705/3/3
f 714/2/3 705/2/3 713/2/3
f 715/3/3 706/3/3 714/3/3
f 716/2/3 709/2/3 708/2/3
f 717/2/3 709/2/3 716/2/3
f 718/1/3 711/1/3 710/1/3
f 718/2/3 709/2/3 717/2/3
f 718/1/3 710/1/3 709/1/3
f 719/2/3 713/2/3 712/2/3
f 719/1/3 711/1/3 718/1/3
f 719/2/3 712/2/3 711/2/3
f 720/2/3 713/2/3 719/2/3
f 721/3/3 714/3/3 713/3/3
f 721/2/3 713/2/3 720/2/3
f 722/3/3 714/3/3 721/3/3
f 723/2/3 718/2/3 717/2/3
f 723/2/3 720/2/3 719/2/3
f 723/2/3 719/2/3 718/2/3
f 724/3/3 721/3/3 720/3/3
f 724/2/3 720/2/3 723/2/3
f 725/3/3 721/3/3 724/3/3
f 732/1/3 727/1/3 726/1/3
f 732/2/3 728/2/3 727/2/3
f 733/2/3 728/2/3 732/2/3
f 736/3/3 731/3/3 730/3/3
f 736/1/3 730/1/3 729/1/3
f 737/3/3 731/3/3 736/3/3
f 739/6/3 735/6/3 734/6/3
f 740/6/3 735/6/3 739/6/3
f 742/1/3 736/1/3 729/1/3
f 742/2/3 737/2/3 736/2/3
f 743/2/3 737/2/3 742/2/3
f 744/3/3 733/3/3 732/3/3
f 744/1/3 732/1/3 726/1/3
f 745/3/3 733/3/3 744/3/3
f 746/6/3 741/6/3 740/6/3
f 746/6/3 740/6/3 739/6/3
f 746/6/3 739/6/3 738/6/3
f 747/6/3 741/6/3 746/6/3
f 748/6/3 741/6/3 747/6/3
f 749/6/3 741/6/3 748/6/3
f 750/6/3 748/6/3 747/6/3
f 751/6/3 748/6/3 750/6/3
f 752/2/3 745/2/3 744/2/3
f 752/1/3 744/1/3 726/1/3
f 753/2/3 745/2/3 752/2/3
f 754/1/3 743/1/3 742/1/3
f 754/1/3 742/1/3 729/1/3
f 755/1/3 743/1/3 754/1/3
f 761/6/3 759/6/3 758/6/3
f 762/6/3 759/6/3 761/6/3
f 764/1/3 757/1/3 756/1/3
f 765/1/3 757/1/3 764/1/3
f 766/1/3 753/1/3 752/1/3
f 766/1/3 752/1/3 726/1/3
f 767/1/3 753/1/3 766/1/3
f 768/6/3 763/6/3 762/6/3
f 768/6/3 761/6/3 760/6/3
f 768/6/3 762/6/3 761/6/3
f 769/6/3 763/6/3 768/6/3
f 770/6/3 763/6/3 769/6/3
f 771/6/3 763/6/3 770/6/3
f 772/6/3 770/6/3 769/6/3
f 773/6/3 770/6/3 772/6/3
f 774/2/3 765/2/3 764/2/3
f 774/1/3 764/1/3 756/1/3
f 775/2/3 765/2/3 774/2/3
f 776/2/3 767/2/3 766/2/3
f 776/1/3 766/1/3 726/1/3
f 777/2/3 767/2/3 776/2/3
f 778/3/3 775/3/3 774/3/3
f 778/1/3 774/1/3 756/1/3
f 779/3/3 775/3/3 778/3/3
f 780/1/3 776/1/3 726/1/3
f 781/3/3 777/3/3 776/3/3
f 781/1/3 776/1/3 780/1/3
f 782/3/3 777/3/3 781/3/3
f 783/1/3 778/1/3 756/1/3
f 784/2/3 779/2/3 778/2/3
f 784/1/3 778/1/3 783/1/3
f 785/2/3 779/2/3 784/2/3
f 790/1/3 787/1/3 786/1/3
f 791/1/3 787/1/3 790/1/3
f 792/1/3 787/1/3 791/1/3
f 793/1/3 789/1/3 788/1/3
f 794/1/3 791/1/3 790/1/3
f 795/1/3 791/1/3 794/1/3
f 796/1/3 787/1/3 792/1/3
f 797/1/3 787/1/3 796/1/3
f 798/1/3 789/1/3 793/1/3
f 799/1/3 789/1/3 798/1/3
f 802/1/3 794/1/3 790/1/3
f 803/1/3 794/1/3 802/1/3
f 806/1/3 787/1/3 797/1/3
f 807/2/3 801/2/3 800/2/3
f 807/1/3 800/1/3 799/1/3
f 807/1/3 799/1/3 798/1/3
f 808/2/3 801/2/3 807/2/3
f 809/1/3 804/1/3 803/1/3
f 810/1/3 806/1/3 805/1/3
f 811/1/3 807/1/3 798/1/3
f 811/3/3 808/3/3 807/3/3
f 812/3/3 808/3/3 811/3/3
f 813/1/3 809/1/3 803/1/3
f 813/1/3 803/1/3 802/1/3
f 813/1/3 810/1/3 809/1/3
f 814/1/3 806/1/3 810/1/3
f 814/1/3 810/1/3 813/1/3
f 815/1/3 787/1/3 806/1/3
f 815/1/3 806/1/3 814/1/3
f 816/1/3 811/1/3 798/1/3
f 817/1/3 811/1/3 816/1/3
f 818/1/3 811/1/3 817/1/3
f 819/2/3 812/2/3 811/2/3
f 819/1/3 811/1/3 818/1/3
f 820/2/3 812/2/3 819/2/3
f 821/1/3 814/1/3 813/1/3
f 822/1/3 814/1/3 821/1/3
f 823/1/3 818/1/3 817/1/3
f 824/1/3 818/1/3 823/1/3
f 825/1/3 821/1/3 813/1/3
f 826/1/3 821/1/3 825/1/3
f 827/1/3 818/1/3 824/1/3
f 828/1/3 818/1/3 827/1/3
f 829/1/3 825/1/3 813/1/3
f 831/1/3 818/1/3 828/1/3
f 834/1/3 830/1/3 829/1/3
f 834/1/3 829/1/3 813/1/3
f 835/1/3 830/1/3 834/1/3
f 836/2/3 833/2/3 832/2/3
f 836/1/3 832/1/3 831/1/3
f 837/2/3 833/2/3 836/2/3
f 838/1/3 834/1/3 813/1/3
f 840/1/3 836/1/3 831/1/3
f 840/3/3 837/3/3 836/3/3
f 841/3/3 837/3/3 840/3/3
f 842/1/3 839/1/3 838/1/3
f 842/1/3 838/1/3 813/1/3
f 843/1/3 839/1/3 842/1/3
f 844/1/3 831/1/3 828/1/3
f 844/1/3 840/1/3 831/1/3
f 845/2/3 841/2/3 840/2/3
f 845/1/3 840/1/3 844/1/3
f 846/2/3 841/2/3 845/2/3
f 847/1/3 842/1/3 813/1/3
f 850/1/3 844/1/3 828/1/3
f 851/1/3 848/1/3 847/1/3
f 854/1/3 850/1/3 849/1/3
f 855/1/3 852/1/3 851/1/3
f 858/1/3 854/1/3 853/1/3
f 859/1/3 844/1/3 850/1/3
f 859/1/3 850/1/3 854/1/3
f 859/1/3 854/1/3 858/1/3
f 862/1/3 856/1/3 855/1/3
f 862/1/3 851/1/3 847/1/3
f 862/1/3 855/1/3 851/1/3
f 863/1/3 856/1/3 862/1/3
f 864/1/3 847/1/3 813/1/3
f 864/1/3 862/1/3 847/1/3
f 865/1/3 862/1/3 864/1/3
f 866/1/3 856/1/3 863/1/3
f 867/1/3 856/1/3 866/1/3
f 868/2/3 861/2/3 860/2/3
f 868/1/3 858/1/3 857/1/3
f 868/1/3 860/1/3 859/1/3
f 868/1/3 859/1/3 858/1/3
f 869/2/3 861/2/3 868/2/3
f 870/1/3 868/1/3 857/1/3
f 871/3/3 869/3/3 868/3/3
f 871/1/3 868/1/3 870/1/3
f 872/3/3 869/3/3 871/3/3
f 873/1/3 864/1/3 813/1/3
f 874/1/3 864/1/3 873/1/3
f 877/1/3 856/1/3 867/1/3
f 878/1/3 871/1/3 870/1/3
f 879/2/3 872/2/3 871/2/3
f 879/1/3 871/1/3 878/1/3
f 880/2/3 872/2/3 879/2/3
f 881/1/3 875/1/3 874/1/3
f 881/1/3 874/1/3 873/1/3
f 882/1/3 877/1/3 876/1/3
f 883/1/3 878/1/3 870/1/3
f 884/1/3 881/1/3 873/1/3
f 884/1/3 882/1/3 881/1/3
f 885/1/3 856/1/3 877/1/3
f 885/1/3 882/1/3 884/1/3
f 885/1/3 877/1/3 882/1/3
f 886/1/3 878/1/3 883/1/3
f 887/1/3 878/1/3 886/1/3
f 893/1/3 889/1/3 888/1/3
f 894/1/3 889/1/3 893/1/3
f 895/1/3 889/1/3 894/1/3
f 896/1/3 891/1/3 890/1/3
f 897/2/3 892/2/3 891/2/3
f 897/1/3 891/1/3 896/1/3
f 898/2/3 892/2/3 897/2/3
f 905/1/3 900/1/3 899/1/3
f 905/2/3 901/2/3 900/2/3
f 906/2/3 901/2/3 905/2/3
f 907/1/3 905/1/3 899/1/3
f 908/3/3 906/3/3 905/3/3
f 908/1/3 905/1/3 907/1/3
f 909/3/3 906/3/3 908/3/3
f 910/1/3 903/1/3 902/1/3
f 911/3/3 904/3/3 903/3/3
f 911/1/3 903/1/3 910/1/3
f 912/3/3 904/3/3 911/3/3
f 917/1/3 914/1/3 913/1/3
f 918/1/3 914/1/3 917/1/3
f 919/1/3 914/1/3 918/1/3
f 920/1/3 916/1/3 915/1/3
f 921/1/3 916/1/3 920/1/3
f 926/1/3 925/1/3 924/1/3
f 927/1/3 923/1/3 922/1/3
f 928/1/3 923/1/3 927/1/3
f 929/1/3 925/1/3 926/1/3
f 930/1/3 925/1/3 929/1/3
f 933/5/3 932/5/3 931/5/3
f 934/5/3 932/5/3 933/5/3
f 938/2/3 937/2/3 936/2/3
f 938/1/3 936/1/3 935/1/3
f 939/2/3 937/2/3 938/2/3
f 940/1/3 938/1/3 935/1/3
f 940/1/3 939/1/3 938/1/3
f 941/1/3 939/1/3 940/1/3
f 944/1/3 943/1/3 942/1/3
f 945/1/3 943/1/3 944/1/3
f 948/1/3 944/1/3 942/1/3
f 949/2/3 945/2/3 944/2/3
f 949/1/3 944/1/3 948/1/3
f 950/2/3 945/2/3 949/2/3
f 951/5/3 947/5/3 946/5/3
f 952/5/3 947/5/3 951/5/3
f 955/7/3 954/7/3 953/7/3
f 956/7/3 954/7/3 955/7/3
f 959/7/3 958/7/3 957/7/3
f 960/7/3 958/7/3 959/7/3
f 965/7/3 962/7/3 961/7/3
f 966/7/3 962/7/3 965/7/3
f 967/7/3 964/7/3 963/7/3
f 968/7/3 964/7/3 967/7/3
f 973/7/3 970/7/3 969/7/3
f 974/7/3 970/7/3 973/7/3
f 975/7/3 972/7/3 971/7/3
f 976/7/3 972/7/3 975/7/3
f 980/1/3 978/1/3 977/1/3
f 980/2/3 979/2/3 978/2/3
f 981/2/3 979/2/3 980/2/3
f 982/1/3 980/1/3 977/1/3
f 982/1/3 981/1/3 980/1/3
f 983/1/3 981/1/3 982/1/3
f 986/1/3 985/1/3 984/1/3
f 987/1/3 985/1/3 986/1/3
f 988/1/3 986/1/3 984/1/3
f 989/2/3 987/2/3 986/2/3
f 989/1/3 986/1/3 988/1/3
f 990/2/3 987/2/3 989/2/3
f 993/5/3 992/5/3 991/5/3
f 994/5/3 992/5/3 993/5/3
f 997/5/3 996/5/3 995/5/3
f 998/5/3 996/5/3 997/5/3
f 1001/1/3 1000/1/3 999/1/3
f 1003/1/3 1001/1/3 999/1/3
f 1003/1/3 1002/1/3 1001/1/3
f 1004/1/3 1002/1/3 1003/1/3
f 1005/1/3 1003/1/3 999/1/3
f 1007/1/3 1005/1/3 999/1/3
f 1007/1/3 1006/1/3 1005/1/3
f 1008/1/3 1006/1/3 1007/1/3
f 1009/1/3 1007/1/3 999/1/3
f 1011/1/3 1009/1/3 999/1/3
f 1011/1/3 1010/1/3 1009/1/3
f 1012/1/3 1010/1/3 1011/1/3
f 1013/1/3 1011/1/3 999/1/3
f 1014/1/3 1011/1/3 1013/1/3
f 1015/1/4 1016/1/4 1017/1/4
f 1015/1/4 1017/1/4 1019/1/4
f 1017/1/4 1018/1/4 1019/1/4
f 1019/1/4 1018/1/4 1020/1/4
f 1015/1/4 1019/1/4 1021/1/4
f 1015/1/4 1021/1/4 1023/1/4
f 1021/1/4 1022/1/4 1023/1/4
f 1023/1/4 1022/1/4 1024/1/4
f 1015/1/4 1023/1/4 1025/1/4
f 1015/1/4 1025/1/4 1027/1/4
f 1025/1/4 1026/1/4 1027/1/4
f 1027/1/4 1026/1/4 1028/1/4
f 1015/1/4 1027/1/4 1029/1/4
f 1029/1/4 1027/1/4 1030/1/4
f 1031/5/4 1032/5/4 1033/5/4
f 1033/5/4 1032/5/4 1034/5/4
f 1035/5/4 1036/5/4 1037/5/4
f 1037/5/4 1036/5/4 1038/5/4
f 1039/1/4 1040/1/4 1042/1/4
f 1040/2/4 1041/2/4 1042/2/4
f 1042/2/4 1041/2/4 1043/2/4
f 1039/1/4 1042/1/4 1044/1/4
f 1042/1/4 1043/1/4 1044/1/4
f 1044/1/4 1043/1/4 1045/1/4
f 1046/1/4 1047/1/4 1048/1/4
f 1048/1/4 1047/1/4 1049/1/4
f 1046/1/4 1048/1/4 1050/1/4
f 1048/2/4 1049/2/4 1051/2/4
f 1050/1/4 1048/1/4 1051/1/4
f 1051/2/4 1049/2/4 1052/2/4
f 1053/7/4 1054/7/4 1057/7/4
f 1057/7/4 1054/7/4 1058/7/4
f 1055/7/4 1056/7/4 1059/7/4
f 1059/7/4 1056/7/4 1060/7/4
f 1061/7/4 1062/7/4 1065/7/4
f 1065/7/4 1062/7/4 1066/7/4
f 1063/7/4 1064/7/4 1067/7/4
f 1067/7/4 1064/7/4 1068/7/4
f 1069/7/4 1070/7/4 1071/7/4
f 1071/7/4 1070/7/4 1072/7/4
f 1073/7/4 1074/7/4 1075/7/4
f 1075/7/4 1074/7/4 1076/7/4
f 1077/5/4 1078/5/4 1079/5/4
f 1079/5/4 1078/5/4 1080/5/4
f 1082/2/4 1083/2/4 1084/2/4
f 1081/1/4 1082/1/4 1084/1/4
f 1084/2/4 1083/2/4 1085/2/4
f 1081/1/4 1084/1/4 1086/1/4
f 1084/1/4 1085/1/4 1086/1/4
f 1086/1/4 1085/1/4 1087/1/4
f 1088/1/4 1089/1/4 1090/1/4
f 1090/1/4 1089/1/4 1091/1/4
f 1088/1/4 1090/1/4 1094/1/4
f 1090/2/4 1091/2/4 1095/2/4
f 1094/1/4 1090/1/4 1095/1/4
f 1095/2/4 1091/2/4 1096/2/4
f 1092/5/4 1093/5/4 1097/5/4
f 1097/5/4 1093/5/4 1098/5/4
f 1099/1/4 1100/1/4 1103/1/4
f 1103/1/4 1100/1/4 1104/1/4
f 1104/1/4 1100/1/4 1105/1/4
f 1101/1/4 1102/1/4 1106/1/4
f 1106/1/4 1102/1/4 1107/1/4
f 1110/1/4 1111/1/4 1112/1/4
f 1108/1/4 1109/1/4 1113/1/4
f 1113/1/4 1109/1/4 1114/1/4
f 1112/1/4 1111/1/4 1115/1/4
f 1115/1/4 1111/1/4 1116/1/4
f 1117/1/4 1118/1/4 1123/1/4
f 1118/3/4 1119/3/4 1124/3/4
f 1123/1/4 1118/1/4 1124/1/4
f 1124/3/4 1119/3/4 1125/3/4
f 1120/1/4 1121/1/4 1126/1/4
f 1121/2/4 1122/2/4 1127/2/4
f 1126/1/4 1121/1/4 1127/1/4
f 1127/2/4 1122/2/4 1128/2/4
f 1129/1/4 1130/1/4 1135/1/4
f 1130/2/4 1131/2/4 1135/2/4
f 1135/2/4 1131/2/4 1136/2/4
f 1129/1/4 1135/1/4 1137/1/4
f 1135/3/4 1136/3/4 1138/3/4
f 1137/1/4 1135/1/4 1138/1/4
f 1138/3/4 1136/3/4 1139/3/4
f 1133/1/4 1134/1/4 1140/1/4
f 1132/1/4 1133/1/4 1140/1/4
f 1140/1/4 1134/1/4 1141/1/4
f 1142/1/4 1143/1/4 1146/1/4
f 1146/1/4 1143/1/4 1147/1/4
f 1147/1/4 1143/1/4 1148/1/4
f 1146/1/4 1147/1/4 1149/1/4
f 1149/1/4 1147/1/4 1150/1/4
f 1148/1/4 1143/1/4 1151/1/4
f 1151/1/4 1143/1/4 1152/1/4
f 1144/1/4 1145/1/4 1153/1/4
f 1153/1/4 1145/1/4 1154/1/4
f 1155/2/4 1156/2/4 1157/2/4
f 1154/1/4 1155/1/4 1157/1/4
f 1153/1/4 1154/1/4 1157/1/4
f 1157/2/4 1156/2/4 1158/2/4
f 1146/1/4 1149/1/4 1159/1/4
f 1152/1/4 1143/1/4 1162/1/4
f 1153/1/4 1157/1/4 1163/1/4
f 1157/3/4 1158/3/4 1164/3/4
f 1163/1/4 1157/1/4 1164/1/4
f 1164/3/4 1158/3/4 1165/3/4
f 1159/1/4 1160/1/4 1166/1/4
f 1161/1/4 1162/1/4 1167/1/4
f 1167/1/4 1162/1/4 1168/1/4
f 1166/1/4 1167/1/4 1168/1/4
f 1162/1/4 1143/1/4 1169/1/4
f 1168/1/4 1162/1/4 1169/1/4
f 1163/1/4 1164/1/4 1170/1/4
f 1170/1/4 1164/1/4 1171/1/4
f 1171/1/4 1164/1/4 1172/1/4
f 1164/2/4 1165/2/4 1173/2/4
f 1172/1/4 1164/1/4 1173/1/4
f 1173/2/4 1165/2/4 1174/2/4
f 1159/1/4 1166/1/4 1175/1/4
f 1166/1/4 1168/1/4 1175/1/4
f 1175/1/4 1168/1/4 1176/1/4
f 1171/1/4 1172/1/4 1177/1/4
f 1177/1/4 1172/1/4 1178/1/4
f 1146/1/4 1159/1/4 1179/1/4
f 1159/1/4 1175/1/4 1179/1/4
f 1179/1/4 1175/1/4 1180/1/4
f 1178/1/4 1172/1/4 1181/1/4
f 1181/1/4 1172/1/4 1182/1/4
f 1146/1/4 1179/1/4 1183/1/4
f 1182/1/4 1172/1/4 1185/1/4
f 1183/1/4 1184/1/4 1188/1/4
f 1146/1/4 1183/1/4 1188/1/4
f 1188/1/4 1184/1/4 1189/1/4
f 1186/2/4 1187/2/4 1190/2/4
f 1185/1/4 1186/1/4 1190/1/4
f 1190/2/4 1187/2/4 1191/2/4
f 1185/1/4 1190/1/4 1192/1/4
f 1190/3/4 1191/3/4 1192/3/4
f 1192/3/4 1191/3/4 1193/3/4
f 1146/1/4 1188/1/4 1194/1/4
f 1146/1/4 1194/1/4 1196/1/4
f 1194/1/4 1195/1/4 1196/1/4
f 1196/1/4 1195/1/4 1197/1/4
f 1182/1/4 1185/1/4 1198/1/4
f 1185/1/4 1192/1/4 1198/1/4
f 1192/2/4 1193/2/4 1199/2/4
f 1198/1/4 1192/1/4 1199/1/4
f 1199/2/4 1193/2/4 1200/2/4
f 1146/1/4 1196/1/4 1201/1/4
f 1182/1/4 1198/1/4 1204/1/4
f 1201/1/4 1202/1/4 1205/1/4
f 1203/1/4 1204/1/4 1208/1/4
f 1205/1/4 1206/1/4 1209/1/4
f 1207/1/4 1208/1/4 1212/1/4
f 1204/1/4 1198/1/4 1213/1/4
f 1208/1/4 1204/1/4 1213/1/4
f 1212/1/4 1208/1/4 1213/1/4
f 1209/1/4 1210/1/4 1216/1/4
f 1201/1/4 1205/1/4 1216/1/4
f 1205/1/4 1209/1/4 1216/1/4
f 1216/1/4 1210/1/4 1217/1/4
f 1214/2/4 1215/2/4 1218/2/4
f 1211/1/4 1212/1/4 1218/1/4
f 1213/1/4 1214/1/4 1218/1/4
f 1212/1/4 1213/1/4 1218/1/4
f 1218/2/4 1215/2/4 1219/2/4
f 1146/1/4 1201/1/4 1220/1/4
f 1201/1/4 1216/1/4 1220/1/4
f 1220/1/4 1216/1/4 1221/1/4
f 1217/1/4 1210/1/4 1222/1/4
f 1222/1/4 1210/1/4 1223/1/4
f 1218/3/4 1219/3/4 1224/3/4
f 1211/1/4 1218/1/4 1224/1/4
f 1224/3/4 1219/3/4 1225/3/4
f 1146/1/4 1220/1/4 1226/1/4
f 1211/1/4 1224/1/4 1227/1/4
f 1226/1/4 1220/1/4 1228/1/4
f 1223/1/4 1210/1/4 1231/1/4
f 1227/1/4 1224/1/4 1232/1/4
f 1224/2/4 1225/2/4 1233/2/4
f 1232/1/4 1224/1/4 1233/1/4
f 1233/2/4 1225/2/4 1234/2/4
f 1228/1/4 1229/1/4 1235/1/4
f 1226/1/4 1228/1/4 1235/1/4
f 1235/1/4 1229/1/4 1236/1/4
f 1230/1/4 1231/1/4 1237/1/4
f 1227/1/4 1232/1/4 1238/1/4
f 1236/1/4 1237/1/4 1239/1/4
f 1235/1/4 1236/1/4 1239/1/4
f 1231/1/4 1210/1/4 1240/1/4
f 1239/1/4 1237/1/4 1240/1/4
f 1237/1/4 1231/1/4 1240/1/4
f 1238/1/4 1232/1/4 1241/1/4
f 1241/1/4 1232/1/4 1242/1/4
f 1246/1/4 1247/1/4 1249/1/4
f 1247/2/4 1248/2/4 1249/2/4
f 1249/2/4 1248/2/4 1250/2/4
f 1243/1/4 1244/1/4 1251/1/4
f 1244/2/4 1245/2/4 1251/2/4
f 1251/2/4 1245/2/4 1252/2/4
f 1253/6/4 1254/6/4 1256/6/4
f 1256/6/4 1254/6/4 1257/6/4
f 1249/3/4 1250/3/4 1259/3/4
f 1246/1/4 1249/1/4 1259/1/4
f 1259/3/4 1250/3/4 1260/3/4
f 1257/6/4 1258/6/4 1261/6/4
f 1256/6/4 1257/6/4 1261/6/4
f 1255/6/4 1256/6/4 1261/6/4
f 1261/6/4 1258/6/4 1262/6/4
f 1262/6/4 1258/6/4 1263/6/4
f 1263/6/4 1258/6/4 1264/6/4
f 1259/2/4 1260/2/4 1265/2/4
f 1246/1/4 1259/1/4 1265/1/4
f 1265/2/4 1260/2/4 1266/2/4
f 1262/6/4 1263/6/4 1267/6/4
f 1267/6/4 1263/6/4 1268/6/4
f 1265/1/4 1266/1/4 1269/1/4
f 1246/1/4 1265/1/4 1269/1/4
f 1269/1/4 1266/1/4 1270/1/4
f 1273/6/4 1274/6/4 1276/6/4
f 1276/6/4 1274/6/4 1277/6/4
f 1243/1/4 1251/1/4 1279/1/4
f 1251/1/4 1252/1/4 1279/1/4
f 1279/1/4 1252/1/4 1280/1/4
f 1271/1/4 1272/1/4 1281/1/4
f 1281/1/4 1272/1/4 1282/1/4
f 1277/6/4 1278/6/4 1283/6/4
f 1276/6/4 1277/6/4 1283/6/4
f 1275/6/4 1276/6/4 1283/6/4
f 1283/6/4 1278/6/4 1284/6/4
f 1284/6/4 1278/6/4 1285/6/4
f 1285/6/4 1278/6/4 1286/6/4
f 1279/2/4 1280/2/4 1287/2/4
f 1243/1/4 1279/1/4 1287/1/4
f 1287/2/4 1280/2/4 1288/2/4
f 1284/6/4 1285/6/4 1289/6/4
f 1289/6/4 1285/6/4 1290/6/4
f 1281/2/4 1282/2/4 1291/2/4
f 1271/1/4 1281/1/4 1291/1/4
f 1291/2/4 1282/2/4 1292/2/4
f 1243/1/4 1287/1/4 1293/1/4
f 1287/3/4 1288/3/4 1293/3/4
f 1293/3/4 1288/3/4 1294/3/4
f 1243/1/4 1293/1/4 1295/1/4
f 1293/2/4 1294/2/4 1296/2/4
f 1295/1/4 1293/1/4 1296/1/4
f 1296/2/4 1294/2/4 1297/2/4
f 1271/1/4 1291/1/4 1298/1/4
f 1291/3/4 1292/3/4 1299/3/4
f 1298/1/4 1291/1/4 1299/1/4
f 1299/3/4 1292/3/4 1300/3/4
f 1301/2/4 1302/2/4 1304/2/4
f 1304/2/4 1302/2/4 1305/2/4
f 1305/2/4 1302/2/4 1306/2/4
f 1306/2/4 1302/2/4 1307/2/4
f 1303/2/4 1304/2/4 1310/2/4
f 1304/2/4 1305/2/4 1310/2/4
f 1305/1/4 1306/1/4 1311/1/4
f 1310/2/4 1305/2/4 1311/2/4
f 1311/1/4 1306/1/4 1312/1/4
f 1307/2/4 1308/2/4 1313/2/4
f 1312/1/4 1306/1/4 1313/1/4
f 1306/2/4 1307/2/4 1313/2/4
f 1313/2/4 1308/2/4 1314/2/4
f 1314/2/4 1308/2/4 1315/2/4
f 1311/2/4 1312/2/4 1317/2/4
f 1310/2/4 1311/2/4 1317/2/4
f 1309/2/4 1310/2/4 1317/2/4
f 1317/2/4 1312/2/4 1318/2/4
f 1318/2/4 1312/2/4 1319/2/4
f 1313/1/4 1314/1/4 1320/1/4
f 1319/2/4 1312/2/4 1320/2/4
f 1312/1/4 1313/1/4 1320/1/4
f 1315/2/4 1316/2/4 1321/2/4
f 1314/2/4 1315/2/4 1321/2/4
f 1321/2/4 1316/2/4 1322/2/4
f 1318/2/4 1319/2/4 1324/2/4
f 1324/2/4 1319/2/4 1325/2/4
f 1325/2/4 1319/2/4 1326/2/4
f 1319/1/4 1320/1/4 1327/1/4
f 1326/2/4 1319/2/4 1327/2/4
f 1320/1/4 1314/1/4 1328/1/4
f 1327/1/4 1320/1/4 1328/1/4
f 1314/2/4 1321/2/4 1328/2/4
f 1324/2/4 1325/2/4 1329/2/4
f 1323/2/4 1324/2/4 1329/2/4
f 1329/2/4 1325/2/4 1330/2/4
f 1325/1/4 1326/1/4 1331/1/4
f 1330/2/4 1325/2/4 1331/2/4
f 1326/2/4 1327/2/4 1332/2/4
f 1331/1/4 1326/1/4 1332/1/4
f 1327/2/4 1328/2/4 1332/2/4
f 1332/2/4 1328/2/4 1333/2/4
f 1328/2/4 1321/2/4 1334/2/4
f 1333/2/4 1328/2/4 1334/2/4
f 1321/3/4 1322/3/4 1335/3/4
f 1334/2/4 1321/2/4 1335/2/4
f 1335/3/4 1322/3/4 1336/3/4
f 1330/2/4 1331/2/4 1338/2/4
f 1332/2/4 1333/2/4 1338/2/4
f 1331/2/4 1332/2/4 1338/2/4
f 1333/1/4 1334/1/4 1339/1/4
f 1338/2/4 1333/2/4 1339/2/4
f 1339/1/4 1334/1/4 1340/1/4
f 1335/4/4 1336/4/4 1341/4/4
f 1334/2/4 1335/2/4 1341/2/4
f 1341/4/4 1336/4/4 1342/4/4
f 1337/2/4 1338/2/4 1343/2/4
f 1339/2/4 1340/2/4 1343/2/4
f 1338/2/4 1339/2/4 1343/2/4
f 1343/2/4 1340/2/4 1344/2/4
f 1344/2/4 1340/2/4 1345/2/4
f 1340/1/4 1334/1/4 1346/1/4
f 1345/2/4 1340/2/4 1346/2/4
f 1346/1/4 1334/1/4 1347/1/4
f 1334/2/4 1341/2/4 1348/2/4
f 1347/1/4 1334/1/4 1348/1/4
f 1348/2/4 1341/2/4 1349/2/4
f 1341/3/4 1342/3/4 1350/3/4
f 1349/2/4 1341/2/4 1350/2/4
f 1350/3/4 1342/3/4 1351/3/4
f 1344/2/4 1345/2/4 1352/2/4
f 1352/2/4 1345/2/4 1353/2/4
f 1346/1/4 1347/1/4 1354/1/4
f 1353/2/4 1345/2/4 1354/2/4
f 1345/1/4 1346/1/4 1354/1/4
f 1348/2/4 1349/2/4 1355/2/4
f 1354/1/4 1347/1/4 1355/1/4
f 1347/2/4 1348/2/4 1355/2/4
f 1355/2/4 1349/2/4 1356/2/4
f 1349/3/4 1350/3/4 1357/3/4
f 1356/2/4 1349/2/4 1357/2/4
f 1357/3/4 1350/3/4 1358/3/4
f 1353/2/4 1354/2/4 1359/2/4
f 1355/2/4 1356/2/4 1359/2/4
f 1354/2/4 1355/2/4 1359/2/4
f 1356/3/4 1357/3/4 1360/3/4
f 1359/2/4 1356/2/4 1360/2/4
f 1360/3/4 1357/3/4 1361/3/4
f 1365/1/5 1363/1/5 1362/1/5
f 1366/1/5 1363/1/5 1365/1/5
f 1368/1/5 1365/1/5 1364/1/5
f 1368/1/5 1367/1/5 1366/1/5
f 1368/1/5 1366/1/5 1365/1/5
f 1369/1/5 1367/1/5 1368/1/5
f 1370/1/5 1367/1/5 1369/1/5
f 1371/1/5 1367/1/5 1370/1/5
f 1372/1/5 1370/1/5 1369/1/5
f 1373/1/5 1370/1/5 1372/1/5
f 1384/6/5 1381/6/5 1380/6/5
f 1385/6/5 1381/6/5 1384/6/5
f 1386/2/5 1375/2/5 1374/2/5
f 1387/2/5 1375/2/5 1386/2/5
f 1388/2/5 1377/2/5 1376/2/5
f 1389/2/5 1377/2/5 1388/2/5
f 1390/2/5 1379/2/5 1378/2/5
f 1391/2/5 1379/2/5 1390/2/5
f 1392/6/5 1383/6/5 1382/6/5
f 1393/6/5 1383/6/5 1392/6/5
f 1398/7/5 1395/7/5 1394/7/5
f 1399/7/5 1395/7/5 1398/7/5
f 1400/7/5 1397/7/5 1396/7/5
f 1401/7/5 1397/7/5 1400/7/5
f 1412/6/5 1403/6/5 1402/6/5
f 1413/6/5 1403/6/5 1412/6/5
f 1414/6/5 1411/6/5 1410/6/5
f 1415/6/5 1411/6/5 1414/6/5
f 1416/2/5 1405/2/5 1404/2/5
f 1417/2/5 1405/2/5 1416/2/5
f 1418/2/5 1407/2/5 1406/2/5
f 1419/2/5 1407/2/5 1418/2/5
f 1420/2/5 1409/2/5 1408/2/5
f 1421/2/5 1409/2/5 1420/2/5
f 1438/6/5 1431/6/5 1430/6/5
f 1439/6/5 1431/6/5 1438/6/5
f 1440/6/5 1433/6/5 1432/6/5
f 1441/6/5 1433/6/5 1440/6/5
f 1442/2/5 1423/2/5 1422/2/5
f 1443/2/5 1423/2/5 1442/2/5
f 1444/2/5 1425/2/5 1424/2/5
f 1445/2/5 1425/2/5 1444/2/5
f 1446/2/5 1427/2/5 1426/2/5
f 1447/2/5 1427/2/5 1446/2/5
f 1448/2/5 1429/2/5 1428/2/5
f 1449/2/5 1429/2/5 1448/2/5
f 1450/6/5 1435/6/5 1434/6/5
f 1451/6/5 1435/6/5 1450/6/5
f 1452/6/5 1437/6/5 1436/6/5
f 1453/6/5 1437/6/5 1452/6/5
f 1458/5/5 1455/5/5 1454/5/5
f 1459/5/5 1455/5/5 1458/5/5
f 1460/5/5 1457/5/5 1456/5/5
f 1461/5/5 1457/5/5 1460/5/5
f 1466/7/5 1463/7/5 1462/7/5
f 1467/7/5 1463/7/5 1466/7/5
f 1468/7/5 1465/7/5 1464/7/5
f 1469/7/5 1465/7/5 1468/7/5
f 1474/7/5 1471/7/5 1470/7/5
f 1475/7/5 1471/7/5 1474/7/5
f 1476/7/5 1473/7/5 1472/7/5
f 1477/7/5 1473/7/5 1476/7/5
f 1482/5/5 1479/5/5 1478/5/5
f 1483/5/5 1479/5/5 1482/5/5
f 1484/5/5 1481/5/5 1480/5/5
f 1485/5/5 1481/5/5 1484/5/5
f 1502/6/5 1487/6/5 1486/6/5
f 1503/6/5 1487/6/5 1502/6/5
f 1504/6/5 1489/6/5 1488/6/5
f 1505/6/5 1489/6/5 1504/6/5
f 1506/6/5 1499/6/5 1498/6/5
f 1507/6/5 1499/6/5 1506/6/5
f 1508/6/5 1501/6/5 1500/6/5
f 1509/6/5 1501/6/5 1508/6/5
f 1510/2/5 1491/2/5 1490/2/5
f 1511/2/5 1491/2/5 1510/2/5
f 1512/2/5 1493/2/5 1492/2/5
f 1513/2/5 1493/2/5 1512/2/5
f 1514/2/5 1495/2/5 1494/2/5
f 1515/2/5 1495/2/5 1514/2/5
f 1516/2/5 1497/2/5 1496/2/5
f 1517/2/5 1497/2/5 1516/2/5
f 1522/2/5 1519/2/5 1518/2/5
f 1523/2/5 1519/2/5 1522/2/5
f 1524/2/5 1521/2/5 1520/2/5
f 1525/2/5 1521/2/5 1524/2/5
f 1530/2/5 1527/2/5 1526/2/5
f 1531/2/5 1527/2/5 1530/2/5
f 1532/2/5 1529/2/5 1528/2/5
f 1533/2/5 1529/2/5 1532/2/5
f 1538/1/5 1535/1/5 1534/1/5
f 1539/1/5 1535/1/5 1538/1/5
f 1540/1/5 1537/1/5 1536/1/5
f 1541/1/5 1537/1/5 1540/1/5
f 1543/1/5 1538/1/5 1534/1/5
f 1544/1/5 1537/1/5 1541/1/5
f 1546/1/5 1543/1/5 1542/1/5
f 1547/1/5 1538/1/5 1543/1/5
f 1547/1/5 1543/1/5 1546/1/5
f 1548/1/5 1545/1/5 1544/1/5
f 1548/1/5 1544/1/5 1541/1/5
f 1549/1/5 1545/1/5 1548/1/5
f 1550/1/5 1546/1/5 1542/1/5
f 1553/1/5 1545/1/5 1549/1/5
f 1554/1/5 1551/1/5 1550/1/5
f 1554/1/5 1550/1/5 1542/1/5
f 1555/1/5 1551/1/5 1554/1/5
f 1556/1/5 1553/1/5 1552/1/5
f 1557/1/5 1545/1/5 1553/1/5
f 1557/1/5 1553/1/5 1556/1/5
f 1558/1/5 1551/1/5 1555/1/5
f 1561/1/5 1556/1/5 1552/1/5
f 1562/1/5 1559/1/5 1558/1/5
f 1562/1/5 1558/1/5 1555/1/5
f 1563/1/5 1559/1/5 1562/1/5
f 1564/1/5 1561/1/5 1560/1/5
f 1565/1/5 1556/1/5 1561/1/5
f 1565/1/5 1561/1/5 1564/1/5
f 1566/2/6 1567/2/6 1573/2/6
f 1567/3/6 1568/3/6 1574/3/6
f 1573/2/6 1567/2/6 1574/2/6
f 1568/2/6 1569/2/6 1575/2/6
f 1574/3/6 1568/3/6 1575/3/6
f 1569/1/6 1570/1/6 1576/1/6
f 1575/2/6 1569/2/6 1576/2/6
f 1570/2/6 1571/2/6 1577/2/6
f 1576/1/6 1570/1/6 1577/1/6
f 1571/3/6 1572/3/6 1578/3/6
f 1577/2/6 1571/2/6 1578/2/6
f 1566/2/6 1573/2/6 1580/2/6
f 1578/3/6 1572/3/6 1581/3/6
f 1581/3/6 1572/3/6 1582/3/6
f 1579/1/6 1580/1/6 1585/1/6
f 1580/2/6 1573/2/6 1586/2/6
f 1585/1/6 1580/1/6 1586/1/6
f 1586/2/6 1573/2/6 1587/2/6
f 1581/2/6 1582/2/6 1588/2/6
f 1582/2/6 1583/2/6 1588/2/6
f 1583/3/6 1584/3/6 1589/3/6
f 1588/2/6 1583/2/6 1589/2/6
f 1579/1/6 1585/1/6 1590/1/6
f 1590/1/6 1585/1/6 1591/1/6
f 1589/3/6 1584/3/6 1592/3/6
f 1592/3/6 1584/3/6 1593/3/6
f 1590/2/6 1591/2/6 1594/2/6
f 1594/2/6 1591/2/6 1595/2/6
f 1594/3/6 1595/3/6 1596/3/6
f 1596/3/6 1595/3/6 1597/3/6
f 1592/2/6 1593/2/6 1598/2/6
f 1598/2/6 1593/2/6 1599/2/6
f 1598/3/6 1599/3/6 1600/3/6
f 1600/3/6 1599/3/6 1601/3/6
f 1596/2/6 1597/2/6 1602/2/6
f 1602/2/6 1597/2/6 1603/2/6
f 1602/1/6 1603/1/6 1604/1/6
f 1604/1/6 1603/1/6 1605/1/6
f 1600/2/6 1601/2/6 1606/2/6
f 1606/2/6 1601/2/6 1607/2/6
f 1604/2/6 1605/2/6 1608/2/6
f 1608/2/6 1605/2/6 1609/2/6
f 1608/3/6 1609/3/6 1610/3/6
f 1610/3/6 1609/3/6 1611/3/6
f 1606/1/6 1607/1/6 1612/1/6
f 1612/1/6 1607/1/6 1613/1/6
f 1610/2/6 1611/2/6 1614/2/6
f 1614/2/6 1611/2/6 1615/2/6
f 1614/3/6 1615/3/6 1616/3/6
f 1612/2/6 1613/2/6 1620/2/6
f 1620/2/6 1613/2/6 1621/2/6
f 1614/3/6 1616/3/6 1622/3/6
f 1616/3/6 1617/3/6 1622/3/6
f 1617/2/6 1618/2/6 1623/2/6
f 1622/3/6 1617/3/6 1623/3/6
f 1619/2/6 1620/2/6 1624/2/6
f 1620/3/6 1621/3/6 1625/3/6
f 1624/2/6 1620/2/6 1625/2/6
f 1625/3/6 1621/3/6 1626/3/6
f 1623/2/6 1618/2/6 1627/2/6
f 1619/2/6 1624/2/6 1631/2/6
f 1623/2/6 1627/2/6 1632/2/6
f 1627/2/6 1628/2/6 1632/2/6
f 1628/1/6 1629/1/6 1633/1/6
f 1632/2/6 1628/2/6 1633/2/6
f 1629/2/6 1630/2/6 1634/2/6
f 1633/1/6 1629/1/6 1634/1/6
f 1630/3/6 1631/3/6 1635/3/6
f 1634/2/6 1630/2/6 1635/2/6
f 1631/2/6 1624/2/6 1636/2/6
f 1635/3/6 1631/3/6 1636/3/6
f 1636/2/6 1624/2/6 1637/2/6
f 1638/6/6 1639/6/6 1646/6/6
f 1646/6/6 1639/6/6 1647/6/6
f 1640/6/6 1641/6/6 1648/6/6
f 1648/6/6 1641/6/6 1649/6/6
f 1642/6/6 1643/6/6 1650/6/6
f 1650/6/6 1643/6/6 1651/6/6
f 1644/6/6 1645/6/6 1652/6/6
f 1652/6/6 1645/6/6 1653/6/6
f 1654/5/6 1655/5/6 1658/5/6
f 1658/5/6 1655/5/6 1659/5/6
f 1656/5/6 1657/5/6 1660/5/6
f 1660/5/6 1657/5/6 1661/5/6
f 1662/7/6 1663/7/6 1666/7/6
f 1666/7/6 1663/7/6 1667/7/6
f 1664/7/6 1665/7/6 1668/7/6
f 1668/7/6 1665/7/6 1669/7/6
f 1670/7/6 1671/7/6 1674/7/6
f 1674/7/6 1671/7/6 1675/7/6
f 1672/7/6 1673/7/6 1676/7/6
f 1676/7/6 1673/7/6 1677/7/6
f 1678/5/6 1679/5/6 1682/5/6
f 1682/5/6 1679/5/6 1683/5/6
f 1680/5/6 1681/5/6 1684/5/6
f 1684/5/6 1681/5/6 1685/5/6
f 1686/6/6 1687/6/6 1694/6/6
f 1694/6/6 1687/6/6 1695/6/6
f 1688/6/6 1689/6/6 1696/6/6
f 1696/6/6 1689/6/6 1697/6/6
f 1690/6/6 1691/6/6 1698/6/6
f 1698/6/6 1691/6/6 1699/6/6
f 1692/6/6 1693/6/6 1700/6/6
f 1700/6/6 1693/6/6 1701/6/6
f 1702/6/6 1703/6/6 1706/6/6
f 1706/6/6 1703/6/6 1707/6/6
f 1704/6/6 1705/6/6 1708/6/6
f 1708/6/6 1705/6/6 1709/6/6
f 1710/7/6 1711/7/6 1714/7/6
f 1714/7/6 1711/7/6 1715/7/6
f 1712/7/6 1713/7/6 1716/7/6
f 1716/7/6 1713/7/6 1717/7/6
f 1718/6/6 1719/6/6 1722/6/6
f 1722/6/6 1719/6/6 1723/6/6
f 1720/6/6 1721/6/6 1724/6/6
f 1724/6/6 1721/6/6 1725/6/6
f 1726/1/6 1727/1/6 1728/1/6
f 1728/1/6 1727/1/6 1729/1/6
f 1730/3/6 1731/3/6 1739/3/6
f 1739/3/6 1731/3/6 1740/3/6
f 1731/2/6 1732/2/6 1741/2/6
f 1740/3/6 1731/3/6 1741/3/6
f 1732/1/6 1733/1/6 1742/1/6
f 1741/2/6 1732/2/6 1742/2/6
f 1742/1/6 1733/1/6 1743/1/6
f 1734/1/6 1735/1/6 1744/1/6
f 1735/2/6 1736/2/6 1745/2/6
f 1744/1/6 1735/1/6 1745/1/6
f 1736/3/6 1737/3/6 1746/3/6
f 1745/2/6 1736/2/6 1746/2/6
f 1737/2/6 1738/2/6 1747/2/6
f 1746/3/6 1737/3/6 1747/3/6
f 1739/2/6 1740/2/6 1749/2/6
f 1747/2/6 1738/2/6 1750/2/6
f 1748/2/6 1749/2/6 1752/2/6
f 1749/2/6 1740/2/6 1753/2/6
f 1752/2/6 1749/2/6 1753/2/6
f 1747/2/6 1750/2/6 1754/2/6
f 1750/3/6 1751/3/6 1755/3/6
f 1754/2/6 1750/2/6 1755/2/6
f 1755/3/6 1751/3/6 1756/3/6
f 1756/3/6 1751/3/6 1757/3/6
f 1748/2/6 1752/2/6 1758/2/6
f 1758/2/6 1752/2/6 1759/2/6
f 1756/2/6 1757/2/6 1760/2/6
f 1760/2/6 1757/2/6 1761/2/6
f 1758/3/6 1759/3/6 1762/3/6
f 1762/3/6 1759/3/6 1763/3/6
f 1762/2/6 1763/2/6 1764/2/6
f 1764/2/6 1763/2/6 1765/2/6
f 1760/1/6 1761/1/6 1766/1/6
f 1766/1/6 1761/1/6 1767/1/6
f 1766/2/6 1767/2/6 1768/2/6
f 1768/2/6 1767/2/6 1769/2/6
f 1768/3/6 1769/3/6 1770/3/6
f 1770/3/6 1769/3/6 1771/3/6
f 1770/2/6 1771/2/6 1772/2/6
f 1772/2/6 1771/2/6 1773/2/6
f 1764/1/6 1765/1/6 1774/1/6
f 1774/1/6 1765/1/6 1775/1/6
f 1774/2/6 1775/2/6 1776/2/6
f 1776/2/6 1775/2/6 1777/2/6
f 1776/3/6 1777/3/6 1778/3/6
f 1778/3/6 1777/3/6 1779/3/6
f 1772/1/6 1773/1/6 1783/1/6
f 1778/2/6 1779/2/6 1784/2/6
f 1779/2/6 1780/2/6 1784/2/6
f 1784/2/6 1780/2/6 1785/2/6
f 1781/2/6 1782/2/6 1786/2/6
f 1782/1/6 1783/1/6 1786/1/6
f 1783/1/6 1773/1/6 1787/1/6
f 1786/1/6 1783/1/6 1787/1/6
f 1785/2/6 1780/2/6 1788/2/6
f 1781/2/6 1786/2/6 1795/2/6
f 1795/2/6 1786/2/6 1796/2/6
f 1785/2/6 1788/2/6 1797/2/6
f 1788/3/6 1789/3/6 1798/3/6
f 1797/2/6 1788/2/6 1798/2/6
f 1789/2/6 1790/2/6 1799/2/6
f 1798/3/6 1789/3/6 1799/3/6
f 1790/1/6 1791/1/6 1800/1/6
f 1799/2/6 1790/2/6 1800/2/6
f 1800/1/6 1791/1/6 1801/1/6
f 1792/1/6 1793/1/6 1802/1/6
f 1793/2/6 1794/2/6 1803/2/6
f 1802/1/6 1793/1/6 1803/1/6
f 1794/3/6 1795/3/6 1804/3/6
f 1803/2/6 1794/2/6 1804/2/6
f 1795/3/6 1796/3/6 1804/3/6
f 1804/3/6 1796/3/6 1805/3/6
f 1808/3/6 1809/3/6 1810/3/6
f 1810/3/6 1809/3/6 1811/3/6
f 1806/2/6 1807/2/6 1812/2/6
f 1812/2/6 1807/2/6 1813/2/6
f 1810/2/6 1811/2/6 1814/2/6
f 1814/2/6 1811/2/6 1815/2/6
f 1818/2/6 1819/2/6 1820/2/6
f 1820/2/6 1819/2/6 1821/2/6
f 1816/2/6 1817/2/6 1822/2/6
f 1822/2/6 1817/2/6 1823/2/6
f 1820/3/6 1821/3/6 1824/3/6
f 1824/3/6 1821/3/6 1825/3/6
f 1828/3/6 1829/3/6 1830/3/6
f 1830/3/6 1829/3/6 1831/3/6
f 1826/2/6 1827/2/6 1832/2/6
f 1832/2/6 1827/2/6 1833/2/6
f 1830/2/6 1831/2/6 1834/2/6
f 1834/2/6 1831/2/6 1835/2/6
f 1838/2/6 1839/2/6 1840/2/6
f 1840/2/6 1839/2/6 1841/2/6
f 1836/2/6 1837/2/6 1842/2/6
f 1842/2/6 1837/2/6 1843/2/6
f 1840/3/6 1841/3/6 1844/3/6
f 1844/3/6 1841/3/6 1845/3/6
f 1846/2/6 1847/2/6 1851/2/6
f 1847/3/6 1848/3/6 1851/3/6
f 1848/4/6 1849/4/6 1852/4/6
f 1851/3/6 1848/3/6 1852/3/6
f 1849/3/6 1850/3/6 1853/3/6
f 1852/4/6 1849/4/6 1853/4/6
f 1853/3/6 1850/3/6 1854/3/6
f 1851/2/6 1852/2/6 1855/2/6
f 1846/2/6 1851/2/6 1855/2/6
f 1853/2/6 1854/2/6 1855/2/6
f 1852/2/6 1853/2/6 1855/2/6
f 1855/2/6 1854/2/6 1856/2/6
f 1857/2/6 1858/2/6 1859/2/6
f 1859/2/6 1858/2/6 1860/2/6
f 1860/2/6 1858/2/6 1861/2/6
f 1861/2/6 1858/2/6 1862/2/6
f 1857/2/6 1859/2/6 1863/2/6
f 1859/3/6 1860/3/6 1864/3/6
f 1863/2/6 1859/2/6 1864/2/6
f 1860/4/6 1861/4/6 1865/4/6
f 1864/3/6 1860/3/6 1865/3/6
f 1861/3/6 1862/3/6 1866/3/6
f 1865/4/6 1861/4/6 1866/4/6
f 1866/3/6 1862/3/6 1867/3/6
f 1868/1/6 1869/1/6 1877/1/6
f 1877/1/6 1869/1/6 1878/1/6
f 1870/1/6 1871/1/6 1879/1/6
f 1879/1/6 1871/1/6 1880/1/6
f 1872/1/6 1873/1/6 1881/1/6
f 1881/1/6 1873/1/6 1882/1/6
f 1874/1/6 1875/1/6 1883/1/6
f 1883/1/6 1875/1/6 1884/1/6
f 1876/1/6 1877/1/6 1886/1/6
f 1886/1/6 1877/1/6 1887/1/6
f 1884/1/6 1885/1/6 1888/1/6
f 1888/1/6 1885/1/6 1889/1/6
f 1890/1/6 1891/1/6 1894/1/6
f 1894/1/6 1891/1/6 1895/1/6
f 1892/1/6 1893/1/6 1896/1/6
f 1896/1/6 1893/1/6 1897/1/6
f 1898/1/6 1899/1/6 1902/1/6
f 1902/1/6 1899/1/6 1903/1/6
f 1900/1/6 1901/1/6 1910/1/6
f 1910/1/6 1901/1/6 1911/1/6
f 1903/1/6 1904/1/6 1912/1/6
f 1912/1/6 1904/1/6 1913/1/6
f 1905/1/6 1906/1/6 1914/1/6
f 1914/1/6 1906/1/6 1915/1/6
f 1907/1/6 1908/1/6 1916/1/6
f 1916/1/6 1908/1/6 1917/1/6
f 1909/1/6 1910/1/6 1918/1/6
f 1918/1/6 1910/1/6 1919/1/6
f 1920/2/6 1921/2/6 1932/2/6
f 1921/3/6 1922/3/6 1933/3/6
f 1932/2/6 1921/2/6 1933/2/6
f 1922/2/6 1923/2/6 1934/2/6
f 1933/3/6 1922/3/6 1934/3/6
f 1934/2/6 1923/2/6 1935/2/6
f 1924/2/6 1925/2/6 1936/2/6
f 1925/3/6 1926/3/6 1937/3/6
f 1936/2/6 1925/2/6 1937/2/6
f 1926/2/6 1927/2/6 1938/2/6
f 1937/3/6 1926/3/6 1938/3/6
f 1938/2/6 1927/2/6 1939/2/6
f 1928/2/6 1929/2/6 1940/2/6
f 1929/3/6 1930/3/6 1941/3/6
f 1940/2/6 1929/2/6 1941/2/6
f 1930/2/6 1931/2/6 1942/2/6
f 1941/3/6 1930/3/6 1942/3/6
f 1942/2/6 1931/2/6 1943/2/6
f 1932/1/6 1933/1/6 1944/1/6
f 1934/1/6 1935/1/6 1944/1/6
f 1933/1/6 1934/1/6 1944/1/6
f 1944/1/6 1935/1/6 1945/1/6
f 1936/1/6 1937/1/6 1946/1/6
f 1938/1/6 1939/1/6 1946/1/6
f 1937/1/6 1938/1/6 1946/1/6
f 1946/1/6 1939/1/6 1947/1/6
f 1940/1/6 1941/1/6 1948/1/6
f 1942/1/6 1943/1/6 1948/1/6
f 1941/1/6 1942/1/6 1948/1/6
f 1948/1/6 1943/1/6 1949/1/6
f 1950/2/6 1951/2/6 1956/2/6
f 1951/1/6 1952/1/6 1957/1/6
f 1956/2/6 1951/2/6 1957/2/6
f 1954/2/6 1955/2/6 1958/2/6
f 1953/1/6 1954/1/6 1958/1/6
f 1958/2/6 1955/2/6 1959/2/6
f 1956/3/6 1957/3/6 1960/3/6
f 1957/1/6 1952/1/6 1961/1/6
f 1960/3/6 1957/3/6 1961/3/6
f 1953/1/6 1958/1/6 1962/1/6
f 1958/3/6 1959/3/6 1962/3/6
f 1962/3/6 1959/3/6 1963/3/6
f 1960/2/6 1961/2/6 1964/2/6
f 1961/1/6 1952/1/6 1965/1/6
f 1964/2/6 1961/2/6 1965/2/6
f 1965/1/6 1952/1/6 1966/1/6
f 1953/1/6 1962/1/6 1967/1/6
f 1962/2/6 1963/2/6 1968/2/6
f 1967/1/6 1962/1/6 1968/1/6
f 1968/2/6 1963/2/6 1969/2/6
f 1970/2/6 1971/2/6 1976/2/6
f 1971/1/6 1972/1/6 1977/1/6
f 1976/2/6 1971/2/6 1977/2/6
f 1974/2/6 1975/2/6 1978/2/6
f 1973/1/6 1974/1/6 1978/1/6
f 1978/2/6 1975/2/6 1979/2/6
f 1976/3/6 1977/3/6 1980/3/6
f 1977/1/6 1972/1/6 1981/1/6
f 1980/3/6 1977/3/6 1981/3/6
f 1973/1/6 1978/1/6 1982/1/6
f 1978/3/6 1979/3/6 1982/3/6
f 1982/3/6 1979/3/6 1983/3/6
f 1980/2/6 1981/2/6 1984/2/6
f 1981/1/6 1972/1/6 1985/1/6
f 1984/2/6 1981/2/6 1985/2/6
f 1985/1/6 1972/1/6 1986/1/6
f 1973/1/6 1982/1/6 1987/1/6
f 1982/2/6 1983/2/6 1988/2/6
f 1987/1/6 1982/1/6 1988/1/6
f 1988/2/6 1983/2/6 1989/2/6
f 1990/1/6 1991/1/6 1996/1/6
f 1996/1/6 1991/1/6 1997/1/6
f 1997/1/6 1991/1/6 1998/1/6
f 1998/1/6 1991/1/6 1999/1/6
f 1992/1/6 1993/1/6 2000/1/6
f 2000/1/6 1993/1/6 2001/1/6
f 2001/1/6 1993/1/6 2002/1/6
f 2002/1/6 1993/1/6 2003/1/6
f 1994/1/6 1995/1/6 2004/1/6
f 2004/1/6 1995/1/6 2005/1/6
f 2005/1/6 1995/1/6 2006/1/6
f 2006/1/6 1995/1/6 2007/1/6
f 1996/2/6 1997/2/6 2008/2/6
f 1997/3/6 1998/3/6 2009/3/6
f 2008/2/6 1997/2/6 2009/2/6
f 1998/2/6 1999/2/6 2010/2/6
f 2009/3/6 1998/3/6 2010/3/6
f 2010/2/6 1999/2/6 2011/2/6
f 2000/2/6 2001/2/6 2012/2/6
f 2001/3/6 2002/3/6 2013/3/6
f 2012/2/6 2001/2/6 2013/2/6
f 2002/2/6 2003/2/6 2014/2/6
f 2013/3/6 2002/3/6 2014/3/6
f 2014/2/6 2003/2/6 2015/2/6
f 2004/2/6 2005/2/6 2016/2/6
f 2005/3/6 2006/3/6 2017/3/6
f 2016/2/6 2005/2/6 2017/2/6
f 2006/2/6 2007/2/6 2018/2/6
f 2017/3/6 2006/3/6 2018/3/6
f 2018/2/6 2007/2/6 2019/2/6
