# MagicaVoxel @ Ephtracy

# group
o 

# material
mtllib model-1.mtl
usemtl palette

# normals
vn 0 0 1
vn 0 0 -1
vn 1 0 0
vn -1 0 0
vn 0 -1 0
vn 0 1 0

# texcoords
vt 0.0449219 0.5
vt 0.513672 0.5
vt 0.724609 0.5
vt 0.826172 0.5

# verts
v 0.5 1.3 1.1
v 0.4 1.3 1.1
v -0.4 1.3 1.1
v -0.5 1.3 1.1
v 0.5 1.5 1.1
v 0.4 1.5 1.1
v -0.4 1.5 1.1
v -0.5 1.5 1.1
v 0.5 1.6 1.1
v 0.4 1.6 1.1
v -0.4 1.6 1.1
v -0.5 1.6 1.1
v 0.5 1.8 1.1
v 0.4 1.8 1.1
v -0.4 1.8 1.1
v -0.5 1.8 1.1
v 0.5 1.9 1.1
v 0.4 1.9 1.1
v -0.4 1.9 1.1
v -0.5 1.9 1.1
v 0.5 2.1 1.1
v 0.4 2.1 1.1
v 0.2 2.1 1.1
v 0.1 2.1 1.1
v -0.1 2.1 1.1
v -0.2 2.1 1.1
v -0.4 2.1 1.1
v -0.5 2.1 1.1
v 0.4 2.2 1.1
v 0.2 2.2 1.1
v 0.1 2.2 1.1
v -0.1 2.2 1.1
v -0.2 2.2 1.1
v -0.4 2.2 1.1
v 0.5 0.7 1
v -0.5 0.7 1
v 0.5 0.9 1
v -0.5 0.9 1
v 0.6 1.1 1
v 0.5 1.1 1
v 0.6 1.2 1
v 0.5 1.2 1
v 0.5 1.3 1
v 0.4 1.3 1
v -0.4 1.3 1
v -0.5 1.3 1
v 0.6 1.4 1
v 0.5 1.4 1
v 0.6 1.5 1
v 0.5 1.5 1
v 0.4 1.5 1
v -0.4 1.5 1
v -0.5 1.5 1
v 0.5 1.6 1
v 0.4 1.6 1
v -0.4 1.6 1
v -0.5 1.6 1
v 0.5 1.8 1
v 0.4 1.8 1
v -0.4 1.8 1
v -0.5 1.8 1
v 0.5 1.9 1
v 0.4 1.9 1
v -0.4 1.9 1
v -0.5 1.9 1
v 0.5 2.1 1
v 0.4 2.1 1
v 0.2 2.1 1
v 0.1 2.1 1
v -0.1 2.1 1
v -0.2 2.1 1
v -0.4 2.1 1
v -0.5 2.1 1
v 0.5 2.2 1
v 0.4 2.2 1
v 0.2 2.2 1
v 0.1 2.2 1
v -0.1 2.2 1
v -0.2 2.2 1
v -0.4 2.2 1
v -0.5 2.2 1
v 0.6 1 0.9
v 0.5 1 0.9
v 0.6 1.1 0.9
v 0.5 1.1 0.9
v 0.6 1.3 0.9
v 0.5 1.3 0.9
v 0.6 1.4 0.9
v 0.5 1.4 0.9
v 0.7 2 0.6
v 0.5 2 0.6
v -0.5 2.1 0.6
v -0.6 2.1 0.6
v 0.5 2.2 0.6
v -0.5 2.2 0.6
v 0.7 2.3 0.6
v -0.6 2.3 0.6
v 0.7 1.8 0.4
v 0.5 1.8 0.4
v 0.7 2 0.4
v 0.5 2 0.4
v 0.7 1.6 0.2
v 0.5 1.6 0.2
v 0.7 1.8 0.2
v 0.5 1.8 0.2
v 0.6 0.7 0.1
v 0.5 0.7 0.1
v 0.5 0.9 0.1
v 0.6 1 0.1
v 0.5 1 0.1
v 0.6 1.1 0.1
v 0.5 1.1 0.1
v 0.6 1.4 0.1
v 0.5 1.4 0.1
v 0.6 1.5 0.1
v 0.5 1.5 0.1
v 0.6 1.6 0.1
v 0.5 1.6 0.1
v 0.6 1 0
v 0.5 1 0
v 0.6 1.1 0
v 0.5 1.1 0
v 0.6 1.4 0
v 0.5 1.4 0
v 0.6 1.5 0
v 0.5 1.5 0
v 0.7 1.6 -0.1
v 0.6 1.6 -0.1
v 0.5 1.6 -0.1
v 0.5 1.7 -0.1
v 0.4 1.7 -0.1
v -0.4 1.7 -0.1
v 0.7 1.9 -0.1
v -0.4 1.9 -0.1
v 0.7 1.9 -0.3
v -0.4 1.9 -0.3
v 0.7 2.1 -0.3
v -0.4 2.1 -0.3
v 0.7 2.1 -0.5
v 0.5 2.1 -0.5
v -0.5 2.1 -0.5
v 0.5 2.2 -0.5
v -0.5 2.2 -0.5
v 0.7 2.3 -0.5
v -0.5 2.3 -0.5
v 0.7 2.1 0.5
v 0.5 2.1 0.5
v -0.5 2.1 0.5
v 0.5 2.2 0.5
v -0.5 2.2 0.5
v 0.7 2.3 0.5
v -0.5 2.3 0.5
v 0.6 1 0.4
v 0.5 1 0.4
v 0.6 1.1 0.4
v 0.5 1.1 0.4
v 0.6 1.3 0.4
v 0.5 1.3 0.4
v 0.6 1.4 0.4
v 0.5 1.4 0.4
v 0.7 1.9 0.3
v -0.4 1.9 0.3
v 0.7 2.1 0.3
v -0.4 2.1 0.3
v 0.6 1.1 0.2
v 0.5 1.1 0.2
v 0.6 1.2 0.2
v 0.5 1.2 0.2
v 0.6 1.4 0.2
v 0.5 1.4 0.2
v 0.6 1.5 0.2
v 0.5 1.5 0.2
v 0.7 1.6 0.1
v 0.6 1.6 0.1
v 0.5 1.6 0.1
v 0.5 1.7 0.1
v 0.4 1.7 0.1
v -0.4 1.7 0.1
v 0.7 1.9 0.1
v -0.4 1.9 0.1
v 0.6 0.8 0
v 0.5 0.8 0
v 0.6 0.9 0
v 0.5 0.9 0
v 0.6 1.2 0
v 0.5 1.2 0
v 0.6 1.3 0
v 0.5 1.3 0
v 0.6 0.7 -0.1
v 0.5 0.7 -0.1
v 0.6 0.8 -0.1
v 0.5 0.8 -0.1
v 0.6 0.9 -0.1
v 0.5 0.9 -0.1
v 0.6 1.2 -0.1
v 0.5 1.2 -0.1
v 0.6 1.3 -0.1
v 0.5 1.3 -0.1
v 0.6 1.6 -0.1
v 0.5 1.6 -0.1
v 0.7 1.6 -0.2
v 0.5 1.6 -0.2
v 0.7 1.8 -0.2
v 0.5 1.8 -0.2
v 0.7 1.8 -0.4
v 0.5 1.8 -0.4
v 0.7 2 -0.4
v 0.5 2 -0.4
v 0.7 2 -0.6
v 0.5 2 -0.6
v -0.5 2.1 -0.6
v -0.6 2.1 -0.6
v 0.5 2.2 -0.6
v -0.5 2.2 -0.6
v 0.7 2.3 -0.6
v -0.6 2.3 -0.6
v 0.5 0.7 -1
v -0.5 0.7 -1
v 0.5 0.9 -1
v -0.5 0.9 -1
v 0.5 1.3 -1
v 0.4 1.3 -1
v -0.4 1.3 -1
v -0.5 1.3 -1
v 0.5 1.5 -1
v 0.4 1.5 -1
v -0.4 1.5 -1
v -0.5 1.5 -1
v 0.5 1.6 -1
v 0.4 1.6 -1
v -0.4 1.6 -1
v -0.5 1.6 -1
v 0.5 1.8 -1
v 0.4 1.8 -1
v -0.4 1.8 -1
v -0.5 1.8 -1
v 0.5 1.9 -1
v 0.4 1.9 -1
v -0.4 1.9 -1
v -0.5 1.9 -1
v 0.5 2.1 -1
v 0.4 2.1 -1
v 0.2 2.1 -1
v 0.1 2.1 -1
v -0.1 2.1 -1
v -0.2 2.1 -1
v -0.4 2.1 -1
v -0.5 2.1 -1
v 0.5 2.2 -1
v 0.4 2.2 -1
v 0.2 2.2 -1
v 0.1 2.2 -1
v -0.1 2.2 -1
v -0.2 2.2 -1
v -0.4 2.2 -1
v -0.5 2.2 -1
v 0.5 1.3 -1.1
v 0.4 1.3 -1.1
v -0.4 1.3 -1.1
v -0.5 1.3 -1.1
v 0.5 1.5 -1.1
v 0.4 1.5 -1.1
v -0.4 1.5 -1.1
v -0.5 1.5 -1.1
v 0.5 1.6 -1.1
v 0.4 1.6 -1.1
v -0.4 1.6 -1.1
v -0.5 1.6 -1.1
v 0.5 1.8 -1.1
v 0.4 1.8 -1.1
v -0.4 1.8 -1.1
v -0.5 1.8 -1.1
v 0.5 1.9 -1.1
v 0.4 1.9 -1.1
v -0.4 1.9 -1.1
v -0.5 1.9 -1.1
v 0.5 2.1 -1.1
v 0.4 2.1 -1.1
v 0.2 2.1 -1.1
v 0.1 2.1 -1.1
v -0.1 2.1 -1.1
v -0.2 2.1 -1.1
v -0.4 2.1 -1.1
v -0.5 2.1 -1.1
v 0.4 2.2 -1.1
v 0.2 2.2 -1.1
v 0.1 2.2 -1.1
v -0.1 2.2 -1.1
v -0.2 2.2 -1.1
v -0.4 2.2 -1.1
v 0.7 2 0.6
v 0.7 2.3 0.6
v 0.7 2.1 0.5
v 0.7 2.3 0.5
v 0.7 1.8 0.4
v 0.7 2 0.4
v 0.7 1.9 0.3
v 0.7 2.1 0.3
v 0.7 1.6 0.2
v 0.7 1.8 0.2
v 0.7 1.6 0.1
v 0.7 1.9 0.1
v 0.7 1.6 -0.1
v 0.7 1.9 -0.1
v 0.7 1.6 -0.2
v 0.7 1.8 -0.2
v 0.7 1.9 -0.3
v 0.7 2.1 -0.3
v 0.7 1.8 -0.4
v 0.7 2 -0.4
v 0.7 2.1 -0.5
v 0.7 2.3 -0.5
v 0.7 2 -0.6
v 0.7 2.3 -0.6
v 0.6 1.1 1
v 0.6 1.2 1
v 0.6 1.4 1
v 0.6 1.5 1
v 0.6 1 0.9
v 0.6 1.1 0.9
v 0.6 1.2 0.9
v 0.6 1.3 0.9
v 0.6 1.4 0.9
v 0.6 1.5 0.9
v 0.6 1 0.8
v 0.6 1.1 0.8
v 0.6 1.3 0.8
v 0.6 1.4 0.8
v 0.6 1.1 0.6
v 0.6 1.2 0.6
v 0.6 1.4 0.6
v 0.6 1.5 0.6
v 0.6 1 0.5
v 0.6 1.1 0.5
v 0.6 1.3 0.5
v 0.6 1.4 0.5
v 0.6 1 0.4
v 0.6 1.1 0.4
v 0.6 1.2 0.4
v 0.6 1.3 0.4
v 0.6 1.4 0.4
v 0.6 1.5 0.4
v 0.6 1.1 0.2
v 0.6 1.2 0.2
v 0.6 1.4 0.2
v 0.6 1.5 0.2
v 0.6 0.7 0.1
v 0.6 1 0.1
v 0.6 1.1 0.1
v 0.6 1.4 0.1
v 0.6 1.5 0.1
v 0.6 1.6 0.1
v 0.6 0.8 0
v 0.6 0.9 0
v 0.6 1 0
v 0.6 1.1 0
v 0.6 1.2 0
v 0.6 1.3 0
v 0.6 1.4 0
v 0.6 1.5 0
v 0.6 0.7 -0.1
v 0.6 0.8 -0.1
v 0.6 0.9 -0.1
v 0.6 1.2 -0.1
v 0.6 1.3 -0.1
v 0.6 1.6 -0.1
v 0.5 1.3 1.1
v 0.5 1.5 1.1
v 0.5 1.6 1.1
v 0.5 1.8 1.1
v 0.5 1.9 1.1
v 0.5 2.1 1.1
v 0.5 0.7 1
v 0.5 0.9 1
v 0.5 1.1 1
v 0.5 1.2 1
v 0.5 1.3 1
v 0.5 1.4 1
v 0.5 1.5 1
v 0.5 1.6 1
v 0.5 1.8 1
v 0.5 1.9 1
v 0.5 2.1 1
v 0.5 2.2 1
v 0.5 1 0.9
v 0.5 1.1 0.9
v 0.5 1.2 0.9
v 0.5 1.3 0.9
v 0.5 1.4 0.9
v 0.5 1.5 0.9
v 0.5 1 0.8
v 0.5 1.3 0.8
v 0.5 0.9 0.7
v 0.5 1 0.7
v 0.5 1.2 0.7
v 0.5 1.3 0.7
v 0.5 1.5 0.7
v 0.5 2.2 0.7
v 0.5 1.2 0.6
v 0.5 1.5 0.6
v 0.5 2 0.6
v 0.5 2.2 0.6
v 0.5 0.9 0.5
v 0.5 1 0.5
v 0.5 1.2 0.5
v 0.5 1.3 0.5
v 0.5 1.5 0.5
v 0.5 2 0.5
v 0.5 1 0.4
v 0.5 1.1 0.4
v 0.5 1.2 0.4
v 0.5 1.3 0.4
v 0.5 1.4 0.4
v 0.5 1.5 0.4
v 0.5 1.8 0.4
v 0.5 2 0.4
v 0.5 1.1 0.2
v 0.5 1.2 0.2
v 0.5 1.4 0.2
v 0.5 1.5 0.2
v 0.5 1.6 0.2
v 0.5 1.8 0.2
v 0.5 0.7 0.1
v 0.5 0.9 0.1
v 0.5 1 0.1
v 0.5 1.1 0.1
v 0.5 1.4 0.1
v 0.5 1.5 0.1
v 0.5 1.6 0.1
v 0.5 1.7 0.1
v 0.5 0.8 0
v 0.5 0.9 0
v 0.5 1 0
v 0.5 1.1 0
v 0.5 1.2 0
v 0.5 1.3 0
v 0.5 1.4 0
v 0.5 1.5 0
v 0.5 0.7 -0.1
v 0.5 0.8 -0.1
v 0.5 0.9 -0.1
v 0.5 1.2 -0.1
v 0.5 1.3 -0.1
v 0.5 1.6 -0.1
v 0.5 1.7 -0.1
v 0.5 1.6 -0.2
v 0.5 1.8 -0.2
v 0.5 1.8 -0.4
v 0.5 2 -0.4
v 0.5 0.9 -0.5
v 0.5 2 -0.5
v 0.5 2 -0.6
v 0.5 2.2 -0.6
v 0.5 0.9 -0.7
v 0.5 2.2 -0.7
v 0.5 0.7 -1
v 0.5 0.9 -1
v 0.5 1.3 -1
v 0.5 1.5 -1
v 0.5 1.6 -1
v 0.5 1.8 -1
v 0.5 1.9 -1
v 0.5 2.1 -1
v 0.5 2.2 -1
v 0.5 1.3 -1.1
v 0.5 1.5 -1.1
v 0.5 1.6 -1.1
v 0.5 1.8 -1.1
v 0.5 1.9 -1.1
v 0.5 2.1 -1.1
v 0.4 2.1 1.1
v 0.4 2.2 1.1
v 0.4 2.1 1
v 0.4 2.2 1
v 0.4 2.1 -1
v 0.4 2.2 -1
v 0.4 2.1 -1.1
v 0.4 2.2 -1.1
v 0.1 2.1 1.1
v 0.1 2.2 1.1
v 0.1 2.1 1
v 0.1 2.2 1
v 0.1 2.1 -1
v 0.1 2.2 -1
v 0.1 2.1 -1.1
v 0.1 2.2 -1.1
v -0.2 2.1 1.1
v -0.2 2.2 1.1
v -0.2 2.1 1
v -0.2 2.2 1
v -0.2 2.1 -1
v -0.2 2.2 -1
v -0.2 2.1 -1.1
v -0.2 2.2 -1.1
v -0.4 1.3 1.1
v -0.4 1.5 1.1
v -0.4 1.6 1.1
v -0.4 1.8 1.1
v -0.4 1.9 1.1
v -0.4 2.1 1.1
v -0.4 1.3 1
v -0.4 1.5 1
v -0.4 1.6 1
v -0.4 1.8 1
v -0.4 1.9 1
v -0.4 2.1 1
v -0.4 1.9 0.3
v -0.4 2.1 0.3
v -0.4 1.7 0.1
v -0.4 1.9 0.1
v -0.4 1.7 -0.1
v -0.4 1.9 -0.1
v -0.4 1.9 -0.3
v -0.4 2.1 -0.3
v -0.4 1.3 -1
v -0.4 1.5 -1
v -0.4 1.6 -1
v -0.4 1.8 -1
v -0.4 1.9 -1
v -0.4 2.1 -1
v -0.4 1.3 -1.1
v -0.4 1.5 -1.1
v -0.4 1.6 -1.1
v -0.4 1.8 -1.1
v -0.4 1.9 -1.1
v -0.4 2.1 -1.1
v -0.5 2.1 0.5
v -0.5 2.2 0.5
v -0.5 2.3 0.5
v -0.5 2.1 -0.5
v -0.5 2.2 -0.5
v -0.5 2.3 -0.5
v 0.4 1.3 1.1
v 0.4 1.5 1.1
v 0.4 1.6 1.1
v 0.4 1.8 1.1
v 0.4 1.9 1.1
v 0.4 2.1 1.1
v 0.4 1.3 1
v 0.4 1.5 1
v 0.4 1.6 1
v 0.4 1.8 1
v 0.4 1.9 1
v 0.4 2.1 1
v 0.4 1.3 -1
v 0.4 1.5 -1
v 0.4 1.6 -1
v 0.4 1.8 -1
v 0.4 1.9 -1
v 0.4 2.1 -1
v 0.4 1.3 -1.1
v 0.4 1.5 -1.1
v 0.4 1.6 -1.1
v 0.4 1.8 -1.1
v 0.4 1.9 -1.1
v 0.4 2.1 -1.1
v 0.2 2.1 1.1
v 0.2 2.2 1.1
v 0.2 2.1 1
v 0.2 2.2 1
v 0.2 2.1 -1
v 0.2 2.2 -1
v 0.2 2.1 -1.1
v 0.2 2.2 -1.1
v -0.1 2.1 1.1
v -0.1 2.2 1.1
v -0.1 2.1 1
v -0.1 2.2 1
v -0.1 2.1 -1
v -0.1 2.2 -1
v -0.1 2.1 -1.1
v -0.1 2.2 -1.1
v -0.4 2.1 1.1
v -0.4 2.2 1.1
v -0.4 2.1 1
v -0.4 2.2 1
v -0.4 2.1 -1
v -0.4 2.2 -1
v -0.4 2.1 -1.1
v -0.4 2.2 -1.1
v -0.5 1.3 1.1
v -0.5 1.5 1.1
v -0.5 1.6 1.1
v -0.5 1.8 1.1
v -0.5 1.9 1.1
v -0.5 2.1 1.1
v -0.5 0.7 1
v -0.5 0.9 1
v -0.5 1.3 1
v -0.5 1.5 1
v -0.5 1.6 1
v -0.5 1.8 1
v -0.5 1.9 1
v -0.5 2.1 1
v -0.5 2.2 1
v -0.5 0.9 0.7
v -0.5 2.2 0.7
v -0.5 2.1 0.6
v -0.5 2.2 0.6
v -0.5 0.9 0.5
v -0.5 2.1 0.5
v -0.5 0.9 -0.5
v -0.5 2.1 -0.5
v -0.5 2.1 -0.6
v -0.5 2.2 -0.6
v -0.5 0.9 -0.7
v -0.5 2.2 -0.7
v -0.5 0.7 -1
v -0.5 0.9 -1
v -0.5 1.3 -1
v -0.5 1.5 -1
v -0.5 1.6 -1
v -0.5 1.8 -1
v -0.5 1.9 -1
v -0.5 2.1 -1
v -0.5 2.2 -1
v -0.5 1.3 -1.1
v -0.5 1.5 -1.1
v -0.5 1.6 -1.1
v -0.5 1.8 -1.1
v -0.5 1.9 -1.1
v -0.5 2.1 -1.1
v -0.6 2.1 0.6
v -0.6 2.3 0.6
v -0.6 2.1 -0.6
v -0.6 2.3 -0.6
v 0.6 0.7 0.1
v 0.6 0.7 -0.1
v 0.5 0.7 1
v 0.5 0.7 0.1
v 0.5 0.7 -0.1
v 0.5 0.7 -1
v -0.5 0.7 1
v -0.5 0.7 -1
v 0.6 0.9 0
v 0.6 0.9 -0.1
v 0.5 0.9 0
v 0.5 0.9 -0.1
v 0.6 1 0.9
v 0.6 1 0.8
v 0.6 1 0.5
v 0.6 1 0.4
v 0.5 1 0.9
v 0.5 1 0.8
v 0.5 1 0.7
v 0.5 1 0.5
v 0.5 1 0.4
v 0.6 1.1 1
v 0.6 1.1 0.9
v 0.6 1.1 0.4
v 0.6 1.1 0.2
v 0.6 1.1 0.1
v 0.6 1.1 0
v 0.5 1.1 1
v 0.5 1.1 0.9
v 0.5 1.1 0.4
v 0.5 1.1 0.2
v 0.5 1.1 0.1
v 0.5 1.1 0
v 0.6 1.3 0.9
v 0.6 1.3 0.8
v 0.6 1.3 0.5
v 0.6 1.3 0.4
v 0.6 1.3 0
v 0.6 1.3 -0.1
v 0.5 1.3 1.1
v 0.5 1.3 1
v 0.5 1.3 0.9
v 0.5 1.3 0.8
v 0.5 1.3 0.7
v 0.5 1.3 0.5
v 0.5 1.3 0.4
v 0.5 1.3 0
v 0.5 1.3 -0.1
v 0.5 1.3 -1
v 0.5 1.3 -1.1
v 0.4 1.3 1.1
v 0.4 1.3 1
v 0.4 1.3 -1
v 0.4 1.3 -1.1
v -0.4 1.3 1.1
v -0.4 1.3 1
v -0.4 1.3 -1
v -0.4 1.3 -1.1
v -0.5 1.3 1.1
v -0.5 1.3 1
v -0.5 1.3 -1
v -0.5 1.3 -1.1
v 0.6 1.4 1
v 0.6 1.4 0.9
v 0.6 1.4 0.4
v 0.6 1.4 0.2
v 0.5 1.4 1
v 0.5 1.4 0.9
v 0.5 1.4 0.4
v 0.5 1.4 0.2
v 0.6 1.5 0.1
v 0.6 1.5 0
v 0.5 1.5 0.1
v 0.5 1.5 0
v 0.7 1.6 0.2
v 0.7 1.6 0.1
v 0.7 1.6 -0.1
v 0.7 1.6 -0.2
v 0.6 1.6 0.1
v 0.6 1.6 -0.1
v 0.5 1.6 1.1
v 0.5 1.6 1
v 0.5 1.6 0.2
v 0.5 1.6 0.1
v 0.5 1.6 -0.1
v 0.5 1.6 -0.2
v 0.5 1.6 -1
v 0.5 1.6 -1.1
v 0.4 1.6 1.1
v 0.4 1.6 1
v 0.4 1.6 -1
v 0.4 1.6 -1.1
v -0.4 1.6 1.1
v -0.4 1.6 1
v -0.4 1.6 -1
v -0.4 1.6 -1.1
v -0.5 1.6 1.1
v -0.5 1.6 1
v -0.5 1.6 -1
v -0.5 1.6 -1.1
v 0.7 1.8 0.4
v 0.7 1.8 0.2
v 0.7 1.8 -0.2
v 0.7 1.8 -0.4
v 0.5 1.8 0.4
v 0.5 1.8 0.2
v 0.5 1.8 -0.2
v 0.5 1.8 -0.4
v 0.5 1.9 1.1
v 0.5 1.9 1
v 0.5 1.9 -1
v 0.5 1.9 -1.1
v 0.4 1.9 1.1
v 0.4 1.9 1
v 0.4 1.9 -1
v 0.4 1.9 -1.1
v -0.4 1.9 1.1
v -0.4 1.9 1
v -0.4 1.9 -1
v -0.4 1.9 -1.1
v -0.5 1.9 1.1
v -0.5 1.9 1
v -0.5 1.9 -1
v -0.5 1.9 -1.1
v 0.7 2 0.6
v 0.7 2 0.4
v 0.7 2 -0.4
v 0.7 2 -0.6
v 0.5 2 0.6
v 0.5 2 0.5
v 0.5 2 0.4
v 0.5 2 -0.4
v 0.5 2 -0.5
v 0.5 2 -0.6
v 0.4 2.1 1.1
v 0.4 2.1 1
v 0.4 2.1 -1
v 0.4 2.1 -1.1
v 0.2 2.1 1.1
v 0.2 2.1 1
v 0.2 2.1 -1
v 0.2 2.1 -1.1
v 0.1 2.1 1.1
v 0.1 2.1 1
v 0.1 2.1 -1
v 0.1 2.1 -1.1
v -0.1 2.1 1.1
v -0.1 2.1 1
v -0.1 2.1 -1
v -0.1 2.1 -1.1
v -0.2 2.1 1.1
v -0.2 2.1 1
v -0.2 2.1 -1
v -0.2 2.1 -1.1
v -0.4 2.1 1.1
v -0.4 2.1 1
v -0.4 2.1 -1
v -0.4 2.1 -1.1
v -0.5 2.1 0.6
v -0.5 2.1 0.5
v -0.5 2.1 -0.5
v -0.5 2.1 -0.6
v -0.6 2.1 0.6
v -0.6 2.1 -0.6
v 0.6 0.8 0
v 0.6 0.8 -0.1
v 0.5 0.8 0
v 0.5 0.8 -0.1
v 0.6 1 0.1
v 0.6 1 0
v 0.5 1 0.1
v 0.5 1 0
v 0.6 1.2 1
v 0.6 1.2 0.9
v 0.6 1.2 0.6
v 0.6 1.2 0.4
v 0.6 1.2 0.2
v 0.6 1.2 0
v 0.6 1.2 -0.1
v 0.5 1.2 1
v 0.5 1.2 0.9
v 0.5 1.2 0.7
v 0.5 1.2 0.6
v 0.5 1.2 0.5
v 0.5 1.2 0.4
v 0.5 1.2 0.2
v 0.5 1.2 0
v 0.5 1.2 -0.1
v 0.6 1.4 0.1
v 0.6 1.4 0
v 0.5 1.4 0.1
v 0.5 1.4 0
v 0.6 1.5 1
v 0.6 1.5 0.9
v 0.6 1.5 0.6
v 0.6 1.5 0.4
v 0.6 1.5 0.2
v 0.5 1.5 1.1
v 0.5 1.5 1
v 0.5 1.5 0.9
v 0.5 1.5 0.7
v 0.5 1.5 0.6
v 0.5 1.5 0.5
v 0.5 1.5 0.4
v 0.5 1.5 0.2
v 0.5 1.5 -1
v 0.5 1.5 -1.1
v 0.4 1.5 1.1
v 0.4 1.5 1
v 0.4 1.5 -1
v 0.4 1.5 -1.1
v -0.4 1.5 1.1
v -0.4 1.5 1
v -0.4 1.5 -1
v -0.4 1.5 -1.1
v -0.5 1.5 1.1
v -0.5 1.5 1
v -0.5 1.5 -1
v -0.5 1.5 -1.1
v 0.6 1.6 0.1
v 0.6 1.6 -0.1
v 0.5 1.6 0.1
v 0.5 1.6 -0.1
v 0.5 1.7 0.1
v 0.5 1.7 -0.1
v 0.4 1.7 0.1
v 0.4 1.7 -0.1
v -0.4 1.7 0.1
v -0.4 1.7 -0.1
v 0.5 1.8 1.1
v 0.5 1.8 1
v 0.5 1.8 -1
v 0.5 1.8 -1.1
v 0.4 1.8 1.1
v 0.4 1.8 1
v 0.4 1.8 -1
v 0.4 1.8 -1.1
v -0.4 1.8 1.1
v -0.4 1.8 1
v -0.4 1.8 -1
v -0.4 1.8 -1.1
v -0.5 1.8 1.1
v -0.5 1.8 1
v -0.5 1.8 -1
v -0.5 1.8 -1.1
v 0.7 1.9 0.3
v 0.7 1.9 0.1
v 0.7 1.9 -0.1
v 0.7 1.9 -0.3
v -0.4 1.9 0.3
v -0.4 1.9 0.1
v -0.4 1.9 -0.1
v -0.4 1.9 -0.3
v 0.7 2.1 0.5
v 0.7 2.1 0.3
v 0.7 2.1 -0.3
v 0.7 2.1 -0.5
v 0.5 2.1 1.1
v 0.5 2.1 1
v 0.5 2.1 0.5
v 0.5 2.1 -0.5
v 0.5 2.1 -1
v 0.5 2.1 -1.1
v 0.4 2.1 1.1
v 0.4 2.1 1
v 0.4 2.1 -1
v 0.4 2.1 -1.1
v -0.4 2.1 1.1
v -0.4 2.1 1
v -0.4 2.1 0.3
v -0.4 2.1 -0.3
v -0.4 2.1 -1
v -0.4 2.1 -1.1
v -0.5 2.1 1.1
v -0.5 2.1 1
v -0.5 2.1 0.5
v -0.5 2.1 -0.5
v -0.5 2.1 -1
v -0.5 2.1 -1.1
v 0.5 2.2 1
v 0.5 2.2 0.7
v 0.5 2.2 0.6
v 0.5 2.2 -0.6
v 0.5 2.2 -0.7
v 0.5 2.2 -1
v 0.4 2.2 1.1
v 0.4 2.2 1
v 0.4 2.2 -1
v 0.4 2.2 -1.1
v 0.2 2.2 1.1
v 0.2 2.2 1
v 0.2 2.2 -1
v 0.2 2.2 -1.1
v 0.1 2.2 1.1
v 0.1 2.2 1
v 0.1 2.2 -1
v 0.1 2.2 -1.1
v -0.1 2.2 1.1
v -0.1 2.2 1
v -0.1 2.2 -1
v -0.1 2.2 -1.1
v -0.2 2.2 1.1
v -0.2 2.2 1
v -0.2 2.2 -1
v -0.2 2.2 -1.1
v -0.4 2.2 1.1
v -0.4 2.2 1
v -0.4 2.2 -1
v -0.4 2.2 -1.1
v -0.5 2.2 1
v -0.5 2.2 0.7
v -0.5 2.2 0.6
v -0.5 2.2 -0.6
v -0.5 2.2 -0.7
v -0.5 2.2 -1
v 0.7 2.3 0.6
v 0.7 2.3 0.5
v 0.7 2.3 -0.5
v 0.7 2.3 -0.6
v -0.5 2.3 0.5
v -0.5 2.3 -0.5
v -0.6 2.3 0.6
v -0.6 2.3 -0.6

# faces
f 5/3/1 2/3/1 1/3/1
f 6/3/1 2/3/1 5/3/1
f 7/3/1 4/3/1 3/3/1
f 8/3/1 4/3/1 7/3/1
f 13/3/1 10/3/1 9/3/1
f 14/3/1 10/3/1 13/3/1
f 15/3/1 12/3/1 11/3/1
f 16/3/1 12/3/1 15/3/1
f 21/3/1 18/3/1 17/3/1
f 22/3/1 18/3/1 21/3/1
f 27/3/1 20/3/1 19/3/1
f 28/3/1 20/3/1 27/3/1
f 29/3/1 23/3/1 22/3/1
f 30/3/1 23/3/1 29/3/1
f 31/3/1 25/3/1 24/3/1
f 32/3/1 25/3/1 31/3/1
f 33/3/1 27/3/1 26/3/1
f 34/3/1 27/3/1 33/3/1
f 37/4/1 36/4/1 35/4/1
f 38/4/1 36/4/1 37/4/1
f 40/3/1 38/3/1 37/3/1
f 41/2/1 40/2/1 39/2/1
f 42/3/1 38/3/1 40/3/1
f 42/2/1 40/2/1 41/2/1
f 43/3/1 38/3/1 42/3/1
f 44/3/1 38/3/1 43/3/1
f 45/3/1 38/3/1 44/3/1
f 46/3/1 38/3/1 45/3/1
f 49/2/1 48/2/1 47/2/1
f 50/2/1 48/2/1 49/2/1
f 51/3/1 45/3/1 44/3/1
f 52/3/1 45/3/1 51/3/1
f 54/3/1 53/3/1 52/3/1
f 54/3/1 52/3/1 51/3/1
f 54/3/1 51/3/1 50/3/1
f 55/3/1 53/3/1 54/3/1
f 56/3/1 53/3/1 55/3/1
f 57/3/1 53/3/1 56/3/1
f 59/3/1 56/3/1 55/3/1
f 60/3/1 56/3/1 59/3/1
f 62/3/1 59/3/1 58/3/1
f 62/3/1 61/3/1 60/3/1
f 62/3/1 60/3/1 59/3/1
f 63/3/1 61/3/1 62/3/1
f 64/3/1 61/3/1 63/3/1
f 65/3/1 61/3/1 64/3/1
f 67/3/1 64/3/1 63/3/1
f 68/3/1 64/3/1 67/3/1
f 69/3/1 64/3/1 68/3/1
f 70/3/1 64/3/1 69/3/1
f 71/3/1 64/3/1 70/3/1
f 72/3/1 64/3/1 71/3/1
f 74/3/1 67/3/1 66/3/1
f 75/3/1 67/3/1 74/3/1
f 76/3/1 69/3/1 68/3/1
f 77/3/1 69/3/1 76/3/1
f 78/3/1 71/3/1 70/3/1
f 79/3/1 71/3/1 78/3/1
f 80/3/1 73/3/1 72/3/1
f 81/3/1 73/3/1 80/3/1
f 84/2/1 83/2/1 82/2/1
f 85/2/1 83/2/1 84/2/1
f 88/2/1 87/2/1 86/2/1
f 89/2/1 87/2/1 88/2/1
f 94/3/1 91/3/1 90/3/1
f 95/3/1 93/3/1 92/3/1
f 96/3/1 94/3/1 90/3/1
f 96/3/1 95/3/1 94/3/1
f 97/3/1 93/3/1 95/3/1
f 97/3/1 95/3/1 96/3/1
f 100/3/1 99/3/1 98/3/1
f 101/3/1 99/3/1 100/3/1
f 104/3/1 103/3/1 102/3/1
f 105/3/1 103/3/1 104/3/1
f 108/3/1 107/3/1 106/3/1
f 109/3/1 108/3/1 106/3/1
f 110/3/1 108/3/1 109/3/1
f 113/3/1 112/3/1 111/3/1
f 114/3/1 112/3/1 113/3/1
f 117/3/1 116/3/1 115/3/1
f 118/3/1 116/3/1 117/3/1
f 121/3/1 120/3/1 119/3/1
f 122/3/1 120/3/1 121/3/1
f 125/3/1 124/3/1 123/3/1
f 126/3/1 124/3/1 125/3/1
f 130/3/1 128/3/1 127/3/1
f 130/3/1 129/3/1 128/3/1
f 133/3/1 130/3/1 127/3/1
f 133/3/1 132/3/1 131/3/1
f 133/3/1 131/3/1 130/3/1
f 134/3/1 132/3/1 133/3/1
f 137/3/1 136/3/1 135/3/1
f 138/3/1 136/3/1 137/3/1
f 142/3/1 140/3/1 139/3/1
f 142/4/1 141/4/1 140/4/1
f 143/4/1 141/4/1 142/4/1
f 144/3/1 142/3/1 139/3/1
f 144/3/1 143/3/1 142/3/1
f 145/3/1 143/3/1 144/3/1
f 146/3/2 147/3/2 149/3/2
f 147/4/2 148/4/2 149/4/2
f 149/4/2 148/4/2 150/4/2
f 146/3/2 149/3/2 151/3/2
f 149/3/2 150/3/2 151/3/2
f 151/3/2 150/3/2 152/3/2
f 153/2/2 154/2/2 155/2/2
f 155/2/2 154/2/2 156/2/2
f 157/2/2 158/2/2 159/2/2
f 159/2/2 158/2/2 160/2/2
f 161/3/2 162/3/2 163/3/2
f 163/3/2 162/3/2 164/3/2
f 165/1/2 166/1/2 167/1/2
f 167/1/2 166/1/2 168/1/2
f 169/1/2 170/1/2 171/1/2
f 171/1/2 170/1/2 172/1/2
f 173/3/2 174/3/2 176/3/2
f 174/3/2 175/3/2 176/3/2
f 173/3/2 176/3/2 179/3/2
f 177/3/2 178/3/2 179/3/2
f 176/3/2 177/3/2 179/3/2
f 179/3/2 178/3/2 180/3/2
f 181/3/2 182/3/2 183/3/2
f 183/3/2 182/3/2 184/3/2
f 185/3/2 186/3/2 187/3/2
f 187/3/2 186/3/2 188/3/2
f 189/3/2 190/3/2 191/3/2
f 191/3/2 190/3/2 192/3/2
f 193/3/2 194/3/2 195/3/2
f 195/3/2 194/3/2 196/3/2
f 197/3/2 198/3/2 199/3/2
f 199/3/2 198/3/2 200/3/2
f 201/3/2 202/3/2 203/3/2
f 203/3/2 202/3/2 204/3/2
f 205/3/2 206/3/2 207/3/2
f 207/3/2 206/3/2 208/3/2
f 209/3/2 210/3/2 213/3/2
f 211/3/2 212/3/2 214/3/2
f 209/3/2 213/3/2 215/3/2
f 213/3/2 214/3/2 215/3/2
f 214/3/2 212/3/2 216/3/2
f 215/3/2 214/3/2 216/3/2
f 217/4/2 218/4/2 219/4/2
f 219/4/2 218/4/2 220/4/2
f 219/3/2 220/3/2 221/3/2
f 221/3/2 220/3/2 222/3/2
f 222/3/2 220/3/2 223/3/2
f 223/3/2 220/3/2 224/3/2
f 222/3/2 223/3/2 226/3/2
f 226/3/2 223/3/2 227/3/2
f 225/3/2 226/3/2 229/3/2
f 227/3/2 228/3/2 229/3/2
f 226/3/2 227/3/2 229/3/2
f 229/3/2 228/3/2 230/3/2
f 230/3/2 228/3/2 231/3/2
f 231/3/2 228/3/2 232/3/2
f 230/3/2 231/3/2 234/3/2
f 234/3/2 231/3/2 235/3/2
f 233/3/2 234/3/2 237/3/2
f 235/3/2 236/3/2 237/3/2
f 234/3/2 235/3/2 237/3/2
f 237/3/2 236/3/2 238/3/2
f 238/3/2 236/3/2 239/3/2
f 239/3/2 236/3/2 240/3/2
f 238/3/2 239/3/2 242/3/2
f 242/3/2 239/3/2 243/3/2
f 243/3/2 239/3/2 244/3/2
f 244/3/2 239/3/2 245/3/2
f 245/3/2 239/3/2 246/3/2
f 246/3/2 239/3/2 247/3/2
f 241/3/2 242/3/2 249/3/2
f 249/3/2 242/3/2 250/3/2
f 243/3/2 244/3/2 251/3/2
f 251/3/2 244/3/2 252/3/2
f 245/3/2 246/3/2 253/3/2
f 253/3/2 246/3/2 254/3/2
f 247/3/2 248/3/2 255/3/2
f 255/3/2 248/3/2 256/3/2
f 257/3/2 258/3/2 261/3/2
f 261/3/2 258/3/2 262/3/2
f 259/3/2 260/3/2 263/3/2
f 263/3/2 260/3/2 264/3/2
f 265/3/2 266/3/2 269/3/2
f 269/3/2 266/3/2 270/3/2
f 267/3/2 268/3/2 271/3/2
f 271/3/2 268/3/2 272/3/2
f 273/3/2 274/3/2 277/3/2
f 277/3/2 274/3/2 278/3/2
f 275/3/2 276/3/2 283/3/2
f 283/3/2 276/3/2 284/3/2
f 278/3/2 279/3/2 285/3/2
f 285/3/2 279/3/2 286/3/2
f 280/3/2 281/3/2 287/3/2
f 287/3/2 281/3/2 288/3/2
f 282/3/2 283/3/2 289/3/2
f 289/3/2 283/3/2 290/3/2
f 293/3/3 292/3/3 291/3/3
f 294/3/3 292/3/3 293/3/3
f 296/3/3 293/3/3 291/3/3
f 297/3/3 296/3/3 295/3/3
f 298/3/3 293/3/3 296/3/3
f 298/3/3 296/3/3 297/3/3
f 300/3/3 297/3/3 295/3/3
f 301/3/3 300/3/3 299/3/3
f 302/3/3 297/3/3 300/3/3
f 302/3/3 300/3/3 301/3/3
f 305/3/3 304/3/3 303/3/3
f 306/3/3 304/3/3 305/3/3
f 307/3/3 304/3/3 306/3/3
f 309/3/3 307/3/3 306/3/3
f 309/3/3 308/3/3 307/3/3
f 310/3/3 308/3/3 309/3/3
f 311/3/3 308/3/3 310/3/3
f 313/3/3 311/3/3 310/3/3
f 313/3/3 312/3/3 311/3/3
f 314/3/3 312/3/3 313/3/3
f 320/2/3 316/2/3 315/2/3
f 321/2/3 316/2/3 320/2/3
f 323/2/3 318/2/3 317/2/3
f 324/2/3 318/2/3 323/2/3
f 325/2/3 320/2/3 319/2/3
f 326/1/3 321/1/3 320/1/3
f 326/2/3 320/2/3 325/2/3
f 327/2/3 323/2/3 322/2/3
f 328/1/3 324/1/3 323/1/3
f 328/2/3 323/2/3 327/2/3
f 329/1/3 321/1/3 326/1/3
f 329/1/3 326/1/3 325/1/3
f 330/1/3 321/1/3 329/1/3
f 331/1/3 324/1/3 328/1/3
f 331/1/3 328/1/3 327/1/3
f 332/1/3 324/1/3 331/1/3
f 333/1/3 329/1/3 325/1/3
f 334/2/3 330/2/3 329/2/3
f 334/1/3 329/1/3 333/1/3
f 335/1/3 331/1/3 327/1/3
f 336/2/3 332/2/3 331/2/3
f 336/1/3 331/1/3 335/1/3
f 337/2/3 334/2/3 333/2/3
f 338/2/3 330/2/3 334/2/3
f 338/2/3 334/2/3 337/2/3
f 339/2/3 330/2/3 338/2/3
f 340/2/3 336/2/3 335/2/3
f 341/2/3 332/2/3 336/2/3
f 341/2/3 336/2/3 340/2/3
f 342/2/3 332/2/3 341/2/3
f 343/1/3 339/1/3 338/1/3
f 344/1/3 339/1/3 343/1/3
f 345/1/3 342/1/3 341/1/3
f 346/1/3 342/1/3 345/1/3
f 353/3/3 348/3/3 347/3/3
f 354/3/3 348/3/3 353/3/3
f 355/3/3 348/3/3 354/3/3
f 356/3/3 350/3/3 349/3/3
f 357/3/3 350/3/3 356/3/3
f 358/3/3 350/3/3 357/3/3
f 359/3/3 350/3/3 358/3/3
f 360/3/3 352/3/3 351/3/3
f 361/3/3 353/3/3 347/3/3
f 362/3/3 353/3/3 361/3/3
f 363/3/3 355/3/3 354/3/3
f 363/3/3 356/3/3 355/3/3
f 363/3/3 357/3/3 356/3/3
f 364/3/3 357/3/3 363/3/3
f 365/3/3 359/3/3 358/3/3
f 365/3/3 360/3/3 359/3/3
f 366/3/3 352/3/3 360/3/3
f 366/3/3 360/3/3 365/3/3
f 377/3/3 368/3/3 367/3/3
f 378/3/3 368/3/3 377/3/3
f 379/3/3 368/3/3 378/3/3
f 380/3/3 370/3/3 369/3/3
f 381/3/3 370/3/3 380/3/3
f 382/3/3 372/3/3 371/3/3
f 383/3/3 372/3/3 382/3/3
f 385/3/3 375/3/3 374/3/3
f 386/3/3 375/3/3 385/3/3
f 387/3/3 377/3/3 376/3/3
f 387/3/3 378/3/3 377/3/3
f 388/3/3 378/3/3 387/3/3
f 389/3/3 378/3/3 388/3/3
f 390/3/3 384/3/3 383/3/3
f 390/3/3 383/3/3 382/3/3
f 390/3/3 381/3/3 380/3/3
f 390/3/3 380/3/3 379/3/3
f 390/3/3 382/3/3 381/3/3
f 391/3/3 385/3/3 374/3/3
f 392/3/3 388/3/3 387/3/3
f 393/3/3 391/3/3 374/3/3
f 393/4/3 374/4/3 373/4/3
f 394/3/3 391/3/3 393/3/3
f 395/3/3 392/3/3 387/3/3
f 396/3/3 392/3/3 395/3/3
f 397/3/3 384/3/3 390/3/3
f 398/3/3 384/3/3 397/3/3
f 399/4/3 396/4/3 395/4/3
f 400/4/3 398/4/3 397/4/3
f 401/4/3 398/4/3 400/4/3
f 402/4/3 398/4/3 401/4/3
f 403/4/3 394/4/3 393/4/3
f 403/4/3 393/4/3 373/4/3
f 404/4/3 394/4/3 403/4/3
f 405/4/3 396/4/3 399/4/3
f 406/4/3 396/4/3 405/4/3
f 407/4/3 401/4/3 400/4/3
f 408/4/3 401/4/3 407/4/3
f 409/3/3 404/3/3 403/3/3
f 411/3/3 406/3/3 405/3/3
f 412/3/3 406/3/3 411/3/3
f 414/3/3 408/3/3 407/3/3
f 415/3/3 408/3/3 414/3/3
f 416/3/3 408/3/3 415/3/3
f 417/3/3 410/3/3 409/3/3
f 418/3/3 413/3/3 412/3/3
f 418/3/3 412/3/3 411/3/3
f 419/3/3 413/3/3 418/3/3
f 420/3/3 415/3/3 414/3/3
f 421/3/3 415/3/3 420/3/3
f 422/3/3 415/3/3 421/3/3
f 423/4/3 403/4/3 373/4/3
f 424/3/3 417/3/3 409/3/3
f 424/4/3 403/4/3 423/4/3
f 424/3/3 409/3/3 403/3/3
f 424/3/3 421/3/3 420/3/3
f 424/3/3 420/3/3 419/3/3
f 424/3/3 419/3/3 418/3/3
f 424/3/3 418/3/3 417/3/3
f 425/3/3 421/3/3 424/3/3
f 426/3/3 421/3/3 425/3/3
f 427/3/3 421/3/3 426/3/3
f 428/3/3 421/3/3 427/3/3
f 429/3/3 421/3/3 428/3/3
f 433/4/3 426/4/3 425/4/3
f 434/4/3 426/4/3 433/4/3
f 437/4/3 428/4/3 427/4/3
f 438/4/3 428/4/3 437/4/3
f 440/4/3 432/4/3 431/4/3
f 441/4/3 432/4/3 440/4/3
f 442/4/3 436/4/3 435/4/3
f 443/4/3 436/4/3 442/4/3
f 444/4/3 430/4/3 429/4/3
f 445/4/3 430/4/3 444/4/3
f 446/3/3 443/3/3 442/3/3
f 446/3/3 442/3/3 441/3/3
f 446/3/3 444/3/3 443/3/3
f 448/3/3 447/3/3 446/3/3
f 450/3/3 448/3/3 446/3/3
f 450/3/3 449/3/3 448/3/3
f 450/3/3 446/3/3 441/3/3
f 450/4/3 440/4/3 439/4/3
f 450/4/3 441/4/3 440/4/3
f 451/3/3 449/3/3 450/3/3
f 452/4/3 451/4/3 450/4/3
f 454/4/3 452/4/3 450/4/3
f 454/4/3 453/4/3 452/4/3
f 454/4/3 450/4/3 439/4/3
f 455/4/3 453/4/3 454/4/3
f 456/4/3 454/4/3 439/4/3
f 457/3/3 455/3/3 454/3/3
f 457/4/3 454/4/3 456/4/3
f 458/3/3 455/3/3 457/3/3
f 459/3/3 455/3/3 458/3/3
f 460/3/3 455/3/3 459/3/3
f 461/3/3 455/3/3 460/3/3
f 462/3/3 455/3/3 461/3/3
f 463/3/3 455/3/3 462/3/3
f 464/3/3 455/3/3 463/3/3
f 465/3/3 459/3/3 458/3/3
f 466/3/3 459/3/3 465/3/3
f 467/3/3 461/3/3 460/3/3
f 468/3/3 461/3/3 467/3/3
f 469/3/3 463/3/3 462/3/3
f 470/3/3 463/3/3 469/3/3
f 473/3/3 472/3/3 471/3/3
f 474/3/3 472/3/3 473/3/3
f 477/3/3 476/3/3 475/3/3
f 478/3/3 476/3/3 477/3/3
f 481/3/3 480/3/3 479/3/3
f 482/3/3 480/3/3 481/3/3
f 485/3/3 484/3/3 483/3/3
f 486/3/3 484/3/3 485/3/3
f 489/3/3 488/3/3 487/3/3
f 490/3/3 488/3/3 489/3/3
f 493/3/3 492/3/3 491/3/3
f 494/3/3 492/3/3 493/3/3
f 501/3/3 496/3/3 495/3/3
f 502/3/3 496/3/3 501/3/3
f 503/3/3 498/3/3 497/3/3
f 504/3/3 498/3/3 503/3/3
f 505/3/3 500/3/3 499/3/3
f 506/3/3 500/3/3 505/3/3
f 510/3/3 508/3/3 507/3/3
f 511/3/3 510/3/3 509/3/3
f 512/3/3 508/3/3 510/3/3
f 512/3/3 510/3/3 511/3/3
f 513/3/3 508/3/3 512/3/3
f 514/3/3 508/3/3 513/3/3
f 521/3/3 516/3/3 515/3/3
f 522/3/3 516/3/3 521/3/3
f 523/3/3 518/3/3 517/3/3
f 524/3/3 518/3/3 523/3/3
f 525/3/3 520/3/3 519/3/3
f 526/3/3 520/3/3 525/3/3
f 530/3/3 528/3/3 527/3/3
f 530/3/3 529/3/3 528/3/3
f 531/3/3 529/3/3 530/3/3
f 532/3/3 529/3/3 531/3/3
f 533/3/4 534/3/4 539/3/4
f 539/3/4 534/3/4 540/3/4
f 535/3/4 536/3/4 541/3/4
f 541/3/4 536/3/4 542/3/4
f 537/3/4 538/3/4 543/3/4
f 543/3/4 538/3/4 544/3/4
f 545/3/4 546/3/4 551/3/4
f 551/3/4 546/3/4 552/3/4
f 547/3/4 548/3/4 553/3/4
f 553/3/4 548/3/4 554/3/4
f 549/3/4 550/3/4 555/3/4
f 555/3/4 550/3/4 556/3/4
f 557/3/4 558/3/4 559/3/4
f 559/3/4 558/3/4 560/3/4
f 561/3/4 562/3/4 563/3/4
f 563/3/4 562/3/4 564/3/4
f 565/3/4 566/3/4 567/3/4
f 567/3/4 566/3/4 568/3/4
f 569/3/4 570/3/4 571/3/4
f 571/3/4 570/3/4 572/3/4
f 573/3/4 574/3/4 575/3/4
f 575/3/4 574/3/4 576/3/4
f 577/3/4 578/3/4 579/3/4
f 579/3/4 578/3/4 580/3/4
f 581/3/4 582/3/4 589/3/4
f 589/3/4 582/3/4 590/3/4
f 583/3/4 584/3/4 591/3/4
f 591/3/4 584/3/4 592/3/4
f 585/3/4 586/3/4 593/3/4
f 593/3/4 586/3/4 594/3/4
f 587/4/4 588/4/4 596/4/4
f 594/3/4 595/3/4 596/3/4
f 593/3/4 594/3/4 596/3/4
f 592/3/4 593/3/4 596/3/4
f 589/3/4 590/3/4 596/3/4
f 590/3/4 591/3/4 596/3/4
f 591/3/4 592/3/4 596/3/4
f 588/3/4 589/3/4 596/3/4
f 596/3/4 595/3/4 597/3/4
f 596/4/4 597/4/4 598/4/4
f 598/4/4 597/4/4 599/4/4
f 587/4/4 596/4/4 600/4/4
f 596/4/4 598/4/4 600/4/4
f 600/4/4 598/4/4 601/4/4
f 587/4/4 600/4/4 602/4/4
f 600/3/4 601/3/4 602/3/4
f 602/3/4 601/3/4 603/3/4
f 602/4/4 603/4/4 604/4/4
f 602/4/4 604/4/4 606/4/4
f 604/4/4 605/4/4 606/4/4
f 587/4/4 602/4/4 606/4/4
f 606/4/4 605/4/4 607/4/4
f 587/4/4 606/4/4 608/4/4
f 606/3/4 607/3/4 609/3/4
f 608/4/4 606/4/4 609/4/4
f 609/3/4 607/3/4 610/3/4
f 610/3/4 607/3/4 611/3/4
f 611/3/4 607/3/4 612/3/4
f 612/3/4 607/3/4 613/3/4
f 613/3/4 607/3/4 614/3/4
f 614/3/4 607/3/4 615/3/4
f 615/3/4 607/3/4 616/3/4
f 610/3/4 611/3/4 617/3/4
f 617/3/4 611/3/4 618/3/4
f 612/3/4 613/3/4 619/3/4
f 619/3/4 613/3/4 620/3/4
f 614/3/4 615/3/4 621/3/4
f 621/3/4 615/3/4 622/3/4
f 623/3/4 624/3/4 625/3/4
f 625/3/4 624/3/4 626/3/4
f 630/3/5 628/3/5 627/3/5
f 631/3/5 628/3/5 630/3/5
f 633/4/5 630/4/5 629/4/5
f 633/4/5 632/4/5 631/4/5
f 633/4/5 631/4/5 630/4/5
f 634/4/5 632/4/5 633/4/5
f 637/3/5 636/3/5 635/3/5
f 638/3/5 636/3/5 637/3/5
f 643/2/5 640/2/5 639/2/5
f 644/1/5 641/1/5 640/1/5
f 644/2/5 640/2/5 643/2/5
f 645/1/5 641/1/5 644/1/5
f 646/2/5 642/2/5 641/2/5
f 646/1/5 641/1/5 645/1/5
f 647/2/5 642/2/5 646/2/5
f 654/2/5 649/2/5 648/2/5
f 655/2/5 649/2/5 654/2/5
f 656/1/5 651/1/5 650/1/5
f 657/1/5 651/1/5 656/1/5
f 658/3/5 653/3/5 652/3/5
f 659/3/5 653/3/5 658/3/5
f 668/2/5 661/2/5 660/2/5
f 669/1/5 662/1/5 661/1/5
f 669/2/5 661/2/5 668/2/5
f 670/1/5 662/1/5 669/1/5
f 671/2/5 663/2/5 662/2/5
f 671/1/5 662/1/5 670/1/5
f 672/2/5 663/2/5 671/2/5
f 673/3/5 665/3/5 664/3/5
f 674/3/5 665/3/5 673/3/5
f 677/3/5 667/3/5 666/3/5
f 678/3/5 667/3/5 677/3/5
f 679/3/5 676/3/5 675/3/5
f 680/3/5 676/3/5 679/3/5
f 685/3/5 682/3/5 681/3/5
f 686/3/5 682/3/5 685/3/5
f 687/3/5 684/3/5 683/3/5
f 688/3/5 684/3/5 687/3/5
f 693/2/5 690/2/5 689/2/5
f 694/2/5 690/2/5 693/2/5
f 695/1/5 692/1/5 691/1/5
f 696/1/5 692/1/5 695/1/5
f 699/3/5 698/3/5 697/3/5
f 700/3/5 698/3/5 699/3/5
f 705/3/5 702/3/5 701/3/5
f 706/3/5 704/3/5 703/3/5
f 709/3/5 705/3/5 701/3/5
f 710/3/5 705/3/5 709/3/5
f 711/3/5 704/3/5 706/3/5
f 712/3/5 704/3/5 711/3/5
f 715/3/5 708/3/5 707/3/5
f 716/3/5 708/3/5 715/3/5
f 717/3/5 714/3/5 713/3/5
f 718/3/5 714/3/5 717/3/5
f 723/3/5 720/3/5 719/3/5
f 724/3/5 720/3/5 723/3/5
f 725/3/5 722/3/5 721/3/5
f 726/3/5 722/3/5 725/3/5
f 731/3/5 728/3/5 727/3/5
f 732/3/5 728/3/5 731/3/5
f 733/3/5 730/3/5 729/3/5
f 734/3/5 730/3/5 733/3/5
f 739/3/5 736/3/5 735/3/5
f 740/3/5 736/3/5 739/3/5
f 741/3/5 738/3/5 737/3/5
f 742/3/5 738/3/5 741/3/5
f 747/3/5 744/3/5 743/3/5
f 748/3/5 744/3/5 747/3/5
f 749/3/5 746/3/5 745/3/5
f 750/3/5 746/3/5 749/3/5
f 755/3/5 752/3/5 751/3/5
f 756/3/5 752/3/5 755/3/5
f 757/3/5 752/3/5 756/3/5
f 758/3/5 754/3/5 753/3/5
f 759/3/5 754/3/5 758/3/5
f 760/3/5 754/3/5 759/3/5
f 765/3/5 762/3/5 761/3/5
f 766/3/5 762/3/5 765/3/5
f 767/3/5 764/3/5 763/3/5
f 768/3/5 764/3/5 767/3/5
f 773/3/5 770/3/5 769/3/5
f 774/3/5 770/3/5 773/3/5
f 775/3/5 772/3/5 771/3/5
f 776/3/5 772/3/5 775/3/5
f 781/3/5 778/3/5 777/3/5
f 782/3/5 778/3/5 781/3/5
f 783/3/5 780/3/5 779/3/5
f 784/3/5 780/3/5 783/3/5
f 789/3/5 786/3/5 785/3/5
f 789/3/5 788/3/5 787/3/5
f 789/3/5 787/3/5 786/3/5
f 790/3/5 788/3/5 789/3/5
f 791/3/6 792/3/6 793/3/6
f 793/3/6 792/3/6 794/3/6
f 795/3/6 796/3/6 797/3/6
f 797/3/6 796/3/6 798/3/6
f 799/2/6 800/2/6 806/2/6
f 800/1/6 801/1/6 807/1/6
f 806/2/6 800/2/6 807/2/6
f 807/1/6 801/1/6 808/1/6
f 801/2/6 802/2/6 809/2/6
f 808/1/6 801/1/6 809/1/6
f 809/2/6 802/2/6 810/2/6
f 802/1/6 803/1/6 811/1/6
f 810/2/6 802/2/6 811/2/6
f 811/1/6 803/1/6 812/1/6
f 804/3/6 805/3/6 813/3/6
f 813/3/6 805/3/6 814/3/6
f 815/3/6 816/3/6 817/3/6
f 817/3/6 816/3/6 818/3/6
f 819/2/6 820/2/6 825/2/6
f 820/1/6 821/1/6 826/1/6
f 825/2/6 820/2/6 826/2/6
f 826/1/6 821/1/6 827/1/6
f 821/2/6 822/2/6 828/2/6
f 827/1/6 821/1/6 828/1/6
f 828/2/6 822/2/6 829/2/6
f 822/1/6 823/1/6 830/1/6
f 829/2/6 822/2/6 830/2/6
f 830/1/6 823/1/6 831/1/6
f 824/3/6 825/3/6 834/3/6
f 834/3/6 825/3/6 835/3/6
f 832/3/6 833/3/6 836/3/6
f 836/3/6 833/3/6 837/3/6
f 838/3/6 839/3/6 842/3/6
f 842/3/6 839/3/6 843/3/6
f 840/3/6 841/3/6 844/3/6
f 844/3/6 841/3/6 845/3/6
f 846/3/6 847/3/6 848/3/6
f 848/3/6 847/3/6 849/3/6
f 850/4/6 851/4/6 852/4/6
f 852/4/6 851/4/6 853/4/6
f 852/3/6 853/3/6 854/3/6
f 854/3/6 853/3/6 855/3/6
f 856/3/6 857/3/6 860/3/6
f 860/3/6 857/3/6 861/3/6
f 858/3/6 859/3/6 862/3/6
f 862/3/6 859/3/6 863/3/6
f 864/3/6 865/3/6 868/3/6
f 868/3/6 865/3/6 869/3/6
f 866/3/6 867/3/6 870/3/6
f 870/3/6 867/3/6 871/3/6
f 872/3/6 873/3/6 876/3/6
f 876/3/6 873/3/6 877/3/6
f 874/3/6 875/3/6 878/3/6
f 878/3/6 875/3/6 879/3/6
f 880/3/6 881/3/6 886/3/6
f 882/3/6 883/3/6 887/3/6
f 884/3/6 885/3/6 890/3/6
f 890/3/6 885/3/6 891/3/6
f 888/3/6 889/3/6 892/3/6
f 892/3/6 889/3/6 893/3/6
f 886/3/6 881/3/6 896/3/6
f 882/3/6 887/3/6 897/3/6
f 894/3/6 895/3/6 900/3/6
f 900/3/6 895/3/6 901/3/6
f 886/3/6 896/3/6 902/3/6
f 896/3/6 897/3/6 902/3/6
f 897/3/6 887/3/6 903/3/6
f 902/3/6 897/3/6 903/3/6
f 898/3/6 899/3/6 904/3/6
f 904/3/6 899/3/6 905/3/6
f 906/3/6 907/3/6 913/3/6
f 910/3/6 911/3/6 914/3/6
f 912/3/6 913/3/6 916/3/6
f 913/3/6 907/3/6 917/3/6
f 916/3/6 913/3/6 917/3/6
f 914/3/6 915/3/6 918/3/6
f 910/3/6 914/3/6 918/3/6
f 918/3/6 915/3/6 919/3/6
f 917/3/6 907/3/6 921/3/6
f 910/3/6 918/3/6 922/3/6
f 920/3/6 921/3/6 924/3/6
f 921/3/6 907/3/6 925/3/6
f 924/3/6 921/3/6 925/3/6
f 922/3/6 923/3/6 926/3/6
f 910/3/6 922/3/6 926/3/6
f 926/3/6 923/3/6 927/3/6
f 925/3/6 907/3/6 929/3/6
f 910/3/6 926/3/6 930/3/6
f 928/3/6 929/3/6 932/3/6
f 929/3/6 907/3/6 933/3/6
f 932/3/6 929/3/6 933/3/6
f 930/3/6 931/3/6 934/3/6
f 910/3/6 930/3/6 934/3/6
f 934/3/6 931/3/6 935/3/6
f 933/3/6 907/3/6 936/3/6
f 907/4/6 908/4/6 937/4/6
f 936/3/6 907/3/6 937/3/6
f 937/4/6 908/4/6 938/4/6
f 909/4/6 910/4/6 939/4/6
f 910/3/6 934/3/6 940/3/6
f 939/4/6 910/4/6 940/4/6
f 940/3/6 934/3/6 941/3/6
f 942/3/6 943/3/6 946/3/6
f 944/3/6 945/3/6 947/3/6
f 942/3/6 946/3/6 948/3/6
f 946/3/6 947/3/6 948/3/6
f 947/3/6 945/3/6 949/3/6
f 948/3/6 947/3/6 949/3/6
