# MagicaVoxel @ Ephtracy

# group
o 

# material
mtllib model-1.mtl
usemtl palette

# normals
vn 0 0 1
vn 0 0 -1
vn 1 0 0
vn -1 0 0
vn 0 -1 0
vn 0 1 0

# texcoords
vt 0.0214844 0.5
vt 0.0292969 0.5
vt 0.0996094 0.5
vt 0.494141 0.5
vt 0.509766 0.5
vt 0.513672 0.5
vt 0.521484 0.5

# verts
v 0.5 0 1
v -0.5 0 1
v 0.5 0.7 1
v -0.5 0.7 1
v 0.6 0 0.9
v 0.5 0 0.9
v 0.6 0.7 0.9
v 0.5 0.7 0.9
v 0.5 0 0.2
v 0.4 0 0.2
v 0.5 0.1 0.2
v 0.4 0.1 0.2
v 0.4 0.3 0.2
v 0.5 0.4 0.2
v 0.4 0.4 0.2
v 0.5 0.1 -0.1
v 0.4 0.1 -0.1
v 0.5 0.2 -0.1
v 0.4 0.2 -0.1
v 0.5 0.3 -0.1
v 0.4 0.3 -0.1
v 0.6 0 -0.3
v 0.4 0 -0.3
v 0.4 0.1 -0.3
v 0.4 0.3 -0.3
v 0.6 0.7 -0.3
v 0.4 0.7 -0.3
v 0.4 0 -0.9
v -0.4 0 -0.9
v 0.4 0.1 -0.9
v -0.4 0.1 -0.9
v 0.4 0 0.9
v -0.4 0 0.9
v 0.4 0.1 0.9
v -0.4 0.1 0.9
v 0.6 0 0.3
v 0.4 0 0.3
v 0.4 0.1 0.3
v 0.4 0.3 0.3
v 0.6 0.7 0.3
v 0.4 0.7 0.3
v 0.5 0.1 0.1
v 0.4 0.1 0.1
v 0.5 0.3 0.1
v 0.4 0.3 0.1
v 0.5 0 -0.2
v 0.4 0 -0.2
v 0.4 0.1 -0.2
v 0.5 0.2 -0.2
v 0.4 0.2 -0.2
v 0.4 0.3 -0.2
v 0.5 0.4 -0.2
v 0.4 0.4 -0.2
v 0.6 0 -0.9
v 0.5 0 -0.9
v 0.6 0.7 -0.9
v 0.5 0.7 -0.9
v 0.5 0 -1
v -0.5 0 -1
v 0.5 0.7 -1
v -0.5 0.7 -1
v 0.6 0 0.9
v 0.6 0.7 0.9
v 0.6 0.1 0.8
v 0.6 0.2 0.8
v 0.6 0.2 0.7
v 0.6 0.3 0.7
v 0.6 0.2 0.6
v 0.6 0.3 0.6
v 0.6 0.2 0.5
v 0.6 0.4 0.5
v 0.6 0.1 0.4
v 0.6 0.4 0.4
v 0.6 0 0.3
v 0.6 0.7 0.3
v 0.6 0 -0.3
v 0.6 0.7 -0.3
v 0.6 0.1 -0.4
v 0.6 0.4 -0.4
v 0.6 0.2 -0.5
v 0.6 0.4 -0.5
v 0.6 0.2 -0.6
v 0.6 0.3 -0.6
v 0.6 0.2 -0.7
v 0.6 0.3 -0.7
v 0.6 0.1 -0.8
v 0.6 0.2 -0.8
v 0.6 0 -0.9
v 0.6 0.7 -0.9
v 0.5 0 1
v 0.5 0.7 1
v 0.5 0 0.9
v 0.5 0.7 0.9
v 0.5 0 0.2
v 0.5 0.1 0.2
v 0.5 0.4 0.2
v 0.5 0.1 0.1
v 0.5 0.3 0.1
v 0.5 0 0
v 0.5 0.1 0
v 0.5 0.3 0
v 0.5 0.4 0
v 0.5 0.1 -0.1
v 0.5 0.2 -0.1
v 0.5 0.3 -0.1
v 0.5 0 -0.2
v 0.5 0.2 -0.2
v 0.5 0.4 -0.2
v 0.5 0 -0.9
v 0.5 0.7 -0.9
v 0.5 0 -1
v 0.5 0.7 -1
v 0.4 0.1 0.3
v 0.4 0.3 0.3
v 0.4 0.7 0.3
v 0.4 0.1 0.2
v 0.4 0.3 0.2
v 0.4 0.4 0.2
v 0.4 0.1 0.1
v 0.4 0.3 0.1
v 0.4 0.1 0
v 0.4 0.3 0
v 0.4 0.4 0
v 0.4 0.1 -0.1
v 0.4 0.2 -0.1
v 0.4 0.3 -0.1
v 0.4 0.1 -0.2
v 0.4 0.2 -0.2
v 0.4 0.3 -0.2
v 0.4 0.4 -0.2
v 0.4 0.1 -0.3
v 0.4 0.3 -0.3
v 0.4 0.7 -0.3
v -0.4 0 0.9
v -0.4 0.1 0.9
v -0.4 0 -0.9
v -0.4 0.1 -0.9
v 0.4 0 0.9
v 0.4 0.1 0.9
v 0.4 0 0.3
v 0.4 0.1 0.3
v 0.4 0 0.2
v 0.4 0.1 0.2
v 0.4 0 0
v 0.4 0.1 0
v 0.4 0 -0.2
v 0.4 0.1 -0.2
v 0.4 0 -0.3
v 0.4 0.1 -0.3
v 0.4 0 -0.9
v 0.4 0.1 -0.9
v -0.5 0 1
v -0.5 0.7 1
v -0.5 0.1 0.9
v -0.5 0.5 0.9
v -0.5 0.2 0.8
v -0.5 0.4 0.8
v -0.5 0.3 0.7
v -0.5 0.4 0.7
v -0.5 0.3 0.6
v -0.5 0.5 0.6
v -0.5 0.2 0.5
v -0.5 0.3 0.5
v -0.5 0.2 0.4
v -0.5 0.3 0.4
v -0.5 0.1 0.2
v -0.5 0.2 0.2
v -0.5 0.1 -0.2
v -0.5 0.2 -0.2
v -0.5 0.2 -0.4
v -0.5 0.3 -0.4
v -0.5 0.2 -0.5
v -0.5 0.3 -0.5
v -0.5 0.3 -0.6
v -0.5 0.5 -0.6
v -0.5 0.3 -0.7
v -0.5 0.4 -0.7
v -0.5 0.2 -0.8
v -0.5 0.4 -0.8
v -0.5 0.1 -0.9
v -0.5 0.5 -0.9
v -0.5 0 -1
v -0.5 0.7 -1
v 0.6 0 0.9
v 0.6 0 0.3
v 0.6 0 -0.3
v 0.6 0 -0.9
v 0.5 0 1
v 0.5 0 0.9
v 0.5 0 0.2
v 0.5 0 0
v 0.5 0 -0.2
v 0.5 0 -0.9
v 0.5 0 -1
v 0.4 0 0.9
v 0.4 0 0.3
v 0.4 0 0.2
v 0.4 0 0
v 0.4 0 -0.2
v 0.4 0 -0.3
v 0.4 0 -0.9
v -0.4 0 0.9
v -0.4 0 -0.9
v -0.5 0 1
v -0.5 0 -1
v 0.4 0.1 0.9
v 0.4 0.1 0.3
v 0.4 0.1 0.2
v 0.4 0.1 0
v 0.4 0.1 -0.2
v 0.4 0.1 -0.3
v 0.4 0.1 -0.9
v -0.4 0.1 0.9
v -0.4 0.1 -0.9
v 0.5 0.3 0.1
v 0.5 0.3 0
v 0.5 0.3 -0.1
v 0.4 0.3 0.1
v 0.4 0.3 0
v 0.4 0.3 -0.1
v 0.5 0.1 0.1
v 0.5 0.1 0
v 0.5 0.1 -0.1
v 0.4 0.1 0.1
v 0.4 0.1 0
v 0.4 0.1 -0.1
v 0.5 0.4 0.2
v 0.5 0.4 0
v 0.5 0.4 -0.2
v 0.4 0.4 0.2
v 0.4 0.4 0
v 0.4 0.4 -0.2
v 0.6 0.7 0.9
v 0.6 0.7 0.3
v 0.6 0.7 -0.3
v 0.6 0.7 -0.9
v 0.5 0.7 1
v 0.5 0.7 0.9
v 0.5 0.7 -0.9
v 0.5 0.7 -1
v 0.4 0.7 0.3
v 0.4 0.7 -0.3
v 0.3 0.7 0.3
v 0.3 0.7 -0.3
v -0.5 0.7 1
v -0.5 0.7 -1

# faces
f 3/2/1 2/2/1 1/2/1
f 4/2/1 2/2/1 3/2/1
f 7/2/1 6/2/1 5/2/1
f 8/2/1 6/2/1 7/2/1
f 11/5/1 10/5/1 9/5/1
f 12/5/1 10/5/1 11/5/1
f 13/6/1 12/6/1 11/6/1
f 14/6/1 13/6/1 11/6/1
f 15/6/1 13/6/1 14/6/1
f 18/6/1 17/6/1 16/6/1
f 19/6/1 17/6/1 18/6/1
f 20/7/1 19/7/1 18/7/1
f 21/7/1 19/7/1 20/7/1
f 24/2/1 23/2/1 22/2/1
f 25/2/1 24/2/1 22/2/1
f 26/2/1 25/2/1 22/2/1
f 27/2/1 25/2/1 26/2/1
f 30/2/1 29/2/1 28/2/1
f 31/2/1 29/2/1 30/2/1
f 32/2/2 33/2/2 34/2/2
f 34/2/2 33/2/2 35/2/2
f 36/2/2 37/2/2 38/2/2
f 36/2/2 38/2/2 39/2/2
f 36/2/2 39/2/2 40/2/2
f 40/2/2 39/2/2 41/2/2
f 42/6/2 43/6/2 44/6/2
f 44/6/2 43/6/2 45/6/2
f 46/6/2 47/6/2 48/6/2
f 46/6/2 48/6/2 49/6/2
f 49/6/2 48/6/2 50/6/2
f 49/7/2 50/7/2 51/7/2
f 49/7/2 51/7/2 52/7/2
f 52/7/2 51/7/2 53/7/2
f 54/2/2 55/2/2 56/2/2
f 56/2/2 55/2/2 57/2/2
f 58/2/2 59/2/2 60/2/2
f 60/2/2 59/2/2 61/2/2
f 64/2/3 63/2/3 62/2/3
f 65/2/3 63/2/3 64/2/3
f 66/4/3 65/4/3 64/4/3
f 66/2/3 63/2/3 65/2/3
f 67/2/3 63/2/3 66/2/3
f 68/4/3 66/4/3 64/4/3
f 68/4/3 67/4/3 66/4/3
f 69/2/3 63/2/3 67/2/3
f 69/4/3 67/4/3 68/4/3
f 70/4/3 68/4/3 64/4/3
f 70/2/3 69/2/3 68/2/3
f 71/2/3 63/2/3 69/2/3
f 71/2/3 69/2/3 70/2/3
f 72/2/3 64/2/3 62/2/3
f 72/4/3 70/4/3 64/4/3
f 72/4/3 71/4/3 70/4/3
f 73/2/3 63/2/3 71/2/3
f 73/4/3 71/4/3 72/4/3
f 74/2/3 72/2/3 62/2/3
f 74/2/3 73/2/3 72/2/3
f 75/2/3 63/2/3 73/2/3
f 75/2/3 73/2/3 74/2/3
f 78/2/3 77/2/3 76/2/3
f 79/2/3 77/2/3 78/2/3
f 80/4/3 79/4/3 78/4/3
f 81/2/3 77/2/3 79/2/3
f 81/4/3 79/4/3 80/4/3
f 82/4/3 80/4/3 78/4/3
f 82/2/3 81/2/3 80/2/3
f 83/2/3 81/2/3 82/2/3
f 84/4/3 82/4/3 78/4/3
f 84/4/3 83/4/3 82/4/3
f 85/2/3 81/2/3 83/2/3
f 85/4/3 83/4/3 84/4/3
f 86/2/3 78/2/3 76/2/3
f 86/4/3 84/4/3 78/4/3
f 87/2/3 85/2/3 84/2/3
f 87/4/3 84/4/3 86/4/3
f 88/2/3 86/2/3 76/2/3
f 88/2/3 87/2/3 86/2/3
f 89/2/3 81/2/3 85/2/3
f 89/2/3 87/2/3 88/2/3
f 89/2/3 77/2/3 81/2/3
f 89/2/3 85/2/3 87/2/3
f 92/2/3 91/2/3 90/2/3
f 93/2/3 91/2/3 92/2/3
f 97/5/3 95/5/3 94/5/3
f 97/6/3 96/6/3 95/6/3
f 98/6/3 96/6/3 97/6/3
f 99/5/3 97/5/3 94/5/3
f 100/5/3 97/5/3 99/5/3
f 101/6/3 96/6/3 98/6/3
f 102/6/3 96/6/3 101/6/3
f 103/6/3 100/6/3 99/6/3
f 105/7/3 102/7/3 101/7/3
f 106/6/3 104/6/3 103/6/3
f 106/6/3 103/6/3 99/6/3
f 107/7/3 105/7/3 104/7/3
f 107/6/3 104/6/3 106/6/3
f 108/7/3 102/7/3 105/7/3
f 108/7/3 105/7/3 107/7/3
f 111/2/3 110/2/3 109/2/3
f 112/2/3 110/2/3 111/2/3
f 116/3/3 114/3/3 113/3/3
f 117/1/3 115/1/3 114/1/3
f 117/3/3 114/3/3 116/3/3
f 118/1/3 115/1/3 117/1/3
f 121/3/3 120/3/3 119/3/3
f 122/3/3 120/3/3 121/3/3
f 123/1/3 115/1/3 118/1/3
f 124/3/3 122/3/3 121/3/3
f 125/3/3 122/3/3 124/3/3
f 126/3/3 122/3/3 125/3/3
f 130/1/3 115/1/3 123/1/3
f 131/3/3 129/3/3 128/3/3
f 131/3/3 128/3/3 127/3/3
f 132/1/3 130/1/3 129/1/3
f 132/3/3 129/3/3 131/3/3
f 133/1/3 115/1/3 130/1/3
f 133/1/3 130/1/3 132/1/3
f 136/2/3 135/2/3 134/2/3
f 137/2/3 135/2/3 136/2/3
f 138/2/4 139/2/4 140/2/4
f 140/2/4 139/2/4 141/2/4
f 142/5/4 143/5/4 144/5/4
f 144/5/4 143/5/4 145/5/4
f 144/6/4 145/6/4 146/6/4
f 146/6/4 145/6/4 147/6/4
f 148/2/4 149/2/4 150/2/4
f 150/2/4 149/2/4 151/2/4
f 152/2/4 153/2/4 154/2/4
f 154/2/4 153/2/4 155/2/4
f 154/4/4 155/4/4 156/4/4
f 156/4/4 155/4/4 157/4/4
f 156/2/4 157/2/4 158/2/4
f 157/4/4 155/4/4 159/4/4
f 158/2/4 157/2/4 159/2/4
f 156/2/4 158/2/4 160/2/4
f 158/4/4 159/4/4 160/4/4
f 155/2/4 153/2/4 161/2/4
f 160/4/4 159/4/4 161/4/4
f 159/4/4 155/4/4 161/4/4
f 156/2/4 160/2/4 162/2/4
f 154/4/4 156/4/4 162/4/4
f 160/2/4 161/2/4 162/2/4
f 162/2/4 161/2/4 163/2/4
f 154/4/4 162/4/4 164/4/4
f 162/4/4 163/4/4 164/4/4
f 163/2/4 161/2/4 165/2/4
f 164/4/4 163/4/4 165/4/4
f 152/2/4 154/2/4 166/2/4
f 154/4/4 164/4/4 166/4/4
f 164/2/4 165/2/4 167/2/4
f 166/4/4 164/4/4 167/4/4
f 152/2/4 166/2/4 168/2/4
f 166/2/4 167/2/4 168/2/4
f 167/2/4 165/2/4 169/2/4
f 168/2/4 167/2/4 169/2/4
f 168/4/4 169/4/4 170/4/4
f 169/2/4 165/2/4 170/2/4
f 165/2/4 161/2/4 171/2/4
f 170/2/4 165/2/4 171/2/4
f 168/4/4 170/4/4 172/4/4
f 170/4/4 171/4/4 172/4/4
f 171/2/4 161/2/4 173/2/4
f 172/4/4 171/4/4 173/4/4
f 172/2/4 173/2/4 174/2/4
f 173/2/4 161/2/4 174/2/4
f 161/2/4 153/2/4 175/2/4
f 174/2/4 161/2/4 175/2/4
f 172/2/4 174/2/4 176/2/4
f 174/4/4 175/4/4 176/4/4
f 176/4/4 175/4/4 177/4/4
f 168/4/4 172/4/4 178/4/4
f 172/2/4 176/2/4 178/2/4
f 176/2/4 177/2/4 178/2/4
f 177/4/4 175/4/4 179/4/4
f 178/2/4 177/2/4 179/2/4
f 168/4/4 178/4/4 180/4/4
f 152/2/4 168/2/4 180/2/4
f 178/4/4 179/4/4 180/4/4
f 179/4/4 175/4/4 181/4/4
f 180/4/4 179/4/4 181/4/4
f 175/2/4 153/2/4 181/2/4
f 152/2/4 180/2/4 182/2/4
f 180/2/4 181/2/4 182/2/4
f 181/2/4 153/2/4 183/2/4
f 182/2/4 181/2/4 183/2/4
f 189/2/5 185/2/5 184/2/5
f 193/2/5 187/2/5 186/2/5
f 195/2/5 185/2/5 189/2/5
f 195/2/5 189/2/5 188/2/5
f 196/2/5 185/2/5 195/2/5
f 197/5/5 191/5/5 190/5/5
f 198/6/5 192/6/5 191/6/5
f 198/5/5 191/5/5 197/5/5
f 199/6/5 192/6/5 198/6/5
f 200/2/5 194/2/5 193/2/5
f 200/2/5 193/2/5 186/2/5
f 201/2/5 194/2/5 200/2/5
f 202/2/5 195/2/5 188/2/5
f 203/2/5 194/2/5 201/2/5
f 204/2/5 202/2/5 188/2/5
f 204/2/5 203/2/5 202/2/5
f 205/2/5 194/2/5 203/2/5
f 205/2/5 203/2/5 204/2/5
f 213/3/5 207/3/5 206/3/5
f 213/3/5 212/3/5 211/3/5
f 213/3/5 211/3/5 210/3/5
f 213/3/5 210/3/5 209/3/5
f 213/3/5 209/3/5 208/3/5
f 213/3/5 208/3/5 207/3/5
f 214/3/5 212/3/5 213/3/5
f 218/6/5 216/6/5 215/6/5
f 219/7/5 217/7/5 216/7/5
f 219/6/5 216/6/5 218/6/5
f 220/7/5 217/7/5 219/7/5
f 221/5/6 222/5/6 224/5/6
f 222/6/6 223/6/6 225/6/6
f 224/5/6 222/5/6 225/5/6
f 225/6/6 223/6/6 226/6/6
f 227/6/6 228/6/6 230/6/6
f 228/7/6 229/7/6 231/7/6
f 230/6/6 228/6/6 231/6/6
f 231/7/6 229/7/6 232/7/6
f 233/2/6 234/2/6 238/2/6
f 235/2/6 236/2/6 239/2/6
f 237/2/6 238/2/6 241/2/6
f 238/2/6 234/2/6 241/2/6
f 239/2/6 240/2/6 242/2/6
f 235/2/6 239/2/6 242/2/6
f 237/2/6 241/2/6 243/2/6
f 241/1/6 242/1/6 243/1/6
f 242/2/6 240/2/6 244/2/6
f 243/1/6 242/1/6 244/1/6
f 237/2/6 243/2/6 245/2/6
f 243/2/6 244/2/6 245/2/6
f 244/2/6 240/2/6 246/2/6
f 245/2/6 244/2/6 246/2/6
