# MagicaVoxel @ Ephtracy

# group
o 

# material
mtllib model-0.mtl
usemtl palette

# normals
vn 0 0 1
vn 0 0 -1
vn 1 0 0
vn -1 0 0
vn 0 -1 0
vn 0 1 0

# texcoords
vt 0.0214844 0.5
vt 0.0292969 0.5
vt 0.205078 0.5
vt 0.494141 0.5

# verts
v 0.6 1.6 1.1
v 0.5 1.6 1.1
v -0.5 1.9 1.1
v -0.6 1.9 1.1
v 0.5 2 1.1
v -0.5 2 1.1
v 0.6 2.1 1.1
v -0.6 2.1 1.1
v 0.5 0.6 1
v -0.5 0.6 1
v 0.5 1.6 1
v -0.5 1.9 1
v 0.5 2 1
v -0.5 2 1
v 0.6 0.6 0.9
v 0.5 0.6 0.9
v 0.6 1.5 0.9
v 0.5 1.5 0.9
v 0.6 1.5 0.8
v 0.5 1.5 0.8
v 0.6 1.6 0.8
v 0.5 1.6 0.8
v 0.5 2.1 0.5
v -0.4 2.1 0.5
v 0.5 2.2 0.5
v -0.4 2.2 0.5
v 0.7 1.1 0.3
v 0.6 1.1 0.3
v 0.7 1.7 0.3
v 0.6 1.7 0.3
v 0.7 1 0.2
v 0.5 1 0.2
v 0.7 1.1 0.2
v 0.5 1.1 0.2
v 0.6 1.7 0.2
v 0.5 1.7 0.2
v 0.4 1.7 0.2
v 0.7 1.8 0.2
v 0.6 1.8 0.2
v 0.5 1.9 0.2
v 0.4 1.9 0.2
v 0.7 2.2 0.2
v 0.5 2.2 0.2
v 0.7 1 -0.1
v 0.5 1 -0.1
v 0.7 1.7 -0.1
v 0.6 1.7 -0.1
v 0.5 1.7 -0.1
v 0.6 0.6 -0.3
v 0.4 0.6 -0.3
v 0.6 1.1 -0.3
v 0.5 1.1 -0.3
v 0.6 1.7 -0.3
v 0.5 1.7 -0.3
v 0.5 1.9 -0.3
v 0.4 1.9 -0.3
v 0.6 2.1 -0.3
v 0.5 2.1 -0.3
v 0.6 0.6 0.3
v 0.4 0.6 0.3
v 0.6 1.1 0.3
v 0.5 1.1 0.3
v 0.6 1.7 0.3
v 0.5 1.7 0.3
v 0.5 1.9 0.3
v 0.4 1.9 0.3
v 0.6 2.1 0.3
v 0.5 2.1 0.3
v 0.7 1 0.1
v 0.5 1 0.1
v 0.7 1.7 0.1
v 0.6 1.7 0.1
v 0.5 1.7 0.1
v 0.7 1 -0.2
v 0.5 1 -0.2
v 0.7 1.1 -0.2
v 0.5 1.1 -0.2
v 0.6 1.7 -0.2
v 0.5 1.7 -0.2
v 0.4 1.7 -0.2
v 0.7 1.8 -0.2
v 0.6 1.8 -0.2
v 0.5 1.9 -0.2
v 0.4 1.9 -0.2
v 0.7 2.2 -0.2
v 0.5 2.2 -0.2
v 0.7 1.1 -0.3
v 0.6 1.1 -0.3
v 0.7 1.7 -0.3
v 0.6 1.7 -0.3
v 0.5 2.1 -0.5
v -0.4 2.1 -0.5
v 0.5 2.2 -0.5
v -0.4 2.2 -0.5
v 0.6 1.5 -0.8
v 0.5 1.5 -0.8
v 0.6 1.6 -0.8
v 0.5 1.6 -0.8
v 0.6 0.6 -0.9
v 0.5 0.6 -0.9
v 0.6 1.5 -0.9
v 0.5 1.5 -0.9
v 0.5 0.6 -1
v -0.5 0.6 -1
v 0.5 1.6 -1
v -0.5 1.9 -1
v 0.5 2 -1
v -0.5 2 -1
v 0.6 1.6 -1.1
v 0.5 1.6 -1.1
v -0.5 1.9 -1.1
v -0.6 1.9 -1.1
v 0.5 2 -1.1
v -0.5 2 -1.1
v 0.6 2.1 -1.1
v -0.6 2.1 -1.1
v 0.7 1.1 0.3
v 0.7 1.7 0.3
v 0.7 1 0.2
v 0.7 1.1 0.2
v 0.7 1.8 0.2
v 0.7 2.2 0.2
v 0.7 1 0.1
v 0.7 1.7 0.1
v 0.7 1 -0.1
v 0.7 1.7 -0.1
v 0.7 1 -0.2
v 0.7 1.1 -0.2
v 0.7 1.8 -0.2
v 0.7 2.2 -0.2
v 0.7 1.1 -0.3
v 0.7 1.7 -0.3
v 0.6 1.6 1.1
v 0.6 2.1 1.1
v 0.6 1.7 1
v 0.6 2 1
v 0.6 0.6 0.9
v 0.6 1.5 0.9
v 0.6 1.8 0.9
v 0.6 1.9 0.9
v 0.6 1.1 0.8
v 0.6 1.4 0.8
v 0.6 1.5 0.8
v 0.6 1.6 0.8
v 0.6 1.9 0.8
v 0.6 2 0.8
v 0.6 0.8 0.7
v 0.6 1 0.7
v 0.6 1.2 0.7
v 0.6 1.3 0.7
v 0.6 1.5 0.7
v 0.6 1.7 0.7
v 0.6 1.8 0.7
v 0.6 2 0.7
v 0.6 0.8 0.6
v 0.6 0.9 0.6
v 0.6 1.1 0.6
v 0.6 1.2 0.6
v 0.6 1.5 0.6
v 0.6 1.9 0.6
v 0.6 0.7 0.5
v 0.6 0.9 0.5
v 0.6 1 0.5
v 0.6 1.3 0.5
v 0.6 1.8 0.5
v 0.6 1.9 0.5
v 0.6 0.7 0.4
v 0.6 1.4 0.4
v 0.6 1.8 0.4
v 0.6 2 0.4
v 0.6 0.6 0.3
v 0.6 1.1 0.3
v 0.6 1.7 0.3
v 0.6 2.1 0.3
v 0.6 1.7 0.2
v 0.6 1.8 0.2
v 0.6 1.7 0.1
v 0.6 1.7 -0.1
v 0.6 1.7 -0.2
v 0.6 1.8 -0.2
v 0.6 0.6 -0.3
v 0.6 1.1 -0.3
v 0.6 1.7 -0.3
v 0.6 2.1 -0.3
v 0.6 0.7 -0.4
v 0.6 1.4 -0.4
v 0.6 1.8 -0.4
v 0.6 2 -0.4
v 0.6 0.7 -0.5
v 0.6 0.9 -0.5
v 0.6 1 -0.5
v 0.6 1.3 -0.5
v 0.6 1.8 -0.5
v 0.6 1.9 -0.5
v 0.6 0.8 -0.6
v 0.6 0.9 -0.6
v 0.6 1.1 -0.6
v 0.6 1.2 -0.6
v 0.6 1.5 -0.6
v 0.6 1.9 -0.6
v 0.6 0.8 -0.7
v 0.6 1 -0.7
v 0.6 1.2 -0.7
v 0.6 1.3 -0.7
v 0.6 1.5 -0.7
v 0.6 1.7 -0.7
v 0.6 1.8 -0.7
v 0.6 2 -0.7
v 0.6 1.1 -0.8
v 0.6 1.4 -0.8
v 0.6 1.5 -0.8
v 0.6 1.6 -0.8
v 0.6 1.9 -0.8
v 0.6 2 -0.8
v 0.6 0.6 -0.9
v 0.6 1.5 -0.9
v 0.6 1.8 -0.9
v 0.6 1.9 -0.9
v 0.6 1.7 -1
v 0.6 2 -1
v 0.6 1.6 -1.1
v 0.6 2.1 -1.1
v 0.5 0.6 1
v 0.5 1.6 1
v 0.5 0.6 0.9
v 0.5 1.5 0.9
v 0.5 1.5 0.8
v 0.5 1.6 0.8
v 0.5 2.1 0.5
v 0.5 2.2 0.5
v 0.5 1.9 0.3
v 0.5 2.1 0.3
v 0.5 1.9 0.2
v 0.5 2.2 0.2
v 0.5 1.9 -0.2
v 0.5 2.2 -0.2
v 0.5 1.9 -0.3
v 0.5 2.1 -0.3
v 0.5 2.1 -0.5
v 0.5 2.2 -0.5
v 0.5 1.5 -0.8
v 0.5 1.6 -0.8
v 0.5 0.6 -0.9
v 0.5 1.5 -0.9
v 0.5 0.6 -1
v 0.5 1.6 -1
v 0.4 0.6 0.3
v 0.4 1.9 0.3
v 0.4 1.7 0.2
v 0.4 1.9 0.2
v 0.4 1.7 -0.2
v 0.4 1.9 -0.2
v 0.4 0.6 -0.3
v 0.4 1.9 -0.3
v -0.5 1.9 1.1
v -0.5 2 1.1
v -0.5 1.9 1
v -0.5 2 1
v -0.5 1.9 -1
v -0.5 2 -1
v -0.5 1.9 -1.1
v -0.5 2 -1.1
v 0.5 1.6 1.1
v 0.5 2 1.1
v 0.5 1.6 1
v 0.5 2 1
v 0.5 1.1 0.3
v 0.5 1.7 0.3
v 0.5 1 0.2
v 0.5 1.1 0.2
v 0.5 1.7 0.2
v 0.5 1 0.1
v 0.5 1.7 0.1
v 0.5 1 -0.1
v 0.5 1.7 -0.1
v 0.5 1 -0.2
v 0.5 1.1 -0.2
v 0.5 1.7 -0.2
v 0.5 1.1 -0.3
v 0.5 1.7 -0.3
v 0.5 1.6 -1
v 0.5 2 -1
v 0.5 1.6 -1.1
v 0.5 2 -1.1
v -0.4 2.1 0.5
v -0.4 2.2 0.5
v -0.4 2.1 -0.5
v -0.4 2.2 -0.5
v -0.5 0.6 1
v -0.5 1.9 1
v -0.5 1.7 0.9
v -0.5 1.8 0.9
v -0.5 1.6 0.8
v -0.5 1.7 0.8
v -0.5 1.6 0.7
v -0.5 1.7 0.7
v -0.5 1.3 0.5
v -0.5 1.7 0.5
v -0.5 1.4 0.4
v -0.5 1.7 0.4
v -0.5 1.5 0.3
v -0.5 1.6 0.3
v -0.5 1.4 0.2
v -0.5 1.5 0.2
v -0.5 1.3 0.1
v -0.5 1.6 0.1
v -0.5 1.3 -0.1
v -0.5 1.6 -0.1
v -0.5 1.4 -0.2
v -0.5 1.5 -0.2
v -0.5 1.5 -0.3
v -0.5 1.6 -0.3
v -0.5 1.4 -0.4
v -0.5 1.7 -0.4
v -0.5 1.3 -0.5
v -0.5 1.7 -0.5
v -0.5 1.6 -0.7
v -0.5 1.7 -0.7
v -0.5 1.6 -0.8
v -0.5 1.7 -0.8
v -0.5 1.7 -0.9
v -0.5 1.8 -0.9
v -0.5 0.6 -1
v -0.5 1.9 -1
v -0.6 1.9 1.1
v -0.6 2.1 1.1
v -0.6 1.9 -1.1
v -0.6 2.1 -1.1
v 0.6 0.6 0.9
v 0.6 0.6 0.3
v 0.6 0.6 -0.3
v 0.6 0.6 -0.9
v 0.5 0.6 1
v 0.5 0.6 0.9
v 0.5 0.6 -0.9
v 0.5 0.6 -1
v 0.4 0.6 0.4
v 0.4 0.6 0.3
v 0.4 0.6 -0.3
v 0.4 0.6 -0.4
v 0.3 0.6 0.4
v 0.3 0.6 -0.4
v -0.5 0.6 1
v -0.5 0.6 -1
v 0.7 1 0.2
v 0.7 1 0.1
v 0.7 1 -0.1
v 0.7 1 -0.2
v 0.5 1 0.2
v 0.5 1 0.1
v 0.5 1 -0.1
v 0.5 1 -0.2
v 0.7 1.1 0.3
v 0.7 1.1 0.2
v 0.7 1.1 -0.2
v 0.7 1.1 -0.3
v 0.6 1.1 0.3
v 0.6 1.1 -0.3
v 0.5 1.1 0.3
v 0.5 1.1 0.2
v 0.5 1.1 -0.2
v 0.5 1.1 -0.3
v 0.6 1.6 1.1
v 0.6 1.6 0.8
v 0.6 1.6 -0.8
v 0.6 1.6 -1.1
v 0.5 1.6 1.1
v 0.5 1.6 1
v 0.5 1.6 0.8
v 0.5 1.6 -0.8
v 0.5 1.6 -1
v 0.5 1.6 -1.1
v 0.6 1.7 0.1
v 0.6 1.7 -0.1
v 0.5 1.7 0.2
v 0.5 1.7 0.1
v 0.5 1.7 -0.1
v 0.5 1.7 -0.2
v 0.4 1.7 0.2
v 0.4 1.7 -0.2
v 0.7 1.8 0.2
v 0.7 1.8 -0.2
v 0.6 1.8 0.2
v 0.6 1.8 -0.2
v 0.5 1.9 0.3
v 0.5 1.9 0.2
v 0.5 1.9 -0.2
v 0.5 1.9 -0.3
v 0.4 1.9 0.3
v 0.4 1.9 0.2
v 0.4 1.9 -0.2
v 0.4 1.9 -0.3
v -0.5 1.9 1.1
v -0.5 1.9 1
v -0.5 1.9 -1
v -0.5 1.9 -1.1
v -0.6 1.9 1.1
v -0.6 1.9 -1.1
v 0.5 2 1.1
v 0.5 2 1
v 0.5 2 -1
v 0.5 2 -1.1
v -0.5 2 1.1
v -0.5 2 1
v -0.5 2 -1
v -0.5 2 -1.1
v 0.6 1.5 0.9
v 0.6 1.5 0.8
v 0.6 1.5 -0.8
v 0.6 1.5 -0.9
v 0.5 1.5 0.9
v 0.5 1.5 0.8
v 0.5 1.5 -0.8
v 0.5 1.5 -0.9
v 0.7 1.7 0.3
v 0.7 1.7 0.1
v 0.7 1.7 -0.1
v 0.7 1.7 -0.3
v 0.6 1.7 0.3
v 0.6 1.7 0.2
v 0.6 1.7 0.1
v 0.6 1.7 -0.1
v 0.6 1.7 -0.2
v 0.6 1.7 -0.3
v 0.5 1.7 0.3
v 0.5 1.7 0.2
v 0.5 1.7 -0.2
v 0.5 1.7 -0.3
v 0.6 2.1 1.1
v 0.6 2.1 0.3
v 0.6 2.1 -0.3
v 0.6 2.1 -1.1
v 0.5 2.1 0.5
v 0.5 2.1 0.3
v 0.5 2.1 -0.3
v 0.5 2.1 -0.5
v -0.4 2.1 0.5
v -0.4 2.1 -0.5
v -0.6 2.1 1.1
v -0.6 2.1 -1.1
v 0.7 2.2 0.2
v 0.7 2.2 -0.2
v 0.5 2.2 0.5
v 0.5 2.2 0.2
v 0.5 2.2 -0.2
v 0.5 2.2 -0.5
v -0.4 2.2 0.5
v -0.4 2.2 -0.5

# faces
f 5/2/1 2/2/1 1/2/1
f 6/2/1 4/2/1 3/2/1
f 7/2/1 5/2/1 1/2/1
f 7/2/1 6/2/1 5/2/1
f 8/2/1 4/2/1 6/2/1
f 8/2/1 6/2/1 7/2/1
f 11/2/1 10/2/1 9/2/1
f 12/2/1 10/2/1 11/2/1
f 13/2/1 12/2/1 11/2/1
f 14/2/1 12/2/1 13/2/1
f 17/2/1 16/2/1 15/2/1
f 18/2/1 16/2/1 17/2/1
f 21/2/1 20/2/1 19/2/1
f 22/2/1 20/2/1 21/2/1
f 25/3/1 24/3/1 23/3/1
f 26/3/1 24/3/1 25/3/1
f 29/3/1 28/3/1 27/3/1
f 30/3/1 28/3/1 29/3/1
f 33/3/1 32/3/1 31/3/1
f 34/3/1 32/3/1 33/3/1
f 39/3/1 36/3/1 35/3/1
f 39/3/1 37/3/1 36/3/1
f 40/3/1 37/3/1 39/3/1
f 40/3/1 39/3/1 38/3/1
f 41/3/1 37/3/1 40/3/1
f 42/3/1 40/3/1 38/3/1
f 43/3/1 40/3/1 42/3/1
f 46/3/1 45/3/1 44/3/1
f 47/3/1 45/3/1 46/3/1
f 48/3/1 45/3/1 47/3/1
f 51/2/1 50/2/1 49/2/1
f 52/2/1 50/2/1 51/2/1
f 54/2/1 50/2/1 52/2/1
f 55/2/1 50/2/1 54/2/1
f 55/2/1 54/2/1 53/2/1
f 56/2/1 50/2/1 55/2/1
f 57/2/1 55/2/1 53/2/1
f 58/2/1 55/2/1 57/2/1
f 59/2/2 60/2/2 61/2/2
f 61/2/2 60/2/2 62/2/2
f 62/2/2 60/2/2 64/2/2
f 64/2/2 60/2/2 65/2/2
f 63/2/2 64/2/2 65/2/2
f 65/2/2 60/2/2 66/2/2
f 63/2/2 65/2/2 67/2/2
f 67/2/2 65/2/2 68/2/2
f 69/3/2 70/3/2 71/3/2
f 71/3/2 70/3/2 72/3/2
f 72/3/2 70/3/2 73/3/2
f 74/3/2 75/3/2 76/3/2
f 76/3/2 75/3/2 77/3/2
f 78/3/2 79/3/2 82/3/2
f 79/3/2 80/3/2 82/3/2
f 82/3/2 80/3/2 83/3/2
f 81/3/2 82/3/2 83/3/2
f 83/3/2 80/3/2 84/3/2
f 81/3/2 83/3/2 85/3/2
f 85/3/2 83/3/2 86/3/2
f 87/3/2 88/3/2 89/3/2
f 89/3/2 88/3/2 90/3/2
f 91/3/2 92/3/2 93/3/2
f 93/3/2 92/3/2 94/3/2
f 95/2/2 96/2/2 97/2/2
f 97/2/2 96/2/2 98/2/2
f 99/2/2 100/2/2 101/2/2
f 101/2/2 100/2/2 102/2/2
f 103/2/2 104/2/2 105/2/2
f 105/2/2 104/2/2 106/2/2
f 105/2/2 106/2/2 107/2/2
f 107/2/2 106/2/2 108/2/2
f 109/2/2 110/2/2 113/2/2
f 111/2/2 112/2/2 114/2/2
f 109/2/2 113/2/2 115/2/2
f 113/2/2 114/2/2 115/2/2
f 114/2/2 112/2/2 116/2/2
f 115/2/2 114/2/2 116/2/2
f 120/3/3 118/3/3 117/3/3
f 123/3/3 120/3/3 119/3/3
f 124/3/3 118/3/3 120/3/3
f 124/3/3 120/3/3 123/3/3
f 127/3/3 126/3/3 125/3/3
f 128/3/3 126/3/3 127/3/3
f 129/3/3 122/3/3 121/3/3
f 130/3/3 122/3/3 129/3/3
f 131/3/3 126/3/3 128/3/3
f 132/3/3 126/3/3 131/3/3
f 135/2/3 134/2/3 133/2/3
f 136/2/3 134/2/3 135/2/3
f 139/4/3 136/4/3 135/4/3
f 140/4/3 136/4/3 139/4/3
f 141/2/3 138/2/3 137/2/3
f 142/2/3 138/2/3 141/2/3
f 143/2/3 138/2/3 142/2/3
f 144/2/3 135/2/3 133/2/3
f 145/4/3 136/4/3 140/4/3
f 145/2/3 140/2/3 139/2/3
f 146/2/3 134/2/3 136/2/3
f 146/4/3 136/4/3 145/4/3
f 147/2/3 141/2/3 137/2/3
f 148/2/3 141/2/3 147/2/3
f 149/4/3 142/4/3 141/4/3
f 150/4/3 142/4/3 149/4/3
f 151/2/3 143/2/3 142/2/3
f 151/2/3 144/2/3 143/2/3
f 152/4/3 139/4/3 135/4/3
f 152/2/3 144/2/3 151/2/3
f 152/2/3 135/2/3 144/2/3
f 153/2/3 145/2/3 139/2/3
f 153/4/3 139/4/3 152/4/3
f 153/2/3 146/2/3 145/2/3
f 154/2/3 134/2/3 146/2/3
f 154/2/3 146/2/3 153/2/3
f 155/4/3 148/4/3 147/4/3
f 155/2/3 147/2/3 137/2/3
f 156/4/3 148/4/3 155/4/3
f 157/4/3 149/4/3 141/4/3
f 157/2/3 141/2/3 148/2/3
f 158/2/3 150/2/3 149/2/3
f 158/4/3 149/4/3 157/4/3
f 159/4/3 152/4/3 151/4/3
f 159/2/3 151/2/3 142/2/3
f 159/4/3 153/4/3 152/4/3
f 159/4/3 154/4/3 153/4/3
f 160/4/3 154/4/3 159/4/3
f 161/2/3 155/2/3 137/2/3
f 161/2/3 156/2/3 155/2/3
f 162/4/3 148/4/3 156/4/3
f 162/2/3 156/2/3 161/2/3
f 163/2/3 157/2/3 148/2/3
f 163/4/3 148/4/3 162/4/3
f 163/2/3 158/2/3 157/2/3
f 164/4/3 142/4/3 150/4/3
f 164/2/3 158/2/3 163/2/3
f 164/2/3 150/2/3 158/2/3
f 165/2/3 160/2/3 159/2/3
f 166/4/3 154/4/3 160/4/3
f 166/2/3 160/2/3 165/2/3
f 167/4/3 163/4/3 162/4/3
f 167/4/3 162/4/3 161/4/3
f 167/2/3 161/2/3 137/2/3
f 167/4/3 164/4/3 163/4/3
f 168/2/3 159/2/3 142/2/3
f 168/4/3 164/4/3 167/4/3
f 168/2/3 165/2/3 159/2/3
f 168/4/3 142/4/3 164/4/3
f 169/4/3 166/4/3 165/4/3
f 169/2/3 165/2/3 168/2/3
f 170/4/3 154/4/3 166/4/3
f 170/4/3 166/4/3 169/4/3
f 170/2/3 134/2/3 154/2/3
f 171/2/3 169/2/3 168/2/3
f 171/2/3 168/2/3 167/2/3
f 171/2/3 170/2/3 169/2/3
f 171/2/3 167/2/3 137/2/3
f 172/2/3 170/2/3 171/2/3
f 173/2/3 170/2/3 172/2/3
f 174/2/3 134/2/3 170/2/3
f 174/2/3 170/2/3 173/2/3
f 177/3/3 176/3/3 175/3/3
f 178/3/3 176/3/3 177/3/3
f 179/3/3 176/3/3 178/3/3
f 180/3/3 176/3/3 179/3/3
f 185/2/3 183/2/3 182/2/3
f 185/2/3 184/2/3 183/2/3
f 185/2/3 182/2/3 181/2/3
f 186/2/3 184/2/3 185/2/3
f 187/2/3 184/2/3 186/2/3
f 188/2/3 184/2/3 187/2/3
f 189/2/3 185/2/3 181/2/3
f 189/4/3 186/4/3 185/4/3
f 190/4/3 186/4/3 189/4/3
f 191/4/3 186/4/3 190/4/3
f 192/4/3 186/4/3 191/4/3
f 193/4/3 188/4/3 187/4/3
f 193/2/3 187/2/3 186/2/3
f 194/4/3 188/4/3 193/4/3
f 195/2/3 190/2/3 189/2/3
f 196/4/3 191/4/3 190/4/3
f 196/2/3 190/2/3 195/2/3
f 197/2/3 192/2/3 191/2/3
f 198/2/3 192/2/3 197/2/3
f 199/2/3 193/2/3 186/2/3
f 199/2/3 194/2/3 193/2/3
f 200/4/3 188/4/3 194/4/3
f 200/2/3 194/2/3 199/2/3
f 201/2/3 195/2/3 189/2/3
f 201/4/3 196/4/3 195/4/3
f 202/4/3 191/4/3 196/4/3
f 202/4/3 196/4/3 201/4/3
f 202/2/3 197/2/3 191/2/3
f 203/2/3 192/2/3 198/2/3
f 203/4/3 198/4/3 197/4/3
f 204/4/3 186/4/3 192/4/3
f 204/2/3 192/2/3 203/2/3
f 205/2/3 199/2/3 186/2/3
f 205/4/3 200/4/3 199/4/3
f 206/4/3 200/4/3 205/4/3
f 207/4/3 200/4/3 206/4/3
f 208/2/3 184/2/3 188/2/3
f 208/4/3 200/4/3 207/4/3
f 208/4/3 188/4/3 200/4/3
f 209/4/3 203/4/3 197/4/3
f 209/2/3 197/2/3 202/2/3
f 209/2/3 202/2/3 201/2/3
f 209/4/3 204/4/3 203/4/3
f 210/4/3 186/4/3 204/4/3
f 210/4/3 204/4/3 209/4/3
f 210/2/3 206/2/3 205/2/3
f 210/2/3 205/2/3 186/2/3
f 211/2/3 206/2/3 210/2/3
f 212/2/3 206/2/3 211/2/3
f 213/2/3 208/2/3 207/2/3
f 214/2/3 184/2/3 208/2/3
f 214/2/3 208/2/3 213/2/3
f 215/2/3 201/2/3 189/2/3
f 215/2/3 189/2/3 181/2/3
f 215/2/3 209/2/3 201/2/3
f 215/2/3 211/2/3 210/2/3
f 215/2/3 210/2/3 209/2/3
f 216/2/3 211/2/3 215/2/3
f 217/4/3 207/4/3 206/4/3
f 217/2/3 213/2/3 207/2/3
f 218/4/3 214/4/3 213/4/3
f 218/2/3 213/2/3 217/2/3
f 219/4/3 217/4/3 206/4/3
f 219/4/3 218/4/3 217/4/3
f 219/2/3 206/2/3 212/2/3
f 220/4/3 214/4/3 218/4/3
f 220/4/3 218/4/3 219/4/3
f 220/2/3 184/2/3 214/2/3
f 221/2/3 219/2/3 212/2/3
f 221/2/3 220/2/3 219/2/3
f 222/2/3 184/2/3 220/2/3
f 222/2/3 220/2/3 221/2/3
f 225/2/3 224/2/3 223/2/3
f 226/2/3 224/2/3 225/2/3
f 227/2/3 224/2/3 226/2/3
f 228/2/3 224/2/3 227/2/3
f 232/3/3 230/3/3 229/3/3
f 233/3/3 232/3/3 231/3/3
f 234/3/3 230/3/3 232/3/3
f 234/3/3 232/3/3 233/3/3
f 237/3/3 236/3/3 235/3/3
f 238/3/3 236/3/3 237/3/3
f 239/3/3 236/3/3 238/3/3
f 240/3/3 236/3/3 239/3/3
f 244/2/3 242/2/3 241/2/3
f 245/2/3 244/2/3 243/2/3
f 246/2/3 242/2/3 244/2/3
f 246/2/3 244/2/3 245/2/3
f 249/1/3 248/1/3 247/1/3
f 250/1/3 248/1/3 249/1/3
f 251/1/3 249/1/3 247/1/3
f 253/1/3 251/1/3 247/1/3
f 253/1/3 252/1/3 251/1/3
f 254/1/3 252/1/3 253/1/3
f 257/2/3 256/2/3 255/2/3
f 258/2/3 256/2/3 257/2/3
f 261/2/3 260/2/3 259/2/3
f 262/2/3 260/2/3 261/2/3
f 263/2/4 264/2/4 265/2/4
f 265/2/4 264/2/4 266/2/4
f 267/3/4 268/3/4 270/3/4
f 270/3/4 268/3/4 271/3/4
f 269/3/4 270/3/4 272/3/4
f 270/3/4 271/3/4 272/3/4
f 272/3/4 271/3/4 273/3/4
f 274/3/4 275/3/4 276/3/4
f 276/3/4 275/3/4 277/3/4
f 277/3/4 275/3/4 278/3/4
f 277/3/4 278/3/4 279/3/4
f 279/3/4 278/3/4 280/3/4
f 281/2/4 282/2/4 283/2/4
f 283/2/4 282/2/4 284/2/4
f 285/3/4 286/3/4 287/3/4
f 287/3/4 286/3/4 288/3/4
f 289/2/4 290/2/4 291/2/4
f 291/2/4 290/2/4 292/2/4
f 289/2/4 291/2/4 293/2/4
f 291/4/4 292/4/4 294/4/4
f 293/2/4 291/2/4 294/2/4
f 289/2/4 293/2/4 295/2/4
f 293/4/4 294/4/4 295/4/4
f 294/4/4 292/4/4 296/4/4
f 295/4/4 294/4/4 296/4/4
f 289/2/4 295/2/4 297/2/4
f 295/2/4 296/2/4 297/2/4
f 296/4/4 292/4/4 298/4/4
f 297/2/4 296/2/4 298/2/4
f 297/4/4 298/4/4 299/4/4
f 298/4/4 292/4/4 300/4/4
f 299/4/4 298/4/4 300/4/4
f 299/2/4 300/2/4 301/2/4
f 301/2/4 300/2/4 302/2/4
f 297/4/4 299/4/4 303/4/4
f 299/2/4 301/2/4 303/2/4
f 301/4/4 302/4/4 304/4/4
f 303/2/4 301/2/4 304/2/4
f 289/2/4 297/2/4 305/2/4
f 297/4/4 303/4/4 305/4/4
f 303/4/4 304/4/4 305/4/4
f 304/4/4 302/4/4 306/4/4
f 305/4/4 304/4/4 306/4/4
f 302/2/4 300/2/4 306/2/4
f 289/2/4 305/2/4 307/2/4
f 305/2/4 306/2/4 307/2/4
f 306/2/4 300/2/4 308/2/4
f 307/2/4 306/2/4 308/2/4
f 307/4/4 308/4/4 309/4/4
f 309/4/4 308/4/4 310/4/4
f 309/2/4 310/2/4 311/2/4
f 310/4/4 308/4/4 311/4/4
f 308/2/4 300/2/4 312/2/4
f 311/4/4 308/4/4 312/4/4
f 309/2/4 311/2/4 313/2/4
f 307/4/4 309/4/4 313/4/4
f 311/2/4 312/2/4 313/2/4
f 300/4/4 292/4/4 314/4/4
f 313/2/4 312/2/4 314/2/4
f 312/2/4 300/2/4 314/2/4
f 289/2/4 307/2/4 315/2/4
f 307/4/4 313/4/4 315/4/4
f 313/4/4 314/4/4 315/4/4
f 314/4/4 292/4/4 316/4/4
f 315/4/4 314/4/4 316/4/4
f 315/2/4 316/2/4 317/2/4
f 316/4/4 292/4/4 318/4/4
f 317/2/4 316/2/4 318/2/4
f 315/2/4 317/2/4 319/2/4
f 317/4/4 318/4/4 319/4/4
f 318/4/4 292/4/4 320/4/4
f 319/4/4 318/4/4 320/4/4
f 319/2/4 320/2/4 321/2/4
f 320/4/4 292/4/4 321/4/4
f 292/2/4 290/2/4 322/2/4
f 321/4/4 292/4/4 322/4/4
f 319/2/4 321/2/4 323/2/4
f 289/2/4 315/2/4 323/2/4
f 321/2/4 322/2/4 323/2/4
f 315/2/4 319/2/4 323/2/4
f 322/2/4 290/2/4 324/2/4
f 323/2/4 322/2/4 324/2/4
f 325/2/4 326/2/4 327/2/4
f 327/2/4 326/2/4 328/2/4
f 334/2/5 330/2/5 329/2/5
f 335/2/5 332/2/5 331/2/5
f 337/2/5 334/2/5 333/2/5
f 337/2/5 330/2/5 334/2/5
f 338/2/5 330/2/5 337/2/5
f 339/2/5 336/2/5 335/2/5
f 339/2/5 335/2/5 331/2/5
f 340/2/5 336/2/5 339/2/5
f 341/1/5 338/1/5 337/1/5
f 341/2/5 337/2/5 333/2/5
f 341/1/5 340/1/5 339/1/5
f 341/1/5 339/1/5 338/1/5
f 342/2/5 336/2/5 340/2/5
f 342/1/5 340/1/5 341/1/5
f 343/2/5 341/2/5 333/2/5
f 343/2/5 342/2/5 341/2/5
f 344/2/5 336/2/5 342/2/5
f 344/2/5 342/2/5 343/2/5
f 349/3/5 346/3/5 345/3/5
f 350/3/5 346/3/5 349/3/5
f 351/3/5 348/3/5 347/3/5
f 352/3/5 348/3/5 351/3/5
f 357/3/5 354/3/5 353/3/5
f 358/3/5 356/3/5 355/3/5
f 359/3/5 354/3/5 357/3/5
f 360/3/5 354/3/5 359/3/5
f 361/3/5 358/3/5 355/3/5
f 362/3/5 358/3/5 361/3/5
f 367/2/5 364/2/5 363/2/5
f 368/2/5 364/2/5 367/2/5
f 369/2/5 364/2/5 368/2/5
f 370/2/5 366/2/5 365/2/5
f 371/2/5 366/2/5 370/2/5
f 372/2/5 366/2/5 371/2/5
f 376/3/5 374/3/5 373/3/5
f 377/3/5 374/3/5 376/3/5
f 379/3/5 376/3/5 375/3/5
f 379/3/5 378/3/5 377/3/5
f 379/3/5 377/3/5 376/3/5
f 380/3/5 378/3/5 379/3/5
f 383/3/5 382/3/5 381/3/5
f 384/3/5 382/3/5 383/3/5
f 389/3/5 386/3/5 385/3/5
f 390/3/5 386/3/5 389/3/5
f 391/3/5 388/3/5 387/3/5
f 392/3/5 388/3/5 391/3/5
f 397/2/5 394/2/5 393/2/5
f 397/2/5 396/2/5 395/2/5
f 397/2/5 395/2/5 394/2/5
f 398/2/5 396/2/5 397/2/5
f 403/2/5 400/2/5 399/2/5
f 404/2/5 400/2/5 403/2/5
f 405/2/5 402/2/5 401/2/5
f 406/2/5 402/2/5 405/2/5
f 407/2/6 408/2/6 411/2/6
f 411/2/6 408/2/6 412/2/6
f 409/2/6 410/2/6 413/2/6
f 413/2/6 410/2/6 414/2/6
f 415/3/6 416/3/6 419/3/6
f 419/3/6 416/3/6 420/3/6
f 420/3/6 416/3/6 421/3/6
f 417/3/6 418/3/6 422/3/6
f 422/3/6 418/3/6 423/3/6
f 423/3/6 418/3/6 424/3/6
f 419/3/6 420/3/6 425/3/6
f 425/3/6 420/3/6 426/3/6
f 423/3/6 424/3/6 427/3/6
f 427/3/6 424/3/6 428/3/6
f 429/2/6 430/2/6 433/2/6
f 433/2/6 430/2/6 434/2/6
f 431/2/6 432/2/6 435/2/6
f 435/2/6 432/2/6 436/2/6
f 429/2/6 433/2/6 437/2/6
f 436/2/6 432/2/6 438/2/6
f 429/2/6 437/2/6 439/2/6
f 437/2/6 438/2/6 439/2/6
f 438/2/6 432/2/6 440/2/6
f 439/2/6 438/2/6 440/2/6
f 441/3/6 442/3/6 444/3/6
f 444/3/6 442/3/6 445/3/6
f 443/3/6 444/3/6 447/3/6
f 445/3/6 446/3/6 447/3/6
f 444/3/6 445/3/6 447/3/6
f 447/3/6 446/3/6 448/3/6
