# MagicaVoxel @ Ephtracy

# group
o 

# material
mtllib model.mtl
usemtl palette

# normals
vn -1 0 0
vn 1 0 0
vn 0 0 1
vn 0 0 -1
vn 0 -1 0
vn 0 1 0

# texcoords
vt 0.0292969 0.5
vt 0.814453 0.5
vt 0.822266 0.5

# verts
v -0.1 0 -0.3
v -0.1 0 -0.5
v -0.1 0.1 0.3
v -0.1 0.1 -0.3
v -0.1 0.2 0.3
v -0.1 0.2 -0.5
v -0.1 0.6 0.7
v -0.1 0.6 0.4
v -0.1 0.6 -0.4
v -0.1 0.6 -0.7
v -0.1 0.9 0.6
v -0.1 0.9 0.5
v -0.1 0.9 -0.5
v -0.1 0.9 -0.6
v -0.1 1 0.6
v -0.1 1 0.5
v -0.1 1 -0.5
v -0.1 1 -0.6
v -0.1 1.1 0.7
v -0.1 1.1 0.4
v -0.1 1.1 -0.4
v -0.1 1.1 -0.7
v -0.1 1.2 0.9
v -0.1 1.2 0.4
v -0.1 1.2 -0.4
v -0.1 1.2 -0.9
v -0.1 1.3 0.4
v -0.1 1.3 0.3
v -0.1 1.3 -0.3
v -0.1 1.3 -0.4
v -0.1 1.4 0.9
v -0.1 1.4 0.5
v -0.1 1.4 0.3
v -0.1 1.4 0.2
v -0.1 1.4 -0.2
v -0.1 1.4 -0.3
v -0.1 1.4 -0.5
v -0.1 1.4 -0.9
v -0.1 1.5 0.5
v -0.1 1.5 0.4
v -0.1 1.5 -0.4
v -0.1 1.5 -0.5
v -0.1 1.7 0.4
v -0.1 1.7 0.2
v -0.1 1.7 -0.2
v -0.1 1.7 -0.4
v 0 0 -0.3
v 0 0 -0.5
v 0 0.1 0.3
v 0 0.1 -0.3
v 0 0.2 0.3
v 0 0.2 -0.5
v 0 0.6 0.7
v 0 0.6 0.4
v 0 0.6 -0.4
v 0 0.6 -0.7
v 0 0.9 0.6
v 0 0.9 0.5
v 0 0.9 -0.5
v 0 0.9 -0.6
v 0 1 0.6
v 0 1 0.5
v 0 1 -0.5
v 0 1 -0.6
v 0 1.1 0.7
v 0 1.1 0.4
v 0 1.1 -0.4
v 0 1.1 -0.7
v 0.1 1.2 0.9
v 0.1 1.2 0.4
v 0.1 1.2 -0.4
v 0.1 1.2 -0.9
v 0.1 1.3 0.4
v 0.1 1.3 0.3
v 0.1 1.3 -0.3
v 0.1 1.3 -0.4
v 0.1 1.4 0.9
v 0.1 1.4 0.5
v 0.1 1.4 0.3
v 0.1 1.4 0.2
v 0.1 1.4 -0.2
v 0.1 1.4 -0.3
v 0.1 1.4 -0.5
v 0.1 1.4 -0.9
v 0.1 1.5 0.5
v 0.1 1.5 0.4
v 0.1 1.5 -0.4
v 0.1 1.5 -0.5
v 0.1 1.7 0.4
v 0.1 1.7 0.2
v 0.1 1.7 -0.2
v 0.1 1.7 -0.4
v -0.1 1.2 0.9
v -0.1 1.4 0.9
v 0.1 1.2 0.9
v 0.1 1.4 0.9
v -0.1 0.6 0.7
v -0.1 1.1 0.7
v 0 0.6 0.7
v 0 1.1 0.7
v -0.1 1.4 0.5
v -0.1 1.5 0.5
v 0.1 1.4 0.5
v 0.1 1.5 0.5
v -0.1 1.5 0.4
v -0.1 1.7 0.4
v 0.1 1.5 0.4
v 0.1 1.7 0.4
v -0.1 0.1 0.3
v -0.1 0.2 0.3
v 0 0.1 0.3
v 0 0.2 0.3
v -0.1 1.4 -0.2
v -0.1 1.7 -0.2
v 0.1 1.4 -0.2
v 0.1 1.7 -0.2
v -0.1 0 -0.3
v -0.1 0.1 -0.3
v -0.1 1.3 -0.3
v -0.1 1.4 -0.3
v 0 0 -0.3
v 0 0.1 -0.3
v 0.1 1.3 -0.3
v 0.1 1.4 -0.3
v -0.1 0.6 -0.4
v -0.1 1.1 -0.4
v -0.1 1.2 -0.4
v -0.1 1.3 -0.4
v 0 0.6 -0.4
v 0 1.1 -0.4
v 0.1 1.2 -0.4
v 0.1 1.3 -0.4
v -0.1 0.6 0.4
v -0.1 1.1 0.4
v -0.1 1.2 0.4
v -0.1 1.3 0.4
v 0 0.6 0.4
v 0 1.1 0.4
v 0.1 1.2 0.4
v 0.1 1.3 0.4
v -0.1 1.3 0.3
v -0.1 1.4 0.3
v 0.1 1.3 0.3
v 0.1 1.4 0.3
v -0.1 1.4 0.2
v -0.1 1.7 0.2
v 0.1 1.4 0.2
v 0.1 1.7 0.2
v -0.1 1.5 -0.4
v -0.1 1.7 -0.4
v 0.1 1.5 -0.4
v 0.1 1.7 -0.4
v -0.1 0 -0.5
v -0.1 0.2 -0.5
v -0.1 1.4 -0.5
v -0.1 1.5 -0.5
v 0 0 -0.5
v 0 0.2 -0.5
v 0.1 1.4 -0.5
v 0.1 1.5 -0.5
v -0.1 0.6 -0.7
v -0.1 1.1 -0.7
v 0 0.6 -0.7
v 0 1.1 -0.7
v -0.1 1.2 -0.9
v -0.1 1.4 -0.9
v 0.1 1.2 -0.9
v 0.1 1.4 -0.9
v -0.1 0 -0.3
v 0 0 -0.3
v -0.1 0 -0.5
v 0 0 -0.5
v -0.1 0.1 0.3
v 0 0.1 0.3
v -0.1 0.1 -0.3
v 0 0.1 -0.3
v -0.1 0.6 0.7
v 0 0.6 0.7
v -0.1 0.6 0.4
v 0 0.6 0.4
v -0.1 0.6 -0.4
v 0 0.6 -0.4
v -0.1 0.6 -0.7
v 0 0.6 -0.7
v -0.1 1.2 0.9
v 0.1 1.2 0.9
v -0.1 1.2 0.4
v 0.1 1.2 0.4
v -0.1 1.2 -0.4
v 0.1 1.2 -0.4
v -0.1 1.2 -0.9
v 0.1 1.2 -0.9
v -0.1 1.3 0.4
v 0.1 1.3 0.4
v -0.1 1.3 0.3
v 0.1 1.3 0.3
v -0.1 1.3 -0.3
v 0.1 1.3 -0.3
v -0.1 1.3 -0.4
v 0.1 1.3 -0.4
v -0.1 1.4 0.3
v 0.1 1.4 0.3
v -0.1 1.4 0.2
v 0.1 1.4 0.2
v -0.1 1.4 -0.2
v 0.1 1.4 -0.2
v -0.1 1.4 -0.3
v 0.1 1.4 -0.3
v -0.1 0.2 0.3
v 0 0.2 0.3
v -0.1 0.2 -0.5
v 0 0.2 -0.5
v -0.1 1.1 0.7
v 0 1.1 0.7
v -0.1 1.1 0.4
v 0 1.1 0.4
v -0.1 1.1 -0.4
v 0 1.1 -0.4
v -0.1 1.1 -0.7
v 0 1.1 -0.7
v -0.1 1.4 0.9
v 0.1 1.4 0.9
v -0.1 1.4 0.5
v 0.1 1.4 0.5
v -0.1 1.4 -0.5
v 0.1 1.4 -0.5
v -0.1 1.4 -0.9
v 0.1 1.4 -0.9
v -0.1 1.5 0.5
v 0.1 1.5 0.5
v -0.1 1.5 0.4
v 0.1 1.5 0.4
v -0.1 1.5 -0.4
v 0.1 1.5 -0.4
v -0.1 1.5 -0.5
v 0.1 1.5 -0.5
v -0.1 1.7 0.4
v 0.1 1.7 0.4
v -0.1 1.7 0.2
v 0.1 1.7 0.2
v -0.1 1.7 -0.2
v 0.1 1.7 -0.2
v -0.1 1.7 -0.4
v 0.1 1.7 -0.4

# faces
f 4/2/1 2/2/1 1/2/1
f 5/2/1 4/2/1 3/2/1
f 6/2/1 2/2/1 4/2/1
f 6/2/1 4/2/1 5/2/1
f 11/2/1 8/2/1 7/2/1
f 12/2/1 8/2/1 11/2/1
f 13/2/1 10/2/1 9/2/1
f 14/2/1 10/2/1 13/2/1
f 15/2/1 11/2/1 7/2/1
f 15/1/1 12/1/1 11/1/1
f 16/2/1 8/2/1 12/2/1
f 16/1/1 12/1/1 15/1/1
f 17/1/1 14/1/1 13/1/1
f 17/2/1 13/2/1 9/2/1
f 18/2/1 10/2/1 14/2/1
f 18/1/1 14/1/1 17/1/1
f 19/2/1 15/2/1 7/2/1
f 19/2/1 16/2/1 15/2/1
f 20/2/1 8/2/1 16/2/1
f 20/2/1 16/2/1 19/2/1
f 21/2/1 17/2/1 9/2/1
f 21/2/1 18/2/1 17/2/1
f 22/2/1 10/2/1 18/2/1
f 22/2/1 18/2/1 21/2/1
f 27/3/1 24/3/1 23/3/1
f 30/3/1 26/3/1 25/3/1
f 31/3/1 28/3/1 27/3/1
f 31/3/1 27/3/1 23/3/1
f 32/3/1 28/3/1 31/3/1
f 33/3/1 28/3/1 32/3/1
f 36/3/1 30/3/1 29/3/1
f 37/3/1 26/3/1 30/3/1
f 37/3/1 30/3/1 36/3/1
f 38/3/1 26/3/1 37/3/1
f 39/3/1 34/3/1 33/3/1
f 39/3/1 33/3/1 32/3/1
f 40/3/1 34/3/1 39/3/1
f 41/3/1 36/3/1 35/3/1
f 41/3/1 37/3/1 36/3/1
f 42/3/1 37/3/1 41/3/1
f 43/3/1 34/3/1 40/3/1
f 44/3/1 34/3/1 43/3/1
f 45/3/1 41/3/1 35/3/1
f 46/3/1 41/3/1 45/3/1
f 47/2/2 48/2/2 50/2/2
f 49/2/2 50/2/2 51/2/2
f 50/2/2 48/2/2 52/2/2
f 51/2/2 50/2/2 52/2/2
f 53/2/2 54/2/2 57/2/2
f 57/2/2 54/2/2 58/2/2
f 55/2/2 56/2/2 59/2/2
f 59/2/2 56/2/2 60/2/2
f 53/2/2 57/2/2 61/2/2
f 57/1/2 58/1/2 61/1/2
f 58/2/2 54/2/2 62/2/2
f 61/1/2 58/1/2 62/1/2
f 59/1/2 60/1/2 63/1/2
f 55/2/2 59/2/2 63/2/2
f 60/2/2 56/2/2 64/2/2
f 63/1/2 60/1/2 64/1/2
f 53/2/2 61/2/2 65/2/2
f 61/2/2 62/2/2 65/2/2
f 62/2/2 54/2/2 66/2/2
f 65/2/2 62/2/2 66/2/2
f 55/2/2 63/2/2 67/2/2
f 63/2/2 64/2/2 67/2/2
f 64/2/2 56/2/2 68/2/2
f 67/2/2 64/2/2 68/2/2
f 69/3/2 70/3/2 73/3/2
f 71/3/2 72/3/2 76/3/2
f 73/3/2 74/3/2 77/3/2
f 69/3/2 73/3/2 77/3/2
f 77/3/2 74/3/2 78/3/2
f 78/3/2 74/3/2 79/3/2
f 75/3/2 76/3/2 82/3/2
f 76/3/2 72/3/2 83/3/2
f 82/3/2 76/3/2 83/3/2
f 83/3/2 72/3/2 84/3/2
f 79/3/2 80/3/2 85/3/2
f 78/3/2 79/3/2 85/3/2
f 85/3/2 80/3/2 86/3/2
f 81/3/2 82/3/2 87/3/2
f 82/3/2 83/3/2 87/3/2
f 87/3/2 83/3/2 88/3/2
f 86/3/2 80/3/2 89/3/2
f 89/3/2 80/3/2 90/3/2
f 81/3/2 87/3/2 91/3/2
f 91/3/2 87/3/2 92/3/2
f 95/3/3 94/3/3 93/3/3
f 96/3/3 94/3/3 95/3/3
f 99/2/3 98/2/3 97/2/3
f 100/2/3 98/2/3 99/2/3
f 103/3/3 102/3/3 101/3/3
f 104/3/3 102/3/3 103/3/3
f 107/3/3 106/3/3 105/3/3
f 108/3/3 106/3/3 107/3/3
f 111/2/3 110/2/3 109/2/3
f 112/2/3 110/2/3 111/2/3
f 115/3/3 114/3/3 113/3/3
f 116/3/3 114/3/3 115/3/3
f 121/2/3 118/2/3 117/2/3
f 122/2/3 118/2/3 121/2/3
f 123/3/3 120/3/3 119/3/3
f 124/3/3 120/3/3 123/3/3
f 129/2/3 126/2/3 125/2/3
f 130/2/3 126/2/3 129/2/3
f 131/3/3 128/3/3 127/3/3
f 132/3/3 128/3/3 131/3/3
f 133/2/4 134/2/4 137/2/4
f 137/2/4 134/2/4 138/2/4
f 135/3/4 136/3/4 139/3/4
f 139/3/4 136/3/4 140/3/4
f 141/3/4 142/3/4 143/3/4
f 143/3/4 142/3/4 144/3/4
f 145/3/4 146/3/4 147/3/4
f 147/3/4 146/3/4 148/3/4
f 149/3/4 150/3/4 151/3/4
f 151/3/4 150/3/4 152/3/4
f 153/2/4 154/2/4 157/2/4
f 157/2/4 154/2/4 158/2/4
f 155/3/4 156/3/4 159/3/4
f 159/3/4 156/3/4 160/3/4
f 161/2/4 162/2/4 163/2/4
f 163/2/4 162/2/4 164/2/4
f 165/3/4 166/3/4 167/3/4
f 167/3/4 166/3/4 168/3/4
f 171/2/5 170/2/5 169/2/5
f 172/2/5 170/2/5 171/2/5
f 175/2/5 174/2/5 173/2/5
f 176/2/5 174/2/5 175/2/5
f 179/2/5 178/2/5 177/2/5
f 180/2/5 178/2/5 179/2/5
f 183/2/5 182/2/5 181/2/5
f 184/2/5 182/2/5 183/2/5
f 187/3/5 186/3/5 185/3/5
f 188/3/5 186/3/5 187/3/5
f 191/3/5 190/3/5 189/3/5
f 192/3/5 190/3/5 191/3/5
f 195/3/5 194/3/5 193/3/5
f 196/3/5 194/3/5 195/3/5
f 199/3/5 198/3/5 197/3/5
f 200/3/5 198/3/5 199/3/5
f 203/3/5 202/3/5 201/3/5
f 204/3/5 202/3/5 203/3/5
f 207/3/5 206/3/5 205/3/5
f 208/3/5 206/3/5 207/3/5
f 209/2/6 210/2/6 211/2/6
f 211/2/6 210/2/6 212/2/6
f 213/2/6 214/2/6 215/2/6
f 215/2/6 214/2/6 216/2/6
f 217/2/6 218/2/6 219/2/6
f 219/2/6 218/2/6 220/2/6
f 221/3/6 222/3/6 223/3/6
f 223/3/6 222/3/6 224/3/6
f 225/3/6 226/3/6 227/3/6
f 227/3/6 226/3/6 228/3/6
f 229/3/6 230/3/6 231/3/6
f 231/3/6 230/3/6 232/3/6
f 233/3/6 234/3/6 235/3/6
f 235/3/6 234/3/6 236/3/6
f 237/3/6 238/3/6 239/3/6
f 239/3/6 238/3/6 240/3/6
f 241/3/6 242/3/6 243/3/6
f 243/3/6 242/3/6 244/3/6
