# MagicaVoxel @ Ephtracy

# group
o 

# material
mtllib model.mtl
usemtl palette

# normals
vn -1 0 0
vn 1 0 0
vn 0 0 1
vn 0 0 -1
vn 0 -1 0
vn 0 1 0

# texcoords
vt 0.0253906 0.5
vt 0.0292969 0.5
vt 0.814453 0.5
vt 0.822266 0.5

# verts
v -0.1 0 0.4
v -0.1 0 -0.4
v -0.1 0.1 0.5
v -0.1 0.1 0.4
v -0.1 0.1 -0.4
v -0.1 0.1 -0.5
v -0.1 0.2 0.5
v -0.1 0.2 -0.5
v -0.1 0.3 0.5
v -0.1 0.3 -0.5
v -0.1 0.6 0.7
v -0.1 0.6 0.4
v -0.1 0.6 -0.4
v -0.1 0.6 -0.7
v -0.1 0.9 0.8
v -0.1 0.9 0.7
v -0.1 0.9 -0.7
v -0.1 0.9 -0.8
v -0.1 1 0.8
v -0.1 1 0.7
v -0.1 1 0.6
v -0.1 1 0.5
v -0.1 1 -0.5
v -0.1 1 -0.6
v -0.1 1 -0.7
v -0.1 1 -0.8
v -0.1 1.1 0.9
v -0.1 1.1 0.7
v -0.1 1.1 0.6
v -0.1 1.1 0.5
v -0.1 1.1 -0.5
v -0.1 1.1 -0.6
v -0.1 1.1 -0.7
v -0.1 1.1 -0.9
v -0.1 1.2 0.9
v -0.1 1.2 0.4
v -0.1 1.2 -0.4
v -0.1 1.2 -0.9
v -0.1 1.3 1
v -0.1 1.3 0.9
v -0.1 1.3 0.4
v -0.1 1.3 0.3
v -0.1 1.4 1
v -0.1 1.4 0.9
v -0.1 1.4 0.4
v -0.1 1.4 0.3
v -0.1 1.5 0.9
v -0.1 1.5 0.4
v -0.1 1.5 -0.3
v -0.1 1.5 -0.4
v -0.1 1.5 -0.9
v -0.1 1.5 -1
v -0.1 1.6 -0.3
v -0.1 1.6 -0.4
v -0.1 1.6 -0.9
v -0.1 1.6 -1
v -0.1 1.7 -0.4
v -0.1 1.7 -0.9
v 0 0 0.4
v 0 0 -0.4
v 0 0.1 0.5
v 0 0.1 0.4
v 0 0.1 -0.4
v 0 0.1 -0.5
v 0 0.2 0.5
v 0 0.2 -0.5
v 0 0.3 0.5
v 0 0.3 -0.5
v 0 0.6 0.7
v 0 0.6 0.4
v 0 0.6 -0.4
v 0 0.6 -0.7
v 0 0.9 0.8
v 0 0.9 0.7
v 0 0.9 -0.7
v 0 0.9 -0.8
v 0 1 0.8
v 0 1 0.7
v 0 1 0.6
v 0 1 0.5
v 0 1 -0.5
v 0 1 -0.6
v 0 1 -0.7
v 0 1 -0.8
v 0 1.1 0.9
v 0 1.1 0.7
v 0 1.1 0.6
v 0 1.1 0.5
v 0 1.1 -0.5
v 0 1.1 -0.6
v 0 1.1 -0.7
v 0 1.1 -0.9
v 0 1.2 0.9
v 0 1.2 0.4
v 0 1.2 -0.4
v 0 1.2 -0.9
v 0.1 1.3 1
v 0.1 1.3 0.9
v 0.1 1.3 0.4
v 0.1 1.3 0.3
v 0.1 1.4 1
v 0.1 1.4 0.9
v 0.1 1.4 0.4
v 0.1 1.4 0.3
v 0.1 1.5 0.9
v 0.1 1.5 0.4
v 0.1 1.5 -0.3
v 0.1 1.5 -0.4
v 0.1 1.5 -0.9
v 0.1 1.5 -1
v 0.1 1.6 -0.3
v 0.1 1.6 -0.4
v 0.1 1.6 -0.9
v 0.1 1.6 -1
v 0.1 1.7 -0.4
v 0.1 1.7 -0.9
v -0.1 1.3 1
v -0.1 1.4 1
v 0.1 1.3 1
v 0.1 1.4 1
v -0.1 1.1 0.9
v -0.1 1.2 0.9
v -0.1 1.4 0.9
v -0.1 1.5 0.9
v 0 1.1 0.9
v 0 1.2 0.9
v 0.1 1.4 0.9
v 0.1 1.5 0.9
v -0.1 0.9 0.8
v -0.1 1 0.8
v 0 0.9 0.8
v 0 1 0.8
v -0.1 0.6 0.7
v -0.1 0.9 0.7
v -0.1 1 0.7
v -0.1 1.1 0.7
v 0 0.6 0.7
v 0 0.9 0.7
v 0 1 0.7
v 0 1.1 0.7
v -0.1 0.1 0.5
v -0.1 0.2 0.5
v -0.1 0.3 0.5
v 0 0.1 0.5
v 0 0.2 0.5
v 0 0.3 0.5
v -0.1 0 0.4
v -0.1 0.1 0.4
v -0.1 1.3 0.4
v -0.1 1.4 0.4
v 0 0 0.4
v 0 0.1 0.4
v 0.1 1.3 0.4
v 0.1 1.4 0.4
v -0.1 1.5 -0.3
v -0.1 1.6 -0.3
v 0.1 1.5 -0.3
v 0.1 1.6 -0.3
v -0.1 0.6 -0.4
v -0.1 1.2 -0.4
v -0.1 1.6 -0.4
v -0.1 1.7 -0.4
v 0 0.6 -0.4
v 0 1.2 -0.4
v 0.1 1.6 -0.4
v 0.1 1.7 -0.4
v -0.1 1.5 -0.9
v -0.1 1.6 -0.9
v 0.1 1.5 -0.9
v 0.1 1.6 -0.9
v -0.1 1.3 0.9
v -0.1 1.4 0.9
v 0.1 1.3 0.9
v 0.1 1.4 0.9
v -0.1 0.6 0.4
v -0.1 1.2 0.4
v -0.1 1.4 0.4
v -0.1 1.5 0.4
v 0 0.6 0.4
v 0 1.2 0.4
v 0.1 1.4 0.4
v 0.1 1.5 0.4
v -0.1 1.3 0.3
v -0.1 1.4 0.3
v 0.1 1.3 0.3
v 0.1 1.4 0.3
v -0.1 0 -0.4
v -0.1 0.1 -0.4
v -0.1 1.5 -0.4
v -0.1 1.6 -0.4
v 0 0 -0.4
v 0 0.1 -0.4
v 0.1 1.5 -0.4
v 0.1 1.6 -0.4
v -0.1 0.1 -0.5
v -0.1 0.2 -0.5
v -0.1 0.3 -0.5
v 0 0.1 -0.5
v 0 0.2 -0.5
v 0 0.3 -0.5
v -0.1 0.6 -0.7
v -0.1 0.9 -0.7
v -0.1 1 -0.7
v -0.1 1.1 -0.7
v 0 0.6 -0.7
v 0 0.9 -0.7
v 0 1 -0.7
v 0 1.1 -0.7
v -0.1 0.9 -0.8
v -0.1 1 -0.8
v 0 0.9 -0.8
v 0 1 -0.8
v -0.1 1.1 -0.9
v -0.1 1.2 -0.9
v -0.1 1.6 -0.9
v -0.1 1.7 -0.9
v 0 1.1 -0.9
v 0 1.2 -0.9
v 0.1 1.6 -0.9
v 0.1 1.7 -0.9
v -0.1 1.5 -1
v -0.1 1.6 -1
v 0.1 1.5 -1
v 0.1 1.6 -1
v -0.1 0 0.4
v 0 0 0.4
v -0.1 0 -0.4
v 0 0 -0.4
v -0.1 0.1 0.5
v 0 0.1 0.5
v -0.1 0.1 0.4
v 0 0.1 0.4
v -0.1 0.1 -0.4
v 0 0.1 -0.4
v -0.1 0.1 -0.5
v 0 0.1 -0.5
v -0.1 0.6 0.7
v 0 0.6 0.7
v -0.1 0.6 0.4
v 0 0.6 0.4
v -0.1 0.6 -0.4
v 0 0.6 -0.4
v -0.1 0.6 -0.7
v 0 0.6 -0.7
v -0.1 0.9 0.8
v 0 0.9 0.8
v -0.1 0.9 0.7
v 0 0.9 0.7
v -0.1 0.9 -0.7
v 0 0.9 -0.7
v -0.1 0.9 -0.8
v 0 0.9 -0.8
v -0.1 1.1 0.9
v 0 1.1 0.9
v -0.1 1.1 0.7
v 0 1.1 0.7
v -0.1 1.1 -0.7
v 0 1.1 -0.7
v -0.1 1.1 -0.9
v 0 1.1 -0.9
v -0.1 1.3 1
v 0.1 1.3 1
v -0.1 1.3 0.9
v 0.1 1.3 0.9
v -0.1 1.3 0.4
v 0.1 1.3 0.4
v -0.1 1.3 0.3
v 0.1 1.3 0.3
v -0.1 1.4 0.9
v 0.1 1.4 0.9
v -0.1 1.4 0.4
v 0.1 1.4 0.4
v -0.1 1.5 -0.3
v 0.1 1.5 -0.3
v -0.1 1.5 -0.4
v 0.1 1.5 -0.4
v -0.1 1.5 -0.9
v 0.1 1.5 -0.9
v -0.1 1.5 -1
v 0.1 1.5 -1
v -0.1 1.6 -0.4
v 0.1 1.6 -0.4
v -0.1 1.6 -0.9
v 0.1 1.6 -0.9
v -0.1 0.3 0.5
v 0 0.3 0.5
v -0.1 0.3 -0.5
v 0 0.3 -0.5
v -0.1 1 0.8
v 0 1 0.8
v -0.1 1 0.7
v 0 1 0.7
v -0.1 1 -0.7
v 0 1 -0.7
v -0.1 1 -0.8
v 0 1 -0.8
v -0.1 1.2 0.9
v 0 1.2 0.9
v -0.1 1.2 0.4
v 0 1.2 0.4
v -0.1 1.2 -0.4
v 0 1.2 -0.4
v -0.1 1.2 -0.9
v 0 1.2 -0.9
v -0.1 1.4 1
v 0.1 1.4 1
v -0.1 1.4 0.9
v 0.1 1.4 0.9
v -0.1 1.4 0.4
v 0.1 1.4 0.4
v -0.1 1.4 0.3
v 0.1 1.4 0.3
v -0.1 1.5 0.9
v 0.1 1.5 0.9
v -0.1 1.5 0.4
v 0.1 1.5 0.4
v -0.1 1.6 -0.3
v 0.1 1.6 -0.3
v -0.1 1.6 -0.4
v 0.1 1.6 -0.4
v -0.1 1.6 -0.9
v 0.1 1.6 -0.9
v -0.1 1.6 -1
v 0.1 1.6 -1
v -0.1 1.7 -0.4
v 0.1 1.7 -0.4
v -0.1 1.7 -0.9
v 0.1 1.7 -0.9

# faces
f 4/2/1 2/2/1 1/2/1
f 5/2/1 2/2/1 4/2/1
f 7/1/1 4/1/1 3/1/1
f 7/1/1 6/1/1 5/1/1
f 7/1/1 5/1/1 4/1/1
f 8/1/1 6/1/1 7/1/1
f 9/2/1 8/2/1 7/2/1
f 10/2/1 8/2/1 9/2/1
f 16/3/1 12/3/1 11/3/1
f 17/3/1 14/3/1 13/3/1
f 19/3/1 16/3/1 15/3/1
f 20/3/1 12/3/1 16/3/1
f 20/3/1 16/3/1 19/3/1
f 21/3/1 12/3/1 20/3/1
f 22/3/1 12/3/1 21/3/1
f 23/3/1 18/3/1 17/3/1
f 23/3/1 17/3/1 13/3/1
f 24/3/1 18/3/1 23/3/1
f 25/3/1 18/3/1 24/3/1
f 26/3/1 18/3/1 25/3/1
f 28/3/1 21/3/1 20/3/1
f 29/2/1 22/2/1 21/2/1
f 29/3/1 21/3/1 28/3/1
f 30/3/1 12/3/1 22/3/1
f 30/2/1 22/2/1 29/2/1
f 31/3/1 23/3/1 13/3/1
f 31/2/1 24/2/1 23/2/1
f 32/3/1 25/3/1 24/3/1
f 32/2/1 24/2/1 31/2/1
f 33/3/1 25/3/1 32/3/1
f 35/3/1 29/3/1 28/3/1
f 35/3/1 28/3/1 27/3/1
f 35/3/1 30/3/1 29/3/1
f 36/3/1 12/3/1 30/3/1
f 36/3/1 30/3/1 35/3/1
f 37/3/1 34/3/1 33/3/1
f 37/3/1 32/3/1 31/3/1
f 37/3/1 33/3/1 32/3/1
f 37/3/1 31/3/1 13/3/1
f 38/3/1 34/3/1 37/3/1
f 43/4/1 40/4/1 39/4/1
f 44/4/1 40/4/1 43/4/1
f 45/4/1 42/4/1 41/4/1
f 46/4/1 42/4/1 45/4/1
f 47/4/1 45/4/1 44/4/1
f 48/4/1 45/4/1 47/4/1
f 53/4/1 50/4/1 49/4/1
f 54/4/1 50/4/1 53/4/1
f 55/4/1 52/4/1 51/4/1
f 56/4/1 52/4/1 55/4/1
f 57/4/1 55/4/1 54/4/1
f 58/4/1 55/4/1 57/4/1
f 59/2/2 60/2/2 62/2/2
f 62/2/2 60/2/2 63/2/2
f 61/1/2 62/1/2 65/1/2
f 63/1/2 64/1/2 65/1/2
f 62/1/2 63/1/2 65/1/2
f 65/1/2 64/1/2 66/1/2
f 65/2/2 66/2/2 67/2/2
f 67/2/2 66/2/2 68/2/2
f 69/3/2 70/3/2 74/3/2
f 71/3/2 72/3/2 75/3/2
f 73/3/2 74/3/2 77/3/2
f 74/3/2 70/3/2 78/3/2
f 77/3/2 74/3/2 78/3/2
f 78/3/2 70/3/2 79/3/2
f 79/3/2 70/3/2 80/3/2
f 75/3/2 76/3/2 81/3/2
f 71/3/2 75/3/2 81/3/2
f 81/3/2 76/3/2 82/3/2
f 82/3/2 76/3/2 83/3/2
f 83/3/2 76/3/2 84/3/2
f 78/3/2 79/3/2 86/3/2
f 79/2/2 80/2/2 87/2/2
f 86/3/2 79/3/2 87/3/2
f 80/3/2 70/3/2 88/3/2
f 87/2/2 80/2/2 88/2/2
f 71/3/2 81/3/2 89/3/2
f 81/2/2 82/2/2 89/2/2
f 82/3/2 83/3/2 90/3/2
f 89/2/2 82/2/2 90/2/2
f 90/3/2 83/3/2 91/3/2
f 86/3/2 87/3/2 93/3/2
f 85/3/2 86/3/2 93/3/2
f 87/3/2 88/3/2 93/3/2
f 88/3/2 70/3/2 94/3/2
f 93/3/2 88/3/2 94/3/2
f 91/3/2 92/3/2 95/3/2
f 89/3/2 90/3/2 95/3/2
f 90/3/2 91/3/2 95/3/2
f 71/3/2 89/3/2 95/3/2
f 95/3/2 92/3/2 96/3/2
f 97/4/2 98/4/2 101/4/2
f 101/4/2 98/4/2 102/4/2
f 99/4/2 100/4/2 103/4/2
f 103/4/2 100/4/2 104/4/2
f 102/4/2 103/4/2 105/4/2
f 105/4/2 103/4/2 106/4/2
f 107/4/2 108/4/2 111/4/2
f 111/4/2 108/4/2 112/4/2
f 109/4/2 110/4/2 113/4/2
f 113/4/2 110/4/2 114/4/2
f 112/4/2 113/4/2 115/4/2
f 115/4/2 113/4/2 116/4/2
f 119/4/3 118/4/3 117/4/3
f 120/4/3 118/4/3 119/4/3
f 125/3/3 122/3/3 121/3/3
f 126/3/3 122/3/3 125/3/3
f 127/4/3 124/4/3 123/4/3
f 128/4/3 124/4/3 127/4/3
f 131/3/3 130/3/3 129/3/3
f 132/3/3 130/3/3 131/3/3
f 137/3/3 134/3/3 133/3/3
f 138/3/3 134/3/3 137/3/3
f 139/3/3 136/3/3 135/3/3
f 140/3/3 136/3/3 139/3/3
f 144/1/3 142/1/3 141/1/3
f 145/2/3 143/2/3 142/2/3
f 145/1/3 142/1/3 144/1/3
f 146/2/3 143/2/3 145/2/3
f 151/2/3 148/2/3 147/2/3
f 152/2/3 148/2/3 151/2/3
f 153/4/3 150/4/3 149/4/3
f 154/4/3 150/4/3 153/4/3
f 157/4/3 156/4/3 155/4/3
f 158/4/3 156/4/3 157/4/3
f 163/3/3 160/3/3 159/3/3
f 164/3/3 160/3/3 163/3/3
f 165/4/3 162/4/3 161/4/3
f 166/4/3 162/4/3 165/4/3
f 169/4/3 168/4/3 167/4/3
f 170/4/3 168/4/3 169/4/3
f 171/4/4 172/4/4 173/4/4
f 173/4/4 172/4/4 174/4/4
f 175/3/4 176/3/4 179/3/4
f 179/3/4 176/3/4 180/3/4
f 177/4/4 178/4/4 181/4/4
f 181/4/4 178/4/4 182/4/4
f 183/4/4 184/4/4 185/4/4
f 185/4/4 184/4/4 186/4/4
f 187/2/4 188/2/4 191/2/4
f 191/2/4 188/2/4 192/2/4
f 189/4/4 190/4/4 193/4/4
f 193/4/4 190/4/4 194/4/4
f 195/1/4 196/1/4 198/1/4
f 196/2/4 197/2/4 199/2/4
f 198/1/4 196/1/4 199/1/4
f 199/2/4 197/2/4 200/2/4
f 201/3/4 202/3/4 205/3/4
f 205/3/4 202/3/4 206/3/4
f 203/3/4 204/3/4 207/3/4
f 207/3/4 204/3/4 208/3/4
f 209/3/4 210/3/4 211/3/4
f 211/3/4 210/3/4 212/3/4
f 213/3/4 214/3/4 217/3/4
f 217/3/4 214/3/4 218/3/4
f 215/4/4 216/4/4 219/4/4
f 219/4/4 216/4/4 220/4/4
f 221/4/4 222/4/4 223/4/4
f 223/4/4 222/4/4 224/4/4
f 227/2/5 226/2/5 225/2/5
f 228/2/5 226/2/5 227/2/5
f 231/1/5 230/1/5 229/1/5
f 232/1/5 230/1/5 231/1/5
f 235/1/5 234/1/5 233/1/5
f 236/1/5 234/1/5 235/1/5
f 239/3/5 238/3/5 237/3/5
f 240/3/5 238/3/5 239/3/5
f 243/3/5 242/3/5 241/3/5
f 244/3/5 242/3/5 243/3/5
f 247/3/5 246/3/5 245/3/5
f 248/3/5 246/3/5 247/3/5
f 251/3/5 250/3/5 249/3/5
f 252/3/5 250/3/5 251/3/5
f 255/3/5 254/3/5 253/3/5
f 256/3/5 254/3/5 255/3/5
f 259/3/5 258/3/5 257/3/5
f 260/3/5 258/3/5 259/3/5
f 263/4/5 262/4/5 261/4/5
f 264/4/5 262/4/5 263/4/5
f 267/4/5 266/4/5 265/4/5
f 268/4/5 266/4/5 267/4/5
f 271/4/5 270/4/5 269/4/5
f 272/4/5 270/4/5 271/4/5
f 275/4/5 274/4/5 273/4/5
f 276/4/5 274/4/5 275/4/5
f 279/4/5 278/4/5 277/4/5
f 280/4/5 278/4/5 279/4/5
f 283/4/5 282/4/5 281/4/5
f 284/4/5 282/4/5 283/4/5
f 285/2/6 286/2/6 287/2/6
f 287/2/6 286/2/6 288/2/6
f 289/3/6 290/3/6 291/3/6
f 291/3/6 290/3/6 292/3/6
f 293/3/6 294/3/6 295/3/6
f 295/3/6 294/3/6 296/3/6
f 297/3/6 298/3/6 299/3/6
f 299/3/6 298/3/6 300/3/6
f 301/3/6 302/3/6 303/3/6
f 303/3/6 302/3/6 304/3/6
f 305/4/6 306/4/6 307/4/6
f 307/4/6 306/4/6 308/4/6
f 309/4/6 310/4/6 311/4/6
f 311/4/6 310/4/6 312/4/6
f 313/4/6 314/4/6 315/4/6
f 315/4/6 314/4/6 316/4/6
f 317/4/6 318/4/6 319/4/6
f 319/4/6 318/4/6 320/4/6
f 321/4/6 322/4/6 323/4/6
f 323/4/6 322/4/6 324/4/6
f 325/4/6 326/4/6 327/4/6
f 327/4/6 326/4/6 328/4/6
