# MagicaVoxel @ Ephtracy

# group
o 

# material
mtllib model.mtl
usemtl palette

# normals
vn -1 0 0
vn 1 0 0
vn 0 0 1
vn 0 0 -1
vn 0 -1 0
vn 0 1 0

# texcoords
vt 0.232422 0.5
vt 0.236328 0.5
vt 0.240234 0.5
vt 0.759766 0.5
vt 0.763672 0.5

# verts
v -0.7 0.5 1.2
v -0.7 0.5 1.1
v -0.7 0.5 -1.1
v -0.7 0.5 -1.2
v -0.7 0.8 1.2
v -0.7 0.8 1.1
v -0.7 0.8 -1.1
v -0.7 0.8 -1.2
v 0.5 0 0.7
v 0.5 0 0.5
v 0.5 0 -0.5
v 0.5 0 -0.7
v 0.5 0.1 0.8
v 0.5 0.1 0.7
v 0.5 0.1 0.5
v 0.5 0.1 0.4
v 0.5 0.1 -0.4
v 0.5 0.1 -0.5
v 0.5 0.1 -0.7
v 0.5 0.1 -0.8
v 0.5 0.2 0.9
v 0.5 0.2 0.8
v 0.5 0.2 0.4
v 0.5 0.2 0.3
v 0.5 0.2 -0.3
v 0.5 0.2 -0.4
v 0.5 0.2 -0.8
v 0.5 0.2 -0.9
v 0.5 0.3 1
v 0.5 0.3 0.9
v 0.5 0.3 0.3
v 0.5 0.3 0.2
v 0.5 0.3 -0.2
v 0.5 0.3 -0.3
v 0.5 0.3 -0.9
v 0.5 0.3 -1
v 0.5 0.4 1.1
v 0.5 0.4 1
v 0.5 0.4 0.2
v 0.5 0.4 0.1
v 0.5 0.4 -0.0999999
v 0.5 0.4 -0.2
v 0.5 0.4 -1
v 0.5 0.4 -1.1
v 0.5 0.6 1.1
v 0.5 0.6 0.1
v 0.5 0.6 -0.0999999
v 0.5 0.6 -1.1
v 0.5 0.7 1.1
v 0.5 0.7 0.1
v 0.5 0.7 -0.0999999
v 0.5 0.7 -1.1
v 0.5 0.8 1.1
v 0.5 0.8 1
v 0.5 0.8 0.2
v 0.5 0.8 0.1
v 0.5 0.8 -0.0999999
v 0.5 0.8 -0.2
v 0.5 0.8 -1
v 0.5 0.8 -1.1
v 0.5 0.9 1
v 0.5 0.9 0.9
v 0.5 0.9 0.3
v 0.5 0.9 0.2
v 0.5 0.9 -0.2
v 0.5 0.9 -0.3
v 0.5 0.9 -0.9
v 0.5 0.9 -1
v 0.5 1 1
v 0.5 1 0.9
v 0.5 1 0.3
v 0.5 1 0.2
v 0.5 1 -0.2
v 0.5 1 -0.3
v 0.5 1 -0.9
v 0.5 1 -1
v 0.5 1.1 0.9
v 0.5 1.1 0.8
v 0.5 1.1 0.4
v 0.5 1.1 0.3
v 0.5 1.1 -0.3
v 0.5 1.1 -0.4
v 0.5 1.1 -0.8
v 0.5 1.1 -0.9
v 0.5 1.2 0.9
v 0.5 1.2 0.8
v 0.5 1.2 0.4
v 0.5 1.2 0.3
v 0.5 1.2 -0.3
v 0.5 1.2 -0.4
v 0.5 1.2 -0.8
v 0.5 1.2 -0.9
v 0.5 1.3 0.8
v 0.5 1.3 0.4
v 0.5 1.3 -0.4
v 0.5 1.3 -0.8
v 0.5 1.4 0.8
v 0.5 1.4 0.4
v 0.5 1.4 -0.4
v 0.5 1.4 -0.8
v -0.5 0.5 1.2
v -0.5 0.5 1.1
v -0.5 0.5 -1.1
v -0.5 0.5 -1.2
v -0.5 0.6 1.2
v -0.5 0.6 1.1
v -0.5 0.6 -1.1
v -0.5 0.6 -1.2
v 0.6 0 0.7
v 0.6 0 0.5
v 0.6 0 -0.5
v 0.6 0 -0.7
v 0.6 0.1 0.8
v 0.6 0.1 0.7
v 0.6 0.1 0.6
v 0.6 0.1 0.5
v 0.6 0.1 0.4
v 0.6 0.1 -0.4
v 0.6 0.1 -0.5
v 0.6 0.1 -0.6
v 0.6 0.1 -0.7
v 0.6 0.1 -0.8
v 0.6 0.2 0.9
v 0.6 0.2 0.8
v 0.6 0.2 0.7
v 0.6 0.2 0.5
v 0.6 0.2 0.4
v 0.6 0.2 0.3
v 0.6 0.2 -0.3
v 0.6 0.2 -0.4
v 0.6 0.2 -0.5
v 0.6 0.2 -0.7
v 0.6 0.2 -0.8
v 0.6 0.2 -0.9
v 0.6 0.3 1
v 0.6 0.3 0.9
v 0.6 0.3 0.8
v 0.6 0.3 0.4
v 0.6 0.3 0.3
v 0.6 0.3 0.2
v 0.6 0.3 -0.2
v 0.6 0.3 -0.3
v 0.6 0.3 -0.4
v 0.6 0.3 -0.8
v 0.6 0.3 -0.9
v 0.6 0.3 -1
v 0.6 0.4 1.1
v 0.6 0.4 1
v 0.6 0.4 0.9
v 0.6 0.4 0.3
v 0.6 0.4 0.2
v 0.6 0.4 0.1
v 0.6 0.4 -0.0999999
v 0.6 0.4 -0.2
v 0.6 0.4 -0.3
v 0.6 0.4 -0.9
v 0.6 0.4 -1
v 0.6 0.4 -1.1
v 0.6 0.5 1
v 0.6 0.5 0.2
v 0.6 0.5 -0.2
v 0.6 0.5 -1
v 0.6 0.6 1.2
v 0.6 0.6 1.1
v 0.6 0.6 1
v 0.6 0.6 0.2
v 0.6 0.6 0.1
v 0.6 0.6 -0.0999999
v 0.6 0.6 -0.2
v 0.6 0.6 -1
v 0.6 0.6 -1.1
v 0.6 0.6 -1.2
v 0.6 0.7 1.2
v 0.6 0.7 1.1
v 0.6 0.7 1
v 0.6 0.7 0.2
v 0.6 0.7 0.1
v 0.6 0.7 -0.0999999
v 0.6 0.7 -0.2
v 0.6 0.7 -1
v 0.6 0.7 -1.1
v 0.6 0.7 -1.2
v 0.6 0.8 1.2
v 0.6 0.8 1.1
v 0.6 0.8 1
v 0.6 0.8 0.9
v 0.6 0.8 0.3
v 0.6 0.8 0.2
v 0.6 0.8 0.1
v 0.6 0.8 -0.0999999
v 0.6 0.8 -0.2
v 0.6 0.8 -0.3
v 0.6 0.8 -0.9
v 0.6 0.8 -1
v 0.6 0.8 -1.1
v 0.6 0.8 -1.2
v 0.6 0.9 1
v 0.6 0.9 0.9
v 0.6 0.9 0.3
v 0.6 0.9 0.2
v 0.6 0.9 -0.2
v 0.6 0.9 -0.3
v 0.6 0.9 -0.9
v 0.6 0.9 -1
v 0.6 1 1
v 0.6 1 0.9
v 0.6 1 0.8
v 0.6 1 0.4
v 0.6 1 0.3
v 0.6 1 0.2
v 0.6 1 -0.2
v 0.6 1 -0.3
v 0.6 1 -0.4
v 0.6 1 -0.8
v 0.6 1 -0.9
v 0.6 1 -1
v 0.6 1.1 0.9
v 0.6 1.1 0.8
v 0.6 1.1 0.4
v 0.6 1.1 0.3
v 0.6 1.1 -0.3
v 0.6 1.1 -0.4
v 0.6 1.1 -0.8
v 0.6 1.1 -0.9
v 0.6 1.2 0.9
v 0.6 1.2 0.8
v 0.6 1.2 0.7
v 0.6 1.2 0.5
v 0.6 1.2 0.4
v 0.6 1.2 0.3
v 0.6 1.2 -0.3
v 0.6 1.2 -0.4
v 0.6 1.2 -0.5
v 0.6 1.2 -0.7
v 0.6 1.2 -0.8
v 0.6 1.2 -0.9
v 0.6 1.3 0.8
v 0.6 1.3 0.7
v 0.6 1.3 0.6
v 0.6 1.3 0.5
v 0.6 1.3 0.4
v 0.6 1.3 -0.4
v 0.6 1.3 -0.5
v 0.6 1.3 -0.6
v 0.6 1.3 -0.7
v 0.6 1.3 -0.8
v 0.6 1.4 0.8
v 0.6 1.4 0.4
v 0.6 1.4 -0.4
v 0.6 1.4 -0.8
v 0.7 0.1 0.7
v 0.7 0.1 0.6
v 0.7 0.1 0.5
v 0.7 0.1 -0.5
v 0.7 0.1 -0.6
v 0.7 0.1 -0.7
v 0.7 0.2 0.8
v 0.7 0.2 0.7
v 0.7 0.2 0.5
v 0.7 0.2 0.4
v 0.7 0.2 -0.4
v 0.7 0.2 -0.5
v 0.7 0.2 -0.7
v 0.7 0.2 -0.8
v 0.7 0.3 0.9
v 0.7 0.3 0.8
v 0.7 0.3 0.4
v 0.7 0.3 0.3
v 0.7 0.3 -0.3
v 0.7 0.3 -0.4
v 0.7 0.3 -0.8
v 0.7 0.3 -0.9
v 0.7 0.4 1
v 0.7 0.4 0.9
v 0.7 0.4 0.8
v 0.7 0.4 0.7
v 0.7 0.4 0.6
v 0.7 0.4 0.5
v 0.7 0.4 0.4
v 0.7 0.4 0.3
v 0.7 0.4 0.2
v 0.7 0.4 -0.2
v 0.7 0.4 -0.3
v 0.7 0.4 -0.4
v 0.7 0.4 -0.5
v 0.7 0.4 -0.6
v 0.7 0.4 -0.7
v 0.7 0.4 -0.8
v 0.7 0.4 -0.9
v 0.7 0.4 -1
v 0.7 0.5 1
v 0.7 0.5 0.9
v 0.7 0.5 0.8
v 0.7 0.5 0.7
v 0.7 0.5 0.6
v 0.7 0.5 0.5
v 0.7 0.5 0.4
v 0.7 0.5 0.3
v 0.7 0.5 0.2
v 0.7 0.5 -0.2
v 0.7 0.5 -0.3
v 0.7 0.5 -0.4
v 0.7 0.5 -0.5
v 0.7 0.5 -0.6
v 0.7 0.5 -0.7
v 0.7 0.5 -0.8
v 0.7 0.5 -0.9
v 0.7 0.5 -1
v 0.7 0.6 1
v 0.7 0.6 0.9
v 0.7 0.6 0.8
v 0.7 0.6 0.4
v 0.7 0.6 0.3
v 0.7 0.6 0.2
v 0.7 0.6 -0.2
v 0.7 0.6 -0.3
v 0.7 0.6 -0.4
v 0.7 0.6 -0.8
v 0.7 0.6 -0.9
v 0.7 0.6 -1
v 0.7 0.7 1
v 0.7 0.7 0.8
v 0.7 0.7 0.4
v 0.7 0.7 0.2
v 0.7 0.7 -0.2
v 0.7 0.7 -0.4
v 0.7 0.7 -0.8
v 0.7 0.7 -1
v 0.7 0.8 1
v 0.7 0.8 0.9
v 0.7 0.8 0.8
v 0.7 0.8 0.6
v 0.7 0.8 0.4
v 0.7 0.8 0.3
v 0.7 0.8 0.2
v 0.7 0.8 -0.2
v 0.7 0.8 -0.3
v 0.7 0.8 -0.4
v 0.7 0.8 -0.6
v 0.7 0.8 -0.8
v 0.7 0.8 -0.9
v 0.7 0.8 -1
v 0.7 1 0.9
v 0.7 1 0.8
v 0.7 1 0.4
v 0.7 1 0.3
v 0.7 1 -0.3
v 0.7 1 -0.4
v 0.7 1 -0.8
v 0.7 1 -0.9
v 0.7 1.2 0.8
v 0.7 1.2 0.7
v 0.7 1.2 0.5
v 0.7 1.2 0.4
v 0.7 1.2 -0.4
v 0.7 1.2 -0.5
v 0.7 1.2 -0.7
v 0.7 1.2 -0.8
v 0.7 1.3 0.7
v 0.7 1.3 0.6
v 0.7 1.3 0.5
v 0.7 1.3 -0.5
v 0.7 1.3 -0.6
v 0.7 1.3 -0.7
v -0.7 0.5 1.2
v -0.7 0.8 1.2
v -0.5 0.5 1.2
v -0.5 0.6 1.2
v 0.1 0.7 1.2
v 0.1 0.8 1.2
v 0.2 0.7 1.2
v 0.2 0.8 1.2
v 0.3 0.7 1.2
v 0.3 0.8 1.2
v 0.6 0.6 1.2
v 0.6 0.7 1.2
v 0.6 0.8 1.2
v 0.5 0.4 1.1
v 0.5 0.6 1.1
v 0.6 0.4 1.1
v 0.6 0.6 1.1
v 0.5 0.3 1
v 0.5 0.4 1
v 0.5 0.8 1
v 0.5 0.9 1
v 0.5 1 1
v 0.6 0.3 1
v 0.6 0.4 1
v 0.6 0.5 1
v 0.6 0.6 1
v 0.6 0.7 1
v 0.6 0.8 1
v 0.6 0.9 1
v 0.6 1 1
v 0.7 0.4 1
v 0.7 0.5 1
v 0.7 0.6 1
v 0.7 0.7 1
v 0.7 0.8 1
v 0.5 0.2 0.9
v 0.5 0.3 0.9
v 0.5 1 0.9
v 0.5 1.1 0.9
v 0.5 1.2 0.9
v 0.6 0.2 0.9
v 0.6 0.3 0.9
v 0.6 0.4 0.9
v 0.6 0.8 0.9
v 0.6 0.9 0.9
v 0.6 1 0.9
v 0.6 1.1 0.9
v 0.6 1.2 0.9
v 0.7 0.3 0.9
v 0.7 0.4 0.9
v 0.7 0.8 0.9
v 0.7 1 0.9
v 0.5 0.1 0.8
v 0.5 0.2 0.8
v 0.5 1.2 0.8
v 0.5 1.3 0.8
v 0.5 1.4 0.8
v 0.6 0.1 0.8
v 0.6 0.2 0.8
v 0.6 0.3 0.8
v 0.6 1 0.8
v 0.6 1.1 0.8
v 0.6 1.2 0.8
v 0.6 1.3 0.8
v 0.6 1.4 0.8
v 0.7 0.2 0.8
v 0.7 0.3 0.8
v 0.7 1 0.8
v 0.7 1.2 0.8
v 0.5 0 0.7
v 0.5 0.1 0.7
v 0.6 0 0.7
v 0.6 0.1 0.7
v 0.6 0.2 0.7
v 0.6 1.2 0.7
v 0.6 1.3 0.7
v 0.7 0.1 0.7
v 0.7 0.2 0.7
v 0.7 1.2 0.7
v 0.7 1.3 0.7
v 0.5 0.4 -0.0999999
v 0.5 0.6 -0.0999999
v 0.6 0.4 -0.0999999
v 0.6 0.6 -0.0999999
v 0.5 0.3 -0.2
v 0.5 0.4 -0.2
v 0.5 0.8 -0.2
v 0.5 0.9 -0.2
v 0.5 1 -0.2
v 0.6 0.3 -0.2
v 0.6 0.4 -0.2
v 0.6 0.5 -0.2
v 0.6 0.6 -0.2
v 0.6 0.7 -0.2
v 0.6 0.8 -0.2
v 0.6 0.9 -0.2
v 0.6 1 -0.2
v 0.7 0.4 -0.2
v 0.7 0.5 -0.2
v 0.7 0.6 -0.2
v 0.7 0.7 -0.2
v 0.7 0.8 -0.2
v 0.5 0.2 -0.3
v 0.5 0.3 -0.3
v 0.5 1 -0.3
v 0.5 1.1 -0.3
v 0.5 1.2 -0.3
v 0.6 0.2 -0.3
v 0.6 0.3 -0.3
v 0.6 0.4 -0.3
v 0.6 0.8 -0.3
v 0.6 0.9 -0.3
v 0.6 1 -0.3
v 0.6 1.1 -0.3
v 0.6 1.2 -0.3
v 0.7 0.3 -0.3
v 0.7 0.4 -0.3
v 0.7 0.8 -0.3
v 0.7 1 -0.3
v 0.5 0.1 -0.4
v 0.5 0.2 -0.4
v 0.5 1.2 -0.4
v 0.5 1.3 -0.4
v 0.5 1.4 -0.4
v 0.6 0.1 -0.4
v 0.6 0.2 -0.4
v 0.6 0.3 -0.4
v 0.6 1 -0.4
v 0.6 1.1 -0.4
v 0.6 1.2 -0.4
v 0.6 1.3 -0.4
v 0.6 1.4 -0.4
v 0.7 0.2 -0.4
v 0.7 0.3 -0.4
v 0.7 1 -0.4
v 0.7 1.2 -0.4
v 0.5 0 -0.5
v 0.5 0.1 -0.5
v 0.6 0 -0.5
v 0.6 0.1 -0.5
v 0.6 0.2 -0.5
v 0.6 1.2 -0.5
v 0.6 1.3 -0.5
v 0.7 0.1 -0.5
v 0.7 0.2 -0.5
v 0.7 1.2 -0.5
v 0.7 1.3 -0.5
v -0.7 0.5 -1.1
v -0.7 0.8 -1.1
v -0.5 0.5 -1.1
v -0.5 0.6 -1.1
v 0.1 0.7 -1.1
v 0.1 0.8 -1.1
v 0.2 0.7 -1.1
v 0.2 0.8 -1.1
v 0.3 0.7 -1.1
v 0.3 0.8 -1.1
v 0.5 0.6 -1.1
v 0.5 0.7 -1.1
v 0.5 0.8 -1.1
v -0.7 0.5 1.1
v -0.7 0.8 1.1
v -0.5 0.5 1.1
v -0.5 0.6 1.1
v 0.1 0.7 1.1
v 0.1 0.8 1.1
v 0.2 0.7 1.1
v 0.2 0.8 1.1
v 0.3 0.7 1.1
v 0.3 0.8 1.1
v 0.5 0.6 1.1
v 0.5 0.7 1.1
v 0.5 0.8 1.1
v 0.5 0 0.5
v 0.5 0.1 0.5
v 0.6 0 0.5
v 0.6 0.1 0.5
v 0.6 0.2 0.5
v 0.6 1.2 0.5
v 0.6 1.3 0.5
v 0.7 0.1 0.5
v 0.7 0.2 0.5
v 0.7 1.2 0.5
v 0.7 1.3 0.5
v 0.5 0.1 0.4
v 0.5 0.2 0.4
v 0.5 1.2 0.4
v 0.5 1.3 0.4
v 0.5 1.4 0.4
v 0.6 0.1 0.4
v 0.6 0.2 0.4
v 0.6 0.3 0.4
v 0.6 1 0.4
v 0.6 1.1 0.4
v 0.6 1.2 0.4
v 0.6 1.3 0.4
v 0.6 1.4 0.4
v 0.7 0.2 0.4
v 0.7 0.3 0.4
v 0.7 1 0.4
v 0.7 1.2 0.4
v 0.5 0.2 0.3
v 0.5 0.3 0.3
v 0.5 1 0.3
v 0.5 1.1 0.3
v 0.5 1.2 0.3
v 0.6 0.2 0.3
v 0.6 0.3 0.3
v 0.6 0.4 0.3
v 0.6 0.8 0.3
v 0.6 0.9 0.3
v 0.6 1 0.3
v 0.6 1.1 0.3
v 0.6 1.2 0.3
v 0.7 0.3 0.3
v 0.7 0.4 0.3
v 0.7 0.8 0.3
v 0.7 1 0.3
v 0.5 0.3 0.2
v 0.5 0.4 0.2
v 0.5 0.8 0.2
v 0.5 0.9 0.2
v 0.5 1 0.2
v 0.6 0.3 0.2
v 0.6 0.4 0.2
v 0.6 0.5 0.2
v 0.6 0.6 0.2
v 0.6 0.7 0.2
v 0.6 0.8 0.2
v 0.6 0.9 0.2
v 0.6 1 0.2
v 0.7 0.4 0.2
v 0.7 0.5 0.2
v 0.7 0.6 0.2
v 0.7 0.7 0.2
v 0.7 0.8 0.2
v 0.5 0.4 0.1
v 0.5 0.6 0.1
v 0.6 0.4 0.1
v 0.6 0.6 0.1
v 0.5 0 -0.7
v 0.5 0.1 -0.7
v 0.6 0 -0.7
v 0.6 0.1 -0.7
v 0.6 0.2 -0.7
v 0.6 1.2 -0.7
v 0.6 1.3 -0.7
v 0.7 0.1 -0.7
v 0.7 0.2 -0.7
v 0.7 1.2 -0.7
v 0.7 1.3 -0.7
v 0.5 0.1 -0.8
v 0.5 0.2 -0.8
v 0.5 1.2 -0.8
v 0.5 1.3 -0.8
v 0.5 1.4 -0.8
v 0.6 0.1 -0.8
v 0.6 0.2 -0.8
v 0.6 0.3 -0.8
v 0.6 1 -0.8
v 0.6 1.1 -0.8
v 0.6 1.2 -0.8
v 0.6 1.3 -0.8
v 0.6 1.4 -0.8
v 0.7 0.2 -0.8
v 0.7 0.3 -0.8
v 0.7 1 -0.8
v 0.7 1.2 -0.8
v 0.5 0.2 -0.9
v 0.5 0.3 -0.9
v 0.5 1 -0.9
v 0.5 1.1 -0.9
v 0.5 1.2 -0.9
v 0.6 0.2 -0.9
v 0.6 0.3 -0.9
v 0.6 0.4 -0.9
v 0.6 0.8 -0.9
v 0.6 0.9 -0.9
v 0.6 1 -0.9
v 0.6 1.1 -0.9
v 0.6 1.2 -0.9
v 0.7 0.3 -0.9
v 0.7 0.4 -0.9
v 0.7 0.8 -0.9
v 0.7 1 -0.9
v 0.5 0.3 -1
v 0.5 0.4 -1
v 0.5 0.8 -1
v 0.5 0.9 -1
v 0.5 1 -1
v 0.6 0.3 -1
v 0.6 0.4 -1
v 0.6 0.5 -1
v 0.6 0.6 -1
v 0.6 0.7 -1
v 0.6 0.8 -1
v 0.6 0.9 -1
v 0.6 1 -1
v 0.7 0.4 -1
v 0.7 0.5 -1
v 0.7 0.6 -1
v 0.7 0.7 -1
v 0.7 0.8 -1
v 0.5 0.4 -1.1
v 0.5 0.6 -1.1
v 0.6 0.4 -1.1
v 0.6 0.6 -1.1
v -0.7 0.5 -1.2
v -0.7 0.8 -1.2
v -0.5 0.5 -1.2
v -0.5 0.6 -1.2
v 0.1 0.7 -1.2
v 0.1 0.8 -1.2
v 0.2 0.7 -1.2
v 0.2 0.8 -1.2
v 0.3 0.7 -1.2
v 0.3 0.8 -1.2
v 0.6 0.6 -1.2
v 0.6 0.7 -1.2
v 0.6 0.8 -1.2
v 0.5 0 0.7
v 0.6 0 0.7
v 0.5 0 0.5
v 0.6 0 0.5
v 0.5 0 -0.5
v 0.6 0 -0.5
v 0.5 0 -0.7
v 0.6 0 -0.7
v 0.5 0.1 0.8
v 0.6 0.1 0.8
v 0.5 0.1 0.7
v 0.6 0.1 0.7
v 0.7 0.1 0.7
v 0.6 0.1 0.6
v 0.7 0.1 0.6
v 0.5 0.1 0.5
v 0.6 0.1 0.5
v 0.7 0.1 0.5
v 0.5 0.1 0.4
v 0.6 0.1 0.4
v 0.5 0.1 -0.4
v 0.6 0.1 -0.4
v 0.5 0.1 -0.5
v 0.6 0.1 -0.5
v 0.7 0.1 -0.5
v 0.6 0.1 -0.6
v 0.7 0.1 -0.6
v 0.5 0.1 -0.7
v 0.6 0.1 -0.7
v 0.7 0.1 -0.7
v 0.5 0.1 -0.8
v 0.6 0.1 -0.8
v 0.5 0.2 0.9
v 0.6 0.2 0.9
v 0.5 0.2 0.8
v 0.6 0.2 0.8
v 0.7 0.2 0.8
v 0.6 0.2 0.7
v 0.7 0.2 0.7
v 0.6 0.2 0.5
v 0.7 0.2 0.5
v 0.5 0.2 0.4
v 0.6 0.2 0.4
v 0.7 0.2 0.4
v 0.5 0.2 0.3
v 0.6 0.2 0.3
v 0.5 0.2 -0.3
v 0.6 0.2 -0.3
v 0.5 0.2 -0.4
v 0.6 0.2 -0.4
v 0.7 0.2 -0.4
v 0.6 0.2 -0.5
v 0.7 0.2 -0.5
v 0.6 0.2 -0.7
v 0.7 0.2 -0.7
v 0.5 0.2 -0.8
v 0.6 0.2 -0.8
v 0.7 0.2 -0.8
v 0.5 0.2 -0.9
v 0.6 0.2 -0.9
v 0.5 0.3 1
v 0.6 0.3 1
v 0.5 0.3 0.9
v 0.6 0.3 0.9
v 0.7 0.3 0.9
v 0.6 0.3 0.8
v 0.7 0.3 0.8
v 0.6 0.3 0.4
v 0.7 0.3 0.4
v 0.5 0.3 0.3
v 0.6 0.3 0.3
v 0.7 0.3 0.3
v 0.5 0.3 0.2
v 0.6 0.3 0.2
v 0.5 0.3 -0.2
v 0.6 0.3 -0.2
v 0.5 0.3 -0.3
v 0.6 0.3 -0.3
v 0.7 0.3 -0.3
v 0.6 0.3 -0.4
v 0.7 0.3 -0.4
v 0.6 0.3 -0.8
v 0.7 0.3 -0.8
v 0.5 0.3 -0.9
v 0.6 0.3 -0.9
v 0.7 0.3 -0.9
v 0.5 0.3 -1
v 0.6 0.3 -1
v 0.5 0.4 1.1
v 0.6 0.4 1.1
v 0.5 0.4 1
v 0.6 0.4 1
v 0.7 0.4 1
v 0.6 0.4 0.9
v 0.7 0.4 0.9
v 0.6 0.4 0.3
v 0.7 0.4 0.3
v 0.5 0.4 0.2
v 0.6 0.4 0.2
v 0.7 0.4 0.2
v 0.5 0.4 0.1
v 0.6 0.4 0.1
v 0.5 0.4 -0.0999999
v 0.6 0.4 -0.0999999
v 0.5 0.4 -0.2
v 0.6 0.4 -0.2
v 0.7 0.4 -0.2
v 0.6 0.4 -0.3
v 0.7 0.4 -0.3
v 0.6 0.4 -0.9
v 0.7 0.4 -0.9
v 0.5 0.4 -1
v 0.6 0.4 -1
v 0.7 0.4 -1
v 0.5 0.4 -1.1
v 0.6 0.4 -1.1
v -0.7 0.5 1.2
v -0.5 0.5 1.2
v -0.7 0.5 1.1
v -0.5 0.5 1.1
v -0.7 0.5 -1.1
v -0.5 0.5 -1.1
v -0.7 0.5 -1.2
v -0.5 0.5 -1.2
v -0.5 0.6 1.2
v 0.6 0.6 1.2
v -0.5 0.6 1.1
v 0.5 0.6 1.1
v 0.6 0.6 1.1
v 0.5 0.6 0.1
v 0.6 0.6 0.1
v 0.5 0.6 -0.0999999
v 0.6 0.6 -0.0999999
v -0.5 0.6 -1.1
v 0.5 0.6 -1.1
v 0.6 0.6 -1.1
v -0.5 0.6 -1.2
v 0.6 0.6 -1.2
v -0.7 0.8 1.2
v 0.1 0.8 1.2
v 0.2 0.8 1.2
v 0.3 0.8 1.2
v 0.6 0.8 1.2
v -0.7 0.8 1.1
v 0.1 0.8 1.1
v 0.2 0.8 1.1
v 0.3 0.8 1.1
v 0.5 0.8 1.1
v 0.6 0.8 1.1
v 0.5 0.8 1
v 0.6 0.8 1
v 0.7 0.8 1
v 0.6 0.8 0.9
v 0.7 0.8 0.9
v 0.6 0.8 0.3
v 0.7 0.8 0.3
v 0.5 0.8 0.2
v 0.6 0.8 0.2
v 0.7 0.8 0.2
v 0.5 0.8 0.1
v 0.6 0.8 0.1
v 0.5 0.8 -0.0999999
v 0.6 0.8 -0.0999999
v 0.5 0.8 -0.2
v 0.6 0.8 -0.2
v 0.7 0.8 -0.2
v 0.6 0.8 -0.3
v 0.7 0.8 -0.3
v 0.6 0.8 -0.9
v 0.7 0.8 -0.9
v 0.5 0.8 -1
v 0.6 0.8 -1
v 0.7 0.8 -1
v -0.7 0.8 -1.1
v 0.1 0.8 -1.1
v 0.2 0.8 -1.1
v 0.3 0.8 -1.1
v 0.5 0.8 -1.1
v 0.6 0.8 -1.1
v -0.7 0.8 -1.2
v 0.1 0.8 -1.2
v 0.2 0.8 -1.2
v 0.3 0.8 -1.2
v 0.6 0.8 -1.2
v 0.5 1 1
v 0.6 1 1
v 0.5 1 0.9
v 0.6 1 0.9
v 0.7 1 0.9
v 0.6 1 0.8
v 0.7 1 0.8
v 0.6 1 0.4
v 0.7 1 0.4
v 0.5 1 0.3
v 0.6 1 0.3
v 0.7 1 0.3
v 0.5 1 0.2
v 0.6 1 0.2
v 0.5 1 -0.2
v 0.6 1 -0.2
v 0.5 1 -0.3
v 0.6 1 -0.3
v 0.7 1 -0.3
v 0.6 1 -0.4
v 0.7 1 -0.4
v 0.6 1 -0.8
v 0.7 1 -0.8
v 0.5 1 -0.9
v 0.6 1 -0.9
v 0.7 1 -0.9
v 0.5 1 -1
v 0.6 1 -1
v 0.5 1.2 0.9
v 0.6 1.2 0.9
v 0.5 1.2 0.8
v 0.6 1.2 0.8
v 0.7 1.2 0.8
v 0.6 1.2 0.7
v 0.7 1.2 0.7
v 0.6 1.2 0.5
v 0.7 1.2 0.5
v 0.5 1.2 0.4
v 0.6 1.2 0.4
v 0.7 1.2 0.4
v 0.5 1.2 0.3
v 0.6 1.2 0.3
v 0.5 1.2 -0.3
v 0.6 1.2 -0.3
v 0.5 1.2 -0.4
v 0.6 1.2 -0.4
v 0.7 1.2 -0.4
v 0.6 1.2 -0.5
v 0.7 1.2 -0.5
v 0.6 1.2 -0.7
v 0.7 1.2 -0.7
v 0.5 1.2 -0.8
v 0.6 1.2 -0.8
v 0.7 1.2 -0.8
v 0.5 1.2 -0.9
v 0.6 1.2 -0.9
v 0.6 1.3 0.7
v 0.7 1.3 0.7
v 0.6 1.3 0.6
v 0.7 1.3 0.6
v 0.6 1.3 0.5
v 0.7 1.3 0.5
v 0.6 1.3 -0.5
v 0.7 1.3 -0.5
v 0.6 1.3 -0.6
v 0.7 1.3 -0.6
v 0.6 1.3 -0.7
v 0.7 1.3 -0.7
v 0.5 1.4 0.8
v 0.6 1.4 0.8
v 0.5 1.4 0.4
v 0.6 1.4 0.4
v 0.5 1.4 -0.4
v 0.6 1.4 -0.4
v 0.5 1.4 -0.8
v 0.6 1.4 -0.8

# faces
f 5/4/1 2/4/1 1/4/1
f 6/4/1 2/4/1 5/4/1
f 7/4/1 4/4/1 3/4/1
f 8/4/1 4/4/1 7/4/1
f 14/4/1 10/4/1 9/4/1
f 15/4/1 10/4/1 14/4/1
f 18/4/1 12/4/1 11/4/1
f 19/4/1 12/4/1 18/4/1
f 22/4/1 16/4/1 15/4/1
f 22/4/1 14/4/1 13/4/1
f 22/4/1 15/4/1 14/4/1
f 23/4/1 16/4/1 22/4/1
f 26/4/1 20/4/1 19/4/1
f 26/4/1 19/4/1 18/4/1
f 26/4/1 18/4/1 17/4/1
f 27/4/1 20/4/1 26/4/1
f 30/4/1 24/4/1 23/4/1
f 30/4/1 23/4/1 22/4/1
f 30/4/1 22/4/1 21/4/1
f 31/4/1 24/4/1 30/4/1
f 34/4/1 28/4/1 27/4/1
f 34/4/1 27/4/1 26/4/1
f 34/4/1 26/4/1 25/4/1
f 35/4/1 28/4/1 34/4/1
f 38/4/1 32/4/1 31/4/1
f 38/4/1 31/4/1 30/4/1
f 38/4/1 30/4/1 29/4/1
f 39/4/1 32/4/1 38/4/1
f 42/4/1 36/4/1 35/4/1
f 42/4/1 35/4/1 34/4/1
f 42/4/1 34/4/1 33/4/1
f 43/4/1 36/4/1 42/4/1
f 45/4/1 40/4/1 39/4/1
f 45/4/1 39/4/1 38/4/1
f 45/4/1 38/4/1 37/4/1
f 46/4/1 40/4/1 45/4/1
f 47/4/1 44/4/1 43/4/1
f 47/4/1 43/4/1 42/4/1
f 47/4/1 42/4/1 41/4/1
f 48/4/1 44/4/1 47/4/1
f 49/4/1 46/4/1 45/4/1
f 49/4/1 47/4/1 46/4/1
f 49/4/1 48/4/1 47/4/1
f 50/4/1 48/4/1 49/4/1
f 51/4/1 48/4/1 50/4/1
f 52/4/1 48/4/1 51/4/1
f 53/4/1 50/4/1 49/4/1
f 54/4/1 50/4/1 53/4/1
f 55/4/1 50/4/1 54/4/1
f 56/5/1 51/5/1 50/5/1
f 56/4/1 50/4/1 55/4/1
f 57/4/1 52/4/1 51/4/1
f 57/5/1 51/5/1 56/5/1
f 58/4/1 52/4/1 57/4/1
f 59/4/1 52/4/1 58/4/1
f 60/4/1 52/4/1 59/4/1
f 61/4/1 55/4/1 54/4/1
f 62/4/1 55/4/1 61/4/1
f 63/4/1 55/4/1 62/4/1
f 64/4/1 55/4/1 63/4/1
f 65/4/1 59/4/1 58/4/1
f 66/4/1 59/4/1 65/4/1
f 67/4/1 59/4/1 66/4/1
f 68/4/1 59/4/1 67/4/1
f 69/5/1 62/5/1 61/5/1
f 70/4/1 63/4/1 62/4/1
f 70/5/1 62/5/1 69/5/1
f 71/5/1 64/5/1 63/5/1
f 71/4/1 63/4/1 70/4/1
f 72/5/1 64/5/1 71/5/1
f 73/5/1 66/5/1 65/5/1
f 74/4/1 67/4/1 66/4/1
f 74/5/1 66/5/1 73/5/1
f 75/5/1 68/5/1 67/5/1
f 75/4/1 67/4/1 74/4/1
f 76/5/1 68/5/1 75/5/1
f 77/4/1 71/4/1 70/4/1
f 78/4/1 71/4/1 77/4/1
f 79/4/1 71/4/1 78/4/1
f 80/4/1 71/4/1 79/4/1
f 81/4/1 75/4/1 74/4/1
f 82/4/1 75/4/1 81/4/1
f 83/4/1 75/4/1 82/4/1
f 84/4/1 75/4/1 83/4/1
f 85/5/1 78/5/1 77/5/1
f 86/4/1 79/4/1 78/4/1
f 86/5/1 78/5/1 85/5/1
f 87/5/1 80/5/1 79/5/1
f 87/4/1 79/4/1 86/4/1
f 88/5/1 80/5/1 87/5/1
f 89/5/1 82/5/1 81/5/1
f 90/4/1 83/4/1 82/4/1
f 90/5/1 82/5/1 89/5/1
f 91/5/1 84/5/1 83/5/1
f 91/4/1 83/4/1 90/4/1
f 92/5/1 84/5/1 91/5/1
f 93/4/1 87/4/1 86/4/1
f 94/4/1 87/4/1 93/4/1
f 95/4/1 91/4/1 90/4/1
f 96/4/1 91/4/1 95/4/1
f 97/5/1 94/5/1 93/5/1
f 98/5/1 94/5/1 97/5/1
f 99/5/1 96/5/1 95/5/1
f 100/5/1 96/5/1 99/5/1
f 101/4/2 102/4/2 105/4/2
f 105/4/2 102/4/2 106/4/2
f 103/4/2 104/4/2 107/4/2
f 107/4/2 104/4/2 108/4/2
f 109/4/2 110/4/2 114/4/2
f 114/4/2 110/4/2 115/4/2
f 115/4/2 110/4/2 116/4/2
f 111/4/2 112/4/2 119/4/2
f 119/4/2 112/4/2 120/4/2
f 120/4/2 112/4/2 121/4/2
f 113/4/2 114/4/2 124/4/2
f 124/4/2 114/4/2 125/4/2
f 116/4/2 117/4/2 126/4/2
f 126/4/2 117/4/2 127/4/2
f 118/4/2 119/4/2 130/4/2
f 130/4/2 119/4/2 131/4/2
f 121/4/2 122/4/2 132/4/2
f 132/4/2 122/4/2 133/4/2
f 123/4/2 124/4/2 136/4/2
f 136/4/2 124/4/2 137/4/2
f 127/4/2 128/4/2 138/4/2
f 138/4/2 128/4/2 139/4/2
f 129/4/2 130/4/2 142/4/2
f 142/4/2 130/4/2 143/4/2
f 133/4/2 134/4/2 144/4/2
f 144/4/2 134/4/2 145/4/2
f 135/4/2 136/4/2 148/4/2
f 148/4/2 136/4/2 149/4/2
f 139/4/2 140/4/2 150/4/2
f 150/4/2 140/4/2 151/4/2
f 141/4/2 142/4/2 154/4/2
f 154/4/2 142/4/2 155/4/2
f 145/4/2 146/4/2 156/4/2
f 156/4/2 146/4/2 157/4/2
f 147/4/2 148/4/2 159/4/2
f 151/4/2 152/4/2 160/4/2
f 153/4/2 154/4/2 161/4/2
f 157/4/2 158/4/2 162/4/2
f 147/4/2 159/4/2 164/4/2
f 164/4/2 159/4/2 165/4/2
f 160/4/2 152/4/2 166/4/2
f 166/4/2 152/4/2 167/4/2
f 153/4/2 161/4/2 168/4/2
f 168/4/2 161/4/2 169/4/2
f 162/4/2 158/4/2 170/4/2
f 170/4/2 158/4/2 171/4/2
f 164/4/2 165/4/2 173/4/2
f 163/4/2 164/4/2 173/4/2
f 173/4/2 165/4/2 174/4/2
f 174/4/2 165/4/2 175/4/2
f 166/4/2 167/4/2 176/4/2
f 168/4/2 169/4/2 176/4/2
f 167/4/2 168/4/2 176/4/2
f 176/4/2 169/4/2 177/4/2
f 177/4/2 169/4/2 178/4/2
f 178/4/2 169/4/2 179/4/2
f 171/4/2 172/4/2 180/4/2
f 170/4/2 171/4/2 180/4/2
f 180/4/2 172/4/2 181/4/2
f 181/4/2 172/4/2 182/4/2
f 173/5/2 174/5/2 183/5/2
f 174/4/2 175/4/2 184/4/2
f 183/5/2 174/5/2 184/5/2
f 184/4/2 175/4/2 185/4/2
f 176/4/2 177/4/2 188/4/2
f 177/5/2 178/5/2 189/5/2
f 188/4/2 177/4/2 189/4/2
f 178/4/2 179/4/2 190/4/2
f 189/5/2 178/5/2 190/5/2
f 190/4/2 179/4/2 191/4/2
f 180/4/2 181/4/2 194/4/2
f 181/5/2 182/5/2 195/5/2
f 194/4/2 181/4/2 195/4/2
f 195/5/2 182/5/2 196/5/2
f 185/4/2 186/4/2 197/4/2
f 197/4/2 186/4/2 198/4/2
f 187/4/2 188/4/2 199/4/2
f 199/4/2 188/4/2 200/4/2
f 191/4/2 192/4/2 201/4/2
f 201/4/2 192/4/2 202/4/2
f 193/4/2 194/4/2 203/4/2
f 203/4/2 194/4/2 204/4/2
f 197/5/2 198/5/2 205/5/2
f 205/5/2 198/5/2 206/5/2
f 199/5/2 200/5/2 209/5/2
f 209/5/2 200/5/2 210/5/2
f 201/5/2 202/5/2 211/5/2
f 211/5/2 202/5/2 212/5/2
f 203/5/2 204/5/2 215/5/2
f 215/5/2 204/5/2 216/5/2
f 206/4/2 207/4/2 217/4/2
f 217/4/2 207/4/2 218/4/2
f 208/4/2 209/4/2 219/4/2
f 219/4/2 209/4/2 220/4/2
f 212/4/2 213/4/2 221/4/2
f 221/4/2 213/4/2 222/4/2
f 214/4/2 215/4/2 223/4/2
f 223/4/2 215/4/2 224/4/2
f 217/5/2 218/5/2 225/5/2
f 225/5/2 218/5/2 226/5/2
f 219/5/2 220/5/2 229/5/2
f 229/5/2 220/5/2 230/5/2
f 221/5/2 222/5/2 231/5/2
f 231/5/2 222/5/2 232/5/2
f 223/5/2 224/5/2 235/5/2
f 235/5/2 224/5/2 236/5/2
f 226/4/2 227/4/2 237/4/2
f 237/4/2 227/4/2 238/4/2
f 228/4/2 229/4/2 240/4/2
f 240/4/2 229/4/2 241/4/2
f 232/4/2 233/4/2 242/4/2
f 242/4/2 233/4/2 243/4/2
f 234/4/2 235/4/2 245/4/2
f 245/4/2 235/4/2 246/4/2
f 240/5/2 241/5/2 247/5/2
f 238/5/2 239/5/2 247/5/2
f 237/5/2 238/5/2 247/5/2
f 239/5/2 240/5/2 247/5/2
f 247/5/2 241/5/2 248/5/2
f 243/5/2 244/5/2 249/5/2
f 245/5/2 246/5/2 249/5/2
f 244/5/2 245/5/2 249/5/2
f 242/5/2 243/5/2 249/5/2
f 249/5/2 246/5/2 250/5/2
f 251/3/2 252/3/2 258/3/2
f 252/2/2 253/2/2 259/2/2
f 254/3/2 255/3/2 262/3/2
f 255/2/2 256/2/2 263/2/2
f 257/3/2 258/3/2 266/3/2
f 259/2/2 260/2/2 267/2/2
f 261/3/2 262/3/2 270/3/2
f 263/2/2 264/2/2 271/2/2
f 265/3/2 266/3/2 274/3/2
f 266/3/2 258/3/2 275/3/2
f 274/3/2 266/3/2 275/3/2
f 258/3/2 252/3/2 276/3/2
f 275/3/2 258/3/2 276/3/2
f 267/2/2 268/2/2 277/2/2
f 276/3/2 252/3/2 277/3/2
f 252/2/2 259/2/2 277/2/2
f 259/2/2 267/2/2 277/2/2
f 277/2/2 268/2/2 278/2/2
f 278/2/2 268/2/2 279/2/2
f 279/2/2 268/2/2 280/2/2
f 269/3/2 270/3/2 283/3/2
f 270/3/2 262/3/2 284/3/2
f 283/3/2 270/3/2 284/3/2
f 262/3/2 255/3/2 285/3/2
f 284/3/2 262/3/2 285/3/2
f 271/2/2 272/2/2 286/2/2
f 285/3/2 255/3/2 286/3/2
f 255/2/2 263/2/2 286/2/2
f 263/2/2 271/2/2 286/2/2
f 286/2/2 272/2/2 287/2/2
f 287/2/2 272/2/2 288/2/2
f 288/2/2 272/2/2 289/2/2
f 274/3/2 275/3/2 291/3/2
f 273/3/2 274/3/2 291/3/2
f 291/3/2 275/3/2 292/3/2
f 275/4/2 276/4/2 293/4/2
f 292/3/2 275/3/2 293/3/2
f 276/5/2 277/5/2 294/5/2
f 293/4/2 276/4/2 294/4/2
f 277/5/2 278/5/2 294/5/2
f 294/5/2 278/5/2 295/5/2
f 278/4/2 279/4/2 296/4/2
f 295/5/2 278/5/2 296/5/2
f 280/2/2 281/2/2 297/2/2
f 296/4/2 279/4/2 297/4/2
f 279/2/2 280/2/2 297/2/2
f 297/2/2 281/2/2 298/2/2
f 298/2/2 281/2/2 299/2/2
f 283/3/2 284/3/2 300/3/2
f 282/3/2 283/3/2 300/3/2
f 300/3/2 284/3/2 301/3/2
f 284/4/2 285/4/2 302/4/2
f 301/3/2 284/3/2 302/3/2
f 285/5/2 286/5/2 303/5/2
f 302/4/2 285/4/2 303/4/2
f 286/5/2 287/5/2 303/5/2
f 303/5/2 287/5/2 304/5/2
f 287/4/2 288/4/2 305/4/2
f 304/5/2 287/5/2 305/5/2
f 289/2/2 290/2/2 306/2/2
f 305/4/2 288/4/2 306/4/2
f 288/2/2 289/2/2 306/2/2
f 306/2/2 290/2/2 307/2/2
f 307/2/2 290/2/2 308/2/2
f 291/4/2 292/4/2 309/4/2
f 292/5/2 293/5/2 310/5/2
f 309/4/2 292/4/2 310/4/2
f 293/2/2 294/2/2 311/2/2
f 310/5/2 293/5/2 311/5/2
f 294/2/2 295/2/2 311/2/2
f 295/1/2 296/1/2 312/1/2
f 297/5/2 298/5/2 312/5/2
f 296/1/2 297/1/2 312/1/2
f 298/4/2 299/4/2 313/4/2
f 312/5/2 298/5/2 313/5/2
f 313/4/2 299/4/2 314/4/2
f 300/4/2 301/4/2 315/4/2
f 301/5/2 302/5/2 316/5/2
f 315/4/2 301/4/2 316/4/2
f 302/2/2 303/2/2 317/2/2
f 316/5/2 302/5/2 317/5/2
f 303/2/2 304/2/2 317/2/2
f 304/1/2 305/1/2 318/1/2
f 306/5/2 307/5/2 318/5/2
f 305/1/2 306/1/2 318/1/2
f 307/4/2 308/4/2 319/4/2
f 318/5/2 307/5/2 319/5/2
f 319/4/2 308/4/2 320/4/2
f 309/2/2 310/2/2 321/2/2
f 310/2/2 311/2/2 321/2/2
f 311/2/2 295/2/2 322/2/2
f 321/2/2 311/2/2 322/2/2
f 313/1/2 314/1/2 323/1/2
f 295/1/2 312/1/2 323/1/2
f 312/1/2 313/1/2 323/1/2
f 323/1/2 314/1/2 324/1/2
f 315/2/2 316/2/2 325/2/2
f 316/2/2 317/2/2 325/2/2
f 317/2/2 304/2/2 326/2/2
f 325/2/2 317/2/2 326/2/2
f 319/1/2 320/1/2 327/1/2
f 304/1/2 318/1/2 327/1/2
f 318/1/2 319/1/2 327/1/2
f 327/1/2 320/1/2 328/1/2
f 321/3/2 322/3/2 329/3/2
f 329/3/2 322/3/2 330/3/2
f 322/2/2 295/2/2 331/2/2
f 330/3/2 322/3/2 331/3/2
f 295/1/2 323/1/2 332/1/2
f 331/2/2 295/2/2 332/2/2
f 323/2/2 324/2/2 333/2/2
f 332/1/2 323/1/2 333/1/2
f 333/2/2 324/2/2 334/2/2
f 334/2/2 324/2/2 335/2/2
f 325/3/2 326/3/2 336/3/2
f 336/3/2 326/3/2 337/3/2
f 326/2/2 304/2/2 338/2/2
f 337/3/2 326/3/2 338/3/2
f 304/1/2 327/1/2 339/1/2
f 338/2/2 304/2/2 339/2/2
f 327/2/2 328/2/2 340/2/2
f 339/1/2 327/1/2 340/1/2
f 340/2/2 328/2/2 341/2/2
f 341/2/2 328/2/2 342/2/2
f 331/3/2 332/3/2 343/3/2
f 330/3/2 331/3/2 343/3/2
f 343/3/2 332/3/2 344/3/2
f 333/2/2 334/2/2 345/2/2
f 332/2/2 333/2/2 345/2/2
f 345/2/2 334/2/2 346/2/2
f 337/3/2 338/3/2 347/3/2
f 338/3/2 339/3/2 347/3/2
f 347/3/2 339/3/2 348/3/2
f 340/2/2 341/2/2 349/2/2
f 339/2/2 340/2/2 349/2/2
f 349/2/2 341/2/2 350/2/2
f 344/3/2 332/3/2 351/3/2
f 351/3/2 332/3/2 352/3/2
f 332/2/2 345/2/2 353/2/2
f 353/2/2 345/2/2 354/2/2
f 348/3/2 339/3/2 355/3/2
f 355/3/2 339/3/2 356/3/2
f 339/2/2 349/2/2 357/2/2
f 357/2/2 349/2/2 358/2/2
f 352/3/2 332/3/2 359/3/2
f 332/2/2 353/2/2 360/2/2
f 359/3/2 332/3/2 360/3/2
f 360/2/2 353/2/2 361/2/2
f 356/3/2 339/3/2 362/3/2
f 339/2/2 357/2/2 363/2/2
f 362/3/2 339/3/2 363/3/2
f 363/2/2 357/2/2 364/2/2
f 367/4/3 366/4/3 365/4/3
f 368/4/3 366/4/3 367/4/3
f 369/4/3 366/4/3 368/4/3
f 370/4/3 366/4/3 369/4/3
f 371/4/3 369/4/3 368/4/3
f 371/5/3 370/5/3 369/5/3
f 372/5/3 370/5/3 371/5/3
f 373/4/3 371/4/3 368/4/3
f 373/4/3 372/4/3 371/4/3
f 374/4/3 372/4/3 373/4/3
f 375/4/3 373/4/3 368/4/3
f 376/5/3 374/5/3 373/5/3
f 376/4/3 373/4/3 375/4/3
f 377/5/3 374/5/3 376/5/3
f 380/4/3 379/4/3 378/4/3
f 381/4/3 379/4/3 380/4/3
f 387/4/3 383/4/3 382/4/3
f 388/4/3 383/4/3 387/4/3
f 392/4/3 385/4/3 384/4/3
f 393/5/3 386/5/3 385/5/3
f 393/4/3 385/4/3 392/4/3
f 394/5/3 386/5/3 393/5/3
f 395/3/3 389/3/3 388/3/3
f 396/4/3 390/4/3 389/4/3
f 396/3/3 389/3/3 395/3/3
f 397/2/3 391/2/3 390/2/3
f 397/4/3 390/4/3 396/4/3
f 398/3/3 392/3/3 391/3/3
f 398/2/3 391/2/3 397/2/3
f 399/3/3 392/3/3 398/3/3
f 405/4/3 401/4/3 400/4/3
f 406/4/3 401/4/3 405/4/3
f 410/4/3 403/4/3 402/4/3
f 411/5/3 404/5/3 403/5/3
f 411/4/3 403/4/3 410/4/3
f 412/5/3 404/5/3 411/5/3
f 413/3/3 407/3/3 406/3/3
f 414/3/3 407/3/3 413/3/3
f 415/3/3 410/3/3 409/3/3
f 415/3/3 409/3/3 408/3/3
f 416/3/3 410/3/3 415/3/3
f 422/4/3 418/4/3 417/4/3
f 423/4/3 418/4/3 422/4/3
f 427/4/3 420/4/3 419/4/3
f 428/5/3 421/5/3 420/5/3
f 428/4/3 420/4/3 427/4/3
f 429/5/3 421/5/3 428/5/3
f 430/3/3 424/3/3 423/3/3
f 431/3/3 424/3/3 430/3/3
f 432/3/3 427/3/3 426/3/3
f 432/3/3 426/3/3 425/3/3
f 433/3/3 427/3/3 432/3/3
f 436/4/3 435/4/3 434/4/3
f 437/4/3 435/4/3 436/4/3
f 441/3/3 438/3/3 437/3/3
f 442/3/3 438/3/3 441/3/3
f 443/3/3 440/3/3 439/3/3
f 444/3/3 440/3/3 443/3/3
f 447/4/3 446/4/3 445/4/3
f 448/4/3 446/4/3 447/4/3
f 454/4/3 450/4/3 449/4/3
f 455/4/3 450/4/3 454/4/3
f 459/4/3 452/4/3 451/4/3
f 460/5/3 453/5/3 452/5/3
f 460/4/3 452/4/3 459/4/3
f 461/5/3 453/5/3 460/5/3
f 462/3/3 456/3/3 455/3/3
f 463/4/3 457/4/3 456/4/3
f 463/3/3 456/3/3 462/3/3
f 464/2/3 458/2/3 457/2/3
f 464/4/3 457/4/3 463/4/3
f 465/3/3 459/3/3 458/3/3
f 465/2/3 458/2/3 464/2/3
f 466/3/3 459/3/3 465/3/3
f 472/4/3 468/4/3 467/4/3
f 473/4/3 468/4/3 472/4/3
f 477/4/3 470/4/3 469/4/3
f 478/5/3 471/5/3 470/5/3
f 478/4/3 470/4/3 477/4/3
f 479/5/3 471/5/3 478/5/3
f 480/3/3 474/3/3 473/3/3
f 481/3/3 474/3/3 480/3/3
f 482/3/3 477/3/3 476/3/3
f 482/3/3 476/3/3 475/3/3
f 483/3/3 477/3/3 482/3/3
f 489/4/3 485/4/3 484/4/3
f 490/4/3 485/4/3 489/4/3
f 494/4/3 487/4/3 486/4/3
f 495/5/3 488/5/3 487/5/3
f 495/4/3 487/4/3 494/4/3
f 496/5/3 488/5/3 495/5/3
f 497/3/3 491/3/3 490/3/3
f 498/3/3 491/3/3 497/3/3
f 499/3/3 494/3/3 493/3/3
f 499/3/3 493/3/3 492/3/3
f 500/3/3 494/3/3 499/3/3
f 503/4/3 502/4/3 501/4/3
f 504/4/3 502/4/3 503/4/3
f 508/3/3 505/3/3 504/3/3
f 509/3/3 505/3/3 508/3/3
f 510/3/3 507/3/3 506/3/3
f 511/3/3 507/3/3 510/3/3
f 514/4/3 513/4/3 512/4/3
f 515/4/3 513/4/3 514/4/3
f 516/4/3 513/4/3 515/4/3
f 517/4/3 513/4/3 516/4/3
f 518/4/3 516/4/3 515/4/3
f 518/5/3 517/5/3 516/5/3
f 519/5/3 517/5/3 518/5/3
f 520/4/3 518/4/3 515/4/3
f 520/4/3 519/4/3 518/4/3
f 521/4/3 519/4/3 520/4/3
f 522/4/3 520/4/3 515/4/3
f 523/5/3 521/5/3 520/5/3
f 523/4/3 520/4/3 522/4/3
f 524/5/3 521/5/3 523/5/3
f 525/4/4 526/4/4 527/4/4
f 527/4/4 526/4/4 528/4/4
f 528/4/4 526/4/4 529/4/4
f 529/4/4 526/4/4 530/4/4
f 528/4/4 529/4/4 531/4/4
f 529/5/4 530/5/4 531/5/4
f 531/5/4 530/5/4 532/5/4
f 528/4/4 531/4/4 533/4/4
f 531/4/4 532/4/4 533/4/4
f 533/4/4 532/4/4 534/4/4
f 528/4/4 533/4/4 535/4/4
f 533/5/4 534/5/4 536/5/4
f 535/4/4 533/4/4 536/4/4
f 536/5/4 534/5/4 537/5/4
f 538/4/4 539/4/4 540/4/4
f 540/4/4 539/4/4 541/4/4
f 541/2/4 542/2/4 545/2/4
f 545/2/4 542/2/4 546/2/4
f 543/2/4 544/2/4 547/2/4
f 547/2/4 544/2/4 548/2/4
f 549/4/4 550/4/4 554/4/4
f 554/4/4 550/4/4 555/4/4
f 551/4/4 552/4/4 559/4/4
f 552/5/4 553/5/4 560/5/4
f 559/4/4 552/4/4 560/4/4
f 560/5/4 553/5/4 561/5/4
f 555/2/4 556/2/4 562/2/4
f 562/2/4 556/2/4 563/2/4
f 558/2/4 559/2/4 564/2/4
f 557/2/4 558/2/4 564/2/4
f 564/2/4 559/2/4 565/2/4
f 566/4/4 567/4/4 571/4/4
f 571/4/4 567/4/4 572/4/4
f 568/4/4 569/4/4 576/4/4
f 569/5/4 570/5/4 577/5/4
f 576/4/4 569/4/4 577/4/4
f 577/5/4 570/5/4 578/5/4
f 572/2/4 573/2/4 579/2/4
f 579/2/4 573/2/4 580/2/4
f 575/2/4 576/2/4 581/2/4
f 574/2/4 575/2/4 581/2/4
f 581/2/4 576/2/4 582/2/4
f 583/4/4 584/4/4 588/4/4
f 588/4/4 584/4/4 589/4/4
f 585/4/4 586/4/4 593/4/4
f 586/5/4 587/5/4 594/5/4
f 593/4/4 586/4/4 594/4/4
f 594/5/4 587/5/4 595/5/4
f 589/2/4 590/2/4 596/2/4
f 590/4/4 591/4/4 597/4/4
f 596/2/4 590/2/4 597/2/4
f 591/1/4 592/1/4 598/1/4
f 597/4/4 591/4/4 598/4/4
f 592/2/4 593/2/4 599/2/4
f 598/1/4 592/1/4 599/1/4
f 599/2/4 593/2/4 600/2/4
f 601/4/4 602/4/4 603/4/4
f 603/4/4 602/4/4 604/4/4
f 605/4/4 606/4/4 607/4/4
f 607/4/4 606/4/4 608/4/4
f 608/2/4 609/2/4 612/2/4
f 612/2/4 609/2/4 613/2/4
f 610/2/4 611/2/4 614/2/4
f 614/2/4 611/2/4 615/2/4
f 616/4/4 617/4/4 621/4/4
f 621/4/4 617/4/4 622/4/4
f 618/4/4 619/4/4 626/4/4
f 619/5/4 620/5/4 627/5/4
f 626/4/4 619/4/4 627/4/4
f 627/5/4 620/5/4 628/5/4
f 622/2/4 623/2/4 629/2/4
f 629/2/4 623/2/4 630/2/4
f 625/2/4 626/2/4 631/2/4
f 624/2/4 625/2/4 631/2/4
f 631/2/4 626/2/4 632/2/4
f 633/4/4 634/4/4 638/4/4
f 638/4/4 634/4/4 639/4/4
f 635/4/4 636/4/4 643/4/4
f 636/5/4 637/5/4 644/5/4
f 643/4/4 636/4/4 644/4/4
f 644/5/4 637/5/4 645/5/4
f 639/2/4 640/2/4 646/2/4
f 646/2/4 640/2/4 647/2/4
f 642/2/4 643/2/4 648/2/4
f 641/2/4 642/2/4 648/2/4
f 648/2/4 643/2/4 649/2/4
f 650/4/4 651/4/4 655/4/4
f 655/4/4 651/4/4 656/4/4
f 652/4/4 653/4/4 660/4/4
f 653/5/4 654/5/4 661/5/4
f 660/4/4 653/4/4 661/4/4
f 661/5/4 654/5/4 662/5/4
f 656/2/4 657/2/4 663/2/4
f 657/4/4 658/4/4 664/4/4
f 663/2/4 657/2/4 664/2/4
f 658/1/4 659/1/4 665/1/4
f 664/4/4 658/4/4 665/4/4
f 659/2/4 660/2/4 666/2/4
f 665/1/4 659/1/4 666/1/4
f 666/2/4 660/2/4 667/2/4
f 668/4/4 669/4/4 670/4/4
f 670/4/4 669/4/4 671/4/4
f 672/4/4 673/4/4 674/4/4
f 674/4/4 673/4/4 675/4/4
f 675/4/4 673/4/4 676/4/4
f 676/4/4 673/4/4 677/4/4
f 675/4/4 676/4/4 678/4/4
f 676/5/4 677/5/4 678/5/4
f 678/5/4 677/5/4 679/5/4
f 675/4/4 678/4/4 680/4/4
f 678/4/4 679/4/4 680/4/4
f 680/4/4 679/4/4 681/4/4
f 675/4/4 680/4/4 682/4/4
f 680/5/4 681/5/4 683/5/4
f 682/4/4 680/4/4 683/4/4
f 683/5/4 681/5/4 684/5/4
f 687/4/5 686/4/5 685/4/5
f 688/4/5 686/4/5 687/4/5
f 691/4/5 690/4/5 689/4/5
f 692/4/5 690/4/5 691/4/5
f 695/4/5 694/4/5 693/4/5
f 696/4/5 694/4/5 695/4/5
f 698/3/5 697/3/5 696/3/5
f 699/3/5 697/3/5 698/3/5
f 701/2/5 699/2/5 698/2/5
f 702/2/5 699/2/5 701/2/5
f 703/4/5 701/4/5 700/4/5
f 704/4/5 701/4/5 703/4/5
f 707/4/5 706/4/5 705/4/5
f 708/4/5 706/4/5 707/4/5
f 710/3/5 709/3/5 708/3/5
f 711/3/5 709/3/5 710/3/5
f 713/2/5 711/2/5 710/2/5
f 714/2/5 711/2/5 713/2/5
f 715/4/5 713/4/5 712/4/5
f 716/4/5 713/4/5 715/4/5
f 719/4/5 718/4/5 717/4/5
f 720/4/5 718/4/5 719/4/5
f 722/3/5 721/3/5 720/3/5
f 723/3/5 721/3/5 722/3/5
f 727/2/5 725/2/5 724/2/5
f 728/2/5 725/2/5 727/2/5
f 729/4/5 727/4/5 726/4/5
f 730/4/5 727/4/5 729/4/5
f 733/4/5 732/4/5 731/4/5
f 734/4/5 732/4/5 733/4/5
f 736/3/5 735/3/5 734/3/5
f 737/3/5 735/3/5 736/3/5
f 741/2/5 739/2/5 738/2/5
f 742/2/5 739/2/5 741/2/5
f 743/4/5 741/4/5 740/4/5
f 744/4/5 741/4/5 743/4/5
f 747/4/5 746/4/5 745/4/5
f 748/4/5 746/4/5 747/4/5
f 750/3/5 749/3/5 748/3/5
f 751/3/5 749/3/5 750/3/5
f 755/2/5 753/2/5 752/2/5
f 756/2/5 753/2/5 755/2/5
f 757/4/5 755/4/5 754/4/5
f 758/4/5 755/4/5 757/4/5
f 761/4/5 760/4/5 759/4/5
f 762/4/5 760/4/5 761/4/5
f 764/3/5 763/3/5 762/3/5
f 765/3/5 763/3/5 764/3/5
f 769/2/5 767/2/5 766/2/5
f 770/2/5 767/2/5 769/2/5
f 771/4/5 769/4/5 768/4/5
f 772/4/5 769/4/5 771/4/5
f 775/4/5 774/4/5 773/4/5
f 776/4/5 774/4/5 775/4/5
f 778/3/5 777/3/5 776/3/5
f 779/3/5 777/3/5 778/3/5
f 783/2/5 781/2/5 780/2/5
f 784/2/5 781/2/5 783/2/5
f 785/4/5 783/4/5 782/4/5
f 786/4/5 783/4/5 785/4/5
f 789/4/5 788/4/5 787/4/5
f 790/4/5 788/4/5 789/4/5
f 792/3/5 791/3/5 790/3/5
f 793/3/5 791/3/5 792/3/5
f 797/2/5 795/2/5 794/2/5
f 798/2/5 795/2/5 797/2/5
f 799/4/5 797/4/5 796/4/5
f 800/4/5 797/4/5 799/4/5
f 803/4/5 802/4/5 801/4/5
f 804/4/5 802/4/5 803/4/5
f 807/4/5 806/4/5 805/4/5
f 808/4/5 806/4/5 807/4/5
f 811/4/5 810/4/5 809/4/5
f 812/4/5 810/4/5 811/4/5
f 813/4/5 810/4/5 812/4/5
f 816/4/5 815/4/5 814/4/5
f 817/4/5 815/4/5 816/4/5
f 821/4/5 819/4/5 818/4/5
f 821/4/5 820/4/5 819/4/5
f 822/4/5 820/4/5 821/4/5
f 823/4/6 824/4/6 828/4/6
f 824/5/6 825/5/6 829/5/6
f 828/4/6 824/4/6 829/4/6
f 825/4/6 826/4/6 830/4/6
f 829/5/6 825/5/6 830/5/6
f 826/5/6 827/5/6 831/5/6
f 830/4/6 826/4/6 831/4/6
f 831/5/6 827/5/6 832/5/6
f 832/5/6 827/5/6 833/5/6
f 832/4/6 833/4/6 834/4/6
f 834/4/6 833/4/6 835/4/6
f 835/3/6 836/3/6 837/3/6
f 837/3/6 836/3/6 838/3/6
f 839/2/6 840/2/6 842/2/6
f 842/2/6 840/2/6 843/2/6
f 841/4/6 842/4/6 844/4/6
f 844/4/6 842/4/6 845/4/6
f 844/5/6 845/5/6 846/5/6
f 846/5/6 845/5/6 847/5/6
f 846/4/6 847/4/6 848/4/6
f 848/4/6 847/4/6 849/4/6
f 849/3/6 850/3/6 851/3/6
f 851/3/6 850/3/6 852/3/6
f 853/2/6 854/2/6 856/2/6
f 856/2/6 854/2/6 857/2/6
f 855/4/6 856/4/6 862/4/6
f 862/4/6 856/4/6 863/4/6
f 858/4/6 859/4/6 864/4/6
f 859/5/6 860/5/6 865/5/6
f 864/4/6 859/4/6 865/4/6
f 860/4/6 861/4/6 866/4/6
f 865/5/6 860/5/6 866/5/6
f 861/5/6 862/5/6 867/5/6
f 866/4/6 861/4/6 867/4/6
f 862/5/6 863/5/6 867/5/6
f 867/5/6 863/5/6 868/5/6
f 869/5/6 870/5/6 871/5/6
f 871/5/6 870/5/6 872/5/6
f 872/3/6 873/3/6 874/3/6
f 874/3/6 873/3/6 875/3/6
f 876/2/6 877/2/6 879/2/6
f 879/2/6 877/2/6 880/2/6
f 878/5/6 879/5/6 881/5/6
f 881/5/6 879/5/6 882/5/6
f 883/5/6 884/5/6 885/5/6
f 885/5/6 884/5/6 886/5/6
f 886/3/6 887/3/6 888/3/6
f 888/3/6 887/3/6 889/3/6
f 890/2/6 891/2/6 893/2/6
f 893/2/6 891/2/6 894/2/6
f 892/5/6 893/5/6 895/5/6
f 895/5/6 893/5/6 896/5/6
f 897/5/6 898/5/6 899/5/6
f 899/5/6 898/5/6 900/5/6
f 900/3/6 901/3/6 902/3/6
f 902/3/6 901/3/6 903/3/6
f 904/2/6 905/2/6 907/2/6
f 907/2/6 905/2/6 908/2/6
f 906/5/6 907/5/6 909/5/6
f 909/5/6 907/5/6 910/5/6
f 911/5/6 912/5/6 913/5/6
f 913/5/6 912/5/6 914/5/6
f 914/3/6 915/3/6 916/3/6
f 916/3/6 915/3/6 917/3/6
f 918/2/6 919/2/6 921/2/6
f 921/2/6 919/2/6 922/2/6
f 920/5/6 921/5/6 923/5/6
f 923/5/6 921/5/6 924/5/6
f 925/3/6 926/3/6 927/3/6
f 927/3/6 926/3/6 928/3/6
f 927/2/6 928/2/6 929/2/6
f 929/2/6 928/2/6 930/2/6
f 931/3/6 932/3/6 933/3/6
f 933/3/6 932/3/6 934/3/6
f 933/2/6 934/2/6 935/2/6
f 935/2/6 934/2/6 936/2/6
f 937/5/6 938/5/6 939/5/6
f 939/5/6 938/5/6 940/5/6
f 941/5/6 942/5/6 943/5/6
f 943/5/6 942/5/6 944/5/6
