# MagicaVoxel @ Ephtracy

# group
o 

# material
mtllib model-0.mtl
usemtl palette

# normals
vn 0 0 1
vn 0 0 -1
vn 1 0 0
vn -1 0 0
vn 0 -1 0
vn 0 1 0

# texcoords
vt 0.470703 0.5
vt 0.505859 0.5
vt 0.755859 0.5
vt 0.759766 0.5

# verts
v 0.5 0.1 1
v -0.5 0.1 1
v 0.5 0.8 1
v -0.5 0.8 1
v 0.6 0 0.8
v 0.5 0 0.8
v 0.5 0.1 0.8
v 0.6 0.8 0.8
v 0.5 0.8 0.8
v 0.6 0.4 -0.1
v 0.5 0.4 -0.1
v 0.6 0.6 -0.1
v 0.5 0.6 -0.1
v 0.6 0.2 -0.2
v 0.5 0.2 -0.2
v 0.6 0.4 -0.2
v 0.5 0.4 -0.2
v 0.6 0 -0.3
v 0.5 0 -0.3
v 0.6 0.2 -0.3
v 0.5 0.2 -0.3
v 0.5 0.1 -0.8
v 0.4 0.1 -0.8
v 0.5 0.2 -0.8
v 0.4 0.2 -0.8
v 0.4 0.1 -0.9
v -0.4 0.1 -0.9
v 0.4 0.2 -0.9
v -0.4 0.2 -0.9
v 0.4 0.1 0.9
v -0.4 0.1 0.9
v 0.4 0.2 0.9
v -0.4 0.2 0.9
v 0.5 0.1 0.8
v 0.4 0.1 0.8
v 0.5 0.2 0.8
v 0.4 0.2 0.8
v 0.6 0 0.3
v 0.5 0 0.3
v 0.6 0.2 0.3
v 0.5 0.2 0.3
v 0.6 0.2 0.2
v 0.5 0.2 0.2
v 0.6 0.4 0.2
v 0.5 0.4 0.2
v 0.6 0.4 0.1
v 0.5 0.4 0.1
v 0.6 0.6 0.1
v 0.5 0.6 0.1
v 0.6 0 -0.8
v 0.5 0 -0.8
v 0.5 0.1 -0.8
v 0.6 0.8 -0.8
v 0.5 0.8 -0.8
v 0.5 0.1 -1
v -0.5 0.1 -1
v 0.5 0.8 -1
v -0.5 0.8 -1
v 0.6 0 0.8
v 0.6 0.8 0.8
v 0.6 0 0.3
v 0.6 0.2 0.3
v 0.6 0.5 0.3
v 0.6 0.7 0.3
v 0.6 0.2 0.2
v 0.6 0.4 0.2
v 0.6 0.5 0.2
v 0.6 0.7 0.2
v 0.6 0.4 0.1
v 0.6 0.6 0.1
v 0.6 0.8 0.1
v 0.6 0.4 -0.1
v 0.6 0.6 -0.1
v 0.6 0.8 -0.1
v 0.6 0.2 -0.2
v 0.6 0.4 -0.2
v 0.6 0.5 -0.2
v 0.6 0.7 -0.2
v 0.6 0 -0.3
v 0.6 0.2 -0.3
v 0.6 0.5 -0.3
v 0.6 0.7 -0.3
v 0.6 0 -0.8
v 0.6 0.8 -0.8
v 0.5 0.1 1
v 0.5 0.8 1
v 0.5 0.1 0.8
v 0.5 0.8 0.8
v 0.5 0.2 0.2
v 0.5 0.4 0.2
v 0.5 0.4 0.1
v 0.5 0.6 0.1
v 0.5 0.4 -0.1
v 0.5 0.6 -0.1
v 0.5 0.2 -0.2
v 0.5 0.4 -0.2
v 0.5 0.1 -0.8
v 0.5 0.8 -0.8
v 0.5 0.1 -1
v 0.5 0.8 -1
v -0.4 0.1 0.9
v -0.4 0.2 0.9
v -0.4 0.1 -0.9
v -0.4 0.2 -0.9
v 0.5 0 0.8
v 0.5 0.1 0.8
v 0.5 0.2 0.8
v 0.5 0 0.3
v 0.5 0.2 0.3
v 0.5 0 -0.3
v 0.5 0.2 -0.3
v 0.5 0 -0.8
v 0.5 0.1 -0.8
v 0.5 0.2 -0.8
v 0.4 0.1 0.9
v 0.4 0.2 0.9
v 0.4 0.1 0.8
v 0.4 0.2 0.8
v 0.4 0.1 -0.8
v 0.4 0.2 -0.8
v 0.4 0.1 -0.9
v 0.4 0.2 -0.9
v -0.5 0.1 1
v -0.5 0.8 1
v -0.5 0.1 -1
v -0.5 0.8 -1
v 0.6 0 0.8
v 0.6 0 0.3
v 0.6 0 -0.3
v 0.6 0 -0.8
v 0.5 0 0.8
v 0.5 0 0.3
v 0.5 0 -0.3
v 0.5 0 -0.8
v 0.5 0.1 1
v 0.5 0.1 0.8
v 0.5 0.1 -0.8
v 0.5 0.1 -1
v 0.4 0.1 0.9
v 0.4 0.1 0.8
v 0.4 0.1 -0.8
v 0.4 0.1 -0.9
v -0.4 0.1 0.9
v -0.4 0.1 -0.9
v -0.5 0.1 1
v -0.5 0.1 -1
v 0.6 0.2 0.3
v 0.6 0.2 0.2
v 0.6 0.2 -0.2
v 0.6 0.2 -0.3
v 0.5 0.2 0.8
v 0.5 0.2 0.3
v 0.5 0.2 0.2
v 0.5 0.2 -0.2
v 0.5 0.2 -0.3
v 0.5 0.2 -0.8
v 0.4 0.2 0.9
v 0.4 0.2 0.8
v 0.4 0.2 -0.8
v 0.4 0.2 -0.9
v 0.3 0.2 0.2
v 0.3 0.2 -0.2
v -0.4 0.2 0.9
v -0.4 0.2 -0.9
v 0.6 0.4 0.2
v 0.6 0.4 0.1
v 0.6 0.4 -0.1
v 0.6 0.4 -0.2
v 0.5 0.4 0.2
v 0.5 0.4 0.1
v 0.5 0.4 -0.1
v 0.5 0.4 -0.2
v 0.6 0.6 0.1
v 0.6 0.6 -0.1
v 0.5 0.6 0.1
v 0.5 0.6 -0.1
v 0.6 0.8 0.8
v 0.6 0.8 0.1
v 0.6 0.8 -0.1
v 0.6 0.8 -0.8
v 0.5 0.8 1
v 0.5 0.8 0.8
v 0.5 0.8 -0.8
v 0.5 0.8 -1
v 0.4 0.8 0.1
v 0.4 0.8 -0.1
v -0.5 0.8 1
v -0.5 0.8 -1

# faces
f 3/3/1 2/3/1 1/3/1
f 4/3/1 2/3/1 3/3/1
f 7/3/1 6/3/1 5/3/1
f 8/3/1 7/3/1 5/3/1
f 9/3/1 7/3/1 8/3/1
f 12/3/1 11/3/1 10/3/1
f 13/3/1 11/3/1 12/3/1
f 16/3/1 15/3/1 14/3/1
f 17/3/1 15/3/1 16/3/1
f 20/3/1 19/3/1 18/3/1
f 21/3/1 19/3/1 20/3/1
f 24/3/1 23/3/1 22/3/1
f 25/3/1 23/3/1 24/3/1
f 28/3/1 27/3/1 26/3/1
f 29/3/1 27/3/1 28/3/1
f 30/3/2 31/3/2 32/3/2
f 32/3/2 31/3/2 33/3/2
f 34/3/2 35/3/2 36/3/2
f 36/3/2 35/3/2 37/3/2
f 38/3/2 39/3/2 40/3/2
f 40/3/2 39/3/2 41/3/2
f 42/3/2 43/3/2 44/3/2
f 44/3/2 43/3/2 45/3/2
f 46/3/2 47/3/2 48/3/2
f 48/3/2 47/3/2 49/3/2
f 50/3/2 51/3/2 52/3/2
f 50/3/2 52/3/2 53/3/2
f 53/3/2 52/3/2 54/3/2
f 55/3/2 56/3/2 57/3/2
f 57/3/2 56/3/2 58/3/2
f 61/3/3 60/3/3 59/3/3
f 62/3/3 60/3/3 61/3/3
f 63/3/3 60/3/3 62/3/3
f 64/3/3 60/3/3 63/3/3
f 65/3/3 63/3/3 62/3/3
f 66/3/3 63/3/3 65/3/3
f 67/4/3 64/4/3 63/4/3
f 67/3/3 63/3/3 66/3/3
f 68/3/3 60/3/3 64/3/3
f 68/4/3 64/4/3 67/4/3
f 69/3/3 67/3/3 66/3/3
f 69/3/3 68/3/3 67/3/3
f 70/3/3 68/3/3 69/3/3
f 71/3/3 60/3/3 68/3/3
f 71/3/3 68/3/3 70/3/3
f 73/1/3 71/1/3 70/1/3
f 74/1/3 71/1/3 73/1/3
f 76/3/3 73/3/3 72/3/3
f 76/3/3 74/3/3 73/3/3
f 77/3/3 74/3/3 76/3/3
f 78/3/3 74/3/3 77/3/3
f 80/3/3 76/3/3 75/3/3
f 80/3/3 77/3/3 76/3/3
f 81/4/3 78/4/3 77/4/3
f 81/3/3 77/3/3 80/3/3
f 82/3/3 74/3/3 78/3/3
f 82/4/3 78/4/3 81/4/3
f 83/3/3 81/3/3 80/3/3
f 83/3/3 80/3/3 79/3/3
f 83/3/3 82/3/3 81/3/3
f 84/3/3 74/3/3 82/3/3
f 84/3/3 82/3/3 83/3/3
f 87/3/3 86/3/3 85/3/3
f 88/3/3 86/3/3 87/3/3
f 91/2/3 90/2/3 89/2/3
f 93/2/3 91/2/3 89/2/3
f 93/2/3 92/2/3 91/2/3
f 94/2/3 92/2/3 93/2/3
f 95/2/3 93/2/3 89/2/3
f 96/2/3 93/2/3 95/2/3
f 99/3/3 98/3/3 97/3/3
f 100/3/3 98/3/3 99/3/3
f 103/3/3 102/3/3 101/3/3
f 104/3/3 102/3/3 103/3/3
f 105/3/4 106/3/4 108/3/4
f 106/3/4 107/3/4 108/3/4
f 108/3/4 107/3/4 109/3/4
f 110/3/4 111/3/4 112/3/4
f 112/3/4 111/3/4 113/3/4
f 113/3/4 111/3/4 114/3/4
f 115/3/4 116/3/4 117/3/4
f 117/3/4 116/3/4 118/3/4
f 119/3/4 120/3/4 121/3/4
f 121/3/4 120/3/4 122/3/4
f 123/3/4 124/3/4 125/3/4
f 125/3/4 124/3/4 126/3/4
f 131/3/5 128/3/5 127/3/5
f 132/3/5 128/3/5 131/3/5
f 133/3/5 130/3/5 129/3/5
f 134/3/5 130/3/5 133/3/5
f 139/3/5 136/3/5 135/3/5
f 140/3/5 136/3/5 139/3/5
f 141/3/5 138/3/5 137/3/5
f 142/3/5 138/3/5 141/3/5
f 143/3/5 139/3/5 135/3/5
f 144/3/5 138/3/5 142/3/5
f 145/3/5 143/3/5 135/3/5
f 145/3/5 144/3/5 143/3/5
f 146/3/5 138/3/5 144/3/5
f 146/3/5 144/3/5 145/3/5
f 152/3/5 148/3/5 147/3/5
f 153/3/5 148/3/5 152/3/5
f 154/3/5 150/3/5 149/3/5
f 155/3/5 150/3/5 154/3/5
f 158/3/5 153/3/5 152/3/5
f 158/3/5 152/3/5 151/3/5
f 159/3/5 156/3/5 155/3/5
f 159/3/5 155/3/5 154/3/5
f 161/3/5 158/3/5 157/3/5
f 161/3/5 153/3/5 158/3/5
f 161/2/5 154/2/5 153/2/5
f 162/3/5 160/3/5 159/3/5
f 162/2/5 154/2/5 161/2/5
f 162/3/5 159/3/5 154/3/5
f 163/3/5 161/3/5 157/3/5
f 163/3/5 162/3/5 161/3/5
f 164/3/5 160/3/5 162/3/5
f 164/3/5 162/3/5 163/3/5
f 169/3/5 166/3/5 165/3/5
f 170/3/5 166/3/5 169/3/5
f 171/3/5 168/3/5 167/3/5
f 172/3/5 168/3/5 171/3/5
f 175/1/5 174/1/5 173/1/5
f 176/1/5 174/1/5 175/1/5
f 177/3/6 178/3/6 182/3/6
f 179/3/6 180/3/6 183/3/6
f 181/3/6 182/3/6 185/3/6
f 178/1/6 179/1/6 185/1/6
f 182/3/6 178/3/6 185/3/6
f 183/3/6 184/3/6 186/3/6
f 185/1/6 179/1/6 186/1/6
f 179/3/6 183/3/6 186/3/6
f 181/3/6 185/3/6 187/3/6
f 185/3/6 186/3/6 187/3/6
f 186/3/6 184/3/6 188/3/6
f 187/3/6 186/3/6 188/3/6
