# MagicaVoxel @ Ephtracy

# group
o 

# material
mtllib model-1.mtl
usemtl palette

# normals
vn 0 0 1
vn 0 0 -1
vn 1 0 0
vn -1 0 0
vn 0 -1 0
vn 0 1 0

# texcoords
vt 0.470703 0.5
vt 0.505859 0.5
vt 0.755859 0.5
vt 0.759766 0.5

# verts
v 0.5 0.7 1
v -0.5 0.7 1
v 0.5 2.2 1
v -0.5 2.2 1
v 0.6 0.7 0.8
v 0.5 0.7 0.8
v 0.6 2.2 0.8
v 0.5 2.2 0.8
v 0.6 1.1 -0.1
v 0.5 1.1 -0.1
v 0.6 1.4 -0.1
v 0.5 1.4 -0.1
v 0.5 2 -0.1
v -0.4 2 -0.1
v 0.5 2.1 -0.1
v -0.4 2.1 -0.1
v 0.6 1.4 -0.2
v 0.5 1.4 -0.2
v 0.6 1.7 -0.2
v 0.5 1.7 -0.2
v 0.6 1.7 -0.3
v 0.5 1.7 -0.3
v 0.6 2 -0.3
v 0.5 2 -0.3
v 0.6 2 -0.5
v 0.5 2 -0.5
v 0.5 2.1 -0.5
v -0.4 2.1 -0.5
v 0.6 2.2 -0.5
v -0.4 2.2 -0.5
v 0.6 2 0.5
v 0.5 2 0.5
v 0.5 2.1 0.5
v -0.4 2.1 0.5
v 0.6 2.2 0.5
v -0.4 2.2 0.5
v 0.6 1.7 0.3
v 0.5 1.7 0.3
v 0.6 2 0.3
v 0.5 2 0.3
v 0.6 1.4 0.2
v 0.5 1.4 0.2
v 0.6 1.7 0.2
v 0.5 1.7 0.2
v 0.6 1.1 0.1
v 0.5 1.1 0.1
v 0.6 1.4 0.1
v 0.5 1.4 0.1
v 0.5 2 0.1
v -0.4 2 0.1
v 0.5 2.1 0.1
v -0.4 2.1 0.1
v 0.6 0.7 -0.8
v 0.5 0.7 -0.8
v 0.6 2.2 -0.8
v 0.5 2.2 -0.8
v 0.5 0.7 -1
v -0.5 0.7 -1
v 0.5 2.2 -1
v -0.5 2.2 -1
v 0.6 0.7 0.8
v 0.6 2.2 0.8
v 0.6 1.9 0.7
v 0.6 2.1 0.7
v 0.6 1.9 0.6
v 0.6 2.1 0.6
v 0.6 1.7 0.5
v 0.6 1.9 0.5
v 0.6 2 0.5
v 0.6 2.2 0.5
v 0.6 1.4 0.4
v 0.6 1.6 0.4
v 0.6 1.7 0.4
v 0.6 1.9 0.4
v 0.6 0.8 0.3
v 0.6 1 0.3
v 0.6 1.1 0.3
v 0.6 1.3 0.3
v 0.6 1.4 0.3
v 0.6 1.6 0.3
v 0.6 1.7 0.3
v 0.6 2 0.3
v 0.6 0.8 0.2
v 0.6 1 0.2
v 0.6 1.1 0.2
v 0.6 1.3 0.2
v 0.6 1.4 0.2
v 0.6 1.7 0.2
v 0.6 0.7 0.1
v 0.6 1.1 0.1
v 0.6 1.4 0.1
v 0.6 0.7 -0.1
v 0.6 1.1 -0.1
v 0.6 1.4 -0.1
v 0.6 0.8 -0.2
v 0.6 1 -0.2
v 0.6 1.1 -0.2
v 0.6 1.3 -0.2
v 0.6 1.4 -0.2
v 0.6 1.7 -0.2
v 0.6 0.8 -0.3
v 0.6 1 -0.3
v 0.6 1.1 -0.3
v 0.6 1.3 -0.3
v 0.6 1.4 -0.3
v 0.6 1.6 -0.3
v 0.6 1.7 -0.3
v 0.6 2 -0.3
v 0.6 1.4 -0.4
v 0.6 1.6 -0.4
v 0.6 1.7 -0.4
v 0.6 1.9 -0.4
v 0.6 1.7 -0.5
v 0.6 1.9 -0.5
v 0.6 2 -0.5
v 0.6 2.2 -0.5
v 0.6 1.9 -0.6
v 0.6 2.1 -0.6
v 0.6 1.9 -0.7
v 0.6 2.1 -0.7
v 0.6 0.7 -0.8
v 0.6 2.2 -0.8
v 0.5 0.7 1
v 0.5 2.2 1
v 0.5 0.7 0.8
v 0.5 2.2 0.8
v 0.5 2 0.5
v 0.5 2.1 0.5
v 0.5 1.7 0.3
v 0.5 2 0.3
v 0.5 1.4 0.2
v 0.5 1.7 0.2
v 0.5 1.1 0.1
v 0.5 1.4 0.1
v 0.5 2 0.1
v 0.5 2.1 0.1
v 0.5 1.1 -0.1
v 0.5 1.4 -0.1
v 0.5 2 -0.1
v 0.5 2.1 -0.1
v 0.5 1.4 -0.2
v 0.5 1.7 -0.2
v 0.5 1.7 -0.3
v 0.5 2 -0.3
v 0.5 2 -0.5
v 0.5 2.1 -0.5
v 0.5 0.7 -0.8
v 0.5 2.2 -0.8
v 0.5 0.7 -1
v 0.5 2.2 -1
v -0.4 2.1 0.5
v -0.4 2.2 0.5
v -0.4 2 0.1
v -0.4 2.1 0.1
v -0.4 2 -0.1
v -0.4 2.1 -0.1
v -0.4 2.1 -0.5
v -0.4 2.2 -0.5
v -0.5 0.7 1
v -0.5 2.2 1
v -0.5 2 0.7
v -0.5 2.1 0.7
v -0.5 2 0.5
v -0.5 2.1 0.5
v -0.5 2 0.4
v -0.5 2.1 0.4
v -0.5 2 0.2
v -0.5 2.1 0.2
v -0.5 2 0.1
v -0.5 2.1 0.1
v -0.5 2 -0.1
v -0.5 2.1 -0.1
v -0.5 2 -0.2
v -0.5 2.1 -0.2
v -0.5 2 -0.4
v -0.5 2.1 -0.4
v -0.5 2 -0.5
v -0.5 2.1 -0.5
v -0.5 2 -0.7
v -0.5 2.1 -0.7
v -0.5 0.7 -1
v -0.5 2.2 -1
v 0.6 0.7 0.8
v 0.6 0.7 0.1
v 0.6 0.7 -0.1
v 0.6 0.7 -0.8
v 0.5 0.7 1
v 0.5 0.7 0.8
v 0.5 0.7 -0.8
v 0.5 0.7 -1
v 0.4 0.7 0.1
v 0.4 0.7 -0.1
v -0.5 0.7 1
v -0.5 0.7 -1
v 0.6 1.1 0.1
v 0.6 1.1 -0.1
v 0.5 1.1 0.1
v 0.5 1.1 -0.1
v 0.6 1.4 0.2
v 0.6 1.4 0.1
v 0.6 1.4 -0.1
v 0.6 1.4 -0.2
v 0.5 1.4 0.2
v 0.5 1.4 0.1
v 0.5 1.4 -0.1
v 0.5 1.4 -0.2
v 0.6 1.7 0.3
v 0.6 1.7 0.2
v 0.6 1.7 -0.2
v 0.6 1.7 -0.3
v 0.5 1.7 0.3
v 0.5 1.7 0.2
v 0.5 1.7 -0.2
v 0.5 1.7 -0.3
v 0.6 2 0.5
v 0.6 2 0.3
v 0.6 2 -0.3
v 0.6 2 -0.5
v 0.5 2 0.5
v 0.5 2 0.3
v 0.5 2 0.1
v 0.5 2 -0.1
v 0.5 2 -0.3
v 0.5 2 -0.5
v -0.4 2 0.1
v -0.4 2 -0.1
v 0.5 2.1 0.5
v 0.5 2.1 0.1
v 0.5 2.1 -0.1
v 0.5 2.1 -0.5
v -0.4 2.1 0.5
v -0.4 2.1 0.1
v -0.4 2.1 -0.1
v -0.4 2.1 -0.5
v 0.6 2.2 0.8
v 0.6 2.2 0.5
v 0.6 2.2 -0.5
v 0.6 2.2 -0.8
v 0.5 2.2 1
v 0.5 2.2 0.8
v 0.5 2.2 0.7
v 0.5 2.2 0.6
v 0.5 2.2 -0.6
v 0.5 2.2 -0.7
v 0.5 2.2 -0.8
v 0.5 2.2 -1
v 0.3 2.2 0.7
v 0.3 2.2 0.6
v 0.3 2.2 -0.6
v 0.3 2.2 -0.7
v 0.2 2.2 0.7
v 0.2 2.2 0.6
v 0.2 2.2 -0.6
v 0.2 2.2 -0.7
v -0.1 2.2 0.7
v -0.1 2.2 0.6
v -0.1 2.2 -0.6
v -0.1 2.2 -0.7
v -0.2 2.2 0.7
v -0.2 2.2 0.6
v -0.2 2.2 -0.6
v -0.2 2.2 -0.7
v -0.4 2.2 0.7
v -0.4 2.2 0.6
v -0.4 2.2 0.5
v -0.4 2.2 -0.5
v -0.4 2.2 -0.6
v -0.4 2.2 -0.7
v -0.5 2.2 1
v -0.5 2.2 -1

# faces
f 3/3/1 2/3/1 1/3/1
f 4/3/1 2/3/1 3/3/1
f 7/3/1 6/3/1 5/3/1
f 8/3/1 6/3/1 7/3/1
f 11/3/1 10/3/1 9/3/1
f 12/3/1 10/3/1 11/3/1
f 15/2/1 14/2/1 13/2/1
f 16/2/1 14/2/1 15/2/1
f 19/3/1 18/3/1 17/3/1
f 20/3/1 18/3/1 19/3/1
f 23/3/1 22/3/1 21/3/1
f 24/3/1 22/3/1 23/3/1
f 27/3/1 26/3/1 25/3/1
f 29/3/1 27/3/1 25/3/1
f 29/3/1 28/3/1 27/3/1
f 30/3/1 28/3/1 29/3/1
f 31/3/2 32/3/2 33/3/2
f 31/3/2 33/3/2 35/3/2
f 33/3/2 34/3/2 35/3/2
f 35/3/2 34/3/2 36/3/2
f 37/3/2 38/3/2 39/3/2
f 39/3/2 38/3/2 40/3/2
f 41/3/2 42/3/2 43/3/2
f 43/3/2 42/3/2 44/3/2
f 45/3/2 46/3/2 47/3/2
f 47/3/2 46/3/2 48/3/2
f 49/2/2 50/2/2 51/2/2
f 51/2/2 50/2/2 52/2/2
f 53/3/2 54/3/2 55/3/2
f 55/3/2 54/3/2 56/3/2
f 57/3/2 58/3/2 59/3/2
f 59/3/2 58/3/2 60/3/2
f 63/3/3 62/3/3 61/3/3
f 64/3/3 62/3/3 63/3/3
f 65/3/3 63/3/3 61/3/3
f 65/4/3 64/4/3 63/4/3
f 66/3/3 62/3/3 64/3/3
f 66/4/3 64/4/3 65/4/3
f 67/3/3 65/3/3 61/3/3
f 67/3/3 66/3/3 65/3/3
f 68/3/3 66/3/3 67/3/3
f 69/3/3 66/3/3 68/3/3
f 70/3/3 62/3/3 66/3/3
f 70/3/3 66/3/3 69/3/3
f 71/3/3 67/3/3 61/3/3
f 72/3/3 67/3/3 71/3/3
f 73/4/3 68/4/3 67/4/3
f 73/3/3 67/3/3 72/3/3
f 74/3/3 69/3/3 68/3/3
f 74/4/3 68/4/3 73/4/3
f 75/3/3 71/3/3 61/3/3
f 76/3/3 71/3/3 75/3/3
f 77/3/3 71/3/3 76/3/3
f 78/3/3 71/3/3 77/3/3
f 79/4/3 72/4/3 71/4/3
f 79/3/3 71/3/3 78/3/3
f 80/3/3 73/3/3 72/3/3
f 80/4/3 72/4/3 79/4/3
f 80/3/3 74/3/3 73/3/3
f 81/3/3 74/3/3 80/3/3
f 82/3/3 69/3/3 74/3/3
f 82/3/3 74/3/3 81/3/3
f 83/3/3 75/3/3 61/3/3
f 83/4/3 76/4/3 75/4/3
f 84/3/3 77/3/3 76/3/3
f 84/4/3 76/4/3 83/4/3
f 85/4/3 78/4/3 77/4/3
f 85/3/3 77/3/3 84/3/3
f 86/3/3 79/3/3 78/3/3
f 86/4/3 78/4/3 85/4/3
f 86/3/3 81/3/3 80/3/3
f 86/3/3 80/3/3 79/3/3
f 87/3/3 81/3/3 86/3/3
f 88/3/3 81/3/3 87/3/3
f 89/3/3 85/3/3 84/3/3
f 89/3/3 84/3/3 83/3/3
f 89/3/3 87/3/3 86/3/3
f 89/3/3 86/3/3 85/3/3
f 89/3/3 83/3/3 61/3/3
f 90/3/3 87/3/3 89/3/3
f 91/3/3 87/3/3 90/3/3
f 92/1/3 90/1/3 89/1/3
f 93/1/3 90/1/3 92/1/3
f 95/3/3 93/3/3 92/3/3
f 95/3/3 94/3/3 93/3/3
f 96/3/3 94/3/3 95/3/3
f 97/3/3 94/3/3 96/3/3
f 98/3/3 94/3/3 97/3/3
f 99/3/3 94/3/3 98/3/3
f 101/3/3 95/3/3 92/3/3
f 101/4/3 96/4/3 95/4/3
f 102/3/3 97/3/3 96/3/3
f 102/4/3 96/4/3 101/4/3
f 103/4/3 98/4/3 97/4/3
f 103/3/3 97/3/3 102/3/3
f 104/3/3 99/3/3 98/3/3
f 104/4/3 98/4/3 103/4/3
f 104/3/3 100/3/3 99/3/3
f 105/3/3 100/3/3 104/3/3
f 106/3/3 100/3/3 105/3/3
f 107/3/3 100/3/3 106/3/3
f 109/3/3 103/3/3 102/3/3
f 109/3/3 102/3/3 101/3/3
f 109/4/3 106/4/3 105/4/3
f 109/3/3 105/3/3 104/3/3
f 109/3/3 104/3/3 103/3/3
f 110/3/3 107/3/3 106/3/3
f 110/4/3 106/4/3 109/4/3
f 110/3/3 108/3/3 107/3/3
f 111/3/3 108/3/3 110/3/3
f 112/3/3 108/3/3 111/3/3
f 113/3/3 110/3/3 109/3/3
f 113/3/3 111/3/3 110/3/3
f 113/4/3 112/4/3 111/4/3
f 114/3/3 108/3/3 112/3/3
f 114/4/3 112/4/3 113/4/3
f 115/3/3 108/3/3 114/3/3
f 117/3/3 115/3/3 114/3/3
f 117/3/3 116/3/3 115/3/3
f 117/3/3 114/3/3 113/3/3
f 118/3/3 116/3/3 117/3/3
f 119/3/3 117/3/3 113/3/3
f 119/4/3 118/4/3 117/4/3
f 120/3/3 116/3/3 118/3/3
f 120/4/3 118/4/3 119/4/3
f 121/3/3 109/3/3 101/3/3
f 121/3/3 113/3/3 109/3/3
f 121/3/3 120/3/3 119/3/3
f 121/3/3 119/3/3 113/3/3
f 121/3/3 101/3/3 92/3/3
f 122/3/3 116/3/3 120/3/3
f 122/3/3 120/3/3 121/3/3
f 125/3/3 124/3/3 123/3/3
f 126/3/3 124/3/3 125/3/3
f 130/2/3 128/2/3 127/2/3
f 132/2/3 130/2/3 129/2/3
f 134/2/3 132/2/3 131/2/3
f 135/2/3 128/2/3 130/2/3
f 135/2/3 130/2/3 132/2/3
f 135/2/3 132/2/3 134/2/3
f 136/2/3 128/2/3 135/2/3
f 137/2/3 134/2/3 133/2/3
f 137/2/3 135/2/3 134/2/3
f 138/2/3 135/2/3 137/2/3
f 139/2/3 135/2/3 138/2/3
f 141/2/3 140/2/3 139/2/3
f 141/2/3 139/2/3 138/2/3
f 142/2/3 140/2/3 141/2/3
f 143/2/3 140/2/3 142/2/3
f 144/2/3 140/2/3 143/2/3
f 145/2/3 140/2/3 144/2/3
f 146/2/3 140/2/3 145/2/3
f 149/3/3 148/3/3 147/3/3
f 150/3/3 148/3/3 149/3/3
f 154/3/3 152/3/3 151/3/3
f 155/4/3 154/4/3 153/4/3
f 156/3/3 152/3/3 154/3/3
f 156/4/3 154/4/3 155/4/3
f 157/3/3 152/3/3 156/3/3
f 158/3/3 152/3/3 157/3/3
f 159/3/4 160/3/4 161/3/4
f 161/3/4 160/3/4 162/3/4
f 159/3/4 161/3/4 163/3/4
f 161/4/4 162/4/4 163/4/4
f 162/3/4 160/3/4 164/3/4
f 163/4/4 162/4/4 164/4/4
f 159/3/4 163/3/4 165/3/4
f 163/3/4 164/3/4 165/3/4
f 164/3/4 160/3/4 166/3/4
f 165/3/4 164/3/4 166/3/4
f 159/3/4 165/3/4 167/3/4
f 165/4/4 166/4/4 167/4/4
f 166/3/4 160/3/4 168/3/4
f 167/4/4 166/4/4 168/4/4
f 159/3/4 167/3/4 169/3/4
f 167/3/4 168/3/4 169/3/4
f 168/3/4 160/3/4 170/3/4
f 169/3/4 168/3/4 170/3/4
f 159/3/4 169/3/4 171/3/4
f 169/4/4 170/4/4 171/4/4
f 170/3/4 160/3/4 172/3/4
f 171/4/4 170/4/4 172/4/4
f 159/3/4 171/3/4 173/3/4
f 171/3/4 172/3/4 173/3/4
f 172/3/4 160/3/4 174/3/4
f 173/3/4 172/3/4 174/3/4
f 159/3/4 173/3/4 175/3/4
f 173/4/4 174/4/4 175/4/4
f 174/3/4 160/3/4 176/3/4
f 175/4/4 174/4/4 176/4/4
f 159/3/4 175/3/4 177/3/4
f 175/3/4 176/3/4 177/3/4
f 176/3/4 160/3/4 178/3/4
f 177/3/4 176/3/4 178/3/4
f 159/3/4 177/3/4 179/3/4
f 177/4/4 178/4/4 179/4/4
f 178/3/4 160/3/4 180/3/4
f 179/4/4 178/4/4 180/4/4
f 159/3/4 179/3/4 181/3/4
f 179/3/4 180/3/4 181/3/4
f 180/3/4 160/3/4 182/3/4
f 181/3/4 180/3/4 182/3/4
f 188/3/5 184/3/5 183/3/5
f 189/3/5 186/3/5 185/3/5
f 191/3/5 188/3/5 187/3/5
f 191/1/5 185/1/5 184/1/5
f 191/3/5 184/3/5 188/3/5
f 192/3/5 190/3/5 189/3/5
f 192/1/5 185/1/5 191/1/5
f 192/3/5 189/3/5 185/3/5
f 193/3/5 191/3/5 187/3/5
f 193/3/5 192/3/5 191/3/5
f 194/3/5 190/3/5 192/3/5
f 194/3/5 192/3/5 193/3/5
f 195/1/6 196/1/6 197/1/6
f 197/1/6 196/1/6 198/1/6
f 199/3/6 200/3/6 203/3/6
f 203/3/6 200/3/6 204/3/6
f 201/3/6 202/3/6 205/3/6
f 205/3/6 202/3/6 206/3/6
f 207/3/6 208/3/6 211/3/6
f 211/3/6 208/3/6 212/3/6
f 209/3/6 210/3/6 213/3/6
f 213/3/6 210/3/6 214/3/6
f 215/3/6 216/3/6 219/3/6
f 219/3/6 216/3/6 220/3/6
f 217/3/6 218/3/6 223/3/6
f 223/3/6 218/3/6 224/3/6
f 221/2/6 222/2/6 225/2/6
f 225/2/6 222/2/6 226/2/6
f 227/2/6 228/2/6 231/2/6
f 231/2/6 228/2/6 232/2/6
f 229/2/6 230/2/6 233/2/6
f 233/2/6 230/2/6 234/2/6
f 235/3/6 236/3/6 240/3/6
f 240/3/6 236/3/6 241/3/6
f 241/3/6 236/3/6 242/3/6
f 237/3/6 238/3/6 243/3/6
f 243/3/6 238/3/6 244/3/6
f 244/3/6 238/3/6 245/3/6
f 239/3/6 240/3/6 247/3/6
f 240/3/6 241/3/6 247/3/6
f 241/4/6 242/4/6 247/4/6
f 242/3/6 236/3/6 248/3/6
f 247/4/6 242/4/6 248/4/6
f 243/4/6 244/4/6 249/4/6
f 237/3/6 243/3/6 249/3/6
f 245/3/6 246/3/6 250/3/6
f 249/4/6 244/4/6 250/4/6
f 244/3/6 245/3/6 250/3/6
f 239/3/6 247/3/6 251/3/6
f 247/3/6 248/3/6 251/3/6
f 248/3/6 236/3/6 252/3/6
f 251/3/6 248/3/6 252/3/6
f 237/3/6 249/3/6 253/3/6
f 249/3/6 250/3/6 253/3/6
f 250/3/6 246/3/6 254/3/6
f 253/3/6 250/3/6 254/3/6
f 251/4/6 252/4/6 255/4/6
f 239/3/6 251/3/6 255/3/6
f 252/3/6 236/3/6 256/3/6
f 255/4/6 252/4/6 256/4/6
f 237/3/6 253/3/6 257/3/6
f 253/4/6 254/4/6 257/4/6
f 254/3/6 246/3/6 258/3/6
f 257/4/6 254/4/6 258/4/6
f 239/3/6 255/3/6 259/3/6
f 255/3/6 256/3/6 259/3/6
f 256/3/6 236/3/6 260/3/6
f 259/3/6 256/3/6 260/3/6
f 237/3/6 257/3/6 261/3/6
f 257/3/6 258/3/6 261/3/6
f 258/3/6 246/3/6 262/3/6
f 261/3/6 258/3/6 262/3/6
f 239/3/6 259/3/6 263/3/6
f 259/4/6 260/4/6 263/4/6
f 260/3/6 236/3/6 264/3/6
f 263/4/6 260/4/6 264/4/6
f 264/3/6 236/3/6 265/3/6
f 237/3/6 261/3/6 266/3/6
f 261/4/6 262/4/6 267/4/6
f 266/3/6 261/3/6 267/3/6
f 262/3/6 246/3/6 268/3/6
f 267/4/6 262/4/6 268/4/6
f 266/3/6 267/3/6 269/3/6
f 264/3/6 265/3/6 269/3/6
f 267/3/6 268/3/6 269/3/6
f 239/3/6 263/3/6 269/3/6
f 263/3/6 264/3/6 269/3/6
f 265/3/6 266/3/6 269/3/6
f 268/3/6 246/3/6 270/3/6
f 269/3/6 268/3/6 270/3/6
