# MagicaVoxel @ Ephtracy

# group
o 

# material
mtllib model.mtl
usemtl palette

# normals
vn -1 0 0
vn 1 0 0
vn 0 0 1
vn 0 0 -1
vn 0 -1 0
vn 0 1 0

# texcoords
vt 0.0292969 0.5
vt 0.306641 0.5
vt 0.513672 0.5
vt 0.517578 0.5
vt 0.521484 0.5

# verts
v 0 0 -0.5
v 0 0 -0.6
v 0 0.2 -0.5
v 0 0.2 -0.6
v 0 0.4 -0.5
v 0 0.4 -0.6
v 0 0.6 -0.5
v 0 0.6 -0.6
v 0 0.8 0.3
v 0 0.8 -0.2
v 0 0.8 -0.5
v 0 0.8 -0.6
v 0 0.9 0.5
v 0 0.9 0.3
v 0 0.9 -0.2
v 0 0.9 -0.4
v 0 1 0.4
v 0 1 0.3
v 0 1 -0.2
v 0 1 -0.3
v 0 1 -0.5
v 0 1 -0.6
v 0 1.1 0.6
v 0 1.1 0.5
v 0 1.1 0.4
v 0 1.1 -0.3
v 0 1.1 -0.4
v 0 1.1 -0.5
v 0 1.2 -0.5
v 0 1.2 -0.6
v 0 1.2 -0.7
v 0 1.3 -0.2
v 0 1.3 -0.3
v 0 1.3 -0.5
v 0 1.3 -0.6
v 0 1.4 -0.5
v 0 1.4 -0.6
v 0 1.5 -0.1
v 0 1.5 -0.2
v 0 1.5 -0.3
v 0 1.5 -0.5
v 0 1.5 -0.7
v 0 1.6 0.6
v 0 1.6 0.5
v 0 1.6 0.4
v 0 1.6 0.2
v 0 1.6 -0.1
v 0 1.6 -0.2
v 0 1.6 -0.3
v 0 1.6 -0.4
v 0 1.6 -0.5
v 0 1.7 0.4
v 0 1.7 0.3
v 0 1.7 0.2
v 0 1.7 -0.1
v 0 1.7 -0.2
v 0 1.7 -0.3
v 0 1.8 0.5
v 0 1.8 0.3
v 0 1.8 -0.2
v 0 1.8 -0.4
v 0 1.9 0.3
v 0 1.9 -0.2
v 0.1 0 -0.5
v 0.1 0 -0.6
v 0.1 0.2 -0.5
v 0.1 0.2 -0.6
v 0.1 0.4 -0.5
v 0.1 0.4 -0.6
v 0.1 0.6 -0.5
v 0.1 0.6 -0.6
v 0.1 0.8 0.3
v 0.1 0.8 -0.2
v 0.1 0.8 -0.5
v 0.1 0.8 -0.6
v 0.1 0.9 0.5
v 0.1 0.9 0.3
v 0.1 0.9 -0.2
v 0.1 0.9 -0.4
v 0.1 1 0.4
v 0.1 1 0.3
v 0.1 1 -0.2
v 0.1 1 -0.3
v 0.1 1 -0.5
v 0.1 1 -0.6
v 0.1 1.1 0.6
v 0.1 1.1 0.5
v 0.1 1.1 0.4
v 0.1 1.1 -0.3
v 0.1 1.1 -0.4
v 0.1 1.1 -0.5
v 0.1 1.2 -0.5
v 0.1 1.2 -0.6
v 0.1 1.2 -0.7
v 0.1 1.3 -0.2
v 0.1 1.3 -0.3
v 0.1 1.3 -0.5
v 0.1 1.3 -0.6
v 0.1 1.4 -0.5
v 0.1 1.4 -0.6
v 0.1 1.5 -0.1
v 0.1 1.5 -0.2
v 0.1 1.5 -0.3
v 0.1 1.5 -0.5
v 0.1 1.5 -0.7
v 0.1 1.6 0.6
v 0.1 1.6 0.5
v 0.1 1.6 0.4
v 0.1 1.6 0.2
v 0.1 1.6 -0.1
v 0.1 1.6 -0.2
v 0.1 1.6 -0.3
v 0.1 1.6 -0.4
v 0.1 1.6 -0.5
v 0.1 1.7 0.4
v 0.1 1.7 0.3
v 0.1 1.7 0.2
v 0.1 1.7 -0.1
v 0.1 1.7 -0.2
v 0.1 1.7 -0.3
v 0.1 1.8 0.5
v 0.1 1.8 0.3
v 0.1 1.8 -0.2
v 0.1 1.8 -0.4
v 0.1 1.9 0.3
v 0.1 1.9 -0.2
v 0 1.1 0.6
v 0 1.6 0.6
v 0.1 1.1 0.6
v 0.1 1.6 0.6
v 0 0.9 0.5
v 0 1.1 0.5
v 0 1.6 0.5
v 0 1.8 0.5
v 0.1 0.9 0.5
v 0.1 1.1 0.5
v 0.1 1.6 0.5
v 0.1 1.8 0.5
v 0 0.8 0.3
v 0 0.9 0.3
v 0 1.8 0.3
v 0 1.9 0.3
v 0.1 0.8 0.3
v 0.1 0.9 0.3
v 0.1 1.8 0.3
v 0.1 1.9 0.3
v 0 0 -0.5
v 0 0.2 -0.5
v 0 0.4 -0.5
v 0 0.6 -0.5
v 0 0.8 -0.5
v 0 1 -0.5
v 0 1.1 -0.5
v 0.1 0 -0.5
v 0.1 0.2 -0.5
v 0.1 0.4 -0.5
v 0.1 0.6 -0.5
v 0.1 0.8 -0.5
v 0.1 1 -0.5
v 0.1 1.1 -0.5
v 0 1.3 -0.6
v 0 1.4 -0.6
v 0.1 1.3 -0.6
v 0.1 1.4 -0.6
v 0 0.8 -0.2
v 0 0.9 -0.2
v 0 1.8 -0.2
v 0 1.9 -0.2
v 0.1 0.8 -0.2
v 0.1 0.9 -0.2
v 0.1 1.8 -0.2
v 0.1 1.9 -0.2
v 0 0.9 -0.4
v 0 1.1 -0.4
v 0 1.6 -0.4
v 0 1.8 -0.4
v 0.1 0.9 -0.4
v 0.1 1.1 -0.4
v 0.1 1.6 -0.4
v 0.1 1.8 -0.4
v 0 1.3 -0.5
v 0 1.4 -0.5
v 0 1.5 -0.5
v 0 1.6 -0.5
v 0.1 1.3 -0.5
v 0.1 1.4 -0.5
v 0.1 1.5 -0.5
v 0.1 1.6 -0.5
v 0 0 -0.6
v 0 0.2 -0.6
v 0 0.4 -0.6
v 0 0.6 -0.6
v 0 0.8 -0.6
v 0 1 -0.6
v 0 1.2 -0.6
v 0.1 0 -0.6
v 0.1 0.2 -0.6
v 0.1 0.4 -0.6
v 0.1 0.6 -0.6
v 0.1 0.8 -0.6
v 0.1 1 -0.6
v 0.1 1.2 -0.6
v 0 1.2 -0.7
v 0 1.5 -0.7
v 0.1 1.2 -0.7
v 0.1 1.5 -0.7
v 0 0 -0.5
v 0.1 0 -0.5
v 0 0 -0.6
v 0.1 0 -0.6
v 0 0.8 0.3
v 0.1 0.8 0.3
v 0 0.8 -0.2
v 0.1 0.8 -0.2
v 0 0.9 0.5
v 0.1 0.9 0.5
v 0 0.9 0.3
v 0.1 0.9 0.3
v 0 0.9 -0.2
v 0.1 0.9 -0.2
v 0 0.9 -0.4
v 0.1 0.9 -0.4
v 0 1.1 0.6
v 0.1 1.1 0.6
v 0 1.1 0.5
v 0.1 1.1 0.5
v 0 1.1 -0.4
v 0.1 1.1 -0.4
v 0 1.1 -0.5
v 0.1 1.1 -0.5
v 0 1.2 -0.6
v 0.1 1.2 -0.6
v 0 1.2 -0.7
v 0.1 1.2 -0.7
v 0 1.4 -0.5
v 0.1 1.4 -0.5
v 0 1.4 -0.6
v 0.1 1.4 -0.6
v 0 1.3 -0.5
v 0.1 1.3 -0.5
v 0 1.3 -0.6
v 0.1 1.3 -0.6
v 0 1.5 -0.5
v 0.1 1.5 -0.5
v 0 1.5 -0.7
v 0.1 1.5 -0.7
v 0 1.6 0.6
v 0.1 1.6 0.6
v 0 1.6 0.5
v 0.1 1.6 0.5
v 0 1.6 -0.4
v 0.1 1.6 -0.4
v 0 1.6 -0.5
v 0.1 1.6 -0.5
v 0 1.8 0.5
v 0.1 1.8 0.5
v 0 1.8 0.3
v 0.1 1.8 0.3
v 0 1.8 -0.2
v 0.1 1.8 -0.2
v 0 1.8 -0.4
v 0.1 1.8 -0.4
v 0 1.9 0.3
v 0.1 1.9 0.3
v 0 1.9 -0.2
v 0.1 1.9 -0.2

# faces
f 3/5/1 2/5/1 1/5/1
f 4/5/1 2/5/1 3/5/1
f 5/3/1 4/3/1 3/3/1
f 6/3/1 4/3/1 5/3/1
f 7/5/1 6/5/1 5/5/1
f 8/5/1 6/5/1 7/5/1
f 11/3/1 8/3/1 7/3/1
f 12/3/1 8/3/1 11/3/1
f 14/4/1 10/4/1 9/4/1
f 15/4/1 10/4/1 14/4/1
f 17/4/1 14/4/1 13/4/1
f 18/2/1 15/2/1 14/2/1
f 18/4/1 14/4/1 17/4/1
f 19/4/1 16/4/1 15/4/1
f 19/2/1 15/2/1 18/2/1
f 20/4/1 16/4/1 19/4/1
f 21/5/1 12/5/1 11/5/1
f 22/5/1 12/5/1 21/5/1
f 24/4/1 17/4/1 13/4/1
f 25/2/1 18/2/1 17/2/1
f 25/2/1 19/2/1 18/2/1
f 25/4/1 17/4/1 24/4/1
f 25/2/1 20/2/1 19/2/1
f 26/4/1 16/4/1 20/4/1
f 26/2/1 20/2/1 25/2/1
f 27/4/1 16/4/1 26/4/1
f 28/3/1 22/3/1 21/3/1
f 29/3/1 22/3/1 28/3/1
f 29/4/1 28/4/1 27/4/1
f 30/3/1 22/3/1 29/3/1
f 32/2/1 26/2/1 25/2/1
f 32/2/1 25/2/1 24/2/1
f 32/2/1 27/2/1 26/2/1
f 33/2/1 27/2/1 32/2/1
f 34/4/1 30/4/1 29/4/1
f 34/4/1 29/4/1 27/4/1
f 34/4/1 31/4/1 30/4/1
f 35/4/1 31/4/1 34/4/1
f 36/4/1 34/4/1 27/4/1
f 37/4/1 31/4/1 35/4/1
f 38/2/1 32/2/1 24/2/1
f 39/1/1 33/1/1 32/1/1
f 39/2/1 32/2/1 38/2/1
f 40/2/1 27/2/1 33/2/1
f 40/1/1 33/1/1 39/1/1
f 41/4/1 37/4/1 36/4/1
f 41/4/1 36/4/1 27/4/1
f 42/4/1 31/4/1 37/4/1
f 42/4/1 37/4/1 41/4/1
f 43/4/1 24/4/1 23/4/1
f 44/2/1 38/2/1 24/2/1
f 44/4/1 24/4/1 43/4/1
f 45/2/1 38/2/1 44/2/1
f 46/2/1 38/2/1 45/2/1
f 47/1/1 39/1/1 38/1/1
f 47/2/1 38/2/1 46/2/1
f 48/2/1 40/2/1 39/2/1
f 48/1/1 39/1/1 47/1/1
f 49/2/1 27/2/1 40/2/1
f 49/2/1 40/2/1 48/2/1
f 50/4/1 41/4/1 27/4/1
f 50/2/1 27/2/1 49/2/1
f 51/4/1 41/4/1 50/4/1
f 52/2/1 46/2/1 45/2/1
f 52/4/1 45/4/1 44/4/1
f 53/2/1 46/2/1 52/2/1
f 54/1/1 47/1/1 46/1/1
f 54/2/1 46/2/1 53/2/1
f 55/2/1 48/2/1 47/2/1
f 55/1/1 47/1/1 54/1/1
f 55/2/1 49/2/1 48/2/1
f 56/2/1 49/2/1 55/2/1
f 57/4/1 50/4/1 49/4/1
f 57/2/1 49/2/1 56/2/1
f 58/4/1 53/4/1 52/4/1
f 58/4/1 52/4/1 44/4/1
f 59/2/1 54/2/1 53/2/1
f 59/4/1 53/4/1 58/4/1
f 59/2/1 56/2/1 55/2/1
f 59/2/1 55/2/1 54/2/1
f 60/4/1 57/4/1 56/4/1
f 60/2/1 56/2/1 59/2/1
f 61/4/1 50/4/1 57/4/1
f 61/4/1 57/4/1 60/4/1
f 62/4/1 60/4/1 59/4/1
f 63/4/1 60/4/1 62/4/1
f 64/5/2 65/5/2 66/5/2
f 66/5/2 65/5/2 67/5/2
f 66/3/2 67/3/2 68/3/2
f 68/3/2 67/3/2 69/3/2
f 68/5/2 69/5/2 70/5/2
f 70/5/2 69/5/2 71/5/2
f 70/3/2 71/3/2 74/3/2
f 74/3/2 71/3/2 75/3/2
f 72/4/2 73/4/2 77/4/2
f 77/4/2 73/4/2 78/4/2
f 76/4/2 77/4/2 80/4/2
f 77/2/2 78/2/2 81/2/2
f 80/4/2 77/4/2 81/4/2
f 78/4/2 79/4/2 82/4/2
f 81/2/2 78/2/2 82/2/2
f 82/4/2 79/4/2 83/4/2
f 74/5/2 75/5/2 84/5/2
f 84/5/2 75/5/2 85/5/2
f 76/4/2 80/4/2 87/4/2
f 80/2/2 81/2/2 88/2/2
f 81/2/2 82/2/2 88/2/2
f 87/4/2 80/4/2 88/4/2
f 82/2/2 83/2/2 88/2/2
f 83/4/2 79/4/2 89/4/2
f 88/2/2 83/2/2 89/2/2
f 89/4/2 79/4/2 90/4/2
f 84/3/2 85/3/2 91/3/2
f 91/3/2 85/3/2 92/3/2
f 90/4/2 91/4/2 92/4/2
f 92/3/2 85/3/2 93/3/2
f 88/2/2 89/2/2 95/2/2
f 87/2/2 88/2/2 95/2/2
f 89/2/2 90/2/2 95/2/2
f 95/2/2 90/2/2 96/2/2
f 92/4/2 93/4/2 97/4/2
f 90/4/2 92/4/2 97/4/2
f 93/4/2 94/4/2 97/4/2
f 97/4/2 94/4/2 98/4/2
f 90/4/2 97/4/2 99/4/2
f 98/4/2 94/4/2 100/4/2
f 87/2/2 95/2/2 101/2/2
f 95/1/2 96/1/2 102/1/2
f 101/2/2 95/2/2 102/2/2
f 96/2/2 90/2/2 103/2/2
f 102/1/2 96/1/2 103/1/2
f 99/4/2 100/4/2 104/4/2
f 90/4/2 99/4/2 104/4/2
f 100/4/2 94/4/2 105/4/2
f 104/4/2 100/4/2 105/4/2
f 86/4/2 87/4/2 106/4/2
f 87/2/2 101/2/2 107/2/2
f 106/4/2 87/4/2 107/4/2
f 107/2/2 101/2/2 108/2/2
f 108/2/2 101/2/2 109/2/2
f 101/1/2 102/1/2 110/1/2
f 109/2/2 101/2/2 110/2/2
f 102/2/2 103/2/2 111/2/2
f 110/1/2 102/1/2 111/1/2
f 103/2/2 90/2/2 112/2/2
f 111/2/2 103/2/2 112/2/2
f 90/4/2 104/4/2 113/4/2
f 112/2/2 90/2/2 113/2/2
f 113/4/2 104/4/2 114/4/2
f 108/2/2 109/2/2 115/2/2
f 107/4/2 108/4/2 115/4/2
f 115/2/2 109/2/2 116/2/2
f 109/1/2 110/1/2 117/1/2
f 116/2/2 109/2/2 117/2/2
f 110/2/2 111/2/2 118/2/2
f 117/1/2 110/1/2 118/1/2
f 111/2/2 112/2/2 118/2/2
f 118/2/2 112/2/2 119/2/2
f 112/4/2 113/4/2 120/4/2
f 119/2/2 112/2/2 120/2/2
f 115/4/2 116/4/2 121/4/2
f 107/4/2 115/4/2 121/4/2
f 116/2/2 117/2/2 122/2/2
f 121/4/2 116/4/2 122/4/2
f 118/2/2 119/2/2 122/2/2
f 117/2/2 118/2/2 122/2/2
f 119/4/2 120/4/2 123/4/2
f 122/2/2 119/2/2 123/2/2
f 120/4/2 113/4/2 124/4/2
f 123/4/2 120/4/2 124/4/2
f 122/4/2 123/4/2 125/4/2
f 125/4/2 123/4/2 126/4/2
f 129/4/3 128/4/3 127/4/3
f 130/4/3 128/4/3 129/4/3
f 135/4/3 132/4/3 131/4/3
f 136/4/3 132/4/3 135/4/3
f 137/4/3 134/4/3 133/4/3
f 138/4/3 134/4/3 137/4/3
f 143/4/3 140/4/3 139/4/3
f 144/4/3 140/4/3 143/4/3
f 145/4/3 142/4/3 141/4/3
f 146/4/3 142/4/3 145/4/3
f 154/5/3 148/5/3 147/5/3
f 155/3/3 149/3/3 148/3/3
f 155/5/3 148/5/3 154/5/3
f 156/5/3 150/5/3 149/5/3
f 156/3/3 149/3/3 155/3/3
f 157/3/3 151/3/3 150/3/3
f 157/5/3 150/5/3 156/5/3
f 158/5/3 152/5/3 151/5/3
f 158/3/3 151/3/3 157/3/3
f 159/3/3 153/3/3 152/3/3
f 159/5/3 152/5/3 158/5/3
f 160/3/3 153/3/3 159/3/3
f 163/4/3 162/4/3 161/4/3
f 164/4/3 162/4/3 163/4/3
f 165/4/4 166/4/4 169/4/4
f 169/4/4 166/4/4 170/4/4
f 167/4/4 168/4/4 171/4/4
f 171/4/4 168/4/4 172/4/4
f 173/4/4 174/4/4 177/4/4
f 177/4/4 174/4/4 178/4/4
f 175/4/4 176/4/4 179/4/4
f 179/4/4 176/4/4 180/4/4
f 181/4/4 182/4/4 185/4/4
f 185/4/4 182/4/4 186/4/4
f 183/4/4 184/4/4 187/4/4
f 187/4/4 184/4/4 188/4/4
f 189/5/4 190/5/4 196/5/4
f 190/3/4 191/3/4 197/3/4
f 196/5/4 190/5/4 197/5/4
f 191/5/4 192/5/4 198/5/4
f 197/3/4 191/3/4 198/3/4
f 192/3/4 193/3/4 199/3/4
f 198/5/4 192/5/4 199/5/4
f 193/5/4 194/5/4 200/5/4
f 199/3/4 193/3/4 200/3/4
f 194/3/4 195/3/4 201/3/4
f 200/5/4 194/5/4 201/5/4
f 201/3/4 195/3/4 202/3/4
f 203/4/4 204/4/4 205/4/4
f 205/4/4 204/4/4 206/4/4
f 209/5/5 208/5/5 207/5/5
f 210/5/5 208/5/5 209/5/5
f 213/4/5 212/4/5 211/4/5
f 214/4/5 212/4/5 213/4/5
f 217/4/5 216/4/5 215/4/5
f 218/4/5 216/4/5 217/4/5
f 221/4/5 220/4/5 219/4/5
f 222/4/5 220/4/5 221/4/5
f 225/4/5 224/4/5 223/4/5
f 226/4/5 224/4/5 225/4/5
f 229/4/5 228/4/5 227/4/5
f 230/4/5 228/4/5 229/4/5
f 233/4/5 232/4/5 231/4/5
f 234/4/5 232/4/5 233/4/5
f 237/4/5 236/4/5 235/4/5
f 238/4/5 236/4/5 237/4/5
f 239/4/6 240/4/6 241/4/6
f 241/4/6 240/4/6 242/4/6
f 243/4/6 244/4/6 245/4/6
f 245/4/6 244/4/6 246/4/6
f 247/4/6 248/4/6 249/4/6
f 249/4/6 248/4/6 250/4/6
f 251/4/6 252/4/6 253/4/6
f 253/4/6 252/4/6 254/4/6
f 255/4/6 256/4/6 257/4/6
f 257/4/6 256/4/6 258/4/6
f 259/4/6 260/4/6 261/4/6
f 261/4/6 260/4/6 262/4/6
f 263/4/6 264/4/6 265/4/6
f 265/4/6 264/4/6 266/4/6
