# MagicaVoxel @ Ephtracy

# group
o 

# material
mtllib model.mtl
usemtl palette

# normals
vn -1 0 0
vn 1 0 0
vn 0 0 1
vn 0 0 -1
vn 0 -1 0
vn 0 1 0

# texcoords
vt 0.0292969 0.5
vt 0.533203 0.5
vt 0.537109 0.5
vt 0.814453 0.5
vt 0.822266 0.5

# verts
v -0.1 0 0.4
v -0.1 0 0.2
v -0.1 0 -0.2
v -0.1 0 -0.4
v -0.1 0.1 0.5
v -0.1 0.1 0.4
v -0.1 0.1 0.2
v -0.1 0.1 -0.2
v -0.1 0.1 -0.4
v -0.1 0.1 -0.5
v -0.1 0.2 0.4
v -0.1 0.2 -0.4
v -0.1 0.3 0.5
v -0.1 0.3 0.4
v -0.1 0.3 -0.4
v -0.1 0.3 -0.5
v -0.1 0.6 0.7
v -0.1 0.6 0.4
v -0.1 0.6 -0.4
v -0.1 0.6 -0.7
v -0.1 0.9 0.8
v -0.1 0.9 0.7
v -0.1 0.9 -0.7
v -0.1 0.9 -0.8
v -0.1 1 0.8
v -0.1 1 0.7
v -0.1 1 0.6
v -0.1 1 0.5
v -0.1 1 -0.5
v -0.1 1 -0.6
v -0.1 1 -0.7
v -0.1 1 -0.8
v -0.1 1.1 0.9
v -0.1 1.1 0.7
v -0.1 1.1 0.6
v -0.1 1.1 0.5
v -0.1 1.1 -0.5
v -0.1 1.1 -0.6
v -0.1 1.1 -0.7
v -0.1 1.1 -0.9
v -0.1 1.2 0.9
v -0.1 1.2 0.4
v -0.1 1.2 -0.4
v -0.1 1.2 -0.9
v -0.1 1.3 1
v -0.1 1.3 0.9
v -0.1 1.3 0.4
v -0.1 1.3 0.3
v -0.1 1.4 1
v -0.1 1.4 0.9
v -0.1 1.4 0.4
v -0.1 1.4 0.3
v -0.1 1.5 0.9
v -0.1 1.5 0.4
v -0.1 1.5 -0.3
v -0.1 1.5 -0.4
v -0.1 1.5 -0.9
v -0.1 1.5 -1
v -0.1 1.6 -0.3
v -0.1 1.6 -0.4
v -0.1 1.6 -0.9
v -0.1 1.6 -1
v -0.1 1.7 -0.4
v -0.1 1.7 -0.9
v 0 0 0.4
v 0 0 0.2
v 0 0 -0.2
v 0 0 -0.4
v 0 0.1 0.5
v 0 0.1 0.4
v 0 0.1 0.2
v 0 0.1 -0.2
v 0 0.1 -0.4
v 0 0.1 -0.5
v 0 0.2 0.4
v 0 0.2 -0.4
v 0 0.3 0.5
v 0 0.3 0.4
v 0 0.3 -0.4
v 0 0.3 -0.5
v 0 0.6 0.7
v 0 0.6 0.4
v 0 0.6 -0.4
v 0 0.6 -0.7
v 0 0.9 0.8
v 0 0.9 0.7
v 0 0.9 -0.7
v 0 0.9 -0.8
v 0 1 0.8
v 0 1 0.7
v 0 1 0.6
v 0 1 0.5
v 0 1 -0.5
v 0 1 -0.6
v 0 1 -0.7
v 0 1 -0.8
v 0 1.1 0.9
v 0 1.1 0.7
v 0 1.1 0.6
v 0 1.1 0.5
v 0 1.1 -0.5
v 0 1.1 -0.6
v 0 1.1 -0.7
v 0 1.1 -0.9
v 0 1.2 0.9
v 0 1.2 0.4
v 0 1.2 -0.4
v 0 1.2 -0.9
v 0.1 1.3 1
v 0.1 1.3 0.9
v 0.1 1.3 0.4
v 0.1 1.3 0.3
v 0.1 1.4 1
v 0.1 1.4 0.9
v 0.1 1.4 0.4
v 0.1 1.4 0.3
v 0.1 1.5 0.9
v 0.1 1.5 0.4
v 0.1 1.5 -0.3
v 0.1 1.5 -0.4
v 0.1 1.5 -0.9
v 0.1 1.5 -1
v 0.1 1.6 -0.3
v 0.1 1.6 -0.4
v 0.1 1.6 -0.9
v 0.1 1.6 -1
v 0.1 1.7 -0.4
v 0.1 1.7 -0.9
v -0.1 1.3 1
v -0.1 1.4 1
v 0.1 1.3 1
v 0.1 1.4 1
v -0.1 1.1 0.9
v -0.1 1.2 0.9
v -0.1 1.4 0.9
v -0.1 1.5 0.9
v 0 1.1 0.9
v 0 1.2 0.9
v 0.1 1.4 0.9
v 0.1 1.5 0.9
v -0.1 0.9 0.8
v -0.1 1 0.8
v 0 0.9 0.8
v 0 1 0.8
v -0.1 0.6 0.7
v -0.1 0.9 0.7
v -0.1 1 0.7
v -0.1 1.1 0.7
v 0 0.6 0.7
v 0 0.9 0.7
v 0 1 0.7
v 0 1.1 0.7
v -0.1 0.1 0.5
v -0.1 0.3 0.5
v 0 0.1 0.5
v 0 0.3 0.5
v -0.1 0 0.4
v -0.1 0.1 0.4
v -0.1 1.3 0.4
v -0.1 1.4 0.4
v 0 0 0.4
v 0 0.1 0.4
v 0.1 1.3 0.4
v 0.1 1.4 0.4
v -0.1 1.5 -0.3
v -0.1 1.6 -0.3
v 0.1 1.5 -0.3
v 0.1 1.6 -0.3
v -0.1 0.6 -0.4
v -0.1 1.2 -0.4
v -0.1 1.6 -0.4
v -0.1 1.7 -0.4
v 0 0.6 -0.4
v 0 1.2 -0.4
v 0.1 1.6 -0.4
v 0.1 1.7 -0.4
v -0.1 1.5 -0.9
v -0.1 1.6 -0.9
v 0.1 1.5 -0.9
v 0.1 1.6 -0.9
v -0.1 1.3 0.9
v -0.1 1.4 0.9
v 0.1 1.3 0.9
v 0.1 1.4 0.9
v -0.1 0.6 0.4
v -0.1 1.2 0.4
v -0.1 1.4 0.4
v -0.1 1.5 0.4
v 0 0.6 0.4
v 0 1.2 0.4
v 0.1 1.4 0.4
v 0.1 1.5 0.4
v -0.1 1.3 0.3
v -0.1 1.4 0.3
v 0.1 1.3 0.3
v 0.1 1.4 0.3
v -0.1 0 -0.4
v -0.1 0.1 -0.4
v -0.1 1.5 -0.4
v -0.1 1.6 -0.4
v 0 0 -0.4
v 0 0.1 -0.4
v 0.1 1.5 -0.4
v 0.1 1.6 -0.4
v -0.1 0.1 -0.5
v -0.1 0.3 -0.5
v 0 0.1 -0.5
v 0 0.3 -0.5
v -0.1 0.6 -0.7
v -0.1 0.9 -0.7
v -0.1 1 -0.7
v -0.1 1.1 -0.7
v 0 0.6 -0.7
v 0 0.9 -0.7
v 0 1 -0.7
v 0 1.1 -0.7
v -0.1 0.9 -0.8
v -0.1 1 -0.8
v 0 0.9 -0.8
v 0 1 -0.8
v -0.1 1.1 -0.9
v -0.1 1.2 -0.9
v -0.1 1.6 -0.9
v -0.1 1.7 -0.9
v 0 1.1 -0.9
v 0 1.2 -0.9
v 0.1 1.6 -0.9
v 0.1 1.7 -0.9
v -0.1 1.5 -1
v -0.1 1.6 -1
v 0.1 1.5 -1
v 0.1 1.6 -1
v -0.1 0 0.4
v 0 0 0.4
v -0.1 0 0.2
v 0 0 0.2
v -0.1 0 -0.2
v 0 0 -0.2
v -0.1 0 -0.4
v 0 0 -0.4
v -0.1 0.1 0.5
v 0 0.1 0.5
v -0.1 0.1 0.4
v 0 0.1 0.4
v -0.1 0.1 -0.4
v 0 0.1 -0.4
v -0.1 0.1 -0.5
v 0 0.1 -0.5
v -0.1 0.6 0.7
v 0 0.6 0.7
v -0.1 0.6 0.4
v 0 0.6 0.4
v -0.1 0.6 -0.4
v 0 0.6 -0.4
v -0.1 0.6 -0.7
v 0 0.6 -0.7
v -0.1 0.9 0.8
v 0 0.9 0.8
v -0.1 0.9 0.7
v 0 0.9 0.7
v -0.1 0.9 -0.7
v 0 0.9 -0.7
v -0.1 0.9 -0.8
v 0 0.9 -0.8
v -0.1 1.1 0.9
v 0 1.1 0.9
v -0.1 1.1 0.7
v 0 1.1 0.7
v -0.1 1.1 -0.7
v 0 1.1 -0.7
v -0.1 1.1 -0.9
v 0 1.1 -0.9
v -0.1 1.3 1
v 0.1 1.3 1
v -0.1 1.3 0.9
v 0.1 1.3 0.9
v -0.1 1.3 0.4
v 0.1 1.3 0.4
v -0.1 1.3 0.3
v 0.1 1.3 0.3
v -0.1 1.4 0.9
v 0.1 1.4 0.9
v -0.1 1.4 0.4
v 0.1 1.4 0.4
v -0.1 1.5 -0.3
v 0.1 1.5 -0.3
v -0.1 1.5 -0.4
v 0.1 1.5 -0.4
v -0.1 1.5 -0.9
v 0.1 1.5 -0.9
v -0.1 1.5 -1
v 0.1 1.5 -1
v -0.1 1.6 -0.4
v 0.1 1.6 -0.4
v -0.1 1.6 -0.9
v 0.1 1.6 -0.9
v -0.1 0.3 0.5
v 0 0.3 0.5
v -0.1 0.3 0.4
v 0 0.3 0.4
v -0.1 0.3 -0.4
v 0 0.3 -0.4
v -0.1 0.3 -0.5
v 0 0.3 -0.5
v -0.1 1 0.8
v 0 1 0.8
v -0.1 1 0.7
v 0 1 0.7
v -0.1 1 -0.7
v 0 1 -0.7
v -0.1 1 -0.8
v 0 1 -0.8
v -0.1 1.2 0.9
v 0 1.2 0.9
v -0.1 1.2 0.4
v 0 1.2 0.4
v -0.1 1.2 -0.4
v 0 1.2 -0.4
v -0.1 1.2 -0.9
v 0 1.2 -0.9
v -0.1 1.4 1
v 0.1 1.4 1
v -0.1 1.4 0.9
v 0.1 1.4 0.9
v -0.1 1.4 0.4
v 0.1 1.4 0.4
v -0.1 1.4 0.3
v 0.1 1.4 0.3
v -0.1 1.5 0.9
v 0.1 1.5 0.9
v -0.1 1.5 0.4
v 0.1 1.5 0.4
v -0.1 1.6 -0.3
v 0.1 1.6 -0.3
v -0.1 1.6 -0.4
v 0.1 1.6 -0.4
v -0.1 1.6 -0.9
v 0.1 1.6 -0.9
v -0.1 1.6 -1
v 0.1 1.6 -1
v -0.1 1.7 -0.4
v 0.1 1.7 -0.4
v -0.1 1.7 -0.9
v 0.1 1.7 -0.9

# faces
f 6/2/1 2/2/1 1/2/1
f 7/3/1 3/3/1 2/3/1
f 7/2/1 2/2/1 6/2/1
f 8/2/1 4/2/1 3/2/1
f 8/3/1 3/3/1 7/3/1
f 9/2/1 4/2/1 8/2/1
f 11/2/1 7/2/1 6/2/1
f 11/2/1 10/2/1 9/2/1
f 11/2/1 9/2/1 8/2/1
f 11/2/1 8/2/1 7/2/1
f 11/2/1 6/2/1 5/2/1
f 12/2/1 10/2/1 11/2/1
f 13/2/1 11/2/1 5/2/1
f 14/1/1 12/1/1 11/1/1
f 14/2/1 11/2/1 13/2/1
f 15/2/1 10/2/1 12/2/1
f 15/1/1 12/1/1 14/1/1
f 16/2/1 10/2/1 15/2/1
f 22/4/1 18/4/1 17/4/1
f 23/4/1 20/4/1 19/4/1
f 25/4/1 22/4/1 21/4/1
f 26/4/1 18/4/1 22/4/1
f 26/4/1 22/4/1 25/4/1
f 27/4/1 18/4/1 26/4/1
f 28/4/1 18/4/1 27/4/1
f 29/4/1 24/4/1 23/4/1
f 29/4/1 23/4/1 19/4/1
f 30/4/1 24/4/1 29/4/1
f 31/4/1 24/4/1 30/4/1
f 32/4/1 24/4/1 31/4/1
f 34/4/1 27/4/1 26/4/1
f 35/1/1 28/1/1 27/1/1
f 35/4/1 27/4/1 34/4/1
f 36/4/1 18/4/1 28/4/1
f 36/1/1 28/1/1 35/1/1
f 37/4/1 29/4/1 19/4/1
f 37/1/1 30/1/1 29/1/1
f 38/4/1 31/4/1 30/4/1
f 38/1/1 30/1/1 37/1/1
f 39/4/1 31/4/1 38/4/1
f 41/4/1 35/4/1 34/4/1
f 41/4/1 34/4/1 33/4/1
f 41/4/1 36/4/1 35/4/1
f 42/4/1 18/4/1 36/4/1
f 42/4/1 36/4/1 41/4/1
f 43/4/1 40/4/1 39/4/1
f 43/4/1 38/4/1 37/4/1
f 43/4/1 39/4/1 38/4/1
f 43/4/1 37/4/1 19/4/1
f 44/4/1 40/4/1 43/4/1
f 49/5/1 46/5/1 45/5/1
f 50/5/1 46/5/1 49/5/1
f 51/5/1 48/5/1 47/5/1
f 52/5/1 48/5/1 51/5/1
f 53/5/1 51/5/1 50/5/1
f 54/5/1 51/5/1 53/5/1
f 59/5/1 56/5/1 55/5/1
f 60/5/1 56/5/1 59/5/1
f 61/5/1 58/5/1 57/5/1
f 62/5/1 58/5/1 61/5/1
f 63/5/1 61/5/1 60/5/1
f 64/5/1 61/5/1 63/5/1
f 65/2/2 66/2/2 70/2/2
f 66/3/2 67/3/2 71/3/2
f 70/2/2 66/2/2 71/2/2
f 67/2/2 68/2/2 72/2/2
f 71/3/2 67/3/2 72/3/2
f 72/2/2 68/2/2 73/2/2
f 70/2/2 71/2/2 75/2/2
f 73/2/2 74/2/2 75/2/2
f 72/2/2 73/2/2 75/2/2
f 71/2/2 72/2/2 75/2/2
f 69/2/2 70/2/2 75/2/2
f 75/2/2 74/2/2 76/2/2
f 69/2/2 75/2/2 77/2/2
f 75/1/2 76/1/2 78/1/2
f 77/2/2 75/2/2 78/2/2
f 76/2/2 74/2/2 79/2/2
f 78/1/2 76/1/2 79/1/2
f 79/2/2 74/2/2 80/2/2
f 81/4/2 82/4/2 86/4/2
f 83/4/2 84/4/2 87/4/2
f 85/4/2 86/4/2 89/4/2
f 86/4/2 82/4/2 90/4/2
f 89/4/2 86/4/2 90/4/2
f 90/4/2 82/4/2 91/4/2
f 91/4/2 82/4/2 92/4/2
f 87/4/2 88/4/2 93/4/2
f 83/4/2 87/4/2 93/4/2
f 93/4/2 88/4/2 94/4/2
f 94/4/2 88/4/2 95/4/2
f 95/4/2 88/4/2 96/4/2
f 90/4/2 91/4/2 98/4/2
f 91/1/2 92/1/2 99/1/2
f 98/4/2 91/4/2 99/4/2
f 92/4/2 82/4/2 100/4/2
f 99/1/2 92/1/2 100/1/2
f 83/4/2 93/4/2 101/4/2
f 93/1/2 94/1/2 101/1/2
f 94/4/2 95/4/2 102/4/2
f 101/1/2 94/1/2 102/1/2
f 102/4/2 95/4/2 103/4/2
f 98/4/2 99/4/2 105/4/2
f 97/4/2 98/4/2 105/4/2
f 99/4/2 100/4/2 105/4/2
f 100/4/2 82/4/2 106/4/2
f 105/4/2 100/4/2 106/4/2
f 103/4/2 104/4/2 107/4/2
f 101/4/2 102/4/2 107/4/2
f 102/4/2 103/4/2 107/4/2
f 83/4/2 101/4/2 107/4/2
f 107/4/2 104/4/2 108/4/2
f 109/5/2 110/5/2 113/5/2
f 113/5/2 110/5/2 114/5/2
f 111/5/2 112/5/2 115/5/2
f 115/5/2 112/5/2 116/5/2
f 114/5/2 115/5/2 117/5/2
f 117/5/2 115/5/2 118/5/2
f 119/5/2 120/5/2 123/5/2
f 123/5/2 120/5/2 124/5/2
f 121/5/2 122/5/2 125/5/2
f 125/5/2 122/5/2 126/5/2
f 124/5/2 125/5/2 127/5/2
f 127/5/2 125/5/2 128/5/2
f 131/5/3 130/5/3 129/5/3
f 132/5/3 130/5/3 131/5/3
f 137/4/3 134/4/3 133/4/3
f 138/4/3 134/4/3 137/4/3
f 139/5/3 136/5/3 135/5/3
f 140/5/3 136/5/3 139/5/3
f 143/4/3 142/4/3 141/4/3
f 144/4/3 142/4/3 143/4/3
f 149/4/3 146/4/3 145/4/3
f 150/4/3 146/4/3 149/4/3
f 151/4/3 148/4/3 147/4/3
f 152/4/3 148/4/3 151/4/3
f 155/2/3 154/2/3 153/2/3
f 156/2/3 154/2/3 155/2/3
f 161/2/3 158/2/3 157/2/3
f 162/2/3 158/2/3 161/2/3
f 163/5/3 160/5/3 159/5/3
f 164/5/3 160/5/3 163/5/3
f 167/5/3 166/5/3 165/5/3
f 168/5/3 166/5/3 167/5/3
f 173/4/3 170/4/3 169/4/3
f 174/4/3 170/4/3 173/4/3
f 175/5/3 172/5/3 171/5/3
f 176/5/3 172/5/3 175/5/3
f 179/5/3 178/5/3 177/5/3
f 180/5/3 178/5/3 179/5/3
f 181/5/4 182/5/4 183/5/4
f 183/5/4 182/5/4 184/5/4
f 185/4/4 186/4/4 189/4/4
f 189/4/4 186/4/4 190/4/4
f 187/5/4 188/5/4 191/5/4
f 191/5/4 188/5/4 192/5/4
f 193/5/4 194/5/4 195/5/4
f 195/5/4 194/5/4 196/5/4
f 197/2/4 198/2/4 201/2/4
f 201/2/4 198/2/4 202/2/4
f 199/5/4 200/5/4 203/5/4
f 203/5/4 200/5/4 204/5/4
f 205/2/4 206/2/4 207/2/4
f 207/2/4 206/2/4 208/2/4
f 209/4/4 210/4/4 213/4/4
f 213/4/4 210/4/4 214/4/4
f 211/4/4 212/4/4 215/4/4
f 215/4/4 212/4/4 216/4/4
f 217/4/4 218/4/4 219/4/4
f 219/4/4 218/4/4 220/4/4
f 221/4/4 222/4/4 225/4/4
f 225/4/4 222/4/4 226/4/4
f 223/5/4 224/5/4 227/5/4
f 227/5/4 224/5/4 228/5/4
f 229/5/4 230/5/4 231/5/4
f 231/5/4 230/5/4 232/5/4
f 235/2/5 234/2/5 233/2/5
f 236/2/5 234/2/5 235/2/5
f 237/3/5 236/3/5 235/3/5
f 238/3/5 236/3/5 237/3/5
f 239/2/5 238/2/5 237/2/5
f 240/2/5 238/2/5 239/2/5
f 243/2/5 242/2/5 241/2/5
f 244/2/5 242/2/5 243/2/5
f 247/2/5 246/2/5 245/2/5
f 248/2/5 246/2/5 247/2/5
f 251/4/5 250/4/5 249/4/5
f 252/4/5 250/4/5 251/4/5
f 255/4/5 254/4/5 253/4/5
f 256/4/5 254/4/5 255/4/5
f 259/4/5 258/4/5 257/4/5
f 260/4/5 258/4/5 259/4/5
f 263/4/5 262/4/5 261/4/5
f 264/4/5 262/4/5 263/4/5
f 267/4/5 266/4/5 265/4/5
f 268/4/5 266/4/5 267/4/5
f 271/4/5 270/4/5 269/4/5
f 272/4/5 270/4/5 271/4/5
f 275/5/5 274/5/5 273/5/5
f 276/5/5 274/5/5 275/5/5
f 279/5/5 278/5/5 277/5/5
f 280/5/5 278/5/5 279/5/5
f 283/5/5 282/5/5 281/5/5
f 284/5/5 282/5/5 283/5/5
f 287/5/5 286/5/5 285/5/5
f 288/5/5 286/5/5 287/5/5
f 291/5/5 290/5/5 289/5/5
f 292/5/5 290/5/5 291/5/5
f 295/5/5 294/5/5 293/5/5
f 296/5/5 294/5/5 295/5/5
f 297/2/6 298/2/6 299/2/6
f 299/2/6 298/2/6 300/2/6
f 299/1/6 300/1/6 301/1/6
f 301/1/6 300/1/6 302/1/6
f 301/2/6 302/2/6 303/2/6
f 303/2/6 302/2/6 304/2/6
f 305/4/6 306/4/6 307/4/6
f 307/4/6 306/4/6 308/4/6
f 309/4/6 310/4/6 311/4/6
f 311/4/6 310/4/6 312/4/6
f 313/4/6 314/4/6 315/4/6
f 315/4/6 314/4/6 316/4/6
f 317/4/6 318/4/6 319/4/6
f 319/4/6 318/4/6 320/4/6
f 321/5/6 322/5/6 323/5/6
f 323/5/6 322/5/6 324/5/6
f 325/5/6 326/5/6 327/5/6
f 327/5/6 326/5/6 328/5/6
f 329/5/6 330/5/6 331/5/6
f 331/5/6 330/5/6 332/5/6
f 333/5/6 334/5/6 335/5/6
f 335/5/6 334/5/6 336/5/6
f 337/5/6 338/5/6 339/5/6
f 339/5/6 338/5/6 340/5/6
f 341/5/6 342/5/6 343/5/6
f 343/5/6 342/5/6 344/5/6
