# MagicaVoxel @ Ephtracy

# group
o 

# material
mtllib model-0.mtl
usemtl palette

# normals
vn 0 0 1
vn 0 0 -1
vn 1 0 0
vn -1 0 0
vn 0 -1 0
vn 0 1 0

# texcoords
vt 0.0214844 0.5
vt 0.0253906 0.5
vt 0.0566406 0.5
vt 0.251953 0.5
vt 0.255859 0.5
vt 0.267578 0.5
vt 0.572266 0.5

# verts
v 0.6 1.8 1.2
v 0.5 1.8 1.2
v -0.5 1.9 1.2
v -0.6 1.9 1.2
v 0.5 2.1 1.2
v -0.5 2.1 1.2
v 0.6 2.2 1.2
v -0.6 2.2 1.2
v 0.5 0.6 1
v -0.5 0.6 1
v 0.5 1.8 1
v 0.5 1.9 1
v -0.5 1.9 1
v -0.5 2 1
v 0.5 2.1 1
v -0.5 2.1 1
v 0.7 0.6 0.8
v 0.6 0.6 0.8
v 0.7 1 0.8
v 0.6 1 0.8
v 0.7 1.5 0.8
v 0.6 1.5 0.8
v 0.6 1.8 0.8
v 0.6 1.9 0.8
v 0.7 2.2 0.8
v 0.6 2.2 0.8
v 0.6 0.7 0.7
v 0.5 0.7 0.7
v -0.5 0.7 0.7
v -0.6 0.7 0.7
v 0.6 1 0.7
v 0.6 1.5 0.7
v 0.6 1.8 0.7
v 0.5 1.8 0.7
v -0.5 1.9 0.7
v -0.6 1.9 0.7
v 0.6 0.6 0.5
v 0.5 0.6 0.5
v 0.7 0.7 0.5
v 0.6 0.7 0.5
v 0.5 0.7 0.5
v 0.7 0.9 0.5
v 0.6 0.9 0.5
v 0.7 1.4 0.3
v 0.6 1.4 0.3
v 0.7 1.5 0.3
v 0.6 1.5 0.3
v 0.6 0.6 0.2
v 0.4 0.6 0.2
v 0.6 0.7 0.2
v 0.6 0.8 0.2
v 0.4 0.8 0.2
v 0.7 1 0.2
v 0.6 1 0.2
v 0.8 1.2 0.2
v 0.7 1.2 0.2
v 0.7 1.4 0.2
v 0.6 1.4 0.2
v 0.8 1.5 0.2
v 0.7 1.5 0.2
v 0.8 1.8 0.2
v 0.7 1.8 0.2
v 0.8 2 0.2
v 0.7 2 0.2
v 0.5 2 0.2
v 0.7 2.2 0.2
v 0.5 2.2 0.2
v 0.6 0.6 -0.3
v 0.4 0.6 -0.3
v 0.6 0.7 -0.3
v 0.6 0.8 -0.3
v 0.4 0.8 -0.3
v 0.7 2 -0.3
v 0.5 2 -0.3
v 0.7 2.1 -0.3
v 0.5 2.1 -0.3
v 0.7 2.1 -0.5
v 0.5 2.1 -0.5
v 0.7 2.2 -0.5
v 0.5 2.2 -0.5
v 0.7 0.7 0.7
v 0.6 0.7 0.7
v 0.7 0.9 0.7
v 0.6 0.9 0.7
v -0.5 0.9 0.5
v -0.6 0.9 0.5
v -0.5 1.9 0.5
v -0.6 1.9 0.5
v 0.7 2.1 0.5
v 0.5 2.1 0.5
v 0.7 2.2 0.5
v 0.5 2.2 0.5
v 0.7 0.6 0.4
v 0.6 0.6 0.4
v 0.7 0.7 0.4
v 0.6 0.7 0.4
v 0.7 0.9 0.4
v 0.6 0.9 0.4
v 0.7 1 0.4
v 0.6 1 0.4
v 0.6 0.6 0.3
v 0.4 0.6 0.3
v 0.6 0.7 0.3
v 0.6 0.8 0.3
v 0.4 0.8 0.3
v 0.7 2 0.3
v 0.5 2 0.3
v 0.7 2.1 0.3
v 0.5 2.1 0.3
v 0.6 0.6 -0.2
v 0.4 0.6 -0.2
v 0.6 0.7 -0.2
v 0.6 0.8 -0.2
v 0.4 0.8 -0.2
v 0.7 1 -0.2
v 0.6 1 -0.2
v 0.8 1.2 -0.2
v 0.7 1.2 -0.2
v 0.6 1.2 -0.2
v 0.7 1.4 -0.2
v 0.6 1.4 -0.2
v 0.8 2 -0.2
v 0.7 2 -0.2
v 0.5 2 -0.2
v 0.7 2.2 -0.2
v 0.5 2.2 -0.2
v 0.7 1.4 -0.3
v 0.6 1.4 -0.3
v 0.7 1.5 -0.3
v 0.6 1.5 -0.3
v 0.6 0.6 -0.5
v 0.5 0.6 -0.5
v 0.6 0.7 -0.5
v 0.5 0.7 -0.5
v 0.6 0.9 -0.5
v 0.5 0.9 -0.5
v 0.6 1.5 -0.5
v 0.6 1.6 -0.5
v 0.6 1.7 -0.5
v 0.6 1.8 -0.5
v 0.5 1.8 -0.5
v 0.7 0.7 -0.6
v 0.6 0.7 -0.6
v 0.7 0.9 -0.6
v 0.6 0.9 -0.6
v 0.7 1.5 -0.8
v 0.6 1.5 -0.8
v 0.6 1.8 -0.8
v 0.6 1.9 -0.8
v 0.7 2.2 -0.8
v 0.6 2.2 -0.8
v 0.5 0.6 -1
v -0.5 0.6 -1
v 0.5 0.7 -1
v -0.5 0.7 -1
v 0.5 0.9 -1
v -0.5 0.9 -1
v 0.5 1.8 -1
v 0.5 1.9 -1
v -0.5 1.9 -1
v -0.5 2 -1
v 0.5 2.1 -1
v -0.5 2.1 -1
v 0.6 0.7 -1.1
v -0.6 0.7 -1.1
v 0.6 0.9 -1.1
v -0.6 0.9 -1.1
v 0.6 1.8 -1.2
v 0.5 1.8 -1.2
v -0.5 1.9 -1.2
v -0.6 1.9 -1.2
v 0.5 2.1 -1.2
v -0.5 2.1 -1.2
v 0.6 2.2 -1.2
v -0.6 2.2 -1.2
v 0.8 1.2 0.2
v 0.8 1.5 0.2
v 0.8 1.8 0.2
v 0.8 2 0.2
v 0.8 1.5 0.1
v 0.8 1.8 0.1
v 0.8 1.3 0
v 0.8 1.8 0
v 0.8 1.3 -0.0999999
v 0.8 1.8 -0.0999999
v 0.8 1.2 -0.2
v 0.8 2 -0.2
v 0.7 0.6 0.8
v 0.7 1 0.8
v 0.7 1.5 0.8
v 0.7 2.2 0.8
v 0.7 0.7 0.7
v 0.7 0.9 0.7
v 0.7 1.6 0.7
v 0.7 2.2 0.7
v 0.7 1.7 0.6
v 0.7 1.8 0.6
v 0.7 0.7 0.5
v 0.7 0.9 0.5
v 0.7 1.7 0.5
v 0.7 1.8 0.5
v 0.7 2.1 0.5
v 0.7 2.2 0.5
v 0.7 0.6 0.4
v 0.7 0.7 0.4
v 0.7 0.9 0.4
v 0.7 1 0.4
v 0.7 1.4 0.3
v 0.7 1.5 0.3
v 0.7 1.6 0.3
v 0.7 2 0.3
v 0.7 2.1 0.3
v 0.7 1 0.2
v 0.7 1.2 0.2
v 0.7 1.4 0.2
v 0.7 1.5 0.2
v 0.7 1.8 0.2
v 0.7 2 0.2
v 0.7 2.2 0.2
v 0.7 1 0.1
v 0.7 1.2 0.1
v 0.7 1 0
v 0.7 1.2 0
v 0.7 1 -0.0999999
v 0.7 1.2 -0.0999999
v 0.7 1 -0.2
v 0.7 1.2 -0.2
v 0.7 1.4 -0.2
v 0.7 2 -0.2
v 0.7 2.2 -0.2
v 0.7 1.4 -0.3
v 0.7 1.5 -0.3
v 0.7 1.6 -0.3
v 0.7 2 -0.3
v 0.7 2.1 -0.3
v 0.7 1.7 -0.5
v 0.7 1.8 -0.5
v 0.7 2.1 -0.5
v 0.7 2.2 -0.5
v 0.7 0.7 -0.6
v 0.7 0.9 -0.6
v 0.7 1.7 -0.6
v 0.7 1.8 -0.6
v 0.7 1.6 -0.7
v 0.7 2.2 -0.7
v 0.7 1.5 -0.8
v 0.7 2.2 -0.8
v 0.6 1.8 1.2
v 0.6 2.2 1.2
v 0.6 1.9 1.1
v 0.6 2.2 1.1
v 0.6 2 1
v 0.6 2.1 1
v 0.6 2 0.9
v 0.6 2.1 0.9
v 0.6 1.8 0.8
v 0.6 1.9 0.8
v 0.6 2.2 0.8
v 0.6 0.7 0.7
v 0.6 0.9 0.7
v 0.6 1 0.7
v 0.6 1.5 0.7
v 0.6 0.7 0.5
v 0.6 0.9 0.5
v 0.6 1 0.5
v 0.6 1.5 0.5
v 0.6 0.6 0.4
v 0.6 0.7 0.4
v 0.6 0.9 0.4
v 0.6 1 0.4
v 0.6 1.5 0.4
v 0.6 0.6 0.3
v 0.6 0.7 0.3
v 0.6 0.9 0.3
v 0.6 1 0.3
v 0.6 1.4 0.3
v 0.6 1.5 0.3
v 0.6 0.6 0.2
v 0.6 0.7 0.2
v 0.6 1 0.2
v 0.6 1.4 0.2
v 0.6 1 0.1
v 0.6 1 0
v 0.6 1 -0.0999999
v 0.6 0.6 -0.2
v 0.6 0.7 -0.2
v 0.6 1 -0.2
v 0.6 1.2 -0.2
v 0.6 1.4 -0.2
v 0.6 0.6 -0.3
v 0.6 0.7 -0.3
v 0.6 0.9 -0.3
v 0.6 1.4 -0.3
v 0.6 1.5 -0.3
v 0.6 0.6 -0.4
v 0.6 0.7 -0.4
v 0.6 0.9 -0.4
v 0.6 1.5 -0.4
v 0.6 0.6 -0.5
v 0.6 0.7 -0.5
v 0.6 0.9 -0.5
v 0.6 1.5 -0.5
v 0.6 0.7 -0.6
v 0.6 0.9 -0.6
v 0.6 1.8 -0.8
v 0.6 1.9 -0.8
v 0.6 2.2 -0.8
v 0.6 2 -0.9
v 0.6 2.1 -0.9
v 0.6 2 -1
v 0.6 2.1 -1
v 0.6 0.7 -1.1
v 0.6 0.9 -1.1
v 0.6 1.9 -1.1
v 0.6 2.2 -1.1
v 0.6 1.8 -1.2
v 0.6 2.2 -1.2
v 0.5 0.6 1
v 0.5 1.8 1
v 0.5 0.7 0.7
v 0.5 1.8 0.7
v 0.5 0.6 0.5
v 0.5 0.7 0.5
v 0.5 2.1 0.5
v 0.5 2.2 0.5
v 0.5 2 0.3
v 0.5 2.1 0.3
v 0.5 2 0.2
v 0.5 2.2 0.2
v 0.5 2 -0.2
v 0.5 2.2 -0.2
v 0.5 2 -0.3
v 0.5 2.1 -0.3
v 0.5 0.6 -0.5
v 0.5 0.7 -0.5
v 0.5 0.9 -0.5
v 0.5 1.8 -0.5
v 0.5 2.1 -0.5
v 0.5 2.2 -0.5
v 0.5 0.6 -1
v 0.5 0.7 -1
v 0.5 0.9 -1
v 0.5 1.8 -1
v 0.4 0.6 0.3
v 0.4 0.8 0.3
v 0.4 0.6 0.2
v 0.4 0.8 0.2
v 0.4 0.6 -0.2
v 0.4 0.8 -0.2
v 0.4 0.6 -0.3
v 0.4 0.8 -0.3
v -0.5 1.9 1.2
v -0.5 2.1 1.2
v -0.5 2 1.1
v -0.5 2.1 1.1
v -0.5 1.9 1
v -0.5 2 1
v -0.5 2.1 1
v -0.5 1.9 -1
v -0.5 2 -1
v -0.5 2.1 -1
v -0.5 2 -1.1
v -0.5 2.1 -1.1
v -0.5 1.9 -1.2
v -0.5 2.1 -1.2
v 0.6 0.6 0.8
v 0.6 1 0.8
v 0.6 1.5 0.8
v 0.6 1.8 0.8
v 0.6 0.7 0.7
v 0.6 1 0.7
v 0.6 1.5 0.7
v 0.6 1.8 0.7
v 0.6 0.6 0.5
v 0.6 0.7 0.5
v 0.6 0.7 0.3
v 0.6 0.8 0.3
v 0.6 0.7 0.2
v 0.6 0.8 0.2
v 0.6 0.7 -0.2
v 0.6 0.8 -0.2
v 0.6 0.7 -0.3
v 0.6 0.8 -0.3
v 0.6 1.5 -0.5
v 0.6 1.6 -0.5
v 0.6 1.7 -0.5
v 0.6 1.8 -0.5
v 0.6 1.7 -0.6
v 0.6 1.8 -0.6
v 0.6 1.6 -0.7
v 0.6 1.8 -0.7
v 0.6 1.5 -0.8
v 0.6 1.8 -0.8
v 0.5 1.8 1.2
v 0.5 2.1 1.2
v 0.5 1.9 1.1
v 0.5 2.1 1.1
v 0.5 1.8 1
v 0.5 1.9 1
v 0.5 2.1 1
v 0.5 1.8 -1
v 0.5 1.9 -1
v 0.5 2.1 -1
v 0.5 1.9 -1.1
v 0.5 2.1 -1.1
v 0.5 1.8 -1.2
v 0.5 2.1 -1.2
v -0.5 0.6 1
v -0.5 1.9 1
v -0.5 0.7 0.7
v -0.5 1.9 0.7
v -0.5 0.9 0.5
v -0.5 1.9 0.5
v -0.5 0.6 -1
v -0.5 0.7 -1
v -0.5 0.9 -1
v -0.5 1.9 -1
v -0.6 1.9 1.2
v -0.6 2.2 1.2
v -0.6 2 1.1
v -0.6 2.2 1.1
v -0.6 0.7 0.7
v -0.6 1.9 0.7
v -0.6 0.9 0.5
v -0.6 1.9 0.5
v -0.6 0.7 -1.1
v -0.6 0.9 -1.1
v -0.6 2 -1.1
v -0.6 2.2 -1.1
v -0.6 1.9 -1.2
v -0.6 2.2 -1.2
v 0.7 0.6 0.8
v 0.7 0.6 0.4
v 0.6 0.6 0.8
v 0.6 0.6 0.5
v 0.6 0.6 0.4
v 0.6 0.6 0.3
v 0.6 0.6 0.2
v 0.6 0.6 -0.2
v 0.6 0.6 -0.3
v 0.6 0.6 -0.4
v 0.6 0.6 -0.5
v 0.5 0.6 1
v 0.5 0.6 0.5
v 0.5 0.6 0.4
v 0.5 0.6 -0.4
v 0.5 0.6 -0.5
v 0.5 0.6 -1
v 0.4 0.6 0.3
v 0.4 0.6 0.2
v 0.4 0.6 -0.2
v 0.4 0.6 -0.3
v 0.3 0.6 0.3
v 0.3 0.6 -0.3
v -0.5 0.6 1
v -0.5 0.6 -1
v 0.7 0.7 0.4
v 0.7 0.7 -0.6
v 0.6 0.7 0.7
v 0.6 0.7 0.5
v 0.6 0.7 0.4
v 0.6 0.7 0.3
v 0.6 0.7 0.2
v 0.6 0.7 -0.2
v 0.6 0.7 -0.3
v 0.6 0.7 -0.4
v 0.6 0.7 -0.5
v 0.6 0.7 -0.6
v 0.6 0.7 -1.1
v 0.5 0.7 0.7
v 0.5 0.7 0.5
v 0.5 0.7 -0.5
v 0.5 0.7 -1
v -0.5 0.7 0.7
v -0.5 0.7 -1
v -0.6 0.7 0.7
v -0.6 0.7 -1.1
v 0.6 0.8 0.3
v 0.6 0.8 0.2
v 0.6 0.8 -0.2
v 0.6 0.8 -0.3
v 0.4 0.8 0.3
v 0.4 0.8 0.2
v 0.4 0.8 -0.2
v 0.4 0.8 -0.3
v 0.7 0.9 0.7
v 0.7 0.9 0.5
v 0.6 0.9 0.7
v 0.6 0.9 0.5
v 0.7 1 0.2
v 0.7 1 0.1
v 0.7 1 0
v 0.7 1 -0.0999999
v 0.7 1 -0.2
v 0.6 1 0.2
v 0.6 1 0.1
v 0.6 1 0
v 0.6 1 -0.0999999
v 0.6 1 -0.2
v 0.8 1.2 0.2
v 0.8 1.2 -0.2
v 0.7 1.2 0.2
v 0.7 1.2 0.1
v 0.7 1.2 0
v 0.7 1.2 -0.0999999
v 0.7 1.2 -0.2
v 0.7 1.4 0.3
v 0.7 1.4 0.2
v 0.7 1.4 -0.2
v 0.7 1.4 -0.3
v 0.6 1.4 0.3
v 0.6 1.4 0.2
v 0.6 1.4 -0.2
v 0.6 1.4 -0.3
v 0.7 1.5 0.8
v 0.7 1.5 0.3
v 0.7 1.5 -0.3
v 0.7 1.5 -0.8
v 0.6 1.5 0.8
v 0.6 1.5 0.7
v 0.6 1.5 0.5
v 0.6 1.5 0.4
v 0.6 1.5 0.3
v 0.6 1.5 -0.3
v 0.6 1.5 -0.4
v 0.6 1.5 -0.5
v 0.6 1.5 -0.8
v 0.6 1.8 1.2
v 0.6 1.8 0.8
v 0.6 1.8 0.7
v 0.6 1.8 -0.5
v 0.6 1.8 -0.6
v 0.6 1.8 -0.7
v 0.6 1.8 -0.8
v 0.6 1.8 -1.2
v 0.5 1.8 1.2
v 0.5 1.8 1
v 0.5 1.8 0.7
v 0.5 1.8 -0.5
v 0.5 1.8 -1
v 0.5 1.8 -1.2
v -0.5 1.9 1.2
v -0.5 1.9 1
v -0.5 1.9 0.7
v -0.5 1.9 0.5
v -0.5 1.9 -1
v -0.5 1.9 -1.2
v -0.6 1.9 1.2
v -0.6 1.9 0.7
v -0.6 1.9 0.5
v -0.6 1.9 -1.2
v 0.5 2.1 1.2
v 0.5 2.1 1.1
v 0.5 2.1 1
v 0.5 2.1 -1
v 0.5 2.1 -1.1
v 0.5 2.1 -1.2
v -0.5 2.1 1.2
v -0.5 2.1 1.1
v -0.5 2.1 1
v -0.5 2.1 -1
v -0.5 2.1 -1.1
v -0.5 2.1 -1.2
v 0.7 0.7 0.7
v 0.7 0.7 0.5
v 0.6 0.7 0.7
v 0.6 0.7 0.5
v 0.7 0.9 0.4
v 0.7 0.9 -0.6
v 0.6 0.9 0.4
v 0.6 0.9 0.3
v 0.6 0.9 -0.3
v 0.6 0.9 -0.4
v 0.6 0.9 -0.5
v 0.6 0.9 -0.6
v 0.6 0.9 -1.1
v 0.5 0.9 -0.5
v 0.5 0.9 -1
v -0.5 0.9 0.5
v -0.5 0.9 -1
v -0.6 0.9 0.5
v -0.6 0.9 -1.1
v 0.7 1 0.8
v 0.7 1 0.4
v 0.6 1 0.8
v 0.6 1 0.7
v 0.6 1 0.5
v 0.6 1 0.4
v 0.8 2 0.2
v 0.8 2 -0.2
v 0.7 2 0.3
v 0.7 2 0.2
v 0.7 2 -0.2
v 0.7 2 -0.3
v 0.5 2 0.3
v 0.5 2 0.2
v 0.5 2 -0.2
v 0.5 2 -0.3
v 0.7 2.1 0.5
v 0.7 2.1 0.3
v 0.7 2.1 -0.3
v 0.7 2.1 -0.5
v 0.5 2.1 0.5
v 0.5 2.1 0.3
v 0.5 2.1 -0.3
v 0.5 2.1 -0.5
v 0.7 2.2 0.8
v 0.7 2.2 0.7
v 0.7 2.2 0.5
v 0.7 2.2 0.2
v 0.7 2.2 -0.2
v 0.7 2.2 -0.5
v 0.7 2.2 -0.7
v 0.7 2.2 -0.8
v 0.6 2.2 1.2
v 0.6 2.2 1.1
v 0.6 2.2 0.8
v 0.6 2.2 0.7
v 0.6 2.2 -0.7
v 0.6 2.2 -0.8
v 0.6 2.2 -1.1
v 0.6 2.2 -1.2
v 0.5 2.2 0.5
v 0.5 2.2 0.2
v 0.5 2.2 -0.2
v 0.5 2.2 -0.5
v -0.4 2.2 0.5
v -0.4 2.2 -0.5
v -0.6 2.2 1.2
v -0.6 2.2 1.1
v -0.6 2.2 -1.1
v -0.6 2.2 -1.2

# faces
f 5/6/1 2/6/1 1/6/1
f 6/6/1 4/6/1 3/6/1
f 7/6/1 5/6/1 1/6/1
f 7/6/1 6/6/1 5/6/1
f 8/6/1 4/6/1 6/6/1
f 8/6/1 6/6/1 7/6/1
f 11/5/1 10/5/1 9/5/1
f 12/5/1 10/5/1 11/5/1
f 13/5/1 10/5/1 12/5/1
f 14/5/1 13/5/1 12/5/1
f 15/5/1 14/5/1 12/5/1
f 16/5/1 14/5/1 15/5/1
f 19/3/1 18/3/1 17/3/1
f 20/3/1 18/3/1 19/3/1
f 23/6/1 22/6/1 21/6/1
f 24/6/1 23/6/1 21/6/1
f 25/6/1 24/6/1 21/6/1
f 26/6/1 24/6/1 25/6/1
f 31/7/1 28/7/1 27/7/1
f 32/7/1 28/7/1 31/7/1
f 33/7/1 28/7/1 32/7/1
f 34/7/1 28/7/1 33/7/1
f 35/7/1 30/7/1 29/7/1
f 36/7/1 30/7/1 35/7/1
f 40/6/1 38/6/1 37/6/1
f 41/6/1 38/6/1 40/6/1
f 42/3/1 40/3/1 39/3/1
f 43/3/1 40/3/1 42/3/1
f 46/2/1 45/2/1 44/2/1
f 47/2/1 45/2/1 46/2/1
f 50/2/1 49/2/1 48/2/1
f 51/2/1 49/2/1 50/2/1
f 52/2/1 49/2/1 51/2/1
f 56/2/1 54/2/1 53/2/1
f 57/2/1 54/2/1 56/2/1
f 57/2/1 56/2/1 55/2/1
f 58/2/1 54/2/1 57/2/1
f 59/2/1 57/2/1 55/2/1
f 60/2/1 57/2/1 59/2/1
f 61/1/1 60/1/1 59/1/1
f 62/1/1 60/1/1 61/1/1
f 63/2/1 62/2/1 61/2/1
f 64/2/1 62/2/1 63/2/1
f 66/2/1 65/2/1 64/2/1
f 67/2/1 65/2/1 66/2/1
f 70/5/1 69/5/1 68/5/1
f 71/5/1 69/5/1 70/5/1
f 72/5/1 69/5/1 71/5/1
f 75/5/1 74/5/1 73/5/1
f 76/5/1 74/5/1 75/5/1
f 79/5/1 78/5/1 77/5/1
f 80/5/1 78/5/1 79/5/1
f 81/3/2 82/3/2 83/3/2
f 83/3/2 82/3/2 84/3/2
f 85/7/2 86/7/2 87/7/2
f 87/7/2 86/7/2 88/7/2
f 89/5/2 90/5/2 91/5/2
f 91/5/2 90/5/2 92/5/2
f 93/3/2 94/3/2 95/3/2
f 95/3/2 94/3/2 96/3/2
f 97/3/2 98/3/2 99/3/2
f 99/3/2 98/3/2 100/3/2
f 101/5/2 102/5/2 103/5/2
f 103/5/2 102/5/2 104/5/2
f 104/5/2 102/5/2 105/5/2
f 106/5/2 107/5/2 108/5/2
f 108/5/2 107/5/2 109/5/2
f 110/2/2 111/2/2 112/2/2
f 112/2/2 111/2/2 113/2/2
f 113/2/2 111/2/2 114/2/2
f 115/1/2 116/1/2 118/1/2
f 118/1/2 116/1/2 119/1/2
f 117/2/2 118/2/2 120/2/2
f 118/2/2 119/2/2 120/2/2
f 120/2/2 119/2/2 121/2/2
f 117/2/2 120/2/2 122/2/2
f 122/2/2 120/2/2 123/2/2
f 123/2/2 124/2/2 125/2/2
f 125/2/2 124/2/2 126/2/2
f 127/2/2 128/2/2 129/2/2
f 129/2/2 128/2/2 130/2/2
f 131/6/2 132/6/2 133/6/2
f 133/6/2 132/6/2 134/6/2
f 135/6/2 136/6/2 137/6/2
f 137/6/2 136/6/2 138/6/2
f 138/6/2 136/6/2 139/6/2
f 139/6/2 136/6/2 140/6/2
f 140/6/2 136/6/2 141/6/2
f 142/7/2 143/7/2 144/7/2
f 144/7/2 143/7/2 145/7/2
f 146/6/2 147/6/2 148/6/2
f 146/6/2 148/6/2 149/6/2
f 146/6/2 149/6/2 150/6/2
f 150/6/2 149/6/2 151/6/2
f 152/5/2 153/5/2 154/5/2
f 154/5/2 153/5/2 155/5/2
f 156/5/2 157/5/2 158/5/2
f 158/5/2 157/5/2 159/5/2
f 159/5/2 157/5/2 160/5/2
f 159/5/2 160/5/2 161/5/2
f 159/5/2 161/5/2 162/5/2
f 162/5/2 161/5/2 163/5/2
f 164/7/2 165/7/2 166/7/2
f 166/7/2 165/7/2 167/7/2
f 168/6/2 169/6/2 172/6/2
f 170/6/2 171/6/2 173/6/2
f 168/6/2 172/6/2 174/6/2
f 172/6/2 173/6/2 174/6/2
f 173/6/2 171/6/2 175/6/2
f 174/6/2 173/6/2 175/6/2
f 180/2/3 177/2/3 176/2/3
f 180/1/3 178/1/3 177/1/3
f 181/2/3 179/2/3 178/2/3
f 181/1/3 178/1/3 180/1/3
f 182/2/3 180/2/3 176/2/3
f 182/2/3 181/2/3 180/2/3
f 183/2/3 179/2/3 181/2/3
f 183/2/3 181/2/3 182/2/3
f 184/2/3 182/2/3 176/2/3
f 184/1/3 183/1/3 182/1/3
f 185/2/3 179/2/3 183/2/3
f 185/1/3 183/1/3 184/1/3
f 186/2/3 184/2/3 176/2/3
f 186/2/3 185/2/3 184/2/3
f 187/2/3 179/2/3 185/2/3
f 187/2/3 185/2/3 186/2/3
f 192/3/3 189/3/3 188/3/3
f 193/3/3 189/3/3 192/3/3
f 194/6/3 191/6/3 190/6/3
f 195/6/3 191/6/3 194/6/3
f 196/5/3 195/5/3 194/5/3
f 197/5/3 195/5/3 196/5/3
f 198/3/3 192/3/3 188/3/3
f 199/3/3 189/3/3 193/3/3
f 200/5/3 196/5/3 194/5/3
f 200/6/3 197/6/3 196/6/3
f 201/5/3 195/5/3 197/5/3
f 201/6/3 197/6/3 200/6/3
f 202/5/3 195/5/3 201/5/3
f 203/5/3 195/5/3 202/5/3
f 204/3/3 198/3/3 188/3/3
f 204/3/3 199/3/3 198/3/3
f 205/3/3 199/3/3 204/3/3
f 206/3/3 189/3/3 199/3/3
f 206/3/3 199/3/3 205/3/3
f 207/3/3 189/3/3 206/3/3
f 209/6/3 194/6/3 190/6/3
f 210/5/3 200/5/3 194/5/3
f 210/5/3 202/5/3 201/5/3
f 210/6/3 194/6/3 209/6/3
f 210/5/3 201/5/3 200/5/3
f 211/5/3 202/5/3 210/5/3
f 212/5/3 202/5/3 211/5/3
f 215/2/3 209/2/3 208/2/3
f 215/2/3 210/2/3 209/2/3
f 215/2/3 211/2/3 210/2/3
f 216/2/3 211/2/3 215/2/3
f 217/2/3 211/2/3 216/2/3
f 218/2/3 211/2/3 217/2/3
f 220/2/3 214/2/3 213/2/3
f 221/2/3 214/2/3 220/2/3
f 222/1/3 221/1/3 220/1/3
f 223/1/3 221/1/3 222/1/3
f 224/2/3 223/2/3 222/2/3
f 225/2/3 223/2/3 224/2/3
f 226/1/3 225/1/3 224/1/3
f 227/1/3 225/1/3 226/1/3
f 229/2/3 219/2/3 218/2/3
f 230/2/3 219/2/3 229/2/3
f 231/2/3 229/2/3 228/2/3
f 232/2/3 229/2/3 231/2/3
f 233/2/3 229/2/3 232/2/3
f 234/2/3 229/2/3 233/2/3
f 236/5/3 235/5/3 234/5/3
f 236/5/3 234/5/3 233/5/3
f 237/5/3 235/5/3 236/5/3
f 238/5/3 235/5/3 237/5/3
f 240/7/3 206/7/3 205/7/3
f 241/7/3 206/7/3 240/7/3
f 242/5/3 236/5/3 233/5/3
f 242/6/3 237/6/3 236/6/3
f 243/5/3 239/5/3 238/5/3
f 243/6/3 237/6/3 242/6/3
f 243/5/3 238/5/3 237/5/3
f 244/5/3 242/5/3 233/5/3
f 244/6/3 233/6/3 232/6/3
f 244/5/3 243/5/3 242/5/3
f 245/5/3 239/5/3 243/5/3
f 245/5/3 243/5/3 244/5/3
f 246/6/3 244/6/3 232/6/3
f 246/6/3 245/6/3 244/6/3
f 247/6/3 245/6/3 246/6/3
f 250/6/3 249/6/3 248/6/3
f 251/6/3 249/6/3 250/6/3
f 252/5/3 251/5/3 250/5/3
f 253/5/3 251/5/3 252/5/3
f 254/5/3 252/5/3 250/5/3
f 254/6/3 253/6/3 252/6/3
f 255/5/3 251/5/3 253/5/3
f 255/6/3 253/6/3 254/6/3
f 256/6/3 250/6/3 248/6/3
f 257/5/3 254/5/3 250/5/3
f 257/6/3 250/6/3 256/6/3
f 257/5/3 255/5/3 254/5/3
f 258/5/3 251/5/3 255/5/3
f 258/5/3 255/5/3 257/5/3
f 263/7/3 260/7/3 259/7/3
f 264/7/3 260/7/3 263/7/3
f 265/7/3 262/7/3 261/7/3
f 266/7/3 262/7/3 265/7/3
f 270/6/3 266/6/3 265/6/3
f 271/6/3 266/6/3 270/6/3
f 272/5/3 268/5/3 267/5/3
f 273/5/3 268/5/3 272/5/3
f 274/5/3 270/5/3 269/5/3
f 274/5/3 271/5/3 270/5/3
f 275/5/3 271/5/3 274/5/3
f 276/5/3 271/5/3 275/5/3
f 277/5/3 271/5/3 276/5/3
f 280/2/3 275/2/3 274/2/3
f 280/1/3 276/1/3 275/1/3
f 281/1/3 276/1/3 280/1/3
f 282/2/3 280/2/3 274/2/3
f 283/2/3 282/2/3 274/2/3
f 284/2/3 283/2/3 274/2/3
f 285/2/3 279/2/3 278/2/3
f 286/2/3 279/2/3 285/2/3
f 287/2/3 284/2/3 274/2/3
f 292/2/3 287/2/3 274/2/3
f 292/2/3 289/2/3 288/2/3
f 292/2/3 288/2/3 287/2/3
f 293/2/3 289/2/3 292/2/3
f 295/5/3 291/5/3 290/5/3
f 296/5/3 291/5/3 295/5/3
f 297/5/3 294/5/3 293/5/3
f 297/5/3 293/5/3 292/5/3
f 298/5/3 294/5/3 297/5/3
f 299/6/3 296/6/3 295/6/3
f 300/6/3 296/6/3 299/6/3
f 301/6/3 298/6/3 297/6/3
f 302/6/3 298/6/3 301/6/3
f 308/5/3 307/5/3 306/5/3
f 309/5/3 307/5/3 308/5/3
f 310/5/3 308/5/3 306/5/3
f 310/6/3 309/6/3 308/6/3
f 311/5/3 307/5/3 309/5/3
f 311/6/3 309/6/3 310/6/3
f 312/7/3 304/7/3 303/7/3
f 313/7/3 304/7/3 312/7/3
f 314/6/3 306/6/3 305/6/3
f 314/5/3 310/5/3 306/5/3
f 314/5/3 311/5/3 310/5/3
f 315/5/3 307/5/3 311/5/3
f 315/5/3 311/5/3 314/5/3
f 316/6/3 314/6/3 305/6/3
f 316/6/3 315/6/3 314/6/3
f 317/6/3 315/6/3 316/6/3
f 320/5/3 319/5/3 318/5/3
f 321/5/3 319/5/3 320/5/3
f 322/5/3 320/5/3 318/5/3
f 323/5/3 320/5/3 322/5/3
f 327/2/3 325/2/3 324/2/3
f 328/2/3 327/2/3 326/2/3
f 329/2/3 325/2/3 327/2/3
f 329/2/3 327/2/3 328/2/3
f 332/2/3 331/2/3 330/2/3
f 333/2/3 331/2/3 332/2/3
f 338/2/3 331/2/3 333/2/3
f 339/2/3 331/2/3 338/2/3
f 340/5/3 335/5/3 334/5/3
f 341/5/3 335/5/3 340/5/3
f 342/5/3 337/5/3 336/5/3
f 343/5/3 337/5/3 342/5/3
f 346/4/3 345/4/3 344/4/3
f 347/4/3 345/4/3 346/4/3
f 350/4/3 349/4/3 348/4/3
f 351/4/3 349/4/3 350/4/3
f 354/6/3 353/6/3 352/6/3
f 355/6/3 353/6/3 354/6/3
f 356/6/3 354/6/3 352/6/3
f 357/5/3 355/5/3 354/5/3
f 357/6/3 354/6/3 356/6/3
f 358/5/3 355/5/3 357/5/3
f 362/6/3 360/6/3 359/6/3
f 362/5/3 361/5/3 360/5/3
f 363/5/3 361/5/3 362/5/3
f 364/6/3 362/6/3 359/6/3
f 364/6/3 363/6/3 362/6/3
f 365/6/3 363/6/3 364/6/3
f 366/3/4 367/3/4 370/3/4
f 370/3/4 367/3/4 371/3/4
f 368/6/4 369/6/4 372/6/4
f 372/6/4 369/6/4 373/6/4
f 366/3/4 370/3/4 374/3/4
f 374/3/4 370/3/4 375/3/4
f 376/7/4 377/7/4 378/7/4
f 378/7/4 377/7/4 379/7/4
f 380/7/4 381/7/4 382/7/4
f 382/7/4 381/7/4 383/7/4
f 385/5/4 386/5/4 388/5/4
f 386/6/4 387/6/4 388/6/4
f 388/6/4 387/6/4 389/6/4
f 384/6/4 385/6/4 390/6/4
f 385/5/4 388/5/4 390/5/4
f 388/5/4 389/5/4 390/5/4
f 390/5/4 389/5/4 391/5/4
f 384/6/4 390/6/4 392/6/4
f 390/6/4 391/6/4 392/6/4
f 392/6/4 391/6/4 393/6/4
f 394/6/4 395/6/4 396/6/4
f 396/6/4 395/6/4 397/6/4
f 394/6/4 396/6/4 398/6/4
f 396/5/4 397/5/4 399/5/4
f 398/6/4 396/6/4 399/6/4
f 399/5/4 397/5/4 400/5/4
f 401/6/4 402/6/4 404/6/4
f 402/5/4 403/5/4 404/5/4
f 404/5/4 403/5/4 405/5/4
f 401/6/4 404/6/4 406/6/4
f 404/6/4 405/6/4 406/6/4
f 406/6/4 405/6/4 407/6/4
f 408/5/4 409/5/4 410/5/4
f 410/5/4 409/5/4 411/5/4
f 408/5/4 410/5/4 414/5/4
f 414/5/4 410/5/4 415/5/4
f 412/5/4 413/5/4 416/5/4
f 416/5/4 413/5/4 417/5/4
f 418/6/4 419/6/4 420/6/4
f 420/6/4 419/6/4 421/6/4
f 418/6/4 420/6/4 423/6/4
f 422/7/4 423/7/4 424/7/4
f 423/6/4 420/6/4 425/6/4
f 424/7/4 423/7/4 425/7/4
f 422/7/4 424/7/4 426/7/4
f 426/7/4 424/7/4 427/7/4
f 420/5/4 421/5/4 428/5/4
f 425/6/4 420/6/4 428/6/4
f 428/5/4 421/5/4 429/5/4
f 425/6/4 428/6/4 430/6/4
f 428/6/4 429/6/4 430/6/4
f 430/6/4 429/6/4 431/6/4
f 434/3/5 433/3/5 432/3/5
f 435/3/5 433/3/5 434/3/5
f 436/3/5 433/3/5 435/3/5
f 444/6/5 436/6/5 435/6/5
f 445/5/5 437/5/5 436/5/5
f 445/6/5 436/6/5 444/6/5
f 446/6/5 442/6/5 441/6/5
f 446/5/5 441/5/5 440/5/5
f 447/6/5 442/6/5 446/6/5
f 449/5/5 437/5/5 445/5/5
f 449/5/5 445/5/5 444/5/5
f 449/5/5 444/5/5 443/5/5
f 450/2/5 439/2/5 438/2/5
f 451/2/5 439/2/5 450/2/5
f 452/5/5 448/5/5 447/5/5
f 452/5/5 447/5/5 446/5/5
f 452/5/5 446/5/5 440/5/5
f 453/4/5 451/4/5 450/4/5
f 453/4/5 452/4/5 451/4/5
f 453/4/5 450/4/5 449/4/5
f 453/5/5 449/5/5 443/5/5
f 454/5/5 448/5/5 452/5/5
f 454/4/5 452/4/5 453/4/5
f 455/5/5 453/5/5 443/5/5
f 455/5/5 454/5/5 453/5/5
f 456/5/5 448/5/5 454/5/5
f 456/5/5 454/5/5 455/5/5
f 461/7/5 458/7/5 457/7/5
f 462/7/5 458/7/5 461/7/5
f 463/7/5 458/7/5 462/7/5
f 464/7/5 458/7/5 463/7/5
f 465/7/5 458/7/5 464/7/5
f 466/7/5 458/7/5 465/7/5
f 467/7/5 458/7/5 466/7/5
f 468/7/5 458/7/5 467/7/5
f 470/7/5 460/7/5 459/7/5
f 471/7/5 460/7/5 470/7/5
f 472/7/5 469/7/5 468/7/5
f 472/7/5 468/7/5 467/7/5
f 473/7/5 469/7/5 472/7/5
f 475/7/5 469/7/5 473/7/5
f 476/7/5 475/7/5 474/7/5
f 477/7/5 469/7/5 475/7/5
f 477/7/5 475/7/5 476/7/5
f 482/2/5 479/2/5 478/2/5
f 483/2/5 479/2/5 482/2/5
f 484/2/5 481/2/5 480/2/5
f 485/2/5 481/2/5 484/2/5
f 488/3/5 487/3/5 486/3/5
f 489/3/5 487/3/5 488/3/5
f 495/2/5 491/2/5 490/2/5
f 496/1/5 492/1/5 491/1/5
f 496/2/5 491/2/5 495/2/5
f 497/2/5 493/2/5 492/2/5
f 497/1/5 492/1/5 496/1/5
f 498/1/5 494/1/5 493/1/5
f 498/2/5 493/2/5 497/2/5
f 499/1/5 494/1/5 498/1/5
f 502/2/5 501/2/5 500/2/5
f 503/2/5 501/2/5 502/2/5
f 504/2/5 501/2/5 503/2/5
f 505/2/5 501/2/5 504/2/5
f 506/2/5 501/2/5 505/2/5
f 511/2/5 508/2/5 507/2/5
f 512/2/5 508/2/5 511/2/5
f 513/2/5 510/2/5 509/2/5
f 514/2/5 510/2/5 513/2/5
f 519/6/5 516/6/5 515/6/5
f 520/6/5 516/6/5 519/6/5
f 521/6/5 516/6/5 520/6/5
f 522/6/5 516/6/5 521/6/5
f 523/6/5 516/6/5 522/6/5
f 524/6/5 518/6/5 517/6/5
f 525/6/5 518/6/5 524/6/5
f 526/6/5 518/6/5 525/6/5
f 527/6/5 518/6/5 526/6/5
f 536/6/5 529/6/5 528/6/5
f 536/6/5 530/6/5 529/6/5
f 537/6/5 530/6/5 536/6/5
f 538/6/5 530/6/5 537/6/5
f 539/6/5 535/6/5 534/6/5
f 539/6/5 534/6/5 533/6/5
f 539/6/5 532/6/5 531/6/5
f 539/6/5 533/6/5 532/6/5
f 540/6/5 535/6/5 539/6/5
f 541/6/5 535/6/5 540/6/5
f 548/6/5 543/6/5 542/6/5
f 548/6/5 544/6/5 543/6/5
f 549/6/5 544/6/5 548/6/5
f 550/6/5 547/6/5 546/6/5
f 550/6/5 546/6/5 545/6/5
f 551/6/5 547/6/5 550/6/5
f 558/6/5 553/6/5 552/6/5
f 559/5/5 554/5/5 553/5/5
f 559/6/5 553/6/5 558/6/5
f 560/5/5 554/5/5 559/5/5
f 561/5/5 556/5/5 555/5/5
f 562/6/5 557/6/5 556/6/5
f 562/5/5 556/5/5 561/5/5
f 563/6/5 557/6/5 562/6/5
f 564/3/6 565/3/6 566/3/6
f 566/3/6 565/3/6 567/3/6
f 568/7/6 569/7/6 570/7/6
f 570/7/6 569/7/6 571/7/6
f 571/7/6 569/7/6 572/7/6
f 572/7/6 569/7/6 573/7/6
f 573/7/6 569/7/6 574/7/6
f 574/7/6 569/7/6 575/7/6
f 575/7/6 576/7/6 577/7/6
f 574/7/6 575/7/6 577/7/6
f 577/7/6 576/7/6 578/7/6
f 578/7/6 576/7/6 580/7/6
f 579/7/6 580/7/6 581/7/6
f 580/7/6 576/7/6 582/7/6
f 581/7/6 580/7/6 582/7/6
f 583/3/6 584/3/6 585/3/6
f 585/3/6 584/3/6 586/3/6
f 586/3/6 584/3/6 587/3/6
f 587/3/6 584/3/6 588/3/6
f 589/2/6 590/2/6 592/2/6
f 592/2/6 590/2/6 593/2/6
f 591/2/6 592/2/6 595/2/6
f 595/2/6 592/2/6 596/2/6
f 593/2/6 594/2/6 597/2/6
f 597/2/6 594/2/6 598/2/6
f 599/5/6 600/5/6 603/5/6
f 603/5/6 600/5/6 604/5/6
f 601/5/6 602/5/6 605/5/6
f 605/5/6 602/5/6 606/5/6
f 607/6/6 608/6/6 617/6/6
f 608/5/6 609/5/6 618/5/6
f 617/6/6 608/6/6 618/6/6
f 612/5/6 613/5/6 619/5/6
f 613/6/6 614/6/6 619/6/6
f 619/6/6 614/6/6 620/6/6
f 616/5/6 617/5/6 623/5/6
f 618/5/6 609/5/6 623/5/6
f 617/5/6 618/5/6 623/5/6
f 610/2/6 611/2/6 624/2/6
f 624/2/6 611/2/6 625/2/6
f 620/5/6 621/5/6 626/5/6
f 619/5/6 620/5/6 626/5/6
f 612/5/6 619/5/6 626/5/6
f 616/5/6 623/5/6 627/5/6
f 625/2/6 626/2/6 627/2/6
f 624/2/6 625/2/6 627/2/6
f 623/2/6 624/2/6 627/2/6
f 626/5/6 621/5/6 628/5/6
f 627/2/6 626/2/6 628/2/6
f 615/6/6 616/6/6 629/6/6
f 616/5/6 627/5/6 630/5/6
f 629/6/6 616/6/6 630/6/6
f 627/5/6 628/5/6 630/5/6
f 628/5/6 621/5/6 631/5/6
f 630/5/6 628/5/6 631/5/6
f 621/6/6 622/6/6 631/6/6
f 631/6/6 622/6/6 632/6/6
