# MagicaVoxel @ Ephtracy

# group
o 

# material
mtllib model-1.mtl
usemtl palette

# normals
vn 0 0 1
vn 0 0 -1
vn 1 0 0
vn -1 0 0
vn 0 -1 0
vn 0 1 0

# texcoords
vt 0.0996094 0.5
vt 0.251953 0.5
vt 0.255859 0.5
vt 0.267578 0.5
vt 0.509766 0.5
vt 0.513672 0.5
vt 0.521484 0.5

# verts
v 0.5 0 1
v -0.5 0 1
v 0.5 0.7 1
v -0.5 0.7 1
v 0.6 0 0.5
v 0.5 0 0.5
v 0.6 0.7 0.5
v 0.5 0.7 0.5
v 0.5 0 0.2
v 0.4 0 0.2
v 0.5 0.1 0.2
v 0.4 0.1 0.2
v 0.4 0.3 0.2
v 0.5 0.4 0.2
v 0.4 0.4 0.2
v 0.5 0.1 -0.1
v 0.4 0.1 -0.1
v 0.5 0.2 -0.1
v 0.4 0.2 -0.1
v 0.5 0.3 -0.1
v 0.4 0.3 -0.1
v 0.6 0 -0.3
v 0.4 0 -0.3
v 0.4 0.1 -0.3
v 0.4 0.3 -0.3
v 0.6 0.7 -0.3
v 0.4 0.7 -0.3
v 0.4 0 -0.9
v -0.4 0 -0.9
v 0.4 0.1 -0.9
v -0.4 0.1 -0.9
v 0.4 0 0.9
v -0.4 0 0.9
v 0.4 0.1 0.9
v -0.4 0.1 0.9
v 0.6 0 0.3
v 0.4 0 0.3
v 0.4 0.1 0.3
v 0.4 0.3 0.3
v 0.6 0.7 0.3
v 0.4 0.7 0.3
v 0.5 0.1 0.1
v 0.4 0.1 0.1
v 0.5 0.3 0.1
v 0.4 0.3 0.1
v 0.5 0 -0.2
v 0.4 0 -0.2
v 0.4 0.1 -0.2
v 0.5 0.2 -0.2
v 0.4 0.2 -0.2
v 0.4 0.3 -0.2
v 0.5 0.4 -0.2
v 0.4 0.4 -0.2
v 0.6 0 -0.5
v 0.5 0 -0.5
v 0.6 0.7 -0.5
v 0.5 0.7 -0.5
v 0.5 0 -1
v -0.5 0 -1
v 0.5 0.7 -1
v -0.5 0.7 -1
v 0.6 0 0.5
v 0.6 0.7 0.5
v 0.6 0 0.4
v 0.6 0.7 0.4
v 0.6 0 0.3
v 0.6 0.7 0.3
v 0.6 0 -0.3
v 0.6 0.7 -0.3
v 0.6 0 -0.4
v 0.6 0.7 -0.4
v 0.6 0 -0.5
v 0.6 0.7 -0.5
v 0.5 0 1
v 0.5 0.7 1
v 0.5 0 0.5
v 0.5 0.7 0.5
v 0.5 0 0.2
v 0.5 0.1 0.2
v 0.5 0.4 0.2
v 0.5 0.1 0.1
v 0.5 0.3 0.1
v 0.5 0 0
v 0.5 0.1 0
v 0.5 0.3 0
v 0.5 0.4 0
v 0.5 0.1 -0.1
v 0.5 0.2 -0.1
v 0.5 0.3 -0.1
v 0.5 0 -0.2
v 0.5 0.2 -0.2
v 0.5 0.4 -0.2
v 0.5 0 -0.5
v 0.5 0.7 -0.5
v 0.5 0 -1
v 0.5 0.7 -1
v 0.4 0.1 0.3
v 0.4 0.3 0.3
v 0.4 0.7 0.3
v 0.4 0.1 0.2
v 0.4 0.3 0.2
v 0.4 0.4 0.2
v 0.4 0.1 0.1
v 0.4 0.3 0.1
v 0.4 0.1 0
v 0.4 0.3 0
v 0.4 0.4 0
v 0.4 0.1 -0.1
v 0.4 0.2 -0.1
v 0.4 0.3 -0.1
v 0.4 0.1 -0.2
v 0.4 0.2 -0.2
v 0.4 0.3 -0.2
v 0.4 0.4 -0.2
v 0.4 0.1 -0.3
v 0.4 0.3 -0.3
v 0.4 0.7 -0.3
v -0.4 0 0.9
v -0.4 0.1 0.9
v -0.4 0 -0.9
v -0.4 0.1 -0.9
v 0.4 0 0.9
v 0.4 0.1 0.9
v 0.4 0 0.3
v 0.4 0.1 0.3
v 0.4 0 0.2
v 0.4 0.1 0.2
v 0.4 0 0
v 0.4 0.1 0
v 0.4 0 -0.2
v 0.4 0.1 -0.2
v 0.4 0 -0.3
v 0.4 0.1 -0.3
v 0.4 0 -0.9
v 0.4 0.1 -0.9
v -0.5 0 1
v -0.5 0.7 1
v -0.5 0 -1
v -0.5 0.7 -1
v 0.6 0 0.5
v 0.6 0 0.4
v 0.6 0 0.3
v 0.6 0 -0.3
v 0.6 0 -0.4
v 0.6 0 -0.5
v 0.5 0 1
v 0.5 0 0.5
v 0.5 0 0.4
v 0.5 0 0.2
v 0.5 0 0
v 0.5 0 -0.2
v 0.5 0 -0.4
v 0.5 0 -0.5
v 0.5 0 -1
v 0.4 0 0.9
v 0.4 0 0.3
v 0.4 0 0.2
v 0.4 0 0
v 0.4 0 -0.2
v 0.4 0 -0.3
v 0.4 0 -0.9
v -0.4 0 0.9
v -0.4 0 -0.9
v -0.5 0 1
v -0.5 0 -1
v 0.4 0.1 0.9
v 0.4 0.1 0.3
v 0.4 0.1 0.2
v 0.4 0.1 0
v 0.4 0.1 -0.2
v 0.4 0.1 -0.3
v 0.4 0.1 -0.9
v -0.4 0.1 0.9
v -0.4 0.1 -0.9
v 0.5 0.3 0.1
v 0.5 0.3 0
v 0.5 0.3 -0.1
v 0.4 0.3 0.1
v 0.4 0.3 0
v 0.4 0.3 -0.1
v 0.5 0.1 0.1
v 0.5 0.1 0
v 0.5 0.1 -0.1
v 0.4 0.1 0.1
v 0.4 0.1 0
v 0.4 0.1 -0.1
v 0.5 0.4 0.2
v 0.5 0.4 0
v 0.5 0.4 -0.2
v 0.4 0.4 0.2
v 0.4 0.4 0
v 0.4 0.4 -0.2
v 0.6 0.7 0.5
v 0.6 0.7 0.4
v 0.6 0.7 0.3
v 0.6 0.7 -0.3
v 0.6 0.7 -0.4
v 0.6 0.7 -0.5
v 0.5 0.7 1
v 0.5 0.7 0.5
v 0.5 0.7 0.4
v 0.5 0.7 -0.4
v 0.5 0.7 -0.5
v 0.5 0.7 -1
v 0.4 0.7 0.3
v 0.4 0.7 -0.3
v 0.3 0.7 0.3
v 0.3 0.7 -0.3
v -0.5 0.7 1
v -0.5 0.7 -1

# faces
f 3/3/1 2/3/1 1/3/1
f 4/3/1 2/3/1 3/3/1
f 7/4/1 6/4/1 5/4/1
f 8/4/1 6/4/1 7/4/1
f 11/5/1 10/5/1 9/5/1
f 12/5/1 10/5/1 11/5/1
f 13/6/1 12/6/1 11/6/1
f 14/6/1 13/6/1 11/6/1
f 15/6/1 13/6/1 14/6/1
f 18/6/1 17/6/1 16/6/1
f 19/6/1 17/6/1 18/6/1
f 20/7/1 19/7/1 18/7/1
f 21/7/1 19/7/1 20/7/1
f 24/3/1 23/3/1 22/3/1
f 25/3/1 24/3/1 22/3/1
f 26/3/1 25/3/1 22/3/1
f 27/3/1 25/3/1 26/3/1
f 30/3/1 29/3/1 28/3/1
f 31/3/1 29/3/1 30/3/1
f 32/3/2 33/3/2 34/3/2
f 34/3/2 33/3/2 35/3/2
f 36/3/2 37/3/2 38/3/2
f 36/3/2 38/3/2 39/3/2
f 36/3/2 39/3/2 40/3/2
f 40/3/2 39/3/2 41/3/2
f 42/6/2 43/6/2 44/6/2
f 44/6/2 43/6/2 45/6/2
f 46/6/2 47/6/2 48/6/2
f 46/6/2 48/6/2 49/6/2
f 49/6/2 48/6/2 50/6/2
f 49/7/2 50/7/2 51/7/2
f 49/7/2 51/7/2 52/7/2
f 52/7/2 51/7/2 53/7/2
f 54/4/2 55/4/2 56/4/2
f 56/4/2 55/4/2 57/4/2
f 58/3/2 59/3/2 60/3/2
f 60/3/2 59/3/2 61/3/2
f 64/4/3 63/4/3 62/4/3
f 65/4/3 63/4/3 64/4/3
f 66/3/3 65/3/3 64/3/3
f 67/3/3 65/3/3 66/3/3
f 70/3/3 69/3/3 68/3/3
f 71/3/3 69/3/3 70/3/3
f 72/4/3 71/4/3 70/4/3
f 73/4/3 71/4/3 72/4/3
f 76/3/3 75/3/3 74/3/3
f 77/3/3 75/3/3 76/3/3
f 81/5/3 79/5/3 78/5/3
f 81/6/3 80/6/3 79/6/3
f 82/6/3 80/6/3 81/6/3
f 83/5/3 81/5/3 78/5/3
f 84/5/3 81/5/3 83/5/3
f 85/6/3 80/6/3 82/6/3
f 86/6/3 80/6/3 85/6/3
f 87/6/3 84/6/3 83/6/3
f 89/7/3 86/7/3 85/7/3
f 90/6/3 88/6/3 87/6/3
f 90/6/3 87/6/3 83/6/3
f 91/7/3 89/7/3 88/7/3
f 91/6/3 88/6/3 90/6/3
f 92/7/3 86/7/3 89/7/3
f 92/7/3 89/7/3 91/7/3
f 95/3/3 94/3/3 93/3/3
f 96/3/3 94/3/3 95/3/3
f 100/1/3 98/1/3 97/1/3
f 101/2/3 99/2/3 98/2/3
f 101/1/3 98/1/3 100/1/3
f 102/2/3 99/2/3 101/2/3
f 105/1/3 104/1/3 103/1/3
f 106/1/3 104/1/3 105/1/3
f 107/2/3 99/2/3 102/2/3
f 108/1/3 106/1/3 105/1/3
f 109/1/3 106/1/3 108/1/3
f 110/1/3 106/1/3 109/1/3
f 114/2/3 99/2/3 107/2/3
f 115/1/3 113/1/3 112/1/3
f 115/1/3 112/1/3 111/1/3
f 116/2/3 114/2/3 113/2/3
f 116/1/3 113/1/3 115/1/3
f 117/2/3 99/2/3 114/2/3
f 117/2/3 114/2/3 116/2/3
f 120/3/3 119/3/3 118/3/3
f 121/3/3 119/3/3 120/3/3
f 122/3/4 123/3/4 124/3/4
f 124/3/4 123/3/4 125/3/4
f 126/5/4 127/5/4 128/5/4
f 128/5/4 127/5/4 129/5/4
f 128/6/4 129/6/4 130/6/4
f 130/6/4 129/6/4 131/6/4
f 132/3/4 133/3/4 134/3/4
f 134/3/4 133/3/4 135/3/4
f 136/3/4 137/3/4 138/3/4
f 138/3/4 137/3/4 139/3/4
f 147/4/5 141/4/5 140/4/5
f 148/3/5 142/3/5 141/3/5
f 148/4/5 141/4/5 147/4/5
f 152/4/5 145/4/5 144/4/5
f 152/3/5 144/3/5 143/3/5
f 153/4/5 145/4/5 152/4/5
f 155/3/5 147/3/5 146/3/5
f 155/3/5 148/3/5 147/3/5
f 156/3/5 142/3/5 148/3/5
f 156/3/5 148/3/5 155/3/5
f 157/5/5 150/5/5 149/5/5
f 158/6/5 151/6/5 150/6/5
f 158/5/5 150/5/5 157/5/5
f 159/6/5 151/6/5 158/6/5
f 160/3/5 154/3/5 153/3/5
f 160/3/5 153/3/5 152/3/5
f 160/3/5 152/3/5 143/3/5
f 161/3/5 154/3/5 160/3/5
f 162/3/5 155/3/5 146/3/5
f 163/3/5 154/3/5 161/3/5
f 164/3/5 162/3/5 146/3/5
f 164/3/5 163/3/5 162/3/5
f 165/3/5 154/3/5 163/3/5
f 165/3/5 163/3/5 164/3/5
f 173/1/5 167/1/5 166/1/5
f 173/1/5 172/1/5 171/1/5
f 173/1/5 171/1/5 170/1/5
f 173/1/5 170/1/5 169/1/5
f 173/1/5 169/1/5 168/1/5
f 173/1/5 168/1/5 167/1/5
f 174/1/5 172/1/5 173/1/5
f 178/6/5 176/6/5 175/6/5
f 179/7/5 177/7/5 176/7/5
f 179/6/5 176/6/5 178/6/5
f 180/7/5 177/7/5 179/7/5
f 181/5/6 182/5/6 184/5/6
f 182/6/6 183/6/6 185/6/6
f 184/5/6 182/5/6 185/5/6
f 185/6/6 183/6/6 186/6/6
f 187/6/6 188/6/6 190/6/6
f 188/7/6 189/7/6 191/7/6
f 190/6/6 188/6/6 191/6/6
f 191/7/6 189/7/6 192/7/6
f 193/4/6 194/4/6 200/4/6
f 194/3/6 195/3/6 201/3/6
f 200/4/6 194/4/6 201/4/6
f 197/4/6 198/4/6 202/4/6
f 196/3/6 197/3/6 202/3/6
f 202/4/6 198/4/6 203/4/6
f 201/3/6 195/3/6 205/3/6
f 199/3/6 200/3/6 205/3/6
f 200/3/6 201/3/6 205/3/6
f 203/3/6 204/3/6 206/3/6
f 202/3/6 203/3/6 206/3/6
f 196/3/6 202/3/6 206/3/6
f 199/3/6 205/3/6 207/3/6
f 205/2/6 206/2/6 207/2/6
f 206/3/6 204/3/6 208/3/6
f 207/2/6 206/2/6 208/2/6
f 199/3/6 207/3/6 209/3/6
f 207/3/6 208/3/6 209/3/6
f 208/3/6 204/3/6 210/3/6
f 209/3/6 208/3/6 210/3/6
