# MagicaVoxel @ Ephtracy

# group
o 

# material
mtllib model-0.mtl
usemtl palette

# normals
vn 0 0 1
vn 0 0 -1
vn 1 0 0
vn -1 0 0
vn 0 -1 0
vn 0 1 0

# texcoords
vt 0.0136719 0.5
vt 0.0175781 0.5
vt 0.0214844 0.5
vt 0.255859 0.5
vt 0.259766 0.5
vt 0.525391 0.5
vt 0.822266 0.5

# verts
v 0.5 0 1
v -0.5 0 1
v 0.5 0.1 1
v -0.5 0.1 1
v 0.5 0.7 1
v -0.5 0.7 1
v 0.6 0 0.5
v 0.5 0 0.5
v 0.5 0.1 0.5
v 0.6 0.7 0.5
v 0.5 0.7 0.5
v 0.5 0 0.2
v 0.4 0 0.2
v 0.5 0.1 0.2
v 0.4 0.1 0.2
v 0.4 0.3 0.2
v 0.5 0.4 0.2
v 0.4 0.4 0.2
v 0.5 0.1 -0.1
v 0.4 0.1 -0.1
v 0.5 0.2 -0.1
v 0.4 0.2 -0.1
v 0.5 0.3 -0.1
v 0.4 0.3 -0.1
v 0.6 0 -0.4
v 0.4 0 -0.4
v 0.5 0.1 -0.4
v 0.4 0.1 -0.4
v 0.4 0.3 -0.4
v 0.6 0.7 -0.4
v 0.5 0.7 -0.4
v 0.4 0.7 -0.4
v 0.4 0 -0.9
v -0.4 0 -0.9
v 0.4 0.1 -0.9
v -0.4 0.1 -0.9
v 0.4 0 0.9
v -0.4 0 0.9
v 0.4 0.1 0.9
v -0.4 0.1 0.9
v 0.6 0 0.4
v 0.4 0 0.4
v 0.5 0.1 0.4
v 0.4 0.1 0.4
v 0.4 0.3 0.4
v 0.6 0.7 0.4
v 0.5 0.7 0.4
v 0.4 0.7 0.4
v 0.5 0.1 0.1
v 0.4 0.1 0.1
v 0.5 0.3 0.1
v 0.4 0.3 0.1
v 0.5 0 -0.2
v 0.4 0 -0.2
v 0.4 0.1 -0.2
v 0.5 0.2 -0.2
v 0.4 0.2 -0.2
v 0.4 0.3 -0.2
v 0.5 0.4 -0.2
v 0.4 0.4 -0.2
v 0.6 0 -0.5
v 0.5 0 -0.5
v 0.5 0.1 -0.5
v 0.6 0.7 -0.5
v 0.5 0.7 -0.5
v 0.5 0 -1
v -0.5 0 -1
v 0.5 0.1 -1
v -0.5 0.1 -1
v 0.5 0.7 -1
v -0.5 0.7 -1
v 0.6 0 0.5
v 0.6 0.7 0.5
v 0.6 0 0.4
v 0.6 0.7 0.4
v 0.6 0 -0.4
v 0.6 0.7 -0.4
v 0.6 0 -0.5
v 0.6 0.7 -0.5
v 0.5 0 1
v 0.5 0.1 1
v 0.5 0.7 1
v 0.5 0.4 0.9
v 0.5 0.5 0.9
v 0.5 0.4 0.6
v 0.5 0.5 0.6
v 0.5 0 0.5
v 0.5 0.1 0.5
v 0.5 0.7 0.5
v 0.5 0 0.2
v 0.5 0.1 0.2
v 0.5 0.4 0.2
v 0.5 0.1 0.1
v 0.5 0.3 0.1
v 0.5 0 0
v 0.5 0.1 0
v 0.5 0.3 0
v 0.5 0.4 0
v 0.5 0.1 -0.1
v 0.5 0.2 -0.1
v 0.5 0.3 -0.1
v 0.5 0 -0.2
v 0.5 0.2 -0.2
v 0.5 0.4 -0.2
v 0.5 0 -0.5
v 0.5 0.1 -0.5
v 0.5 0.7 -0.5
v 0.5 0.4 -0.6
v 0.5 0.5 -0.6
v 0.5 0.4 -0.9
v 0.5 0.5 -0.9
v 0.5 0 -1
v 0.5 0.1 -1
v 0.5 0.7 -1
v 0.4 0.1 0.4
v 0.4 0.3 0.4
v 0.4 0.7 0.4
v 0.4 0.1 0.2
v 0.4 0.3 0.2
v 0.4 0.4 0.2
v 0.4 0.1 0.1
v 0.4 0.3 0.1
v 0.4 0.1 0
v 0.4 0.3 0
v 0.4 0.4 0
v 0.4 0.1 -0.1
v 0.4 0.2 -0.1
v 0.4 0.3 -0.1
v 0.4 0.1 -0.2
v 0.4 0.2 -0.2
v 0.4 0.3 -0.2
v 0.4 0.4 -0.2
v 0.4 0.1 -0.4
v 0.4 0.3 -0.4
v 0.4 0.7 -0.4
v -0.4 0 0.9
v -0.4 0.1 0.9
v -0.4 0 -0.9
v -0.4 0.1 -0.9
v 0.4 0 0.9
v 0.4 0.1 0.9
v 0.4 0 0.4
v 0.4 0.1 0.4
v 0.4 0 0.2
v 0.4 0.1 0.2
v 0.4 0 0
v 0.4 0.1 0
v 0.4 0 -0.2
v 0.4 0.1 -0.2
v 0.4 0 -0.4
v 0.4 0.1 -0.4
v 0.4 0 -0.9
v 0.4 0.1 -0.9
v -0.5 0 1
v -0.5 0.1 1
v -0.5 0.7 1
v -0.5 0 -1
v -0.5 0.1 -1
v -0.5 0.7 -1
v 0.6 0 0.5
v 0.6 0 0.4
v 0.6 0 -0.4
v 0.6 0 -0.5
v 0.5 0 1
v 0.5 0 0.5
v 0.5 0 0.2
v 0.5 0 0
v 0.5 0 -0.2
v 0.5 0 -0.5
v 0.5 0 -1
v 0.4 0 0.9
v 0.4 0 0.4
v 0.4 0 0.2
v 0.4 0 0
v 0.4 0 -0.2
v 0.4 0 -0.4
v 0.4 0 -0.9
v -0.4 0 0.9
v -0.4 0 -0.9
v -0.5 0 1
v -0.5 0 -1
v 0.4 0.1 0.9
v 0.4 0.1 0.4
v 0.4 0.1 0.2
v 0.4 0.1 0
v 0.4 0.1 -0.2
v 0.4 0.1 -0.4
v 0.4 0.1 -0.9
v -0.4 0.1 0.9
v -0.4 0.1 -0.9
v 0.5 0.3 0.1
v 0.5 0.3 0
v 0.5 0.3 -0.1
v 0.4 0.3 0.1
v 0.4 0.3 0
v 0.4 0.3 -0.1
v 0.5 0.1 0.1
v 0.5 0.1 0
v 0.5 0.1 -0.1
v 0.4 0.1 0.1
v 0.4 0.1 0
v 0.4 0.1 -0.1
v 0.5 0.4 0.2
v 0.5 0.4 0
v 0.5 0.4 -0.2
v 0.4 0.4 0.2
v 0.4 0.4 0
v 0.4 0.4 -0.2
v 0.6 0.7 0.5
v 0.6 0.7 0.4
v 0.6 0.7 -0.4
v 0.6 0.7 -0.5
v 0.5 0.7 1
v 0.5 0.7 0.5
v 0.5 0.7 0.4
v 0.5 0.7 -0.4
v 0.5 0.7 -0.5
v 0.5 0.7 -1
v 0.4 0.7 0.4
v 0.4 0.7 -0.4
v 0.3 0.7 0.4
v 0.3 0.7 -0.4
v -0.5 0.7 1
v -0.5 0.7 -1

# faces
f 3/6/1 2/6/1 1/6/1
f 4/6/1 2/6/1 3/6/1
f 5/5/1 4/5/1 3/5/1
f 6/5/1 4/5/1 5/5/1
f 9/6/1 8/6/1 7/6/1
f 10/6/1 9/6/1 7/6/1
f 11/6/1 9/6/1 10/6/1
f 14/1/1 13/1/1 12/1/1
f 15/1/1 13/1/1 14/1/1
f 16/2/1 15/2/1 14/2/1
f 17/2/1 16/2/1 14/2/1
f 18/2/1 16/2/1 17/2/1
f 21/2/1 20/2/1 19/2/1
f 22/2/1 20/2/1 21/2/1
f 23/3/1 22/3/1 21/3/1
f 24/3/1 22/3/1 23/3/1
f 27/6/1 26/6/1 25/6/1
f 28/6/1 26/6/1 27/6/1
f 29/5/1 28/5/1 27/5/1
f 30/6/1 27/6/1 25/6/1
f 31/5/1 29/5/1 27/5/1
f 31/6/1 27/6/1 30/6/1
f 32/5/1 29/5/1 31/5/1
f 35/6/1 34/6/1 33/6/1
f 36/6/1 34/6/1 35/6/1
f 37/6/2 38/6/2 39/6/2
f 39/6/2 38/6/2 40/6/2
f 41/6/2 42/6/2 43/6/2
f 43/6/2 42/6/2 44/6/2
f 43/5/2 44/5/2 45/5/2
f 41/6/2 43/6/2 46/6/2
f 43/5/2 45/5/2 47/5/2
f 46/6/2 43/6/2 47/6/2
f 47/5/2 45/5/2 48/5/2
f 49/2/2 50/2/2 51/2/2
f 51/2/2 50/2/2 52/2/2
f 53/2/2 54/2/2 55/2/2
f 53/2/2 55/2/2 56/2/2
f 56/2/2 55/2/2 57/2/2
f 56/3/2 57/3/2 58/3/2
f 56/3/2 58/3/2 59/3/2
f 59/3/2 58/3/2 60/3/2
f 61/6/2 62/6/2 63/6/2
f 61/6/2 63/6/2 64/6/2
f 64/6/2 63/6/2 65/6/2
f 66/6/2 67/6/2 68/6/2
f 68/6/2 67/6/2 69/6/2
f 68/5/2 69/5/2 70/5/2
f 70/5/2 69/5/2 71/5/2
f 74/6/3 73/6/3 72/6/3
f 75/6/3 73/6/3 74/6/3
f 78/6/3 77/6/3 76/6/3
f 79/6/3 77/6/3 78/6/3
f 83/5/3 82/5/3 81/5/3
f 84/5/3 82/5/3 83/5/3
f 85/5/3 83/5/3 81/5/3
f 85/4/3 84/4/3 83/4/3
f 86/5/3 82/5/3 84/5/3
f 86/4/3 84/4/3 85/4/3
f 87/6/3 81/6/3 80/6/3
f 88/5/3 85/5/3 81/5/3
f 88/6/3 81/6/3 87/6/3
f 88/5/3 86/5/3 85/5/3
f 89/5/3 82/5/3 86/5/3
f 89/5/3 86/5/3 88/5/3
f 93/1/3 91/1/3 90/1/3
f 93/2/3 92/2/3 91/2/3
f 94/2/3 92/2/3 93/2/3
f 95/1/3 93/1/3 90/1/3
f 96/1/3 93/1/3 95/1/3
f 97/2/3 92/2/3 94/2/3
f 98/2/3 92/2/3 97/2/3
f 99/2/3 96/2/3 95/2/3
f 101/3/3 98/3/3 97/3/3
f 102/2/3 100/2/3 99/2/3
f 102/2/3 99/2/3 95/2/3
f 103/3/3 101/3/3 100/3/3
f 103/2/3 100/2/3 102/2/3
f 104/3/3 98/3/3 101/3/3
f 104/3/3 101/3/3 103/3/3
f 108/5/3 107/5/3 106/5/3
f 109/5/3 107/5/3 108/5/3
f 110/5/3 108/5/3 106/5/3
f 110/4/3 109/4/3 108/4/3
f 111/5/3 107/5/3 109/5/3
f 111/4/3 109/4/3 110/4/3
f 112/6/3 106/6/3 105/6/3
f 113/5/3 110/5/3 106/5/3
f 113/6/3 106/6/3 112/6/3
f 113/5/3 111/5/3 110/5/3
f 114/5/3 107/5/3 111/5/3
f 114/5/3 111/5/3 113/5/3
f 118/7/3 116/7/3 115/7/3
f 119/4/3 117/4/3 116/4/3
f 119/7/3 116/7/3 118/7/3
f 120/4/3 117/4/3 119/4/3
f 123/7/3 122/7/3 121/7/3
f 124/7/3 122/7/3 123/7/3
f 125/4/3 117/4/3 120/4/3
f 126/7/3 124/7/3 123/7/3
f 127/7/3 124/7/3 126/7/3
f 128/7/3 124/7/3 127/7/3
f 132/4/3 117/4/3 125/4/3
f 133/7/3 131/7/3 130/7/3
f 133/7/3 130/7/3 129/7/3
f 134/4/3 132/4/3 131/4/3
f 134/7/3 131/7/3 133/7/3
f 135/4/3 117/4/3 132/4/3
f 135/4/3 132/4/3 134/4/3
f 138/6/3 137/6/3 136/6/3
f 139/6/3 137/6/3 138/6/3
f 140/6/4 141/6/4 142/6/4
f 142/6/4 141/6/4 143/6/4
f 144/1/4 145/1/4 146/1/4
f 146/1/4 145/1/4 147/1/4
f 146/2/4 147/2/4 148/2/4
f 148/2/4 147/2/4 149/2/4
f 150/6/4 151/6/4 152/6/4
f 152/6/4 151/6/4 153/6/4
f 154/6/4 155/6/4 157/6/4
f 155/5/4 156/5/4 158/5/4
f 157/6/4 155/6/4 158/6/4
f 158/5/4 156/5/4 159/5/4
f 165/6/5 161/6/5 160/6/5
f 169/6/5 163/6/5 162/6/5
f 171/6/5 165/6/5 164/6/5
f 172/6/5 161/6/5 165/6/5
f 172/6/5 165/6/5 171/6/5
f 173/1/5 167/1/5 166/1/5
f 174/2/5 168/2/5 167/2/5
f 174/1/5 167/1/5 173/1/5
f 175/2/5 168/2/5 174/2/5
f 176/6/5 170/6/5 169/6/5
f 176/6/5 169/6/5 162/6/5
f 177/6/5 170/6/5 176/6/5
f 178/6/5 171/6/5 164/6/5
f 179/6/5 170/6/5 177/6/5
f 180/6/5 178/6/5 164/6/5
f 180/6/5 179/6/5 178/6/5
f 181/6/5 170/6/5 179/6/5
f 181/6/5 179/6/5 180/6/5
f 189/7/5 183/7/5 182/7/5
f 189/7/5 188/7/5 187/7/5
f 189/7/5 187/7/5 186/7/5
f 189/7/5 186/7/5 185/7/5
f 189/7/5 185/7/5 184/7/5
f 189/7/5 184/7/5 183/7/5
f 190/7/5 188/7/5 189/7/5
f 194/2/5 192/2/5 191/2/5
f 195/3/5 193/3/5 192/3/5
f 195/2/5 192/2/5 194/2/5
f 196/3/5 193/3/5 195/3/5
f 197/1/6 198/1/6 200/1/6
f 198/2/6 199/2/6 201/2/6
f 200/1/6 198/1/6 201/1/6
f 201/2/6 199/2/6 202/2/6
f 203/2/6 204/2/6 206/2/6
f 204/3/6 205/3/6 207/3/6
f 206/2/6 204/2/6 207/2/6
f 207/3/6 205/3/6 208/3/6
f 209/6/6 210/6/6 214/6/6
f 214/6/6 210/6/6 215/6/6
f 211/6/6 212/6/6 216/6/6
f 216/6/6 212/6/6 217/6/6
f 214/5/6 215/5/6 219/5/6
f 213/5/6 214/5/6 219/5/6
f 217/5/6 218/5/6 220/5/6
f 216/5/6 217/5/6 220/5/6
f 213/5/6 219/5/6 221/5/6
f 219/4/6 220/4/6 221/4/6
f 220/5/6 218/5/6 222/5/6
f 221/4/6 220/4/6 222/4/6
f 213/5/6 221/5/6 223/5/6
f 221/5/6 222/5/6 223/5/6
f 222/5/6 218/5/6 224/5/6
f 223/5/6 222/5/6 224/5/6
