# MagicaVoxel @ Ephtracy

# group
o 

# material
mtllib model-4.mtl
usemtl palette

# normals
vn 0 0 1
vn 0 0 -1
vn 1 0 0
vn -1 0 0
vn 0 -1 0
vn 0 1 0

# texcoords
vt 0.0136719 0.5
vt 0.0175781 0.5
vt 0.0214844 0.5
vt 0.255859 0.5
vt 0.259766 0.5
vt 0.525391 0.5
vt 0.822266 0.5

# verts
v 0.5 1.8 1.4
v -0.5 1.8 1.4
v 0.5 2.1 1.4
v -0.5 2.1 1.4
v 0.5 0.6 1
v -0.5 0.6 1
v 0.5 1.8 1
v -0.5 1.8 1
v 0.8 2 1
v 0.5 2 1
v 0.5 2.1 1
v 0.4 2.1 1
v 0.3 2.1 1
v 0.2 2.1 1
v -0.2 2.1 1
v -0.3 2.1 1
v -0.4 2.1 1
v -0.5 2.1 1
v -0.7 2.1 1
v 0.8 2.2 1
v -0.7 2.2 1
v 0.8 1.3 0.6
v 0.7 1.3 0.6
v 0.5 1.3 0.6
v 0.7 1.5 0.6
v 0.5 1.5 0.6
v 0.7 1.6 0.6
v 0.5 1.6 0.6
v 0.7 1.7 0.6
v 0.5 1.7 0.6
v 0.7 1.8 0.6
v 0.5 1.8 0.6
v 0.7 1.9 0.6
v 0.5 1.9 0.6
v 0.7 2 0.6
v 0.5 2 0.6
v 0.8 2.1 0.6
v 0.7 2.1 0.6
v 0.5 2.1 0.6
v 0.6 0.6 0.5
v 0.5 0.6 0.5
v 0.6 1.3 0.5
v 0.5 1.3 0.5
v 0.5 0.6 0.2
v 0.4 0.6 0.2
v 0.5 0.7 0.2
v 0.4 0.7 0.2
v 0.4 0.9 0.2
v 0.5 1 0.2
v 0.4 1 0.2
v 0.5 1.2 0.2
v 0.4 1.2 0.2
v 0.4 1.3 0.2
v 0.5 1.4 0.2
v 0.4 1.4 0.2
v 0.4 1.5 0.2
v 0.5 1.6 0.2
v 0.4 1.6 0.2
v 0.5 0.7 -0.1
v 0.4 0.7 -0.1
v 0.5 0.8 -0.1
v 0.4 0.8 -0.1
v 0.5 0.9 -0.1
v 0.4 0.9 -0.1
v 0.5 1.3 -0.1
v 0.4 1.3 -0.1
v 0.5 1.4 -0.1
v 0.4 1.4 -0.1
v 0.5 1.5 -0.1
v 0.4 1.5 -0.1
v 0.6 0.6 -0.4
v 0.5 0.6 -0.4
v 0.4 0.6 -0.4
v 0.4 0.7 -0.4
v 0.4 0.9 -0.4
v 0.8 1.3 -0.4
v 0.6 1.3 -0.4
v 0.4 1.3 -0.4
v 0.8 1.4 -0.4
v 0.5 1.4 -0.4
v 0.4 1.4 -0.4
v 0.4 2 -0.4
v -0.4 2 -0.4
v 0.4 2.1 -0.4
v -0.4 2.1 -0.4
v 0.8 1.4 -0.5
v 0.7 1.4 -0.5
v 0.5 1.4 -0.5
v 0.4 1.4 -0.5
v 0.7 1.5 -0.5
v 0.5 1.5 -0.5
v 0.4 1.5 -0.5
v 0.7 1.6 -0.5
v 0.5 1.6 -0.5
v 0.7 1.7 -0.5
v 0.5 1.7 -0.5
v 0.7 1.8 -0.5
v 0.5 1.8 -0.5
v 0.7 1.9 -0.5
v 0.5 1.9 -0.5
v 0.7 2 -0.5
v 0.5 2 -0.5
v 0.7 2.1 -0.5
v 0.5 2.1 -0.5
v 0.4 2.1 -0.5
v -0.4 2.1 -0.5
v -0.5 2.1 -0.5
v 0.8 2.2 -0.5
v 0.5 2.2 -0.5
v -0.5 2.2 -0.5
v 0.8 2 -0.9
v 0.5 2 -0.9
v 0.8 2.1 -0.9
v 0.7 2.1 -0.9
v 0.5 2.1 -0.9
v 0.8 2 0.9
v 0.5 2 0.9
v 0.8 2.1 0.9
v 0.7 2.1 0.9
v 0.5 2.1 0.9
v 0.8 1.4 0.5
v 0.7 1.4 0.5
v 0.5 1.4 0.5
v 0.4 1.4 0.5
v 0.7 1.5 0.5
v 0.5 1.5 0.5
v 0.4 1.5 0.5
v 0.7 1.6 0.5
v 0.5 1.6 0.5
v 0.7 1.7 0.5
v 0.5 1.7 0.5
v 0.7 1.8 0.5
v 0.5 1.8 0.5
v 0.7 1.9 0.5
v 0.5 1.9 0.5
v 0.7 2 0.5
v 0.5 2 0.5
v 0.7 2.1 0.5
v 0.5 2.1 0.5
v 0.4 2.1 0.5
v -0.4 2.1 0.5
v -0.5 2.1 0.5
v 0.8 2.2 0.5
v 0.5 2.2 0.5
v -0.5 2.2 0.5
v 0.6 0.6 0.4
v 0.5 0.6 0.4
v 0.4 0.6 0.4
v 0.4 0.7 0.4
v 0.4 0.9 0.4
v 0.8 1.3 0.4
v 0.6 1.3 0.4
v 0.4 1.3 0.4
v 0.8 1.4 0.4
v 0.5 1.4 0.4
v 0.4 1.4 0.4
v 0.4 2 0.4
v -0.4 2 0.4
v 0.4 2.1 0.4
v -0.4 2.1 0.4
v 0.5 0.7 0.1
v 0.4 0.7 0.1
v 0.5 0.9 0.1
v 0.4 0.9 0.1
v 0.5 1.3 0.1
v 0.4 1.3 0.1
v 0.5 1.4 0.1
v 0.4 1.4 0.1
v 0.5 1.5 0.1
v 0.4 1.5 0.1
v 0.5 0.6 -0.2
v 0.4 0.6 -0.2
v 0.4 0.7 -0.2
v 0.5 0.8 -0.2
v 0.4 0.8 -0.2
v 0.4 0.9 -0.2
v 0.5 1 -0.2
v 0.4 1 -0.2
v 0.5 1.2 -0.2
v 0.4 1.2 -0.2
v 0.4 1.3 -0.2
v 0.5 1.4 -0.2
v 0.4 1.4 -0.2
v 0.4 1.5 -0.2
v 0.5 1.6 -0.2
v 0.4 1.6 -0.2
v 0.6 0.6 -0.5
v 0.5 0.6 -0.5
v 0.6 1.3 -0.5
v 0.5 1.3 -0.5
v 0.8 1.3 -0.6
v 0.7 1.3 -0.6
v 0.5 1.3 -0.6
v 0.7 1.5 -0.6
v 0.5 1.5 -0.6
v 0.7 1.6 -0.6
v 0.5 1.6 -0.6
v 0.7 1.7 -0.6
v 0.5 1.7 -0.6
v 0.7 1.8 -0.6
v 0.5 1.8 -0.6
v 0.7 1.9 -0.6
v 0.5 1.9 -0.6
v 0.7 2 -0.6
v 0.5 2 -0.6
v 0.8 2.1 -0.6
v 0.7 2.1 -0.6
v 0.5 2.1 -0.6
v 0.5 0.6 -1
v -0.5 0.6 -1
v 0.5 1.8 -1
v -0.5 1.8 -1
v 0.8 2 -1
v 0.5 2 -1
v 0.5 2.1 -1
v 0.4 2.1 -1
v 0.3 2.1 -1
v 0.2 2.1 -1
v -0.2 2.1 -1
v -0.3 2.1 -1
v -0.4 2.1 -1
v -0.5 2.1 -1
v -0.7 2.1 -1
v 0.8 2.2 -1
v -0.7 2.2 -1
v 0.5 1.8 -1.4
v -0.5 1.8 -1.4
v 0.5 2.1 -1.4
v -0.5 2.1 -1.4
v 0.8 2 1
v 0.8 2.2 1
v 0.8 2 0.9
v 0.8 2.1 0.9
v 0.8 1.3 0.6
v 0.8 2.1 0.6
v 0.8 1.4 0.5
v 0.8 2.2 0.5
v 0.8 1.3 0.4
v 0.8 1.4 0.4
v 0.8 1.3 -0.4
v 0.8 1.4 -0.4
v 0.8 1.4 -0.5
v 0.8 2.2 -0.5
v 0.8 1.3 -0.6
v 0.8 2.1 -0.6
v 0.8 2 -0.9
v 0.8 2.1 -0.9
v 0.8 2 -1
v 0.8 2.2 -1
v 0.6 0.6 0.5
v 0.6 1.3 0.5
v 0.6 0.6 0.4
v 0.6 1.3 0.4
v 0.6 0.6 -0.4
v 0.6 1.3 -0.4
v 0.6 0.6 -0.5
v 0.6 1.3 -0.5
v 0.5 1.8 1.4
v 0.5 2.1 1.4
v 0.5 0.6 1
v 0.5 1.8 1
v 0.5 1.9 1
v 0.5 2 1
v 0.5 2.1 1
v 0.5 0.7 0.9
v 0.5 0.8 0.9
v 0.5 1 0.9
v 0.5 1.1 0.9
v 0.5 1.3 0.9
v 0.5 1.4 0.9
v 0.5 1.6 0.9
v 0.5 1.7 0.9
v 0.5 1.9 0.9
v 0.5 2 0.9
v 0.5 2.1 0.9
v 0.5 1.3 0.7
v 0.5 1.4 0.7
v 0.5 1.6 0.7
v 0.5 1.7 0.7
v 0.5 2 0.7
v 0.5 2.1 0.7
v 0.5 0.7 0.6
v 0.5 0.8 0.6
v 0.5 1 0.6
v 0.5 1.1 0.6
v 0.5 1.3 0.6
v 0.5 1.5 0.6
v 0.5 1.6 0.6
v 0.5 1.7 0.6
v 0.5 1.8 0.6
v 0.5 1.9 0.6
v 0.5 2 0.6
v 0.5 2.1 0.6
v 0.5 0.6 0.5
v 0.5 1.3 0.5
v 0.5 0.6 0.2
v 0.5 0.7 0.2
v 0.5 1 0.2
v 0.5 1.2 0.2
v 0.5 1.4 0.2
v 0.5 1.6 0.2
v 0.5 0.7 0.1
v 0.5 0.9 0.1
v 0.5 1.3 0.1
v 0.5 1.4 0.1
v 0.5 1.5 0.1
v 0.5 0.6 0
v 0.5 0.7 0
v 0.5 0.9 0
v 0.5 1 0
v 0.5 1.2 0
v 0.5 1.3 0
v 0.5 1.5 0
v 0.5 1.6 0
v 0.5 0.7 -0.1
v 0.5 0.8 -0.1
v 0.5 0.9 -0.1
v 0.5 1.3 -0.1
v 0.5 1.4 -0.1
v 0.5 1.5 -0.1
v 0.5 0.6 -0.2
v 0.5 0.8 -0.2
v 0.5 1 -0.2
v 0.5 1.2 -0.2
v 0.5 1.4 -0.2
v 0.5 1.6 -0.2
v 0.5 0.6 -0.5
v 0.5 1.3 -0.5
v 0.5 0.7 -0.6
v 0.5 0.8 -0.6
v 0.5 1 -0.6
v 0.5 1.1 -0.6
v 0.5 1.3 -0.6
v 0.5 1.5 -0.6
v 0.5 1.6 -0.6
v 0.5 1.7 -0.6
v 0.5 1.8 -0.6
v 0.5 1.9 -0.6
v 0.5 2 -0.6
v 0.5 2.1 -0.6
v 0.5 1.3 -0.7
v 0.5 1.4 -0.7
v 0.5 1.6 -0.7
v 0.5 1.7 -0.7
v 0.5 2 -0.7
v 0.5 2.1 -0.7
v 0.5 0.7 -0.9
v 0.5 0.8 -0.9
v 0.5 1 -0.9
v 0.5 1.1 -0.9
v 0.5 1.3 -0.9
v 0.5 1.4 -0.9
v 0.5 1.6 -0.9
v 0.5 1.7 -0.9
v 0.5 1.9 -0.9
v 0.5 2 -0.9
v 0.5 2.1 -0.9
v 0.5 0.6 -1
v 0.5 1.8 -1
v 0.5 1.9 -1
v 0.5 2 -1
v 0.5 2.1 -1
v 0.5 1.8 -1.4
v 0.5 2.1 -1.4
v 0.4 1.4 0.5
v 0.4 1.5 0.5
v 0.4 2.1 0.5
v 0.4 0.6 0.4
v 0.4 0.7 0.4
v 0.4 0.9 0.4
v 0.4 1.3 0.4
v 0.4 1.4 0.4
v 0.4 2 0.4
v 0.4 2.1 0.4
v 0.4 0.6 0.2
v 0.4 0.7 0.2
v 0.4 0.9 0.2
v 0.4 1 0.2
v 0.4 1.2 0.2
v 0.4 1.3 0.2
v 0.4 1.4 0.2
v 0.4 1.5 0.2
v 0.4 1.6 0.2
v 0.4 0.7 0.1
v 0.4 0.9 0.1
v 0.4 1.3 0.1
v 0.4 1.4 0.1
v 0.4 1.5 0.1
v 0.4 0.7 0
v 0.4 0.9 0
v 0.4 1 0
v 0.4 1.2 0
v 0.4 1.3 0
v 0.4 1.5 0
v 0.4 1.6 0
v 0.4 0.7 -0.1
v 0.4 0.8 -0.1
v 0.4 0.9 -0.1
v 0.4 1.3 -0.1
v 0.4 1.4 -0.1
v 0.4 1.5 -0.1
v 0.4 0.6 -0.2
v 0.4 0.7 -0.2
v 0.4 0.8 -0.2
v 0.4 0.9 -0.2
v 0.4 1 -0.2
v 0.4 1.2 -0.2
v 0.4 1.3 -0.2
v 0.4 1.4 -0.2
v 0.4 1.5 -0.2
v 0.4 1.6 -0.2
v 0.4 0.6 -0.4
v 0.4 0.7 -0.4
v 0.4 0.9 -0.4
v 0.4 1.3 -0.4
v 0.4 1.4 -0.4
v 0.4 2 -0.4
v 0.4 2.1 -0.4
v 0.4 1.4 -0.5
v 0.4 1.5 -0.5
v 0.4 2.1 -0.5
v -0.4 2 0.4
v -0.4 2.1 0.4
v -0.4 2 -0.4
v -0.4 2.1 -0.4
v -0.5 2.1 0.5
v -0.5 2.2 0.5
v -0.5 2.1 -0.5
v -0.5 2.2 -0.5
v -0.5 1.8 1.4
v -0.5 2.1 1.4
v -0.5 0.6 1
v -0.5 1.8 1
v -0.5 1.9 1
v -0.5 2.1 1
v -0.5 1.9 0.9
v -0.5 2 0.9
v -0.5 2.1 0.9
v -0.5 2 0.7
v -0.5 2.1 0.7
v -0.5 2 -0.7
v -0.5 2.1 -0.7
v -0.5 1.9 -0.9
v -0.5 2 -0.9
v -0.5 2.1 -0.9
v -0.5 0.6 -1
v -0.5 1.8 -1
v -0.5 1.9 -1
v -0.5 2.1 -1
v -0.5 1.8 -1.4
v -0.5 2.1 -1.4
v -0.7 2.1 1
v -0.7 2.2 1
v -0.7 2.1 -1
v -0.7 2.2 -1
v 0.6 0.6 0.5
v 0.6 0.6 0.4
v 0.6 0.6 -0.4
v 0.6 0.6 -0.5
v 0.5 0.6 1
v 0.5 0.6 0.5
v 0.5 0.6 0.4
v 0.5 0.6 0.2
v 0.5 0.6 0
v 0.5 0.6 -0.2
v 0.5 0.6 -0.4
v 0.5 0.6 -0.5
v 0.5 0.6 -1
v 0.4 0.6 0.4
v 0.4 0.6 0.2
v 0.4 0.6 0
v 0.4 0.6 -0.2
v 0.4 0.6 -0.4
v 0.3 0.6 0.4
v 0.3 0.6 -0.4
v -0.5 0.6 1
v -0.5 0.6 -1
v 0.5 0.9 0.1
v 0.5 0.9 0
v 0.5 0.9 -0.1
v 0.4 0.9 0.1
v 0.4 0.9 0
v 0.4 0.9 -0.1
v 0.5 1.2 0.2
v 0.5 1.2 0
v 0.5 1.2 -0.2
v 0.4 1.2 0.2
v 0.4 1.2 0
v 0.4 1.2 -0.2
v 0.8 1.3 0.6
v 0.8 1.3 0.4
v 0.8 1.3 -0.4
v 0.8 1.3 -0.6
v 0.7 1.3 0.6
v 0.7 1.3 0.5
v 0.7 1.3 -0.5
v 0.7 1.3 -0.6
v 0.6 1.3 0.5
v 0.6 1.3 0.4
v 0.6 1.3 -0.4
v 0.6 1.3 -0.5
v 0.5 1.3 0.6
v 0.5 1.3 0.5
v 0.5 1.3 -0.5
v 0.5 1.3 -0.6
v 0.5 1.5 0.1
v 0.5 1.5 0
v 0.5 1.5 -0.1
v 0.4 1.5 0.1
v 0.4 1.5 0
v 0.4 1.5 -0.1
v 0.5 1.8 1.4
v 0.5 1.8 1
v 0.5 1.8 -1
v 0.5 1.8 -1.4
v -0.5 1.8 1.4
v -0.5 1.8 1
v -0.5 1.8 -1
v -0.5 1.8 -1.4
v 0.8 2 1
v 0.8 2 0.9
v 0.8 2 -0.9
v 0.8 2 -1
v 0.5 2 1
v 0.5 2 0.9
v 0.5 2 -0.9
v 0.5 2 -1
v 0.8 2.1 0.9
v 0.8 2.1 0.6
v 0.8 2.1 -0.6
v 0.8 2.1 -0.9
v 0.7 2.1 0.9
v 0.7 2.1 0.6
v 0.7 2.1 -0.6
v 0.7 2.1 -0.9
v 0.5 2.1 0.9
v 0.5 2.1 0.7
v 0.5 2.1 0.6
v 0.5 2.1 -0.6
v 0.5 2.1 -0.7
v 0.5 2.1 -0.9
v -0.5 2.1 1
v -0.5 2.1 0.9
v -0.5 2.1 0.7
v -0.5 2.1 -0.7
v -0.5 2.1 -0.9
v -0.5 2.1 -1
v -0.6 2.1 0.9
v -0.6 2.1 -0.9
v -0.7 2.1 1
v -0.7 2.1 -1
v 0.5 0.7 0.1
v 0.5 0.7 0
v 0.5 0.7 -0.1
v 0.4 0.7 0.1
v 0.4 0.7 0
v 0.4 0.7 -0.1
v 0.5 1 0.2
v 0.5 1 0
v 0.5 1 -0.2
v 0.4 1 0.2
v 0.4 1 0
v 0.4 1 -0.2
v 0.5 1.3 0.1
v 0.5 1.3 0
v 0.5 1.3 -0.1
v 0.4 1.3 0.1
v 0.4 1.3 0
v 0.4 1.3 -0.1
v 0.8 1.4 0.5
v 0.8 1.4 0.4
v 0.8 1.4 -0.4
v 0.8 1.4 -0.5
v 0.7 1.4 0.5
v 0.7 1.4 -0.5
v 0.5 1.4 0.5
v 0.5 1.4 0.4
v 0.5 1.4 -0.4
v 0.5 1.4 -0.5
v 0.4 1.4 0.5
v 0.4 1.4 0.4
v 0.4 1.4 -0.4
v 0.4 1.4 -0.5
v 0.5 1.6 0.2
v 0.5 1.6 0
v 0.5 1.6 -0.2
v 0.4 1.6 0.2
v 0.4 1.6 0
v 0.4 1.6 -0.2
v 0.4 2 0.4
v 0.4 2 -0.4
v -0.4 2 0.4
v -0.4 2 -0.4
v 0.5 2.1 1.4
v 0.5 2.1 1
v 0.5 2.1 -1
v 0.5 2.1 -1.4
v 0.4 2.1 1.3
v 0.4 2.1 1
v 0.4 2.1 0.5
v 0.4 2.1 0.4
v 0.4 2.1 -0.4
v 0.4 2.1 -0.5
v 0.4 2.1 -1
v 0.4 2.1 -1.3
v 0.3 2.1 1.2
v 0.3 2.1 1
v 0.3 2.1 -1
v 0.3 2.1 -1.2
v 0.2 2.1 1.2
v 0.2 2.1 1
v 0.2 2.1 -1
v 0.2 2.1 -1.2
v 0.1 2.1 1.3
v 0.1 2.1 1.1
v 0.1 2.1 -1.1
v 0.1 2.1 -1.3
v -0.1 2.1 1.3
v -0.1 2.1 1.1
v -0.1 2.1 -1.1
v -0.1 2.1 -1.3
v -0.2 2.1 1.2
v -0.2 2.1 1
v -0.2 2.1 -1
v -0.2 2.1 -1.2
v -0.3 2.1 1.2
v -0.3 2.1 1
v -0.3 2.1 -1
v -0.3 2.1 -1.2
v -0.4 2.1 1.3
v -0.4 2.1 1
v -0.4 2.1 0.5
v -0.4 2.1 0.4
v -0.4 2.1 -0.4
v -0.4 2.1 -0.5
v -0.4 2.1 -1
v -0.4 2.1 -1.3
v -0.5 2.1 1.4
v -0.5 2.1 1
v -0.5 2.1 0.5
v -0.5 2.1 -0.5
v -0.5 2.1 -1
v -0.5 2.1 -1.4
v 0.8 2.2 1
v 0.8 2.2 0.5
v 0.8 2.2 -0.5
v 0.8 2.2 -1
v 0.7 2.2 0.9
v 0.7 2.2 0.6
v 0.7 2.2 -0.6
v 0.7 2.2 -0.9
v 0.5 2.2 0.6
v 0.5 2.2 0.5
v 0.5 2.2 -0.5
v 0.5 2.2 -0.6
v -0.5 2.2 0.5
v -0.5 2.2 -0.5
v -0.6 2.2 0.9
v -0.6 2.2 -0.9
v -0.7 2.2 1
v -0.7 2.2 -1

# faces
f 3/2/1 2/2/1 1/2/1
f 4/2/1 2/2/1 3/2/1
f 7/5/1 6/5/1 5/5/1
f 8/5/1 6/5/1 7/5/1
f 11/6/1 10/6/1 9/6/1
f 20/6/1 18/6/1 17/6/1
f 20/6/1 19/6/1 18/6/1
f 20/6/1 17/6/1 16/6/1
f 20/6/1 16/6/1 15/6/1
f 20/6/1 15/6/1 14/6/1
f 20/6/1 14/6/1 13/6/1
f 20/6/1 13/6/1 12/6/1
f 20/6/1 12/6/1 11/6/1
f 20/6/1 11/6/1 9/6/1
f 21/6/1 19/6/1 20/6/1
f 25/6/1 23/6/1 22/6/1
f 25/5/1 24/5/1 23/5/1
f 26/5/1 24/5/1 25/5/1
f 27/6/1 25/6/1 22/6/1
f 27/6/1 26/6/1 25/6/1
f 28/6/1 26/6/1 27/6/1
f 29/6/1 27/6/1 22/6/1
f 29/5/1 28/5/1 27/5/1
f 30/5/1 28/5/1 29/5/1
f 31/6/1 29/6/1 22/6/1
f 31/6/1 30/6/1 29/6/1
f 32/6/1 30/6/1 31/6/1
f 33/6/1 31/6/1 22/6/1
f 33/5/1 32/5/1 31/5/1
f 34/5/1 32/5/1 33/5/1
f 35/6/1 33/6/1 22/6/1
f 35/6/1 34/6/1 33/6/1
f 36/6/1 34/6/1 35/6/1
f 37/6/1 35/6/1 22/6/1
f 38/5/1 36/5/1 35/5/1
f 38/6/1 35/6/1 37/6/1
f 39/5/1 36/5/1 38/5/1
f 42/6/1 41/6/1 40/6/1
f 43/6/1 41/6/1 42/6/1
f 46/1/1 45/1/1 44/1/1
f 47/1/1 45/1/1 46/1/1
f 48/2/1 47/2/1 46/2/1
f 49/2/1 48/2/1 46/2/1
f 50/2/1 48/2/1 49/2/1
f 53/1/1 52/1/1 51/1/1
f 54/1/1 53/1/1 51/1/1
f 55/1/1 53/1/1 54/1/1
f 56/2/1 55/2/1 54/2/1
f 57/2/1 56/2/1 54/2/1
f 58/2/1 56/2/1 57/2/1
f 61/2/1 60/2/1 59/2/1
f 62/2/1 60/2/1 61/2/1
f 63/3/1 62/3/1 61/3/1
f 64/3/1 62/3/1 63/3/1
f 67/2/1 66/2/1 65/2/1
f 68/2/1 66/2/1 67/2/1
f 69/3/1 68/3/1 67/3/1
f 70/3/1 68/3/1 69/3/1
f 74/5/1 73/5/1 72/5/1
f 75/5/1 74/5/1 72/5/1
f 77/6/1 72/6/1 71/6/1
f 78/5/1 75/5/1 72/5/1
f 79/6/1 77/6/1 76/6/1
f 80/6/1 72/6/1 77/6/1
f 80/6/1 77/6/1 79/6/1
f 80/5/1 78/5/1 72/5/1
f 81/5/1 78/5/1 80/5/1
f 84/4/1 83/4/1 82/4/1
f 85/4/1 83/4/1 84/4/1
f 90/6/1 87/6/1 86/6/1
f 90/5/1 89/5/1 88/5/1
f 90/5/1 88/5/1 87/5/1
f 91/5/1 89/5/1 90/5/1
f 92/5/1 89/5/1 91/5/1
f 93/6/1 90/6/1 86/6/1
f 93/6/1 91/6/1 90/6/1
f 94/5/1 92/5/1 91/5/1
f 94/6/1 91/6/1 93/6/1
f 95/6/1 93/6/1 86/6/1
f 95/5/1 94/5/1 93/5/1
f 96/5/1 92/5/1 94/5/1
f 96/5/1 94/5/1 95/5/1
f 97/6/1 95/6/1 86/6/1
f 97/6/1 96/6/1 95/6/1
f 98/5/1 92/5/1 96/5/1
f 98/6/1 96/6/1 97/6/1
f 99/6/1 97/6/1 86/6/1
f 99/5/1 98/5/1 97/5/1
f 100/5/1 92/5/1 98/5/1
f 100/5/1 98/5/1 99/5/1
f 101/6/1 99/6/1 86/6/1
f 101/6/1 100/6/1 99/6/1
f 102/5/1 92/5/1 100/5/1
f 102/6/1 100/6/1 101/6/1
f 103/6/1 101/6/1 86/6/1
f 103/5/1 102/5/1 101/5/1
f 104/5/1 92/5/1 102/5/1
f 104/5/1 102/5/1 103/5/1
f 105/5/1 92/5/1 104/5/1
f 108/6/1 103/6/1 86/6/1
f 108/6/1 104/6/1 103/6/1
f 109/5/1 105/5/1 104/5/1
f 109/6/1 104/6/1 108/6/1
f 109/5/1 107/5/1 106/5/1
f 109/5/1 106/5/1 105/5/1
f 110/5/1 107/5/1 109/5/1
f 113/6/1 112/6/1 111/6/1
f 114/6/1 112/6/1 113/6/1
f 115/6/1 112/6/1 114/6/1
f 116/6/2 117/6/2 118/6/2
f 118/6/2 117/6/2 119/6/2
f 119/6/2 117/6/2 120/6/2
f 121/6/2 122/6/2 125/6/2
f 123/5/2 124/5/2 125/5/2
f 122/5/2 123/5/2 125/5/2
f 125/5/2 124/5/2 126/5/2
f 126/5/2 124/5/2 127/5/2
f 121/6/2 125/6/2 128/6/2
f 125/6/2 126/6/2 128/6/2
f 126/5/2 127/5/2 129/5/2
f 128/6/2 126/6/2 129/6/2
f 121/6/2 128/6/2 130/6/2
f 128/5/2 129/5/2 130/5/2
f 129/5/2 127/5/2 131/5/2
f 130/5/2 129/5/2 131/5/2
f 121/6/2 130/6/2 132/6/2
f 130/6/2 131/6/2 132/6/2
f 131/5/2 127/5/2 133/5/2
f 132/6/2 131/6/2 133/6/2
f 121/6/2 132/6/2 134/6/2
f 132/5/2 133/5/2 134/5/2
f 133/5/2 127/5/2 135/5/2
f 134/5/2 133/5/2 135/5/2
f 121/6/2 134/6/2 136/6/2
f 134/6/2 135/6/2 136/6/2
f 135/5/2 127/5/2 137/5/2
f 136/6/2 135/6/2 137/6/2
f 121/6/2 136/6/2 138/6/2
f 136/5/2 137/5/2 138/5/2
f 137/5/2 127/5/2 139/5/2
f 138/5/2 137/5/2 139/5/2
f 139/5/2 127/5/2 140/5/2
f 121/6/2 138/6/2 143/6/2
f 138/6/2 139/6/2 143/6/2
f 139/5/2 140/5/2 144/5/2
f 143/6/2 139/6/2 144/6/2
f 141/5/2 142/5/2 144/5/2
f 140/5/2 141/5/2 144/5/2
f 144/5/2 142/5/2 145/5/2
f 147/5/2 148/5/2 149/5/2
f 147/5/2 149/5/2 150/5/2
f 146/6/2 147/6/2 152/6/2
f 147/5/2 150/5/2 153/5/2
f 151/6/2 152/6/2 154/6/2
f 152/6/2 147/6/2 155/6/2
f 154/6/2 152/6/2 155/6/2
f 147/5/2 153/5/2 155/5/2
f 155/5/2 153/5/2 156/5/2
f 157/4/2 158/4/2 159/4/2
f 159/4/2 158/4/2 160/4/2
f 161/2/2 162/2/2 163/2/2
f 163/2/2 162/2/2 164/2/2
f 165/1/2 166/1/2 167/1/2
f 167/1/2 166/1/2 168/1/2
f 167/2/2 168/2/2 169/2/2
f 169/2/2 168/2/2 170/2/2
f 171/2/2 172/2/2 173/2/2
f 171/2/2 173/2/2 174/2/2
f 174/2/2 173/2/2 175/2/2
f 174/3/2 175/3/2 176/3/2
f 174/3/2 176/3/2 177/3/2
f 177/3/2 176/3/2 178/3/2
f 179/2/2 180/2/2 181/2/2
f 179/2/2 181/2/2 182/2/2
f 182/2/2 181/2/2 183/2/2
f 182/3/2 183/3/2 184/3/2
f 182/3/2 184/3/2 185/3/2
f 185/3/2 184/3/2 186/3/2
f 187/6/2 188/6/2 189/6/2
f 189/6/2 188/6/2 190/6/2
f 191/6/2 192/6/2 194/6/2
f 192/5/2 193/5/2 194/5/2
f 194/5/2 193/5/2 195/5/2
f 191/6/2 194/6/2 196/6/2
f 194/6/2 195/6/2 196/6/2
f 196/6/2 195/6/2 197/6/2
f 191/6/2 196/6/2 198/6/2
f 196/5/2 197/5/2 198/5/2
f 198/5/2 197/5/2 199/5/2
f 191/6/2 198/6/2 200/6/2
f 198/6/2 199/6/2 200/6/2
f 200/6/2 199/6/2 201/6/2
f 191/6/2 200/6/2 202/6/2
f 200/5/2 201/5/2 202/5/2
f 202/5/2 201/5/2 203/5/2
f 191/6/2 202/6/2 204/6/2
f 202/6/2 203/6/2 204/6/2
f 204/6/2 203/6/2 205/6/2
f 191/6/2 204/6/2 206/6/2
f 204/5/2 205/5/2 207/5/2
f 206/6/2 204/6/2 207/6/2
f 207/5/2 205/5/2 208/5/2
f 209/5/2 210/5/2 211/5/2
f 211/5/2 210/5/2 212/5/2
f 213/6/2 214/6/2 215/6/2
f 221/6/2 222/6/2 224/6/2
f 222/6/2 223/6/2 224/6/2
f 220/6/2 221/6/2 224/6/2
f 219/6/2 220/6/2 224/6/2
f 218/6/2 219/6/2 224/6/2
f 217/6/2 218/6/2 224/6/2
f 216/6/2 217/6/2 224/6/2
f 215/6/2 216/6/2 224/6/2
f 213/6/2 215/6/2 224/6/2
f 224/6/2 223/6/2 225/6/2
f 226/2/2 227/2/2 228/2/2
f 228/2/2 227/2/2 229/2/2
f 232/6/3 231/6/3 230/6/3
f 233/6/3 231/6/3 232/6/3
f 235/6/3 231/6/3 233/6/3
f 236/6/3 235/6/3 234/6/3
f 237/6/3 231/6/3 235/6/3
f 237/6/3 235/6/3 236/6/3
f 238/6/3 236/6/3 234/6/3
f 239/6/3 236/6/3 238/6/3
f 242/6/3 241/6/3 240/6/3
f 244/6/3 242/6/3 240/6/3
f 244/6/3 243/6/3 242/6/3
f 245/6/3 243/6/3 244/6/3
f 247/6/3 243/6/3 245/6/3
f 248/6/3 247/6/3 246/6/3
f 249/6/3 243/6/3 247/6/3
f 249/6/3 247/6/3 248/6/3
f 252/6/3 251/6/3 250/6/3
f 253/6/3 251/6/3 252/6/3
f 256/6/3 255/6/3 254/6/3
f 257/6/3 255/6/3 256/6/3
f 261/2/3 259/2/3 258/2/3
f 262/2/3 259/2/3 261/2/3
f 263/2/3 259/2/3 262/2/3
f 264/2/3 259/2/3 263/2/3
f 265/5/3 261/5/3 260/5/3
f 265/5/3 262/5/3 261/5/3
f 266/5/3 262/5/3 265/5/3
f 267/5/3 262/5/3 266/5/3
f 268/5/3 262/5/3 267/5/3
f 269/5/3 262/5/3 268/5/3
f 270/5/3 262/5/3 269/5/3
f 271/5/3 262/5/3 270/5/3
f 272/5/3 262/5/3 271/5/3
f 273/2/3 263/2/3 262/2/3
f 273/5/3 262/5/3 272/5/3
f 274/2/3 263/2/3 273/2/3
f 276/5/3 269/5/3 268/5/3
f 276/4/3 270/4/3 269/4/3
f 277/5/3 271/5/3 270/5/3
f 277/4/3 270/4/3 276/4/3
f 278/4/3 272/4/3 271/4/3
f 278/5/3 271/5/3 277/5/3
f 279/5/3 274/5/3 273/5/3
f 279/4/3 272/4/3 278/4/3
f 279/5/3 273/5/3 272/5/3
f 280/2/3 275/2/3 274/2/3
f 280/5/3 274/5/3 279/5/3
f 281/2/3 275/2/3 280/2/3
f 282/5/3 265/5/3 260/5/3
f 282/4/3 266/4/3 265/4/3
f 283/5/3 267/5/3 266/5/3
f 283/4/3 266/4/3 282/4/3
f 284/4/3 268/4/3 267/4/3
f 284/5/3 267/5/3 283/5/3
f 285/5/3 277/5/3 276/5/3
f 285/4/3 268/4/3 284/4/3
f 285/5/3 281/5/3 280/5/3
f 285/5/3 280/5/3 279/5/3
f 285/5/3 276/5/3 268/5/3
f 285/5/3 278/5/3 277/5/3
f 285/5/3 279/5/3 278/5/3
f 286/5/3 281/5/3 285/5/3
f 287/5/3 281/5/3 286/5/3
f 288/5/3 281/5/3 287/5/3
f 289/5/3 281/5/3 288/5/3
f 290/5/3 281/5/3 289/5/3
f 291/5/3 281/5/3 290/5/3
f 292/5/3 281/5/3 291/5/3
f 293/5/3 281/5/3 292/5/3
f 294/5/3 284/5/3 283/5/3
f 294/5/3 283/5/3 282/5/3
f 294/5/3 286/5/3 285/5/3
f 294/5/3 285/5/3 284/5/3
f 294/5/3 282/5/3 260/5/3
f 295/5/3 286/5/3 294/5/3
f 302/2/3 298/2/3 297/2/3
f 302/1/3 297/1/3 296/1/3
f 303/2/3 298/2/3 302/2/3
f 304/1/3 300/1/3 299/1/3
f 305/2/3 301/2/3 300/2/3
f 305/1/3 300/1/3 304/1/3
f 306/2/3 301/2/3 305/2/3
f 307/1/3 302/1/3 296/1/3
f 308/1/3 302/1/3 307/1/3
f 309/2/3 298/2/3 303/2/3
f 310/2/3 298/2/3 309/2/3
f 311/1/3 304/1/3 299/1/3
f 312/1/3 304/1/3 311/1/3
f 313/2/3 301/2/3 306/2/3
f 314/2/3 301/2/3 313/2/3
f 315/2/3 308/2/3 307/2/3
f 317/3/3 310/3/3 309/3/3
f 318/2/3 312/2/3 311/2/3
f 320/3/3 314/3/3 313/3/3
f 321/2/3 316/2/3 315/2/3
f 321/2/3 315/2/3 307/2/3
f 322/3/3 317/3/3 316/3/3
f 322/2/3 316/2/3 321/2/3
f 323/3/3 310/3/3 317/3/3
f 323/3/3 317/3/3 322/3/3
f 324/2/3 319/2/3 318/2/3
f 324/2/3 318/2/3 311/2/3
f 325/3/3 320/3/3 319/3/3
f 325/2/3 319/2/3 324/2/3
f 326/3/3 314/3/3 320/3/3
f 326/3/3 320/3/3 325/3/3
f 329/5/3 328/5/3 327/5/3
f 330/5/3 328/5/3 329/5/3
f 331/5/3 328/5/3 330/5/3
f 332/5/3 328/5/3 331/5/3
f 333/5/3 328/5/3 332/5/3
f 341/5/3 335/5/3 334/5/3
f 341/5/3 340/5/3 339/5/3
f 341/5/3 339/5/3 338/5/3
f 341/5/3 338/5/3 337/5/3
f 341/5/3 337/5/3 336/5/3
f 341/5/3 336/5/3 335/5/3
f 341/5/3 333/5/3 332/5/3
f 341/5/3 334/5/3 333/5/3
f 342/5/3 340/5/3 341/5/3
f 343/5/3 340/5/3 342/5/3
f 344/5/3 340/5/3 343/5/3
f 345/5/3 340/5/3 344/5/3
f 346/5/3 340/5/3 345/5/3
f 347/5/3 329/5/3 327/5/3
f 347/4/3 330/4/3 329/4/3
f 348/5/3 331/5/3 330/5/3
f 348/4/3 330/4/3 347/4/3
f 349/4/3 332/4/3 331/4/3
f 349/5/3 331/5/3 348/5/3
f 350/5/3 341/5/3 332/5/3
f 350/4/3 332/4/3 349/4/3
f 351/4/3 342/4/3 341/4/3
f 351/5/3 341/5/3 350/5/3
f 352/5/3 343/5/3 342/5/3
f 352/4/3 342/4/3 351/4/3
f 353/4/3 344/4/3 343/4/3
f 353/5/3 343/5/3 352/5/3
f 354/5/3 345/5/3 344/5/3
f 354/4/3 344/4/3 353/4/3
f 355/5/3 345/5/3 354/5/3
f 356/2/3 346/2/3 345/2/3
f 356/5/3 345/5/3 355/5/3
f 357/2/3 346/2/3 356/2/3
f 358/5/3 348/5/3 347/5/3
f 358/5/3 347/5/3 327/5/3
f 358/5/3 355/5/3 354/5/3
f 358/5/3 354/5/3 353/5/3
f 358/5/3 353/5/3 352/5/3
f 358/5/3 352/5/3 351/5/3
f 358/5/3 351/5/3 350/5/3
f 358/5/3 350/5/3 349/5/3
f 358/5/3 349/5/3 348/5/3
f 359/5/3 355/5/3 358/5/3
f 360/2/3 356/2/3 355/2/3
f 360/5/3 355/5/3 359/5/3
f 361/2/3 356/2/3 360/2/3
f 363/2/3 362/2/3 361/2/3
f 363/2/3 361/2/3 360/2/3
f 363/2/3 360/2/3 359/2/3
f 364/2/3 362/2/3 363/2/3
f 372/7/3 366/7/3 365/7/3
f 373/4/3 367/4/3 366/4/3
f 374/4/3 367/4/3 373/4/3
f 375/4/3 369/4/3 368/4/3
f 376/7/3 370/7/3 369/7/3
f 376/4/3 369/4/3 375/4/3
f 377/4/3 371/4/3 370/4/3
f 377/7/3 370/7/3 376/7/3
f 378/4/3 371/4/3 377/4/3
f 379/4/3 371/4/3 378/4/3
f 380/7/3 372/7/3 371/7/3
f 380/4/3 371/4/3 379/4/3
f 381/7/3 366/7/3 372/7/3
f 381/7/3 372/7/3 380/7/3
f 382/4/3 373/4/3 366/4/3
f 382/7/3 366/7/3 381/7/3
f 383/4/3 373/4/3 382/4/3
f 389/7/3 385/7/3 384/7/3
f 390/7/3 385/7/3 389/7/3
f 391/4/3 379/4/3 378/4/3
f 392/4/3 379/4/3 391/4/3
f 393/7/3 388/7/3 387/7/3
f 393/7/3 387/7/3 386/7/3
f 394/7/3 388/7/3 393/7/3
f 395/4/3 373/4/3 383/4/3
f 396/7/3 390/7/3 389/7/3
f 397/7/3 390/7/3 396/7/3
f 398/7/3 390/7/3 397/7/3
f 399/7/3 394/7/3 393/7/3
f 400/7/3 394/7/3 399/7/3
f 401/7/3 394/7/3 400/7/3
f 406/4/3 392/4/3 391/4/3
f 407/4/3 392/4/3 406/4/3
f 411/4/3 373/4/3 395/4/3
f 412/4/3 403/4/3 402/4/3
f 413/7/3 405/7/3 404/7/3
f 413/4/3 403/4/3 412/4/3
f 413/7/3 404/7/3 403/7/3
f 414/4/3 406/4/3 405/4/3
f 414/7/3 405/7/3 413/7/3
f 414/4/3 407/4/3 406/4/3
f 414/4/3 408/4/3 407/4/3
f 415/7/3 410/7/3 409/7/3
f 415/4/3 408/4/3 414/4/3
f 415/7/3 409/7/3 408/7/3
f 416/7/3 410/7/3 415/7/3
f 417/4/3 411/4/3 410/4/3
f 417/4/3 373/4/3 411/4/3
f 419/7/3 410/7/3 416/7/3
f 420/4/3 418/4/3 417/4/3
f 420/7/3 410/7/3 419/7/3
f 420/4/3 417/4/3 410/4/3
f 421/4/3 418/4/3 420/4/3
f 424/5/3 423/5/3 422/5/3
f 425/5/3 423/5/3 424/5/3
f 428/5/3 427/5/3 426/5/3
f 429/5/3 427/5/3 428/5/3
f 430/2/4 431/2/4 433/2/4
f 433/2/4 431/2/4 434/2/4
f 434/2/4 431/2/4 435/2/4
f 432/5/4 433/5/4 436/5/4
f 433/5/4 434/5/4 436/5/4
f 434/2/4 435/2/4 436/2/4
f 436/2/4 435/2/4 437/2/4
f 437/2/4 435/2/4 438/2/4
f 436/5/4 437/5/4 439/5/4
f 437/2/4 438/2/4 439/2/4
f 439/2/4 438/2/4 440/2/4
f 436/5/4 439/5/4 441/5/4
f 439/5/4 440/5/4 441/5/4
f 441/5/4 440/5/4 442/5/4
f 432/5/4 436/5/4 443/5/4
f 436/5/4 441/5/4 443/5/4
f 441/2/4 442/2/4 444/2/4
f 443/5/4 441/5/4 444/5/4
f 444/2/4 442/2/4 445/2/4
f 432/5/4 443/5/4 446/5/4
f 446/5/4 443/5/4 447/5/4
f 443/2/4 444/2/4 448/2/4
f 447/5/4 443/5/4 448/5/4
f 444/2/4 445/2/4 448/2/4
f 448/2/4 445/2/4 449/2/4
f 447/2/4 448/2/4 450/2/4
f 448/2/4 449/2/4 450/2/4
f 450/2/4 449/2/4 451/2/4
f 452/6/4 453/6/4 454/6/4
f 454/6/4 453/6/4 455/6/4
f 461/6/5 457/6/5 456/6/5
f 462/6/5 457/6/5 461/6/5
f 466/6/5 459/6/5 458/6/5
f 467/6/5 459/6/5 466/6/5
f 469/5/5 461/5/5 460/5/5
f 469/5/5 462/5/5 461/5/5
f 470/1/5 464/1/5 463/1/5
f 471/2/5 465/2/5 464/2/5
f 471/1/5 464/1/5 470/1/5
f 472/2/5 465/2/5 471/2/5
f 473/5/5 468/5/5 467/5/5
f 473/5/5 467/5/5 466/5/5
f 474/4/5 470/4/5 469/4/5
f 474/4/5 473/4/5 472/4/5
f 474/4/5 472/4/5 471/4/5
f 474/4/5 471/4/5 470/4/5
f 474/5/5 469/5/5 460/5/5
f 475/5/5 468/5/5 473/5/5
f 475/4/5 473/4/5 474/4/5
f 476/5/5 474/5/5 460/5/5
f 476/5/5 475/5/5 474/5/5
f 477/5/5 468/5/5 475/5/5
f 477/5/5 475/5/5 476/5/5
f 481/2/5 479/2/5 478/2/5
f 482/3/5 480/3/5 479/3/5
f 482/2/5 479/2/5 481/2/5
f 483/3/5 480/3/5 482/3/5
f 487/1/5 485/1/5 484/1/5
f 488/2/5 486/2/5 485/2/5
f 488/1/5 485/1/5 487/1/5
f 489/2/5 486/2/5 488/2/5
f 494/6/5 491/6/5 490/6/5
f 495/6/5 491/6/5 494/6/5
f 496/6/5 493/6/5 492/6/5
f 497/6/5 493/6/5 496/6/5
f 498/6/5 491/6/5 495/6/5
f 498/5/5 495/5/5 494/5/5
f 499/6/5 491/6/5 498/6/5
f 500/6/5 496/6/5 492/6/5
f 501/5/5 497/5/5 496/5/5
f 501/6/5 496/6/5 500/6/5
f 502/5/5 498/5/5 494/5/5
f 503/5/5 498/5/5 502/5/5
f 504/5/5 497/5/5 501/5/5
f 505/5/5 497/5/5 504/5/5
f 509/2/5 507/2/5 506/2/5
f 510/3/5 508/3/5 507/3/5
f 510/2/5 507/2/5 509/2/5
f 511/3/5 508/3/5 510/3/5
f 516/2/5 513/2/5 512/2/5
f 517/2/5 513/2/5 516/2/5
f 518/2/5 515/2/5 514/2/5
f 519/2/5 515/2/5 518/2/5
f 524/6/5 521/6/5 520/6/5
f 525/6/5 521/6/5 524/6/5
f 526/6/5 523/6/5 522/6/5
f 527/6/5 523/6/5 526/6/5
f 532/6/5 529/6/5 528/6/5
f 533/6/5 529/6/5 532/6/5
f 534/6/5 531/6/5 530/6/5
f 535/6/5 531/6/5 534/6/5
f 536/5/5 533/5/5 532/5/5
f 537/5/5 533/5/5 536/5/5
f 538/5/5 533/5/5 537/5/5
f 539/5/5 535/5/5 534/5/5
f 540/5/5 535/5/5 539/5/5
f 541/5/5 535/5/5 540/5/5
f 548/5/5 546/5/5 545/5/5
f 548/5/5 545/5/5 544/5/5
f 548/5/5 544/5/5 543/5/5
f 548/6/5 543/6/5 542/6/5
f 549/6/5 547/6/5 546/6/5
f 549/5/5 546/5/5 548/5/5
f 550/6/5 548/6/5 542/6/5
f 550/6/5 549/6/5 548/6/5
f 551/6/5 547/6/5 549/6/5
f 551/6/5 549/6/5 550/6/5
f 552/1/6 553/1/6 555/1/6
f 553/2/6 554/2/6 556/2/6
f 555/1/6 553/1/6 556/1/6
f 556/2/6 554/2/6 557/2/6
f 558/2/6 559/2/6 561/2/6
f 559/3/6 560/3/6 562/3/6
f 561/2/6 559/2/6 562/2/6
f 562/3/6 560/3/6 563/3/6
f 564/1/6 565/1/6 567/1/6
f 565/2/6 566/2/6 568/2/6
f 567/1/6 565/1/6 568/1/6
f 568/2/6 566/2/6 569/2/6
f 570/6/6 571/6/6 574/6/6
f 572/6/6 573/6/6 575/6/6
f 574/6/6 571/6/6 576/6/6
f 576/6/6 571/6/6 577/6/6
f 572/6/6 575/6/6 578/6/6
f 578/6/6 575/6/6 579/6/6
f 576/5/6 577/5/6 580/5/6
f 580/5/6 577/5/6 581/5/6
f 578/5/6 579/5/6 582/5/6
f 582/5/6 579/5/6 583/5/6
f 584/2/6 585/2/6 587/2/6
f 585/3/6 586/3/6 588/3/6
f 587/2/6 585/2/6 588/2/6
f 588/3/6 586/3/6 589/3/6
f 590/4/6 591/4/6 592/4/6
f 592/4/6 591/4/6 593/4/6
f 594/2/6 595/2/6 598/2/6
f 598/2/6 595/2/6 599/2/6
f 596/2/6 597/2/6 604/2/6
f 604/2/6 597/2/6 605/2/6
f 598/1/6 599/1/6 606/1/6
f 606/1/6 599/1/6 607/1/6
f 604/1/6 605/1/6 608/1/6
f 608/1/6 605/1/6 609/1/6
f 606/2/6 607/2/6 610/2/6
f 598/1/6 606/1/6 610/1/6
f 610/2/6 607/2/6 611/2/6
f 608/2/6 609/2/6 612/2/6
f 609/1/6 605/1/6 613/1/6
f 612/2/6 609/2/6 613/2/6
f 594/2/6 598/2/6 614/2/6
f 610/1/6 611/1/6 614/1/6
f 598/1/6 610/1/6 614/1/6
f 614/1/6 611/1/6 615/1/6
f 612/1/6 613/1/6 616/1/6
f 613/1/6 605/1/6 617/1/6
f 616/1/6 613/1/6 617/1/6
f 605/2/6 597/2/6 617/2/6
f 614/2/6 615/2/6 618/2/6
f 594/2/6 614/2/6 618/2/6
f 615/1/6 611/1/6 619/1/6
f 618/2/6 615/2/6 619/2/6
f 612/1/6 616/1/6 620/1/6
f 616/2/6 617/2/6 620/2/6
f 617/2/6 597/2/6 621/2/6
f 620/2/6 617/2/6 621/2/6
f 618/1/6 619/1/6 622/1/6
f 619/1/6 611/1/6 623/1/6
f 622/1/6 619/1/6 623/1/6
f 612/1/6 620/1/6 624/1/6
f 620/1/6 621/1/6 624/1/6
f 624/1/6 621/1/6 625/1/6
f 618/1/6 622/1/6 626/1/6
f 622/2/6 623/2/6 626/2/6
f 626/2/6 623/2/6 627/2/6
f 624/2/6 625/2/6 628/2/6
f 625/1/6 621/1/6 629/1/6
f 628/2/6 625/2/6 629/2/6
f 626/1/6 627/1/6 630/1/6
f 594/2/6 618/2/6 630/2/6
f 618/1/6 626/1/6 630/1/6
f 630/1/6 627/1/6 631/1/6
f 600/4/6 601/4/6 632/4/6
f 632/4/6 601/4/6 633/4/6
f 602/4/6 603/4/6 634/4/6
f 634/4/6 603/4/6 635/4/6
f 628/1/6 629/1/6 636/1/6
f 629/1/6 621/1/6 637/1/6
f 636/1/6 629/1/6 637/1/6
f 621/2/6 597/2/6 637/2/6
f 630/2/6 631/2/6 638/2/6
f 594/2/6 630/2/6 638/2/6
f 638/2/6 631/2/6 639/2/6
f 632/5/6 633/5/6 640/5/6
f 634/5/6 635/5/6 640/5/6
f 633/5/6 634/5/6 640/5/6
f 640/5/6 635/5/6 641/5/6
f 636/2/6 637/2/6 642/2/6
f 637/2/6 597/2/6 643/2/6
f 642/2/6 637/2/6 643/2/6
f 644/6/6 645/6/6 648/6/6
f 648/6/6 645/6/6 649/6/6
f 646/6/6 647/6/6 650/6/6
f 650/6/6 647/6/6 651/6/6
f 649/6/6 645/6/6 652/6/6
f 648/5/6 649/5/6 652/5/6
f 652/6/6 645/6/6 653/6/6
f 646/6/6 650/6/6 654/6/6
f 650/5/6 651/5/6 655/5/6
f 654/6/6 650/6/6 655/6/6
f 652/5/6 653/5/6 656/5/6
f 654/5/6 655/5/6 657/5/6
f 644/6/6 648/6/6 658/6/6
f 656/5/6 657/5/6 658/5/6
f 648/5/6 652/5/6 658/5/6
f 652/5/6 656/5/6 658/5/6
f 651/6/6 647/6/6 659/6/6
f 658/5/6 657/5/6 659/5/6
f 657/5/6 655/5/6 659/5/6
f 655/5/6 651/5/6 659/5/6
f 644/6/6 658/6/6 660/6/6
f 658/6/6 659/6/6 660/6/6
f 659/6/6 647/6/6 661/6/6
f 660/6/6 659/6/6 661/6/6
