# MagicaVoxel @ Ephtracy

# group
o 

# material
mtllib model-1.mtl
usemtl palette

# normals
vn 0 0 1
vn 0 0 -1
vn 1 0 0
vn -1 0 0
vn 0 -1 0
vn 0 1 0

# texcoords
vt 0.0253906 0.5
vt 0.0332031 0.5
vt 0.0410156 0.5
vt 0.0449219 0.5

# verts
v 0.5 0 1
v -0.5 0 1
v 0.5 0.1 1
v -0.5 0.1 1
v 0.5 0.7 1
v -0.5 0.7 1
v 0.5 0 -1
v -0.5 0 -1
v 0.5 0.1 -1
v -0.5 0.1 -1
v 0.5 0.7 -1
v -0.5 0.7 -1
v 0.5 0 1
v 0.5 0.1 1
v 0.5 0.7 1
v 0.5 0.4 0.6
v 0.5 0.7 0.6
v 0.5 0.3 0.5
v 0.5 0.4 0.5
v 0.5 0.5 0.5
v 0.5 0.7 0.5
v 0.5 0.4 0.3
v 0.5 0.5 0.3
v 0.5 0.5 0.2
v 0.5 0.6 0.2
v 0.5 0.4 0.1
v 0.5 0.5 0.1
v 0.5 0.6 0.1
v 0.5 0.7 0.1
v 0.5 0.2 -0.1
v 0.5 0.3 -0.1
v 0.5 0.4 -0.1
v 0.5 0.5 -0.1
v 0.5 0.6 -0.1
v 0.5 0.7 -0.1
v 0.5 0.5 -0.2
v 0.5 0.6 -0.2
v 0.5 0.4 -0.3
v 0.5 0.5 -0.3
v 0.5 0.2 -0.4
v 0.5 0.4 -0.4
v 0.5 0.5 -0.5
v 0.5 0.7 -0.5
v 0.5 0.4 -0.7
v 0.5 0.7 -0.7
v 0.5 0 -1
v 0.5 0.1 -1
v 0.5 0.7 -1
v -0.5 0 1
v -0.5 0.1 1
v -0.5 0.7 1
v -0.5 0 -1
v -0.5 0.1 -1
v -0.5 0.7 -1
v 0.5 0 1
v 0.5 0 -1
v -0.5 0 1
v -0.5 0 -1
v 0.5 0.7 1
v 0.5 0.7 0.6
v 0.5 0.7 0.5
v 0.5 0.7 0.1
v 0.5 0.7 -0.1
v 0.5 0.7 -0.5
v 0.5 0.7 -0.7
v 0.5 0.7 -1
v 0.4 0.7 0.6
v 0.4 0.7 0.5
v 0.4 0.7 0.1
v 0.4 0.7 -0.1
v 0.4 0.7 -0.5
v 0.4 0.7 -0.7
v -0.5 0.7 1
v -0.5 0.7 -1

# faces
f 3/4/1 2/4/1 1/4/1
f 4/4/1 2/4/1 3/4/1
f 5/3/1 4/3/1 3/3/1
f 6/3/1 4/3/1 5/3/1
f 7/4/2 8/4/2 9/4/2
f 9/4/2 8/4/2 10/4/2
f 9/3/2 10/3/2 11/3/2
f 11/3/2 10/3/2 12/3/2
f 16/3/3 15/3/3 14/3/3
f 17/3/3 15/3/3 16/3/3
f 18/3/3 16/3/3 14/3/3
f 19/4/3 17/4/3 16/4/3
f 19/3/3 16/3/3 18/3/3
f 20/4/3 17/4/3 19/4/3
f 21/4/3 17/4/3 20/4/3
f 22/4/3 19/4/3 18/4/3
f 22/4/3 20/4/3 19/4/3
f 23/2/3 21/2/3 20/2/3
f 23/4/3 20/4/3 22/4/3
f 24/2/3 23/2/3 22/2/3
f 24/2/3 21/2/3 23/2/3
f 25/2/3 21/2/3 24/2/3
f 26/4/3 22/4/3 18/4/3
f 26/2/3 24/2/3 22/2/3
f 27/1/3 25/1/3 24/1/3
f 27/2/3 24/2/3 26/2/3
f 28/2/3 21/2/3 25/2/3
f 28/1/3 25/1/3 27/1/3
f 29/2/3 21/2/3 28/2/3
f 30/3/3 18/3/3 14/3/3
f 31/4/3 26/4/3 18/4/3
f 31/3/3 18/3/3 30/3/3
f 32/1/3 27/1/3 26/1/3
f 32/4/3 26/4/3 31/4/3
f 32/1/3 28/1/3 27/1/3
f 32/1/3 29/1/3 28/1/3
f 33/1/3 29/1/3 32/1/3
f 34/1/3 29/1/3 33/1/3
f 35/1/3 29/1/3 34/1/3
f 36/2/3 33/2/3 32/2/3
f 36/1/3 34/1/3 33/1/3
f 37/2/3 35/2/3 34/2/3
f 37/1/3 34/1/3 36/1/3
f 38/4/3 31/4/3 30/4/3
f 38/4/3 32/4/3 31/4/3
f 38/2/3 37/2/3 36/2/3
f 38/2/3 36/2/3 32/2/3
f 39/2/3 37/2/3 38/2/3
f 40/3/3 30/3/3 14/3/3
f 40/4/3 38/4/3 30/4/3
f 40/4/3 39/4/3 38/4/3
f 41/4/3 39/4/3 40/4/3
f 42/2/3 37/2/3 39/2/3
f 42/4/3 39/4/3 41/4/3
f 43/2/3 35/2/3 37/2/3
f 43/2/3 37/2/3 42/2/3
f 44/4/3 42/4/3 41/4/3
f 44/3/3 41/3/3 40/3/3
f 44/4/3 43/4/3 42/4/3
f 45/4/3 43/4/3 44/4/3
f 46/4/3 14/4/3 13/4/3
f 47/3/3 40/3/3 14/3/3
f 47/4/3 14/4/3 46/4/3
f 47/3/3 44/3/3 40/3/3
f 47/3/3 45/3/3 44/3/3
f 48/3/3 45/3/3 47/3/3
f 49/4/4 50/4/4 52/4/4
f 50/3/4 51/3/4 53/3/4
f 52/4/4 50/4/4 53/4/4
f 53/3/4 51/3/4 54/3/4
f 57/4/5 56/4/5 55/4/5
f 58/4/5 56/4/5 57/4/5
f 59/3/6 60/3/6 67/3/6
f 60/4/6 61/4/6 67/4/6
f 61/2/6 62/2/6 68/2/6
f 67/4/6 61/4/6 68/4/6
f 62/1/6 63/1/6 69/1/6
f 68/2/6 62/2/6 69/2/6
f 63/2/6 64/2/6 70/2/6
f 69/1/6 63/1/6 70/1/6
f 64/4/6 65/4/6 71/4/6
f 70/2/6 64/2/6 71/2/6
f 65/3/6 66/3/6 72/3/6
f 71/4/6 65/4/6 72/4/6
f 70/3/6 71/3/6 73/3/6
f 69/3/6 70/3/6 73/3/6
f 71/3/6 72/3/6 73/3/6
f 68/3/6 69/3/6 73/3/6
f 67/3/6 68/3/6 73/3/6
f 59/3/6 67/3/6 73/3/6
f 72/3/6 66/3/6 74/3/6
f 73/3/6 72/3/6 74/3/6
