# MagicaVoxel @ Ephtracy

# group
o 

# material
mtllib model-3.mtl
usemtl palette

# normals
vn 0 0 1
vn 0 0 -1
vn 1 0 0
vn -1 0 0
vn 0 -1 0
vn 0 1 0

# texcoords
vt 0.0253906 0.5
vt 0.0332031 0.5
vt 0.0410156 0.5
vt 0.0449219 0.5

# verts
v 0.5 0.6 1
v -0.5 0.6 1
v 0.5 2.1 1
v -0.5 2.1 1
v 0.5 2 -0.4
v -0.3 2 -0.4
v 0.5 2.1 -0.4
v -0.3 2.1 -0.4
v 0.5 2 0.4
v -0.3 2 0.4
v 0.5 2.1 0.4
v -0.3 2.1 0.4
v 0.5 0.6 -1
v -0.5 0.6 -1
v 0.5 2.1 -1
v -0.5 2.1 -1
v 0.5 0.6 1
v 0.5 2.1 1
v 0.5 0.6 0.7
v 0.5 1.2 0.7
v 0.5 0.9 0.6
v 0.5 1 0.6
v 0.5 1.1 0.6
v 0.5 1.2 0.6
v 0.5 1.5 0.6
v 0.5 0.6 0.5
v 0.5 0.9 0.5
v 0.5 1.2 0.5
v 0.5 1.3 0.5
v 0.5 1.4 0.5
v 0.5 1.5 0.5
v 0.5 1.7 0.5
v 0.5 1.9 0.5
v 0.5 2.1 0.5
v 0.5 0.9 0.4
v 0.5 1 0.4
v 0.5 1.1 0.4
v 0.5 1.2 0.4
v 0.5 1.3 0.4
v 0.5 1.4 0.4
v 0.5 1.5 0.4
v 0.5 1.6 0.4
v 0.5 2 0.4
v 0.5 2.1 0.4
v 0.5 1.7 0.3
v 0.5 1.8 0.3
v 0.5 0.7 0.2
v 0.5 0.8 0.2
v 0.5 0.6 0.1
v 0.5 0.7 0.1
v 0.5 0.8 0.1
v 0.5 0.9 0.1
v 0.5 1 0.1
v 0.5 1.2 0.1
v 0.5 1.3 0.1
v 0.5 1.5 0.1
v 0.5 1.6 0
v 0.5 1.7 0
v 0.5 0.6 -0.1
v 0.5 0.7 -0.1
v 0.5 0.8 -0.1
v 0.5 0.9 -0.1
v 0.5 1 -0.1
v 0.5 1.2 -0.1
v 0.5 1.3 -0.1
v 0.5 1.5 -0.1
v 0.5 1.6 -0.1
v 0.5 1.7 -0.1
v 0.5 0.7 -0.2
v 0.5 0.8 -0.2
v 0.5 1.6 -0.3
v 0.5 1.7 -0.3
v 0.5 1.8 -0.3
v 0.5 0.9 -0.4
v 0.5 1 -0.4
v 0.5 1.1 -0.4
v 0.5 1.2 -0.4
v 0.5 1.3 -0.4
v 0.5 1.4 -0.4
v 0.5 1.5 -0.4
v 0.5 1.6 -0.4
v 0.5 2 -0.4
v 0.5 2.1 -0.4
v 0.5 0.6 -0.5
v 0.5 0.7 -0.5
v 0.5 0.9 -0.5
v 0.5 1 -0.5
v 0.5 1.1 -0.5
v 0.5 1.2 -0.5
v 0.5 1.9 -0.5
v 0.5 2.1 -0.5
v 0.5 0.7 -0.6
v 0.5 0.9 -0.6
v 0.5 1 -0.6
v 0.5 1.2 -0.6
v 0.5 1.3 -0.6
v 0.5 1.4 -0.6
v 0.5 1.5 -0.6
v 0.5 1.6 -0.6
v 0.5 1.7 -0.6
v 0.5 0.8 -0.7
v 0.5 1 -0.7
v 0.5 1.2 -0.7
v 0.5 1.6 -0.7
v 0.5 0.6 -0.8
v 0.5 0.8 -0.8
v 0.5 0.6 -1
v 0.5 2.1 -1
v -0.3 2 0.4
v -0.3 2.1 0.4
v -0.3 2 -0.4
v -0.3 2.1 -0.4
v -0.5 0.6 1
v -0.5 2.1 1
v -0.5 0.6 -1
v -0.5 2.1 -1
v 0.5 0.6 1
v 0.5 0.6 0.7
v 0.5 0.6 0.5
v 0.5 0.6 0.1
v 0.5 0.6 -0.1
v 0.5 0.6 -0.5
v 0.5 0.6 -0.8
v 0.5 0.6 -1
v 0.4 0.6 0.7
v 0.4 0.6 0.5
v 0.4 0.6 0.1
v 0.4 0.6 -0.1
v 0.4 0.6 -0.5
v 0.4 0.6 -0.8
v -0.5 0.6 1
v -0.5 0.6 -1
v 0.5 2 0.4
v 0.5 2 -0.4
v -0.3 2 0.4
v -0.3 2 -0.4
v 0.5 2.1 1
v 0.5 2.1 0.5
v 0.5 2.1 0.4
v 0.5 2.1 -0.4
v 0.5 2.1 -0.5
v 0.5 2.1 -1
v -0.3 2.1 0.4
v -0.3 2.1 -0.4
v -0.4 2.1 0.5
v -0.4 2.1 -0.5
v -0.5 2.1 1
v -0.5 2.1 -1

# faces
f 3/3/1 2/3/1 1/3/1
f 4/3/1 2/3/1 3/3/1
f 7/4/1 6/4/1 5/4/1
f 8/4/1 6/4/1 7/4/1
f 9/4/2 10/4/2 11/4/2
f 11/4/2 10/4/2 12/4/2
f 13/3/2 14/3/2 15/3/2
f 15/3/2 14/3/2 16/3/2
f 19/3/3 18/3/3 17/3/3
f 20/3/3 18/3/3 19/3/3
f 21/4/3 20/4/3 19/4/3
f 22/4/3 20/4/3 21/4/3
f 23/4/3 20/4/3 22/4/3
f 24/3/3 18/3/3 20/3/3
f 24/4/3 20/4/3 23/4/3
f 25/3/3 18/3/3 24/3/3
f 26/4/3 21/4/3 19/4/3
f 27/2/3 22/2/3 21/2/3
f 27/4/3 21/4/3 26/4/3
f 28/2/3 24/2/3 23/2/3
f 28/4/3 25/4/3 24/4/3
f 29/4/3 25/4/3 28/4/3
f 30/4/3 25/4/3 29/4/3
f 31/3/3 18/3/3 25/3/3
f 31/4/3 25/4/3 30/4/3
f 32/3/3 18/3/3 31/3/3
f 33/3/3 18/3/3 32/3/3
f 34/3/3 18/3/3 33/3/3
f 35/2/3 22/2/3 27/2/3
f 35/2/3 27/2/3 26/2/3
f 36/1/3 23/1/3 22/1/3
f 36/2/3 22/2/3 35/2/3
f 37/2/3 28/2/3 23/2/3
f 37/1/3 23/1/3 36/1/3
f 37/2/3 29/2/3 28/2/3
f 38/2/3 29/2/3 37/2/3
f 39/1/3 30/1/3 29/1/3
f 39/2/3 29/2/3 38/2/3
f 40/4/3 31/4/3 30/4/3
f 40/1/3 30/1/3 39/1/3
f 40/4/3 32/4/3 31/4/3
f 41/4/3 32/4/3 40/4/3
f 42/4/3 32/4/3 41/4/3
f 43/4/3 34/4/3 33/4/3
f 44/4/3 34/4/3 43/4/3
f 45/4/3 32/4/3 42/4/3
f 45/3/3 33/3/3 32/3/3
f 46/3/3 33/3/3 45/3/3
f 47/2/3 35/2/3 26/2/3
f 48/2/3 35/2/3 47/2/3
f 49/2/3 47/2/3 26/2/3
f 50/1/3 48/1/3 47/1/3
f 50/2/3 47/2/3 49/2/3
f 51/2/3 35/2/3 48/2/3
f 51/1/3 48/1/3 50/1/3
f 52/1/3 36/1/3 35/1/3
f 52/2/3 35/2/3 51/2/3
f 53/2/3 38/2/3 37/2/3
f 53/1/3 36/1/3 52/1/3
f 53/2/3 37/2/3 36/2/3
f 54/1/3 39/1/3 38/1/3
f 54/2/3 38/2/3 53/2/3
f 55/2/3 40/2/3 39/2/3
f 55/1/3 39/1/3 54/1/3
f 55/2/3 41/2/3 40/2/3
f 56/1/3 42/1/3 41/1/3
f 56/2/3 41/2/3 55/2/3
f 57/1/3 52/1/3 51/1/3
f 57/1/3 42/1/3 56/1/3
f 57/1/3 56/1/3 55/1/3
f 57/4/3 46/4/3 45/4/3
f 57/4/3 45/4/3 42/4/3
f 57/1/3 55/1/3 54/1/3
f 57/1/3 50/1/3 49/1/3
f 57/1/3 54/1/3 53/1/3
f 57/1/3 51/1/3 50/1/3
f 57/1/3 53/1/3 52/1/3
f 58/4/3 46/4/3 57/4/3
f 59/1/3 57/1/3 49/1/3
f 59/1/3 58/1/3 57/1/3
f 60/1/3 58/1/3 59/1/3
f 61/1/3 58/1/3 60/1/3
f 62/1/3 58/1/3 61/1/3
f 63/1/3 58/1/3 62/1/3
f 64/1/3 58/1/3 63/1/3
f 65/1/3 58/1/3 64/1/3
f 66/1/3 58/1/3 65/1/3
f 67/1/3 58/1/3 66/1/3
f 68/4/3 46/4/3 58/4/3
f 68/1/3 58/1/3 67/1/3
f 69/2/3 60/2/3 59/2/3
f 69/1/3 61/1/3 60/1/3
f 70/2/3 62/2/3 61/2/3
f 70/1/3 61/1/3 69/1/3
f 71/1/3 67/1/3 66/1/3
f 71/2/3 68/2/3 67/2/3
f 72/4/3 46/4/3 68/4/3
f 72/2/3 68/2/3 71/2/3
f 73/3/3 33/3/3 46/3/3
f 73/4/3 46/4/3 72/4/3
f 74/2/3 62/2/3 70/2/3
f 74/2/3 70/2/3 69/2/3
f 74/1/3 63/1/3 62/1/3
f 75/2/3 64/2/3 63/2/3
f 75/1/3 63/1/3 74/1/3
f 76/2/3 64/2/3 75/2/3
f 77/1/3 65/1/3 64/1/3
f 77/2/3 64/2/3 76/2/3
f 78/2/3 66/2/3 65/2/3
f 78/1/3 65/1/3 77/1/3
f 79/2/3 66/2/3 78/2/3
f 80/1/3 71/1/3 66/1/3
f 80/2/3 66/2/3 79/2/3
f 81/4/3 72/4/3 71/4/3
f 81/1/3 71/1/3 80/1/3
f 82/4/3 43/4/3 33/4/3
f 84/2/3 69/2/3 59/2/3
f 84/2/3 74/2/3 69/2/3
f 84/2/3 75/2/3 74/2/3
f 85/2/3 75/2/3 84/2/3
f 86/2/3 75/2/3 85/2/3
f 87/1/3 76/1/3 75/1/3
f 87/2/3 75/2/3 86/2/3
f 88/2/3 77/2/3 76/2/3
f 88/1/3 76/1/3 87/1/3
f 88/2/3 78/2/3 77/2/3
f 89/2/3 78/2/3 88/2/3
f 90/3/3 33/3/3 73/3/3
f 90/3/3 73/3/3 72/3/3
f 90/4/3 83/4/3 82/4/3
f 90/4/3 82/4/3 33/4/3
f 91/4/3 83/4/3 90/4/3
f 92/2/3 86/2/3 85/2/3
f 92/4/3 85/4/3 84/4/3
f 93/4/3 89/4/3 88/4/3
f 93/2/3 86/2/3 92/2/3
f 93/4/3 88/4/3 87/4/3
f 93/4/3 87/4/3 86/4/3
f 94/4/3 89/4/3 93/4/3
f 95/2/3 78/2/3 89/2/3
f 95/4/3 89/4/3 94/4/3
f 96/1/3 79/1/3 78/1/3
f 96/2/3 78/2/3 95/2/3
f 97/2/3 80/2/3 79/2/3
f 97/1/3 79/1/3 96/1/3
f 98/4/3 81/4/3 80/4/3
f 98/2/3 80/2/3 97/2/3
f 99/4/3 72/4/3 81/4/3
f 99/4/3 81/4/3 98/4/3
f 100/3/3 90/3/3 72/3/3
f 100/4/3 72/4/3 99/4/3
f 100/3/3 91/3/3 90/3/3
f 101/4/3 94/4/3 93/4/3
f 101/4/3 93/4/3 92/4/3
f 102/3/3 95/3/3 94/3/3
f 102/4/3 94/4/3 101/4/3
f 103/4/3 96/4/3 95/4/3
f 103/3/3 95/3/3 102/3/3
f 103/4/3 98/4/3 97/4/3
f 103/4/3 97/4/3 96/4/3
f 103/4/3 99/4/3 98/4/3
f 104/3/3 100/3/3 99/3/3
f 104/4/3 99/4/3 103/4/3
f 105/4/3 101/4/3 92/4/3
f 105/4/3 92/4/3 84/4/3
f 106/3/3 102/3/3 101/3/3
f 106/4/3 101/4/3 105/4/3
f 106/3/3 104/3/3 103/3/3
f 106/3/3 103/3/3 102/3/3
f 107/3/3 106/3/3 105/3/3
f 108/3/3 91/3/3 100/3/3
f 108/3/3 106/3/3 107/3/3
f 108/3/3 100/3/3 104/3/3
f 108/3/3 104/3/3 106/3/3
f 111/4/3 110/4/3 109/4/3
f 112/4/3 110/4/3 111/4/3
f 113/3/4 114/3/4 115/3/4
f 115/3/4 114/3/4 116/3/4
f 125/3/5 118/3/5 117/3/5
f 125/4/5 119/4/5 118/4/5
f 126/2/5 120/2/5 119/2/5
f 126/4/5 119/4/5 125/4/5
f 127/1/5 121/1/5 120/1/5
f 127/2/5 120/2/5 126/2/5
f 128/2/5 122/2/5 121/2/5
f 128/1/5 121/1/5 127/1/5
f 129/4/5 123/4/5 122/4/5
f 129/2/5 122/2/5 128/2/5
f 130/3/5 124/3/5 123/3/5
f 130/4/5 123/4/5 129/4/5
f 131/3/5 129/3/5 128/3/5
f 131/3/5 128/3/5 127/3/5
f 131/3/5 130/3/5 129/3/5
f 131/3/5 127/3/5 126/3/5
f 131/3/5 126/3/5 125/3/5
f 131/3/5 125/3/5 117/3/5
f 132/3/5 124/3/5 130/3/5
f 132/3/5 130/3/5 131/3/5
f 133/4/6 134/4/6 135/4/6
f 135/4/6 134/4/6 136/4/6
f 138/4/6 139/4/6 143/4/6
f 140/4/6 141/4/6 144/4/6
f 137/3/6 138/3/6 145/3/6
f 143/4/6 144/4/6 145/4/6
f 138/4/6 143/4/6 145/4/6
f 144/4/6 141/4/6 146/4/6
f 145/4/6 144/4/6 146/4/6
f 141/3/6 142/3/6 146/3/6
f 137/3/6 145/3/6 147/3/6
f 145/3/6 146/3/6 147/3/6
f 146/3/6 142/3/6 148/3/6
f 147/3/6 146/3/6 148/3/6
