# MagicaVoxel @ Ephtracy

# group
o 

# material
mtllib model.mtl
usemtl palette

# normals
vn -1 0 0
vn 1 0 0
vn 0 0 1
vn 0 0 -1
vn 0 -1 0
vn 0 1 0

# texcoords
vt 0.0722656 0.5
vt 0.0761719 0.5

# verts
v -0.6 0.2 1.2
v -0.6 0.2 1.1
v -0.6 0.2 -1.1
v -0.6 0.2 -1.2
v -0.6 0.7 1.2
v -0.6 0.7 1.1
v -0.6 0.7 -1.1
v -0.6 0.7 -1.2
v 0.6 0 1.1
v 0.6 0 0.3
v 0.6 0 -0.3
v 0.6 0 -1.1
v 0.6 0.1 1.2
v 0.6 0.1 1.1
v 0.6 0.1 0.3
v 0.6 0.1 0.2
v 0.6 0.1 -0.2
v 0.6 0.1 -0.3
v 0.6 0.1 -1.1
v 0.6 0.1 -1.2
v 0.6 0.2 1.1
v 0.6 0.2 0.3
v 0.6 0.2 0.2
v 0.6 0.2 0.1
v 0.6 0.2 -0.0999999
v 0.6 0.2 -0.2
v 0.6 0.2 -0.3
v 0.6 0.2 -1.1
v 0.6 0.3 1.1
v 0.6 0.3 0.2
v 0.6 0.3 -0.2
v 0.6 0.3 -1.1
v 0.6 0.4 1.1
v 0.6 0.4 0.2
v 0.6 0.4 -0.2
v 0.6 0.4 -1.1
v 0.6 0.5 1.2
v 0.6 0.5 1.1
v 0.6 0.5 0.2
v 0.6 0.5 -0.2
v 0.6 0.5 -1.1
v 0.6 0.5 -1.2
v 0.6 0.6 1.1
v 0.6 0.6 0.2
v 0.6 0.6 0.1
v 0.6 0.6 -0.0999999
v 0.6 0.6 -0.2
v 0.6 0.6 -1.1
v 0.6 0.7 1.2
v 0.6 0.7 1.1
v 0.6 0.7 0.2
v 0.6 0.7 -0.2
v 0.6 0.7 -1.1
v 0.6 0.7 -1.2
v 0.6 0.8 1.2
v 0.6 0.8 1.1
v 0.6 0.8 0.2
v 0.6 0.8 -0.2
v 0.6 0.8 -1.1
v 0.6 0.8 -1.2
v 0.6 0.9 1.1
v 0.6 0.9 0.2
v 0.6 0.9 -0.2
v 0.6 0.9 -1.1
v -0.4 0.2 1.2
v -0.4 0.2 1.1
v -0.4 0.2 -1.1
v -0.4 0.2 -1.2
v -0.4 0.5 1.2
v -0.4 0.5 1.1
v -0.4 0.5 -1.1
v -0.4 0.5 -1.2
v 0.7 0 1.1
v 0.7 0 0.3
v 0.7 0 -0.3
v 0.7 0 -1.1
v 0.7 0.1 1.2
v 0.7 0.1 1.1
v 0.7 0.1 0.3
v 0.7 0.1 0.2
v 0.7 0.1 -0.2
v 0.7 0.1 -0.3
v 0.7 0.1 -1.1
v 0.7 0.1 -1.2
v 0.7 0.2 1.1
v 0.7 0.2 0.3
v 0.7 0.2 0.2
v 0.7 0.2 0.1
v 0.7 0.2 -0.0999999
v 0.7 0.2 -0.2
v 0.7 0.2 -0.3
v 0.7 0.2 -1.1
v 0.7 0.3 1.1
v 0.7 0.3 0.2
v 0.7 0.3 -0.2
v 0.7 0.3 -1.1
v 0.7 0.4 1.1
v 0.7 0.4 0.2
v 0.7 0.4 -0.2
v 0.7 0.4 -1.1
v 0.7 0.5 1.1
v 0.7 0.5 0.2
v 0.7 0.5 -0.2
v 0.7 0.5 -1.1
v 0.7 0.6 1.1
v 0.7 0.6 0.2
v 0.7 0.6 0.1
v 0.7 0.6 -0.0999999
v 0.7 0.6 -0.2
v 0.7 0.6 -1.1
v 0.7 0.7 1.1
v 0.7 0.7 0.2
v 0.7 0.7 -0.2
v 0.7 0.7 -1.1
v 0.7 0.8 1.2
v 0.7 0.8 1.1
v 0.7 0.8 0.2
v 0.7 0.8 -0.2
v 0.7 0.8 -1.1
v 0.7 0.8 -1.2
v 0.7 0.9 1.1
v 0.7 0.9 0.2
v 0.7 0.9 -0.2
v 0.7 0.9 -1.1
v -0.6 0.2 1.2
v -0.6 0.7 1.2
v -0.4 0.2 1.2
v -0.4 0.5 1.2
v 0.6 0.1 1.2
v 0.6 0.5 1.2
v 0.6 0.7 1.2
v 0.6 0.8 1.2
v 0.7 0.1 1.2
v 0.7 0.8 1.2
v 0.6 0 1.1
v 0.6 0.1 1.1
v 0.6 0.8 1.1
v 0.6 0.9 1.1
v 0.7 0 1.1
v 0.7 0.1 1.1
v 0.7 0.8 1.1
v 0.7 0.9 1.1
v 0.6 0.1 0.3
v 0.6 0.2 0.3
v 0.7 0.1 0.3
v 0.7 0.2 0.3
v 0.6 0.3 0.2
v 0.6 0.4 0.2
v 0.6 0.5 0.2
v 0.6 0.6 0.2
v 0.6 0.7 0.2
v 0.6 0.8 0.2
v 0.7 0.3 0.2
v 0.7 0.4 0.2
v 0.7 0.5 0.2
v 0.7 0.6 0.2
v 0.7 0.7 0.2
v 0.7 0.8 0.2
v 0.6 0.2 -0.0999999
v 0.6 0.6 -0.0999999
v 0.7 0.2 -0.0999999
v 0.7 0.6 -0.0999999
v 0.6 0.1 -0.2
v 0.6 0.2 -0.2
v 0.6 0.8 -0.2
v 0.6 0.9 -0.2
v 0.7 0.1 -0.2
v 0.7 0.2 -0.2
v 0.7 0.8 -0.2
v 0.7 0.9 -0.2
v 0.6 0 -0.3
v 0.6 0.1 -0.3
v 0.7 0 -0.3
v 0.7 0.1 -0.3
v -0.6 0.2 -1.1
v -0.6 0.7 -1.1
v -0.4 0.2 -1.1
v -0.4 0.5 -1.1
v 0.6 0.1 -1.1
v 0.6 0.2 -1.1
v 0.6 0.3 -1.1
v 0.6 0.4 -1.1
v 0.6 0.5 -1.1
v 0.6 0.6 -1.1
v 0.6 0.7 -1.1
v 0.6 0.8 -1.1
v 0.7 0.1 -1.1
v 0.7 0.2 -1.1
v 0.7 0.3 -1.1
v 0.7 0.4 -1.1
v 0.7 0.5 -1.1
v 0.7 0.6 -1.1
v 0.7 0.7 -1.1
v 0.7 0.8 -1.1
v -0.6 0.2 1.1
v -0.6 0.7 1.1
v -0.4 0.2 1.1
v -0.4 0.5 1.1
v 0.6 0.1 1.1
v 0.6 0.2 1.1
v 0.6 0.3 1.1
v 0.6 0.4 1.1
v 0.6 0.5 1.1
v 0.6 0.6 1.1
v 0.6 0.7 1.1
v 0.6 0.8 1.1
v 0.7 0.1 1.1
v 0.7 0.2 1.1
v 0.7 0.3 1.1
v 0.7 0.4 1.1
v 0.7 0.5 1.1
v 0.7 0.6 1.1
v 0.7 0.7 1.1
v 0.7 0.8 1.1
v 0.6 0 0.3
v 0.6 0.1 0.3
v 0.7 0 0.3
v 0.7 0.1 0.3
v 0.6 0.1 0.2
v 0.6 0.2 0.2
v 0.6 0.8 0.2
v 0.6 0.9 0.2
v 0.7 0.1 0.2
v 0.7 0.2 0.2
v 0.7 0.8 0.2
v 0.7 0.9 0.2
v 0.6 0.2 0.1
v 0.6 0.6 0.1
v 0.7 0.2 0.1
v 0.7 0.6 0.1
v 0.6 0.3 -0.2
v 0.6 0.4 -0.2
v 0.6 0.5 -0.2
v 0.6 0.6 -0.2
v 0.6 0.7 -0.2
v 0.6 0.8 -0.2
v 0.7 0.3 -0.2
v 0.7 0.4 -0.2
v 0.7 0.5 -0.2
v 0.7 0.6 -0.2
v 0.7 0.7 -0.2
v 0.7 0.8 -0.2
v 0.6 0.1 -0.3
v 0.6 0.2 -0.3
v 0.7 0.1 -0.3
v 0.7 0.2 -0.3
v 0.6 0 -1.1
v 0.6 0.1 -1.1
v 0.6 0.8 -1.1
v 0.6 0.9 -1.1
v 0.7 0 -1.1
v 0.7 0.1 -1.1
v 0.7 0.8 -1.1
v 0.7 0.9 -1.1
v -0.6 0.2 -1.2
v -0.6 0.7 -1.2
v -0.4 0.2 -1.2
v -0.4 0.5 -1.2
v 0.6 0.1 -1.2
v 0.6 0.5 -1.2
v 0.6 0.7 -1.2
v 0.6 0.8 -1.2
v 0.7 0.1 -1.2
v 0.7 0.8 -1.2
v 0.6 0 1.1
v 0.7 0 1.1
v 0.6 0 0.3
v 0.7 0 0.3
v 0.6 0 -0.3
v 0.7 0 -0.3
v 0.6 0 -1.1
v 0.7 0 -1.1
v 0.6 0.1 1.2
v 0.7 0.1 1.2
v 0.6 0.1 1.1
v 0.7 0.1 1.1
v 0.6 0.1 0.3
v 0.7 0.1 0.3
v 0.6 0.1 0.2
v 0.7 0.1 0.2
v 0.6 0.1 -0.2
v 0.7 0.1 -0.2
v 0.6 0.1 -0.3
v 0.7 0.1 -0.3
v 0.6 0.1 -1.1
v 0.7 0.1 -1.1
v 0.6 0.1 -1.2
v 0.7 0.1 -1.2
v -0.6 0.2 1.2
v -0.4 0.2 1.2
v -0.6 0.2 1.1
v -0.4 0.2 1.1
v 0.6 0.2 1.1
v 0.7 0.2 1.1
v 0.6 0.2 0.3
v 0.7 0.2 0.3
v 0.6 0.2 0.2
v 0.7 0.2 0.2
v 0.6 0.2 0.1
v 0.7 0.2 0.1
v 0.6 0.2 -0.0999999
v 0.7 0.2 -0.0999999
v 0.6 0.2 -0.2
v 0.7 0.2 -0.2
v 0.6 0.2 -0.3
v 0.7 0.2 -0.3
v -0.6 0.2 -1.1
v -0.4 0.2 -1.1
v 0.6 0.2 -1.1
v 0.7 0.2 -1.1
v -0.6 0.2 -1.2
v -0.4 0.2 -1.2
v 0.6 0.4 1.1
v 0.7 0.4 1.1
v 0.6 0.4 0.2
v 0.7 0.4 0.2
v 0.6 0.4 -0.2
v 0.7 0.4 -0.2
v 0.6 0.4 -1.1
v 0.7 0.4 -1.1
v -0.4 0.5 1.2
v 0.6 0.5 1.2
v -0.4 0.5 1.1
v 0.6 0.5 1.1
v -0.4 0.5 -1.1
v 0.6 0.5 -1.1
v -0.4 0.5 -1.2
v 0.6 0.5 -1.2
v 0.6 0.6 1.1
v 0.7 0.6 1.1
v 0.6 0.6 0.2
v 0.7 0.6 0.2
v 0.6 0.6 0.1
v 0.7 0.6 0.1
v 0.6 0.6 -0.0999999
v 0.7 0.6 -0.0999999
v 0.6 0.6 -0.2
v 0.7 0.6 -0.2
v 0.6 0.6 -1.1
v 0.7 0.6 -1.1
v 0.6 0.8 1.1
v 0.7 0.8 1.1
v 0.6 0.8 0.2
v 0.7 0.8 0.2
v 0.6 0.8 -0.2
v 0.7 0.8 -0.2
v 0.6 0.8 -1.1
v 0.7 0.8 -1.1
v 0.6 0.1 1.1
v 0.7 0.1 1.1
v 0.6 0.1 0.3
v 0.7 0.1 0.3
v 0.6 0.1 -0.3
v 0.7 0.1 -0.3
v 0.6 0.1 -1.1
v 0.7 0.1 -1.1
v 0.6 0.3 1.1
v 0.7 0.3 1.1
v 0.6 0.3 0.2
v 0.7 0.3 0.2
v 0.6 0.3 -0.2
v 0.7 0.3 -0.2
v 0.6 0.3 -1.1
v 0.7 0.3 -1.1
v 0.6 0.5 1.1
v 0.7 0.5 1.1
v 0.6 0.5 0.2
v 0.7 0.5 0.2
v 0.6 0.5 -0.2
v 0.7 0.5 -0.2
v 0.6 0.5 -1.1
v 0.7 0.5 -1.1
v -0.6 0.7 1.2
v 0.6 0.7 1.2
v -0.6 0.7 1.1
v 0.6 0.7 1.1
v 0.7 0.7 1.1
v 0.6 0.7 0.2
v 0.7 0.7 0.2
v 0.6 0.7 -0.2
v 0.7 0.7 -0.2
v -0.6 0.7 -1.1
v 0.6 0.7 -1.1
v 0.7 0.7 -1.1
v -0.6 0.7 -1.2
v 0.6 0.7 -1.2
v 0.6 0.8 1.2
v 0.7 0.8 1.2
v 0.6 0.8 1.1
v 0.7 0.8 1.1
v 0.6 0.8 0.2
v 0.7 0.8 0.2
v 0.6 0.8 -0.2
v 0.7 0.8 -0.2
v 0.6 0.8 -1.1
v 0.7 0.8 -1.1
v 0.6 0.8 -1.2
v 0.7 0.8 -1.2
v 0.6 0.9 1.1
v 0.7 0.9 1.1
v 0.6 0.9 0.2
v 0.7 0.9 0.2
v 0.6 0.9 -0.2
v 0.7 0.9 -0.2
v 0.6 0.9 -1.1
v 0.7 0.9 -1.1

# faces
f 5/1/1 2/1/1 1/1/1
f 6/1/1 2/1/1 5/1/1
f 7/1/1 4/1/1 3/1/1
f 8/1/1 4/1/1 7/1/1
f 14/1/1 10/1/1 9/1/1
f 15/1/1 10/1/1 14/1/1
f 18/1/1 12/1/1 11/1/1
f 19/1/1 12/1/1 18/1/1
f 21/1/1 14/1/1 13/1/1
f 22/1/1 16/1/1 15/1/1
f 23/1/1 16/1/1 22/1/1
f 26/1/1 18/1/1 17/1/1
f 27/1/1 18/1/1 26/1/1
f 28/1/1 20/1/1 19/1/1
f 29/1/1 21/1/1 13/1/1
f 29/2/1 22/2/1 21/2/1
f 29/2/1 23/2/1 22/2/1
f 30/1/1 24/1/1 23/1/1
f 30/2/1 23/2/1 29/2/1
f 31/2/1 28/2/1 27/2/1
f 31/2/1 27/2/1 26/2/1
f 31/1/1 26/1/1 25/1/1
f 32/1/1 20/1/1 28/1/1
f 32/2/1 28/2/1 31/2/1
f 33/1/1 29/1/1 13/1/1
f 34/1/1 24/1/1 30/1/1
f 35/1/1 31/1/1 25/1/1
f 36/1/1 20/1/1 32/1/1
f 37/1/1 33/1/1 13/1/1
f 38/2/1 34/2/1 33/2/1
f 38/1/1 33/1/1 37/1/1
f 39/1/1 24/1/1 34/1/1
f 39/2/1 34/2/1 38/2/1
f 40/2/1 36/2/1 35/2/1
f 40/1/1 35/1/1 25/1/1
f 41/1/1 20/1/1 36/1/1
f 41/2/1 36/2/1 40/2/1
f 42/1/1 20/1/1 41/1/1
f 44/1/1 24/1/1 39/1/1
f 45/1/1 24/1/1 44/1/1
f 46/1/1 40/1/1 25/1/1
f 47/1/1 40/1/1 46/1/1
f 50/2/1 44/2/1 43/2/1
f 51/1/1 45/1/1 44/1/1
f 51/1/1 46/1/1 45/1/1
f 51/2/1 44/2/1 50/2/1
f 51/1/1 47/1/1 46/1/1
f 52/2/1 48/2/1 47/2/1
f 52/1/1 47/1/1 51/1/1
f 53/2/1 48/2/1 52/2/1
f 55/1/1 50/1/1 49/1/1
f 56/1/1 50/1/1 55/1/1
f 57/1/1 52/1/1 51/1/1
f 58/1/1 52/1/1 57/1/1
f 59/1/1 54/1/1 53/1/1
f 60/1/1 54/1/1 59/1/1
f 61/1/1 57/1/1 56/1/1
f 62/1/1 57/1/1 61/1/1
f 63/1/1 59/1/1 58/1/1
f 64/1/1 59/1/1 63/1/1
f 65/1/2 66/1/2 69/1/2
f 69/1/2 66/1/2 70/1/2
f 67/1/2 68/1/2 71/1/2
f 71/1/2 68/1/2 72/1/2
f 73/1/2 74/1/2 78/1/2
f 78/1/2 74/1/2 79/1/2
f 75/1/2 76/1/2 82/1/2
f 82/1/2 76/1/2 83/1/2
f 77/1/2 78/1/2 85/1/2
f 79/1/2 80/1/2 86/1/2
f 86/1/2 80/1/2 87/1/2
f 81/1/2 82/1/2 90/1/2
f 90/1/2 82/1/2 91/1/2
f 83/1/2 84/1/2 92/1/2
f 77/1/2 85/1/2 93/1/2
f 85/2/2 86/2/2 93/2/2
f 86/2/2 87/2/2 93/2/2
f 87/1/2 88/1/2 94/1/2
f 93/2/2 87/2/2 94/2/2
f 91/2/2 92/2/2 95/2/2
f 90/2/2 91/2/2 95/2/2
f 89/1/2 90/1/2 95/1/2
f 92/1/2 84/1/2 96/1/2
f 95/2/2 92/2/2 96/2/2
f 77/1/2 93/1/2 97/1/2
f 94/1/2 88/1/2 98/1/2
f 89/1/2 95/1/2 99/1/2
f 96/1/2 84/1/2 100/1/2
f 77/1/2 97/1/2 101/1/2
f 97/2/2 98/2/2 101/2/2
f 98/1/2 88/1/2 102/1/2
f 101/2/2 98/2/2 102/2/2
f 99/2/2 100/2/2 103/2/2
f 89/1/2 99/1/2 103/1/2
f 100/1/2 84/1/2 104/1/2
f 103/2/2 100/2/2 104/2/2
f 77/1/2 101/1/2 105/1/2
f 102/1/2 88/1/2 106/1/2
f 106/1/2 88/1/2 107/1/2
f 89/1/2 103/1/2 108/1/2
f 108/1/2 103/1/2 109/1/2
f 104/1/2 84/1/2 110/1/2
f 77/1/2 105/1/2 111/1/2
f 105/2/2 106/2/2 111/2/2
f 108/1/2 109/1/2 112/1/2
f 111/2/2 106/2/2 112/2/2
f 106/1/2 107/1/2 112/1/2
f 107/1/2 108/1/2 112/1/2
f 109/2/2 110/2/2 113/2/2
f 112/1/2 109/1/2 113/1/2
f 110/1/2 84/1/2 114/1/2
f 113/2/2 110/2/2 114/2/2
f 77/1/2 111/1/2 115/1/2
f 115/1/2 111/1/2 116/1/2
f 112/1/2 113/1/2 117/1/2
f 117/1/2 113/1/2 118/1/2
f 114/1/2 84/1/2 119/1/2
f 119/1/2 84/1/2 120/1/2
f 116/1/2 117/1/2 121/1/2
f 121/1/2 117/1/2 122/1/2
f 118/1/2 119/1/2 123/1/2
f 123/1/2 119/1/2 124/1/2
f 127/1/3 126/1/3 125/1/3
f 128/1/3 126/1/3 127/1/3
f 130/1/3 126/1/3 128/1/3
f 131/1/3 126/1/3 130/1/3
f 133/1/3 130/1/3 129/1/3
f 133/1/3 132/1/3 131/1/3
f 133/1/3 131/1/3 130/1/3
f 134/1/3 132/1/3 133/1/3
f 139/1/3 136/1/3 135/1/3
f 140/1/3 136/1/3 139/1/3
f 141/1/3 138/1/3 137/1/3
f 142/1/3 138/1/3 141/1/3
f 145/1/3 144/1/3 143/1/3
f 146/1/3 144/1/3 145/1/3
f 153/1/3 148/1/3 147/1/3
f 154/1/3 148/1/3 153/1/3
f 155/1/3 150/1/3 149/1/3
f 156/1/3 150/1/3 155/1/3
f 157/1/3 152/1/3 151/1/3
f 158/1/3 152/1/3 157/1/3
f 161/1/3 160/1/3 159/1/3
f 162/1/3 160/1/3 161/1/3
f 167/1/3 164/1/3 163/1/3
f 168/1/3 164/1/3 167/1/3
f 169/1/3 166/1/3 165/1/3
f 170/1/3 166/1/3 169/1/3
f 173/1/3 172/1/3 171/1/3
f 174/1/3 172/1/3 173/1/3
f 177/1/3 176/1/3 175/1/3
f 178/1/3 176/1/3 177/1/3
f 183/1/3 176/1/3 178/1/3
f 184/1/3 176/1/3 183/1/3
f 185/1/3 176/1/3 184/1/3
f 187/1/3 180/1/3 179/1/3
f 188/1/3 180/1/3 187/1/3
f 189/1/3 182/1/3 181/1/3
f 190/1/3 182/1/3 189/1/3
f 191/1/3 184/1/3 183/1/3
f 192/1/3 184/1/3 191/1/3
f 193/1/3 186/1/3 185/1/3
f 194/1/3 186/1/3 193/1/3
f 195/1/4 196/1/4 197/1/4
f 197/1/4 196/1/4 198/1/4
f 198/1/4 196/1/4 203/1/4
f 203/1/4 196/1/4 204/1/4
f 204/1/4 196/1/4 205/1/4
f 199/1/4 200/1/4 207/1/4
f 207/1/4 200/1/4 208/1/4
f 201/1/4 202/1/4 209/1/4
f 209/1/4 202/1/4 210/1/4
f 203/1/4 204/1/4 211/1/4
f 211/1/4 204/1/4 212/1/4
f 205/1/4 206/1/4 213/1/4
f 213/1/4 206/1/4 214/1/4
f 215/1/4 216/1/4 217/1/4
f 217/1/4 216/1/4 218/1/4
f 219/1/4 220/1/4 223/1/4
f 223/1/4 220/1/4 224/1/4
f 221/1/4 222/1/4 225/1/4
f 225/1/4 222/1/4 226/1/4
f 227/1/4 228/1/4 229/1/4
f 229/1/4 228/1/4 230/1/4
f 231/1/4 232/1/4 237/1/4
f 237/1/4 232/1/4 238/1/4
f 233/1/4 234/1/4 239/1/4
f 239/1/4 234/1/4 240/1/4
f 235/1/4 236/1/4 241/1/4
f 241/1/4 236/1/4 242/1/4
f 243/1/4 244/1/4 245/1/4
f 245/1/4 244/1/4 246/1/4
f 247/1/4 248/1/4 251/1/4
f 251/1/4 248/1/4 252/1/4
f 249/1/4 250/1/4 253/1/4
f 253/1/4 250/1/4 254/1/4
f 255/1/4 256/1/4 257/1/4
f 257/1/4 256/1/4 258/1/4
f 258/1/4 256/1/4 260/1/4
f 260/1/4 256/1/4 261/1/4
f 259/1/4 260/1/4 263/1/4
f 261/1/4 262/1/4 263/1/4
f 260/1/4 261/1/4 263/1/4
f 263/1/4 262/1/4 264/1/4
f 267/1/5 266/1/5 265/1/5
f 268/1/5 266/1/5 267/1/5
f 271/1/5 270/1/5 269/1/5
f 272/1/5 270/1/5 271/1/5
f 275/1/5 274/1/5 273/1/5
f 276/1/5 274/1/5 275/1/5
f 279/1/5 278/1/5 277/1/5
f 280/1/5 278/1/5 279/1/5
f 283/1/5 282/1/5 281/1/5
f 284/1/5 282/1/5 283/1/5
f 287/1/5 286/1/5 285/1/5
f 288/1/5 286/1/5 287/1/5
f 291/1/5 290/1/5 289/1/5
f 292/1/5 290/1/5 291/1/5
f 295/2/5 294/2/5 293/2/5
f 296/2/5 294/2/5 295/2/5
f 299/1/5 298/1/5 297/1/5
f 300/1/5 298/1/5 299/1/5
f 303/1/5 302/1/5 301/1/5
f 304/1/5 302/1/5 303/1/5
f 309/2/5 306/2/5 305/2/5
f 310/2/5 306/2/5 309/2/5
f 311/1/5 308/1/5 307/1/5
f 312/1/5 308/1/5 311/1/5
f 315/2/5 314/2/5 313/2/5
f 316/2/5 314/2/5 315/2/5
f 319/2/5 318/2/5 317/2/5
f 320/2/5 318/2/5 319/2/5
f 323/1/5 322/1/5 321/1/5
f 324/1/5 322/1/5 323/1/5
f 327/1/5 326/1/5 325/1/5
f 328/1/5 326/1/5 327/1/5
f 331/2/5 330/2/5 329/2/5
f 332/2/5 330/2/5 331/2/5
f 335/1/5 334/1/5 333/1/5
f 336/1/5 334/1/5 335/1/5
f 339/2/5 338/2/5 337/2/5
f 340/2/5 338/2/5 339/2/5
f 343/1/5 342/1/5 341/1/5
f 344/1/5 342/1/5 343/1/5
f 347/1/5 346/1/5 345/1/5
f 348/1/5 346/1/5 347/1/5
f 349/1/6 350/1/6 351/1/6
f 351/1/6 350/1/6 352/1/6
f 353/1/6 354/1/6 355/1/6
f 355/1/6 354/1/6 356/1/6
f 357/2/6 358/2/6 359/2/6
f 359/2/6 358/2/6 360/2/6
f 361/2/6 362/2/6 363/2/6
f 363/2/6 362/2/6 364/2/6
f 365/2/6 366/2/6 367/2/6
f 367/2/6 366/2/6 368/2/6
f 369/2/6 370/2/6 371/2/6
f 371/2/6 370/2/6 372/2/6
f 373/1/6 374/1/6 375/1/6
f 375/1/6 374/1/6 376/1/6
f 376/2/6 377/2/6 378/2/6
f 378/2/6 377/2/6 379/2/6
f 380/2/6 381/2/6 383/2/6
f 383/2/6 381/2/6 384/2/6
f 382/1/6 383/1/6 385/1/6
f 385/1/6 383/1/6 386/1/6
f 387/1/6 388/1/6 389/1/6
f 389/1/6 388/1/6 390/1/6
f 391/1/6 392/1/6 393/1/6
f 393/1/6 392/1/6 394/1/6
f 395/1/6 396/1/6 397/1/6
f 397/1/6 396/1/6 398/1/6
f 399/1/6 400/1/6 401/1/6
f 401/1/6 400/1/6 402/1/6
f 403/1/6 404/1/6 405/1/6
f 405/1/6 404/1/6 406/1/6
