# MagicaVoxel @ Ephtracy

# group
o 

# material
mtllib model.mtl
usemtl palette

# normals
vn 0 0 1
vn 0 0 -1
vn 1 0 0
vn -1 0 0
vn 0 -1 0
vn 0 1 0

# texcoords
vt 0.564453 0.5
vt 0.568359 0.5
vt 0.759766 0.5
vt 0.763672 0.5
vt 0.775391 0.5
vt 0.779297 0.5
vt 0.822266 0.5
vt 0.826172 0.5
vt 0.830078 0.5

# verts
v 0.3 4.5 0.7
v -0.2 4.5 0.7
v 0.3 5.1 0.7
v -0.2 5.1 0.7
v 0.3 5.6 0.7
v -0.2 5.6 0.7
v 0.3 4.3 0.5
v -0.2 4.3 0.5
v 0.3 4.5 0.5
v -0.2 4.5 0.5
v 0.3 5.6 0.5
v -0.2 5.6 0.5
v 0.3 5.8 0.5
v -0.2 5.8 0.5
v 0.2 0.2 0.3
v -0.1 0.2 0.3
v 0.2 3.8 0.3
v -0.1 3.8 0.3
v 0.2 3.9 0.3
v -0.1 3.9 0.3
v 0.2 4.1 0.3
v -0.1 4.1 0.3
v 0.2 4.3 0.3
v -0.1 4.3 0.3
v 0.2 0 0.2
v -0.1 0 0.2
v 0.2 0.2 0.2
v -0.1 0.2 0.2
v 0.1 3.9 0.2
v 0 3.9 0.2
v 0.1 4.1 0.2
v 0 4.1 0.2
v 0.2 4.5 0.2
v -0.1 4.5 0.2
v 0.2 4.7 0.2
v -0.1 4.7 0.2
v 0.2 4.8 0.2
v -0.1 4.8 0.2
v 0.2 5 0.2
v -0.1 5 0.2
v 0.2 5.1 0.2
v -0.1 5.1 0.2
v 0.2 5.3 0.2
v -0.1 5.3 0.2
v 0.2 5.4 0.2
v -0.1 5.4 0.2
v 0.2 5.6 0.2
v -0.1 5.6 0.2
v 0.2 5.8 0.2
v -0.1 5.8 0.2
v 0.2 6 0.2
v -0.1 6 0.2
v 0.3 4.7 0.5
v -0.2 4.7 0.5
v 0.3 5.4 0.5
v -0.2 5.4 0.5
v 0.3 4.5 0.3
v -0.2 4.5 0.3
v 0.3 4.6 0.3
v -0.2 4.6 0.3
v 0.3 4.7 0.3
v -0.2 4.7 0.3
v 0.3 5.4 0.3
v -0.2 5.4 0.3
v 0.3 5.6 0.3
v -0.2 5.6 0.3
v 0.2 0 -0.2
v -0.1 0 -0.2
v 0.2 0.2 -0.2
v -0.1 0.2 -0.2
v 0.1 3.9 -0.2
v 0 3.9 -0.2
v 0.1 4.1 -0.2
v 0 4.1 -0.2
v 0.2 4.5 -0.2
v -0.1 4.5 -0.2
v 0.2 4.7 -0.2
v -0.1 4.7 -0.2
v 0.2 4.8 -0.2
v -0.1 4.8 -0.2
v 0.2 5 -0.2
v -0.1 5 -0.2
v 0.2 5.1 -0.2
v -0.1 5.1 -0.2
v 0.2 5.3 -0.2
v -0.1 5.3 -0.2
v 0.2 5.4 -0.2
v -0.1 5.4 -0.2
v 0.2 5.6 -0.2
v -0.1 5.6 -0.2
v 0.2 5.8 -0.2
v -0.1 5.8 -0.2
v 0.2 5.9 -0.2
v -0.1 5.9 -0.2
v 0.2 6 -0.2
v -0.1 6 -0.2
v 0.2 0.2 -0.3
v -0.1 0.2 -0.3
v 0.2 3.8 -0.3
v -0.1 3.8 -0.3
v 0.2 3.9 -0.3
v -0.1 3.9 -0.3
v 0.2 4.1 -0.3
v -0.1 4.1 -0.3
v 0.2 4.3 -0.3
v -0.1 4.3 -0.3
v 0.3 5.6 -0.3
v -0.2 5.6 -0.3
v 0.3 5.7 -0.3
v -0.2 5.7 -0.3
v 0.3 5.8 -0.3
v -0.2 5.8 -0.3
v 0.3 4.3 -0.5
v -0.2 4.3 -0.5
v 0.3 4.4 -0.5
v -0.2 4.4 -0.5
v 0.3 4.5 -0.5
v -0.2 4.5 -0.5
v 0.3 4.5 0.7
v 0.3 5.1 0.7
v 0.3 5.6 0.7
v 0.3 5.1 0.6
v 0.3 5.5 0.6
v 0.3 4.3 0.5
v 0.3 4.5 0.5
v 0.3 4.6 0.5
v 0.3 4.7 0.5
v 0.3 5.4 0.5
v 0.3 5.5 0.5
v 0.3 5.6 0.5
v 0.3 5.8 0.5
v 0.3 5.6 0.4
v 0.3 5.7 0.4
v 0.3 4.5 0.3
v 0.3 4.6 0.3
v 0.3 4.7 0.3
v 0.3 5.4 0.3
v 0.3 5.6 0.3
v 0.3 4.4 -0.3
v 0.3 4.5 -0.3
v 0.3 5.6 -0.3
v 0.3 5.7 -0.3
v 0.3 5.8 -0.3
v 0.3 4.3 -0.5
v 0.3 4.4 -0.5
v 0.3 4.5 -0.5
v 0.2 0.2 0.3
v 0.2 3.8 0.3
v 0.2 3.9 0.3
v 0.2 4.1 0.3
v 0.2 4.3 0.3
v 0.2 0 0.2
v 0.2 0.2 0.2
v 0.2 4.5 0.2
v 0.2 4.7 0.2
v 0.2 4.8 0.2
v 0.2 5 0.2
v 0.2 5.1 0.2
v 0.2 5.3 0.2
v 0.2 5.4 0.2
v 0.2 5.6 0.2
v 0.2 5.8 0.2
v 0.2 6 0.2
v 0.2 5.8 0.1
v 0.2 5.9 0.1
v 0.2 0 0
v 0.2 3.8 0
v 0.2 3.9 0
v 0.2 0 -0.2
v 0.2 0.2 -0.2
v 0.2 4.5 -0.2
v 0.2 4.7 -0.2
v 0.2 4.8 -0.2
v 0.2 5 -0.2
v 0.2 5.1 -0.2
v 0.2 5.3 -0.2
v 0.2 5.4 -0.2
v 0.2 5.6 -0.2
v 0.2 5.8 -0.2
v 0.2 5.9 -0.2
v 0.2 6 -0.2
v 0.2 0.2 -0.3
v 0.2 3.8 -0.3
v 0.2 3.9 -0.3
v 0.2 4.1 -0.3
v 0.2 4.3 -0.3
v 0.1 3.9 0.2
v 0.1 4.1 0.2
v 0.1 3.9 0
v 0.1 4.1 0
v 0.1 3.9 -0.2
v 0.1 4.1 -0.2
v 0 3.9 0.2
v 0 4.1 0.2
v 0 3.9 0
v 0 4.1 0
v 0 3.9 -0.2
v 0 4.1 -0.2
v -0.1 0.2 0.3
v -0.1 3.8 0.3
v -0.1 3.9 0.3
v -0.1 4.1 0.3
v -0.1 4.3 0.3
v -0.1 0 0.2
v -0.1 0.2 0.2
v -0.1 4.5 0.2
v -0.1 4.7 0.2
v -0.1 4.8 0.2
v -0.1 5 0.2
v -0.1 5.1 0.2
v -0.1 5.3 0.2
v -0.1 5.4 0.2
v -0.1 5.6 0.2
v -0.1 5.8 0.2
v -0.1 6 0.2
v -0.1 5.8 0.1
v -0.1 5.9 0.1
v -0.1 0 0
v -0.1 3.8 0
v -0.1 3.9 0
v -0.1 0 -0.2
v -0.1 0.2 -0.2
v -0.1 4.5 -0.2
v -0.1 4.7 -0.2
v -0.1 4.8 -0.2
v -0.1 5 -0.2
v -0.1 5.1 -0.2
v -0.1 5.3 -0.2
v -0.1 5.4 -0.2
v -0.1 5.6 -0.2
v -0.1 5.8 -0.2
v -0.1 5.9 -0.2
v -0.1 6 -0.2
v -0.1 0.2 -0.3
v -0.1 3.8 -0.3
v -0.1 3.9 -0.3
v -0.1 4.1 -0.3
v -0.1 4.3 -0.3
v -0.2 4.5 0.7
v -0.2 5.1 0.7
v -0.2 5.6 0.7
v -0.2 5.1 0.6
v -0.2 5.5 0.6
v -0.2 4.3 0.5
v -0.2 4.5 0.5
v -0.2 4.6 0.5
v -0.2 4.7 0.5
v -0.2 5.4 0.5
v -0.2 5.5 0.5
v -0.2 5.6 0.5
v -0.2 5.8 0.5
v -0.2 5.6 0.4
v -0.2 5.7 0.4
v -0.2 4.5 0.3
v -0.2 4.6 0.3
v -0.2 4.7 0.3
v -0.2 5.4 0.3
v -0.2 5.6 0.3
v -0.2 4.4 -0.3
v -0.2 4.5 -0.3
v -0.2 5.6 -0.3
v -0.2 5.7 -0.3
v -0.2 5.8 -0.3
v -0.2 4.3 -0.5
v -0.2 4.4 -0.5
v -0.2 4.5 -0.5
v 0.2 0 0.2
v 0.2 0 0
v 0.2 0 -0.2
v -0.1 0 0.2
v -0.1 0 0
v -0.1 0 -0.2
v 0.2 0.2 0.3
v 0.2 0.2 0.2
v 0.2 0.2 -0.2
v 0.2 0.2 -0.3
v -0.1 0.2 0.3
v -0.1 0.2 0.2
v -0.1 0.2 -0.2
v -0.1 0.2 -0.3
v 0.2 4.1 0.3
v 0.2 4.1 -0.3
v 0.1 4.1 0.2
v 0.1 4.1 0
v 0.1 4.1 -0.2
v 0 4.1 0.2
v 0 4.1 0
v 0 4.1 -0.2
v -0.1 4.1 0.3
v -0.1 4.1 -0.3
v 0.3 4.3 0.5
v 0.3 4.3 -0.5
v 0.2 4.3 0.3
v 0.2 4.3 -0.3
v -0.1 4.3 0.3
v -0.1 4.3 -0.3
v -0.2 4.3 0.5
v -0.2 4.3 -0.5
v 0.3 4.5 0.7
v 0.3 4.5 0.5
v -0.2 4.5 0.7
v -0.2 4.5 0.5
v 0.3 5.4 0.5
v 0.3 5.4 0.3
v -0.2 5.4 0.5
v -0.2 5.4 0.3
v 0.3 5.6 0.3
v 0.3 5.6 -0.3
v 0.2 5.6 0.2
v 0.2 5.6 -0.2
v -0.1 5.6 0.2
v -0.1 5.6 -0.2
v -0.2 5.6 0.3
v -0.2 5.6 -0.3
v 0.2 3.9 0.3
v 0.2 3.9 0
v 0.2 3.9 -0.3
v 0.1 3.9 0.2
v 0.1 3.9 0
v 0.1 3.9 -0.2
v 0 3.9 0.2
v 0 3.9 0
v 0 3.9 -0.2
v -0.1 3.9 0.3
v -0.1 3.9 0
v -0.1 3.9 -0.3
v 0.3 4.5 0.3
v 0.3 4.5 -0.3
v 0.3 4.5 -0.5
v 0.2 4.5 0.2
v 0.2 4.5 -0.2
v -0.1 4.5 0.2
v -0.1 4.5 -0.2
v -0.2 4.5 0.3
v -0.2 4.5 -0.3
v -0.2 4.5 -0.5
v 0.3 4.7 0.5
v 0.3 4.7 0.3
v -0.2 4.7 0.5
v -0.2 4.7 0.3
v 0.3 5.6 0.7
v 0.3 5.6 0.5
v -0.2 5.6 0.7
v -0.2 5.6 0.5
v 0.3 5.8 0.5
v 0.3 5.8 -0.3
v 0.2 5.8 0.2
v 0.2 5.8 0.1
v 0.2 5.8 -0.2
v -0.1 5.8 0.2
v -0.1 5.8 0.1
v -0.1 5.8 -0.2
v -0.2 5.8 0.5
v -0.2 5.8 -0.3
v 0.2 6 0.2
v 0.2 6 -0.2
v -0.1 6 0.2
v -0.1 6 -0.2

# faces
f 3/3/1 2/3/1 1/3/1
f 4/3/1 2/3/1 3/3/1
f 5/4/1 4/4/1 3/4/1
f 6/4/1 4/4/1 5/4/1
f 9/3/1 8/3/1 7/3/1
f 10/3/1 8/3/1 9/3/1
f 13/4/1 12/4/1 11/4/1
f 14/4/1 12/4/1 13/4/1
f 17/9/1 16/9/1 15/9/1
f 18/9/1 16/9/1 17/9/1
f 19/8/1 18/8/1 17/8/1
f 20/8/1 18/8/1 19/8/1
f 23/3/1 22/3/1 21/3/1
f 24/3/1 22/3/1 23/3/1
f 27/9/1 26/9/1 25/9/1
f 28/9/1 26/9/1 27/9/1
f 31/6/1 30/6/1 29/6/1
f 32/6/1 30/6/1 31/6/1
f 35/2/1 34/2/1 33/2/1
f 36/2/1 34/2/1 35/2/1
f 37/1/1 36/1/1 35/1/1
f 38/1/1 36/1/1 37/1/1
f 39/2/1 38/2/1 37/2/1
f 40/2/1 38/2/1 39/2/1
f 41/1/1 40/1/1 39/1/1
f 42/1/1 40/1/1 41/1/1
f 43/2/1 42/2/1 41/2/1
f 44/2/1 42/2/1 43/2/1
f 45/1/1 44/1/1 43/1/1
f 46/1/1 44/1/1 45/1/1
f 47/2/1 46/2/1 45/2/1
f 48/2/1 46/2/1 47/2/1
f 51/4/1 50/4/1 49/4/1
f 52/4/1 50/4/1 51/4/1
f 53/3/2 54/3/2 55/3/2
f 55/3/2 54/3/2 56/3/2
f 57/3/2 58/3/2 59/3/2
f 59/3/2 58/3/2 60/3/2
f 59/4/2 60/4/2 61/4/2
f 61/4/2 60/4/2 62/4/2
f 63/3/2 64/3/2 65/3/2
f 65/3/2 64/3/2 66/3/2
f 67/8/2 68/8/2 69/8/2
f 69/8/2 68/8/2 70/8/2
f 71/5/2 72/5/2 73/5/2
f 73/5/2 72/5/2 74/5/2
f 75/2/2 76/2/2 77/2/2
f 77/2/2 76/2/2 78/2/2
f 77/1/2 78/1/2 79/1/2
f 79/1/2 78/1/2 80/1/2
f 79/2/2 80/2/2 81/2/2
f 81/2/2 80/2/2 82/2/2
f 81/1/2 82/1/2 83/1/2
f 83/1/2 82/1/2 84/1/2
f 83/2/2 84/2/2 85/2/2
f 85/2/2 84/2/2 86/2/2
f 85/1/2 86/1/2 87/1/2
f 87/1/2 86/1/2 88/1/2
f 87/2/2 88/2/2 89/2/2
f 89/2/2 88/2/2 90/2/2
f 91/3/2 92/3/2 93/3/2
f 93/3/2 92/3/2 94/3/2
f 93/4/2 94/4/2 95/4/2
f 95/4/2 94/4/2 96/4/2
f 97/8/2 98/8/2 99/8/2
f 99/8/2 98/8/2 100/8/2
f 99/7/2 100/7/2 101/7/2
f 101/7/2 100/7/2 102/7/2
f 103/3/2 104/3/2 105/3/2
f 105/3/2 104/3/2 106/3/2
f 107/3/2 108/3/2 109/3/2
f 109/3/2 108/3/2 110/3/2
f 109/4/2 110/4/2 111/4/2
f 111/4/2 110/4/2 112/4/2
f 113/3/2 114/3/2 115/3/2
f 115/3/2 114/3/2 116/3/2
f 115/4/2 116/4/2 117/4/2
f 117/4/2 116/4/2 118/4/2
f 122/3/3 120/3/3 119/3/3
f 122/4/3 121/4/3 120/4/3
f 123/4/3 121/4/3 122/4/3
f 125/3/3 122/3/3 119/3/3
f 125/3/3 123/3/3 122/3/3
f 126/3/3 123/3/3 125/3/3
f 127/3/3 123/3/3 126/3/3
f 128/3/3 123/3/3 127/3/3
f 129/4/3 121/4/3 123/4/3
f 129/3/3 123/3/3 128/3/3
f 130/4/3 121/4/3 129/4/3
f 132/4/3 131/4/3 130/4/3
f 132/3/3 130/3/3 129/3/3
f 132/3/3 129/3/3 128/3/3
f 133/4/3 131/4/3 132/4/3
f 134/3/3 125/3/3 124/3/3
f 134/3/3 126/3/3 125/3/3
f 135/4/3 127/4/3 126/4/3
f 135/3/3 126/3/3 134/3/3
f 136/4/3 127/4/3 135/4/3
f 137/3/3 133/3/3 132/3/3
f 137/3/3 132/3/3 128/3/3
f 138/3/3 133/3/3 137/3/3
f 139/3/3 134/3/3 124/3/3
f 140/3/3 134/3/3 139/3/3
f 141/3/3 133/3/3 138/3/3
f 142/4/3 131/4/3 133/4/3
f 142/3/3 133/3/3 141/3/3
f 143/4/3 131/4/3 142/4/3
f 144/3/3 139/3/3 124/3/3
f 145/4/3 140/4/3 139/4/3
f 145/3/3 139/3/3 144/3/3
f 146/4/3 140/4/3 145/4/3
f 153/9/3 148/9/3 147/9/3
f 164/4/3 163/4/3 162/4/3
f 165/4/3 163/4/3 164/4/3
f 166/9/3 153/9/3 152/9/3
f 167/8/3 149/8/3 148/8/3
f 167/9/3 153/9/3 166/9/3
f 167/9/3 148/9/3 153/9/3
f 168/8/3 149/8/3 167/8/3
f 169/8/3 167/8/3 166/8/3
f 170/8/3 167/8/3 169/8/3
f 171/2/3 155/2/3 154/2/3
f 172/1/3 156/1/3 155/1/3
f 172/2/3 155/2/3 171/2/3
f 173/2/3 157/2/3 156/2/3
f 173/1/3 156/1/3 172/1/3
f 174/1/3 158/1/3 157/1/3
f 174/2/3 157/2/3 173/2/3
f 175/2/3 159/2/3 158/2/3
f 175/1/3 158/1/3 174/1/3
f 176/1/3 160/1/3 159/1/3
f 176/2/3 159/2/3 175/2/3
f 177/2/3 161/2/3 160/2/3
f 177/1/3 160/1/3 176/1/3
f 178/2/3 161/2/3 177/2/3
f 179/3/3 165/3/3 164/3/3
f 180/4/3 163/4/3 165/4/3
f 180/3/3 165/3/3 179/3/3
f 181/4/3 163/4/3 180/4/3
f 182/8/3 167/8/3 170/8/3
f 183/7/3 168/7/3 167/7/3
f 183/8/3 167/8/3 182/8/3
f 184/7/3 168/7/3 183/7/3
f 185/3/3 151/3/3 150/3/3
f 186/3/3 151/3/3 185/3/3
f 189/6/3 188/6/3 187/6/3
f 190/6/3 188/6/3 189/6/3
f 191/5/3 190/5/3 189/5/3
f 192/5/3 190/5/3 191/5/3
f 193/6/4 194/6/4 195/6/4
f 195/6/4 194/6/4 196/6/4
f 195/5/4 196/5/4 197/5/4
f 197/5/4 196/5/4 198/5/4
f 199/9/4 200/9/4 205/9/4
f 214/4/4 215/4/4 216/4/4
f 216/4/4 215/4/4 217/4/4
f 204/9/4 205/9/4 218/9/4
f 200/8/4 201/8/4 219/8/4
f 218/9/4 205/9/4 219/9/4
f 205/9/4 200/9/4 219/9/4
f 219/8/4 201/8/4 220/8/4
f 218/8/4 219/8/4 221/8/4
f 221/8/4 219/8/4 222/8/4
f 206/2/4 207/2/4 223/2/4
f 207/1/4 208/1/4 224/1/4
f 223/2/4 207/2/4 224/2/4
f 208/2/4 209/2/4 225/2/4
f 224/1/4 208/1/4 225/1/4
f 209/1/4 210/1/4 226/1/4
f 225/2/4 209/2/4 226/2/4
f 210/2/4 211/2/4 227/2/4
f 226/1/4 210/1/4 227/1/4
f 211/1/4 212/1/4 228/1/4
f 227/2/4 211/2/4 228/2/4
f 212/2/4 213/2/4 229/2/4
f 228/1/4 212/1/4 229/1/4
f 229/2/4 213/2/4 230/2/4
f 216/3/4 217/3/4 231/3/4
f 217/4/4 215/4/4 232/4/4
f 231/3/4 217/3/4 232/3/4
f 232/4/4 215/4/4 233/4/4
f 222/8/4 219/8/4 234/8/4
f 219/7/4 220/7/4 235/7/4
f 234/8/4 219/8/4 235/8/4
f 235/7/4 220/7/4 236/7/4
f 202/3/4 203/3/4 237/3/4
f 237/3/4 203/3/4 238/3/4
f 239/3/4 240/3/4 242/3/4
f 240/4/4 241/4/4 242/4/4
f 242/4/4 241/4/4 243/4/4
f 239/3/4 242/3/4 245/3/4
f 242/3/4 243/3/4 245/3/4
f 245/3/4 243/3/4 246/3/4
f 246/3/4 243/3/4 247/3/4
f 247/3/4 243/3/4 248/3/4
f 243/4/4 241/4/4 249/4/4
f 248/3/4 243/3/4 249/3/4
f 249/4/4 241/4/4 250/4/4
f 250/4/4 251/4/4 252/4/4
f 249/3/4 250/3/4 252/3/4
f 248/3/4 249/3/4 252/3/4
f 252/4/4 251/4/4 253/4/4
f 244/3/4 245/3/4 254/3/4
f 245/3/4 246/3/4 254/3/4
f 246/4/4 247/4/4 255/4/4
f 254/3/4 246/3/4 255/3/4
f 255/4/4 247/4/4 256/4/4
f 252/3/4 253/3/4 257/3/4
f 248/3/4 252/3/4 257/3/4
f 257/3/4 253/3/4 258/3/4
f 244/3/4 254/3/4 259/3/4
f 259/3/4 254/3/4 260/3/4
f 258/3/4 253/3/4 261/3/4
f 253/4/4 251/4/4 262/4/4
f 261/3/4 253/3/4 262/3/4
f 262/4/4 251/4/4 263/4/4
f 244/3/4 259/3/4 264/3/4
f 259/4/4 260/4/4 265/4/4
f 264/3/4 259/3/4 265/3/4
f 265/4/4 260/4/4 266/4/4
f 270/9/5 268/9/5 267/9/5
f 271/8/5 269/8/5 268/8/5
f 271/9/5 268/9/5 270/9/5
f 272/8/5 269/8/5 271/8/5
f 277/9/5 274/9/5 273/9/5
f 278/9/5 274/9/5 277/9/5
f 279/8/5 276/8/5 275/8/5
f 280/8/5 276/8/5 279/8/5
f 283/3/5 282/3/5 281/3/5
f 284/3/5 282/3/5 283/3/5
f 285/3/5 282/3/5 284/3/5
f 286/3/5 283/3/5 281/3/5
f 288/3/5 282/3/5 285/3/5
f 289/3/5 287/3/5 286/3/5
f 289/3/5 288/3/5 287/3/5
f 289/3/5 286/3/5 281/3/5
f 290/3/5 282/3/5 288/3/5
f 290/3/5 288/3/5 289/3/5
f 293/3/5 292/3/5 291/3/5
f 294/3/5 292/3/5 293/3/5
f 295/3/5 293/3/5 291/3/5
f 296/3/5 292/3/5 294/3/5
f 297/3/5 295/3/5 291/3/5
f 297/3/5 296/3/5 295/3/5
f 298/3/5 292/3/5 296/3/5
f 298/3/5 296/3/5 297/3/5
f 301/3/5 300/3/5 299/3/5
f 302/3/5 300/3/5 301/3/5
f 305/3/5 304/3/5 303/3/5
f 306/3/5 304/3/5 305/3/5
f 309/3/5 308/3/5 307/3/5
f 310/3/5 308/3/5 309/3/5
f 311/3/5 309/3/5 307/3/5
f 312/3/5 308/3/5 310/3/5
f 313/3/5 311/3/5 307/3/5
f 313/3/5 312/3/5 311/3/5
f 314/3/5 308/3/5 312/3/5
f 314/3/5 312/3/5 313/3/5
f 315/8/6 316/8/6 318/8/6
f 316/7/6 317/7/6 319/7/6
f 318/8/6 316/8/6 319/8/6
f 319/7/6 317/7/6 320/7/6
f 315/8/6 318/8/6 321/8/6
f 320/7/6 317/7/6 323/7/6
f 321/8/6 322/8/6 324/8/6
f 315/8/6 321/8/6 324/8/6
f 322/7/6 323/7/6 325/7/6
f 324/8/6 322/8/6 325/8/6
f 323/7/6 317/7/6 326/7/6
f 325/7/6 323/7/6 326/7/6
f 327/3/6 328/3/6 330/3/6
f 330/3/6 328/3/6 331/3/6
f 327/3/6 330/3/6 332/3/6
f 331/3/6 328/3/6 333/3/6
f 327/3/6 332/3/6 334/3/6
f 332/3/6 333/3/6 334/3/6
f 328/4/6 329/4/6 335/4/6
f 334/3/6 333/3/6 335/3/6
f 333/3/6 328/3/6 335/3/6
f 335/4/6 329/4/6 336/4/6
f 337/4/6 338/4/6 339/4/6
f 339/4/6 338/4/6 340/4/6
f 341/4/6 342/4/6 343/4/6
f 343/4/6 342/4/6 344/4/6
f 345/4/6 346/4/6 347/4/6
f 347/4/6 346/4/6 348/4/6
f 348/4/6 346/4/6 349/4/6
f 345/4/6 347/4/6 350/4/6
f 349/4/6 346/4/6 352/4/6
f 350/4/6 351/4/6 353/4/6
f 351/4/6 352/4/6 353/4/6
f 345/4/6 350/4/6 353/4/6
f 352/4/6 346/4/6 354/4/6
f 353/4/6 352/4/6 354/4/6
f 355/4/6 356/4/6 357/4/6
f 357/4/6 356/4/6 358/4/6
