# MagicaVoxel @ Ephtracy

# group
o 

# material
mtllib model.mtl
usemtl palette

# normals
vn -1 0 0
vn 1 0 0
vn 0 0 1
vn 0 0 -1
vn 0 -1 0
vn 0 1 0

# texcoords
vt 0.0292969 0.5
vt 0.306641 0.5
vt 0.509766 0.5

# verts
v -0.6 0.3 1.2
v -0.6 0.3 1.1
v -0.6 0.3 -1.1
v -0.6 0.3 -1.2
v -0.6 0.7 1.2
v -0.6 0.7 1.1
v -0.6 0.7 -1.1
v -0.6 0.7 -1.2
v -0.3 0.5 1.2
v -0.3 0.5 1.1
v -0.3 0.5 -1.1
v -0.3 0.5 -1.2
v -0.3 0.6 1.2
v -0.3 0.6 1.1
v -0.3 0.6 -1.1
v -0.3 0.6 -1.2
v 0.1 0.6 1.2
v 0.1 0.6 1.1
v 0.1 0.6 -1.1
v 0.1 0.6 -1.2
v 0.1 0.7 1.2
v 0.1 0.7 1.1
v 0.1 0.7 -1.1
v 0.1 0.7 -1.2
v 0.5 0 0.9
v 0.5 0 0.3
v 0.5 0 -0.3
v 0.5 0 -0.9
v 0.5 0.1 1
v 0.5 0.1 0.9
v 0.5 0.1 0.3
v 0.5 0.1 0.2
v 0.5 0.1 -0.2
v 0.5 0.1 -0.3
v 0.5 0.1 -0.9
v 0.5 0.1 -1
v 0.5 0.2 1.1
v 0.5 0.2 1
v 0.5 0.2 0.9
v 0.5 0.2 0.3
v 0.5 0.2 0.2
v 0.5 0.2 0.1
v 0.5 0.2 -0.0999999
v 0.5 0.2 -0.2
v 0.5 0.2 -0.3
v 0.5 0.2 -0.9
v 0.5 0.2 -1
v 0.5 0.2 -1.1
v 0.5 0.4 0.4
v 0.5 0.4 0.3
v 0.5 0.4 -0.8
v 0.5 0.4 -0.9
v 0.5 0.5 0.4
v 0.5 0.5 0.3
v 0.5 0.5 0.1
v 0.5 0.5 -0.0999999
v 0.5 0.5 -0.8
v 0.5 0.5 -0.9
v 0.5 0.6 1.1
v 0.5 0.6 0.5
v 0.5 0.6 0.3
v 0.5 0.6 0.1
v 0.5 0.6 -0.0999999
v 0.5 0.6 -0.7
v 0.5 0.6 -0.9
v 0.5 0.6 -1.1
v 0.5 0.7 1.1
v 0.5 0.7 0.6
v 0.5 0.7 0.5
v 0.5 0.7 0.4
v 0.5 0.7 0.3
v 0.5 0.7 -0.6
v 0.5 0.7 -0.7
v 0.5 0.7 -0.8
v 0.5 0.7 -0.9
v 0.5 0.7 -1.1
v 0.5 0.8 1.1
v 0.5 0.8 1
v 0.5 0.8 0.9
v 0.5 0.8 0.6
v 0.5 0.8 0.4
v 0.5 0.8 0.3
v 0.5 0.8 0.2
v 0.5 0.8 0.1
v 0.5 0.8 -0.0999999
v 0.5 0.8 -0.2
v 0.5 0.8 -0.3
v 0.5 0.8 -0.6
v 0.5 0.8 -0.8
v 0.5 0.8 -0.9
v 0.5 0.8 -1
v 0.5 0.8 -1.1
v 0.5 0.9 1
v 0.5 0.9 0.9
v 0.5 0.9 0.3
v 0.5 0.9 0.2
v 0.5 0.9 -0.2
v 0.5 0.9 -0.3
v 0.5 0.9 -0.9
v 0.5 0.9 -1
v 0.5 1 0.9
v 0.5 1 0.3
v 0.5 1 -0.3
v 0.5 1 -0.9
v -0.5 0.3 1.2
v -0.5 0.3 1.1
v -0.5 0.3 -1.1
v -0.5 0.3 -1.2
v -0.5 0.6 1.2
v -0.5 0.6 1.1
v -0.5 0.6 -1.1
v -0.5 0.6 -1.2
v -0.2 0.6 1.2
v -0.2 0.6 1.1
v -0.2 0.6 -1.1
v -0.2 0.6 -1.2
v -0.2 0.7 1.2
v -0.2 0.7 1.1
v -0.2 0.7 -1.1
v -0.2 0.7 -1.2
v 0.2 0.5 1.2
v 0.2 0.5 1.1
v 0.2 0.5 -1.1
v 0.2 0.5 -1.2
v 0.2 0.6 1.2
v 0.2 0.6 1.1
v 0.2 0.6 -1.1
v 0.2 0.6 -1.2
v 0.6 0 0.9
v 0.6 0 0.3
v 0.6 0 -0.3
v 0.6 0 -0.9
v 0.6 0.1 1
v 0.6 0.1 0.9
v 0.6 0.1 0.3
v 0.6 0.1 0.2
v 0.6 0.1 -0.2
v 0.6 0.1 -0.3
v 0.6 0.1 -0.9
v 0.6 0.1 -1
v 0.6 0.2 1.1
v 0.6 0.2 1
v 0.6 0.2 0.9
v 0.6 0.2 0.3
v 0.6 0.2 0.2
v 0.6 0.2 0.1
v 0.6 0.2 -0.0999999
v 0.6 0.2 -0.2
v 0.6 0.2 -0.3
v 0.6 0.2 -0.9
v 0.6 0.2 -1
v 0.6 0.2 -1.1
v 0.6 0.4 0.4
v 0.6 0.4 0.3
v 0.6 0.4 -0.8
v 0.6 0.4 -0.9
v 0.6 0.5 0.4
v 0.6 0.5 0.3
v 0.6 0.5 0.1
v 0.6 0.5 -0.0999999
v 0.6 0.5 -0.8
v 0.6 0.5 -0.9
v 0.6 0.6 1.2
v 0.6 0.6 1.1
v 0.6 0.6 0.5
v 0.6 0.6 0.3
v 0.6 0.6 0.1
v 0.6 0.6 -0.0999999
v 0.6 0.6 -0.7
v 0.6 0.6 -0.9
v 0.6 0.6 -1.1
v 0.6 0.6 -1.2
v 0.6 0.7 1.2
v 0.6 0.7 1.1
v 0.6 0.7 0.6
v 0.6 0.7 0.5
v 0.6 0.7 0.4
v 0.6 0.7 0.3
v 0.6 0.7 -0.6
v 0.6 0.7 -0.7
v 0.6 0.7 -0.8
v 0.6 0.7 -0.9
v 0.6 0.7 -1.1
v 0.6 0.7 -1.2
v 0.6 0.8 1.1
v 0.6 0.8 1
v 0.6 0.8 0.9
v 0.6 0.8 0.6
v 0.6 0.8 0.4
v 0.6 0.8 0.3
v 0.6 0.8 0.2
v 0.6 0.8 0.1
v 0.6 0.8 -0.0999999
v 0.6 0.8 -0.2
v 0.6 0.8 -0.3
v 0.6 0.8 -0.6
v 0.6 0.8 -0.8
v 0.6 0.8 -0.9
v 0.6 0.8 -1
v 0.6 0.8 -1.1
v 0.6 0.9 1
v 0.6 0.9 0.9
v 0.6 0.9 0.3
v 0.6 0.9 0.2
v 0.6 0.9 -0.2
v 0.6 0.9 -0.3
v 0.6 0.9 -0.9
v 0.6 0.9 -1
v 0.6 1 0.9
v 0.6 1 0.3
v 0.6 1 -0.3
v 0.6 1 -0.9
v -0.6 0.3 1.2
v -0.6 0.7 1.2
v -0.5 0.3 1.2
v -0.5 0.6 1.2
v -0.3 0.5 1.2
v -0.3 0.6 1.2
v -0.2 0.6 1.2
v -0.2 0.7 1.2
v 0.1 0.6 1.2
v 0.1 0.7 1.2
v 0.2 0.5 1.2
v 0.2 0.6 1.2
v 0.6 0.6 1.2
v 0.6 0.7 1.2
v 0.5 0.2 1.1
v 0.5 0.6 1.1
v 0.5 0.7 1.1
v 0.5 0.8 1.1
v 0.6 0.2 1.1
v 0.6 0.6 1.1
v 0.6 0.7 1.1
v 0.6 0.8 1.1
v 0.5 0.1 1
v 0.5 0.2 1
v 0.5 0.8 1
v 0.5 0.9 1
v 0.6 0.1 1
v 0.6 0.2 1
v 0.6 0.8 1
v 0.6 0.9 1
v 0.5 0 0.9
v 0.5 0.1 0.9
v 0.5 0.9 0.9
v 0.5 1 0.9
v 0.6 0 0.9
v 0.6 0.1 0.9
v 0.6 0.9 0.9
v 0.6 1 0.9
v 0.5 0.2 -0.0999999
v 0.5 0.5 -0.0999999
v 0.5 0.6 -0.0999999
v 0.5 0.8 -0.0999999
v 0.6 0.2 -0.0999999
v 0.6 0.5 -0.0999999
v 0.6 0.6 -0.0999999
v 0.6 0.8 -0.0999999
v 0.5 0.1 -0.2
v 0.5 0.2 -0.2
v 0.5 0.8 -0.2
v 0.5 0.9 -0.2
v 0.6 0.1 -0.2
v 0.6 0.2 -0.2
v 0.6 0.8 -0.2
v 0.6 0.9 -0.2
v 0.5 0 -0.3
v 0.5 0.1 -0.3
v 0.5 0.9 -0.3
v 0.5 1 -0.3
v 0.6 0 -0.3
v 0.6 0.1 -0.3
v 0.6 0.9 -0.3
v 0.6 1 -0.3
v -0.6 0.3 -1.1
v -0.6 0.7 -1.1
v -0.5 0.3 -1.1
v -0.5 0.6 -1.1
v -0.3 0.5 -1.1
v -0.3 0.6 -1.1
v -0.2 0.6 -1.1
v -0.2 0.7 -1.1
v 0.1 0.6 -1.1
v 0.1 0.7 -1.1
v 0.2 0.5 -1.1
v 0.2 0.6 -1.1
v 0.5 0.6 -1.1
v 0.5 0.7 -1.1
v -0.6 0.3 1.1
v -0.6 0.7 1.1
v -0.5 0.3 1.1
v -0.5 0.6 1.1
v -0.3 0.5 1.1
v -0.3 0.6 1.1
v -0.2 0.6 1.1
v -0.2 0.7 1.1
v 0.1 0.6 1.1
v 0.1 0.7 1.1
v 0.2 0.5 1.1
v 0.2 0.6 1.1
v 0.5 0.6 1.1
v 0.5 0.7 1.1
v 0.5 0 0.3
v 0.5 0.1 0.3
v 0.5 0.9 0.3
v 0.5 1 0.3
v 0.6 0 0.3
v 0.6 0.1 0.3
v 0.6 0.9 0.3
v 0.6 1 0.3
v 0.5 0.1 0.2
v 0.5 0.2 0.2
v 0.5 0.8 0.2
v 0.5 0.9 0.2
v 0.6 0.1 0.2
v 0.6 0.2 0.2
v 0.6 0.8 0.2
v 0.6 0.9 0.2
v 0.5 0.2 0.1
v 0.5 0.5 0.1
v 0.5 0.6 0.1
v 0.5 0.8 0.1
v 0.6 0.2 0.1
v 0.6 0.5 0.1
v 0.6 0.6 0.1
v 0.6 0.8 0.1
v 0.5 0 -0.9
v 0.5 0.1 -0.9
v 0.5 0.9 -0.9
v 0.5 1 -0.9
v 0.6 0 -0.9
v 0.6 0.1 -0.9
v 0.6 0.9 -0.9
v 0.6 1 -0.9
v 0.5 0.1 -1
v 0.5 0.2 -1
v 0.5 0.8 -1
v 0.5 0.9 -1
v 0.6 0.1 -1
v 0.6 0.2 -1
v 0.6 0.8 -1
v 0.6 0.9 -1
v 0.5 0.2 -1.1
v 0.5 0.6 -1.1
v 0.5 0.7 -1.1
v 0.5 0.8 -1.1
v 0.6 0.2 -1.1
v 0.6 0.6 -1.1
v 0.6 0.7 -1.1
v 0.6 0.8 -1.1
v -0.6 0.3 -1.2
v -0.6 0.7 -1.2
v -0.5 0.3 -1.2
v -0.5 0.6 -1.2
v -0.3 0.5 -1.2
v -0.3 0.6 -1.2
v -0.2 0.6 -1.2
v -0.2 0.7 -1.2
v 0.1 0.6 -1.2
v 0.1 0.7 -1.2
v 0.2 0.5 -1.2
v 0.2 0.6 -1.2
v 0.6 0.6 -1.2
v 0.6 0.7 -1.2
v 0.5 0 0.9
v 0.6 0 0.9
v 0.5 0 0.3
v 0.6 0 0.3
v 0.5 0 -0.3
v 0.6 0 -0.3
v 0.5 0 -0.9
v 0.6 0 -0.9
v 0.5 0.1 1
v 0.6 0.1 1
v 0.5 0.1 0.9
v 0.6 0.1 0.9
v 0.5 0.1 0.3
v 0.6 0.1 0.3
v 0.5 0.1 0.2
v 0.6 0.1 0.2
v 0.5 0.1 -0.2
v 0.6 0.1 -0.2
v 0.5 0.1 -0.3
v 0.6 0.1 -0.3
v 0.5 0.1 -0.9
v 0.6 0.1 -0.9
v 0.5 0.1 -1
v 0.6 0.1 -1
v 0.5 0.2 1.1
v 0.6 0.2 1.1
v 0.5 0.2 1
v 0.6 0.2 1
v 0.5 0.2 0.2
v 0.6 0.2 0.2
v 0.5 0.2 0.1
v 0.6 0.2 0.1
v 0.5 0.2 -0.0999999
v 0.6 0.2 -0.0999999
v 0.5 0.2 -0.2
v 0.6 0.2 -0.2
v 0.5 0.2 -1
v 0.6 0.2 -1
v 0.5 0.2 -1.1
v 0.6 0.2 -1.1
v -0.6 0.3 1.2
v -0.5 0.3 1.2
v -0.6 0.3 1.1
v -0.5 0.3 1.1
v -0.6 0.3 -1.1
v -0.5 0.3 -1.1
v -0.6 0.3 -1.2
v -0.5 0.3 -1.2
v -0.3 0.5 1.2
v 0.2 0.5 1.2
v -0.3 0.5 1.1
v 0.2 0.5 1.1
v 0.5 0.5 0.1
v 0.6 0.5 0.1
v 0.5 0.5 -0.0999999
v 0.6 0.5 -0.0999999
v -0.3 0.5 -1.1
v 0.2 0.5 -1.1
v -0.3 0.5 -1.2
v 0.2 0.5 -1.2
v -0.5 0.6 1.2
v -0.3 0.6 1.2
v 0.2 0.6 1.2
v 0.6 0.6 1.2
v -0.5 0.6 1.1
v -0.3 0.6 1.1
v 0.2 0.6 1.1
v 0.5 0.6 1.1
v 0.6 0.6 1.1
v -0.5 0.6 -1.1
v -0.3 0.6 -1.1
v 0.2 0.6 -1.1
v 0.5 0.6 -1.1
v 0.6 0.6 -1.1
v -0.5 0.6 -1.2
v -0.3 0.6 -1.2
v 0.2 0.6 -1.2
v 0.6 0.6 -1.2
v -0.2 0.6 1.2
v 0.1 0.6 1.2
v -0.2 0.6 1.1
v 0.1 0.6 1.1
v 0.5 0.6 0.1
v 0.6 0.6 0.1
v 0.5 0.6 -0.0999999
v 0.6 0.6 -0.0999999
v -0.2 0.6 -1.1
v 0.1 0.6 -1.1
v -0.2 0.6 -1.2
v 0.1 0.6 -1.2
v -0.6 0.7 1.2
v -0.2 0.7 1.2
v 0.1 0.7 1.2
v 0.6 0.7 1.2
v -0.6 0.7 1.1
v -0.2 0.7 1.1
v 0.1 0.7 1.1
v 0.5 0.7 1.1
v 0.6 0.7 1.1
v -0.6 0.7 -1.1
v -0.2 0.7 -1.1
v 0.1 0.7 -1.1
v 0.5 0.7 -1.1
v 0.6 0.7 -1.1
v -0.6 0.7 -1.2
v -0.2 0.7 -1.2
v 0.1 0.7 -1.2
v 0.6 0.7 -1.2
v 0.5 0.8 1.1
v 0.6 0.8 1.1
v 0.5 0.8 1
v 0.6 0.8 1
v 0.5 0.8 0.2
v 0.6 0.8 0.2
v 0.5 0.8 0.1
v 0.6 0.8 0.1
v 0.5 0.8 -0.0999999
v 0.6 0.8 -0.0999999
v 0.5 0.8 -0.2
v 0.6 0.8 -0.2
v 0.5 0.8 -1
v 0.6 0.8 -1
v 0.5 0.8 -1.1
v 0.6 0.8 -1.1
v 0.5 0.9 1
v 0.6 0.9 1
v 0.5 0.9 0.9
v 0.6 0.9 0.9
v 0.5 0.9 0.3
v 0.6 0.9 0.3
v 0.5 0.9 0.2
v 0.6 0.9 0.2
v 0.5 0.9 -0.2
v 0.6 0.9 -0.2
v 0.5 0.9 -0.3
v 0.6 0.9 -0.3
v 0.5 0.9 -0.9
v 0.6 0.9 -0.9
v 0.5 0.9 -1
v 0.6 0.9 -1
v 0.5 1 0.9
v 0.6 1 0.9
v 0.5 1 0.3
v 0.6 1 0.3
v 0.5 1 -0.3
v 0.6 1 -0.3
v 0.5 1 -0.9
v 0.6 1 -0.9

# faces
f 5/3/1 2/3/1 1/3/1
f 6/3/1 2/3/1 5/3/1
f 7/3/1 4/3/1 3/3/1
f 8/3/1 4/3/1 7/3/1
f 13/3/1 10/3/1 9/3/1
f 14/3/1 10/3/1 13/3/1
f 15/3/1 12/3/1 11/3/1
f 16/3/1 12/3/1 15/3/1
f 21/3/1 18/3/1 17/3/1
f 22/3/1 18/3/1 21/3/1
f 23/3/1 20/3/1 19/3/1
f 24/3/1 20/3/1 23/3/1
f 30/3/1 26/3/1 25/3/1
f 31/3/1 26/3/1 30/3/1
f 34/3/1 28/3/1 27/3/1
f 35/3/1 28/3/1 34/3/1
f 38/3/1 30/3/1 29/3/1
f 39/2/1 31/2/1 30/2/1
f 39/3/1 30/3/1 38/3/1
f 40/3/1 32/3/1 31/3/1
f 40/2/1 31/2/1 39/2/1
f 41/3/1 32/3/1 40/3/1
f 44/3/1 34/3/1 33/3/1
f 45/2/1 35/2/1 34/2/1
f 45/3/1 34/3/1 44/3/1
f 46/3/1 36/3/1 35/3/1
f 46/2/1 35/2/1 45/2/1
f 47/3/1 36/3/1 46/3/1
f 49/2/1 39/2/1 38/2/1
f 49/2/1 40/2/1 39/2/1
f 49/2/1 41/2/1 40/2/1
f 50/2/1 41/2/1 49/2/1
f 51/2/1 45/2/1 44/2/1
f 51/2/1 47/2/1 46/2/1
f 51/2/1 46/2/1 45/2/1
f 52/2/1 47/2/1 51/2/1
f 53/1/1 50/1/1 49/1/1
f 53/2/1 49/2/1 38/2/1
f 54/2/1 41/2/1 50/2/1
f 54/1/1 50/1/1 53/1/1
f 55/3/1 42/3/1 41/3/1
f 56/3/1 44/3/1 43/3/1
f 57/1/1 52/1/1 51/1/1
f 57/2/1 51/2/1 44/2/1
f 58/2/1 47/2/1 52/2/1
f 58/1/1 52/1/1 57/1/1
f 59/3/1 38/3/1 37/3/1
f 60/2/1 53/2/1 38/2/1
f 60/2/1 54/2/1 53/2/1
f 61/2/1 41/2/1 54/2/1
f 61/2/1 54/2/1 60/2/1
f 62/3/1 55/3/1 41/3/1
f 62/3/1 56/3/1 55/3/1
f 63/3/1 44/3/1 56/3/1
f 63/3/1 56/3/1 62/3/1
f 64/2/1 57/2/1 44/2/1
f 64/2/1 58/2/1 57/2/1
f 65/2/1 47/2/1 58/2/1
f 65/2/1 58/2/1 64/2/1
f 66/3/1 48/3/1 47/3/1
f 67/3/1 38/3/1 59/3/1
f 68/2/1 60/2/1 38/2/1
f 69/1/1 61/1/1 60/1/1
f 69/2/1 60/2/1 68/2/1
f 70/1/1 61/1/1 69/1/1
f 71/2/1 41/2/1 61/2/1
f 71/1/1 61/1/1 70/1/1
f 72/2/1 64/2/1 44/2/1
f 73/1/1 65/1/1 64/1/1
f 73/2/1 64/2/1 72/2/1
f 74/1/1 65/1/1 73/1/1
f 75/2/1 47/2/1 65/2/1
f 75/1/1 65/1/1 74/1/1
f 76/3/1 66/3/1 47/3/1
f 77/3/1 38/3/1 67/3/1
f 78/2/1 68/2/1 38/2/1
f 78/3/1 38/3/1 77/3/1
f 79/2/1 68/2/1 78/2/1
f 80/1/1 70/1/1 69/1/1
f 80/2/1 68/2/1 79/2/1
f 80/1/1 69/1/1 68/1/1
f 81/2/1 71/2/1 70/2/1
f 81/1/1 70/1/1 80/1/1
f 82/2/1 41/2/1 71/2/1
f 82/2/1 71/2/1 81/2/1
f 83/3/1 62/3/1 41/3/1
f 83/2/1 41/2/1 82/2/1
f 84/3/1 62/3/1 83/3/1
f 85/3/1 44/3/1 63/3/1
f 86/2/1 72/2/1 44/2/1
f 86/3/1 44/3/1 85/3/1
f 87/2/1 72/2/1 86/2/1
f 88/1/1 74/1/1 73/1/1
f 88/2/1 72/2/1 87/2/1
f 88/1/1 73/1/1 72/1/1
f 89/2/1 75/2/1 74/2/1
f 89/1/1 74/1/1 88/1/1
f 90/2/1 47/2/1 75/2/1
f 90/2/1 75/2/1 89/2/1
f 91/3/1 76/3/1 47/3/1
f 91/2/1 47/2/1 90/2/1
f 92/3/1 76/3/1 91/3/1
f 93/3/1 79/3/1 78/3/1
f 94/2/1 81/2/1 80/2/1
f 94/3/1 79/3/1 93/3/1
f 94/2/1 82/2/1 81/2/1
f 94/2/1 80/2/1 79/2/1
f 95/3/1 83/3/1 82/3/1
f 95/2/1 82/2/1 94/2/1
f 96/3/1 83/3/1 95/3/1
f 97/3/1 87/3/1 86/3/1
f 98/2/1 88/2/1 87/2/1
f 98/3/1 87/3/1 97/3/1
f 98/2/1 89/2/1 88/2/1
f 98/2/1 90/2/1 89/2/1
f 99/3/1 91/3/1 90/3/1
f 99/2/1 90/2/1 98/2/1
f 100/3/1 91/3/1 99/3/1
f 101/3/1 95/3/1 94/3/1
f 102/3/1 95/3/1 101/3/1
f 103/3/1 99/3/1 98/3/1
f 104/3/1 99/3/1 103/3/1
f 105/3/2 106/3/2 109/3/2
f 109/3/2 106/3/2 110/3/2
f 107/3/2 108/3/2 111/3/2
f 111/3/2 108/3/2 112/3/2
f 113/3/2 114/3/2 117/3/2
f 117/3/2 114/3/2 118/3/2
f 115/3/2 116/3/2 119/3/2
f 119/3/2 116/3/2 120/3/2
f 121/3/2 122/3/2 125/3/2
f 125/3/2 122/3/2 126/3/2
f 123/3/2 124/3/2 127/3/2
f 127/3/2 124/3/2 128/3/2
f 129/3/2 130/3/2 134/3/2
f 134/3/2 130/3/2 135/3/2
f 131/3/2 132/3/2 138/3/2
f 138/3/2 132/3/2 139/3/2
f 133/3/2 134/3/2 142/3/2
f 134/2/2 135/2/2 143/2/2
f 142/3/2 134/3/2 143/3/2
f 135/3/2 136/3/2 144/3/2
f 143/2/2 135/2/2 144/2/2
f 144/3/2 136/3/2 145/3/2
f 137/3/2 138/3/2 148/3/2
f 138/2/2 139/2/2 149/2/2
f 148/3/2 138/3/2 149/3/2
f 139/3/2 140/3/2 150/3/2
f 149/2/2 139/2/2 150/2/2
f 150/3/2 140/3/2 151/3/2
f 142/2/2 143/2/2 153/2/2
f 143/2/2 144/2/2 153/2/2
f 144/2/2 145/2/2 153/2/2
f 153/2/2 145/2/2 154/2/2
f 148/2/2 149/2/2 155/2/2
f 150/2/2 151/2/2 155/2/2
f 149/2/2 150/2/2 155/2/2
f 155/2/2 151/2/2 156/2/2
f 153/1/2 154/1/2 157/1/2
f 142/2/2 153/2/2 157/2/2
f 154/2/2 145/2/2 158/2/2
f 157/1/2 154/1/2 158/1/2
f 145/3/2 146/3/2 159/3/2
f 147/3/2 148/3/2 160/3/2
f 155/1/2 156/1/2 161/1/2
f 148/2/2 155/2/2 161/2/2
f 156/2/2 151/2/2 162/2/2
f 161/1/2 156/1/2 162/1/2
f 141/3/2 142/3/2 164/3/2
f 142/2/2 157/2/2 165/2/2
f 157/2/2 158/2/2 165/2/2
f 158/2/2 145/2/2 166/2/2
f 165/2/2 158/2/2 166/2/2
f 145/3/2 159/3/2 167/3/2
f 159/3/2 160/3/2 167/3/2
f 160/3/2 148/3/2 168/3/2
f 167/3/2 160/3/2 168/3/2
f 148/2/2 161/2/2 169/2/2
f 161/2/2 162/2/2 169/2/2
f 162/2/2 151/2/2 170/2/2
f 169/2/2 162/2/2 170/2/2
f 151/3/2 152/3/2 171/3/2
f 163/3/2 164/3/2 173/3/2
f 164/3/2 142/3/2 174/3/2
f 173/3/2 164/3/2 174/3/2
f 142/2/2 165/2/2 175/2/2
f 165/1/2 166/1/2 176/1/2
f 175/2/2 165/2/2 176/2/2
f 176/1/2 166/1/2 177/1/2
f 166/2/2 145/2/2 178/2/2
f 177/1/2 166/1/2 178/1/2
f 148/2/2 169/2/2 179/2/2
f 169/1/2 170/1/2 180/1/2
f 179/2/2 169/2/2 180/2/2
f 180/1/2 170/1/2 181/1/2
f 170/2/2 151/2/2 182/2/2
f 181/1/2 170/1/2 182/1/2
f 171/3/2 172/3/2 183/3/2
f 151/3/2 171/3/2 183/3/2
f 183/3/2 172/3/2 184/3/2
f 174/3/2 142/3/2 185/3/2
f 142/2/2 175/2/2 186/2/2
f 185/3/2 142/3/2 186/3/2
f 186/2/2 175/2/2 187/2/2
f 176/1/2 177/1/2 188/1/2
f 187/2/2 175/2/2 188/2/2
f 175/1/2 176/1/2 188/1/2
f 177/2/2 178/2/2 189/2/2
f 188/1/2 177/1/2 189/1/2
f 178/2/2 145/2/2 190/2/2
f 189/2/2 178/2/2 190/2/2
f 145/3/2 167/3/2 191/3/2
f 190/2/2 145/2/2 191/2/2
f 191/3/2 167/3/2 192/3/2
f 168/3/2 148/3/2 193/3/2
f 148/2/2 179/2/2 194/2/2
f 193/3/2 148/3/2 194/3/2
f 194/2/2 179/2/2 195/2/2
f 180/1/2 181/1/2 196/1/2
f 195/2/2 179/2/2 196/2/2
f 179/1/2 180/1/2 196/1/2
f 181/2/2 182/2/2 197/2/2
f 196/1/2 181/1/2 197/1/2
f 182/2/2 151/2/2 198/2/2
f 197/2/2 182/2/2 198/2/2
f 151/3/2 183/3/2 199/3/2
f 198/2/2 151/2/2 199/2/2
f 199/3/2 183/3/2 200/3/2
f 186/3/2 187/3/2 201/3/2
f 188/2/2 189/2/2 202/2/2
f 201/3/2 187/3/2 202/3/2
f 189/2/2 190/2/2 202/2/2
f 187/2/2 188/2/2 202/2/2
f 190/3/2 191/3/2 203/3/2
f 202/2/2 190/2/2 203/2/2
f 203/3/2 191/3/2 204/3/2
f 194/3/2 195/3/2 205/3/2
f 196/2/2 197/2/2 206/2/2
f 205/3/2 195/3/2 206/3/2
f 195/2/2 196/2/2 206/2/2
f 197/2/2 198/2/2 206/2/2
f 198/3/2 199/3/2 207/3/2
f 206/2/2 198/2/2 207/2/2
f 207/3/2 199/3/2 208/3/2
f 202/3/2 203/3/2 209/3/2
f 209/3/2 203/3/2 210/3/2
f 206/3/2 207/3/2 211/3/2
f 211/3/2 207/3/2 212/3/2
f 215/3/3 214/3/3 213/3/3
f 216/3/3 214/3/3 215/3/3
f 218/3/3 214/3/3 216/3/3
f 219/3/3 214/3/3 218/3/3
f 219/3/3 218/3/3 217/3/3
f 220/3/3 214/3/3 219/3/3
f 221/3/3 219/3/3 217/3/3
f 223/3/3 221/3/3 217/3/3
f 223/3/3 222/3/3 221/3/3
f 224/3/3 222/3/3 223/3/3
f 225/3/3 222/3/3 224/3/3
f 226/3/3 222/3/3 225/3/3
f 231/3/3 228/3/3 227/3/3
f 232/3/3 228/3/3 231/3/3
f 233/3/3 230/3/3 229/3/3
f 234/3/3 230/3/3 233/3/3
f 239/3/3 236/3/3 235/3/3
f 240/3/3 236/3/3 239/3/3
f 241/3/3 238/3/3 237/3/3
f 242/3/3 238/3/3 241/3/3
f 247/3/3 244/3/3 243/3/3
f 248/3/3 244/3/3 247/3/3
f 249/3/3 246/3/3 245/3/3
f 250/3/3 246/3/3 249/3/3
f 255/3/3 252/3/3 251/3/3
f 256/3/3 252/3/3 255/3/3
f 257/3/3 254/3/3 253/3/3
f 258/3/3 254/3/3 257/3/3
f 263/3/3 260/3/3 259/3/3
f 264/3/3 260/3/3 263/3/3
f 265/3/3 262/3/3 261/3/3
f 266/3/3 262/3/3 265/3/3
f 271/3/3 268/3/3 267/3/3
f 272/3/3 268/3/3 271/3/3
f 273/3/3 270/3/3 269/3/3
f 274/3/3 270/3/3 273/3/3
f 277/3/3 276/3/3 275/3/3
f 278/3/3 276/3/3 277/3/3
f 280/3/3 276/3/3 278/3/3
f 281/3/3 276/3/3 280/3/3
f 281/3/3 280/3/3 279/3/3
f 282/3/3 276/3/3 281/3/3
f 283/3/3 281/3/3 279/3/3
f 285/3/3 283/3/3 279/3/3
f 285/3/3 284/3/3 283/3/3
f 286/3/3 284/3/3 285/3/3
f 287/3/3 284/3/3 286/3/3
f 288/3/3 284/3/3 287/3/3
f 289/3/4 290/3/4 291/3/4
f 291/3/4 290/3/4 292/3/4
f 292/3/4 290/3/4 294/3/4
f 294/3/4 290/3/4 295/3/4
f 293/3/4 294/3/4 295/3/4
f 295/3/4 290/3/4 296/3/4
f 293/3/4 295/3/4 297/3/4
f 293/3/4 297/3/4 299/3/4
f 297/3/4 298/3/4 299/3/4
f 299/3/4 298/3/4 300/3/4
f 300/3/4 298/3/4 301/3/4
f 301/3/4 298/3/4 302/3/4
f 303/3/4 304/3/4 307/3/4
f 307/3/4 304/3/4 308/3/4
f 305/3/4 306/3/4 309/3/4
f 309/3/4 306/3/4 310/3/4
f 311/3/4 312/3/4 315/3/4
f 315/3/4 312/3/4 316/3/4
f 313/3/4 314/3/4 317/3/4
f 317/3/4 314/3/4 318/3/4
f 319/3/4 320/3/4 323/3/4
f 323/3/4 320/3/4 324/3/4
f 321/3/4 322/3/4 325/3/4
f 325/3/4 322/3/4 326/3/4
f 327/3/4 328/3/4 331/3/4
f 331/3/4 328/3/4 332/3/4
f 329/3/4 330/3/4 333/3/4
f 333/3/4 330/3/4 334/3/4
f 335/3/4 336/3/4 339/3/4
f 339/3/4 336/3/4 340/3/4
f 337/3/4 338/3/4 341/3/4
f 341/3/4 338/3/4 342/3/4
f 343/3/4 344/3/4 347/3/4
f 347/3/4 344/3/4 348/3/4
f 345/3/4 346/3/4 349/3/4
f 349/3/4 346/3/4 350/3/4
f 351/3/4 352/3/4 353/3/4
f 353/3/4 352/3/4 354/3/4
f 354/3/4 352/3/4 356/3/4
f 356/3/4 352/3/4 357/3/4
f 355/3/4 356/3/4 357/3/4
f 357/3/4 352/3/4 358/3/4
f 355/3/4 357/3/4 359/3/4
f 355/3/4 359/3/4 361/3/4
f 359/3/4 360/3/4 361/3/4
f 361/3/4 360/3/4 362/3/4
f 362/3/4 360/3/4 363/3/4
f 363/3/4 360/3/4 364/3/4
f 367/3/5 366/3/5 365/3/5
f 368/3/5 366/3/5 367/3/5
f 371/3/5 370/3/5 369/3/5
f 372/3/5 370/3/5 371/3/5
f 375/3/5 374/3/5 373/3/5
f 376/3/5 374/3/5 375/3/5
f 379/3/5 378/3/5 377/3/5
f 380/3/5 378/3/5 379/3/5
f 383/3/5 382/3/5 381/3/5
f 384/3/5 382/3/5 383/3/5
f 387/3/5 386/3/5 385/3/5
f 388/3/5 386/3/5 387/3/5
f 391/3/5 390/3/5 389/3/5
f 392/3/5 390/3/5 391/3/5
f 395/3/5 394/3/5 393/3/5
f 396/3/5 394/3/5 395/3/5
f 399/3/5 398/3/5 397/3/5
f 400/3/5 398/3/5 399/3/5
f 403/3/5 402/3/5 401/3/5
f 404/3/5 402/3/5 403/3/5
f 407/3/5 406/3/5 405/3/5
f 408/3/5 406/3/5 407/3/5
f 411/3/5 410/3/5 409/3/5
f 412/3/5 410/3/5 411/3/5
f 415/3/5 414/3/5 413/3/5
f 416/3/5 414/3/5 415/3/5
f 419/3/5 418/3/5 417/3/5
f 420/3/5 418/3/5 419/3/5
f 423/3/5 422/3/5 421/3/5
f 424/3/5 422/3/5 423/3/5
f 429/3/5 426/3/5 425/3/5
f 430/3/5 426/3/5 429/3/5
f 431/3/5 428/3/5 427/3/5
f 432/3/5 428/3/5 431/3/5
f 433/3/5 428/3/5 432/3/5
f 439/3/5 435/3/5 434/3/5
f 440/3/5 435/3/5 439/3/5
f 441/3/5 438/3/5 437/3/5
f 441/3/5 437/3/5 436/3/5
f 442/3/5 438/3/5 441/3/5
f 443/3/6 444/3/6 445/3/6
f 445/3/6 444/3/6 446/3/6
f 447/3/6 448/3/6 449/3/6
f 449/3/6 448/3/6 450/3/6
f 451/3/6 452/3/6 453/3/6
f 453/3/6 452/3/6 454/3/6
f 455/3/6 456/3/6 459/3/6
f 459/3/6 456/3/6 460/3/6
f 457/3/6 458/3/6 461/3/6
f 461/3/6 458/3/6 462/3/6
f 462/3/6 458/3/6 463/3/6
f 464/3/6 465/3/6 469/3/6
f 469/3/6 465/3/6 470/3/6
f 467/3/6 468/3/6 471/3/6
f 466/3/6 467/3/6 471/3/6
f 471/3/6 468/3/6 472/3/6
f 473/3/6 474/3/6 475/3/6
f 475/3/6 474/3/6 476/3/6
f 477/3/6 478/3/6 479/3/6
f 479/3/6 478/3/6 480/3/6
f 481/3/6 482/3/6 483/3/6
f 483/3/6 482/3/6 484/3/6
f 485/3/6 486/3/6 487/3/6
f 487/3/6 486/3/6 488/3/6
f 489/3/6 490/3/6 491/3/6
f 491/3/6 490/3/6 492/3/6
f 493/3/6 494/3/6 495/3/6
f 495/3/6 494/3/6 496/3/6
f 497/3/6 498/3/6 499/3/6
f 499/3/6 498/3/6 500/3/6
f 501/3/6 502/3/6 503/3/6
f 503/3/6 502/3/6 504/3/6
f 505/3/6 506/3/6 507/3/6
f 507/3/6 506/3/6 508/3/6
f 509/3/6 510/3/6 511/3/6
f 511/3/6 510/3/6 512/3/6
