# MagicaVoxel @ Ephtracy

# group
o 

# material
mtllib model-3.mtl
usemtl palette

# normals
vn 0 0 1
vn 0 0 -1
vn 1 0 0
vn -1 0 0
vn 0 -1 0
vn 0 1 0

# texcoords
vt 0.771484 0.5
vt 0.775391 0.5
vt 0.779297 0.5

# verts
v 0.4 0.9 -0.2
v -0.4 0.9 -0.2
v 0.4 1 -0.2
v 0.3 1 -0.2
v 0.4 1.1 -0.2
v 0.3 1.1 -0.2
v -0.4 1.1 -0.2
v 0.4 1.3 -0.2
v -0.4 1.3 -0.2
v 0.4 1.6 -0.2
v -0.4 1.6 -0.2
v 0.4 0.9 -0.9
v -0.4 0.9 -0.9
v 0.4 1 -0.9
v 0.3 1 -0.9
v 0.4 1.1 -0.9
v 0.3 1.1 -0.9
v -0.4 1.1 -0.9
v 0.4 1.3 -0.9
v -0.4 1.3 -0.9
v 0.4 1.6 -0.9
v -0.4 1.6 -0.9
v 0.4 0.9 -0.2
v 0.4 1 -0.2
v 0.4 1.1 -0.2
v 0.4 1.3 -0.2
v 0.4 1.6 -0.2
v 0.4 0.9 -0.9
v 0.4 1 -0.9
v 0.4 1.1 -0.9
v 0.4 1.3 -0.9
v 0.4 1.6 -0.9
v -0.4 0.9 -0.2
v -0.4 1.1 -0.2
v -0.4 1.3 -0.2
v -0.4 1.6 -0.2
v -0.4 0.9 -0.9
v -0.4 1.1 -0.9
v -0.4 1.3 -0.9
v -0.4 1.6 -0.9
v 0.4 0.9 -0.2
v 0.4 0.9 -0.9
v -0.4 0.9 -0.2
v -0.4 0.9 -0.9
v 0.4 1.6 -0.2
v 0.4 1.6 -0.9
v -0.4 1.6 -0.2
v -0.4 1.6 -0.9

# faces
f 3/2/1 2/2/1 1/2/1
f 4/2/1 2/2/1 3/2/1
f 5/3/1 4/3/1 3/3/1
f 6/2/1 2/2/1 4/2/1
f 6/3/1 4/3/1 5/3/1
f 7/2/1 2/2/1 6/2/1
f 8/1/1 6/1/1 5/1/1
f 8/1/1 7/1/1 6/1/1
f 9/1/1 7/1/1 8/1/1
f 10/2/1 9/2/1 8/2/1
f 11/2/1 9/2/1 10/2/1
f 12/2/2 13/2/2 14/2/2
f 14/2/2 13/2/2 15/2/2
f 14/3/2 15/3/2 16/3/2
f 15/2/2 13/2/2 17/2/2
f 16/3/2 15/3/2 17/3/2
f 17/2/2 13/2/2 18/2/2
f 16/1/2 17/1/2 19/1/2
f 17/1/2 18/1/2 19/1/2
f 19/1/2 18/1/2 20/1/2
f 19/2/2 20/2/2 21/2/2
f 21/2/2 20/2/2 22/2/2
f 28/2/3 24/2/3 23/2/3
f 29/3/3 25/3/3 24/3/3
f 29/2/3 24/2/3 28/2/3
f 30/1/3 26/1/3 25/1/3
f 30/3/3 25/3/3 29/3/3
f 31/2/3 27/2/3 26/2/3
f 31/1/3 26/1/3 30/1/3
f 32/2/3 27/2/3 31/2/3
f 33/2/4 34/2/4 37/2/4
f 34/1/4 35/1/4 38/1/4
f 37/2/4 34/2/4 38/2/4
f 35/2/4 36/2/4 39/2/4
f 38/1/4 35/1/4 39/1/4
f 39/2/4 36/2/4 40/2/4
f 43/2/5 42/2/5 41/2/5
f 44/2/5 42/2/5 43/2/5
f 45/2/6 46/2/6 47/2/6
f 47/2/6 46/2/6 48/2/6
