# MagicaVoxel @ Ephtracy

# group
o 

# material
mtllib model-10.mtl
usemtl palette

# normals
vn 0 0 1
vn 0 0 -1
vn 1 0 0
vn -1 0 0
vn 0 -1 0
vn 0 1 0

# texcoords
vt 0.771484 0.5
vt 0.775391 0.5
vt 0.779297 0.5

# verts
v 0.3 2.9 -0.9
v -0.3 2.9 -0.9
v 0.3 3.4 -0.9
v 0.2 3.4 -0.9
v 0.3 3.5 -0.9
v 0.2 3.5 -0.9
v -0.3 3.5 -0.9
v 0.3 2.9 -1.7
v -0.3 2.9 -1.7
v 0.3 3.5 -1.7
v -0.3 3.5 -1.7
v 0.3 2.9 -0.9
v 0.3 3.4 -0.9
v 0.3 3.5 -0.9
v 0.3 2.9 -1.2
v 0.3 3.4 -1.2
v 0.3 3.5 -1.2
v 0.3 2.9 -1.5
v 0.3 3.5 -1.5
v 0.3 2.9 -1.7
v 0.3 3.5 -1.7
v -0.3 2.9 -0.9
v -0.3 3.5 -0.9
v -0.3 2.9 -1.2
v -0.3 3.5 -1.2
v -0.3 2.9 -1.5
v -0.3 3.5 -1.5
v -0.3 2.9 -1.7
v -0.3 3.5 -1.7
v 0.3 2.9 -0.9
v 0.3 2.9 -1.2
v 0.3 2.9 -1.5
v 0.3 2.9 -1.7
v -0.3 2.9 -0.9
v -0.3 2.9 -1.2
v -0.3 2.9 -1.5
v -0.3 2.9 -1.7
v 0.3 3.5 -0.9
v 0.3 3.5 -1.2
v 0.3 3.5 -1.5
v 0.3 3.5 -1.7
v 0.2 3.5 -0.9
v 0.2 3.5 -1.2
v -0.3 3.5 -0.9
v -0.3 3.5 -1.2
v -0.3 3.5 -1.5
v -0.3 3.5 -1.7

# faces
f 3/2/1 2/2/1 1/2/1
f 4/2/1 2/2/1 3/2/1
f 5/3/1 4/3/1 3/3/1
f 6/2/1 2/2/1 4/2/1
f 6/3/1 4/3/1 5/3/1
f 7/2/1 2/2/1 6/2/1
f 8/2/2 9/2/2 10/2/2
f 10/2/2 9/2/2 11/2/2
f 15/2/3 13/2/3 12/2/3
f 16/3/3 14/3/3 13/3/3
f 16/2/3 13/2/3 15/2/3
f 17/3/3 14/3/3 16/3/3
f 18/1/3 16/1/3 15/1/3
f 18/1/3 17/1/3 16/1/3
f 19/1/3 17/1/3 18/1/3
f 20/2/3 19/2/3 18/2/3
f 21/2/3 19/2/3 20/2/3
f 22/2/4 23/2/4 24/2/4
f 24/2/4 23/2/4 25/2/4
f 24/1/4 25/1/4 26/1/4
f 26/1/4 25/1/4 27/1/4
f 26/2/4 27/2/4 28/2/4
f 28/2/4 27/2/4 29/2/4
f 34/2/5 31/2/5 30/2/5
f 35/1/5 32/1/5 31/1/5
f 35/2/5 31/2/5 34/2/5
f 36/2/5 33/2/5 32/2/5
f 36/1/5 32/1/5 35/1/5
f 37/2/5 33/2/5 36/2/5
f 38/3/6 39/3/6 42/3/6
f 39/1/6 40/1/6 43/1/6
f 42/3/6 39/3/6 43/3/6
f 42/2/6 43/2/6 44/2/6
f 43/1/6 40/1/6 45/1/6
f 44/2/6 43/2/6 45/2/6
f 40/2/6 41/2/6 46/2/6
f 45/1/6 40/1/6 46/1/6
f 46/2/6 41/2/6 47/2/6
