# MagicaVoxel @ Ephtracy

# group
o 

# material
mtllib model-14.mtl
usemtl palette

# normals
vn 0 0 1
vn 0 0 -1
vn 1 0 0
vn -1 0 0
vn 0 -1 0
vn 0 1 0

# texcoords
vt 0.767578 0.5
vt 0.771484 0.5
vt 0.775391 0.5

# verts
v 0.3 2.9 -1.6
v -0.3 2.9 -1.6
v 0.3 3.5 -1.6
v -0.3 3.5 -1.6
v 0.3 2.9 -2.4
v -0.3 2.9 -2.4
v 0.3 3.1 -2.4
v -0.3 3.1 -2.4
v 0.3 3.3 -2.4
v -0.3 3.3 -2.4
v 0.3 3.5 -2.4
v -0.3 3.5 -2.4
v 0.3 2.9 -1.6
v 0.3 3.5 -1.6
v 0.3 2.9 -1.8
v 0.3 3.1 -1.8
v 0.3 3.3 -1.8
v 0.3 3.5 -1.8
v 0.3 2.9 -2.4
v 0.3 3.1 -2.4
v 0.3 3.3 -2.4
v 0.3 3.5 -2.4
v -0.3 2.9 -1.6
v -0.3 3.5 -1.6
v -0.3 2.9 -1.8
v -0.3 3.1 -1.8
v -0.3 3.3 -1.8
v -0.3 3.5 -1.8
v -0.3 2.9 -2.4
v -0.3 3.1 -2.4
v -0.3 3.3 -2.4
v -0.3 3.5 -2.4
v 0.3 2.9 -1.6
v 0.3 2.9 -1.8
v 0.3 2.9 -2.4
v -0.3 2.9 -1.6
v -0.3 2.9 -1.8
v -0.3 2.9 -2.4
v 0.3 3.5 -1.6
v 0.3 3.5 -1.8
v 0.3 3.5 -2.4
v -0.3 3.5 -1.6
v -0.3 3.5 -1.8
v -0.3 3.5 -2.4

# faces
f 3/3/1 2/3/1 1/3/1
f 4/3/1 2/3/1 3/3/1
f 5/2/2 6/2/2 7/2/2
f 7/2/2 6/2/2 8/2/2
f 7/1/2 8/1/2 9/1/2
f 9/1/2 8/1/2 10/1/2
f 9/2/2 10/2/2 11/2/2
f 11/2/2 10/2/2 12/2/2
f 15/3/3 14/3/3 13/3/3
f 16/3/3 14/3/3 15/3/3
f 17/3/3 14/3/3 16/3/3
f 18/3/3 14/3/3 17/3/3
f 19/2/3 16/2/3 15/2/3
f 20/1/3 17/1/3 16/1/3
f 20/2/3 16/2/3 19/2/3
f 21/2/3 18/2/3 17/2/3
f 21/1/3 17/1/3 20/1/3
f 22/2/3 18/2/3 21/2/3
f 23/3/4 24/3/4 25/3/4
f 25/3/4 24/3/4 26/3/4
f 26/3/4 24/3/4 27/3/4
f 27/3/4 24/3/4 28/3/4
f 25/2/4 26/2/4 29/2/4
f 26/1/4 27/1/4 30/1/4
f 29/2/4 26/2/4 30/2/4
f 27/2/4 28/2/4 31/2/4
f 30/1/4 27/1/4 31/1/4
f 31/2/4 28/2/4 32/2/4
f 36/3/5 34/3/5 33/3/5
f 37/2/5 35/2/5 34/2/5
f 37/3/5 34/3/5 36/3/5
f 38/2/5 35/2/5 37/2/5
f 39/3/6 40/3/6 42/3/6
f 40/2/6 41/2/6 43/2/6
f 42/3/6 40/3/6 43/3/6
f 43/2/6 41/2/6 44/2/6
