# MagicaVoxel @ Ephtracy

# group
o 

# material
mtllib model-1.mtl
usemtl palette

# normals
vn 0 0 1
vn 0 0 -1
vn 1 0 0
vn -1 0 0
vn 0 -1 0
vn 0 1 0

# texcoords
vt 0.771484 0.5
vt 0.775391 0.5
vt 0.779297 0.5

# verts
v 0.8 0 -0.2
v -0.4 0 -0.2
v 0.8 0.1 -0.2
v 0.7 0.1 -0.2
v 0.8 0.2 -0.2
v 0.7 0.2 -0.2
v 0.4 0.2 -0.2
v -0.4 0.2 -0.2
v 0.4 0.4 -0.2
v -0.4 0.4 -0.2
v 0.4 0.6 -0.2
v -0.4 0.6 -0.2
v 0.8 0 -0.9
v -0.4 0 -0.9
v 0.8 0.1 -0.9
v 0.7 0.1 -0.9
v 0.8 0.2 -0.9
v 0.7 0.2 -0.9
v 0.4 0.2 -0.9
v -0.4 0.2 -0.9
v 0.4 0.4 -0.9
v -0.4 0.4 -0.9
v 0.4 0.6 -0.9
v -0.4 0.6 -0.9
v 0.8 0 -0.2
v 0.8 0.1 -0.2
v 0.8 0.2 -0.2
v 0.8 0 -0.9
v 0.8 0.1 -0.9
v 0.8 0.2 -0.9
v 0.4 0.2 -0.2
v 0.4 0.4 -0.2
v 0.4 0.6 -0.2
v 0.4 0.2 -0.9
v 0.4 0.4 -0.9
v 0.4 0.6 -0.9
v -0.4 0 -0.2
v -0.4 0.2 -0.2
v -0.4 0.4 -0.2
v -0.4 0.6 -0.2
v -0.4 0 -0.9
v -0.4 0.2 -0.9
v -0.4 0.4 -0.9
v -0.4 0.6 -0.9
v 0.8 0 -0.2
v 0.8 0 -0.9
v -0.4 0 -0.2
v -0.4 0 -0.9
v 0.8 0.2 -0.2
v 0.8 0.2 -0.9
v 0.7 0.2 -0.2
v 0.7 0.2 -0.9
v 0.4 0.2 -0.2
v 0.4 0.2 -0.9
v 0.4 0.6 -0.2
v 0.4 0.6 -0.9
v -0.4 0.6 -0.2
v -0.4 0.6 -0.9

# faces
f 3/2/1 2/2/1 1/2/1
f 4/2/1 2/2/1 3/2/1
f 5/3/1 4/3/1 3/3/1
f 6/2/1 2/2/1 4/2/1
f 6/3/1 4/3/1 5/3/1
f 7/2/1 2/2/1 6/2/1
f 8/2/1 2/2/1 7/2/1
f 9/1/1 8/1/1 7/1/1
f 10/1/1 8/1/1 9/1/1
f 11/2/1 10/2/1 9/2/1
f 12/2/1 10/2/1 11/2/1
f 13/2/2 14/2/2 15/2/2
f 15/2/2 14/2/2 16/2/2
f 15/3/2 16/3/2 17/3/2
f 16/2/2 14/2/2 18/2/2
f 17/3/2 16/3/2 18/3/2
f 18/2/2 14/2/2 19/2/2
f 19/2/2 14/2/2 20/2/2
f 19/1/2 20/1/2 21/1/2
f 21/1/2 20/1/2 22/1/2
f 21/2/2 22/2/2 23/2/2
f 23/2/2 22/2/2 24/2/2
f 28/2/3 26/2/3 25/2/3
f 29/3/3 27/3/3 26/3/3
f 29/2/3 26/2/3 28/2/3
f 30/3/3 27/3/3 29/3/3
f 34/1/3 32/1/3 31/1/3
f 35/2/3 33/2/3 32/2/3
f 35/1/3 32/1/3 34/1/3
f 36/2/3 33/2/3 35/2/3
f 37/2/4 38/2/4 41/2/4
f 38/1/4 39/1/4 42/1/4
f 41/2/4 38/2/4 42/2/4
f 39/2/4 40/2/4 43/2/4
f 42/1/4 39/1/4 43/1/4
f 43/2/4 40/2/4 44/2/4
f 47/2/5 46/2/5 45/2/5
f 48/2/5 46/2/5 47/2/5
f 49/3/6 50/3/6 51/3/6
f 51/3/6 50/3/6 52/3/6
f 51/2/6 52/2/6 53/2/6
f 53/2/6 52/2/6 54/2/6
f 55/2/6 56/2/6 57/2/6
f 57/2/6 56/2/6 58/2/6
