# MagicaVoxel @ Ephtracy

# group
o 

# material
mtllib model-6.mtl
usemtl palette

# normals
vn 0 0 1
vn 0 0 -1
vn 1 0 0
vn -1 0 0
vn 0 -1 0
vn 0 1 0

# texcoords
vt 0.767578 0.5
vt 0.775391 0.5
vt 0.779297 0.5

# verts
v 0.3 2.9 2.9
v 0.1 2.9 2.9
v -0.1 2.9 2.9
v -0.3 2.9 2.9
v 0.3 3.4 2.9
v 0.2 3.4 2.9
v 0.3 3.5 2.9
v 0.2 3.5 2.9
v 0.1 3.5 2.9
v -0.1 3.5 2.9
v -0.3 3.5 2.9
v 0.3 2.9 2.4
v -0.3 2.9 2.4
v 0.3 3.4 2.4
v 0.2 3.4 2.4
v 0.3 3.5 2.4
v 0.2 3.5 2.4
v -0.3 3.5 2.4
v 0.3 2.9 2.9
v 0.3 3.4 2.9
v 0.3 3.5 2.9
v 0.3 2.9 2.4
v 0.3 3.4 2.4
v 0.3 3.5 2.4
v -0.3 2.9 2.9
v -0.3 3.5 2.9
v -0.3 2.9 2.4
v -0.3 3.5 2.4
v 0.3 2.9 2.9
v 0.3 2.9 2.4
v 0.1 2.9 2.9
v 0.1 2.9 2.6
v -0.1 2.9 2.9
v -0.1 2.9 2.6
v -0.3 2.9 2.9
v -0.3 2.9 2.4
v 0.3 3.5 2.9
v 0.3 3.5 2.4
v 0.2 3.5 2.9
v 0.2 3.5 2.4
v 0.1 3.5 2.9
v 0.1 3.5 2.6
v -0.1 3.5 2.9
v -0.1 3.5 2.6
v -0.3 3.5 2.9
v -0.3 3.5 2.4

# faces
f 5/2/1 2/2/1 1/2/1
f 6/2/1 2/2/1 5/2/1
f 7/3/1 6/3/1 5/3/1
f 8/2/1 2/2/1 6/2/1
f 8/3/1 6/3/1 7/3/1
f 9/1/1 3/1/1 2/1/1
f 9/2/1 2/2/1 8/2/1
f 10/2/1 4/2/1 3/2/1
f 10/1/1 3/1/1 9/1/1
f 11/2/1 4/2/1 10/2/1
f 12/2/2 13/2/2 14/2/2
f 14/2/2 13/2/2 15/2/2
f 14/3/2 15/3/2 16/3/2
f 15/2/2 13/2/2 17/2/2
f 16/3/2 15/3/2 17/3/2
f 17/2/2 13/2/2 18/2/2
f 22/2/3 20/2/3 19/2/3
f 23/3/3 21/3/3 20/3/3
f 23/2/3 20/2/3 22/2/3
f 24/3/3 21/3/3 23/3/3
f 25/2/4 26/2/4 27/2/4
f 27/2/4 26/2/4 28/2/4
f 31/2/5 30/2/5 29/2/5
f 32/2/5 30/2/5 31/2/5
f 33/1/5 32/1/5 31/1/5
f 34/2/5 30/2/5 32/2/5
f 34/1/5 32/1/5 33/1/5
f 35/2/5 34/2/5 33/2/5
f 36/2/5 30/2/5 34/2/5
f 36/2/5 34/2/5 35/2/5
f 37/3/6 38/3/6 39/3/6
f 39/3/6 38/3/6 40/3/6
f 39/2/6 40/2/6 41/2/6
f 41/2/6 40/2/6 42/2/6
f 41/1/6 42/1/6 43/1/6
f 42/2/6 40/2/6 44/2/6
f 43/1/6 42/1/6 44/1/6
f 43/2/6 44/2/6 45/2/6
f 44/2/6 40/2/6 46/2/6
f 45/2/6 44/2/6 46/2/6
