# MagicaVoxel @ Ephtracy

# group
o 

# material
mtllib model-9.mtl
usemtl palette

# normals
vn 0 0 1
vn 0 0 -1
vn 1 0 0
vn -1 0 0
vn 0 -1 0
vn 0 1 0

# texcoords
vt 0.767578 0.5
vt 0.771484 0.5
vt 0.775391 0.5

# verts
v 0.3 2.9 2.4
v -0.3 2.9 2.4
v 0.3 3.1 2.4
v -0.3 3.1 2.4
v 0.3 3.3 2.4
v -0.3 3.3 2.4
v 0.3 3.5 2.4
v -0.3 3.5 2.4
v 0.3 2.9 1.6
v -0.3 2.9 1.6
v 0.3 3.5 1.6
v -0.3 3.5 1.6
v 0.3 2.9 2.4
v 0.3 3.1 2.4
v 0.3 3.3 2.4
v 0.3 3.5 2.4
v 0.3 2.9 1.8
v 0.3 3.1 1.8
v 0.3 3.3 1.8
v 0.3 3.5 1.8
v 0.3 2.9 1.6
v 0.3 3.5 1.6
v -0.3 2.9 2.4
v -0.3 3.1 2.4
v -0.3 3.3 2.4
v -0.3 3.5 2.4
v -0.3 2.9 1.8
v -0.3 3.1 1.8
v -0.3 3.3 1.8
v -0.3 3.5 1.8
v -0.3 2.9 1.6
v -0.3 3.5 1.6
v 0.3 2.9 2.4
v 0.3 2.9 1.8
v 0.3 2.9 1.6
v -0.3 2.9 2.4
v -0.3 2.9 1.8
v -0.3 2.9 1.6
v 0.3 3.5 2.4
v 0.3 3.5 1.8
v 0.3 3.5 1.6
v -0.3 3.5 2.4
v -0.3 3.5 1.8
v -0.3 3.5 1.6

# faces
f 3/2/1 2/2/1 1/2/1
f 4/2/1 2/2/1 3/2/1
f 5/1/1 4/1/1 3/1/1
f 6/1/1 4/1/1 5/1/1
f 7/2/1 6/2/1 5/2/1
f 8/2/1 6/2/1 7/2/1
f 9/3/2 10/3/2 11/3/2
f 11/3/2 10/3/2 12/3/2
f 17/2/3 14/2/3 13/2/3
f 18/1/3 15/1/3 14/1/3
f 18/2/3 14/2/3 17/2/3
f 19/2/3 16/2/3 15/2/3
f 19/1/3 15/1/3 18/1/3
f 20/2/3 16/2/3 19/2/3
f 21/3/3 18/3/3 17/3/3
f 21/3/3 19/3/3 18/3/3
f 21/3/3 20/3/3 19/3/3
f 22/3/3 20/3/3 21/3/3
f 23/2/4 24/2/4 27/2/4
f 24/1/4 25/1/4 28/1/4
f 27/2/4 24/2/4 28/2/4
f 25/2/4 26/2/4 29/2/4
f 28/1/4 25/1/4 29/1/4
f 29/2/4 26/2/4 30/2/4
f 27/3/4 28/3/4 31/3/4
f 28/3/4 29/3/4 31/3/4
f 29/3/4 30/3/4 31/3/4
f 31/3/4 30/3/4 32/3/4
f 36/2/5 34/2/5 33/2/5
f 37/3/5 35/3/5 34/3/5
f 37/2/5 34/2/5 36/2/5
f 38/3/5 35/3/5 37/3/5
f 39/2/6 40/2/6 42/2/6
f 40/3/6 41/3/6 43/3/6
f 42/2/6 40/2/6 43/2/6
f 43/3/6 41/3/6 44/3/6
