# MagicaVoxel @ Ephtracy

# group
o 

# material
mtllib model-13.mtl
usemtl palette

# normals
vn 0 0 1
vn 0 0 -1
vn 1 0 0
vn -1 0 0
vn 0 -1 0
vn 0 1 0

# texcoords
vt 0.767578 0.5
vt 0.771484 0.5
vt 0.775391 0.5
vt 0.779297 0.5

# verts
v 0.4 2.1 0.9
v -0.4 2.1 0.9
v 0.2 2.2 0.9
v -0.2 2.2 0.9
v 0.2 2.3 0.9
v -0.2 2.3 0.9
v 0.2 2.4 0.9
v -0.2 2.4 0.9
v 0.2 2.5 0.9
v -0.2 2.5 0.9
v 0.4 2.6 0.9
v -0.4 2.6 0.9
v 0.4 2.7 0.9
v -0.4 2.7 0.9
v 0.4 3 0.9
v -0.4 3 0.9
v 0.4 3.5 0.9
v -0.4 3.5 0.9
v 0.4 3.5 0.3
v -0.4 3.5 0.3
v 0.4 3.7 0.3
v -0.4 3.7 0.3
v 0.4 3.5 -0.3
v -0.4 3.5 -0.3
v 0.4 3.7 -0.3
v -0.4 3.7 -0.3
v 0.4 2.1 -0.9
v -0.4 2.1 -0.9
v 0.2 2.2 -0.9
v -0.2 2.2 -0.9
v 0.2 2.3 -0.9
v -0.2 2.3 -0.9
v 0.2 2.4 -0.9
v -0.2 2.4 -0.9
v 0.2 2.5 -0.9
v -0.2 2.5 -0.9
v 0.4 2.6 -0.9
v -0.4 2.6 -0.9
v 0.4 2.7 -0.9
v -0.4 2.7 -0.9
v 0.4 3 -0.9
v -0.4 3 -0.9
v 0.4 3.5 -0.9
v -0.4 3.5 -0.9
v 0.4 2.1 0.9
v 0.4 2.6 0.9
v 0.4 2.7 0.9
v 0.4 3 0.9
v 0.4 3.5 0.9
v 0.4 2.3 0.6
v 0.4 2.6 0.6
v 0.4 2.4 0.5
v 0.4 2.7 0.5
v 0.4 2.1 0.3
v 0.4 2.2 0.3
v 0.4 2.7 0.3
v 0.4 2.8 0.3
v 0.4 3 0.3
v 0.4 3.5 0.3
v 0.4 3.7 0.3
v 0.4 2.7 0.2
v 0.4 2.8 0.2
v 0.4 2.7 0.1
v 0.4 3.4 0.1
v 0.4 3.7 0.1
v 0.4 2.7 -0.1
v 0.4 3.4 -0.1
v 0.4 3.7 -0.1
v 0.4 2.7 -0.2
v 0.4 2.8 -0.2
v 0.4 2.1 -0.3
v 0.4 2.2 -0.3
v 0.4 2.7 -0.3
v 0.4 2.8 -0.3
v 0.4 3 -0.3
v 0.4 3.5 -0.3
v 0.4 3.7 -0.3
v 0.4 2.4 -0.5
v 0.4 2.7 -0.5
v 0.4 2.3 -0.6
v 0.4 2.6 -0.6
v 0.4 2.1 -0.9
v 0.4 2.6 -0.9
v 0.4 2.7 -0.9
v 0.4 3 -0.9
v 0.4 3.5 -0.9
v -0.4 2.1 0.9
v -0.4 2.6 0.9
v -0.4 2.7 0.9
v -0.4 3 0.9
v -0.4 3.5 0.9
v -0.4 2.3 0.6
v -0.4 2.6 0.6
v -0.4 2.4 0.5
v -0.4 2.7 0.5
v -0.4 3 0.3
v -0.4 3.5 0.3
v -0.4 3.7 0.3
v -0.4 2.7 0.1
v -0.4 3.4 0.1
v -0.4 3.7 0.1
v -0.4 2.7 -0.1
v -0.4 3.4 -0.1
v -0.4 3.7 -0.1
v -0.4 3 -0.3
v -0.4 3.5 -0.3
v -0.4 3.7 -0.3
v -0.4 2.4 -0.5
v -0.4 2.7 -0.5
v -0.4 2.3 -0.6
v -0.4 2.6 -0.6
v -0.4 2.1 -0.9
v -0.4 2.6 -0.9
v -0.4 2.7 -0.9
v -0.4 3 -0.9
v -0.4 3.5 -0.9
v 0.4 2.1 0.9
v 0.4 2.1 0.3
v 0.4 2.1 -0.3
v 0.4 2.1 -0.9
v 0.3 2.1 0.3
v 0.3 2.1 -0.3
v -0.4 2.1 0.9
v -0.4 2.1 -0.9
v 0.4 3.5 0.9
v 0.4 3.5 0.3
v 0.4 3.5 -0.3
v 0.4 3.5 -0.9
v -0.4 3.5 0.9
v -0.4 3.5 0.3
v -0.4 3.5 -0.3
v -0.4 3.5 -0.9
v 0.4 3.7 0.3
v 0.4 3.7 0.1
v 0.4 3.7 -0.1
v 0.4 3.7 -0.3
v -0.4 3.7 0.3
v -0.4 3.7 0.1
v -0.4 3.7 -0.1
v -0.4 3.7 -0.3

# faces
f 3/3/1 2/3/1 1/3/1
f 4/3/1 2/3/1 3/3/1
f 5/3/1 3/3/1 1/3/1
f 5/2/1 4/2/1 3/2/1
f 6/3/1 2/3/1 4/3/1
f 6/2/1 4/2/1 5/2/1
f 7/3/1 5/3/1 1/3/1
f 7/3/1 6/3/1 5/3/1
f 8/3/1 2/3/1 6/3/1
f 8/3/1 6/3/1 7/3/1
f 9/3/1 7/3/1 1/3/1
f 9/2/1 8/2/1 7/2/1
f 10/3/1 2/3/1 8/3/1
f 10/2/1 8/2/1 9/2/1
f 11/3/1 9/3/1 1/3/1
f 11/3/1 10/3/1 9/3/1
f 12/3/1 2/3/1 10/3/1
f 12/3/1 10/3/1 11/3/1
f 13/2/1 12/2/1 11/2/1
f 14/2/1 12/2/1 13/2/1
f 15/3/1 14/3/1 13/3/1
f 16/3/1 14/3/1 15/3/1
f 17/2/1 16/2/1 15/2/1
f 18/2/1 16/2/1 17/2/1
f 21/3/1 20/3/1 19/3/1
f 22/3/1 20/3/1 21/3/1
f 23/3/2 24/3/2 25/3/2
f 25/3/2 24/3/2 26/3/2
f 27/3/2 28/3/2 29/3/2
f 29/3/2 28/3/2 30/3/2
f 27/3/2 29/3/2 31/3/2
f 29/2/2 30/2/2 31/2/2
f 30/3/2 28/3/2 32/3/2
f 31/2/2 30/2/2 32/2/2
f 27/3/2 31/3/2 33/3/2
f 31/3/2 32/3/2 33/3/2
f 32/3/2 28/3/2 34/3/2
f 33/3/2 32/3/2 34/3/2
f 27/3/2 33/3/2 35/3/2
f 33/2/2 34/2/2 35/2/2
f 34/3/2 28/3/2 36/3/2
f 35/2/2 34/2/2 36/2/2
f 27/3/2 35/3/2 37/3/2
f 35/3/2 36/3/2 37/3/2
f 36/3/2 28/3/2 38/3/2
f 37/3/2 36/3/2 38/3/2
f 37/2/2 38/2/2 39/2/2
f 39/2/2 38/2/2 40/2/2
f 39/3/2 40/3/2 41/3/2
f 41/3/2 40/3/2 42/3/2
f 41/2/2 42/2/2 43/2/2
f 43/2/2 42/2/2 44/2/2
f 50/3/3 46/3/3 45/3/3
f 51/2/3 47/2/3 46/2/3
f 51/3/3 46/3/3 50/3/3
f 52/2/3 51/2/3 50/2/3
f 53/3/3 48/3/3 47/3/3
f 53/2/3 51/2/3 52/2/3
f 53/2/3 47/2/3 51/2/3
f 54/3/3 50/3/3 45/3/3
f 55/3/3 50/3/3 54/3/3
f 56/3/3 48/3/3 53/3/3
f 56/3/3 53/3/3 52/3/3
f 57/3/3 48/3/3 56/3/3
f 58/2/3 49/2/3 48/2/3
f 58/3/3 48/3/3 57/3/3
f 59/2/3 49/2/3 58/2/3
f 61/2/3 57/2/3 56/2/3
f 61/3/3 56/3/3 52/3/3
f 62/3/3 60/3/3 59/3/3
f 62/2/3 57/2/3 61/2/3
f 62/3/3 59/3/3 58/3/3
f 62/3/3 58/3/3 57/3/3
f 63/3/3 61/3/3 52/3/3
f 63/3/3 62/3/3 61/3/3
f 64/3/3 60/3/3 62/3/3
f 64/3/3 62/3/3 63/3/3
f 65/3/3 60/3/3 64/3/3
f 66/3/3 63/3/3 52/3/3
f 66/2/3 64/2/3 63/2/3
f 67/1/3 65/1/3 64/1/3
f 67/2/3 64/2/3 66/2/3
f 68/1/3 65/1/3 67/1/3
f 69/3/3 66/3/3 52/3/3
f 69/3/3 67/3/3 66/3/3
f 69/3/3 68/3/3 67/3/3
f 70/3/3 68/3/3 69/3/3
f 71/4/3 55/4/3 54/4/3
f 72/3/3 50/3/3 55/3/3
f 72/4/3 55/4/3 71/4/3
f 73/3/3 69/3/3 52/3/3
f 73/2/3 70/2/3 69/2/3
f 74/3/3 68/3/3 70/3/3
f 74/2/3 70/2/3 73/2/3
f 75/3/3 68/3/3 74/3/3
f 76/3/3 68/3/3 75/3/3
f 77/3/3 68/3/3 76/3/3
f 78/2/3 52/2/3 50/2/3
f 78/3/3 73/3/3 52/3/3
f 78/3/3 74/3/3 73/3/3
f 78/3/3 75/3/3 74/3/3
f 79/3/3 75/3/3 78/3/3
f 80/3/3 50/3/3 72/3/3
f 80/3/3 72/3/3 71/3/3
f 80/2/3 79/2/3 78/2/3
f 80/2/3 78/2/3 50/2/3
f 81/2/3 79/2/3 80/2/3
f 82/3/3 80/3/3 71/3/3
f 82/3/3 81/3/3 80/3/3
f 83/2/3 79/2/3 81/2/3
f 83/3/3 81/3/3 82/3/3
f 84/3/3 75/3/3 79/3/3
f 84/2/3 79/2/3 83/2/3
f 85/2/3 76/2/3 75/2/3
f 85/3/3 75/3/3 84/3/3
f 86/2/3 76/2/3 85/2/3
f 87/3/4 88/3/4 92/3/4
f 88/2/4 89/2/4 93/2/4
f 92/3/4 88/3/4 93/3/4
f 92/2/4 93/2/4 94/2/4
f 89/3/4 90/3/4 95/3/4
f 94/2/4 93/2/4 95/2/4
f 93/2/4 89/2/4 95/2/4
f 90/2/4 91/2/4 96/2/4
f 95/3/4 90/3/4 96/3/4
f 94/3/4 95/3/4 96/3/4
f 96/2/4 91/2/4 97/2/4
f 94/3/4 96/3/4 99/3/4
f 97/3/4 98/3/4 99/3/4
f 96/3/4 97/3/4 99/3/4
f 99/3/4 98/3/4 100/3/4
f 100/3/4 98/3/4 101/3/4
f 94/3/4 99/3/4 102/3/4
f 99/2/4 100/2/4 102/2/4
f 100/1/4 101/1/4 103/1/4
f 102/2/4 100/2/4 103/2/4
f 103/1/4 101/1/4 104/1/4
f 102/3/4 103/3/4 105/3/4
f 103/3/4 104/3/4 105/3/4
f 105/3/4 104/3/4 106/3/4
f 106/3/4 104/3/4 107/3/4
f 92/2/4 94/2/4 108/2/4
f 94/3/4 102/3/4 108/3/4
f 102/3/4 105/3/4 108/3/4
f 108/3/4 105/3/4 109/3/4
f 87/3/4 92/3/4 110/3/4
f 92/2/4 108/2/4 110/2/4
f 108/2/4 109/2/4 110/2/4
f 110/2/4 109/2/4 111/2/4
f 87/3/4 110/3/4 112/3/4
f 110/3/4 111/3/4 112/3/4
f 111/2/4 109/2/4 113/2/4
f 112/3/4 111/3/4 113/3/4
f 109/3/4 105/3/4 114/3/4
f 113/2/4 109/2/4 114/2/4
f 105/2/4 106/2/4 115/2/4
f 114/3/4 105/3/4 115/3/4
f 115/2/4 106/2/4 116/2/4
f 121/3/5 118/3/5 117/3/5
f 121/4/5 119/4/5 118/4/5
f 122/3/5 120/3/5 119/3/5
f 122/4/5 119/4/5 121/4/5
f 123/3/5 121/3/5 117/3/5
f 123/3/5 122/3/5 121/3/5
f 124/3/5 120/3/5 122/3/5
f 124/3/5 122/3/5 123/3/5
f 125/2/6 126/2/6 129/2/6
f 129/2/6 126/2/6 130/2/6
f 127/2/6 128/2/6 131/2/6
f 131/2/6 128/2/6 132/2/6
f 133/3/6 134/3/6 137/3/6
f 134/1/6 135/1/6 138/1/6
f 137/3/6 134/3/6 138/3/6
f 135/3/6 136/3/6 139/3/6
f 138/1/6 135/1/6 139/1/6
f 139/3/6 136/3/6 140/3/6
