# MagicaVoxel @ Ephtracy

# group
o 

# material
mtllib model-8.mtl
usemtl palette

# normals
vn 0 0 1
vn 0 0 -1
vn 1 0 0
vn -1 0 0
vn 0 -1 0
vn 0 1 0

# texcoords
vt 0.771484 0.5
vt 0.775391 0.5
vt 0.779297 0.5

# verts
v 0.4 1.3 0.9
v -0.4 1.3 0.9
v 0.4 2.2 0.9
v -0.4 2.2 0.9
v 0.4 1.3 -0.9
v -0.4 1.3 -0.9
v 0.4 2.2 -0.9
v -0.4 2.2 -0.9
v 0.4 1.3 0.9
v 0.4 2.2 0.9
v 0.4 1.6 0.8
v 0.4 1.8 0.8
v 0.4 1.6 0.6
v 0.4 1.8 0.6
v 0.4 2.1 0.3
v 0.4 2.2 0.3
v 0.4 2.1 -0.3
v 0.4 2.2 -0.3
v 0.4 1.6 -0.6
v 0.4 1.8 -0.6
v 0.4 1.6 -0.8
v 0.4 1.8 -0.8
v 0.4 1.3 -0.9
v 0.4 2.2 -0.9
v -0.4 1.3 0.9
v -0.4 2.2 0.9
v -0.4 1.6 0.7
v -0.4 1.8 0.7
v -0.4 1.6 0.5
v -0.4 1.8 0.5
v -0.4 1.6 -0.5
v -0.4 1.8 -0.5
v -0.4 1.6 -0.7
v -0.4 1.8 -0.7
v -0.4 1.3 -0.9
v -0.4 2.2 -0.9
v 0.4 1.3 0.9
v 0.4 1.3 -0.9
v -0.4 1.3 0.9
v -0.4 1.3 -0.9
v 0.4 2.2 0.9
v 0.4 2.2 0.3
v 0.4 2.2 -0.3
v 0.4 2.2 -0.9
v 0.3 2.2 0.3
v 0.3 2.2 -0.3
v -0.4 2.2 0.9
v -0.4 2.2 -0.9

# faces
f 3/2/1 2/2/1 1/2/1
f 4/2/1 2/2/1 3/2/1
f 5/2/2 6/2/2 7/2/2
f 7/2/2 6/2/2 8/2/2
f 11/2/3 10/2/3 9/2/3
f 12/2/3 10/2/3 11/2/3
f 13/2/3 11/2/3 9/2/3
f 13/1/3 12/1/3 11/1/3
f 14/2/3 10/2/3 12/2/3
f 14/1/3 12/1/3 13/1/3
f 15/2/3 14/2/3 13/2/3
f 15/2/3 10/2/3 14/2/3
f 16/2/3 10/2/3 15/2/3
f 17/2/3 15/2/3 13/2/3
f 17/3/3 16/3/3 15/3/3
f 18/3/3 16/3/3 17/3/3
f 19/2/3 13/2/3 9/2/3
f 19/2/3 17/2/3 13/2/3
f 19/2/3 18/2/3 17/2/3
f 20/2/3 18/2/3 19/2/3
f 21/2/3 19/2/3 9/2/3
f 21/1/3 20/1/3 19/1/3
f 22/2/3 18/2/3 20/2/3
f 22/1/3 20/1/3 21/1/3
f 23/2/3 21/2/3 9/2/3
f 23/2/3 22/2/3 21/2/3
f 24/2/3 18/2/3 22/2/3
f 24/2/3 22/2/3 23/2/3
f 25/2/4 26/2/4 27/2/4
f 27/2/4 26/2/4 28/2/4
f 25/2/4 27/2/4 29/2/4
f 27/1/4 28/1/4 29/1/4
f 28/2/4 26/2/4 30/2/4
f 29/1/4 28/1/4 30/1/4
f 25/2/4 29/2/4 31/2/4
f 29/2/4 30/2/4 31/2/4
f 30/2/4 26/2/4 32/2/4
f 31/2/4 30/2/4 32/2/4
f 25/2/4 31/2/4 33/2/4
f 31/1/4 32/1/4 33/1/4
f 32/2/4 26/2/4 34/2/4
f 33/1/4 32/1/4 34/1/4
f 25/2/4 33/2/4 35/2/4
f 33/2/4 34/2/4 35/2/4
f 34/2/4 26/2/4 36/2/4
f 35/2/4 34/2/4 36/2/4
f 39/2/5 38/2/5 37/2/5
f 40/2/5 38/2/5 39/2/5
f 41/2/6 42/2/6 45/2/6
f 42/3/6 43/3/6 45/3/6
f 43/2/6 44/2/6 46/2/6
f 45/3/6 43/3/6 46/3/6
f 41/2/6 45/2/6 47/2/6
f 45/2/6 46/2/6 47/2/6
f 46/2/6 44/2/6 48/2/6
f 47/2/6 46/2/6 48/2/6
