# MagicaVoxel @ Ephtracy

# group
o 

# material
mtllib model.mtl
usemtl palette

# normals
vn -1 0 0
vn 1 0 0
vn 0 0 1
vn 0 0 -1
vn 0 -1 0
vn 0 1 0

# texcoords
vt 0.0292969 0.5
vt 0.751953 0.5
vt 0.755859 0.5
vt 0.759766 0.5

# verts
v -0.6 0.5 1
v -0.6 0.5 0.1
v -0.6 0.5 -0.1
v -0.6 0.5 -1
v -0.6 0.6 0.6
v -0.6 0.6 0.3
v -0.6 0.6 -0.5
v -0.6 0.6 -0.8
v -0.6 0.7 1
v -0.6 0.7 0.6
v -0.6 0.7 0.3
v -0.6 0.7 0.1
v -0.6 0.7 -0.1
v -0.6 0.7 -0.5
v -0.6 0.7 -0.8
v -0.6 0.7 -1
v -0.5 0 0.9
v -0.5 0 0.2
v -0.5 0 -0.2
v -0.5 0 -0.9
v -0.5 0.1 0.9
v -0.5 0.1 0.2
v -0.5 0.1 -0.2
v -0.5 0.1 -0.9
v -0.5 0.5 0.9
v -0.5 0.5 0.2
v -0.5 0.5 -0.2
v -0.5 0.5 -0.9
v 0.3 0.4 0.9
v 0.3 0.4 0.2
v 0.3 0.4 -0.2
v 0.3 0.4 -0.9
v 0.3 0.5 0.9
v 0.3 0.5 0.2
v 0.3 0.5 -0.2
v 0.3 0.5 -0.9
v 0.4 0.5 1
v 0.4 0.5 0.1
v 0.4 0.5 -0.1
v 0.4 0.5 -1
v 0.4 0.6 1
v 0.4 0.6 0.9
v 0.4 0.6 0.4
v 0.4 0.6 0.1
v 0.4 0.6 -0.8
v 0.4 0.6 -1
v 0.4 0.7 1
v 0.4 0.7 0.9
v 0.4 0.7 0.4
v 0.4 0.7 0.1
v 0.4 0.7 -0.1
v 0.4 0.7 -0.8
v 0.4 0.7 -1
v 0.7 0 0.9
v 0.7 0 0.2
v 0.7 0 -0.2
v 0.7 0 -0.9
v 0.7 0.1 0.9
v 0.7 0.1 0.2
v 0.7 0.1 -0.2
v 0.7 0.1 -0.9
v 0.7 0.4 0.9
v 0.7 0.4 0.2
v 0.7 0.4 -0.2
v 0.7 0.4 -0.9
v -0.6 0.5 1
v -0.6 0.7 1
v 0.1 0.6 1
v 0.1 0.7 1
v 0.4 0.5 1
v 0.4 0.6 1
v 0.4 0.7 1
v -0.5 0 0.9
v -0.5 0.1 0.9
v -0.5 0.5 0.9
v 0.3 0.4 0.9
v 0.3 0.5 0.9
v 0.7 0 0.9
v 0.7 0.1 0.9
v 0.7 0.4 0.9
v -0.6 0.5 -0.1
v -0.6 0.7 -0.1
v 0.4 0.5 -0.1
v 0.4 0.7 -0.1
v -0.5 0 -0.2
v -0.5 0.1 -0.2
v -0.5 0.5 -0.2
v 0.3 0.4 -0.2
v 0.3 0.5 -0.2
v 0.7 0 -0.2
v 0.7 0.1 -0.2
v 0.7 0.4 -0.2
v -0.5 0 0.2
v -0.5 0.1 0.2
v -0.5 0.5 0.2
v 0.3 0.4 0.2
v 0.3 0.5 0.2
v 0.7 0 0.2
v 0.7 0.1 0.2
v 0.7 0.4 0.2
v -0.6 0.5 0.1
v -0.6 0.7 0.1
v 0.2 0.6 0.1
v 0.2 0.7 0.1
v 0.4 0.5 0.1
v 0.4 0.6 0.1
v 0.4 0.7 0.1
v -0.5 0 -0.9
v -0.5 0.1 -0.9
v -0.5 0.5 -0.9
v 0.3 0.4 -0.9
v 0.3 0.5 -0.9
v 0.7 0 -0.9
v 0.7 0.1 -0.9
v 0.7 0.4 -0.9
v -0.6 0.5 -1
v -0.6 0.7 -1
v 0.1 0.6 -1
v 0.1 0.7 -1
v 0.4 0.5 -1
v 0.4 0.6 -1
v 0.4 0.7 -1
v -0.5 0 0.9
v 0.7 0 0.9
v -0.5 0 0.2
v 0.7 0 0.2
v -0.5 0 -0.2
v 0.7 0 -0.2
v -0.5 0 -0.9
v 0.7 0 -0.9
v -0.6 0.5 1
v 0.4 0.5 1
v -0.5 0.5 0.9
v 0.3 0.5 0.9
v -0.5 0.5 0.2
v 0.3 0.5 0.2
v -0.6 0.5 0.1
v 0.4 0.5 0.1
v -0.6 0.5 -0.1
v 0.4 0.5 -0.1
v -0.5 0.5 -0.2
v 0.3 0.5 -0.2
v -0.5 0.5 -0.9
v 0.3 0.5 -0.9
v -0.6 0.5 -1
v 0.4 0.5 -1
v 0.3 0.4 0.9
v 0.7 0.4 0.9
v 0.3 0.4 0.2
v 0.7 0.4 0.2
v 0.3 0.4 -0.2
v 0.7 0.4 -0.2
v 0.3 0.4 -0.9
v 0.7 0.4 -0.9
v -0.6 0.7 1
v 0.1 0.7 1
v 0.4 0.7 1
v 0.1 0.7 0.9
v 0.4 0.7 0.9
v -0.6 0.7 0.6
v -0.5 0.7 0.6
v 0.3 0.7 0.4
v 0.4 0.7 0.4
v -0.6 0.7 0.3
v -0.5 0.7 0.3
v 0.2 0.7 0.2
v 0.3 0.7 0.2
v -0.6 0.7 0.1
v 0.2 0.7 0.1
v 0.4 0.7 0.1
v -0.6 0.7 -0.1
v 0.4 0.7 -0.1
v -0.6 0.7 -0.5
v -0.5 0.7 -0.5
v -0.6 0.7 -0.8
v -0.5 0.7 -0.8
v 0.3 0.7 -0.8
v 0.4 0.7 -0.8
v 0.1 0.7 -0.9
v 0.3 0.7 -0.9
v -0.6 0.7 -1
v 0.1 0.7 -1
v 0.4 0.7 -1

# faces
f 5/4/1 2/4/1 1/4/1
f 6/4/1 2/4/1 5/4/1
f 7/4/1 4/4/1 3/4/1
f 8/4/1 4/4/1 7/4/1
f 9/4/1 5/4/1 1/4/1
f 10/1/1 6/1/1 5/1/1
f 10/4/1 5/4/1 9/4/1
f 11/4/1 2/4/1 6/4/1
f 11/1/1 6/1/1 10/1/1
f 12/4/1 2/4/1 11/4/1
f 13/4/1 7/4/1 3/4/1
f 14/1/1 8/1/1 7/1/1
f 14/4/1 7/4/1 13/4/1
f 15/4/1 4/4/1 8/4/1
f 15/1/1 8/1/1 14/1/1
f 16/4/1 4/4/1 15/4/1
f 21/2/1 18/2/1 17/2/1
f 22/2/1 18/2/1 21/2/1
f 23/2/1 20/2/1 19/2/1
f 24/2/1 20/2/1 23/2/1
f 25/3/1 22/3/1 21/3/1
f 26/3/1 22/3/1 25/3/1
f 27/3/1 24/3/1 23/3/1
f 28/3/1 24/3/1 27/3/1
f 29/3/2 30/3/2 33/3/2
f 33/3/2 30/3/2 34/3/2
f 31/3/2 32/3/2 35/3/2
f 35/3/2 32/3/2 36/3/2
f 37/4/2 38/4/2 41/4/2
f 41/4/2 38/4/2 42/4/2
f 42/4/2 38/4/2 43/4/2
f 43/4/2 38/4/2 44/4/2
f 39/4/2 40/4/2 45/4/2
f 45/4/2 40/4/2 46/4/2
f 41/1/2 42/1/2 47/1/2
f 42/4/2 43/4/2 48/4/2
f 47/1/2 42/1/2 48/1/2
f 43/1/2 44/1/2 49/1/2
f 48/4/2 43/4/2 49/4/2
f 49/1/2 44/1/2 50/1/2
f 39/4/2 45/4/2 51/4/2
f 45/1/2 46/1/2 52/1/2
f 51/4/2 45/4/2 52/4/2
f 52/1/2 46/1/2 53/1/2
f 54/2/2 55/2/2 58/2/2
f 58/2/2 55/2/2 59/2/2
f 56/2/2 57/2/2 60/2/2
f 60/2/2 57/2/2 61/2/2
f 58/3/2 59/3/2 62/3/2
f 62/3/2 59/3/2 63/3/2
f 60/3/2 61/3/2 64/3/2
f 64/3/2 61/3/2 65/3/2
f 68/4/3 67/4/3 66/4/3
f 69/4/3 67/4/3 68/4/3
f 70/4/3 68/4/3 66/4/3
f 71/1/3 69/1/3 68/1/3
f 71/4/3 68/4/3 70/4/3
f 72/1/3 69/1/3 71/1/3
f 76/3/3 75/3/3 74/3/3
f 77/3/3 75/3/3 76/3/3
f 78/2/3 74/2/3 73/2/3
f 79/3/3 76/3/3 74/3/3
f 79/2/3 74/2/3 78/2/3
f 80/3/3 76/3/3 79/3/3
f 83/4/3 82/4/3 81/4/3
f 84/4/3 82/4/3 83/4/3
f 88/3/3 87/3/3 86/3/3
f 89/3/3 87/3/3 88/3/3
f 90/2/3 86/2/3 85/2/3
f 91/3/3 88/3/3 86/3/3
f 91/2/3 86/2/3 90/2/3
f 92/3/3 88/3/3 91/3/3
f 94/3/4 95/3/4 96/3/4
f 96/3/4 95/3/4 97/3/4
f 93/2/4 94/2/4 98/2/4
f 94/3/4 96/3/4 99/3/4
f 98/2/4 94/2/4 99/2/4
f 99/3/4 96/3/4 100/3/4
f 101/4/4 102/4/4 103/4/4
f 103/4/4 102/4/4 104/4/4
f 101/4/4 103/4/4 105/4/4
f 103/1/4 104/1/4 106/1/4
f 105/4/4 103/4/4 106/4/4
f 106/1/4 104/1/4 107/1/4
f 109/3/4 110/3/4 111/3/4
f 111/3/4 110/3/4 112/3/4
f 108/2/4 109/2/4 113/2/4
f 109/3/4 111/3/4 114/3/4
f 113/2/4 109/2/4 114/2/4
f 114/3/4 111/3/4 115/3/4
f 116/4/4 117/4/4 118/4/4
f 118/4/4 117/4/4 119/4/4
f 116/4/4 118/4/4 120/4/4
f 118/1/4 119/1/4 121/1/4
f 120/4/4 118/4/4 121/4/4
f 121/1/4 119/1/4 122/1/4
f 125/2/5 124/2/5 123/2/5
f 126/2/5 124/2/5 125/2/5
f 129/2/5 128/2/5 127/2/5
f 130/2/5 128/2/5 129/2/5
f 133/4/5 132/4/5 131/4/5
f 134/4/5 132/4/5 133/4/5
f 135/4/5 133/4/5 131/4/5
f 136/4/5 132/4/5 134/4/5
f 137/4/5 135/4/5 131/4/5
f 137/4/5 136/4/5 135/4/5
f 138/4/5 132/4/5 136/4/5
f 138/4/5 136/4/5 137/4/5
f 141/4/5 140/4/5 139/4/5
f 142/4/5 140/4/5 141/4/5
f 143/4/5 141/4/5 139/4/5
f 144/4/5 140/4/5 142/4/5
f 145/4/5 143/4/5 139/4/5
f 145/4/5 144/4/5 143/4/5
f 146/4/5 140/4/5 144/4/5
f 146/4/5 144/4/5 145/4/5
f 147/3/6 148/3/6 149/3/6
f 149/3/6 148/3/6 150/3/6
f 151/3/6 152/3/6 153/3/6
f 153/3/6 152/3/6 154/3/6
f 155/4/6 156/4/6 158/4/6
f 156/1/6 157/1/6 158/1/6
f 158/1/6 157/1/6 159/1/6
f 155/4/6 158/4/6 160/4/6
f 158/4/6 159/4/6 160/4/6
f 160/4/6 159/4/6 161/4/6
f 161/4/6 159/4/6 162/4/6
f 162/4/6 159/4/6 163/4/6
f 160/1/6 161/1/6 164/1/6
f 161/4/6 162/4/6 165/4/6
f 164/1/6 161/1/6 165/1/6
f 164/4/6 165/4/6 166/4/6
f 165/4/6 162/4/6 166/4/6
f 162/1/6 163/1/6 167/1/6
f 166/4/6 162/4/6 167/4/6
f 164/4/6 166/4/6 168/4/6
f 166/1/6 167/1/6 169/1/6
f 168/4/6 166/4/6 169/4/6
f 167/1/6 163/1/6 170/1/6
f 169/1/6 167/1/6 170/1/6
f 171/4/6 172/4/6 173/4/6
f 173/4/6 172/4/6 174/4/6
f 173/1/6 174/1/6 175/1/6
f 174/4/6 172/4/6 176/4/6
f 175/1/6 174/1/6 176/1/6
f 176/4/6 172/4/6 177/4/6
f 177/4/6 172/4/6 178/4/6
f 175/4/6 176/4/6 179/4/6
f 176/4/6 177/4/6 179/4/6
f 177/1/6 178/1/6 180/1/6
f 179/4/6 177/4/6 180/4/6
f 175/4/6 179/4/6 181/4/6
f 179/1/6 180/1/6 182/1/6
f 181/4/6 179/4/6 182/4/6
f 180/1/6 178/1/6 183/1/6
f 182/1/6 180/1/6 183/1/6
