# MagicaVoxel @ Ephtracy

# group
o 

# material
mtllib model.mtl
usemtl palette

# normals
vn 0 0 1
vn 0 0 -1
vn 1 0 0
vn -1 0 0
vn 0 -1 0
vn 0 1 0

# texcoords
vt 0.0292969 0.5
vt 0.0371094 0.5
vt 0.255859 0.5
vt 0.583984 0.5
vt 0.587891 0.5
vt 0.591797 0.5

# verts
v 0.7 0 2
v 0.3 0 2
v 0.6 0.2 2
v 0.4 0.2 2
v -0.0999999 0.2 2
v -0.5 0.2 2
v 0.6 0.4 2
v 0.4 0.4 2
v -0.2 0.4 2
v -0.4 0.4 2
v 0.7 0.5 2
v 0.3 0.5 2
v -0.2 0.6 2
v -0.4 0.6 2
v -0.0999999 0.7 2
v -0.5 0.7 2
v 1.1 1.9 1.6
v -1.1 1.9 1.6
v 1.1 2.2 1.6
v -1.1 2.2 1.6
v 0.7 0.3 1.5
v 0.3 0.3 1.5
v -0.0999999 0.5 1.5
v -0.5 0.5 1.5
v 0.7 1.9 1.5
v 0.3 1.9 1.5
v -0.0999999 1.9 1.5
v -0.5 1.9 1.5
v 1 2.2 1.5
v -1 2.2 1.5
v 1 2.7 1.5
v -1 2.7 1.5
v 1 2.9 1.5
v -1 2.9 1.5
v 1 3.5 1.5
v -1 3.5 1.5
v 1.3 1.9 1.4
v 1.1 1.9 1.4
v -1.1 1.9 1.4
v -1.3 1.9 1.4
v 1.3 2.2 1.4
v 1.1 2.2 1.4
v -1.1 2.2 1.4
v -1.3 2.2 1.4
v 1.2 2.2 1.3
v 1 2.2 1.3
v -1 2.2 1.3
v -1.2 2.2 1.3
v 1.2 2.7 1.3
v 1 2.7 1.3
v -1 2.7 1.3
v -1.2 2.7 1.3
v 1.2 2.9 1.3
v 1 2.9 1.3
v -1 2.9 1.3
v -1.2 2.9 1.3
v 1.2 3.5 1.3
v 1 3.5 1.3
v 0.8 3.5 1.3
v -0.8 3.5 1.3
v -1 3.5 1.3
v -1.2 3.5 1.3
v 0.8 3.8 1.3
v -0.8 3.8 1.3
v -0.9 0.1 1.1
v -1.7 0.1 1.1
v -0.9 0.2 1.1
v -1.6 0.2 1.1
v -1.2 0.4 1.1
v -1.5 0.4 1.1
v -1.5 0.6 1.1
v -1.6 0.6 1.1
v -1.7 0.6 1.1
v -0.9 1.9 1.1
v -1.2 1.9 1.1
v 1 3.5 1.1
v 0.8 3.5 1.1
v -0.8 3.5 1.1
v -1 3.5 1.1
v 1 3.8 1.1
v 0.8 3.8 1.1
v -0.8 3.8 1.1
v -1 3.8 1.1
v 1.3 2.2 0.8
v 1.2 2.2 0.8
v 1.3 2.7 0.8
v 1.2 2.7 0.8
v 0.3 3.8 0.8
v -0.3 3.8 0.8
v 0.3 4 0.8
v -0.3 4 0.8
v 0.5 3.8 0.6
v 0.3 3.8 0.6
v -0.3 3.8 0.6
v -0.5 3.8 0.6
v 0.5 4 0.6
v 0.3 4 0.6
v -0.3 4 0.6
v -0.5 4 0.6
v -0.9 0.2 0.5
v -1.7 0.2 0.5
v -0.9 0.3 0.5
v -1.6 0.3 0.5
v -1.2 0.5 0.5
v -1.5 0.5 0.5
v -1.5 0.7 0.5
v -1.6 0.7 0.5
v -1.7 0.7 0.5
v -0.9 1.9 0.5
v -1.2 1.9 0.5
v -0.9 0 -0.1
v -1.7 0 -0.1
v -0.9 0.1 -0.1
v -1.6 0.1 -0.1
v -1.2 0.3 -0.1
v -1.5 0.3 -0.1
v -1.5 0.5 -0.1
v -1.6 0.5 -0.1
v -1.7 0.5 -0.1
v -0.9 1.9 -0.1
v -1.2 1.9 -0.1
v 1.3 2.2 -0.2
v 1.2 2.2 -0.2
v 1.2 2.7 -0.2
v 1.3 2.9 -0.2
v 1.2 2.9 -0.2
v -0.9 0.1 -0.7
v -1.7 0.1 -0.7
v -0.9 0.2 -0.7
v -1.6 0.2 -0.7
v -1.2 0.4 -0.7
v -1.5 0.4 -0.7
v -1.5 0.6 -0.7
v -1.6 0.6 -0.7
v -1.7 0.6 -0.7
v -0.9 1.9 -0.7
v -1.2 1.9 -0.7
v 0.7 0 -1.2
v 0.3 0 -1.2
v -0.0999999 0.2 -1.2
v -0.5 0.2 -1.2
v 0.7 1.9 -1.2
v 0.3 1.9 -1.2
v -0.0999999 1.9 -1.2
v -0.5 1.9 -1.2
v 0.7 0.3 -1.8
v 0.3 0.3 -1.8
v 0.7 0.5 -1.8
v 0.3 0.5 -1.8
v -0.0999999 0.5 -1.8
v -0.5 0.5 -1.8
v -0.0999999 0.7 -1.8
v -0.5 0.7 -1.8
v 0.7 0.3 1.8
v 0.3 0.3 1.8
v 0.7 0.5 1.8
v 0.3 0.5 1.8
v -0.0999999 0.5 1.8
v -0.5 0.5 1.8
v -0.0999999 0.7 1.8
v -0.5 0.7 1.8
v 0.7 0 1.2
v 0.3 0 1.2
v -0.0999999 0.2 1.2
v -0.5 0.2 1.2
v 0.7 1.9 1.2
v 0.3 1.9 1.2
v -0.0999999 1.9 1.2
v -0.5 1.9 1.2
v -0.9 0.1 0.7
v -1.7 0.1 0.7
v -0.9 0.2 0.7
v -1.6 0.2 0.7
v -1.2 0.4 0.7
v -1.5 0.4 0.7
v -1.5 0.6 0.7
v -1.6 0.6 0.7
v -1.7 0.6 0.7
v -0.9 1.9 0.7
v -1.2 1.9 0.7
v 1.3 2.2 0.3
v 1.2 2.2 0.3
v 1.3 2.7 0.3
v 1.2 2.7 0.3
v -0.9 0.2 0.0999999
v -1.7 0.2 0.0999999
v -0.9 0.3 0.0999999
v -1.6 0.3 0.0999999
v -1.2 0.5 0.0999999
v -1.5 0.5 0.0999999
v -1.5 0.7 0.0999999
v -1.6 0.7 0.0999999
v -1.7 0.7 0.0999999
v -0.9 1.9 0.0999999
v -1.2 1.9 0.0999999
v -0.9 0 -0.5
v -1.7 0 -0.5
v -0.9 0.1 -0.5
v -1.6 0.1 -0.5
v -1.2 0.3 -0.5
v -1.5 0.3 -0.5
v -1.5 0.5 -0.5
v -1.6 0.5 -0.5
v -1.7 0.5 -0.5
v -0.9 1.9 -0.5
v -1.2 1.9 -0.5
v 0.5 3.8 -0.6
v 0.3 3.8 -0.6
v -0.3 3.8 -0.6
v -0.5 3.8 -0.6
v 0.5 4 -0.6
v 0.3 4 -0.6
v -0.3 4 -0.6
v -0.5 4 -0.6
v 0.3 3.8 -0.8
v -0.3 3.8 -0.8
v 0.3 4 -0.8
v -0.3 4 -0.8
v 1.3 2.2 -0.9
v 1.2 2.2 -0.9
v 1.2 2.7 -0.9
v 1.3 2.9 -0.9
v 1.2 2.9 -0.9
v -0.9 0.1 -1.1
v -1.7 0.1 -1.1
v -0.9 0.2 -1.1
v -1.6 0.2 -1.1
v -1.2 0.4 -1.1
v -1.5 0.4 -1.1
v -1.5 0.6 -1.1
v -1.6 0.6 -1.1
v -1.7 0.6 -1.1
v -0.9 1.9 -1.1
v -1.2 1.9 -1.1
v 1 3.5 -1.1
v 0.8 3.5 -1.1
v -0.8 3.5 -1.1
v -1 3.5 -1.1
v 1 3.8 -1.1
v 0.8 3.8 -1.1
v -0.8 3.8 -1.1
v -1 3.8 -1.1
v 1.2 2.2 -1.3
v 1 2.2 -1.3
v -1 2.2 -1.3
v -1.2 2.2 -1.3
v 1.2 2.7 -1.3
v 1 2.7 -1.3
v -1 2.7 -1.3
v -1.2 2.7 -1.3
v 1.2 2.9 -1.3
v 1 2.9 -1.3
v -1 2.9 -1.3
v -1.2 2.9 -1.3
v 1.2 3.5 -1.3
v 1 3.5 -1.3
v 0.8 3.5 -1.3
v -0.8 3.5 -1.3
v -1 3.5 -1.3
v -1.2 3.5 -1.3
v 0.8 3.8 -1.3
v -0.8 3.8 -1.3
v 1.3 1.9 -1.4
v 1.1 1.9 -1.4
v -1.1 1.9 -1.4
v -1.3 1.9 -1.4
v 1.3 2.2 -1.4
v 1.1 2.2 -1.4
v -1.1 2.2 -1.4
v -1.3 2.2 -1.4
v 0.7 0.3 -1.5
v 0.3 0.3 -1.5
v -0.0999999 0.5 -1.5
v -0.5 0.5 -1.5
v 0.7 1.9 -1.5
v 0.3 1.9 -1.5
v -0.0999999 1.9 -1.5
v -0.5 1.9 -1.5
v 1 2.2 -1.5
v -1 2.2 -1.5
v 1 2.7 -1.5
v -1 2.7 -1.5
v 1 2.9 -1.5
v -1 2.9 -1.5
v 1 3.5 -1.5
v -1 3.5 -1.5
v 1.1 1.9 -1.6
v -1.1 1.9 -1.6
v 1.1 2.2 -1.6
v -1.1 2.2 -1.6
v 0.7 0 -2
v 0.3 0 -2
v 0.6 0.2 -2
v 0.4 0.2 -2
v -0.0999999 0.2 -2
v -0.5 0.2 -2
v 0.6 0.4 -2
v 0.4 0.4 -2
v -0.2 0.4 -2
v -0.4 0.4 -2
v 0.7 0.5 -2
v 0.3 0.5 -2
v -0.2 0.6 -2
v -0.4 0.6 -2
v -0.0999999 0.7 -2
v -0.5 0.7 -2
v 1.3 1.9 1.4
v 1.3 2.2 1.4
v 1.3 2.2 0.8
v 1.3 2.7 0.8
v 1.3 2.2 0.7
v 1.3 2.6 0.7
v 1.3 2.4 0.6
v 1.3 2.5 0.6
v 1.3 2.4 0.5
v 1.3 2.5 0.5
v 1.3 2.2 0.4
v 1.3 2.6 0.4
v 1.3 2.2 0.3
v 1.3 2.7 0.3
v 1.3 2.2 -0.2
v 1.3 2.9 -0.2
v 1.3 2.2 -0.9
v 1.3 2.9 -0.9
v 1.3 1.9 -1.4
v 1.3 2.2 -1.4
v 1.2 2.2 1.3
v 1.2 2.7 1.3
v 1.2 2.9 1.3
v 1.2 3.5 1.3
v 1.2 2.2 0.8
v 1.2 2.7 0.8
v 1.2 2.2 0.3
v 1.2 2.7 0.3
v 1.2 2.2 -0.2
v 1.2 2.7 -0.2
v 1.2 2.9 -0.2
v 1.2 2.2 -0.9
v 1.2 2.7 -0.9
v 1.2 2.9 -0.9
v 1.2 2.2 -1.3
v 1.2 2.7 -1.3
v 1.2 2.9 -1.3
v 1.2 3.5 -1.3
v 1.1 1.9 1.6
v 1.1 2.2 1.6
v 1.1 1.9 1.4
v 1.1 2.2 1.4
v 1.1 1.9 -1.4
v 1.1 2.2 -1.4
v 1.1 1.9 -1.6
v 1.1 2.2 -1.6
v 1 2.2 1.5
v 1 2.7 1.5
v 1 2.9 1.5
v 1 3.5 1.5
v 1 2.2 1.3
v 1 2.7 1.3
v 1 2.9 1.3
v 1 3.5 1.3
v 1 3.5 1.1
v 1 3.8 1.1
v 1 3.5 -1.1
v 1 3.8 -1.1
v 1 2.2 -1.3
v 1 2.7 -1.3
v 1 2.9 -1.3
v 1 3.5 -1.3
v 1 2.2 -1.5
v 1 2.7 -1.5
v 1 2.9 -1.5
v 1 3.5 -1.5
v 0.8 3.5 1.3
v 0.8 3.8 1.3
v 0.8 3.5 1.1
v 0.8 3.8 1.1
v 0.8 3.5 -1.1
v 0.8 3.8 -1.1
v 0.8 3.5 -1.3
v 0.8 3.8 -1.3
v 0.7 0 2
v 0.7 0.5 2
v 0.7 0.1 1.9
v 0.7 0.5 1.9
v 0.7 0.3 1.8
v 0.7 0.5 1.8
v 0.7 0.3 1.5
v 0.7 1.9 1.5
v 0.7 0.1 1.3
v 0.7 1.9 1.3
v 0.7 0 1.2
v 0.7 1.9 1.2
v 0.7 0 -1.2
v 0.7 1.9 -1.2
v 0.7 0.1 -1.3
v 0.7 1.9 -1.3
v 0.7 0.3 -1.5
v 0.7 1.9 -1.5
v 0.7 0.3 -1.8
v 0.7 0.5 -1.8
v 0.7 0.1 -1.9
v 0.7 0.5 -1.9
v 0.7 0 -2
v 0.7 0.5 -2
v 0.5 3.8 0.6
v 0.5 4 0.6
v 0.5 3.8 -0.6
v 0.5 4 -0.6
v 0.3 3.8 0.8
v 0.3 4 0.8
v 0.3 3.8 0.6
v 0.3 4 0.6
v 0.3 3.8 -0.6
v 0.3 4 -0.6
v 0.3 3.8 -0.8
v 0.3 4 -0.8
v -0.0999999 0.2 2
v -0.0999999 0.7 2
v -0.0999999 0.3 1.9
v -0.0999999 0.7 1.9
v -0.0999999 0.5 1.8
v -0.0999999 0.7 1.8
v -0.0999999 0.5 1.5
v -0.0999999 1.9 1.5
v -0.0999999 0.3 1.3
v -0.0999999 1.9 1.3
v -0.0999999 0.2 1.2
v -0.0999999 1.9 1.2
v -0.0999999 0.2 -1.2
v -0.0999999 1.9 -1.2
v -0.0999999 0.3 -1.3
v -0.0999999 1.9 -1.3
v -0.0999999 0.5 -1.5
v -0.0999999 1.9 -1.5
v -0.0999999 0.5 -1.8
v -0.0999999 0.7 -1.8
v -0.0999999 0.3 -1.9
v -0.0999999 0.7 -1.9
v -0.0999999 0.2 -2
v -0.0999999 0.7 -2
v -0.9 0.1 1.1
v -0.9 0.2 1.1
v -0.9 1.9 1.1
v -0.9 0.1 0.7
v -0.9 0.2 0.7
v -0.9 1.9 0.7
v -0.9 0.2 0.5
v -0.9 0.3 0.5
v -0.9 1.9 0.5
v -0.9 0.2 0.0999999
v -0.9 0.3 0.0999999
v -0.9 1.9 0.0999999
v -0.9 0 -0.1
v -0.9 0.1 -0.1
v -0.9 1.9 -0.1
v -0.9 0 -0.5
v -0.9 0.1 -0.5
v -0.9 1.9 -0.5
v -0.9 0.1 -0.7
v -0.9 0.2 -0.7
v -0.9 1.9 -0.7
v -0.9 0.1 -1.1
v -0.9 0.2 -1.1
v -0.9 1.9 -1.1
v -1.5 0.4 1.1
v -1.5 0.6 1.1
v -1.5 0.4 0.7
v -1.5 0.6 0.7
v -1.5 0.5 0.5
v -1.5 0.7 0.5
v -1.5 0.5 0.0999999
v -1.5 0.7 0.0999999
v -1.5 0.3 -0.1
v -1.5 0.5 -0.1
v -1.5 0.3 -0.5
v -1.5 0.5 -0.5
v -1.5 0.4 -0.7
v -1.5 0.6 -0.7
v -1.5 0.4 -1.1
v -1.5 0.6 -1.1
v 0.3 0 2
v 0.3 0.5 2
v 0.3 0.1 1.9
v 0.3 0.5 1.9
v 0.3 0.3 1.8
v 0.3 0.5 1.8
v 0.3 0.3 1.5
v 0.3 1.9 1.5
v 0.3 0.1 1.3
v 0.3 1.9 1.3
v 0.3 0 1.2
v 0.3 1.9 1.2
v 0.3 0 -1.2
v 0.3 1.9 -1.2
v 0.3 0.1 -1.3
v 0.3 1.9 -1.3
v 0.3 0.3 -1.5
v 0.3 1.9 -1.5
v 0.3 0.3 -1.8
v 0.3 0.5 -1.8
v 0.3 0.1 -1.9
v 0.3 0.5 -1.9
v 0.3 0 -2
v 0.3 0.5 -2
v -0.3 3.8 0.8
v -0.3 4 0.8
v -0.3 3.8 0.6
v -0.3 4 0.6
v -0.3 3.8 -0.6
v -0.3 4 -0.6
v -0.3 3.8 -0.8
v -0.3 4 -0.8
v -0.5 0.2 2
v -0.5 0.7 2
v -0.5 0.3 1.9
v -0.5 0.7 1.9
v -0.5 0.5 1.8
v -0.5 0.7 1.8
v -0.5 0.5 1.5
v -0.5 1.9 1.5
v -0.5 0.3 1.3
v -0.5 1.9 1.3
v -0.5 0.2 1.2
v -0.5 1.9 1.2
v -0.5 3.8 0.6
v -0.5 4 0.6
v -0.5 3.8 -0.6
v -0.5 4 -0.6
v -0.5 0.2 -1.2
v -0.5 1.9 -1.2
v -0.5 0.3 -1.3
v -0.5 1.9 -1.3
v -0.5 0.5 -1.5
v -0.5 1.9 -1.5
v -0.5 0.5 -1.8
v -0.5 0.7 -1.8
v -0.5 0.3 -1.9
v -0.5 0.7 -1.9
v -0.5 0.2 -2
v -0.5 0.7 -2
v -0.8 3.5 1.3
v -0.8 3.8 1.3
v -0.8 3.5 1.1
v -0.8 3.8 1.1
v -0.8 3.5 -1.1
v -0.8 3.8 -1.1
v -0.8 3.5 -1.3
v -0.8 3.8 -1.3
v -1 2.2 1.5
v -1 2.7 1.5
v -1 2.9 1.5
v -1 3.5 1.5
v -1 2.2 1.3
v -1 2.7 1.3
v -1 2.9 1.3
v -1 3.5 1.3
v -1 3.5 1.1
v -1 3.8 1.1
v -1 3.5 -1.1
v -1 3.8 -1.1
v -1 2.2 -1.3
v -1 2.7 -1.3
v -1 2.9 -1.3
v -1 3.5 -1.3
v -1 2.2 -1.5
v -1 2.7 -1.5
v -1 2.9 -1.5
v -1 3.5 -1.5
v -1.1 1.9 1.6
v -1.1 2.2 1.6
v -1.1 1.9 1.4
v -1.1 2.2 1.4
v -1.1 1.9 -1.4
v -1.1 2.2 -1.4
v -1.1 1.9 -1.6
v -1.1 2.2 -1.6
v -1.2 2.2 1.3
v -1.2 2.7 1.3
v -1.2 2.9 1.3
v -1.2 3.5 1.3
v -1.2 0.4 1.1
v -1.2 1.9 1.1
v -1.2 0.4 0.7
v -1.2 1.9 0.7
v -1.2 0.5 0.5
v -1.2 1.9 0.5
v -1.2 0.5 0.0999999
v -1.2 1.9 0.0999999
v -1.2 0.3 -0.1
v -1.2 1.9 -0.1
v -1.2 0.3 -0.5
v -1.2 1.9 -0.5
v -1.2 0.4 -0.7
v -1.2 1.9 -0.7
v -1.2 0.4 -1.1
v -1.2 1.9 -1.1
v -1.2 2.2 -1.3
v -1.2 2.7 -1.3
v -1.2 2.9 -1.3
v -1.2 3.5 -1.3
v -1.3 1.9 1.4
v -1.3 2.2 1.4
v -1.3 1.9 -1.4
v -1.3 2.2 -1.4
v -1.7 0.1 1.1
v -1.7 0.6 1.1
v -1.7 0.3 1
v -1.7 0.5 1
v -1.7 0.3 0.8
v -1.7 0.5 0.8
v -1.7 0.1 0.7
v -1.7 0.6 0.7
v -1.7 0.2 0.5
v -1.7 0.7 0.5
v -1.7 0.4 0.4
v -1.7 0.6 0.4
v -1.7 0.4 0.2
v -1.7 0.6 0.2
v -1.7 0.2 0.0999999
v -1.7 0.7 0.0999999
v -1.7 0 -0.1
v -1.7 0.5 -0.1
v -1.7 0.2 -0.2
v -1.7 0.4 -0.2
v -1.7 0.2 -0.4
v -1.7 0.4 -0.4
v -1.7 0 -0.5
v -1.7 0.5 -0.5
v -1.7 0.1 -0.7
v -1.7 0.6 -0.7
v -1.7 0.3 -0.8
v -1.7 0.5 -0.8
v -1.7 0.3 -1
v -1.7 0.5 -1
v -1.7 0.1 -1.1
v -1.7 0.6 -1.1
v 0.7 0 2
v 0.7 0 1.2
v 0.7 0 -1.2
v 0.7 0 -2
v 0.6 0 1.9
v 0.6 0 1.7
v 0.6 0 1.5
v 0.6 0 1.3
v 0.6 0 -1.3
v 0.6 0 -1.5
v 0.6 0 -1.7
v 0.6 0 -1.9
v 0.4 0 1.9
v 0.4 0 1.7
v 0.4 0 1.5
v 0.4 0 1.3
v 0.4 0 -1.3
v 0.4 0 -1.5
v 0.4 0 -1.7
v 0.4 0 -1.9
v 0.3 0 2
v 0.3 0 1.2
v 0.3 0 -1.2
v 0.3 0 -2
v -0.9 0 -0.1
v -0.9 0 -0.5
v -1 0 -0.2
v -1 0 -0.4
v -1.2 0 -0.2
v -1.2 0 -0.4
v -1.4 0 -0.2
v -1.4 0 -0.4
v -1.6 0 -0.2
v -1.6 0 -0.4
v -1.7 0 -0.1
v -1.7 0 -0.5
v -0.9 0.1 1.1
v -0.9 0.1 0.7
v -0.9 0.1 -0.7
v -0.9 0.1 -1.1
v -1 0.1 1
v -1 0.1 0.8
v -1 0.1 -0.8
v -1 0.1 -1
v -1.2 0.1 1
v -1.2 0.1 0.8
v -1.2 0.1 -0.8
v -1.2 0.1 -1
v -1.4 0.1 1
v -1.4 0.1 0.8
v -1.4 0.1 -0.8
v -1.4 0.1 -1
v -1.6 0.1 1
v -1.6 0.1 0.8
v -1.6 0.1 -0.8
v -1.6 0.1 -1
v -1.7 0.1 1.1
v -1.7 0.1 0.7
v -1.7 0.1 -0.7
v -1.7 0.1 -1.1
v -0.0999999 0.2 2
v -0.0999999 0.2 1.2
v -0.0999999 0.2 -1.2
v -0.0999999 0.2 -2
v -0.2 0.2 1.9
v -0.2 0.2 1.7
v -0.2 0.2 1.5
v -0.2 0.2 1.3
v -0.2 0.2 -1.3
v -0.2 0.2 -1.5
v -0.2 0.2 -1.7
v -0.2 0.2 -1.9
v -0.4 0.2 1.9
v -0.4 0.2 1.7
v -0.4 0.2 1.5
v -0.4 0.2 1.3
v -0.4 0.2 -1.3
v -0.4 0.2 -1.5
v -0.4 0.2 -1.7
v -0.4 0.2 -1.9
v -0.5 0.2 2
v -0.5 0.2 1.2
v -0.5 0.2 -1.2
v -0.5 0.2 -2
v -0.9 0.2 0.5
v -0.9 0.2 0.0999999
v -1 0.2 0.4
v -1 0.2 0.2
v -1.2 0.2 0.4
v -1.2 0.2 0.2
v -1.4 0.2 0.4
v -1.4 0.2 0.2
v -1.6 0.2 0.4
v -1.6 0.2 0.2
v -1.7 0.2 0.5
v -1.7 0.2 0.0999999
v 1.3 1.9 1.4
v 1.3 1.9 -1.4
v 1.1 1.9 1.6
v 1.1 1.9 1.4
v 1.1 1.9 -1.4
v 1.1 1.9 -1.6
v 0.7 1.9 1.5
v 0.7 1.9 1.3
v 0.7 1.9 1.2
v 0.7 1.9 -1.2
v 0.7 1.9 -1.3
v 0.7 1.9 -1.5
v 0.3 1.9 1.5
v 0.3 1.9 1.3
v 0.3 1.9 1.2
v 0.3 1.9 -1.2
v 0.3 1.9 -1.3
v 0.3 1.9 -1.5
v -0.0999999 1.9 1.5
v -0.0999999 1.9 1.3
v -0.0999999 1.9 1.2
v -0.0999999 1.9 -1.2
v -0.0999999 1.9 -1.3
v -0.0999999 1.9 -1.5
v -0.5 1.9 1.5
v -0.5 1.9 1.3
v -0.5 1.9 1.2
v -0.5 1.9 -1.2
v -0.5 1.9 -1.3
v -0.5 1.9 -1.5
v -0.9 1.9 1.1
v -0.9 1.9 0.7
v -0.9 1.9 0.5
v -0.9 1.9 0.0999999
v -0.9 1.9 -0.1
v -0.9 1.9 -0.5
v -0.9 1.9 -0.7
v -0.9 1.9 -1.1
v -1.1 1.9 1.6
v -1.1 1.9 1.4
v -1.1 1.9 -1.4
v -1.1 1.9 -1.6
v -1.2 1.9 1.1
v -1.2 1.9 0.7
v -1.2 1.9 0.5
v -1.2 1.9 0.0999999
v -1.2 1.9 -0.1
v -1.2 1.9 -0.5
v -1.2 1.9 -0.7
v -1.2 1.9 -1.1
v -1.3 1.9 1.4
v -1.3 1.9 -1.4
v 0.7 0.3 1.8
v 0.7 0.3 1.5
v 0.7 0.3 -1.5
v 0.7 0.3 -1.8
v 0.3 0.3 1.8
v 0.3 0.3 1.5
v 0.3 0.3 -1.5
v 0.3 0.3 -1.8
v -1.2 0.3 -0.1
v -1.2 0.3 -0.5
v -1.5 0.3 -0.1
v -1.5 0.3 -0.5
v -1.2 0.4 1.1
v -1.2 0.4 0.7
v -1.2 0.4 -0.7
v -1.2 0.4 -1.1
v -1.5 0.4 1.1
v -1.5 0.4 0.7
v -1.5 0.4 -0.7
v -1.5 0.4 -1.1
v 0.7 0.5 2
v 0.7 0.5 1.9
v 0.7 0.5 1.8
v 0.7 0.5 -1.8
v 0.7 0.5 -1.9
v 0.7 0.5 -2
v 0.3 0.5 2
v 0.3 0.5 1.9
v 0.3 0.5 1.8
v 0.3 0.5 -1.8
v 0.3 0.5 -1.9
v 0.3 0.5 -2
v -0.0999999 0.5 1.8
v -0.0999999 0.5 1.5
v -0.0999999 0.5 -1.5
v -0.0999999 0.5 -1.8
v -0.5 0.5 1.8
v -0.5 0.5 1.5
v -0.5 0.5 -1.5
v -0.5 0.5 -1.8
v -1.2 0.5 0.5
v -1.2 0.5 0.0999999
v -1.5 0.5 0.5
v -1.5 0.5 0.0999999
v -1.5 0.5 -0.1
v -1.5 0.5 -0.5
v -1.6 0.5 -0.1
v -1.6 0.5 -0.5
v -1.7 0.5 -0.1
v -1.7 0.5 -0.5
v -1.5 0.6 1.1
v -1.5 0.6 0.7
v -1.5 0.6 -0.7
v -1.5 0.6 -1.1
v -1.6 0.6 1.1
v -1.6 0.6 0.7
v -1.6 0.6 -0.7
v -1.6 0.6 -1.1
v -1.7 0.6 1.1
v -1.7 0.6 0.7
v -1.7 0.6 -0.7
v -1.7 0.6 -1.1
v -0.0999999 0.7 2
v -0.0999999 0.7 1.9
v -0.0999999 0.7 1.8
v -0.0999999 0.7 -1.8
v -0.0999999 0.7 -1.9
v -0.0999999 0.7 -2
v -0.5 0.7 2
v -0.5 0.7 1.9
v -0.5 0.7 1.8
v -0.5 0.7 -1.8
v -0.5 0.7 -1.9
v -0.5 0.7 -2
v -1.5 0.7 0.5
v -1.5 0.7 0.0999999
v -1.6 0.7 0.5
v -1.6 0.7 0.0999999
v -1.7 0.7 0.5
v -1.7 0.7 0.0999999
v 1.3 2.2 1.4
v 1.3 2.2 0.8
v 1.3 2.2 0.3
v 1.3 2.2 -0.2
v 1.3 2.2 -0.9
v 1.3 2.2 -1.4
v 1.2 2.2 1.3
v 1.2 2.2 0.8
v 1.2 2.2 0.3
v 1.2 2.2 -0.2
v 1.2 2.2 -0.9
v 1.2 2.2 -1.3
v 1.1 2.2 1.6
v 1.1 2.2 1.4
v 1.1 2.2 -1.4
v 1.1 2.2 -1.6
v 1 2.2 1.5
v 1 2.2 1.3
v 1 2.2 -1.3
v 1 2.2 -1.5
v -1 2.2 1.5
v -1 2.2 1.3
v -1 2.2 -1.3
v -1 2.2 -1.5
v -1.1 2.2 1.6
v -1.1 2.2 1.4
v -1.1 2.2 -1.4
v -1.1 2.2 -1.6
v -1.2 2.2 1.3
v -1.2 2.2 -1.3
v -1.3 2.2 1.4
v -1.3 2.2 -1.4
v 1.3 2.7 0.8
v 1.3 2.7 0.3
v 1.2 2.7 0.8
v 1.2 2.7 0.3
v 1.3 2.9 -0.2
v 1.3 2.9 -0.9
v 1.2 2.9 -0.2
v 1.2 2.9 -0.9
v 1.2 3.5 1.3
v 1.2 3.5 -1.3
v 1 3.5 1.5
v 1 3.5 1.3
v 1 3.5 1.1
v 1 3.5 -1.1
v 1 3.5 -1.3
v 1 3.5 -1.5
v 0.8 3.5 1.3
v 0.8 3.5 1.1
v 0.8 3.5 -1.1
v 0.8 3.5 -1.3
v -0.8 3.5 1.3
v -0.8 3.5 1.1
v -0.8 3.5 -1.1
v -0.8 3.5 -1.3
v -1 3.5 1.5
v -1 3.5 1.3
v -1 3.5 1.1
v -1 3.5 -1.1
v -1 3.5 -1.3
v -1 3.5 -1.5
v -1.2 3.5 1.3
v -1.2 3.5 -1.3
v 1 3.8 1.1
v 1 3.8 -1.1
v 0.8 3.8 1.3
v 0.8 3.8 1.1
v 0.8 3.8 -1.1
v 0.8 3.8 -1.3
v 0.5 3.8 0.6
v 0.5 3.8 -0.6
v 0.3 3.8 0.8
v 0.3 3.8 0.6
v 0.3 3.8 -0.6
v 0.3 3.8 -0.8
v -0.3 3.8 0.8
v -0.3 3.8 0.6
v -0.3 3.8 -0.6
v -0.3 3.8 -0.8
v -0.5 3.8 0.6
v -0.5 3.8 -0.6
v -0.8 3.8 1.3
v -0.8 3.8 1.1
v -0.8 3.8 -1.1
v -0.8 3.8 -1.3
v -1 3.8 1.1
v -1 3.8 -1.1
v 0.5 4 0.6
v 0.5 4 -0.6
v 0.3 4 0.8
v 0.3 4 0.6
v 0.3 4 -0.6
v 0.3 4 -0.8
v -0.3 4 0.8
v -0.3 4 0.6
v -0.3 4 -0.6
v -0.3 4 -0.8
v -0.5 4 0.6
v -0.5 4 -0.6

# faces
f 3/5/1 2/5/1 1/5/1
f 4/5/1 2/5/1 3/5/1
f 7/5/1 3/5/1 1/5/1
f 7/6/1 4/6/1 3/6/1
f 8/5/1 2/5/1 4/5/1
f 8/6/1 4/6/1 7/6/1
f 9/5/1 6/5/1 5/5/1
f 10/5/1 6/5/1 9/5/1
f 11/5/1 7/5/1 1/5/1
f 11/5/1 8/5/1 7/5/1
f 12/5/1 2/5/1 8/5/1
f 12/5/1 8/5/1 11/5/1
f 13/6/1 10/6/1 9/6/1
f 13/5/1 9/5/1 5/5/1
f 14/5/1 6/5/1 10/5/1
f 14/6/1 10/6/1 13/6/1
f 15/5/1 13/5/1 5/5/1
f 15/5/1 14/5/1 13/5/1
f 16/5/1 6/5/1 14/5/1
f 16/5/1 14/5/1 15/5/1
f 19/4/1 18/4/1 17/4/1
f 20/4/1 18/4/1 19/4/1
f 25/4/1 22/4/1 21/4/1
f 26/4/1 22/4/1 25/4/1
f 27/4/1 24/4/1 23/4/1
f 28/4/1 24/4/1 27/4/1
f 31/4/1 30/4/1 29/4/1
f 32/4/1 30/4/1 31/4/1
f 33/2/1 32/2/1 31/2/1
f 34/2/1 32/2/1 33/2/1
f 35/4/1 34/4/1 33/4/1
f 36/4/1 34/4/1 35/4/1
f 41/4/1 38/4/1 37/4/1
f 42/4/1 38/4/1 41/4/1
f 43/4/1 40/4/1 39/4/1
f 44/4/1 40/4/1 43/4/1
f 49/4/1 46/4/1 45/4/1
f 50/4/1 46/4/1 49/4/1
f 51/4/1 48/4/1 47/4/1
f 52/4/1 48/4/1 51/4/1
f 53/2/1 50/2/1 49/2/1
f 54/2/1 50/2/1 53/2/1
f 55/2/1 52/2/1 51/2/1
f 56/2/1 52/2/1 55/2/1
f 57/4/1 54/4/1 53/4/1
f 58/4/1 54/4/1 57/4/1
f 61/4/1 56/4/1 55/4/1
f 62/4/1 56/4/1 61/4/1
f 63/4/1 60/4/1 59/4/1
f 64/4/1 60/4/1 63/4/1
f 67/5/1 66/5/1 65/5/1
f 68/5/1 66/5/1 67/5/1
f 69/4/1 68/4/1 67/4/1
f 70/4/1 68/4/1 69/4/1
f 71/4/1 68/4/1 70/4/1
f 72/5/1 66/5/1 68/5/1
f 72/4/1 68/4/1 71/4/1
f 73/5/1 66/5/1 72/5/1
f 74/4/1 69/4/1 67/4/1
f 75/4/1 69/4/1 74/4/1
f 80/4/1 77/4/1 76/4/1
f 81/4/1 77/4/1 80/4/1
f 82/4/1 79/4/1 78/4/1
f 83/4/1 79/4/1 82/4/1
f 86/4/1 85/4/1 84/4/1
f 87/4/1 85/4/1 86/4/1
f 90/4/1 89/4/1 88/4/1
f 91/4/1 89/4/1 90/4/1
f 96/4/1 93/4/1 92/4/1
f 97/4/1 93/4/1 96/4/1
f 98/4/1 95/4/1 94/4/1
f 99/4/1 95/4/1 98/4/1
f 102/5/1 101/5/1 100/5/1
f 103/5/1 101/5/1 102/5/1
f 104/4/1 103/4/1 102/4/1
f 105/4/1 103/4/1 104/4/1
f 106/4/1 103/4/1 105/4/1
f 107/5/1 101/5/1 103/5/1
f 107/4/1 103/4/1 106/4/1
f 108/5/1 101/5/1 107/5/1
f 109/4/1 104/4/1 102/4/1
f 110/4/1 104/4/1 109/4/1
f 113/5/1 112/5/1 111/5/1
f 114/5/1 112/5/1 113/5/1
f 115/4/1 114/4/1 113/4/1
f 116/4/1 114/4/1 115/4/1
f 117/4/1 114/4/1 116/4/1
f 118/5/1 112/5/1 114/5/1
f 118/4/1 114/4/1 117/4/1
f 119/5/1 112/5/1 118/5/1
f 120/4/1 115/4/1 113/4/1
f 121/4/1 115/4/1 120/4/1
f 124/2/1 123/2/1 122/2/1
f 125/2/1 124/2/1 122/2/1
f 126/2/1 124/2/1 125/2/1
f 129/5/1 128/5/1 127/5/1
f 130/5/1 128/5/1 129/5/1
f 131/4/1 130/4/1 129/4/1
f 132/4/1 130/4/1 131/4/1
f 133/4/1 130/4/1 132/4/1
f 134/5/1 128/5/1 130/5/1
f 134/4/1 130/4/1 133/4/1
f 135/5/1 128/5/1 134/5/1
f 136/4/1 131/4/1 129/4/1
f 137/4/1 131/4/1 136/4/1
f 142/5/1 139/5/1 138/5/1
f 143/5/1 139/5/1 142/5/1
f 144/5/1 141/5/1 140/5/1
f 145/5/1 141/5/1 144/5/1
f 148/4/1 147/4/1 146/4/1
f 149/4/1 147/4/1 148/4/1
f 152/4/1 151/4/1 150/4/1
f 153/4/1 151/4/1 152/4/1
f 154/4/2 155/4/2 156/4/2
f 156/4/2 155/4/2 157/4/2
f 158/4/2 159/4/2 160/4/2
f 160/4/2 159/4/2 161/4/2
f 162/5/2 163/5/2 166/5/2
f 166/5/2 163/5/2 167/5/2
f 164/5/2 165/5/2 168/5/2
f 168/5/2 165/5/2 169/5/2
f 170/5/2 171/5/2 172/5/2
f 172/5/2 171/5/2 173/5/2
f 172/4/2 173/4/2 174/4/2
f 174/4/2 173/4/2 175/4/2
f 175/4/2 173/4/2 176/4/2
f 173/5/2 171/5/2 177/5/2
f 176/4/2 173/4/2 177/4/2
f 177/5/2 171/5/2 178/5/2
f 172/4/2 174/4/2 179/4/2
f 179/4/2 174/4/2 180/4/2
f 181/4/2 182/4/2 183/4/2
f 183/4/2 182/4/2 184/4/2
f 185/5/2 186/5/2 187/5/2
f 187/5/2 186/5/2 188/5/2
f 187/4/2 188/4/2 189/4/2
f 189/4/2 188/4/2 190/4/2
f 190/4/2 188/4/2 191/4/2
f 188/5/2 186/5/2 192/5/2
f 191/4/2 188/4/2 192/4/2
f 192/5/2 186/5/2 193/5/2
f 187/4/2 189/4/2 194/4/2
f 194/4/2 189/4/2 195/4/2
f 196/5/2 197/5/2 198/5/2
f 198/5/2 197/5/2 199/5/2
f 198/4/2 199/4/2 200/4/2
f 200/4/2 199/4/2 201/4/2
f 201/4/2 199/4/2 202/4/2
f 199/5/2 197/5/2 203/5/2
f 202/4/2 199/4/2 203/4/2
f 203/5/2 197/5/2 204/5/2
f 198/4/2 200/4/2 205/4/2
f 205/4/2 200/4/2 206/4/2
f 207/4/2 208/4/2 211/4/2
f 211/4/2 208/4/2 212/4/2
f 209/4/2 210/4/2 213/4/2
f 213/4/2 210/4/2 214/4/2
f 215/4/2 216/4/2 217/4/2
f 217/4/2 216/4/2 218/4/2
f 219/2/2 220/2/2 221/2/2
f 219/2/2 221/2/2 222/2/2
f 222/2/2 221/2/2 223/2/2
f 224/5/2 225/5/2 226/5/2
f 226/5/2 225/5/2 227/5/2
f 226/4/2 227/4/2 228/4/2
f 228/4/2 227/4/2 229/4/2
f 229/4/2 227/4/2 230/4/2
f 227/5/2 225/5/2 231/5/2
f 230/4/2 227/4/2 231/4/2
f 231/5/2 225/5/2 232/5/2
f 226/4/2 228/4/2 233/4/2
f 233/4/2 228/4/2 234/4/2
f 235/4/2 236/4/2 239/4/2
f 239/4/2 236/4/2 240/4/2
f 237/4/2 238/4/2 241/4/2
f 241/4/2 238/4/2 242/4/2
f 243/4/2 244/4/2 247/4/2
f 247/4/2 244/4/2 248/4/2
f 245/4/2 246/4/2 249/4/2
f 249/4/2 246/4/2 250/4/2
f 247/2/2 248/2/2 251/2/2
f 251/2/2 248/2/2 252/2/2
f 249/2/2 250/2/2 253/2/2
f 253/2/2 250/2/2 254/2/2
f 251/4/2 252/4/2 255/4/2
f 255/4/2 252/4/2 256/4/2
f 253/4/2 254/4/2 259/4/2
f 259/4/2 254/4/2 260/4/2
f 257/4/2 258/4/2 261/4/2
f 261/4/2 258/4/2 262/4/2
f 263/4/2 264/4/2 267/4/2
f 267/4/2 264/4/2 268/4/2
f 265/4/2 266/4/2 269/4/2
f 269/4/2 266/4/2 270/4/2
f 271/4/2 272/4/2 275/4/2
f 275/4/2 272/4/2 276/4/2
f 273/4/2 274/4/2 277/4/2
f 277/4/2 274/4/2 278/4/2
f 279/4/2 280/4/2 281/4/2
f 281/4/2 280/4/2 282/4/2
f 281/2/2 282/2/2 283/2/2
f 283/2/2 282/2/2 284/2/2
f 283/4/2 284/4/2 285/4/2
f 285/4/2 284/4/2 286/4/2
f 287/4/2 288/4/2 289/4/2
f 289/4/2 288/4/2 290/4/2
f 291/5/2 292/5/2 293/5/2
f 293/5/2 292/5/2 294/5/2
f 291/5/2 293/5/2 297/5/2
f 293/6/2 294/6/2 297/6/2
f 294/5/2 292/5/2 298/5/2
f 297/6/2 294/6/2 298/6/2
f 295/5/2 296/5/2 299/5/2
f 299/5/2 296/5/2 300/5/2
f 291/5/2 297/5/2 301/5/2
f 297/5/2 298/5/2 301/5/2
f 298/5/2 292/5/2 302/5/2
f 301/5/2 298/5/2 302/5/2
f 299/6/2 300/6/2 303/6/2
f 295/5/2 299/5/2 303/5/2
f 300/5/2 296/5/2 304/5/2
f 303/6/2 300/6/2 304/6/2
f 295/5/2 303/5/2 305/5/2
f 303/5/2 304/5/2 305/5/2
f 304/5/2 296/5/2 306/5/2
f 305/5/2 304/5/2 306/5/2
f 309/4/3 308/4/3 307/4/3
f 311/4/3 309/4/3 307/4/3
f 311/4/3 310/4/3 309/4/3
f 312/4/3 310/4/3 311/4/3
f 313/3/3 312/3/3 311/3/3
f 314/3/3 312/3/3 313/3/3
f 315/3/3 313/3/3 311/3/3
f 315/1/3 314/1/3 313/1/3
f 316/3/3 312/3/3 314/3/3
f 316/1/3 314/1/3 315/1/3
f 317/4/3 311/4/3 307/4/3
f 317/3/3 315/3/3 311/3/3
f 317/3/3 316/3/3 315/3/3
f 318/3/3 312/3/3 316/3/3
f 318/3/3 316/3/3 317/3/3
f 318/4/3 310/4/3 312/4/3
f 319/4/3 317/4/3 307/4/3
f 319/4/3 318/4/3 317/4/3
f 320/4/3 310/4/3 318/4/3
f 320/4/3 318/4/3 319/4/3
f 321/4/3 319/4/3 307/4/3
f 323/4/3 321/4/3 307/4/3
f 323/2/3 322/2/3 321/2/3
f 324/2/3 322/2/3 323/2/3
f 325/4/3 323/4/3 307/4/3
f 326/4/3 323/4/3 325/4/3
f 331/4/3 328/4/3 327/4/3
f 332/2/3 329/2/3 328/2/3
f 332/4/3 328/4/3 331/4/3
f 334/2/3 329/2/3 332/2/3
f 335/4/3 334/4/3 333/4/3
f 336/2/3 329/2/3 334/2/3
f 336/4/3 334/4/3 335/4/3
f 337/4/3 330/4/3 329/4/3
f 337/2/3 329/2/3 336/2/3
f 340/4/3 330/4/3 337/4/3
f 341/4/3 339/4/3 338/4/3
f 342/2/3 340/2/3 339/2/3
f 342/4/3 339/4/3 341/4/3
f 343/4/3 330/4/3 340/4/3
f 343/2/3 340/2/3 342/2/3
f 344/4/3 330/4/3 343/4/3
f 347/4/3 346/4/3 345/4/3
f 348/4/3 346/4/3 347/4/3
f 351/4/3 350/4/3 349/4/3
f 352/4/3 350/4/3 351/4/3
f 357/4/3 354/4/3 353/4/3
f 358/2/3 355/2/3 354/2/3
f 358/4/3 354/4/3 357/4/3
f 359/4/3 356/4/3 355/4/3
f 359/2/3 355/2/3 358/2/3
f 360/4/3 356/4/3 359/4/3
f 363/4/3 362/4/3 361/4/3
f 364/4/3 362/4/3 363/4/3
f 369/4/3 366/4/3 365/4/3
f 370/2/3 367/2/3 366/2/3
f 370/4/3 366/4/3 369/4/3
f 371/4/3 368/4/3 367/4/3
f 371/2/3 367/2/3 370/2/3
f 372/4/3 368/4/3 371/4/3
f 375/4/3 374/4/3 373/4/3
f 376/4/3 374/4/3 375/4/3
f 379/4/3 378/4/3 377/4/3
f 380/4/3 378/4/3 379/4/3
f 383/5/3 382/5/3 381/5/3
f 384/5/3 382/5/3 383/5/3
f 385/4/3 384/4/3 383/4/3
f 386/4/3 384/4/3 385/4/3
f 387/4/3 385/4/3 383/4/3
f 389/5/3 383/5/3 381/5/3
f 389/4/3 388/4/3 387/4/3
f 389/4/3 387/4/3 383/4/3
f 390/4/3 388/4/3 389/4/3
f 391/5/3 389/5/3 381/5/3
f 391/5/3 390/5/3 389/5/3
f 392/5/3 390/5/3 391/5/3
f 395/5/3 394/5/3 393/5/3
f 396/5/3 394/5/3 395/5/3
f 397/4/3 396/4/3 395/4/3
f 398/4/3 396/4/3 397/4/3
f 399/4/3 397/4/3 395/4/3
f 401/5/3 395/5/3 393/5/3
f 401/4/3 400/4/3 399/4/3
f 401/4/3 399/4/3 395/4/3
f 402/4/3 400/4/3 401/4/3
f 403/5/3 401/5/3 393/5/3
f 403/5/3 402/5/3 401/5/3
f 404/5/3 402/5/3 403/5/3
f 407/4/3 406/4/3 405/4/3
f 408/4/3 406/4/3 407/4/3
f 411/4/3 410/4/3 409/4/3
f 412/4/3 410/4/3 411/4/3
f 415/4/3 414/4/3 413/4/3
f 416/4/3 414/4/3 415/4/3
f 419/5/3 418/5/3 417/5/3
f 420/5/3 418/5/3 419/5/3
f 421/4/3 420/4/3 419/4/3
f 422/4/3 420/4/3 421/4/3
f 423/4/3 421/4/3 419/4/3
f 425/5/3 419/5/3 417/5/3
f 425/4/3 424/4/3 423/4/3
f 425/4/3 423/4/3 419/4/3
f 426/4/3 424/4/3 425/4/3
f 427/5/3 425/5/3 417/5/3
f 427/5/3 426/5/3 425/5/3
f 428/5/3 426/5/3 427/5/3
f 431/5/3 430/5/3 429/5/3
f 432/5/3 430/5/3 431/5/3
f 433/4/3 432/4/3 431/4/3
f 434/4/3 432/4/3 433/4/3
f 435/4/3 433/4/3 431/4/3
f 437/5/3 431/5/3 429/5/3
f 437/4/3 436/4/3 435/4/3
f 437/4/3 435/4/3 431/4/3
f 438/4/3 436/4/3 437/4/3
f 439/5/3 437/5/3 429/5/3
f 439/5/3 438/5/3 437/5/3
f 440/5/3 438/5/3 439/5/3
f 444/5/3 442/5/3 441/5/3
f 445/4/3 443/4/3 442/4/3
f 445/5/3 442/5/3 444/5/3
f 446/4/3 443/4/3 445/4/3
f 450/5/3 448/5/3 447/5/3
f 451/4/3 449/4/3 448/4/3
f 451/5/3 448/5/3 450/5/3
f 452/4/3 449/4/3 451/4/3
f 456/5/3 454/5/3 453/5/3
f 457/4/3 455/4/3 454/4/3
f 457/5/3 454/5/3 456/5/3
f 458/4/3 455/4/3 457/4/3
f 462/5/3 460/5/3 459/5/3
f 463/4/3 461/4/3 460/4/3
f 463/5/3 460/5/3 462/5/3
f 464/4/3 461/4/3 463/4/3
f 467/4/3 466/4/3 465/4/3
f 468/4/3 466/4/3 467/4/3
f 471/4/3 470/4/3 469/4/3
f 472/4/3 470/4/3 471/4/3
f 475/4/3 474/4/3 473/4/3
f 476/4/3 474/4/3 475/4/3
f 479/4/3 478/4/3 477/4/3
f 480/4/3 478/4/3 479/4/3
f 481/5/4 482/5/4 483/5/4
f 483/5/4 482/5/4 484/5/4
f 483/4/4 484/4/4 485/4/4
f 485/4/4 484/4/4 486/4/4
f 483/4/4 485/4/4 487/4/4
f 481/5/4 483/5/4 489/5/4
f 487/4/4 488/4/4 489/4/4
f 483/4/4 487/4/4 489/4/4
f 489/4/4 488/4/4 490/4/4
f 481/5/4 489/5/4 491/5/4
f 489/5/4 490/5/4 491/5/4
f 491/5/4 490/5/4 492/5/4
f 493/5/4 494/5/4 495/5/4
f 495/5/4 494/5/4 496/5/4
f 495/4/4 496/4/4 497/4/4
f 497/4/4 496/4/4 498/4/4
f 495/4/4 497/4/4 499/4/4
f 493/5/4 495/5/4 501/5/4
f 499/4/4 500/4/4 501/4/4
f 495/4/4 499/4/4 501/4/4
f 501/4/4 500/4/4 502/4/4
f 493/5/4 501/5/4 503/5/4
f 501/5/4 502/5/4 503/5/4
f 503/5/4 502/5/4 504/5/4
f 505/4/4 506/4/4 507/4/4
f 507/4/4 506/4/4 508/4/4
f 509/4/4 510/4/4 511/4/4
f 511/4/4 510/4/4 512/4/4
f 513/5/4 514/5/4 515/5/4
f 515/5/4 514/5/4 516/5/4
f 515/4/4 516/4/4 517/4/4
f 517/4/4 516/4/4 518/4/4
f 515/4/4 517/4/4 519/4/4
f 513/5/4 515/5/4 521/5/4
f 519/4/4 520/4/4 521/4/4
f 515/4/4 519/4/4 521/4/4
f 521/4/4 520/4/4 522/4/4
f 513/5/4 521/5/4 523/5/4
f 521/5/4 522/5/4 523/5/4
f 523/5/4 522/5/4 524/5/4
f 525/4/4 526/4/4 527/4/4
f 527/4/4 526/4/4 528/4/4
f 529/5/4 530/5/4 531/5/4
f 531/5/4 530/5/4 532/5/4
f 531/4/4 532/4/4 533/4/4
f 533/4/4 532/4/4 534/4/4
f 531/4/4 533/4/4 535/4/4
f 529/5/4 531/5/4 537/5/4
f 535/4/4 536/4/4 537/4/4
f 531/4/4 535/4/4 537/4/4
f 537/4/4 536/4/4 538/4/4
f 529/5/4 537/5/4 539/5/4
f 537/5/4 538/5/4 539/5/4
f 539/5/4 538/5/4 540/5/4
f 541/4/4 542/4/4 543/4/4
f 543/4/4 542/4/4 544/4/4
f 545/4/4 546/4/4 547/4/4
f 547/4/4 546/4/4 548/4/4
f 549/4/4 550/4/4 553/4/4
f 550/2/4 551/2/4 554/2/4
f 553/4/4 550/4/4 554/4/4
f 551/4/4 552/4/4 555/4/4
f 554/2/4 551/2/4 555/2/4
f 555/4/4 552/4/4 556/4/4
f 557/4/4 558/4/4 559/4/4
f 559/4/4 558/4/4 560/4/4
f 561/4/4 562/4/4 565/4/4
f 562/2/4 563/2/4 566/2/4
f 565/4/4 562/4/4 566/4/4
f 563/4/4 564/4/4 567/4/4
f 566/2/4 563/2/4 567/2/4
f 567/4/4 564/4/4 568/4/4
f 569/4/4 570/4/4 571/4/4
f 571/4/4 570/4/4 572/4/4
f 573/4/4 574/4/4 575/4/4
f 575/4/4 574/4/4 576/4/4
f 581/4/4 582/4/4 583/4/4
f 583/4/4 582/4/4 584/4/4
f 585/4/4 586/4/4 587/4/4
f 587/4/4 586/4/4 588/4/4
f 589/4/4 590/4/4 591/4/4
f 591/4/4 590/4/4 592/4/4
f 593/4/4 594/4/4 595/4/4
f 595/4/4 594/4/4 596/4/4
f 577/4/4 578/4/4 597/4/4
f 578/2/4 579/2/4 598/2/4
f 597/4/4 578/4/4 598/4/4
f 579/4/4 580/4/4 599/4/4
f 598/2/4 579/2/4 599/2/4
f 599/4/4 580/4/4 600/4/4
f 601/4/4 602/4/4 603/4/4
f 603/4/4 602/4/4 604/4/4
f 605/5/4 606/5/4 607/5/4
f 607/5/4 606/5/4 608/5/4
f 605/5/4 607/5/4 609/5/4
f 607/6/4 608/6/4 609/6/4
f 608/5/4 606/5/4 610/5/4
f 609/6/4 608/6/4 610/6/4
f 605/5/4 609/5/4 611/5/4
f 609/5/4 610/5/4 611/5/4
f 610/5/4 606/5/4 612/5/4
f 611/5/4 610/5/4 612/5/4
f 613/5/4 614/5/4 615/5/4
f 615/5/4 614/5/4 616/5/4
f 613/5/4 615/5/4 617/5/4
f 615/6/4 616/6/4 617/6/4
f 616/5/4 614/5/4 618/5/4
f 617/6/4 616/6/4 618/6/4
f 613/5/4 617/5/4 619/5/4
f 617/5/4 618/5/4 619/5/4
f 618/5/4 614/5/4 620/5/4
f 619/5/4 618/5/4 620/5/4
f 621/5/4 622/5/4 623/5/4
f 623/5/4 622/5/4 624/5/4
f 621/5/4 623/5/4 625/5/4
f 623/6/4 624/6/4 625/6/4
f 624/5/4 622/5/4 626/5/4
f 625/6/4 624/6/4 626/6/4
f 621/5/4 625/5/4 627/5/4
f 625/5/4 626/5/4 627/5/4
f 626/5/4 622/5/4 628/5/4
f 627/5/4 626/5/4 628/5/4
f 629/5/4 630/5/4 631/5/4
f 631/5/4 630/5/4 632/5/4
f 629/5/4 631/5/4 633/5/4
f 631/6/4 632/6/4 633/6/4
f 632/5/4 630/5/4 634/5/4
f 633/6/4 632/6/4 634/6/4
f 629/5/4 633/5/4 635/5/4
f 633/5/4 634/5/4 635/5/4
f 634/5/4 630/5/4 636/5/4
f 635/5/4 634/5/4 636/5/4
f 641/5/5 638/5/5 637/5/5
f 642/5/5 638/5/5 641/5/5
f 643/5/5 638/5/5 642/5/5
f 644/5/5 638/5/5 643/5/5
f 645/5/5 640/5/5 639/5/5
f 646/5/5 640/5/5 645/5/5
f 647/5/5 640/5/5 646/5/5
f 648/5/5 640/5/5 647/5/5
f 649/5/5 641/5/5 637/5/5
f 649/6/5 642/6/5 641/6/5
f 650/5/5 643/5/5 642/5/5
f 650/6/5 642/6/5 649/6/5
f 651/6/5 644/6/5 643/6/5
f 651/5/5 643/5/5 650/5/5
f 652/5/5 638/5/5 644/5/5
f 652/6/5 644/6/5 651/6/5
f 653/5/5 645/5/5 639/5/5
f 653/6/5 646/6/5 645/6/5
f 654/5/5 647/5/5 646/5/5
f 654/6/5 646/6/5 653/6/5
f 655/6/5 648/6/5 647/6/5
f 655/5/5 647/5/5 654/5/5
f 656/5/5 640/5/5 648/5/5
f 656/6/5 648/6/5 655/6/5
f 657/5/5 651/5/5 650/5/5
f 657/5/5 649/5/5 637/5/5
f 657/5/5 650/5/5 649/5/5
f 657/5/5 652/5/5 651/5/5
f 658/5/5 638/5/5 652/5/5
f 658/5/5 652/5/5 657/5/5
f 659/5/5 655/5/5 654/5/5
f 659/5/5 654/5/5 653/5/5
f 659/5/5 656/5/5 655/5/5
f 659/5/5 653/5/5 639/5/5
f 660/5/5 640/5/5 656/5/5
f 660/5/5 656/5/5 659/5/5
f 663/5/5 662/5/5 661/5/5
f 664/5/5 662/5/5 663/5/5
f 665/5/5 663/5/5 661/5/5
f 665/6/5 664/6/5 663/6/5
f 666/5/5 662/5/5 664/5/5
f 666/6/5 664/6/5 665/6/5
f 667/5/5 665/5/5 661/5/5
f 667/5/5 666/5/5 665/5/5
f 668/5/5 662/5/5 666/5/5
f 668/5/5 666/5/5 667/5/5
f 669/5/5 667/5/5 661/5/5
f 669/6/5 668/6/5 667/6/5
f 670/5/5 662/5/5 668/5/5
f 670/6/5 668/6/5 669/6/5
f 671/5/5 669/5/5 661/5/5
f 671/5/5 670/5/5 669/5/5
f 672/5/5 662/5/5 670/5/5
f 672/5/5 670/5/5 671/5/5
f 677/5/5 674/5/5 673/5/5
f 678/5/5 674/5/5 677/5/5
f 679/5/5 676/5/5 675/5/5
f 680/5/5 676/5/5 679/5/5
f 681/5/5 677/5/5 673/5/5
f 681/6/5 678/6/5 677/6/5
f 682/5/5 674/5/5 678/5/5
f 682/6/5 678/6/5 681/6/5
f 683/6/5 680/6/5 679/6/5
f 683/5/5 679/5/5 675/5/5
f 684/5/5 676/5/5 680/5/5
f 684/6/5 680/6/5 683/6/5
f 685/5/5 681/5/5 673/5/5
f 685/5/5 682/5/5 681/5/5
f 686/5/5 674/5/5 682/5/5
f 686/5/5 682/5/5 685/5/5
f 687/5/5 683/5/5 675/5/5
f 687/5/5 684/5/5 683/5/5
f 688/5/5 676/5/5 684/5/5
f 688/5/5 684/5/5 687/5/5
f 689/5/5 685/5/5 673/5/5
f 689/6/5 686/6/5 685/6/5
f 690/5/5 674/5/5 686/5/5
f 690/6/5 686/6/5 689/6/5
f 691/5/5 687/5/5 675/5/5
f 691/6/5 688/6/5 687/6/5
f 692/5/5 676/5/5 688/5/5
f 692/6/5 688/6/5 691/6/5
f 693/5/5 689/5/5 673/5/5
f 693/5/5 690/5/5 689/5/5
f 694/5/5 674/5/5 690/5/5
f 694/5/5 690/5/5 693/5/5
f 695/5/5 691/5/5 675/5/5
f 695/5/5 692/5/5 691/5/5
f 696/5/5 676/5/5 692/5/5
f 696/5/5 692/5/5 695/5/5
f 701/5/5 698/5/5 697/5/5
f 702/5/5 698/5/5 701/5/5
f 703/5/5 698/5/5 702/5/5
f 704/5/5 698/5/5 703/5/5
f 705/5/5 700/5/5 699/5/5
f 706/5/5 700/5/5 705/5/5
f 707/5/5 700/5/5 706/5/5
f 708/5/5 700/5/5 707/5/5
f 709/5/5 701/5/5 697/5/5
f 709/6/5 702/6/5 701/6/5
f 710/5/5 703/5/5 702/5/5
f 710/6/5 702/6/5 709/6/5
f 711/6/5 704/6/5 703/6/5
f 711/5/5 703/5/5 710/5/5
f 712/5/5 698/5/5 704/5/5
f 712/6/5 704/6/5 711/6/5
f 713/5/5 705/5/5 699/5/5
f 713/6/5 706/6/5 705/6/5
f 714/5/5 707/5/5 706/5/5
f 714/6/5 706/6/5 713/6/5
f 715/6/5 708/6/5 707/6/5
f 715/5/5 707/5/5 714/5/5
f 716/5/5 700/5/5 708/5/5
f 716/6/5 708/6/5 715/6/5
f 717/5/5 711/5/5 710/5/5
f 717/5/5 709/5/5 697/5/5
f 717/5/5 710/5/5 709/5/5
f 717/5/5 712/5/5 711/5/5
f 718/5/5 698/5/5 712/5/5
f 718/5/5 712/5/5 717/5/5
f 719/5/5 715/5/5 714/5/5
f 719/5/5 714/5/5 713/5/5
f 719/5/5 716/5/5 715/5/5
f 719/5/5 713/5/5 699/5/5
f 720/5/5 700/5/5 716/5/5
f 720/5/5 716/5/5 719/5/5
f 723/5/5 722/5/5 721/5/5
f 724/5/5 722/5/5 723/5/5
f 725/5/5 723/5/5 721/5/5
f 725/6/5 724/6/5 723/6/5
f 726/5/5 722/5/5 724/5/5
f 726/6/5 724/6/5 725/6/5
f 727/5/5 725/5/5 721/5/5
f 727/5/5 726/5/5 725/5/5
f 728/5/5 722/5/5 726/5/5
f 728/5/5 726/5/5 727/5/5
f 729/5/5 727/5/5 721/5/5
f 729/6/5 728/6/5 727/6/5
f 730/5/5 722/5/5 728/5/5
f 730/6/5 728/6/5 729/6/5
f 731/5/5 729/5/5 721/5/5
f 731/5/5 730/5/5 729/5/5
f 732/5/5 722/5/5 730/5/5
f 732/5/5 730/5/5 731/5/5
f 736/4/5 734/4/5 733/4/5
f 737/4/5 734/4/5 736/4/5
f 739/4/5 736/4/5 735/4/5
f 739/4/5 738/4/5 737/4/5
f 739/4/5 737/4/5 736/4/5
f 740/4/5 738/4/5 739/4/5
f 741/4/5 738/4/5 740/4/5
f 742/4/5 738/4/5 741/4/5
f 743/4/5 738/4/5 742/4/5
f 744/4/5 738/4/5 743/4/5
f 745/4/5 739/4/5 735/4/5
f 747/4/5 742/4/5 741/4/5
f 748/4/5 742/4/5 747/4/5
f 750/4/5 738/4/5 744/4/5
f 751/4/5 749/4/5 748/4/5
f 751/4/5 750/4/5 749/4/5
f 751/4/5 746/4/5 745/4/5
f 751/4/5 745/4/5 735/4/5
f 751/4/5 748/4/5 747/4/5
f 751/4/5 747/4/5 746/4/5
f 752/4/5 750/4/5 751/4/5
f 753/4/5 750/4/5 752/4/5
f 754/4/5 750/4/5 753/4/5
f 755/4/5 750/4/5 754/4/5
f 756/4/5 738/4/5 750/4/5
f 756/4/5 750/4/5 755/4/5
f 757/4/5 751/4/5 735/4/5
f 759/4/5 754/4/5 753/4/5
f 760/4/5 754/4/5 759/4/5
f 762/4/5 738/4/5 756/4/5
f 763/4/5 761/4/5 760/4/5
f 763/4/5 762/4/5 761/4/5
f 763/4/5 758/4/5 757/4/5
f 763/4/5 759/4/5 758/4/5
f 763/4/5 760/4/5 759/4/5
f 764/4/5 762/4/5 763/4/5
f 765/4/5 762/4/5 764/4/5
f 766/4/5 762/4/5 765/4/5
f 767/4/5 762/4/5 766/4/5
f 768/4/5 762/4/5 767/4/5
f 769/4/5 762/4/5 768/4/5
f 770/4/5 762/4/5 769/4/5
f 771/4/5 757/4/5 735/4/5
f 771/4/5 763/4/5 757/4/5
f 772/4/5 763/4/5 771/4/5
f 773/4/5 762/4/5 770/4/5
f 774/4/5 738/4/5 762/4/5
f 774/4/5 762/4/5 773/4/5
f 775/4/5 763/4/5 772/4/5
f 776/4/5 765/4/5 764/4/5
f 777/4/5 765/4/5 776/4/5
f 778/4/5 767/4/5 766/4/5
f 779/4/5 767/4/5 778/4/5
f 780/4/5 769/4/5 768/4/5
f 781/4/5 769/4/5 780/4/5
f 782/4/5 773/4/5 770/4/5
f 783/4/5 781/4/5 780/4/5
f 783/4/5 782/4/5 781/4/5
f 783/4/5 779/4/5 778/4/5
f 783/4/5 777/4/5 776/4/5
f 783/4/5 780/4/5 779/4/5
f 783/4/5 775/4/5 772/4/5
f 783/4/5 778/4/5 777/4/5
f 783/4/5 776/4/5 775/4/5
f 784/4/5 773/4/5 782/4/5
f 784/4/5 782/4/5 783/4/5
f 785/4/6 786/4/6 789/4/6
f 789/4/6 786/4/6 790/4/6
f 787/4/6 788/4/6 791/4/6
f 791/4/6 788/4/6 792/4/6
f 793/4/6 794/4/6 795/4/6
f 795/4/6 794/4/6 796/4/6
f 797/4/6 798/4/6 801/4/6
f 801/4/6 798/4/6 802/4/6
f 799/4/6 800/4/6 803/4/6
f 803/4/6 800/4/6 804/4/6
f 805/5/6 806/5/6 811/5/6
f 806/4/6 807/4/6 812/4/6
f 811/5/6 806/5/6 812/5/6
f 812/4/6 807/4/6 813/4/6
f 808/4/6 809/4/6 814/4/6
f 809/5/6 810/5/6 815/5/6
f 814/4/6 809/4/6 815/4/6
f 815/5/6 810/5/6 816/5/6
f 817/4/6 818/4/6 821/4/6
f 821/4/6 818/4/6 822/4/6
f 819/4/6 820/4/6 823/4/6
f 823/4/6 820/4/6 824/4/6
f 825/4/6 826/4/6 827/4/6
f 827/4/6 826/4/6 828/4/6
f 829/4/6 830/4/6 831/4/6
f 831/4/6 830/4/6 832/4/6
f 831/5/6 832/5/6 833/5/6
f 833/5/6 832/5/6 834/5/6
f 835/4/6 836/4/6 839/4/6
f 839/4/6 836/4/6 840/4/6
f 837/4/6 838/4/6 841/4/6
f 841/4/6 838/4/6 842/4/6
f 839/5/6 840/5/6 843/5/6
f 843/5/6 840/5/6 844/5/6
f 841/5/6 842/5/6 845/5/6
f 845/5/6 842/5/6 846/5/6
f 847/5/6 848/5/6 853/5/6
f 848/4/6 849/4/6 854/4/6
f 853/5/6 848/5/6 854/5/6
f 854/4/6 849/4/6 855/4/6
f 850/4/6 851/4/6 856/4/6
f 851/5/6 852/5/6 857/5/6
f 856/4/6 851/4/6 857/4/6
f 857/5/6 852/5/6 858/5/6
f 859/4/6 860/4/6 861/4/6
f 861/4/6 860/4/6 862/4/6
f 861/5/6 862/5/6 863/5/6
f 863/5/6 862/5/6 864/5/6
f 865/4/6 866/4/6 871/4/6
f 871/4/6 866/4/6 872/4/6
f 867/4/6 868/4/6 873/4/6
f 873/4/6 868/4/6 874/4/6
f 869/4/6 870/4/6 875/4/6
f 875/4/6 870/4/6 876/4/6
f 865/4/6 871/4/6 878/4/6
f 876/4/6 870/4/6 879/4/6
f 877/4/6 878/4/6 881/4/6
f 878/4/6 871/4/6 882/4/6
f 881/4/6 878/4/6 882/4/6
f 879/4/6 880/4/6 883/4/6
f 876/4/6 879/4/6 883/4/6
f 883/4/6 880/4/6 884/4/6
f 877/4/6 881/4/6 885/4/6
f 884/4/6 880/4/6 888/4/6
f 885/4/6 886/4/6 889/4/6
f 877/4/6 885/4/6 889/4/6
f 889/4/6 886/4/6 890/4/6
f 887/4/6 888/4/6 891/4/6
f 888/4/6 880/4/6 892/4/6
f 891/4/6 888/4/6 892/4/6
f 890/4/6 886/4/6 893/4/6
f 887/4/6 891/4/6 894/4/6
f 890/4/6 893/4/6 895/4/6
f 893/4/6 894/4/6 895/4/6
f 894/4/6 891/4/6 896/4/6
f 895/4/6 894/4/6 896/4/6
f 897/4/6 898/4/6 899/4/6
f 899/4/6 898/4/6 900/4/6
f 901/2/6 902/2/6 903/2/6
f 903/2/6 902/2/6 904/2/6
f 905/4/6 906/4/6 908/4/6
f 908/4/6 906/4/6 909/4/6
f 909/4/6 906/4/6 910/4/6
f 910/4/6 906/4/6 911/4/6
f 907/4/6 908/4/6 913/4/6
f 908/4/6 909/4/6 913/4/6
f 913/4/6 909/4/6 914/4/6
f 911/4/6 912/4/6 915/4/6
f 910/4/6 911/4/6 915/4/6
f 915/4/6 912/4/6 916/4/6
f 907/4/6 913/4/6 917/4/6
f 916/4/6 912/4/6 920/4/6
f 917/4/6 918/4/6 921/4/6
f 907/4/6 917/4/6 921/4/6
f 921/4/6 918/4/6 922/4/6
f 922/4/6 918/4/6 923/4/6
f 919/4/6 920/4/6 924/4/6
f 920/4/6 912/4/6 925/4/6
f 924/4/6 920/4/6 925/4/6
f 925/4/6 912/4/6 926/4/6
f 922/4/6 923/4/6 927/4/6
f 923/4/6 924/4/6 927/4/6
f 924/4/6 925/4/6 927/4/6
f 927/4/6 925/4/6 928/4/6
f 929/4/6 930/4/6 932/4/6
f 932/4/6 930/4/6 933/4/6
f 931/4/6 932/4/6 935/4/6
f 933/4/6 934/4/6 935/4/6
f 932/4/6 933/4/6 935/4/6
f 935/4/6 934/4/6 936/4/6
f 931/4/6 935/4/6 937/4/6
f 937/4/6 935/4/6 938/4/6
f 936/4/6 934/4/6 939/4/6
f 939/4/6 934/4/6 940/4/6
f 931/4/6 937/4/6 941/4/6
f 940/4/6 934/4/6 944/4/6
f 941/4/6 942/4/6 945/4/6
f 943/4/6 944/4/6 946/4/6
f 941/4/6 945/4/6 947/4/6
f 945/4/6 946/4/6 947/4/6
f 931/4/6 941/4/6 947/4/6
f 947/4/6 946/4/6 948/4/6
f 946/4/6 944/4/6 949/4/6
f 948/4/6 946/4/6 949/4/6
f 944/4/6 934/4/6 949/4/6
f 949/4/6 934/4/6 950/4/6
f 948/4/6 949/4/6 951/4/6
f 951/4/6 949/4/6 952/4/6
f 953/4/6 954/4/6 956/4/6
f 956/4/6 954/4/6 957/4/6
f 955/4/6 956/4/6 959/4/6
f 957/4/6 958/4/6 959/4/6
f 956/4/6 957/4/6 959/4/6
f 959/4/6 958/4/6 960/4/6
f 960/4/6 958/4/6 961/4/6
f 961/4/6 958/4/6 962/4/6
f 960/4/6 961/4/6 963/4/6
f 963/4/6 961/4/6 964/4/6
