# MagicaVoxel @ Ephtracy

# group
o 

# material
mtllib model-1.mtl
usemtl palette

# normals
vn -1 0 0
vn 1 0 0
vn 0 0 1
vn 0 0 -1
vn 0 -1 0
vn 0 1 0

# texcoords
vt 0.0292969 0.5
vt 0.814453 0.5

# verts
v -0.1 0 0.3
v -0.1 0 -0.3
v -0.1 0.1 0.3
v -0.1 0.1 -0.3
v -0.1 0.5 0.7
v -0.1 0.5 0.4
v -0.1 0.5 -0.4
v -0.1 0.5 -0.7
v -0.1 0.9 0.6
v -0.1 0.9 0.5
v -0.1 0.9 -0.5
v -0.1 0.9 -0.6
v -0.1 1 0.6
v -0.1 1 0.5
v -0.1 1 -0.5
v -0.1 1 -0.6
v -0.1 1.1 0.7
v -0.1 1.1 0.4
v -0.1 1.1 -0.4
v -0.1 1.1 -0.7
v 0 0 0.3
v 0 0 -0.3
v 0 0.1 0.3
v 0 0.1 -0.3
v 0 0.5 0.7
v 0 0.5 0.4
v 0 0.5 -0.4
v 0 0.5 -0.7
v 0 0.9 0.6
v 0 0.9 0.5
v 0 0.9 -0.5
v 0 0.9 -0.6
v 0 1 0.6
v 0 1 0.5
v 0 1 -0.5
v 0 1 -0.6
v 0 1.1 0.7
v 0 1.1 0.4
v 0 1.1 -0.4
v 0 1.1 -0.7
v -0.1 0.5 0.7
v -0.1 1.1 0.7
v 0 0.5 0.7
v 0 1.1 0.7
v -0.1 0 0.3
v -0.1 0.1 0.3
v 0 0 0.3
v 0 0.1 0.3
v -0.1 0.5 -0.4
v -0.1 1.1 -0.4
v 0 0.5 -0.4
v 0 1.1 -0.4
v -0.1 0.5 0.4
v -0.1 1.1 0.4
v 0 0.5 0.4
v 0 1.1 0.4
v -0.1 0 -0.3
v -0.1 0.1 -0.3
v 0 0 -0.3
v 0 0.1 -0.3
v -0.1 0.5 -0.7
v -0.1 1.1 -0.7
v 0 0.5 -0.7
v 0 1.1 -0.7
v -0.1 0 0.3
v 0 0 0.3
v -0.1 0 -0.3
v 0 0 -0.3
v -0.1 0.5 0.7
v 0 0.5 0.7
v -0.1 0.5 0.4
v 0 0.5 0.4
v -0.1 0.5 -0.4
v 0 0.5 -0.4
v -0.1 0.5 -0.7
v 0 0.5 -0.7
v -0.1 0.1 0.3
v 0 0.1 0.3
v -0.1 0.1 -0.3
v 0 0.1 -0.3
v -0.1 1.1 0.7
v 0 1.1 0.7
v -0.1 1.1 0.4
v 0 1.1 0.4
v -0.1 1.1 -0.4
v 0 1.1 -0.4
v -0.1 1.1 -0.7
v 0 1.1 -0.7

# faces
f 3/2/1 2/2/1 1/2/1
f 4/2/1 2/2/1 3/2/1
f 9/2/1 6/2/1 5/2/1
f 10/2/1 6/2/1 9/2/1
f 11/2/1 8/2/1 7/2/1
f 12/2/1 8/2/1 11/2/1
f 13/2/1 9/2/1 5/2/1
f 13/1/1 10/1/1 9/1/1
f 14/2/1 6/2/1 10/2/1
f 14/1/1 10/1/1 13/1/1
f 15/1/1 12/1/1 11/1/1
f 15/2/1 11/2/1 7/2/1
f 16/2/1 8/2/1 12/2/1
f 16/1/1 12/1/1 15/1/1
f 17/2/1 13/2/1 5/2/1
f 17/2/1 14/2/1 13/2/1
f 18/2/1 6/2/1 14/2/1
f 18/2/1 14/2/1 17/2/1
f 19/2/1 15/2/1 7/2/1
f 19/2/1 16/2/1 15/2/1
f 20/2/1 8/2/1 16/2/1
f 20/2/1 16/2/1 19/2/1
f 21/2/2 22/2/2 23/2/2
f 23/2/2 22/2/2 24/2/2
f 25/2/2 26/2/2 29/2/2
f 29/2/2 26/2/2 30/2/2
f 27/2/2 28/2/2 31/2/2
f 31/2/2 28/2/2 32/2/2
f 25/2/2 29/2/2 33/2/2
f 29/1/2 30/1/2 33/1/2
f 30/2/2 26/2/2 34/2/2
f 33/1/2 30/1/2 34/1/2
f 31/1/2 32/1/2 35/1/2
f 27/2/2 31/2/2 35/2/2
f 32/2/2 28/2/2 36/2/2
f 35/1/2 32/1/2 36/1/2
f 25/2/2 33/2/2 37/2/2
f 33/2/2 34/2/2 37/2/2
f 34/2/2 26/2/2 38/2/2
f 37/2/2 34/2/2 38/2/2
f 27/2/2 35/2/2 39/2/2
f 35/2/2 36/2/2 39/2/2
f 36/2/2 28/2/2 40/2/2
f 39/2/2 36/2/2 40/2/2
f 43/2/3 42/2/3 41/2/3
f 44/2/3 42/2/3 43/2/3
f 47/2/3 46/2/3 45/2/3
f 48/2/3 46/2/3 47/2/3
f 51/2/3 50/2/3 49/2/3
f 52/2/3 50/2/3 51/2/3
f 53/2/4 54/2/4 55/2/4
f 55/2/4 54/2/4 56/2/4
f 57/2/4 58/2/4 59/2/4
f 59/2/4 58/2/4 60/2/4
f 61/2/4 62/2/4 63/2/4
f 63/2/4 62/2/4 64/2/4
f 67/2/5 66/2/5 65/2/5
f 68/2/5 66/2/5 67/2/5
f 71/2/5 70/2/5 69/2/5
f 72/2/5 70/2/5 71/2/5
f 75/2/5 74/2/5 73/2/5
f 76/2/5 74/2/5 75/2/5
f 77/2/6 78/2/6 79/2/6
f 79/2/6 78/2/6 80/2/6
f 81/2/6 82/2/6 83/2/6
f 83/2/6 82/2/6 84/2/6
f 85/2/6 86/2/6 87/2/6
f 87/2/6 86/2/6 88/2/6
