# MagicaVoxel @ Ephtracy

# group
o 

# material
mtllib model.mtl
usemtl palette

# normals
vn -1 0 0
vn 1 0 0
vn 0 0 1
vn 0 0 -1
vn 0 -1 0
vn 0 1 0

# texcoords
vt 0.0292969 0.5
vt 0.533203 0.5
vt 0.537109 0.5
vt 0.814453 0.5
vt 0.822266 0.5

# verts
v -0.1 0 0.1
v -0.1 0 -0.1
v -0.1 0.3 0.1
v -0.1 0.3 -0.1
v -0.1 0.4 0.1
v -0.1 0.4 -0.1
v -0.1 0.7 0.7
v -0.1 0.7 0.4
v -0.1 0.7 -0.4
v -0.1 0.7 -0.7
v -0.1 1.1 0.6
v -0.1 1.1 0.5
v -0.1 1.1 -0.5
v -0.1 1.1 -0.6
v -0.1 1.2 0.6
v -0.1 1.2 0.5
v -0.1 1.2 -0.5
v -0.1 1.2 -0.6
v -0.1 1.3 0.7
v -0.1 1.3 0.4
v -0.1 1.3 -0.4
v -0.1 1.3 -0.7
v -0.1 1.5 1
v -0.1 1.5 0.8
v -0.1 1.5 -0.8
v -0.1 1.5 -1
v -0.1 1.7 0.8
v -0.1 1.7 0.2
v -0.1 1.7 -0.2
v -0.1 1.7 -0.8
v -0.1 1.8 1
v -0.1 1.8 0.9
v -0.1 1.8 -0.9
v -0.1 1.8 -1
v -0.1 1.9 0.9
v -0.1 1.9 0.2
v -0.1 1.9 -0.2
v -0.1 1.9 -0.9
v 0 0 0.1
v 0 0 -0.1
v 0 0.3 0.1
v 0 0.3 -0.1
v 0 0.4 0.1
v 0 0.4 -0.1
v 0 0.7 0.7
v 0 0.7 0.4
v 0 0.7 -0.4
v 0 0.7 -0.7
v 0 1.1 0.6
v 0 1.1 0.5
v 0 1.1 -0.5
v 0 1.1 -0.6
v 0 1.2 0.6
v 0 1.2 0.5
v 0 1.2 -0.5
v 0 1.2 -0.6
v 0 1.3 0.7
v 0 1.3 0.4
v 0 1.3 -0.4
v 0 1.3 -0.7
v 0.1 1.5 1
v 0.1 1.5 0.8
v 0.1 1.5 -0.8
v 0.1 1.5 -1
v 0.1 1.7 0.8
v 0.1 1.7 0.2
v 0.1 1.7 -0.2
v 0.1 1.7 -0.8
v 0.1 1.8 1
v 0.1 1.8 0.9
v 0.1 1.8 -0.9
v 0.1 1.8 -1
v 0.1 1.9 0.9
v 0.1 1.9 0.2
v 0.1 1.9 -0.2
v 0.1 1.9 -0.9
v -0.1 1.5 1
v -0.1 1.8 1
v 0.1 1.5 1
v 0.1 1.8 1
v -0.1 1.8 0.9
v -0.1 1.9 0.9
v 0.1 1.8 0.9
v 0.1 1.9 0.9
v -0.1 0.7 0.7
v -0.1 1.3 0.7
v 0 0.7 0.7
v 0 1.3 0.7
v -0.1 0 0.1
v -0.1 0.3 0.1
v -0.1 0.4 0.1
v 0 0 0.1
v 0 0.3 0.1
v 0 0.4 0.1
v -0.1 1.7 -0.2
v -0.1 1.9 -0.2
v 0.1 1.7 -0.2
v 0.1 1.9 -0.2
v -0.1 0.7 -0.4
v -0.1 1.3 -0.4
v 0 0.7 -0.4
v 0 1.3 -0.4
v -0.1 1.5 -0.8
v -0.1 1.7 -0.8
v 0.1 1.5 -0.8
v 0.1 1.7 -0.8
v -0.1 1.5 0.8
v -0.1 1.7 0.8
v 0.1 1.5 0.8
v 0.1 1.7 0.8
v -0.1 0.7 0.4
v -0.1 1.3 0.4
v 0 0.7 0.4
v 0 1.3 0.4
v -0.1 1.7 0.2
v -0.1 1.9 0.2
v 0.1 1.7 0.2
v 0.1 1.9 0.2
v -0.1 0 -0.1
v -0.1 0.3 -0.1
v -0.1 0.4 -0.1
v 0 0 -0.1
v 0 0.3 -0.1
v 0 0.4 -0.1
v -0.1 0.7 -0.7
v -0.1 1.3 -0.7
v 0 0.7 -0.7
v 0 1.3 -0.7
v -0.1 1.8 -0.9
v -0.1 1.9 -0.9
v 0.1 1.8 -0.9
v 0.1 1.9 -0.9
v -0.1 1.5 -1
v -0.1 1.8 -1
v 0.1 1.5 -1
v 0.1 1.8 -1
v -0.1 0 0.1
v 0 0 0.1
v -0.1 0 -0.1
v 0 0 -0.1
v -0.1 0.7 0.7
v 0 0.7 0.7
v -0.1 0.7 0.4
v 0 0.7 0.4
v -0.1 0.7 -0.4
v 0 0.7 -0.4
v -0.1 0.7 -0.7
v 0 0.7 -0.7
v -0.1 1.5 1
v 0.1 1.5 1
v -0.1 1.5 0.8
v 0.1 1.5 0.8
v -0.1 1.5 -0.8
v 0.1 1.5 -0.8
v -0.1 1.5 -1
v 0.1 1.5 -1
v -0.1 1.7 0.8
v 0.1 1.7 0.8
v -0.1 1.7 0.2
v 0.1 1.7 0.2
v -0.1 1.7 -0.2
v 0.1 1.7 -0.2
v -0.1 1.7 -0.8
v 0.1 1.7 -0.8
v -0.1 0.4 0.1
v 0 0.4 0.1
v -0.1 0.4 -0.1
v 0 0.4 -0.1
v -0.1 1.3 0.7
v 0 1.3 0.7
v -0.1 1.3 0.4
v 0 1.3 0.4
v -0.1 1.3 -0.4
v 0 1.3 -0.4
v -0.1 1.3 -0.7
v 0 1.3 -0.7
v -0.1 1.8 1
v 0.1 1.8 1
v -0.1 1.8 0.9
v 0.1 1.8 0.9
v -0.1 1.8 -0.9
v 0.1 1.8 -0.9
v -0.1 1.8 -1
v 0.1 1.8 -1
v -0.1 1.9 0.9
v 0.1 1.9 0.9
v -0.1 1.9 0.2
v 0.1 1.9 0.2
v -0.1 1.9 -0.2
v 0.1 1.9 -0.2
v -0.1 1.9 -0.9
v 0.1 1.9 -0.9

# faces
f 3/3/1 2/3/1 1/3/1
f 4/3/1 2/3/1 3/3/1
f 5/2/1 4/2/1 3/2/1
f 6/2/1 4/2/1 5/2/1
f 11/4/1 8/4/1 7/4/1
f 12/4/1 8/4/1 11/4/1
f 13/4/1 10/4/1 9/4/1
f 14/4/1 10/4/1 13/4/1
f 15/4/1 11/4/1 7/4/1
f 15/1/1 12/1/1 11/1/1
f 16/4/1 8/4/1 12/4/1
f 16/1/1 12/1/1 15/1/1
f 17/1/1 14/1/1 13/1/1
f 17/4/1 13/4/1 9/4/1
f 18/4/1 10/4/1 14/4/1
f 18/1/1 14/1/1 17/1/1
f 19/4/1 15/4/1 7/4/1
f 19/4/1 16/4/1 15/4/1
f 20/4/1 8/4/1 16/4/1
f 20/4/1 16/4/1 19/4/1
f 21/4/1 17/4/1 9/4/1
f 21/4/1 18/4/1 17/4/1
f 22/4/1 10/4/1 18/4/1
f 22/4/1 18/4/1 21/4/1
f 27/5/1 24/5/1 23/5/1
f 30/5/1 26/5/1 25/5/1
f 31/5/1 28/5/1 27/5/1
f 31/5/1 27/5/1 23/5/1
f 32/5/1 28/5/1 31/5/1
f 33/5/1 30/5/1 29/5/1
f 33/5/1 26/5/1 30/5/1
f 34/5/1 26/5/1 33/5/1
f 35/5/1 28/5/1 32/5/1
f 36/5/1 28/5/1 35/5/1
f 37/5/1 33/5/1 29/5/1
f 38/5/1 33/5/1 37/5/1
f 39/3/2 40/3/2 41/3/2
f 41/3/2 40/3/2 42/3/2
f 41/2/2 42/2/2 43/2/2
f 43/2/2 42/2/2 44/2/2
f 45/4/2 46/4/2 49/4/2
f 49/4/2 46/4/2 50/4/2
f 47/4/2 48/4/2 51/4/2
f 51/4/2 48/4/2 52/4/2
f 45/4/2 49/4/2 53/4/2
f 49/1/2 50/1/2 53/1/2
f 50/4/2 46/4/2 54/4/2
f 53/1/2 50/1/2 54/1/2
f 51/1/2 52/1/2 55/1/2
f 47/4/2 51/4/2 55/4/2
f 52/4/2 48/4/2 56/4/2
f 55/1/2 52/1/2 56/1/2
f 45/4/2 53/4/2 57/4/2
f 53/4/2 54/4/2 57/4/2
f 54/4/2 46/4/2 58/4/2
f 57/4/2 54/4/2 58/4/2
f 47/4/2 55/4/2 59/4/2
f 55/4/2 56/4/2 59/4/2
f 56/4/2 48/4/2 60/4/2
f 59/4/2 56/4/2 60/4/2
f 61/5/2 62/5/2 65/5/2
f 63/5/2 64/5/2 68/5/2
f 65/5/2 66/5/2 69/5/2
f 61/5/2 65/5/2 69/5/2
f 69/5/2 66/5/2 70/5/2
f 67/5/2 68/5/2 71/5/2
f 68/5/2 64/5/2 71/5/2
f 71/5/2 64/5/2 72/5/2
f 70/5/2 66/5/2 73/5/2
f 73/5/2 66/5/2 74/5/2
f 67/5/2 71/5/2 75/5/2
f 75/5/2 71/5/2 76/5/2
f 79/5/3 78/5/3 77/5/3
f 80/5/3 78/5/3 79/5/3
f 83/5/3 82/5/3 81/5/3
f 84/5/3 82/5/3 83/5/3
f 87/4/3 86/4/3 85/4/3
f 88/4/3 86/4/3 87/4/3
f 92/3/3 90/3/3 89/3/3
f 93/2/3 91/2/3 90/2/3
f 93/3/3 90/3/3 92/3/3
f 94/2/3 91/2/3 93/2/3
f 97/5/3 96/5/3 95/5/3
f 98/5/3 96/5/3 97/5/3
f 101/4/3 100/4/3 99/4/3
f 102/4/3 100/4/3 101/4/3
f 105/5/3 104/5/3 103/5/3
f 106/5/3 104/5/3 105/5/3
f 107/5/4 108/5/4 109/5/4
f 109/5/4 108/5/4 110/5/4
f 111/4/4 112/4/4 113/4/4
f 113/4/4 112/4/4 114/4/4
f 115/5/4 116/5/4 117/5/4
f 117/5/4 116/5/4 118/5/4
f 119/3/4 120/3/4 122/3/4
f 120/2/4 121/2/4 123/2/4
f 122/3/4 120/3/4 123/3/4
f 123/2/4 121/2/4 124/2/4
f 125/4/4 126/4/4 127/4/4
f 127/4/4 126/4/4 128/4/4
f 129/5/4 130/5/4 131/5/4
f 131/5/4 130/5/4 132/5/4
f 133/5/4 134/5/4 135/5/4
f 135/5/4 134/5/4 136/5/4
f 139/3/5 138/3/5 137/3/5
f 140/3/5 138/3/5 139/3/5
f 143/4/5 142/4/5 141/4/5
f 144/4/5 142/4/5 143/4/5
f 147/4/5 146/4/5 145/4/5
f 148/4/5 146/4/5 147/4/5
f 151/5/5 150/5/5 149/5/5
f 152/5/5 150/5/5 151/5/5
f 155/5/5 154/5/5 153/5/5
f 156/5/5 154/5/5 155/5/5
f 159/5/5 158/5/5 157/5/5
f 160/5/5 158/5/5 159/5/5
f 163/5/5 162/5/5 161/5/5
f 164/5/5 162/5/5 163/5/5
f 165/2/6 166/2/6 167/2/6
f 167/2/6 166/2/6 168/2/6
f 169/4/6 170/4/6 171/4/6
f 171/4/6 170/4/6 172/4/6
f 173/4/6 174/4/6 175/4/6
f 175/4/6 174/4/6 176/4/6
f 177/5/6 178/5/6 179/5/6
f 179/5/6 178/5/6 180/5/6
f 181/5/6 182/5/6 183/5/6
f 183/5/6 182/5/6 184/5/6
f 185/5/6 186/5/6 187/5/6
f 187/5/6 186/5/6 188/5/6
f 189/5/6 190/5/6 191/5/6
f 191/5/6 190/5/6 192/5/6
