# MagicaVoxel @ Ephtracy

# group
o 

# material
mtllib model-0.mtl
usemtl palette

# normals
vn -1 0 0
vn 1 0 0
vn 0 0 1
vn 0 0 -1
vn 0 -1 0
vn 0 1 0

# texcoords
vt 0.544922 0.5
vt 0.548828 0.5

# verts
v -1.1 2.9 1.2
v -1.1 2.9 1.1
v -1.1 2.9 1
v -1.1 2.9 0.7
v -1.1 2.9 0.5
v -1.1 2.9 0.2
v -1.1 2.9 0.1
v -1.1 2.9 -0.1
v -1.1 2.9 -0.2
v -1.1 2.9 -0.5
v -1.1 2.9 -0.7
v -1.1 2.9 -1
v -1.1 2.9 -1.1
v -1.1 2.9 -1.2
v -1.1 3.3 0.7
v -1.1 3.3 0.5
v -1.1 3.3 -0.5
v -1.1 3.3 -0.7
v -1.1 3.4 1.1
v -1.1 3.4 1
v -1.1 3.4 -1
v -1.1 3.4 -1.1
v -1.1 3.6 1.2
v -1.1 3.6 0.2
v -1.1 3.6 0.1
v -1.1 3.6 -0.1
v -1.1 3.6 -0.2
v -1.1 3.6 -1.2
v -1.1 4.1 1.2
v -1.1 4.1 0.7
v -1.1 4.1 0.6
v -1.1 4.1 0.1
v -1.1 4.1 -0.1
v -1.1 4.1 -0.6
v -1.1 4.1 -0.7
v -1.1 4.1 -1.2
v -1.1 4.9 1.2
v -1.1 4.9 0.7
v -1.1 4.9 0.6
v -1.1 4.9 0.1
v -1.1 4.9 -0.1
v -1.1 4.9 -0.6
v -1.1 4.9 -0.7
v -1.1 4.9 -1.2
v -1 3.6 1.1
v -1 3.6 0.9
v -1 3.6 0.7
v -1 3.6 0.5
v -1 3.6 0.3
v -1 3.6 0.2
v -1 3.6 0.1
v -1 3.6 -0.1
v -1 3.6 -0.2
v -1 3.6 -0.3
v -1 3.6 -0.5
v -1 3.6 -0.7
v -1 3.6 -0.9
v -1 3.6 -1.1
v -1 4.1 1.1
v -1 4.1 0.9
v -1 4.1 0.7
v -1 4.1 0.6
v -1 4.1 0.5
v -1 4.1 0.3
v -1 4.1 0.1
v -1 4.1 -0.1
v -1 4.1 -0.3
v -1 4.1 -0.5
v -1 4.1 -0.6
v -1 4.1 -0.7
v -1 4.1 -0.9
v -1 4.1 -1.1
v -1 4.9 1.1
v -1 4.9 0.9
v -1 4.9 0.8
v -1 4.9 0.7
v -1 4.9 0.6
v -1 4.9 0.1
v -1 4.9 -0.1
v -1 4.9 -0.6
v -1 4.9 -0.7
v -1 4.9 -0.8
v -1 4.9 -0.9
v -1 4.9 -1.1
v -1 5.2 0.4
v -1 5.2 0.2
v -1 5.2 -0.2
v -1 5.2 -0.4
v -1 5.7 1.1
v -1 5.7 0.9
v -1 5.7 0.8
v -1 5.7 0.4
v -1 5.7 0.2
v -1 5.7 -0.2
v -1 5.7 -0.4
v -1 5.7 -0.8
v -1 5.7 -0.9
v -1 5.7 -1.1
v -0.9 2.9 1.4
v -0.9 2.9 1.2
v -0.9 2.9 -1.2
v -0.9 2.9 -1.4
v -0.9 3.6 1.4
v -0.9 3.6 1.2
v -0.9 3.6 -1.2
v -0.9 3.6 -1.4
v -0.8 3.6 1.3
v -0.8 3.6 1.1
v -0.8 3.6 -1.1
v -0.8 3.6 -1.3
v -0.8 4.1 1.4
v -0.8 4.1 1.3
v -0.8 4.1 1.2
v -0.8 4.1 1.1
v -0.8 4.1 -1.1
v -0.8 4.1 -1.2
v -0.8 4.1 -1.3
v -0.8 4.1 -1.4
v -0.8 4.9 1.4
v -0.8 4.9 1.3
v -0.8 4.9 1.2
v -0.8 4.9 1.1
v -0.8 4.9 -1.1
v -0.8 4.9 -1.2
v -0.8 4.9 -1.3
v -0.8 4.9 -1.4
v -0.8 5.7 1.3
v -0.8 5.7 1.1
v -0.8 5.7 -1.1
v -0.8 5.7 -1.3
v 0.2 3.6 1.3
v 0.2 3.6 1.1
v 0.2 3.6 -1.1
v 0.2 3.6 -1.3
v 0.2 4.4 1.3
v 0.2 4.4 1.1
v 0.2 4.4 -1.1
v 0.2 4.4 -1.3
v 0.5 4.3 1.3
v 0.5 4.3 1.1
v 0.5 4.3 -1.1
v 0.5 4.3 -1.3
v 0.5 4.8 1.3
v 0.5 4.8 1.2
v 0.5 4.8 1.1
v 0.5 4.8 -1.1
v 0.5 4.8 -1.2
v 0.5 4.8 -1.3
v 0.6 3.9 1.3
v 0.6 3.9 1.1
v 0.6 3.9 -1.1
v 0.6 3.9 -1.3
v 0.6 4.3 1.3
v 0.6 4.3 1.1
v 0.6 4.3 -1.1
v 0.6 4.3 -1.3
v -0.5 2.9 1.4
v -0.5 2.9 -1.4
v -0.5 3.6 1.4
v -0.5 3.6 1.3
v -0.5 3.6 1.2
v -0.5 3.6 -1.2
v -0.5 3.6 -1.3
v -0.5 3.6 -1.4
v -0.4 3.6 1.1
v -0.4 3.6 -1.1
v -0.4 5.5 1.1
v -0.4 5.5 -1.1
v 0 3.6 1.3
v 0 3.6 1.1
v 0 3.6 -1.1
v 0 3.6 -1.3
v 0 4.1 1.4
v 0 4.1 1.3
v 0 4.1 -1.3
v 0 4.1 -1.4
v 0 4.4 1.3
v 0 4.4 1.1
v 0 4.4 -1.1
v 0 4.4 -1.3
v 0 4.9 1.4
v 0 4.9 1.3
v 0 4.9 -1.3
v 0 4.9 -1.4
v 0.4 3.6 1.3
v 0.4 3.6 1.1
v 0.4 3.6 -1.1
v 0.4 3.6 -1.3
v 0.4 4.8 1.3
v 0.4 4.8 1.2
v 0.4 4.8 1.1
v 0.4 4.8 -1.1
v 0.4 4.8 -1.2
v 0.4 4.8 -1.3
v 0.7 3.9 1.3
v 0.7 3.9 1.1
v 0.7 3.9 -1.1
v 0.7 3.9 -1.3
v 0.7 4.5 1.3
v 0.7 4.5 1.1
v 0.7 4.5 -1.1
v 0.7 4.5 -1.3
v 0.8 4.5 1.3
v 0.8 4.5 1.1
v 0.8 4.5 -1.1
v 0.8 4.5 -1.3
v 0.8 5.5 1.1
v 0.8 5.5 -1.1
v 0.8 5.7 1.3
v 0.8 5.7 -1.3
v -0.9 2.9 1.4
v -0.9 3.6 1.4
v -0.8 2.9 1.4
v -0.8 3.6 1.4
v -0.8 4.1 1.4
v -0.8 4.9 1.4
v -0.7 2.9 1.4
v -0.7 3.6 1.4
v -0.7 4.1 1.4
v -0.7 4.6 1.4
v -0.6 4.1 1.4
v -0.6 4.6 1.4
v -0.5 2.9 1.4
v -0.5 3.6 1.4
v -0.4 4.1 1.4
v -0.4 4.9 1.4
v -0.2 4.1 1.4
v -0.2 4.9 1.4
v 0 4.1 1.4
v 0 4.9 1.4
v -0.8 3.6 1.3
v -0.8 4.1 1.3
v -0.8 4.9 1.3
v -0.8 5.7 1.3
v -0.7 3.6 1.3
v -0.7 4.1 1.3
v -0.6 3.6 1.3
v -0.6 4.1 1.3
v -0.6 4.9 1.3
v -0.6 5.7 1.3
v -0.5 3.6 1.3
v -0.5 4.9 1.3
v -0.5 5.7 1.3
v -0.4 3.6 1.3
v -0.4 4.1 1.3
v -0.4 4.9 1.3
v -0.2 4.1 1.3
v -0.2 4.9 1.3
v -0.1 4.9 1.3
v -0.1 5.7 1.3
v 0 3.6 1.3
v 0 4.1 1.3
v 0 4.4 1.3
v 0 4.9 1.3
v 0.1 4.9 1.3
v 0.1 5.7 1.3
v 0.2 3.6 1.3
v 0.2 4.4 1.3
v 0.3 3.6 1.3
v 0.3 4.9 1.3
v 0.4 3.6 1.3
v 0.4 4.8 1.3
v 0.4 5.7 1.3
v 0.5 4.3 1.3
v 0.5 4.8 1.3
v 0.6 3.9 1.3
v 0.6 4.3 1.3
v 0.6 5.7 1.3
v 0.7 3.9 1.3
v 0.7 4.5 1.3
v 0.8 4.5 1.3
v 0.8 5.7 1.3
v -1.1 2.9 1.2
v -1.1 3.6 1.2
v -1.1 4.1 1.2
v -1.1 4.9 1.2
v -0.9 2.9 1.2
v -0.9 3.6 1.2
v -0.9 4.1 1.2
v -0.9 4.9 1.2
v -0.8 4.1 1.2
v -0.8 4.9 1.2
v -1 3.6 1.1
v -1 4.1 1.1
v -1 4.9 1.1
v -1 5.7 1.1
v -0.9 4.1 1.1
v -0.9 4.9 1.1
v -0.8 3.6 1.1
v -0.8 4.1 1.1
v -0.8 4.9 1.1
v -0.8 5.7 1.1
v -0.4 3.6 -1.1
v -0.4 5.5 -1.1
v 0 3.6 -1.1
v 0 4.4 -1.1
v 0 4.9 -1.1
v 0.2 3.6 -1.1
v 0.2 4.4 -1.1
v 0.3 3.6 -1.1
v 0.3 4.9 -1.1
v 0.4 3.6 -1.1
v 0.4 4.8 -1.1
v 0.5 4.3 -1.1
v 0.5 4.8 -1.1
v 0.6 3.9 -1.1
v 0.6 4.3 -1.1
v 0.6 4.8 -1.1
v 0.7 3.9 -1.1
v 0.7 4.5 -1.1
v 0.8 4.5 -1.1
v 0.8 5.5 -1.1
v -0.4 3.6 1.1
v -0.4 5.5 1.1
v 0 3.6 1.1
v 0 4.4 1.1
v 0 4.9 1.1
v 0.2 3.6 1.1
v 0.2 4.4 1.1
v 0.3 3.6 1.1
v 0.3 4.9 1.1
v 0.4 3.6 1.1
v 0.4 4.8 1.1
v 0.5 4.3 1.1
v 0.5 4.8 1.1
v 0.6 3.9 1.1
v 0.6 4.3 1.1
v 0.6 4.8 1.1
v 0.7 3.9 1.1
v 0.7 4.5 1.1
v 0.8 4.5 1.1
v 0.8 5.5 1.1
v -1 3.6 -1.1
v -1 4.1 -1.1
v -1 4.9 -1.1
v -1 5.7 -1.1
v -0.9 4.1 -1.1
v -0.9 4.9 -1.1
v -0.8 3.6 -1.1
v -0.8 4.1 -1.1
v -0.8 4.9 -1.1
v -0.8 5.7 -1.1
v -1.1 2.9 -1.2
v -1.1 3.6 -1.2
v -1.1 4.1 -1.2
v -1.1 4.9 -1.2
v -0.9 2.9 -1.2
v -0.9 3.6 -1.2
v -0.9 4.1 -1.2
v -0.9 4.9 -1.2
v -0.8 4.1 -1.2
v -0.8 4.9 -1.2
v -0.8 3.6 -1.3
v -0.8 4.1 -1.3
v -0.8 4.9 -1.3
v -0.8 5.7 -1.3
v -0.7 3.6 -1.3
v -0.7 4.1 -1.3
v -0.6 3.6 -1.3
v -0.6 4.1 -1.3
v -0.6 4.9 -1.3
v -0.6 5.7 -1.3
v -0.5 3.6 -1.3
v -0.5 4.9 -1.3
v -0.5 5.7 -1.3
v -0.4 3.6 -1.3
v -0.4 4.1 -1.3
v -0.4 4.9 -1.3
v -0.2 4.1 -1.3
v -0.2 4.9 -1.3
v -0.1 4.9 -1.3
v -0.1 5.7 -1.3
v 0 3.6 -1.3
v 0 4.1 -1.3
v 0 4.4 -1.3
v 0 4.9 -1.3
v 0.1 4.9 -1.3
v 0.1 5.7 -1.3
v 0.2 3.6 -1.3
v 0.2 4.4 -1.3
v 0.3 3.6 -1.3
v 0.3 4.9 -1.3
v 0.4 3.6 -1.3
v 0.4 4.8 -1.3
v 0.4 5.7 -1.3
v 0.5 4.3 -1.3
v 0.5 4.8 -1.3
v 0.6 3.9 -1.3
v 0.6 4.3 -1.3
v 0.6 5.7 -1.3
v 0.7 3.9 -1.3
v 0.7 4.5 -1.3
v 0.8 4.5 -1.3
v 0.8 5.7 -1.3
v -0.9 2.9 -1.4
v -0.9 3.6 -1.4
v -0.8 2.9 -1.4
v -0.8 3.6 -1.4
v -0.8 4.1 -1.4
v -0.8 4.9 -1.4
v -0.7 2.9 -1.4
v -0.7 3.6 -1.4
v -0.7 4.1 -1.4
v -0.7 4.6 -1.4
v -0.6 4.1 -1.4
v -0.6 4.6 -1.4
v -0.5 2.9 -1.4
v -0.5 3.6 -1.4
v -0.4 4.1 -1.4
v -0.4 4.9 -1.4
v -0.2 4.1 -1.4
v -0.2 4.9 -1.4
v 0 4.1 -1.4
v 0 4.9 -1.4
v -0.9 2.9 1.4
v -0.8 2.9 1.4
v -0.7 2.9 1.4
v -0.5 2.9 1.4
v -0.8 2.9 1.3
v -0.7 2.9 1.3
v -1.1 2.9 1.2
v -0.9 2.9 1.2
v -1.1 2.9 1.1
v -1 2.9 1.1
v -1.1 2.9 1
v -1 2.9 1
v -1.1 2.9 0.7
v -1 2.9 0.7
v -1.1 2.9 0.5
v -1 2.9 0.5
v -1.1 2.9 0.2
v -1 2.9 0.2
v -1.1 2.9 0.1
v -1 2.9 0.1
v -1.1 2.9 -0.1
v -1 2.9 -0.1
v -1.1 2.9 -0.2
v -1 2.9 -0.2
v -1.1 2.9 -0.5
v -1 2.9 -0.5
v -1.1 2.9 -0.7
v -1 2.9 -0.7
v -1.1 2.9 -1
v -1 2.9 -1
v -1.1 2.9 -1.1
v -1 2.9 -1.1
v -1.1 2.9 -1.2
v -0.9 2.9 -1.2
v -0.8 2.9 -1.3
v -0.7 2.9 -1.3
v -0.9 2.9 -1.4
v -0.8 2.9 -1.4
v -0.7 2.9 -1.4
v -0.5 2.9 -1.4
v -0.5 3.6 1.3
v -0.4 3.6 1.3
v 0 3.6 1.3
v 0.2 3.6 1.3
v 0.3 3.6 1.3
v 0.4 3.6 1.3
v -0.5 3.6 1.2
v -0.4 3.6 1.2
v -0.4 3.6 1.1
v 0 3.6 1.1
v 0.2 3.6 1.1
v 0.3 3.6 1.1
v 0.4 3.6 1.1
v -0.4 3.6 -1.1
v 0 3.6 -1.1
v 0.2 3.6 -1.1
v 0.3 3.6 -1.1
v 0.4 3.6 -1.1
v -0.5 3.6 -1.2
v -0.4 3.6 -1.2
v -0.5 3.6 -1.3
v -0.4 3.6 -1.3
v 0 3.6 -1.3
v 0.2 3.6 -1.3
v 0.3 3.6 -1.3
v 0.4 3.6 -1.3
v 0.6 3.9 1.3
v 0.7 3.9 1.3
v 0.6 3.9 1.1
v 0.7 3.9 1.1
v 0.6 3.9 -1.1
v 0.7 3.9 -1.1
v 0.6 3.9 -1.3
v 0.7 3.9 -1.3
v -0.8 4.1 1.4
v -0.7 4.1 1.4
v -0.6 4.1 1.4
v -0.4 4.1 1.4
v -0.2 4.1 1.4
v 0 4.1 1.4
v -0.8 4.1 1.3
v -0.7 4.1 1.3
v -0.6 4.1 1.3
v -0.4 4.1 1.3
v -0.2 4.1 1.3
v 0 4.1 1.3
v -1.1 4.1 1.2
v -0.9 4.1 1.2
v -0.8 4.1 1.2
v -1 4.1 1.1
v -0.9 4.1 1.1
v -0.8 4.1 1.1
v -1 4.1 0.9
v -1.1 4.1 0.7
v -1 4.1 0.7
v -1.1 4.1 0.6
v -1 4.1 0.6
v -1 4.1 0.5
v -1 4.1 0.3
v -1.1 4.1 0.1
v -1 4.1 0.1
v -1.1 4.1 -0.1
v -1 4.1 -0.1
v -1 4.1 -0.3
v -1 4.1 -0.5
v -1.1 4.1 -0.6
v -1 4.1 -0.6
v -1.1 4.1 -0.7
v -1 4.1 -0.7
v -1 4.1 -0.9
v -1 4.1 -1.1
v -0.9 4.1 -1.1
v -0.8 4.1 -1.1
v -1.1 4.1 -1.2
v -0.9 4.1 -1.2
v -0.8 4.1 -1.2
v -0.8 4.1 -1.3
v -0.7 4.1 -1.3
v -0.6 4.1 -1.3
v -0.4 4.1 -1.3
v -0.2 4.1 -1.3
v 0 4.1 -1.3
v -0.8 4.1 -1.4
v -0.7 4.1 -1.4
v -0.6 4.1 -1.4
v -0.4 4.1 -1.4
v -0.2 4.1 -1.4
v 0 4.1 -1.4
v 0.5 4.3 1.3
v 0.6 4.3 1.3
v 0.5 4.3 1.1
v 0.6 4.3 1.1
v 0.5 4.3 -1.1
v 0.6 4.3 -1.1
v 0.5 4.3 -1.3
v 0.6 4.3 -1.3
v 0 4.4 1.3
v 0.2 4.4 1.3
v 0 4.4 1.1
v 0.2 4.4 1.1
v 0 4.4 -1.1
v 0.2 4.4 -1.1
v 0 4.4 -1.3
v 0.2 4.4 -1.3
v 0.7 4.5 1.3
v 0.8 4.5 1.3
v 0.7 4.5 1.1
v 0.8 4.5 1.1
v 0.7 4.5 -1.1
v 0.8 4.5 -1.1
v 0.7 4.5 -1.3
v 0.8 4.5 -1.3
v 0.4 4.8 1.3
v 0.5 4.8 1.3
v 0.4 4.8 1.2
v 0.5 4.8 1.2
v 0.4 4.8 1.1
v 0.5 4.8 1.1
v 0.4 4.8 -1.1
v 0.5 4.8 -1.1
v 0.4 4.8 -1.2
v 0.5 4.8 -1.2
v 0.4 4.8 -1.3
v 0.5 4.8 -1.3
v -0.4 5.5 1.1
v 0.8 5.5 1.1
v -0.4 5.5 -1.1
v 0.8 5.5 -1.1
v -0.9 3.6 1.4
v -0.8 3.6 1.4
v -0.7 3.6 1.4
v -0.5 3.6 1.4
v -0.8 3.6 1.3
v -0.7 3.6 1.3
v -0.6 3.6 1.3
v -0.5 3.6 1.3
v -1.1 3.6 1.2
v -0.9 3.6 1.2
v -1 3.6 1.1
v -0.8 3.6 1.1
v -1 3.6 0.9
v -1 3.6 0.7
v -1 3.6 0.5
v -1 3.6 0.3
v -1.1 3.6 0.2
v -1 3.6 0.2
v -1.1 3.6 0.1
v -1 3.6 0.1
v -1.1 3.6 -0.1
v -1 3.6 -0.1
v -1.1 3.6 -0.2
v -1 3.6 -0.2
v -1 3.6 -0.3
v -1 3.6 -0.5
v -1 3.6 -0.7
v -1 3.6 -0.9
v -1 3.6 -1.1
v -0.8 3.6 -1.1
v -1.1 3.6 -1.2
v -0.9 3.6 -1.2
v -0.8 3.6 -1.3
v -0.7 3.6 -1.3
v -0.6 3.6 -1.3
v -0.5 3.6 -1.3
v -0.9 3.6 -1.4
v -0.8 3.6 -1.4
v -0.7 3.6 -1.4
v -0.5 3.6 -1.4
v -0.8 4.9 1.4
v -0.4 4.9 1.4
v -0.2 4.9 1.4
v 0 4.9 1.4
v -0.8 4.9 1.3
v -0.6 4.9 1.3
v -0.5 4.9 1.3
v -0.4 4.9 1.3
v -0.2 4.9 1.3
v -0.1 4.9 1.3
v 0 4.9 1.3
v -1.1 4.9 1.2
v -0.9 4.9 1.2
v -0.8 4.9 1.2
v -1 4.9 1.1
v -0.9 4.9 1.1
v -0.8 4.9 1.1
v -1 4.9 0.9
v -1 4.9 0.8
v -1.1 4.9 0.7
v -1 4.9 0.7
v -1.1 4.9 0.6
v -1 4.9 0.6
v -1.1 4.9 0.1
v -1 4.9 0.1
v -1.1 4.9 -0.1
v -1 4.9 -0.1
v -1.1 4.9 -0.6
v -1 4.9 -0.6
v -1.1 4.9 -0.7
v -1 4.9 -0.7
v -1 4.9 -0.8
v -1 4.9 -0.9
v -1 4.9 -1.1
v -0.9 4.9 -1.1
v -0.8 4.9 -1.1
v -1.1 4.9 -1.2
v -0.9 4.9 -1.2
v -0.8 4.9 -1.2
v -0.8 4.9 -1.3
v -0.6 4.9 -1.3
v -0.5 4.9 -1.3
v -0.4 4.9 -1.3
v -0.2 4.9 -1.3
v -0.1 4.9 -1.3
v 0 4.9 -1.3
v -0.8 4.9 -1.4
v -0.4 4.9 -1.4
v -0.2 4.9 -1.4
v 0 4.9 -1.4
v -0.8 5.7 1.3
v -0.6 5.7 1.3
v -0.5 5.7 1.3
v -0.1 5.7 1.3
v 0.1 5.7 1.3
v 0.4 5.7 1.3
v 0.6 5.7 1.3
v 0.8 5.7 1.3
v -0.6 5.7 1.2
v -0.5 5.7 1.2
v -0.1 5.7 1.2
v 0.1 5.7 1.2
v 0.4 5.7 1.2
v 0.6 5.7 1.2
v -1 5.7 1.1
v -0.8 5.7 1.1
v -1 5.7 0.9
v -0.9 5.7 0.9
v -1 5.7 0.8
v -0.9 5.7 0.8
v -1 5.7 0.4
v -0.9 5.7 0.4
v -1 5.7 0.2
v -0.9 5.7 0.2
v -1 5.7 -0.2
v -0.9 5.7 -0.2
v -1 5.7 -0.4
v -0.9 5.7 -0.4
v -1 5.7 -0.8
v -0.9 5.7 -0.8
v -1 5.7 -0.9
v -0.9 5.7 -0.9
v -1 5.7 -1.1
v -0.8 5.7 -1.1
v -0.6 5.7 -1.2
v -0.5 5.7 -1.2
v -0.1 5.7 -1.2
v 0.1 5.7 -1.2
v 0.4 5.7 -1.2
v 0.6 5.7 -1.2
v -0.8 5.7 -1.3
v -0.6 5.7 -1.3
v -0.5 5.7 -1.3
v -0.1 5.7 -1.3
v 0.1 5.7 -1.3
v 0.4 5.7 -1.3
v 0.6 5.7 -1.3
v 0.8 5.7 -1.3

# faces
f 15/2/1 4/2/1 3/2/1
f 15/1/1 5/1/1 4/1/1
f 16/2/1 6/2/1 5/2/1
f 16/1/1 5/1/1 15/1/1
f 17/2/1 10/2/1 9/2/1
f 17/1/1 11/1/1 10/1/1
f 18/2/1 12/2/1 11/2/1
f 18/1/1 11/1/1 17/1/1
f 19/2/1 2/2/1 1/2/1
f 19/1/1 3/1/1 2/1/1
f 20/2/1 15/2/1 3/2/1
f 20/1/1 3/1/1 19/1/1
f 20/2/1 16/2/1 15/2/1
f 21/2/1 12/2/1 18/2/1
f 21/2/1 18/2/1 17/2/1
f 21/1/1 13/1/1 12/1/1
f 22/2/1 14/2/1 13/2/1
f 22/1/1 13/1/1 21/1/1
f 23/2/1 20/2/1 19/2/1
f 23/2/1 19/2/1 1/2/1
f 24/2/1 16/2/1 20/2/1
f 24/2/1 20/2/1 23/2/1
f 24/1/1 7/1/1 6/1/1
f 24/2/1 6/2/1 16/2/1
f 25/2/1 8/2/1 7/2/1
f 25/1/1 7/1/1 24/1/1
f 26/1/1 9/1/1 8/1/1
f 26/2/1 8/2/1 25/2/1
f 27/2/1 21/2/1 17/2/1
f 27/1/1 9/1/1 26/1/1
f 27/2/1 17/2/1 9/2/1
f 27/2/1 22/2/1 21/2/1
f 28/2/1 14/2/1 22/2/1
f 28/2/1 22/2/1 27/2/1
f 37/2/1 30/2/1 29/2/1
f 38/1/1 31/1/1 30/1/1
f 38/2/1 30/2/1 37/2/1
f 39/2/1 32/2/1 31/2/1
f 39/1/1 31/1/1 38/1/1
f 40/1/1 33/1/1 32/1/1
f 40/2/1 32/2/1 39/2/1
f 41/2/1 34/2/1 33/2/1
f 41/1/1 33/1/1 40/1/1
f 42/1/1 35/1/1 34/1/1
f 42/2/1 34/2/1 41/2/1
f 43/2/1 36/2/1 35/2/1
f 43/1/1 35/1/1 42/1/1
f 44/2/1 36/2/1 43/2/1
f 59/2/1 46/2/1 45/2/1
f 60/1/1 47/1/1 46/1/1
f 60/2/1 46/2/1 59/2/1
f 61/2/1 48/2/1 47/2/1
f 61/1/1 47/1/1 60/1/1
f 62/2/1 48/2/1 61/2/1
f 63/1/1 49/1/1 48/1/1
f 63/2/1 48/2/1 62/2/1
f 64/2/1 50/2/1 49/2/1
f 64/1/1 49/1/1 63/1/1
f 64/2/1 51/2/1 50/2/1
f 64/2/1 52/2/1 51/2/1
f 64/2/1 53/2/1 52/2/1
f 64/2/1 54/2/1 53/2/1
f 65/2/1 54/2/1 64/2/1
f 66/2/1 54/2/1 65/2/1
f 67/1/1 55/1/1 54/1/1
f 67/2/1 54/2/1 66/2/1
f 68/2/1 56/2/1 55/2/1
f 68/1/1 55/1/1 67/1/1
f 69/2/1 56/2/1 68/2/1
f 70/1/1 57/1/1 56/1/1
f 70/2/1 56/2/1 69/2/1
f 71/2/1 58/2/1 57/2/1
f 71/1/1 57/1/1 70/1/1
f 72/2/1 58/2/1 71/2/1
f 85/2/1 76/2/1 75/2/1
f 85/2/1 77/2/1 76/2/1
f 85/2/1 78/2/1 77/2/1
f 85/2/1 82/2/1 81/2/1
f 85/2/1 81/2/1 80/2/1
f 85/2/1 80/2/1 79/2/1
f 85/2/1 79/2/1 78/2/1
f 86/2/1 82/2/1 85/2/1
f 87/2/1 82/2/1 86/2/1
f 88/2/1 82/2/1 87/2/1
f 89/2/1 74/2/1 73/2/1
f 90/1/1 75/1/1 74/1/1
f 90/2/1 74/2/1 89/2/1
f 91/2/1 85/2/1 75/2/1
f 91/1/1 75/1/1 90/1/1
f 92/1/1 86/1/1 85/1/1
f 92/2/1 85/2/1 91/2/1
f 93/2/1 87/2/1 86/2/1
f 93/1/1 86/1/1 92/1/1
f 94/1/1 88/1/1 87/1/1
f 94/2/1 87/2/1 93/2/1
f 95/2/1 82/2/1 88/2/1
f 95/1/1 88/1/1 94/1/1
f 96/1/1 83/1/1 82/1/1
f 96/2/1 82/2/1 95/2/1
f 97/2/1 84/2/1 83/2/1
f 97/1/1 83/1/1 96/1/1
f 98/2/1 84/2/1 97/2/1
f 103/2/1 100/2/1 99/2/1
f 104/2/1 100/2/1 103/2/1
f 105/2/1 102/2/1 101/2/1
f 106/2/1 102/2/1 105/2/1
f 112/2/1 108/2/1 107/2/1
f 113/2/1 108/2/1 112/2/1
f 114/2/1 108/2/1 113/2/1
f 115/2/1 110/2/1 109/2/1
f 116/2/1 110/2/1 115/2/1
f 117/2/1 110/2/1 116/2/1
f 119/2/1 112/2/1 111/2/1
f 119/2/1 113/2/1 112/2/1
f 120/2/1 113/2/1 119/2/1
f 121/2/1 113/2/1 120/2/1
f 124/2/1 118/2/1 117/2/1
f 124/2/1 117/2/1 116/2/1
f 125/2/1 118/2/1 124/2/1
f 126/2/1 118/2/1 125/2/1
f 127/2/1 122/2/1 121/2/1
f 127/2/1 121/2/1 120/2/1
f 128/2/1 122/2/1 127/2/1
f 129/2/1 125/2/1 124/2/1
f 129/2/1 124/2/1 123/2/1
f 130/2/1 125/2/1 129/2/1
f 135/1/1 132/1/1 131/1/1
f 136/1/1 132/1/1 135/1/1
f 137/1/1 134/1/1 133/1/1
f 138/1/1 134/1/1 137/1/1
f 143/1/1 140/1/1 139/1/1
f 144/1/1 140/1/1 143/1/1
f 145/1/1 140/1/1 144/1/1
f 146/1/1 142/1/1 141/1/1
f 147/1/1 142/1/1 146/1/1
f 148/1/1 142/1/1 147/1/1
f 153/2/1 150/2/1 149/2/1
f 154/2/1 150/2/1 153/2/1
f 155/2/1 152/2/1 151/2/1
f 156/2/1 152/2/1 155/2/1
f 157/2/2 158/2/2 159/2/2
f 159/2/2 158/2/2 160/2/2
f 160/2/2 158/2/2 161/2/2
f 161/2/2 158/2/2 162/2/2
f 162/2/2 158/2/2 163/2/2
f 163/2/2 158/2/2 164/2/2
f 165/2/2 166/2/2 167/2/2
f 167/2/2 166/2/2 168/2/2
f 169/2/2 170/2/2 174/2/2
f 171/2/2 172/2/2 175/2/2
f 173/2/2 174/2/2 177/2/2
f 174/2/2 170/2/2 177/2/2
f 177/2/2 170/2/2 178/2/2
f 175/2/2 176/2/2 179/2/2
f 171/2/2 175/2/2 179/2/2
f 179/2/2 176/2/2 180/2/2
f 173/2/2 177/2/2 181/2/2
f 181/2/2 177/2/2 182/2/2
f 180/2/2 176/2/2 183/2/2
f 183/2/2 176/2/2 184/2/2
f 185/2/2 186/2/2 189/2/2
f 189/2/2 186/2/2 190/2/2
f 190/2/2 186/2/2 191/2/2
f 187/2/2 188/2/2 192/2/2
f 192/2/2 188/2/2 193/2/2
f 193/2/2 188/2/2 194/2/2
f 195/2/2 196/2/2 199/2/2
f 199/2/2 196/2/2 200/2/2
f 197/2/2 198/2/2 201/2/2
f 201/2/2 198/2/2 202/2/2
f 203/2/2 204/2/2 207/2/2
f 205/2/2 206/2/2 208/2/2
f 203/2/2 207/2/2 209/2/2
f 207/2/2 208/2/2 209/2/2
f 208/2/2 206/2/2 210/2/2
f 209/2/2 208/2/2 210/2/2
f 213/2/3 212/2/3 211/2/3
f 214/2/3 212/2/3 213/2/3
f 217/1/3 214/1/3 213/1/3
f 218/1/3 214/1/3 217/1/3
f 219/2/3 216/2/3 215/2/3
f 220/2/3 216/2/3 219/2/3
f 221/1/3 220/1/3 219/1/3
f 222/2/3 216/2/3 220/2/3
f 222/1/3 220/1/3 221/1/3
f 223/2/3 218/2/3 217/2/3
f 224/2/3 218/2/3 223/2/3
f 225/2/3 222/2/3 221/2/3
f 226/2/3 216/2/3 222/2/3
f 226/2/3 222/2/3 225/2/3
f 227/1/3 226/1/3 225/1/3
f 228/1/3 226/1/3 227/1/3
f 229/2/3 228/2/3 227/2/3
f 230/2/3 228/2/3 229/2/3
f 235/2/3 232/2/3 231/2/3
f 236/2/3 232/2/3 235/2/3
f 237/2/3 236/2/3 235/2/3
f 238/2/3 236/2/3 237/2/3
f 239/2/3 234/2/3 233/2/3
f 240/2/3 234/2/3 239/2/3
f 241/1/3 238/1/3 237/1/3
f 242/1/3 240/1/3 239/1/3
f 243/1/3 240/1/3 242/1/3
f 244/1/3 238/1/3 241/1/3
f 245/1/3 238/1/3 244/1/3
f 246/2/3 243/2/3 242/2/3
f 247/2/3 245/2/3 244/2/3
f 248/2/3 243/2/3 246/2/3
f 249/2/3 243/2/3 248/2/3
f 250/2/3 243/2/3 249/2/3
f 251/2/3 247/2/3 244/2/3
f 252/2/3 247/2/3 251/2/3
f 254/1/3 250/1/3 249/1/3
f 255/1/3 254/1/3 253/1/3
f 255/1/3 250/1/3 254/1/3
f 256/1/3 250/1/3 255/1/3
f 258/1/3 255/1/3 253/1/3
f 259/1/3 258/1/3 257/1/3
f 260/2/3 256/2/3 255/2/3
f 260/1/3 258/1/3 259/1/3
f 260/1/3 255/1/3 258/1/3
f 261/2/3 260/2/3 259/2/3
f 262/2/3 260/2/3 261/2/3
f 263/2/3 256/2/3 260/2/3
f 263/2/3 260/2/3 262/2/3
f 265/1/3 263/1/3 262/1/3
f 267/1/3 265/1/3 264/1/3
f 268/1/3 263/1/3 265/1/3
f 268/1/3 265/1/3 267/1/3
f 269/2/3 267/2/3 266/2/3
f 269/2/3 268/2/3 267/2/3
f 270/2/3 268/2/3 269/2/3
f 271/2/3 268/2/3 270/2/3
f 272/2/3 268/2/3 271/2/3
f 277/2/3 274/2/3 273/2/3
f 278/2/3 274/2/3 277/2/3
f 279/2/3 276/2/3 275/2/3
f 280/2/3 276/2/3 279/2/3
f 281/1/3 280/1/3 279/1/3
f 282/1/3 280/1/3 281/1/3
f 287/2/3 284/2/3 283/2/3
f 288/2/3 286/2/3 285/2/3
f 289/2/3 287/2/3 283/2/3
f 290/2/3 287/2/3 289/2/3
f 291/2/3 286/2/3 288/2/3
f 292/2/3 286/2/3 291/2/3
f 295/2/3 294/2/3 293/2/3
f 296/2/3 294/2/3 295/2/3
f 297/2/3 294/2/3 296/2/3
f 299/1/3 297/1/3 296/1/3
f 300/1/3 299/1/3 298/1/3
f 301/2/3 294/2/3 297/2/3
f 301/1/3 299/1/3 300/1/3
f 301/1/3 297/1/3 299/1/3
f 302/2/3 301/2/3 300/2/3
f 303/2/3 301/2/3 302/2/3
f 305/2/3 301/2/3 303/2/3
f 307/1/3 305/1/3 304/1/3
f 308/2/3 301/2/3 305/2/3
f 308/1/3 305/1/3 307/1/3
f 309/2/3 307/2/3 306/2/3
f 309/2/3 308/2/3 307/2/3
f 310/2/3 308/2/3 309/2/3
f 311/2/3 308/2/3 310/2/3
f 312/2/3 294/2/3 301/2/3
f 312/2/3 308/2/3 311/2/3
f 312/2/3 301/2/3 308/2/3
f 313/2/4 314/2/4 315/2/4
f 315/2/4 314/2/4 316/2/4
f 316/2/4 314/2/4 317/2/4
f 316/1/4 317/1/4 319/1/4
f 318/1/4 319/1/4 320/1/4
f 317/2/4 314/2/4 321/2/4
f 320/1/4 319/1/4 321/1/4
f 319/1/4 317/1/4 321/1/4
f 320/2/4 321/2/4 322/2/4
f 322/2/4 321/2/4 323/2/4
f 323/2/4 321/2/4 325/2/4
f 324/1/4 325/1/4 327/1/4
f 325/2/4 321/2/4 328/2/4
f 327/1/4 325/1/4 328/1/4
f 326/2/4 327/2/4 329/2/4
f 327/2/4 328/2/4 329/2/4
f 329/2/4 328/2/4 330/2/4
f 330/2/4 328/2/4 331/2/4
f 321/2/4 314/2/4 332/2/4
f 331/2/4 328/2/4 332/2/4
f 328/2/4 321/2/4 332/2/4
f 333/2/4 334/2/4 337/2/4
f 335/2/4 336/2/4 338/2/4
f 333/2/4 337/2/4 339/2/4
f 339/2/4 337/2/4 340/2/4
f 338/2/4 336/2/4 341/2/4
f 341/2/4 336/2/4 342/2/4
f 343/2/4 344/2/4 347/2/4
f 347/2/4 344/2/4 348/2/4
f 345/2/4 346/2/4 349/2/4
f 349/2/4 346/2/4 350/2/4
f 349/1/4 350/1/4 351/1/4
f 351/1/4 350/1/4 352/1/4
f 353/2/4 354/2/4 357/2/4
f 357/2/4 354/2/4 358/2/4
f 357/2/4 358/2/4 359/2/4
f 359/2/4 358/2/4 360/2/4
f 355/2/4 356/2/4 361/2/4
f 361/2/4 356/2/4 362/2/4
f 359/1/4 360/1/4 363/1/4
f 361/1/4 362/1/4 364/1/4
f 364/1/4 362/1/4 365/1/4
f 363/1/4 360/1/4 366/1/4
f 366/1/4 360/1/4 367/1/4
f 364/2/4 365/2/4 368/2/4
f 366/2/4 367/2/4 369/2/4
f 368/2/4 365/2/4 370/2/4
f 370/2/4 365/2/4 371/2/4
f 371/2/4 365/2/4 372/2/4
f 366/2/4 369/2/4 373/2/4
f 373/2/4 369/2/4 374/2/4
f 371/1/4 372/1/4 376/1/4
f 375/1/4 376/1/4 377/1/4
f 376/1/4 372/1/4 377/1/4
f 377/1/4 372/1/4 378/1/4
f 375/1/4 377/1/4 380/1/4
f 379/1/4 380/1/4 381/1/4
f 377/2/4 378/2/4 382/2/4
f 381/1/4 380/1/4 382/1/4
f 380/1/4 377/1/4 382/1/4
f 381/2/4 382/2/4 383/2/4
f 383/2/4 382/2/4 384/2/4
f 382/2/4 378/2/4 385/2/4
f 384/2/4 382/2/4 385/2/4
f 384/1/4 385/1/4 387/1/4
f 386/1/4 387/1/4 389/1/4
f 387/1/4 385/1/4 390/1/4
f 389/1/4 387/1/4 390/1/4
f 388/2/4 389/2/4 391/2/4
f 389/2/4 390/2/4 391/2/4
f 391/2/4 390/2/4 392/2/4
f 392/2/4 390/2/4 393/2/4
f 393/2/4 390/2/4 394/2/4
f 395/2/4 396/2/4 397/2/4
f 397/2/4 396/2/4 398/2/4
f 397/1/4 398/1/4 401/1/4
f 401/1/4 398/1/4 402/1/4
f 399/2/4 400/2/4 403/2/4
f 403/2/4 400/2/4 404/2/4
f 403/1/4 404/1/4 405/1/4
f 404/2/4 400/2/4 406/2/4
f 405/1/4 404/1/4 406/1/4
f 401/2/4 402/2/4 407/2/4
f 407/2/4 402/2/4 408/2/4
f 405/2/4 406/2/4 409/2/4
f 406/2/4 400/2/4 410/2/4
f 409/2/4 406/2/4 410/2/4
f 409/1/4 410/1/4 411/1/4
f 411/1/4 410/1/4 412/1/4
f 411/2/4 412/2/4 413/2/4
f 413/2/4 412/2/4 414/2/4
f 419/2/5 416/2/5 415/2/5
f 419/1/5 417/1/5 416/1/5
f 420/2/5 418/2/5 417/2/5
f 420/1/5 417/1/5 419/1/5
f 422/2/5 419/2/5 415/2/5
f 422/2/5 420/2/5 419/2/5
f 423/2/5 422/2/5 421/2/5
f 424/2/5 422/2/5 423/2/5
f 425/1/5 424/1/5 423/1/5
f 426/2/5 422/2/5 424/2/5
f 426/1/5 424/1/5 425/1/5
f 427/2/5 426/2/5 425/2/5
f 428/2/5 422/2/5 426/2/5
f 428/2/5 426/2/5 427/2/5
f 429/1/5 428/1/5 427/1/5
f 430/2/5 422/2/5 428/2/5
f 430/1/5 428/1/5 429/1/5
f 431/2/5 430/2/5 429/2/5
f 432/2/5 422/2/5 430/2/5
f 432/2/5 430/2/5 431/2/5
f 433/1/5 432/1/5 431/1/5
f 434/2/5 422/2/5 432/2/5
f 434/1/5 432/1/5 433/1/5
f 435/2/5 434/2/5 433/2/5
f 436/2/5 422/2/5 434/2/5
f 436/2/5 434/2/5 435/2/5
f 437/1/5 436/1/5 435/1/5
f 438/2/5 422/2/5 436/2/5
f 438/1/5 436/1/5 437/1/5
f 439/2/5 438/2/5 437/2/5
f 440/2/5 422/2/5 438/2/5
f 440/2/5 438/2/5 439/2/5
f 441/1/5 440/1/5 439/1/5
f 442/2/5 422/2/5 440/2/5
f 442/1/5 440/1/5 441/1/5
f 443/2/5 442/2/5 441/2/5
f 444/2/5 422/2/5 442/2/5
f 444/2/5 442/2/5 443/2/5
f 445/1/5 444/1/5 443/1/5
f 446/2/5 422/2/5 444/2/5
f 446/1/5 444/1/5 445/1/5
f 447/2/5 446/2/5 445/2/5
f 448/2/5 420/2/5 422/2/5
f 448/2/5 446/2/5 447/2/5
f 448/2/5 422/2/5 446/2/5
f 449/2/5 420/2/5 448/2/5
f 450/2/5 418/2/5 420/2/5
f 450/2/5 420/2/5 449/2/5
f 451/2/5 449/2/5 448/2/5
f 452/1/5 450/1/5 449/1/5
f 452/2/5 449/2/5 451/2/5
f 453/2/5 418/2/5 450/2/5
f 453/1/5 450/1/5 452/1/5
f 454/2/5 418/2/5 453/2/5
f 461/1/5 456/1/5 455/1/5
f 462/2/5 457/2/5 456/2/5
f 462/1/5 456/1/5 461/1/5
f 463/2/5 462/2/5 461/2/5
f 463/2/5 457/2/5 462/2/5
f 464/2/5 457/2/5 463/2/5
f 465/1/5 459/1/5 458/1/5
f 466/2/5 460/2/5 459/2/5
f 466/1/5 459/1/5 465/1/5
f 467/2/5 460/2/5 466/2/5
f 468/2/5 463/2/5 461/2/5
f 473/2/5 468/2/5 461/2/5
f 473/2/5 469/2/5 468/2/5
f 474/2/5 469/2/5 473/2/5
f 475/1/5 474/1/5 473/1/5
f 476/2/5 469/2/5 474/2/5
f 476/1/5 474/1/5 475/1/5
f 477/2/5 469/2/5 476/2/5
f 478/1/5 471/1/5 470/1/5
f 479/2/5 472/2/5 471/2/5
f 479/1/5 471/1/5 478/1/5
f 480/2/5 472/2/5 479/2/5
f 483/2/5 482/2/5 481/2/5
f 484/2/5 482/2/5 483/2/5
f 487/2/5 486/2/5 485/2/5
f 488/2/5 486/2/5 487/2/5
f 495/2/5 490/2/5 489/2/5
f 496/1/5 491/1/5 490/1/5
f 496/2/5 490/2/5 495/2/5
f 497/2/5 492/2/5 491/2/5
f 497/1/5 491/1/5 496/1/5
f 498/1/5 493/1/5 492/1/5
f 498/2/5 492/2/5 497/2/5
f 499/2/5 494/2/5 493/2/5
f 499/1/5 493/1/5 498/1/5
f 500/2/5 494/2/5 499/2/5
f 504/2/5 502/2/5 501/2/5
f 505/1/5 503/1/5 502/1/5
f 505/2/5 502/2/5 504/2/5
f 506/1/5 503/1/5 505/1/5
f 507/2/5 504/2/5 501/2/5
f 508/2/5 507/2/5 501/2/5
f 509/2/5 507/2/5 508/2/5
f 510/1/5 509/1/5 508/1/5
f 511/1/5 509/1/5 510/1/5
f 512/2/5 511/2/5 510/2/5
f 513/2/5 512/2/5 510/2/5
f 514/2/5 513/2/5 510/2/5
f 515/2/5 513/2/5 514/2/5
f 516/1/5 515/1/5 514/1/5
f 517/1/5 515/1/5 516/1/5
f 518/2/5 517/2/5 516/2/5
f 519/2/5 518/2/5 516/2/5
f 520/2/5 519/2/5 516/2/5
f 521/2/5 519/2/5 520/2/5
f 522/1/5 521/1/5 520/1/5
f 523/1/5 521/1/5 522/1/5
f 524/2/5 523/2/5 522/2/5
f 525/2/5 524/2/5 522/2/5
f 528/2/5 525/2/5 522/2/5
f 528/2/5 526/2/5 525/2/5
f 529/1/5 527/1/5 526/1/5
f 529/2/5 526/2/5 528/2/5
f 530/1/5 527/1/5 529/1/5
f 537/2/5 532/2/5 531/2/5
f 538/1/5 533/1/5 532/1/5
f 538/2/5 532/2/5 537/2/5
f 539/2/5 534/2/5 533/2/5
f 539/1/5 533/1/5 538/1/5
f 540/1/5 535/1/5 534/1/5
f 540/2/5 534/2/5 539/2/5
f 541/2/5 536/2/5 535/2/5
f 541/1/5 535/1/5 540/1/5
f 542/2/5 536/2/5 541/2/5
f 545/1/5 544/1/5 543/1/5
f 546/1/5 544/1/5 545/1/5
f 549/1/5 548/1/5 547/1/5
f 550/1/5 548/1/5 549/1/5
f 553/1/5 552/1/5 551/1/5
f 554/1/5 552/1/5 553/1/5
f 557/1/5 556/1/5 555/1/5
f 558/1/5 556/1/5 557/1/5
f 561/2/5 560/2/5 559/2/5
f 562/2/5 560/2/5 561/2/5
f 565/2/5 564/2/5 563/2/5
f 566/2/5 564/2/5 565/2/5
f 569/1/5 568/1/5 567/1/5
f 570/1/5 568/1/5 569/1/5
f 571/2/5 570/2/5 569/2/5
f 572/2/5 570/2/5 571/2/5
f 575/2/5 574/2/5 573/2/5
f 576/2/5 574/2/5 575/2/5
f 577/1/5 576/1/5 575/1/5
f 578/1/5 576/1/5 577/1/5
f 581/2/5 580/2/5 579/2/5
f 582/2/5 580/2/5 581/2/5
f 583/2/6 584/2/6 587/2/6
f 584/1/6 585/1/6 587/1/6
f 585/2/6 586/2/6 588/2/6
f 587/1/6 585/1/6 588/1/6
f 588/2/6 586/2/6 589/2/6
f 589/2/6 586/2/6 590/2/6
f 583/2/6 587/2/6 592/2/6
f 591/2/6 592/2/6 593/2/6
f 592/2/6 587/2/6 594/2/6
f 593/2/6 592/2/6 594/2/6
f 591/2/6 593/2/6 595/2/6
f 591/2/6 595/2/6 596/2/6
f 591/2/6 596/2/6 597/2/6
f 591/2/6 597/2/6 598/2/6
f 591/2/6 598/2/6 599/2/6
f 599/2/6 598/2/6 600/2/6
f 599/1/6 600/1/6 601/1/6
f 601/1/6 600/1/6 602/1/6
f 601/2/6 602/2/6 603/2/6
f 603/2/6 602/2/6 604/2/6
f 603/1/6 604/1/6 605/1/6
f 605/1/6 604/1/6 606/1/6
f 605/2/6 606/2/6 607/2/6
f 605/2/6 607/2/6 608/2/6
f 605/2/6 608/2/6 609/2/6
f 605/2/6 609/2/6 610/2/6
f 605/2/6 610/2/6 611/2/6
f 605/2/6 611/2/6 613/2/6
f 611/2/6 612/2/6 613/2/6
f 613/2/6 612/2/6 614/2/6
f 614/2/6 612/2/6 615/2/6
f 614/2/6 615/2/6 619/2/6
f 615/1/6 616/1/6 620/1/6
f 619/2/6 615/2/6 620/2/6
f 617/2/6 618/2/6 621/2/6
f 620/1/6 616/1/6 621/1/6
f 616/2/6 617/2/6 621/2/6
f 621/2/6 618/2/6 622/2/6
f 623/2/6 624/2/6 627/2/6
f 627/2/6 624/2/6 628/2/6
f 628/2/6 624/2/6 629/2/6
f 624/1/6 625/1/6 630/1/6
f 629/2/6 624/2/6 630/2/6
f 625/2/6 626/2/6 631/2/6
f 630/1/6 625/1/6 631/1/6
f 631/2/6 626/2/6 632/2/6
f 632/2/6 626/2/6 633/2/6
f 634/2/6 635/2/6 637/2/6
f 635/1/6 636/1/6 638/1/6
f 637/2/6 635/2/6 638/2/6
f 638/1/6 636/1/6 639/1/6
f 634/2/6 637/2/6 640/2/6
f 634/2/6 640/2/6 641/2/6
f 634/2/6 641/2/6 642/2/6
f 642/2/6 641/2/6 643/2/6
f 642/1/6 643/1/6 644/1/6
f 644/1/6 643/1/6 645/1/6
f 644/2/6 645/2/6 646/2/6
f 646/2/6 645/2/6 647/2/6
f 646/1/6 647/1/6 648/1/6
f 648/1/6 647/1/6 649/1/6
f 648/2/6 649/2/6 650/2/6
f 650/2/6 649/2/6 651/2/6
f 650/1/6 651/1/6 652/1/6
f 652/1/6 651/1/6 653/1/6
f 652/2/6 653/2/6 654/2/6
f 652/2/6 654/2/6 655/2/6
f 652/2/6 655/2/6 656/2/6
f 652/2/6 656/2/6 659/2/6
f 656/2/6 657/2/6 659/2/6
f 657/1/6 658/1/6 660/1/6
f 659/2/6 657/2/6 660/2/6
f 660/1/6 658/1/6 661/1/6
f 662/2/6 663/2/6 669/2/6
f 663/2/6 664/2/6 669/2/6
f 664/2/6 665/2/6 669/2/6
f 665/1/6 666/1/6 670/1/6
f 669/2/6 665/2/6 670/2/6
f 667/2/6 668/2/6 671/2/6
f 670/1/6 666/1/6 671/1/6
f 666/2/6 667/2/6 671/2/6
f 671/2/6 668/2/6 672/2/6
f 673/2/6 674/2/6 681/2/6
f 674/1/6 675/1/6 681/1/6
f 675/2/6 676/2/6 682/2/6
f 681/1/6 675/1/6 682/1/6
f 676/1/6 677/1/6 683/1/6
f 682/2/6 676/2/6 683/2/6
f 677/2/6 678/2/6 684/2/6
f 683/1/6 677/1/6 684/1/6
f 678/1/6 679/1/6 685/1/6
f 684/2/6 678/2/6 685/2/6
f 679/2/6 680/2/6 686/2/6
f 685/1/6 679/1/6 686/1/6
f 684/2/6 685/2/6 688/2/6
f 683/2/6 684/2/6 688/2/6
f 685/2/6 686/2/6 688/2/6
f 682/2/6 683/2/6 688/2/6
f 681/2/6 682/2/6 688/2/6
f 673/2/6 681/2/6 688/2/6
f 687/2/6 688/2/6 689/2/6
f 689/2/6 688/2/6 690/2/6
f 689/1/6 690/1/6 691/1/6
f 690/2/6 688/2/6 692/2/6
f 691/1/6 690/1/6 692/1/6
f 691/2/6 692/2/6 693/2/6
f 692/2/6 688/2/6 694/2/6
f 693/2/6 692/2/6 694/2/6
f 693/1/6 694/1/6 695/1/6
f 694/2/6 688/2/6 696/2/6
f 695/1/6 694/1/6 696/1/6
f 695/2/6 696/2/6 697/2/6
f 696/2/6 688/2/6 698/2/6
f 697/2/6 696/2/6 698/2/6
f 697/1/6 698/1/6 699/1/6
f 698/2/6 688/2/6 700/2/6
f 699/1/6 698/1/6 700/1/6
f 699/2/6 700/2/6 701/2/6
f 700/2/6 688/2/6 702/2/6
f 701/2/6 700/2/6 702/2/6
f 701/1/6 702/1/6 703/1/6
f 702/2/6 688/2/6 704/2/6
f 703/1/6 702/1/6 704/1/6
f 703/2/6 704/2/6 705/2/6
f 688/2/6 686/2/6 706/2/6
f 705/2/6 704/2/6 706/2/6
f 704/2/6 688/2/6 706/2/6
f 706/2/6 686/2/6 707/2/6
f 707/2/6 686/2/6 708/2/6
f 708/2/6 686/2/6 709/2/6
f 709/2/6 686/2/6 710/2/6
f 710/2/6 686/2/6 711/2/6
f 686/2/6 680/2/6 712/2/6
f 711/2/6 686/2/6 712/2/6
f 706/2/6 707/2/6 713/2/6
f 707/1/6 708/1/6 714/1/6
f 713/2/6 707/2/6 714/2/6
f 708/2/6 709/2/6 715/2/6
f 714/1/6 708/1/6 715/1/6
f 709/1/6 710/1/6 716/1/6
f 715/2/6 709/2/6 716/2/6
f 710/2/6 711/2/6 717/2/6
f 716/1/6 710/1/6 717/1/6
f 711/1/6 712/1/6 718/1/6
f 717/2/6 711/2/6 718/2/6
f 712/2/6 680/2/6 719/2/6
f 718/1/6 712/1/6 719/1/6
f 719/2/6 680/2/6 720/2/6
