# MagicaVoxel @ Ephtracy

# group
o 

# material
mtllib model.mtl
usemtl palette

# normals
vn -1 0 0
vn 1 0 0
vn 0 0 1
vn 0 0 -1
vn 0 -1 0
vn 0 1 0

# texcoords
vt 0.0722656 0.5
vt 0.0761719 0.5
vt 0.255859 0.5
vt 0.259766 0.5
vt 0.501953 0.5
vt 0.505859 0.5
vt 0.513672 0.5
vt 0.517578 0.5

# verts
v -1.8 1.4 1.2
v -1.8 1.4 -1.2
v -1.8 1.6 1.2
v -1.8 1.6 -1.2
v -0.3 0 1.2
v -0.3 0 1.1
v -0.3 0 -1.1
v -0.3 0 -1.2
v -0.3 1 1.2
v -0.3 1 1.1
v -0.3 1 -1.1
v -0.3 1 -1.2
v -0.1 0 1.1
v -0.1 0 -1.1
v -0.1 0.1 1.1
v -0.1 0.1 -1.1
v -0.1 0.2 1.1
v -0.1 0.2 -1.1
v -0.1 1 1.2
v -0.1 1 1.1
v -0.1 1 -1.1
v -0.1 1 -1.2
v -0.1 1.4 1.2
v -0.1 1.4 1.1
v -0.1 1.4 -1.1
v -0.1 1.4 -1.2
v -0.1 1.6 1.2
v -0.1 1.6 1.1
v -0.1 1.6 -1.1
v -0.1 1.6 -1.2
v -0.1 1.7 1.2
v -0.1 1.7 1
v -0.1 1.7 -1
v -0.1 1.7 -1.2
v -0.1 1.8 0.2
v -0.1 1.8 -0.2
v -0.1 1.9 1
v -0.1 1.9 0.2
v -0.1 1.9 -0.2
v -0.1 1.9 -1
v 1.7 0 0.1
v 1.7 0 -0.0999999
v 1.7 0.2 0.1
v 1.7 0.2 -0.0999999
v -1.7 1.4 1.1
v -1.7 1.4 -1.1
v -1.7 1.6 1.1
v -1.7 1.6 -1.1
v 0.0999999 0 1.2
v 0.0999999 0 -1.2
v 0.0999999 0.2 1
v 0.0999999 0.2 -1
v 0.0999999 0.8 1
v 0.0999999 0.8 0.2
v 0.0999999 0.8 -0.2
v 0.0999999 0.8 -1
v 0.0999999 1 0.8
v 0.0999999 1 0.4
v 0.0999999 1 -0.4
v 0.0999999 1 -0.8
v 0.0999999 1.1 0.9
v 0.0999999 1.1 0.8
v 0.0999999 1.1 0.4
v 0.0999999 1.1 0.3
v 0.0999999 1.1 -0.3
v 0.0999999 1.1 -0.4
v 0.0999999 1.1 -0.8
v 0.0999999 1.1 -0.9
v 0.0999999 1.2 0.2
v 0.0999999 1.2 -0.2
v 0.0999999 1.5 1.1
v 0.0999999 1.5 1
v 0.0999999 1.5 0.9
v 0.0999999 1.5 0.8
v 0.0999999 1.5 0.4
v 0.0999999 1.5 0.3
v 0.0999999 1.5 0.2
v 0.0999999 1.5 0.1
v 0.0999999 1.5 -0.0999999
v 0.0999999 1.5 -0.2
v 0.0999999 1.5 -0.3
v 0.0999999 1.5 -0.4
v 0.0999999 1.5 -0.8
v 0.0999999 1.5 -0.9
v 0.0999999 1.5 -1
v 0.0999999 1.5 -1.1
v 0.0999999 1.6 1.1
v 0.0999999 1.6 1
v 0.0999999 1.6 0.8
v 0.0999999 1.6 0.4
v 0.0999999 1.6 0.2
v 0.0999999 1.6 0.1
v 0.0999999 1.6 -0.0999999
v 0.0999999 1.6 -0.2
v 0.0999999 1.6 -0.4
v 0.0999999 1.6 -0.8
v 0.0999999 1.6 -1
v 0.0999999 1.6 -1.1
v 0.0999999 1.7 1.2
v 0.0999999 1.7 1
v 0.0999999 1.7 0.8
v 0.0999999 1.7 0.7
v 0.0999999 1.7 0.5
v 0.0999999 1.7 0.4
v 0.0999999 1.7 -0.4
v 0.0999999 1.7 -0.5
v 0.0999999 1.7 -0.7
v 0.0999999 1.7 -0.8
v 0.0999999 1.7 -1
v 0.0999999 1.7 -1.2
v 0.0999999 1.8 0.8
v 0.0999999 1.8 0.7
v 0.0999999 1.8 0.5
v 0.0999999 1.8 0.4
v 0.0999999 1.8 0.2
v 0.0999999 1.8 -0.2
v 0.0999999 1.8 -0.4
v 0.0999999 1.8 -0.5
v 0.0999999 1.8 -0.7
v 0.0999999 1.8 -0.8
v 0.0999999 1.9 1
v 0.0999999 1.9 0.2
v 0.0999999 1.9 -0.2
v 0.0999999 1.9 -1
v 0.4 1.1 0.8
v 0.4 1.1 0.6
v 0.4 1.1 0.5
v 0.4 1.1 0.4
v 0.4 1.1 -0.4
v 0.4 1.1 -0.6
v 0.4 1.1 -0.7
v 0.4 1.1 -0.8
v 0.4 1.4 0.8
v 0.4 1.4 0.4
v 0.4 1.4 -0.4
v 0.4 1.4 -0.8
v 0.4 1.5 0.8
v 0.4 1.5 0.6
v 0.4 1.5 0.5
v 0.4 1.5 0.4
v 0.4 1.5 -0.4
v 0.4 1.5 -0.6
v 0.4 1.5 -0.7
v 0.4 1.5 -0.8
v 0.5 0.2 1
v 0.5 0.2 0.5
v 0.5 0.2 -0.5
v 0.5 0.2 -1
v 0.5 0.3 0.8
v 0.5 0.3 0.7
v 0.5 0.3 -0.7
v 0.5 0.3 -0.8
v 0.5 0.4 0.8
v 0.5 0.4 0.7
v 0.5 0.4 -0.7
v 0.5 0.4 -0.8
v 0.5 0.8 1
v 0.5 0.8 0.5
v 0.5 0.8 -0.5
v 0.5 0.8 -1
v 0.5 1 0.8
v 0.5 1 0.6
v 0.5 1 0.5
v 0.5 1 0.4
v 0.5 1 -0.4
v 0.5 1 -0.6
v 0.5 1 -0.7
v 0.5 1 -0.8
v 0.5 1.1 0.9
v 0.5 1.1 0.8
v 0.5 1.1 0.6
v 0.5 1.1 0.5
v 0.5 1.1 0.4
v 0.5 1.1 0.3
v 0.5 1.1 -0.3
v 0.5 1.1 -0.4
v 0.5 1.1 -0.6
v 0.5 1.1 -0.7
v 0.5 1.1 -0.8
v 0.5 1.1 -0.9
v 0.5 1.4 0.9
v 0.5 1.4 0.8
v 0.5 1.4 0.4
v 0.5 1.4 0.3
v 0.5 1.4 -0.3
v 0.5 1.4 -0.4
v 0.5 1.4 -0.8
v 0.5 1.4 -0.9
v 0.5 1.5 0.9
v 0.5 1.5 0.8
v 0.5 1.5 0.4
v 0.5 1.5 0.3
v 0.5 1.5 -0.3
v 0.5 1.5 -0.4
v 0.5 1.5 -0.8
v 0.5 1.5 -0.9
v 0.5 1.6 0.8
v 0.5 1.6 0.4
v 0.5 1.6 -0.4
v 0.5 1.6 -0.8
v 0.6 1 0.2
v 0.6 1 -0.2
v 0.6 1.2 0.2
v 0.6 1.2 -0.2
v 1.1 0.2 0.5
v 1.1 0.2 0.2
v 1.1 0.2 -0.2
v 1.1 0.2 -0.5
v 1.1 0.8 0.5
v 1.1 0.8 0.2
v 1.1 0.8 -0.2
v 1.1 0.8 -0.5
v 1.3 0.8 0.2
v 1.3 0.8 -0.2
v 1.3 1 0.2
v 1.3 1 -0.2
v 1.7 0.2 0.2
v 1.7 0.2 0.1
v 1.7 0.2 -0.0999999
v 1.7 0.2 -0.2
v 1.7 0.6 0.1
v 1.7 0.6 -0.0999999
v 1.7 0.8 0.2
v 1.7 0.8 -0.2
v 1.9 0 0.1
v 1.9 0 -0.0999999
v 1.9 0.6 0.1
v 1.9 0.6 -0.0999999
v -1.8 1.4 1.2
v -1.8 1.6 1.2
v -0.3 0 1.2
v -0.3 1 1.2
v -0.2 0.1 1.2
v -0.2 0.2 1.2
v -0.1 0.1 1.2
v -0.1 0.2 1.2
v -0.1 1 1.2
v -0.1 1.4 1.2
v -0.1 1.6 1.2
v -0.1 1.7 1.2
v 0.0999999 0 1.2
v 0.0999999 1.7 1.2
v -0.1 1.7 1
v -0.1 1.9 1
v 0.0999999 0.2 1
v 0.0999999 0.8 1
v 0.0999999 1.7 1
v 0.0999999 1.9 1
v 0.2 0.3 1
v 0.2 0.4 1
v 0.3 0.3 1
v 0.3 0.4 1
v 0.5 0.2 1
v 0.5 0.8 1
v 0.0999999 1.1 0.9
v 0.0999999 1.5 0.9
v 0.2 1.1 0.9
v 0.2 1.5 0.9
v 0.3 1.1 0.9
v 0.3 1.5 0.9
v 0.4 1.4 0.9
v 0.4 1.5 0.9
v 0.5 1.1 0.9
v 0.5 1.4 0.9
v 0.5 1.5 0.9
v 0.0999999 1 0.8
v 0.0999999 1.1 0.8
v 0.0999999 1.5 0.8
v 0.0999999 1.6 0.8
v 0.2 1 0.8
v 0.2 1.1 0.8
v 0.2 1.5 0.8
v 0.2 1.6 0.8
v 0.3 1 0.8
v 0.3 1.1 0.8
v 0.3 1.5 0.8
v 0.3 1.6 0.8
v 0.4 1.5 0.8
v 0.4 1.6 0.8
v 0.5 1 0.8
v 0.5 1.1 0.8
v 0.5 1.5 0.8
v 0.5 1.6 0.8
v 0.5 0.2 0.5
v 0.5 0.8 0.5
v 0.6 0.3 0.5
v 0.6 0.4 0.5
v 0.7 0.3 0.5
v 0.7 0.4 0.5
v 0.9 0.3 0.5
v 0.9 0.4 0.5
v 1 0.3 0.5
v 1 0.4 0.5
v 1.1 0.2 0.5
v 1.1 0.8 0.5
v 0.4 1.1 0.4
v 0.4 1.4 0.4
v 0.4 1.5 0.4
v 0.5 1.1 0.4
v 0.5 1.4 0.4
v 0.5 1.5 0.4
v 0.0999999 0.8 0.2
v 0.0999999 1.2 0.2
v 0.6 1 0.2
v 0.6 1.2 0.2
v 1.1 0.2 0.2
v 1.1 0.8 0.2
v 1.2 0.3 0.2
v 1.2 0.4 0.2
v 1.3 0.3 0.2
v 1.3 0.4 0.2
v 1.3 0.8 0.2
v 1.3 1 0.2
v 1.5 0.3 0.2
v 1.5 0.4 0.2
v 1.6 0.3 0.2
v 1.6 0.4 0.2
v 1.7 0.2 0.2
v 1.7 0.8 0.2
v 1.7 0 0.1
v 1.7 0.2 0.1
v 1.7 0.6 0.1
v 1.9 0 0.1
v 1.9 0.6 0.1
v -0.1 1.8 -0.2
v -0.1 1.9 -0.2
v 0.0999999 1.8 -0.2
v 0.0999999 1.9 -0.2
v 0.0999999 1.1 -0.3
v 0.0999999 1.5 -0.3
v 0.2 1.1 -0.3
v 0.2 1.5 -0.3
v 0.3 1.1 -0.3
v 0.3 1.5 -0.3
v 0.4 1.4 -0.3
v 0.4 1.5 -0.3
v 0.5 1.1 -0.3
v 0.5 1.4 -0.3
v 0.5 1.5 -0.3
v 0.0999999 1 -0.4
v 0.0999999 1.1 -0.4
v 0.0999999 1.5 -0.4
v 0.0999999 1.6 -0.4
v 0.2 1 -0.4
v 0.2 1.1 -0.4
v 0.2 1.5 -0.4
v 0.2 1.6 -0.4
v 0.3 1 -0.4
v 0.3 1.1 -0.4
v 0.3 1.5 -0.4
v 0.3 1.6 -0.4
v 0.4 1.5 -0.4
v 0.4 1.6 -0.4
v 0.5 1 -0.4
v 0.5 1.1 -0.4
v 0.5 1.5 -0.4
v 0.5 1.6 -0.4
v 0.4 1.1 -0.8
v 0.4 1.4 -0.8
v 0.4 1.5 -0.8
v 0.5 1.1 -0.8
v 0.5 1.4 -0.8
v 0.5 1.5 -0.8
v -1.7 1.4 -1.1
v -1.7 1.6 -1.1
v -0.3 0 -1.1
v -0.3 1 -1.1
v -0.2 0.1 -1.1
v -0.2 0.2 -1.1
v -0.1 0 -1.1
v -0.1 0.1 -1.1
v -0.1 0.2 -1.1
v -0.1 1 -1.1
v -0.1 1.4 -1.1
v -0.1 1.6 -1.1
v -1.7 1.4 1.1
v -1.7 1.6 1.1
v -0.3 0 1.1
v -0.3 1 1.1
v -0.2 0.1 1.1
v -0.2 0.2 1.1
v -0.1 0 1.1
v -0.1 0.1 1.1
v -0.1 0.2 1.1
v -0.1 1 1.1
v -0.1 1.4 1.1
v -0.1 1.6 1.1
v 0.4 1.1 0.8
v 0.4 1.4 0.8
v 0.4 1.5 0.8
v 0.5 1.1 0.8
v 0.5 1.4 0.8
v 0.5 1.5 0.8
v 0.0999999 1 0.4
v 0.0999999 1.1 0.4
v 0.0999999 1.5 0.4
v 0.0999999 1.6 0.4
v 0.2 1 0.4
v 0.2 1.1 0.4
v 0.2 1.5 0.4
v 0.2 1.6 0.4
v 0.3 1 0.4
v 0.3 1.1 0.4
v 0.3 1.5 0.4
v 0.3 1.6 0.4
v 0.4 1.5 0.4
v 0.4 1.6 0.4
v 0.5 1 0.4
v 0.5 1.1 0.4
v 0.5 1.5 0.4
v 0.5 1.6 0.4
v 0.0999999 1.1 0.3
v 0.0999999 1.5 0.3
v 0.2 1.1 0.3
v 0.2 1.5 0.3
v 0.3 1.1 0.3
v 0.3 1.5 0.3
v 0.4 1.4 0.3
v 0.4 1.5 0.3
v 0.5 1.1 0.3
v 0.5 1.4 0.3
v 0.5 1.5 0.3
v -0.1 1.8 0.2
v -0.1 1.9 0.2
v 0.0999999 1.8 0.2
v 0.0999999 1.9 0.2
v 1.7 0 -0.0999999
v 1.7 0.2 -0.0999999
v 1.7 0.6 -0.0999999
v 1.9 0 -0.0999999
v 1.9 0.6 -0.0999999
v 0.0999999 0.8 -0.2
v 0.0999999 1.2 -0.2
v 0.6 1 -0.2
v 0.6 1.2 -0.2
v 1.1 0.2 -0.2
v 1.1 0.8 -0.2
v 1.2 0.3 -0.2
v 1.2 0.4 -0.2
v 1.3 0.3 -0.2
v 1.3 0.4 -0.2
v 1.3 0.8 -0.2
v 1.3 1 -0.2
v 1.5 0.3 -0.2
v 1.5 0.4 -0.2
v 1.6 0.3 -0.2
v 1.6 0.4 -0.2
v 1.7 0.2 -0.2
v 1.7 0.8 -0.2
v 0.4 1.1 -0.4
v 0.4 1.4 -0.4
v 0.4 1.5 -0.4
v 0.5 1.1 -0.4
v 0.5 1.4 -0.4
v 0.5 1.5 -0.4
v 0.5 0.2 -0.5
v 0.5 0.8 -0.5
v 0.6 0.3 -0.5
v 0.6 0.4 -0.5
v 0.7 0.3 -0.5
v 0.7 0.4 -0.5
v 0.9 0.3 -0.5
v 0.9 0.4 -0.5
v 1 0.3 -0.5
v 1 0.4 -0.5
v 1.1 0.2 -0.5
v 1.1 0.8 -0.5
v 0.0999999 1 -0.8
v 0.0999999 1.1 -0.8
v 0.0999999 1.5 -0.8
v 0.0999999 1.6 -0.8
v 0.2 1 -0.8
v 0.2 1.1 -0.8
v 0.2 1.5 -0.8
v 0.2 1.6 -0.8
v 0.3 1 -0.8
v 0.3 1.1 -0.8
v 0.3 1.5 -0.8
v 0.3 1.6 -0.8
v 0.4 1.5 -0.8
v 0.4 1.6 -0.8
v 0.5 1 -0.8
v 0.5 1.1 -0.8
v 0.5 1.5 -0.8
v 0.5 1.6 -0.8
v 0.0999999 1.1 -0.9
v 0.0999999 1.5 -0.9
v 0.2 1.1 -0.9
v 0.2 1.5 -0.9
v 0.3 1.1 -0.9
v 0.3 1.5 -0.9
v 0.4 1.4 -0.9
v 0.4 1.5 -0.9
v 0.5 1.1 -0.9
v 0.5 1.4 -0.9
v 0.5 1.5 -0.9
v -0.1 1.7 -1
v -0.1 1.9 -1
v 0.0999999 0.2 -1
v 0.0999999 0.8 -1
v 0.0999999 1.7 -1
v 0.0999999 1.9 -1
v 0.2 0.3 -1
v 0.2 0.4 -1
v 0.3 0.3 -1
v 0.3 0.4 -1
v 0.5 0.2 -1
v 0.5 0.8 -1
v -1.8 1.4 -1.2
v -1.8 1.6 -1.2
v -0.3 0 -1.2
v -0.3 1 -1.2
v -0.2 0.1 -1.2
v -0.2 0.2 -1.2
v -0.1 0.1 -1.2
v -0.1 0.2 -1.2
v -0.1 1 -1.2
v -0.1 1.4 -1.2
v -0.1 1.6 -1.2
v -0.1 1.7 -1.2
v 0.0999999 0 -1.2
v 0.0999999 1.7 -1.2
v -0.3 0 1.2
v 0.0999999 0 1.2
v -0.3 0 1.1
v -0.1 0 1.1
v 1.7 0 0.1
v 1.9 0 0.1
v 1.7 0 -0.0999999
v 1.9 0 -0.0999999
v -0.3 0 -1.1
v -0.1 0 -1.1
v -0.3 0 -1.2
v 0.0999999 0 -1.2
v 0.0999999 0.2 1
v 0.5 0.2 1
v 0.5 0.2 0.5
v 1.1 0.2 0.5
v 1.1 0.2 0.2
v 1.7 0.2 0.2
v 1.7 0.2 0.1
v 1.7 0.2 -0.0999999
v 1.1 0.2 -0.2
v 1.7 0.2 -0.2
v 0.5 0.2 -0.5
v 1.1 0.2 -0.5
v 0.0999999 0.2 -1
v 0.5 0.2 -1
v 0.0999999 1 0.8
v 0.2 1 0.8
v 0.3 1 0.8
v 0.5 1 0.8
v 0.4 1 0.6
v 0.5 1 0.6
v 0.4 1 0.5
v 0.5 1 0.5
v 0.0999999 1 0.4
v 0.2 1 0.4
v 0.3 1 0.4
v 0.5 1 0.4
v 0.0999999 1 -0.4
v 0.2 1 -0.4
v 0.3 1 -0.4
v 0.5 1 -0.4
v 0.4 1 -0.6
v 0.5 1 -0.6
v 0.4 1 -0.7
v 0.5 1 -0.7
v 0.0999999 1 -0.8
v 0.2 1 -0.8
v 0.3 1 -0.8
v 0.5 1 -0.8
v 0.0999999 1.1 0.9
v 0.2 1.1 0.9
v 0.3 1.1 0.9
v 0.5 1.1 0.9
v 0.0999999 1.1 0.8
v 0.2 1.1 0.8
v 0.3 1.1 0.8
v 0.5 1.1 0.8
v 0.0999999 1.1 0.4
v 0.2 1.1 0.4
v 0.3 1.1 0.4
v 0.5 1.1 0.4
v 0.0999999 1.1 0.3
v 0.2 1.1 0.3
v 0.3 1.1 0.3
v 0.5 1.1 0.3
v 0.0999999 1.1 -0.3
v 0.2 1.1 -0.3
v 0.3 1.1 -0.3
v 0.5 1.1 -0.3
v 0.0999999 1.1 -0.4
v 0.2 1.1 -0.4
v 0.3 1.1 -0.4
v 0.5 1.1 -0.4
v 0.0999999 1.1 -0.8
v 0.2 1.1 -0.8
v 0.3 1.1 -0.8
v 0.5 1.1 -0.8
v 0.0999999 1.1 -0.9
v 0.2 1.1 -0.9
v 0.3 1.1 -0.9
v 0.5 1.1 -0.9
v -1.8 1.4 1.2
v -0.1 1.4 1.2
v -1.7 1.4 1.1
v -0.1 1.4 1.1
v -1.7 1.4 -1.1
v -0.1 1.4 -1.1
v -1.8 1.4 -1.2
v -0.1 1.4 -1.2
v 0.4 1.5 0.8
v 0.5 1.5 0.8
v 0.4 1.5 0.6
v 0.4 1.5 0.5
v 0.4 1.5 0.4
v 0.5 1.5 0.4
v 0.4 1.5 -0.4
v 0.5 1.5 -0.4
v 0.4 1.5 -0.6
v 0.4 1.5 -0.7
v 0.4 1.5 -0.8
v 0.5 1.5 -0.8
v 1.7 0.6 0.1
v 1.9 0.6 0.1
v 1.7 0.6 -0.0999999
v 1.9 0.6 -0.0999999
v 0.0999999 0.8 1
v 0.5 0.8 1
v 0.5 0.8 0.5
v 1.1 0.8 0.5
v 0.0999999 0.8 0.2
v 1.1 0.8 0.2
v 1.3 0.8 0.2
v 1.7 0.8 0.2
v 0.0999999 0.8 -0.2
v 1.1 0.8 -0.2
v 1.3 0.8 -0.2
v 1.7 0.8 -0.2
v 0.5 0.8 -0.5
v 1.1 0.8 -0.5
v 0.0999999 0.8 -1
v 0.5 0.8 -1
v -0.3 1 1.2
v -0.1 1 1.2
v -0.3 1 1.1
v -0.1 1 1.1
v 0.6 1 0.2
v 1.3 1 0.2
v 0.6 1 -0.2
v 1.3 1 -0.2
v -0.3 1 -1.1
v -0.1 1 -1.1
v -0.3 1 -1.2
v -0.1 1 -1.2
v 0.4 1.1 0.8
v 0.5 1.1 0.8
v 0.4 1.1 0.6
v 0.5 1.1 0.6
v 0.4 1.1 0.5
v 0.5 1.1 0.5
v 0.4 1.1 0.4
v 0.5 1.1 0.4
v 0.4 1.1 -0.4
v 0.5 1.1 -0.4
v 0.4 1.1 -0.6
v 0.5 1.1 -0.6
v 0.4 1.1 -0.7
v 0.5 1.1 -0.7
v 0.4 1.1 -0.8
v 0.5 1.1 -0.8
v 0.0999999 1.2 0.2
v 0.6 1.2 0.2
v 0.0999999 1.2 -0.2
v 0.6 1.2 -0.2
v 0.0999999 1.5 0.9
v 0.2 1.5 0.9
v 0.3 1.5 0.9
v 0.4 1.5 0.9
v 0.5 1.5 0.9
v 0.0999999 1.5 0.8
v 0.2 1.5 0.8
v 0.3 1.5 0.8
v 0.4 1.5 0.8
v 0.5 1.5 0.8
v 0.0999999 1.5 0.4
v 0.2 1.5 0.4
v 0.3 1.5 0.4
v 0.4 1.5 0.4
v 0.5 1.5 0.4
v 0.0999999 1.5 0.3
v 0.2 1.5 0.3
v 0.3 1.5 0.3
v 0.4 1.5 0.3
v 0.5 1.5 0.3
v 0.0999999 1.5 -0.3
v 0.2 1.5 -0.3
v 0.3 1.5 -0.3
v 0.4 1.5 -0.3
v 0.5 1.5 -0.3
v 0.0999999 1.5 -0.4
v 0.2 1.5 -0.4
v 0.3 1.5 -0.4
v 0.4 1.5 -0.4
v 0.5 1.5 -0.4
v 0.0999999 1.5 -0.8
v 0.2 1.5 -0.8
v 0.3 1.5 -0.8
v 0.4 1.5 -0.8
v 0.5 1.5 -0.8
v 0.0999999 1.5 -0.9
v 0.2 1.5 -0.9
v 0.3 1.5 -0.9
v 0.4 1.5 -0.9
v 0.5 1.5 -0.9
v -1.8 1.6 1.2
v -0.1 1.6 1.2
v -1.7 1.6 1.1
v -0.1 1.6 1.1
v 0.0999999 1.6 0.8
v 0.2 1.6 0.8
v 0.3 1.6 0.8
v 0.4 1.6 0.8
v 0.5 1.6 0.8
v 0.0999999 1.6 0.4
v 0.2 1.6 0.4
v 0.3 1.6 0.4
v 0.4 1.6 0.4
v 0.5 1.6 0.4
v 0.0999999 1.6 -0.4
v 0.2 1.6 -0.4
v 0.3 1.6 -0.4
v 0.4 1.6 -0.4
v 0.5 1.6 -0.4
v 0.0999999 1.6 -0.8
v 0.2 1.6 -0.8
v 0.3 1.6 -0.8
v 0.4 1.6 -0.8
v 0.5 1.6 -0.8
v -1.7 1.6 -1.1
v -0.1 1.6 -1.1
v -1.8 1.6 -1.2
v -0.1 1.6 -1.2
v -0.1 1.7 1.2
v 0.0999999 1.7 1.2
v -0.1 1.7 1
v 0.0999999 1.7 1
v -0.1 1.7 -1
v 0.0999999 1.7 -1
v -0.1 1.7 -1.2
v 0.0999999 1.7 -1.2
v -0.1 1.8 0.2
v 0.0999999 1.8 0.2
v -0.1 1.8 -0.2
v 0.0999999 1.8 -0.2
v -0.1 1.9 1
v 0.0999999 1.9 1
v -0.1 1.9 0.2
v 0.0999999 1.9 0.2
v -0.1 1.9 -0.2
v 0.0999999 1.9 -0.2
v -0.1 1.9 -1
v 0.0999999 1.9 -1

# faces
f 3/5/1 2/5/1 1/5/1
f 4/5/1 2/5/1 3/5/1
f 9/4/1 6/4/1 5/4/1
f 10/4/1 6/4/1 9/4/1
f 11/4/1 8/4/1 7/4/1
f 12/4/1 8/4/1 11/4/1
f 15/4/1 14/4/1 13/4/1
f 16/4/1 14/4/1 15/4/1
f 17/4/1 16/4/1 15/4/1
f 18/4/1 16/4/1 17/4/1
f 20/4/1 18/4/1 17/4/1
f 21/4/1 18/4/1 20/4/1
f 23/4/1 21/4/1 20/4/1
f 23/4/1 22/4/1 21/4/1
f 23/4/1 20/4/1 19/4/1
f 24/4/1 22/4/1 23/4/1
f 25/4/1 22/4/1 24/4/1
f 26/4/1 22/4/1 25/4/1
f 28/4/1 25/4/1 24/4/1
f 29/4/1 25/4/1 28/4/1
f 31/4/1 28/4/1 27/4/1
f 31/4/1 30/4/1 29/4/1
f 31/4/1 29/4/1 28/4/1
f 32/4/1 30/4/1 31/4/1
f 33/4/1 30/4/1 32/4/1
f 34/4/1 30/4/1 33/4/1
f 35/4/1 33/4/1 32/4/1
f 36/4/1 33/4/1 35/4/1
f 37/4/1 35/4/1 32/4/1
f 38/4/1 35/4/1 37/4/1
f 39/4/1 33/4/1 36/4/1
f 40/4/1 33/4/1 39/4/1
f 43/4/1 42/4/1 41/4/1
f 44/4/1 42/4/1 43/4/1
f 45/5/2 46/5/2 47/5/2
f 47/5/2 46/5/2 48/5/2
f 49/4/2 50/4/2 51/4/2
f 51/4/2 50/4/2 52/4/2
f 49/4/2 51/4/2 53/4/2
f 52/4/2 50/4/2 56/4/2
f 53/4/2 54/4/2 57/4/2
f 57/4/2 54/4/2 58/4/2
f 55/4/2 56/4/2 59/4/2
f 59/4/2 56/4/2 60/4/2
f 53/4/2 57/4/2 61/4/2
f 61/4/2 57/4/2 62/4/2
f 58/4/2 54/4/2 63/4/2
f 63/4/2 54/4/2 64/4/2
f 55/4/2 59/4/2 65/4/2
f 65/4/2 59/4/2 66/4/2
f 60/4/2 56/4/2 67/4/2
f 67/4/2 56/4/2 68/4/2
f 64/4/2 54/4/2 69/4/2
f 55/4/2 65/4/2 70/4/2
f 49/4/2 53/4/2 71/4/2
f 53/4/2 61/4/2 71/4/2
f 71/4/2 61/4/2 72/4/2
f 72/4/2 61/4/2 73/4/2
f 69/4/2 70/4/2 76/4/2
f 64/4/2 69/4/2 76/4/2
f 76/4/2 70/4/2 77/4/2
f 77/4/2 70/4/2 78/4/2
f 78/4/2 70/4/2 79/4/2
f 70/4/2 65/4/2 80/4/2
f 79/4/2 70/4/2 80/4/2
f 80/4/2 65/4/2 81/4/2
f 68/4/2 56/4/2 84/4/2
f 56/4/2 50/4/2 85/4/2
f 84/4/2 56/4/2 85/4/2
f 85/4/2 50/4/2 86/4/2
f 49/4/2 71/4/2 87/4/2
f 71/3/2 72/3/2 87/3/2
f 73/4/2 74/4/2 88/4/2
f 87/3/2 72/3/2 88/3/2
f 72/4/2 73/4/2 88/4/2
f 88/4/2 74/4/2 89/4/2
f 75/4/2 76/4/2 90/4/2
f 76/4/2 77/4/2 90/4/2
f 77/3/2 78/3/2 91/3/2
f 90/4/2 77/4/2 91/4/2
f 78/4/2 79/4/2 92/4/2
f 91/3/2 78/3/2 92/3/2
f 79/3/2 80/3/2 93/3/2
f 92/4/2 79/4/2 93/4/2
f 81/4/2 82/4/2 94/4/2
f 93/3/2 80/3/2 94/3/2
f 80/4/2 81/4/2 94/4/2
f 94/4/2 82/4/2 95/4/2
f 83/4/2 84/4/2 96/4/2
f 84/4/2 85/4/2 96/4/2
f 85/3/2 86/3/2 97/3/2
f 96/4/2 85/4/2 97/4/2
f 86/4/2 50/4/2 98/4/2
f 97/3/2 86/3/2 98/3/2
f 92/4/2 93/4/2 99/4/2
f 49/4/2 87/4/2 99/4/2
f 97/4/2 98/4/2 99/4/2
f 94/4/2 95/4/2 99/4/2
f 93/4/2 94/4/2 99/4/2
f 90/4/2 91/4/2 99/4/2
f 91/4/2 92/4/2 99/4/2
f 89/4/2 90/4/2 99/4/2
f 87/4/2 88/4/2 99/4/2
f 88/4/2 89/4/2 99/4/2
f 96/4/2 97/4/2 99/4/2
f 95/4/2 96/4/2 99/4/2
f 99/4/2 98/4/2 100/4/2
f 100/4/2 98/4/2 101/4/2
f 101/4/2 98/4/2 102/4/2
f 102/4/2 98/4/2 103/4/2
f 103/4/2 98/4/2 104/4/2
f 104/4/2 98/4/2 105/4/2
f 105/4/2 98/4/2 106/4/2
f 106/4/2 98/4/2 107/4/2
f 107/4/2 98/4/2 108/4/2
f 108/4/2 98/4/2 109/4/2
f 98/4/2 50/4/2 110/4/2
f 109/4/2 98/4/2 110/4/2
f 100/4/2 101/4/2 111/4/2
f 101/3/2 102/3/2 111/3/2
f 102/4/2 103/4/2 112/4/2
f 111/3/2 102/3/2 112/3/2
f 103/3/2 104/3/2 113/3/2
f 112/4/2 103/4/2 113/4/2
f 104/4/2 105/4/2 114/4/2
f 113/3/2 104/3/2 114/3/2
f 114/4/2 105/4/2 115/4/2
f 115/4/2 105/4/2 116/4/2
f 105/3/2 106/3/2 117/3/2
f 116/4/2 105/4/2 117/4/2
f 106/4/2 107/4/2 118/4/2
f 117/3/2 106/3/2 118/3/2
f 107/3/2 108/3/2 119/3/2
f 118/4/2 107/4/2 119/4/2
f 108/4/2 109/4/2 120/4/2
f 119/3/2 108/3/2 120/3/2
f 100/4/2 111/4/2 121/4/2
f 111/4/2 112/4/2 121/4/2
f 112/4/2 113/4/2 121/4/2
f 114/4/2 115/4/2 121/4/2
f 113/4/2 114/4/2 121/4/2
f 121/4/2 115/4/2 122/4/2
f 118/4/2 119/4/2 123/4/2
f 117/4/2 118/4/2 123/4/2
f 116/4/2 117/4/2 123/4/2
f 119/4/2 120/4/2 123/4/2
f 120/4/2 109/4/2 124/4/2
f 123/4/2 120/4/2 124/4/2
f 125/1/2 126/1/2 133/1/2
f 127/1/2 128/1/2 134/1/2
f 129/1/2 130/1/2 135/1/2
f 131/1/2 132/1/2 136/1/2
f 133/1/2 126/1/2 137/1/2
f 126/2/2 127/2/2 138/2/2
f 137/1/2 126/1/2 138/1/2
f 127/1/2 134/1/2 139/1/2
f 138/2/2 127/2/2 139/2/2
f 139/1/2 134/1/2 140/1/2
f 135/1/2 130/1/2 141/1/2
f 130/2/2 131/2/2 142/2/2
f 141/1/2 130/1/2 142/1/2
f 131/1/2 136/1/2 143/1/2
f 142/2/2 131/2/2 143/2/2
f 143/1/2 136/1/2 144/1/2
f 145/4/2 146/4/2 149/4/2
f 149/4/2 146/4/2 150/4/2
f 147/4/2 148/4/2 151/4/2
f 151/4/2 148/4/2 152/4/2
f 145/4/2 149/4/2 153/4/2
f 149/3/2 150/3/2 153/3/2
f 150/4/2 146/4/2 154/4/2
f 153/3/2 150/3/2 154/3/2
f 151/3/2 152/3/2 155/3/2
f 147/4/2 151/4/2 155/4/2
f 152/4/2 148/4/2 156/4/2
f 155/3/2 152/3/2 156/3/2
f 145/4/2 153/4/2 157/4/2
f 153/4/2 154/4/2 157/4/2
f 154/4/2 146/4/2 158/4/2
f 157/4/2 154/4/2 158/4/2
f 147/4/2 155/4/2 159/4/2
f 155/4/2 156/4/2 159/4/2
f 156/4/2 148/4/2 160/4/2
f 159/4/2 156/4/2 160/4/2
f 161/7/2 162/7/2 170/7/2
f 162/8/2 163/8/2 171/8/2
f 170/7/2 162/7/2 171/7/2
f 163/7/2 164/7/2 172/7/2
f 171/8/2 163/8/2 172/8/2
f 172/7/2 164/7/2 173/7/2
f 165/7/2 166/7/2 176/7/2
f 166/8/2 167/8/2 177/8/2
f 176/7/2 166/7/2 177/7/2
f 167/7/2 168/7/2 178/7/2
f 177/8/2 167/8/2 178/8/2
f 178/7/2 168/7/2 179/7/2
f 169/7/2 170/7/2 181/7/2
f 181/7/2 170/7/2 182/7/2
f 173/7/2 174/7/2 183/7/2
f 183/7/2 174/7/2 184/7/2
f 175/7/2 176/7/2 185/7/2
f 185/7/2 176/7/2 186/7/2
f 179/7/2 180/7/2 187/7/2
f 187/7/2 180/7/2 188/7/2
f 181/8/2 182/8/2 189/8/2
f 189/8/2 182/8/2 190/8/2
f 183/8/2 184/8/2 191/8/2
f 191/8/2 184/8/2 192/8/2
f 185/8/2 186/8/2 193/8/2
f 193/8/2 186/8/2 194/8/2
f 187/8/2 188/8/2 195/8/2
f 195/8/2 188/8/2 196/8/2
f 190/8/2 191/8/2 197/8/2
f 197/8/2 191/8/2 198/8/2
f 194/8/2 195/8/2 199/8/2
f 199/8/2 195/8/2 200/8/2
f 201/4/2 202/4/2 203/4/2
f 203/4/2 202/4/2 204/4/2
f 205/4/2 206/4/2 209/4/2
f 209/4/2 206/4/2 210/4/2
f 207/4/2 208/4/2 211/4/2
f 211/4/2 208/4/2 212/4/2
f 213/4/2 214/4/2 215/4/2
f 215/4/2 214/4/2 216/4/2
f 217/4/2 218/4/2 221/4/2
f 219/4/2 220/4/2 222/4/2
f 217/4/2 221/4/2 223/4/2
f 221/4/2 222/4/2 223/4/2
f 222/4/2 220/4/2 224/4/2
f 223/4/2 222/4/2 224/4/2
f 225/4/2 226/4/2 227/4/2
f 227/4/2 226/4/2 228/4/2
f 233/4/3 232/4/3 231/4/3
f 234/4/3 232/4/3 233/4/3
f 235/4/3 233/4/3 231/4/3
f 235/3/3 234/3/3 233/3/3
f 236/4/3 232/4/3 234/4/3
f 236/3/3 234/3/3 235/3/3
f 237/4/3 232/4/3 236/4/3
f 238/5/3 230/5/3 229/5/3
f 239/5/3 230/5/3 238/5/3
f 241/4/3 237/4/3 236/4/3
f 241/4/3 240/4/3 239/4/3
f 241/4/3 239/4/3 238/4/3
f 241/4/3 238/4/3 237/4/3
f 241/4/3 235/4/3 231/4/3
f 241/4/3 236/4/3 235/4/3
f 242/4/3 240/4/3 241/4/3
f 247/4/3 244/4/3 243/4/3
f 248/4/3 244/4/3 247/4/3
f 249/4/3 246/4/3 245/4/3
f 250/4/3 246/4/3 249/4/3
f 251/4/3 249/4/3 245/4/3
f 251/3/3 250/3/3 249/3/3
f 252/4/3 246/4/3 250/4/3
f 252/3/3 250/3/3 251/3/3
f 253/4/3 251/4/3 245/4/3
f 253/4/3 252/4/3 251/4/3
f 254/4/3 246/4/3 252/4/3
f 254/4/3 252/4/3 253/4/3
f 257/7/3 256/7/3 255/7/3
f 258/7/3 256/7/3 257/7/3
f 259/6/3 258/6/3 257/6/3
f 260/6/3 258/6/3 259/6/3
f 261/7/3 260/7/3 259/7/3
f 262/7/3 260/7/3 261/7/3
f 263/7/3 261/7/3 259/7/3
f 264/8/3 262/8/3 261/8/3
f 264/7/3 261/7/3 263/7/3
f 265/8/3 262/8/3 264/8/3
f 270/7/3 267/7/3 266/7/3
f 271/7/3 267/7/3 270/7/3
f 272/7/3 269/7/3 268/7/3
f 273/7/3 269/7/3 272/7/3
f 274/6/3 271/6/3 270/6/3
f 275/6/3 271/6/3 274/6/3
f 276/6/3 273/6/3 272/6/3
f 277/6/3 273/6/3 276/6/3
f 278/7/3 277/7/3 276/7/3
f 279/7/3 277/7/3 278/7/3
f 280/7/3 275/7/3 274/7/3
f 281/7/3 275/7/3 280/7/3
f 282/8/3 279/8/3 278/8/3
f 283/8/3 279/8/3 282/8/3
f 286/4/3 285/4/3 284/4/3
f 287/4/3 285/4/3 286/4/3
f 288/4/3 286/4/3 284/4/3
f 288/3/3 287/3/3 286/3/3
f 289/4/3 285/4/3 287/4/3
f 289/3/3 287/3/3 288/3/3
f 290/4/3 288/4/3 284/4/3
f 290/4/3 289/4/3 288/4/3
f 291/4/3 285/4/3 289/4/3
f 291/4/3 289/4/3 290/4/3
f 292/4/3 290/4/3 284/4/3
f 292/3/3 291/3/3 290/3/3
f 293/4/3 285/4/3 291/4/3
f 293/3/3 291/3/3 292/3/3
f 294/4/3 292/4/3 284/4/3
f 294/4/3 293/4/3 292/4/3
f 295/4/3 285/4/3 293/4/3
f 295/4/3 293/4/3 294/4/3
f 299/7/3 297/7/3 296/7/3
f 300/8/3 298/8/3 297/8/3
f 300/7/3 297/7/3 299/7/3
f 301/8/3 298/8/3 300/8/3
f 304/4/3 303/4/3 302/4/3
f 305/4/3 303/4/3 304/4/3
f 307/4/3 304/4/3 302/4/3
f 308/4/3 307/4/3 306/4/3
f 309/4/3 307/4/3 308/4/3
f 310/4/3 308/4/3 306/4/3
f 310/3/3 309/3/3 308/3/3
f 311/4/3 307/4/3 309/4/3
f 311/3/3 309/3/3 310/3/3
f 312/4/3 304/4/3 307/4/3
f 312/4/3 307/4/3 311/4/3
f 313/4/3 304/4/3 312/4/3
f 314/4/3 311/4/3 310/4/3
f 314/4/3 310/4/3 306/4/3
f 314/4/3 312/4/3 311/4/3
f 315/4/3 312/4/3 314/4/3
f 316/4/3 314/4/3 306/4/3
f 316/3/3 315/3/3 314/3/3
f 317/4/3 312/4/3 315/4/3
f 317/3/3 315/3/3 316/3/3
f 318/4/3 316/4/3 306/4/3
f 318/4/3 317/4/3 316/4/3
f 319/4/3 312/4/3 317/4/3
f 319/4/3 317/4/3 318/4/3
f 323/4/3 321/4/3 320/4/3
f 323/4/3 322/4/3 321/4/3
f 324/4/3 322/4/3 323/4/3
f 327/4/3 326/4/3 325/4/3
f 328/4/3 326/4/3 327/4/3
f 331/7/3 330/7/3 329/7/3
f 332/7/3 330/7/3 331/7/3
f 333/6/3 332/6/3 331/6/3
f 334/6/3 332/6/3 333/6/3
f 335/7/3 334/7/3 333/7/3
f 336/7/3 334/7/3 335/7/3
f 337/7/3 335/7/3 333/7/3
f 338/8/3 336/8/3 335/8/3
f 338/7/3 335/7/3 337/7/3
f 339/8/3 336/8/3 338/8/3
f 344/7/3 341/7/3 340/7/3
f 345/7/3 341/7/3 344/7/3
f 346/7/3 343/7/3 342/7/3
f 347/7/3 343/7/3 346/7/3
f 348/6/3 345/6/3 344/6/3
f 349/6/3 345/6/3 348/6/3
f 350/6/3 347/6/3 346/6/3
f 351/6/3 347/6/3 350/6/3
f 352/7/3 351/7/3 350/7/3
f 353/7/3 351/7/3 352/7/3
f 354/7/3 349/7/3 348/7/3
f 355/7/3 349/7/3 354/7/3
f 356/8/3 353/8/3 352/8/3
f 357/8/3 353/8/3 356/8/3
f 361/7/3 359/7/3 358/7/3
f 362/8/3 360/8/3 359/8/3
f 362/7/3 359/7/3 361/7/3
f 363/8/3 360/8/3 362/8/3
f 368/4/3 367/4/3 366/4/3
f 369/4/3 367/4/3 368/4/3
f 370/4/3 368/4/3 366/4/3
f 371/3/3 369/3/3 368/3/3
f 371/4/3 368/4/3 370/4/3
f 372/4/3 367/4/3 369/4/3
f 372/3/3 369/3/3 371/3/3
f 373/4/3 367/4/3 372/4/3
f 374/5/3 365/5/3 364/5/3
f 375/5/3 365/5/3 374/5/3
f 378/4/4 379/4/4 380/4/4
f 380/4/4 379/4/4 381/4/4
f 378/4/4 380/4/4 382/4/4
f 380/3/4 381/3/4 383/3/4
f 382/4/4 380/4/4 383/4/4
f 381/4/4 379/4/4 384/4/4
f 383/3/4 381/3/4 384/3/4
f 384/4/4 379/4/4 385/4/4
f 376/5/4 377/5/4 386/5/4
f 386/5/4 377/5/4 387/5/4
f 388/7/4 389/7/4 391/7/4
f 389/8/4 390/8/4 392/8/4
f 391/7/4 389/7/4 392/7/4
f 392/8/4 390/8/4 393/8/4
f 394/7/4 395/7/4 398/7/4
f 398/7/4 395/7/4 399/7/4
f 396/7/4 397/7/4 400/7/4
f 400/7/4 397/7/4 401/7/4
f 398/6/4 399/6/4 402/6/4
f 402/6/4 399/6/4 403/6/4
f 400/6/4 401/6/4 404/6/4
f 404/6/4 401/6/4 405/6/4
f 404/7/4 405/7/4 406/7/4
f 406/7/4 405/7/4 407/7/4
f 402/7/4 403/7/4 408/7/4
f 408/7/4 403/7/4 409/7/4
f 406/8/4 407/8/4 410/8/4
f 410/8/4 407/8/4 411/8/4
f 412/7/4 413/7/4 414/7/4
f 414/7/4 413/7/4 415/7/4
f 414/6/4 415/6/4 416/6/4
f 416/6/4 415/6/4 417/6/4
f 416/7/4 417/7/4 418/7/4
f 418/7/4 417/7/4 419/7/4
f 416/7/4 418/7/4 420/7/4
f 418/8/4 419/8/4 421/8/4
f 420/7/4 418/7/4 421/7/4
f 421/8/4 419/8/4 422/8/4
f 423/4/4 424/4/4 425/4/4
f 425/4/4 424/4/4 426/4/4
f 427/4/4 428/4/4 430/4/4
f 428/4/4 429/4/4 430/4/4
f 430/4/4 429/4/4 431/4/4
f 432/4/4 433/4/4 434/4/4
f 434/4/4 433/4/4 435/4/4
f 432/4/4 434/4/4 437/4/4
f 436/4/4 437/4/4 438/4/4
f 438/4/4 437/4/4 439/4/4
f 436/4/4 438/4/4 440/4/4
f 438/3/4 439/3/4 440/3/4
f 439/4/4 437/4/4 441/4/4
f 440/3/4 439/3/4 441/3/4
f 437/4/4 434/4/4 442/4/4
f 441/4/4 437/4/4 442/4/4
f 442/4/4 434/4/4 443/4/4
f 440/4/4 441/4/4 444/4/4
f 436/4/4 440/4/4 444/4/4
f 441/4/4 442/4/4 444/4/4
f 444/4/4 442/4/4 445/4/4
f 436/4/4 444/4/4 446/4/4
f 444/3/4 445/3/4 446/3/4
f 445/4/4 442/4/4 447/4/4
f 446/3/4 445/3/4 447/3/4
f 436/4/4 446/4/4 448/4/4
f 446/4/4 447/4/4 448/4/4
f 447/4/4 442/4/4 449/4/4
f 448/4/4 447/4/4 449/4/4
f 450/7/4 451/7/4 453/7/4
f 451/8/4 452/8/4 454/8/4
f 453/7/4 451/7/4 454/7/4
f 454/8/4 452/8/4 455/8/4
f 456/4/4 457/4/4 458/4/4
f 458/4/4 457/4/4 459/4/4
f 456/4/4 458/4/4 460/4/4
f 458/3/4 459/3/4 460/3/4
f 459/4/4 457/4/4 461/4/4
f 460/3/4 459/3/4 461/3/4
f 456/4/4 460/4/4 462/4/4
f 460/4/4 461/4/4 462/4/4
f 461/4/4 457/4/4 463/4/4
f 462/4/4 461/4/4 463/4/4
f 456/4/4 462/4/4 464/4/4
f 462/3/4 463/3/4 464/3/4
f 463/4/4 457/4/4 465/4/4
f 464/3/4 463/3/4 465/3/4
f 456/4/4 464/4/4 466/4/4
f 464/4/4 465/4/4 466/4/4
f 465/4/4 457/4/4 467/4/4
f 466/4/4 465/4/4 467/4/4
f 468/7/4 469/7/4 472/7/4
f 472/7/4 469/7/4 473/7/4
f 470/7/4 471/7/4 474/7/4
f 474/7/4 471/7/4 475/7/4
f 472/6/4 473/6/4 476/6/4
f 476/6/4 473/6/4 477/6/4
f 474/6/4 475/6/4 478/6/4
f 478/6/4 475/6/4 479/6/4
f 478/7/4 479/7/4 480/7/4
f 480/7/4 479/7/4 481/7/4
f 476/7/4 477/7/4 482/7/4
f 482/7/4 477/7/4 483/7/4
f 480/8/4 481/8/4 484/8/4
f 484/8/4 481/8/4 485/8/4
f 486/7/4 487/7/4 488/7/4
f 488/7/4 487/7/4 489/7/4
f 488/6/4 489/6/4 490/6/4
f 490/6/4 489/6/4 491/6/4
f 490/7/4 491/7/4 492/7/4
f 492/7/4 491/7/4 493/7/4
f 490/7/4 492/7/4 494/7/4
f 492/8/4 493/8/4 495/8/4
f 494/7/4 492/7/4 495/7/4
f 495/8/4 493/8/4 496/8/4
f 497/4/4 498/4/4 501/4/4
f 501/4/4 498/4/4 502/4/4
f 499/4/4 500/4/4 503/4/4
f 503/4/4 500/4/4 504/4/4
f 499/4/4 503/4/4 505/4/4
f 503/3/4 504/3/4 505/3/4
f 504/4/4 500/4/4 506/4/4
f 505/3/4 504/3/4 506/3/4
f 499/4/4 505/4/4 507/4/4
f 505/4/4 506/4/4 507/4/4
f 506/4/4 500/4/4 508/4/4
f 507/4/4 506/4/4 508/4/4
f 511/4/4 512/4/4 513/4/4
f 513/4/4 512/4/4 514/4/4
f 511/4/4 513/4/4 515/4/4
f 513/3/4 514/3/4 515/3/4
f 514/4/4 512/4/4 516/4/4
f 515/3/4 514/3/4 516/3/4
f 516/4/4 512/4/4 517/4/4
f 509/5/4 510/5/4 518/5/4
f 518/5/4 510/5/4 519/5/4
f 516/4/4 517/4/4 521/4/4
f 519/4/4 520/4/4 521/4/4
f 518/4/4 519/4/4 521/4/4
f 517/4/4 518/4/4 521/4/4
f 511/4/4 515/4/4 521/4/4
f 515/4/4 516/4/4 521/4/4
f 521/4/4 520/4/4 522/4/4
f 525/4/5 524/4/5 523/4/5
f 526/4/5 524/4/5 525/4/5
f 529/4/5 528/4/5 527/4/5
f 530/4/5 528/4/5 529/4/5
f 532/4/5 524/4/5 526/4/5
f 533/4/5 532/4/5 531/4/5
f 534/4/5 524/4/5 532/4/5
f 534/4/5 532/4/5 533/4/5
f 537/4/5 536/4/5 535/4/5
f 539/4/5 538/4/5 537/4/5
f 541/4/5 540/4/5 539/4/5
f 542/4/5 541/4/5 539/4/5
f 543/4/5 539/4/5 537/4/5
f 543/4/5 542/4/5 539/4/5
f 544/4/5 542/4/5 543/4/5
f 545/4/5 537/4/5 535/4/5
f 545/4/5 543/4/5 537/4/5
f 546/4/5 543/4/5 545/4/5
f 547/4/5 545/4/5 535/4/5
f 548/4/5 545/4/5 547/4/5
f 553/7/5 552/7/5 551/7/5
f 554/7/5 552/7/5 553/7/5
f 555/7/5 553/7/5 551/7/5
f 555/8/5 554/8/5 553/8/5
f 556/8/5 554/8/5 555/8/5
f 557/7/5 550/7/5 549/7/5
f 558/6/5 551/6/5 550/6/5
f 558/7/5 550/7/5 557/7/5
f 559/7/5 555/7/5 551/7/5
f 559/6/5 551/6/5 558/6/5
f 559/7/5 556/7/5 555/7/5
f 560/7/5 556/7/5 559/7/5
f 565/7/5 564/7/5 563/7/5
f 566/7/5 564/7/5 565/7/5
f 567/7/5 565/7/5 563/7/5
f 567/8/5 566/8/5 565/8/5
f 568/8/5 566/8/5 567/8/5
f 569/7/5 562/7/5 561/7/5
f 570/6/5 563/6/5 562/6/5
f 570/7/5 562/7/5 569/7/5
f 571/7/5 567/7/5 563/7/5
f 571/6/5 563/6/5 570/6/5
f 571/7/5 568/7/5 567/7/5
f 572/7/5 568/7/5 571/7/5
f 577/7/5 574/7/5 573/7/5
f 578/6/5 575/6/5 574/6/5
f 578/7/5 574/7/5 577/7/5
f 579/7/5 576/7/5 575/7/5
f 579/6/5 575/6/5 578/6/5
f 580/7/5 576/7/5 579/7/5
f 585/7/5 582/7/5 581/7/5
f 586/6/5 583/6/5 582/6/5
f 586/7/5 582/7/5 585/7/5
f 587/7/5 584/7/5 583/7/5
f 587/6/5 583/6/5 586/6/5
f 588/7/5 584/7/5 587/7/5
f 593/7/5 590/7/5 589/7/5
f 594/6/5 591/6/5 590/6/5
f 594/7/5 590/7/5 593/7/5
f 595/7/5 592/7/5 591/7/5
f 595/6/5 591/6/5 594/6/5
f 596/7/5 592/7/5 595/7/5
f 601/7/5 598/7/5 597/7/5
f 602/6/5 599/6/5 598/6/5
f 602/7/5 598/7/5 601/7/5
f 603/7/5 600/7/5 599/7/5
f 603/6/5 599/6/5 602/6/5
f 604/7/5 600/7/5 603/7/5
f 607/5/5 606/5/5 605/5/5
f 608/5/5 606/5/5 607/5/5
f 609/5/5 607/5/5 605/5/5
f 611/5/5 609/5/5 605/5/5
f 611/5/5 610/5/5 609/5/5
f 612/5/5 610/5/5 611/5/5
f 615/8/5 614/8/5 613/8/5
f 616/8/5 614/8/5 615/8/5
f 617/8/5 614/8/5 616/8/5
f 618/8/5 614/8/5 617/8/5
f 621/8/5 620/8/5 619/8/5
f 622/8/5 620/8/5 621/8/5
f 623/8/5 620/8/5 622/8/5
f 624/8/5 620/8/5 623/8/5
f 625/4/6 626/4/6 627/4/6
f 627/4/6 626/4/6 628/4/6
f 629/4/6 630/4/6 631/4/6
f 629/4/6 631/4/6 633/4/6
f 631/4/6 632/4/6 633/4/6
f 633/4/6 632/4/6 634/4/6
f 635/4/6 636/4/6 639/4/6
f 639/4/6 636/4/6 640/4/6
f 637/4/6 638/4/6 641/4/6
f 641/4/6 638/4/6 642/4/6
f 637/4/6 641/4/6 643/4/6
f 643/4/6 641/4/6 644/4/6
f 645/4/6 646/4/6 647/4/6
f 647/4/6 646/4/6 648/4/6
f 649/4/6 650/4/6 651/4/6
f 651/4/6 650/4/6 652/4/6
f 653/4/6 654/4/6 655/4/6
f 655/4/6 654/4/6 656/4/6
f 657/7/6 658/7/6 659/7/6
f 659/7/6 658/7/6 660/7/6
f 659/8/6 660/8/6 661/8/6
f 661/8/6 660/8/6 662/8/6
f 661/7/6 662/7/6 663/7/6
f 663/7/6 662/7/6 664/7/6
f 665/7/6 666/7/6 667/7/6
f 667/7/6 666/7/6 668/7/6
f 667/8/6 668/8/6 669/8/6
f 669/8/6 668/8/6 670/8/6
f 669/7/6 670/7/6 671/7/6
f 671/7/6 670/7/6 672/7/6
f 673/4/6 674/4/6 675/4/6
f 675/4/6 674/4/6 676/4/6
f 677/7/6 678/7/6 682/7/6
f 678/6/6 679/6/6 683/6/6
f 682/7/6 678/7/6 683/7/6
f 679/7/6 680/7/6 684/7/6
f 683/6/6 679/6/6 684/6/6
f 680/8/6 681/8/6 685/8/6
f 684/7/6 680/7/6 685/7/6
f 685/8/6 681/8/6 686/8/6
f 687/7/6 688/7/6 692/7/6
f 688/6/6 689/6/6 693/6/6
f 692/7/6 688/7/6 693/7/6
f 689/7/6 690/7/6 694/7/6
f 693/6/6 689/6/6 694/6/6
f 690/8/6 691/8/6 695/8/6
f 694/7/6 690/7/6 695/7/6
f 695/8/6 691/8/6 696/8/6
f 697/7/6 698/7/6 702/7/6
f 698/6/6 699/6/6 703/6/6
f 702/7/6 698/7/6 703/7/6
f 699/7/6 700/7/6 704/7/6
f 703/6/6 699/6/6 704/6/6
f 700/8/6 701/8/6 705/8/6
f 704/7/6 700/7/6 705/7/6
f 705/8/6 701/8/6 706/8/6
f 707/7/6 708/7/6 712/7/6
f 708/6/6 709/6/6 713/6/6
f 712/7/6 708/7/6 713/7/6
f 709/7/6 710/7/6 714/7/6
f 713/6/6 709/6/6 714/6/6
f 710/8/6 711/8/6 715/8/6
f 714/7/6 710/7/6 715/7/6
f 715/8/6 711/8/6 716/8/6
f 717/5/6 718/5/6 719/5/6
f 719/5/6 718/5/6 720/5/6
f 721/7/6 722/7/6 726/7/6
f 722/6/6 723/6/6 727/6/6
f 726/7/6 722/7/6 727/7/6
f 723/7/6 724/7/6 728/7/6
f 727/6/6 723/6/6 728/6/6
f 724/8/6 725/8/6 729/8/6
f 728/7/6 724/7/6 729/7/6
f 729/8/6 725/8/6 730/8/6
f 731/7/6 732/7/6 736/7/6
f 732/6/6 733/6/6 737/6/6
f 736/7/6 732/7/6 737/7/6
f 733/7/6 734/7/6 738/7/6
f 737/6/6 733/6/6 738/6/6
f 734/8/6 735/8/6 739/8/6
f 738/7/6 734/7/6 739/7/6
f 739/8/6 735/8/6 740/8/6
f 717/5/6 719/5/6 741/5/6
f 717/5/6 741/5/6 743/5/6
f 741/5/6 742/5/6 743/5/6
f 743/5/6 742/5/6 744/5/6
f 745/4/6 746/4/6 747/4/6
f 747/4/6 746/4/6 748/4/6
f 749/4/6 750/4/6 751/4/6
f 751/4/6 750/4/6 752/4/6
f 753/4/6 754/4/6 755/4/6
f 755/4/6 754/4/6 756/4/6
f 757/4/6 758/4/6 759/4/6
f 759/4/6 758/4/6 760/4/6
f 761/4/6 762/4/6 763/4/6
f 763/4/6 762/4/6 764/4/6
