# MagicaVoxel @ Ephtracy

# group
o 

# material
mtllib model-0.mtl
usemtl palette

# normals
vn 0 0 1
vn 0 0 -1
vn 1 0 0
vn -1 0 0
vn 0 -1 0
vn 0 1 0

# texcoords
vt 0.353516 0.5
vt 0.388672 0.5

# verts
v 0.4 0.8 0.9
v 0.2 0.8 0.9
v 0 0.8 0.9
v -0.2 0.8 0.9
v -0.4 0.8 0.9
v 0.4 1.1 0.9
v 0.2 1.1 0.9
v 0 1.1 0.9
v -0.2 1.1 0.9
v -0.4 1.1 0.9
v 0.4 0.8 -0.9
v 0.2 0.8 -0.9
v 0 0.8 -0.9
v -0.2 0.8 -0.9
v -0.4 0.8 -0.9
v 0.4 1.1 -0.9
v 0.2 1.1 -0.9
v 0 1.1 -0.9
v -0.2 1.1 -0.9
v -0.4 1.1 -0.9
v 0.4 0.8 0.9
v 0.4 1.1 0.9
v 0.4 0.8 0.7
v 0.4 1.1 0.7
v 0.4 0.8 0.5
v 0.4 1.1 0.5
v 0.4 0.8 0.3
v 0.4 1.1 0.3
v 0.4 0.8 0.1
v 0.4 1.1 0.1
v 0.4 0.8 -0.1
v 0.4 1.1 -0.1
v 0.4 0.8 -0.3
v 0.4 1.1 -0.3
v 0.4 0.8 -0.5
v 0.4 1.1 -0.5
v 0.4 0.8 -0.7
v 0.4 1.1 -0.7
v 0.4 0.8 -0.9
v 0.4 1.1 -0.9
v -0.4 0.8 0.9
v -0.4 1.1 0.9
v -0.4 0.8 0.7
v -0.4 1.1 0.7
v -0.4 0.8 0.5
v -0.4 1.1 0.5
v -0.4 0.8 0.3
v -0.4 1.1 0.3
v -0.4 0.8 0.1
v -0.4 1.1 0.1
v -0.4 0.8 -0.1
v -0.4 1.1 -0.1
v -0.4 0.8 -0.3
v -0.4 1.1 -0.3
v -0.4 0.8 -0.5
v -0.4 1.1 -0.5
v -0.4 0.8 -0.7
v -0.4 1.1 -0.7
v -0.4 0.8 -0.9
v -0.4 1.1 -0.9
v 0.4 0.8 0.9
v 0.4 0.8 0.7
v 0.4 0.8 0.5
v 0.4 0.8 0.3
v 0.4 0.8 0.1
v 0.4 0.8 -0.1
v 0.4 0.8 -0.3
v 0.4 0.8 -0.5
v 0.4 0.8 -0.7
v 0.4 0.8 -0.9
v 0.3 0.8 0.7
v 0.3 0.8 0.5
v 0.3 0.8 -0.5
v 0.3 0.8 -0.7
v 0.2 0.8 0.9
v 0.2 0.8 0.8
v 0.2 0.8 0.3
v 0.2 0.8 0.1
v 0.2 0.8 -0.1
v 0.2 0.8 -0.3
v 0.2 0.8 -0.8
v 0.2 0.8 -0.9
v 0 0.8 0.9
v 0 0.8 0.8
v 0 0.8 -0.8
v 0 0.8 -0.9
v -0.2 0.8 0.9
v -0.2 0.8 0.8
v -0.2 0.8 -0.8
v -0.2 0.8 -0.9
v -0.3 0.8 0.8
v -0.3 0.8 0.7
v -0.3 0.8 0.5
v -0.3 0.8 0.3
v -0.3 0.8 0.1
v -0.3 0.8 -0.1
v -0.3 0.8 -0.3
v -0.3 0.8 -0.5
v -0.3 0.8 -0.7
v -0.3 0.8 -0.8
v -0.4 0.8 0.9
v -0.4 0.8 0.7
v -0.4 0.8 0.5
v -0.4 0.8 0.3
v -0.4 0.8 0.1
v -0.4 0.8 -0.1
v -0.4 0.8 -0.3
v -0.4 0.8 -0.5
v -0.4 0.8 -0.7
v -0.4 0.8 -0.9
v 0.4 1.1 0.9
v 0.4 1.1 0.7
v 0.4 1.1 0.5
v 0.4 1.1 0.3
v 0.4 1.1 0.1
v 0.4 1.1 -0.1
v 0.4 1.1 -0.3
v 0.4 1.1 -0.5
v 0.4 1.1 -0.7
v 0.4 1.1 -0.9
v 0.3 1.1 0.7
v 0.3 1.1 0.5
v 0.3 1.1 -0.5
v 0.3 1.1 -0.7
v 0.2 1.1 0.9
v 0.2 1.1 0.8
v 0.2 1.1 0.3
v 0.2 1.1 0.1
v 0.2 1.1 -0.1
v 0.2 1.1 -0.3
v 0.2 1.1 -0.8
v 0.2 1.1 -0.9
v 0 1.1 0.9
v 0 1.1 0.8
v 0 1.1 -0.8
v 0 1.1 -0.9
v -0.2 1.1 0.9
v -0.2 1.1 0.8
v -0.2 1.1 -0.8
v -0.2 1.1 -0.9
v -0.3 1.1 0.8
v -0.3 1.1 0.7
v -0.3 1.1 0.5
v -0.3 1.1 0.3
v -0.3 1.1 0.1
v -0.3 1.1 -0.1
v -0.3 1.1 -0.3
v -0.3 1.1 -0.5
v -0.3 1.1 -0.7
v -0.3 1.1 -0.8
v -0.4 1.1 0.9
v -0.4 1.1 0.7
v -0.4 1.1 0.5
v -0.4 1.1 0.3
v -0.4 1.1 0.1
v -0.4 1.1 -0.1
v -0.4 1.1 -0.3
v -0.4 1.1 -0.5
v -0.4 1.1 -0.7
v -0.4 1.1 -0.9

# faces
f 6/2/1 2/2/1 1/2/1
f 7/1/1 3/1/1 2/1/1
f 7/2/1 2/2/1 6/2/1
f 8/2/1 4/2/1 3/2/1
f 8/1/1 3/1/1 7/1/1
f 9/1/1 5/1/1 4/1/1
f 9/2/1 4/2/1 8/2/1
f 10/1/1 5/1/1 9/1/1
f 11/2/2 12/2/2 16/2/2
f 12/1/2 13/1/2 17/1/2
f 16/2/2 12/2/2 17/2/2
f 13/2/2 14/2/2 18/2/2
f 17/1/2 13/1/2 18/1/2
f 14/1/2 15/1/2 19/1/2
f 18/2/2 14/2/2 19/2/2
f 19/1/2 15/1/2 20/1/2
f 23/2/3 22/2/3 21/2/3
f 24/2/3 22/2/3 23/2/3
f 25/1/3 24/1/3 23/1/3
f 26/1/3 24/1/3 25/1/3
f 27/2/3 26/2/3 25/2/3
f 28/2/3 26/2/3 27/2/3
f 29/1/3 28/1/3 27/1/3
f 30/1/3 28/1/3 29/1/3
f 31/2/3 30/2/3 29/2/3
f 32/2/3 30/2/3 31/2/3
f 33/1/3 32/1/3 31/1/3
f 34/1/3 32/1/3 33/1/3
f 35/2/3 34/2/3 33/2/3
f 36/2/3 34/2/3 35/2/3
f 37/1/3 36/1/3 35/1/3
f 38/1/3 36/1/3 37/1/3
f 39/2/3 38/2/3 37/2/3
f 40/2/3 38/2/3 39/2/3
f 41/1/4 42/1/4 43/1/4
f 43/1/4 42/1/4 44/1/4
f 43/2/4 44/2/4 45/2/4
f 45/2/4 44/2/4 46/2/4
f 45/1/4 46/1/4 47/1/4
f 47/1/4 46/1/4 48/1/4
f 47/2/4 48/2/4 49/2/4
f 49/2/4 48/2/4 50/2/4
f 49/1/4 50/1/4 51/1/4
f 51/1/4 50/1/4 52/1/4
f 51/2/4 52/2/4 53/2/4
f 53/2/4 52/2/4 54/2/4
f 53/1/4 54/1/4 55/1/4
f 55/1/4 54/1/4 56/1/4
f 55/2/4 56/2/4 57/2/4
f 57/2/4 56/2/4 58/2/4
f 57/1/4 58/1/4 59/1/4
f 59/1/4 58/1/4 60/1/4
f 71/2/5 62/2/5 61/2/5
f 71/1/5 63/1/5 62/1/5
f 72/2/5 64/2/5 63/2/5
f 72/1/5 63/1/5 71/1/5
f 73/1/5 69/1/5 68/1/5
f 73/2/5 68/2/5 67/2/5
f 74/2/5 70/2/5 69/2/5
f 74/1/5 69/1/5 73/1/5
f 75/2/5 71/2/5 61/2/5
f 75/2/5 72/2/5 71/2/5
f 76/2/5 72/2/5 75/2/5
f 77/2/5 64/2/5 72/2/5
f 77/2/5 72/2/5 76/2/5
f 77/1/5 65/1/5 64/1/5
f 78/2/5 66/2/5 65/2/5
f 78/1/5 65/1/5 77/1/5
f 79/1/5 67/1/5 66/1/5
f 79/2/5 66/2/5 78/2/5
f 80/2/5 73/2/5 67/2/5
f 80/1/5 67/1/5 79/1/5
f 80/2/5 74/2/5 73/2/5
f 81/2/5 70/2/5 74/2/5
f 81/2/5 74/2/5 80/2/5
f 82/2/5 70/2/5 81/2/5
f 83/1/5 76/1/5 75/1/5
f 84/2/5 79/2/5 78/2/5
f 84/1/5 76/1/5 83/1/5
f 84/2/5 80/2/5 79/2/5
f 84/2/5 77/2/5 76/2/5
f 84/2/5 81/2/5 80/2/5
f 84/2/5 78/2/5 77/2/5
f 85/1/5 82/1/5 81/1/5
f 85/2/5 81/2/5 84/2/5
f 86/1/5 82/1/5 85/1/5
f 87/2/5 84/2/5 83/2/5
f 87/2/5 85/2/5 84/2/5
f 87/2/5 86/2/5 85/2/5
f 88/2/5 86/2/5 87/2/5
f 89/2/5 86/2/5 88/2/5
f 90/2/5 86/2/5 89/2/5
f 91/1/5 88/1/5 87/1/5
f 91/2/5 89/2/5 88/2/5
f 92/2/5 89/2/5 91/2/5
f 93/2/5 89/2/5 92/2/5
f 94/2/5 89/2/5 93/2/5
f 95/2/5 89/2/5 94/2/5
f 96/2/5 89/2/5 95/2/5
f 97/2/5 89/2/5 96/2/5
f 98/2/5 89/2/5 97/2/5
f 99/2/5 89/2/5 98/2/5
f 100/1/5 90/1/5 89/1/5
f 100/2/5 89/2/5 99/2/5
f 101/1/5 91/1/5 87/1/5
f 101/1/5 92/1/5 91/1/5
f 102/2/5 93/2/5 92/2/5
f 102/1/5 92/1/5 101/1/5
f 103/1/5 94/1/5 93/1/5
f 103/2/5 93/2/5 102/2/5
f 104/2/5 95/2/5 94/2/5
f 104/1/5 94/1/5 103/1/5
f 105/1/5 96/1/5 95/1/5
f 105/2/5 95/2/5 104/2/5
f 106/2/5 97/2/5 96/2/5
f 106/1/5 96/1/5 105/1/5
f 107/1/5 98/1/5 97/1/5
f 107/2/5 97/2/5 106/2/5
f 108/2/5 99/2/5 98/2/5
f 108/1/5 98/1/5 107/1/5
f 109/1/5 100/1/5 99/1/5
f 109/2/5 99/2/5 108/2/5
f 110/1/5 90/1/5 100/1/5
f 110/1/5 100/1/5 109/1/5
f 111/2/6 112/2/6 121/2/6
f 112/1/6 113/1/6 121/1/6
f 113/2/6 114/2/6 122/2/6
f 121/1/6 113/1/6 122/1/6
f 118/1/6 119/1/6 123/1/6
f 117/2/6 118/2/6 123/2/6
f 119/2/6 120/2/6 124/2/6
f 123/1/6 119/1/6 124/1/6
f 111/2/6 121/2/6 125/2/6
f 121/2/6 122/2/6 125/2/6
f 125/2/6 122/2/6 126/2/6
f 122/2/6 114/2/6 127/2/6
f 126/2/6 122/2/6 127/2/6
f 114/1/6 115/1/6 127/1/6
f 115/2/6 116/2/6 128/2/6
f 127/1/6 115/1/6 128/1/6
f 116/1/6 117/1/6 129/1/6
f 128/2/6 116/2/6 129/2/6
f 117/2/6 123/2/6 130/2/6
f 129/1/6 117/1/6 130/1/6
f 123/2/6 124/2/6 130/2/6
f 124/2/6 120/2/6 131/2/6
f 130/2/6 124/2/6 131/2/6
f 131/2/6 120/2/6 132/2/6
f 125/1/6 126/1/6 133/1/6
f 128/2/6 129/2/6 134/2/6
f 133/1/6 126/1/6 134/1/6
f 129/2/6 130/2/6 134/2/6
f 126/2/6 127/2/6 134/2/6
f 130/2/6 131/2/6 134/2/6
f 127/2/6 128/2/6 134/2/6
f 131/1/6 132/1/6 135/1/6
f 134/2/6 131/2/6 135/2/6
f 135/1/6 132/1/6 136/1/6
f 133/2/6 134/2/6 137/2/6
f 134/2/6 135/2/6 137/2/6
f 135/2/6 136/2/6 137/2/6
f 137/2/6 136/2/6 138/2/6
f 138/2/6 136/2/6 139/2/6
f 139/2/6 136/2/6 140/2/6
f 137/1/6 138/1/6 141/1/6
f 138/2/6 139/2/6 141/2/6
f 141/2/6 139/2/6 142/2/6
f 142/2/6 139/2/6 143/2/6
f 143/2/6 139/2/6 144/2/6
f 144/2/6 139/2/6 145/2/6
f 145/2/6 139/2/6 146/2/6
f 146/2/6 139/2/6 147/2/6
f 147/2/6 139/2/6 148/2/6
f 148/2/6 139/2/6 149/2/6
f 139/1/6 140/1/6 150/1/6
f 149/2/6 139/2/6 150/2/6
f 137/1/6 141/1/6 151/1/6
f 141/1/6 142/1/6 151/1/6
f 142/2/6 143/2/6 152/2/6
f 151/1/6 142/1/6 152/1/6
f 143/1/6 144/1/6 153/1/6
f 152/2/6 143/2/6 153/2/6
f 144/2/6 145/2/6 154/2/6
f 153/1/6 144/1/6 154/1/6
f 145/1/6 146/1/6 155/1/6
f 154/2/6 145/2/6 155/2/6
f 146/2/6 147/2/6 156/2/6
f 155/1/6 146/1/6 156/1/6
f 147/1/6 148/1/6 157/1/6
f 156/2/6 147/2/6 157/2/6
f 148/2/6 149/2/6 158/2/6
f 157/1/6 148/1/6 158/1/6
f 149/1/6 150/1/6 159/1/6
f 158/2/6 149/2/6 159/2/6
f 150/1/6 140/1/6 160/1/6
f 159/1/6 150/1/6 160/1/6
