# MagicaVoxel @ Ephtracy

# group
o 

# material
mtllib model-0.mtl
usemtl palette

# normals
vn 0 0 1
vn 0 0 -1
vn 1 0 0
vn -1 0 0
vn 0 -1 0
vn 0 1 0

# texcoords
vt 0.0957031 0.5
vt 0.189453 0.5
vt 0.513672 0.5
vt 0.517578 0.5
vt 0.521484 0.5
vt 0.552734 0.5
vt 0.568359 0.5

# verts
v 0.5 0 1
v -0.5 0 1
v 0.5 0.1 1
v -0.5 0.1 1
v 0.5 0.7 1
v -0.5 0.7 1
v 0.7 0 0.4
v 0.5 0 0.4
v 0.6 0.1 0.4
v 0.5 0.1 0.4
v 0.7 0.7 0.4
v 0.6 0.7 0.4
v 0.5 0.7 0.4
v 0.5 0 0.2
v 0.4 0 0.2
v 0.5 0.1 0.2
v 0.4 0.1 0.2
v 0.5 0.1 -0.1
v 0.4 0.1 -0.1
v 0.5 0.2 -0.1
v 0.4 0.2 -0.1
v 0.5 0.3 -0.1
v 0.4 0.3 -0.1
v 0.6 0.1 -0.2
v 0.5 0.1 -0.2
v 0.5 0.2 -0.2
v 0.5 0.4 -0.2
v 0.4 0.4 -0.2
v 0.6 0.7 -0.2
v 0.4 0.7 -0.2
v 0.7 0 -0.3
v 0.4 0 -0.3
v 0.6 0.1 -0.3
v 0.4 0.1 -0.3
v 0.7 0.7 -0.3
v 0.6 0.7 -0.3
v 0.4 0 -0.9
v -0.4 0 -0.9
v 0.4 0.1 -0.9
v -0.4 0.1 -0.9
v 0.4 0 0.9
v -0.4 0 0.9
v 0.4 0.1 0.9
v -0.4 0.1 0.9
v 0.7 0 0.3
v 0.4 0 0.3
v 0.6 0.1 0.3
v 0.4 0.1 0.3
v 0.7 0.7 0.3
v 0.6 0.7 0.3
v 0.6 0.1 0.2
v 0.5 0.1 0.2
v 0.5 0.4 0.2
v 0.4 0.4 0.2
v 0.6 0.7 0.2
v 0.4 0.7 0.2
v 0.5 0.1 0.1
v 0.4 0.1 0.1
v 0.5 0.3 0.1
v 0.4 0.3 0.1
v 0.5 0 -0.2
v 0.4 0 -0.2
v 0.5 0.1 -0.2
v 0.4 0.1 -0.2
v 0.7 0 -0.4
v 0.5 0 -0.4
v 0.6 0.1 -0.4
v 0.5 0.1 -0.4
v 0.7 0.7 -0.4
v 0.6 0.7 -0.4
v 0.5 0.7 -0.4
v 0.5 0 -1
v -0.5 0 -1
v 0.5 0.1 -1
v -0.5 0.1 -1
v 0.5 0.7 -1
v -0.5 0.7 -1
v 0.7 0 0.4
v 0.7 0.7 0.4
v 0.7 0 0.3
v 0.7 0.7 0.3
v 0.7 0 -0.3
v 0.7 0.7 -0.3
v 0.7 0 -0.4
v 0.7 0.7 -0.4
v 0.6 0.1 0.3
v 0.6 0.7 0.3
v 0.6 0.1 0.2
v 0.6 0.7 0.2
v 0.6 0.1 -0.2
v 0.6 0.7 -0.2
v 0.6 0.1 -0.3
v 0.6 0.7 -0.3
v 0.5 0 1
v 0.5 0.1 1
v 0.5 0.7 1
v 0.5 0 0.4
v 0.5 0.1 0.4
v 0.5 0.7 0.4
v 0.5 0 0.2
v 0.5 0.1 0.2
v 0.5 0.4 0.2
v 0.5 0.1 0.1
v 0.5 0.3 0.1
v 0.5 0 0
v 0.5 0.1 0
v 0.5 0.3 0
v 0.5 0.4 0
v 0.5 0.1 -0.1
v 0.5 0.2 -0.1
v 0.5 0.3 -0.1
v 0.5 0 -0.2
v 0.5 0.1 -0.2
v 0.5 0.2 -0.2
v 0.5 0.4 -0.2
v 0.5 0 -0.4
v 0.5 0.1 -0.4
v 0.5 0.7 -0.4
v 0.5 0 -1
v 0.5 0.1 -1
v 0.5 0.7 -1
v 0.4 0.4 0.2
v 0.4 0.7 0.2
v 0.4 0.1 0.1
v 0.4 0.3 0.1
v 0.4 0.1 0
v 0.4 0.3 0
v 0.4 0.4 0
v 0.4 0.1 -0.1
v 0.4 0.2 -0.1
v 0.4 0.3 -0.1
v 0.4 0.4 -0.2
v 0.4 0.7 -0.2
v -0.4 0 0.9
v -0.4 0.1 0.9
v -0.4 0 -0.9
v -0.4 0.1 -0.9
v 0.4 0 0.9
v 0.4 0.1 0.9
v 0.4 0 0.3
v 0.4 0.1 0.3
v 0.4 0 0.2
v 0.4 0.1 0.2
v 0.4 0 0
v 0.4 0.1 0
v 0.4 0 -0.2
v 0.4 0.1 -0.2
v 0.4 0 -0.3
v 0.4 0.1 -0.3
v 0.4 0 -0.9
v 0.4 0.1 -0.9
v -0.5 0 1
v -0.5 0.1 1
v -0.5 0.7 1
v -0.5 0 -1
v -0.5 0.1 -1
v -0.5 0.7 -1
v 0.7 0 0.4
v 0.7 0 0.3
v 0.7 0 -0.3
v 0.7 0 -0.4
v 0.5 0 1
v 0.5 0 0.4
v 0.5 0 0.2
v 0.5 0 0
v 0.5 0 -0.2
v 0.5 0 -0.4
v 0.5 0 -1
v 0.4 0 0.9
v 0.4 0 0.3
v 0.4 0 0.2
v 0.4 0 0
v 0.4 0 -0.2
v 0.4 0 -0.3
v 0.4 0 -0.9
v -0.4 0 0.9
v -0.4 0 -0.9
v -0.5 0 1
v -0.5 0 -1
v 0.6 0.1 0.3
v 0.6 0.1 0.2
v 0.6 0.1 -0.2
v 0.6 0.1 -0.3
v 0.5 0.1 0.2
v 0.5 0.1 -0.2
v 0.4 0.1 0.9
v 0.4 0.1 0.3
v 0.4 0.1 0.2
v 0.4 0.1 0
v 0.4 0.1 -0.2
v 0.4 0.1 -0.3
v 0.4 0.1 -0.9
v -0.4 0.1 0.9
v -0.4 0.1 -0.9
v 0.5 0.3 0.1
v 0.5 0.3 0
v 0.5 0.3 -0.1
v 0.4 0.3 0.1
v 0.4 0.3 0
v 0.4 0.3 -0.1
v 0.5 0.1 0.1
v 0.5 0.1 0
v 0.5 0.1 -0.1
v 0.4 0.1 0.1
v 0.4 0.1 0
v 0.4 0.1 -0.1
v 0.5 0.4 0.2
v 0.5 0.4 0
v 0.5 0.4 -0.2
v 0.4 0.4 0.2
v 0.4 0.4 0
v 0.4 0.4 -0.2
v 0.7 0.7 0.4
v 0.7 0.7 0.3
v 0.7 0.7 -0.3
v 0.7 0.7 -0.4
v 0.6 0.7 0.4
v 0.6 0.7 0.3
v 0.6 0.7 0.2
v 0.6 0.7 -0.2
v 0.6 0.7 -0.3
v 0.6 0.7 -0.4
v 0.5 0.7 1
v 0.5 0.7 0.4
v 0.5 0.7 -0.4
v 0.5 0.7 -1
v 0.4 0.7 0.3
v 0.4 0.7 0.2
v 0.4 0.7 -0.2
v 0.4 0.7 -0.3
v 0.3 0.7 0.3
v 0.3 0.7 -0.3
v -0.5 0.7 1
v -0.5 0.7 -1

# faces
f 3/6/1 2/6/1 1/6/1
f 4/6/1 2/6/1 3/6/1
f 5/7/1 4/7/1 3/7/1
f 6/7/1 4/7/1 5/7/1
f 9/6/1 8/6/1 7/6/1
f 10/6/1 8/6/1 9/6/1
f 11/6/1 9/6/1 7/6/1
f 12/7/1 10/7/1 9/7/1
f 12/6/1 9/6/1 11/6/1
f 13/7/1 10/7/1 12/7/1
f 16/3/1 15/3/1 14/3/1
f 17/3/1 15/3/1 16/3/1
f 20/4/1 19/4/1 18/4/1
f 21/4/1 19/4/1 20/4/1
f 22/5/1 21/5/1 20/5/1
f 23/5/1 21/5/1 22/5/1
f 26/1/1 25/1/1 24/1/1
f 27/1/1 26/1/1 24/1/1
f 29/1/1 27/1/1 24/1/1
f 29/1/1 28/1/1 27/1/1
f 30/1/1 28/1/1 29/1/1
f 33/6/1 32/6/1 31/6/1
f 34/6/1 32/6/1 33/6/1
f 35/6/1 33/6/1 31/6/1
f 36/6/1 33/6/1 35/6/1
f 39/6/1 38/6/1 37/6/1
f 40/6/1 38/6/1 39/6/1
f 41/6/2 42/6/2 43/6/2
f 43/6/2 42/6/2 44/6/2
f 45/6/2 46/6/2 47/6/2
f 47/6/2 46/6/2 48/6/2
f 45/6/2 47/6/2 49/6/2
f 49/6/2 47/6/2 50/6/2
f 51/1/2 52/1/2 53/1/2
f 51/1/2 53/1/2 55/1/2
f 53/1/2 54/1/2 55/1/2
f 55/1/2 54/1/2 56/1/2
f 57/4/2 58/4/2 59/4/2
f 59/4/2 58/4/2 60/4/2
f 61/4/2 62/4/2 63/4/2
f 63/4/2 62/4/2 64/4/2
f 65/6/2 66/6/2 67/6/2
f 67/6/2 66/6/2 68/6/2
f 65/6/2 67/6/2 69/6/2
f 67/7/2 68/7/2 70/7/2
f 69/6/2 67/6/2 70/6/2
f 70/7/2 68/7/2 71/7/2
f 72/6/2 73/6/2 74/6/2
f 74/6/2 73/6/2 75/6/2
f 74/7/2 75/7/2 76/7/2
f 76/7/2 75/7/2 77/7/2
f 80/6/3 79/6/3 78/6/3
f 81/6/3 79/6/3 80/6/3
f 84/6/3 83/6/3 82/6/3
f 85/6/3 83/6/3 84/6/3
f 88/1/3 87/1/3 86/1/3
f 89/1/3 87/1/3 88/1/3
f 92/1/3 91/1/3 90/1/3
f 93/1/3 91/1/3 92/1/3
f 97/6/3 95/6/3 94/6/3
f 98/7/3 96/7/3 95/7/3
f 98/6/3 95/6/3 97/6/3
f 99/7/3 96/7/3 98/7/3
f 103/3/3 101/3/3 100/3/3
f 103/4/3 102/4/3 101/4/3
f 104/4/3 102/4/3 103/4/3
f 105/3/3 103/3/3 100/3/3
f 106/3/3 103/3/3 105/3/3
f 107/4/3 102/4/3 104/4/3
f 108/4/3 102/4/3 107/4/3
f 109/4/3 106/4/3 105/4/3
f 111/5/3 108/5/3 107/5/3
f 112/4/3 110/4/3 109/4/3
f 112/4/3 109/4/3 105/4/3
f 113/4/3 110/4/3 112/4/3
f 114/5/3 111/5/3 110/5/3
f 114/4/3 110/4/3 113/4/3
f 115/5/3 108/5/3 111/5/3
f 115/5/3 111/5/3 114/5/3
f 119/6/3 117/6/3 116/6/3
f 120/7/3 118/7/3 117/7/3
f 120/6/3 117/6/3 119/6/3
f 121/7/3 118/7/3 120/7/3
f 126/1/3 125/1/3 124/1/3
f 127/1/3 125/1/3 126/1/3
f 128/2/3 123/2/3 122/2/3
f 129/1/3 127/1/3 126/1/3
f 130/1/3 127/1/3 129/1/3
f 131/1/3 127/1/3 130/1/3
f 132/2/3 123/2/3 128/2/3
f 133/2/3 123/2/3 132/2/3
f 136/6/3 135/6/3 134/6/3
f 137/6/3 135/6/3 136/6/3
f 138/6/4 139/6/4 140/6/4
f 140/6/4 139/6/4 141/6/4
f 142/3/4 143/3/4 144/3/4
f 144/3/4 143/3/4 145/3/4
f 144/4/4 145/4/4 146/4/4
f 146/4/4 145/4/4 147/4/4
f 148/6/4 149/6/4 150/6/4
f 150/6/4 149/6/4 151/6/4
f 152/6/4 153/6/4 155/6/4
f 153/7/4 154/7/4 156/7/4
f 155/6/4 153/6/4 156/6/4
f 156/7/4 154/7/4 157/7/4
f 163/6/5 159/6/5 158/6/5
f 167/6/5 161/6/5 160/6/5
f 169/6/5 163/6/5 162/6/5
f 170/6/5 159/6/5 163/6/5
f 170/6/5 163/6/5 169/6/5
f 171/3/5 165/3/5 164/3/5
f 172/4/5 166/4/5 165/4/5
f 172/3/5 165/3/5 171/3/5
f 173/4/5 166/4/5 172/4/5
f 174/6/5 168/6/5 167/6/5
f 174/6/5 167/6/5 160/6/5
f 175/6/5 168/6/5 174/6/5
f 176/6/5 169/6/5 162/6/5
f 177/6/5 168/6/5 175/6/5
f 178/6/5 176/6/5 162/6/5
f 178/6/5 177/6/5 176/6/5
f 179/6/5 168/6/5 177/6/5
f 179/6/5 177/6/5 178/6/5
f 184/1/5 181/1/5 180/1/5
f 185/1/5 183/1/5 182/1/5
f 187/1/5 184/1/5 180/1/5
f 188/1/5 184/1/5 187/1/5
f 190/1/5 183/1/5 185/1/5
f 191/1/5 183/1/5 190/1/5
f 193/1/5 189/1/5 188/1/5
f 193/1/5 192/1/5 191/1/5
f 193/1/5 191/1/5 190/1/5
f 193/1/5 190/1/5 189/1/5
f 193/1/5 187/1/5 186/1/5
f 193/1/5 188/1/5 187/1/5
f 194/1/5 192/1/5 193/1/5
f 198/4/5 196/4/5 195/4/5
f 199/5/5 197/5/5 196/5/5
f 199/4/5 196/4/5 198/4/5
f 200/5/5 197/5/5 199/5/5
f 201/3/6 202/3/6 204/3/6
f 202/4/6 203/4/6 205/4/6
f 204/3/6 202/3/6 205/3/6
f 205/4/6 203/4/6 206/4/6
f 207/4/6 208/4/6 210/4/6
f 208/5/6 209/5/6 211/5/6
f 210/4/6 208/4/6 211/4/6
f 211/5/6 209/5/6 212/5/6
f 213/6/6 214/6/6 217/6/6
f 217/6/6 214/6/6 218/6/6
f 215/6/6 216/6/6 221/6/6
f 221/6/6 216/6/6 222/6/6
f 217/7/6 218/7/6 224/7/6
f 221/7/6 222/7/6 225/7/6
f 218/1/6 219/1/6 227/1/6
f 223/7/6 224/7/6 227/7/6
f 224/7/6 218/7/6 227/7/6
f 227/1/6 219/1/6 228/1/6
f 220/1/6 221/1/6 229/1/6
f 225/7/6 226/7/6 230/7/6
f 221/7/6 225/7/6 230/7/6
f 229/1/6 221/1/6 230/1/6
f 228/2/6 229/2/6 231/2/6
f 227/2/6 228/2/6 231/2/6
f 229/2/6 230/2/6 231/2/6
f 223/7/6 227/7/6 231/7/6
f 230/7/6 226/7/6 232/7/6
f 231/2/6 230/2/6 232/2/6
f 223/7/6 231/7/6 233/7/6
f 231/7/6 232/7/6 233/7/6
f 232/7/6 226/7/6 234/7/6
f 233/7/6 232/7/6 234/7/6
