# MagicaVoxel @ Ephtracy

# group
o 

# material
mtllib model-4.mtl
usemtl palette

# normals
vn 0 0 1
vn 0 0 -1
vn 1 0 0
vn -1 0 0
vn 0 -1 0
vn 0 1 0

# texcoords
vt 0.0957031 0.5
vt 0.189453 0.5
vt 0.552734 0.5
vt 0.568359 0.5
vt 0.755859 0.5
vt 0.759766 0.5

# verts
v 0.5 1.7 1.5
v -0.5 1.7 1.5
v 0.5 2.1 1.5
v -0.5 2.1 1.5
v 0.5 0.6 1
v -0.5 0.6 1
v 0.5 1.7 1
v -0.5 1.7 1
v 0.8 1.8 0.9
v 0.7 1.8 0.9
v -0.5 2 0.9
v -0.6 2 0.9
v 0.7 2.1 0.9
v 0.5 2.1 0.9
v -0.5 2.1 0.9
v -0.6 2.1 0.9
v 0.8 2.2 0.9
v -0.6 2.2 0.9
v 0.7 1.1 0.7
v 0.6 1.1 0.7
v 0.7 1.8 0.7
v 0.6 1.8 0.7
v 0.6 1.4 0.6
v 0.5 1.4 0.6
v 0.7 1.8 0.6
v 0.6 1.8 0.6
v 0.7 2.1 0.6
v 0.5 2.1 0.6
v 0.7 0.6 0.4
v 0.6 0.6 0.4
v 0.5 0.6 0.4
v 0.7 1.1 0.4
v 0.6 1.1 0.4
v 0.6 1.2 0.4
v 0.6 1.4 0.4
v 0.5 1.4 0.4
v 0.4 2.1 0.4
v -0.4 2.1 0.4
v 0.4 2.2 0.4
v -0.4 2.2 0.4
v 0.8 1.5 0.3
v 0.7 1.5 0.3
v 0.8 1.8 0.3
v 0.7 1.8 0.3
v 0.6 1.6 0.1
v 0.4 1.6 0.1
v 0.6 1.8 0.1
v 0.5 1.8 0.1
v 0.4 1.8 0.1
v 0.5 1.9 0.1
v 0.4 1.9 0.1
v 0.6 0.6 -0.2
v 0.4 0.6 -0.2
v 0.8 1.5 -0.2
v 0.6 1.5 -0.2
v 0.5 1.9 -0.2
v 0.4 1.9 -0.2
v 0.5 2 -0.2
v 0.4 2 -0.2
v 0.8 2.2 -0.2
v 0.4 2.2 -0.2
v 0.7 0.6 -0.3
v 0.6 0.6 -0.3
v 0.7 1.2 -0.3
v 0.6 1.2 -0.3
v 0.7 1.5 -0.3
v 0.6 1.5 -0.3
v 0.4 2.1 -0.5
v -0.4 2.1 -0.5
v -0.5 2.1 -0.5
v 0.4 2.2 -0.5
v -0.5 2.2 -0.5
v 0.4 2.1 0.5
v -0.4 2.1 0.5
v -0.5 2.1 0.5
v 0.4 2.2 0.5
v -0.5 2.2 0.5
v 0.7 0.6 0.3
v 0.6 0.6 0.3
v 0.7 1.2 0.3
v 0.6 1.2 0.3
v 0.7 1.5 0.3
v 0.6 1.5 0.3
v 0.6 0.6 0.2
v 0.4 0.6 0.2
v 0.8 1.5 0.2
v 0.6 1.5 0.2
v 0.5 1.9 0.2
v 0.4 1.9 0.2
v 0.5 2 0.2
v 0.4 2 0.2
v 0.8 2.2 0.2
v 0.4 2.2 0.2
v 0.6 1.6 -0.1
v 0.4 1.6 -0.1
v 0.6 1.8 -0.1
v 0.5 1.8 -0.1
v 0.4 1.8 -0.1
v 0.5 1.9 -0.1
v 0.4 1.9 -0.1
v 0.8 1.5 -0.3
v 0.7 1.5 -0.3
v 0.8 1.8 -0.3
v 0.7 1.8 -0.3
v 0.7 0.6 -0.4
v 0.6 0.6 -0.4
v 0.5 0.6 -0.4
v 0.7 1.1 -0.4
v 0.6 1.1 -0.4
v 0.6 1.2 -0.4
v 0.6 1.4 -0.4
v 0.5 1.4 -0.4
v 0.4 2.1 -0.4
v -0.4 2.1 -0.4
v 0.4 2.2 -0.4
v -0.4 2.2 -0.4
v 0.6 1.4 -0.6
v 0.5 1.4 -0.6
v 0.7 1.8 -0.6
v 0.6 1.8 -0.6
v 0.7 2.1 -0.6
v 0.5 2.1 -0.6
v 0.7 1.1 -0.7
v 0.6 1.1 -0.7
v 0.7 1.8 -0.7
v 0.6 1.8 -0.7
v 0.8 1.8 -0.9
v 0.7 1.8 -0.9
v -0.5 2 -0.9
v -0.6 2 -0.9
v 0.7 2.1 -0.9
v 0.5 2.1 -0.9
v -0.5 2.1 -0.9
v -0.6 2.1 -0.9
v 0.8 2.2 -0.9
v -0.6 2.2 -0.9
v 0.5 0.6 -1
v -0.5 0.6 -1
v 0.5 1.7 -1
v -0.5 1.7 -1
v 0.5 1.7 -1.5
v -0.5 1.7 -1.5
v 0.5 2.1 -1.5
v -0.5 2.1 -1.5
v 0.8 1.8 0.9
v 0.8 2.2 0.9
v 0.8 1.5 0.3
v 0.8 1.8 0.3
v 0.8 1.5 0.2
v 0.8 2.2 0.2
v 0.8 1.5 -0.2
v 0.8 2.2 -0.2
v 0.8 1.5 -0.3
v 0.8 1.8 -0.3
v 0.8 1.8 -0.9
v 0.8 2.2 -0.9
v 0.7 1.1 0.7
v 0.7 1.8 0.7
v 0.7 1.2 0.6
v 0.7 1.3 0.6
v 0.7 1.4 0.6
v 0.7 1.6 0.6
v 0.7 1.7 0.6
v 0.7 1.8 0.6
v 0.7 1.3 0.5
v 0.7 1.4 0.5
v 0.7 1.6 0.5
v 0.7 1.7 0.5
v 0.7 0.6 0.4
v 0.7 1.1 0.4
v 0.7 0.6 0.3
v 0.7 1.2 0.3
v 0.7 1.5 0.3
v 0.7 1.8 0.3
v 0.7 0.6 -0.3
v 0.7 1.2 -0.3
v 0.7 1.5 -0.3
v 0.7 1.8 -0.3
v 0.7 0.6 -0.4
v 0.7 1.1 -0.4
v 0.7 1.3 -0.5
v 0.7 1.4 -0.5
v 0.7 1.6 -0.5
v 0.7 1.7 -0.5
v 0.7 1.2 -0.6
v 0.7 1.3 -0.6
v 0.7 1.4 -0.6
v 0.7 1.6 -0.6
v 0.7 1.7 -0.6
v 0.7 1.8 -0.6
v 0.7 1.1 -0.7
v 0.7 1.8 -0.7
v 0.6 0.6 0.3
v 0.6 1.2 0.3
v 0.6 1.5 0.3
v 0.6 0.6 0.2
v 0.6 1.5 0.2
v 0.6 1.6 0.1
v 0.6 1.8 0.1
v 0.6 1.6 -0.1
v 0.6 1.8 -0.1
v 0.6 0.6 -0.2
v 0.6 1.5 -0.2
v 0.6 0.6 -0.3
v 0.6 1.2 -0.3
v 0.6 1.5 -0.3
v 0.5 1.7 1.5
v 0.5 2.1 1.5
v 0.5 0.6 1
v 0.5 1.7 1
v 0.5 1.7 0.9
v 0.5 2.1 0.9
v 0.5 1.4 0.6
v 0.5 2.1 0.6
v 0.5 0.6 0.4
v 0.5 1.4 0.4
v 0.5 1.9 0.2
v 0.5 2 0.2
v 0.5 1.8 0.1
v 0.5 1.9 0.1
v 0.5 1.8 -0.1
v 0.5 1.9 -0.1
v 0.5 1.9 -0.2
v 0.5 2 -0.2
v 0.5 0.6 -0.4
v 0.5 1.4 -0.4
v 0.5 1.4 -0.6
v 0.5 2.1 -0.6
v 0.5 1.7 -0.9
v 0.5 2.1 -0.9
v 0.5 0.6 -1
v 0.5 1.7 -1
v 0.5 1.7 -1.5
v 0.5 2.1 -1.5
v 0.4 0.6 0.2
v 0.4 1.9 0.2
v 0.4 2 0.2
v 0.4 2.2 0.2
v 0.4 1.6 0.1
v 0.4 1.8 0.1
v 0.4 1.9 0.1
v 0.4 1.6 -0.1
v 0.4 1.8 -0.1
v 0.4 1.9 -0.1
v 0.4 0.6 -0.2
v 0.4 1.9 -0.2
v 0.4 2 -0.2
v 0.4 2.2 -0.2
v -0.5 2.1 0.5
v -0.5 2.2 0.5
v -0.5 2.1 -0.5
v -0.5 2.2 -0.5
v 0.7 1.8 0.9
v 0.7 2.1 0.9
v 0.7 1.8 0.7
v 0.7 1.8 0.6
v 0.7 2.1 0.6
v 0.7 1.8 -0.6
v 0.7 2.1 -0.6
v 0.7 1.8 -0.7
v 0.7 1.8 -0.9
v 0.7 2.1 -0.9
v 0.6 1.1 0.7
v 0.6 1.8 0.7
v 0.6 1.2 0.6
v 0.6 1.3 0.6
v 0.6 1.4 0.6
v 0.6 1.8 0.6
v 0.6 1.3 0.5
v 0.6 1.4 0.5
v 0.6 1.1 0.4
v 0.6 1.2 0.4
v 0.6 1.4 0.4
v 0.6 1.1 -0.4
v 0.6 1.2 -0.4
v 0.6 1.4 -0.4
v 0.6 1.3 -0.5
v 0.6 1.4 -0.5
v 0.6 1.2 -0.6
v 0.6 1.3 -0.6
v 0.6 1.4 -0.6
v 0.6 1.8 -0.6
v 0.6 1.1 -0.7
v 0.6 1.8 -0.7
v 0.4 2.1 0.5
v 0.4 2.2 0.5
v 0.4 2.1 0.4
v 0.4 2.2 0.4
v 0.4 2.1 -0.4
v 0.4 2.2 -0.4
v 0.4 2.1 -0.5
v 0.4 2.2 -0.5
v -0.4 2.1 0.4
v -0.4 2.2 0.4
v -0.4 2.1 -0.4
v -0.4 2.2 -0.4
v -0.5 1.7 1.5
v -0.5 2.1 1.5
v -0.5 0.6 1
v -0.5 1.7 1
v -0.5 1.7 0.9
v -0.5 2 0.9
v -0.5 2.1 0.9
v -0.5 1.7 -0.9
v -0.5 2 -0.9
v -0.5 2.1 -0.9
v -0.5 0.6 -1
v -0.5 1.7 -1
v -0.5 1.7 -1.5
v -0.5 2.1 -1.5
v -0.6 2 0.9
v -0.6 2.1 0.9
v -0.6 2.2 0.9
v -0.6 2 -0.9
v -0.6 2.1 -0.9
v -0.6 2.2 -0.9
v 0.7 0.6 0.4
v 0.7 0.6 0.3
v 0.7 0.6 -0.3
v 0.7 0.6 -0.4
v 0.6 0.6 0.4
v 0.6 0.6 0.3
v 0.6 0.6 0.2
v 0.6 0.6 -0.2
v 0.6 0.6 -0.3
v 0.6 0.6 -0.4
v 0.5 0.6 1
v 0.5 0.6 0.4
v 0.5 0.6 -0.4
v 0.5 0.6 -1
v 0.4 0.6 0.3
v 0.4 0.6 0.2
v 0.4 0.6 -0.2
v 0.4 0.6 -0.3
v 0.3 0.6 0.3
v 0.3 0.6 -0.3
v -0.5 0.6 1
v -0.5 0.6 -1
v 0.7 1.1 0.7
v 0.7 1.1 0.4
v 0.7 1.1 -0.4
v 0.7 1.1 -0.7
v 0.6 1.1 0.7
v 0.6 1.1 0.4
v 0.6 1.1 -0.4
v 0.6 1.1 -0.7
v 0.6 1.4 0.6
v 0.6 1.4 0.5
v 0.6 1.4 0.4
v 0.6 1.4 -0.4
v 0.6 1.4 -0.5
v 0.6 1.4 -0.6
v 0.5 1.4 0.6
v 0.5 1.4 0.4
v 0.5 1.4 -0.4
v 0.5 1.4 -0.6
v 0.8 1.5 0.3
v 0.8 1.5 0.2
v 0.8 1.5 -0.2
v 0.8 1.5 -0.3
v 0.7 1.5 0.3
v 0.7 1.5 -0.3
v 0.6 1.5 0.3
v 0.6 1.5 0.2
v 0.6 1.5 -0.2
v 0.6 1.5 -0.3
v 0.6 1.6 0.1
v 0.6 1.6 -0.1
v 0.4 1.6 0.1
v 0.4 1.6 -0.1
v 0.5 1.7 1.5
v 0.5 1.7 1
v 0.5 1.7 -1
v 0.5 1.7 -1.5
v -0.5 1.7 1.5
v -0.5 1.7 1
v -0.5 1.7 -1
v -0.5 1.7 -1.5
v 0.8 1.8 0.9
v 0.8 1.8 0.3
v 0.8 1.8 -0.3
v 0.8 1.8 -0.9
v 0.7 1.8 0.9
v 0.7 1.8 0.7
v 0.7 1.8 0.6
v 0.7 1.8 0.3
v 0.7 1.8 -0.3
v 0.7 1.8 -0.6
v 0.7 1.8 -0.7
v 0.7 1.8 -0.9
v 0.5 1.9 0.2
v 0.5 1.9 0.1
v 0.5 1.9 -0.1
v 0.5 1.9 -0.2
v 0.4 1.9 0.2
v 0.4 1.9 0.1
v 0.4 1.9 -0.1
v 0.4 1.9 -0.2
v -0.5 2 0.9
v -0.5 2 -0.9
v -0.6 2 0.9
v -0.6 2 -0.9
v 0.7 2.1 0.9
v 0.7 2.1 0.6
v 0.7 2.1 -0.6
v 0.7 2.1 -0.9
v 0.5 2.1 0.9
v 0.5 2.1 0.6
v 0.5 2.1 -0.6
v 0.5 2.1 -0.9
v 0.7 1.8 0.7
v 0.7 1.8 0.6
v 0.7 1.8 -0.6
v 0.7 1.8 -0.7
v 0.6 1.8 0.7
v 0.6 1.8 0.6
v 0.6 1.8 0.1
v 0.6 1.8 -0.1
v 0.6 1.8 -0.6
v 0.6 1.8 -0.7
v 0.5 1.8 0.1
v 0.5 1.8 -0.1
v 0.5 2 0.2
v 0.5 2 -0.2
v 0.4 2 0.2
v 0.4 2 -0.2
v 0.5 2.1 1.5
v 0.5 2.1 0.9
v 0.5 2.1 -0.9
v 0.5 2.1 -1.5
v 0.4 2.1 0.5
v 0.4 2.1 0.4
v 0.4 2.1 -0.4
v 0.4 2.1 -0.5
v -0.4 2.1 0.5
v -0.4 2.1 0.4
v -0.4 2.1 -0.4
v -0.4 2.1 -0.5
v -0.5 2.1 1.5
v -0.5 2.1 0.9
v -0.5 2.1 0.5
v -0.5 2.1 -0.5
v -0.5 2.1 -0.9
v -0.5 2.1 -1.5
v 0.8 2.2 0.9
v 0.8 2.2 0.2
v 0.8 2.2 -0.2
v 0.8 2.2 -0.9
v 0.4 2.2 0.5
v 0.4 2.2 0.4
v 0.4 2.2 0.2
v 0.4 2.2 -0.2
v 0.4 2.2 -0.4
v 0.4 2.2 -0.5
v -0.4 2.2 0.4
v -0.4 2.2 -0.4
v -0.5 2.2 0.5
v -0.5 2.2 -0.5
v -0.6 2.2 0.9
v -0.6 2.2 -0.9

# faces
f 3/2/1 2/2/1 1/2/1
f 4/2/1 2/2/1 3/2/1
f 7/4/1 6/4/1 5/4/1
f 8/4/1 6/4/1 7/4/1
f 13/1/1 10/1/1 9/1/1
f 15/4/1 12/4/1 11/4/1
f 16/4/1 12/4/1 15/4/1
f 17/1/1 14/1/1 13/1/1
f 17/1/1 13/1/1 9/1/1
f 17/1/1 16/1/1 15/1/1
f 17/1/1 15/1/1 14/1/1
f 18/1/1 16/1/1 17/1/1
f 21/3/1 20/3/1 19/3/1
f 22/3/1 20/3/1 21/3/1
f 26/4/1 24/4/1 23/4/1
f 27/4/1 26/4/1 25/4/1
f 28/4/1 24/4/1 26/4/1
f 28/4/1 26/4/1 27/4/1
f 32/3/1 30/3/1 29/3/1
f 33/4/1 31/4/1 30/4/1
f 33/3/1 30/3/1 32/3/1
f 34/4/1 31/4/1 33/4/1
f 35/4/1 31/4/1 34/4/1
f 36/4/1 31/4/1 35/4/1
f 39/2/1 38/2/1 37/2/1
f 40/2/1 38/2/1 39/2/1
f 43/1/1 42/1/1 41/1/1
f 44/1/1 42/1/1 43/1/1
f 47/6/1 46/6/1 45/6/1
f 48/6/1 46/6/1 47/6/1
f 49/6/1 46/6/1 48/6/1
f 50/5/1 49/5/1 48/5/1
f 51/5/1 49/5/1 50/5/1
f 55/1/1 53/1/1 52/1/1
f 56/1/1 53/1/1 55/1/1
f 56/1/1 55/1/1 54/1/1
f 57/1/1 53/1/1 56/1/1
f 58/1/1 56/1/1 54/1/1
f 60/1/1 58/1/1 54/1/1
f 60/1/1 59/1/1 58/1/1
f 61/1/1 59/1/1 60/1/1
f 64/3/1 63/3/1 62/3/1
f 65/3/1 63/3/1 64/3/1
f 66/4/1 65/4/1 64/4/1
f 67/4/1 65/4/1 66/4/1
f 71/1/1 69/1/1 68/1/1
f 71/1/1 70/1/1 69/1/1
f 72/1/1 70/1/1 71/1/1
f 73/1/2 74/1/2 76/1/2
f 74/1/2 75/1/2 76/1/2
f 76/1/2 75/1/2 77/1/2
f 78/3/2 79/3/2 80/3/2
f 80/3/2 79/3/2 81/3/2
f 80/4/2 81/4/2 82/4/2
f 82/4/2 81/4/2 83/4/2
f 84/1/2 85/1/2 87/1/2
f 87/1/2 85/1/2 88/1/2
f 86/1/2 87/1/2 88/1/2
f 88/1/2 85/1/2 89/1/2
f 86/1/2 88/1/2 90/1/2
f 86/1/2 90/1/2 92/1/2
f 90/1/2 91/1/2 92/1/2
f 92/1/2 91/1/2 93/1/2
f 94/6/2 95/6/2 96/6/2
f 96/6/2 95/6/2 97/6/2
f 97/6/2 95/6/2 98/6/2
f 97/5/2 98/5/2 99/5/2
f 99/5/2 98/5/2 100/5/2
f 101/1/2 102/1/2 103/1/2
f 103/1/2 102/1/2 104/1/2
f 105/3/2 106/3/2 108/3/2
f 106/4/2 107/4/2 109/4/2
f 108/3/2 106/3/2 109/3/2
f 109/4/2 107/4/2 110/4/2
f 110/4/2 107/4/2 111/4/2
f 111/4/2 107/4/2 112/4/2
f 113/2/2 114/2/2 115/2/2
f 115/2/2 114/2/2 116/2/2
f 117/4/2 118/4/2 120/4/2
f 119/4/2 120/4/2 121/4/2
f 120/4/2 118/4/2 122/4/2
f 121/4/2 120/4/2 122/4/2
f 123/3/2 124/3/2 125/3/2
f 125/3/2 124/3/2 126/3/2
f 127/1/2 128/1/2 131/1/2
f 129/4/2 130/4/2 133/4/2
f 133/4/2 130/4/2 134/4/2
f 131/1/2 132/1/2 135/1/2
f 127/1/2 131/1/2 135/1/2
f 133/1/2 134/1/2 135/1/2
f 132/1/2 133/1/2 135/1/2
f 135/1/2 134/1/2 136/1/2
f 137/4/2 138/4/2 139/4/2
f 139/4/2 138/4/2 140/4/2
f 141/2/2 142/2/2 143/2/2
f 143/2/2 142/2/2 144/2/2
f 148/1/3 146/1/3 145/1/3
f 149/1/3 148/1/3 147/1/3
f 150/1/3 146/1/3 148/1/3
f 150/1/3 148/1/3 149/1/3
f 153/1/3 152/1/3 151/1/3
f 154/1/3 152/1/3 153/1/3
f 155/1/3 152/1/3 154/1/3
f 156/1/3 152/1/3 155/1/3
f 159/3/3 158/3/3 157/3/3
f 160/3/3 158/3/3 159/3/3
f 161/3/3 158/3/3 160/3/3
f 162/3/3 158/3/3 161/3/3
f 163/3/3 158/3/3 162/3/3
f 164/3/3 158/3/3 163/3/3
f 165/4/3 160/4/3 159/4/3
f 165/3/3 161/3/3 160/3/3
f 166/4/3 162/4/3 161/4/3
f 166/3/3 161/3/3 165/3/3
f 167/3/3 163/3/3 162/3/3
f 167/4/3 162/4/3 166/4/3
f 168/4/3 164/4/3 163/4/3
f 168/3/3 163/3/3 167/3/3
f 170/3/3 159/3/3 157/3/3
f 171/3/3 170/3/3 169/3/3
f 172/4/3 167/4/3 166/4/3
f 172/3/3 170/3/3 171/3/3
f 172/4/3 165/4/3 159/4/3
f 172/3/3 159/3/3 170/3/3
f 172/4/3 166/4/3 165/4/3
f 172/4/3 168/4/3 167/4/3
f 173/4/3 168/4/3 172/4/3
f 174/4/3 164/4/3 168/4/3
f 174/4/3 168/4/3 173/4/3
f 179/3/3 176/3/3 175/3/3
f 180/3/3 176/3/3 179/3/3
f 181/4/3 178/4/3 177/4/3
f 181/4/3 177/4/3 176/4/3
f 182/4/3 178/4/3 181/4/3
f 183/4/3 178/4/3 182/4/3
f 184/4/3 178/4/3 183/4/3
f 185/3/3 176/3/3 180/3/3
f 185/4/3 181/4/3 176/4/3
f 186/3/3 182/3/3 181/3/3
f 186/4/3 181/4/3 185/4/3
f 187/4/3 183/4/3 182/4/3
f 187/3/3 182/3/3 186/3/3
f 188/3/3 184/3/3 183/3/3
f 188/4/3 183/4/3 187/4/3
f 189/4/3 178/4/3 184/4/3
f 189/3/3 184/3/3 188/3/3
f 190/4/3 178/4/3 189/4/3
f 191/3/3 188/3/3 187/3/3
f 191/3/3 187/3/3 186/3/3
f 191/3/3 190/3/3 189/3/3
f 191/3/3 189/3/3 188/3/3
f 191/3/3 186/3/3 185/3/3
f 191/3/3 185/3/3 180/3/3
f 192/3/3 190/3/3 191/3/3
f 196/1/3 194/1/3 193/1/3
f 196/1/3 195/1/3 194/1/3
f 197/1/3 195/1/3 196/1/3
f 200/6/3 199/6/3 198/6/3
f 201/6/3 199/6/3 200/6/3
f 204/1/3 203/1/3 202/1/3
f 205/1/3 203/1/3 204/1/3
f 206/1/3 203/1/3 205/1/3
f 210/2/3 208/2/3 207/2/3
f 211/2/3 208/2/3 210/2/3
f 211/4/3 210/4/3 209/4/3
f 212/2/3 208/2/3 211/2/3
f 213/4/3 211/4/3 209/4/3
f 213/4/3 212/4/3 211/4/3
f 214/4/3 212/4/3 213/4/3
f 215/4/3 213/4/3 209/4/3
f 216/4/3 213/4/3 215/4/3
f 220/6/3 218/6/3 217/6/3
f 221/5/3 220/5/3 219/5/3
f 222/6/3 218/6/3 220/6/3
f 222/5/3 220/5/3 221/5/3
f 223/6/3 218/6/3 222/6/3
f 224/6/3 218/6/3 223/6/3
f 227/4/3 226/4/3 225/4/3
f 229/4/3 228/4/3 227/4/3
f 230/4/3 228/4/3 229/4/3
f 231/4/3 227/4/3 225/4/3
f 231/4/3 229/4/3 227/4/3
f 232/2/3 230/2/3 229/2/3
f 232/4/3 229/4/3 231/4/3
f 233/2/3 230/2/3 232/2/3
f 234/2/3 230/2/3 233/2/3
f 239/2/3 236/2/3 235/2/3
f 240/2/3 236/2/3 239/2/3
f 241/2/3 236/2/3 240/2/3
f 242/2/3 239/2/3 235/2/3
f 245/2/3 242/2/3 235/2/3
f 245/2/3 244/2/3 243/2/3
f 245/2/3 243/2/3 242/2/3
f 246/2/3 244/2/3 245/2/3
f 247/2/3 238/2/3 237/2/3
f 248/2/3 238/2/3 247/2/3
f 251/1/3 250/1/3 249/1/3
f 252/1/3 250/1/3 251/1/3
f 253/1/4 254/1/4 255/1/4
f 255/1/4 254/1/4 256/1/4
f 256/1/4 254/1/4 257/1/4
f 258/1/4 259/1/4 260/1/4
f 260/1/4 259/1/4 261/1/4
f 261/1/4 259/1/4 262/1/4
f 263/3/4 264/3/4 265/3/4
f 265/3/4 264/3/4 266/3/4
f 266/3/4 264/3/4 267/3/4
f 267/3/4 264/3/4 268/3/4
f 265/4/4 266/4/4 269/4/4
f 266/3/4 267/3/4 269/3/4
f 269/3/4 267/3/4 270/3/4
f 263/3/4 265/3/4 271/3/4
f 265/4/4 269/4/4 272/4/4
f 271/3/4 265/3/4 272/3/4
f 269/4/4 270/4/4 272/4/4
f 272/4/4 270/4/4 273/4/4
f 275/4/4 276/4/4 277/4/4
f 277/4/4 276/4/4 278/4/4
f 274/3/4 275/3/4 279/3/4
f 275/4/4 277/4/4 279/4/4
f 277/3/4 278/3/4 280/3/4
f 279/4/4 277/4/4 280/4/4
f 280/3/4 278/3/4 281/3/4
f 280/3/4 281/3/4 283/3/4
f 281/3/4 282/3/4 283/3/4
f 274/3/4 279/3/4 283/3/4
f 279/3/4 280/3/4 283/3/4
f 283/3/4 282/3/4 284/3/4
f 285/1/4 286/1/4 287/1/4
f 287/1/4 286/1/4 288/1/4
f 289/1/4 290/1/4 291/1/4
f 291/1/4 290/1/4 292/1/4
f 293/2/4 294/2/4 295/2/4
f 295/2/4 294/2/4 296/2/4
f 297/2/4 298/2/4 300/2/4
f 300/2/4 298/2/4 301/2/4
f 299/4/4 300/4/4 301/4/4
f 301/2/4 298/2/4 302/2/4
f 302/2/4 298/2/4 303/2/4
f 299/4/4 301/4/4 304/4/4
f 301/4/4 302/4/4 304/4/4
f 304/4/4 302/4/4 305/4/4
f 299/4/4 304/4/4 307/4/4
f 305/2/4 306/2/4 308/2/4
f 307/4/4 304/4/4 308/4/4
f 304/2/4 305/2/4 308/2/4
f 308/2/4 306/2/4 309/2/4
f 309/2/4 306/2/4 310/2/4
f 311/4/4 312/4/4 314/4/4
f 312/1/4 313/1/4 315/1/4
f 314/4/4 312/4/4 315/4/4
f 315/1/4 313/1/4 316/1/4
f 321/3/5 318/3/5 317/3/5
f 322/3/5 318/3/5 321/3/5
f 325/3/5 320/3/5 319/3/5
f 326/3/5 320/3/5 325/3/5
f 328/4/5 322/4/5 321/4/5
f 329/4/5 326/4/5 325/4/5
f 331/1/5 323/1/5 322/1/5
f 331/4/5 328/4/5 327/4/5
f 331/4/5 322/4/5 328/4/5
f 332/1/5 323/1/5 331/1/5
f 333/1/5 325/1/5 324/1/5
f 334/4/5 330/4/5 329/4/5
f 334/4/5 329/4/5 325/4/5
f 334/1/5 325/1/5 333/1/5
f 335/2/5 333/2/5 332/2/5
f 335/2/5 332/2/5 331/2/5
f 335/2/5 334/2/5 333/2/5
f 335/4/5 331/4/5 327/4/5
f 336/4/5 330/4/5 334/4/5
f 336/2/5 334/2/5 335/2/5
f 337/4/5 335/4/5 327/4/5
f 337/4/5 336/4/5 335/4/5
f 338/4/5 330/4/5 336/4/5
f 338/4/5 336/4/5 337/4/5
f 343/3/5 340/3/5 339/3/5
f 344/3/5 340/3/5 343/3/5
f 345/3/5 342/3/5 341/3/5
f 346/3/5 342/3/5 345/3/5
f 353/4/5 348/4/5 347/4/5
f 353/4/5 349/4/5 348/4/5
f 354/4/5 349/4/5 353/4/5
f 355/4/5 352/4/5 351/4/5
f 355/4/5 351/4/5 350/4/5
f 356/4/5 352/4/5 355/4/5
f 361/1/5 358/1/5 357/1/5
f 362/1/5 360/1/5 359/1/5
f 363/1/5 358/1/5 361/1/5
f 364/1/5 358/1/5 363/1/5
f 365/1/5 362/1/5 359/1/5
f 366/1/5 362/1/5 365/1/5
f 369/6/5 368/6/5 367/6/5
f 370/6/5 368/6/5 369/6/5
f 375/2/5 372/2/5 371/2/5
f 376/2/5 372/2/5 375/2/5
f 377/2/5 374/2/5 373/2/5
f 378/2/5 374/2/5 377/2/5
f 383/1/5 380/1/5 379/1/5
f 384/1/5 380/1/5 383/1/5
f 385/1/5 380/1/5 384/1/5
f 386/1/5 380/1/5 385/1/5
f 387/1/5 382/1/5 381/1/5
f 388/1/5 382/1/5 387/1/5
f 389/1/5 382/1/5 388/1/5
f 390/1/5 382/1/5 389/1/5
f 395/6/5 392/6/5 391/6/5
f 396/6/5 392/6/5 395/6/5
f 397/6/5 394/6/5 393/6/5
f 398/6/5 394/6/5 397/6/5
f 401/4/5 400/4/5 399/4/5
f 402/4/5 400/4/5 401/4/5
f 407/1/5 404/1/5 403/1/5
f 408/1/5 404/1/5 407/1/5
f 409/1/5 406/1/5 405/1/5
f 410/1/5 406/1/5 409/1/5
f 411/3/6 412/3/6 415/3/6
f 415/3/6 412/3/6 416/3/6
f 413/3/6 414/3/6 419/3/6
f 419/3/6 414/3/6 420/3/6
f 417/6/6 418/6/6 421/6/6
f 421/6/6 418/6/6 422/6/6
f 423/6/6 424/6/6 425/6/6
f 425/6/6 424/6/6 426/6/6
f 431/2/6 432/2/6 435/2/6
f 435/2/6 432/2/6 436/2/6
f 433/2/6 434/2/6 437/2/6
f 437/2/6 434/2/6 438/2/6
f 427/2/6 428/2/6 439/2/6
f 439/2/6 428/2/6 440/2/6
f 435/4/6 436/4/6 441/4/6
f 436/4/6 437/4/6 441/4/6
f 437/4/6 438/4/6 441/4/6
f 441/4/6 438/4/6 442/4/6
f 429/2/6 430/2/6 443/2/6
f 443/2/6 430/2/6 444/2/6
f 445/1/6 446/1/6 449/1/6
f 449/1/6 446/1/6 450/1/6
f 450/1/6 446/1/6 451/1/6
f 447/1/6 448/1/6 452/1/6
f 452/1/6 448/1/6 453/1/6
f 453/1/6 448/1/6 454/1/6
f 450/2/6 451/2/6 455/2/6
f 452/2/6 453/2/6 455/2/6
f 451/2/6 452/2/6 455/2/6
f 455/2/6 453/2/6 456/2/6
f 445/1/6 449/1/6 457/1/6
f 454/1/6 448/1/6 458/1/6
f 445/1/6 457/1/6 459/1/6
f 457/1/6 458/1/6 459/1/6
f 458/1/6 448/1/6 460/1/6
f 459/1/6 458/1/6 460/1/6
