# MagicaVoxel @ Ephtracy

# group
o 

# material
mtllib model-5.mtl
usemtl palette

# normals
vn 0 0 1
vn 0 0 -1
vn 1 0 0
vn -1 0 0
vn 0 -1 0
vn 0 1 0

# texcoords
vt 0.00195313 0.5
vt 0.0175781 0.5
vt 0.384766 0.5
vt 0.388672 0.5

# verts
v 0.3 1.4 -1.6
v -0.3 1.4 -1.6
v 0.3 1.9 -1.6
v 0.2 1.9 -1.6
v 0.3 2 -1.6
v 0.2 2 -1.6
v -0.3 2 -1.6
v 0.3 1.4 -2.4
v -0.3 1.4 -2.4
v 0.3 2 -2.4
v -0.3 2 -2.4
v 0.3 1.4 -1.6
v 0.3 1.9 -1.6
v 0.3 2 -1.6
v 0.3 1.9 -1.9
v 0.3 2 -1.9
v 0.3 1.4 -2.1
v 0.3 2 -2.1
v 0.3 1.5 -2.2
v 0.3 1.6 -2.2
v 0.3 1.8 -2.2
v 0.3 1.9 -2.2
v 0.3 1.5 -2.3
v 0.3 1.6 -2.3
v 0.3 1.8 -2.3
v 0.3 1.9 -2.3
v 0.3 1.4 -2.4
v 0.3 2 -2.4
v -0.3 1.4 -1.6
v -0.3 2 -1.6
v -0.3 1.4 -2.1
v -0.3 2 -2.1
v -0.3 1.5 -2.2
v -0.3 1.6 -2.2
v -0.3 1.8 -2.2
v -0.3 1.9 -2.2
v -0.3 1.5 -2.3
v -0.3 1.6 -2.3
v -0.3 1.8 -2.3
v -0.3 1.9 -2.3
v -0.3 1.4 -2.4
v -0.3 2 -2.4
v 0.3 1.4 -1.6
v 0.3 1.4 -2.1
v 0.3 1.4 -2.4
v 0.2 1.4 -2.2
v 0.2 1.4 -2.3
v 0.1 1.4 -2.2
v 0.1 1.4 -2.3
v -0.1 1.4 -2.2
v -0.1 1.4 -2.3
v -0.2 1.4 -2.2
v -0.2 1.4 -2.3
v -0.3 1.4 -1.6
v -0.3 1.4 -2.1
v -0.3 1.4 -2.4
v 0.3 2 -1.6
v 0.3 2 -1.9
v 0.3 2 -2.1
v 0.3 2 -2.4
v 0.2 2 -1.6
v 0.2 2 -1.9
v 0.2 2 -2.2
v 0.2 2 -2.3
v 0.1 2 -2.2
v 0.1 2 -2.3
v -0.1 2 -2.2
v -0.1 2 -2.3
v -0.2 2 -2.2
v -0.2 2 -2.3
v -0.3 2 -1.6
v -0.3 2 -2.1
v -0.3 2 -2.4

# faces
f 3/3/1 2/3/1 1/3/1
f 4/3/1 2/3/1 3/3/1
f 5/4/1 4/4/1 3/4/1
f 6/3/1 2/3/1 4/3/1
f 6/4/1 4/4/1 5/4/1
f 7/3/1 2/3/1 6/3/1
f 8/1/2 9/1/2 10/1/2
f 10/1/2 9/1/2 11/1/2
f 15/3/3 13/3/3 12/3/3
f 15/4/3 14/4/3 13/4/3
f 16/4/3 14/4/3 15/4/3
f 17/3/3 15/3/3 12/3/3
f 17/3/3 16/3/3 15/3/3
f 18/3/3 16/3/3 17/3/3
f 19/1/3 18/1/3 17/1/3
f 20/1/3 18/1/3 19/1/3
f 21/1/3 18/1/3 20/1/3
f 22/1/3 18/1/3 21/1/3
f 23/1/3 19/1/3 17/1/3
f 23/2/3 20/2/3 19/2/3
f 24/1/3 21/1/3 20/1/3
f 24/2/3 20/2/3 23/2/3
f 25/2/3 22/2/3 21/2/3
f 25/1/3 21/1/3 24/1/3
f 26/1/3 18/1/3 22/1/3
f 26/2/3 22/2/3 25/2/3
f 27/1/3 25/1/3 24/1/3
f 27/1/3 24/1/3 23/1/3
f 27/1/3 26/1/3 25/1/3
f 27/1/3 23/1/3 17/1/3
f 28/1/3 18/1/3 26/1/3
f 28/1/3 26/1/3 27/1/3
f 29/3/4 30/3/4 31/3/4
f 31/3/4 30/3/4 32/3/4
f 31/1/4 32/1/4 33/1/4
f 33/1/4 32/1/4 34/1/4
f 34/1/4 32/1/4 35/1/4
f 35/1/4 32/1/4 36/1/4
f 31/1/4 33/1/4 37/1/4
f 33/2/4 34/2/4 37/2/4
f 34/1/4 35/1/4 38/1/4
f 37/2/4 34/2/4 38/2/4
f 35/2/4 36/2/4 39/2/4
f 38/1/4 35/1/4 39/1/4
f 36/1/4 32/1/4 40/1/4
f 39/2/4 36/2/4 40/2/4
f 38/1/4 39/1/4 41/1/4
f 37/1/4 38/1/4 41/1/4
f 39/1/4 40/1/4 41/1/4
f 31/1/4 37/1/4 41/1/4
f 40/1/4 32/1/4 42/1/4
f 41/1/4 40/1/4 42/1/4
f 46/1/5 45/1/5 44/1/5
f 47/1/5 45/1/5 46/1/5
f 48/1/5 46/1/5 44/1/5
f 48/2/5 47/2/5 46/2/5
f 49/1/5 45/1/5 47/1/5
f 49/2/5 47/2/5 48/2/5
f 50/1/5 48/1/5 44/1/5
f 50/1/5 49/1/5 48/1/5
f 51/1/5 45/1/5 49/1/5
f 51/1/5 49/1/5 50/1/5
f 52/1/5 50/1/5 44/1/5
f 52/2/5 51/2/5 50/2/5
f 53/1/5 45/1/5 51/1/5
f 53/2/5 51/2/5 52/2/5
f 54/3/5 44/3/5 43/3/5
f 55/1/5 52/1/5 44/1/5
f 55/3/5 44/3/5 54/3/5
f 55/1/5 53/1/5 52/1/5
f 56/1/5 45/1/5 53/1/5
f 56/1/5 53/1/5 55/1/5
f 57/4/6 58/4/6 61/4/6
f 58/3/6 59/3/6 62/3/6
f 61/4/6 58/4/6 62/4/6
f 59/1/6 60/1/6 63/1/6
f 63/1/6 60/1/6 64/1/6
f 59/1/6 63/1/6 65/1/6
f 63/2/6 64/2/6 65/2/6
f 64/1/6 60/1/6 66/1/6
f 65/2/6 64/2/6 66/2/6
f 59/1/6 65/1/6 67/1/6
f 65/1/6 66/1/6 67/1/6
f 66/1/6 60/1/6 68/1/6
f 67/1/6 66/1/6 68/1/6
f 59/1/6 67/1/6 69/1/6
f 67/2/6 68/2/6 69/2/6
f 68/1/6 60/1/6 70/1/6
f 69/2/6 68/2/6 70/2/6
f 61/3/6 62/3/6 71/3/6
f 62/3/6 59/3/6 72/3/6
f 71/3/6 62/3/6 72/3/6
f 59/1/6 69/1/6 72/1/6
f 69/1/6 70/1/6 72/1/6
f 70/1/6 60/1/6 73/1/6
f 72/1/6 70/1/6 73/1/6
