# MagicaVoxel @ Ephtracy

# group
o 

# material
mtllib model-4.mtl
usemtl palette

# normals
vn 0 0 1
vn 0 0 -1
vn 1 0 0
vn -1 0 0
vn 0 -1 0
vn 0 1 0

# texcoords
vt 0.0449219 0.5
vt 0.0488281 0.5
vt 0.0527344 0.5
vt 0.0722656 0.5
vt 0.0957031 0.5
vt 0.416016 0.5

# verts
v 0.5 1.7 1.5
v 0.4 1.7 1.5
v -0.4 1.7 1.5
v -0.5 1.7 1.5
v 0.5 1.9 1.5
v 0.4 1.9 1.5
v -0.4 1.9 1.5
v -0.5 1.9 1.5
v 0.4 2.1 1.5
v -0.4 2.1 1.5
v 0.5 2.2 1.5
v -0.5 2.2 1.5
v 0.4 1.7 1.4
v -0.4 1.7 1.4
v 0.4 1.9 1.4
v -0.4 1.9 1.4
v 0.4 2.1 1.4
v -0.4 2.1 1.4
v 0.6 1.9 1.3
v 0.5 1.9 1.3
v -0.5 1.9 1.3
v -0.6 1.9 1.3
v 0.6 2 1.3
v 0.5 2 1.3
v -0.5 2 1.3
v -0.6 2 1.3
v 0.3 2.2 1.3
v 0.2 2.2 1.3
v -0.2 2.2 1.3
v -0.3 2.2 1.3
v 0.3 2.3 1.3
v 0.2 2.3 1.3
v -0.2 2.3 1.3
v -0.3 2.3 1.3
v 0.5 0.7 1.1
v -0.5 0.7 1.1
v 0.5 0.9 1.1
v -0.5 0.9 1.1
v 0.5 0.6 1
v 0.4 0.6 1
v -0.4 0.6 1
v -0.5 0.6 1
v 0.6 0.7 1
v 0.5 0.7 1
v 0.4 0.7 1
v -0.4 0.7 1
v -0.5 0.7 1
v -0.6 0.7 1
v 0.6 0.9 1
v 0.5 0.9 1
v 0.4 0.9 1
v -0.4 0.9 1
v -0.5 0.9 1
v -0.6 0.9 1
v 0.4 1.3 1
v -0.4 1.3 1
v 0.5 1.7 1
v -0.5 1.7 1
v 0.6 1.6 0.8
v 0.5 1.6 0.8
v -0.5 1.7 0.8
v -0.6 1.7 0.8
v 0.6 1.8 0.8
v 0.5 1.8 0.8
v -0.5 1.9 0.8
v -0.6 1.9 0.8
v 0.6 2.1 0.8
v 0.5 2.1 0.8
v -0.5 2.1 0.8
v -0.6 2.1 0.8
v 0.7 0.6 0.7
v 0.6 0.6 0.7
v 0.7 0.7 0.7
v 0.6 0.7 0.7
v 0.6 0.9 0.7
v 0.7 1 0.7
v 0.6 1 0.7
v 0.6 1.5 0.7
v 0.5 1.5 0.7
v 0.6 1.6 0.7
v 0.5 1.6 0.7
v 0.6 0.9 0.6
v 0.5 0.9 0.6
v 0.6 1 0.6
v 0.5 1.4 0.6
v 0.6 1.5 0.6
v 0.5 1.5 0.6
v 0.6 2.1 0.6
v 0.5 2.1 0.6
v -0.4 2.1 0.6
v 0.6 2.2 0.6
v -0.4 2.2 0.6
v 0.7 0.7 0.4
v 0.6 0.7 0.4
v 0.7 0.8 0.4
v 0.6 0.8 0.4
v 0.7 0.9 0.4
v 0.6 0.9 0.4
v -0.6 0.6 0.2
v -0.7 0.6 0.2
v -0.6 0.7 0.2
v -0.7 0.7 0.2
v -0.6 0.9 0.2
v -0.6 1 0.2
v -0.7 1 0.2
v -0.5 0.9 0.1
v -0.6 0.9 0.1
v -0.6 1 0.1
v -0.5 1.6 0.1
v -0.5 1.7 0.1
v -0.6 1.7 0.1
v -0.6 0.7 -0.1
v -0.7 0.7 -0.1
v -0.6 0.8 -0.1
v -0.7 0.8 -0.1
v -0.6 0.9 -0.1
v -0.7 0.9 -0.1
v 0.7 0.6 -0.3
v 0.6 0.6 -0.3
v 0.7 0.7 -0.3
v 0.6 0.7 -0.3
v 0.6 0.9 -0.3
v 0.7 1 -0.3
v 0.6 1 -0.3
v 0.6 0.9 -0.4
v 0.5 0.9 -0.4
v 0.6 1 -0.4
v 0.5 1.4 -0.4
v 0.6 1.5 -0.4
v 0.5 1.5 -0.4
v 0.7 0.7 -0.6
v 0.6 0.7 -0.6
v 0.7 0.8 -0.6
v 0.6 0.8 -0.6
v 0.7 0.9 -0.6
v 0.6 0.9 -0.6
v 0.5 2.1 -0.9
v -0.5 2.1 -0.9
v 0.5 2.2 -0.9
v -0.5 2.2 -0.9
v 0.6 1.9 -1.2
v 0.5 1.9 -1.2
v -0.5 1.9 -1.2
v -0.6 1.9 -1.2
v 0.6 2 -1.2
v 0.5 2 -1.2
v -0.5 2 -1.2
v -0.6 2 -1.2
v 0.3 2.2 -1.2
v 0.2 2.2 -1.2
v -0.2 2.2 -1.2
v -0.3 2.2 -1.2
v 0.3 2.3 -1.2
v 0.2 2.3 -1.2
v -0.2 2.3 -1.2
v -0.3 2.3 -1.2
v 0.6 1.9 1.2
v 0.5 1.9 1.2
v -0.5 1.9 1.2
v -0.6 1.9 1.2
v 0.6 2 1.2
v 0.5 2 1.2
v -0.5 2 1.2
v -0.6 2 1.2
v 0.3 2.2 1.2
v 0.2 2.2 1.2
v -0.2 2.2 1.2
v -0.3 2.2 1.2
v 0.3 2.3 1.2
v 0.2 2.3 1.2
v -0.2 2.3 1.2
v -0.3 2.3 1.2
v 0.5 2.1 0.9
v -0.5 2.1 0.9
v 0.5 2.2 0.9
v -0.5 2.2 0.9
v 0.7 0.7 0.6
v 0.6 0.7 0.6
v 0.7 0.9 0.6
v 0.6 0.9 0.6
v 0.6 0.9 0.4
v 0.5 0.9 0.4
v 0.6 1 0.4
v 0.5 1.4 0.4
v 0.6 1.5 0.4
v 0.5 1.5 0.4
v 0.7 0.6 0.3
v 0.6 0.6 0.3
v 0.6 0.7 0.3
v 0.7 0.8 0.3
v 0.6 0.8 0.3
v 0.6 0.9 0.3
v 0.7 1 0.3
v 0.6 1 0.3
v -0.6 0.7 0.1
v -0.7 0.7 0.1
v -0.6 0.9 0.1
v -0.7 0.9 0.1
v -0.5 0.9 -0.1
v -0.6 0.9 -0.1
v -0.6 1 -0.1
v -0.5 1.6 -0.1
v -0.5 1.7 -0.1
v -0.6 1.7 -0.1
v -0.6 0.6 -0.2
v -0.7 0.6 -0.2
v -0.6 0.7 -0.2
v -0.6 0.8 -0.2
v -0.7 0.8 -0.2
v -0.6 0.9 -0.2
v -0.6 1 -0.2
v -0.7 1 -0.2
v 0.7 0.7 -0.4
v 0.6 0.7 -0.4
v 0.7 0.9 -0.4
v 0.6 0.9 -0.4
v 0.6 0.9 -0.6
v 0.5 0.9 -0.6
v 0.6 1 -0.6
v 0.5 1.4 -0.6
v 0.6 1.5 -0.6
v 0.5 1.5 -0.6
v 0.6 2.1 -0.6
v 0.5 2.1 -0.6
v -0.4 2.1 -0.6
v 0.6 2.2 -0.6
v -0.4 2.2 -0.6
v 0.7 0.6 -0.7
v 0.6 0.6 -0.7
v 0.6 0.7 -0.7
v 0.7 0.8 -0.7
v 0.6 0.8 -0.7
v 0.6 0.9 -0.7
v 0.7 1 -0.7
v 0.6 1 -0.7
v 0.6 1.5 -0.7
v 0.5 1.5 -0.7
v 0.6 1.6 -0.7
v 0.5 1.6 -0.7
v 0.6 1.6 -0.8
v 0.5 1.6 -0.8
v -0.5 1.7 -0.8
v -0.6 1.7 -0.8
v 0.6 1.8 -0.8
v 0.5 1.8 -0.8
v -0.5 1.9 -0.8
v -0.6 1.9 -0.8
v 0.6 2.1 -0.8
v 0.5 2.1 -0.8
v -0.5 2.1 -0.8
v -0.6 2.1 -0.8
v 0.5 0.6 -1
v 0.4 0.6 -1
v -0.4 0.6 -1
v -0.5 0.6 -1
v 0.6 0.7 -1
v 0.5 0.7 -1
v 0.4 0.7 -1
v -0.4 0.7 -1
v -0.5 0.7 -1
v -0.6 0.7 -1
v 0.6 0.9 -1
v 0.5 0.9 -1
v 0.4 0.9 -1
v -0.4 0.9 -1
v -0.5 0.9 -1
v -0.6 0.9 -1
v 0.4 1.3 -1
v -0.4 1.3 -1
v 0.5 1.7 -1
v -0.5 1.7 -1
v 0.5 0.7 -1.1
v -0.5 0.7 -1.1
v 0.5 0.9 -1.1
v -0.5 0.9 -1.1
v 0.6 1.9 -1.3
v 0.5 1.9 -1.3
v -0.5 1.9 -1.3
v -0.6 1.9 -1.3
v 0.6 2 -1.3
v 0.5 2 -1.3
v -0.5 2 -1.3
v -0.6 2 -1.3
v 0.3 2.2 -1.3
v 0.2 2.2 -1.3
v -0.2 2.2 -1.3
v -0.3 2.2 -1.3
v 0.3 2.3 -1.3
v 0.2 2.3 -1.3
v -0.2 2.3 -1.3
v -0.3 2.3 -1.3
v 0.4 1.7 -1.4
v -0.4 1.7 -1.4
v 0.4 1.9 -1.4
v -0.4 1.9 -1.4
v 0.4 2.1 -1.4
v -0.4 2.1 -1.4
v 0.5 1.7 -1.5
v 0.4 1.7 -1.5
v -0.4 1.7 -1.5
v -0.5 1.7 -1.5
v 0.5 1.9 -1.5
v 0.4 1.9 -1.5
v -0.4 1.9 -1.5
v -0.5 1.9 -1.5
v 0.4 2.1 -1.5
v -0.4 2.1 -1.5
v 0.5 2.2 -1.5
v -0.5 2.2 -1.5
v 0.7 0.6 0.7
v 0.7 0.7 0.7
v 0.7 1 0.7
v 0.7 0.7 0.6
v 0.7 0.9 0.6
v 0.7 0.6 0.5
v 0.7 0.7 0.5
v 0.7 0.9 0.5
v 0.7 1 0.5
v 0.7 0.7 0.4
v 0.7 0.8 0.4
v 0.7 0.9 0.4
v 0.7 0.6 0.3
v 0.7 0.8 0.3
v 0.7 1 0.3
v 0.7 0.6 -0.3
v 0.7 0.7 -0.3
v 0.7 1 -0.3
v 0.7 0.7 -0.4
v 0.7 0.9 -0.4
v 0.7 0.6 -0.5
v 0.7 0.7 -0.5
v 0.7 0.9 -0.5
v 0.7 1 -0.5
v 0.7 0.7 -0.6
v 0.7 0.8 -0.6
v 0.7 0.9 -0.6
v 0.7 0.6 -0.7
v 0.7 0.8 -0.7
v 0.7 1 -0.7
v 0.6 1.9 1.3
v 0.6 2 1.3
v 0.6 1.9 1.2
v 0.6 2 1.2
v 0.6 0.7 1
v 0.6 0.9 1
v 0.6 1.6 0.8
v 0.6 1.8 0.8
v 0.6 2.1 0.8
v 0.6 0.7 0.7
v 0.6 0.9 0.7
v 0.6 1.5 0.7
v 0.6 1.6 0.7
v 0.6 1.8 0.7
v 0.6 2 0.7
v 0.6 0.7 0.6
v 0.6 0.9 0.6
v 0.6 1 0.6
v 0.6 1.5 0.6
v 0.6 1.6 0.6
v 0.6 1.7 0.6
v 0.6 2 0.6
v 0.6 2.1 0.6
v 0.6 2.2 0.6
v 0.6 0.7 0.5
v 0.6 0.9 0.5
v 0.6 1 0.5
v 0.6 1.6 0.5
v 0.6 1.7 0.5
v 0.6 0.7 0.4
v 0.6 0.8 0.4
v 0.6 0.9 0.4
v 0.6 1 0.4
v 0.6 1.5 0.4
v 0.6 0.7 0.3
v 0.6 0.8 0.3
v 0.6 0.9 0.3
v 0.6 0.7 -0.3
v 0.6 0.9 -0.3
v 0.6 0.7 -0.4
v 0.6 0.9 -0.4
v 0.6 1 -0.4
v 0.6 1.5 -0.4
v 0.6 0.7 -0.5
v 0.6 0.9 -0.5
v 0.6 1 -0.5
v 0.6 1.6 -0.5
v 0.6 1.7 -0.5
v 0.6 0.7 -0.6
v 0.6 0.8 -0.6
v 0.6 0.9 -0.6
v 0.6 1 -0.6
v 0.6 1.5 -0.6
v 0.6 1.6 -0.6
v 0.6 1.7 -0.6
v 0.6 2 -0.6
v 0.6 2.1 -0.6
v 0.6 2.2 -0.6
v 0.6 0.7 -0.7
v 0.6 0.8 -0.7
v 0.6 0.9 -0.7
v 0.6 1.5 -0.7
v 0.6 1.6 -0.7
v 0.6 1.8 -0.7
v 0.6 2 -0.7
v 0.6 1.6 -0.8
v 0.6 1.8 -0.8
v 0.6 2.1 -0.8
v 0.6 0.7 -1
v 0.6 0.9 -1
v 0.6 1.9 -1.2
v 0.6 2 -1.2
v 0.6 1.9 -1.3
v 0.6 2 -1.3
v 0.5 1.7 1.5
v 0.5 1.9 1.5
v 0.5 2.2 1.5
v 0.5 1.9 1.4
v 0.5 2.2 1.4
v 0.5 1.9 1.3
v 0.5 2 1.3
v 0.5 1.9 1.2
v 0.5 2 1.2
v 0.5 0.7 1.1
v 0.5 0.9 1.1
v 0.5 0.6 1
v 0.5 0.7 1
v 0.5 0.9 1
v 0.5 1.7 1
v 0.5 0.6 0.9
v 0.5 0.7 0.9
v 0.5 0.9 0.9
v 0.5 1.4 0.9
v 0.5 1.7 0.9
v 0.5 2.1 0.9
v 0.5 2.2 0.9
v 0.5 1.6 0.8
v 0.5 1.8 0.8
v 0.5 2.1 0.8
v 0.5 1.5 0.7
v 0.5 1.6 0.7
v 0.5 0.9 0.6
v 0.5 1.4 0.6
v 0.5 1.5 0.6
v 0.5 0.9 0.4
v 0.5 1.4 0.4
v 0.5 1.5 0.4
v 0.5 0.9 -0.4
v 0.5 1.4 -0.4
v 0.5 1.5 -0.4
v 0.5 0.9 -0.6
v 0.5 1.4 -0.6
v 0.5 1.5 -0.6
v 0.5 1.5 -0.7
v 0.5 1.6 -0.7
v 0.5 1.6 -0.8
v 0.5 1.8 -0.8
v 0.5 2.1 -0.8
v 0.5 0.6 -0.9
v 0.5 0.7 -0.9
v 0.5 0.9 -0.9
v 0.5 1.4 -0.9
v 0.5 1.7 -0.9
v 0.5 2.1 -0.9
v 0.5 2.2 -0.9
v 0.5 0.6 -1
v 0.5 0.7 -1
v 0.5 0.9 -1
v 0.5 1.7 -1
v 0.5 0.7 -1.1
v 0.5 0.9 -1.1
v 0.5 1.9 -1.2
v 0.5 2 -1.2
v 0.5 1.9 -1.3
v 0.5 2 -1.3
v 0.5 1.9 -1.4
v 0.5 2.2 -1.4
v 0.5 1.7 -1.5
v 0.5 1.9 -1.5
v 0.5 2.2 -1.5
v 0.3 2.2 1.3
v 0.3 2.3 1.3
v 0.3 2.2 1.2
v 0.3 2.3 1.2
v 0.3 2.2 -1.2
v 0.3 2.3 -1.2
v 0.3 2.2 -1.3
v 0.3 2.3 -1.3
v -0.2 2.2 1.3
v -0.2 2.3 1.3
v -0.2 2.2 1.2
v -0.2 2.3 1.2
v -0.2 2.2 -1.2
v -0.2 2.3 -1.2
v -0.2 2.2 -1.3
v -0.2 2.3 -1.3
v -0.4 1.7 1.5
v -0.4 1.9 1.5
v -0.4 2.1 1.5
v -0.4 1.7 1.4
v -0.4 1.9 1.4
v -0.4 2.1 1.4
v -0.4 1.7 -1.4
v -0.4 1.9 -1.4
v -0.4 2.1 -1.4
v -0.4 1.7 -1.5
v -0.4 1.9 -1.5
v -0.4 2.1 -1.5
v -0.6 0.6 0.2
v -0.6 0.7 0.2
v -0.6 0.9 0.2
v -0.6 1 0.2
v -0.6 0.9 0.1
v -0.6 1 0.1
v -0.6 0.6 0
v -0.6 0.7 0
v -0.6 0.9 -0.1
v -0.6 1 -0.1
v -0.6 0.6 -0.2
v -0.6 0.7 -0.2
v -0.6 0.9 -0.2
v -0.6 1 -0.2
v 0.6 0.6 0.7
v 0.6 0.7 0.7
v 0.6 0.9 0.7
v 0.6 1 0.7
v 0.6 0.9 0.6
v 0.6 1 0.6
v 0.6 0.6 0.5
v 0.6 0.7 0.5
v 0.6 0.9 0.4
v 0.6 1 0.4
v 0.6 0.6 0.3
v 0.6 0.7 0.3
v 0.6 0.9 0.3
v 0.6 1 0.3
v 0.6 0.6 -0.3
v 0.6 0.7 -0.3
v 0.6 0.9 -0.3
v 0.6 1 -0.3
v 0.6 0.9 -0.4
v 0.6 1 -0.4
v 0.6 0.6 -0.5
v 0.6 0.7 -0.5
v 0.6 0.9 -0.6
v 0.6 1 -0.6
v 0.6 0.6 -0.7
v 0.6 0.7 -0.7
v 0.6 0.9 -0.7
v 0.6 1 -0.7
v 0.4 1.7 1.5
v 0.4 1.9 1.5
v 0.4 2.1 1.5
v 0.4 1.7 1.4
v 0.4 1.9 1.4
v 0.4 2.1 1.4
v 0.4 1.7 -1.4
v 0.4 1.9 -1.4
v 0.4 2.1 -1.4
v 0.4 1.7 -1.5
v 0.4 1.9 -1.5
v 0.4 2.1 -1.5
v 0.2 2.2 1.3
v 0.2 2.3 1.3
v 0.2 2.2 1.2
v 0.2 2.3 1.2
v 0.2 2.2 -1.2
v 0.2 2.3 -1.2
v 0.2 2.2 -1.3
v 0.2 2.3 -1.3
v -0.3 2.2 1.3
v -0.3 2.3 1.3
v -0.3 2.2 1.2
v -0.3 2.3 1.2
v -0.3 2.2 -1.2
v -0.3 2.3 -1.2
v -0.3 2.2 -1.3
v -0.3 2.3 -1.3
v -0.4 2.1 0.6
v -0.4 2.2 0.6
v -0.4 2.1 -0.6
v -0.4 2.2 -0.6
v -0.5 1.7 1.5
v -0.5 1.9 1.5
v -0.5 2.2 1.5
v -0.5 1.9 1.4
v -0.5 2.2 1.4
v -0.5 1.9 1.3
v -0.5 2 1.3
v -0.5 1.9 1.2
v -0.5 2 1.2
v -0.5 0.7 1.1
v -0.5 0.9 1.1
v -0.5 0.6 1
v -0.5 0.7 1
v -0.5 0.9 1
v -0.5 1.7 1
v -0.5 0.6 0.9
v -0.5 0.7 0.9
v -0.5 0.9 0.9
v -0.5 1.6 0.9
v -0.5 1.7 0.9
v -0.5 2.1 0.9
v -0.5 2.2 0.9
v -0.5 1.7 0.8
v -0.5 1.9 0.8
v -0.5 2.1 0.8
v -0.5 0.9 0.1
v -0.5 1.6 0.1
v -0.5 1.7 0.1
v -0.5 0.9 -0.1
v -0.5 1.6 -0.1
v -0.5 1.7 -0.1
v -0.5 1.7 -0.8
v -0.5 1.9 -0.8
v -0.5 2.1 -0.8
v -0.5 0.6 -0.9
v -0.5 0.7 -0.9
v -0.5 0.9 -0.9
v -0.5 1.6 -0.9
v -0.5 1.7 -0.9
v -0.5 2.1 -0.9
v -0.5 2.2 -0.9
v -0.5 0.6 -1
v -0.5 0.7 -1
v -0.5 0.9 -1
v -0.5 1.7 -1
v -0.5 0.7 -1.1
v -0.5 0.9 -1.1
v -0.5 1.9 -1.2
v -0.5 2 -1.2
v -0.5 1.9 -1.3
v -0.5 2 -1.3
v -0.5 1.9 -1.4
v -0.5 2.2 -1.4
v -0.5 1.7 -1.5
v -0.5 1.9 -1.5
v -0.5 2.2 -1.5
v -0.6 1.9 1.3
v -0.6 2 1.3
v -0.6 1.9 1.2
v -0.6 2 1.2
v -0.6 0.7 1
v -0.6 0.9 1
v -0.6 1.7 0.8
v -0.6 1.9 0.8
v -0.6 2.1 0.8
v -0.6 1.8 0.7
v -0.6 1.9 0.7
v -0.6 2 0.7
v -0.6 1.8 0.6
v -0.6 1.9 0.6
v -0.6 0.7 0.2
v -0.6 0.9 0.2
v -0.6 0.7 0.1
v -0.6 0.9 0.1
v -0.6 1 0.1
v -0.6 1.7 0.1
v -0.6 0.7 0
v -0.6 0.9 0
v -0.6 1 0
v -0.6 0.7 -0.1
v -0.6 0.8 -0.1
v -0.6 0.9 -0.1
v -0.6 1 -0.1
v -0.6 1.7 -0.1
v -0.6 0.7 -0.2
v -0.6 0.8 -0.2
v -0.6 0.9 -0.2
v -0.6 1.8 -0.6
v -0.6 1.9 -0.6
v -0.6 1.8 -0.7
v -0.6 1.9 -0.7
v -0.6 2 -0.7
v -0.6 1.7 -0.8
v -0.6 1.9 -0.8
v -0.6 2.1 -0.8
v -0.6 0.7 -1
v -0.6 0.9 -1
v -0.6 1.9 -1.2
v -0.6 2 -1.2
v -0.6 1.9 -1.3
v -0.6 2 -1.3
v -0.7 0.6 0.2
v -0.7 0.7 0.2
v -0.7 1 0.2
v -0.7 0.7 0.1
v -0.7 0.9 0.1
v -0.7 0.6 0
v -0.7 0.7 0
v -0.7 0.9 0
v -0.7 1 0
v -0.7 0.7 -0.1
v -0.7 0.8 -0.1
v -0.7 0.9 -0.1
v -0.7 0.6 -0.2
v -0.7 0.8 -0.2
v -0.7 1 -0.2
v 0.7 0.6 0.7
v 0.7 0.6 0.5
v 0.7 0.6 0.3
v 0.7 0.6 -0.3
v 0.7 0.6 -0.5
v 0.7 0.6 -0.7
v 0.6 0.6 0.7
v 0.6 0.6 0.5
v 0.6 0.6 0.3
v 0.6 0.6 -0.3
v 0.6 0.6 -0.5
v 0.6 0.6 -0.7
v 0.5 0.6 1
v 0.5 0.6 0.9
v 0.5 0.6 -0.9
v 0.5 0.6 -1
v 0.4 0.6 1
v 0.4 0.6 0.9
v 0.4 0.6 -0.9
v 0.4 0.6 -1
v -0.4 0.6 1
v -0.4 0.6 0.9
v -0.4 0.6 -0.9
v -0.4 0.6 -1
v -0.5 0.6 1
v -0.5 0.6 0.9
v -0.5 0.6 -0.9
v -0.5 0.6 -1
v -0.6 0.6 0.2
v -0.6 0.6 0
v -0.6 0.6 -0.2
v -0.7 0.6 0.2
v -0.7 0.6 0
v -0.7 0.6 -0.2
v 0.6 0.7 1
v 0.6 0.7 0.7
v 0.6 0.7 0.5
v 0.6 0.7 0.3
v 0.6 0.7 -0.3
v 0.6 0.7 -0.5
v 0.6 0.7 -0.7
v 0.6 0.7 -1
v 0.5 0.7 1.1
v 0.5 0.7 1
v 0.5 0.7 0.9
v 0.5 0.7 -0.9
v 0.5 0.7 -1
v 0.5 0.7 -1.1
v 0.4 0.7 1
v 0.4 0.7 -1
v -0.4 0.7 1
v -0.4 0.7 -1
v -0.5 0.7 1.1
v -0.5 0.7 1
v -0.5 0.7 0.9
v -0.5 0.7 -0.9
v -0.5 0.7 -1
v -0.5 0.7 -1.1
v -0.6 0.7 1
v -0.6 0.7 0.2
v -0.6 0.7 0
v -0.6 0.7 -0.2
v -0.6 0.7 -1
v 0.7 0.9 0.6
v 0.7 0.9 0.5
v 0.7 0.9 0.4
v 0.7 0.9 -0.4
v 0.7 0.9 -0.5
v 0.7 0.9 -0.6
v 0.6 0.9 0.6
v 0.6 0.9 0.5
v 0.6 0.9 0.4
v 0.6 0.9 -0.4
v 0.6 0.9 -0.5
v 0.6 0.9 -0.6
v -0.6 0.9 0.1
v -0.6 0.9 0
v -0.6 0.9 -0.1
v -0.7 0.9 0.1
v -0.7 0.9 0
v -0.7 0.9 -0.1
v 0.6 1.5 0.7
v 0.6 1.5 0.6
v 0.6 1.5 0.4
v 0.6 1.5 -0.4
v 0.6 1.5 -0.6
v 0.6 1.5 -0.7
v 0.5 1.5 0.7
v 0.5 1.5 0.6
v 0.5 1.5 0.4
v 0.5 1.5 -0.4
v 0.5 1.5 -0.6
v 0.5 1.5 -0.7
v 0.6 1.6 0.8
v 0.6 1.6 0.7
v 0.6 1.6 -0.7
v 0.6 1.6 -0.8
v 0.5 1.6 0.8
v 0.5 1.6 0.7
v 0.5 1.6 -0.7
v 0.5 1.6 -0.8
v 0.5 1.7 1.5
v 0.5 1.7 1
v 0.5 1.7 -1
v 0.5 1.7 -1.5
v 0.4 1.7 1.5
v 0.4 1.7 1.4
v 0.4 1.7 -1.4
v 0.4 1.7 -1.5
v -0.4 1.7 1.5
v -0.4 1.7 1.4
v -0.4 1.7 -1.4
v -0.4 1.7 -1.5
v -0.5 1.7 1.5
v -0.5 1.7 1
v -0.5 1.7 0.8
v -0.5 1.7 0.1
v -0.5 1.7 -0.1
v -0.5 1.7 -0.8
v -0.5 1.7 -1
v -0.5 1.7 -1.5
v -0.6 1.7 0.8
v -0.6 1.7 0.1
v -0.6 1.7 -0.1
v -0.6 1.7 -0.8
v 0.6 1.9 1.3
v 0.6 1.9 1.2
v 0.6 1.9 -1.2
v 0.6 1.9 -1.3
v 0.5 1.9 1.3
v 0.5 1.9 1.2
v 0.5 1.9 -1.2
v 0.5 1.9 -1.3
v -0.5 1.9 1.3
v -0.5 1.9 1.2
v -0.5 1.9 -1.2
v -0.5 1.9 -1.3
v -0.6 1.9 1.3
v -0.6 1.9 1.2
v -0.6 1.9 -1.2
v -0.6 1.9 -1.3
v 0.4 2.1 1.5
v 0.4 2.1 1.4
v 0.4 2.1 -1.4
v 0.4 2.1 -1.5
v -0.4 2.1 1.5
v -0.4 2.1 1.4
v -0.4 2.1 -1.4
v -0.4 2.1 -1.5
v 0.7 0.7 0.6
v 0.7 0.7 0.5
v 0.7 0.7 0.4
v 0.7 0.7 -0.4
v 0.7 0.7 -0.5
v 0.7 0.7 -0.6
v 0.6 0.7 0.6
v 0.6 0.7 0.5
v 0.6 0.7 0.4
v 0.6 0.7 -0.4
v 0.6 0.7 -0.5
v 0.6 0.7 -0.6
v -0.6 0.7 0.1
v -0.6 0.7 0
v -0.6 0.7 -0.1
v -0.7 0.7 0.1
v -0.7 0.7 0
v -0.7 0.7 -0.1
v 0.6 0.9 1
v 0.6 0.9 0.7
v 0.6 0.9 0.6
v 0.6 0.9 0.4
v 0.6 0.9 0.3
v 0.6 0.9 -0.3
v 0.6 0.9 -0.4
v 0.6 0.9 -0.6
v 0.6 0.9 -0.7
v 0.6 0.9 -1
v 0.5 0.9 1.1
v 0.5 0.9 1
v 0.5 0.9 0.9
v 0.5 0.9 0.6
v 0.5 0.9 0.4
v 0.5 0.9 -0.4
v 0.5 0.9 -0.6
v 0.5 0.9 -0.9
v 0.5 0.9 -1
v 0.5 0.9 -1.1
v 0.4 0.9 1
v 0.4 0.9 -1
v -0.4 0.9 1
v -0.4 0.9 -1
v -0.5 0.9 1.1
v -0.5 0.9 1
v -0.5 0.9 0.9
v -0.5 0.9 0.1
v -0.5 0.9 -0.1
v -0.5 0.9 -0.9
v -0.5 0.9 -1
v -0.5 0.9 -1.1
v -0.6 0.9 1
v -0.6 0.9 0.2
v -0.6 0.9 0.1
v -0.6 0.9 -0.1
v -0.6 0.9 -0.2
v -0.6 0.9 -1
v 0.7 1 0.7
v 0.7 1 0.5
v 0.7 1 0.3
v 0.7 1 -0.3
v 0.7 1 -0.5
v 0.7 1 -0.7
v 0.6 1 0.7
v 0.6 1 0.6
v 0.6 1 0.5
v 0.6 1 0.4
v 0.6 1 0.3
v 0.6 1 -0.3
v 0.6 1 -0.4
v 0.6 1 -0.5
v 0.6 1 -0.6
v 0.6 1 -0.7
v -0.6 1 0.2
v -0.6 1 0.1
v -0.6 1 0
v -0.6 1 -0.1
v -0.6 1 -0.2
v -0.7 1 0.2
v -0.7 1 0
v -0.7 1 -0.2
v 0.6 2 1.3
v 0.6 2 1.2
v 0.6 2 -1.2
v 0.6 2 -1.3
v 0.5 2 1.3
v 0.5 2 1.2
v 0.5 2 -1.2
v 0.5 2 -1.3
v -0.5 2 1.3
v -0.5 2 1.2
v -0.5 2 -1.2
v -0.5 2 -1.3
v -0.6 2 1.3
v -0.6 2 1.2
v -0.6 2 -1.2
v -0.6 2 -1.3
v 0.6 2.1 0.8
v 0.6 2.1 0.6
v 0.6 2.1 -0.6
v 0.6 2.1 -0.8
v 0.5 2.1 0.9
v 0.5 2.1 0.8
v 0.5 2.1 0.6
v 0.5 2.1 -0.6
v 0.5 2.1 -0.8
v 0.5 2.1 -0.9
v -0.4 2.1 0.6
v -0.4 2.1 -0.6
v -0.5 2.1 0.9
v -0.5 2.1 0.8
v -0.5 2.1 -0.8
v -0.5 2.1 -0.9
v -0.6 2.1 0.8
v -0.6 2.1 -0.8
v 0.6 2.2 0.6
v 0.6 2.2 -0.6
v 0.5 2.2 1.5
v 0.5 2.2 1.4
v 0.5 2.2 0.9
v 0.5 2.2 -0.9
v 0.5 2.2 -1.4
v 0.5 2.2 -1.5
v 0.3 2.2 1.3
v 0.3 2.2 1.2
v 0.3 2.2 -1.2
v 0.3 2.2 -1.3
v 0.2 2.2 1.3
v 0.2 2.2 1.2
v 0.2 2.2 -1.2
v 0.2 2.2 -1.3
v -0.2 2.2 1.3
v -0.2 2.2 1.2
v -0.2 2.2 -1.2
v -0.2 2.2 -1.3
v -0.3 2.2 1.3
v -0.3 2.2 1.2
v -0.3 2.2 -1.2
v -0.3 2.2 -1.3
v -0.4 2.2 0.6
v -0.4 2.2 -0.6
v -0.5 2.2 1.5
v -0.5 2.2 1.4
v -0.5 2.2 0.9
v -0.5 2.2 -0.9
v -0.5 2.2 -1.4
v -0.5 2.2 -1.5
v 0.3 2.3 1.3
v 0.3 2.3 1.2
v 0.3 2.3 -1.2
v 0.3 2.3 -1.3
v 0.2 2.3 1.3
v 0.2 2.3 1.2
v 0.2 2.3 -1.2
v 0.2 2.3 -1.3
v -0.2 2.3 1.3
v -0.2 2.3 1.2
v -0.2 2.3 -1.2
v -0.2 2.3 -1.3
v -0.3 2.3 1.3
v -0.3 2.3 1.2
v -0.3 2.3 -1.2
v -0.3 2.3 -1.3

# faces
f 5/2/1 2/2/1 1/2/1
f 6/2/1 2/2/1 5/2/1
f 7/2/1 4/2/1 3/2/1
f 8/2/1 4/2/1 7/2/1
f 9/3/1 6/3/1 5/3/1
f 10/3/1 8/3/1 7/3/1
f 11/3/1 9/3/1 5/3/1
f 11/3/1 10/3/1 9/3/1
f 12/3/1 8/3/1 10/3/1
f 12/3/1 10/3/1 11/3/1
f 15/2/1 14/2/1 13/2/1
f 16/2/1 14/2/1 15/2/1
f 17/2/1 16/2/1 15/2/1
f 18/2/1 16/2/1 17/2/1
f 23/1/1 20/1/1 19/1/1
f 24/1/1 20/1/1 23/1/1
f 25/1/1 22/1/1 21/1/1
f 26/1/1 22/1/1 25/1/1
f 31/1/1 28/1/1 27/1/1
f 32/1/1 28/1/1 31/1/1
f 33/1/1 30/1/1 29/1/1
f 34/1/1 30/1/1 33/1/1
f 37/5/1 36/5/1 35/5/1
f 38/5/1 36/5/1 37/5/1
f 44/4/1 40/4/1 39/4/1
f 45/6/1 41/6/1 40/6/1
f 45/4/1 40/4/1 44/4/1
f 46/4/1 42/4/1 41/4/1
f 46/6/1 41/6/1 45/6/1
f 47/4/1 42/4/1 46/4/1
f 49/5/1 44/5/1 43/5/1
f 50/5/1 44/5/1 49/5/1
f 53/5/1 48/5/1 47/5/1
f 54/5/1 48/5/1 53/5/1
f 55/6/1 52/6/1 51/6/1
f 55/4/1 51/4/1 50/4/1
f 56/4/1 53/4/1 52/4/1
f 56/6/1 52/6/1 55/6/1
f 57/4/1 55/4/1 50/4/1
f 57/4/1 56/4/1 55/4/1
f 58/4/1 53/4/1 56/4/1
f 58/4/1 56/4/1 57/4/1
f 63/2/1 60/2/1 59/2/1
f 64/2/1 60/2/1 63/2/1
f 65/2/1 62/2/1 61/2/1
f 66/2/1 62/2/1 65/2/1
f 67/3/1 64/3/1 63/3/1
f 68/3/1 64/3/1 67/3/1
f 69/3/1 66/3/1 65/3/1
f 70/3/1 66/3/1 69/3/1
f 73/1/1 72/1/1 71/1/1
f 74/1/1 72/1/1 73/1/1
f 75/2/1 74/2/1 73/2/1
f 76/2/1 75/2/1 73/2/1
f 77/2/1 75/2/1 76/2/1
f 80/2/1 79/2/1 78/2/1
f 81/2/1 79/2/1 80/2/1
f 84/5/1 83/5/1 82/5/1
f 85/5/1 83/5/1 84/5/1
f 86/5/1 85/5/1 84/5/1
f 87/5/1 85/5/1 86/5/1
f 91/2/1 89/2/1 88/2/1
f 91/2/1 90/2/1 89/2/1
f 92/2/1 90/2/1 91/2/1
f 95/2/1 94/2/1 93/2/1
f 96/2/1 94/2/1 95/2/1
f 97/3/1 96/3/1 95/3/1
f 98/3/1 96/3/1 97/3/1
f 101/1/1 100/1/1 99/1/1
f 102/1/1 100/1/1 101/1/1
f 103/2/1 102/2/1 101/2/1
f 104/2/1 102/2/1 103/2/1
f 105/2/1 102/2/1 104/2/1
f 108/5/1 107/5/1 106/5/1
f 109/5/1 108/5/1 106/5/1
f 110/5/1 108/5/1 109/5/1
f 111/5/1 108/5/1 110/5/1
f 114/2/1 113/2/1 112/2/1
f 115/2/1 113/2/1 114/2/1
f 116/3/1 115/3/1 114/3/1
f 117/3/1 115/3/1 116/3/1
f 120/1/1 119/1/1 118/1/1
f 121/1/1 119/1/1 120/1/1
f 122/2/1 121/2/1 120/2/1
f 123/2/1 122/2/1 120/2/1
f 124/2/1 122/2/1 123/2/1
f 127/5/1 126/5/1 125/5/1
f 128/5/1 126/5/1 127/5/1
f 129/5/1 128/5/1 127/5/1
f 130/5/1 128/5/1 129/5/1
f 133/2/1 132/2/1 131/2/1
f 134/2/1 132/2/1 133/2/1
f 135/3/1 134/3/1 133/3/1
f 136/3/1 134/3/1 135/3/1
f 139/2/1 138/2/1 137/2/1
f 140/2/1 138/2/1 139/2/1
f 145/1/1 142/1/1 141/1/1
f 146/1/1 142/1/1 145/1/1
f 147/1/1 144/1/1 143/1/1
f 148/1/1 144/1/1 147/1/1
f 153/1/1 150/1/1 149/1/1
f 154/1/1 150/1/1 153/1/1
f 155/1/1 152/1/1 151/1/1
f 156/1/1 152/1/1 155/1/1
f 157/1/2 158/1/2 161/1/2
f 161/1/2 158/1/2 162/1/2
f 159/1/2 160/1/2 163/1/2
f 163/1/2 160/1/2 164/1/2
f 165/1/2 166/1/2 169/1/2
f 169/1/2 166/1/2 170/1/2
f 167/1/2 168/1/2 171/1/2
f 171/1/2 168/1/2 172/1/2
f 173/2/2 174/2/2 175/2/2
f 175/2/2 174/2/2 176/2/2
f 177/2/2 178/2/2 179/2/2
f 179/2/2 178/2/2 180/2/2
f 181/5/2 182/5/2 183/5/2
f 183/5/2 182/5/2 184/5/2
f 183/5/2 184/5/2 185/5/2
f 185/5/2 184/5/2 186/5/2
f 187/2/2 188/2/2 189/2/2
f 187/2/2 189/2/2 190/2/2
f 190/2/2 189/2/2 191/2/2
f 190/3/2 191/3/2 192/3/2
f 190/3/2 192/3/2 193/3/2
f 193/3/2 192/3/2 194/3/2
f 195/2/2 196/2/2 197/2/2
f 197/2/2 196/2/2 198/2/2
f 199/5/2 200/5/2 201/5/2
f 199/5/2 201/5/2 202/5/2
f 202/5/2 201/5/2 203/5/2
f 203/5/2 201/5/2 204/5/2
f 205/2/2 206/2/2 207/2/2
f 207/2/2 206/2/2 208/2/2
f 208/2/2 206/2/2 209/2/2
f 208/3/2 209/3/2 210/3/2
f 210/3/2 209/3/2 211/3/2
f 211/3/2 209/3/2 212/3/2
f 213/2/2 214/2/2 215/2/2
f 215/2/2 214/2/2 216/2/2
f 217/5/2 218/5/2 219/5/2
f 219/5/2 218/5/2 220/5/2
f 219/5/2 220/5/2 221/5/2
f 221/5/2 220/5/2 222/5/2
f 223/2/2 224/2/2 226/2/2
f 224/2/2 225/2/2 226/2/2
f 226/2/2 225/2/2 227/2/2
f 228/2/2 229/2/2 230/2/2
f 228/2/2 230/2/2 231/2/2
f 231/2/2 230/2/2 232/2/2
f 231/3/2 232/3/2 233/3/2
f 231/3/2 233/3/2 234/3/2
f 234/3/2 233/3/2 235/3/2
f 236/2/2 237/2/2 238/2/2
f 238/2/2 237/2/2 239/2/2
f 240/2/2 241/2/2 244/2/2
f 244/2/2 241/2/2 245/2/2
f 242/2/2 243/2/2 246/2/2
f 246/2/2 243/2/2 247/2/2
f 244/3/2 245/3/2 248/3/2
f 248/3/2 245/3/2 249/3/2
f 246/3/2 247/3/2 250/3/2
f 250/3/2 247/3/2 251/3/2
f 252/4/2 253/4/2 257/4/2
f 253/6/2 254/6/2 258/6/2
f 257/4/2 253/4/2 258/4/2
f 254/4/2 255/4/2 259/4/2
f 258/6/2 254/6/2 259/6/2
f 259/4/2 255/4/2 260/4/2
f 256/5/2 257/5/2 262/5/2
f 262/5/2 257/5/2 263/5/2
f 260/5/2 261/5/2 266/5/2
f 266/5/2 261/5/2 267/5/2
f 264/6/2 265/6/2 268/6/2
f 263/4/2 264/4/2 268/4/2
f 265/4/2 266/4/2 269/4/2
f 268/6/2 265/6/2 269/6/2
f 263/4/2 268/4/2 270/4/2
f 268/4/2 269/4/2 270/4/2
f 269/4/2 266/4/2 271/4/2
f 270/4/2 269/4/2 271/4/2
f 272/5/2 273/5/2 274/5/2
f 274/5/2 273/5/2 275/5/2
f 276/1/2 277/1/2 280/1/2
f 280/1/2 277/1/2 281/1/2
f 278/1/2 279/1/2 282/1/2
f 282/1/2 279/1/2 283/1/2
f 284/1/2 285/1/2 288/1/2
f 288/1/2 285/1/2 289/1/2
f 286/1/2 287/1/2 290/1/2
f 290/1/2 287/1/2 291/1/2
f 292/2/2 293/2/2 294/2/2
f 294/2/2 293/2/2 295/2/2
f 294/2/2 295/2/2 296/2/2
f 296/2/2 295/2/2 297/2/2
f 298/2/2 299/2/2 302/2/2
f 302/2/2 299/2/2 303/2/2
f 300/2/2 301/2/2 304/2/2
f 304/2/2 301/2/2 305/2/2
f 302/3/2 303/3/2 306/3/2
f 304/3/2 305/3/2 307/3/2
f 302/3/2 306/3/2 308/3/2
f 306/3/2 307/3/2 308/3/2
f 307/3/2 305/3/2 309/3/2
f 308/3/2 307/3/2 309/3/2
f 313/1/3 311/1/3 310/1/3
f 313/2/3 312/2/3 311/2/3
f 314/2/3 312/2/3 313/2/3
f 315/1/3 313/1/3 310/1/3
f 316/1/3 313/1/3 315/1/3
f 317/2/3 312/2/3 314/2/3
f 318/2/3 312/2/3 317/2/3
f 319/2/3 316/2/3 315/2/3
f 321/3/3 318/3/3 317/3/3
f 322/2/3 320/2/3 319/2/3
f 322/2/3 319/2/3 315/2/3
f 323/3/3 321/3/3 320/3/3
f 323/2/3 320/2/3 322/2/3
f 324/3/3 318/3/3 321/3/3
f 324/3/3 321/3/3 323/3/3
f 328/1/3 326/1/3 325/1/3
f 328/2/3 327/2/3 326/2/3
f 329/2/3 327/2/3 328/2/3
f 330/1/3 328/1/3 325/1/3
f 331/1/3 328/1/3 330/1/3
f 332/2/3 327/2/3 329/2/3
f 333/2/3 327/2/3 332/2/3
f 334/2/3 331/2/3 330/2/3
f 336/3/3 333/3/3 332/3/3
f 337/2/3 335/2/3 334/2/3
f 337/2/3 334/2/3 330/2/3
f 338/3/3 336/3/3 335/3/3
f 338/2/3 335/2/3 337/2/3
f 339/3/3 333/3/3 336/3/3
f 339/3/3 336/3/3 338/3/3
f 342/1/3 341/1/3 340/1/3
f 343/1/3 341/1/3 342/1/3
f 349/5/3 345/5/3 344/5/3
f 350/5/3 345/5/3 349/5/3
f 352/2/3 347/2/3 346/2/3
f 353/3/3 348/3/3 347/3/3
f 353/2/3 347/2/3 352/2/3
f 354/3/3 348/3/3 353/3/3
f 358/2/3 352/2/3 351/2/3
f 358/2/3 353/2/3 352/2/3
f 358/2/3 354/2/3 353/2/3
f 359/2/3 354/2/3 358/2/3
f 360/2/3 354/2/3 359/2/3
f 361/3/3 348/3/3 354/3/3
f 361/2/3 354/2/3 360/2/3
f 362/3/3 348/3/3 361/3/3
f 364/5/3 356/5/3 355/5/3
f 365/5/3 356/5/3 364/5/3
f 366/5/3 358/5/3 357/5/3
f 367/1/3 360/1/3 359/1/3
f 367/2/3 359/2/3 358/2/3
f 368/2/3 363/2/3 362/2/3
f 368/1/3 360/1/3 367/1/3
f 368/2/3 361/2/3 360/2/3
f 368/2/3 362/2/3 361/2/3
f 369/5/3 365/5/3 364/5/3
f 370/5/3 365/5/3 369/5/3
f 371/5/3 365/5/3 370/5/3
f 372/5/3 358/5/3 366/5/3
f 373/2/3 367/2/3 358/2/3
f 373/5/3 358/5/3 372/5/3
f 373/2/3 368/2/3 367/2/3
f 377/5/3 375/5/3 374/5/3
f 377/5/3 376/5/3 375/5/3
f 378/5/3 376/5/3 377/5/3
f 382/2/3 368/2/3 373/2/3
f 383/5/3 380/5/3 379/5/3
f 384/5/3 380/5/3 383/5/3
f 385/5/3 382/5/3 381/5/3
f 386/2/3 368/2/3 382/2/3
f 387/2/3 363/2/3 368/2/3
f 387/2/3 368/2/3 386/2/3
f 388/5/3 384/5/3 383/5/3
f 389/5/3 384/5/3 388/5/3
f 390/5/3 384/5/3 389/5/3
f 391/5/3 382/5/3 385/5/3
f 392/2/3 386/2/3 382/2/3
f 392/5/3 382/5/3 391/5/3
f 393/1/3 387/1/3 386/1/3
f 393/2/3 386/2/3 392/2/3
f 394/2/3 363/2/3 387/2/3
f 394/1/3 387/1/3 393/1/3
f 395/2/3 363/2/3 394/2/3
f 396/2/3 363/2/3 395/2/3
f 397/2/3 363/2/3 396/2/3
f 401/2/3 393/2/3 392/2/3
f 401/2/3 395/2/3 394/2/3
f 401/2/3 394/2/3 393/2/3
f 402/2/3 395/2/3 401/2/3
f 403/2/3 395/2/3 402/2/3
f 404/3/3 396/3/3 395/3/3
f 404/2/3 395/2/3 403/2/3
f 405/2/3 403/2/3 402/2/3
f 406/3/3 404/3/3 403/3/3
f 406/2/3 403/2/3 405/2/3
f 407/3/3 396/3/3 404/3/3
f 407/3/3 404/3/3 406/3/3
f 408/5/3 400/5/3 399/5/3
f 408/5/3 399/5/3 398/5/3
f 409/5/3 400/5/3 408/5/3
f 412/1/3 411/1/3 410/1/3
f 413/1/3 411/1/3 412/1/3
f 417/2/3 415/2/3 414/2/3
f 417/3/3 416/3/3 415/3/3
f 418/3/3 416/3/3 417/3/3
f 419/2/3 417/2/3 414/2/3
f 419/2/3 418/2/3 417/2/3
f 420/2/3 418/2/3 419/2/3
f 421/2/3 419/2/3 414/2/3
f 422/2/3 418/2/3 420/2/3
f 426/5/3 424/5/3 423/5/3
f 427/5/3 424/5/3 426/5/3
f 428/2/3 421/2/3 414/2/3
f 428/2/3 422/2/3 421/2/3
f 429/4/3 426/4/3 425/4/3
f 430/4/3 426/4/3 429/4/3
f 431/4/3 428/4/3 427/4/3
f 432/4/3 428/4/3 431/4/3
f 433/2/3 422/2/3 428/2/3
f 433/4/3 428/4/3 432/4/3
f 434/2/3 418/2/3 422/2/3
f 434/2/3 422/2/3 433/2/3
f 435/2/3 418/2/3 434/2/3
f 436/4/3 433/4/3 432/4/3
f 436/4/3 434/4/3 433/4/3
f 437/4/3 434/4/3 436/4/3
f 438/4/3 434/4/3 437/4/3
f 439/4/3 436/4/3 432/4/3
f 440/4/3 436/4/3 439/4/3
f 441/6/3 432/6/3 431/6/3
f 442/4/3 439/4/3 432/4/3
f 442/6/3 432/6/3 441/6/3
f 443/4/3 439/4/3 442/4/3
f 447/6/3 445/6/3 444/6/3
f 448/4/3 446/4/3 445/4/3
f 448/6/3 445/6/3 447/6/3
f 449/4/3 446/4/3 448/4/3
f 453/4/3 452/4/3 451/4/3
f 455/4/3 454/4/3 453/4/3
f 458/6/3 430/6/3 429/6/3
f 459/6/3 430/6/3 458/6/3
f 460/6/3 451/6/3 450/6/3
f 461/4/3 457/4/3 456/4/3
f 461/6/3 451/6/3 460/6/3
f 461/4/3 455/4/3 453/4/3
f 461/4/3 453/4/3 451/4/3
f 461/4/3 456/4/3 455/4/3
f 462/4/3 457/4/3 461/4/3
f 463/4/3 457/4/3 462/4/3
f 465/4/3 459/4/3 458/4/3
f 466/4/3 459/4/3 465/4/3
f 467/4/3 461/4/3 460/4/3
f 467/4/3 462/4/3 461/4/3
f 468/2/3 463/2/3 462/2/3
f 468/2/3 464/2/3 463/2/3
f 468/4/3 462/4/3 467/4/3
f 469/5/3 467/5/3 466/5/3
f 470/5/3 467/5/3 469/5/3
f 471/2/3 464/2/3 468/2/3
f 472/2/3 464/2/3 471/2/3
f 473/2/3 471/2/3 468/2/3
f 474/2/3 464/2/3 472/2/3
f 475/2/3 473/2/3 468/2/3
f 475/2/3 474/2/3 473/2/3
f 476/2/3 464/2/3 474/2/3
f 476/2/3 474/2/3 475/2/3
f 477/2/3 475/2/3 468/2/3
f 478/3/3 476/3/3 475/3/3
f 478/2/3 475/2/3 477/2/3
f 479/3/3 476/3/3 478/3/3
f 482/1/3 481/1/3 480/1/3
f 483/1/3 481/1/3 482/1/3
f 486/1/3 485/1/3 484/1/3
f 487/1/3 485/1/3 486/1/3
f 490/1/3 489/1/3 488/1/3
f 491/1/3 489/1/3 490/1/3
f 494/1/3 493/1/3 492/1/3
f 495/1/3 493/1/3 494/1/3
f 499/2/3 497/2/3 496/2/3
f 500/3/3 498/3/3 497/3/3
f 500/2/3 497/2/3 499/2/3
f 501/3/3 498/3/3 500/3/3
f 505/2/3 503/2/3 502/2/3
f 506/3/3 504/3/3 503/3/3
f 506/2/3 503/2/3 505/2/3
f 507/3/3 504/3/3 506/3/3
f 512/2/3 511/2/3 510/2/3
f 513/2/3 511/2/3 512/2/3
f 514/1/3 509/1/3 508/1/3
f 515/1/3 509/1/3 514/1/3
f 518/2/3 515/2/3 514/2/3
f 519/2/3 515/2/3 518/2/3
f 520/3/3 517/3/3 516/3/3
f 521/3/3 517/3/3 520/3/3
f 524/2/4 525/2/4 526/2/4
f 526/2/4 525/2/4 527/2/4
f 522/1/4 523/1/4 528/1/4
f 528/1/4 523/1/4 529/1/4
f 528/2/4 529/2/4 532/2/4
f 532/2/4 529/2/4 533/2/4
f 530/3/4 531/3/4 534/3/4
f 534/3/4 531/3/4 535/3/4
f 538/2/4 539/2/4 540/2/4
f 540/2/4 539/2/4 541/2/4
f 536/1/4 537/1/4 542/1/4
f 542/1/4 537/1/4 543/1/4
f 542/2/4 543/2/4 546/2/4
f 546/2/4 543/2/4 547/2/4
f 544/3/4 545/3/4 548/3/4
f 548/3/4 545/3/4 549/3/4
f 550/2/4 551/2/4 553/2/4
f 551/3/4 552/3/4 554/3/4
f 553/2/4 551/2/4 554/2/4
f 554/3/4 552/3/4 555/3/4
f 556/2/4 557/2/4 559/2/4
f 557/3/4 558/3/4 560/3/4
f 559/2/4 557/2/4 560/2/4
f 560/3/4 558/3/4 561/3/4
f 562/1/4 563/1/4 564/1/4
f 564/1/4 563/1/4 565/1/4
f 566/1/4 567/1/4 568/1/4
f 568/1/4 567/1/4 569/1/4
f 570/1/4 571/1/4 572/1/4
f 572/1/4 571/1/4 573/1/4
f 574/1/4 575/1/4 576/1/4
f 576/1/4 575/1/4 577/1/4
f 578/2/4 579/2/4 580/2/4
f 580/2/4 579/2/4 581/2/4
f 582/2/4 583/2/4 585/2/4
f 583/3/4 584/3/4 585/3/4
f 585/3/4 584/3/4 586/3/4
f 582/2/4 585/2/4 587/2/4
f 585/2/4 586/2/4 587/2/4
f 587/2/4 586/2/4 588/2/4
f 582/2/4 587/2/4 589/2/4
f 588/2/4 586/2/4 590/2/4
f 591/5/4 592/5/4 594/5/4
f 594/5/4 592/5/4 595/5/4
f 582/2/4 589/2/4 596/2/4
f 589/2/4 590/2/4 596/2/4
f 593/4/4 594/4/4 597/4/4
f 597/4/4 594/4/4 598/4/4
f 595/4/4 596/4/4 599/4/4
f 599/4/4 596/4/4 600/4/4
f 596/2/4 590/2/4 601/2/4
f 600/4/4 596/4/4 601/4/4
f 590/2/4 586/2/4 602/2/4
f 601/2/4 590/2/4 602/2/4
f 602/2/4 586/2/4 603/2/4
f 600/4/4 601/4/4 604/4/4
f 601/4/4 602/4/4 604/4/4
f 604/4/4 602/4/4 605/4/4
f 605/4/4 602/4/4 606/4/4
f 599/6/4 600/6/4 607/6/4
f 600/4/4 604/4/4 608/4/4
f 607/6/4 600/6/4 608/6/4
f 608/4/4 604/4/4 609/4/4
f 611/4/4 612/4/4 613/4/4
f 597/6/4 598/6/4 616/6/4
f 616/6/4 598/6/4 617/6/4
f 610/6/4 611/6/4 618/6/4
f 614/4/4 615/4/4 619/4/4
f 618/6/4 611/6/4 619/6/4
f 611/4/4 613/4/4 619/4/4
f 613/4/4 614/4/4 619/4/4
f 619/4/4 615/4/4 620/4/4
f 620/4/4 615/4/4 621/4/4
f 616/4/4 617/4/4 623/4/4
f 623/4/4 617/4/4 624/4/4
f 618/4/4 619/4/4 625/4/4
f 619/4/4 620/4/4 625/4/4
f 620/2/4 621/2/4 626/2/4
f 621/2/4 622/2/4 626/2/4
f 625/4/4 620/4/4 626/4/4
f 624/5/4 625/5/4 627/5/4
f 627/5/4 625/5/4 628/5/4
f 626/2/4 622/2/4 629/2/4
f 629/2/4 622/2/4 630/2/4
f 626/2/4 629/2/4 631/2/4
f 630/2/4 622/2/4 632/2/4
f 626/2/4 631/2/4 633/2/4
f 631/2/4 632/2/4 633/2/4
f 632/2/4 622/2/4 634/2/4
f 633/2/4 632/2/4 634/2/4
f 626/2/4 633/2/4 635/2/4
f 633/3/4 634/3/4 636/3/4
f 635/2/4 633/2/4 636/2/4
f 636/3/4 634/3/4 637/3/4
f 638/1/4 639/1/4 640/1/4
f 640/1/4 639/1/4 641/1/4
f 644/2/4 645/2/4 647/2/4
f 645/3/4 646/3/4 648/3/4
f 647/2/4 645/2/4 648/2/4
f 648/3/4 646/3/4 649/3/4
f 644/2/4 647/2/4 650/2/4
f 647/1/4 648/1/4 650/1/4
f 648/2/4 649/2/4 651/2/4
f 650/1/4 648/1/4 651/1/4
f 642/5/4 643/5/4 652/5/4
f 652/5/4 643/5/4 653/5/4
f 644/2/4 650/2/4 657/2/4
f 650/2/4 651/2/4 657/2/4
f 654/5/4 655/5/4 658/5/4
f 658/5/4 655/5/4 659/5/4
f 656/5/4 657/5/4 660/5/4
f 658/5/4 659/5/4 661/5/4
f 661/5/4 659/5/4 662/5/4
f 662/5/4 659/5/4 663/5/4
f 660/5/4 657/5/4 664/5/4
f 657/2/4 651/2/4 665/2/4
f 664/5/4 657/5/4 665/5/4
f 665/2/4 651/2/4 669/2/4
f 651/2/4 649/2/4 670/2/4
f 669/2/4 651/2/4 670/2/4
f 665/2/4 669/2/4 671/2/4
f 669/1/4 670/1/4 671/1/4
f 670/2/4 649/2/4 672/2/4
f 671/1/4 670/1/4 672/1/4
f 649/3/4 646/3/4 673/3/4
f 672/2/4 649/2/4 673/2/4
f 671/2/4 672/2/4 674/2/4
f 665/2/4 671/2/4 674/2/4
f 672/3/4 673/3/4 675/3/4
f 674/2/4 672/2/4 675/2/4
f 673/3/4 646/3/4 676/3/4
f 675/3/4 673/3/4 676/3/4
f 667/5/4 668/5/4 677/5/4
f 666/5/4 667/5/4 677/5/4
f 677/5/4 668/5/4 678/5/4
f 679/1/4 680/1/4 681/1/4
f 681/1/4 680/1/4 682/1/4
f 683/1/4 684/1/4 686/1/4
f 684/2/4 685/2/4 686/2/4
f 686/2/4 685/2/4 687/2/4
f 683/1/4 686/1/4 688/1/4
f 688/1/4 686/1/4 689/1/4
f 687/2/4 685/2/4 690/2/4
f 690/2/4 685/2/4 691/2/4
f 688/2/4 689/2/4 692/2/4
f 690/3/4 691/3/4 694/3/4
f 692/2/4 693/2/4 695/2/4
f 688/2/4 692/2/4 695/2/4
f 693/3/4 694/3/4 696/3/4
f 695/2/4 693/2/4 696/2/4
f 694/3/4 691/3/4 697/3/4
f 696/3/4 694/3/4 697/3/4
f 704/1/5 699/1/5 698/1/5
f 705/2/5 700/2/5 699/2/5
f 705/1/5 699/1/5 704/1/5
f 706/2/5 700/2/5 705/2/5
f 707/1/5 702/1/5 701/1/5
f 708/2/5 703/2/5 702/2/5
f 708/1/5 702/1/5 707/1/5
f 709/2/5 703/2/5 708/2/5
f 714/4/5 711/4/5 710/4/5
f 715/6/5 712/6/5 711/6/5
f 715/4/5 711/4/5 714/4/5
f 716/4/5 713/4/5 712/4/5
f 716/6/5 712/6/5 715/6/5
f 717/4/5 713/4/5 716/4/5
f 718/6/5 715/6/5 714/6/5
f 719/4/5 716/4/5 715/4/5
f 719/6/5 715/6/5 718/6/5
f 720/6/5 717/6/5 716/6/5
f 720/4/5 716/4/5 719/4/5
f 721/6/5 717/6/5 720/6/5
f 722/4/5 719/4/5 718/4/5
f 723/6/5 720/6/5 719/6/5
f 723/4/5 719/4/5 722/4/5
f 724/4/5 721/4/5 720/4/5
f 724/6/5 720/6/5 723/6/5
f 725/4/5 721/4/5 724/4/5
f 729/1/5 727/1/5 726/1/5
f 730/2/5 728/2/5 727/2/5
f 730/1/5 727/1/5 729/1/5
f 731/2/5 728/2/5 730/2/5
f 741/5/5 733/5/5 732/5/5
f 741/5/5 739/5/5 738/5/5
f 741/5/5 738/5/5 737/5/5
f 741/5/5 737/5/5 736/5/5
f 741/5/5 736/5/5 735/5/5
f 741/5/5 735/5/5 734/5/5
f 741/5/5 734/5/5 733/5/5
f 742/5/5 739/5/5 741/5/5
f 743/5/5 739/5/5 742/5/5
f 744/5/5 739/5/5 743/5/5
f 746/5/5 741/5/5 740/5/5
f 747/5/5 745/5/5 744/5/5
f 748/5/5 746/5/5 740/5/5
f 749/5/5 745/5/5 747/5/5
f 750/5/5 748/5/5 740/5/5
f 751/5/5 748/5/5 750/5/5
f 754/5/5 745/5/5 749/5/5
f 755/5/5 745/5/5 754/5/5
f 756/5/5 753/5/5 752/5/5
f 756/5/5 754/5/5 753/5/5
f 756/5/5 752/5/5 751/5/5
f 757/5/5 754/5/5 756/5/5
f 758/5/5 754/5/5 757/5/5
f 759/5/5 754/5/5 758/5/5
f 760/5/5 754/5/5 759/5/5
f 767/2/5 762/2/5 761/2/5
f 768/3/5 763/3/5 762/3/5
f 768/2/5 762/2/5 767/2/5
f 769/3/5 763/3/5 768/3/5
f 770/2/5 765/2/5 764/2/5
f 771/3/5 766/3/5 765/3/5
f 771/2/5 765/2/5 770/2/5
f 772/3/5 766/3/5 771/3/5
f 776/2/5 774/2/5 773/2/5
f 777/3/5 775/3/5 774/3/5
f 777/2/5 774/2/5 776/2/5
f 778/3/5 775/3/5 777/3/5
f 785/2/5 780/2/5 779/2/5
f 786/2/5 780/2/5 785/2/5
f 787/2/5 782/2/5 781/2/5
f 788/2/5 782/2/5 787/2/5
f 789/2/5 784/2/5 783/2/5
f 790/2/5 784/2/5 789/2/5
f 795/2/5 792/2/5 791/2/5
f 796/2/5 792/2/5 795/2/5
f 797/2/5 794/2/5 793/2/5
f 798/2/5 794/2/5 797/2/5
f 803/2/5 800/2/5 799/2/5
f 804/2/5 800/2/5 803/2/5
f 805/2/5 802/2/5 801/2/5
f 806/2/5 802/2/5 805/2/5
f 808/2/5 800/2/5 804/2/5
f 809/2/5 805/2/5 801/2/5
f 811/2/5 808/2/5 807/2/5
f 812/2/5 800/2/5 808/2/5
f 812/2/5 808/2/5 811/2/5
f 817/2/5 810/2/5 809/2/5
f 817/2/5 809/2/5 801/2/5
f 818/2/5 810/2/5 817/2/5
f 819/2/5 814/2/5 813/2/5
f 820/2/5 814/2/5 819/2/5
f 821/2/5 816/2/5 815/2/5
f 822/2/5 816/2/5 821/2/5
f 827/1/5 824/1/5 823/1/5
f 828/1/5 824/1/5 827/1/5
f 829/1/5 826/1/5 825/1/5
f 830/1/5 826/1/5 829/1/5
f 835/1/5 832/1/5 831/1/5
f 836/1/5 832/1/5 835/1/5
f 837/1/5 834/1/5 833/1/5
f 838/1/5 834/1/5 837/1/5
f 843/3/5 840/3/5 839/3/5
f 844/3/5 840/3/5 843/3/5
f 845/3/5 842/3/5 841/3/5
f 846/3/5 842/3/5 845/3/5
f 847/1/6 848/1/6 853/1/6
f 848/2/6 849/2/6 854/2/6
f 853/1/6 848/1/6 854/1/6
f 854/2/6 849/2/6 855/2/6
f 850/1/6 851/1/6 856/1/6
f 851/2/6 852/2/6 857/2/6
f 856/1/6 851/1/6 857/1/6
f 857/2/6 852/2/6 858/2/6
f 859/1/6 860/1/6 862/1/6
f 860/2/6 861/2/6 863/2/6
f 862/1/6 860/1/6 863/1/6
f 863/2/6 861/2/6 864/2/6
f 865/5/6 866/5/6 876/5/6
f 866/5/6 867/5/6 876/5/6
f 876/5/6 867/5/6 877/5/6
f 877/5/6 867/5/6 878/5/6
f 868/5/6 869/5/6 879/5/6
f 869/5/6 870/5/6 879/5/6
f 870/5/6 871/5/6 879/5/6
f 879/5/6 871/5/6 880/5/6
f 873/5/6 874/5/6 881/5/6
f 872/5/6 873/5/6 881/5/6
f 881/5/6 874/5/6 882/5/6
f 882/5/6 874/5/6 883/5/6
f 875/5/6 876/5/6 885/5/6
f 883/5/6 884/5/6 886/5/6
f 875/5/6 885/5/6 887/5/6
f 886/5/6 884/5/6 888/5/6
f 875/5/6 887/5/6 889/5/6
f 889/5/6 887/5/6 890/5/6
f 888/5/6 884/5/6 895/5/6
f 895/5/6 884/5/6 896/5/6
f 890/5/6 891/5/6 897/5/6
f 891/5/6 892/5/6 897/5/6
f 897/5/6 892/5/6 898/5/6
f 898/5/6 892/5/6 899/5/6
f 893/5/6 894/5/6 900/5/6
f 894/5/6 895/5/6 900/5/6
f 900/5/6 895/5/6 901/5/6
f 901/5/6 895/5/6 902/5/6
f 903/2/6 904/2/6 909/2/6
f 909/2/6 904/2/6 910/2/6
f 904/3/6 905/3/6 911/3/6
f 910/2/6 904/2/6 911/2/6
f 911/3/6 905/3/6 912/3/6
f 912/3/6 905/3/6 913/3/6
f 906/2/6 907/2/6 914/2/6
f 914/2/6 907/2/6 915/2/6
f 907/3/6 908/3/6 916/3/6
f 915/2/6 907/2/6 916/2/6
f 916/3/6 908/3/6 917/3/6
f 917/3/6 908/3/6 918/3/6
f 919/2/6 920/2/6 924/2/6
f 920/2/6 921/2/6 924/2/6
f 922/3/6 923/3/6 925/3/6
f 924/2/6 921/2/6 925/2/6
f 921/3/6 922/3/6 925/3/6
f 925/3/6 923/3/6 926/3/6
f 927/1/6 928/1/6 931/1/6
f 931/1/6 928/1/6 932/1/6
f 929/1/6 930/1/6 933/1/6
f 933/1/6 930/1/6 934/1/6
f 935/1/6 936/1/6 939/1/6
f 939/1/6 936/1/6 940/1/6
f 937/1/6 938/1/6 941/1/6
f 941/1/6 938/1/6 942/1/6
f 943/3/6 944/3/6 948/3/6
f 948/3/6 944/3/6 949/3/6
f 945/3/6 946/3/6 950/3/6
f 950/3/6 946/3/6 951/3/6
f 948/2/6 949/2/6 953/2/6
f 950/2/6 951/2/6 954/2/6
f 947/4/6 948/4/6 955/4/6
f 953/2/6 954/2/6 956/2/6
f 955/4/6 948/4/6 956/4/6
f 948/2/6 953/2/6 956/2/6
f 951/4/6 952/4/6 957/4/6
f 956/2/6 954/2/6 957/2/6
f 954/2/6 951/2/6 957/2/6
f 957/4/6 952/4/6 958/4/6
f 956/3/6 957/3/6 959/3/6
f 959/3/6 957/3/6 960/3/6
f 964/2/6 965/2/6 969/2/6
f 969/2/6 965/2/6 970/2/6
f 966/2/6 967/2/6 971/2/6
f 971/2/6 967/2/6 972/2/6
f 964/2/6 969/2/6 973/2/6
f 970/2/6 965/2/6 974/2/6
f 966/2/6 971/2/6 975/2/6
f 972/2/6 967/2/6 976/2/6
f 964/2/6 973/2/6 977/2/6
f 973/2/6 974/2/6 977/2/6
f 974/2/6 965/2/6 978/2/6
f 977/2/6 974/2/6 978/2/6
f 975/2/6 976/2/6 979/2/6
f 966/2/6 975/2/6 979/2/6
f 976/2/6 967/2/6 980/2/6
f 979/2/6 976/2/6 980/2/6
f 964/2/6 977/2/6 981/2/6
f 978/2/6 965/2/6 982/2/6
f 966/2/6 979/2/6 983/2/6
f 980/2/6 967/2/6 984/2/6
f 961/2/6 962/2/6 985/2/6
f 985/2/6 962/2/6 986/2/6
f 963/3/6 964/3/6 987/3/6
f 964/2/6 981/2/6 988/2/6
f 987/3/6 964/3/6 988/3/6
f 981/2/6 982/2/6 988/2/6
f 982/2/6 965/2/6 989/2/6
f 988/2/6 982/2/6 989/2/6
f 983/2/6 984/2/6 990/2/6
f 966/2/6 983/2/6 990/2/6
f 984/2/6 967/2/6 991/2/6
f 990/2/6 984/2/6 991/2/6
f 967/3/6 968/3/6 991/3/6
f 991/3/6 968/3/6 992/3/6
f 993/1/6 994/1/6 997/1/6
f 997/1/6 994/1/6 998/1/6
f 995/1/6 996/1/6 999/1/6
f 999/1/6 996/1/6 1000/1/6
f 1001/1/6 1002/1/6 1005/1/6
f 1005/1/6 1002/1/6 1006/1/6
f 1003/1/6 1004/1/6 1007/1/6
f 1007/1/6 1004/1/6 1008/1/6
