# MagicaVoxel @ Ephtracy

# group
o 

# material
mtllib model-0.mtl
usemtl palette

# normals
vn 0 0 1
vn 0 0 -1
vn 1 0 0
vn -1 0 0
vn 0 -1 0
vn 0 1 0

# texcoords
vt 0.443359 0.5
vt 0.822266 0.5

# verts
v 0.2 5.7 2
v -0.2 5.7 2
v 0.2 6.3 2
v -0.2 6.3 2
v 0.4 5.7 1.6
v 0.2 5.7 1.6
v -0.2 5.7 1.6
v -0.4 5.7 1.6
v 0.4 5.9 1.6
v 0.2 5.9 1.6
v -0.2 5.9 1.6
v -0.4 5.9 1.6
v 0.4 6.1 1.6
v 0.2 6.1 1.6
v -0.2 6.1 1.6
v -0.4 6.1 1.6
v 1 5.7 1.4
v 0.4 5.7 1.4
v -0.4 5.7 1.4
v -1 5.7 1.4
v 0.8 5.9 1.4
v 0.4 5.9 1.4
v -0.4 5.9 1.4
v -0.8 5.9 1.4
v 0.8 6.1 1.4
v 0.4 6.1 1.4
v -0.4 6.1 1.4
v -0.8 6.1 1.4
v 1 7.1 1.4
v 0.8 7.1 1.4
v -0.8 7.1 1.4
v -1 7.1 1.4
v 1.1 5.7 1.2
v 1 5.7 1.2
v -1 5.7 1.2
v -1.1 5.7 1.2
v 1.1 5.9 1.2
v 1 5.9 1.2
v -1 5.9 1.2
v -1.1 5.9 1.2
v 0.8 6.1 1.2
v -0.8 6.1 1.2
v 1.1 6.9 1.2
v 1 6.9 1.2
v 0.8 6.9 1.2
v -0.8 6.9 1.2
v -1 6.9 1.2
v -1.1 6.9 1.2
v 1 7.1 0.9
v 0.8 7.1 0.9
v -0.8 7.1 0.9
v -1 7.1 0.9
v 1 7.7 0.9
v 0.8 7.7 0.9
v -0.8 7.7 0.9
v -1 7.7 0.9
v 1.1 6.9 0.7
v 1 6.9 0.7
v -1 6.9 0.7
v -1.1 6.9 0.7
v 1.1 7.5 0.7
v 1 7.5 0.7
v -1 7.5 0.7
v -1.1 7.5 0.7
v 0.2 6.1 -1.7
v -0.2 6.1 -1.7
v 0.2 6.3 -1.7
v -0.2 6.3 -1.7
v 0.2 6.1 1.7
v -0.2 6.1 1.7
v 0.2 6.3 1.7
v -0.2 6.3 1.7
v 1.1 6.9 -0.7
v 1 6.9 -0.7
v -1 6.9 -0.7
v -1.1 6.9 -0.7
v 1.1 7.5 -0.7
v 1 7.5 -0.7
v -1 7.5 -0.7
v -1.1 7.5 -0.7
v 1 7.1 -0.9
v 0.8 7.1 -0.9
v -0.8 7.1 -0.9
v -1 7.1 -0.9
v 1 7.7 -0.9
v 0.8 7.7 -0.9
v -0.8 7.7 -0.9
v -1 7.7 -0.9
v 1.1 5.7 -1.2
v 1 5.7 -1.2
v -1 5.7 -1.2
v -1.1 5.7 -1.2
v 1.1 5.9 -1.2
v 1 5.9 -1.2
v -1 5.9 -1.2
v -1.1 5.9 -1.2
v 0.8 6.1 -1.2
v -0.8 6.1 -1.2
v 1.1 6.9 -1.2
v 1 6.9 -1.2
v 0.8 6.9 -1.2
v -0.8 6.9 -1.2
v -1 6.9 -1.2
v -1.1 6.9 -1.2
v 1 5.7 -1.4
v 0.4 5.7 -1.4
v -0.4 5.7 -1.4
v -1 5.7 -1.4
v 0.8 5.9 -1.4
v 0.4 5.9 -1.4
v -0.4 5.9 -1.4
v -0.8 5.9 -1.4
v 0.8 6.1 -1.4
v 0.4 6.1 -1.4
v -0.4 6.1 -1.4
v -0.8 6.1 -1.4
v 1 7.1 -1.4
v 0.8 7.1 -1.4
v -0.8 7.1 -1.4
v -1 7.1 -1.4
v 0.4 5.7 -1.6
v 0.2 5.7 -1.6
v -0.2 5.7 -1.6
v -0.4 5.7 -1.6
v 0.4 5.9 -1.6
v 0.2 5.9 -1.6
v -0.2 5.9 -1.6
v -0.4 5.9 -1.6
v 0.4 6.1 -1.6
v 0.2 6.1 -1.6
v -0.2 6.1 -1.6
v -0.4 6.1 -1.6
v 0.2 5.7 -2
v -0.2 5.7 -2
v 0.2 6.3 -2
v -0.2 6.3 -2
v 1.1 5.7 1.2
v 1.1 5.9 1.2
v 1.1 6.9 1.2
v 1.1 6 1.1
v 1.1 6.1 1.1
v 1.1 6.1 0.9
v 1.1 6.2 0.9
v 1.1 6 0.8
v 1.1 6.2 0.8
v 1.1 6 0.7
v 1.1 6.1 0.7
v 1.1 6.2 0.7
v 1.1 6.4 0.7
v 1.1 6.9 0.7
v 1.1 7.5 0.7
v 1.1 6.3 0.6
v 1.1 6.4 0.6
v 1.1 6.4 0.5
v 1.1 6.7 0.5
v 1.1 6 0.4
v 1.1 6.1 0.4
v 1.1 6.5 0.4
v 1.1 6.6 0.4
v 1.1 6.4 0.3
v 1.1 6.5 0.3
v 1.1 6.3 0.2
v 1.1 6.6 0.2
v 1.1 6.2 0.0999999
v 1.1 6.7 0.0999999
v 1.1 6.2 -0.1
v 1.1 6.7 -0.1
v 1.1 6.3 -0.2
v 1.1 6.6 -0.2
v 1.1 6.4 -0.3
v 1.1 6.5 -0.3
v 1.1 6 -0.4
v 1.1 6.1 -0.4
v 1.1 6.5 -0.4
v 1.1 6.6 -0.4
v 1.1 6.4 -0.5
v 1.1 6.7 -0.5
v 1.1 6.3 -0.6
v 1.1 6.4 -0.6
v 1.1 6 -0.7
v 1.1 6.1 -0.7
v 1.1 6.2 -0.7
v 1.1 6.4 -0.7
v 1.1 6.9 -0.7
v 1.1 7.5 -0.7
v 1.1 6 -0.8
v 1.1 6.2 -0.8
v 1.1 6.1 -0.9
v 1.1 6.2 -0.9
v 1.1 6 -1.1
v 1.1 6.1 -1.1
v 1.1 5.7 -1.2
v 1.1 5.9 -1.2
v 1.1 6.9 -1.2
v 1 5.7 1.4
v 1 7.1 1.4
v 1 5.7 1.2
v 1 5.9 1.2
v 1 6.9 1.2
v 1 7.1 0.9
v 1 7.7 0.9
v 1 6.9 0.7
v 1 7.5 0.7
v 1 6.9 -0.7
v 1 7.5 -0.7
v 1 7.1 -0.9
v 1 7.7 -0.9
v 1 5.7 -1.2
v 1 5.9 -1.2
v 1 6.9 -1.2
v 1 5.7 -1.4
v 1 7.1 -1.4
v 0.4 5.7 1.6
v 0.4 5.9 1.6
v 0.4 6.1 1.6
v 0.4 5.7 1.4
v 0.4 5.9 1.4
v 0.4 6.1 1.4
v 0.4 5.7 -1.4
v 0.4 5.9 -1.4
v 0.4 6.1 -1.4
v 0.4 5.7 -1.6
v 0.4 5.9 -1.6
v 0.4 6.1 -1.6
v 0.2 5.7 2
v 0.2 6.3 2
v 0.2 5.9 1.8
v 0.2 6.1 1.8
v 0.2 6.1 1.7
v 0.2 6.3 1.7
v 0.2 5.7 1.6
v 0.2 5.9 1.6
v 0.2 6.1 1.6
v 0.2 5.7 -1.6
v 0.2 5.9 -1.6
v 0.2 6.1 -1.6
v 0.2 6.1 -1.7
v 0.2 6.3 -1.7
v 0.2 5.9 -1.8
v 0.2 6.1 -1.8
v 0.2 5.7 -2
v 0.2 6.3 -2
v -0.8 6.1 1.4
v -0.8 7.1 1.4
v -0.8 6.1 1.2
v -0.8 6.9 1.2
v -0.8 7.1 0.9
v -0.8 7.7 0.9
v -0.8 6.9 0.7
v -0.8 7.5 0.7
v -0.8 6.9 -0.7
v -0.8 7.5 -0.7
v -0.8 7.1 -0.9
v -0.8 7.7 -0.9
v -0.8 6.1 -1.2
v -0.8 6.9 -1.2
v -0.8 6.1 -1.4
v -0.8 7.1 -1.4
v 0.8 6.1 1.4
v 0.8 7.1 1.4
v 0.8 6.1 1.2
v 0.8 6.9 1.2
v 0.8 7.1 0.9
v 0.8 7.7 0.9
v 0.8 6.9 0.7
v 0.8 7.5 0.7
v 0.8 6.9 -0.7
v 0.8 7.5 -0.7
v 0.8 7.1 -0.9
v 0.8 7.7 -0.9
v 0.8 6.1 -1.2
v 0.8 6.9 -1.2
v 0.8 6.1 -1.4
v 0.8 7.1 -1.4
v -0.2 5.7 2
v -0.2 6.3 2
v -0.2 5.9 1.8
v -0.2 6.1 1.8
v -0.2 6.1 1.7
v -0.2 6.3 1.7
v -0.2 5.7 1.6
v -0.2 5.9 1.6
v -0.2 6.1 1.6
v -0.2 5.7 -1.6
v -0.2 5.9 -1.6
v -0.2 6.1 -1.6
v -0.2 6.1 -1.7
v -0.2 6.3 -1.7
v -0.2 5.9 -1.8
v -0.2 6.1 -1.8
v -0.2 5.7 -2
v -0.2 6.3 -2
v -0.4 5.7 1.6
v -0.4 5.9 1.6
v -0.4 6.1 1.6
v -0.4 5.7 1.4
v -0.4 5.9 1.4
v -0.4 6.1 1.4
v -0.4 5.7 -1.4
v -0.4 5.9 -1.4
v -0.4 6.1 -1.4
v -0.4 5.7 -1.6
v -0.4 5.9 -1.6
v -0.4 6.1 -1.6
v -1 5.7 1.4
v -1 7.1 1.4
v -1 5.7 1.2
v -1 5.9 1.2
v -1 6.9 1.2
v -1 7.1 0.9
v -1 7.7 0.9
v -1 6.9 0.7
v -1 7.5 0.7
v -1 6.9 -0.7
v -1 7.5 -0.7
v -1 7.1 -0.9
v -1 7.7 -0.9
v -1 5.7 -1.2
v -1 5.9 -1.2
v -1 6.9 -1.2
v -1 5.7 -1.4
v -1 7.1 -1.4
v -1.1 5.7 1.2
v -1.1 5.9 1.2
v -1.1 6.9 1.2
v -1.1 6 1.1
v -1.1 6.1 1.1
v -1.1 6.1 0.9
v -1.1 6.2 0.9
v -1.1 6 0.8
v -1.1 6.2 0.8
v -1.1 6 0.7
v -1.1 6.1 0.7
v -1.1 6.2 0.7
v -1.1 6.4 0.7
v -1.1 6.9 0.7
v -1.1 7.5 0.7
v -1.1 6.3 0.6
v -1.1 6.4 0.6
v -1.1 6.4 0.5
v -1.1 6.7 0.5
v -1.1 6 0.4
v -1.1 6.1 0.4
v -1.1 6.5 0.4
v -1.1 6.6 0.4
v -1.1 6.4 0.3
v -1.1 6.5 0.3
v -1.1 6.3 0.2
v -1.1 6.6 0.2
v -1.1 6.2 0.0999999
v -1.1 6.7 0.0999999
v -1.1 6.2 -0.1
v -1.1 6.7 -0.1
v -1.1 6.3 -0.2
v -1.1 6.6 -0.2
v -1.1 6.4 -0.3
v -1.1 6.5 -0.3
v -1.1 6 -0.4
v -1.1 6.1 -0.4
v -1.1 6.5 -0.4
v -1.1 6.6 -0.4
v -1.1 6.4 -0.5
v -1.1 6.7 -0.5
v -1.1 6.3 -0.6
v -1.1 6.4 -0.6
v -1.1 6 -0.7
v -1.1 6.1 -0.7
v -1.1 6.2 -0.7
v -1.1 6.4 -0.7
v -1.1 6.9 -0.7
v -1.1 7.5 -0.7
v -1.1 6 -0.8
v -1.1 6.2 -0.8
v -1.1 6.1 -0.9
v -1.1 6.2 -0.9
v -1.1 6 -1.1
v -1.1 6.1 -1.1
v -1.1 5.7 -1.2
v -1.1 5.9 -1.2
v -1.1 6.9 -1.2
v 1.1 5.7 1.2
v 1.1 5.7 -1.2
v 1 5.7 1.4
v 1 5.7 1.2
v 1 5.7 -1.2
v 1 5.7 -1.4
v 0.4 5.7 1.6
v 0.4 5.7 1.4
v 0.4 5.7 -1.4
v 0.4 5.7 -1.6
v 0.2 5.7 2
v 0.2 5.7 1.6
v 0.2 5.7 -1.6
v 0.2 5.7 -2
v -0.2 5.7 2
v -0.2 5.7 1.6
v -0.2 5.7 -1.6
v -0.2 5.7 -2
v -0.4 5.7 1.6
v -0.4 5.7 1.4
v -0.4 5.7 -1.4
v -0.4 5.7 -1.6
v -1 5.7 1.4
v -1 5.7 1.2
v -1 5.7 -1.2
v -1 5.7 -1.4
v -1.1 5.7 1.2
v -1.1 5.7 -1.2
v 0.8 6.1 1.4
v 0.8 6.1 1.2
v 0.8 6.1 -1.2
v 0.8 6.1 -1.4
v 0.4 6.1 1.6
v 0.4 6.1 1.4
v 0.4 6.1 -1.4
v 0.4 6.1 -1.6
v 0.2 6.1 1.7
v 0.2 6.1 1.6
v 0.2 6.1 -1.6
v 0.2 6.1 -1.7
v -0.2 6.1 1.7
v -0.2 6.1 1.6
v -0.2 6.1 -1.6
v -0.2 6.1 -1.7
v -0.4 6.1 1.6
v -0.4 6.1 1.4
v -0.4 6.1 -1.4
v -0.4 6.1 -1.6
v -0.8 6.1 1.4
v -0.8 6.1 1.2
v -0.8 6.1 -1.2
v -0.8 6.1 -1.4
v 0.2 6.3 2
v 0.2 6.3 1.7
v 0.2 6.3 -1.7
v 0.2 6.3 -2
v -0.2 6.3 2
v -0.2 6.3 1.7
v -0.2 6.3 -1.7
v -0.2 6.3 -2
v 1.1 6.9 1.2
v 1.1 6.9 0.7
v 1.1 6.9 -0.7
v 1.1 6.9 -1.2
v 1 6.9 1.2
v 1 6.9 0.7
v 1 6.9 -0.7
v 1 6.9 -1.2
v 0.8 6.9 1.2
v 0.8 6.9 0.7
v 0.8 6.9 -0.7
v 0.8 6.9 -1.2
v -0.8 6.9 1.2
v -0.8 6.9 0.7
v -0.8 6.9 -0.7
v -0.8 6.9 -1.2
v -1 6.9 1.2
v -1 6.9 0.7
v -1 6.9 -0.7
v -1 6.9 -1.2
v -1.1 6.9 1.2
v -1.1 6.9 0.7
v -1.1 6.9 -0.7
v -1.1 6.9 -1.2
v 1 7.1 1.4
v 1 7.1 0.9
v 1 7.1 -0.9
v 1 7.1 -1.4
v 0.8 7.1 1.4
v 0.8 7.1 0.9
v 0.8 7.1 -0.9
v 0.8 7.1 -1.4
v -0.8 7.1 1.4
v -0.8 7.1 0.9
v -0.8 7.1 -0.9
v -0.8 7.1 -1.4
v -1 7.1 1.4
v -1 7.1 0.9
v -1 7.1 -0.9
v -1 7.1 -1.4
v 1.1 7.5 0.7
v 1.1 7.5 -0.7
v 1 7.5 0.7
v 1 7.5 -0.7
v -1 7.5 0.7
v -1 7.5 -0.7
v -1.1 7.5 0.7
v -1.1 7.5 -0.7
v 1 7.7 0.9
v 1 7.7 -0.9
v 0.8 7.7 0.9
v 0.8 7.7 -0.9
v -0.8 7.7 0.9
v -0.8 7.7 -0.9
v -1 7.7 0.9
v -1 7.7 -0.9

# faces
f 3/1/1 2/1/1 1/1/1
f 4/1/1 2/1/1 3/1/1
f 9/1/1 6/1/1 5/1/1
f 10/1/1 6/1/1 9/1/1
f 11/1/1 8/1/1 7/1/1
f 12/1/1 8/1/1 11/1/1
f 13/2/1 10/2/1 9/2/1
f 14/2/1 10/2/1 13/2/1
f 15/2/1 12/2/1 11/2/1
f 16/2/1 12/2/1 15/2/1
f 21/1/1 18/1/1 17/1/1
f 22/1/1 18/1/1 21/1/1
f 23/1/1 20/1/1 19/1/1
f 24/1/1 20/1/1 23/1/1
f 25/2/1 22/2/1 21/2/1
f 25/1/1 21/1/1 17/1/1
f 26/2/1 22/2/1 25/2/1
f 27/2/1 24/2/1 23/2/1
f 28/1/1 20/1/1 24/1/1
f 28/2/1 24/2/1 27/2/1
f 29/1/1 25/1/1 17/1/1
f 30/1/1 25/1/1 29/1/1
f 31/1/1 20/1/1 28/1/1
f 32/1/1 20/1/1 31/1/1
f 37/1/1 34/1/1 33/1/1
f 38/1/1 34/1/1 37/1/1
f 39/1/1 36/1/1 35/1/1
f 40/1/1 36/1/1 39/1/1
f 43/2/1 38/2/1 37/2/1
f 44/2/1 38/2/1 43/2/1
f 45/2/1 42/2/1 41/2/1
f 46/2/1 42/2/1 45/2/1
f 47/2/1 40/2/1 39/2/1
f 48/2/1 40/2/1 47/2/1
f 53/1/1 50/1/1 49/1/1
f 54/1/1 50/1/1 53/1/1
f 55/1/1 52/1/1 51/1/1
f 56/1/1 52/1/1 55/1/1
f 61/2/1 58/2/1 57/2/1
f 62/2/1 58/2/1 61/2/1
f 63/2/1 60/2/1 59/2/1
f 64/2/1 60/2/1 63/2/1
f 67/1/1 66/1/1 65/1/1
f 68/1/1 66/1/1 67/1/1
f 69/1/2 70/1/2 71/1/2
f 71/1/2 70/1/2 72/1/2
f 73/2/2 74/2/2 77/2/2
f 77/2/2 74/2/2 78/2/2
f 75/2/2 76/2/2 79/2/2
f 79/2/2 76/2/2 80/2/2
f 81/1/2 82/1/2 85/1/2
f 85/1/2 82/1/2 86/1/2
f 83/1/2 84/1/2 87/1/2
f 87/1/2 84/1/2 88/1/2
f 89/1/2 90/1/2 93/1/2
f 93/1/2 90/1/2 94/1/2
f 91/1/2 92/1/2 95/1/2
f 95/1/2 92/1/2 96/1/2
f 93/2/2 94/2/2 99/2/2
f 99/2/2 94/2/2 100/2/2
f 97/2/2 98/2/2 101/2/2
f 101/2/2 98/2/2 102/2/2
f 95/2/2 96/2/2 103/2/2
f 103/2/2 96/2/2 104/2/2
f 105/1/2 106/1/2 109/1/2
f 109/1/2 106/1/2 110/1/2
f 107/1/2 108/1/2 111/1/2
f 111/1/2 108/1/2 112/1/2
f 109/2/2 110/2/2 113/2/2
f 105/1/2 109/1/2 113/1/2
f 113/2/2 110/2/2 114/2/2
f 111/2/2 112/2/2 115/2/2
f 112/1/2 108/1/2 116/1/2
f 115/2/2 112/2/2 116/2/2
f 105/1/2 113/1/2 117/1/2
f 117/1/2 113/1/2 118/1/2
f 116/1/2 108/1/2 119/1/2
f 119/1/2 108/1/2 120/1/2
f 121/1/2 122/1/2 125/1/2
f 125/1/2 122/1/2 126/1/2
f 123/1/2 124/1/2 127/1/2
f 127/1/2 124/1/2 128/1/2
f 125/2/2 126/2/2 129/2/2
f 129/2/2 126/2/2 130/2/2
f 127/2/2 128/2/2 131/2/2
f 131/2/2 128/2/2 132/2/2
f 133/1/2 134/1/2 135/1/2
f 135/1/2 134/1/2 136/1/2
f 140/2/3 139/2/3 138/2/3
f 141/2/3 139/2/3 140/2/3
f 142/1/3 141/1/3 140/1/3
f 142/2/3 139/2/3 141/2/3
f 143/2/3 139/2/3 142/2/3
f 144/2/3 140/2/3 138/2/3
f 144/1/3 142/1/3 140/1/3
f 144/1/3 143/1/3 142/1/3
f 145/2/3 139/2/3 143/2/3
f 145/1/3 143/1/3 144/1/3
f 146/2/3 144/2/3 138/2/3
f 146/2/3 145/2/3 144/2/3
f 147/2/3 145/2/3 146/2/3
f 148/2/3 139/2/3 145/2/3
f 148/2/3 145/2/3 147/2/3
f 149/2/3 139/2/3 148/2/3
f 150/2/3 139/2/3 149/2/3
f 152/1/3 149/1/3 148/1/3
f 153/2/3 151/2/3 150/2/3
f 153/1/3 149/1/3 152/1/3
f 153/2/3 150/2/3 149/2/3
f 154/2/3 153/2/3 152/2/3
f 154/2/3 151/2/3 153/2/3
f 155/2/3 151/2/3 154/2/3
f 156/1/3 147/1/3 146/1/3
f 156/2/3 146/2/3 138/2/3
f 157/2/3 148/2/3 147/2/3
f 157/1/3 147/1/3 156/1/3
f 158/1/3 155/1/3 154/1/3
f 159/1/3 155/1/3 158/1/3
f 160/2/3 154/2/3 152/2/3
f 160/1/3 158/1/3 154/1/3
f 161/2/3 159/2/3 158/2/3
f 161/1/3 158/1/3 160/1/3
f 162/1/3 152/1/3 148/1/3
f 162/2/3 160/2/3 152/2/3
f 162/2/3 161/2/3 160/2/3
f 163/2/3 159/2/3 161/2/3
f 163/2/3 161/2/3 162/2/3
f 163/1/3 155/1/3 159/1/3
f 164/2/3 148/2/3 157/2/3
f 164/1/3 162/1/3 148/1/3
f 164/1/3 163/1/3 162/1/3
f 164/2/3 157/2/3 156/2/3
f 165/2/3 151/2/3 155/2/3
f 165/1/3 163/1/3 164/1/3
f 165/1/3 155/1/3 163/1/3
f 166/2/3 164/2/3 156/2/3
f 166/2/3 165/2/3 164/2/3
f 167/2/3 151/2/3 165/2/3
f 167/2/3 165/2/3 166/2/3
f 168/1/3 167/1/3 166/1/3
f 169/1/3 167/1/3 168/1/3
f 170/2/3 169/2/3 168/2/3
f 171/2/3 169/2/3 170/2/3
f 172/2/3 166/2/3 156/2/3
f 172/2/3 156/2/3 138/2/3
f 173/2/3 166/2/3 172/2/3
f 174/2/3 169/2/3 171/2/3
f 174/1/3 171/1/3 170/1/3
f 175/1/3 167/1/3 169/1/3
f 175/2/3 169/2/3 174/2/3
f 176/1/3 174/1/3 170/1/3
f 176/2/3 170/2/3 168/2/3
f 176/1/3 175/1/3 174/1/3
f 177/2/3 151/2/3 167/2/3
f 177/1/3 175/1/3 176/1/3
f 177/1/3 167/1/3 175/1/3
f 178/2/3 176/2/3 168/2/3
f 178/1/3 168/1/3 166/1/3
f 178/2/3 177/2/3 176/2/3
f 179/2/3 177/2/3 178/2/3
f 180/1/3 173/1/3 172/1/3
f 180/2/3 172/2/3 138/2/3
f 181/2/3 166/2/3 173/2/3
f 181/1/3 173/1/3 180/1/3
f 182/1/3 179/1/3 178/1/3
f 182/2/3 166/2/3 181/2/3
f 182/1/3 178/1/3 166/1/3
f 183/2/3 177/2/3 179/2/3
f 183/1/3 179/1/3 182/1/3
f 184/2/3 151/2/3 177/2/3
f 184/2/3 177/2/3 183/2/3
f 185/2/3 151/2/3 184/2/3
f 186/2/3 180/2/3 138/2/3
f 186/2/3 182/2/3 181/2/3
f 186/2/3 184/2/3 183/2/3
f 186/2/3 181/2/3 180/2/3
f 186/2/3 183/2/3 182/2/3
f 187/2/3 184/2/3 186/2/3
f 188/1/3 187/1/3 186/1/3
f 189/2/3 184/2/3 187/2/3
f 189/1/3 187/1/3 188/1/3
f 190/2/3 186/2/3 138/2/3
f 190/1/3 188/1/3 186/1/3
f 191/2/3 189/2/3 188/2/3
f 191/1/3 188/1/3 190/1/3
f 192/1/3 138/1/3 137/1/3
f 193/2/3 190/2/3 138/2/3
f 193/1/3 138/1/3 192/1/3
f 193/2/3 191/2/3 190/2/3
f 194/2/3 189/2/3 191/2/3
f 194/2/3 191/2/3 193/2/3
f 194/2/3 184/2/3 189/2/3
f 197/1/3 196/1/3 195/1/3
f 198/1/3 196/1/3 197/1/3
f 199/1/3 196/1/3 198/1/3
f 200/1/3 196/1/3 199/1/3
f 202/1/3 200/1/3 199/1/3
f 202/1/3 201/1/3 200/1/3
f 203/1/3 201/1/3 202/1/3
f 205/1/3 201/1/3 203/1/3
f 206/1/3 205/1/3 204/1/3
f 207/1/3 201/1/3 205/1/3
f 207/1/3 205/1/3 206/1/3
f 210/1/3 206/1/3 204/1/3
f 211/1/3 209/1/3 208/1/3
f 211/1/3 210/1/3 209/1/3
f 212/1/3 206/1/3 210/1/3
f 212/1/3 210/1/3 211/1/3
f 216/1/3 214/1/3 213/1/3
f 217/2/3 215/2/3 214/2/3
f 217/1/3 214/1/3 216/1/3
f 218/2/3 215/2/3 217/2/3
f 222/1/3 220/1/3 219/1/3
f 223/2/3 221/2/3 220/2/3
f 223/1/3 220/1/3 222/1/3
f 224/2/3 221/2/3 223/2/3
f 227/1/3 226/1/3 225/1/3
f 228/1/3 226/1/3 227/1/3
f 229/2/3 228/2/3 227/2/3
f 229/1/3 226/1/3 228/1/3
f 230/1/3 226/1/3 229/1/3
f 231/1/3 227/1/3 225/1/3
f 232/2/3 229/2/3 227/2/3
f 232/1/3 227/1/3 231/1/3
f 233/2/3 229/2/3 232/2/3
f 237/2/3 236/2/3 235/2/3
f 239/2/3 237/2/3 235/2/3
f 239/1/3 235/1/3 234/1/3
f 240/1/3 238/1/3 237/1/3
f 240/2/3 237/2/3 239/2/3
f 241/1/3 239/1/3 234/1/3
f 241/1/3 240/1/3 239/1/3
f 242/1/3 238/1/3 240/1/3
f 242/1/3 240/1/3 241/1/3
f 245/1/3 244/1/3 243/1/3
f 246/1/3 244/1/3 245/1/3
f 247/1/3 244/1/3 246/1/3
f 249/1/3 247/1/3 246/1/3
f 249/1/3 248/1/3 247/1/3
f 250/1/3 248/1/3 249/1/3
f 251/2/3 250/2/3 249/2/3
f 252/1/3 248/1/3 250/1/3
f 252/2/3 250/2/3 251/2/3
f 253/1/3 252/1/3 251/1/3
f 254/1/3 248/1/3 252/1/3
f 254/1/3 252/1/3 253/1/3
f 256/1/3 253/1/3 251/1/3
f 257/1/3 256/1/3 255/1/3
f 258/1/3 253/1/3 256/1/3
f 258/1/3 256/1/3 257/1/3
f 259/1/4 260/1/4 261/1/4
f 261/1/4 260/1/4 262/1/4
f 262/1/4 260/1/4 263/1/4
f 262/1/4 263/1/4 265/1/4
f 263/1/4 264/1/4 265/1/4
f 265/1/4 264/1/4 266/1/4
f 265/2/4 266/2/4 267/2/4
f 266/1/4 264/1/4 268/1/4
f 267/2/4 266/2/4 268/2/4
f 267/1/4 268/1/4 269/1/4
f 268/1/4 264/1/4 270/1/4
f 269/1/4 268/1/4 270/1/4
f 267/1/4 269/1/4 272/1/4
f 271/1/4 272/1/4 273/1/4
f 272/1/4 269/1/4 274/1/4
f 273/1/4 272/1/4 274/1/4
f 275/1/4 276/1/4 277/1/4
f 277/1/4 276/1/4 278/1/4
f 277/2/4 278/2/4 279/2/4
f 278/1/4 276/1/4 279/1/4
f 279/1/4 276/1/4 280/1/4
f 275/1/4 277/1/4 281/1/4
f 277/2/4 279/2/4 282/2/4
f 281/1/4 277/1/4 282/1/4
f 282/2/4 279/2/4 283/2/4
f 285/2/4 286/2/4 287/2/4
f 285/2/4 287/2/4 289/2/4
f 284/1/4 285/1/4 289/1/4
f 287/1/4 288/1/4 290/1/4
f 289/2/4 287/2/4 290/2/4
f 284/1/4 289/1/4 291/1/4
f 289/1/4 290/1/4 291/1/4
f 290/1/4 288/1/4 292/1/4
f 291/1/4 290/1/4 292/1/4
f 293/1/4 294/1/4 296/1/4
f 294/2/4 295/2/4 297/2/4
f 296/1/4 294/1/4 297/1/4
f 297/2/4 295/2/4 298/2/4
f 299/1/4 300/1/4 302/1/4
f 300/2/4 301/2/4 303/2/4
f 302/1/4 300/1/4 303/1/4
f 303/2/4 301/2/4 304/2/4
f 305/1/4 306/1/4 307/1/4
f 307/1/4 306/1/4 308/1/4
f 308/1/4 306/1/4 309/1/4
f 309/1/4 306/1/4 310/1/4
f 309/1/4 310/1/4 312/1/4
f 310/1/4 311/1/4 312/1/4
f 312/1/4 311/1/4 313/1/4
f 313/1/4 311/1/4 315/1/4
f 314/1/4 315/1/4 316/1/4
f 315/1/4 311/1/4 317/1/4
f 316/1/4 315/1/4 317/1/4
f 314/1/4 316/1/4 320/1/4
f 318/1/4 319/1/4 321/1/4
f 319/1/4 320/1/4 321/1/4
f 320/1/4 316/1/4 322/1/4
f 321/1/4 320/1/4 322/1/4
f 324/2/4 325/2/4 326/2/4
f 326/2/4 325/2/4 327/2/4
f 326/1/4 327/1/4 328/1/4
f 327/2/4 325/2/4 328/2/4
f 328/2/4 325/2/4 329/2/4
f 324/2/4 326/2/4 330/2/4
f 326/1/4 328/1/4 330/1/4
f 328/1/4 329/1/4 330/1/4
f 329/2/4 325/2/4 331/2/4
f 330/1/4 329/1/4 331/1/4
f 324/2/4 330/2/4 332/2/4
f 330/2/4 331/2/4 332/2/4
f 332/2/4 331/2/4 333/2/4
f 331/2/4 325/2/4 334/2/4
f 333/2/4 331/2/4 334/2/4
f 334/2/4 325/2/4 335/2/4
f 335/2/4 325/2/4 336/2/4
f 334/1/4 335/1/4 338/1/4
f 336/2/4 337/2/4 339/2/4
f 338/1/4 335/1/4 339/1/4
f 335/2/4 336/2/4 339/2/4
f 338/2/4 339/2/4 340/2/4
f 339/2/4 337/2/4 340/2/4
f 340/2/4 337/2/4 341/2/4
f 332/1/4 333/1/4 342/1/4
f 324/2/4 332/2/4 342/2/4
f 333/2/4 334/2/4 343/2/4
f 342/1/4 333/1/4 343/1/4
f 340/1/4 341/1/4 344/1/4
f 344/1/4 341/1/4 345/1/4
f 338/2/4 340/2/4 346/2/4
f 340/1/4 344/1/4 346/1/4
f 344/2/4 345/2/4 347/2/4
f 346/1/4 344/1/4 347/1/4
f 334/1/4 338/1/4 348/1/4
f 338/2/4 346/2/4 348/2/4
f 346/2/4 347/2/4 348/2/4
f 347/2/4 345/2/4 349/2/4
f 348/2/4 347/2/4 349/2/4
f 345/1/4 341/1/4 349/1/4
f 343/2/4 334/2/4 350/2/4
f 334/1/4 348/1/4 350/1/4
f 348/1/4 349/1/4 350/1/4
f 342/2/4 343/2/4 350/2/4
f 341/2/4 337/2/4 351/2/4
f 350/1/4 349/1/4 351/1/4
f 349/1/4 341/1/4 351/1/4
f 342/2/4 350/2/4 352/2/4
f 350/2/4 351/2/4 352/2/4
f 351/2/4 337/2/4 353/2/4
f 352/2/4 351/2/4 353/2/4
f 352/1/4 353/1/4 354/1/4
f 354/1/4 353/1/4 355/1/4
f 354/2/4 355/2/4 356/2/4
f 356/2/4 355/2/4 357/2/4
f 342/2/4 352/2/4 358/2/4
f 324/2/4 342/2/4 358/2/4
f 358/2/4 352/2/4 359/2/4
f 357/2/4 355/2/4 360/2/4
f 356/1/4 357/1/4 360/1/4
f 355/1/4 353/1/4 361/1/4
f 360/2/4 355/2/4 361/2/4
f 356/1/4 360/1/4 362/1/4
f 354/2/4 356/2/4 362/2/4
f 360/1/4 361/1/4 362/1/4
f 353/2/4 337/2/4 363/2/4
f 362/1/4 361/1/4 363/1/4
f 361/1/4 353/1/4 363/1/4
f 354/2/4 362/2/4 364/2/4
f 352/1/4 354/1/4 364/1/4
f 362/2/4 363/2/4 364/2/4
f 364/2/4 363/2/4 365/2/4
f 358/1/4 359/1/4 366/1/4
f 324/2/4 358/2/4 366/2/4
f 359/2/4 352/2/4 367/2/4
f 366/1/4 359/1/4 367/1/4
f 364/1/4 365/1/4 368/1/4
f 367/2/4 352/2/4 368/2/4
f 352/1/4 364/1/4 368/1/4
f 365/2/4 363/2/4 369/2/4
f 368/1/4 365/1/4 369/1/4
f 363/2/4 337/2/4 370/2/4
f 369/2/4 363/2/4 370/2/4
f 370/2/4 337/2/4 371/2/4
f 324/2/4 366/2/4 372/2/4
f 367/2/4 368/2/4 372/2/4
f 369/2/4 370/2/4 372/2/4
f 366/2/4 367/2/4 372/2/4
f 368/2/4 369/2/4 372/2/4
f 372/2/4 370/2/4 373/2/4
f 372/1/4 373/1/4 374/1/4
f 373/2/4 370/2/4 375/2/4
f 374/1/4 373/1/4 375/1/4
f 324/2/4 372/2/4 376/2/4
f 372/1/4 374/1/4 376/1/4
f 374/2/4 375/2/4 377/2/4
f 376/1/4 374/1/4 377/1/4
f 323/1/4 324/1/4 378/1/4
f 324/2/4 376/2/4 379/2/4
f 378/1/4 324/1/4 379/1/4
f 376/2/4 377/2/4 379/2/4
f 377/2/4 375/2/4 380/2/4
f 379/2/4 377/2/4 380/2/4
f 375/2/4 370/2/4 380/2/4
f 384/1/5 382/1/5 381/1/5
f 385/1/5 382/1/5 384/1/5
f 388/1/5 384/1/5 383/1/5
f 388/1/5 386/1/5 385/1/5
f 388/1/5 385/1/5 384/1/5
f 389/1/5 386/1/5 388/1/5
f 392/1/5 388/1/5 387/1/5
f 392/1/5 390/1/5 389/1/5
f 392/1/5 389/1/5 388/1/5
f 393/1/5 390/1/5 392/1/5
f 395/1/5 392/1/5 391/1/5
f 395/1/5 394/1/5 393/1/5
f 395/1/5 393/1/5 392/1/5
f 396/1/5 394/1/5 395/1/5
f 397/1/5 394/1/5 396/1/5
f 398/1/5 394/1/5 397/1/5
f 399/1/5 397/1/5 396/1/5
f 400/1/5 397/1/5 399/1/5
f 401/1/5 397/1/5 400/1/5
f 402/1/5 397/1/5 401/1/5
f 403/1/5 401/1/5 400/1/5
f 404/1/5 401/1/5 403/1/5
f 405/1/5 401/1/5 404/1/5
f 406/1/5 401/1/5 405/1/5
f 407/1/5 405/1/5 404/1/5
f 408/1/5 405/1/5 407/1/5
f 409/2/6 410/2/6 414/2/6
f 411/2/6 412/2/6 415/2/6
f 413/2/6 414/2/6 418/2/6
f 415/2/6 416/2/6 419/2/6
f 417/2/6 418/2/6 421/2/6
f 418/2/6 414/2/6 422/2/6
f 421/2/6 418/2/6 422/2/6
f 419/2/6 420/2/6 423/2/6
f 415/2/6 419/2/6 423/2/6
f 423/2/6 420/2/6 424/2/6
f 422/2/6 414/2/6 425/2/6
f 414/2/6 410/2/6 426/2/6
f 425/2/6 414/2/6 426/2/6
f 411/2/6 415/2/6 427/2/6
f 415/2/6 423/2/6 427/2/6
f 427/2/6 423/2/6 428/2/6
f 426/2/6 410/2/6 429/2/6
f 429/2/6 410/2/6 430/2/6
f 411/2/6 427/2/6 431/2/6
f 431/2/6 427/2/6 432/2/6
f 433/1/6 434/1/6 437/1/6
f 437/1/6 434/1/6 438/1/6
f 435/1/6 436/1/6 439/1/6
f 439/1/6 436/1/6 440/1/6
f 441/2/6 442/2/6 445/2/6
f 445/2/6 442/2/6 446/2/6
f 443/2/6 444/2/6 447/2/6
f 447/2/6 444/2/6 448/2/6
f 449/2/6 450/2/6 453/2/6
f 451/2/6 452/2/6 453/2/6
f 450/2/6 451/2/6 453/2/6
f 453/2/6 452/2/6 454/2/6
f 454/2/6 452/2/6 455/2/6
f 455/2/6 452/2/6 456/2/6
f 457/2/6 458/2/6 461/2/6
f 461/2/6 458/2/6 462/2/6
f 459/2/6 460/2/6 463/2/6
f 463/2/6 460/2/6 464/2/6
f 465/1/6 466/1/6 469/1/6
f 469/1/6 466/1/6 470/1/6
f 467/1/6 468/1/6 471/1/6
f 471/1/6 468/1/6 472/1/6
f 473/1/6 474/1/6 477/1/6
f 477/1/6 474/1/6 478/1/6
f 475/1/6 476/1/6 479/1/6
f 479/1/6 476/1/6 480/1/6
f 481/2/6 482/2/6 483/2/6
f 483/2/6 482/2/6 484/2/6
f 485/2/6 486/2/6 487/2/6
f 487/2/6 486/2/6 488/2/6
f 489/1/6 490/1/6 491/1/6
f 491/1/6 490/1/6 492/1/6
f 493/1/6 494/1/6 495/1/6
f 495/1/6 494/1/6 496/1/6
