# MagicaVoxel @ Ephtracy

# group
o 

# material
mtllib model-1.mtl
usemtl palette

# normals
vn -1 0 0
vn 1 0 0
vn 0 0 1
vn 0 0 -1
vn 0 -1 0
vn 0 1 0

# texcoords
vt 0.541016 0.5
vt 0.544922 0.5

# verts
v -1 2.9 1.1
v -1 2.9 0.7
v -1 2.9 0.6
v -1 2.9 0.2
v -1 2.9 0.1
v -1 2.9 -0.0999999
v -1 2.9 -0.2
v -1 2.9 -0.6
v -1 2.9 -0.7
v -1 2.9 -1.1
v -1 3.6 0.2
v -1 3.6 0.1
v -1 3.8 0.4
v -1 3.8 0.3
v -1 4.1 -0.0999999
v -1 4.1 -0.2
v -1 4.3 -0.6
v -1 4.3 -0.7
v -1 4.4 -0.3
v -1 4.4 -0.4
v -1 4.6 -0.7
v -1 4.6 -0.8
v -1 4.7 0.7
v -1 4.7 0.6
v -1 5 0.8
v -1 5 0.7
v -1 5.7 1.1
v -1 5.7 0.8
v -1 5.7 0.7
v -1 5.7 0.4
v -1 5.7 0.3
v -1 5.7 -0.3
v -1 5.7 -0.4
v -1 5.7 -0.7
v -1 5.7 -0.8
v -1 5.7 -1.1
v -0.8 2.9 1.3
v -0.8 2.9 1.1
v -0.8 2.9 -1.1
v -0.8 2.9 -1.3
v -0.8 3.9 1.1
v -0.8 3.9 -1.1
v -0.8 4.8 1.1
v -0.8 4.8 -1.1
v -0.8 5.7 1.3
v -0.8 5.7 1.1
v -0.8 5.7 -1.1
v -0.8 5.7 -1.3
v 0.2 3.7 1.3
v 0.2 3.7 1.1
v 0.2 3.7 -1.1
v 0.2 3.7 -1.3
v 0.2 4.2 1.1
v 0.2 4.2 1
v 0.2 4.2 -1
v 0.2 4.2 -1.1
v 0.2 4.4 1.3
v 0.2 4.4 1
v 0.2 4.4 -1
v 0.2 4.4 -1.3
v -0.4 2.9 1
v -0.4 2.9 -1
v -0.4 5.6 1
v -0.4 5.6 -1
v 0 2.9 1.3
v 0 2.9 1
v 0 2.9 -1
v 0 2.9 -1.3
v 0 4.4 1.3
v 0 4.4 1
v 0 4.4 -1
v 0 4.4 -1.3
v 0.5 3.7 1.3
v 0.5 3.7 1.1
v 0.5 3.7 -1.1
v 0.5 3.7 -1.3
v 0.5 4.2 1.2
v 0.5 4.2 1.1
v 0.5 4.2 -1.1
v 0.5 4.2 -1.2
v 0.5 5.5 1.2
v 0.5 5.5 -1.2
v 0.5 5.7 1.3
v 0.5 5.7 1.2
v 0.5 5.7 -1.2
v 0.5 5.7 -1.3
v 0.8 4.2 1.2
v 0.8 4.2 1
v 0.8 4.2 -1
v 0.8 4.2 -1.2
v 0.8 5 1.2
v 0.8 5 1
v 0.8 5 -1
v 0.8 5 -1.2
v 0.8 5.6 0.5
v 0.8 5.6 -0.5
v 0.8 5.7 0.5
v 0.8 5.7 -0.5
v 1 5 1.2
v 1 5 1
v 1 5 -1
v 1 5 -1.2
v 1 5.6 1
v 1 5.6 0.5
v 1 5.6 -0.5
v 1 5.6 -1
v 1 5.7 1.2
v 1 5.7 0.5
v 1 5.7 -0.5
v 1 5.7 -1.2
v -0.8 2.9 1.3
v -0.8 5.7 1.3
v -0.6 3.4 1.3
v -0.6 5.1 1.3
v -0.5 3.4 1.3
v -0.5 5.1 1.3
v -0.3 2.9 1.3
v -0.3 4 1.3
v -0.3 4.5 1.3
v -0.3 5.5 1.3
v -0.2 2.9 1.3
v -0.2 4 1.3
v -0.2 4.5 1.3
v -0.2 5.5 1.3
v 0 2.9 1.3
v 0 4.4 1.3
v 0.1 5.1 1.3
v 0.1 5.7 1.3
v 0.2 3.7 1.3
v 0.2 4.4 1.3
v 0.2 5.1 1.3
v 0.2 5.7 1.3
v 0.5 3.7 1.3
v 0.5 5.7 1.3
v 0.5 4.2 1.2
v 0.5 5.5 1.2
v 0.5 5.7 1.2
v 0.6 4.2 1.2
v 0.6 5.5 1.2
v 0.8 4.2 1.2
v 0.8 5 1.2
v 1 5 1.2
v 1 5.7 1.2
v -1 2.9 1.1
v -1 5.7 1.1
v -0.9 2.9 1.1
v -0.9 3.9 1.1
v -0.9 4.8 1.1
v -0.9 5.7 1.1
v -0.8 2.9 1.1
v -0.8 3.9 1.1
v -0.8 4.8 1.1
v -0.8 5.7 1.1
v 0.8 5.6 -0.5
v 0.8 5.7 -0.5
v 1 5.6 -0.5
v 1 5.7 -0.5
v -0.4 2.9 -1
v -0.4 5.6 -1
v 0 2.9 -1
v 0 4.4 -1
v 0.2 4.2 -1
v 0.2 4.4 -1
v 0.8 4.2 -1
v 0.8 5 -1
v 1 5 -1
v 1 5.6 -1
v 0.2 3.7 -1.1
v 0.2 4.2 -1.1
v 0.5 3.7 -1.1
v 0.5 4.2 -1.1
v 0.2 3.7 1.1
v 0.2 4.2 1.1
v 0.5 3.7 1.1
v 0.5 4.2 1.1
v -0.4 2.9 1
v -0.4 5.6 1
v 0 2.9 1
v 0 4.4 1
v 0.2 4.2 1
v 0.2 4.4 1
v 0.8 4.2 1
v 0.8 5 1
v 1 5 1
v 1 5.6 1
v 0.8 5.6 0.5
v 0.8 5.7 0.5
v 1 5.6 0.5
v 1 5.7 0.5
v -1 2.9 -1.1
v -1 5.7 -1.1
v -0.9 2.9 -1.1
v -0.9 3.9 -1.1
v -0.9 4.8 -1.1
v -0.9 5.7 -1.1
v -0.8 2.9 -1.1
v -0.8 3.9 -1.1
v -0.8 4.8 -1.1
v -0.8 5.7 -1.1
v 0.5 4.2 -1.2
v 0.5 5.5 -1.2
v 0.5 5.7 -1.2
v 0.6 4.2 -1.2
v 0.6 5.5 -1.2
v 0.8 4.2 -1.2
v 0.8 5 -1.2
v 1 5 -1.2
v 1 5.7 -1.2
v -0.8 2.9 -1.3
v -0.8 5.7 -1.3
v -0.6 3.4 -1.3
v -0.6 5.1 -1.3
v -0.5 3.4 -1.3
v -0.5 5.1 -1.3
v -0.3 2.9 -1.3
v -0.3 4 -1.3
v -0.3 4.5 -1.3
v -0.3 5.5 -1.3
v -0.2 2.9 -1.3
v -0.2 4 -1.3
v -0.2 4.5 -1.3
v -0.2 5.5 -1.3
v 0 2.9 -1.3
v 0 4.4 -1.3
v 0.1 5.1 -1.3
v 0.1 5.7 -1.3
v 0.2 3.7 -1.3
v 0.2 4.4 -1.3
v 0.2 5.1 -1.3
v 0.2 5.7 -1.3
v 0.5 3.7 -1.3
v 0.5 5.7 -1.3
v -0.8 2.9 1.3
v -0.3 2.9 1.3
v -0.2 2.9 1.3
v 0 2.9 1.3
v -0.3 2.9 1.2
v -0.2 2.9 1.2
v -1 2.9 1.1
v -0.9 2.9 1.1
v -0.8 2.9 1.1
v -0.9 2.9 1
v -0.8 2.9 1
v -0.4 2.9 1
v 0 2.9 1
v -1 2.9 0.7
v -0.9 2.9 0.7
v -1 2.9 0.6
v -0.9 2.9 0.6
v -1 2.9 0.2
v -0.9 2.9 0.2
v -1 2.9 0.1
v -0.9 2.9 0.1
v -1 2.9 -0.0999999
v -0.9 2.9 -0.0999999
v -1 2.9 -0.2
v -0.9 2.9 -0.2
v -1 2.9 -0.6
v -0.9 2.9 -0.6
v -1 2.9 -0.7
v -0.9 2.9 -0.7
v -0.9 2.9 -1
v -0.8 2.9 -1
v -0.4 2.9 -1
v 0 2.9 -1
v -1 2.9 -1.1
v -0.9 2.9 -1.1
v -0.8 2.9 -1.1
v -0.3 2.9 -1.2
v -0.2 2.9 -1.2
v -0.8 2.9 -1.3
v -0.3 2.9 -1.3
v -0.2 2.9 -1.3
v 0 2.9 -1.3
v 0.2 3.7 1.3
v 0.5 3.7 1.3
v 0.2 3.7 1.1
v 0.5 3.7 1.1
v 0.2 3.7 -1.1
v 0.5 3.7 -1.1
v 0.2 3.7 -1.3
v 0.5 3.7 -1.3
v 0.5 4.2 1.2
v 0.6 4.2 1.2
v 0.8 4.2 1.2
v 0.2 4.2 1.1
v 0.5 4.2 1.1
v 0.6 4.2 1.1
v 0.2 4.2 1
v 0.8 4.2 1
v 0.2 4.2 -1
v 0.8 4.2 -1
v 0.2 4.2 -1.1
v 0.5 4.2 -1.1
v 0.6 4.2 -1.1
v 0.5 4.2 -1.2
v 0.6 4.2 -1.2
v 0.8 4.2 -1.2
v 0 4.4 1.3
v 0.2 4.4 1.3
v 0 4.4 1
v 0.2 4.4 1
v 0 4.4 -1
v 0.2 4.4 -1
v 0 4.4 -1.3
v 0.2 4.4 -1.3
v 0.8 5 1.2
v 1 5 1.2
v 0.8 5 1
v 1 5 1
v 0.8 5 -1
v 1 5 -1
v 0.8 5 -1.2
v 1 5 -1.2
v -0.4 5.6 1
v 1 5.6 1
v 0.8 5.6 0.5
v 1 5.6 0.5
v 0.8 5.6 -0.5
v 1 5.6 -0.5
v -0.4 5.6 -1
v 1 5.6 -1
v -0.8 5.7 1.3
v 0.1 5.7 1.3
v 0.2 5.7 1.3
v 0.5 5.7 1.3
v 0.1 5.7 1.2
v 0.2 5.7 1.2
v 0.5 5.7 1.2
v 1 5.7 1.2
v -1 5.7 1.1
v -0.9 5.7 1.1
v -0.8 5.7 1.1
v -0.9 5.7 1
v -0.8 5.7 1
v -1 5.7 0.8
v -0.9 5.7 0.8
v -1 5.7 0.7
v -0.9 5.7 0.7
v 0.8 5.7 0.5
v 1 5.7 0.5
v -1 5.7 0.4
v -0.9 5.7 0.4
v -1 5.7 0.3
v -0.9 5.7 0.3
v -1 5.7 -0.3
v -0.9 5.7 -0.3
v -1 5.7 -0.4
v -0.9 5.7 -0.4
v 0.8 5.7 -0.5
v 1 5.7 -0.5
v -1 5.7 -0.7
v -0.9 5.7 -0.7
v -1 5.7 -0.8
v -0.9 5.7 -0.8
v -0.9 5.7 -1
v -0.8 5.7 -1
v -1 5.7 -1.1
v -0.9 5.7 -1.1
v -0.8 5.7 -1.1
v 0.1 5.7 -1.2
v 0.2 5.7 -1.2
v 0.5 5.7 -1.2
v 1 5.7 -1.2
v -0.8 5.7 -1.3
v 0.1 5.7 -1.3
v 0.2 5.7 -1.3
v 0.5 5.7 -1.3

# faces
f 11/2/1 4/2/1 3/2/1
f 11/1/1 5/1/1 4/1/1
f 12/2/1 6/2/1 5/2/1
f 12/1/1 5/1/1 11/1/1
f 13/2/1 11/2/1 3/2/1
f 13/2/1 12/2/1 11/2/1
f 14/2/1 12/2/1 13/2/1
f 15/2/1 6/2/1 12/2/1
f 15/2/1 12/2/1 14/2/1
f 15/1/1 7/1/1 6/1/1
f 16/2/1 8/2/1 7/2/1
f 16/1/1 7/1/1 15/1/1
f 17/1/1 9/1/1 8/1/1
f 17/2/1 8/2/1 16/2/1
f 17/2/1 16/2/1 15/2/1
f 18/2/1 10/2/1 9/2/1
f 18/1/1 9/1/1 17/1/1
f 19/2/1 17/2/1 15/2/1
f 19/2/1 18/2/1 17/2/1
f 20/2/1 18/2/1 19/2/1
f 21/2/1 10/2/1 18/2/1
f 21/2/1 18/2/1 20/2/1
f 22/2/1 10/2/1 21/2/1
f 23/2/1 2/2/1 1/2/1
f 23/1/1 3/1/1 2/1/1
f 24/2/1 13/2/1 3/2/1
f 24/1/1 3/1/1 23/1/1
f 25/2/1 23/2/1 1/2/1
f 25/2/1 24/2/1 23/2/1
f 26/2/1 24/2/1 25/2/1
f 27/2/1 25/2/1 1/2/1
f 28/1/1 26/1/1 25/1/1
f 28/2/1 25/2/1 27/2/1
f 29/2/1 24/2/1 26/2/1
f 29/1/1 26/1/1 28/1/1
f 30/1/1 14/1/1 13/1/1
f 30/2/1 24/2/1 29/2/1
f 30/2/1 13/2/1 24/2/1
f 31/2/1 15/2/1 14/2/1
f 31/1/1 14/1/1 30/1/1
f 31/2/1 19/2/1 15/2/1
f 32/1/1 20/1/1 19/1/1
f 32/2/1 19/2/1 31/2/1
f 33/2/1 21/2/1 20/2/1
f 33/1/1 20/1/1 32/1/1
f 34/1/1 22/1/1 21/1/1
f 34/2/1 21/2/1 33/2/1
f 35/2/1 10/2/1 22/2/1
f 35/1/1 22/1/1 34/1/1
f 36/2/1 10/2/1 35/2/1
f 41/2/1 38/2/1 37/2/1
f 42/2/1 40/2/1 39/2/1
f 43/2/1 41/2/1 37/2/1
f 44/2/1 40/2/1 42/2/1
f 45/2/1 43/2/1 37/2/1
f 46/2/1 43/2/1 45/2/1
f 47/2/1 40/2/1 44/2/1
f 48/2/1 40/2/1 47/2/1
f 53/2/1 50/2/1 49/2/1
f 56/2/1 52/2/1 51/2/1
f 57/2/1 54/2/1 53/2/1
f 57/2/1 53/2/1 49/2/1
f 58/2/1 54/2/1 57/2/1
f 59/2/1 56/2/1 55/2/1
f 60/2/1 52/2/1 56/2/1
f 60/2/1 56/2/1 59/2/1
f 61/2/2 62/2/2 63/2/2
f 63/2/2 62/2/2 64/2/2
f 65/2/2 66/2/2 69/2/2
f 69/2/2 66/2/2 70/2/2
f 67/2/2 68/2/2 71/2/2
f 71/2/2 68/2/2 72/2/2
f 73/2/2 74/2/2 77/2/2
f 77/2/2 74/2/2 78/2/2
f 75/2/2 76/2/2 79/2/2
f 79/2/2 76/2/2 80/2/2
f 73/2/2 77/2/2 81/2/2
f 80/2/2 76/2/2 82/2/2
f 73/2/2 81/2/2 83/2/2
f 83/2/2 81/2/2 84/2/2
f 82/2/2 76/2/2 85/2/2
f 85/2/2 76/2/2 86/2/2
f 87/2/2 88/2/2 91/2/2
f 91/2/2 88/2/2 92/2/2
f 89/2/2 90/2/2 93/2/2
f 93/2/2 90/2/2 94/2/2
f 95/2/2 96/2/2 97/2/2
f 97/2/2 96/2/2 98/2/2
f 99/2/2 100/2/2 103/2/2
f 101/2/2 102/2/2 106/2/2
f 103/2/2 104/2/2 107/2/2
f 99/2/2 103/2/2 107/2/2
f 107/2/2 104/2/2 108/2/2
f 105/2/2 106/2/2 109/2/2
f 106/2/2 102/2/2 110/2/2
f 109/2/2 106/2/2 110/2/2
f 113/2/3 112/2/3 111/2/3
f 114/2/3 112/2/3 113/2/3
f 115/2/3 113/2/3 111/2/3
f 115/1/3 114/1/3 113/1/3
f 116/2/3 112/2/3 114/2/3
f 116/1/3 114/1/3 115/1/3
f 117/2/3 115/2/3 111/2/3
f 117/2/3 116/2/3 115/2/3
f 118/2/3 116/2/3 117/2/3
f 119/2/3 116/2/3 118/2/3
f 120/2/3 112/2/3 116/2/3
f 120/2/3 116/2/3 119/2/3
f 121/1/3 118/1/3 117/1/3
f 122/2/3 119/2/3 118/2/3
f 122/1/3 118/1/3 121/1/3
f 123/1/3 120/1/3 119/1/3
f 123/2/3 119/2/3 122/2/3
f 124/2/3 112/2/3 120/2/3
f 124/1/3 120/1/3 123/1/3
f 125/2/3 123/2/3 122/2/3
f 125/2/3 122/2/3 121/2/3
f 125/2/3 124/2/3 123/2/3
f 126/2/3 124/2/3 125/2/3
f 127/2/3 124/2/3 126/2/3
f 128/2/3 112/2/3 124/2/3
f 128/2/3 124/2/3 127/2/3
f 130/2/3 127/2/3 126/2/3
f 131/1/3 128/1/3 127/1/3
f 131/2/3 127/2/3 130/2/3
f 132/1/3 128/1/3 131/1/3
f 133/2/3 130/2/3 129/2/3
f 133/2/3 131/2/3 130/2/3
f 133/2/3 132/2/3 131/2/3
f 134/2/3 132/2/3 133/2/3
f 138/1/3 136/1/3 135/1/3
f 139/2/3 137/2/3 136/2/3
f 139/1/3 136/1/3 138/1/3
f 140/2/3 139/2/3 138/2/3
f 141/2/3 139/2/3 140/2/3
f 142/2/3 139/2/3 141/2/3
f 143/2/3 137/2/3 139/2/3
f 143/2/3 139/2/3 142/2/3
f 146/2/3 145/2/3 144/2/3
f 147/2/3 145/2/3 146/2/3
f 148/2/3 145/2/3 147/2/3
f 149/2/3 145/2/3 148/2/3
f 150/1/3 147/1/3 146/1/3
f 151/2/3 148/2/3 147/2/3
f 151/1/3 147/1/3 150/1/3
f 152/1/3 149/1/3 148/1/3
f 152/2/3 148/2/3 151/2/3
f 153/1/3 149/1/3 152/1/3
f 156/2/3 155/2/3 154/2/3
f 157/2/3 155/2/3 156/2/3
f 160/2/3 159/2/3 158/2/3
f 161/2/3 159/2/3 160/2/3
f 163/2/3 159/2/3 161/2/3
f 164/2/3 163/2/3 162/2/3
f 165/2/3 159/2/3 163/2/3
f 165/2/3 163/2/3 164/2/3
f 166/2/3 159/2/3 165/2/3
f 167/2/3 159/2/3 166/2/3
f 170/2/3 169/2/3 168/2/3
f 171/2/3 169/2/3 170/2/3
f 172/2/4 173/2/4 174/2/4
f 174/2/4 173/2/4 175/2/4
f 176/2/4 177/2/4 178/2/4
f 178/2/4 177/2/4 179/2/4
f 179/2/4 177/2/4 181/2/4
f 180/2/4 181/2/4 182/2/4
f 181/2/4 177/2/4 183/2/4
f 182/2/4 181/2/4 183/2/4
f 183/2/4 177/2/4 184/2/4
f 184/2/4 177/2/4 185/2/4
f 186/2/4 187/2/4 188/2/4
f 188/2/4 187/2/4 189/2/4
f 190/2/4 191/2/4 192/2/4
f 192/2/4 191/2/4 193/2/4
f 193/2/4 191/2/4 194/2/4
f 194/2/4 191/2/4 195/2/4
f 192/1/4 193/1/4 196/1/4
f 193/2/4 194/2/4 197/2/4
f 196/1/4 193/1/4 197/1/4
f 194/1/4 195/1/4 198/1/4
f 197/2/4 194/2/4 198/2/4
f 198/1/4 195/1/4 199/1/4
f 200/1/4 201/1/4 203/1/4
f 201/2/4 202/2/4 204/2/4
f 203/1/4 201/1/4 204/1/4
f 203/2/4 204/2/4 205/2/4
f 205/2/4 204/2/4 206/2/4
f 206/2/4 204/2/4 207/2/4
f 204/2/4 202/2/4 208/2/4
f 207/2/4 204/2/4 208/2/4
f 209/2/4 210/2/4 211/2/4
f 211/2/4 210/2/4 212/2/4
f 209/2/4 211/2/4 213/2/4
f 211/1/4 212/1/4 213/1/4
f 212/2/4 210/2/4 214/2/4
f 213/1/4 212/1/4 214/1/4
f 209/2/4 213/2/4 215/2/4
f 213/2/4 214/2/4 215/2/4
f 215/2/4 214/2/4 216/2/4
f 216/2/4 214/2/4 217/2/4
f 214/2/4 210/2/4 218/2/4
f 217/2/4 214/2/4 218/2/4
f 215/1/4 216/1/4 219/1/4
f 216/2/4 217/2/4 220/2/4
f 219/1/4 216/1/4 220/1/4
f 217/1/4 218/1/4 221/1/4
f 220/2/4 217/2/4 221/2/4
f 218/2/4 210/2/4 222/2/4
f 221/1/4 218/1/4 222/1/4
f 220/2/4 221/2/4 223/2/4
f 219/2/4 220/2/4 223/2/4
f 221/2/4 222/2/4 223/2/4
f 223/2/4 222/2/4 224/2/4
f 224/2/4 222/2/4 225/2/4
f 222/2/4 210/2/4 226/2/4
f 225/2/4 222/2/4 226/2/4
f 224/2/4 225/2/4 228/2/4
f 225/1/4 226/1/4 229/1/4
f 228/2/4 225/2/4 229/2/4
f 229/1/4 226/1/4 230/1/4
f 227/2/4 228/2/4 231/2/4
f 228/2/4 229/2/4 231/2/4
f 229/2/4 230/2/4 231/2/4
f 231/2/4 230/2/4 232/2/4
f 237/2/5 234/2/5 233/2/5
f 237/1/5 235/1/5 234/1/5
f 238/2/5 236/2/5 235/2/5
f 238/1/5 235/1/5 237/1/5
f 241/2/5 237/2/5 233/2/5
f 241/2/5 238/2/5 237/2/5
f 242/2/5 240/2/5 239/2/5
f 242/1/5 241/1/5 240/1/5
f 243/2/5 238/2/5 241/2/5
f 243/1/5 241/1/5 242/1/5
f 244/2/5 238/2/5 243/2/5
f 245/2/5 236/2/5 238/2/5
f 245/2/5 238/2/5 244/2/5
f 246/2/5 242/2/5 239/2/5
f 246/2/5 244/2/5 243/2/5
f 246/2/5 243/2/5 242/2/5
f 247/2/5 244/2/5 246/2/5
f 248/1/5 247/1/5 246/1/5
f 249/2/5 244/2/5 247/2/5
f 249/1/5 247/1/5 248/1/5
f 250/2/5 249/2/5 248/2/5
f 251/2/5 244/2/5 249/2/5
f 251/2/5 249/2/5 250/2/5
f 252/1/5 251/1/5 250/1/5
f 253/2/5 244/2/5 251/2/5
f 253/1/5 251/1/5 252/1/5
f 254/2/5 253/2/5 252/2/5
f 255/2/5 244/2/5 253/2/5
f 255/2/5 253/2/5 254/2/5
f 256/1/5 255/1/5 254/1/5
f 257/2/5 244/2/5 255/2/5
f 257/1/5 255/1/5 256/1/5
f 258/2/5 257/2/5 256/2/5
f 259/2/5 244/2/5 257/2/5
f 259/2/5 257/2/5 258/2/5
f 260/1/5 259/1/5 258/1/5
f 261/2/5 244/2/5 259/2/5
f 261/1/5 259/1/5 260/1/5
f 262/2/5 261/2/5 260/2/5
f 262/2/5 244/2/5 261/2/5
f 263/2/5 244/2/5 262/2/5
f 264/2/5 244/2/5 263/2/5
f 266/2/5 262/2/5 260/2/5
f 267/1/5 263/1/5 262/1/5
f 267/2/5 262/2/5 266/2/5
f 268/2/5 265/2/5 264/2/5
f 268/1/5 263/1/5 267/1/5
f 268/2/5 264/2/5 263/2/5
f 269/2/5 265/2/5 268/2/5
f 270/2/5 265/2/5 269/2/5
f 271/2/5 269/2/5 268/2/5
f 272/1/5 270/1/5 269/1/5
f 272/2/5 269/2/5 271/2/5
f 273/2/5 265/2/5 270/2/5
f 273/1/5 270/1/5 272/1/5
f 274/2/5 265/2/5 273/2/5
f 277/2/5 276/2/5 275/2/5
f 278/2/5 276/2/5 277/2/5
f 281/2/5 280/2/5 279/2/5
f 282/2/5 280/2/5 281/2/5
f 287/1/5 284/1/5 283/1/5
f 288/2/5 285/2/5 284/2/5
f 288/1/5 284/1/5 287/1/5
f 289/2/5 287/2/5 286/2/5
f 289/2/5 288/2/5 287/2/5
f 290/2/5 285/2/5 288/2/5
f 290/2/5 288/2/5 289/2/5
f 293/2/5 292/2/5 291/2/5
f 294/2/5 292/2/5 293/2/5
f 295/2/5 292/2/5 294/2/5
f 296/1/5 295/1/5 294/1/5
f 297/2/5 292/2/5 295/2/5
f 297/1/5 295/1/5 296/1/5
f 298/2/5 292/2/5 297/2/5
f 301/2/5 300/2/5 299/2/5
f 302/2/5 300/2/5 301/2/5
f 305/2/5 304/2/5 303/2/5
f 306/2/5 304/2/5 305/2/5
f 309/2/5 308/2/5 307/2/5
f 310/2/5 308/2/5 309/2/5
f 313/2/5 312/2/5 311/2/5
f 314/2/5 312/2/5 313/2/5
f 317/2/5 316/2/5 315/2/5
f 318/2/5 316/2/5 317/2/5
f 319/2/5 317/2/5 315/2/5
f 321/2/5 319/2/5 315/2/5
f 321/2/5 320/2/5 319/2/5
f 322/2/5 320/2/5 321/2/5
f 323/2/6 324/2/6 327/2/6
f 324/1/6 325/1/6 327/1/6
f 325/2/6 326/2/6 328/2/6
f 327/1/6 325/1/6 328/1/6
f 328/2/6 326/2/6 329/2/6
f 323/2/6 327/2/6 333/2/6
f 327/2/6 328/2/6 333/2/6
f 329/2/6 330/2/6 333/2/6
f 328/2/6 329/2/6 333/2/6
f 331/2/6 332/2/6 334/2/6
f 332/1/6 333/1/6 334/1/6
f 333/2/6 330/2/6 335/2/6
f 334/1/6 333/1/6 335/1/6
f 331/2/6 334/2/6 336/2/6
f 334/2/6 335/2/6 336/2/6
f 336/2/6 335/2/6 337/2/6
f 336/1/6 337/1/6 338/1/6
f 337/2/6 335/2/6 339/2/6
f 338/1/6 337/1/6 339/1/6
f 335/2/6 330/2/6 340/2/6
f 339/2/6 335/2/6 340/2/6
f 338/2/6 339/2/6 340/2/6
f 340/2/6 330/2/6 341/2/6
f 338/2/6 340/2/6 342/2/6
f 342/2/6 340/2/6 343/2/6
f 342/1/6 343/1/6 344/1/6
f 343/2/6 340/2/6 345/2/6
f 344/1/6 343/1/6 345/1/6
f 344/2/6 345/2/6 346/2/6
f 345/2/6 340/2/6 347/2/6
f 346/2/6 345/2/6 347/2/6
f 346/1/6 347/1/6 348/1/6
f 347/2/6 340/2/6 349/2/6
f 348/1/6 347/1/6 349/1/6
f 348/2/6 349/2/6 350/2/6
f 349/2/6 340/2/6 350/2/6
f 348/2/6 350/2/6 352/2/6
f 350/2/6 351/2/6 352/2/6
f 352/2/6 351/2/6 353/2/6
f 352/1/6 353/1/6 354/1/6
f 353/2/6 351/2/6 355/2/6
f 354/1/6 353/1/6 355/1/6
f 354/2/6 355/2/6 356/2/6
f 355/2/6 351/2/6 356/2/6
f 356/2/6 351/2/6 357/2/6
f 354/2/6 356/2/6 358/2/6
f 356/1/6 357/1/6 359/1/6
f 358/2/6 356/2/6 359/2/6
f 357/2/6 351/2/6 360/2/6
f 359/1/6 357/1/6 360/1/6
f 360/2/6 351/2/6 361/2/6
f 361/2/6 351/2/6 362/2/6
f 362/2/6 351/2/6 363/2/6
f 363/2/6 351/2/6 364/2/6
f 360/2/6 361/2/6 365/2/6
f 361/1/6 362/1/6 366/1/6
f 365/2/6 361/2/6 366/2/6
f 362/2/6 363/2/6 367/2/6
f 366/1/6 362/1/6 367/1/6
f 367/2/6 363/2/6 368/2/6
