# MagicaVoxel @ Ephtracy

# group
o 

# material
mtllib model-0.mtl
usemtl palette

# normals
vn -1 0 0
vn 1 0 0
vn 0 0 1
vn 0 0 -1
vn 0 -1 0
vn 0 1 0

# texcoords
vt 0.669922 0.5
vt 0.673828 0.5
vt 0.677734 0.5
vt 0.681641 0.5
vt 0.822266 0.5

# verts
v -0.4 4.2 2.7
v -0.4 4.2 2.6
v -0.4 4.4 2.8
v -0.4 4.4 2.7
v -0.4 4.4 2.6
v -0.4 4.4 2.5
v -0.4 4.5 2.8
v -0.4 4.5 2.7
v -0.4 4.5 2.6
v -0.4 4.5 2.5
v -0.4 4.8 2.9
v -0.4 4.8 2.7
v -0.4 4.8 2.6
v -0.4 4.8 2.4
v -0.4 4.9 2.8
v -0.4 4.9 2.5
v -0.4 5.2 2.9
v -0.4 5.2 2.8
v -0.4 5.2 2.5
v -0.4 5.2 2.4
v -0.3 4.6 3
v -0.3 4.6 2.7
v -0.3 4.6 2.6
v -0.3 4.6 2.3
v -0.3 4.8 2.9
v -0.3 4.8 2.7
v -0.3 4.8 2.6
v -0.3 4.8 2.4
v -0.3 4.9 2.8
v -0.3 4.9 2.5
v -0.3 5.1 3
v -0.3 5.1 2.9
v -0.3 5.1 2.8
v -0.3 5.1 2.5
v -0.3 5.1 2.4
v -0.3 5.1 2.3
v -0.2 3.7 2.8
v -0.2 3.7 2.5
v -0.2 3.8 2.8
v -0.2 3.8 2.5
v -0.2 3.9 2.8
v -0.2 3.9 2.5
v -0.2 4 2.8
v -0.2 4 2.5
v -0.2 4.1 2.8
v -0.2 4.1 2.5
v -0.2 4.2 2.7
v -0.2 4.2 2.6
v -0.2 4.3 2.8
v -0.2 4.3 2.7
v -0.2 4.3 2.6
v -0.2 4.3 2.5
v -0.2 4.4 2.9
v -0.2 4.4 2.4
v -0.2 4.6 2.9
v -0.2 4.6 2.4
v -0.2 4.8 3.1
v -0.2 4.8 3
v -0.2 4.8 2.3
v -0.2 4.8 2.2
v -0.2 5.1 3
v -0.2 5.1 2.9
v -0.2 5.1 2.4
v -0.2 5.1 2.3
v -0.2 5.2 3.1
v -0.2 5.2 3
v -0.2 5.2 2.9
v -0.2 5.2 2.4
v -0.2 5.2 2.3
v -0.2 5.2 2.2
v -0.2 5.3 2.9
v -0.2 5.3 2.4
v -0.1 0.4 2.7
v -0.1 0.4 2.6
v -0.1 3.7 2.9
v -0.1 3.7 2.8
v -0.1 3.7 2.7
v -0.1 3.7 2.6
v -0.1 3.7 2.5
v -0.1 3.7 2.4
v -0.1 3.8 2.9
v -0.1 3.8 2.8
v -0.1 3.8 2.5
v -0.1 3.8 2.4
v -0.1 3.9 2.9
v -0.1 3.9 2.8
v -0.1 3.9 2.5
v -0.1 3.9 2.4
v -0.1 4 2.9
v -0.1 4 2.8
v -0.1 4 2.5
v -0.1 4 2.4
v -0.1 4.1 2.9
v -0.1 4.1 2.8
v -0.1 4.1 2.5
v -0.1 4.1 2.4
v -0.1 4.3 2.9
v -0.1 4.3 2.8
v -0.1 4.3 2.5
v -0.1 4.3 2.4
v -0.1 4.4 3.1
v -0.1 4.4 3
v -0.1 4.4 2.8
v -0.1 4.4 2.5
v -0.1 4.4 2.3
v -0.1 4.4 2.2
v -0.1 4.5 3.1
v -0.1 4.5 3
v -0.1 4.5 2.3
v -0.1 4.5 2.2
v -0.1 5.3 2.8
v -0.1 5.3 2.7
v -0.1 5.3 2.6
v -0.1 5.3 2.5
v -0.1 5.4 2.8
v -0.1 5.4 2.7
v -0.1 5.4 2.6
v -0.1 5.4 2.5
v 0 0.4 2.8
v 0 0.4 2.7
v 0 0.4 2.6
v 0 0.4 2.5
v 0 3.7 2.8
v 0 3.7 2.7
v 0 3.7 2.6
v 0 3.7 2.5
v 0 4.2 3.1
v 0 4.2 2.9
v 0 4.2 2.4
v 0 4.2 2.2
v 0 4.3 3
v 0 4.3 2.9
v 0 4.3 2.4
v 0 4.3 2.3
v 0 4.4 3.1
v 0 4.4 3
v 0 4.4 2.3
v 0 4.4 2.2
v 0 4.5 3.1
v 0 4.5 3
v 0 4.5 2.3
v 0 4.5 2.2
v 0 4.6 3
v 0 4.6 2.3
v 0 4.8 3.1
v 0 4.8 3
v 0 4.8 2.3
v 0 4.8 2.2
v 0.2 4.9 3.1
v 0.2 4.9 3
v 0.2 4.9 2.3
v 0.2 4.9 2.2
v 0.2 5.1 3
v 0.2 5.1 2.3
v 0.2 5.2 3.1
v 0.2 5.2 3
v 0.2 5.2 2.3
v 0.2 5.2 2.2
v 0.4 4.3 2.7
v 0.4 4.3 2.6
v 0.4 4.4 2.8
v 0.4 4.4 2.7
v 0.4 4.4 2.6
v 0.4 4.4 2.5
v 0.4 4.5 2.8
v 0.4 4.5 2.7
v 0.4 4.5 2.6
v 0.4 4.5 2.5
v 0.4 4.6 2.7
v 0.4 4.6 2.6
v 0.4 5.1 2.9
v 0.4 5.1 2.8
v 0.4 5.1 2.5
v 0.4 5.1 2.4
v 0.4 5.2 2.9
v 0.4 5.2 2.8
v 0.4 5.2 2.5
v 0.4 5.2 2.4
v -0.3 4.3 2.7
v -0.3 4.3 2.6
v -0.3 4.4 2.8
v -0.3 4.4 2.7
v -0.3 4.4 2.6
v -0.3 4.4 2.5
v -0.3 4.5 2.8
v -0.3 4.5 2.7
v -0.3 4.5 2.6
v -0.3 4.5 2.5
v -0.3 4.6 2.7
v -0.3 4.6 2.6
v -0.3 5.1 2.9
v -0.3 5.1 2.8
v -0.3 5.1 2.5
v -0.3 5.1 2.4
v -0.3 5.2 2.9
v -0.3 5.2 2.8
v -0.3 5.2 2.5
v -0.3 5.2 2.4
v -0.1 4.9 3.1
v -0.1 4.9 3
v -0.1 4.9 2.3
v -0.1 4.9 2.2
v -0.1 5.1 3
v -0.1 5.1 2.3
v -0.1 5.2 3.1
v -0.1 5.2 3
v -0.1 5.2 2.3
v -0.1 5.2 2.2
v 0.1 0.4 2.8
v 0.1 0.4 2.7
v 0.1 0.4 2.6
v 0.1 0.4 2.5
v 0.1 3.7 2.8
v 0.1 3.7 2.7
v 0.1 3.7 2.6
v 0.1 3.7 2.5
v 0.1 4.2 3.1
v 0.1 4.2 2.9
v 0.1 4.2 2.4
v 0.1 4.2 2.2
v 0.1 4.3 3
v 0.1 4.3 2.9
v 0.1 4.3 2.4
v 0.1 4.3 2.3
v 0.1 4.4 3.1
v 0.1 4.4 3
v 0.1 4.4 2.3
v 0.1 4.4 2.2
v 0.1 4.5 3.1
v 0.1 4.5 3
v 0.1 4.5 2.3
v 0.1 4.5 2.2
v 0.1 4.6 3
v 0.1 4.6 2.3
v 0.1 4.8 3.1
v 0.1 4.8 3
v 0.1 4.8 2.3
v 0.1 4.8 2.2
v 0.2 0.4 2.7
v 0.2 0.4 2.6
v 0.2 3.7 2.9
v 0.2 3.7 2.8
v 0.2 3.7 2.7
v 0.2 3.7 2.6
v 0.2 3.7 2.5
v 0.2 3.7 2.4
v 0.2 3.8 2.9
v 0.2 3.8 2.8
v 0.2 3.8 2.5
v 0.2 3.8 2.4
v 0.2 3.9 2.9
v 0.2 3.9 2.8
v 0.2 3.9 2.5
v 0.2 3.9 2.4
v 0.2 4 2.9
v 0.2 4 2.8
v 0.2 4 2.5
v 0.2 4 2.4
v 0.2 4.1 2.9
v 0.2 4.1 2.8
v 0.2 4.1 2.5
v 0.2 4.1 2.4
v 0.2 4.3 2.9
v 0.2 4.3 2.8
v 0.2 4.3 2.5
v 0.2 4.3 2.4
v 0.2 4.4 3.1
v 0.2 4.4 3
v 0.2 4.4 2.8
v 0.2 4.4 2.5
v 0.2 4.4 2.3
v 0.2 4.4 2.2
v 0.2 4.5 3.1
v 0.2 4.5 3
v 0.2 4.5 2.3
v 0.2 4.5 2.2
v 0.2 5.3 2.8
v 0.2 5.3 2.7
v 0.2 5.3 2.6
v 0.2 5.3 2.5
v 0.2 5.4 2.8
v 0.2 5.4 2.7
v 0.2 5.4 2.6
v 0.2 5.4 2.5
v 0.3 3.7 2.8
v 0.3 3.7 2.5
v 0.3 3.8 2.8
v 0.3 3.8 2.5
v 0.3 3.9 2.8
v 0.3 3.9 2.5
v 0.3 4 2.8
v 0.3 4 2.5
v 0.3 4.1 2.8
v 0.3 4.1 2.5
v 0.3 4.2 2.7
v 0.3 4.2 2.6
v 0.3 4.3 2.8
v 0.3 4.3 2.7
v 0.3 4.3 2.6
v 0.3 4.3 2.5
v 0.3 4.4 2.9
v 0.3 4.4 2.4
v 0.3 4.6 2.9
v 0.3 4.6 2.4
v 0.3 4.8 3.1
v 0.3 4.8 3
v 0.3 4.8 2.3
v 0.3 4.8 2.2
v 0.3 5.1 3
v 0.3 5.1 2.9
v 0.3 5.1 2.4
v 0.3 5.1 2.3
v 0.3 5.2 3.1
v 0.3 5.2 3
v 0.3 5.2 2.9
v 0.3 5.2 2.4
v 0.3 5.2 2.3
v 0.3 5.2 2.2
v 0.3 5.3 2.9
v 0.3 5.3 2.4
v 0.4 4.6 3
v 0.4 4.6 2.7
v 0.4 4.6 2.6
v 0.4 4.6 2.3
v 0.4 4.8 2.9
v 0.4 4.8 2.7
v 0.4 4.8 2.6
v 0.4 4.8 2.4
v 0.4 4.9 2.8
v 0.4 4.9 2.5
v 0.4 5.1 3
v 0.4 5.1 2.9
v 0.4 5.1 2.8
v 0.4 5.1 2.5
v 0.4 5.1 2.4
v 0.4 5.1 2.3
v 0.5 4.2 2.7
v 0.5 4.2 2.6
v 0.5 4.4 2.8
v 0.5 4.4 2.7
v 0.5 4.4 2.6
v 0.5 4.4 2.5
v 0.5 4.5 2.8
v 0.5 4.5 2.7
v 0.5 4.5 2.6
v 0.5 4.5 2.5
v 0.5 4.8 2.9
v 0.5 4.8 2.7
v 0.5 4.8 2.6
v 0.5 4.8 2.4
v 0.5 4.9 2.8
v 0.5 4.9 2.5
v 0.5 5.2 2.9
v 0.5 5.2 2.8
v 0.5 5.2 2.5
v 0.5 5.2 2.4
v -0.2 4.8 3.1
v -0.2 5.2 3.1
v -0.1 4.4 3.1
v -0.1 4.5 3.1
v -0.1 4.9 3.1
v -0.1 5.2 3.1
v 0 4.2 3.1
v 0 4.4 3.1
v 0 4.5 3.1
v 0 4.8 3.1
v 0.1 4.2 3.1
v 0.1 4.4 3.1
v 0.1 4.5 3.1
v 0.1 4.8 3.1
v 0.2 4.4 3.1
v 0.2 4.5 3.1
v 0.2 4.9 3.1
v 0.2 5.2 3.1
v 0.3 4.8 3.1
v 0.3 5.2 3.1
v -0.3 4.6 3
v -0.3 5.1 3
v -0.2 4.8 3
v -0.2 5.1 3
v -0.1 4.9 3
v -0.1 5.1 3
v 0 4.6 3
v 0 4.8 3
v 0.1 4.6 3
v 0.1 4.8 3
v 0.2 4.9 3
v 0.2 5.1 3
v 0.3 4.8 3
v 0.3 5.1 3
v 0.4 4.6 3
v 0.4 5.1 3
v -0.4 4.8 2.9
v -0.4 5.2 2.9
v -0.3 4.8 2.9
v -0.3 5.1 2.9
v -0.3 5.2 2.9
v -0.2 4.4 2.9
v -0.2 4.6 2.9
v -0.2 5.1 2.9
v -0.2 5.2 2.9
v -0.2 5.3 2.9
v -0.1 3.7 2.9
v -0.1 3.8 2.9
v -0.1 3.9 2.9
v -0.1 4 2.9
v -0.1 4.1 2.9
v -0.1 4.3 2.9
v 0 4.2 2.9
v 0 4.3 2.9
v 0.1 4.2 2.9
v 0.1 4.3 2.9
v 0.2 3.7 2.9
v 0.2 3.8 2.9
v 0.2 3.9 2.9
v 0.2 4 2.9
v 0.2 4.1 2.9
v 0.2 4.3 2.9
v 0.3 4.4 2.9
v 0.3 4.6 2.9
v 0.3 5.1 2.9
v 0.3 5.2 2.9
v 0.3 5.3 2.9
v 0.4 4.8 2.9
v 0.4 5.1 2.9
v 0.4 5.2 2.9
v 0.5 4.8 2.9
v 0.5 5.2 2.9
v -0.4 4.4 2.8
v -0.4 4.5 2.8
v -0.3 4.4 2.8
v -0.3 4.5 2.8
v -0.2 3.7 2.8
v -0.2 3.8 2.8
v -0.2 3.9 2.8
v -0.2 4 2.8
v -0.2 4.1 2.8
v -0.2 4.3 2.8
v -0.1 3.7 2.8
v -0.1 3.8 2.8
v -0.1 3.9 2.8
v -0.1 4 2.8
v -0.1 4.1 2.8
v -0.1 4.3 2.8
v -0.1 4.4 2.8
v -0.1 5.3 2.8
v -0.1 5.4 2.8
v 0 0.4 2.8
v 0 3.7 2.8
v 0 5.3 2.8
v 0 5.4 2.8
v 0.1 0.4 2.8
v 0.1 3.7 2.8
v 0.1 5.3 2.8
v 0.1 5.4 2.8
v 0.2 3.7 2.8
v 0.2 3.8 2.8
v 0.2 3.9 2.8
v 0.2 4 2.8
v 0.2 4.1 2.8
v 0.2 4.3 2.8
v 0.2 4.4 2.8
v 0.2 5.3 2.8
v 0.2 5.4 2.8
v 0.3 3.7 2.8
v 0.3 3.8 2.8
v 0.3 3.9 2.8
v 0.3 4 2.8
v 0.3 4.1 2.8
v 0.3 4.3 2.8
v 0.4 4.4 2.8
v 0.4 4.5 2.8
v 0.5 4.4 2.8
v 0.5 4.5 2.8
v -0.4 4.2 2.7
v -0.4 4.4 2.7
v -0.4 4.5 2.7
v -0.4 4.8 2.7
v -0.3 4.3 2.7
v -0.3 4.4 2.7
v -0.3 4.5 2.7
v -0.3 4.6 2.7
v -0.3 4.8 2.7
v -0.2 4.2 2.7
v -0.2 4.3 2.7
v -0.1 0.4 2.7
v -0.1 3.7 2.7
v 0 0.4 2.7
v 0 3.7 2.7
v 0.1 0.4 2.7
v 0.1 3.7 2.7
v 0.2 0.4 2.7
v 0.2 3.7 2.7
v 0.3 4.2 2.7
v 0.3 4.3 2.7
v 0.4 4.3 2.7
v 0.4 4.4 2.7
v 0.4 4.5 2.7
v 0.4 4.6 2.7
v 0.4 4.8 2.7
v 0.5 4.2 2.7
v 0.5 4.4 2.7
v 0.5 4.5 2.7
v 0.5 4.8 2.7
v -0.4 4.9 2.5
v -0.4 5.2 2.5
v -0.3 4.9 2.5
v -0.3 5.1 2.5
v -0.3 5.2 2.5
v 0.4 4.9 2.5
v 0.4 5.1 2.5
v 0.4 5.2 2.5
v 0.5 4.9 2.5
v 0.5 5.2 2.5
v -0.2 5.1 2.3
v -0.2 5.2 2.3
v -0.1 4.4 2.3
v -0.1 4.5 2.3
v -0.1 5.1 2.3
v -0.1 5.2 2.3
v 0 4.3 2.3
v 0 4.4 2.3
v 0 4.5 2.3
v 0 4.6 2.3
v 0.1 4.3 2.3
v 0.1 4.4 2.3
v 0.1 4.5 2.3
v 0.1 4.6 2.3
v 0.2 4.4 2.3
v 0.2 4.5 2.3
v 0.2 5.1 2.3
v 0.2 5.2 2.3
v 0.3 5.1 2.3
v 0.3 5.2 2.3
v -0.2 5.1 3
v -0.2 5.2 3
v -0.1 4.4 3
v -0.1 4.5 3
v -0.1 5.1 3
v -0.1 5.2 3
v 0 4.3 3
v 0 4.4 3
v 0 4.5 3
v 0 4.6 3
v 0.1 4.3 3
v 0.1 4.4 3
v 0.1 4.5 3
v 0.1 4.6 3
v 0.2 4.4 3
v 0.2 4.5 3
v 0.2 5.1 3
v 0.2 5.2 3
v 0.3 5.1 3
v 0.3 5.2 3
v -0.4 4.9 2.8
v -0.4 5.2 2.8
v -0.3 4.9 2.8
v -0.3 5.1 2.8
v -0.3 5.2 2.8
v 0.4 4.9 2.8
v 0.4 5.1 2.8
v 0.4 5.2 2.8
v 0.5 4.9 2.8
v 0.5 5.2 2.8
v -0.4 4.2 2.6
v -0.4 4.4 2.6
v -0.4 4.5 2.6
v -0.4 4.8 2.6
v -0.3 4.3 2.6
v -0.3 4.4 2.6
v -0.3 4.5 2.6
v -0.3 4.6 2.6
v -0.3 4.8 2.6
v -0.2 4.2 2.6
v -0.2 4.3 2.6
v -0.1 0.4 2.6
v -0.1 3.7 2.6
v 0 0.4 2.6
v 0 3.7 2.6
v 0.1 0.4 2.6
v 0.1 3.7 2.6
v 0.2 0.4 2.6
v 0.2 3.7 2.6
v 0.3 4.2 2.6
v 0.3 4.3 2.6
v 0.4 4.3 2.6
v 0.4 4.4 2.6
v 0.4 4.5 2.6
v 0.4 4.6 2.6
v 0.4 4.8 2.6
v 0.5 4.2 2.6
v 0.5 4.4 2.6
v 0.5 4.5 2.6
v 0.5 4.8 2.6
v -0.4 4.4 2.5
v -0.4 4.5 2.5
v -0.3 4.4 2.5
v -0.3 4.5 2.5
v -0.2 3.7 2.5
v -0.2 3.8 2.5
v -0.2 3.9 2.5
v -0.2 4 2.5
v -0.2 4.1 2.5
v -0.2 4.3 2.5
v -0.1 3.7 2.5
v -0.1 3.8 2.5
v -0.1 3.9 2.5
v -0.1 4 2.5
v -0.1 4.1 2.5
v -0.1 4.3 2.5
v -0.1 4.4 2.5
v -0.1 5.3 2.5
v -0.1 5.4 2.5
v 0 0.4 2.5
v 0 3.7 2.5
v 0 5.3 2.5
v 0 5.4 2.5
v 0.1 0.4 2.5
v 0.1 3.7 2.5
v 0.1 5.3 2.5
v 0.1 5.4 2.5
v 0.2 3.7 2.5
v 0.2 3.8 2.5
v 0.2 3.9 2.5
v 0.2 4 2.5
v 0.2 4.1 2.5
v 0.2 4.3 2.5
v 0.2 4.4 2.5
v 0.2 5.3 2.5
v 0.2 5.4 2.5
v 0.3 3.7 2.5
v 0.3 3.8 2.5
v 0.3 3.9 2.5
v 0.3 4 2.5
v 0.3 4.1 2.5
v 0.3 4.3 2.5
v 0.4 4.4 2.5
v 0.4 4.5 2.5
v 0.5 4.4 2.5
v 0.5 4.5 2.5
v -0.4 4.8 2.4
v -0.4 5.2 2.4
v -0.3 4.8 2.4
v -0.3 5.1 2.4
v -0.3 5.2 2.4
v -0.2 4.4 2.4
v -0.2 4.6 2.4
v -0.2 5.1 2.4
v -0.2 5.2 2.4
v -0.2 5.3 2.4
v -0.1 3.7 2.4
v -0.1 3.8 2.4
v -0.1 3.9 2.4
v -0.1 4 2.4
v -0.1 4.1 2.4
v -0.1 4.3 2.4
v 0 4.2 2.4
v 0 4.3 2.4
v 0.1 4.2 2.4
v 0.1 4.3 2.4
v 0.2 3.7 2.4
v 0.2 3.8 2.4
v 0.2 3.9 2.4
v 0.2 4 2.4
v 0.2 4.1 2.4
v 0.2 4.3 2.4
v 0.3 4.4 2.4
v 0.3 4.6 2.4
v 0.3 5.1 2.4
v 0.3 5.2 2.4
v 0.3 5.3 2.4
v 0.4 4.8 2.4
v 0.4 5.1 2.4
v 0.4 5.2 2.4
v 0.5 4.8 2.4
v 0.5 5.2 2.4
v -0.3 4.6 2.3
v -0.3 5.1 2.3
v -0.2 4.8 2.3
v -0.2 5.1 2.3
v -0.1 4.9 2.3
v -0.1 5.1 2.3
v 0 4.6 2.3
v 0 4.8 2.3
v 0.1 4.6 2.3
v 0.1 4.8 2.3
v 0.2 4.9 2.3
v 0.2 5.1 2.3
v 0.3 4.8 2.3
v 0.3 5.1 2.3
v 0.4 4.6 2.3
v 0.4 5.1 2.3
v -0.2 4.8 2.2
v -0.2 5.2 2.2
v -0.1 4.4 2.2
v -0.1 4.5 2.2
v -0.1 4.9 2.2
v -0.1 5.2 2.2
v 0 4.2 2.2
v 0 4.4 2.2
v 0 4.5 2.2
v 0 4.8 2.2
v 0.1 4.2 2.2
v 0.1 4.4 2.2
v 0.1 4.5 2.2
v 0.1 4.8 2.2
v 0.2 4.4 2.2
v 0.2 4.5 2.2
v 0.2 4.9 2.2
v 0.2 5.2 2.2
v 0.3 4.8 2.2
v 0.3 5.2 2.2
v 0 0.4 2.8
v 0.1 0.4 2.8
v -0.1 0.4 2.7
v 0 0.4 2.7
v 0.1 0.4 2.7
v 0.2 0.4 2.7
v -0.1 0.4 2.6
v 0 0.4 2.6
v 0.1 0.4 2.6
v 0.2 0.4 2.6
v 0 0.4 2.5
v 0.1 0.4 2.5
v -0.1 3.7 2.9
v 0.2 3.7 2.9
v -0.2 3.7 2.8
v -0.1 3.7 2.8
v 0 3.7 2.8
v 0.1 3.7 2.8
v 0.2 3.7 2.8
v 0.3 3.7 2.8
v -0.1 3.7 2.7
v 0 3.7 2.7
v 0.1 3.7 2.7
v 0.2 3.7 2.7
v -0.1 3.7 2.6
v 0 3.7 2.6
v 0.1 3.7 2.6
v 0.2 3.7 2.6
v -0.2 3.7 2.5
v -0.1 3.7 2.5
v 0 3.7 2.5
v 0.1 3.7 2.5
v 0.2 3.7 2.5
v 0.3 3.7 2.5
v -0.1 3.7 2.4
v 0.2 3.7 2.4
v -0.1 3.9 2.9
v 0.2 3.9 2.9
v -0.2 3.9 2.8
v -0.1 3.9 2.8
v 0.2 3.9 2.8
v 0.3 3.9 2.8
v -0.2 3.9 2.5
v -0.1 3.9 2.5
v 0.2 3.9 2.5
v 0.3 3.9 2.5
v -0.1 3.9 2.4
v 0.2 3.9 2.4
v -0.1 4.1 2.9
v 0.2 4.1 2.9
v -0.2 4.1 2.8
v -0.1 4.1 2.8
v 0.2 4.1 2.8
v 0.3 4.1 2.8
v -0.2 4.1 2.5
v -0.1 4.1 2.5
v 0.2 4.1 2.5
v 0.3 4.1 2.5
v -0.1 4.1 2.4
v 0.2 4.1 2.4
v 0 4.2 3.1
v 0.1 4.2 3.1
v 0 4.2 2.9
v 0.1 4.2 2.9
v -0.4 4.2 2.7
v -0.2 4.2 2.7
v 0.3 4.2 2.7
v 0.5 4.2 2.7
v -0.4 4.2 2.6
v -0.2 4.2 2.6
v 0.3 4.2 2.6
v 0.5 4.2 2.6
v 0 4.2 2.4
v 0.1 4.2 2.4
v 0 4.2 2.2
v 0.1 4.2 2.2
v -0.1 4.4 3.1
v 0 4.4 3.1
v 0.1 4.4 3.1
v 0.2 4.4 3.1
v -0.1 4.4 3
v 0 4.4 3
v 0.1 4.4 3
v 0.2 4.4 3
v -0.2 4.4 2.9
v 0.3 4.4 2.9
v -0.4 4.4 2.8
v -0.3 4.4 2.8
v -0.1 4.4 2.8
v 0.2 4.4 2.8
v 0.4 4.4 2.8
v 0.5 4.4 2.8
v -0.4 4.4 2.7
v -0.3 4.4 2.7
v 0.4 4.4 2.7
v 0.5 4.4 2.7
v -0.4 4.4 2.6
v -0.3 4.4 2.6
v 0.4 4.4 2.6
v 0.5 4.4 2.6
v -0.4 4.4 2.5
v -0.3 4.4 2.5
v -0.1 4.4 2.5
v 0.2 4.4 2.5
v 0.4 4.4 2.5
v 0.5 4.4 2.5
v -0.2 4.4 2.4
v 0.3 4.4 2.4
v -0.1 4.4 2.3
v 0 4.4 2.3
v 0.1 4.4 2.3
v 0.2 4.4 2.3
v -0.1 4.4 2.2
v 0 4.4 2.2
v 0.1 4.4 2.2
v 0.2 4.4 2.2
v -0.3 4.6 3
v 0 4.6 3
v 0.1 4.6 3
v 0.4 4.6 3
v -0.2 4.6 2.9
v 0.3 4.6 2.9
v -0.3 4.6 2.7
v 0.4 4.6 2.7
v -0.3 4.6 2.6
v 0.4 4.6 2.6
v -0.2 4.6 2.4
v 0.3 4.6 2.4
v -0.3 4.6 2.3
v 0 4.6 2.3
v 0.1 4.6 2.3
v 0.4 4.6 2.3
v -0.2 4.8 3.1
v 0 4.8 3.1
v 0.1 4.8 3.1
v 0.3 4.8 3.1
v -0.2 4.8 3
v 0 4.8 3
v 0.1 4.8 3
v 0.3 4.8 3
v -0.4 4.8 2.9
v -0.3 4.8 2.9
v 0.4 4.8 2.9
v 0.5 4.8 2.9
v -0.4 4.8 2.7
v -0.3 4.8 2.7
v 0.4 4.8 2.7
v 0.5 4.8 2.7
v -0.4 4.8 2.6
v -0.3 4.8 2.6
v 0.4 4.8 2.6
v 0.5 4.8 2.6
v -0.4 4.8 2.4
v -0.3 4.8 2.4
v 0.4 4.8 2.4
v 0.5 4.8 2.4
v -0.2 4.8 2.3
v 0 4.8 2.3
v 0.1 4.8 2.3
v 0.3 4.8 2.3
v -0.2 4.8 2.2
v 0 4.8 2.2
v 0.1 4.8 2.2
v 0.3 4.8 2.2
v -0.1 3.8 2.9
v 0.2 3.8 2.9
v -0.2 3.8 2.8
v -0.1 3.8 2.8
v 0.2 3.8 2.8
v 0.3 3.8 2.8
v -0.2 3.8 2.5
v -0.1 3.8 2.5
v 0.2 3.8 2.5
v 0.3 3.8 2.5
v -0.1 3.8 2.4
v 0.2 3.8 2.4
v -0.1 4 2.9
v 0.2 4 2.9
v -0.2 4 2.8
v -0.1 4 2.8
v 0.2 4 2.8
v 0.3 4 2.8
v -0.2 4 2.5
v -0.1 4 2.5
v 0.2 4 2.5
v 0.3 4 2.5
v -0.1 4 2.4
v 0.2 4 2.4
v 0 4.3 3
v 0.1 4.3 3
v -0.1 4.3 2.9
v 0 4.3 2.9
v 0.1 4.3 2.9
v 0.2 4.3 2.9
v -0.2 4.3 2.8
v -0.1 4.3 2.8
v 0.2 4.3 2.8
v 0.3 4.3 2.8
v -0.3 4.3 2.7
v -0.2 4.3 2.7
v 0.3 4.3 2.7
v 0.4 4.3 2.7
v -0.3 4.3 2.6
v -0.2 4.3 2.6
v 0.3 4.3 2.6
v 0.4 4.3 2.6
v -0.2 4.3 2.5
v -0.1 4.3 2.5
v 0.2 4.3 2.5
v 0.3 4.3 2.5
v -0.1 4.3 2.4
v 0 4.3 2.4
v 0.1 4.3 2.4
v 0.2 4.3 2.4
v 0 4.3 2.3
v 0.1 4.3 2.3
v -0.1 4.5 3.1
v 0 4.5 3.1
v 0.1 4.5 3.1
v 0.2 4.5 3.1
v -0.1 4.5 3
v 0 4.5 3
v 0.1 4.5 3
v 0.2 4.5 3
v -0.4 4.5 2.8
v -0.3 4.5 2.8
v 0.4 4.5 2.8
v 0.5 4.5 2.8
v -0.4 4.5 2.7
v -0.3 4.5 2.7
v 0.4 4.5 2.7
v 0.5 4.5 2.7
v -0.4 4.5 2.6
v -0.3 4.5 2.6
v 0.4 4.5 2.6
v 0.5 4.5 2.6
v -0.4 4.5 2.5
v -0.3 4.5 2.5
v 0.4 4.5 2.5
v 0.5 4.5 2.5
v -0.1 4.5 2.3
v 0 4.5 2.3
v 0.1 4.5 2.3
v 0.2 4.5 2.3
v -0.1 4.5 2.2
v 0 4.5 2.2
v 0.1 4.5 2.2
v 0.2 4.5 2.2
v -0.1 4.9 3.1
v 0.2 4.9 3.1
v -0.1 4.9 3
v 0.2 4.9 3
v -0.4 4.9 2.8
v -0.3 4.9 2.8
v 0.4 4.9 2.8
v 0.5 4.9 2.8
v -0.4 4.9 2.5
v -0.3 4.9 2.5
v 0.4 4.9 2.5
v 0.5 4.9 2.5
v -0.1 4.9 2.3
v 0.2 4.9 2.3
v -0.1 4.9 2.2
v 0.2 4.9 2.2
v -0.3 5.1 3
v -0.2 5.1 3
v -0.1 5.1 3
v 0.2 5.1 3
v 0.3 5.1 3
v 0.4 5.1 3
v -0.3 5.1 2.9
v -0.2 5.1 2.9
v 0.3 5.1 2.9
v 0.4 5.1 2.9
v -0.3 5.1 2.8
v 0.4 5.1 2.8
v -0.3 5.1 2.5
v 0.4 5.1 2.5
v -0.3 5.1 2.4
v -0.2 5.1 2.4
v 0.3 5.1 2.4
v 0.4 5.1 2.4
v -0.3 5.1 2.3
v -0.2 5.1 2.3
v -0.1 5.1 2.3
v 0.2 5.1 2.3
v 0.3 5.1 2.3
v 0.4 5.1 2.3
v -0.2 5.2 3.1
v -0.1 5.2 3.1
v 0.2 5.2 3.1
v 0.3 5.2 3.1
v -0.2 5.2 3
v -0.1 5.2 3
v 0.2 5.2 3
v 0.3 5.2 3
v -0.4 5.2 2.9
v -0.3 5.2 2.9
v 0.4 5.2 2.9
v 0.5 5.2 2.9
v -0.4 5.2 2.8
v -0.3 5.2 2.8
v 0.4 5.2 2.8
v 0.5 5.2 2.8
v -0.4 5.2 2.5
v -0.3 5.2 2.5
v 0.4 5.2 2.5
v 0.5 5.2 2.5
v -0.4 5.2 2.4
v -0.3 5.2 2.4
v 0.4 5.2 2.4
v 0.5 5.2 2.4
v -0.2 5.2 2.3
v -0.1 5.2 2.3
v 0.2 5.2 2.3
v 0.3 5.2 2.3
v -0.2 5.2 2.2
v -0.1 5.2 2.2
v 0.2 5.2 2.2
v 0.3 5.2 2.2
v -0.2 5.3 2.9
v 0.3 5.3 2.9
v -0.1 5.3 2.8
v 0 5.3 2.8
v 0.1 5.3 2.8
v 0.2 5.3 2.8
v -0.1 5.3 2.7
v 0.2 5.3 2.7
v -0.1 5.3 2.6
v 0.2 5.3 2.6
v -0.1 5.3 2.5
v 0 5.3 2.5
v 0.1 5.3 2.5
v 0.2 5.3 2.5
v -0.2 5.3 2.4
v 0.3 5.3 2.4
v -0.1 5.4 2.8
v 0 5.4 2.8
v 0.1 5.4 2.8
v 0.2 5.4 2.8
v -0.1 5.4 2.7
v 0 5.4 2.7
v 0.1 5.4 2.7
v 0.2 5.4 2.7
v -0.1 5.4 2.6
v 0 5.4 2.6
v 0.1 5.4 2.6
v 0.2 5.4 2.6
v -0.1 5.4 2.5
v 0 5.4 2.5
v 0.1 5.4 2.5
v 0.2 5.4 2.5

# faces
f 4/5/1 2/5/1 1/5/1
f 5/5/1 2/5/1 4/5/1
f 7/5/1 4/5/1 3/5/1
f 7/5/1 6/5/1 5/5/1
f 7/5/1 5/5/1 4/5/1
f 8/5/1 6/5/1 7/5/1
f 9/5/1 6/5/1 8/5/1
f 10/5/1 6/5/1 9/5/1
f 12/5/1 9/5/1 8/5/1
f 13/5/1 9/5/1 12/5/1
f 15/5/1 13/5/1 12/5/1
f 15/5/1 14/5/1 13/5/1
f 15/5/1 12/5/1 11/5/1
f 16/5/1 14/5/1 15/5/1
f 17/5/1 15/5/1 11/5/1
f 18/5/1 15/5/1 17/5/1
f 19/5/1 14/5/1 16/5/1
f 20/5/1 14/5/1 19/5/1
f 25/2/1 22/2/1 21/2/1
f 26/2/1 22/2/1 25/2/1
f 27/2/1 24/2/1 23/2/1
f 28/2/1 24/2/1 27/2/1
f 31/2/1 25/2/1 21/2/1
f 32/2/1 25/2/1 31/2/1
f 33/2/1 30/2/1 29/2/1
f 34/2/1 30/2/1 33/2/1
f 35/2/1 24/2/1 28/2/1
f 36/2/1 24/2/1 35/2/1
f 39/5/1 38/5/1 37/5/1
f 40/5/1 38/5/1 39/5/1
f 43/5/1 42/5/1 41/5/1
f 44/5/1 42/5/1 43/5/1
f 47/5/1 46/5/1 45/5/1
f 48/5/1 46/5/1 47/5/1
f 49/5/1 47/5/1 45/5/1
f 50/5/1 47/5/1 49/5/1
f 51/5/1 46/5/1 48/5/1
f 52/5/1 46/5/1 51/5/1
f 55/1/1 54/1/1 53/1/1
f 56/1/1 54/1/1 55/1/1
f 61/5/1 58/5/1 57/5/1
f 64/5/1 60/5/1 59/5/1
f 65/5/1 61/5/1 57/5/1
f 66/5/1 61/5/1 65/5/1
f 67/2/1 63/2/1 62/2/1
f 68/2/1 63/2/1 67/2/1
f 69/5/1 60/5/1 64/5/1
f 70/5/1 60/5/1 69/5/1
f 71/3/1 68/3/1 67/3/1
f 72/3/1 68/3/1 71/3/1
f 77/5/1 74/5/1 73/5/1
f 78/5/1 74/5/1 77/5/1
f 81/5/1 76/5/1 75/5/1
f 82/5/1 76/5/1 81/5/1
f 83/5/1 80/5/1 79/5/1
f 84/5/1 80/5/1 83/5/1
f 86/5/1 83/5/1 82/5/1
f 87/5/1 83/5/1 86/5/1
f 89/5/1 86/5/1 85/5/1
f 90/5/1 86/5/1 89/5/1
f 91/5/1 88/5/1 87/5/1
f 92/5/1 88/5/1 91/5/1
f 94/5/1 91/5/1 90/5/1
f 95/5/1 91/5/1 94/5/1
f 97/5/1 94/5/1 93/5/1
f 98/5/1 94/5/1 97/5/1
f 99/5/1 96/5/1 95/5/1
f 100/5/1 96/5/1 99/5/1
f 103/1/1 99/1/1 98/1/1
f 104/1/1 99/1/1 103/1/1
f 107/5/1 102/5/1 101/5/1
f 108/5/1 102/5/1 107/5/1
f 109/5/1 106/5/1 105/5/1
f 110/5/1 106/5/1 109/5/1
f 115/4/1 112/4/1 111/4/1
f 116/3/1 113/3/1 112/3/1
f 116/4/1 112/4/1 115/4/1
f 117/4/1 114/4/1 113/4/1
f 117/3/1 113/3/1 116/3/1
f 118/4/1 114/4/1 117/4/1
f 123/5/1 120/5/1 119/5/1
f 124/5/1 120/5/1 123/5/1
f 125/5/1 122/5/1 121/5/1
f 126/5/1 122/5/1 125/5/1
f 131/5/1 128/5/1 127/5/1
f 132/5/1 128/5/1 131/5/1
f 133/5/1 130/5/1 129/5/1
f 134/5/1 130/5/1 133/5/1
f 135/5/1 131/5/1 127/5/1
f 136/5/1 131/5/1 135/5/1
f 137/5/1 130/5/1 134/5/1
f 138/5/1 130/5/1 137/5/1
f 143/5/1 140/5/1 139/5/1
f 144/5/1 142/5/1 141/5/1
f 145/5/1 143/5/1 139/5/1
f 146/5/1 143/5/1 145/5/1
f 147/5/1 142/5/1 144/5/1
f 148/5/1 142/5/1 147/5/1
f 153/5/1 150/5/1 149/5/1
f 154/5/1 152/5/1 151/5/1
f 155/5/1 153/5/1 149/5/1
f 156/5/1 153/5/1 155/5/1
f 157/5/1 152/5/1 154/5/1
f 158/5/1 152/5/1 157/5/1
f 162/5/1 160/5/1 159/5/1
f 163/5/1 160/5/1 162/5/1
f 165/5/1 162/5/1 161/5/1
f 165/5/1 164/5/1 163/5/1
f 165/5/1 163/5/1 162/5/1
f 166/5/1 164/5/1 165/5/1
f 167/5/1 164/5/1 166/5/1
f 168/5/1 164/5/1 167/5/1
f 169/5/1 167/5/1 166/5/1
f 170/5/1 167/5/1 169/5/1
f 175/5/1 172/5/1 171/5/1
f 176/5/1 172/5/1 175/5/1
f 177/5/1 174/5/1 173/5/1
f 178/5/1 174/5/1 177/5/1
f 179/5/2 180/5/2 182/5/2
f 182/5/2 180/5/2 183/5/2
f 181/5/2 182/5/2 185/5/2
f 183/5/2 184/5/2 185/5/2
f 182/5/2 183/5/2 185/5/2
f 185/5/2 184/5/2 186/5/2
f 186/5/2 184/5/2 187/5/2
f 187/5/2 184/5/2 188/5/2
f 186/5/2 187/5/2 189/5/2
f 189/5/2 187/5/2 190/5/2
f 191/5/2 192/5/2 195/5/2
f 195/5/2 192/5/2 196/5/2
f 193/5/2 194/5/2 197/5/2
f 197/5/2 194/5/2 198/5/2
f 199/5/2 200/5/2 203/5/2
f 201/5/2 202/5/2 204/5/2
f 199/5/2 203/5/2 205/5/2
f 205/5/2 203/5/2 206/5/2
f 204/5/2 202/5/2 207/5/2
f 207/5/2 202/5/2 208/5/2
f 209/5/2 210/5/2 213/5/2
f 213/5/2 210/5/2 214/5/2
f 211/5/2 212/5/2 215/5/2
f 215/5/2 212/5/2 216/5/2
f 217/5/2 218/5/2 221/5/2
f 221/5/2 218/5/2 222/5/2
f 219/5/2 220/5/2 223/5/2
f 223/5/2 220/5/2 224/5/2
f 217/5/2 221/5/2 225/5/2
f 225/5/2 221/5/2 226/5/2
f 224/5/2 220/5/2 227/5/2
f 227/5/2 220/5/2 228/5/2
f 229/5/2 230/5/2 233/5/2
f 231/5/2 232/5/2 234/5/2
f 229/5/2 233/5/2 235/5/2
f 235/5/2 233/5/2 236/5/2
f 234/5/2 232/5/2 237/5/2
f 237/5/2 232/5/2 238/5/2
f 239/5/2 240/5/2 243/5/2
f 243/5/2 240/5/2 244/5/2
f 241/5/2 242/5/2 247/5/2
f 247/5/2 242/5/2 248/5/2
f 245/5/2 246/5/2 249/5/2
f 249/5/2 246/5/2 250/5/2
f 248/5/2 249/5/2 252/5/2
f 252/5/2 249/5/2 253/5/2
f 251/5/2 252/5/2 255/5/2
f 255/5/2 252/5/2 256/5/2
f 253/5/2 254/5/2 257/5/2
f 257/5/2 254/5/2 258/5/2
f 256/5/2 257/5/2 260/5/2
f 260/5/2 257/5/2 261/5/2
f 259/5/2 260/5/2 263/5/2
f 263/5/2 260/5/2 264/5/2
f 261/5/2 262/5/2 265/5/2
f 265/5/2 262/5/2 266/5/2
f 264/1/2 265/1/2 269/1/2
f 269/1/2 265/1/2 270/1/2
f 267/5/2 268/5/2 273/5/2
f 273/5/2 268/5/2 274/5/2
f 271/5/2 272/5/2 275/5/2
f 275/5/2 272/5/2 276/5/2
f 277/4/2 278/4/2 281/4/2
f 278/3/2 279/3/2 282/3/2
f 281/4/2 278/4/2 282/4/2
f 279/4/2 280/4/2 283/4/2
f 282/3/2 279/3/2 283/3/2
f 283/4/2 280/4/2 284/4/2
f 285/5/2 286/5/2 287/5/2
f 287/5/2 286/5/2 288/5/2
f 289/5/2 290/5/2 291/5/2
f 291/5/2 290/5/2 292/5/2
f 293/5/2 294/5/2 295/5/2
f 295/5/2 294/5/2 296/5/2
f 293/5/2 295/5/2 297/5/2
f 297/5/2 295/5/2 298/5/2
f 296/5/2 294/5/2 299/5/2
f 299/5/2 294/5/2 300/5/2
f 301/1/2 302/1/2 303/1/2
f 303/1/2 302/1/2 304/1/2
f 305/5/2 306/5/2 309/5/2
f 307/5/2 308/5/2 312/5/2
f 305/5/2 309/5/2 313/5/2
f 313/5/2 309/5/2 314/5/2
f 310/2/2 311/2/2 315/2/2
f 315/2/2 311/2/2 316/2/2
f 312/5/2 308/5/2 317/5/2
f 317/5/2 308/5/2 318/5/2
f 315/3/2 316/3/2 319/3/2
f 319/3/2 316/3/2 320/3/2
f 321/2/2 322/2/2 325/2/2
f 325/2/2 322/2/2 326/2/2
f 323/2/2 324/2/2 327/2/2
f 327/2/2 324/2/2 328/2/2
f 321/2/2 325/2/2 331/2/2
f 331/2/2 325/2/2 332/2/2
f 329/2/2 330/2/2 333/2/2
f 333/2/2 330/2/2 334/2/2
f 328/2/2 324/2/2 335/2/2
f 335/2/2 324/2/2 336/2/2
f 337/5/2 338/5/2 340/5/2
f 340/5/2 338/5/2 341/5/2
f 339/5/2 340/5/2 343/5/2
f 341/5/2 342/5/2 343/5/2
f 340/5/2 341/5/2 343/5/2
f 343/5/2 342/5/2 344/5/2
f 344/5/2 342/5/2 345/5/2
f 345/5/2 342/5/2 346/5/2
f 344/5/2 345/5/2 348/5/2
f 348/5/2 345/5/2 349/5/2
f 348/5/2 349/5/2 351/5/2
f 349/5/2 350/5/2 351/5/2
f 347/5/2 348/5/2 351/5/2
f 351/5/2 350/5/2 352/5/2
f 347/5/2 351/5/2 353/5/2
f 353/5/2 351/5/2 354/5/2
f 352/5/2 350/5/2 355/5/2
f 355/5/2 350/5/2 356/5/2
f 361/5/3 358/5/3 357/5/3
f 362/5/3 358/5/3 361/5/3
f 364/5/3 360/5/3 359/5/3
f 365/5/3 360/5/3 364/5/3
f 366/5/3 361/5/3 357/5/3
f 367/5/3 365/5/3 364/5/3
f 367/5/3 366/5/3 365/5/3
f 367/5/3 364/5/3 363/5/3
f 368/5/3 366/5/3 367/5/3
f 369/5/3 366/5/3 368/5/3
f 370/5/3 361/5/3 366/5/3
f 370/5/3 366/5/3 369/5/3
f 371/5/3 369/5/3 368/5/3
f 372/5/3 369/5/3 371/5/3
f 373/5/3 361/5/3 370/5/3
f 375/5/3 374/5/3 373/5/3
f 375/5/3 373/5/3 370/5/3
f 376/5/3 374/5/3 375/5/3
f 379/2/3 378/2/3 377/2/3
f 380/2/3 378/2/3 379/2/3
f 383/2/3 379/2/3 377/2/3
f 384/2/3 379/2/3 383/2/3
f 387/2/3 382/2/3 381/2/3
f 388/2/3 382/2/3 387/2/3
f 389/2/3 386/2/3 385/2/3
f 391/2/3 389/2/3 385/2/3
f 391/2/3 390/2/3 389/2/3
f 392/2/3 390/2/3 391/2/3
f 395/5/3 394/5/3 393/5/3
f 396/5/3 394/5/3 395/5/3
f 397/5/3 394/5/3 396/5/3
f 409/5/3 408/5/3 407/5/3
f 410/5/3 408/5/3 409/5/3
f 411/5/3 409/5/3 407/5/3
f 413/5/3 404/5/3 403/5/3
f 414/5/3 404/5/3 413/5/3
f 415/5/3 406/5/3 405/5/3
f 416/5/3 406/5/3 415/5/3
f 417/5/3 412/5/3 411/5/3
f 417/5/3 411/5/3 407/5/3
f 418/5/3 412/5/3 417/5/3
f 419/1/3 399/1/3 398/1/3
f 420/1/3 399/1/3 419/1/3
f 421/2/3 401/2/3 400/2/3
f 422/3/3 402/3/3 401/3/3
f 422/2/3 401/2/3 421/2/3
f 423/3/3 402/3/3 422/3/3
f 427/5/3 425/5/3 424/5/3
f 427/5/3 426/5/3 425/5/3
f 428/5/3 426/5/3 427/5/3
f 431/5/3 430/5/3 429/5/3
f 432/5/3 430/5/3 431/5/3
f 439/5/3 434/5/3 433/5/3
f 440/5/3 434/5/3 439/5/3
f 441/5/3 436/5/3 435/5/3
f 442/5/3 436/5/3 441/5/3
f 443/5/3 438/5/3 437/5/3
f 444/5/3 438/5/3 443/5/3
f 450/4/3 447/4/3 446/4/3
f 451/4/3 447/4/3 450/4/3
f 452/5/3 449/5/3 448/5/3
f 453/5/3 449/5/3 452/5/3
f 454/3/3 451/3/3 450/3/3
f 455/3/3 451/3/3 454/3/3
f 457/5/3 441/5/3 440/5/3
f 458/5/3 441/5/3 457/5/3
f 459/5/3 443/5/3 442/5/3
f 460/5/3 443/5/3 459/5/3
f 461/1/3 445/1/3 444/1/3
f 462/1/3 445/1/3 461/1/3
f 463/4/3 455/4/3 454/4/3
f 464/4/3 455/4/3 463/4/3
f 465/5/3 457/5/3 456/5/3
f 466/5/3 457/5/3 465/5/3
f 467/5/3 459/5/3 458/5/3
f 468/5/3 459/5/3 467/5/3
f 469/5/3 461/5/3 460/5/3
f 470/5/3 461/5/3 469/5/3
f 473/5/3 472/5/3 471/5/3
f 474/5/3 472/5/3 473/5/3
f 479/5/3 476/5/3 475/5/3
f 480/5/3 476/5/3 479/5/3
f 481/5/3 478/5/3 477/5/3
f 482/5/3 478/5/3 481/5/3
f 483/5/3 478/5/3 482/5/3
f 484/5/3 479/5/3 475/5/3
f 485/5/3 479/5/3 484/5/3
f 488/5/3 487/5/3 486/5/3
f 489/5/3 487/5/3 488/5/3
f 492/5/3 491/5/3 490/5/3
f 493/5/3 491/5/3 492/5/3
f 496/5/3 495/5/3 494/5/3
f 501/5/3 496/5/3 494/5/3
f 501/5/3 497/5/3 496/5/3
f 502/5/3 497/5/3 501/5/3
f 503/5/3 500/5/3 499/5/3
f 503/5/3 499/5/3 498/5/3
f 504/5/3 500/5/3 503/5/3
f 507/5/3 506/5/3 505/5/3
f 508/5/3 506/5/3 507/5/3
f 509/5/3 506/5/3 508/5/3
f 513/5/3 511/5/3 510/5/3
f 513/5/3 512/5/3 511/5/3
f 514/5/3 512/5/3 513/5/3
f 519/5/3 516/5/3 515/5/3
f 520/5/3 516/5/3 519/5/3
f 522/5/3 518/5/3 517/5/3
f 523/5/3 518/5/3 522/5/3
f 525/5/3 522/5/3 521/5/3
f 525/5/3 524/5/3 523/5/3
f 525/5/3 523/5/3 522/5/3
f 526/5/3 524/5/3 525/5/3
f 527/5/3 524/5/3 526/5/3
f 528/5/3 524/5/3 527/5/3
f 529/5/3 527/5/3 526/5/3
f 530/5/3 527/5/3 529/5/3
f 533/5/3 532/5/3 531/5/3
f 534/5/3 532/5/3 533/5/3
f 535/5/4 536/5/4 539/5/4
f 539/5/4 536/5/4 540/5/4
f 537/5/4 538/5/4 542/5/4
f 542/5/4 538/5/4 543/5/4
f 541/5/4 542/5/4 545/5/4
f 543/5/4 544/5/4 545/5/4
f 542/5/4 543/5/4 545/5/4
f 545/5/4 544/5/4 546/5/4
f 546/5/4 544/5/4 547/5/4
f 547/5/4 544/5/4 548/5/4
f 546/5/4 547/5/4 549/5/4
f 549/5/4 547/5/4 550/5/4
f 551/5/4 552/5/4 553/5/4
f 553/5/4 552/5/4 554/5/4
f 555/5/4 556/5/4 557/5/4
f 557/5/4 556/5/4 558/5/4
f 558/5/4 556/5/4 559/5/4
f 560/5/4 561/5/4 563/5/4
f 561/5/4 562/5/4 563/5/4
f 563/5/4 562/5/4 564/5/4
f 565/5/4 566/5/4 569/5/4
f 569/5/4 566/5/4 570/5/4
f 567/5/4 568/5/4 571/5/4
f 571/5/4 568/5/4 572/5/4
f 572/5/4 568/5/4 573/5/4
f 565/5/4 569/5/4 574/5/4
f 574/5/4 569/5/4 575/5/4
f 576/5/4 577/5/4 578/5/4
f 578/5/4 577/5/4 579/5/4
f 580/5/4 581/5/4 582/5/4
f 582/5/4 581/5/4 583/5/4
f 584/5/4 585/5/4 586/5/4
f 584/5/4 586/5/4 591/5/4
f 586/5/4 587/5/4 591/5/4
f 591/5/4 587/5/4 592/5/4
f 589/5/4 590/5/4 593/5/4
f 588/5/4 589/5/4 593/5/4
f 593/5/4 590/5/4 594/5/4
f 595/5/4 596/5/4 597/5/4
f 597/5/4 596/5/4 598/5/4
f 599/5/4 600/5/4 605/5/4
f 605/5/4 600/5/4 606/5/4
f 601/5/4 602/5/4 607/5/4
f 607/5/4 602/5/4 608/5/4
f 603/5/4 604/5/4 609/5/4
f 609/5/4 604/5/4 610/5/4
f 612/4/4 613/4/4 616/4/4
f 616/4/4 613/4/4 617/4/4
f 614/5/4 615/5/4 618/5/4
f 618/5/4 615/5/4 619/5/4
f 616/3/4 617/3/4 620/3/4
f 620/3/4 617/3/4 621/3/4
f 606/5/4 607/5/4 623/5/4
f 623/5/4 607/5/4 624/5/4
f 608/5/4 609/5/4 625/5/4
f 625/5/4 609/5/4 626/5/4
f 610/1/4 611/1/4 627/1/4
f 627/1/4 611/1/4 628/1/4
f 620/4/4 621/4/4 629/4/4
f 629/4/4 621/4/4 630/4/4
f 622/5/4 623/5/4 631/5/4
f 631/5/4 623/5/4 632/5/4
f 624/5/4 625/5/4 633/5/4
f 633/5/4 625/5/4 634/5/4
f 626/5/4 627/5/4 635/5/4
f 635/5/4 627/5/4 636/5/4
f 637/5/4 638/5/4 639/5/4
f 639/5/4 638/5/4 640/5/4
f 641/5/4 642/5/4 643/5/4
f 643/5/4 642/5/4 644/5/4
f 644/5/4 642/5/4 645/5/4
f 655/5/4 656/5/4 657/5/4
f 657/5/4 656/5/4 658/5/4
f 655/5/4 657/5/4 659/5/4
f 651/5/4 652/5/4 661/5/4
f 661/5/4 652/5/4 662/5/4
f 653/5/4 654/5/4 663/5/4
f 663/5/4 654/5/4 664/5/4
f 659/5/4 660/5/4 665/5/4
f 655/5/4 659/5/4 665/5/4
f 665/5/4 660/5/4 666/5/4
f 646/1/4 647/1/4 667/1/4
f 667/1/4 647/1/4 668/1/4
f 648/2/4 649/2/4 669/2/4
f 649/3/4 650/3/4 670/3/4
f 669/2/4 649/2/4 670/2/4
f 670/3/4 650/3/4 671/3/4
f 672/5/4 673/5/4 675/5/4
f 673/5/4 674/5/4 675/5/4
f 675/5/4 674/5/4 676/5/4
f 677/2/4 678/2/4 679/2/4
f 679/2/4 678/2/4 680/2/4
f 677/2/4 679/2/4 683/2/4
f 683/2/4 679/2/4 684/2/4
f 681/2/4 682/2/4 687/2/4
f 687/2/4 682/2/4 688/2/4
f 685/2/4 686/2/4 689/2/4
f 685/2/4 689/2/4 691/2/4
f 689/2/4 690/2/4 691/2/4
f 691/2/4 690/2/4 692/2/4
f 693/5/4 694/5/4 697/5/4
f 697/5/4 694/5/4 698/5/4
f 695/5/4 696/5/4 700/5/4
f 700/5/4 696/5/4 701/5/4
f 693/5/4 697/5/4 702/5/4
f 700/5/4 701/5/4 703/5/4
f 701/5/4 702/5/4 703/5/4
f 699/5/4 700/5/4 703/5/4
f 703/5/4 702/5/4 704/5/4
f 704/5/4 702/5/4 705/5/4
f 702/5/4 697/5/4 706/5/4
f 705/5/4 702/5/4 706/5/4
f 704/5/4 705/5/4 707/5/4
f 707/5/4 705/5/4 708/5/4
f 706/5/4 697/5/4 709/5/4
f 709/5/4 710/5/4 711/5/4
f 706/5/4 709/5/4 711/5/4
f 711/5/4 710/5/4 712/5/4
f 716/5/5 714/5/5 713/5/5
f 717/5/5 714/5/5 716/5/5
f 719/5/5 716/5/5 715/5/5
f 719/5/5 718/5/5 717/5/5
f 719/5/5 717/5/5 716/5/5
f 720/5/5 718/5/5 719/5/5
f 721/5/5 718/5/5 720/5/5
f 722/5/5 718/5/5 721/5/5
f 723/5/5 721/5/5 720/5/5
f 724/5/5 721/5/5 723/5/5
f 728/5/5 726/5/5 725/5/5
f 729/5/5 726/5/5 728/5/5
f 730/5/5 726/5/5 729/5/5
f 731/5/5 726/5/5 730/5/5
f 733/5/5 728/5/5 727/5/5
f 733/5/5 729/5/5 728/5/5
f 734/5/5 729/5/5 733/5/5
f 735/5/5 732/5/5 731/5/5
f 735/5/5 731/5/5 730/5/5
f 736/5/5 732/5/5 735/5/5
f 737/5/5 733/5/5 727/5/5
f 740/5/5 732/5/5 736/5/5
f 741/5/5 738/5/5 737/5/5
f 741/5/5 737/5/5 727/5/5
f 742/5/5 738/5/5 741/5/5
f 743/5/5 738/5/5 742/5/5
f 744/5/5 740/5/5 739/5/5
f 745/5/5 732/5/5 740/5/5
f 745/5/5 740/5/5 744/5/5
f 746/5/5 732/5/5 745/5/5
f 747/5/5 743/5/5 742/5/5
f 747/5/5 744/5/5 743/5/5
f 747/5/5 745/5/5 744/5/5
f 748/5/5 745/5/5 747/5/5
f 752/5/5 750/5/5 749/5/5
f 753/5/5 750/5/5 752/5/5
f 755/5/5 752/5/5 751/5/5
f 756/5/5 752/5/5 755/5/5
f 757/5/5 754/5/5 753/5/5
f 758/5/5 754/5/5 757/5/5
f 759/5/5 757/5/5 756/5/5
f 760/5/5 757/5/5 759/5/5
f 764/5/5 762/5/5 761/5/5
f 765/5/5 762/5/5 764/5/5
f 767/5/5 764/5/5 763/5/5
f 768/5/5 764/5/5 767/5/5
f 769/5/5 766/5/5 765/5/5
f 770/5/5 766/5/5 769/5/5
f 771/5/5 769/5/5 768/5/5
f 772/5/5 769/5/5 771/5/5
f 775/5/5 774/5/5 773/5/5
f 776/5/5 774/5/5 775/5/5
f 781/5/5 778/5/5 777/5/5
f 782/5/5 778/5/5 781/5/5
f 783/5/5 780/5/5 779/5/5
f 784/5/5 780/5/5 783/5/5
f 787/5/5 786/5/5 785/5/5
f 788/5/5 786/5/5 787/5/5
f 793/5/5 790/5/5 789/5/5
f 794/5/5 790/5/5 793/5/5
f 795/5/5 792/5/5 791/5/5
f 796/5/5 792/5/5 795/5/5
f 801/1/5 798/1/5 797/1/5
f 802/1/5 798/1/5 801/1/5
f 805/5/5 800/5/5 799/5/5
f 806/5/5 800/5/5 805/5/5
f 807/5/5 804/5/5 803/5/5
f 808/5/5 804/5/5 807/5/5
f 813/5/5 810/5/5 809/5/5
f 814/5/5 810/5/5 813/5/5
f 815/1/5 801/1/5 797/1/5
f 816/1/5 798/1/5 802/1/5
f 817/5/5 812/5/5 811/5/5
f 818/5/5 812/5/5 817/5/5
f 819/1/5 815/1/5 797/1/5
f 819/1/5 816/1/5 815/1/5
f 820/1/5 798/1/5 816/1/5
f 820/1/5 816/1/5 819/1/5
f 825/5/5 822/5/5 821/5/5
f 826/5/5 822/5/5 825/5/5
f 827/5/5 824/5/5 823/5/5
f 828/5/5 824/5/5 827/5/5
f 833/2/5 830/2/5 829/2/5
f 833/2/5 832/2/5 831/2/5
f 833/2/5 831/2/5 830/2/5
f 834/2/5 832/2/5 833/2/5
f 835/2/5 833/2/5 829/2/5
f 836/2/5 832/2/5 834/2/5
f 837/2/5 833/2/5 835/2/5
f 838/2/5 836/2/5 834/2/5
f 839/2/5 833/2/5 837/2/5
f 840/2/5 838/2/5 834/2/5
f 841/2/5 839/2/5 837/2/5
f 841/2/5 840/2/5 839/2/5
f 842/2/5 840/2/5 841/2/5
f 843/2/5 840/2/5 842/2/5
f 844/2/5 838/2/5 840/2/5
f 844/2/5 840/2/5 843/2/5
f 849/5/5 846/5/5 845/5/5
f 850/5/5 846/5/5 849/5/5
f 851/5/5 848/5/5 847/5/5
f 852/5/5 848/5/5 851/5/5
f 857/5/5 854/5/5 853/5/5
f 858/5/5 854/5/5 857/5/5
f 859/5/5 856/5/5 855/5/5
f 860/5/5 856/5/5 859/5/5
f 865/5/5 862/5/5 861/5/5
f 866/5/5 862/5/5 865/5/5
f 867/5/5 864/5/5 863/5/5
f 868/5/5 864/5/5 867/5/5
f 873/5/5 870/5/5 869/5/5
f 874/5/5 870/5/5 873/5/5
f 875/5/5 872/5/5 871/5/5
f 876/5/5 872/5/5 875/5/5
f 877/5/6 878/5/6 880/5/6
f 880/5/6 878/5/6 881/5/6
f 879/5/6 880/5/6 883/5/6
f 883/5/6 880/5/6 884/5/6
f 881/5/6 882/5/6 885/5/6
f 885/5/6 882/5/6 886/5/6
f 884/5/6 885/5/6 887/5/6
f 887/5/6 885/5/6 888/5/6
f 889/5/6 890/5/6 892/5/6
f 892/5/6 890/5/6 893/5/6
f 891/5/6 892/5/6 895/5/6
f 895/5/6 892/5/6 896/5/6
f 893/5/6 894/5/6 897/5/6
f 897/5/6 894/5/6 898/5/6
f 896/5/6 897/5/6 899/5/6
f 899/5/6 897/5/6 900/5/6
f 901/5/6 902/5/6 904/5/6
f 904/5/6 902/5/6 905/5/6
f 903/5/6 904/5/6 908/5/6
f 905/5/6 906/5/6 908/5/6
f 904/5/6 905/5/6 908/5/6
f 908/5/6 906/5/6 909/5/6
f 907/5/6 908/5/6 912/5/6
f 909/5/6 910/5/6 913/5/6
f 911/5/6 912/5/6 915/5/6
f 912/5/6 908/5/6 916/5/6
f 915/5/6 912/5/6 916/5/6
f 913/5/6 914/5/6 917/5/6
f 909/5/6 913/5/6 917/5/6
f 917/5/6 914/5/6 918/5/6
f 916/5/6 908/5/6 919/5/6
f 919/5/6 908/5/6 920/5/6
f 909/5/6 917/5/6 921/5/6
f 921/5/6 917/5/6 922/5/6
f 920/5/6 921/5/6 923/5/6
f 923/5/6 921/5/6 924/5/6
f 924/5/6 921/5/6 925/5/6
f 925/5/6 921/5/6 926/5/6
f 924/5/6 925/5/6 927/5/6
f 927/5/6 925/5/6 928/5/6
f 929/5/6 930/5/6 933/5/6
f 933/5/6 930/5/6 934/5/6
f 931/5/6 932/5/6 935/5/6
f 935/5/6 932/5/6 936/5/6
f 937/5/6 938/5/6 941/5/6
f 941/5/6 938/5/6 942/5/6
f 939/5/6 940/5/6 943/5/6
f 943/5/6 940/5/6 944/5/6
f 945/5/6 946/5/6 949/5/6
f 949/5/6 946/5/6 950/5/6
f 947/5/6 948/5/6 951/5/6
f 951/5/6 948/5/6 952/5/6
f 953/5/6 954/5/6 957/5/6
f 957/5/6 954/5/6 958/5/6
f 955/5/6 956/5/6 959/5/6
f 959/5/6 956/5/6 960/5/6
f 961/5/6 962/5/6 963/5/6
f 963/5/6 962/5/6 964/5/6
f 965/5/6 966/5/6 969/5/6
f 969/5/6 966/5/6 970/5/6
f 967/5/6 968/5/6 971/5/6
f 971/5/6 968/5/6 972/5/6
f 973/5/6 974/5/6 975/5/6
f 975/5/6 974/5/6 976/5/6
f 977/2/6 978/2/6 983/2/6
f 981/2/6 982/2/6 983/2/6
f 980/2/6 981/2/6 983/2/6
f 979/2/6 980/2/6 983/2/6
f 978/2/6 979/2/6 983/2/6
f 983/2/6 982/2/6 984/2/6
f 984/2/6 982/2/6 985/2/6
f 985/2/6 982/2/6 986/2/6
f 983/2/6 984/2/6 987/2/6
f 985/2/6 986/2/6 988/2/6
f 987/2/6 984/2/6 989/2/6
f 985/2/6 988/2/6 990/2/6
f 989/2/6 984/2/6 991/2/6
f 991/2/6 984/2/6 992/2/6
f 985/2/6 990/2/6 993/2/6
f 993/2/6 990/2/6 994/2/6
f 991/2/6 992/2/6 995/2/6
f 992/2/6 993/2/6 995/2/6
f 993/2/6 994/2/6 995/2/6
f 995/2/6 994/2/6 996/2/6
f 996/2/6 994/2/6 997/2/6
f 997/2/6 994/2/6 998/2/6
f 998/2/6 994/2/6 999/2/6
f 999/2/6 994/2/6 1000/2/6
f 1001/5/6 1002/5/6 1005/5/6
f 1005/5/6 1002/5/6 1006/5/6
f 1003/5/6 1004/5/6 1007/5/6
f 1007/5/6 1004/5/6 1008/5/6
f 1009/5/6 1010/5/6 1013/5/6
f 1013/5/6 1010/5/6 1014/5/6
f 1011/5/6 1012/5/6 1015/5/6
f 1015/5/6 1012/5/6 1016/5/6
f 1017/5/6 1018/5/6 1021/5/6
f 1021/5/6 1018/5/6 1022/5/6
f 1019/5/6 1020/5/6 1023/5/6
f 1023/5/6 1020/5/6 1024/5/6
f 1025/5/6 1026/5/6 1029/5/6
f 1029/5/6 1026/5/6 1030/5/6
f 1027/5/6 1028/5/6 1031/5/6
f 1031/5/6 1028/5/6 1032/5/6
f 1033/3/6 1034/3/6 1035/3/6
f 1035/3/6 1034/3/6 1036/3/6
f 1036/3/6 1034/3/6 1037/3/6
f 1037/3/6 1034/3/6 1038/3/6
f 1033/3/6 1035/3/6 1039/3/6
f 1038/3/6 1034/3/6 1040/3/6
f 1033/3/6 1039/3/6 1041/3/6
f 1040/3/6 1034/3/6 1042/3/6
f 1033/3/6 1041/3/6 1043/3/6
f 1042/3/6 1034/3/6 1046/3/6
f 1044/3/6 1045/3/6 1047/3/6
f 1045/3/6 1046/3/6 1047/3/6
f 1033/3/6 1043/3/6 1047/3/6
f 1043/3/6 1044/3/6 1047/3/6
f 1046/3/6 1034/3/6 1048/3/6
f 1047/3/6 1046/3/6 1048/3/6
f 1049/4/6 1050/4/6 1053/4/6
f 1050/3/6 1051/3/6 1054/3/6
f 1053/4/6 1050/4/6 1054/4/6
f 1051/4/6 1052/4/6 1055/4/6
f 1054/3/6 1051/3/6 1055/3/6
f 1055/4/6 1052/4/6 1056/4/6
f 1053/3/6 1054/3/6 1057/3/6
f 1054/3/6 1055/3/6 1057/3/6
f 1055/3/6 1056/3/6 1057/3/6
f 1057/3/6 1056/3/6 1058/3/6
f 1058/3/6 1056/3/6 1059/3/6
f 1059/3/6 1056/3/6 1060/3/6
f 1057/4/6 1058/4/6 1061/4/6
f 1058/3/6 1059/3/6 1062/3/6
f 1061/4/6 1058/4/6 1062/4/6
f 1059/4/6 1060/4/6 1063/4/6
f 1062/3/6 1059/3/6 1063/3/6
f 1063/4/6 1060/4/6 1064/4/6
