# MagicaVoxel @ Ephtracy

# group
o 

# material
mtllib model-1.mtl
usemtl palette

# normals
vn 0 0 1
vn 0 0 -1
vn 1 0 0
vn -1 0 0
vn 0 -1 0
vn 0 1 0

# texcoords
vt 0.0878906 0.5
vt 0.189453 0.5
vt 0.193359 0.5

# verts
v 0.4 0.5 1.2
v -0.4 0.5 1.2
v 0.4 1.8 1.2
v -0.4 1.8 1.2
v 0.7 0.5 1.1
v 0.4 0.5 1.1
v -0.4 0.5 1.1
v -0.7 0.5 1.1
v 0.4 1.8 1.1
v -0.4 1.8 1.1
v 0.7 2 1.1
v 0.5 2 1.1
v 0.3 2 1.1
v 0.1 2 1.1
v -0.1 2 1.1
v -0.3 2 1.1
v -0.5 2 1.1
v -0.7 2 1.1
v 0.7 2.1 1.1
v 0.5 2.1 1.1
v 0.3 2.1 1.1
v 0.1 2.1 1.1
v -0.1 2.1 1.1
v -0.3 2.1 1.1
v -0.5 2.1 1.1
v -0.7 2.1 1.1
v 0.7 2.2 1.1
v -0.7 2.2 1.1
v 0.8 0.5 0.8
v 0.7 0.5 0.8
v -0.7 0.5 0.8
v -0.8 0.5 0.8
v 0.8 1.8 0.8
v 0.7 1.8 0.8
v -0.7 1.8 0.8
v -0.8 1.8 0.8
v 0.8 1.9 0.4
v 0.7 1.9 0.4
v 0.8 2 0.4
v 0.7 2 0.4
v 0.7 2.1 0.4
v 0.8 2.2 0.4
v 0.7 2.2 0.4
v 0.8 1.2 0.2
v 0.7 1.2 0.2
v 0.8 1.4 0.2
v 0.7 1.4 0.2
v 0.8 1.6 0.2
v 0.7 1.6 0.2
v 0.8 1.8 0.2
v 0.7 1.8 0.2
v 0.8 1.9 0.2
v 0.7 1.9 0.2
v 0.8 2 0.1
v 0.7 2 0.1
v 0.8 2.1 0.1
v 0.7 2.1 0.1
v 0.8 1.4 -0.0999999
v 0.7 1.4 -0.0999999
v 0.8 1.6 -0.0999999
v 0.7 1.6 -0.0999999
v 0.8 1.8 -0.0999999
v 0.7 1.8 -0.0999999
v 0.8 2 -0.0999999
v 0.7 2 -0.0999999
v 0.8 2.1 -0.0999999
v 0.7 2.1 -0.0999999
v 0.8 2.2 -0.0999999
v 0.7 2.2 -0.0999999
v 0.8 0.5 -0.3
v 0.7 0.5 -0.3
v 0.8 1.8 -0.3
v 0.7 1.8 -0.3
v 0.8 2 -0.3
v 0.7 2 -0.3
v 0.8 2.1 -0.3
v 0.7 2.1 -0.3
v 0.8 0.5 0.3
v 0.7 0.5 0.3
v 0.8 1.8 0.3
v 0.7 1.8 0.3
v 0.8 2 0.3
v 0.7 2 0.3
v 0.8 2.1 0.3
v 0.7 2.1 0.3
v 0.8 1.2 0.1
v 0.7 1.2 0.1
v 0.8 1.4 0.1
v 0.7 1.4 0.1
v 0.8 1.6 0.1
v 0.7 1.6 0.1
v 0.8 1.8 0.1
v 0.7 1.8 0.1
v 0.8 2 0.1
v 0.7 2 0.1
v 0.8 2.1 0.1
v 0.7 2.1 0.1
v 0.8 2.2 0.1
v 0.7 2.2 0.1
v 0.8 2 -0.0999999
v 0.7 2 -0.0999999
v 0.8 2.1 -0.0999999
v 0.7 2.1 -0.0999999
v 0.8 1.4 -0.2
v 0.7 1.4 -0.2
v 0.8 1.6 -0.2
v 0.7 1.6 -0.2
v 0.8 1.8 -0.2
v 0.7 1.8 -0.2
v 0.8 1.9 -0.2
v 0.7 1.9 -0.2
v 0.8 1.9 -0.4
v 0.7 1.9 -0.4
v 0.8 2 -0.4
v 0.7 2 -0.4
v 0.7 2.1 -0.4
v 0.8 2.2 -0.4
v 0.7 2.2 -0.4
v 0.8 0.5 -0.8
v 0.7 0.5 -0.8
v -0.7 0.5 -0.8
v -0.8 0.5 -0.8
v 0.8 1.8 -0.8
v 0.7 1.8 -0.8
v -0.7 1.8 -0.8
v -0.8 1.8 -0.8
v 0.7 0.5 -1.1
v 0.4 0.5 -1.1
v -0.4 0.5 -1.1
v -0.7 0.5 -1.1
v 0.4 1.8 -1.1
v -0.4 1.8 -1.1
v 0.7 2 -1.1
v 0.5 2 -1.1
v 0.3 2 -1.1
v 0.1 2 -1.1
v -0.1 2 -1.1
v -0.3 2 -1.1
v -0.5 2 -1.1
v -0.7 2 -1.1
v 0.7 2.1 -1.1
v 0.5 2.1 -1.1
v 0.3 2.1 -1.1
v 0.1 2.1 -1.1
v -0.1 2.1 -1.1
v -0.3 2.1 -1.1
v -0.5 2.1 -1.1
v -0.7 2.1 -1.1
v 0.7 2.2 -1.1
v -0.7 2.2 -1.1
v 0.4 0.5 -1.2
v -0.4 0.5 -1.2
v 0.4 1.8 -1.2
v -0.4 1.8 -1.2
v 0.8 0.5 0.8
v 0.8 1.8 0.8
v 0.8 1.9 0.4
v 0.8 2 0.4
v 0.8 2.2 0.4
v 0.8 0.5 0.3
v 0.8 1.8 0.3
v 0.8 2 0.3
v 0.8 2.1 0.3
v 0.8 2.2 0.3
v 0.8 1.2 0.2
v 0.8 1.4 0.2
v 0.8 1.6 0.2
v 0.8 1.8 0.2
v 0.8 1.9 0.2
v 0.8 2 0.2
v 0.8 1.2 0.1
v 0.8 1.4 0.1
v 0.8 1.6 0.1
v 0.8 1.8 0.1
v 0.8 2 0.1
v 0.8 2.1 0.1
v 0.8 2.2 0.1
v 0.8 1.4 -0.0999999
v 0.8 1.6 -0.0999999
v 0.8 1.8 -0.0999999
v 0.8 2 -0.0999999
v 0.8 2.1 -0.0999999
v 0.8 2.2 -0.0999999
v 0.8 1.4 -0.2
v 0.8 1.6 -0.2
v 0.8 1.8 -0.2
v 0.8 1.9 -0.2
v 0.8 2 -0.2
v 0.8 0.5 -0.3
v 0.8 1.8 -0.3
v 0.8 2 -0.3
v 0.8 2.1 -0.3
v 0.8 2.2 -0.3
v 0.8 1.9 -0.4
v 0.8 2 -0.4
v 0.8 2.2 -0.4
v 0.8 0.5 -0.8
v 0.8 1.8 -0.8
v 0.7 0.5 1.1
v 0.7 2 1.1
v 0.7 2.1 1.1
v 0.7 2.2 1.1
v 0.7 2 0.9
v 0.7 2.1 0.9
v 0.7 0.5 0.8
v 0.7 1.8 0.8
v 0.7 2 0.7
v 0.7 2.1 0.7
v 0.7 2 0.5
v 0.7 2.1 0.5
v 0.7 1.9 0.4
v 0.7 2 0.4
v 0.7 2.1 0.4
v 0.7 2.2 0.4
v 0.7 0.5 0.3
v 0.7 1.8 0.3
v 0.7 2 0.3
v 0.7 2.1 0.3
v 0.7 1.2 0.2
v 0.7 1.4 0.2
v 0.7 1.6 0.2
v 0.7 1.8 0.2
v 0.7 1.9 0.2
v 0.7 2 0.2
v 0.7 1.2 0.1
v 0.7 1.4 0.1
v 0.7 1.6 0.1
v 0.7 1.8 0.1
v 0.7 2 0.1
v 0.7 2.1 0.1
v 0.7 2.2 0.1
v 0.7 1.4 -0.0999999
v 0.7 1.6 -0.0999999
v 0.7 1.8 -0.0999999
v 0.7 2 -0.0999999
v 0.7 2.1 -0.0999999
v 0.7 2.2 -0.0999999
v 0.7 1.4 -0.2
v 0.7 1.6 -0.2
v 0.7 1.8 -0.2
v 0.7 1.9 -0.2
v 0.7 2 -0.2
v 0.7 0.5 -0.3
v 0.7 1.8 -0.3
v 0.7 2 -0.3
v 0.7 2.1 -0.3
v 0.7 1.9 -0.4
v 0.7 2 -0.4
v 0.7 2.1 -0.4
v 0.7 2.2 -0.4
v 0.7 2 -0.5
v 0.7 2.1 -0.5
v 0.7 2 -0.7
v 0.7 2.1 -0.7
v 0.7 0.5 -0.8
v 0.7 1.8 -0.8
v 0.7 2 -0.9
v 0.7 2.1 -0.9
v 0.7 0.5 -1.1
v 0.7 2 -1.1
v 0.7 2.1 -1.1
v 0.7 2.2 -1.1
v 0.4 0.5 1.2
v 0.4 1.8 1.2
v 0.4 0.5 1.1
v 0.4 1.8 1.1
v 0.4 0.5 -1.1
v 0.4 1.8 -1.1
v 0.4 0.5 -1.2
v 0.4 1.8 -1.2
v -0.4 0.5 1.2
v -0.4 1.8 1.2
v -0.4 0.5 1.1
v -0.4 1.8 1.1
v -0.4 0.5 -1.1
v -0.4 1.8 -1.1
v -0.4 0.5 -1.2
v -0.4 1.8 -1.2
v -0.7 0.5 1.1
v -0.7 2 1.1
v -0.7 2.1 1.1
v -0.7 2.2 1.1
v -0.7 2 0.9
v -0.7 2.1 0.9
v -0.7 0.5 0.8
v -0.7 1.8 0.8
v -0.7 2 0.7
v -0.7 2.1 0.7
v -0.7 2 0.5
v -0.7 2.1 0.5
v -0.7 2 0.3
v -0.7 2.1 0.3
v -0.7 2 0.1
v -0.7 2.1 0.1
v -0.7 2 -0.0999999
v -0.7 2.1 -0.0999999
v -0.7 2 -0.3
v -0.7 2.1 -0.3
v -0.7 2 -0.5
v -0.7 2.1 -0.5
v -0.7 2 -0.7
v -0.7 2.1 -0.7
v -0.7 0.5 -0.8
v -0.7 1.8 -0.8
v -0.7 2 -0.9
v -0.7 2.1 -0.9
v -0.7 0.5 -1.1
v -0.7 2 -1.1
v -0.7 2.1 -1.1
v -0.7 2.2 -1.1
v -0.8 0.5 0.8
v -0.8 1.8 0.8
v -0.8 0.5 -0.8
v -0.8 1.8 -0.8
v 0.8 0.5 0.8
v 0.8 0.5 0.3
v 0.8 0.5 -0.3
v 0.8 0.5 -0.8
v 0.7 0.5 1.1
v 0.7 0.5 0.8
v 0.7 0.5 0.3
v 0.7 0.5 -0.3
v 0.7 0.5 -0.8
v 0.7 0.5 -1.1
v 0.4 0.5 1.2
v 0.4 0.5 1.1
v 0.4 0.5 -1.1
v 0.4 0.5 -1.2
v -0.4 0.5 1.2
v -0.4 0.5 1.1
v -0.4 0.5 -1.1
v -0.4 0.5 -1.2
v -0.7 0.5 1.1
v -0.7 0.5 0.8
v -0.7 0.5 -0.8
v -0.7 0.5 -1.1
v -0.8 0.5 0.8
v -0.8 0.5 -0.8
v 0.8 1.2 0.2
v 0.8 1.2 0.1
v 0.7 1.2 0.2
v 0.7 1.2 0.1
v 0.8 1.4 -0.0999999
v 0.8 1.4 -0.2
v 0.7 1.4 -0.0999999
v 0.7 1.4 -0.2
v 0.8 1.9 0.4
v 0.8 1.9 0.2
v 0.8 1.9 -0.2
v 0.8 1.9 -0.4
v 0.7 1.9 0.4
v 0.7 1.9 0.2
v 0.7 1.9 -0.2
v 0.7 1.9 -0.4
v 0.8 2 0.1
v 0.8 2 -0.0999999
v 0.7 2 0.1
v 0.7 2 -0.0999999
v 0.8 2.1 0.3
v 0.8 2.1 0.1
v 0.8 2.1 -0.0999999
v 0.8 2.1 -0.3
v 0.7 2.1 0.3
v 0.7 2.1 0.1
v 0.7 2.1 -0.0999999
v 0.7 2.1 -0.3
v 0.8 1.8 0.8
v 0.8 1.8 0.3
v 0.8 1.8 -0.3
v 0.8 1.8 -0.8
v 0.7 1.8 0.8
v 0.7 1.8 0.3
v 0.7 1.8 -0.3
v 0.7 1.8 -0.8
v 0.4 1.8 1.2
v 0.4 1.8 1.1
v 0.4 1.8 -1.1
v 0.4 1.8 -1.2
v -0.4 1.8 1.2
v -0.4 1.8 1.1
v -0.4 1.8 -1.1
v -0.4 1.8 -1.2
v -0.7 1.8 0.8
v -0.7 1.8 -0.8
v -0.8 1.8 0.8
v -0.8 1.8 -0.8
v 0.8 2 0.3
v 0.8 2 0.2
v 0.8 2 0.1
v 0.8 2 -0.0999999
v 0.8 2 -0.2
v 0.8 2 -0.3
v 0.7 2 0.3
v 0.7 2 0.2
v 0.7 2 0.1
v 0.7 2 -0.0999999
v 0.7 2 -0.2
v 0.7 2 -0.3
v 0.8 2.1 0.1
v 0.8 2.1 -0.0999999
v 0.7 2.1 0.1
v 0.7 2.1 -0.0999999
v 0.8 2.2 0.4
v 0.8 2.2 0.3
v 0.8 2.2 0.1
v 0.8 2.2 -0.0999999
v 0.8 2.2 -0.3
v 0.8 2.2 -0.4
v 0.7 2.2 1.1
v 0.7 2.2 0.4
v 0.7 2.2 0.3
v 0.7 2.2 0.1
v 0.7 2.2 -0.0999999
v 0.7 2.2 -0.3
v 0.7 2.2 -0.4
v 0.7 2.2 -1.1
v -0.7 2.2 1.1
v -0.7 2.2 -1.1

# faces
f 3/1/1 2/1/1 1/1/1
f 4/1/1 2/1/1 3/1/1
f 9/1/1 6/1/1 5/1/1
f 10/1/1 8/1/1 7/1/1
f 11/1/1 9/1/1 5/1/1
f 11/1/1 10/1/1 9/1/1
f 12/1/1 10/1/1 11/1/1
f 13/1/1 10/1/1 12/1/1
f 14/1/1 10/1/1 13/1/1
f 15/1/1 10/1/1 14/1/1
f 16/1/1 10/1/1 15/1/1
f 17/1/1 8/1/1 10/1/1
f 17/1/1 10/1/1 16/1/1
f 18/1/1 8/1/1 17/1/1
f 19/2/1 12/2/1 11/2/1
f 20/3/1 13/3/1 12/3/1
f 20/2/1 12/2/1 19/2/1
f 21/2/1 14/2/1 13/2/1
f 21/3/1 13/3/1 20/3/1
f 22/3/1 15/3/1 14/3/1
f 22/2/1 14/2/1 21/2/1
f 23/2/1 16/2/1 15/2/1
f 23/3/1 15/3/1 22/3/1
f 24/3/1 17/3/1 16/3/1
f 24/2/1 16/2/1 23/2/1
f 25/2/1 18/2/1 17/2/1
f 25/3/1 17/3/1 24/3/1
f 26/2/1 18/2/1 25/2/1
f 27/1/1 22/1/1 21/1/1
f 27/1/1 20/1/1 19/1/1
f 27/1/1 26/1/1 25/1/1
f 27/1/1 25/1/1 24/1/1
f 27/1/1 24/1/1 23/1/1
f 27/1/1 23/1/1 22/1/1
f 27/1/1 21/1/1 20/1/1
f 28/1/1 26/1/1 27/1/1
f 33/1/1 30/1/1 29/1/1
f 34/1/1 30/1/1 33/1/1
f 35/1/1 32/1/1 31/1/1
f 36/1/1 32/1/1 35/1/1
f 39/3/1 38/3/1 37/3/1
f 40/3/1 38/3/1 39/3/1
f 41/2/1 40/2/1 39/2/1
f 42/2/1 41/2/1 39/2/1
f 43/2/1 41/2/1 42/2/1
f 46/3/1 45/3/1 44/3/1
f 47/3/1 45/3/1 46/3/1
f 48/2/1 47/2/1 46/2/1
f 49/2/1 47/2/1 48/2/1
f 50/3/1 49/3/1 48/3/1
f 51/3/1 49/3/1 50/3/1
f 52/2/1 51/2/1 50/2/1
f 53/2/1 51/2/1 52/2/1
f 56/2/1 55/2/1 54/2/1
f 57/2/1 55/2/1 56/2/1
f 60/2/1 59/2/1 58/2/1
f 61/2/1 59/2/1 60/2/1
f 62/3/1 61/3/1 60/3/1
f 63/3/1 61/3/1 62/3/1
f 64/2/1 63/2/1 62/2/1
f 65/2/1 63/2/1 64/2/1
f 68/3/1 67/3/1 66/3/1
f 69/3/1 67/3/1 68/3/1
f 72/1/1 71/1/1 70/1/1
f 73/1/1 71/1/1 72/1/1
f 76/2/1 75/2/1 74/2/1
f 77/2/1 75/2/1 76/2/1
f 78/1/2 79/1/2 80/1/2
f 80/1/2 79/1/2 81/1/2
f 82/2/2 83/2/2 84/2/2
f 84/2/2 83/2/2 85/2/2
f 86/3/2 87/3/2 88/3/2
f 88/3/2 87/3/2 89/3/2
f 88/2/2 89/2/2 90/2/2
f 90/2/2 89/2/2 91/2/2
f 90/3/2 91/3/2 92/3/2
f 92/3/2 91/3/2 93/3/2
f 92/2/2 93/2/2 94/2/2
f 94/2/2 93/2/2 95/2/2
f 96/3/2 97/3/2 98/3/2
f 98/3/2 97/3/2 99/3/2
f 100/2/2 101/2/2 102/2/2
f 102/2/2 101/2/2 103/2/2
f 104/2/2 105/2/2 106/2/2
f 106/2/2 105/2/2 107/2/2
f 106/3/2 107/3/2 108/3/2
f 108/3/2 107/3/2 109/3/2
f 108/2/2 109/2/2 110/2/2
f 110/2/2 109/2/2 111/2/2
f 112/3/2 113/3/2 114/3/2
f 114/3/2 113/3/2 115/3/2
f 114/2/2 115/2/2 116/2/2
f 114/2/2 116/2/2 117/2/2
f 117/2/2 116/2/2 118/2/2
f 119/1/2 120/1/2 123/1/2
f 123/1/2 120/1/2 124/1/2
f 121/1/2 122/1/2 125/1/2
f 125/1/2 122/1/2 126/1/2
f 127/1/2 128/1/2 131/1/2
f 129/1/2 130/1/2 132/1/2
f 127/1/2 131/1/2 133/1/2
f 131/1/2 132/1/2 133/1/2
f 133/1/2 132/1/2 134/1/2
f 134/1/2 132/1/2 135/1/2
f 135/1/2 132/1/2 136/1/2
f 136/1/2 132/1/2 137/1/2
f 137/1/2 132/1/2 138/1/2
f 132/1/2 130/1/2 139/1/2
f 138/1/2 132/1/2 139/1/2
f 139/1/2 130/1/2 140/1/2
f 133/2/2 134/2/2 141/2/2
f 134/3/2 135/3/2 142/3/2
f 141/2/2 134/2/2 142/2/2
f 135/2/2 136/2/2 143/2/2
f 142/3/2 135/3/2 143/3/2
f 136/3/2 137/3/2 144/3/2
f 143/2/2 136/2/2 144/2/2
f 137/2/2 138/2/2 145/2/2
f 144/3/2 137/3/2 145/3/2
f 138/3/2 139/3/2 146/3/2
f 145/2/2 138/2/2 146/2/2
f 139/2/2 140/2/2 147/2/2
f 146/3/2 139/3/2 147/3/2
f 147/2/2 140/2/2 148/2/2
f 143/1/2 144/1/2 149/1/2
f 141/1/2 142/1/2 149/1/2
f 147/1/2 148/1/2 149/1/2
f 146/1/2 147/1/2 149/1/2
f 145/1/2 146/1/2 149/1/2
f 144/1/2 145/1/2 149/1/2
f 142/1/2 143/1/2 149/1/2
f 149/1/2 148/1/2 150/1/2
f 151/1/2 152/1/2 153/1/2
f 153/1/2 152/1/2 154/1/2
f 160/1/3 156/1/3 155/1/3
f 161/1/3 156/1/3 160/1/3
f 162/2/3 159/2/3 158/2/3
f 162/3/3 158/3/3 157/3/3
f 163/2/3 159/2/3 162/2/3
f 164/2/3 159/2/3 163/2/3
f 169/3/3 162/3/3 157/3/3
f 170/3/3 162/3/3 169/3/3
f 171/3/3 166/3/3 165/3/3
f 172/2/3 167/2/3 166/2/3
f 172/3/3 166/3/3 171/3/3
f 173/3/3 168/3/3 167/3/3
f 173/2/3 167/2/3 172/2/3
f 174/2/3 169/2/3 168/2/3
f 174/3/3 168/3/3 173/3/3
f 174/2/3 170/2/3 169/2/3
f 175/2/3 170/2/3 174/2/3
f 176/3/3 164/3/3 163/3/3
f 177/3/3 164/3/3 176/3/3
f 181/2/3 176/2/3 175/2/3
f 182/2/3 176/2/3 181/2/3
f 184/2/3 179/2/3 178/2/3
f 185/3/3 180/3/3 179/3/3
f 185/2/3 179/2/3 184/2/3
f 186/2/3 181/2/3 180/2/3
f 186/3/3 180/3/3 185/3/3
f 187/2/3 181/2/3 186/2/3
f 188/2/3 181/2/3 187/2/3
f 191/3/3 188/3/3 187/3/3
f 192/3/3 183/3/3 182/3/3
f 193/3/3 183/3/3 192/3/3
f 194/3/3 191/3/3 187/3/3
f 195/2/3 192/2/3 191/2/3
f 195/3/3 191/3/3 194/3/3
f 195/2/3 193/2/3 192/2/3
f 196/2/3 193/2/3 195/2/3
f 197/1/3 190/1/3 189/1/3
f 198/1/3 190/1/3 197/1/3
f 203/1/3 200/1/3 199/1/3
f 203/2/3 201/2/3 200/2/3
f 204/1/3 202/1/3 201/1/3
f 204/2/3 201/2/3 203/2/3
f 205/1/3 203/1/3 199/1/3
f 206/1/3 203/1/3 205/1/3
f 207/3/3 204/3/3 203/3/3
f 207/1/3 203/1/3 206/1/3
f 208/1/3 202/1/3 204/1/3
f 208/3/3 204/3/3 207/3/3
f 209/1/3 207/1/3 206/1/3
f 209/2/3 208/2/3 207/2/3
f 210/1/3 202/1/3 208/1/3
f 210/2/3 208/2/3 209/2/3
f 211/1/3 209/1/3 206/1/3
f 212/3/3 210/3/3 209/3/3
f 212/1/3 209/1/3 211/1/3
f 213/1/3 202/1/3 210/1/3
f 213/3/3 210/3/3 212/3/3
f 214/1/3 202/1/3 213/1/3
f 216/1/3 211/1/3 206/1/3
f 219/1/3 216/1/3 215/1/3
f 220/1/3 216/1/3 219/1/3
f 221/1/3 216/1/3 220/1/3
f 222/1/3 211/1/3 216/1/3
f 222/1/3 216/1/3 221/1/3
f 223/1/3 211/1/3 222/1/3
f 224/2/3 218/2/3 217/2/3
f 225/1/3 219/1/3 215/1/3
f 229/2/3 218/2/3 224/2/3
f 230/2/3 218/2/3 229/2/3
f 232/1/3 228/1/3 227/1/3
f 232/1/3 226/1/3 225/1/3
f 232/1/3 229/1/3 228/1/3
f 232/1/3 227/1/3 226/1/3
f 233/1/3 229/1/3 232/1/3
f 234/1/3 229/1/3 233/1/3
f 235/1/3 229/1/3 234/1/3
f 236/1/3 231/1/3 230/1/3
f 237/1/3 231/1/3 236/1/3
f 238/1/3 232/1/3 225/1/3
f 242/2/3 236/2/3 235/2/3
f 243/1/3 225/1/3 215/1/3
f 243/1/3 241/1/3 240/1/3
f 243/1/3 238/1/3 225/1/3
f 243/1/3 240/1/3 239/1/3
f 243/1/3 239/1/3 238/1/3
f 244/1/3 241/1/3 243/1/3
f 245/2/3 236/2/3 242/2/3
f 246/2/3 236/2/3 245/2/3
f 247/1/3 241/1/3 244/1/3
f 251/3/3 249/3/3 248/3/3
f 251/1/3 248/1/3 247/1/3
f 252/1/3 250/1/3 249/1/3
f 252/3/3 249/3/3 251/3/3
f 253/1/3 251/1/3 247/1/3
f 253/2/3 252/2/3 251/2/3
f 254/1/3 250/1/3 252/1/3
f 254/2/3 252/2/3 253/2/3
f 256/1/3 253/1/3 247/1/3
f 256/1/3 247/1/3 244/1/3
f 257/3/3 254/3/3 253/3/3
f 257/1/3 256/1/3 255/1/3
f 257/1/3 253/1/3 256/1/3
f 258/1/3 250/1/3 254/1/3
f 258/3/3 254/3/3 257/3/3
f 259/1/3 257/1/3 255/1/3
f 260/2/3 258/2/3 257/2/3
f 260/1/3 257/1/3 259/1/3
f 261/1/3 250/1/3 258/1/3
f 261/2/3 258/2/3 260/2/3
f 262/1/3 250/1/3 261/1/3
f 265/1/3 264/1/3 263/1/3
f 266/1/3 264/1/3 265/1/3
f 269/1/3 268/1/3 267/1/3
f 270/1/3 268/1/3 269/1/3
f 271/1/4 272/1/4 273/1/4
f 273/1/4 272/1/4 274/1/4
f 275/1/4 276/1/4 277/1/4
f 277/1/4 276/1/4 278/1/4
f 279/1/4 280/1/4 283/1/4
f 280/2/4 281/2/4 283/2/4
f 281/1/4 282/1/4 284/1/4
f 283/2/4 281/2/4 284/2/4
f 279/1/4 283/1/4 285/1/4
f 285/1/4 283/1/4 286/1/4
f 283/3/4 284/3/4 287/3/4
f 286/1/4 283/1/4 287/1/4
f 284/1/4 282/1/4 288/1/4
f 287/3/4 284/3/4 288/3/4
f 286/1/4 287/1/4 289/1/4
f 287/2/4 288/2/4 289/2/4
f 288/1/4 282/1/4 290/1/4
f 289/2/4 288/2/4 290/2/4
f 286/1/4 289/1/4 291/1/4
f 289/3/4 290/3/4 291/3/4
f 290/1/4 282/1/4 292/1/4
f 291/3/4 290/3/4 292/3/4
f 286/1/4 291/1/4 293/1/4
f 291/2/4 292/2/4 293/2/4
f 292/1/4 282/1/4 294/1/4
f 293/2/4 292/2/4 294/2/4
f 286/1/4 293/1/4 295/1/4
f 293/3/4 294/3/4 295/3/4
f 294/1/4 282/1/4 296/1/4
f 295/3/4 294/3/4 296/3/4
f 286/1/4 295/1/4 297/1/4
f 295/2/4 296/2/4 297/2/4
f 296/1/4 282/1/4 298/1/4
f 297/2/4 296/2/4 298/2/4
f 286/1/4 297/1/4 299/1/4
f 297/3/4 298/3/4 299/3/4
f 298/1/4 282/1/4 300/1/4
f 299/3/4 298/3/4 300/3/4
f 286/1/4 299/1/4 301/1/4
f 299/2/4 300/2/4 301/2/4
f 300/1/4 282/1/4 302/1/4
f 301/2/4 300/2/4 302/2/4
f 286/1/4 301/1/4 304/1/4
f 301/3/4 302/3/4 305/3/4
f 303/1/4 304/1/4 305/1/4
f 304/1/4 301/1/4 305/1/4
f 302/1/4 282/1/4 306/1/4
f 305/3/4 302/3/4 306/3/4
f 303/1/4 305/1/4 307/1/4
f 305/2/4 306/2/4 308/2/4
f 307/1/4 305/1/4 308/1/4
f 306/1/4 282/1/4 309/1/4
f 308/2/4 306/2/4 309/2/4
f 309/1/4 282/1/4 310/1/4
f 311/1/4 312/1/4 313/1/4
f 313/1/4 312/1/4 314/1/4
f 320/1/5 316/1/5 315/1/5
f 321/1/5 316/1/5 320/1/5
f 322/1/5 318/1/5 317/1/5
f 323/1/5 318/1/5 322/1/5
f 326/1/5 321/1/5 320/1/5
f 326/1/5 324/1/5 323/1/5
f 326/1/5 323/1/5 322/1/5
f 326/1/5 322/1/5 321/1/5
f 326/1/5 320/1/5 319/1/5
f 327/1/5 324/1/5 326/1/5
f 329/1/5 326/1/5 325/1/5
f 329/1/5 328/1/5 327/1/5
f 329/1/5 327/1/5 326/1/5
f 330/1/5 328/1/5 329/1/5
f 331/1/5 328/1/5 330/1/5
f 332/1/5 328/1/5 331/1/5
f 333/1/5 331/1/5 330/1/5
f 334/1/5 331/1/5 333/1/5
f 335/1/5 331/1/5 334/1/5
f 336/1/5 331/1/5 335/1/5
f 337/1/5 335/1/5 334/1/5
f 338/1/5 335/1/5 337/1/5
f 341/3/5 340/3/5 339/3/5
f 342/3/5 340/3/5 341/3/5
f 345/2/5 344/2/5 343/2/5
f 346/2/5 344/2/5 345/2/5
f 351/3/5 348/3/5 347/3/5
f 352/3/5 348/3/5 351/3/5
f 353/3/5 350/3/5 349/3/5
f 354/3/5 350/3/5 353/3/5
f 357/2/5 356/2/5 355/2/5
f 358/2/5 356/2/5 357/2/5
f 363/3/5 360/3/5 359/3/5
f 364/3/5 360/3/5 363/3/5
f 365/3/5 362/3/5 361/3/5
f 366/3/5 362/3/5 365/3/5
f 367/1/6 368/1/6 371/1/6
f 371/1/6 368/1/6 372/1/6
f 369/1/6 370/1/6 373/1/6
f 373/1/6 370/1/6 374/1/6
f 375/1/6 376/1/6 379/1/6
f 379/1/6 376/1/6 380/1/6
f 377/1/6 378/1/6 381/1/6
f 381/1/6 378/1/6 382/1/6
f 383/1/6 384/1/6 385/1/6
f 385/1/6 384/1/6 386/1/6
f 387/3/6 388/3/6 393/3/6
f 388/2/6 389/2/6 394/2/6
f 393/3/6 388/3/6 394/3/6
f 394/2/6 389/2/6 395/2/6
f 390/2/6 391/2/6 396/2/6
f 391/3/6 392/3/6 397/3/6
f 396/2/6 391/2/6 397/2/6
f 397/3/6 392/3/6 398/3/6
f 399/2/6 400/2/6 401/2/6
f 401/2/6 400/2/6 402/2/6
f 403/2/6 404/2/6 410/2/6
f 404/3/6 405/3/6 411/3/6
f 410/2/6 404/2/6 411/2/6
f 411/3/6 405/3/6 412/3/6
f 406/3/6 407/3/6 413/3/6
f 407/2/6 408/2/6 414/2/6
f 413/3/6 407/3/6 414/3/6
f 414/2/6 408/2/6 415/2/6
f 412/1/6 413/1/6 417/1/6
f 415/1/6 416/1/6 417/1/6
f 414/1/6 415/1/6 417/1/6
f 413/1/6 414/1/6 417/1/6
f 409/1/6 410/1/6 417/1/6
f 410/1/6 411/1/6 417/1/6
f 411/1/6 412/1/6 417/1/6
f 417/1/6 416/1/6 418/1/6
