# MagicaVoxel @ Ephtracy

# group
o 

# material
mtllib model-15.mtl
usemtl palette

# normals
vn 0 0 1
vn 0 0 -1
vn 1 0 0
vn -1 0 0
vn 0 -1 0
vn 0 1 0

# texcoords
vt 0.818359 0.5
vt 0.822266 0.5
vt 0.826172 0.5

# verts
v 0.5 0.5 -0.1
v -0.5 0.5 -0.1
v 0.5 0.7 -0.1
v -0.5 0.7 -0.1
v 0.8 0 -0.2
v -0.4 0 -0.2
v 0.8 0.1 -0.2
v -0.4 0.1 -0.2
v 0.8 0.4 -0.2
v 0.4 0.4 -0.2
v 0.4 0.5 -0.2
v -0.4 0.5 -0.2
v 0.8 0 -0.9
v -0.4 0 -0.9
v 0.8 0.1 -0.9
v -0.4 0.1 -0.9
v 0.8 0.4 -0.9
v 0.4 0.4 -0.9
v 0.4 0.5 -0.9
v -0.4 0.5 -0.9
v 0.5 0.5 -1
v -0.5 0.5 -1
v 0.5 0.7 -1
v -0.5 0.7 -1
v 0.8 0 -0.2
v 0.8 0.1 -0.2
v 0.8 0.4 -0.2
v 0.8 0 -0.9
v 0.8 0.1 -0.9
v 0.8 0.4 -0.9
v 0.5 0.5 -0.1
v 0.5 0.7 -0.1
v 0.5 0.5 -1
v 0.5 0.7 -1
v 0.4 0.4 -0.2
v 0.4 0.5 -0.2
v 0.4 0.4 -0.9
v 0.4 0.5 -0.9
v -0.4 0 -0.2
v -0.4 0.1 -0.2
v -0.4 0.5 -0.2
v -0.4 0 -0.9
v -0.4 0.1 -0.9
v -0.4 0.5 -0.9
v -0.5 0.5 -0.1
v -0.5 0.7 -0.1
v -0.5 0.5 -1
v -0.5 0.7 -1
v 0.8 0 -0.2
v 0.8 0 -0.9
v -0.4 0 -0.2
v -0.4 0 -0.9
v 0.5 0.5 -0.1
v 0.5 0.5 -1
v 0.4 0.5 -0.2
v 0.4 0.5 -0.9
v -0.4 0.5 -0.2
v -0.4 0.5 -0.9
v -0.5 0.5 -0.1
v -0.5 0.5 -1
v 0.8 0.4 -0.2
v 0.8 0.4 -0.9
v 0.4 0.4 -0.2
v 0.4 0.4 -0.9
v 0.5 0.7 -0.1
v 0.5 0.7 -1
v -0.5 0.7 -0.1
v -0.5 0.7 -1

# faces
f 3/3/1 2/3/1 1/3/1
f 4/3/1 2/3/1 3/3/1
f 7/1/1 6/1/1 5/1/1
f 8/1/1 6/1/1 7/1/1
f 9/2/1 8/2/1 7/2/1
f 10/2/1 8/2/1 9/2/1
f 11/2/1 8/2/1 10/2/1
f 12/2/1 8/2/1 11/2/1
f 13/1/2 14/1/2 15/1/2
f 15/1/2 14/1/2 16/1/2
f 15/2/2 16/2/2 17/2/2
f 17/2/2 16/2/2 18/2/2
f 18/2/2 16/2/2 19/2/2
f 19/2/2 16/2/2 20/2/2
f 21/3/2 22/3/2 23/3/2
f 23/3/2 22/3/2 24/3/2
f 28/1/3 26/1/3 25/1/3
f 29/2/3 27/2/3 26/2/3
f 29/1/3 26/1/3 28/1/3
f 30/2/3 27/2/3 29/2/3
f 33/3/3 32/3/3 31/3/3
f 34/3/3 32/3/3 33/3/3
f 37/2/3 36/2/3 35/2/3
f 38/2/3 36/2/3 37/2/3
f 39/1/4 40/1/4 42/1/4
f 40/2/4 41/2/4 43/2/4
f 42/1/4 40/1/4 43/1/4
f 43/2/4 41/2/4 44/2/4
f 45/3/4 46/3/4 47/3/4
f 47/3/4 46/3/4 48/3/4
f 51/1/5 50/1/5 49/1/5
f 52/1/5 50/1/5 51/1/5
f 55/3/5 54/3/5 53/3/5
f 56/3/5 54/3/5 55/3/5
f 57/3/5 55/3/5 53/3/5
f 58/3/5 54/3/5 56/3/5
f 59/3/5 57/3/5 53/3/5
f 59/3/5 58/3/5 57/3/5
f 60/3/5 54/3/5 58/3/5
f 60/3/5 58/3/5 59/3/5
f 61/2/6 62/2/6 63/2/6
f 63/2/6 62/2/6 64/2/6
f 65/3/6 66/3/6 67/3/6
f 67/3/6 66/3/6 68/3/6
