# MagicaVoxel @ Ephtracy

# group
o 

# material
mtllib model-2.mtl
usemtl palette

# normals
vn -1 0 0
vn 1 0 0
vn 0 0 1
vn 0 0 -1
vn 0 -1 0
vn 0 1 0

# texcoords
vt 0.00195313 0.5
vt 0.0136719 0.5
vt 0.0292969 0.5
vt 0.630859 0.5

# verts
v 0.8 4.1 0.3
v 0.8 4.1 -0.3
v 0.8 4.2 0.3
v 0.8 4.2 -0.3
v 0.8 4.6 0.7
v 0.8 4.6 0.4
v 0.8 4.6 -0.4
v 0.8 4.6 -0.7
v 0.8 4.7 0.6
v 0.8 4.7 0.5
v 0.8 4.7 -0.5
v 0.8 4.7 -0.6
v 0.8 4.9 0.6
v 0.8 4.9 0.5
v 0.8 4.9 -0.5
v 0.8 4.9 -0.6
v 0.8 5 0.6
v 0.8 5 0.5
v 0.8 5 -0.5
v 0.8 5 -0.6
v 0.8 5.1 0.6
v 0.8 5.1 0.5
v 0.8 5.1 -0.5
v 0.8 5.1 -0.6
v 0.8 5.2 0.7
v 0.8 5.2 0.4
v 0.8 5.2 -0.4
v 0.8 5.2 -0.7
v 0.8 5.3 0.6
v 0.8 5.3 0.2
v 0.8 5.4 1
v 0.8 5.4 0.6
v 0.8 5.5 0.4
v 0.8 5.5 0.2
v 0.8 5.5 -0.2
v 0.8 5.5 -0.6
v 0.8 5.6 1
v 0.8 5.6 0.4
v 0.8 5.6 -0.6
v 0.8 5.6 -1
v 0.8 5.7 -0.2
v 0.8 5.7 -0.4
v 0.8 5.8 -0.4
v 0.8 5.8 -1
v 0.9 4.1 0.3
v 0.9 4.1 -0.3
v 0.9 4.2 0.3
v 0.9 4.2 -0.3
v 0.9 4.6 0.7
v 0.9 4.6 0.4
v 0.9 4.6 -0.4
v 0.9 4.6 -0.7
v 0.9 4.7 0.6
v 0.9 4.7 0.5
v 0.9 4.7 -0.5
v 0.9 4.7 -0.6
v 0.9 4.9 0.6
v 0.9 4.9 0.5
v 0.9 4.9 -0.5
v 0.9 4.9 -0.6
v 0.9 5 0.6
v 0.9 5 0.5
v 0.9 5 -0.5
v 0.9 5 -0.6
v 0.9 5.1 0.6
v 0.9 5.1 0.5
v 0.9 5.1 -0.5
v 0.9 5.1 -0.6
v 0.9 5.2 0.7
v 0.9 5.2 0.4
v 0.9 5.2 -0.4
v 0.9 5.2 -0.7
v 1 5.3 0.6
v 1 5.3 0.2
v 1 5.4 1
v 1 5.4 0.6
v 1 5.5 0.4
v 1 5.5 0.2
v 1 5.5 -0.2
v 1 5.5 -0.6
v 1 5.6 1
v 1 5.6 0.4
v 1 5.6 -0.6
v 1 5.6 -1
v 1 5.7 -0.2
v 1 5.7 -0.4
v 1 5.8 -0.4
v 1 5.8 -1
v 0.8 5.4 1
v 0.8 5.6 1
v 1 5.4 1
v 1 5.6 1
v 0.8 4.6 0.7
v 0.8 5.2 0.7
v 0.9 4.6 0.7
v 0.9 5.2 0.7
v 0.8 5.3 0.6
v 0.8 5.4 0.6
v 1 5.3 0.6
v 1 5.4 0.6
v 0.8 4.1 0.3
v 0.8 4.2 0.3
v 0.9 4.1 0.3
v 0.9 4.2 0.3
v 0.8 5.5 -0.2
v 0.8 5.7 -0.2
v 1 5.5 -0.2
v 1 5.7 -0.2
v 0.8 4.6 -0.4
v 0.8 5.2 -0.4
v 0.8 5.7 -0.4
v 0.8 5.8 -0.4
v 0.9 4.6 -0.4
v 0.9 5.2 -0.4
v 1 5.7 -0.4
v 1 5.8 -0.4
v 0.8 4.6 0.4
v 0.8 5.2 0.4
v 0.8 5.5 0.4
v 0.8 5.6 0.4
v 0.9 4.6 0.4
v 0.9 5.2 0.4
v 1 5.5 0.4
v 1 5.6 0.4
v 0.8 5.3 0.2
v 0.8 5.5 0.2
v 1 5.3 0.2
v 1 5.5 0.2
v 0.8 4.1 -0.3
v 0.8 4.2 -0.3
v 0.9 4.1 -0.3
v 0.9 4.2 -0.3
v 0.8 5.5 -0.6
v 0.8 5.6 -0.6
v 1 5.5 -0.6
v 1 5.6 -0.6
v 0.8 4.6 -0.7
v 0.8 5.2 -0.7
v 0.9 4.6 -0.7
v 0.9 5.2 -0.7
v 0.8 5.6 -1
v 0.8 5.8 -1
v 1 5.6 -1
v 1 5.8 -1
v 0.8 4.1 0.3
v 0.9 4.1 0.3
v 0.8 4.1 -0.3
v 0.9 4.1 -0.3
v 0.8 4.6 0.7
v 0.9 4.6 0.7
v 0.8 4.6 0.4
v 0.9 4.6 0.4
v 0.8 4.6 -0.4
v 0.9 4.6 -0.4
v 0.8 4.6 -0.7
v 0.9 4.6 -0.7
v 0.8 5.3 0.6
v 1 5.3 0.6
v 0.8 5.3 0.2
v 1 5.3 0.2
v 0.8 5.4 1
v 1 5.4 1
v 0.8 5.4 0.6
v 1 5.4 0.6
v 0.8 5.5 -0.2
v 1 5.5 -0.2
v 0.8 5.5 -0.6
v 1 5.5 -0.6
v 0.8 5.6 -0.6
v 1 5.6 -0.6
v 0.8 5.6 -1
v 1 5.6 -1
v 0.8 4.2 0.3
v 0.9 4.2 0.3
v 0.8 4.2 -0.3
v 0.9 4.2 -0.3
v 0.8 5.2 0.7
v 0.9 5.2 0.7
v 0.8 5.2 0.4
v 0.9 5.2 0.4
v 0.8 5.2 -0.4
v 0.9 5.2 -0.4
v 0.8 5.2 -0.7
v 0.9 5.2 -0.7
v 0.8 5.5 0.4
v 1 5.5 0.4
v 0.8 5.5 0.2
v 1 5.5 0.2
v 0.8 5.6 1
v 1 5.6 1
v 0.8 5.6 0.4
v 1 5.6 0.4
v 0.8 5.7 -0.2
v 1 5.7 -0.2
v 0.8 5.7 -0.4
v 1 5.7 -0.4
v 0.8 5.8 -0.4
v 1 5.8 -0.4
v 0.8 5.8 -1
v 1 5.8 -1

# faces
f 3/1/1 2/1/1 1/1/1
f 4/1/1 2/1/1 3/1/1
f 9/1/1 6/1/1 5/1/1
f 10/1/1 6/1/1 9/1/1
f 11/1/1 8/1/1 7/1/1
f 12/1/1 8/1/1 11/1/1
f 13/1/1 9/1/1 5/1/1
f 13/4/1 10/4/1 9/4/1
f 14/1/1 6/1/1 10/1/1
f 14/4/1 10/4/1 13/4/1
f 15/4/1 12/4/1 11/4/1
f 15/1/1 11/1/1 7/1/1
f 16/1/1 8/1/1 12/1/1
f 16/4/1 12/4/1 15/4/1
f 17/1/1 13/1/1 5/1/1
f 17/1/1 14/1/1 13/1/1
f 18/1/1 6/1/1 14/1/1
f 18/1/1 14/1/1 17/1/1
f 19/1/1 15/1/1 7/1/1
f 19/1/1 16/1/1 15/1/1
f 20/1/1 8/1/1 16/1/1
f 20/1/1 16/1/1 19/1/1
f 21/1/1 17/1/1 5/1/1
f 21/3/1 18/3/1 17/3/1
f 22/1/1 6/1/1 18/1/1
f 22/3/1 18/3/1 21/3/1
f 23/1/1 19/1/1 7/1/1
f 23/3/1 20/3/1 19/3/1
f 24/1/1 8/1/1 20/1/1
f 24/3/1 20/3/1 23/3/1
f 25/1/1 21/1/1 5/1/1
f 25/1/1 22/1/1 21/1/1
f 26/1/1 6/1/1 22/1/1
f 26/1/1 22/1/1 25/1/1
f 27/1/1 23/1/1 7/1/1
f 27/1/1 24/1/1 23/1/1
f 28/1/1 8/1/1 24/1/1
f 28/1/1 24/1/1 27/1/1
f 32/2/1 30/2/1 29/2/1
f 33/2/1 30/2/1 32/2/1
f 33/2/1 32/2/1 31/2/1
f 34/2/1 30/2/1 33/2/1
f 37/2/1 33/2/1 31/2/1
f 38/2/1 33/2/1 37/2/1
f 39/2/1 36/2/1 35/2/1
f 41/2/1 39/2/1 35/2/1
f 41/2/1 40/2/1 39/2/1
f 42/2/1 40/2/1 41/2/1
f 43/2/1 40/2/1 42/2/1
f 44/2/1 40/2/1 43/2/1
f 45/1/2 46/1/2 47/1/2
f 47/1/2 46/1/2 48/1/2
f 49/1/2 50/1/2 53/1/2
f 53/1/2 50/1/2 54/1/2
f 51/1/2 52/1/2 55/1/2
f 55/1/2 52/1/2 56/1/2
f 49/1/2 53/1/2 57/1/2
f 53/4/2 54/4/2 57/4/2
f 54/1/2 50/1/2 58/1/2
f 57/4/2 54/4/2 58/4/2
f 55/4/2 56/4/2 59/4/2
f 51/1/2 55/1/2 59/1/2
f 56/1/2 52/1/2 60/1/2
f 59/4/2 56/4/2 60/4/2
f 49/1/2 57/1/2 61/1/2
f 57/1/2 58/1/2 61/1/2
f 58/1/2 50/1/2 62/1/2
f 61/1/2 58/1/2 62/1/2
f 51/1/2 59/1/2 63/1/2
f 59/1/2 60/1/2 63/1/2
f 60/1/2 52/1/2 64/1/2
f 63/1/2 60/1/2 64/1/2
f 49/1/2 61/1/2 65/1/2
f 61/3/2 62/3/2 65/3/2
f 62/1/2 50/1/2 66/1/2
f 65/3/2 62/3/2 66/3/2
f 51/1/2 63/1/2 67/1/2
f 63/3/2 64/3/2 67/3/2
f 64/1/2 52/1/2 68/1/2
f 67/3/2 64/3/2 68/3/2
f 49/1/2 65/1/2 69/1/2
f 65/1/2 66/1/2 69/1/2
f 66/1/2 50/1/2 70/1/2
f 69/1/2 66/1/2 70/1/2
f 51/1/2 67/1/2 71/1/2
f 67/1/2 68/1/2 71/1/2
f 68/1/2 52/1/2 72/1/2
f 71/1/2 68/1/2 72/1/2
f 73/2/2 74/2/2 76/2/2
f 76/2/2 74/2/2 77/2/2
f 75/2/2 76/2/2 77/2/2
f 77/2/2 74/2/2 78/2/2
f 75/2/2 77/2/2 81/2/2
f 81/2/2 77/2/2 82/2/2
f 79/2/2 80/2/2 83/2/2
f 83/2/2 84/2/2 85/2/2
f 79/2/2 83/2/2 85/2/2
f 85/2/2 84/2/2 86/2/2
f 86/2/2 84/2/2 87/2/2
f 87/2/2 84/2/2 88/2/2
f 91/2/3 90/2/3 89/2/3
f 92/2/3 90/2/3 91/2/3
f 95/1/3 94/1/3 93/1/3
f 96/1/3 94/1/3 95/1/3
f 99/2/3 98/2/3 97/2/3
f 100/2/3 98/2/3 99/2/3
f 103/1/3 102/1/3 101/1/3
f 104/1/3 102/1/3 103/1/3
f 107/2/3 106/2/3 105/2/3
f 108/2/3 106/2/3 107/2/3
f 113/1/3 110/1/3 109/1/3
f 114/1/3 110/1/3 113/1/3
f 115/2/3 112/2/3 111/2/3
f 116/2/3 112/2/3 115/2/3
f 117/1/4 118/1/4 121/1/4
f 121/1/4 118/1/4 122/1/4
f 119/2/4 120/2/4 123/2/4
f 123/2/4 120/2/4 124/2/4
f 125/2/4 126/2/4 127/2/4
f 127/2/4 126/2/4 128/2/4
f 129/1/4 130/1/4 131/1/4
f 131/1/4 130/1/4 132/1/4
f 133/2/4 134/2/4 135/2/4
f 135/2/4 134/2/4 136/2/4
f 137/1/4 138/1/4 139/1/4
f 139/1/4 138/1/4 140/1/4
f 141/2/4 142/2/4 143/2/4
f 143/2/4 142/2/4 144/2/4
f 147/1/5 146/1/5 145/1/5
f 148/1/5 146/1/5 147/1/5
f 151/1/5 150/1/5 149/1/5
f 152/1/5 150/1/5 151/1/5
f 155/1/5 154/1/5 153/1/5
f 156/1/5 154/1/5 155/1/5
f 159/2/5 158/2/5 157/2/5
f 160/2/5 158/2/5 159/2/5
f 163/2/5 162/2/5 161/2/5
f 164/2/5 162/2/5 163/2/5
f 167/2/5 166/2/5 165/2/5
f 168/2/5 166/2/5 167/2/5
f 171/2/5 170/2/5 169/2/5
f 172/2/5 170/2/5 171/2/5
f 173/1/6 174/1/6 175/1/6
f 175/1/6 174/1/6 176/1/6
f 177/1/6 178/1/6 179/1/6
f 179/1/6 178/1/6 180/1/6
f 181/1/6 182/1/6 183/1/6
f 183/1/6 182/1/6 184/1/6
f 185/2/6 186/2/6 187/2/6
f 187/2/6 186/2/6 188/2/6
f 189/2/6 190/2/6 191/2/6
f 191/2/6 190/2/6 192/2/6
f 193/2/6 194/2/6 195/2/6
f 195/2/6 194/2/6 196/2/6
f 197/2/6 198/2/6 199/2/6
f 199/2/6 198/2/6 200/2/6
