# MagicaVoxel @ Ephtracy

# group
o 

# material
mtllib model.mtl
usemtl palette

# normals
vn 0 0 1
vn 0 0 -1
vn 1 0 0
vn -1 0 0
vn 0 -1 0
vn 0 1 0

# texcoords
vt 0.291016 0.5
vt 0.302734 0.5
vt 0.517578 0.5
vt 0.541016 0.5

# verts
v 0.9 0 2.1
v -0.9 0 2.1
v 0.9 0.9 2.1
v -0.9 0.9 2.1
v 1.1 0 1.9
v 0.9 0 1.9
v -0.9 0 1.9
v -1.1 0 1.9
v 1.1 0.7 1.9
v 0.9 0.7 1.9
v -0.9 0.7 1.9
v -1.1 0.7 1.9
v 1.3 0 1.4
v 1.1 0 1.4
v -1.1 0 1.4
v -1.3 0 1.4
v 1.3 0.4 1.4
v 1.1 0.4 1.4
v -1.1 0.4 1.4
v -1.3 0.4 1.4
v 0.8 0.4 1.2
v -0.8 0.4 1.2
v 0.8 0.8 1.2
v -0.8 0.8 1.2
v 0.8 1.7 1.2
v -0.8 1.7 1.2
v 1 0.4 1
v 0.8 0.4 1
v -0.8 0.4 1
v -1 0.4 1
v 1 0.8 1
v 0.8 0.8 1
v -0.8 0.8 1
v -1 0.8 1
v 1 1.7 1
v 0.8 1.7 1
v -0.8 1.7 1
v -1 1.7 1
v 0.4 1.7 -1.2
v 0.2 1.7 -1.2
v 0.4 1.9 -1.2
v 0.2 1.9 -1.2
v 1.19209e-07 1.6 -1.4
v -0.2 1.6 -1.4
v 0.4 1.9 -1.4
v 0.2 1.9 -1.4
v 1.19209e-07 1.9 -1.4
v -0.2 1.9 -1.4
v 0.4 2.2 -1.4
v 0.2 2.2 -1.4
v 1.19209e-07 1.9 -1.6
v -0.2 1.9 -1.6
v 1.19209e-07 2.1 -1.6
v -0.2 2.1 -1.6
v 0.4 2.2 -1.6
v 0.2 2.2 -1.6
v 0.4 2.4 -1.6
v 0.2 2.4 -1.6
v 0.7 0.4 1.9
v -0.7 0.4 1.9
v 0.7 0.9 1.9
v -0.7 0.9 1.9
v 0.9 0.4 1.7
v 0.7 0.4 1.7
v -0.7 0.4 1.7
v -0.9 0.4 1.7
v 0.9 0.7 1.7
v -0.9 0.7 1.7
v 0.9 0.9 1.7
v 0.7 0.9 1.7
v -0.7 0.9 1.7
v -0.9 0.9 1.7
v 1.1 0.4 1.4
v 0.9 0.4 1.4
v -0.9 0.4 1.4
v -1.1 0.4 1.4
v 1.1 0.7 1.4
v 0.9 0.7 1.4
v -0.9 0.7 1.4
v -1.1 0.7 1.4
v 1 0.4 -1
v 0.8 0.4 -1
v -0.8 0.4 -1
v -1 0.4 -1
v 1 0.8 -1
v 0.8 0.8 -1
v -0.8 0.8 -1
v -1 0.8 -1
v 1 1.7 -1
v 0.8 1.7 -1
v -0.8 1.7 -1
v -1 1.7 -1
v 0.8 0.4 -1.2
v 0.4 0.4 -1.2
v 0.2 0.4 -1.2
v 1.19209e-07 0.4 -1.2
v -0.2 0.4 -1.2
v -0.8 0.4 -1.2
v 0.8 0.8 -1.2
v 0.4 0.8 -1.2
v 0.2 0.8 -1.2
v 1.19209e-07 0.8 -1.2
v -0.2 0.8 -1.2
v -0.8 0.8 -1.2
v 1.19209e-07 1.6 -1.2
v -0.2 1.6 -1.2
v 0.8 1.7 -1.2
v 0.4 1.7 -1.2
v 0.2 1.7 -1.2
v -0.8 1.7 -1.2
v 1.3 0 -1.4
v 1.1 0 -1.4
v -1.1 0 -1.4
v -1.3 0 -1.4
v 1.3 0.4 -1.4
v 1.1 0.4 -1.4
v 0.4 0.4 -1.4
v 0.2 0.4 -1.4
v 1.19209e-07 0.4 -1.4
v -0.2 0.4 -1.4
v -1.1 0.4 -1.4
v -1.3 0.4 -1.4
v 1.19209e-07 0.6 -1.4
v -0.2 0.6 -1.4
v 0.4 0.9 -1.4
v 0.2 0.9 -1.4
v 1.19209e-07 0.9 -1.4
v -0.2 0.9 -1.4
v 1.19209e-07 1 -1.4
v -0.2 1 -1.4
v 0.4 1.2 -1.4
v 0.2 1.2 -1.4
v 0.4 1.3 -1.4
v 0.2 1.3 -1.4
v 1.19209e-07 1.2 -1.5
v -0.2 1.2 -1.5
v 1.19209e-07 1.3 -1.5
v -0.2 1.3 -1.5
v 0.4 1.5 -1.5
v 0.2 1.5 -1.5
v 0.4 1.6 -1.5
v 0.2 1.6 -1.5
v 1.19209e-07 0.6 -1.6
v -0.2 0.6 -1.6
v 0.4 0.9 -1.6
v 0.2 0.9 -1.6
v 1.19209e-07 0.9 -1.6
v -0.2 0.9 -1.6
v 0.4 1.2 -1.6
v 0.2 1.2 -1.6
v 1.19209e-07 1.5 -1.7
v -0.2 1.5 -1.7
v 1.19209e-07 1.6 -1.7
v -0.2 1.6 -1.7
v 0.4 1.8 -1.7
v 0.2 1.8 -1.7
v 0.4 1.9 -1.7
v 0.2 1.9 -1.7
v 1.19209e-07 1 -1.8
v -0.2 1 -1.8
v 1.19209e-07 1.2 -1.8
v -0.2 1.2 -1.8
v 0.4 1.3 -1.8
v 0.2 1.3 -1.8
v 0.4 1.5 -1.8
v 0.2 1.5 -1.8
v 1.19209e-07 1.8 -1.8
v -0.2 1.8 -1.8
v 1.19209e-07 1.9 -1.8
v -0.2 1.9 -1.8
v 0.4 2.1 -1.8
v 0.2 2.1 -1.8
v 0.4 2.2 -1.8
v 0.2 2.2 -1.8
v 1.1 0 -1.9
v 0.9 0 -1.9
v -0.9 0 -1.9
v -1.1 0 -1.9
v 1.1 0.4 -1.9
v 0.9 0.4 -1.9
v -0.9 0.4 -1.9
v -1.1 0.4 -1.9
v 1.19209e-07 1.3 -1.9
v -0.2 1.3 -1.9
v 1.19209e-07 1.5 -1.9
v -0.2 1.5 -1.9
v 0.4 1.6 -1.9
v 0.2 1.6 -1.9
v 0.4 1.8 -1.9
v 0.2 1.8 -1.9
v 1.19209e-07 1.6 -2
v -0.2 1.6 -2
v 1.19209e-07 1.8 -2
v -0.2 1.8 -2
v 0.4 1.9 -2
v 0.2 1.9 -2
v 0.4 2.1 -2
v 0.2 2.1 -2
v 0.9 0 -2.1
v -0.9 0 -2.1
v 0.9 0.4 -2.1
v -0.9 0.4 -2.1
v 1.19209e-07 1.9 -2.1
v -0.2 1.9 -2.1
v 1.19209e-07 2.1 -2.1
v -0.2 2.1 -2.1
v 0.4 2.2 -2.1
v 0.2 2.2 -2.1
v 0.4 2.4 -2.1
v 0.2 2.4 -2.1
v 1.3 0 1.4
v 1.3 0.4 1.4
v 1.3 0 -1.4
v 1.3 0.4 -1.4
v 1.1 0 1.9
v 1.1 0.7 1.9
v 1.1 0 1.4
v 1.1 0.4 1.4
v 1.1 0.7 1.4
v 1.1 0 -1.4
v 1.1 0.4 -1.4
v 1.1 0 -1.9
v 1.1 0.4 -1.9
v 1 0.4 1
v 1 0.8 1
v 1 1.7 1
v 1 0.4 -1
v 1 0.8 -1
v 1 1.7 -1
v 0.9 0 2.1
v 0.9 0.9 2.1
v 0.9 0 1.9
v 0.9 0.7 1.9
v 0.9 0.7 1.7
v 0.9 0.9 1.7
v 0.9 0 -1.9
v 0.9 0.4 -1.9
v 0.9 0 -2.1
v 0.9 0.4 -2.1
v 0.8 0.4 1.2
v 0.8 0.8 1.2
v 0.8 1.7 1.2
v 0.8 0.4 1
v 0.8 0.8 1
v 0.8 1.7 1
v 0.8 0.4 -1
v 0.8 0.8 -1
v 0.8 1.7 -1
v 0.8 0.4 -1.2
v 0.8 0.8 -1.2
v 0.8 1.7 -1.2
v 0.4 0.4 -1.2
v 0.4 0.8 -1.2
v 0.4 1.7 -1.2
v 0.4 1.9 -1.2
v 0.4 0.4 -1.4
v 0.4 0.9 -1.4
v 0.4 1.2 -1.4
v 0.4 1.3 -1.4
v 0.4 1.9 -1.4
v 0.4 2.2 -1.4
v 0.4 1.5 -1.5
v 0.4 1.6 -1.5
v 0.4 0.9 -1.6
v 0.4 1.2 -1.6
v 0.4 2.2 -1.6
v 0.4 2.4 -1.6
v 0.4 1.8 -1.7
v 0.4 1.9 -1.7
v 0.4 1.3 -1.8
v 0.4 1.5 -1.8
v 0.4 2.1 -1.8
v 0.4 2.2 -1.8
v 0.4 1.6 -1.9
v 0.4 1.8 -1.9
v 0.4 1.9 -2
v 0.4 2.1 -2
v 0.4 2.2 -2.1
v 0.4 2.4 -2.1
v 1.19209e-07 0.4 -1.2
v 1.19209e-07 0.8 -1.2
v 1.19209e-07 1.6 -1.2
v 1.19209e-07 0.4 -1.4
v 1.19209e-07 0.6 -1.4
v 1.19209e-07 0.9 -1.4
v 1.19209e-07 1 -1.4
v 1.19209e-07 1.6 -1.4
v 1.19209e-07 1.9 -1.4
v 1.19209e-07 1.2 -1.5
v 1.19209e-07 1.3 -1.5
v 1.19209e-07 0.6 -1.6
v 1.19209e-07 0.9 -1.6
v 1.19209e-07 1.9 -1.6
v 1.19209e-07 2.1 -1.6
v 1.19209e-07 1.5 -1.7
v 1.19209e-07 1.6 -1.7
v 1.19209e-07 1 -1.8
v 1.19209e-07 1.2 -1.8
v 1.19209e-07 1.8 -1.8
v 1.19209e-07 1.9 -1.8
v 1.19209e-07 1.3 -1.9
v 1.19209e-07 1.5 -1.9
v 1.19209e-07 1.6 -2
v 1.19209e-07 1.8 -2
v 1.19209e-07 1.9 -2.1
v 1.19209e-07 2.1 -2.1
v -0.7 0.4 1.9
v -0.7 0.9 1.9
v -0.7 0.4 1.7
v -0.7 0.9 1.7
v -0.9 0.4 1.7
v -0.9 0.7 1.7
v -0.9 0.4 1.4
v -0.9 0.7 1.4
v 0.9 0.4 1.7
v 0.9 0.7 1.7
v 0.9 0.4 1.4
v 0.9 0.7 1.4
v 0.7 0.4 1.9
v 0.7 0.9 1.9
v 0.7 0.4 1.7
v 0.7 0.9 1.7
v 0.2 0.4 -1.2
v 0.2 0.8 -1.2
v 0.2 1.7 -1.2
v 0.2 1.9 -1.2
v 0.2 0.4 -1.4
v 0.2 0.9 -1.4
v 0.2 1.2 -1.4
v 0.2 1.3 -1.4
v 0.2 1.9 -1.4
v 0.2 2.2 -1.4
v 0.2 1.5 -1.5
v 0.2 1.6 -1.5
v 0.2 0.9 -1.6
v 0.2 1.2 -1.6
v 0.2 2.2 -1.6
v 0.2 2.4 -1.6
v 0.2 1.8 -1.7
v 0.2 1.9 -1.7
v 0.2 1.3 -1.8
v 0.2 1.5 -1.8
v 0.2 2.1 -1.8
v 0.2 2.2 -1.8
v 0.2 1.6 -1.9
v 0.2 1.8 -1.9
v 0.2 1.9 -2
v 0.2 2.1 -2
v 0.2 2.2 -2.1
v 0.2 2.4 -2.1
v -0.2 0.4 -1.2
v -0.2 0.8 -1.2
v -0.2 1.6 -1.2
v -0.2 0.4 -1.4
v -0.2 0.6 -1.4
v -0.2 0.9 -1.4
v -0.2 1 -1.4
v -0.2 1.6 -1.4
v -0.2 1.9 -1.4
v -0.2 1.2 -1.5
v -0.2 1.3 -1.5
v -0.2 0.6 -1.6
v -0.2 0.9 -1.6
v -0.2 1.9 -1.6
v -0.2 2.1 -1.6
v -0.2 1.5 -1.7
v -0.2 1.6 -1.7
v -0.2 1 -1.8
v -0.2 1.2 -1.8
v -0.2 1.8 -1.8
v -0.2 1.9 -1.8
v -0.2 1.3 -1.9
v -0.2 1.5 -1.9
v -0.2 1.6 -2
v -0.2 1.8 -2
v -0.2 1.9 -2.1
v -0.2 2.1 -2.1
v -0.8 0.4 1.2
v -0.8 0.8 1.2
v -0.8 1.7 1.2
v -0.8 0.4 1
v -0.8 0.8 1
v -0.8 1.7 1
v -0.8 0.4 -1
v -0.8 0.8 -1
v -0.8 1.7 -1
v -0.8 0.4 -1.2
v -0.8 0.8 -1.2
v -0.8 1.7 -1.2
v -0.9 0 2.1
v -0.9 0.9 2.1
v -0.9 0 1.9
v -0.9 0.7 1.9
v -0.9 0.7 1.7
v -0.9 0.9 1.7
v -0.9 0 -1.9
v -0.9 0.4 -1.9
v -0.9 0 -2.1
v -0.9 0.4 -2.1
v -1 0.4 1
v -1 0.8 1
v -1 1.7 1
v -1 0.4 -1
v -1 0.8 -1
v -1 1.7 -1
v -1.1 0 1.9
v -1.1 0.7 1.9
v -1.1 0 1.4
v -1.1 0.4 1.4
v -1.1 0.7 1.4
v -1.1 0 -1.4
v -1.1 0.4 -1.4
v -1.1 0 -1.9
v -1.1 0.4 -1.9
v -1.3 0 1.4
v -1.3 0.4 1.4
v -1.3 0 -1.4
v -1.3 0.4 -1.4
v 1.3 0 1.4
v 1.3 0 -1.4
v 1.1 0 1.9
v 1.1 0 1.4
v 1.1 0 -1.4
v 1.1 0 -1.9
v 0.9 0 2.1
v 0.9 0 1.9
v 0.9 0 -1.9
v 0.9 0 -2.1
v -0.9 0 2.1
v -0.9 0 1.9
v -0.9 0 -1.9
v -0.9 0 -2.1
v -1.1 0 1.9
v -1.1 0 1.4
v -1.1 0 -1.4
v -1.1 0 -1.9
v -1.3 0 1.4
v -1.3 0 -1.4
v 1.19209e-07 0.6 -1.4
v 1.19209e-07 0.6 -1.6
v -0.2 0.6 -1.4
v -0.2 0.6 -1.6
v 0.4 0.9 -1.4
v 0.4 0.9 -1.6
v 0.2 0.9 -1.4
v 0.2 0.9 -1.6
v 1.19209e-07 1 -1.4
v 1.19209e-07 1 -1.8
v -0.2 1 -1.4
v -0.2 1 -1.8
v 0.4 1.3 -1.4
v 0.4 1.3 -1.8
v 0.2 1.3 -1.4
v 0.2 1.3 -1.8
v 1.19209e-07 1.3 -1.5
v 1.19209e-07 1.3 -1.9
v -0.2 1.3 -1.5
v -0.2 1.3 -1.9
v 0.4 1.6 -1.5
v 0.4 1.6 -1.9
v 0.2 1.6 -1.5
v 0.2 1.6 -1.9
v 1.19209e-07 1.6 -1.7
v 1.19209e-07 1.6 -2
v -0.2 1.6 -1.7
v -0.2 1.6 -2
v 0.4 1.9 -1.7
v 0.4 1.9 -2
v 0.2 1.9 -1.7
v 0.2 1.9 -2
v 1.19209e-07 1.9 -1.8
v 1.19209e-07 1.9 -2.1
v -0.2 1.9 -1.8
v -0.2 1.9 -2.1
v 0.4 2.2 -1.8
v 0.4 2.2 -2.1
v 0.2 2.2 -1.8
v 0.2 2.2 -2.1
v 1.3 0.4 1.4
v 1.3 0.4 -1.4
v 1.1 0.4 1.4
v 1.1 0.4 -1.4
v 1.1 0.4 -1.9
v 1 0.4 1
v 1 0.4 -1
v 0.9 0.4 1.7
v 0.9 0.4 1.4
v 0.9 0.4 -1.9
v 0.9 0.4 -2.1
v 0.8 0.4 1.2
v 0.8 0.4 1
v 0.8 0.4 -1
v 0.8 0.4 -1.2
v 0.7 0.4 1.9
v 0.7 0.4 1.7
v 0.4 0.4 -1.2
v 0.4 0.4 -1.4
v 0.2 0.4 -1.2
v 0.2 0.4 -1.4
v 1.19209e-07 0.4 -1.2
v 1.19209e-07 0.4 -1.4
v -0.2 0.4 -1.2
v -0.2 0.4 -1.4
v -0.7 0.4 1.9
v -0.7 0.4 1.7
v -0.8 0.4 1.2
v -0.8 0.4 1
v -0.8 0.4 -1
v -0.8 0.4 -1.2
v -0.9 0.4 1.7
v -0.9 0.4 1.4
v -0.9 0.4 -1.9
v -0.9 0.4 -2.1
v -1 0.4 1
v -1 0.4 -1
v -1.1 0.4 1.4
v -1.1 0.4 -1.4
v -1.1 0.4 -1.9
v -1.3 0.4 1.4
v -1.3 0.4 -1.4
v 1.1 0.7 1.9
v 1.1 0.7 1.4
v 0.9 0.7 1.9
v 0.9 0.7 1.7
v 0.9 0.7 1.4
v -0.9 0.7 1.9
v -0.9 0.7 1.7
v -0.9 0.7 1.4
v -1.1 0.7 1.9
v -1.1 0.7 1.4
v 0.9 0.9 2.1
v 0.9 0.9 1.7
v 0.7 0.9 1.9
v 0.7 0.9 1.7
v 1.19209e-07 0.9 -1.4
v 1.19209e-07 0.9 -1.6
v -0.2 0.9 -1.4
v -0.2 0.9 -1.6
v -0.7 0.9 1.9
v -0.7 0.9 1.7
v -0.9 0.9 2.1
v -0.9 0.9 1.7
v 0.4 1.2 -1.4
v 0.4 1.2 -1.6
v 0.2 1.2 -1.4
v 0.2 1.2 -1.6
v 1.19209e-07 1.2 -1.5
v 1.19209e-07 1.2 -1.8
v -0.2 1.2 -1.5
v -0.2 1.2 -1.8
v 0.4 1.5 -1.5
v 0.4 1.5 -1.8
v 0.2 1.5 -1.5
v 0.2 1.5 -1.8
v 1.19209e-07 1.5 -1.7
v 1.19209e-07 1.5 -1.9
v -0.2 1.5 -1.7
v -0.2 1.5 -1.9
v 1.19209e-07 1.6 -1.2
v 1.19209e-07 1.6 -1.4
v -0.2 1.6 -1.2
v -0.2 1.6 -1.4
v 1 1.7 1
v 1 1.7 -1
v 0.8 1.7 1.2
v 0.8 1.7 1
v 0.8 1.7 -1
v 0.8 1.7 -1.2
v 0.4 1.7 -1.2
v 0.2 1.7 -1.2
v -0.8 1.7 1.2
v -0.8 1.7 1
v -0.8 1.7 -1
v -0.8 1.7 -1.2
v -1 1.7 1
v -1 1.7 -1
v 0.4 1.8 -1.7
v 0.4 1.8 -1.9
v 0.2 1.8 -1.7
v 0.2 1.8 -1.9
v 1.19209e-07 1.8 -1.8
v 1.19209e-07 1.8 -2
v -0.2 1.8 -1.8
v -0.2 1.8 -2
v 0.4 1.9 -1.2
v 0.4 1.9 -1.4
v 0.2 1.9 -1.2
v 0.2 1.9 -1.4
v 1.19209e-07 1.9 -1.4
v 1.19209e-07 1.9 -1.6
v -0.2 1.9 -1.4
v -0.2 1.9 -1.6
v 0.4 2.1 -1.8
v 0.4 2.1 -2
v 0.2 2.1 -1.8
v 0.2 2.1 -2
v 1.19209e-07 2.1 -1.6
v 1.19209e-07 2.1 -2.1
v -0.2 2.1 -1.6
v -0.2 2.1 -2.1
v 0.4 2.2 -1.4
v 0.4 2.2 -1.6
v 0.2 2.2 -1.4
v 0.2 2.2 -1.6
v 0.4 2.4 -1.6
v 0.4 2.4 -2.1
v 0.2 2.4 -1.6
v 0.2 2.4 -2.1

# faces
f 3/1/1 2/1/1 1/1/1
f 4/1/1 2/1/1 3/1/1
f 9/1/1 6/1/1 5/1/1
f 10/1/1 6/1/1 9/1/1
f 11/1/1 8/1/1 7/1/1
f 12/1/1 8/1/1 11/1/1
f 17/1/1 14/1/1 13/1/1
f 18/1/1 14/1/1 17/1/1
f 19/1/1 16/1/1 15/1/1
f 20/1/1 16/1/1 19/1/1
f 23/2/1 22/2/1 21/2/1
f 24/2/1 22/2/1 23/2/1
f 25/1/1 24/1/1 23/1/1
f 26/1/1 24/1/1 25/1/1
f 31/2/1 28/2/1 27/2/1
f 32/2/1 28/2/1 31/2/1
f 33/2/1 30/2/1 29/2/1
f 34/2/1 30/2/1 33/2/1
f 35/1/1 32/1/1 31/1/1
f 36/1/1 32/1/1 35/1/1
f 37/1/1 34/1/1 33/1/1
f 38/1/1 34/1/1 37/1/1
f 41/4/1 40/4/1 39/4/1
f 42/4/1 40/4/1 41/4/1
f 47/3/1 44/3/1 43/3/1
f 48/3/1 44/3/1 47/3/1
f 49/4/1 46/4/1 45/4/1
f 50/4/1 46/4/1 49/4/1
f 53/3/1 52/3/1 51/3/1
f 54/3/1 52/3/1 53/3/1
f 57/4/1 56/4/1 55/4/1
f 58/4/1 56/4/1 57/4/1
f 59/1/2 60/1/2 61/1/2
f 61/1/2 60/1/2 62/1/2
f 63/1/2 64/1/2 67/1/2
f 65/1/2 66/1/2 68/1/2
f 67/1/2 64/1/2 69/1/2
f 69/1/2 64/1/2 70/1/2
f 65/1/2 68/1/2 71/1/2
f 71/1/2 68/1/2 72/1/2
f 73/1/2 74/1/2 77/1/2
f 77/1/2 74/1/2 78/1/2
f 75/1/2 76/1/2 79/1/2
f 79/1/2 76/1/2 80/1/2
f 81/2/2 82/2/2 85/2/2
f 85/2/2 82/2/2 86/2/2
f 83/2/2 84/2/2 87/2/2
f 87/2/2 84/2/2 88/2/2
f 85/1/2 86/1/2 89/1/2
f 89/1/2 86/1/2 90/1/2
f 87/1/2 88/1/2 91/1/2
f 91/1/2 88/1/2 92/1/2
f 93/2/2 94/2/2 99/2/2
f 99/2/2 94/2/2 100/2/2
f 95/2/2 96/2/2 101/2/2
f 101/2/2 96/2/2 102/2/2
f 97/2/2 98/2/2 103/2/2
f 103/2/2 98/2/2 104/2/2
f 101/1/2 102/1/2 105/1/2
f 103/1/2 104/1/2 106/1/2
f 99/1/2 100/1/2 107/1/2
f 107/1/2 100/1/2 108/1/2
f 105/1/2 106/1/2 109/1/2
f 101/1/2 105/1/2 109/1/2
f 106/1/2 104/1/2 110/1/2
f 109/1/2 106/1/2 110/1/2
f 111/1/2 112/1/2 115/1/2
f 115/1/2 112/1/2 116/1/2
f 113/1/2 114/1/2 121/1/2
f 121/1/2 114/1/2 122/1/2
f 119/3/2 120/3/2 123/3/2
f 123/3/2 120/3/2 124/3/2
f 117/4/2 118/4/2 125/4/2
f 125/4/2 118/4/2 126/4/2
f 127/3/2 128/3/2 129/3/2
f 129/3/2 128/3/2 130/3/2
f 131/4/2 132/4/2 133/4/2
f 133/4/2 132/4/2 134/4/2
f 135/3/2 136/3/2 137/3/2
f 137/3/2 136/3/2 138/3/2
f 139/4/2 140/4/2 141/4/2
f 141/4/2 140/4/2 142/4/2
f 143/3/2 144/3/2 147/3/2
f 147/3/2 144/3/2 148/3/2
f 145/4/2 146/4/2 149/4/2
f 149/4/2 146/4/2 150/4/2
f 151/3/2 152/3/2 153/3/2
f 153/3/2 152/3/2 154/3/2
f 155/4/2 156/4/2 157/4/2
f 157/4/2 156/4/2 158/4/2
f 159/3/2 160/3/2 161/3/2
f 161/3/2 160/3/2 162/3/2
f 163/4/2 164/4/2 165/4/2
f 165/4/2 164/4/2 166/4/2
f 167/3/2 168/3/2 169/3/2
f 169/3/2 168/3/2 170/3/2
f 171/4/2 172/4/2 173/4/2
f 173/4/2 172/4/2 174/4/2
f 175/1/2 176/1/2 179/1/2
f 179/1/2 176/1/2 180/1/2
f 177/1/2 178/1/2 181/1/2
f 181/1/2 178/1/2 182/1/2
f 183/3/2 184/3/2 185/3/2
f 185/3/2 184/3/2 186/3/2
f 187/4/2 188/4/2 189/4/2
f 189/4/2 188/4/2 190/4/2
f 191/3/2 192/3/2 193/3/2
f 193/3/2 192/3/2 194/3/2
f 195/4/2 196/4/2 197/4/2
f 197/4/2 196/4/2 198/4/2
f 199/1/2 200/1/2 201/1/2
f 201/1/2 200/1/2 202/1/2
f 203/3/2 204/3/2 205/3/2
f 205/3/2 204/3/2 206/3/2
f 207/4/2 208/4/2 209/4/2
f 209/4/2 208/4/2 210/4/2
f 213/1/3 212/1/3 211/1/3
f 214/1/3 212/1/3 213/1/3
f 217/1/3 216/1/3 215/1/3
f 218/1/3 216/1/3 217/1/3
f 219/1/3 216/1/3 218/1/3
f 222/1/3 221/1/3 220/1/3
f 223/1/3 221/1/3 222/1/3
f 227/2/3 225/2/3 224/2/3
f 228/1/3 226/1/3 225/1/3
f 228/2/3 225/2/3 227/2/3
f 229/1/3 226/1/3 228/1/3
f 232/1/3 231/1/3 230/1/3
f 233/1/3 231/1/3 232/1/3
f 234/1/3 231/1/3 233/1/3
f 235/1/3 231/1/3 234/1/3
f 238/1/3 237/1/3 236/1/3
f 239/1/3 237/1/3 238/1/3
f 243/2/3 241/2/3 240/2/3
f 244/1/3 242/1/3 241/1/3
f 244/2/3 241/2/3 243/2/3
f 245/1/3 242/1/3 244/1/3
f 249/2/3 247/2/3 246/2/3
f 250/1/3 248/1/3 247/1/3
f 250/2/3 247/2/3 249/2/3
f 251/1/3 248/1/3 250/1/3
f 256/4/3 253/4/3 252/4/3
f 256/4/3 255/4/3 254/4/3
f 256/4/3 254/4/3 253/4/3
f 257/4/3 255/4/3 256/4/3
f 258/4/3 255/4/3 257/4/3
f 259/4/3 255/4/3 258/4/3
f 260/4/3 255/4/3 259/4/3
f 262/4/3 261/4/3 260/4/3
f 262/4/3 260/4/3 259/4/3
f 263/4/3 261/4/3 262/4/3
f 264/4/3 258/4/3 257/4/3
f 265/4/3 258/4/3 264/4/3
f 266/4/3 261/4/3 263/4/3
f 268/4/3 267/4/3 266/4/3
f 268/4/3 266/4/3 263/4/3
f 269/4/3 267/4/3 268/4/3
f 270/4/3 262/4/3 259/4/3
f 271/4/3 262/4/3 270/4/3
f 272/4/3 267/4/3 269/4/3
f 273/4/3 267/4/3 272/4/3
f 274/4/3 268/4/3 263/4/3
f 275/4/3 268/4/3 274/4/3
f 276/4/3 272/4/3 269/4/3
f 277/4/3 272/4/3 276/4/3
f 278/4/3 267/4/3 273/4/3
f 279/4/3 267/4/3 278/4/3
f 283/3/3 281/3/3 280/3/3
f 283/3/3 282/3/3 281/3/3
f 284/3/3 282/3/3 283/3/3
f 285/3/3 282/3/3 284/3/3
f 286/3/3 282/3/3 285/3/3
f 287/3/3 282/3/3 286/3/3
f 289/3/3 288/3/3 287/3/3
f 289/3/3 287/3/3 286/3/3
f 290/3/3 288/3/3 289/3/3
f 291/3/3 285/3/3 284/3/3
f 292/3/3 285/3/3 291/3/3
f 293/3/3 288/3/3 290/3/3
f 295/3/3 294/3/3 293/3/3
f 295/3/3 293/3/3 290/3/3
f 296/3/3 294/3/3 295/3/3
f 297/3/3 289/3/3 286/3/3
f 298/3/3 289/3/3 297/3/3
f 299/3/3 294/3/3 296/3/3
f 300/3/3 294/3/3 299/3/3
f 301/3/3 295/3/3 290/3/3
f 302/3/3 295/3/3 301/3/3
f 303/3/3 299/3/3 296/3/3
f 304/3/3 299/3/3 303/3/3
f 305/3/3 294/3/3 300/3/3
f 306/3/3 294/3/3 305/3/3
f 309/1/3 308/1/3 307/1/3
f 310/1/3 308/1/3 309/1/3
f 313/1/3 312/1/3 311/1/3
f 314/1/3 312/1/3 313/1/3
f 315/1/4 316/1/4 317/1/4
f 317/1/4 316/1/4 318/1/4
f 319/1/4 320/1/4 321/1/4
f 321/1/4 320/1/4 322/1/4
f 323/4/4 324/4/4 327/4/4
f 325/4/4 326/4/4 327/4/4
f 324/4/4 325/4/4 327/4/4
f 327/4/4 326/4/4 328/4/4
f 328/4/4 326/4/4 329/4/4
f 329/4/4 326/4/4 330/4/4
f 330/4/4 326/4/4 331/4/4
f 331/4/4 332/4/4 333/4/4
f 330/4/4 331/4/4 333/4/4
f 333/4/4 332/4/4 334/4/4
f 328/4/4 329/4/4 335/4/4
f 335/4/4 329/4/4 336/4/4
f 334/4/4 332/4/4 337/4/4
f 337/4/4 338/4/4 339/4/4
f 334/4/4 337/4/4 339/4/4
f 339/4/4 338/4/4 340/4/4
f 330/4/4 333/4/4 341/4/4
f 341/4/4 333/4/4 342/4/4
f 340/4/4 338/4/4 343/4/4
f 343/4/4 338/4/4 344/4/4
f 334/4/4 339/4/4 345/4/4
f 345/4/4 339/4/4 346/4/4
f 340/4/4 343/4/4 347/4/4
f 347/4/4 343/4/4 348/4/4
f 344/4/4 338/4/4 349/4/4
f 349/4/4 338/4/4 350/4/4
f 351/3/4 352/3/4 354/3/4
f 352/3/4 353/3/4 354/3/4
f 354/3/4 353/3/4 355/3/4
f 355/3/4 353/3/4 356/3/4
f 356/3/4 353/3/4 357/3/4
f 357/3/4 353/3/4 358/3/4
f 358/3/4 359/3/4 360/3/4
f 357/3/4 358/3/4 360/3/4
f 360/3/4 359/3/4 361/3/4
f 355/3/4 356/3/4 362/3/4
f 362/3/4 356/3/4 363/3/4
f 361/3/4 359/3/4 364/3/4
f 364/3/4 365/3/4 366/3/4
f 361/3/4 364/3/4 366/3/4
f 366/3/4 365/3/4 367/3/4
f 357/3/4 360/3/4 368/3/4
f 368/3/4 360/3/4 369/3/4
f 367/3/4 365/3/4 370/3/4
f 370/3/4 365/3/4 371/3/4
f 361/3/4 366/3/4 372/3/4
f 372/3/4 366/3/4 373/3/4
f 367/3/4 370/3/4 374/3/4
f 374/3/4 370/3/4 375/3/4
f 371/3/4 365/3/4 376/3/4
f 376/3/4 365/3/4 377/3/4
f 378/2/4 379/2/4 381/2/4
f 379/1/4 380/1/4 382/1/4
f 381/2/4 379/2/4 382/2/4
f 382/1/4 380/1/4 383/1/4
f 384/2/4 385/2/4 387/2/4
f 385/1/4 386/1/4 388/1/4
f 387/2/4 385/2/4 388/2/4
f 388/1/4 386/1/4 389/1/4
f 390/1/4 391/1/4 392/1/4
f 392/1/4 391/1/4 393/1/4
f 393/1/4 391/1/4 394/1/4
f 394/1/4 391/1/4 395/1/4
f 396/1/4 397/1/4 398/1/4
f 398/1/4 397/1/4 399/1/4
f 400/2/4 401/2/4 403/2/4
f 401/1/4 402/1/4 404/1/4
f 403/2/4 401/2/4 404/2/4
f 404/1/4 402/1/4 405/1/4
f 406/1/4 407/1/4 408/1/4
f 408/1/4 407/1/4 409/1/4
f 409/1/4 407/1/4 410/1/4
f 411/1/4 412/1/4 413/1/4
f 413/1/4 412/1/4 414/1/4
f 415/1/4 416/1/4 417/1/4
f 417/1/4 416/1/4 418/1/4
f 422/1/5 420/1/5 419/1/5
f 423/1/5 420/1/5 422/1/5
f 426/1/5 422/1/5 421/1/5
f 426/1/5 424/1/5 423/1/5
f 426/1/5 423/1/5 422/1/5
f 427/1/5 424/1/5 426/1/5
f 429/1/5 426/1/5 425/1/5
f 429/1/5 428/1/5 427/1/5
f 429/1/5 427/1/5 426/1/5
f 430/1/5 428/1/5 429/1/5
f 431/1/5 428/1/5 430/1/5
f 432/1/5 428/1/5 431/1/5
f 433/1/5 431/1/5 430/1/5
f 434/1/5 431/1/5 433/1/5
f 435/1/5 431/1/5 434/1/5
f 436/1/5 431/1/5 435/1/5
f 437/1/5 435/1/5 434/1/5
f 438/1/5 435/1/5 437/1/5
f 441/3/5 440/3/5 439/3/5
f 442/3/5 440/3/5 441/3/5
f 445/4/5 444/4/5 443/4/5
f 446/4/5 444/4/5 445/4/5
f 449/3/5 448/3/5 447/3/5
f 450/3/5 448/3/5 449/3/5
f 453/4/5 452/4/5 451/4/5
f 454/4/5 452/4/5 453/4/5
f 457/3/5 456/3/5 455/3/5
f 458/3/5 456/3/5 457/3/5
f 461/4/5 460/4/5 459/4/5
f 462/4/5 460/4/5 461/4/5
f 465/3/5 464/3/5 463/3/5
f 466/3/5 464/3/5 465/3/5
f 469/4/5 468/4/5 467/4/5
f 470/4/5 468/4/5 469/4/5
f 473/3/5 472/3/5 471/3/5
f 474/3/5 472/3/5 473/3/5
f 477/4/5 476/4/5 475/4/5
f 478/4/5 476/4/5 477/4/5
f 479/1/6 480/1/6 481/1/6
f 481/1/6 480/1/6 482/1/6
f 481/1/6 482/1/6 484/1/6
f 482/1/6 483/1/6 484/1/6
f 484/1/6 483/1/6 485/1/6
f 481/1/6 484/1/6 487/1/6
f 485/1/6 483/1/6 488/1/6
f 486/1/6 487/1/6 490/1/6
f 487/1/6 484/1/6 490/1/6
f 490/1/6 484/1/6 491/1/6
f 488/1/6 489/1/6 492/1/6
f 485/1/6 488/1/6 492/1/6
f 492/1/6 489/1/6 493/1/6
f 486/1/6 490/1/6 495/1/6
f 493/1/6 489/1/6 496/1/6
f 496/1/6 489/1/6 497/1/6
f 497/1/6 489/1/6 499/1/6
f 498/1/6 499/1/6 500/1/6
f 499/1/6 489/1/6 501/1/6
f 500/1/6 499/1/6 501/1/6
f 501/1/6 489/1/6 503/1/6
f 494/1/6 495/1/6 504/1/6
f 495/1/6 490/1/6 505/1/6
f 504/1/6 495/1/6 505/1/6
f 505/1/6 490/1/6 506/1/6
f 502/1/6 503/1/6 509/1/6
f 506/1/6 507/1/6 510/1/6
f 505/1/6 506/1/6 510/1/6
f 510/1/6 507/1/6 511/1/6
f 508/1/6 509/1/6 512/1/6
f 503/1/6 489/1/6 512/1/6
f 509/1/6 503/1/6 512/1/6
f 512/1/6 489/1/6 513/1/6
f 511/1/6 507/1/6 514/1/6
f 508/1/6 512/1/6 515/1/6
f 511/1/6 514/1/6 516/1/6
f 514/1/6 515/1/6 516/1/6
f 515/1/6 512/1/6 517/1/6
f 516/1/6 515/1/6 517/1/6
f 517/1/6 512/1/6 518/1/6
f 516/1/6 517/1/6 519/1/6
f 519/1/6 517/1/6 520/1/6
f 521/1/6 522/1/6 523/1/6
f 523/1/6 522/1/6 524/1/6
f 524/1/6 522/1/6 525/1/6
f 526/1/6 527/1/6 529/1/6
f 527/1/6 528/1/6 529/1/6
f 529/1/6 528/1/6 530/1/6
f 531/1/6 532/1/6 533/1/6
f 533/1/6 532/1/6 534/1/6
f 535/3/6 536/3/6 537/3/6
f 537/3/6 536/3/6 538/3/6
f 531/1/6 533/1/6 539/1/6
f 531/1/6 539/1/6 541/1/6
f 539/1/6 540/1/6 541/1/6
f 541/1/6 540/1/6 542/1/6
f 543/4/6 544/4/6 545/4/6
f 545/4/6 544/4/6 546/4/6
f 547/3/6 548/3/6 549/3/6
f 549/3/6 548/3/6 550/3/6
f 551/4/6 552/4/6 553/4/6
f 553/4/6 552/4/6 554/4/6
f 555/3/6 556/3/6 557/3/6
f 557/3/6 556/3/6 558/3/6
f 559/3/6 560/3/6 561/3/6
f 561/3/6 560/3/6 562/3/6
f 563/1/6 564/1/6 566/1/6
f 566/1/6 564/1/6 567/1/6
f 565/1/6 566/1/6 569/1/6
f 567/1/6 568/1/6 569/1/6
f 566/1/6 567/1/6 569/1/6
f 565/1/6 569/1/6 570/1/6
f 565/1/6 570/1/6 571/1/6
f 571/1/6 570/1/6 572/1/6
f 572/1/6 570/1/6 573/1/6
f 573/1/6 570/1/6 574/1/6
f 572/1/6 573/1/6 575/1/6
f 575/1/6 573/1/6 576/1/6
f 577/4/6 578/4/6 579/4/6
f 579/4/6 578/4/6 580/4/6
f 581/3/6 582/3/6 583/3/6
f 583/3/6 582/3/6 584/3/6
f 585/4/6 586/4/6 587/4/6
f 587/4/6 586/4/6 588/4/6
f 589/3/6 590/3/6 591/3/6
f 591/3/6 590/3/6 592/3/6
f 593/4/6 594/4/6 595/4/6
f 595/4/6 594/4/6 596/4/6
f 597/3/6 598/3/6 599/3/6
f 599/3/6 598/3/6 600/3/6
f 601/4/6 602/4/6 603/4/6
f 603/4/6 602/4/6 604/4/6
f 605/4/6 606/4/6 607/4/6
f 607/4/6 606/4/6 608/4/6
