# MagicaVoxel @ Ephtracy

# group
o 

# material
mtllib model-4.mtl
usemtl palette

# normals
vn 0 0 1
vn 0 0 -1
vn 1 0 0
vn -1 0 0
vn 0 -1 0
vn 0 1 0

# texcoords
vt 0.00195313 0.5
vt 0.0292969 0.5
vt 0.115234 0.5
vt 0.123047 0.5
vt 0.564453 0.5
vt 0.822266 0.5

# verts
v 0.9 3.8 1.1
v -0.7 3.8 1.1
v 0.9 5.9 1.1
v -0.7 5.9 1.1
v 0.9 3.7 1
v -0.7 3.7 1
v 0.9 3.8 1
v -0.7 3.8 1
v 1 5.2 1
v 0.9 5.2 1
v 1 5.4 1
v 0.9 5.4 1
v 1 5.4 0.9
v 0.9 5.4 0.9
v 1 5.5 0.9
v 0.9 5.5 0.9
v 1 5.1 0.5
v 0.9 5.1 0.5
v 1 5.2 0.5
v 0.9 5.2 0.5
v 0.3 3.6 0.3
v -0.3 3.6 0.3
v 0.3 3.7 0.3
v -0.3 3.7 0.3
v 1 5.1 -0.2
v 0.9 5.1 -0.2
v 1 5.3 -0.2
v 0.9 5.3 -0.2
v 1 5.3 -0.3
v 0.9 5.3 -0.3
v 1 5.4 -0.3
v 0.9 5.4 -0.3
v 1 5.4 -0.8
v 0.9 5.4 -0.8
v 1 5.5 -0.8
v 0.9 5.5 -0.8
v 1 5.4 0.8
v 0.9 5.4 0.8
v 1 5.5 0.8
v 0.9 5.5 0.8
v 1 5.3 0.3
v 0.9 5.3 0.3
v 1 5.4 0.3
v 0.9 5.4 0.3
v 1 5.1 0.2
v 0.9 5.1 0.2
v 1 5.3 0.2
v 0.9 5.3 0.2
v 0.3 3.6 -0.3
v -0.3 3.6 -0.3
v 0.3 3.7 -0.3
v -0.3 3.7 -0.3
v 1 5.1 -0.5
v 0.9 5.1 -0.5
v 1 5.2 -0.5
v 0.9 5.2 -0.5
v 1 5.4 -0.9
v 0.9 5.4 -0.9
v 1 5.5 -0.9
v 0.9 5.5 -0.9
v 0.9 3.7 -1
v -0.7 3.7 -1
v 0.9 3.8 -1
v -0.7 3.8 -1
v 1 5.2 -1
v 0.9 5.2 -1
v 1 5.4 -1
v 0.9 5.4 -1
v 0.9 3.8 -1.1
v -0.7 3.8 -1.1
v 0.9 5.9 -1.1
v -0.7 5.9 -1.1
v 1 5.2 1
v 1 5.4 1
v 1 5.4 0.9
v 1 5.5 0.9
v 1 5.4 0.8
v 1 5.5 0.8
v 1 5.1 0.5
v 1 5.2 0.5
v 1 5.3 0.3
v 1 5.4 0.3
v 1 5.1 0.2
v 1 5.3 0.2
v 1 5.1 -0.2
v 1 5.3 -0.2
v 1 5.3 -0.3
v 1 5.4 -0.3
v 1 5.1 -0.5
v 1 5.2 -0.5
v 1 5.4 -0.8
v 1 5.5 -0.8
v 1 5.4 -0.9
v 1 5.5 -0.9
v 1 5.2 -1
v 1 5.4 -1
v 0.9 3.8 1.1
v 0.9 5.9 1.1
v 0.9 3.7 1
v 0.9 3.8 1
v 0.9 5.2 1
v 0.9 5.4 1
v 0.9 3.8 0.9
v 0.9 3.9 0.9
v 0.9 4 0.9
v 0.9 4.1 0.9
v 0.9 4.2 0.9
v 0.9 4.3 0.9
v 0.9 5.4 0.9
v 0.9 5.5 0.9
v 0.9 3.7 0.8
v 0.9 3.8 0.8
v 0.9 3.9 0.8
v 0.9 4 0.8
v 0.9 4.1 0.8
v 0.9 4.2 0.8
v 0.9 4.3 0.8
v 0.9 4.4 0.8
v 0.9 5.4 0.8
v 0.9 5.5 0.8
v 0.9 3.7 0.7
v 0.9 3.8 0.7
v 0.9 3.9 0.7
v 0.9 4 0.7
v 0.9 4.1 0.7
v 0.9 4.2 0.7
v 0.9 4.3 0.7
v 0.9 4.4 0.7
v 0.9 4.6 0.7
v 0.9 5.2 0.7
v 0.9 3.8 0.6
v 0.9 3.9 0.6
v 0.9 4 0.6
v 0.9 4.1 0.6
v 0.9 4.2 0.6
v 0.9 4.3 0.6
v 0.9 4.7 0.6
v 0.9 5 0.6
v 0.9 5.1 0.6
v 0.9 4.7 0.5
v 0.9 5 0.5
v 0.9 5.1 0.5
v 0.9 5.2 0.5
v 0.9 4 0.4
v 0.9 4.3 0.4
v 0.9 4.6 0.4
v 0.9 5.1 0.4
v 0.9 4 0.3
v 0.9 4.1 0.3
v 0.9 4.2 0.3
v 0.9 4.3 0.3
v 0.9 5.3 0.3
v 0.9 5.4 0.3
v 0.9 5.1 0.2
v 0.9 5.3 0.2
v 0.9 5.1 -0.2
v 0.9 5.3 -0.2
v 0.9 4 -0.3
v 0.9 4.1 -0.3
v 0.9 4.2 -0.3
v 0.9 4.3 -0.3
v 0.9 5.3 -0.3
v 0.9 5.4 -0.3
v 0.9 4 -0.4
v 0.9 4.3 -0.4
v 0.9 4.6 -0.4
v 0.9 5.1 -0.4
v 0.9 4.7 -0.5
v 0.9 5 -0.5
v 0.9 5.1 -0.5
v 0.9 5.2 -0.5
v 0.9 4.7 -0.6
v 0.9 5 -0.6
v 0.9 5.1 -0.6
v 0.9 4.6 -0.7
v 0.9 5.2 -0.7
v 0.9 5.4 -0.8
v 0.9 5.5 -0.8
v 0.9 5.4 -0.9
v 0.9 5.5 -0.9
v 0.9 3.7 -1
v 0.9 3.8 -1
v 0.9 5.2 -1
v 0.9 5.4 -1
v 0.9 3.8 -1.1
v 0.9 5.9 -1.1
v 0.3 3.6 0.3
v 0.3 3.7 0.3
v 0.3 3.6 -0.3
v 0.3 3.7 -0.3
v -0.3 3.6 0.3
v -0.3 3.7 0.3
v -0.3 3.6 -0.3
v -0.3 3.7 -0.3
v -0.7 3.8 1.1
v -0.7 5.9 1.1
v -0.7 3.7 1
v -0.7 3.8 1
v -0.7 3.7 -1
v -0.7 3.8 -1
v -0.7 3.8 -1.1
v -0.7 5.9 -1.1
v 0.3 3.6 0.3
v 0.3 3.6 -0.3
v -0.3 3.6 0.3
v -0.3 3.6 -0.3
v 0.9 3.7 1
v 0.9 3.7 0.8
v 0.9 3.7 0.7
v 0.9 3.7 -1
v 0.8 3.7 0.8
v 0.8 3.7 0.7
v 0.3 3.7 0.3
v 0.3 3.7 -0.3
v -0.3 3.7 0.3
v -0.3 3.7 -0.3
v -0.7 3.7 1
v -0.7 3.7 -1
v 0.9 3.8 1.1
v 0.9 3.8 1
v 0.9 3.8 -1
v 0.9 3.8 -1.1
v -0.7 3.8 1.1
v -0.7 3.8 1
v -0.7 3.8 -1
v -0.7 3.8 -1.1
v 1 5.1 0.5
v 1 5.1 0.2
v 1 5.1 -0.2
v 1 5.1 -0.5
v 0.9 5.1 0.5
v 0.9 5.1 0.4
v 0.9 5.1 0.2
v 0.9 5.1 -0.2
v 0.9 5.1 -0.4
v 0.9 5.1 -0.5
v 1 5.2 1
v 1 5.2 0.5
v 1 5.2 -0.5
v 1 5.2 -1
v 0.9 5.2 1
v 0.9 5.2 0.7
v 0.9 5.2 0.5
v 0.9 5.2 -0.5
v 0.9 5.2 -0.7
v 0.9 5.2 -1
v 1 5.3 0.3
v 1 5.3 0.2
v 1 5.3 -0.2
v 1 5.3 -0.3
v 0.9 5.3 0.3
v 0.9 5.3 0.2
v 0.9 5.3 -0.2
v 0.9 5.3 -0.3
v 1 5.4 1
v 1 5.4 0.9
v 1 5.4 0.8
v 1 5.4 0.3
v 1 5.4 -0.3
v 1 5.4 -0.8
v 1 5.4 -0.9
v 1 5.4 -1
v 0.9 5.4 1
v 0.9 5.4 0.9
v 0.9 5.4 0.8
v 0.9 5.4 0.3
v 0.9 5.4 -0.3
v 0.9 5.4 -0.8
v 0.9 5.4 -0.9
v 0.9 5.4 -1
v 1 5.5 0.9
v 1 5.5 0.8
v 1 5.5 -0.8
v 1 5.5 -0.9
v 0.9 5.5 0.9
v 0.9 5.5 0.8
v 0.9 5.5 -0.8
v 0.9 5.5 -0.9
v 0.9 5.9 1.1
v 0.9 5.9 -1.1
v -0.7 5.9 1.1
v -0.7 5.9 -1.1

# faces
f 3/4/1 2/4/1 1/4/1
f 4/4/1 2/4/1 3/4/1
f 7/4/1 6/4/1 5/4/1
f 8/4/1 6/4/1 7/4/1
f 11/6/1 10/6/1 9/6/1
f 12/6/1 10/6/1 11/6/1
f 15/6/1 14/6/1 13/6/1
f 16/6/1 14/6/1 15/6/1
f 19/6/1 18/6/1 17/6/1
f 20/6/1 18/6/1 19/6/1
f 23/4/1 22/4/1 21/4/1
f 24/4/1 22/4/1 23/4/1
f 27/6/1 26/6/1 25/6/1
f 28/6/1 26/6/1 27/6/1
f 31/6/1 30/6/1 29/6/1
f 32/6/1 30/6/1 31/6/1
f 35/6/1 34/6/1 33/6/1
f 36/6/1 34/6/1 35/6/1
f 37/6/2 38/6/2 39/6/2
f 39/6/2 38/6/2 40/6/2
f 41/6/2 42/6/2 43/6/2
f 43/6/2 42/6/2 44/6/2
f 45/6/2 46/6/2 47/6/2
f 47/6/2 46/6/2 48/6/2
f 49/4/2 50/4/2 51/4/2
f 51/4/2 50/4/2 52/4/2
f 53/6/2 54/6/2 55/6/2
f 55/6/2 54/6/2 56/6/2
f 57/6/2 58/6/2 59/6/2
f 59/6/2 58/6/2 60/6/2
f 61/4/2 62/4/2 63/4/2
f 63/4/2 62/4/2 64/4/2
f 65/6/2 66/6/2 67/6/2
f 67/6/2 66/6/2 68/6/2
f 69/4/2 70/4/2 71/4/2
f 71/4/2 70/4/2 72/4/2
f 75/6/3 74/6/3 73/6/3
f 77/6/3 75/6/3 73/6/3
f 77/6/3 76/6/3 75/6/3
f 78/6/3 76/6/3 77/6/3
f 80/6/3 77/6/3 73/6/3
f 81/6/3 77/6/3 80/6/3
f 81/6/3 80/6/3 79/6/3
f 82/6/3 77/6/3 81/6/3
f 83/6/3 81/6/3 79/6/3
f 84/6/3 81/6/3 83/6/3
f 87/6/3 86/6/3 85/6/3
f 89/6/3 87/6/3 85/6/3
f 89/6/3 88/6/3 87/6/3
f 90/6/3 88/6/3 89/6/3
f 91/6/3 88/6/3 90/6/3
f 93/6/3 91/6/3 90/6/3
f 93/6/3 92/6/3 91/6/3
f 94/6/3 92/6/3 93/6/3
f 95/6/3 93/6/3 90/6/3
f 96/6/3 93/6/3 95/6/3
f 100/4/3 98/4/3 97/4/3
f 101/4/3 98/4/3 100/4/3
f 102/4/3 98/4/3 101/4/3
f 103/4/3 100/4/3 99/4/3
f 103/4/3 101/4/3 100/4/3
f 104/4/3 101/4/3 103/4/3
f 105/4/3 101/4/3 104/4/3
f 106/4/3 101/4/3 105/4/3
f 107/4/3 101/4/3 106/4/3
f 108/4/3 101/4/3 107/4/3
f 109/4/3 98/4/3 102/4/3
f 110/4/3 98/4/3 109/4/3
f 111/4/3 103/4/3 99/4/3
f 112/3/3 104/3/3 103/3/3
f 112/4/3 103/4/3 111/4/3
f 113/4/3 105/4/3 104/4/3
f 113/3/3 104/3/3 112/3/3
f 114/3/3 106/3/3 105/3/3
f 114/4/3 105/4/3 113/4/3
f 115/4/3 107/4/3 106/4/3
f 115/3/3 106/3/3 114/3/3
f 116/3/3 108/3/3 107/3/3
f 116/4/3 107/4/3 115/4/3
f 117/4/3 101/4/3 108/4/3
f 117/3/3 108/3/3 116/3/3
f 118/4/3 101/4/3 117/4/3
f 120/4/3 98/4/3 110/4/3
f 121/3/3 116/3/3 115/3/3
f 121/3/3 112/3/3 111/3/3
f 121/3/3 113/3/3 112/3/3
f 121/3/3 114/3/3 113/3/3
f 121/3/3 118/3/3 117/3/3
f 121/3/3 117/3/3 116/3/3
f 121/3/3 115/3/3 114/3/3
f 122/3/3 118/3/3 121/3/3
f 123/3/3 118/3/3 122/3/3
f 124/3/3 118/3/3 123/3/3
f 125/3/3 118/3/3 124/3/3
f 126/3/3 118/3/3 125/3/3
f 127/3/3 118/3/3 126/3/3
f 128/4/3 101/4/3 118/4/3
f 128/3/3 118/3/3 127/3/3
f 129/4/3 101/4/3 128/4/3
f 130/4/3 101/4/3 129/4/3
f 131/4/3 122/4/3 121/4/3
f 131/3/3 123/3/3 122/3/3
f 132/4/3 124/4/3 123/4/3
f 132/3/3 123/3/3 131/3/3
f 133/3/3 125/3/3 124/3/3
f 133/4/3 124/4/3 132/4/3
f 134/4/3 126/4/3 125/4/3
f 134/3/3 125/3/3 133/3/3
f 135/3/3 127/3/3 126/3/3
f 135/4/3 126/4/3 134/4/3
f 136/4/3 128/4/3 127/4/3
f 136/3/3 127/3/3 135/3/3
f 136/4/3 129/4/3 128/4/3
f 137/5/3 130/5/3 129/5/3
f 138/5/3 130/5/3 137/5/3
f 139/5/3 130/5/3 138/5/3
f 140/5/3 137/5/3 129/5/3
f 140/1/3 138/1/3 137/1/3
f 141/2/3 139/2/3 138/2/3
f 141/1/3 138/1/3 140/1/3
f 142/5/3 130/5/3 139/5/3
f 142/2/3 139/2/3 141/2/3
f 143/5/3 130/5/3 142/5/3
f 144/4/3 134/4/3 133/4/3
f 144/4/3 132/4/3 131/4/3
f 144/4/3 133/4/3 132/4/3
f 144/4/3 135/4/3 134/4/3
f 144/4/3 136/4/3 135/4/3
f 145/4/3 129/4/3 136/4/3
f 145/4/3 136/4/3 144/4/3
f 146/5/3 142/5/3 141/5/3
f 146/4/3 129/4/3 145/4/3
f 146/5/3 140/5/3 129/5/3
f 146/5/3 141/5/3 140/5/3
f 147/5/3 142/5/3 146/5/3
f 148/4/3 144/4/3 131/4/3
f 148/1/3 145/1/3 144/1/3
f 149/1/3 145/1/3 148/1/3
f 150/1/3 145/1/3 149/1/3
f 151/4/3 147/4/3 146/4/3
f 151/1/3 145/1/3 150/1/3
f 151/4/3 146/4/3 145/4/3
f 153/4/3 120/4/3 119/4/3
f 154/4/3 147/4/3 151/4/3
f 155/4/3 153/4/3 152/4/3
f 156/4/3 154/4/3 151/4/3
f 156/4/3 155/4/3 154/4/3
f 157/4/3 153/4/3 155/4/3
f 157/4/3 155/4/3 156/4/3
f 158/2/3 149/2/3 148/2/3
f 158/4/3 148/4/3 131/4/3
f 159/1/3 150/1/3 149/1/3
f 159/2/3 149/2/3 158/2/3
f 160/2/3 151/2/3 150/2/3
f 160/1/3 150/1/3 159/1/3
f 161/4/3 156/4/3 151/4/3
f 161/2/3 151/2/3 160/2/3
f 162/4/3 153/4/3 157/4/3
f 163/4/3 120/4/3 153/4/3
f 163/4/3 153/4/3 162/4/3
f 164/1/3 160/1/3 159/1/3
f 164/1/3 159/1/3 158/1/3
f 164/1/3 161/1/3 160/1/3
f 164/4/3 158/4/3 131/4/3
f 165/4/3 156/4/3 161/4/3
f 165/1/3 161/1/3 164/1/3
f 166/4/3 156/4/3 165/4/3
f 167/4/3 156/4/3 166/4/3
f 168/5/3 167/5/3 166/5/3
f 169/5/3 167/5/3 168/5/3
f 170/5/3 167/5/3 169/5/3
f 172/5/3 168/5/3 166/5/3
f 172/1/3 169/1/3 168/1/3
f 173/2/3 170/2/3 169/2/3
f 173/1/3 169/1/3 172/1/3
f 174/5/3 171/5/3 170/5/3
f 174/2/3 170/2/3 173/2/3
f 175/4/3 165/4/3 164/4/3
f 175/4/3 166/4/3 165/4/3
f 175/5/3 174/5/3 173/5/3
f 175/5/3 173/5/3 172/5/3
f 175/5/3 172/5/3 166/5/3
f 176/5/3 171/5/3 174/5/3
f 176/5/3 174/5/3 175/5/3
f 177/4/3 120/4/3 163/4/3
f 178/4/3 98/4/3 120/4/3
f 178/4/3 120/4/3 177/4/3
f 180/4/3 98/4/3 178/4/3
f 181/4/3 164/4/3 131/4/3
f 181/4/3 176/4/3 175/4/3
f 181/4/3 131/4/3 121/4/3
f 181/4/3 175/4/3 164/4/3
f 182/4/3 176/4/3 181/4/3
f 183/4/3 176/4/3 182/4/3
f 184/4/3 180/4/3 179/4/3
f 185/4/3 183/4/3 182/4/3
f 185/4/3 184/4/3 183/4/3
f 186/4/3 180/4/3 184/4/3
f 186/4/3 184/4/3 185/4/3
f 186/4/3 98/4/3 180/4/3
f 189/4/3 188/4/3 187/4/3
f 190/4/3 188/4/3 189/4/3
f 191/4/4 192/4/4 193/4/4
f 193/4/4 192/4/4 194/4/4
f 195/4/4 196/4/4 198/4/4
f 197/4/4 198/4/4 199/4/4
f 198/4/4 196/4/4 200/4/4
f 199/4/4 198/4/4 200/4/4
f 200/4/4 196/4/4 201/4/4
f 201/4/4 196/4/4 202/4/4
f 205/4/5 204/4/5 203/4/5
f 206/4/5 204/4/5 205/4/5
f 211/4/5 208/4/5 207/4/5
f 211/3/5 209/3/5 208/3/5
f 212/4/5 210/4/5 209/4/5
f 212/3/5 209/3/5 211/3/5
f 213/4/5 212/4/5 211/4/5
f 213/4/5 210/4/5 212/4/5
f 214/4/5 210/4/5 213/4/5
f 215/4/5 213/4/5 211/4/5
f 216/4/5 210/4/5 214/4/5
f 217/4/5 211/4/5 207/4/5
f 217/4/5 216/4/5 215/4/5
f 217/4/5 215/4/5 211/4/5
f 218/4/5 210/4/5 216/4/5
f 218/4/5 216/4/5 217/4/5
f 223/4/5 220/4/5 219/4/5
f 224/4/5 220/4/5 223/4/5
f 225/4/5 222/4/5 221/4/5
f 226/4/5 222/4/5 225/4/5
f 231/6/5 228/6/5 227/6/5
f 232/6/5 228/6/5 231/6/5
f 233/6/5 228/6/5 232/6/5
f 234/6/5 230/6/5 229/6/5
f 235/6/5 230/6/5 234/6/5
f 236/6/5 230/6/5 235/6/5
f 241/6/5 238/6/5 237/6/5
f 242/6/5 238/6/5 241/6/5
f 243/6/5 238/6/5 242/6/5
f 244/6/5 240/6/5 239/6/5
f 245/6/5 240/6/5 244/6/5
f 246/6/5 240/6/5 245/6/5
f 247/6/6 248/6/6 251/6/6
f 251/6/6 248/6/6 252/6/6
f 249/6/6 250/6/6 253/6/6
f 253/6/6 250/6/6 254/6/6
f 255/6/6 256/6/6 263/6/6
f 263/6/6 256/6/6 264/6/6
f 257/6/6 258/6/6 265/6/6
f 265/6/6 258/6/6 266/6/6
f 259/6/6 260/6/6 267/6/6
f 267/6/6 260/6/6 268/6/6
f 261/6/6 262/6/6 269/6/6
f 269/6/6 262/6/6 270/6/6
f 271/6/6 272/6/6 275/6/6
f 275/6/6 272/6/6 276/6/6
f 273/6/6 274/6/6 277/6/6
f 277/6/6 274/6/6 278/6/6
f 279/4/6 280/4/6 281/4/6
f 281/4/6 280/4/6 282/4/6
