# MagicaVoxel @ Ephtracy

# group
o 

# material
mtllib model-3.mtl
usemtl palette

# normals
vn 0 0 1
vn 0 0 -1
vn 1 0 0
vn -1 0 0
vn 0 -1 0
vn 0 1 0

# texcoords
vt 0.189453 0.5
vt 0.408203 0.5
vt 0.822266 0.5

# verts
v 0.6 3.1 1.6
v -0.6 3.1 1.6
v 0.6 3.7 1.6
v -0.6 3.7 1.6
v 0.3 2.1 1.1
v 0.1 2.1 1.1
v -0.1 2.4 1.1
v -0.3 2.4 1.1
v 0.3 2.9 1.1
v 0.1 2.9 1.1
v -0.1 3.1 1.1
v -0.3 3.1 1.1
v 0.6 3.3 1.1
v 0.5 3.3 1.1
v -0.5 3.3 1.1
v -0.6 3.3 1.1
v 0.5 3.6 1.1
v -0.5 3.6 1.1
v 0.6 3.7 1.1
v -0.6 3.7 1.1
v 0.6 2.1 1
v 0.3 2.1 1
v 0.1 2.1 1
v -0.5 2.1 1
v -0.1 2.4 1
v -0.3 2.4 1
v 0.3 2.9 1
v 0.1 2.9 1
v 0.6 3.1 1
v -0.1 3.1 1
v -0.3 3.1 1
v -0.5 3.1 1
v 0.7 2.1 0.9
v 0.6 2.1 0.9
v 0.7 2.7 0.9
v 0.6 2.7 0.9
v -0.5 2.7 0.9
v -0.6 2.7 0.9
v -0.5 3.1 0.9
v -0.6 3.1 0.9
v 0.7 3 0.8
v 0.6 3 0.8
v 0.7 3.7 0.8
v 0.6 3.7 0.8
v -0.5 2.3 0.7
v -0.6 2.3 0.7
v -0.5 2.7 0.7
v -0.6 2.7 0.7
v -0.5 2.1 0.3
v -0.6 2.1 0.3
v -0.5 2.9 0.3
v -0.6 2.9 0.3
v 0.6 2.7 0.2
v 0.5 2.7 0.2
v 0.6 3.1 0.2
v 0.5 3.1 0.2
v -0.5 2.3 -0.1
v -0.6 2.3 -0.1
v 0.6 2.5 -0.1
v 0.5 2.5 -0.1
v -0.5 2.6 -0.1
v -0.6 2.6 -0.1
v 0.6 3.1 -0.1
v 0.5 3.1 -0.1
v 0.6 2.1 -0.4
v 0.5 2.1 -0.4
v 0.6 3.1 -0.4
v 0.5 3.1 -0.4
v 0.6 3.2 -0.4
v 0.5 3.2 -0.4
v 0.5 3.6 -0.4
v 0.3 3.6 -0.4
v 0.6 3.7 -0.4
v 0.3 3.7 -0.4
v -0.5 2.1 -0.5
v -0.6 2.1 -0.5
v -0.5 2.8 -0.5
v -0.6 2.8 -0.5
v 0.7 2.4 -0.6
v 0.6 2.4 -0.6
v 0.7 3.7 -0.6
v 0.6 3.7 -0.6
v 0.6 3.3 -1.4
v 0.5 3.3 -1.4
v -0.5 3.3 -1.4
v -0.6 3.3 -1.4
v 0.5 3.6 -1.4
v -0.5 3.6 -1.4
v 0.6 3.7 -1.4
v -0.6 3.7 -1.4
v 0.6 3.3 1.4
v 0.5 3.3 1.4
v -0.5 3.3 1.4
v -0.6 3.3 1.4
v 0.5 3.6 1.4
v -0.5 3.6 1.4
v 0.6 3.7 1.4
v -0.6 3.7 1.4
v 0.7 2.1 0.7
v 0.6 2.1 0.7
v 0.7 2.7 0.7
v 0.6 2.7 0.7
v 0.7 3 0.6
v 0.6 3 0.6
v 0.7 3.7 0.6
v 0.6 3.7 0.6
v -0.5 2.3 0.5
v -0.6 2.3 0.5
v -0.5 2.9 0.5
v -0.6 2.9 0.5
v 0.6 2.1 0.4
v 0.5 2.1 0.4
v 0.6 3.1 0.4
v 0.5 3.1 0.4
v 0.6 3.2 0.4
v 0.5 3.2 0.4
v 0.5 3.6 0.4
v 0.3 3.6 0.4
v 0.6 3.7 0.4
v 0.3 3.7 0.4
v -0.5 2.1 0.1
v -0.6 2.1 0.1
v -0.5 2.6 0.1
v -0.6 2.6 0.1
v 0.6 2.7 0.1
v 0.5 2.7 0.1
v 0.6 3.1 0.1
v 0.5 3.1 0.1
v 0.6 2.5 -0.2
v 0.5 2.5 -0.2
v 0.6 3.1 -0.2
v 0.5 3.1 -0.2
v -0.5 2.3 -0.3
v -0.6 2.3 -0.3
v -0.5 2.8 -0.3
v -0.6 2.8 -0.3
v -0.5 2.1 -0.7
v -0.6 2.1 -0.7
v -0.5 2.6 -0.7
v -0.6 2.6 -0.7
v 0.7 2.4 -0.8
v 0.6 2.4 -0.8
v 0.7 3.7 -0.8
v 0.6 3.7 -0.8
v -0.5 2.6 -0.9
v -0.6 2.6 -0.9
v -0.5 3.1 -0.9
v -0.6 3.1 -0.9
v 0.6 2.1 -1
v 0.4 2.1 -1
v 0.2 2.1 -1
v -0.5 2.1 -1
v -0.1 2.5 -1
v -0.3 2.5 -1
v 0.6 3.1 -1
v 0.4 3.1 -1
v 0.2 3.1 -1
v -0.1 3.1 -1
v -0.3 3.1 -1
v -0.5 3.1 -1
v 0.4 2.1 -1.1
v 0.2 2.1 -1.1
v -0.1 2.5 -1.1
v -0.3 2.5 -1.1
v 0.4 3.1 -1.1
v 0.2 3.1 -1.1
v -0.1 3.1 -1.1
v -0.3 3.1 -1.1
v 0.6 3.3 -1.1
v 0.5 3.3 -1.1
v -0.5 3.3 -1.1
v -0.6 3.3 -1.1
v 0.5 3.6 -1.1
v -0.5 3.6 -1.1
v 0.6 3.7 -1.1
v -0.6 3.7 -1.1
v 0.6 3.1 -1.6
v -0.6 3.1 -1.6
v 0.6 3.7 -1.6
v -0.6 3.7 -1.6
v 0.7 2.1 0.9
v 0.7 2.7 0.9
v 0.7 3 0.8
v 0.7 3.7 0.8
v 0.7 2.1 0.7
v 0.7 2.7 0.7
v 0.7 3 0.6
v 0.7 3.7 0.6
v 0.7 2.4 -0.6
v 0.7 3.7 -0.6
v 0.7 2.4 -0.8
v 0.7 3.7 -0.8
v 0.6 3.1 1.6
v 0.6 3.7 1.6
v 0.6 3.3 1.4
v 0.6 3.7 1.4
v 0.6 3.3 1.1
v 0.6 3.7 1.1
v 0.6 2.1 1
v 0.6 3.1 1
v 0.6 2.1 0.9
v 0.6 2.7 0.9
v 0.6 3.1 0.9
v 0.6 3.7 0.9
v 0.6 3 0.8
v 0.6 3.7 0.8
v 0.6 2.1 0.7
v 0.6 2.7 0.7
v 0.6 3 0.6
v 0.6 3.7 0.6
v 0.6 2.1 0.4
v 0.6 3.1 0.4
v 0.6 3.2 0.4
v 0.6 3.7 0.4
v 0.6 2.7 0.2
v 0.6 3.1 0.2
v 0.6 2.7 0.1
v 0.6 3.1 0.1
v 0.6 2.5 -0.1
v 0.6 3.1 -0.1
v 0.6 2.5 -0.2
v 0.6 3.1 -0.2
v 0.6 2.1 -0.4
v 0.6 3.1 -0.4
v 0.6 3.2 -0.4
v 0.6 3.7 -0.4
v 0.6 2.4 -0.6
v 0.6 3.7 -0.6
v 0.6 2.4 -0.8
v 0.6 3.7 -0.8
v 0.6 3.1 -0.9
v 0.6 3.7 -0.9
v 0.6 2.1 -1
v 0.6 3.1 -1
v 0.6 3.3 -1.1
v 0.6 3.7 -1.1
v 0.6 3.3 -1.4
v 0.6 3.7 -1.4
v 0.6 3.1 -1.6
v 0.6 3.7 -1.6
v 0.5 3.3 1.4
v 0.5 3.6 1.4
v 0.5 3.3 1.1
v 0.5 3.6 1.1
v 0.5 2.1 0.4
v 0.5 3.1 0.4
v 0.5 3.2 0.4
v 0.5 3.6 0.4
v 0.5 2.7 0.2
v 0.5 3.1 0.2
v 0.5 2.7 0.1
v 0.5 3.1 0.1
v 0.5 2.5 -0.1
v 0.5 3.1 -0.1
v 0.5 2.5 -0.2
v 0.5 3.1 -0.2
v 0.5 2.1 -0.4
v 0.5 3.1 -0.4
v 0.5 3.2 -0.4
v 0.5 3.6 -0.4
v 0.5 3.3 -1.1
v 0.5 3.6 -1.1
v 0.5 3.3 -1.4
v 0.5 3.6 -1.4
v 0.4 2.1 -1
v 0.4 3.1 -1
v 0.4 2.1 -1.1
v 0.4 3.1 -1.1
v 0.3 2.1 1.1
v 0.3 2.9 1.1
v 0.3 2.1 1
v 0.3 2.9 1
v 0.3 3.6 0.4
v 0.3 3.7 0.4
v 0.3 3.6 -0.4
v 0.3 3.7 -0.4
v -0.1 2.4 1.1
v -0.1 3.1 1.1
v -0.1 2.4 1
v -0.1 3.1 1
v -0.1 2.5 -1
v -0.1 3.1 -1
v -0.1 2.5 -1.1
v -0.1 3.1 -1.1
v 0.2 2.1 -1
v 0.2 3.1 -1
v 0.2 2.1 -1.1
v 0.2 3.1 -1.1
v 0.1 2.1 1.1
v 0.1 2.9 1.1
v 0.1 2.1 1
v 0.1 2.9 1
v -0.3 2.4 1.1
v -0.3 3.1 1.1
v -0.3 2.4 1
v -0.3 3.1 1
v -0.3 2.5 -1
v -0.3 3.1 -1
v -0.3 2.5 -1.1
v -0.3 3.1 -1.1
v -0.5 3.3 1.4
v -0.5 3.6 1.4
v -0.5 3.3 1.1
v -0.5 3.6 1.1
v -0.5 2.1 1
v -0.5 3.1 1
v -0.5 2.7 0.9
v -0.5 3.1 0.9
v -0.5 2.3 0.7
v -0.5 2.7 0.7
v -0.5 2.3 0.5
v -0.5 2.9 0.5
v -0.5 2.1 0.3
v -0.5 2.9 0.3
v -0.5 2.1 0.1
v -0.5 2.6 0.1
v -0.5 2.3 -0.1
v -0.5 2.6 -0.1
v -0.5 2.3 -0.3
v -0.5 2.8 -0.3
v -0.5 2.1 -0.5
v -0.5 2.8 -0.5
v -0.5 2.1 -0.7
v -0.5 2.6 -0.7
v -0.5 2.6 -0.9
v -0.5 3.1 -0.9
v -0.5 2.1 -1
v -0.5 3.1 -1
v -0.5 3.3 -1.1
v -0.5 3.6 -1.1
v -0.5 3.3 -1.4
v -0.5 3.6 -1.4
v -0.6 3.1 1.6
v -0.6 3.7 1.6
v -0.6 3.3 1.4
v -0.6 3.7 1.4
v -0.6 3.3 1.1
v -0.6 3.7 1.1
v -0.6 2.7 0.9
v -0.6 3.1 0.9
v -0.6 3.7 0.9
v -0.6 2.3 0.7
v -0.6 2.7 0.7
v -0.6 2.3 0.5
v -0.6 2.9 0.5
v -0.6 2.1 0.3
v -0.6 2.9 0.3
v -0.6 2.1 0.1
v -0.6 2.6 0.1
v -0.6 2.3 -0.1
v -0.6 2.6 -0.1
v -0.6 2.3 -0.3
v -0.6 2.8 -0.3
v -0.6 2.1 -0.5
v -0.6 2.8 -0.5
v -0.6 2.1 -0.7
v -0.6 2.6 -0.7
v -0.6 2.6 -0.9
v -0.6 3.1 -0.9
v -0.6 3.7 -0.9
v -0.6 3.3 -1.1
v -0.6 3.7 -1.1
v -0.6 3.3 -1.4
v -0.6 3.7 -1.4
v -0.6 3.1 -1.6
v -0.6 3.7 -1.6
v 0.7 2.1 0.9
v 0.7 2.1 0.7
v 0.6 2.1 1
v 0.6 2.1 0.9
v 0.6 2.1 0.7
v 0.6 2.1 0.4
v 0.6 2.1 -0.4
v 0.6 2.1 -1
v 0.5 2.1 0.4
v 0.5 2.1 -0.4
v 0.4 2.1 -1
v 0.4 2.1 -1.1
v 0.3 2.1 1.1
v 0.3 2.1 1
v 0.3 2.1 0.4
v 0.3 2.1 -0.4
v 0.2 2.1 -1
v 0.2 2.1 -1.1
v 0.1 2.1 1.1
v 0.1 2.1 1
v -0.5 2.1 1
v -0.5 2.1 0.3
v -0.5 2.1 0.1
v -0.5 2.1 -0.5
v -0.5 2.1 -0.7
v -0.5 2.1 -1
v -0.6 2.1 0.3
v -0.6 2.1 0.1
v -0.6 2.1 -0.5
v -0.6 2.1 -0.7
v -0.5 2.3 0.7
v -0.5 2.3 0.5
v -0.5 2.3 -0.1
v -0.5 2.3 -0.3
v -0.6 2.3 0.7
v -0.6 2.3 0.5
v -0.6 2.3 -0.1
v -0.6 2.3 -0.3
v 0.7 2.4 -0.6
v 0.7 2.4 -0.8
v 0.6 2.4 -0.6
v 0.6 2.4 -0.8
v -0.1 2.4 1.1
v -0.1 2.4 1
v -0.3 2.4 1.1
v -0.3 2.4 1
v 0.6 2.5 -0.1
v 0.6 2.5 -0.2
v 0.5 2.5 -0.1
v 0.5 2.5 -0.2
v -0.1 2.5 -1
v -0.1 2.5 -1.1
v -0.3 2.5 -1
v -0.3 2.5 -1.1
v -0.5 2.6 0.1
v -0.5 2.6 -0.1
v -0.5 2.6 -0.7
v -0.5 2.6 -0.9
v -0.6 2.6 0.1
v -0.6 2.6 -0.1
v -0.6 2.6 -0.7
v -0.6 2.6 -0.9
v 0.6 2.7 0.2
v 0.6 2.7 0.1
v 0.5 2.7 0.2
v 0.5 2.7 0.1
v -0.5 2.7 0.9
v -0.5 2.7 0.7
v -0.6 2.7 0.9
v -0.6 2.7 0.7
v -0.5 2.8 -0.3
v -0.5 2.8 -0.5
v -0.6 2.8 -0.3
v -0.6 2.8 -0.5
v -0.5 2.9 0.5
v -0.5 2.9 0.3
v -0.6 2.9 0.5
v -0.6 2.9 0.3
v 0.7 3 0.8
v 0.7 3 0.6
v 0.6 3 0.8
v 0.6 3 0.6
v 0.6 3.1 1.6
v 0.6 3.1 1
v 0.6 3.1 0.4
v 0.6 3.1 0.2
v 0.6 3.1 0.1
v 0.6 3.1 -0.1
v 0.6 3.1 -0.2
v 0.6 3.1 -0.4
v 0.6 3.1 -1
v 0.6 3.1 -1.6
v 0.5 3.1 0.4
v 0.5 3.1 0.2
v 0.5 3.1 0.1
v 0.5 3.1 -0.1
v 0.5 3.1 -0.2
v 0.5 3.1 -0.4
v 0.4 3.1 -1
v 0.4 3.1 -1.1
v 0.2 3.1 -1
v 0.2 3.1 -1.1
v -0.1 3.1 1.1
v -0.1 3.1 1
v -0.1 3.1 -1
v -0.1 3.1 -1.1
v -0.3 3.1 1.1
v -0.3 3.1 1
v -0.3 3.1 -1
v -0.3 3.1 -1.1
v -0.5 3.1 1
v -0.5 3.1 0.9
v -0.5 3.1 -0.9
v -0.5 3.1 -1
v -0.6 3.1 1.6
v -0.6 3.1 0.9
v -0.6 3.1 -0.9
v -0.6 3.1 -1.6
v 0.7 2.7 0.9
v 0.7 2.7 0.7
v 0.6 2.7 0.9
v 0.6 2.7 0.7
v 0.3 2.9 1.1
v 0.3 2.9 1
v 0.1 2.9 1.1
v 0.1 2.9 1
v 0.6 3.2 0.4
v 0.6 3.2 -0.4
v 0.5 3.2 0.4
v 0.5 3.2 -0.4
v 0.6 3.3 1.4
v 0.6 3.3 1.1
v 0.6 3.3 -1.1
v 0.6 3.3 -1.4
v 0.5 3.3 1.4
v 0.5 3.3 1.1
v 0.5 3.3 -1.1
v 0.5 3.3 -1.4
v -0.5 3.3 1.4
v -0.5 3.3 1.1
v -0.5 3.3 -1.1
v -0.5 3.3 -1.4
v -0.6 3.3 1.4
v -0.6 3.3 1.1
v -0.6 3.3 -1.1
v -0.6 3.3 -1.4
v 0.5 3.6 1.4
v 0.5 3.6 1.1
v 0.5 3.6 0.4
v 0.5 3.6 -0.4
v 0.5 3.6 -1.1
v 0.5 3.6 -1.4
v 0.3 3.6 0.4
v 0.3 3.6 -0.4
v -0.5 3.6 1.4
v -0.5 3.6 1.1
v -0.5 3.6 -1.1
v -0.5 3.6 -1.4
v 0.7 3.7 0.8
v 0.7 3.7 0.6
v 0.7 3.7 -0.6
v 0.7 3.7 -0.8
v 0.6 3.7 1.6
v 0.6 3.7 1.4
v 0.6 3.7 1.1
v 0.6 3.7 0.9
v 0.6 3.7 0.8
v 0.6 3.7 0.6
v 0.6 3.7 0.4
v 0.6 3.7 -0.4
v 0.6 3.7 -0.6
v 0.6 3.7 -0.8
v 0.6 3.7 -0.9
v 0.6 3.7 -1.1
v 0.6 3.7 -1.4
v 0.6 3.7 -1.6
v 0.3 3.7 0.4
v 0.3 3.7 -0.4
v -0.6 3.7 1.6
v -0.6 3.7 1.4
v -0.6 3.7 1.1
v -0.6 3.7 0.9
v -0.6 3.7 -0.9
v -0.6 3.7 -1.1
v -0.6 3.7 -1.4
v -0.6 3.7 -1.6

# faces
f 3/1/1 2/1/1 1/1/1
f 4/1/1 2/1/1 3/1/1
f 9/3/1 6/3/1 5/3/1
f 10/3/1 6/3/1 9/3/1
f 11/3/1 8/3/1 7/3/1
f 12/3/1 8/3/1 11/3/1
f 17/1/1 14/1/1 13/1/1
f 18/1/1 16/1/1 15/1/1
f 19/1/1 17/1/1 13/1/1
f 19/1/1 18/1/1 17/1/1
f 20/1/1 16/1/1 18/1/1
f 20/1/1 18/1/1 19/1/1
f 25/3/1 24/3/1 23/3/1
f 26/3/1 24/3/1 25/3/1
f 27/3/1 22/3/1 21/3/1
f 28/3/1 25/3/1 23/3/1
f 29/3/1 27/3/1 21/3/1
f 29/3/1 28/3/1 27/3/1
f 30/3/1 25/3/1 28/3/1
f 30/3/1 28/3/1 29/3/1
f 31/3/1 24/3/1 26/3/1
f 32/3/1 24/3/1 31/3/1
f 35/3/1 34/3/1 33/3/1
f 36/3/1 34/3/1 35/3/1
f 39/3/1 38/3/1 37/3/1
f 40/3/1 38/3/1 39/3/1
f 43/3/1 42/3/1 41/3/1
f 44/3/1 42/3/1 43/3/1
f 47/3/1 46/3/1 45/3/1
f 48/3/1 46/3/1 47/3/1
f 51/3/1 50/3/1 49/3/1
f 52/3/1 50/3/1 51/3/1
f 55/1/1 54/1/1 53/1/1
f 56/1/1 54/1/1 55/1/1
f 61/3/1 58/3/1 57/3/1
f 62/3/1 58/3/1 61/3/1
f 63/1/1 60/1/1 59/1/1
f 64/1/1 60/1/1 63/1/1
f 67/3/1 66/3/1 65/3/1
f 68/3/1 66/3/1 67/3/1
f 71/3/1 70/3/1 69/3/1
f 73/3/1 71/3/1 69/3/1
f 73/3/1 72/3/1 71/3/1
f 74/3/1 72/3/1 73/3/1
f 77/3/1 76/3/1 75/3/1
f 78/3/1 76/3/1 77/3/1
f 81/3/1 80/3/1 79/3/1
f 82/3/1 80/3/1 81/3/1
f 87/1/1 84/1/1 83/1/1
f 88/1/1 86/1/1 85/1/1
f 89/1/1 87/1/1 83/1/1
f 89/1/1 88/1/1 87/1/1
f 90/1/1 86/1/1 88/1/1
f 90/1/1 88/1/1 89/1/1
f 91/1/2 92/1/2 95/1/2
f 93/1/2 94/1/2 96/1/2
f 91/1/2 95/1/2 97/1/2
f 95/1/2 96/1/2 97/1/2
f 96/1/2 94/1/2 98/1/2
f 97/1/2 96/1/2 98/1/2
f 99/3/2 100/3/2 101/3/2
f 101/3/2 100/3/2 102/3/2
f 103/3/2 104/3/2 105/3/2
f 105/3/2 104/3/2 106/3/2
f 107/3/2 108/3/2 109/3/2
f 109/3/2 108/3/2 110/3/2
f 111/3/2 112/3/2 113/3/2
f 113/3/2 112/3/2 114/3/2
f 115/3/2 116/3/2 117/3/2
f 115/3/2 117/3/2 119/3/2
f 117/3/2 118/3/2 119/3/2
f 119/3/2 118/3/2 120/3/2
f 121/3/2 122/3/2 123/3/2
f 123/3/2 122/3/2 124/3/2
f 125/1/2 126/1/2 127/1/2
f 127/1/2 126/1/2 128/1/2
f 129/1/2 130/1/2 131/1/2
f 131/1/2 130/1/2 132/1/2
f 133/3/2 134/3/2 135/3/2
f 135/3/2 134/3/2 136/3/2
f 137/3/2 138/3/2 139/3/2
f 139/3/2 138/3/2 140/3/2
f 141/3/2 142/3/2 143/3/2
f 143/3/2 142/3/2 144/3/2
f 145/3/2 146/3/2 147/3/2
f 147/3/2 146/3/2 148/3/2
f 151/3/2 152/3/2 153/3/2
f 153/3/2 152/3/2 154/3/2
f 149/3/2 150/3/2 155/3/2
f 155/3/2 150/3/2 156/3/2
f 151/3/2 153/3/2 157/3/2
f 157/3/2 153/3/2 158/3/2
f 154/3/2 152/3/2 159/3/2
f 159/3/2 152/3/2 160/3/2
f 161/3/2 162/3/2 165/3/2
f 165/3/2 162/3/2 166/3/2
f 163/3/2 164/3/2 167/3/2
f 167/3/2 164/3/2 168/3/2
f 169/1/2 170/1/2 173/1/2
f 171/1/2 172/1/2 174/1/2
f 169/1/2 173/1/2 175/1/2
f 173/1/2 174/1/2 175/1/2
f 174/1/2 172/1/2 176/1/2
f 175/1/2 174/1/2 176/1/2
f 177/1/2 178/1/2 179/1/2
f 179/1/2 178/1/2 180/1/2
f 185/3/3 182/3/3 181/3/3
f 186/3/3 182/3/3 185/3/3
f 187/3/3 184/3/3 183/3/3
f 188/3/3 184/3/3 187/3/3
f 191/3/3 190/3/3 189/3/3
f 192/3/3 190/3/3 191/3/3
f 195/1/3 194/1/3 193/1/3
f 196/1/3 194/1/3 195/1/3
f 197/1/3 195/1/3 193/1/3
f 200/1/3 197/1/3 193/1/3
f 200/1/3 198/1/3 197/1/3
f 201/3/3 200/3/3 199/3/3
f 202/3/3 200/3/3 201/3/3
f 203/1/3 198/1/3 200/1/3
f 203/3/3 200/3/3 202/3/3
f 204/1/3 198/1/3 203/1/3
f 205/3/3 203/3/3 202/3/3
f 205/3/3 204/3/3 203/3/3
f 206/3/3 204/3/3 205/3/3
f 208/3/3 205/3/3 202/3/3
f 209/3/3 205/3/3 208/3/3
f 209/3/3 208/3/3 207/3/3
f 211/3/3 209/3/3 207/3/3
f 211/3/3 210/3/3 209/3/3
f 212/3/3 210/3/3 211/3/3
f 213/3/3 210/3/3 212/3/3
f 214/3/3 210/3/3 213/3/3
f 216/1/3 213/1/3 212/1/3
f 217/1/3 216/1/3 215/1/3
f 218/1/3 213/1/3 216/1/3
f 218/1/3 216/1/3 217/1/3
f 220/1/3 213/1/3 218/1/3
f 221/1/3 220/1/3 219/1/3
f 222/1/3 213/1/3 220/1/3
f 222/1/3 220/1/3 221/1/3
f 224/1/3 213/1/3 222/1/3
f 225/1/3 213/1/3 224/1/3
f 227/3/3 224/3/3 223/3/3
f 227/3/3 226/3/3 225/3/3
f 227/3/3 225/3/3 224/3/3
f 228/3/3 226/3/3 227/3/3
f 229/3/3 227/3/3 223/3/3
f 231/3/3 230/3/3 229/3/3
f 232/3/3 230/3/3 231/3/3
f 233/3/3 229/3/3 223/3/3
f 233/3/3 231/3/3 229/3/3
f 234/1/3 232/1/3 231/1/3
f 234/3/3 231/3/3 233/3/3
f 235/1/3 232/1/3 234/1/3
f 236/1/3 232/1/3 235/1/3
f 237/1/3 235/1/3 234/1/3
f 239/1/3 237/1/3 234/1/3
f 239/1/3 238/1/3 237/1/3
f 240/1/3 238/1/3 239/1/3
f 243/1/3 242/1/3 241/1/3
f 244/1/3 242/1/3 243/1/3
f 249/2/3 246/2/3 245/2/3
f 250/2/3 246/2/3 249/2/3
f 251/2/3 249/2/3 245/2/3
f 253/2/3 251/2/3 245/2/3
f 253/2/3 252/2/3 251/2/3
f 254/2/3 252/2/3 253/2/3
f 255/2/3 253/2/3 245/2/3
f 257/2/3 255/2/3 245/2/3
f 257/2/3 256/2/3 255/2/3
f 258/2/3 256/2/3 257/2/3
f 259/2/3 248/2/3 247/2/3
f 260/2/3 248/2/3 259/2/3
f 263/1/3 262/1/3 261/1/3
f 264/1/3 262/1/3 263/1/3
f 267/3/3 266/3/3 265/3/3
f 268/3/3 266/3/3 267/3/3
f 271/3/3 270/3/3 269/3/3
f 272/3/3 270/3/3 271/3/3
f 275/3/3 274/3/3 273/3/3
f 276/3/3 274/3/3 275/3/3
f 279/3/3 278/3/3 277/3/3
f 280/3/3 278/3/3 279/3/3
f 283/3/3 282/3/3 281/3/3
f 284/3/3 282/3/3 283/3/3
f 285/3/4 286/3/4 287/3/4
f 287/3/4 286/3/4 288/3/4
f 289/3/4 290/3/4 291/3/4
f 291/3/4 290/3/4 292/3/4
f 293/3/4 294/3/4 295/3/4
f 295/3/4 294/3/4 296/3/4
f 297/3/4 298/3/4 299/3/4
f 299/3/4 298/3/4 300/3/4
f 301/1/4 302/1/4 303/1/4
f 303/1/4 302/1/4 304/1/4
f 305/3/4 306/3/4 307/3/4
f 307/3/4 306/3/4 308/3/4
f 305/3/4 307/3/4 309/3/4
f 309/3/4 307/3/4 310/3/4
f 305/3/4 309/3/4 311/3/4
f 305/3/4 311/3/4 313/3/4
f 311/3/4 312/3/4 313/3/4
f 313/3/4 312/3/4 314/3/4
f 315/3/4 316/3/4 317/3/4
f 317/3/4 316/3/4 318/3/4
f 315/3/4 317/3/4 319/3/4
f 315/3/4 319/3/4 321/3/4
f 319/3/4 320/3/4 321/3/4
f 321/3/4 320/3/4 322/3/4
f 323/3/4 324/3/4 325/3/4
f 323/3/4 325/3/4 327/3/4
f 325/3/4 326/3/4 327/3/4
f 327/3/4 326/3/4 328/3/4
f 329/1/4 330/1/4 331/1/4
f 331/1/4 330/1/4 332/1/4
f 333/1/4 334/1/4 335/1/4
f 335/1/4 334/1/4 336/1/4
f 333/1/4 335/1/4 337/1/4
f 333/1/4 337/1/4 340/1/4
f 337/1/4 338/1/4 340/1/4
f 340/1/4 338/1/4 341/1/4
f 339/3/4 340/3/4 343/3/4
f 340/3/4 341/3/4 343/3/4
f 342/3/4 343/3/4 344/3/4
f 343/3/4 341/3/4 345/3/4
f 344/3/4 343/3/4 345/3/4
f 345/3/4 341/3/4 347/3/4
f 346/3/4 347/3/4 348/3/4
f 348/3/4 347/3/4 349/3/4
f 349/3/4 347/3/4 351/3/4
f 350/3/4 351/3/4 352/3/4
f 351/3/4 347/3/4 353/3/4
f 352/3/4 351/3/4 353/3/4
f 353/3/4 347/3/4 355/3/4
f 354/3/4 355/3/4 356/3/4
f 356/3/4 355/3/4 357/3/4
f 357/3/4 355/3/4 358/3/4
f 347/3/4 341/3/4 359/3/4
f 358/3/4 355/3/4 359/3/4
f 355/3/4 347/3/4 359/3/4
f 359/3/4 341/3/4 360/3/4
f 359/1/4 360/1/4 361/1/4
f 361/1/4 360/1/4 362/1/4
f 359/1/4 361/1/4 363/1/4
f 359/1/4 363/1/4 365/1/4
f 363/1/4 364/1/4 365/1/4
f 365/1/4 364/1/4 366/1/4
f 370/3/5 368/3/5 367/3/5
f 371/3/5 368/3/5 370/3/5
f 375/3/5 370/3/5 369/3/5
f 375/3/5 371/3/5 370/3/5
f 375/3/5 372/3/5 371/3/5
f 376/3/5 374/3/5 373/3/5
f 377/3/5 374/3/5 376/3/5
f 380/3/5 375/3/5 369/3/5
f 381/2/5 376/2/5 375/2/5
f 381/3/5 375/3/5 380/3/5
f 382/3/5 378/3/5 377/3/5
f 382/2/5 376/2/5 381/2/5
f 382/3/5 377/3/5 376/3/5
f 383/3/5 381/3/5 380/3/5
f 383/3/5 378/3/5 382/3/5
f 383/3/5 382/3/5 381/3/5
f 383/3/5 380/3/5 379/3/5
f 384/3/5 378/3/5 383/3/5
f 385/3/5 383/3/5 379/3/5
f 386/3/5 383/3/5 385/3/5
f 387/3/5 383/3/5 386/3/5
f 388/3/5 383/3/5 387/3/5
f 389/3/5 383/3/5 388/3/5
f 390/3/5 383/3/5 389/3/5
f 391/3/5 383/3/5 390/3/5
f 392/3/5 383/3/5 391/3/5
f 393/3/5 389/3/5 388/3/5
f 394/3/5 389/3/5 393/3/5
f 395/3/5 391/3/5 390/3/5
f 396/3/5 391/3/5 395/3/5
f 401/3/5 398/3/5 397/3/5
f 402/3/5 398/3/5 401/3/5
f 403/3/5 400/3/5 399/3/5
f 404/3/5 400/3/5 403/3/5
f 407/3/5 406/3/5 405/3/5
f 408/3/5 406/3/5 407/3/5
f 411/3/5 410/3/5 409/3/5
f 412/3/5 410/3/5 411/3/5
f 415/1/5 414/1/5 413/1/5
f 416/1/5 414/1/5 415/1/5
f 419/3/5 418/3/5 417/3/5
f 420/3/5 418/3/5 419/3/5
f 425/3/5 422/3/5 421/3/5
f 426/3/5 422/3/5 425/3/5
f 427/3/5 424/3/5 423/3/5
f 428/3/5 424/3/5 427/3/5
f 431/1/5 430/1/5 429/1/5
f 432/1/5 430/1/5 431/1/5
f 435/3/5 434/3/5 433/3/5
f 436/3/5 434/3/5 435/3/5
f 439/3/5 438/3/5 437/3/5
f 440/3/5 438/3/5 439/3/5
f 443/3/5 442/3/5 441/3/5
f 444/3/5 442/3/5 443/3/5
f 447/3/5 446/3/5 445/3/5
f 448/3/5 446/3/5 447/3/5
f 459/1/5 452/1/5 451/1/5
f 460/1/5 452/1/5 459/1/5
f 461/1/5 454/1/5 453/1/5
f 462/1/5 454/1/5 461/1/5
f 463/1/5 456/1/5 455/1/5
f 464/1/5 456/1/5 463/1/5
f 465/1/5 458/1/5 457/1/5
f 466/1/5 458/1/5 465/1/5
f 468/1/5 458/1/5 466/1/5
f 469/1/5 450/1/5 449/1/5
f 470/1/5 450/1/5 469/1/5
f 471/1/5 468/1/5 467/1/5
f 472/1/5 458/1/5 468/1/5
f 472/1/5 468/1/5 471/1/5
f 473/1/5 469/1/5 449/1/5
f 476/1/5 458/1/5 472/1/5
f 477/1/5 474/1/5 473/1/5
f 480/1/5 476/1/5 475/1/5
f 481/1/5 478/1/5 477/1/5
f 481/1/5 473/1/5 449/1/5
f 481/1/5 477/1/5 473/1/5
f 482/1/5 478/1/5 481/1/5
f 483/1/5 480/1/5 479/1/5
f 484/1/5 476/1/5 480/1/5
f 484/1/5 480/1/5 483/1/5
f 484/1/5 458/1/5 476/1/5
f 485/3/6 486/3/6 487/3/6
f 487/3/6 486/3/6 488/3/6
f 489/3/6 490/3/6 491/3/6
f 491/3/6 490/3/6 492/3/6
f 493/1/6 494/1/6 495/1/6
f 495/1/6 494/1/6 496/1/6
f 497/1/6 498/1/6 501/1/6
f 501/1/6 498/1/6 502/1/6
f 499/1/6 500/1/6 503/1/6
f 503/1/6 500/1/6 504/1/6
f 505/1/6 506/1/6 509/1/6
f 509/1/6 506/1/6 510/1/6
f 507/1/6 508/1/6 511/1/6
f 511/1/6 508/1/6 512/1/6
f 515/2/6 516/2/6 519/2/6
f 519/2/6 516/2/6 520/2/6
f 513/1/6 514/1/6 521/1/6
f 521/1/6 514/1/6 522/1/6
f 517/1/6 518/1/6 523/1/6
f 523/1/6 518/1/6 524/1/6
f 525/3/6 526/3/6 533/3/6
f 533/3/6 526/3/6 534/3/6
f 527/3/6 528/3/6 537/3/6
f 537/3/6 528/3/6 538/3/6
f 534/3/6 535/3/6 543/3/6
f 532/3/6 533/3/6 543/3/6
f 533/3/6 534/3/6 543/3/6
f 538/3/6 539/3/6 544/3/6
f 536/3/6 537/3/6 544/3/6
f 537/3/6 538/3/6 544/3/6
f 529/1/6 530/1/6 545/1/6
f 545/1/6 530/1/6 546/1/6
f 531/1/6 532/1/6 547/1/6
f 543/3/6 544/3/6 548/3/6
f 547/1/6 532/1/6 548/1/6
f 532/3/6 543/3/6 548/3/6
f 539/1/6 540/1/6 549/1/6
f 548/3/6 544/3/6 549/3/6
f 544/3/6 539/3/6 549/3/6
f 549/1/6 540/1/6 550/1/6
f 541/1/6 542/1/6 551/1/6
f 551/1/6 542/1/6 552/1/6
