# MagicaVoxel @ Ephtracy

# group
o 

# material
mtllib model-8.mtl
usemtl palette

# normals
vn 0 0 1
vn 0 0 -1
vn 1 0 0
vn -1 0 0
vn 0 -1 0
vn 0 1 0

# texcoords
vt 0.818359 0.5
vt 0.826172 0.5

# verts
v 0.8 0 0.9
v -0.4 0 0.9
v 0.8 0.1 0.9
v -0.4 0.1 0.9
v 0.8 0.4 0.9
v 0.4 0.4 0.9
v 0.4 0.6 0.9
v -0.4 0.6 0.9
v 0.8 0 0.2
v -0.4 0 0.2
v 0.8 0.1 0.2
v -0.4 0.1 0.2
v 0.8 0.4 0.2
v 0.4 0.4 0.2
v 0.4 0.6 0.2
v -0.4 0.6 0.2
v 0.8 0 0.9
v 0.8 0.1 0.9
v 0.8 0.4 0.9
v 0.8 0 0.2
v 0.8 0.1 0.2
v 0.8 0.4 0.2
v 0.4 0.4 0.9
v 0.4 0.6 0.9
v 0.4 0.4 0.2
v 0.4 0.6 0.2
v -0.4 0 0.9
v -0.4 0.1 0.9
v -0.4 0.6 0.9
v -0.4 0 0.2
v -0.4 0.1 0.2
v -0.4 0.6 0.2
v 0.8 0 0.9
v 0.8 0 0.2
v -0.4 0 0.9
v -0.4 0 0.2
v 0.8 0.4 0.9
v 0.8 0.4 0.2
v 0.4 0.4 0.9
v 0.4 0.4 0.2
v 0.4 0.6 0.9
v 0.4 0.6 0.2
v -0.4 0.6 0.9
v -0.4 0.6 0.2

# faces
f 3/1/1 2/1/1 1/1/1
f 4/1/1 2/1/1 3/1/1
f 5/2/1 4/2/1 3/2/1
f 6/2/1 4/2/1 5/2/1
f 7/2/1 4/2/1 6/2/1
f 8/2/1 4/2/1 7/2/1
f 9/1/2 10/1/2 11/1/2
f 11/1/2 10/1/2 12/1/2
f 11/2/2 12/2/2 13/2/2
f 13/2/2 12/2/2 14/2/2
f 14/2/2 12/2/2 15/2/2
f 15/2/2 12/2/2 16/2/2
f 20/1/3 18/1/3 17/1/3
f 21/2/3 19/2/3 18/2/3
f 21/1/3 18/1/3 20/1/3
f 22/2/3 19/2/3 21/2/3
f 25/2/3 24/2/3 23/2/3
f 26/2/3 24/2/3 25/2/3
f 27/1/4 28/1/4 30/1/4
f 28/2/4 29/2/4 31/2/4
f 30/1/4 28/1/4 31/1/4
f 31/2/4 29/2/4 32/2/4
f 35/1/5 34/1/5 33/1/5
f 36/1/5 34/1/5 35/1/5
f 37/2/6 38/2/6 39/2/6
f 39/2/6 38/2/6 40/2/6
f 41/2/6 42/2/6 43/2/6
f 43/2/6 42/2/6 44/2/6
