# MagicaVoxel @ Ephtracy

# group
o 

# material
mtllib model-1.mtl
usemtl palette

# normals
vn -1 0 0
vn 1 0 0
vn 0 0 1
vn 0 0 -1
vn 0 -1 0
vn 0 1 0

# texcoords
vt 0.544922 0.5
vt 0.548828 0.5

# verts
v -2 6 0.4
v -2 6 0.1
v -2 6 -0.1
v -2 6 -0.4
v -2 7 0.4
v -2 7 0.1
v -2 7 -0.1
v -2 7 -0.4
v -1.8 5.8 0.6
v -1.8 5.8 -0.6
v -1.8 6 0.4
v -1.8 6 0.1
v -1.8 6 -0.1
v -1.8 6 -0.4
v -1.8 6.2 0.6
v -1.8 6.2 0.4
v -1.8 6.2 -0.4
v -1.8 6.2 -0.6
v -1.8 6.5 0.6
v -1.8 6.5 0.4
v -1.8 6.5 -0.4
v -1.8 6.5 -0.6
v -1.8 6.7 0.6
v -1.8 6.7 0.4
v -1.8 6.7 -0.4
v -1.8 6.7 -0.6
v -1.8 6.8 0.6
v -1.8 6.8 0.4
v -1.8 6.8 -0.4
v -1.8 6.8 -0.6
v -1.8 7 0.6
v -1.8 7 0.4
v -1.8 7 0.2
v -1.8 7 0.1
v -1.8 7 -0.1
v -1.8 7 -0.2
v -1.8 7 -0.4
v -1.8 7 -0.6
v -1.8 7.2 0.4
v -1.8 7.2 0.2
v -1.8 7.2 -0.2
v -1.8 7.2 -0.4
v -1.4 4.4 0.7
v -1.4 4.4 0.2
v -1.4 4.4 -0.2
v -1.4 4.4 -0.7
v -1.4 4.5 0.7
v -1.4 4.5 0.5
v -1.4 4.5 -0.5
v -1.4 4.5 -0.7
v -1.4 4.8 1.4
v -1.4 4.8 0.7
v -1.4 4.8 -0.7
v -1.4 4.8 -1.4
v -1.4 5 1.3
v -1.4 5 1.1
v -1.4 5 -1.1
v -1.4 5 -1.3
v -1.4 5.1 1.4
v -1.4 5.1 1.3
v -1.4 5.1 -1.3
v -1.4 5.1 -1.4
v -1.4 5.5 0.2
v -1.4 5.5 -0.2
v -1.4 5.6 0.7
v -1.4 5.6 0.5
v -1.4 5.6 -0.5
v -1.4 5.6 -0.7
v -1.4 5.8 0.6
v -1.4 5.8 0.5
v -1.4 5.8 -0.5
v -1.4 5.8 -0.6
v -1.4 6.2 0.6
v -1.4 6.2 -0.6
v -1.4 6.5 0.6
v -1.4 6.5 -0.6
v -1.4 6.7 1.1
v -1.4 6.7 0.7
v -1.4 6.7 0.6
v -1.4 6.7 -0.6
v -1.4 6.7 -0.7
v -1.4 6.7 -1.1
v -1.1 5.3 0.7
v -1.1 5.3 0.5
v -1.1 5.3 0.2
v -1.1 5.3 -0.2
v -1.1 5.3 -0.5
v -1.1 5.3 -0.7
v -1.1 5.5 0.2
v -1.1 5.5 -0.2
v -1.1 5.6 1.4
v -1.1 5.6 1.1
v -1.1 5.6 0.7
v -1.1 5.6 0.5
v -1.1 5.6 -0.5
v -1.1 5.6 -0.7
v -1.1 5.6 -1.1
v -1.1 5.6 -1.4
v -1.1 5.8 1.4
v -1.1 5.8 1.1
v -1.1 5.8 -1.1
v -1.1 5.8 -1.4
v -1.1 6.1 1.4
v -1.1 6.1 1.1
v -1.1 6.1 -1.1
v -1.1 6.1 -1.4
v -1.1 6.7 1.4
v -1.1 6.7 1.1
v -1.1 6.7 0.7
v -1.1 6.7 0.2
v -1.1 6.7 -0.2
v -1.1 6.7 -0.7
v -1.1 6.7 -1.1
v -1.1 6.7 -1.4
v -1.1 6.8 1.1
v -1.1 6.8 0.9
v -1.1 6.8 -0.9
v -1.1 6.8 -1.1
v -1.1 7 1.1
v -1.1 7 0.9
v -1.1 7 0.7
v -1.1 7 0.2
v -1.1 7 -0.2
v -1.1 7 -0.7
v -1.1 7 -0.9
v -1.1 7 -1.1
v -0.9 4.2 0.9
v -0.9 4.2 -0.9
v -0.9 4.4 1.3
v -0.9 4.4 0.9
v -0.9 4.4 -0.9
v -0.9 4.4 -1.3
v -0.9 4.6 1.3
v -0.9 4.6 -1.3
v -0.9 4.9 1.3
v -0.9 4.9 -1.3
v -0.9 5.1 1.3
v -0.9 5.1 -1.3
v -0.7 3.7 1.3
v -0.7 3.7 1.1
v -0.7 3.7 -1.1
v -0.7 3.7 -1.3
v -0.7 3.8 1.3
v -0.7 3.8 1.1
v -0.7 3.8 -1.1
v -0.7 3.8 -1.3
v -0.7 4 1.3
v -0.7 4 1.1
v -0.7 4 -1.1
v -0.7 4 -1.3
v -0.4 3.9 1.3
v -0.4 3.9 1.1
v -0.4 3.9 -1.1
v -0.4 3.9 -1.3
v -0.4 4.4 1.3
v -0.4 4.4 1.1
v -0.4 4.4 -1.1
v -0.4 4.4 -1.3
v 0.2 4.9 1.4
v 0.2 4.9 1.1
v 0.2 4.9 -1.1
v 0.2 4.9 -1.4
v 0.2 5.1 1.1
v 0.2 5.1 -1.1
v 0.2 5.6 1.4
v 0.2 5.6 -1.4
v 0.4 3.4 1.3
v 0.4 3.4 1.1
v 0.4 3.4 -1.1
v 0.4 3.4 -1.3
v 0.4 3.5 1.3
v 0.4 3.5 1.1
v 0.4 3.5 -1.1
v 0.4 3.5 -1.3
v 0.4 3.7 1.3
v 0.4 3.7 1.1
v 0.4 3.7 -1.1
v 0.4 3.7 -1.3
v 0.4 4 1.3
v 0.4 4 1.1
v 0.4 4 -1.1
v 0.4 4 -1.3
v 0.4 4.9 1.3
v 0.4 4.9 1.1
v 0.4 4.9 -1.1
v 0.4 4.9 -1.3
v 0.7 3.6 1.3
v 0.7 3.6 1.1
v 0.7 3.6 -1.1
v 0.7 3.6 -1.3
v 0.7 4 1.3
v 0.7 4 1.1
v 0.7 4 -1.1
v 0.7 4 -1.3
v -1.3 6.7 0.6
v -1.3 6.7 -0.6
v -1.3 6.8 0.6
v -1.3 6.8 0.4
v -1.3 6.8 0.2
v -1.3 6.8 -0.2
v -1.3 6.8 -0.4
v -1.3 6.8 -0.6
v -1.3 7 0.6
v -1.3 7 0.4
v -1.3 7 -0.4
v -1.3 7 -0.6
v -1.3 7.2 0.4
v -1.3 7.2 0.2
v -1.3 7.2 -0.2
v -1.3 7.2 -0.4
v -1.1 4.4 0.7
v -1.1 4.4 0.2
v -1.1 4.4 -0.2
v -1.1 4.4 -0.7
v -1.1 4.5 0.7
v -1.1 4.5 0.5
v -1.1 4.5 -0.5
v -1.1 4.5 -0.7
v -1.1 4.8 1.4
v -1.1 4.8 0.7
v -1.1 4.8 -0.7
v -1.1 4.8 -1.4
v -1.1 5 1.3
v -1.1 5 1.1
v -1.1 5 -1.1
v -1.1 5 -1.3
v -1.1 5.1 1.4
v -1.1 5.1 1.3
v -1.1 5.1 -1.3
v -1.1 5.1 -1.4
v -1.1 5.3 1.1
v -1.1 5.3 0.7
v -1.1 5.3 0.5
v -1.1 5.3 0.2
v -1.1 5.3 -0.2
v -1.1 5.3 -0.5
v -1.1 5.3 -0.7
v -1.1 5.3 -1.1
v -0.9 5.3 1.1
v -0.9 5.3 -1.1
v -0.9 5.6 1.1
v -0.9 5.6 -1.1
v -0.6 3.9 1.3
v -0.6 3.9 1.1
v -0.6 3.9 -1.1
v -0.6 3.9 -1.3
v -0.6 4 1.3
v -0.6 4 1.1
v -0.6 4 -1.1
v -0.6 4 -1.3
v -0.2 3.7 1.3
v -0.2 3.7 1.1
v -0.2 3.7 -1.1
v -0.2 3.7 -1.3
v -0.2 4.4 1.3
v -0.2 4.4 1.1
v -0.2 4.4 -1.1
v -0.2 4.4 -1.3
v 2.38419e-07 4.2 0.9
v 2.38419e-07 4.2 -0.9
v 2.38419e-07 4.4 1.3
v 2.38419e-07 4.4 0.9
v 2.38419e-07 4.4 -0.9
v 2.38419e-07 4.4 -1.3
v 2.38419e-07 4.6 1.3
v 2.38419e-07 4.6 -1.3
v 2.38419e-07 4.9 1.3
v 2.38419e-07 4.9 -1.3
v 2.38419e-07 5.1 1.3
v 2.38419e-07 5.1 -1.3
v 0.5 3.6 1.3
v 0.5 3.6 1.1
v 0.5 3.6 -1.1
v 0.5 3.6 -1.3
v 0.5 3.7 1.3
v 0.5 3.7 1.1
v 0.5 3.7 -1.1
v 0.5 3.7 -1.3
v 0.6 4.2 1.3
v 0.6 4.2 1.1
v 0.6 4.2 -1.1
v 0.6 4.2 -1.3
v 0.6 4.9 1.4
v 0.6 4.9 1.3
v 0.6 4.9 1.1
v 0.6 4.9 -1.1
v 0.6 4.9 -1.3
v 0.6 4.9 -1.4
v 0.6 5 1.4
v 0.6 5 1.1
v 0.6 5 -1.1
v 0.6 5 -1.4
v 0.6 5.1 1.2
v 0.6 5.1 1.1
v 0.6 5.1 -1.1
v 0.6 5.1 -1.2
v 0.6 5.7 1.2
v 0.6 5.7 -1.2
v 0.6 6.3 1.4
v 0.6 6.3 1.1
v 0.6 6.3 0.9
v 0.6 6.3 0.8
v 0.6 6.3 0.5
v 0.6 6.3 0.2
v 0.6 6.3 -0.2
v 0.6 6.3 -0.5
v 0.6 6.3 -0.8
v 0.6 6.3 -0.9
v 0.6 6.3 -1.1
v 0.6 6.3 -1.4
v 0.6 6.5 1.4
v 0.6 6.5 1.1
v 0.6 6.5 -1.1
v 0.6 6.5 -1.4
v 0.6 6.7 1.4
v 0.6 6.7 1.1
v 0.6 6.7 1
v 0.6 6.7 0.9
v 0.6 6.7 0.8
v 0.6 6.7 0.7
v 0.6 6.7 0.5
v 0.6 6.7 0.2
v 0.6 6.7 0.1
v 0.6 6.7 -0.1
v 0.6 6.7 -0.2
v 0.6 6.7 -0.5
v 0.6 6.7 -0.7
v 0.6 6.7 -0.8
v 0.6 6.7 -0.9
v 0.6 6.7 -1
v 0.6 6.7 -1.1
v 0.6 6.7 -1.4
v 0.6 7 1.1
v 0.6 7 1
v 0.6 7 0.8
v 0.6 7 0.7
v 0.6 7 0.5
v 0.6 7 0.1
v 0.6 7 -0.1
v 0.6 7 -0.5
v 0.6 7 -0.7
v 0.6 7 -0.8
v 0.6 7 -1
v 0.6 7 -1.1
v 0.9 3.4 1.3
v 0.9 3.4 1.1
v 0.9 3.4 -1.1
v 0.9 3.4 -1.3
v 0.9 4.2 1.3
v 0.9 4.2 1.1
v 0.9 4.2 -1.1
v 0.9 4.2 -1.3
v 0.9 6.3 1.1
v 0.9 6.3 0.9
v 0.9 6.3 0.8
v 0.9 6.3 0.5
v 0.9 6.3 0.2
v 0.9 6.3 -0.2
v 0.9 6.3 -0.5
v 0.9 6.3 -0.8
v 0.9 6.3 -0.9
v 0.9 6.3 -1.1
v 0.9 6.7 1.1
v 0.9 6.7 0.9
v 0.9 6.7 0.8
v 0.9 6.7 0.5
v 0.9 6.7 0.2
v 0.9 6.7 -0.2
v 0.9 6.7 -0.5
v 0.9 6.7 -0.8
v 0.9 6.7 -0.9
v 0.9 6.7 -1.1
v -1.4 4.8 1.4
v -1.4 5.1 1.4
v -1.1 4.8 1.4
v -1.1 5.1 1.4
v -1.1 5.6 1.4
v -1.1 5.8 1.4
v -1.1 6.1 1.4
v -1.1 6.7 1.4
v -0.9 6.3 1.4
v -0.9 6.4 1.4
v -0.5 5.8 1.4
v -0.5 5.9 1.4
v -0.4 6.4 1.4
v -0.4 6.5 1.4
v 0.1 5.9 1.4
v 0.1 6 1.4
v 0.2 4.9 1.4
v 0.2 5.6 1.4
v 0.4 5 1.4
v 0.4 5.6 1.4
v 0.4 6 1.4
v 0.4 6.1 1.4
v 0.6 4.9 1.4
v 0.6 5 1.4
v 0.6 6.3 1.4
v 0.6 6.5 1.4
v 0.6 6.7 1.4
v -0.9 4.4 1.3
v -0.9 4.6 1.3
v -0.9 4.9 1.3
v -0.9 5.1 1.3
v -0.7 3.7 1.3
v -0.7 3.8 1.3
v -0.7 4 1.3
v -0.6 3.9 1.3
v -0.6 4 1.3
v -0.4 3.9 1.3
v -0.4 4.4 1.3
v -0.3 3.8 1.3
v -0.3 4.4 1.3
v -0.2 3.7 1.3
v -0.2 4.4 1.3
v 2.38419e-07 4.4 1.3
v 2.38419e-07 4.6 1.3
v 2.38419e-07 4.9 1.3
v 2.38419e-07 5.1 1.3
v 0.4 3.4 1.3
v 0.4 3.5 1.3
v 0.4 3.7 1.3
v 0.4 4 1.3
v 0.4 4.9 1.3
v 0.5 3.6 1.3
v 0.5 3.7 1.3
v 0.5 4.1 1.3
v 0.5 4.9 1.3
v 0.6 4.2 1.3
v 0.6 4.9 1.3
v 0.7 3.6 1.3
v 0.7 4 1.3
v 0.8 3.5 1.3
v 0.8 4.1 1.3
v 0.9 3.4 1.3
v 0.9 4.2 1.3
v -1.4 5 1.1
v -1.4 6.7 1.1
v -1.1 5 1.1
v -1.1 5.3 1.1
v -1.1 5.6 1.1
v -1.1 5.8 1.1
v -1.1 6.1 1.1
v -1.1 6.7 1.1
v -1.1 6.8 1.1
v -1.1 7 1.1
v -0.9 5.3 1.1
v -0.9 5.6 1.1
v 0.2 6.7 1.1
v 0.2 6.8 1.1
v 0.6 6.3 1.1
v 0.6 6.5 1.1
v 0.6 6.7 1.1
v 0.6 7 1.1
v 0.9 6.3 1.1
v 0.9 6.7 1.1
v -0.9 4.2 0.9
v -0.9 4.4 0.9
v 2.38419e-07 4.2 0.9
v 2.38419e-07 4.4 0.9
v -1.4 4.4 0.7
v -1.4 4.5 0.7
v -1.1 4.4 0.7
v -1.1 4.5 0.7
v -1.8 5.8 0.6
v -1.8 6.2 0.6
v -1.8 6.5 0.6
v -1.8 6.7 0.6
v -1.8 6.8 0.6
v -1.8 7 0.6
v -1.4 5.8 0.6
v -1.4 6.2 0.6
v -1.4 6.5 0.6
v -1.4 6.7 0.6
v -1.3 6.7 0.6
v -1.3 6.8 0.6
v -1.3 7 0.6
v -1.4 4.5 0.5
v -1.4 5.6 0.5
v -1.1 4.5 0.5
v -1.1 5.3 0.5
v -1.1 5.6 0.5
v -2 6 0.4
v -2 7 0.4
v -1.8 6 0.4
v -1.8 6.2 0.4
v -1.8 6.5 0.4
v -1.8 6.7 0.4
v -1.8 6.8 0.4
v -1.8 7 0.4
v -1.8 7.2 0.4
v -1.3 7 0.4
v -1.3 7.2 0.4
v -1.4 4.4 -0.2
v -1.4 5.5 -0.2
v -1.1 4.4 -0.2
v -1.1 5.3 -0.2
v -1.1 5.5 -0.2
v -1.4 4.8 -0.7
v -1.4 5.6 -0.7
v -1.1 4.8 -0.7
v -1.1 5.3 -0.7
v -1.1 5.6 -0.7
v -0.7 3.7 -1.1
v -0.7 3.8 -1.1
v -0.7 4 -1.1
v -0.6 3.9 -1.1
v -0.6 4 -1.1
v -0.4 3.9 -1.1
v -0.4 4.4 -1.1
v -0.3 3.8 -1.1
v -0.3 4.4 -1.1
v -0.2 3.7 -1.1
v -0.2 4.4 -1.1
v 0.2 4.9 -1.1
v 0.2 5.1 -1.1
v 0.4 3.4 -1.1
v 0.4 3.5 -1.1
v 0.4 3.7 -1.1
v 0.4 4 -1.1
v 0.4 4.9 -1.1
v 0.4 5 -1.1
v 0.4 5.1 -1.1
v 0.5 3.6 -1.1
v 0.5 3.7 -1.1
v 0.5 4.1 -1.1
v 0.5 4.9 -1.1
v 0.6 4.2 -1.1
v 0.6 4.9 -1.1
v 0.6 5 -1.1
v 0.6 5.1 -1.1
v 0.7 3.6 -1.1
v 0.7 4 -1.1
v 0.8 3.5 -1.1
v 0.8 4.1 -1.1
v 0.9 3.4 -1.1
v 0.9 4.2 -1.1
v -1.4 5 -1.3
v -1.4 5.1 -1.3
v -1.1 5 -1.3
v -1.1 5.1 -1.3
v -1.4 5 1.3
v -1.4 5.1 1.3
v -1.1 5 1.3
v -1.1 5.1 1.3
v -0.7 3.7 1.1
v -0.7 3.8 1.1
v -0.7 4 1.1
v -0.6 3.9 1.1
v -0.6 4 1.1
v -0.4 3.9 1.1
v -0.4 4.4 1.1
v -0.3 3.8 1.1
v -0.3 4.4 1.1
v -0.2 3.7 1.1
v -0.2 4.4 1.1
v 0.2 4.9 1.1
v 0.2 5.1 1.1
v 0.4 3.4 1.1
v 0.4 3.5 1.1
v 0.4 3.7 1.1
v 0.4 4 1.1
v 0.4 4.9 1.1
v 0.4 5 1.1
v 0.4 5.1 1.1
v 0.5 3.6 1.1
v 0.5 3.7 1.1
v 0.5 4.1 1.1
v 0.5 4.9 1.1
v 0.6 4.2 1.1
v 0.6 4.9 1.1
v 0.6 5 1.1
v 0.6 5.1 1.1
v 0.7 3.6 1.1
v 0.7 4 1.1
v 0.8 3.5 1.1
v 0.8 4.1 1.1
v 0.9 3.4 1.1
v 0.9 4.2 1.1
v -1.4 4.8 0.7
v -1.4 5.6 0.7
v -1.1 4.8 0.7
v -1.1 5.3 0.7
v -1.1 5.6 0.7
v -1.4 4.4 0.2
v -1.4 5.5 0.2
v -1.1 4.4 0.2
v -1.1 5.3 0.2
v -1.1 5.5 0.2
v -2 6 -0.4
v -2 7 -0.4
v -1.8 6 -0.4
v -1.8 6.2 -0.4
v -1.8 6.5 -0.4
v -1.8 6.7 -0.4
v -1.8 6.8 -0.4
v -1.8 7 -0.4
v -1.8 7.2 -0.4
v -1.3 7 -0.4
v -1.3 7.2 -0.4
v -1.4 4.5 -0.5
v -1.4 5.6 -0.5
v -1.1 4.5 -0.5
v -1.1 5.3 -0.5
v -1.1 5.6 -0.5
v -1.8 5.8 -0.6
v -1.8 6.2 -0.6
v -1.8 6.5 -0.6
v -1.8 6.7 -0.6
v -1.8 6.8 -0.6
v -1.8 7 -0.6
v -1.4 5.8 -0.6
v -1.4 6.2 -0.6
v -1.4 6.5 -0.6
v -1.4 6.7 -0.6
v -1.3 6.7 -0.6
v -1.3 6.8 -0.6
v -1.3 7 -0.6
v -1.4 4.4 -0.7
v -1.4 4.5 -0.7
v -1.1 4.4 -0.7
v -1.1 4.5 -0.7
v -0.9 4.2 -0.9
v -0.9 4.4 -0.9
v 2.38419e-07 4.2 -0.9
v 2.38419e-07 4.4 -0.9
v -1.4 5 -1.1
v -1.4 6.7 -1.1
v -1.1 5 -1.1
v -1.1 5.3 -1.1
v -1.1 5.6 -1.1
v -1.1 5.8 -1.1
v -1.1 6.1 -1.1
v -1.1 6.7 -1.1
v -1.1 6.8 -1.1
v -1.1 7 -1.1
v -0.9 5.3 -1.1
v -0.9 5.6 -1.1
v 0.2 6.7 -1.1
v 0.2 6.8 -1.1
v 0.6 6.3 -1.1
v 0.6 6.5 -1.1
v 0.6 6.7 -1.1
v 0.6 7 -1.1
v 0.9 6.3 -1.1
v 0.9 6.7 -1.1
v -0.9 4.4 -1.3
v -0.9 4.6 -1.3
v -0.9 4.9 -1.3
v -0.9 5.1 -1.3
v -0.7 3.7 -1.3
v -0.7 3.8 -1.3
v -0.7 4 -1.3
v -0.6 3.9 -1.3
v -0.6 4 -1.3
v -0.4 3.9 -1.3
v -0.4 4.4 -1.3
v -0.3 3.8 -1.3
v -0.3 4.4 -1.3
v -0.2 3.7 -1.3
v -0.2 4.4 -1.3
v 2.38419e-07 4.4 -1.3
v 2.38419e-07 4.6 -1.3
v 2.38419e-07 4.9 -1.3
v 2.38419e-07 5.1 -1.3
v 0.4 3.4 -1.3
v 0.4 3.5 -1.3
v 0.4 3.7 -1.3
v 0.4 4 -1.3
v 0.4 4.9 -1.3
v 0.5 3.6 -1.3
v 0.5 3.7 -1.3
v 0.5 4.1 -1.3
v 0.5 4.9 -1.3
v 0.6 4.2 -1.3
v 0.6 4.9 -1.3
v 0.7 3.6 -1.3
v 0.7 4 -1.3
v 0.8 3.5 -1.3
v 0.8 4.1 -1.3
v 0.9 3.4 -1.3
v 0.9 4.2 -1.3
v -1.4 4.8 -1.4
v -1.4 5.1 -1.4
v -1.1 4.8 -1.4
v -1.1 5.1 -1.4
v -1.1 5.6 -1.4
v -1.1 5.8 -1.4
v -1.1 6.1 -1.4
v -1.1 6.7 -1.4
v -0.9 6.3 -1.4
v -0.9 6.4 -1.4
v -0.5 5.8 -1.4
v -0.5 5.9 -1.4
v -0.4 6.4 -1.4
v -0.4 6.5 -1.4
v 0.1 5.9 -1.4
v 0.1 6 -1.4
v 0.2 4.9 -1.4
v 0.2 5.6 -1.4
v 0.4 5 -1.4
v 0.4 5.6 -1.4
v 0.4 6 -1.4
v 0.4 6.1 -1.4
v 0.6 4.9 -1.4
v 0.6 5 -1.4
v 0.6 6.3 -1.4
v 0.6 6.5 -1.4
v 0.6 6.7 -1.4
v 0.4 3.4 1.3
v 0.9 3.4 1.3
v 0.4 3.4 1.1
v 0.9 3.4 1.1
v 0.4 3.4 -1.1
v 0.9 3.4 -1.1
v 0.4 3.4 -1.3
v 0.9 3.4 -1.3
v -0.7 3.7 1.3
v -0.2 3.7 1.3
v -0.7 3.7 1.1
v -0.2 3.7 1.1
v -0.7 3.7 -1.1
v -0.2 3.7 -1.1
v -0.7 3.7 -1.3
v -0.2 3.7 -1.3
v 0.4 4 1.3
v 0.7 4 1.3
v 0.4 4 1.1
v 0.7 4 1.1
v 0.4 4 -1.1
v 0.7 4 -1.1
v 0.4 4 -1.3
v 0.7 4 -1.3
v -0.9 4.2 0.9
v 2.38419e-07 4.2 0.9
v -0.9 4.2 -0.9
v 2.38419e-07 4.2 -0.9
v -0.9 4.4 1.3
v -0.4 4.4 1.3
v -0.2 4.4 1.3
v 2.38419e-07 4.4 1.3
v -0.4 4.4 1.1
v -0.3 4.4 1.1
v -0.2 4.4 1.1
v -0.9 4.4 0.9
v 2.38419e-07 4.4 0.9
v -1.4 4.4 0.7
v -1.1 4.4 0.7
v -1.4 4.4 0.2
v -1.1 4.4 0.2
v -1.4 4.4 -0.2
v -1.1 4.4 -0.2
v -1.4 4.4 -0.7
v -1.1 4.4 -0.7
v -0.9 4.4 -0.9
v 2.38419e-07 4.4 -0.9
v -0.4 4.4 -1.1
v -0.3 4.4 -1.1
v -0.2 4.4 -1.1
v -0.9 4.4 -1.3
v -0.4 4.4 -1.3
v -0.2 4.4 -1.3
v 2.38419e-07 4.4 -1.3
v -1.4 4.8 1.4
v -1.1 4.8 1.4
v -1.4 4.8 0.7
v -1.1 4.8 0.7
v -1.4 4.8 -0.7
v -1.1 4.8 -0.7
v -1.4 4.8 -1.4
v -1.1 4.8 -1.4
v 0.2 4.9 1.4
v 0.6 4.9 1.4
v 0.4 4.9 1.3
v 0.5 4.9 1.3
v 0.6 4.9 1.3
v 0.2 4.9 1.1
v 0.4 4.9 1.1
v 0.2 4.9 -1.1
v 0.4 4.9 -1.1
v 0.4 4.9 -1.3
v 0.5 4.9 -1.3
v 0.6 4.9 -1.3
v 0.2 4.9 -1.4
v 0.6 4.9 -1.4
v 0.2 5.1 1.1
v 0.4 5.1 1.1
v 0.6 5.1 1.1
v 0.2 5.1 -1.1
v 0.4 5.1 -1.1
v 0.6 5.1 -1.1
v -1.1 5.3 1.1
v -0.9 5.3 1.1
v -1.1 5.3 0.7
v -1.1 5.3 0.5
v -1.1 5.3 0.2
v -1.1 5.3 -0.2
v -1.1 5.3 -0.5
v -1.1 5.3 -0.7
v -1.1 5.3 -1.1
v -0.9 5.3 -1.1
v -1.4 5.5 0.2
v -1.1 5.5 0.2
v -1.4 5.5 -0.2
v -1.1 5.5 -0.2
v -1.1 5.6 1.4
v 0.2 5.6 1.4
v -1.1 5.6 1.1
v -0.9 5.6 1.1
v -1.4 5.6 0.7
v -1.1 5.6 0.7
v -1.4 5.6 0.5
v -1.1 5.6 0.5
v -1.4 5.6 -0.5
v -1.1 5.6 -0.5
v -1.4 5.6 -0.7
v -1.1 5.6 -0.7
v -1.1 5.6 -1.1
v -0.9 5.6 -1.1
v -1.1 5.6 -1.4
v 0.2 5.6 -1.4
v -1.8 5.8 0.6
v -1.4 5.8 0.6
v -1.4 5.8 0.5
v -1.4 5.8 -0.5
v -1.8 5.8 -0.6
v -1.4 5.8 -0.6
v -2 6 0.4
v -1.8 6 0.4
v -2 6 0.1
v -1.8 6 0.1
v -2 6 -0.1
v -1.8 6 -0.1
v -2 6 -0.4
v -1.8 6 -0.4
v 0.6 6.3 1.1
v 0.9 6.3 1.1
v 0.6 6.3 0.9
v 0.9 6.3 0.9
v 0.6 6.3 0.8
v 0.9 6.3 0.8
v 0.6 6.3 0.5
v 0.9 6.3 0.5
v 0.6 6.3 0.2
v 0.9 6.3 0.2
v 0.6 6.3 -0.2
v 0.9 6.3 -0.2
v 0.6 6.3 -0.5
v 0.9 6.3 -0.5
v 0.6 6.3 -0.8
v 0.9 6.3 -0.8
v 0.6 6.3 -0.9
v 0.9 6.3 -0.9
v 0.6 6.3 -1.1
v 0.9 6.3 -1.1
v 0.5 3.6 1.3
v 0.7 3.6 1.3
v 0.5 3.6 1.1
v 0.7 3.6 1.1
v 0.5 3.6 -1.1
v 0.7 3.6 -1.1
v 0.5 3.6 -1.3
v 0.7 3.6 -1.3
v 0.4 3.7 1.3
v 0.5 3.7 1.3
v 0.4 3.7 1.1
v 0.5 3.7 1.1
v 0.4 3.7 -1.1
v 0.5 3.7 -1.1
v 0.4 3.7 -1.3
v 0.5 3.7 -1.3
v -0.6 3.9 1.3
v -0.4 3.9 1.3
v -0.6 3.9 1.1
v -0.4 3.9 1.1
v -0.6 3.9 -1.1
v -0.4 3.9 -1.1
v -0.6 3.9 -1.3
v -0.4 3.9 -1.3
v -0.7 4 1.3
v -0.6 4 1.3
v -0.7 4 1.1
v -0.6 4 1.1
v -0.7 4 -1.1
v -0.6 4 -1.1
v -0.7 4 -1.3
v -0.6 4 -1.3
v 0.6 4.2 1.3
v 0.9 4.2 1.3
v 0.6 4.2 1.1
v 0.9 4.2 1.1
v 0.6 4.2 -1.1
v 0.9 4.2 -1.1
v 0.6 4.2 -1.3
v 0.9 4.2 -1.3
v -1.4 4.5 0.7
v -1.1 4.5 0.7
v -1.4 4.5 0.5
v -1.1 4.5 0.5
v -1.4 4.5 -0.5
v -1.1 4.5 -0.5
v -1.4 4.5 -0.7
v -1.1 4.5 -0.7
v -1.4 5 1.3
v -1.1 5 1.3
v -1.4 5 1.1
v -1.1 5 1.1
v -1.4 5 -1.1
v -1.1 5 -1.1
v -1.4 5 -1.3
v -1.1 5 -1.3
v -1.4 5.1 1.4
v -1.1 5.1 1.4
v -1.4 5.1 1.3
v -1.1 5.1 1.3
v -0.9 5.1 1.3
v 2.38419e-07 5.1 1.3
v -1.4 5.1 -1.3
v -1.1 5.1 -1.3
v -0.9 5.1 -1.3
v 2.38419e-07 5.1 -1.3
v -1.4 5.1 -1.4
v -1.1 5.1 -1.4
v -1.1 6.7 1.4
v 0.6 6.7 1.4
v -1.4 6.7 1.1
v -1.1 6.7 1.1
v 0.2 6.7 1.1
v 0.6 6.7 1.1
v 0.9 6.7 1.1
v 0.6 6.7 1
v 0.6 6.7 0.9
v 0.9 6.7 0.9
v 0.6 6.7 0.8
v 0.9 6.7 0.8
v -1.4 6.7 0.7
v -1.1 6.7 0.7
v 0.6 6.7 0.7
v -1.4 6.7 0.6
v -1.3 6.7 0.6
v 0.6 6.7 0.5
v 0.9 6.7 0.5
v -1.1 6.7 0.2
v 0.6 6.7 0.2
v 0.9 6.7 0.2
v 0.6 6.7 0.1
v 0.6 6.7 -0.1
v -1.1 6.7 -0.2
v 0.6 6.7 -0.2
v 0.9 6.7 -0.2
v 0.6 6.7 -0.5
v 0.9 6.7 -0.5
v -1.4 6.7 -0.6
v -1.3 6.7 -0.6
v -1.4 6.7 -0.7
v -1.1 6.7 -0.7
v 0.6 6.7 -0.7
v 0.6 6.7 -0.8
v 0.9 6.7 -0.8
v 0.6 6.7 -0.9
v 0.9 6.7 -0.9
v 0.6 6.7 -1
v -1.4 6.7 -1.1
v -1.1 6.7 -1.1
v 0.2 6.7 -1.1
v 0.6 6.7 -1.1
v 0.9 6.7 -1.1
v -1.1 6.7 -1.4
v 0.6 6.7 -1.4
v -1.1 7 1.1
v 0.6 7 1.1
v -0.0999999 7 1
v 0.6 7 1
v -1.1 7 0.9
v -0.5 7 0.9
v -0.0999999 7 0.9
v 0.2 7 0.9
v 0.2 7 0.8
v 0.6 7 0.8
v -1.1 7 0.7
v -0.5 7 0.7
v -0.3 7 0.7
v 0.6 7 0.7
v -1.8 7 0.6
v -1.3 7 0.6
v -0.7 7 0.6
v -0.3 7 0.6
v -0.7 7 0.5
v 0.6 7 0.5
v -2 7 0.4
v -1.8 7 0.4
v -1.3 7 0.4
v -1.8 7 0.2
v -1.1 7 0.2
v -0.2 7 0.2
v -2 7 0.1
v -1.8 7 0.1
v -0.2 7 0.1
v 0.6 7 0.1
v -2 7 -0.1
v -1.8 7 -0.1
v -0.2 7 -0.1
v 0.6 7 -0.1
v -1.8 7 -0.2
v -1.1 7 -0.2
v -0.2 7 -0.2
v -2 7 -0.4
v -1.8 7 -0.4
v -1.3 7 -0.4
v -0.7 7 -0.5
v 0.6 7 -0.5
v -1.8 7 -0.6
v -1.3 7 -0.6
v -0.7 7 -0.6
v -0.3 7 -0.6
v -1.1 7 -0.7
v -0.5 7 -0.7
v -0.3 7 -0.7
v 0.6 7 -0.7
v 0.2 7 -0.8
v 0.6 7 -0.8
v -1.1 7 -0.9
v -0.5 7 -0.9
v -0.0999999 7 -0.9
v 0.2 7 -0.9
v -0.0999999 7 -1
v 0.6 7 -1
v -1.1 7 -1.1
v 0.6 7 -1.1
v -1.8 7.2 0.4
v -1.3 7.2 0.4
v -1.8 7.2 0.2
v -1.3 7.2 0.2
v -1.8 7.2 -0.2
v -1.3 7.2 -0.2
v -1.8 7.2 -0.4
v -1.3 7.2 -0.4

# faces
f 5/2/1 2/2/1 1/2/1
f 6/1/1 3/1/1 2/1/1
f 6/2/1 2/2/1 5/2/1
f 7/2/1 4/2/1 3/2/1
f 7/1/1 3/1/1 6/1/1
f 8/2/1 4/2/1 7/2/1
f 11/2/1 10/2/1 9/2/1
f 12/2/1 10/2/1 11/2/1
f 13/2/1 10/2/1 12/2/1
f 14/2/1 10/2/1 13/2/1
f 15/2/1 11/2/1 9/2/1
f 16/2/1 11/2/1 15/2/1
f 17/2/1 10/2/1 14/2/1
f 18/2/1 10/2/1 17/2/1
f 19/1/1 16/1/1 15/1/1
f 20/1/1 16/1/1 19/1/1
f 21/1/1 18/1/1 17/1/1
f 22/1/1 18/1/1 21/1/1
f 23/2/1 20/2/1 19/2/1
f 24/2/1 20/2/1 23/2/1
f 25/2/1 22/2/1 21/2/1
f 26/2/1 22/2/1 25/2/1
f 27/1/1 24/1/1 23/1/1
f 28/1/1 24/1/1 27/1/1
f 29/1/1 26/1/1 25/1/1
f 30/1/1 26/1/1 29/1/1
f 31/2/1 28/2/1 27/2/1
f 32/2/1 28/2/1 31/2/1
f 37/2/1 30/2/1 29/2/1
f 38/2/1 30/2/1 37/2/1
f 39/1/1 33/1/1 32/1/1
f 40/2/1 36/2/1 35/2/1
f 40/1/1 33/1/1 39/1/1
f 40/2/1 34/2/1 33/2/1
f 40/2/1 35/2/1 34/2/1
f 41/1/1 37/1/1 36/1/1
f 41/2/1 36/2/1 40/2/1
f 42/1/1 37/1/1 41/1/1
f 47/2/1 44/2/1 43/2/1
f 48/2/1 44/2/1 47/2/1
f 49/2/1 46/2/1 45/2/1
f 50/2/1 46/2/1 49/2/1
f 55/2/1 52/2/1 51/2/1
f 56/2/1 52/2/1 55/2/1
f 57/2/1 54/2/1 53/2/1
f 58/2/1 54/2/1 57/2/1
f 59/2/1 55/2/1 51/2/1
f 60/2/1 55/2/1 59/2/1
f 61/2/1 54/2/1 58/2/1
f 62/2/1 54/2/1 61/2/1
f 63/2/1 44/2/1 48/2/1
f 64/2/1 49/2/1 45/2/1
f 65/2/1 52/2/1 56/2/1
f 66/2/1 64/2/1 63/2/1
f 66/2/1 63/2/1 48/2/1
f 67/2/1 49/2/1 64/2/1
f 67/2/1 64/2/1 66/2/1
f 68/2/1 57/2/1 53/2/1
f 69/1/1 66/1/1 65/1/1
f 70/2/1 67/2/1 66/2/1
f 70/1/1 66/1/1 69/1/1
f 71/1/1 68/1/1 67/1/1
f 71/2/1 67/2/1 70/2/1
f 72/1/1 68/1/1 71/1/1
f 73/1/1 69/1/1 65/1/1
f 74/1/1 68/1/1 72/1/1
f 75/1/1 73/1/1 65/1/1
f 76/1/1 68/1/1 74/1/1
f 77/2/1 65/2/1 56/2/1
f 78/1/1 75/1/1 65/1/1
f 78/2/1 65/2/1 77/2/1
f 79/1/1 75/1/1 78/1/1
f 80/1/1 68/1/1 76/1/1
f 81/2/1 57/2/1 68/2/1
f 81/1/1 68/1/1 80/1/1
f 82/2/1 57/2/1 81/2/1
f 89/2/1 86/2/1 85/2/1
f 90/2/1 86/2/1 89/2/1
f 93/2/1 84/2/1 83/2/1
f 94/2/1 84/2/1 93/2/1
f 95/2/1 88/2/1 87/2/1
f 96/2/1 88/2/1 95/2/1
f 99/2/1 92/2/1 91/2/1
f 100/2/1 92/2/1 99/2/1
f 101/2/1 98/2/1 97/2/1
f 102/2/1 98/2/1 101/2/1
f 103/1/1 100/1/1 99/1/1
f 104/1/1 100/1/1 103/1/1
f 105/1/1 102/1/1 101/1/1
f 106/1/1 102/1/1 105/1/1
f 107/2/1 104/2/1 103/2/1
f 108/2/1 104/2/1 107/2/1
f 113/2/1 106/2/1 105/2/1
f 114/2/1 106/2/1 113/2/1
f 115/1/1 109/1/1 108/1/1
f 116/1/1 109/1/1 115/1/1
f 117/1/1 113/1/1 112/1/1
f 118/1/1 113/1/1 117/1/1
f 119/2/1 116/2/1 115/2/1
f 120/1/1 109/1/1 116/1/1
f 120/2/1 116/2/1 119/2/1
f 121/2/1 110/2/1 109/2/1
f 121/1/1 109/1/1 120/1/1
f 122/1/1 111/1/1 110/1/1
f 122/2/1 110/2/1 121/2/1
f 123/2/1 112/2/1 111/2/1
f 123/1/1 111/1/1 122/1/1
f 124/1/1 117/1/1 112/1/1
f 124/2/1 112/2/1 123/2/1
f 125/2/1 118/2/1 117/2/1
f 125/1/1 117/1/1 124/1/1
f 126/2/1 118/2/1 125/2/1
f 130/2/1 128/2/1 127/2/1
f 131/2/1 128/2/1 130/2/1
f 133/1/1 130/1/1 129/1/1
f 133/1/1 132/1/1 131/1/1
f 133/1/1 131/1/1 130/1/1
f 134/1/1 132/1/1 133/1/1
f 135/2/1 134/2/1 133/2/1
f 136/2/1 134/2/1 135/2/1
f 137/1/1 136/1/1 135/1/1
f 138/1/1 136/1/1 137/1/1
f 143/1/1 140/1/1 139/1/1
f 144/1/1 140/1/1 143/1/1
f 145/1/1 142/1/1 141/1/1
f 146/1/1 142/1/1 145/1/1
f 147/2/1 144/2/1 143/2/1
f 148/2/1 144/2/1 147/2/1
f 149/2/1 146/2/1 145/2/1
f 150/2/1 146/2/1 149/2/1
f 155/2/1 152/2/1 151/2/1
f 156/2/1 152/2/1 155/2/1
f 157/2/1 154/2/1 153/2/1
f 158/2/1 154/2/1 157/2/1
f 163/1/1 160/1/1 159/1/1
f 164/1/1 162/1/1 161/1/1
f 165/1/1 163/1/1 159/1/1
f 165/1/1 164/1/1 163/1/1
f 166/1/1 162/1/1 164/1/1
f 166/1/1 164/1/1 165/1/1
f 171/2/1 168/2/1 167/2/1
f 172/2/1 168/2/1 171/2/1
f 173/2/1 170/2/1 169/2/1
f 174/2/1 170/2/1 173/2/1
f 175/1/1 172/1/1 171/1/1
f 176/1/1 172/1/1 175/1/1
f 177/1/1 174/1/1 173/1/1
f 178/1/1 174/1/1 177/1/1
f 183/1/1 180/1/1 179/1/1
f 184/1/1 180/1/1 183/1/1
f 185/1/1 182/1/1 181/1/1
f 186/1/1 182/1/1 185/1/1
f 191/1/1 188/1/1 187/1/1
f 192/1/1 188/1/1 191/1/1
f 193/1/1 190/1/1 189/1/1
f 194/1/1 190/1/1 193/1/1
f 195/1/2 196/1/2 197/1/2
f 197/1/2 196/1/2 198/1/2
f 198/1/2 196/1/2 199/1/2
f 199/1/2 196/1/2 200/1/2
f 200/1/2 196/1/2 201/1/2
f 201/1/2 196/1/2 202/1/2
f 197/2/2 198/2/2 203/2/2
f 198/1/2 199/1/2 204/1/2
f 203/2/2 198/2/2 204/2/2
f 200/1/2 201/1/2 205/1/2
f 201/2/2 202/2/2 205/2/2
f 205/2/2 202/2/2 206/2/2
f 204/1/2 199/1/2 207/1/2
f 199/2/2 200/2/2 208/2/2
f 207/1/2 199/1/2 208/1/2
f 200/1/2 205/1/2 209/1/2
f 208/2/2 200/2/2 209/2/2
f 209/1/2 205/1/2 210/1/2
f 211/2/2 212/2/2 215/2/2
f 215/2/2 212/2/2 216/2/2
f 213/2/2 214/2/2 217/2/2
f 217/2/2 214/2/2 218/2/2
f 219/2/2 220/2/2 223/2/2
f 223/2/2 220/2/2 224/2/2
f 221/2/2 222/2/2 225/2/2
f 225/2/2 222/2/2 226/2/2
f 219/2/2 223/2/2 227/2/2
f 227/2/2 223/2/2 228/2/2
f 226/2/2 222/2/2 229/2/2
f 229/2/2 222/2/2 230/2/2
f 224/2/2 220/2/2 231/2/2
f 231/2/2 220/2/2 232/2/2
f 216/2/2 212/2/2 233/2/2
f 233/2/2 212/2/2 234/2/2
f 213/2/2 217/2/2 235/2/2
f 235/2/2 217/2/2 236/2/2
f 221/2/2 225/2/2 237/2/2
f 237/2/2 225/2/2 238/2/2
f 239/2/2 240/2/2 241/2/2
f 241/2/2 240/2/2 242/2/2
f 243/2/2 244/2/2 247/2/2
f 247/2/2 244/2/2 248/2/2
f 245/2/2 246/2/2 249/2/2
f 249/2/2 246/2/2 250/2/2
f 251/1/2 252/1/2 255/1/2
f 255/1/2 252/1/2 256/1/2
f 253/1/2 254/1/2 257/1/2
f 257/1/2 254/1/2 258/1/2
f 259/2/2 260/2/2 262/2/2
f 262/2/2 260/2/2 263/2/2
f 261/1/2 262/1/2 265/1/2
f 263/1/2 264/1/2 265/1/2
f 262/1/2 263/1/2 265/1/2
f 265/1/2 264/1/2 266/1/2
f 265/2/2 266/2/2 267/2/2
f 267/2/2 266/2/2 268/2/2
f 267/1/2 268/1/2 269/1/2
f 269/1/2 268/1/2 270/1/2
f 271/1/2 272/1/2 275/1/2
f 275/1/2 272/1/2 276/1/2
f 273/1/2 274/1/2 277/1/2
f 277/1/2 274/1/2 278/1/2
f 279/2/2 280/2/2 284/2/2
f 284/2/2 280/2/2 285/2/2
f 281/2/2 282/2/2 286/2/2
f 286/2/2 282/2/2 287/2/2
f 284/1/2 285/1/2 289/1/2
f 283/1/2 284/1/2 289/1/2
f 289/1/2 285/1/2 290/1/2
f 287/1/2 288/1/2 291/1/2
f 286/1/2 287/1/2 291/1/2
f 291/1/2 288/1/2 292/1/2
f 289/2/2 290/2/2 293/2/2
f 293/2/2 290/2/2 294/2/2
f 291/2/2 292/2/2 295/2/2
f 295/2/2 292/2/2 296/2/2
f 293/1/2 294/1/2 297/1/2
f 289/2/2 293/2/2 297/2/2
f 295/1/2 296/1/2 297/1/2
f 294/1/2 295/1/2 297/1/2
f 296/2/2 292/2/2 298/2/2
f 297/1/2 296/1/2 298/1/2
f 289/2/2 297/2/2 299/2/2
f 297/2/2 298/2/2 299/2/2
f 299/2/2 298/2/2 300/2/2
f 300/2/2 298/2/2 301/2/2
f 301/2/2 298/2/2 302/2/2
f 302/2/2 298/2/2 303/2/2
f 303/2/2 298/2/2 304/2/2
f 304/2/2 298/2/2 305/2/2
f 305/2/2 298/2/2 306/2/2
f 306/2/2 298/2/2 307/2/2
f 307/2/2 298/2/2 308/2/2
f 308/2/2 298/2/2 309/2/2
f 298/2/2 292/2/2 310/2/2
f 309/2/2 298/2/2 310/2/2
f 299/1/2 300/1/2 311/1/2
f 311/1/2 300/1/2 312/1/2
f 309/1/2 310/1/2 313/1/2
f 313/1/2 310/1/2 314/1/2
f 311/2/2 312/2/2 315/2/2
f 315/2/2 312/2/2 316/2/2
f 313/2/2 314/2/2 331/2/2
f 331/2/2 314/2/2 332/2/2
f 316/2/2 317/2/2 333/2/2
f 317/1/2 318/1/2 334/1/2
f 333/2/2 317/2/2 334/2/2
f 318/1/2 319/1/2 334/1/2
f 319/2/2 320/2/2 335/2/2
f 334/1/2 319/1/2 335/1/2
f 320/1/2 321/1/2 336/1/2
f 335/2/2 320/2/2 336/2/2
f 321/2/2 322/2/2 337/2/2
f 336/1/2 321/1/2 337/1/2
f 322/2/2 323/2/2 337/2/2
f 323/1/2 324/1/2 338/1/2
f 337/2/2 323/2/2 338/2/2
f 324/2/2 325/2/2 339/2/2
f 338/1/2 324/1/2 339/1/2
f 325/2/2 326/2/2 339/2/2
f 326/1/2 327/1/2 340/1/2
f 339/2/2 326/2/2 340/2/2
f 327/2/2 328/2/2 341/2/2
f 340/1/2 327/1/2 341/1/2
f 329/1/2 330/1/2 342/1/2
f 341/2/2 328/2/2 342/2/2
f 328/1/2 329/1/2 342/1/2
f 330/2/2 331/2/2 343/2/2
f 342/1/2 330/1/2 343/1/2
f 343/2/2 331/2/2 344/2/2
f 345/2/2 346/2/2 349/2/2
f 349/2/2 346/2/2 350/2/2
f 347/2/2 348/2/2 351/2/2
f 351/2/2 348/2/2 352/2/2
f 353/2/2 354/2/2 363/2/2
f 354/1/2 355/1/2 364/1/2
f 363/2/2 354/2/2 364/2/2
f 355/2/2 356/2/2 365/2/2
f 364/1/2 355/1/2 365/1/2
f 356/1/2 357/1/2 366/1/2
f 365/2/2 356/2/2 366/2/2
f 357/2/2 358/2/2 367/2/2
f 366/1/2 357/1/2 367/1/2
f 358/1/2 359/1/2 368/1/2
f 367/2/2 358/2/2 368/2/2
f 359/2/2 360/2/2 369/2/2
f 368/1/2 359/1/2 369/1/2
f 360/1/2 361/1/2 370/1/2
f 369/2/2 360/2/2 370/2/2
f 361/2/2 362/2/2 371/2/2
f 370/1/2 361/1/2 371/1/2
f 371/2/2 362/2/2 372/2/2
f 375/2/3 374/2/3 373/2/3
f 376/2/3 374/2/3 375/2/3
f 381/2/3 380/2/3 379/2/3
f 382/2/3 380/2/3 381/2/3
f 383/1/3 379/1/3 378/1/3
f 383/2/3 378/2/3 377/2/3
f 384/1/3 379/1/3 383/1/3
f 385/2/3 380/2/3 382/2/3
f 385/1/3 382/1/3 381/1/3
f 386/2/3 380/2/3 385/2/3
f 387/1/3 379/1/3 384/1/3
f 387/2/3 384/2/3 383/2/3
f 388/1/3 379/1/3 387/1/3
f 390/2/3 383/2/3 377/2/3
f 390/2/3 387/2/3 383/2/3
f 390/2/3 388/2/3 387/2/3
f 391/1/3 390/1/3 389/1/3
f 392/2/3 388/2/3 390/2/3
f 392/1/3 390/1/3 391/1/3
f 393/1/3 379/1/3 388/1/3
f 393/2/3 388/2/3 392/2/3
f 394/2/3 381/2/3 379/2/3
f 394/1/3 379/1/3 393/1/3
f 395/1/3 391/1/3 389/1/3
f 396/2/3 393/2/3 392/2/3
f 396/1/3 391/1/3 395/1/3
f 396/2/3 392/2/3 391/2/3
f 396/2/3 394/2/3 393/2/3
f 397/1/3 386/1/3 385/1/3
f 397/2/3 394/2/3 396/2/3
f 397/2/3 381/2/3 394/2/3
f 397/1/3 385/1/3 381/1/3
f 398/2/3 380/2/3 386/2/3
f 398/1/3 386/1/3 397/1/3
f 399/2/3 380/2/3 398/2/3
f 407/2/3 406/2/3 405/2/3
f 408/2/3 406/2/3 407/2/3
f 409/2/3 407/2/3 405/2/3
f 410/1/3 401/1/3 400/1/3
f 411/2/3 409/2/3 405/2/3
f 411/2/3 410/2/3 409/2/3
f 411/1/3 405/1/3 404/1/3
f 412/1/3 401/1/3 410/1/3
f 412/2/3 410/2/3 411/2/3
f 413/1/3 411/1/3 404/1/3
f 413/1/3 412/1/3 411/1/3
f 414/1/3 401/1/3 412/1/3
f 414/1/3 412/1/3 413/1/3
f 415/1/3 401/1/3 414/1/3
f 416/2/3 402/2/3 401/2/3
f 416/1/3 401/1/3 415/1/3
f 417/1/3 403/1/3 402/1/3
f 417/2/3 402/2/3 416/2/3
f 418/1/3 403/1/3 417/1/3
f 424/1/3 421/1/3 420/1/3
f 425/1/3 421/1/3 424/1/3
f 426/1/3 423/1/3 422/1/3
f 427/1/3 423/1/3 426/1/3
f 428/2/3 427/2/3 426/2/3
f 429/2/3 427/2/3 428/2/3
f 430/1/3 424/1/3 420/1/3
f 431/1/3 426/1/3 422/1/3
f 432/2/3 420/2/3 419/2/3
f 432/1/3 431/1/3 430/1/3
f 432/1/3 430/1/3 420/1/3
f 433/1/3 426/1/3 431/1/3
f 433/1/3 431/1/3 432/1/3
f 433/2/3 428/2/3 426/2/3
f 434/2/3 432/2/3 419/2/3
f 434/2/3 433/2/3 432/2/3
f 435/2/3 428/2/3 433/2/3
f 435/2/3 433/2/3 434/2/3
f 438/2/3 437/2/3 436/2/3
f 439/2/3 437/2/3 438/2/3
f 440/2/3 437/2/3 439/2/3
f 441/2/3 437/2/3 440/2/3
f 442/2/3 437/2/3 441/2/3
f 443/2/3 437/2/3 442/2/3
f 446/2/3 440/2/3 439/2/3
f 447/2/3 440/2/3 446/2/3
f 448/1/3 444/1/3 443/1/3
f 449/2/3 445/2/3 444/2/3
f 449/1/3 444/1/3 448/1/3
f 452/2/3 449/2/3 448/2/3
f 453/2/3 445/2/3 449/2/3
f 453/2/3 449/2/3 452/2/3
f 454/2/3 451/2/3 450/2/3
f 454/2/3 452/2/3 451/2/3
f 455/2/3 452/2/3 454/2/3
f 458/2/3 457/2/3 456/2/3
f 459/2/3 457/2/3 458/2/3
f 462/2/3 461/2/3 460/2/3
f 463/2/3 461/2/3 462/2/3
f 470/2/3 465/2/3 464/2/3
f 471/1/3 466/1/3 465/1/3
f 471/2/3 465/2/3 470/2/3
f 472/2/3 467/2/3 466/2/3
f 472/1/3 466/1/3 471/1/3
f 473/1/3 468/1/3 467/1/3
f 473/2/3 467/2/3 472/2/3
f 474/1/3 468/1/3 473/1/3
f 475/2/3 469/2/3 468/2/3
f 475/1/3 468/1/3 474/1/3
f 476/2/3 469/2/3 475/2/3
f 479/2/3 478/2/3 477/2/3
f 480/2/3 478/2/3 479/2/3
f 481/2/3 478/2/3 480/2/3
f 484/2/3 483/2/3 482/2/3
f 485/2/3 483/2/3 484/2/3
f 486/2/3 483/2/3 485/2/3
f 487/2/3 483/2/3 486/2/3
f 488/2/3 483/2/3 487/2/3
f 489/2/3 483/2/3 488/2/3
f 491/1/3 490/1/3 489/1/3
f 492/1/3 490/1/3 491/1/3
f 495/2/3 494/2/3 493/2/3
f 496/2/3 494/2/3 495/2/3
f 497/2/3 494/2/3 496/2/3
f 500/2/3 499/2/3 498/2/3
f 501/2/3 499/2/3 500/2/3
f 502/2/3 499/2/3 501/2/3
f 506/2/3 505/2/3 504/2/3
f 507/2/3 505/2/3 506/2/3
f 508/2/3 506/2/3 504/2/3
f 510/1/3 504/1/3 503/1/3
f 510/2/3 509/2/3 508/2/3
f 510/2/3 508/2/3 504/2/3
f 511/2/3 509/2/3 510/2/3
f 512/1/3 510/1/3 503/1/3
f 512/1/3 511/1/3 510/1/3
f 513/1/3 511/1/3 512/1/3
f 520/1/3 515/1/3 514/1/3
f 521/1/3 515/1/3 520/1/3
f 522/1/3 515/1/3 521/1/3
f 523/1/3 518/1/3 517/1/3
f 524/1/3 518/1/3 523/1/3
f 525/1/3 520/1/3 519/1/3
f 525/1/3 521/1/3 520/1/3
f 526/1/3 521/1/3 525/1/3
f 527/2/3 526/2/3 525/2/3
f 528/1/3 521/1/3 526/1/3
f 528/2/3 526/2/3 527/2/3
f 529/2/3 522/2/3 521/2/3
f 529/1/3 521/1/3 528/1/3
f 530/2/3 522/2/3 529/2/3
f 531/1/3 523/1/3 517/1/3
f 532/1/3 525/1/3 519/1/3
f 533/2/3 517/2/3 516/2/3
f 533/1/3 532/1/3 531/1/3
f 533/1/3 531/1/3 517/1/3
f 534/1/3 525/1/3 532/1/3
f 534/1/3 532/1/3 533/1/3
f 534/2/3 527/2/3 525/2/3
f 535/2/3 533/2/3 516/2/3
f 535/2/3 534/2/3 533/2/3
f 536/2/3 527/2/3 534/2/3
f 536/2/3 534/2/3 535/2/3
f 539/2/3 538/2/3 537/2/3
f 540/2/3 538/2/3 539/2/3
f 541/2/4 542/2/4 543/2/4
f 543/2/4 542/2/4 544/2/4
f 546/2/4 547/2/4 548/2/4
f 548/2/4 547/2/4 549/2/4
f 546/2/4 548/2/4 550/2/4
f 545/1/4 546/1/4 552/1/4
f 550/2/4 551/2/4 552/2/4
f 546/2/4 550/2/4 552/2/4
f 552/2/4 551/2/4 553/2/4
f 545/1/4 552/1/4 554/1/4
f 552/1/4 553/1/4 554/1/4
f 554/1/4 553/1/4 555/1/4
f 556/1/4 557/1/4 562/1/4
f 562/1/4 557/1/4 563/1/4
f 563/1/4 557/1/4 564/1/4
f 559/1/4 560/1/4 565/1/4
f 565/1/4 560/1/4 566/1/4
f 561/1/4 562/1/4 567/1/4
f 562/1/4 563/1/4 567/1/4
f 567/1/4 563/1/4 568/1/4
f 567/2/4 568/2/4 569/2/4
f 568/1/4 563/1/4 570/1/4
f 569/2/4 568/2/4 570/2/4
f 563/2/4 564/2/4 571/2/4
f 570/1/4 563/1/4 571/1/4
f 571/2/4 564/2/4 572/2/4
f 559/1/4 565/1/4 573/1/4
f 561/1/4 567/1/4 574/1/4
f 558/2/4 559/2/4 575/2/4
f 573/1/4 574/1/4 575/1/4
f 559/1/4 573/1/4 575/1/4
f 574/1/4 567/1/4 576/1/4
f 575/1/4 574/1/4 576/1/4
f 567/2/4 569/2/4 576/2/4
f 558/2/4 575/2/4 577/2/4
f 575/2/4 576/2/4 577/2/4
f 576/2/4 569/2/4 578/2/4
f 577/2/4 576/2/4 578/2/4
f 579/2/4 580/2/4 581/2/4
f 581/2/4 580/2/4 582/2/4
f 582/2/4 580/2/4 583/2/4
f 584/2/4 585/2/4 586/2/4
f 586/2/4 585/2/4 587/2/4
f 587/2/4 585/2/4 588/2/4
f 589/2/4 590/2/4 591/2/4
f 591/2/4 590/2/4 592/2/4
f 592/2/4 590/2/4 593/2/4
f 593/2/4 590/2/4 594/2/4
f 594/2/4 590/2/4 595/2/4
f 595/2/4 590/2/4 596/2/4
f 596/1/4 597/1/4 598/1/4
f 598/1/4 597/1/4 599/1/4
f 600/2/4 601/2/4 602/2/4
f 602/2/4 601/2/4 603/2/4
f 603/2/4 601/2/4 604/2/4
f 605/2/4 606/2/4 611/2/4
f 606/1/4 607/1/4 612/1/4
f 611/2/4 606/2/4 612/2/4
f 607/2/4 608/2/4 613/2/4
f 612/1/4 607/1/4 613/1/4
f 608/1/4 609/1/4 614/1/4
f 613/2/4 608/2/4 614/2/4
f 614/1/4 609/1/4 615/1/4
f 609/2/4 610/2/4 616/2/4
f 615/1/4 609/1/4 616/1/4
f 616/2/4 610/2/4 617/2/4
f 618/2/4 619/2/4 620/2/4
f 620/2/4 619/2/4 621/2/4
f 622/2/4 623/2/4 624/2/4
f 624/2/4 623/2/4 625/2/4
f 626/2/4 627/2/4 628/2/4
f 628/2/4 627/2/4 629/2/4
f 629/2/4 627/2/4 630/2/4
f 630/2/4 627/2/4 631/2/4
f 631/2/4 627/2/4 632/2/4
f 632/2/4 627/2/4 633/2/4
f 629/2/4 630/2/4 636/2/4
f 636/2/4 630/2/4 637/2/4
f 633/1/4 634/1/4 638/1/4
f 634/2/4 635/2/4 639/2/4
f 638/1/4 634/1/4 639/1/4
f 638/2/4 639/2/4 642/2/4
f 639/2/4 635/2/4 643/2/4
f 642/2/4 639/2/4 643/2/4
f 640/2/4 641/2/4 644/2/4
f 641/2/4 642/2/4 644/2/4
f 644/2/4 642/2/4 645/2/4
f 651/2/4 652/2/4 653/2/4
f 653/2/4 652/2/4 654/2/4
f 651/2/4 653/2/4 655/2/4
f 646/1/4 647/1/4 656/1/4
f 651/2/4 655/2/4 657/2/4
f 655/2/4 656/2/4 657/2/4
f 650/1/4 651/1/4 657/1/4
f 656/1/4 647/1/4 658/1/4
f 657/2/4 656/2/4 658/2/4
f 650/1/4 657/1/4 659/1/4
f 657/1/4 658/1/4 659/1/4
f 658/1/4 647/1/4 660/1/4
f 659/1/4 658/1/4 660/1/4
f 660/1/4 647/1/4 661/1/4
f 647/2/4 648/2/4 662/2/4
f 661/1/4 647/1/4 662/1/4
f 648/1/4 649/1/4 663/1/4
f 662/2/4 648/2/4 663/2/4
f 663/1/4 649/1/4 664/1/4
f 666/1/4 667/1/4 670/1/4
f 670/1/4 667/1/4 671/1/4
f 668/1/4 669/1/4 672/1/4
f 672/1/4 669/1/4 673/1/4
f 672/2/4 673/2/4 674/2/4
f 674/2/4 673/2/4 675/2/4
f 666/1/4 670/1/4 676/1/4
f 668/1/4 672/1/4 677/1/4
f 665/2/4 666/2/4 678/2/4
f 676/1/4 677/1/4 678/1/4
f 666/1/4 676/1/4 678/1/4
f 677/1/4 672/1/4 679/1/4
f 678/1/4 677/1/4 679/1/4
f 672/2/4 674/2/4 679/2/4
f 665/2/4 678/2/4 680/2/4
f 678/2/4 679/2/4 680/2/4
f 679/2/4 674/2/4 681/2/4
f 680/2/4 679/2/4 681/2/4
f 682/2/4 683/2/4 684/2/4
f 684/2/4 683/2/4 685/2/4
f 688/2/4 689/2/4 690/2/4
f 690/2/4 689/2/4 691/2/4
f 687/1/4 688/1/4 692/1/4
f 686/2/4 687/2/4 692/2/4
f 692/1/4 688/1/4 693/1/4
f 691/2/4 689/2/4 694/2/4
f 690/1/4 691/1/4 694/1/4
f 694/2/4 689/2/4 695/2/4
f 693/1/4 688/1/4 696/1/4
f 692/2/4 693/2/4 696/2/4
f 696/1/4 688/1/4 697/1/4
f 686/2/4 692/2/4 699/2/4
f 692/2/4 696/2/4 699/2/4
f 696/2/4 697/2/4 699/2/4
f 698/1/4 699/1/4 700/1/4
f 699/2/4 697/2/4 701/2/4
f 700/1/4 699/1/4 701/1/4
f 697/1/4 688/1/4 702/1/4
f 701/2/4 697/2/4 702/2/4
f 688/2/4 690/2/4 703/2/4
f 702/1/4 688/1/4 703/1/4
f 698/1/4 700/1/4 704/1/4
f 701/2/4 702/2/4 705/2/4
f 704/1/4 700/1/4 705/1/4
f 700/2/4 701/2/4 705/2/4
f 702/2/4 703/2/4 705/2/4
f 694/1/4 695/1/4 706/1/4
f 705/2/4 703/2/4 706/2/4
f 703/2/4 690/2/4 706/2/4
f 690/1/4 694/1/4 706/1/4
f 695/2/4 689/2/4 707/2/4
f 706/1/4 695/1/4 707/1/4
f 707/2/4 689/2/4 708/2/4
f 711/2/5 710/2/5 709/2/5
f 712/2/5 710/2/5 711/2/5
f 715/2/5 714/2/5 713/2/5
f 716/2/5 714/2/5 715/2/5
f 719/1/5 718/1/5 717/1/5
f 720/1/5 718/1/5 719/1/5
f 723/1/5 722/1/5 721/1/5
f 724/1/5 722/1/5 723/1/5
f 727/1/5 726/1/5 725/1/5
f 728/1/5 726/1/5 727/1/5
f 731/1/5 730/1/5 729/1/5
f 732/1/5 730/1/5 731/1/5
f 735/2/5 734/2/5 733/2/5
f 736/2/5 734/2/5 735/2/5
f 741/1/5 738/1/5 737/1/5
f 743/1/5 740/1/5 739/1/5
f 744/1/5 742/1/5 741/1/5
f 744/1/5 743/1/5 742/1/5
f 744/1/5 741/1/5 737/1/5
f 745/1/5 740/1/5 743/1/5
f 745/1/5 743/1/5 744/1/5
f 748/2/5 747/2/5 746/2/5
f 749/2/5 747/2/5 748/2/5
f 752/2/5 751/2/5 750/2/5
f 753/2/5 751/2/5 752/2/5
f 756/1/5 755/1/5 754/1/5
f 757/1/5 755/1/5 756/1/5
f 758/1/5 755/1/5 757/1/5
f 759/1/5 756/1/5 754/1/5
f 760/1/5 756/1/5 759/1/5
f 761/1/5 755/1/5 758/1/5
f 762/1/5 755/1/5 761/1/5
f 765/2/5 764/2/5 763/2/5
f 766/2/5 764/2/5 765/2/5
f 769/2/5 768/2/5 767/2/5
f 770/2/5 768/2/5 769/2/5
f 773/1/5 772/1/5 771/1/5
f 774/1/5 772/1/5 773/1/5
f 775/1/5 772/1/5 774/1/5
f 776/1/5 773/1/5 771/1/5
f 777/1/5 773/1/5 776/1/5
f 780/1/5 779/1/5 778/1/5
f 783/1/5 780/1/5 778/1/5
f 783/1/5 782/1/5 781/1/5
f 783/1/5 781/1/5 780/1/5
f 784/1/5 782/1/5 783/1/5
f 788/1/5 786/1/5 785/1/5
f 788/1/5 787/1/5 786/1/5
f 789/1/5 787/1/5 788/1/5
f 790/1/5 787/1/5 789/1/5
f 793/2/5 792/2/5 791/2/5
f 794/2/5 792/2/5 793/2/5
f 795/2/5 792/2/5 794/2/5
f 796/2/5 792/2/5 795/2/5
f 797/2/5 792/2/5 796/2/5
f 798/2/5 792/2/5 797/2/5
f 799/2/5 792/2/5 798/2/5
f 800/2/5 792/2/5 799/2/5
f 803/2/5 802/2/5 801/2/5
f 804/2/5 802/2/5 803/2/5
f 807/2/5 806/2/5 805/2/5
f 808/2/5 806/2/5 807/2/5
f 811/1/5 810/1/5 809/1/5
f 812/1/5 810/1/5 811/1/5
f 815/1/5 814/1/5 813/1/5
f 816/1/5 814/1/5 815/1/5
f 818/2/5 806/2/5 808/2/5
f 819/2/5 818/2/5 817/2/5
f 820/2/5 806/2/5 818/2/5
f 820/2/5 818/2/5 819/2/5
f 823/2/5 822/2/5 821/2/5
f 824/2/5 823/2/5 821/2/5
f 825/2/5 824/2/5 821/2/5
f 826/2/5 824/2/5 825/2/5
f 829/2/5 828/2/5 827/2/5
f 830/2/5 828/2/5 829/2/5
f 831/1/5 830/1/5 829/1/5
f 832/1/5 830/1/5 831/1/5
f 833/2/5 832/2/5 831/2/5
f 834/2/5 832/2/5 833/2/5
f 837/2/5 836/2/5 835/2/5
f 838/2/5 836/2/5 837/2/5
f 839/1/5 838/1/5 837/1/5
f 840/1/5 838/1/5 839/1/5
f 841/2/5 840/2/5 839/2/5
f 842/2/5 840/2/5 841/2/5
f 843/1/5 842/1/5 841/1/5
f 844/1/5 842/1/5 843/1/5
f 845/2/5 844/2/5 843/2/5
f 846/2/5 844/2/5 845/2/5
f 847/1/5 846/1/5 845/1/5
f 848/1/5 846/1/5 847/1/5
f 849/2/5 848/2/5 847/2/5
f 850/2/5 848/2/5 849/2/5
f 851/1/5 850/1/5 849/1/5
f 852/1/5 850/1/5 851/1/5
f 853/2/5 852/2/5 851/2/5
f 854/2/5 852/2/5 853/2/5
f 855/1/6 856/1/6 857/1/6
f 857/1/6 856/1/6 858/1/6
f 859/1/6 860/1/6 861/1/6
f 861/1/6 860/1/6 862/1/6
f 863/1/6 864/1/6 865/1/6
f 865/1/6 864/1/6 866/1/6
f 867/1/6 868/1/6 869/1/6
f 869/1/6 868/1/6 870/1/6
f 871/2/6 872/2/6 873/2/6
f 873/2/6 872/2/6 874/2/6
f 875/2/6 876/2/6 877/2/6
f 877/2/6 876/2/6 878/2/6
f 879/2/6 880/2/6 881/2/6
f 881/2/6 880/2/6 882/2/6
f 883/2/6 884/2/6 885/2/6
f 885/2/6 884/2/6 886/2/6
f 887/2/6 888/2/6 889/2/6
f 889/2/6 888/2/6 890/2/6
f 891/2/6 892/2/6 893/2/6
f 893/2/6 892/2/6 894/2/6
f 895/2/6 896/2/6 897/2/6
f 897/2/6 896/2/6 898/2/6
f 899/2/6 900/2/6 901/2/6
f 901/2/6 900/2/6 902/2/6
f 903/2/6 904/2/6 905/2/6
f 905/2/6 904/2/6 906/2/6
f 907/2/6 908/2/6 909/2/6
f 909/2/6 908/2/6 910/2/6
f 911/2/6 912/2/6 913/2/6
f 913/2/6 912/2/6 914/2/6
f 915/1/6 916/1/6 919/1/6
f 919/1/6 916/1/6 920/1/6
f 917/2/6 918/2/6 921/2/6
f 921/2/6 918/2/6 922/2/6
f 923/2/6 924/2/6 926/2/6
f 926/2/6 924/2/6 927/2/6
f 927/2/6 924/2/6 928/2/6
f 928/2/6 929/2/6 930/2/6
f 930/2/6 929/2/6 931/2/6
f 931/2/6 929/2/6 932/2/6
f 931/1/6 932/1/6 933/1/6
f 933/1/6 932/1/6 934/1/6
f 925/2/6 926/2/6 935/2/6
f 935/2/6 926/2/6 936/2/6
f 933/2/6 934/2/6 937/2/6
f 935/1/6 936/1/6 938/1/6
f 938/1/6 936/1/6 939/1/6
f 937/2/6 934/2/6 940/2/6
f 940/2/6 934/2/6 941/2/6
f 939/1/6 936/1/6 942/1/6
f 940/1/6 941/1/6 943/1/6
f 943/1/6 941/1/6 944/1/6
f 943/2/6 944/2/6 945/2/6
f 945/2/6 944/2/6 946/2/6
f 939/1/6 942/1/6 947/1/6
f 946/2/6 944/2/6 948/2/6
f 948/2/6 944/2/6 949/2/6
f 948/1/6 949/1/6 950/1/6
f 950/1/6 949/1/6 951/1/6
f 939/1/6 947/1/6 953/1/6
f 952/1/6 953/1/6 954/1/6
f 953/1/6 947/1/6 955/1/6
f 954/1/6 953/1/6 955/1/6
f 950/2/6 951/2/6 956/2/6
f 956/2/6 951/2/6 957/2/6
f 957/2/6 951/2/6 958/2/6
f 957/1/6 958/1/6 959/1/6
f 959/1/6 958/1/6 960/1/6
f 959/2/6 960/2/6 961/2/6
f 954/2/6 955/2/6 962/2/6
f 962/2/6 955/2/6 963/2/6
f 961/2/6 960/2/6 965/2/6
f 965/2/6 960/2/6 966/2/6
f 963/2/6 964/2/6 967/2/6
f 964/2/6 965/2/6 967/2/6
f 967/2/6 965/2/6 968/2/6
f 969/2/6 970/2/6 971/2/6
f 971/2/6 970/2/6 972/2/6
f 969/2/6 971/2/6 973/2/6
f 973/2/6 971/2/6 974/2/6
f 971/1/6 972/1/6 975/1/6
f 974/2/6 971/2/6 975/2/6
f 975/1/6 972/1/6 976/1/6
f 974/2/6 975/2/6 977/2/6
f 976/1/6 972/1/6 977/1/6
f 975/2/6 976/2/6 977/2/6
f 977/1/6 972/1/6 978/1/6
f 973/1/6 974/1/6 979/1/6
f 974/2/6 977/2/6 980/2/6
f 979/1/6 974/1/6 980/1/6
f 977/2/6 978/2/6 980/2/6
f 980/2/6 978/2/6 981/2/6
f 981/2/6 978/2/6 982/2/6
f 979/2/6 980/2/6 985/2/6
f 980/2/6 981/2/6 985/2/6
f 981/1/6 982/1/6 986/1/6
f 985/2/6 981/2/6 986/2/6
f 979/2/6 985/2/6 987/2/6
f 985/1/6 986/1/6 987/1/6
f 986/1/6 982/1/6 988/1/6
f 987/1/6 986/1/6 988/1/6
f 983/2/6 984/2/6 990/2/6
f 990/2/6 984/2/6 991/2/6
f 989/2/6 990/2/6 992/2/6
f 979/2/6 987/2/6 993/2/6
f 987/2/6 988/2/6 993/2/6
f 993/2/6 988/2/6 994/2/6
f 989/2/6 992/2/6 995/2/6
f 995/2/6 992/2/6 996/2/6
f 994/2/6 988/2/6 997/2/6
f 993/1/6 994/1/6 997/1/6
f 997/2/6 988/2/6 998/2/6
f 995/1/6 996/1/6 999/1/6
f 999/1/6 996/1/6 1000/1/6
f 993/1/6 997/1/6 1001/1/6
f 997/1/6 998/1/6 1001/1/6
f 1001/1/6 998/1/6 1002/1/6
f 999/2/6 1000/2/6 1003/2/6
f 993/1/6 1001/1/6 1004/1/6
f 1001/2/6 1002/2/6 1005/2/6
f 1004/1/6 1001/1/6 1005/1/6
f 999/2/6 1003/2/6 1006/2/6
f 1006/2/6 1003/2/6 1007/2/6
f 1004/2/6 1005/2/6 1009/2/6
f 1005/2/6 1002/2/6 1010/2/6
f 1009/2/6 1005/2/6 1010/2/6
f 1007/2/6 1008/2/6 1011/2/6
f 1011/2/6 1008/2/6 1012/2/6
f 1004/2/6 1009/2/6 1013/2/6
f 1009/1/6 1010/1/6 1013/1/6
f 1013/1/6 1010/1/6 1014/1/6
f 1004/2/6 1013/2/6 1015/2/6
f 1013/2/6 1014/2/6 1015/2/6
f 1015/2/6 1014/2/6 1016/2/6
f 1014/1/6 1010/1/6 1017/1/6
f 1016/2/6 1014/2/6 1017/2/6
f 1017/1/6 1010/1/6 1018/1/6
f 1016/2/6 1017/2/6 1019/2/6
f 1017/2/6 1018/2/6 1019/2/6
f 1019/2/6 1018/2/6 1020/2/6
f 1015/1/6 1016/1/6 1021/1/6
f 1016/2/6 1019/2/6 1022/2/6
f 1021/1/6 1016/1/6 1022/1/6
f 1022/2/6 1019/2/6 1023/2/6
f 1019/1/6 1020/1/6 1024/1/6
f 1023/2/6 1019/2/6 1024/2/6
f 1022/2/6 1023/2/6 1025/2/6
f 1021/2/6 1022/2/6 1025/2/6
f 1023/1/6 1024/1/6 1025/1/6
f 1024/1/6 1020/1/6 1026/1/6
f 1025/1/6 1024/1/6 1026/1/6
f 1021/2/6 1025/2/6 1027/2/6
f 1025/2/6 1026/2/6 1027/2/6
f 1027/2/6 1026/2/6 1028/2/6
f 1029/1/6 1030/1/6 1031/1/6
f 1031/1/6 1030/1/6 1032/1/6
f 1031/2/6 1032/2/6 1033/2/6
f 1033/2/6 1032/2/6 1034/2/6
f 1033/1/6 1034/1/6 1035/1/6
f 1035/1/6 1034/1/6 1036/1/6
