# MagicaVoxel @ Ephtracy

# group
o 

# material
mtllib model-0.mtl
usemtl palette

# normals
vn -1 0 0
vn 1 0 0
vn 0 0 1
vn 0 0 -1
vn 0 -1 0
vn 0 1 0

# texcoords
vt 0.376953 0.5
vt 0.380859 0.5

# verts
v -0.9 5.1 1.3
v -0.9 5.1 -1.3
v -0.9 5.4 1.3
v -0.9 5.4 1.1
v -0.9 5.4 -1.1
v -0.9 5.4 -1.3
v -0.9 5.6 1.3
v -0.9 5.6 1.1
v -0.9 5.6 -1.1
v -0.9 5.6 -1.3
v 0.6 5.7 1.2
v 0.6 5.7 -1.2
v 0.6 5.9 1.2
v 0.6 5.9 -1.2
v 0.6 6 1.2
v 0.6 6 0.5
v 0.6 6 -0.5
v 0.6 6 -1.2
v 0.6 6.1 1.2
v 0.6 6.1 0.5
v 0.6 6.1 -0.5
v 0.6 6.1 -1.2
v 0.6 6.3 1.2
v 0.6 6.3 -1.2
v 0.2 5.1 1.3
v 0.2 5.1 -1.3
v 0.2 5.2 1.3
v 0.2 5.2 1.2
v 0.2 5.2 -1.2
v 0.2 5.2 -1.3
v 0.2 5.3 1.3
v 0.2 5.3 1.2
v 0.2 5.3 -1.2
v 0.2 5.3 -1.3
v 0.2 5.4 1.3
v 0.2 5.4 1.2
v 0.2 5.4 -1.2
v 0.2 5.4 -1.3
v 0.2 5.6 1.3
v 0.2 5.6 1.2
v 0.2 5.6 -1.2
v 0.2 5.6 -1.3
v 1 5.7 1.2
v 1 5.7 -1.2
v 1 5.9 1.2
v 1 5.9 -1.2
v 1 6 1.2
v 1 6 0.5
v 1 6 -0.5
v 1 6 -1.2
v 1 6.1 1.2
v 1 6.1 0.5
v 1 6.1 -0.5
v 1 6.1 -1.2
v 1 6.3 1.2
v 1 6.3 -1.2
v -0.9 5.1 1.3
v -0.9 5.4 1.3
v -0.9 5.6 1.3
v -0.4 5.2 1.3
v -0.4 5.3 1.3
v 0.2 5.1 1.3
v 0.2 5.2 1.3
v 0.2 5.3 1.3
v 0.2 5.4 1.3
v 0.2 5.6 1.3
v 0.6 5.7 1.2
v 0.6 5.9 1.2
v 0.6 6 1.2
v 0.6 6.1 1.2
v 0.6 6.3 1.2
v 1 5.7 1.2
v 1 5.9 1.2
v 1 6 1.2
v 1 6.1 1.2
v 1 6.3 1.2
v 0.6 5.7 -1.2
v 0.6 5.9 -1.2
v 0.6 6 -1.2
v 0.6 6.1 -1.2
v 0.6 6.3 -1.2
v 1 5.7 -1.2
v 1 5.9 -1.2
v 1 6 -1.2
v 1 6.1 -1.2
v 1 6.3 -1.2
v -0.9 5.1 -1.3
v -0.9 5.4 -1.3
v -0.9 5.6 -1.3
v -0.4 5.2 -1.3
v -0.4 5.3 -1.3
v 0.2 5.1 -1.3
v 0.2 5.2 -1.3
v 0.2 5.3 -1.3
v 0.2 5.4 -1.3
v 0.2 5.6 -1.3
v -0.9 5.1 1.3
v 0.2 5.1 1.3
v -0.9 5.1 -1.3
v 0.2 5.1 -1.3
v 0.6 5.7 1.2
v 1 5.7 1.2
v 0.6 5.7 -1.2
v 1 5.7 -1.2
v -0.9 5.6 1.3
v 0.2 5.6 1.3
v -0.8 5.6 1.2
v 0.2 5.6 1.2
v -0.9 5.6 1.1
v -0.8 5.6 1.1
v -0.9 5.6 -1.1
v -0.8 5.6 -1.1
v -0.8 5.6 -1.2
v 0.2 5.6 -1.2
v -0.9 5.6 -1.3
v 0.2 5.6 -1.3
v 0.6 6.3 1.2
v 1 6.3 1.2
v 0.6 6.3 -1.2
v 1 6.3 -1.2

# faces
f 3/2/1 2/2/1 1/2/1
f 4/2/1 2/2/1 3/2/1
f 5/2/1 2/2/1 4/2/1
f 6/2/1 2/2/1 5/2/1
f 7/1/1 4/1/1 3/1/1
f 8/2/1 5/2/1 4/2/1
f 8/1/1 4/1/1 7/1/1
f 9/1/1 6/1/1 5/1/1
f 9/2/1 5/2/1 8/2/1
f 10/1/1 6/1/1 9/1/1
f 13/1/1 12/1/1 11/1/1
f 14/1/1 12/1/1 13/1/1
f 15/2/1 14/2/1 13/2/1
f 16/2/1 14/2/1 15/2/1
f 17/2/1 14/2/1 16/2/1
f 18/2/1 14/2/1 17/2/1
f 19/1/1 16/1/1 15/1/1
f 20/2/1 17/2/1 16/2/1
f 20/1/1 16/1/1 19/1/1
f 21/1/1 18/1/1 17/1/1
f 21/2/1 17/2/1 20/2/1
f 22/1/1 18/1/1 21/1/1
f 23/2/1 20/2/1 19/2/1
f 23/2/1 21/2/1 20/2/1
f 23/2/1 22/2/1 21/2/1
f 24/2/1 22/2/1 23/2/1
f 25/2/2 26/2/2 27/2/2
f 27/2/2 26/2/2 28/2/2
f 28/2/2 26/2/2 29/2/2
f 29/2/2 26/2/2 30/2/2
f 27/1/2 28/1/2 31/1/2
f 28/2/2 29/2/2 32/2/2
f 31/1/2 28/1/2 32/1/2
f 29/1/2 30/1/2 33/1/2
f 32/2/2 29/2/2 33/2/2
f 33/1/2 30/1/2 34/1/2
f 31/2/2 32/2/2 35/2/2
f 32/2/2 33/2/2 35/2/2
f 33/2/2 34/2/2 35/2/2
f 35/2/2 34/2/2 36/2/2
f 36/2/2 34/2/2 37/2/2
f 37/2/2 34/2/2 38/2/2
f 35/1/2 36/1/2 39/1/2
f 36/2/2 37/2/2 40/2/2
f 39/1/2 36/1/2 40/1/2
f 37/1/2 38/1/2 41/1/2
f 40/2/2 37/2/2 41/2/2
f 41/1/2 38/1/2 42/1/2
f 43/1/2 44/1/2 45/1/2
f 45/1/2 44/1/2 46/1/2
f 45/2/2 46/2/2 47/2/2
f 47/2/2 46/2/2 48/2/2
f 48/2/2 46/2/2 49/2/2
f 49/2/2 46/2/2 50/2/2
f 47/1/2 48/1/2 51/1/2
f 48/2/2 49/2/2 52/2/2
f 51/1/2 48/1/2 52/1/2
f 49/1/2 50/1/2 53/1/2
f 52/2/2 49/2/2 53/2/2
f 53/1/2 50/1/2 54/1/2
f 51/2/2 52/2/2 55/2/2
f 52/2/2 53/2/2 55/2/2
f 53/2/2 54/2/2 55/2/2
f 55/2/2 54/2/2 56/2/2
f 60/2/3 58/2/3 57/2/3
f 61/2/3 58/2/3 60/2/3
f 62/2/3 60/2/3 57/2/3
f 63/1/3 61/1/3 60/1/3
f 63/2/3 60/2/3 62/2/3
f 64/2/3 58/2/3 61/2/3
f 64/1/3 61/1/3 63/1/3
f 65/1/3 59/1/3 58/1/3
f 65/2/3 58/2/3 64/2/3
f 66/1/3 59/1/3 65/1/3
f 72/1/3 68/1/3 67/1/3
f 73/2/3 69/2/3 68/2/3
f 73/1/3 68/1/3 72/1/3
f 74/1/3 70/1/3 69/1/3
f 74/2/3 69/2/3 73/2/3
f 75/2/3 71/2/3 70/2/3
f 75/1/3 70/1/3 74/1/3
f 76/2/3 71/2/3 75/2/3
f 77/1/4 78/1/4 82/1/4
f 78/2/4 79/2/4 83/2/4
f 82/1/4 78/1/4 83/1/4
f 79/1/4 80/1/4 84/1/4
f 83/2/4 79/2/4 84/2/4
f 80/2/4 81/2/4 85/2/4
f 84/1/4 80/1/4 85/1/4
f 85/2/4 81/2/4 86/2/4
f 87/2/4 88/2/4 90/2/4
f 90/2/4 88/2/4 91/2/4
f 87/2/4 90/2/4 92/2/4
f 90/1/4 91/1/4 93/1/4
f 92/2/4 90/2/4 93/2/4
f 91/2/4 88/2/4 94/2/4
f 93/1/4 91/1/4 94/1/4
f 88/1/4 89/1/4 95/1/4
f 94/2/4 88/2/4 95/2/4
f 95/1/4 89/1/4 96/1/4
f 99/2/5 98/2/5 97/2/5
f 100/2/5 98/2/5 99/2/5
f 103/1/5 102/1/5 101/1/5
f 104/1/5 102/1/5 103/1/5
f 105/1/6 106/1/6 107/1/6
f 107/1/6 106/1/6 108/1/6
f 105/1/6 107/1/6 109/1/6
f 107/2/6 108/2/6 110/2/6
f 109/1/6 107/1/6 110/1/6
f 109/2/6 110/2/6 111/2/6
f 110/2/6 108/2/6 112/2/6
f 111/2/6 110/2/6 112/2/6
f 111/1/6 112/1/6 113/1/6
f 112/2/6 108/2/6 113/2/6
f 113/2/6 108/2/6 114/2/6
f 111/1/6 113/1/6 115/1/6
f 113/1/6 114/1/6 115/1/6
f 115/1/6 114/1/6 116/1/6
f 117/2/6 118/2/6 119/2/6
f 119/2/6 118/2/6 120/2/6
