# MagicaVoxel @ Ephtracy

# group
o 

# material
mtllib model.mtl
usemtl palette

# normals
vn 0 0 1
vn 0 0 -1
vn 1 0 0
vn -1 0 0
vn 0 -1 0
vn 0 1 0

# texcoords
vt 0.0136719 0.5
vt 0.283203 0.5
vt 0.388672 0.5
vt 0.482422 0.5
vt 0.509766 0.5
vt 0.572266 0.5

# verts
v 0.2 1.9 1.6
v -0.2 1.9 1.6
v 0.2 2 1.6
v -0.2 2 1.6
v 1 0 1.4
v 0 0 1.4
v -1 0 1.4
v 1 0.4 1.4
v 0 0.4 1.4
v -1 0.4 1.4
v 0.3 1.9 1.4
v 0.2 1.9 1.4
v -0.2 1.9 1.4
v -0.3 1.9 1.4
v 0.3 2 1.4
v 0.2 2 1.4
v -0.2 2 1.4
v -0.3 2 1.4
v 0.9 0.4 1.3
v 0 0.4 1.3
v -0.9 0.4 1.3
v 0.9 1.1 1.3
v 0 1.1 1.3
v -0.9 1.1 1.3
v 1.2 0 1.2
v 1 0 1.2
v -1 0 1.2
v -1.2 0 1.2
v 1.2 0.4 1.2
v 1 0.4 1.2
v -1 0.4 1.2
v -1.2 0.4 1.2
v 1.1 0.4 1.1
v 0.9 0.4 1.1
v -0.9 0.4 1.1
v -1.1 0.4 1.1
v 1.1 1.1 1.1
v 0.9 1.1 1.1
v 0 1.1 1.1
v -0.9 1.1 1.1
v -1.1 1.1 1.1
v 0.9 1.3 1.1
v 0 1.3 1.1
v -0.9 1.3 1.1
v 0.1 1.4 0.1
v -0.0999999 1.4 0.1
v 0.1 1.9 0.1
v -0.0999999 1.9 0.1
v 0.1 2 0.1
v -0.0999999 2 0.1
v 0.1 2.1 0.1
v -0.0999999 2.1 0.1
v 0.3 1.9 -0.2
v 0.2 1.9 -0.2
v -0.2 1.9 -0.2
v -0.3 1.9 -0.2
v 0.3 2 -0.2
v 0.2 2 -0.2
v -0.2 2 -0.2
v -0.3 2 -0.2
v 0.3 1.9 0.2
v 0.2 1.9 0.2
v -0.2 1.9 0.2
v -0.3 1.9 0.2
v 0.3 2 0.2
v 0.2 2 0.2
v -0.2 2 0.2
v -0.3 2 0.2
v 0.1 1.4 -0.1
v -0.0999999 1.4 -0.1
v 0.1 1.9 -0.1
v -0.0999999 1.9 -0.1
v 0.1 2 -0.1
v -0.0999999 2 -0.1
v 0.1 2.1 -0.1
v -0.0999999 2.1 -0.1
v 1.1 0.4 -1.1
v 0.9 0.4 -1.1
v -0.9 0.4 -1.1
v -1.1 0.4 -1.1
v 1.1 1.1 -1.1
v 0.9 1.1 -1.1
v 0 1.1 -1.1
v -0.9 1.1 -1.1
v -1.1 1.1 -1.1
v 0.9 1.3 -1.1
v 0 1.3 -1.1
v -0.9 1.3 -1.1
v 1.2 0 -1.2
v 1 0 -1.2
v -1 0 -1.2
v -1.2 0 -1.2
v 1.2 0.4 -1.2
v 1 0.4 -1.2
v -1 0.4 -1.2
v -1.2 0.4 -1.2
v 0.9 0.4 -1.3
v 0 0.4 -1.3
v -0.9 0.4 -1.3
v 0.9 1.1 -1.3
v 0 1.1 -1.3
v -0.9 1.1 -1.3
v 1 0 -1.4
v 0 0 -1.4
v -1 0 -1.4
v 1 0.4 -1.4
v 0 0.4 -1.4
v -1 0.4 -1.4
v 0.3 1.9 -1.4
v 0.2 1.9 -1.4
v -0.2 1.9 -1.4
v -0.3 1.9 -1.4
v 0.3 2 -1.4
v 0.2 2 -1.4
v -0.2 2 -1.4
v -0.3 2 -1.4
v 0.2 1.9 -1.6
v -0.2 1.9 -1.6
v 0.2 2 -1.6
v -0.2 2 -1.6
v 1.2 0 1.2
v 1.2 0.4 1.2
v 1.2 0 0
v 1.2 0.4 0
v 1.2 0 -1.2
v 1.2 0.4 -1.2
v 1.1 0.4 1.1
v 1.1 1.1 1.1
v 1.1 0.4 0
v 1.1 1.1 0
v 1.1 0.4 -1.1
v 1.1 1.1 -1.1
v 1 0 1.4
v 1 0.4 1.4
v 1 0 1.2
v 1 0.4 1.2
v 1 0 -1.2
v 1 0.4 -1.2
v 1 0 -1.4
v 1 0.4 -1.4
v 0.9 0.4 1.3
v 0.9 1.1 1.3
v 0.9 0.4 1.1
v 0.9 1.1 1.1
v 0.9 1.3 1.1
v 0.9 1.1 0
v 0.9 1.3 0
v 0.9 0.4 -1.1
v 0.9 1.1 -1.1
v 0.9 1.3 -1.1
v 0.9 0.4 -1.3
v 0.9 1.1 -1.3
v 0.3 1.9 1.4
v 0.3 2 1.4
v 0.3 1.9 0.2
v 0.3 2 0.2
v 0.3 1.9 -0.2
v 0.3 2 -0.2
v 0.3 1.9 -1.4
v 0.3 2 -1.4
v 0.2 1.9 1.6
v 0.2 2 1.6
v 0.2 1.9 1.4
v 0.2 2 1.4
v 0.2 1.9 0.2
v 0.2 2 0.2
v 0.2 1.9 -0.2
v 0.2 2 -0.2
v 0.2 1.9 -1.4
v 0.2 2 -1.4
v 0.2 1.9 -1.6
v 0.2 2 -1.6
v 0.1 1.4 0.1
v 0.1 1.9 0.1
v 0.1 2 0.1
v 0.1 2.1 0.1
v 0.1 1.4 -0.1
v 0.1 1.9 -0.1
v 0.1 2 -0.1
v 0.1 2.1 -0.1
v -0.0999999 1.4 0.1
v -0.0999999 1.9 0.1
v -0.0999999 2 0.1
v -0.0999999 2.1 0.1
v -0.0999999 1.4 -0.1
v -0.0999999 1.9 -0.1
v -0.0999999 2 -0.1
v -0.0999999 2.1 -0.1
v -0.2 1.9 1.6
v -0.2 2 1.6
v -0.2 1.9 1.4
v -0.2 2 1.4
v -0.2 1.9 0.2
v -0.2 2 0.2
v -0.2 1.9 -0.2
v -0.2 2 -0.2
v -0.2 1.9 -1.4
v -0.2 2 -1.4
v -0.2 1.9 -1.6
v -0.2 2 -1.6
v -0.3 1.9 1.4
v -0.3 2 1.4
v -0.3 1.9 0.2
v -0.3 2 0.2
v -0.3 1.9 -0.2
v -0.3 2 -0.2
v -0.3 1.9 -1.4
v -0.3 2 -1.4
v -0.9 0.4 1.3
v -0.9 1.1 1.3
v -0.9 0.4 1.1
v -0.9 1.1 1.1
v -0.9 1.3 1.1
v -0.9 1.1 0
v -0.9 1.3 0
v -0.9 0.4 -1.1
v -0.9 1.1 -1.1
v -0.9 1.3 -1.1
v -0.9 0.4 -1.3
v -0.9 1.1 -1.3
v -1 0 1.4
v -1 0.4 1.4
v -1 0 1.2
v -1 0.4 1.2
v -1 0 -1.2
v -1 0.4 -1.2
v -1 0 -1.4
v -1 0.4 -1.4
v -1.1 0.4 1.1
v -1.1 1.1 1.1
v -1.1 0.4 0
v -1.1 1.1 0
v -1.1 0.4 -1.1
v -1.1 1.1 -1.1
v -1.2 0 1.2
v -1.2 0.4 1.2
v -1.2 0 0
v -1.2 0.4 0
v -1.2 0 -1.2
v -1.2 0.4 -1.2
v 1.2 0 1.2
v 1.2 0 0
v 1.2 0 -1.2
v 1 0 1.4
v 1 0 1.2
v 1 0 -1.2
v 1 0 -1.4
v 0 0 1.4
v 0 0 0
v 0 0 -1.4
v -1 0 1.4
v -1 0 1.2
v -1 0 -1.2
v -1 0 -1.4
v -1.2 0 1.2
v -1.2 0 0
v -1.2 0 -1.2
v 0.1 1.4 0.1
v 0.1 1.4 -0.1
v -0.0999999 1.4 0.1
v -0.0999999 1.4 -0.1
v 0.3 1.9 1.4
v 0.3 1.9 0.2
v 0.3 1.9 -0.2
v 0.3 1.9 -1.4
v 0.2 1.9 1.6
v 0.2 1.9 1.4
v 0.2 1.9 0.2
v 0.2 1.9 -0.2
v 0.2 1.9 -1.4
v 0.2 1.9 -1.6
v 0.1 1.9 0.1
v 0.1 1.9 -0.1
v -0.0999999 1.9 0.1
v -0.0999999 1.9 -0.1
v -0.2 1.9 1.6
v -0.2 1.9 1.4
v -0.2 1.9 0.2
v -0.2 1.9 -0.2
v -0.2 1.9 -1.4
v -0.2 1.9 -1.6
v -0.3 1.9 1.4
v -0.3 1.9 0.2
v -0.3 1.9 -0.2
v -0.3 1.9 -1.4
v 1.2 0.4 1.2
v 1.2 0.4 0
v 1.2 0.4 -1.2
v 1.1 0.4 1.1
v 1.1 0.4 0
v 1.1 0.4 -1.1
v 1 0.4 1.4
v 1 0.4 1.2
v 1 0.4 -1.2
v 1 0.4 -1.4
v 0.9 0.4 1.3
v 0.9 0.4 1.1
v 0.9 0.4 -1.1
v 0.9 0.4 -1.3
v 0 0.4 1.4
v 0 0.4 1.3
v 0 0.4 -1.3
v 0 0.4 -1.4
v -0.9 0.4 1.3
v -0.9 0.4 1.1
v -0.9 0.4 -1.1
v -0.9 0.4 -1.3
v -1 0.4 1.4
v -1 0.4 1.2
v -1 0.4 -1.2
v -1 0.4 -1.4
v -1.1 0.4 1.1
v -1.1 0.4 0
v -1.1 0.4 -1.1
v -1.2 0.4 1.2
v -1.2 0.4 0
v -1.2 0.4 -1.2
v 1.1 1.1 1.1
v 1.1 1.1 0
v 1.1 1.1 -1.1
v 0.9 1.1 1.3
v 0.9 1.1 1.1
v 0.9 1.1 0
v 0.9 1.1 -1.1
v 0.9 1.1 -1.3
v 0 1.1 1.3
v 0 1.1 1.1
v 0 1.1 -1.1
v 0 1.1 -1.3
v -0.9 1.1 1.3
v -0.9 1.1 1.1
v -0.9 1.1 0
v -0.9 1.1 -1.1
v -0.9 1.1 -1.3
v -1.1 1.1 1.1
v -1.1 1.1 0
v -1.1 1.1 -1.1
v 0.9 1.3 1.1
v 0.9 1.3 0
v 0.9 1.3 -1.1
v 0 1.3 1.1
v 0 1.3 0
v 0 1.3 -1.1
v -0.9 1.3 1.1
v -0.9 1.3 0
v -0.9 1.3 -1.1
v 0.3 2 1.4
v 0.3 2 0.2
v 0.3 2 -0.2
v 0.3 2 -1.4
v 0.2 2 1.6
v 0.2 2 1.4
v 0.2 2 0.2
v 0.2 2 -0.2
v 0.2 2 -1.4
v 0.2 2 -1.6
v 0.1 2 0.1
v 0.1 2 -0.1
v -0.0999999 2 0.1
v -0.0999999 2 -0.1
v -0.2 2 1.6
v -0.2 2 1.4
v -0.2 2 0.2
v -0.2 2 -0.2
v -0.2 2 -1.4
v -0.2 2 -1.6
v -0.3 2 1.4
v -0.3 2 0.2
v -0.3 2 -0.2
v -0.3 2 -1.4
v 0.1 2.1 0.1
v 0.1 2.1 -0.1
v -0.0999999 2.1 0.1
v -0.0999999 2.1 -0.1

# faces
f 3/2/1 2/2/1 1/2/1
f 4/2/1 2/2/1 3/2/1
f 8/6/1 6/6/1 5/6/1
f 9/3/1 7/3/1 6/3/1
f 9/6/1 6/6/1 8/6/1
f 10/3/1 7/3/1 9/3/1
f 15/2/1 12/2/1 11/2/1
f 16/2/1 12/2/1 15/2/1
f 17/2/1 14/2/1 13/2/1
f 18/2/1 14/2/1 17/2/1
f 22/6/1 20/6/1 19/6/1
f 23/3/1 21/3/1 20/3/1
f 23/6/1 20/6/1 22/6/1
f 24/3/1 21/3/1 23/3/1
f 29/6/1 26/6/1 25/6/1
f 30/6/1 26/6/1 29/6/1
f 31/3/1 28/3/1 27/3/1
f 32/3/1 28/3/1 31/3/1
f 37/6/1 34/6/1 33/6/1
f 38/6/1 34/6/1 37/6/1
f 40/3/1 36/3/1 35/3/1
f 41/3/1 36/3/1 40/3/1
f 42/6/1 39/6/1 38/6/1
f 43/3/1 40/3/1 39/3/1
f 43/6/1 39/6/1 42/6/1
f 44/3/1 40/3/1 43/3/1
f 47/1/1 46/1/1 45/1/1
f 48/1/1 46/1/1 47/1/1
f 51/6/1 50/6/1 49/6/1
f 52/6/1 50/6/1 51/6/1
f 57/2/1 54/2/1 53/2/1
f 58/2/1 54/2/1 57/2/1
f 59/2/1 56/2/1 55/2/1
f 60/2/1 56/2/1 59/2/1
f 61/2/2 62/2/2 65/2/2
f 65/2/2 62/2/2 66/2/2
f 63/2/2 64/2/2 67/2/2
f 67/2/2 64/2/2 68/2/2
f 69/1/2 70/1/2 71/1/2
f 71/1/2 70/1/2 72/1/2
f 73/6/2 74/6/2 75/6/2
f 75/6/2 74/6/2 76/6/2
f 77/5/2 78/5/2 81/5/2
f 81/5/2 78/5/2 82/5/2
f 79/4/2 80/4/2 84/4/2
f 84/4/2 80/4/2 85/4/2
f 82/5/2 83/5/2 86/5/2
f 83/4/2 84/4/2 87/4/2
f 86/5/2 83/5/2 87/5/2
f 87/4/2 84/4/2 88/4/2
f 89/5/2 90/5/2 93/5/2
f 93/5/2 90/5/2 94/5/2
f 91/4/2 92/4/2 95/4/2
f 95/4/2 92/4/2 96/4/2
f 97/5/2 98/5/2 100/5/2
f 98/4/2 99/4/2 101/4/2
f 100/5/2 98/5/2 101/5/2
f 101/4/2 99/4/2 102/4/2
f 103/5/2 104/5/2 106/5/2
f 104/4/2 105/4/2 107/4/2
f 106/5/2 104/5/2 107/5/2
f 107/4/2 105/4/2 108/4/2
f 109/2/2 110/2/2 113/2/2
f 113/2/2 110/2/2 114/2/2
f 111/2/2 112/2/2 115/2/2
f 115/2/2 112/2/2 116/2/2
f 117/2/2 118/2/2 119/2/2
f 119/2/2 118/2/2 120/2/2
f 123/6/3 122/6/3 121/6/3
f 124/6/3 122/6/3 123/6/3
f 125/5/3 124/5/3 123/5/3
f 126/5/3 124/5/3 125/5/3
f 129/6/3 128/6/3 127/6/3
f 130/6/3 128/6/3 129/6/3
f 131/5/3 130/5/3 129/5/3
f 132/5/3 130/5/3 131/5/3
f 135/6/3 134/6/3 133/6/3
f 136/6/3 134/6/3 135/6/3
f 139/5/3 138/5/3 137/5/3
f 140/5/3 138/5/3 139/5/3
f 143/6/3 142/6/3 141/6/3
f 144/6/3 142/6/3 143/6/3
f 146/6/3 145/6/3 144/6/3
f 147/6/3 145/6/3 146/6/3
f 149/5/3 147/5/3 146/5/3
f 150/5/3 147/5/3 149/5/3
f 151/5/3 149/5/3 148/5/3
f 152/5/3 149/5/3 151/5/3
f 155/2/3 154/2/3 153/2/3
f 156/2/3 154/2/3 155/2/3
f 159/2/3 158/2/3 157/2/3
f 160/2/3 158/2/3 159/2/3
f 163/2/3 162/2/3 161/2/3
f 164/2/3 162/2/3 163/2/3
f 167/2/3 166/2/3 165/2/3
f 168/2/3 166/2/3 167/2/3
f 171/2/3 170/2/3 169/2/3
f 172/2/3 170/2/3 171/2/3
f 177/1/3 174/1/3 173/1/3
f 178/1/3 174/1/3 177/1/3
f 179/6/3 176/6/3 175/6/3
f 180/6/3 176/6/3 179/6/3
f 181/1/4 182/1/4 185/1/4
f 185/1/4 182/1/4 186/1/4
f 183/6/4 184/6/4 187/6/4
f 187/6/4 184/6/4 188/6/4
f 189/2/4 190/2/4 191/2/4
f 191/2/4 190/2/4 192/2/4
f 193/2/4 194/2/4 195/2/4
f 195/2/4 194/2/4 196/2/4
f 197/2/4 198/2/4 199/2/4
f 199/2/4 198/2/4 200/2/4
f 201/2/4 202/2/4 203/2/4
f 203/2/4 202/2/4 204/2/4
f 205/2/4 206/2/4 207/2/4
f 207/2/4 206/2/4 208/2/4
f 209/3/4 210/3/4 211/3/4
f 211/3/4 210/3/4 212/3/4
f 212/3/4 213/3/4 214/3/4
f 214/3/4 213/3/4 215/3/4
f 214/4/4 215/4/4 217/4/4
f 217/4/4 215/4/4 218/4/4
f 216/4/4 217/4/4 219/4/4
f 219/4/4 217/4/4 220/4/4
f 221/3/4 222/3/4 223/3/4
f 223/3/4 222/3/4 224/3/4
f 225/4/4 226/4/4 227/4/4
f 227/4/4 226/4/4 228/4/4
f 229/3/4 230/3/4 231/3/4
f 231/3/4 230/3/4 232/3/4
f 231/4/4 232/4/4 233/4/4
f 233/4/4 232/4/4 234/4/4
f 235/3/4 236/3/4 237/3/4
f 237/3/4 236/3/4 238/3/4
f 237/4/4 238/4/4 239/4/4
f 239/4/4 238/4/4 240/4/4
f 245/6/5 242/6/5 241/6/5
f 246/5/5 243/5/5 242/5/5
f 248/6/5 245/6/5 244/6/5
f 249/5/5 247/5/5 246/5/5
f 249/6/5 245/6/5 248/6/5
f 249/6/5 242/6/5 245/6/5
f 249/5/5 246/5/5 242/5/5
f 250/5/5 247/5/5 249/5/5
f 251/3/5 249/3/5 248/3/5
f 252/3/5 249/3/5 251/3/5
f 253/4/5 250/4/5 249/4/5
f 254/4/5 250/4/5 253/4/5
f 255/3/5 249/3/5 252/3/5
f 256/4/5 253/4/5 249/4/5
f 256/3/5 249/3/5 255/3/5
f 257/4/5 253/4/5 256/4/5
f 260/1/5 259/1/5 258/1/5
f 261/1/5 259/1/5 260/1/5
f 267/2/5 263/2/5 262/2/5
f 268/2/5 263/2/5 267/2/5
f 269/2/5 265/2/5 264/2/5
f 270/2/5 265/2/5 269/2/5
f 272/2/5 268/2/5 267/2/5
f 272/2/5 271/2/5 270/2/5
f 272/2/5 270/2/5 269/2/5
f 272/2/5 269/2/5 268/2/5
f 272/2/5 267/2/5 266/2/5
f 273/2/5 271/2/5 272/2/5
f 274/2/5 272/2/5 266/2/5
f 275/2/5 271/2/5 273/2/5
f 276/2/5 274/2/5 266/2/5
f 276/2/5 275/2/5 274/2/5
f 277/2/5 275/2/5 276/2/5
f 278/2/5 275/2/5 277/2/5
f 279/2/5 271/2/5 275/2/5
f 279/2/5 275/2/5 278/2/5
f 280/2/5 271/2/5 279/2/5
f 281/2/5 271/2/5 280/2/5
f 282/2/5 278/2/5 277/2/5
f 283/2/5 278/2/5 282/2/5
f 284/2/5 280/2/5 279/2/5
f 285/2/5 280/2/5 284/2/5
f 286/6/6 287/6/6 289/6/6
f 287/5/6 288/5/6 290/5/6
f 289/6/6 287/6/6 290/6/6
f 290/5/6 288/5/6 291/5/6
f 286/6/6 289/6/6 293/6/6
f 291/5/6 288/5/6 294/5/6
f 292/6/6 293/6/6 296/6/6
f 293/6/6 289/6/6 297/6/6
f 296/6/6 293/6/6 297/6/6
f 294/5/6 295/5/6 298/5/6
f 291/5/6 294/5/6 298/5/6
f 298/5/6 295/5/6 299/5/6
f 292/6/6 296/6/6 300/6/6
f 300/6/6 296/6/6 301/6/6
f 299/5/6 295/5/6 302/5/6
f 302/5/6 295/5/6 303/5/6
f 300/3/6 301/3/6 304/3/6
f 302/4/6 303/4/6 307/4/6
f 304/3/6 305/3/6 308/3/6
f 300/3/6 304/3/6 308/3/6
f 308/3/6 305/3/6 309/3/6
f 306/4/6 307/4/6 310/4/6
f 307/4/6 303/4/6 311/4/6
f 310/4/6 307/4/6 311/4/6
f 309/3/6 305/3/6 312/3/6
f 306/4/6 310/4/6 314/4/6
f 312/3/6 313/3/6 315/3/6
f 309/3/6 312/3/6 315/3/6
f 313/4/6 314/4/6 316/4/6
f 315/3/6 313/3/6 316/3/6
f 314/4/6 310/4/6 317/4/6
f 316/4/6 314/4/6 317/4/6
f 318/6/6 319/6/6 322/6/6
f 319/5/6 320/5/6 323/5/6
f 322/6/6 319/6/6 323/6/6
f 323/5/6 320/5/6 324/5/6
f 321/6/6 322/6/6 326/6/6
f 326/6/6 322/6/6 327/6/6
f 324/5/6 325/5/6 328/5/6
f 328/5/6 325/5/6 329/5/6
f 326/3/6 327/3/6 330/3/6
f 330/3/6 327/3/6 331/3/6
f 328/4/6 329/4/6 333/4/6
f 333/4/6 329/4/6 334/4/6
f 331/3/6 332/3/6 335/3/6
f 332/4/6 333/4/6 336/4/6
f 335/3/6 332/3/6 336/3/6
f 336/4/6 333/4/6 337/4/6
f 338/6/6 339/6/6 341/6/6
f 339/5/6 340/5/6 342/5/6
f 341/6/6 339/6/6 342/6/6
f 342/5/6 340/5/6 343/5/6
f 341/3/6 342/3/6 344/3/6
f 342/4/6 343/4/6 345/4/6
f 344/3/6 342/3/6 345/3/6
f 345/4/6 343/4/6 346/4/6
f 347/2/6 348/2/6 352/2/6
f 352/2/6 348/2/6 353/2/6
f 349/2/6 350/2/6 354/2/6
f 354/2/6 350/2/6 355/2/6
f 352/2/6 353/2/6 357/2/6
f 355/2/6 356/2/6 357/2/6
f 354/2/6 355/2/6 357/2/6
f 353/2/6 354/2/6 357/2/6
f 351/2/6 352/2/6 357/2/6
f 357/2/6 356/2/6 358/2/6
f 351/2/6 357/2/6 359/2/6
f 358/2/6 356/2/6 360/2/6
f 351/2/6 359/2/6 361/2/6
f 359/2/6 360/2/6 361/2/6
f 361/2/6 360/2/6 362/2/6
f 362/2/6 360/2/6 363/2/6
f 360/2/6 356/2/6 364/2/6
f 363/2/6 360/2/6 364/2/6
f 364/2/6 356/2/6 365/2/6
f 365/2/6 356/2/6 366/2/6
f 362/2/6 363/2/6 367/2/6
f 367/2/6 363/2/6 368/2/6
f 364/2/6 365/2/6 369/2/6
f 369/2/6 365/2/6 370/2/6
f 371/6/6 372/6/6 373/6/6
f 373/6/6 372/6/6 374/6/6
