# MagicaVoxel @ Ephtracy

# group
o 

# material
mtllib model.mtl
usemtl palette

# normals
vn -1 0 0
vn 1 0 0
vn 0 0 1
vn 0 0 -1
vn 0 -1 0
vn 0 1 0

# texcoords
vt 0.0683594 0.5
vt 0.0722656 0.5
vt 0.314453 0.5
vt 0.318359 0.5
vt 0.517578 0.5
vt 0.548828 0.5

# verts
v -0.8 0.3 1.2
v -0.8 0.3 1.1
v -0.8 0.3 -1.1
v -0.8 0.3 -1.2
v -0.8 0.6 1.2
v -0.8 0.6 1.1
v -0.8 0.6 -1.1
v -0.8 0.6 -1.2
v -0.8 0.8 1.2
v -0.8 0.8 1.1
v -0.8 0.8 -1.1
v -0.8 0.8 -1.2
v 0.3 0 1.2
v 0.3 0 0.7
v 0.3 0 -0.7
v 0.3 0 -1.2
v 0.3 0.1 0.7
v 0.3 0.1 0.3
v 0.3 0.1 -0.3
v 0.3 0.1 -0.7
v 0.3 0.2 0.3
v 0.3 0.2 0.2
v 0.3 0.2 -0.2
v 0.3 0.2 -0.3
v 0.3 0.5 0.2
v 0.3 0.5 -0.2
v 0.3 0.6 1.2
v 0.3 0.6 1.1
v 0.3 0.6 -1.1
v 0.3 0.6 -1.2
v 0.3 0.8 1.2
v 0.3 0.8 1.1
v 0.3 0.8 0.2
v 0.3 0.8 -0.2
v 0.3 0.8 -1.1
v 0.3 0.8 -1.2
v 0.3 0.9 1.2
v 0.3 0.9 1.1
v 0.3 0.9 0.3
v 0.3 0.9 0.2
v 0.3 0.9 -0.2
v 0.3 0.9 -0.3
v 0.3 0.9 -1.1
v 0.3 0.9 -1.2
v 0.3 1 1.1
v 0.3 1 0.8
v 0.3 1 0.5
v 0.3 1 0.3
v 0.3 1 -0.3
v 0.3 1 -0.5
v 0.3 1 -0.8
v 0.3 1 -1.1
v 0.3 1.1 0.8
v 0.3 1.1 0.5
v 0.3 1.1 -0.5
v 0.3 1.1 -0.8
v 0.4 0.5 1.3
v 0.4 0.5 1.2
v 0.4 0.5 -1.2
v 0.4 0.5 -1.3
v 0.4 0.6 1.3
v 0.4 0.6 1.2
v 0.4 0.6 -1.2
v 0.4 0.6 -1.3
v 0.4 0.7 1.3
v 0.4 0.7 1.2
v 0.4 0.7 -1.2
v 0.4 0.7 -1.3
v 0.4 0.8 1.3
v 0.4 0.8 1.2
v 0.4 0.8 -1.2
v 0.4 0.8 -1.3
v 0.4 1.1 0.7
v 0.4 1.1 0.6
v 0.4 1.1 -0.6
v 0.4 1.1 -0.7
v 0.4 1.2 0.7
v 0.4 1.2 0.6
v 0.4 1.2 -0.6
v 0.4 1.2 -0.7
v -0.6 0.3 1.2
v -0.6 0.3 1.1
v -0.6 0.3 -1.1
v -0.6 0.3 -1.2
v -0.6 0.6 1.2
v -0.6 0.6 1.1
v -0.6 0.6 -1.1
v -0.6 0.6 -1.2
v 0.5 0 1.2
v 0.5 0 0.7
v 0.5 0 -0.7
v 0.5 0 -1.2
v 0.5 0.1 1.1
v 0.5 0.1 0.8
v 0.5 0.1 0.7
v 0.5 0.1 0.3
v 0.5 0.1 -0.3
v 0.5 0.1 -0.7
v 0.5 0.1 -0.8
v 0.5 0.1 -1.1
v 0.5 0.2 0.8
v 0.5 0.2 0.4
v 0.5 0.2 0.3
v 0.5 0.2 0.2
v 0.5 0.2 -0.2
v 0.5 0.2 -0.3
v 0.5 0.2 -0.4
v 0.5 0.2 -0.8
v 0.5 0.3 1.1
v 0.5 0.3 1
v 0.5 0.3 0.4
v 0.5 0.3 0.3
v 0.5 0.3 -0.3
v 0.5 0.3 -0.4
v 0.5 0.3 -1
v 0.5 0.3 -1.1
v 0.5 0.4 1.1
v 0.5 0.4 1
v 0.5 0.4 -1
v 0.5 0.4 -1.1
v 0.5 0.5 1.3
v 0.5 0.5 1.2
v 0.5 0.5 1.1
v 0.5 0.5 1
v 0.5 0.5 0.3
v 0.5 0.5 0.2
v 0.5 0.5 -0.2
v 0.5 0.5 -0.3
v 0.5 0.5 -1
v 0.5 0.5 -1.1
v 0.5 0.5 -1.2
v 0.5 0.5 -1.3
v 0.5 0.6 1.3
v 0.5 0.6 1.2
v 0.5 0.6 1.1
v 0.5 0.6 1
v 0.5 0.6 0.2
v 0.5 0.6 0.1
v 0.5 0.6 -0.0999999
v 0.5 0.6 -0.2
v 0.5 0.6 -1
v 0.5 0.6 -1.1
v 0.5 0.6 -1.2
v 0.5 0.6 -1.3
v 0.5 0.7 1.3
v 0.5 0.7 1.2
v 0.5 0.7 1.1
v 0.5 0.7 1
v 0.5 0.7 0.2
v 0.5 0.7 0.1
v 0.5 0.7 -0.0999999
v 0.5 0.7 -0.2
v 0.5 0.7 -1
v 0.5 0.7 -1.1
v 0.5 0.7 -1.2
v 0.5 0.7 -1.3
v 0.5 0.8 1.3
v 0.5 0.8 1.2
v 0.5 0.8 1
v 0.5 0.8 0.9
v 0.5 0.8 0.4
v 0.5 0.8 0.3
v 0.5 0.8 0.2
v 0.5 0.8 -0.2
v 0.5 0.8 -0.3
v 0.5 0.8 -0.4
v 0.5 0.8 -0.9
v 0.5 0.8 -1
v 0.5 0.8 -1.2
v 0.5 0.8 -1.3
v 0.5 0.9 1.2
v 0.5 0.9 1.1
v 0.5 0.9 0.9
v 0.5 0.9 0.4
v 0.5 0.9 0.3
v 0.5 0.9 0.2
v 0.5 0.9 -0.2
v 0.5 0.9 -0.3
v 0.5 0.9 -0.4
v 0.5 0.9 -0.9
v 0.5 0.9 -1.1
v 0.5 0.9 -1.2
v 0.5 1 1.1
v 0.5 1 0.8
v 0.5 1 0.5
v 0.5 1 0.3
v 0.5 1 -0.3
v 0.5 1 -0.5
v 0.5 1 -0.8
v 0.5 1 -1.1
v 0.5 1.1 0.8
v 0.5 1.1 0.7
v 0.5 1.1 0.6
v 0.5 1.1 0.5
v 0.5 1.1 -0.5
v 0.5 1.1 -0.6
v 0.5 1.1 -0.7
v 0.5 1.1 -0.8
v 0.5 1.2 0.7
v 0.5 1.2 0.6
v 0.5 1.2 -0.6
v 0.5 1.2 -0.7
v 0.6 0.1 1.1
v 0.6 0.1 0.8
v 0.6 0.1 -0.8
v 0.6 0.1 -1.1
v 0.6 0.2 0.9
v 0.6 0.2 0.8
v 0.6 0.2 -0.8
v 0.6 0.2 -0.9
v 0.6 0.3 1.1
v 0.6 0.3 1
v 0.6 0.3 0.9
v 0.6 0.3 -0.9
v 0.6 0.3 -1
v 0.6 0.3 -1.1
v 0.7 0.2 0.9
v 0.7 0.2 0.4
v 0.7 0.2 -0.4
v 0.7 0.2 -0.9
v 0.7 0.3 1
v 0.7 0.3 0.9
v 0.7 0.3 0.4
v 0.7 0.3 0.3
v 0.7 0.3 -0.3
v 0.7 0.3 -0.4
v 0.7 0.3 -0.9
v 0.7 0.3 -1
v 0.7 0.8 1
v 0.7 0.8 0.9
v 0.7 0.8 0.4
v 0.7 0.8 0.3
v 0.7 0.8 -0.3
v 0.7 0.8 -0.4
v 0.7 0.8 -0.9
v 0.7 0.8 -1
v 0.7 0.9 0.9
v 0.7 0.9 0.4
v 0.7 0.9 -0.4
v 0.7 0.9 -0.9
v 0.8 0.4 0.8
v 0.8 0.4 0.7
v 0.8 0.4 0.6
v 0.8 0.4 0.5
v 0.8 0.4 -0.5
v 0.8 0.4 -0.6
v 0.8 0.4 -0.7
v 0.8 0.4 -0.8
v 0.8 0.7 0.8
v 0.8 0.7 0.7
v 0.8 0.7 0.6
v 0.8 0.7 0.5
v 0.8 0.7 -0.5
v 0.8 0.7 -0.6
v 0.8 0.7 -0.7
v 0.8 0.7 -0.8
v 0.9 0.3 0.9
v 0.9 0.3 0.4
v 0.9 0.3 -0.4
v 0.9 0.3 -0.9
v 0.9 0.4 0.8
v 0.9 0.4 0.5
v 0.9 0.4 -0.5
v 0.9 0.4 -0.8
v 0.9 0.7 0.8
v 0.9 0.7 0.5
v 0.9 0.7 -0.5
v 0.9 0.7 -0.8
v 0.9 0.8 0.9
v 0.9 0.8 0.4
v 0.9 0.8 -0.4
v 0.9 0.8 -0.9
v 0.4 0.5 1.3
v 0.4 0.6 1.3
v 0.4 0.7 1.3
v 0.4 0.8 1.3
v 0.5 0.5 1.3
v 0.5 0.6 1.3
v 0.5 0.7 1.3
v 0.5 0.8 1.3
v -0.8 0.3 1.2
v -0.8 0.6 1.2
v -0.8 0.8 1.2
v -0.6 0.3 1.2
v -0.6 0.6 1.2
v 0.3 0 1.2
v 0.3 0.6 1.2
v 0.3 0.8 1.2
v 0.3 0.9 1.2
v 0.4 0.5 1.2
v 0.4 0.6 1.2
v 0.4 0.7 1.2
v 0.4 0.8 1.2
v 0.5 0 1.2
v 0.5 0.5 1.2
v 0.5 0.6 1.2
v 0.5 0.7 1.2
v 0.5 0.8 1.2
v 0.5 0.9 1.2
v 0.3 0.9 1.1
v 0.3 1 1.1
v 0.5 0.1 1.1
v 0.5 0.3 1.1
v 0.5 0.9 1.1
v 0.5 1 1.1
v 0.6 0.1 1.1
v 0.6 0.3 1.1
v 0.5 0.3 1
v 0.5 0.4 1
v 0.5 0.5 1
v 0.5 0.6 1
v 0.5 0.7 1
v 0.5 0.8 1
v 0.6 0.3 1
v 0.7 0.3 1
v 0.7 0.8 1
v 0.5 0.8 0.9
v 0.5 0.9 0.9
v 0.6 0.2 0.9
v 0.6 0.3 0.9
v 0.7 0.2 0.9
v 0.7 0.3 0.9
v 0.7 0.8 0.9
v 0.7 0.9 0.9
v 0.8 0.3 0.9
v 0.8 0.8 0.9
v 0.9 0.3 0.9
v 0.9 0.8 0.9
v 0.3 1 0.8
v 0.3 1.1 0.8
v 0.5 1 0.8
v 0.5 1.1 0.8
v 0.4 1.1 0.7
v 0.4 1.2 0.7
v 0.5 1.1 0.7
v 0.5 1.2 0.7
v 0.8 0.4 0.5
v 0.8 0.7 0.5
v 0.9 0.4 0.5
v 0.9 0.7 0.5
v 0.3 0.2 -0.2
v 0.3 0.5 -0.2
v 0.3 0.8 -0.2
v 0.3 0.9 -0.2
v 0.5 0.2 -0.2
v 0.5 0.5 -0.2
v 0.5 0.8 -0.2
v 0.5 0.9 -0.2
v 0.3 0.1 -0.3
v 0.3 0.2 -0.3
v 0.3 0.9 -0.3
v 0.3 1 -0.3
v 0.5 0.1 -0.3
v 0.5 0.2 -0.3
v 0.5 0.3 -0.3
v 0.5 0.5 -0.3
v 0.5 0.8 -0.3
v 0.5 0.9 -0.3
v 0.5 1 -0.3
v 0.7 0.3 -0.3
v 0.7 0.8 -0.3
v 0.5 0.2 -0.4
v 0.5 0.3 -0.4
v 0.5 0.8 -0.4
v 0.5 0.9 -0.4
v 0.7 0.2 -0.4
v 0.7 0.3 -0.4
v 0.7 0.8 -0.4
v 0.7 0.9 -0.4
v 0.8 0.3 -0.4
v 0.8 0.8 -0.4
v 0.9 0.3 -0.4
v 0.9 0.8 -0.4
v 0.3 1 -0.5
v 0.3 1.1 -0.5
v 0.5 1 -0.5
v 0.5 1.1 -0.5
v 0.4 1.1 -0.6
v 0.4 1.2 -0.6
v 0.5 1.1 -0.6
v 0.5 1.2 -0.6
v 0.3 0 -0.7
v 0.3 0.1 -0.7
v 0.5 0 -0.7
v 0.5 0.1 -0.7
v 0.5 0.1 -0.8
v 0.5 0.2 -0.8
v 0.6 0.1 -0.8
v 0.6 0.2 -0.8
v 0.8 0.4 -0.8
v 0.8 0.7 -0.8
v 0.9 0.4 -0.8
v 0.9 0.7 -0.8
v -0.8 0.3 -1.1
v -0.8 0.6 -1.1
v -0.8 0.8 -1.1
v -0.6 0.3 -1.1
v -0.6 0.6 -1.1
v 0.3 0.6 -1.1
v 0.3 0.8 -1.1
v -0.8 0.3 1.1
v -0.8 0.6 1.1
v -0.8 0.8 1.1
v -0.6 0.3 1.1
v -0.6 0.6 1.1
v 0.3 0.6 1.1
v 0.3 0.8 1.1
v 0.5 0.1 0.8
v 0.5 0.2 0.8
v 0.6 0.1 0.8
v 0.6 0.2 0.8
v 0.8 0.4 0.8
v 0.8 0.7 0.8
v 0.9 0.4 0.8
v 0.9 0.7 0.8
v 0.3 0 0.7
v 0.3 0.1 0.7
v 0.5 0 0.7
v 0.5 0.1 0.7
v 0.4 1.1 0.6
v 0.4 1.2 0.6
v 0.5 1.1 0.6
v 0.5 1.2 0.6
v 0.3 1 0.5
v 0.3 1.1 0.5
v 0.5 1 0.5
v 0.5 1.1 0.5
v 0.5 0.2 0.4
v 0.5 0.3 0.4
v 0.5 0.8 0.4
v 0.5 0.9 0.4
v 0.7 0.2 0.4
v 0.7 0.3 0.4
v 0.7 0.8 0.4
v 0.7 0.9 0.4
v 0.8 0.3 0.4
v 0.8 0.8 0.4
v 0.9 0.3 0.4
v 0.9 0.8 0.4
v 0.3 0.1 0.3
v 0.3 0.2 0.3
v 0.3 0.9 0.3
v 0.3 1 0.3
v 0.5 0.1 0.3
v 0.5 0.2 0.3
v 0.5 0.3 0.3
v 0.5 0.5 0.3
v 0.5 0.8 0.3
v 0.5 0.9 0.3
v 0.5 1 0.3
v 0.7 0.3 0.3
v 0.7 0.8 0.3
v 0.3 0.2 0.2
v 0.3 0.5 0.2
v 0.3 0.8 0.2
v 0.3 0.9 0.2
v 0.5 0.2 0.2
v 0.5 0.5 0.2
v 0.5 0.8 0.2
v 0.5 0.9 0.2
v 0.8 0.4 -0.5
v 0.8 0.7 -0.5
v 0.9 0.4 -0.5
v 0.9 0.7 -0.5
v 0.4 1.1 -0.7
v 0.4 1.2 -0.7
v 0.5 1.1 -0.7
v 0.5 1.2 -0.7
v 0.3 1 -0.8
v 0.3 1.1 -0.8
v 0.5 1 -0.8
v 0.5 1.1 -0.8
v 0.5 0.8 -0.9
v 0.5 0.9 -0.9
v 0.6 0.2 -0.9
v 0.6 0.3 -0.9
v 0.7 0.2 -0.9
v 0.7 0.3 -0.9
v 0.7 0.8 -0.9
v 0.7 0.9 -0.9
v 0.8 0.3 -0.9
v 0.8 0.8 -0.9
v 0.9 0.3 -0.9
v 0.9 0.8 -0.9
v 0.5 0.3 -1
v 0.5 0.4 -1
v 0.5 0.5 -1
v 0.5 0.6 -1
v 0.5 0.7 -1
v 0.5 0.8 -1
v 0.6 0.3 -1
v 0.7 0.3 -1
v 0.7 0.8 -1
v 0.3 0.9 -1.1
v 0.3 1 -1.1
v 0.5 0.1 -1.1
v 0.5 0.3 -1.1
v 0.5 0.9 -1.1
v 0.5 1 -1.1
v 0.6 0.1 -1.1
v 0.6 0.3 -1.1
v -0.8 0.3 -1.2
v -0.8 0.6 -1.2
v -0.8 0.8 -1.2
v -0.6 0.3 -1.2
v -0.6 0.6 -1.2
v 0.3 0 -1.2
v 0.3 0.6 -1.2
v 0.3 0.8 -1.2
v 0.3 0.9 -1.2
v 0.4 0.5 -1.2
v 0.4 0.6 -1.2
v 0.4 0.7 -1.2
v 0.4 0.8 -1.2
v 0.5 0 -1.2
v 0.5 0.5 -1.2
v 0.5 0.6 -1.2
v 0.5 0.7 -1.2
v 0.5 0.8 -1.2
v 0.5 0.9 -1.2
v 0.4 0.5 -1.3
v 0.4 0.6 -1.3
v 0.4 0.7 -1.3
v 0.4 0.8 -1.3
v 0.5 0.5 -1.3
v 0.5 0.6 -1.3
v 0.5 0.7 -1.3
v 0.5 0.8 -1.3
v 0.3 0 1.2
v 0.5 0 1.2
v 0.3 0 0.7
v 0.5 0 0.7
v 0.3 0 -0.7
v 0.5 0 -0.7
v 0.3 0 -1.2
v 0.5 0 -1.2
v 0.5 0.1 1.1
v 0.6 0.1 1.1
v 0.5 0.1 0.8
v 0.6 0.1 0.8
v 0.3 0.1 0.7
v 0.5 0.1 0.7
v 0.3 0.1 0.3
v 0.5 0.1 0.3
v 0.3 0.1 -0.3
v 0.5 0.1 -0.3
v 0.3 0.1 -0.7
v 0.5 0.1 -0.7
v 0.5 0.1 -0.8
v 0.6 0.1 -0.8
v 0.5 0.1 -1.1
v 0.6 0.1 -1.1
v 0.6 0.2 0.9
v 0.7 0.2 0.9
v 0.5 0.2 0.8
v 0.6 0.2 0.8
v 0.5 0.2 0.4
v 0.7 0.2 0.4
v 0.3 0.2 0.3
v 0.5 0.2 0.3
v 0.3 0.2 0.2
v 0.5 0.2 0.2
v 0.3 0.2 -0.2
v 0.5 0.2 -0.2
v 0.3 0.2 -0.3
v 0.5 0.2 -0.3
v 0.5 0.2 -0.4
v 0.7 0.2 -0.4
v 0.5 0.2 -0.8
v 0.6 0.2 -0.8
v 0.6 0.2 -0.9
v 0.7 0.2 -0.9
v -0.8 0.3 1.2
v -0.6 0.3 1.2
v -0.8 0.3 1.1
v -0.6 0.3 1.1
v 0.6 0.3 1
v 0.7 0.3 1
v 0.6 0.3 0.9
v 0.7 0.3 0.9
v 0.8 0.3 0.9
v 0.9 0.3 0.9
v 0.5 0.3 0.4
v 0.7 0.3 0.4
v 0.8 0.3 0.4
v 0.9 0.3 0.4
v 0.5 0.3 0.3
v 0.7 0.3 0.3
v 0.5 0.3 -0.3
v 0.7 0.3 -0.3
v 0.5 0.3 -0.4
v 0.7 0.3 -0.4
v 0.8 0.3 -0.4
v 0.9 0.3 -0.4
v 0.6 0.3 -0.9
v 0.7 0.3 -0.9
v 0.8 0.3 -0.9
v 0.9 0.3 -0.9
v 0.6 0.3 -1
v 0.7 0.3 -1
v -0.8 0.3 -1.1
v -0.6 0.3 -1.1
v -0.8 0.3 -1.2
v -0.6 0.3 -1.2
v 0.4 0.5 1.3
v 0.5 0.5 1.3
v 0.4 0.5 1.2
v 0.5 0.5 1.2
v 0.3 0.5 0.2
v 0.5 0.5 0.2
v 0.3 0.5 -0.2
v 0.5 0.5 -0.2
v 0.4 0.5 -1.2
v 0.5 0.5 -1.2
v 0.4 0.5 -1.3
v 0.5 0.5 -1.3
v -0.6 0.6 1.2
v 0.3 0.6 1.2
v -0.6 0.6 1.1
v 0.3 0.6 1.1
v -0.6 0.6 -1.1
v 0.3 0.6 -1.1
v -0.6 0.6 -1.2
v 0.3 0.6 -1.2
v 0.4 0.7 1.3
v 0.5 0.7 1.3
v 0.4 0.7 1.2
v 0.5 0.7 1.2
v 0.8 0.7 0.8
v 0.9 0.7 0.8
v 0.8 0.7 0.7
v 0.8 0.7 0.6
v 0.8 0.7 0.5
v 0.9 0.7 0.5
v 0.8 0.7 -0.5
v 0.9 0.7 -0.5
v 0.8 0.7 -0.6
v 0.8 0.7 -0.7
v 0.8 0.7 -0.8
v 0.9 0.7 -0.8
v 0.4 0.7 -1.2
v 0.5 0.7 -1.2
v 0.4 0.7 -1.3
v 0.5 0.7 -1.3
v 0.5 0.3 1.1
v 0.6 0.3 1.1
v 0.5 0.3 1
v 0.6 0.3 1
v 0.5 0.3 -1
v 0.6 0.3 -1
v 0.5 0.3 -1.1
v 0.6 0.3 -1.1
v 0.8 0.4 0.8
v 0.9 0.4 0.8
v 0.8 0.4 0.7
v 0.8 0.4 0.6
v 0.8 0.4 0.5
v 0.9 0.4 0.5
v 0.8 0.4 -0.5
v 0.9 0.4 -0.5
v 0.8 0.4 -0.6
v 0.8 0.4 -0.7
v 0.8 0.4 -0.8
v 0.9 0.4 -0.8
v 0.4 0.6 1.3
v 0.5 0.6 1.3
v 0.4 0.6 1.2
v 0.5 0.6 1.2
v 0.4 0.6 -1.2
v 0.5 0.6 -1.2
v 0.4 0.6 -1.3
v 0.5 0.6 -1.3
v 0.4 0.8 1.3
v 0.5 0.8 1.3
v -0.8 0.8 1.2
v 0.3 0.8 1.2
v 0.4 0.8 1.2
v 0.5 0.8 1.2
v -0.8 0.8 1.1
v 0.3 0.8 1.1
v 0.5 0.8 1
v 0.7 0.8 1
v 0.5 0.8 0.9
v 0.7 0.8 0.9
v 0.8 0.8 0.9
v 0.9 0.8 0.9
v 0.5 0.8 0.4
v 0.7 0.8 0.4
v 0.8 0.8 0.4
v 0.9 0.8 0.4
v 0.5 0.8 0.3
v 0.7 0.8 0.3
v 0.3 0.8 0.2
v 0.5 0.8 0.2
v 0.3 0.8 -0.2
v 0.5 0.8 -0.2
v 0.5 0.8 -0.3
v 0.7 0.8 -0.3
v 0.5 0.8 -0.4
v 0.7 0.8 -0.4
v 0.8 0.8 -0.4
v 0.9 0.8 -0.4
v 0.5 0.8 -0.9
v 0.7 0.8 -0.9
v 0.8 0.8 -0.9
v 0.9 0.8 -0.9
v 0.5 0.8 -1
v 0.7 0.8 -1
v -0.8 0.8 -1.1
v 0.3 0.8 -1.1
v -0.8 0.8 -1.2
v 0.3 0.8 -1.2
v 0.4 0.8 -1.2
v 0.5 0.8 -1.2
v 0.4 0.8 -1.3
v 0.5 0.8 -1.3
v 0.3 0.9 1.2
v 0.5 0.9 1.2
v 0.3 0.9 1.1
v 0.5 0.9 1.1
v 0.5 0.9 0.9
v 0.7 0.9 0.9
v 0.5 0.9 0.4
v 0.7 0.9 0.4
v 0.3 0.9 0.3
v 0.5 0.9 0.3
v 0.3 0.9 0.2
v 0.5 0.9 0.2
v 0.3 0.9 -0.2
v 0.5 0.9 -0.2
v 0.3 0.9 -0.3
v 0.5 0.9 -0.3
v 0.5 0.9 -0.4
v 0.7 0.9 -0.4
v 0.5 0.9 -0.9
v 0.7 0.9 -0.9
v 0.3 0.9 -1.1
v 0.5 0.9 -1.1
v 0.3 0.9 -1.2
v 0.5 0.9 -1.2
v 0.3 1 1.1
v 0.5 1 1.1
v 0.3 1 0.8
v 0.5 1 0.8
v 0.3 1 0.5
v 0.5 1 0.5
v 0.3 1 0.3
v 0.5 1 0.3
v 0.3 1 -0.3
v 0.5 1 -0.3
v 0.3 1 -0.5
v 0.5 1 -0.5
v 0.3 1 -0.8
v 0.5 1 -0.8
v 0.3 1 -1.1
v 0.5 1 -1.1
v 0.3 1.1 0.8
v 0.5 1.1 0.8
v 0.4 1.1 0.7
v 0.5 1.1 0.7
v 0.4 1.1 0.6
v 0.5 1.1 0.6
v 0.3 1.1 0.5
v 0.5 1.1 0.5
v 0.3 1.1 -0.5
v 0.5 1.1 -0.5
v 0.4 1.1 -0.6
v 0.5 1.1 -0.6
v 0.4 1.1 -0.7
v 0.5 1.1 -0.7
v 0.3 1.1 -0.8
v 0.5 1.1 -0.8
v 0.4 1.2 0.7
v 0.5 1.2 0.7
v 0.4 1.2 0.6
v 0.5 1.2 0.6
v 0.4 1.2 -0.6
v 0.5 1.2 -0.6
v 0.4 1.2 -0.7
v 0.5 1.2 -0.7

# faces
f 5/2/1 2/2/1 1/2/1
f 6/2/1 2/2/1 5/2/1
f 7/2/1 4/2/1 3/2/1
f 8/2/1 4/2/1 7/2/1
f 9/6/1 6/6/1 5/6/1
f 10/6/1 6/6/1 9/6/1
f 11/6/1 8/6/1 7/6/1
f 12/6/1 8/6/1 11/6/1
f 17/2/1 14/2/1 13/2/1
f 20/2/1 16/2/1 15/2/1
f 21/2/1 18/2/1 17/2/1
f 24/2/1 20/2/1 19/2/1
f 25/2/1 22/2/1 21/2/1
f 26/2/1 24/2/1 23/2/1
f 27/2/1 25/2/1 21/2/1
f 27/2/1 17/2/1 13/2/1
f 27/2/1 21/2/1 17/2/1
f 28/2/1 25/2/1 27/2/1
f 29/2/1 24/2/1 26/2/1
f 29/2/1 16/2/1 20/2/1
f 29/2/1 20/2/1 24/2/1
f 30/2/1 16/2/1 29/2/1
f 32/2/1 25/2/1 28/2/1
f 33/6/1 26/6/1 25/6/1
f 33/2/1 25/2/1 32/2/1
f 34/2/1 29/2/1 26/2/1
f 34/6/1 26/6/1 33/6/1
f 35/2/1 29/2/1 34/2/1
f 37/2/1 32/2/1 31/2/1
f 37/2/1 33/2/1 32/2/1
f 38/2/1 33/2/1 37/2/1
f 39/2/1 33/2/1 38/2/1
f 40/2/1 33/2/1 39/2/1
f 41/2/1 36/2/1 35/2/1
f 41/2/1 35/2/1 34/2/1
f 42/2/1 36/2/1 41/2/1
f 43/2/1 36/2/1 42/2/1
f 44/2/1 36/2/1 43/2/1
f 45/2/1 39/2/1 38/2/1
f 46/2/1 39/2/1 45/2/1
f 47/2/1 39/2/1 46/2/1
f 48/2/1 39/2/1 47/2/1
f 49/2/1 43/2/1 42/2/1
f 50/2/1 43/2/1 49/2/1
f 51/2/1 43/2/1 50/2/1
f 52/2/1 43/2/1 51/2/1
f 53/5/1 47/5/1 46/5/1
f 54/5/1 47/5/1 53/5/1
f 55/5/1 51/5/1 50/5/1
f 56/5/1 51/5/1 55/5/1
f 61/5/1 58/5/1 57/5/1
f 62/5/1 58/5/1 61/5/1
f 63/5/1 60/5/1 59/5/1
f 64/5/1 60/5/1 63/5/1
f 69/5/1 66/5/1 65/5/1
f 70/5/1 66/5/1 69/5/1
f 71/5/1 68/5/1 67/5/1
f 72/5/1 68/5/1 71/5/1
f 77/6/1 74/6/1 73/6/1
f 78/6/1 74/6/1 77/6/1
f 79/6/1 76/6/1 75/6/1
f 80/6/1 76/6/1 79/6/1
f 81/2/2 82/2/2 85/2/2
f 85/2/2 82/2/2 86/2/2
f 83/2/2 84/2/2 87/2/2
f 87/2/2 84/2/2 88/2/2
f 89/2/2 90/2/2 93/2/2
f 93/2/2 90/2/2 94/2/2
f 94/2/2 90/2/2 95/2/2
f 91/2/2 92/2/2 98/2/2
f 98/2/2 92/2/2 99/2/2
f 99/2/2 92/2/2 100/2/2
f 95/2/2 96/2/2 101/2/2
f 94/2/2 95/2/2 101/2/2
f 101/2/2 96/2/2 102/2/2
f 102/2/2 96/2/2 103/2/2
f 98/2/2 99/2/2 106/2/2
f 97/2/2 98/2/2 106/2/2
f 106/2/2 99/2/2 107/2/2
f 107/2/2 99/2/2 108/2/2
f 89/2/2 93/2/2 109/2/2
f 103/2/2 104/2/2 111/2/2
f 102/2/2 103/2/2 111/2/2
f 111/2/2 104/2/2 112/2/2
f 106/2/2 107/2/2 113/2/2
f 105/2/2 106/2/2 113/2/2
f 113/2/2 107/2/2 114/2/2
f 100/2/2 92/2/2 116/2/2
f 109/2/2 110/2/2 117/2/2
f 89/2/2 109/2/2 117/2/2
f 117/2/2 110/2/2 118/2/2
f 115/2/2 116/2/2 119/2/2
f 116/2/2 92/2/2 120/2/2
f 119/2/2 116/2/2 120/2/2
f 89/2/2 117/2/2 122/2/2
f 117/1/2 118/1/2 123/1/2
f 122/2/2 117/2/2 123/2/2
f 123/1/2 118/1/2 124/1/2
f 112/2/2 104/2/2 125/2/2
f 125/2/2 104/2/2 126/2/2
f 105/2/2 113/2/2 127/2/2
f 127/2/2 113/2/2 128/2/2
f 119/1/2 120/1/2 129/1/2
f 120/2/2 92/2/2 130/2/2
f 129/1/2 120/1/2 130/1/2
f 130/2/2 92/2/2 131/2/2
f 121/5/2 122/5/2 133/5/2
f 123/2/2 124/2/2 134/2/2
f 133/5/2 122/5/2 134/5/2
f 122/2/2 123/2/2 134/2/2
f 134/2/2 124/2/2 135/2/2
f 135/2/2 124/2/2 136/2/2
f 125/6/2 126/6/2 137/6/2
f 127/6/2 128/6/2 137/6/2
f 126/6/2 127/6/2 137/6/2
f 137/6/2 128/6/2 138/6/2
f 138/6/2 128/6/2 139/6/2
f 139/6/2 128/6/2 140/6/2
f 130/2/2 131/2/2 141/2/2
f 129/2/2 130/2/2 141/2/2
f 141/2/2 131/2/2 142/2/2
f 131/5/2 132/5/2 143/5/2
f 142/2/2 131/2/2 143/2/2
f 143/5/2 132/5/2 144/5/2
f 134/2/2 135/2/2 146/2/2
f 135/1/2 136/1/2 147/1/2
f 146/2/2 135/2/2 147/2/2
f 147/1/2 136/1/2 148/1/2
f 125/6/2 137/6/2 149/6/2
f 137/5/2 138/5/2 149/5/2
f 138/6/2 139/6/2 150/6/2
f 149/5/2 138/5/2 150/5/2
f 139/5/2 140/5/2 151/5/2
f 150/6/2 139/6/2 151/6/2
f 140/6/2 128/6/2 152/6/2
f 151/5/2 140/5/2 152/5/2
f 141/1/2 142/1/2 153/1/2
f 142/2/2 143/2/2 154/2/2
f 153/1/2 142/1/2 154/1/2
f 154/2/2 143/2/2 155/2/2
f 145/5/2 146/5/2 157/5/2
f 147/2/2 148/2/2 158/2/2
f 157/5/2 146/5/2 158/5/2
f 146/2/2 147/2/2 158/2/2
f 158/2/2 148/2/2 159/2/2
f 150/6/2 151/6/2 162/6/2
f 149/6/2 150/6/2 162/6/2
f 125/6/2 149/6/2 162/6/2
f 151/6/2 152/6/2 162/6/2
f 162/6/2 152/6/2 163/6/2
f 152/6/2 128/6/2 164/6/2
f 163/6/2 152/6/2 164/6/2
f 164/6/2 128/6/2 165/6/2
f 154/2/2 155/2/2 168/2/2
f 153/2/2 154/2/2 168/2/2
f 155/5/2 156/5/2 169/5/2
f 168/2/2 155/2/2 169/2/2
f 169/5/2 156/5/2 170/5/2
f 159/2/2 160/2/2 171/2/2
f 158/2/2 159/2/2 171/2/2
f 171/2/2 160/2/2 172/2/2
f 172/2/2 160/2/2 173/2/2
f 162/2/2 163/2/2 174/2/2
f 161/2/2 162/2/2 174/2/2
f 174/2/2 163/2/2 175/2/2
f 175/2/2 163/2/2 176/2/2
f 165/2/2 166/2/2 177/2/2
f 164/2/2 165/2/2 177/2/2
f 177/2/2 166/2/2 178/2/2
f 178/2/2 166/2/2 179/2/2
f 167/2/2 168/2/2 180/2/2
f 168/2/2 169/2/2 180/2/2
f 180/2/2 169/2/2 181/2/2
f 181/2/2 169/2/2 182/2/2
f 172/2/2 173/2/2 183/2/2
f 174/2/2 175/2/2 183/2/2
f 173/2/2 174/2/2 183/2/2
f 183/2/2 175/2/2 184/2/2
f 184/2/2 175/2/2 185/2/2
f 185/2/2 175/2/2 186/2/2
f 178/2/2 179/2/2 187/2/2
f 180/2/2 181/2/2 187/2/2
f 179/2/2 180/2/2 187/2/2
f 187/2/2 181/2/2 188/2/2
f 188/2/2 181/2/2 189/2/2
f 189/2/2 181/2/2 190/2/2
f 184/5/2 185/5/2 191/5/2
f 191/5/2 185/5/2 192/5/2
f 192/5/2 185/5/2 193/5/2
f 193/5/2 185/5/2 194/5/2
f 188/5/2 189/5/2 195/5/2
f 195/5/2 189/5/2 196/5/2
f 196/5/2 189/5/2 197/5/2
f 197/5/2 189/5/2 198/5/2
f 192/6/2 193/6/2 199/6/2
f 199/6/2 193/6/2 200/6/2
f 196/6/2 197/6/2 201/6/2
f 201/6/2 197/6/2 202/6/2
f 203/5/2 204/5/2 207/5/2
f 207/5/2 204/5/2 208/5/2
f 205/5/2 206/5/2 209/5/2
f 209/5/2 206/5/2 210/5/2
f 203/5/2 207/5/2 211/5/2
f 211/5/2 207/5/2 212/5/2
f 212/5/2 207/5/2 213/5/2
f 210/5/2 206/5/2 214/5/2
f 214/5/2 206/5/2 215/5/2
f 215/5/2 206/5/2 216/5/2
f 217/5/2 218/5/2 222/5/2
f 222/5/2 218/5/2 223/5/2
f 219/5/2 220/5/2 226/5/2
f 226/5/2 220/5/2 227/5/2
f 221/5/2 222/5/2 229/5/2
f 229/5/2 222/5/2 230/5/2
f 223/5/2 224/5/2 231/5/2
f 231/5/2 224/5/2 232/5/2
f 225/5/2 226/5/2 233/5/2
f 233/5/2 226/5/2 234/5/2
f 227/5/2 228/5/2 235/5/2
f 235/5/2 228/5/2 236/5/2
f 230/5/2 231/5/2 237/5/2
f 237/5/2 231/5/2 238/5/2
f 234/5/2 235/5/2 239/5/2
f 239/5/2 235/5/2 240/5/2
f 241/3/2 242/3/2 249/3/2
f 242/4/2 243/4/2 250/4/2
f 249/3/2 242/3/2 250/3/2
f 243/3/2 244/3/2 251/3/2
f 250/4/2 243/4/2 251/4/2
f 251/3/2 244/3/2 252/3/2
f 245/3/2 246/3/2 253/3/2
f 246/4/2 247/4/2 254/4/2
f 253/3/2 246/3/2 254/3/2
f 247/3/2 248/3/2 255/3/2
f 254/4/2 247/4/2 255/4/2
f 255/3/2 248/3/2 256/3/2
f 257/5/2 258/5/2 261/5/2
f 261/5/2 258/5/2 262/5/2
f 259/5/2 260/5/2 263/5/2
f 263/5/2 260/5/2 264/5/2
f 257/5/2 261/5/2 265/5/2
f 262/5/2 258/5/2 266/5/2
f 259/5/2 263/5/2 267/5/2
f 264/5/2 260/5/2 268/5/2
f 257/5/2 265/5/2 269/5/2
f 265/5/2 266/5/2 269/5/2
f 266/5/2 258/5/2 270/5/2
f 269/5/2 266/5/2 270/5/2
f 267/5/2 268/5/2 271/5/2
f 259/5/2 267/5/2 271/5/2
f 268/5/2 260/5/2 272/5/2
f 271/5/2 268/5/2 272/5/2
f 277/5/3 274/5/3 273/5/3
f 278/5/3 274/5/3 277/5/3
f 279/5/3 276/5/3 275/5/3
f 280/5/3 276/5/3 279/5/3
f 284/2/3 282/2/3 281/2/3
f 285/6/3 283/6/3 282/6/3
f 285/2/3 282/2/3 284/2/3
f 287/6/3 283/6/3 285/6/3
f 288/6/3 283/6/3 287/6/3
f 290/2/3 287/2/3 286/2/3
f 290/2/3 289/2/3 288/2/3
f 290/2/3 288/2/3 287/2/3
f 291/2/3 289/2/3 290/2/3
f 292/2/3 289/2/3 291/2/3
f 293/2/3 289/2/3 292/2/3
f 294/2/3 290/2/3 286/2/3
f 295/2/3 290/2/3 294/2/3
f 296/2/3 292/2/3 291/2/3
f 297/2/3 292/2/3 296/2/3
f 298/2/3 289/2/3 293/2/3
f 299/2/3 289/2/3 298/2/3
f 304/2/3 301/2/3 300/2/3
f 305/2/3 301/2/3 304/2/3
f 306/5/3 303/5/3 302/5/3
f 307/5/3 303/5/3 306/5/3
f 314/5/3 309/5/3 308/5/3
f 314/5/3 313/5/3 312/5/3
f 314/5/3 312/5/3 311/5/3
f 314/5/3 311/5/3 310/5/3
f 314/5/3 310/5/3 309/5/3
f 315/5/3 313/5/3 314/5/3
f 316/5/3 313/5/3 315/5/3
f 321/5/3 320/5/3 319/5/3
f 322/5/3 320/5/3 321/5/3
f 323/5/3 318/5/3 317/5/3
f 324/5/3 318/5/3 323/5/3
f 325/2/3 323/2/3 322/2/3
f 326/2/3 323/2/3 325/2/3
f 327/5/3 326/5/3 325/5/3
f 328/5/3 326/5/3 327/5/3
f 331/5/3 330/5/3 329/5/3
f 332/5/3 330/5/3 331/5/3
f 335/6/3 334/6/3 333/6/3
f 336/6/3 334/6/3 335/6/3
f 339/5/3 338/5/3 337/5/3
f 340/5/3 338/5/3 339/5/3
f 345/2/3 342/2/3 341/2/3
f 346/2/3 342/2/3 345/2/3
f 347/2/3 344/2/3 343/2/3
f 348/2/3 344/2/3 347/2/3
f 353/2/3 350/2/3 349/2/3
f 354/2/3 350/2/3 353/2/3
f 358/2/3 352/2/3 351/2/3
f 359/2/3 352/2/3 358/2/3
f 360/5/3 357/5/3 356/5/3
f 360/5/3 356/5/3 355/5/3
f 361/5/3 357/5/3 360/5/3
f 366/5/3 363/5/3 362/5/3
f 367/5/3 363/5/3 366/5/3
f 368/5/3 365/5/3 364/5/3
f 369/5/3 365/5/3 368/5/3
f 370/2/3 368/2/3 367/2/3
f 371/2/3 368/2/3 370/2/3
f 372/5/3 371/5/3 370/5/3
f 373/5/3 371/5/3 372/5/3
f 376/5/3 375/5/3 374/5/3
f 377/5/3 375/5/3 376/5/3
f 380/6/3 379/6/3 378/6/3
f 381/6/3 379/6/3 380/6/3
f 384/2/3 383/2/3 382/2/3
f 385/2/3 383/2/3 384/2/3
f 388/5/3 387/5/3 386/5/3
f 389/5/3 387/5/3 388/5/3
f 392/5/3 391/5/3 390/5/3
f 393/5/3 391/5/3 392/5/3
f 397/2/3 395/2/3 394/2/3
f 398/6/3 396/6/3 395/6/3
f 398/2/3 395/2/3 397/2/3
f 399/6/3 396/6/3 398/6/3
f 400/6/3 396/6/3 399/6/3
f 401/2/4 402/2/4 404/2/4
f 402/6/4 403/6/4 405/6/4
f 404/2/4 402/2/4 405/2/4
f 405/6/4 403/6/4 406/6/4
f 406/6/4 403/6/4 407/6/4
f 408/5/4 409/5/4 410/5/4
f 410/5/4 409/5/4 411/5/4
f 412/5/4 413/5/4 414/5/4
f 414/5/4 413/5/4 415/5/4
f 416/2/4 417/2/4 418/2/4
f 418/2/4 417/2/4 419/2/4
f 420/6/4 421/6/4 422/6/4
f 422/6/4 421/6/4 423/6/4
f 424/5/4 425/5/4 426/5/4
f 426/5/4 425/5/4 427/5/4
f 428/5/4 429/5/4 432/5/4
f 432/5/4 429/5/4 433/5/4
f 430/5/4 431/5/4 434/5/4
f 434/5/4 431/5/4 435/5/4
f 433/2/4 434/2/4 436/2/4
f 436/2/4 434/2/4 437/2/4
f 436/5/4 437/5/4 438/5/4
f 438/5/4 437/5/4 439/5/4
f 440/2/4 441/2/4 444/2/4
f 444/2/4 441/2/4 445/2/4
f 442/2/4 443/2/4 449/2/4
f 449/2/4 443/2/4 450/2/4
f 447/5/4 448/5/4 451/5/4
f 446/5/4 447/5/4 451/5/4
f 451/5/4 448/5/4 452/5/4
f 453/2/4 454/2/4 457/2/4
f 457/2/4 454/2/4 458/2/4
f 455/2/4 456/2/4 459/2/4
f 459/2/4 456/2/4 460/2/4
f 461/5/4 462/5/4 463/5/4
f 463/5/4 462/5/4 464/5/4
f 465/6/4 466/6/4 467/6/4
f 467/6/4 466/6/4 468/6/4
f 469/5/4 470/5/4 471/5/4
f 471/5/4 470/5/4 472/5/4
f 475/5/4 476/5/4 477/5/4
f 477/5/4 476/5/4 478/5/4
f 473/5/4 474/5/4 479/5/4
f 479/5/4 474/5/4 480/5/4
f 478/2/4 479/2/4 481/2/4
f 481/2/4 479/2/4 482/2/4
f 481/5/4 482/5/4 483/5/4
f 483/5/4 482/5/4 484/5/4
f 485/5/4 486/5/4 491/5/4
f 489/5/4 490/5/4 491/5/4
f 488/5/4 489/5/4 491/5/4
f 487/5/4 488/5/4 491/5/4
f 486/5/4 487/5/4 491/5/4
f 491/5/4 490/5/4 492/5/4
f 492/5/4 490/5/4 493/5/4
f 494/2/4 495/2/4 498/2/4
f 498/2/4 495/2/4 499/2/4
f 496/5/4 497/5/4 500/5/4
f 500/5/4 497/5/4 501/5/4
f 502/2/4 503/2/4 505/2/4
f 503/6/4 504/6/4 506/6/4
f 505/2/4 503/2/4 506/2/4
f 506/6/4 504/6/4 508/6/4
f 508/6/4 504/6/4 509/6/4
f 507/2/4 508/2/4 511/2/4
f 509/2/4 510/2/4 511/2/4
f 508/2/4 509/2/4 511/2/4
f 511/2/4 510/2/4 512/2/4
f 512/2/4 510/2/4 513/2/4
f 513/2/4 510/2/4 514/2/4
f 507/2/4 511/2/4 515/2/4
f 515/2/4 511/2/4 516/2/4
f 512/2/4 513/2/4 517/2/4
f 517/2/4 513/2/4 518/2/4
f 514/2/4 510/2/4 519/2/4
f 519/2/4 510/2/4 520/2/4
f 521/5/4 522/5/4 525/5/4
f 525/5/4 522/5/4 526/5/4
f 523/5/4 524/5/4 527/5/4
f 527/5/4 524/5/4 528/5/4
f 531/2/5 530/2/5 529/2/5
f 532/2/5 530/2/5 531/2/5
f 535/2/5 534/2/5 533/2/5
f 536/2/5 534/2/5 535/2/5
f 539/5/5 538/5/5 537/5/5
f 540/5/5 538/5/5 539/5/5
f 543/2/5 542/2/5 541/2/5
f 544/2/5 542/2/5 543/2/5
f 547/2/5 546/2/5 545/2/5
f 548/2/5 546/2/5 547/2/5
f 551/5/5 550/5/5 549/5/5
f 552/5/5 550/5/5 551/5/5
f 556/5/5 554/5/5 553/5/5
f 557/5/5 556/5/5 555/5/5
f 558/5/5 554/5/5 556/5/5
f 558/5/5 556/5/5 557/5/5
f 561/2/5 560/2/5 559/2/5
f 562/2/5 560/2/5 561/2/5
f 565/2/5 564/2/5 563/2/5
f 566/2/5 564/2/5 565/2/5
f 569/5/5 568/5/5 567/5/5
f 570/5/5 568/5/5 569/5/5
f 571/5/5 568/5/5 570/5/5
f 572/5/5 568/5/5 571/5/5
f 575/2/5 574/2/5 573/2/5
f 576/2/5 574/2/5 575/2/5
f 579/5/5 578/5/5 577/5/5
f 580/5/5 578/5/5 579/5/5
f 584/2/5 581/2/5 580/2/5
f 585/5/5 582/5/5 581/5/5
f 585/2/5 581/2/5 584/2/5
f 586/5/5 582/5/5 585/5/5
f 587/5/5 584/5/5 583/5/5
f 588/5/5 584/5/5 587/5/5
f 591/5/5 590/5/5 589/5/5
f 592/5/5 590/5/5 591/5/5
f 596/2/5 593/2/5 592/2/5
f 597/5/5 594/5/5 593/5/5
f 597/2/5 593/2/5 596/2/5
f 598/5/5 594/5/5 597/5/5
f 599/5/5 596/5/5 595/5/5
f 600/5/5 596/5/5 599/5/5
f 603/2/5 602/2/5 601/2/5
f 604/2/5 602/2/5 603/2/5
f 607/5/5 606/5/5 605/5/5
f 608/5/5 606/5/5 607/5/5
f 611/6/5 610/6/5 609/6/5
f 612/6/5 610/6/5 611/6/5
f 615/5/5 614/5/5 613/5/5
f 616/5/5 614/5/5 615/5/5
f 619/6/5 618/6/5 617/6/5
f 620/6/5 618/6/5 619/6/5
f 623/6/5 622/6/5 621/6/5
f 624/6/5 622/6/5 623/6/5
f 627/5/5 626/5/5 625/5/5
f 628/5/5 626/5/5 627/5/5
f 631/5/5 630/5/5 629/5/5
f 632/5/5 630/5/5 631/5/5
f 633/5/5 630/5/5 632/5/5
f 634/5/5 630/5/5 633/5/5
f 637/5/5 636/5/5 635/5/5
f 638/5/5 636/5/5 637/5/5
f 639/5/5 636/5/5 638/5/5
f 640/5/5 636/5/5 639/5/5
f 643/5/5 642/5/5 641/5/5
f 644/5/5 642/5/5 643/5/5
f 645/5/6 646/5/6 647/5/6
f 647/5/6 646/5/6 648/5/6
f 649/5/6 650/5/6 651/5/6
f 651/5/6 650/5/6 652/5/6
f 653/5/6 654/5/6 655/5/6
f 655/5/6 654/5/6 656/5/6
f 656/5/6 654/5/6 657/5/6
f 657/5/6 654/5/6 658/5/6
f 659/5/6 660/5/6 661/5/6
f 661/5/6 660/5/6 662/5/6
f 662/5/6 660/5/6 663/5/6
f 663/5/6 660/5/6 664/5/6
f 665/5/6 666/5/6 667/5/6
f 667/5/6 666/5/6 668/5/6
f 669/5/6 670/5/6 671/5/6
f 671/5/6 670/5/6 672/5/6
f 673/5/6 674/5/6 677/5/6
f 677/5/6 674/5/6 678/5/6
f 675/6/6 676/6/6 679/6/6
f 679/6/6 676/6/6 680/6/6
f 681/5/6 682/5/6 683/5/6
f 683/5/6 682/5/6 684/5/6
f 684/2/6 685/2/6 688/2/6
f 685/5/6 686/5/6 689/5/6
f 688/2/6 685/2/6 689/2/6
f 689/5/6 686/5/6 690/5/6
f 687/5/6 688/5/6 691/5/6
f 691/5/6 688/5/6 692/5/6
f 693/6/6 694/6/6 695/6/6
f 695/6/6 694/6/6 696/6/6
f 697/5/6 698/5/6 699/5/6
f 699/5/6 698/5/6 700/5/6
f 700/2/6 701/2/6 704/2/6
f 701/5/6 702/5/6 705/5/6
f 704/2/6 701/2/6 705/2/6
f 705/5/6 702/5/6 706/5/6
f 703/5/6 704/5/6 707/5/6
f 707/5/6 704/5/6 708/5/6
f 709/6/6 710/6/6 711/6/6
f 711/6/6 710/6/6 712/6/6
f 713/5/6 714/5/6 715/5/6
f 715/5/6 714/5/6 716/5/6
f 717/2/6 718/2/6 719/2/6
f 719/2/6 718/2/6 720/2/6
f 721/5/6 722/5/6 723/5/6
f 723/5/6 722/5/6 724/5/6
f 725/2/6 726/2/6 727/2/6
f 727/2/6 726/2/6 728/2/6
f 729/2/6 730/2/6 731/2/6
f 731/2/6 730/2/6 732/2/6
f 733/5/6 734/5/6 735/5/6
f 735/5/6 734/5/6 736/5/6
f 737/2/6 738/2/6 739/2/6
f 739/2/6 738/2/6 740/2/6
f 741/2/6 742/2/6 743/2/6
f 743/2/6 742/2/6 744/2/6
f 745/2/6 746/2/6 747/2/6
f 747/2/6 746/2/6 748/2/6
f 749/2/6 750/2/6 751/2/6
f 751/2/6 750/2/6 752/2/6
f 753/2/6 754/2/6 755/2/6
f 755/2/6 754/2/6 756/2/6
f 757/5/6 758/5/6 759/5/6
f 759/5/6 758/5/6 760/5/6
f 757/5/6 759/5/6 761/5/6
f 757/5/6 761/5/6 763/5/6
f 761/5/6 762/5/6 763/5/6
f 763/5/6 762/5/6 764/5/6
f 765/5/6 766/5/6 767/5/6
f 767/5/6 766/5/6 768/5/6
f 765/5/6 767/5/6 769/5/6
f 765/5/6 769/5/6 771/5/6
f 769/5/6 770/5/6 771/5/6
f 771/5/6 770/5/6 772/5/6
f 773/6/6 774/6/6 775/6/6
f 775/6/6 774/6/6 776/6/6
f 777/6/6 778/6/6 779/6/6
f 779/6/6 778/6/6 780/6/6
