# MagicaVoxel @ Ephtracy

# group
o 

# material
mtllib model.mtl
usemtl palette

# normals
vn 0 0 1
vn 0 0 -1
vn 1 0 0
vn -1 0 0
vn 0 -1 0
vn 0 1 0

# texcoords
vt 0.0292969 0.5
vt 0.552734 0.5
vt 0.572266 0.5

# verts
v 1.1 0.2 1.8
v -1.1 0.2 1.8
v 0.9 0.5 1.8
v -0.9 0.5 1.8
v 1.1 1.2 1.8
v 0.9 1.2 1.8
v -0.9 1.2 1.8
v -1.1 1.2 1.8
v 1.1 0 1.3
v -1.1 0 1.3
v 1.1 0.2 1.3
v -1.1 0.2 1.3
v 1.1 1.2 1.1
v 0.9 1.2 1.1
v -0.9 1.2 1.1
v -1.1 1.2 1.1
v 1.1 1.9 1.1
v 0.9 1.9 1.1
v -0.9 1.9 1.1
v -1.1 1.9 1.1
v 0.9 0.5 1
v -0.9 0.5 1
v 0.9 1.1 1
v -0.9 1.1 1
v 0.9 0.5 -1
v -0.9 0.5 -1
v 0.9 1.1 -1
v -0.9 1.1 -1
v 1.1 1.2 -1.1
v 0.9 1.2 -1.1
v -0.9 1.2 -1.1
v -1.1 1.2 -1.1
v 1.1 1.9 -1.1
v 0.9 1.9 -1.1
v -0.9 1.9 -1.1
v -1.1 1.9 -1.1
v 1.1 0 -1.3
v -1.1 0 -1.3
v 1.1 0.2 -1.3
v -1.1 0.2 -1.3
v 1.1 0.2 -1.8
v -1.1 0.2 -1.8
v 0.9 0.5 -1.8
v -0.9 0.5 -1.8
v 1.1 1.2 -1.8
v 0.9 1.2 -1.8
v -0.9 1.2 -1.8
v -1.1 1.2 -1.8
v 1.1 0.2 1.8
v 1.1 1.2 1.8
v 1.1 0.3 1.7
v 1.1 1.1 1.7
v 1.1 0 1.3
v 1.1 0.2 1.3
v 1.1 0.1 1.2
v 1.1 0.3 1.2
v 1.1 1.2 1.1
v 1.1 1.9 1.1
v 1.1 1.1 1
v 1.1 1.8 1
v 1.1 0.6 0.7
v 1.1 1.4 0.7
v 1.1 0.8 0.6
v 1.1 1.1 0.6
v 1.1 1.4 0.6
v 1.1 1.5 0.6
v 1.1 0.4 0.5
v 1.1 0.6 0.5
v 1.1 0.8 0.5
v 1.1 0.9 0.5
v 1.1 1.1 0.5
v 1.1 1.2 0.5
v 1.1 1.5 0.5
v 1.1 1.6 0.5
v 1.1 0.3 0.4
v 1.1 0.4 0.4
v 1.1 0.3 0.2
v 1.1 0.4 0.2
v 1.1 0.8 0.2
v 1.1 0.9 0.2
v 1.1 0.3 0.1
v 1.1 0.4 0.1
v 1.1 0.6 0.1
v 1.1 0.7 0.1
v 1.1 0.8 0.1
v 1.1 1.2 0.1
v 1.1 0.3 -0.0999999
v 1.1 0.4 -0.0999999
v 1.1 0.6 -0.0999999
v 1.1 0.7 -0.0999999
v 1.1 0.8 -0.0999999
v 1.1 1.2 -0.0999999
v 1.1 0.3 -0.2
v 1.1 0.4 -0.2
v 1.1 0.8 -0.2
v 1.1 0.9 -0.2
v 1.1 0.3 -0.4
v 1.1 0.4 -0.4
v 1.1 0.4 -0.5
v 1.1 0.6 -0.5
v 1.1 0.8 -0.5
v 1.1 0.9 -0.5
v 1.1 1.1 -0.5
v 1.1 1.2 -0.5
v 1.1 1.5 -0.5
v 1.1 1.6 -0.5
v 1.1 0.8 -0.6
v 1.1 1.1 -0.6
v 1.1 1.4 -0.6
v 1.1 1.5 -0.6
v 1.1 0.6 -0.7
v 1.1 1.4 -0.7
v 1.1 1.1 -1
v 1.1 1.8 -1
v 1.1 1.2 -1.1
v 1.1 1.9 -1.1
v 1.1 0.1 -1.2
v 1.1 0.3 -1.2
v 1.1 0 -1.3
v 1.1 0.2 -1.3
v 1.1 0.3 -1.7
v 1.1 1.1 -1.7
v 1.1 0.2 -1.8
v 1.1 1.2 -1.8
v -0.9 0.5 1.8
v -0.9 1.2 1.8
v -0.9 0.5 1.7
v -0.9 1.1 1.7
v -0.9 1.2 1.1
v -0.9 1.9 1.1
v -0.9 0.5 1
v -0.9 1.1 1
v -0.9 1.8 1
v -0.9 0.5 -1
v -0.9 1.1 -1
v -0.9 1.8 -1
v -0.9 1.2 -1.1
v -0.9 1.9 -1.1
v -0.9 0.5 -1.7
v -0.9 1.1 -1.7
v -0.9 0.5 -1.8
v -0.9 1.2 -1.8
v 0.9 0.5 1.8
v 0.9 1.2 1.8
v 0.9 0.5 1.7
v 0.9 1.1 1.7
v 0.9 1.2 1.1
v 0.9 1.9 1.1
v 0.9 0.5 1
v 0.9 1.1 1
v 0.9 1.8 1
v 0.9 0.5 -1
v 0.9 1.1 -1
v 0.9 1.8 -1
v 0.9 1.2 -1.1
v 0.9 1.9 -1.1
v 0.9 0.5 -1.7
v 0.9 1.1 -1.7
v 0.9 0.5 -1.8
v 0.9 1.2 -1.8
v -1.1 0.2 1.8
v -1.1 1.2 1.8
v -1.1 0.3 1.7
v -1.1 1.1 1.7
v -1.1 0 1.3
v -1.1 0.2 1.3
v -1.1 0.1 1.2
v -1.1 0.3 1.2
v -1.1 1.2 1.1
v -1.1 1.9 1.1
v -1.1 1.1 1
v -1.1 1.8 1
v -1.1 1.1 -1
v -1.1 1.8 -1
v -1.1 1.2 -1.1
v -1.1 1.9 -1.1
v -1.1 0.1 -1.2
v -1.1 0.3 -1.2
v -1.1 0 -1.3
v -1.1 0.2 -1.3
v -1.1 0.3 -1.7
v -1.1 1.1 -1.7
v -1.1 0.2 -1.8
v -1.1 1.2 -1.8
v 1.1 0 1.3
v 1.1 0 -1.3
v -1.1 0 1.3
v -1.1 0 -1.3
v 1.1 0.2 1.8
v 1.1 0.2 1.3
v 1.1 0.2 -1.3
v 1.1 0.2 -1.8
v -1.1 0.2 1.8
v -1.1 0.2 1.3
v -1.1 0.2 -1.3
v -1.1 0.2 -1.8
v 0.9 0.5 1.8
v 0.9 0.5 1.7
v 0.9 0.5 1
v 0.9 0.5 -1
v 0.9 0.5 -1.7
v 0.9 0.5 -1.8
v -0.9 0.5 1.8
v -0.9 0.5 1.7
v -0.9 0.5 1
v -0.9 0.5 -1
v -0.9 0.5 -1.7
v -0.9 0.5 -1.8
v 0.9 1.1 1
v 0.9 1.1 -1
v -0.9 1.1 1
v -0.9 1.1 -1
v 1.1 1.2 1.8
v 1.1 1.2 1.1
v 1.1 1.2 -1.1
v 1.1 1.2 -1.8
v 0.9 1.2 1.8
v 0.9 1.2 1.1
v 0.9 1.2 -1.1
v 0.9 1.2 -1.8
v -0.9 1.2 1.8
v -0.9 1.2 1.1
v -0.9 1.2 -1.1
v -0.9 1.2 -1.8
v -1.1 1.2 1.8
v -1.1 1.2 1.1
v -1.1 1.2 -1.1
v -1.1 1.2 -1.8
v 1.1 1.9 1.1
v 1.1 1.9 -1.1
v 0.9 1.9 1.1
v 0.9 1.9 -1.1
v -0.9 1.9 1.1
v -0.9 1.9 -1.1
v -1.1 1.9 1.1
v -1.1 1.9 -1.1

# faces
f 3/2/1 2/2/1 1/2/1
f 4/2/1 2/2/1 3/2/1
f 5/2/1 3/2/1 1/2/1
f 6/2/1 3/2/1 5/2/1
f 7/2/1 2/2/1 4/2/1
f 8/2/1 2/2/1 7/2/1
f 11/2/1 10/2/1 9/2/1
f 12/2/1 10/2/1 11/2/1
f 17/2/1 14/2/1 13/2/1
f 18/2/1 14/2/1 17/2/1
f 19/2/1 16/2/1 15/2/1
f 20/2/1 16/2/1 19/2/1
f 23/3/1 22/3/1 21/3/1
f 24/3/1 22/3/1 23/3/1
f 25/3/2 26/3/2 27/3/2
f 27/3/2 26/3/2 28/3/2
f 29/2/2 30/2/2 33/2/2
f 33/2/2 30/2/2 34/2/2
f 31/2/2 32/2/2 35/2/2
f 35/2/2 32/2/2 36/2/2
f 37/2/2 38/2/2 39/2/2
f 39/2/2 38/2/2 40/2/2
f 41/2/2 42/2/2 43/2/2
f 43/2/2 42/2/2 44/2/2
f 41/2/2 43/2/2 45/2/2
f 45/2/2 43/2/2 46/2/2
f 44/2/2 42/2/2 47/2/2
f 47/2/2 42/2/2 48/2/2
f 51/2/3 50/2/3 49/2/3
f 52/2/3 50/2/3 51/2/3
f 54/2/3 51/2/3 49/2/3
f 55/2/3 54/2/3 53/2/3
f 56/3/3 52/3/3 51/3/3
f 56/2/3 54/2/3 55/2/3
f 56/2/3 51/2/3 54/2/3
f 57/2/3 50/2/3 52/2/3
f 59/3/3 52/3/3 56/3/3
f 59/2/3 58/2/3 57/2/3
f 59/2/3 57/2/3 52/2/3
f 59/3/3 56/3/3 55/3/3
f 60/2/3 58/2/3 59/2/3
f 61/3/3 59/3/3 55/3/3
f 61/3/3 60/3/3 59/3/3
f 62/3/3 60/3/3 61/3/3
f 63/1/3 62/1/3 61/1/3
f 64/1/3 62/1/3 63/1/3
f 65/3/3 60/3/3 62/3/3
f 65/1/3 62/1/3 64/1/3
f 66/3/3 60/3/3 65/3/3
f 67/3/3 61/3/3 55/3/3
f 68/1/3 63/1/3 61/1/3
f 68/3/3 61/3/3 67/3/3
f 69/3/3 64/3/3 63/3/3
f 69/1/3 63/1/3 68/1/3
f 70/3/3 64/3/3 69/3/3
f 71/1/3 65/1/3 64/1/3
f 71/3/3 64/3/3 70/3/3
f 71/1/3 66/1/3 65/1/3
f 72/1/3 66/1/3 71/1/3
f 73/3/3 60/3/3 66/3/3
f 73/1/3 66/1/3 72/1/3
f 74/3/3 60/3/3 73/3/3
f 75/3/3 67/3/3 55/3/3
f 76/1/3 68/1/3 67/1/3
f 76/3/3 67/3/3 75/3/3
f 76/1/3 70/1/3 69/1/3
f 76/1/3 69/1/3 68/1/3
f 77/3/3 75/3/3 55/3/3
f 77/1/3 76/1/3 75/1/3
f 78/1/3 70/1/3 76/1/3
f 78/1/3 76/1/3 77/1/3
f 79/1/3 70/1/3 78/1/3
f 80/3/3 72/3/3 71/3/3
f 80/1/3 70/1/3 79/1/3
f 80/3/3 71/3/3 70/3/3
f 81/3/3 77/3/3 55/3/3
f 81/3/3 78/3/3 77/3/3
f 82/1/3 79/1/3 78/1/3
f 82/3/3 78/3/3 81/3/3
f 83/1/3 79/1/3 82/1/3
f 84/1/3 79/1/3 83/1/3
f 85/3/3 80/3/3 79/3/3
f 85/1/3 79/1/3 84/1/3
f 86/3/3 72/3/3 80/3/3
f 86/3/3 80/3/3 85/3/3
f 86/1/3 74/1/3 73/1/3
f 86/1/3 73/1/3 72/1/3
f 87/3/3 81/3/3 55/3/3
f 87/1/3 83/1/3 82/1/3
f 87/1/3 82/1/3 81/1/3
f 88/1/3 83/1/3 87/1/3
f 89/3/3 84/3/3 83/3/3
f 89/1/3 83/1/3 88/1/3
f 90/1/3 85/1/3 84/1/3
f 90/3/3 84/3/3 89/3/3
f 90/1/3 86/1/3 85/1/3
f 91/1/3 86/1/3 90/1/3
f 92/1/3 74/1/3 86/1/3
f 92/1/3 86/1/3 91/1/3
f 93/3/3 87/3/3 55/3/3
f 93/3/3 88/3/3 87/3/3
f 94/1/3 91/1/3 90/1/3
f 94/3/3 88/3/3 93/3/3
f 94/1/3 89/1/3 88/1/3
f 94/1/3 90/1/3 89/1/3
f 95/3/3 92/3/3 91/3/3
f 95/1/3 91/1/3 94/1/3
f 96/3/3 92/3/3 95/3/3
f 97/3/3 93/3/3 55/3/3
f 97/1/3 94/1/3 93/1/3
f 97/1/3 96/1/3 95/1/3
f 97/1/3 95/1/3 94/1/3
f 98/1/3 96/1/3 97/1/3
f 99/3/3 98/3/3 97/3/3
f 99/1/3 96/1/3 98/1/3
f 100/1/3 96/1/3 99/1/3
f 101/1/3 96/1/3 100/1/3
f 102/3/3 92/3/3 96/3/3
f 102/1/3 96/1/3 101/1/3
f 103/3/3 92/3/3 102/3/3
f 104/1/3 74/1/3 92/1/3
f 104/3/3 92/3/3 103/3/3
f 105/1/3 74/1/3 104/1/3
f 106/3/3 60/3/3 74/3/3
f 106/1/3 74/1/3 105/1/3
f 107/1/3 101/1/3 100/1/3
f 107/3/3 103/3/3 102/3/3
f 107/3/3 102/3/3 101/3/3
f 108/1/3 105/1/3 104/1/3
f 108/3/3 103/3/3 107/3/3
f 108/1/3 104/1/3 103/1/3
f 109/1/3 105/1/3 108/1/3
f 110/3/3 106/3/3 105/3/3
f 110/1/3 105/1/3 109/1/3
f 111/1/3 109/1/3 108/1/3
f 111/1/3 107/1/3 100/1/3
f 111/3/3 100/3/3 99/3/3
f 111/1/3 108/1/3 107/1/3
f 112/3/3 110/3/3 109/3/3
f 112/1/3 109/1/3 111/1/3
f 113/3/3 112/3/3 111/3/3
f 114/2/3 58/2/3 60/2/3
f 114/3/3 112/3/3 113/3/3
f 114/3/3 60/3/3 106/3/3
f 114/3/3 110/3/3 112/3/3
f 114/3/3 106/3/3 110/3/3
f 115/2/3 114/2/3 113/2/3
f 116/2/3 58/2/3 114/2/3
f 116/2/3 114/2/3 115/2/3
f 117/2/3 55/2/3 53/2/3
f 117/3/3 113/3/3 111/3/3
f 117/3/3 99/3/3 97/3/3
f 117/3/3 111/3/3 99/3/3
f 117/3/3 97/3/3 55/3/3
f 118/3/3 113/3/3 117/3/3
f 119/2/3 117/2/3 53/2/3
f 119/2/3 118/2/3 117/2/3
f 120/2/3 118/2/3 119/2/3
f 121/3/3 113/3/3 118/3/3
f 121/2/3 118/2/3 120/2/3
f 122/2/3 115/2/3 113/2/3
f 122/3/3 113/3/3 121/3/3
f 123/2/3 121/2/3 120/2/3
f 123/2/3 122/2/3 121/2/3
f 124/2/3 115/2/3 122/2/3
f 124/2/3 122/2/3 123/2/3
f 127/2/3 126/2/3 125/2/3
f 128/2/3 126/2/3 127/2/3
f 129/2/3 126/2/3 128/2/3
f 131/3/3 128/3/3 127/3/3
f 132/2/3 130/2/3 129/2/3
f 132/3/3 128/3/3 131/3/3
f 132/2/3 129/2/3 128/2/3
f 133/2/3 130/2/3 132/2/3
f 135/3/3 133/3/3 132/3/3
f 136/2/3 130/2/3 133/2/3
f 136/3/3 133/3/3 135/3/3
f 137/2/3 136/2/3 135/2/3
f 138/2/3 130/2/3 136/2/3
f 138/2/3 136/2/3 137/2/3
f 139/3/3 135/3/3 134/3/3
f 140/2/3 137/2/3 135/2/3
f 140/3/3 135/3/3 139/3/3
f 141/2/3 140/2/3 139/2/3
f 142/2/3 137/2/3 140/2/3
f 142/2/3 140/2/3 141/2/3
f 143/2/4 144/2/4 145/2/4
f 145/2/4 144/2/4 146/2/4
f 146/2/4 144/2/4 147/2/4
f 145/3/4 146/3/4 149/3/4
f 147/2/4 148/2/4 150/2/4
f 149/3/4 146/3/4 150/3/4
f 146/2/4 147/2/4 150/2/4
f 150/2/4 148/2/4 151/2/4
f 150/3/4 151/3/4 153/3/4
f 151/2/4 148/2/4 154/2/4
f 153/3/4 151/3/4 154/3/4
f 153/2/4 154/2/4 155/2/4
f 154/2/4 148/2/4 156/2/4
f 155/2/4 154/2/4 156/2/4
f 152/3/4 153/3/4 157/3/4
f 153/2/4 155/2/4 158/2/4
f 157/3/4 153/3/4 158/3/4
f 157/2/4 158/2/4 159/2/4
f 158/2/4 155/2/4 160/2/4
f 159/2/4 158/2/4 160/2/4
f 161/2/4 162/2/4 163/2/4
f 163/2/4 162/2/4 164/2/4
f 161/2/4 163/2/4 166/2/4
f 165/2/4 166/2/4 167/2/4
f 163/3/4 164/3/4 168/3/4
f 167/2/4 166/2/4 168/2/4
f 166/2/4 163/2/4 168/2/4
f 164/2/4 162/2/4 169/2/4
f 168/3/4 164/3/4 171/3/4
f 169/2/4 170/2/4 171/2/4
f 164/2/4 169/2/4 171/2/4
f 167/3/4 168/3/4 171/3/4
f 171/2/4 170/2/4 172/2/4
f 167/3/4 171/3/4 173/3/4
f 171/3/4 172/3/4 173/3/4
f 172/2/4 170/2/4 174/2/4
f 173/3/4 172/3/4 174/3/4
f 173/2/4 174/2/4 175/2/4
f 174/2/4 170/2/4 176/2/4
f 175/2/4 174/2/4 176/2/4
f 165/2/4 167/2/4 177/2/4
f 167/3/4 173/3/4 177/3/4
f 177/3/4 173/3/4 178/3/4
f 165/2/4 177/2/4 179/2/4
f 177/2/4 178/2/4 179/2/4
f 179/2/4 178/2/4 180/2/4
f 178/3/4 173/3/4 181/3/4
f 180/2/4 178/2/4 181/2/4
f 173/2/4 175/2/4 182/2/4
f 181/3/4 173/3/4 182/3/4
f 180/2/4 181/2/4 183/2/4
f 181/2/4 182/2/4 183/2/4
f 182/2/4 175/2/4 184/2/4
f 183/2/4 182/2/4 184/2/4
f 187/2/5 186/2/5 185/2/5
f 188/2/5 186/2/5 187/2/5
f 193/2/5 190/2/5 189/2/5
f 194/2/5 190/2/5 193/2/5
f 195/2/5 192/2/5 191/2/5
f 196/2/5 192/2/5 195/2/5
f 197/2/6 198/2/6 203/2/6
f 198/3/6 199/3/6 204/3/6
f 203/2/6 198/2/6 204/2/6
f 204/3/6 199/3/6 205/3/6
f 200/3/6 201/3/6 206/3/6
f 201/2/6 202/2/6 207/2/6
f 206/3/6 201/3/6 207/3/6
f 207/2/6 202/2/6 208/2/6
f 209/3/6 210/3/6 211/3/6
f 211/3/6 210/3/6 212/3/6
f 213/2/6 214/2/6 217/2/6
f 217/2/6 214/2/6 218/2/6
f 215/2/6 216/2/6 219/2/6
f 219/2/6 216/2/6 220/2/6
f 221/2/6 222/2/6 225/2/6
f 225/2/6 222/2/6 226/2/6
f 223/2/6 224/2/6 227/2/6
f 227/2/6 224/2/6 228/2/6
f 229/2/6 230/2/6 231/2/6
f 231/2/6 230/2/6 232/2/6
f 233/2/6 234/2/6 235/2/6
f 235/2/6 234/2/6 236/2/6
