# MagicaVoxel @ Ephtracy

# group
o 

# material
mtllib model-0.mtl
usemtl palette

# normals
vn -1 0 0
vn 1 0 0
vn 0 0 -1
vn 0 0 1
vn 0 -1 0
vn 0 1 0

# texcoords
vt 0.0253906 0.5
vt 0.611328 0.5

# verts
v -0.5 0 -0.9
v -0.5 0 -0.2
v -0.5 0.1 -0.9
v -0.5 0.1 -0.2
v -0.5 0.7 -0.9
v -0.5 0.7 -0.2
v 0.3 0.4 -0.9
v 0.3 0.4 -0.2
v 0.3 0.7 -0.9
v 0.3 0.7 -0.2
v 0.7 0 -0.9
v 0.7 0 -0.8
v 0.7 0 -0.6
v 0.7 0 -0.5
v 0.7 0 -0.3
v 0.7 0 -0.2
v 0.7 0.1 -0.9
v 0.7 0.1 -0.8
v 0.7 0.1 -0.6
v 0.7 0.1 -0.5
v 0.7 0.1 -0.3
v 0.7 0.1 -0.2
v 0.7 0.4 -0.9
v 0.7 0.4 -0.8
v 0.7 0.4 -0.6
v 0.7 0.4 -0.5
v 0.7 0.4 -0.3
v 0.7 0.4 -0.2
v 0.8 0 -0.8
v 0.8 0 -0.6
v 0.8 0 -0.5
v 0.8 0 -0.3
v 0.8 0.1 -0.8
v 0.8 0.1 -0.6
v 0.8 0.1 -0.5
v 0.8 0.1 -0.3
v 0.8 0.4 -0.8
v 0.8 0.4 -0.6
v 0.8 0.4 -0.5
v 0.8 0.4 -0.3
v -0.5 0 -0.9
v -0.5 0.1 -0.9
v -0.5 0.7 -0.9
v 0.3 0.4 -0.9
v 0.3 0.7 -0.9
v 0.7 0 -0.9
v 0.7 0.1 -0.9
v 0.7 0.4 -0.9
v 0.7 0 -0.8
v 0.7 0.1 -0.8
v 0.7 0.4 -0.8
v 0.8 0 -0.8
v 0.8 0.1 -0.8
v 0.8 0.4 -0.8
v 0.7 0 -0.5
v 0.7 0.1 -0.5
v 0.7 0.4 -0.5
v 0.8 0 -0.5
v 0.8 0.1 -0.5
v 0.8 0.4 -0.5
v 0.7 0 -0.6
v 0.7 0.1 -0.6
v 0.7 0.4 -0.6
v 0.8 0 -0.6
v 0.8 0.1 -0.6
v 0.8 0.4 -0.6
v 0.7 0 -0.3
v 0.7 0.1 -0.3
v 0.7 0.4 -0.3
v 0.8 0 -0.3
v 0.8 0.1 -0.3
v 0.8 0.4 -0.3
v -0.5 0 -0.2
v -0.5 0.1 -0.2
v -0.5 0.7 -0.2
v 0.3 0.4 -0.2
v 0.3 0.7 -0.2
v 0.7 0 -0.2
v 0.7 0.1 -0.2
v 0.7 0.4 -0.2
v -0.5 0 -0.9
v 0.7 0 -0.9
v 0.7 0 -0.8
v 0.8 0 -0.8
v 0.7 0 -0.6
v 0.8 0 -0.6
v 0.7 0 -0.5
v 0.8 0 -0.5
v 0.7 0 -0.3
v 0.8 0 -0.3
v -0.5 0 -0.2
v 0.7 0 -0.2
v 0.3 0.4 -0.9
v 0.7 0.4 -0.9
v 0.7 0.4 -0.8
v 0.8 0.4 -0.8
v 0.7 0.4 -0.6
v 0.8 0.4 -0.6
v 0.7 0.4 -0.5
v 0.8 0.4 -0.5
v 0.7 0.4 -0.3
v 0.8 0.4 -0.3
v 0.3 0.4 -0.2
v 0.7 0.4 -0.2
v -0.5 0.7 -0.9
v 0.3 0.7 -0.9
v -0.5 0.7 -0.2
v 0.3 0.7 -0.2

# faces
f 1/2/1 2/2/1 3/2/1
f 3/2/1 2/2/1 4/2/1
f 3/1/1 4/1/1 5/1/1
f 5/1/1 4/1/1 6/1/1
f 9/1/2 8/1/2 7/1/2
f 10/1/2 8/1/2 9/1/2
f 17/2/2 12/2/2 11/2/2
f 18/2/2 12/2/2 17/2/2
f 19/2/2 14/2/2 13/2/2
f 20/2/2 14/2/2 19/2/2
f 21/2/2 16/2/2 15/2/2
f 22/2/2 16/2/2 21/2/2
f 23/1/2 18/1/2 17/1/2
f 24/1/2 18/1/2 23/1/2
f 25/1/2 20/1/2 19/1/2
f 26/1/2 20/1/2 25/1/2
f 27/1/2 22/1/2 21/1/2
f 28/1/2 22/1/2 27/1/2
f 33/2/2 30/2/2 29/2/2
f 34/2/2 30/2/2 33/2/2
f 35/2/2 32/2/2 31/2/2
f 36/2/2 32/2/2 35/2/2
f 37/1/2 34/1/2 33/1/2
f 38/1/2 34/1/2 37/1/2
f 39/1/2 36/1/2 35/1/2
f 40/1/2 36/1/2 39/1/2
f 42/1/3 43/1/3 44/1/3
f 44/1/3 43/1/3 45/1/3
f 41/2/3 42/2/3 46/2/3
f 42/1/3 44/1/3 47/1/3
f 46/2/3 42/2/3 47/2/3
f 47/1/3 44/1/3 48/1/3
f 49/2/3 50/2/3 52/2/3
f 50/1/3 51/1/3 53/1/3
f 52/2/3 50/2/3 53/2/3
f 53/1/3 51/1/3 54/1/3
f 55/2/3 56/2/3 58/2/3
f 56/1/3 57/1/3 59/1/3
f 58/2/3 56/2/3 59/2/3
f 59/1/3 57/1/3 60/1/3
f 64/2/4 62/2/4 61/2/4
f 65/1/4 63/1/4 62/1/4
f 65/2/4 62/2/4 64/2/4
f 66/1/4 63/1/4 65/1/4
f 70/2/4 68/2/4 67/2/4
f 71/1/4 69/1/4 68/1/4
f 71/2/4 68/2/4 70/2/4
f 72/1/4 69/1/4 71/1/4
f 76/1/4 75/1/4 74/1/4
f 77/1/4 75/1/4 76/1/4
f 78/2/4 74/2/4 73/2/4
f 79/1/4 76/1/4 74/1/4
f 79/2/4 74/2/4 78/2/4
f 80/1/4 76/1/4 79/1/4
f 81/2/5 82/2/5 83/2/5
f 81/2/5 83/2/5 85/2/5
f 83/2/5 84/2/5 85/2/5
f 85/2/5 84/2/5 86/2/5
f 81/2/5 85/2/5 87/2/5
f 81/2/5 87/2/5 89/2/5
f 87/2/5 88/2/5 89/2/5
f 89/2/5 88/2/5 90/2/5
f 81/2/5 89/2/5 91/2/5
f 91/2/5 89/2/5 92/2/5
f 95/1/6 94/1/6 93/1/6
f 97/1/6 95/1/6 93/1/6
f 97/1/6 96/1/6 95/1/6
f 98/1/6 96/1/6 97/1/6
f 99/1/6 97/1/6 93/1/6
f 101/1/6 99/1/6 93/1/6
f 101/1/6 100/1/6 99/1/6
f 102/1/6 100/1/6 101/1/6
f 103/1/6 101/1/6 93/1/6
f 104/1/6 101/1/6 103/1/6
f 107/1/6 106/1/6 105/1/6
f 108/1/6 106/1/6 107/1/6
