# MagicaVoxel @ Ephtracy

# group
o 

# material
mtllib model.mtl
usemtl palette

# normals
vn 0 0 1
vn 0 0 -1
vn 1 0 0
vn -1 0 0
vn 0 -1 0
vn 0 1 0

# texcoords
vt 0.0253906 0.5
vt 0.0292969 0.5
vt 0.0371094 0.5
vt 0.583984 0.5

# verts
v 0.7 0 2
v 0.3 0 2
v 0.6 0.2 2
v 0.4 0.2 2
v -0.0999999 0.2 2
v -0.5 0.2 2
v 0.6 0.4 2
v 0.4 0.4 2
v -0.2 0.4 2
v -0.4 0.4 2
v 0.7 0.5 2
v 0.3 0.5 2
v -0.2 0.6 2
v -0.4 0.6 2
v -0.0999999 0.7 2
v -0.5 0.7 2
v 1.1 1.9 1.6
v -1.1 1.9 1.6
v 1.1 2.2 1.6
v -1.1 2.2 1.6
v 0.7 0.3 1.5
v 0.3 0.3 1.5
v -0.0999999 0.5 1.5
v -0.5 0.5 1.5
v 0.7 1.9 1.5
v 0.3 1.9 1.5
v -0.0999999 1.9 1.5
v -0.5 1.9 1.5
v 1 2.2 1.5
v -1 2.2 1.5
v 1 2.7 1.5
v -1 2.7 1.5
v 1 2.9 1.5
v -1 2.9 1.5
v 1 3.5 1.5
v -1 3.5 1.5
v 1.3 1.9 1.4
v 1.1 1.9 1.4
v -1.1 1.9 1.4
v -1.3 1.9 1.4
v 1.3 2.2 1.4
v 1.1 2.2 1.4
v -1.1 2.2 1.4
v -1.3 2.2 1.4
v 1.2 2.2 1.3
v 1 2.2 1.3
v -1 2.2 1.3
v -1.2 2.2 1.3
v 1.2 2.7 1.3
v 1 2.7 1.3
v -1 2.7 1.3
v -1.2 2.7 1.3
v 1.2 2.9 1.3
v 1 2.9 1.3
v -1 2.9 1.3
v -1.2 2.9 1.3
v 1.2 3.5 1.3
v 1 3.5 1.3
v 0.8 3.5 1.3
v -0.8 3.5 1.3
v -1 3.5 1.3
v -1.2 3.5 1.3
v 0.8 3.8 1.3
v -0.8 3.8 1.3
v -0.9 0.1 1.1
v -1.7 0.1 1.1
v -0.9 0.2 1.1
v -1.6 0.2 1.1
v -1.2 0.4 1.1
v -1.5 0.4 1.1
v -1.5 0.6 1.1
v -1.6 0.6 1.1
v -1.7 0.6 1.1
v -0.9 1.9 1.1
v -1.2 1.9 1.1
v 1 3.5 1.1
v 0.8 3.5 1.1
v -0.8 3.5 1.1
v -1 3.5 1.1
v 1 3.8 1.1
v 0.8 3.8 1.1
v -0.8 3.8 1.1
v -1 3.8 1.1
v 1.3 2.2 0.8
v 1.2 2.2 0.8
v 1.3 2.7 0.8
v 1.2 2.7 0.8
v 0.3 3.8 0.8
v -0.3 3.8 0.8
v 0.3 4 0.8
v -0.3 4 0.8
v 0.5 3.8 0.6
v 0.3 3.8 0.6
v -0.3 3.8 0.6
v -0.5 3.8 0.6
v 0.5 4 0.6
v 0.3 4 0.6
v -0.3 4 0.6
v -0.5 4 0.6
v -0.9 0.2 0.5
v -1.7 0.2 0.5
v -0.9 0.3 0.5
v -1.6 0.3 0.5
v -1.2 0.5 0.5
v -1.5 0.5 0.5
v -1.5 0.7 0.5
v -1.6 0.7 0.5
v -1.7 0.7 0.5
v -0.9 1.9 0.5
v -1.2 1.9 0.5
v -0.9 0 -0.1
v -1.7 0 -0.1
v -0.9 0.1 -0.1
v -1.6 0.1 -0.1
v -1.2 0.3 -0.1
v -1.5 0.3 -0.1
v -1.5 0.5 -0.1
v -1.6 0.5 -0.1
v -1.7 0.5 -0.1
v -0.9 1.9 -0.1
v -1.2 1.9 -0.1
v 1.3 2.2 -0.2
v 1.2 2.2 -0.2
v 1.2 2.7 -0.2
v 1.3 2.9 -0.2
v 1.2 2.9 -0.2
v -0.9 0.1 -0.7
v -1.7 0.1 -0.7
v -0.9 0.2 -0.7
v -1.6 0.2 -0.7
v -1.2 0.4 -0.7
v -1.5 0.4 -0.7
v -1.5 0.6 -0.7
v -1.6 0.6 -0.7
v -1.7 0.6 -0.7
v -0.9 1.9 -0.7
v -1.2 1.9 -0.7
v 0.7 0 -1.2
v 0.3 0 -1.2
v -0.0999999 0.2 -1.2
v -0.5 0.2 -1.2
v 0.7 1.9 -1.2
v 0.3 1.9 -1.2
v -0.0999999 1.9 -1.2
v -0.5 1.9 -1.2
v 0.7 0.3 -1.8
v 0.3 0.3 -1.8
v 0.7 0.5 -1.8
v 0.3 0.5 -1.8
v -0.0999999 0.5 -1.8
v -0.5 0.5 -1.8
v -0.0999999 0.7 -1.8
v -0.5 0.7 -1.8
v 0.7 0.3 1.8
v 0.3 0.3 1.8
v 0.7 0.5 1.8
v 0.3 0.5 1.8
v -0.0999999 0.5 1.8
v -0.5 0.5 1.8
v -0.0999999 0.7 1.8
v -0.5 0.7 1.8
v 0.7 0 1.2
v 0.3 0 1.2
v -0.0999999 0.2 1.2
v -0.5 0.2 1.2
v 0.7 1.9 1.2
v 0.3 1.9 1.2
v -0.0999999 1.9 1.2
v -0.5 1.9 1.2
v -0.9 0.1 0.7
v -1.7 0.1 0.7
v -0.9 0.2 0.7
v -1.6 0.2 0.7
v -1.2 0.4 0.7
v -1.5 0.4 0.7
v -1.5 0.6 0.7
v -1.6 0.6 0.7
v -1.7 0.6 0.7
v -0.9 1.9 0.7
v -1.2 1.9 0.7
v 1.3 2.2 0.3
v 1.2 2.2 0.3
v 1.3 2.7 0.3
v 1.2 2.7 0.3
v -0.9 0.2 0.0999999
v -1.7 0.2 0.0999999
v -0.9 0.3 0.0999999
v -1.6 0.3 0.0999999
v -1.2 0.5 0.0999999
v -1.5 0.5 0.0999999
v -1.5 0.7 0.0999999
v -1.6 0.7 0.0999999
v -1.7 0.7 0.0999999
v -0.9 1.9 0.0999999
v -1.2 1.9 0.0999999
v -0.9 0 -0.5
v -1.7 0 -0.5
v -0.9 0.1 -0.5
v -1.6 0.1 -0.5
v -1.2 0.3 -0.5
v -1.5 0.3 -0.5
v -1.5 0.5 -0.5
v -1.6 0.5 -0.5
v -1.7 0.5 -0.5
v -0.9 1.9 -0.5
v -1.2 1.9 -0.5
v 0.5 3.8 -0.6
v 0.3 3.8 -0.6
v -0.3 3.8 -0.6
v -0.5 3.8 -0.6
v 0.5 4 -0.6
v 0.3 4 -0.6
v -0.3 4 -0.6
v -0.5 4 -0.6
v 0.3 3.8 -0.8
v -0.3 3.8 -0.8
v 0.3 4 -0.8
v -0.3 4 -0.8
v 1.3 2.2 -0.9
v 1.2 2.2 -0.9
v 1.2 2.7 -0.9
v 1.3 2.9 -0.9
v 1.2 2.9 -0.9
v -0.9 0.1 -1.1
v -1.7 0.1 -1.1
v -0.9 0.2 -1.1
v -1.6 0.2 -1.1
v -1.2 0.4 -1.1
v -1.5 0.4 -1.1
v -1.5 0.6 -1.1
v -1.6 0.6 -1.1
v -1.7 0.6 -1.1
v -0.9 1.9 -1.1
v -1.2 1.9 -1.1
v 1 3.5 -1.1
v 0.8 3.5 -1.1
v -0.8 3.5 -1.1
v -1 3.5 -1.1
v 1 3.8 -1.1
v 0.8 3.8 -1.1
v -0.8 3.8 -1.1
v -1 3.8 -1.1
v 1.2 2.2 -1.3
v 1 2.2 -1.3
v -1 2.2 -1.3
v -1.2 2.2 -1.3
v 1.2 2.7 -1.3
v 1 2.7 -1.3
v -1 2.7 -1.3
v -1.2 2.7 -1.3
v 1.2 2.9 -1.3
v 1 2.9 -1.3
v -1 2.9 -1.3
v -1.2 2.9 -1.3
v 1.2 3.5 -1.3
v 1 3.5 -1.3
v 0.8 3.5 -1.3
v -0.8 3.5 -1.3
v -1 3.5 -1.3
v -1.2 3.5 -1.3
v 0.8 3.8 -1.3
v -0.8 3.8 -1.3
v 1.3 1.9 -1.4
v 1.1 1.9 -1.4
v -1.1 1.9 -1.4
v -1.3 1.9 -1.4
v 1.3 2.2 -1.4
v 1.1 2.2 -1.4
v -1.1 2.2 -1.4
v -1.3 2.2 -1.4
v 0.7 0.3 -1.5
v 0.3 0.3 -1.5
v -0.0999999 0.5 -1.5
v -0.5 0.5 -1.5
v 0.7 1.9 -1.5
v 0.3 1.9 -1.5
v -0.0999999 1.9 -1.5
v -0.5 1.9 -1.5
v 1 2.2 -1.5
v -1 2.2 -1.5
v 1 2.7 -1.5
v -1 2.7 -1.5
v 1 2.9 -1.5
v -1 2.9 -1.5
v 1 3.5 -1.5
v -1 3.5 -1.5
v 1.1 1.9 -1.6
v -1.1 1.9 -1.6
v 1.1 2.2 -1.6
v -1.1 2.2 -1.6
v 0.7 0 -2
v 0.3 0 -2
v 0.6 0.2 -2
v 0.4 0.2 -2
v -0.0999999 0.2 -2
v -0.5 0.2 -2
v 0.6 0.4 -2
v 0.4 0.4 -2
v -0.2 0.4 -2
v -0.4 0.4 -2
v 0.7 0.5 -2
v 0.3 0.5 -2
v -0.2 0.6 -2
v -0.4 0.6 -2
v -0.0999999 0.7 -2
v -0.5 0.7 -2
v 1.3 1.9 1.4
v 1.3 2.2 1.4
v 1.3 2.2 0.8
v 1.3 2.7 0.8
v 1.3 2.2 0.7
v 1.3 2.6 0.7
v 1.3 2.4 0.6
v 1.3 2.5 0.6
v 1.3 2.4 0.5
v 1.3 2.5 0.5
v 1.3 2.2 0.4
v 1.3 2.6 0.4
v 1.3 2.2 0.3
v 1.3 2.7 0.3
v 1.3 2.2 -0.2
v 1.3 2.9 -0.2
v 1.3 2.2 -0.9
v 1.3 2.9 -0.9
v 1.3 1.9 -1.4
v 1.3 2.2 -1.4
v 1.2 2.2 1.3
v 1.2 2.7 1.3
v 1.2 2.9 1.3
v 1.2 3.5 1.3
v 1.2 2.2 0.8
v 1.2 2.7 0.8
v 1.2 2.2 0.3
v 1.2 2.7 0.3
v 1.2 2.2 -0.2
v 1.2 2.7 -0.2
v 1.2 2.9 -0.2
v 1.2 2.2 -0.9
v 1.2 2.7 -0.9
v 1.2 2.9 -0.9
v 1.2 2.2 -1.3
v 1.2 2.7 -1.3
v 1.2 2.9 -1.3
v 1.2 3.5 -1.3
v 1.1 1.9 1.6
v 1.1 2.2 1.6
v 1.1 1.9 1.4
v 1.1 2.2 1.4
v 1.1 1.9 -1.4
v 1.1 2.2 -1.4
v 1.1 1.9 -1.6
v 1.1 2.2 -1.6
v 1 2.2 1.5
v 1 2.7 1.5
v 1 2.9 1.5
v 1 3.5 1.5
v 1 2.2 1.3
v 1 2.7 1.3
v 1 2.9 1.3
v 1 3.5 1.3
v 1 3.5 1.1
v 1 3.8 1.1
v 1 3.5 -1.1
v 1 3.8 -1.1
v 1 2.2 -1.3
v 1 2.7 -1.3
v 1 2.9 -1.3
v 1 3.5 -1.3
v 1 2.2 -1.5
v 1 2.7 -1.5
v 1 2.9 -1.5
v 1 3.5 -1.5
v 0.8 3.5 1.3
v 0.8 3.8 1.3
v 0.8 3.5 1.1
v 0.8 3.8 1.1
v 0.8 3.5 -1.1
v 0.8 3.8 -1.1
v 0.8 3.5 -1.3
v 0.8 3.8 -1.3
v 0.7 0 2
v 0.7 0.5 2
v 0.7 0.1 1.9
v 0.7 0.5 1.9
v 0.7 0.3 1.8
v 0.7 0.5 1.8
v 0.7 0.3 1.5
v 0.7 1.9 1.5
v 0.7 0.1 1.3
v 0.7 1.9 1.3
v 0.7 0 1.2
v 0.7 1.9 1.2
v 0.7 0 -1.2
v 0.7 1.9 -1.2
v 0.7 0.1 -1.3
v 0.7 1.9 -1.3
v 0.7 0.3 -1.5
v 0.7 1.9 -1.5
v 0.7 0.3 -1.8
v 0.7 0.5 -1.8
v 0.7 0.1 -1.9
v 0.7 0.5 -1.9
v 0.7 0 -2
v 0.7 0.5 -2
v 0.5 3.8 0.6
v 0.5 4 0.6
v 0.5 3.8 -0.6
v 0.5 4 -0.6
v 0.3 3.8 0.8
v 0.3 4 0.8
v 0.3 3.8 0.6
v 0.3 4 0.6
v 0.3 3.8 -0.6
v 0.3 4 -0.6
v 0.3 3.8 -0.8
v 0.3 4 -0.8
v -0.0999999 0.2 2
v -0.0999999 0.7 2
v -0.0999999 0.3 1.9
v -0.0999999 0.7 1.9
v -0.0999999 0.5 1.8
v -0.0999999 0.7 1.8
v -0.0999999 0.5 1.5
v -0.0999999 1.9 1.5
v -0.0999999 0.3 1.3
v -0.0999999 1.9 1.3
v -0.0999999 0.2 1.2
v -0.0999999 1.9 1.2
v -0.0999999 0.2 -1.2
v -0.0999999 1.9 -1.2
v -0.0999999 0.3 -1.3
v -0.0999999 1.9 -1.3
v -0.0999999 0.5 -1.5
v -0.0999999 1.9 -1.5
v -0.0999999 0.5 -1.8
v -0.0999999 0.7 -1.8
v -0.0999999 0.3 -1.9
v -0.0999999 0.7 -1.9
v -0.0999999 0.2 -2
v -0.0999999 0.7 -2
v -0.9 0.1 1.1
v -0.9 0.2 1.1
v -0.9 1.9 1.1
v -0.9 0.1 0.7
v -0.9 0.2 0.7
v -0.9 1.9 0.7
v -0.9 0.2 0.5
v -0.9 0.3 0.5
v -0.9 1.9 0.5
v -0.9 0.2 0.0999999
v -0.9 0.3 0.0999999
v -0.9 1.9 0.0999999
v -0.9 0 -0.1
v -0.9 0.1 -0.1
v -0.9 1.9 -0.1
v -0.9 0 -0.5
v -0.9 0.1 -0.5
v -0.9 1.9 -0.5
v -0.9 0.1 -0.7
v -0.9 0.2 -0.7
v -0.9 1.9 -0.7
v -0.9 0.1 -1.1
v -0.9 0.2 -1.1
v -0.9 1.9 -1.1
v -1.5 0.4 1.1
v -1.5 0.6 1.1
v -1.5 0.4 0.7
v -1.5 0.6 0.7
v -1.5 0.5 0.5
v -1.5 0.7 0.5
v -1.5 0.5 0.0999999
v -1.5 0.7 0.0999999
v -1.5 0.3 -0.1
v -1.5 0.5 -0.1
v -1.5 0.3 -0.5
v -1.5 0.5 -0.5
v -1.5 0.4 -0.7
v -1.5 0.6 -0.7
v -1.5 0.4 -1.1
v -1.5 0.6 -1.1
v 0.3 0 2
v 0.3 0.5 2
v 0.3 0.1 1.9
v 0.3 0.5 1.9
v 0.3 0.3 1.8
v 0.3 0.5 1.8
v 0.3 0.3 1.5
v 0.3 1.9 1.5
v 0.3 0.1 1.3
v 0.3 1.9 1.3
v 0.3 0 1.2
v 0.3 1.9 1.2
v 0.3 0 -1.2
v 0.3 1.9 -1.2
v 0.3 0.1 -1.3
v 0.3 1.9 -1.3
v 0.3 0.3 -1.5
v 0.3 1.9 -1.5
v 0.3 0.3 -1.8
v 0.3 0.5 -1.8
v 0.3 0.1 -1.9
v 0.3 0.5 -1.9
v 0.3 0 -2
v 0.3 0.5 -2
v -0.3 3.8 0.8
v -0.3 4 0.8
v -0.3 3.8 0.6
v -0.3 4 0.6
v -0.3 3.8 -0.6
v -0.3 4 -0.6
v -0.3 3.8 -0.8
v -0.3 4 -0.8
v -0.5 0.2 2
v -0.5 0.7 2
v -0.5 0.3 1.9
v -0.5 0.7 1.9
v -0.5 0.5 1.8
v -0.5 0.7 1.8
v -0.5 0.5 1.5
v -0.5 1.9 1.5
v -0.5 0.3 1.3
v -0.5 1.9 1.3
v -0.5 0.2 1.2
v -0.5 1.9 1.2
v -0.5 3.8 0.6
v -0.5 4 0.6
v -0.5 3.8 -0.6
v -0.5 4 -0.6
v -0.5 0.2 -1.2
v -0.5 1.9 -1.2
v -0.5 0.3 -1.3
v -0.5 1.9 -1.3
v -0.5 0.5 -1.5
v -0.5 1.9 -1.5
v -0.5 0.5 -1.8
v -0.5 0.7 -1.8
v -0.5 0.3 -1.9
v -0.5 0.7 -1.9
v -0.5 0.2 -2
v -0.5 0.7 -2
v -0.8 3.5 1.3
v -0.8 3.8 1.3
v -0.8 3.5 1.1
v -0.8 3.8 1.1
v -0.8 3.5 -1.1
v -0.8 3.8 -1.1
v -0.8 3.5 -1.3
v -0.8 3.8 -1.3
v -1 2.2 1.5
v -1 2.7 1.5
v -1 2.9 1.5
v -1 3.5 1.5
v -1 2.2 1.3
v -1 2.7 1.3
v -1 2.9 1.3
v -1 3.5 1.3
v -1 3.5 1.1
v -1 3.8 1.1
v -1 3.5 -1.1
v -1 3.8 -1.1
v -1 2.2 -1.3
v -1 2.7 -1.3
v -1 2.9 -1.3
v -1 3.5 -1.3
v -1 2.2 -1.5
v -1 2.7 -1.5
v -1 2.9 -1.5
v -1 3.5 -1.5
v -1.1 1.9 1.6
v -1.1 2.2 1.6
v -1.1 1.9 1.4
v -1.1 2.2 1.4
v -1.1 1.9 -1.4
v -1.1 2.2 -1.4
v -1.1 1.9 -1.6
v -1.1 2.2 -1.6
v -1.2 2.2 1.3
v -1.2 2.7 1.3
v -1.2 2.9 1.3
v -1.2 3.5 1.3
v -1.2 0.4 1.1
v -1.2 1.9 1.1
v -1.2 0.4 0.7
v -1.2 1.9 0.7
v -1.2 0.5 0.5
v -1.2 1.9 0.5
v -1.2 0.5 0.0999999
v -1.2 1.9 0.0999999
v -1.2 0.3 -0.1
v -1.2 1.9 -0.1
v -1.2 0.3 -0.5
v -1.2 1.9 -0.5
v -1.2 0.4 -0.7
v -1.2 1.9 -0.7
v -1.2 0.4 -1.1
v -1.2 1.9 -1.1
v -1.2 2.2 -1.3
v -1.2 2.7 -1.3
v -1.2 2.9 -1.3
v -1.2 3.5 -1.3
v -1.3 1.9 1.4
v -1.3 2.2 1.4
v -1.3 1.9 -1.4
v -1.3 2.2 -1.4
v -1.7 0.1 1.1
v -1.7 0.6 1.1
v -1.7 0.3 1
v -1.7 0.5 1
v -1.7 0.3 0.8
v -1.7 0.5 0.8
v -1.7 0.1 0.7
v -1.7 0.6 0.7
v -1.7 0.2 0.5
v -1.7 0.7 0.5
v -1.7 0.4 0.4
v -1.7 0.6 0.4
v -1.7 0.4 0.2
v -1.7 0.6 0.2
v -1.7 0.2 0.0999999
v -1.7 0.7 0.0999999
v -1.7 0 -0.1
v -1.7 0.5 -0.1
v -1.7 0.2 -0.2
v -1.7 0.4 -0.2
v -1.7 0.2 -0.4
v -1.7 0.4 -0.4
v -1.7 0 -0.5
v -1.7 0.5 -0.5
v -1.7 0.1 -0.7
v -1.7 0.6 -0.7
v -1.7 0.3 -0.8
v -1.7 0.5 -0.8
v -1.7 0.3 -1
v -1.7 0.5 -1
v -1.7 0.1 -1.1
v -1.7 0.6 -1.1
v 0.7 0 2
v 0.7 0 1.2
v 0.7 0 -1.2
v 0.7 0 -2
v 0.6 0 1.9
v 0.6 0 1.7
v 0.6 0 1.5
v 0.6 0 1.3
v 0.6 0 -1.3
v 0.6 0 -1.5
v 0.6 0 -1.7
v 0.6 0 -1.9
v 0.4 0 1.9
v 0.4 0 1.7
v 0.4 0 1.5
v 0.4 0 1.3
v 0.4 0 -1.3
v 0.4 0 -1.5
v 0.4 0 -1.7
v 0.4 0 -1.9
v 0.3 0 2
v 0.3 0 1.2
v 0.3 0 -1.2
v 0.3 0 -2
v -0.9 0 -0.1
v -0.9 0 -0.5
v -1 0 -0.2
v -1 0 -0.4
v -1.2 0 -0.2
v -1.2 0 -0.4
v -1.4 0 -0.2
v -1.4 0 -0.4
v -1.6 0 -0.2
v -1.6 0 -0.4
v -1.7 0 -0.1
v -1.7 0 -0.5
v -0.9 0.1 1.1
v -0.9 0.1 0.7
v -0.9 0.1 -0.7
v -0.9 0.1 -1.1
v -1 0.1 1
v -1 0.1 0.8
v -1 0.1 -0.8
v -1 0.1 -1
v -1.2 0.1 1
v -1.2 0.1 0.8
v -1.2 0.1 -0.8
v -1.2 0.1 -1
v -1.4 0.1 1
v -1.4 0.1 0.8
v -1.4 0.1 -0.8
v -1.4 0.1 -1
v -1.6 0.1 1
v -1.6 0.1 0.8
v -1.6 0.1 -0.8
v -1.6 0.1 -1
v -1.7 0.1 1.1
v -1.7 0.1 0.7
v -1.7 0.1 -0.7
v -1.7 0.1 -1.1
v -0.0999999 0.2 2
v -0.0999999 0.2 1.2
v -0.0999999 0.2 -1.2
v -0.0999999 0.2 -2
v -0.2 0.2 1.9
v -0.2 0.2 1.7
v -0.2 0.2 1.5
v -0.2 0.2 1.3
v -0.2 0.2 -1.3
v -0.2 0.2 -1.5
v -0.2 0.2 -1.7
v -0.2 0.2 -1.9
v -0.4 0.2 1.9
v -0.4 0.2 1.7
v -0.4 0.2 1.5
v -0.4 0.2 1.3
v -0.4 0.2 -1.3
v -0.4 0.2 -1.5
v -0.4 0.2 -1.7
v -0.4 0.2 -1.9
v -0.5 0.2 2
v -0.5 0.2 1.2
v -0.5 0.2 -1.2
v -0.5 0.2 -2
v -0.9 0.2 0.5
v -0.9 0.2 0.0999999
v -1 0.2 0.4
v -1 0.2 0.2
v -1.2 0.2 0.4
v -1.2 0.2 0.2
v -1.4 0.2 0.4
v -1.4 0.2 0.2
v -1.6 0.2 0.4
v -1.6 0.2 0.2
v -1.7 0.2 0.5
v -1.7 0.2 0.0999999
v 1.3 1.9 1.4
v 1.3 1.9 -1.4
v 1.1 1.9 1.6
v 1.1 1.9 1.4
v 1.1 1.9 -1.4
v 1.1 1.9 -1.6
v 0.7 1.9 1.5
v 0.7 1.9 1.3
v 0.7 1.9 1.2
v 0.7 1.9 -1.2
v 0.7 1.9 -1.3
v 0.7 1.9 -1.5
v 0.3 1.9 1.5
v 0.3 1.9 1.3
v 0.3 1.9 1.2
v 0.3 1.9 -1.2
v 0.3 1.9 -1.3
v 0.3 1.9 -1.5
v -0.0999999 1.9 1.5
v -0.0999999 1.9 1.3
v -0.0999999 1.9 1.2
v -0.0999999 1.9 -1.2
v -0.0999999 1.9 -1.3
v -0.0999999 1.9 -1.5
v -0.5 1.9 1.5
v -0.5 1.9 1.3
v -0.5 1.9 1.2
v -0.5 1.9 -1.2
v -0.5 1.9 -1.3
v -0.5 1.9 -1.5
v -0.9 1.9 1.1
v -0.9 1.9 0.7
v -0.9 1.9 0.5
v -0.9 1.9 0.0999999
v -0.9 1.9 -0.1
v -0.9 1.9 -0.5
v -0.9 1.9 -0.7
v -0.9 1.9 -1.1
v -1.1 1.9 1.6
v -1.1 1.9 1.4
v -1.1 1.9 -1.4
v -1.1 1.9 -1.6
v -1.2 1.9 1.1
v -1.2 1.9 0.7
v -1.2 1.9 0.5
v -1.2 1.9 0.0999999
v -1.2 1.9 -0.1
v -1.2 1.9 -0.5
v -1.2 1.9 -0.7
v -1.2 1.9 -1.1
v -1.3 1.9 1.4
v -1.3 1.9 -1.4
v 0.7 0.3 1.8
v 0.7 0.3 1.5
v 0.7 0.3 -1.5
v 0.7 0.3 -1.8
v 0.3 0.3 1.8
v 0.3 0.3 1.5
v 0.3 0.3 -1.5
v 0.3 0.3 -1.8
v -1.2 0.3 -0.1
v -1.2 0.3 -0.5
v -1.5 0.3 -0.1
v -1.5 0.3 -0.5
v -1.2 0.4 1.1
v -1.2 0.4 0.7
v -1.2 0.4 -0.7
v -1.2 0.4 -1.1
v -1.5 0.4 1.1
v -1.5 0.4 0.7
v -1.5 0.4 -0.7
v -1.5 0.4 -1.1
v 0.7 0.5 2
v 0.7 0.5 1.9
v 0.7 0.5 1.8
v 0.7 0.5 -1.8
v 0.7 0.5 -1.9
v 0.7 0.5 -2
v 0.3 0.5 2
v 0.3 0.5 1.9
v 0.3 0.5 1.8
v 0.3 0.5 -1.8
v 0.3 0.5 -1.9
v 0.3 0.5 -2
v -0.0999999 0.5 1.8
v -0.0999999 0.5 1.5
v -0.0999999 0.5 -1.5
v -0.0999999 0.5 -1.8
v -0.5 0.5 1.8
v -0.5 0.5 1.5
v -0.5 0.5 -1.5
v -0.5 0.5 -1.8
v -1.2 0.5 0.5
v -1.2 0.5 0.0999999
v -1.5 0.5 0.5
v -1.5 0.5 0.0999999
v -1.5 0.5 -0.1
v -1.5 0.5 -0.5
v -1.6 0.5 -0.1
v -1.6 0.5 -0.5
v -1.7 0.5 -0.1
v -1.7 0.5 -0.5
v -1.5 0.6 1.1
v -1.5 0.6 0.7
v -1.5 0.6 -0.7
v -1.5 0.6 -1.1
v -1.6 0.6 1.1
v -1.6 0.6 0.7
v -1.6 0.6 -0.7
v -1.6 0.6 -1.1
v -1.7 0.6 1.1
v -1.7 0.6 0.7
v -1.7 0.6 -0.7
v -1.7 0.6 -1.1
v -0.0999999 0.7 2
v -0.0999999 0.7 1.9
v -0.0999999 0.7 1.8
v -0.0999999 0.7 -1.8
v -0.0999999 0.7 -1.9
v -0.0999999 0.7 -2
v -0.5 0.7 2
v -0.5 0.7 1.9
v -0.5 0.7 1.8
v -0.5 0.7 -1.8
v -0.5 0.7 -1.9
v -0.5 0.7 -2
v -1.5 0.7 0.5
v -1.5 0.7 0.0999999
v -1.6 0.7 0.5
v -1.6 0.7 0.0999999
v -1.7 0.7 0.5
v -1.7 0.7 0.0999999
v 1.3 2.2 1.4
v 1.3 2.2 0.8
v 1.3 2.2 0.3
v 1.3 2.2 -0.2
v 1.3 2.2 -0.9
v 1.3 2.2 -1.4
v 1.2 2.2 1.3
v 1.2 2.2 0.8
v 1.2 2.2 0.3
v 1.2 2.2 -0.2
v 1.2 2.2 -0.9
v 1.2 2.2 -1.3
v 1.1 2.2 1.6
v 1.1 2.2 1.4
v 1.1 2.2 -1.4
v 1.1 2.2 -1.6
v 1 2.2 1.5
v 1 2.2 1.3
v 1 2.2 -1.3
v 1 2.2 -1.5
v -1 2.2 1.5
v -1 2.2 1.3
v -1 2.2 -1.3
v -1 2.2 -1.5
v -1.1 2.2 1.6
v -1.1 2.2 1.4
v -1.1 2.2 -1.4
v -1.1 2.2 -1.6
v -1.2 2.2 1.3
v -1.2 2.2 -1.3
v -1.3 2.2 1.4
v -1.3 2.2 -1.4
v 1.3 2.7 0.8
v 1.3 2.7 0.3
v 1.2 2.7 0.8
v 1.2 2.7 0.3
v 1.3 2.9 -0.2
v 1.3 2.9 -0.9
v 1.2 2.9 -0.2
v 1.2 2.9 -0.9
v 1.2 3.5 1.3
v 1.2 3.5 -1.3
v 1 3.5 1.5
v 1 3.5 1.3
v 1 3.5 1.1
v 1 3.5 -1.1
v 1 3.5 -1.3
v 1 3.5 -1.5
v 0.8 3.5 1.3
v 0.8 3.5 1.1
v 0.8 3.5 -1.1
v 0.8 3.5 -1.3
v -0.8 3.5 1.3
v -0.8 3.5 1.1
v -0.8 3.5 -1.1
v -0.8 3.5 -1.3
v -1 3.5 1.5
v -1 3.5 1.3
v -1 3.5 1.1
v -1 3.5 -1.1
v -1 3.5 -1.3
v -1 3.5 -1.5
v -1.2 3.5 1.3
v -1.2 3.5 -1.3
v 1 3.8 1.1
v 1 3.8 -1.1
v 0.8 3.8 1.3
v 0.8 3.8 1.1
v 0.8 3.8 -1.1
v 0.8 3.8 -1.3
v 0.5 3.8 0.6
v 0.5 3.8 -0.6
v 0.3 3.8 0.8
v 0.3 3.8 0.6
v 0.3 3.8 -0.6
v 0.3 3.8 -0.8
v -0.3 3.8 0.8
v -0.3 3.8 0.6
v -0.3 3.8 -0.6
v -0.3 3.8 -0.8
v -0.5 3.8 0.6
v -0.5 3.8 -0.6
v -0.8 3.8 1.3
v -0.8 3.8 1.1
v -0.8 3.8 -1.1
v -0.8 3.8 -1.3
v -1 3.8 1.1
v -1 3.8 -1.1
v 0.5 4 0.6
v 0.5 4 -0.6
v 0.3 4 0.8
v 0.3 4 0.6
v 0.3 4 -0.6
v 0.3 4 -0.8
v -0.3 4 0.8
v -0.3 4 0.6
v -0.3 4 -0.6
v -0.3 4 -0.8
v -0.5 4 0.6
v -0.5 4 -0.6

# faces
f 3/2/1 2/2/1 1/2/1
f 4/2/1 2/2/1 3/2/1
f 7/2/1 3/2/1 1/2/1
f 7/1/1 4/1/1 3/1/1
f 8/2/1 2/2/1 4/2/1
f 8/1/1 4/1/1 7/1/1
f 9/2/1 6/2/1 5/2/1
f 10/2/1 6/2/1 9/2/1
f 11/2/1 7/2/1 1/2/1
f 11/2/1 8/2/1 7/2/1
f 12/2/1 2/2/1 8/2/1
f 12/2/1 8/2/1 11/2/1
f 13/1/1 10/1/1 9/1/1
f 13/2/1 9/2/1 5/2/1
f 14/2/1 6/2/1 10/2/1
f 14/1/1 10/1/1 13/1/1
f 15/2/1 13/2/1 5/2/1
f 15/2/1 14/2/1 13/2/1
f 16/2/1 6/2/1 14/2/1
f 16/2/1 14/2/1 15/2/1
f 19/1/1 18/1/1 17/1/1
f 20/1/1 18/1/1 19/1/1
f 25/1/1 22/1/1 21/1/1
f 26/1/1 22/1/1 25/1/1
f 27/1/1 24/1/1 23/1/1
f 28/1/1 24/1/1 27/1/1
f 31/1/1 30/1/1 29/1/1
f 32/1/1 30/1/1 31/1/1
f 33/3/1 32/3/1 31/3/1
f 34/3/1 32/3/1 33/3/1
f 35/1/1 34/1/1 33/1/1
f 36/1/1 34/1/1 35/1/1
f 41/1/1 38/1/1 37/1/1
f 42/1/1 38/1/1 41/1/1
f 43/1/1 40/1/1 39/1/1
f 44/1/1 40/1/1 43/1/1
f 49/1/1 46/1/1 45/1/1
f 50/1/1 46/1/1 49/1/1
f 51/1/1 48/1/1 47/1/1
f 52/1/1 48/1/1 51/1/1
f 53/3/1 50/3/1 49/3/1
f 54/3/1 50/3/1 53/3/1
f 55/3/1 52/3/1 51/3/1
f 56/3/1 52/3/1 55/3/1
f 57/1/1 54/1/1 53/1/1
f 58/1/1 54/1/1 57/1/1
f 61/1/1 56/1/1 55/1/1
f 62/1/1 56/1/1 61/1/1
f 63/1/1 60/1/1 59/1/1
f 64/1/1 60/1/1 63/1/1
f 67/2/1 66/2/1 65/2/1
f 68/2/1 66/2/1 67/2/1
f 69/1/1 68/1/1 67/1/1
f 70/1/1 68/1/1 69/1/1
f 71/1/1 68/1/1 70/1/1
f 72/2/1 66/2/1 68/2/1
f 72/1/1 68/1/1 71/1/1
f 73/2/1 66/2/1 72/2/1
f 74/1/1 69/1/1 67/1/1
f 75/1/1 69/1/1 74/1/1
f 80/1/1 77/1/1 76/1/1
f 81/1/1 77/1/1 80/1/1
f 82/1/1 79/1/1 78/1/1
f 83/1/1 79/1/1 82/1/1
f 86/1/1 85/1/1 84/1/1
f 87/1/1 85/1/1 86/1/1
f 90/1/1 89/1/1 88/1/1
f 91/1/1 89/1/1 90/1/1
f 96/1/1 93/1/1 92/1/1
f 97/1/1 93/1/1 96/1/1
f 98/1/1 95/1/1 94/1/1
f 99/1/1 95/1/1 98/1/1
f 102/2/1 101/2/1 100/2/1
f 103/2/1 101/2/1 102/2/1
f 104/1/1 103/1/1 102/1/1
f 105/1/1 103/1/1 104/1/1
f 106/1/1 103/1/1 105/1/1
f 107/2/1 101/2/1 103/2/1
f 107/1/1 103/1/1 106/1/1
f 108/2/1 101/2/1 107/2/1
f 109/1/1 104/1/1 102/1/1
f 110/1/1 104/1/1 109/1/1
f 113/2/1 112/2/1 111/2/1
f 114/2/1 112/2/1 113/2/1
f 115/1/1 114/1/1 113/1/1
f 116/1/1 114/1/1 115/1/1
f 117/1/1 114/1/1 116/1/1
f 118/2/1 112/2/1 114/2/1
f 118/1/1 114/1/1 117/1/1
f 119/2/1 112/2/1 118/2/1
f 120/1/1 115/1/1 113/1/1
f 121/1/1 115/1/1 120/1/1
f 124/3/1 123/3/1 122/3/1
f 125/3/1 124/3/1 122/3/1
f 126/3/1 124/3/1 125/3/1
f 129/2/1 128/2/1 127/2/1
f 130/2/1 128/2/1 129/2/1
f 131/1/1 130/1/1 129/1/1
f 132/1/1 130/1/1 131/1/1
f 133/1/1 130/1/1 132/1/1
f 134/2/1 128/2/1 130/2/1
f 134/1/1 130/1/1 133/1/1
f 135/2/1 128/2/1 134/2/1
f 136/1/1 131/1/1 129/1/1
f 137/1/1 131/1/1 136/1/1
f 142/2/1 139/2/1 138/2/1
f 143/2/1 139/2/1 142/2/1
f 144/2/1 141/2/1 140/2/1
f 145/2/1 141/2/1 144/2/1
f 148/1/1 147/1/1 146/1/1
f 149/1/1 147/1/1 148/1/1
f 152/1/1 151/1/1 150/1/1
f 153/1/1 151/1/1 152/1/1
f 154/1/2 155/1/2 156/1/2
f 156/1/2 155/1/2 157/1/2
f 158/1/2 159/1/2 160/1/2
f 160/1/2 159/1/2 161/1/2
f 162/2/2 163/2/2 166/2/2
f 166/2/2 163/2/2 167/2/2
f 164/2/2 165/2/2 168/2/2
f 168/2/2 165/2/2 169/2/2
f 170/2/2 171/2/2 172/2/2
f 172/2/2 171/2/2 173/2/2
f 172/1/2 173/1/2 174/1/2
f 174/1/2 173/1/2 175/1/2
f 175/1/2 173/1/2 176/1/2
f 173/2/2 171/2/2 177/2/2
f 176/1/2 173/1/2 177/1/2
f 177/2/2 171/2/2 178/2/2
f 172/1/2 174/1/2 179/1/2
f 179/1/2 174/1/2 180/1/2
f 181/1/2 182/1/2 183/1/2
f 183/1/2 182/1/2 184/1/2
f 185/2/2 186/2/2 187/2/2
f 187/2/2 186/2/2 188/2/2
f 187/1/2 188/1/2 189/1/2
f 189/1/2 188/1/2 190/1/2
f 190/1/2 188/1/2 191/1/2
f 188/2/2 186/2/2 192/2/2
f 191/1/2 188/1/2 192/1/2
f 192/2/2 186/2/2 193/2/2
f 187/1/2 189/1/2 194/1/2
f 194/1/2 189/1/2 195/1/2
f 196/2/2 197/2/2 198/2/2
f 198/2/2 197/2/2 199/2/2
f 198/1/2 199/1/2 200/1/2
f 200/1/2 199/1/2 201/1/2
f 201/1/2 199/1/2 202/1/2
f 199/2/2 197/2/2 203/2/2
f 202/1/2 199/1/2 203/1/2
f 203/2/2 197/2/2 204/2/2
f 198/1/2 200/1/2 205/1/2
f 205/1/2 200/1/2 206/1/2
f 207/1/2 208/1/2 211/1/2
f 211/1/2 208/1/2 212/1/2
f 209/1/2 210/1/2 213/1/2
f 213/1/2 210/1/2 214/1/2
f 215/1/2 216/1/2 217/1/2
f 217/1/2 216/1/2 218/1/2
f 219/3/2 220/3/2 221/3/2
f 219/3/2 221/3/2 222/3/2
f 222/3/2 221/3/2 223/3/2
f 224/2/2 225/2/2 226/2/2
f 226/2/2 225/2/2 227/2/2
f 226/1/2 227/1/2 228/1/2
f 228/1/2 227/1/2 229/1/2
f 229/1/2 227/1/2 230/1/2
f 227/2/2 225/2/2 231/2/2
f 230/1/2 227/1/2 231/1/2
f 231/2/2 225/2/2 232/2/2
f 226/1/2 228/1/2 233/1/2
f 233/1/2 228/1/2 234/1/2
f 235/1/2 236/1/2 239/1/2
f 239/1/2 236/1/2 240/1/2
f 237/1/2 238/1/2 241/1/2
f 241/1/2 238/1/2 242/1/2
f 243/1/2 244/1/2 247/1/2
f 247/1/2 244/1/2 248/1/2
f 245/1/2 246/1/2 249/1/2
f 249/1/2 246/1/2 250/1/2
f 247/3/2 248/3/2 251/3/2
f 251/3/2 248/3/2 252/3/2
f 249/3/2 250/3/2 253/3/2
f 253/3/2 250/3/2 254/3/2
f 251/1/2 252/1/2 255/1/2
f 255/1/2 252/1/2 256/1/2
f 253/1/2 254/1/2 259/1/2
f 259/1/2 254/1/2 260/1/2
f 257/1/2 258/1/2 261/1/2
f 261/1/2 258/1/2 262/1/2
f 263/1/2 264/1/2 267/1/2
f 267/1/2 264/1/2 268/1/2
f 265/1/2 266/1/2 269/1/2
f 269/1/2 266/1/2 270/1/2
f 271/1/2 272/1/2 275/1/2
f 275/1/2 272/1/2 276/1/2
f 273/1/2 274/1/2 277/1/2
f 277/1/2 274/1/2 278/1/2
f 279/1/2 280/1/2 281/1/2
f 281/1/2 280/1/2 282/1/2
f 281/3/2 282/3/2 283/3/2
f 283/3/2 282/3/2 284/3/2
f 283/1/2 284/1/2 285/1/2
f 285/1/2 284/1/2 286/1/2
f 287/1/2 288/1/2 289/1/2
f 289/1/2 288/1/2 290/1/2
f 291/2/2 292/2/2 293/2/2
f 293/2/2 292/2/2 294/2/2
f 291/2/2 293/2/2 297/2/2
f 293/1/2 294/1/2 297/1/2
f 294/2/2 292/2/2 298/2/2
f 297/1/2 294/1/2 298/1/2
f 295/2/2 296/2/2 299/2/2
f 299/2/2 296/2/2 300/2/2
f 291/2/2 297/2/2 301/2/2
f 297/2/2 298/2/2 301/2/2
f 298/2/2 292/2/2 302/2/2
f 301/2/2 298/2/2 302/2/2
f 299/1/2 300/1/2 303/1/2
f 295/2/2 299/2/2 303/2/2
f 300/2/2 296/2/2 304/2/2
f 303/1/2 300/1/2 304/1/2
f 295/2/2 303/2/2 305/2/2
f 303/2/2 304/2/2 305/2/2
f 304/2/2 296/2/2 306/2/2
f 305/2/2 304/2/2 306/2/2
f 309/1/3 308/1/3 307/1/3
f 311/1/3 309/1/3 307/1/3
f 311/1/3 310/1/3 309/1/3
f 312/1/3 310/1/3 311/1/3
f 313/4/3 312/4/3 311/4/3
f 314/4/3 312/4/3 313/4/3
f 315/4/3 313/4/3 311/4/3
f 315/2/3 314/2/3 313/2/3
f 316/4/3 312/4/3 314/4/3
f 316/2/3 314/2/3 315/2/3
f 317/1/3 311/1/3 307/1/3
f 317/4/3 315/4/3 311/4/3
f 317/4/3 316/4/3 315/4/3
f 318/4/3 312/4/3 316/4/3
f 318/4/3 316/4/3 317/4/3
f 318/1/3 310/1/3 312/1/3
f 319/1/3 317/1/3 307/1/3
f 319/1/3 318/1/3 317/1/3
f 320/1/3 310/1/3 318/1/3
f 320/1/3 318/1/3 319/1/3
f 321/1/3 319/1/3 307/1/3
f 323/1/3 321/1/3 307/1/3
f 323/3/3 322/3/3 321/3/3
f 324/3/3 322/3/3 323/3/3
f 325/1/3 323/1/3 307/1/3
f 326/1/3 323/1/3 325/1/3
f 331/1/3 328/1/3 327/1/3
f 332/3/3 329/3/3 328/3/3
f 332/1/3 328/1/3 331/1/3
f 334/3/3 329/3/3 332/3/3
f 335/1/3 334/1/3 333/1/3
f 336/3/3 329/3/3 334/3/3
f 336/1/3 334/1/3 335/1/3
f 337/1/3 330/1/3 329/1/3
f 337/3/3 329/3/3 336/3/3
f 340/1/3 330/1/3 337/1/3
f 341/1/3 339/1/3 338/1/3
f 342/3/3 340/3/3 339/3/3
f 342/1/3 339/1/3 341/1/3
f 343/1/3 330/1/3 340/1/3
f 343/3/3 340/3/3 342/3/3
f 344/1/3 330/1/3 343/1/3
f 347/1/3 346/1/3 345/1/3
f 348/1/3 346/1/3 347/1/3
f 351/1/3 350/1/3 349/1/3
f 352/1/3 350/1/3 351/1/3
f 357/1/3 354/1/3 353/1/3
f 358/3/3 355/3/3 354/3/3
f 358/1/3 354/1/3 357/1/3
f 359/1/3 356/1/3 355/1/3
f 359/3/3 355/3/3 358/3/3
f 360/1/3 356/1/3 359/1/3
f 363/1/3 362/1/3 361/1/3
f 364/1/3 362/1/3 363/1/3
f 369/1/3 366/1/3 365/1/3
f 370/3/3 367/3/3 366/3/3
f 370/1/3 366/1/3 369/1/3
f 371/1/3 368/1/3 367/1/3
f 371/3/3 367/3/3 370/3/3
f 372/1/3 368/1/3 371/1/3
f 375/1/3 374/1/3 373/1/3
f 376/1/3 374/1/3 375/1/3
f 379/1/3 378/1/3 377/1/3
f 380/1/3 378/1/3 379/1/3
f 383/2/3 382/2/3 381/2/3
f 384/2/3 382/2/3 383/2/3
f 385/1/3 384/1/3 383/1/3
f 386/1/3 384/1/3 385/1/3
f 387/1/3 385/1/3 383/1/3
f 389/2/3 383/2/3 381/2/3
f 389/1/3 388/1/3 387/1/3
f 389/1/3 387/1/3 383/1/3
f 390/1/3 388/1/3 389/1/3
f 391/2/3 389/2/3 381/2/3
f 391/2/3 390/2/3 389/2/3
f 392/2/3 390/2/3 391/2/3
f 395/2/3 394/2/3 393/2/3
f 396/2/3 394/2/3 395/2/3
f 397/1/3 396/1/3 395/1/3
f 398/1/3 396/1/3 397/1/3
f 399/1/3 397/1/3 395/1/3
f 401/2/3 395/2/3 393/2/3
f 401/1/3 400/1/3 399/1/3
f 401/1/3 399/1/3 395/1/3
f 402/1/3 400/1/3 401/1/3
f 403/2/3 401/2/3 393/2/3
f 403/2/3 402/2/3 401/2/3
f 404/2/3 402/2/3 403/2/3
f 407/1/3 406/1/3 405/1/3
f 408/1/3 406/1/3 407/1/3
f 411/1/3 410/1/3 409/1/3
f 412/1/3 410/1/3 411/1/3
f 415/1/3 414/1/3 413/1/3
f 416/1/3 414/1/3 415/1/3
f 419/2/3 418/2/3 417/2/3
f 420/2/3 418/2/3 419/2/3
f 421/1/3 420/1/3 419/1/3
f 422/1/3 420/1/3 421/1/3
f 423/1/3 421/1/3 419/1/3
f 425/2/3 419/2/3 417/2/3
f 425/1/3 424/1/3 423/1/3
f 425/1/3 423/1/3 419/1/3
f 426/1/3 424/1/3 425/1/3
f 427/2/3 425/2/3 417/2/3
f 427/2/3 426/2/3 425/2/3
f 428/2/3 426/2/3 427/2/3
f 431/2/3 430/2/3 429/2/3
f 432/2/3 430/2/3 431/2/3
f 433/1/3 432/1/3 431/1/3
f 434/1/3 432/1/3 433/1/3
f 435/1/3 433/1/3 431/1/3
f 437/2/3 431/2/3 429/2/3
f 437/1/3 436/1/3 435/1/3
f 437/1/3 435/1/3 431/1/3
f 438/1/3 436/1/3 437/1/3
f 439/2/3 437/2/3 429/2/3
f 439/2/3 438/2/3 437/2/3
f 440/2/3 438/2/3 439/2/3
f 444/2/3 442/2/3 441/2/3
f 445/1/3 443/1/3 442/1/3
f 445/2/3 442/2/3 444/2/3
f 446/1/3 443/1/3 445/1/3
f 450/2/3 448/2/3 447/2/3
f 451/1/3 449/1/3 448/1/3
f 451/2/3 448/2/3 450/2/3
f 452/1/3 449/1/3 451/1/3
f 456/2/3 454/2/3 453/2/3
f 457/1/3 455/1/3 454/1/3
f 457/2/3 454/2/3 456/2/3
f 458/1/3 455/1/3 457/1/3
f 462/2/3 460/2/3 459/2/3
f 463/1/3 461/1/3 460/1/3
f 463/2/3 460/2/3 462/2/3
f 464/1/3 461/1/3 463/1/3
f 467/1/3 466/1/3 465/1/3
f 468/1/3 466/1/3 467/1/3
f 471/1/3 470/1/3 469/1/3
f 472/1/3 470/1/3 471/1/3
f 475/1/3 474/1/3 473/1/3
f 476/1/3 474/1/3 475/1/3
f 479/1/3 478/1/3 477/1/3
f 480/1/3 478/1/3 479/1/3
f 481/2/4 482/2/4 483/2/4
f 483/2/4 482/2/4 484/2/4
f 483/1/4 484/1/4 485/1/4
f 485/1/4 484/1/4 486/1/4
f 483/1/4 485/1/4 487/1/4
f 481/2/4 483/2/4 489/2/4
f 487/1/4 488/1/4 489/1/4
f 483/1/4 487/1/4 489/1/4
f 489/1/4 488/1/4 490/1/4
f 481/2/4 489/2/4 491/2/4
f 489/2/4 490/2/4 491/2/4
f 491/2/4 490/2/4 492/2/4
f 493/2/4 494/2/4 495/2/4
f 495/2/4 494/2/4 496/2/4
f 495/1/4 496/1/4 497/1/4
f 497/1/4 496/1/4 498/1/4
f 495/1/4 497/1/4 499/1/4
f 493/2/4 495/2/4 501/2/4
f 499/1/4 500/1/4 501/1/4
f 495/1/4 499/1/4 501/1/4
f 501/1/4 500/1/4 502/1/4
f 493/2/4 501/2/4 503/2/4
f 501/2/4 502/2/4 503/2/4
f 503/2/4 502/2/4 504/2/4
f 505/1/4 506/1/4 507/1/4
f 507/1/4 506/1/4 508/1/4
f 509/1/4 510/1/4 511/1/4
f 511/1/4 510/1/4 512/1/4
f 513/2/4 514/2/4 515/2/4
f 515/2/4 514/2/4 516/2/4
f 515/1/4 516/1/4 517/1/4
f 517/1/4 516/1/4 518/1/4
f 515/1/4 517/1/4 519/1/4
f 513/2/4 515/2/4 521/2/4
f 519/1/4 520/1/4 521/1/4
f 515/1/4 519/1/4 521/1/4
f 521/1/4 520/1/4 522/1/4
f 513/2/4 521/2/4 523/2/4
f 521/2/4 522/2/4 523/2/4
f 523/2/4 522/2/4 524/2/4
f 525/1/4 526/1/4 527/1/4
f 527/1/4 526/1/4 528/1/4
f 529/2/4 530/2/4 531/2/4
f 531/2/4 530/2/4 532/2/4
f 531/1/4 532/1/4 533/1/4
f 533/1/4 532/1/4 534/1/4
f 531/1/4 533/1/4 535/1/4
f 529/2/4 531/2/4 537/2/4
f 535/1/4 536/1/4 537/1/4
f 531/1/4 535/1/4 537/1/4
f 537/1/4 536/1/4 538/1/4
f 529/2/4 537/2/4 539/2/4
f 537/2/4 538/2/4 539/2/4
f 539/2/4 538/2/4 540/2/4
f 541/1/4 542/1/4 543/1/4
f 543/1/4 542/1/4 544/1/4
f 545/1/4 546/1/4 547/1/4
f 547/1/4 546/1/4 548/1/4
f 549/1/4 550/1/4 553/1/4
f 550/3/4 551/3/4 554/3/4
f 553/1/4 550/1/4 554/1/4
f 551/1/4 552/1/4 555/1/4
f 554/3/4 551/3/4 555/3/4
f 555/1/4 552/1/4 556/1/4
f 557/1/4 558/1/4 559/1/4
f 559/1/4 558/1/4 560/1/4
f 561/1/4 562/1/4 565/1/4
f 562/3/4 563/3/4 566/3/4
f 565/1/4 562/1/4 566/1/4
f 563/1/4 564/1/4 567/1/4
f 566/3/4 563/3/4 567/3/4
f 567/1/4 564/1/4 568/1/4
f 569/1/4 570/1/4 571/1/4
f 571/1/4 570/1/4 572/1/4
f 573/1/4 574/1/4 575/1/4
f 575/1/4 574/1/4 576/1/4
f 581/1/4 582/1/4 583/1/4
f 583/1/4 582/1/4 584/1/4
f 585/1/4 586/1/4 587/1/4
f 587/1/4 586/1/4 588/1/4
f 589/1/4 590/1/4 591/1/4
f 591/1/4 590/1/4 592/1/4
f 593/1/4 594/1/4 595/1/4
f 595/1/4 594/1/4 596/1/4
f 577/1/4 578/1/4 597/1/4
f 578/3/4 579/3/4 598/3/4
f 597/1/4 578/1/4 598/1/4
f 579/1/4 580/1/4 599/1/4
f 598/3/4 579/3/4 599/3/4
f 599/1/4 580/1/4 600/1/4
f 601/1/4 602/1/4 603/1/4
f 603/1/4 602/1/4 604/1/4
f 605/2/4 606/2/4 607/2/4
f 607/2/4 606/2/4 608/2/4
f 605/2/4 607/2/4 609/2/4
f 607/1/4 608/1/4 609/1/4
f 608/2/4 606/2/4 610/2/4
f 609/1/4 608/1/4 610/1/4
f 605/2/4 609/2/4 611/2/4
f 609/2/4 610/2/4 611/2/4
f 610/2/4 606/2/4 612/2/4
f 611/2/4 610/2/4 612/2/4
f 613/2/4 614/2/4 615/2/4
f 615/2/4 614/2/4 616/2/4
f 613/2/4 615/2/4 617/2/4
f 615/1/4 616/1/4 617/1/4
f 616/2/4 614/2/4 618/2/4
f 617/1/4 616/1/4 618/1/4
f 613/2/4 617/2/4 619/2/4
f 617/2/4 618/2/4 619/2/4
f 618/2/4 614/2/4 620/2/4
f 619/2/4 618/2/4 620/2/4
f 621/2/4 622/2/4 623/2/4
f 623/2/4 622/2/4 624/2/4
f 621/2/4 623/2/4 625/2/4
f 623/1/4 624/1/4 625/1/4
f 624/2/4 622/2/4 626/2/4
f 625/1/4 624/1/4 626/1/4
f 621/2/4 625/2/4 627/2/4
f 625/2/4 626/2/4 627/2/4
f 626/2/4 622/2/4 628/2/4
f 627/2/4 626/2/4 628/2/4
f 629/2/4 630/2/4 631/2/4
f 631/2/4 630/2/4 632/2/4
f 629/2/4 631/2/4 633/2/4
f 631/1/4 632/1/4 633/1/4
f 632/2/4 630/2/4 634/2/4
f 633/1/4 632/1/4 634/1/4
f 629/2/4 633/2/4 635/2/4
f 633/2/4 634/2/4 635/2/4
f 634/2/4 630/2/4 636/2/4
f 635/2/4 634/2/4 636/2/4
f 641/2/5 638/2/5 637/2/5
f 642/2/5 638/2/5 641/2/5
f 643/2/5 638/2/5 642/2/5
f 644/2/5 638/2/5 643/2/5
f 645/2/5 640/2/5 639/2/5
f 646/2/5 640/2/5 645/2/5
f 647/2/5 640/2/5 646/2/5
f 648/2/5 640/2/5 647/2/5
f 649/2/5 641/2/5 637/2/5
f 649/1/5 642/1/5 641/1/5
f 650/2/5 643/2/5 642/2/5
f 650/1/5 642/1/5 649/1/5
f 651/1/5 644/1/5 643/1/5
f 651/2/5 643/2/5 650/2/5
f 652/2/5 638/2/5 644/2/5
f 652/1/5 644/1/5 651/1/5
f 653/2/5 645/2/5 639/2/5
f 653/1/5 646/1/5 645/1/5
f 654/2/5 647/2/5 646/2/5
f 654/1/5 646/1/5 653/1/5
f 655/1/5 648/1/5 647/1/5
f 655/2/5 647/2/5 654/2/5
f 656/2/5 640/2/5 648/2/5
f 656/1/5 648/1/5 655/1/5
f 657/2/5 651/2/5 650/2/5
f 657/2/5 649/2/5 637/2/5
f 657/2/5 650/2/5 649/2/5
f 657/2/5 652/2/5 651/2/5
f 658/2/5 638/2/5 652/2/5
f 658/2/5 652/2/5 657/2/5
f 659/2/5 655/2/5 654/2/5
f 659/2/5 654/2/5 653/2/5
f 659/2/5 656/2/5 655/2/5
f 659/2/5 653/2/5 639/2/5
f 660/2/5 640/2/5 656/2/5
f 660/2/5 656/2/5 659/2/5
f 663/2/5 662/2/5 661/2/5
f 664/2/5 662/2/5 663/2/5
f 665/2/5 663/2/5 661/2/5
f 665/1/5 664/1/5 663/1/5
f 666/2/5 662/2/5 664/2/5
f 666/1/5 664/1/5 665/1/5
f 667/2/5 665/2/5 661/2/5
f 667/2/5 666/2/5 665/2/5
f 668/2/5 662/2/5 666/2/5
f 668/2/5 666/2/5 667/2/5
f 669/2/5 667/2/5 661/2/5
f 669/1/5 668/1/5 667/1/5
f 670/2/5 662/2/5 668/2/5
f 670/1/5 668/1/5 669/1/5
f 671/2/5 669/2/5 661/2/5
f 671/2/5 670/2/5 669/2/5
f 672/2/5 662/2/5 670/2/5
f 672/2/5 670/2/5 671/2/5
f 677/2/5 674/2/5 673/2/5
f 678/2/5 674/2/5 677/2/5
f 679/2/5 676/2/5 675/2/5
f 680/2/5 676/2/5 679/2/5
f 681/2/5 677/2/5 673/2/5
f 681/1/5 678/1/5 677/1/5
f 682/2/5 674/2/5 678/2/5
f 682/1/5 678/1/5 681/1/5
f 683/1/5 680/1/5 679/1/5
f 683/2/5 679/2/5 675/2/5
f 684/2/5 676/2/5 680/2/5
f 684/1/5 680/1/5 683/1/5
f 685/2/5 681/2/5 673/2/5
f 685/2/5 682/2/5 681/2/5
f 686/2/5 674/2/5 682/2/5
f 686/2/5 682/2/5 685/2/5
f 687/2/5 683/2/5 675/2/5
f 687/2/5 684/2/5 683/2/5
f 688/2/5 676/2/5 684/2/5
f 688/2/5 684/2/5 687/2/5
f 689/2/5 685/2/5 673/2/5
f 689/1/5 686/1/5 685/1/5
f 690/2/5 674/2/5 686/2/5
f 690/1/5 686/1/5 689/1/5
f 691/2/5 687/2/5 675/2/5
f 691/1/5 688/1/5 687/1/5
f 692/2/5 676/2/5 688/2/5
f 692/1/5 688/1/5 691/1/5
f 693/2/5 689/2/5 673/2/5
f 693/2/5 690/2/5 689/2/5
f 694/2/5 674/2/5 690/2/5
f 694/2/5 690/2/5 693/2/5
f 695/2/5 691/2/5 675/2/5
f 695/2/5 692/2/5 691/2/5
f 696/2/5 676/2/5 692/2/5
f 696/2/5 692/2/5 695/2/5
f 701/2/5 698/2/5 697/2/5
f 702/2/5 698/2/5 701/2/5
f 703/2/5 698/2/5 702/2/5
f 704/2/5 698/2/5 703/2/5
f 705/2/5 700/2/5 699/2/5
f 706/2/5 700/2/5 705/2/5
f 707/2/5 700/2/5 706/2/5
f 708/2/5 700/2/5 707/2/5
f 709/2/5 701/2/5 697/2/5
f 709/1/5 702/1/5 701/1/5
f 710/2/5 703/2/5 702/2/5
f 710/1/5 702/1/5 709/1/5
f 711/1/5 704/1/5 703/1/5
f 711/2/5 703/2/5 710/2/5
f 712/2/5 698/2/5 704/2/5
f 712/1/5 704/1/5 711/1/5
f 713/2/5 705/2/5 699/2/5
f 713/1/5 706/1/5 705/1/5
f 714/2/5 707/2/5 706/2/5
f 714/1/5 706/1/5 713/1/5
f 715/1/5 708/1/5 707/1/5
f 715/2/5 707/2/5 714/2/5
f 716/2/5 700/2/5 708/2/5
f 716/1/5 708/1/5 715/1/5
f 717/2/5 711/2/5 710/2/5
f 717/2/5 709/2/5 697/2/5
f 717/2/5 710/2/5 709/2/5
f 717/2/5 712/2/5 711/2/5
f 718/2/5 698/2/5 712/2/5
f 718/2/5 712/2/5 717/2/5
f 719/2/5 715/2/5 714/2/5
f 719/2/5 714/2/5 713/2/5
f 719/2/5 716/2/5 715/2/5
f 719/2/5 713/2/5 699/2/5
f 720/2/5 700/2/5 716/2/5
f 720/2/5 716/2/5 719/2/5
f 723/2/5 722/2/5 721/2/5
f 724/2/5 722/2/5 723/2/5
f 725/2/5 723/2/5 721/2/5
f 725/1/5 724/1/5 723/1/5
f 726/2/5 722/2/5 724/2/5
f 726/1/5 724/1/5 725/1/5
f 727/2/5 725/2/5 721/2/5
f 727/2/5 726/2/5 725/2/5
f 728/2/5 722/2/5 726/2/5
f 728/2/5 726/2/5 727/2/5
f 729/2/5 727/2/5 721/2/5
f 729/1/5 728/1/5 727/1/5
f 730/2/5 722/2/5 728/2/5
f 730/1/5 728/1/5 729/1/5
f 731/2/5 729/2/5 721/2/5
f 731/2/5 730/2/5 729/2/5
f 732/2/5 722/2/5 730/2/5
f 732/2/5 730/2/5 731/2/5
f 736/1/5 734/1/5 733/1/5
f 737/1/5 734/1/5 736/1/5
f 739/1/5 736/1/5 735/1/5
f 739/1/5 738/1/5 737/1/5
f 739/1/5 737/1/5 736/1/5
f 740/1/5 738/1/5 739/1/5
f 741/1/5 738/1/5 740/1/5
f 742/1/5 738/1/5 741/1/5
f 743/1/5 738/1/5 742/1/5
f 744/1/5 738/1/5 743/1/5
f 745/1/5 739/1/5 735/1/5
f 747/1/5 742/1/5 741/1/5
f 748/1/5 742/1/5 747/1/5
f 750/1/5 738/1/5 744/1/5
f 751/1/5 749/1/5 748/1/5
f 751/1/5 750/1/5 749/1/5
f 751/1/5 746/1/5 745/1/5
f 751/1/5 745/1/5 735/1/5
f 751/1/5 748/1/5 747/1/5
f 751/1/5 747/1/5 746/1/5
f 752/1/5 750/1/5 751/1/5
f 753/1/5 750/1/5 752/1/5
f 754/1/5 750/1/5 753/1/5
f 755/1/5 750/1/5 754/1/5
f 756/1/5 738/1/5 750/1/5
f 756/1/5 750/1/5 755/1/5
f 757/1/5 751/1/5 735/1/5
f 759/1/5 754/1/5 753/1/5
f 760/1/5 754/1/5 759/1/5
f 762/1/5 738/1/5 756/1/5
f 763/1/5 761/1/5 760/1/5
f 763/1/5 762/1/5 761/1/5
f 763/1/5 758/1/5 757/1/5
f 763/1/5 759/1/5 758/1/5
f 763/1/5 760/1/5 759/1/5
f 764/1/5 762/1/5 763/1/5
f 765/1/5 762/1/5 764/1/5
f 766/1/5 762/1/5 765/1/5
f 767/1/5 762/1/5 766/1/5
f 768/1/5 762/1/5 767/1/5
f 769/1/5 762/1/5 768/1/5
f 770/1/5 762/1/5 769/1/5
f 771/1/5 757/1/5 735/1/5
f 771/1/5 763/1/5 757/1/5
f 772/1/5 763/1/5 771/1/5
f 773/1/5 762/1/5 770/1/5
f 774/1/5 738/1/5 762/1/5
f 774/1/5 762/1/5 773/1/5
f 775/1/5 763/1/5 772/1/5
f 776/1/5 765/1/5 764/1/5
f 777/1/5 765/1/5 776/1/5
f 778/1/5 767/1/5 766/1/5
f 779/1/5 767/1/5 778/1/5
f 780/1/5 769/1/5 768/1/5
f 781/1/5 769/1/5 780/1/5
f 782/1/5 773/1/5 770/1/5
f 783/1/5 781/1/5 780/1/5
f 783/1/5 782/1/5 781/1/5
f 783/1/5 779/1/5 778/1/5
f 783/1/5 777/1/5 776/1/5
f 783/1/5 780/1/5 779/1/5
f 783/1/5 775/1/5 772/1/5
f 783/1/5 778/1/5 777/1/5
f 783/1/5 776/1/5 775/1/5
f 784/1/5 773/1/5 782/1/5
f 784/1/5 782/1/5 783/1/5
f 785/1/6 786/1/6 789/1/6
f 789/1/6 786/1/6 790/1/6
f 787/1/6 788/1/6 791/1/6
f 791/1/6 788/1/6 792/1/6
f 793/1/6 794/1/6 795/1/6
f 795/1/6 794/1/6 796/1/6
f 797/1/6 798/1/6 801/1/6
f 801/1/6 798/1/6 802/1/6
f 799/1/6 800/1/6 803/1/6
f 803/1/6 800/1/6 804/1/6
f 805/2/6 806/2/6 811/2/6
f 806/1/6 807/1/6 812/1/6
f 811/2/6 806/2/6 812/2/6
f 812/1/6 807/1/6 813/1/6
f 808/1/6 809/1/6 814/1/6
f 809/2/6 810/2/6 815/2/6
f 814/1/6 809/1/6 815/1/6
f 815/2/6 810/2/6 816/2/6
f 817/1/6 818/1/6 821/1/6
f 821/1/6 818/1/6 822/1/6
f 819/1/6 820/1/6 823/1/6
f 823/1/6 820/1/6 824/1/6
f 825/1/6 826/1/6 827/1/6
f 827/1/6 826/1/6 828/1/6
f 829/1/6 830/1/6 831/1/6
f 831/1/6 830/1/6 832/1/6
f 831/2/6 832/2/6 833/2/6
f 833/2/6 832/2/6 834/2/6
f 835/1/6 836/1/6 839/1/6
f 839/1/6 836/1/6 840/1/6
f 837/1/6 838/1/6 841/1/6
f 841/1/6 838/1/6 842/1/6
f 839/2/6 840/2/6 843/2/6
f 843/2/6 840/2/6 844/2/6
f 841/2/6 842/2/6 845/2/6
f 845/2/6 842/2/6 846/2/6
f 847/2/6 848/2/6 853/2/6
f 848/1/6 849/1/6 854/1/6
f 853/2/6 848/2/6 854/2/6
f 854/1/6 849/1/6 855/1/6
f 850/1/6 851/1/6 856/1/6
f 851/2/6 852/2/6 857/2/6
f 856/1/6 851/1/6 857/1/6
f 857/2/6 852/2/6 858/2/6
f 859/1/6 860/1/6 861/1/6
f 861/1/6 860/1/6 862/1/6
f 861/2/6 862/2/6 863/2/6
f 863/2/6 862/2/6 864/2/6
f 865/1/6 866/1/6 871/1/6
f 871/1/6 866/1/6 872/1/6
f 867/1/6 868/1/6 873/1/6
f 873/1/6 868/1/6 874/1/6
f 869/1/6 870/1/6 875/1/6
f 875/1/6 870/1/6 876/1/6
f 865/1/6 871/1/6 878/1/6
f 876/1/6 870/1/6 879/1/6
f 877/1/6 878/1/6 881/1/6
f 878/1/6 871/1/6 882/1/6
f 881/1/6 878/1/6 882/1/6
f 879/1/6 880/1/6 883/1/6
f 876/1/6 879/1/6 883/1/6
f 883/1/6 880/1/6 884/1/6
f 877/1/6 881/1/6 885/1/6
f 884/1/6 880/1/6 888/1/6
f 885/1/6 886/1/6 889/1/6
f 877/1/6 885/1/6 889/1/6
f 889/1/6 886/1/6 890/1/6
f 887/1/6 888/1/6 891/1/6
f 888/1/6 880/1/6 892/1/6
f 891/1/6 888/1/6 892/1/6
f 890/1/6 886/1/6 893/1/6
f 887/1/6 891/1/6 894/1/6
f 890/1/6 893/1/6 895/1/6
f 893/1/6 894/1/6 895/1/6
f 894/1/6 891/1/6 896/1/6
f 895/1/6 894/1/6 896/1/6
f 897/1/6 898/1/6 899/1/6
f 899/1/6 898/1/6 900/1/6
f 901/3/6 902/3/6 903/3/6
f 903/3/6 902/3/6 904/3/6
f 905/1/6 906/1/6 908/1/6
f 908/1/6 906/1/6 909/1/6
f 909/1/6 906/1/6 910/1/6
f 910/1/6 906/1/6 911/1/6
f 907/1/6 908/1/6 913/1/6
f 908/1/6 909/1/6 913/1/6
f 913/1/6 909/1/6 914/1/6
f 911/1/6 912/1/6 915/1/6
f 910/1/6 911/1/6 915/1/6
f 915/1/6 912/1/6 916/1/6
f 907/1/6 913/1/6 917/1/6
f 916/1/6 912/1/6 920/1/6
f 917/1/6 918/1/6 921/1/6
f 907/1/6 917/1/6 921/1/6
f 921/1/6 918/1/6 922/1/6
f 922/1/6 918/1/6 923/1/6
f 919/1/6 920/1/6 924/1/6
f 920/1/6 912/1/6 925/1/6
f 924/1/6 920/1/6 925/1/6
f 925/1/6 912/1/6 926/1/6
f 922/1/6 923/1/6 927/1/6
f 923/1/6 924/1/6 927/1/6
f 924/1/6 925/1/6 927/1/6
f 927/1/6 925/1/6 928/1/6
f 929/1/6 930/1/6 932/1/6
f 932/1/6 930/1/6 933/1/6
f 931/1/6 932/1/6 935/1/6
f 933/1/6 934/1/6 935/1/6
f 932/1/6 933/1/6 935/1/6
f 935/1/6 934/1/6 936/1/6
f 931/1/6 935/1/6 937/1/6
f 937/1/6 935/1/6 938/1/6
f 936/1/6 934/1/6 939/1/6
f 939/1/6 934/1/6 940/1/6
f 931/1/6 937/1/6 941/1/6
f 940/1/6 934/1/6 944/1/6
f 941/1/6 942/1/6 945/1/6
f 943/1/6 944/1/6 946/1/6
f 941/1/6 945/1/6 947/1/6
f 945/1/6 946/1/6 947/1/6
f 931/1/6 941/1/6 947/1/6
f 947/1/6 946/1/6 948/1/6
f 946/1/6 944/1/6 949/1/6
f 948/1/6 946/1/6 949/1/6
f 944/1/6 934/1/6 949/1/6
f 949/1/6 934/1/6 950/1/6
f 948/1/6 949/1/6 951/1/6
f 951/1/6 949/1/6 952/1/6
f 953/1/6 954/1/6 956/1/6
f 956/1/6 954/1/6 957/1/6
f 955/1/6 956/1/6 959/1/6
f 957/1/6 958/1/6 959/1/6
f 956/1/6 957/1/6 959/1/6
f 959/1/6 958/1/6 960/1/6
f 960/1/6 958/1/6 961/1/6
f 961/1/6 958/1/6 962/1/6
f 960/1/6 961/1/6 963/1/6
f 963/1/6 961/1/6 964/1/6
