# MagicaVoxel @ Ephtracy

# group
o 

# material
mtllib model.mtl
usemtl palette

# normals
vn 0 0 1
vn 0 0 -1
vn 1 0 0
vn -1 0 0
vn 0 -1 0
vn 0 1 0

# texcoords
vt 0.107422 0.5
vt 0.111328 0.5
vt 0.271484 0.5
vt 0.275391 0.5
vt 0.279297 0.5
vt 0.779297 0.5

# verts
v 0.2 0 1.4
v 0.1 0 1.4
v 0.2 0.1 1.4
v 0.1 0.1 1.4
v 0.2 0.4 1.4
v 0.1 0.4 1.4
v 0.2 1.2 1.4
v 0.1 1.2 1.4
v 0.2 1.2 1.3
v 0.1 1.2 1.3
v 0.2 1.3 1.3
v 0.1 1.3 1.3
v 0.2 1 1.1
v 0.1 1 1.1
v 0.2 1.1 1.1
v 0.1 1.1 1.1
v 0.3 0.9 -1.4
v 0.2 0.9 -1.4
v 0.1 0.9 -1.4
v 0 0.9 -1.4
v 0.3 1.2 -1.4
v 0.2 1.2 -1.4
v 0.1 1.2 -1.4
v 0 1.2 -1.4
v 0.3 1.3 -1.4
v 0.2 1.3 -1.4
v 0.1 1.3 -1.4
v 0 1.3 -1.4
v 0.3 0.8 -2
v 0 0.8 -2
v 0.3 0.9 -2
v 0 0.9 -2
v 0.2 1 1.2
v 0.1 1 1.2
v 0.2 1.1 1.2
v 0.1 1.1 1.2
v 0.2 0 -1.4
v 0.1 0 -1.4
v 0.2 0.1 -1.4
v 0.1 0.1 -1.4
v 0.2 0.4 -1.4
v 0.1 0.4 -1.4
v 0.2 0.9 -1.4
v 0.1 0.9 -1.4
v 0.3 0.8 -2.6
v 0 0.8 -2.6
v 0.3 0.9 -2.6
v 0 0.9 -2.6
v 0.3 0.9 -2.7
v 0 0.9 -2.7
v 0.3 1.2 -2.7
v 0 1.2 -2.7
v 0.3 1.3 -2.7
v 0 1.3 -2.7
v 0.3 0.9 -1.4
v 0.3 1.2 -1.4
v 0.3 1.3 -1.4
v 0.3 1.1 -1.7
v 0.3 1.2 -1.7
v 0.3 1.1 -1.8
v 0.3 1.2 -1.8
v 0.3 0.8 -2
v 0.3 0.9 -2
v 0.3 1.1 -2.1
v 0.3 1.2 -2.1
v 0.3 1.1 -2.2
v 0.3 1.2 -2.2
v 0.3 1.1 -2.5
v 0.3 1.2 -2.5
v 0.3 0.8 -2.6
v 0.3 0.9 -2.6
v 0.3 1.1 -2.6
v 0.3 1.2 -2.6
v 0.3 0.9 -2.7
v 0.3 1.2 -2.7
v 0.3 1.3 -2.7
v 0.2 0 1.4
v 0.2 0.1 1.4
v 0.2 0.4 1.4
v 0.2 1.2 1.4
v 0.2 1.2 1.3
v 0.2 1.3 1.3
v 0.2 1 1.2
v 0.2 1.1 1.2
v 0.2 1 1.1
v 0.2 1.1 1.1
v 0.2 0.1 1
v 0.2 0.4 1
v 0.2 1.3 1
v 0.2 0.1 0.7
v 0.2 0.4 0.7
v 0.2 1.3 0.7
v 0.2 0.1 0.5
v 0.2 0.4 0.5
v 0.2 1.3 0.5
v 0.2 0.1 0.3
v 0.2 0.4 0.3
v 0.2 1.3 0.3
v 0.2 0.1 -0.6
v 0.2 0.4 -0.6
v 0.2 1.3 -0.6
v 0.2 0.1 -0.8
v 0.2 0.4 -0.8
v 0.2 1.3 -0.8
v 0.2 0.1 -0.9
v 0.2 0.4 -0.9
v 0.2 1.3 -0.9
v 0.2 0.1 -1
v 0.2 0.4 -1
v 0.2 1.3 -1
v 0.2 0 -1.4
v 0.2 0.1 -1.4
v 0.2 0.4 -1.4
v 0.2 0.9 -1.4
v 0.2 1.2 -1.4
v 0.2 1.3 -1.4
v 0.1 0 1.4
v 0.1 0.1 1.4
v 0.1 0.4 1.4
v 0.1 1.2 1.4
v 0.1 1.2 1.3
v 0.1 1.3 1.3
v 0.1 1 1.2
v 0.1 1.1 1.2
v 0.1 1 1.1
v 0.1 1.1 1.1
v 0.1 0.1 1
v 0.1 0.4 1
v 0.1 1.3 1
v 0.1 0.1 0.7
v 0.1 0.4 0.7
v 0.1 1.3 0.7
v 0.1 0.1 0.5
v 0.1 0.4 0.5
v 0.1 1.3 0.5
v 0.1 0.1 0.3
v 0.1 0.4 0.3
v 0.1 1.3 0.3
v 0.1 0.1 -0.6
v 0.1 0.4 -0.6
v 0.1 1.3 -0.6
v 0.1 0.1 -0.8
v 0.1 0.4 -0.8
v 0.1 1.3 -0.8
v 0.1 0.1 -0.9
v 0.1 0.4 -0.9
v 0.1 1.3 -0.9
v 0.1 0.1 -1
v 0.1 0.4 -1
v 0.1 1.3 -1
v 0.1 0 -1.4
v 0.1 0.1 -1.4
v 0.1 0.4 -1.4
v 0.1 0.9 -1.4
v 0.1 1.2 -1.4
v 0.1 1.3 -1.4
v 0 0.9 -1.4
v 0 1.2 -1.4
v 0 1.3 -1.4
v 0 1.1 -1.7
v 0 1.2 -1.7
v 0 1.1 -1.8
v 0 1.2 -1.8
v 0 0.8 -2
v 0 0.9 -2
v 0 1.1 -2.1
v 0 1.2 -2.1
v 0 1.1 -2.2
v 0 1.2 -2.2
v 0 1.1 -2.5
v 0 1.2 -2.5
v 0 0.8 -2.6
v 0 0.9 -2.6
v 0 1.1 -2.6
v 0 1.2 -2.6
v 0 0.9 -2.7
v 0 1.2 -2.7
v 0 1.3 -2.7
v 0.2 0 1.4
v 0.2 0 -1.4
v 0.1 0 1.4
v 0.1 0 -1.4
v 0.3 0.8 -2
v 0.3 0.8 -2.6
v 0 0.8 -2
v 0 0.8 -2.6
v 0.3 0.9 -1.4
v 0.3 0.9 -2
v 0.3 0.9 -2.6
v 0.3 0.9 -2.7
v 0.2 0.9 -1.4
v 0.1 0.9 -1.4
v 0 0.9 -1.4
v 0 0.9 -2
v 0 0.9 -2.6
v 0 0.9 -2.7
v 0.2 1.1 1.2
v 0.2 1.1 1.1
v 0.1 1.1 1.2
v 0.1 1.1 1.1
v 0.2 1 1.2
v 0.2 1 1.1
v 0.1 1 1.2
v 0.1 1 1.1
v 0.2 1.2 1.4
v 0.2 1.2 1.3
v 0.1 1.2 1.4
v 0.1 1.2 1.3
v 0.3 1.3 -1.4
v 0.3 1.3 -2.7
v 0.2 1.3 1.3
v 0.2 1.3 1
v 0.2 1.3 0.7
v 0.2 1.3 0.5
v 0.2 1.3 0.3
v 0.2 1.3 -0.6
v 0.2 1.3 -0.8
v 0.2 1.3 -0.9
v 0.2 1.3 -1
v 0.2 1.3 -1.4
v 0.1 1.3 1.3
v 0.1 1.3 1
v 0.1 1.3 0.7
v 0.1 1.3 0.5
v 0.1 1.3 0.3
v 0.1 1.3 -0.6
v 0.1 1.3 -0.8
v 0.1 1.3 -0.9
v 0.1 1.3 -1
v 0.1 1.3 -1.4
v 0 1.3 -1.4
v 0 1.3 -2.7

# faces
f 3/5/1 2/5/1 1/5/1
f 4/5/1 2/5/1 3/5/1
f 5/4/1 4/4/1 3/4/1
f 6/4/1 4/4/1 5/4/1
f 7/3/1 6/3/1 5/3/1
f 8/3/1 6/3/1 7/3/1
f 11/3/1 10/3/1 9/3/1
f 12/3/1 10/3/1 11/3/1
f 15/3/1 14/3/1 13/3/1
f 16/3/1 14/3/1 15/3/1
f 21/1/1 18/1/1 17/1/1
f 22/1/1 18/1/1 21/1/1
f 23/1/1 20/1/1 19/1/1
f 24/1/1 20/1/1 23/1/1
f 25/2/1 22/2/1 21/2/1
f 26/2/1 22/2/1 25/2/1
f 27/2/1 24/2/1 23/2/1
f 28/2/1 24/2/1 27/2/1
f 31/1/1 30/1/1 29/1/1
f 32/1/1 30/1/1 31/1/1
f 33/3/2 34/3/2 35/3/2
f 35/3/2 34/3/2 36/3/2
f 37/5/2 38/5/2 39/5/2
f 39/5/2 38/5/2 40/5/2
f 39/4/2 40/4/2 41/4/2
f 41/4/2 40/4/2 42/4/2
f 41/3/2 42/3/2 43/3/2
f 43/3/2 42/3/2 44/3/2
f 45/1/2 46/1/2 47/1/2
f 47/1/2 46/1/2 48/1/2
f 49/1/2 50/1/2 51/1/2
f 51/1/2 50/1/2 52/1/2
f 51/2/2 52/2/2 53/2/2
f 53/2/2 52/2/2 54/2/2
f 58/1/3 56/1/3 55/1/3
f 59/2/3 57/2/3 56/2/3
f 59/1/3 56/1/3 58/1/3
f 60/1/3 58/1/3 55/1/3
f 60/6/3 59/6/3 58/6/3
f 61/2/3 57/2/3 59/2/3
f 61/6/3 59/6/3 60/6/3
f 63/1/3 60/1/3 55/1/3
f 63/1/3 61/1/3 60/1/3
f 64/1/3 61/1/3 63/1/3
f 64/1/3 63/1/3 62/1/3
f 65/2/3 57/2/3 61/2/3
f 65/1/3 61/1/3 64/1/3
f 66/1/3 64/1/3 62/1/3
f 66/6/3 65/6/3 64/6/3
f 67/2/3 57/2/3 65/2/3
f 67/6/3 65/6/3 66/6/3
f 68/1/3 66/1/3 62/1/3
f 68/1/3 67/1/3 66/1/3
f 69/2/3 57/2/3 67/2/3
f 69/1/3 67/1/3 68/1/3
f 70/1/3 68/1/3 62/1/3
f 71/1/3 68/1/3 70/1/3
f 72/6/3 69/6/3 68/6/3
f 72/1/3 68/1/3 71/1/3
f 73/2/3 57/2/3 69/2/3
f 73/6/3 69/6/3 72/6/3
f 74/1/3 72/1/3 71/1/3
f 74/1/3 73/1/3 72/1/3
f 75/2/3 57/2/3 73/2/3
f 75/1/3 73/1/3 74/1/3
f 76/2/3 57/2/3 75/2/3
f 81/3/3 80/3/3 79/3/3
f 83/3/3 81/3/3 79/3/3
f 83/3/3 82/3/3 81/3/3
f 84/3/3 82/3/3 83/3/3
f 85/3/3 83/3/3 79/3/3
f 86/3/3 82/3/3 84/3/3
f 87/5/3 78/5/3 77/5/3
f 87/4/3 79/4/3 78/4/3
f 88/3/3 86/3/3 85/3/3
f 88/4/3 79/4/3 87/4/3
f 88/3/3 85/3/3 79/3/3
f 89/3/3 82/3/3 86/3/3
f 89/3/3 86/3/3 88/3/3
f 90/5/3 87/5/3 77/5/3
f 90/5/3 88/5/3 87/5/3
f 91/4/3 89/4/3 88/4/3
f 91/5/3 88/5/3 90/5/3
f 92/4/3 89/4/3 91/4/3
f 93/5/3 90/5/3 77/5/3
f 93/4/3 91/4/3 90/4/3
f 94/3/3 92/3/3 91/3/3
f 94/4/3 91/4/3 93/4/3
f 95/3/3 92/3/3 94/3/3
f 96/5/3 93/5/3 77/5/3
f 96/5/3 94/5/3 93/5/3
f 97/4/3 95/4/3 94/4/3
f 97/5/3 94/5/3 96/5/3
f 98/4/3 95/4/3 97/4/3
f 99/5/3 96/5/3 77/5/3
f 99/4/3 97/4/3 96/4/3
f 100/3/3 98/3/3 97/3/3
f 100/4/3 97/4/3 99/4/3
f 101/3/3 98/3/3 100/3/3
f 102/5/3 99/5/3 77/5/3
f 102/5/3 100/5/3 99/5/3
f 103/4/3 101/4/3 100/4/3
f 103/5/3 100/5/3 102/5/3
f 104/4/3 101/4/3 103/4/3
f 105/5/3 102/5/3 77/5/3
f 105/4/3 103/4/3 102/4/3
f 106/3/3 104/3/3 103/3/3
f 106/4/3 103/4/3 105/4/3
f 107/3/3 104/3/3 106/3/3
f 108/5/3 105/5/3 77/5/3
f 108/5/3 106/5/3 105/5/3
f 109/4/3 107/4/3 106/4/3
f 109/5/3 106/5/3 108/5/3
f 110/4/3 107/4/3 109/4/3
f 111/5/3 108/5/3 77/5/3
f 112/4/3 109/4/3 108/4/3
f 112/5/3 108/5/3 111/5/3
f 113/3/3 110/3/3 109/3/3
f 113/4/3 109/4/3 112/4/3
f 114/3/3 110/3/3 113/3/3
f 115/3/3 110/3/3 114/3/3
f 116/3/3 110/3/3 115/3/3
f 119/3/4 120/3/4 121/3/4
f 119/3/4 121/3/4 123/3/4
f 121/3/4 122/3/4 123/3/4
f 123/3/4 122/3/4 124/3/4
f 119/3/4 123/3/4 125/3/4
f 124/3/4 122/3/4 126/3/4
f 117/5/4 118/5/4 127/5/4
f 118/4/4 119/4/4 127/4/4
f 125/3/4 126/3/4 128/3/4
f 127/4/4 119/4/4 128/4/4
f 119/3/4 125/3/4 128/3/4
f 126/3/4 122/3/4 129/3/4
f 128/3/4 126/3/4 129/3/4
f 117/5/4 127/5/4 130/5/4
f 127/5/4 128/5/4 130/5/4
f 128/4/4 129/4/4 131/4/4
f 130/5/4 128/5/4 131/5/4
f 131/4/4 129/4/4 132/4/4
f 117/5/4 130/5/4 133/5/4
f 130/4/4 131/4/4 133/4/4
f 131/3/4 132/3/4 134/3/4
f 133/4/4 131/4/4 134/4/4
f 134/3/4 132/3/4 135/3/4
f 117/5/4 133/5/4 136/5/4
f 133/5/4 134/5/4 136/5/4
f 134/4/4 135/4/4 137/4/4
f 136/5/4 134/5/4 137/5/4
f 137/4/4 135/4/4 138/4/4
f 117/5/4 136/5/4 139/5/4
f 136/4/4 137/4/4 139/4/4
f 137/3/4 138/3/4 140/3/4
f 139/4/4 137/4/4 140/4/4
f 140/3/4 138/3/4 141/3/4
f 117/5/4 139/5/4 142/5/4
f 139/5/4 140/5/4 142/5/4
f 140/4/4 141/4/4 143/4/4
f 142/5/4 140/5/4 143/5/4
f 143/4/4 141/4/4 144/4/4
f 117/5/4 142/5/4 145/5/4
f 142/4/4 143/4/4 145/4/4
f 143/3/4 144/3/4 146/3/4
f 145/4/4 143/4/4 146/4/4
f 146/3/4 144/3/4 147/3/4
f 117/5/4 145/5/4 148/5/4
f 145/5/4 146/5/4 148/5/4
f 146/4/4 147/4/4 149/4/4
f 148/5/4 146/5/4 149/5/4
f 149/4/4 147/4/4 150/4/4
f 117/5/4 148/5/4 151/5/4
f 148/4/4 149/4/4 152/4/4
f 151/5/4 148/5/4 152/5/4
f 149/3/4 150/3/4 153/3/4
f 152/4/4 149/4/4 153/4/4
f 153/3/4 150/3/4 154/3/4
f 154/3/4 150/3/4 155/3/4
f 155/3/4 150/3/4 156/3/4
f 157/1/4 158/1/4 160/1/4
f 158/2/4 159/2/4 161/2/4
f 160/1/4 158/1/4 161/1/4
f 157/1/4 160/1/4 162/1/4
f 160/6/4 161/6/4 162/6/4
f 161/2/4 159/2/4 163/2/4
f 162/6/4 161/6/4 163/6/4
f 157/1/4 162/1/4 165/1/4
f 162/1/4 163/1/4 165/1/4
f 165/1/4 163/1/4 166/1/4
f 164/1/4 165/1/4 166/1/4
f 163/2/4 159/2/4 167/2/4
f 166/1/4 163/1/4 167/1/4
f 164/1/4 166/1/4 168/1/4
f 166/6/4 167/6/4 168/6/4
f 167/2/4 159/2/4 169/2/4
f 168/6/4 167/6/4 169/6/4
f 164/1/4 168/1/4 170/1/4
f 168/1/4 169/1/4 170/1/4
f 169/2/4 159/2/4 171/2/4
f 170/1/4 169/1/4 171/1/4
f 164/1/4 170/1/4 172/1/4
f 172/1/4 170/1/4 173/1/4
f 170/6/4 171/6/4 174/6/4
f 173/1/4 170/1/4 174/1/4
f 171/2/4 159/2/4 175/2/4
f 174/6/4 171/6/4 175/6/4
f 173/1/4 174/1/4 176/1/4
f 174/1/4 175/1/4 176/1/4
f 175/2/4 159/2/4 177/2/4
f 176/1/4 175/1/4 177/1/4
f 177/2/4 159/2/4 178/2/4
f 181/5/5 180/5/5 179/5/5
f 182/5/5 180/5/5 181/5/5
f 185/1/5 184/1/5 183/1/5
f 186/1/5 184/1/5 185/1/5
f 191/1/5 188/1/5 187/1/5
f 192/1/5 188/1/5 191/1/5
f 193/1/5 188/1/5 192/1/5
f 194/1/5 188/1/5 193/1/5
f 195/1/5 190/1/5 189/1/5
f 196/1/5 190/1/5 195/1/5
f 199/3/5 198/3/5 197/3/5
f 200/3/5 198/3/5 199/3/5
f 201/3/6 202/3/6 203/3/6
f 203/3/6 202/3/6 204/3/6
f 205/3/6 206/3/6 207/3/6
f 207/3/6 206/3/6 208/3/6
f 209/2/6 210/2/6 220/2/6
f 211/3/6 212/3/6 221/3/6
f 212/4/6 213/4/6 222/4/6
f 221/3/6 212/3/6 222/3/6
f 213/3/6 214/3/6 223/3/6
f 222/4/6 213/4/6 223/4/6
f 214/4/6 215/4/6 224/4/6
f 223/3/6 214/3/6 224/3/6
f 215/3/6 216/3/6 225/3/6
f 224/4/6 215/4/6 225/4/6
f 216/4/6 217/4/6 226/4/6
f 225/3/6 216/3/6 226/3/6
f 217/3/6 218/3/6 227/3/6
f 226/4/6 217/4/6 227/4/6
f 218/4/6 219/4/6 228/4/6
f 227/3/6 218/3/6 228/3/6
f 219/3/6 220/3/6 229/3/6
f 228/4/6 219/4/6 229/4/6
f 220/2/6 210/2/6 230/2/6
f 229/3/6 220/3/6 230/3/6
f 230/2/6 210/2/6 231/2/6
f 231/2/6 210/2/6 232/2/6
