# MagicaVoxel @ Ephtracy

# group
o 

# material
mtllib model-4.mtl
usemtl palette

# normals
vn 0 0 1
vn 0 0 -1
vn 1 0 0
vn -1 0 0
vn 0 -1 0
vn 0 1 0

# texcoords
vt 0.263672 0.5
vt 0.267578 0.5
vt 0.271484 0.5
vt 0.275391 0.5
vt 0.279297 0.5

# verts
v 0.5 1.8 1.4
v -0.5 1.8 1.4
v 0.5 2.1 1.4
v -0.5 2.1 1.4
v 0.5 0.6 1
v -0.5 0.6 1
v 0.5 1.8 1
v -0.5 1.8 1
v 0.8 2 1
v 0.5 2 1
v 0.5 2.1 1
v -0.5 2.1 1
v -0.7 2.1 1
v 0.8 2.2 1
v -0.7 2.2 1
v 0.8 1.3 0.6
v 0.7 1.3 0.6
v 0.5 1.3 0.6
v 0.7 1.5 0.6
v 0.5 1.5 0.6
v 0.7 1.6 0.6
v 0.5 1.6 0.6
v 0.7 1.7 0.6
v 0.5 1.7 0.6
v 0.7 1.8 0.6
v 0.5 1.8 0.6
v 0.7 1.9 0.6
v 0.5 1.9 0.6
v 0.7 2 0.6
v 0.5 2 0.6
v 0.8 2.1 0.6
v 0.7 2.1 0.6
v 0.5 2.1 0.6
v 0.6 0.6 0.5
v 0.5 0.6 0.5
v 0.6 1.3 0.5
v 0.5 1.3 0.5
v 0.4 2.1 0.4
v -0.4 2.1 0.4
v 0.4 2.2 0.4
v -0.4 2.2 0.4
v 0.5 0.6 0.2
v 0.4 0.6 0.2
v 0.4 0.7 0.2
v 0.4 0.9 0.2
v 0.5 1 0.2
v 0.4 1 0.2
v 0.5 1.2 0.2
v 0.4 1.2 0.2
v 0.4 1.3 0.2
v 0.4 1.5 0.2
v 0.5 1.6 0.2
v 0.4 1.6 0.2
v 0.5 0.7 -0.1
v 0.4 0.7 -0.1
v 0.5 0.9 -0.1
v 0.4 0.9 -0.1
v 0.5 1.3 -0.1
v 0.4 1.3 -0.1
v 0.5 1.5 -0.1
v 0.4 1.5 -0.1
v 0.6 0.6 -0.4
v 0.5 0.6 -0.4
v 0.4 0.6 -0.4
v 0.4 0.7 -0.4
v 0.4 0.9 -0.4
v 0.8 1.3 -0.4
v 0.6 1.3 -0.4
v 0.4 1.3 -0.4
v 0.8 1.4 -0.4
v 0.5 1.4 -0.4
v 0.4 1.4 -0.4
v 0.8 1.4 -0.5
v 0.7 1.4 -0.5
v 0.5 1.4 -0.5
v 0.4 1.4 -0.5
v 0.7 1.5 -0.5
v 0.5 1.5 -0.5
v 0.4 1.5 -0.5
v 0.7 1.6 -0.5
v 0.5 1.6 -0.5
v 0.7 1.7 -0.5
v 0.5 1.7 -0.5
v 0.7 1.8 -0.5
v 0.5 1.8 -0.5
v 0.7 1.9 -0.5
v 0.5 1.9 -0.5
v 0.7 2 -0.5
v 0.5 2 -0.5
v 0.4 2.1 -0.5
v -0.4 2.1 -0.5
v -0.5 2.1 -0.5
v 0.8 2.2 -0.5
v 0.7 2.2 -0.5
v -0.5 2.2 -0.5
v 0.8 2 -0.9
v 0.5 2 -0.9
v 0.8 2.1 -0.9
v 0.7 2.1 -0.9
v 0.5 2.1 -0.9
v 0.8 2 0.9
v 0.5 2 0.9
v 0.8 2.1 0.9
v 0.7 2.1 0.9
v 0.5 2.1 0.9
v 0.8 1.4 0.5
v 0.7 1.4 0.5
v 0.5 1.4 0.5
v 0.4 1.4 0.5
v 0.7 1.5 0.5
v 0.5 1.5 0.5
v 0.4 1.5 0.5
v 0.7 1.6 0.5
v 0.5 1.6 0.5
v 0.7 1.7 0.5
v 0.5 1.7 0.5
v 0.7 1.8 0.5
v 0.5 1.8 0.5
v 0.7 1.9 0.5
v 0.5 1.9 0.5
v 0.7 2 0.5
v 0.5 2 0.5
v 0.4 2.1 0.5
v -0.4 2.1 0.5
v -0.5 2.1 0.5
v 0.8 2.2 0.5
v 0.7 2.2 0.5
v -0.5 2.2 0.5
v 0.6 0.6 0.4
v 0.5 0.6 0.4
v 0.4 0.6 0.4
v 0.4 0.7 0.4
v 0.4 0.9 0.4
v 0.8 1.3 0.4
v 0.6 1.3 0.4
v 0.4 1.3 0.4
v 0.8 1.4 0.4
v 0.5 1.4 0.4
v 0.4 1.4 0.4
v 0.5 0.7 0.1
v 0.4 0.7 0.1
v 0.5 0.9 0.1
v 0.4 0.9 0.1
v 0.5 1.3 0.1
v 0.4 1.3 0.1
v 0.5 1.5 0.1
v 0.4 1.5 0.1
v 0.5 0.6 -0.2
v 0.4 0.6 -0.2
v 0.4 0.7 -0.2
v 0.5 0.9 -0.2
v 0.4 0.9 -0.2
v 0.5 1 -0.2
v 0.4 1 -0.2
v 0.5 1.2 -0.2
v 0.4 1.2 -0.2
v 0.4 1.3 -0.2
v 0.5 1.5 -0.2
v 0.4 1.5 -0.2
v 0.5 1.6 -0.2
v 0.4 1.6 -0.2
v 0.4 2.1 -0.4
v -0.4 2.1 -0.4
v 0.4 2.2 -0.4
v -0.4 2.2 -0.4
v 0.6 0.6 -0.5
v 0.5 0.6 -0.5
v 0.6 1.3 -0.5
v 0.5 1.3 -0.5
v 0.8 1.3 -0.6
v 0.7 1.3 -0.6
v 0.5 1.3 -0.6
v 0.7 1.5 -0.6
v 0.5 1.5 -0.6
v 0.7 1.6 -0.6
v 0.5 1.6 -0.6
v 0.7 1.7 -0.6
v 0.5 1.7 -0.6
v 0.7 1.8 -0.6
v 0.5 1.8 -0.6
v 0.7 1.9 -0.6
v 0.5 1.9 -0.6
v 0.7 2 -0.6
v 0.5 2 -0.6
v 0.8 2.1 -0.6
v 0.7 2.1 -0.6
v 0.5 2.1 -0.6
v 0.5 0.6 -1
v -0.5 0.6 -1
v 0.5 1.8 -1
v -0.5 1.8 -1
v 0.8 2 -1
v 0.5 2 -1
v 0.5 2.1 -1
v -0.5 2.1 -1
v -0.7 2.1 -1
v 0.8 2.2 -1
v -0.7 2.2 -1
v 0.5 1.8 -1.4
v -0.5 1.8 -1.4
v 0.5 2.1 -1.4
v -0.5 2.1 -1.4
v 0.8 2 1
v 0.8 2.2 1
v 0.8 2 0.9
v 0.8 2.1 0.9
v 0.8 1.3 0.6
v 0.8 2.1 0.6
v 0.8 1.4 0.5
v 0.8 2.2 0.5
v 0.8 1.3 0.4
v 0.8 1.4 0.4
v 0.8 1.3 -0.4
v 0.8 1.4 -0.4
v 0.8 1.4 -0.5
v 0.8 2.2 -0.5
v 0.8 1.3 -0.6
v 0.8 2.1 -0.6
v 0.8 2 -0.9
v 0.8 2.1 -0.9
v 0.8 2 -1
v 0.8 2.2 -1
v 0.6 0.6 0.5
v 0.6 1.3 0.5
v 0.6 0.6 0.4
v 0.6 1.3 0.4
v 0.6 0.6 -0.4
v 0.6 1.3 -0.4
v 0.6 0.6 -0.5
v 0.6 1.3 -0.5
v 0.5 1.8 1.4
v 0.5 2.1 1.4
v 0.5 1.8 1.3
v 0.5 2.1 1.3
v 0.5 0.6 1
v 0.5 1.8 1
v 0.5 2 1
v 0.5 2.1 1
v 0.5 0.7 0.9
v 0.5 0.8 0.9
v 0.5 1 0.9
v 0.5 1.1 0.9
v 0.5 1.3 0.9
v 0.5 1.4 0.9
v 0.5 2 0.9
v 0.5 2.1 0.9
v 0.5 1.3 0.7
v 0.5 1.4 0.7
v 0.5 0.7 0.6
v 0.5 0.8 0.6
v 0.5 1 0.6
v 0.5 1.1 0.6
v 0.5 1.3 0.6
v 0.5 1.5 0.6
v 0.5 1.6 0.6
v 0.5 1.7 0.6
v 0.5 1.8 0.6
v 0.5 1.9 0.6
v 0.5 2 0.6
v 0.5 2.1 0.6
v 0.5 0.6 0.5
v 0.5 1.3 0.5
v 0.5 0.6 0.2
v 0.5 1 0.2
v 0.5 1.2 0.2
v 0.5 1.6 0.2
v 0.5 0.7 0.1
v 0.5 0.9 0.1
v 0.5 1.3 0.1
v 0.5 1.5 0.1
v 0.5 0.9 0
v 0.5 1 0
v 0.5 1.5 0
v 0.5 1.6 0
v 0.5 0.7 -0.1
v 0.5 0.9 -0.1
v 0.5 1.3 -0.1
v 0.5 1.5 -0.1
v 0.5 0.6 -0.2
v 0.5 0.9 -0.2
v 0.5 1 -0.2
v 0.5 1.2 -0.2
v 0.5 1.5 -0.2
v 0.5 1.6 -0.2
v 0.5 0.6 -0.5
v 0.5 1.3 -0.5
v 0.5 0.7 -0.6
v 0.5 0.8 -0.6
v 0.5 1 -0.6
v 0.5 1.1 -0.6
v 0.5 1.3 -0.6
v 0.5 1.5 -0.6
v 0.5 1.6 -0.6
v 0.5 1.7 -0.6
v 0.5 1.8 -0.6
v 0.5 1.9 -0.6
v 0.5 2 -0.6
v 0.5 2.1 -0.6
v 0.5 1.3 -0.7
v 0.5 1.4 -0.7
v 0.5 0.7 -0.9
v 0.5 0.8 -0.9
v 0.5 1 -0.9
v 0.5 1.1 -0.9
v 0.5 1.3 -0.9
v 0.5 1.4 -0.9
v 0.5 2 -0.9
v 0.5 2.1 -0.9
v 0.5 0.6 -1
v 0.5 1.8 -1
v 0.5 2 -1
v 0.5 2.1 -1
v 0.5 1.8 -1.3
v 0.5 2.1 -1.3
v 0.5 1.8 -1.4
v 0.5 2.1 -1.4
v 0.4 1.4 0.5
v 0.4 1.5 0.5
v 0.4 2.1 0.5
v 0.4 0.6 0.4
v 0.4 0.7 0.4
v 0.4 0.9 0.4
v 0.4 1.3 0.4
v 0.4 1.4 0.4
v 0.4 2.1 0.4
v 0.4 2.2 0.4
v 0.4 0.6 0.2
v 0.4 0.7 0.2
v 0.4 0.9 0.2
v 0.4 1 0.2
v 0.4 1.2 0.2
v 0.4 1.3 0.2
v 0.4 1.5 0.2
v 0.4 1.6 0.2
v 0.4 0.7 0.1
v 0.4 0.9 0.1
v 0.4 1.3 0.1
v 0.4 1.5 0.1
v 0.4 0.9 0
v 0.4 1 0
v 0.4 1.5 0
v 0.4 1.6 0
v 0.4 0.7 -0.1
v 0.4 0.9 -0.1
v 0.4 1.3 -0.1
v 0.4 1.5 -0.1
v 0.4 0.6 -0.2
v 0.4 0.7 -0.2
v 0.4 0.9 -0.2
v 0.4 1 -0.2
v 0.4 1.2 -0.2
v 0.4 1.3 -0.2
v 0.4 1.5 -0.2
v 0.4 1.6 -0.2
v 0.4 0.6 -0.4
v 0.4 0.7 -0.4
v 0.4 0.9 -0.4
v 0.4 1.3 -0.4
v 0.4 1.4 -0.4
v 0.4 2.1 -0.4
v 0.4 2.2 -0.4
v 0.4 1.4 -0.5
v 0.4 1.5 -0.5
v 0.4 2.1 -0.5
v -0.5 2.1 0.5
v -0.5 2.2 0.5
v -0.5 2.1 -0.5
v -0.5 2.2 -0.5
v -0.4 2.1 0.4
v -0.4 2.2 0.4
v -0.4 2.1 -0.4
v -0.4 2.2 -0.4
v -0.5 1.8 1.4
v -0.5 2.1 1.4
v -0.5 1.8 1.3
v -0.5 2.1 1.3
v -0.5 0.6 1
v -0.5 1.8 1
v -0.5 2.1 1
v -0.5 2.1 0.9
v -0.5 2.1 -0.9
v -0.5 0.6 -1
v -0.5 1.8 -1
v -0.5 2.1 -1
v -0.5 1.8 -1.3
v -0.5 2.1 -1.3
v -0.5 1.8 -1.4
v -0.5 2.1 -1.4
v -0.7 2.1 1
v -0.7 2.2 1
v -0.7 2.1 -1
v -0.7 2.2 -1
v 0.6 0.6 0.5
v 0.6 0.6 0.4
v 0.6 0.6 -0.4
v 0.6 0.6 -0.5
v 0.5 0.6 1
v 0.5 0.6 0.5
v 0.5 0.6 0.4
v 0.5 0.6 0.2
v 0.5 0.6 -0.2
v 0.5 0.6 -0.4
v 0.5 0.6 -0.5
v 0.5 0.6 -1
v 0.4 0.6 0.4
v 0.4 0.6 0.2
v 0.4 0.6 -0.2
v 0.4 0.6 -0.4
v 0.3 0.6 0.4
v 0.3 0.6 -0.4
v -0.5 0.6 1
v -0.5 0.6 -1
v 0.5 0.9 0.1
v 0.5 0.9 0
v 0.5 0.9 -0.1
v 0.4 0.9 0.1
v 0.4 0.9 0
v 0.4 0.9 -0.1
v 0.5 1.2 0.2
v 0.5 1.2 -0.2
v 0.4 1.2 0.2
v 0.4 1.2 -0.2
v 0.8 1.3 0.6
v 0.8 1.3 0.4
v 0.8 1.3 -0.4
v 0.8 1.3 -0.6
v 0.7 1.3 0.6
v 0.7 1.3 0.5
v 0.7 1.3 -0.5
v 0.7 1.3 -0.6
v 0.6 1.3 0.5
v 0.6 1.3 0.4
v 0.6 1.3 -0.4
v 0.6 1.3 -0.5
v 0.5 1.3 0.6
v 0.5 1.3 0.5
v 0.5 1.3 -0.5
v 0.5 1.3 -0.6
v 0.5 1.5 0.1
v 0.5 1.5 0
v 0.5 1.5 -0.1
v 0.4 1.5 0.1
v 0.4 1.5 0
v 0.4 1.5 -0.1
v 0.5 1.8 1.4
v 0.5 1.8 1.3
v 0.5 1.8 1
v 0.5 1.8 -1
v 0.5 1.8 -1.3
v 0.5 1.8 -1.4
v -0.5 1.8 1.4
v -0.5 1.8 1.3
v -0.5 1.8 1
v -0.5 1.8 -1
v -0.5 1.8 -1.3
v -0.5 1.8 -1.4
v 0.8 2 1
v 0.8 2 0.9
v 0.8 2 -0.9
v 0.8 2 -1
v 0.5 2 1
v 0.5 2 0.9
v 0.5 2 -0.9
v 0.5 2 -1
v 0.8 2.1 0.9
v 0.8 2.1 0.6
v 0.8 2.1 -0.6
v 0.8 2.1 -0.9
v 0.7 2.1 0.9
v 0.7 2.1 0.6
v 0.7 2.1 -0.6
v 0.7 2.1 -0.9
v 0.5 2.1 0.9
v 0.5 2.1 0.6
v 0.5 2.1 -0.6
v 0.5 2.1 -0.9
v -0.5 2.1 1
v -0.5 2.1 0.9
v -0.5 2.1 -0.9
v -0.5 2.1 -1
v -0.6 2.1 0.9
v -0.6 2.1 -0.9
v -0.7 2.1 1
v -0.7 2.1 -1
v 0.5 0.7 0.1
v 0.5 0.7 -0.1
v 0.4 0.7 0.1
v 0.4 0.7 -0.1
v 0.5 1 0.2
v 0.5 1 0
v 0.5 1 -0.2
v 0.4 1 0.2
v 0.4 1 0
v 0.4 1 -0.2
v 0.5 1.3 0.1
v 0.5 1.3 -0.1
v 0.4 1.3 0.1
v 0.4 1.3 -0.1
v 0.8 1.4 0.5
v 0.8 1.4 0.4
v 0.8 1.4 -0.4
v 0.8 1.4 -0.5
v 0.7 1.4 0.5
v 0.7 1.4 -0.5
v 0.5 1.4 0.5
v 0.5 1.4 0.4
v 0.5 1.4 -0.4
v 0.5 1.4 -0.5
v 0.4 1.4 0.5
v 0.4 1.4 0.4
v 0.4 1.4 -0.4
v 0.4 1.4 -0.5
v 0.5 1.6 0.2
v 0.5 1.6 0
v 0.5 1.6 -0.2
v 0.4 1.6 0.2
v 0.4 1.6 0
v 0.4 1.6 -0.2
v 0.5 2.1 1.4
v 0.5 2.1 1.3
v 0.5 2.1 1
v 0.5 2.1 -1
v 0.5 2.1 -1.3
v 0.5 2.1 -1.4
v 0.4 2.1 0.5
v 0.4 2.1 0.4
v 0.4 2.1 -0.4
v 0.4 2.1 -0.5
v -0.4 2.1 0.5
v -0.4 2.1 0.4
v -0.4 2.1 -0.4
v -0.4 2.1 -0.5
v -0.5 2.1 1.4
v -0.5 2.1 1.3
v -0.5 2.1 1
v -0.5 2.1 0.5
v -0.5 2.1 -0.5
v -0.5 2.1 -1
v -0.5 2.1 -1.3
v -0.5 2.1 -1.4
v 0.8 2.2 1
v 0.8 2.2 0.5
v 0.8 2.2 -0.5
v 0.8 2.2 -1
v 0.7 2.2 0.9
v 0.7 2.2 0.5
v 0.7 2.2 -0.5
v 0.7 2.2 -0.9
v 0.4 2.2 0.4
v 0.4 2.2 -0.4
v -0.4 2.2 0.4
v -0.4 2.2 -0.4
v -0.5 2.2 0.5
v -0.5 2.2 -0.5
v -0.6 2.2 0.9
v -0.6 2.2 -0.9
v -0.7 2.2 1
v -0.7 2.2 -1

# faces
f 3/5/1 2/5/1 1/5/1
f 4/5/1 2/5/1 3/5/1
f 7/3/1 6/3/1 5/3/1
f 8/3/1 6/3/1 7/3/1
f 11/5/1 10/5/1 9/5/1
f 14/5/1 12/5/1 11/5/1
f 14/5/1 13/5/1 12/5/1
f 14/5/1 11/5/1 9/5/1
f 15/5/1 13/5/1 14/5/1
f 19/5/1 17/5/1 16/5/1
f 19/3/1 18/3/1 17/3/1
f 20/3/1 18/3/1 19/3/1
f 21/5/1 19/5/1 16/5/1
f 21/4/1 20/4/1 19/4/1
f 22/4/1 20/4/1 21/4/1
f 23/5/1 21/5/1 16/5/1
f 23/3/1 22/3/1 21/3/1
f 24/3/1 22/3/1 23/3/1
f 25/5/1 23/5/1 16/5/1
f 25/4/1 24/4/1 23/4/1
f 26/4/1 24/4/1 25/4/1
f 27/5/1 25/5/1 16/5/1
f 27/3/1 26/3/1 25/3/1
f 28/3/1 26/3/1 27/3/1
f 29/5/1 27/5/1 16/5/1
f 29/4/1 28/4/1 27/4/1
f 30/4/1 28/4/1 29/4/1
f 31/5/1 29/5/1 16/5/1
f 32/3/1 30/3/1 29/3/1
f 32/5/1 29/5/1 31/5/1
f 33/3/1 30/3/1 32/3/1
f 36/5/1 35/5/1 34/5/1
f 37/5/1 35/5/1 36/5/1
f 40/2/1 39/2/1 38/2/1
f 41/2/1 39/2/1 40/2/1
f 44/4/1 43/4/1 42/4/1
f 45/4/1 44/4/1 42/4/1
f 46/4/1 45/4/1 42/4/1
f 47/4/1 45/4/1 46/4/1
f 50/4/1 49/4/1 48/4/1
f 51/4/1 50/4/1 48/4/1
f 52/4/1 51/4/1 48/4/1
f 53/4/1 51/4/1 52/4/1
f 56/4/1 55/4/1 54/4/1
f 57/4/1 55/4/1 56/4/1
f 60/4/1 59/4/1 58/4/1
f 61/4/1 59/4/1 60/4/1
f 65/3/1 64/3/1 63/3/1
f 66/3/1 65/3/1 63/3/1
f 68/5/1 63/5/1 62/5/1
f 69/3/1 66/3/1 63/3/1
f 70/5/1 68/5/1 67/5/1
f 71/5/1 63/5/1 68/5/1
f 71/5/1 68/5/1 70/5/1
f 71/3/1 69/3/1 63/3/1
f 72/3/1 69/3/1 71/3/1
f 77/5/1 74/5/1 73/5/1
f 77/3/1 76/3/1 75/3/1
f 77/3/1 75/3/1 74/3/1
f 78/3/1 76/3/1 77/3/1
f 79/3/1 76/3/1 78/3/1
f 80/5/1 77/5/1 73/5/1
f 80/4/1 78/4/1 77/4/1
f 81/3/1 79/3/1 78/3/1
f 81/4/1 78/4/1 80/4/1
f 82/5/1 80/5/1 73/5/1
f 82/3/1 81/3/1 80/3/1
f 83/3/1 79/3/1 81/3/1
f 83/3/1 81/3/1 82/3/1
f 84/5/1 82/5/1 73/5/1
f 84/4/1 83/4/1 82/4/1
f 85/3/1 79/3/1 83/3/1
f 85/4/1 83/4/1 84/4/1
f 86/5/1 84/5/1 73/5/1
f 86/3/1 85/3/1 84/3/1
f 87/3/1 79/3/1 85/3/1
f 87/3/1 85/3/1 86/3/1
f 88/5/1 86/5/1 73/5/1
f 88/4/1 87/4/1 86/4/1
f 89/3/1 79/3/1 87/3/1
f 89/4/1 87/4/1 88/4/1
f 90/3/1 89/3/1 88/3/1
f 90/3/1 79/3/1 89/3/1
f 93/5/1 88/5/1 73/5/1
f 94/3/1 90/3/1 88/3/1
f 94/5/1 88/5/1 93/5/1
f 94/3/1 92/3/1 91/3/1
f 94/3/1 91/3/1 90/3/1
f 95/3/1 92/3/1 94/3/1
f 98/5/1 97/5/1 96/5/1
f 99/5/1 97/5/1 98/5/1
f 100/5/1 97/5/1 99/5/1
f 101/5/2 102/5/2 103/5/2
f 103/5/2 102/5/2 104/5/2
f 104/5/2 102/5/2 105/5/2
f 106/5/2 107/5/2 110/5/2
f 108/3/2 109/3/2 110/3/2
f 107/3/2 108/3/2 110/3/2
f 110/3/2 109/3/2 111/3/2
f 111/3/2 109/3/2 112/3/2
f 106/5/2 110/5/2 113/5/2
f 110/4/2 111/4/2 113/4/2
f 111/3/2 112/3/2 114/3/2
f 113/4/2 111/4/2 114/4/2
f 106/5/2 113/5/2 115/5/2
f 113/3/2 114/3/2 115/3/2
f 114/3/2 112/3/2 116/3/2
f 115/3/2 114/3/2 116/3/2
f 106/5/2 115/5/2 117/5/2
f 115/4/2 116/4/2 117/4/2
f 116/3/2 112/3/2 118/3/2
f 117/4/2 116/4/2 118/4/2
f 106/5/2 117/5/2 119/5/2
f 117/3/2 118/3/2 119/3/2
f 118/3/2 112/3/2 120/3/2
f 119/3/2 118/3/2 120/3/2
f 106/5/2 119/5/2 121/5/2
f 119/4/2 120/4/2 121/4/2
f 120/3/2 112/3/2 122/3/2
f 121/4/2 120/4/2 122/4/2
f 121/3/2 122/3/2 123/3/2
f 122/3/2 112/3/2 123/3/2
f 106/5/2 121/5/2 126/5/2
f 121/3/2 123/3/2 127/3/2
f 126/5/2 121/5/2 127/5/2
f 124/3/2 125/3/2 127/3/2
f 123/3/2 124/3/2 127/3/2
f 127/3/2 125/3/2 128/3/2
f 130/3/2 131/3/2 132/3/2
f 130/3/2 132/3/2 133/3/2
f 129/5/2 130/5/2 135/5/2
f 130/3/2 133/3/2 136/3/2
f 134/5/2 135/5/2 137/5/2
f 135/5/2 130/5/2 138/5/2
f 137/5/2 135/5/2 138/5/2
f 130/3/2 136/3/2 138/3/2
f 138/3/2 136/3/2 139/3/2
f 140/4/2 141/4/2 142/4/2
f 142/4/2 141/4/2 143/4/2
f 144/4/2 145/4/2 146/4/2
f 146/4/2 145/4/2 147/4/2
f 148/4/2 149/4/2 150/4/2
f 148/4/2 150/4/2 151/4/2
f 151/4/2 150/4/2 152/4/2
f 151/5/2 152/5/2 153/5/2
f 153/5/2 152/5/2 154/5/2
f 155/4/2 156/4/2 157/4/2
f 155/4/2 157/4/2 158/4/2
f 158/4/2 157/4/2 159/4/2
f 158/5/2 159/5/2 160/5/2
f 160/5/2 159/5/2 161/5/2
f 162/2/2 163/2/2 164/2/2
f 164/2/2 163/2/2 165/2/2
f 166/5/2 167/5/2 168/5/2
f 168/5/2 167/5/2 169/5/2
f 170/5/2 171/5/2 173/5/2
f 171/3/2 172/3/2 173/3/2
f 173/3/2 172/3/2 174/3/2
f 170/5/2 173/5/2 175/5/2
f 173/4/2 174/4/2 175/4/2
f 175/4/2 174/4/2 176/4/2
f 170/5/2 175/5/2 177/5/2
f 175/3/2 176/3/2 177/3/2
f 177/3/2 176/3/2 178/3/2
f 170/5/2 177/5/2 179/5/2
f 177/4/2 178/4/2 179/4/2
f 179/4/2 178/4/2 180/4/2
f 170/5/2 179/5/2 181/5/2
f 179/3/2 180/3/2 181/3/2
f 181/3/2 180/3/2 182/3/2
f 170/5/2 181/5/2 183/5/2
f 181/4/2 182/4/2 183/4/2
f 183/4/2 182/4/2 184/4/2
f 170/5/2 183/5/2 185/5/2
f 183/3/2 184/3/2 186/3/2
f 185/5/2 183/5/2 186/5/2
f 186/3/2 184/3/2 187/3/2
f 188/3/2 189/3/2 190/3/2
f 190/3/2 189/3/2 191/3/2
f 192/5/2 193/5/2 194/5/2
f 194/5/2 195/5/2 197/5/2
f 195/5/2 196/5/2 197/5/2
f 192/5/2 194/5/2 197/5/2
f 197/5/2 196/5/2 198/5/2
f 199/5/2 200/5/2 201/5/2
f 201/5/2 200/5/2 202/5/2
f 205/5/3 204/5/3 203/5/3
f 206/5/3 204/5/3 205/5/3
f 208/5/3 204/5/3 206/5/3
f 209/5/3 208/5/3 207/5/3
f 210/5/3 204/5/3 208/5/3
f 210/5/3 208/5/3 209/5/3
f 211/5/3 209/5/3 207/5/3
f 212/5/3 209/5/3 211/5/3
f 215/5/3 214/5/3 213/5/3
f 217/5/3 215/5/3 213/5/3
f 217/5/3 216/5/3 215/5/3
f 218/5/3 216/5/3 217/5/3
f 220/5/3 216/5/3 218/5/3
f 221/5/3 220/5/3 219/5/3
f 222/5/3 216/5/3 220/5/3
f 222/5/3 220/5/3 221/5/3
f 225/5/3 224/5/3 223/5/3
f 226/5/3 224/5/3 225/5/3
f 229/5/3 228/5/3 227/5/3
f 230/5/3 228/5/3 229/5/3
f 233/5/3 232/5/3 231/5/3
f 234/5/3 232/5/3 233/5/3
f 236/3/3 234/3/3 233/3/3
f 237/3/3 234/3/3 236/3/3
f 238/3/3 234/3/3 237/3/3
f 239/3/3 236/3/3 235/3/3
f 239/3/3 237/3/3 236/3/3
f 240/3/3 237/3/3 239/3/3
f 241/3/3 237/3/3 240/3/3
f 242/3/3 237/3/3 241/3/3
f 243/3/3 237/3/3 242/3/3
f 244/3/3 237/3/3 243/3/3
f 245/3/3 237/3/3 244/3/3
f 247/3/3 243/3/3 242/3/3
f 247/2/3 244/2/3 243/2/3
f 248/3/3 246/3/3 245/3/3
f 248/2/3 244/2/3 247/2/3
f 248/3/3 245/3/3 244/3/3
f 249/3/3 239/3/3 235/3/3
f 249/2/3 240/2/3 239/2/3
f 250/3/3 241/3/3 240/3/3
f 250/2/3 240/2/3 249/2/3
f 251/2/3 242/2/3 241/2/3
f 251/3/3 241/3/3 250/3/3
f 252/3/3 248/3/3 247/3/3
f 252/2/3 242/2/3 251/2/3
f 252/3/3 247/3/3 242/3/3
f 253/3/3 248/3/3 252/3/3
f 254/3/3 246/3/3 248/3/3
f 254/3/3 248/3/3 253/3/3
f 255/3/3 246/3/3 254/3/3
f 256/3/3 246/3/3 255/3/3
f 257/3/3 246/3/3 256/3/3
f 258/3/3 246/3/3 257/3/3
f 259/3/3 246/3/3 258/3/3
f 260/3/3 246/3/3 259/3/3
f 261/3/3 253/3/3 252/3/3
f 261/3/3 251/3/3 250/3/3
f 261/3/3 252/3/3 251/3/3
f 261/3/3 250/3/3 249/3/3
f 261/3/3 249/3/3 235/3/3
f 262/3/3 253/3/3 261/3/3
f 267/4/3 264/4/3 263/4/3
f 268/4/3 264/4/3 267/4/3
f 269/4/3 266/4/3 265/4/3
f 270/4/3 266/4/3 269/4/3
f 271/4/3 264/4/3 268/4/3
f 272/4/3 264/4/3 271/4/3
f 273/4/3 266/4/3 270/4/3
f 274/4/3 266/4/3 273/4/3
f 275/4/3 267/4/3 263/4/3
f 276/5/3 272/5/3 271/5/3
f 277/4/3 269/4/3 265/4/3
f 278/5/3 274/5/3 273/5/3
f 279/4/3 275/4/3 263/4/3
f 279/4/3 276/4/3 275/4/3
f 280/5/3 272/5/3 276/5/3
f 280/4/3 276/4/3 279/4/3
f 281/5/3 272/5/3 280/5/3
f 282/4/3 278/4/3 277/4/3
f 282/4/3 277/4/3 265/4/3
f 283/5/3 274/5/3 278/5/3
f 283/4/3 278/4/3 282/4/3
f 284/5/3 274/5/3 283/5/3
f 287/3/3 286/3/3 285/3/3
f 288/3/3 286/3/3 287/3/3
f 289/3/3 286/3/3 288/3/3
f 290/3/3 286/3/3 289/3/3
f 291/3/3 286/3/3 290/3/3
f 299/3/3 293/3/3 292/3/3
f 299/3/3 298/3/3 297/3/3
f 299/3/3 297/3/3 296/3/3
f 299/3/3 296/3/3 295/3/3
f 299/3/3 295/3/3 294/3/3
f 299/3/3 294/3/3 293/3/3
f 299/3/3 291/3/3 290/3/3
f 299/3/3 292/3/3 291/3/3
f 300/3/3 298/3/3 299/3/3
f 301/3/3 287/3/3 285/3/3
f 301/2/3 288/2/3 287/2/3
f 302/3/3 289/3/3 288/3/3
f 302/2/3 288/2/3 301/2/3
f 303/2/3 290/2/3 289/2/3
f 303/3/3 289/3/3 302/3/3
f 304/3/3 299/3/3 290/3/3
f 304/2/3 290/2/3 303/2/3
f 305/2/3 300/2/3 299/2/3
f 305/3/3 299/3/3 304/3/3
f 306/3/3 298/3/3 300/3/3
f 306/2/3 300/2/3 305/2/3
f 307/3/3 298/3/3 306/3/3
f 308/3/3 298/3/3 307/3/3
f 309/3/3 302/3/3 301/3/3
f 309/3/3 301/3/3 285/3/3
f 309/3/3 307/3/3 306/3/3
f 309/3/3 306/3/3 305/3/3
f 309/3/3 303/3/3 302/3/3
f 309/3/3 304/3/3 303/3/3
f 309/3/3 305/3/3 304/3/3
f 310/3/3 307/3/3 309/3/3
f 311/3/3 307/3/3 310/3/3
f 313/3/3 312/3/3 311/3/3
f 313/3/3 311/3/3 310/3/3
f 314/3/3 312/3/3 313/3/3
f 315/5/3 314/5/3 313/5/3
f 316/5/3 314/5/3 315/5/3
f 324/1/3 318/1/3 317/1/3
f 325/2/3 319/2/3 318/2/3
f 327/2/3 321/2/3 320/2/3
f 328/1/3 322/1/3 321/1/3
f 328/2/3 321/2/3 327/2/3
f 329/2/3 323/2/3 322/2/3
f 329/1/3 322/1/3 328/1/3
f 330/2/3 323/2/3 329/2/3
f 331/2/3 323/2/3 330/2/3
f 332/1/3 324/1/3 323/1/3
f 332/2/3 323/2/3 331/2/3
f 333/2/3 326/2/3 325/2/3
f 333/1/3 324/1/3 332/1/3
f 333/1/3 318/1/3 324/1/3
f 333/2/3 325/2/3 318/2/3
f 334/2/3 326/2/3 333/2/3
f 339/1/3 336/1/3 335/1/3
f 340/2/3 331/2/3 330/2/3
f 341/1/3 338/1/3 337/1/3
f 342/2/3 326/2/3 334/2/3
f 343/1/3 339/1/3 335/1/3
f 344/1/3 339/1/3 343/1/3
f 345/1/3 341/1/3 337/1/3
f 346/1/3 341/1/3 345/1/3
f 350/2/3 331/2/3 340/2/3
f 351/2/3 331/2/3 350/2/3
f 354/2/3 326/2/3 342/2/3
f 355/2/3 348/2/3 347/2/3
f 356/1/3 349/1/3 348/1/3
f 356/2/3 348/2/3 355/2/3
f 357/2/3 352/2/3 351/2/3
f 357/1/3 349/1/3 356/1/3
f 357/2/3 350/2/3 349/2/3
f 357/2/3 351/2/3 350/2/3
f 358/1/3 353/1/3 352/1/3
f 358/2/3 352/2/3 357/2/3
f 359/1/3 353/1/3 358/1/3
f 360/2/3 354/2/3 353/2/3
f 360/2/3 326/2/3 354/2/3
f 361/2/3 326/2/3 360/2/3
f 362/1/3 353/1/3 359/1/3
f 363/2/3 360/2/3 353/2/3
f 363/1/3 353/1/3 362/1/3
f 364/2/3 360/2/3 363/2/3
f 367/3/3 366/3/3 365/3/3
f 368/3/3 366/3/3 367/3/3
f 369/2/4 370/2/4 371/2/4
f 371/2/4 370/2/4 372/2/4
f 373/5/4 374/5/4 375/5/4
f 375/5/4 374/5/4 376/5/4
f 375/3/4 376/3/4 378/3/4
f 378/3/4 376/3/4 379/3/4
f 377/3/4 378/3/4 380/3/4
f 378/3/4 379/3/4 380/3/4
f 377/3/4 380/3/4 381/3/4
f 377/3/4 381/3/4 382/3/4
f 382/3/4 381/3/4 383/3/4
f 383/3/4 381/3/4 384/3/4
f 383/3/4 384/3/4 385/3/4
f 385/3/4 384/3/4 386/3/4
f 385/5/4 386/5/4 387/5/4
f 387/5/4 386/5/4 388/5/4
f 389/5/4 390/5/4 391/5/4
f 391/5/4 390/5/4 392/5/4
f 398/5/5 394/5/5 393/5/5
f 399/5/5 394/5/5 398/5/5
f 402/5/5 396/5/5 395/5/5
f 403/5/5 396/5/5 402/5/5
f 405/3/5 398/3/5 397/3/5
f 405/3/5 399/3/5 398/3/5
f 406/4/5 401/4/5 400/4/5
f 407/4/5 401/4/5 406/4/5
f 408/3/5 404/3/5 403/3/5
f 408/3/5 403/3/5 402/3/5
f 409/3/5 405/3/5 397/3/5
f 409/2/5 408/2/5 407/2/5
f 409/2/5 407/2/5 406/2/5
f 409/2/5 406/2/5 405/2/5
f 410/3/5 404/3/5 408/3/5
f 410/2/5 408/2/5 409/2/5
f 411/3/5 409/3/5 397/3/5
f 411/3/5 410/3/5 409/3/5
f 412/3/5 404/3/5 410/3/5
f 412/3/5 410/3/5 411/3/5
f 416/4/5 414/4/5 413/4/5
f 417/5/5 415/5/5 414/5/5
f 417/4/5 414/4/5 416/4/5
f 418/5/5 415/5/5 417/5/5
f 421/4/5 420/4/5 419/4/5
f 422/4/5 420/4/5 421/4/5
f 427/5/5 424/5/5 423/5/5
f 428/5/5 424/5/5 427/5/5
f 429/5/5 426/5/5 425/5/5
f 430/5/5 426/5/5 429/5/5
f 431/5/5 424/5/5 428/5/5
f 431/3/5 428/3/5 427/3/5
f 432/5/5 424/5/5 431/5/5
f 433/5/5 429/5/5 425/5/5
f 434/3/5 430/3/5 429/3/5
f 434/5/5 429/5/5 433/5/5
f 435/3/5 431/3/5 427/3/5
f 436/3/5 431/3/5 435/3/5
f 437/3/5 430/3/5 434/3/5
f 438/3/5 430/3/5 437/3/5
f 442/4/5 440/4/5 439/4/5
f 443/5/5 441/5/5 440/5/5
f 443/4/5 440/4/5 442/4/5
f 444/5/5 441/5/5 443/5/5
f 451/5/5 446/5/5 445/5/5
f 452/3/5 447/3/5 446/3/5
f 452/5/5 446/5/5 451/5/5
f 453/3/5 447/3/5 452/3/5
f 454/3/5 449/3/5 448/3/5
f 455/5/5 450/5/5 449/5/5
f 455/3/5 449/3/5 454/3/5
f 456/5/5 450/5/5 455/5/5
f 461/5/5 458/5/5 457/5/5
f 462/5/5 458/5/5 461/5/5
f 463/5/5 460/5/5 459/5/5
f 464/5/5 460/5/5 463/5/5
f 469/5/5 466/5/5 465/5/5
f 470/5/5 466/5/5 469/5/5
f 471/5/5 468/5/5 467/5/5
f 472/5/5 468/5/5 471/5/5
f 473/3/5 470/3/5 469/3/5
f 474/3/5 470/3/5 473/3/5
f 475/3/5 472/3/5 471/3/5
f 476/3/5 472/3/5 475/3/5
f 481/3/5 479/3/5 478/3/5
f 481/5/5 478/5/5 477/5/5
f 482/5/5 480/5/5 479/5/5
f 482/3/5 479/3/5 481/3/5
f 483/5/5 481/5/5 477/5/5
f 483/5/5 482/5/5 481/5/5
f 484/5/5 480/5/5 482/5/5
f 484/5/5 482/5/5 483/5/5
f 485/4/6 486/4/6 487/4/6
f 487/4/6 486/4/6 488/4/6
f 489/4/6 490/4/6 492/4/6
f 490/5/6 491/5/6 493/5/6
f 492/4/6 490/4/6 493/4/6
f 493/5/6 491/5/6 494/5/6
f 495/4/6 496/4/6 497/4/6
f 497/4/6 496/4/6 498/4/6
f 499/5/6 500/5/6 503/5/6
f 501/5/6 502/5/6 504/5/6
f 503/5/6 500/5/6 505/5/6
f 505/5/6 500/5/6 506/5/6
f 501/5/6 504/5/6 507/5/6
f 507/5/6 504/5/6 508/5/6
f 505/3/6 506/3/6 509/3/6
f 509/3/6 506/3/6 510/3/6
f 507/3/6 508/3/6 511/3/6
f 511/3/6 508/3/6 512/3/6
f 513/4/6 514/4/6 516/4/6
f 514/5/6 515/5/6 517/5/6
f 516/4/6 514/4/6 517/4/6
f 517/5/6 515/5/6 518/5/6
f 525/2/6 526/2/6 529/2/6
f 529/2/6 526/2/6 530/2/6
f 527/2/6 528/2/6 531/2/6
f 531/2/6 528/2/6 532/2/6
f 519/5/6 520/5/6 533/5/6
f 520/3/6 521/3/6 534/3/6
f 533/5/6 520/5/6 534/5/6
f 534/3/6 521/3/6 535/3/6
f 529/3/6 530/3/6 536/3/6
f 530/3/6 531/3/6 536/3/6
f 531/3/6 532/3/6 536/3/6
f 536/3/6 532/3/6 537/3/6
f 522/3/6 523/3/6 538/3/6
f 523/5/6 524/5/6 539/5/6
f 538/3/6 523/3/6 539/3/6
f 539/5/6 524/5/6 540/5/6
f 541/5/6 542/5/6 545/5/6
f 545/5/6 542/5/6 546/5/6
f 543/5/6 544/5/6 547/5/6
f 547/5/6 544/5/6 548/5/6
f 549/2/6 550/2/6 551/2/6
f 551/2/6 550/2/6 552/2/6
f 545/3/6 546/3/6 553/3/6
f 547/3/6 548/3/6 554/3/6
f 545/3/6 553/3/6 555/3/6
f 553/3/6 554/3/6 555/3/6
f 541/5/6 545/5/6 555/5/6
f 554/3/6 548/3/6 556/3/6
f 555/3/6 554/3/6 556/3/6
f 548/5/6 544/5/6 556/5/6
f 541/5/6 555/5/6 557/5/6
f 555/5/6 556/5/6 557/5/6
f 556/5/6 544/5/6 558/5/6
f 557/5/6 556/5/6 558/5/6
