# MagicaVoxel @ Ephtracy

# group
o 

# material
mtllib model-0.mtl
usemtl palette

# normals
vn 0 0 1
vn 0 0 -1
vn 1 0 0
vn -1 0 0
vn 0 -1 0
vn 0 1 0

# texcoords
vt 0.263672 0.5
vt 0.267578 0.5
vt 0.271484 0.5
vt 0.275391 0.5
vt 0.279297 0.5

# verts
v 0.5 0 1
v -0.5 0 1
v 0.5 0.1 1
v -0.5 0.1 1
v 0.5 0.7 1
v -0.5 0.7 1
v 0.6 0 0.5
v 0.5 0 0.5
v 0.5 0.1 0.5
v 0.6 0.7 0.5
v 0.5 0.7 0.5
v 0.5 0 0.2
v 0.4 0 0.2
v 0.4 0.1 0.2
v 0.4 0.3 0.2
v 0.5 0.4 0.2
v 0.4 0.4 0.2
v 0.5 0.1 -0.1
v 0.4 0.1 -0.1
v 0.5 0.3 -0.1
v 0.4 0.3 -0.1
v 0.6 0 -0.4
v 0.4 0 -0.4
v 0.5 0.1 -0.4
v 0.4 0.1 -0.4
v 0.4 0.3 -0.4
v 0.6 0.7 -0.4
v 0.5 0.7 -0.4
v 0.4 0.7 -0.4
v 0.4 0 -0.9
v -0.4 0 -0.9
v 0.4 0.1 -0.9
v -0.4 0.1 -0.9
v 0.4 0 0.9
v -0.4 0 0.9
v 0.4 0.1 0.9
v -0.4 0.1 0.9
v 0.6 0 0.4
v 0.4 0 0.4
v 0.5 0.1 0.4
v 0.4 0.1 0.4
v 0.4 0.3 0.4
v 0.6 0.7 0.4
v 0.5 0.7 0.4
v 0.4 0.7 0.4
v 0.5 0.1 0.1
v 0.4 0.1 0.1
v 0.5 0.3 0.1
v 0.4 0.3 0.1
v 0.5 0 -0.2
v 0.4 0 -0.2
v 0.4 0.1 -0.2
v 0.5 0.3 -0.2
v 0.4 0.3 -0.2
v 0.5 0.4 -0.2
v 0.4 0.4 -0.2
v 0.6 0 -0.5
v 0.5 0 -0.5
v 0.5 0.1 -0.5
v 0.6 0.7 -0.5
v 0.5 0.7 -0.5
v 0.5 0 -1
v -0.5 0 -1
v 0.5 0.1 -1
v -0.5 0.1 -1
v 0.5 0.7 -1
v -0.5 0.7 -1
v 0.6 0 0.5
v 0.6 0.7 0.5
v 0.6 0 0.4
v 0.6 0.7 0.4
v 0.6 0 -0.4
v 0.6 0.7 -0.4
v 0.6 0 -0.5
v 0.6 0.7 -0.5
v 0.5 0 1
v 0.5 0.1 1
v 0.5 0.7 1
v 0.5 0.4 0.9
v 0.5 0.5 0.9
v 0.5 0.4 0.6
v 0.5 0.5 0.6
v 0.5 0 0.5
v 0.5 0.1 0.5
v 0.5 0.7 0.5
v 0.5 0 0.2
v 0.5 0.4 0.2
v 0.5 0.1 0.1
v 0.5 0.3 0.1
v 0.5 0.3 0
v 0.5 0.4 0
v 0.5 0.1 -0.1
v 0.5 0.3 -0.1
v 0.5 0 -0.2
v 0.5 0.3 -0.2
v 0.5 0.4 -0.2
v 0.5 0 -0.5
v 0.5 0.1 -0.5
v 0.5 0.7 -0.5
v 0.5 0.4 -0.6
v 0.5 0.5 -0.6
v 0.5 0.4 -0.9
v 0.5 0.5 -0.9
v 0.5 0 -1
v 0.5 0.1 -1
v 0.5 0.7 -1
v 0.4 0.1 0.4
v 0.4 0.3 0.4
v 0.4 0.7 0.4
v 0.4 0.1 0.2
v 0.4 0.3 0.2
v 0.4 0.4 0.2
v 0.4 0.1 0.1
v 0.4 0.3 0.1
v 0.4 0.3 0
v 0.4 0.4 0
v 0.4 0.1 -0.1
v 0.4 0.3 -0.1
v 0.4 0.1 -0.2
v 0.4 0.3 -0.2
v 0.4 0.4 -0.2
v 0.4 0.1 -0.4
v 0.4 0.3 -0.4
v 0.4 0.7 -0.4
v -0.4 0 0.9
v -0.4 0.1 0.9
v -0.4 0 -0.9
v -0.4 0.1 -0.9
v 0.4 0 0.9
v 0.4 0.1 0.9
v 0.4 0 0.4
v 0.4 0.1 0.4
v 0.4 0 0.2
v 0.4 0.1 0.2
v 0.4 0 -0.2
v 0.4 0.1 -0.2
v 0.4 0 -0.4
v 0.4 0.1 -0.4
v 0.4 0 -0.9
v 0.4 0.1 -0.9
v -0.5 0 1
v -0.5 0.1 1
v -0.5 0.7 1
v -0.5 0 -1
v -0.5 0.1 -1
v -0.5 0.7 -1
v 0.6 0 0.5
v 0.6 0 0.4
v 0.6 0 -0.4
v 0.6 0 -0.5
v 0.5 0 1
v 0.5 0 0.5
v 0.5 0 0.2
v 0.5 0 -0.2
v 0.5 0 -0.5
v 0.5 0 -1
v 0.4 0 0.9
v 0.4 0 0.4
v 0.4 0 0.2
v 0.4 0 -0.2
v 0.4 0 -0.4
v 0.4 0 -0.9
v -0.4 0 0.9
v -0.4 0 -0.9
v -0.5 0 1
v -0.5 0 -1
v 0.4 0.1 0.9
v 0.4 0.1 0.4
v 0.4 0.1 0.2
v 0.4 0.1 -0.2
v 0.4 0.1 -0.4
v 0.4 0.1 -0.9
v -0.4 0.1 0.9
v -0.4 0.1 -0.9
v 0.5 0.3 0.1
v 0.5 0.3 0
v 0.5 0.3 -0.1
v 0.4 0.3 0.1
v 0.4 0.3 0
v 0.4 0.3 -0.1
v 0.5 0.1 0.1
v 0.5 0.1 -0.1
v 0.4 0.1 0.1
v 0.4 0.1 -0.1
v 0.5 0.4 0.2
v 0.5 0.4 0
v 0.5 0.4 -0.2
v 0.4 0.4 0.2
v 0.4 0.4 0
v 0.4 0.4 -0.2
v 0.6 0.7 0.5
v 0.6 0.7 0.4
v 0.6 0.7 -0.4
v 0.6 0.7 -0.5
v 0.5 0.7 1
v 0.5 0.7 0.5
v 0.5 0.7 0.4
v 0.5 0.7 -0.4
v 0.5 0.7 -0.5
v 0.5 0.7 -1
v 0.4 0.7 0.4
v 0.4 0.7 -0.4
v 0.3 0.7 0.4
v 0.3 0.7 -0.4
v -0.5 0.7 1
v -0.5 0.7 -1

# faces
f 3/5/1 2/5/1 1/5/1
f 4/5/1 2/5/1 3/5/1
f 5/3/1 4/3/1 3/3/1
f 6/3/1 4/3/1 5/3/1
f 9/5/1 8/5/1 7/5/1
f 10/5/1 9/5/1 7/5/1
f 11/5/1 9/5/1 10/5/1
f 14/4/1 13/4/1 12/4/1
f 15/4/1 14/4/1 12/4/1
f 16/4/1 15/4/1 12/4/1
f 17/4/1 15/4/1 16/4/1
f 20/4/1 19/4/1 18/4/1
f 21/4/1 19/4/1 20/4/1
f 24/5/1 23/5/1 22/5/1
f 25/5/1 23/5/1 24/5/1
f 26/3/1 25/3/1 24/3/1
f 27/5/1 24/5/1 22/5/1
f 28/3/1 26/3/1 24/3/1
f 28/5/1 24/5/1 27/5/1
f 29/3/1 26/3/1 28/3/1
f 32/5/1 31/5/1 30/5/1
f 33/5/1 31/5/1 32/5/1
f 34/5/2 35/5/2 36/5/2
f 36/5/2 35/5/2 37/5/2
f 38/5/2 39/5/2 40/5/2
f 40/5/2 39/5/2 41/5/2
f 40/3/2 41/3/2 42/3/2
f 38/5/2 40/5/2 43/5/2
f 40/3/2 42/3/2 44/3/2
f 43/5/2 40/5/2 44/5/2
f 44/3/2 42/3/2 45/3/2
f 46/4/2 47/4/2 48/4/2
f 48/4/2 47/4/2 49/4/2
f 50/4/2 51/4/2 52/4/2
f 50/4/2 52/4/2 53/4/2
f 53/4/2 52/4/2 54/4/2
f 53/5/2 54/5/2 55/5/2
f 55/5/2 54/5/2 56/5/2
f 57/5/2 58/5/2 59/5/2
f 57/5/2 59/5/2 60/5/2
f 60/5/2 59/5/2 61/5/2
f 62/5/2 63/5/2 64/5/2
f 64/5/2 63/5/2 65/5/2
f 64/3/2 65/3/2 66/3/2
f 66/3/2 65/3/2 67/3/2
f 70/5/3 69/5/3 68/5/3
f 71/5/3 69/5/3 70/5/3
f 74/5/3 73/5/3 72/5/3
f 75/5/3 73/5/3 74/5/3
f 79/3/3 78/3/3 77/3/3
f 80/3/3 78/3/3 79/3/3
f 81/3/3 79/3/3 77/3/3
f 81/2/3 80/2/3 79/2/3
f 82/3/3 78/3/3 80/3/3
f 82/2/3 80/2/3 81/2/3
f 83/5/3 77/5/3 76/5/3
f 84/3/3 81/3/3 77/3/3
f 84/5/3 77/5/3 83/5/3
f 84/3/3 82/3/3 81/3/3
f 85/3/3 78/3/3 82/3/3
f 85/3/3 82/3/3 84/3/3
f 88/4/3 87/4/3 86/4/3
f 89/4/3 87/4/3 88/4/3
f 90/4/3 87/4/3 89/4/3
f 91/4/3 87/4/3 90/4/3
f 92/4/3 88/4/3 86/4/3
f 93/5/3 91/5/3 90/5/3
f 94/4/3 92/4/3 86/4/3
f 94/4/3 93/4/3 92/4/3
f 95/5/3 91/5/3 93/5/3
f 95/4/3 93/4/3 94/4/3
f 96/5/3 91/5/3 95/5/3
f 100/3/3 99/3/3 98/3/3
f 101/3/3 99/3/3 100/3/3
f 102/3/3 100/3/3 98/3/3
f 102/2/3 101/2/3 100/2/3
f 103/3/3 99/3/3 101/3/3
f 103/2/3 101/2/3 102/2/3
f 104/5/3 98/5/3 97/5/3
f 105/3/3 102/3/3 98/3/3
f 105/5/3 98/5/3 104/5/3
f 105/3/3 103/3/3 102/3/3
f 106/3/3 99/3/3 103/3/3
f 106/3/3 103/3/3 105/3/3
f 110/1/3 108/1/3 107/1/3
f 111/2/3 109/2/3 108/2/3
f 111/1/3 108/1/3 110/1/3
f 112/2/3 109/2/3 111/2/3
f 115/1/3 114/1/3 113/1/3
f 116/2/3 109/2/3 112/2/3
f 117/1/3 115/1/3 113/1/3
f 118/1/3 115/1/3 117/1/3
f 121/2/3 109/2/3 116/2/3
f 122/1/3 120/1/3 119/1/3
f 123/2/3 121/2/3 120/2/3
f 123/1/3 120/1/3 122/1/3
f 124/2/3 109/2/3 121/2/3
f 124/2/3 121/2/3 123/2/3
f 127/5/3 126/5/3 125/5/3
f 128/5/3 126/5/3 127/5/3
f 129/5/4 130/5/4 131/5/4
f 131/5/4 130/5/4 132/5/4
f 133/4/4 134/4/4 135/4/4
f 135/4/4 134/4/4 136/4/4
f 137/5/4 138/5/4 139/5/4
f 139/5/4 138/5/4 140/5/4
f 141/5/4 142/5/4 144/5/4
f 142/3/4 143/3/4 145/3/4
f 144/5/4 142/5/4 145/5/4
f 145/3/4 143/3/4 146/3/4
f 152/5/5 148/5/5 147/5/5
f 155/5/5 150/5/5 149/5/5
f 157/5/5 152/5/5 151/5/5
f 158/5/5 148/5/5 152/5/5
f 158/5/5 152/5/5 157/5/5
f 159/4/5 154/4/5 153/4/5
f 160/4/5 154/4/5 159/4/5
f 161/5/5 156/5/5 155/5/5
f 161/5/5 155/5/5 149/5/5
f 162/5/5 156/5/5 161/5/5
f 163/5/5 157/5/5 151/5/5
f 164/5/5 156/5/5 162/5/5
f 165/5/5 163/5/5 151/5/5
f 165/5/5 164/5/5 163/5/5
f 166/5/5 156/5/5 164/5/5
f 166/5/5 164/5/5 165/5/5
f 173/1/5 168/1/5 167/1/5
f 173/1/5 172/1/5 171/1/5
f 173/1/5 171/1/5 170/1/5
f 173/1/5 170/1/5 169/1/5
f 173/1/5 169/1/5 168/1/5
f 174/1/5 172/1/5 173/1/5
f 178/4/5 176/4/5 175/4/5
f 179/5/5 177/5/5 176/5/5
f 179/4/5 176/4/5 178/4/5
f 180/5/5 177/5/5 179/5/5
f 181/4/6 182/4/6 183/4/6
f 183/4/6 182/4/6 184/4/6
f 185/4/6 186/4/6 188/4/6
f 186/5/6 187/5/6 189/5/6
f 188/4/6 186/4/6 189/4/6
f 189/5/6 187/5/6 190/5/6
f 191/5/6 192/5/6 196/5/6
f 196/5/6 192/5/6 197/5/6
f 193/5/6 194/5/6 198/5/6
f 198/5/6 194/5/6 199/5/6
f 196/3/6 197/3/6 201/3/6
f 195/3/6 196/3/6 201/3/6
f 199/3/6 200/3/6 202/3/6
f 198/3/6 199/3/6 202/3/6
f 195/3/6 201/3/6 203/3/6
f 201/2/6 202/2/6 203/2/6
f 202/3/6 200/3/6 204/3/6
f 203/2/6 202/2/6 204/2/6
f 195/3/6 203/3/6 205/3/6
f 203/3/6 204/3/6 205/3/6
f 204/3/6 200/3/6 206/3/6
f 205/3/6 204/3/6 206/3/6
