# MagicaVoxel @ Ephtracy

# group
o 

# material
mtllib model.mtl
usemtl palette

# normals
vn -1 0 0
vn 1 0 0
vn 0 0 1
vn 0 0 -1
vn 0 -1 0
vn 0 1 0

# texcoords
vt 0.544922 0.5
vt 0.548828 0.5

# verts
v -1.1 2.9 1.2
v -1.1 2.9 1.1
v -1.1 2.9 1
v -1.1 2.9 0.7
v -1.1 2.9 0.5
v -1.1 2.9 0.2
v -1.1 2.9 0.1
v -1.1 2.9 -0.1
v -1.1 2.9 -0.2
v -1.1 2.9 -0.5
v -1.1 2.9 -0.7
v -1.1 2.9 -1
v -1.1 2.9 -1.1
v -1.1 2.9 -1.2
v -1.1 3.3 0.7
v -1.1 3.3 0.5
v -1.1 3.3 -0.5
v -1.1 3.3 -0.7
v -1.1 3.4 1.1
v -1.1 3.4 1
v -1.1 3.4 -1
v -1.1 3.4 -1.1
v -1.1 3.6 1.2
v -1.1 3.6 0.2
v -1.1 3.6 0.1
v -1.1 3.6 -0.1
v -1.1 3.6 -0.2
v -1.1 3.6 -1.2
v -1.1 4.1 1.2
v -1.1 4.1 0.7
v -1.1 4.1 0.6
v -1.1 4.1 0.1
v -1.1 4.1 -0.1
v -1.1 4.1 -0.6
v -1.1 4.1 -0.7
v -1.1 4.1 -1.2
v -1.1 4.9 1.2
v -1.1 4.9 0.7
v -1.1 4.9 0.6
v -1.1 4.9 0.1
v -1.1 4.9 -0.1
v -1.1 4.9 -0.6
v -1.1 4.9 -0.7
v -1.1 4.9 -1.2
v -1 3.6 1.1
v -1 3.6 0.9
v -1 3.6 0.7
v -1 3.6 0.5
v -1 3.6 0.3
v -1 3.6 0.2
v -1 3.6 0.1
v -1 3.6 -0.1
v -1 3.6 -0.2
v -1 3.6 -0.3
v -1 3.6 -0.5
v -1 3.6 -0.7
v -1 3.6 -0.9
v -1 3.6 -1.1
v -1 4.1 1.1
v -1 4.1 0.9
v -1 4.1 0.7
v -1 4.1 0.6
v -1 4.1 0.5
v -1 4.1 0.3
v -1 4.1 0.1
v -1 4.1 -0.1
v -1 4.1 -0.3
v -1 4.1 -0.5
v -1 4.1 -0.6
v -1 4.1 -0.7
v -1 4.1 -0.9
v -1 4.1 -1.1
v -1 4.9 1.1
v -1 4.9 0.9
v -1 4.9 0.8
v -1 4.9 0.7
v -1 4.9 0.6
v -1 4.9 0.4
v -1 4.9 0.2
v -1 4.9 0.1
v -1 4.9 -0.1
v -1 4.9 -0.2
v -1 4.9 -0.4
v -1 4.9 -0.6
v -1 4.9 -0.7
v -1 4.9 -0.8
v -1 4.9 -0.9
v -1 4.9 -1.1
v -1 5.6 0.8
v -1 5.6 0.7
v -1 5.6 -0.7
v -1 5.6 -0.8
v -1 5.7 0.3
v -1 5.7 0.2
v -1 5.7 0.1
v -1 5.7 -0.1
v -1 5.7 -0.2
v -1 5.7 -0.3
v -1 6.1 0.4
v -1 6.1 0.3
v -1 6.1 -0.3
v -1 6.1 -0.4
v -1 6.2 1.1
v -1 6.2 0.9
v -1 6.2 -0.9
v -1 6.2 -1.1
v -1 6.3 0.1
v -1 6.3 -0.1
v -1 6.4 0.9
v -1 6.4 0.7
v -1 6.4 0.1
v -1 6.4 -0.1
v -1 6.4 -0.7
v -1 6.4 -0.9
v -0.9 2.9 1.4
v -0.9 2.9 1.2
v -0.9 2.9 -1.2
v -0.9 2.9 -1.4
v -0.9 3.6 1.4
v -0.9 3.6 1.2
v -0.9 3.6 -1.2
v -0.9 3.6 -1.4
v -0.8 3.6 1.3
v -0.8 3.6 1.1
v -0.8 3.6 -1.1
v -0.8 3.6 -1.3
v -0.8 4.1 1.4
v -0.8 4.1 1.3
v -0.8 4.1 1.2
v -0.8 4.1 1.1
v -0.8 4.1 -1.1
v -0.8 4.1 -1.2
v -0.8 4.1 -1.3
v -0.8 4.1 -1.4
v -0.8 4.9 1.4
v -0.8 4.9 1.3
v -0.8 4.9 1.2
v -0.8 4.9 1.1
v -0.8 4.9 -1.1
v -0.8 4.9 -1.2
v -0.8 4.9 -1.3
v -0.8 4.9 -1.4
v -0.8 6.1 1.3
v -0.8 6.1 1.2
v -0.8 6.1 -1.2
v -0.8 6.1 -1.3
v -0.8 6.2 1.1
v -0.8 6.2 0.9
v -0.8 6.2 -0.9
v -0.8 6.2 -1.1
v -0.8 6.4 1.2
v -0.8 6.4 1
v -0.8 6.4 0.9
v -0.8 6.4 0.7
v -0.8 6.4 0.2
v -0.8 6.4 -0.2
v -0.8 6.4 -0.7
v -0.8 6.4 -0.9
v -0.8 6.4 -1
v -0.8 6.4 -1.2
v -0.8 6.5 1
v -0.8 6.5 0.2
v -0.8 6.5 -0.2
v -0.8 6.5 -1
v 0.2 3.6 1.3
v 0.2 3.6 1.1
v 0.2 3.6 -1.1
v 0.2 3.6 -1.3
v 0.2 4.4 1.3
v 0.2 4.4 1.1
v 0.2 4.4 -1.1
v 0.2 4.4 -1.3
v 0.5 4.3 1.3
v 0.5 4.3 1.1
v 0.5 4.3 -1.1
v 0.5 4.3 -1.3
v 0.5 4.8 1.3
v 0.5 4.8 1.2
v 0.5 4.8 1.1
v 0.5 4.8 -1.1
v 0.5 4.8 -1.2
v 0.5 4.8 -1.3
v 0.6 3.9 1.3
v 0.6 3.9 1.1
v 0.6 3.9 -1.1
v 0.6 3.9 -1.3
v 0.6 4.3 1.3
v 0.6 4.3 1.1
v 0.6 4.3 -1.1
v 0.6 4.3 -1.3
v 0.9 5.6 0.1
v 0.9 5.6 -0.1
v 0.9 5.7 0.1
v 0.9 5.7 -0.1
v -0.5 2.9 1.4
v -0.5 2.9 -1.4
v -0.5 3.6 1.4
v -0.5 3.6 1.3
v -0.5 3.6 1.2
v -0.5 3.6 -1.2
v -0.5 3.6 -1.3
v -0.5 3.6 -1.4
v -0.4 3.6 1.1
v -0.4 3.6 -1.1
v -0.4 5.5 1.1
v -0.4 5.5 -1.1
v 0 3.6 1.3
v 0 3.6 1.1
v 0 3.6 -1.1
v 0 3.6 -1.3
v 0 4.1 1.4
v 0 4.1 1.3
v 0 4.1 -1.3
v 0 4.1 -1.4
v 0 4.4 1.3
v 0 4.4 1.1
v 0 4.4 -1.1
v 0 4.4 -1.3
v 0 4.9 1.4
v 0 4.9 1.3
v 0 4.9 -1.3
v 0 4.9 -1.4
v 0.4 3.6 1.3
v 0.4 3.6 1.1
v 0.4 3.6 -1.1
v 0.4 3.6 -1.3
v 0.4 4.8 1.3
v 0.4 4.8 1.2
v 0.4 4.8 1.1
v 0.4 4.8 -1.1
v 0.4 4.8 -1.2
v 0.4 4.8 -1.3
v 0.6 5.7 1
v 0.6 5.7 0.3
v 0.6 5.7 -0.3
v 0.6 5.7 -1
v 0.6 5.8 1
v 0.6 5.8 0.3
v 0.6 5.8 -0.3
v 0.6 5.8 -1
v 0.7 3.9 1.3
v 0.7 3.9 1.1
v 0.7 3.9 -1.1
v 0.7 3.9 -1.3
v 0.7 4.5 1.3
v 0.7 4.5 1.1
v 0.7 4.5 -1.1
v 0.7 4.5 -1.3
v 0.8 4.5 1.3
v 0.8 4.5 1.1
v 0.8 4.5 -1.1
v 0.8 4.5 -1.3
v 0.8 5.5 1.1
v 0.8 5.5 -1.1
v 0.8 5.7 1
v 0.8 5.7 0.3
v 0.8 5.7 0.1
v 0.8 5.7 -0.1
v 0.8 5.7 -0.3
v 0.8 5.7 -1
v 0.8 5.8 1.3
v 0.8 5.8 1
v 0.8 5.8 -1
v 0.8 5.8 -1.3
v 0.8 6.4 1
v 0.8 6.4 0.2
v 0.8 6.4 -0.2
v 0.8 6.4 -1
v 0.8 6.5 1
v 0.8 6.5 0.2
v 0.8 6.5 -0.2
v 0.8 6.5 -1
v 1 5.6 0.1
v 1 5.6 -0.1
v 1 5.7 0.3
v 1 5.7 0.2
v 1 5.7 0.1
v 1 5.7 -0.1
v 1 5.7 -0.2
v 1 5.7 -0.3
v 1 5.8 1.3
v 1 5.8 1
v 1 5.8 0.8
v 1 5.8 0.4
v 1 5.8 0.3
v 1 5.8 -0.3
v 1 5.8 -0.4
v 1 5.8 -0.8
v 1 5.8 -1
v 1 5.8 -1.3
v 1 6.1 1.3
v 1 6.1 1.2
v 1 6.1 0.4
v 1 6.1 0.3
v 1 6.1 -0.3
v 1 6.1 -0.4
v 1 6.1 -1.2
v 1 6.1 -1.3
v 1 6.2 1
v 1 6.2 0.9
v 1 6.2 0.8
v 1 6.2 0.5
v 1 6.2 0.3
v 1 6.2 0.2
v 1 6.2 -0.2
v 1 6.2 -0.3
v 1 6.2 -0.5
v 1 6.2 -0.8
v 1 6.2 -0.9
v 1 6.2 -1
v 1 6.3 0.9
v 1 6.3 0.5
v 1 6.3 0.1
v 1 6.3 -0.1
v 1 6.3 -0.5
v 1 6.3 -0.9
v 1 6.4 1.2
v 1 6.4 0.1
v 1 6.4 -0.1
v 1 6.4 -1.2
v -0.9 2.9 1.4
v -0.9 3.6 1.4
v -0.8 2.9 1.4
v -0.8 3.6 1.4
v -0.8 4.1 1.4
v -0.8 4.9 1.4
v -0.7 2.9 1.4
v -0.7 3.6 1.4
v -0.7 4.1 1.4
v -0.7 4.6 1.4
v -0.6 4.1 1.4
v -0.6 4.6 1.4
v -0.5 2.9 1.4
v -0.5 3.6 1.4
v -0.4 4.1 1.4
v -0.4 4.9 1.4
v -0.2 4.1 1.4
v -0.2 4.9 1.4
v 0 4.1 1.4
v 0 4.9 1.4
v -0.8 3.6 1.3
v -0.8 4.1 1.3
v -0.8 4.9 1.3
v -0.8 6.1 1.3
v -0.7 3.6 1.3
v -0.7 4.1 1.3
v -0.6 3.6 1.3
v -0.6 4.1 1.3
v -0.6 4.9 1.3
v -0.6 5.7 1.3
v -0.5 3.6 1.3
v -0.5 4.9 1.3
v -0.5 5.7 1.3
v -0.4 3.6 1.3
v -0.4 4.1 1.3
v -0.4 4.9 1.3
v -0.4 5.7 1.3
v -0.4 6.1 1.3
v -0.3 5.7 1.3
v -0.3 6.1 1.3
v -0.2 4.1 1.3
v -0.2 4.9 1.3
v -0.1 4.9 1.3
v -0.1 6.1 1.3
v 0 3.6 1.3
v 0 4.1 1.3
v 0 4.4 1.3
v 0 4.9 1.3
v 0.1 4.9 1.3
v 0.1 6.1 1.3
v 0.2 3.6 1.3
v 0.2 4.4 1.3
v 0.3 3.6 1.3
v 0.3 4.9 1.3
v 0.4 3.6 1.3
v 0.4 4.8 1.3
v 0.4 6.1 1.3
v 0.5 4.3 1.3
v 0.5 4.8 1.3
v 0.5 5.7 1.3
v 0.5 6.1 1.3
v 0.6 3.9 1.3
v 0.6 4.3 1.3
v 0.6 5.7 1.3
v 0.7 3.9 1.3
v 0.7 4.5 1.3
v 0.8 4.5 1.3
v 0.8 5.8 1.3
v 1 5.8 1.3
v 1 6.1 1.3
v -1.1 2.9 1.2
v -1.1 3.6 1.2
v -1.1 4.1 1.2
v -1.1 4.9 1.2
v -0.9 2.9 1.2
v -0.9 3.6 1.2
v -0.9 4.1 1.2
v -0.9 4.9 1.2
v -0.8 4.1 1.2
v -0.8 4.9 1.2
v -0.8 6.1 1.2
v -0.8 6.4 1.2
v -0.5 6.1 1.2
v -0.5 6.4 1.2
v -0.4 6.1 1.2
v -0.3 6.1 1.2
v -0.3 6.4 1.2
v -0.1 6.1 1.2
v 0 6.1 1.2
v 0 6.4 1.2
v 0.1 6.1 1.2
v 0.1 6.4 1.2
v 0.4 6.1 1.2
v 0.5 6.1 1.2
v 1 6.1 1.2
v 1 6.4 1.2
v -1 3.6 1.1
v -1 4.1 1.1
v -1 4.9 1.1
v -1 6.2 1.1
v -0.9 4.1 1.1
v -0.9 4.9 1.1
v -0.8 3.6 1.1
v -0.8 4.1 1.1
v -0.8 4.9 1.1
v -0.8 6.2 1.1
v -0.8 6.4 1
v -0.8 6.5 1
v -0.5 6.4 1
v -0.5 6.5 1
v -0.3 6.4 1
v -0.3 6.5 1
v 0 6.4 1
v 0.1 6.4 1
v 0.4 6.4 1
v 0.4 6.5 1
v 0.6 6.4 1
v 0.6 6.5 1
v 0.8 6.4 1
v 0.8 6.5 1
v -1 6.2 0.9
v -1 6.4 0.9
v -0.8 6.2 0.9
v -0.8 6.4 0.9
v 0.6 5.7 0.3
v 0.6 5.8 0.3
v 0.8 5.7 0.3
v 0.9 5.7 0.3
v 0.9 5.8 0.3
v 1 5.7 0.3
v 1 5.8 0.3
v 0.9 5.6 0.1
v 0.9 5.7 0.1
v 1 5.6 0.1
v 1 5.7 0.1
v -1 6.3 -0.1
v -1 6.4 -0.1
v -0.9 6.3 -0.1
v 1 6.3 -0.1
v 1 6.4 -0.1
v -0.8 6.4 -0.2
v -0.8 6.5 -0.2
v -0.5 6.4 -0.2
v -0.5 6.5 -0.2
v -0.3 6.4 -0.2
v -0.3 6.5 -0.2
v -0.1 6.4 -0.2
v -0.1 6.5 -0.2
v 0 6.4 -0.2
v 0 6.5 -0.2
v 0.4 6.4 -0.2
v 0.4 6.5 -0.2
v 0.5 6.4 -0.2
v 0.5 6.5 -0.2
v 0.8 6.4 -0.2
v 0.8 6.5 -0.2
v 0.6 5.7 -1
v 0.6 5.8 -1
v 0.8 5.7 -1
v 0.8 5.8 -1
v -0.4 3.6 -1.1
v -0.4 5.5 -1.1
v 0 3.6 -1.1
v 0 4.4 -1.1
v 0 4.9 -1.1
v 0.2 3.6 -1.1
v 0.2 4.4 -1.1
v 0.3 3.6 -1.1
v 0.3 4.9 -1.1
v 0.4 3.6 -1.1
v 0.4 4.8 -1.1
v 0.5 4.3 -1.1
v 0.5 4.8 -1.1
v 0.6 3.9 -1.1
v 0.6 4.3 -1.1
v 0.6 4.8 -1.1
v 0.7 3.9 -1.1
v 0.7 4.5 -1.1
v 0.8 4.5 -1.1
v 0.8 5.5 -1.1
v -0.4 3.6 1.1
v -0.4 5.5 1.1
v 0 3.6 1.1
v 0 4.4 1.1
v 0 4.9 1.1
v 0.2 3.6 1.1
v 0.2 4.4 1.1
v 0.3 3.6 1.1
v 0.3 4.9 1.1
v 0.4 3.6 1.1
v 0.4 4.8 1.1
v 0.5 4.3 1.1
v 0.5 4.8 1.1
v 0.6 3.9 1.1
v 0.6 4.3 1.1
v 0.6 4.8 1.1
v 0.7 3.9 1.1
v 0.7 4.5 1.1
v 0.8 4.5 1.1
v 0.8 5.5 1.1
v 0.6 5.7 1
v 0.6 5.8 1
v 0.8 5.7 1
v 0.8 5.8 1
v -0.8 6.4 0.2
v -0.8 6.5 0.2
v -0.5 6.4 0.2
v -0.5 6.5 0.2
v -0.3 6.4 0.2
v -0.3 6.5 0.2
v -0.1 6.4 0.2
v -0.1 6.5 0.2
v 0 6.4 0.2
v 0 6.5 0.2
v 0.4 6.4 0.2
v 0.4 6.5 0.2
v 0.5 6.4 0.2
v 0.5 6.5 0.2
v 0.8 6.4 0.2
v 0.8 6.5 0.2
v -1 6.3 0.1
v -1 6.4 0.1
v -0.9 6.3 0.1
v 1 6.3 0.1
v 1 6.4 0.1
v 0.9 5.6 -0.1
v 0.9 5.7 -0.1
v 1 5.6 -0.1
v 1 5.7 -0.1
v 0.6 5.7 -0.3
v 0.6 5.8 -0.3
v 0.8 5.7 -0.3
v 0.9 5.7 -0.3
v 0.9 5.8 -0.3
v 1 5.7 -0.3
v 1 5.8 -0.3
v -1 6.2 -0.9
v -1 6.4 -0.9
v -0.8 6.2 -0.9
v -0.8 6.4 -0.9
v -0.8 6.4 -1
v -0.8 6.5 -1
v -0.5 6.4 -1
v -0.5 6.5 -1
v -0.3 6.4 -1
v -0.3 6.5 -1
v 0 6.4 -1
v 0.1 6.4 -1
v 0.4 6.4 -1
v 0.4 6.5 -1
v 0.6 6.4 -1
v 0.6 6.5 -1
v 0.8 6.4 -1
v 0.8 6.5 -1
v -1 3.6 -1.1
v -1 4.1 -1.1
v -1 4.9 -1.1
v -1 6.2 -1.1
v -0.9 4.1 -1.1
v -0.9 4.9 -1.1
v -0.8 3.6 -1.1
v -0.8 4.1 -1.1
v -0.8 4.9 -1.1
v -0.8 6.2 -1.1
v -1.1 2.9 -1.2
v -1.1 3.6 -1.2
v -1.1 4.1 -1.2
v -1.1 4.9 -1.2
v -0.9 2.9 -1.2
v -0.9 3.6 -1.2
v -0.9 4.1 -1.2
v -0.9 4.9 -1.2
v -0.8 4.1 -1.2
v -0.8 4.9 -1.2
v -0.8 6.1 -1.2
v -0.8 6.4 -1.2
v -0.5 6.1 -1.2
v -0.5 6.4 -1.2
v -0.4 6.1 -1.2
v -0.3 6.1 -1.2
v -0.3 6.4 -1.2
v -0.1 6.1 -1.2
v 0 6.1 -1.2
v 0 6.4 -1.2
v 0.1 6.1 -1.2
v 0.1 6.4 -1.2
v 0.4 6.1 -1.2
v 0.5 6.1 -1.2
v 1 6.1 -1.2
v 1 6.4 -1.2
v -0.8 3.6 -1.3
v -0.8 4.1 -1.3
v -0.8 4.9 -1.3
v -0.8 6.1 -1.3
v -0.7 3.6 -1.3
v -0.7 4.1 -1.3
v -0.6 3.6 -1.3
v -0.6 4.1 -1.3
v -0.6 4.9 -1.3
v -0.6 5.7 -1.3
v -0.5 3.6 -1.3
v -0.5 4.9 -1.3
v -0.5 5.7 -1.3
v -0.4 3.6 -1.3
v -0.4 4.1 -1.3
v -0.4 4.9 -1.3
v -0.4 5.7 -1.3
v -0.4 6.1 -1.3
v -0.3 5.7 -1.3
v -0.3 6.1 -1.3
v -0.2 4.1 -1.3
v -0.2 4.9 -1.3
v -0.1 4.9 -1.3
v -0.1 6.1 -1.3
v 0 3.6 -1.3
v 0 4.1 -1.3
v 0 4.4 -1.3
v 0 4.9 -1.3
v 0.1 4.9 -1.3
v 0.1 6.1 -1.3
v 0.2 3.6 -1.3
v 0.2 4.4 -1.3
v 0.3 3.6 -1.3
v 0.3 4.9 -1.3
v 0.4 3.6 -1.3
v 0.4 4.8 -1.3
v 0.4 6.1 -1.3
v 0.5 4.3 -1.3
v 0.5 4.8 -1.3
v 0.5 5.7 -1.3
v 0.5 6.1 -1.3
v 0.6 3.9 -1.3
v 0.6 4.3 -1.3
v 0.6 5.7 -1.3
v 0.7 3.9 -1.3
v 0.7 4.5 -1.3
v 0.8 4.5 -1.3
v 0.8 5.8 -1.3
v 1 5.8 -1.3
v 1 6.1 -1.3
v -0.9 2.9 -1.4
v -0.9 3.6 -1.4
v -0.8 2.9 -1.4
v -0.8 3.6 -1.4
v -0.8 4.1 -1.4
v -0.8 4.9 -1.4
v -0.7 2.9 -1.4
v -0.7 3.6 -1.4
v -0.7 4.1 -1.4
v -0.7 4.6 -1.4
v -0.6 4.1 -1.4
v -0.6 4.6 -1.4
v -0.5 2.9 -1.4
v -0.5 3.6 -1.4
v -0.4 4.1 -1.4
v -0.4 4.9 -1.4
v -0.2 4.1 -1.4
v -0.2 4.9 -1.4
v 0 4.1 -1.4
v 0 4.9 -1.4
v -0.9 2.9 1.4
v -0.8 2.9 1.4
v -0.7 2.9 1.4
v -0.5 2.9 1.4
v -0.8 2.9 1.3
v -0.7 2.9 1.3
v -1.1 2.9 1.2
v -0.9 2.9 1.2
v -1.1 2.9 1.1
v -1 2.9 1.1
v -1.1 2.9 1
v -1 2.9 1
v -1.1 2.9 0.7
v -1 2.9 0.7
v -1.1 2.9 0.5
v -1 2.9 0.5
v -1.1 2.9 0.2
v -1 2.9 0.2
v -1.1 2.9 0.1
v -1 2.9 0.1
v -1.1 2.9 -0.1
v -1 2.9 -0.1
v -1.1 2.9 -0.2
v -1 2.9 -0.2
v -1.1 2.9 -0.5
v -1 2.9 -0.5
v -1.1 2.9 -0.7
v -1 2.9 -0.7
v -1.1 2.9 -1
v -1 2.9 -1
v -1.1 2.9 -1.1
v -1 2.9 -1.1
v -1.1 2.9 -1.2
v -0.9 2.9 -1.2
v -0.8 2.9 -1.3
v -0.7 2.9 -1.3
v -0.9 2.9 -1.4
v -0.8 2.9 -1.4
v -0.7 2.9 -1.4
v -0.5 2.9 -1.4
v -0.5 3.6 1.3
v -0.4 3.6 1.3
v 0 3.6 1.3
v 0.2 3.6 1.3
v 0.3 3.6 1.3
v 0.4 3.6 1.3
v -0.5 3.6 1.2
v -0.4 3.6 1.2
v -0.4 3.6 1.1
v 0 3.6 1.1
v 0.2 3.6 1.1
v 0.3 3.6 1.1
v 0.4 3.6 1.1
v -0.4 3.6 -1.1
v 0 3.6 -1.1
v 0.2 3.6 -1.1
v 0.3 3.6 -1.1
v 0.4 3.6 -1.1
v -0.5 3.6 -1.2
v -0.4 3.6 -1.2
v -0.5 3.6 -1.3
v -0.4 3.6 -1.3
v 0 3.6 -1.3
v 0.2 3.6 -1.3
v 0.3 3.6 -1.3
v 0.4 3.6 -1.3
v 0.6 3.9 1.3
v 0.7 3.9 1.3
v 0.6 3.9 1.1
v 0.7 3.9 1.1
v 0.6 3.9 -1.1
v 0.7 3.9 -1.1
v 0.6 3.9 -1.3
v 0.7 3.9 -1.3
v -0.8 4.1 1.4
v -0.7 4.1 1.4
v -0.6 4.1 1.4
v -0.4 4.1 1.4
v -0.2 4.1 1.4
v 0 4.1 1.4
v -0.8 4.1 1.3
v -0.7 4.1 1.3
v -0.6 4.1 1.3
v -0.4 4.1 1.3
v -0.2 4.1 1.3
v 0 4.1 1.3
v -1.1 4.1 1.2
v -0.9 4.1 1.2
v -0.8 4.1 1.2
v -1 4.1 1.1
v -0.9 4.1 1.1
v -0.8 4.1 1.1
v -1 4.1 0.9
v -1.1 4.1 0.7
v -1 4.1 0.7
v -1.1 4.1 0.6
v -1 4.1 0.6
v -1 4.1 0.5
v -1 4.1 0.3
v -1.1 4.1 0.1
v -1 4.1 0.1
v -1.1 4.1 -0.1
v -1 4.1 -0.1
v -1 4.1 -0.3
v -1 4.1 -0.5
v -1.1 4.1 -0.6
v -1 4.1 -0.6
v -1.1 4.1 -0.7
v -1 4.1 -0.7
v -1 4.1 -0.9
v -1 4.1 -1.1
v -0.9 4.1 -1.1
v -0.8 4.1 -1.1
v -1.1 4.1 -1.2
v -0.9 4.1 -1.2
v -0.8 4.1 -1.2
v -0.8 4.1 -1.3
v -0.7 4.1 -1.3
v -0.6 4.1 -1.3
v -0.4 4.1 -1.3
v -0.2 4.1 -1.3
v 0 4.1 -1.3
v -0.8 4.1 -1.4
v -0.7 4.1 -1.4
v -0.6 4.1 -1.4
v -0.4 4.1 -1.4
v -0.2 4.1 -1.4
v 0 4.1 -1.4
v 0.5 4.3 1.3
v 0.6 4.3 1.3
v 0.5 4.3 1.1
v 0.6 4.3 1.1
v 0.5 4.3 -1.1
v 0.6 4.3 -1.1
v 0.5 4.3 -1.3
v 0.6 4.3 -1.3
v 0 4.4 1.3
v 0.2 4.4 1.3
v 0 4.4 1.1
v 0.2 4.4 1.1
v 0 4.4 -1.1
v 0.2 4.4 -1.1
v 0 4.4 -1.3
v 0.2 4.4 -1.3
v 0.7 4.5 1.3
v 0.8 4.5 1.3
v 0.7 4.5 1.1
v 0.8 4.5 1.1
v 0.7 4.5 -1.1
v 0.8 4.5 -1.1
v 0.7 4.5 -1.3
v 0.8 4.5 -1.3
v 0.4 4.8 1.3
v 0.5 4.8 1.3
v 0.4 4.8 1.2
v 0.5 4.8 1.2
v 0.4 4.8 1.1
v 0.5 4.8 1.1
v 0.4 4.8 -1.1
v 0.5 4.8 -1.1
v 0.4 4.8 -1.2
v 0.5 4.8 -1.2
v 0.4 4.8 -1.3
v 0.5 4.8 -1.3
v -0.4 5.5 1.1
v 0.8 5.5 1.1
v -0.4 5.5 -1.1
v 0.8 5.5 -1.1
v 0.9 5.6 0.1
v 1 5.6 0.1
v 0.9 5.6 -0.1
v 1 5.6 -0.1
v 0.8 5.7 0.3
v 0.9 5.7 0.3
v 1 5.7 0.3
v 0.9 5.7 0.2
v 1 5.7 0.2
v 0.8 5.7 0.1
v 0.9 5.7 0.1
v 1 5.7 0.1
v 0.8 5.7 -0.1
v 0.9 5.7 -0.1
v 1 5.7 -0.1
v 0.9 5.7 -0.2
v 1 5.7 -0.2
v 0.8 5.7 -0.3
v 0.9 5.7 -0.3
v 1 5.7 -0.3
v 0.8 5.8 1.3
v 1 5.8 1.3
v 0.6 5.8 1
v 0.8 5.8 1
v 0.9 5.8 1
v 1 5.8 1
v 0.9 5.8 0.8
v 1 5.8 0.8
v 0.9 5.8 0.4
v 1 5.8 0.4
v 0.6 5.8 0.3
v 0.9 5.8 0.3
v 1 5.8 0.3
v 0.6 5.8 -0.3
v 0.9 5.8 -0.3
v 1 5.8 -0.3
v 0.9 5.8 -0.4
v 1 5.8 -0.4
v 0.9 5.8 -0.8
v 1 5.8 -0.8
v 0.6 5.8 -1
v 0.8 5.8 -1
v 0.9 5.8 -1
v 1 5.8 -1
v 0.8 5.8 -1.3
v 1 5.8 -1.3
v -0.9 3.6 1.4
v -0.8 3.6 1.4
v -0.7 3.6 1.4
v -0.5 3.6 1.4
v -0.8 3.6 1.3
v -0.7 3.6 1.3
v -0.6 3.6 1.3
v -0.5 3.6 1.3
v -1.1 3.6 1.2
v -0.9 3.6 1.2
v -1 3.6 1.1
v -0.8 3.6 1.1
v -1 3.6 0.9
v -1 3.6 0.7
v -1 3.6 0.5
v -1 3.6 0.3
v -1.1 3.6 0.2
v -1 3.6 0.2
v -1.1 3.6 0.1
v -1 3.6 0.1
v -1.1 3.6 -0.1
v -1 3.6 -0.1
v -1.1 3.6 -0.2
v -1 3.6 -0.2
v -1 3.6 -0.3
v -1 3.6 -0.5
v -1 3.6 -0.7
v -1 3.6 -0.9
v -1 3.6 -1.1
v -0.8 3.6 -1.1
v -1.1 3.6 -1.2
v -0.9 3.6 -1.2
v -0.8 3.6 -1.3
v -0.7 3.6 -1.3
v -0.6 3.6 -1.3
v -0.5 3.6 -1.3
v -0.9 3.6 -1.4
v -0.8 3.6 -1.4
v -0.7 3.6 -1.4
v -0.5 3.6 -1.4
v -0.8 4.9 1.4
v -0.4 4.9 1.4
v -0.2 4.9 1.4
v 0 4.9 1.4
v -0.8 4.9 1.3
v -0.6 4.9 1.3
v -0.5 4.9 1.3
v -0.4 4.9 1.3
v -0.2 4.9 1.3
v -0.1 4.9 1.3
v 0 4.9 1.3
v -1.1 4.9 1.2
v -0.9 4.9 1.2
v -0.8 4.9 1.2
v -1 4.9 1.1
v -0.9 4.9 1.1
v -0.8 4.9 1.1
v -1 4.9 0.9
v -1 4.9 0.8
v -1.1 4.9 0.7
v -1 4.9 0.7
v -1.1 4.9 0.6
v -1 4.9 0.6
v -1 4.9 0.4
v -1 4.9 0.2
v -1.1 4.9 0.1
v -1 4.9 0.1
v -1.1 4.9 -0.1
v -1 4.9 -0.1
v -1 4.9 -0.2
v -1 4.9 -0.4
v -1.1 4.9 -0.6
v -1 4.9 -0.6
v -1.1 4.9 -0.7
v -1 4.9 -0.7
v -1 4.9 -0.8
v -1 4.9 -0.9
v -1 4.9 -1.1
v -0.9 4.9 -1.1
v -0.8 4.9 -1.1
v -1.1 4.9 -1.2
v -0.9 4.9 -1.2
v -0.8 4.9 -1.2
v -0.8 4.9 -1.3
v -0.6 4.9 -1.3
v -0.5 4.9 -1.3
v -0.4 4.9 -1.3
v -0.2 4.9 -1.3
v -0.1 4.9 -1.3
v 0 4.9 -1.3
v -0.8 4.9 -1.4
v -0.4 4.9 -1.4
v -0.2 4.9 -1.4
v 0 4.9 -1.4
v 0.6 5.7 1
v 0.8 5.7 1
v 0.6 5.7 0.3
v 0.8 5.7 0.3
v 0.6 5.7 -0.3
v 0.8 5.7 -0.3
v 0.6 5.7 -1
v 0.8 5.7 -1
v -0.8 6.1 1.3
v -0.4 6.1 1.3
v -0.3 6.1 1.3
v -0.1 6.1 1.3
v 0.1 6.1 1.3
v 0.4 6.1 1.3
v 0.5 6.1 1.3
v 1 6.1 1.3
v -0.8 6.1 1.2
v -0.5 6.1 1.2
v -0.4 6.1 1.2
v -0.3 6.1 1.2
v -0.1 6.1 1.2
v 0 6.1 1.2
v 0.1 6.1 1.2
v 0.4 6.1 1.2
v 0.5 6.1 1.2
v 1 6.1 1.2
v -0.8 6.1 -1.2
v -0.5 6.1 -1.2
v -0.4 6.1 -1.2
v -0.3 6.1 -1.2
v -0.1 6.1 -1.2
v 0 6.1 -1.2
v 0.1 6.1 -1.2
v 0.4 6.1 -1.2
v 0.5 6.1 -1.2
v 1 6.1 -1.2
v -0.8 6.1 -1.3
v -0.4 6.1 -1.3
v -0.3 6.1 -1.3
v -0.1 6.1 -1.3
v 0.1 6.1 -1.3
v 0.4 6.1 -1.3
v 0.5 6.1 -1.3
v 1 6.1 -1.3
v -1 6.2 1.1
v -0.8 6.2 1.1
v -1 6.2 0.9
v -0.8 6.2 0.9
v -1 6.2 -0.9
v -0.8 6.2 -0.9
v -1 6.2 -1.1
v -0.8 6.2 -1.1
v -1 6.3 0.1
v -0.9 6.3 0.1
v 1 6.3 0.1
v -1 6.3 -0.1
v -0.9 6.3 -0.1
v 1 6.3 -0.1
v -0.8 6.4 1.2
v -0.5 6.4 1.2
v -0.3 6.4 1.2
v 0 6.4 1.2
v 0.1 6.4 1.2
v 1 6.4 1.2
v -0.8 6.4 1
v -0.5 6.4 1
v -0.3 6.4 1
v 0 6.4 1
v 0.1 6.4 1
v 0.4 6.4 1
v 0.6 6.4 1
v 0.8 6.4 1
v -1 6.4 0.9
v -0.8 6.4 0.9
v -1 6.4 0.7
v -0.8 6.4 0.7
v -0.8 6.4 0.2
v -0.5 6.4 0.2
v -0.3 6.4 0.2
v -0.1 6.4 0.2
v 0 6.4 0.2
v 0.4 6.4 0.2
v 0.5 6.4 0.2
v 0.8 6.4 0.2
v -1 6.4 0.1
v 1 6.4 0.1
v -1 6.4 -0.1
v 1 6.4 -0.1
v -0.8 6.4 -0.2
v -0.5 6.4 -0.2
v -0.3 6.4 -0.2
v -0.1 6.4 -0.2
v 0 6.4 -0.2
v 0.4 6.4 -0.2
v 0.5 6.4 -0.2
v 0.8 6.4 -0.2
v -1 6.4 -0.7
v -0.8 6.4 -0.7
v -1 6.4 -0.9
v -0.8 6.4 -0.9
v -0.8 6.4 -1
v -0.5 6.4 -1
v -0.3 6.4 -1
v 0 6.4 -1
v 0.1 6.4 -1
v 0.4 6.4 -1
v 0.6 6.4 -1
v 0.8 6.4 -1
v -0.8 6.4 -1.2
v -0.5 6.4 -1.2
v -0.3 6.4 -1.2
v 0 6.4 -1.2
v 0.1 6.4 -1.2
v 1 6.4 -1.2
v -0.8 6.5 1
v -0.5 6.5 1
v -0.3 6.5 1
v 0.4 6.5 1
v 0.6 6.5 1
v 0.8 6.5 1
v -0.1 6.5 0.6
v 0 6.5 0.6
v 0.5 6.5 0.5
v 0.6 6.5 0.5
v -0.8 6.5 0.2
v -0.5 6.5 0.2
v -0.3 6.5 0.2
v -0.1 6.5 0.2
v 0 6.5 0.2
v 0.4 6.5 0.2
v 0.5 6.5 0.2
v 0.8 6.5 0.2
v -0.8 6.5 -0.2
v -0.5 6.5 -0.2
v -0.3 6.5 -0.2
v -0.1 6.5 -0.2
v 0 6.5 -0.2
v 0.4 6.5 -0.2
v 0.5 6.5 -0.2
v 0.8 6.5 -0.2
v 0.5 6.5 -0.5
v 0.6 6.5 -0.5
v -0.1 6.5 -0.6
v 0 6.5 -0.6
v -0.8 6.5 -1
v -0.5 6.5 -1
v -0.3 6.5 -1
v 0.4 6.5 -1
v 0.6 6.5 -1
v 0.8 6.5 -1

# faces
f 15/2/1 4/2/1 3/2/1
f 15/1/1 5/1/1 4/1/1
f 16/2/1 6/2/1 5/2/1
f 16/1/1 5/1/1 15/1/1
f 17/2/1 10/2/1 9/2/1
f 17/1/1 11/1/1 10/1/1
f 18/2/1 12/2/1 11/2/1
f 18/1/1 11/1/1 17/1/1
f 19/2/1 2/2/1 1/2/1
f 19/1/1 3/1/1 2/1/1
f 20/2/1 15/2/1 3/2/1
f 20/1/1 3/1/1 19/1/1
f 20/2/1 16/2/1 15/2/1
f 21/2/1 12/2/1 18/2/1
f 21/2/1 18/2/1 17/2/1
f 21/1/1 13/1/1 12/1/1
f 22/2/1 14/2/1 13/2/1
f 22/1/1 13/1/1 21/1/1
f 23/2/1 20/2/1 19/2/1
f 23/2/1 19/2/1 1/2/1
f 24/2/1 16/2/1 20/2/1
f 24/2/1 20/2/1 23/2/1
f 24/1/1 7/1/1 6/1/1
f 24/2/1 6/2/1 16/2/1
f 25/2/1 8/2/1 7/2/1
f 25/1/1 7/1/1 24/1/1
f 26/1/1 9/1/1 8/1/1
f 26/2/1 8/2/1 25/2/1
f 27/2/1 21/2/1 17/2/1
f 27/1/1 9/1/1 26/1/1
f 27/2/1 17/2/1 9/2/1
f 27/2/1 22/2/1 21/2/1
f 28/2/1 14/2/1 22/2/1
f 28/2/1 22/2/1 27/2/1
f 37/2/1 30/2/1 29/2/1
f 38/1/1 31/1/1 30/1/1
f 38/2/1 30/2/1 37/2/1
f 39/2/1 32/2/1 31/2/1
f 39/1/1 31/1/1 38/1/1
f 40/1/1 33/1/1 32/1/1
f 40/2/1 32/2/1 39/2/1
f 41/2/1 34/2/1 33/2/1
f 41/1/1 33/1/1 40/1/1
f 42/1/1 35/1/1 34/1/1
f 42/2/1 34/2/1 41/2/1
f 43/2/1 36/2/1 35/2/1
f 43/1/1 35/1/1 42/1/1
f 44/2/1 36/2/1 43/2/1
f 59/2/1 46/2/1 45/2/1
f 60/1/1 47/1/1 46/1/1
f 60/2/1 46/2/1 59/2/1
f 61/2/1 48/2/1 47/2/1
f 61/1/1 47/1/1 60/1/1
f 62/2/1 48/2/1 61/2/1
f 63/1/1 49/1/1 48/1/1
f 63/2/1 48/2/1 62/2/1
f 64/2/1 50/2/1 49/2/1
f 64/1/1 49/1/1 63/1/1
f 64/2/1 51/2/1 50/2/1
f 64/2/1 52/2/1 51/2/1
f 64/2/1 53/2/1 52/2/1
f 64/2/1 54/2/1 53/2/1
f 65/2/1 54/2/1 64/2/1
f 66/2/1 54/2/1 65/2/1
f 67/1/1 55/1/1 54/1/1
f 67/2/1 54/2/1 66/2/1
f 68/2/1 56/2/1 55/2/1
f 68/1/1 55/1/1 67/1/1
f 69/2/1 56/2/1 68/2/1
f 70/1/1 57/1/1 56/1/1
f 70/2/1 56/2/1 69/2/1
f 71/2/1 58/2/1 57/2/1
f 71/1/1 57/1/1 70/1/1
f 72/2/1 58/2/1 71/2/1
f 89/1/1 75/1/1 74/1/1
f 89/2/1 76/2/1 75/2/1
f 89/2/1 77/2/1 76/2/1
f 89/2/1 78/2/1 77/2/1
f 90/2/1 78/2/1 89/2/1
f 91/2/1 86/2/1 85/2/1
f 91/2/1 85/2/1 84/2/1
f 91/2/1 84/2/1 83/2/1
f 92/1/1 87/1/1 86/1/1
f 92/2/1 86/2/1 91/2/1
f 93/1/1 79/1/1 78/1/1
f 94/2/1 80/2/1 79/2/1
f 94/1/1 79/1/1 93/1/1
f 94/2/1 81/2/1 80/2/1
f 94/2/1 82/2/1 81/2/1
f 95/2/1 82/2/1 94/2/1
f 96/2/1 82/2/1 95/2/1
f 97/1/1 83/1/1 82/1/1
f 97/2/1 82/2/1 96/2/1
f 98/1/1 83/1/1 97/1/1
f 99/2/1 78/2/1 90/2/1
f 99/1/1 93/1/1 78/1/1
f 100/2/1 94/2/1 93/2/1
f 100/1/1 93/1/1 99/1/1
f 100/2/1 95/2/1 94/2/1
f 101/1/1 83/1/1 98/1/1
f 101/2/1 98/2/1 97/2/1
f 101/2/1 97/2/1 96/2/1
f 102/2/1 91/2/1 83/2/1
f 102/1/1 83/1/1 101/1/1
f 103/2/1 74/2/1 73/2/1
f 104/1/1 90/1/1 89/1/1
f 104/2/1 74/2/1 103/2/1
f 104/1/1 89/1/1 74/1/1
f 105/2/1 88/2/1 87/2/1
f 105/1/1 87/1/1 92/1/1
f 105/1/1 92/1/1 91/1/1
f 106/2/1 88/2/1 105/2/1
f 107/2/1 95/2/1 100/2/1
f 107/2/1 100/2/1 99/2/1
f 107/1/1 96/1/1 95/1/1
f 108/2/1 101/2/1 96/2/1
f 108/1/1 96/1/1 107/1/1
f 108/2/1 102/2/1 101/2/1
f 109/1/1 90/1/1 104/1/1
f 110/2/1 107/2/1 99/2/1
f 110/1/1 90/1/1 109/1/1
f 110/2/1 99/2/1 90/2/1
f 111/2/1 107/2/1 110/2/1
f 112/2/1 102/2/1 108/2/1
f 113/2/1 91/2/1 102/2/1
f 113/2/1 102/2/1 112/2/1
f 113/1/1 105/1/1 91/1/1
f 114/1/1 105/1/1 113/1/1
f 119/2/1 116/2/1 115/2/1
f 120/2/1 116/2/1 119/2/1
f 121/2/1 118/2/1 117/2/1
f 122/2/1 118/2/1 121/2/1
f 128/2/1 124/2/1 123/2/1
f 129/2/1 124/2/1 128/2/1
f 130/2/1 124/2/1 129/2/1
f 131/2/1 126/2/1 125/2/1
f 132/2/1 126/2/1 131/2/1
f 133/2/1 126/2/1 132/2/1
f 135/2/1 128/2/1 127/2/1
f 135/2/1 129/2/1 128/2/1
f 136/2/1 129/2/1 135/2/1
f 137/2/1 129/2/1 136/2/1
f 140/2/1 134/2/1 133/2/1
f 140/2/1 133/2/1 132/2/1
f 141/2/1 134/2/1 140/2/1
f 142/2/1 134/2/1 141/2/1
f 143/2/1 138/2/1 137/2/1
f 143/2/1 137/2/1 136/2/1
f 144/2/1 138/2/1 143/2/1
f 145/2/1 141/2/1 140/2/1
f 145/2/1 140/2/1 139/2/1
f 146/2/1 141/2/1 145/2/1
f 147/2/1 138/2/1 144/2/1
f 150/2/1 145/2/1 139/2/1
f 151/2/1 148/2/1 147/2/1
f 151/2/1 147/2/1 144/2/1
f 152/2/1 148/2/1 151/2/1
f 153/2/1 148/2/1 152/2/1
f 158/2/1 150/2/1 149/2/1
f 159/2/1 150/2/1 158/2/1
f 160/2/1 145/2/1 150/2/1
f 160/2/1 150/2/1 159/2/1
f 161/2/1 153/2/1 152/2/1
f 161/2/1 154/2/1 153/2/1
f 161/2/1 155/2/1 154/2/1
f 162/2/1 155/2/1 161/2/1
f 163/2/1 157/2/1 156/2/1
f 163/2/1 159/2/1 158/2/1
f 163/2/1 158/2/1 157/2/1
f 164/2/1 159/2/1 163/2/1
f 169/1/1 166/1/1 165/1/1
f 170/1/1 166/1/1 169/1/1
f 171/1/1 168/1/1 167/1/1
f 172/1/1 168/1/1 171/1/1
f 177/1/1 174/1/1 173/1/1
f 178/1/1 174/1/1 177/1/1
f 179/1/1 174/1/1 178/1/1
f 180/1/1 176/1/1 175/1/1
f 181/1/1 176/1/1 180/1/1
f 182/1/1 176/1/1 181/1/1
f 187/2/1 184/2/1 183/2/1
f 188/2/1 184/2/1 187/2/1
f 189/2/1 186/2/1 185/2/1
f 190/2/1 186/2/1 189/2/1
f 193/2/1 192/2/1 191/2/1
f 194/2/1 192/2/1 193/2/1
f 195/2/2 196/2/2 197/2/2
f 197/2/2 196/2/2 198/2/2
f 198/2/2 196/2/2 199/2/2
f 199/2/2 196/2/2 200/2/2
f 200/2/2 196/2/2 201/2/2
f 201/2/2 196/2/2 202/2/2
f 203/2/2 204/2/2 205/2/2
f 205/2/2 204/2/2 206/2/2
f 207/2/2 208/2/2 212/2/2
f 209/2/2 210/2/2 213/2/2
f 211/2/2 212/2/2 215/2/2
f 212/2/2 208/2/2 215/2/2
f 215/2/2 208/2/2 216/2/2
f 213/2/2 214/2/2 217/2/2
f 209/2/2 213/2/2 217/2/2
f 217/2/2 214/2/2 218/2/2
f 211/2/2 215/2/2 219/2/2
f 219/2/2 215/2/2 220/2/2
f 218/2/2 214/2/2 221/2/2
f 221/2/2 214/2/2 222/2/2
f 223/2/2 224/2/2 227/2/2
f 227/2/2 224/2/2 228/2/2
f 228/2/2 224/2/2 229/2/2
f 225/2/2 226/2/2 230/2/2
f 230/2/2 226/2/2 231/2/2
f 231/2/2 226/2/2 232/2/2
f 233/2/2 234/2/2 237/2/2
f 237/2/2 234/2/2 238/2/2
f 235/2/2 236/2/2 239/2/2
f 239/2/2 236/2/2 240/2/2
f 241/2/2 242/2/2 245/2/2
f 245/2/2 242/2/2 246/2/2
f 243/2/2 244/2/2 247/2/2
f 247/2/2 244/2/2 248/2/2
f 249/2/2 250/2/2 253/2/2
f 251/2/2 252/2/2 254/2/2
f 253/2/2 254/2/2 255/2/2
f 255/2/2 254/2/2 256/2/2
f 256/2/2 254/2/2 257/2/2
f 257/2/2 254/2/2 258/2/2
f 258/2/2 254/2/2 259/2/2
f 259/2/2 254/2/2 260/2/2
f 249/2/2 253/2/2 261/2/2
f 253/2/2 255/2/2 261/2/2
f 261/2/2 255/2/2 262/2/2
f 260/2/2 254/2/2 263/2/2
f 254/2/2 252/2/2 264/2/2
f 263/2/2 254/2/2 264/2/2
f 265/2/2 266/2/2 269/2/2
f 269/2/2 266/2/2 270/2/2
f 267/2/2 268/2/2 271/2/2
f 271/2/2 268/2/2 272/2/2
f 273/2/2 274/2/2 277/2/2
f 277/2/2 274/2/2 278/2/2
f 275/1/2 276/1/2 285/1/2
f 279/1/2 280/1/2 286/1/2
f 281/2/2 282/2/2 291/2/2
f 291/2/2 282/2/2 292/2/2
f 283/2/2 284/2/2 293/2/2
f 284/1/2 285/1/2 293/1/2
f 285/1/2 276/1/2 294/1/2
f 293/1/2 285/1/2 294/1/2
f 279/1/2 286/1/2 295/1/2
f 286/1/2 287/1/2 295/1/2
f 287/2/2 288/2/2 296/2/2
f 295/1/2 287/1/2 296/1/2
f 289/2/2 290/2/2 297/2/2
f 297/2/2 290/2/2 298/2/2
f 292/2/2 282/2/2 299/2/2
f 282/1/2 283/1/2 299/1/2
f 299/1/2 283/1/2 300/1/2
f 283/2/2 293/2/2 301/2/2
f 300/1/2 283/1/2 301/1/2
f 293/2/2 294/2/2 301/2/2
f 301/2/2 294/2/2 302/2/2
f 294/1/2 276/1/2 303/1/2
f 302/2/2 294/2/2 303/2/2
f 276/2/2 277/2/2 304/2/2
f 303/1/2 276/1/2 304/1/2
f 277/2/2 278/2/2 304/2/2
f 278/2/2 279/2/2 304/2/2
f 279/1/2 295/1/2 305/1/2
f 304/2/2 279/2/2 305/2/2
f 295/2/2 296/2/2 306/2/2
f 305/1/2 295/1/2 306/1/2
f 296/2/2 288/2/2 307/2/2
f 306/2/2 296/2/2 307/2/2
f 288/1/2 289/1/2 308/1/2
f 307/2/2 288/2/2 308/2/2
f 308/1/2 289/1/2 309/1/2
f 289/2/2 297/2/2 310/2/2
f 309/1/2 289/1/2 310/1/2
f 300/1/2 301/1/2 311/1/2
f 299/2/2 300/2/2 311/2/2
f 301/1/2 302/1/2 311/1/2
f 302/2/2 303/2/2 312/2/2
f 311/1/2 302/1/2 312/1/2
f 305/2/2 306/2/2 312/2/2
f 306/2/2 307/2/2 312/2/2
f 303/2/2 304/2/2 312/2/2
f 304/2/2 305/2/2 312/2/2
f 312/2/2 307/2/2 313/2/2
f 313/2/2 307/2/2 314/2/2
f 308/1/2 309/1/2 315/1/2
f 314/2/2 307/2/2 315/2/2
f 307/1/2 308/1/2 315/1/2
f 309/2/2 310/2/2 316/2/2
f 315/1/2 309/1/2 316/1/2
f 299/2/2 311/2/2 317/2/2
f 292/2/2 299/2/2 317/2/2
f 311/2/2 312/2/2 317/2/2
f 312/2/2 313/2/2 317/2/2
f 317/2/2 313/2/2 318/2/2
f 315/2/2 316/2/2 319/2/2
f 314/2/2 315/2/2 319/2/2
f 316/2/2 310/2/2 320/2/2
f 319/2/2 316/2/2 320/2/2
f 310/2/2 297/2/2 320/2/2
f 323/2/3 322/2/3 321/2/3
f 324/2/3 322/2/3 323/2/3
f 327/1/3 324/1/3 323/1/3
f 328/1/3 324/1/3 327/1/3
f 329/2/3 326/2/3 325/2/3
f 330/2/3 326/2/3 329/2/3
f 331/1/3 330/1/3 329/1/3
f 332/2/3 326/2/3 330/2/3
f 332/1/3 330/1/3 331/1/3
f 333/2/3 328/2/3 327/2/3
f 334/2/3 328/2/3 333/2/3
f 335/2/3 332/2/3 331/2/3
f 336/2/3 326/2/3 332/2/3
f 336/2/3 332/2/3 335/2/3
f 337/1/3 336/1/3 335/1/3
f 338/1/3 336/1/3 337/1/3
f 339/2/3 338/2/3 337/2/3
f 340/2/3 338/2/3 339/2/3
f 345/2/3 342/2/3 341/2/3
f 346/2/3 342/2/3 345/2/3
f 347/2/3 346/2/3 345/2/3
f 348/2/3 346/2/3 347/2/3
f 349/2/3 344/2/3 343/2/3
f 350/2/3 344/2/3 349/2/3
f 351/1/3 348/1/3 347/1/3
f 352/1/3 350/1/3 349/1/3
f 353/2/3 344/2/3 350/2/3
f 353/1/3 350/1/3 352/1/3
f 354/1/3 348/1/3 351/1/3
f 355/1/3 348/1/3 354/1/3
f 356/2/3 353/2/3 352/2/3
f 357/2/3 344/2/3 353/2/3
f 357/2/3 353/2/3 356/2/3
f 358/2/3 344/2/3 357/2/3
f 359/2/3 357/2/3 356/2/3
f 359/1/3 358/1/3 357/1/3
f 360/1/3 358/1/3 359/1/3
f 361/2/3 355/2/3 354/2/3
f 362/2/3 359/2/3 356/2/3
f 362/2/3 360/2/3 359/2/3
f 363/2/3 360/2/3 362/2/3
f 364/2/3 360/2/3 363/2/3
f 365/2/3 361/2/3 354/2/3
f 366/2/3 361/2/3 365/2/3
f 368/1/3 364/1/3 363/1/3
f 369/1/3 368/1/3 367/1/3
f 369/1/3 364/1/3 368/1/3
f 370/1/3 364/1/3 369/1/3
f 372/1/3 369/1/3 367/1/3
f 373/1/3 372/1/3 371/1/3
f 374/2/3 370/2/3 369/2/3
f 374/1/3 372/1/3 373/1/3
f 374/1/3 369/1/3 372/1/3
f 375/2/3 374/2/3 373/2/3
f 376/2/3 374/2/3 375/2/3
f 377/2/3 370/2/3 374/2/3
f 377/2/3 374/2/3 376/2/3
f 379/1/3 377/1/3 376/1/3
f 380/1/3 377/1/3 379/1/3
f 381/1/3 377/1/3 380/1/3
f 383/1/3 379/1/3 378/1/3
f 383/1/3 380/1/3 379/1/3
f 384/2/3 381/2/3 380/2/3
f 384/1/3 380/1/3 383/1/3
f 385/2/3 383/2/3 382/2/3
f 385/2/3 384/2/3 383/2/3
f 386/2/3 384/2/3 385/2/3
f 387/2/3 384/2/3 386/2/3
f 388/2/3 381/2/3 384/2/3
f 388/2/3 384/2/3 387/2/3
f 389/2/3 381/2/3 388/2/3
f 390/2/3 381/2/3 389/2/3
f 395/2/3 392/2/3 391/2/3
f 396/2/3 392/2/3 395/2/3
f 397/2/3 394/2/3 393/2/3
f 398/2/3 394/2/3 397/2/3
f 399/1/3 398/1/3 397/1/3
f 400/1/3 398/1/3 399/1/3
f 403/2/3 402/2/3 401/2/3
f 404/2/3 402/2/3 403/2/3
f 405/1/3 404/1/3 403/1/3
f 406/1/3 404/1/3 405/1/3
f 407/1/3 404/1/3 406/1/3
f 408/2/3 407/2/3 406/2/3
f 409/2/3 407/2/3 408/2/3
f 410/2/3 407/2/3 409/2/3
f 411/1/3 410/1/3 409/1/3
f 412/1/3 410/1/3 411/1/3
f 413/2/3 412/2/3 411/2/3
f 414/2/3 412/2/3 413/2/3
f 415/2/3 412/2/3 414/2/3
f 416/2/3 412/2/3 415/2/3
f 421/2/3 418/2/3 417/2/3
f 422/2/3 420/2/3 419/2/3
f 423/2/3 421/2/3 417/2/3
f 424/2/3 421/2/3 423/2/3
f 425/2/3 420/2/3 422/2/3
f 426/2/3 420/2/3 425/2/3
f 429/2/3 428/2/3 427/2/3
f 430/2/3 428/2/3 429/2/3
f 431/1/3 430/1/3 429/1/3
f 432/1/3 430/1/3 431/1/3
f 433/2/3 432/2/3 431/2/3
f 434/2/3 432/2/3 433/2/3
f 435/2/3 432/2/3 434/2/3
f 436/2/3 432/2/3 435/2/3
f 437/1/3 436/1/3 435/1/3
f 438/1/3 436/1/3 437/1/3
f 439/2/3 438/2/3 437/2/3
f 440/2/3 438/2/3 439/2/3
f 443/1/3 442/1/3 441/1/3
f 444/1/3 442/1/3 443/1/3
f 447/2/3 446/2/3 445/2/3
f 448/2/3 446/2/3 447/2/3
f 449/2/3 446/2/3 448/2/3
f 450/1/3 449/1/3 448/1/3
f 451/1/3 449/1/3 450/1/3
f 454/2/3 453/2/3 452/2/3
f 455/2/3 453/2/3 454/2/3
f 458/2/3 457/2/3 456/2/3
f 459/2/3 457/2/3 458/2/3
f 460/2/3 457/2/3 459/2/3
f 463/2/3 462/2/3 461/2/3
f 464/2/3 462/2/3 463/2/3
f 465/1/3 464/1/3 463/1/3
f 466/1/3 464/1/3 465/1/3
f 467/2/3 466/2/3 465/2/3
f 468/2/3 466/2/3 467/2/3
f 469/1/3 468/1/3 467/1/3
f 470/1/3 468/1/3 469/1/3
f 471/2/3 470/2/3 469/2/3
f 472/2/3 470/2/3 471/2/3
f 473/1/3 472/1/3 471/1/3
f 474/1/3 472/1/3 473/1/3
f 475/2/3 474/2/3 473/2/3
f 476/2/3 474/2/3 475/2/3
f 479/2/3 478/2/3 477/2/3
f 480/2/3 478/2/3 479/2/3
f 483/2/3 482/2/3 481/2/3
f 484/2/3 482/2/3 483/2/3
f 485/2/3 482/2/3 484/2/3
f 487/1/3 485/1/3 484/1/3
f 488/1/3 487/1/3 486/1/3
f 489/2/3 482/2/3 485/2/3
f 489/1/3 487/1/3 488/1/3
f 489/1/3 485/1/3 487/1/3
f 490/2/3 489/2/3 488/2/3
f 491/2/3 489/2/3 490/2/3
f 493/2/3 489/2/3 491/2/3
f 495/1/3 493/1/3 492/1/3
f 496/2/3 489/2/3 493/2/3
f 496/1/3 493/1/3 495/1/3
f 497/2/3 495/2/3 494/2/3
f 497/2/3 496/2/3 495/2/3
f 498/2/3 496/2/3 497/2/3
f 499/2/3 496/2/3 498/2/3
f 500/2/3 482/2/3 489/2/3
f 500/2/3 496/2/3 499/2/3
f 500/2/3 489/2/3 496/2/3
f 501/2/4 502/2/4 503/2/4
f 503/2/4 502/2/4 504/2/4
f 504/2/4 502/2/4 505/2/4
f 504/1/4 505/1/4 507/1/4
f 506/1/4 507/1/4 508/1/4
f 505/2/4 502/2/4 509/2/4
f 508/1/4 507/1/4 509/1/4
f 507/1/4 505/1/4 509/1/4
f 508/2/4 509/2/4 510/2/4
f 510/2/4 509/2/4 511/2/4
f 511/2/4 509/2/4 513/2/4
f 512/1/4 513/1/4 515/1/4
f 513/2/4 509/2/4 516/2/4
f 515/1/4 513/1/4 516/1/4
f 514/2/4 515/2/4 517/2/4
f 515/2/4 516/2/4 517/2/4
f 517/2/4 516/2/4 518/2/4
f 518/2/4 516/2/4 519/2/4
f 509/2/4 502/2/4 520/2/4
f 519/2/4 516/2/4 520/2/4
f 516/2/4 509/2/4 520/2/4
f 521/2/4 522/2/4 523/2/4
f 523/2/4 522/2/4 524/2/4
f 525/2/4 526/2/4 527/2/4
f 527/2/4 526/2/4 528/2/4
f 527/1/4 528/1/4 529/1/4
f 529/1/4 528/1/4 530/1/4
f 529/2/4 530/2/4 531/2/4
f 531/2/4 530/2/4 532/2/4
f 531/1/4 532/1/4 533/1/4
f 533/1/4 532/1/4 534/1/4
f 533/2/4 534/2/4 535/2/4
f 535/2/4 534/2/4 536/2/4
f 535/1/4 536/1/4 537/1/4
f 537/1/4 536/1/4 538/1/4
f 537/2/4 538/2/4 539/2/4
f 539/2/4 538/2/4 540/2/4
f 541/2/4 542/2/4 543/2/4
f 543/2/4 542/2/4 544/2/4
f 544/2/4 542/2/4 545/2/4
f 546/2/4 547/2/4 548/2/4
f 548/2/4 547/2/4 549/2/4
f 550/2/4 551/2/4 552/2/4
f 552/2/4 551/2/4 553/2/4
f 553/2/4 551/2/4 554/2/4
f 553/1/4 554/1/4 555/1/4
f 555/1/4 554/1/4 556/1/4
f 557/1/4 558/1/4 559/1/4
f 559/1/4 558/1/4 560/1/4
f 561/2/4 562/2/4 563/2/4
f 563/2/4 562/2/4 564/2/4
f 563/1/4 564/1/4 565/1/4
f 565/1/4 564/1/4 566/1/4
f 565/2/4 566/2/4 567/2/4
f 567/2/4 566/2/4 568/2/4
f 568/2/4 566/2/4 569/2/4
f 569/2/4 566/2/4 570/2/4
f 569/1/4 570/1/4 571/1/4
f 571/1/4 570/1/4 572/1/4
f 571/2/4 572/2/4 573/2/4
f 573/2/4 572/2/4 574/2/4
f 575/2/4 576/2/4 579/2/4
f 577/2/4 578/2/4 580/2/4
f 575/2/4 579/2/4 581/2/4
f 581/2/4 579/2/4 582/2/4
f 580/2/4 578/2/4 583/2/4
f 583/2/4 578/2/4 584/2/4
f 585/2/4 586/2/4 589/2/4
f 589/2/4 586/2/4 590/2/4
f 587/2/4 588/2/4 591/2/4
f 591/2/4 588/2/4 592/2/4
f 591/1/4 592/1/4 593/1/4
f 593/1/4 592/1/4 594/1/4
f 595/2/4 596/2/4 597/2/4
f 597/2/4 596/2/4 598/2/4
f 597/1/4 598/1/4 599/1/4
f 599/1/4 598/1/4 600/1/4
f 600/1/4 598/1/4 601/1/4
f 600/2/4 601/2/4 602/2/4
f 602/2/4 601/2/4 603/2/4
f 603/2/4 601/2/4 604/2/4
f 603/1/4 604/1/4 605/1/4
f 605/1/4 604/1/4 606/1/4
f 605/2/4 606/2/4 607/2/4
f 607/2/4 606/2/4 608/2/4
f 608/2/4 606/2/4 609/2/4
f 609/2/4 606/2/4 610/2/4
f 611/2/4 612/2/4 615/2/4
f 615/2/4 612/2/4 616/2/4
f 615/2/4 616/2/4 617/2/4
f 617/2/4 616/2/4 618/2/4
f 613/2/4 614/2/4 619/2/4
f 619/2/4 614/2/4 620/2/4
f 617/1/4 618/1/4 621/1/4
f 619/1/4 620/1/4 622/1/4
f 620/2/4 614/2/4 623/2/4
f 622/1/4 620/1/4 623/1/4
f 621/1/4 618/1/4 624/1/4
f 624/1/4 618/1/4 625/1/4
f 622/2/4 623/2/4 626/2/4
f 623/2/4 614/2/4 627/2/4
f 626/2/4 623/2/4 627/2/4
f 627/2/4 614/2/4 628/2/4
f 626/2/4 627/2/4 629/2/4
f 627/1/4 628/1/4 629/1/4
f 629/1/4 628/1/4 630/1/4
f 624/2/4 625/2/4 631/2/4
f 626/2/4 629/2/4 632/2/4
f 629/2/4 630/2/4 632/2/4
f 632/2/4 630/2/4 633/2/4
f 633/2/4 630/2/4 634/2/4
f 624/2/4 631/2/4 635/2/4
f 635/2/4 631/2/4 636/2/4
f 633/1/4 634/1/4 638/1/4
f 637/1/4 638/1/4 639/1/4
f 638/1/4 634/1/4 639/1/4
f 639/1/4 634/1/4 640/1/4
f 637/1/4 639/1/4 642/1/4
f 641/1/4 642/1/4 643/1/4
f 639/2/4 640/2/4 644/2/4
f 643/1/4 642/1/4 644/1/4
f 642/1/4 639/1/4 644/1/4
f 643/2/4 644/2/4 645/2/4
f 645/2/4 644/2/4 646/2/4
f 644/2/4 640/2/4 647/2/4
f 646/2/4 644/2/4 647/2/4
f 646/1/4 647/1/4 649/1/4
f 649/1/4 647/1/4 650/1/4
f 650/1/4 647/1/4 651/1/4
f 648/1/4 649/1/4 653/1/4
f 649/1/4 650/1/4 653/1/4
f 650/2/4 651/2/4 654/2/4
f 653/1/4 650/1/4 654/1/4
f 652/2/4 653/2/4 655/2/4
f 653/2/4 654/2/4 655/2/4
f 655/2/4 654/2/4 656/2/4
f 656/2/4 654/2/4 657/2/4
f 654/2/4 651/2/4 658/2/4
f 657/2/4 654/2/4 658/2/4
f 658/2/4 651/2/4 659/2/4
f 659/2/4 651/2/4 660/2/4
f 661/2/4 662/2/4 663/2/4
f 663/2/4 662/2/4 664/2/4
f 663/1/4 664/1/4 667/1/4
f 667/1/4 664/1/4 668/1/4
f 665/2/4 666/2/4 669/2/4
f 669/2/4 666/2/4 670/2/4
f 669/1/4 670/1/4 671/1/4
f 670/2/4 666/2/4 672/2/4
f 671/1/4 670/1/4 672/1/4
f 667/2/4 668/2/4 673/2/4
f 673/2/4 668/2/4 674/2/4
f 671/2/4 672/2/4 675/2/4
f 672/2/4 666/2/4 676/2/4
f 675/2/4 672/2/4 676/2/4
f 675/1/4 676/1/4 677/1/4
f 677/1/4 676/1/4 678/1/4
f 677/2/4 678/2/4 679/2/4
f 679/2/4 678/2/4 680/2/4
f 685/2/5 682/2/5 681/2/5
f 685/1/5 683/1/5 682/1/5
f 686/2/5 684/2/5 683/2/5
f 686/1/5 683/1/5 685/1/5
f 688/2/5 685/2/5 681/2/5
f 688/2/5 686/2/5 685/2/5
f 689/2/5 688/2/5 687/2/5
f 690/2/5 688/2/5 689/2/5
f 691/1/5 690/1/5 689/1/5
f 692/2/5 688/2/5 690/2/5
f 692/1/5 690/1/5 691/1/5
f 693/2/5 692/2/5 691/2/5
f 694/2/5 688/2/5 692/2/5
f 694/2/5 692/2/5 693/2/5
f 695/1/5 694/1/5 693/1/5
f 696/2/5 688/2/5 694/2/5
f 696/1/5 694/1/5 695/1/5
f 697/2/5 696/2/5 695/2/5
f 698/2/5 688/2/5 696/2/5
f 698/2/5 696/2/5 697/2/5
f 699/1/5 698/1/5 697/1/5
f 700/2/5 688/2/5 698/2/5
f 700/1/5 698/1/5 699/1/5
f 701/2/5 700/2/5 699/2/5
f 702/2/5 688/2/5 700/2/5
f 702/2/5 700/2/5 701/2/5
f 703/1/5 702/1/5 701/1/5
f 704/2/5 688/2/5 702/2/5
f 704/1/5 702/1/5 703/1/5
f 705/2/5 704/2/5 703/2/5
f 706/2/5 688/2/5 704/2/5
f 706/2/5 704/2/5 705/2/5
f 707/1/5 706/1/5 705/1/5
f 708/2/5 688/2/5 706/2/5
f 708/1/5 706/1/5 707/1/5
f 709/2/5 708/2/5 707/2/5
f 710/2/5 688/2/5 708/2/5
f 710/2/5 708/2/5 709/2/5
f 711/1/5 710/1/5 709/1/5
f 712/2/5 688/2/5 710/2/5
f 712/1/5 710/1/5 711/1/5
f 713/2/5 712/2/5 711/2/5
f 714/2/5 686/2/5 688/2/5
f 714/2/5 712/2/5 713/2/5
f 714/2/5 688/2/5 712/2/5
f 715/2/5 686/2/5 714/2/5
f 716/2/5 684/2/5 686/2/5
f 716/2/5 686/2/5 715/2/5
f 717/2/5 715/2/5 714/2/5
f 718/1/5 716/1/5 715/1/5
f 718/2/5 715/2/5 717/2/5
f 719/2/5 684/2/5 716/2/5
f 719/1/5 716/1/5 718/1/5
f 720/2/5 684/2/5 719/2/5
f 727/1/5 722/1/5 721/1/5
f 728/2/5 723/2/5 722/2/5
f 728/1/5 722/1/5 727/1/5
f 729/2/5 728/2/5 727/2/5
f 729/2/5 723/2/5 728/2/5
f 730/2/5 723/2/5 729/2/5
f 731/1/5 725/1/5 724/1/5
f 732/2/5 726/2/5 725/2/5
f 732/1/5 725/1/5 731/1/5
f 733/2/5 726/2/5 732/2/5
f 734/2/5 729/2/5 727/2/5
f 739/2/5 734/2/5 727/2/5
f 739/2/5 735/2/5 734/2/5
f 740/2/5 735/2/5 739/2/5
f 741/1/5 740/1/5 739/1/5
f 742/2/5 735/2/5 740/2/5
f 742/1/5 740/1/5 741/1/5
f 743/2/5 735/2/5 742/2/5
f 744/1/5 737/1/5 736/1/5
f 745/2/5 738/2/5 737/2/5
f 745/1/5 737/1/5 744/1/5
f 746/2/5 738/2/5 745/2/5
f 749/2/5 748/2/5 747/2/5
f 750/2/5 748/2/5 749/2/5
f 753/2/5 752/2/5 751/2/5
f 754/2/5 752/2/5 753/2/5
f 761/2/5 756/2/5 755/2/5
f 762/1/5 757/1/5 756/1/5
f 762/2/5 756/2/5 761/2/5
f 763/2/5 758/2/5 757/2/5
f 763/1/5 757/1/5 762/1/5
f 764/1/5 759/1/5 758/1/5
f 764/2/5 758/2/5 763/2/5
f 765/2/5 760/2/5 759/2/5
f 765/1/5 759/1/5 764/1/5
f 766/2/5 760/2/5 765/2/5
f 770/2/5 768/2/5 767/2/5
f 771/1/5 769/1/5 768/1/5
f 771/2/5 768/2/5 770/2/5
f 772/1/5 769/1/5 771/1/5
f 773/2/5 770/2/5 767/2/5
f 774/2/5 773/2/5 767/2/5
f 775/2/5 773/2/5 774/2/5
f 776/1/5 775/1/5 774/1/5
f 777/1/5 775/1/5 776/1/5
f 778/2/5 777/2/5 776/2/5
f 779/2/5 778/2/5 776/2/5
f 780/2/5 779/2/5 776/2/5
f 781/2/5 779/2/5 780/2/5
f 782/1/5 781/1/5 780/1/5
f 783/1/5 781/1/5 782/1/5
f 784/2/5 783/2/5 782/2/5
f 785/2/5 784/2/5 782/2/5
f 786/2/5 785/2/5 782/2/5
f 787/2/5 785/2/5 786/2/5
f 788/1/5 787/1/5 786/1/5
f 789/1/5 787/1/5 788/1/5
f 790/2/5 789/2/5 788/2/5
f 791/2/5 790/2/5 788/2/5
f 794/2/5 791/2/5 788/2/5
f 794/2/5 792/2/5 791/2/5
f 795/1/5 793/1/5 792/1/5
f 795/2/5 792/2/5 794/2/5
f 796/1/5 793/1/5 795/1/5
f 803/2/5 798/2/5 797/2/5
f 804/1/5 799/1/5 798/1/5
f 804/2/5 798/2/5 803/2/5
f 805/2/5 800/2/5 799/2/5
f 805/1/5 799/1/5 804/1/5
f 806/1/5 801/1/5 800/1/5
f 806/2/5 800/2/5 805/2/5
f 807/2/5 802/2/5 801/2/5
f 807/1/5 801/1/5 806/1/5
f 808/2/5 802/2/5 807/2/5
f 811/1/5 810/1/5 809/1/5
f 812/1/5 810/1/5 811/1/5
f 815/1/5 814/1/5 813/1/5
f 816/1/5 814/1/5 815/1/5
f 819/1/5 818/1/5 817/1/5
f 820/1/5 818/1/5 819/1/5
f 823/1/5 822/1/5 821/1/5
f 824/1/5 822/1/5 823/1/5
f 827/2/5 826/2/5 825/2/5
f 828/2/5 826/2/5 827/2/5
f 831/2/5 830/2/5 829/2/5
f 832/2/5 830/2/5 831/2/5
f 835/1/5 834/1/5 833/1/5
f 836/1/5 834/1/5 835/1/5
f 837/2/5 836/2/5 835/2/5
f 838/2/5 836/2/5 837/2/5
f 841/2/5 840/2/5 839/2/5
f 842/2/5 840/2/5 841/2/5
f 843/1/5 842/1/5 841/1/5
f 844/1/5 842/1/5 843/1/5
f 847/2/5 846/2/5 845/2/5
f 848/2/5 846/2/5 847/2/5
f 851/2/5 850/2/5 849/2/5
f 852/2/5 850/2/5 851/2/5
f 856/2/5 854/2/5 853/2/5
f 856/1/5 855/1/5 854/1/5
f 857/1/5 855/1/5 856/1/5
f 858/2/5 856/2/5 853/2/5
f 858/2/5 857/2/5 856/2/5
f 859/2/5 857/2/5 858/2/5
f 860/2/5 857/2/5 859/2/5
f 861/1/5 859/1/5 858/1/5
f 862/1/5 859/1/5 861/1/5
f 864/2/5 862/2/5 861/2/5
f 864/2/5 863/2/5 862/2/5
f 865/2/5 863/2/5 864/2/5
f 866/2/5 864/2/5 861/2/5
f 867/1/5 865/1/5 864/1/5
f 867/2/5 864/2/5 866/2/5
f 868/1/5 865/1/5 867/1/5
f 872/2/5 870/2/5 869/2/5
f 873/2/5 870/2/5 872/2/5
f 874/2/5 870/2/5 873/2/5
f 875/2/5 872/2/5 871/2/5
f 875/2/5 873/2/5 872/2/5
f 875/1/5 874/1/5 873/1/5
f 876/1/5 874/1/5 875/1/5
f 877/2/5 875/2/5 871/2/5
f 877/2/5 876/2/5 875/2/5
f 878/2/5 876/2/5 877/2/5
f 879/2/5 877/2/5 871/2/5
f 880/1/5 878/1/5 877/1/5
f 880/2/5 877/2/5 879/2/5
f 881/1/5 878/1/5 880/1/5
f 885/2/5 883/2/5 882/2/5
f 885/1/5 884/1/5 883/1/5
f 886/1/5 884/1/5 885/1/5
f 887/2/5 885/2/5 882/2/5
f 887/2/5 886/2/5 885/2/5
f 888/2/5 886/2/5 887/2/5
f 889/2/5 887/2/5 882/2/5
f 890/2/5 887/2/5 889/2/5
f 891/1/5 888/1/5 887/1/5
f 891/2/5 887/2/5 890/2/5
f 892/1/5 888/1/5 891/1/5
f 893/2/5 891/2/5 890/2/5
f 893/2/5 892/2/5 891/2/5
f 894/2/5 892/2/5 893/2/5
f 895/2/6 896/2/6 899/2/6
f 896/1/6 897/1/6 899/1/6
f 897/2/6 898/2/6 900/2/6
f 899/1/6 897/1/6 900/1/6
f 900/2/6 898/2/6 901/2/6
f 901/2/6 898/2/6 902/2/6
f 895/2/6 899/2/6 904/2/6
f 903/2/6 904/2/6 905/2/6
f 904/2/6 899/2/6 906/2/6
f 905/2/6 904/2/6 906/2/6
f 903/2/6 905/2/6 907/2/6
f 903/2/6 907/2/6 908/2/6
f 903/2/6 908/2/6 909/2/6
f 903/2/6 909/2/6 910/2/6
f 903/2/6 910/2/6 911/2/6
f 911/2/6 910/2/6 912/2/6
f 911/1/6 912/1/6 913/1/6
f 913/1/6 912/1/6 914/1/6
f 913/2/6 914/2/6 915/2/6
f 915/2/6 914/2/6 916/2/6
f 915/1/6 916/1/6 917/1/6
f 917/1/6 916/1/6 918/1/6
f 917/2/6 918/2/6 919/2/6
f 917/2/6 919/2/6 920/2/6
f 917/2/6 920/2/6 921/2/6
f 917/2/6 921/2/6 922/2/6
f 917/2/6 922/2/6 923/2/6
f 917/2/6 923/2/6 925/2/6
f 923/2/6 924/2/6 925/2/6
f 925/2/6 924/2/6 926/2/6
f 926/2/6 924/2/6 927/2/6
f 926/2/6 927/2/6 931/2/6
f 927/1/6 928/1/6 932/1/6
f 931/2/6 927/2/6 932/2/6
f 929/2/6 930/2/6 933/2/6
f 932/1/6 928/1/6 933/1/6
f 928/2/6 929/2/6 933/2/6
f 933/2/6 930/2/6 934/2/6
f 935/2/6 936/2/6 939/2/6
f 939/2/6 936/2/6 940/2/6
f 940/2/6 936/2/6 941/2/6
f 936/1/6 937/1/6 942/1/6
f 941/2/6 936/2/6 942/2/6
f 937/2/6 938/2/6 943/2/6
f 942/1/6 937/1/6 943/1/6
f 943/2/6 938/2/6 944/2/6
f 944/2/6 938/2/6 945/2/6
f 946/2/6 947/2/6 949/2/6
f 947/1/6 948/1/6 950/1/6
f 949/2/6 947/2/6 950/2/6
f 950/1/6 948/1/6 951/1/6
f 946/2/6 949/2/6 952/2/6
f 946/2/6 952/2/6 953/2/6
f 946/2/6 953/2/6 954/2/6
f 954/2/6 953/2/6 955/2/6
f 954/1/6 955/1/6 956/1/6
f 956/1/6 955/1/6 957/1/6
f 956/2/6 957/2/6 958/2/6
f 956/2/6 958/2/6 959/2/6
f 956/2/6 959/2/6 960/2/6
f 960/2/6 959/2/6 961/2/6
f 960/1/6 961/1/6 962/1/6
f 962/1/6 961/1/6 963/1/6
f 962/2/6 963/2/6 964/2/6
f 962/2/6 964/2/6 965/2/6
f 962/2/6 965/2/6 966/2/6
f 966/2/6 965/2/6 967/2/6
f 966/1/6 967/1/6 968/1/6
f 968/1/6 967/1/6 969/1/6
f 968/2/6 969/2/6 970/2/6
f 968/2/6 970/2/6 971/2/6
f 968/2/6 971/2/6 972/2/6
f 968/2/6 972/2/6 975/2/6
f 972/2/6 973/2/6 975/2/6
f 973/1/6 974/1/6 976/1/6
f 975/2/6 973/2/6 976/2/6
f 976/1/6 974/1/6 977/1/6
f 978/2/6 979/2/6 985/2/6
f 979/2/6 980/2/6 985/2/6
f 980/2/6 981/2/6 985/2/6
f 981/1/6 982/1/6 986/1/6
f 985/2/6 981/2/6 986/2/6
f 983/2/6 984/2/6 987/2/6
f 986/1/6 982/1/6 987/1/6
f 982/2/6 983/2/6 987/2/6
f 987/2/6 984/2/6 988/2/6
f 989/2/6 990/2/6 991/2/6
f 991/2/6 990/2/6 992/2/6
f 993/2/6 994/2/6 995/2/6
f 995/2/6 994/2/6 996/2/6
f 997/2/6 998/2/6 1005/2/6
f 1005/2/6 998/2/6 1006/2/6
f 998/1/6 999/1/6 1007/1/6
f 1006/2/6 998/2/6 1007/2/6
f 999/2/6 1000/2/6 1008/2/6
f 1007/1/6 999/1/6 1008/1/6
f 1000/1/6 1001/1/6 1009/1/6
f 1008/2/6 1000/2/6 1009/2/6
f 1009/1/6 1001/1/6 1010/1/6
f 1001/2/6 1002/2/6 1011/2/6
f 1010/1/6 1001/1/6 1011/1/6
f 1002/1/6 1003/1/6 1012/1/6
f 1011/2/6 1002/2/6 1012/2/6
f 1003/2/6 1004/2/6 1013/2/6
f 1012/1/6 1003/1/6 1013/1/6
f 1013/2/6 1004/2/6 1014/2/6
f 1015/2/6 1016/2/6 1025/2/6
f 1016/2/6 1017/2/6 1025/2/6
f 1017/1/6 1018/1/6 1026/1/6
f 1025/2/6 1017/2/6 1026/2/6
f 1018/2/6 1019/2/6 1027/2/6
f 1026/1/6 1018/1/6 1027/1/6
f 1019/1/6 1020/1/6 1028/1/6
f 1027/2/6 1019/2/6 1028/2/6
f 1020/1/6 1021/1/6 1028/1/6
f 1021/2/6 1022/2/6 1029/2/6
f 1028/1/6 1021/1/6 1029/1/6
f 1022/1/6 1023/1/6 1030/1/6
f 1029/2/6 1022/2/6 1030/2/6
f 1023/2/6 1024/2/6 1031/2/6
f 1030/1/6 1023/1/6 1031/1/6
f 1031/2/6 1024/2/6 1032/2/6
f 1033/2/6 1034/2/6 1035/2/6
f 1035/2/6 1034/2/6 1036/2/6
f 1037/2/6 1038/2/6 1039/2/6
f 1039/2/6 1038/2/6 1040/2/6
f 1041/1/6 1042/1/6 1044/1/6
f 1042/2/6 1043/2/6 1045/2/6
f 1044/1/6 1042/1/6 1045/1/6
f 1045/2/6 1043/2/6 1046/2/6
f 1047/2/6 1048/2/6 1053/2/6
f 1048/1/6 1049/1/6 1054/1/6
f 1053/2/6 1048/2/6 1054/2/6
f 1049/2/6 1050/2/6 1055/2/6
f 1054/1/6 1049/1/6 1055/1/6
f 1050/1/6 1051/1/6 1056/1/6
f 1055/2/6 1050/2/6 1056/2/6
f 1051/2/6 1052/2/6 1057/2/6
f 1056/1/6 1051/1/6 1057/1/6
f 1057/2/6 1052/2/6 1058/2/6
f 1058/2/6 1052/2/6 1059/2/6
f 1059/2/6 1052/2/6 1060/2/6
f 1061/1/6 1062/1/6 1063/1/6
f 1063/1/6 1062/1/6 1064/1/6
f 1063/2/6 1064/2/6 1065/2/6
f 1060/2/6 1052/2/6 1072/2/6
f 1070/2/6 1071/2/6 1073/2/6
f 1071/2/6 1072/2/6 1073/2/6
f 1063/2/6 1065/2/6 1073/2/6
f 1065/2/6 1066/2/6 1073/2/6
f 1069/2/6 1070/2/6 1073/2/6
f 1068/2/6 1069/2/6 1073/2/6
f 1067/2/6 1068/2/6 1073/2/6
f 1066/2/6 1067/2/6 1073/2/6
f 1072/2/6 1052/2/6 1074/2/6
f 1073/2/6 1072/2/6 1074/2/6
f 1075/2/6 1076/2/6 1077/2/6
f 1077/2/6 1076/2/6 1078/2/6
f 1078/2/6 1076/2/6 1079/2/6
f 1079/2/6 1076/2/6 1080/2/6
f 1080/2/6 1076/2/6 1081/2/6
f 1081/2/6 1076/2/6 1082/2/6
f 1082/2/6 1076/2/6 1083/2/6
f 1083/2/6 1076/2/6 1084/2/6
f 1075/2/6 1077/2/6 1085/2/6
f 1085/2/6 1077/2/6 1086/2/6
f 1085/1/6 1086/1/6 1087/1/6
f 1087/1/6 1086/1/6 1088/1/6
f 1084/2/6 1076/2/6 1096/2/6
f 1089/2/6 1090/2/6 1097/2/6
f 1090/1/6 1091/1/6 1098/1/6
f 1097/2/6 1090/2/6 1098/2/6
f 1091/2/6 1092/2/6 1099/2/6
f 1098/1/6 1091/1/6 1099/1/6
f 1092/1/6 1093/1/6 1100/1/6
f 1099/2/6 1092/2/6 1100/2/6
f 1094/2/6 1095/2/6 1101/2/6
f 1100/1/6 1093/1/6 1101/1/6
f 1095/2/6 1096/2/6 1101/2/6
f 1093/2/6 1094/2/6 1101/2/6
f 1096/2/6 1076/2/6 1102/2/6
f 1101/2/6 1096/2/6 1102/2/6
f 1105/2/6 1106/2/6 1109/2/6
f 1109/2/6 1106/2/6 1110/2/6
f 1106/1/6 1107/1/6 1111/1/6
f 1107/2/6 1108/2/6 1112/2/6
f 1111/1/6 1107/1/6 1112/1/6
f 1103/2/6 1104/2/6 1113/2/6
f 1104/1/6 1105/1/6 1114/1/6
f 1113/2/6 1104/2/6 1114/2/6
f 1105/2/6 1109/2/6 1115/2/6
f 1114/1/6 1105/1/6 1115/1/6
f 1109/1/6 1110/1/6 1116/1/6
f 1115/2/6 1109/2/6 1116/2/6
f 1110/2/6 1106/2/6 1117/2/6
f 1116/1/6 1110/1/6 1117/1/6
f 1106/1/6 1111/1/6 1118/1/6
f 1117/2/6 1106/2/6 1118/2/6
f 1111/2/6 1112/2/6 1119/2/6
f 1118/1/6 1111/1/6 1119/1/6
f 1112/2/6 1108/2/6 1120/2/6
f 1119/2/6 1112/2/6 1120/2/6
f 1126/1/6 1127/1/6 1129/1/6
f 1127/2/6 1128/2/6 1129/2/6
f 1129/2/6 1128/2/6 1130/2/6
f 1123/2/6 1124/2/6 1131/2/6
f 1124/1/6 1125/1/6 1131/1/6
f 1125/2/6 1126/2/6 1132/2/6
f 1131/1/6 1125/1/6 1132/1/6
f 1121/2/6 1122/2/6 1133/2/6
f 1122/1/6 1123/1/6 1134/1/6
f 1133/2/6 1122/2/6 1134/2/6
f 1123/2/6 1131/2/6 1135/2/6
f 1134/1/6 1123/1/6 1135/1/6
f 1131/2/6 1132/2/6 1135/2/6
f 1132/2/6 1126/2/6 1136/2/6
f 1135/2/6 1132/2/6 1136/2/6
f 1129/1/6 1130/1/6 1136/1/6
f 1126/1/6 1129/1/6 1136/1/6
f 1130/2/6 1128/2/6 1137/2/6
f 1136/1/6 1130/1/6 1137/1/6
f 1137/2/6 1128/2/6 1138/2/6
