# MagicaVoxel @ Ephtracy

# group
o 

# material
mtllib model.mtl
usemtl palette

# normals
vn 0 0 1
vn 0 0 -1
vn 1 0 0
vn -1 0 0
vn 0 -1 0
vn 0 1 0

# texcoords
vt 0.0214844 0.5
vt 0.0292969 0.5
vt 0.572266 0.5

# verts
v 1.1 0.2 1.8
v -1.1 0.2 1.8
v 0.9 0.5 1.8
v -0.9 0.5 1.8
v 1.1 1.2 1.8
v 0.9 1.2 1.8
v -0.9 1.2 1.8
v -1.1 1.2 1.8
v 1.1 0 1.3
v -1.1 0 1.3
v 1.1 0.2 1.3
v -1.1 0.2 1.3
v 1.1 1.2 1.1
v 0.9 1.2 1.1
v -0.9 1.2 1.1
v -1.1 1.2 1.1
v 1.1 1.9 1.1
v 0.9 1.9 1.1
v -0.9 1.9 1.1
v -1.1 1.9 1.1
v 0.9 0.5 1
v -0.9 0.5 1
v 0.9 1.1 1
v -0.9 1.1 1
v 0.9 0.5 -1
v -0.9 0.5 -1
v 0.9 1.1 -1
v -0.9 1.1 -1
v 1.1 1.2 -1.1
v 0.9 1.2 -1.1
v -0.9 1.2 -1.1
v -1.1 1.2 -1.1
v 1.1 1.9 -1.1
v 0.9 1.9 -1.1
v -0.9 1.9 -1.1
v -1.1 1.9 -1.1
v 1.1 0 -1.3
v -1.1 0 -1.3
v 1.1 0.2 -1.3
v -1.1 0.2 -1.3
v 1.1 0.2 -1.8
v -1.1 0.2 -1.8
v 0.9 0.5 -1.8
v -0.9 0.5 -1.8
v 1.1 1.2 -1.8
v 0.9 1.2 -1.8
v -0.9 1.2 -1.8
v -1.1 1.2 -1.8
v 1.1 0.2 1.8
v 1.1 1.2 1.8
v 1.1 0.3 1.7
v 1.1 1.1 1.7
v 1.1 0 1.3
v 1.1 0.2 1.3
v 1.1 0.1 1.2
v 1.1 0.3 1.2
v 1.1 1.2 1.1
v 1.1 1.9 1.1
v 1.1 1.1 1
v 1.1 1.8 1
v 1.1 0.6 0.7
v 1.1 1.4 0.7
v 1.1 0.8 0.6
v 1.1 1.1 0.6
v 1.1 1.4 0.6
v 1.1 1.5 0.6
v 1.1 0.4 0.5
v 1.1 0.6 0.5
v 1.1 0.8 0.5
v 1.1 0.9 0.5
v 1.1 1.1 0.5
v 1.1 1.2 0.5
v 1.1 1.5 0.5
v 1.1 1.6 0.5
v 1.1 0.3 0.4
v 1.1 0.4 0.4
v 1.1 0.3 0.2
v 1.1 0.4 0.2
v 1.1 0.8 0.2
v 1.1 0.9 0.2
v 1.1 0.3 0.1
v 1.1 0.4 0.1
v 1.1 0.6 0.1
v 1.1 0.7 0.1
v 1.1 0.8 0.1
v 1.1 1.2 0.1
v 1.1 0.3 -0.0999999
v 1.1 0.4 -0.0999999
v 1.1 0.6 -0.0999999
v 1.1 0.7 -0.0999999
v 1.1 0.8 -0.0999999
v 1.1 1.2 -0.0999999
v 1.1 0.3 -0.2
v 1.1 0.4 -0.2
v 1.1 0.8 -0.2
v 1.1 0.9 -0.2
v 1.1 0.3 -0.4
v 1.1 0.4 -0.4
v 1.1 0.4 -0.5
v 1.1 0.6 -0.5
v 1.1 0.8 -0.5
v 1.1 0.9 -0.5
v 1.1 1.1 -0.5
v 1.1 1.2 -0.5
v 1.1 1.5 -0.5
v 1.1 1.6 -0.5
v 1.1 0.8 -0.6
v 1.1 1.1 -0.6
v 1.1 1.4 -0.6
v 1.1 1.5 -0.6
v 1.1 0.6 -0.7
v 1.1 1.4 -0.7
v 1.1 1.1 -1
v 1.1 1.8 -1
v 1.1 1.2 -1.1
v 1.1 1.9 -1.1
v 1.1 0.1 -1.2
v 1.1 0.3 -1.2
v 1.1 0 -1.3
v 1.1 0.2 -1.3
v 1.1 0.3 -1.7
v 1.1 1.1 -1.7
v 1.1 0.2 -1.8
v 1.1 1.2 -1.8
v -0.9 0.5 1.8
v -0.9 1.2 1.8
v -0.9 0.5 1.7
v -0.9 1.1 1.7
v -0.9 1.2 1.1
v -0.9 1.9 1.1
v -0.9 0.5 1
v -0.9 1.1 1
v -0.9 1.8 1
v -0.9 0.5 -1
v -0.9 1.1 -1
v -0.9 1.8 -1
v -0.9 1.2 -1.1
v -0.9 1.9 -1.1
v -0.9 0.5 -1.7
v -0.9 1.1 -1.7
v -0.9 0.5 -1.8
v -0.9 1.2 -1.8
v 0.9 0.5 1.8
v 0.9 1.2 1.8
v 0.9 0.5 1.7
v 0.9 1.1 1.7
v 0.9 1.2 1.1
v 0.9 1.9 1.1
v 0.9 0.5 1
v 0.9 1.1 1
v 0.9 1.8 1
v 0.9 0.5 -1
v 0.9 1.1 -1
v 0.9 1.8 -1
v 0.9 1.2 -1.1
v 0.9 1.9 -1.1
v 0.9 0.5 -1.7
v 0.9 1.1 -1.7
v 0.9 0.5 -1.8
v 0.9 1.2 -1.8
v -1.1 0.2 1.8
v -1.1 1.2 1.8
v -1.1 0.3 1.7
v -1.1 1.1 1.7
v -1.1 0 1.3
v -1.1 0.2 1.3
v -1.1 0.1 1.2
v -1.1 0.3 1.2
v -1.1 1.2 1.1
v -1.1 1.9 1.1
v -1.1 1.1 1
v -1.1 1.8 1
v -1.1 1.1 -1
v -1.1 1.8 -1
v -1.1 1.2 -1.1
v -1.1 1.9 -1.1
v -1.1 0.1 -1.2
v -1.1 0.3 -1.2
v -1.1 0 -1.3
v -1.1 0.2 -1.3
v -1.1 0.3 -1.7
v -1.1 1.1 -1.7
v -1.1 0.2 -1.8
v -1.1 1.2 -1.8
v 1.1 0 1.3
v 1.1 0 -1.3
v -1.1 0 1.3
v -1.1 0 -1.3
v 1.1 0.2 1.8
v 1.1 0.2 1.3
v 1.1 0.2 -1.3
v 1.1 0.2 -1.8
v -1.1 0.2 1.8
v -1.1 0.2 1.3
v -1.1 0.2 -1.3
v -1.1 0.2 -1.8
v 0.9 0.5 1.8
v 0.9 0.5 1.7
v 0.9 0.5 1
v 0.9 0.5 -1
v 0.9 0.5 -1.7
v 0.9 0.5 -1.8
v -0.9 0.5 1.8
v -0.9 0.5 1.7
v -0.9 0.5 1
v -0.9 0.5 -1
v -0.9 0.5 -1.7
v -0.9 0.5 -1.8
v 0.9 1.1 1
v 0.9 1.1 -1
v -0.9 1.1 1
v -0.9 1.1 -1
v 1.1 1.2 1.8
v 1.1 1.2 1.1
v 1.1 1.2 -1.1
v 1.1 1.2 -1.8
v 0.9 1.2 1.8
v 0.9 1.2 1.1
v 0.9 1.2 -1.1
v 0.9 1.2 -1.8
v -0.9 1.2 1.8
v -0.9 1.2 1.1
v -0.9 1.2 -1.1
v -0.9 1.2 -1.8
v -1.1 1.2 1.8
v -1.1 1.2 1.1
v -1.1 1.2 -1.1
v -1.1 1.2 -1.8
v 1.1 1.9 1.1
v 1.1 1.9 -1.1
v 0.9 1.9 1.1
v 0.9 1.9 -1.1
v -0.9 1.9 1.1
v -0.9 1.9 -1.1
v -1.1 1.9 1.1
v -1.1 1.9 -1.1

# faces
f 3/1/1 2/1/1 1/1/1
f 4/1/1 2/1/1 3/1/1
f 5/1/1 3/1/1 1/1/1
f 6/1/1 3/1/1 5/1/1
f 7/1/1 2/1/1 4/1/1
f 8/1/1 2/1/1 7/1/1
f 11/1/1 10/1/1 9/1/1
f 12/1/1 10/1/1 11/1/1
f 17/1/1 14/1/1 13/1/1
f 18/1/1 14/1/1 17/1/1
f 19/1/1 16/1/1 15/1/1
f 20/1/1 16/1/1 19/1/1
f 23/2/1 22/2/1 21/2/1
f 24/2/1 22/2/1 23/2/1
f 25/2/2 26/2/2 27/2/2
f 27/2/2 26/2/2 28/2/2
f 29/1/2 30/1/2 33/1/2
f 33/1/2 30/1/2 34/1/2
f 31/1/2 32/1/2 35/1/2
f 35/1/2 32/1/2 36/1/2
f 37/1/2 38/1/2 39/1/2
f 39/1/2 38/1/2 40/1/2
f 41/1/2 42/1/2 43/1/2
f 43/1/2 42/1/2 44/1/2
f 41/1/2 43/1/2 45/1/2
f 45/1/2 43/1/2 46/1/2
f 44/1/2 42/1/2 47/1/2
f 47/1/2 42/1/2 48/1/2
f 51/1/3 50/1/3 49/1/3
f 52/1/3 50/1/3 51/1/3
f 54/1/3 51/1/3 49/1/3
f 55/1/3 54/1/3 53/1/3
f 56/2/3 52/2/3 51/2/3
f 56/1/3 54/1/3 55/1/3
f 56/1/3 51/1/3 54/1/3
f 57/1/3 50/1/3 52/1/3
f 59/2/3 52/2/3 56/2/3
f 59/1/3 58/1/3 57/1/3
f 59/1/3 57/1/3 52/1/3
f 59/2/3 56/2/3 55/2/3
f 60/1/3 58/1/3 59/1/3
f 61/2/3 59/2/3 55/2/3
f 61/2/3 60/2/3 59/2/3
f 62/2/3 60/2/3 61/2/3
f 63/3/3 62/3/3 61/3/3
f 64/3/3 62/3/3 63/3/3
f 65/2/3 60/2/3 62/2/3
f 65/3/3 62/3/3 64/3/3
f 66/2/3 60/2/3 65/2/3
f 67/2/3 61/2/3 55/2/3
f 68/3/3 63/3/3 61/3/3
f 68/2/3 61/2/3 67/2/3
f 69/2/3 64/2/3 63/2/3
f 69/3/3 63/3/3 68/3/3
f 70/2/3 64/2/3 69/2/3
f 71/3/3 65/3/3 64/3/3
f 71/2/3 64/2/3 70/2/3
f 71/3/3 66/3/3 65/3/3
f 72/3/3 66/3/3 71/3/3
f 73/2/3 60/2/3 66/2/3
f 73/3/3 66/3/3 72/3/3
f 74/2/3 60/2/3 73/2/3
f 75/2/3 67/2/3 55/2/3
f 76/3/3 68/3/3 67/3/3
f 76/2/3 67/2/3 75/2/3
f 76/3/3 70/3/3 69/3/3
f 76/3/3 69/3/3 68/3/3
f 77/2/3 75/2/3 55/2/3
f 77/3/3 76/3/3 75/3/3
f 78/3/3 70/3/3 76/3/3
f 78/3/3 76/3/3 77/3/3
f 79/3/3 70/3/3 78/3/3
f 80/2/3 72/2/3 71/2/3
f 80/3/3 70/3/3 79/3/3
f 80/2/3 71/2/3 70/2/3
f 81/2/3 77/2/3 55/2/3
f 81/2/3 78/2/3 77/2/3
f 82/3/3 79/3/3 78/3/3
f 82/2/3 78/2/3 81/2/3
f 83/3/3 79/3/3 82/3/3
f 84/3/3 79/3/3 83/3/3
f 85/2/3 80/2/3 79/2/3
f 85/3/3 79/3/3 84/3/3
f 86/2/3 72/2/3 80/2/3
f 86/2/3 80/2/3 85/2/3
f 86/3/3 74/3/3 73/3/3
f 86/3/3 73/3/3 72/3/3
f 87/2/3 81/2/3 55/2/3
f 87/3/3 83/3/3 82/3/3
f 87/3/3 82/3/3 81/3/3
f 88/3/3 83/3/3 87/3/3
f 89/2/3 84/2/3 83/2/3
f 89/3/3 83/3/3 88/3/3
f 90/3/3 85/3/3 84/3/3
f 90/2/3 84/2/3 89/2/3
f 90/3/3 86/3/3 85/3/3
f 91/3/3 86/3/3 90/3/3
f 92/3/3 74/3/3 86/3/3
f 92/3/3 86/3/3 91/3/3
f 93/2/3 87/2/3 55/2/3
f 93/2/3 88/2/3 87/2/3
f 94/3/3 91/3/3 90/3/3
f 94/2/3 88/2/3 93/2/3
f 94/3/3 89/3/3 88/3/3
f 94/3/3 90/3/3 89/3/3
f 95/2/3 92/2/3 91/2/3
f 95/3/3 91/3/3 94/3/3
f 96/2/3 92/2/3 95/2/3
f 97/2/3 93/2/3 55/2/3
f 97/3/3 94/3/3 93/3/3
f 97/3/3 96/3/3 95/3/3
f 97/3/3 95/3/3 94/3/3
f 98/3/3 96/3/3 97/3/3
f 99/2/3 98/2/3 97/2/3
f 99/3/3 96/3/3 98/3/3
f 100/3/3 96/3/3 99/3/3
f 101/3/3 96/3/3 100/3/3
f 102/2/3 92/2/3 96/2/3
f 102/3/3 96/3/3 101/3/3
f 103/2/3 92/2/3 102/2/3
f 104/3/3 74/3/3 92/3/3
f 104/2/3 92/2/3 103/2/3
f 105/3/3 74/3/3 104/3/3
f 106/2/3 60/2/3 74/2/3
f 106/3/3 74/3/3 105/3/3
f 107/3/3 101/3/3 100/3/3
f 107/2/3 103/2/3 102/2/3
f 107/2/3 102/2/3 101/2/3
f 108/3/3 105/3/3 104/3/3
f 108/2/3 103/2/3 107/2/3
f 108/3/3 104/3/3 103/3/3
f 109/3/3 105/3/3 108/3/3
f 110/2/3 106/2/3 105/2/3
f 110/3/3 105/3/3 109/3/3
f 111/3/3 109/3/3 108/3/3
f 111/3/3 107/3/3 100/3/3
f 111/2/3 100/2/3 99/2/3
f 111/3/3 108/3/3 107/3/3
f 112/2/3 110/2/3 109/2/3
f 112/3/3 109/3/3 111/3/3
f 113/2/3 112/2/3 111/2/3
f 114/1/3 58/1/3 60/1/3
f 114/2/3 112/2/3 113/2/3
f 114/2/3 60/2/3 106/2/3
f 114/2/3 110/2/3 112/2/3
f 114/2/3 106/2/3 110/2/3
f 115/1/3 114/1/3 113/1/3
f 116/1/3 58/1/3 114/1/3
f 116/1/3 114/1/3 115/1/3
f 117/1/3 55/1/3 53/1/3
f 117/2/3 113/2/3 111/2/3
f 117/2/3 99/2/3 97/2/3
f 117/2/3 111/2/3 99/2/3
f 117/2/3 97/2/3 55/2/3
f 118/2/3 113/2/3 117/2/3
f 119/1/3 117/1/3 53/1/3
f 119/1/3 118/1/3 117/1/3
f 120/1/3 118/1/3 119/1/3
f 121/2/3 113/2/3 118/2/3
f 121/1/3 118/1/3 120/1/3
f 122/1/3 115/1/3 113/1/3
f 122/2/3 113/2/3 121/2/3
f 123/1/3 121/1/3 120/1/3
f 123/1/3 122/1/3 121/1/3
f 124/1/3 115/1/3 122/1/3
f 124/1/3 122/1/3 123/1/3
f 127/1/3 126/1/3 125/1/3
f 128/1/3 126/1/3 127/1/3
f 129/1/3 126/1/3 128/1/3
f 131/2/3 128/2/3 127/2/3
f 132/1/3 130/1/3 129/1/3
f 132/2/3 128/2/3 131/2/3
f 132/1/3 129/1/3 128/1/3
f 133/1/3 130/1/3 132/1/3
f 135/2/3 133/2/3 132/2/3
f 136/1/3 130/1/3 133/1/3
f 136/2/3 133/2/3 135/2/3
f 137/1/3 136/1/3 135/1/3
f 138/1/3 130/1/3 136/1/3
f 138/1/3 136/1/3 137/1/3
f 139/2/3 135/2/3 134/2/3
f 140/1/3 137/1/3 135/1/3
f 140/2/3 135/2/3 139/2/3
f 141/1/3 140/1/3 139/1/3
f 142/1/3 137/1/3 140/1/3
f 142/1/3 140/1/3 141/1/3
f 143/1/4 144/1/4 145/1/4
f 145/1/4 144/1/4 146/1/4
f 146/1/4 144/1/4 147/1/4
f 145/2/4 146/2/4 149/2/4
f 147/1/4 148/1/4 150/1/4
f 149/2/4 146/2/4 150/2/4
f 146/1/4 147/1/4 150/1/4
f 150/1/4 148/1/4 151/1/4
f 150/2/4 151/2/4 153/2/4
f 151/1/4 148/1/4 154/1/4
f 153/2/4 151/2/4 154/2/4
f 153/1/4 154/1/4 155/1/4
f 154/1/4 148/1/4 156/1/4
f 155/1/4 154/1/4 156/1/4
f 152/2/4 153/2/4 157/2/4
f 153/1/4 155/1/4 158/1/4
f 157/2/4 153/2/4 158/2/4
f 157/1/4 158/1/4 159/1/4
f 158/1/4 155/1/4 160/1/4
f 159/1/4 158/1/4 160/1/4
f 161/1/4 162/1/4 163/1/4
f 163/1/4 162/1/4 164/1/4
f 161/1/4 163/1/4 166/1/4
f 165/1/4 166/1/4 167/1/4
f 163/2/4 164/2/4 168/2/4
f 167/1/4 166/1/4 168/1/4
f 166/1/4 163/1/4 168/1/4
f 164/1/4 162/1/4 169/1/4
f 168/2/4 164/2/4 171/2/4
f 169/1/4 170/1/4 171/1/4
f 164/1/4 169/1/4 171/1/4
f 167/2/4 168/2/4 171/2/4
f 171/1/4 170/1/4 172/1/4
f 167/2/4 171/2/4 173/2/4
f 171/2/4 172/2/4 173/2/4
f 172/1/4 170/1/4 174/1/4
f 173/2/4 172/2/4 174/2/4
f 173/1/4 174/1/4 175/1/4
f 174/1/4 170/1/4 176/1/4
f 175/1/4 174/1/4 176/1/4
f 165/1/4 167/1/4 177/1/4
f 167/2/4 173/2/4 177/2/4
f 177/2/4 173/2/4 178/2/4
f 165/1/4 177/1/4 179/1/4
f 177/1/4 178/1/4 179/1/4
f 179/1/4 178/1/4 180/1/4
f 178/2/4 173/2/4 181/2/4
f 180/1/4 178/1/4 181/1/4
f 173/1/4 175/1/4 182/1/4
f 181/2/4 173/2/4 182/2/4
f 180/1/4 181/1/4 183/1/4
f 181/1/4 182/1/4 183/1/4
f 182/1/4 175/1/4 184/1/4
f 183/1/4 182/1/4 184/1/4
f 187/1/5 186/1/5 185/1/5
f 188/1/5 186/1/5 187/1/5
f 193/1/5 190/1/5 189/1/5
f 194/1/5 190/1/5 193/1/5
f 195/1/5 192/1/5 191/1/5
f 196/1/5 192/1/5 195/1/5
f 197/1/6 198/1/6 203/1/6
f 198/2/6 199/2/6 204/2/6
f 203/1/6 198/1/6 204/1/6
f 204/2/6 199/2/6 205/2/6
f 200/2/6 201/2/6 206/2/6
f 201/1/6 202/1/6 207/1/6
f 206/2/6 201/2/6 207/2/6
f 207/1/6 202/1/6 208/1/6
f 209/2/6 210/2/6 211/2/6
f 211/2/6 210/2/6 212/2/6
f 213/1/6 214/1/6 217/1/6
f 217/1/6 214/1/6 218/1/6
f 215/1/6 216/1/6 219/1/6
f 219/1/6 216/1/6 220/1/6
f 221/1/6 222/1/6 225/1/6
f 225/1/6 222/1/6 226/1/6
f 223/1/6 224/1/6 227/1/6
f 227/1/6 224/1/6 228/1/6
f 229/1/6 230/1/6 231/1/6
f 231/1/6 230/1/6 232/1/6
f 233/1/6 234/1/6 235/1/6
f 235/1/6 234/1/6 236/1/6
