# MagicaVoxel @ Ephtracy

# group
o 

# material
mtllib model-1.mtl
usemtl palette

# normals
vn 0 0 1
vn 0 0 -1
vn 1 0 0
vn -1 0 0
vn 0 -1 0
vn 0 1 0

# texcoords
vt 0.00585938 0.5
vt 0.0136719 0.5
vt 0.0214844 0.5

# verts
v 0.5 0 1
v -0.5 0 1
v 0.5 0.7 1
v -0.5 0.7 1
v 0.6 0.5 0.8
v 0.5 0.5 0.8
v 0.6 0.7 0.8
v 0.5 0.7 0.8
v 0.6 0 0.2
v 0.5 0 0.2
v 0.6 0.7 0.2
v 0.5 0.7 0.2
v 0.7 0.5 -0.7
v 0.6 0.5 -0.7
v 0.7 0.7 -0.7
v 0.6 0.7 -0.7
v 0.6 0.5 0.7
v 0.5 0.5 0.7
v 0.6 0.7 0.7
v 0.5 0.7 0.7
v 0.7 0.5 -0.8
v 0.6 0.5 -0.8
v 0.7 0.7 -0.8
v 0.6 0.7 -0.8
v 0.6 0 -1
v -0.5 0 -1
v 0.6 0.7 -1
v -0.5 0.7 -1
v 0.7 0.5 -0.7
v 0.7 0.7 -0.7
v 0.7 0.5 -0.8
v 0.7 0.7 -0.8
v 0.6 0.5 0.8
v 0.6 0.7 0.8
v 0.6 0.5 0.7
v 0.6 0.7 0.7
v 0.6 0 0.2
v 0.6 0.7 0.2
v 0.6 0 0.1
v 0.6 0.7 0.1
v 0.6 0.2 -0.7
v 0.6 0.5 -0.7
v 0.6 0.7 -0.7
v 0.6 0.2 -0.8
v 0.6 0.5 -0.8
v 0.6 0.7 -0.8
v 0.6 0 -1
v 0.6 0.7 -1
v 0.5 0 1
v 0.5 0.7 1
v 0.5 0.2 0.8
v 0.5 0.5 0.8
v 0.5 0.7 0.8
v 0.5 0.2 0.7
v 0.5 0.5 0.7
v 0.5 0.7 0.7
v 0.5 0 0.2
v 0.5 0.7 0.2
v -0.5 0 1
v -0.5 0.7 1
v -0.5 0 -1
v -0.5 0.7 -1
v 0.6 0 0.2
v 0.6 0 0.1
v 0.6 0 -1
v 0.5 0 1
v 0.5 0 0.2
v 0.5 0 0.1
v -0.5 0 1
v -0.5 0 -1
v 0.7 0.5 -0.7
v 0.7 0.5 -0.8
v 0.6 0.5 0.8
v 0.6 0.5 0.7
v 0.6 0.5 -0.7
v 0.6 0.5 -0.8
v 0.5 0.5 0.8
v 0.5 0.5 0.7
v 0.7 0.7 -0.7
v 0.7 0.7 -0.8
v 0.6 0.7 0.8
v 0.6 0.7 0.7
v 0.6 0.7 0.2
v 0.6 0.7 0.1
v 0.6 0.7 -0.7
v 0.6 0.7 -0.8
v 0.6 0.7 -1
v 0.5 0.7 1
v 0.5 0.7 0.8
v 0.5 0.7 0.7
v 0.5 0.7 0.2
v 0.5 0.7 0.1
v 0.5 0.7 -0.7
v 0.5 0.7 -0.8
v 0.4 0.7 0.8
v 0.4 0.7 0.7
v -0.5 0.7 1
v -0.5 0.7 -1

# faces
f 3/1/1 2/1/1 1/1/1
f 4/1/1 2/1/1 3/1/1
f 7/3/1 6/3/1 5/3/1
f 8/3/1 6/3/1 7/3/1
f 11/2/1 10/2/1 9/2/1
f 12/2/1 10/2/1 11/2/1
f 15/3/1 14/3/1 13/3/1
f 16/3/1 14/3/1 15/3/1
f 17/3/2 18/3/2 19/3/2
f 19/3/2 18/3/2 20/3/2
f 21/3/2 22/3/2 23/3/2
f 23/3/2 22/3/2 24/3/2
f 25/1/2 26/1/2 27/1/2
f 27/1/2 26/1/2 28/1/2
f 31/3/3 30/3/3 29/3/3
f 32/3/3 30/3/3 31/3/3
f 35/3/3 34/3/3 33/3/3
f 36/3/3 34/3/3 35/3/3
f 39/2/3 38/2/3 37/2/3
f 40/2/3 38/2/3 39/2/3
f 41/1/3 40/1/3 39/1/3
f 42/1/3 40/1/3 41/1/3
f 43/1/3 40/1/3 42/1/3
f 44/1/3 41/1/3 39/1/3
f 44/2/3 42/2/3 41/2/3
f 45/2/3 42/2/3 44/2/3
f 47/1/3 44/1/3 39/1/3
f 47/1/3 46/1/3 45/1/3
f 47/1/3 45/1/3 44/1/3
f 48/1/3 46/1/3 47/1/3
f 51/1/3 50/1/3 49/1/3
f 52/1/3 50/1/3 51/1/3
f 53/1/3 50/1/3 52/1/3
f 54/1/3 51/1/3 49/1/3
f 54/2/3 52/2/3 51/2/3
f 55/2/3 52/2/3 54/2/3
f 57/1/3 54/1/3 49/1/3
f 57/1/3 56/1/3 55/1/3
f 57/1/3 55/1/3 54/1/3
f 58/1/3 56/1/3 57/1/3
f 59/1/4 60/1/4 61/1/4
f 61/1/4 60/1/4 62/1/4
f 67/2/5 64/2/5 63/2/5
f 68/1/5 65/1/5 64/1/5
f 68/2/5 64/2/5 67/2/5
f 69/1/5 67/1/5 66/1/5
f 69/1/5 68/1/5 67/1/5
f 70/1/5 65/1/5 68/1/5
f 70/1/5 68/1/5 69/1/5
f 75/3/5 72/3/5 71/3/5
f 76/3/5 72/3/5 75/3/5
f 77/3/5 74/3/5 73/3/5
f 78/3/5 74/3/5 77/3/5
f 79/3/6 80/3/6 85/3/6
f 85/3/6 80/3/6 86/3/6
f 81/3/6 82/3/6 89/3/6
f 89/3/6 82/3/6 90/3/6
f 83/2/6 84/2/6 91/2/6
f 84/1/6 85/1/6 92/1/6
f 91/2/6 84/2/6 92/2/6
f 85/2/6 86/2/6 93/2/6
f 92/1/6 85/1/6 93/1/6
f 86/1/6 87/1/6 94/1/6
f 93/2/6 86/2/6 94/2/6
f 89/2/6 90/2/6 95/2/6
f 88/1/6 89/1/6 95/1/6
f 92/1/6 93/1/6 96/1/6
f 95/2/6 90/2/6 96/2/6
f 90/1/6 91/1/6 96/1/6
f 91/1/6 92/1/6 96/1/6
f 93/1/6 94/1/6 96/1/6
f 88/1/6 95/1/6 97/1/6
f 95/1/6 96/1/6 97/1/6
f 94/1/6 87/1/6 98/1/6
f 97/1/6 96/1/6 98/1/6
f 96/1/6 94/1/6 98/1/6
