# MagicaVoxel @ Ephtracy

# group
o 

# material
mtllib model-0.mtl
usemtl palette

# normals
vn 0 0 1
vn 0 0 -1
vn 1 0 0
vn -1 0 0
vn 0 -1 0
vn 0 1 0

# texcoords
vt 0.00585938 0.5
vt 0.00976563 0.5
vt 0.0136719 0.5
vt 0.0175781 0.5
vt 0.0214844 0.5
vt 0.0605469 0.5

# verts
v 0.5 0.6 1
v -0.5 0.6 1
v 0.5 2.1 1
v -0.5 2.1 1
v 0.6 1.4 0.7
v 0.5 1.4 0.7
v 0.6 2.1 0.7
v 0.5 2.1 0.7
v 0.6 0.6 0.2
v 0.5 0.6 0.2
v 0.7 0.8 0.2
v 0.6 0.8 0.2
v 0.7 1 0.2
v 0.6 1 0.2
v 0.7 1.1 0.2
v 0.6 1.1 0.2
v 0.5 1.1 0.2
v 0.7 1.4 0.2
v 0.6 1.4 0.2
v 0.5 1.4 0.2
v 0.7 1.4 -0.1
v 0.6 1.4 -0.1
v 0.7 1.5 -0.1
v 0.6 1.5 -0.1
v 0.5 1.5 -0.1
v 0.7 1.6 -0.1
v 0.5 1.6 -0.1
v 0.7 1.6 -0.3
v 0.5 1.6 -0.3
v 0.7 1.7 -0.3
v 0.5 1.7 -0.3
v 0.5 2 -0.3
v 0.4 2 -0.3
v 0.5 2.1 -0.3
v 0.4 2.1 -0.3
v 0.7 1.7 -0.4
v 0.5 1.7 -0.4
v 0.4 2 -0.4
v -0.4 2 -0.4
v 0.7 2.1 -0.4
v 0.5 2.1 -0.4
v 0.4 2.1 -0.4
v -0.4 2.1 -0.4
v 0.6 1.7 0.4
v 0.5 1.7 0.4
v 0.4 2 0.4
v -0.4 2 0.4
v 0.6 2.1 0.4
v 0.5 2.1 0.4
v 0.4 2.1 0.4
v -0.4 2.1 0.4
v 0.6 1.6 0.3
v 0.5 1.6 0.3
v 0.6 1.7 0.3
v 0.5 1.7 0.3
v 0.5 2 0.3
v 0.4 2 0.3
v 0.5 2.1 0.3
v 0.4 2.1 0.3
v 0.7 0.8 0.1
v 0.6 0.8 0.1
v 0.7 1 0.1
v 0.6 1 0.1
v 0.6 1.5 0.1
v 0.5 1.5 0.1
v 0.6 1.6 0.1
v 0.5 1.6 0.1
v 0.7 1 -0.4
v 0.6 1 -0.4
v 0.7 1.1 -0.4
v 0.6 1.1 -0.4
v 0.7 1.4 -0.4
v 0.6 1.4 -0.4
v 0.7 1.4 -0.7
v 0.6 1.4 -0.7
v 0.7 1.5 -0.7
v 0.6 1.5 -0.7
v 0.7 2.1 -0.7
v 0.6 2.1 -0.7
v 0.6 0.6 -1
v -0.5 0.6 -1
v 0.6 2.1 -1
v -0.5 2.1 -1
v 0.7 0.8 0.2
v 0.7 1 0.2
v 0.7 1.1 0.2
v 0.7 1.4 0.2
v 0.7 0.8 0.1
v 0.7 1 0.1
v 0.7 1.4 -0.1
v 0.7 1.5 -0.1
v 0.7 1.6 -0.1
v 0.7 1.2 -0.2
v 0.7 1.3 -0.2
v 0.7 1.2 -0.3
v 0.7 1.3 -0.3
v 0.7 1.6 -0.3
v 0.7 1.7 -0.3
v 0.7 1 -0.4
v 0.7 1.1 -0.4
v 0.7 1.4 -0.4
v 0.7 1.7 -0.4
v 0.7 2.1 -0.4
v 0.7 1.6 -0.5
v 0.7 1.7 -0.5
v 0.7 1.6 -0.6
v 0.7 1.7 -0.6
v 0.7 1.4 -0.7
v 0.7 1.5 -0.7
v 0.7 2.1 -0.7
v 0.6 1.4 0.7
v 0.6 2.1 0.7
v 0.6 1.6 0.6
v 0.6 1.7 0.6
v 0.6 1.6 0.5
v 0.6 1.7 0.5
v 0.6 1.7 0.4
v 0.6 2.1 0.4
v 0.6 1.6 0.3
v 0.6 1.7 0.3
v 0.6 0.6 0.2
v 0.6 0.8 0.2
v 0.6 1.4 0.2
v 0.6 0.6 0.1
v 0.6 0.8 0.1
v 0.6 1 0.1
v 0.6 1.5 0.1
v 0.6 1.6 0.1
v 0.6 1.4 -0.1
v 0.6 1.5 -0.1
v 0.6 1 -0.4
v 0.6 1.1 -0.4
v 0.6 1.4 -0.4
v 0.6 1.4 -0.7
v 0.6 1.5 -0.7
v 0.6 2.1 -0.7
v 0.6 0.6 -1
v 0.6 2.1 -1
v 0.5 0.6 1
v 0.5 2.1 1
v 0.5 1.4 0.7
v 0.5 2.1 0.7
v 0.5 1.7 0.4
v 0.5 2.1 0.4
v 0.5 1.6 0.3
v 0.5 1.7 0.3
v 0.5 2 0.3
v 0.5 2.1 0.3
v 0.5 0.6 0.2
v 0.5 1.1 0.2
v 0.5 1.4 0.2
v 0.5 1.5 0.1
v 0.5 1.6 0.1
v 0.5 1.5 -0.1
v 0.5 1.6 -0.1
v 0.5 1.6 -0.3
v 0.5 1.7 -0.3
v 0.5 2 -0.3
v 0.5 2.1 -0.3
v 0.5 1.7 -0.4
v 0.5 2.1 -0.4
v -0.4 2 0.4
v -0.4 2.1 0.4
v -0.4 2 -0.4
v -0.4 2.1 -0.4
v 0.4 2 0.4
v 0.4 2.1 0.4
v 0.4 2 0.3
v 0.4 2.1 0.3
v 0.4 2 -0.3
v 0.4 2.1 -0.3
v 0.4 2 -0.4
v 0.4 2.1 -0.4
v -0.5 0.6 1
v -0.5 2.1 1
v -0.5 0.6 -1
v -0.5 2.1 -1
v 0.6 0.6 0.2
v 0.6 0.6 0.1
v 0.6 0.6 -1
v 0.5 0.6 1
v 0.5 0.6 0.2
v 0.5 0.6 0.1
v -0.5 0.6 1
v -0.5 0.6 -1
v 0.7 0.8 0.2
v 0.7 0.8 0.1
v 0.6 0.8 0.2
v 0.6 0.8 0.1
v 0.7 1 0.1
v 0.7 1 -0.4
v 0.6 1 0.1
v 0.6 1 -0.4
v 0.7 1.4 -0.4
v 0.7 1.4 -0.7
v 0.6 1.4 0.7
v 0.6 1.4 0.2
v 0.6 1.4 -0.4
v 0.6 1.4 -0.7
v 0.5 1.4 0.7
v 0.5 1.4 0.2
v 0.7 1.4 0.2
v 0.7 1.4 -0.1
v 0.6 1.4 0.2
v 0.6 1.4 -0.1
v 0.6 1.5 0.1
v 0.6 1.5 -0.1
v 0.5 1.5 0.1
v 0.5 1.5 -0.1
v 0.7 1.6 -0.1
v 0.7 1.6 -0.3
v 0.6 1.6 0.3
v 0.6 1.6 0.1
v 0.5 1.6 0.3
v 0.5 1.6 0.1
v 0.5 1.6 -0.1
v 0.5 1.6 -0.3
v 0.7 1.7 -0.3
v 0.7 1.7 -0.4
v 0.6 1.7 0.4
v 0.6 1.7 0.3
v 0.5 1.7 0.4
v 0.5 1.7 0.3
v 0.5 1.7 -0.3
v 0.5 1.7 -0.4
v 0.5 2 0.3
v 0.5 2 -0.3
v 0.4 2 0.4
v 0.4 2 0.3
v 0.4 2 -0.3
v 0.4 2 -0.4
v -0.4 2 0.4
v -0.4 2 -0.4
v 0.7 2.1 -0.4
v 0.7 2.1 -0.7
v 0.6 2.1 0.7
v 0.6 2.1 0.4
v 0.6 2.1 -0.7
v 0.6 2.1 -1
v 0.5 2.1 1
v 0.5 2.1 0.7
v 0.5 2.1 0.5
v 0.5 2.1 0.4
v 0.5 2.1 0.3
v 0.5 2.1 -0.3
v 0.5 2.1 -0.4
v 0.5 2.1 -0.5
v 0.5 2.1 -0.7
v 0.4 2.1 0.5
v 0.4 2.1 0.4
v 0.4 2.1 0.3
v 0.4 2.1 -0.3
v 0.4 2.1 -0.4
v 0.4 2.1 -0.5
v -0.4 2.1 0.4
v -0.4 2.1 -0.4
v -0.5 2.1 1
v -0.5 2.1 -1

# faces
f 3/1/1 2/1/1 1/1/1
f 4/1/1 2/1/1 3/1/1
f 7/2/1 6/2/1 5/2/1
f 8/2/1 6/2/1 7/2/1
f 12/3/1 10/3/1 9/3/1
f 13/5/1 12/5/1 11/5/1
f 14/3/1 10/3/1 12/3/1
f 14/5/1 12/5/1 13/5/1
f 15/4/1 14/4/1 13/4/1
f 16/3/1 10/3/1 14/3/1
f 16/4/1 14/4/1 15/4/1
f 17/3/1 10/3/1 16/3/1
f 18/2/1 16/2/1 15/2/1
f 19/1/1 17/1/1 16/1/1
f 19/2/1 16/2/1 18/2/1
f 20/1/1 17/1/1 19/1/1
f 23/4/1 22/4/1 21/4/1
f 24/4/1 22/4/1 23/4/1
f 26/2/1 24/2/1 23/2/1
f 26/2/1 25/2/1 24/2/1
f 27/2/1 25/2/1 26/2/1
f 30/2/1 29/2/1 28/2/1
f 31/2/1 29/2/1 30/2/1
f 34/6/1 33/6/1 32/6/1
f 35/6/1 33/6/1 34/6/1
f 40/2/1 37/2/1 36/2/1
f 41/2/1 37/2/1 40/2/1
f 42/1/1 39/1/1 38/1/1
f 43/1/1 39/1/1 42/1/1
f 44/2/2 45/2/2 48/2/2
f 48/2/2 45/2/2 49/2/2
f 46/1/2 47/1/2 50/1/2
f 50/1/2 47/1/2 51/1/2
f 52/2/2 53/2/2 54/2/2
f 54/2/2 53/2/2 55/2/2
f 56/6/2 57/6/2 58/6/2
f 58/6/2 57/6/2 59/6/2
f 60/5/2 61/5/2 62/5/2
f 62/5/2 61/5/2 63/5/2
f 64/2/2 65/2/2 66/2/2
f 66/2/2 65/2/2 67/2/2
f 68/4/2 69/4/2 70/4/2
f 70/4/2 69/4/2 71/4/2
f 70/2/2 71/2/2 72/2/2
f 72/2/2 71/2/2 73/2/2
f 74/4/2 75/4/2 76/4/2
f 76/4/2 75/4/2 77/4/2
f 76/2/2 77/2/2 78/2/2
f 78/2/2 77/2/2 79/2/2
f 80/1/2 81/1/2 82/1/2
f 82/1/2 81/1/2 83/1/2
f 88/5/3 85/5/3 84/5/3
f 89/4/3 86/4/3 85/4/3
f 89/5/3 85/5/3 88/5/3
f 90/2/3 87/2/3 86/2/3
f 93/2/3 90/2/3 86/2/3
f 94/2/3 90/2/3 93/2/3
f 95/2/3 93/2/3 86/2/3
f 95/5/3 94/5/3 93/5/3
f 96/2/3 90/2/3 94/2/3
f 96/5/3 94/5/3 95/5/3
f 97/2/3 92/2/3 91/2/3
f 99/4/3 86/4/3 89/4/3
f 100/2/3 95/2/3 86/2/3
f 100/4/3 86/4/3 99/4/3
f 100/2/3 96/2/3 95/2/3
f 101/2/3 90/2/3 96/2/3
f 101/2/3 96/2/3 100/2/3
f 101/4/3 91/4/3 90/4/3
f 102/2/3 98/2/3 97/2/3
f 104/2/3 103/2/3 102/2/3
f 104/2/3 102/2/3 97/2/3
f 104/2/3 97/2/3 91/2/3
f 105/2/3 103/2/3 104/2/3
f 106/2/3 104/2/3 91/2/3
f 106/5/3 105/5/3 104/5/3
f 107/2/3 103/2/3 105/2/3
f 107/5/3 105/5/3 106/5/3
f 108/4/3 91/4/3 101/4/3
f 109/2/3 106/2/3 91/2/3
f 109/4/3 91/4/3 108/4/3
f 109/2/3 107/2/3 106/2/3
f 110/2/3 103/2/3 107/2/3
f 110/2/3 107/2/3 109/2/3
f 113/2/3 112/2/3 111/2/3
f 114/2/3 112/2/3 113/2/3
f 115/2/3 113/2/3 111/2/3
f 115/5/3 114/5/3 113/5/3
f 116/2/3 112/2/3 114/2/3
f 116/5/3 114/5/3 115/5/3
f 117/2/3 116/2/3 115/2/3
f 117/2/3 112/2/3 116/2/3
f 118/2/3 112/2/3 117/2/3
f 119/2/3 115/2/3 111/2/3
f 119/2/3 117/2/3 115/2/3
f 120/2/3 117/2/3 119/2/3
f 123/2/3 119/2/3 111/2/3
f 124/3/3 122/3/3 121/3/3
f 125/3/3 122/3/3 124/3/3
f 127/2/3 119/2/3 123/2/3
f 128/2/3 119/2/3 127/2/3
f 129/2/3 127/2/3 123/2/3
f 130/2/3 127/2/3 129/2/3
f 131/1/3 126/1/3 125/1/3
f 131/1/3 125/1/3 124/1/3
f 134/1/3 132/1/3 131/1/3
f 134/1/3 133/1/3 132/1/3
f 137/1/3 135/1/3 134/1/3
f 137/1/3 136/1/3 135/1/3
f 137/1/3 131/1/3 124/1/3
f 137/1/3 134/1/3 131/1/3
f 138/1/3 136/1/3 137/1/3
f 141/1/3 140/1/3 139/1/3
f 142/1/3 140/1/3 141/1/3
f 146/6/3 144/6/3 143/6/3
f 147/6/3 144/6/3 146/6/3
f 148/6/3 144/6/3 147/6/3
f 149/1/3 141/1/3 139/1/3
f 150/1/3 141/1/3 149/1/3
f 151/1/3 141/1/3 150/1/3
f 153/6/3 146/6/3 145/6/3
f 153/6/3 147/6/3 146/6/3
f 154/6/3 153/6/3 152/6/3
f 155/6/3 147/6/3 153/6/3
f 155/6/3 153/6/3 154/6/3
f 156/6/3 147/6/3 155/6/3
f 157/6/3 147/6/3 156/6/3
f 158/6/3 147/6/3 157/6/3
f 160/6/3 159/6/3 158/6/3
f 160/6/3 158/6/3 157/6/3
f 161/6/3 159/6/3 160/6/3
f 164/1/3 163/1/3 162/1/3
f 165/1/3 163/1/3 164/1/3
f 166/6/4 167/6/4 168/6/4
f 168/6/4 167/6/4 169/6/4
f 170/6/4 171/6/4 172/6/4
f 172/6/4 171/6/4 173/6/4
f 174/1/4 175/1/4 176/1/4
f 176/1/4 175/1/4 177/1/4
f 182/3/5 179/3/5 178/3/5
f 183/1/5 180/1/5 179/1/5
f 183/3/5 179/3/5 182/3/5
f 184/1/5 182/1/5 181/1/5
f 184/1/5 183/1/5 182/1/5
f 185/1/5 180/1/5 183/1/5
f 185/1/5 183/1/5 184/1/5
f 188/5/5 187/5/5 186/5/5
f 189/5/5 187/5/5 188/5/5
f 192/4/5 191/4/5 190/4/5
f 193/4/5 191/4/5 192/4/5
f 198/4/5 195/4/5 194/4/5
f 199/4/5 195/4/5 198/4/5
f 200/2/5 197/2/5 196/2/5
f 201/2/5 197/2/5 200/2/5
f 202/2/6 203/2/6 204/2/6
f 204/2/6 203/2/6 205/2/6
f 206/2/6 207/2/6 208/2/6
f 208/2/6 207/2/6 209/2/6
f 212/2/6 213/2/6 214/2/6
f 214/2/6 213/2/6 215/2/6
f 210/2/6 211/2/6 216/2/6
f 216/2/6 211/2/6 217/2/6
f 220/2/6 221/2/6 222/2/6
f 222/2/6 221/2/6 223/2/6
f 218/2/6 219/2/6 224/2/6
f 224/2/6 219/2/6 225/2/6
f 226/6/6 227/6/6 229/6/6
f 229/6/6 227/6/6 230/6/6
f 228/1/6 229/1/6 232/1/6
f 230/1/6 231/1/6 232/1/6
f 229/1/6 230/1/6 232/1/6
f 232/1/6 231/1/6 233/1/6
f 234/2/6 235/2/6 238/2/6
f 236/2/6 237/2/6 241/2/6
f 241/2/6 237/2/6 242/2/6
f 242/2/6 237/2/6 243/2/6
f 234/2/6 238/2/6 246/2/6
f 246/2/6 238/2/6 247/2/6
f 238/1/6 239/1/6 248/1/6
f 247/2/6 238/2/6 248/2/6
f 243/6/6 244/6/6 249/6/6
f 240/1/6 241/1/6 249/1/6
f 241/1/6 242/1/6 249/1/6
f 242/6/6 243/6/6 249/6/6
f 249/6/6 244/6/6 250/6/6
f 250/6/6 244/6/6 251/6/6
f 246/6/6 247/6/6 252/6/6
f 245/6/6 246/6/6 252/6/6
f 252/6/6 247/6/6 253/6/6
f 247/1/6 248/1/6 254/1/6
f 253/6/6 247/6/6 254/6/6
f 249/1/6 250/1/6 255/1/6
f 253/1/6 254/1/6 256/1/6
f 249/1/6 255/1/6 257/1/6
f 255/1/6 256/1/6 257/1/6
f 240/1/6 249/1/6 257/1/6
f 254/1/6 248/1/6 258/1/6
f 257/1/6 256/1/6 258/1/6
f 248/1/6 239/1/6 258/1/6
f 256/1/6 254/1/6 258/1/6
