# MagicaVoxel @ Ephtracy

# group
o 

# material
mtllib model-8.mtl
usemtl palette

# normals
vn 0 0 1
vn 0 0 -1
vn 1 0 0
vn -1 0 0
vn 0 -1 0
vn 0 1 0

# texcoords
vt 0.0253906 0.5
vt 0.611328 0.5

# verts
v 0.3 1.4 -2.4
v -0.3 1.4 -2.4
v 0.3 2 -2.4
v -0.3 2 -2.4
v 0.3 1.4 -2.9
v -0.3 1.4 -2.9
v 0.3 2 -2.9
v -0.3 2 -2.9
v 0.3 1.4 -2.4
v 0.3 2 -2.4
v 0.3 1.4 -2.9
v 0.3 2 -2.9
v -0.3 1.4 -2.4
v -0.3 2 -2.4
v -0.3 1.4 -2.9
v -0.3 2 -2.9
v 0.3 1.4 -2.4
v 0.3 1.4 -2.9
v 0.2 1.4 -2.5
v 0.2 1.4 -2.8
v -0.2 1.4 -2.5
v -0.2 1.4 -2.8
v -0.3 1.4 -2.4
v -0.3 1.4 -2.9
v 0.3 2 -2.4
v 0.3 2 -2.9
v -0.3 2 -2.4
v -0.3 2 -2.9

# faces
f 3/1/1 2/1/1 1/1/1
f 4/1/1 2/1/1 3/1/1
f 5/1/2 6/1/2 7/1/2
f 7/1/2 6/1/2 8/1/2
f 11/1/3 10/1/3 9/1/3
f 12/1/3 10/1/3 11/1/3
f 13/1/4 14/1/4 15/1/4
f 15/1/4 14/1/4 16/1/4
f 19/1/5 18/1/5 17/1/5
f 20/1/5 18/1/5 19/1/5
f 21/1/5 19/1/5 17/1/5
f 21/2/5 20/2/5 19/2/5
f 22/1/5 18/1/5 20/1/5
f 22/2/5 20/2/5 21/2/5
f 23/1/5 21/1/5 17/1/5
f 23/1/5 22/1/5 21/1/5
f 24/1/5 18/1/5 22/1/5
f 24/1/5 22/1/5 23/1/5
f 25/1/6 26/1/6 27/1/6
f 27/1/6 26/1/6 28/1/6
