# MagicaVoxel @ Ephtracy

# group
o 

# material
mtllib model-0.mtl
usemtl palette

# normals
vn -1 0 0
vn 1 0 0
vn 0 0 1
vn 0 0 -1
vn 0 -1 0
vn 0 1 0

# texcoords
vt 0.767578 0.5
vt 0.771484 0.5
vt 0.775391 0.5

# verts
v -0.5 0 0.4
v -0.5 0 -0.4
v -0.5 0.1 1.2
v -0.5 0.1 0.4
v -0.5 0.1 -0.4
v -0.5 0.1 -1.2
v -0.5 1.3 1.2
v -0.5 1.3 -1.2
v 0.6 0.7 1.2
v 0.6 0.7 0.4
v 0.6 0.7 -0.4
v 0.6 0.7 -1.2
v 0.6 0.9 1.2
v 0.6 0.9 0.4
v 0.6 0.9 0.3
v 0.6 0.9 -0.3
v 0.6 0.9 -0.4
v 0.6 0.9 -1.2
v 0.6 1 1.2
v 0.6 1 0.3
v 0.6 1 -0.3
v 0.6 1 -1.2
v 0.6 1.1 0.3
v 0.6 1.1 -0.3
v 0.6 1.3 1.2
v 0.6 1.3 -1.2
v 1 0.1 1.2
v 1 0.1 0.5
v 1 0.1 -0.5
v 1 0.1 -1.2
v 1 0.7 1.2
v 1 0.7 0.5
v 1 0.7 -0.5
v 1 0.7 -1.2
v 1.4 0.1 0.5
v 1.4 0.1 0.4
v 1.4 0.1 -0.4
v 1.4 0.1 -0.5
v 1.4 0.7 0.5
v 1.4 0.7 0.4
v 1.4 0.7 -0.4
v 1.4 0.7 -0.5
v 1.4 0.9 0.3
v 1.4 0.9 -0.3
v 1.4 1.1 0.3
v 1.4 1.1 -0.3
v 1.5 0 0.4
v 1.5 0 -0.4
v 1.5 0.1 0.3
v 1.5 0.1 -0.3
v 1.5 0.8 0.3
v 1.5 0.8 -0.3
v 1.5 0.9 0.4
v 1.5 0.9 -0.4
v -0.5 0.1 1.2
v -0.5 1.3 1.2
v 0.3 0.9 1.2
v 0.3 1.3 1.2
v 0.4 1 1.2
v 0.4 1.3 1.2
v 0.6 0.7 1.2
v 0.6 0.9 1.2
v 0.6 1 1.2
v 0.6 1.3 1.2
v 1 0.1 1.2
v 1 0.7 1.2
v 1 0.1 0.5
v 1 0.7 0.5
v 1.4 0.1 0.5
v 1.4 0.7 0.5
v -0.5 0 0.4
v -0.5 0.1 0.4
v 0.6 0 0.4
v 0.6 0.1 0.4
v 0.6 0.7 0.4
v 0.6 0.9 0.4
v 1.4 0.1 0.4
v 1.4 0.7 0.4
v 1.5 0 0.4
v 1.5 0.9 0.4
v 0.6 0.9 0.3
v 0.6 1 0.3
v 0.6 1.1 0.3
v 1.4 0.9 0.3
v 1.4 1.1 0.3
v 0.6 0.9 -0.3
v 0.6 1 -0.3
v 0.6 1.1 -0.3
v 1.4 0.9 -0.3
v 1.4 1.1 -0.3
v -0.5 0 -0.4
v -0.5 0.1 -0.4
v 0.6 0 -0.4
v 0.6 0.1 -0.4
v 0.6 0.7 -0.4
v 0.6 0.9 -0.4
v 1.4 0.1 -0.4
v 1.4 0.7 -0.4
v 1.5 0 -0.4
v 1.5 0.9 -0.4
v 1 0.1 -0.5
v 1 0.7 -0.5
v 1.4 0.1 -0.5
v 1.4 0.7 -0.5
v -0.5 0.1 -1.2
v -0.5 1.3 -1.2
v 0.3 0.9 -1.2
v 0.3 1.3 -1.2
v 0.4 1 -1.2
v 0.4 1.3 -1.2
v 0.6 0.7 -1.2
v 0.6 0.9 -1.2
v 0.6 1 -1.2
v 0.6 1.3 -1.2
v 1 0.1 -1.2
v 1 0.7 -1.2
v -0.5 0 0.4
v 0.6 0 0.4
v 1.5 0 0.4
v -0.5 0 -0.4
v 0.6 0 -0.4
v 1.5 0 -0.4
v -0.5 0.1 1.2
v 1 0.1 1.2
v 1 0.1 0.5
v 1.4 0.1 0.5
v -0.5 0.1 0.4
v 0.6 0.1 0.4
v 1.4 0.1 0.4
v -0.5 0.1 -0.4
v 0.6 0.1 -0.4
v 1.4 0.1 -0.4
v 1 0.1 -0.5
v 1.4 0.1 -0.5
v -0.5 0.1 -1.2
v 1 0.1 -1.2
v 0.6 0.7 1.2
v 1 0.7 1.2
v 1 0.7 0.5
v 1.4 0.7 0.5
v 0.6 0.7 0.4
v 1.4 0.7 0.4
v 0.6 0.7 -0.4
v 1.4 0.7 -0.4
v 1 0.7 -0.5
v 1.4 0.7 -0.5
v 0.6 0.7 -1.2
v 1 0.7 -1.2
v 0.6 0.9 0.4
v 1.5 0.9 0.4
v 0.6 0.9 0.3
v 1.4 0.9 0.3
v 0.6 0.9 -0.3
v 1.4 0.9 -0.3
v 0.6 0.9 -0.4
v 1.5 0.9 -0.4
v 0.6 1.1 0.3
v 1.4 1.1 0.3
v 0.6 1.1 -0.3
v 1.4 1.1 -0.3
v -0.5 1.3 1.2
v 0.3 1.3 1.2
v 0.4 1.3 1.2
v 0.6 1.3 1.2
v -0.5 1.3 -1.2
v 0.3 1.3 -1.2
v 0.4 1.3 -1.2
v 0.6 1.3 -1.2

# faces
f 4/3/1 2/3/1 1/3/1
f 5/3/1 2/3/1 4/3/1
f 7/3/1 4/3/1 3/3/1
f 7/3/1 6/3/1 5/3/1
f 7/3/1 5/3/1 4/3/1
f 8/3/1 6/3/1 7/3/1
f 9/3/2 10/3/2 13/3/2
f 13/3/2 10/3/2 14/3/2
f 11/3/2 12/3/2 17/3/2
f 17/3/2 12/3/2 18/3/2
f 14/2/2 15/2/2 19/2/2
f 13/2/2 14/2/2 19/2/2
f 19/2/2 15/2/2 20/2/2
f 17/2/2 18/2/2 21/2/2
f 16/2/2 17/2/2 21/2/2
f 21/2/2 18/2/2 22/2/2
f 19/3/2 20/3/2 23/3/2
f 21/3/2 22/3/2 24/3/2
f 19/3/2 23/3/2 25/3/2
f 23/3/2 24/3/2 25/3/2
f 24/3/2 22/3/2 26/3/2
f 25/3/2 24/3/2 26/3/2
f 27/3/2 28/3/2 31/3/2
f 31/3/2 28/3/2 32/3/2
f 29/3/2 30/3/2 33/3/2
f 33/3/2 30/3/2 34/3/2
f 35/3/2 36/3/2 39/3/2
f 39/3/2 36/3/2 40/3/2
f 37/3/2 38/3/2 41/3/2
f 41/3/2 38/3/2 42/3/2
f 43/2/2 44/2/2 45/2/2
f 45/2/2 44/2/2 46/2/2
f 47/2/2 48/2/2 49/2/2
f 49/2/2 48/2/2 50/2/2
f 47/2/2 49/2/2 51/2/2
f 49/1/2 50/1/2 51/1/2
f 50/2/2 48/2/2 52/2/2
f 51/1/2 50/1/2 52/1/2
f 47/2/2 51/2/2 53/2/2
f 51/2/2 52/2/2 53/2/2
f 52/2/2 48/2/2 54/2/2
f 53/2/2 52/2/2 54/2/2
f 57/3/3 56/3/3 55/3/3
f 58/3/3 56/3/3 57/3/3
f 59/2/3 58/2/3 57/2/3
f 60/2/3 58/2/3 59/2/3
f 61/3/3 57/3/3 55/3/3
f 62/2/3 59/2/3 57/2/3
f 62/3/3 57/3/3 61/3/3
f 63/3/3 60/3/3 59/3/3
f 63/2/3 59/2/3 62/2/3
f 64/3/3 60/3/3 63/3/3
f 65/3/3 61/3/3 55/3/3
f 66/3/3 61/3/3 65/3/3
f 69/3/3 68/3/3 67/3/3
f 70/3/3 68/3/3 69/3/3
f 73/3/3 72/3/3 71/3/3
f 74/3/3 72/3/3 73/3/3
f 77/2/3 74/2/3 73/2/3
f 78/2/3 76/2/3 75/2/3
f 79/2/3 77/2/3 73/2/3
f 79/2/3 78/2/3 77/2/3
f 80/2/3 76/2/3 78/2/3
f 80/2/3 78/2/3 79/2/3
f 84/2/3 82/2/3 81/2/3
f 84/2/3 83/2/3 82/2/3
f 85/2/3 83/2/3 84/2/3
f 86/2/4 87/2/4 89/2/4
f 87/2/4 88/2/4 89/2/4
f 89/2/4 88/2/4 90/2/4
f 91/3/4 92/3/4 93/3/4
f 93/3/4 92/3/4 94/3/4
f 93/2/4 94/2/4 97/2/4
f 95/2/4 96/2/4 98/2/4
f 93/2/4 97/2/4 99/2/4
f 97/2/4 98/2/4 99/2/4
f 98/2/4 96/2/4 100/2/4
f 99/2/4 98/2/4 100/2/4
f 101/3/4 102/3/4 103/3/4
f 103/3/4 102/3/4 104/3/4
f 105/3/4 106/3/4 107/3/4
f 107/3/4 106/3/4 108/3/4
f 107/2/4 108/2/4 109/2/4
f 109/2/4 108/2/4 110/2/4
f 105/3/4 107/3/4 111/3/4
f 107/2/4 109/2/4 112/2/4
f 111/3/4 107/3/4 112/3/4
f 109/3/4 110/3/4 113/3/4
f 112/2/4 109/2/4 113/2/4
f 113/3/4 110/3/4 114/3/4
f 105/3/4 111/3/4 115/3/4
f 115/3/4 111/3/4 116/3/4
f 120/3/5 118/3/5 117/3/5
f 121/2/5 119/2/5 118/2/5
f 121/3/5 118/3/5 120/3/5
f 122/2/5 119/2/5 121/2/5
f 125/3/5 124/3/5 123/3/5
f 127/3/5 125/3/5 123/3/5
f 127/3/5 126/3/5 125/3/5
f 128/3/5 126/3/5 127/3/5
f 129/3/5 126/3/5 128/3/5
f 133/3/5 131/3/5 130/3/5
f 133/3/5 132/3/5 131/3/5
f 134/3/5 132/3/5 133/3/5
f 135/3/5 133/3/5 130/3/5
f 136/3/5 133/3/5 135/3/5
f 137/3/6 138/3/6 139/3/6
f 137/3/6 139/3/6 141/3/6
f 139/3/6 140/3/6 141/3/6
f 141/3/6 140/3/6 142/3/6
f 143/3/6 144/3/6 145/3/6
f 145/3/6 144/3/6 146/3/6
f 143/3/6 145/3/6 147/3/6
f 147/3/6 145/3/6 148/3/6
f 149/2/6 150/2/6 151/2/6
f 151/2/6 150/2/6 152/2/6
f 152/2/6 150/2/6 154/2/6
f 153/2/6 154/2/6 155/2/6
f 154/2/6 150/2/6 156/2/6
f 155/2/6 154/2/6 156/2/6
f 157/2/6 158/2/6 159/2/6
f 159/2/6 158/2/6 160/2/6
f 161/3/6 162/3/6 165/3/6
f 162/2/6 163/2/6 166/2/6
f 165/3/6 162/3/6 166/3/6
f 163/3/6 164/3/6 167/3/6
f 166/2/6 163/2/6 167/2/6
f 167/3/6 164/3/6 168/3/6
