# MagicaVoxel @ Ephtracy

# group
o 

# material
mtllib model.mtl
usemtl palette

# normals
vn 0 0 1
vn 0 0 -1
vn 1 0 0
vn -1 0 0
vn 0 -1 0
vn 0 1 0

# texcoords
vt 0.0292969 0.5
vt 0.0917969 0.5
vt 0.587891 0.5

# verts
v 0.9 0 1.8
v -0.9 0 1.8
v 0.9 0.6 1.8
v -0.9 0.6 1.8
v 0.9 0.6 1.4
v 0.8 0.6 1.4
v -0.8 0.6 1.4
v -0.9 0.6 1.4
v 0.9 1.5 1.4
v 0.8 1.5 1.4
v -0.8 1.5 1.4
v -0.9 1.5 1.4
v 1.1 0 1.1
v 0.9 0 1.1
v -0.9 0 1.1
v -1.1 0 1.1
v 0.9 1.4 1.1
v -0.9 1.4 1.1
v 0.9 1.5 1.1
v 0.8 1.5 1.1
v -0.8 1.5 1.1
v -0.9 1.5 1.1
v 1.1 1.8 1.1
v 0.9 1.8 1.1
v -0.9 1.8 1.1
v -1.1 1.8 1.1
v 1.1 1.9 1.1
v 0.8 1.9 1.1
v -0.8 1.9 1.1
v -1.1 1.9 1.1
v 0.8 0.5 1
v -0.8 0.5 1
v 0.8 1 1
v -0.8 1 1
v 0.8 0.5 -1.7
v -0.8 0.5 -1.7
v 0.8 0.6 -1.7
v -0.8 0.6 -1.7
v 0.8 0.5 1.7
v -0.8 0.5 1.7
v 0.8 0.6 1.7
v -0.8 0.6 1.7
v 0.8 0.5 -1
v -0.8 0.5 -1
v 0.8 1 -1
v -0.8 1 -1
v 1.1 0 -1.1
v 0.9 0 -1.1
v -0.9 0 -1.1
v -1.1 0 -1.1
v 0.9 1.4 -1.1
v -0.9 1.4 -1.1
v 0.9 1.5 -1.1
v 0.8 1.5 -1.1
v -0.8 1.5 -1.1
v -0.9 1.5 -1.1
v 1.1 1.8 -1.1
v 0.9 1.8 -1.1
v -0.9 1.8 -1.1
v -1.1 1.8 -1.1
v 1.1 1.9 -1.1
v 0.8 1.9 -1.1
v -0.8 1.9 -1.1
v -1.1 1.9 -1.1
v 0.9 0.6 -1.4
v 0.8 0.6 -1.4
v -0.8 0.6 -1.4
v -0.9 0.6 -1.4
v 0.9 1.5 -1.4
v 0.8 1.5 -1.4
v -0.8 1.5 -1.4
v -0.9 1.5 -1.4
v 0.9 0 -1.8
v -0.9 0 -1.8
v 0.9 0.6 -1.8
v -0.9 0.6 -1.8
v 1.1 0 1.1
v 1.1 1.8 1.1
v 1.1 1.9 1.1
v 1.1 0.9 1
v 1.1 1.2 1
v 1.1 1 0.9
v 1.1 1.1 0.9
v 1.1 0.5 0.8
v 1.1 0.8 0.8
v 1.1 0.9 0.8
v 1.1 1 0.8
v 1.1 1.3 0.8
v 1.1 1.6 0.8
v 1.1 0.6 0.7
v 1.1 0.7 0.7
v 1.1 0.9 0.7
v 1.1 1.1 0.7
v 1.1 1.4 0.7
v 1.1 1.5 0.7
v 1.1 0.7 0.6
v 1.1 0.8 0.6
v 1.1 1 0.6
v 1.1 1.2 0.6
v 1.1 1.3 0.6
v 1.1 1.4 0.6
v 1.1 0.1 0.5
v 1.1 0.4 0.5
v 1.1 0.6 0.5
v 1.1 0.8 0.5
v 1.1 1.1 0.5
v 1.1 1.5 0.5
v 1.1 0.2 0.4
v 1.1 0.3 0.4
v 1.1 0.5 0.4
v 1.1 0.7 0.4
v 1.1 1.2 0.4
v 1.1 1.6 0.4
v 1.1 0.3 0.3
v 1.1 0.4 0.3
v 1.1 1.2 0.3
v 1.1 1.6 0.3
v 1.1 0.2 0.2
v 1.1 0.7 0.2
v 1.1 0.8 0.2
v 1.1 0.9 0.2
v 1.1 1 0.2
v 1.1 1.1 0.2
v 1.1 1.2 0.2
v 1.1 1.3 0.2
v 1.1 1.6 0.2
v 1.1 1.7 0.2
v 1.1 0.1 0.1
v 1.1 0.9 0.1
v 1.1 1.2 0.1
v 1.1 1.3 0.1
v 1.1 0.1 -0.0999999
v 1.1 0.9 -0.0999999
v 1.1 1.2 -0.0999999
v 1.1 1.3 -0.0999999
v 1.1 0.2 -0.2
v 1.1 0.7 -0.2
v 1.1 0.8 -0.2
v 1.1 0.9 -0.2
v 1.1 1 -0.2
v 1.1 1.1 -0.2
v 1.1 1.2 -0.2
v 1.1 1.3 -0.2
v 1.1 1.6 -0.2
v 1.1 1.7 -0.2
v 1.1 0.3 -0.3
v 1.1 0.4 -0.3
v 1.1 1.2 -0.3
v 1.1 1.6 -0.3
v 1.1 0.2 -0.4
v 1.1 0.3 -0.4
v 1.1 0.5 -0.4
v 1.1 0.7 -0.4
v 1.1 1.2 -0.4
v 1.1 1.6 -0.4
v 1.1 0.1 -0.5
v 1.1 0.4 -0.5
v 1.1 0.6 -0.5
v 1.1 0.8 -0.5
v 1.1 1.1 -0.5
v 1.1 1.5 -0.5
v 1.1 0.7 -0.6
v 1.1 0.8 -0.6
v 1.1 1 -0.6
v 1.1 1.2 -0.6
v 1.1 1.3 -0.6
v 1.1 1.4 -0.6
v 1.1 0.6 -0.7
v 1.1 0.7 -0.7
v 1.1 0.9 -0.7
v 1.1 1.1 -0.7
v 1.1 1.4 -0.7
v 1.1 1.5 -0.7
v 1.1 0.5 -0.8
v 1.1 0.8 -0.8
v 1.1 0.9 -0.8
v 1.1 1 -0.8
v 1.1 1.3 -0.8
v 1.1 1.6 -0.8
v 1.1 1 -0.9
v 1.1 1.1 -0.9
v 1.1 0.9 -1
v 1.1 1.2 -1
v 1.1 0 -1.1
v 1.1 1.8 -1.1
v 1.1 1.9 -1.1
v 0.9 0 1.8
v 0.9 0.6 1.8
v 0.9 0 1.7
v 0.9 0.5 1.7
v 0.9 0.2 1.6
v 0.9 0.4 1.6
v 0.9 0.3 1.5
v 0.9 0.4 1.5
v 0.9 0.3 1.4
v 0.9 0.5 1.4
v 0.9 0.6 1.4
v 0.9 1.5 1.4
v 0.9 0.2 1.3
v 0.9 1.4 1.3
v 0.9 0 1.1
v 0.9 1.4 1.1
v 0.9 1.5 1.1
v 0.9 0 -1.1
v 0.9 1.4 -1.1
v 0.9 1.5 -1.1
v 0.9 0.2 -1.3
v 0.9 1.4 -1.3
v 0.9 0.3 -1.4
v 0.9 0.5 -1.4
v 0.9 0.6 -1.4
v 0.9 1.5 -1.4
v 0.9 0.3 -1.5
v 0.9 0.4 -1.5
v 0.9 0.2 -1.6
v 0.9 0.4 -1.6
v 0.9 0 -1.7
v 0.9 0.5 -1.7
v 0.9 0 -1.8
v 0.9 0.6 -1.8
v -0.8 0.5 1.7
v -0.8 0.6 1.7
v -0.8 0.6 1.4
v -0.8 1.5 1.4
v -0.8 0.5 1.3
v -0.8 1.4 1.3
v -0.8 1.5 1.1
v -0.8 1.9 1.1
v -0.8 0.5 1
v -0.8 1 1
v -0.8 1.4 1
v -0.8 1.8 1
v -0.8 0.5 -1
v -0.8 1 -1
v -0.8 1.4 -1
v -0.8 1.8 -1
v -0.8 1.5 -1.1
v -0.8 1.9 -1.1
v -0.8 0.5 -1.3
v -0.8 1.4 -1.3
v -0.8 0.6 -1.4
v -0.8 1.5 -1.4
v -0.8 0.5 -1.7
v -0.8 0.6 -1.7
v 0.8 0.5 1.7
v 0.8 0.6 1.7
v 0.8 0.6 1.4
v 0.8 1.5 1.4
v 0.8 0.5 1.3
v 0.8 1.4 1.3
v 0.8 1.5 1.1
v 0.8 1.9 1.1
v 0.8 0.5 1
v 0.8 1 1
v 0.8 1.4 1
v 0.8 1.8 1
v 0.8 0.5 -1
v 0.8 1 -1
v 0.8 1.4 -1
v 0.8 1.8 -1
v 0.8 1.5 -1.1
v 0.8 1.9 -1.1
v 0.8 0.5 -1.3
v 0.8 1.4 -1.3
v 0.8 0.6 -1.4
v 0.8 1.5 -1.4
v 0.8 0.5 -1.7
v 0.8 0.6 -1.7
v -0.9 0 1.8
v -0.9 0.6 1.8
v -0.9 0 1.7
v -0.9 0.5 1.7
v -0.9 0.2 1.6
v -0.9 0.4 1.6
v -0.9 0.3 1.5
v -0.9 0.4 1.5
v -0.9 0.3 1.4
v -0.9 0.5 1.4
v -0.9 0.6 1.4
v -0.9 1.5 1.4
v -0.9 0.2 1.3
v -0.9 1.4 1.3
v -0.9 0 1.1
v -0.9 1.4 1.1
v -0.9 1.5 1.1
v -0.9 0 -1.1
v -0.9 1.4 -1.1
v -0.9 1.5 -1.1
v -0.9 0.2 -1.3
v -0.9 1.4 -1.3
v -0.9 0.3 -1.4
v -0.9 0.5 -1.4
v -0.9 0.6 -1.4
v -0.9 1.5 -1.4
v -0.9 0.3 -1.5
v -0.9 0.4 -1.5
v -0.9 0.2 -1.6
v -0.9 0.4 -1.6
v -0.9 0 -1.7
v -0.9 0.5 -1.7
v -0.9 0 -1.8
v -0.9 0.6 -1.8
v -1.1 0 1.1
v -1.1 1.8 1.1
v -1.1 1.9 1.1
v -1.1 0 -1.1
v -1.1 1.8 -1.1
v -1.1 1.9 -1.1
v 1.1 0 1.1
v 1.1 0 -1.1
v 0.9 0 1.8
v 0.9 0 1.7
v 0.9 0 1.1
v 0.9 0 -1.1
v 0.9 0 -1.7
v 0.9 0 -1.8
v -0.9 0 1.8
v -0.9 0 1.7
v -0.9 0 1.1
v -0.9 0 -1.1
v -0.9 0 -1.7
v -0.9 0 -1.8
v -1.1 0 1.1
v -1.1 0 -1.1
v 0.8 0.5 1.7
v 0.8 0.5 1.3
v 0.8 0.5 1
v 0.8 0.5 -1
v 0.8 0.5 -1.3
v 0.8 0.5 -1.7
v -0.8 0.5 1.7
v -0.8 0.5 1.3
v -0.8 0.5 1
v -0.8 0.5 -1
v -0.8 0.5 -1.3
v -0.8 0.5 -1.7
v 0.9 0.6 1.8
v 0.9 0.6 1.4
v 0.9 0.6 -1.4
v 0.9 0.6 -1.8
v 0.8 0.6 1.7
v 0.8 0.6 1.4
v 0.8 0.6 -1.4
v 0.8 0.6 -1.7
v -0.8 0.6 1.7
v -0.8 0.6 1.4
v -0.8 0.6 -1.4
v -0.8 0.6 -1.7
v -0.9 0.6 1.8
v -0.9 0.6 1.4
v -0.9 0.6 -1.4
v -0.9 0.6 -1.8
v 0.8 1 1
v 0.8 1 -1
v -0.8 1 1
v -0.8 1 -1
v 0.9 1.5 1.4
v 0.9 1.5 1.1
v 0.9 1.5 -1.1
v 0.9 1.5 -1.4
v 0.8 1.5 1.4
v 0.8 1.5 1.1
v 0.8 1.5 -1.1
v 0.8 1.5 -1.4
v -0.8 1.5 1.4
v -0.8 1.5 1.1
v -0.8 1.5 -1.1
v -0.8 1.5 -1.4
v -0.9 1.5 1.4
v -0.9 1.5 1.1
v -0.9 1.5 -1.1
v -0.9 1.5 -1.4
v 1.1 1.9 1.1
v 1.1 1.9 -1.1
v 0.8 1.9 1.1
v 0.8 1.9 -1.1
v -0.8 1.9 1.1
v -0.8 1.9 -1.1
v -1.1 1.9 1.1
v -1.1 1.9 -1.1

# faces
f 3/2/1 2/2/1 1/2/1
f 4/2/1 2/2/1 3/2/1
f 9/2/1 6/2/1 5/2/1
f 10/2/1 6/2/1 9/2/1
f 11/2/1 8/2/1 7/2/1
f 12/2/1 8/2/1 11/2/1
f 17/1/1 14/1/1 13/1/1
f 18/1/1 16/1/1 15/1/1
f 19/1/1 17/1/1 13/1/1
f 22/1/1 16/1/1 18/1/1
f 23/1/1 19/1/1 13/1/1
f 24/2/1 20/2/1 19/2/1
f 24/1/1 19/1/1 23/1/1
f 25/2/1 22/2/1 21/2/1
f 25/1/1 16/1/1 22/1/1
f 26/1/1 16/1/1 25/1/1
f 27/2/1 24/2/1 23/2/1
f 28/2/1 20/2/1 24/2/1
f 28/2/1 24/2/1 27/2/1
f 29/2/1 25/2/1 21/2/1
f 29/2/1 26/2/1 25/2/1
f 30/2/1 26/2/1 29/2/1
f 33/1/1 32/1/1 31/1/1
f 34/1/1 32/1/1 33/1/1
f 37/2/1 36/2/1 35/2/1
f 38/2/1 36/2/1 37/2/1
f 39/2/2 40/2/2 41/2/2
f 41/2/2 40/2/2 42/2/2
f 43/1/2 44/1/2 45/1/2
f 45/1/2 44/1/2 46/1/2
f 47/1/2 48/1/2 51/1/2
f 49/1/2 50/1/2 52/1/2
f 47/1/2 51/1/2 53/1/2
f 52/1/2 50/1/2 56/1/2
f 47/1/2 53/1/2 57/1/2
f 53/2/2 54/2/2 58/2/2
f 57/1/2 53/1/2 58/1/2
f 55/2/2 56/2/2 59/2/2
f 56/1/2 50/1/2 59/1/2
f 59/1/2 50/1/2 60/1/2
f 57/2/2 58/2/2 61/2/2
f 58/2/2 54/2/2 62/2/2
f 61/2/2 58/2/2 62/2/2
f 55/2/2 59/2/2 63/2/2
f 59/2/2 60/2/2 63/2/2
f 63/2/2 60/2/2 64/2/2
f 65/2/2 66/2/2 69/2/2
f 69/2/2 66/2/2 70/2/2
f 67/2/2 68/2/2 71/2/2
f 71/2/2 68/2/2 72/2/2
f 73/2/2 74/2/2 75/2/2
f 75/2/2 74/2/2 76/2/2
f 80/1/3 78/1/3 77/1/3
f 81/1/3 78/1/3 80/1/3
f 82/3/3 81/3/3 80/3/3
f 83/3/3 81/3/3 82/3/3
f 84/1/3 80/1/3 77/1/3
f 85/1/3 80/1/3 84/1/3
f 86/3/3 82/3/3 80/3/3
f 86/1/3 80/1/3 85/1/3
f 87/1/3 83/1/3 82/1/3
f 87/3/3 82/3/3 86/3/3
f 88/1/3 78/1/3 81/1/3
f 89/1/3 78/1/3 88/1/3
f 90/3/3 85/3/3 84/3/3
f 91/3/3 85/3/3 90/3/3
f 92/1/3 86/1/3 85/1/3
f 92/1/3 87/1/3 86/1/3
f 93/3/3 81/3/3 83/3/3
f 93/1/3 87/1/3 92/1/3
f 93/1/3 83/1/3 87/1/3
f 94/3/3 89/3/3 88/3/3
f 95/3/3 89/3/3 94/3/3
f 96/3/3 85/3/3 91/3/3
f 96/1/3 91/1/3 90/1/3
f 97/1/3 92/1/3 85/1/3
f 97/3/3 85/3/3 96/3/3
f 98/3/3 93/3/3 92/3/3
f 99/1/3 88/1/3 81/1/3
f 99/3/3 93/3/3 98/3/3
f 99/3/3 81/3/3 93/3/3
f 100/3/3 94/3/3 88/3/3
f 100/1/3 88/1/3 99/1/3
f 101/1/3 95/1/3 94/1/3
f 101/3/3 94/3/3 100/3/3
f 102/1/3 84/1/3 77/1/3
f 103/1/3 84/1/3 102/1/3
f 104/1/3 96/1/3 90/1/3
f 104/3/3 90/3/3 84/3/3
f 104/1/3 97/1/3 96/1/3
f 105/1/3 92/1/3 97/1/3
f 105/1/3 97/1/3 104/1/3
f 106/1/3 100/1/3 99/1/3
f 106/1/3 99/1/3 98/1/3
f 106/1/3 101/1/3 100/1/3
f 107/3/3 89/3/3 95/3/3
f 107/1/3 101/1/3 106/1/3
f 107/1/3 95/1/3 101/1/3
f 108/3/3 103/3/3 102/3/3
f 109/3/3 103/3/3 108/3/3
f 110/1/3 84/1/3 103/1/3
f 110/3/3 105/3/3 104/3/3
f 110/3/3 104/3/3 84/3/3
f 111/3/3 105/3/3 110/3/3
f 112/3/3 107/3/3 106/3/3
f 113/3/3 89/3/3 107/3/3
f 113/3/3 107/3/3 112/3/3
f 113/1/3 78/1/3 89/1/3
f 114/3/3 103/3/3 109/3/3
f 114/1/3 109/1/3 108/1/3
f 115/1/3 111/1/3 110/1/3
f 115/3/3 103/3/3 114/3/3
f 115/1/3 110/1/3 103/1/3
f 116/3/3 112/3/3 106/3/3
f 116/1/3 113/1/3 112/1/3
f 117/1/3 78/1/3 113/1/3
f 117/1/3 113/1/3 116/1/3
f 118/1/3 114/1/3 108/1/3
f 118/1/3 115/1/3 114/1/3
f 118/3/3 108/3/3 102/3/3
f 119/1/3 111/1/3 115/1/3
f 119/1/3 115/1/3 118/1/3
f 119/3/3 105/3/3 111/3/3
f 120/1/3 92/1/3 105/1/3
f 120/3/3 105/3/3 119/3/3
f 121/3/3 98/3/3 92/3/3
f 121/1/3 92/1/3 120/1/3
f 122/1/3 106/1/3 98/1/3
f 122/3/3 98/3/3 121/3/3
f 123/3/3 116/3/3 106/3/3
f 123/1/3 106/1/3 122/1/3
f 123/3/3 117/3/3 116/3/3
f 124/3/3 117/3/3 123/3/3
f 125/3/3 117/3/3 124/3/3
f 126/1/3 78/1/3 117/1/3
f 126/3/3 117/3/3 125/3/3
f 127/1/3 78/1/3 126/1/3
f 128/3/3 122/3/3 121/3/3
f 128/3/3 118/3/3 102/3/3
f 128/3/3 121/3/3 120/3/3
f 128/1/3 102/1/3 77/1/3
f 128/3/3 124/3/3 123/3/3
f 128/3/3 123/3/3 122/3/3
f 128/3/3 120/3/3 119/3/3
f 128/3/3 119/3/3 118/3/3
f 129/3/3 124/3/3 128/3/3
f 130/1/3 125/1/3 124/1/3
f 130/3/3 124/3/3 129/3/3
f 131/3/3 127/3/3 126/3/3
f 131/1/3 125/1/3 130/1/3
f 131/3/3 126/3/3 125/3/3
f 132/1/3 129/1/3 128/1/3
f 132/1/3 128/1/3 77/1/3
f 133/3/3 130/3/3 129/3/3
f 133/1/3 129/1/3 132/1/3
f 133/3/3 131/3/3 130/3/3
f 134/3/3 131/3/3 133/3/3
f 135/3/3 127/3/3 131/3/3
f 135/3/3 131/3/3 134/3/3
f 136/3/3 134/3/3 133/3/3
f 136/3/3 133/3/3 132/3/3
f 137/3/3 134/3/3 136/3/3
f 138/3/3 134/3/3 137/3/3
f 139/3/3 134/3/3 138/3/3
f 140/3/3 134/3/3 139/3/3
f 141/3/3 134/3/3 140/3/3
f 142/1/3 135/1/3 134/1/3
f 142/3/3 134/3/3 141/3/3
f 143/3/3 127/3/3 135/3/3
f 143/1/3 135/1/3 142/1/3
f 144/3/3 127/3/3 143/3/3
f 145/1/3 78/1/3 127/1/3
f 145/3/3 127/3/3 144/3/3
f 146/1/3 137/1/3 136/1/3
f 147/1/3 137/1/3 146/1/3
f 148/3/3 144/3/3 143/3/3
f 148/3/3 142/3/3 141/3/3
f 148/3/3 143/3/3 142/3/3
f 149/1/3 145/1/3 144/1/3
f 149/3/3 144/3/3 148/3/3
f 150/3/3 136/3/3 132/3/3
f 150/1/3 146/1/3 136/1/3
f 151/3/3 147/3/3 146/3/3
f 151/1/3 146/1/3 150/1/3
f 152/1/3 137/1/3 147/1/3
f 153/3/3 138/3/3 137/3/3
f 153/1/3 137/1/3 152/1/3
f 154/1/3 149/1/3 148/1/3
f 154/3/3 148/3/3 141/3/3
f 155/1/3 145/1/3 149/1/3
f 155/1/3 149/1/3 154/1/3
f 156/1/3 132/1/3 77/1/3
f 156/3/3 150/3/3 132/3/3
f 156/3/3 151/3/3 150/3/3
f 157/3/3 147/3/3 151/3/3
f 157/3/3 151/3/3 156/3/3
f 157/1/3 152/1/3 147/1/3
f 158/3/3 153/3/3 152/3/3
f 159/1/3 139/1/3 138/1/3
f 159/3/3 153/3/3 158/3/3
f 159/3/3 138/3/3 153/3/3
f 160/3/3 155/3/3 154/3/3
f 160/1/3 141/1/3 140/1/3
f 160/3/3 154/3/3 141/3/3
f 161/3/3 155/3/3 160/3/3
f 162/1/3 159/1/3 158/1/3
f 163/1/3 139/1/3 159/1/3
f 163/1/3 159/1/3 162/1/3
f 164/3/3 140/3/3 139/3/3
f 164/1/3 160/1/3 140/1/3
f 164/1/3 161/1/3 160/1/3
f 165/1/3 161/1/3 164/1/3
f 166/1/3 161/1/3 165/1/3
f 167/1/3 161/1/3 166/1/3
f 168/1/3 162/1/3 158/1/3
f 168/3/3 158/3/3 152/3/3
f 169/3/3 163/3/3 162/3/3
f 169/1/3 162/1/3 168/1/3
f 170/1/3 139/1/3 163/1/3
f 170/3/3 164/3/3 139/3/3
f 170/3/3 165/3/3 164/3/3
f 171/3/3 165/3/3 170/3/3
f 172/1/3 161/1/3 167/1/3
f 172/3/3 167/3/3 166/3/3
f 173/3/3 155/3/3 161/3/3
f 173/1/3 161/1/3 172/1/3
f 174/1/3 157/1/3 156/1/3
f 174/1/3 152/1/3 157/1/3
f 174/3/3 168/3/3 152/3/3
f 174/3/3 169/3/3 168/3/3
f 175/1/3 171/1/3 170/1/3
f 175/3/3 169/3/3 174/3/3
f 175/3/3 163/3/3 169/3/3
f 175/1/3 170/1/3 163/1/3
f 176/1/3 171/1/3 175/1/3
f 177/1/3 171/1/3 176/1/3
f 178/3/3 172/3/3 166/3/3
f 178/3/3 173/3/3 172/3/3
f 178/1/3 166/1/3 165/1/3
f 179/1/3 145/1/3 155/1/3
f 179/3/3 173/3/3 178/3/3
f 179/3/3 155/3/3 173/3/3
f 180/1/3 171/1/3 177/1/3
f 180/3/3 177/3/3 176/3/3
f 181/3/3 165/3/3 171/3/3
f 181/1/3 171/1/3 180/1/3
f 182/3/3 180/3/3 176/3/3
f 182/1/3 175/1/3 174/1/3
f 182/3/3 181/3/3 180/3/3
f 182/1/3 176/1/3 175/1/3
f 183/1/3 178/1/3 165/1/3
f 183/3/3 181/3/3 182/3/3
f 183/3/3 165/3/3 181/3/3
f 183/1/3 179/1/3 178/1/3
f 184/1/3 156/1/3 77/1/3
f 184/1/3 182/1/3 174/1/3
f 184/1/3 183/1/3 182/1/3
f 184/1/3 174/1/3 156/1/3
f 185/2/3 79/2/3 78/2/3
f 185/1/3 183/1/3 184/1/3
f 185/1/3 179/1/3 183/1/3
f 185/1/3 78/1/3 145/1/3
f 185/1/3 145/1/3 179/1/3
f 186/2/3 79/2/3 185/2/3
f 189/2/3 188/2/3 187/2/3
f 190/2/3 188/2/3 189/2/3
f 191/1/3 190/1/3 189/1/3
f 192/1/3 190/1/3 191/1/3
f 193/2/3 192/2/3 191/2/3
f 194/1/3 190/1/3 192/1/3
f 194/2/3 192/2/3 193/2/3
f 195/2/3 193/2/3 191/2/3
f 195/1/3 194/1/3 193/1/3
f 196/2/3 188/2/3 190/2/3
f 196/1/3 194/1/3 195/1/3
f 196/1/3 190/1/3 194/1/3
f 197/2/3 188/2/3 196/2/3
f 199/2/3 195/2/3 191/2/3
f 199/2/3 198/2/3 197/2/3
f 199/2/3 197/2/3 196/2/3
f 199/2/3 196/2/3 195/2/3
f 199/1/3 191/1/3 189/1/3
f 200/2/3 198/2/3 199/2/3
f 201/1/3 199/1/3 189/1/3
f 201/1/3 200/1/3 199/1/3
f 202/2/3 198/2/3 200/2/3
f 202/1/3 200/1/3 201/1/3
f 203/2/3 198/2/3 202/2/3
f 207/1/3 205/1/3 204/1/3
f 208/2/3 206/2/3 205/2/3
f 208/1/3 205/1/3 207/1/3
f 209/2/3 208/2/3 207/2/3
f 210/2/3 208/2/3 209/2/3
f 211/2/3 208/2/3 210/2/3
f 212/2/3 206/2/3 208/2/3
f 212/2/3 208/2/3 211/2/3
f 213/2/3 209/2/3 207/2/3
f 213/1/3 210/1/3 209/1/3
f 214/1/3 210/1/3 213/1/3
f 215/1/3 207/1/3 204/1/3
f 215/2/3 213/2/3 207/2/3
f 215/2/3 214/2/3 213/2/3
f 216/1/3 210/1/3 214/1/3
f 216/2/3 214/2/3 215/2/3
f 217/1/3 215/1/3 204/1/3
f 217/1/3 216/1/3 215/1/3
f 218/1/3 210/1/3 216/1/3
f 218/1/3 216/1/3 217/1/3
f 218/2/3 211/2/3 210/2/3
f 219/2/3 218/2/3 217/2/3
f 220/2/3 211/2/3 218/2/3
f 220/2/3 218/2/3 219/2/3
f 223/2/3 222/2/3 221/2/3
f 225/2/3 223/2/3 221/2/3
f 225/2/3 224/2/3 223/2/3
f 226/2/3 224/2/3 225/2/3
f 227/2/3 224/2/3 226/2/3
f 229/1/3 226/1/3 225/1/3
f 230/1/3 226/1/3 229/1/3
f 231/2/3 228/2/3 227/2/3
f 231/1/3 226/1/3 230/1/3
f 231/2/3 227/2/3 226/2/3
f 232/2/3 228/2/3 231/2/3
f 234/1/3 231/1/3 230/1/3
f 234/1/3 232/1/3 231/1/3
f 235/1/3 232/1/3 234/1/3
f 236/2/3 228/2/3 232/2/3
f 236/1/3 232/1/3 235/1/3
f 237/2/3 236/2/3 235/2/3
f 238/2/3 228/2/3 236/2/3
f 238/2/3 236/2/3 237/2/3
f 239/1/3 235/1/3 234/1/3
f 239/1/3 234/1/3 233/1/3
f 240/2/3 237/2/3 235/2/3
f 240/1/3 235/1/3 239/1/3
f 241/2/3 240/2/3 239/2/3
f 242/2/3 237/2/3 240/2/3
f 242/2/3 240/2/3 241/2/3
f 243/2/3 241/2/3 239/2/3
f 244/2/3 241/2/3 243/2/3
f 245/2/4 246/2/4 247/2/4
f 245/2/4 247/2/4 249/2/4
f 247/2/4 248/2/4 249/2/4
f 249/2/4 248/2/4 250/2/4
f 250/2/4 248/2/4 251/2/4
f 249/1/4 250/1/4 253/1/4
f 253/1/4 250/1/4 254/1/4
f 251/2/4 252/2/4 255/2/4
f 254/1/4 250/1/4 255/1/4
f 250/2/4 251/2/4 255/2/4
f 255/2/4 252/2/4 256/2/4
f 254/1/4 255/1/4 258/1/4
f 255/1/4 256/1/4 258/1/4
f 258/1/4 256/1/4 259/1/4
f 256/2/4 252/2/4 260/2/4
f 259/1/4 256/1/4 260/1/4
f 259/2/4 260/2/4 261/2/4
f 260/2/4 252/2/4 262/2/4
f 261/2/4 260/2/4 262/2/4
f 258/1/4 259/1/4 263/1/4
f 257/1/4 258/1/4 263/1/4
f 259/2/4 261/2/4 264/2/4
f 263/1/4 259/1/4 264/1/4
f 263/2/4 264/2/4 265/2/4
f 264/2/4 261/2/4 266/2/4
f 265/2/4 264/2/4 266/2/4
f 263/2/4 265/2/4 267/2/4
f 267/2/4 265/2/4 268/2/4
f 269/2/4 270/2/4 271/2/4
f 271/2/4 270/2/4 272/2/4
f 271/1/4 272/1/4 273/1/4
f 273/1/4 272/1/4 274/1/4
f 273/2/4 274/2/4 275/2/4
f 274/1/4 272/1/4 276/1/4
f 275/2/4 274/2/4 276/2/4
f 273/2/4 275/2/4 277/2/4
f 275/1/4 276/1/4 277/1/4
f 272/2/4 270/2/4 278/2/4
f 277/1/4 276/1/4 278/1/4
f 276/1/4 272/1/4 278/1/4
f 278/2/4 270/2/4 279/2/4
f 273/2/4 277/2/4 281/2/4
f 279/2/4 280/2/4 281/2/4
f 278/2/4 279/2/4 281/2/4
f 277/2/4 278/2/4 281/2/4
f 271/1/4 273/1/4 281/1/4
f 281/2/4 280/2/4 282/2/4
f 271/1/4 281/1/4 283/1/4
f 281/1/4 282/1/4 283/1/4
f 282/2/4 280/2/4 284/2/4
f 283/1/4 282/1/4 284/1/4
f 284/2/4 280/2/4 285/2/4
f 286/1/4 287/1/4 289/1/4
f 287/2/4 288/2/4 290/2/4
f 289/1/4 287/1/4 290/1/4
f 289/2/4 290/2/4 291/2/4
f 291/2/4 290/2/4 292/2/4
f 292/2/4 290/2/4 293/2/4
f 290/2/4 288/2/4 294/2/4
f 293/2/4 290/2/4 294/2/4
f 289/2/4 291/2/4 295/2/4
f 291/1/4 292/1/4 295/1/4
f 295/1/4 292/1/4 296/1/4
f 286/1/4 289/1/4 297/1/4
f 289/2/4 295/2/4 297/2/4
f 295/2/4 296/2/4 297/2/4
f 296/1/4 292/1/4 298/1/4
f 297/2/4 296/2/4 298/2/4
f 286/1/4 297/1/4 299/1/4
f 297/1/4 298/1/4 299/1/4
f 298/1/4 292/1/4 300/1/4
f 299/1/4 298/1/4 300/1/4
f 292/2/4 293/2/4 300/2/4
f 299/2/4 300/2/4 301/2/4
f 300/2/4 293/2/4 302/2/4
f 301/2/4 300/2/4 302/2/4
f 303/1/4 304/1/4 306/1/4
f 304/2/4 305/2/4 307/2/4
f 306/1/4 304/1/4 307/1/4
f 307/2/4 305/2/4 308/2/4
f 313/1/5 310/1/5 309/1/5
f 314/1/5 310/1/5 313/1/5
f 317/2/5 312/2/5 311/2/5
f 318/1/5 313/1/5 312/1/5
f 318/2/5 312/2/5 317/2/5
f 318/1/5 314/1/5 313/1/5
f 318/1/5 315/1/5 314/1/5
f 319/1/5 315/1/5 318/1/5
f 320/1/5 315/1/5 319/1/5
f 321/2/5 316/2/5 315/2/5
f 321/1/5 315/1/5 320/1/5
f 322/2/5 316/2/5 321/2/5
f 323/1/5 320/1/5 319/1/5
f 324/1/5 320/1/5 323/1/5
f 325/1/6 326/1/6 331/1/6
f 326/1/6 327/1/6 331/1/6
f 331/1/6 327/1/6 332/1/6
f 332/1/6 327/1/6 333/1/6
f 329/1/6 330/1/6 334/1/6
f 328/1/6 329/1/6 334/1/6
f 334/1/6 330/1/6 335/1/6
f 335/1/6 330/1/6 336/1/6
f 337/2/6 338/2/6 341/2/6
f 341/2/6 338/2/6 342/2/6
f 339/2/6 340/2/6 343/2/6
f 343/2/6 340/2/6 344/2/6
f 337/2/6 341/2/6 345/2/6
f 344/2/6 340/2/6 348/2/6
f 345/2/6 346/2/6 349/2/6
f 337/2/6 345/2/6 349/2/6
f 349/2/6 346/2/6 350/2/6
f 347/2/6 348/2/6 351/2/6
f 348/2/6 340/2/6 352/2/6
f 351/2/6 348/2/6 352/2/6
f 353/1/6 354/1/6 355/1/6
f 355/1/6 354/1/6 356/1/6
f 357/2/6 358/2/6 361/2/6
f 361/2/6 358/2/6 362/2/6
f 359/2/6 360/2/6 363/2/6
f 363/2/6 360/2/6 364/2/6
f 365/2/6 366/2/6 369/2/6
f 369/2/6 366/2/6 370/2/6
f 367/2/6 368/2/6 371/2/6
f 371/2/6 368/2/6 372/2/6
f 373/2/6 374/2/6 375/2/6
f 375/2/6 374/2/6 376/2/6
f 377/2/6 378/2/6 379/2/6
f 379/2/6 378/2/6 380/2/6
