# MagicaVoxel @ Ephtracy

# group
o 

# material
mtllib model.mtl
usemtl palette

# normals
vn 0 0 1
vn 0 0 -1
vn 1 0 0
vn -1 0 0
vn 0 -1 0
vn 0 1 0

# texcoords
vt 0.318359 0.5
vt 0.455078 0.5
vt 0.462891 0.5
vt 0.501953 0.5
vt 0.517578 0.5
vt 0.576172 0.5
vt 0.646484 0.5

# verts
v 0.9 0 1.6
v -0.9 0 1.6
v 0.6 0.1 1.6
v 0.4 0.1 1.6
v 0.3 0.1 1.6
v 0.1 0.1 1.6
v -0.2 0.1 1.6
v -0.4 0.1 1.6
v -0.5 0.1 1.6
v -0.7 0.1 1.6
v -0.9 0.1 1.6
v 0.9 0.2 1.6
v 0.6 0.2 1.6
v 0.4 0.2 1.6
v 0.3 0.2 1.6
v 0.1 0.2 1.6
v -0.2 0.2 1.6
v -0.4 0.2 1.6
v -0.5 0.2 1.6
v -0.7 0.2 1.6
v -0.9 0.2 1.6
v 0.1 0.3 1.6
v -0.0999999 0.3 1.6
v 0.6 0.4 1.6
v 0.4 0.4 1.6
v 0.2 0.4 1.6
v 0.1 0.4 1.6
v -0.0999999 0.4 1.6
v -0.2 0.4 1.6
v -0.4 0.4 1.6
v -0.6 0.4 1.6
v 0.6 0.6 1.6
v 0.4 0.6 1.6
v 0.2 0.6 1.6
v 0.1 0.6 1.6
v -0.0999999 0.6 1.6
v -0.2 0.6 1.6
v -0.4 0.6 1.6
v -0.6 0.6 1.6
v 0.1 0.7 1.6
v -0.0999999 0.7 1.6
v 0.9 0.8 1.6
v -0.9 0.8 1.6
v 0.9 0.9 1.6
v 0.7 0.9 1.6
v 0.5 0.9 1.6
v 0.1 0.9 1.6
v -0.6 0.9 1.6
v -0.7 0.9 1.6
v -0.8 0.9 1.6
v -0.9 0.9 1.6
v 0.9 1 1.6
v 0.7 1 1.6
v 0.5 1 1.6
v 0.1 1 1.6
v -0.6 1 1.6
v -0.7 1 1.6
v -0.8 1 1.6
v -0.9 1 1.6
v 0.8 0.2 1.5
v 0.6 0.2 1.5
v 0.4 0.2 1.5
v 0.3 0.2 1.5
v 0.1 0.2 1.5
v -0.2 0.2 1.5
v -0.4 0.2 1.5
v -0.5 0.2 1.5
v -0.7 0.2 1.5
v -0.8 0.2 1.5
v 0.1 0.3 1.5
v -0.0999999 0.3 1.5
v 0.6 0.4 1.5
v 0.4 0.4 1.5
v 0.2 0.4 1.5
v 0.1 0.4 1.5
v -0.0999999 0.4 1.5
v -0.2 0.4 1.5
v -0.4 0.4 1.5
v -0.6 0.4 1.5
v 0.6 0.6 1.5
v 0.4 0.6 1.5
v 0.2 0.6 1.5
v 0.1 0.6 1.5
v -0.0999999 0.6 1.5
v -0.2 0.6 1.5
v -0.4 0.6 1.5
v -0.6 0.6 1.5
v 0.1 0.7 1.5
v -0.0999999 0.7 1.5
v 0.8 0.8 1.5
v -0.8 0.8 1.5
v 0.8 1 1.5
v 0.7 1 1.5
v 0.5 1 1.5
v 0.1 1 1.5
v -0.6 1 1.5
v -0.7 1 1.5
v -0.8 1 1.5
v 0.8 1.5 1.5
v 0.6 1.5 1.5
v 0.2 1.5 1.5
v -0.2 1.5 1.5
v -0.6 1.5 1.5
v -0.8 1.5 1.5
v 0.6 1.7 1.5
v 0.5 1.7 1.5
v 0.4 1.7 1.5
v 0.2 1.7 1.5
v -0.2 1.7 1.5
v -0.3 1.7 1.5
v -0.4 1.7 1.5
v -0.6 1.7 1.5
v 0.6 1.8 1.5
v 0.5 1.8 1.5
v 0.4 1.8 1.5
v 0.2 1.8 1.5
v -0.2 1.8 1.5
v -0.3 1.8 1.5
v -0.4 1.8 1.5
v -0.6 1.8 1.5
v 1.1 0 1.4
v 0.9 0 1.4
v -0.9 0 1.4
v -1.1 0 1.4
v 1.1 0.1 1.4
v 0.9 0.1 1.4
v -0.9 0.1 1.4
v -1.1 0.1 1.4
v 1.1 0.2 1.4
v 0.9 0.2 1.4
v -0.9 0.2 1.4
v -1.1 0.2 1.4
v 1.1 0.8 1.4
v 0.9 0.8 1.4
v -0.9 0.8 1.4
v -1.1 0.8 1.4
v 1.1 0.9 1.4
v 1 0.9 1.4
v 0.9 0.9 1.4
v -0.9 0.9 1.4
v -1.1 0.9 1.4
v 1.1 1 1.4
v 1 1 1.4
v 0.9 1 1.4
v -0.9 1 1.4
v -1.1 1 1.4
v 1 0.2 1.3
v 0.8 0.2 1.3
v -0.8 0.2 1.3
v -1 0.2 1.3
v 1 0.8 1.3
v 0.8 0.8 1.3
v -0.8 0.8 1.3
v -1 0.8 1.3
v 1 1 1.3
v 0.8 1 1.3
v -0.8 1 1.3
v -1 1 1.3
v 1 1.5 1.3
v 0.8 1.5 1.3
v -0.8 1.5 1.3
v -1 1.5 1.3
v 1.1 0.4 1.2
v 1 0.4 1.2
v -1 0.4 1.2
v -1.1 0.4 1.2
v 1.1 0.6 1.2
v 1 0.6 1.2
v -1 0.6 1.2
v -1.1 0.6 1.2
v 1.1 0.3 1.1
v 1 0.3 1.1
v -1 0.3 1.1
v -1.1 0.3 1.1
v 1.1 0.4 1.1
v 1 0.4 1.1
v -1 0.4 1.1
v -1.1 0.4 1.1
v 1.1 0.6 1.1
v 1 0.6 1.1
v -1 0.6 1.1
v -1.1 0.6 1.1
v 1.1 0.7 1.1
v 1 0.7 1.1
v -1 0.7 1.1
v -1.1 0.7 1.1
v 1 1.5 1.1
v 0.8 1.5 1.1
v -0.8 1.5 1.1
v -1 1.5 1.1
v 1 1.7 1.1
v 0.9 1.7 1.1
v -0.9 1.7 1.1
v -1 1.7 1.1
v 1 1.8 1.1
v 0.9 1.8 1.1
v 0.8 1.8 1.1
v -0.8 1.8 1.1
v -0.9 1.8 1.1
v -1 1.8 1.1
v 1.2 0.6 0.7
v 1 0.6 0.7
v -1 0.6 0.7
v -1.2 0.6 0.7
v 1.1 0.8 0.7
v 1 0.8 0.7
v -1 0.8 0.7
v -1.1 0.8 0.7
v 1.1 1 0.7
v 1 1 0.7
v -1 1 0.7
v -1.1 1 0.7
v -1.1 1.1 0.7
v -1.2 1.1 0.7
v 1.2 1.2 0.7
v 1 1.2 0.7
v -1 1.2 0.7
v -1.1 1.2 0.7
v -1.2 1.2 0.7
v 1.2 0.4 0.6
v 1 0.4 0.6
v -1 0.4 0.6
v -1.2 0.4 0.6
v 1.2 0.6 0.6
v 1 0.6 0.6
v -1 0.6 0.6
v -1.2 0.6 0.6
v 1.2 1.2 0.6
v 1 1.2 0.6
v -1 1.2 0.6
v -1.1 1.2 0.6
v -1.2 1.2 0.6
v 1.2 1.3 0.6
v 1 1.3 0.6
v -1 1.3 0.6
v -1.1 1.3 0.6
v -1.2 1.3 0.6
v 1.2 0.3 0.5
v 1 0.3 0.5
v -1 0.3 0.5
v -1.2 0.3 0.5
v 1.2 0.4 0.5
v 1 0.4 0.5
v -1 0.4 0.5
v -1.2 0.4 0.5
v 1.2 1.3 0.5
v 1 1.3 0.5
v -1 1.3 0.5
v -1.1 1.3 0.5
v -1.2 1.3 0.5
v 1.2 1.4 0.5
v 1 1.4 0.5
v -1 1.4 0.5
v -1.2 1.4 0.5
v 1 1.5 0.3
v 0.8 1.5 0.3
v -0.8 1.5 0.3
v -1 1.5 0.3
v 1 1.7 0.3
v 0.9 1.7 0.3
v -0.9 1.7 0.3
v -1 1.7 0.3
v 1 1.8 0.3
v 0.9 1.8 0.3
v 0.8 1.8 0.3
v -0.8 1.8 0.3
v -0.9 1.8 0.3
v -1 1.8 0.3
v 1.2 0.3 0.2
v 1 0.3 0.2
v -1 0.3 0.2
v -1.2 0.3 0.2
v 1.2 0.4 0.2
v 1 0.4 0.2
v -1 0.4 0.2
v -1.2 0.4 0.2
v 1.2 0.3 -0.1
v 1 0.3 -0.1
v -1 0.3 -0.1
v -1.2 0.3 -0.1
v 1.2 0.4 -0.1
v 1 0.4 -0.1
v -1 0.4 -0.1
v -1.2 0.4 -0.1
v 1 1.5 -0.5
v 0.8 1.5 -0.5
v -0.8 1.5 -0.5
v -1 1.5 -0.5
v 1 1.7 -0.5
v 0.9 1.7 -0.5
v -0.9 1.7 -0.5
v -1 1.7 -0.5
v 1 1.8 -0.5
v 0.9 1.8 -0.5
v 0.8 1.8 -0.5
v -0.8 1.8 -0.5
v -0.9 1.8 -0.5
v -1 1.8 -0.5
v 1.1 0.4 -0.6
v 1 0.4 -0.6
v -1 0.4 -0.6
v -1.1 0.4 -0.6
v 1.1 0.6 -0.6
v 1 0.6 -0.6
v -1 0.6 -0.6
v -1.1 0.6 -0.6
v 1.1 0.3 -0.7
v 1 0.3 -0.7
v -1 0.3 -0.7
v -1.1 0.3 -0.7
v 1.1 0.4 -0.7
v 1 0.4 -0.7
v -1 0.4 -0.7
v -1.1 0.4 -0.7
v 1.1 0.6 -0.7
v 1 0.6 -0.7
v -1 0.6 -0.7
v -1.1 0.6 -0.7
v 1.1 0.7 -0.7
v 1 0.7 -0.7
v -1 0.7 -0.7
v -1.1 0.7 -0.7
v 0.8 0.9 -1.1
v -0.8 0.9 -1.1
v 0.8 1.5 -1.1
v 0.6 1.5 -1.1
v 0.2 1.5 -1.1
v -0.2 1.5 -1.1
v -0.6 1.5 -1.1
v -0.8 1.5 -1.1
v 0.6 1.8 -1.1
v 0.2 1.8 -1.1
v -0.2 1.8 -1.1
v -0.6 1.8 -1.1
v 0.8 0.9 1.3
v -0.8 0.9 1.3
v 0.8 1.5 1.3
v 0.6 1.5 1.3
v 0.2 1.5 1.3
v -0.2 1.5 1.3
v -0.6 1.5 1.3
v -0.8 1.5 1.3
v 0.6 1.8 1.3
v 0.2 1.8 1.3
v -0.2 1.8 1.3
v -0.6 1.8 1.3
v 1.1 0.3 0.9
v 1 0.3 0.9
v -1 0.3 0.9
v -1.1 0.3 0.9
v 1.1 0.4 0.9
v 1 0.4 0.9
v -1 0.4 0.9
v -1.1 0.4 0.9
v 1.1 0.6 0.9
v 1 0.6 0.9
v -1 0.6 0.9
v -1.1 0.6 0.9
v 1.1 0.7 0.9
v 1 0.7 0.9
v -1 0.7 0.9
v -1.1 0.7 0.9
v 1.1 0.4 0.8
v 1 0.4 0.8
v -1 0.4 0.8
v -1.1 0.4 0.8
v 1.1 0.6 0.8
v 1 0.6 0.8
v -1 0.6 0.8
v -1.1 0.6 0.8
v 1 1.5 0.7
v 0.8 1.5 0.7
v -0.8 1.5 0.7
v -1 1.5 0.7
v 1 1.7 0.7
v 0.9 1.7 0.7
v -0.9 1.7 0.7
v -1 1.7 0.7
v 1 1.8 0.7
v 0.9 1.8 0.7
v 0.8 1.8 0.7
v -0.8 1.8 0.7
v -0.9 1.8 0.7
v -1 1.8 0.7
v 1.2 0.3 0.3
v 1 0.3 0.3
v -1 0.3 0.3
v -1.2 0.3 0.3
v 1.2 0.4 0.3
v 1 0.4 0.3
v -1 0.4 0.3
v -1.2 0.4 0.3
v 1.2 0.3 0
v 1 0.3 0
v -1 0.3 0
v -1.2 0.3 0
v 1.2 0.4 0
v 1 0.4 0
v -1 0.4 0
v -1.2 0.4 0
v 1 1.5 -0.1
v 0.8 1.5 -0.1
v -0.8 1.5 -0.1
v -1 1.5 -0.1
v 1 1.7 -0.1
v 0.9 1.7 -0.1
v -0.9 1.7 -0.1
v -1 1.7 -0.1
v 1 1.8 -0.1
v 0.9 1.8 -0.1
v 0.8 1.8 -0.1
v -0.8 1.8 -0.1
v -0.9 1.8 -0.1
v -1 1.8 -0.1
v 1.2 0.3 -0.3
v 1 0.3 -0.3
v -1 0.3 -0.3
v -1.2 0.3 -0.3
v 1.2 0.4 -0.3
v 1 0.4 -0.3
v -1 0.4 -0.3
v -1.2 0.4 -0.3
v 1.2 1.3 -0.3
v 1.1 1.3 -0.3
v 1 1.3 -0.3
v -1 1.3 -0.3
v -1.1 1.3 -0.3
v -1.2 1.3 -0.3
v 1.2 1.4 -0.3
v 1.1 1.4 -0.3
v 1 1.4 -0.3
v -1 1.4 -0.3
v -1.1 1.4 -0.3
v -1.2 1.4 -0.3
v 1.2 0.4 -0.4
v 1 0.4 -0.4
v -1 0.4 -0.4
v -1.2 0.4 -0.4
v 1.2 0.6 -0.4
v 1 0.6 -0.4
v -1 0.6 -0.4
v -1.2 0.6 -0.4
v 1.2 1.2 -0.4
v 1.1 1.2 -0.4
v 1 1.2 -0.4
v -1 1.2 -0.4
v -1.1 1.2 -0.4
v -1.2 1.2 -0.4
v 1.2 1.3 -0.4
v 1.1 1.3 -0.4
v 1 1.3 -0.4
v -1 1.3 -0.4
v -1.1 1.3 -0.4
v -1.2 1.3 -0.4
v 1.2 0.6 -0.5
v 1 0.6 -0.5
v -1 0.6 -0.5
v -1.2 0.6 -0.5
v 1.1 0.8 -0.5
v 1 0.8 -0.5
v -1 0.8 -0.5
v -1.1 0.8 -0.5
v 1.1 1 -0.5
v 1 1 -0.5
v -1 1 -0.5
v -1.1 1 -0.5
v 1.2 1.1 -0.5
v 1.1 1.1 -0.5
v -1.1 1.1 -0.5
v -1.2 1.1 -0.5
v 1.2 1.2 -0.5
v 1.1 1.2 -0.5
v 1 1.2 -0.5
v -1 1.2 -0.5
v -1.1 1.2 -0.5
v -1.2 1.2 -0.5
v 1.1 0.3 -0.9
v 1 0.3 -0.9
v -1 0.3 -0.9
v -1.1 0.3 -0.9
v 1.1 0.4 -0.9
v 1 0.4 -0.9
v -1 0.4 -0.9
v -1.1 0.4 -0.9
v 1.1 0.6 -0.9
v 1 0.6 -0.9
v -1 0.6 -0.9
v -1.1 0.6 -0.9
v 1.1 0.7 -0.9
v 1 0.7 -0.9
v -1 0.7 -0.9
v -1.1 0.7 -0.9
v 1 1.5 -0.9
v 0.8 1.5 -0.9
v -0.8 1.5 -0.9
v -1 1.5 -0.9
v 1 1.7 -0.9
v 0.9 1.7 -0.9
v -0.9 1.7 -0.9
v -1 1.7 -0.9
v 1 1.8 -0.9
v 0.9 1.8 -0.9
v 0.8 1.8 -0.9
v -0.8 1.8 -0.9
v -0.9 1.8 -0.9
v -1 1.8 -0.9
v 1.1 0.4 -1
v 1 0.4 -1
v -1 0.4 -1
v -1.1 0.4 -1
v 1.1 0.6 -1
v 1 0.6 -1
v -1 0.6 -1
v -1.1 0.6 -1
v 1 0.2 -1.1
v 0.9 0.2 -1.1
v 0.8 0.2 -1.1
v -0.8 0.2 -1.1
v -1 0.2 -1.1
v 1 0.8 -1.1
v 0.8 0.8 -1.1
v -0.8 0.8 -1.1
v -1 0.8 -1.1
v 1 1 -1.1
v 0.8 1 -1.1
v -0.8 1 -1.1
v -1 1 -1.1
v 1 1.5 -1.1
v 0.8 1.5 -1.1
v -0.8 1.5 -1.1
v -1 1.5 -1.1
v 1.1 0 -1.2
v 0.9 0 -1.2
v -0.9 0 -1.2
v -1.1 0 -1.2
v 1.1 0.1 -1.2
v 0.9 0.1 -1.2
v -0.9 0.1 -1.2
v -1.1 0.1 -1.2
v 1.1 0.2 -1.2
v 0.9 0.2 -1.2
v -0.9 0.2 -1.2
v -1.1 0.2 -1.2
v 1.1 0.8 -1.2
v 0.9 0.8 -1.2
v -0.9 0.8 -1.2
v -1.1 0.8 -1.2
v 1.1 0.9 -1.2
v 0.9 0.9 -1.2
v -0.9 0.9 -1.2
v -1 0.9 -1.2
v -1.1 0.9 -1.2
v 1.1 1 -1.2
v 0.9 1 -1.2
v -0.9 1 -1.2
v -1 1 -1.2
v -1.1 1 -1.2
v 0.8 0.2 -1.3
v 0.6 0.2 -1.3
v 0.3 0.2 -1.3
v 0.2 0.2 -1.3
v -0.2 0.2 -1.3
v -0.6 0.2 -1.3
v -0.8 0.2 -1.3
v 0.1 0.3 -1.3
v -0.0999999 0.3 -1.3
v 0.6 0.4 -1.3
v 0.4 0.4 -1.3
v 0.2 0.4 -1.3
v 0.1 0.4 -1.3
v -0.0999999 0.4 -1.3
v -0.2 0.4 -1.3
v -0.4 0.4 -1.3
v -0.6 0.4 -1.3
v 0.6 0.6 -1.3
v 0.4 0.6 -1.3
v 0.2 0.6 -1.3
v 0.1 0.6 -1.3
v -0.0999999 0.6 -1.3
v -0.2 0.6 -1.3
v -0.4 0.6 -1.3
v -0.6 0.6 -1.3
v 0.1 0.7 -1.3
v -0.0999999 0.7 -1.3
v 0.8 0.8 -1.3
v -0.8 0.8 -1.3
v 0.8 1 -1.3
v 0.6 1 -1.3
v 0.1 1 -1.3
v -0.0999999 1 -1.3
v -0.2 1 -1.3
v -0.5 1 -1.3
v -0.8 1 -1.3
v 0.8 1.5 -1.3
v 0.6 1.5 -1.3
v 0.2 1.5 -1.3
v -0.2 1.5 -1.3
v -0.6 1.5 -1.3
v -0.8 1.5 -1.3
v 0.6 1.7 -1.3
v 0.5 1.7 -1.3
v 0.4 1.7 -1.3
v 0.2 1.7 -1.3
v -0.2 1.7 -1.3
v -0.3 1.7 -1.3
v -0.4 1.7 -1.3
v -0.6 1.7 -1.3
v 0.6 1.8 -1.3
v 0.5 1.8 -1.3
v 0.4 1.8 -1.3
v 0.2 1.8 -1.3
v -0.2 1.8 -1.3
v -0.3 1.8 -1.3
v -0.4 1.8 -1.3
v -0.6 1.8 -1.3
v 0.9 0 -1.4
v -0.9 0 -1.4
v 0.9 0.1 -1.4
v 0.6 0.1 -1.4
v 0.3 0.1 -1.4
v 0.2 0.1 -1.4
v -0.2 0.1 -1.4
v -0.6 0.1 -1.4
v -0.8 0.1 -1.4
v -0.9 0.1 -1.4
v 0.9 0.2 -1.4
v 0.6 0.2 -1.4
v 0.3 0.2 -1.4
v 0.2 0.2 -1.4
v -0.2 0.2 -1.4
v -0.6 0.2 -1.4
v -0.8 0.2 -1.4
v -0.9 0.2 -1.4
v 0.1 0.3 -1.4
v -0.0999999 0.3 -1.4
v 0.6 0.4 -1.4
v 0.4 0.4 -1.4
v 0.2 0.4 -1.4
v 0.1 0.4 -1.4
v -0.0999999 0.4 -1.4
v -0.2 0.4 -1.4
v -0.4 0.4 -1.4
v -0.6 0.4 -1.4
v 0.6 0.6 -1.4
v 0.4 0.6 -1.4
v 0.2 0.6 -1.4
v 0.1 0.6 -1.4
v -0.0999999 0.6 -1.4
v -0.2 0.6 -1.4
v -0.4 0.6 -1.4
v -0.6 0.6 -1.4
v 0.1 0.7 -1.4
v -0.0999999 0.7 -1.4
v 0.9 0.8 -1.4
v -0.9 0.8 -1.4
v 0.9 0.9 -1.4
v 0.8 0.9 -1.4
v 0.6 0.9 -1.4
v 0.1 0.9 -1.4
v -0.0999999 0.9 -1.4
v -0.2 0.9 -1.4
v -0.5 0.9 -1.4
v 0.9 1 -1.4
v 0.8 1 -1.4
v 0.6 1 -1.4
v 0.1 1 -1.4
v -0.0999999 1 -1.4
v -0.2 1 -1.4
v -0.5 1 -1.4
v -0.9 1 -1.4
v 1.2 0.6 0.7
v 1.2 1.2 0.7
v 1.2 0.4 0.6
v 1.2 0.6 0.6
v 1.2 0.7 0.6
v 1.2 0.9 0.6
v 1.2 1.2 0.6
v 1.2 1.3 0.6
v 1.2 0.3 0.5
v 1.2 0.4 0.5
v 1.2 0.7 0.5
v 1.2 0.8 0.5
v 1.2 0.9 0.5
v 1.2 1 0.5
v 1.2 1.3 0.5
v 1.2 1.4 0.5
v 1.2 0.3 0.3
v 1.2 0.4 0.3
v 1.2 0.7 0.3
v 1.2 0.8 0.3
v 1.2 1.3 0.3
v 1.2 1.4 0.3
v 1.2 0.3 0.2
v 1.2 0.4 0.2
v 1.2 0.5 0.2
v 1.2 0.6 0.2
v 1.2 0.7 0.2
v 1.2 1 0.2
v 1.2 0.3 0
v 1.2 0.4 0
v 1.2 0.5 0
v 1.2 0.6 0
v 1.2 0.7 0
v 1.2 1 0
v 1.2 1.3 0
v 1.2 1.4 0
v 1.2 0.3 -0.1
v 1.2 0.4 -0.1
v 1.2 0.7 -0.1
v 1.2 0.8 -0.1
v 1.2 1.3 -0.2
v 1.2 1.4 -0.2
v 1.2 0.3 -0.3
v 1.2 0.4 -0.3
v 1.2 0.7 -0.3
v 1.2 0.8 -0.3
v 1.2 0.9 -0.3
v 1.2 1 -0.3
v 1.2 1.2 -0.3
v 1.2 1.3 -0.3
v 1.2 1.4 -0.3
v 1.2 0.4 -0.4
v 1.2 0.6 -0.4
v 1.2 0.7 -0.4
v 1.2 0.9 -0.4
v 1.2 1.1 -0.4
v 1.2 1.2 -0.4
v 1.2 1.3 -0.4
v 1.2 0.6 -0.5
v 1.2 1.1 -0.5
v 1.2 1.2 -0.5
v 1.1 0 1.4
v 1.1 0.1 1.4
v 1.1 0.2 1.4
v 1.1 0.8 1.4
v 1.1 0.9 1.4
v 1.1 1 1.4
v 1.1 0.1 1.2
v 1.1 0.2 1.2
v 1.1 0.4 1.2
v 1.1 0.6 1.2
v 1.1 0.9 1.2
v 1.1 1 1.2
v 1.1 0.3 1.1
v 1.1 0.4 1.1
v 1.1 0.6 1.1
v 1.1 0.7 1.1
v 1.1 0.9 1.1
v 1.1 1 1.1
v 1.1 0.1 1
v 1.1 0.2 1
v 1.1 0.3 0.9
v 1.1 0.4 0.9
v 1.1 0.6 0.9
v 1.1 0.7 0.9
v 1.1 0.4 0.8
v 1.1 0.6 0.8
v 1.1 0.1 0.7
v 1.1 0.2 0.7
v 1.1 0.8 0.7
v 1.1 1 0.7
v 1.1 0.8 -0.5
v 1.1 1 -0.5
v 1.1 0.4 -0.6
v 1.1 0.6 -0.6
v 1.1 0.3 -0.7
v 1.1 0.4 -0.7
v 1.1 0.6 -0.7
v 1.1 0.7 -0.7
v 1.1 0.9 -0.8
v 1.1 1 -0.8
v 1.1 0.1 -0.9
v 1.1 0.2 -0.9
v 1.1 0.3 -0.9
v 1.1 0.4 -0.9
v 1.1 0.6 -0.9
v 1.1 0.7 -0.9
v 1.1 0.4 -1
v 1.1 0.6 -1
v 1.1 0.9 -1
v 1.1 1 -1
v 1.1 0.1 -1.1
v 1.1 0.2 -1.1
v 1.1 0.9 -1.1
v 1.1 1 -1.1
v 1.1 0 -1.2
v 1.1 0.1 -1.2
v 1.1 0.2 -1.2
v 1.1 0.8 -1.2
v 1.1 0.9 -1.2
v 1.1 1 -1.2
v 1 0.2 1.3
v 1 0.8 1.3
v 1 1 1.3
v 1 1.5 1.3
v 1 0.2 1.2
v 1 0.4 1.2
v 1 0.6 1.2
v 1 1 1.2
v 1 0.3 1.1
v 1 0.4 1.1
v 1 0.6 1.1
v 1 0.7 1.1
v 1 1 1.1
v 1 1.5 1.1
v 1 1.7 1.1
v 1 1.8 1.1
v 1 0.2 1
v 1 0.3 0.9
v 1 0.4 0.9
v 1 0.6 0.9
v 1 0.7 0.9
v 1 1.7 0.9
v 1 1.8 0.9
v 1 0.4 0.8
v 1 0.6 0.8
v 1 1.7 0.8
v 1 1.8 0.8
v 1 0.2 0.7
v 1 0.6 0.7
v 1 0.8 0.7
v 1 1 0.7
v 1 1.2 0.7
v 1 1.5 0.7
v 1 1.7 0.7
v 1 1.8 0.7
v 1 0.4 0.6
v 1 0.6 0.6
v 1 1.2 0.6
v 1 1.3 0.6
v 1 0.3 0.5
v 1 0.4 0.5
v 1 1.3 0.5
v 1 1.4 0.5
v 1 0.3 0.3
v 1 0.4 0.3
v 1 1.5 0.3
v 1 1.7 0.3
v 1 1.8 0.3
v 1 0.3 0.2
v 1 0.4 0.2
v 1 1.7 0.1
v 1 1.8 0.1
v 1 0.3 0
v 1 0.4 0
v 1 1.7 0
v 1 1.8 0
v 1 0.3 -0.1
v 1 0.4 -0.1
v 1 1.5 -0.1
v 1 1.7 -0.1
v 1 1.8 -0.1
v 1 0.3 -0.3
v 1 0.4 -0.3
v 1 1.3 -0.3
v 1 1.4 -0.3
v 1 0.4 -0.4
v 1 0.6 -0.4
v 1 1.2 -0.4
v 1 1.3 -0.4
v 1 0.6 -0.5
v 1 0.8 -0.5
v 1 1 -0.5
v 1 1.2 -0.5
v 1 1.5 -0.5
v 1 1.7 -0.5
v 1 1.8 -0.5
v 1 0.4 -0.6
v 1 0.6 -0.6
v 1 0.3 -0.7
v 1 0.4 -0.7
v 1 0.6 -0.7
v 1 0.7 -0.7
v 1 1.7 -0.7
v 1 1.8 -0.7
v 1 1 -0.8
v 1 1.7 -0.8
v 1 1.8 -0.8
v 1 0.2 -0.9
v 1 0.3 -0.9
v 1 0.4 -0.9
v 1 0.6 -0.9
v 1 0.7 -0.9
v 1 1.5 -0.9
v 1 1.7 -0.9
v 1 1.8 -0.9
v 1 0.4 -1
v 1 0.6 -1
v 1 1 -1
v 1 0.2 -1.1
v 1 0.8 -1.1
v 1 1 -1.1
v 1 1.5 -1.1
v 0.9 0 1.6
v 0.9 0.2 1.6
v 0.9 0.8 1.6
v 0.9 0.9 1.6
v 0.9 1 1.6
v 0.9 0 1.4
v 0.9 0.1 1.4
v 0.9 0.2 1.4
v 0.9 0.8 1.4
v 0.9 0.9 1.4
v 0.9 1 1.4
v 0.9 0 -1.2
v 0.9 0.1 -1.2
v 0.9 0.2 -1.2
v 0.9 0.8 -1.2
v 0.9 0.9 -1.2
v 0.9 1 -1.2
v 0.9 0.1 -1.3
v 0.9 0.2 -1.3
v 0.9 0 -1.4
v 0.9 0.1 -1.4
v 0.9 0.2 -1.4
v 0.9 0.8 -1.4
v 0.9 0.9 -1.4
v 0.9 1 -1.4
v 0.8 0.2 1.5
v 0.8 0.8 1.5
v 0.8 1 1.5
v 0.8 1.5 1.5
v 0.8 0.2 1.4
v 0.8 0.2 1.3
v 0.8 0.8 1.3
v 0.8 1 1.3
v 0.8 1.5 1.3
v 0.8 0.2 -1.1
v 0.8 0.8 -1.1
v 0.8 1 -1.1
v 0.8 1.5 -1.1
v 0.8 1 -1.2
v 0.8 0.2 -1.3
v 0.8 0.8 -1.3
v 0.8 1 -1.3
v 0.8 1.5 -1.3
v 0.6 0.4 1.6
v 0.6 0.6 1.6
v 0.6 0.4 1.5
v 0.6 0.6 1.5
v 0.6 1.5 1.5
v 0.6 1.7 1.5
v 0.6 1.8 1.5
v 0.6 1.7 1.4
v 0.6 1.8 1.4
v 0.6 1.5 1.3
v 0.6 1.8 1.3
v 0.6 1.5 -1.1
v 0.6 1.8 -1.1
v 0.6 1.7 -1.2
v 0.6 1.8 -1.2
v 0.6 0.4 -1.3
v 0.6 0.6 -1.3
v 0.6 1.5 -1.3
v 0.6 1.7 -1.3
v 0.6 1.8 -1.3
v 0.6 0.4 -1.4
v 0.6 0.6 -1.4
v 0.2 0.4 1.6
v 0.2 0.6 1.6
v 0.2 0.4 1.5
v 0.2 0.6 1.5
v 0.2 0.4 -1.3
v 0.2 0.6 -1.3
v 0.2 0.4 -1.4
v 0.2 0.6 -1.4
v 0.1 0.3 1.6
v 0.1 0.4 1.6
v 0.1 0.6 1.6
v 0.1 0.7 1.6
v 0.1 0.3 1.5
v 0.1 0.4 1.5
v 0.1 0.6 1.5
v 0.1 0.7 1.5
v 0.1 0.3 -1.3
v 0.1 0.4 -1.3
v 0.1 0.6 -1.3
v 0.1 0.7 -1.3
v 0.1 0.3 -1.4
v 0.1 0.4 -1.4
v 0.1 0.6 -1.4
v 0.1 0.7 -1.4
v -0.2 1.5 1.5
v -0.2 1.7 1.5
v -0.2 1.8 1.5
v -0.2 1.7 1.4
v -0.2 1.8 1.4
v -0.2 1.5 1.3
v -0.2 1.8 1.3
v -0.2 1.5 -1.1
v -0.2 1.8 -1.1
v -0.2 1.7 -1.2
v -0.2 1.8 -1.2
v -0.2 1.5 -1.3
v -0.2 1.7 -1.3
v -0.2 1.8 -1.3
v -0.4 0.4 1.6
v -0.4 0.6 1.6
v -0.4 0.4 1.5
v -0.4 0.6 1.5
v -0.4 0.4 -1.3
v -0.4 0.6 -1.3
v -0.4 0.4 -1.4
v -0.4 0.6 -1.4
v -0.8 0.9 1.3
v -0.8 1.5 1.3
v -0.8 1.5 1.1
v -0.8 1.8 1.1
v -0.8 1.5 0.7
v -0.8 1.8 0.7
v -0.8 1.5 0.3
v -0.8 1.8 0.3
v -0.8 1.5 -0.1
v -0.8 1.8 -0.1
v -0.8 1.5 -0.5
v -0.8 1.8 -0.5
v -0.8 1.5 -0.9
v -0.8 1.8 -0.9
v -0.8 0.9 -1.1
v -0.8 1.5 -1.1
v 0.8 0.9 1.3
v 0.8 1.5 1.3
v 0.8 1.5 1.1
v 0.8 1.8 1.1
v 0.8 1.5 0.7
v 0.8 1.8 0.7
v 0.8 1.5 0.3
v 0.8 1.8 0.3
v 0.8 1.5 -0.1
v 0.8 1.8 -0.1
v 0.8 1.5 -0.5
v 0.8 1.8 -0.5
v 0.8 1.5 -0.9
v 0.8 1.8 -0.9
v 0.8 0.9 -1.1
v 0.8 1.5 -1.1
v 0.4 0.4 1.6
v 0.4 0.6 1.6
v 0.4 0.4 1.5
v 0.4 0.6 1.5
v 0.4 0.4 -1.3
v 0.4 0.6 -1.3
v 0.4 0.4 -1.4
v 0.4 0.6 -1.4
v 0.2 1.5 1.5
v 0.2 1.7 1.5
v 0.2 1.8 1.5
v 0.2 1.7 1.4
v 0.2 1.8 1.4
v 0.2 1.5 1.3
v 0.2 1.8 1.3
v 0.2 1.5 -1.1
v 0.2 1.8 -1.1
v 0.2 1.7 -1.2
v 0.2 1.8 -1.2
v 0.2 1.5 -1.3
v 0.2 1.7 -1.3
v 0.2 1.8 -1.3
v -0.0999999 0.3 1.6
v -0.0999999 0.4 1.6
v -0.0999999 0.6 1.6
v -0.0999999 0.7 1.6
v -0.0999999 0.3 1.5
v -0.0999999 0.4 1.5
v -0.0999999 0.6 1.5
v -0.0999999 0.7 1.5
v -0.0999999 0.3 -1.3
v -0.0999999 0.4 -1.3
v -0.0999999 0.6 -1.3
v -0.0999999 0.7 -1.3
v -0.0999999 0.3 -1.4
v -0.0999999 0.4 -1.4
v -0.0999999 0.6 -1.4
v -0.0999999 0.7 -1.4
v -0.2 0.4 1.6
v -0.2 0.6 1.6
v -0.2 0.4 1.5
v -0.2 0.6 1.5
v -0.2 0.4 -1.3
v -0.2 0.6 -1.3
v -0.2 0.4 -1.4
v -0.2 0.6 -1.4
v -0.6 0.4 1.6
v -0.6 0.6 1.6
v -0.6 0.4 1.5
v -0.6 0.6 1.5
v -0.6 1.5 1.5
v -0.6 1.7 1.5
v -0.6 1.8 1.5
v -0.6 1.7 1.4
v -0.6 1.8 1.4
v -0.6 1.5 1.3
v -0.6 1.8 1.3
v -0.6 1.5 -1.1
v -0.6 1.8 -1.1
v -0.6 1.7 -1.2
v -0.6 1.8 -1.2
v -0.6 0.4 -1.3
v -0.6 0.6 -1.3
v -0.6 1.5 -1.3
v -0.6 1.7 -1.3
v -0.6 1.8 -1.3
v -0.6 0.4 -1.4
v -0.6 0.6 -1.4
v -0.8 0.2 1.5
v -0.8 0.8 1.5
v -0.8 1 1.5
v -0.8 1.5 1.5
v -0.8 0.2 1.4
v -0.8 0.2 1.3
v -0.8 0.8 1.3
v -0.8 1 1.3
v -0.8 1.5 1.3
v -0.8 0.2 -1.1
v -0.8 0.8 -1.1
v -0.8 1 -1.1
v -0.8 1.5 -1.1
v -0.8 1 -1.2
v -0.8 0.2 -1.3
v -0.8 0.8 -1.3
v -0.8 1 -1.3
v -0.8 1.5 -1.3
v -0.9 0 1.6
v -0.9 0.1 1.6
v -0.9 0.2 1.6
v -0.9 0.8 1.6
v -0.9 0.9 1.6
v -0.9 1 1.6
v -0.9 0 1.4
v -0.9 0.1 1.4
v -0.9 0.2 1.4
v -0.9 0.8 1.4
v -0.9 0.9 1.4
v -0.9 1 1.4
v -0.9 0 -1.2
v -0.9 0.1 -1.2
v -0.9 0.2 -1.2
v -0.9 0.8 -1.2
v -0.9 0.9 -1.2
v -0.9 1 -1.2
v -0.9 0.1 -1.3
v -0.9 0.2 -1.3
v -0.9 0 -1.4
v -0.9 0.1 -1.4
v -0.9 0.2 -1.4
v -0.9 0.8 -1.4
v -0.9 1 -1.4
v -1 0.2 1.3
v -1 0.8 1.3
v -1 1 1.3
v -1 1.5 1.3
v -1 0.2 1.2
v -1 0.4 1.2
v -1 0.6 1.2
v -1 0.3 1.1
v -1 0.4 1.1
v -1 0.6 1.1
v -1 0.7 1.1
v -1 1 1.1
v -1 1.5 1.1
v -1 1.7 1.1
v -1 1.8 1.1
v -1 1.7 1
v -1 1.8 1
v -1 0.3 0.9
v -1 0.4 0.9
v -1 0.6 0.9
v -1 0.7 0.9
v -1 1 0.9
v -1 1.7 0.9
v -1 1.8 0.9
v -1 0.4 0.8
v -1 0.6 0.8
v -1 0.6 0.7
v -1 0.8 0.7
v -1 1 0.7
v -1 1.2 0.7
v -1 1.5 0.7
v -1 1.7 0.7
v -1 1.8 0.7
v -1 0.4 0.6
v -1 0.6 0.6
v -1 1.2 0.6
v -1 1.3 0.6
v -1 0.3 0.5
v -1 0.4 0.5
v -1 1.3 0.5
v -1 1.4 0.5
v -1 0.3 0.3
v -1 0.4 0.3
v -1 1.5 0.3
v -1 1.7 0.3
v -1 1.8 0.3
v -1 0.3 0.2
v -1 0.4 0.2
v -1 1.7 0.2
v -1 1.8 0.2
v -1 1.7 0.1
v -1 1.8 0.1
v -1 0.3 0
v -1 0.4 0
v -1 0.3 -0.1
v -1 0.4 -0.1
v -1 1.5 -0.1
v -1 1.7 -0.1
v -1 1.8 -0.1
v -1 0.3 -0.3
v -1 0.4 -0.3
v -1 1.3 -0.3
v -1 1.4 -0.3
v -1 0.4 -0.4
v -1 0.6 -0.4
v -1 1.2 -0.4
v -1 1.3 -0.4
v -1 0.6 -0.5
v -1 0.8 -0.5
v -1 1 -0.5
v -1 1.2 -0.5
v -1 1.5 -0.5
v -1 1.7 -0.5
v -1 1.8 -0.5
v -1 0.4 -0.6
v -1 0.6 -0.6
v -1 1.7 -0.6
v -1 1.8 -0.6
v -1 0.3 -0.7
v -1 0.4 -0.7
v -1 0.6 -0.7
v -1 0.7 -0.7
v -1 1.7 -0.7
v -1 1.8 -0.7
v -1 0.2 -0.8
v -1 1 -0.8
v -1 0.3 -0.9
v -1 0.4 -0.9
v -1 0.6 -0.9
v -1 0.7 -0.9
v -1 1.5 -0.9
v -1 1.7 -0.9
v -1 1.8 -0.9
v -1 0.2 -1
v -1 0.4 -1
v -1 0.6 -1
v -1 1 -1
v -1 0.2 -1.1
v -1 0.8 -1.1
v -1 1 -1.1
v -1 1.5 -1.1
v -1.1 0 1.4
v -1.1 0.1 1.4
v -1.1 0.2 1.4
v -1.1 0.8 1.4
v -1.1 0.9 1.4
v -1.1 1 1.4
v -1.1 0.9 1.3
v -1.1 1 1.3
v -1.1 0.1 1.2
v -1.1 0.2 1.2
v -1.1 0.4 1.2
v -1.1 0.6 1.2
v -1.1 0.3 1.1
v -1.1 0.4 1.1
v -1.1 0.6 1.1
v -1.1 0.7 1.1
v -1.1 0.9 1.1
v -1.1 1 1.1
v -1.1 0.3 0.9
v -1.1 0.4 0.9
v -1.1 0.6 0.9
v -1.1 0.7 0.9
v -1.1 0.9 0.9
v -1.1 1 0.9
v -1.1 0.4 0.8
v -1.1 0.6 0.8
v -1.1 0.8 0.7
v -1.1 1 0.7
v -1.1 0.8 -0.5
v -1.1 1 -0.5
v -1.1 0.4 -0.6
v -1.1 0.6 -0.6
v -1.1 0.3 -0.7
v -1.1 0.4 -0.7
v -1.1 0.6 -0.7
v -1.1 0.7 -0.7
v -1.1 0.1 -0.8
v -1.1 0.2 -0.8
v -1.1 0.9 -0.8
v -1.1 1 -0.8
v -1.1 0.3 -0.9
v -1.1 0.4 -0.9
v -1.1 0.6 -0.9
v -1.1 0.7 -0.9
v -1.1 0.1 -1
v -1.1 0.2 -1
v -1.1 0.4 -1
v -1.1 0.6 -1
v -1.1 0.9 -1
v -1.1 1 -1
v -1.1 0.1 -1.1
v -1.1 0.2 -1.1
v -1.1 0 -1.2
v -1.1 0.1 -1.2
v -1.1 0.2 -1.2
v -1.1 0.8 -1.2
v -1.1 0.9 -1.2
v -1.1 1 -1.2
v -1.2 0.6 0.7
v -1.2 1.1 0.7
v -1.2 1.2 0.7
v -1.2 0.4 0.6
v -1.2 0.6 0.6
v -1.2 0.7 0.6
v -1.2 0.9 0.6
v -1.2 1.1 0.6
v -1.2 1.2 0.6
v -1.2 1.3 0.6
v -1.2 0.3 0.5
v -1.2 0.4 0.5
v -1.2 0.7 0.5
v -1.2 0.8 0.5
v -1.2 0.9 0.5
v -1.2 1 0.5
v -1.2 1.2 0.5
v -1.2 1.3 0.5
v -1.2 1.4 0.5
v -1.2 0.3 0.3
v -1.2 0.4 0.3
v -1.2 0.7 0.3
v -1.2 0.8 0.3
v -1.2 1.3 0.3
v -1.2 1.4 0.3
v -1.2 0.3 0.2
v -1.2 0.4 0.2
v -1.2 0.5 0.2
v -1.2 0.6 0.2
v -1.2 0.7 0.2
v -1.2 1 0.2
v -1.2 0.3 0
v -1.2 0.4 0
v -1.2 0.5 0
v -1.2 0.6 0
v -1.2 0.7 0
v -1.2 1 0
v -1.2 1.3 0
v -1.2 1.4 0
v -1.2 0.3 -0.1
v -1.2 0.4 -0.1
v -1.2 0.7 -0.1
v -1.2 0.8 -0.1
v -1.2 1.3 -0.2
v -1.2 1.4 -0.2
v -1.2 0.3 -0.3
v -1.2 0.4 -0.3
v -1.2 0.7 -0.3
v -1.2 0.8 -0.3
v -1.2 0.9 -0.3
v -1.2 1 -0.3
v -1.2 1.2 -0.3
v -1.2 1.3 -0.3
v -1.2 1.4 -0.3
v -1.2 0.4 -0.4
v -1.2 0.6 -0.4
v -1.2 0.7 -0.4
v -1.2 0.9 -0.4
v -1.2 1.1 -0.4
v -1.2 1.2 -0.4
v -1.2 1.3 -0.4
v -1.2 0.6 -0.5
v -1.2 1.1 -0.5
v -1.2 1.2 -0.5
v 1.1 0 1.4
v 1.1 0 -1.2
v 0.9 0 1.6
v 0.9 0 1.4
v 0.9 0 -1.2
v 0.9 0 -1.4
v -0.9 0 1.6
v -0.9 0 1.4
v -0.9 0 -1.2
v -0.9 0 -1.4
v -1.1 0 1.4
v -1.1 0 -1.2
v 1.2 0.3 0.5
v 1.2 0.3 0.3
v 1.2 0.3 0.2
v 1.2 0.3 0
v 1.2 0.3 -0.1
v 1.2 0.3 -0.3
v 1.1 0.3 1.1
v 1.1 0.3 0.9
v 1.1 0.3 -0.7
v 1.1 0.3 -0.9
v 1 0.3 1.1
v 1 0.3 0.9
v 1 0.3 0.5
v 1 0.3 0.3
v 1 0.3 0.2
v 1 0.3 0
v 1 0.3 -0.1
v 1 0.3 -0.3
v 1 0.3 -0.7
v 1 0.3 -0.9
v 0.1 0.3 1.6
v 0.1 0.3 1.5
v 0.1 0.3 -1.3
v 0.1 0.3 -1.4
v -0.0999999 0.3 1.6
v -0.0999999 0.3 1.5
v -0.0999999 0.3 -1.3
v -0.0999999 0.3 -1.4
v -1 0.3 1.1
v -1 0.3 0.9
v -1 0.3 0.5
v -1 0.3 0.3
v -1 0.3 0.2
v -1 0.3 0
v -1 0.3 -0.1
v -1 0.3 -0.3
v -1 0.3 -0.7
v -1 0.3 -0.9
v -1.1 0.3 1.1
v -1.1 0.3 0.9
v -1.1 0.3 -0.7
v -1.1 0.3 -0.9
v -1.2 0.3 0.5
v -1.2 0.3 0.3
v -1.2 0.3 0.2
v -1.2 0.3 0
v -1.2 0.3 -0.1
v -1.2 0.3 -0.3
v 1.2 0.4 0.6
v 1.2 0.4 0.5
v 1.2 0.4 0.3
v 1.2 0.4 0.2
v 1.2 0.4 0
v 1.2 0.4 -0.1
v 1.2 0.4 -0.3
v 1.2 0.4 -0.4
v 1.1 0.4 1.2
v 1.1 0.4 1.1
v 1.1 0.4 0.9
v 1.1 0.4 0.8
v 1.1 0.4 -0.6
v 1.1 0.4 -0.7
v 1.1 0.4 -0.9
v 1.1 0.4 -1
v 1 0.4 1.2
v 1 0.4 1.1
v 1 0.4 0.9
v 1 0.4 0.8
v 1 0.4 0.6
v 1 0.4 0.5
v 1 0.4 0.3
v 1 0.4 0.2
v 1 0.4 0
v 1 0.4 -0.1
v 1 0.4 -0.3
v 1 0.4 -0.4
v 1 0.4 -0.6
v 1 0.4 -0.7
v 1 0.4 -0.9
v 1 0.4 -1
v 0.6 0.4 1.6
v 0.6 0.4 1.5
v 0.6 0.4 -1.3
v 0.6 0.4 -1.4
v 0.4 0.4 1.6
v 0.4 0.4 1.5
v 0.4 0.4 -1.3
v 0.4 0.4 -1.4
v 0.2 0.4 1.6
v 0.2 0.4 1.5
v 0.2 0.4 -1.3
v 0.2 0.4 -1.4
v 0.1 0.4 1.6
v 0.1 0.4 1.5
v 0.1 0.4 -1.3
v 0.1 0.4 -1.4
v -0.0999999 0.4 1.6
v -0.0999999 0.4 1.5
v -0.0999999 0.4 -1.3
v -0.0999999 0.4 -1.4
v -0.2 0.4 1.6
v -0.2 0.4 1.5
v -0.2 0.4 -1.3
v -0.2 0.4 -1.4
v -0.4 0.4 1.6
v -0.4 0.4 1.5
v -0.4 0.4 -1.3
v -0.4 0.4 -1.4
v -0.6 0.4 1.6
v -0.6 0.4 1.5
v -0.6 0.4 -1.3
v -0.6 0.4 -1.4
v -1 0.4 1.2
v -1 0.4 1.1
v -1 0.4 0.9
v -1 0.4 0.8
v -1 0.4 0.6
v -1 0.4 0.5
v -1 0.4 0.3
v -1 0.4 0.2
v -1 0.4 0
v -1 0.4 -0.1
v -1 0.4 -0.3
v -1 0.4 -0.4
v -1 0.4 -0.6
v -1 0.4 -0.7
v -1 0.4 -0.9
v -1 0.4 -1
v -1.1 0.4 1.2
v -1.1 0.4 1.1
v -1.1 0.4 0.9
v -1.1 0.4 0.8
v -1.1 0.4 -0.6
v -1.1 0.4 -0.7
v -1.1 0.4 -0.9
v -1.1 0.4 -1
v -1.2 0.4 0.6
v -1.2 0.4 0.5
v -1.2 0.4 0.3
v -1.2 0.4 0.2
v -1.2 0.4 0
v -1.2 0.4 -0.1
v -1.2 0.4 -0.3
v -1.2 0.4 -0.4
v 1.2 0.6 0.7
v 1.2 0.6 0.6
v 1.2 0.6 -0.4
v 1.2 0.6 -0.5
v 1 0.6 0.7
v 1 0.6 0.6
v 1 0.6 -0.4
v 1 0.6 -0.5
v -1 0.6 0.7
v -1 0.6 0.6
v -1 0.6 -0.4
v -1 0.6 -0.5
v -1.2 0.6 0.7
v -1.2 0.6 0.6
v -1.2 0.6 -0.4
v -1.2 0.6 -0.5
v 1.1 0.8 1.4
v 1.1 0.8 0.7
v 1.1 0.8 -0.5
v 1.1 0.8 -1.2
v 1 0.8 1.3
v 1 0.8 0.7
v 1 0.8 -0.5
v 1 0.8 -1.1
v 0.9 0.8 1.6
v 0.9 0.8 1.4
v 0.9 0.8 -1.2
v 0.9 0.8 -1.4
v 0.8 0.8 1.5
v 0.8 0.8 1.3
v 0.8 0.8 -1.1
v 0.8 0.8 -1.3
v -0.8 0.8 1.5
v -0.8 0.8 1.3
v -0.8 0.8 -1.1
v -0.8 0.8 -1.3
v -0.9 0.8 1.6
v -0.9 0.8 1.4
v -0.9 0.8 -1.2
v -0.9 0.8 -1.4
v -1 0.8 1.3
v -1 0.8 0.7
v -1 0.8 -0.5
v -1 0.8 -1.1
v -1.1 0.8 1.4
v -1.1 0.8 0.7
v -1.1 0.8 -0.5
v -1.1 0.8 -1.2
v 1.1 0.2 1.4
v 1.1 0.2 1.2
v 1.1 0.2 1
v 1.1 0.2 0.7
v 1.1 0.2 -0.9
v 1.1 0.2 -1.1
v 1.1 0.2 -1.2
v 1 0.2 1.3
v 1 0.2 1.2
v 1 0.2 1
v 1 0.2 0.7
v 1 0.2 -0.9
v 1 0.2 -1.1
v 0.9 0.2 1.6
v 0.9 0.2 1.4
v 0.9 0.2 -1.1
v 0.9 0.2 -1.2
v 0.9 0.2 -1.3
v 0.9 0.2 -1.4
v 0.8 0.2 1.5
v 0.8 0.2 1.4
v 0.8 0.2 1.3
v 0.8 0.2 -1.1
v 0.8 0.2 -1.3
v 0.6 0.2 1.6
v 0.6 0.2 1.5
v 0.6 0.2 -1.3
v 0.6 0.2 -1.4
v 0.4 0.2 1.6
v 0.4 0.2 1.5
v 0.3 0.2 1.6
v 0.3 0.2 1.5
v 0.3 0.2 -1.3
v 0.3 0.2 -1.4
v 0.2 0.2 -1.3
v 0.2 0.2 -1.4
v 0.1 0.2 1.6
v 0.1 0.2 1.5
v -0.2 0.2 1.6
v -0.2 0.2 1.5
v -0.2 0.2 -1.3
v -0.2 0.2 -1.4
v -0.4 0.2 1.6
v -0.4 0.2 1.5
v -0.5 0.2 1.6
v -0.5 0.2 1.5
v -0.6 0.2 -1.3
v -0.6 0.2 -1.4
v -0.7 0.2 1.6
v -0.7 0.2 1.5
v -0.8 0.2 1.5
v -0.8 0.2 1.4
v -0.8 0.2 1.3
v -0.8 0.2 -1.1
v -0.8 0.2 -1.3
v -0.8 0.2 -1.4
v -0.9 0.2 1.6
v -0.9 0.2 1.4
v -0.9 0.2 -1.2
v -0.9 0.2 -1.3
v -0.9 0.2 -1.4
v -1 0.2 1.3
v -1 0.2 1.2
v -1 0.2 -0.8
v -1 0.2 -1
v -1 0.2 -1.1
v -1.1 0.2 1.4
v -1.1 0.2 1.2
v -1.1 0.2 -0.8
v -1.1 0.2 -1
v -1.1 0.2 -1.1
v -1.1 0.2 -1.2
v 1.1 0.6 1.2
v 1.1 0.6 1.1
v 1.1 0.6 0.9
v 1.1 0.6 0.8
v 1.1 0.6 -0.6
v 1.1 0.6 -0.7
v 1.1 0.6 -0.9
v 1.1 0.6 -1
v 1 0.6 1.2
v 1 0.6 1.1
v 1 0.6 0.9
v 1 0.6 0.8
v 1 0.6 -0.6
v 1 0.6 -0.7
v 1 0.6 -0.9
v 1 0.6 -1
v 0.6 0.6 1.6
v 0.6 0.6 1.5
v 0.6 0.6 -1.3
v 0.6 0.6 -1.4
v 0.4 0.6 1.6
v 0.4 0.6 1.5
v 0.4 0.6 -1.3
v 0.4 0.6 -1.4
v 0.2 0.6 1.6
v 0.2 0.6 1.5
v 0.2 0.6 -1.3
v 0.2 0.6 -1.4
v 0.1 0.6 1.6
v 0.1 0.6 1.5
v 0.1 0.6 -1.3
v 0.1 0.6 -1.4
v -0.0999999 0.6 1.6
v -0.0999999 0.6 1.5
v -0.0999999 0.6 -1.3
v -0.0999999 0.6 -1.4
v -0.2 0.6 1.6
v -0.2 0.6 1.5
v -0.2 0.6 -1.3
v -0.2 0.6 -1.4
v -0.4 0.6 1.6
v -0.4 0.6 1.5
v -0.4 0.6 -1.3
v -0.4 0.6 -1.4
v -0.6 0.6 1.6
v -0.6 0.6 1.5
v -0.6 0.6 -1.3
v -0.6 0.6 -1.4
v -1 0.6 1.2
v -1 0.6 1.1
v -1 0.6 0.9
v -1 0.6 0.8
v -1 0.6 -0.6
v -1 0.6 -0.7
v -1 0.6 -0.9
v -1 0.6 -1
v -1.1 0.6 1.2
v -1.1 0.6 1.1
v -1.1 0.6 0.9
v -1.1 0.6 0.8
v -1.1 0.6 -0.6
v -1.1 0.6 -0.7
v -1.1 0.6 -0.9
v -1.1 0.6 -1
v 1.1 0.7 1.1
v 1.1 0.7 0.9
v 1.1 0.7 -0.7
v 1.1 0.7 -0.9
v 1 0.7 1.1
v 1 0.7 0.9
v 1 0.7 -0.7
v 1 0.7 -0.9
v 0.1 0.7 1.6
v 0.1 0.7 1.5
v 0.1 0.7 -1.3
v 0.1 0.7 -1.4
v -0.0999999 0.7 1.6
v -0.0999999 0.7 1.5
v -0.0999999 0.7 -1.3
v -0.0999999 0.7 -1.4
v -1 0.7 1.1
v -1 0.7 0.9
v -1 0.7 -0.7
v -1 0.7 -0.9
v -1.1 0.7 1.1
v -1.1 0.7 0.9
v -1.1 0.7 -0.7
v -1.1 0.7 -0.9
v 0.8 0.9 1.3
v 0.8 0.9 -1.1
v -0.8 0.9 1.3
v -0.8 0.9 -1.1
v 1.1 1 1.4
v 1.1 1 1.2
v 1.1 1 1.1
v 1.1 1 0.7
v 1.1 1 -0.5
v 1.1 1 -0.8
v 1.1 1 -1
v 1.1 1 -1.1
v 1.1 1 -1.2
v 1 1 1.4
v 1 1 1.3
v 1 1 1.2
v 1 1 1.1
v 1 1 0.7
v 1 1 -0.5
v 1 1 -0.8
v 1 1 -1
v 1 1 -1.1
v 0.9 1 1.6
v 0.9 1 1.4
v 0.9 1 -1.2
v 0.9 1 -1.4
v 0.8 1 1.5
v 0.8 1 1.3
v 0.8 1 -1.1
v 0.8 1 -1.2
v 0.8 1 -1.3
v 0.8 1 -1.4
v 0.7 1 1.6
v 0.7 1 1.5
v 0.6 1 -1.3
v 0.6 1 -1.4
v 0.5 1 1.6
v 0.5 1 1.5
v 0.1 1 1.6
v 0.1 1 1.5
v 0.1 1 -1.3
v 0.1 1 -1.4
v -0.0999999 1 -1.3
v -0.0999999 1 -1.4
v -0.2 1 -1.3
v -0.2 1 -1.4
v -0.5 1 -1.3
v -0.5 1 -1.4
v -0.6 1 1.6
v -0.6 1 1.5
v -0.7 1 1.6
v -0.7 1 1.5
v -0.8 1 1.6
v -0.8 1 1.5
v -0.8 1 1.3
v -0.8 1 -1.1
v -0.8 1 -1.2
v -0.8 1 -1.3
v -0.9 1 1.6
v -0.9 1 1.4
v -0.9 1 -1.2
v -0.9 1 -1.4
v -1 1 1.3
v -1 1 1.1
v -1 1 0.9
v -1 1 0.7
v -1 1 -0.5
v -1 1 -0.8
v -1 1 -1
v -1 1 -1.1
v -1 1 -1.2
v -1.1 1 1.4
v -1.1 1 1.3
v -1.1 1 1.1
v -1.1 1 0.9
v -1.1 1 0.7
v -1.1 1 -0.5
v -1.1 1 -0.8
v -1.1 1 -1
v -1.1 1 -1.2
v 1.2 1.2 0.7
v 1.2 1.2 0.6
v 1.2 1.2 -0.4
v 1.2 1.2 -0.5
v 1.1 1.2 -0.4
v 1.1 1.2 -0.5
v 1 1.2 0.7
v 1 1.2 0.6
v 1 1.2 -0.4
v 1 1.2 -0.5
v -1 1.2 0.7
v -1 1.2 0.6
v -1 1.2 -0.4
v -1 1.2 -0.5
v -1.1 1.2 0.7
v -1.1 1.2 0.6
v -1.1 1.2 -0.4
v -1.1 1.2 -0.5
v -1.2 1.2 0.7
v -1.2 1.2 0.6
v -1.2 1.2 -0.4
v -1.2 1.2 -0.5
v 1.2 1.3 0.6
v 1.2 1.3 0.5
v 1.2 1.3 -0.3
v 1.2 1.3 -0.4
v 1.1 1.3 -0.3
v 1.1 1.3 -0.4
v 1 1.3 0.6
v 1 1.3 0.5
v 1 1.3 -0.3
v 1 1.3 -0.4
v -1 1.3 0.6
v -1 1.3 0.5
v -1 1.3 -0.3
v -1 1.3 -0.4
v -1.1 1.3 0.6
v -1.1 1.3 0.5
v -1.1 1.3 -0.3
v -1.1 1.3 -0.4
v -1.2 1.3 0.6
v -1.2 1.3 0.5
v -1.2 1.3 -0.3
v -1.2 1.3 -0.4
v 1.2 1.4 0.5
v 1.2 1.4 0.3
v 1.2 1.4 0
v 1.2 1.4 -0.2
v 1.2 1.4 -0.3
v 1.1 1.4 0.3
v 1.1 1.4 0
v 1.1 1.4 -0.2
v 1.1 1.4 -0.3
v 1 1.4 0.5
v 1 1.4 -0.3
v -1 1.4 0.5
v -1 1.4 -0.3
v -1.1 1.4 0.3
v -1.1 1.4 0
v -1.1 1.4 -0.2
v -1.1 1.4 -0.3
v -1.2 1.4 0.5
v -1.2 1.4 0.3
v -1.2 1.4 0
v -1.2 1.4 -0.2
v -1.2 1.4 -0.3
v 1 1.5 1.3
v 1 1.5 1.1
v 1 1.5 0.7
v 1 1.5 0.3
v 1 1.5 -0.1
v 1 1.5 -0.5
v 1 1.5 -0.9
v 1 1.5 -1.1
v 0.8 1.5 1.5
v 0.8 1.5 1.3
v 0.8 1.5 1.1
v 0.8 1.5 0.7
v 0.8 1.5 0.3
v 0.8 1.5 -0.1
v 0.8 1.5 -0.5
v 0.8 1.5 -0.9
v 0.8 1.5 -1.1
v 0.8 1.5 -1.3
v 0.6 1.5 1.5
v 0.6 1.5 1.3
v 0.6 1.5 -1.1
v 0.6 1.5 -1.3
v 0.2 1.5 1.5
v 0.2 1.5 1.3
v 0.2 1.5 -1.1
v 0.2 1.5 -1.3
v -0.2 1.5 1.5
v -0.2 1.5 1.3
v -0.2 1.5 -1.1
v -0.2 1.5 -1.3
v -0.6 1.5 1.5
v -0.6 1.5 1.3
v -0.6 1.5 -1.1
v -0.6 1.5 -1.3
v -0.8 1.5 1.5
v -0.8 1.5 1.3
v -0.8 1.5 1.1
v -0.8 1.5 0.7
v -0.8 1.5 0.3
v -0.8 1.5 -0.1
v -0.8 1.5 -0.5
v -0.8 1.5 -0.9
v -0.8 1.5 -1.1
v -0.8 1.5 -1.3
v -1 1.5 1.3
v -1 1.5 1.1
v -1 1.5 0.7
v -1 1.5 0.3
v -1 1.5 -0.1
v -1 1.5 -0.5
v -1 1.5 -0.9
v -1 1.5 -1.1
v 1 1.8 1.1
v 1 1.8 0.9
v 1 1.8 0.8
v 1 1.8 0.7
v 1 1.8 0.3
v 1 1.8 0.1
v 1 1.8 0
v 1 1.8 -0.1
v 1 1.8 -0.5
v 1 1.8 -0.7
v 1 1.8 -0.8
v 1 1.8 -0.9
v 0.9 1.8 1.1
v 0.9 1.8 0.9
v 0.9 1.8 0.8
v 0.9 1.8 0.7
v 0.9 1.8 0.3
v 0.9 1.8 0.1
v 0.9 1.8 0
v 0.9 1.8 -0.1
v 0.9 1.8 -0.5
v 0.9 1.8 -0.7
v 0.9 1.8 -0.8
v 0.9 1.8 -0.9
v 0.8 1.8 1.1
v 0.8 1.8 0.7
v 0.8 1.8 0.3
v 0.8 1.8 -0.1
v 0.8 1.8 -0.5
v 0.8 1.8 -0.9
v 0.6 1.8 1.5
v 0.6 1.8 1.4
v 0.6 1.8 1.3
v 0.6 1.8 -1.1
v 0.6 1.8 -1.2
v 0.6 1.8 -1.3
v 0.5 1.8 1.5
v 0.5 1.8 1.4
v 0.5 1.8 -1.2
v 0.5 1.8 -1.3
v 0.4 1.8 1.5
v 0.4 1.8 1.4
v 0.4 1.8 -1.2
v 0.4 1.8 -1.3
v 0.2 1.8 1.5
v 0.2 1.8 1.4
v 0.2 1.8 1.3
v 0.2 1.8 -1.1
v 0.2 1.8 -1.2
v 0.2 1.8 -1.3
v -0.2 1.8 1.5
v -0.2 1.8 1.4
v -0.2 1.8 1.3
v -0.2 1.8 -1.1
v -0.2 1.8 -1.2
v -0.2 1.8 -1.3
v -0.3 1.8 1.5
v -0.3 1.8 1.4
v -0.3 1.8 -1.2
v -0.3 1.8 -1.3
v -0.4 1.8 1.5
v -0.4 1.8 1.4
v -0.4 1.8 -1.2
v -0.4 1.8 -1.3
v -0.6 1.8 1.5
v -0.6 1.8 1.4
v -0.6 1.8 1.3
v -0.6 1.8 -1.1
v -0.6 1.8 -1.2
v -0.6 1.8 -1.3
v -0.8 1.8 1.1
v -0.8 1.8 0.7
v -0.8 1.8 0.3
v -0.8 1.8 -0.1
v -0.8 1.8 -0.5
v -0.8 1.8 -0.9
v -0.9 1.8 1.1
v -0.9 1.8 1
v -0.9 1.8 0.9
v -0.9 1.8 0.7
v -0.9 1.8 0.3
v -0.9 1.8 0.2
v -0.9 1.8 0.1
v -0.9 1.8 -0.1
v -0.9 1.8 -0.5
v -0.9 1.8 -0.6
v -0.9 1.8 -0.7
v -0.9 1.8 -0.9
v -1 1.8 1.1
v -1 1.8 1
v -1 1.8 0.9
v -1 1.8 0.7
v -1 1.8 0.3
v -1 1.8 0.2
v -1 1.8 0.1
v -1 1.8 -0.1
v -1 1.8 -0.5
v -1 1.8 -0.6
v -1 1.8 -0.7
v -1 1.8 -0.9

# faces
f 3/5/1 2/5/1 1/5/1
f 4/5/1 2/5/1 3/5/1
f 5/5/1 2/5/1 4/5/1
f 6/5/1 2/5/1 5/5/1
f 7/5/1 2/5/1 6/5/1
f 8/5/1 2/5/1 7/5/1
f 9/5/1 2/5/1 8/5/1
f 10/5/1 2/5/1 9/5/1
f 11/5/1 2/5/1 10/5/1
f 12/5/1 3/5/1 1/5/1
f 13/2/1 4/2/1 3/2/1
f 13/5/1 3/5/1 12/5/1
f 14/3/1 5/3/1 4/3/1
f 14/2/1 4/2/1 13/2/1
f 15/2/1 6/2/1 5/2/1
f 15/3/1 5/3/1 14/3/1
f 16/5/1 7/5/1 6/5/1
f 16/2/1 6/2/1 15/2/1
f 17/2/1 8/2/1 7/2/1
f 17/5/1 7/5/1 16/5/1
f 18/3/1 9/3/1 8/3/1
f 18/2/1 8/2/1 17/2/1
f 19/2/1 10/2/1 9/2/1
f 19/3/1 9/3/1 18/3/1
f 20/3/1 11/3/1 10/3/1
f 20/2/1 10/2/1 19/2/1
f 21/3/1 11/3/1 20/3/1
f 27/7/1 23/7/1 22/7/1
f 28/7/1 23/7/1 27/7/1
f 32/1/1 25/1/1 24/1/1
f 33/1/1 25/1/1 32/1/1
f 34/7/1 27/7/1 26/7/1
f 34/7/1 28/7/1 27/7/1
f 34/7/1 29/7/1 28/7/1
f 35/7/1 29/7/1 34/7/1
f 36/7/1 29/7/1 35/7/1
f 37/7/1 29/7/1 36/7/1
f 38/1/1 31/1/1 30/1/1
f 39/1/1 31/1/1 38/1/1
f 40/7/1 36/7/1 35/7/1
f 41/7/1 36/7/1 40/7/1
f 44/5/1 43/5/1 42/5/1
f 45/5/1 43/5/1 44/5/1
f 46/5/1 43/5/1 45/5/1
f 47/5/1 43/5/1 46/5/1
f 48/5/1 43/5/1 47/5/1
f 49/5/1 43/5/1 48/5/1
f 50/5/1 43/5/1 49/5/1
f 51/5/1 43/5/1 50/5/1
f 52/2/1 45/2/1 44/2/1
f 53/3/1 46/3/1 45/3/1
f 53/2/1 45/2/1 52/2/1
f 54/2/1 47/2/1 46/2/1
f 54/3/1 46/3/1 53/3/1
f 55/5/1 48/5/1 47/5/1
f 55/2/1 47/2/1 54/2/1
f 56/2/1 49/2/1 48/2/1
f 56/5/1 48/5/1 55/5/1
f 57/3/1 50/3/1 49/3/1
f 57/2/1 49/2/1 56/2/1
f 58/2/1 51/2/1 50/2/1
f 58/3/1 50/3/1 57/3/1
f 59/2/1 51/2/1 58/2/1
f 70/5/1 61/5/1 60/5/1
f 70/5/1 69/5/1 68/5/1
f 70/5/1 68/5/1 67/5/1
f 70/5/1 67/5/1 66/5/1
f 70/5/1 66/5/1 65/5/1
f 70/5/1 65/5/1 64/5/1
f 70/5/1 64/5/1 63/5/1
f 70/5/1 63/5/1 62/5/1
f 70/5/1 62/5/1 61/5/1
f 71/5/1 69/5/1 70/5/1
f 72/5/1 70/5/1 60/5/1
f 73/5/1 70/5/1 72/5/1
f 74/5/1 70/5/1 73/5/1
f 75/5/1 70/5/1 74/5/1
f 76/5/1 69/5/1 71/5/1
f 77/5/1 69/5/1 76/5/1
f 78/5/1 69/5/1 77/5/1
f 79/5/1 69/5/1 78/5/1
f 80/5/1 72/5/1 60/5/1
f 81/5/1 74/5/1 73/5/1
f 82/5/1 74/5/1 81/5/1
f 85/5/1 78/5/1 77/5/1
f 86/5/1 78/5/1 85/5/1
f 87/5/1 69/5/1 79/5/1
f 88/5/1 83/5/1 82/5/1
f 88/5/1 81/5/1 80/5/1
f 88/5/1 82/5/1 81/5/1
f 89/5/1 86/5/1 85/5/1
f 89/5/1 87/5/1 86/5/1
f 89/5/1 85/5/1 84/5/1
f 90/5/1 88/5/1 80/5/1
f 90/5/1 89/5/1 88/5/1
f 90/5/1 80/5/1 60/5/1
f 91/5/1 87/5/1 89/5/1
f 91/5/1 89/5/1 90/5/1
f 91/5/1 69/5/1 87/5/1
f 99/5/1 93/5/1 92/5/1
f 99/5/1 98/5/1 97/5/1
f 99/5/1 97/5/1 96/5/1
f 99/5/1 96/5/1 95/5/1
f 99/5/1 95/5/1 94/5/1
f 99/5/1 94/5/1 93/5/1
f 100/5/1 98/5/1 99/5/1
f 101/5/1 98/5/1 100/5/1
f 102/5/1 98/5/1 101/5/1
f 103/5/1 98/5/1 102/5/1
f 104/5/1 98/5/1 103/5/1
f 105/5/1 101/5/1 100/5/1
f 106/5/1 101/5/1 105/5/1
f 107/5/1 101/5/1 106/5/1
f 108/5/1 101/5/1 107/5/1
f 109/5/1 103/5/1 102/5/1
f 110/5/1 103/5/1 109/5/1
f 111/5/1 103/5/1 110/5/1
f 112/5/1 103/5/1 111/5/1
f 113/2/1 106/2/1 105/2/1
f 114/3/1 107/3/1 106/3/1
f 114/2/1 106/2/1 113/2/1
f 115/2/1 108/2/1 107/2/1
f 115/3/1 107/3/1 114/3/1
f 116/2/1 108/2/1 115/2/1
f 117/2/1 110/2/1 109/2/1
f 118/3/1 111/3/1 110/3/1
f 118/2/1 110/2/1 117/2/1
f 119/2/1 112/2/1 111/2/1
f 119/3/1 111/3/1 118/3/1
f 120/2/1 112/2/1 119/2/1
f 125/5/1 122/5/1 121/5/1
f 126/5/1 122/5/1 125/5/1
f 127/5/1 124/5/1 123/5/1
f 128/5/1 124/5/1 127/5/1
f 129/2/1 126/2/1 125/2/1
f 130/2/1 126/2/1 129/2/1
f 131/2/1 128/2/1 127/2/1
f 132/2/1 128/2/1 131/2/1
f 137/5/1 134/5/1 133/5/1
f 138/5/1 134/5/1 137/5/1
f 139/5/1 134/5/1 138/5/1
f 140/5/1 136/5/1 135/5/1
f 141/5/1 136/5/1 140/5/1
f 142/3/1 138/3/1 137/3/1
f 143/2/1 139/2/1 138/2/1
f 143/3/1 138/3/1 142/3/1
f 144/2/1 139/2/1 143/2/1
f 145/2/1 141/2/1 140/2/1
f 146/2/1 141/2/1 145/2/1
f 151/5/1 148/5/1 147/5/1
f 152/5/1 148/5/1 151/5/1
f 153/5/1 150/5/1 149/5/1
f 154/5/1 150/5/1 153/5/1
f 159/5/1 156/5/1 155/5/1
f 160/5/1 156/5/1 159/5/1
f 161/5/1 158/5/1 157/5/1
f 162/5/1 158/5/1 161/5/1
f 167/6/1 164/6/1 163/6/1
f 168/6/1 164/6/1 167/6/1
f 169/6/1 166/6/1 165/6/1
f 170/6/1 166/6/1 169/6/1
f 175/6/1 172/6/1 171/6/1
f 176/6/1 172/6/1 175/6/1
f 177/6/1 174/6/1 173/6/1
f 178/6/1 174/6/1 177/6/1
f 183/6/1 180/6/1 179/6/1
f 184/6/1 180/6/1 183/6/1
f 185/6/1 182/6/1 181/6/1
f 186/6/1 182/6/1 185/6/1
f 191/5/1 188/5/1 187/5/1
f 192/5/1 188/5/1 191/5/1
f 193/5/1 190/5/1 189/5/1
f 194/5/1 190/5/1 193/5/1
f 195/2/1 192/2/1 191/2/1
f 196/5/1 188/5/1 192/5/1
f 196/2/1 192/2/1 195/2/1
f 197/5/1 188/5/1 196/5/1
f 198/5/1 193/5/1 189/5/1
f 199/2/1 194/2/1 193/2/1
f 199/5/1 193/5/1 198/5/1
f 200/2/1 194/2/1 199/2/1
f 205/5/1 202/5/1 201/5/1
f 206/5/1 202/5/1 205/5/1
f 207/5/1 204/5/1 203/5/1
f 208/5/1 204/5/1 207/5/1
f 209/5/1 205/5/1 201/5/1
f 212/5/1 204/5/1 208/5/1
f 213/5/1 204/5/1 212/5/1
f 213/5/1 212/5/1 211/5/1
f 214/5/1 204/5/1 213/5/1
f 215/5/1 210/5/1 209/5/1
f 215/5/1 209/5/1 201/5/1
f 216/5/1 210/5/1 215/5/1
f 217/5/1 213/5/1 211/5/1
f 218/2/1 214/2/1 213/2/1
f 218/5/1 213/5/1 217/5/1
f 219/2/1 214/2/1 218/2/1
f 224/5/1 221/5/1 220/5/1
f 225/5/1 221/5/1 224/5/1
f 226/5/1 223/5/1 222/5/1
f 227/5/1 223/5/1 226/5/1
f 233/5/1 229/5/1 228/5/1
f 234/5/1 229/5/1 233/5/1
f 235/5/1 231/5/1 230/5/1
f 236/2/1 232/2/1 231/2/1
f 236/5/1 231/5/1 235/5/1
f 237/2/1 232/2/1 236/2/1
f 242/5/1 239/5/1 238/5/1
f 243/5/1 239/5/1 242/5/1
f 244/5/1 241/5/1 240/5/1
f 245/5/1 241/5/1 244/5/1
f 251/5/1 247/5/1 246/5/1
f 252/5/1 247/5/1 251/5/1
f 253/5/1 250/5/1 249/5/1
f 253/5/1 249/5/1 248/5/1
f 254/5/1 250/5/1 253/5/1
f 259/5/1 256/5/1 255/5/1
f 260/5/1 256/5/1 259/5/1
f 261/5/1 258/5/1 257/5/1
f 262/5/1 258/5/1 261/5/1
f 263/2/1 260/2/1 259/2/1
f 264/5/1 256/5/1 260/5/1
f 264/2/1 260/2/1 263/2/1
f 265/5/1 256/5/1 264/5/1
f 266/5/1 261/5/1 257/5/1
f 267/2/1 262/2/1 261/2/1
f 267/5/1 261/5/1 266/5/1
f 268/2/1 262/2/1 267/2/1
f 273/5/1 270/5/1 269/5/1
f 274/5/1 270/5/1 273/5/1
f 275/5/1 272/5/1 271/5/1
f 276/5/1 272/5/1 275/5/1
f 281/5/1 278/5/1 277/5/1
f 282/5/1 278/5/1 281/5/1
f 283/5/1 280/5/1 279/5/1
f 284/5/1 280/5/1 283/5/1
f 289/5/1 286/5/1 285/5/1
f 290/5/1 286/5/1 289/5/1
f 291/5/1 288/5/1 287/5/1
f 292/5/1 288/5/1 291/5/1
f 293/2/1 290/2/1 289/2/1
f 294/5/1 286/5/1 290/5/1
f 294/2/1 290/2/1 293/2/1
f 295/5/1 286/5/1 294/5/1
f 296/5/1 291/5/1 287/5/1
f 297/2/1 292/2/1 291/2/1
f 297/5/1 291/5/1 296/5/1
f 298/2/1 292/2/1 297/2/1
f 303/6/1 300/6/1 299/6/1
f 304/6/1 300/6/1 303/6/1
f 305/6/1 302/6/1 301/6/1
f 306/6/1 302/6/1 305/6/1
f 311/6/1 308/6/1 307/6/1
f 312/6/1 308/6/1 311/6/1
f 313/6/1 310/6/1 309/6/1
f 314/6/1 310/6/1 313/6/1
f 319/6/1 316/6/1 315/6/1
f 320/6/1 316/6/1 319/6/1
f 321/6/1 318/6/1 317/6/1
f 322/6/1 318/6/1 321/6/1
f 325/5/1 324/5/1 323/5/1
f 326/5/1 324/5/1 325/5/1
f 327/5/1 324/5/1 326/5/1
f 328/5/1 324/5/1 327/5/1
f 329/5/1 324/5/1 328/5/1
f 330/5/1 324/5/1 329/5/1
f 331/5/1 327/5/1 326/5/1
f 332/5/1 327/5/1 331/5/1
f 333/5/1 329/5/1 328/5/1
f 334/5/1 329/5/1 333/5/1
f 335/5/2 336/5/2 337/5/2
f 337/5/2 336/5/2 338/5/2
f 338/5/2 336/5/2 339/5/2
f 339/5/2 336/5/2 340/5/2
f 340/5/2 336/5/2 341/5/2
f 341/5/2 336/5/2 342/5/2
f 338/5/2 339/5/2 343/5/2
f 343/5/2 339/5/2 344/5/2
f 340/5/2 341/5/2 345/5/2
f 345/5/2 341/5/2 346/5/2
f 347/6/2 348/6/2 351/6/2
f 351/6/2 348/6/2 352/6/2
f 349/6/2 350/6/2 353/6/2
f 353/6/2 350/6/2 354/6/2
f 355/6/2 356/6/2 359/6/2
f 359/6/2 356/6/2 360/6/2
f 357/6/2 358/6/2 361/6/2
f 361/6/2 358/6/2 362/6/2
f 363/6/2 364/6/2 367/6/2
f 367/6/2 364/6/2 368/6/2
f 365/6/2 366/6/2 369/6/2
f 369/6/2 366/6/2 370/6/2
f 371/5/2 372/5/2 375/5/2
f 375/5/2 372/5/2 376/5/2
f 373/5/2 374/5/2 377/5/2
f 377/5/2 374/5/2 378/5/2
f 375/2/2 376/2/2 379/2/2
f 376/5/2 372/5/2 380/5/2
f 379/2/2 376/2/2 380/2/2
f 380/5/2 372/5/2 381/5/2
f 373/5/2 377/5/2 382/5/2
f 377/2/2 378/2/2 383/2/2
f 382/5/2 377/5/2 383/5/2
f 383/2/2 378/2/2 384/2/2
f 385/5/2 386/5/2 389/5/2
f 389/5/2 386/5/2 390/5/2
f 387/5/2 388/5/2 391/5/2
f 391/5/2 388/5/2 392/5/2
f 393/5/2 394/5/2 397/5/2
f 397/5/2 394/5/2 398/5/2
f 395/5/2 396/5/2 399/5/2
f 399/5/2 396/5/2 400/5/2
f 401/5/2 402/5/2 405/5/2
f 405/5/2 402/5/2 406/5/2
f 403/5/2 404/5/2 407/5/2
f 407/5/2 404/5/2 408/5/2
f 405/2/2 406/2/2 409/2/2
f 406/5/2 402/5/2 410/5/2
f 409/2/2 406/2/2 410/2/2
f 410/5/2 402/5/2 411/5/2
f 403/5/2 407/5/2 412/5/2
f 407/2/2 408/2/2 413/2/2
f 412/5/2 407/5/2 413/5/2
f 413/2/2 408/2/2 414/2/2
f 415/5/2 416/5/2 419/5/2
f 419/5/2 416/5/2 420/5/2
f 417/5/2 418/5/2 421/5/2
f 421/5/2 418/5/2 422/5/2
f 423/2/2 424/2/2 429/2/2
f 424/5/2 425/5/2 430/5/2
f 429/2/2 424/2/2 430/2/2
f 430/5/2 425/5/2 431/5/2
f 426/5/2 427/5/2 432/5/2
f 427/2/2 428/2/2 433/2/2
f 432/5/2 427/5/2 433/5/2
f 433/2/2 428/2/2 434/2/2
f 435/5/2 436/5/2 439/5/2
f 439/5/2 436/5/2 440/5/2
f 437/5/2 438/5/2 441/5/2
f 441/5/2 438/5/2 442/5/2
f 443/2/2 444/2/2 449/2/2
f 444/5/2 445/5/2 450/5/2
f 449/2/2 444/2/2 450/2/2
f 450/5/2 445/5/2 451/5/2
f 446/5/2 447/5/2 452/5/2
f 447/2/2 448/2/2 453/2/2
f 452/5/2 447/5/2 453/5/2
f 453/2/2 448/2/2 454/2/2
f 455/5/2 456/5/2 459/5/2
f 459/5/2 456/5/2 460/5/2
f 457/5/2 458/5/2 461/5/2
f 461/5/2 458/5/2 462/5/2
f 455/5/2 459/5/2 463/5/2
f 462/5/2 458/5/2 466/5/2
f 463/5/2 464/5/2 467/5/2
f 455/5/2 463/5/2 467/5/2
f 467/5/2 464/5/2 468/5/2
f 465/5/2 466/5/2 469/5/2
f 466/5/2 458/5/2 469/5/2
f 469/5/2 458/5/2 470/5/2
f 467/2/2 468/2/2 471/2/2
f 468/5/2 464/5/2 472/5/2
f 471/2/2 468/2/2 472/2/2
f 472/5/2 464/5/2 473/5/2
f 465/5/2 469/5/2 474/5/2
f 469/2/2 470/2/2 475/2/2
f 474/5/2 469/5/2 475/5/2
f 475/2/2 470/2/2 476/2/2
f 477/6/2 478/6/2 481/6/2
f 481/6/2 478/6/2 482/6/2
f 479/6/2 480/6/2 483/6/2
f 483/6/2 480/6/2 484/6/2
f 485/6/2 486/6/2 489/6/2
f 489/6/2 486/6/2 490/6/2
f 487/6/2 488/6/2 491/6/2
f 491/6/2 488/6/2 492/6/2
f 493/5/2 494/5/2 497/5/2
f 497/5/2 494/5/2 498/5/2
f 495/5/2 496/5/2 499/5/2
f 499/5/2 496/5/2 500/5/2
f 497/2/2 498/2/2 501/2/2
f 498/5/2 494/5/2 502/5/2
f 501/2/2 498/2/2 502/2/2
f 502/5/2 494/5/2 503/5/2
f 495/5/2 499/5/2 504/5/2
f 499/2/2 500/2/2 505/2/2
f 504/5/2 499/5/2 505/5/2
f 505/2/2 500/2/2 506/2/2
f 507/6/2 508/6/2 511/6/2
f 511/6/2 508/6/2 512/6/2
f 509/6/2 510/6/2 513/6/2
f 513/6/2 510/6/2 514/6/2
f 515/5/2 516/5/2 520/5/2
f 516/5/2 517/5/2 520/5/2
f 520/5/2 517/5/2 521/5/2
f 518/5/2 519/5/2 522/5/2
f 522/5/2 519/5/2 523/5/2
f 524/5/2 525/5/2 528/5/2
f 528/5/2 525/5/2 529/5/2
f 526/5/2 527/5/2 530/5/2
f 530/5/2 527/5/2 531/5/2
f 532/5/2 533/5/2 536/5/2
f 536/5/2 533/5/2 537/5/2
f 534/5/2 535/5/2 538/5/2
f 538/5/2 535/5/2 539/5/2
f 536/3/2 537/3/2 540/3/2
f 540/3/2 537/3/2 541/3/2
f 538/2/2 539/2/2 542/2/2
f 542/2/2 539/2/2 543/2/2
f 544/5/2 545/5/2 548/5/2
f 548/5/2 545/5/2 549/5/2
f 546/5/2 547/5/2 550/5/2
f 550/5/2 547/5/2 551/5/2
f 551/5/2 547/5/2 552/5/2
f 548/2/2 549/2/2 553/2/2
f 553/2/2 549/2/2 554/2/2
f 550/2/2 551/2/2 555/2/2
f 551/3/2 552/3/2 556/3/2
f 555/2/2 551/2/2 556/2/2
f 556/3/2 552/3/2 557/3/2
f 558/5/2 559/5/2 565/5/2
f 563/5/2 564/5/2 565/5/2
f 562/5/2 563/5/2 565/5/2
f 561/5/2 562/5/2 565/5/2
f 560/5/2 561/5/2 565/5/2
f 559/5/2 560/5/2 565/5/2
f 565/5/2 564/5/2 566/5/2
f 558/5/2 565/5/2 567/5/2
f 567/5/2 565/5/2 568/5/2
f 568/5/2 565/5/2 569/5/2
f 569/5/2 565/5/2 570/5/2
f 566/5/2 564/5/2 571/5/2
f 571/5/2 564/5/2 572/5/2
f 572/5/2 564/5/2 573/5/2
f 573/5/2 564/5/2 574/5/2
f 558/5/2 567/5/2 575/5/2
f 568/5/2 569/5/2 576/5/2
f 576/5/2 569/5/2 577/5/2
f 572/5/2 573/5/2 580/5/2
f 580/5/2 573/5/2 581/5/2
f 574/5/2 564/5/2 582/5/2
f 577/5/2 578/5/2 583/5/2
f 575/5/2 576/5/2 583/5/2
f 576/5/2 577/5/2 583/5/2
f 580/5/2 581/5/2 584/5/2
f 581/5/2 582/5/2 584/5/2
f 579/5/2 580/5/2 584/5/2
f 575/5/2 583/5/2 585/5/2
f 583/5/2 584/5/2 585/5/2
f 558/5/2 575/5/2 585/5/2
f 584/5/2 582/5/2 586/5/2
f 585/5/2 584/5/2 586/5/2
f 582/5/2 564/5/2 586/5/2
f 587/5/2 588/5/2 594/5/2
f 592/5/2 593/5/2 594/5/2
f 591/5/2 592/5/2 594/5/2
f 590/5/2 591/5/2 594/5/2
f 589/5/2 590/5/2 594/5/2
f 588/5/2 589/5/2 594/5/2
f 594/5/2 593/5/2 595/5/2
f 595/5/2 593/5/2 596/5/2
f 596/5/2 593/5/2 597/5/2
f 597/5/2 593/5/2 598/5/2
f 598/5/2 593/5/2 599/5/2
f 595/5/2 596/5/2 600/5/2
f 600/5/2 596/5/2 601/5/2
f 601/5/2 596/5/2 602/5/2
f 602/5/2 596/5/2 603/5/2
f 597/5/2 598/5/2 604/5/2
f 604/5/2 598/5/2 605/5/2
f 605/5/2 598/5/2 606/5/2
f 606/5/2 598/5/2 607/5/2
f 600/2/2 601/2/2 608/2/2
f 601/3/2 602/3/2 609/3/2
f 608/2/2 601/2/2 609/2/2
f 602/2/2 603/2/2 610/2/2
f 609/3/2 602/3/2 610/3/2
f 610/2/2 603/2/2 611/2/2
f 604/2/2 605/2/2 612/2/2
f 605/3/2 606/3/2 613/3/2
f 612/2/2 605/2/2 613/2/2
f 606/2/2 607/2/2 614/2/2
f 613/3/2 606/3/2 614/3/2
f 614/2/2 607/2/2 615/2/2
f 616/5/2 617/5/2 618/5/2
f 618/5/2 617/5/2 619/5/2
f 619/5/2 617/5/2 620/5/2
f 620/5/2 617/5/2 621/5/2
f 621/5/2 617/5/2 622/5/2
f 622/5/2 617/5/2 623/5/2
f 623/5/2 617/5/2 624/5/2
f 624/5/2 617/5/2 625/5/2
f 618/3/2 619/3/2 626/3/2
f 619/2/2 620/2/2 627/2/2
f 626/3/2 619/3/2 627/3/2
f 620/3/2 621/3/2 628/3/2
f 627/2/2 620/2/2 628/2/2
f 621/2/2 622/2/2 629/2/2
f 628/3/2 621/3/2 629/3/2
f 622/5/2 623/5/2 630/5/2
f 629/2/2 622/2/2 630/2/2
f 623/2/2 624/2/2 631/2/2
f 630/5/2 623/5/2 631/5/2
f 624/3/2 625/3/2 632/3/2
f 631/2/2 624/2/2 632/2/2
f 632/3/2 625/3/2 633/3/2
f 634/7/2 635/7/2 639/7/2
f 639/7/2 635/7/2 640/7/2
f 636/1/2 637/1/2 644/1/2
f 644/1/2 637/1/2 645/1/2
f 638/7/2 639/7/2 646/7/2
f 639/7/2 640/7/2 646/7/2
f 640/7/2 641/7/2 646/7/2
f 646/7/2 641/7/2 647/7/2
f 647/7/2 641/7/2 648/7/2
f 648/7/2 641/7/2 649/7/2
f 642/1/2 643/1/2 650/1/2
f 650/1/2 643/1/2 651/1/2
f 647/7/2 648/7/2 652/7/2
f 652/7/2 648/7/2 653/7/2
f 654/5/2 655/5/2 656/5/2
f 656/5/2 655/5/2 657/5/2
f 657/5/2 655/5/2 658/5/2
f 658/5/2 655/5/2 659/5/2
f 659/5/2 655/5/2 660/5/2
f 660/5/2 655/5/2 661/5/2
f 661/5/2 655/5/2 662/5/2
f 656/3/2 657/3/2 663/3/2
f 657/2/2 658/2/2 664/2/2
f 663/3/2 657/3/2 664/3/2
f 658/5/2 659/5/2 665/5/2
f 664/2/2 658/2/2 665/2/2
f 659/2/2 660/2/2 666/2/2
f 665/5/2 659/5/2 666/5/2
f 660/3/2 661/3/2 667/3/2
f 666/2/2 660/2/2 667/2/2
f 661/2/2 662/2/2 668/2/2
f 667/3/2 661/3/2 668/3/2
f 662/5/2 655/5/2 669/5/2
f 668/2/2 662/2/2 669/2/2
f 669/5/2 655/5/2 670/5/2
f 674/5/3 672/5/3 671/5/3
f 675/5/3 672/5/3 674/5/3
f 676/5/3 672/5/3 675/5/3
f 677/5/3 672/5/3 676/5/3
f 680/5/3 674/5/3 673/5/3
f 680/5/3 675/5/3 674/5/3
f 681/4/3 676/4/3 675/4/3
f 681/5/3 675/5/3 680/5/3
f 682/4/3 676/4/3 681/4/3
f 683/5/3 678/5/3 677/5/3
f 683/4/3 676/4/3 682/4/3
f 683/5/3 677/5/3 676/5/3
f 684/5/3 678/5/3 683/5/3
f 685/5/3 678/5/3 684/5/3
f 687/5/3 682/5/3 681/5/3
f 687/5/3 681/5/3 680/5/3
f 687/5/3 680/5/3 679/5/3
f 688/5/3 682/5/3 687/5/3
f 689/5/3 682/5/3 688/5/3
f 690/4/3 684/4/3 683/4/3
f 690/5/3 682/5/3 689/5/3
f 690/4/3 683/4/3 682/4/3
f 691/5/3 686/5/3 685/5/3
f 691/5/3 685/5/3 684/5/3
f 692/5/3 686/5/3 691/5/3
f 694/5/3 689/5/3 688/5/3
f 695/5/3 689/5/3 694/5/3
f 696/5/3 689/5/3 695/5/3
f 697/4/3 690/4/3 689/4/3
f 697/5/3 689/5/3 696/5/3
f 698/4/3 684/4/3 690/4/3
f 698/4/3 690/4/3 697/4/3
f 698/5/3 691/5/3 684/5/3
f 699/5/3 695/5/3 694/5/3
f 699/5/3 694/5/3 693/5/3
f 700/5/3 695/5/3 699/5/3
f 701/4/3 696/4/3 695/4/3
f 701/5/3 695/5/3 700/5/3
f 702/5/3 697/5/3 696/5/3
f 702/4/3 696/4/3 701/4/3
f 702/5/3 698/5/3 697/5/3
f 703/5/3 698/5/3 702/5/3
f 704/5/3 691/5/3 698/5/3
f 704/5/3 698/5/3 703/5/3
f 705/2/3 692/2/3 691/2/3
f 705/5/3 691/5/3 704/5/3
f 706/2/3 692/2/3 705/2/3
f 708/5/3 701/5/3 700/5/3
f 708/5/3 703/5/3 702/5/3
f 708/5/3 702/5/3 701/5/3
f 709/4/3 704/4/3 703/4/3
f 709/5/3 703/5/3 708/5/3
f 710/4/3 704/4/3 709/4/3
f 711/3/3 706/3/3 705/3/3
f 711/5/3 705/5/3 704/5/3
f 712/3/3 706/3/3 711/3/3
f 713/5/3 708/5/3 707/5/3
f 713/5/3 710/5/3 709/5/3
f 713/5/3 709/5/3 708/5/3
f 714/5/3 710/5/3 713/5/3
f 715/5/3 710/5/3 714/5/3
f 716/4/3 704/4/3 710/4/3
f 716/5/3 710/5/3 715/5/3
f 717/4/3 704/4/3 716/4/3
f 718/5/3 711/5/3 704/5/3
f 718/4/3 704/4/3 717/4/3
f 719/5/3 711/5/3 718/5/3
f 720/2/3 712/2/3 711/2/3
f 720/5/3 711/5/3 719/5/3
f 721/2/3 712/2/3 720/2/3
f 722/5/3 715/5/3 714/5/3
f 723/5/3 715/5/3 722/5/3
f 724/4/3 717/4/3 716/4/3
f 724/5/3 715/5/3 723/5/3
f 724/4/3 716/4/3 715/4/3
f 725/5/3 719/5/3 718/5/3
f 725/4/3 717/4/3 724/4/3
f 725/5/3 718/5/3 717/5/3
f 726/5/3 719/5/3 725/5/3
f 727/2/3 720/2/3 719/2/3
f 727/5/3 719/5/3 726/5/3
f 728/2/3 720/2/3 727/2/3
f 729/5/3 724/5/3 723/5/3
f 729/5/3 726/5/3 725/5/3
f 729/5/3 725/5/3 724/5/3
f 730/2/3 727/2/3 726/2/3
f 730/5/3 726/5/3 729/5/3
f 731/2/3 727/2/3 730/2/3
f 738/5/3 733/5/3 732/5/3
f 738/2/3 734/2/3 733/2/3
f 739/2/3 734/2/3 738/2/3
f 742/3/3 737/3/3 736/3/3
f 742/5/3 736/5/3 735/5/3
f 743/3/3 737/3/3 742/3/3
f 745/6/3 741/6/3 740/6/3
f 746/6/3 741/6/3 745/6/3
f 748/5/3 742/5/3 735/5/3
f 748/2/3 743/2/3 742/2/3
f 749/2/3 743/2/3 748/2/3
f 750/3/3 739/3/3 738/3/3
f 750/5/3 738/5/3 732/5/3
f 751/3/3 739/3/3 750/3/3
f 752/6/3 747/6/3 746/6/3
f 752/6/3 746/6/3 745/6/3
f 752/6/3 745/6/3 744/6/3
f 753/6/3 747/6/3 752/6/3
f 754/6/3 747/6/3 753/6/3
f 755/6/3 747/6/3 754/6/3
f 756/6/3 754/6/3 753/6/3
f 757/6/3 754/6/3 756/6/3
f 758/2/3 751/2/3 750/2/3
f 758/5/3 750/5/3 732/5/3
f 759/2/3 751/2/3 758/2/3
f 760/5/3 749/5/3 748/5/3
f 760/5/3 748/5/3 735/5/3
f 761/5/3 749/5/3 760/5/3
f 767/6/3 765/6/3 764/6/3
f 768/6/3 765/6/3 767/6/3
f 770/5/3 763/5/3 762/5/3
f 771/5/3 763/5/3 770/5/3
f 772/5/3 759/5/3 758/5/3
f 772/5/3 758/5/3 732/5/3
f 773/5/3 759/5/3 772/5/3
f 774/6/3 769/6/3 768/6/3
f 774/6/3 767/6/3 766/6/3
f 774/6/3 768/6/3 767/6/3
f 775/6/3 769/6/3 774/6/3
f 776/6/3 769/6/3 775/6/3
f 777/6/3 769/6/3 776/6/3
f 778/6/3 776/6/3 775/6/3
f 779/6/3 776/6/3 778/6/3
f 780/2/3 771/2/3 770/2/3
f 780/5/3 770/5/3 762/5/3
f 781/2/3 771/2/3 780/2/3
f 782/2/3 773/2/3 772/2/3
f 782/5/3 772/5/3 732/5/3
f 783/2/3 773/2/3 782/2/3
f 784/3/3 781/3/3 780/3/3
f 784/5/3 780/5/3 762/5/3
f 785/3/3 781/3/3 784/3/3
f 786/5/3 782/5/3 732/5/3
f 787/3/3 783/3/3 782/3/3
f 787/5/3 782/5/3 786/5/3
f 788/3/3 783/3/3 787/3/3
f 789/5/3 784/5/3 762/5/3
f 790/2/3 785/2/3 784/2/3
f 790/5/3 784/5/3 789/5/3
f 791/2/3 785/2/3 790/2/3
f 796/5/3 793/5/3 792/5/3
f 797/5/3 793/5/3 796/5/3
f 798/5/3 793/5/3 797/5/3
f 799/5/3 795/5/3 794/5/3
f 800/5/3 797/5/3 796/5/3
f 801/5/3 797/5/3 800/5/3
f 802/5/3 793/5/3 798/5/3
f 803/5/3 793/5/3 802/5/3
f 804/5/3 795/5/3 799/5/3
f 805/5/3 795/5/3 804/5/3
f 808/5/3 800/5/3 796/5/3
f 809/5/3 800/5/3 808/5/3
f 812/5/3 793/5/3 803/5/3
f 813/2/3 807/2/3 806/2/3
f 813/5/3 806/5/3 805/5/3
f 813/5/3 805/5/3 804/5/3
f 814/2/3 807/2/3 813/2/3
f 815/5/3 810/5/3 809/5/3
f 816/5/3 812/5/3 811/5/3
f 817/5/3 813/5/3 804/5/3
f 817/3/3 814/3/3 813/3/3
f 818/3/3 814/3/3 817/3/3
f 819/5/3 815/5/3 809/5/3
f 819/5/3 809/5/3 808/5/3
f 819/5/3 816/5/3 815/5/3
f 820/5/3 812/5/3 816/5/3
f 820/5/3 816/5/3 819/5/3
f 821/5/3 793/5/3 812/5/3
f 821/5/3 812/5/3 820/5/3
f 822/5/3 817/5/3 804/5/3
f 823/5/3 817/5/3 822/5/3
f 824/5/3 817/5/3 823/5/3
f 825/2/3 818/2/3 817/2/3
f 825/5/3 817/5/3 824/5/3
f 826/2/3 818/2/3 825/2/3
f 827/5/3 820/5/3 819/5/3
f 828/5/3 820/5/3 827/5/3
f 829/5/3 824/5/3 823/5/3
f 830/5/3 824/5/3 829/5/3
f 831/5/3 827/5/3 819/5/3
f 832/5/3 827/5/3 831/5/3
f 833/5/3 824/5/3 830/5/3
f 834/5/3 824/5/3 833/5/3
f 835/5/3 831/5/3 819/5/3
f 837/5/3 824/5/3 834/5/3
f 840/5/3 836/5/3 835/5/3
f 840/5/3 835/5/3 819/5/3
f 841/5/3 836/5/3 840/5/3
f 842/2/3 839/2/3 838/2/3
f 842/5/3 838/5/3 837/5/3
f 843/2/3 839/2/3 842/2/3
f 844/5/3 840/5/3 819/5/3
f 846/5/3 842/5/3 837/5/3
f 846/3/3 843/3/3 842/3/3
f 847/3/3 843/3/3 846/3/3
f 848/5/3 845/5/3 844/5/3
f 848/5/3 844/5/3 819/5/3
f 849/5/3 845/5/3 848/5/3
f 850/5/3 837/5/3 834/5/3
f 850/5/3 846/5/3 837/5/3
f 851/2/3 847/2/3 846/2/3
f 851/5/3 846/5/3 850/5/3
f 852/2/3 847/2/3 851/2/3
f 853/5/3 848/5/3 819/5/3
f 856/5/3 850/5/3 834/5/3
f 857/5/3 854/5/3 853/5/3
f 860/5/3 856/5/3 855/5/3
f 861/5/3 858/5/3 857/5/3
f 864/5/3 860/5/3 859/5/3
f 865/5/3 850/5/3 856/5/3
f 865/5/3 856/5/3 860/5/3
f 865/5/3 860/5/3 864/5/3
f 868/5/3 862/5/3 861/5/3
f 868/5/3 857/5/3 853/5/3
f 868/5/3 861/5/3 857/5/3
f 869/5/3 862/5/3 868/5/3
f 870/5/3 853/5/3 819/5/3
f 870/5/3 868/5/3 853/5/3
f 871/5/3 868/5/3 870/5/3
f 872/5/3 862/5/3 869/5/3
f 873/5/3 862/5/3 872/5/3
f 874/2/3 867/2/3 866/2/3
f 874/5/3 864/5/3 863/5/3
f 874/5/3 866/5/3 865/5/3
f 874/5/3 865/5/3 864/5/3
f 875/2/3 867/2/3 874/2/3
f 876/5/3 874/5/3 863/5/3
f 877/3/3 875/3/3 874/3/3
f 877/5/3 874/5/3 876/5/3
f 878/3/3 875/3/3 877/3/3
f 879/5/3 870/5/3 819/5/3
f 880/5/3 870/5/3 879/5/3
f 883/5/3 862/5/3 873/5/3
f 884/5/3 877/5/3 876/5/3
f 885/2/3 878/2/3 877/2/3
f 885/5/3 877/5/3 884/5/3
f 886/2/3 878/2/3 885/2/3
f 887/5/3 881/5/3 880/5/3
f 887/5/3 880/5/3 879/5/3
f 888/5/3 883/5/3 882/5/3
f 889/5/3 884/5/3 876/5/3
f 890/5/3 887/5/3 879/5/3
f 890/5/3 888/5/3 887/5/3
f 891/5/3 862/5/3 883/5/3
f 891/5/3 888/5/3 890/5/3
f 891/5/3 883/5/3 888/5/3
f 892/5/3 884/5/3 889/5/3
f 893/5/3 884/5/3 892/5/3
f 899/5/3 895/5/3 894/5/3
f 900/5/3 895/5/3 899/5/3
f 901/5/3 895/5/3 900/5/3
f 902/5/3 897/5/3 896/5/3
f 903/2/3 898/2/3 897/2/3
f 903/5/3 897/5/3 902/5/3
f 904/2/3 898/2/3 903/2/3
f 911/5/3 906/5/3 905/5/3
f 911/2/3 907/2/3 906/2/3
f 912/2/3 907/2/3 911/2/3
f 913/5/3 911/5/3 905/5/3
f 914/3/3 912/3/3 911/3/3
f 914/5/3 911/5/3 913/5/3
f 915/3/3 912/3/3 914/3/3
f 916/5/3 909/5/3 908/5/3
f 917/3/3 910/3/3 909/3/3
f 917/5/3 909/5/3 916/5/3
f 918/3/3 910/3/3 917/3/3
f 923/5/3 920/5/3 919/5/3
f 924/5/3 920/5/3 923/5/3
f 925/5/3 920/5/3 924/5/3
f 926/5/3 922/5/3 921/5/3
f 927/5/3 922/5/3 926/5/3
f 932/5/3 931/5/3 930/5/3
f 933/5/3 929/5/3 928/5/3
f 934/5/3 929/5/3 933/5/3
f 935/5/3 931/5/3 932/5/3
f 936/5/3 931/5/3 935/5/3
f 939/1/3 938/1/3 937/1/3
f 940/1/3 938/1/3 939/1/3
f 944/2/3 943/2/3 942/2/3
f 944/5/3 942/5/3 941/5/3
f 945/2/3 943/2/3 944/2/3
f 946/5/3 944/5/3 941/5/3
f 946/5/3 945/5/3 944/5/3
f 947/5/3 945/5/3 946/5/3
f 950/5/3 949/5/3 948/5/3
f 951/5/3 949/5/3 950/5/3
f 954/5/3 950/5/3 948/5/3
f 955/2/3 951/2/3 950/2/3
f 955/5/3 950/5/3 954/5/3
f 956/2/3 951/2/3 955/2/3
f 957/1/3 953/1/3 952/1/3
f 958/1/3 953/1/3 957/1/3
f 961/7/3 960/7/3 959/7/3
f 962/7/3 960/7/3 961/7/3
f 965/7/3 964/7/3 963/7/3
f 966/7/3 964/7/3 965/7/3
f 971/7/3 968/7/3 967/7/3
f 972/7/3 968/7/3 971/7/3
f 973/7/3 970/7/3 969/7/3
f 974/7/3 970/7/3 973/7/3
f 979/7/3 976/7/3 975/7/3
f 980/7/3 976/7/3 979/7/3
f 981/7/3 978/7/3 977/7/3
f 982/7/3 978/7/3 981/7/3
f 986/5/3 984/5/3 983/5/3
f 986/2/3 985/2/3 984/2/3
f 987/2/3 985/2/3 986/2/3
f 988/5/3 986/5/3 983/5/3
f 988/5/3 987/5/3 986/5/3
f 989/5/3 987/5/3 988/5/3
f 992/5/3 991/5/3 990/5/3
f 993/5/3 991/5/3 992/5/3
f 994/5/3 992/5/3 990/5/3
f 995/2/3 993/2/3 992/2/3
f 995/5/3 992/5/3 994/5/3
f 996/2/3 993/2/3 995/2/3
f 999/1/3 998/1/3 997/1/3
f 1000/1/3 998/1/3 999/1/3
f 1003/1/3 1002/1/3 1001/1/3
f 1004/1/3 1002/1/3 1003/1/3
f 1007/5/3 1006/5/3 1005/5/3
f 1009/5/3 1007/5/3 1005/5/3
f 1009/5/3 1008/5/3 1007/5/3
f 1010/5/3 1008/5/3 1009/5/3
f 1011/5/3 1009/5/3 1005/5/3
f 1013/5/3 1011/5/3 1005/5/3
f 1013/5/3 1012/5/3 1011/5/3
f 1014/5/3 1012/5/3 1013/5/3
f 1015/5/3 1013/5/3 1005/5/3
f 1017/5/3 1015/5/3 1005/5/3
f 1017/5/3 1016/5/3 1015/5/3
f 1018/5/3 1016/5/3 1017/5/3
f 1019/5/3 1017/5/3 1005/5/3
f 1020/5/3 1017/5/3 1019/5/3
f 1021/5/4 1022/5/4 1023/5/4
f 1021/5/4 1023/5/4 1025/5/4
f 1023/5/4 1024/5/4 1025/5/4
f 1025/5/4 1024/5/4 1026/5/4
f 1021/5/4 1025/5/4 1027/5/4
f 1021/5/4 1027/5/4 1029/5/4
f 1027/5/4 1028/5/4 1029/5/4
f 1029/5/4 1028/5/4 1030/5/4
f 1021/5/4 1029/5/4 1031/5/4
f 1021/5/4 1031/5/4 1033/5/4
f 1031/5/4 1032/5/4 1033/5/4
f 1033/5/4 1032/5/4 1034/5/4
f 1021/5/4 1033/5/4 1035/5/4
f 1035/5/4 1033/5/4 1036/5/4
f 1037/1/4 1038/1/4 1039/1/4
f 1039/1/4 1038/1/4 1040/1/4
f 1041/1/4 1042/1/4 1043/1/4
f 1043/1/4 1042/1/4 1044/1/4
f 1045/5/4 1046/5/4 1048/5/4
f 1046/2/4 1047/2/4 1048/2/4
f 1048/2/4 1047/2/4 1049/2/4
f 1045/5/4 1048/5/4 1050/5/4
f 1048/5/4 1049/5/4 1050/5/4
f 1050/5/4 1049/5/4 1051/5/4
f 1052/5/4 1053/5/4 1054/5/4
f 1054/5/4 1053/5/4 1055/5/4
f 1052/5/4 1054/5/4 1056/5/4
f 1054/2/4 1055/2/4 1057/2/4
f 1056/5/4 1054/5/4 1057/5/4
f 1057/2/4 1055/2/4 1058/2/4
f 1059/7/4 1060/7/4 1063/7/4
f 1063/7/4 1060/7/4 1064/7/4
f 1061/7/4 1062/7/4 1065/7/4
f 1065/7/4 1062/7/4 1066/7/4
f 1067/7/4 1068/7/4 1071/7/4
f 1071/7/4 1068/7/4 1072/7/4
f 1069/7/4 1070/7/4 1073/7/4
f 1073/7/4 1070/7/4 1074/7/4
f 1075/7/4 1076/7/4 1077/7/4
f 1077/7/4 1076/7/4 1078/7/4
f 1079/7/4 1080/7/4 1081/7/4
f 1081/7/4 1080/7/4 1082/7/4
f 1083/1/4 1084/1/4 1085/1/4
f 1085/1/4 1084/1/4 1086/1/4
f 1088/2/4 1089/2/4 1090/2/4
f 1087/5/4 1088/5/4 1090/5/4
f 1090/2/4 1089/2/4 1091/2/4
f 1087/5/4 1090/5/4 1092/5/4
f 1090/5/4 1091/5/4 1092/5/4
f 1092/5/4 1091/5/4 1093/5/4
f 1094/5/4 1095/5/4 1096/5/4
f 1096/5/4 1095/5/4 1097/5/4
f 1094/5/4 1096/5/4 1100/5/4
f 1096/2/4 1097/2/4 1101/2/4
f 1100/5/4 1096/5/4 1101/5/4
f 1101/2/4 1097/2/4 1102/2/4
f 1098/1/4 1099/1/4 1103/1/4
f 1103/1/4 1099/1/4 1104/1/4
f 1105/5/4 1106/5/4 1109/5/4
f 1109/5/4 1106/5/4 1110/5/4
f 1110/5/4 1106/5/4 1111/5/4
f 1107/5/4 1108/5/4 1112/5/4
f 1112/5/4 1108/5/4 1113/5/4
f 1116/5/4 1117/5/4 1118/5/4
f 1114/5/4 1115/5/4 1119/5/4
f 1119/5/4 1115/5/4 1120/5/4
f 1118/5/4 1117/5/4 1121/5/4
f 1121/5/4 1117/5/4 1122/5/4
f 1123/5/4 1124/5/4 1129/5/4
f 1124/3/4 1125/3/4 1130/3/4
f 1129/5/4 1124/5/4 1130/5/4
f 1130/3/4 1125/3/4 1131/3/4
f 1126/5/4 1127/5/4 1132/5/4
f 1127/2/4 1128/2/4 1133/2/4
f 1132/5/4 1127/5/4 1133/5/4
f 1133/2/4 1128/2/4 1134/2/4
f 1135/5/4 1136/5/4 1141/5/4
f 1136/2/4 1137/2/4 1141/2/4
f 1141/2/4 1137/2/4 1142/2/4
f 1135/5/4 1141/5/4 1143/5/4
f 1141/3/4 1142/3/4 1144/3/4
f 1143/5/4 1141/5/4 1144/5/4
f 1144/3/4 1142/3/4 1145/3/4
f 1139/5/4 1140/5/4 1146/5/4
f 1138/5/4 1139/5/4 1146/5/4
f 1146/5/4 1140/5/4 1147/5/4
f 1148/5/4 1149/5/4 1152/5/4
f 1152/5/4 1149/5/4 1153/5/4
f 1153/5/4 1149/5/4 1154/5/4
f 1152/5/4 1153/5/4 1155/5/4
f 1155/5/4 1153/5/4 1156/5/4
f 1154/5/4 1149/5/4 1157/5/4
f 1157/5/4 1149/5/4 1158/5/4
f 1150/5/4 1151/5/4 1159/5/4
f 1159/5/4 1151/5/4 1160/5/4
f 1161/2/4 1162/2/4 1163/2/4
f 1160/5/4 1161/5/4 1163/5/4
f 1159/5/4 1160/5/4 1163/5/4
f 1163/2/4 1162/2/4 1164/2/4
f 1152/5/4 1155/5/4 1165/5/4
f 1158/5/4 1149/5/4 1168/5/4
f 1159/5/4 1163/5/4 1169/5/4
f 1163/3/4 1164/3/4 1170/3/4
f 1169/5/4 1163/5/4 1170/5/4
f 1170/3/4 1164/3/4 1171/3/4
f 1165/5/4 1166/5/4 1172/5/4
f 1167/5/4 1168/5/4 1173/5/4
f 1173/5/4 1168/5/4 1174/5/4
f 1172/5/4 1173/5/4 1174/5/4
f 1168/5/4 1149/5/4 1175/5/4
f 1174/5/4 1168/5/4 1175/5/4
f 1169/5/4 1170/5/4 1176/5/4
f 1176/5/4 1170/5/4 1177/5/4
f 1177/5/4 1170/5/4 1178/5/4
f 1170/2/4 1171/2/4 1179/2/4
f 1178/5/4 1170/5/4 1179/5/4
f 1179/2/4 1171/2/4 1180/2/4
f 1165/5/4 1172/5/4 1181/5/4
f 1172/5/4 1174/5/4 1181/5/4
f 1181/5/4 1174/5/4 1182/5/4
f 1177/5/4 1178/5/4 1183/5/4
f 1183/5/4 1178/5/4 1184/5/4
f 1152/5/4 1165/5/4 1185/5/4
f 1165/5/4 1181/5/4 1185/5/4
f 1185/5/4 1181/5/4 1186/5/4
f 1184/5/4 1178/5/4 1187/5/4
f 1187/5/4 1178/5/4 1188/5/4
f 1152/5/4 1185/5/4 1189/5/4
f 1188/5/4 1178/5/4 1191/5/4
f 1189/5/4 1190/5/4 1194/5/4
f 1152/5/4 1189/5/4 1194/5/4
f 1194/5/4 1190/5/4 1195/5/4
f 1192/2/4 1193/2/4 1196/2/4
f 1191/5/4 1192/5/4 1196/5/4
f 1196/2/4 1193/2/4 1197/2/4
f 1191/5/4 1196/5/4 1198/5/4
f 1196/3/4 1197/3/4 1198/3/4
f 1198/3/4 1197/3/4 1199/3/4
f 1152/5/4 1194/5/4 1200/5/4
f 1152/5/4 1200/5/4 1202/5/4
f 1200/5/4 1201/5/4 1202/5/4
f 1202/5/4 1201/5/4 1203/5/4
f 1188/5/4 1191/5/4 1204/5/4
f 1191/5/4 1198/5/4 1204/5/4
f 1198/2/4 1199/2/4 1205/2/4
f 1204/5/4 1198/5/4 1205/5/4
f 1205/2/4 1199/2/4 1206/2/4
f 1152/5/4 1202/5/4 1207/5/4
f 1188/5/4 1204/5/4 1210/5/4
f 1207/5/4 1208/5/4 1211/5/4
f 1209/5/4 1210/5/4 1214/5/4
f 1211/5/4 1212/5/4 1215/5/4
f 1213/5/4 1214/5/4 1218/5/4
f 1210/5/4 1204/5/4 1219/5/4
f 1214/5/4 1210/5/4 1219/5/4
f 1218/5/4 1214/5/4 1219/5/4
f 1215/5/4 1216/5/4 1222/5/4
f 1207/5/4 1211/5/4 1222/5/4
f 1211/5/4 1215/5/4 1222/5/4
f 1222/5/4 1216/5/4 1223/5/4
f 1220/2/4 1221/2/4 1224/2/4
f 1217/5/4 1218/5/4 1224/5/4
f 1219/5/4 1220/5/4 1224/5/4
f 1218/5/4 1219/5/4 1224/5/4
f 1224/2/4 1221/2/4 1225/2/4
f 1152/5/4 1207/5/4 1226/5/4
f 1207/5/4 1222/5/4 1226/5/4
f 1226/5/4 1222/5/4 1227/5/4
f 1223/5/4 1216/5/4 1228/5/4
f 1228/5/4 1216/5/4 1229/5/4
f 1224/3/4 1225/3/4 1230/3/4
f 1217/5/4 1224/5/4 1230/5/4
f 1230/3/4 1225/3/4 1231/3/4
f 1152/5/4 1226/5/4 1232/5/4
f 1217/5/4 1230/5/4 1233/5/4
f 1232/5/4 1226/5/4 1234/5/4
f 1229/5/4 1216/5/4 1237/5/4
f 1233/5/4 1230/5/4 1238/5/4
f 1230/2/4 1231/2/4 1239/2/4
f 1238/5/4 1230/5/4 1239/5/4
f 1239/2/4 1231/2/4 1240/2/4
f 1234/5/4 1235/5/4 1241/5/4
f 1232/5/4 1234/5/4 1241/5/4
f 1241/5/4 1235/5/4 1242/5/4
f 1236/5/4 1237/5/4 1243/5/4
f 1233/5/4 1238/5/4 1244/5/4
f 1242/5/4 1243/5/4 1245/5/4
f 1241/5/4 1242/5/4 1245/5/4
f 1237/5/4 1216/5/4 1246/5/4
f 1245/5/4 1243/5/4 1246/5/4
f 1243/5/4 1237/5/4 1246/5/4
f 1244/5/4 1238/5/4 1247/5/4
f 1247/5/4 1238/5/4 1248/5/4
f 1252/5/4 1253/5/4 1255/5/4
f 1253/2/4 1254/2/4 1255/2/4
f 1255/2/4 1254/2/4 1256/2/4
f 1249/5/4 1250/5/4 1257/5/4
f 1250/2/4 1251/2/4 1257/2/4
f 1257/2/4 1251/2/4 1258/2/4
f 1259/6/4 1260/6/4 1262/6/4
f 1262/6/4 1260/6/4 1263/6/4
f 1255/3/4 1256/3/4 1265/3/4
f 1252/5/4 1255/5/4 1265/5/4
f 1265/3/4 1256/3/4 1266/3/4
f 1263/6/4 1264/6/4 1267/6/4
f 1262/6/4 1263/6/4 1267/6/4
f 1261/6/4 1262/6/4 1267/6/4
f 1267/6/4 1264/6/4 1268/6/4
f 1268/6/4 1264/6/4 1269/6/4
f 1269/6/4 1264/6/4 1270/6/4
f 1265/2/4 1266/2/4 1271/2/4
f 1252/5/4 1265/5/4 1271/5/4
f 1271/2/4 1266/2/4 1272/2/4
f 1268/6/4 1269/6/4 1273/6/4
f 1273/6/4 1269/6/4 1274/6/4
f 1271/5/4 1272/5/4 1275/5/4
f 1252/5/4 1271/5/4 1275/5/4
f 1275/5/4 1272/5/4 1276/5/4
f 1279/6/4 1280/6/4 1282/6/4
f 1282/6/4 1280/6/4 1283/6/4
f 1249/5/4 1257/5/4 1285/5/4
f 1257/5/4 1258/5/4 1285/5/4
f 1285/5/4 1258/5/4 1286/5/4
f 1277/5/4 1278/5/4 1287/5/4
f 1287/5/4 1278/5/4 1288/5/4
f 1283/6/4 1284/6/4 1289/6/4
f 1282/6/4 1283/6/4 1289/6/4
f 1281/6/4 1282/6/4 1289/6/4
f 1289/6/4 1284/6/4 1290/6/4
f 1290/6/4 1284/6/4 1291/6/4
f 1291/6/4 1284/6/4 1292/6/4
f 1285/2/4 1286/2/4 1293/2/4
f 1249/5/4 1285/5/4 1293/5/4
f 1293/2/4 1286/2/4 1294/2/4
f 1290/6/4 1291/6/4 1295/6/4
f 1295/6/4 1291/6/4 1296/6/4
f 1287/2/4 1288/2/4 1297/2/4
f 1277/5/4 1287/5/4 1297/5/4
f 1297/2/4 1288/2/4 1298/2/4
f 1249/5/4 1293/5/4 1299/5/4
f 1293/3/4 1294/3/4 1299/3/4
f 1299/3/4 1294/3/4 1300/3/4
f 1249/5/4 1299/5/4 1301/5/4
f 1299/2/4 1300/2/4 1302/2/4
f 1301/5/4 1299/5/4 1302/5/4
f 1302/2/4 1300/2/4 1303/2/4
f 1277/5/4 1297/5/4 1304/5/4
f 1297/3/4 1298/3/4 1305/3/4
f 1304/5/4 1297/5/4 1305/5/4
f 1305/3/4 1298/3/4 1306/3/4
f 1307/5/4 1308/5/4 1311/5/4
f 1311/5/4 1308/5/4 1312/5/4
f 1312/5/4 1308/5/4 1313/5/4
f 1308/2/4 1309/2/4 1314/2/4
f 1313/5/4 1308/5/4 1314/5/4
f 1314/2/4 1309/2/4 1315/2/4
f 1310/5/4 1311/5/4 1318/5/4
f 1311/5/4 1312/5/4 1318/5/4
f 1312/4/4 1313/4/4 1319/4/4
f 1318/5/4 1312/5/4 1319/5/4
f 1319/4/4 1313/4/4 1320/4/4
f 1314/5/4 1315/5/4 1321/5/4
f 1320/4/4 1313/4/4 1321/4/4
f 1313/5/4 1314/5/4 1321/5/4
f 1321/5/4 1315/5/4 1322/5/4
f 1315/2/4 1316/2/4 1323/2/4
f 1322/5/4 1315/5/4 1323/5/4
f 1323/2/4 1316/2/4 1324/2/4
f 1317/5/4 1318/5/4 1326/5/4
f 1319/5/4 1320/5/4 1326/5/4
f 1318/5/4 1319/5/4 1326/5/4
f 1326/5/4 1320/5/4 1327/5/4
f 1327/5/4 1320/5/4 1328/5/4
f 1321/4/4 1322/4/4 1329/4/4
f 1328/5/4 1320/5/4 1329/5/4
f 1320/4/4 1321/4/4 1329/4/4
f 1324/5/4 1325/5/4 1330/5/4
f 1323/5/4 1324/5/4 1330/5/4
f 1322/5/4 1323/5/4 1330/5/4
f 1330/5/4 1325/5/4 1331/5/4
f 1327/5/4 1328/5/4 1333/5/4
f 1333/5/4 1328/5/4 1334/5/4
f 1334/5/4 1328/5/4 1335/5/4
f 1328/4/4 1329/4/4 1336/4/4
f 1335/5/4 1328/5/4 1336/5/4
f 1329/4/4 1322/4/4 1337/4/4
f 1336/4/4 1329/4/4 1337/4/4
f 1322/5/4 1330/5/4 1337/5/4
f 1333/5/4 1334/5/4 1338/5/4
f 1332/5/4 1333/5/4 1338/5/4
f 1338/5/4 1334/5/4 1339/5/4
f 1334/4/4 1335/4/4 1340/4/4
f 1339/5/4 1334/5/4 1340/5/4
f 1335/5/4 1336/5/4 1341/5/4
f 1340/4/4 1335/4/4 1341/4/4
f 1336/5/4 1337/5/4 1341/5/4
f 1341/5/4 1337/5/4 1342/5/4
f 1337/5/4 1330/5/4 1343/5/4
f 1342/5/4 1337/5/4 1343/5/4
f 1330/2/4 1331/2/4 1344/2/4
f 1343/5/4 1330/5/4 1344/5/4
f 1344/2/4 1331/2/4 1345/2/4
f 1339/5/4 1340/5/4 1347/5/4
f 1341/5/4 1342/5/4 1347/5/4
f 1340/5/4 1341/5/4 1347/5/4
f 1342/4/4 1343/4/4 1348/4/4
f 1347/5/4 1342/5/4 1348/5/4
f 1348/4/4 1343/4/4 1349/4/4
f 1344/3/4 1345/3/4 1350/3/4
f 1343/5/4 1344/5/4 1350/5/4
f 1350/3/4 1345/3/4 1351/3/4
f 1346/5/4 1347/5/4 1352/5/4
f 1348/5/4 1349/5/4 1352/5/4
f 1347/5/4 1348/5/4 1352/5/4
f 1352/5/4 1349/5/4 1353/5/4
f 1353/5/4 1349/5/4 1354/5/4
f 1349/4/4 1343/4/4 1355/4/4
f 1354/5/4 1349/5/4 1355/5/4
f 1355/4/4 1343/4/4 1356/4/4
f 1343/5/4 1350/5/4 1357/5/4
f 1356/4/4 1343/4/4 1357/4/4
f 1357/5/4 1350/5/4 1358/5/4
f 1350/2/4 1351/2/4 1359/2/4
f 1358/5/4 1350/5/4 1359/5/4
f 1359/2/4 1351/2/4 1360/2/4
f 1353/5/4 1354/5/4 1361/5/4
f 1361/5/4 1354/5/4 1362/5/4
f 1355/4/4 1356/4/4 1363/4/4
f 1362/5/4 1354/5/4 1363/5/4
f 1354/4/4 1355/4/4 1363/4/4
f 1357/5/4 1358/5/4 1364/5/4
f 1363/4/4 1356/4/4 1364/4/4
f 1356/5/4 1357/5/4 1364/5/4
f 1364/5/4 1358/5/4 1365/5/4
f 1358/2/4 1359/2/4 1366/2/4
f 1365/5/4 1358/5/4 1366/5/4
f 1366/2/4 1359/2/4 1367/2/4
f 1362/5/4 1363/5/4 1368/5/4
f 1364/5/4 1365/5/4 1368/5/4
f 1363/5/4 1364/5/4 1368/5/4
f 1365/2/4 1366/2/4 1369/2/4
f 1368/5/4 1365/5/4 1369/5/4
f 1369/2/4 1366/2/4 1370/2/4
f 1374/5/5 1372/5/5 1371/5/5
f 1375/5/5 1372/5/5 1374/5/5
f 1377/5/5 1374/5/5 1373/5/5
f 1377/5/5 1376/5/5 1375/5/5
f 1377/5/5 1375/5/5 1374/5/5
f 1378/5/5 1376/5/5 1377/5/5
f 1379/5/5 1376/5/5 1378/5/5
f 1380/5/5 1376/5/5 1379/5/5
f 1381/5/5 1379/5/5 1378/5/5
f 1382/5/5 1379/5/5 1381/5/5
f 1393/6/5 1390/6/5 1389/6/5
f 1394/6/5 1390/6/5 1393/6/5
f 1395/5/5 1384/5/5 1383/5/5
f 1396/5/5 1384/5/5 1395/5/5
f 1397/5/5 1386/5/5 1385/5/5
f 1398/5/5 1386/5/5 1397/5/5
f 1399/5/5 1388/5/5 1387/5/5
f 1400/5/5 1388/5/5 1399/5/5
f 1401/6/5 1392/6/5 1391/6/5
f 1402/6/5 1392/6/5 1401/6/5
f 1407/7/5 1404/7/5 1403/7/5
f 1408/7/5 1404/7/5 1407/7/5
f 1409/7/5 1406/7/5 1405/7/5
f 1410/7/5 1406/7/5 1409/7/5
f 1421/6/5 1412/6/5 1411/6/5
f 1422/6/5 1412/6/5 1421/6/5
f 1423/6/5 1420/6/5 1419/6/5
f 1424/6/5 1420/6/5 1423/6/5
f 1425/5/5 1414/5/5 1413/5/5
f 1426/5/5 1414/5/5 1425/5/5
f 1427/5/5 1416/5/5 1415/5/5
f 1428/5/5 1416/5/5 1427/5/5
f 1429/5/5 1418/5/5 1417/5/5
f 1430/5/5 1418/5/5 1429/5/5
f 1447/6/5 1440/6/5 1439/6/5
f 1448/6/5 1440/6/5 1447/6/5
f 1449/6/5 1442/6/5 1441/6/5
f 1450/6/5 1442/6/5 1449/6/5
f 1451/5/5 1432/5/5 1431/5/5
f 1452/5/5 1432/5/5 1451/5/5
f 1453/5/5 1434/5/5 1433/5/5
f 1454/5/5 1434/5/5 1453/5/5
f 1455/5/5 1436/5/5 1435/5/5
f 1456/5/5 1436/5/5 1455/5/5
f 1457/5/5 1438/5/5 1437/5/5
f 1458/5/5 1438/5/5 1457/5/5
f 1459/6/5 1444/6/5 1443/6/5
f 1460/6/5 1444/6/5 1459/6/5
f 1461/6/5 1446/6/5 1445/6/5
f 1462/6/5 1446/6/5 1461/6/5
f 1467/1/5 1464/1/5 1463/1/5
f 1468/1/5 1464/1/5 1467/1/5
f 1469/1/5 1466/1/5 1465/1/5
f 1470/1/5 1466/1/5 1469/1/5
f 1475/7/5 1472/7/5 1471/7/5
f 1476/7/5 1472/7/5 1475/7/5
f 1477/7/5 1474/7/5 1473/7/5
f 1478/7/5 1474/7/5 1477/7/5
f 1483/7/5 1480/7/5 1479/7/5
f 1484/7/5 1480/7/5 1483/7/5
f 1485/7/5 1482/7/5 1481/7/5
f 1486/7/5 1482/7/5 1485/7/5
f 1491/1/5 1488/1/5 1487/1/5
f 1492/1/5 1488/1/5 1491/1/5
f 1493/1/5 1490/1/5 1489/1/5
f 1494/1/5 1490/1/5 1493/1/5
f 1511/6/5 1496/6/5 1495/6/5
f 1512/6/5 1496/6/5 1511/6/5
f 1513/6/5 1498/6/5 1497/6/5
f 1514/6/5 1498/6/5 1513/6/5
f 1515/6/5 1508/6/5 1507/6/5
f 1516/6/5 1508/6/5 1515/6/5
f 1517/6/5 1510/6/5 1509/6/5
f 1518/6/5 1510/6/5 1517/6/5
f 1519/5/5 1500/5/5 1499/5/5
f 1520/5/5 1500/5/5 1519/5/5
f 1521/5/5 1502/5/5 1501/5/5
f 1522/5/5 1502/5/5 1521/5/5
f 1523/5/5 1504/5/5 1503/5/5
f 1524/5/5 1504/5/5 1523/5/5
f 1525/5/5 1506/5/5 1505/5/5
f 1526/5/5 1506/5/5 1525/5/5
f 1531/5/5 1528/5/5 1527/5/5
f 1532/5/5 1528/5/5 1531/5/5
f 1533/5/5 1530/5/5 1529/5/5
f 1534/5/5 1530/5/5 1533/5/5
f 1539/5/5 1536/5/5 1535/5/5
f 1540/5/5 1536/5/5 1539/5/5
f 1541/5/5 1538/5/5 1537/5/5
f 1542/5/5 1538/5/5 1541/5/5
f 1547/5/5 1544/5/5 1543/5/5
f 1548/5/5 1544/5/5 1547/5/5
f 1549/5/5 1546/5/5 1545/5/5
f 1550/5/5 1546/5/5 1549/5/5
f 1552/5/5 1547/5/5 1543/5/5
f 1553/5/5 1546/5/5 1550/5/5
f 1555/5/5 1552/5/5 1551/5/5
f 1556/5/5 1547/5/5 1552/5/5
f 1556/5/5 1552/5/5 1555/5/5
f 1557/5/5 1554/5/5 1553/5/5
f 1557/5/5 1553/5/5 1550/5/5
f 1558/5/5 1554/5/5 1557/5/5
f 1559/5/5 1555/5/5 1551/5/5
f 1562/5/5 1554/5/5 1558/5/5
f 1563/5/5 1560/5/5 1559/5/5
f 1563/5/5 1559/5/5 1551/5/5
f 1564/5/5 1560/5/5 1563/5/5
f 1565/5/5 1562/5/5 1561/5/5
f 1566/5/5 1554/5/5 1562/5/5
f 1566/5/5 1562/5/5 1565/5/5
f 1567/5/5 1560/5/5 1564/5/5
f 1570/5/5 1565/5/5 1561/5/5
f 1571/5/5 1568/5/5 1567/5/5
f 1571/5/5 1567/5/5 1564/5/5
f 1572/5/5 1568/5/5 1571/5/5
f 1573/5/5 1570/5/5 1569/5/5
f 1574/5/5 1565/5/5 1570/5/5
f 1574/5/5 1570/5/5 1573/5/5
f 1575/2/6 1576/2/6 1582/2/6
f 1576/3/6 1577/3/6 1583/3/6
f 1582/2/6 1576/2/6 1583/2/6
f 1577/2/6 1578/2/6 1584/2/6
f 1583/3/6 1577/3/6 1584/3/6
f 1578/5/6 1579/5/6 1585/5/6
f 1584/2/6 1578/2/6 1585/2/6
f 1579/2/6 1580/2/6 1586/2/6
f 1585/5/6 1579/5/6 1586/5/6
f 1580/3/6 1581/3/6 1587/3/6
f 1586/2/6 1580/2/6 1587/2/6
f 1575/2/6 1582/2/6 1589/2/6
f 1587/3/6 1581/3/6 1590/3/6
f 1590/3/6 1581/3/6 1591/3/6
f 1588/5/6 1589/5/6 1594/5/6
f 1589/2/6 1582/2/6 1595/2/6
f 1594/5/6 1589/5/6 1595/5/6
f 1595/2/6 1582/2/6 1596/2/6
f 1590/2/6 1591/2/6 1597/2/6
f 1591/2/6 1592/2/6 1597/2/6
f 1592/3/6 1593/3/6 1598/3/6
f 1597/2/6 1592/2/6 1598/2/6
f 1588/5/6 1594/5/6 1599/5/6
f 1599/5/6 1594/5/6 1600/5/6
f 1598/3/6 1593/3/6 1601/3/6
f 1601/3/6 1593/3/6 1602/3/6
f 1599/2/6 1600/2/6 1603/2/6
f 1603/2/6 1600/2/6 1604/2/6
f 1603/3/6 1604/3/6 1605/3/6
f 1605/3/6 1604/3/6 1606/3/6
f 1601/2/6 1602/2/6 1607/2/6
f 1607/2/6 1602/2/6 1608/2/6
f 1607/3/6 1608/3/6 1609/3/6
f 1609/3/6 1608/3/6 1610/3/6
f 1605/2/6 1606/2/6 1611/2/6
f 1611/2/6 1606/2/6 1612/2/6
f 1611/5/6 1612/5/6 1613/5/6
f 1613/5/6 1612/5/6 1614/5/6
f 1609/2/6 1610/2/6 1615/2/6
f 1615/2/6 1610/2/6 1616/2/6
f 1613/2/6 1614/2/6 1617/2/6
f 1617/2/6 1614/2/6 1618/2/6
f 1617/3/6 1618/3/6 1619/3/6
f 1619/3/6 1618/3/6 1620/3/6
f 1615/5/6 1616/5/6 1621/5/6
f 1621/5/6 1616/5/6 1622/5/6
f 1619/2/6 1620/2/6 1623/2/6
f 1623/2/6 1620/2/6 1624/2/6
f 1623/3/6 1624/3/6 1625/3/6
f 1621/2/6 1622/2/6 1629/2/6
f 1629/2/6 1622/2/6 1630/2/6
f 1623/3/6 1625/3/6 1631/3/6
f 1625/3/6 1626/3/6 1631/3/6
f 1626/2/6 1627/2/6 1632/2/6
f 1631/3/6 1626/3/6 1632/3/6
f 1628/2/6 1629/2/6 1633/2/6
f 1629/3/6 1630/3/6 1634/3/6
f 1633/2/6 1629/2/6 1634/2/6
f 1634/3/6 1630/3/6 1635/3/6
f 1632/2/6 1627/2/6 1636/2/6
f 1628/2/6 1633/2/6 1640/2/6
f 1632/2/6 1636/2/6 1641/2/6
f 1636/2/6 1637/2/6 1641/2/6
f 1637/5/6 1638/5/6 1642/5/6
f 1641/2/6 1637/2/6 1642/2/6
f 1638/2/6 1639/2/6 1643/2/6
f 1642/5/6 1638/5/6 1643/5/6
f 1639/3/6 1640/3/6 1644/3/6
f 1643/2/6 1639/2/6 1644/2/6
f 1640/2/6 1633/2/6 1645/2/6
f 1644/3/6 1640/3/6 1645/3/6
f 1645/2/6 1633/2/6 1646/2/6
f 1647/6/6 1648/6/6 1655/6/6
f 1655/6/6 1648/6/6 1656/6/6
f 1649/6/6 1650/6/6 1657/6/6
f 1657/6/6 1650/6/6 1658/6/6
f 1651/6/6 1652/6/6 1659/6/6
f 1659/6/6 1652/6/6 1660/6/6
f 1653/6/6 1654/6/6 1661/6/6
f 1661/6/6 1654/6/6 1662/6/6
f 1663/1/6 1664/1/6 1667/1/6
f 1667/1/6 1664/1/6 1668/1/6
f 1665/1/6 1666/1/6 1669/1/6
f 1669/1/6 1666/1/6 1670/1/6
f 1671/7/6 1672/7/6 1675/7/6
f 1675/7/6 1672/7/6 1676/7/6
f 1673/7/6 1674/7/6 1677/7/6
f 1677/7/6 1674/7/6 1678/7/6
f 1679/7/6 1680/7/6 1683/7/6
f 1683/7/6 1680/7/6 1684/7/6
f 1681/7/6 1682/7/6 1685/7/6
f 1685/7/6 1682/7/6 1686/7/6
f 1687/1/6 1688/1/6 1691/1/6
f 1691/1/6 1688/1/6 1692/1/6
f 1689/1/6 1690/1/6 1693/1/6
f 1693/1/6 1690/1/6 1694/1/6
f 1695/6/6 1696/6/6 1703/6/6
f 1703/6/6 1696/6/6 1704/6/6
f 1697/6/6 1698/6/6 1705/6/6
f 1705/6/6 1698/6/6 1706/6/6
f 1699/6/6 1700/6/6 1707/6/6
f 1707/6/6 1700/6/6 1708/6/6
f 1701/6/6 1702/6/6 1709/6/6
f 1709/6/6 1702/6/6 1710/6/6
f 1711/6/6 1712/6/6 1715/6/6
f 1715/6/6 1712/6/6 1716/6/6
f 1713/6/6 1714/6/6 1717/6/6
f 1717/6/6 1714/6/6 1718/6/6
f 1719/7/6 1720/7/6 1723/7/6
f 1723/7/6 1720/7/6 1724/7/6
f 1721/7/6 1722/7/6 1725/7/6
f 1725/7/6 1722/7/6 1726/7/6
f 1727/6/6 1728/6/6 1731/6/6
f 1731/6/6 1728/6/6 1732/6/6
f 1729/6/6 1730/6/6 1733/6/6
f 1733/6/6 1730/6/6 1734/6/6
f 1735/5/6 1736/5/6 1737/5/6
f 1737/5/6 1736/5/6 1738/5/6
f 1739/3/6 1740/3/6 1748/3/6
f 1748/3/6 1740/3/6 1749/3/6
f 1740/2/6 1741/2/6 1750/2/6
f 1749/3/6 1740/3/6 1750/3/6
f 1741/5/6 1742/5/6 1751/5/6
f 1750/2/6 1741/2/6 1751/2/6
f 1751/5/6 1742/5/6 1752/5/6
f 1743/5/6 1744/5/6 1753/5/6
f 1744/2/6 1745/2/6 1754/2/6
f 1753/5/6 1744/5/6 1754/5/6
f 1745/3/6 1746/3/6 1755/3/6
f 1754/2/6 1745/2/6 1755/2/6
f 1746/2/6 1747/2/6 1756/2/6
f 1755/3/6 1746/3/6 1756/3/6
f 1748/2/6 1749/2/6 1758/2/6
f 1756/2/6 1747/2/6 1759/2/6
f 1757/2/6 1758/2/6 1761/2/6
f 1758/2/6 1749/2/6 1762/2/6
f 1761/2/6 1758/2/6 1762/2/6
f 1756/2/6 1759/2/6 1763/2/6
f 1759/3/6 1760/3/6 1764/3/6
f 1763/2/6 1759/2/6 1764/2/6
f 1764/3/6 1760/3/6 1765/3/6
f 1765/3/6 1760/3/6 1766/3/6
f 1757/2/6 1761/2/6 1767/2/6
f 1767/2/6 1761/2/6 1768/2/6
f 1765/2/6 1766/2/6 1769/2/6
f 1769/2/6 1766/2/6 1770/2/6
f 1767/3/6 1768/3/6 1771/3/6
f 1771/3/6 1768/3/6 1772/3/6
f 1771/2/6 1772/2/6 1773/2/6
f 1773/2/6 1772/2/6 1774/2/6
f 1769/5/6 1770/5/6 1775/5/6
f 1775/5/6 1770/5/6 1776/5/6
f 1775/2/6 1776/2/6 1777/2/6
f 1777/2/6 1776/2/6 1778/2/6
f 1777/3/6 1778/3/6 1779/3/6
f 1779/3/6 1778/3/6 1780/3/6
f 1779/2/6 1780/2/6 1781/2/6
f 1781/2/6 1780/2/6 1782/2/6
f 1773/5/6 1774/5/6 1783/5/6
f 1783/5/6 1774/5/6 1784/5/6
f 1783/2/6 1784/2/6 1785/2/6
f 1785/2/6 1784/2/6 1786/2/6
f 1785/3/6 1786/3/6 1787/3/6
f 1787/3/6 1786/3/6 1788/3/6
f 1781/5/6 1782/5/6 1792/5/6
f 1787/2/6 1788/2/6 1793/2/6
f 1788/2/6 1789/2/6 1793/2/6
f 1793/2/6 1789/2/6 1794/2/6
f 1790/2/6 1791/2/6 1795/2/6
f 1791/5/6 1792/5/6 1795/5/6
f 1792/5/6 1782/5/6 1796/5/6
f 1795/5/6 1792/5/6 1796/5/6
f 1794/2/6 1789/2/6 1797/2/6
f 1790/2/6 1795/2/6 1804/2/6
f 1804/2/6 1795/2/6 1805/2/6
f 1794/2/6 1797/2/6 1806/2/6
f 1797/3/6 1798/3/6 1807/3/6
f 1806/2/6 1797/2/6 1807/2/6
f 1798/2/6 1799/2/6 1808/2/6
f 1807/3/6 1798/3/6 1808/3/6
f 1799/5/6 1800/5/6 1809/5/6
f 1808/2/6 1799/2/6 1809/2/6
f 1809/5/6 1800/5/6 1810/5/6
f 1801/5/6 1802/5/6 1811/5/6
f 1802/2/6 1803/2/6 1812/2/6
f 1811/5/6 1802/5/6 1812/5/6
f 1803/3/6 1804/3/6 1813/3/6
f 1812/2/6 1803/2/6 1813/2/6
f 1804/3/6 1805/3/6 1813/3/6
f 1813/3/6 1805/3/6 1814/3/6
f 1817/2/6 1818/2/6 1819/2/6
f 1819/2/6 1818/2/6 1820/2/6
f 1815/5/6 1816/5/6 1821/5/6
f 1821/5/6 1816/5/6 1822/5/6
f 1819/5/6 1820/5/6 1823/5/6
f 1823/5/6 1820/5/6 1824/5/6
f 1825/5/6 1826/5/6 1829/5/6
f 1829/5/6 1826/5/6 1830/5/6
f 1827/5/6 1828/5/6 1831/5/6
f 1831/5/6 1828/5/6 1832/5/6
f 1829/2/6 1830/2/6 1833/2/6
f 1833/2/6 1830/2/6 1834/2/6
f 1831/2/6 1832/2/6 1835/2/6
f 1835/2/6 1832/2/6 1836/2/6
f 1839/2/6 1840/2/6 1841/2/6
f 1841/2/6 1840/2/6 1842/2/6
f 1837/5/6 1838/5/6 1843/5/6
f 1843/5/6 1838/5/6 1844/5/6
f 1841/5/6 1842/5/6 1845/5/6
f 1845/5/6 1842/5/6 1846/5/6
f 1847/5/6 1848/5/6 1851/5/6
f 1851/5/6 1848/5/6 1852/5/6
f 1849/5/6 1850/5/6 1853/5/6
f 1853/5/6 1850/5/6 1854/5/6
f 1851/2/6 1852/2/6 1855/2/6
f 1855/2/6 1852/2/6 1856/2/6
f 1853/2/6 1854/2/6 1857/2/6
f 1857/2/6 1854/2/6 1858/2/6
f 1859/5/6 1860/5/6 1864/5/6
f 1860/2/6 1861/2/6 1864/2/6
f 1861/3/6 1862/3/6 1865/3/6
f 1864/2/6 1861/2/6 1865/2/6
f 1862/2/6 1863/2/6 1866/2/6
f 1865/3/6 1862/3/6 1866/3/6
f 1866/2/6 1863/2/6 1867/2/6
f 1864/5/6 1865/5/6 1868/5/6
f 1859/5/6 1864/5/6 1868/5/6
f 1866/5/6 1867/5/6 1868/5/6
f 1865/5/6 1866/5/6 1868/5/6
f 1868/5/6 1867/5/6 1869/5/6
f 1870/5/6 1871/5/6 1872/5/6
f 1872/5/6 1871/5/6 1873/5/6
f 1873/5/6 1871/5/6 1874/5/6
f 1874/5/6 1871/5/6 1875/5/6
f 1870/5/6 1872/5/6 1876/5/6
f 1872/2/6 1873/2/6 1877/2/6
f 1876/5/6 1872/5/6 1877/5/6
f 1873/3/6 1874/3/6 1878/3/6
f 1877/2/6 1873/2/6 1878/2/6
f 1874/2/6 1875/2/6 1879/2/6
f 1878/3/6 1874/3/6 1879/3/6
f 1879/2/6 1875/2/6 1880/2/6
f 1881/5/6 1882/5/6 1890/5/6
f 1890/5/6 1882/5/6 1891/5/6
f 1883/5/6 1884/5/6 1892/5/6
f 1892/5/6 1884/5/6 1893/5/6
f 1885/5/6 1886/5/6 1894/5/6
f 1894/5/6 1886/5/6 1895/5/6
f 1887/5/6 1888/5/6 1896/5/6
f 1896/5/6 1888/5/6 1897/5/6
f 1889/5/6 1890/5/6 1899/5/6
f 1899/5/6 1890/5/6 1900/5/6
f 1897/5/6 1898/5/6 1901/5/6
f 1901/5/6 1898/5/6 1902/5/6
f 1903/5/6 1904/5/6 1907/5/6
f 1907/5/6 1904/5/6 1908/5/6
f 1905/5/6 1906/5/6 1909/5/6
f 1909/5/6 1906/5/6 1910/5/6
f 1911/5/6 1912/5/6 1915/5/6
f 1915/5/6 1912/5/6 1916/5/6
f 1913/5/6 1914/5/6 1923/5/6
f 1923/5/6 1914/5/6 1924/5/6
f 1916/5/6 1917/5/6 1925/5/6
f 1925/5/6 1917/5/6 1926/5/6
f 1918/5/6 1919/5/6 1927/5/6
f 1927/5/6 1919/5/6 1928/5/6
f 1920/5/6 1921/5/6 1929/5/6
f 1929/5/6 1921/5/6 1930/5/6
f 1922/5/6 1923/5/6 1931/5/6
f 1931/5/6 1923/5/6 1932/5/6
f 1933/2/6 1934/2/6 1945/2/6
f 1934/3/6 1935/3/6 1946/3/6
f 1945/2/6 1934/2/6 1946/2/6
f 1935/2/6 1936/2/6 1947/2/6
f 1946/3/6 1935/3/6 1947/3/6
f 1947/2/6 1936/2/6 1948/2/6
f 1937/2/6 1938/2/6 1949/2/6
f 1938/3/6 1939/3/6 1950/3/6
f 1949/2/6 1938/2/6 1950/2/6
f 1939/2/6 1940/2/6 1951/2/6
f 1950/3/6 1939/3/6 1951/3/6
f 1951/2/6 1940/2/6 1952/2/6
f 1941/2/6 1942/2/6 1953/2/6
f 1942/3/6 1943/3/6 1954/3/6
f 1953/2/6 1942/2/6 1954/2/6
f 1943/2/6 1944/2/6 1955/2/6
f 1954/3/6 1943/3/6 1955/3/6
f 1955/2/6 1944/2/6 1956/2/6
f 1945/5/6 1946/5/6 1957/5/6
f 1947/5/6 1948/5/6 1957/5/6
f 1946/5/6 1947/5/6 1957/5/6
f 1957/5/6 1948/5/6 1958/5/6
f 1949/5/6 1950/5/6 1959/5/6
f 1951/5/6 1952/5/6 1959/5/6
f 1950/5/6 1951/5/6 1959/5/6
f 1959/5/6 1952/5/6 1960/5/6
f 1953/5/6 1954/5/6 1961/5/6
f 1955/5/6 1956/5/6 1961/5/6
f 1954/5/6 1955/5/6 1961/5/6
f 1961/5/6 1956/5/6 1962/5/6
f 1963/2/6 1964/2/6 1969/2/6
f 1964/5/6 1965/5/6 1970/5/6
f 1969/2/6 1964/2/6 1970/2/6
f 1967/2/6 1968/2/6 1971/2/6
f 1966/5/6 1967/5/6 1971/5/6
f 1971/2/6 1968/2/6 1972/2/6
f 1969/3/6 1970/3/6 1973/3/6
f 1970/5/6 1965/5/6 1974/5/6
f 1973/3/6 1970/3/6 1974/3/6
f 1966/5/6 1971/5/6 1975/5/6
f 1971/3/6 1972/3/6 1975/3/6
f 1975/3/6 1972/3/6 1976/3/6
f 1973/2/6 1974/2/6 1977/2/6
f 1974/5/6 1965/5/6 1978/5/6
f 1977/2/6 1974/2/6 1978/2/6
f 1978/5/6 1965/5/6 1979/5/6
f 1966/5/6 1975/5/6 1980/5/6
f 1975/2/6 1976/2/6 1981/2/6
f 1980/5/6 1975/5/6 1981/5/6
f 1981/2/6 1976/2/6 1982/2/6
f 1983/2/6 1984/2/6 1989/2/6
f 1984/5/6 1985/5/6 1990/5/6
f 1989/2/6 1984/2/6 1990/2/6
f 1987/2/6 1988/2/6 1991/2/6
f 1986/5/6 1987/5/6 1991/5/6
f 1991/2/6 1988/2/6 1992/2/6
f 1989/3/6 1990/3/6 1993/3/6
f 1990/5/6 1985/5/6 1994/5/6
f 1993/3/6 1990/3/6 1994/3/6
f 1986/5/6 1991/5/6 1995/5/6
f 1991/3/6 1992/3/6 1995/3/6
f 1995/3/6 1992/3/6 1996/3/6
f 1993/2/6 1994/2/6 1997/2/6
f 1994/5/6 1985/5/6 1998/5/6
f 1997/2/6 1994/2/6 1998/2/6
f 1998/5/6 1985/5/6 1999/5/6
f 1986/5/6 1995/5/6 2000/5/6
f 1995/2/6 1996/2/6 2001/2/6
f 2000/5/6 1995/5/6 2001/5/6
f 2001/2/6 1996/2/6 2002/2/6
f 2003/5/6 2004/5/6 2009/5/6
f 2009/5/6 2004/5/6 2010/5/6
f 2010/5/6 2004/5/6 2011/5/6
f 2011/5/6 2004/5/6 2012/5/6
f 2005/5/6 2006/5/6 2013/5/6
f 2013/5/6 2006/5/6 2014/5/6
f 2014/5/6 2006/5/6 2015/5/6
f 2015/5/6 2006/5/6 2016/5/6
f 2007/5/6 2008/5/6 2017/5/6
f 2017/5/6 2008/5/6 2018/5/6
f 2018/5/6 2008/5/6 2019/5/6
f 2019/5/6 2008/5/6 2020/5/6
f 2009/2/6 2010/2/6 2021/2/6
f 2010/3/6 2011/3/6 2022/3/6
f 2021/2/6 2010/2/6 2022/2/6
f 2011/2/6 2012/2/6 2023/2/6
f 2022/3/6 2011/3/6 2023/3/6
f 2023/2/6 2012/2/6 2024/2/6
f 2013/2/6 2014/2/6 2025/2/6
f 2014/3/6 2015/3/6 2026/3/6
f 2025/2/6 2014/2/6 2026/2/6
f 2015/2/6 2016/2/6 2027/2/6
f 2026/3/6 2015/3/6 2027/3/6
f 2027/2/6 2016/2/6 2028/2/6
f 2017/2/6 2018/2/6 2029/2/6
f 2018/3/6 2019/3/6 2030/3/6
f 2029/2/6 2018/2/6 2030/2/6
f 2019/2/6 2020/2/6 2031/2/6
f 2030/3/6 2019/3/6 2031/3/6
f 2031/2/6 2020/2/6 2032/2/6
