# MagicaVoxel @ Ephtracy

# group
o 

# material
mtllib model.mtl
usemtl palette

# normals
vn -1 0 0
vn 1 0 0
vn 0 0 1
vn 0 0 -1
vn 0 -1 0
vn 0 1 0

# texcoords
vt 0.0761719 0.5
vt 0.318359 0.5
vt 0.326172 0.5
vt 0.470703 0.5
vt 0.474609 0.5
vt 0.478516 0.5
vt 0.822266 0.5

# verts
v -1.3 1.5 1.2
v -1.3 1.5 -1.2
v -1.3 1.7 1.2
v -1.3 1.7 -1.2
v 0.4 0 0.4
v 0.4 0 -0.4
v 0.4 0.1 0.9
v 0.4 0.1 0.4
v 0.4 0.1 -0.4
v 0.4 0.1 -0.9
v 0.4 0.9 1
v 0.4 0.9 0.9
v 0.4 0.9 -0.9
v 0.4 0.9 -1
v 0.4 1 1.1
v 0.4 1 1
v 0.4 1 -1
v 0.4 1 -1.1
v 0.4 1.4 0.2
v 0.4 1.4 -0.2
v 0.4 1.5 1.1
v 0.4 1.5 0.2
v 0.4 1.5 -0.2
v 0.4 1.5 -1.1
v 0.4 1.7 1.1
v 0.4 1.7 1
v 0.4 1.7 0.3
v 0.4 1.7 0.2
v 0.4 1.7 -0.2
v 0.4 1.7 -0.3
v 0.4 1.7 -1
v 0.4 1.7 -1.1
v 0.4 1.8 1
v 0.4 1.8 0.3
v 0.4 1.8 -0.3
v 0.4 1.8 -1
v 0.7 0.2 1.3
v 0.7 0.2 1.2
v 0.7 0.2 1.1
v 0.7 0.2 1
v 0.7 0.2 0.9
v 0.7 0.2 0.7
v 0.7 0.2 -0.7
v 0.7 0.2 -0.9
v 0.7 0.2 -1
v 0.7 0.2 -1.1
v 0.7 0.2 -1.2
v 0.7 0.2 -1.3
v 0.7 0.7 1.3
v 0.7 0.7 1.2
v 0.7 0.7 1.1
v 0.7 0.7 1
v 0.7 0.7 0.9
v 0.7 0.7 0.7
v 0.7 0.7 -0.7
v 0.7 0.7 -0.9
v 0.7 0.7 -1
v 0.7 0.7 -1.1
v 0.7 0.7 -1.2
v 0.7 0.7 -1.3
v 0.8 0.1 1.3
v 0.8 0.1 1.2
v 0.8 0.1 1.1
v 0.8 0.1 1
v 0.8 0.1 0.9
v 0.8 0.1 0.7
v 0.8 0.1 -0.7
v 0.8 0.1 -0.9
v 0.8 0.1 -1
v 0.8 0.1 -1.1
v 0.8 0.1 -1.2
v 0.8 0.1 -1.3
v 0.8 0.2 1.3
v 0.8 0.2 1.2
v 0.8 0.2 1.1
v 0.8 0.2 1
v 0.8 0.2 0.9
v 0.8 0.2 0.7
v 0.8 0.2 -0.7
v 0.8 0.2 -0.9
v 0.8 0.2 -1
v 0.8 0.2 -1.1
v 0.8 0.2 -1.2
v 0.8 0.2 -1.3
v 0.8 0.7 1.3
v 0.8 0.7 1.2
v 0.8 0.7 1.1
v 0.8 0.7 1
v 0.8 0.7 0.9
v 0.8 0.7 0.7
v 0.8 0.7 -0.7
v 0.8 0.7 -0.9
v 0.8 0.7 -1
v 0.8 0.7 -1.1
v 0.8 0.7 -1.2
v 0.8 0.7 -1.3
v 0.8 0.8 1.3
v 0.8 0.8 1.2
v 0.8 0.8 1.1
v 0.8 0.8 1
v 0.8 0.8 0.9
v 0.8 0.8 0.7
v 0.8 0.8 -0.7
v 0.8 0.8 -0.9
v 0.8 0.8 -1
v 0.8 0.8 -1.1
v 0.8 0.8 -1.2
v 0.8 0.8 -1.3
v 0.9 0.4 1.3
v 0.9 0.4 1.2
v 0.9 0.4 -1.2
v 0.9 0.4 -1.3
v 0.9 0.5 1.3
v 0.9 0.5 1.2
v 0.9 0.5 -1.2
v 0.9 0.5 -1.3
v 1 0.3 1.3
v 1 0.3 1.2
v 1 0.3 -1.2
v 1 0.3 -1.3
v 1 0.4 1.3
v 1 0.4 1.2
v 1 0.4 -1.2
v 1 0.4 -1.3
v 1 0.5 1.3
v 1 0.5 1.2
v 1 0.5 -1.2
v 1 0.5 -1.3
v 1 0.6 1.3
v 1 0.6 1.2
v 1 0.6 -1.2
v 1 0.6 -1.3
v 1.3 0.2 1.3
v 1.3 0.2 1.2
v 1.3 0.2 -1.2
v 1.3 0.2 -1.3
v 1.3 0.7 1.3
v 1.3 0.7 1.2
v 1.3 0.7 -1.2
v 1.3 0.7 -1.3
v -1.2 1.5 1.1
v -1.2 1.5 -1.1
v -1.2 1.7 1.1
v -1.2 1.7 -1.1
v 0.5 1.5 1.2
v 0.5 1.5 1.1
v 0.5 1.5 0.2
v 0.5 1.5 -0.2
v 0.5 1.5 -1.1
v 0.5 1.5 -1.2
v 0.5 1.7 1.2
v 0.5 1.7 1.1
v 0.5 1.7 0.2
v 0.5 1.7 -0.2
v 0.5 1.7 -1.1
v 0.5 1.7 -1.2
v 0.6 0.1 0.9
v 0.6 0.1 0.7
v 0.6 0.1 -0.7
v 0.6 0.1 -0.9
v 0.6 0.9 1
v 0.6 0.9 0.9
v 0.6 0.9 0.7
v 0.6 0.9 0.2
v 0.6 0.9 -0.2
v 0.6 0.9 -0.7
v 0.6 0.9 -0.9
v 0.6 0.9 -1
v 0.6 1 1.1
v 0.6 1 1
v 0.6 1 0.9
v 0.6 1 0.4
v 0.6 1 -0.4
v 0.6 1 -0.9
v 0.6 1 -1
v 0.6 1 -1.1
v 0.6 1.1 1
v 0.6 1.1 0.9
v 0.6 1.1 0.4
v 0.6 1.1 0.3
v 0.6 1.1 -0.3
v 0.6 1.1 -0.4
v 0.6 1.1 -0.9
v 0.6 1.1 -1
v 0.6 1.2 0.2
v 0.6 1.2 -0.2
v 0.6 1.4 0.2
v 0.6 1.4 -0.2
v 0.6 1.6 1
v 0.6 1.6 0.9
v 0.6 1.6 0.4
v 0.6 1.6 0.3
v 0.6 1.6 -0.3
v 0.6 1.6 -0.4
v 0.6 1.6 -0.9
v 0.6 1.6 -1
v 0.6 1.7 1.1
v 0.6 1.7 1
v 0.6 1.7 0.9
v 0.6 1.7 0.4
v 0.6 1.7 0.3
v 0.6 1.7 0.2
v 0.6 1.7 -0.2
v 0.6 1.7 -0.3
v 0.6 1.7 -0.4
v 0.6 1.7 -0.9
v 0.6 1.7 -1
v 0.6 1.7 -1.1
v 0.6 1.8 1
v 0.6 1.8 0.3
v 0.6 1.8 -0.3
v 0.6 1.8 -1
v 0.8 0.2 1.3
v 0.8 0.2 1.2
v 0.8 0.2 -1.2
v 0.8 0.2 -1.3
v 0.8 0.7 1.3
v 0.8 0.7 1.2
v 0.8 0.7 -1.2
v 0.8 0.7 -1.3
v 0.8 1.1 0.9
v 0.8 1.1 0.6
v 0.8 1.1 0.5
v 0.8 1.1 0.4
v 0.8 1.1 -0.4
v 0.8 1.1 -0.7
v 0.8 1.1 -0.8
v 0.8 1.1 -0.9
v 0.8 1.4 0.7
v 0.8 1.4 0.6
v 0.8 1.4 -0.6
v 0.8 1.4 -0.7
v 0.8 1.6 0.9
v 0.8 1.6 0.7
v 0.8 1.6 0.5
v 0.8 1.6 0.4
v 0.8 1.6 -0.4
v 0.8 1.6 -0.6
v 0.8 1.6 -0.8
v 0.8 1.6 -0.9
v 0.9 1 0.9
v 0.9 1 0.4
v 0.9 1 -0.4
v 0.9 1 -0.9
v 0.9 1.1 1
v 0.9 1.1 0.9
v 0.9 1.1 0.4
v 0.9 1.1 0.3
v 0.9 1.1 -0.3
v 0.9 1.1 -0.4
v 0.9 1.1 -0.9
v 0.9 1.1 -1
v 0.9 1.6 1
v 0.9 1.6 0.9
v 0.9 1.6 0.4
v 0.9 1.6 0.3
v 0.9 1.6 -0.3
v 0.9 1.6 -0.4
v 0.9 1.6 -0.9
v 0.9 1.6 -1
v 0.9 1.7 0.9
v 0.9 1.7 0.4
v 0.9 1.7 -0.4
v 0.9 1.7 -0.9
v 1.1 0.1 0.6
v 1.1 0.1 0.4
v 1.1 0.1 -0.4
v 1.1 0.1 -0.6
v 1.1 0.3 1.3
v 1.1 0.3 1.2
v 1.1 0.3 -1.2
v 1.1 0.3 -1.3
v 1.1 0.4 1.3
v 1.1 0.4 1.2
v 1.1 0.4 -1.2
v 1.1 0.4 -1.3
v 1.1 0.5 1.3
v 1.1 0.5 1.2
v 1.1 0.5 -1.2
v 1.1 0.5 -1.3
v 1.1 0.6 1.3
v 1.1 0.6 1.2
v 1.1 0.6 -1.2
v 1.1 0.6 -1.3
v 1.1 0.7 0.4
v 1.1 0.7 0.3
v 1.1 0.7 -0.3
v 1.1 0.7 -0.4
v 1.1 0.8 0.7
v 1.1 0.8 0.6
v 1.1 0.8 -0.6
v 1.1 0.8 -0.7
v 1.1 0.9 0.7
v 1.1 0.9 0.3
v 1.1 0.9 0.2
v 1.1 0.9 -0.2
v 1.1 0.9 -0.3
v 1.1 0.9 -0.7
v 1.1 1.2 0.2
v 1.1 1.2 -0.2
v 1.2 0.4 1.3
v 1.2 0.4 1.2
v 1.2 0.4 -1.2
v 1.2 0.4 -1.3
v 1.2 0.5 1.3
v 1.2 0.5 1.2
v 1.2 0.5 -1.2
v 1.2 0.5 -1.3
v 1.3 0.1 1.3
v 1.3 0.1 1.2
v 1.3 0.1 1.1
v 1.3 0.1 1
v 1.3 0.1 0.9
v 1.3 0.1 0.6
v 1.3 0.1 0.3
v 1.3 0.1 -0.3
v 1.3 0.1 -0.6
v 1.3 0.1 -0.9
v 1.3 0.1 -1
v 1.3 0.1 -1.1
v 1.3 0.1 -1.2
v 1.3 0.1 -1.3
v 1.3 0.2 1.3
v 1.3 0.2 1.2
v 1.3 0.2 1.1
v 1.3 0.2 1
v 1.3 0.2 0.9
v 1.3 0.2 0.6
v 1.3 0.2 0.3
v 1.3 0.2 -0.3
v 1.3 0.2 -0.6
v 1.3 0.2 -0.9
v 1.3 0.2 -1
v 1.3 0.2 -1.1
v 1.3 0.2 -1.2
v 1.3 0.2 -1.3
v 1.3 0.3 0.3
v 1.3 0.3 -0.3
v 1.3 0.4 0.3
v 1.3 0.4 -0.3
v 1.3 0.5 0.3
v 1.3 0.5 -0.3
v 1.3 0.6 0.3
v 1.3 0.6 -0.3
v 1.3 0.7 1.3
v 1.3 0.7 1.2
v 1.3 0.7 1.1
v 1.3 0.7 1
v 1.3 0.7 0.9
v 1.3 0.7 0.6
v 1.3 0.7 -0.6
v 1.3 0.7 -0.9
v 1.3 0.7 -1
v 1.3 0.7 -1.1
v 1.3 0.7 -1.2
v 1.3 0.7 -1.3
v 1.3 0.8 1.3
v 1.3 0.8 1.2
v 1.3 0.8 1.1
v 1.3 0.8 1
v 1.3 0.8 0.9
v 1.3 0.8 0.6
v 1.3 0.8 -0.6
v 1.3 0.8 -0.9
v 1.3 0.8 -1
v 1.3 0.8 -1.1
v 1.3 0.8 -1.2
v 1.3 0.8 -1.3
v 1.4 0 0.4
v 1.4 0 -0.4
v 1.4 0.1 0.3
v 1.4 0.1 -0.3
v 1.4 0.2 1.3
v 1.4 0.2 1.2
v 1.4 0.2 1.1
v 1.4 0.2 1
v 1.4 0.2 0.9
v 1.4 0.2 0.6
v 1.4 0.2 0.3
v 1.4 0.2 -0.3
v 1.4 0.2 -0.6
v 1.4 0.2 -0.9
v 1.4 0.2 -1
v 1.4 0.2 -1.1
v 1.4 0.2 -1.2
v 1.4 0.2 -1.3
v 1.4 0.3 0.3
v 1.4 0.3 -0.3
v 1.4 0.4 0.3
v 1.4 0.4 -0.3
v 1.4 0.5 0.3
v 1.4 0.5 -0.3
v 1.4 0.6 0.3
v 1.4 0.6 -0.3
v 1.4 0.7 1.3
v 1.4 0.7 1.2
v 1.4 0.7 1.1
v 1.4 0.7 1
v 1.4 0.7 0.9
v 1.4 0.7 0.6
v 1.4 0.7 0.4
v 1.4 0.7 0.3
v 1.4 0.7 -0.3
v 1.4 0.7 -0.4
v 1.4 0.7 -0.6
v 1.4 0.7 -0.9
v 1.4 0.7 -1
v 1.4 0.7 -1.1
v 1.4 0.7 -1.2
v 1.4 0.7 -1.3
v 1.4 0.9 0.3
v 1.4 0.9 -0.3
v 0.7 0.2 1.3
v 0.7 0.7 1.3
v 0.8 0.1 1.3
v 0.8 0.2 1.3
v 0.8 0.7 1.3
v 0.8 0.8 1.3
v 0.9 0.4 1.3
v 0.9 0.5 1.3
v 1 0.3 1.3
v 1 0.4 1.3
v 1 0.5 1.3
v 1 0.6 1.3
v 1.1 0.3 1.3
v 1.1 0.4 1.3
v 1.1 0.5 1.3
v 1.1 0.6 1.3
v 1.2 0.4 1.3
v 1.2 0.5 1.3
v 1.3 0.1 1.3
v 1.3 0.2 1.3
v 1.3 0.7 1.3
v 1.3 0.8 1.3
v 1.4 0.2 1.3
v 1.4 0.7 1.3
v -1.3 1.5 1.2
v -1.3 1.7 1.2
v 0.5 1.5 1.2
v 0.5 1.7 1.2
v 0.8 0.2 1.2
v 0.8 0.7 1.2
v 0.9 0.4 1.2
v 0.9 0.5 1.2
v 1 0.3 1.2
v 1 0.4 1.2
v 1 0.5 1.2
v 1 0.6 1.2
v 1.1 0.3 1.2
v 1.1 0.4 1.2
v 1.1 0.5 1.2
v 1.1 0.6 1.2
v 1.2 0.4 1.2
v 1.2 0.5 1.2
v 1.3 0.2 1.2
v 1.3 0.7 1.2
v 0.4 1 1.1
v 0.4 1.5 1.1
v 0.5 1.5 1.1
v 0.5 1.7 1.1
v 0.6 1 1.1
v 0.6 1.7 1.1
v 0.4 0.9 1
v 0.4 1 1
v 0.4 1.7 1
v 0.4 1.8 1
v 0.6 0.9 1
v 0.6 1 1
v 0.6 1.1 1
v 0.6 1.6 1
v 0.6 1.7 1
v 0.6 1.8 1
v 0.7 1.1 1
v 0.7 1.6 1
v 0.8 1.1 1
v 0.8 1.6 1
v 0.9 1.1 1
v 0.9 1.6 1
v 0.4 0.1 0.9
v 0.4 0.9 0.9
v 0.6 0.1 0.9
v 0.6 0.9 0.9
v 0.6 1 0.9
v 0.6 1.1 0.9
v 0.6 1.6 0.9
v 0.6 1.7 0.9
v 0.7 1 0.9
v 0.7 1.1 0.9
v 0.7 1.6 0.9
v 0.7 1.7 0.9
v 0.8 1 0.9
v 0.8 1.1 0.9
v 0.8 1.6 0.9
v 0.8 1.7 0.9
v 0.9 1 0.9
v 0.9 1.1 0.9
v 0.9 1.6 0.9
v 0.9 1.7 0.9
v 0.6 0.1 0.7
v 0.6 0.9 0.7
v 0.7 0.2 0.7
v 0.7 0.7 0.7
v 0.8 0.1 0.7
v 0.8 0.2 0.7
v 0.8 0.7 0.7
v 0.8 0.8 0.7
v 1.1 0.8 0.7
v 1.1 0.9 0.7
v 0.4 0 0.4
v 0.4 0.1 0.4
v 0.8 1.1 0.4
v 0.8 1.6 0.4
v 0.9 1.1 0.4
v 0.9 1.6 0.4
v 1.1 0.1 0.4
v 1.1 0.7 0.4
v 1.4 0 0.4
v 1.4 0.7 0.4
v 1.1 0.7 0.3
v 1.1 0.9 0.3
v 1.4 0.7 0.3
v 1.4 0.9 0.3
v 0.6 0.9 0.2
v 0.6 1.2 0.2
v 1.1 0.9 0.2
v 1.1 1.2 0.2
v 0.4 1.4 -0.2
v 0.4 1.5 -0.2
v 0.5 1.5 -0.2
v 0.5 1.7 -0.2
v 0.6 1.4 -0.2
v 0.6 1.7 -0.2
v 0.4 1.7 -0.3
v 0.4 1.8 -0.3
v 0.6 1.1 -0.3
v 0.6 1.6 -0.3
v 0.6 1.7 -0.3
v 0.6 1.8 -0.3
v 0.7 1.1 -0.3
v 0.7 1.6 -0.3
v 0.8 1.1 -0.3
v 0.8 1.6 -0.3
v 0.9 1.1 -0.3
v 0.9 1.6 -0.3
v 1.3 0.1 -0.3
v 1.3 0.2 -0.3
v 1.3 0.3 -0.3
v 1.3 0.4 -0.3
v 1.3 0.5 -0.3
v 1.3 0.6 -0.3
v 1.4 0.1 -0.3
v 1.4 0.2 -0.3
v 1.4 0.3 -0.3
v 1.4 0.4 -0.3
v 1.4 0.5 -0.3
v 1.4 0.6 -0.3
v 0.6 1 -0.4
v 0.6 1.1 -0.4
v 0.6 1.6 -0.4
v 0.6 1.7 -0.4
v 0.7 1 -0.4
v 0.7 1.1 -0.4
v 0.7 1.6 -0.4
v 0.7 1.7 -0.4
v 0.8 1 -0.4
v 0.8 1.1 -0.4
v 0.8 1.6 -0.4
v 0.8 1.7 -0.4
v 0.9 1 -0.4
v 0.9 1.1 -0.4
v 0.9 1.6 -0.4
v 0.9 1.7 -0.4
v 1.1 0.1 -0.6
v 1.1 0.8 -0.6
v 1.3 0.1 -0.6
v 1.3 0.2 -0.6
v 1.3 0.7 -0.6
v 1.3 0.8 -0.6
v 1.4 0.2 -0.6
v 1.4 0.7 -0.6
v 0.8 1.1 -0.9
v 0.8 1.6 -0.9
v 0.9 1.1 -0.9
v 0.9 1.6 -0.9
v -1.2 1.5 -1.1
v -1.2 1.7 -1.1
v 0.4 1.5 -1.1
v 0.4 1.7 -1.1
v -1.2 1.5 1.1
v -1.2 1.7 1.1
v 0.4 1.5 1.1
v 0.4 1.7 1.1
v 0.8 1.1 0.9
v 0.8 1.6 0.9
v 0.9 1.1 0.9
v 0.9 1.6 0.9
v 1.1 0.1 0.6
v 1.1 0.8 0.6
v 1.3 0.1 0.6
v 1.3 0.2 0.6
v 1.3 0.7 0.6
v 1.3 0.8 0.6
v 1.4 0.2 0.6
v 1.4 0.7 0.6
v 0.6 1 0.4
v 0.6 1.1 0.4
v 0.6 1.6 0.4
v 0.6 1.7 0.4
v 0.7 1 0.4
v 0.7 1.1 0.4
v 0.7 1.6 0.4
v 0.7 1.7 0.4
v 0.8 1 0.4
v 0.8 1.1 0.4
v 0.8 1.6 0.4
v 0.8 1.7 0.4
v 0.9 1 0.4
v 0.9 1.1 0.4
v 0.9 1.6 0.4
v 0.9 1.7 0.4
v 0.4 1.7 0.3
v 0.4 1.8 0.3
v 0.6 1.1 0.3
v 0.6 1.6 0.3
v 0.6 1.7 0.3
v 0.6 1.8 0.3
v 0.7 1.1 0.3
v 0.7 1.6 0.3
v 0.8 1.1 0.3
v 0.8 1.6 0.3
v 0.9 1.1 0.3
v 0.9 1.6 0.3
v 1.3 0.1 0.3
v 1.3 0.2 0.3
v 1.3 0.3 0.3
v 1.3 0.4 0.3
v 1.3 0.5 0.3
v 1.3 0.6 0.3
v 1.4 0.1 0.3
v 1.4 0.2 0.3
v 1.4 0.3 0.3
v 1.4 0.4 0.3
v 1.4 0.5 0.3
v 1.4 0.6 0.3
v 0.4 1.4 0.2
v 0.4 1.5 0.2
v 0.5 1.5 0.2
v 0.5 1.7 0.2
v 0.6 1.4 0.2
v 0.6 1.7 0.2
v 0.6 0.9 -0.2
v 0.6 1.2 -0.2
v 1.1 0.9 -0.2
v 1.1 1.2 -0.2
v 1.1 0.7 -0.3
v 1.1 0.9 -0.3
v 1.4 0.7 -0.3
v 1.4 0.9 -0.3
v 0.4 0 -0.4
v 0.4 0.1 -0.4
v 0.8 1.1 -0.4
v 0.8 1.6 -0.4
v 0.9 1.1 -0.4
v 0.9 1.6 -0.4
v 1.1 0.1 -0.4
v 1.1 0.7 -0.4
v 1.4 0 -0.4
v 1.4 0.7 -0.4
v 0.6 0.1 -0.7
v 0.6 0.9 -0.7
v 0.7 0.2 -0.7
v 0.7 0.7 -0.7
v 0.8 0.1 -0.7
v 0.8 0.2 -0.7
v 0.8 0.7 -0.7
v 0.8 0.8 -0.7
v 1.1 0.8 -0.7
v 1.1 0.9 -0.7
v 0.4 0.1 -0.9
v 0.4 0.9 -0.9
v 0.6 0.1 -0.9
v 0.6 0.9 -0.9
v 0.6 1 -0.9
v 0.6 1.1 -0.9
v 0.6 1.6 -0.9
v 0.6 1.7 -0.9
v 0.7 1 -0.9
v 0.7 1.1 -0.9
v 0.7 1.6 -0.9
v 0.7 1.7 -0.9
v 0.8 1 -0.9
v 0.8 1.1 -0.9
v 0.8 1.6 -0.9
v 0.8 1.7 -0.9
v 0.9 1 -0.9
v 0.9 1.1 -0.9
v 0.9 1.6 -0.9
v 0.9 1.7 -0.9
v 0.4 0.9 -1
v 0.4 1 -1
v 0.4 1.7 -1
v 0.4 1.8 -1
v 0.6 0.9 -1
v 0.6 1 -1
v 0.6 1.1 -1
v 0.6 1.6 -1
v 0.6 1.7 -1
v 0.6 1.8 -1
v 0.7 1.1 -1
v 0.7 1.6 -1
v 0.8 1.1 -1
v 0.8 1.6 -1
v 0.9 1.1 -1
v 0.9 1.6 -1
v 0.4 1 -1.1
v 0.4 1.5 -1.1
v 0.5 1.5 -1.1
v 0.5 1.7 -1.1
v 0.6 1 -1.1
v 0.6 1.7 -1.1
v -1.3 1.5 -1.2
v -1.3 1.7 -1.2
v 0.5 1.5 -1.2
v 0.5 1.7 -1.2
v 0.8 0.2 -1.2
v 0.8 0.7 -1.2
v 0.9 0.4 -1.2
v 0.9 0.5 -1.2
v 1 0.3 -1.2
v 1 0.4 -1.2
v 1 0.5 -1.2
v 1 0.6 -1.2
v 1.1 0.3 -1.2
v 1.1 0.4 -1.2
v 1.1 0.5 -1.2
v 1.1 0.6 -1.2
v 1.2 0.4 -1.2
v 1.2 0.5 -1.2
v 1.3 0.2 -1.2
v 1.3 0.7 -1.2
v 0.7 0.2 -1.3
v 0.7 0.7 -1.3
v 0.8 0.1 -1.3
v 0.8 0.2 -1.3
v 0.8 0.7 -1.3
v 0.8 0.8 -1.3
v 0.9 0.4 -1.3
v 0.9 0.5 -1.3
v 1 0.3 -1.3
v 1 0.4 -1.3
v 1 0.5 -1.3
v 1 0.6 -1.3
v 1.1 0.3 -1.3
v 1.1 0.4 -1.3
v 1.1 0.5 -1.3
v 1.1 0.6 -1.3
v 1.2 0.4 -1.3
v 1.2 0.5 -1.3
v 1.3 0.1 -1.3
v 1.3 0.2 -1.3
v 1.3 0.7 -1.3
v 1.3 0.8 -1.3
v 1.4 0.2 -1.3
v 1.4 0.7 -1.3
v 0.4 0 0.4
v 1.4 0 0.4
v 0.4 0 -0.4
v 1.4 0 -0.4
v 0.8 0.1 1.3
v 1.3 0.1 1.3
v 0.8 0.1 1.2
v 1.3 0.1 1.2
v 0.8 0.1 1.1
v 1.3 0.1 1.1
v 0.8 0.1 1
v 1.3 0.1 1
v 0.4 0.1 0.9
v 0.6 0.1 0.9
v 0.8 0.1 0.9
v 1.3 0.1 0.9
v 0.6 0.1 0.7
v 0.8 0.1 0.7
v 0.8 0.1 0.6
v 1.1 0.1 0.6
v 1.3 0.1 0.6
v 0.4 0.1 0.4
v 1.1 0.1 0.4
v 0.4 0.1 -0.4
v 1.1 0.1 -0.4
v 0.8 0.1 -0.6
v 1.1 0.1 -0.6
v 1.3 0.1 -0.6
v 0.6 0.1 -0.7
v 0.8 0.1 -0.7
v 0.4 0.1 -0.9
v 0.6 0.1 -0.9
v 0.8 0.1 -0.9
v 1.3 0.1 -0.9
v 0.8 0.1 -1
v 1.3 0.1 -1
v 0.8 0.1 -1.1
v 1.3 0.1 -1.1
v 0.8 0.1 -1.2
v 1.3 0.1 -1.2
v 0.8 0.1 -1.3
v 1.3 0.1 -1.3
v 0.7 0.2 1.3
v 0.8 0.2 1.3
v 1.3 0.2 1.3
v 1.4 0.2 1.3
v 0.7 0.2 1.2
v 0.8 0.2 1.2
v 1.3 0.2 1.2
v 1.4 0.2 1.2
v 0.7 0.2 1.1
v 0.8 0.2 1.1
v 1.3 0.2 1.1
v 1.4 0.2 1.1
v 0.7 0.2 1
v 0.8 0.2 1
v 1.3 0.2 1
v 1.4 0.2 1
v 0.7 0.2 0.9
v 0.8 0.2 0.9
v 1.3 0.2 0.9
v 1.4 0.2 0.9
v 0.7 0.2 0.7
v 0.8 0.2 0.7
v 1.3 0.2 0.6
v 1.4 0.2 0.6
v 1.3 0.2 0.3
v 1.4 0.2 0.3
v 1.3 0.2 -0.3
v 1.4 0.2 -0.3
v 1.3 0.2 -0.6
v 1.4 0.2 -0.6
v 0.7 0.2 -0.7
v 0.8 0.2 -0.7
v 0.7 0.2 -0.9
v 0.8 0.2 -0.9
v 1.3 0.2 -0.9
v 1.4 0.2 -0.9
v 0.7 0.2 -1
v 0.8 0.2 -1
v 1.3 0.2 -1
v 1.4 0.2 -1
v 0.7 0.2 -1.1
v 0.8 0.2 -1.1
v 1.3 0.2 -1.1
v 1.4 0.2 -1.1
v 0.7 0.2 -1.2
v 0.8 0.2 -1.2
v 1.3 0.2 -1.2
v 1.4 0.2 -1.2
v 0.7 0.2 -1.3
v 0.8 0.2 -1.3
v 1.3 0.2 -1.3
v 1.4 0.2 -1.3
v 1 0.3 1.3
v 1.1 0.3 1.3
v 1 0.3 1.2
v 1.1 0.3 1.2
v 1 0.3 -1.2
v 1.1 0.3 -1.2
v 1 0.3 -1.3
v 1.1 0.3 -1.3
v 0.9 0.4 1.3
v 1 0.4 1.3
v 1.1 0.4 1.3
v 1.2 0.4 1.3
v 0.9 0.4 1.2
v 1 0.4 1.2
v 1.1 0.4 1.2
v 1.2 0.4 1.2
v 1.3 0.4 0.3
v 1.4 0.4 0.3
v 1.3 0.4 -0.3
v 1.4 0.4 -0.3
v 0.9 0.4 -1.2
v 1 0.4 -1.2
v 1.1 0.4 -1.2
v 1.2 0.4 -1.2
v 0.9 0.4 -1.3
v 1 0.4 -1.3
v 1.1 0.4 -1.3
v 1.2 0.4 -1.3
v 1.3 0.6 0.3
v 1.4 0.6 0.3
v 1.3 0.6 -0.3
v 1.4 0.6 -0.3
v 0.8 0.7 1.3
v 1.3 0.7 1.3
v 0.8 0.7 1.2
v 1.3 0.7 1.2
v 0.8 0.7 -1.2
v 1.3 0.7 -1.2
v 0.8 0.7 -1.3
v 1.3 0.7 -1.3
v 0.4 0.9 1
v 0.6 0.9 1
v 0.4 0.9 0.9
v 0.6 0.9 0.9
v 0.4 0.9 -0.9
v 0.6 0.9 -0.9
v 0.4 0.9 -1
v 0.6 0.9 -1
v 0.4 1 1.1
v 0.6 1 1.1
v 0.4 1 1
v 0.6 1 1
v 0.6 1 0.9
v 0.7 1 0.9
v 0.8 1 0.9
v 0.9 1 0.9
v 0.6 1 0.4
v 0.7 1 0.4
v 0.8 1 0.4
v 0.9 1 0.4
v 0.6 1 -0.4
v 0.7 1 -0.4
v 0.8 1 -0.4
v 0.9 1 -0.4
v 0.6 1 -0.9
v 0.7 1 -0.9
v 0.8 1 -0.9
v 0.9 1 -0.9
v 0.4 1 -1
v 0.6 1 -1
v 0.4 1 -1.1
v 0.6 1 -1.1
v 0.6 1.1 1
v 0.7 1.1 1
v 0.8 1.1 1
v 0.9 1.1 1
v 0.6 1.1 0.9
v 0.7 1.1 0.9
v 0.8 1.1 0.9
v 0.9 1.1 0.9
v 0.6 1.1 0.4
v 0.7 1.1 0.4
v 0.8 1.1 0.4
v 0.9 1.1 0.4
v 0.6 1.1 0.3
v 0.7 1.1 0.3
v 0.8 1.1 0.3
v 0.9 1.1 0.3
v 0.6 1.1 -0.3
v 0.7 1.1 -0.3
v 0.8 1.1 -0.3
v 0.9 1.1 -0.3
v 0.6 1.1 -0.4
v 0.7 1.1 -0.4
v 0.8 1.1 -0.4
v 0.9 1.1 -0.4
v 0.6 1.1 -0.9
v 0.7 1.1 -0.9
v 0.8 1.1 -0.9
v 0.9 1.1 -0.9
v 0.6 1.1 -1
v 0.7 1.1 -1
v 0.8 1.1 -1
v 0.9 1.1 -1
v -1.3 1.5 1.2
v 0.5 1.5 1.2
v -1.2 1.5 1.1
v 0.4 1.5 1.1
v 0.5 1.5 1.1
v 0.4 1.5 0.2
v 0.5 1.5 0.2
v 0.4 1.5 -0.2
v 0.5 1.5 -0.2
v -1.2 1.5 -1.1
v 0.4 1.5 -1.1
v 0.5 1.5 -1.1
v -1.3 1.5 -1.2
v 0.5 1.5 -1.2
v 0.8 1.6 0.9
v 0.9 1.6 0.9
v 0.8 1.6 0.7
v 0.8 1.6 0.5
v 0.8 1.6 0.4
v 0.9 1.6 0.4
v 0.8 1.6 -0.4
v 0.9 1.6 -0.4
v 0.8 1.6 -0.6
v 0.8 1.6 -0.8
v 0.8 1.6 -0.9
v 0.9 1.6 -0.9
v 1.3 0.1 0.3
v 1.4 0.1 0.3
v 1.3 0.1 -0.3
v 1.4 0.1 -0.3
v 0.8 0.2 1.3
v 1.3 0.2 1.3
v 0.8 0.2 1.2
v 1.3 0.2 1.2
v 0.8 0.2 -1.2
v 1.3 0.2 -1.2
v 0.8 0.2 -1.3
v 1.3 0.2 -1.3
v 1.3 0.3 0.3
v 1.4 0.3 0.3
v 1.3 0.3 -0.3
v 1.4 0.3 -0.3
v 0.9 0.5 1.3
v 1 0.5 1.3
v 1.1 0.5 1.3
v 1.2 0.5 1.3
v 0.9 0.5 1.2
v 1 0.5 1.2
v 1.1 0.5 1.2
v 1.2 0.5 1.2
v 1.3 0.5 0.3
v 1.4 0.5 0.3
v 1.3 0.5 -0.3
v 1.4 0.5 -0.3
v 0.9 0.5 -1.2
v 1 0.5 -1.2
v 1.1 0.5 -1.2
v 1.2 0.5 -1.2
v 0.9 0.5 -1.3
v 1 0.5 -1.3
v 1.1 0.5 -1.3
v 1.2 0.5 -1.3
v 1 0.6 1.3
v 1.1 0.6 1.3
v 1 0.6 1.2
v 1.1 0.6 1.2
v 1 0.6 -1.2
v 1.1 0.6 -1.2
v 1 0.6 -1.3
v 1.1 0.6 -1.3
v 0.7 0.7 1.3
v 0.8 0.7 1.3
v 1.3 0.7 1.3
v 1.4 0.7 1.3
v 0.7 0.7 1.2
v 0.8 0.7 1.2
v 1.3 0.7 1.2
v 1.4 0.7 1.2
v 0.7 0.7 1.1
v 0.8 0.7 1.1
v 1.3 0.7 1.1
v 1.4 0.7 1.1
v 0.7 0.7 1
v 0.8 0.7 1
v 1.3 0.7 1
v 1.4 0.7 1
v 0.7 0.7 0.9
v 0.8 0.7 0.9
v 1.3 0.7 0.9
v 1.4 0.7 0.9
v 0.7 0.7 0.7
v 0.8 0.7 0.7
v 1.3 0.7 0.6
v 1.4 0.7 0.6
v 1.1 0.7 0.4
v 1.4 0.7 0.4
v 1.1 0.7 0.3
v 1.4 0.7 0.3
v 1.1 0.7 -0.3
v 1.4 0.7 -0.3
v 1.1 0.7 -0.4
v 1.4 0.7 -0.4
v 1.3 0.7 -0.6
v 1.4 0.7 -0.6
v 0.7 0.7 -0.7
v 0.8 0.7 -0.7
v 0.7 0.7 -0.9
v 0.8 0.7 -0.9
v 1.3 0.7 -0.9
v 1.4 0.7 -0.9
v 0.7 0.7 -1
v 0.8 0.7 -1
v 1.3 0.7 -1
v 1.4 0.7 -1
v 0.7 0.7 -1.1
v 0.8 0.7 -1.1
v 1.3 0.7 -1.1
v 1.4 0.7 -1.1
v 0.7 0.7 -1.2
v 0.8 0.7 -1.2
v 1.3 0.7 -1.2
v 1.4 0.7 -1.2
v 0.7 0.7 -1.3
v 0.8 0.7 -1.3
v 1.3 0.7 -1.3
v 1.4 0.7 -1.3
v 0.8 0.8 1.3
v 1.3 0.8 1.3
v 0.8 0.8 1.2
v 1.3 0.8 1.2
v 0.8 0.8 1.1
v 1.3 0.8 1.1
v 0.8 0.8 1
v 1.3 0.8 1
v 0.8 0.8 0.9
v 1.3 0.8 0.9
v 0.8 0.8 0.7
v 1.1 0.8 0.7
v 1.1 0.8 0.6
v 1.3 0.8 0.6
v 1.1 0.8 -0.6
v 1.3 0.8 -0.6
v 0.8 0.8 -0.7
v 1.1 0.8 -0.7
v 0.8 0.8 -0.9
v 1.3 0.8 -0.9
v 0.8 0.8 -1
v 1.3 0.8 -1
v 0.8 0.8 -1.1
v 1.3 0.8 -1.1
v 0.8 0.8 -1.2
v 1.3 0.8 -1.2
v 0.8 0.8 -1.3
v 1.3 0.8 -1.3
v 0.6 0.9 0.7
v 1.1 0.9 0.7
v 1.1 0.9 0.3
v 1.4 0.9 0.3
v 0.6 0.9 0.2
v 1.1 0.9 0.2
v 0.6 0.9 -0.2
v 1.1 0.9 -0.2
v 1.1 0.9 -0.3
v 1.4 0.9 -0.3
v 0.6 0.9 -0.7
v 1.1 0.9 -0.7
v 0.8 1.1 0.9
v 0.9 1.1 0.9
v 0.8 1.1 0.6
v 0.8 1.1 0.5
v 0.8 1.1 0.4
v 0.9 1.1 0.4
v 0.8 1.1 -0.4
v 0.9 1.1 -0.4
v 0.8 1.1 -0.7
v 0.8 1.1 -0.8
v 0.8 1.1 -0.9
v 0.9 1.1 -0.9
v 0.6 1.2 0.2
v 1.1 1.2 0.2
v 0.6 1.2 -0.2
v 1.1 1.2 -0.2
v 0.4 1.4 0.2
v 0.6 1.4 0.2
v 0.4 1.4 -0.2
v 0.6 1.4 -0.2
v 0.6 1.6 1
v 0.7 1.6 1
v 0.8 1.6 1
v 0.9 1.6 1
v 0.6 1.6 0.9
v 0.7 1.6 0.9
v 0.8 1.6 0.9
v 0.9 1.6 0.9
v 0.6 1.6 0.4
v 0.7 1.6 0.4
v 0.8 1.6 0.4
v 0.9 1.6 0.4
v 0.6 1.6 0.3
v 0.7 1.6 0.3
v 0.8 1.6 0.3
v 0.9 1.6 0.3
v 0.6 1.6 -0.3
v 0.7 1.6 -0.3
v 0.8 1.6 -0.3
v 0.9 1.6 -0.3
v 0.6 1.6 -0.4
v 0.7 1.6 -0.4
v 0.8 1.6 -0.4
v 0.9 1.6 -0.4
v 0.6 1.6 -0.9
v 0.7 1.6 -0.9
v 0.8 1.6 -0.9
v 0.9 1.6 -0.9
v 0.6 1.6 -1
v 0.7 1.6 -1
v 0.8 1.6 -1
v 0.9 1.6 -1
v -1.3 1.7 1.2
v 0.5 1.7 1.2
v -1.2 1.7 1.1
v 0.4 1.7 1.1
v 0.5 1.7 1.1
v 0.6 1.7 1.1
v 0.4 1.7 1
v 0.6 1.7 1
v 0.6 1.7 0.9
v 0.7 1.7 0.9
v 0.8 1.7 0.9
v 0.9 1.7 0.9
v 0.6 1.7 0.4
v 0.7 1.7 0.4
v 0.8 1.7 0.4
v 0.9 1.7 0.4
v 0.4 1.7 0.3
v 0.6 1.7 0.3
v 0.4 1.7 0.2
v 0.5 1.7 0.2
v 0.6 1.7 0.2
v 0.4 1.7 -0.2
v 0.5 1.7 -0.2
v 0.6 1.7 -0.2
v 0.4 1.7 -0.3
v 0.6 1.7 -0.3
v 0.6 1.7 -0.4
v 0.7 1.7 -0.4
v 0.8 1.7 -0.4
v 0.9 1.7 -0.4
v 0.6 1.7 -0.9
v 0.7 1.7 -0.9
v 0.8 1.7 -0.9
v 0.9 1.7 -0.9
v 0.4 1.7 -1
v 0.6 1.7 -1
v -1.2 1.7 -1.1
v 0.4 1.7 -1.1
v 0.5 1.7 -1.1
v 0.6 1.7 -1.1
v -1.3 1.7 -1.2
v 0.5 1.7 -1.2
v 0.4 1.8 1
v 0.6 1.8 1
v 0.4 1.8 0.3
v 0.6 1.8 0.3
v 0.4 1.8 -0.3
v 0.6 1.8 -0.3
v 0.4 1.8 -1
v 0.6 1.8 -1

# faces
f 3/1/1 2/1/1 1/1/1
f 4/1/1 2/1/1 3/1/1
f 8/4/1 6/4/1 5/4/1
f 9/4/1 6/4/1 8/4/1
f 12/4/1 8/4/1 7/4/1
f 12/4/1 10/4/1 9/4/1
f 12/4/1 9/4/1 8/4/1
f 13/4/1 10/4/1 12/4/1
f 16/4/1 12/4/1 11/4/1
f 16/4/1 14/4/1 13/4/1
f 16/4/1 13/4/1 12/4/1
f 17/4/1 14/4/1 16/4/1
f 19/4/1 16/4/1 15/4/1
f 19/4/1 18/4/1 17/4/1
f 19/4/1 17/4/1 16/4/1
f 20/4/1 18/4/1 19/4/1
f 21/4/1 19/4/1 15/4/1
f 22/4/1 19/4/1 21/4/1
f 23/4/1 18/4/1 20/4/1
f 24/4/1 18/4/1 23/4/1
f 25/4/1 22/4/1 21/4/1
f 26/4/1 22/4/1 25/4/1
f 27/4/1 22/4/1 26/4/1
f 28/1/1 23/1/1 22/1/1
f 28/4/1 22/4/1 27/4/1
f 29/4/1 24/4/1 23/4/1
f 29/1/1 23/1/1 28/1/1
f 30/4/1 24/4/1 29/4/1
f 31/4/1 24/4/1 30/4/1
f 32/4/1 24/4/1 31/4/1
f 33/4/1 27/4/1 26/4/1
f 34/4/1 27/4/1 33/4/1
f 35/4/1 31/4/1 30/4/1
f 36/4/1 31/4/1 35/4/1
f 49/5/1 38/5/1 37/5/1
f 50/6/1 39/6/1 38/6/1
f 50/5/1 38/5/1 49/5/1
f 51/5/1 40/5/1 39/5/1
f 51/6/1 39/6/1 50/6/1
f 52/6/1 41/6/1 40/6/1
f 52/5/1 40/5/1 51/5/1
f 53/5/1 42/5/1 41/5/1
f 53/6/1 41/6/1 52/6/1
f 54/5/1 42/5/1 53/5/1
f 55/5/1 44/5/1 43/5/1
f 56/6/1 45/6/1 44/6/1
f 56/5/1 44/5/1 55/5/1
f 57/5/1 46/5/1 45/5/1
f 57/6/1 45/6/1 56/6/1
f 58/6/1 47/6/1 46/6/1
f 58/5/1 46/5/1 57/5/1
f 59/5/1 48/5/1 47/5/1
f 59/6/1 47/6/1 58/6/1
f 60/5/1 48/5/1 59/5/1
f 73/5/1 62/5/1 61/5/1
f 74/6/1 63/6/1 62/6/1
f 74/5/1 62/5/1 73/5/1
f 75/5/1 64/5/1 63/5/1
f 75/6/1 63/6/1 74/6/1
f 76/6/1 65/6/1 64/6/1
f 76/5/1 64/5/1 75/5/1
f 77/5/1 66/5/1 65/5/1
f 77/6/1 65/6/1 76/6/1
f 78/5/1 66/5/1 77/5/1
f 79/5/1 68/5/1 67/5/1
f 80/6/1 69/6/1 68/6/1
f 80/5/1 68/5/1 79/5/1
f 81/5/1 70/5/1 69/5/1
f 81/6/1 69/6/1 80/6/1
f 82/6/1 71/6/1 70/6/1
f 82/5/1 70/5/1 81/5/1
f 83/5/1 72/5/1 71/5/1
f 83/6/1 71/6/1 82/6/1
f 84/5/1 72/5/1 83/5/1
f 97/5/1 86/5/1 85/5/1
f 98/6/1 87/6/1 86/6/1
f 98/5/1 86/5/1 97/5/1
f 99/5/1 88/5/1 87/5/1
f 99/6/1 87/6/1 98/6/1
f 100/6/1 89/6/1 88/6/1
f 100/5/1 88/5/1 99/5/1
f 101/5/1 90/5/1 89/5/1
f 101/6/1 89/6/1 100/6/1
f 102/5/1 90/5/1 101/5/1
f 103/5/1 92/5/1 91/5/1
f 104/6/1 93/6/1 92/6/1
f 104/5/1 92/5/1 103/5/1
f 105/5/1 94/5/1 93/5/1
f 105/6/1 93/6/1 104/6/1
f 106/6/1 95/6/1 94/6/1
f 106/5/1 94/5/1 105/5/1
f 107/5/1 96/5/1 95/5/1
f 107/6/1 95/6/1 106/6/1
f 108/5/1 96/5/1 107/5/1
f 113/5/1 110/5/1 109/5/1
f 114/5/1 110/5/1 113/5/1
f 115/5/1 112/5/1 111/5/1
f 116/5/1 112/5/1 115/5/1
f 121/5/1 118/5/1 117/5/1
f 122/5/1 118/5/1 121/5/1
f 123/5/1 120/5/1 119/5/1
f 124/5/1 120/5/1 123/5/1
f 129/5/1 126/5/1 125/5/1
f 130/5/1 126/5/1 129/5/1
f 131/5/1 128/5/1 127/5/1
f 132/5/1 128/5/1 131/5/1
f 137/5/1 134/5/1 133/5/1
f 138/5/1 134/5/1 137/5/1
f 139/5/1 136/5/1 135/5/1
f 140/5/1 136/5/1 139/5/1
f 141/1/2 142/1/2 143/1/2
f 143/1/2 142/1/2 144/1/2
f 145/1/2 146/1/2 151/1/2
f 151/1/2 146/1/2 152/1/2
f 147/1/2 148/1/2 153/1/2
f 153/1/2 148/1/2 154/1/2
f 149/1/2 150/1/2 155/1/2
f 155/1/2 150/1/2 156/1/2
f 157/4/2 158/4/2 162/4/2
f 162/4/2 158/4/2 163/4/2
f 159/4/2 160/4/2 166/4/2
f 166/4/2 160/4/2 167/4/2
f 163/4/2 164/4/2 170/4/2
f 161/4/2 162/4/2 170/4/2
f 162/4/2 163/4/2 170/4/2
f 170/4/2 164/4/2 171/4/2
f 171/4/2 164/4/2 172/4/2
f 167/4/2 168/4/2 173/4/2
f 166/4/2 167/4/2 173/4/2
f 165/4/2 166/4/2 173/4/2
f 173/4/2 168/4/2 174/4/2
f 174/4/2 168/4/2 175/4/2
f 170/4/2 171/4/2 177/4/2
f 169/4/2 170/4/2 177/4/2
f 177/4/2 171/4/2 178/4/2
f 172/4/2 164/4/2 179/4/2
f 179/4/2 164/4/2 180/4/2
f 165/4/2 173/4/2 181/4/2
f 181/4/2 173/4/2 182/4/2
f 175/4/2 176/4/2 183/4/2
f 174/4/2 175/4/2 183/4/2
f 183/4/2 176/4/2 184/4/2
f 180/4/2 164/4/2 185/4/2
f 165/4/2 181/4/2 186/4/2
f 180/4/2 185/4/2 187/4/2
f 185/4/2 186/4/2 187/4/2
f 186/4/2 181/4/2 188/4/2
f 187/4/2 186/4/2 188/4/2
f 169/4/2 177/4/2 189/4/2
f 180/4/2 187/4/2 192/4/2
f 188/4/2 181/4/2 193/4/2
f 184/4/2 176/4/2 196/4/2
f 189/4/2 190/4/2 197/4/2
f 169/4/2 189/4/2 197/4/2
f 197/4/2 190/4/2 198/4/2
f 198/4/2 190/4/2 199/4/2
f 191/4/2 192/4/2 200/4/2
f 192/4/2 187/4/2 201/4/2
f 200/4/2 192/4/2 201/4/2
f 201/4/2 187/4/2 202/4/2
f 193/4/2 194/4/2 203/4/2
f 188/4/2 193/4/2 203/4/2
f 203/4/2 194/4/2 204/4/2
f 204/4/2 194/4/2 205/4/2
f 195/4/2 196/4/2 206/4/2
f 196/4/2 176/4/2 207/4/2
f 206/4/2 196/4/2 207/4/2
f 207/4/2 176/4/2 208/4/2
f 198/4/2 199/4/2 209/4/2
f 199/4/2 200/4/2 209/4/2
f 200/4/2 201/4/2 209/4/2
f 209/4/2 201/4/2 210/4/2
f 204/4/2 205/4/2 211/4/2
f 206/4/2 207/4/2 211/4/2
f 205/4/2 206/4/2 211/4/2
f 211/4/2 207/4/2 212/4/2
f 213/5/2 214/5/2 217/5/2
f 217/5/2 214/5/2 218/5/2
f 215/5/2 216/5/2 219/5/2
f 219/5/2 216/5/2 220/5/2
f 221/2/2 222/2/2 229/2/2
f 222/3/2 223/3/2 230/3/2
f 229/2/2 222/2/2 230/2/2
f 225/2/2 226/2/2 231/2/2
f 226/3/2 227/3/2 232/3/2
f 231/2/2 226/2/2 232/2/2
f 221/2/2 229/2/2 233/2/2
f 229/3/2 230/3/2 234/3/2
f 233/2/2 229/2/2 234/2/2
f 223/2/2 224/2/2 235/2/2
f 234/3/2 230/3/2 235/3/2
f 230/3/2 223/3/2 235/3/2
f 235/2/2 224/2/2 236/2/2
f 225/2/2 231/2/2 237/2/2
f 231/3/2 232/3/2 238/3/2
f 237/2/2 231/2/2 238/2/2
f 227/2/2 228/2/2 239/2/2
f 238/3/2 232/3/2 239/3/2
f 232/3/2 227/3/2 239/3/2
f 239/2/2 228/2/2 240/2/2
f 241/5/2 242/5/2 246/5/2
f 246/5/2 242/5/2 247/5/2
f 243/5/2 244/5/2 250/5/2
f 250/5/2 244/5/2 251/5/2
f 245/5/2 246/5/2 253/5/2
f 253/5/2 246/5/2 254/5/2
f 247/5/2 248/5/2 255/5/2
f 255/5/2 248/5/2 256/5/2
f 249/5/2 250/5/2 257/5/2
f 257/5/2 250/5/2 258/5/2
f 251/5/2 252/5/2 259/5/2
f 259/5/2 252/5/2 260/5/2
f 254/5/2 255/5/2 261/5/2
f 261/5/2 255/5/2 262/5/2
f 258/5/2 259/5/2 263/5/2
f 263/5/2 259/5/2 264/5/2
f 269/5/2 270/5/2 273/5/2
f 273/5/2 270/5/2 274/5/2
f 271/5/2 272/5/2 275/5/2
f 275/5/2 272/5/2 276/5/2
f 277/5/2 278/5/2 281/5/2
f 281/5/2 278/5/2 282/5/2
f 279/5/2 280/5/2 283/5/2
f 283/5/2 280/5/2 284/5/2
f 265/4/2 266/4/2 285/4/2
f 267/4/2 268/4/2 288/4/2
f 285/4/2 286/4/2 290/4/2
f 265/4/2 285/4/2 290/4/2
f 287/4/2 288/4/2 291/4/2
f 288/4/2 268/4/2 291/4/2
f 289/4/2 290/4/2 293/4/2
f 290/4/2 286/4/2 294/4/2
f 293/4/2 290/4/2 294/4/2
f 291/4/2 292/4/2 297/4/2
f 287/4/2 291/4/2 297/4/2
f 297/4/2 292/4/2 298/4/2
f 295/4/2 296/4/2 299/4/2
f 299/4/2 296/4/2 300/4/2
f 301/5/2 302/5/2 305/5/2
f 305/5/2 302/5/2 306/5/2
f 303/5/2 304/5/2 307/5/2
f 307/5/2 304/5/2 308/5/2
f 309/5/2 310/5/2 323/5/2
f 310/6/2 311/6/2 324/6/2
f 323/5/2 310/5/2 324/5/2
f 311/5/2 312/5/2 325/5/2
f 324/6/2 311/6/2 325/6/2
f 312/6/2 313/6/2 326/6/2
f 325/5/2 312/5/2 326/5/2
f 313/5/2 314/5/2 327/5/2
f 326/6/2 313/6/2 327/6/2
f 327/5/2 314/5/2 328/5/2
f 315/7/2 316/7/2 329/7/2
f 329/7/2 316/7/2 330/7/2
f 317/5/2 318/5/2 331/5/2
f 318/6/2 319/6/2 332/6/2
f 331/5/2 318/5/2 332/5/2
f 319/5/2 320/5/2 333/5/2
f 332/6/2 319/6/2 333/6/2
f 320/6/2 321/6/2 334/6/2
f 333/5/2 320/5/2 334/5/2
f 321/5/2 322/5/2 335/5/2
f 334/6/2 321/6/2 335/6/2
f 335/5/2 322/5/2 336/5/2
f 337/7/2 338/7/2 339/7/2
f 339/7/2 338/7/2 340/7/2
f 341/7/2 342/7/2 343/7/2
f 343/7/2 342/7/2 344/7/2
f 345/5/2 346/5/2 357/5/2
f 346/6/2 347/6/2 358/6/2
f 357/5/2 346/5/2 358/5/2
f 347/5/2 348/5/2 359/5/2
f 358/6/2 347/6/2 359/6/2
f 348/6/2 349/6/2 360/6/2
f 359/5/2 348/5/2 360/5/2
f 349/5/2 350/5/2 361/5/2
f 360/6/2 349/6/2 361/6/2
f 361/5/2 350/5/2 362/5/2
f 351/5/2 352/5/2 363/5/2
f 352/6/2 353/6/2 364/6/2
f 363/5/2 352/5/2 364/5/2
f 353/5/2 354/5/2 365/5/2
f 364/6/2 353/6/2 365/6/2
f 354/6/2 355/6/2 366/6/2
f 365/5/2 354/5/2 366/5/2
f 355/5/2 356/5/2 367/5/2
f 366/6/2 355/6/2 367/6/2
f 367/5/2 356/5/2 368/5/2
f 369/4/2 370/4/2 371/4/2
f 371/4/2 370/4/2 372/4/2
f 369/4/2 371/4/2 379/4/2
f 372/4/2 370/4/2 380/4/2
f 369/4/2 379/4/2 387/4/2
f 379/4/2 380/4/2 387/4/2
f 380/4/2 370/4/2 388/4/2
f 387/4/2 380/4/2 388/4/2
f 369/4/2 387/4/2 389/4/2
f 388/4/2 370/4/2 390/4/2
f 369/4/2 389/4/2 391/4/2
f 389/4/2 390/4/2 391/4/2
f 390/4/2 370/4/2 392/4/2
f 391/4/2 390/4/2 392/4/2
f 369/4/2 391/4/2 393/4/2
f 392/4/2 370/4/2 394/4/2
f 373/5/2 374/5/2 395/5/2
f 374/6/2 375/6/2 396/6/2
f 395/5/2 374/5/2 396/5/2
f 375/5/2 376/5/2 397/5/2
f 396/6/2 375/6/2 397/6/2
f 376/6/2 377/6/2 398/6/2
f 397/5/2 376/5/2 398/5/2
f 377/5/2 378/5/2 399/5/2
f 398/6/2 377/6/2 399/6/2
f 399/5/2 378/5/2 400/5/2
f 393/4/2 394/4/2 401/4/2
f 369/4/2 393/4/2 401/4/2
f 401/4/2 394/4/2 402/4/2
f 394/4/2 370/4/2 403/4/2
f 402/4/2 394/4/2 403/4/2
f 403/4/2 370/4/2 404/4/2
f 381/5/2 382/5/2 405/5/2
f 382/6/2 383/6/2 406/6/2
f 405/5/2 382/5/2 406/5/2
f 383/5/2 384/5/2 407/5/2
f 406/6/2 383/6/2 407/6/2
f 384/6/2 385/6/2 408/6/2
f 407/5/2 384/5/2 408/5/2
f 385/5/2 386/5/2 409/5/2
f 408/6/2 385/6/2 409/6/2
f 409/5/2 386/5/2 410/5/2
f 402/4/2 403/4/2 411/4/2
f 411/4/2 403/4/2 412/4/2
f 416/5/3 414/5/3 413/5/3
f 417/5/3 414/5/3 416/5/3
f 422/5/3 420/5/3 419/5/3
f 423/5/3 420/5/3 422/5/3
f 425/5/3 422/5/3 421/5/3
f 425/5/3 424/5/3 423/5/3
f 425/5/3 423/5/3 422/5/3
f 426/5/3 424/5/3 425/5/3
f 427/5/3 424/5/3 426/5/3
f 428/5/3 424/5/3 427/5/3
f 429/5/3 427/5/3 426/5/3
f 430/5/3 427/5/3 429/5/3
f 431/5/3 416/5/3 415/5/3
f 432/5/3 416/5/3 431/5/3
f 433/5/3 418/5/3 417/5/3
f 434/5/3 418/5/3 433/5/3
f 435/5/3 433/5/3 432/5/3
f 436/5/3 433/5/3 435/5/3
f 439/1/3 438/1/3 437/1/3
f 440/1/3 438/1/3 439/1/3
f 443/7/3 442/7/3 441/7/3
f 444/7/3 442/7/3 443/7/3
f 445/7/3 443/7/3 441/7/3
f 446/7/3 443/7/3 445/7/3
f 447/7/3 442/7/3 444/7/3
f 448/7/3 442/7/3 447/7/3
f 449/7/3 445/7/3 441/7/3
f 452/7/3 442/7/3 448/7/3
f 453/7/3 450/7/3 449/7/3
f 454/7/3 452/7/3 451/7/3
f 455/7/3 453/7/3 449/7/3
f 455/7/3 454/7/3 453/7/3
f 455/7/3 449/7/3 441/7/3
f 456/7/3 452/7/3 454/7/3
f 456/7/3 454/7/3 455/7/3
f 456/7/3 442/7/3 452/7/3
f 459/4/3 458/4/3 457/4/3
f 461/4/3 459/4/3 457/4/3
f 461/4/3 460/4/3 459/4/3
f 462/4/3 460/4/3 461/4/3
f 467/4/3 464/4/3 463/4/3
f 468/4/3 464/4/3 467/4/3
f 471/4/3 466/4/3 465/4/3
f 472/4/3 466/4/3 471/4/3
f 473/5/3 470/5/3 469/5/3
f 474/5/3 470/5/3 473/5/3
f 475/6/3 474/6/3 473/6/3
f 476/6/3 474/6/3 475/6/3
f 477/5/3 476/5/3 475/5/3
f 478/5/3 476/5/3 477/5/3
f 481/4/3 480/4/3 479/4/3
f 482/4/3 480/4/3 481/4/3
f 487/5/3 484/5/3 483/5/3
f 488/5/3 484/5/3 487/5/3
f 489/5/3 486/5/3 485/5/3
f 490/5/3 486/5/3 489/5/3
f 491/6/3 488/6/3 487/6/3
f 492/6/3 488/6/3 491/6/3
f 493/6/3 490/6/3 489/6/3
f 494/6/3 490/6/3 493/6/3
f 495/5/3 492/5/3 491/5/3
f 496/5/3 492/5/3 495/5/3
f 497/5/3 494/5/3 493/5/3
f 498/5/3 494/5/3 497/5/3
f 501/4/3 500/4/3 499/4/3
f 502/4/3 500/4/3 501/4/3
f 503/4/3 501/4/3 499/4/3
f 504/4/3 501/4/3 503/4/3
f 505/4/3 500/4/3 502/4/3
f 506/4/3 500/4/3 505/4/3
f 507/4/3 500/4/3 506/4/3
f 508/4/3 500/4/3 507/4/3
f 513/5/3 512/5/3 511/5/3
f 514/5/3 512/5/3 513/5/3
f 515/4/3 510/4/3 509/4/3
f 517/4/3 515/4/3 509/4/3
f 517/4/3 516/4/3 515/4/3
f 518/4/3 516/4/3 517/4/3
f 521/4/3 520/4/3 519/4/3
f 522/4/3 520/4/3 521/4/3
f 525/4/3 524/4/3 523/4/3
f 526/4/3 524/4/3 525/4/3
f 529/4/3 528/4/3 527/4/3
f 531/4/3 529/4/3 527/4/3
f 531/4/3 530/4/3 529/4/3
f 532/4/3 530/4/3 531/4/3
f 537/4/3 534/4/3 533/4/3
f 538/4/3 534/4/3 537/4/3
f 539/5/3 536/5/3 535/5/3
f 540/5/3 536/5/3 539/5/3
f 541/6/3 540/6/3 539/6/3
f 542/6/3 540/6/3 541/6/3
f 543/5/3 542/5/3 541/5/3
f 544/5/3 542/5/3 543/5/3
f 551/4/3 546/4/3 545/4/3
f 552/4/3 546/4/3 551/4/3
f 553/4/3 548/4/3 547/4/3
f 554/4/3 548/4/3 553/4/3
f 555/4/3 550/4/3 549/4/3
f 556/4/3 550/4/3 555/4/3
f 561/5/3 558/5/3 557/5/3
f 562/5/3 558/5/3 561/5/3
f 563/5/3 560/5/3 559/5/3
f 564/5/3 560/5/3 563/5/3
f 565/6/3 562/6/3 561/6/3
f 566/6/3 562/6/3 565/6/3
f 567/6/3 564/6/3 563/6/3
f 568/6/3 564/6/3 567/6/3
f 569/5/3 566/5/3 565/5/3
f 570/5/3 566/5/3 569/5/3
f 571/5/3 568/5/3 567/5/3
f 572/5/3 568/5/3 571/5/3
f 575/5/3 574/5/3 573/5/3
f 576/5/3 574/5/3 575/5/3
f 577/5/3 574/5/3 576/5/3
f 578/5/3 574/5/3 577/5/3
f 579/5/3 577/5/3 576/5/3
f 580/5/3 577/5/3 579/5/3
f 583/5/3 582/5/3 581/5/3
f 584/5/3 582/5/3 583/5/3
f 587/1/3 586/1/3 585/1/3
f 588/1/3 586/1/3 587/1/3
f 589/1/4 590/1/4 591/1/4
f 591/1/4 590/1/4 592/1/4
f 593/5/4 594/5/4 595/5/4
f 595/5/4 594/5/4 596/5/4
f 597/5/4 598/5/4 599/5/4
f 599/5/4 598/5/4 600/5/4
f 600/5/4 598/5/4 601/5/4
f 601/5/4 598/5/4 602/5/4
f 600/5/4 601/5/4 603/5/4
f 603/5/4 601/5/4 604/5/4
f 605/5/4 606/5/4 609/5/4
f 609/5/4 606/5/4 610/5/4
f 607/5/4 608/5/4 611/5/4
f 611/5/4 608/5/4 612/5/4
f 609/6/4 610/6/4 613/6/4
f 613/6/4 610/6/4 614/6/4
f 611/6/4 612/6/4 615/6/4
f 615/6/4 612/6/4 616/6/4
f 613/5/4 614/5/4 617/5/4
f 617/5/4 614/5/4 618/5/4
f 615/5/4 616/5/4 619/5/4
f 619/5/4 616/5/4 620/5/4
f 621/4/4 622/4/4 625/4/4
f 625/4/4 622/4/4 626/4/4
f 623/5/4 624/5/4 627/5/4
f 627/5/4 624/5/4 628/5/4
f 627/6/4 628/6/4 629/6/4
f 629/6/4 628/6/4 630/6/4
f 629/5/4 630/5/4 631/5/4
f 631/5/4 630/5/4 632/5/4
f 633/4/4 634/4/4 639/4/4
f 639/4/4 634/4/4 640/4/4
f 635/4/4 636/4/4 641/4/4
f 641/4/4 636/4/4 642/4/4
f 637/4/4 638/4/4 643/4/4
f 643/4/4 638/4/4 644/4/4
f 645/4/4 646/4/4 647/4/4
f 645/4/4 647/4/4 649/4/4
f 647/4/4 648/4/4 649/4/4
f 649/4/4 648/4/4 650/4/4
f 651/4/4 652/4/4 653/4/4
f 653/4/4 652/4/4 654/4/4
f 655/4/4 656/4/4 657/4/4
f 657/4/4 656/4/4 658/4/4
f 661/5/4 662/5/4 663/5/4
f 663/5/4 662/5/4 664/5/4
f 659/4/4 660/4/4 665/4/4
f 659/4/4 665/4/4 667/4/4
f 665/4/4 666/4/4 667/4/4
f 667/4/4 666/4/4 668/4/4
f 669/4/4 670/4/4 671/4/4
f 671/4/4 670/4/4 672/4/4
f 669/4/4 671/4/4 673/4/4
f 673/4/4 671/4/4 674/4/4
f 672/4/4 670/4/4 675/4/4
f 675/4/4 670/4/4 676/4/4
f 676/4/4 670/4/4 677/4/4
f 677/4/4 670/4/4 678/4/4
f 679/4/4 680/4/4 681/4/4
f 681/4/4 680/4/4 682/4/4
f 683/5/4 684/5/4 687/5/4
f 687/5/4 684/5/4 688/5/4
f 685/5/4 686/5/4 689/5/4
f 689/5/4 686/5/4 690/5/4
f 687/6/4 688/6/4 691/6/4
f 691/6/4 688/6/4 692/6/4
f 689/6/4 690/6/4 693/6/4
f 693/6/4 690/6/4 694/6/4
f 691/5/4 692/5/4 695/5/4
f 695/5/4 692/5/4 696/5/4
f 693/5/4 694/5/4 697/5/4
f 697/5/4 694/5/4 698/5/4
f 699/4/4 700/4/4 703/4/4
f 703/4/4 700/4/4 704/4/4
f 701/4/4 702/4/4 707/4/4
f 707/4/4 702/4/4 708/4/4
f 705/5/4 706/5/4 709/5/4
f 709/5/4 706/5/4 710/5/4
f 709/6/4 710/6/4 711/6/4
f 711/6/4 710/6/4 712/6/4
f 711/5/4 712/5/4 713/5/4
f 713/5/4 712/5/4 714/5/4
f 715/4/4 716/4/4 717/4/4
f 715/4/4 717/4/4 719/4/4
f 717/4/4 718/4/4 719/4/4
f 719/4/4 718/4/4 720/4/4
f 721/1/4 722/1/4 723/1/4
f 723/1/4 722/1/4 724/1/4
f 725/7/4 726/7/4 727/7/4
f 727/7/4 726/7/4 728/7/4
f 725/7/4 727/7/4 729/7/4
f 729/7/4 727/7/4 730/7/4
f 728/7/4 726/7/4 731/7/4
f 731/7/4 726/7/4 732/7/4
f 725/7/4 729/7/4 733/7/4
f 732/7/4 726/7/4 736/7/4
f 733/7/4 734/7/4 737/7/4
f 735/7/4 736/7/4 738/7/4
f 733/7/4 737/7/4 739/7/4
f 737/7/4 738/7/4 739/7/4
f 725/7/4 733/7/4 739/7/4
f 738/7/4 736/7/4 740/7/4
f 739/7/4 738/7/4 740/7/4
f 736/7/4 726/7/4 740/7/4
f 741/5/4 742/5/4 744/5/4
f 744/5/4 742/5/4 745/5/4
f 747/5/4 748/5/4 750/5/4
f 750/5/4 748/5/4 751/5/4
f 749/5/4 750/5/4 753/5/4
f 751/5/4 752/5/4 753/5/4
f 750/5/4 751/5/4 753/5/4
f 753/5/4 752/5/4 754/5/4
f 754/5/4 752/5/4 755/5/4
f 755/5/4 752/5/4 756/5/4
f 754/5/4 755/5/4 757/5/4
f 757/5/4 755/5/4 758/5/4
f 743/5/4 744/5/4 759/5/4
f 759/5/4 744/5/4 760/5/4
f 745/5/4 746/5/4 761/5/4
f 761/5/4 746/5/4 762/5/4
f 760/5/4 761/5/4 763/5/4
f 763/5/4 761/5/4 764/5/4
f 767/4/5 766/4/5 765/4/5
f 768/4/5 766/4/5 767/4/5
f 771/5/5 770/5/5 769/5/5
f 772/5/5 770/5/5 771/5/5
f 773/6/5 772/6/5 771/6/5
f 774/6/5 772/6/5 773/6/5
f 775/5/5 774/5/5 773/5/5
f 776/5/5 774/5/5 775/5/5
f 779/6/5 776/6/5 775/6/5
f 780/6/5 776/6/5 779/6/5
f 781/4/5 778/4/5 777/4/5
f 782/5/5 780/5/5 779/5/5
f 783/5/5 780/5/5 782/5/5
f 783/4/5 782/4/5 781/4/5
f 784/5/5 780/5/5 783/5/5
f 785/5/5 780/5/5 784/5/5
f 786/4/5 781/4/5 777/4/5
f 786/4/5 783/4/5 781/4/5
f 786/4/5 784/4/5 783/4/5
f 787/4/5 784/4/5 786/4/5
f 790/4/5 789/4/5 788/4/5
f 791/4/5 789/4/5 790/4/5
f 793/4/5 790/4/5 788/4/5
f 794/5/5 791/5/5 790/5/5
f 794/4/5 790/4/5 793/4/5
f 794/5/5 792/5/5 791/5/5
f 795/4/5 793/4/5 788/4/5
f 796/4/5 793/4/5 795/4/5
f 797/5/5 792/5/5 794/5/5
f 798/5/5 792/5/5 797/5/5
f 799/6/5 798/6/5 797/6/5
f 800/6/5 798/6/5 799/6/5
f 801/5/5 800/5/5 799/5/5
f 802/5/5 800/5/5 801/5/5
f 803/6/5 802/6/5 801/6/5
f 804/6/5 802/6/5 803/6/5
f 805/5/5 804/5/5 803/5/5
f 806/5/5 804/5/5 805/5/5
f 811/5/5 808/5/5 807/5/5
f 812/5/5 808/5/5 811/5/5
f 813/5/5 810/5/5 809/5/5
f 814/5/5 810/5/5 813/5/5
f 815/6/5 812/6/5 811/6/5
f 816/6/5 812/6/5 815/6/5
f 817/6/5 814/6/5 813/6/5
f 818/6/5 814/6/5 817/6/5
f 819/5/5 816/5/5 815/5/5
f 820/5/5 816/5/5 819/5/5
f 821/5/5 818/5/5 817/5/5
f 822/5/5 818/5/5 821/5/5
f 823/6/5 820/6/5 819/6/5
f 824/6/5 820/6/5 823/6/5
f 825/6/5 822/6/5 821/6/5
f 826/6/5 822/6/5 825/6/5
f 827/5/5 824/5/5 823/5/5
f 828/5/5 824/5/5 827/5/5
f 829/5/5 826/5/5 825/5/5
f 830/5/5 826/5/5 829/5/5
f 833/4/5 832/4/5 831/4/5
f 834/4/5 832/4/5 833/4/5
f 839/5/5 838/5/5 837/5/5
f 840/5/5 838/5/5 839/5/5
f 841/5/5 836/5/5 835/5/5
f 842/5/5 836/5/5 841/5/5
f 843/6/5 840/6/5 839/6/5
f 844/6/5 840/6/5 843/6/5
f 845/6/5 842/6/5 841/6/5
f 846/6/5 842/6/5 845/6/5
f 847/5/5 844/5/5 843/5/5
f 848/5/5 844/5/5 847/5/5
f 849/5/5 846/5/5 845/5/5
f 850/5/5 846/5/5 849/5/5
f 851/6/5 848/6/5 847/6/5
f 852/6/5 848/6/5 851/6/5
f 853/6/5 850/6/5 849/6/5
f 854/6/5 850/6/5 853/6/5
f 855/5/5 852/5/5 851/5/5
f 856/5/5 852/5/5 855/5/5
f 857/5/5 854/5/5 853/5/5
f 858/5/5 854/5/5 857/5/5
f 861/5/5 860/5/5 859/5/5
f 862/5/5 860/5/5 861/5/5
f 865/5/5 864/5/5 863/5/5
f 866/5/5 864/5/5 865/5/5
f 871/5/5 868/5/5 867/5/5
f 872/5/5 868/5/5 871/5/5
f 873/5/5 870/5/5 869/5/5
f 874/5/5 870/5/5 873/5/5
f 877/4/5 876/4/5 875/4/5
f 878/4/5 876/4/5 877/4/5
f 883/5/5 880/5/5 879/5/5
f 884/5/5 880/5/5 883/5/5
f 885/5/5 882/5/5 881/5/5
f 886/5/5 882/5/5 885/5/5
f 889/4/5 888/4/5 887/4/5
f 890/4/5 888/4/5 889/4/5
f 893/5/5 892/5/5 891/5/5
f 894/5/5 892/5/5 893/5/5
f 897/5/5 896/5/5 895/5/5
f 898/5/5 896/5/5 897/5/5
f 901/4/5 900/4/5 899/4/5
f 902/4/5 900/4/5 901/4/5
f 905/4/5 904/4/5 903/4/5
f 906/4/5 904/4/5 905/4/5
f 909/4/5 908/4/5 907/4/5
f 910/4/5 908/4/5 909/4/5
f 915/5/5 912/5/5 911/5/5
f 916/6/5 913/6/5 912/6/5
f 916/5/5 912/5/5 915/5/5
f 917/5/5 914/5/5 913/5/5
f 917/6/5 913/6/5 916/6/5
f 918/5/5 914/5/5 917/5/5
f 923/5/5 920/5/5 919/5/5
f 924/6/5 921/6/5 920/6/5
f 924/5/5 920/5/5 923/5/5
f 925/5/5 922/5/5 921/5/5
f 925/6/5 921/6/5 924/6/5
f 926/5/5 922/5/5 925/5/5
f 929/4/5 928/4/5 927/4/5
f 930/4/5 928/4/5 929/4/5
f 935/5/5 932/5/5 931/5/5
f 936/6/5 933/6/5 932/6/5
f 936/5/5 932/5/5 935/5/5
f 937/5/5 934/5/5 933/5/5
f 937/6/5 933/6/5 936/6/5
f 938/5/5 934/5/5 937/5/5
f 943/5/5 940/5/5 939/5/5
f 944/6/5 941/6/5 940/6/5
f 944/5/5 940/5/5 943/5/5
f 945/5/5 942/5/5 941/5/5
f 945/6/5 941/6/5 944/6/5
f 946/5/5 942/5/5 945/5/5
f 951/5/5 948/5/5 947/5/5
f 952/6/5 949/6/5 948/6/5
f 952/5/5 948/5/5 951/5/5
f 953/5/5 950/5/5 949/5/5
f 953/6/5 949/6/5 952/6/5
f 954/5/5 950/5/5 953/5/5
f 959/5/5 956/5/5 955/5/5
f 960/6/5 957/6/5 956/6/5
f 960/5/5 956/5/5 959/5/5
f 961/5/5 958/5/5 957/5/5
f 961/6/5 957/6/5 960/6/5
f 962/5/5 958/5/5 961/5/5
f 965/1/5 964/1/5 963/1/5
f 966/1/5 964/1/5 965/1/5
f 967/1/5 964/1/5 966/1/5
f 970/1/5 969/1/5 968/1/5
f 971/1/5 969/1/5 970/1/5
f 972/1/5 965/1/5 963/1/5
f 975/1/5 972/1/5 963/1/5
f 975/1/5 974/1/5 973/1/5
f 975/1/5 973/1/5 972/1/5
f 976/1/5 974/1/5 975/1/5
f 979/5/5 978/5/5 977/5/5
f 980/5/5 978/5/5 979/5/5
f 981/5/5 978/5/5 980/5/5
f 982/5/5 978/5/5 981/5/5
f 985/5/5 984/5/5 983/5/5
f 986/5/5 984/5/5 985/5/5
f 987/5/5 984/5/5 986/5/5
f 988/5/5 984/5/5 987/5/5
f 989/4/6 990/4/6 991/4/6
f 991/4/6 990/4/6 992/4/6
f 993/5/6 994/5/6 995/5/6
f 995/5/6 994/5/6 996/5/6
f 997/5/6 998/5/6 999/5/6
f 999/5/6 998/5/6 1000/5/6
f 1001/4/6 1002/4/6 1003/4/6
f 1003/4/6 1002/4/6 1004/4/6
f 1005/5/6 1006/5/6 1009/5/6
f 1009/5/6 1006/5/6 1010/5/6
f 1007/5/6 1008/5/6 1011/5/6
f 1011/5/6 1008/5/6 1012/5/6
f 1013/4/6 1014/4/6 1015/4/6
f 1015/4/6 1014/4/6 1016/4/6
f 1017/5/6 1018/5/6 1021/5/6
f 1021/5/6 1018/5/6 1022/5/6
f 1019/5/6 1020/5/6 1023/5/6
f 1023/5/6 1020/5/6 1024/5/6
f 1025/5/6 1026/5/6 1027/5/6
f 1027/5/6 1026/5/6 1028/5/6
f 1029/5/6 1030/5/6 1031/5/6
f 1031/5/6 1030/5/6 1032/5/6
f 1033/5/6 1034/5/6 1037/5/6
f 1037/5/6 1034/5/6 1038/5/6
f 1035/5/6 1036/5/6 1039/5/6
f 1039/5/6 1036/5/6 1040/5/6
f 1037/6/6 1038/6/6 1041/6/6
f 1041/6/6 1038/6/6 1042/6/6
f 1039/6/6 1040/6/6 1043/6/6
f 1043/6/6 1040/6/6 1044/6/6
f 1041/5/6 1042/5/6 1045/5/6
f 1045/5/6 1042/5/6 1046/5/6
f 1043/5/6 1044/5/6 1047/5/6
f 1047/5/6 1044/5/6 1048/5/6
f 1045/6/6 1046/6/6 1049/6/6
f 1049/6/6 1046/6/6 1050/6/6
f 1047/6/6 1048/6/6 1051/6/6
f 1051/6/6 1048/6/6 1052/6/6
f 1049/5/6 1050/5/6 1053/5/6
f 1053/5/6 1050/5/6 1054/5/6
f 1051/5/6 1052/5/6 1055/5/6
f 1055/5/6 1052/5/6 1056/5/6
f 1057/4/6 1058/4/6 1059/4/6
f 1059/4/6 1058/4/6 1060/4/6
f 1061/4/6 1062/4/6 1063/4/6
f 1063/4/6 1062/4/6 1064/4/6
f 1067/5/6 1068/5/6 1069/5/6
f 1069/5/6 1068/5/6 1070/5/6
f 1065/5/6 1066/5/6 1071/5/6
f 1071/5/6 1066/5/6 1072/5/6
f 1069/6/6 1070/6/6 1073/6/6
f 1073/6/6 1070/6/6 1074/6/6
f 1071/6/6 1072/6/6 1075/6/6
f 1075/6/6 1072/6/6 1076/6/6
f 1073/5/6 1074/5/6 1077/5/6
f 1077/5/6 1074/5/6 1078/5/6
f 1075/5/6 1076/5/6 1079/5/6
f 1079/5/6 1076/5/6 1080/5/6
f 1077/6/6 1078/6/6 1081/6/6
f 1081/6/6 1078/6/6 1082/6/6
f 1079/6/6 1080/6/6 1083/6/6
f 1083/6/6 1080/6/6 1084/6/6
f 1081/5/6 1082/5/6 1085/5/6
f 1085/5/6 1082/5/6 1086/5/6
f 1083/5/6 1084/5/6 1087/5/6
f 1087/5/6 1084/5/6 1088/5/6
f 1089/5/6 1090/5/6 1091/5/6
f 1091/5/6 1090/5/6 1092/5/6
f 1091/6/6 1092/6/6 1093/6/6
f 1093/6/6 1092/6/6 1094/6/6
f 1093/5/6 1094/5/6 1095/5/6
f 1095/5/6 1094/5/6 1096/5/6
f 1095/6/6 1096/6/6 1097/6/6
f 1097/6/6 1096/6/6 1098/6/6
f 1097/5/6 1098/5/6 1099/5/6
f 1099/5/6 1098/5/6 1100/5/6
f 1100/5/6 1098/5/6 1101/5/6
f 1101/5/6 1098/5/6 1102/5/6
f 1103/5/6 1104/5/6 1106/5/6
f 1105/5/6 1106/5/6 1107/5/6
f 1106/5/6 1104/5/6 1108/5/6
f 1107/5/6 1106/5/6 1108/5/6
f 1107/6/6 1108/6/6 1109/6/6
f 1109/6/6 1108/6/6 1110/6/6
f 1109/5/6 1110/5/6 1111/5/6
f 1111/5/6 1110/5/6 1112/5/6
f 1111/6/6 1112/6/6 1113/6/6
f 1113/6/6 1112/6/6 1114/6/6
f 1113/5/6 1114/5/6 1115/5/6
f 1115/5/6 1114/5/6 1116/5/6
f 1117/4/6 1118/4/6 1119/4/6
f 1117/4/6 1119/4/6 1121/4/6
f 1119/4/6 1120/4/6 1121/4/6
f 1121/4/6 1120/4/6 1122/4/6
f 1122/4/6 1120/4/6 1124/4/6
f 1124/4/6 1120/4/6 1125/4/6
f 1123/4/6 1124/4/6 1125/4/6
f 1125/4/6 1120/4/6 1126/4/6
f 1123/4/6 1125/4/6 1127/4/6
f 1127/4/6 1125/4/6 1128/4/6
f 1129/5/6 1130/5/6 1131/5/6
f 1131/5/6 1130/5/6 1132/5/6
f 1132/5/6 1130/5/6 1133/5/6
f 1133/5/6 1130/5/6 1134/5/6
f 1135/5/6 1136/5/6 1137/5/6
f 1137/5/6 1136/5/6 1138/5/6
f 1138/5/6 1136/5/6 1139/5/6
f 1139/5/6 1136/5/6 1140/5/6
f 1141/4/6 1142/4/6 1143/4/6
f 1143/4/6 1142/4/6 1144/4/6
f 1145/4/6 1146/4/6 1147/4/6
f 1147/4/6 1146/4/6 1148/4/6
f 1149/5/6 1150/5/6 1153/5/6
f 1150/6/6 1151/6/6 1154/6/6
f 1153/5/6 1150/5/6 1154/5/6
f 1151/5/6 1152/5/6 1155/5/6
f 1154/6/6 1151/6/6 1155/6/6
f 1155/5/6 1152/5/6 1156/5/6
f 1157/5/6 1158/5/6 1161/5/6
f 1158/6/6 1159/6/6 1162/6/6
f 1161/5/6 1158/5/6 1162/5/6
f 1159/5/6 1160/5/6 1163/5/6
f 1162/6/6 1159/6/6 1163/6/6
f 1163/5/6 1160/5/6 1164/5/6
f 1165/5/6 1166/5/6 1169/5/6
f 1166/6/6 1167/6/6 1170/6/6
f 1169/5/6 1166/5/6 1170/5/6
f 1167/5/6 1168/5/6 1171/5/6
f 1170/6/6 1167/6/6 1171/6/6
f 1171/5/6 1168/5/6 1172/5/6
f 1173/5/6 1174/5/6 1177/5/6
f 1174/6/6 1175/6/6 1178/6/6
f 1177/5/6 1174/5/6 1178/5/6
f 1175/5/6 1176/5/6 1179/5/6
f 1178/6/6 1175/6/6 1179/6/6
f 1179/5/6 1176/5/6 1180/5/6
f 1181/1/6 1182/1/6 1183/1/6
f 1183/1/6 1182/1/6 1184/1/6
f 1184/1/6 1182/1/6 1185/1/6
f 1185/4/6 1186/4/6 1187/4/6
f 1184/4/6 1185/4/6 1187/4/6
f 1187/4/6 1186/4/6 1188/4/6
f 1189/5/6 1190/5/6 1193/5/6
f 1190/6/6 1191/6/6 1194/6/6
f 1193/5/6 1190/5/6 1194/5/6
f 1191/5/6 1192/5/6 1195/5/6
f 1194/6/6 1191/6/6 1195/6/6
f 1195/5/6 1192/5/6 1196/5/6
f 1197/4/6 1198/4/6 1199/4/6
f 1199/4/6 1198/4/6 1200/4/6
f 1200/4/6 1198/4/6 1201/4/6
f 1199/1/6 1200/1/6 1202/1/6
f 1202/1/6 1200/1/6 1203/1/6
f 1202/4/6 1203/4/6 1205/4/6
f 1203/4/6 1204/4/6 1205/4/6
f 1205/4/6 1204/4/6 1206/4/6
f 1207/5/6 1208/5/6 1211/5/6
f 1208/6/6 1209/6/6 1212/6/6
f 1211/5/6 1208/5/6 1212/5/6
f 1209/5/6 1210/5/6 1213/5/6
f 1212/6/6 1209/6/6 1213/6/6
f 1213/5/6 1210/5/6 1214/5/6
f 1181/1/6 1183/1/6 1217/1/6
f 1215/4/6 1216/4/6 1218/4/6
f 1218/4/6 1216/4/6 1219/4/6
f 1219/4/6 1216/4/6 1220/4/6
f 1181/1/6 1217/1/6 1221/1/6
f 1217/1/6 1218/1/6 1221/1/6
f 1218/1/6 1219/1/6 1221/1/6
f 1221/1/6 1219/1/6 1222/1/6
f 1223/4/6 1224/4/6 1225/4/6
f 1225/4/6 1224/4/6 1226/4/6
f 1227/4/6 1228/4/6 1229/4/6
f 1229/4/6 1228/4/6 1230/4/6
