# MagicaVoxel @ Ephtracy

# group
o 

# material
mtllib model-1.mtl
usemtl palette

# normals
vn 0 0 1
vn 0 0 -1
vn 1 0 0
vn -1 0 0
vn 0 -1 0
vn 0 1 0

# texcoords
vt 0.0292969 0.5
vt 0.490234 0.5
vt 0.755859 0.5

# verts
v 0.7 2.1 1.1
v 0.6 2.1 1.1
v -0.5 2.1 1.1
v -0.6 2.1 1.1
v 0.6 2.3 1.1
v -0.5 2.3 1.1
v 0.7 2.4 1.1
v -0.6 2.4 1.1
v 0.5 0.9 1
v -0.5 0.9 1
v 0.6 2.1 1
v 0.5 2.1 1
v -0.5 2.1 1
v 0.6 2.3 1
v -0.5 2.3 1
v 0.6 0.9 0.9
v 0.5 0.9 0.9
v 0.7 1.8 0.9
v 0.6 1.8 0.9
v 0.7 2.1 0.9
v 0.5 2.1 0.9
v -0.5 0.9 0.8
v -0.6 0.9 0.8
v -0.5 2.1 0.8
v -0.6 2.1 0.8
v 0.7 1.5 0.7
v 0.6 1.5 0.7
v 0.7 1.8 0.7
v 0.6 1.8 0.7
v 0.7 0.9 0.5
v 0.6 0.9 0.5
v 0.7 1.5 0.5
v 0.6 1.5 0.5
v 0.7 1.2 -0.1
v 0.6 1.2 -0.1
v 0.7 1.5 -0.1
v 0.6 1.5 -0.1
v 0.7 1.5 -0.2
v 0.6 1.5 -0.2
v 0.7 1.8 -0.2
v 0.6 1.8 -0.2
v 0.7 1.8 -0.3
v 0.6 1.8 -0.3
v 0.6 1.9 -0.3
v 0.6 2 -0.3
v 0.7 2.1 -0.3
v 0.6 2.1 -0.3
v 0.7 2.1 -0.4
v -0.4 2.1 -0.4
v 0.7 2.2 -0.4
v -0.4 2.2 -0.4
v 0.7 2.2 -0.5
v -0.4 2.2 -0.5
v 0.7 2.3 -0.5
v -0.4 2.3 -0.5
v 0.7 2.3 -0.6
v -0.5 2.3 -0.6
v 0.7 2.4 -0.6
v -0.5 2.4 -0.6
v 0.7 2.3 0.6
v -0.5 2.3 0.6
v 0.7 2.4 0.6
v -0.5 2.4 0.6
v 0.7 2.2 0.5
v -0.4 2.2 0.5
v 0.7 2.3 0.5
v -0.4 2.3 0.5
v 0.7 2.1 0.4
v -0.4 2.1 0.4
v 0.7 2.2 0.4
v -0.4 2.2 0.4
v 0.7 1.8 0.3
v 0.6 1.8 0.3
v 0.6 1.9 0.3
v 0.6 2 0.3
v 0.7 2.1 0.3
v 0.6 2.1 0.3
v 0.7 1.5 0.2
v 0.6 1.5 0.2
v 0.7 1.8 0.2
v 0.6 1.8 0.2
v 0.7 1.2 0.1
v 0.6 1.2 0.1
v 0.7 1.5 0.1
v 0.6 1.5 0.1
v 0.7 0.9 -0.5
v 0.6 0.9 -0.5
v 0.7 1.5 -0.5
v 0.6 1.5 -0.5
v 0.7 1.5 -0.7
v 0.6 1.5 -0.7
v 0.7 1.8 -0.7
v 0.6 1.8 -0.7
v -0.5 0.9 -0.8
v -0.6 0.9 -0.8
v -0.5 2.1 -0.8
v -0.6 2.1 -0.8
v 0.6 0.9 -0.9
v 0.5 0.9 -0.9
v 0.7 1.8 -0.9
v 0.6 1.8 -0.9
v 0.7 2.1 -0.9
v 0.5 2.1 -0.9
v 0.5 0.9 -1
v -0.5 0.9 -1
v 0.6 2.1 -1
v 0.5 2.1 -1
v -0.5 2.1 -1
v 0.6 2.3 -1
v -0.5 2.3 -1
v 0.7 2.1 -1.1
v 0.6 2.1 -1.1
v -0.5 2.1 -1.1
v -0.6 2.1 -1.1
v 0.6 2.3 -1.1
v -0.5 2.3 -1.1
v 0.7 2.4 -1.1
v -0.6 2.4 -1.1
v 0.7 2.1 1.1
v 0.7 2.4 1.1
v 0.7 2.2 1
v 0.7 2.3 1
v 0.7 1.8 0.9
v 0.7 2.1 0.9
v 0.7 2 0.8
v 0.7 2.1 0.8
v 0.7 2.2 0.8
v 0.7 2.3 0.8
v 0.7 1.5 0.7
v 0.7 1.8 0.7
v 0.7 2 0.7
v 0.7 2.1 0.7
v 0.7 2.2 0.7
v 0.7 1.8 0.6
v 0.7 1.9 0.6
v 0.7 2 0.6
v 0.7 2.1 0.6
v 0.7 2.3 0.6
v 0.7 2.4 0.6
v 0.7 0.9 0.5
v 0.7 1.5 0.5
v 0.7 1.6 0.5
v 0.7 1.7 0.5
v 0.7 1.8 0.5
v 0.7 2 0.5
v 0.7 2.2 0.5
v 0.7 2.3 0.5
v 0.7 1 0.4
v 0.7 1.1 0.4
v 0.7 1.2 0.4
v 0.7 1.3 0.4
v 0.7 1.4 0.4
v 0.7 1.5 0.4
v 0.7 1.7 0.4
v 0.7 1.9 0.4
v 0.7 2.1 0.4
v 0.7 2.2 0.4
v 0.7 1 0.3
v 0.7 1.1 0.3
v 0.7 1.2 0.3
v 0.7 1.3 0.3
v 0.7 1.4 0.3
v 0.7 1.6 0.3
v 0.7 1.8 0.3
v 0.7 2.1 0.3
v 0.7 1.1 0.2
v 0.7 1.2 0.2
v 0.7 1.5 0.2
v 0.7 1.8 0.2
v 0.7 1 0.1
v 0.7 1.1 0.1
v 0.7 1.2 0.1
v 0.7 1.5 0.1
v 0.7 1 -0.1
v 0.7 1.1 -0.1
v 0.7 1.2 -0.1
v 0.7 1.5 -0.1
v 0.7 1.1 -0.2
v 0.7 1.2 -0.2
v 0.7 1.5 -0.2
v 0.7 1.8 -0.2
v 0.7 1 -0.3
v 0.7 1.1 -0.3
v 0.7 1.2 -0.3
v 0.7 1.3 -0.3
v 0.7 1.4 -0.3
v 0.7 1.6 -0.3
v 0.7 1.8 -0.3
v 0.7 2.1 -0.3
v 0.7 1 -0.4
v 0.7 1.1 -0.4
v 0.7 1.2 -0.4
v 0.7 1.3 -0.4
v 0.7 1.4 -0.4
v 0.7 1.5 -0.4
v 0.7 1.7 -0.4
v 0.7 1.9 -0.4
v 0.7 2.1 -0.4
v 0.7 2.2 -0.4
v 0.7 0.9 -0.5
v 0.7 1.5 -0.5
v 0.7 1.6 -0.5
v 0.7 1.7 -0.5
v 0.7 1.8 -0.5
v 0.7 2 -0.5
v 0.7 2.2 -0.5
v 0.7 2.3 -0.5
v 0.7 1.8 -0.6
v 0.7 1.9 -0.6
v 0.7 2 -0.6
v 0.7 2.1 -0.6
v 0.7 2.3 -0.6
v 0.7 2.4 -0.6
v 0.7 1.5 -0.7
v 0.7 1.8 -0.7
v 0.7 2 -0.7
v 0.7 2.1 -0.7
v 0.7 2.2 -0.7
v 0.7 2 -0.8
v 0.7 2.1 -0.8
v 0.7 2.2 -0.8
v 0.7 2.3 -0.8
v 0.7 1.8 -0.9
v 0.7 2.1 -0.9
v 0.7 2.2 -1
v 0.7 2.3 -1
v 0.7 2.1 -1.1
v 0.7 2.4 -1.1
v 0.6 0.9 0.9
v 0.6 1.8 0.9
v 0.6 1.1 0.8
v 0.6 1.2 0.8
v 0.6 1.2 0.7
v 0.6 1.3 0.7
v 0.6 1.5 0.7
v 0.6 1.8 0.7
v 0.6 1.1 0.6
v 0.6 1.3 0.6
v 0.6 0.9 0.5
v 0.6 1.5 0.5
v 0.6 1.8 0.3
v 0.6 1.9 0.3
v 0.6 2 0.3
v 0.6 2.1 0.3
v 0.6 1.5 0.2
v 0.6 1.8 0.2
v 0.6 1.9 0.2
v 0.6 2 0.2
v 0.6 1.2 0.1
v 0.6 1.5 0.1
v 0.6 1.9 0.1
v 0.6 2 0.1
v 0.6 1.2 -0.1
v 0.6 1.5 -0.1
v 0.6 1.9 -0.1
v 0.6 2 -0.1
v 0.6 1.5 -0.2
v 0.6 1.8 -0.2
v 0.6 1.9 -0.2
v 0.6 2 -0.2
v 0.6 1.8 -0.3
v 0.6 1.9 -0.3
v 0.6 2 -0.3
v 0.6 2.1 -0.3
v 0.6 0.9 -0.5
v 0.6 1.5 -0.5
v 0.6 1.1 -0.6
v 0.6 1.3 -0.6
v 0.6 1.2 -0.7
v 0.6 1.3 -0.7
v 0.6 1.5 -0.7
v 0.6 1.8 -0.7
v 0.6 1.1 -0.8
v 0.6 1.2 -0.8
v 0.6 0.9 -0.9
v 0.6 1.8 -0.9
v 0.5 0.9 1
v 0.5 2.1 1
v 0.5 0.9 0.9
v 0.5 2.1 0.9
v 0.5 0.9 -0.9
v 0.5 2.1 -0.9
v 0.5 0.9 -1
v 0.5 2.1 -1
v -0.4 2.2 0.5
v -0.4 2.3 0.5
v -0.4 2.1 0.4
v -0.4 2.2 0.4
v -0.4 2.1 -0.4
v -0.4 2.2 -0.4
v -0.4 2.2 -0.5
v -0.4 2.3 -0.5
v -0.5 2.1 1.1
v -0.5 2.3 1.1
v -0.5 2.1 1
v -0.5 2.3 1
v -0.5 2.3 0.6
v -0.5 2.4 0.6
v -0.5 2.3 -0.6
v -0.5 2.4 -0.6
v -0.5 2.1 -1
v -0.5 2.3 -1
v -0.5 2.1 -1.1
v -0.5 2.3 -1.1
v 0.6 2.1 1.1
v 0.6 2.3 1.1
v 0.6 2.1 1
v 0.6 2.3 1
v 0.6 2.1 -1
v 0.6 2.3 -1
v 0.6 2.1 -1.1
v 0.6 2.3 -1.1
v -0.5 0.9 1
v -0.5 2.1 1
v -0.5 0.9 0.8
v -0.5 2.1 0.8
v -0.5 0.9 -0.8
v -0.5 2.1 -0.8
v -0.5 0.9 -1
v -0.5 2.1 -1
v -0.6 2.1 1.1
v -0.6 2.4 1.1
v -0.6 2.2 1
v -0.6 2.3 1
v -0.6 2.2 0.9
v -0.6 2.3 0.9
v -0.6 0.9 0.8
v -0.6 2.1 0.8
v -0.6 2.2 0.8
v -0.6 2.3 0.8
v -0.6 1 0.7
v -0.6 1.1 0.7
v -0.6 1.2 0.7
v -0.6 1.3 0.7
v -0.6 1.4 0.7
v -0.6 1.5 0.7
v -0.6 1.6 0.7
v -0.6 1.7 0.7
v -0.6 1.8 0.7
v -0.6 1.9 0.7
v -0.6 2 0.7
v -0.6 2.1 0.7
v -0.6 2.2 0.7
v -0.6 2.3 0.7
v -0.6 1 0.6
v -0.6 1.1 0.6
v -0.6 1.2 0.6
v -0.6 1.3 0.6
v -0.6 1.4 0.6
v -0.6 1.5 0.6
v -0.6 1.6 0.6
v -0.6 1.7 0.6
v -0.6 1.8 0.6
v -0.6 1.9 0.6
v -0.6 2 0.6
v -0.6 2.1 0.6
v -0.6 2.2 0.6
v -0.6 2.3 0.6
v -0.6 2.2 0.5
v -0.6 2.3 0.5
v -0.6 2.2 0.4
v -0.6 2.3 0.4
v -0.6 2.2 0.3
v -0.6 2.3 0.3
v -0.6 2.2 0.2
v -0.6 2.3 0.2
v -0.6 2.1 0.1
v -0.6 2.2 0.1
v -0.6 2.1 -0.1
v -0.6 2.2 -0.1
v -0.6 2.2 -0.2
v -0.6 2.3 -0.2
v -0.6 2.2 -0.3
v -0.6 2.3 -0.3
v -0.6 2.2 -0.4
v -0.6 2.3 -0.4
v -0.6 2.2 -0.5
v -0.6 2.3 -0.5
v -0.6 1 -0.6
v -0.6 1.1 -0.6
v -0.6 1.2 -0.6
v -0.6 1.3 -0.6
v -0.6 1.4 -0.6
v -0.6 1.5 -0.6
v -0.6 1.6 -0.6
v -0.6 1.7 -0.6
v -0.6 1.8 -0.6
v -0.6 1.9 -0.6
v -0.6 2 -0.6
v -0.6 2.1 -0.6
v -0.6 2.2 -0.6
v -0.6 2.3 -0.6
v -0.6 1 -0.7
v -0.6 1.1 -0.7
v -0.6 1.2 -0.7
v -0.6 1.3 -0.7
v -0.6 1.4 -0.7
v -0.6 1.5 -0.7
v -0.6 1.6 -0.7
v -0.6 1.7 -0.7
v -0.6 1.8 -0.7
v -0.6 1.9 -0.7
v -0.6 2 -0.7
v -0.6 2.1 -0.7
v -0.6 2.2 -0.7
v -0.6 2.3 -0.7
v -0.6 0.9 -0.8
v -0.6 2.1 -0.8
v -0.6 2.2 -0.8
v -0.6 2.3 -0.8
v -0.6 2.2 -0.9
v -0.6 2.3 -0.9
v -0.6 2.2 -1
v -0.6 2.3 -1
v -0.6 2.1 -1.1
v -0.6 2.4 -1.1
v 0.7 0.9 0.5
v 0.7 0.9 -0.5
v 0.6 0.9 0.9
v 0.6 0.9 0.5
v 0.6 0.9 -0.5
v 0.6 0.9 -0.9
v 0.5 0.9 1
v 0.5 0.9 0.9
v 0.5 0.9 -0.9
v 0.5 0.9 -1
v -0.5 0.9 1
v -0.5 0.9 0.8
v -0.5 0.9 -0.8
v -0.5 0.9 -1
v -0.6 0.9 0.8
v -0.6 0.9 -0.8
v 0.7 1.5 0.7
v 0.7 1.5 0.5
v 0.7 1.5 -0.5
v 0.7 1.5 -0.7
v 0.6 1.5 0.7
v 0.6 1.5 0.5
v 0.6 1.5 -0.5
v 0.6 1.5 -0.7
v 0.7 1.8 0.9
v 0.7 1.8 0.7
v 0.7 1.8 -0.7
v 0.7 1.8 -0.9
v 0.6 1.8 0.9
v 0.6 1.8 0.7
v 0.6 1.8 -0.7
v 0.6 1.8 -0.9
v 0.7 2.1 1.1
v 0.7 2.1 0.9
v 0.7 2.1 -0.9
v 0.7 2.1 -1.1
v 0.6 2.1 1.1
v 0.6 2.1 1
v 0.6 2.1 -1
v 0.6 2.1 -1.1
v 0.5 2.1 1
v 0.5 2.1 0.9
v 0.5 2.1 -0.9
v 0.5 2.1 -1
v -0.5 2.1 1.1
v -0.5 2.1 1
v -0.5 2.1 0.8
v -0.5 2.1 -0.8
v -0.5 2.1 -1
v -0.5 2.1 -1.1
v -0.6 2.1 1.1
v -0.6 2.1 0.8
v -0.6 2.1 -0.8
v -0.6 2.1 -1.1
v 0.6 2.3 1.1
v 0.6 2.3 1
v 0.6 2.3 -1
v 0.6 2.3 -1.1
v -0.5 2.3 1.1
v -0.5 2.3 1
v -0.5 2.3 -1
v -0.5 2.3 -1.1
v 0.7 1.2 0.1
v 0.7 1.2 -0.1
v 0.6 1.2 0.1
v 0.6 1.2 -0.1
v 0.7 1.5 0.2
v 0.7 1.5 0.1
v 0.7 1.5 -0.1
v 0.7 1.5 -0.2
v 0.6 1.5 0.2
v 0.6 1.5 0.1
v 0.6 1.5 -0.1
v 0.6 1.5 -0.2
v 0.7 1.8 0.3
v 0.7 1.8 0.2
v 0.7 1.8 -0.2
v 0.7 1.8 -0.3
v 0.6 1.8 0.3
v 0.6 1.8 0.2
v 0.6 1.8 -0.2
v 0.6 1.8 -0.3
v 0.7 2.1 0.4
v 0.7 2.1 0.3
v 0.7 2.1 -0.3
v 0.7 2.1 -0.4
v 0.6 2.1 0.3
v 0.6 2.1 -0.3
v -0.4 2.1 0.4
v -0.4 2.1 -0.4
v 0.7 2.2 0.5
v 0.7 2.2 0.4
v 0.7 2.2 -0.4
v 0.7 2.2 -0.5
v -0.4 2.2 0.5
v -0.4 2.2 0.4
v -0.4 2.2 -0.4
v -0.4 2.2 -0.5
v 0.7 2.3 0.6
v 0.7 2.3 0.5
v 0.7 2.3 -0.5
v 0.7 2.3 -0.6
v -0.4 2.3 0.5
v -0.4 2.3 -0.5
v -0.5 2.3 0.6
v -0.5 2.3 -0.6
v 0.7 2.4 1.1
v 0.7 2.4 0.6
v 0.7 2.4 -0.6
v 0.7 2.4 -1.1
v 0.6 2.4 1
v 0.6 2.4 0.9
v 0.6 2.4 -0.9
v 0.6 2.4 -1
v 0.5 2.4 1
v 0.5 2.4 0.9
v 0.5 2.4 -0.9
v 0.5 2.4 -1
v 0.4 2.4 1
v 0.4 2.4 0.9
v 0.4 2.4 -0.9
v 0.4 2.4 -1
v 0.3 2.4 1
v 0.3 2.4 0.9
v 0.3 2.4 -0.9
v 0.3 2.4 -1
v 0.2 2.4 1
v 0.2 2.4 0.9
v 0.2 2.4 -0.9
v 0.2 2.4 -1
v 0.1 2.4 1
v 0.1 2.4 0.9
v 0.1 2.4 -0.9
v 0.1 2.4 -1
v 0 2.4 1
v 0 2.4 0.9
v 0 2.4 -0.9
v 0 2.4 -1
v -0.1 2.4 1
v -0.1 2.4 0.9
v -0.1 2.4 -0.9
v -0.1 2.4 -1
v -0.2 2.4 1
v -0.2 2.4 0.9
v -0.2 2.4 -0.9
v -0.2 2.4 -1
v -0.3 2.4 1
v -0.3 2.4 0.9
v -0.3 2.4 -0.9
v -0.3 2.4 -1
v -0.4 2.4 1
v -0.4 2.4 0.9
v -0.4 2.4 -0.9
v -0.4 2.4 -1
v -0.5 2.4 1
v -0.5 2.4 0.9
v -0.5 2.4 0.6
v -0.5 2.4 -0.6
v -0.5 2.4 -0.9
v -0.5 2.4 -1
v -0.6 2.4 1.1
v -0.6 2.4 -1.1

# faces
f 5/3/1 2/3/1 1/3/1
f 6/3/1 4/3/1 3/3/1
f 7/3/1 5/3/1 1/3/1
f 7/3/1 6/3/1 5/3/1
f 8/3/1 4/3/1 6/3/1
f 8/3/1 6/3/1 7/3/1
f 12/3/1 10/3/1 9/3/1
f 13/3/1 10/3/1 12/3/1
f 14/3/1 12/3/1 11/3/1
f 14/3/1 13/3/1 12/3/1
f 15/3/1 13/3/1 14/3/1
f 19/3/1 17/3/1 16/3/1
f 20/3/1 19/3/1 18/3/1
f 21/3/1 17/3/1 19/3/1
f 21/3/1 19/3/1 20/3/1
f 24/3/1 23/3/1 22/3/1
f 25/3/1 23/3/1 24/3/1
f 28/3/1 27/3/1 26/3/1
f 29/3/1 27/3/1 28/3/1
f 32/3/1 31/3/1 30/3/1
f 33/3/1 31/3/1 32/3/1
f 36/3/1 35/3/1 34/3/1
f 37/3/1 35/3/1 36/3/1
f 40/3/1 39/3/1 38/3/1
f 41/3/1 39/3/1 40/3/1
f 44/3/1 43/3/1 42/3/1
f 45/3/1 44/3/1 42/3/1
f 46/3/1 45/3/1 42/3/1
f 47/3/1 45/3/1 46/3/1
f 50/3/1 49/3/1 48/3/1
f 51/3/1 49/3/1 50/3/1
f 54/3/1 53/3/1 52/3/1
f 55/3/1 53/3/1 54/3/1
f 58/3/1 57/3/1 56/3/1
f 59/3/1 57/3/1 58/3/1
f 60/3/2 61/3/2 62/3/2
f 62/3/2 61/3/2 63/3/2
f 64/3/2 65/3/2 66/3/2
f 66/3/2 65/3/2 67/3/2
f 68/3/2 69/3/2 70/3/2
f 70/3/2 69/3/2 71/3/2
f 72/3/2 73/3/2 74/3/2
f 72/3/2 74/3/2 75/3/2
f 72/3/2 75/3/2 76/3/2
f 76/3/2 75/3/2 77/3/2
f 78/3/2 79/3/2 80/3/2
f 80/3/2 79/3/2 81/3/2
f 82/3/2 83/3/2 84/3/2
f 84/3/2 83/3/2 85/3/2
f 86/3/2 87/3/2 88/3/2
f 88/3/2 87/3/2 89/3/2
f 90/3/2 91/3/2 92/3/2
f 92/3/2 91/3/2 93/3/2
f 94/3/2 95/3/2 96/3/2
f 96/3/2 95/3/2 97/3/2
f 98/3/2 99/3/2 101/3/2
f 100/3/2 101/3/2 102/3/2
f 101/3/2 99/3/2 103/3/2
f 102/3/2 101/3/2 103/3/2
f 104/3/2 105/3/2 107/3/2
f 107/3/2 105/3/2 108/3/2
f 106/3/2 107/3/2 109/3/2
f 107/3/2 108/3/2 109/3/2
f 109/3/2 108/3/2 110/3/2
f 111/3/2 112/3/2 115/3/2
f 113/3/2 114/3/2 116/3/2
f 111/3/2 115/3/2 117/3/2
f 115/3/2 116/3/2 117/3/2
f 116/3/2 114/3/2 118/3/2
f 117/3/2 116/3/2 118/3/2
f 121/3/3 120/3/3 119/3/3
f 122/3/3 120/3/3 121/3/3
f 124/3/3 121/3/3 119/3/3
f 125/3/3 124/3/3 123/3/3
f 126/3/3 121/3/3 124/3/3
f 126/3/3 124/3/3 125/3/3
f 127/2/3 122/2/3 121/2/3
f 127/3/3 121/3/3 126/3/3
f 128/3/3 120/3/3 122/3/3
f 128/2/3 122/2/3 127/2/3
f 130/3/3 125/3/3 123/3/3
f 131/2/3 126/2/3 125/2/3
f 131/3/3 125/3/3 130/3/3
f 132/3/3 127/3/3 126/3/3
f 132/2/3 126/2/3 131/2/3
f 132/3/3 128/3/3 127/3/3
f 133/3/3 128/3/3 132/3/3
f 134/3/3 131/3/3 130/3/3
f 134/3/3 130/3/3 129/3/3
f 134/3/3 132/3/3 131/3/3
f 135/3/3 132/3/3 134/3/3
f 136/3/3 132/3/3 135/3/3
f 137/2/3 133/2/3 132/2/3
f 137/3/3 132/3/3 136/3/3
f 138/3/3 128/3/3 133/3/3
f 138/3/3 120/3/3 128/3/3
f 139/3/3 120/3/3 138/3/3
f 141/3/3 134/3/3 129/3/3
f 142/3/3 134/3/3 141/3/3
f 143/3/3 134/3/3 142/3/3
f 144/2/3 135/2/3 134/2/3
f 144/3/3 134/3/3 143/3/3
f 145/3/3 136/3/3 135/3/3
f 145/2/3 137/2/3 136/2/3
f 146/2/3 133/2/3 137/2/3
f 146/2/3 137/2/3 145/2/3
f 146/3/3 138/3/3 133/3/3
f 147/3/3 138/3/3 146/3/3
f 148/3/3 141/3/3 140/3/3
f 149/3/3 141/3/3 148/3/3
f 150/3/3 141/3/3 149/3/3
f 151/3/3 141/3/3 150/3/3
f 152/3/3 141/3/3 151/3/3
f 153/2/3 142/2/3 141/2/3
f 153/3/3 141/3/3 152/3/3
f 154/2/3 144/2/3 143/2/3
f 154/3/3 143/3/3 142/3/3
f 155/3/3 145/3/3 135/3/3
f 155/2/3 144/2/3 154/2/3
f 155/2/3 135/2/3 144/2/3
f 155/3/3 146/3/3 145/3/3
f 156/3/3 146/3/3 155/3/3
f 157/3/3 146/3/3 156/3/3
f 158/3/3 148/3/3 140/3/3
f 158/2/3 149/2/3 148/2/3
f 159/3/3 150/3/3 149/3/3
f 159/2/3 149/2/3 158/2/3
f 160/2/3 151/2/3 150/2/3
f 160/3/3 150/3/3 159/3/3
f 161/3/3 152/3/3 151/3/3
f 161/2/3 151/2/3 160/2/3
f 162/2/3 153/2/3 152/2/3
f 162/3/3 152/3/3 161/3/3
f 163/3/3 154/3/3 142/3/3
f 163/2/3 153/2/3 162/2/3
f 163/2/3 142/2/3 153/2/3
f 163/3/3 155/3/3 154/3/3
f 163/3/3 156/3/3 155/3/3
f 164/3/3 156/3/3 163/3/3
f 165/3/3 156/3/3 164/3/3
f 166/3/3 159/3/3 158/3/3
f 166/2/3 160/2/3 159/2/3
f 167/3/3 162/3/3 161/3/3
f 167/2/3 160/2/3 166/2/3
f 167/3/3 161/3/3 160/3/3
f 167/3/3 163/3/3 162/3/3
f 167/3/3 164/3/3 163/3/3
f 168/3/3 164/3/3 167/3/3
f 169/3/3 164/3/3 168/3/3
f 170/3/3 166/3/3 158/3/3
f 170/3/3 158/3/3 140/3/3
f 170/3/3 168/3/3 167/3/3
f 170/3/3 167/3/3 166/3/3
f 171/3/3 168/3/3 170/3/3
f 172/3/3 168/3/3 171/3/3
f 173/3/3 168/3/3 172/3/3
f 174/3/3 170/3/3 140/3/3
f 174/2/3 171/2/3 170/2/3
f 175/3/3 172/3/3 171/3/3
f 175/2/3 171/2/3 174/2/3
f 176/3/3 172/3/3 175/3/3
f 178/3/3 175/3/3 174/3/3
f 178/3/3 177/3/3 176/3/3
f 178/3/3 176/3/3 175/3/3
f 179/3/3 177/3/3 178/3/3
f 180/3/3 177/3/3 179/3/3
f 182/3/3 174/3/3 140/3/3
f 182/3/3 178/3/3 174/3/3
f 183/2/3 179/2/3 178/2/3
f 183/3/3 178/3/3 182/3/3
f 184/3/3 180/3/3 179/3/3
f 184/2/3 179/2/3 183/2/3
f 184/3/3 181/3/3 180/3/3
f 185/3/3 181/3/3 184/3/3
f 186/3/3 181/3/3 185/3/3
f 187/3/3 181/3/3 186/3/3
f 188/3/3 181/3/3 187/3/3
f 190/2/3 183/2/3 182/2/3
f 190/3/3 182/3/3 140/3/3
f 191/3/3 184/3/3 183/3/3
f 191/2/3 183/2/3 190/2/3
f 192/2/3 185/2/3 184/2/3
f 192/3/3 184/3/3 191/3/3
f 193/3/3 186/3/3 185/3/3
f 193/2/3 185/2/3 192/2/3
f 194/2/3 187/2/3 186/2/3
f 194/3/3 186/3/3 193/3/3
f 195/2/3 187/2/3 194/2/3
f 196/3/3 188/3/3 187/3/3
f 196/3/3 189/3/3 188/3/3
f 197/3/3 189/3/3 196/3/3
f 198/3/3 189/3/3 197/3/3
f 200/3/3 195/3/3 194/3/3
f 200/3/3 193/3/3 192/3/3
f 200/3/3 190/3/3 140/3/3
f 200/3/3 191/3/3 190/3/3
f 200/3/3 194/3/3 193/3/3
f 200/3/3 192/3/3 191/3/3
f 201/2/3 187/2/3 195/2/3
f 201/3/3 195/3/3 200/3/3
f 202/3/3 196/3/3 187/3/3
f 202/2/3 187/2/3 201/2/3
f 203/2/3 197/2/3 196/2/3
f 203/3/3 196/3/3 202/3/3
f 204/2/3 197/2/3 203/2/3
f 205/3/3 198/3/3 197/3/3
f 205/3/3 199/3/3 198/3/3
f 206/3/3 199/3/3 205/3/3
f 208/2/3 197/2/3 204/2/3
f 208/3/3 204/3/3 203/3/3
f 208/3/3 202/3/3 201/3/3
f 208/3/3 203/3/3 202/3/3
f 209/3/3 205/3/3 197/3/3
f 209/2/3 197/2/3 208/2/3
f 210/2/3 206/2/3 205/2/3
f 210/3/3 205/3/3 209/3/3
f 211/2/3 206/2/3 210/2/3
f 212/3/3 207/3/3 206/3/3
f 214/3/3 209/3/3 208/3/3
f 214/3/3 208/3/3 201/3/3
f 214/3/3 211/3/3 210/3/3
f 214/3/3 210/3/3 209/3/3
f 215/3/3 211/3/3 214/3/3
f 216/3/3 211/3/3 215/3/3
f 217/2/3 206/2/3 211/2/3
f 217/3/3 211/3/3 216/3/3
f 218/3/3 213/3/3 212/3/3
f 218/2/3 206/2/3 217/2/3
f 218/3/3 212/3/3 206/3/3
f 219/3/3 216/3/3 215/3/3
f 219/2/3 217/2/3 216/2/3
f 220/3/3 218/3/3 217/3/3
f 220/2/3 217/2/3 219/2/3
f 221/3/3 213/3/3 218/3/3
f 221/3/3 218/3/3 220/3/3
f 222/3/3 213/3/3 221/3/3
f 223/3/3 220/3/3 219/3/3
f 223/3/3 219/3/3 215/3/3
f 223/3/3 221/3/3 220/3/3
f 224/3/3 221/3/3 223/3/3
f 225/2/3 222/2/3 221/2/3
f 225/3/3 221/3/3 224/3/3
f 226/3/3 213/3/3 222/3/3
f 226/2/3 222/2/3 225/2/3
f 227/3/3 225/3/3 224/3/3
f 227/3/3 226/3/3 225/3/3
f 228/3/3 213/3/3 226/3/3
f 228/3/3 226/3/3 227/3/3
f 231/3/3 230/3/3 229/3/3
f 232/3/3 230/3/3 231/3/3
f 233/1/3 232/1/3 231/1/3
f 233/3/3 230/3/3 232/3/3
f 234/3/3 230/3/3 233/3/3
f 235/3/3 230/3/3 234/3/3
f 236/3/3 230/3/3 235/3/3
f 237/3/3 231/3/3 229/3/3
f 237/1/3 233/1/3 231/1/3
f 237/1/3 234/1/3 233/1/3
f 238/3/3 235/3/3 234/3/3
f 238/1/3 234/1/3 237/1/3
f 239/3/3 237/3/3 229/3/3
f 239/3/3 238/3/3 237/3/3
f 240/3/3 235/3/3 238/3/3
f 240/3/3 238/3/3 239/3/3
f 246/3/3 242/3/3 241/3/3
f 247/2/3 243/2/3 242/2/3
f 247/3/3 242/3/3 246/3/3
f 248/3/3 244/3/3 243/3/3
f 248/2/3 243/2/3 247/2/3
f 250/3/3 247/3/3 246/3/3
f 250/3/3 246/3/3 245/3/3
f 250/3/3 248/3/3 247/3/3
f 251/3/3 248/3/3 250/3/3
f 252/3/3 244/3/3 248/3/3
f 252/3/3 248/3/3 251/3/3
f 253/3/3 251/3/3 250/3/3
f 253/3/3 250/3/3 249/3/3
f 254/3/3 251/3/3 253/3/3
f 255/2/3 252/2/3 251/2/3
f 255/3/3 251/3/3 254/3/3
f 256/3/3 244/3/3 252/3/3
f 256/2/3 252/2/3 255/2/3
f 257/3/3 255/3/3 254/3/3
f 257/3/3 256/3/3 255/3/3
f 258/3/3 256/3/3 257/3/3
f 259/3/3 256/3/3 258/3/3
f 260/3/3 244/3/3 256/3/3
f 260/3/3 256/3/3 259/3/3
f 261/3/3 259/3/3 258/3/3
f 262/2/3 260/2/3 259/2/3
f 262/3/3 259/3/3 261/3/3
f 263/3/3 244/3/3 260/3/3
f 263/2/3 260/2/3 262/2/3
f 264/3/3 244/3/3 263/3/3
f 267/3/3 266/3/3 265/3/3
f 268/3/3 266/3/3 267/3/3
f 269/1/3 268/1/3 267/1/3
f 270/3/3 266/3/3 268/3/3
f 270/1/3 268/1/3 269/1/3
f 271/3/3 266/3/3 270/3/3
f 273/3/3 267/3/3 265/3/3
f 273/1/3 269/1/3 267/1/3
f 274/3/3 272/3/3 271/3/3
f 274/1/3 269/1/3 273/1/3
f 274/3/3 271/3/3 270/3/3
f 274/3/3 270/3/3 269/3/3
f 275/3/3 273/3/3 265/3/3
f 275/3/3 274/3/3 273/3/3
f 276/3/3 272/3/3 274/3/3
f 276/3/3 274/3/3 275/3/3
f 279/3/3 278/3/3 277/3/3
f 280/3/3 278/3/3 279/3/3
f 283/3/3 282/3/3 281/3/3
f 284/3/3 282/3/3 283/3/3
f 288/3/3 286/3/3 285/3/3
f 289/3/3 288/3/3 287/3/3
f 290/3/3 286/3/3 288/3/3
f 290/3/3 288/3/3 289/3/3
f 291/3/3 286/3/3 290/3/3
f 292/3/3 286/3/3 291/3/3
f 295/3/3 294/3/3 293/3/3
f 296/3/3 294/3/3 295/3/3
f 299/3/3 298/3/3 297/3/3
f 300/3/3 298/3/3 299/3/3
f 303/3/3 302/3/3 301/3/3
f 304/3/3 302/3/3 303/3/3
f 305/3/4 306/3/4 307/3/4
f 307/3/4 306/3/4 308/3/4
f 309/3/4 310/3/4 311/3/4
f 311/3/4 310/3/4 312/3/4
f 313/3/4 314/3/4 315/3/4
f 315/3/4 314/3/4 316/3/4
f 317/3/4 318/3/4 319/3/4
f 319/3/4 318/3/4 320/3/4
f 321/3/4 322/3/4 323/3/4
f 323/3/4 322/3/4 324/3/4
f 321/3/4 323/3/4 325/3/4
f 323/2/4 324/2/4 325/2/4
f 324/3/4 322/3/4 326/3/4
f 325/2/4 324/2/4 326/2/4
f 321/3/4 325/3/4 328/3/4
f 325/3/4 326/3/4 328/3/4
f 328/3/4 326/3/4 329/3/4
f 326/3/4 322/3/4 330/3/4
f 329/3/4 326/3/4 330/3/4
f 328/3/4 329/3/4 331/3/4
f 327/3/4 328/3/4 331/3/4
f 331/3/4 329/3/4 332/3/4
f 332/3/4 329/3/4 333/3/4
f 333/3/4 329/3/4 334/3/4
f 334/3/4 329/3/4 335/3/4
f 335/3/4 329/3/4 336/3/4
f 336/3/4 329/3/4 337/3/4
f 337/3/4 329/3/4 338/3/4
f 338/3/4 329/3/4 339/3/4
f 339/3/4 329/3/4 340/3/4
f 340/3/4 329/3/4 341/3/4
f 341/3/4 329/3/4 342/3/4
f 329/2/4 330/2/4 343/2/4
f 342/3/4 329/3/4 343/3/4
f 330/3/4 322/3/4 344/3/4
f 343/2/4 330/2/4 344/2/4
f 327/3/4 331/3/4 345/3/4
f 331/2/4 332/2/4 345/2/4
f 332/3/4 333/3/4 346/3/4
f 345/2/4 332/2/4 346/2/4
f 333/2/4 334/2/4 347/2/4
f 346/3/4 333/3/4 347/3/4
f 334/3/4 335/3/4 348/3/4
f 347/2/4 334/2/4 348/2/4
f 335/2/4 336/2/4 349/2/4
f 348/3/4 335/3/4 349/3/4
f 336/3/4 337/3/4 350/3/4
f 349/2/4 336/2/4 350/2/4
f 337/2/4 338/2/4 351/2/4
f 350/3/4 337/3/4 351/3/4
f 338/3/4 339/3/4 352/3/4
f 351/2/4 338/2/4 352/2/4
f 339/2/4 340/2/4 353/2/4
f 352/3/4 339/3/4 353/3/4
f 340/3/4 341/3/4 354/3/4
f 353/2/4 340/2/4 354/2/4
f 341/2/4 342/2/4 355/2/4
f 354/3/4 341/3/4 355/3/4
f 342/3/4 343/3/4 356/3/4
f 355/2/4 342/2/4 356/2/4
f 343/3/4 344/3/4 356/3/4
f 356/3/4 344/3/4 357/3/4
f 344/3/4 322/3/4 358/3/4
f 357/3/4 344/3/4 358/3/4
f 354/3/4 355/3/4 359/3/4
f 353/3/4 354/3/4 359/3/4
f 357/2/4 358/2/4 359/2/4
f 355/3/4 356/3/4 359/3/4
f 351/3/4 352/3/4 359/3/4
f 350/3/4 351/3/4 359/3/4
f 349/3/4 350/3/4 359/3/4
f 348/3/4 349/3/4 359/3/4
f 347/3/4 348/3/4 359/3/4
f 346/3/4 347/3/4 359/3/4
f 345/3/4 346/3/4 359/3/4
f 356/3/4 357/3/4 359/3/4
f 352/3/4 353/3/4 359/3/4
f 358/3/4 322/3/4 360/3/4
f 359/2/4 358/2/4 360/2/4
f 345/3/4 359/3/4 361/3/4
f 359/3/4 360/3/4 361/3/4
f 360/3/4 322/3/4 362/3/4
f 361/3/4 360/3/4 362/3/4
f 345/3/4 361/3/4 363/3/4
f 361/2/4 362/2/4 363/2/4
f 362/3/4 322/3/4 364/3/4
f 363/2/4 362/2/4 364/2/4
f 345/3/4 363/3/4 365/3/4
f 363/3/4 364/3/4 365/3/4
f 364/3/4 322/3/4 366/3/4
f 365/3/4 364/3/4 366/3/4
f 345/3/4 365/3/4 367/3/4
f 365/2/4 366/2/4 368/2/4
f 367/3/4 365/3/4 368/3/4
f 345/3/4 367/3/4 369/3/4
f 367/2/4 368/2/4 369/2/4
f 368/2/4 366/2/4 370/2/4
f 369/2/4 368/2/4 370/2/4
f 369/3/4 370/3/4 371/3/4
f 370/2/4 366/2/4 371/2/4
f 366/3/4 322/3/4 372/3/4
f 371/2/4 366/2/4 372/2/4
f 369/3/4 371/3/4 373/3/4
f 371/3/4 372/3/4 373/3/4
f 372/3/4 322/3/4 374/3/4
f 373/3/4 372/3/4 374/3/4
f 369/3/4 373/3/4 375/3/4
f 373/2/4 374/2/4 375/2/4
f 374/3/4 322/3/4 376/3/4
f 375/2/4 374/2/4 376/2/4
f 369/3/4 375/3/4 377/3/4
f 375/3/4 376/3/4 377/3/4
f 376/3/4 322/3/4 378/3/4
f 377/3/4 376/3/4 378/3/4
f 369/3/4 377/3/4 379/3/4
f 327/3/4 345/3/4 379/3/4
f 345/3/4 369/3/4 379/3/4
f 379/3/4 377/3/4 380/3/4
f 380/3/4 377/3/4 381/3/4
f 381/3/4 377/3/4 382/3/4
f 382/3/4 377/3/4 383/3/4
f 383/3/4 377/3/4 384/3/4
f 384/3/4 377/3/4 385/3/4
f 385/3/4 377/3/4 386/3/4
f 386/3/4 377/3/4 387/3/4
f 387/3/4 377/3/4 388/3/4
f 388/3/4 377/3/4 389/3/4
f 389/3/4 377/3/4 390/3/4
f 377/2/4 378/2/4 391/2/4
f 390/3/4 377/3/4 391/3/4
f 378/3/4 322/3/4 392/3/4
f 391/2/4 378/2/4 392/2/4
f 327/3/4 379/3/4 393/3/4
f 379/2/4 380/2/4 393/2/4
f 380/3/4 381/3/4 394/3/4
f 393/2/4 380/2/4 394/2/4
f 381/2/4 382/2/4 395/2/4
f 394/3/4 381/3/4 395/3/4
f 382/3/4 383/3/4 396/3/4
f 395/2/4 382/2/4 396/2/4
f 383/2/4 384/2/4 397/2/4
f 396/3/4 383/3/4 397/3/4
f 384/3/4 385/3/4 398/3/4
f 397/2/4 384/2/4 398/2/4
f 385/2/4 386/2/4 399/2/4
f 398/3/4 385/3/4 399/3/4
f 386/3/4 387/3/4 400/3/4
f 399/2/4 386/2/4 400/2/4
f 387/2/4 388/2/4 401/2/4
f 400/3/4 387/3/4 401/3/4
f 388/3/4 389/3/4 402/3/4
f 401/2/4 388/2/4 402/2/4
f 389/2/4 390/2/4 403/2/4
f 402/3/4 389/3/4 403/3/4
f 390/3/4 391/3/4 404/3/4
f 403/2/4 390/2/4 404/2/4
f 391/3/4 392/3/4 404/3/4
f 404/3/4 392/3/4 405/3/4
f 392/3/4 322/3/4 406/3/4
f 405/3/4 392/3/4 406/3/4
f 402/3/4 403/3/4 407/3/4
f 401/3/4 402/3/4 407/3/4
f 404/3/4 405/3/4 407/3/4
f 403/3/4 404/3/4 407/3/4
f 399/3/4 400/3/4 407/3/4
f 398/3/4 399/3/4 407/3/4
f 397/3/4 398/3/4 407/3/4
f 396/3/4 397/3/4 407/3/4
f 395/3/4 396/3/4 407/3/4
f 394/3/4 395/3/4 407/3/4
f 393/3/4 394/3/4 407/3/4
f 327/3/4 393/3/4 407/3/4
f 400/3/4 401/3/4 407/3/4
f 407/3/4 405/3/4 408/3/4
f 405/2/4 406/2/4 409/2/4
f 408/3/4 405/3/4 409/3/4
f 406/3/4 322/3/4 410/3/4
f 409/2/4 406/2/4 410/2/4
f 408/3/4 409/3/4 411/3/4
f 409/3/4 410/3/4 411/3/4
f 410/3/4 322/3/4 412/3/4
f 411/3/4 410/3/4 412/3/4
f 408/3/4 411/3/4 413/3/4
f 411/2/4 412/2/4 413/2/4
f 412/3/4 322/3/4 414/3/4
f 413/2/4 412/2/4 414/2/4
f 408/3/4 413/3/4 415/3/4
f 413/3/4 414/3/4 415/3/4
f 414/3/4 322/3/4 416/3/4
f 415/3/4 414/3/4 416/3/4
f 420/3/5 418/3/5 417/3/5
f 421/3/5 418/3/5 420/3/5
f 424/3/5 420/3/5 419/3/5
f 424/3/5 422/3/5 421/3/5
f 424/3/5 421/3/5 420/3/5
f 425/3/5 422/3/5 424/3/5
f 427/3/5 424/3/5 423/3/5
f 427/3/5 426/3/5 425/3/5
f 427/3/5 425/3/5 424/3/5
f 428/3/5 426/3/5 427/3/5
f 429/3/5 426/3/5 428/3/5
f 430/3/5 426/3/5 429/3/5
f 431/3/5 429/3/5 428/3/5
f 432/3/5 429/3/5 431/3/5
f 437/3/5 434/3/5 433/3/5
f 438/3/5 434/3/5 437/3/5
f 439/3/5 436/3/5 435/3/5
f 440/3/5 436/3/5 439/3/5
f 445/3/5 442/3/5 441/3/5
f 446/3/5 442/3/5 445/3/5
f 447/3/5 444/3/5 443/3/5
f 448/3/5 444/3/5 447/3/5
f 453/3/5 450/3/5 449/3/5
f 454/3/5 450/3/5 453/3/5
f 455/3/5 452/3/5 451/3/5
f 456/3/5 452/3/5 455/3/5
f 457/3/5 450/3/5 454/3/5
f 458/3/5 450/3/5 457/3/5
f 459/3/5 455/3/5 451/3/5
f 460/3/5 455/3/5 459/3/5
f 467/3/5 462/3/5 461/3/5
f 467/3/5 463/3/5 462/3/5
f 468/3/5 463/3/5 467/3/5
f 469/3/5 465/3/5 464/3/5
f 469/3/5 466/3/5 465/3/5
f 470/3/5 466/3/5 469/3/5
f 475/3/5 472/3/5 471/3/5
f 476/3/5 472/3/5 475/3/5
f 477/3/5 474/3/5 473/3/5
f 478/3/5 474/3/5 477/3/5
f 479/3/6 480/3/6 481/3/6
f 481/3/6 480/3/6 482/3/6
f 483/3/6 484/3/6 487/3/6
f 487/3/6 484/3/6 488/3/6
f 485/3/6 486/3/6 489/3/6
f 489/3/6 486/3/6 490/3/6
f 491/3/6 492/3/6 495/3/6
f 495/3/6 492/3/6 496/3/6
f 493/3/6 494/3/6 497/3/6
f 497/3/6 494/3/6 498/3/6
f 499/3/6 500/3/6 503/3/6
f 501/3/6 502/3/6 504/3/6
f 499/3/6 503/3/6 505/3/6
f 503/3/6 504/3/6 505/3/6
f 504/3/6 502/3/6 506/3/6
f 505/3/6 504/3/6 506/3/6
f 507/3/6 508/3/6 511/3/6
f 511/3/6 508/3/6 512/3/6
f 509/3/6 510/3/6 513/3/6
f 513/3/6 510/3/6 514/3/6
f 515/3/6 516/3/6 519/3/6
f 517/3/6 518/3/6 520/3/6
f 515/3/6 519/3/6 521/3/6
f 519/3/6 520/3/6 521/3/6
f 520/3/6 518/3/6 522/3/6
f 521/3/6 520/3/6 522/3/6
f 523/3/6 524/3/6 527/3/6
f 527/3/6 524/3/6 528/3/6
f 525/3/6 526/3/6 529/3/6
f 529/3/6 526/3/6 530/3/6
f 523/3/6 527/3/6 531/3/6
f 527/2/6 528/2/6 531/2/6
f 528/3/6 524/3/6 532/3/6
f 531/2/6 528/2/6 532/2/6
f 529/2/6 530/2/6 533/2/6
f 525/3/6 529/3/6 533/3/6
f 530/3/6 526/3/6 534/3/6
f 533/2/6 530/2/6 534/2/6
f 523/3/6 531/3/6 535/3/6
f 531/3/6 532/3/6 535/3/6
f 532/3/6 524/3/6 536/3/6
f 535/3/6 532/3/6 536/3/6
f 525/3/6 533/3/6 537/3/6
f 533/3/6 534/3/6 537/3/6
f 534/3/6 526/3/6 538/3/6
f 537/3/6 534/3/6 538/3/6
f 523/3/6 535/3/6 539/3/6
f 535/2/6 536/2/6 539/2/6
f 536/3/6 524/3/6 540/3/6
f 539/2/6 536/2/6 540/2/6
f 525/3/6 537/3/6 541/3/6
f 537/2/6 538/2/6 541/2/6
f 538/3/6 526/3/6 542/3/6
f 541/2/6 538/2/6 542/2/6
f 523/3/6 539/3/6 543/3/6
f 539/3/6 540/3/6 543/3/6
f 540/3/6 524/3/6 544/3/6
f 543/3/6 540/3/6 544/3/6
f 525/3/6 541/3/6 545/3/6
f 541/3/6 542/3/6 545/3/6
f 542/3/6 526/3/6 546/3/6
f 545/3/6 542/3/6 546/3/6
f 523/3/6 543/3/6 547/3/6
f 543/2/6 544/2/6 547/2/6
f 544/3/6 524/3/6 548/3/6
f 547/2/6 544/2/6 548/2/6
f 525/3/6 545/3/6 549/3/6
f 545/2/6 546/2/6 549/2/6
f 546/3/6 526/3/6 550/3/6
f 549/2/6 546/2/6 550/2/6
f 523/3/6 547/3/6 551/3/6
f 547/3/6 548/3/6 551/3/6
f 548/3/6 524/3/6 552/3/6
f 551/3/6 548/3/6 552/3/6
f 525/3/6 549/3/6 553/3/6
f 549/3/6 550/3/6 553/3/6
f 550/3/6 526/3/6 554/3/6
f 553/3/6 550/3/6 554/3/6
f 523/3/6 551/3/6 555/3/6
f 551/2/6 552/2/6 555/2/6
f 552/3/6 524/3/6 556/3/6
f 555/2/6 552/2/6 556/2/6
f 525/3/6 553/3/6 557/3/6
f 553/2/6 554/2/6 557/2/6
f 554/3/6 526/3/6 558/3/6
f 557/2/6 554/2/6 558/2/6
f 523/3/6 555/3/6 559/3/6
f 555/3/6 556/3/6 559/3/6
f 556/3/6 524/3/6 560/3/6
f 559/3/6 556/3/6 560/3/6
f 525/3/6 557/3/6 561/3/6
f 557/3/6 558/3/6 561/3/6
f 558/3/6 526/3/6 562/3/6
f 561/3/6 558/3/6 562/3/6
f 523/3/6 559/3/6 563/3/6
f 559/2/6 560/2/6 563/2/6
f 560/3/6 524/3/6 564/3/6
f 563/2/6 560/2/6 564/2/6
f 525/3/6 561/3/6 565/3/6
f 561/2/6 562/2/6 565/2/6
f 562/3/6 526/3/6 566/3/6
f 565/2/6 562/2/6 566/2/6
f 523/3/6 563/3/6 567/3/6
f 563/3/6 564/3/6 567/3/6
f 564/3/6 524/3/6 568/3/6
f 567/3/6 564/3/6 568/3/6
f 525/3/6 565/3/6 569/3/6
f 565/3/6 566/3/6 569/3/6
f 566/3/6 526/3/6 570/3/6
f 569/3/6 566/3/6 570/3/6
f 523/3/6 567/3/6 571/3/6
f 567/2/6 568/2/6 571/2/6
f 568/3/6 524/3/6 572/3/6
f 571/2/6 568/2/6 572/2/6
f 572/3/6 524/3/6 573/3/6
f 525/3/6 569/3/6 574/3/6
f 569/2/6 570/2/6 575/2/6
f 574/3/6 569/3/6 575/3/6
f 570/3/6 526/3/6 576/3/6
f 575/2/6 570/2/6 576/2/6
f 574/3/6 575/3/6 577/3/6
f 572/3/6 573/3/6 577/3/6
f 575/3/6 576/3/6 577/3/6
f 523/3/6 571/3/6 577/3/6
f 571/3/6 572/3/6 577/3/6
f 573/3/6 574/3/6 577/3/6
f 576/3/6 526/3/6 578/3/6
f 577/3/6 576/3/6 578/3/6
