# MagicaVoxel @ Ephtracy

# group
o 

# material
mtllib model-0.mtl
usemtl palette

# normals
vn 0 0 1
vn 0 0 -1
vn 1 0 0
vn -1 0 0
vn 0 -1 0
vn 0 1 0

# texcoords
vt 0.490234 0.5
vt 0.498047 0.5
vt 0.755859 0.5

# verts
v 0.5 0.3 1
v -0.5 0.3 1
v 0.5 1 1
v -0.5 1 1
v 0.6 0.2 0.9
v 0.5 0.2 0.9
v 0.5 0.3 0.9
v 0.6 1 0.9
v 0.5 1 0.9
v 0.6 0.1 0.8
v 0.5 0.1 0.8
v 0.6 0.2 0.8
v 0.5 0.2 0.8
v -0.5 0.2 0.8
v -0.6 0.2 0.8
v -0.5 0.3 0.8
v -0.5 1 0.8
v -0.6 1 0.8
v -0.5 0.1 0.7
v -0.6 0.1 0.7
v -0.5 0.2 0.7
v -0.6 0.2 0.7
v 0.7 0.1 0.5
v 0.6 0.1 0.5
v 0.7 1 0.5
v 0.6 1 0.5
v 0.7 0 0.4
v 0.6 0 0.4
v 0.7 0.1 0.4
v 0.6 0.1 0.4
v 0.4 0.3 -0.9
v -0.4 0.3 -0.9
v 0.4 0.4 -0.9
v -0.4 0.4 -0.9
v 0.4 0.3 0.9
v -0.4 0.3 0.9
v 0.4 0.4 0.9
v -0.4 0.4 0.9
v 0.7 0 -0.4
v 0.6 0 -0.4
v 0.7 0.1 -0.4
v 0.6 0.1 -0.4
v 0.7 0.1 -0.5
v 0.6 0.1 -0.5
v 0.7 1 -0.5
v 0.6 1 -0.5
v -0.5 0.1 -0.7
v -0.6 0.1 -0.7
v -0.5 0.2 -0.7
v -0.6 0.2 -0.7
v 0.6 0.1 -0.8
v 0.5 0.1 -0.8
v 0.6 0.2 -0.8
v 0.5 0.2 -0.8
v -0.5 0.2 -0.8
v -0.6 0.2 -0.8
v -0.5 0.3 -0.8
v -0.5 1 -0.8
v -0.6 1 -0.8
v 0.6 0.2 -0.9
v 0.5 0.2 -0.9
v 0.5 0.3 -0.9
v 0.6 1 -0.9
v 0.5 1 -0.9
v 0.5 0.3 -1
v -0.5 0.3 -1
v 0.5 1 -1
v -0.5 1 -1
v 0.7 0.1 0.5
v 0.7 1 0.5
v 0.7 0 0.4
v 0.7 0.1 0.4
v 0.7 0.2 0.4
v 0.7 0.3 0.4
v 0.7 0.4 0.4
v 0.7 0.5 0.4
v 0.7 0.6 0.4
v 0.7 0.7 0.4
v 0.7 0.8 0.4
v 0.7 0.9 0.4
v 0.7 0.2 0.3
v 0.7 0.3 0.3
v 0.7 0.4 0.3
v 0.7 0.5 0.3
v 0.7 0.6 0.3
v 0.7 0.7 0.3
v 0.7 0.8 0.3
v 0.7 0.9 0.3
v 0.7 0.1 0.2
v 0.7 0.2 0.2
v 0.7 0.3 0.2
v 0.7 0.4 0.2
v 0.7 0.7 0.2
v 0.7 0.8 0.2
v 0.7 0.2 0.1
v 0.7 0.3 0.1
v 0.7 0.2 -0.1
v 0.7 0.3 -0.1
v 0.7 0.1 -0.2
v 0.7 0.2 -0.2
v 0.7 0.3 -0.2
v 0.7 0.4 -0.2
v 0.7 0.7 -0.2
v 0.7 0.8 -0.2
v 0.7 0.2 -0.3
v 0.7 0.3 -0.3
v 0.7 0.4 -0.3
v 0.7 0.5 -0.3
v 0.7 0.6 -0.3
v 0.7 0.7 -0.3
v 0.7 0.8 -0.3
v 0.7 0.9 -0.3
v 0.7 0 -0.4
v 0.7 0.1 -0.4
v 0.7 0.2 -0.4
v 0.7 0.3 -0.4
v 0.7 0.4 -0.4
v 0.7 0.5 -0.4
v 0.7 0.6 -0.4
v 0.7 0.7 -0.4
v 0.7 0.8 -0.4
v 0.7 0.9 -0.4
v 0.7 0.1 -0.5
v 0.7 1 -0.5
v 0.6 0.2 0.9
v 0.6 1 0.9
v 0.6 0.1 0.8
v 0.6 0.2 0.8
v 0.6 0.3 0.8
v 0.6 0.4 0.8
v 0.6 0.7 0.8
v 0.6 0.8 0.8
v 0.6 0.4 0.7
v 0.6 0.5 0.7
v 0.6 0.8 0.7
v 0.6 0.9 0.7
v 0.6 0.3 0.6
v 0.6 0.5 0.6
v 0.6 0.7 0.6
v 0.6 0.9 0.6
v 0.6 0.1 0.5
v 0.6 1 0.5
v 0.6 0.1 -0.5
v 0.6 1 -0.5
v 0.6 0.3 -0.6
v 0.6 0.5 -0.6
v 0.6 0.7 -0.6
v 0.6 0.9 -0.6
v 0.6 0.4 -0.7
v 0.6 0.5 -0.7
v 0.6 0.8 -0.7
v 0.6 0.9 -0.7
v 0.6 0.1 -0.8
v 0.6 0.2 -0.8
v 0.6 0.3 -0.8
v 0.6 0.4 -0.8
v 0.6 0.7 -0.8
v 0.6 0.8 -0.8
v 0.6 0.2 -0.9
v 0.6 1 -0.9
v 0.5 0.3 1
v 0.5 1 1
v 0.5 0.3 0.9
v 0.5 1 0.9
v 0.5 0.3 -0.9
v 0.5 1 -0.9
v 0.5 0.3 -1
v 0.5 1 -1
v -0.4 0.3 0.9
v -0.4 0.4 0.9
v -0.4 0.3 -0.9
v -0.4 0.4 -0.9
v -0.5 0.2 0.8
v -0.5 0.3 0.8
v -0.5 0.1 0.7
v -0.5 0.2 0.7
v -0.5 0.3 0.7
v -0.5 0.2 0.6
v -0.5 0.3 0.6
v -0.5 0.2 0.5
v -0.5 0.3 0.5
v -0.5 0.2 0.4
v -0.5 0.3 0.4
v -0.5 0.2 0.3
v -0.5 0.3 0.3
v -0.5 0.2 -0.3
v -0.5 0.3 -0.3
v -0.5 0.2 -0.4
v -0.5 0.3 -0.4
v -0.5 0.2 -0.5
v -0.5 0.3 -0.5
v -0.5 0.2 -0.6
v -0.5 0.3 -0.6
v -0.5 0.1 -0.7
v -0.5 0.2 -0.7
v -0.5 0.3 -0.7
v -0.5 0.2 -0.8
v -0.5 0.3 -0.8
v 0.6 0 0.4
v 0.6 0.1 0.4
v 0.6 0 -0.4
v 0.6 0.1 -0.4
v 0.5 0.2 0.9
v 0.5 0.3 0.9
v 0.5 0.1 0.8
v 0.5 0.2 0.8
v 0.5 0.1 -0.8
v 0.5 0.2 -0.8
v 0.5 0.2 -0.9
v 0.5 0.3 -0.9
v 0.4 0.3 0.9
v 0.4 0.4 0.9
v 0.4 0.3 -0.9
v 0.4 0.4 -0.9
v -0.5 0.3 1
v -0.5 1 1
v -0.5 0.3 0.8
v -0.5 1 0.8
v -0.5 0.3 -0.8
v -0.5 1 -0.8
v -0.5 0.3 -1
v -0.5 1 -1
v -0.6 0.2 0.8
v -0.6 1 0.8
v -0.6 0.1 0.7
v -0.6 0.2 0.7
v -0.6 0.3 0.7
v -0.6 0.4 0.7
v -0.6 0.5 0.7
v -0.6 0.6 0.7
v -0.6 0.7 0.7
v -0.6 0.8 0.7
v -0.6 0.9 0.7
v -0.6 0.2 0.6
v -0.6 0.3 0.6
v -0.6 0.4 0.6
v -0.6 0.5 0.6
v -0.6 0.6 0.6
v -0.6 0.7 0.6
v -0.6 0.8 0.6
v -0.6 0.9 0.6
v -0.6 0.2 0.5
v -0.6 0.3 0.5
v -0.6 0.2 0.4
v -0.6 0.3 0.4
v -0.6 0.2 0.3
v -0.6 0.3 0.3
v -0.6 0.3 0.1
v -0.6 0.4 0.1
v -0.6 0.3 -0.1
v -0.6 0.4 -0.1
v -0.6 0.2 -0.3
v -0.6 0.3 -0.3
v -0.6 0.2 -0.4
v -0.6 0.3 -0.4
v -0.6 0.2 -0.5
v -0.6 0.3 -0.5
v -0.6 0.2 -0.6
v -0.6 0.3 -0.6
v -0.6 0.4 -0.6
v -0.6 0.5 -0.6
v -0.6 0.6 -0.6
v -0.6 0.7 -0.6
v -0.6 0.8 -0.6
v -0.6 0.9 -0.6
v -0.6 0.1 -0.7
v -0.6 0.2 -0.7
v -0.6 0.3 -0.7
v -0.6 0.4 -0.7
v -0.6 0.5 -0.7
v -0.6 0.6 -0.7
v -0.6 0.7 -0.7
v -0.6 0.8 -0.7
v -0.6 0.9 -0.7
v -0.6 0.2 -0.8
v -0.6 1 -0.8
v 0.7 0 0.4
v 0.7 0 -0.4
v 0.6 0 0.4
v 0.6 0 -0.4
v 0.7 0.1 0.5
v 0.7 0.1 0.4
v 0.7 0.1 -0.4
v 0.7 0.1 -0.5
v 0.6 0.1 0.8
v 0.6 0.1 0.5
v 0.6 0.1 0.4
v 0.6 0.1 -0.4
v 0.6 0.1 -0.5
v 0.6 0.1 -0.8
v 0.5 0.1 0.8
v 0.5 0.1 -0.8
v -0.5 0.1 0.7
v -0.5 0.1 -0.7
v -0.6 0.1 0.7
v -0.6 0.1 -0.7
v 0.6 0.2 0.9
v 0.6 0.2 0.8
v 0.6 0.2 -0.8
v 0.6 0.2 -0.9
v 0.5 0.2 0.9
v 0.5 0.2 0.8
v 0.5 0.2 -0.8
v 0.5 0.2 -0.9
v -0.5 0.2 0.8
v -0.5 0.2 0.7
v -0.5 0.2 -0.7
v -0.5 0.2 -0.8
v -0.6 0.2 0.8
v -0.6 0.2 0.7
v -0.6 0.2 -0.7
v -0.6 0.2 -0.8
v 0.5 0.3 1
v 0.5 0.3 0.9
v 0.5 0.3 -0.9
v 0.5 0.3 -1
v 0.4 0.3 0.9
v 0.4 0.3 -0.9
v -0.4 0.3 0.9
v -0.4 0.3 -0.9
v -0.5 0.3 1
v -0.5 0.3 0.8
v -0.5 0.3 0.7
v -0.5 0.3 0.6
v -0.5 0.3 0.5
v -0.5 0.3 0.4
v -0.5 0.3 0.3
v -0.5 0.3 -0.3
v -0.5 0.3 -0.4
v -0.5 0.3 -0.5
v -0.5 0.3 -0.6
v -0.5 0.3 -0.7
v -0.5 0.3 -0.8
v -0.5 0.3 -1
v 0.4 0.4 0.9
v 0.4 0.4 -0.9
v -0.4 0.4 0.9
v -0.4 0.4 -0.9
v 0.7 1 0.5
v 0.7 1 -0.5
v 0.6 1 0.9
v 0.6 1 0.5
v 0.6 1 -0.5
v 0.6 1 -0.9
v 0.5 1 1
v 0.5 1 0.9
v 0.5 1 -0.9
v 0.5 1 -1
v -0.5 1 1
v -0.5 1 0.8
v -0.5 1 -0.8
v -0.5 1 -1
v -0.6 1 0.8
v -0.6 1 -0.8

# faces
f 3/3/1 2/3/1 1/3/1
f 4/3/1 2/3/1 3/3/1
f 7/3/1 6/3/1 5/3/1
f 8/3/1 7/3/1 5/3/1
f 9/3/1 7/3/1 8/3/1
f 12/3/1 11/3/1 10/3/1
f 13/3/1 11/3/1 12/3/1
f 16/3/1 15/3/1 14/3/1
f 17/3/1 15/3/1 16/3/1
f 18/3/1 15/3/1 17/3/1
f 21/3/1 20/3/1 19/3/1
f 22/3/1 20/3/1 21/3/1
f 25/3/1 24/3/1 23/3/1
f 26/3/1 24/3/1 25/3/1
f 29/3/1 28/3/1 27/3/1
f 30/3/1 28/3/1 29/3/1
f 33/3/1 32/3/1 31/3/1
f 34/3/1 32/3/1 33/3/1
f 35/3/2 36/3/2 37/3/2
f 37/3/2 36/3/2 38/3/2
f 39/3/2 40/3/2 41/3/2
f 41/3/2 40/3/2 42/3/2
f 43/3/2 44/3/2 45/3/2
f 45/3/2 44/3/2 46/3/2
f 47/3/2 48/3/2 49/3/2
f 49/3/2 48/3/2 50/3/2
f 51/3/2 52/3/2 53/3/2
f 53/3/2 52/3/2 54/3/2
f 55/3/2 56/3/2 57/3/2
f 57/3/2 56/3/2 58/3/2
f 58/3/2 56/3/2 59/3/2
f 60/3/2 61/3/2 62/3/2
f 60/3/2 62/3/2 63/3/2
f 63/3/2 62/3/2 64/3/2
f 65/3/2 66/3/2 67/3/2
f 67/3/2 66/3/2 68/3/2
f 72/3/3 70/3/3 69/3/3
f 73/3/3 70/3/3 72/3/3
f 74/3/3 70/3/3 73/3/3
f 75/3/3 70/3/3 74/3/3
f 76/3/3 70/3/3 75/3/3
f 77/3/3 70/3/3 76/3/3
f 78/3/3 70/3/3 77/3/3
f 79/3/3 70/3/3 78/3/3
f 80/3/3 70/3/3 79/3/3
f 81/3/3 72/3/3 71/3/3
f 81/3/3 73/3/3 72/3/3
f 81/1/3 74/1/3 73/1/3
f 82/3/3 75/3/3 74/3/3
f 82/1/3 74/1/3 81/1/3
f 83/1/3 76/1/3 75/1/3
f 83/3/3 75/3/3 82/3/3
f 84/3/3 77/3/3 76/3/3
f 84/1/3 76/1/3 83/1/3
f 85/1/3 78/1/3 77/1/3
f 85/3/3 77/3/3 84/3/3
f 86/3/3 79/3/3 78/3/3
f 86/1/3 78/1/3 85/1/3
f 87/1/3 80/1/3 79/1/3
f 87/3/3 79/3/3 86/3/3
f 88/3/3 70/3/3 80/3/3
f 88/1/3 80/1/3 87/1/3
f 89/3/3 81/3/3 71/3/3
f 89/3/3 82/3/3 81/3/3
f 90/3/3 82/3/3 89/3/3
f 91/1/3 83/1/3 82/1/3
f 91/3/3 82/3/3 90/3/3
f 92/3/3 86/3/3 85/3/3
f 92/1/3 83/1/3 91/1/3
f 92/3/3 85/3/3 84/3/3
f 92/3/3 84/3/3 83/3/3
f 93/1/3 87/1/3 86/1/3
f 93/3/3 86/3/3 92/3/3
f 94/3/3 88/3/3 87/3/3
f 94/1/3 87/1/3 93/1/3
f 95/3/3 92/3/3 91/3/3
f 95/3/3 91/3/3 90/3/3
f 95/3/3 94/3/3 93/3/3
f 95/1/3 90/1/3 89/1/3
f 95/3/3 93/3/3 92/3/3
f 96/3/3 94/3/3 95/3/3
f 97/1/3 95/1/3 89/1/3
f 97/1/3 96/1/3 95/1/3
f 98/3/3 94/3/3 96/3/3
f 98/1/3 96/1/3 97/1/3
f 99/3/3 89/3/3 71/3/3
f 99/1/3 97/1/3 89/1/3
f 100/3/3 98/3/3 97/3/3
f 100/1/3 97/1/3 99/1/3
f 101/3/3 94/3/3 98/3/3
f 101/3/3 98/3/3 100/3/3
f 102/3/3 94/3/3 101/3/3
f 103/3/3 94/3/3 102/3/3
f 104/3/3 88/3/3 94/3/3
f 104/3/3 94/3/3 103/3/3
f 105/3/3 100/3/3 99/3/3
f 105/3/3 101/3/3 100/3/3
f 106/1/3 102/1/3 101/1/3
f 106/3/3 101/3/3 105/3/3
f 107/3/3 103/3/3 102/3/3
f 107/1/3 102/1/3 106/1/3
f 108/3/3 103/3/3 107/3/3
f 109/3/3 103/3/3 108/3/3
f 110/1/3 104/1/3 103/1/3
f 110/3/3 103/3/3 109/3/3
f 111/3/3 88/3/3 104/3/3
f 111/1/3 104/1/3 110/1/3
f 112/3/3 70/3/3 88/3/3
f 112/3/3 88/3/3 111/3/3
f 113/3/3 99/3/3 71/3/3
f 113/3/3 105/3/3 99/3/3
f 114/3/3 105/3/3 113/3/3
f 115/1/3 106/1/3 105/1/3
f 115/3/3 105/3/3 114/3/3
f 116/3/3 107/3/3 106/3/3
f 116/1/3 106/1/3 115/1/3
f 117/1/3 108/1/3 107/1/3
f 117/3/3 107/3/3 116/3/3
f 118/3/3 109/3/3 108/3/3
f 118/1/3 108/1/3 117/1/3
f 119/1/3 110/1/3 109/1/3
f 119/3/3 109/3/3 118/3/3
f 120/3/3 111/3/3 110/3/3
f 120/1/3 110/1/3 119/1/3
f 121/1/3 112/1/3 111/1/3
f 121/3/3 111/3/3 120/3/3
f 122/3/3 70/3/3 112/3/3
f 122/1/3 112/1/3 121/1/3
f 123/3/3 119/3/3 118/3/3
f 123/3/3 122/3/3 121/3/3
f 123/3/3 118/3/3 117/3/3
f 123/3/3 116/3/3 115/3/3
f 123/3/3 115/3/3 114/3/3
f 123/3/3 120/3/3 119/3/3
f 123/3/3 117/3/3 116/3/3
f 123/3/3 121/3/3 120/3/3
f 124/3/3 70/3/3 122/3/3
f 124/3/3 122/3/3 123/3/3
f 128/3/3 126/3/3 125/3/3
f 129/3/3 126/3/3 128/3/3
f 130/3/3 126/3/3 129/3/3
f 131/3/3 126/3/3 130/3/3
f 132/3/3 126/3/3 131/3/3
f 133/2/3 130/2/3 129/2/3
f 133/3/3 131/3/3 130/3/3
f 134/3/3 131/3/3 133/3/3
f 135/3/3 126/3/3 132/3/3
f 135/2/3 132/2/3 131/2/3
f 136/3/3 126/3/3 135/3/3
f 137/3/3 128/3/3 127/3/3
f 137/3/3 129/3/3 128/3/3
f 137/2/3 134/2/3 133/2/3
f 137/2/3 133/2/3 129/2/3
f 138/3/3 131/3/3 134/3/3
f 138/2/3 134/2/3 137/2/3
f 139/2/3 136/2/3 135/2/3
f 139/3/3 131/3/3 138/3/3
f 139/2/3 135/2/3 131/2/3
f 140/3/3 126/3/3 136/3/3
f 140/2/3 136/2/3 139/2/3
f 141/3/3 139/3/3 138/3/3
f 141/3/3 138/3/3 137/3/3
f 141/3/3 140/3/3 139/3/3
f 141/3/3 137/3/3 127/3/3
f 142/3/3 126/3/3 140/3/3
f 142/3/3 140/3/3 141/3/3
f 145/3/3 144/3/3 143/3/3
f 146/3/3 144/3/3 145/3/3
f 147/3/3 144/3/3 146/3/3
f 148/3/3 144/3/3 147/3/3
f 149/2/3 146/2/3 145/2/3
f 150/3/3 147/3/3 146/3/3
f 150/2/3 146/2/3 149/2/3
f 151/2/3 148/2/3 147/2/3
f 152/3/3 144/3/3 148/3/3
f 152/2/3 148/2/3 151/2/3
f 153/3/3 145/3/3 143/3/3
f 154/3/3 145/3/3 153/3/3
f 155/2/3 149/2/3 145/2/3
f 155/3/3 145/3/3 154/3/3
f 156/3/3 150/3/3 149/3/3
f 156/2/3 149/2/3 155/2/3
f 157/2/3 151/2/3 147/2/3
f 157/3/3 150/3/3 156/3/3
f 157/3/3 147/3/3 150/3/3
f 158/3/3 152/3/3 151/3/3
f 158/2/3 151/2/3 157/2/3
f 159/3/3 156/3/3 155/3/3
f 159/3/3 158/3/3 157/3/3
f 159/3/3 157/3/3 156/3/3
f 159/3/3 155/3/3 154/3/3
f 160/3/3 144/3/3 152/3/3
f 160/3/3 158/3/3 159/3/3
f 160/3/3 152/3/3 158/3/3
f 163/3/3 162/3/3 161/3/3
f 164/3/3 162/3/3 163/3/3
f 167/3/3 166/3/3 165/3/3
f 168/3/3 166/3/3 167/3/3
f 171/3/3 170/3/3 169/3/3
f 172/3/3 170/3/3 171/3/3
f 176/3/3 174/3/3 173/3/3
f 177/3/3 174/3/3 176/3/3
f 178/3/3 176/3/3 175/3/3
f 178/1/3 177/1/3 176/1/3
f 179/1/3 177/1/3 178/1/3
f 180/3/3 178/3/3 175/3/3
f 180/3/3 179/3/3 178/3/3
f 181/3/3 179/3/3 180/3/3
f 182/3/3 180/3/3 175/3/3
f 182/1/3 181/1/3 180/1/3
f 183/1/3 181/1/3 182/1/3
f 184/3/3 182/3/3 175/3/3
f 184/3/3 183/3/3 182/3/3
f 185/3/3 183/3/3 184/3/3
f 186/3/3 184/3/3 175/3/3
f 186/1/3 185/1/3 184/1/3
f 187/1/3 185/1/3 186/1/3
f 188/3/3 186/3/3 175/3/3
f 188/3/3 187/3/3 186/3/3
f 189/3/3 187/3/3 188/3/3
f 190/3/3 188/3/3 175/3/3
f 190/1/3 189/1/3 188/1/3
f 191/1/3 189/1/3 190/1/3
f 192/3/3 190/3/3 175/3/3
f 192/3/3 191/3/3 190/3/3
f 193/3/3 191/3/3 192/3/3
f 194/3/3 192/3/3 175/3/3
f 195/1/3 193/1/3 192/1/3
f 195/3/3 192/3/3 194/3/3
f 196/1/3 193/1/3 195/1/3
f 197/3/3 196/3/3 195/3/3
f 198/3/3 196/3/3 197/3/3
f 199/3/4 200/3/4 201/3/4
f 201/3/4 200/3/4 202/3/4
f 203/3/4 204/3/4 206/3/4
f 205/3/4 206/3/4 207/3/4
f 206/3/4 204/3/4 208/3/4
f 207/3/4 206/3/4 208/3/4
f 208/3/4 204/3/4 209/3/4
f 209/3/4 204/3/4 210/3/4
f 211/3/4 212/3/4 213/3/4
f 213/3/4 212/3/4 214/3/4
f 215/3/4 216/3/4 217/3/4
f 217/3/4 216/3/4 218/3/4
f 219/3/4 220/3/4 221/3/4
f 221/3/4 220/3/4 222/3/4
f 223/3/4 224/3/4 226/3/4
f 226/3/4 224/3/4 227/3/4
f 227/3/4 224/3/4 228/3/4
f 228/3/4 224/3/4 229/3/4
f 229/3/4 224/3/4 230/3/4
f 230/3/4 224/3/4 231/3/4
f 231/3/4 224/3/4 232/3/4
f 232/3/4 224/3/4 233/3/4
f 225/3/4 226/3/4 234/3/4
f 226/1/4 227/1/4 234/1/4
f 227/3/4 228/3/4 235/3/4
f 234/1/4 227/1/4 235/1/4
f 228/1/4 229/1/4 236/1/4
f 235/3/4 228/3/4 236/3/4
f 229/3/4 230/3/4 237/3/4
f 236/1/4 229/1/4 237/1/4
f 230/1/4 231/1/4 238/1/4
f 237/3/4 230/3/4 238/3/4
f 231/3/4 232/3/4 239/3/4
f 238/1/4 231/1/4 239/1/4
f 232/1/4 233/1/4 240/1/4
f 239/3/4 232/3/4 240/3/4
f 233/3/4 224/3/4 241/3/4
f 240/1/4 233/1/4 241/1/4
f 239/3/4 240/3/4 242/3/4
f 238/3/4 239/3/4 242/3/4
f 240/3/4 241/3/4 242/3/4
f 237/3/4 238/3/4 242/3/4
f 236/3/4 237/3/4 242/3/4
f 235/3/4 236/3/4 242/3/4
f 234/3/4 235/3/4 242/3/4
f 225/3/4 234/3/4 242/3/4
f 242/3/4 241/3/4 243/3/4
f 225/3/4 242/3/4 244/3/4
f 242/1/4 243/1/4 244/1/4
f 243/3/4 241/3/4 245/3/4
f 244/1/4 243/1/4 245/1/4
f 225/3/4 244/3/4 246/3/4
f 244/3/4 245/3/4 246/3/4
f 245/3/4 241/3/4 247/3/4
f 246/3/4 245/3/4 247/3/4
f 246/1/4 247/1/4 248/1/4
f 247/3/4 241/3/4 248/3/4
f 248/3/4 241/3/4 249/3/4
f 246/1/4 248/1/4 250/1/4
f 248/1/4 249/1/4 250/1/4
f 249/3/4 241/3/4 251/3/4
f 250/1/4 249/1/4 251/1/4
f 225/3/4 246/3/4 252/3/4
f 246/1/4 250/1/4 252/1/4
f 250/3/4 251/3/4 253/3/4
f 252/1/4 250/1/4 253/1/4
f 225/3/4 252/3/4 254/3/4
f 252/3/4 253/3/4 254/3/4
f 253/3/4 251/3/4 255/3/4
f 254/3/4 253/3/4 255/3/4
f 225/3/4 254/3/4 256/3/4
f 254/1/4 255/1/4 256/1/4
f 255/3/4 251/3/4 257/3/4
f 256/1/4 255/1/4 257/1/4
f 225/3/4 256/3/4 258/3/4
f 256/3/4 257/3/4 258/3/4
f 257/3/4 251/3/4 259/3/4
f 258/3/4 257/3/4 259/3/4
f 251/3/4 241/3/4 260/3/4
f 259/3/4 251/3/4 260/3/4
f 260/3/4 241/3/4 261/3/4
f 261/3/4 241/3/4 262/3/4
f 262/3/4 241/3/4 263/3/4
f 263/3/4 241/3/4 264/3/4
f 241/3/4 224/3/4 265/3/4
f 264/3/4 241/3/4 265/3/4
f 225/3/4 258/3/4 266/3/4
f 258/1/4 259/1/4 267/1/4
f 266/3/4 258/3/4 267/3/4
f 259/3/4 260/3/4 268/3/4
f 267/1/4 259/1/4 268/1/4
f 260/1/4 261/1/4 269/1/4
f 268/3/4 260/3/4 269/3/4
f 261/3/4 262/3/4 270/3/4
f 269/1/4 261/1/4 270/1/4
f 262/1/4 263/1/4 271/1/4
f 270/3/4 262/3/4 271/3/4
f 263/3/4 264/3/4 272/3/4
f 271/1/4 263/1/4 272/1/4
f 264/1/4 265/1/4 273/1/4
f 272/3/4 264/3/4 273/3/4
f 265/3/4 224/3/4 274/3/4
f 273/1/4 265/1/4 274/1/4
f 270/3/4 271/3/4 275/3/4
f 272/3/4 273/3/4 275/3/4
f 273/3/4 274/3/4 275/3/4
f 271/3/4 272/3/4 275/3/4
f 269/3/4 270/3/4 275/3/4
f 268/3/4 269/3/4 275/3/4
f 267/3/4 268/3/4 275/3/4
f 274/3/4 224/3/4 276/3/4
f 275/3/4 274/3/4 276/3/4
f 279/3/5 278/3/5 277/3/5
f 280/3/5 278/3/5 279/3/5
f 286/3/5 282/3/5 281/3/5
f 287/3/5 282/3/5 286/3/5
f 288/3/5 284/3/5 283/3/5
f 289/3/5 284/3/5 288/3/5
f 291/3/5 287/3/5 286/3/5
f 291/3/5 290/3/5 289/3/5
f 291/3/5 289/3/5 288/3/5
f 291/3/5 288/3/5 287/3/5
f 291/3/5 286/3/5 285/3/5
f 292/3/5 290/3/5 291/3/5
f 295/3/5 294/3/5 293/3/5
f 296/3/5 294/3/5 295/3/5
f 301/3/5 298/3/5 297/3/5
f 302/3/5 298/3/5 301/3/5
f 303/3/5 300/3/5 299/3/5
f 304/3/5 300/3/5 303/3/5
f 309/3/5 306/3/5 305/3/5
f 310/3/5 306/3/5 309/3/5
f 311/3/5 308/3/5 307/3/5
f 312/3/5 308/3/5 311/3/5
f 317/3/5 314/3/5 313/3/5
f 317/3/5 316/3/5 315/3/5
f 317/3/5 315/3/5 314/3/5
f 318/3/5 316/3/5 317/3/5
f 319/3/5 317/3/5 313/3/5
f 320/3/5 316/3/5 318/3/5
f 321/3/5 319/3/5 313/3/5
f 321/3/5 320/3/5 319/3/5
f 322/3/5 320/3/5 321/3/5
f 323/3/5 320/3/5 322/3/5
f 324/3/5 320/3/5 323/3/5
f 325/3/5 320/3/5 324/3/5
f 326/3/5 320/3/5 325/3/5
f 327/3/5 320/3/5 326/3/5
f 328/3/5 320/3/5 327/3/5
f 329/3/5 320/3/5 328/3/5
f 330/3/5 320/3/5 329/3/5
f 331/3/5 320/3/5 330/3/5
f 332/3/5 320/3/5 331/3/5
f 333/3/5 320/3/5 332/3/5
f 334/3/5 316/3/5 320/3/5
f 334/3/5 320/3/5 333/3/5
f 337/3/5 336/3/5 335/3/5
f 338/3/5 336/3/5 337/3/5
f 339/3/6 340/3/6 342/3/6
f 342/3/6 340/3/6 343/3/6
f 341/3/6 342/3/6 346/3/6
f 343/3/6 344/3/6 346/3/6
f 342/3/6 343/3/6 346/3/6
f 346/3/6 344/3/6 347/3/6
f 345/3/6 346/3/6 349/3/6
f 347/3/6 348/3/6 349/3/6
f 346/3/6 347/3/6 349/3/6
f 349/3/6 348/3/6 350/3/6
f 350/3/6 348/3/6 351/3/6
f 351/3/6 348/3/6 352/3/6
f 350/3/6 351/3/6 353/3/6
f 353/3/6 351/3/6 354/3/6
