# MagicaVoxel @ Ephtracy

# group
o 

# material
mtllib model-0.mtl
usemtl palette

# normals
vn 0 0 1
vn 0 0 -1
vn 1 0 0
vn -1 0 0
vn 0 -1 0
vn 0 1 0

# texcoords
vt 0.0214844 0.5
vt 0.0996094 0.5
vt 0.255859 0.5
vt 0.259766 0.5
vt 0.478516 0.5
vt 0.572266 0.5
vt 0.830078 0.5
vt 0.833984 0.5
vt 0.837891 0.5

# verts
v 0.5 0 1
v -0.5 0 1
v 0.5 0.1 1
v -0.5 0.1 1
v 0.5 0.7 1
v -0.5 0.7 1
v 0.5 0 0.2
v 0.4 0 0.2
v 0.5 0.1 0.2
v 0.4 0.1 0.2
v 0.4 0.3 0.2
v 0.5 0.4 0.2
v 0.4 0.4 0.2
v 0.5 0.1 -0.1
v 0.4 0.1 -0.1
v 0.5 0.2 -0.1
v 0.4 0.2 -0.1
v 0.5 0.3 -0.1
v 0.4 0.3 -0.1
v 0.5 0 -0.3
v 0.4 0 -0.3
v 0.5 0.1 -0.3
v 0.4 0.1 -0.3
v 0.4 0.3 -0.3
v 0.4 0.5 -0.3
v 0.5 0.7 -0.3
v 0.4 0.7 -0.3
v 0.4 0 -0.9
v -0.4 0 -0.9
v 0.4 0.1 -0.9
v -0.4 0.1 -0.9
v 0.4 0 0.9
v -0.4 0 0.9
v 0.4 0.1 0.9
v -0.4 0.1 0.9
v 0.5 0 0.3
v 0.4 0 0.3
v 0.5 0.1 0.3
v 0.4 0.1 0.3
v 0.4 0.3 0.3
v 0.4 0.5 0.3
v 0.5 0.7 0.3
v 0.4 0.7 0.3
v 0.5 0.1 0.1
v 0.4 0.1 0.1
v 0.5 0.3 0.1
v 0.4 0.3 0.1
v 0.5 0 -0.2
v 0.4 0 -0.2
v 0.4 0.1 -0.2
v 0.5 0.2 -0.2
v 0.4 0.2 -0.2
v 0.4 0.3 -0.2
v 0.5 0.4 -0.2
v 0.4 0.4 -0.2
v 0.5 0 -1
v -0.5 0 -1
v 0.5 0.1 -1
v -0.5 0.1 -1
v 0.4 0.3 -1
v 0.3 0.3 -1
v 0.5 0.4 -1
v 0.4 0.4 -1
v 0.3 0.4 -1
v 0.2 0.4 -1
v 0.3 0.5 -1
v 0.2 0.5 -1
v 0.3 0.6 -1
v 0.2 0.6 -1
v 0.5 0.7 -1
v 0.2 0.7 -1
v -0.5 0.7 -1
v 0.5 0 1
v 0.5 0.1 1
v 0.5 0.7 1
v 0.5 0.6 0.9
v 0.5 0.7 0.9
v 0.5 0.6 0.8
v 0.5 0.7 0.8
v 0.5 0.6 0.6
v 0.5 0.7 0.6
v 0.5 0.6 0.5
v 0.5 0.7 0.5
v 0.5 0 0.3
v 0.5 0.1 0.3
v 0.5 0.7 0.3
v 0.5 0 0.2
v 0.5 0.1 0.2
v 0.5 0.4 0.2
v 0.5 0.1 0.1
v 0.5 0.3 0.1
v 0.5 0 0
v 0.5 0.1 0
v 0.5 0.3 0
v 0.5 0.4 0
v 0.5 0.1 -0.1
v 0.5 0.2 -0.1
v 0.5 0.3 -0.1
v 0.5 0 -0.2
v 0.5 0.2 -0.2
v 0.5 0.4 -0.2
v 0.5 0 -0.3
v 0.5 0.1 -0.3
v 0.5 0.7 -0.3
v 0.5 0.4 -0.5
v 0.5 0.5 -0.5
v 0.5 0.6 -0.5
v 0.5 0.7 -0.5
v 0.5 0.3 -0.6
v 0.5 0.4 -0.6
v 0.5 0.5 -0.6
v 0.5 0.6 -0.6
v 0.5 0.3 -0.7
v 0.5 0.4 -0.7
v 0.5 0.3 -0.8
v 0.5 0.4 -0.8
v 0.5 0.3 -0.9
v 0.5 0.4 -0.9
v 0.5 0 -1
v 0.5 0.1 -1
v 0.5 0.4 -1
v 0.5 0.7 -1
v 0.4 0.1 0.3
v 0.4 0.3 0.3
v 0.4 0.5 0.3
v 0.4 0.7 0.3
v 0.4 0.1 0.2
v 0.4 0.3 0.2
v 0.4 0.4 0.2
v 0.4 0.1 0.1
v 0.4 0.3 0.1
v 0.4 0.1 0
v 0.4 0.3 0
v 0.4 0.4 0
v 0.4 0.1 -0.1
v 0.4 0.2 -0.1
v 0.4 0.3 -0.1
v 0.4 0.1 -0.2
v 0.4 0.2 -0.2
v 0.4 0.3 -0.2
v 0.4 0.4 -0.2
v 0.4 0.1 -0.3
v 0.4 0.3 -0.3
v 0.4 0.5 -0.3
v 0.4 0.7 -0.3
v -0.4 0 0.9
v -0.4 0.1 0.9
v -0.4 0 -0.9
v -0.4 0.1 -0.9
v 0.4 0 0.9
v 0.4 0.1 0.9
v 0.4 0 0.3
v 0.4 0.1 0.3
v 0.4 0 0.2
v 0.4 0.1 0.2
v 0.4 0 0
v 0.4 0.1 0
v 0.4 0 -0.2
v 0.4 0.1 -0.2
v 0.4 0 -0.3
v 0.4 0.1 -0.3
v 0.4 0 -0.9
v 0.4 0.1 -0.9
v -0.5 0 1
v -0.5 0.1 1
v -0.5 0.7 1
v -0.5 0 -1
v -0.5 0.1 -1
v -0.5 0.7 -1
v 0.5 0 1
v 0.5 0 0.3
v 0.5 0 0.2
v 0.5 0 0
v 0.5 0 -0.2
v 0.5 0 -0.3
v 0.5 0 -1
v 0.4 0 0.9
v 0.4 0 0.3
v 0.4 0 0.2
v 0.4 0 0
v 0.4 0 -0.2
v 0.4 0 -0.3
v 0.4 0 -0.9
v -0.4 0 0.9
v -0.4 0 -0.9
v -0.5 0 1
v -0.5 0 -1
v 0.4 0.1 0.9
v 0.4 0.1 0.3
v 0.4 0.1 0.2
v 0.4 0.1 0
v 0.4 0.1 -0.2
v 0.4 0.1 -0.3
v 0.4 0.1 -0.9
v -0.4 0.1 0.9
v -0.4 0.1 -0.9
v 0.5 0.3 0.1
v 0.5 0.3 0
v 0.5 0.3 -0.1
v 0.4 0.3 0.1
v 0.4 0.3 0
v 0.4 0.3 -0.1
v 0.5 0.1 0.1
v 0.5 0.1 0
v 0.5 0.1 -0.1
v 0.4 0.1 0.1
v 0.4 0.1 0
v 0.4 0.1 -0.1
v 0.5 0.4 0.2
v 0.5 0.4 0
v 0.5 0.4 -0.2
v 0.4 0.4 0.2
v 0.4 0.4 0
v 0.4 0.4 -0.2
v 0.5 0.7 1
v 0.5 0.7 0.9
v 0.5 0.7 0.8
v 0.5 0.7 0.6
v 0.5 0.7 0.5
v 0.5 0.7 0.3
v 0.5 0.7 -0.3
v 0.5 0.7 -0.5
v 0.5 0.7 -1
v 0.4 0.7 0.9
v 0.4 0.7 0.8
v 0.4 0.7 0.6
v 0.4 0.7 0.5
v 0.4 0.7 0.3
v 0.4 0.7 -0.3
v 0.4 0.7 -0.5
v 0.4 0.7 -0.6
v 0.3 0.7 0.3
v 0.3 0.7 -0.3
v 0.2 0.7 -0.6
v 0.2 0.7 -1
v -0.5 0.7 1
v -0.5 0.7 -1

# faces
f 3/5/1 2/5/1 1/5/1
f 4/5/1 2/5/1 3/5/1
f 5/4/1 4/4/1 3/4/1
f 6/4/1 4/4/1 5/4/1
f 9/7/1 8/7/1 7/7/1
f 10/7/1 8/7/1 9/7/1
f 11/8/1 10/8/1 9/8/1
f 12/8/1 11/8/1 9/8/1
f 13/8/1 11/8/1 12/8/1
f 16/8/1 15/8/1 14/8/1
f 17/8/1 15/8/1 16/8/1
f 18/9/1 17/9/1 16/9/1
f 19/9/1 17/9/1 18/9/1
f 22/5/1 21/5/1 20/5/1
f 23/5/1 21/5/1 22/5/1
f 24/4/1 23/4/1 22/4/1
f 25/4/1 24/4/1 22/4/1
f 26/4/1 25/4/1 22/4/1
f 27/4/1 25/4/1 26/4/1
f 30/5/1 29/5/1 28/5/1
f 31/5/1 29/5/1 30/5/1
f 32/5/2 33/5/2 34/5/2
f 34/5/2 33/5/2 35/5/2
f 36/5/2 37/5/2 38/5/2
f 38/5/2 37/5/2 39/5/2
f 38/4/2 39/4/2 40/4/2
f 38/4/2 40/4/2 41/4/2
f 38/4/2 41/4/2 42/4/2
f 42/4/2 41/4/2 43/4/2
f 44/8/2 45/8/2 46/8/2
f 46/8/2 45/8/2 47/8/2
f 48/8/2 49/8/2 50/8/2
f 48/8/2 50/8/2 51/8/2
f 51/8/2 50/8/2 52/8/2
f 51/9/2 52/9/2 53/9/2
f 51/9/2 53/9/2 54/9/2
f 54/9/2 53/9/2 55/9/2
f 56/5/2 57/5/2 58/5/2
f 58/5/2 57/5/2 59/5/2
f 58/4/2 59/4/2 60/4/2
f 60/4/2 59/4/2 61/4/2
f 58/4/2 60/4/2 62/4/2
f 60/3/2 61/3/2 63/3/2
f 62/4/2 60/4/2 63/4/2
f 61/4/2 59/4/2 64/4/2
f 63/3/2 61/3/2 64/3/2
f 64/4/2 59/4/2 65/4/2
f 62/3/2 63/3/2 66/3/2
f 63/3/2 64/3/2 66/3/2
f 64/3/2 65/3/2 66/3/2
f 65/4/2 59/4/2 67/4/2
f 66/3/2 65/3/2 67/3/2
f 62/3/2 66/3/2 68/3/2
f 66/4/2 67/4/2 68/4/2
f 67/4/2 59/4/2 69/4/2
f 68/4/2 67/4/2 69/4/2
f 62/3/2 68/3/2 70/3/2
f 68/3/2 69/3/2 70/3/2
f 69/4/2 59/4/2 71/4/2
f 70/3/2 69/3/2 71/3/2
f 71/4/2 59/4/2 72/4/2
f 76/4/3 75/4/3 74/4/3
f 77/4/3 75/4/3 76/4/3
f 78/4/3 76/4/3 74/4/3
f 78/3/3 77/3/3 76/3/3
f 79/3/3 77/3/3 78/3/3
f 80/4/3 78/4/3 74/4/3
f 80/4/3 79/4/3 78/4/3
f 81/4/3 79/4/3 80/4/3
f 82/4/3 80/4/3 74/4/3
f 82/3/3 81/3/3 80/3/3
f 83/3/3 81/3/3 82/3/3
f 84/5/3 74/5/3 73/5/3
f 85/4/3 82/4/3 74/4/3
f 85/5/3 74/5/3 84/5/3
f 85/4/3 83/4/3 82/4/3
f 86/4/3 83/4/3 85/4/3
f 90/7/3 88/7/3 87/7/3
f 90/8/3 89/8/3 88/8/3
f 91/8/3 89/8/3 90/8/3
f 92/7/3 90/7/3 87/7/3
f 93/7/3 90/7/3 92/7/3
f 94/8/3 89/8/3 91/8/3
f 95/8/3 89/8/3 94/8/3
f 96/8/3 93/8/3 92/8/3
f 98/9/3 95/9/3 94/9/3
f 99/8/3 97/8/3 96/8/3
f 99/8/3 96/8/3 92/8/3
f 100/9/3 98/9/3 97/9/3
f 100/8/3 97/8/3 99/8/3
f 101/9/3 95/9/3 98/9/3
f 101/9/3 98/9/3 100/9/3
f 105/4/3 104/4/3 103/4/3
f 106/4/3 104/4/3 105/4/3
f 107/4/3 104/4/3 106/4/3
f 108/4/3 104/4/3 107/4/3
f 109/4/3 105/4/3 103/4/3
f 110/3/3 106/3/3 105/3/3
f 110/4/3 105/4/3 109/4/3
f 111/4/3 107/4/3 106/4/3
f 111/3/3 106/3/3 110/3/3
f 112/3/3 108/3/3 107/3/3
f 112/4/3 107/4/3 111/4/3
f 113/4/3 109/4/3 103/4/3
f 113/3/3 110/3/3 109/3/3
f 113/3/3 112/3/3 111/3/3
f 113/3/3 111/3/3 110/3/3
f 114/3/3 112/3/3 113/3/3
f 115/4/3 113/4/3 103/4/3
f 115/4/3 114/4/3 113/4/3
f 116/3/3 112/3/3 114/3/3
f 116/4/3 114/4/3 115/4/3
f 117/4/3 115/4/3 103/4/3
f 117/3/3 116/3/3 115/3/3
f 118/3/3 112/3/3 116/3/3
f 118/3/3 116/3/3 117/3/3
f 119/5/3 103/5/3 102/5/3
f 120/4/3 117/4/3 103/4/3
f 120/5/3 103/5/3 119/5/3
f 120/4/3 118/4/3 117/4/3
f 121/3/3 112/3/3 118/3/3
f 121/4/3 118/4/3 120/4/3
f 122/3/3 108/3/3 112/3/3
f 122/3/3 112/3/3 121/3/3
f 127/2/3 124/2/3 123/2/3
f 128/6/3 125/6/3 124/6/3
f 128/2/3 124/2/3 127/2/3
f 129/6/3 125/6/3 128/6/3
f 132/2/3 131/2/3 130/2/3
f 133/2/3 131/2/3 132/2/3
f 134/6/3 125/6/3 129/6/3
f 135/2/3 133/2/3 132/2/3
f 136/2/3 133/2/3 135/2/3
f 137/2/3 133/2/3 136/2/3
f 141/6/3 125/6/3 134/6/3
f 142/2/3 140/2/3 139/2/3
f 142/2/3 139/2/3 138/2/3
f 143/6/3 141/6/3 140/6/3
f 143/2/3 140/2/3 142/2/3
f 144/1/3 126/1/3 125/1/3
f 144/6/3 141/6/3 143/6/3
f 144/6/3 125/6/3 141/6/3
f 145/1/3 126/1/3 144/1/3
f 148/5/3 147/5/3 146/5/3
f 149/5/3 147/5/3 148/5/3
f 150/5/4 151/5/4 152/5/4
f 152/5/4 151/5/4 153/5/4
f 154/7/4 155/7/4 156/7/4
f 156/7/4 155/7/4 157/7/4
f 156/8/4 157/8/4 158/8/4
f 158/8/4 157/8/4 159/8/4
f 160/5/4 161/5/4 162/5/4
f 162/5/4 161/5/4 163/5/4
f 164/5/4 165/5/4 167/5/4
f 165/4/4 166/4/4 168/4/4
f 167/5/4 165/5/4 168/5/4
f 168/4/4 166/4/4 169/4/4
f 177/5/5 171/5/5 170/5/5
f 178/5/5 171/5/5 177/5/5
f 179/7/5 173/7/5 172/7/5
f 180/8/5 174/8/5 173/8/5
f 180/7/5 173/7/5 179/7/5
f 181/8/5 174/8/5 180/8/5
f 182/5/5 176/5/5 175/5/5
f 183/5/5 176/5/5 182/5/5
f 184/5/5 177/5/5 170/5/5
f 185/5/5 176/5/5 183/5/5
f 186/5/5 184/5/5 170/5/5
f 186/5/5 185/5/5 184/5/5
f 187/5/5 176/5/5 185/5/5
f 187/5/5 185/5/5 186/5/5
f 195/2/5 189/2/5 188/2/5
f 195/2/5 194/2/5 193/2/5
f 195/2/5 193/2/5 192/2/5
f 195/2/5 192/2/5 191/2/5
f 195/2/5 191/2/5 190/2/5
f 195/2/5 190/2/5 189/2/5
f 196/2/5 194/2/5 195/2/5
f 200/8/5 198/8/5 197/8/5
f 201/9/5 199/9/5 198/9/5
f 201/8/5 198/8/5 200/8/5
f 202/9/5 199/9/5 201/9/5
f 203/7/6 204/7/6 206/7/6
f 204/8/6 205/8/6 207/8/6
f 206/7/6 204/7/6 207/7/6
f 207/8/6 205/8/6 208/8/6
f 209/8/6 210/8/6 212/8/6
f 210/9/6 211/9/6 213/9/6
f 212/8/6 210/8/6 213/8/6
f 213/9/6 211/9/6 214/9/6
f 215/4/6 216/4/6 224/4/6
f 216/3/6 217/3/6 224/3/6
f 217/4/6 218/4/6 225/4/6
f 224/3/6 217/3/6 225/3/6
f 218/3/6 219/3/6 226/3/6
f 225/4/6 218/4/6 226/4/6
f 219/4/6 220/4/6 227/4/6
f 226/3/6 219/3/6 227/3/6
f 227/4/6 220/4/6 228/4/6
f 221/4/6 222/4/6 229/4/6
f 222/3/6 223/3/6 230/3/6
f 229/4/6 222/4/6 230/4/6
f 230/3/6 223/3/6 231/3/6
f 228/1/6 229/1/6 232/1/6
f 227/4/6 228/4/6 232/4/6
f 224/4/6 225/4/6 232/4/6
f 225/4/6 226/4/6 232/4/6
f 226/4/6 227/4/6 232/4/6
f 230/4/6 231/4/6 233/4/6
f 232/1/6 229/1/6 233/1/6
f 229/4/6 230/4/6 233/4/6
f 231/3/6 223/3/6 234/3/6
f 233/4/6 231/4/6 234/4/6
f 232/4/6 233/4/6 234/4/6
f 234/3/6 223/3/6 235/3/6
f 224/4/6 232/4/6 236/4/6
f 215/4/6 224/4/6 236/4/6
f 234/4/6 235/4/6 236/4/6
f 232/4/6 234/4/6 236/4/6
f 236/4/6 235/4/6 237/4/6
