# MagicaVoxel @ Ephtracy

# group
o 

# material
mtllib model.mtl
usemtl palette

# normals
vn 0 0 1
vn 0 0 -1
vn 1 0 0
vn -1 0 0
vn 0 -1 0
vn 0 1 0

# texcoords
vt 0.0292969 0.5
vt 0.357422 0.5
vt 0.361328 0.5
vt 0.568359 0.5
vt 0.576172 0.5

# verts
v 1.5 0 2
v 0.9 0 2
v 0.7 0 2
v 0.1 0 2
v -0.0999999 0 2
v -0.7 0 2
v -0.9 0 2
v -1.5 0 2
v 1.5 0.1 2
v 0.9 0.1 2
v 0.7 0.1 2
v 0.1 0.1 2
v -0.0999999 0.1 2
v -0.7 0.1 2
v -0.9 0.1 2
v -1.5 0.1 2
v 0.9 0 1.9
v 0.7 0 1.9
v 0.1 0 1.9
v -0.0999999 0 1.9
v -0.7 0 1.9
v -0.9 0 1.9
v 0.9 0.1 1.9
v 0.7 0.1 1.9
v 0.1 0.1 1.9
v -0.0999999 0.1 1.9
v -0.7 0.1 1.9
v -0.9 0.1 1.9
v 1.4 0 1.7
v 1 0 1.7
v 0.9 0 1.7
v 0.7 0 1.7
v 0.6 0 1.7
v 0.2 0 1.7
v 0.1 0 1.7
v -0.0999999 0 1.7
v -0.2 0 1.7
v -0.6 0 1.7
v -0.7 0 1.7
v -0.9 0 1.7
v -1 0 1.7
v -1.4 0 1.7
v 1.4 0.1 1.7
v 1 0.1 1.7
v 0.9 0.1 1.7
v 0.7 0.1 1.7
v 0.6 0.1 1.7
v 0.2 0.1 1.7
v 0.1 0.1 1.7
v -0.0999999 0.1 1.7
v -0.2 0.1 1.7
v -0.6 0.1 1.7
v -0.7 0.1 1.7
v -0.9 0.1 1.7
v -1 0.1 1.7
v -1.4 0.1 1.7
v 1.8 0 1.6
v 1.5 0 1.6
v -1.5 0 1.6
v -1.8 0 1.6
v 1.8 0.1 1.6
v 1.5 0.1 1.6
v 1.2 0.1 1.6
v -1.2 0.1 1.6
v -1.5 0.1 1.6
v -1.8 0.1 1.6
v 1.2 0.2 1.6
v -1.2 0.2 1.6
v 1.4 0.1 1.4
v 1.2 0.1 1.4
v -1.2 0.1 1.4
v -1.4 0.1 1.4
v 1.4 0.2 1.4
v 1.2 0.2 1.4
v -1.2 0.2 1.4
v -1.4 0.2 1.4
v 1 0.4 1.4
v -1 0.4 1.4
v 1 1.3 1.4
v -1 1.3 1.4
v 0.9 0.2 1.3
v -0.9 0.2 1.3
v 0.9 0.4 1.3
v -0.9 0.4 1.3
v 1.2 0.4 1.2
v 1 0.4 1.2
v -1 0.4 1.2
v -1.2 0.4 1.2
v 1.2 1.3 1.2
v 1 1.3 1.2
v -1 1.3 1.2
v -1.2 1.3 1.2
v 1 1.5 1.2
v -1 1.5 1.2
v 1.1 0.2 1.1
v 0.9 0.2 1.1
v -0.9 0.2 1.1
v -1.1 0.2 1.1
v 1.1 0.4 1.1
v 0.9 0.4 1.1
v -0.9 0.4 1.1
v -1.1 0.4 1.1
v 1.7 0 1
v 1.5 0 1
v -1.5 0 1
v -1.7 0 1
v 1.7 0.1 1
v 1.5 0.1 1
v -1.5 0.1 1
v -1.7 0.1 1
v 1.8 0 0.7
v 1.7 0 0.7
v 1.6 0 0.7
v 1.5 0 0.7
v -1.5 0 0.7
v -1.6 0 0.7
v -1.7 0 0.7
v -1.8 0 0.7
v 1.8 0.1 0.7
v 1.7 0.1 0.7
v 1.6 0.1 0.7
v 1.5 0.1 0.7
v -1.5 0.1 0.7
v -1.6 0.1 0.7
v -1.7 0.1 0.7
v -1.8 0.1 0.7
v 1.7 0 0.2
v 1.5 0 0.2
v -1.5 0 0.2
v -1.7 0 0.2
v 1.7 0.1 0.2
v 1.5 0.1 0.2
v -1.5 0.1 0.2
v -1.7 0.1 0.2
v 1.8 0 -0.1
v 1.7 0 -0.1
v 1.6 0 -0.1
v 1.5 0 -0.1
v -1.5 0 -0.1
v -1.6 0 -0.1
v -1.7 0 -0.1
v -1.8 0 -0.1
v 1.8 0.1 -0.1
v 1.7 0.1 -0.1
v 1.6 0.1 -0.1
v 1.5 0.1 -0.1
v -1.5 0.1 -0.1
v -1.6 0.1 -0.1
v -1.7 0.1 -0.1
v -1.8 0.1 -0.1
v 1.4 0.8 -0.2
v 1.2 0.8 -0.2
v 1.4 1 -0.2
v 1.2 1 -0.2
v 1.4 0.7 -0.3
v 1.2 0.7 -0.3
v 1.4 0.8 -0.3
v 1.2 0.8 -0.3
v 1.4 1 -0.3
v 1.2 1 -0.3
v 1.4 1.1 -0.3
v 1.2 1.1 -0.3
v 1.3 1.4 -0.3
v 1.2 1.4 -0.3
v 1.3 1.6 -0.3
v 1.2 1.6 -0.3
v 1.3 1.7 -0.3
v 1.2 1.7 -0.3
v 1.3 1.8 -0.3
v 1.2 1.8 -0.3
v 1.3 1.2 -0.4
v 1.2 1.2 -0.4
v 1.3 1.3 -0.4
v 1.2 1.3 -0.4
v 1.3 1.9 -0.4
v 1.2 1.9 -0.4
v 1.3 2 -0.4
v 1.2 2 -0.4
v 1.4 0.5 -0.5
v 1.2 0.5 -0.5
v 1.4 0.7 -0.5
v 1.2 0.7 -0.5
v 1.3 1.1 -0.5
v 1.2 1.1 -0.5
v 1.3 1.2 -0.5
v 1.2 1.2 -0.5
v 1.3 1.3 -0.5
v 1.2 1.3 -0.5
v 1.3 1.4 -0.5
v 1.2 1.4 -0.5
v 1.3 1.6 -0.5
v 1.2 1.6 -0.5
v 1.3 1.7 -0.5
v 1.2 1.7 -0.5
v 1.3 1.8 -0.5
v 1.2 1.8 -0.5
v 1.3 1.9 -0.5
v 1.2 1.9 -0.5
v 1.3 2 -0.5
v 1.2 2 -0.5
v 1.3 2.1 -0.5
v 1.2 2.1 -0.5
v 1.7 0 -0.6
v 1.5 0 -0.6
v -1.5 0 -0.6
v -1.7 0 -0.6
v 1.7 0.1 -0.6
v 1.5 0.1 -0.6
v -1.5 0.1 -0.6
v -1.7 0.1 -0.6
v 1.4 0.4 -0.6
v 1.2 0.4 -0.6
v 1.4 0.5 -0.6
v 1.2 0.5 -0.6
v 1.4 0.7 -0.6
v 1.2 0.7 -0.6
v 1.4 0.8 -0.6
v 1.2 0.8 -0.6
v 1.3 1 -0.6
v 1.2 1 -0.6
v 1.3 1.1 -0.6
v 1.2 1.1 -0.6
v 1.3 2.1 -0.6
v 1.2 2.1 -0.6
v 1.3 2.2 -0.6
v 1.2 2.2 -0.6
v 1.3 0.9 -0.7
v 1.2 0.9 -0.7
v 1.3 1 -0.7
v 1.2 1 -0.7
v 1.3 0.8 -0.8
v 1.2 0.8 -0.8
v 1.3 0.9 -0.8
v 1.2 0.9 -0.8
v 1.3 1 -0.8
v 1.2 1 -0.8
v 1.3 1.1 -0.8
v 1.2 1.1 -0.8
v 1.8 0 -0.9
v 1.7 0 -0.9
v 1.6 0 -0.9
v 1.5 0 -0.9
v -1.5 0 -0.9
v -1.6 0 -0.9
v -1.7 0 -0.9
v -1.8 0 -0.9
v 1.8 0.1 -0.9
v 1.7 0.1 -0.9
v 1.6 0.1 -0.9
v 1.5 0.1 -0.9
v -1.5 0.1 -0.9
v -1.6 0.1 -0.9
v -1.7 0.1 -0.9
v -1.8 0.1 -0.9
v 1.3 0.7 -0.9
v 1.2 0.7 -0.9
v 1.3 0.8 -0.9
v 1.2 0.8 -0.9
v 1.3 1.1 -0.9
v 1.2 1.1 -0.9
v 1.3 1.2 -0.9
v 1.2 1.2 -0.9
v 1.3 0.6 -1.1
v 1.2 0.6 -1.1
v 1.3 0.8 -1.1
v 1.2 0.8 -1.1
v 1.3 1.1 -1.1
v 1.2 1.1 -1.1
v 1.3 1.3 -1.1
v 1.2 1.3 -1.1
v 1.3 0.6 -1.4
v 1.2 0.6 -1.4
v 1.3 0.8 -1.4
v 1.2 0.8 -1.4
v 1.3 1.1 -1.4
v 1.2 1.1 -1.4
v 1.3 1.3 -1.4
v 1.2 1.3 -1.4
v 1.7 0 -1.5
v 1.5 0 -1.5
v -1.5 0 -1.5
v -1.7 0 -1.5
v 1.7 0.1 -1.5
v 1.5 0.1 -1.5
v -1.5 0.1 -1.5
v -1.7 0.1 -1.5
v 1.3 0.7 -1.6
v 1.2 0.7 -1.6
v 1.3 0.8 -1.6
v 1.2 0.8 -1.6
v 1.3 1.1 -1.6
v 1.2 1.1 -1.6
v 1.3 1.2 -1.6
v 1.2 1.2 -1.6
v 0.9 0 -1.8
v 0.7 0 -1.8
v 0.1 0 -1.8
v -0.0999999 0 -1.8
v -0.7 0 -1.8
v -0.9 0 -1.8
v 0.9 0.1 -1.8
v 0.7 0.1 -1.8
v 0.1 0.1 -1.8
v -0.0999999 0.1 -1.8
v -0.7 0.1 -1.8
v -0.9 0.1 -1.8
v 1.4 0 -1.9
v 1 0 -1.9
v 0.6 0 -1.9
v 0.2 0 -1.9
v -0.2 0 -1.9
v -0.6 0 -1.9
v -1 0 -1.9
v -1.4 0 -1.9
v 1.4 0.1 -1.9
v 1 0.1 -1.9
v 0.6 0.1 -1.9
v 0.2 0.1 -1.9
v -0.2 0.1 -1.9
v -0.6 0.1 -1.9
v -1 0.1 -1.9
v -1.4 0.1 -1.9
v 1.4 0 1.9
v 1 0 1.9
v 0.6 0 1.9
v 0.2 0 1.9
v -0.2 0 1.9
v -0.6 0 1.9
v -1 0 1.9
v -1.4 0 1.9
v 1.4 0.1 1.9
v 1 0.1 1.9
v 0.6 0.1 1.9
v 0.2 0.1 1.9
v -0.2 0.1 1.9
v -0.6 0.1 1.9
v -1 0.1 1.9
v -1.4 0.1 1.9
v 0.9 0 1.8
v 0.7 0 1.8
v 0.1 0 1.8
v -0.0999999 0 1.8
v -0.7 0 1.8
v -0.9 0 1.8
v 0.9 0.1 1.8
v 0.7 0.1 1.8
v 0.1 0.1 1.8
v -0.0999999 0.1 1.8
v -0.7 0.1 1.8
v -0.9 0.1 1.8
v 1.7 0 1.5
v 1.5 0 1.5
v -1.5 0 1.5
v -1.7 0 1.5
v 1.7 0.1 1.5
v 1.5 0.1 1.5
v -1.5 0.1 1.5
v -1.7 0.1 1.5
v 1.8 0 0.9
v 1.7 0 0.9
v 1.6 0 0.9
v 1.5 0 0.9
v -1.5 0 0.9
v -1.6 0 0.9
v -1.7 0 0.9
v -1.8 0 0.9
v 1.8 0.1 0.9
v 1.7 0.1 0.9
v 1.6 0.1 0.9
v 1.5 0.1 0.9
v -1.5 0.1 0.9
v -1.6 0.1 0.9
v -1.7 0.1 0.9
v -1.8 0.1 0.9
v 1.7 0 0.6
v 1.5 0 0.6
v -1.5 0 0.6
v -1.7 0 0.6
v 1.7 0.1 0.6
v 1.5 0.1 0.6
v -1.5 0.1 0.6
v -1.7 0.1 0.6
v 1.8 0 0.0999999
v 1.7 0 0.0999999
v 1.6 0 0.0999999
v 1.5 0 0.0999999
v -1.5 0 0.0999999
v -1.6 0 0.0999999
v -1.7 0 0.0999999
v -1.8 0 0.0999999
v 1.8 0.1 0.0999999
v 1.7 0.1 0.0999999
v 1.6 0.1 0.0999999
v 1.5 0.1 0.0999999
v -1.5 0.1 0.0999999
v -1.6 0.1 0.0999999
v -1.7 0.1 0.0999999
v -1.8 0.1 0.0999999
v 1.7 0 -0.2
v 1.5 0 -0.2
v -1.5 0 -0.2
v -1.7 0 -0.2
v 1.7 0.1 -0.2
v 1.5 0.1 -0.2
v -1.5 0.1 -0.2
v -1.7 0.1 -0.2
v 1.4 0.7 -0.5
v 1.2 0.7 -0.5
v 1.4 0.8 -0.5
v 1.2 0.8 -0.5
v 1.4 1 -0.5
v 1.2 1 -0.5
v 1.4 1.1 -0.5
v 1.3 1.1 -0.5
v 1.2 1.1 -0.5
v 1.4 0.8 -0.6
v 1.2 0.8 -0.6
v 1.4 1 -0.6
v 1.3 1 -0.6
v 1.2 1 -0.6
v 1.8 0 -0.7
v 1.7 0 -0.7
v 1.6 0 -0.7
v 1.5 0 -0.7
v -1.5 0 -0.7
v -1.6 0 -0.7
v -1.7 0 -0.7
v -1.8 0 -0.7
v 1.8 0.1 -0.7
v 1.7 0.1 -0.7
v 1.6 0.1 -0.7
v 1.5 0.1 -0.7
v -1.5 0.1 -0.7
v -1.6 0.1 -0.7
v -1.7 0.1 -0.7
v -1.8 0.1 -0.7
v 1.3 1 -0.7
v 1.2 1 -0.7
v 1.3 1.1 -0.7
v 1.2 1.1 -0.7
v 1.3 2.1 -0.7
v 1.2 2.1 -0.7
v 1.3 2.2 -0.7
v 1.2 2.2 -0.7
v 1.4 0.4 -0.8
v 1.2 0.4 -0.8
v 1.4 0.5 -0.8
v 1.2 0.5 -0.8
v 1.4 0.7 -0.8
v 1.2 0.7 -0.8
v 1.4 0.8 -0.8
v 1.3 0.8 -0.8
v 1.2 0.8 -0.8
v 1.3 1.1 -0.8
v 1.2 1.1 -0.8
v 1.3 1.2 -0.8
v 1.2 1.2 -0.8
v 1.3 1.3 -0.8
v 1.2 1.3 -0.8
v 1.3 1.4 -0.8
v 1.2 1.4 -0.8
v 1.3 1.6 -0.8
v 1.2 1.6 -0.8
v 1.3 1.7 -0.8
v 1.2 1.7 -0.8
v 1.3 1.8 -0.8
v 1.2 1.8 -0.8
v 1.3 1.9 -0.8
v 1.2 1.9 -0.8
v 1.3 2 -0.8
v 1.2 2 -0.8
v 1.3 2.1 -0.8
v 1.2 2.1 -0.8
v 1.4 0.5 -0.9
v 1.2 0.5 -0.9
v 1.4 0.7 -0.9
v 1.3 0.7 -0.9
v 1.2 0.7 -0.9
v 1.3 1.2 -0.9
v 1.2 1.2 -0.9
v 1.3 1.3 -0.9
v 1.2 1.3 -0.9
v 1.3 1.9 -0.9
v 1.2 1.9 -0.9
v 1.3 2 -0.9
v 1.2 2 -0.9
v 1.7 0 -1
v 1.5 0 -1
v -1.5 0 -1
v -1.7 0 -1
v 1.7 0.1 -1
v 1.5 0.1 -1
v -1.5 0.1 -1
v -1.7 0.1 -1
v 1.3 0.7 -1
v 1.2 0.7 -1
v 1.3 0.8 -1
v 1.2 0.8 -1
v 1.3 1.1 -1
v 1.2 1.1 -1
v 1.3 1.2 -1
v 1.2 1.2 -1
v 1.3 1.4 -1
v 1.2 1.4 -1
v 1.3 1.6 -1
v 1.2 1.6 -1
v 1.3 1.7 -1
v 1.2 1.7 -1
v 1.3 1.8 -1
v 1.2 1.8 -1
v 1.1 0.2 -1.1
v 0.9 0.2 -1.1
v -0.9 0.2 -1.1
v -1.1 0.2 -1.1
v 1.1 0.4 -1.1
v 0.9 0.4 -1.1
v -0.9 0.4 -1.1
v -1.1 0.4 -1.1
v 1.2 0.4 -1.2
v 1 0.4 -1.2
v -1 0.4 -1.2
v -1.2 0.4 -1.2
v 1.2 0.6 -1.2
v 1.2 1.3 -1.2
v 1 1.3 -1.2
v -1 1.3 -1.2
v -1.2 1.3 -1.2
v 1 1.5 -1.2
v -1 1.5 -1.2
v 0.9 0.2 -1.3
v -0.9 0.2 -1.3
v 0.9 0.4 -1.3
v -0.9 0.4 -1.3
v 1.3 0.6 -1.3
v 1.2 0.6 -1.3
v 1.3 0.8 -1.3
v 1.2 0.8 -1.3
v 1.3 1.1 -1.3
v 1.2 1.1 -1.3
v 1.3 1.3 -1.3
v 1.2 1.3 -1.3
v 1.4 0.1 -1.4
v 1.2 0.1 -1.4
v -1.2 0.1 -1.4
v -1.4 0.1 -1.4
v 1.4 0.2 -1.4
v 1.2 0.2 -1.4
v -1.2 0.2 -1.4
v -1.4 0.2 -1.4
v 1 0.4 -1.4
v -1 0.4 -1.4
v 1 1.3 -1.4
v -1 1.3 -1.4
v 1.3 0.6 -1.5
v 1.2 0.6 -1.5
v 1.3 0.8 -1.5
v 1.2 0.8 -1.5
v 1.3 1.1 -1.5
v 1.2 1.1 -1.5
v 1.3 1.3 -1.5
v 1.2 1.3 -1.5
v 1.8 0 -1.6
v 1.5 0 -1.6
v -1.5 0 -1.6
v -1.8 0 -1.6
v 1.8 0.1 -1.6
v 1.5 0.1 -1.6
v 1.2 0.1 -1.6
v -1.2 0.1 -1.6
v -1.5 0.1 -1.6
v -1.8 0.1 -1.6
v 1.2 0.2 -1.6
v -1.2 0.2 -1.6
v 1.4 0 -1.7
v 1 0 -1.7
v 0.9 0 -1.7
v 0.7 0 -1.7
v 0.6 0 -1.7
v 0.2 0 -1.7
v 0.1 0 -1.7
v -0.0999999 0 -1.7
v -0.2 0 -1.7
v -0.6 0 -1.7
v -0.7 0 -1.7
v -0.9 0 -1.7
v -1 0 -1.7
v -1.4 0 -1.7
v 1.4 0.1 -1.7
v 1 0.1 -1.7
v 0.9 0.1 -1.7
v 0.7 0.1 -1.7
v 0.6 0.1 -1.7
v 0.2 0.1 -1.7
v 0.1 0.1 -1.7
v -0.0999999 0.1 -1.7
v -0.2 0.1 -1.7
v -0.6 0.1 -1.7
v -0.7 0.1 -1.7
v -0.9 0.1 -1.7
v -1 0.1 -1.7
v -1.4 0.1 -1.7
v 1.3 0.7 -1.7
v 1.2 0.7 -1.7
v 1.3 0.8 -1.7
v 1.2 0.8 -1.7
v 1.3 1.1 -1.7
v 1.2 1.1 -1.7
v 1.3 1.2 -1.7
v 1.2 1.2 -1.7
v 1.3 0.8 -1.8
v 1.2 0.8 -1.8
v 1.3 0.9 -1.8
v 1.2 0.9 -1.8
v 1.3 1 -1.8
v 1.2 1 -1.8
v 1.3 1.1 -1.8
v 1.2 1.1 -1.8
v 0.9 0 -1.9
v 0.7 0 -1.9
v 0.1 0 -1.9
v -0.0999999 0 -1.9
v -0.7 0 -1.9
v -0.9 0 -1.9
v 0.9 0.1 -1.9
v 0.7 0.1 -1.9
v 0.1 0.1 -1.9
v -0.0999999 0.1 -1.9
v -0.7 0.1 -1.9
v -0.9 0.1 -1.9
v 1.3 0.9 -1.9
v 1.2 0.9 -1.9
v 1.3 1 -1.9
v 1.2 1 -1.9
v 1.5 0 -2
v 0.9 0 -2
v 0.7 0 -2
v 0.1 0 -2
v -0.0999999 0 -2
v -0.7 0 -2
v -0.9 0 -2
v -1.5 0 -2
v 1.5 0.1 -2
v 0.9 0.1 -2
v 0.7 0.1 -2
v 0.1 0.1 -2
v -0.0999999 0.1 -2
v -0.7 0.1 -2
v -0.9 0.1 -2
v -1.5 0.1 -2
v 1.8 0 1.6
v 1.8 0.1 1.6
v 1.8 0 0.9
v 1.8 0.1 0.9
v 1.8 0 0.7
v 1.8 0.1 0.7
v 1.8 0 0.0999999
v 1.8 0.1 0.0999999
v 1.8 0 -0.1
v 1.8 0.1 -0.1
v 1.8 0 -0.7
v 1.8 0.1 -0.7
v 1.8 0 -0.9
v 1.8 0.1 -0.9
v 1.8 0 -1.6
v 1.8 0.1 -1.6
v 1.7 0 0.9
v 1.7 0.1 0.9
v 1.7 0 0.7
v 1.7 0.1 0.7
v 1.7 0 0.0999999
v 1.7 0.1 0.0999999
v 1.7 0 -0.1
v 1.7 0.1 -0.1
v 1.7 0 -0.7
v 1.7 0.1 -0.7
v 1.7 0 -0.9
v 1.7 0.1 -0.9
v 1.5 0 2
v 1.5 0.1 2
v 1.5 0 1.6
v 1.5 0.1 1.6
v 1.5 0 1.5
v 1.5 0.1 1.5
v 1.5 0 1
v 1.5 0.1 1
v 1.5 0 0.9
v 1.5 0.1 0.9
v 1.5 0 0.7
v 1.5 0.1 0.7
v 1.5 0 0.6
v 1.5 0.1 0.6
v 1.5 0 0.2
v 1.5 0.1 0.2
v 1.5 0 0.0999999
v 1.5 0.1 0.0999999
v 1.5 0 -0.1
v 1.5 0.1 -0.1
v 1.5 0 -0.2
v 1.5 0.1 -0.2
v 1.5 0 -0.6
v 1.5 0.1 -0.6
v 1.5 0 -0.7
v 1.5 0.1 -0.7
v 1.5 0 -0.9
v 1.5 0.1 -0.9
v 1.5 0 -1
v 1.5 0.1 -1
v 1.5 0 -1.5
v 1.5 0.1 -1.5
v 1.5 0 -1.6
v 1.5 0.1 -1.6
v 1.5 0 -2
v 1.5 0.1 -2
v 1.4 0.1 1.4
v 1.4 0.2 1.4
v 1.4 0.8 -0.2
v 1.4 1 -0.2
v 1.4 0.7 -0.3
v 1.4 0.8 -0.3
v 1.4 1 -0.3
v 1.4 1.1 -0.3
v 1.4 0.5 -0.5
v 1.4 0.7 -0.5
v 1.4 0.8 -0.5
v 1.4 1 -0.5
v 1.4 1.1 -0.5
v 1.4 0.4 -0.6
v 1.4 0.5 -0.6
v 1.4 0.7 -0.6
v 1.4 0.8 -0.6
v 1.4 1 -0.6
v 1.4 0.4 -0.8
v 1.4 0.5 -0.8
v 1.4 0.7 -0.8
v 1.4 0.8 -0.8
v 1.4 0.5 -0.9
v 1.4 0.7 -0.9
v 1.4 0.1 -1.4
v 1.4 0.2 -1.4
v 1.3 1.4 -0.3
v 1.3 1.6 -0.3
v 1.3 1.7 -0.3
v 1.3 1.8 -0.3
v 1.3 1.2 -0.4
v 1.3 1.3 -0.4
v 1.3 1.9 -0.4
v 1.3 2 -0.4
v 1.3 1.1 -0.5
v 1.3 1.2 -0.5
v 1.3 1.3 -0.5
v 1.3 1.4 -0.5
v 1.3 1.6 -0.5
v 1.3 1.7 -0.5
v 1.3 1.8 -0.5
v 1.3 1.9 -0.5
v 1.3 2 -0.5
v 1.3 2.1 -0.5
v 1.3 1 -0.6
v 1.3 1.1 -0.6
v 1.3 2.1 -0.6
v 1.3 2.2 -0.6
v 1.3 0.9 -0.7
v 1.3 1 -0.7
v 1.3 1.1 -0.7
v 1.3 2.1 -0.7
v 1.3 2.2 -0.7
v 1.3 0.8 -0.8
v 1.3 0.9 -0.8
v 1.3 1 -0.8
v 1.3 1.1 -0.8
v 1.3 1.2 -0.8
v 1.3 1.3 -0.8
v 1.3 1.4 -0.8
v 1.3 1.6 -0.8
v 1.3 1.7 -0.8
v 1.3 1.8 -0.8
v 1.3 1.9 -0.8
v 1.3 2 -0.8
v 1.3 2.1 -0.8
v 1.3 0.7 -0.9
v 1.3 0.8 -0.9
v 1.3 1.1 -0.9
v 1.3 1.2 -0.9
v 1.3 1.3 -0.9
v 1.3 1.9 -0.9
v 1.3 2 -0.9
v 1.3 0.7 -1
v 1.3 0.8 -1
v 1.3 1.1 -1
v 1.3 1.2 -1
v 1.3 1.4 -1
v 1.3 1.6 -1
v 1.3 1.7 -1
v 1.3 1.8 -1
v 1.3 0.6 -1.1
v 1.3 0.8 -1.1
v 1.3 1.1 -1.1
v 1.3 1.3 -1.1
v 1.3 0.6 -1.3
v 1.3 0.8 -1.3
v 1.3 1.1 -1.3
v 1.3 1.3 -1.3
v 1.3 0.6 -1.4
v 1.3 0.8 -1.4
v 1.3 1.1 -1.4
v 1.3 1.3 -1.4
v 1.3 0.6 -1.5
v 1.3 0.8 -1.5
v 1.3 1.1 -1.5
v 1.3 1.3 -1.5
v 1.3 0.7 -1.6
v 1.3 0.8 -1.6
v 1.3 1.1 -1.6
v 1.3 1.2 -1.6
v 1.3 0.7 -1.7
v 1.3 0.8 -1.7
v 1.3 1.1 -1.7
v 1.3 1.2 -1.7
v 1.3 0.8 -1.8
v 1.3 0.9 -1.8
v 1.3 1 -1.8
v 1.3 1.1 -1.8
v 1.3 0.9 -1.9
v 1.3 1 -1.9
v 1.2 0.1 1.6
v 1.2 0.2 1.6
v 1.2 0.1 1.4
v 1.2 0.2 1.4
v 1.2 0.4 1.2
v 1.2 1.3 1.2
v 1.2 0.8 -0.2
v 1.2 1 -0.2
v 1.2 0.7 -0.3
v 1.2 0.8 -0.3
v 1.2 1 -0.3
v 1.2 1.1 -0.3
v 1.2 1.2 -0.4
v 1.2 1.3 -0.4
v 1.2 0.5 -0.5
v 1.2 0.7 -0.5
v 1.2 0.8 -0.5
v 1.2 1 -0.5
v 1.2 1.1 -0.5
v 1.2 1.2 -0.5
v 1.2 0.4 -0.6
v 1.2 0.5 -0.6
v 1.2 0.7 -0.6
v 1.2 0.8 -0.6
v 1.2 1 -0.6
v 1.2 1.1 -0.6
v 1.2 0.9 -0.7
v 1.2 1 -0.7
v 1.2 1.1 -0.7
v 1.2 0.4 -0.8
v 1.2 0.5 -0.8
v 1.2 0.7 -0.8
v 1.2 0.8 -0.8
v 1.2 0.9 -0.8
v 1.2 1 -0.8
v 1.2 1.1 -0.8
v 1.2 1.2 -0.8
v 1.2 0.5 -0.9
v 1.2 0.7 -0.9
v 1.2 0.8 -0.9
v 1.2 1.1 -0.9
v 1.2 1.2 -0.9
v 1.2 1.3 -0.9
v 1.2 0.7 -1
v 1.2 0.8 -1
v 1.2 1.1 -1
v 1.2 1.2 -1
v 1.2 0.6 -1.1
v 1.2 0.8 -1.1
v 1.2 1.1 -1.1
v 1.2 1.3 -1.1
v 1.2 0.4 -1.2
v 1.2 0.6 -1.2
v 1.2 0.1 -1.4
v 1.2 0.2 -1.4
v 1.2 0.1 -1.6
v 1.2 0.2 -1.6
v 1.1 0.2 1.1
v 1.1 0.4 1.1
v 1.1 0.2 -1.1
v 1.1 0.4 -1.1
v 1 0 1.9
v 1 0.1 1.9
v 1 0 1.7
v 1 0.1 1.7
v 1 0.4 1.4
v 1 1.3 1.4
v 1 0.4 1.2
v 1 1.3 1.2
v 1 1.5 1.2
v 1 0.4 -1.2
v 1 1.3 -1.2
v 1 1.5 -1.2
v 1 0.4 -1.4
v 1 1.3 -1.4
v 1 0 -1.7
v 1 0.1 -1.7
v 1 0 -1.9
v 1 0.1 -1.9
v 0.9 0.2 1.3
v 0.9 0.4 1.3
v 0.9 0.2 1.1
v 0.9 0.4 1.1
v 0.9 0.2 -1.1
v 0.9 0.4 -1.1
v 0.9 0.2 -1.3
v 0.9 0.4 -1.3
v 0.7 0 2
v 0.7 0.1 2
v 0.7 0 1.9
v 0.7 0.1 1.9
v 0.7 0 1.8
v 0.7 0.1 1.8
v 0.7 0 1.7
v 0.7 0.1 1.7
v 0.7 0 -1.7
v 0.7 0.1 -1.7
v 0.7 0 -1.8
v 0.7 0.1 -1.8
v 0.7 0 -1.9
v 0.7 0.1 -1.9
v 0.7 0 -2
v 0.7 0.1 -2
v 0.2 0 1.9
v 0.2 0.1 1.9
v 0.2 0 1.7
v 0.2 0.1 1.7
v 0.2 0 -1.7
v 0.2 0.1 -1.7
v 0.2 0 -1.9
v 0.2 0.1 -1.9
v -0.0999999 0 2
v -0.0999999 0.1 2
v -0.0999999 0 1.9
v -0.0999999 0.1 1.9
v -0.0999999 0 1.8
v -0.0999999 0.1 1.8
v -0.0999999 0 1.7
v -0.0999999 0.1 1.7
v -0.0999999 0 -1.7
v -0.0999999 0.1 -1.7
v -0.0999999 0 -1.8
v -0.0999999 0.1 -1.8
v -0.0999999 0 -1.9
v -0.0999999 0.1 -1.9
v -0.0999999 0 -2
v -0.0999999 0.1 -2
v -0.6 0 1.9
v -0.6 0.1 1.9
v -0.6 0 1.7
v -0.6 0.1 1.7
v -0.6 0 -1.7
v -0.6 0.1 -1.7
v -0.6 0 -1.9
v -0.6 0.1 -1.9
v -0.9 0 2
v -0.9 0.1 2
v -0.9 0 1.9
v -0.9 0.1 1.9
v -0.9 0 1.8
v -0.9 0.1 1.8
v -0.9 0 1.7
v -0.9 0.1 1.7
v -0.9 0 -1.7
v -0.9 0.1 -1.7
v -0.9 0 -1.8
v -0.9 0.1 -1.8
v -0.9 0 -1.9
v -0.9 0.1 -1.9
v -0.9 0 -2
v -0.9 0.1 -2
v -1.4 0 1.9
v -1.4 0.1 1.9
v -1.4 0 1.7
v -1.4 0.1 1.7
v -1.4 0 -1.7
v -1.4 0.1 -1.7
v -1.4 0 -1.9
v -1.4 0.1 -1.9
v -1.6 0 0.9
v -1.6 0.1 0.9
v -1.6 0 0.7
v -1.6 0.1 0.7
v -1.6 0 0.0999999
v -1.6 0.1 0.0999999
v -1.6 0 -0.1
v -1.6 0.1 -0.1
v -1.6 0 -0.7
v -1.6 0.1 -0.7
v -1.6 0 -0.9
v -1.6 0.1 -0.9
v -1.7 0 1.5
v -1.7 0.1 1.5
v -1.7 0 1
v -1.7 0.1 1
v -1.7 0 0.6
v -1.7 0.1 0.6
v -1.7 0 0.2
v -1.7 0.1 0.2
v -1.7 0 -0.2
v -1.7 0.1 -0.2
v -1.7 0 -0.6
v -1.7 0.1 -0.6
v -1.7 0 -1
v -1.7 0.1 -1
v -1.7 0 -1.5
v -1.7 0.1 -1.5
v 1.7 0 1.5
v 1.7 0.1 1.5
v 1.7 0 1
v 1.7 0.1 1
v 1.7 0 0.6
v 1.7 0.1 0.6
v 1.7 0 0.2
v 1.7 0.1 0.2
v 1.7 0 -0.2
v 1.7 0.1 -0.2
v 1.7 0 -0.6
v 1.7 0.1 -0.6
v 1.7 0 -1
v 1.7 0.1 -1
v 1.7 0 -1.5
v 1.7 0.1 -1.5
v 1.6 0 0.9
v 1.6 0.1 0.9
v 1.6 0 0.7
v 1.6 0.1 0.7
v 1.6 0 0.0999999
v 1.6 0.1 0.0999999
v 1.6 0 -0.1
v 1.6 0.1 -0.1
v 1.6 0 -0.7
v 1.6 0.1 -0.7
v 1.6 0 -0.9
v 1.6 0.1 -0.9
v 1.4 0 1.9
v 1.4 0.1 1.9
v 1.4 0 1.7
v 1.4 0.1 1.7
v 1.4 0 -1.7
v 1.4 0.1 -1.7
v 1.4 0 -1.9
v 1.4 0.1 -1.9
v 1.2 1.4 -0.3
v 1.2 1.6 -0.3
v 1.2 1.7 -0.3
v 1.2 1.8 -0.3
v 1.2 1.9 -0.4
v 1.2 2 -0.4
v 1.2 1.3 -0.5
v 1.2 1.4 -0.5
v 1.2 1.6 -0.5
v 1.2 1.7 -0.5
v 1.2 1.8 -0.5
v 1.2 1.9 -0.5
v 1.2 2 -0.5
v 1.2 2.1 -0.5
v 1.2 2.1 -0.6
v 1.2 2.2 -0.6
v 1.2 2.1 -0.7
v 1.2 2.2 -0.7
v 1.2 1.3 -0.8
v 1.2 1.4 -0.8
v 1.2 1.6 -0.8
v 1.2 1.7 -0.8
v 1.2 1.8 -0.8
v 1.2 1.9 -0.8
v 1.2 2 -0.8
v 1.2 2.1 -0.8
v 1.2 1.9 -0.9
v 1.2 2 -0.9
v 1.2 1.4 -1
v 1.2 1.6 -1
v 1.2 1.7 -1
v 1.2 1.8 -1
v 1.2 0.6 -1.2
v 1.2 1.3 -1.2
v 1.2 0.6 -1.3
v 1.2 0.8 -1.3
v 1.2 1.1 -1.3
v 1.2 1.3 -1.3
v 1.2 0.6 -1.4
v 1.2 0.8 -1.4
v 1.2 1.1 -1.4
v 1.2 1.3 -1.4
v 1.2 0.6 -1.5
v 1.2 0.8 -1.5
v 1.2 1.1 -1.5
v 1.2 1.3 -1.5
v 1.2 0.7 -1.6
v 1.2 0.8 -1.6
v 1.2 1.1 -1.6
v 1.2 1.2 -1.6
v 1.2 0.7 -1.7
v 1.2 0.8 -1.7
v 1.2 1.1 -1.7
v 1.2 1.2 -1.7
v 1.2 0.8 -1.8
v 1.2 0.9 -1.8
v 1.2 1 -1.8
v 1.2 1.1 -1.8
v 1.2 0.9 -1.9
v 1.2 1 -1.9
v 0.9 0 2
v 0.9 0.1 2
v 0.9 0 1.9
v 0.9 0.1 1.9
v 0.9 0 1.8
v 0.9 0.1 1.8
v 0.9 0 1.7
v 0.9 0.1 1.7
v 0.9 0 -1.7
v 0.9 0.1 -1.7
v 0.9 0 -1.8
v 0.9 0.1 -1.8
v 0.9 0 -1.9
v 0.9 0.1 -1.9
v 0.9 0 -2
v 0.9 0.1 -2
v 0.6 0 1.9
v 0.6 0.1 1.9
v 0.6 0 1.7
v 0.6 0.1 1.7
v 0.6 0 -1.7
v 0.6 0.1 -1.7
v 0.6 0 -1.9
v 0.6 0.1 -1.9
v 0.1 0 2
v 0.1 0.1 2
v 0.1 0 1.9
v 0.1 0.1 1.9
v 0.1 0 1.8
v 0.1 0.1 1.8
v 0.1 0 1.7
v 0.1 0.1 1.7
v 0.1 0 -1.7
v 0.1 0.1 -1.7
v 0.1 0 -1.8
v 0.1 0.1 -1.8
v 0.1 0 -1.9
v 0.1 0.1 -1.9
v 0.1 0 -2
v 0.1 0.1 -2
v -0.2 0 1.9
v -0.2 0.1 1.9
v -0.2 0 1.7
v -0.2 0.1 1.7
v -0.2 0 -1.7
v -0.2 0.1 -1.7
v -0.2 0 -1.9
v -0.2 0.1 -1.9
v -0.7 0 2
v -0.7 0.1 2
v -0.7 0 1.9
v -0.7 0.1 1.9
v -0.7 0 1.8
v -0.7 0.1 1.8
v -0.7 0 1.7
v -0.7 0.1 1.7
v -0.7 0 -1.7
v -0.7 0.1 -1.7
v -0.7 0 -1.8
v -0.7 0.1 -1.8
v -0.7 0 -1.9
v -0.7 0.1 -1.9
v -0.7 0 -2
v -0.7 0.1 -2
v -0.9 0.2 1.3
v -0.9 0.4 1.3
v -0.9 0.2 1.1
v -0.9 0.4 1.1
v -0.9 0.2 -1.1
v -0.9 0.4 -1.1
v -0.9 0.2 -1.3
v -0.9 0.4 -1.3
v -1 0 1.9
v -1 0.1 1.9
v -1 0 1.7
v -1 0.1 1.7
v -1 0.4 1.4
v -1 1.3 1.4
v -1 0.4 1.2
v -1 1.3 1.2
v -1 1.5 1.2
v -1 0.4 -1.2
v -1 1.3 -1.2
v -1 1.5 -1.2
v -1 0.4 -1.4
v -1 1.3 -1.4
v -1 0 -1.7
v -1 0.1 -1.7
v -1 0 -1.9
v -1 0.1 -1.9
v -1.1 0.2 1.1
v -1.1 0.4 1.1
v -1.1 0.2 -1.1
v -1.1 0.4 -1.1
v -1.2 0.1 1.6
v -1.2 0.2 1.6
v -1.2 0.1 1.4
v -1.2 0.2 1.4
v -1.2 0.4 1.2
v -1.2 1.3 1.2
v -1.2 0.4 -1.2
v -1.2 1.3 -1.2
v -1.2 0.1 -1.4
v -1.2 0.2 -1.4
v -1.2 0.1 -1.6
v -1.2 0.2 -1.6
v -1.4 0.1 1.4
v -1.4 0.2 1.4
v -1.4 0.1 -1.4
v -1.4 0.2 -1.4
v -1.5 0 2
v -1.5 0.1 2
v -1.5 0 1.6
v -1.5 0.1 1.6
v -1.5 0 1.5
v -1.5 0.1 1.5
v -1.5 0 1
v -1.5 0.1 1
v -1.5 0 0.9
v -1.5 0.1 0.9
v -1.5 0 0.7
v -1.5 0.1 0.7
v -1.5 0 0.6
v -1.5 0.1 0.6
v -1.5 0 0.2
v -1.5 0.1 0.2
v -1.5 0 0.0999999
v -1.5 0.1 0.0999999
v -1.5 0 -0.1
v -1.5 0.1 -0.1
v -1.5 0 -0.2
v -1.5 0.1 -0.2
v -1.5 0 -0.6
v -1.5 0.1 -0.6
v -1.5 0 -0.7
v -1.5 0.1 -0.7
v -1.5 0 -0.9
v -1.5 0.1 -0.9
v -1.5 0 -1
v -1.5 0.1 -1
v -1.5 0 -1.5
v -1.5 0.1 -1.5
v -1.5 0 -1.6
v -1.5 0.1 -1.6
v -1.5 0 -2
v -1.5 0.1 -2
v -1.7 0 0.9
v -1.7 0.1 0.9
v -1.7 0 0.7
v -1.7 0.1 0.7
v -1.7 0 0.0999999
v -1.7 0.1 0.0999999
v -1.7 0 -0.1
v -1.7 0.1 -0.1
v -1.7 0 -0.7
v -1.7 0.1 -0.7
v -1.7 0 -0.9
v -1.7 0.1 -0.9
v -1.8 0 1.6
v -1.8 0.1 1.6
v -1.8 0 0.9
v -1.8 0.1 0.9
v -1.8 0 0.7
v -1.8 0.1 0.7
v -1.8 0 0.0999999
v -1.8 0.1 0.0999999
v -1.8 0 -0.1
v -1.8 0.1 -0.1
v -1.8 0 -0.7
v -1.8 0.1 -0.7
v -1.8 0 -0.9
v -1.8 0.1 -0.9
v -1.8 0 -1.6
v -1.8 0.1 -1.6
v 1.8 0 1.6
v 1.8 0 0.9
v 1.8 0 0.7
v 1.8 0 0.0999999
v 1.8 0 -0.1
v 1.8 0 -0.7
v 1.8 0 -0.9
v 1.8 0 -1.6
v 1.7 0 1.5
v 1.7 0 1
v 1.7 0 0.9
v 1.7 0 0.7
v 1.7 0 0.6
v 1.7 0 0.2
v 1.7 0 0.0999999
v 1.7 0 -0.1
v 1.7 0 -0.2
v 1.7 0 -0.6
v 1.7 0 -0.7
v 1.7 0 -0.9
v 1.7 0 -1
v 1.7 0 -1.5
v 1.6 0 0.9
v 1.6 0 0.7
v 1.6 0 0.0999999
v 1.6 0 -0.1
v 1.6 0 -0.7
v 1.6 0 -0.9
v 1.5 0 2
v 1.5 0 1.6
v 1.5 0 1.5
v 1.5 0 1
v 1.5 0 0.9
v 1.5 0 0.7
v 1.5 0 0.6
v 1.5 0 0.2
v 1.5 0 0.0999999
v 1.5 0 -0.1
v 1.5 0 -0.2
v 1.5 0 -0.6
v 1.5 0 -0.7
v 1.5 0 -0.9
v 1.5 0 -1
v 1.5 0 -1.5
v 1.5 0 -1.6
v 1.5 0 -2
v 1.4 0 1.9
v 1.4 0 1.7
v 1.4 0 -1.7
v 1.4 0 -1.9
v 1 0 1.9
v 1 0 1.7
v 1 0 -1.7
v 1 0 -1.9
v 0.9 0 2
v 0.9 0 1.9
v 0.9 0 1.8
v 0.9 0 1.7
v 0.9 0 -1.7
v 0.9 0 -1.8
v 0.9 0 -1.9
v 0.9 0 -2
v 0.7 0 2
v 0.7 0 1.9
v 0.7 0 1.8
v 0.7 0 1.7
v 0.7 0 -1.7
v 0.7 0 -1.8
v 0.7 0 -1.9
v 0.7 0 -2
v 0.6 0 1.9
v 0.6 0 1.7
v 0.6 0 -1.7
v 0.6 0 -1.9
v 0.2 0 1.9
v 0.2 0 1.7
v 0.2 0 -1.7
v 0.2 0 -1.9
v 0.1 0 2
v 0.1 0 1.9
v 0.1 0 1.8
v 0.1 0 1.7
v 0.1 0 -1.7
v 0.1 0 -1.8
v 0.1 0 -1.9
v 0.1 0 -2
v -0.0999999 0 2
v -0.0999999 0 1.9
v -0.0999999 0 1.8
v -0.0999999 0 1.7
v -0.0999999 0 -1.7
v -0.0999999 0 -1.8
v -0.0999999 0 -1.9
v -0.0999999 0 -2
v -0.2 0 1.9
v -0.2 0 1.7
v -0.2 0 -1.7
v -0.2 0 -1.9
v -0.6 0 1.9
v -0.6 0 1.7
v -0.6 0 -1.7
v -0.6 0 -1.9
v -0.7 0 2
v -0.7 0 1.9
v -0.7 0 1.8
v -0.7 0 1.7
v -0.7 0 -1.7
v -0.7 0 -1.8
v -0.7 0 -1.9
v -0.7 0 -2
v -0.9 0 2
v -0.9 0 1.9
v -0.9 0 1.8
v -0.9 0 1.7
v -0.9 0 -1.7
v -0.9 0 -1.8
v -0.9 0 -1.9
v -0.9 0 -2
v -1 0 1.9
v -1 0 1.7
v -1 0 -1.7
v -1 0 -1.9
v -1.4 0 1.9
v -1.4 0 1.7
v -1.4 0 -1.7
v -1.4 0 -1.9
v -1.5 0 2
v -1.5 0 1.6
v -1.5 0 1.5
v -1.5 0 1
v -1.5 0 0.9
v -1.5 0 0.7
v -1.5 0 0.6
v -1.5 0 0.2
v -1.5 0 0.0999999
v -1.5 0 -0.1
v -1.5 0 -0.2
v -1.5 0 -0.6
v -1.5 0 -0.7
v -1.5 0 -0.9
v -1.5 0 -1
v -1.5 0 -1.5
v -1.5 0 -1.6
v -1.5 0 -2
v -1.6 0 0.9
v -1.6 0 0.7
v -1.6 0 0.0999999
v -1.6 0 -0.1
v -1.6 0 -0.7
v -1.6 0 -0.9
v -1.7 0 1.5
v -1.7 0 1
v -1.7 0 0.9
v -1.7 0 0.7
v -1.7 0 0.6
v -1.7 0 0.2
v -1.7 0 0.0999999
v -1.7 0 -0.1
v -1.7 0 -0.2
v -1.7 0 -0.6
v -1.7 0 -0.7
v -1.7 0 -0.9
v -1.7 0 -1
v -1.7 0 -1.5
v -1.8 0 1.6
v -1.8 0 0.9
v -1.8 0 0.7
v -1.8 0 0.0999999
v -1.8 0 -0.1
v -1.8 0 -0.7
v -1.8 0 -0.9
v -1.8 0 -1.6
v 1.4 0.4 -0.6
v 1.4 0.4 -0.8
v 1.2 0.4 1.2
v 1.2 0.4 -0.6
v 1.2 0.4 -0.8
v 1.2 0.4 -1.2
v 1.1 0.4 1.1
v 1.1 0.4 -1.1
v 1 0.4 1.4
v 1 0.4 1.2
v 1 0.4 -1.2
v 1 0.4 -1.4
v 0.9 0.4 1.3
v 0.9 0.4 1.1
v 0.9 0.4 -1.1
v 0.9 0.4 -1.3
v -0.9 0.4 1.3
v -0.9 0.4 1.1
v -0.9 0.4 -1.1
v -0.9 0.4 -1.3
v -1 0.4 1.4
v -1 0.4 1.2
v -1 0.4 -1.2
v -1 0.4 -1.4
v -1.1 0.4 1.1
v -1.1 0.4 -1.1
v -1.2 0.4 1.2
v -1.2 0.4 -1.2
v 1.4 0.5 -0.5
v 1.4 0.5 -0.6
v 1.4 0.5 -0.8
v 1.4 0.5 -0.9
v 1.2 0.5 -0.5
v 1.2 0.5 -0.6
v 1.2 0.5 -0.8
v 1.2 0.5 -0.9
v 1.3 0.6 -1.1
v 1.3 0.6 -1.3
v 1.3 0.6 -1.4
v 1.3 0.6 -1.5
v 1.2 0.6 -1.1
v 1.2 0.6 -1.2
v 1.2 0.6 -1.3
v 1.2 0.6 -1.4
v 1.2 0.6 -1.5
v 1.4 0.7 -0.3
v 1.4 0.7 -0.5
v 1.3 0.7 -0.9
v 1.3 0.7 -1
v 1.3 0.7 -1.6
v 1.3 0.7 -1.7
v 1.2 0.7 -0.3
v 1.2 0.7 -0.5
v 1.2 0.7 -0.9
v 1.2 0.7 -1
v 1.2 0.7 -1.6
v 1.2 0.7 -1.7
v 1.4 0.8 -0.2
v 1.4 0.8 -0.3
v 1.4 0.8 -0.5
v 1.4 0.8 -0.6
v 1.3 0.8 -0.8
v 1.3 0.8 -0.9
v 1.3 0.8 -1
v 1.3 0.8 -1.1
v 1.3 0.8 -1.3
v 1.3 0.8 -1.4
v 1.3 0.8 -1.5
v 1.3 0.8 -1.6
v 1.3 0.8 -1.7
v 1.3 0.8 -1.8
v 1.2 0.8 -0.2
v 1.2 0.8 -0.3
v 1.2 0.8 -0.5
v 1.2 0.8 -0.6
v 1.2 0.8 -0.8
v 1.2 0.8 -0.9
v 1.2 0.8 -1
v 1.2 0.8 -1.1
v 1.2 0.8 -1.3
v 1.2 0.8 -1.4
v 1.2 0.8 -1.5
v 1.2 0.8 -1.6
v 1.2 0.8 -1.7
v 1.2 0.8 -1.8
v 1.3 0.9 -0.7
v 1.3 0.9 -0.8
v 1.3 0.9 -1.8
v 1.3 0.9 -1.9
v 1.2 0.9 -0.7
v 1.2 0.9 -0.8
v 1.2 0.9 -1.8
v 1.2 0.9 -1.9
v 1.3 1 -0.6
v 1.3 1 -0.7
v 1.2 1 -0.6
v 1.2 1 -0.7
v 1.3 1.1 -0.5
v 1.3 1.1 -0.6
v 1.3 1.1 -0.7
v 1.3 1.1 -0.8
v 1.2 1.1 -0.5
v 1.2 1.1 -0.6
v 1.2 1.1 -0.7
v 1.2 1.1 -0.8
v 1.3 1.2 -0.4
v 1.3 1.2 -0.5
v 1.3 1.2 -0.8
v 1.3 1.2 -0.9
v 1.2 1.2 -0.4
v 1.2 1.2 -0.5
v 1.2 1.2 -0.8
v 1.2 1.2 -0.9
v 1.3 1.4 -0.3
v 1.3 1.4 -0.5
v 1.3 1.4 -0.8
v 1.3 1.4 -1
v 1.2 1.4 -0.3
v 1.2 1.4 -0.5
v 1.2 1.4 -0.8
v 1.2 1.4 -1
v 1.3 1.7 -0.3
v 1.3 1.7 -0.5
v 1.3 1.7 -0.8
v 1.3 1.7 -1
v 1.2 1.7 -0.3
v 1.2 1.7 -0.5
v 1.2 1.7 -0.8
v 1.2 1.7 -1
v 1.3 1.9 -0.4
v 1.3 1.9 -0.5
v 1.3 1.9 -0.8
v 1.3 1.9 -0.9
v 1.2 1.9 -0.4
v 1.2 1.9 -0.5
v 1.2 1.9 -0.8
v 1.2 1.9 -0.9
v 1.8 0.1 1.6
v 1.8 0.1 0.9
v 1.8 0.1 0.7
v 1.8 0.1 0.0999999
v 1.8 0.1 -0.1
v 1.8 0.1 -0.7
v 1.8 0.1 -0.9
v 1.8 0.1 -1.6
v 1.7 0.1 1.5
v 1.7 0.1 1
v 1.7 0.1 0.9
v 1.7 0.1 0.7
v 1.7 0.1 0.6
v 1.7 0.1 0.2
v 1.7 0.1 0.0999999
v 1.7 0.1 -0.1
v 1.7 0.1 -0.2
v 1.7 0.1 -0.6
v 1.7 0.1 -0.7
v 1.7 0.1 -0.9
v 1.7 0.1 -1
v 1.7 0.1 -1.5
v 1.6 0.1 0.9
v 1.6 0.1 0.7
v 1.6 0.1 0.0999999
v 1.6 0.1 -0.1
v 1.6 0.1 -0.7
v 1.6 0.1 -0.9
v 1.5 0.1 2
v 1.5 0.1 1.6
v 1.5 0.1 1.5
v 1.5 0.1 1
v 1.5 0.1 0.9
v 1.5 0.1 0.7
v 1.5 0.1 0.6
v 1.5 0.1 0.2
v 1.5 0.1 0.0999999
v 1.5 0.1 -0.1
v 1.5 0.1 -0.2
v 1.5 0.1 -0.6
v 1.5 0.1 -0.7
v 1.5 0.1 -0.9
v 1.5 0.1 -1
v 1.5 0.1 -1.5
v 1.5 0.1 -1.6
v 1.5 0.1 -2
v 1.4 0.1 1.9
v 1.4 0.1 1.7
v 1.4 0.1 1.4
v 1.4 0.1 -1.4
v 1.4 0.1 -1.7
v 1.4 0.1 -1.9
v 1.2 0.1 1.6
v 1.2 0.1 1.4
v 1.2 0.1 -1.4
v 1.2 0.1 -1.6
v 1 0.1 1.9
v 1 0.1 1.7
v 1 0.1 -1.7
v 1 0.1 -1.9
v 0.9 0.1 2
v 0.9 0.1 1.9
v 0.9 0.1 1.8
v 0.9 0.1 1.7
v 0.9 0.1 -1.7
v 0.9 0.1 -1.8
v 0.9 0.1 -1.9
v 0.9 0.1 -2
v 0.7 0.1 2
v 0.7 0.1 1.9
v 0.7 0.1 1.8
v 0.7 0.1 1.7
v 0.7 0.1 -1.7
v 0.7 0.1 -1.8
v 0.7 0.1 -1.9
v 0.7 0.1 -2
v 0.6 0.1 1.9
v 0.6 0.1 1.7
v 0.6 0.1 -1.7
v 0.6 0.1 -1.9
v 0.2 0.1 1.9
v 0.2 0.1 1.7
v 0.2 0.1 -1.7
v 0.2 0.1 -1.9
v 0.1 0.1 2
v 0.1 0.1 1.9
v 0.1 0.1 1.8
v 0.1 0.1 1.7
v 0.1 0.1 -1.7
v 0.1 0.1 -1.8
v 0.1 0.1 -1.9
v 0.1 0.1 -2
v -0.0999999 0.1 2
v -0.0999999 0.1 1.9
v -0.0999999 0.1 1.8
v -0.0999999 0.1 1.7
v -0.0999999 0.1 -1.7
v -0.0999999 0.1 -1.8
v -0.0999999 0.1 -1.9
v -0.0999999 0.1 -2
v -0.2 0.1 1.9
v -0.2 0.1 1.7
v -0.2 0.1 -1.7
v -0.2 0.1 -1.9
v -0.6 0.1 1.9
v -0.6 0.1 1.7
v -0.6 0.1 -1.7
v -0.6 0.1 -1.9
v -0.7 0.1 2
v -0.7 0.1 1.9
v -0.7 0.1 1.8
v -0.7 0.1 1.7
v -0.7 0.1 -1.7
v -0.7 0.1 -1.8
v -0.7 0.1 -1.9
v -0.7 0.1 -2
v -0.9 0.1 2
v -0.9 0.1 1.9
v -0.9 0.1 1.8
v -0.9 0.1 1.7
v -0.9 0.1 -1.7
v -0.9 0.1 -1.8
v -0.9 0.1 -1.9
v -0.9 0.1 -2
v -1 0.1 1.9
v -1 0.1 1.7
v -1 0.1 -1.7
v -1 0.1 -1.9
v -1.2 0.1 1.6
v -1.2 0.1 1.4
v -1.2 0.1 -1.4
v -1.2 0.1 -1.6
v -1.4 0.1 1.9
v -1.4 0.1 1.7
v -1.4 0.1 1.4
v -1.4 0.1 -1.4
v -1.4 0.1 -1.7
v -1.4 0.1 -1.9
v -1.5 0.1 2
v -1.5 0.1 1.6
v -1.5 0.1 1.5
v -1.5 0.1 1
v -1.5 0.1 0.9
v -1.5 0.1 0.7
v -1.5 0.1 0.6
v -1.5 0.1 0.2
v -1.5 0.1 0.0999999
v -1.5 0.1 -0.1
v -1.5 0.1 -0.2
v -1.5 0.1 -0.6
v -1.5 0.1 -0.7
v -1.5 0.1 -0.9
v -1.5 0.1 -1
v -1.5 0.1 -1.5
v -1.5 0.1 -1.6
v -1.5 0.1 -2
v -1.6 0.1 0.9
v -1.6 0.1 0.7
v -1.6 0.1 0.0999999
v -1.6 0.1 -0.1
v -1.6 0.1 -0.7
v -1.6 0.1 -0.9
v -1.7 0.1 1.5
v -1.7 0.1 1
v -1.7 0.1 0.9
v -1.7 0.1 0.7
v -1.7 0.1 0.6
v -1.7 0.1 0.2
v -1.7 0.1 0.0999999
v -1.7 0.1 -0.1
v -1.7 0.1 -0.2
v -1.7 0.1 -0.6
v -1.7 0.1 -0.7
v -1.7 0.1 -0.9
v -1.7 0.1 -1
v -1.7 0.1 -1.5
v -1.8 0.1 1.6
v -1.8 0.1 0.9
v -1.8 0.1 0.7
v -1.8 0.1 0.0999999
v -1.8 0.1 -0.1
v -1.8 0.1 -0.7
v -1.8 0.1 -0.9
v -1.8 0.1 -1.6
v 1.4 0.2 1.4
v 1.4 0.2 -1.4
v 1.2 0.2 1.6
v 1.2 0.2 1.4
v 1.2 0.2 -1.4
v 1.2 0.2 -1.6
v 1.1 0.2 1.1
v 1.1 0.2 -1.1
v 0.9 0.2 1.3
v 0.9 0.2 1.1
v 0.9 0.2 -1.1
v 0.9 0.2 -1.3
v -0.9 0.2 1.3
v -0.9 0.2 1.1
v -0.9 0.2 -1.1
v -0.9 0.2 -1.3
v -1.1 0.2 1.1
v -1.1 0.2 -1.1
v -1.2 0.2 1.6
v -1.2 0.2 1.4
v -1.2 0.2 -1.4
v -1.2 0.2 -1.6
v -1.4 0.2 1.4
v -1.4 0.2 -1.4
v 1.4 0.7 -0.5
v 1.4 0.7 -0.6
v 1.4 0.7 -0.8
v 1.4 0.7 -0.9
v 1.3 0.7 -0.9
v 1.2 0.7 -0.5
v 1.2 0.7 -0.6
v 1.2 0.7 -0.8
v 1.2 0.7 -0.9
v 1.4 0.8 -0.6
v 1.4 0.8 -0.8
v 1.3 0.8 -0.8
v 1.2 0.8 -0.6
v 1.2 0.8 -0.8
v 1.4 1 -0.2
v 1.4 1 -0.3
v 1.4 1 -0.5
v 1.4 1 -0.6
v 1.3 1 -0.6
v 1.3 1 -0.7
v 1.3 1 -0.8
v 1.3 1 -1.8
v 1.3 1 -1.9
v 1.2 1 -0.2
v 1.2 1 -0.3
v 1.2 1 -0.5
v 1.2 1 -0.6
v 1.2 1 -0.7
v 1.2 1 -0.8
v 1.2 1 -1.8
v 1.2 1 -1.9
v 1.4 1.1 -0.3
v 1.4 1.1 -0.5
v 1.3 1.1 -0.5
v 1.3 1.1 -0.8
v 1.3 1.1 -0.9
v 1.3 1.1 -1
v 1.3 1.1 -1.1
v 1.3 1.1 -1.3
v 1.3 1.1 -1.4
v 1.3 1.1 -1.5
v 1.3 1.1 -1.6
v 1.3 1.1 -1.7
v 1.3 1.1 -1.8
v 1.2 1.1 -0.3
v 1.2 1.1 -0.5
v 1.2 1.1 -0.8
v 1.2 1.1 -0.9
v 1.2 1.1 -1
v 1.2 1.1 -1.1
v 1.2 1.1 -1.3
v 1.2 1.1 -1.4
v 1.2 1.1 -1.5
v 1.2 1.1 -1.6
v 1.2 1.1 -1.7
v 1.2 1.1 -1.8
v 1.3 1.2 -0.9
v 1.3 1.2 -1
v 1.3 1.2 -1.6
v 1.3 1.2 -1.7
v 1.2 1.2 -0.9
v 1.2 1.2 -1
v 1.2 1.2 -1.6
v 1.2 1.2 -1.7
v 1.3 1.3 -0.4
v 1.3 1.3 -0.5
v 1.3 1.3 -0.8
v 1.3 1.3 -0.9
v 1.3 1.3 -1.1
v 1.3 1.3 -1.3
v 1.3 1.3 -1.4
v 1.3 1.3 -1.5
v 1.2 1.3 1.2
v 1.2 1.3 -0.4
v 1.2 1.3 -0.5
v 1.2 1.3 -0.8
v 1.2 1.3 -0.9
v 1.2 1.3 -1.1
v 1.2 1.3 -1.2
v 1.2 1.3 -1.3
v 1.2 1.3 -1.4
v 1.2 1.3 -1.5
v 1 1.3 1.4
v 1 1.3 1.2
v 1 1.3 -1.2
v 1 1.3 -1.4
v -1 1.3 1.4
v -1 1.3 1.2
v -1 1.3 -1.2
v -1 1.3 -1.4
v -1.2 1.3 1.2
v -1.2 1.3 -1.2
v 1 1.5 1.2
v 1 1.5 -1.2
v -1 1.5 1.2
v -1 1.5 -1.2
v 1.3 1.6 -0.3
v 1.3 1.6 -0.5
v 1.3 1.6 -0.8
v 1.3 1.6 -1
v 1.2 1.6 -0.3
v 1.2 1.6 -0.5
v 1.2 1.6 -0.8
v 1.2 1.6 -1
v 1.3 1.8 -0.3
v 1.3 1.8 -0.5
v 1.3 1.8 -0.8
v 1.3 1.8 -1
v 1.2 1.8 -0.3
v 1.2 1.8 -0.5
v 1.2 1.8 -0.8
v 1.2 1.8 -1
v 1.3 2 -0.4
v 1.3 2 -0.5
v 1.3 2 -0.8
v 1.3 2 -0.9
v 1.2 2 -0.4
v 1.2 2 -0.5
v 1.2 2 -0.8
v 1.2 2 -0.9
v 1.3 2.1 -0.5
v 1.3 2.1 -0.6
v 1.3 2.1 -0.7
v 1.3 2.1 -0.8
v 1.2 2.1 -0.5
v 1.2 2.1 -0.6
v 1.2 2.1 -0.7
v 1.2 2.1 -0.8
v 1.3 2.2 -0.6
v 1.3 2.2 -0.7
v 1.2 2.2 -0.6
v 1.2 2.2 -0.7

# faces
f 9/1/1 2/1/1 1/1/1
f 10/1/1 2/1/1 9/1/1
f 11/1/1 4/1/1 3/1/1
f 12/1/1 4/1/1 11/1/1
f 13/1/1 6/1/1 5/1/1
f 14/1/1 6/1/1 13/1/1
f 15/1/1 8/1/1 7/1/1
f 16/1/1 8/1/1 15/1/1
f 23/1/1 18/1/1 17/1/1
f 24/1/1 18/1/1 23/1/1
f 25/1/1 20/1/1 19/1/1
f 26/1/1 20/1/1 25/1/1
f 27/1/1 22/1/1 21/1/1
f 28/1/1 22/1/1 27/1/1
f 43/1/1 30/1/1 29/1/1
f 44/1/1 30/1/1 43/1/1
f 45/1/1 32/1/1 31/1/1
f 46/1/1 32/1/1 45/1/1
f 47/1/1 34/1/1 33/1/1
f 48/1/1 34/1/1 47/1/1
f 49/1/1 36/1/1 35/1/1
f 50/1/1 36/1/1 49/1/1
f 51/1/1 38/1/1 37/1/1
f 52/1/1 38/1/1 51/1/1
f 53/1/1 40/1/1 39/1/1
f 54/1/1 40/1/1 53/1/1
f 55/1/1 42/1/1 41/1/1
f 56/1/1 42/1/1 55/1/1
f 61/1/1 58/1/1 57/1/1
f 62/1/1 58/1/1 61/1/1
f 65/1/1 60/1/1 59/1/1
f 66/1/1 60/1/1 65/1/1
f 67/5/1 64/5/1 63/5/1
f 68/5/1 64/5/1 67/5/1
f 73/5/1 70/5/1 69/5/1
f 74/5/1 70/5/1 73/5/1
f 75/5/1 72/5/1 71/5/1
f 76/5/1 72/5/1 75/5/1
f 79/5/1 78/5/1 77/5/1
f 80/5/1 78/5/1 79/5/1
f 83/5/1 82/5/1 81/5/1
f 84/5/1 82/5/1 83/5/1
f 89/5/1 86/5/1 85/5/1
f 90/5/1 86/5/1 89/5/1
f 91/5/1 88/5/1 87/5/1
f 92/5/1 88/5/1 91/5/1
f 93/5/1 91/5/1 90/5/1
f 94/5/1 91/5/1 93/5/1
f 99/5/1 96/5/1 95/5/1
f 100/5/1 96/5/1 99/5/1
f 101/5/1 98/5/1 97/5/1
f 102/5/1 98/5/1 101/5/1
f 107/1/1 104/1/1 103/1/1
f 108/1/1 104/1/1 107/1/1
f 109/1/1 106/1/1 105/1/1
f 110/1/1 106/1/1 109/1/1
f 119/1/1 112/1/1 111/1/1
f 120/1/1 112/1/1 119/1/1
f 121/1/1 114/1/1 113/1/1
f 122/1/1 114/1/1 121/1/1
f 123/1/1 116/1/1 115/1/1
f 124/1/1 116/1/1 123/1/1
f 125/1/1 118/1/1 117/1/1
f 126/1/1 118/1/1 125/1/1
f 131/1/1 128/1/1 127/1/1
f 132/1/1 128/1/1 131/1/1
f 133/1/1 130/1/1 129/1/1
f 134/1/1 130/1/1 133/1/1
f 143/1/1 136/1/1 135/1/1
f 144/1/1 136/1/1 143/1/1
f 145/1/1 138/1/1 137/1/1
f 146/1/1 138/1/1 145/1/1
f 147/1/1 140/1/1 139/1/1
f 148/1/1 140/1/1 147/1/1
f 149/1/1 142/1/1 141/1/1
f 150/1/1 142/1/1 149/1/1
f 153/4/1 152/4/1 151/4/1
f 154/4/1 152/4/1 153/4/1
f 157/4/1 156/4/1 155/4/1
f 158/4/1 156/4/1 157/4/1
f 161/4/1 160/4/1 159/4/1
f 162/4/1 160/4/1 161/4/1
f 165/3/1 164/3/1 163/3/1
f 166/3/1 164/3/1 165/3/1
f 169/3/1 168/3/1 167/3/1
f 170/3/1 168/3/1 169/3/1
f 173/3/1 172/3/1 171/3/1
f 174/3/1 172/3/1 173/3/1
f 177/3/1 176/3/1 175/3/1
f 178/3/1 176/3/1 177/3/1
f 181/4/1 180/4/1 179/4/1
f 182/4/1 180/4/1 181/4/1
f 185/3/1 184/3/1 183/3/1
f 186/3/1 184/3/1 185/3/1
f 189/3/1 188/3/1 187/3/1
f 190/3/1 188/3/1 189/3/1
f 193/3/1 192/3/1 191/3/1
f 194/3/1 192/3/1 193/3/1
f 197/3/1 196/3/1 195/3/1
f 198/3/1 196/3/1 197/3/1
f 201/3/1 200/3/1 199/3/1
f 202/3/1 200/3/1 201/3/1
f 207/1/1 204/1/1 203/1/1
f 208/1/1 204/1/1 207/1/1
f 209/1/1 206/1/1 205/1/1
f 210/1/1 206/1/1 209/1/1
f 213/4/1 212/4/1 211/4/1
f 214/4/1 212/4/1 213/4/1
f 217/4/1 216/4/1 215/4/1
f 218/4/1 216/4/1 217/4/1
f 221/3/1 220/3/1 219/3/1
f 222/3/1 220/3/1 221/3/1
f 225/3/1 224/3/1 223/3/1
f 226/3/1 224/3/1 225/3/1
f 229/2/1 228/2/1 227/2/1
f 230/2/1 228/2/1 229/2/1
f 233/2/1 232/2/1 231/2/1
f 234/2/1 232/2/1 233/2/1
f 237/2/1 236/2/1 235/2/1
f 238/2/1 236/2/1 237/2/1
f 247/1/1 240/1/1 239/1/1
f 248/1/1 240/1/1 247/1/1
f 249/1/1 242/1/1 241/1/1
f 250/1/1 242/1/1 249/1/1
f 251/1/1 244/1/1 243/1/1
f 252/1/1 244/1/1 251/1/1
f 253/1/1 246/1/1 245/1/1
f 254/1/1 246/1/1 253/1/1
f 257/2/1 256/2/1 255/2/1
f 258/2/1 256/2/1 257/2/1
f 261/2/1 260/2/1 259/2/1
f 262/2/1 260/2/1 261/2/1
f 265/2/1 264/2/1 263/2/1
f 266/2/1 264/2/1 265/2/1
f 269/2/1 268/2/1 267/2/1
f 270/2/1 268/2/1 269/2/1
f 273/2/1 272/2/1 271/2/1
f 274/2/1 272/2/1 273/2/1
f 277/2/1 276/2/1 275/2/1
f 278/2/1 276/2/1 277/2/1
f 283/1/1 280/1/1 279/1/1
f 284/1/1 280/1/1 283/1/1
f 285/1/1 282/1/1 281/1/1
f 286/1/1 282/1/1 285/1/1
f 289/2/1 288/2/1 287/2/1
f 290/2/1 288/2/1 289/2/1
f 293/2/1 292/2/1 291/2/1
f 294/2/1 292/2/1 293/2/1
f 301/1/1 296/1/1 295/1/1
f 302/1/1 296/1/1 301/1/1
f 303/1/1 298/1/1 297/1/1
f 304/1/1 298/1/1 303/1/1
f 305/1/1 300/1/1 299/1/1
f 306/1/1 300/1/1 305/1/1
f 315/1/1 308/1/1 307/1/1
f 316/1/1 308/1/1 315/1/1
f 317/1/1 310/1/1 309/1/1
f 318/1/1 310/1/1 317/1/1
f 319/1/1 312/1/1 311/1/1
f 320/1/1 312/1/1 319/1/1
f 321/1/1 314/1/1 313/1/1
f 322/1/1 314/1/1 321/1/1
f 323/1/2 324/1/2 331/1/2
f 331/1/2 324/1/2 332/1/2
f 325/1/2 326/1/2 333/1/2
f 333/1/2 326/1/2 334/1/2
f 327/1/2 328/1/2 335/1/2
f 335/1/2 328/1/2 336/1/2
f 329/1/2 330/1/2 337/1/2
f 337/1/2 330/1/2 338/1/2
f 339/1/2 340/1/2 345/1/2
f 345/1/2 340/1/2 346/1/2
f 341/1/2 342/1/2 347/1/2
f 347/1/2 342/1/2 348/1/2
f 343/1/2 344/1/2 349/1/2
f 349/1/2 344/1/2 350/1/2
f 351/1/2 352/1/2 355/1/2
f 355/1/2 352/1/2 356/1/2
f 353/1/2 354/1/2 357/1/2
f 357/1/2 354/1/2 358/1/2
f 359/1/2 360/1/2 367/1/2
f 367/1/2 360/1/2 368/1/2
f 361/1/2 362/1/2 369/1/2
f 369/1/2 362/1/2 370/1/2
f 363/1/2 364/1/2 371/1/2
f 371/1/2 364/1/2 372/1/2
f 365/1/2 366/1/2 373/1/2
f 373/1/2 366/1/2 374/1/2
f 375/1/2 376/1/2 379/1/2
f 379/1/2 376/1/2 380/1/2
f 377/1/2 378/1/2 381/1/2
f 381/1/2 378/1/2 382/1/2
f 383/1/2 384/1/2 391/1/2
f 391/1/2 384/1/2 392/1/2
f 385/1/2 386/1/2 393/1/2
f 393/1/2 386/1/2 394/1/2
f 387/1/2 388/1/2 395/1/2
f 395/1/2 388/1/2 396/1/2
f 389/1/2 390/1/2 397/1/2
f 397/1/2 390/1/2 398/1/2
f 399/1/2 400/1/2 403/1/2
f 403/1/2 400/1/2 404/1/2
f 401/1/2 402/1/2 405/1/2
f 405/1/2 402/1/2 406/1/2
f 407/4/2 408/4/2 409/4/2
f 409/4/2 408/4/2 410/4/2
f 411/4/2 412/4/2 413/4/2
f 413/4/2 412/4/2 414/4/2
f 414/4/2 412/4/2 415/4/2
f 416/4/2 417/4/2 418/4/2
f 418/4/2 417/4/2 419/4/2
f 419/4/2 417/4/2 420/4/2
f 421/1/2 422/1/2 429/1/2
f 429/1/2 422/1/2 430/1/2
f 423/1/2 424/1/2 431/1/2
f 431/1/2 424/1/2 432/1/2
f 425/1/2 426/1/2 433/1/2
f 433/1/2 426/1/2 434/1/2
f 427/1/2 428/1/2 435/1/2
f 435/1/2 428/1/2 436/1/2
f 437/3/2 438/3/2 439/3/2
f 439/3/2 438/3/2 440/3/2
f 441/3/2 442/3/2 443/3/2
f 443/3/2 442/3/2 444/3/2
f 445/4/2 446/4/2 447/4/2
f 447/4/2 446/4/2 448/4/2
f 449/4/2 450/4/2 451/4/2
f 451/4/2 450/4/2 452/4/2
f 452/4/2 450/4/2 453/4/2
f 454/3/2 455/3/2 456/3/2
f 456/3/2 455/3/2 457/3/2
f 458/3/2 459/3/2 460/3/2
f 460/3/2 459/3/2 461/3/2
f 462/3/2 463/3/2 464/3/2
f 464/3/2 463/3/2 465/3/2
f 466/3/2 467/3/2 468/3/2
f 468/3/2 467/3/2 469/3/2
f 470/3/2 471/3/2 472/3/2
f 472/3/2 471/3/2 473/3/2
f 474/4/2 475/4/2 476/4/2
f 476/4/2 475/4/2 477/4/2
f 477/4/2 475/4/2 478/4/2
f 479/3/2 480/3/2 481/3/2
f 481/3/2 480/3/2 482/3/2
f 483/3/2 484/3/2 485/3/2
f 485/3/2 484/3/2 486/3/2
f 487/1/2 488/1/2 491/1/2
f 491/1/2 488/1/2 492/1/2
f 489/1/2 490/1/2 493/1/2
f 493/1/2 490/1/2 494/1/2
f 495/2/2 496/2/2 497/2/2
f 497/2/2 496/2/2 498/2/2
f 499/2/2 500/2/2 501/2/2
f 501/2/2 500/2/2 502/2/2
f 503/3/2 504/3/2 505/3/2
f 505/3/2 504/3/2 506/3/2
f 507/3/2 508/3/2 509/3/2
f 509/3/2 508/3/2 510/3/2
f 511/5/2 512/5/2 515/5/2
f 515/5/2 512/5/2 516/5/2
f 513/5/2 514/5/2 517/5/2
f 517/5/2 514/5/2 518/5/2
f 519/5/2 520/5/2 523/5/2
f 523/5/2 520/5/2 524/5/2
f 524/5/2 520/5/2 525/5/2
f 521/5/2 522/5/2 526/5/2
f 526/5/2 522/5/2 527/5/2
f 525/5/2 526/5/2 528/5/2
f 528/5/2 526/5/2 529/5/2
f 530/5/2 531/5/2 532/5/2
f 532/5/2 531/5/2 533/5/2
f 534/2/2 535/2/2 536/2/2
f 536/2/2 535/2/2 537/2/2
f 538/2/2 539/2/2 540/2/2
f 540/2/2 539/2/2 541/2/2
f 542/5/2 543/5/2 546/5/2
f 546/5/2 543/5/2 547/5/2
f 544/5/2 545/5/2 548/5/2
f 548/5/2 545/5/2 549/5/2
f 550/5/2 551/5/2 552/5/2
f 552/5/2 551/5/2 553/5/2
f 554/2/2 555/2/2 556/2/2
f 556/2/2 555/2/2 557/2/2
f 558/2/2 559/2/2 560/2/2
f 560/2/2 559/2/2 561/2/2
f 562/1/2 563/1/2 566/1/2
f 566/1/2 563/1/2 567/1/2
f 564/1/2 565/1/2 570/1/2
f 570/1/2 565/1/2 571/1/2
f 568/5/2 569/5/2 572/5/2
f 572/5/2 569/5/2 573/5/2
f 574/1/2 575/1/2 588/1/2
f 588/1/2 575/1/2 589/1/2
f 576/1/2 577/1/2 590/1/2
f 590/1/2 577/1/2 591/1/2
f 578/1/2 579/1/2 592/1/2
f 592/1/2 579/1/2 593/1/2
f 580/1/2 581/1/2 594/1/2
f 594/1/2 581/1/2 595/1/2
f 582/1/2 583/1/2 596/1/2
f 596/1/2 583/1/2 597/1/2
f 584/1/2 585/1/2 598/1/2
f 598/1/2 585/1/2 599/1/2
f 586/1/2 587/1/2 600/1/2
f 600/1/2 587/1/2 601/1/2
f 602/2/2 603/2/2 604/2/2
f 604/2/2 603/2/2 605/2/2
f 606/2/2 607/2/2 608/2/2
f 608/2/2 607/2/2 609/2/2
f 610/2/2 611/2/2 612/2/2
f 612/2/2 611/2/2 613/2/2
f 614/2/2 615/2/2 616/2/2
f 616/2/2 615/2/2 617/2/2
f 618/1/2 619/1/2 624/1/2
f 624/1/2 619/1/2 625/1/2
f 620/1/2 621/1/2 626/1/2
f 626/1/2 621/1/2 627/1/2
f 622/1/2 623/1/2 628/1/2
f 628/1/2 623/1/2 629/1/2
f 630/2/2 631/2/2 632/2/2
f 632/2/2 631/2/2 633/2/2
f 634/1/2 635/1/2 642/1/2
f 642/1/2 635/1/2 643/1/2
f 636/1/2 637/1/2 644/1/2
f 644/1/2 637/1/2 645/1/2
f 638/1/2 639/1/2 646/1/2
f 646/1/2 639/1/2 647/1/2
f 640/1/2 641/1/2 648/1/2
f 648/1/2 641/1/2 649/1/2
f 652/1/3 651/1/3 650/1/3
f 653/1/3 651/1/3 652/1/3
f 656/1/3 655/1/3 654/1/3
f 657/1/3 655/1/3 656/1/3
f 660/1/3 659/1/3 658/1/3
f 661/1/3 659/1/3 660/1/3
f 664/1/3 663/1/3 662/1/3
f 665/1/3 663/1/3 664/1/3
f 668/1/3 667/1/3 666/1/3
f 669/1/3 667/1/3 668/1/3
f 672/1/3 671/1/3 670/1/3
f 673/1/3 671/1/3 672/1/3
f 676/1/3 675/1/3 674/1/3
f 677/1/3 675/1/3 676/1/3
f 680/1/3 679/1/3 678/1/3
f 681/1/3 679/1/3 680/1/3
f 684/1/3 683/1/3 682/1/3
f 685/1/3 683/1/3 684/1/3
f 688/1/3 687/1/3 686/1/3
f 689/1/3 687/1/3 688/1/3
f 692/1/3 691/1/3 690/1/3
f 693/1/3 691/1/3 692/1/3
f 696/1/3 695/1/3 694/1/3
f 697/1/3 695/1/3 696/1/3
f 700/1/3 699/1/3 698/1/3
f 701/1/3 699/1/3 700/1/3
f 704/1/3 703/1/3 702/1/3
f 705/1/3 703/1/3 704/1/3
f 708/1/3 707/1/3 706/1/3
f 709/1/3 707/1/3 708/1/3
f 712/1/3 711/1/3 710/1/3
f 713/1/3 711/1/3 712/1/3
f 719/4/3 717/4/3 716/4/3
f 720/4/3 717/4/3 719/4/3
f 723/4/3 719/4/3 718/4/3
f 723/4/3 721/4/3 720/4/3
f 723/4/3 720/4/3 719/4/3
f 724/4/3 721/4/3 723/4/3
f 725/4/3 721/4/3 724/4/3
f 726/4/3 721/4/3 725/4/3
f 728/4/3 723/4/3 722/4/3
f 729/4/3 723/4/3 728/4/3
f 730/4/3 725/4/3 724/4/3
f 731/4/3 725/4/3 730/4/3
f 732/4/3 729/4/3 728/4/3
f 732/4/3 728/4/3 727/4/3
f 732/4/3 730/4/3 729/4/3
f 733/4/3 730/4/3 732/4/3
f 734/4/3 730/4/3 733/4/3
f 735/4/3 730/4/3 734/4/3
f 736/4/3 734/4/3 733/4/3
f 737/4/3 734/4/3 736/4/3
f 738/5/3 715/5/3 714/5/3
f 739/5/3 715/5/3 738/5/3
f 749/3/3 745/3/3 744/3/3
f 750/3/3 745/3/3 749/3/3
f 751/3/3 741/3/3 740/3/3
f 752/3/3 741/3/3 751/3/3
f 753/3/3 743/3/3 742/3/3
f 754/3/3 743/3/3 753/3/3
f 755/3/3 747/3/3 746/3/3
f 756/3/3 747/3/3 755/3/3
f 759/3/3 750/3/3 749/3/3
f 759/3/3 757/3/3 756/3/3
f 759/3/3 756/3/3 755/3/3
f 759/3/3 755/3/3 754/3/3
f 759/3/3 752/3/3 751/3/3
f 759/3/3 753/3/3 752/3/3
f 759/3/3 754/3/3 753/3/3
f 759/3/3 751/3/3 750/3/3
f 759/3/3 749/3/3 748/3/3
f 760/3/3 757/3/3 759/3/3
f 763/3/3 759/3/3 758/3/3
f 763/3/3 761/3/3 760/3/3
f 763/3/3 760/3/3 759/3/3
f 764/3/3 761/3/3 763/3/3
f 765/3/3 761/3/3 764/3/3
f 766/3/3 761/3/3 765/3/3
f 768/2/3 763/2/3 762/2/3
f 769/2/3 763/2/3 768/2/3
f 770/3/3 765/3/3 764/3/3
f 771/3/3 765/3/3 770/3/3
f 772/3/3 765/3/3 771/3/3
f 773/3/3 765/3/3 772/3/3
f 774/3/3 765/3/3 773/3/3
f 775/3/3 765/3/3 774/3/3
f 776/3/3 765/3/3 775/3/3
f 777/3/3 765/3/3 776/3/3
f 778/3/3 765/3/3 777/3/3
f 779/3/3 765/3/3 778/3/3
f 781/2/3 769/2/3 768/2/3
f 781/2/3 768/2/3 767/2/3
f 781/2/3 770/2/3 769/2/3
f 782/2/3 770/2/3 781/2/3
f 783/3/3 772/3/3 771/3/3
f 784/3/3 772/3/3 783/3/3
f 785/3/3 778/3/3 777/3/3
f 786/3/3 778/3/3 785/3/3
f 787/2/3 782/2/3 781/2/3
f 787/2/3 781/2/3 780/2/3
f 787/2/3 783/2/3 782/2/3
f 788/2/3 783/2/3 787/2/3
f 789/2/3 783/2/3 788/2/3
f 790/2/3 783/2/3 789/2/3
f 791/3/3 774/3/3 773/3/3
f 792/3/3 774/3/3 791/3/3
f 793/3/3 776/3/3 775/3/3
f 794/3/3 776/3/3 793/3/3
f 796/2/3 789/2/3 788/2/3
f 797/2/3 789/2/3 796/2/3
f 799/2/3 796/2/3 795/2/3
f 799/2/3 798/2/3 797/2/3
f 799/2/3 797/2/3 796/2/3
f 800/2/3 798/2/3 799/2/3
f 801/2/3 798/2/3 800/2/3
f 802/2/3 798/2/3 801/2/3
f 804/2/3 801/2/3 800/2/3
f 805/2/3 801/2/3 804/2/3
f 807/2/3 804/2/3 803/2/3
f 807/2/3 806/2/3 805/2/3
f 807/2/3 805/2/3 804/2/3
f 808/2/3 806/2/3 807/2/3
f 809/2/3 806/2/3 808/2/3
f 810/2/3 806/2/3 809/2/3
f 812/2/3 809/2/3 808/2/3
f 813/2/3 809/2/3 812/2/3
f 815/2/3 812/2/3 811/2/3
f 815/2/3 814/2/3 813/2/3
f 815/2/3 813/2/3 812/2/3
f 816/2/3 814/2/3 815/2/3
f 817/2/3 814/2/3 816/2/3
f 818/2/3 814/2/3 817/2/3
f 819/2/3 817/2/3 816/2/3
f 820/2/3 817/2/3 819/2/3
f 821/2/3 817/2/3 820/2/3
f 822/2/3 817/2/3 821/2/3
f 823/2/3 821/2/3 820/2/3
f 824/2/3 821/2/3 823/2/3
f 827/5/3 826/5/3 825/5/3
f 828/5/3 826/5/3 827/5/3
f 831/5/3 830/5/3 829/5/3
f 832/5/3 830/5/3 831/5/3
f 833/5/3 831/5/3 829/5/3
f 834/5/3 831/5/3 833/5/3
f 835/5/3 830/5/3 832/5/3
f 836/5/3 830/5/3 835/5/3
f 837/5/3 830/5/3 836/5/3
f 838/5/3 830/5/3 837/5/3
f 839/5/3 833/5/3 829/5/3
f 840/5/3 833/5/3 839/5/3
f 843/5/3 837/5/3 836/5/3
f 844/5/3 837/5/3 843/5/3
f 845/5/3 839/5/3 829/5/3
f 846/5/3 839/5/3 845/5/3
f 847/5/3 841/5/3 840/5/3
f 848/5/3 841/5/3 847/5/3
f 849/5/3 843/5/3 842/5/3
f 850/5/3 843/5/3 849/5/3
f 851/5/3 849/5/3 848/5/3
f 852/5/3 849/5/3 851/5/3
f 857/5/3 851/5/3 848/5/3
f 858/5/3 851/5/3 857/5/3
f 859/5/3 853/5/3 852/5/3
f 860/5/3 853/5/3 859/5/3
f 862/5/3 855/5/3 854/5/3
f 863/5/3 857/5/3 856/5/3
f 864/5/3 857/5/3 863/5/3
f 865/5/3 861/5/3 860/5/3
f 866/5/3 861/5/3 865/5/3
f 868/5/3 863/5/3 862/5/3
f 871/5/3 867/5/3 866/5/3
f 872/5/3 869/5/3 868/5/3
f 872/5/3 868/5/3 862/5/3
f 873/5/3 869/5/3 872/5/3
f 874/5/3 871/5/3 870/5/3
f 875/5/3 867/5/3 871/5/3
f 875/5/3 871/5/3 874/5/3
f 876/5/3 862/5/3 854/5/3
f 876/5/3 872/5/3 862/5/3
f 877/5/3 872/5/3 876/5/3
f 880/5/3 879/5/3 878/5/3
f 881/5/3 879/5/3 880/5/3
f 884/5/3 883/5/3 882/5/3
f 885/5/3 883/5/3 884/5/3
f 888/1/3 887/1/3 886/1/3
f 889/1/3 887/1/3 888/1/3
f 892/5/3 891/5/3 890/5/3
f 893/5/3 891/5/3 892/5/3
f 896/5/3 894/5/3 893/5/3
f 897/5/3 894/5/3 896/5/3
f 898/5/3 896/5/3 895/5/3
f 899/5/3 896/5/3 898/5/3
f 902/1/3 901/1/3 900/1/3
f 903/1/3 901/1/3 902/1/3
f 906/5/3 905/5/3 904/5/3
f 907/5/3 905/5/3 906/5/3
f 910/5/3 909/5/3 908/5/3
f 911/5/3 909/5/3 910/5/3
f 914/1/3 913/1/3 912/1/3
f 915/1/3 913/1/3 914/1/3
f 918/1/3 917/1/3 916/1/3
f 919/1/3 917/1/3 918/1/3
f 922/1/3 921/1/3 920/1/3
f 923/1/3 921/1/3 922/1/3
f 926/1/3 925/1/3 924/1/3
f 927/1/3 925/1/3 926/1/3
f 930/1/3 929/1/3 928/1/3
f 931/1/3 929/1/3 930/1/3
f 934/1/3 933/1/3 932/1/3
f 935/1/3 933/1/3 934/1/3
f 938/1/3 937/1/3 936/1/3
f 939/1/3 937/1/3 938/1/3
f 942/1/3 941/1/3 940/1/3
f 943/1/3 941/1/3 942/1/3
f 946/1/3 945/1/3 944/1/3
f 947/1/3 945/1/3 946/1/3
f 950/1/3 949/1/3 948/1/3
f 951/1/3 949/1/3 950/1/3
f 954/1/3 953/1/3 952/1/3
f 955/1/3 953/1/3 954/1/3
f 958/1/3 957/1/3 956/1/3
f 959/1/3 957/1/3 958/1/3
f 962/1/3 961/1/3 960/1/3
f 963/1/3 961/1/3 962/1/3
f 966/1/3 965/1/3 964/1/3
f 967/1/3 965/1/3 966/1/3
f 970/1/3 969/1/3 968/1/3
f 971/1/3 969/1/3 970/1/3
f 974/1/3 973/1/3 972/1/3
f 975/1/3 973/1/3 974/1/3
f 978/1/3 977/1/3 976/1/3
f 979/1/3 977/1/3 978/1/3
f 982/1/3 981/1/3 980/1/3
f 983/1/3 981/1/3 982/1/3
f 986/1/3 985/1/3 984/1/3
f 987/1/3 985/1/3 986/1/3
f 990/1/3 989/1/3 988/1/3
f 991/1/3 989/1/3 990/1/3
f 994/1/3 993/1/3 992/1/3
f 995/1/3 993/1/3 994/1/3
f 998/1/3 997/1/3 996/1/3
f 999/1/3 997/1/3 998/1/3
f 1002/1/3 1001/1/3 1000/1/3
f 1003/1/3 1001/1/3 1002/1/3
f 1006/1/3 1005/1/3 1004/1/3
f 1007/1/3 1005/1/3 1006/1/3
f 1010/1/3 1009/1/3 1008/1/3
f 1011/1/3 1009/1/3 1010/1/3
f 1012/1/4 1013/1/4 1014/1/4
f 1014/1/4 1013/1/4 1015/1/4
f 1016/1/4 1017/1/4 1018/1/4
f 1018/1/4 1017/1/4 1019/1/4
f 1020/1/4 1021/1/4 1022/1/4
f 1022/1/4 1021/1/4 1023/1/4
f 1024/1/4 1025/1/4 1026/1/4
f 1026/1/4 1025/1/4 1027/1/4
f 1028/1/4 1029/1/4 1030/1/4
f 1030/1/4 1029/1/4 1031/1/4
f 1032/1/4 1033/1/4 1034/1/4
f 1034/1/4 1033/1/4 1035/1/4
f 1036/1/4 1037/1/4 1038/1/4
f 1038/1/4 1037/1/4 1039/1/4
f 1040/1/4 1041/1/4 1042/1/4
f 1042/1/4 1041/1/4 1043/1/4
f 1044/1/4 1045/1/4 1046/1/4
f 1046/1/4 1045/1/4 1047/1/4
f 1048/3/4 1049/3/4 1055/3/4
f 1055/3/4 1049/3/4 1056/3/4
f 1050/3/4 1051/3/4 1057/3/4
f 1057/3/4 1051/3/4 1058/3/4
f 1052/3/4 1053/3/4 1059/3/4
f 1059/3/4 1053/3/4 1060/3/4
f 1057/3/4 1058/3/4 1062/3/4
f 1060/3/4 1061/3/4 1062/3/4
f 1059/3/4 1060/3/4 1062/3/4
f 1058/3/4 1059/3/4 1062/3/4
f 1055/3/4 1056/3/4 1062/3/4
f 1056/3/4 1057/3/4 1062/3/4
f 1054/3/4 1055/3/4 1062/3/4
f 1054/3/4 1062/3/4 1064/3/4
f 1062/3/4 1063/3/4 1064/3/4
f 1064/3/4 1063/3/4 1065/3/4
f 1054/3/4 1064/3/4 1066/3/4
f 1066/3/4 1064/3/4 1067/3/4
f 1067/3/4 1064/3/4 1068/3/4
f 1068/3/4 1064/3/4 1069/3/4
f 1069/3/4 1064/3/4 1070/3/4
f 1070/3/4 1064/3/4 1071/3/4
f 1071/3/4 1064/3/4 1072/3/4
f 1072/3/4 1064/3/4 1073/3/4
f 1071/3/4 1072/3/4 1074/3/4
f 1074/3/4 1072/3/4 1075/3/4
f 1067/3/4 1068/3/4 1076/3/4
f 1076/3/4 1068/3/4 1077/3/4
f 1069/3/4 1070/3/4 1078/3/4
f 1078/3/4 1070/3/4 1079/3/4
f 1080/2/4 1081/2/4 1082/2/4
f 1082/2/4 1081/2/4 1083/2/4
f 1083/2/4 1081/2/4 1084/2/4
f 1084/2/4 1081/2/4 1085/2/4
f 1083/2/4 1084/2/4 1087/2/4
f 1087/2/4 1084/2/4 1088/2/4
f 1086/2/4 1087/2/4 1090/2/4
f 1088/2/4 1089/2/4 1090/2/4
f 1087/2/4 1088/2/4 1090/2/4
f 1090/2/4 1089/2/4 1091/2/4
f 1091/2/4 1089/2/4 1092/2/4
f 1092/2/4 1089/2/4 1093/2/4
f 1091/2/4 1092/2/4 1095/2/4
f 1095/2/4 1092/2/4 1096/2/4
f 1094/2/4 1095/2/4 1098/2/4
f 1096/2/4 1097/2/4 1098/2/4
f 1095/2/4 1096/2/4 1098/2/4
f 1098/2/4 1097/2/4 1099/2/4
f 1099/2/4 1097/2/4 1100/2/4
f 1100/2/4 1097/2/4 1101/2/4
f 1099/2/4 1100/2/4 1102/2/4
f 1102/2/4 1100/2/4 1103/2/4
f 1103/2/4 1100/2/4 1104/2/4
f 1104/2/4 1100/2/4 1105/2/4
f 1103/2/4 1104/2/4 1106/2/4
f 1106/2/4 1104/2/4 1107/2/4
f 1108/1/4 1109/1/4 1110/1/4
f 1110/1/4 1109/1/4 1111/1/4
f 1112/1/4 1113/1/4 1114/1/4
f 1114/1/4 1113/1/4 1115/1/4
f 1116/1/4 1117/1/4 1118/1/4
f 1118/1/4 1117/1/4 1119/1/4
f 1120/1/4 1121/1/4 1122/1/4
f 1122/1/4 1121/1/4 1123/1/4
f 1124/1/4 1125/1/4 1126/1/4
f 1126/1/4 1125/1/4 1127/1/4
f 1128/1/4 1129/1/4 1130/1/4
f 1130/1/4 1129/1/4 1131/1/4
f 1132/1/4 1133/1/4 1134/1/4
f 1134/1/4 1133/1/4 1135/1/4
f 1136/1/4 1137/1/4 1138/1/4
f 1138/1/4 1137/1/4 1139/1/4
f 1140/1/4 1141/1/4 1142/1/4
f 1142/1/4 1141/1/4 1143/1/4
f 1144/1/4 1145/1/4 1146/1/4
f 1146/1/4 1145/1/4 1147/1/4
f 1148/1/4 1149/1/4 1150/1/4
f 1150/1/4 1149/1/4 1151/1/4
f 1152/1/4 1153/1/4 1154/1/4
f 1154/1/4 1153/1/4 1155/1/4
f 1156/1/4 1157/1/4 1158/1/4
f 1158/1/4 1157/1/4 1159/1/4
f 1160/1/4 1161/1/4 1162/1/4
f 1162/1/4 1161/1/4 1163/1/4
f 1164/1/4 1165/1/4 1166/1/4
f 1166/1/4 1165/1/4 1167/1/4
f 1168/1/4 1169/1/4 1170/1/4
f 1170/1/4 1169/1/4 1171/1/4
f 1172/5/4 1173/5/4 1174/5/4
f 1174/5/4 1173/5/4 1175/5/4
f 1176/5/4 1177/5/4 1178/5/4
f 1178/5/4 1177/5/4 1179/5/4
f 1180/1/4 1181/1/4 1182/1/4
f 1182/1/4 1181/1/4 1183/1/4
f 1184/5/4 1185/5/4 1186/5/4
f 1186/5/4 1185/5/4 1187/5/4
f 1187/5/4 1188/5/4 1190/5/4
f 1190/5/4 1188/5/4 1191/5/4
f 1189/5/4 1190/5/4 1192/5/4
f 1192/5/4 1190/5/4 1193/5/4
f 1194/1/4 1195/1/4 1196/1/4
f 1196/1/4 1195/1/4 1197/1/4
f 1198/5/4 1199/5/4 1200/5/4
f 1200/5/4 1199/5/4 1201/5/4
f 1202/5/4 1203/5/4 1204/5/4
f 1204/5/4 1203/5/4 1205/5/4
f 1206/5/4 1207/5/4 1208/5/4
f 1208/5/4 1207/5/4 1209/5/4
f 1210/5/4 1211/5/4 1212/5/4
f 1212/5/4 1211/5/4 1213/5/4
f 1214/5/4 1215/5/4 1216/5/4
f 1216/5/4 1215/5/4 1217/5/4
f 1218/1/4 1219/1/4 1220/1/4
f 1220/1/4 1219/1/4 1221/1/4
f 1222/1/4 1223/1/4 1224/1/4
f 1224/1/4 1223/1/4 1225/1/4
f 1226/1/4 1227/1/4 1228/1/4
f 1228/1/4 1227/1/4 1229/1/4
f 1230/1/4 1231/1/4 1232/1/4
f 1232/1/4 1231/1/4 1233/1/4
f 1234/1/4 1235/1/4 1236/1/4
f 1236/1/4 1235/1/4 1237/1/4
f 1238/1/4 1239/1/4 1240/1/4
f 1240/1/4 1239/1/4 1241/1/4
f 1242/1/4 1243/1/4 1244/1/4
f 1244/1/4 1243/1/4 1245/1/4
f 1246/1/4 1247/1/4 1248/1/4
f 1248/1/4 1247/1/4 1249/1/4
f 1250/1/4 1251/1/4 1252/1/4
f 1252/1/4 1251/1/4 1253/1/4
f 1254/1/4 1255/1/4 1256/1/4
f 1256/1/4 1255/1/4 1257/1/4
f 1258/1/4 1259/1/4 1260/1/4
f 1260/1/4 1259/1/4 1261/1/4
f 1262/1/4 1263/1/4 1264/1/4
f 1264/1/4 1263/1/4 1265/1/4
f 1266/1/4 1267/1/4 1268/1/4
f 1268/1/4 1267/1/4 1269/1/4
f 1270/1/4 1271/1/4 1272/1/4
f 1272/1/4 1271/1/4 1273/1/4
f 1274/1/4 1275/1/4 1276/1/4
f 1276/1/4 1275/1/4 1277/1/4
f 1278/1/4 1279/1/4 1280/1/4
f 1280/1/4 1279/1/4 1281/1/4
f 1290/1/5 1283/1/5 1282/1/5
f 1291/1/5 1283/1/5 1290/1/5
f 1292/1/5 1283/1/5 1291/1/5
f 1293/1/5 1285/1/5 1284/1/5
f 1294/1/5 1285/1/5 1293/1/5
f 1295/1/5 1285/1/5 1294/1/5
f 1296/1/5 1285/1/5 1295/1/5
f 1297/1/5 1287/1/5 1286/1/5
f 1298/1/5 1287/1/5 1297/1/5
f 1299/1/5 1287/1/5 1298/1/5
f 1300/1/5 1287/1/5 1299/1/5
f 1301/1/5 1289/1/5 1288/1/5
f 1302/1/5 1289/1/5 1301/1/5
f 1303/1/5 1289/1/5 1302/1/5
f 1304/1/5 1292/1/5 1291/1/5
f 1304/1/5 1293/1/5 1292/1/5
f 1304/1/5 1294/1/5 1293/1/5
f 1305/1/5 1294/1/5 1304/1/5
f 1306/1/5 1296/1/5 1295/1/5
f 1306/1/5 1298/1/5 1297/1/5
f 1306/1/5 1297/1/5 1296/1/5
f 1307/1/5 1298/1/5 1306/1/5
f 1308/1/5 1300/1/5 1299/1/5
f 1308/1/5 1302/1/5 1301/1/5
f 1308/1/5 1301/1/5 1300/1/5
f 1309/1/5 1302/1/5 1308/1/5
f 1311/1/5 1290/1/5 1282/1/5
f 1312/1/5 1290/1/5 1311/1/5
f 1313/1/5 1304/1/5 1291/1/5
f 1314/1/5 1304/1/5 1313/1/5
f 1315/1/5 1294/1/5 1305/1/5
f 1316/1/5 1294/1/5 1315/1/5
f 1317/1/5 1306/1/5 1295/1/5
f 1318/1/5 1306/1/5 1317/1/5
f 1319/1/5 1298/1/5 1307/1/5
f 1320/1/5 1298/1/5 1319/1/5
f 1321/1/5 1308/1/5 1299/1/5
f 1322/1/5 1308/1/5 1321/1/5
f 1323/1/5 1302/1/5 1309/1/5
f 1324/1/5 1302/1/5 1323/1/5
f 1325/1/5 1289/1/5 1303/1/5
f 1326/1/5 1289/1/5 1325/1/5
f 1328/1/5 1318/1/5 1317/1/5
f 1328/1/5 1327/1/5 1326/1/5
f 1328/1/5 1326/1/5 1325/1/5
f 1328/1/5 1325/1/5 1324/1/5
f 1328/1/5 1324/1/5 1323/1/5
f 1328/1/5 1323/1/5 1322/1/5
f 1328/1/5 1314/1/5 1313/1/5
f 1328/1/5 1321/1/5 1320/1/5
f 1328/1/5 1312/1/5 1311/1/5
f 1328/1/5 1319/1/5 1318/1/5
f 1328/1/5 1322/1/5 1321/1/5
f 1328/1/5 1317/1/5 1316/1/5
f 1328/1/5 1316/1/5 1315/1/5
f 1328/1/5 1315/1/5 1314/1/5
f 1328/1/5 1320/1/5 1319/1/5
f 1328/1/5 1313/1/5 1312/1/5
f 1328/1/5 1311/1/5 1310/1/5
f 1329/1/5 1327/1/5 1328/1/5
f 1330/1/5 1327/1/5 1329/1/5
f 1331/1/5 1327/1/5 1330/1/5
f 1332/1/5 1328/1/5 1310/1/5
f 1333/1/5 1330/1/5 1329/1/5
f 1334/1/5 1330/1/5 1333/1/5
f 1335/1/5 1327/1/5 1331/1/5
f 1336/1/5 1334/1/5 1333/1/5
f 1336/1/5 1335/1/5 1334/1/5
f 1336/1/5 1332/1/5 1310/1/5
f 1336/1/5 1333/1/5 1332/1/5
f 1337/1/5 1335/1/5 1336/1/5
f 1338/1/5 1335/1/5 1337/1/5
f 1339/1/5 1335/1/5 1338/1/5
f 1340/1/5 1335/1/5 1339/1/5
f 1341/1/5 1335/1/5 1340/1/5
f 1342/1/5 1327/1/5 1335/1/5
f 1342/1/5 1335/1/5 1341/1/5
f 1343/1/5 1327/1/5 1342/1/5
f 1345/1/5 1338/1/5 1337/1/5
f 1346/1/5 1338/1/5 1345/1/5
f 1347/1/5 1340/1/5 1339/1/5
f 1348/1/5 1340/1/5 1347/1/5
f 1349/1/5 1342/1/5 1341/1/5
f 1350/1/5 1342/1/5 1349/1/5
f 1352/1/5 1348/1/5 1347/1/5
f 1352/1/5 1351/1/5 1350/1/5
f 1352/1/5 1350/1/5 1349/1/5
f 1352/1/5 1349/1/5 1348/1/5
f 1352/1/5 1346/1/5 1345/1/5
f 1352/1/5 1347/1/5 1346/1/5
f 1352/1/5 1345/1/5 1344/1/5
f 1353/1/5 1351/1/5 1352/1/5
f 1354/1/5 1351/1/5 1353/1/5
f 1355/1/5 1351/1/5 1354/1/5
f 1356/1/5 1352/1/5 1344/1/5
f 1357/1/5 1354/1/5 1353/1/5
f 1358/1/5 1354/1/5 1357/1/5
f 1359/1/5 1351/1/5 1355/1/5
f 1360/1/5 1358/1/5 1357/1/5
f 1360/1/5 1359/1/5 1358/1/5
f 1360/1/5 1356/1/5 1344/1/5
f 1360/1/5 1357/1/5 1356/1/5
f 1361/1/5 1359/1/5 1360/1/5
f 1362/1/5 1359/1/5 1361/1/5
f 1363/1/5 1359/1/5 1362/1/5
f 1364/1/5 1359/1/5 1363/1/5
f 1365/1/5 1359/1/5 1364/1/5
f 1366/1/5 1351/1/5 1359/1/5
f 1366/1/5 1359/1/5 1365/1/5
f 1367/1/5 1351/1/5 1366/1/5
f 1369/1/5 1362/1/5 1361/1/5
f 1370/1/5 1362/1/5 1369/1/5
f 1371/1/5 1364/1/5 1363/1/5
f 1372/1/5 1364/1/5 1371/1/5
f 1373/1/5 1366/1/5 1365/1/5
f 1374/1/5 1366/1/5 1373/1/5
f 1376/1/5 1372/1/5 1371/1/5
f 1376/1/5 1375/1/5 1374/1/5
f 1376/1/5 1374/1/5 1373/1/5
f 1376/1/5 1373/1/5 1372/1/5
f 1376/1/5 1370/1/5 1369/1/5
f 1376/1/5 1371/1/5 1370/1/5
f 1376/1/5 1369/1/5 1368/1/5
f 1377/1/5 1375/1/5 1376/1/5
f 1378/1/5 1375/1/5 1377/1/5
f 1379/1/5 1375/1/5 1378/1/5
f 1380/1/5 1376/1/5 1368/1/5
f 1381/1/5 1378/1/5 1377/1/5
f 1382/1/5 1378/1/5 1381/1/5
f 1383/1/5 1375/1/5 1379/1/5
f 1384/1/5 1382/1/5 1381/1/5
f 1384/1/5 1383/1/5 1382/1/5
f 1384/1/5 1380/1/5 1368/1/5
f 1384/1/5 1381/1/5 1380/1/5
f 1385/1/5 1383/1/5 1384/1/5
f 1386/1/5 1383/1/5 1385/1/5
f 1387/1/5 1383/1/5 1386/1/5
f 1388/1/5 1383/1/5 1387/1/5
f 1389/1/5 1383/1/5 1388/1/5
f 1390/1/5 1375/1/5 1383/1/5
f 1390/1/5 1383/1/5 1389/1/5
f 1391/1/5 1375/1/5 1390/1/5
f 1393/1/5 1386/1/5 1385/1/5
f 1394/1/5 1386/1/5 1393/1/5
f 1395/1/5 1388/1/5 1387/1/5
f 1396/1/5 1388/1/5 1395/1/5
f 1397/1/5 1390/1/5 1389/1/5
f 1398/1/5 1390/1/5 1397/1/5
f 1400/1/5 1396/1/5 1395/1/5
f 1400/1/5 1399/1/5 1398/1/5
f 1400/1/5 1398/1/5 1397/1/5
f 1400/1/5 1397/1/5 1396/1/5
f 1400/1/5 1394/1/5 1393/1/5
f 1400/1/5 1395/1/5 1394/1/5
f 1400/1/5 1393/1/5 1392/1/5
f 1401/1/5 1399/1/5 1400/1/5
f 1402/1/5 1399/1/5 1401/1/5
f 1403/1/5 1399/1/5 1402/1/5
f 1404/1/5 1400/1/5 1392/1/5
f 1405/1/5 1402/1/5 1401/1/5
f 1406/1/5 1402/1/5 1405/1/5
f 1407/1/5 1399/1/5 1403/1/5
f 1408/1/5 1406/1/5 1405/1/5
f 1408/1/5 1407/1/5 1406/1/5
f 1408/1/5 1404/1/5 1392/1/5
f 1408/1/5 1405/1/5 1404/1/5
f 1409/1/5 1407/1/5 1408/1/5
f 1410/1/5 1407/1/5 1409/1/5
f 1411/1/5 1407/1/5 1410/1/5
f 1412/1/5 1407/1/5 1411/1/5
f 1413/1/5 1407/1/5 1412/1/5
f 1414/1/5 1407/1/5 1413/1/5
f 1415/1/5 1407/1/5 1414/1/5
f 1416/1/5 1407/1/5 1415/1/5
f 1417/1/5 1407/1/5 1416/1/5
f 1418/1/5 1407/1/5 1417/1/5
f 1419/1/5 1407/1/5 1418/1/5
f 1420/1/5 1407/1/5 1419/1/5
f 1421/1/5 1407/1/5 1420/1/5
f 1422/1/5 1407/1/5 1421/1/5
f 1423/1/5 1407/1/5 1422/1/5
f 1424/1/5 1407/1/5 1423/1/5
f 1425/1/5 1399/1/5 1407/1/5
f 1425/1/5 1407/1/5 1424/1/5
f 1426/1/5 1412/1/5 1411/1/5
f 1427/1/5 1414/1/5 1413/1/5
f 1428/1/5 1416/1/5 1415/1/5
f 1429/1/5 1418/1/5 1417/1/5
f 1430/1/5 1420/1/5 1419/1/5
f 1431/1/5 1422/1/5 1421/1/5
f 1432/1/5 1410/1/5 1409/1/5
f 1433/1/5 1426/1/5 1411/1/5
f 1433/1/5 1427/1/5 1426/1/5
f 1434/1/5 1427/1/5 1433/1/5
f 1435/1/5 1414/1/5 1427/1/5
f 1435/1/5 1427/1/5 1434/1/5
f 1436/1/5 1414/1/5 1435/1/5
f 1437/1/5 1429/1/5 1428/1/5
f 1437/1/5 1428/1/5 1415/1/5
f 1438/1/5 1429/1/5 1437/1/5
f 1439/1/5 1418/1/5 1429/1/5
f 1439/1/5 1429/1/5 1438/1/5
f 1440/1/5 1418/1/5 1439/1/5
f 1441/1/5 1431/1/5 1430/1/5
f 1441/1/5 1430/1/5 1419/1/5
f 1442/1/5 1431/1/5 1441/1/5
f 1443/1/5 1422/1/5 1431/1/5
f 1443/1/5 1431/1/5 1442/1/5
f 1444/1/5 1422/1/5 1443/1/5
f 1445/1/5 1424/1/5 1423/1/5
f 1446/1/5 1432/1/5 1409/1/5
f 1446/1/5 1434/1/5 1433/1/5
f 1446/1/5 1433/1/5 1432/1/5
f 1447/1/5 1434/1/5 1446/1/5
f 1448/1/5 1436/1/5 1435/1/5
f 1448/1/5 1438/1/5 1437/1/5
f 1448/1/5 1437/1/5 1436/1/5
f 1449/1/5 1438/1/5 1448/1/5
f 1450/1/5 1440/1/5 1439/1/5
f 1450/1/5 1442/1/5 1441/1/5
f 1450/1/5 1441/1/5 1440/1/5
f 1451/1/5 1442/1/5 1450/1/5
f 1452/1/5 1444/1/5 1443/1/5
f 1452/1/5 1445/1/5 1444/1/5
f 1453/1/5 1424/1/5 1445/1/5
f 1453/1/5 1445/1/5 1452/1/5
f 1457/4/5 1455/4/5 1454/4/5
f 1458/4/5 1455/4/5 1457/4/5
f 1460/5/5 1457/5/5 1456/5/5
f 1460/5/5 1459/5/5 1458/5/5
f 1460/5/5 1458/5/5 1457/5/5
f 1461/5/5 1459/5/5 1460/5/5
f 1463/5/5 1460/5/5 1456/5/5
f 1464/5/5 1459/5/5 1461/5/5
f 1466/5/5 1463/5/5 1462/5/5
f 1467/5/5 1460/5/5 1463/5/5
f 1467/5/5 1463/5/5 1466/5/5
f 1468/5/5 1465/5/5 1464/5/5
f 1468/5/5 1464/5/5 1461/5/5
f 1469/5/5 1465/5/5 1468/5/5
f 1470/5/5 1466/5/5 1462/5/5
f 1473/5/5 1465/5/5 1469/5/5
f 1474/5/5 1471/5/5 1470/5/5
f 1474/5/5 1470/5/5 1462/5/5
f 1475/5/5 1471/5/5 1474/5/5
f 1476/5/5 1473/5/5 1472/5/5
f 1477/5/5 1465/5/5 1473/5/5
f 1477/5/5 1473/5/5 1476/5/5
f 1478/5/5 1471/5/5 1475/5/5
f 1479/5/5 1476/5/5 1472/5/5
f 1480/5/5 1478/5/5 1475/5/5
f 1480/5/5 1479/5/5 1478/5/5
f 1481/5/5 1476/5/5 1479/5/5
f 1481/5/5 1479/5/5 1480/5/5
f 1486/4/5 1483/4/5 1482/4/5
f 1487/4/5 1483/4/5 1486/4/5
f 1488/4/5 1485/4/5 1484/4/5
f 1489/4/5 1485/4/5 1488/4/5
f 1494/2/5 1491/2/5 1490/2/5
f 1495/2/5 1491/2/5 1494/2/5
f 1496/2/5 1491/2/5 1495/2/5
f 1497/2/5 1493/2/5 1492/2/5
f 1498/2/5 1493/2/5 1497/2/5
f 1505/4/5 1500/4/5 1499/4/5
f 1506/4/5 1500/4/5 1505/4/5
f 1507/2/5 1502/2/5 1501/2/5
f 1508/2/5 1502/2/5 1507/2/5
f 1509/2/5 1504/2/5 1503/2/5
f 1510/2/5 1504/2/5 1509/2/5
f 1525/4/5 1512/4/5 1511/4/5
f 1526/4/5 1512/4/5 1525/4/5
f 1527/4/5 1514/4/5 1513/4/5
f 1528/4/5 1514/4/5 1527/4/5
f 1529/2/5 1516/2/5 1515/2/5
f 1530/2/5 1516/2/5 1529/2/5
f 1531/2/5 1518/2/5 1517/2/5
f 1532/2/5 1518/2/5 1531/2/5
f 1533/2/5 1520/2/5 1519/2/5
f 1534/2/5 1520/2/5 1533/2/5
f 1535/2/5 1522/2/5 1521/2/5
f 1536/2/5 1522/2/5 1535/2/5
f 1537/2/5 1524/2/5 1523/2/5
f 1538/2/5 1524/2/5 1537/2/5
f 1543/2/5 1540/2/5 1539/2/5
f 1544/2/5 1540/2/5 1543/2/5
f 1545/2/5 1542/2/5 1541/2/5
f 1546/2/5 1542/2/5 1545/2/5
f 1549/3/5 1548/3/5 1547/3/5
f 1550/3/5 1548/3/5 1549/3/5
f 1555/3/5 1552/3/5 1551/3/5
f 1556/3/5 1552/3/5 1555/3/5
f 1557/3/5 1554/3/5 1553/3/5
f 1558/3/5 1554/3/5 1557/3/5
f 1563/3/5 1560/3/5 1559/3/5
f 1564/3/5 1560/3/5 1563/3/5
f 1565/3/5 1562/3/5 1561/3/5
f 1566/3/5 1562/3/5 1565/3/5
f 1571/3/5 1568/3/5 1567/3/5
f 1572/3/5 1568/3/5 1571/3/5
f 1573/3/5 1570/3/5 1569/3/5
f 1574/3/5 1570/3/5 1573/3/5
f 1579/3/5 1576/3/5 1575/3/5
f 1580/3/5 1576/3/5 1579/3/5
f 1581/3/5 1578/3/5 1577/3/5
f 1582/3/5 1578/3/5 1581/3/5
f 1587/3/5 1584/3/5 1583/3/5
f 1588/3/5 1584/3/5 1587/3/5
f 1589/3/5 1586/3/5 1585/3/5
f 1590/3/5 1586/3/5 1589/3/5
f 1591/1/6 1592/1/6 1599/1/6
f 1599/1/6 1592/1/6 1600/1/6
f 1600/1/6 1592/1/6 1601/1/6
f 1593/1/6 1594/1/6 1602/1/6
f 1602/1/6 1594/1/6 1603/1/6
f 1603/1/6 1594/1/6 1604/1/6
f 1604/1/6 1594/1/6 1605/1/6
f 1595/1/6 1596/1/6 1606/1/6
f 1606/1/6 1596/1/6 1607/1/6
f 1607/1/6 1596/1/6 1608/1/6
f 1608/1/6 1596/1/6 1609/1/6
f 1597/1/6 1598/1/6 1610/1/6
f 1610/1/6 1598/1/6 1611/1/6
f 1611/1/6 1598/1/6 1612/1/6
f 1600/1/6 1601/1/6 1613/1/6
f 1601/1/6 1602/1/6 1613/1/6
f 1602/1/6 1603/1/6 1613/1/6
f 1613/1/6 1603/1/6 1614/1/6
f 1604/1/6 1605/1/6 1615/1/6
f 1606/1/6 1607/1/6 1615/1/6
f 1605/1/6 1606/1/6 1615/1/6
f 1615/1/6 1607/1/6 1616/1/6
f 1608/1/6 1609/1/6 1617/1/6
f 1610/1/6 1611/1/6 1617/1/6
f 1609/1/6 1610/1/6 1617/1/6
f 1617/1/6 1611/1/6 1618/1/6
f 1591/1/6 1599/1/6 1620/1/6
f 1620/1/6 1599/1/6 1621/1/6
f 1600/1/6 1613/1/6 1622/1/6
f 1622/1/6 1613/1/6 1623/1/6
f 1614/1/6 1603/1/6 1624/1/6
f 1624/1/6 1603/1/6 1625/1/6
f 1604/1/6 1615/1/6 1626/1/6
f 1626/1/6 1615/1/6 1627/1/6
f 1616/1/6 1607/1/6 1628/1/6
f 1628/1/6 1607/1/6 1629/1/6
f 1608/1/6 1617/1/6 1630/1/6
f 1630/1/6 1617/1/6 1631/1/6
f 1618/1/6 1611/1/6 1632/1/6
f 1632/1/6 1611/1/6 1633/1/6
f 1612/1/6 1598/1/6 1634/1/6
f 1634/1/6 1598/1/6 1635/1/6
f 1626/1/6 1627/1/6 1637/1/6
f 1635/1/6 1636/1/6 1637/1/6
f 1634/1/6 1635/1/6 1637/1/6
f 1633/1/6 1634/1/6 1637/1/6
f 1632/1/6 1633/1/6 1637/1/6
f 1631/1/6 1632/1/6 1637/1/6
f 1622/1/6 1623/1/6 1637/1/6
f 1629/1/6 1630/1/6 1637/1/6
f 1620/1/6 1621/1/6 1637/1/6
f 1627/1/6 1628/1/6 1637/1/6
f 1630/1/6 1631/1/6 1637/1/6
f 1625/1/6 1626/1/6 1637/1/6
f 1624/1/6 1625/1/6 1637/1/6
f 1623/1/6 1624/1/6 1637/1/6
f 1628/1/6 1629/1/6 1637/1/6
f 1621/1/6 1622/1/6 1637/1/6
f 1619/1/6 1620/1/6 1637/1/6
f 1637/1/6 1636/1/6 1638/1/6
f 1638/1/6 1636/1/6 1639/1/6
f 1639/1/6 1636/1/6 1640/1/6
f 1640/1/6 1636/1/6 1641/1/6
f 1641/1/6 1636/1/6 1642/1/6
f 1638/1/6 1639/1/6 1643/1/6
f 1643/1/6 1639/1/6 1644/1/6
f 1640/1/6 1641/1/6 1645/1/6
f 1645/1/6 1641/1/6 1646/1/6
f 1619/1/6 1637/1/6 1647/1/6
f 1638/1/6 1643/1/6 1648/1/6
f 1646/1/6 1641/1/6 1649/1/6
f 1642/1/6 1636/1/6 1650/1/6
f 1647/1/6 1648/1/6 1651/1/6
f 1619/1/6 1647/1/6 1651/1/6
f 1651/1/6 1648/1/6 1652/1/6
f 1652/1/6 1648/1/6 1653/1/6
f 1648/1/6 1643/1/6 1654/1/6
f 1653/1/6 1648/1/6 1654/1/6
f 1649/1/6 1650/1/6 1655/1/6
f 1646/1/6 1649/1/6 1655/1/6
f 1655/1/6 1650/1/6 1656/1/6
f 1650/1/6 1636/1/6 1657/1/6
f 1656/1/6 1650/1/6 1657/1/6
f 1657/1/6 1636/1/6 1658/1/6
f 1652/1/6 1653/1/6 1660/1/6
f 1660/1/6 1653/1/6 1661/1/6
f 1654/1/6 1643/1/6 1662/1/6
f 1646/1/6 1655/1/6 1663/1/6
f 1656/1/6 1657/1/6 1664/1/6
f 1664/1/6 1657/1/6 1665/1/6
f 1660/1/6 1661/1/6 1667/1/6
f 1661/1/6 1662/1/6 1667/1/6
f 1659/1/6 1660/1/6 1667/1/6
f 1662/1/6 1643/1/6 1668/1/6
f 1667/1/6 1662/1/6 1668/1/6
f 1665/1/6 1666/1/6 1669/1/6
f 1646/1/6 1663/1/6 1669/1/6
f 1664/1/6 1665/1/6 1669/1/6
f 1663/1/6 1664/1/6 1669/1/6
f 1669/1/6 1666/1/6 1670/1/6
f 1659/1/6 1667/1/6 1671/1/6
f 1668/1/6 1643/1/6 1672/1/6
f 1646/1/6 1669/1/6 1673/1/6
f 1670/1/6 1666/1/6 1674/1/6
f 1659/1/6 1671/1/6 1675/1/6
f 1671/1/6 1672/1/6 1675/1/6
f 1675/1/6 1672/1/6 1676/1/6
f 1676/1/6 1672/1/6 1677/1/6
f 1672/1/6 1643/1/6 1678/1/6
f 1677/1/6 1672/1/6 1678/1/6
f 1673/1/6 1674/1/6 1679/1/6
f 1646/1/6 1673/1/6 1679/1/6
f 1679/1/6 1674/1/6 1680/1/6
f 1674/1/6 1666/1/6 1681/1/6
f 1680/1/6 1674/1/6 1681/1/6
f 1681/1/6 1666/1/6 1682/1/6
f 1676/1/6 1677/1/6 1684/1/6
f 1684/1/6 1677/1/6 1685/1/6
f 1678/1/6 1643/1/6 1686/1/6
f 1646/1/6 1679/1/6 1687/1/6
f 1680/1/6 1681/1/6 1688/1/6
f 1688/1/6 1681/1/6 1689/1/6
f 1684/1/6 1685/1/6 1691/1/6
f 1685/1/6 1686/1/6 1691/1/6
f 1683/1/6 1684/1/6 1691/1/6
f 1686/1/6 1643/1/6 1692/1/6
f 1691/1/6 1686/1/6 1692/1/6
f 1689/1/6 1690/1/6 1693/1/6
f 1646/1/6 1687/1/6 1693/1/6
f 1688/1/6 1689/1/6 1693/1/6
f 1687/1/6 1688/1/6 1693/1/6
f 1693/1/6 1690/1/6 1694/1/6
f 1683/1/6 1691/1/6 1695/1/6
f 1692/1/6 1643/1/6 1696/1/6
f 1646/1/6 1693/1/6 1697/1/6
f 1694/1/6 1690/1/6 1698/1/6
f 1683/1/6 1695/1/6 1699/1/6
f 1695/1/6 1696/1/6 1699/1/6
f 1699/1/6 1696/1/6 1700/1/6
f 1700/1/6 1696/1/6 1701/1/6
f 1696/1/6 1643/1/6 1702/1/6
f 1701/1/6 1696/1/6 1702/1/6
f 1697/1/6 1698/1/6 1703/1/6
f 1646/1/6 1697/1/6 1703/1/6
f 1703/1/6 1698/1/6 1704/1/6
f 1698/1/6 1690/1/6 1705/1/6
f 1704/1/6 1698/1/6 1705/1/6
f 1705/1/6 1690/1/6 1706/1/6
f 1700/1/6 1701/1/6 1708/1/6
f 1708/1/6 1701/1/6 1709/1/6
f 1702/1/6 1643/1/6 1710/1/6
f 1646/1/6 1703/1/6 1711/1/6
f 1704/1/6 1705/1/6 1712/1/6
f 1712/1/6 1705/1/6 1713/1/6
f 1708/1/6 1709/1/6 1715/1/6
f 1709/1/6 1710/1/6 1715/1/6
f 1707/1/6 1708/1/6 1715/1/6
f 1710/1/6 1643/1/6 1716/1/6
f 1715/1/6 1710/1/6 1716/1/6
f 1713/1/6 1714/1/6 1717/1/6
f 1646/1/6 1711/1/6 1717/1/6
f 1712/1/6 1713/1/6 1717/1/6
f 1711/1/6 1712/1/6 1717/1/6
f 1717/1/6 1714/1/6 1718/1/6
f 1716/1/6 1643/1/6 1719/1/6
f 1646/1/6 1717/1/6 1722/1/6
f 1707/1/6 1715/1/6 1723/1/6
f 1719/1/6 1720/1/6 1724/1/6
f 1716/1/6 1719/1/6 1724/1/6
f 1724/1/6 1720/1/6 1725/1/6
f 1721/1/6 1722/1/6 1726/1/6
f 1722/1/6 1717/1/6 1727/1/6
f 1726/1/6 1722/1/6 1727/1/6
f 1718/1/6 1714/1/6 1728/1/6
f 1726/1/6 1727/1/6 1729/1/6
f 1727/1/6 1728/1/6 1729/1/6
f 1707/1/6 1723/1/6 1729/1/6
f 1724/1/6 1725/1/6 1729/1/6
f 1725/1/6 1726/1/6 1729/1/6
f 1723/1/6 1724/1/6 1729/1/6
f 1729/1/6 1728/1/6 1730/1/6
f 1730/1/6 1728/1/6 1731/1/6
f 1731/1/6 1728/1/6 1732/1/6
f 1732/1/6 1728/1/6 1733/1/6
f 1733/1/6 1728/1/6 1734/1/6
f 1734/1/6 1728/1/6 1735/1/6
f 1735/1/6 1728/1/6 1736/1/6
f 1736/1/6 1728/1/6 1737/1/6
f 1737/1/6 1728/1/6 1738/1/6
f 1738/1/6 1728/1/6 1739/1/6
f 1739/1/6 1728/1/6 1740/1/6
f 1740/1/6 1728/1/6 1741/1/6
f 1741/1/6 1728/1/6 1742/1/6
f 1742/1/6 1728/1/6 1743/1/6
f 1743/1/6 1728/1/6 1744/1/6
f 1744/1/6 1728/1/6 1745/1/6
f 1728/1/6 1714/1/6 1746/1/6
f 1745/1/6 1728/1/6 1746/1/6
f 1732/1/6 1733/1/6 1747/1/6
f 1734/1/6 1735/1/6 1748/1/6
f 1736/1/6 1737/1/6 1749/1/6
f 1738/1/6 1739/1/6 1750/1/6
f 1740/1/6 1741/1/6 1751/1/6
f 1742/1/6 1743/1/6 1752/1/6
f 1730/1/6 1731/1/6 1753/1/6
f 1732/1/6 1747/1/6 1754/1/6
f 1747/1/6 1748/1/6 1754/1/6
f 1754/1/6 1748/1/6 1755/1/6
f 1748/1/6 1735/1/6 1756/1/6
f 1755/1/6 1748/1/6 1756/1/6
f 1756/1/6 1735/1/6 1757/1/6
f 1749/1/6 1750/1/6 1758/1/6
f 1736/1/6 1749/1/6 1758/1/6
f 1758/1/6 1750/1/6 1759/1/6
f 1750/1/6 1739/1/6 1760/1/6
f 1759/1/6 1750/1/6 1760/1/6
f 1760/1/6 1739/1/6 1761/1/6
f 1751/1/6 1752/1/6 1762/1/6
f 1740/1/6 1751/1/6 1762/1/6
f 1762/1/6 1752/1/6 1763/1/6
f 1752/1/6 1743/1/6 1764/1/6
f 1763/1/6 1752/1/6 1764/1/6
f 1764/1/6 1743/1/6 1765/1/6
f 1744/1/6 1745/1/6 1766/1/6
f 1730/1/6 1753/1/6 1767/1/6
f 1754/1/6 1755/1/6 1767/1/6
f 1753/1/6 1754/1/6 1767/1/6
f 1767/1/6 1755/1/6 1768/1/6
f 1756/1/6 1757/1/6 1769/1/6
f 1758/1/6 1759/1/6 1769/1/6
f 1757/1/6 1758/1/6 1769/1/6
f 1769/1/6 1759/1/6 1770/1/6
f 1760/1/6 1761/1/6 1771/1/6
f 1762/1/6 1763/1/6 1771/1/6
f 1761/1/6 1762/1/6 1771/1/6
f 1771/1/6 1763/1/6 1772/1/6
f 1764/1/6 1765/1/6 1773/1/6
f 1765/1/6 1766/1/6 1773/1/6
f 1766/1/6 1745/1/6 1774/1/6
f 1773/1/6 1766/1/6 1774/1/6
f 1775/5/6 1776/5/6 1778/5/6
f 1778/5/6 1776/5/6 1779/5/6
f 1777/5/6 1778/5/6 1781/5/6
f 1779/5/6 1780/5/6 1781/5/6
f 1778/5/6 1779/5/6 1781/5/6
f 1781/5/6 1780/5/6 1782/5/6
f 1777/5/6 1781/5/6 1783/5/6
f 1783/5/6 1781/5/6 1784/5/6
f 1782/5/6 1780/5/6 1785/5/6
f 1785/5/6 1780/5/6 1786/5/6
f 1777/5/6 1783/5/6 1787/5/6
f 1786/5/6 1780/5/6 1790/5/6
f 1787/5/6 1788/5/6 1791/5/6
f 1789/5/6 1790/5/6 1792/5/6
f 1787/5/6 1791/5/6 1793/5/6
f 1791/5/6 1792/5/6 1793/5/6
f 1777/5/6 1787/5/6 1793/5/6
f 1793/5/6 1792/5/6 1794/5/6
f 1792/5/6 1790/5/6 1795/5/6
f 1794/5/6 1792/5/6 1795/5/6
f 1790/5/6 1780/5/6 1795/5/6
f 1795/5/6 1780/5/6 1796/5/6
f 1794/5/6 1795/5/6 1797/5/6
f 1797/5/6 1795/5/6 1798/5/6
f 1801/4/6 1802/4/6 1803/4/6
f 1799/4/6 1800/4/6 1804/4/6
f 1804/4/6 1800/4/6 1805/4/6
f 1801/4/6 1803/4/6 1806/4/6
f 1806/4/6 1803/4/6 1807/4/6
f 1808/4/6 1809/4/6 1810/4/6
f 1808/4/6 1810/4/6 1811/4/6
f 1811/4/6 1810/4/6 1812/4/6
f 1815/4/6 1816/4/6 1817/4/6
f 1813/4/6 1814/4/6 1822/4/6
f 1822/4/6 1814/4/6 1823/4/6
f 1815/4/6 1817/4/6 1824/4/6
f 1824/4/6 1817/4/6 1825/4/6
f 1818/2/6 1819/2/6 1826/2/6
f 1826/2/6 1819/2/6 1827/2/6
f 1820/2/6 1821/2/6 1828/2/6
f 1828/2/6 1821/2/6 1829/2/6
f 1830/4/6 1831/4/6 1832/4/6
f 1830/4/6 1832/4/6 1843/4/6
f 1843/4/6 1832/4/6 1844/4/6
f 1833/2/6 1834/2/6 1845/2/6
f 1845/2/6 1834/2/6 1846/2/6
f 1835/2/6 1836/2/6 1847/2/6
f 1847/2/6 1836/2/6 1848/2/6
f 1837/2/6 1838/2/6 1849/2/6
f 1849/2/6 1838/2/6 1850/2/6
f 1839/2/6 1840/2/6 1851/2/6
f 1851/2/6 1840/2/6 1852/2/6
f 1841/2/6 1842/2/6 1853/2/6
f 1853/2/6 1842/2/6 1854/2/6
f 1855/2/6 1856/2/6 1859/2/6
f 1859/2/6 1856/2/6 1860/2/6
f 1857/2/6 1858/2/6 1861/2/6
f 1861/2/6 1858/2/6 1862/2/6
f 1863/3/6 1864/3/6 1872/3/6
f 1872/3/6 1864/3/6 1873/3/6
f 1865/3/6 1866/3/6 1874/3/6
f 1874/3/6 1866/3/6 1875/3/6
f 1867/2/6 1868/2/6 1876/2/6
f 1876/2/6 1868/2/6 1877/2/6
f 1877/2/6 1868/2/6 1878/2/6
f 1869/2/6 1870/2/6 1879/2/6
f 1879/2/6 1870/2/6 1880/2/6
f 1872/5/6 1873/5/6 1882/5/6
f 1874/5/6 1875/5/6 1882/5/6
f 1876/5/6 1877/5/6 1882/5/6
f 1875/5/6 1876/5/6 1882/5/6
f 1871/5/6 1872/5/6 1882/5/6
f 1873/5/6 1874/5/6 1882/5/6
f 1882/5/6 1877/5/6 1883/5/6
f 1881/5/6 1882/5/6 1885/5/6
f 1885/5/6 1882/5/6 1886/5/6
f 1883/5/6 1884/5/6 1887/5/6
f 1887/5/6 1884/5/6 1888/5/6
f 1886/5/6 1887/5/6 1889/5/6
f 1889/5/6 1887/5/6 1890/5/6
f 1891/5/6 1892/5/6 1893/5/6
f 1893/5/6 1892/5/6 1894/5/6
f 1895/3/6 1896/3/6 1899/3/6
f 1899/3/6 1896/3/6 1900/3/6
f 1897/3/6 1898/3/6 1901/3/6
f 1901/3/6 1898/3/6 1902/3/6
f 1903/3/6 1904/3/6 1907/3/6
f 1907/3/6 1904/3/6 1908/3/6
f 1905/3/6 1906/3/6 1909/3/6
f 1909/3/6 1906/3/6 1910/3/6
f 1911/3/6 1912/3/6 1915/3/6
f 1915/3/6 1912/3/6 1916/3/6
f 1913/3/6 1914/3/6 1917/3/6
f 1917/3/6 1914/3/6 1918/3/6
f 1919/3/6 1920/3/6 1923/3/6
f 1923/3/6 1920/3/6 1924/3/6
f 1921/3/6 1922/3/6 1925/3/6
f 1925/3/6 1922/3/6 1926/3/6
f 1927/3/6 1928/3/6 1929/3/6
f 1929/3/6 1928/3/6 1930/3/6
