# MagicaVoxel @ Ephtracy

# group
o 

# material
mtllib model-1.mtl
usemtl palette

# normals
vn -1 0 0
vn 1 0 0
vn 0 0 1
vn 0 0 -1
vn 0 -1 0
vn 0 1 0

# texcoords
vt 0.517578 0.5
vt 0.568359 0.5

# verts
v -1.7 5.9 1.6
v -1.7 5.9 -1.6
v -1.7 6.4 1.6
v -1.7 6.4 -1.6
v -1.7 6.5 1.6
v -1.7 6.5 -1.6
v -1.7 6.6 1.6
v -1.7 6.6 -1.6
v -1 5.6 1.3
v -1 5.6 -1.3
v -1 5.9 1.3
v -1 5.9 -1.3
v -1 6.3 1.2
v -1 6.3 -1.2
v -1 7 1.2
v -1 7 -1.2
v 0 6.6 1.6
v 0 6.6 1.4
v 0 6.6 -1.4
v 0 6.6 -1.6
v 0 7 1.6
v 0 7 1.4
v 0 7 -1.4
v 0 7 -1.6
v 1.5 6.3 1.4
v 1.5 6.3 -1.4
v 1.5 6.5 0.2
v 1.5 6.5 -0.2
v 1.5 7 1.4
v 1.5 7 1.1
v 1.5 7 -1.1
v 1.5 7 -1.4
v 1.5 7.4 1.1
v 1.5 7.4 0.2
v 1.5 7.4 -0.2
v 1.5 7.4 -1.1
v -1.5 6.3 1.4
v -1.5 6.3 -1.4
v -1.5 6.6 1.4
v -1.5 6.6 -1.4
v 1 5.6 1.3
v 1 5.6 -1.3
v 1 5.9 1.3
v 1 5.9 -1.3
v 1 6.3 1.2
v 1 6.3 -1.2
v 1 7 1.2
v 1 7 -1.2
v 1.7 5.9 1.6
v 1.7 5.9 -1.6
v 1.7 6.3 0.4
v 1.7 6.3 -0.4
v 1.7 6.3 -0.9
v 1.7 6.3 -1.2
v 1.7 6.4 0.3
v 1.7 6.4 -0.3
v 1.7 6.5 0.2
v 1.7 6.5 -0.2
v 1.7 6.6 -0.9
v 1.7 6.6 -1.2
v 1.7 6.8 1.6
v 1.7 6.8 0.9
v 1.7 6.8 -0.9
v 1.7 6.8 -1.6
v 1.7 6.9 1.6
v 1.7 6.9 1
v 1.7 6.9 -1
v 1.7 6.9 -1.6
v 1.7 7 1.6
v 1.7 7 1.1
v 1.7 7 -1.1
v 1.7 7 -1.6
v 1.7 7.2 0.9
v 1.7 7.2 0.4
v 1.7 7.2 -0.4
v 1.7 7.2 -0.9
v 1.7 7.3 1
v 1.7 7.3 0.3
v 1.7 7.3 -0.3
v 1.7 7.3 -1
v 1.7 7.4 1.1
v 1.7 7.4 0.2
v 1.7 7.4 -0.2
v 1.7 7.4 -1.1
v -1.7 5.9 1.6
v -1.7 6.4 1.6
v -1.7 6.5 1.6
v -1.7 6.6 1.6
v 0 6.6 1.6
v 0 7 1.6
v 0.0999999 6.5 1.6
v 0.0999999 6.9 1.6
v 0.2 6.4 1.6
v 0.2 6.8 1.6
v 0.9 6.1 1.6
v 0.9 6.3 1.6
v 1.1 6.1 1.6
v 1.1 6.3 1.6
v 1.3 6.1 1.6
v 1.3 6.3 1.6
v 1.5 6.1 1.6
v 1.5 6.3 1.6
v 1.7 5.9 1.6
v 1.7 6.8 1.6
v 1.7 6.9 1.6
v 1.7 7 1.6
v -1 5.6 1.3
v -1 5.9 1.3
v 1 5.6 1.3
v 1 5.9 1.3
v -1 6.3 1.2
v -1 7 1.2
v 1 6.3 1.2
v 1 7 1.2
v 1.5 7 1.1
v 1.5 7.4 1.1
v 1.7 7 1.1
v 1.7 7.4 1.1
v 1.5 6.5 -0.2
v 1.5 7.4 -0.2
v 1.7 6.5 -0.2
v 1.7 7.4 -0.2
v -1.5 6.3 -1.4
v -1.5 6.6 -1.4
v 0 6.6 -1.4
v 0 7 -1.4
v 1.5 6.3 -1.4
v 1.5 7 -1.4
v -1.5 6.3 1.4
v -1.5 6.6 1.4
v 0 6.6 1.4
v 0 7 1.4
v 1.5 6.3 1.4
v 1.5 7 1.4
v 1.5 6.5 0.2
v 1.5 7.4 0.2
v 1.7 6.5 0.2
v 1.7 7.4 0.2
v 1.5 7 -1.1
v 1.5 7.4 -1.1
v 1.7 7 -1.1
v 1.7 7.4 -1.1
v -1 6.3 -1.2
v -1 7 -1.2
v 1 6.3 -1.2
v 1 7 -1.2
v -1 5.6 -1.3
v -1 5.9 -1.3
v 1 5.6 -1.3
v 1 5.9 -1.3
v -1.7 5.9 -1.6
v -1.7 6.4 -1.6
v -1.7 6.5 -1.6
v -1.7 6.6 -1.6
v 0 6.6 -1.6
v 0 7 -1.6
v 0.0999999 6.5 -1.6
v 0.0999999 6.9 -1.6
v 0.2 6.4 -1.6
v 0.2 6.8 -1.6
v 1.7 5.9 -1.6
v 1.7 6.8 -1.6
v 1.7 6.9 -1.6
v 1.7 7 -1.6
v -1 5.6 1.3
v 1 5.6 1.3
v -1 5.6 -1.3
v 1 5.6 -1.3
v -1.7 5.9 1.6
v 1.7 5.9 1.6
v -1 5.9 1.3
v 1 5.9 1.3
v -1 5.9 -1.3
v 1 5.9 -1.3
v -1.7 5.9 -1.6
v 1.7 5.9 -1.6
v -1.5 6.3 1.4
v 1.5 6.3 1.4
v -1 6.3 1.2
v 1 6.3 1.2
v -1 6.3 -1.2
v 1 6.3 -1.2
v -1.5 6.3 -1.4
v 1.5 6.3 -1.4
v 1.5 6.5 0.2
v 1.7 6.5 0.2
v 1.5 6.5 -0.2
v 1.7 6.5 -0.2
v -1.7 6.6 1.6
v 0 6.6 1.6
v -1.5 6.6 1.4
v 0 6.6 1.4
v -1.5 6.6 -1.4
v 0 6.6 -1.4
v -1.7 6.6 -1.6
v 0 6.6 -1.6
v 0 7 1.6
v 1.7 7 1.6
v 0 7 1.4
v 1.5 7 1.4
v -1 7 1.2
v 1 7 1.2
v 1.5 7 1.1
v 1.7 7 1.1
v 1.5 7 -1.1
v 1.7 7 -1.1
v -1 7 -1.2
v 1 7 -1.2
v 0 7 -1.4
v 1.5 7 -1.4
v 0 7 -1.6
v 1.7 7 -1.6
v 1.5 7.4 1.1
v 1.7 7.4 1.1
v 1.5 7.4 0.2
v 1.7 7.4 0.2
v 1.5 7.4 -0.2
v 1.7 7.4 -0.2
v 1.5 7.4 -1.1
v 1.7 7.4 -1.1

# faces
f 3/2/1 2/2/1 1/2/1
f 4/2/1 2/2/1 3/2/1
f 5/1/1 4/1/1 3/1/1
f 6/1/1 4/1/1 5/1/1
f 7/2/1 6/2/1 5/2/1
f 8/2/1 6/2/1 7/2/1
f 11/1/1 10/1/1 9/1/1
f 12/1/1 10/1/1 11/1/1
f 15/2/1 14/2/1 13/2/1
f 16/2/1 14/2/1 15/2/1
f 21/2/1 18/2/1 17/2/1
f 22/2/1 18/2/1 21/2/1
f 23/2/1 20/2/1 19/2/1
f 24/2/1 20/2/1 23/2/1
f 27/2/1 26/2/1 25/2/1
f 28/2/1 26/2/1 27/2/1
f 29/2/1 27/2/1 25/2/1
f 30/2/1 27/2/1 29/2/1
f 31/2/1 26/2/1 28/2/1
f 32/2/1 26/2/1 31/2/1
f 33/2/1 27/2/1 30/2/1
f 34/2/1 27/2/1 33/2/1
f 35/2/1 31/2/1 28/2/1
f 36/2/1 31/2/1 35/2/1
f 37/2/2 38/2/2 39/2/2
f 39/2/2 38/2/2 40/2/2
f 41/1/2 42/1/2 43/1/2
f 43/1/2 42/1/2 44/1/2
f 45/2/2 46/2/2 47/2/2
f 47/2/2 46/2/2 48/2/2
f 49/2/2 50/2/2 51/2/2
f 51/2/2 50/2/2 52/2/2
f 52/2/2 50/2/2 53/2/2
f 53/2/2 50/2/2 54/2/2
f 51/1/2 52/1/2 55/1/2
f 55/1/2 52/1/2 56/1/2
f 55/2/2 56/2/2 57/2/2
f 57/2/2 56/2/2 58/2/2
f 52/2/2 53/2/2 59/2/2
f 53/1/2 54/1/2 59/1/2
f 54/2/2 50/2/2 60/2/2
f 59/1/2 54/1/2 60/1/2
f 49/2/2 51/2/2 61/2/2
f 61/2/2 51/2/2 62/2/2
f 52/2/2 59/2/2 63/2/2
f 59/2/2 60/2/2 63/2/2
f 60/2/2 50/2/2 64/2/2
f 63/2/2 60/2/2 64/2/2
f 61/1/2 62/1/2 65/1/2
f 65/1/2 62/1/2 66/1/2
f 63/1/2 64/1/2 67/1/2
f 67/1/2 64/1/2 68/1/2
f 65/2/2 66/2/2 69/2/2
f 69/2/2 66/2/2 70/2/2
f 67/2/2 68/2/2 71/2/2
f 71/2/2 68/2/2 72/2/2
f 62/2/2 51/2/2 73/2/2
f 66/1/2 62/1/2 73/1/2
f 51/1/2 55/1/2 74/1/2
f 73/2/2 51/2/2 74/2/2
f 52/2/2 63/2/2 75/2/2
f 56/1/2 52/1/2 75/1/2
f 63/1/2 67/1/2 76/1/2
f 75/2/2 63/2/2 76/2/2
f 66/1/2 73/1/2 77/1/2
f 73/1/2 74/1/2 77/1/2
f 70/2/2 66/2/2 77/2/2
f 74/1/2 55/1/2 78/1/2
f 77/1/2 74/1/2 78/1/2
f 55/2/2 57/2/2 78/2/2
f 58/2/2 56/2/2 79/2/2
f 75/1/2 76/1/2 79/1/2
f 56/1/2 75/1/2 79/1/2
f 76/1/2 67/1/2 80/1/2
f 79/1/2 76/1/2 80/1/2
f 67/2/2 71/2/2 80/2/2
f 70/2/2 77/2/2 81/2/2
f 77/2/2 78/2/2 81/2/2
f 78/2/2 57/2/2 82/2/2
f 81/2/2 78/2/2 82/2/2
f 58/2/2 79/2/2 83/2/2
f 79/2/2 80/2/2 83/2/2
f 80/2/2 71/2/2 84/2/2
f 83/2/2 80/2/2 84/2/2
f 89/2/3 88/2/3 87/2/3
f 91/1/3 87/1/3 86/1/3
f 91/2/3 90/2/3 89/2/3
f 91/2/3 89/2/3 87/2/3
f 92/2/3 90/2/3 91/2/3
f 93/2/3 86/2/3 85/2/3
f 93/1/3 91/1/3 86/1/3
f 93/1/3 92/1/3 91/1/3
f 94/1/3 92/1/3 93/1/3
f 95/2/3 93/2/3 85/2/3
f 95/2/3 94/2/3 93/2/3
f 96/2/3 94/2/3 95/2/3
f 97/2/3 95/2/3 85/2/3
f 97/1/3 96/1/3 95/1/3
f 98/2/3 94/2/3 96/2/3
f 98/1/3 96/1/3 97/1/3
f 99/2/3 97/2/3 85/2/3
f 99/2/3 98/2/3 97/2/3
f 100/2/3 94/2/3 98/2/3
f 100/2/3 98/2/3 99/2/3
f 101/2/3 99/2/3 85/2/3
f 101/1/3 100/1/3 99/1/3
f 102/2/3 94/2/3 100/2/3
f 102/1/3 100/1/3 101/1/3
f 103/2/3 101/2/3 85/2/3
f 103/2/3 102/2/3 101/2/3
f 104/1/3 92/1/3 94/1/3
f 104/2/3 102/2/3 103/2/3
f 104/2/3 94/2/3 102/2/3
f 105/2/3 90/2/3 92/2/3
f 105/1/3 92/1/3 104/1/3
f 106/2/3 90/2/3 105/2/3
f 109/1/3 108/1/3 107/1/3
f 110/1/3 108/1/3 109/1/3
f 113/2/3 112/2/3 111/2/3
f 114/2/3 112/2/3 113/2/3
f 117/2/3 116/2/3 115/2/3
f 118/2/3 116/2/3 117/2/3
f 121/2/3 120/2/3 119/2/3
f 122/2/3 120/2/3 121/2/3
f 125/2/3 124/2/3 123/2/3
f 127/2/3 125/2/3 123/2/3
f 127/2/3 126/2/3 125/2/3
f 128/2/3 126/2/3 127/2/3
f 129/2/4 130/2/4 131/2/4
f 129/2/4 131/2/4 133/2/4
f 131/2/4 132/2/4 133/2/4
f 133/2/4 132/2/4 134/2/4
f 135/2/4 136/2/4 137/2/4
f 137/2/4 136/2/4 138/2/4
f 139/2/4 140/2/4 141/2/4
f 141/2/4 140/2/4 142/2/4
f 143/2/4 144/2/4 145/2/4
f 145/2/4 144/2/4 146/2/4
f 147/1/4 148/1/4 149/1/4
f 149/1/4 148/1/4 150/1/4
f 153/2/4 154/2/4 155/2/4
f 152/1/4 153/1/4 157/1/4
f 155/2/4 156/2/4 157/2/4
f 153/2/4 155/2/4 157/2/4
f 157/2/4 156/2/4 158/2/4
f 151/2/4 152/2/4 159/2/4
f 152/1/4 157/1/4 159/1/4
f 157/1/4 158/1/4 159/1/4
f 159/1/4 158/1/4 160/1/4
f 151/2/4 159/2/4 161/2/4
f 159/2/4 160/2/4 161/2/4
f 160/1/4 158/1/4 162/1/4
f 161/2/4 160/2/4 162/2/4
f 158/2/4 156/2/4 163/2/4
f 162/1/4 158/1/4 163/1/4
f 163/2/4 156/2/4 164/2/4
f 167/1/5 166/1/5 165/1/5
f 168/1/5 166/1/5 167/1/5
f 171/2/5 170/2/5 169/2/5
f 172/2/5 170/2/5 171/2/5
f 173/2/5 171/2/5 169/2/5
f 174/2/5 170/2/5 172/2/5
f 175/2/5 173/2/5 169/2/5
f 175/2/5 174/2/5 173/2/5
f 176/2/5 170/2/5 174/2/5
f 176/2/5 174/2/5 175/2/5
f 177/2/6 178/2/6 179/2/6
f 179/2/6 178/2/6 180/2/6
f 177/2/6 179/2/6 181/2/6
f 180/2/6 178/2/6 182/2/6
f 177/2/6 181/2/6 183/2/6
f 181/2/6 182/2/6 183/2/6
f 182/2/6 178/2/6 184/2/6
f 183/2/6 182/2/6 184/2/6
f 185/2/6 186/2/6 187/2/6
f 187/2/6 186/2/6 188/2/6
f 189/2/6 190/2/6 191/2/6
f 191/2/6 190/2/6 192/2/6
f 189/2/6 191/2/6 193/2/6
f 189/2/6 193/2/6 195/2/6
f 193/2/6 194/2/6 195/2/6
f 195/2/6 194/2/6 196/2/6
f 197/2/6 198/2/6 199/2/6
f 199/2/6 198/2/6 200/2/6
f 200/2/6 198/2/6 203/2/6
f 203/2/6 198/2/6 204/2/6
f 201/2/6 202/2/6 207/2/6
f 207/2/6 202/2/6 208/2/6
f 205/2/6 206/2/6 210/2/6
f 209/2/6 210/2/6 211/2/6
f 210/2/6 206/2/6 212/2/6
f 211/2/6 210/2/6 212/2/6
f 213/2/6 214/2/6 215/2/6
f 215/2/6 214/2/6 216/2/6
f 217/2/6 218/2/6 219/2/6
f 219/2/6 218/2/6 220/2/6
