# MagicaVoxel @ Ephtracy

# group
o 

# material
mtllib model.mtl
usemtl palette

# normals
vn -1 0 0
vn 1 0 0
vn 0 0 1
vn 0 0 -1
vn 0 -1 0
vn 0 1 0

# texcoords
vt 0.544922 0.5
vt 0.548828 0.5

# verts
v -2 6 0.4
v -2 6 0.1
v -2 6 -0.1
v -2 6 -0.4
v -2 7 0.4
v -2 7 0.1
v -2 7 -0.1
v -2 7 -0.4
v -1.8 5.8 0.6
v -1.8 5.8 -0.6
v -1.8 6 0.4
v -1.8 6 0.1
v -1.8 6 -0.1
v -1.8 6 -0.4
v -1.8 6.2 0.6
v -1.8 6.2 0.4
v -1.8 6.2 -0.4
v -1.8 6.2 -0.6
v -1.8 6.5 0.6
v -1.8 6.5 0.4
v -1.8 6.5 -0.4
v -1.8 6.5 -0.6
v -1.8 6.7 0.6
v -1.8 6.7 0.4
v -1.8 6.7 -0.4
v -1.8 6.7 -0.6
v -1.8 6.8 0.6
v -1.8 6.8 0.4
v -1.8 6.8 -0.4
v -1.8 6.8 -0.6
v -1.8 7 0.6
v -1.8 7 0.4
v -1.8 7 0.2
v -1.8 7 0.1
v -1.8 7 -0.1
v -1.8 7 -0.2
v -1.8 7 -0.4
v -1.8 7 -0.6
v -1.8 7.2 0.4
v -1.8 7.2 0.2
v -1.8 7.2 -0.2
v -1.8 7.2 -0.4
v -1.4 4.4 0.7
v -1.4 4.4 0.2
v -1.4 4.4 -0.2
v -1.4 4.4 -0.7
v -1.4 4.5 0.7
v -1.4 4.5 0.5
v -1.4 4.5 -0.5
v -1.4 4.5 -0.7
v -1.4 4.8 1.4
v -1.4 4.8 0.7
v -1.4 4.8 -0.7
v -1.4 4.8 -1.4
v -1.4 5 1.3
v -1.4 5 1.1
v -1.4 5 -1.1
v -1.4 5 -1.3
v -1.4 5.1 1.4
v -1.4 5.1 1.3
v -1.4 5.1 -1.3
v -1.4 5.1 -1.4
v -1.4 5.5 0.2
v -1.4 5.5 -0.2
v -1.4 5.6 0.7
v -1.4 5.6 0.5
v -1.4 5.6 -0.5
v -1.4 5.6 -0.7
v -1.4 5.8 0.6
v -1.4 5.8 0.5
v -1.4 5.8 -0.5
v -1.4 5.8 -0.6
v -1.4 6.2 0.6
v -1.4 6.2 -0.6
v -1.4 6.5 0.6
v -1.4 6.5 -0.6
v -1.4 6.7 1.1
v -1.4 6.7 0.7
v -1.4 6.7 0.6
v -1.4 6.7 -0.6
v -1.4 6.7 -0.7
v -1.4 6.7 -1.1
v -1.1 5.3 0.7
v -1.1 5.3 0.5
v -1.1 5.3 0.2
v -1.1 5.3 -0.2
v -1.1 5.3 -0.5
v -1.1 5.3 -0.7
v -1.1 5.5 0.2
v -1.1 5.5 -0.2
v -1.1 5.6 1.4
v -1.1 5.6 1.1
v -1.1 5.6 0.7
v -1.1 5.6 0.5
v -1.1 5.6 -0.5
v -1.1 5.6 -0.7
v -1.1 5.6 -1.1
v -1.1 5.6 -1.4
v -1.1 5.8 1.4
v -1.1 5.8 1.1
v -1.1 5.8 -1.1
v -1.1 5.8 -1.4
v -1.1 6.1 1.4
v -1.1 6.1 1.1
v -1.1 6.1 -1.1
v -1.1 6.1 -1.4
v -1.1 6.7 1.4
v -1.1 6.7 1.1
v -1.1 6.7 0.7
v -1.1 6.7 0.2
v -1.1 6.7 -0.2
v -1.1 6.7 -0.7
v -1.1 6.7 -1.1
v -1.1 6.7 -1.4
v -1.1 6.8 1.1
v -1.1 6.8 0.9
v -1.1 6.8 -0.9
v -1.1 6.8 -1.1
v -1.1 7 1.1
v -1.1 7 0.9
v -1.1 7 0.7
v -1.1 7 0.2
v -1.1 7 -0.2
v -1.1 7 -0.7
v -1.1 7 -0.9
v -1.1 7 -1.1
v -0.9 4.2 0.9
v -0.9 4.2 -0.9
v -0.9 4.4 1.3
v -0.9 4.4 0.9
v -0.9 4.4 -0.9
v -0.9 4.4 -1.3
v -0.9 4.6 1.3
v -0.9 4.6 -1.3
v -0.9 4.9 1.3
v -0.9 4.9 -1.3
v -0.9 5.1 1.3
v -0.9 5.1 -1.3
v -0.9 5.3 1.3
v -0.9 5.3 1.1
v -0.9 5.3 -1.1
v -0.9 5.3 -1.3
v -0.9 5.6 1.3
v -0.9 5.6 1.1
v -0.9 5.6 -1.1
v -0.9 5.6 -1.3
v -0.7 3.7 1.3
v -0.7 3.7 1.1
v -0.7 3.7 -1.1
v -0.7 3.7 -1.3
v -0.7 3.8 1.3
v -0.7 3.8 1.1
v -0.7 3.8 -1.1
v -0.7 3.8 -1.3
v -0.7 4 1.3
v -0.7 4 1.1
v -0.7 4 -1.1
v -0.7 4 -1.3
v -0.4 3.9 1.3
v -0.4 3.9 1.1
v -0.4 3.9 -1.1
v -0.4 3.9 -1.3
v -0.4 4.4 1.3
v -0.4 4.4 1.1
v -0.4 4.4 -1.1
v -0.4 4.4 -1.3
v 0.2 4.9 1.4
v 0.2 4.9 1.1
v 0.2 4.9 -1.1
v 0.2 4.9 -1.4
v 0.2 5.1 1.3
v 0.2 5.1 1.1
v 0.2 5.1 -1.1
v 0.2 5.1 -1.3
v 0.2 5.3 1.3
v 0.2 5.3 -1.3
v 0.2 5.6 1.4
v 0.2 5.6 1.3
v 0.2 5.6 -1.3
v 0.2 5.6 -1.4
v 0.4 3.4 1.3
v 0.4 3.4 1.1
v 0.4 3.4 -1.1
v 0.4 3.4 -1.3
v 0.4 3.5 1.3
v 0.4 3.5 1.1
v 0.4 3.5 -1.1
v 0.4 3.5 -1.3
v 0.4 3.7 1.3
v 0.4 3.7 1.1
v 0.4 3.7 -1.1
v 0.4 3.7 -1.3
v 0.4 4 1.3
v 0.4 4 1.1
v 0.4 4 -1.1
v 0.4 4 -1.3
v 0.4 4.9 1.3
v 0.4 4.9 1.1
v 0.4 4.9 -1.1
v 0.4 4.9 -1.3
v 0.7 3.6 1.3
v 0.7 3.6 1.1
v 0.7 3.6 -1.1
v 0.7 3.6 -1.3
v 0.7 4 1.3
v 0.7 4 1.1
v 0.7 4 -1.1
v 0.7 4 -1.3
v -1.3 6.7 0.6
v -1.3 6.7 -0.6
v -1.3 6.8 0.6
v -1.3 6.8 0.4
v -1.3 6.8 0.2
v -1.3 6.8 -0.2
v -1.3 6.8 -0.4
v -1.3 6.8 -0.6
v -1.3 7 0.6
v -1.3 7 0.4
v -1.3 7 -0.4
v -1.3 7 -0.6
v -1.3 7.2 0.4
v -1.3 7.2 0.2
v -1.3 7.2 -0.2
v -1.3 7.2 -0.4
v -1.1 4.4 0.7
v -1.1 4.4 0.2
v -1.1 4.4 -0.2
v -1.1 4.4 -0.7
v -1.1 4.5 0.7
v -1.1 4.5 0.5
v -1.1 4.5 -0.5
v -1.1 4.5 -0.7
v -1.1 4.8 1.4
v -1.1 4.8 0.7
v -1.1 4.8 -0.7
v -1.1 4.8 -1.4
v -1.1 5 1.3
v -1.1 5 1.1
v -1.1 5 -1.1
v -1.1 5 -1.3
v -1.1 5.1 1.4
v -1.1 5.1 1.3
v -1.1 5.1 -1.3
v -1.1 5.1 -1.4
v -1.1 5.3 1.1
v -1.1 5.3 0.7
v -1.1 5.3 0.5
v -1.1 5.3 0.2
v -1.1 5.3 -0.2
v -1.1 5.3 -0.5
v -1.1 5.3 -0.7
v -1.1 5.3 -1.1
v -0.6 3.9 1.3
v -0.6 3.9 1.1
v -0.6 3.9 -1.1
v -0.6 3.9 -1.3
v -0.6 4 1.3
v -0.6 4 1.1
v -0.6 4 -1.1
v -0.6 4 -1.3
v -0.2 3.7 1.3
v -0.2 3.7 1.1
v -0.2 3.7 -1.1
v -0.2 3.7 -1.3
v -0.2 4.4 1.3
v -0.2 4.4 1.1
v -0.2 4.4 -1.1
v -0.2 4.4 -1.3
v 2.38419e-07 4.2 0.9
v 2.38419e-07 4.2 -0.9
v 2.38419e-07 4.4 1.3
v 2.38419e-07 4.4 0.9
v 2.38419e-07 4.4 -0.9
v 2.38419e-07 4.4 -1.3
v 2.38419e-07 4.6 1.3
v 2.38419e-07 4.6 -1.3
v 2.38419e-07 4.9 1.3
v 2.38419e-07 4.9 -1.3
v 2.38419e-07 5.1 1.3
v 2.38419e-07 5.1 -1.3
v 0.5 3.6 1.3
v 0.5 3.6 1.1
v 0.5 3.6 -1.1
v 0.5 3.6 -1.3
v 0.5 3.7 1.3
v 0.5 3.7 1.1
v 0.5 3.7 -1.1
v 0.5 3.7 -1.3
v 0.6 4.2 1.3
v 0.6 4.2 1.1
v 0.6 4.2 -1.1
v 0.6 4.2 -1.3
v 0.6 4.9 1.4
v 0.6 4.9 1.3
v 0.6 4.9 1.1
v 0.6 4.9 -1.1
v 0.6 4.9 -1.3
v 0.6 4.9 -1.4
v 0.6 5 1.4
v 0.6 5 1.1
v 0.6 5 -1.1
v 0.6 5 -1.4
v 0.6 5.1 1.2
v 0.6 5.1 1.1
v 0.6 5.1 -1.1
v 0.6 5.1 -1.2
v 0.6 5.8 1.2
v 0.6 5.8 -1.2
v 0.6 6.3 1.4
v 0.6 6.3 1.2
v 0.6 6.3 -1.2
v 0.6 6.3 -1.4
v 0.6 6.5 1.4
v 0.6 6.5 1.2
v 0.6 6.5 -1.2
v 0.6 6.5 -1.4
v 0.6 6.7 1.4
v 0.6 6.7 1.2
v 0.6 6.7 1.1
v 0.6 6.7 1
v 0.6 6.7 0.9
v 0.6 6.7 0.8
v 0.6 6.7 0.7
v 0.6 6.7 0.5
v 0.6 6.7 0.2
v 0.6 6.7 0.1
v 0.6 6.7 -0.1
v 0.6 6.7 -0.2
v 0.6 6.7 -0.5
v 0.6 6.7 -0.7
v 0.6 6.7 -0.8
v 0.6 6.7 -0.9
v 0.6 6.7 -1
v 0.6 6.7 -1.1
v 0.6 6.7 -1.2
v 0.6 6.7 -1.4
v 0.6 7 1.1
v 0.6 7 1
v 0.6 7 0.8
v 0.6 7 0.7
v 0.6 7 0.5
v 0.6 7 0.1
v 0.6 7 -0.1
v 0.6 7 -0.5
v 0.6 7 -0.7
v 0.6 7 -0.8
v 0.6 7 -1
v 0.6 7 -1.1
v 0.9 3.4 1.3
v 0.9 3.4 1.1
v 0.9 3.4 -1.1
v 0.9 3.4 -1.3
v 0.9 4.2 1.3
v 0.9 4.2 1.1
v 0.9 4.2 -1.1
v 0.9 4.2 -1.3
v 0.9 6.3 1.2
v 0.9 6.3 0.9
v 0.9 6.3 0.8
v 0.9 6.3 0.5
v 0.9 6.3 0.4
v 0.9 6.3 0.2
v 0.9 6.3 0.1
v 0.9 6.3 -0.1
v 0.9 6.3 -0.2
v 0.9 6.3 -0.4
v 0.9 6.3 -0.5
v 0.9 6.3 -0.8
v 0.9 6.3 -0.9
v 0.9 6.3 -1.2
v 0.9 6.7 1.2
v 0.9 6.7 0.9
v 0.9 6.7 0.8
v 0.9 6.7 0.5
v 0.9 6.7 0.2
v 0.9 6.7 -0.2
v 0.9 6.7 -0.5
v 0.9 6.7 -0.8
v 0.9 6.7 -0.9
v 0.9 6.7 -1.2
v 1 5.8 1.2
v 1 5.8 0.9
v 1 5.8 0.7
v 1 5.8 0.1
v 1 5.8 -0.1
v 1 5.8 -0.7
v 1 5.8 -0.9
v 1 5.8 -1.2
v 1 6 0.9
v 1 6 0.8
v 1 6 0.5
v 1 6 0.4
v 1 6 -0.4
v 1 6 -0.5
v 1 6 -0.8
v 1 6 -0.9
v 1 6.2 0.8
v 1 6.2 0.7
v 1 6.2 -0.7
v 1 6.2 -0.8
v 1 6.3 1.2
v 1 6.3 0.5
v 1 6.3 0.4
v 1 6.3 0.1
v 1 6.3 -0.1
v 1 6.3 -0.4
v 1 6.3 -0.5
v 1 6.3 -1.2
v -1.4 4.8 1.4
v -1.4 5.1 1.4
v -1.1 4.8 1.4
v -1.1 5.1 1.4
v -1.1 5.6 1.4
v -1.1 5.8 1.4
v -1.1 6.1 1.4
v -1.1 6.7 1.4
v -0.9 6.3 1.4
v -0.9 6.4 1.4
v -0.5 5.8 1.4
v -0.5 5.9 1.4
v -0.4 6.4 1.4
v -0.4 6.5 1.4
v 0.1 5.9 1.4
v 0.1 6 1.4
v 0.2 4.9 1.4
v 0.2 5.6 1.4
v 0.4 5 1.4
v 0.4 5.6 1.4
v 0.4 6 1.4
v 0.4 6.1 1.4
v 0.6 4.9 1.4
v 0.6 5 1.4
v 0.6 6.3 1.4
v 0.6 6.5 1.4
v 0.6 6.7 1.4
v -0.9 4.4 1.3
v -0.9 4.6 1.3
v -0.9 4.9 1.3
v -0.9 5.1 1.3
v -0.9 5.3 1.3
v -0.9 5.6 1.3
v -0.7 3.7 1.3
v -0.7 3.8 1.3
v -0.7 4 1.3
v -0.6 3.9 1.3
v -0.6 4 1.3
v -0.4 3.9 1.3
v -0.4 4.4 1.3
v -0.3 3.8 1.3
v -0.3 4.4 1.3
v -0.2 3.7 1.3
v -0.2 4.4 1.3
v 2.38419e-07 4.4 1.3
v 2.38419e-07 4.6 1.3
v 2.38419e-07 4.9 1.3
v 2.38419e-07 5.1 1.3
v 0.2 5.1 1.3
v 0.2 5.3 1.3
v 0.2 5.6 1.3
v 0.4 3.4 1.3
v 0.4 3.5 1.3
v 0.4 3.7 1.3
v 0.4 4 1.3
v 0.4 4.9 1.3
v 0.5 3.6 1.3
v 0.5 3.7 1.3
v 0.5 4.1 1.3
v 0.5 4.9 1.3
v 0.6 4.2 1.3
v 0.6 4.9 1.3
v 0.7 3.6 1.3
v 0.7 4 1.3
v 0.8 3.5 1.3
v 0.8 4.1 1.3
v 0.9 3.4 1.3
v 0.9 4.2 1.3
v 0.6 5.8 1.2
v 0.6 6.3 1.2
v 0.6 6.5 1.2
v 0.6 6.7 1.2
v 0.9 6.3 1.2
v 0.9 6.7 1.2
v 1 5.8 1.2
v 1 6.3 1.2
v -1.4 5 1.1
v -1.4 6.7 1.1
v -1.1 5 1.1
v -1.1 5.3 1.1
v -1.1 5.6 1.1
v -1.1 5.8 1.1
v -1.1 6.1 1.1
v -1.1 6.7 1.1
v -1.1 6.8 1.1
v -1.1 7 1.1
v -0.9 5.3 1.1
v -0.9 5.6 1.1
v 0.2 6.7 1.1
v 0.2 6.8 1.1
v 0.6 6.7 1.1
v 0.6 7 1.1
v -0.9 4.2 0.9
v -0.9 4.4 0.9
v 2.38419e-07 4.2 0.9
v 2.38419e-07 4.4 0.9
v -1.4 4.4 0.7
v -1.4 4.5 0.7
v -1.1 4.4 0.7
v -1.1 4.5 0.7
v -1.8 5.8 0.6
v -1.8 6.2 0.6
v -1.8 6.5 0.6
v -1.8 6.7 0.6
v -1.8 6.8 0.6
v -1.8 7 0.6
v -1.4 5.8 0.6
v -1.4 6.2 0.6
v -1.4 6.5 0.6
v -1.4 6.7 0.6
v -1.3 6.7 0.6
v -1.3 6.8 0.6
v -1.3 7 0.6
v -1.4 4.5 0.5
v -1.4 5.6 0.5
v -1.1 4.5 0.5
v -1.1 5.3 0.5
v -1.1 5.6 0.5
v -2 6 0.4
v -2 7 0.4
v -1.8 6 0.4
v -1.8 6.2 0.4
v -1.8 6.5 0.4
v -1.8 6.7 0.4
v -1.8 6.8 0.4
v -1.8 7 0.4
v -1.8 7.2 0.4
v -1.3 7 0.4
v -1.3 7.2 0.4
v -1.4 4.4 -0.2
v -1.4 5.5 -0.2
v -1.1 4.4 -0.2
v -1.1 5.3 -0.2
v -1.1 5.5 -0.2
v -1.4 4.8 -0.7
v -1.4 5.6 -0.7
v -1.1 4.8 -0.7
v -1.1 5.3 -0.7
v -1.1 5.6 -0.7
v -0.7 3.7 -1.1
v -0.7 3.8 -1.1
v -0.7 4 -1.1
v -0.6 3.9 -1.1
v -0.6 4 -1.1
v -0.4 3.9 -1.1
v -0.4 4.4 -1.1
v -0.3 3.8 -1.1
v -0.3 4.4 -1.1
v -0.2 3.7 -1.1
v -0.2 4.4 -1.1
v 0.2 4.9 -1.1
v 0.2 5.1 -1.1
v 0.4 3.4 -1.1
v 0.4 3.5 -1.1
v 0.4 3.7 -1.1
v 0.4 4 -1.1
v 0.4 4.9 -1.1
v 0.4 5 -1.1
v 0.4 5.1 -1.1
v 0.5 3.6 -1.1
v 0.5 3.7 -1.1
v 0.5 4.1 -1.1
v 0.5 4.9 -1.1
v 0.6 4.2 -1.1
v 0.6 4.9 -1.1
v 0.6 5 -1.1
v 0.6 5.1 -1.1
v 0.7 3.6 -1.1
v 0.7 4 -1.1
v 0.8 3.5 -1.1
v 0.8 4.1 -1.1
v 0.9 3.4 -1.1
v 0.9 4.2 -1.1
v -1.4 5 -1.3
v -1.4 5.1 -1.3
v -1.1 5 -1.3
v -1.1 5.1 -1.3
v -1.4 5 1.3
v -1.4 5.1 1.3
v -1.1 5 1.3
v -1.1 5.1 1.3
v -0.7 3.7 1.1
v -0.7 3.8 1.1
v -0.7 4 1.1
v -0.6 3.9 1.1
v -0.6 4 1.1
v -0.4 3.9 1.1
v -0.4 4.4 1.1
v -0.3 3.8 1.1
v -0.3 4.4 1.1
v -0.2 3.7 1.1
v -0.2 4.4 1.1
v 0.2 4.9 1.1
v 0.2 5.1 1.1
v 0.4 3.4 1.1
v 0.4 3.5 1.1
v 0.4 3.7 1.1
v 0.4 4 1.1
v 0.4 4.9 1.1
v 0.4 5 1.1
v 0.4 5.1 1.1
v 0.5 3.6 1.1
v 0.5 3.7 1.1
v 0.5 4.1 1.1
v 0.5 4.9 1.1
v 0.6 4.2 1.1
v 0.6 4.9 1.1
v 0.6 5 1.1
v 0.6 5.1 1.1
v 0.7 3.6 1.1
v 0.7 4 1.1
v 0.8 3.5 1.1
v 0.8 4.1 1.1
v 0.9 3.4 1.1
v 0.9 4.2 1.1
v -1.4 4.8 0.7
v -1.4 5.6 0.7
v -1.1 4.8 0.7
v -1.1 5.3 0.7
v -1.1 5.6 0.7
v -1.4 4.4 0.2
v -1.4 5.5 0.2
v -1.1 4.4 0.2
v -1.1 5.3 0.2
v -1.1 5.5 0.2
v -2 6 -0.4
v -2 7 -0.4
v -1.8 6 -0.4
v -1.8 6.2 -0.4
v -1.8 6.5 -0.4
v -1.8 6.7 -0.4
v -1.8 6.8 -0.4
v -1.8 7 -0.4
v -1.8 7.2 -0.4
v -1.3 7 -0.4
v -1.3 7.2 -0.4
v -1.4 4.5 -0.5
v -1.4 5.6 -0.5
v -1.1 4.5 -0.5
v -1.1 5.3 -0.5
v -1.1 5.6 -0.5
v -1.8 5.8 -0.6
v -1.8 6.2 -0.6
v -1.8 6.5 -0.6
v -1.8 6.7 -0.6
v -1.8 6.8 -0.6
v -1.8 7 -0.6
v -1.4 5.8 -0.6
v -1.4 6.2 -0.6
v -1.4 6.5 -0.6
v -1.4 6.7 -0.6
v -1.3 6.7 -0.6
v -1.3 6.8 -0.6
v -1.3 7 -0.6
v -1.4 4.4 -0.7
v -1.4 4.5 -0.7
v -1.1 4.4 -0.7
v -1.1 4.5 -0.7
v -0.9 4.2 -0.9
v -0.9 4.4 -0.9
v 2.38419e-07 4.2 -0.9
v 2.38419e-07 4.4 -0.9
v -1.4 5 -1.1
v -1.4 6.7 -1.1
v -1.1 5 -1.1
v -1.1 5.3 -1.1
v -1.1 5.6 -1.1
v -1.1 5.8 -1.1
v -1.1 6.1 -1.1
v -1.1 6.7 -1.1
v -1.1 6.8 -1.1
v -1.1 7 -1.1
v -0.9 5.3 -1.1
v -0.9 5.6 -1.1
v 0.2 6.7 -1.1
v 0.2 6.8 -1.1
v 0.6 6.7 -1.1
v 0.6 7 -1.1
v 0.6 5.8 -1.2
v 0.6 6.3 -1.2
v 0.6 6.5 -1.2
v 0.6 6.7 -1.2
v 0.9 6.3 -1.2
v 0.9 6.7 -1.2
v 1 5.8 -1.2
v 1 6.3 -1.2
v -0.9 4.4 -1.3
v -0.9 4.6 -1.3
v -0.9 4.9 -1.3
v -0.9 5.1 -1.3
v -0.9 5.3 -1.3
v -0.9 5.6 -1.3
v -0.7 3.7 -1.3
v -0.7 3.8 -1.3
v -0.7 4 -1.3
v -0.6 3.9 -1.3
v -0.6 4 -1.3
v -0.4 3.9 -1.3
v -0.4 4.4 -1.3
v -0.3 3.8 -1.3
v -0.3 4.4 -1.3
v -0.2 3.7 -1.3
v -0.2 4.4 -1.3
v 2.38419e-07 4.4 -1.3
v 2.38419e-07 4.6 -1.3
v 2.38419e-07 4.9 -1.3
v 2.38419e-07 5.1 -1.3
v 0.2 5.1 -1.3
v 0.2 5.3 -1.3
v 0.2 5.6 -1.3
v 0.4 3.4 -1.3
v 0.4 3.5 -1.3
v 0.4 3.7 -1.3
v 0.4 4 -1.3
v 0.4 4.9 -1.3
v 0.5 3.6 -1.3
v 0.5 3.7 -1.3
v 0.5 4.1 -1.3
v 0.5 4.9 -1.3
v 0.6 4.2 -1.3
v 0.6 4.9 -1.3
v 0.7 3.6 -1.3
v 0.7 4 -1.3
v 0.8 3.5 -1.3
v 0.8 4.1 -1.3
v 0.9 3.4 -1.3
v 0.9 4.2 -1.3
v -1.4 4.8 -1.4
v -1.4 5.1 -1.4
v -1.1 4.8 -1.4
v -1.1 5.1 -1.4
v -1.1 5.6 -1.4
v -1.1 5.8 -1.4
v -1.1 6.1 -1.4
v -1.1 6.7 -1.4
v -0.9 6.3 -1.4
v -0.9 6.4 -1.4
v -0.5 5.8 -1.4
v -0.5 5.9 -1.4
v -0.4 6.4 -1.4
v -0.4 6.5 -1.4
v 0.1 5.9 -1.4
v 0.1 6 -1.4
v 0.2 4.9 -1.4
v 0.2 5.6 -1.4
v 0.4 5 -1.4
v 0.4 5.6 -1.4
v 0.4 6 -1.4
v 0.4 6.1 -1.4
v 0.6 4.9 -1.4
v 0.6 5 -1.4
v 0.6 6.3 -1.4
v 0.6 6.5 -1.4
v 0.6 6.7 -1.4
v 0.4 3.4 1.3
v 0.9 3.4 1.3
v 0.4 3.4 1.1
v 0.9 3.4 1.1
v 0.4 3.4 -1.1
v 0.9 3.4 -1.1
v 0.4 3.4 -1.3
v 0.9 3.4 -1.3
v -0.7 3.7 1.3
v -0.2 3.7 1.3
v -0.7 3.7 1.1
v -0.2 3.7 1.1
v -0.7 3.7 -1.1
v -0.2 3.7 -1.1
v -0.7 3.7 -1.3
v -0.2 3.7 -1.3
v 0.4 4 1.3
v 0.7 4 1.3
v 0.4 4 1.1
v 0.7 4 1.1
v 0.4 4 -1.1
v 0.7 4 -1.1
v 0.4 4 -1.3
v 0.7 4 -1.3
v -0.9 4.2 0.9
v 2.38419e-07 4.2 0.9
v -0.9 4.2 -0.9
v 2.38419e-07 4.2 -0.9
v -0.9 4.4 1.3
v -0.4 4.4 1.3
v -0.2 4.4 1.3
v 2.38419e-07 4.4 1.3
v -0.4 4.4 1.1
v -0.3 4.4 1.1
v -0.2 4.4 1.1
v -0.9 4.4 0.9
v 2.38419e-07 4.4 0.9
v -1.4 4.4 0.7
v -1.1 4.4 0.7
v -1.4 4.4 0.2
v -1.1 4.4 0.2
v -1.4 4.4 -0.2
v -1.1 4.4 -0.2
v -1.4 4.4 -0.7
v -1.1 4.4 -0.7
v -0.9 4.4 -0.9
v 2.38419e-07 4.4 -0.9
v -0.4 4.4 -1.1
v -0.3 4.4 -1.1
v -0.2 4.4 -1.1
v -0.9 4.4 -1.3
v -0.4 4.4 -1.3
v -0.2 4.4 -1.3
v 2.38419e-07 4.4 -1.3
v -1.4 4.8 1.4
v -1.1 4.8 1.4
v -1.4 4.8 0.7
v -1.1 4.8 0.7
v -1.4 4.8 -0.7
v -1.1 4.8 -0.7
v -1.4 4.8 -1.4
v -1.1 4.8 -1.4
v 0.2 4.9 1.4
v 0.6 4.9 1.4
v 0.4 4.9 1.3
v 0.5 4.9 1.3
v 0.6 4.9 1.3
v 0.2 4.9 1.1
v 0.4 4.9 1.1
v 0.2 4.9 -1.1
v 0.4 4.9 -1.1
v 0.4 4.9 -1.3
v 0.5 4.9 -1.3
v 0.6 4.9 -1.3
v 0.2 4.9 -1.4
v 0.6 4.9 -1.4
v 2.38419e-07 5.1 1.3
v 0.2 5.1 1.3
v 0.2 5.1 1.1
v 0.4 5.1 1.1
v 0.6 5.1 1.1
v 0.2 5.1 -1.1
v 0.4 5.1 -1.1
v 0.6 5.1 -1.1
v 2.38419e-07 5.1 -1.3
v 0.2 5.1 -1.3
v -1.1 5.3 1.1
v -0.9 5.3 1.1
v -1.1 5.3 0.7
v -1.1 5.3 0.5
v -1.1 5.3 0.2
v -1.1 5.3 -0.2
v -1.1 5.3 -0.5
v -1.1 5.3 -0.7
v -1.1 5.3 -1.1
v -0.9 5.3 -1.1
v -1.4 5.5 0.2
v -1.1 5.5 0.2
v -1.4 5.5 -0.2
v -1.1 5.5 -0.2
v -1.1 5.6 1.4
v 0.2 5.6 1.4
v -0.9 5.6 1.3
v 0.2 5.6 1.3
v -1.1 5.6 1.1
v -0.9 5.6 1.1
v -1.4 5.6 0.7
v -1.1 5.6 0.7
v -1.4 5.6 0.5
v -1.1 5.6 0.5
v -1.4 5.6 -0.5
v -1.1 5.6 -0.5
v -1.4 5.6 -0.7
v -1.1 5.6 -0.7
v -1.1 5.6 -1.1
v -0.9 5.6 -1.1
v -0.9 5.6 -1.3
v 0.2 5.6 -1.3
v -1.1 5.6 -1.4
v 0.2 5.6 -1.4
v 0.6 5.8 1.2
v 1 5.8 1.2
v 0.9 5.8 0.9
v 1 5.8 0.9
v 0.9 5.8 0.7
v 1 5.8 0.7
v -1.8 5.8 0.6
v -1.4 5.8 0.6
v -1.4 5.8 0.5
v 0.9 5.8 0.1
v 1 5.8 0.1
v 0.9 5.8 -0.1
v 1 5.8 -0.1
v -1.4 5.8 -0.5
v -1.8 5.8 -0.6
v -1.4 5.8 -0.6
v 0.9 5.8 -0.7
v 1 5.8 -0.7
v 0.9 5.8 -0.9
v 1 5.8 -0.9
v 0.6 5.8 -1.2
v 1 5.8 -1.2
v -2 6 0.4
v -1.8 6 0.4
v -2 6 0.1
v -1.8 6 0.1
v -2 6 -0.1
v -1.8 6 -0.1
v -2 6 -0.4
v -1.8 6 -0.4
v 0.5 3.6 1.3
v 0.7 3.6 1.3
v 0.5 3.6 1.1
v 0.7 3.6 1.1
v 0.5 3.6 -1.1
v 0.7 3.6 -1.1
v 0.5 3.6 -1.3
v 0.7 3.6 -1.3
v 0.4 3.7 1.3
v 0.5 3.7 1.3
v 0.4 3.7 1.1
v 0.5 3.7 1.1
v 0.4 3.7 -1.1
v 0.5 3.7 -1.1
v 0.4 3.7 -1.3
v 0.5 3.7 -1.3
v -0.6 3.9 1.3
v -0.4 3.9 1.3
v -0.6 3.9 1.1
v -0.4 3.9 1.1
v -0.6 3.9 -1.1
v -0.4 3.9 -1.1
v -0.6 3.9 -1.3
v -0.4 3.9 -1.3
v -0.7 4 1.3
v -0.6 4 1.3
v -0.7 4 1.1
v -0.6 4 1.1
v -0.7 4 -1.1
v -0.6 4 -1.1
v -0.7 4 -1.3
v -0.6 4 -1.3
v 0.6 4.2 1.3
v 0.9 4.2 1.3
v 0.6 4.2 1.1
v 0.9 4.2 1.1
v 0.6 4.2 -1.1
v 0.9 4.2 -1.1
v 0.6 4.2 -1.3
v 0.9 4.2 -1.3
v -1.4 4.5 0.7
v -1.1 4.5 0.7
v -1.4 4.5 0.5
v -1.1 4.5 0.5
v -1.4 4.5 -0.5
v -1.1 4.5 -0.5
v -1.4 4.5 -0.7
v -1.1 4.5 -0.7
v -1.4 5 1.3
v -1.1 5 1.3
v -1.4 5 1.1
v -1.1 5 1.1
v -1.4 5 -1.1
v -1.1 5 -1.1
v -1.4 5 -1.3
v -1.1 5 -1.3
v -1.4 5.1 1.4
v -1.1 5.1 1.4
v -1.4 5.1 1.3
v -1.1 5.1 1.3
v -1.4 5.1 -1.3
v -1.1 5.1 -1.3
v -1.4 5.1 -1.4
v -1.1 5.1 -1.4
v 0.9 6.3 1.2
v 1 6.3 1.2
v 0.9 6.3 0.9
v 0.9 6.3 0.8
v 0.9 6.3 0.5
v 1 6.3 0.5
v 0.9 6.3 0.4
v 1 6.3 0.4
v 0.9 6.3 0.2
v 0.9 6.3 0.1
v 1 6.3 0.1
v 0.9 6.3 -0.1
v 1 6.3 -0.1
v 0.9 6.3 -0.2
v 0.9 6.3 -0.4
v 1 6.3 -0.4
v 0.9 6.3 -0.5
v 1 6.3 -0.5
v 0.9 6.3 -0.8
v 0.9 6.3 -0.9
v 0.9 6.3 -1.2
v 1 6.3 -1.2
v -1.1 6.7 1.4
v 0.6 6.7 1.4
v 0.6 6.7 1.2
v 0.9 6.7 1.2
v -1.4 6.7 1.1
v -1.1 6.7 1.1
v 0.2 6.7 1.1
v 0.6 6.7 1.1
v 0.6 6.7 1
v 0.6 6.7 0.9
v 0.9 6.7 0.9
v 0.6 6.7 0.8
v 0.9 6.7 0.8
v -1.4 6.7 0.7
v -1.1 6.7 0.7
v 0.6 6.7 0.7
v -1.4 6.7 0.6
v -1.3 6.7 0.6
v 0.6 6.7 0.5
v 0.9 6.7 0.5
v -1.1 6.7 0.2
v 0.6 6.7 0.2
v 0.9 6.7 0.2
v 0.6 6.7 0.1
v 0.6 6.7 -0.1
v -1.1 6.7 -0.2
v 0.6 6.7 -0.2
v 0.9 6.7 -0.2
v 0.6 6.7 -0.5
v 0.9 6.7 -0.5
v -1.4 6.7 -0.6
v -1.3 6.7 -0.6
v -1.4 6.7 -0.7
v -1.1 6.7 -0.7
v 0.6 6.7 -0.7
v 0.6 6.7 -0.8
v 0.9 6.7 -0.8
v 0.6 6.7 -0.9
v 0.9 6.7 -0.9
v 0.6 6.7 -1
v -1.4 6.7 -1.1
v -1.1 6.7 -1.1
v 0.2 6.7 -1.1
v 0.6 6.7 -1.1
v 0.6 6.7 -1.2
v 0.9 6.7 -1.2
v -1.1 6.7 -1.4
v 0.6 6.7 -1.4
v -1.1 7 1.1
v 0.6 7 1.1
v -0.0999999 7 1
v 0.6 7 1
v -1.1 7 0.9
v -0.5 7 0.9
v -0.0999999 7 0.9
v 0.2 7 0.9
v 0.2 7 0.8
v 0.6 7 0.8
v -1.1 7 0.7
v -0.5 7 0.7
v -0.3 7 0.7
v 0.6 7 0.7
v -1.8 7 0.6
v -1.3 7 0.6
v -0.7 7 0.6
v -0.3 7 0.6
v -0.7 7 0.5
v 0.6 7 0.5
v -2 7 0.4
v -1.8 7 0.4
v -1.3 7 0.4
v -1.8 7 0.2
v -1.1 7 0.2
v -0.2 7 0.2
v -2 7 0.1
v -1.8 7 0.1
v -0.2 7 0.1
v 0.6 7 0.1
v -2 7 -0.1
v -1.8 7 -0.1
v -0.2 7 -0.1
v 0.6 7 -0.1
v -1.8 7 -0.2
v -1.1 7 -0.2
v -0.2 7 -0.2
v -2 7 -0.4
v -1.8 7 -0.4
v -1.3 7 -0.4
v -0.7 7 -0.5
v 0.6 7 -0.5
v -1.8 7 -0.6
v -1.3 7 -0.6
v -0.7 7 -0.6
v -0.3 7 -0.6
v -1.1 7 -0.7
v -0.5 7 -0.7
v -0.3 7 -0.7
v 0.6 7 -0.7
v 0.2 7 -0.8
v 0.6 7 -0.8
v -1.1 7 -0.9
v -0.5 7 -0.9
v -0.0999999 7 -0.9
v 0.2 7 -0.9
v -0.0999999 7 -1
v 0.6 7 -1
v -1.1 7 -1.1
v 0.6 7 -1.1
v -1.8 7.2 0.4
v -1.3 7.2 0.4
v -1.8 7.2 0.2
v -1.3 7.2 0.2
v -1.8 7.2 -0.2
v -1.3 7.2 -0.2
v -1.8 7.2 -0.4
v -1.3 7.2 -0.4

# faces
f 5/2/1 2/2/1 1/2/1
f 6/1/1 3/1/1 2/1/1
f 6/2/1 2/2/1 5/2/1
f 7/2/1 4/2/1 3/2/1
f 7/1/1 3/1/1 6/1/1
f 8/2/1 4/2/1 7/2/1
f 11/2/1 10/2/1 9/2/1
f 12/2/1 10/2/1 11/2/1
f 13/2/1 10/2/1 12/2/1
f 14/2/1 10/2/1 13/2/1
f 15/2/1 11/2/1 9/2/1
f 16/2/1 11/2/1 15/2/1
f 17/2/1 10/2/1 14/2/1
f 18/2/1 10/2/1 17/2/1
f 19/1/1 16/1/1 15/1/1
f 20/1/1 16/1/1 19/1/1
f 21/1/1 18/1/1 17/1/1
f 22/1/1 18/1/1 21/1/1
f 23/2/1 20/2/1 19/2/1
f 24/2/1 20/2/1 23/2/1
f 25/2/1 22/2/1 21/2/1
f 26/2/1 22/2/1 25/2/1
f 27/1/1 24/1/1 23/1/1
f 28/1/1 24/1/1 27/1/1
f 29/1/1 26/1/1 25/1/1
f 30/1/1 26/1/1 29/1/1
f 31/2/1 28/2/1 27/2/1
f 32/2/1 28/2/1 31/2/1
f 37/2/1 30/2/1 29/2/1
f 38/2/1 30/2/1 37/2/1
f 39/1/1 33/1/1 32/1/1
f 40/2/1 36/2/1 35/2/1
f 40/1/1 33/1/1 39/1/1
f 40/2/1 34/2/1 33/2/1
f 40/2/1 35/2/1 34/2/1
f 41/1/1 37/1/1 36/1/1
f 41/2/1 36/2/1 40/2/1
f 42/1/1 37/1/1 41/1/1
f 47/2/1 44/2/1 43/2/1
f 48/2/1 44/2/1 47/2/1
f 49/2/1 46/2/1 45/2/1
f 50/2/1 46/2/1 49/2/1
f 55/2/1 52/2/1 51/2/1
f 56/2/1 52/2/1 55/2/1
f 57/2/1 54/2/1 53/2/1
f 58/2/1 54/2/1 57/2/1
f 59/2/1 55/2/1 51/2/1
f 60/2/1 55/2/1 59/2/1
f 61/2/1 54/2/1 58/2/1
f 62/2/1 54/2/1 61/2/1
f 63/2/1 44/2/1 48/2/1
f 64/2/1 49/2/1 45/2/1
f 65/2/1 52/2/1 56/2/1
f 66/2/1 64/2/1 63/2/1
f 66/2/1 63/2/1 48/2/1
f 67/2/1 49/2/1 64/2/1
f 67/2/1 64/2/1 66/2/1
f 68/2/1 57/2/1 53/2/1
f 69/1/1 66/1/1 65/1/1
f 70/2/1 67/2/1 66/2/1
f 70/1/1 66/1/1 69/1/1
f 71/1/1 68/1/1 67/1/1
f 71/2/1 67/2/1 70/2/1
f 72/1/1 68/1/1 71/1/1
f 73/1/1 69/1/1 65/1/1
f 74/1/1 68/1/1 72/1/1
f 75/1/1 73/1/1 65/1/1
f 76/1/1 68/1/1 74/1/1
f 77/2/1 65/2/1 56/2/1
f 78/1/1 75/1/1 65/1/1
f 78/2/1 65/2/1 77/2/1
f 79/1/1 75/1/1 78/1/1
f 80/1/1 68/1/1 76/1/1
f 81/2/1 57/2/1 68/2/1
f 81/1/1 68/1/1 80/1/1
f 82/2/1 57/2/1 81/2/1
f 89/2/1 86/2/1 85/2/1
f 90/2/1 86/2/1 89/2/1
f 93/2/1 84/2/1 83/2/1
f 94/2/1 84/2/1 93/2/1
f 95/2/1 88/2/1 87/2/1
f 96/2/1 88/2/1 95/2/1
f 99/2/1 92/2/1 91/2/1
f 100/2/1 92/2/1 99/2/1
f 101/2/1 98/2/1 97/2/1
f 102/2/1 98/2/1 101/2/1
f 103/1/1 100/1/1 99/1/1
f 104/1/1 100/1/1 103/1/1
f 105/1/1 102/1/1 101/1/1
f 106/1/1 102/1/1 105/1/1
f 107/2/1 104/2/1 103/2/1
f 108/2/1 104/2/1 107/2/1
f 113/2/1 106/2/1 105/2/1
f 114/2/1 106/2/1 113/2/1
f 115/1/1 109/1/1 108/1/1
f 116/1/1 109/1/1 115/1/1
f 117/1/1 113/1/1 112/1/1
f 118/1/1 113/1/1 117/1/1
f 119/2/1 116/2/1 115/2/1
f 120/1/1 109/1/1 116/1/1
f 120/2/1 116/2/1 119/2/1
f 121/2/1 110/2/1 109/2/1
f 121/1/1 109/1/1 120/1/1
f 122/1/1 111/1/1 110/1/1
f 122/2/1 110/2/1 121/2/1
f 123/2/1 112/2/1 111/2/1
f 123/1/1 111/1/1 122/1/1
f 124/1/1 117/1/1 112/1/1
f 124/2/1 112/2/1 123/2/1
f 125/2/1 118/2/1 117/2/1
f 125/1/1 117/1/1 124/1/1
f 126/2/1 118/2/1 125/2/1
f 130/2/1 128/2/1 127/2/1
f 131/2/1 128/2/1 130/2/1
f 133/1/1 130/1/1 129/1/1
f 133/1/1 132/1/1 131/1/1
f 133/1/1 131/1/1 130/1/1
f 134/1/1 132/1/1 133/1/1
f 135/2/1 134/2/1 133/2/1
f 136/2/1 134/2/1 135/2/1
f 137/1/1 136/1/1 135/1/1
f 138/1/1 136/1/1 137/1/1
f 139/2/1 138/2/1 137/2/1
f 140/2/1 138/2/1 139/2/1
f 141/2/1 138/2/1 140/2/1
f 142/2/1 138/2/1 141/2/1
f 143/1/1 140/1/1 139/1/1
f 144/1/1 140/1/1 143/1/1
f 145/1/1 142/1/1 141/1/1
f 146/1/1 142/1/1 145/1/1
f 151/1/1 148/1/1 147/1/1
f 152/1/1 148/1/1 151/1/1
f 153/1/1 150/1/1 149/1/1
f 154/1/1 150/1/1 153/1/1
f 155/2/1 152/2/1 151/2/1
f 156/2/1 152/2/1 155/2/1
f 157/2/1 154/2/1 153/2/1
f 158/2/1 154/2/1 157/2/1
f 163/2/1 160/2/1 159/2/1
f 164/2/1 160/2/1 163/2/1
f 165/2/1 162/2/1 161/2/1
f 166/2/1 162/2/1 165/2/1
f 171/1/1 168/1/1 167/1/1
f 172/1/1 168/1/1 171/1/1
f 173/1/1 170/1/1 169/1/1
f 174/1/1 170/1/1 173/1/1
f 175/1/1 171/1/1 167/1/1
f 176/1/1 170/1/1 174/1/1
f 177/1/1 175/1/1 167/1/1
f 178/1/1 175/1/1 177/1/1
f 179/1/1 170/1/1 176/1/1
f 180/1/1 170/1/1 179/1/1
f 185/2/1 182/2/1 181/2/1
f 186/2/1 182/2/1 185/2/1
f 187/2/1 184/2/1 183/2/1
f 188/2/1 184/2/1 187/2/1
f 189/1/1 186/1/1 185/1/1
f 190/1/1 186/1/1 189/1/1
f 191/1/1 188/1/1 187/1/1
f 192/1/1 188/1/1 191/1/1
f 197/1/1 194/1/1 193/1/1
f 198/1/1 194/1/1 197/1/1
f 199/1/1 196/1/1 195/1/1
f 200/1/1 196/1/1 199/1/1
f 205/1/1 202/1/1 201/1/1
f 206/1/1 202/1/1 205/1/1
f 207/1/1 204/1/1 203/1/1
f 208/1/1 204/1/1 207/1/1
f 209/1/2 210/1/2 211/1/2
f 211/1/2 210/1/2 212/1/2
f 212/1/2 210/1/2 213/1/2
f 213/1/2 210/1/2 214/1/2
f 214/1/2 210/1/2 215/1/2
f 215/1/2 210/1/2 216/1/2
f 211/2/2 212/2/2 217/2/2
f 212/1/2 213/1/2 218/1/2
f 217/2/2 212/2/2 218/2/2
f 214/1/2 215/1/2 219/1/2
f 215/2/2 216/2/2 219/2/2
f 219/2/2 216/2/2 220/2/2
f 218/1/2 213/1/2 221/1/2
f 213/2/2 214/2/2 222/2/2
f 221/1/2 213/1/2 222/1/2
f 214/1/2 219/1/2 223/1/2
f 222/2/2 214/2/2 223/2/2
f 223/1/2 219/1/2 224/1/2
f 225/2/2 226/2/2 229/2/2
f 229/2/2 226/2/2 230/2/2
f 227/2/2 228/2/2 231/2/2
f 231/2/2 228/2/2 232/2/2
f 233/2/2 234/2/2 237/2/2
f 237/2/2 234/2/2 238/2/2
f 235/2/2 236/2/2 239/2/2
f 239/2/2 236/2/2 240/2/2
f 233/2/2 237/2/2 241/2/2
f 241/2/2 237/2/2 242/2/2
f 240/2/2 236/2/2 243/2/2
f 243/2/2 236/2/2 244/2/2
f 238/2/2 234/2/2 245/2/2
f 245/2/2 234/2/2 246/2/2
f 230/2/2 226/2/2 247/2/2
f 247/2/2 226/2/2 248/2/2
f 227/2/2 231/2/2 249/2/2
f 249/2/2 231/2/2 250/2/2
f 235/2/2 239/2/2 251/2/2
f 251/2/2 239/2/2 252/2/2
f 253/2/2 254/2/2 257/2/2
f 257/2/2 254/2/2 258/2/2
f 255/2/2 256/2/2 259/2/2
f 259/2/2 256/2/2 260/2/2
f 261/1/2 262/1/2 265/1/2
f 265/1/2 262/1/2 266/1/2
f 263/1/2 264/1/2 267/1/2
f 267/1/2 264/1/2 268/1/2
f 269/2/2 270/2/2 272/2/2
f 272/2/2 270/2/2 273/2/2
f 271/1/2 272/1/2 275/1/2
f 273/1/2 274/1/2 275/1/2
f 272/1/2 273/1/2 275/1/2
f 275/1/2 274/1/2 276/1/2
f 275/2/2 276/2/2 277/2/2
f 277/2/2 276/2/2 278/2/2
f 277/1/2 278/1/2 279/1/2
f 279/1/2 278/1/2 280/1/2
f 281/1/2 282/1/2 285/1/2
f 285/1/2 282/1/2 286/1/2
f 283/1/2 284/1/2 287/1/2
f 287/1/2 284/1/2 288/1/2
f 289/2/2 290/2/2 294/2/2
f 294/2/2 290/2/2 295/2/2
f 291/2/2 292/2/2 296/2/2
f 296/2/2 292/2/2 297/2/2
f 294/1/2 295/1/2 299/1/2
f 293/1/2 294/1/2 299/1/2
f 299/1/2 295/1/2 300/1/2
f 297/1/2 298/1/2 301/1/2
f 296/1/2 297/1/2 301/1/2
f 301/1/2 298/1/2 302/1/2
f 299/2/2 300/2/2 303/2/2
f 303/2/2 300/2/2 304/2/2
f 301/2/2 302/2/2 305/2/2
f 305/2/2 302/2/2 306/2/2
f 303/1/2 304/1/2 307/1/2
f 299/2/2 303/2/2 307/2/2
f 305/1/2 306/1/2 307/1/2
f 304/1/2 305/1/2 307/1/2
f 306/2/2 302/2/2 308/2/2
f 307/1/2 306/1/2 308/1/2
f 299/2/2 307/2/2 309/2/2
f 309/2/2 307/2/2 310/2/2
f 308/2/2 302/2/2 311/2/2
f 311/2/2 302/2/2 312/2/2
f 309/1/2 310/1/2 313/1/2
f 313/1/2 310/1/2 314/1/2
f 311/1/2 312/1/2 315/1/2
f 315/1/2 312/1/2 316/1/2
f 313/2/2 314/2/2 317/2/2
f 317/2/2 314/2/2 318/2/2
f 315/2/2 316/2/2 335/2/2
f 335/2/2 316/2/2 336/2/2
f 319/2/2 320/2/2 337/2/2
f 320/1/2 321/1/2 338/1/2
f 337/2/2 320/2/2 338/2/2
f 321/1/2 322/1/2 338/1/2
f 322/2/2 323/2/2 339/2/2
f 338/1/2 322/1/2 339/1/2
f 323/1/2 324/1/2 340/1/2
f 339/2/2 323/2/2 340/2/2
f 324/2/2 325/2/2 341/2/2
f 340/1/2 324/1/2 341/1/2
f 325/2/2 326/2/2 341/2/2
f 326/1/2 327/1/2 342/1/2
f 341/2/2 326/2/2 342/2/2
f 327/2/2 328/2/2 343/2/2
f 342/1/2 327/1/2 343/1/2
f 328/2/2 329/2/2 343/2/2
f 329/1/2 330/1/2 344/1/2
f 343/2/2 329/2/2 344/2/2
f 330/2/2 331/2/2 345/2/2
f 344/1/2 330/1/2 345/1/2
f 332/1/2 333/1/2 346/1/2
f 345/2/2 331/2/2 346/2/2
f 331/1/2 332/1/2 346/1/2
f 333/2/2 334/2/2 347/2/2
f 346/1/2 333/1/2 347/1/2
f 347/2/2 334/2/2 348/2/2
f 349/2/2 350/2/2 353/2/2
f 353/2/2 350/2/2 354/2/2
f 351/2/2 352/2/2 355/2/2
f 355/2/2 352/2/2 356/2/2
f 357/2/2 358/2/2 371/2/2
f 358/1/2 359/1/2 372/1/2
f 371/2/2 358/2/2 372/2/2
f 359/2/2 360/2/2 373/2/2
f 372/1/2 359/1/2 373/1/2
f 360/1/2 361/1/2 374/1/2
f 373/2/2 360/2/2 374/2/2
f 361/1/2 362/1/2 374/1/2
f 362/2/2 363/2/2 375/2/2
f 374/1/2 362/1/2 375/1/2
f 363/2/2 364/2/2 375/2/2
f 364/2/2 365/2/2 375/2/2
f 366/1/2 367/1/2 376/1/2
f 375/2/2 365/2/2 376/2/2
f 365/1/2 366/1/2 376/1/2
f 367/2/2 368/2/2 377/2/2
f 376/1/2 367/1/2 377/1/2
f 368/1/2 369/1/2 378/1/2
f 377/2/2 368/2/2 378/2/2
f 369/2/2 370/2/2 379/2/2
f 378/1/2 369/1/2 379/1/2
f 379/2/2 370/2/2 380/2/2
f 381/2/2 382/2/2 389/2/2
f 382/1/2 383/1/2 389/1/2
f 389/1/2 383/1/2 390/1/2
f 383/2/2 384/2/2 391/2/2
f 391/2/2 384/2/2 392/2/2
f 385/2/2 386/2/2 393/2/2
f 393/2/2 386/2/2 394/2/2
f 386/1/2 387/1/2 395/1/2
f 387/2/2 388/2/2 396/2/2
f 395/1/2 387/1/2 396/1/2
f 390/1/2 383/1/2 397/1/2
f 389/2/2 390/2/2 397/2/2
f 383/2/2 391/2/2 398/2/2
f 397/1/2 383/1/2 398/1/2
f 386/1/2 395/1/2 399/1/2
f 394/2/2 386/2/2 399/2/2
f 395/2/2 396/2/2 400/2/2
f 399/1/2 395/1/2 400/1/2
f 397/2/2 398/2/2 401/2/2
f 381/2/2 389/2/2 401/2/2
f 389/2/2 397/2/2 401/2/2
f 398/2/2 391/2/2 402/2/2
f 401/2/2 398/2/2 402/2/2
f 391/1/2 392/1/2 402/1/2
f 392/2/2 384/2/2 403/2/2
f 402/1/2 392/1/2 403/1/2
f 384/1/2 385/1/2 404/1/2
f 403/2/2 384/2/2 404/2/2
f 385/2/2 393/2/2 405/2/2
f 404/1/2 385/1/2 405/1/2
f 393/1/2 394/1/2 406/1/2
f 405/2/2 393/2/2 406/2/2
f 399/2/2 400/2/2 407/2/2
f 406/1/2 394/1/2 407/1/2
f 394/2/2 399/2/2 407/2/2
f 400/2/2 396/2/2 408/2/2
f 407/2/2 400/2/2 408/2/2
f 396/2/2 388/2/2 408/2/2
f 411/2/3 410/2/3 409/2/3
f 412/2/3 410/2/3 411/2/3
f 417/2/3 416/2/3 415/2/3
f 418/2/3 416/2/3 417/2/3
f 419/1/3 415/1/3 414/1/3
f 419/2/3 414/2/3 413/2/3
f 420/1/3 415/1/3 419/1/3
f 421/2/3 416/2/3 418/2/3
f 421/1/3 418/1/3 417/1/3
f 422/2/3 416/2/3 421/2/3
f 423/1/3 415/1/3 420/1/3
f 423/2/3 420/2/3 419/2/3
f 424/1/3 415/1/3 423/1/3
f 426/2/3 419/2/3 413/2/3
f 426/2/3 423/2/3 419/2/3
f 426/2/3 424/2/3 423/2/3
f 427/1/3 426/1/3 425/1/3
f 428/2/3 424/2/3 426/2/3
f 428/1/3 426/1/3 427/1/3
f 429/1/3 415/1/3 424/1/3
f 429/2/3 424/2/3 428/2/3
f 430/2/3 417/2/3 415/2/3
f 430/1/3 415/1/3 429/1/3
f 431/1/3 427/1/3 425/1/3
f 432/2/3 429/2/3 428/2/3
f 432/1/3 427/1/3 431/1/3
f 432/2/3 428/2/3 427/2/3
f 432/2/3 430/2/3 429/2/3
f 433/1/3 422/1/3 421/1/3
f 433/2/3 430/2/3 432/2/3
f 433/2/3 417/2/3 430/2/3
f 433/1/3 421/1/3 417/1/3
f 434/2/3 416/2/3 422/2/3
f 434/1/3 422/1/3 433/1/3
f 435/2/3 416/2/3 434/2/3
f 445/2/3 444/2/3 443/2/3
f 446/2/3 444/2/3 445/2/3
f 447/2/3 445/2/3 443/2/3
f 448/1/3 437/1/3 436/1/3
f 449/2/3 447/2/3 443/2/3
f 449/2/3 448/2/3 447/2/3
f 449/1/3 443/1/3 442/1/3
f 450/1/3 437/1/3 448/1/3
f 450/2/3 448/2/3 449/2/3
f 451/1/3 449/1/3 442/1/3
f 451/1/3 450/1/3 449/1/3
f 452/1/3 437/1/3 450/1/3
f 452/1/3 450/1/3 451/1/3
f 453/1/3 437/1/3 452/1/3
f 454/2/3 438/2/3 437/2/3
f 454/1/3 437/1/3 453/1/3
f 455/1/3 439/1/3 438/1/3
f 455/2/3 438/2/3 454/2/3
f 456/2/3 440/2/3 439/2/3
f 456/1/3 439/1/3 455/1/3
f 457/2/3 440/2/3 456/2/3
f 458/1/3 441/1/3 440/1/3
f 458/2/3 440/2/3 457/2/3
f 459/1/3 441/1/3 458/1/3
f 465/1/3 462/1/3 461/1/3
f 466/1/3 462/1/3 465/1/3
f 467/1/3 464/1/3 463/1/3
f 468/1/3 464/1/3 467/1/3
f 469/2/3 468/2/3 467/2/3
f 470/2/3 468/2/3 469/2/3
f 471/1/3 465/1/3 461/1/3
f 472/1/3 467/1/3 463/1/3
f 473/2/3 461/2/3 460/2/3
f 473/1/3 472/1/3 471/1/3
f 473/1/3 471/1/3 461/1/3
f 474/1/3 467/1/3 472/1/3
f 474/1/3 472/1/3 473/1/3
f 474/2/3 469/2/3 467/2/3
f 475/2/3 473/2/3 460/2/3
f 475/2/3 474/2/3 473/2/3
f 476/2/3 469/2/3 474/2/3
f 476/2/3 474/2/3 475/2/3
f 481/2/3 478/2/3 477/2/3
f 481/2/3 480/2/3 479/2/3
f 481/2/3 479/2/3 478/2/3
f 482/2/3 480/2/3 481/2/3
f 483/2/3 481/2/3 477/2/3
f 484/2/3 481/2/3 483/2/3
f 487/2/3 486/2/3 485/2/3
f 488/2/3 486/2/3 487/2/3
f 489/2/3 486/2/3 488/2/3
f 490/2/3 486/2/3 489/2/3
f 491/2/3 486/2/3 490/2/3
f 492/2/3 486/2/3 491/2/3
f 495/2/3 489/2/3 488/2/3
f 496/2/3 489/2/3 495/2/3
f 497/1/3 493/1/3 492/1/3
f 498/2/3 494/2/3 493/2/3
f 498/1/3 493/1/3 497/1/3
f 499/2/3 498/2/3 497/2/3
f 500/2/3 494/2/3 498/2/3
f 500/2/3 498/2/3 499/2/3
f 503/2/3 502/2/3 501/2/3
f 504/2/3 502/2/3 503/2/3
f 507/2/3 506/2/3 505/2/3
f 508/2/3 506/2/3 507/2/3
f 515/2/3 510/2/3 509/2/3
f 516/1/3 511/1/3 510/1/3
f 516/2/3 510/2/3 515/2/3
f 517/2/3 512/2/3 511/2/3
f 517/1/3 511/1/3 516/1/3
f 518/1/3 513/1/3 512/1/3
f 518/2/3 512/2/3 517/2/3
f 519/1/3 513/1/3 518/1/3
f 520/2/3 514/2/3 513/2/3
f 520/1/3 513/1/3 519/1/3
f 521/2/3 514/2/3 520/2/3
f 524/2/3 523/2/3 522/2/3
f 525/2/3 523/2/3 524/2/3
f 526/2/3 523/2/3 525/2/3
f 529/2/3 528/2/3 527/2/3
f 530/2/3 528/2/3 529/2/3
f 531/2/3 528/2/3 530/2/3
f 532/2/3 528/2/3 531/2/3
f 533/2/3 528/2/3 532/2/3
f 534/2/3 528/2/3 533/2/3
f 536/1/3 535/1/3 534/1/3
f 537/1/3 535/1/3 536/1/3
f 540/2/3 539/2/3 538/2/3
f 541/2/3 539/2/3 540/2/3
f 542/2/3 539/2/3 541/2/3
f 545/2/3 544/2/3 543/2/3
f 546/2/3 544/2/3 545/2/3
f 547/2/3 544/2/3 546/2/3
f 551/2/3 550/2/3 549/2/3
f 552/2/3 550/2/3 551/2/3
f 553/2/3 551/2/3 549/2/3
f 555/1/3 549/1/3 548/1/3
f 555/2/3 554/2/3 553/2/3
f 555/2/3 553/2/3 549/2/3
f 556/2/3 554/2/3 555/2/3
f 557/1/3 555/1/3 548/1/3
f 557/1/3 556/1/3 555/1/3
f 558/1/3 556/1/3 557/1/3
f 565/1/3 560/1/3 559/1/3
f 566/1/3 560/1/3 565/1/3
f 567/1/3 560/1/3 566/1/3
f 568/1/3 563/1/3 562/1/3
f 569/1/3 563/1/3 568/1/3
f 570/1/3 565/1/3 564/1/3
f 570/1/3 566/1/3 565/1/3
f 571/1/3 566/1/3 570/1/3
f 572/2/3 571/2/3 570/2/3
f 573/1/3 566/1/3 571/1/3
f 573/2/3 571/2/3 572/2/3
f 574/2/3 567/2/3 566/2/3
f 574/1/3 566/1/3 573/1/3
f 575/2/3 567/2/3 574/2/3
f 576/1/3 568/1/3 562/1/3
f 577/1/3 570/1/3 564/1/3
f 578/2/3 562/2/3 561/2/3
f 578/1/3 577/1/3 576/1/3
f 578/1/3 576/1/3 562/1/3
f 579/1/3 570/1/3 577/1/3
f 579/1/3 577/1/3 578/1/3
f 579/2/3 572/2/3 570/2/3
f 580/2/3 578/2/3 561/2/3
f 580/2/3 579/2/3 578/2/3
f 581/2/3 572/2/3 579/2/3
f 581/2/3 579/2/3 580/2/3
f 584/2/3 583/2/3 582/2/3
f 585/2/3 583/2/3 584/2/3
f 586/2/4 587/2/4 588/2/4
f 588/2/4 587/2/4 589/2/4
f 591/2/4 592/2/4 593/2/4
f 593/2/4 592/2/4 594/2/4
f 591/2/4 593/2/4 595/2/4
f 590/1/4 591/1/4 597/1/4
f 595/2/4 596/2/4 597/2/4
f 591/2/4 595/2/4 597/2/4
f 597/2/4 596/2/4 598/2/4
f 590/1/4 597/1/4 599/1/4
f 597/1/4 598/1/4 599/1/4
f 599/1/4 598/1/4 600/1/4
f 601/1/4 602/1/4 607/1/4
f 607/1/4 602/1/4 608/1/4
f 608/1/4 602/1/4 609/1/4
f 604/1/4 605/1/4 610/1/4
f 610/1/4 605/1/4 611/1/4
f 606/1/4 607/1/4 612/1/4
f 607/1/4 608/1/4 612/1/4
f 612/1/4 608/1/4 613/1/4
f 612/2/4 613/2/4 614/2/4
f 613/1/4 608/1/4 615/1/4
f 614/2/4 613/2/4 615/2/4
f 608/2/4 609/2/4 616/2/4
f 615/1/4 608/1/4 616/1/4
f 616/2/4 609/2/4 617/2/4
f 604/1/4 610/1/4 618/1/4
f 606/1/4 612/1/4 619/1/4
f 603/2/4 604/2/4 620/2/4
f 618/1/4 619/1/4 620/1/4
f 604/1/4 618/1/4 620/1/4
f 619/1/4 612/1/4 621/1/4
f 620/1/4 619/1/4 621/1/4
f 612/2/4 614/2/4 621/2/4
f 603/2/4 620/2/4 622/2/4
f 620/2/4 621/2/4 622/2/4
f 621/2/4 614/2/4 623/2/4
f 622/2/4 621/2/4 623/2/4
f 624/2/4 625/2/4 626/2/4
f 626/2/4 625/2/4 627/2/4
f 627/2/4 625/2/4 628/2/4
f 629/2/4 630/2/4 631/2/4
f 631/2/4 630/2/4 632/2/4
f 632/2/4 630/2/4 633/2/4
f 634/2/4 635/2/4 636/2/4
f 636/2/4 635/2/4 637/2/4
f 637/2/4 635/2/4 638/2/4
f 638/2/4 635/2/4 639/2/4
f 639/2/4 635/2/4 640/2/4
f 640/2/4 635/2/4 641/2/4
f 641/1/4 642/1/4 643/1/4
f 643/1/4 642/1/4 644/1/4
f 645/2/4 646/2/4 647/2/4
f 647/2/4 646/2/4 648/2/4
f 648/2/4 646/2/4 649/2/4
f 650/2/4 651/2/4 656/2/4
f 651/1/4 652/1/4 657/1/4
f 656/2/4 651/2/4 657/2/4
f 652/2/4 653/2/4 658/2/4
f 657/1/4 652/1/4 658/1/4
f 653/1/4 654/1/4 659/1/4
f 658/2/4 653/2/4 659/2/4
f 659/1/4 654/1/4 660/1/4
f 654/2/4 655/2/4 661/2/4
f 660/1/4 654/1/4 661/1/4
f 661/2/4 655/2/4 662/2/4
f 663/2/4 664/2/4 665/2/4
f 665/2/4 664/2/4 666/2/4
f 667/2/4 668/2/4 669/2/4
f 669/2/4 668/2/4 670/2/4
f 671/2/4 672/2/4 673/2/4
f 673/2/4 672/2/4 674/2/4
f 674/2/4 672/2/4 675/2/4
f 675/2/4 672/2/4 676/2/4
f 676/2/4 672/2/4 677/2/4
f 677/2/4 672/2/4 678/2/4
f 674/2/4 675/2/4 681/2/4
f 681/2/4 675/2/4 682/2/4
f 678/1/4 679/1/4 683/1/4
f 679/2/4 680/2/4 684/2/4
f 683/1/4 679/1/4 684/1/4
f 683/2/4 684/2/4 685/2/4
f 684/2/4 680/2/4 686/2/4
f 685/2/4 684/2/4 686/2/4
f 687/2/4 688/2/4 691/2/4
f 689/2/4 690/2/4 691/2/4
f 688/2/4 689/2/4 691/2/4
f 691/2/4 690/2/4 692/2/4
f 687/2/4 691/2/4 693/2/4
f 693/2/4 691/2/4 694/2/4
f 702/2/4 703/2/4 704/2/4
f 704/2/4 703/2/4 705/2/4
f 702/2/4 704/2/4 706/2/4
f 695/1/4 696/1/4 707/1/4
f 702/2/4 706/2/4 708/2/4
f 706/2/4 707/2/4 708/2/4
f 701/1/4 702/1/4 708/1/4
f 707/1/4 696/1/4 709/1/4
f 708/2/4 707/2/4 709/2/4
f 701/1/4 708/1/4 710/1/4
f 708/1/4 709/1/4 710/1/4
f 709/1/4 696/1/4 711/1/4
f 710/1/4 709/1/4 711/1/4
f 711/1/4 696/1/4 712/1/4
f 696/2/4 697/2/4 713/2/4
f 712/1/4 696/1/4 713/1/4
f 697/1/4 698/1/4 714/1/4
f 713/2/4 697/2/4 714/2/4
f 698/2/4 699/2/4 715/2/4
f 714/1/4 698/1/4 715/1/4
f 715/2/4 699/2/4 716/2/4
f 699/1/4 700/1/4 717/1/4
f 716/2/4 699/2/4 717/2/4
f 717/1/4 700/1/4 718/1/4
f 720/1/4 721/1/4 724/1/4
f 724/1/4 721/1/4 725/1/4
f 722/1/4 723/1/4 726/1/4
f 726/1/4 723/1/4 727/1/4
f 726/2/4 727/2/4 728/2/4
f 728/2/4 727/2/4 729/2/4
f 720/1/4 724/1/4 730/1/4
f 722/1/4 726/1/4 731/1/4
f 719/2/4 720/2/4 732/2/4
f 730/1/4 731/1/4 732/1/4
f 720/1/4 730/1/4 732/1/4
f 731/1/4 726/1/4 733/1/4
f 732/1/4 731/1/4 733/1/4
f 726/2/4 728/2/4 733/2/4
f 719/2/4 732/2/4 734/2/4
f 732/2/4 733/2/4 734/2/4
f 733/2/4 728/2/4 735/2/4
f 734/2/4 733/2/4 735/2/4
f 736/2/4 737/2/4 738/2/4
f 738/2/4 737/2/4 739/2/4
f 742/2/4 743/2/4 744/2/4
f 744/2/4 743/2/4 745/2/4
f 741/1/4 742/1/4 746/1/4
f 740/2/4 741/2/4 746/2/4
f 746/1/4 742/1/4 747/1/4
f 745/2/4 743/2/4 748/2/4
f 744/1/4 745/1/4 748/1/4
f 748/2/4 743/2/4 749/2/4
f 747/1/4 742/1/4 750/1/4
f 746/2/4 747/2/4 750/2/4
f 750/1/4 742/1/4 751/1/4
f 740/2/4 746/2/4 753/2/4
f 746/2/4 750/2/4 753/2/4
f 750/2/4 751/2/4 753/2/4
f 752/1/4 753/1/4 754/1/4
f 753/2/4 751/2/4 755/2/4
f 754/1/4 753/1/4 755/1/4
f 751/1/4 742/1/4 756/1/4
f 755/2/4 751/2/4 756/2/4
f 742/2/4 744/2/4 757/2/4
f 756/1/4 742/1/4 757/1/4
f 752/1/4 754/1/4 758/1/4
f 755/2/4 756/2/4 759/2/4
f 758/1/4 754/1/4 759/1/4
f 754/2/4 755/2/4 759/2/4
f 756/2/4 757/2/4 759/2/4
f 748/1/4 749/1/4 760/1/4
f 759/2/4 757/2/4 760/2/4
f 757/2/4 744/2/4 760/2/4
f 744/1/4 748/1/4 760/1/4
f 749/2/4 743/2/4 761/2/4
f 760/1/4 749/1/4 761/1/4
f 761/2/4 743/2/4 762/2/4
f 765/2/5 764/2/5 763/2/5
f 766/2/5 764/2/5 765/2/5
f 769/2/5 768/2/5 767/2/5
f 770/2/5 768/2/5 769/2/5
f 773/1/5 772/1/5 771/1/5
f 774/1/5 772/1/5 773/1/5
f 777/1/5 776/1/5 775/1/5
f 778/1/5 776/1/5 777/1/5
f 781/1/5 780/1/5 779/1/5
f 782/1/5 780/1/5 781/1/5
f 785/1/5 784/1/5 783/1/5
f 786/1/5 784/1/5 785/1/5
f 789/2/5 788/2/5 787/2/5
f 790/2/5 788/2/5 789/2/5
f 795/1/5 792/1/5 791/1/5
f 797/1/5 794/1/5 793/1/5
f 798/1/5 796/1/5 795/1/5
f 798/1/5 797/1/5 796/1/5
f 798/1/5 795/1/5 791/1/5
f 799/1/5 794/1/5 797/1/5
f 799/1/5 797/1/5 798/1/5
f 802/2/5 801/2/5 800/2/5
f 803/2/5 801/2/5 802/2/5
f 806/2/5 805/2/5 804/2/5
f 807/2/5 805/2/5 806/2/5
f 810/1/5 809/1/5 808/1/5
f 811/1/5 809/1/5 810/1/5
f 812/1/5 809/1/5 811/1/5
f 813/1/5 810/1/5 808/1/5
f 814/1/5 810/1/5 813/1/5
f 815/1/5 809/1/5 812/1/5
f 816/1/5 809/1/5 815/1/5
f 819/2/5 818/2/5 817/2/5
f 820/2/5 818/2/5 819/2/5
f 823/2/5 822/2/5 821/2/5
f 824/2/5 822/2/5 823/2/5
f 827/1/5 826/1/5 825/1/5
f 828/1/5 826/1/5 827/1/5
f 829/1/5 826/1/5 828/1/5
f 830/1/5 827/1/5 825/1/5
f 831/1/5 827/1/5 830/1/5
f 834/1/5 833/1/5 832/1/5
f 837/1/5 834/1/5 832/1/5
f 837/1/5 836/1/5 835/1/5
f 837/1/5 835/1/5 834/1/5
f 838/1/5 836/1/5 837/1/5
f 841/2/5 840/2/5 839/2/5
f 844/2/5 841/2/5 839/2/5
f 844/1/5 843/1/5 842/1/5
f 844/1/5 842/1/5 841/1/5
f 845/1/5 843/1/5 844/1/5
f 846/1/5 843/1/5 845/1/5
f 847/2/5 844/2/5 839/2/5
f 848/2/5 844/2/5 847/2/5
f 851/2/5 850/2/5 849/2/5
f 852/2/5 850/2/5 851/2/5
f 853/2/5 850/2/5 852/2/5
f 854/2/5 850/2/5 853/2/5
f 855/2/5 850/2/5 854/2/5
f 856/2/5 850/2/5 855/2/5
f 857/2/5 850/2/5 856/2/5
f 858/2/5 850/2/5 857/2/5
f 861/2/5 860/2/5 859/2/5
f 862/2/5 860/2/5 861/2/5
f 865/2/5 864/2/5 863/2/5
f 866/2/5 864/2/5 865/2/5
f 867/2/5 865/2/5 863/2/5
f 868/2/5 865/2/5 867/2/5
f 871/1/5 870/1/5 869/1/5
f 872/1/5 870/1/5 871/1/5
f 875/1/5 874/1/5 873/1/5
f 876/1/5 874/1/5 875/1/5
f 879/2/5 878/2/5 877/2/5
f 881/2/5 879/2/5 877/2/5
f 881/2/5 880/2/5 879/2/5
f 882/2/5 880/2/5 881/2/5
f 885/2/5 884/2/5 883/2/5
f 886/2/5 884/2/5 885/2/5
f 887/2/5 885/2/5 883/2/5
f 887/1/5 886/1/5 885/1/5
f 888/1/5 886/1/5 887/1/5
f 891/2/5 890/2/5 889/2/5
f 892/2/5 887/2/5 883/2/5
f 892/2/5 888/2/5 887/2/5
f 893/2/5 888/2/5 892/2/5
f 894/2/5 892/2/5 883/2/5
f 894/1/5 893/1/5 892/1/5
f 895/1/5 893/1/5 894/1/5
f 896/2/5 891/2/5 889/2/5
f 897/2/5 896/2/5 889/2/5
f 898/2/5 896/2/5 897/2/5
f 899/2/5 894/2/5 883/2/5
f 899/2/5 895/2/5 894/2/5
f 900/2/5 895/2/5 899/2/5
f 901/2/5 899/2/5 883/2/5
f 901/1/5 900/1/5 899/1/5
f 902/1/5 900/1/5 901/1/5
f 903/2/5 901/2/5 883/2/5
f 903/2/5 902/2/5 901/2/5
f 904/2/5 902/2/5 903/2/5
f 907/2/5 906/2/5 905/2/5
f 908/2/5 906/2/5 907/2/5
f 909/1/5 908/1/5 907/1/5
f 910/1/5 908/1/5 909/1/5
f 911/2/5 910/2/5 909/2/5
f 912/2/5 910/2/5 911/2/5
f 913/1/6 914/1/6 915/1/6
f 915/1/6 914/1/6 916/1/6
f 917/1/6 918/1/6 919/1/6
f 919/1/6 918/1/6 920/1/6
f 921/1/6 922/1/6 923/1/6
f 923/1/6 922/1/6 924/1/6
f 925/1/6 926/1/6 927/1/6
f 927/1/6 926/1/6 928/1/6
f 929/2/6 930/2/6 931/2/6
f 931/2/6 930/2/6 932/2/6
f 933/2/6 934/2/6 935/2/6
f 935/2/6 934/2/6 936/2/6
f 937/2/6 938/2/6 939/2/6
f 939/2/6 938/2/6 940/2/6
f 941/2/6 942/2/6 943/2/6
f 943/2/6 942/2/6 944/2/6
f 945/2/6 946/2/6 947/2/6
f 947/2/6 946/2/6 948/2/6
f 949/2/6 950/2/6 951/2/6
f 951/2/6 950/2/6 952/2/6
f 953/2/6 954/2/6 955/2/6
f 955/2/6 954/2/6 956/2/6
f 957/2/6 958/2/6 959/2/6
f 959/2/6 958/2/6 960/2/6
f 961/2/6 962/2/6 963/2/6
f 963/2/6 962/2/6 964/2/6
f 965/2/6 966/2/6 967/2/6
f 967/2/6 966/2/6 968/2/6
f 969/2/6 970/2/6 971/2/6
f 971/2/6 970/2/6 972/2/6
f 973/2/6 974/2/6 975/2/6
f 975/2/6 974/2/6 976/2/6
f 977/2/6 978/2/6 979/2/6
f 979/2/6 978/2/6 980/2/6
f 980/2/6 978/2/6 981/2/6
f 981/2/6 978/2/6 982/2/6
f 981/1/6 982/1/6 983/1/6
f 983/1/6 982/1/6 984/1/6
f 983/2/6 984/2/6 985/2/6
f 985/2/6 984/2/6 986/2/6
f 986/2/6 984/2/6 987/2/6
f 986/1/6 987/1/6 988/1/6
f 988/1/6 987/1/6 989/1/6
f 988/2/6 989/2/6 990/2/6
f 990/2/6 989/2/6 991/2/6
f 991/2/6 989/2/6 992/2/6
f 991/1/6 992/1/6 993/1/6
f 993/1/6 992/1/6 994/1/6
f 993/2/6 994/2/6 995/2/6
f 995/2/6 994/2/6 996/2/6
f 996/2/6 994/2/6 997/2/6
f 997/2/6 994/2/6 998/2/6
f 999/2/6 1000/2/6 1001/2/6
f 999/2/6 1001/2/6 1004/2/6
f 1001/2/6 1002/2/6 1004/2/6
f 1004/2/6 1002/2/6 1005/2/6
f 1005/2/6 1002/2/6 1006/2/6
f 1006/2/6 1002/2/6 1007/2/6
f 1007/2/6 1002/2/6 1008/2/6
f 1008/2/6 1002/2/6 1009/2/6
f 1008/1/6 1009/1/6 1010/1/6
f 1010/1/6 1009/1/6 1011/1/6
f 1003/2/6 1004/2/6 1012/2/6
f 1012/2/6 1004/2/6 1013/2/6
f 1010/2/6 1011/2/6 1014/2/6
f 1012/1/6 1013/1/6 1015/1/6
f 1015/1/6 1013/1/6 1016/1/6
f 1014/2/6 1011/2/6 1017/2/6
f 1017/2/6 1011/2/6 1018/2/6
f 1016/1/6 1013/1/6 1019/1/6
f 1017/1/6 1018/1/6 1020/1/6
f 1020/1/6 1018/1/6 1021/1/6
f 1020/2/6 1021/2/6 1022/2/6
f 1022/2/6 1021/2/6 1023/2/6
f 1016/1/6 1019/1/6 1024/1/6
f 1023/2/6 1021/2/6 1025/2/6
f 1025/2/6 1021/2/6 1026/2/6
f 1025/1/6 1026/1/6 1027/1/6
f 1027/1/6 1026/1/6 1028/1/6
f 1016/1/6 1024/1/6 1030/1/6
f 1029/1/6 1030/1/6 1031/1/6
f 1030/1/6 1024/1/6 1032/1/6
f 1031/1/6 1030/1/6 1032/1/6
f 1027/2/6 1028/2/6 1033/2/6
f 1033/2/6 1028/2/6 1034/2/6
f 1034/2/6 1028/2/6 1035/2/6
f 1034/1/6 1035/1/6 1036/1/6
f 1036/1/6 1035/1/6 1037/1/6
f 1036/2/6 1037/2/6 1038/2/6
f 1031/2/6 1032/2/6 1039/2/6
f 1039/2/6 1032/2/6 1040/2/6
f 1038/2/6 1037/2/6 1042/2/6
f 1040/2/6 1041/2/6 1043/2/6
f 1041/2/6 1042/2/6 1043/2/6
f 1042/2/6 1037/2/6 1043/2/6
f 1043/2/6 1037/2/6 1044/2/6
f 1040/2/6 1043/2/6 1045/2/6
f 1045/2/6 1043/2/6 1046/2/6
f 1047/2/6 1048/2/6 1049/2/6
f 1049/2/6 1048/2/6 1050/2/6
f 1047/2/6 1049/2/6 1051/2/6
f 1051/2/6 1049/2/6 1052/2/6
f 1049/1/6 1050/1/6 1053/1/6
f 1052/2/6 1049/2/6 1053/2/6
f 1053/1/6 1050/1/6 1054/1/6
f 1052/2/6 1053/2/6 1055/2/6
f 1054/1/6 1050/1/6 1055/1/6
f 1053/2/6 1054/2/6 1055/2/6
f 1055/1/6 1050/1/6 1056/1/6
f 1051/1/6 1052/1/6 1057/1/6
f 1052/2/6 1055/2/6 1058/2/6
f 1057/1/6 1052/1/6 1058/1/6
f 1055/2/6 1056/2/6 1058/2/6
f 1058/2/6 1056/2/6 1059/2/6
f 1059/2/6 1056/2/6 1060/2/6
f 1057/2/6 1058/2/6 1063/2/6
f 1058/2/6 1059/2/6 1063/2/6
f 1059/1/6 1060/1/6 1064/1/6
f 1063/2/6 1059/2/6 1064/2/6
f 1057/2/6 1063/2/6 1065/2/6
f 1063/1/6 1064/1/6 1065/1/6
f 1064/1/6 1060/1/6 1066/1/6
f 1065/1/6 1064/1/6 1066/1/6
f 1061/2/6 1062/2/6 1068/2/6
f 1068/2/6 1062/2/6 1069/2/6
f 1067/2/6 1068/2/6 1070/2/6
f 1057/2/6 1065/2/6 1071/2/6
f 1065/2/6 1066/2/6 1071/2/6
f 1071/2/6 1066/2/6 1072/2/6
f 1067/2/6 1070/2/6 1073/2/6
f 1073/2/6 1070/2/6 1074/2/6
f 1072/2/6 1066/2/6 1075/2/6
f 1071/1/6 1072/1/6 1075/1/6
f 1075/2/6 1066/2/6 1076/2/6
f 1073/1/6 1074/1/6 1077/1/6
f 1077/1/6 1074/1/6 1078/1/6
f 1071/1/6 1075/1/6 1079/1/6
f 1075/1/6 1076/1/6 1079/1/6
f 1079/1/6 1076/1/6 1080/1/6
f 1077/2/6 1078/2/6 1081/2/6
f 1071/1/6 1079/1/6 1082/1/6
f 1079/2/6 1080/2/6 1083/2/6
f 1082/1/6 1079/1/6 1083/1/6
f 1077/2/6 1081/2/6 1084/2/6
f 1084/2/6 1081/2/6 1085/2/6
f 1082/2/6 1083/2/6 1087/2/6
f 1083/2/6 1080/2/6 1088/2/6
f 1087/2/6 1083/2/6 1088/2/6
f 1085/2/6 1086/2/6 1089/2/6
f 1089/2/6 1086/2/6 1090/2/6
f 1082/2/6 1087/2/6 1091/2/6
f 1087/1/6 1088/1/6 1091/1/6
f 1091/1/6 1088/1/6 1092/1/6
f 1082/2/6 1091/2/6 1093/2/6
f 1091/2/6 1092/2/6 1093/2/6
f 1093/2/6 1092/2/6 1094/2/6
f 1092/1/6 1088/1/6 1095/1/6
f 1094/2/6 1092/2/6 1095/2/6
f 1095/1/6 1088/1/6 1096/1/6
f 1094/2/6 1095/2/6 1097/2/6
f 1095/2/6 1096/2/6 1097/2/6
f 1097/2/6 1096/2/6 1098/2/6
f 1093/1/6 1094/1/6 1099/1/6
f 1094/2/6 1097/2/6 1100/2/6
f 1099/1/6 1094/1/6 1100/1/6
f 1100/2/6 1097/2/6 1101/2/6
f 1097/1/6 1098/1/6 1102/1/6
f 1101/2/6 1097/2/6 1102/2/6
f 1100/2/6 1101/2/6 1103/2/6
f 1099/2/6 1100/2/6 1103/2/6
f 1101/1/6 1102/1/6 1103/1/6
f 1102/1/6 1098/1/6 1104/1/6
f 1103/1/6 1102/1/6 1104/1/6
f 1099/2/6 1103/2/6 1105/2/6
f 1103/2/6 1104/2/6 1105/2/6
f 1105/2/6 1104/2/6 1106/2/6
f 1107/1/6 1108/1/6 1109/1/6
f 1109/1/6 1108/1/6 1110/1/6
f 1109/2/6 1110/2/6 1111/2/6
f 1111/2/6 1110/2/6 1112/2/6
f 1111/1/6 1112/1/6 1113/1/6
f 1113/1/6 1112/1/6 1114/1/6
