# MagicaVoxel @ Ephtracy

# group
o 

# material
mtllib model-0.mtl
usemtl palette

# normals
vn 0 0 1
vn 0 0 -1
vn 1 0 0
vn -1 0 0
vn 0 -1 0
vn 0 1 0

# texcoords
vt 0.0214844 0.5
vt 0.0253906 0.5
vt 0.107422 0.5
vt 0.345703 0.5
vt 0.349609 0.5
vt 0.353516 0.5
vt 0.494141 0.5

# verts
v 0.5 0.6 1
v -0.5 0.6 1
v 0.5 2.1 1
v -0.5 2.1 1
v 0.6 1.8 0.7
v 0.5 1.8 0.7
v -0.5 1.8 0.7
v -0.6 1.8 0.7
v 0.6 2.1 0.7
v 0.5 2.1 0.7
v -0.5 2.1 0.7
v -0.6 2.1 0.7
v 0.6 0.6 0.6
v 0.5 0.6 0.6
v 0.6 1.8 0.6
v 0.5 1.8 0.6
v 0.5 2.1 0.5
v -0.4 2.1 0.5
v 0.5 2.2 0.5
v -0.4 2.2 0.5
v 0.7 1.4 0.3
v 0.6 1.4 0.3
v 0.7 2 0.3
v 0.6 2 0.3
v 0.6 0.8 0.2
v 0.4 0.8 0.2
v 0.7 1 0.2
v 0.6 1 0.2
v 0.5 1 0.2
v 0.4 1 0.2
v 0.8 1.2 0.2
v 0.7 1.2 0.2
v 0.7 1.4 0.2
v 0.6 1.4 0.2
v 0.8 1.5 0.2
v 0.7 1.5 0.2
v 0.8 1.8 0.2
v 0.7 1.8 0.2
v 0.8 1.9 0.2
v 0.7 1.9 0.2
v 0.8 2 0.2
v 0.7 2 0.2
v 0.5 2 0.2
v 0.7 2.2 0.2
v 0.5 2.2 0.2
v 0.6 0.6 -0.3
v 0.4 0.6 -0.3
v 0.6 1 -0.3
v 0.4 1 -0.3
v 0.6 2 -0.3
v 0.5 2 -0.3
v 0.6 2.1 -0.3
v 0.5 2.1 -0.3
v 0.6 0.6 0.3
v 0.4 0.6 0.3
v 0.6 1 0.3
v 0.5 1 0.3
v 0.4 1 0.3
v 0.6 2 0.3
v 0.5 2 0.3
v 0.6 2.1 0.3
v 0.5 2.1 0.3
v 0.6 0.8 -0.2
v 0.4 0.8 -0.2
v 0.7 1 -0.2
v 0.6 1 -0.2
v 0.4 1 -0.2
v 0.8 1.2 -0.2
v 0.7 1.2 -0.2
v 0.6 1.2 -0.2
v 0.7 1.4 -0.2
v 0.6 1.4 -0.2
v 0.8 1.8 -0.2
v 0.7 1.8 -0.2
v 0.8 1.9 -0.2
v 0.7 1.9 -0.2
v 0.8 2 -0.2
v 0.7 2 -0.2
v 0.5 2 -0.2
v 0.7 2.2 -0.2
v 0.5 2.2 -0.2
v 0.7 1.4 -0.3
v 0.6 1.4 -0.3
v 0.7 2 -0.3
v 0.6 2 -0.3
v 0.5 2.1 -0.5
v -0.4 2.1 -0.5
v 0.5 2.2 -0.5
v -0.4 2.2 -0.5
v 0.6 0.6 -0.6
v 0.5 0.6 -0.6
v 0.5 0.7 -0.6
v 0.5 0.8 -0.6
v 0.5 1.1 -0.6
v 0.5 1.2 -0.6
v 0.5 1.5 -0.6
v 0.5 1.6 -0.6
v 0.6 1.8 -0.6
v 0.5 1.8 -0.6
v 0.6 1.8 -0.7
v 0.5 1.8 -0.7
v -0.5 1.8 -0.7
v -0.6 1.8 -0.7
v 0.6 2.1 -0.7
v 0.5 2.1 -0.7
v -0.5 2.1 -0.7
v -0.6 2.1 -0.7
v 0.5 0.6 -1
v -0.5 0.6 -1
v 0.5 2.1 -1
v -0.5 2.1 -1
v 0.8 1.2 0.2
v 0.8 1.5 0.2
v 0.8 1.8 0.2
v 0.8 1.9 0.2
v 0.8 2 0.2
v 0.8 1.5 0.1
v 0.8 1.8 0.1
v 0.8 1.3 0
v 0.8 1.8 0
v 0.8 1.3 -0.1
v 0.8 1.8 -0.1
v 0.8 1.2 -0.2
v 0.8 1.8 -0.2
v 0.8 1.9 -0.2
v 0.8 2 -0.2
v 0.7 1.4 0.3
v 0.7 2 0.3
v 0.7 1 0.2
v 0.7 1.2 0.2
v 0.7 1.4 0.2
v 0.7 1.5 0.2
v 0.7 1.8 0.2
v 0.7 1.9 0.2
v 0.7 2 0.2
v 0.7 2.2 0.2
v 0.7 1 0.1
v 0.7 1.2 0.1
v 0.7 1.8 0.1
v 0.7 1 0
v 0.7 1.2 0
v 0.7 1.8 0
v 0.7 1 -0.1
v 0.7 1.2 -0.1
v 0.7 1.8 -0.1
v 0.7 1 -0.2
v 0.7 1.2 -0.2
v 0.7 1.4 -0.2
v 0.7 1.8 -0.2
v 0.7 1.9 -0.2
v 0.7 2 -0.2
v 0.7 2.2 -0.2
v 0.7 1.4 -0.3
v 0.7 2 -0.3
v 0.6 1.8 0.7
v 0.6 2.1 0.7
v 0.6 0.6 0.6
v 0.6 1.8 0.6
v 0.6 1.9 0.6
v 0.6 2.1 0.6
v 0.6 0.6 0.5
v 0.6 1.9 0.5
v 0.6 2 0.5
v 0.6 2.1 0.5
v 0.6 0.6 0.4
v 0.6 2 0.4
v 0.6 0.6 0.3
v 0.6 1 0.3
v 0.6 1.4 0.3
v 0.6 2 0.3
v 0.6 2.1 0.3
v 0.6 0.8 0.2
v 0.6 1 0.2
v 0.6 1.4 0.2
v 0.6 1 0.1
v 0.6 0.8 0
v 0.6 1 0
v 0.6 0.8 -0.1
v 0.6 1 -0.1
v 0.6 0.8 -0.2
v 0.6 1 -0.2
v 0.6 1.2 -0.2
v 0.6 1.4 -0.2
v 0.6 0.6 -0.3
v 0.6 1 -0.3
v 0.6 1.4 -0.3
v 0.6 2 -0.3
v 0.6 2.1 -0.3
v 0.6 0.6 -0.4
v 0.6 2 -0.4
v 0.6 0.6 -0.5
v 0.6 1.9 -0.5
v 0.6 2 -0.5
v 0.6 2.1 -0.5
v 0.6 0.6 -0.6
v 0.6 1.8 -0.6
v 0.6 1.9 -0.6
v 0.6 2.1 -0.6
v 0.6 1.8 -0.7
v 0.6 2.1 -0.7
v 0.5 0.6 1
v 0.5 2.1 1
v 0.5 0.7 0.8
v 0.5 0.8 0.8
v 0.5 1.1 0.8
v 0.5 1.2 0.8
v 0.5 1.5 0.8
v 0.5 1.6 0.8
v 0.5 0.7 0.7
v 0.5 0.8 0.7
v 0.5 1.1 0.7
v 0.5 1.2 0.7
v 0.5 1.5 0.7
v 0.5 1.6 0.7
v 0.5 1.8 0.7
v 0.5 2.1 0.7
v 0.5 0.6 0.6
v 0.5 1.8 0.6
v 0.5 2.1 0.5
v 0.5 2.2 0.5
v 0.5 2 0.3
v 0.5 2.1 0.3
v 0.5 2 0.2
v 0.5 2.2 0.2
v 0.5 2 -0.2
v 0.5 2.2 -0.2
v 0.5 2 -0.3
v 0.5 2.1 -0.3
v 0.5 2.1 -0.5
v 0.5 2.2 -0.5
v 0.5 0.6 -0.6
v 0.5 0.7 -0.6
v 0.5 0.8 -0.6
v 0.5 1.1 -0.6
v 0.5 1.2 -0.6
v 0.5 1.5 -0.6
v 0.5 1.6 -0.6
v 0.5 1.8 -0.6
v 0.5 1.8 -0.7
v 0.5 2.1 -0.7
v 0.5 0.7 -0.8
v 0.5 0.8 -0.8
v 0.5 1.1 -0.8
v 0.5 1.2 -0.8
v 0.5 1.5 -0.8
v 0.5 1.6 -0.8
v 0.5 0.6 -1
v 0.5 2.1 -1
v 0.4 0.6 0.3
v 0.4 1 0.3
v 0.4 0.8 0.2
v 0.4 1 0.2
v 0.4 0.8 -0.2
v 0.4 1 -0.2
v 0.4 0.6 -0.3
v 0.4 1 -0.3
v -0.4 2.1 0.5
v -0.4 2.2 0.5
v -0.4 2.1 -0.5
v -0.4 2.2 -0.5
v -0.5 0.6 1
v -0.5 2.1 1
v -0.5 1.8 0.7
v -0.5 2.1 0.7
v -0.5 1.8 -0.7
v -0.5 2.1 -0.7
v -0.5 0.6 -1
v -0.5 2.1 -1
v -0.6 1.8 0.7
v -0.6 2.1 0.7
v -0.6 1.9 0.6
v -0.6 2.1 0.6
v -0.6 2 0.5
v -0.6 2.1 0.5
v -0.6 2 -0.5
v -0.6 2.1 -0.5
v -0.6 1.9 -0.6
v -0.6 2.1 -0.6
v -0.6 1.8 -0.7
v -0.6 2.1 -0.7
v 0.6 0.6 0.6
v 0.6 0.6 0.5
v 0.6 0.6 0.4
v 0.6 0.6 0.3
v 0.6 0.6 -0.3
v 0.6 0.6 -0.4
v 0.6 0.6 -0.5
v 0.6 0.6 -0.6
v 0.5 0.6 1
v 0.5 0.6 0.6
v 0.5 0.6 0.5
v 0.5 0.6 0.4
v 0.5 0.6 -0.4
v 0.5 0.6 -0.5
v 0.5 0.6 -0.6
v 0.5 0.6 -1
v 0.4 0.6 0.3
v 0.4 0.6 -0.3
v 0.3 0.6 0.3
v 0.3 0.6 -0.3
v -0.5 0.6 1
v -0.5 0.6 -1
v 0.6 0.8 0.2
v 0.6 0.8 0
v 0.6 0.8 -0.1
v 0.6 0.8 -0.2
v 0.5 0.8 0
v 0.5 0.8 -0.1
v 0.4 0.8 0.2
v 0.4 0.8 -0.2
v 0.7 1 0.2
v 0.7 1 0.1
v 0.7 1 0
v 0.7 1 -0.1
v 0.7 1 -0.2
v 0.6 1 0.3
v 0.6 1 0.2
v 0.6 1 0.1
v 0.6 1 0
v 0.6 1 -0.1
v 0.6 1 -0.2
v 0.6 1 -0.3
v 0.5 1 0.3
v 0.5 1 0.2
v 0.4 1 0.3
v 0.4 1 0.2
v 0.4 1 -0.2
v 0.4 1 -0.3
v 0.8 1.2 0.2
v 0.8 1.2 -0.2
v 0.7 1.2 0.2
v 0.7 1.2 0.1
v 0.7 1.2 0
v 0.7 1.2 -0.1
v 0.7 1.2 -0.2
v 0.7 1.4 0.3
v 0.7 1.4 0.2
v 0.7 1.4 -0.2
v 0.7 1.4 -0.3
v 0.6 1.4 0.3
v 0.6 1.4 0.2
v 0.6 1.4 -0.2
v 0.6 1.4 -0.3
v 0.6 1.8 0.7
v 0.6 1.8 0.6
v 0.6 1.8 -0.6
v 0.6 1.8 -0.7
v 0.5 1.8 0.7
v 0.5 1.8 0.6
v 0.5 1.8 -0.6
v 0.5 1.8 -0.7
v -0.5 1.8 0.7
v -0.5 1.8 -0.7
v -0.6 1.8 0.7
v -0.6 1.8 -0.7
v 0.8 1.9 0.2
v 0.8 1.9 -0.2
v 0.7 1.9 0.2
v 0.7 1.9 -0.2
v 0.8 1.8 0.2
v 0.8 1.8 0.1
v 0.8 1.8 0
v 0.8 1.8 -0.1
v 0.8 1.8 -0.2
v 0.7 1.8 0.2
v 0.7 1.8 0.1
v 0.7 1.8 0
v 0.7 1.8 -0.1
v 0.7 1.8 -0.2
v 0.8 2 0.2
v 0.8 2 -0.2
v 0.7 2 0.3
v 0.7 2 0.2
v 0.7 2 -0.2
v 0.7 2 -0.3
v 0.6 2 0.3
v 0.6 2 -0.3
v 0.5 2 0.3
v 0.5 2 0.2
v 0.5 2 -0.2
v 0.5 2 -0.3
v 0.6 2.1 0.7
v 0.6 2.1 0.6
v 0.6 2.1 0.5
v 0.6 2.1 0.3
v 0.6 2.1 -0.3
v 0.6 2.1 -0.5
v 0.6 2.1 -0.6
v 0.6 2.1 -0.7
v 0.5 2.1 1
v 0.5 2.1 0.7
v 0.5 2.1 0.5
v 0.5 2.1 0.3
v 0.5 2.1 -0.3
v 0.5 2.1 -0.5
v 0.5 2.1 -0.7
v 0.5 2.1 -1
v -0.4 2.1 0.5
v -0.4 2.1 -0.5
v -0.5 2.1 1
v -0.5 2.1 0.7
v -0.5 2.1 -0.7
v -0.5 2.1 -1
v -0.6 2.1 0.7
v -0.6 2.1 0.6
v -0.6 2.1 0.5
v -0.6 2.1 -0.5
v -0.6 2.1 -0.6
v -0.6 2.1 -0.7
v 0.7 2.2 0.2
v 0.7 2.2 -0.2
v 0.5 2.2 0.5
v 0.5 2.2 0.2
v 0.5 2.2 -0.2
v 0.5 2.2 -0.5
v -0.4 2.2 0.5
v -0.4 2.2 -0.5

# faces
f 3/6/1 2/6/1 1/6/1
f 4/6/1 2/6/1 3/6/1
f 9/2/1 6/2/1 5/2/1
f 10/2/1 6/2/1 9/2/1
f 11/2/1 8/2/1 7/2/1
f 12/2/1 8/2/1 11/2/1
f 15/2/1 14/2/1 13/2/1
f 16/2/1 14/2/1 15/2/1
f 19/2/1 18/2/1 17/2/1
f 20/2/1 18/2/1 19/2/1
f 23/3/1 22/3/1 21/3/1
f 24/3/1 22/3/1 23/3/1
f 28/2/1 26/2/1 25/2/1
f 29/2/1 26/2/1 28/2/1
f 30/2/1 26/2/1 29/2/1
f 32/2/1 28/2/1 27/2/1
f 33/2/1 28/2/1 32/2/1
f 33/2/1 32/2/1 31/2/1
f 34/2/1 28/2/1 33/2/1
f 35/2/1 33/2/1 31/2/1
f 36/2/1 33/2/1 35/2/1
f 37/1/1 36/1/1 35/1/1
f 38/1/1 36/1/1 37/1/1
f 41/3/1 40/3/1 39/3/1
f 42/3/1 40/3/1 41/3/1
f 44/2/1 43/2/1 42/2/1
f 45/2/1 43/2/1 44/2/1
f 48/6/1 47/6/1 46/6/1
f 49/6/1 47/6/1 48/6/1
f 52/6/1 51/6/1 50/6/1
f 53/6/1 51/6/1 52/6/1
f 54/6/2 55/6/2 56/6/2
f 56/6/2 55/6/2 57/6/2
f 57/6/2 55/6/2 58/6/2
f 59/6/2 60/6/2 61/6/2
f 61/6/2 60/6/2 62/6/2
f 63/2/2 64/2/2 66/2/2
f 66/2/2 64/2/2 67/2/2
f 65/1/2 66/1/2 69/1/2
f 69/1/2 66/1/2 70/1/2
f 68/2/2 69/2/2 71/2/2
f 69/2/2 70/2/2 71/2/2
f 71/2/2 70/2/2 72/2/2
f 68/2/2 71/2/2 73/2/2
f 73/2/2 71/2/2 74/2/2
f 75/3/2 76/3/2 77/3/2
f 77/3/2 76/3/2 78/3/2
f 78/2/2 79/2/2 80/2/2
f 80/2/2 79/2/2 81/2/2
f 82/3/2 83/3/2 84/3/2
f 84/3/2 83/3/2 85/3/2
f 86/2/2 87/2/2 88/2/2
f 88/2/2 87/2/2 89/2/2
f 90/2/2 91/2/2 92/2/2
f 90/2/2 92/2/2 93/2/2
f 90/2/2 93/2/2 94/2/2
f 90/2/2 94/2/2 95/2/2
f 90/2/2 95/2/2 96/2/2
f 90/2/2 96/2/2 97/2/2
f 90/2/2 97/2/2 98/2/2
f 98/2/2 97/2/2 99/2/2
f 100/2/2 101/2/2 104/2/2
f 104/2/2 101/2/2 105/2/2
f 102/2/2 103/2/2 106/2/2
f 106/2/2 103/2/2 107/2/2
f 108/6/2 109/6/2 110/6/2
f 110/6/2 109/6/2 111/6/2
f 117/2/3 113/2/3 112/2/3
f 117/1/3 114/1/3 113/1/3
f 118/1/3 114/1/3 117/1/3
f 119/2/3 117/2/3 112/2/3
f 119/2/3 118/2/3 117/2/3
f 120/2/3 118/2/3 119/2/3
f 121/2/3 119/2/3 112/2/3
f 121/1/3 120/1/3 119/1/3
f 122/1/3 120/1/3 121/1/3
f 123/2/3 121/2/3 112/2/3
f 123/2/3 122/2/3 121/2/3
f 124/2/3 122/2/3 123/2/3
f 125/3/3 116/3/3 115/3/3
f 126/3/3 116/3/3 125/3/3
f 131/3/3 128/3/3 127/3/3
f 132/3/3 128/3/3 131/3/3
f 133/3/3 128/3/3 132/3/3
f 134/3/3 128/3/3 133/3/3
f 135/3/3 128/3/3 134/3/3
f 137/2/3 130/2/3 129/2/3
f 138/2/3 130/2/3 137/2/3
f 139/2/3 134/2/3 133/2/3
f 140/1/3 138/1/3 137/1/3
f 141/1/3 138/1/3 140/1/3
f 142/2/3 134/2/3 139/2/3
f 143/2/3 141/2/3 140/2/3
f 144/2/3 141/2/3 143/2/3
f 145/2/3 134/2/3 142/2/3
f 146/1/3 144/1/3 143/1/3
f 147/1/3 144/1/3 146/1/3
f 149/2/3 134/2/3 145/2/3
f 150/2/3 134/2/3 149/2/3
f 151/2/3 136/2/3 135/2/3
f 152/2/3 136/2/3 151/2/3
f 153/3/3 150/3/3 149/3/3
f 153/3/3 151/3/3 150/3/3
f 153/3/3 149/3/3 148/3/3
f 154/3/3 151/3/3 153/3/3
f 158/2/3 156/2/3 155/2/3
f 159/2/3 156/2/3 158/2/3
f 160/2/3 156/2/3 159/2/3
f 161/2/3 158/2/3 157/2/3
f 161/2/3 159/2/3 158/2/3
f 162/5/3 160/5/3 159/5/3
f 162/2/3 159/2/3 161/2/3
f 163/5/3 160/5/3 162/5/3
f 164/5/3 160/5/3 163/5/3
f 165/5/3 162/5/3 161/5/3
f 165/5/3 163/5/3 162/5/3
f 166/6/3 164/6/3 163/6/3
f 166/5/3 163/5/3 165/5/3
f 167/6/3 166/6/3 165/6/3
f 168/6/3 166/6/3 167/6/3
f 169/6/3 166/6/3 168/6/3
f 170/6/3 164/6/3 166/6/3
f 170/6/3 166/6/3 169/6/3
f 171/6/3 164/6/3 170/6/3
f 173/1/3 169/1/3 168/1/3
f 174/1/3 169/1/3 173/1/3
f 175/2/3 173/2/3 172/2/3
f 176/2/3 175/2/3 172/2/3
f 177/2/3 175/2/3 176/2/3
f 178/1/3 177/1/3 176/1/3
f 179/1/3 177/1/3 178/1/3
f 180/2/3 179/2/3 178/2/3
f 181/2/3 179/2/3 180/2/3
f 185/2/3 183/2/3 182/2/3
f 185/2/3 182/2/3 181/2/3
f 186/2/3 183/2/3 185/2/3
f 189/6/3 186/6/3 185/6/3
f 189/6/3 188/6/3 187/6/3
f 189/6/3 187/6/3 186/6/3
f 189/6/3 185/6/3 184/6/3
f 190/6/3 188/6/3 189/6/3
f 191/5/3 190/5/3 189/5/3
f 192/5/3 190/5/3 191/5/3
f 193/6/3 188/6/3 190/6/3
f 193/5/3 190/5/3 192/5/3
f 194/6/3 188/6/3 193/6/3
f 195/2/3 192/2/3 191/2/3
f 196/2/3 192/2/3 195/2/3
f 197/5/3 193/5/3 192/5/3
f 197/2/3 192/2/3 196/2/3
f 197/5/3 194/5/3 193/5/3
f 198/5/3 194/5/3 197/5/3
f 199/2/3 197/2/3 196/2/3
f 199/2/3 198/2/3 197/2/3
f 200/2/3 198/2/3 199/2/3
f 203/6/3 202/6/3 201/6/3
f 204/6/3 202/6/3 203/6/3
f 205/6/3 202/6/3 204/6/3
f 206/6/3 202/6/3 205/6/3
f 207/6/3 202/6/3 206/6/3
f 208/6/3 202/6/3 207/6/3
f 209/6/3 203/6/3 201/6/3
f 209/7/3 204/7/3 203/7/3
f 210/6/3 205/6/3 204/6/3
f 210/7/3 204/7/3 209/7/3
f 211/7/3 206/7/3 205/7/3
f 211/6/3 205/6/3 210/6/3
f 212/6/3 207/6/3 206/6/3
f 212/7/3 206/7/3 211/7/3
f 213/7/3 208/7/3 207/7/3
f 213/6/3 207/6/3 212/6/3
f 214/6/3 202/6/3 208/6/3
f 214/7/3 208/7/3 213/7/3
f 215/6/3 202/6/3 214/6/3
f 216/6/3 202/6/3 215/6/3
f 217/6/3 213/6/3 212/6/3
f 217/6/3 212/6/3 211/6/3
f 217/6/3 215/6/3 214/6/3
f 217/6/3 214/6/3 213/6/3
f 217/6/3 211/6/3 210/6/3
f 217/6/3 210/6/3 209/6/3
f 217/6/3 209/6/3 201/6/3
f 218/6/3 215/6/3 217/6/3
f 222/2/3 220/2/3 219/2/3
f 223/2/3 222/2/3 221/2/3
f 224/2/3 220/2/3 222/2/3
f 224/2/3 222/2/3 223/2/3
f 227/2/3 226/2/3 225/2/3
f 228/2/3 226/2/3 227/2/3
f 229/2/3 226/2/3 228/2/3
f 230/2/3 226/2/3 229/2/3
f 239/6/3 238/6/3 237/6/3
f 241/6/3 232/6/3 231/6/3
f 241/5/3 233/5/3 232/5/3
f 242/6/3 234/6/3 233/6/3
f 242/5/3 233/5/3 241/5/3
f 243/5/3 235/5/3 234/5/3
f 243/6/3 234/6/3 242/6/3
f 244/6/3 236/6/3 235/6/3
f 244/5/3 235/5/3 243/5/3
f 245/5/3 237/5/3 236/5/3
f 245/6/3 236/6/3 244/6/3
f 246/6/3 240/6/3 239/6/3
f 246/5/3 237/5/3 245/5/3
f 246/6/3 239/6/3 237/6/3
f 247/6/3 245/6/3 244/6/3
f 247/6/3 244/6/3 243/6/3
f 247/6/3 246/6/3 245/6/3
f 247/6/3 243/6/3 242/6/3
f 247/6/3 242/6/3 241/6/3
f 247/6/3 241/6/3 231/6/3
f 248/6/3 240/6/3 246/6/3
f 248/6/3 246/6/3 247/6/3
f 251/4/3 250/4/3 249/4/3
f 252/4/3 250/4/3 251/4/3
f 253/4/3 251/4/3 249/4/3
f 255/4/3 253/4/3 249/4/3
f 255/4/3 254/4/3 253/4/3
f 256/4/3 254/4/3 255/4/3
f 257/2/4 258/2/4 259/2/4
f 259/2/4 258/2/4 260/2/4
f 261/6/4 262/6/4 263/6/4
f 263/6/4 262/6/4 264/6/4
f 261/6/4 263/6/4 265/6/4
f 261/6/4 265/6/4 267/6/4
f 265/6/4 266/6/4 267/6/4
f 267/6/4 266/6/4 268/6/4
f 269/2/4 270/2/4 271/2/4
f 271/2/4 270/2/4 272/2/4
f 271/5/4 272/5/4 273/5/4
f 273/5/4 272/5/4 274/5/4
f 271/5/4 273/5/4 275/5/4
f 273/6/4 274/6/4 275/6/4
f 275/6/4 274/6/4 276/6/4
f 269/2/4 271/2/4 277/2/4
f 271/5/4 275/5/4 277/5/4
f 275/5/4 276/5/4 277/5/4
f 277/5/4 276/5/4 278/5/4
f 269/2/4 277/2/4 279/2/4
f 277/2/4 278/2/4 279/2/4
f 279/2/4 278/2/4 280/2/4
f 290/2/5 282/2/5 281/2/5
f 291/5/5 283/5/5 282/5/5
f 291/2/5 282/2/5 290/2/5
f 292/6/5 284/6/5 283/6/5
f 292/5/5 283/5/5 291/5/5
f 293/6/5 286/6/5 285/6/5
f 293/5/5 287/5/5 286/5/5
f 294/2/5 288/2/5 287/2/5
f 294/5/5 287/5/5 293/5/5
f 295/2/5 288/2/5 294/2/5
f 297/6/5 290/6/5 289/6/5
f 297/6/5 291/6/5 290/6/5
f 297/6/5 284/6/5 292/6/5
f 297/6/5 292/6/5 291/6/5
f 298/6/5 293/6/5 285/6/5
f 298/6/5 296/6/5 295/6/5
f 298/6/5 295/6/5 294/6/5
f 298/6/5 294/6/5 293/6/5
f 299/6/5 297/6/5 289/6/5
f 299/4/5 298/4/5 297/4/5
f 300/6/5 296/6/5 298/6/5
f 300/4/5 298/4/5 299/4/5
f 301/6/5 299/6/5 289/6/5
f 301/6/5 300/6/5 299/6/5
f 302/6/5 296/6/5 300/6/5
f 302/6/5 300/6/5 301/6/5
f 307/2/5 304/2/5 303/2/5
f 307/1/5 305/1/5 304/1/5
f 308/2/5 306/2/5 305/2/5
f 308/1/5 305/1/5 307/1/5
f 309/2/5 307/2/5 303/2/5
f 309/2/5 308/2/5 307/2/5
f 310/2/5 306/2/5 308/2/5
f 310/2/5 308/2/5 309/2/5
f 317/2/5 312/2/5 311/2/5
f 318/1/5 313/1/5 312/1/5
f 318/2/5 312/2/5 317/2/5
f 319/2/5 314/2/5 313/2/5
f 319/1/5 313/1/5 318/1/5
f 320/1/5 315/1/5 314/1/5
f 320/2/5 314/2/5 319/2/5
f 321/1/5 315/1/5 320/1/5
f 323/1/5 317/1/5 316/1/5
f 324/1/5 317/1/5 323/1/5
f 325/2/5 324/2/5 323/2/5
f 326/2/5 324/2/5 325/2/5
f 327/2/5 322/2/5 321/2/5
f 328/2/5 322/2/5 327/2/5
f 331/2/5 330/2/5 329/2/5
f 332/2/5 330/2/5 331/2/5
f 333/2/5 330/2/5 332/2/5
f 334/2/5 330/2/5 333/2/5
f 335/2/5 330/2/5 334/2/5
f 340/3/5 337/3/5 336/3/5
f 341/3/5 337/3/5 340/3/5
f 342/3/5 339/3/5 338/3/5
f 343/3/5 339/3/5 342/3/5
f 348/2/5 345/2/5 344/2/5
f 349/2/5 345/2/5 348/2/5
f 350/2/5 347/2/5 346/2/5
f 351/2/5 347/2/5 350/2/5
f 354/2/5 353/2/5 352/2/5
f 355/2/5 353/2/5 354/2/5
f 358/3/5 357/3/5 356/3/5
f 359/3/5 357/3/5 358/3/5
f 360/1/6 361/1/6 365/1/6
f 361/2/6 362/2/6 366/2/6
f 365/1/6 361/1/6 366/1/6
f 362/1/6 363/1/6 367/1/6
f 366/2/6 362/2/6 367/2/6
f 363/2/6 364/2/6 368/2/6
f 367/1/6 363/1/6 368/1/6
f 368/2/6 364/2/6 369/2/6
f 370/3/6 371/3/6 373/3/6
f 373/3/6 371/3/6 374/3/6
f 372/3/6 373/3/6 376/3/6
f 374/3/6 375/3/6 377/3/6
f 376/3/6 373/3/6 378/3/6
f 378/3/6 373/3/6 379/3/6
f 374/3/6 377/3/6 380/3/6
f 380/3/6 377/3/6 381/3/6
f 382/2/6 383/2/6 391/2/6
f 383/5/6 384/5/6 392/5/6
f 384/6/6 385/6/6 392/6/6
f 392/6/6 385/6/6 393/6/6
f 386/6/6 387/6/6 394/6/6
f 387/5/6 388/5/6 395/5/6
f 394/6/6 387/6/6 395/6/6
f 388/2/6 389/2/6 396/2/6
f 383/5/6 392/5/6 398/5/6
f 395/5/6 388/5/6 399/5/6
f 390/6/6 391/6/6 400/6/6
f 391/2/6 383/2/6 401/2/6
f 400/6/6 391/6/6 401/6/6
f 396/6/6 397/6/6 402/6/6
f 388/2/6 396/2/6 402/2/6
f 402/6/6 397/6/6 403/6/6
f 401/2/6 383/2/6 404/2/6
f 383/5/6 398/5/6 405/5/6
f 404/2/6 383/2/6 405/2/6
f 398/6/6 399/6/6 406/6/6
f 405/5/6 398/5/6 406/5/6
f 399/5/6 388/5/6 407/5/6
f 406/6/6 399/6/6 407/6/6
f 388/2/6 402/2/6 408/2/6
f 407/5/6 388/5/6 408/5/6
f 408/2/6 402/2/6 409/2/6
f 410/2/6 411/2/6 413/2/6
f 413/2/6 411/2/6 414/2/6
f 412/2/6 413/2/6 416/2/6
f 414/2/6 415/2/6 416/2/6
f 413/2/6 414/2/6 416/2/6
f 416/2/6 415/2/6 417/2/6
