# MagicaVoxel @ Ephtracy

# group
o 

# material
mtllib model-1.mtl
usemtl palette

# normals
vn 0 0 1
vn 0 0 -1
vn 1 0 0
vn -1 0 0
vn 0 -1 0
vn 0 1 0

# texcoords
vt 0.0253906 0.5
vt 0.0996094 0.5
vt 0.345703 0.5
vt 0.349609 0.5
vt 0.353516 0.5
vt 0.494141 0.5
vt 0.509766 0.5
vt 0.513672 0.5
vt 0.521484 0.5

# verts
v 0.5 0 1
v -0.5 0 1
v 0.5 0.1 1
v -0.5 0.1 1
v 0.5 0.7 1
v -0.5 0.7 1
v 0.6 0 0.6
v 0.5 0 0.6
v 0.5 0.1 0.6
v 0.6 0.7 0.6
v 0.5 0.7 0.6
v 0.5 0 0.2
v 0.4 0 0.2
v 0.5 0.1 0.2
v 0.4 0.1 0.2
v 0.4 0.3 0.2
v 0.5 0.4 0.2
v 0.4 0.4 0.2
v 0.5 0.1 -0.1
v 0.4 0.1 -0.1
v 0.5 0.2 -0.1
v 0.4 0.2 -0.1
v 0.5 0.3 -0.1
v 0.4 0.3 -0.1
v 0.6 0 -0.3
v 0.4 0 -0.3
v 0.4 0.1 -0.3
v 0.4 0.3 -0.3
v 0.6 0.7 -0.3
v 0.4 0.7 -0.3
v 0.4 0 -0.9
v -0.4 0 -0.9
v 0.4 0.1 -0.9
v -0.4 0.1 -0.9
v 0.4 0 0.9
v -0.4 0 0.9
v 0.4 0.1 0.9
v -0.4 0.1 0.9
v 0.6 0 0.3
v 0.4 0 0.3
v 0.4 0.1 0.3
v 0.4 0.3 0.3
v 0.6 0.7 0.3
v 0.4 0.7 0.3
v 0.5 0.1 0.1
v 0.4 0.1 0.1
v 0.5 0.3 0.1
v 0.4 0.3 0.1
v 0.5 0 -0.2
v 0.4 0 -0.2
v 0.4 0.1 -0.2
v 0.5 0.2 -0.2
v 0.4 0.2 -0.2
v 0.4 0.3 -0.2
v 0.5 0.4 -0.2
v 0.4 0.4 -0.2
v 0.6 0 -0.6
v 0.5 0 -0.6
v 0.5 0.1 -0.6
v 0.5 0.3 -0.6
v 0.5 0.4 -0.6
v 0.6 0.7 -0.6
v 0.5 0.7 -0.6
v 0.5 0 -1
v -0.5 0 -1
v 0.5 0.1 -1
v -0.5 0.1 -1
v 0.5 0.7 -1
v -0.5 0.7 -1
v 0.6 0 0.6
v 0.6 0.7 0.6
v 0.6 0 0.5
v 0.6 0.7 0.5
v 0.6 0 0.4
v 0.6 0.7 0.4
v 0.6 0 0.3
v 0.6 0.7 0.3
v 0.6 0 -0.3
v 0.6 0.7 -0.3
v 0.6 0 -0.4
v 0.6 0.7 -0.4
v 0.6 0 -0.5
v 0.6 0.7 -0.5
v 0.6 0 -0.6
v 0.6 0.7 -0.6
v 0.5 0 1
v 0.5 0.1 1
v 0.5 0.7 1
v 0.5 0.3 0.8
v 0.5 0.4 0.8
v 0.5 0.3 0.7
v 0.5 0.4 0.7
v 0.5 0 0.6
v 0.5 0.1 0.6
v 0.5 0.7 0.6
v 0.5 0 0.2
v 0.5 0.1 0.2
v 0.5 0.4 0.2
v 0.5 0.1 0.1
v 0.5 0.3 0.1
v 0.5 0 0
v 0.5 0.1 0
v 0.5 0.3 0
v 0.5 0.4 0
v 0.5 0.1 -0.1
v 0.5 0.2 -0.1
v 0.5 0.3 -0.1
v 0.5 0 -0.2
v 0.5 0.2 -0.2
v 0.5 0.4 -0.2
v 0.5 0 -0.6
v 0.5 0.1 -0.6
v 0.5 0.3 -0.6
v 0.5 0.4 -0.6
v 0.5 0.7 -0.6
v 0.5 0.3 -0.8
v 0.5 0.4 -0.8
v 0.5 0 -1
v 0.5 0.1 -1
v 0.5 0.7 -1
v 0.4 0.1 0.3
v 0.4 0.3 0.3
v 0.4 0.7 0.3
v 0.4 0.1 0.2
v 0.4 0.3 0.2
v 0.4 0.4 0.2
v 0.4 0.1 0.1
v 0.4 0.3 0.1
v 0.4 0.1 0
v 0.4 0.3 0
v 0.4 0.4 0
v 0.4 0.1 -0.1
v 0.4 0.2 -0.1
v 0.4 0.3 -0.1
v 0.4 0.1 -0.2
v 0.4 0.2 -0.2
v 0.4 0.3 -0.2
v 0.4 0.4 -0.2
v 0.4 0.1 -0.3
v 0.4 0.3 -0.3
v 0.4 0.7 -0.3
v -0.4 0 0.9
v -0.4 0.1 0.9
v -0.4 0 -0.9
v -0.4 0.1 -0.9
v 0.4 0 0.9
v 0.4 0.1 0.9
v 0.4 0 0.5
v 0.4 0.1 0.5
v 0.4 0 0.3
v 0.4 0.1 0.3
v 0.4 0 0.2
v 0.4 0.1 0.2
v 0.4 0 0
v 0.4 0.1 0
v 0.4 0 -0.2
v 0.4 0.1 -0.2
v 0.4 0 -0.3
v 0.4 0.1 -0.3
v 0.4 0 -0.5
v 0.4 0.1 -0.5
v 0.4 0 -0.9
v 0.4 0.1 -0.9
v -0.5 0 1
v -0.5 0.1 1
v -0.5 0.7 1
v -0.5 0 -1
v -0.5 0.1 -1
v -0.5 0.7 -1
v 0.6 0 0.6
v 0.6 0 0.5
v 0.6 0 0.4
v 0.6 0 0.3
v 0.6 0 -0.3
v 0.6 0 -0.4
v 0.6 0 -0.5
v 0.6 0 -0.6
v 0.5 0 1
v 0.5 0 0.6
v 0.5 0 0.5
v 0.5 0 0.4
v 0.5 0 0.2
v 0.5 0 0
v 0.5 0 -0.2
v 0.5 0 -0.4
v 0.5 0 -0.5
v 0.5 0 -0.6
v 0.5 0 -1
v 0.4 0 0.9
v 0.4 0 0.5
v 0.4 0 0.3
v 0.4 0 0.2
v 0.4 0 0
v 0.4 0 -0.2
v 0.4 0 -0.3
v 0.4 0 -0.5
v 0.4 0 -0.9
v -0.4 0 0.9
v -0.4 0 -0.9
v -0.5 0 1
v -0.5 0 -1
v 0.4 0.1 0.9
v 0.4 0.1 0.5
v 0.4 0.1 0.3
v 0.4 0.1 0.2
v 0.4 0.1 0
v 0.4 0.1 -0.2
v 0.4 0.1 -0.3
v 0.4 0.1 -0.5
v 0.4 0.1 -0.9
v -0.4 0.1 0.9
v -0.4 0.1 -0.9
v 0.5 0.3 0.1
v 0.5 0.3 0
v 0.5 0.3 -0.1
v 0.4 0.3 0.1
v 0.4 0.3 0
v 0.4 0.3 -0.1
v 0.5 0.1 0.1
v 0.5 0.1 0
v 0.5 0.1 -0.1
v 0.4 0.1 0.1
v 0.4 0.1 0
v 0.4 0.1 -0.1
v 0.5 0.4 0.2
v 0.5 0.4 0
v 0.5 0.4 -0.2
v 0.4 0.4 0.2
v 0.4 0.4 0
v 0.4 0.4 -0.2
v 0.6 0.7 0.6
v 0.6 0.7 0.5
v 0.6 0.7 0.4
v 0.6 0.7 0.3
v 0.6 0.7 -0.3
v 0.6 0.7 -0.4
v 0.6 0.7 -0.5
v 0.6 0.7 -0.6
v 0.5 0.7 1
v 0.5 0.7 0.6
v 0.5 0.7 0.5
v 0.5 0.7 0.4
v 0.5 0.7 -0.4
v 0.5 0.7 -0.5
v 0.5 0.7 -0.6
v 0.5 0.7 -1
v 0.4 0.7 0.3
v 0.4 0.7 -0.3
v 0.3 0.7 0.3
v 0.3 0.7 -0.3
v -0.5 0.7 1
v -0.5 0.7 -1

# faces
f 3/1/1 2/1/1 1/1/1
f 4/1/1 2/1/1 3/1/1
f 5/5/1 4/5/1 3/5/1
f 6/5/1 4/5/1 5/5/1
f 9/1/1 8/1/1 7/1/1
f 10/1/1 9/1/1 7/1/1
f 11/1/1 9/1/1 10/1/1
f 14/7/1 13/7/1 12/7/1
f 15/7/1 13/7/1 14/7/1
f 16/8/1 15/8/1 14/8/1
f 17/8/1 16/8/1 14/8/1
f 18/8/1 16/8/1 17/8/1
f 21/8/1 20/8/1 19/8/1
f 22/8/1 20/8/1 21/8/1
f 23/9/1 22/9/1 21/9/1
f 24/9/1 22/9/1 23/9/1
f 27/5/1 26/5/1 25/5/1
f 28/5/1 27/5/1 25/5/1
f 29/5/1 28/5/1 25/5/1
f 30/5/1 28/5/1 29/5/1
f 33/1/1 32/1/1 31/1/1
f 34/1/1 32/1/1 33/1/1
f 35/1/2 36/1/2 37/1/2
f 37/1/2 36/1/2 38/1/2
f 39/5/2 40/5/2 41/5/2
f 39/5/2 41/5/2 42/5/2
f 39/5/2 42/5/2 43/5/2
f 43/5/2 42/5/2 44/5/2
f 45/8/2 46/8/2 47/8/2
f 47/8/2 46/8/2 48/8/2
f 49/8/2 50/8/2 51/8/2
f 49/8/2 51/8/2 52/8/2
f 52/8/2 51/8/2 53/8/2
f 52/9/2 53/9/2 54/9/2
f 52/9/2 54/9/2 55/9/2
f 55/9/2 54/9/2 56/9/2
f 57/1/2 58/1/2 59/1/2
f 57/1/2 59/1/2 60/1/2
f 57/1/2 60/1/2 61/1/2
f 57/1/2 61/1/2 62/1/2
f 62/1/2 61/1/2 63/1/2
f 64/1/2 65/1/2 66/1/2
f 66/1/2 65/1/2 67/1/2
f 66/5/2 67/5/2 68/5/2
f 68/5/2 67/5/2 69/5/2
f 72/1/3 71/1/3 70/1/3
f 73/1/3 71/1/3 72/1/3
f 74/4/3 73/4/3 72/4/3
f 75/4/3 73/4/3 74/4/3
f 76/5/3 75/5/3 74/5/3
f 77/5/3 75/5/3 76/5/3
f 80/5/3 79/5/3 78/5/3
f 81/5/3 79/5/3 80/5/3
f 82/4/3 81/4/3 80/4/3
f 83/4/3 81/4/3 82/4/3
f 84/1/3 83/1/3 82/1/3
f 85/1/3 83/1/3 84/1/3
f 89/5/3 88/5/3 87/5/3
f 90/5/3 88/5/3 89/5/3
f 91/5/3 89/5/3 87/5/3
f 91/6/3 90/6/3 89/6/3
f 92/5/3 88/5/3 90/5/3
f 92/6/3 90/6/3 91/6/3
f 93/1/3 87/1/3 86/1/3
f 94/5/3 91/5/3 87/5/3
f 94/1/3 87/1/3 93/1/3
f 94/5/3 92/5/3 91/5/3
f 95/5/3 88/5/3 92/5/3
f 95/5/3 92/5/3 94/5/3
f 99/7/3 97/7/3 96/7/3
f 99/8/3 98/8/3 97/8/3
f 100/8/3 98/8/3 99/8/3
f 101/7/3 99/7/3 96/7/3
f 102/7/3 99/7/3 101/7/3
f 103/8/3 98/8/3 100/8/3
f 104/8/3 98/8/3 103/8/3
f 105/8/3 102/8/3 101/8/3
f 107/9/3 104/9/3 103/9/3
f 108/8/3 106/8/3 105/8/3
f 108/8/3 105/8/3 101/8/3
f 109/9/3 107/9/3 106/9/3
f 109/8/3 106/8/3 108/8/3
f 110/9/3 104/9/3 107/9/3
f 110/9/3 107/9/3 109/9/3
f 116/4/3 114/4/3 113/4/3
f 116/5/3 113/5/3 112/5/3
f 117/5/3 115/5/3 114/5/3
f 117/4/3 114/4/3 116/4/3
f 118/1/3 112/1/3 111/1/3
f 119/5/3 116/5/3 112/5/3
f 119/1/3 112/1/3 118/1/3
f 119/5/3 117/5/3 116/5/3
f 120/5/3 115/5/3 117/5/3
f 120/5/3 117/5/3 119/5/3
f 124/2/3 122/2/3 121/2/3
f 125/3/3 123/3/3 122/3/3
f 125/2/3 122/2/3 124/2/3
f 126/3/3 123/3/3 125/3/3
f 129/2/3 128/2/3 127/2/3
f 130/2/3 128/2/3 129/2/3
f 131/3/3 123/3/3 126/3/3
f 132/2/3 130/2/3 129/2/3
f 133/2/3 130/2/3 132/2/3
f 134/2/3 130/2/3 133/2/3
f 138/3/3 123/3/3 131/3/3
f 139/2/3 137/2/3 136/2/3
f 139/2/3 136/2/3 135/2/3
f 140/3/3 138/3/3 137/3/3
f 140/2/3 137/2/3 139/2/3
f 141/3/3 123/3/3 138/3/3
f 141/3/3 138/3/3 140/3/3
f 144/1/3 143/1/3 142/1/3
f 145/1/3 143/1/3 144/1/3
f 146/1/4 147/1/4 148/1/4
f 148/1/4 147/1/4 149/1/4
f 148/5/4 149/5/4 150/5/4
f 150/5/4 149/5/4 151/5/4
f 152/7/4 153/7/4 154/7/4
f 154/7/4 153/7/4 155/7/4
f 154/8/4 155/8/4 156/8/4
f 156/8/4 155/8/4 157/8/4
f 158/5/4 159/5/4 160/5/4
f 160/5/4 159/5/4 161/5/4
f 160/1/4 161/1/4 162/1/4
f 162/1/4 161/1/4 163/1/4
f 164/1/4 165/1/4 167/1/4
f 165/5/4 166/5/4 168/5/4
f 167/1/4 165/1/4 168/1/4
f 168/5/4 166/5/4 169/5/4
f 179/1/5 171/1/5 170/1/5
f 180/4/5 172/4/5 171/4/5
f 180/1/5 171/1/5 179/1/5
f 181/5/5 173/5/5 172/5/5
f 181/4/5 172/4/5 180/4/5
f 185/5/5 175/5/5 174/5/5
f 185/4/5 176/4/5 175/4/5
f 186/1/5 177/1/5 176/1/5
f 186/4/5 176/4/5 185/4/5
f 187/1/5 177/1/5 186/1/5
f 189/1/5 179/1/5 178/1/5
f 189/1/5 180/1/5 179/1/5
f 190/5/5 181/5/5 180/5/5
f 190/1/5 180/1/5 189/1/5
f 191/5/5 173/5/5 181/5/5
f 191/5/5 181/5/5 190/5/5
f 192/7/5 183/7/5 182/7/5
f 193/8/5 184/8/5 183/8/5
f 193/7/5 183/7/5 192/7/5
f 194/8/5 184/8/5 193/8/5
f 195/5/5 185/5/5 174/5/5
f 195/5/5 186/5/5 185/5/5
f 196/1/5 188/1/5 187/1/5
f 196/5/5 186/5/5 195/5/5
f 196/1/5 187/1/5 186/1/5
f 197/1/5 188/1/5 196/1/5
f 198/1/5 189/1/5 178/1/5
f 199/1/5 188/1/5 197/1/5
f 200/1/5 198/1/5 178/1/5
f 200/1/5 199/1/5 198/1/5
f 201/1/5 188/1/5 199/1/5
f 201/1/5 199/1/5 200/1/5
f 211/2/5 203/2/5 202/2/5
f 211/2/5 210/2/5 209/2/5
f 211/2/5 209/2/5 208/2/5
f 211/2/5 208/2/5 207/2/5
f 211/2/5 207/2/5 206/2/5
f 211/2/5 206/2/5 205/2/5
f 211/2/5 205/2/5 204/2/5
f 211/2/5 204/2/5 203/2/5
f 212/2/5 210/2/5 211/2/5
f 216/8/5 214/8/5 213/8/5
f 217/9/5 215/9/5 214/9/5
f 217/8/5 214/8/5 216/8/5
f 218/9/5 215/9/5 217/9/5
f 219/7/6 220/7/6 222/7/6
f 220/8/6 221/8/6 223/8/6
f 222/7/6 220/7/6 223/7/6
f 223/8/6 221/8/6 224/8/6
f 225/8/6 226/8/6 228/8/6
f 226/9/6 227/9/6 229/9/6
f 228/8/6 226/8/6 229/8/6
f 229/9/6 227/9/6 230/9/6
f 231/1/6 232/1/6 240/1/6
f 232/4/6 233/4/6 241/4/6
f 240/1/6 232/1/6 241/1/6
f 233/5/6 234/5/6 242/5/6
f 241/4/6 233/4/6 242/4/6
f 235/5/6 236/5/6 243/5/6
f 236/4/6 237/4/6 243/4/6
f 237/1/6 238/1/6 244/1/6
f 243/4/6 237/4/6 244/4/6
f 244/1/6 238/1/6 245/1/6
f 239/5/6 240/5/6 247/5/6
f 240/5/6 241/5/6 247/5/6
f 242/5/6 234/5/6 247/5/6
f 241/5/6 242/5/6 247/5/6
f 235/5/6 243/5/6 248/5/6
f 245/5/6 246/5/6 248/5/6
f 244/5/6 245/5/6 248/5/6
f 243/5/6 244/5/6 248/5/6
f 239/5/6 247/5/6 249/5/6
f 247/3/6 248/3/6 249/3/6
f 248/5/6 246/5/6 250/5/6
f 249/3/6 248/3/6 250/3/6
f 239/5/6 249/5/6 251/5/6
f 249/5/6 250/5/6 251/5/6
f 250/5/6 246/5/6 252/5/6
f 251/5/6 250/5/6 252/5/6
