# MagicaVoxel @ Ephtracy

# group
o 

# material
mtllib model.mtl
usemtl palette

# normals
vn 0 0 1
vn 0 0 -1
vn 1 0 0
vn -1 0 0
vn 0 -1 0
vn 0 1 0

# texcoords
vt 0.0292969 0.5
vt 0.294922 0.5
vt 0.302734 0.5
vt 0.365234 0.5
vt 0.373047 0.5
vt 0.548828 0.5
vt 0.556641 0.5
vt 0.583984 0.5
vt 0.591797 0.5
vt 0.646484 0.5
vt 0.654297 0.5

# verts
v 0.7 0 1.1
v 0.6 0 1.1
v 0.5 0 1.1
v 0.4 0 1.1
v 0.9 0.1 1.1
v 0.8 0.1 1.1
v 0.7 0.1 1.1
v 0.6 0.1 1.1
v 0.5 0.1 1.1
v 0.4 0.1 1.1
v 0.3 0.1 1.1
v 0.1 0.1 1.1
v 0.8 0.2 1.1
v 0.7 0.2 1.1
v 0.6 0.2 1.1
v 0.5 0.2 1.1
v 0.4 0.2 1.1
v 0.3 0.2 1.1
v 0.2 0.2 1.1
v 0.1 0.2 1.1
v 0.9 0.3 1.1
v 0.7 0.3 1.1
v 0.4 0.3 1.1
v 0.3 0.3 1.1
v 0.2 0.3 1.1
v 0.1 0.3 1.1
v 0 0.3 1.1
v 0.9 0.4 1.1
v 0.8 0.4 1.1
v 0.7 0.4 1.1
v 0.5 0.4 1.1
v 0.3 0.4 1.1
v 0.1 0.4 1.1
v 0 0.4 1.1
v 0.9 0.5 1.1
v 0.8 0.5 1.1
v 0.7 0.5 1.1
v 0.6 0.5 1.1
v 0.5 0.5 1.1
v 0.4 0.5 1.1
v 0.3 0.5 1.1
v 0.2 0.5 1.1
v 0.1 0.5 1.1
v 0.8 0.6 1.1
v 0.7 0.6 1.1
v 0.5 0.6 1.1
v 0.4 0.6 1.1
v 0.3 0.6 1.1
v 0.2 0.6 1.1
v 0.9 0.7 1.1
v 0.8 0.7 1.1
v 0.7 0.7 1.1
v 0.6 0.7 1.1
v 0.4 0.7 1.1
v 0.3 0.7 1.1
v 0.8 0.8 1.1
v 0.7 0.8 1.1
v 0.5 0.8 1.1
v 0.4 0.8 1.1
v 0.8 0.9 1.1
v 0.7 0.9 1.1
v 0.6 0.9 1.1
v 0.5 0.9 1.1
v 0.7 1 1.1
v 0.6 1 1.1
v 0.5 1 1.1
v 0.4 1 1.1
v 0.6 1.1 1.1
v 0.5 1.1 1.1
v 0.4 1.1 1.1
v 0.8 1.2 1.1
v 0.7 1.2 1.1
v 0.5 1.2 1.1
v 0.8 1.3 1.1
v 0.6 1.3 1.1
v 0.5 1.3 1.1
v 0.8 1.4 1.1
v 0.6 1.4 1.1
v 0.5 1.4 1.1
v 0.8 1.5 1.1
v 0.7 1.5 1.1
v 0.6 1.5 1.1
v 0.9 1.6 1.1
v 0.8 1.6 1.1
v 0.7 1.6 1.1
v 0.6 1.6 1.1
v 0.5 1.6 1.1
v 0.9 1.7 1.1
v 0.8 1.7 1.1
v 0.9 1.9 1.1
v 0.8 1.9 1.1
v 0.9 0.5 1
v 0.8 0.5 1
v 0.9 0.6 1
v 0.8 0.6 1
v 0.9 0.1 0.8
v 0.8 0.1 0.8
v 0.9 0.2 0.8
v 0.8 0.2 0.8
v 0.9 1.8 0.8
v 0.8 1.8 0.8
v 0.9 1.9 0.8
v 0.8 1.9 0.8
v 0.9 2 0.7
v 0.8 2 0.7
v 0.9 2.1 0.7
v 0.8 2.1 0.7
v 0.9 1.7 0.6
v 0.8 1.7 0.6
v 0.9 1.8 0.6
v 0.8 1.8 0.6
v 0.9 1.6 0.4
v 0.8 1.6 0.4
v 0.9 1.7 0.4
v 0.8 1.7 0.4
v 0.9 1.9 0.4
v 0.8 1.9 0.4
v 0.9 2 0.4
v 0.8 2 0.4
v 0.9 1.4 0.3
v 0.8 1.4 0.3
v 0.9 1.5 0.3
v 0.8 1.5 0.3
v 0.9 1.6 0.3
v 0.8 1.6 0.3
v 0.9 2 0.3
v 0.8 2 0.3
v 0.9 2.1 0.3
v 0.8 2.1 0.3
v 0.9 0.8 0.2
v 0.8 0.8 0.2
v 0.9 0.9 0.2
v 0.8 0.9 0.2
v 0.9 1.2 0.2
v 0.8 1.2 0.2
v 0.9 1.3 0.2
v 0.8 1.3 0.2
v 0.9 1.4 0.2
v 0.8 1.4 0.2
v 0.8 2 0.2
v 0.7 2 0.2
v 0.8 2.1 0.2
v 0.7 2.1 0.2
v 0.9 1 0.1
v 0.8 1 0.1
v 0.9 1.2 0.1
v 0.8 1.2 0.1
v 0.7 2 0.1
v 0.6 2 0.1
v 0.7 2.1 0.1
v 0.6 2.1 0.1
v 0.9 1.1 -0.1
v 0.8 1.1 -0.1
v 0.9 1.2 -0.1
v 0.8 1.2 -0.1
v 0.9 2 -0.6
v 0.8 2 -0.6
v 0.9 2.1 -0.6
v 0.8 2.1 -0.6
v 0.9 0.3 -0.7
v 0.8 0.3 -0.7
v 0.9 0.4 -0.7
v 0.8 0.4 -0.7
v 0.9 1 -0.7
v 0.8 1 -0.7
v 0.9 1.1 -0.7
v 0.8 1.1 -0.7
v 0.9 1.2 -0.7
v 0.8 1.2 -0.7
v 0.9 1.3 -0.7
v 0.8 1.3 -0.7
v 0.9 1.4 -0.7
v 0.8 1.4 -0.7
v 0.9 0 -0.8
v 0.8 0 -0.8
v 0.9 0.1 -0.8
v 0.8 0.1 -0.8
v 0.9 1.1 -0.8
v 0.8 1.1 -0.8
v 0.9 1.2 -0.8
v 0.8 1.2 -0.8
v 0.9 1.4 -0.8
v 0.8 1.4 -0.8
v 0.9 1.5 -0.8
v 0.8 1.5 -0.8
v 0.9 0.4 -0.9
v 0.8 0.4 -0.9
v 0.9 0.5 -0.9
v 0.8 0.5 -0.9
v 0.9 0.8 -0.9
v 0.8 0.8 -0.9
v 0.9 1 -0.9
v 0.8 1 -0.9
v 0.9 1.5 -0.9
v 0.8 1.5 -0.9
v 0.9 1.6 -0.9
v 0.8 1.6 -0.9
v 0.7 0 -1
v 0.6 0 -1
v 0.5 0 -1
v 0.3 0 -1
v 0.9 0.1 -1
v 0.8 0.1 -1
v 0.7 0.1 -1
v 0.4 0.1 -1
v 0.3 0.1 -1
v 0.2 0.1 -1
v 0.1 0.1 -1
v 0.8 0.2 -1
v 0.7 0.2 -1
v 0.6 0.2 -1
v 0.5 0.2 -1
v 0.4 0.2 -1
v 0.3 0.2 -1
v 0.2 0.2 -1
v 0.1 0.2 -1
v 0.9 0.3 -1
v 0.8 0.3 -1
v 0.7 0.3 -1
v 0.6 0.3 -1
v 0.4 0.3 -1
v 0.2 0.3 -1
v 0 0.3 -1
v 0.8 0.4 -1
v 0.7 0.4 -1
v 0.4 0.4 -1
v 0.2 0.4 -1
v 0.1 0.4 -1
v 0 0.4 -1
v 0.9 0.5 -1
v 0.8 0.5 -1
v 0.7 0.5 -1
v 0.6 0.5 -1
v 0.5 0.5 -1
v 0.4 0.5 -1
v 0.3 0.5 -1
v 0.2 0.5 -1
v 0.1 0.5 -1
v 0.9 0.6 -1
v 0.8 0.6 -1
v 0.7 0.6 -1
v 0.5 0.6 -1
v 0.4 0.6 -1
v 0.3 0.6 -1
v 0.2 0.6 -1
v 0.8 0.7 -1
v 0.7 0.7 -1
v 0.5 0.7 -1
v 0.4 0.7 -1
v 0.3 0.7 -1
v 0.2 0.7 -1
v 0.9 0.8 -1
v 0.8 0.8 -1
v 0.7 0.8 -1
v 0.6 0.8 -1
v 0.8 0.9 -1
v 0.7 0.9 -1
v 0.6 0.9 -1
v 0.5 0.9 -1
v 0.8 1 -1
v 0.7 1 -1
v 0.6 1 -1
v 0.5 1 -1
v 0.8 1.1 -1
v 0.7 1.1 -1
v 0.6 1.1 -1
v 0.5 1.1 -1
v 0.4 1.1 -1
v 0.8 1.2 -1
v 0.7 1.2 -1
v 0.6 1.2 -1
v 0.4 1.2 -1
v 0.8 1.3 -1
v 0.7 1.3 -1
v 0.6 1.3 -1
v 0.5 1.3 -1
v 0.4 1.3 -1
v 0.8 1.4 -1
v 0.7 1.4 -1
v 0.6 1.4 -1
v 0.5 1.4 -1
v 0.4 1.4 -1
v 0.8 1.5 -1
v 0.7 1.5 -1
v 0.6 1.5 -1
v 0.9 1.6 -1
v 0.8 1.6 -1
v 0.7 1.6 -1
v 0.6 1.6 -1
v 0.5 1.6 -1
v 0.8 1.7 -1
v 0.7 1.7 -1
v 0.6 1.8 -1
v 0.5 1.8 -1
v 0.9 1.9 -1
v 0.8 1.9 -1
v 0.7 2 -1
v 0.5 2 -1
v 0.7 2.1 -1
v 0.5 2.1 -1
v 0.7 0 1
v 0.6 0 1
v 0.5 0 1
v 0.4 0 1
v 0.9 0.1 1
v 0.8 0.1 1
v 0.7 0.1 1
v 0.6 0.1 1
v 0.5 0.1 1
v 0.4 0.1 1
v 0.3 0.1 1
v 0.1 0.1 1
v 0.9 0.2 1
v 0.8 0.2 1
v 0.7 0.2 1
v 0.6 0.2 1
v 0.5 0.2 1
v 0.4 0.2 1
v 0.3 0.2 1
v 0.2 0.2 1
v 0.1 0.2 1
v 0.8 0.3 1
v 0.7 0.3 1
v 0.4 0.3 1
v 0.3 0.3 1
v 0.2 0.3 1
v 0.1 0.3 1
v 0 0.3 1
v 0.8 0.4 1
v 0.7 0.4 1
v 0.5 0.4 1
v 0.3 0.4 1
v 0.1 0.4 1
v 0 0.4 1
v 0.8 0.5 1
v 0.7 0.5 1
v 0.6 0.5 1
v 0.5 0.5 1
v 0.4 0.5 1
v 0.3 0.5 1
v 0.2 0.5 1
v 0.1 0.5 1
v 0.8 0.6 1
v 0.7 0.6 1
v 0.5 0.6 1
v 0.4 0.6 1
v 0.3 0.6 1
v 0.2 0.6 1
v 0.9 0.7 1
v 0.8 0.7 1
v 0.7 0.7 1
v 0.6 0.7 1
v 0.4 0.7 1
v 0.3 0.7 1
v 0.9 0.8 1
v 0.8 0.8 1
v 0.7 0.8 1
v 0.5 0.8 1
v 0.4 0.8 1
v 0.8 0.9 1
v 0.7 0.9 1
v 0.6 0.9 1
v 0.5 0.9 1
v 0.8 1 1
v 0.7 1 1
v 0.6 1 1
v 0.5 1 1
v 0.4 1 1
v 0.8 1.1 1
v 0.6 1.1 1
v 0.5 1.1 1
v 0.4 1.1 1
v 0.8 1.2 1
v 0.7 1.2 1
v 0.5 1.2 1
v 0.8 1.3 1
v 0.6 1.3 1
v 0.5 1.3 1
v 0.8 1.4 1
v 0.6 1.4 1
v 0.5 1.4 1
v 0.8 1.5 1
v 0.7 1.5 1
v 0.6 1.5 1
v 0.9 1.6 1
v 0.8 1.6 1
v 0.7 1.6 1
v 0.6 1.6 1
v 0.5 1.6 1
v 0.9 1.7 1
v 0.8 1.7 1
v 0.9 1.9 1
v 0.8 1.9 1
v 0.9 0.2 0.9
v 0.8 0.2 0.9
v 0.9 0.3 0.9
v 0.8 0.3 0.9
v 0.9 0.4 0.9
v 0.8 0.4 0.9
v 0.9 0.5 0.9
v 0.8 0.5 0.9
v 0.9 0.6 0.9
v 0.8 0.6 0.9
v 0.9 0.3 0.8
v 0.8 0.3 0.8
v 0.9 0.4 0.8
v 0.8 0.4 0.8
v 0.9 0.8 0.8
v 0.8 0.8 0.8
v 0.9 1 0.8
v 0.8 1 0.8
v 0.9 1.4 0.8
v 0.8 1.4 0.8
v 0.9 1.5 0.8
v 0.8 1.5 0.8
v 0.9 1.6 0.8
v 0.8 1.6 0.8
v 0.9 1 0.7
v 0.8 1 0.7
v 0.9 1.2 0.7
v 0.8 1.2 0.7
v 0.9 1.3 0.7
v 0.8 1.3 0.7
v 0.9 1.4 0.7
v 0.8 1.4 0.7
v 0.9 0.1 0.6
v 0.8 0.1 0.6
v 0.9 0.2 0.6
v 0.8 0.2 0.6
v 0.9 2 0.5
v 0.8 2 0.5
v 0.9 2.1 0.5
v 0.8 2.1 0.5
v 0.9 0.8 0.1
v 0.8 0.8 0.1
v 0.9 0.9 0.1
v 0.8 0.9 0.1
v 0.9 1 0
v 0.8 1 0
v 0.9 1.3 0
v 0.8 1.3 0
v 0.8 2 0
v 0.6 2 0
v 0.8 2.1 0
v 0.6 2.1 0
v 0.9 1.3 -0.1
v 0.8 1.3 -0.1
v 0.9 1.5 -0.1
v 0.8 1.5 -0.1
v 0.9 1.1 -0.2
v 0.8 1.1 -0.2
v 0.9 1.2 -0.2
v 0.8 1.2 -0.2
v 0.9 1.5 -0.2
v 0.8 1.5 -0.2
v 0.9 1.6 -0.2
v 0.8 1.6 -0.2
v 0.9 1.7 -0.2
v 0.8 1.7 -0.2
v 0.9 1.9 -0.3
v 0.8 1.9 -0.3
v 0.9 2 -0.3
v 0.8 2 -0.3
v 0.9 2 -0.4
v 0.8 2 -0.4
v 0.9 2.1 -0.4
v 0.8 2.1 -0.4
v 0.9 1.7 -0.5
v 0.8 1.7 -0.5
v 0.9 1.9 -0.5
v 0.8 1.9 -0.5
v 0.9 0 -0.9
v 0.8 0 -0.9
v 0.9 0.1 -0.9
v 0.8 0.1 -0.9
v 0.9 2 -0.9
v 0.8 2 -0.9
v 0.9 2.1 -0.9
v 0.8 2.1 -0.9
v 0.7 0 -1.1
v 0.6 0 -1.1
v 0.5 0 -1.1
v 0.3 0 -1.1
v 0.9 0.1 -1.1
v 0.8 0.1 -1.1
v 0.7 0.1 -1.1
v 0.4 0.1 -1.1
v 0.3 0.1 -1.1
v 0.2 0.1 -1.1
v 0.1 0.1 -1.1
v 0.8 0.2 -1.1
v 0.7 0.2 -1.1
v 0.6 0.2 -1.1
v 0.5 0.2 -1.1
v 0.4 0.2 -1.1
v 0.3 0.2 -1.1
v 0.2 0.2 -1.1
v 0.1 0.2 -1.1
v 0.9 0.3 -1.1
v 0.8 0.3 -1.1
v 0.7 0.3 -1.1
v 0.6 0.3 -1.1
v 0.4 0.3 -1.1
v 0.2 0.3 -1.1
v 0 0.3 -1.1
v 0.9 0.4 -1.1
v 0.8 0.4 -1.1
v 0.7 0.4 -1.1
v 0.4 0.4 -1.1
v 0.2 0.4 -1.1
v 0.1 0.4 -1.1
v 0 0.4 -1.1
v 0.9 0.5 -1.1
v 0.8 0.5 -1.1
v 0.7 0.5 -1.1
v 0.6 0.5 -1.1
v 0.5 0.5 -1.1
v 0.4 0.5 -1.1
v 0.3 0.5 -1.1
v 0.2 0.5 -1.1
v 0.1 0.5 -1.1
v 0.9 0.6 -1.1
v 0.8 0.6 -1.1
v 0.7 0.6 -1.1
v 0.5 0.6 -1.1
v 0.4 0.6 -1.1
v 0.3 0.6 -1.1
v 0.2 0.6 -1.1
v 0.8 0.7 -1.1
v 0.7 0.7 -1.1
v 0.5 0.7 -1.1
v 0.4 0.7 -1.1
v 0.3 0.7 -1.1
v 0.2 0.7 -1.1
v 0.7 0.8 -1.1
v 0.6 0.8 -1.1
v 0.8 0.9 -1.1
v 0.7 0.9 -1.1
v 0.6 0.9 -1.1
v 0.5 0.9 -1.1
v 0.8 1 -1.1
v 0.7 1 -1.1
v 0.6 1 -1.1
v 0.5 1 -1.1
v 0.8 1.1 -1.1
v 0.7 1.1 -1.1
v 0.6 1.1 -1.1
v 0.5 1.1 -1.1
v 0.4 1.1 -1.1
v 0.7 1.2 -1.1
v 0.6 1.2 -1.1
v 0.4 1.2 -1.1
v 0.8 1.3 -1.1
v 0.7 1.3 -1.1
v 0.6 1.3 -1.1
v 0.5 1.3 -1.1
v 0.4 1.3 -1.1
v 0.8 1.4 -1.1
v 0.7 1.4 -1.1
v 0.6 1.4 -1.1
v 0.5 1.4 -1.1
v 0.4 1.4 -1.1
v 0.8 1.5 -1.1
v 0.7 1.5 -1.1
v 0.6 1.5 -1.1
v 0.8 1.6 -1.1
v 0.7 1.6 -1.1
v 0.6 1.6 -1.1
v 0.5 1.6 -1.1
v 0.8 1.7 -1.1
v 0.7 1.7 -1.1
v 0.6 1.8 -1.1
v 0.5 1.8 -1.1
v 0.9 1.9 -1.1
v 0.8 1.9 -1.1
v 0.7 2 -1.1
v 0.5 2 -1.1
v 0.7 2.1 -1.1
v 0.5 2.1 -1.1
v 0.9 0.1 1.1
v 0.9 0.3 1.1
v 0.9 0.4 1.1
v 0.9 0.5 1.1
v 0.9 0.7 1.1
v 0.9 1.6 1.1
v 0.9 1.7 1.1
v 0.9 1.9 1.1
v 0.9 0.1 1
v 0.9 0.2 1
v 0.9 0.3 1
v 0.9 0.5 1
v 0.9 0.6 1
v 0.9 0.7 1
v 0.9 0.8 1
v 0.9 1 1
v 0.9 1.1 1
v 0.9 1.3 1
v 0.9 1.4 1
v 0.9 1.5 1
v 0.9 1.6 1
v 0.9 1.7 1
v 0.9 1.9 1
v 0.9 0.2 0.9
v 0.9 0.3 0.9
v 0.9 0.4 0.9
v 0.9 0.5 0.9
v 0.9 0.6 0.9
v 0.9 0.8 0.9
v 0.9 1 0.9
v 0.9 1.1 0.9
v 0.9 1.2 0.9
v 0.9 1.4 0.9
v 0.9 1.5 0.9
v 0.9 1.6 0.9
v 0.9 0.1 0.8
v 0.9 0.2 0.8
v 0.9 0.3 0.8
v 0.9 0.4 0.8
v 0.9 0.8 0.8
v 0.9 1 0.8
v 0.9 1.3 0.8
v 0.9 1.4 0.8
v 0.9 1.5 0.8
v 0.9 1.6 0.8
v 0.9 1.8 0.8
v 0.9 1.9 0.8
v 0.9 1 0.7
v 0.9 1.2 0.7
v 0.9 1.3 0.7
v 0.9 1.4 0.7
v 0.9 2 0.7
v 0.9 2.1 0.7
v 0.9 0.1 0.6
v 0.9 0.2 0.6
v 0.9 1.7 0.6
v 0.9 1.8 0.6
v 0.9 1.8 0.5
v 0.9 1.9 0.5
v 0.9 2 0.5
v 0.9 2.1 0.5
v 0.9 1.6 0.4
v 0.9 1.7 0.4
v 0.9 1.9 0.4
v 0.9 2 0.4
v 0.9 1.4 0.3
v 0.9 1.5 0.3
v 0.9 1.6 0.3
v 0.9 1.7 0.3
v 0.9 1.8 0.3
v 0.9 1.9 0.3
v 0.9 2 0.3
v 0.9 2.1 0.3
v 0.9 0.8 0.2
v 0.9 0.9 0.2
v 0.9 1.2 0.2
v 0.9 1.3 0.2
v 0.9 1.4 0.2
v 0.9 1.5 0.2
v 0.9 1.6 0.2
v 0.9 1.7 0.2
v 0.9 1.9 0.2
v 0.9 2 0.2
v 0.9 2.1 0.2
v 0.9 0.8 0.1
v 0.9 0.9 0.1
v 0.9 1 0.1
v 0.9 1.2 0.1
v 0.9 1.3 0.1
v 0.9 1.5 0.1
v 0.9 1.6 0.1
v 0.9 1.7 0.1
v 0.9 1.8 0.1
v 0.9 2 0.1
v 0.9 2.1 0.1
v 0.9 1 0
v 0.9 1.3 0
v 0.9 1.5 0
v 0.9 1.7 0
v 0.9 1.9 0
v 0.9 2 0
v 0.9 2.1 0
v 0.9 1.1 -0.1
v 0.9 1.2 -0.1
v 0.9 1.3 -0.1
v 0.9 1.5 -0.1
v 0.9 1.6 -0.1
v 0.9 1.8 -0.1
v 0.9 1.9 -0.1
v 0.9 2 -0.1
v 0.9 2.1 -0.1
v 0.9 1.1 -0.2
v 0.9 1.2 -0.2
v 0.9 1.5 -0.2
v 0.9 1.6 -0.2
v 0.9 1.7 -0.2
v 0.9 1.9 -0.2
v 0.9 2 -0.2
v 0.9 2.1 -0.2
v 0.9 1.9 -0.3
v 0.9 2 -0.3
v 0.9 2.1 -0.3
v 0.9 1.8 -0.4
v 0.9 1.9 -0.4
v 0.9 2 -0.4
v 0.9 2.1 -0.4
v 0.9 1.7 -0.5
v 0.9 1.9 -0.5
v 0.9 2 -0.6
v 0.9 2.1 -0.6
v 0.9 0.3 -0.7
v 0.9 0.4 -0.7
v 0.9 1 -0.7
v 0.9 1.1 -0.7
v 0.9 1.2 -0.7
v 0.9 1.3 -0.7
v 0.9 1.4 -0.7
v 0.9 0 -0.8
v 0.9 0.1 -0.8
v 0.9 1 -0.8
v 0.9 1.1 -0.8
v 0.9 1.2 -0.8
v 0.9 1.3 -0.8
v 0.9 1.4 -0.8
v 0.9 1.5 -0.8
v 0.9 0 -0.9
v 0.9 0.1 -0.9
v 0.9 0.4 -0.9
v 0.9 0.5 -0.9
v 0.9 0.8 -0.9
v 0.9 1 -0.9
v 0.9 1.2 -0.9
v 0.9 1.3 -0.9
v 0.9 1.4 -0.9
v 0.9 1.5 -0.9
v 0.9 1.6 -0.9
v 0.9 2 -0.9
v 0.9 2.1 -0.9
v 0.9 0.1 -1
v 0.9 0.3 -1
v 0.9 0.4 -1
v 0.9 0.5 -1
v 0.9 0.6 -1
v 0.9 0.8 -1
v 0.9 1 -1
v 0.9 1.2 -1
v 0.9 1.4 -1
v 0.9 1.6 -1
v 0.9 1.9 -1
v 0.9 0.1 -1.1
v 0.9 0.3 -1.1
v 0.9 0.4 -1.1
v 0.9 0.5 -1.1
v 0.9 0.6 -1.1
v 0.9 1.9 -1.1
v 0.8 0.5 1.1
v 0.8 0.6 1.1
v 0.8 0.7 1.1
v 0.8 0.5 1
v 0.8 0.6 1
v 0.8 0.7 1
v 0.7 0 1.1
v 0.7 0.1 1.1
v 0.7 0 1
v 0.7 0.1 1
v 0.7 0 -1
v 0.7 0.1 -1
v 0.7 0.6 -1
v 0.7 0.7 -1
v 0.7 2 -1
v 0.7 2.1 -1
v 0.7 0 -1.1
v 0.7 0.1 -1.1
v 0.7 0.6 -1.1
v 0.7 0.7 -1.1
v 0.7 2 -1.1
v 0.7 2.1 -1.1
v 0.6 0.7 1.1
v 0.6 0.9 1.1
v 0.6 1.5 1.1
v 0.6 1.6 1.1
v 0.6 0.7 1
v 0.6 0.9 1
v 0.6 1.5 1
v 0.6 1.6 1
v 0.6 0.8 -1
v 0.6 0.9 -1
v 0.6 1.6 -1
v 0.6 1.8 -1
v 0.6 0.8 -1.1
v 0.6 0.9 -1.1
v 0.6 1.6 -1.1
v 0.6 1.8 -1.1
v 0.5 1 1.1
v 0.5 1.1 1.1
v 0.5 1 1
v 0.5 1.1 1
v 0.2 0.1 -1
v 0.2 0.2 -1
v 0.2 0.1 -1.1
v 0.2 0.2 -1.1
v 0.8 0.7 1.1
v 0.8 0.8 1.1
v 0.8 1.6 1.1
v 0.8 1.7 1.1
v 0.8 1.9 1.1
v 0.8 0.2 1
v 0.8 0.3 1
v 0.8 0.4 1
v 0.8 0.5 1
v 0.8 0.6 1
v 0.8 0.7 1
v 0.8 0.8 1
v 0.8 0.9 1
v 0.8 1 1
v 0.8 1.1 1
v 0.8 1.2 1
v 0.8 1.3 1
v 0.8 1.4 1
v 0.8 1.5 1
v 0.8 1.6 1
v 0.8 1.7 1
v 0.8 1.9 1
v 0.8 0.2 0.9
v 0.8 0.3 0.9
v 0.8 0.4 0.9
v 0.8 0.5 0.9
v 0.8 0.6 0.9
v 0.8 0.8 0.9
v 0.8 1 0.9
v 0.8 1.1 0.9
v 0.8 1.2 0.9
v 0.8 1.4 0.9
v 0.8 1.5 0.9
v 0.8 1.6 0.9
v 0.8 0.1 0.8
v 0.8 0.2 0.8
v 0.8 0.3 0.8
v 0.8 0.4 0.8
v 0.8 0.8 0.8
v 0.8 1 0.8
v 0.8 1.3 0.8
v 0.8 1.4 0.8
v 0.8 1.5 0.8
v 0.8 1.6 0.8
v 0.8 1.8 0.8
v 0.8 1.9 0.8
v 0.8 1 0.7
v 0.8 1.2 0.7
v 0.8 1.3 0.7
v 0.8 1.4 0.7
v 0.8 2 0.7
v 0.8 2.1 0.7
v 0.8 0.1 0.6
v 0.8 0.2 0.6
v 0.8 1.7 0.6
v 0.8 1.8 0.6
v 0.8 1.8 0.5
v 0.8 1.9 0.5
v 0.8 2 0.5
v 0.8 2.1 0.5
v 0.8 1.6 0.4
v 0.8 1.7 0.4
v 0.8 1.9 0.4
v 0.8 2 0.4
v 0.8 1.4 0.3
v 0.8 1.5 0.3
v 0.8 1.6 0.3
v 0.8 1.7 0.3
v 0.8 1.8 0.3
v 0.8 1.9 0.3
v 0.8 2 0.3
v 0.8 2.1 0.3
v 0.8 0.8 0.2
v 0.8 0.9 0.2
v 0.8 1.2 0.2
v 0.8 1.3 0.2
v 0.8 1.4 0.2
v 0.8 1.5 0.2
v 0.8 1.6 0.2
v 0.8 1.7 0.2
v 0.8 1.9 0.2
v 0.8 2 0.2
v 0.8 2.1 0.2
v 0.8 0.8 0.1
v 0.8 0.9 0.1
v 0.8 1 0.1
v 0.8 1.2 0.1
v 0.8 1.3 0.1
v 0.8 1.5 0.1
v 0.8 1.6 0.1
v 0.8 1.7 0.1
v 0.8 1.8 0.1
v 0.8 2 0.1
v 0.8 1 0
v 0.8 1.3 0
v 0.8 1.5 0
v 0.8 1.7 0
v 0.8 1.9 0
v 0.8 2 0
v 0.8 2.1 0
v 0.8 1.1 -0.1
v 0.8 1.2 -0.1
v 0.8 1.3 -0.1
v 0.8 1.5 -0.1
v 0.8 1.6 -0.1
v 0.8 1.8 -0.1
v 0.8 1.9 -0.1
v 0.8 2 -0.1
v 0.8 2.1 -0.1
v 0.8 1.1 -0.2
v 0.8 1.2 -0.2
v 0.8 1.5 -0.2
v 0.8 1.6 -0.2
v 0.8 1.7 -0.2
v 0.8 1.9 -0.2
v 0.8 2 -0.2
v 0.8 2.1 -0.2
v 0.8 1.9 -0.3
v 0.8 2 -0.3
v 0.8 2.1 -0.3
v 0.8 1.8 -0.4
v 0.8 1.9 -0.4
v 0.8 2 -0.4
v 0.8 2.1 -0.4
v 0.8 1.7 -0.5
v 0.8 1.9 -0.5
v 0.8 2 -0.6
v 0.8 2.1 -0.6
v 0.8 0.3 -0.7
v 0.8 0.4 -0.7
v 0.8 1 -0.7
v 0.8 1.1 -0.7
v 0.8 1.2 -0.7
v 0.8 1.3 -0.7
v 0.8 1.4 -0.7
v 0.8 0 -0.8
v 0.8 0.1 -0.8
v 0.8 1 -0.8
v 0.8 1.1 -0.8
v 0.8 1.2 -0.8
v 0.8 1.3 -0.8
v 0.8 1.4 -0.8
v 0.8 1.5 -0.8
v 0.8 0 -0.9
v 0.8 0.1 -0.9
v 0.8 0.4 -0.9
v 0.8 0.5 -0.9
v 0.8 0.8 -0.9
v 0.8 1 -0.9
v 0.8 1.2 -0.9
v 0.8 1.3 -0.9
v 0.8 1.4 -0.9
v 0.8 1.5 -0.9
v 0.8 1.6 -0.9
v 0.8 2 -0.9
v 0.8 2.1 -0.9
v 0.8 0.3 -1
v 0.8 0.4 -1
v 0.8 0.5 -1
v 0.8 0.6 -1
v 0.8 0.7 -1
v 0.8 0.8 -1
v 0.8 0.9 -1
v 0.8 1 -1
v 0.8 1.1 -1
v 0.8 1.2 -1
v 0.8 1.3 -1
v 0.8 1.4 -1
v 0.8 1.5 -1
v 0.8 1.6 -1
v 0.8 1.7 -1
v 0.8 1.9 -1
v 0.8 0.6 -1.1
v 0.8 0.7 -1.1
v 0.8 1.7 -1.1
v 0.8 1.9 -1.1
v 0.7 0.8 1.1
v 0.7 0.9 1.1
v 0.7 1.5 1.1
v 0.7 1.6 1.1
v 0.7 0.8 1
v 0.7 0.9 1
v 0.7 1.5 1
v 0.7 1.6 1
v 0.7 2 0.2
v 0.7 2.1 0.2
v 0.7 2 0.1
v 0.7 2.1 0.1
v 0.7 0.8 -1
v 0.7 0.9 -1
v 0.7 1.5 -1
v 0.7 1.6 -1
v 0.7 1.7 -1
v 0.7 0.8 -1.1
v 0.7 0.9 -1.1
v 0.7 1.5 -1.1
v 0.7 1.6 -1.1
v 0.7 1.7 -1.1
v 0.6 0.9 1.1
v 0.6 1 1.1
v 0.6 1.1 1.1
v 0.6 0.9 1
v 0.6 1 1
v 0.6 1.1 1
v 0.6 2 0.1
v 0.6 2.1 0.1
v 0.6 2 0
v 0.6 2.1 0
v 0.6 0.9 -1
v 0.6 1 -1
v 0.6 1.4 -1
v 0.6 1.5 -1
v 0.6 0.9 -1.1
v 0.6 1 -1.1
v 0.6 1.4 -1.1
v 0.6 1.5 -1.1
v 0.5 0.8 1.1
v 0.5 0.9 1.1
v 0.5 1.1 1.1
v 0.5 1.2 1.1
v 0.5 1.3 1.1
v 0.5 1.4 1.1
v 0.5 1.6 1.1
v 0.5 0.8 1
v 0.5 0.9 1
v 0.5 1.1 1
v 0.5 1.2 1
v 0.5 1.3 1
v 0.5 1.4 1
v 0.5 1.6 1
v 0.5 0.7 -1
v 0.5 0.9 -1
v 0.5 1 -1
v 0.5 1.1 -1
v 0.5 1.6 -1
v 0.5 1.8 -1
v 0.5 2 -1
v 0.5 2.1 -1
v 0.5 0.7 -1.1
v 0.5 0.9 -1.1
v 0.5 1 -1.1
v 0.5 1.1 -1.1
v 0.5 1.6 -1.1
v 0.5 1.8 -1.1
v 0.5 2 -1.1
v 0.5 2.1 -1.1
v 0.4 0 1.1
v 0.4 0.1 1.1
v 0.4 0.7 1.1
v 0.4 0.8 1.1
v 0.4 1 1.1
v 0.4 1.1 1.1
v 0.4 0 1
v 0.4 0.1 1
v 0.4 0.7 1
v 0.4 0.8 1
v 0.4 1 1
v 0.4 1.1 1
v 0.4 1.1 -1
v 0.4 1.2 -1
v 0.4 1.3 -1
v 0.4 1.4 -1
v 0.4 1.1 -1.1
v 0.4 1.2 -1.1
v 0.4 1.3 -1.1
v 0.4 1.4 -1.1
v 0.3 0.6 1.1
v 0.3 0.7 1.1
v 0.3 0.6 1
v 0.3 0.7 1
v 0.3 0 -1
v 0.3 0.1 -1
v 0.3 0.2 -1
v 0.3 0 -1.1
v 0.3 0.1 -1.1
v 0.3 0.2 -1.1
v 0.2 0.5 1.1
v 0.2 0.6 1.1
v 0.2 0.5 1
v 0.2 0.6 1
v 0.2 0.2 -1
v 0.2 0.3 -1
v 0.2 0.5 -1
v 0.2 0.6 -1
v 0.2 0.7 -1
v 0.2 0.2 -1.1
v 0.2 0.3 -1.1
v 0.2 0.5 -1.1
v 0.2 0.6 -1.1
v 0.2 0.7 -1.1
v 0.1 0.1 1.1
v 0.1 0.2 1.1
v 0.1 0.3 1.1
v 0.1 0.4 1.1
v 0.1 0.5 1.1
v 0.1 0.1 1
v 0.1 0.2 1
v 0.1 0.3 1
v 0.1 0.4 1
v 0.1 0.5 1
v 0.1 0.1 -1
v 0.1 0.2 -1
v 0.1 0.4 -1
v 0.1 0.5 -1
v 0.1 0.1 -1.1
v 0.1 0.2 -1.1
v 0.1 0.4 -1.1
v 0.1 0.5 -1.1
v 0 0.3 1.1
v 0 0.4 1.1
v 0 0.3 1
v 0 0.4 1
v 0 0.3 -1
v 0 0.4 -1
v 0 0.3 -1.1
v 0 0.4 -1.1
v 0.9 0 -0.8
v 0.9 0 -0.9
v 0.8 0 -0.8
v 0.8 0 -0.9
v 0.7 0 1.1
v 0.7 0 1
v 0.7 0 -1
v 0.7 0 -1.1
v 0.6 0 1.1
v 0.6 0 1
v 0.6 0 -1
v 0.6 0 -1.1
v 0.5 0 1.1
v 0.5 0 1
v 0.5 0 -1
v 0.5 0 -1.1
v 0.4 0 1.1
v 0.4 0 1
v 0.3 0 -1
v 0.3 0 -1.1
v 0.9 0.1 1.1
v 0.9 0.1 1
v 0.9 0.1 0.8
v 0.9 0.1 0.6
v 0.9 0.1 -1
v 0.9 0.1 -1.1
v 0.8 0.1 1.1
v 0.8 0.1 1
v 0.8 0.1 0.8
v 0.8 0.1 0.6
v 0.8 0.1 -1
v 0.8 0.1 -1.1
v 0.7 0.1 1.1
v 0.7 0.1 1
v 0.7 0.1 -1
v 0.7 0.1 -1.1
v 0.4 0.1 1.1
v 0.4 0.1 1
v 0.3 0.1 1.1
v 0.3 0.1 1
v 0.2 0.1 -1
v 0.2 0.1 -1.1
v 0.1 0.1 1.1
v 0.1 0.1 1
v 0.1 0.1 -1
v 0.1 0.1 -1.1
v 0.9 0.2 1
v 0.9 0.2 0.9
v 0.8 0.2 1
v 0.8 0.2 0.9
v 0.3 0.2 -1
v 0.3 0.2 -1.1
v 0.2 0.2 -1
v 0.2 0.2 -1.1
v 0.9 0.3 0.9
v 0.9 0.3 0.8
v 0.9 0.3 -0.7
v 0.9 0.3 -1
v 0.8 0.3 0.9
v 0.8 0.3 0.8
v 0.8 0.3 -0.7
v 0.8 0.3 -1
v 0.2 0.3 -1
v 0.2 0.3 -1.1
v 0.1 0.3 1.1
v 0.1 0.3 1
v 0 0.3 1.1
v 0 0.3 1
v 0 0.3 -1
v 0 0.3 -1.1
v 0.9 0.7 1.1
v 0.9 0.7 1
v 0.8 0.7 1.1
v 0.8 0.7 1
v 0.8 0.7 -1
v 0.8 0.7 -1.1
v 0.7 0.7 -1
v 0.7 0.7 -1.1
v 0.9 0.8 1
v 0.9 0.8 0.9
v 0.9 0.8 0.8
v 0.9 0.8 0.2
v 0.9 0.8 0.1
v 0.9 0.8 -0.9
v 0.9 0.8 -1
v 0.8 0.8 1.1
v 0.8 0.8 1
v 0.8 0.8 0.9
v 0.8 0.8 0.8
v 0.8 0.8 0.2
v 0.8 0.8 0.1
v 0.8 0.8 -0.9
v 0.8 0.8 -1
v 0.7 0.8 1.1
v 0.7 0.8 1
v 0.7 0.9 1.1
v 0.7 0.9 1
v 0.7 0.9 -1
v 0.7 0.9 -1.1
v 0.6 0.9 1.1
v 0.6 0.9 1
v 0.6 0.9 -1
v 0.6 0.9 -1.1
v 0.9 1 0.8
v 0.9 1 0.7
v 0.9 1 0.1
v 0.9 1 0
v 0.9 1 -0.7
v 0.9 1 -0.8
v 0.9 1 -0.9
v 0.8 1 0.8
v 0.8 1 0.7
v 0.8 1 0.1
v 0.8 1 0
v 0.8 1 -0.7
v 0.8 1 -0.8
v 0.8 1 -0.9
v 0.6 1 -1
v 0.6 1 -1.1
v 0.5 1 1.1
v 0.5 1 1
v 0.5 1 -1
v 0.5 1 -1.1
v 0.4 1 1.1
v 0.4 1 1
v 0.9 1.1 -0.1
v 0.9 1.1 -0.2
v 0.8 1.1 -0.1
v 0.8 1.1 -0.2
v 0.6 1.1 1.1
v 0.6 1.1 1
v 0.5 1.1 1.1
v 0.5 1.1 1
v 0.5 1.1 -1
v 0.5 1.1 -1.1
v 0.4 1.1 -1
v 0.4 1.1 -1.1
v 0.9 1.2 0.2
v 0.9 1.2 0.1
v 0.9 1.2 -0.7
v 0.9 1.2 -0.8
v 0.8 1.2 0.2
v 0.8 1.2 0.1
v 0.8 1.2 -0.7
v 0.8 1.2 -0.8
v 0.9 1.3 0
v 0.9 1.3 -0.1
v 0.8 1.3 0
v 0.8 1.3 -0.1
v 0.9 1.4 0.3
v 0.9 1.4 0.2
v 0.8 1.4 0.3
v 0.8 1.4 0.2
v 0.9 1.5 -0.1
v 0.9 1.5 -0.2
v 0.8 1.5 -0.1
v 0.8 1.5 -0.2
v 0.9 1.6 0.4
v 0.9 1.6 0.3
v 0.8 1.6 0.4
v 0.8 1.6 0.3
v 0.6 1.6 -1
v 0.6 1.6 -1.1
v 0.5 1.6 -1
v 0.5 1.6 -1.1
v 0.9 1.7 0.6
v 0.9 1.7 0.4
v 0.9 1.7 -0.2
v 0.9 1.7 -0.5
v 0.8 1.7 0.6
v 0.8 1.7 0.4
v 0.8 1.7 -0.2
v 0.8 1.7 -0.5
v 0.9 1.8 0.8
v 0.9 1.8 0.6
v 0.8 1.8 0.8
v 0.8 1.8 0.6
v 0.9 2 0.7
v 0.9 2 0.5
v 0.9 2 -0.3
v 0.9 2 -0.4
v 0.9 2 -0.6
v 0.9 2 -0.9
v 0.8 2 0.7
v 0.8 2 0.5
v 0.8 2 0.2
v 0.8 2 0.1
v 0.8 2 0
v 0.8 2 -0.3
v 0.8 2 -0.4
v 0.8 2 -0.6
v 0.8 2 -0.9
v 0.7 2 0.2
v 0.7 2 0.1
v 0.7 2 -1
v 0.7 2 -1.1
v 0.6 2 0.1
v 0.6 2 0
v 0.5 2 -1
v 0.5 2 -1.1
v 0.9 0.1 -0.8
v 0.9 0.1 -0.9
v 0.8 0.1 -0.8
v 0.8 0.1 -0.9
v 0.9 0.2 0.8
v 0.9 0.2 0.6
v 0.8 0.2 0.8
v 0.8 0.2 0.6
v 0.2 0.2 -1
v 0.2 0.2 -1.1
v 0.1 0.2 -1
v 0.1 0.2 -1.1
v 0.9 0.4 0.9
v 0.9 0.4 0.8
v 0.9 0.4 -0.7
v 0.9 0.4 -0.9
v 0.8 0.4 0.9
v 0.8 0.4 0.8
v 0.8 0.4 -0.7
v 0.8 0.4 -0.9
v 0.1 0.4 1.1
v 0.1 0.4 1
v 0.1 0.4 -1
v 0.1 0.4 -1.1
v 0 0.4 1.1
v 0 0.4 1
v 0 0.4 -1
v 0 0.4 -1.1
v 0.9 0.5 1.1
v 0.9 0.5 1
v 0.9 0.5 -0.9
v 0.9 0.5 -1
v 0.8 0.5 1.1
v 0.8 0.5 1
v 0.8 0.5 -0.9
v 0.8 0.5 -1
v 0.2 0.5 1.1
v 0.2 0.5 1
v 0.2 0.5 -1
v 0.2 0.5 -1.1
v 0.1 0.5 1.1
v 0.1 0.5 1
v 0.1 0.5 -1
v 0.1 0.5 -1.1
v 0.9 0.6 1
v 0.9 0.6 0.9
v 0.8 0.6 1
v 0.8 0.6 0.9
v 0.8 0.6 -1
v 0.8 0.6 -1.1
v 0.7 0.6 -1
v 0.7 0.6 -1.1
v 0.3 0.6 1.1
v 0.3 0.6 1
v 0.2 0.6 1.1
v 0.2 0.6 1
v 0.8 0.7 1.1
v 0.8 0.7 1
v 0.7 0.7 1.1
v 0.7 0.7 1
v 0.6 0.7 1.1
v 0.6 0.7 1
v 0.5 0.7 -1
v 0.5 0.7 -1.1
v 0.4 0.7 1.1
v 0.4 0.7 1
v 0.4 0.7 -1
v 0.4 0.7 -1.1
v 0.3 0.7 1.1
v 0.3 0.7 1
v 0.3 0.7 -1
v 0.3 0.7 -1.1
v 0.2 0.7 -1
v 0.2 0.7 -1.1
v 0.7 0.8 -1
v 0.7 0.8 -1.1
v 0.6 0.8 -1
v 0.6 0.8 -1.1
v 0.5 0.8 1.1
v 0.5 0.8 1
v 0.4 0.8 1.1
v 0.4 0.8 1
v 0.9 0.9 0.2
v 0.9 0.9 0.1
v 0.8 0.9 0.2
v 0.8 0.9 0.1
v 0.6 0.9 1.1
v 0.6 0.9 1
v 0.6 0.9 -1
v 0.6 0.9 -1.1
v 0.5 0.9 1.1
v 0.5 0.9 1
v 0.5 0.9 -1
v 0.5 0.9 -1.1
v 0.9 1.1 -0.7
v 0.9 1.1 -0.8
v 0.8 1.1 -0.7
v 0.8 1.1 -0.8
v 0.5 1.1 1.1
v 0.5 1.1 1
v 0.4 1.1 1.1
v 0.4 1.1 1
v 0.9 1.2 -0.1
v 0.9 1.2 -0.2
v 0.8 1.2 -0.1
v 0.8 1.2 -0.2
v 0.9 1.4 0.8
v 0.9 1.4 0.7
v 0.9 1.4 -0.7
v 0.9 1.4 -0.8
v 0.8 1.4 0.8
v 0.8 1.4 0.7
v 0.8 1.4 -0.7
v 0.8 1.4 -0.8
v 0.6 1.4 -1
v 0.6 1.4 -1.1
v 0.5 1.4 -1
v 0.5 1.4 -1.1
v 0.4 1.4 -1
v 0.4 1.4 -1.1
v 0.9 1.5 -0.8
v 0.9 1.5 -0.9
v 0.8 1.5 -0.8
v 0.8 1.5 -0.9
v 0.7 1.5 1.1
v 0.7 1.5 1
v 0.7 1.5 -1
v 0.7 1.5 -1.1
v 0.6 1.5 1.1
v 0.6 1.5 1
v 0.6 1.5 -1
v 0.6 1.5 -1.1
v 0.9 1.6 1
v 0.9 1.6 0.9
v 0.9 1.6 0.8
v 0.9 1.6 -0.9
v 0.9 1.6 -1
v 0.8 1.6 1.1
v 0.8 1.6 1
v 0.8 1.6 0.9
v 0.8 1.6 0.8
v 0.8 1.6 -0.9
v 0.8 1.6 -1
v 0.7 1.6 1.1
v 0.7 1.6 1
v 0.6 1.6 1.1
v 0.6 1.6 1
v 0.5 1.6 1.1
v 0.5 1.6 1
v 0.8 1.7 -1
v 0.8 1.7 -1.1
v 0.7 1.7 -1
v 0.7 1.7 -1.1
v 0.6 1.8 -1
v 0.6 1.8 -1.1
v 0.5 1.8 -1
v 0.5 1.8 -1.1
v 0.9 1.9 1.1
v 0.9 1.9 1
v 0.9 1.9 0.8
v 0.9 1.9 0.5
v 0.9 1.9 0.4
v 0.9 1.9 -0.3
v 0.9 1.9 -0.4
v 0.9 1.9 -0.5
v 0.9 1.9 -1
v 0.9 1.9 -1.1
v 0.8 1.9 1.1
v 0.8 1.9 1
v 0.8 1.9 0.8
v 0.8 1.9 0.5
v 0.8 1.9 0.4
v 0.8 1.9 -0.3
v 0.8 1.9 -0.4
v 0.8 1.9 -0.5
v 0.8 1.9 -1
v 0.8 1.9 -1.1
v 0.9 2 0.4
v 0.9 2 0.3
v 0.8 2 0.4
v 0.8 2 0.3
v 0.9 2.1 0.7
v 0.9 2.1 0.5
v 0.9 2.1 0.3
v 0.9 2.1 0.2
v 0.9 2.1 0.1
v 0.9 2.1 0
v 0.9 2.1 -0.1
v 0.9 2.1 -0.2
v 0.9 2.1 -0.3
v 0.9 2.1 -0.4
v 0.9 2.1 -0.6
v 0.9 2.1 -0.9
v 0.8 2.1 0.7
v 0.8 2.1 0.5
v 0.8 2.1 0.3
v 0.8 2.1 0.2
v 0.8 2.1 0.1
v 0.8 2.1 0
v 0.8 2.1 -0.1
v 0.8 2.1 -0.2
v 0.8 2.1 -0.3
v 0.8 2.1 -0.4
v 0.8 2.1 -0.6
v 0.8 2.1 -0.9
v 0.7 2.1 0.2
v 0.7 2.1 0.1
v 0.7 2.1 -1
v 0.7 2.1 -1.1
v 0.6 2.1 0.1
v 0.6 2.1 0
v 0.5 2.1 -1
v 0.5 2.1 -1.1

# faces
f 7/7/1 2/7/1 1/7/1
f 8/1/1 3/1/1 2/1/1
f 8/7/1 2/7/1 7/7/1
f 9/7/1 4/7/1 3/7/1
f 9/1/1 3/1/1 8/1/1
f 10/7/1 4/7/1 9/7/1
f 13/6/1 6/6/1 5/6/1
f 13/7/1 7/7/1 6/7/1
f 14/6/1 8/6/1 7/6/1
f 14/7/1 7/7/1 13/7/1
f 15/1/1 9/1/1 8/1/1
f 15/6/1 8/6/1 14/6/1
f 16/6/1 10/6/1 9/6/1
f 16/1/1 9/1/1 15/1/1
f 17/7/1 11/7/1 10/7/1
f 17/6/1 10/6/1 16/6/1
f 18/1/1 12/1/1 11/1/1
f 18/7/1 11/7/1 17/7/1
f 19/1/1 12/1/1 18/1/1
f 20/1/1 12/1/1 19/1/1
f 21/6/1 13/6/1 5/6/1
f 21/6/1 14/6/1 13/6/1
f 22/1/1 17/1/1 16/1/1
f 22/6/1 14/6/1 21/6/1
f 22/1/1 16/1/1 15/1/1
f 22/1/1 15/1/1 14/1/1
f 23/7/1 18/7/1 17/7/1
f 23/1/1 17/1/1 22/1/1
f 24/6/1 19/6/1 18/6/1
f 24/7/1 18/7/1 23/7/1
f 25/7/1 20/7/1 19/7/1
f 25/6/1 19/6/1 24/6/1
f 26/7/1 20/7/1 25/7/1
f 28/1/1 23/1/1 22/1/1
f 28/1/1 27/1/1 26/1/1
f 28/1/1 25/1/1 24/1/1
f 28/1/1 22/1/1 21/1/1
f 28/1/1 24/1/1 23/1/1
f 28/1/1 26/1/1 25/1/1
f 29/1/1 27/1/1 28/1/1
f 30/1/1 27/1/1 29/1/1
f 31/1/1 27/1/1 30/1/1
f 32/1/1 27/1/1 31/1/1
f 33/1/1 27/1/1 32/1/1
f 34/1/1 27/1/1 33/1/1
f 35/7/1 29/7/1 28/7/1
f 36/6/1 30/6/1 29/6/1
f 36/7/1 29/7/1 35/7/1
f 37/1/1 31/1/1 30/1/1
f 37/6/1 30/6/1 36/6/1
f 38/1/1 31/1/1 37/1/1
f 39/6/1 32/6/1 31/6/1
f 39/1/1 31/1/1 38/1/1
f 40/6/1 32/6/1 39/6/1
f 41/7/1 33/7/1 32/7/1
f 41/6/1 32/6/1 40/6/1
f 42/7/1 33/7/1 41/7/1
f 43/7/1 33/7/1 42/7/1
f 44/7/1 38/7/1 37/7/1
f 44/7/1 37/7/1 36/7/1
f 45/7/1 38/7/1 44/7/1
f 46/1/1 40/1/1 39/1/1
f 46/1/1 39/1/1 38/1/1
f 47/7/1 42/7/1 41/7/1
f 47/1/1 40/1/1 46/1/1
f 47/7/1 41/7/1 40/7/1
f 48/7/1 42/7/1 47/7/1
f 49/7/1 42/7/1 48/7/1
f 51/6/1 45/6/1 44/6/1
f 52/7/1 38/7/1 45/7/1
f 52/6/1 45/6/1 51/6/1
f 53/1/1 46/1/1 38/1/1
f 53/7/1 38/7/1 52/7/1
f 54/7/1 47/7/1 46/7/1
f 54/1/1 48/1/1 47/1/1
f 55/1/1 48/1/1 54/1/1
f 56/1/1 51/1/1 50/1/1
f 58/7/1 54/7/1 46/7/1
f 58/1/1 46/1/1 53/1/1
f 59/7/1 54/7/1 58/7/1
f 60/9/1 57/9/1 56/9/1
f 60/1/1 56/1/1 50/1/1
f 61/9/1 57/9/1 60/9/1
f 62/1/1 58/1/1 53/1/1
f 63/1/1 58/1/1 62/1/1
f 64/8/1 61/8/1 60/8/1
f 64/1/1 62/1/1 61/1/1
f 65/1/1 62/1/1 64/1/1
f 68/9/1 65/9/1 64/9/1
f 69/1/1 67/1/1 66/1/1
f 70/1/1 67/1/1 69/1/1
f 71/1/1 60/1/1 50/1/1
f 71/8/1 64/8/1 60/8/1
f 72/9/1 68/9/1 64/9/1
f 72/8/1 64/8/1 71/8/1
f 72/9/1 69/9/1 68/9/1
f 73/9/1 69/9/1 72/9/1
f 74/1/1 71/1/1 50/1/1
f 74/1/1 72/1/1 71/1/1
f 74/1/1 73/1/1 72/1/1
f 75/1/1 73/1/1 74/1/1
f 76/1/1 73/1/1 75/1/1
f 77/1/1 74/1/1 50/1/1
f 77/8/1 75/8/1 74/8/1
f 78/9/1 76/9/1 75/9/1
f 78/8/1 75/8/1 77/8/1
f 79/9/1 76/9/1 78/9/1
f 80/1/1 77/1/1 50/1/1
f 80/9/1 78/9/1 77/9/1
f 81/9/1 78/9/1 80/9/1
f 82/1/1 79/1/1 78/1/1
f 82/9/1 78/9/1 81/9/1
f 83/1/1 80/1/1 50/1/1
f 84/8/1 81/8/1 80/8/1
f 84/1/1 80/1/1 83/1/1
f 85/8/1 81/8/1 84/8/1
f 86/1/1 79/1/1 82/1/1
f 87/1/1 79/1/1 86/1/1
f 88/9/1 84/9/1 83/9/1
f 89/9/1 84/9/1 88/9/1
f 90/1/1 89/1/1 88/1/1
f 91/1/1 89/1/1 90/1/1
f 94/1/1 93/1/1 92/1/1
f 95/1/1 93/1/1 94/1/1
f 98/1/1 97/1/1 96/1/1
f 99/1/1 97/1/1 98/1/1
f 102/1/1 101/1/1 100/1/1
f 103/1/1 101/1/1 102/1/1
f 106/1/1 105/1/1 104/1/1
f 107/1/1 105/1/1 106/1/1
f 110/1/1 109/1/1 108/1/1
f 111/1/1 109/1/1 110/1/1
f 114/3/1 113/3/1 112/3/1
f 115/3/1 113/3/1 114/3/1
f 118/1/1 117/1/1 116/1/1
f 119/1/1 117/1/1 118/1/1
f 122/1/1 121/1/1 120/1/1
f 123/1/1 121/1/1 122/1/1
f 124/3/1 123/3/1 122/3/1
f 125/3/1 123/3/1 124/3/1
f 128/1/1 127/1/1 126/1/1
f 129/1/1 127/1/1 128/1/1
f 132/1/1 131/1/1 130/1/1
f 133/1/1 131/1/1 132/1/1
f 136/1/1 135/1/1 134/1/1
f 137/1/1 135/1/1 136/1/1
f 138/3/1 137/3/1 136/3/1
f 139/3/1 137/3/1 138/3/1
f 142/1/1 141/1/1 140/1/1
f 143/1/1 141/1/1 142/1/1
f 146/1/1 145/1/1 144/1/1
f 147/1/1 145/1/1 146/1/1
f 150/1/1 149/1/1 148/1/1
f 151/1/1 149/1/1 150/1/1
f 154/1/1 153/1/1 152/1/1
f 155/1/1 153/1/1 154/1/1
f 158/1/1 157/1/1 156/1/1
f 159/1/1 157/1/1 158/1/1
f 162/1/1 161/1/1 160/1/1
f 163/1/1 161/1/1 162/1/1
f 166/1/1 165/1/1 164/1/1
f 167/1/1 165/1/1 166/1/1
f 170/1/1 169/1/1 168/1/1
f 171/1/1 169/1/1 170/1/1
f 172/5/1 171/5/1 170/5/1
f 173/5/1 171/5/1 172/5/1
f 176/1/1 175/1/1 174/1/1
f 177/1/1 175/1/1 176/1/1
f 180/5/1 179/5/1 178/5/1
f 181/5/1 179/5/1 180/5/1
f 184/5/1 183/5/1 182/5/1
f 185/5/1 183/5/1 184/5/1
f 188/11/1 187/11/1 186/11/1
f 189/11/1 187/11/1 188/11/1
f 192/5/1 191/5/1 190/5/1
f 193/5/1 191/5/1 192/5/1
f 196/5/1 195/5/1 194/5/1
f 197/5/1 195/5/1 196/5/1
f 204/11/1 199/11/1 198/11/1
f 205/11/1 201/11/1 200/11/1
f 206/11/1 201/11/1 205/11/1
f 209/11/1 203/11/1 202/11/1
f 209/10/1 204/10/1 203/10/1
f 210/11/1 199/11/1 204/11/1
f 210/10/1 204/10/1 209/10/1
f 211/1/1 200/1/1 199/1/1
f 211/11/1 199/11/1 210/11/1
f 212/11/1 205/11/1 200/11/1
f 212/1/1 200/1/1 211/1/1
f 213/10/1 206/10/1 205/10/1
f 213/11/1 205/11/1 212/11/1
f 214/10/1 206/10/1 213/10/1
f 215/1/1 208/1/1 207/1/1
f 216/1/1 208/1/1 215/1/1
f 217/11/1 209/11/1 202/11/1
f 218/1/1 210/1/1 209/1/1
f 218/11/1 209/11/1 217/11/1
f 219/10/1 211/10/1 210/10/1
f 219/1/1 210/1/1 218/1/1
f 220/1/1 212/1/1 211/1/1
f 220/10/1 211/10/1 219/10/1
f 220/1/1 213/1/1 212/1/1
f 221/11/1 214/11/1 213/11/1
f 221/1/1 213/1/1 220/1/1
f 221/11/1 215/11/1 214/11/1
f 222/11/1 215/11/1 221/11/1
f 224/1/1 220/1/1 219/1/1
f 224/1/1 223/1/1 222/1/1
f 224/1/1 221/1/1 220/1/1
f 224/1/1 219/1/1 218/1/1
f 224/1/1 222/1/1 221/1/1
f 225/1/1 223/1/1 224/1/1
f 226/1/1 223/1/1 225/1/1
f 227/1/1 223/1/1 226/1/1
f 228/1/1 223/1/1 227/1/1
f 229/1/1 223/1/1 228/1/1
f 231/11/1 225/11/1 224/11/1
f 232/1/1 226/1/1 225/1/1
f 232/11/1 225/11/1 231/11/1
f 233/1/1 226/1/1 232/1/1
f 234/1/1 226/1/1 233/1/1
f 235/10/1 227/10/1 226/10/1
f 235/1/1 226/1/1 234/1/1
f 236/10/1 227/10/1 235/10/1
f 237/11/1 228/11/1 227/11/1
f 237/10/1 227/10/1 236/10/1
f 238/11/1 228/11/1 237/11/1
f 239/11/1 231/11/1 230/11/1
f 240/10/1 232/10/1 231/10/1
f 240/11/1 231/11/1 239/11/1
f 241/11/1 233/11/1 232/11/1
f 241/10/1 232/10/1 240/10/1
f 242/1/1 234/1/1 233/1/1
f 242/10/1 235/10/1 234/10/1
f 243/11/1 236/11/1 235/11/1
f 243/10/1 235/10/1 242/10/1
f 244/1/1 237/1/1 236/1/1
f 244/11/1 236/11/1 243/11/1
f 245/1/1 237/1/1 244/1/1
f 246/1/1 240/1/1 239/1/1
f 247/11/1 233/11/1 241/11/1
f 248/1/1 242/1/1 233/1/1
f 248/11/1 243/11/1 242/11/1
f 249/1/1 244/1/1 243/1/1
f 249/11/1 243/11/1 248/11/1
f 250/11/1 245/11/1 244/11/1
f 250/1/1 244/1/1 249/1/1
f 251/11/1 245/11/1 250/11/1
f 252/1/1 246/1/1 239/1/1
f 253/5/1 247/5/1 246/5/1
f 253/1/1 246/1/1 252/1/1
f 254/11/1 233/11/1 247/11/1
f 254/5/1 247/5/1 253/5/1
f 255/1/1 248/1/1 233/1/1
f 255/11/1 233/11/1 254/11/1
f 256/5/1 254/5/1 253/5/1
f 257/5/1 254/5/1 256/5/1
f 258/1/1 248/1/1 255/1/1
f 259/1/1 248/1/1 258/1/1
f 260/4/1 257/4/1 256/4/1
f 261/5/1 258/5/1 257/5/1
f 261/4/1 257/4/1 260/4/1
f 262/5/1 258/5/1 261/5/1
f 264/5/1 261/5/1 260/5/1
f 265/4/1 262/4/1 261/4/1
f 265/5/1 261/5/1 264/5/1
f 266/1/1 263/1/1 262/1/1
f 266/4/1 262/4/1 265/4/1
f 267/1/1 263/1/1 266/1/1
f 269/1/1 265/1/1 264/1/1
f 270/4/1 266/4/1 265/4/1
f 270/1/1 265/1/1 269/1/1
f 271/5/1 267/5/1 266/5/1
f 271/4/1 266/4/1 270/4/1
f 271/5/1 268/5/1 267/5/1
f 272/5/1 268/5/1 271/5/1
f 273/1/1 270/1/1 269/1/1
f 273/1/1 271/1/1 270/1/1
f 273/1/1 272/1/1 271/1/1
f 274/1/1 272/1/1 273/1/1
f 275/1/1 272/1/1 274/1/1
f 276/1/1 272/1/1 275/1/1
f 277/1/1 272/1/1 276/1/1
f 278/4/1 274/4/1 273/4/1
f 279/5/1 275/5/1 274/5/1
f 279/4/1 274/4/1 278/4/1
f 280/4/1 276/4/1 275/4/1
f 280/5/1 275/5/1 279/5/1
f 281/5/1 277/5/1 276/5/1
f 281/4/1 276/4/1 280/4/1
f 282/5/1 277/5/1 281/5/1
f 283/1/1 279/1/1 278/1/1
f 284/5/1 280/5/1 279/5/1
f 284/1/1 279/1/1 283/1/1
f 285/5/1 280/5/1 284/5/1
f 287/4/1 284/4/1 283/4/1
f 288/4/1 284/4/1 287/4/1
f 291/5/1 288/5/1 287/5/1
f 291/1/1 287/1/1 286/1/1
f 292/5/1 288/5/1 291/5/1
f 293/1/1 290/1/1 289/1/1
f 294/1/1 290/1/1 293/1/1
f 295/1/1 291/1/1 286/1/1
f 296/1/1 291/1/1 295/1/1
f 299/1/1 298/1/1 297/1/1
f 300/1/1 298/1/1 299/1/1
f 301/7/2 302/7/2 307/7/2
f 302/1/2 303/1/2 308/1/2
f 307/7/2 302/7/2 308/7/2
f 303/7/2 304/7/2 309/7/2
f 308/1/2 303/1/2 309/1/2
f 309/7/2 304/7/2 310/7/2
f 305/6/2 306/6/2 313/6/2
f 306/7/2 307/7/2 314/7/2
f 313/6/2 306/6/2 314/6/2
f 307/6/2 308/6/2 315/6/2
f 314/7/2 307/7/2 315/7/2
f 308/1/2 309/1/2 316/1/2
f 315/6/2 308/6/2 316/6/2
f 309/6/2 310/6/2 317/6/2
f 316/1/2 309/1/2 317/1/2
f 310/7/2 311/7/2 318/7/2
f 317/6/2 310/6/2 318/6/2
f 311/1/2 312/1/2 319/1/2
f 318/7/2 311/7/2 319/7/2
f 319/1/2 312/1/2 320/1/2
f 320/1/2 312/1/2 321/1/2
f 314/6/2 315/6/2 322/6/2
f 317/1/2 318/1/2 323/1/2
f 322/6/2 315/6/2 323/6/2
f 315/1/2 316/1/2 323/1/2
f 316/1/2 317/1/2 323/1/2
f 318/7/2 319/7/2 324/7/2
f 323/1/2 318/1/2 324/1/2
f 319/6/2 320/6/2 325/6/2
f 324/7/2 319/7/2 325/7/2
f 320/7/2 321/7/2 326/7/2
f 325/6/2 320/6/2 326/6/2
f 326/7/2 321/7/2 327/7/2
f 326/1/2 327/1/2 329/1/2
f 327/1/2 328/1/2 329/1/2
f 325/1/2 326/1/2 329/1/2
f 322/1/2 323/1/2 329/1/2
f 323/1/2 324/1/2 329/1/2
f 324/1/2 325/1/2 329/1/2
f 329/1/2 328/1/2 330/1/2
f 330/1/2 328/1/2 331/1/2
f 331/1/2 328/1/2 332/1/2
f 332/1/2 328/1/2 333/1/2
f 333/1/2 328/1/2 334/1/2
f 329/6/2 330/6/2 335/6/2
f 330/1/2 331/1/2 336/1/2
f 335/6/2 330/6/2 336/6/2
f 336/1/2 331/1/2 337/1/2
f 331/6/2 332/6/2 338/6/2
f 337/1/2 331/1/2 338/1/2
f 338/6/2 332/6/2 339/6/2
f 332/7/2 333/7/2 340/7/2
f 339/6/2 332/6/2 340/6/2
f 340/7/2 333/7/2 341/7/2
f 341/7/2 333/7/2 342/7/2
f 336/7/2 337/7/2 343/7/2
f 335/7/2 336/7/2 343/7/2
f 343/7/2 337/7/2 344/7/2
f 338/1/2 339/1/2 345/1/2
f 337/1/2 338/1/2 345/1/2
f 340/7/2 341/7/2 346/7/2
f 345/1/2 339/1/2 346/1/2
f 339/7/2 340/7/2 346/7/2
f 346/7/2 341/7/2 347/7/2
f 347/7/2 341/7/2 348/7/2
f 343/6/2 344/6/2 350/6/2
f 344/7/2 337/7/2 351/7/2
f 350/6/2 344/6/2 351/6/2
f 337/1/2 345/1/2 352/1/2
f 351/7/2 337/7/2 352/7/2
f 345/7/2 346/7/2 353/7/2
f 346/1/2 347/1/2 353/1/2
f 353/1/2 347/1/2 354/1/2
f 349/1/2 350/1/2 355/1/2
f 355/1/2 350/1/2 356/1/2
f 345/7/2 353/7/2 358/7/2
f 352/1/2 345/1/2 358/1/2
f 358/7/2 353/7/2 359/7/2
f 356/9/2 357/9/2 360/9/2
f 360/9/2 357/9/2 361/9/2
f 352/1/2 358/1/2 362/1/2
f 362/1/2 358/1/2 363/1/2
f 360/8/2 361/8/2 364/8/2
f 361/1/2 362/1/2 365/1/2
f 364/8/2 361/8/2 365/8/2
f 365/1/2 362/1/2 366/1/2
f 364/8/2 365/8/2 369/8/2
f 365/9/2 366/9/2 370/9/2
f 367/1/2 368/1/2 371/1/2
f 371/1/2 368/1/2 372/1/2
f 369/8/2 365/8/2 373/8/2
f 365/9/2 370/9/2 374/9/2
f 373/8/2 365/8/2 374/8/2
f 370/9/2 371/9/2 374/9/2
f 374/9/2 371/9/2 375/9/2
f 373/1/2 374/1/2 376/1/2
f 374/1/2 375/1/2 376/1/2
f 376/1/2 375/1/2 377/1/2
f 377/1/2 375/1/2 378/1/2
f 376/8/2 377/8/2 379/8/2
f 377/9/2 378/9/2 380/9/2
f 379/8/2 377/8/2 380/8/2
f 380/9/2 378/9/2 381/9/2
f 379/9/2 380/9/2 382/9/2
f 382/9/2 380/9/2 383/9/2
f 380/1/2 381/1/2 384/1/2
f 383/9/2 380/9/2 384/9/2
f 382/8/2 383/8/2 386/8/2
f 386/8/2 383/8/2 387/8/2
f 384/1/2 381/1/2 388/1/2
f 388/1/2 381/1/2 389/1/2
f 385/9/2 386/9/2 390/9/2
f 390/9/2 386/9/2 391/9/2
f 390/1/2 391/1/2 392/1/2
f 392/1/2 391/1/2 393/1/2
f 394/7/2 395/7/2 396/7/2
f 396/7/2 395/7/2 397/7/2
f 398/7/2 399/7/2 400/7/2
f 400/7/2 399/7/2 401/7/2
f 400/1/2 401/1/2 402/1/2
f 402/1/2 401/1/2 403/1/2
f 404/1/2 405/1/2 406/1/2
f 406/1/2 405/1/2 407/1/2
f 408/1/2 409/1/2 410/1/2
f 410/1/2 409/1/2 411/1/2
f 412/9/2 413/9/2 414/9/2
f 414/9/2 413/9/2 415/9/2
f 414/1/2 415/1/2 416/1/2
f 416/1/2 415/1/2 417/1/2
f 418/9/2 419/9/2 420/9/2
f 420/9/2 419/9/2 421/9/2
f 420/1/2 421/1/2 422/1/2
f 422/1/2 421/1/2 423/1/2
f 422/9/2 423/9/2 424/9/2
f 424/9/2 423/9/2 425/9/2
f 426/1/2 427/1/2 428/1/2
f 428/1/2 427/1/2 429/1/2
f 430/1/2 431/1/2 432/1/2
f 432/1/2 431/1/2 433/1/2
f 434/1/2 435/1/2 436/1/2
f 436/1/2 435/1/2 437/1/2
f 438/1/2 439/1/2 440/1/2
f 440/1/2 439/1/2 441/1/2
f 442/1/2 443/1/2 444/1/2
f 444/1/2 443/1/2 445/1/2
f 446/3/2 447/3/2 448/3/2
f 448/3/2 447/3/2 449/3/2
f 450/1/2 451/1/2 452/1/2
f 452/1/2 451/1/2 453/1/2
f 454/3/2 455/3/2 456/3/2
f 456/3/2 455/3/2 457/3/2
f 456/2/2 457/2/2 458/2/2
f 458/2/2 457/2/2 459/2/2
f 460/1/2 461/1/2 462/1/2
f 462/1/2 461/1/2 463/1/2
f 464/1/2 465/1/2 466/1/2
f 466/1/2 465/1/2 467/1/2
f 468/1/2 469/1/2 470/1/2
f 470/1/2 469/1/2 471/1/2
f 472/1/2 473/1/2 474/1/2
f 474/1/2 473/1/2 475/1/2
f 476/1/2 477/1/2 478/1/2
f 478/1/2 477/1/2 479/1/2
f 480/11/2 481/11/2 486/11/2
f 482/11/2 483/11/2 487/11/2
f 487/11/2 483/11/2 488/11/2
f 484/11/2 485/11/2 491/11/2
f 485/10/2 486/10/2 491/10/2
f 486/11/2 481/11/2 492/11/2
f 491/10/2 486/10/2 492/10/2
f 481/1/2 482/1/2 493/1/2
f 492/11/2 481/11/2 493/11/2
f 482/11/2 487/11/2 494/11/2
f 493/1/2 482/1/2 494/1/2
f 487/10/2 488/10/2 495/10/2
f 494/11/2 487/11/2 495/11/2
f 495/10/2 488/10/2 496/10/2
f 489/1/2 490/1/2 497/1/2
f 497/1/2 490/1/2 498/1/2
f 484/11/2 491/11/2 499/11/2
f 491/1/2 492/1/2 500/1/2
f 499/11/2 491/11/2 500/11/2
f 492/10/2 493/10/2 501/10/2
f 500/1/2 492/1/2 501/1/2
f 493/1/2 494/1/2 502/1/2
f 501/10/2 493/10/2 502/10/2
f 494/1/2 495/1/2 502/1/2
f 495/11/2 496/11/2 503/11/2
f 502/1/2 495/1/2 503/1/2
f 496/11/2 497/11/2 503/11/2
f 503/11/2 497/11/2 504/11/2
f 501/1/2 502/1/2 506/1/2
f 504/1/2 505/1/2 506/1/2
f 502/1/2 503/1/2 506/1/2
f 500/1/2 501/1/2 506/1/2
f 499/1/2 500/1/2 506/1/2
f 503/1/2 504/1/2 506/1/2
f 506/1/2 505/1/2 507/1/2
f 507/1/2 505/1/2 508/1/2
f 508/1/2 505/1/2 509/1/2
f 509/1/2 505/1/2 510/1/2
f 510/1/2 505/1/2 511/1/2
f 511/1/2 505/1/2 512/1/2
f 506/10/2 507/10/2 513/10/2
f 507/11/2 508/11/2 514/11/2
f 513/10/2 507/10/2 514/10/2
f 508/1/2 509/1/2 515/1/2
f 514/11/2 508/11/2 515/11/2
f 515/1/2 509/1/2 516/1/2
f 516/1/2 509/1/2 517/1/2
f 509/10/2 510/10/2 518/10/2
f 517/1/2 509/1/2 518/1/2
f 518/10/2 510/10/2 519/10/2
f 510/11/2 511/11/2 520/11/2
f 519/10/2 510/10/2 520/10/2
f 520/11/2 511/11/2 521/11/2
f 513/11/2 514/11/2 522/11/2
f 514/10/2 515/10/2 523/10/2
f 522/11/2 514/11/2 523/11/2
f 515/11/2 516/11/2 524/11/2
f 523/10/2 515/10/2 524/10/2
f 516/1/2 517/1/2 525/1/2
f 517/10/2 518/10/2 525/10/2
f 518/11/2 519/11/2 526/11/2
f 525/10/2 518/10/2 526/10/2
f 519/1/2 520/1/2 527/1/2
f 526/11/2 519/11/2 527/11/2
f 527/1/2 520/1/2 528/1/2
f 522/1/2 523/1/2 529/1/2
f 524/11/2 516/11/2 530/11/2
f 516/1/2 525/1/2 531/1/2
f 525/11/2 526/11/2 531/11/2
f 526/1/2 527/1/2 532/1/2
f 531/11/2 526/11/2 532/11/2
f 527/11/2 528/11/2 533/11/2
f 532/1/2 527/1/2 533/1/2
f 533/11/2 528/11/2 534/11/2
f 529/5/2 530/5/2 535/5/2
f 530/11/2 516/11/2 535/11/2
f 516/1/2 531/1/2 536/1/2
f 535/11/2 516/11/2 536/11/2
f 522/1/2 529/1/2 537/1/2
f 529/5/2 535/5/2 537/5/2
f 537/5/2 535/5/2 538/5/2
f 536/1/2 531/1/2 539/1/2
f 539/1/2 531/1/2 540/1/2
f 537/4/2 538/4/2 541/4/2
f 522/1/2 537/1/2 541/1/2
f 538/5/2 539/5/2 542/5/2
f 541/4/2 538/4/2 542/4/2
f 542/5/2 539/5/2 543/5/2
f 522/1/2 541/1/2 545/1/2
f 541/5/2 542/5/2 545/5/2
f 542/4/2 543/4/2 546/4/2
f 545/5/2 542/5/2 546/5/2
f 543/1/2 544/1/2 547/1/2
f 546/4/2 543/4/2 547/4/2
f 547/1/2 544/1/2 548/1/2
f 545/1/2 546/1/2 550/1/2
f 546/4/2 547/4/2 550/4/2
f 547/5/2 548/5/2 551/5/2
f 550/4/2 547/4/2 551/4/2
f 548/5/2 549/5/2 551/5/2
f 551/5/2 549/5/2 552/5/2
f 545/1/2 550/1/2 553/1/2
f 522/1/2 545/1/2 553/1/2
f 551/1/2 552/1/2 553/1/2
f 550/1/2 551/1/2 553/1/2
f 553/1/2 552/1/2 554/1/2
f 554/1/2 552/1/2 555/1/2
f 555/1/2 552/1/2 556/1/2
f 556/1/2 552/1/2 557/1/2
f 522/1/2 553/1/2 558/1/2
f 553/4/2 554/4/2 558/4/2
f 554/5/2 555/5/2 559/5/2
f 558/4/2 554/4/2 559/4/2
f 555/4/2 556/4/2 560/4/2
f 559/5/2 555/5/2 560/5/2
f 556/5/2 557/5/2 561/5/2
f 560/4/2 556/4/2 561/4/2
f 561/5/2 557/5/2 562/5/2
f 522/1/2 558/1/2 563/1/2
f 558/1/2 559/1/2 563/1/2
f 559/5/2 560/5/2 564/5/2
f 563/1/2 559/1/2 564/1/2
f 564/5/2 560/5/2 565/5/2
f 522/1/2 563/1/2 566/1/2
f 563/4/2 564/4/2 566/4/2
f 566/4/2 564/4/2 567/4/2
f 566/5/2 567/5/2 570/5/2
f 522/1/2 566/1/2 570/1/2
f 570/5/2 567/5/2 571/5/2
f 568/1/2 569/1/2 572/1/2
f 572/1/2 569/1/2 573/1/2
f 522/1/2 570/1/2 574/1/2
f 574/1/2 570/1/2 575/1/2
f 576/1/2 577/1/2 578/1/2
f 578/1/2 577/1/2 579/1/2
f 588/6/3 581/6/3 580/6/3
f 589/6/3 581/6/3 588/6/3
f 590/1/3 582/1/3 581/1/3
f 590/6/3 581/6/3 589/6/3
f 591/7/3 583/7/3 582/7/3
f 593/1/3 585/1/3 584/1/3
f 594/1/3 585/1/3 593/1/3
f 595/1/3 585/1/3 594/1/3
f 596/1/3 585/1/3 595/1/3
f 597/1/3 585/1/3 596/1/3
f 598/1/3 585/1/3 597/1/3
f 599/1/3 585/1/3 598/1/3
f 600/9/3 586/9/3 585/9/3
f 600/1/3 585/1/3 599/1/3
f 601/1/3 587/1/3 586/1/3
f 601/9/3 586/9/3 600/9/3
f 602/1/3 587/1/3 601/1/3
f 603/7/3 590/7/3 589/7/3
f 604/1/3 582/1/3 590/1/3
f 604/7/3 590/7/3 603/7/3
f 605/7/3 591/7/3 582/7/3
f 605/1/3 582/1/3 604/1/3
f 606/1/3 592/1/3 591/1/3
f 606/7/3 591/7/3 605/7/3
f 607/1/3 592/1/3 606/1/3
f 608/9/3 595/9/3 594/9/3
f 609/8/3 596/8/3 595/8/3
f 609/9/3 595/9/3 608/9/3
f 610/1/3 597/1/3 596/1/3
f 610/8/3 596/8/3 609/8/3
f 611/1/3 597/1/3 610/1/3
f 612/1/3 599/1/3 598/1/3
f 612/8/3 598/8/3 597/8/3
f 613/8/3 600/8/3 599/8/3
f 613/1/3 599/1/3 612/1/3
f 614/8/3 600/8/3 613/8/3
f 617/1/3 605/1/3 604/1/3
f 618/1/3 605/1/3 617/1/3
f 619/1/3 609/1/3 608/1/3
f 620/9/3 611/9/3 610/9/3
f 620/1/3 609/1/3 619/1/3
f 620/9/3 610/9/3 609/9/3
f 621/8/3 612/8/3 597/8/3
f 621/1/3 597/1/3 611/1/3
f 622/9/3 613/9/3 612/9/3
f 622/8/3 612/8/3 621/8/3
f 623/1/3 614/1/3 613/1/3
f 623/9/3 613/9/3 622/9/3
f 624/1/3 614/1/3 623/1/3
f 627/9/3 611/9/3 620/9/3
f 628/1/3 621/1/3 611/1/3
f 628/9/3 611/9/3 627/9/3
f 629/9/3 622/9/3 621/9/3
f 629/1/3 621/1/3 628/1/3
f 630/9/3 622/9/3 629/9/3
f 633/1/3 616/1/3 615/1/3
f 634/1/3 616/1/3 633/1/3
f 636/1/3 626/1/3 625/1/3
f 637/1/3 636/1/3 635/1/3
f 637/1/3 626/1/3 636/1/3
f 638/1/3 626/1/3 637/1/3
f 639/1/3 632/1/3 631/1/3
f 640/1/3 632/1/3 639/1/3
f 642/1/3 637/1/3 635/1/3
f 643/3/3 638/3/3 637/3/3
f 647/3/3 642/3/3 641/3/3
f 648/1/3 637/1/3 642/1/3
f 648/3/3 642/3/3 647/3/3
f 649/3/3 643/3/3 637/3/3
f 649/1/3 637/1/3 648/1/3
f 650/1/3 644/1/3 643/1/3
f 650/3/3 643/3/3 649/3/3
f 651/1/3 644/1/3 650/1/3
f 657/1/3 646/1/3 645/1/3
f 658/3/3 647/3/3 646/3/3
f 658/1/3 646/1/3 657/1/3
f 659/1/3 648/1/3 647/1/3
f 659/3/3 647/3/3 658/3/3
f 659/1/3 649/1/3 648/1/3
f 660/1/3 649/1/3 659/1/3
f 661/2/3 650/2/3 649/2/3
f 661/3/3 651/3/3 650/3/3
f 662/1/3 652/1/3 651/1/3
f 662/3/3 651/3/3 661/3/3
f 663/1/3 652/1/3 662/1/3
f 664/1/3 654/1/3 653/1/3
f 665/1/3 654/1/3 664/1/3
f 667/1/3 656/1/3 655/1/3
f 668/3/3 657/3/3 656/3/3
f 668/3/3 658/3/3 657/3/3
f 668/1/3 656/1/3 667/1/3
f 669/2/3 659/2/3 658/2/3
f 669/3/3 658/3/3 668/3/3
f 670/3/3 660/3/3 659/3/3
f 670/2/3 659/2/3 669/2/3
f 671/1/3 649/1/3 660/1/3
f 671/3/3 660/3/3 670/3/3
f 672/2/3 661/2/3 649/2/3
f 672/1/3 649/1/3 671/1/3
f 672/2/3 662/2/3 661/2/3
f 673/3/3 663/3/3 662/3/3
f 673/2/3 662/2/3 672/2/3
f 674/3/3 663/3/3 673/3/3
f 675/1/3 667/1/3 666/1/3
f 675/1/3 674/1/3 673/1/3
f 675/1/3 673/1/3 672/1/3
f 675/1/3 672/1/3 671/1/3
f 675/1/3 670/1/3 669/1/3
f 675/1/3 668/1/3 667/1/3
f 675/1/3 669/1/3 668/1/3
f 675/1/3 671/1/3 670/1/3
f 676/1/3 674/1/3 675/1/3
f 677/1/3 674/1/3 676/1/3
f 678/1/3 674/1/3 677/1/3
f 679/1/3 674/1/3 678/1/3
f 680/1/3 674/1/3 679/1/3
f 681/1/3 674/1/3 680/1/3
f 684/3/3 677/3/3 676/3/3
f 685/2/3 678/2/3 677/2/3
f 685/3/3 677/3/3 684/3/3
f 686/2/3 678/2/3 685/2/3
f 687/1/3 679/1/3 678/1/3
f 688/3/3 680/3/3 679/3/3
f 688/1/3 679/1/3 687/1/3
f 689/2/3 681/2/3 680/2/3
f 689/3/3 680/3/3 688/3/3
f 690/2/3 681/2/3 689/2/3
f 691/1/3 683/1/3 682/1/3
f 692/1/3 683/1/3 691/1/3
f 693/3/3 686/3/3 685/3/3
f 694/2/3 678/2/3 686/2/3
f 694/3/3 686/3/3 693/3/3
f 695/1/3 687/1/3 678/1/3
f 695/2/3 678/2/3 694/2/3
f 696/3/3 688/3/3 687/3/3
f 696/2/3 689/2/3 688/2/3
f 697/1/3 690/1/3 689/1/3
f 697/2/3 689/2/3 696/2/3
f 698/1/3 690/1/3 697/1/3
f 699/3/3 696/3/3 687/3/3
f 699/1/3 697/1/3 696/1/3
f 700/3/3 698/3/3 697/3/3
f 700/1/3 697/1/3 699/1/3
f 701/3/3 698/3/3 700/3/3
f 702/1/3 687/1/3 695/1/3
f 702/3/3 699/3/3 687/3/3
f 703/3/3 699/3/3 702/3/3
f 704/1/3 701/1/3 700/1/3
f 705/1/3 701/1/3 704/1/3
f 706/1/3 703/1/3 702/1/3
f 706/1/3 702/1/3 695/1/3
f 707/1/3 703/1/3 706/1/3
f 719/1/3 713/1/3 712/1/3
f 720/1/3 713/1/3 719/1/3
f 721/1/3 715/1/3 714/1/3
f 722/5/3 716/5/3 715/5/3
f 722/1/3 715/1/3 721/1/3
f 723/5/3 716/5/3 722/5/3
f 725/1/3 718/1/3 717/1/3
f 726/1/3 718/1/3 725/1/3
f 727/1/3 711/1/3 710/1/3
f 730/5/3 720/5/3 719/5/3
f 730/5/3 721/5/3 720/5/3
f 731/1/3 722/1/3 721/1/3
f 731/5/3 721/5/3 730/5/3
f 732/4/3 723/4/3 722/4/3
f 732/1/3 722/1/3 731/1/3
f 733/5/3 724/5/3 723/5/3
f 733/4/3 723/4/3 732/4/3
f 734/5/3 724/5/3 733/5/3
f 736/1/3 709/1/3 708/1/3
f 737/1/3 709/1/3 736/1/3
f 739/1/3 727/1/3 710/1/3
f 740/11/3 728/11/3 727/11/3
f 740/1/3 727/1/3 739/1/3
f 741/11/3 728/11/3 740/11/3
f 743/5/3 730/5/3 729/5/3
f 744/4/3 731/4/3 730/4/3
f 744/5/3 730/5/3 743/5/3
f 745/1/3 732/1/3 731/1/3
f 745/4/3 731/4/3 744/4/3
f 745/1/3 733/1/3 732/1/3
f 746/5/3 735/5/3 734/5/3
f 746/1/3 733/1/3 745/1/3
f 746/5/3 734/5/3 733/5/3
f 747/5/3 735/5/3 746/5/3
f 749/11/3 739/11/3 738/11/3
f 750/1/3 740/1/3 739/1/3
f 750/11/3 739/11/3 749/11/3
f 751/10/3 741/10/3 740/10/3
f 751/1/3 740/1/3 750/1/3
f 752/11/3 742/11/3 741/11/3
f 752/10/3 741/10/3 751/10/3
f 753/1/3 745/1/3 744/1/3
f 753/11/3 742/11/3 752/11/3
f 753/1/3 744/1/3 743/1/3
f 753/1/3 747/1/3 746/1/3
f 753/1/3 746/1/3 745/1/3
f 753/1/3 748/1/3 747/1/3
f 753/1/3 743/1/3 742/1/3
f 754/1/3 748/1/3 753/1/3
f 758/7/3 756/7/3 755/7/3
f 759/6/3 757/6/3 756/6/3
f 759/7/3 756/7/3 758/7/3
f 760/6/3 757/6/3 759/6/3
f 763/7/3 762/7/3 761/7/3
f 764/7/3 762/7/3 763/7/3
f 771/11/3 766/11/3 765/11/3
f 772/11/3 766/11/3 771/11/3
f 773/11/3 768/11/3 767/11/3
f 774/11/3 768/11/3 773/11/3
f 775/1/3 770/1/3 769/1/3
f 776/1/3 770/1/3 775/1/3
f 781/1/3 778/1/3 777/1/3
f 782/1/3 778/1/3 781/1/3
f 783/1/3 780/1/3 779/1/3
f 784/1/3 780/1/3 783/1/3
f 789/1/3 786/1/3 785/1/3
f 790/1/3 786/1/3 789/1/3
f 791/1/3 788/1/3 787/1/3
f 792/1/3 788/1/3 791/1/3
f 795/1/3 794/1/3 793/1/3
f 796/1/3 794/1/3 795/1/3
f 799/1/3 798/1/3 797/1/3
f 800/1/3 798/1/3 799/1/3
f 801/1/4 802/1/4 811/1/4
f 811/1/4 802/1/4 812/1/4
f 803/9/4 804/9/4 820/9/4
f 804/1/4 805/1/4 821/1/4
f 820/9/4 804/9/4 821/9/4
f 821/1/4 805/1/4 822/1/4
f 806/7/4 807/7/4 823/7/4
f 807/1/4 808/1/4 824/1/4
f 823/7/4 807/7/4 824/7/4
f 808/7/4 809/7/4 825/7/4
f 824/1/4 808/1/4 825/1/4
f 809/1/4 810/1/4 826/1/4
f 825/7/4 809/7/4 826/7/4
f 826/1/4 810/1/4 827/1/4
f 812/9/4 813/9/4 828/9/4
f 813/9/4 814/9/4 828/9/4
f 814/8/4 815/8/4 829/8/4
f 828/9/4 814/9/4 829/9/4
f 815/1/4 816/1/4 830/1/4
f 829/8/4 815/8/4 830/8/4
f 816/1/4 817/1/4 830/1/4
f 830/1/4 817/1/4 831/1/4
f 818/1/4 819/1/4 832/1/4
f 817/8/4 818/8/4 832/8/4
f 819/8/4 820/8/4 833/8/4
f 832/1/4 819/1/4 833/1/4
f 833/8/4 820/8/4 834/8/4
f 824/1/4 825/1/4 837/1/4
f 837/1/4 825/1/4 838/1/4
f 828/1/4 829/1/4 839/1/4
f 830/9/4 831/9/4 840/9/4
f 839/1/4 829/1/4 840/1/4
f 829/9/4 830/9/4 840/9/4
f 831/1/4 817/1/4 841/1/4
f 817/8/4 832/8/4 841/8/4
f 832/9/4 833/9/4 842/9/4
f 841/8/4 832/8/4 842/8/4
f 833/1/4 834/1/4 843/1/4
f 842/9/4 833/9/4 843/9/4
f 843/1/4 834/1/4 844/1/4
f 840/9/4 831/9/4 847/9/4
f 831/1/4 841/1/4 848/1/4
f 847/9/4 831/9/4 848/9/4
f 841/9/4 842/9/4 849/9/4
f 848/1/4 841/1/4 849/1/4
f 849/9/4 842/9/4 850/9/4
f 835/1/4 836/1/4 853/1/4
f 853/1/4 836/1/4 854/1/4
f 845/1/4 846/1/4 856/1/4
f 855/1/4 856/1/4 857/1/4
f 856/1/4 846/1/4 857/1/4
f 857/1/4 846/1/4 858/1/4
f 851/1/4 852/1/4 859/1/4
f 859/1/4 852/1/4 860/1/4
f 855/1/4 857/1/4 862/1/4
f 857/3/4 858/3/4 863/3/4
f 861/3/4 862/3/4 867/3/4
f 862/1/4 857/1/4 868/1/4
f 867/3/4 862/3/4 868/3/4
f 857/3/4 863/3/4 869/3/4
f 868/1/4 857/1/4 869/1/4
f 863/1/4 864/1/4 870/1/4
f 869/3/4 863/3/4 870/3/4
f 870/1/4 864/1/4 871/1/4
f 865/1/4 866/1/4 877/1/4
f 866/3/4 867/3/4 878/3/4
f 877/1/4 866/1/4 878/1/4
f 867/1/4 868/1/4 879/1/4
f 878/3/4 867/3/4 879/3/4
f 868/1/4 869/1/4 879/1/4
f 879/1/4 869/1/4 880/1/4
f 869/2/4 870/2/4 881/2/4
f 870/3/4 871/3/4 881/3/4
f 871/1/4 872/1/4 882/1/4
f 881/3/4 871/3/4 882/3/4
f 882/1/4 872/1/4 883/1/4
f 873/1/4 874/1/4 884/1/4
f 884/1/4 874/1/4 885/1/4
f 875/1/4 876/1/4 887/1/4
f 876/3/4 877/3/4 888/3/4
f 877/3/4 878/3/4 888/3/4
f 887/1/4 876/1/4 888/1/4
f 878/2/4 879/2/4 889/2/4
f 888/3/4 878/3/4 889/3/4
f 879/3/4 880/3/4 890/3/4
f 889/2/4 879/2/4 890/2/4
f 880/1/4 869/1/4 891/1/4
f 890/3/4 880/3/4 891/3/4
f 869/2/4 881/2/4 892/2/4
f 891/1/4 869/1/4 892/1/4
f 881/2/4 882/2/4 892/2/4
f 892/2/4 882/2/4 893/2/4
f 886/1/4 887/1/4 894/1/4
f 892/1/4 893/1/4 894/1/4
f 891/1/4 892/1/4 894/1/4
f 889/1/4 890/1/4 894/1/4
f 887/1/4 888/1/4 894/1/4
f 888/1/4 889/1/4 894/1/4
f 890/1/4 891/1/4 894/1/4
f 894/1/4 893/1/4 895/1/4
f 895/1/4 893/1/4 896/1/4
f 896/1/4 893/1/4 897/1/4
f 897/1/4 893/1/4 898/1/4
f 898/1/4 893/1/4 899/1/4
f 895/3/4 896/3/4 903/3/4
f 896/2/4 897/2/4 904/2/4
f 903/3/4 896/3/4 904/3/4
f 904/2/4 897/2/4 905/2/4
f 897/1/4 898/1/4 906/1/4
f 898/3/4 899/3/4 907/3/4
f 906/1/4 898/1/4 907/1/4
f 899/2/4 900/2/4 908/2/4
f 907/3/4 899/3/4 908/3/4
f 908/2/4 900/2/4 909/2/4
f 901/1/4 902/1/4 910/1/4
f 910/1/4 902/1/4 911/1/4
f 904/3/4 905/3/4 912/3/4
f 905/2/4 897/2/4 913/2/4
f 912/3/4 905/3/4 913/3/4
f 897/1/4 906/1/4 914/1/4
f 913/2/4 897/2/4 914/2/4
f 906/3/4 907/3/4 915/3/4
f 907/2/4 908/2/4 915/2/4
f 908/1/4 909/1/4 916/1/4
f 915/2/4 908/2/4 916/2/4
f 916/1/4 909/1/4 917/1/4
f 906/3/4 915/3/4 918/3/4
f 915/1/4 916/1/4 918/1/4
f 916/3/4 917/3/4 919/3/4
f 918/1/4 916/1/4 919/1/4
f 919/3/4 917/3/4 920/3/4
f 914/1/4 906/1/4 921/1/4
f 906/3/4 918/3/4 921/3/4
f 921/3/4 918/3/4 922/3/4
f 919/1/4 920/1/4 923/1/4
f 923/1/4 920/1/4 924/1/4
f 921/1/4 922/1/4 925/1/4
f 914/1/4 921/1/4 925/1/4
f 925/1/4 922/1/4 926/1/4
f 931/1/4 932/1/4 938/1/4
f 938/1/4 932/1/4 939/1/4
f 933/1/4 934/1/4 940/1/4
f 934/5/4 935/5/4 941/5/4
f 940/1/4 934/1/4 941/1/4
f 941/5/4 935/5/4 942/5/4
f 936/1/4 937/1/4 944/1/4
f 944/1/4 937/1/4 945/1/4
f 929/1/4 930/1/4 946/1/4
f 938/5/4 939/5/4 949/5/4
f 939/5/4 940/5/4 949/5/4
f 940/1/4 941/1/4 950/1/4
f 949/5/4 940/5/4 950/5/4
f 941/4/4 942/4/4 951/4/4
f 950/1/4 941/1/4 951/1/4
f 942/5/4 943/5/4 952/5/4
f 951/4/4 942/4/4 952/4/4
f 952/5/4 943/5/4 953/5/4
f 927/1/4 928/1/4 955/1/4
f 955/1/4 928/1/4 956/1/4
f 929/1/4 946/1/4 957/1/4
f 946/11/4 947/11/4 958/11/4
f 957/1/4 946/1/4 958/1/4
f 958/11/4 947/11/4 959/11/4
f 948/5/4 949/5/4 962/5/4
f 962/5/4 949/5/4 963/5/4
f 949/4/4 950/4/4 964/4/4
f 963/5/4 949/5/4 964/5/4
f 964/4/4 950/4/4 965/4/4
f 950/1/4 951/1/4 966/1/4
f 965/4/4 950/4/4 966/4/4
f 951/1/4 952/1/4 966/1/4
f 966/1/4 952/1/4 967/1/4
f 953/5/4 954/5/4 968/5/4
f 967/1/4 952/1/4 968/1/4
f 952/5/4 953/5/4 968/5/4
f 968/5/4 954/5/4 969/5/4
f 969/5/4 954/5/4 970/5/4
f 960/1/4 961/1/4 973/1/4
f 973/1/4 961/1/4 974/1/4
f 971/1/4 972/1/4 975/1/4
f 975/1/4 972/1/4 976/1/4
f 977/9/4 978/9/4 981/9/4
f 981/9/4 978/9/4 982/9/4
f 979/8/4 980/8/4 983/8/4
f 983/8/4 980/8/4 984/8/4
f 985/1/4 986/1/4 987/1/4
f 987/1/4 986/1/4 988/1/4
f 989/5/4 990/5/4 994/5/4
f 994/5/4 990/5/4 995/5/4
f 991/4/4 992/4/4 996/4/4
f 992/5/4 993/5/4 997/5/4
f 996/4/4 992/4/4 997/4/4
f 997/5/4 993/5/4 998/5/4
f 999/1/4 1000/1/4 1002/1/4
f 1000/9/4 1001/9/4 1003/9/4
f 1002/1/4 1000/1/4 1003/1/4
f 1003/9/4 1001/9/4 1004/9/4
f 1005/1/4 1006/1/4 1007/1/4
f 1007/1/4 1006/1/4 1008/1/4
f 1009/5/4 1010/5/4 1013/5/4
f 1013/5/4 1010/5/4 1014/5/4
f 1011/5/4 1012/5/4 1015/5/4
f 1015/5/4 1012/5/4 1016/5/4
f 1017/1/4 1018/1/4 1024/1/4
f 1024/1/4 1018/1/4 1025/1/4
f 1019/9/4 1020/9/4 1026/9/4
f 1020/1/4 1021/1/4 1027/1/4
f 1026/9/4 1020/9/4 1027/9/4
f 1021/9/4 1022/9/4 1028/9/4
f 1027/1/4 1021/1/4 1028/1/4
f 1022/1/4 1023/1/4 1029/1/4
f 1028/9/4 1022/9/4 1029/9/4
f 1029/1/4 1023/1/4 1030/1/4
f 1031/1/4 1032/1/4 1039/1/4
f 1039/1/4 1032/1/4 1040/1/4
f 1033/1/4 1034/1/4 1041/1/4
f 1041/1/4 1034/1/4 1042/1/4
f 1035/1/4 1036/1/4 1043/1/4
f 1043/1/4 1036/1/4 1044/1/4
f 1037/1/4 1038/1/4 1045/1/4
f 1045/1/4 1038/1/4 1046/1/4
f 1047/7/4 1048/7/4 1053/7/4
f 1053/7/4 1048/7/4 1054/7/4
f 1049/7/4 1050/7/4 1055/7/4
f 1055/7/4 1050/7/4 1056/7/4
f 1051/1/4 1052/1/4 1057/1/4
f 1057/1/4 1052/1/4 1058/1/4
f 1059/5/4 1060/5/4 1063/5/4
f 1060/1/4 1061/1/4 1064/1/4
f 1063/5/4 1060/5/4 1064/5/4
f 1061/5/4 1062/5/4 1065/5/4
f 1064/1/4 1061/1/4 1065/1/4
f 1065/5/4 1062/5/4 1066/5/4
f 1067/1/4 1068/1/4 1069/1/4
f 1069/1/4 1068/1/4 1070/1/4
f 1071/11/4 1072/11/4 1074/11/4
f 1072/10/4 1073/10/4 1075/10/4
f 1074/11/4 1072/11/4 1075/11/4
f 1075/10/4 1073/10/4 1076/10/4
f 1077/7/4 1078/7/4 1079/7/4
f 1079/7/4 1078/7/4 1080/7/4
f 1081/11/4 1082/11/4 1086/11/4
f 1086/11/4 1082/11/4 1087/11/4
f 1083/1/4 1084/1/4 1088/1/4
f 1084/11/4 1085/11/4 1089/11/4
f 1088/1/4 1084/1/4 1089/1/4
f 1089/11/4 1085/11/4 1090/11/4
f 1091/1/4 1092/1/4 1096/1/4
f 1092/7/4 1093/7/4 1097/7/4
f 1096/1/4 1092/1/4 1097/1/4
f 1097/7/4 1093/7/4 1098/7/4
f 1094/7/4 1095/7/4 1099/7/4
f 1099/7/4 1095/7/4 1100/7/4
f 1101/1/4 1102/1/4 1105/1/4
f 1105/1/4 1102/1/4 1106/1/4
f 1103/11/4 1104/11/4 1107/11/4
f 1107/11/4 1104/11/4 1108/11/4
f 1109/1/4 1110/1/4 1111/1/4
f 1111/1/4 1110/1/4 1112/1/4
f 1113/1/4 1114/1/4 1115/1/4
f 1115/1/4 1114/1/4 1116/1/4
f 1119/1/5 1118/1/5 1117/1/5
f 1120/1/5 1118/1/5 1119/1/5
f 1125/7/5 1122/7/5 1121/7/5
f 1126/7/5 1122/7/5 1125/7/5
f 1127/11/5 1124/11/5 1123/11/5
f 1128/11/5 1124/11/5 1127/11/5
f 1129/1/5 1126/1/5 1125/1/5
f 1130/1/5 1126/1/5 1129/1/5
f 1131/1/5 1128/1/5 1127/1/5
f 1132/1/5 1128/1/5 1131/1/5
f 1133/7/5 1130/7/5 1129/7/5
f 1134/7/5 1130/7/5 1133/7/5
f 1135/11/5 1132/11/5 1131/11/5
f 1136/11/5 1132/11/5 1135/11/5
f 1143/6/5 1138/6/5 1137/6/5
f 1144/6/5 1138/6/5 1143/6/5
f 1145/1/5 1140/1/5 1139/1/5
f 1146/1/5 1140/1/5 1145/1/5
f 1147/11/5 1142/11/5 1141/11/5
f 1148/11/5 1142/11/5 1147/11/5
f 1149/7/5 1144/7/5 1143/7/5
f 1150/7/5 1144/7/5 1149/7/5
f 1151/10/5 1148/10/5 1147/10/5
f 1152/10/5 1148/10/5 1151/10/5
f 1155/7/5 1154/7/5 1153/7/5
f 1156/7/5 1154/7/5 1155/7/5
f 1159/1/5 1156/1/5 1155/1/5
f 1160/1/5 1156/1/5 1159/1/5
f 1161/1/5 1158/1/5 1157/1/5
f 1162/1/5 1158/1/5 1161/1/5
f 1165/7/5 1164/7/5 1163/7/5
f 1166/7/5 1164/7/5 1165/7/5
f 1169/11/5 1168/11/5 1167/11/5
f 1170/11/5 1168/11/5 1169/11/5
f 1175/1/5 1172/1/5 1171/1/5
f 1176/1/5 1172/1/5 1175/1/5
f 1177/1/5 1174/1/5 1173/1/5
f 1178/1/5 1174/1/5 1177/1/5
f 1183/1/5 1182/1/5 1181/1/5
f 1184/1/5 1182/1/5 1183/1/5
f 1185/1/5 1180/1/5 1179/1/5
f 1186/1/5 1180/1/5 1185/1/5
f 1189/1/5 1188/1/5 1187/1/5
f 1190/1/5 1188/1/5 1189/1/5
f 1193/5/5 1192/5/5 1191/5/5
f 1194/5/5 1192/5/5 1193/5/5
f 1203/9/5 1196/9/5 1195/9/5
f 1204/1/5 1197/1/5 1196/1/5
f 1204/9/5 1196/9/5 1203/9/5
f 1205/1/5 1197/1/5 1204/1/5
f 1206/1/5 1199/1/5 1198/1/5
f 1207/1/5 1199/1/5 1206/1/5
f 1208/5/5 1201/5/5 1200/5/5
f 1209/5/5 1201/5/5 1208/5/5
f 1210/9/5 1203/9/5 1202/9/5
f 1211/9/5 1203/9/5 1210/9/5
f 1216/1/5 1213/1/5 1212/1/5
f 1217/1/5 1213/1/5 1216/1/5
f 1218/5/5 1215/5/5 1214/5/5
f 1219/5/5 1215/5/5 1218/5/5
f 1227/9/5 1221/9/5 1220/9/5
f 1228/9/5 1221/9/5 1227/9/5
f 1229/1/5 1223/1/5 1222/1/5
f 1230/1/5 1223/1/5 1229/1/5
f 1231/1/5 1225/1/5 1224/1/5
f 1232/5/5 1226/5/5 1225/5/5
f 1232/1/5 1225/1/5 1231/1/5
f 1233/5/5 1226/5/5 1232/5/5
f 1238/1/5 1235/1/5 1234/1/5
f 1239/1/5 1235/1/5 1238/1/5
f 1240/1/5 1237/1/5 1236/1/5
f 1241/1/5 1237/1/5 1240/1/5
f 1244/1/5 1243/1/5 1242/1/5
f 1245/1/5 1243/1/5 1244/1/5
f 1248/9/5 1247/9/5 1246/9/5
f 1249/9/5 1247/9/5 1248/9/5
f 1252/5/5 1251/5/5 1250/5/5
f 1253/5/5 1251/5/5 1252/5/5
f 1258/1/5 1255/1/5 1254/1/5
f 1259/1/5 1255/1/5 1258/1/5
f 1260/1/5 1257/1/5 1256/1/5
f 1261/1/5 1257/1/5 1260/1/5
f 1264/3/5 1263/3/5 1262/3/5
f 1265/3/5 1263/3/5 1264/3/5
f 1268/1/5 1267/1/5 1266/1/5
f 1269/1/5 1267/1/5 1268/1/5
f 1272/3/5 1271/3/5 1270/3/5
f 1273/3/5 1271/3/5 1272/3/5
f 1276/3/5 1275/3/5 1274/3/5
f 1277/3/5 1275/3/5 1276/3/5
f 1280/1/5 1279/1/5 1278/1/5
f 1281/1/5 1279/1/5 1280/1/5
f 1286/1/5 1283/1/5 1282/1/5
f 1287/1/5 1283/1/5 1286/1/5
f 1288/1/5 1285/1/5 1284/1/5
f 1289/1/5 1285/1/5 1288/1/5
f 1292/1/5 1291/1/5 1290/1/5
f 1293/1/5 1291/1/5 1292/1/5
f 1300/1/5 1295/1/5 1294/1/5
f 1301/1/5 1295/1/5 1300/1/5
f 1305/1/5 1297/1/5 1296/1/5
f 1306/1/5 1297/1/5 1305/1/5
f 1307/1/5 1299/1/5 1298/1/5
f 1308/1/5 1299/1/5 1307/1/5
f 1309/1/5 1304/1/5 1303/1/5
f 1309/1/5 1303/1/5 1302/1/5
f 1310/1/5 1304/1/5 1309/1/5
f 1313/1/5 1304/1/5 1310/1/5
f 1314/1/5 1304/1/5 1313/1/5
f 1315/1/5 1312/1/5 1311/1/5
f 1316/1/5 1312/1/5 1315/1/5
f 1317/1/6 1318/1/6 1319/1/6
f 1319/1/6 1318/1/6 1320/1/6
f 1321/1/6 1322/1/6 1323/1/6
f 1323/1/6 1322/1/6 1324/1/6
f 1325/1/6 1326/1/6 1327/1/6
f 1327/1/6 1326/1/6 1328/1/6
f 1329/1/6 1330/1/6 1333/1/6
f 1333/1/6 1330/1/6 1334/1/6
f 1331/1/6 1332/1/6 1335/1/6
f 1335/1/6 1332/1/6 1336/1/6
f 1337/1/6 1338/1/6 1341/1/6
f 1341/1/6 1338/1/6 1342/1/6
f 1339/1/6 1340/1/6 1343/1/6
f 1343/1/6 1340/1/6 1344/1/6
f 1345/7/6 1346/7/6 1349/7/6
f 1349/7/6 1346/7/6 1350/7/6
f 1347/11/6 1348/11/6 1351/11/6
f 1351/11/6 1348/11/6 1352/11/6
f 1353/7/6 1354/7/6 1357/7/6
f 1357/7/6 1354/7/6 1358/7/6
f 1355/11/6 1356/11/6 1359/11/6
f 1359/11/6 1356/11/6 1360/11/6
f 1361/1/6 1362/1/6 1363/1/6
f 1363/1/6 1362/1/6 1364/1/6
f 1365/10/6 1366/10/6 1367/10/6
f 1367/10/6 1366/10/6 1368/10/6
f 1369/7/6 1370/7/6 1371/7/6
f 1371/7/6 1370/7/6 1372/7/6
f 1373/6/6 1374/6/6 1375/6/6
f 1375/6/6 1374/6/6 1376/6/6
f 1375/7/6 1376/7/6 1377/7/6
f 1377/7/6 1376/7/6 1378/7/6
f 1379/11/6 1380/11/6 1383/11/6
f 1383/11/6 1380/11/6 1384/11/6
f 1381/1/6 1382/1/6 1385/1/6
f 1385/1/6 1382/1/6 1386/1/6
f 1383/1/6 1384/1/6 1387/1/6
f 1387/1/6 1384/1/6 1388/1/6
f 1387/11/6 1388/11/6 1389/11/6
f 1389/11/6 1388/11/6 1390/11/6
f 1391/11/6 1392/11/6 1393/11/6
f 1393/11/6 1392/11/6 1394/11/6
f 1395/7/6 1396/7/6 1397/7/6
f 1397/7/6 1396/7/6 1398/7/6
f 1399/1/6 1400/1/6 1401/1/6
f 1401/1/6 1400/1/6 1402/1/6
f 1403/1/6 1404/1/6 1407/1/6
f 1407/1/6 1404/1/6 1408/1/6
f 1405/1/6 1406/1/6 1409/1/6
f 1409/1/6 1406/1/6 1410/1/6
f 1411/1/6 1412/1/6 1413/1/6
f 1413/1/6 1412/1/6 1414/1/6
f 1415/1/6 1416/1/6 1417/1/6
f 1417/1/6 1416/1/6 1418/1/6
f 1419/1/6 1420/1/6 1421/1/6
f 1421/1/6 1420/1/6 1422/1/6
f 1423/9/6 1424/9/6 1427/9/6
f 1427/9/6 1424/9/6 1428/9/6
f 1425/5/6 1426/5/6 1429/5/6
f 1429/5/6 1426/5/6 1430/5/6
f 1431/4/6 1432/4/6 1433/4/6
f 1433/4/6 1432/4/6 1434/4/6
f 1433/5/6 1434/5/6 1435/5/6
f 1435/5/6 1434/5/6 1436/5/6
f 1437/5/6 1438/5/6 1439/5/6
f 1439/5/6 1438/5/6 1440/5/6
f 1441/9/6 1442/9/6 1445/9/6
f 1445/9/6 1442/9/6 1446/9/6
f 1443/5/6 1444/5/6 1447/5/6
f 1447/5/6 1444/5/6 1448/5/6
f 1449/8/6 1450/8/6 1455/8/6
f 1450/1/6 1451/1/6 1456/1/6
f 1455/8/6 1450/8/6 1456/8/6
f 1456/1/6 1451/1/6 1457/1/6
f 1452/5/6 1453/5/6 1458/5/6
f 1458/5/6 1453/5/6 1459/5/6
f 1454/8/6 1455/8/6 1460/8/6
f 1460/8/6 1455/8/6 1461/8/6
f 1462/1/6 1463/1/6 1464/1/6
f 1464/1/6 1463/1/6 1465/1/6
f 1466/5/6 1467/5/6 1468/5/6
f 1468/5/6 1467/5/6 1469/5/6
f 1470/1/6 1471/1/6 1472/1/6
f 1472/1/6 1471/1/6 1473/1/6
f 1474/1/6 1475/1/6 1484/1/6
f 1484/1/6 1475/1/6 1485/1/6
f 1476/1/6 1477/1/6 1486/1/6
f 1477/3/6 1478/3/6 1487/3/6
f 1486/1/6 1477/1/6 1487/1/6
f 1487/3/6 1478/3/6 1488/3/6
f 1479/3/6 1480/3/6 1489/3/6
f 1480/1/6 1481/1/6 1490/1/6
f 1489/3/6 1480/3/6 1490/3/6
f 1490/1/6 1481/1/6 1491/1/6
f 1482/1/6 1483/1/6 1492/1/6
f 1492/1/6 1483/1/6 1493/1/6
f 1494/1/6 1495/1/6 1496/1/6
f 1496/1/6 1495/1/6 1497/1/6
f 1498/1/6 1499/1/6 1510/1/6
f 1510/1/6 1499/1/6 1511/1/6
f 1500/1/6 1501/1/6 1512/1/6
f 1501/3/6 1502/3/6 1513/3/6
f 1512/1/6 1501/1/6 1513/1/6
f 1502/1/6 1503/1/6 1514/1/6
f 1513/3/6 1502/3/6 1514/3/6
f 1503/2/6 1504/2/6 1515/2/6
f 1514/1/6 1503/1/6 1515/1/6
f 1504/1/6 1505/1/6 1516/1/6
f 1515/2/6 1504/2/6 1516/2/6
f 1505/3/6 1506/3/6 1517/3/6
f 1516/1/6 1505/1/6 1517/1/6
f 1506/1/6 1507/1/6 1518/1/6
f 1517/3/6 1506/3/6 1518/3/6
f 1518/1/6 1507/1/6 1519/1/6
f 1508/1/6 1509/1/6 1520/1/6
f 1520/1/6 1509/1/6 1521/1/6
f 1513/1/6 1514/1/6 1522/1/6
f 1514/1/6 1515/1/6 1522/1/6
f 1522/1/6 1515/1/6 1523/1/6
f 1523/1/6 1515/1/6 1526/1/6
f 1526/1/6 1515/1/6 1527/1/6
f 1524/1/6 1525/1/6 1528/1/6
f 1528/1/6 1525/1/6 1529/1/6
