# MagicaVoxel @ Ephtracy

# group
o 

# material
mtllib model-1.mtl
usemtl palette

# normals
vn 0 0 1
vn 0 0 -1
vn 1 0 0
vn -1 0 0
vn 0 -1 0
vn 0 1 0

# texcoords
vt 0.0253906 0.5
vt 0.572266 0.5

# verts
v 0.5 0.6 1
v -0.5 0.6 1
v 0.5 1.4 1
v -0.5 1.4 1
v 0.5 2.1 1
v -0.5 2.1 1
v 0.5 2 -0.3
v 0.4 2 -0.3
v 0.5 2.1 -0.3
v 0.4 2.1 -0.3
v 0.4 2 -0.4
v -0.4 2 -0.4
v 0.4 2.1 -0.4
v -0.4 2.1 -0.4
v 0.4 2 0.4
v -0.4 2 0.4
v 0.4 2.1 0.4
v -0.4 2.1 0.4
v 0.5 2 0.3
v 0.4 2 0.3
v 0.5 2.1 0.3
v 0.4 2.1 0.3
v 0.5 0.6 -1
v -0.5 0.6 -1
v 0.5 1.4 -1
v -0.5 1.4 -1
v 0.5 2.1 -1
v -0.5 2.1 -1
v 0.5 0.6 1
v 0.5 1.4 1
v 0.5 2.1 1
v 0.5 1.4 0.9
v 0.5 1.5 0.9
v 0.5 1.5 0.8
v 0.5 1.6 0.8
v 0.5 1.6 0.7
v 0.5 1.7 0.7
v 0.5 1.2 0.6
v 0.5 1.5 0.6
v 0.5 1.7 0.6
v 0.5 1.8 0.6
v 0.5 1.1 0.5
v 0.5 1.2 0.5
v 0.5 1.5 0.5
v 0.5 1.6 0.5
v 0.5 1 0.4
v 0.5 1.1 0.4
v 0.5 0.9 0.3
v 0.5 1 0.3
v 0.5 2 0.3
v 0.5 2.1 0.3
v 0.5 0.8 0.2
v 0.5 0.9 0.2
v 0.5 1.5 0.2
v 0.5 1.6 0.2
v 0.5 0.7 0.1
v 0.5 0.8 0.1
v 0.5 1.4 0.1
v 0.5 1.5 0.1
v 0.5 0.7 -0.1
v 0.5 0.8 -0.1
v 0.5 1.4 -0.1
v 0.5 1.5 -0.1
v 0.5 0.8 -0.2
v 0.5 0.9 -0.2
v 0.5 1.5 -0.2
v 0.5 1.6 -0.2
v 0.5 0.9 -0.3
v 0.5 1 -0.3
v 0.5 1.4 -0.3
v 0.5 1.5 -0.3
v 0.5 2 -0.3
v 0.5 2.1 -0.3
v 0.5 1 -0.4
v 0.5 1.1 -0.4
v 0.5 1.3 -0.4
v 0.5 1.4 -0.4
v 0.5 1.5 -0.4
v 0.5 1.1 -0.5
v 0.5 1.2 -0.5
v 0.5 1.3 -0.5
v 0.5 1.4 -0.5
v 0.5 1.5 -0.5
v 0.5 1.6 -0.5
v 0.5 1.2 -0.6
v 0.5 1.5 -0.6
v 0.5 1.7 -0.6
v 0.5 1.8 -0.6
v 0.5 1.6 -0.7
v 0.5 1.7 -0.7
v 0.5 1.5 -0.8
v 0.5 1.6 -0.8
v 0.5 1.4 -0.9
v 0.5 1.5 -0.9
v 0.5 0.6 -1
v 0.5 1.4 -1
v 0.5 2.1 -1
v -0.4 2 0.4
v -0.4 2.1 0.4
v -0.4 2 -0.4
v -0.4 2.1 -0.4
v 0.4 2 0.4
v 0.4 2.1 0.4
v 0.4 2 0.3
v 0.4 2.1 0.3
v 0.4 2 -0.3
v 0.4 2.1 -0.3
v 0.4 2 -0.4
v 0.4 2.1 -0.4
v -0.5 0.6 1
v -0.5 1.4 1
v -0.5 2.1 1
v -0.5 1.4 0.9
v -0.5 1.5 0.9
v -0.5 1.5 0.8
v -0.5 1.6 0.8
v -0.5 1.6 0.7
v -0.5 1.7 0.7
v -0.5 1.7 0.6
v -0.5 1.8 0.6
v -0.5 1.7 -0.6
v -0.5 1.8 -0.6
v -0.5 1.6 -0.7
v -0.5 1.7 -0.7
v -0.5 1.5 -0.8
v -0.5 1.6 -0.8
v -0.5 1.4 -0.9
v -0.5 1.5 -0.9
v -0.5 0.6 -1
v -0.5 1.4 -1
v -0.5 2.1 -1
v 0.5 0.6 1
v 0.5 0.6 -1
v -0.5 0.6 1
v -0.5 0.6 -1
v 0.5 2 0.3
v 0.5 2 -0.3
v 0.4 2 0.4
v 0.4 2 0.3
v 0.4 2 -0.3
v 0.4 2 -0.4
v -0.4 2 0.4
v -0.4 2 -0.4
v 0.5 2.1 1
v 0.5 2.1 0.3
v 0.5 2.1 -0.3
v 0.5 2.1 -1
v 0.4 2.1 0.4
v 0.4 2.1 0.3
v 0.4 2.1 -0.3
v 0.4 2.1 -0.4
v -0.4 2.1 0.4
v -0.4 2.1 -0.4
v -0.5 2.1 1
v -0.5 2.1 -1

# faces
f 3/1/1 2/1/1 1/1/1
f 4/1/1 2/1/1 3/1/1
f 5/2/1 4/2/1 3/2/1
f 6/2/1 4/2/1 5/2/1
f 9/2/1 8/2/1 7/2/1
f 10/2/1 8/2/1 9/2/1
f 13/2/1 12/2/1 11/2/1
f 14/2/1 12/2/1 13/2/1
f 15/2/2 16/2/2 17/2/2
f 17/2/2 16/2/2 18/2/2
f 19/2/2 20/2/2 21/2/2
f 21/2/2 20/2/2 22/2/2
f 23/1/2 24/1/2 25/1/2
f 25/1/2 24/1/2 26/1/2
f 25/2/2 26/2/2 27/2/2
f 27/2/2 26/2/2 28/2/2
f 32/1/3 30/1/3 29/1/3
f 32/2/3 31/2/3 30/2/3
f 33/2/3 31/2/3 32/2/3
f 34/1/3 33/1/3 32/1/3
f 34/2/3 31/2/3 33/2/3
f 35/2/3 31/2/3 34/2/3
f 36/1/3 35/1/3 34/1/3
f 36/2/3 31/2/3 35/2/3
f 37/2/3 31/2/3 36/2/3
f 38/1/3 32/1/3 29/1/3
f 38/1/3 34/1/3 32/1/3
f 38/1/3 37/1/3 36/1/3
f 38/1/3 36/1/3 34/1/3
f 39/1/3 37/1/3 38/1/3
f 40/2/3 31/2/3 37/2/3
f 40/1/3 37/1/3 39/1/3
f 41/2/3 31/2/3 40/2/3
f 42/1/3 38/1/3 29/1/3
f 43/2/3 39/2/3 38/2/3
f 43/1/3 38/1/3 42/1/3
f 44/1/3 40/1/3 39/1/3
f 44/2/3 39/2/3 43/2/3
f 44/1/3 41/1/3 40/1/3
f 45/1/3 41/1/3 44/1/3
f 46/1/3 42/1/3 29/1/3
f 47/2/3 43/2/3 42/2/3
f 47/1/3 42/1/3 46/1/3
f 47/2/3 44/2/3 43/2/3
f 47/2/3 45/2/3 44/2/3
f 48/1/3 46/1/3 29/1/3
f 49/2/3 47/2/3 46/2/3
f 49/1/3 46/1/3 48/1/3
f 50/2/3 31/2/3 41/2/3
f 51/2/3 31/2/3 50/2/3
f 52/1/3 48/1/3 29/1/3
f 53/2/3 49/2/3 48/2/3
f 53/1/3 48/1/3 52/1/3
f 54/2/3 47/2/3 49/2/3
f 54/2/3 49/2/3 53/2/3
f 54/2/3 45/2/3 47/2/3
f 55/1/3 41/1/3 45/1/3
f 55/2/3 45/2/3 54/2/3
f 56/1/3 52/1/3 29/1/3
f 57/2/3 54/2/3 53/2/3
f 57/1/3 52/1/3 56/1/3
f 57/2/3 53/2/3 52/2/3
f 58/2/3 54/2/3 57/2/3
f 59/1/3 55/1/3 54/1/3
f 59/2/3 54/2/3 58/2/3
f 60/1/3 56/1/3 29/1/3
f 60/2/3 58/2/3 57/2/3
f 60/2/3 57/2/3 56/2/3
f 61/2/3 58/2/3 60/2/3
f 62/1/3 59/1/3 58/1/3
f 62/2/3 58/2/3 61/2/3
f 63/1/3 55/1/3 59/1/3
f 63/1/3 59/1/3 62/1/3
f 64/2/3 62/2/3 61/2/3
f 64/1/3 61/1/3 60/1/3
f 64/2/3 63/2/3 62/2/3
f 65/2/3 63/2/3 64/2/3
f 66/1/3 55/1/3 63/1/3
f 66/2/3 63/2/3 65/2/3
f 67/1/3 41/1/3 55/1/3
f 67/1/3 55/1/3 66/1/3
f 68/1/3 65/1/3 64/1/3
f 68/2/3 66/2/3 65/2/3
f 68/2/3 67/2/3 66/2/3
f 69/2/3 67/2/3 68/2/3
f 70/2/3 67/2/3 69/2/3
f 71/2/3 67/2/3 70/2/3
f 72/2/3 50/2/3 41/2/3
f 74/1/3 69/1/3 68/1/3
f 74/2/3 70/2/3 69/2/3
f 75/2/3 70/2/3 74/2/3
f 76/2/3 70/2/3 75/2/3
f 77/1/3 71/1/3 70/1/3
f 77/2/3 70/2/3 76/2/3
f 78/2/3 67/2/3 71/2/3
f 78/1/3 71/1/3 77/1/3
f 79/2/3 76/2/3 75/2/3
f 79/1/3 75/1/3 74/1/3
f 80/2/3 76/2/3 79/2/3
f 81/1/3 77/1/3 76/1/3
f 81/2/3 76/2/3 80/2/3
f 82/2/3 78/2/3 77/2/3
f 82/1/3 77/1/3 81/1/3
f 83/2/3 67/2/3 78/2/3
f 83/2/3 78/2/3 82/2/3
f 84/1/3 41/1/3 67/1/3
f 84/2/3 67/2/3 83/2/3
f 85/2/3 83/2/3 82/2/3
f 85/1/3 80/1/3 79/1/3
f 85/2/3 82/2/3 81/2/3
f 85/2/3 81/2/3 80/2/3
f 86/1/3 84/1/3 83/1/3
f 86/2/3 83/2/3 85/2/3
f 87/1/3 41/1/3 84/1/3
f 87/1/3 84/1/3 86/1/3
f 88/2/3 73/2/3 72/2/3
f 88/1/3 41/1/3 87/1/3
f 88/2/3 72/2/3 41/2/3
f 89/1/3 86/1/3 85/1/3
f 89/1/3 87/1/3 86/1/3
f 90/2/3 88/2/3 87/2/3
f 90/1/3 87/1/3 89/1/3
f 91/1/3 89/1/3 85/1/3
f 92/2/3 90/2/3 89/2/3
f 92/1/3 89/1/3 91/1/3
f 93/1/3 91/1/3 85/1/3
f 94/2/3 92/2/3 91/2/3
f 94/1/3 91/1/3 93/1/3
f 95/1/3 60/1/3 29/1/3
f 95/1/3 85/1/3 79/1/3
f 95/1/3 64/1/3 60/1/3
f 95/1/3 93/1/3 85/1/3
f 95/1/3 68/1/3 64/1/3
f 95/1/3 79/1/3 74/1/3
f 95/1/3 74/1/3 68/1/3
f 96/2/3 94/2/3 93/2/3
f 96/1/3 93/1/3 95/1/3
f 97/2/3 73/2/3 88/2/3
f 97/2/3 94/2/3 96/2/3
f 97/2/3 92/2/3 94/2/3
f 97/2/3 88/2/3 90/2/3
f 97/2/3 90/2/3 92/2/3
f 100/2/3 99/2/3 98/2/3
f 101/2/3 99/2/3 100/2/3
f 102/2/4 103/2/4 104/2/4
f 104/2/4 103/2/4 105/2/4
f 106/2/4 107/2/4 108/2/4
f 108/2/4 107/2/4 109/2/4
f 110/1/4 111/1/4 113/1/4
f 111/2/4 112/2/4 113/2/4
f 113/2/4 112/2/4 114/2/4
f 113/1/4 114/1/4 115/1/4
f 114/2/4 112/2/4 115/2/4
f 115/2/4 112/2/4 116/2/4
f 115/1/4 116/1/4 117/1/4
f 116/2/4 112/2/4 117/2/4
f 117/2/4 112/2/4 118/2/4
f 117/1/4 118/1/4 119/1/4
f 118/2/4 112/2/4 119/2/4
f 119/2/4 112/2/4 120/2/4
f 117/1/4 119/1/4 121/1/4
f 119/1/4 120/1/4 121/1/4
f 120/2/4 112/2/4 122/2/4
f 121/1/4 120/1/4 122/1/4
f 115/1/4 117/1/4 123/1/4
f 117/1/4 121/1/4 123/1/4
f 121/2/4 122/2/4 124/2/4
f 123/1/4 121/1/4 124/1/4
f 113/1/4 115/1/4 125/1/4
f 115/1/4 123/1/4 125/1/4
f 123/2/4 124/2/4 126/2/4
f 125/1/4 123/1/4 126/1/4
f 110/1/4 113/1/4 127/1/4
f 113/1/4 125/1/4 127/1/4
f 125/2/4 126/2/4 128/2/4
f 127/1/4 125/1/4 128/1/4
f 110/1/4 127/1/4 129/1/4
f 127/2/4 128/2/4 130/2/4
f 129/1/4 127/1/4 130/1/4
f 126/2/4 124/2/4 131/2/4
f 130/2/4 128/2/4 131/2/4
f 124/2/4 122/2/4 131/2/4
f 122/2/4 112/2/4 131/2/4
f 128/2/4 126/2/4 131/2/4
f 134/1/5 133/1/5 132/1/5
f 135/1/5 133/1/5 134/1/5
f 136/2/6 137/2/6 139/2/6
f 139/2/6 137/2/6 140/2/6
f 138/2/6 139/2/6 142/2/6
f 140/2/6 141/2/6 142/2/6
f 139/2/6 140/2/6 142/2/6
f 142/2/6 141/2/6 143/2/6
f 144/2/6 145/2/6 148/2/6
f 148/2/6 145/2/6 149/2/6
f 146/2/6 147/2/6 150/2/6
f 150/2/6 147/2/6 151/2/6
f 144/2/6 148/2/6 152/2/6
f 151/2/6 147/2/6 153/2/6
f 144/2/6 152/2/6 154/2/6
f 152/2/6 153/2/6 154/2/6
f 153/2/6 147/2/6 155/2/6
f 154/2/6 153/2/6 155/2/6
