# MagicaVoxel @ Ephtracy

# group
o 

# material
mtllib model-0.mtl
usemtl palette

# normals
vn -1 0 0
vn 1 0 0
vn 0 0 1
vn 0 0 -1
vn 0 -1 0
vn 0 1 0

# texcoords
vt 0.263672 0.5
vt 0.564453 0.5
vt 0.568359 0.5
vt 0.814453 0.5

# verts
v -1.8 5.7 1.8
v -1.8 5.7 -1.8
v -1.8 6 1.8
v -1.8 6 -1.8
v -1.6 5.7 2
v -1.6 5.7 1.8
v -1.6 5.7 -1.8
v -1.6 5.7 -2
v -1.6 6 2
v -1.6 6 1.8
v -1.6 6 -1.8
v -1.6 6 -2
v -1.1 6 1.1
v -1.1 6 -0.5
v -1.1 6 -0.6
v -1.1 6 -1.1
v -1.1 6.2 1.1
v -1.1 6.2 -1.1
v -1 6.2 1
v -1 6.2 0.8
v -1 6.2 0.7
v -1 6.2 0.2
v -1 6.2 0.0999999
v -1 6.2 -1
v -1 6.4 0.9
v -1 6.4 0.8
v -1 6.4 0.7
v -1 6.4 0.5
v -1 6.4 -0.1
v -1 6.4 -0.2
v -1 6.5 0.9
v -1 6.5 0.8
v -1 6.5 0.7
v -1 6.5 0.5
v -1 6.6 0.4
v -1 6.6 0.2
v -1 6.6 0.0999999
v -1 6.6 -0.1
v -1 6.6 -0.2
v -1 6.6 -0.4
v -1 6.7 0.4
v -1 6.7 0.2
v -1 6.7 0.0999999
v -1 6.7 -0.1
v -1 6.7 -0.2
v -1 6.7 -0.4
v -1 6.8 0.8
v -1 6.8 0.7
v -1 6.9 0.2
v -1 6.9 0.0999999
v -1 7.1 -0.1
v -1 7.1 -0.2
v -1 7.3 1
v -1 7.3 -1
v -0.9 6 1.3
v -0.9 6 1.1
v -0.9 6 -1.1
v -0.9 6 -1.3
v -0.9 6.2 1.3
v -0.9 6.2 1.1
v -0.9 6.2 -1.1
v -0.9 6.2 -1.3
v -0.8 6.2 1.2
v -0.8 6.2 1
v -0.8 6.2 -1
v -0.8 6.2 -1.2
v -0.8 7.3 1.2
v -0.8 7.3 1
v -0.8 7.3 -1
v -0.8 7.3 -1.2
v -0.8 7.5 1.3
v -0.8 7.5 1.1
v -0.8 7.7 1.3
v -0.8 7.7 1.1
v -0.7 7.2 1.3
v -0.7 7.2 1.2
v -0.7 7.3 1.2
v -0.7 7.3 1.1
v -0.7 7.4 1.3
v -0.7 7.4 1.1
v -0.6 6.9 1.3
v -0.6 6.9 1.2
v -0.6 7 1.2
v -0.6 7.1 1.3
v -0.6 7.1 1.2
v -0.5 6.6 1.3
v -0.5 6.6 1.2
v -0.5 6.8 1.3
v -0.5 6.8 1.2
v -0.5 7.4 1.3
v -0.5 7.4 1.1
v -0.5 7.5 1.3
v -0.5 7.5 1.1
v -0.4 7.1 1.3
v -0.4 7.1 1.2
v -0.4 7.2 1.3
v -0.4 7.2 1.2
v -0.4 7.8 1.4
v -0.4 7.8 1.2
v -0.4 8 1.4
v -0.4 8 1.2
v -0.3 6.2 1.3
v -0.3 6.2 1.2
v -0.3 6.5 1.3
v -0.3 6.5 1.2
v -0.3 7.5 1.4
v -0.3 7.5 1.3
v -0.3 7.7 1.4
v -0.3 7.7 1.3
v -0.2 6.8 1.3
v -0.2 6.8 1.2
v -0.2 6.9 1.3
v -0.2 6.9 1.2
v -0.2 7.2 1.4
v -0.2 7.2 1.3
v -0.2 7.4 1.4
v -0.2 7.4 1.3
v -0.1 6.5 1.3
v -0.1 6.5 1.2
v -0.1 6.6 1.3
v -0.1 6.6 1.2
v -0.1 6.9 1.4
v -0.1 6.9 1.3
v -0.1 7.1 1.4
v -0.1 7.1 1.3
v -0.1 7.7 1.4
v -0.1 7.7 1.2
v -0.1 7.8 1.4
v -0.1 7.8 1.2
v -1.19209e-07 7.4 1.4
v -1.19209e-07 7.4 1.2
v -1.19209e-07 7.5 1.4
v -1.19209e-07 7.5 1.2
v 0.0999999 6.5 1.4
v 0.0999999 6.5 1.3
v 0.0999999 6.8 1.4
v 0.0999999 6.8 1.3
v 0.2 6.2 1.3
v 0.2 6.2 1.2
v 0.2 6.5 1.3
v 0.2 6.5 1.2
v 0.2 6.8 1.3
v 0.2 6.8 1.2
v 0.2 6.9 1.3
v 0.2 6.9 1.2
v 0.2 7.1 1.4
v 0.2 7.1 1.2
v 0.2 7.2 1.4
v 0.2 7.2 1.2
v 0.3 6 1.4
v 0.3 6 1.3
v 0.3 6.5 1.4
v 0.3 6.5 1.3
v 0.3 6.8 1.4
v 0.3 6.8 1.3
v 0.3 6.9 1.4
v 0.3 6.9 1.3
v 0.6 7.3 1.3
v 0.6 7.3 1.2
v 0.6 7.3 1.1
v 0.6 7.5 1.3
v 0.6 7.5 1.1
v -0.3 7.5 1.2
v -0.3 7.5 1.1
v -0.3 7.7 1.2
v -0.3 7.7 1.1
v -0.1 7.3 1.2
v -0.1 7.3 1.1
v -0.1 7.4 1.3
v -0.1 7.4 1.2
v -0.1 7.5 1.3
v -0.1 7.5 1.2
v -0.1 7.5 1.1
v 0.0999999 6.2 1.3
v 0.0999999 6.2 1.2
v 0.0999999 6.5 1.3
v 0.0999999 6.5 1.2
v 0.0999999 6.8 1.3
v 0.0999999 6.8 1.2
v 0.0999999 6.9 1.3
v 0.0999999 6.9 1.2
v 0.0999999 7.1 1.3
v 0.0999999 7.1 1.2
v 0.0999999 7.2 1.3
v 0.0999999 7.2 1.2
v 0.0999999 7.8 1.4
v 0.0999999 7.8 1.2
v 0.0999999 8 1.4
v 0.0999999 8 1.2
v 0.3 7.5 1.4
v 0.3 7.5 1.2
v 0.3 7.8 1.4
v 0.3 7.8 1.2
v 0.5 6 1.4
v 0.5 6 1.3
v 0.5 7.3 1.3
v 0.5 7.3 1.2
v 0.5 7.5 1.4
v 0.5 7.5 1.2
v 0.6 6.2 1.3
v 0.6 6.2 1.2
v 0.6 6.4 1.3
v 0.6 6.4 1.2
v 0.6 6.6 1.3
v 0.6 6.6 1.2
v 0.6 6.7 1.3
v 0.6 6.7 1.2
v 0.7 6.9 1.3
v 0.7 6.9 1.2
v 0.7 7 1.3
v 0.7 7 1.2
v 0.8 6.2 1.2
v 0.8 6.2 1
v 0.8 6.2 -1
v 0.8 6.2 -1.2
v 0.8 6.4 1.3
v 0.8 6.4 1.2
v 0.8 6.4 1.1
v 0.8 6.6 1.3
v 0.8 6.6 1.2
v 0.8 6.6 1.1
v 0.8 6.7 1.2
v 0.8 6.7 1.1
v 0.8 6.9 1.2
v 0.8 6.9 1.1
v 0.8 7 1.2
v 0.8 7 1.1
v 0.8 7.2 1.3
v 0.8 7.2 1.1
v 0.8 7.3 1.3
v 0.8 7.3 1.1
v 0.8 7.3 1
v 0.8 7.3 -1
v 0.8 7.3 -1.2
v 0.9 6 1.3
v 0.9 6 1.1
v 0.9 6 -1.1
v 0.9 6 -1.2
v 0.9 6 -1.3
v 0.9 6.2 1.3
v 0.9 6.2 1.1
v 0.9 6.2 -1.1
v 0.9 6.2 -1.3
v 0.9 6.7 1.3
v 0.9 6.7 1.1
v 0.9 6.9 1.3
v 0.9 6.9 1.1
v 1 6.2 1
v 1 6.2 0.6
v 1 6.2 0.5
v 1 6.2 -0.3
v 1 6.2 -0.4
v 1 6.2 -1
v 1 6.3 0.3
v 1 6.3 0.2
v 1 6.4 -0.2
v 1 6.4 -0.3
v 1 6.4 -0.4
v 1 6.4 -0.6
v 1 6.5 0.8
v 1 6.5 0.6
v 1 6.5 0.5
v 1 6.5 0.3
v 1 6.5 0.2
v 1 6.5 0.0999999
v 1 6.5 -0.2
v 1 6.5 -0.3
v 1 6.5 -0.4
v 1 6.5 -0.6
v 1 6.6 0.8
v 1 6.6 0.6
v 1 6.6 0.5
v 1 6.6 0.3
v 1 6.6 0.2
v 1 6.6 0.0999999
v 1 6.7 -0.3
v 1 6.7 -0.4
v 1 6.8 0.7
v 1 6.8 0.6
v 1 6.8 0.5
v 1 6.8 0.3
v 1 6.8 0.2
v 1 6.8 -2.38419e-07
v 1 6.9 0.7
v 1 6.9 0.6
v 1 6.9 0.5
v 1 6.9 0.3
v 1 6.9 0.2
v 1 6.9 -2.38419e-07
v 1 7 1.3
v 1 7 1.1
v 1 7.1 0.6
v 1 7.1 0.5
v 1 7.2 1.3
v 1 7.2 1.1
v 1 7.2 0.3
v 1 7.2 0.2
v 1 7.3 1
v 1 7.3 -1
v 1.1 6 1.1
v 1.1 6 -0.9
v 1.1 6 -1.1
v 1.1 6.2 1.1
v 1.1 6.2 -1.1
v 1.1 7.3 1.3
v 1.1 7.3 1.1
v 1.1 7.5 1.3
v 1.1 7.5 1.1
v 1.6 5.7 2
v 1.6 5.7 1.8
v 1.6 5.7 -1.8
v 1.6 5.7 -2
v 1.6 6 2
v 1.6 6 1.8
v 1.6 6 -1.8
v 1.6 6 -2
v 1.8 5.7 1.8
v 1.8 5.7 -1.8
v 1.8 6 1.8
v 1.8 6 -1.8
v -1.6 5.7 2
v -1.6 6 2
v 1.6 5.7 2
v 1.6 6 2
v -1.8 5.7 1.8
v -1.8 6 1.8
v -1.6 5.7 1.8
v -1.6 6 1.8
v 1.6 5.7 1.8
v 1.6 6 1.8
v 1.8 5.7 1.8
v 1.8 6 1.8
v -0.4 7.8 1.4
v -0.4 8 1.4
v -0.3 7.5 1.4
v -0.3 7.7 1.4
v -0.2 7.2 1.4
v -0.2 7.4 1.4
v -0.1 6.9 1.4
v -0.1 7.1 1.4
v -0.1 7.7 1.4
v -0.1 7.8 1.4
v -1.19209e-07 7.4 1.4
v -1.19209e-07 7.5 1.4
v 0.0999999 6.5 1.4
v 0.0999999 6.8 1.4
v 0.0999999 7.8 1.4
v 0.0999999 8 1.4
v 0.2 7.1 1.4
v 0.2 7.2 1.4
v 0.3 6 1.4
v 0.3 6.5 1.4
v 0.3 6.8 1.4
v 0.3 6.9 1.4
v 0.3 7.5 1.4
v 0.3 7.8 1.4
v 0.5 6 1.4
v 0.5 7.5 1.4
v -0.9 6 1.3
v -0.9 6.2 1.3
v -0.8 7.5 1.3
v -0.8 7.7 1.3
v -0.7 7.2 1.3
v -0.7 7.4 1.3
v -0.6 6.9 1.3
v -0.6 7.1 1.3
v -0.5 6.6 1.3
v -0.5 6.8 1.3
v -0.5 7.4 1.3
v -0.5 7.5 1.3
v -0.4 7.1 1.3
v -0.4 7.2 1.3
v -0.3 6.2 1.3
v -0.3 6.5 1.3
v -0.3 7.5 1.3
v -0.3 7.7 1.3
v -0.2 6.8 1.3
v -0.2 6.9 1.3
v -0.2 7.2 1.3
v -0.2 7.4 1.3
v -0.1 6 1.3
v -0.1 6.2 1.3
v -0.1 6.5 1.3
v -0.1 6.6 1.3
v -0.1 6.9 1.3
v -0.1 7.1 1.3
v -0.1 7.4 1.3
v -0.1 7.5 1.3
v 0.0999999 6 1.3
v 0.0999999 6.2 1.3
v 0.0999999 6.5 1.3
v 0.0999999 6.8 1.3
v 0.0999999 6.9 1.3
v 0.0999999 7.1 1.3
v 0.0999999 7.2 1.3
v 0.2 6 1.3
v 0.2 6.2 1.3
v 0.2 6.5 1.3
v 0.2 6.8 1.3
v 0.2 6.9 1.3
v 0.3 6 1.3
v 0.3 6.5 1.3
v 0.3 6.8 1.3
v 0.3 6.9 1.3
v 0.5 6 1.3
v 0.5 7.3 1.3
v 0.6 6 1.3
v 0.6 6.2 1.3
v 0.6 6.4 1.3
v 0.6 6.6 1.3
v 0.6 6.7 1.3
v 0.6 7.3 1.3
v 0.6 7.5 1.3
v 0.7 6.9 1.3
v 0.7 7 1.3
v 0.8 6.4 1.3
v 0.8 6.6 1.3
v 0.8 7.2 1.3
v 0.8 7.3 1.3
v 0.9 6 1.3
v 0.9 6.2 1.3
v 0.9 6.7 1.3
v 0.9 6.9 1.3
v 1 7 1.3
v 1 7.2 1.3
v 1.1 7.3 1.3
v 1.1 7.5 1.3
v -0.8 6.2 1.2
v -0.8 7.3 1.2
v -0.7 7 1.2
v -0.7 7.1 1.2
v -0.7 7.2 1.2
v -0.7 7.3 1.2
v -0.6 6.9 1.2
v -0.6 7 1.2
v -0.6 7.1 1.2
v -0.5 6.6 1.2
v -0.5 6.8 1.2
v -0.4 7.1 1.2
v -0.4 7.2 1.2
v -0.3 6.2 1.2
v -0.3 6.5 1.2
v -0.2 6.5 1.2
v -0.2 6.6 1.2
v -0.2 6.8 1.2
v -0.2 6.9 1.2
v -0.1 6.5 1.2
v -0.1 6.6 1.2
v 0.0999999 6.2 1.2
v 0.0999999 6.5 1.2
v 0.0999999 6.8 1.2
v 0.0999999 6.9 1.2
v 0.0999999 7.1 1.2
v 0.0999999 7.2 1.2
v 0.2 6.2 1.2
v 0.2 6.5 1.2
v 0.2 6.8 1.2
v 0.2 6.9 1.2
v 0.2 7.1 1.2
v 0.2 7.2 1.2
v 0.6 6.2 1.2
v 0.6 6.4 1.2
v 0.6 6.6 1.2
v 0.6 6.7 1.2
v 0.7 6.9 1.2
v 0.7 7 1.2
v 0.8 6.2 1.2
v 0.8 6.4 1.2
v 0.8 6.6 1.2
v 0.8 6.7 1.2
v 0.8 6.9 1.2
v 0.8 7 1.2
v -1.1 6 1.1
v -1.1 6.2 1.1
v -0.9 6 1.1
v -0.9 6.2 1.1
v 0.9 6 1.1
v 0.9 6.2 1.1
v 1.1 6 1.1
v 1.1 6.2 1.1
v -1 6.2 1
v -1 7.3 1
v -0.8 6.2 1
v -0.8 7.3 1
v 0.8 6.2 1
v 0.8 7.3 1
v 1 6.2 1
v 1 7.3 1
v -0.4 7.8 1.2
v -0.4 8 1.2
v -0.3 7.5 1.2
v -0.3 7.7 1.2
v -0.1 7.3 1.2
v -0.1 7.4 1.2
v -0.1 7.5 1.2
v -0.1 7.7 1.2
v -0.1 7.8 1.2
v -1.19209e-07 7.4 1.2
v -1.19209e-07 7.5 1.2
v 0.0999999 7.8 1.2
v 0.0999999 8 1.2
v 0.3 7.5 1.2
v 0.3 7.8 1.2
v 0.5 7.3 1.2
v 0.5 7.5 1.2
v -0.8 7.5 1.1
v -0.8 7.7 1.1
v -0.7 7.3 1.1
v -0.7 7.4 1.1
v -0.5 7.4 1.1
v -0.5 7.5 1.1
v -0.3 7.5 1.1
v -0.3 7.7 1.1
v -0.1 7.3 1.1
v -0.1 7.5 1.1
v 0.6 7.3 1.1
v 0.6 7.5 1.1
v 0.8 6.7 1.1
v 0.8 6.9 1.1
v 0.8 7 1.1
v 0.8 7.2 1.1
v 0.8 7.3 1.1
v 0.9 6.7 1.1
v 0.9 6.9 1.1
v 1 7 1.1
v 1 7.2 1.1
v 1.1 7.3 1.1
v 1.1 7.5 1.1
v -1 6.2 -1
v -1 7.3 -1
v -0.8 6.2 -1
v -0.8 7.3 -1
v 0.8 6.2 -1
v 0.8 7.3 -1
v 1 6.2 -1
v 1 7.3 -1
v -1.1 6 -1.1
v -1.1 6.2 -1.1
v -0.9 6 -1.1
v -0.9 6.2 -1.1
v 0.9 6 -1.1
v 0.9 6.2 -1.1
v 1.1 6 -1.1
v 1.1 6.2 -1.1
v -0.8 6.2 -1.2
v -0.8 7.3 -1.2
v -0.3 6.5 -1.2
v -0.3 6.6 -1.2
v -0.1 6.2 -1.2
v -0.1 6.5 -1.2
v -0.1 6.6 -1.2
v -0.1 6.8 -1.2
v -1.19209e-07 6.2 -1.2
v -1.19209e-07 6.5 -1.2
v -1.19209e-07 6.6 -1.2
v -1.19209e-07 6.8 -1.2
v 0.2 6.4 -1.2
v 0.2 6.5 -1.2
v 0.2 6.6 -1.2
v 0.2 6.9 -1.2
v 0.3 6.4 -1.2
v 0.3 6.5 -1.2
v 0.3 6.6 -1.2
v 0.3 6.9 -1.2
v 0.4 6.5 -1.2
v 0.4 6.6 -1.2
v 0.8 6.2 -1.2
v 0.8 7.3 -1.2
v -0.9 6 -1.3
v -0.9 6.2 -1.3
v -0.5 6 -1.3
v -0.4 6 -1.3
v 0.9 6 -1.3
v 0.9 6.2 -1.3
v -1.8 5.7 -1.8
v -1.8 6 -1.8
v -1.6 5.7 -1.8
v -1.6 6 -1.8
v 1.6 5.7 -1.8
v 1.6 6 -1.8
v 1.8 5.7 -1.8
v 1.8 6 -1.8
v -1.6 5.7 -2
v -1.6 6 -2
v 1.6 5.7 -2
v 1.6 6 -2
v -1.6 5.7 2
v 1.6 5.7 2
v -1.8 5.7 1.8
v -1.6 5.7 1.8
v 1.6 5.7 1.8
v 1.8 5.7 1.8
v -1.8 5.7 -1.8
v -1.6 5.7 -1.8
v 1.6 5.7 -1.8
v 1.8 5.7 -1.8
v -1.6 5.7 -2
v 1.6 5.7 -2
v 0.6 6.4 1.3
v 0.8 6.4 1.3
v 0.6 6.4 1.2
v 0.8 6.4 1.2
v 0.0999999 6.5 1.4
v 0.3 6.5 1.4
v 0.0999999 6.5 1.3
v 0.2 6.5 1.3
v 0.3 6.5 1.3
v 0.0999999 6.5 1.2
v 0.2 6.5 1.2
v -0.5 6.6 1.3
v -0.1 6.6 1.3
v -0.5 6.6 1.2
v -0.2 6.6 1.2
v -0.1 6.6 1.2
v 0.6 6.7 1.3
v 0.9 6.7 1.3
v 0.6 6.7 1.2
v 0.8 6.7 1.2
v 0.8 6.7 1.1
v 0.9 6.7 1.1
v -0.1 6.9 1.4
v 0.3 6.9 1.4
v -0.6 6.9 1.3
v -0.2 6.9 1.3
v -0.1 6.9 1.3
v 0.0999999 6.9 1.3
v 0.2 6.9 1.3
v 0.3 6.9 1.3
v -0.6 6.9 1.2
v -0.2 6.9 1.2
v 0.0999999 6.9 1.2
v 0.2 6.9 1.2
v 0.7 7 1.3
v 1 7 1.3
v 0.7 7 1.2
v 0.8 7 1.2
v 0.8 7 1.1
v 1 7 1.1
v -0.2 7.2 1.4
v 0.2 7.2 1.4
v -0.7 7.2 1.3
v -0.4 7.2 1.3
v -0.2 7.2 1.3
v 0.0999999 7.2 1.3
v -0.7 7.2 1.2
v -0.4 7.2 1.2
v 0.0999999 7.2 1.2
v 0.2 7.2 1.2
v 0.8 7.3 1.3
v 1.1 7.3 1.3
v 0.8 7.3 1.1
v 1.1 7.3 1.1
v -0.3 7.5 1.4
v -1.19209e-07 7.5 1.4
v -0.8 7.5 1.3
v -0.5 7.5 1.3
v -0.3 7.5 1.3
v -0.1 7.5 1.3
v -0.1 7.5 1.2
v -1.19209e-07 7.5 1.2
v -0.8 7.5 1.1
v -0.5 7.5 1.1
v -0.4 7.8 1.4
v -0.1 7.8 1.4
v -0.4 7.8 1.2
v -0.1 7.8 1.2
v -1.6 6 2
v 1.6 6 2
v -1.8 6 1.8
v -1.6 6 1.8
v -1.1 6 1.8
v -1 6 1.8
v 1.1 6 1.8
v 1.2 6 1.8
v 1.6 6 1.8
v 1.8 6 1.8
v -1.3 6 1.7
v -1.1 6 1.7
v -1 6 1.7
v -0.7 6 1.7
v -1.3 6 1.6
v -1.1 6 1.6
v -1 6 1.6
v -0.7 6 1.6
v 0.9 6 1.6
v 1.1 6 1.6
v 1.2 6 1.6
v 1.4 6 1.6
v 0.9 6 1.5
v 1.1 6 1.5
v 1.2 6 1.5
v 1.4 6 1.5
v 0.3 6 1.4
v 0.5 6 1.4
v 1 6 1.4
v 1.1 6 1.4
v 1.2 6 1.4
v 1.5 6 1.4
v -1.1 6 1.3
v -1 6 1.3
v -0.9 6 1.3
v -0.1 6 1.3
v 0.0999999 6 1.3
v 0.2 6 1.3
v 0.3 6 1.3
v 0.5 6 1.3
v 0.6 6 1.3
v 0.9 6 1.3
v 1 6 1.3
v 1.5 6 1.3
v 1.1 6 1.2
v 1.6 6 1.2
v -1.1 6 1.1
v -0.9 6 1.1
v 0.9 6 1.1
v 1.1 6 1.1
v 1.6 6 1.1
v -1.4 6 -0.1
v -1.3 6 -0.1
v -1.7 6 -0.3
v -1.4 6 -0.3
v -1.3 6 -0.3
v -1.2 6 -0.3
v -1.7 6 -0.4
v -1.4 6 -0.4
v -1.3 6 -0.4
v -1.2 6 -0.4
v -1.6 6 -0.5
v -1.4 6 -0.5
v -1.3 6 -0.5
v -1.1 6 -0.5
v -1.6 6 -0.6
v -1.4 6 -0.6
v -1.3 6 -0.6
v -1.1 6 -0.6
v -1.4 6 -0.8
v -1.3 6 -0.8
v 1.1 6 -0.9
v 1.2 6 -0.9
v 1.4 6 -0.9
v 1.5 6 -0.9
v -1.1 6 -1.1
v -0.9 6 -1.1
v 0.9 6 -1.1
v 1.1 6 -1.1
v 1.2 6 -1.1
v 1.4 6 -1.1
v 1.5 6 -1.1
v 1.7 6 -1.1
v 0.9 6 -1.2
v 1.1 6 -1.2
v 1.2 6 -1.2
v 1.4 6 -1.2
v 1.5 6 -1.2
v 1.7 6 -1.2
v -0.9 6 -1.3
v -0.5 6 -1.3
v -0.4 6 -1.3
v 0.9 6 -1.3
v -0.8 6 -1.4
v -0.5 6 -1.4
v -0.4 6 -1.4
v -0.2 6 -1.4
v 0.9 6 -1.4
v 1.1 6 -1.4
v 1.2 6 -1.4
v 1.4 6 -1.4
v 1.5 6 -1.4
v 1.7 6 -1.4
v -0.8 6 -1.5
v -0.5 6 -1.5
v -0.4 6 -1.5
v -0.2 6 -1.5
v 0.9 6 -1.5
v 1.1 6 -1.5
v 1.2 6 -1.5
v 1.4 6 -1.5
v 1.5 6 -1.5
v 1.7 6 -1.5
v -0.9 6 -1.6
v -0.5 6 -1.6
v -0.4 6 -1.6
v -0.3 6 -1.6
v -0.9 6 -1.7
v -0.5 6 -1.7
v -0.4 6 -1.7
v -0.3 6 -1.7
v 1.1 6 -1.7
v 1.2 6 -1.7
v 1.4 6 -1.7
v 1.5 6 -1.7
v -1.8 6 -1.8
v -1.6 6 -1.8
v 1.6 6 -1.8
v 1.8 6 -1.8
v -0.5 6 -1.9
v -0.4 6 -1.9
v -1.6 6 -2
v 1.6 6 -2
v -0.9 6.2 1.3
v -0.3 6.2 1.3
v 0.0999999 6.2 1.3
v 0.2 6.2 1.3
v 0.6 6.2 1.3
v 0.9 6.2 1.3
v -0.8 6.2 1.2
v -0.3 6.2 1.2
v 0.0999999 6.2 1.2
v 0.2 6.2 1.2
v 0.6 6.2 1.2
v 0.8 6.2 1.2
v -1.1 6.2 1.1
v -0.9 6.2 1.1
v 0.9 6.2 1.1
v 1.1 6.2 1.1
v -1 6.2 1
v -0.8 6.2 1
v 0.8 6.2 1
v 1 6.2 1
v -1 6.2 0.8
v -1 6.2 0.7
v 1 6.2 0.6
v 1 6.2 0.5
v -1 6.2 0.2
v -1 6.2 0.0999999
v 1 6.2 -0.3
v 1 6.2 -0.4
v -1 6.2 -1
v -0.8 6.2 -1
v 0.8 6.2 -1
v 1 6.2 -1
v -1.1 6.2 -1.1
v -0.9 6.2 -1.1
v 0.9 6.2 -1.1
v 1.1 6.2 -1.1
v -0.8 6.2 -1.2
v -0.1 6.2 -1.2
v -1.19209e-07 6.2 -1.2
v 0.8 6.2 -1.2
v -0.9 6.2 -1.3
v 0.9 6.2 -1.3
v -0.3 6.5 1.3
v -0.1 6.5 1.3
v -0.3 6.5 1.2
v -0.2 6.5 1.2
v -0.1 6.5 1.2
v 0.6 6.6 1.3
v 0.8 6.6 1.3
v 0.6 6.6 1.2
v 0.8 6.6 1.2
v 0.0999999 6.8 1.4
v 0.3 6.8 1.4
v -0.5 6.8 1.3
v -0.2 6.8 1.3
v 0.0999999 6.8 1.3
v 0.2 6.8 1.3
v 0.3 6.8 1.3
v -0.5 6.8 1.2
v -0.2 6.8 1.2
v 0.0999999 6.8 1.2
v 0.2 6.8 1.2
v 0.7 6.9 1.3
v 0.9 6.9 1.3
v 0.7 6.9 1.2
v 0.8 6.9 1.2
v 0.8 6.9 1.1
v 0.9 6.9 1.1
v -0.1 7.1 1.4
v 0.2 7.1 1.4
v -0.6 7.1 1.3
v -0.4 7.1 1.3
v -0.1 7.1 1.3
v 0.0999999 7.1 1.3
v -0.6 7.1 1.2
v -0.4 7.1 1.2
v 0.0999999 7.1 1.2
v 0.2 7.1 1.2
v 0.8 7.2 1.3
v 1 7.2 1.3
v 0.8 7.2 1.1
v 1 7.2 1.1
v 0.5 7.3 1.3
v 0.6 7.3 1.3
v -0.8 7.3 1.2
v -0.7 7.3 1.2
v -0.1 7.3 1.2
v 0.5 7.3 1.2
v 0.6 7.3 1.2
v -0.7 7.3 1.1
v -0.1 7.3 1.1
v 0.6 7.3 1.1
v 0.8 7.3 1.1
v -1 7.3 1
v -0.8 7.3 1
v 0.8 7.3 1
v 1 7.3 1
v -0.3 7.3 0.8
v -0.2 7.3 0.8
v -0.6 7.3 0.6
v -0.5 7.3 0.6
v -0.7 7.3 0.4
v -0.6 7.3 0.4
v -0.5 7.3 0.4
v -0.3 7.3 0.4
v -0.2 7.3 0.4
v 0.0999999 7.3 0.4
v -0.7 7.3 0.3
v -0.6 7.3 0.3
v -0.5 7.3 0.3
v -0.3 7.3 0.3
v -0.2 7.3 0.3
v 0.0999999 7.3 0.3
v -0.6 7.3 0.0999999
v -0.5 7.3 0.0999999
v -0.3 7.3 0.0999999
v -0.2 7.3 0.0999999
v 0.3 7.3 -0.4
v 0.4 7.3 -0.4
v -1.19209e-07 7.3 -0.6
v 0.3 7.3 -0.6
v 0.4 7.3 -0.6
v 0.6 7.3 -0.6
v -1.19209e-07 7.3 -0.7
v 0.3 7.3 -0.7
v 0.4 7.3 -0.7
v 0.6 7.3 -0.7
v 0.3 7.3 -0.9
v 0.4 7.3 -0.9
v -1 7.3 -1
v -0.8 7.3 -1
v 0.8 7.3 -1
v 1 7.3 -1
v -0.8 7.3 -1.2
v 0.8 7.3 -1.2
v -0.2 7.4 1.4
v -1.19209e-07 7.4 1.4
v -0.7 7.4 1.3
v -0.5 7.4 1.3
v -0.2 7.4 1.3
v -0.1 7.4 1.3
v -0.1 7.4 1.2
v -1.19209e-07 7.4 1.2
v -0.7 7.4 1.1
v -0.5 7.4 1.1
v 0.3 7.5 1.4
v 0.5 7.5 1.4
v 0.6 7.5 1.3
v 1.1 7.5 1.3
v -0.3 7.5 1.2
v -0.1 7.5 1.2
v 0.3 7.5 1.2
v 0.5 7.5 1.2
v -0.3 7.5 1.1
v -0.1 7.5 1.1
v 0.6 7.5 1.1
v 1.1 7.5 1.1
v -0.3 7.7 1.4
v -0.1 7.7 1.4
v -0.8 7.7 1.3
v -0.3 7.7 1.3
v -0.3 7.7 1.2
v -0.1 7.7 1.2
v -0.8 7.7 1.1
v -0.3 7.7 1.1
v 0.0999999 7.8 1.4
v 0.3 7.8 1.4
v 0.0999999 7.8 1.2
v 0.3 7.8 1.2
v -0.4 8 1.4
v 0.0999999 8 1.4
v -0.4 8 1.2
v 0.0999999 8 1.2

# faces
f 3/3/1 2/3/1 1/3/1
f 4/3/1 2/3/1 3/3/1
f 9/3/1 6/3/1 5/3/1
f 10/3/1 6/3/1 9/3/1
f 11/3/1 8/3/1 7/3/1
f 12/3/1 8/3/1 11/3/1
f 17/3/1 14/3/1 13/3/1
f 17/3/1 16/3/1 15/3/1
f 17/3/1 15/3/1 14/3/1
f 18/3/1 16/3/1 17/3/1
f 25/3/1 20/3/1 19/3/1
f 26/2/1 21/2/1 20/2/1
f 26/3/1 20/3/1 25/3/1
f 27/3/1 22/3/1 21/3/1
f 27/2/1 21/2/1 26/2/1
f 28/3/1 22/3/1 27/3/1
f 29/3/1 24/3/1 23/3/1
f 30/3/1 24/3/1 29/3/1
f 31/3/1 25/3/1 19/3/1
f 31/2/1 26/2/1 25/2/1
f 32/4/1 27/4/1 26/4/1
f 32/2/1 26/2/1 31/2/1
f 33/2/1 28/2/1 27/2/1
f 33/4/1 27/4/1 32/4/1
f 34/3/1 22/3/1 28/3/1
f 34/2/1 28/2/1 33/2/1
f 35/3/1 34/3/1 33/3/1
f 35/3/1 22/3/1 34/3/1
f 36/2/1 23/2/1 22/2/1
f 36/3/1 22/3/1 35/3/1
f 37/3/1 29/3/1 23/3/1
f 37/2/1 23/2/1 36/2/1
f 38/2/1 30/2/1 29/2/1
f 38/3/1 29/3/1 37/3/1
f 39/3/1 24/3/1 30/3/1
f 39/2/1 30/2/1 38/2/1
f 40/3/1 24/3/1 39/3/1
f 41/3/1 35/3/1 33/3/1
f 41/2/1 36/2/1 35/2/1
f 42/4/1 37/4/1 36/4/1
f 42/2/1 36/2/1 41/2/1
f 43/2/1 38/2/1 37/2/1
f 43/4/1 37/4/1 42/4/1
f 44/4/1 39/4/1 38/4/1
f 44/2/1 38/2/1 43/2/1
f 45/2/1 40/2/1 39/2/1
f 45/4/1 39/4/1 44/4/1
f 46/3/1 24/3/1 40/3/1
f 46/2/1 40/2/1 45/2/1
f 47/2/1 33/2/1 32/2/1
f 47/3/1 32/3/1 31/3/1
f 48/3/1 42/3/1 41/3/1
f 48/2/1 33/2/1 47/2/1
f 48/3/1 41/3/1 33/3/1
f 49/2/1 43/2/1 42/2/1
f 49/3/1 42/3/1 48/3/1
f 49/3/1 48/3/1 47/3/1
f 50/3/1 44/3/1 43/3/1
f 50/2/1 43/2/1 49/2/1
f 51/2/1 45/2/1 44/2/1
f 51/3/1 44/3/1 50/3/1
f 51/3/1 50/3/1 49/3/1
f 52/3/1 46/3/1 45/3/1
f 52/2/1 45/2/1 51/2/1
f 53/3/1 47/3/1 31/3/1
f 53/3/1 49/3/1 47/3/1
f 53/3/1 52/3/1 51/3/1
f 53/3/1 31/3/1 19/3/1
f 53/3/1 51/3/1 49/3/1
f 54/3/1 24/3/1 46/3/1
f 54/3/1 52/3/1 53/3/1
f 54/3/1 46/3/1 52/3/1
f 59/3/1 56/3/1 55/3/1
f 60/3/1 56/3/1 59/3/1
f 61/3/1 58/3/1 57/3/1
f 62/3/1 58/3/1 61/3/1
f 67/3/1 64/3/1 63/3/1
f 68/3/1 64/3/1 67/3/1
f 69/3/1 66/3/1 65/3/1
f 70/3/1 66/3/1 69/3/1
f 73/1/1 72/1/1 71/1/1
f 74/1/1 72/1/1 73/1/1
f 77/1/1 76/1/1 75/1/1
f 79/1/1 77/1/1 75/1/1
f 79/1/1 78/1/1 77/1/1
f 80/1/1 78/1/1 79/1/1
f 83/1/1 82/1/1 81/1/1
f 84/1/1 83/1/1 81/1/1
f 85/1/1 83/1/1 84/1/1
f 88/1/1 87/1/1 86/1/1
f 89/1/1 87/1/1 88/1/1
f 92/1/1 91/1/1 90/1/1
f 93/1/1 91/1/1 92/1/1
f 96/1/1 95/1/1 94/1/1
f 97/1/1 95/1/1 96/1/1
f 100/1/1 99/1/1 98/1/1
f 101/1/1 99/1/1 100/1/1
f 104/1/1 103/1/1 102/1/1
f 105/1/1 103/1/1 104/1/1
f 108/1/1 107/1/1 106/1/1
f 109/1/1 107/1/1 108/1/1
f 112/1/1 111/1/1 110/1/1
f 113/1/1 111/1/1 112/1/1
f 116/1/1 115/1/1 114/1/1
f 117/1/1 115/1/1 116/1/1
f 120/1/1 119/1/1 118/1/1
f 121/1/1 119/1/1 120/1/1
f 124/1/1 123/1/1 122/1/1
f 125/1/1 123/1/1 124/1/1
f 128/1/1 127/1/1 126/1/1
f 129/1/1 127/1/1 128/1/1
f 132/1/1 131/1/1 130/1/1
f 133/1/1 131/1/1 132/1/1
f 136/1/1 135/1/1 134/1/1
f 137/1/1 135/1/1 136/1/1
f 140/1/1 139/1/1 138/1/1
f 141/1/1 139/1/1 140/1/1
f 144/1/1 143/1/1 142/1/1
f 145/1/1 143/1/1 144/1/1
f 148/1/1 147/1/1 146/1/1
f 149/1/1 147/1/1 148/1/1
f 152/1/1 151/1/1 150/1/1
f 153/1/1 151/1/1 152/1/1
f 156/1/1 155/1/1 154/1/1
f 157/1/1 155/1/1 156/1/1
f 161/1/1 159/1/1 158/1/1
f 161/1/1 160/1/1 159/1/1
f 162/1/1 160/1/1 161/1/1
f 163/1/2 164/1/2 165/1/2
f 165/1/2 164/1/2 166/1/2
f 167/1/2 168/1/2 170/1/2
f 169/1/2 170/1/2 171/1/2
f 170/1/2 168/1/2 172/1/2
f 171/1/2 170/1/2 172/1/2
f 172/1/2 168/1/2 173/1/2
f 174/1/2 175/1/2 176/1/2
f 176/1/2 175/1/2 177/1/2
f 178/1/2 179/1/2 180/1/2
f 180/1/2 179/1/2 181/1/2
f 182/1/2 183/1/2 184/1/2
f 184/1/2 183/1/2 185/1/2
f 186/1/2 187/1/2 188/1/2
f 188/1/2 187/1/2 189/1/2
f 190/1/2 191/1/2 192/1/2
f 192/1/2 191/1/2 193/1/2
f 194/1/2 195/1/2 196/1/2
f 194/1/2 196/1/2 198/1/2
f 196/1/2 197/1/2 198/1/2
f 198/1/2 197/1/2 199/1/2
f 200/1/2 201/1/2 202/1/2
f 202/1/2 201/1/2 203/1/2
f 204/1/2 205/1/2 206/1/2
f 206/1/2 205/1/2 207/1/2
f 208/1/2 209/1/2 210/1/2
f 210/1/2 209/1/2 211/1/2
f 212/3/2 213/3/2 217/3/2
f 217/3/2 213/3/2 218/3/2
f 216/1/2 217/1/2 219/1/2
f 217/1/2 218/1/2 219/1/2
f 219/1/2 218/1/2 220/1/2
f 218/3/2 213/3/2 221/3/2
f 220/1/2 218/1/2 221/1/2
f 220/3/2 221/3/2 222/3/2
f 221/3/2 213/3/2 223/3/2
f 222/3/2 221/3/2 223/3/2
f 223/3/2 213/3/2 225/3/2
f 224/3/2 225/3/2 226/3/2
f 225/3/2 213/3/2 227/3/2
f 226/3/2 225/3/2 227/3/2
f 227/3/2 213/3/2 229/3/2
f 228/1/2 229/1/2 230/1/2
f 229/3/2 213/3/2 231/3/2
f 230/1/2 229/1/2 231/1/2
f 231/3/2 213/3/2 232/3/2
f 214/3/2 215/3/2 233/3/2
f 233/3/2 215/3/2 234/3/2
f 235/3/2 236/3/2 240/3/2
f 240/3/2 236/3/2 241/3/2
f 238/3/2 239/3/2 242/3/2
f 237/3/2 238/3/2 242/3/2
f 242/3/2 239/3/2 243/3/2
f 244/1/2 245/1/2 246/1/2
f 246/1/2 245/1/2 247/1/2
f 250/3/2 251/3/2 254/3/2
f 254/3/2 251/3/2 255/3/2
f 255/3/2 251/3/2 256/3/2
f 251/2/2 252/2/2 257/2/2
f 256/3/2 251/3/2 257/3/2
f 252/3/2 253/3/2 258/3/2
f 257/2/2 252/2/2 258/2/2
f 258/3/2 253/3/2 259/3/2
f 248/3/2 249/3/2 260/3/2
f 249/2/2 250/2/2 261/2/2
f 260/3/2 249/3/2 261/3/2
f 250/3/2 254/3/2 262/3/2
f 261/2/2 250/2/2 262/2/2
f 254/2/2 255/2/2 263/2/2
f 262/3/2 254/3/2 263/3/2
f 255/3/2 256/3/2 264/3/2
f 263/2/2 255/2/2 264/2/2
f 264/3/2 256/3/2 265/3/2
f 256/2/2 257/2/2 266/2/2
f 265/3/2 256/3/2 266/3/2
f 257/4/2 258/4/2 267/4/2
f 266/2/2 257/2/2 267/2/2
f 258/2/2 259/2/2 268/2/2
f 267/4/2 258/4/2 268/4/2
f 259/3/2 253/3/2 269/3/2
f 268/2/2 259/2/2 269/2/2
f 248/3/2 260/3/2 270/3/2
f 260/2/2 261/2/2 270/2/2
f 261/4/2 262/4/2 271/4/2
f 270/2/2 261/2/2 271/2/2
f 262/2/2 263/2/2 272/2/2
f 271/4/2 262/4/2 272/4/2
f 263/4/2 264/4/2 273/4/2
f 272/2/2 263/2/2 273/2/2
f 264/2/2 265/2/2 274/2/2
f 273/4/2 264/4/2 274/4/2
f 265/3/2 266/3/2 275/3/2
f 274/2/2 265/2/2 275/2/2
f 266/3/2 267/3/2 275/3/2
f 267/2/2 268/2/2 276/2/2
f 275/3/2 267/3/2 276/3/2
f 274/3/2 275/3/2 276/3/2
f 268/3/2 269/3/2 277/3/2
f 276/2/2 268/2/2 277/2/2
f 270/3/2 271/3/2 278/3/2
f 271/2/2 272/2/2 279/2/2
f 278/3/2 271/3/2 279/3/2
f 272/3/2 273/3/2 280/3/2
f 279/2/2 272/2/2 280/2/2
f 273/2/2 274/2/2 281/2/2
f 280/3/2 273/3/2 281/3/2
f 274/3/2 276/3/2 282/3/2
f 281/2/2 274/2/2 282/2/2
f 276/3/2 277/3/2 282/3/2
f 282/3/2 277/3/2 283/3/2
f 270/3/2 278/3/2 284/3/2
f 278/2/2 279/2/2 284/2/2
f 279/4/2 280/4/2 285/4/2
f 284/2/2 279/2/2 285/2/2
f 280/2/2 281/2/2 286/2/2
f 285/4/2 280/4/2 286/4/2
f 281/4/2 282/4/2 287/4/2
f 286/2/2 281/2/2 287/2/2
f 282/2/2 283/2/2 288/2/2
f 287/4/2 282/4/2 288/4/2
f 283/3/2 277/3/2 289/3/2
f 288/2/2 283/2/2 289/2/2
f 284/3/2 285/3/2 292/3/2
f 285/2/2 286/2/2 292/2/2
f 286/3/2 287/3/2 293/3/2
f 292/2/2 286/2/2 293/2/2
f 290/1/2 291/1/2 294/1/2
f 294/1/2 291/1/2 295/1/2
f 287/2/2 288/2/2 296/2/2
f 293/3/2 287/3/2 296/3/2
f 292/3/2 293/3/2 296/3/2
f 288/3/2 289/3/2 297/3/2
f 296/2/2 288/2/2 297/2/2
f 284/3/2 292/3/2 298/3/2
f 296/3/2 297/3/2 298/3/2
f 292/3/2 296/3/2 298/3/2
f 248/3/2 270/3/2 298/3/2
f 270/3/2 284/3/2 298/3/2
f 297/3/2 289/3/2 299/3/2
f 298/3/2 297/3/2 299/3/2
f 269/3/2 253/3/2 299/3/2
f 289/3/2 277/3/2 299/3/2
f 277/3/2 269/3/2 299/3/2
f 300/3/2 301/3/2 303/3/2
f 301/3/2 302/3/2 303/3/2
f 303/3/2 302/3/2 304/3/2
f 305/1/2 306/1/2 307/1/2
f 307/1/2 306/1/2 308/1/2
f 309/3/2 310/3/2 313/3/2
f 313/3/2 310/3/2 314/3/2
f 311/3/2 312/3/2 315/3/2
f 315/3/2 312/3/2 316/3/2
f 317/3/2 318/3/2 319/3/2
f 319/3/2 318/3/2 320/3/2
f 323/3/3 322/3/3 321/3/3
f 324/3/3 322/3/3 323/3/3
f 327/3/3 326/3/3 325/3/3
f 328/3/3 326/3/3 327/3/3
f 331/3/3 330/3/3 329/3/3
f 332/3/3 330/3/3 331/3/3
f 341/1/3 336/1/3 335/1/3
f 342/1/3 334/1/3 333/1/3
f 343/1/3 338/1/3 337/1/3
f 344/1/3 341/1/3 335/1/3
f 344/1/3 342/1/3 341/1/3
f 347/1/3 334/1/3 342/1/3
f 347/1/3 342/1/3 344/1/3
f 347/1/3 344/1/3 343/1/3
f 348/1/3 334/1/3 347/1/3
f 349/1/3 340/1/3 339/1/3
f 350/1/3 343/1/3 337/1/3
f 350/1/3 347/1/3 343/1/3
f 352/1/3 346/1/3 345/1/3
f 353/1/3 346/1/3 352/1/3
f 354/1/3 349/1/3 339/1/3
f 354/1/3 350/1/3 349/1/3
f 355/1/3 347/1/3 350/1/3
f 355/1/3 350/1/3 354/1/3
f 356/1/3 347/1/3 355/1/3
f 357/1/3 353/1/3 352/1/3
f 357/1/3 352/1/3 351/1/3
f 357/1/3 355/1/3 354/1/3
f 357/1/3 354/1/3 353/1/3
f 358/1/3 355/1/3 357/1/3
f 369/1/3 364/1/3 363/1/3
f 370/1/3 362/1/3 361/1/3
f 371/1/3 366/1/3 365/1/3
f 372/1/3 369/1/3 363/1/3
f 372/1/3 370/1/3 369/1/3
f 373/3/3 360/3/3 359/3/3
f 375/1/3 372/1/3 371/1/3
f 375/1/3 362/1/3 370/1/3
f 375/1/3 370/1/3 372/1/3
f 376/1/3 362/1/3 375/1/3
f 377/1/3 368/1/3 367/1/3
f 378/1/3 371/1/3 365/1/3
f 378/1/3 375/1/3 371/1/3
f 379/1/3 375/1/3 378/1/3
f 380/1/3 375/1/3 379/1/3
f 381/3/3 373/3/3 359/3/3
f 382/1/3 374/1/3 373/1/3
f 382/3/3 373/3/3 381/3/3
f 383/1/3 374/1/3 382/1/3
f 384/1/3 377/1/3 367/1/3
f 384/1/3 378/1/3 377/1/3
f 384/1/3 379/1/3 378/1/3
f 385/1/3 379/1/3 384/1/3
f 386/1/3 379/1/3 385/1/3
f 387/1/3 375/1/3 380/1/3
f 388/1/3 375/1/3 387/1/3
f 389/1/3 383/1/3 382/1/3
f 389/1/3 382/1/3 381/1/3
f 389/1/3 384/1/3 383/1/3
f 389/1/3 385/1/3 384/1/3
f 390/1/3 385/1/3 389/1/3
f 391/1/3 385/1/3 390/1/3
f 392/1/3 385/1/3 391/1/3
f 393/1/3 385/1/3 392/1/3
f 394/1/3 379/1/3 386/1/3
f 395/1/3 379/1/3 394/1/3
f 396/3/3 390/3/3 389/3/3
f 397/3/3 390/3/3 396/3/3
f 401/1/3 397/1/3 396/1/3
f 401/1/3 398/1/3 397/1/3
f 402/1/3 398/1/3 401/1/3
f 403/1/3 400/1/3 399/1/3
f 404/1/3 400/1/3 403/1/3
f 407/1/3 406/1/3 405/1/3
f 408/1/3 406/1/3 407/1/3
f 409/1/3 406/1/3 408/1/3
f 410/1/3 406/1/3 409/1/3
f 411/1/3 406/1/3 410/1/3
f 412/1/3 406/1/3 411/1/3
f 414/1/3 413/1/3 412/1/3
f 414/1/3 412/1/3 411/1/3
f 415/1/3 413/1/3 414/1/3
f 416/1/3 410/1/3 409/1/3
f 417/1/3 410/1/3 416/1/3
f 418/1/3 413/1/3 415/1/3
f 419/1/3 413/1/3 418/1/3
f 420/3/3 408/3/3 407/3/3
f 421/3/3 408/3/3 420/3/3
f 422/1/3 414/1/3 411/1/3
f 423/1/3 414/1/3 422/1/3
f 424/1/3 418/1/3 415/1/3
f 425/1/3 418/1/3 424/1/3
f 426/1/3 413/1/3 419/1/3
f 427/1/3 413/1/3 426/1/3
f 430/3/3 429/3/3 428/3/3
f 431/3/3 429/3/3 430/3/3
f 432/3/3 429/3/3 431/3/3
f 433/3/3 429/3/3 432/3/3
f 434/3/3 430/3/3 428/3/3
f 435/2/3 431/2/3 430/2/3
f 435/3/3 430/3/3 434/3/3
f 436/3/3 432/3/3 431/3/3
f 436/2/3 431/2/3 435/2/3
f 437/3/3 434/3/3 428/3/3
f 438/3/3 434/3/3 437/3/3
f 439/3/3 432/3/3 436/3/3
f 440/3/3 432/3/3 439/3/3
f 441/3/3 437/3/3 428/3/3
f 442/3/3 437/3/3 441/3/3
f 443/3/3 437/3/3 442/3/3
f 444/3/3 437/3/3 443/3/3
f 445/3/3 434/3/3 438/3/3
f 446/3/3 434/3/3 445/3/3
f 447/2/3 444/2/3 443/2/3
f 448/2/3 444/2/3 447/2/3
f 455/2/3 450/2/3 449/2/3
f 456/2/3 450/2/3 455/2/3
f 457/2/3 452/2/3 451/2/3
f 458/2/3 452/2/3 457/2/3
f 459/3/3 454/3/3 453/3/3
f 460/3/3 454/3/3 459/3/3
f 467/3/3 462/3/3 461/3/3
f 468/3/3 462/3/3 467/3/3
f 469/3/3 464/3/3 463/3/3
f 470/3/3 464/3/3 469/3/3
f 471/3/3 466/3/3 465/3/3
f 472/3/3 466/3/3 471/3/3
f 475/3/3 474/3/3 473/3/3
f 476/3/3 474/3/3 475/3/3
f 479/3/3 478/3/3 477/3/3
f 480/3/3 478/3/3 479/3/3
f 483/3/3 482/3/3 481/3/3
f 484/3/3 482/3/3 483/3/3
f 487/3/3 486/3/3 485/3/3
f 488/3/3 486/3/3 487/3/3
f 491/1/4 492/1/4 495/1/4
f 495/1/4 492/1/4 496/1/4
f 489/1/4 490/1/4 497/1/4
f 493/1/4 494/1/4 498/1/4
f 495/1/4 496/1/4 499/1/4
f 496/1/4 497/1/4 499/1/4
f 497/1/4 490/1/4 500/1/4
f 498/1/4 499/1/4 500/1/4
f 499/1/4 497/1/4 500/1/4
f 500/1/4 490/1/4 501/1/4
f 498/1/4 500/1/4 502/1/4
f 502/1/4 500/1/4 503/1/4
f 493/1/4 498/1/4 504/1/4
f 498/1/4 502/1/4 504/1/4
f 504/1/4 502/1/4 505/1/4
f 508/1/4 509/1/4 510/1/4
f 506/1/4 507/1/4 511/1/4
f 511/1/4 507/1/4 512/1/4
f 510/1/4 511/1/4 512/1/4
f 512/1/4 507/1/4 513/1/4
f 508/1/4 510/1/4 514/1/4
f 510/1/4 512/1/4 514/1/4
f 514/1/4 512/1/4 515/1/4
f 516/1/4 517/1/4 522/1/4
f 518/1/4 519/1/4 523/1/4
f 523/1/4 519/1/4 524/1/4
f 520/1/4 521/1/4 525/1/4
f 525/1/4 521/1/4 526/1/4
f 522/1/4 517/1/4 527/1/4
f 527/1/4 517/1/4 528/1/4
f 529/3/4 530/3/4 531/3/4
f 531/3/4 530/3/4 532/3/4
f 533/3/4 534/3/4 535/3/4
f 535/3/4 534/3/4 536/3/4
f 537/3/4 538/3/4 539/3/4
f 539/3/4 538/3/4 540/3/4
f 541/3/4 542/3/4 543/3/4
f 543/3/4 542/3/4 544/3/4
f 545/3/4 546/3/4 547/3/4
f 547/3/4 546/3/4 548/3/4
f 545/3/4 547/3/4 549/3/4
f 547/2/4 548/2/4 550/2/4
f 549/3/4 547/3/4 550/3/4
f 548/3/4 546/3/4 551/3/4
f 550/2/4 548/2/4 551/2/4
f 551/3/4 546/3/4 552/3/4
f 549/2/4 550/2/4 553/2/4
f 550/4/4 551/4/4 554/4/4
f 553/2/4 550/2/4 554/2/4
f 551/2/4 552/2/4 555/2/4
f 554/4/4 551/4/4 555/4/4
f 552/3/4 546/3/4 556/3/4
f 555/2/4 552/2/4 556/2/4
f 553/3/4 554/3/4 557/3/4
f 554/2/4 555/2/4 558/2/4
f 557/3/4 554/3/4 558/3/4
f 555/3/4 556/3/4 559/3/4
f 558/2/4 555/2/4 559/2/4
f 556/3/4 546/3/4 560/3/4
f 559/3/4 556/3/4 560/3/4
f 553/3/4 557/3/4 561/3/4
f 557/2/4 558/2/4 561/2/4
f 558/4/4 559/4/4 562/4/4
f 561/2/4 558/2/4 562/2/4
f 559/2/4 560/2/4 563/2/4
f 562/4/4 559/4/4 563/4/4
f 560/3/4 546/3/4 564/3/4
f 563/2/4 560/2/4 564/2/4
f 562/2/4 563/2/4 565/2/4
f 561/3/4 562/3/4 565/3/4
f 563/3/4 564/3/4 566/3/4
f 565/2/4 563/2/4 566/2/4
f 553/3/4 561/3/4 567/3/4
f 561/3/4 565/3/4 567/3/4
f 565/3/4 566/3/4 567/3/4
f 564/3/4 546/3/4 568/3/4
f 567/3/4 566/3/4 568/3/4
f 566/3/4 564/3/4 568/3/4
f 569/3/4 570/3/4 571/3/4
f 571/3/4 570/3/4 572/3/4
f 572/3/4 570/3/4 573/3/4
f 573/3/4 570/3/4 574/3/4
f 575/3/4 576/3/4 577/3/4
f 577/3/4 576/3/4 578/3/4
f 579/3/4 580/3/4 581/3/4
f 581/3/4 580/3/4 582/3/4
f 583/3/4 584/3/4 585/3/4
f 585/3/4 584/3/4 586/3/4
f 590/3/5 588/3/5 587/3/5
f 591/3/5 588/3/5 590/3/5
f 593/3/5 590/3/5 589/3/5
f 593/3/5 592/3/5 591/3/5
f 593/3/5 591/3/5 590/3/5
f 594/3/5 592/3/5 593/3/5
f 595/3/5 592/3/5 594/3/5
f 596/3/5 592/3/5 595/3/5
f 597/3/5 595/3/5 594/3/5
f 598/3/5 595/3/5 597/3/5
f 601/1/5 600/1/5 599/1/5
f 602/1/5 600/1/5 601/1/5
f 605/1/5 604/1/5 603/1/5
f 606/1/5 604/1/5 605/1/5
f 607/1/5 604/1/5 606/1/5
f 608/1/5 606/1/5 605/1/5
f 609/1/5 606/1/5 608/1/5
f 612/1/5 611/1/5 610/1/5
f 613/1/5 611/1/5 612/1/5
f 614/1/5 611/1/5 613/1/5
f 617/1/5 616/1/5 615/1/5
f 618/1/5 616/1/5 617/1/5
f 619/1/5 616/1/5 618/1/5
f 620/1/5 616/1/5 619/1/5
f 625/1/5 622/1/5 621/1/5
f 626/1/5 622/1/5 625/1/5
f 627/1/5 622/1/5 626/1/5
f 628/1/5 622/1/5 627/1/5
f 629/1/5 624/1/5 623/1/5
f 630/1/5 624/1/5 629/1/5
f 631/1/5 627/1/5 626/1/5
f 632/1/5 627/1/5 631/1/5
f 635/1/5 634/1/5 633/1/5
f 636/1/5 634/1/5 635/1/5
f 637/1/5 634/1/5 636/1/5
f 638/1/5 634/1/5 637/1/5
f 643/1/5 640/1/5 639/1/5
f 644/1/5 640/1/5 643/1/5
f 645/1/5 642/1/5 641/1/5
f 646/1/5 642/1/5 645/1/5
f 647/1/5 640/1/5 644/1/5
f 648/1/5 640/1/5 647/1/5
f 651/1/5 650/1/5 649/1/5
f 652/1/5 650/1/5 651/1/5
f 657/1/5 654/1/5 653/1/5
f 658/1/5 654/1/5 657/1/5
f 659/1/5 654/1/5 658/1/5
f 660/1/5 654/1/5 659/1/5
f 661/1/5 656/1/5 655/1/5
f 662/1/5 656/1/5 661/1/5
f 665/1/5 664/1/5 663/1/5
f 666/1/5 664/1/5 665/1/5
f 667/3/6 668/3/6 670/3/6
f 670/3/6 668/3/6 671/3/6
f 671/3/6 668/3/6 672/3/6
f 672/3/6 668/3/6 673/3/6
f 673/3/6 668/3/6 674/3/6
f 674/3/6 668/3/6 675/3/6
f 669/3/6 670/3/6 677/3/6
f 670/3/6 671/3/6 677/3/6
f 671/2/6 672/2/6 678/2/6
f 677/3/6 671/3/6 678/3/6
f 672/3/6 673/3/6 679/3/6
f 678/2/6 672/2/6 679/2/6
f 679/3/6 673/3/6 680/3/6
f 669/3/6 677/3/6 681/3/6
f 677/2/6 678/2/6 681/2/6
f 678/4/6 679/4/6 682/4/6
f 681/2/6 678/2/6 682/2/6
f 679/2/6 680/2/6 683/2/6
f 682/4/6 679/4/6 683/4/6
f 680/3/6 673/3/6 684/3/6
f 683/2/6 680/2/6 684/2/6
f 684/3/6 673/3/6 685/3/6
f 673/2/6 674/2/6 686/2/6
f 685/3/6 673/3/6 686/3/6
f 675/3/6 676/3/6 687/3/6
f 686/2/6 674/2/6 687/2/6
f 674/3/6 675/3/6 687/3/6
f 687/3/6 676/3/6 688/3/6
f 685/2/6 686/2/6 689/2/6
f 683/3/6 684/3/6 689/3/6
f 684/3/6 685/3/6 689/3/6
f 686/4/6 687/4/6 690/4/6
f 689/2/6 686/2/6 690/2/6
f 687/2/6 688/2/6 691/2/6
f 690/4/6 687/4/6 691/4/6
f 688/3/6 676/3/6 692/3/6
f 691/2/6 688/2/6 692/2/6
f 689/3/6 690/3/6 693/3/6
f 683/3/6 689/3/6 693/3/6
f 693/3/6 690/3/6 694/3/6
f 694/3/6 690/3/6 695/3/6
f 690/2/6 691/2/6 696/2/6
f 695/3/6 690/3/6 696/3/6
f 691/3/6 692/3/6 697/3/6
f 696/2/6 691/2/6 697/2/6
f 692/3/6 676/3/6 698/3/6
f 697/3/6 692/3/6 698/3/6
f 682/2/6 683/2/6 699/2/6
f 681/3/6 682/3/6 699/3/6
f 683/3/6 693/3/6 700/3/6
f 699/2/6 683/2/6 700/2/6
f 700/3/6 693/3/6 701/3/6
f 701/3/6 693/3/6 702/3/6
f 702/3/6 693/3/6 703/3/6
f 703/3/6 693/3/6 704/3/6
f 704/3/6 693/3/6 705/3/6
f 694/3/6 695/3/6 706/3/6
f 706/3/6 695/3/6 707/3/6
f 707/3/6 695/3/6 708/3/6
f 696/2/6 697/2/6 709/2/6
f 708/3/6 695/3/6 709/3/6
f 697/2/6 698/2/6 709/2/6
f 695/2/6 696/2/6 709/2/6
f 698/3/6 676/3/6 710/3/6
f 709/2/6 698/2/6 710/2/6
f 709/3/6 710/3/6 711/3/6
f 708/3/6 709/3/6 711/3/6
f 710/3/6 676/3/6 712/3/6
f 711/3/6 710/3/6 712/3/6
f 700/3/6 701/3/6 713/3/6
f 699/3/6 700/3/6 713/3/6
f 681/3/6 699/3/6 713/3/6
f 713/3/6 701/3/6 714/3/6
f 708/3/6 711/3/6 715/3/6
f 711/2/6 712/2/6 716/2/6
f 715/3/6 711/3/6 716/3/6
f 712/3/6 676/3/6 717/3/6
f 716/2/6 712/2/6 717/2/6
f 669/3/6 681/3/6 718/3/6
f 681/3/6 713/3/6 718/3/6
f 718/3/6 713/3/6 719/3/6
f 669/3/6 718/3/6 720/3/6
f 718/2/6 719/2/6 721/2/6
f 720/3/6 718/3/6 721/3/6
f 719/3/6 713/3/6 722/3/6
f 721/2/6 719/2/6 722/2/6
f 722/3/6 713/3/6 723/3/6
f 720/2/6 721/2/6 724/2/6
f 669/3/6 720/3/6 724/3/6
f 721/4/6 722/4/6 725/4/6
f 724/2/6 721/2/6 725/2/6
f 722/2/6 723/2/6 726/2/6
f 725/4/6 722/4/6 726/4/6
f 723/3/6 713/3/6 727/3/6
f 726/2/6 723/2/6 727/2/6
f 724/3/6 725/3/6 728/3/6
f 725/2/6 726/2/6 729/2/6
f 728/3/6 725/3/6 729/3/6
f 726/3/6 727/3/6 730/3/6
f 729/2/6 726/2/6 730/2/6
f 727/3/6 713/3/6 731/3/6
f 730/3/6 727/3/6 731/3/6
f 724/3/6 728/3/6 732/3/6
f 728/2/6 729/2/6 732/2/6
f 729/4/6 730/4/6 733/4/6
f 732/2/6 729/2/6 733/2/6
f 730/2/6 731/2/6 734/2/6
f 733/4/6 730/4/6 734/4/6
f 734/2/6 731/2/6 735/2/6
f 732/3/6 733/3/6 736/3/6
f 733/2/6 734/2/6 736/2/6
f 734/3/6 735/3/6 737/3/6
f 736/2/6 734/2/6 737/2/6
f 716/3/6 717/3/6 738/3/6
f 738/3/6 717/3/6 739/3/6
f 739/3/6 717/3/6 740/3/6
f 740/3/6 717/3/6 741/3/6
f 737/3/6 735/3/6 742/3/6
f 736/3/6 737/3/6 742/3/6
f 738/2/6 739/2/6 745/2/6
f 739/3/6 740/3/6 746/3/6
f 745/2/6 739/2/6 746/2/6
f 740/2/6 741/2/6 747/2/6
f 746/3/6 740/3/6 747/3/6
f 741/3/6 717/3/6 748/3/6
f 747/2/6 741/2/6 748/2/6
f 717/3/6 676/3/6 749/3/6
f 748/3/6 717/3/6 749/3/6
f 744/2/6 745/2/6 750/2/6
f 745/4/6 746/4/6 751/4/6
f 750/2/6 745/2/6 751/2/6
f 746/2/6 747/2/6 752/2/6
f 751/4/6 746/4/6 752/4/6
f 747/4/6 748/4/6 753/4/6
f 752/2/6 747/2/6 753/2/6
f 748/2/6 749/2/6 754/2/6
f 753/4/6 748/4/6 754/4/6
f 749/3/6 676/3/6 755/3/6
f 754/2/6 749/2/6 755/2/6
f 742/3/6 743/3/6 756/3/6
f 750/3/6 751/3/6 759/3/6
f 756/3/6 757/3/6 760/3/6
f 757/2/6 758/2/6 761/2/6
f 760/3/6 757/3/6 761/3/6
f 758/3/6 759/3/6 762/3/6
f 761/2/6 758/2/6 762/2/6
f 762/3/6 759/3/6 763/3/6
f 759/3/6 751/3/6 764/3/6
f 763/3/6 759/3/6 764/3/6
f 751/2/6 752/2/6 765/2/6
f 764/3/6 751/3/6 765/3/6
f 752/3/6 753/3/6 766/3/6
f 765/2/6 752/2/6 766/2/6
f 753/2/6 754/2/6 767/2/6
f 766/3/6 753/3/6 767/3/6
f 754/3/6 755/3/6 768/3/6
f 767/2/6 754/2/6 768/2/6
f 755/3/6 676/3/6 769/3/6
f 768/3/6 755/3/6 769/3/6
f 756/3/6 760/3/6 770/3/6
f 760/2/6 761/2/6 770/2/6
f 761/4/6 762/4/6 771/4/6
f 770/2/6 761/2/6 771/2/6
f 762/2/6 763/2/6 772/2/6
f 771/4/6 762/4/6 772/4/6
f 763/3/6 764/3/6 773/3/6
f 772/2/6 763/2/6 773/2/6
f 764/2/6 765/2/6 774/2/6
f 773/3/6 764/3/6 774/3/6
f 765/4/6 766/4/6 775/4/6
f 774/2/6 765/2/6 775/2/6
f 766/2/6 767/2/6 776/2/6
f 775/4/6 766/4/6 776/4/6
f 767/4/6 768/4/6 777/4/6
f 776/2/6 767/2/6 777/2/6
f 768/2/6 769/2/6 778/2/6
f 777/4/6 768/4/6 778/4/6
f 769/3/6 676/3/6 779/3/6
f 778/2/6 769/2/6 779/2/6
f 742/3/6 756/3/6 780/3/6
f 770/3/6 771/3/6 780/3/6
f 756/3/6 770/3/6 780/3/6
f 771/2/6 772/2/6 781/2/6
f 780/3/6 771/3/6 781/3/6
f 773/3/6 774/3/6 782/3/6
f 781/2/6 772/2/6 782/2/6
f 772/3/6 773/3/6 782/3/6
f 774/3/6 775/3/6 782/3/6
f 782/3/6 775/3/6 783/3/6
f 742/3/6 780/3/6 784/3/6
f 780/2/6 781/2/6 784/2/6
f 781/4/6 782/4/6 785/4/6
f 784/2/6 781/2/6 785/2/6
f 782/2/6 783/2/6 786/2/6
f 785/4/6 782/4/6 786/4/6
f 783/3/6 775/3/6 787/3/6
f 786/2/6 783/2/6 787/2/6
f 775/2/6 776/2/6 788/2/6
f 787/3/6 775/3/6 788/3/6
f 776/3/6 777/3/6 789/3/6
f 788/2/6 776/2/6 789/2/6
f 777/2/6 778/2/6 790/2/6
f 789/3/6 777/3/6 790/3/6
f 778/3/6 779/3/6 791/3/6
f 790/2/6 778/2/6 791/2/6
f 724/3/6 732/3/6 792/3/6
f 669/3/6 724/3/6 792/3/6
f 732/3/6 736/3/6 792/3/6
f 742/3/6 784/3/6 792/3/6
f 784/3/6 785/3/6 792/3/6
f 736/3/6 742/3/6 792/3/6
f 792/3/6 785/3/6 793/3/6
f 788/3/6 789/3/6 794/3/6
f 791/3/6 779/3/6 794/3/6
f 790/3/6 791/3/6 794/3/6
f 787/3/6 788/3/6 794/3/6
f 789/3/6 790/3/6 794/3/6
f 786/3/6 787/3/6 794/3/6
f 779/3/6 676/3/6 795/3/6
f 794/3/6 779/3/6 795/3/6
f 785/2/6 786/2/6 796/2/6
f 793/3/6 785/3/6 796/3/6
f 786/3/6 794/3/6 797/3/6
f 796/2/6 786/2/6 797/2/6
f 793/3/6 796/3/6 798/3/6
f 796/3/6 797/3/6 798/3/6
f 797/3/6 794/3/6 799/3/6
f 798/3/6 797/3/6 799/3/6
f 800/3/6 801/3/6 806/3/6
f 806/3/6 801/3/6 807/3/6
f 802/3/6 803/3/6 808/3/6
f 808/3/6 803/3/6 809/3/6
f 804/3/6 805/3/6 810/3/6
f 810/3/6 805/3/6 811/3/6
f 800/3/6 806/3/6 813/3/6
f 811/3/6 805/3/6 814/3/6
f 812/3/6 813/3/6 816/3/6
f 813/3/6 806/3/6 817/3/6
f 816/3/6 813/3/6 817/3/6
f 814/3/6 815/3/6 818/3/6
f 811/3/6 814/3/6 818/3/6
f 818/3/6 815/3/6 819/3/6
f 812/3/6 816/3/6 820/3/6
f 812/3/6 820/3/6 821/3/6
f 819/3/6 815/3/6 822/3/6
f 822/3/6 815/3/6 823/3/6
f 812/3/6 821/3/6 824/3/6
f 812/3/6 824/3/6 825/3/6
f 823/3/6 815/3/6 826/3/6
f 826/3/6 815/3/6 827/3/6
f 812/3/6 825/3/6 828/3/6
f 827/3/6 815/3/6 831/3/6
f 828/3/6 829/3/6 832/3/6
f 812/3/6 828/3/6 832/3/6
f 832/3/6 829/3/6 833/3/6
f 830/3/6 831/3/6 834/3/6
f 831/3/6 815/3/6 835/3/6
f 834/3/6 831/3/6 835/3/6
f 833/3/6 829/3/6 836/3/6
f 830/3/6 834/3/6 839/3/6
f 837/3/6 838/3/6 840/3/6
f 838/3/6 839/3/6 840/3/6
f 833/3/6 836/3/6 840/3/6
f 836/3/6 837/3/6 840/3/6
f 839/3/6 834/3/6 841/3/6
f 840/3/6 839/3/6 841/3/6
f 842/1/6 843/1/6 844/1/6
f 844/1/6 843/1/6 845/1/6
f 845/1/6 843/1/6 846/1/6
f 847/1/6 848/1/6 849/1/6
f 849/1/6 848/1/6 850/1/6
f 851/1/6 852/1/6 855/1/6
f 855/1/6 852/1/6 856/1/6
f 856/1/6 852/1/6 857/1/6
f 853/1/6 854/1/6 858/1/6
f 858/1/6 854/1/6 859/1/6
f 855/1/6 856/1/6 860/1/6
f 860/1/6 856/1/6 861/1/6
f 862/1/6 863/1/6 864/1/6
f 864/1/6 863/1/6 865/1/6
f 865/1/6 863/1/6 866/1/6
f 866/1/6 863/1/6 867/1/6
f 868/1/6 869/1/6 872/1/6
f 872/1/6 869/1/6 873/1/6
f 870/1/6 871/1/6 874/1/6
f 874/1/6 871/1/6 875/1/6
f 873/1/6 869/1/6 876/1/6
f 876/1/6 869/1/6 877/1/6
f 878/1/6 879/1/6 880/1/6
f 880/1/6 879/1/6 881/1/6
f 882/1/6 883/1/6 887/1/6
f 887/1/6 883/1/6 888/1/6
f 884/3/6 885/3/6 889/3/6
f 886/3/6 887/3/6 890/3/6
f 887/3/6 888/3/6 890/3/6
f 890/3/6 888/3/6 891/3/6
f 890/3/6 891/3/6 894/3/6
f 891/3/6 892/3/6 894/3/6
f 889/3/6 890/3/6 894/3/6
f 884/3/6 889/3/6 894/3/6
f 894/3/6 892/3/6 895/3/6
f 893/3/6 894/3/6 897/3/6
f 895/3/6 896/3/6 897/3/6
f 894/3/6 895/3/6 897/3/6
f 897/3/6 896/3/6 898/3/6
f 893/3/6 897/3/6 899/3/6
f 899/3/6 897/3/6 900/3/6
f 893/3/6 899/3/6 901/3/6
f 899/2/6 900/2/6 902/2/6
f 901/3/6 899/3/6 902/3/6
f 900/3/6 897/3/6 903/3/6
f 902/2/6 900/2/6 903/2/6
f 897/2/6 898/2/6 904/2/6
f 903/3/6 897/3/6 904/3/6
f 898/3/6 896/3/6 905/3/6
f 904/2/6 898/2/6 905/2/6
f 905/3/6 896/3/6 906/3/6
f 901/2/6 902/2/6 907/2/6
f 893/3/6 901/3/6 907/3/6
f 902/4/6 903/4/6 908/4/6
f 907/2/6 902/2/6 908/2/6
f 903/2/6 904/2/6 909/2/6
f 908/4/6 903/4/6 909/4/6
f 904/4/6 905/4/6 910/4/6
f 909/2/6 904/2/6 910/2/6
f 905/2/6 906/2/6 911/2/6
f 910/4/6 905/4/6 911/4/6
f 906/3/6 896/3/6 912/3/6
f 911/2/6 906/2/6 912/2/6
f 907/3/6 908/3/6 913/3/6
f 908/2/6 909/2/6 913/2/6
f 909/3/6 910/3/6 914/3/6
f 913/2/6 909/2/6 914/2/6
f 910/2/6 911/2/6 915/2/6
f 914/3/6 910/3/6 915/3/6
f 911/3/6 912/3/6 916/3/6
f 915/2/6 911/2/6 916/2/6
f 912/3/6 896/3/6 917/3/6
f 916/3/6 912/3/6 917/3/6
f 915/3/6 916/3/6 917/3/6
f 914/3/6 915/3/6 917/3/6
f 913/3/6 914/3/6 917/3/6
f 917/3/6 896/3/6 918/3/6
f 913/3/6 917/3/6 919/3/6
f 917/2/6 918/2/6 920/2/6
f 919/3/6 917/3/6 920/3/6
f 918/3/6 896/3/6 921/3/6
f 920/2/6 918/2/6 921/2/6
f 921/3/6 896/3/6 922/3/6
f 919/2/6 920/2/6 923/2/6
f 913/3/6 919/3/6 923/3/6
f 920/4/6 921/4/6 924/4/6
f 923/2/6 920/2/6 924/2/6
f 921/2/6 922/2/6 925/2/6
f 924/4/6 921/4/6 925/4/6
f 922/3/6 896/3/6 926/3/6
f 925/2/6 922/2/6 926/2/6
f 924/2/6 925/2/6 927/2/6
f 923/3/6 924/3/6 927/3/6
f 925/3/6 926/3/6 928/3/6
f 927/2/6 925/2/6 928/2/6
f 907/3/6 913/3/6 929/3/6
f 893/3/6 907/3/6 929/3/6
f 927/3/6 928/3/6 929/3/6
f 913/3/6 923/3/6 929/3/6
f 923/3/6 927/3/6 929/3/6
f 929/3/6 928/3/6 930/3/6
f 928/3/6 926/3/6 931/3/6
f 930/3/6 928/3/6 931/3/6
f 926/3/6 896/3/6 931/3/6
f 931/3/6 896/3/6 932/3/6
f 930/3/6 931/3/6 933/3/6
f 933/3/6 931/3/6 934/3/6
f 935/1/6 936/1/6 939/1/6
f 939/1/6 936/1/6 940/1/6
f 940/1/6 936/1/6 941/1/6
f 941/1/6 936/1/6 942/1/6
f 937/1/6 938/1/6 943/1/6
f 943/1/6 938/1/6 944/1/6
f 945/1/6 946/1/6 951/1/6
f 951/1/6 946/1/6 952/1/6
f 949/1/6 950/1/6 953/1/6
f 953/1/6 950/1/6 954/1/6
f 947/1/6 948/1/6 955/1/6
f 955/1/6 948/1/6 956/1/6
f 957/1/6 958/1/6 960/1/6
f 960/1/6 958/1/6 961/1/6
f 959/1/6 960/1/6 961/1/6
f 961/1/6 958/1/6 962/1/6
f 959/1/6 961/1/6 963/1/6
f 963/1/6 961/1/6 964/1/6
f 965/1/6 966/1/6 967/1/6
f 967/1/6 966/1/6 968/1/6
f 969/1/6 970/1/6 971/1/6
f 971/1/6 970/1/6 972/1/6
