# MagicaVoxel @ Ephtracy

# group
o 

# material
mtllib model.mtl
usemtl palette

# normals
vn 0 0 1
vn 0 0 -1
vn 1 0 0
vn -1 0 0
vn 0 -1 0
vn 0 1 0

# texcoords
vt 0.189453 0.5
vt 0.193359 0.5

# verts
v 1.1 0 1.4
v -1.8 0 1.4
v 1.1 0.2 1.4
v -1.8 0.2 1.4
v 1.3 0 1.3
v 1.1 0 1.3
v 1.3 0.2 1.3
v 1.1 0.2 1.3
v 0.9 0.2 1.3
v -1.7 0.2 1.3
v 0.9 0.4 1.3
v -0.3 0.4 1.3
v -1.5 0.4 1.3
v -1.7 0.4 1.3
v 0.9 0.5 1.3
v -0.3 0.5 1.3
v -1.2 0.8 1.3
v -1.5 0.8 1.3
v 0.9 1.3 1.3
v -1.2 1.3 1.3
v -1.8 0 1.2
v -2.4 0 1.2
v -1.8 0.2 1.2
v -2.4 0.2 1.2
v 1.1 0.2 1.1
v 0.9 0.2 1.1
v -1.7 0.2 1.1
v -2.3 0.2 1.1
v 0.9 0.3 1.1
v -1.5 0.4 1.1
v -1.7 0.4 1.1
v 0.9 0.5 1.1
v -1.7 0.6 1.1
v -2.3 0.6 1.1
v -1.2 0.8 1.1
v -1.5 0.8 1.1
v -1.7 0.8 1.1
v 1.1 1.3 1.1
v 0.9 1.3 1.1
v -1.2 1.3 1.1
v -1.5 1.3 1.1
v 0.9 1.5 1.1
v -1.2 1.5 1.1
v -2.4 0 1
v -3 0 1
v -2.4 0.2 1
v -3 0.2 1
v -3 0 0.9
v -3.2 0 0.9
v -2.3 0.2 0.9
v -2.9 0.2 0.9
v -3 0.2 0.9
v -3.2 0.2 0.9
v -2.3 0.4 0.9
v -2.9 0.4 0.9
v 0.7 1.5 0.9
v -1 1.5 0.9
v 0.7 1.6 0.9
v -1 1.6 0.9
v -3 0 -0.9
v -3.2 0 -0.9
v -2.3 0.2 -0.9
v -2.9 0.2 -0.9
v -3 0.2 -0.9
v -3.2 0.2 -0.9
v -2.3 0.4 -0.9
v -2.9 0.4 -0.9
v 0.7 1.5 -0.9
v -1 1.5 -0.9
v 0.7 1.6 -0.9
v -1 1.6 -0.9
v -2.4 0 -1
v -3 0 -1
v -2.4 0.2 -1
v -3 0.2 -1
v 1.1 0.2 -1.1
v 0.9 0.2 -1.1
v -1.7 0.2 -1.1
v -2.3 0.2 -1.1
v 0.9 0.3 -1.1
v -1.5 0.4 -1.1
v -1.7 0.4 -1.1
v 0.9 0.5 -1.1
v -1.7 0.6 -1.1
v -2.3 0.6 -1.1
v -1.2 0.8 -1.1
v -1.5 0.8 -1.1
v -1.7 0.8 -1.1
v 1.1 1.3 -1.1
v 0.9 1.3 -1.1
v -1.2 1.3 -1.1
v -1.5 1.3 -1.1
v 0.9 1.5 -1.1
v -1.2 1.5 -1.1
v -1.8 0 -1.2
v -2.4 0 -1.2
v -1.8 0.2 -1.2
v -2.4 0.2 -1.2
v 1.3 0 -1.3
v 1.1 0 -1.3
v 1.3 0.2 -1.3
v 1.1 0.2 -1.3
v 0.9 0.2 -1.3
v -1.7 0.2 -1.3
v 0.9 0.4 -1.3
v -0.3 0.4 -1.3
v -1.5 0.4 -1.3
v -1.7 0.4 -1.3
v 0.9 0.5 -1.3
v -0.3 0.5 -1.3
v -1.2 0.8 -1.3
v -1.5 0.8 -1.3
v 0.9 1.3 -1.3
v -1.2 1.3 -1.3
v 1.1 0 -1.4
v -1.8 0 -1.4
v 1.1 0.2 -1.4
v -1.8 0.2 -1.4
v 1.3 0 1.3
v 1.3 0.2 1.3
v 1.3 0 -1.3
v 1.3 0.2 -1.3
v 1.1 0 1.4
v 1.1 0.2 1.4
v 1.1 0 1.3
v 1.1 0.2 1.3
v 1.1 0.2 1.1
v 1.1 1.3 1.1
v 1.1 0.5 0.6
v 1.1 0.6 0.6
v 1.1 0.8 0.3
v 1.1 0.9 0.3
v 1.1 1 0.3
v 1.1 1.1 0.3
v 1.1 0.2 0.1
v 1.1 0.5 0.1
v 1.1 0.6 0.1
v 1.1 0.8 0.1
v 1.1 0.9 0.1
v 1.1 1 0.1
v 1.1 1.1 0.1
v 1.1 1.3 0.1
v 1.1 0.2 -0.1
v 1.1 0.5 -0.1
v 1.1 0.6 -0.1
v 1.1 0.8 -0.1
v 1.1 0.9 -0.1
v 1.1 1 -0.1
v 1.1 1.1 -0.1
v 1.1 1.3 -0.1
v 1.1 0.8 -0.3
v 1.1 0.9 -0.3
v 1.1 1 -0.3
v 1.1 1.1 -0.3
v 1.1 0.5 -0.6
v 1.1 0.6 -0.6
v 1.1 0.2 -1.1
v 1.1 1.3 -1.1
v 1.1 0 -1.3
v 1.1 0.2 -1.3
v 1.1 0 -1.4
v 1.1 0.2 -1.4
v 0.9 0.2 1.3
v 0.9 0.4 1.3
v 0.9 0.5 1.3
v 0.9 1.3 1.3
v 0.9 0.3 1.2
v 0.9 0.4 1.2
v 0.9 0.2 1.1
v 0.9 0.3 1.1
v 0.9 0.5 1.1
v 0.9 1.3 1.1
v 0.9 1.5 1.1
v 0.9 1.3 0.1
v 0.9 1.5 0.1
v 0.9 1.3 -0.1
v 0.9 1.5 -0.1
v 0.9 0.2 -1.1
v 0.9 0.3 -1.1
v 0.9 0.5 -1.1
v 0.9 1.3 -1.1
v 0.9 1.5 -1.1
v 0.9 0.3 -1.2
v 0.9 0.4 -1.2
v 0.9 0.2 -1.3
v 0.9 0.4 -1.3
v 0.9 0.5 -1.3
v 0.9 1.3 -1.3
v 0.7 1.5 0.9
v 0.7 1.6 0.9
v 0.7 1.5 0.1
v 0.7 1.6 0.1
v 0.7 1.5 -0.1
v 0.7 1.6 -0.1
v 0.7 1.5 -0.9
v 0.7 1.6 -0.9
v -1 1.5 0.9
v -1 1.6 0.9
v -1 1.5 0.1
v -1 1.6 0.1
v -1 1.5 -0.1
v -1 1.6 -0.1
v -1 1.5 -0.9
v -1 1.6 -0.9
v -1.2 0.8 1.3
v -1.2 1.3 1.3
v -1.2 0.8 1.1
v -1.2 1.3 1.1
v -1.2 1.5 1.1
v -1.2 1.3 0.1
v -1.2 1.5 0.1
v -1.2 1.3 -0.1
v -1.2 1.5 -0.1
v -1.2 0.8 -1.1
v -1.2 1.3 -1.1
v -1.2 1.5 -1.1
v -1.2 0.8 -1.3
v -1.2 1.3 -1.3
v -1.5 0.4 1.3
v -1.5 0.8 1.3
v -1.5 0.4 1.1
v -1.5 0.8 1.1
v -1.5 1.3 1.1
v -1.5 0.8 0.1
v -1.5 1.3 0.1
v -1.5 0.8 -0.1
v -1.5 1.3 -0.1
v -1.5 0.4 -1.1
v -1.5 0.8 -1.1
v -1.5 1.3 -1.1
v -1.5 0.4 -1.3
v -1.5 0.8 -1.3
v -1.7 0.2 1.3
v -1.7 0.4 1.3
v -1.7 0.2 1.1
v -1.7 0.4 1.1
v -1.7 0.6 1.1
v -1.7 0.8 1.1
v -1.7 0.6 0.1
v -1.7 0.8 0.1
v -1.7 0.6 -0.1
v -1.7 0.8 -0.1
v -1.7 0.2 -1.1
v -1.7 0.4 -1.1
v -1.7 0.6 -1.1
v -1.7 0.8 -1.1
v -1.7 0.2 -1.3
v -1.7 0.4 -1.3
v -1.8 0 1.4
v -1.8 0.2 1.4
v -1.8 0 1.2
v -1.8 0.2 1.2
v -1.8 0 -1.2
v -1.8 0.2 -1.2
v -1.8 0 -1.4
v -1.8 0.2 -1.4
v -2.3 0.2 1.1
v -2.3 0.6 1.1
v -2.3 0.2 0.9
v -2.3 0.4 0.9
v -2.3 0.4 0.1
v -2.3 0.6 0.1
v -2.3 0.4 -0.1
v -2.3 0.6 -0.1
v -2.3 0.2 -0.9
v -2.3 0.4 -0.9
v -2.3 0.2 -1.1
v -2.3 0.6 -1.1
v -2.4 0 1.2
v -2.4 0.2 1.2
v -2.4 0 1
v -2.4 0.2 1
v -2.4 0 -1
v -2.4 0.2 -1
v -2.4 0 -1.2
v -2.4 0.2 -1.2
v -2.9 0.2 0.9
v -2.9 0.4 0.9
v -2.9 0.2 0.1
v -2.9 0.4 0.1
v -2.9 0.2 -0.1
v -2.9 0.4 -0.1
v -2.9 0.2 -0.9
v -2.9 0.4 -0.9
v -3 0 1
v -3 0.2 1
v -3 0 0.9
v -3 0.2 0.9
v -3 0 -0.9
v -3 0.2 -0.9
v -3 0 -1
v -3 0.2 -1
v -3.2 0 0.9
v -3.2 0.2 0.9
v -3.2 0 -0.9
v -3.2 0.2 -0.9
v 1.3 0 1.3
v 1.3 0 -1.3
v 1.1 0 1.4
v 1.1 0 1.3
v 1.1 0 -1.3
v 1.1 0 -1.4
v -1.8 0 1.4
v -1.8 0 1.2
v -1.8 0 -1.2
v -1.8 0 -1.4
v -2.4 0 1.2
v -2.4 0 1
v -2.4 0 -1
v -2.4 0 -1.2
v -3 0 1
v -3 0 0.9
v -3 0 -0.9
v -3 0 -1
v -3.2 0 0.9
v -3.2 0 -0.9
v 1.3 0.2 1.3
v 1.3 0.2 -1.3
v 1.1 0.2 1.4
v 1.1 0.2 1.3
v 1.1 0.2 1.1
v 1.1 0.2 0.1
v 1.1 0.2 -0.1
v 1.1 0.2 -1.1
v 1.1 0.2 -1.3
v 1.1 0.2 -1.4
v 0.9 0.2 1.3
v 0.9 0.2 1.1
v 0.9 0.2 -1.1
v 0.9 0.2 -1.3
v -1.7 0.2 1.3
v -1.7 0.2 1.1
v -1.7 0.2 -1.1
v -1.7 0.2 -1.3
v -1.8 0.2 1.4
v -1.8 0.2 1.2
v -1.8 0.2 -1.2
v -1.8 0.2 -1.4
v -2.3 0.2 1.1
v -2.3 0.2 0.9
v -2.3 0.2 -0.9
v -2.3 0.2 -1.1
v -2.4 0.2 1.2
v -2.4 0.2 1
v -2.4 0.2 -1
v -2.4 0.2 -1.2
v -2.9 0.2 0.9
v -2.9 0.2 0.1
v -2.9 0.2 -0.1
v -2.9 0.2 -0.9
v -3 0.2 1
v -3 0.2 0.9
v -3 0.2 -0.9
v -3 0.2 -1
v -3.2 0.2 0.9
v -3.2 0.2 -0.9
v -1.5 0.4 1.3
v -1.5 0.4 1.1
v -1.5 0.4 -1.1
v -1.5 0.4 -1.3
v -1.7 0.4 1.3
v -1.7 0.4 1.1
v -1.7 0.4 -1.1
v -1.7 0.4 -1.3
v -2.3 0.4 0.9
v -2.3 0.4 0.1
v -2.3 0.4 -0.1
v -2.3 0.4 -0.9
v -2.9 0.4 0.9
v -2.9 0.4 0.1
v -2.9 0.4 -0.1
v -2.9 0.4 -0.9
v -1.7 0.6 1.1
v -1.7 0.6 0.1
v -1.7 0.6 -0.1
v -1.7 0.6 -1.1
v -2.3 0.6 1.1
v -2.3 0.6 0.1
v -2.3 0.6 -0.1
v -2.3 0.6 -1.1
v -1.2 0.8 1.3
v -1.2 0.8 1.1
v -1.2 0.8 -1.1
v -1.2 0.8 -1.3
v -1.5 0.8 1.3
v -1.5 0.8 1.1
v -1.5 0.8 0.1
v -1.5 0.8 -0.1
v -1.5 0.8 -1.1
v -1.5 0.8 -1.3
v -1.7 0.8 1.1
v -1.7 0.8 0.1
v -1.7 0.8 -0.1
v -1.7 0.8 -1.1
v 1.1 1.3 1.1
v 1.1 1.3 0.1
v 1.1 1.3 -0.1
v 1.1 1.3 -1.1
v 0.9 1.3 1.3
v 0.9 1.3 1.1
v 0.9 1.3 0.1
v 0.9 1.3 -0.1
v 0.9 1.3 -1.1
v 0.9 1.3 -1.3
v -1.2 1.3 1.3
v -1.2 1.3 1.1
v -1.2 1.3 0.1
v -1.2 1.3 -0.1
v -1.2 1.3 -1.1
v -1.2 1.3 -1.3
v -1.5 1.3 1.1
v -1.5 1.3 0.1
v -1.5 1.3 -0.1
v -1.5 1.3 -1.1
v 0.9 1.5 1.1
v 0.9 1.5 0.1
v 0.9 1.5 -0.1
v 0.9 1.5 -1.1
v 0.7 1.5 0.9
v 0.7 1.5 0.1
v 0.7 1.5 -0.1
v 0.7 1.5 -0.9
v -1 1.5 0.9
v -1 1.5 0.1
v -1 1.5 -0.1
v -1 1.5 -0.9
v -1.2 1.5 1.1
v -1.2 1.5 0.1
v -1.2 1.5 -0.1
v -1.2 1.5 -1.1
v 0.7 1.6 0.9
v 0.7 1.6 0.1
v 0.7 1.6 -0.1
v 0.7 1.6 -0.9
v -0.2 1.6 0.6
v -0.2 1.6 0.1
v -0.2 1.6 -0.1
v -0.2 1.6 -0.6
v -0.3 1.6 0.6
v -0.3 1.6 0.1
v -0.3 1.6 -0.1
v -0.3 1.6 -0.6
v -0.5 1.6 0.3
v -0.5 1.6 0.1
v -0.5 1.6 -0.1
v -0.5 1.6 -0.3
v -0.6 1.6 0.3
v -0.6 1.6 0.1
v -0.6 1.6 -0.1
v -0.6 1.6 -0.3
v -1 1.6 0.9
v -1 1.6 0.1
v -1 1.6 -0.1
v -1 1.6 -0.9

# faces
f 3/2/1 2/2/1 1/2/1
f 4/2/1 2/2/1 3/2/1
f 7/2/1 6/2/1 5/2/1
f 8/2/1 6/2/1 7/2/1
f 11/2/1 10/2/1 9/2/1
f 12/2/1 10/2/1 11/2/1
f 13/2/1 10/2/1 12/2/1
f 14/2/1 10/2/1 13/2/1
f 15/1/1 12/1/1 11/1/1
f 16/2/1 13/2/1 12/2/1
f 16/1/1 12/1/1 15/1/1
f 17/2/1 16/2/1 15/2/1
f 17/2/1 13/2/1 16/2/1
f 18/2/1 13/2/1 17/2/1
f 19/2/1 17/2/1 15/2/1
f 20/2/1 17/2/1 19/2/1
f 23/2/1 22/2/1 21/2/1
f 24/2/1 22/2/1 23/2/1
f 29/2/1 26/2/1 25/2/1
f 31/2/1 28/2/1 27/2/1
f 32/2/1 29/2/1 25/2/1
f 33/2/1 31/2/1 30/2/1
f 33/2/1 28/2/1 31/2/1
f 34/2/1 28/2/1 33/2/1
f 36/2/1 33/2/1 30/2/1
f 37/2/1 33/2/1 36/2/1
f 38/2/1 32/2/1 25/2/1
f 39/2/1 32/2/1 38/2/1
f 40/2/1 36/2/1 35/2/1
f 41/2/1 36/2/1 40/2/1
f 42/2/1 40/2/1 39/2/1
f 43/2/1 40/2/1 42/2/1
f 46/2/1 45/2/1 44/2/1
f 47/2/1 45/2/1 46/2/1
f 52/2/1 49/2/1 48/2/1
f 53/2/1 49/2/1 52/2/1
f 54/2/1 51/2/1 50/2/1
f 55/2/1 51/2/1 54/2/1
f 58/2/1 57/2/1 56/2/1
f 59/2/1 57/2/1 58/2/1
f 60/2/2 61/2/2 64/2/2
f 64/2/2 61/2/2 65/2/2
f 62/2/2 63/2/2 66/2/2
f 66/2/2 63/2/2 67/2/2
f 68/2/2 69/2/2 70/2/2
f 70/2/2 69/2/2 71/2/2
f 72/2/2 73/2/2 74/2/2
f 74/2/2 73/2/2 75/2/2
f 76/2/2 77/2/2 80/2/2
f 78/2/2 79/2/2 82/2/2
f 76/2/2 80/2/2 83/2/2
f 81/2/2 82/2/2 84/2/2
f 82/2/2 79/2/2 84/2/2
f 84/2/2 79/2/2 85/2/2
f 81/2/2 84/2/2 87/2/2
f 87/2/2 84/2/2 88/2/2
f 76/2/2 83/2/2 89/2/2
f 89/2/2 83/2/2 90/2/2
f 86/2/2 87/2/2 91/2/2
f 91/2/2 87/2/2 92/2/2
f 90/2/2 91/2/2 93/2/2
f 93/2/2 91/2/2 94/2/2
f 95/2/2 96/2/2 97/2/2
f 97/2/2 96/2/2 98/2/2
f 99/2/2 100/2/2 101/2/2
f 101/2/2 100/2/2 102/2/2
f 103/2/2 104/2/2 105/2/2
f 105/2/2 104/2/2 106/2/2
f 106/2/2 104/2/2 107/2/2
f 107/2/2 104/2/2 108/2/2
f 105/1/2 106/1/2 109/1/2
f 106/2/2 107/2/2 110/2/2
f 109/1/2 106/1/2 110/1/2
f 109/2/2 110/2/2 111/2/2
f 110/2/2 107/2/2 111/2/2
f 111/2/2 107/2/2 112/2/2
f 109/2/2 111/2/2 113/2/2
f 113/2/2 111/2/2 114/2/2
f 115/2/2 116/2/2 117/2/2
f 117/2/2 116/2/2 118/2/2
f 121/2/3 120/2/3 119/2/3
f 122/2/3 120/2/3 121/2/3
f 125/2/3 124/2/3 123/2/3
f 126/2/3 124/2/3 125/2/3
f 129/2/3 128/2/3 127/2/3
f 130/2/3 128/2/3 129/2/3
f 131/2/3 128/2/3 130/2/3
f 132/2/3 128/2/3 131/2/3
f 133/2/3 128/2/3 132/2/3
f 134/2/3 128/2/3 133/2/3
f 135/2/3 129/2/3 127/2/3
f 136/1/3 130/1/3 129/1/3
f 136/2/3 129/2/3 135/2/3
f 137/2/3 131/2/3 130/2/3
f 137/1/3 130/1/3 136/1/3
f 138/1/3 132/1/3 131/1/3
f 138/2/3 131/2/3 137/2/3
f 139/2/3 133/2/3 132/2/3
f 139/1/3 132/1/3 138/1/3
f 140/1/3 134/1/3 133/1/3
f 140/2/3 133/2/3 139/2/3
f 141/2/3 128/2/3 134/2/3
f 141/1/3 134/1/3 140/1/3
f 142/2/3 128/2/3 141/2/3
f 143/1/3 140/1/3 139/1/3
f 143/1/3 136/1/3 135/1/3
f 143/1/3 142/1/3 141/1/3
f 143/1/3 141/1/3 140/1/3
f 143/1/3 139/1/3 138/1/3
f 143/1/3 138/1/3 137/1/3
f 143/1/3 137/1/3 136/1/3
f 144/1/3 142/1/3 143/1/3
f 145/1/3 142/1/3 144/1/3
f 146/1/3 142/1/3 145/1/3
f 147/1/3 142/1/3 146/1/3
f 148/1/3 142/1/3 147/1/3
f 149/1/3 142/1/3 148/1/3
f 150/1/3 142/1/3 149/1/3
f 151/2/3 146/2/3 145/2/3
f 151/1/3 147/1/3 146/1/3
f 152/2/3 148/2/3 147/2/3
f 152/1/3 147/1/3 151/1/3
f 153/1/3 149/1/3 148/1/3
f 153/2/3 148/2/3 152/2/3
f 154/2/3 150/2/3 149/2/3
f 154/1/3 149/1/3 153/1/3
f 155/2/3 144/2/3 143/2/3
f 155/1/3 145/1/3 144/1/3
f 156/2/3 154/2/3 153/2/3
f 156/1/3 145/1/3 155/1/3
f 156/2/3 153/2/3 152/2/3
f 156/2/3 152/2/3 151/2/3
f 156/2/3 151/2/3 145/2/3
f 157/2/3 155/2/3 143/2/3
f 157/2/3 156/2/3 155/2/3
f 158/2/3 150/2/3 154/2/3
f 158/2/3 156/2/3 157/2/3
f 158/2/3 154/2/3 156/2/3
f 161/2/3 160/2/3 159/2/3
f 162/2/3 160/2/3 161/2/3
f 167/2/3 164/2/3 163/2/3
f 168/1/3 165/1/3 164/1/3
f 168/2/3 164/2/3 167/2/3
f 169/2/3 167/2/3 163/2/3
f 170/1/3 168/1/3 167/1/3
f 170/2/3 167/2/3 169/2/3
f 171/2/3 166/2/3 165/2/3
f 171/1/3 168/1/3 170/1/3
f 171/1/3 165/1/3 168/1/3
f 172/2/3 166/2/3 171/2/3
f 174/2/3 173/2/3 172/2/3
f 175/2/3 173/2/3 174/2/3
f 176/1/3 175/1/3 174/1/3
f 177/1/3 175/1/3 176/1/3
f 181/2/3 177/2/3 176/2/3
f 182/2/3 177/2/3 181/2/3
f 183/1/3 180/1/3 179/1/3
f 183/2/3 179/2/3 178/2/3
f 184/1/3 180/1/3 183/1/3
f 185/2/3 183/2/3 178/2/3
f 185/2/3 184/2/3 183/2/3
f 186/1/3 180/1/3 184/1/3
f 186/2/3 184/2/3 185/2/3
f 187/2/3 181/2/3 180/2/3
f 187/1/3 180/1/3 186/1/3
f 188/2/3 181/2/3 187/2/3
f 191/2/3 190/2/3 189/2/3
f 192/2/3 190/2/3 191/2/3
f 193/1/3 192/1/3 191/1/3
f 194/1/3 192/1/3 193/1/3
f 195/2/3 194/2/3 193/2/3
f 196/2/3 194/2/3 195/2/3
f 197/2/4 198/2/4 199/2/4
f 199/2/4 198/2/4 200/2/4
f 199/1/4 200/1/4 201/1/4
f 201/1/4 200/1/4 202/1/4
f 201/2/4 202/2/4 203/2/4
f 203/2/4 202/2/4 204/2/4
f 205/2/4 206/2/4 207/2/4
f 207/2/4 206/2/4 208/2/4
f 208/2/4 209/2/4 210/2/4
f 210/2/4 209/2/4 211/2/4
f 210/1/4 211/1/4 212/1/4
f 212/1/4 211/1/4 213/1/4
f 212/2/4 213/2/4 215/2/4
f 215/2/4 213/2/4 216/2/4
f 214/2/4 215/2/4 217/2/4
f 217/2/4 215/2/4 218/2/4
f 219/2/4 220/2/4 221/2/4
f 221/2/4 220/2/4 222/2/4
f 222/2/4 223/2/4 224/2/4
f 224/2/4 223/2/4 225/2/4
f 224/1/4 225/1/4 226/1/4
f 226/1/4 225/1/4 227/1/4
f 226/2/4 227/2/4 229/2/4
f 229/2/4 227/2/4 230/2/4
f 228/2/4 229/2/4 231/2/4
f 231/2/4 229/2/4 232/2/4
f 233/2/4 234/2/4 235/2/4
f 235/2/4 234/2/4 236/2/4
f 237/2/4 238/2/4 239/2/4
f 239/2/4 238/2/4 240/2/4
f 239/1/4 240/1/4 241/1/4
f 241/1/4 240/1/4 242/1/4
f 241/2/4 242/2/4 245/2/4
f 245/2/4 242/2/4 246/2/4
f 243/2/4 244/2/4 247/2/4
f 247/2/4 244/2/4 248/2/4
f 249/2/4 250/2/4 251/2/4
f 251/2/4 250/2/4 252/2/4
f 253/2/4 254/2/4 255/2/4
f 255/2/4 254/2/4 256/2/4
f 257/2/4 258/2/4 259/2/4
f 259/2/4 258/2/4 260/2/4
f 260/2/4 258/2/4 261/2/4
f 261/2/4 258/2/4 262/2/4
f 261/1/4 262/1/4 263/1/4
f 263/1/4 262/1/4 264/1/4
f 263/2/4 264/2/4 266/2/4
f 265/2/4 266/2/4 267/2/4
f 266/2/4 264/2/4 268/2/4
f 267/2/4 266/2/4 268/2/4
f 269/2/4 270/2/4 271/2/4
f 271/2/4 270/2/4 272/2/4
f 273/2/4 274/2/4 275/2/4
f 275/2/4 274/2/4 276/2/4
f 277/2/4 278/2/4 279/2/4
f 279/2/4 278/2/4 280/2/4
f 279/1/4 280/1/4 281/1/4
f 281/1/4 280/1/4 282/1/4
f 281/2/4 282/2/4 283/2/4
f 283/2/4 282/2/4 284/2/4
f 285/2/4 286/2/4 287/2/4
f 287/2/4 286/2/4 288/2/4
f 289/2/4 290/2/4 291/2/4
f 291/2/4 290/2/4 292/2/4
f 293/2/4 294/2/4 295/2/4
f 295/2/4 294/2/4 296/2/4
f 300/2/5 298/2/5 297/2/5
f 301/2/5 298/2/5 300/2/5
f 303/2/5 300/2/5 299/2/5
f 303/2/5 302/2/5 301/2/5
f 303/2/5 301/2/5 300/2/5
f 304/2/5 302/2/5 303/2/5
f 305/2/5 302/2/5 304/2/5
f 306/2/5 302/2/5 305/2/5
f 307/2/5 305/2/5 304/2/5
f 308/2/5 305/2/5 307/2/5
f 309/2/5 305/2/5 308/2/5
f 310/2/5 305/2/5 309/2/5
f 311/2/5 309/2/5 308/2/5
f 312/2/5 309/2/5 311/2/5
f 313/2/5 309/2/5 312/2/5
f 314/2/5 309/2/5 313/2/5
f 315/2/5 313/2/5 312/2/5
f 316/2/5 313/2/5 315/2/5
f 317/2/6 318/2/6 320/2/6
f 320/2/6 318/2/6 321/2/6
f 321/2/6 318/2/6 322/2/6
f 322/2/6 318/2/6 323/2/6
f 323/2/6 318/2/6 324/2/6
f 324/2/6 318/2/6 325/2/6
f 319/2/6 320/2/6 327/2/6
f 320/2/6 321/2/6 327/2/6
f 327/2/6 321/2/6 328/2/6
f 325/2/6 326/2/6 329/2/6
f 324/2/6 325/2/6 329/2/6
f 329/2/6 326/2/6 330/2/6
f 319/2/6 327/2/6 331/2/6
f 330/2/6 326/2/6 334/2/6
f 331/2/6 332/2/6 335/2/6
f 319/2/6 331/2/6 335/2/6
f 335/2/6 332/2/6 336/2/6
f 333/2/6 334/2/6 337/2/6
f 334/2/6 326/2/6 338/2/6
f 337/2/6 334/2/6 338/2/6
f 336/2/6 332/2/6 339/2/6
f 333/2/6 337/2/6 342/2/6
f 339/2/6 340/2/6 343/2/6
f 336/2/6 339/2/6 343/2/6
f 343/2/6 340/2/6 344/2/6
f 341/2/6 342/2/6 345/2/6
f 342/2/6 337/2/6 346/2/6
f 345/2/6 342/2/6 346/2/6
f 344/2/6 340/2/6 347/2/6
f 341/2/6 345/2/6 350/2/6
f 348/2/6 349/2/6 351/2/6
f 349/2/6 350/2/6 351/2/6
f 344/2/6 347/2/6 351/2/6
f 347/2/6 348/2/6 351/2/6
f 351/2/6 350/2/6 352/2/6
f 350/2/6 345/2/6 353/2/6
f 352/2/6 350/2/6 353/2/6
f 353/2/6 345/2/6 354/2/6
f 352/2/6 353/2/6 355/2/6
f 355/2/6 353/2/6 356/2/6
f 357/2/6 358/2/6 361/2/6
f 361/2/6 358/2/6 362/2/6
f 359/2/6 360/2/6 363/2/6
f 363/2/6 360/2/6 364/2/6
f 365/2/6 366/2/6 369/2/6
f 366/1/6 367/1/6 370/1/6
f 369/2/6 366/2/6 370/2/6
f 367/2/6 368/2/6 371/2/6
f 370/1/6 367/1/6 371/1/6
f 371/2/6 368/2/6 372/2/6
f 373/2/6 374/2/6 377/2/6
f 374/1/6 375/1/6 378/1/6
f 377/2/6 374/2/6 378/2/6
f 375/2/6 376/2/6 379/2/6
f 378/1/6 375/1/6 379/1/6
f 379/2/6 376/2/6 380/2/6
f 381/2/6 382/2/6 385/2/6
f 385/2/6 382/2/6 386/2/6
f 383/2/6 384/2/6 389/2/6
f 389/2/6 384/2/6 390/2/6
f 386/2/6 387/2/6 391/2/6
f 387/1/6 388/1/6 392/1/6
f 391/2/6 387/2/6 392/2/6
f 388/2/6 389/2/6 393/2/6
f 392/1/6 388/1/6 393/1/6
f 393/2/6 389/2/6 394/2/6
f 395/2/6 396/2/6 400/2/6
f 396/1/6 397/1/6 401/1/6
f 400/2/6 396/2/6 401/2/6
f 397/2/6 398/2/6 402/2/6
f 401/1/6 397/1/6 402/1/6
f 402/2/6 398/2/6 403/2/6
f 399/2/6 400/2/6 405/2/6
f 405/2/6 400/2/6 406/2/6
f 403/2/6 404/2/6 409/2/6
f 409/2/6 404/2/6 410/2/6
f 406/2/6 407/2/6 411/2/6
f 407/1/6 408/1/6 412/1/6
f 411/2/6 407/2/6 412/2/6
f 408/2/6 409/2/6 413/2/6
f 412/1/6 408/1/6 413/1/6
f 413/2/6 409/2/6 414/2/6
f 415/2/6 416/2/6 419/2/6
f 416/1/6 417/1/6 420/1/6
f 419/2/6 416/2/6 420/2/6
f 417/2/6 418/2/6 421/2/6
f 420/1/6 417/1/6 421/1/6
f 421/2/6 418/2/6 422/2/6
f 415/2/6 419/2/6 423/2/6
f 422/2/6 418/2/6 426/2/6
f 415/2/6 423/2/6 427/2/6
f 423/2/6 424/2/6 427/2/6
f 424/1/6 425/1/6 428/1/6
f 427/2/6 424/2/6 428/2/6
f 425/2/6 426/2/6 429/2/6
f 428/1/6 425/1/6 429/1/6
f 426/2/6 418/2/6 430/2/6
f 429/2/6 426/2/6 430/2/6
f 431/2/6 432/2/6 435/2/6
f 432/1/6 433/1/6 436/1/6
f 435/2/6 432/2/6 436/2/6
f 433/2/6 434/2/6 437/2/6
f 436/1/6 433/1/6 437/1/6
f 437/2/6 434/2/6 438/2/6
f 435/1/6 436/1/6 439/1/6
f 431/2/6 435/2/6 439/2/6
f 437/1/6 438/1/6 439/1/6
f 436/1/6 437/1/6 439/1/6
f 439/1/6 438/1/6 440/1/6
f 440/1/6 438/1/6 441/1/6
f 438/2/6 434/2/6 442/2/6
f 441/1/6 438/1/6 442/1/6
f 439/2/6 440/2/6 443/2/6
f 440/1/6 441/1/6 444/1/6
f 443/2/6 440/2/6 444/2/6
f 441/2/6 442/2/6 445/2/6
f 444/1/6 441/1/6 445/1/6
f 445/2/6 442/2/6 446/2/6
f 439/2/6 443/2/6 447/2/6
f 443/1/6 444/1/6 447/1/6
f 445/1/6 446/1/6 447/1/6
f 444/1/6 445/1/6 447/1/6
f 447/1/6 446/1/6 448/1/6
f 448/1/6 446/1/6 449/1/6
f 446/2/6 442/2/6 450/2/6
f 449/1/6 446/1/6 450/1/6
f 431/2/6 439/2/6 451/2/6
f 439/2/6 447/2/6 451/2/6
f 447/2/6 448/2/6 451/2/6
f 448/1/6 449/1/6 452/1/6
f 451/2/6 448/2/6 452/2/6
f 449/2/6 450/2/6 453/2/6
f 452/1/6 449/1/6 453/1/6
f 450/2/6 442/2/6 454/2/6
f 453/2/6 450/2/6 454/2/6
f 442/2/6 434/2/6 454/2/6
