# MagicaVoxel @ Ephtracy

# group
o 

# material
mtllib model.mtl
usemtl palette

# normals
vn -1 0 0
vn 1 0 0
vn 0 0 1
vn 0 0 -1
vn 0 -1 0
vn 0 1 0

# texcoords
vt 0.0722656 0.5
vt 0.169922 0.5
vt 0.177734 0.5
vt 0.205078 0.5
vt 0.517578 0.5
vt 0.599609 0.5

# verts
v -1.4 0 1.1
v -1.4 0 -1.1
v -1.4 0.2 1.4
v -1.4 0.2 1.1
v -1.4 0.2 -1.1
v -1.4 0.2 -1.4
v -1.4 0.4 0.8
v -1.4 0.4 -0.8
v -1.4 0.6 1.4
v -1.4 0.6 0.8
v -1.4 0.6 -0.8
v -1.4 0.6 -1.4
v -1.2 0.2 1.6
v -1.2 0.2 1.4
v -1.2 0.2 -1.4
v -1.2 0.2 -1.6
v -1.2 0.6 1.6
v -1.2 0.6 1.4
v -1.2 0.6 -1.4
v -1.2 0.6 -1.6
v -1 0.3 0.9
v -1 0.3 -0.9
v -1 0.5 1
v -1 0.5 0.9
v -1 0.5 -0.9
v -1 0.5 -1
v -1 0.9 1
v -1 0.9 -1
v -1 2.4 1
v -1 2.4 -1
v -0.8 0.5 1.2
v -0.8 0.5 1
v -0.8 0.5 -1
v -0.8 0.5 -1.2
v -0.8 0.9 1.2
v -0.8 0.9 1
v -0.8 0.9 -1
v -0.8 0.9 -1.2
v -0.8 2.4 1.2
v -0.8 2.4 1
v -0.8 2.4 -1
v -0.8 2.4 -1.2
v 0.5 0.5 1.4
v 0.5 0.5 1.2
v 0.5 0.6 1.4
v 0.5 0.8 1.6
v 0.5 0.8 1.4
v 0.5 0.9 1.2
v 0.5 1 1.6
v 0.5 1 1.4
v 0.5 1.1 1.8
v 0.5 1.1 1.4
v 0.5 1.3 1.8
v 0.5 1.3 1.5
v 0.5 1.4 1.9
v 0.5 1.4 1.5
v 0.5 1.4 1.3
v 0.5 1.4 1.2
v 0.5 1.6 1.9
v 0.5 1.6 1.7
v 0.5 1.7 2
v 0.5 1.7 1.7
v 0.5 1.7 1.5
v 0.5 1.7 1.3
v 0.5 1.9 2
v 0.5 1.9 1.5
v 0.6 2.3 1
v 0.6 2.3 0.8
v 0.6 2.3 -0.8
v 0.6 2.3 -1
v 0.6 2.4 1
v 0.6 2.4 0.8
v 0.6 2.4 -0.8
v 0.6 2.4 -1
v 0.8 2.3 0.8
v 0.8 2.3 -0.8
v 0.8 2.4 0.8
v 0.8 2.4 -0.8
v 1 0.5 1.4
v 1 0.5 1.2
v 1 0.5 -1.2
v 1 0.5 -1.4
v 1 0.6 1.4
v 1 0.6 1.2
v 1 0.6 -1.2
v 1 0.6 -1.4
v 1.1 0.3 0.9
v 1.1 0.3 -0.2
v 1.1 0.3 -0.9
v 1.1 0.5 1
v 1.1 0.5 0.9
v 1.1 0.5 -0.9
v 1.1 0.6 -0.2
v 1.1 0.6 -0.3
v 1.1 0.6 -0.8
v 1.1 0.6 -0.9
v 1.1 0.7 -0.3
v 1.1 0.7 -0.8
v 1.1 1 1
v 1.1 1 0.9
v 1.1 1 -0.1
v 1.1 1 -0.2
v 1.1 1.1 0.9
v 1.1 1.1 0.7
v 1.1 1.1 0.0999999
v 1.1 1.1 -0.1
v 1.1 1.2 0.7
v 1.1 1.2 0.0999999
v 1.2 0.5 1.2
v 1.2 0.5 1
v 1.2 0.5 -0.9
v 1.2 0.5 -1.2
v 1.2 0.6 1.2
v 1.2 0.6 1
v 1.2 0.6 -0.9
v 1.2 0.6 -1.2
v -1.2 0.3 0.9
v -1.2 0.3 -0.9
v -1.2 0.4 0.8
v -1.2 0.4 -0.8
v -1.2 0.5 1.2
v -1.2 0.5 0.9
v -1.2 0.5 -0.9
v -1.2 0.5 -1.2
v -1.2 0.6 1.2
v -1.2 0.6 0.8
v -1.2 0.6 -0.8
v -1.2 0.6 -1.2
v -1 0.5 1.4
v -1 0.5 1.2
v -1 0.5 -1.2
v -1 0.5 -1.4
v -1 0.6 1.4
v -1 0.6 1.2
v -1 0.6 -1.2
v -1 0.6 -1.4
v -0.8 2.3 0.8
v -0.8 2.3 -0.8
v -0.8 2.4 0.8
v -0.8 2.4 -0.8
v -0.6 2.3 1
v -0.6 2.3 0.8
v -0.6 2.3 -0.8
v -0.6 2.3 -1
v -0.6 2.4 1
v -0.6 2.4 0.8
v -0.6 2.4 -0.8
v -0.6 2.4 -1
v 0.6 0.5 1.4
v 0.6 0.5 1.2
v 0.6 0.6 1.4
v 0.6 0.8 1.6
v 0.6 0.8 1.4
v 0.6 0.9 1.2
v 0.6 1 1.6
v 0.6 1 1.4
v 0.6 1.1 1.8
v 0.6 1.1 1.4
v 0.6 1.3 1.8
v 0.6 1.3 1.5
v 0.6 1.4 1.9
v 0.6 1.4 1.5
v 0.6 1.4 1.3
v 0.6 1.4 1.2
v 0.6 1.6 1.9
v 0.6 1.6 1.7
v 0.6 1.7 2
v 0.6 1.7 1.7
v 0.6 1.7 1.5
v 0.6 1.7 1.3
v 0.6 1.9 2
v 0.6 1.9 1.5
v 0.8 0.5 1.2
v 0.8 0.5 1
v 0.8 0.5 -1
v 0.8 0.5 -1.2
v 0.8 0.9 1.2
v 0.8 0.9 1
v 0.8 0.9 -1
v 0.8 0.9 -1.2
v 0.8 2.4 1.2
v 0.8 2.4 1
v 0.8 2.4 -1
v 0.8 2.4 -1.2
v 1 0.3 0.9
v 1 0.3 -0.9
v 1 0.5 1
v 1 0.5 0.9
v 1 0.5 -0.9
v 1 0.5 -1
v 1 0.9 1
v 1 0.9 -1
v 1 2.4 1
v 1 2.4 -1
v 1.2 0.2 1.6
v 1.2 0.2 1.4
v 1.2 0.2 -1.4
v 1.2 0.2 -1.6
v 1.2 0.6 1.6
v 1.2 0.6 1.4
v 1.2 0.6 -1.4
v 1.2 0.6 -1.6
v 1.4 0 1.1
v 1.4 0 0.8
v 1.4 0 0.6
v 1.4 0 0.5
v 1.4 0 0.3
v 1.4 0 0.2
v 1.4 0 -2.38419e-07
v 1.4 0 -0.3
v 1.4 0 -0.4
v 1.4 0 -0.5
v 1.4 0 -0.6
v 1.4 0 -0.7
v 1.4 0 -0.8
v 1.4 0 -1.1
v 1.4 0.1 0.6
v 1.4 0.1 0.5
v 1.4 0.1 0.3
v 1.4 0.1 0.2
v 1.4 0.1 -0.4
v 1.4 0.1 -0.5
v 1.4 0.1 -0.6
v 1.4 0.1 -0.7
v 1.4 0.2 1.4
v 1.4 0.2 1.1
v 1.4 0.2 -0.2
v 1.4 0.2 -0.3
v 1.4 0.2 -0.5
v 1.4 0.2 -0.6
v 1.4 0.2 -0.8
v 1.4 0.2 -0.9
v 1.4 0.2 -1.1
v 1.4 0.2 -1.4
v 1.4 0.3 1
v 1.4 0.3 0.8
v 1.4 0.3 -2.38419e-07
v 1.4 0.3 -0.2
v 1.4 0.3 -0.3
v 1.4 0.3 -0.5
v 1.4 0.3 -0.6
v 1.4 0.3 -0.8
v 1.4 0.5 -0.3
v 1.4 0.5 -0.5
v 1.4 0.5 -0.6
v 1.4 0.5 -0.8
v 1.4 0.6 1.4
v 1.4 0.6 1
v 1.4 0.6 -0.9
v 1.4 0.6 -1.4
v 1.5 0 -0.3
v 1.5 0 -0.4
v 1.5 0 -0.5
v 1.5 0 -0.6
v 1.5 0 -0.7
v 1.5 0 -0.8
v 1.5 0.1 -0.4
v 1.5 0.1 -0.5
v 1.5 0.1 -0.6
v 1.5 0.1 -0.7
v 1.5 0.2 -0.2
v 1.5 0.2 -0.3
v 1.5 0.2 -0.5
v 1.5 0.2 -0.6
v 1.5 0.2 -0.8
v 1.5 0.2 -0.9
v 1.5 0.3 0.5
v 1.5 0.3 0.3
v 1.5 0.3 -0.2
v 1.5 0.3 -0.3
v 1.5 0.3 -0.5
v 1.5 0.3 -0.6
v 1.5 0.3 -0.8
v 1.5 0.4 0.5
v 1.5 0.4 0.3
v 1.5 0.5 0.9
v 1.5 0.5 0.5
v 1.5 0.5 0.3
v 1.5 0.5 -0.1
v 1.5 0.5 -0.3
v 1.5 0.5 -0.5
v 1.5 0.5 -0.6
v 1.5 0.5 -0.8
v 1.5 0.6 -0.2
v 1.5 0.6 -0.3
v 1.5 0.6 -0.8
v 1.5 0.6 -0.9
v 1.5 0.7 0.9
v 1.5 0.7 0.8
v 1.5 0.7 -2.38419e-07
v 1.5 0.7 -0.1
v 1.5 0.7 -0.3
v 1.5 0.7 -0.8
v 1.5 0.8 0.8
v 1.5 0.8 0.5
v 1.5 0.8 0.3
v 1.5 0.8 -2.38419e-07
v 1.6 0 0.8
v 1.6 0 0.6
v 1.6 0 0.5
v 1.6 0 0.3
v 1.6 0 0.2
v 1.6 0 -2.38419e-07
v 1.6 0.1 0.6
v 1.6 0.1 0.5
v 1.6 0.1 0.3
v 1.6 0.1 0.2
v 1.6 0.3 1
v 1.6 0.3 0.8
v 1.6 0.3 0.5
v 1.6 0.3 0.3
v 1.6 0.3 -2.38419e-07
v 1.6 0.3 -0.2
v 1.6 0.4 0.5
v 1.6 0.4 0.3
v 1.6 0.5 0.9
v 1.6 0.5 0.5
v 1.6 0.5 0.3
v 1.6 0.5 -0.1
v 1.6 0.7 0.9
v 1.6 0.7 0.8
v 1.6 0.7 -2.38419e-07
v 1.6 0.7 -0.1
v 1.6 0.8 0.8
v 1.6 0.8 0.5
v 1.6 0.8 0.3
v 1.6 0.8 -2.38419e-07
v 1.6 1 1
v 1.6 1 0.9
v 1.6 1 -0.1
v 1.6 1 -0.2
v 1.6 1.1 0.9
v 1.6 1.1 0.7
v 1.6 1.1 0.0999999
v 1.6 1.1 -0.1
v 1.6 1.2 0.7
v 1.6 1.2 0.0999999
v 0.5 1.7 2
v 0.5 1.9 2
v 0.6 1.7 2
v 0.6 1.9 2
v 0.5 1.4 1.9
v 0.5 1.6 1.9
v 0.6 1.4 1.9
v 0.6 1.6 1.9
v 0.5 1.1 1.8
v 0.5 1.3 1.8
v 0.6 1.1 1.8
v 0.6 1.3 1.8
v 0.5 1.6 1.7
v 0.5 1.7 1.7
v 0.6 1.6 1.7
v 0.6 1.7 1.7
v -1.2 0.2 1.6
v -1.2 0.6 1.6
v 0.5 0.8 1.6
v 0.5 1 1.6
v 0.6 0.8 1.6
v 0.6 1 1.6
v 1.2 0.2 1.6
v 1.2 0.6 1.6
v 0.5 1.3 1.5
v 0.5 1.4 1.5
v 0.6 1.3 1.5
v 0.6 1.4 1.5
v -1.4 0.2 1.4
v -1.4 0.6 1.4
v -1.2 0.2 1.4
v -1.2 0.6 1.4
v 0.5 0.6 1.4
v 0.5 0.8 1.4
v 0.5 1 1.4
v 0.5 1.1 1.4
v 0.6 0.6 1.4
v 0.6 0.8 1.4
v 0.6 1 1.4
v 0.6 1.1 1.4
v 1.2 0.2 1.4
v 1.2 0.6 1.4
v 1.4 0.2 1.4
v 1.4 0.6 1.4
v -0.8 0.5 1.2
v -0.8 0.9 1.2
v -0.8 2.4 1.2
v 0.5 0.5 1.2
v 0.5 0.9 1.2
v 0.5 1.4 1.2
v 0.6 0.5 1.2
v 0.6 0.9 1.2
v 0.6 1.4 1.2
v 0.8 0.5 1.2
v 0.8 0.9 1.2
v 0.8 2.4 1.2
v -1.4 0 1.1
v -1.4 0.2 1.1
v 1.4 0 1.1
v 1.4 0.2 1.1
v -1 0.5 1
v -1 0.9 1
v -1 2.4 1
v -0.8 0.5 1
v -0.8 0.9 1
v -0.8 2.4 1
v 0.8 0.5 1
v 0.8 0.9 1
v 0.8 2.4 1
v 1 0.5 1
v 1 0.9 1
v 1 2.4 1
v 1.1 0.5 1
v 1.1 1 1
v 1.2 0.5 1
v 1.2 0.6 1
v 1.4 0.3 1
v 1.4 0.6 1
v 1.6 0.3 1
v 1.6 1 1
v 1.1 1 0.9
v 1.1 1.1 0.9
v 1.6 1 0.9
v 1.6 1.1 0.9
v 1.4 0 0.8
v 1.4 0.3 0.8
v 1.6 0 0.8
v 1.6 0.3 0.8
v 1.1 1.1 0.7
v 1.1 1.2 0.7
v 1.6 1.1 0.7
v 1.6 1.2 0.7
v 1.4 0 0.5
v 1.4 0.1 0.5
v 1.5 0.5 0.5
v 1.5 0.8 0.5
v 1.6 0 0.5
v 1.6 0.1 0.5
v 1.6 0.5 0.5
v 1.6 0.8 0.5
v 1.5 0.3 0.3
v 1.5 0.4 0.3
v 1.6 0.3 0.3
v 1.6 0.4 0.3
v 1.4 0 0.2
v 1.4 0.1 0.2
v 1.6 0 0.2
v 1.6 0.1 0.2
v 1.5 0.7 -2.38419e-07
v 1.5 0.8 -2.38419e-07
v 1.6 0.7 -2.38419e-07
v 1.6 0.8 -2.38419e-07
v 1.5 0.5 -0.1
v 1.5 0.7 -0.1
v 1.6 0.5 -0.1
v 1.6 0.7 -0.1
v 1.4 0.2 -0.2
v 1.4 0.3 -0.2
v 1.5 0.2 -0.2
v 1.5 0.3 -0.2
v 1.1 0.6 -0.3
v 1.1 0.7 -0.3
v 1.4 0 -0.3
v 1.4 0.2 -0.3
v 1.5 0 -0.3
v 1.5 0.2 -0.3
v 1.5 0.6 -0.3
v 1.5 0.7 -0.3
v 1.4 0 -0.5
v 1.4 0.1 -0.5
v 1.4 0.3 -0.5
v 1.4 0.5 -0.5
v 1.5 0 -0.5
v 1.5 0.1 -0.5
v 1.5 0.3 -0.5
v 1.5 0.5 -0.5
v 1.4 0.2 -0.6
v 1.4 0.3 -0.6
v 1.5 0.2 -0.6
v 1.5 0.3 -0.6
v 1.4 0 -0.7
v 1.4 0.1 -0.7
v 1.5 0 -0.7
v 1.5 0.1 -0.7
v -1.4 0.4 -0.8
v -1.4 0.6 -0.8
v -1.2 0.4 -0.8
v -1.2 0.6 -0.8
v -0.8 2.3 -0.8
v -0.8 2.4 -0.8
v -0.6 2.3 -0.8
v -0.6 2.4 -0.8
v 0.6 2.3 -0.8
v 0.6 2.4 -0.8
v 0.8 2.3 -0.8
v 0.8 2.4 -0.8
v 1.4 0.3 -0.8
v 1.4 0.5 -0.8
v 1.5 0.3 -0.8
v 1.5 0.5 -0.8
v -1.2 0.3 -0.9
v -1.2 0.5 -0.9
v -1 0.3 -0.9
v -1 0.5 -0.9
v 1 0.3 -0.9
v 1 0.5 -0.9
v 1.1 0.3 -0.9
v 1.1 0.5 -0.9
v -0.6 2.3 -1
v -0.6 2.4 -1
v 0.6 2.3 -1
v 0.6 2.4 -1
v -1.2 0.5 -1.2
v -1.2 0.6 -1.2
v -1 0.5 -1.2
v -1 0.6 -1.2
v 1 0.5 -1.2
v 1 0.6 -1.2
v 1.2 0.5 -1.2
v 1.2 0.6 -1.2
v -1 0.5 -1.4
v -1 0.6 -1.4
v 1 0.5 -1.4
v 1 0.6 -1.4
v 0.5 1.7 1.5
v 0.5 1.9 1.5
v 0.6 1.7 1.5
v 0.6 1.9 1.5
v -1 0.5 1.4
v -1 0.6 1.4
v 0.5 0.5 1.4
v 0.5 0.6 1.4
v 0.6 0.5 1.4
v 0.6 0.6 1.4
v 1 0.5 1.4
v 1 0.6 1.4
v 0.5 1.4 1.3
v 0.5 1.7 1.3
v 0.6 1.4 1.3
v 0.6 1.7 1.3
v -1.2 0.5 1.2
v -1.2 0.6 1.2
v -1 0.5 1.2
v -1 0.6 1.2
v 1 0.5 1.2
v 1 0.6 1.2
v 1.2 0.5 1.2
v 1.2 0.6 1.2
v -0.6 2.3 1
v -0.6 2.4 1
v 0.6 2.3 1
v 0.6 2.4 1
v -1.2 0.3 0.9
v -1.2 0.5 0.9
v -1 0.3 0.9
v -1 0.5 0.9
v 1 0.3 0.9
v 1 0.5 0.9
v 1.1 0.3 0.9
v 1.1 0.5 0.9
v 1.5 0.5 0.9
v 1.5 0.7 0.9
v 1.6 0.5 0.9
v 1.6 0.7 0.9
v -1.4 0.4 0.8
v -1.4 0.6 0.8
v -1.2 0.4 0.8
v -1.2 0.6 0.8
v -0.8 2.3 0.8
v -0.8 2.4 0.8
v -0.6 2.3 0.8
v -0.6 2.4 0.8
v 0.6 2.3 0.8
v 0.6 2.4 0.8
v 0.8 2.3 0.8
v 0.8 2.4 0.8
v 1.5 0.7 0.8
v 1.5 0.8 0.8
v 1.6 0.7 0.8
v 1.6 0.8 0.8
v 1.4 0 0.6
v 1.4 0.1 0.6
v 1.6 0 0.6
v 1.6 0.1 0.6
v 1.5 0.3 0.5
v 1.5 0.4 0.5
v 1.6 0.3 0.5
v 1.6 0.4 0.5
v 1.4 0 0.3
v 1.4 0.1 0.3
v 1.5 0.5 0.3
v 1.5 0.8 0.3
v 1.6 0 0.3
v 1.6 0.1 0.3
v 1.6 0.5 0.3
v 1.6 0.8 0.3
v 1.1 1.1 0.0999999
v 1.1 1.2 0.0999999
v 1.6 1.1 0.0999999
v 1.6 1.2 0.0999999
v 1.4 0 -2.38419e-07
v 1.4 0.3 -2.38419e-07
v 1.6 0 -2.38419e-07
v 1.6 0.3 -2.38419e-07
v 1.1 1 -0.1
v 1.1 1.1 -0.1
v 1.6 1 -0.1
v 1.6 1.1 -0.1
v 1.1 0.6 -0.2
v 1.1 1 -0.2
v 1.5 0.3 -0.2
v 1.5 0.6 -0.2
v 1.6 0.3 -0.2
v 1.6 1 -0.2
v 1.4 0.3 -0.3
v 1.4 0.5 -0.3
v 1.5 0.3 -0.3
v 1.5 0.5 -0.3
v 1.4 0 -0.4
v 1.4 0.1 -0.4
v 1.5 0 -0.4
v 1.5 0.1 -0.4
v 1.4 0.2 -0.5
v 1.4 0.3 -0.5
v 1.5 0.2 -0.5
v 1.5 0.3 -0.5
v 1.4 0 -0.6
v 1.4 0.1 -0.6
v 1.4 0.3 -0.6
v 1.4 0.5 -0.6
v 1.5 0 -0.6
v 1.5 0.1 -0.6
v 1.5 0.3 -0.6
v 1.5 0.5 -0.6
v 1.1 0.6 -0.8
v 1.1 0.7 -0.8
v 1.4 0 -0.8
v 1.4 0.2 -0.8
v 1.5 0 -0.8
v 1.5 0.2 -0.8
v 1.5 0.6 -0.8
v 1.5 0.7 -0.8
v 1.1 0.5 -0.9
v 1.1 0.6 -0.9
v 1.2 0.5 -0.9
v 1.2 0.6 -0.9
v 1.4 0.2 -0.9
v 1.4 0.6 -0.9
v 1.5 0.2 -0.9
v 1.5 0.6 -0.9
v -1 0.5 -1
v -1 0.9 -1
v -1 2.4 -1
v -0.8 0.5 -1
v -0.8 0.9 -1
v -0.8 2.4 -1
v 0.8 0.5 -1
v 0.8 0.9 -1
v 0.8 2.4 -1
v 1 0.5 -1
v 1 0.9 -1
v 1 2.4 -1
v -1.4 0 -1.1
v -1.4 0.2 -1.1
v 1.4 0 -1.1
v 1.4 0.2 -1.1
v -0.8 0.5 -1.2
v -0.8 0.9 -1.2
v -0.8 2.4 -1.2
v 0.8 0.5 -1.2
v 0.8 0.9 -1.2
v 0.8 2.4 -1.2
v -1.4 0.2 -1.4
v -1.4 0.6 -1.4
v -1.2 0.2 -1.4
v -1.2 0.6 -1.4
v 1.2 0.2 -1.4
v 1.2 0.6 -1.4
v 1.4 0.2 -1.4
v 1.4 0.6 -1.4
v -1.2 0.2 -1.6
v -1.2 0.6 -1.6
v 1.2 0.2 -1.6
v 1.2 0.6 -1.6
v -1.4 0 1.1
v 1.4 0 1.1
v 1.4 0 0.8
v 1.6 0 0.8
v 1.4 0 0.6
v 1.6 0 0.6
v 1.4 0 0.5
v 1.6 0 0.5
v 1.4 0 0.3
v 1.6 0 0.3
v 1.4 0 0.2
v 1.6 0 0.2
v 1.4 0 -2.38419e-07
v 1.6 0 -2.38419e-07
v 1.4 0 -0.3
v 1.5 0 -0.3
v 1.4 0 -0.4
v 1.5 0 -0.4
v 1.4 0 -0.5
v 1.5 0 -0.5
v 1.4 0 -0.6
v 1.5 0 -0.6
v 1.4 0 -0.7
v 1.5 0 -0.7
v 1.4 0 -0.8
v 1.5 0 -0.8
v -1.4 0 -1.1
v 1.4 0 -1.1
v 1.4 0.1 0.6
v 1.6 0.1 0.6
v 1.4 0.1 0.5
v 1.6 0.1 0.5
v 1.4 0.1 0.3
v 1.6 0.1 0.3
v 1.4 0.1 0.2
v 1.6 0.1 0.2
v 1.4 0.1 -0.4
v 1.5 0.1 -0.4
v 1.4 0.1 -0.5
v 1.5 0.1 -0.5
v 1.4 0.1 -0.6
v 1.5 0.1 -0.6
v 1.4 0.1 -0.7
v 1.5 0.1 -0.7
v -1.2 0.2 1.6
v 1.2 0.2 1.6
v -1.4 0.2 1.4
v -1.2 0.2 1.4
v 1.2 0.2 1.4
v 1.4 0.2 1.4
v -1.4 0.2 1.1
v 1.4 0.2 1.1
v 1.4 0.2 -0.2
v 1.5 0.2 -0.2
v 1.4 0.2 -0.3
v 1.5 0.2 -0.3
v 1.4 0.2 -0.8
v 1.5 0.2 -0.8
v 1.4 0.2 -0.9
v 1.5 0.2 -0.9
v -1.4 0.2 -1.1
v 1.4 0.2 -1.1
v -1.4 0.2 -1.4
v -1.2 0.2 -1.4
v 1.2 0.2 -1.4
v 1.4 0.2 -1.4
v -1.2 0.2 -1.6
v 1.2 0.2 -1.6
v 1.4 0.3 1
v 1.6 0.3 1
v 1.4 0.3 0.8
v 1.6 0.3 0.8
v 1.4 0.3 -2.38419e-07
v 1.6 0.3 -2.38419e-07
v 1.4 0.3 -0.2
v 1.5 0.3 -0.2
v 1.6 0.3 -0.2
v 1.4 0.3 -0.5
v 1.5 0.3 -0.5
v 1.4 0.3 -0.6
v 1.5 0.3 -0.6
v 1.5 0.4 0.5
v 1.6 0.4 0.5
v 1.5 0.4 0.3
v 1.6 0.4 0.3
v 1.4 0.5 -0.3
v 1.5 0.5 -0.3
v 1.4 0.5 -0.5
v 1.5 0.5 -0.5
v 1.4 0.5 -0.6
v 1.5 0.5 -0.6
v 1.4 0.5 -0.8
v 1.5 0.5 -0.8
v 1.5 0.7 0.9
v 1.6 0.7 0.9
v 1.5 0.7 0.8
v 1.6 0.7 0.8
v 1.5 0.7 -2.38419e-07
v 1.6 0.7 -2.38419e-07
v 1.5 0.7 -0.1
v 1.6 0.7 -0.1
v 0.5 0.8 1.6
v 0.6 0.8 1.6
v 0.5 0.8 1.4
v 0.6 0.8 1.4
v 1.5 0.8 0.8
v 1.6 0.8 0.8
v 1.5 0.8 0.5
v 1.6 0.8 0.5
v 1.5 0.8 0.3
v 1.6 0.8 0.3
v 1.5 0.8 -2.38419e-07
v 1.6 0.8 -2.38419e-07
v 0.5 1.1 1.8
v 0.6 1.1 1.8
v 0.5 1.1 1.4
v 0.6 1.1 1.4
v 0.5 1.4 1.9
v 0.6 1.4 1.9
v 0.5 1.4 1.5
v 0.6 1.4 1.5
v 0.5 1.7 2
v 0.6 1.7 2
v 0.5 1.7 1.7
v 0.6 1.7 1.7
v 1.4 0.2 -0.5
v 1.5 0.2 -0.5
v 1.4 0.2 -0.6
v 1.5 0.2 -0.6
v -1.2 0.3 0.9
v -1 0.3 0.9
v 1 0.3 0.9
v 1.1 0.3 0.9
v 1.5 0.3 0.5
v 1.6 0.3 0.5
v 1.5 0.3 0.3
v 1.6 0.3 0.3
v 1.1 0.3 -0.2
v 1.4 0.3 -0.3
v 1.5 0.3 -0.3
v 1.4 0.3 -0.5
v 1.5 0.3 -0.5
v 1.4 0.3 -0.6
v 1.5 0.3 -0.6
v 1.4 0.3 -0.8
v 1.5 0.3 -0.8
v -1.2 0.3 -0.9
v -1 0.3 -0.9
v 1 0.3 -0.9
v 1.1 0.3 -0.9
v -1.4 0.4 0.8
v -1.2 0.4 0.8
v -1.4 0.4 -0.8
v -1.2 0.4 -0.8
v -1 0.5 1.4
v 0.5 0.5 1.4
v 0.6 0.5 1.4
v 1 0.5 1.4
v -1.2 0.5 1.2
v -1 0.5 1.2
v -0.8 0.5 1.2
v 0.5 0.5 1.2
v 0.6 0.5 1.2
v 0.8 0.5 1.2
v 1 0.5 1.2
v 1.2 0.5 1.2
v -1 0.5 1
v -0.8 0.5 1
v 0.8 0.5 1
v 1 0.5 1
v 1.1 0.5 1
v 1.2 0.5 1
v -1.2 0.5 0.9
v -1 0.5 0.9
v 1 0.5 0.9
v 1.1 0.5 0.9
v 1.5 0.5 0.9
v 1.6 0.5 0.9
v 1.5 0.5 0.5
v 1.6 0.5 0.5
v 1.5 0.5 0.3
v 1.6 0.5 0.3
v 1.5 0.5 -0.1
v 1.6 0.5 -0.1
v -1.2 0.5 -0.9
v -1 0.5 -0.9
v 1 0.5 -0.9
v 1.1 0.5 -0.9
v 1.2 0.5 -0.9
v -1 0.5 -1
v -0.8 0.5 -1
v 0.8 0.5 -1
v 1 0.5 -1
v -1.2 0.5 -1.2
v -1 0.5 -1.2
v -0.8 0.5 -1.2
v 0.8 0.5 -1.2
v 1 0.5 -1.2
v 1.2 0.5 -1.2
v -1 0.5 -1.4
v 1 0.5 -1.4
v -1.2 0.6 1.6
v 1.2 0.6 1.6
v -1.4 0.6 1.4
v -1.2 0.6 1.4
v -1 0.6 1.4
v 0.5 0.6 1.4
v 0.6 0.6 1.4
v 1 0.6 1.4
v 1.2 0.6 1.4
v 1.4 0.6 1.4
v -1.2 0.6 1.2
v -1 0.6 1.2
v 1 0.6 1.2
v 1.2 0.6 1.2
v 1.2 0.6 1
v 1.4 0.6 1
v -1.4 0.6 0.8
v -1.2 0.6 0.8
v 1.1 0.6 -0.2
v 1.5 0.6 -0.2
v 1.1 0.6 -0.3
v 1.5 0.6 -0.3
v -1.4 0.6 -0.8
v -1.2 0.6 -0.8
v 1.1 0.6 -0.8
v 1.5 0.6 -0.8
v 1.1 0.6 -0.9
v 1.2 0.6 -0.9
v 1.4 0.6 -0.9
v 1.5 0.6 -0.9
v -1.2 0.6 -1.2
v -1 0.6 -1.2
v 1 0.6 -1.2
v 1.2 0.6 -1.2
v -1.4 0.6 -1.4
v -1.2 0.6 -1.4
v -1 0.6 -1.4
v 1 0.6 -1.4
v 1.2 0.6 -1.4
v 1.4 0.6 -1.4
v -1.2 0.6 -1.6
v 1.2 0.6 -1.6
v 1.1 0.7 -0.3
v 1.5 0.7 -0.3
v 1.1 0.7 -0.8
v 1.5 0.7 -0.8
v 0.5 1 1.6
v 0.6 1 1.6
v 0.5 1 1.4
v 0.6 1 1.4
v 1.1 1 1
v 1.6 1 1
v 1.1 1 0.9
v 1.6 1 0.9
v 1.1 1 -0.1
v 1.6 1 -0.1
v 1.1 1 -0.2
v 1.6 1 -0.2
v 1.1 1.1 0.9
v 1.6 1.1 0.9
v 1.1 1.1 0.7
v 1.6 1.1 0.7
v 1.1 1.1 0.0999999
v 1.6 1.1 0.0999999
v 1.1 1.1 -0.1
v 1.6 1.1 -0.1
v 1.1 1.2 0.7
v 1.6 1.2 0.7
v 1.1 1.2 0.0999999
v 1.6 1.2 0.0999999
v 0.5 1.3 1.8
v 0.6 1.3 1.8
v 0.5 1.3 1.5
v 0.6 1.3 1.5
v 0.5 1.4 1.3
v 0.6 1.4 1.3
v 0.5 1.4 1.2
v 0.6 1.4 1.2
v 0.5 1.6 1.9
v 0.6 1.6 1.9
v 0.5 1.6 1.7
v 0.6 1.6 1.7
v 0.5 1.7 1.5
v 0.6 1.7 1.5
v 0.5 1.7 1.3
v 0.6 1.7 1.3
v 0.5 1.9 2
v 0.6 1.9 2
v 0.5 1.9 1.5
v 0.6 1.9 1.5
v -0.6 2.3 1
v 0.6 2.3 1
v -0.8 2.3 0.8
v -0.6 2.3 0.8
v 0.6 2.3 0.8
v 0.8 2.3 0.8
v -0.8 2.3 -0.8
v -0.6 2.3 -0.8
v 0.6 2.3 -0.8
v 0.8 2.3 -0.8
v -0.6 2.3 -1
v 0.6 2.3 -1
v -0.8 2.4 1.2
v 0.8 2.4 1.2
v -1 2.4 1
v -0.8 2.4 1
v -0.6 2.4 1
v 0.6 2.4 1
v 0.8 2.4 1
v 1 2.4 1
v -0.8 2.4 0.8
v -0.6 2.4 0.8
v 0.6 2.4 0.8
v 0.8 2.4 0.8
v -0.8 2.4 -0.8
v -0.6 2.4 -0.8
v 0.6 2.4 -0.8
v 0.8 2.4 -0.8
v -1 2.4 -1
v -0.8 2.4 -1
v -0.6 2.4 -1
v 0.6 2.4 -1
v 0.8 2.4 -1
v 1 2.4 -1
v -0.8 2.4 -1.2
v 0.8 2.4 -1.2

# faces
f 4/6/1 2/6/1 1/6/1
f 5/6/1 2/6/1 4/6/1
f 7/6/1 4/6/1 3/6/1
f 7/6/1 6/6/1 5/6/1
f 7/6/1 5/6/1 4/6/1
f 8/6/1 6/6/1 7/6/1
f 9/6/1 7/6/1 3/6/1
f 10/6/1 7/6/1 9/6/1
f 11/6/1 6/6/1 8/6/1
f 12/6/1 6/6/1 11/6/1
f 17/6/1 14/6/1 13/6/1
f 18/6/1 14/6/1 17/6/1
f 19/6/1 16/6/1 15/6/1
f 20/6/1 16/6/1 19/6/1
f 24/5/1 22/5/1 21/5/1
f 25/5/1 22/5/1 24/5/1
f 27/5/1 24/5/1 23/5/1
f 27/5/1 26/5/1 25/5/1
f 27/5/1 25/5/1 24/5/1
f 28/5/1 26/5/1 27/5/1
f 29/6/1 28/6/1 27/6/1
f 30/6/1 28/6/1 29/6/1
f 35/5/1 32/5/1 31/5/1
f 36/5/1 32/5/1 35/5/1
f 37/5/1 34/5/1 33/5/1
f 38/5/1 34/5/1 37/5/1
f 39/6/1 36/6/1 35/6/1
f 40/6/1 36/6/1 39/6/1
f 41/6/1 38/6/1 37/6/1
f 42/6/1 38/6/1 41/6/1
f 45/4/1 44/4/1 43/4/1
f 47/4/1 44/4/1 45/4/1
f 48/4/1 44/4/1 47/4/1
f 48/4/1 47/4/1 46/4/1
f 49/4/1 48/4/1 46/4/1
f 50/4/1 48/4/1 49/4/1
f 52/4/1 48/4/1 50/4/1
f 53/4/1 52/4/1 51/4/1
f 54/4/1 52/4/1 53/4/1
f 56/4/1 52/4/1 54/4/1
f 57/4/1 48/4/1 52/4/1
f 57/4/1 52/4/1 56/4/1
f 58/4/1 48/4/1 57/4/1
f 59/4/1 56/4/1 55/4/1
f 59/4/1 57/4/1 56/4/1
f 60/4/1 57/4/1 59/4/1
f 62/4/1 57/4/1 60/4/1
f 63/4/1 57/4/1 62/4/1
f 64/4/1 57/4/1 63/4/1
f 65/4/1 62/4/1 61/4/1
f 65/4/1 63/4/1 62/4/1
f 66/4/1 63/4/1 65/4/1
f 71/6/1 68/6/1 67/6/1
f 72/6/1 68/6/1 71/6/1
f 73/6/1 70/6/1 69/6/1
f 74/6/1 70/6/1 73/6/1
f 77/6/1 76/6/1 75/6/1
f 78/6/1 76/6/1 77/6/1
f 83/6/1 80/6/1 79/6/1
f 84/6/1 80/6/1 83/6/1
f 85/6/1 82/6/1 81/6/1
f 86/6/1 82/6/1 85/6/1
f 91/3/1 88/3/1 87/3/1
f 92/2/1 89/2/1 88/2/1
f 93/3/1 91/3/1 90/3/1
f 93/3/1 88/3/1 91/3/1
f 93/2/1 92/2/1 88/2/1
f 94/2/1 92/2/1 93/2/1
f 95/2/1 92/2/1 94/2/1
f 96/2/1 92/2/1 95/2/1
f 97/2/1 95/2/1 94/2/1
f 98/2/1 95/2/1 97/2/1
f 99/3/1 93/3/1 90/3/1
f 100/3/1 93/3/1 99/3/1
f 101/3/1 93/3/1 100/3/1
f 102/3/1 93/3/1 101/3/1
f 103/3/1 101/3/1 100/3/1
f 104/3/1 101/3/1 103/3/1
f 105/3/1 101/3/1 104/3/1
f 106/3/1 101/3/1 105/3/1
f 107/3/1 105/3/1 104/3/1
f 108/3/1 105/3/1 107/3/1
f 113/6/1 110/6/1 109/6/1
f 114/6/1 110/6/1 113/6/1
f 115/6/1 112/6/1 111/6/1
f 116/6/1 112/6/1 115/6/1
f 117/6/2 118/6/2 119/6/2
f 119/6/2 118/6/2 120/6/2
f 117/6/2 119/6/2 122/6/2
f 120/6/2 118/6/2 123/6/2
f 121/6/2 122/6/2 125/6/2
f 122/6/2 119/6/2 126/6/2
f 125/6/2 122/6/2 126/6/2
f 123/6/2 124/6/2 127/6/2
f 120/6/2 123/6/2 127/6/2
f 127/6/2 124/6/2 128/6/2
f 129/6/2 130/6/2 133/6/2
f 133/6/2 130/6/2 134/6/2
f 131/6/2 132/6/2 135/6/2
f 135/6/2 132/6/2 136/6/2
f 137/6/2 138/6/2 139/6/2
f 139/6/2 138/6/2 140/6/2
f 141/6/2 142/6/2 145/6/2
f 145/6/2 142/6/2 146/6/2
f 143/6/2 144/6/2 147/6/2
f 147/6/2 144/6/2 148/6/2
f 149/4/2 150/4/2 151/4/2
f 151/4/2 150/4/2 153/4/2
f 153/4/2 150/4/2 154/4/2
f 152/4/2 153/4/2 154/4/2
f 152/4/2 154/4/2 155/4/2
f 155/4/2 154/4/2 156/4/2
f 156/4/2 154/4/2 158/4/2
f 157/4/2 158/4/2 159/4/2
f 159/4/2 158/4/2 160/4/2
f 160/4/2 158/4/2 162/4/2
f 158/4/2 154/4/2 163/4/2
f 162/4/2 158/4/2 163/4/2
f 163/4/2 154/4/2 164/4/2
f 161/4/2 162/4/2 165/4/2
f 162/4/2 163/4/2 165/4/2
f 165/4/2 163/4/2 166/4/2
f 166/4/2 163/4/2 168/4/2
f 168/4/2 163/4/2 169/4/2
f 169/4/2 163/4/2 170/4/2
f 167/4/2 168/4/2 171/4/2
f 168/4/2 169/4/2 171/4/2
f 171/4/2 169/4/2 172/4/2
f 173/5/2 174/5/2 177/5/2
f 177/5/2 174/5/2 178/5/2
f 175/5/2 176/5/2 179/5/2
f 179/5/2 176/5/2 180/5/2
f 177/6/2 178/6/2 181/6/2
f 181/6/2 178/6/2 182/6/2
f 179/6/2 180/6/2 183/6/2
f 183/6/2 180/6/2 184/6/2
f 185/5/2 186/5/2 188/5/2
f 188/5/2 186/5/2 189/5/2
f 187/5/2 188/5/2 191/5/2
f 189/5/2 190/5/2 191/5/2
f 188/5/2 189/5/2 191/5/2
f 191/5/2 190/5/2 192/5/2
f 191/6/2 192/6/2 193/6/2
f 193/6/2 192/6/2 194/6/2
f 195/6/2 196/6/2 199/6/2
f 199/6/2 196/6/2 200/6/2
f 197/6/2 198/6/2 201/6/2
f 201/6/2 198/6/2 202/6/2
f 205/6/2 206/6/2 217/6/2
f 217/6/2 206/6/2 218/6/2
f 207/6/2 208/6/2 219/6/2
f 219/6/2 208/6/2 220/6/2
f 211/6/2 212/6/2 221/6/2
f 221/6/2 212/6/2 222/6/2
f 213/6/2 214/6/2 223/6/2
f 223/6/2 214/6/2 224/6/2
f 203/6/2 204/6/2 226/6/2
f 209/6/2 210/6/2 227/6/2
f 227/6/2 210/6/2 228/6/2
f 215/6/2 216/6/2 231/6/2
f 231/6/2 216/6/2 232/6/2
f 232/6/2 216/6/2 233/6/2
f 225/6/2 226/6/2 235/6/2
f 226/6/2 204/6/2 235/6/2
f 235/6/2 204/6/2 236/6/2
f 209/6/2 227/6/2 237/6/2
f 237/6/2 227/6/2 238/6/2
f 229/1/2 230/1/2 240/1/2
f 240/1/2 230/1/2 241/1/2
f 239/1/2 240/1/2 243/1/2
f 243/1/2 240/1/2 244/1/2
f 241/1/2 242/1/2 245/1/2
f 245/1/2 242/1/2 246/1/2
f 225/6/2 235/6/2 247/6/2
f 247/6/2 235/6/2 248/6/2
f 233/6/2 234/6/2 249/6/2
f 232/6/2 233/6/2 249/6/2
f 249/6/2 234/6/2 250/6/2
f 251/2/2 252/2/2 257/2/2
f 253/2/2 254/2/2 258/2/2
f 258/2/2 254/2/2 259/2/2
f 255/2/2 256/2/2 260/2/2
f 258/2/2 259/2/2 262/2/2
f 259/2/2 260/2/2 262/2/2
f 251/2/2 257/2/2 262/2/2
f 257/2/2 258/2/2 262/2/2
f 262/2/2 260/2/2 263/2/2
f 263/2/2 260/2/2 264/2/2
f 260/2/2 256/2/2 265/2/2
f 264/2/2 260/2/2 265/2/2
f 261/2/2 262/2/2 269/2/2
f 262/2/2 263/2/2 269/2/2
f 269/2/2 263/2/2 270/2/2
f 270/2/2 263/2/2 271/2/2
f 265/2/2 266/2/2 272/2/2
f 264/2/2 265/2/2 272/2/2
f 272/2/2 266/2/2 273/2/2
f 267/1/2 268/1/2 274/1/2
f 274/1/2 268/1/2 275/1/2
f 269/2/2 270/2/2 280/2/2
f 271/2/2 272/2/2 281/2/2
f 281/2/2 272/2/2 282/2/2
f 273/2/2 266/2/2 283/2/2
f 281/2/2 282/2/2 284/2/2
f 282/2/2 283/2/2 284/2/2
f 269/2/2 280/2/2 284/2/2
f 280/2/2 281/2/2 284/2/2
f 284/2/2 283/2/2 285/2/2
f 283/2/2 266/2/2 286/2/2
f 285/2/2 283/2/2 286/2/2
f 286/2/2 266/2/2 287/2/2
f 276/1/2 277/1/2 288/1/2
f 288/1/2 277/1/2 289/1/2
f 278/1/2 279/1/2 290/1/2
f 290/1/2 279/1/2 291/1/2
f 285/2/2 286/2/2 292/2/2
f 292/2/2 286/2/2 293/2/2
f 289/1/2 277/1/2 294/1/2
f 294/1/2 277/1/2 295/1/2
f 278/1/2 290/1/2 296/1/2
f 296/1/2 290/1/2 297/1/2
f 298/3/2 299/3/2 304/3/2
f 300/3/2 301/3/2 305/3/2
f 305/3/2 301/3/2 306/3/2
f 302/3/2 303/3/2 307/3/2
f 305/3/2 306/3/2 309/3/2
f 306/3/2 307/3/2 309/3/2
f 298/3/2 304/3/2 309/3/2
f 304/3/2 305/3/2 309/3/2
f 309/3/2 307/3/2 310/3/2
f 310/3/2 307/3/2 311/3/2
f 307/3/2 303/3/2 312/3/2
f 311/3/2 307/3/2 312/3/2
f 308/3/2 309/3/2 314/3/2
f 309/3/2 310/3/2 314/3/2
f 312/3/2 313/3/2 315/3/2
f 311/3/2 312/3/2 315/3/2
f 308/3/2 314/3/2 316/3/2
f 314/3/2 315/3/2 316/3/2
f 316/3/2 315/3/2 317/3/2
f 315/3/2 313/3/2 318/3/2
f 317/3/2 315/3/2 318/3/2
f 318/3/2 313/3/2 319/3/2
f 308/3/2 316/3/2 320/3/2
f 319/3/2 313/3/2 323/3/2
f 320/3/2 321/3/2 324/3/2
f 317/3/2 318/3/2 325/3/2
f 325/3/2 318/3/2 326/3/2
f 322/3/2 323/3/2 327/3/2
f 325/3/2 326/3/2 328/3/2
f 326/3/2 327/3/2 328/3/2
f 320/3/2 324/3/2 328/3/2
f 308/3/2 320/3/2 328/3/2
f 324/3/2 325/3/2 328/3/2
f 328/3/2 327/3/2 329/3/2
f 327/3/2 323/3/2 330/3/2
f 329/3/2 327/3/2 330/3/2
f 323/3/2 313/3/2 330/3/2
f 330/3/2 313/3/2 331/3/2
f 329/3/2 330/3/2 332/3/2
f 332/3/2 330/3/2 333/3/2
f 333/3/2 330/3/2 334/3/2
f 334/3/2 330/3/2 335/3/2
f 333/3/2 334/3/2 336/3/2
f 336/3/2 334/3/2 337/3/2
f 340/4/3 339/4/3 338/4/3
f 341/4/3 339/4/3 340/4/3
f 344/4/3 343/4/3 342/4/3
f 345/4/3 343/4/3 344/4/3
f 348/4/3 347/4/3 346/4/3
f 349/4/3 347/4/3 348/4/3
f 352/4/3 351/4/3 350/4/3
f 353/4/3 351/4/3 352/4/3
f 358/4/3 357/4/3 356/4/3
f 359/4/3 357/4/3 358/4/3
f 360/6/3 355/6/3 354/6/3
f 361/6/3 355/6/3 360/6/3
f 364/4/3 363/4/3 362/4/3
f 365/4/3 363/4/3 364/4/3
f 368/6/3 367/6/3 366/6/3
f 369/6/3 367/6/3 368/6/3
f 374/4/3 371/4/3 370/4/3
f 375/4/3 371/4/3 374/4/3
f 376/4/3 373/4/3 372/4/3
f 377/4/3 373/4/3 376/4/3
f 380/6/3 379/6/3 378/6/3
f 381/6/3 379/6/3 380/6/3
f 385/5/3 383/5/3 382/5/3
f 386/6/3 384/6/3 383/6/3
f 386/5/3 383/5/3 385/5/3
f 387/6/3 384/6/3 386/6/3
f 390/6/3 384/6/3 387/6/3
f 391/5/3 389/5/3 388/5/3
f 392/6/3 390/6/3 389/6/3
f 392/5/3 389/5/3 391/5/3
f 393/6/3 384/6/3 390/6/3
f 393/6/3 390/6/3 392/6/3
f 396/6/3 395/6/3 394/6/3
f 397/6/3 395/6/3 396/6/3
f 401/5/3 399/5/3 398/5/3
f 402/6/3 400/6/3 399/6/3
f 402/5/3 399/5/3 401/5/3
f 403/6/3 400/6/3 402/6/3
f 407/5/3 405/5/3 404/5/3
f 408/6/3 406/6/3 405/6/3
f 408/5/3 405/5/3 407/5/3
f 409/6/3 406/6/3 408/6/3
f 412/3/3 411/3/3 410/3/3
f 413/3/3 411/3/3 412/3/3
f 415/3/3 411/3/3 413/3/3
f 416/3/3 415/3/3 414/3/3
f 417/3/3 411/3/3 415/3/3
f 417/3/3 415/3/3 416/3/3
f 420/3/3 419/3/3 418/3/3
f 421/3/3 419/3/3 420/3/3
f 424/3/3 423/3/3 422/3/3
f 425/3/3 423/3/3 424/3/3
f 428/3/3 427/3/3 426/3/3
f 429/3/3 427/3/3 428/3/3
f 434/3/3 431/3/3 430/3/3
f 435/3/3 431/3/3 434/3/3
f 436/3/3 433/3/3 432/3/3
f 437/3/3 433/3/3 436/3/3
f 440/3/3 439/3/3 438/3/3
f 441/3/3 439/3/3 440/3/3
f 444/3/3 443/3/3 442/3/3
f 445/3/3 443/3/3 444/3/3
f 448/3/3 447/3/3 446/3/3
f 449/3/3 447/3/3 448/3/3
f 452/3/3 451/3/3 450/3/3
f 453/3/3 451/3/3 452/3/3
f 456/2/3 455/2/3 454/2/3
f 457/2/3 455/2/3 456/2/3
f 462/2/3 461/2/3 460/2/3
f 463/2/3 461/2/3 462/2/3
f 464/2/3 459/2/3 458/2/3
f 465/2/3 459/2/3 464/2/3
f 470/2/3 467/2/3 466/2/3
f 471/2/3 467/2/3 470/2/3
f 472/2/3 469/2/3 468/2/3
f 473/2/3 469/2/3 472/2/3
f 476/2/3 475/2/3 474/2/3
f 477/2/3 475/2/3 476/2/3
f 480/2/3 479/2/3 478/2/3
f 481/2/3 479/2/3 480/2/3
f 484/6/3 483/6/3 482/6/3
f 485/6/3 483/6/3 484/6/3
f 488/6/3 487/6/3 486/6/3
f 489/6/3 487/6/3 488/6/3
f 492/6/3 491/6/3 490/6/3
f 493/6/3 491/6/3 492/6/3
f 496/2/3 495/2/3 494/2/3
f 497/2/3 495/2/3 496/2/3
f 500/6/3 499/6/3 498/6/3
f 501/6/3 499/6/3 500/6/3
f 504/6/3 503/6/3 502/6/3
f 505/6/3 503/6/3 504/6/3
f 508/6/3 507/6/3 506/6/3
f 509/6/3 507/6/3 508/6/3
f 512/6/3 511/6/3 510/6/3
f 513/6/3 511/6/3 512/6/3
f 516/6/3 515/6/3 514/6/3
f 517/6/3 515/6/3 516/6/3
f 520/6/3 519/6/3 518/6/3
f 521/6/3 519/6/3 520/6/3
f 522/4/4 523/4/4 524/4/4
f 524/4/4 523/4/4 525/4/4
f 526/6/4 527/6/4 528/6/4
f 528/6/4 527/6/4 529/6/4
f 530/6/4 531/6/4 532/6/4
f 532/6/4 531/6/4 533/6/4
f 534/4/4 535/4/4 536/4/4
f 536/4/4 535/4/4 537/4/4
f 538/6/4 539/6/4 540/6/4
f 540/6/4 539/6/4 541/6/4
f 542/6/4 543/6/4 544/6/4
f 544/6/4 543/6/4 545/6/4
f 546/6/4 547/6/4 548/6/4
f 548/6/4 547/6/4 549/6/4
f 550/6/4 551/6/4 552/6/4
f 552/6/4 551/6/4 553/6/4
f 554/6/4 555/6/4 556/6/4
f 556/6/4 555/6/4 557/6/4
f 558/3/4 559/3/4 560/3/4
f 560/3/4 559/3/4 561/3/4
f 562/6/4 563/6/4 564/6/4
f 564/6/4 563/6/4 565/6/4
f 566/6/4 567/6/4 568/6/4
f 568/6/4 567/6/4 569/6/4
f 570/6/4 571/6/4 572/6/4
f 572/6/4 571/6/4 573/6/4
f 574/3/4 575/3/4 576/3/4
f 576/3/4 575/3/4 577/3/4
f 578/3/4 579/3/4 580/3/4
f 580/3/4 579/3/4 581/3/4
f 582/3/4 583/3/4 584/3/4
f 584/3/4 583/3/4 585/3/4
f 586/3/4 587/3/4 590/3/4
f 590/3/4 587/3/4 591/3/4
f 588/3/4 589/3/4 592/3/4
f 592/3/4 589/3/4 593/3/4
f 594/3/4 595/3/4 596/3/4
f 596/3/4 595/3/4 597/3/4
f 598/3/4 599/3/4 600/3/4
f 600/3/4 599/3/4 601/3/4
f 602/3/4 603/3/4 604/3/4
f 604/3/4 603/3/4 605/3/4
f 606/3/4 607/3/4 609/3/4
f 608/3/4 609/3/4 610/3/4
f 609/3/4 607/3/4 611/3/4
f 610/3/4 609/3/4 611/3/4
f 612/2/4 613/2/4 614/2/4
f 614/2/4 613/2/4 615/2/4
f 616/2/4 617/2/4 618/2/4
f 618/2/4 617/2/4 619/2/4
f 620/2/4 621/2/4 622/2/4
f 622/2/4 621/2/4 623/2/4
f 624/2/4 625/2/4 628/2/4
f 628/2/4 625/2/4 629/2/4
f 626/2/4 627/2/4 630/2/4
f 630/2/4 627/2/4 631/2/4
f 634/2/4 635/2/4 636/2/4
f 636/2/4 635/2/4 637/2/4
f 632/2/4 633/2/4 638/2/4
f 638/2/4 633/2/4 639/2/4
f 640/2/4 641/2/4 642/2/4
f 642/2/4 641/2/4 643/2/4
f 644/2/4 645/2/4 646/2/4
f 646/2/4 645/2/4 647/2/4
f 648/5/4 649/5/4 651/5/4
f 649/6/4 650/6/4 652/6/4
f 651/5/4 649/5/4 652/5/4
f 652/6/4 650/6/4 653/6/4
f 654/5/4 655/5/4 657/5/4
f 655/6/4 656/6/4 658/6/4
f 657/5/4 655/5/4 658/5/4
f 658/6/4 656/6/4 659/6/4
f 660/6/4 661/6/4 662/6/4
f 662/6/4 661/6/4 663/6/4
f 664/5/4 665/5/4 667/5/4
f 665/6/4 666/6/4 668/6/4
f 667/5/4 665/5/4 668/5/4
f 668/6/4 666/6/4 669/6/4
f 670/6/4 671/6/4 672/6/4
f 672/6/4 671/6/4 673/6/4
f 674/6/4 675/6/4 676/6/4
f 676/6/4 675/6/4 677/6/4
f 678/6/4 679/6/4 680/6/4
f 680/6/4 679/6/4 681/6/4
f 684/6/5 683/6/5 682/6/5
f 686/6/5 684/6/5 682/6/5
f 686/3/5 685/3/5 684/3/5
f 687/3/5 685/3/5 686/3/5
f 688/6/5 686/6/5 682/6/5
f 690/6/5 688/6/5 682/6/5
f 690/3/5 689/3/5 688/3/5
f 691/3/5 689/3/5 690/3/5
f 692/6/5 690/6/5 682/6/5
f 694/6/5 692/6/5 682/6/5
f 694/3/5 693/3/5 692/3/5
f 695/3/5 693/3/5 694/3/5
f 696/6/5 694/6/5 682/6/5
f 698/6/5 696/6/5 682/6/5
f 698/2/5 697/2/5 696/2/5
f 699/2/5 697/2/5 698/2/5
f 700/6/5 698/6/5 682/6/5
f 702/6/5 700/6/5 682/6/5
f 702/2/5 701/2/5 700/2/5
f 703/2/5 701/2/5 702/2/5
f 704/6/5 702/6/5 682/6/5
f 706/6/5 704/6/5 682/6/5
f 706/2/5 705/2/5 704/2/5
f 707/2/5 705/2/5 706/2/5
f 708/6/5 706/6/5 682/6/5
f 709/6/5 706/6/5 708/6/5
f 712/3/5 711/3/5 710/3/5
f 713/3/5 711/3/5 712/3/5
f 716/3/5 715/3/5 714/3/5
f 717/3/5 715/3/5 716/3/5
f 720/2/5 719/2/5 718/2/5
f 721/2/5 719/2/5 720/2/5
f 724/2/5 723/2/5 722/2/5
f 725/2/5 723/2/5 724/2/5
f 729/6/5 727/6/5 726/6/5
f 730/6/5 727/6/5 729/6/5
f 732/6/5 729/6/5 728/6/5
f 732/6/5 731/6/5 730/6/5
f 732/6/5 730/6/5 729/6/5
f 733/6/5 731/6/5 732/6/5
f 736/2/5 735/2/5 734/2/5
f 737/2/5 735/2/5 736/2/5
f 740/2/5 739/2/5 738/2/5
f 741/2/5 739/2/5 740/2/5
f 744/6/5 743/6/5 742/6/5
f 745/6/5 743/6/5 744/6/5
f 746/6/5 743/6/5 745/6/5
f 747/6/5 743/6/5 746/6/5
f 748/6/5 746/6/5 745/6/5
f 749/6/5 746/6/5 748/6/5
f 752/3/5 751/3/5 750/3/5
f 753/3/5 751/3/5 752/3/5
f 756/3/5 755/3/5 754/3/5
f 757/3/5 755/3/5 756/3/5
f 758/3/5 755/3/5 757/3/5
f 761/2/5 760/2/5 759/2/5
f 762/2/5 760/2/5 761/2/5
f 765/3/5 764/3/5 763/3/5
f 766/3/5 764/3/5 765/3/5
f 769/2/5 768/2/5 767/2/5
f 770/2/5 768/2/5 769/2/5
f 773/2/5 772/2/5 771/2/5
f 774/2/5 772/2/5 773/2/5
f 777/3/5 776/3/5 775/3/5
f 778/3/5 776/3/5 777/3/5
f 781/3/5 780/3/5 779/3/5
f 782/3/5 780/3/5 781/3/5
f 785/4/5 784/4/5 783/4/5
f 786/4/5 784/4/5 785/4/5
f 789/3/5 788/3/5 787/3/5
f 790/3/5 788/3/5 789/3/5
f 793/3/5 792/3/5 791/3/5
f 794/3/5 792/3/5 793/3/5
f 797/4/5 796/4/5 795/4/5
f 798/4/5 796/4/5 797/4/5
f 801/4/5 800/4/5 799/4/5
f 802/4/5 800/4/5 801/4/5
f 805/4/5 804/4/5 803/4/5
f 806/4/5 804/4/5 805/4/5
f 807/2/6 808/2/6 809/2/6
f 809/2/6 808/2/6 810/2/6
f 815/3/6 816/3/6 817/3/6
f 817/3/6 816/3/6 818/3/6
f 813/6/6 814/6/6 819/6/6
f 820/2/6 821/2/6 822/2/6
f 822/2/6 821/2/6 823/2/6
f 824/2/6 825/2/6 826/2/6
f 826/2/6 825/2/6 827/2/6
f 811/6/6 812/6/6 828/6/6
f 828/6/6 812/6/6 829/6/6
f 813/6/6 819/6/6 830/6/6
f 830/6/6 819/6/6 831/6/6
f 832/6/6 833/6/6 834/6/6
f 834/6/6 833/6/6 835/6/6
f 836/6/6 837/6/6 841/6/6
f 841/6/6 837/6/6 842/6/6
f 842/6/6 837/6/6 843/6/6
f 838/6/6 839/6/6 844/6/6
f 844/6/6 839/6/6 845/6/6
f 845/6/6 839/6/6 846/6/6
f 840/6/6 841/6/6 848/6/6
f 841/6/6 842/6/6 848/6/6
f 848/6/6 842/6/6 849/6/6
f 846/6/6 847/6/6 850/6/6
f 845/6/6 846/6/6 850/6/6
f 850/6/6 847/6/6 851/6/6
f 851/6/6 847/6/6 852/6/6
f 852/6/6 847/6/6 853/6/6
f 840/6/6 848/6/6 854/6/6
f 854/6/6 848/6/6 855/6/6
f 851/6/6 852/6/6 856/6/6
f 856/6/6 852/6/6 857/6/6
f 858/3/6 859/3/6 860/3/6
f 860/3/6 859/3/6 861/3/6
f 862/3/6 863/3/6 864/3/6
f 864/3/6 863/3/6 865/3/6
f 866/6/6 867/6/6 871/6/6
f 869/6/6 870/6/6 874/6/6
f 868/6/6 869/6/6 874/6/6
f 871/6/6 872/6/6 875/6/6
f 866/6/6 871/6/6 875/6/6
f 875/6/6 872/6/6 876/6/6
f 876/6/6 872/6/6 877/6/6
f 873/6/6 874/6/6 878/6/6
f 874/6/6 870/6/6 879/6/6
f 878/6/6 874/6/6 879/6/6
f 879/6/6 870/6/6 880/6/6
f 876/6/6 877/6/6 881/6/6
f 877/6/6 878/6/6 881/6/6
f 878/6/6 879/6/6 881/6/6
f 881/6/6 879/6/6 882/6/6
f 883/6/6 884/6/6 886/6/6
f 886/6/6 884/6/6 887/6/6
f 887/6/6 884/6/6 888/6/6
f 888/6/6 884/6/6 889/6/6
f 889/6/6 884/6/6 890/6/6
f 890/6/6 884/6/6 891/6/6
f 885/6/6 886/6/6 893/6/6
f 886/6/6 887/6/6 893/6/6
f 893/6/6 887/6/6 894/6/6
f 891/6/6 892/6/6 895/6/6
f 890/6/6 891/6/6 895/6/6
f 895/6/6 892/6/6 896/6/6
f 896/6/6 892/6/6 897/6/6
f 897/6/6 892/6/6 898/6/6
f 885/6/6 893/6/6 899/6/6
f 899/6/6 893/6/6 900/6/6
f 901/2/6 902/2/6 903/2/6
f 903/2/6 902/2/6 904/2/6
f 907/2/6 908/2/6 909/2/6
f 909/2/6 908/2/6 910/2/6
f 910/2/6 908/2/6 911/2/6
f 911/2/6 908/2/6 912/2/6
f 905/6/6 906/6/6 913/6/6
f 910/6/6 911/6/6 916/6/6
f 913/6/6 914/6/6 917/6/6
f 905/6/6 913/6/6 917/6/6
f 917/6/6 914/6/6 918/6/6
f 918/6/6 914/6/6 919/6/6
f 915/6/6 916/6/6 920/6/6
f 916/6/6 911/6/6 921/6/6
f 920/6/6 916/6/6 921/6/6
f 921/6/6 911/6/6 922/6/6
f 918/6/6 919/6/6 923/6/6
f 919/6/6 920/6/6 923/6/6
f 920/6/6 921/6/6 923/6/6
f 923/6/6 921/6/6 924/6/6
f 925/2/6 926/2/6 927/2/6
f 927/2/6 926/2/6 928/2/6
f 929/4/6 930/4/6 931/4/6
f 931/4/6 930/4/6 932/4/6
f 933/3/6 934/3/6 935/3/6
f 935/3/6 934/3/6 936/3/6
f 937/3/6 938/3/6 939/3/6
f 939/3/6 938/3/6 940/3/6
f 941/3/6 942/3/6 943/3/6
f 943/3/6 942/3/6 944/3/6
f 945/3/6 946/3/6 947/3/6
f 947/3/6 946/3/6 948/3/6
f 949/3/6 950/3/6 951/3/6
f 951/3/6 950/3/6 952/3/6
f 953/4/6 954/4/6 955/4/6
f 955/4/6 954/4/6 956/4/6
f 957/4/6 958/4/6 959/4/6
f 959/4/6 958/4/6 960/4/6
f 961/4/6 962/4/6 963/4/6
f 963/4/6 962/4/6 964/4/6
f 965/4/6 966/4/6 967/4/6
f 967/4/6 966/4/6 968/4/6
f 969/4/6 970/4/6 971/4/6
f 971/4/6 970/4/6 972/4/6
f 973/6/6 974/6/6 976/6/6
f 976/6/6 974/6/6 977/6/6
f 975/6/6 976/6/6 979/6/6
f 977/6/6 978/6/6 979/6/6
f 976/6/6 977/6/6 979/6/6
f 979/6/6 978/6/6 980/6/6
f 980/6/6 978/6/6 981/6/6
f 981/6/6 978/6/6 982/6/6
f 980/6/6 981/6/6 983/6/6
f 983/6/6 981/6/6 984/6/6
f 985/6/6 986/6/6 988/6/6
f 988/6/6 986/6/6 989/6/6
f 989/6/6 986/6/6 990/6/6
f 990/6/6 986/6/6 991/6/6
f 987/6/6 988/6/6 993/6/6
f 988/6/6 989/6/6 993/6/6
f 993/6/6 989/6/6 994/6/6
f 991/6/6 992/6/6 995/6/6
f 990/6/6 991/6/6 995/6/6
f 995/6/6 992/6/6 996/6/6
f 987/6/6 993/6/6 997/6/6
f 996/6/6 992/6/6 1000/6/6
f 997/6/6 998/6/6 1001/6/6
f 987/6/6 997/6/6 1001/6/6
f 1001/6/6 998/6/6 1002/6/6
f 1002/6/6 998/6/6 1003/6/6
f 999/6/6 1000/6/6 1004/6/6
f 1000/6/6 992/6/6 1005/6/6
f 1004/6/6 1000/6/6 1005/6/6
f 1005/6/6 992/6/6 1006/6/6
f 1002/6/6 1003/6/6 1007/6/6
f 1003/6/6 1004/6/6 1007/6/6
f 1004/6/6 1005/6/6 1007/6/6
f 1007/6/6 1005/6/6 1008/6/6
