# MagicaVoxel @ Ephtracy

# group
o 

# material
mtllib model-2.mtl
usemtl palette

# normals
vn 0 0 1
vn 0 0 -1
vn 1 0 0
vn -1 0 0
vn 0 -1 0
vn 0 1 0

# texcoords
vt 0.341797 0.5
vt 0.369141 0.5
vt 0.486328 0.5

# verts
v 0.3 1.4 1.7
v -0.3 1.4 1.7
v 0.3 2 1.7
v -0.3 2 1.7
v 0.3 1.4 0.9
v -0.3 1.4 0.9
v 0.3 1.6 0.9
v 0.2 1.6 0.9
v 0.3 1.8 0.9
v 0.2 1.8 0.9
v 0.3 2 0.9
v -0.3 2 0.9
v 0.3 1.4 1.7
v 0.3 2 1.7
v 0.3 1.4 1.6
v 0.3 1.5 1.6
v 0.3 1.5 1.5
v 0.3 1.6 1.5
v 0.3 1.4 1.3
v 0.3 1.6 1.3
v 0.3 1.6 1.1
v 0.3 1.8 1.1
v 0.3 1.4 0.9
v 0.3 1.6 0.9
v 0.3 1.8 0.9
v 0.3 2 0.9
v -0.3 1.4 1.7
v -0.3 2 1.7
v -0.3 1.6 1.3
v -0.3 1.7 1.3
v -0.3 1.7 1.2
v -0.3 1.8 1.2
v -0.3 1.6 1
v -0.3 1.8 1
v -0.3 1.4 0.9
v -0.3 2 0.9
v 0.3 1.4 1.7
v 0.3 1.4 1.6
v 0.3 1.4 1.3
v 0.3 1.4 0.9
v 0.2 1.4 1.6
v 0.2 1.4 1.3
v -0.3 1.4 1.7
v -0.3 1.4 0.9
v 0.3 2 1.7
v 0.3 2 0.9
v -0.3 2 1.7
v -0.3 2 0.9

# faces
f 3/2/1 2/2/1 1/2/1
f 4/2/1 2/2/1 3/2/1
f 5/2/2 6/2/2 7/2/2
f 7/2/2 6/2/2 8/2/2
f 7/3/2 8/3/2 9/3/2
f 8/2/2 6/2/2 10/2/2
f 9/3/2 8/3/2 10/3/2
f 9/2/2 10/2/2 11/2/2
f 10/2/2 6/2/2 12/2/2
f 11/2/2 10/2/2 12/2/2
f 15/2/3 14/2/3 13/2/3
f 16/2/3 14/2/3 15/2/3
f 17/1/3 16/1/3 15/1/3
f 17/2/3 14/2/3 16/2/3
f 18/2/3 14/2/3 17/2/3
f 19/1/3 17/1/3 15/1/3
f 19/1/3 18/1/3 17/1/3
f 20/2/3 14/2/3 18/2/3
f 20/1/3 18/1/3 19/1/3
f 21/2/3 20/2/3 19/2/3
f 21/2/3 14/2/3 20/2/3
f 22/2/3 14/2/3 21/2/3
f 23/2/3 21/2/3 19/2/3
f 24/3/3 22/3/3 21/3/3
f 24/2/3 21/2/3 23/2/3
f 25/2/3 14/2/3 22/2/3
f 25/3/3 22/3/3 24/3/3
f 26/2/3 14/2/3 25/2/3
f 27/2/4 28/2/4 29/2/4
f 29/2/4 28/2/4 30/2/4
f 29/1/4 30/1/4 31/1/4
f 30/2/4 28/2/4 31/2/4
f 31/2/4 28/2/4 32/2/4
f 27/2/4 29/2/4 33/2/4
f 29/1/4 31/1/4 33/1/4
f 31/1/4 32/1/4 33/1/4
f 32/2/4 28/2/4 34/2/4
f 33/1/4 32/1/4 34/1/4
f 27/2/4 33/2/4 35/2/4
f 33/2/4 34/2/4 35/2/4
f 34/2/4 28/2/4 36/2/4
f 35/2/4 34/2/4 36/2/4
f 41/2/5 38/2/5 37/2/5
f 41/1/5 39/1/5 38/1/5
f 42/2/5 40/2/5 39/2/5
f 42/1/5 39/1/5 41/1/5
f 43/2/5 41/2/5 37/2/5
f 43/2/5 42/2/5 41/2/5
f 44/2/5 40/2/5 42/2/5
f 44/2/5 42/2/5 43/2/5
f 45/2/6 46/2/6 47/2/6
f 47/2/6 46/2/6 48/2/6
