# MagicaVoxel @ Ephtracy

# group
o 

# material
mtllib model-1.mtl
usemtl palette

# normals
vn 0 0 1
vn 0 0 -1
vn 1 0 0
vn -1 0 0
vn 0 -1 0
vn 0 1 0

# texcoords
vt 0.341797 0.5
vt 0.369141 0.5
vt 0.392578 0.5
vt 0.486328 0.5
vt 0.517578 0.5

# verts
v 0.3 1.4 -0.9
v -0.3 1.4 -0.9
v 0.3 2 -0.9
v -0.3 2 -0.9
v 0.3 1.4 -1.7
v -0.3 1.4 -1.7
v 0.3 2 -1.7
v -0.3 2 -1.7
v 0.3 1.4 -0.9
v 0.3 2 -0.9
v 0.3 1.7 -1.2
v 0.3 1.8 -1.2
v 0.3 1.8 -1.3
v 0.3 1.9 -1.3
v 0.3 1.7 -1.5
v 0.3 1.9 -1.5
v 0.3 1.4 -1.7
v 0.3 2 -1.7
v -0.3 1.4 -0.9
v -0.3 2 -0.9
v -0.3 1.9 -1.1
v -0.3 2 -1.1
v -0.3 1.8 -1.2
v -0.3 1.9 -1.2
v -0.3 1.7 -1.3
v -0.3 1.8 -1.3
v -0.3 1.8 -1.4
v -0.3 1.9 -1.4
v -0.3 1.7 -1.5
v -0.3 1.9 -1.5
v -0.3 2 -1.5
v -0.3 1.4 -1.7
v -0.3 2 -1.7
v 0.3 1.4 -0.9
v 0.3 1.4 -1.7
v -0.3 1.4 -0.9
v -0.3 1.4 -1.7
v 0.3 2 -0.9
v 0.3 2 -1.7
v 0 2 -1.2
v 0 2 -1.4
v 0 2 -1.5
v -0.1 2 -1.1
v -0.1 2 -1.2
v -0.1 2 -1.3
v -0.1 2 -1.4
v -0.1 2 -1.5
v -0.2 2 -1.2
v -0.2 2 -1.3
v -0.3 2 -0.9
v -0.3 2 -1.1
v -0.3 2 -1.5
v -0.3 2 -1.7

# faces
f 3/2/1 2/2/1 1/2/1
f 4/2/1 2/2/1 3/2/1
f 5/2/2 6/2/2 7/2/2
f 7/2/2 6/2/2 8/2/2
f 11/2/3 10/2/3 9/2/3
f 12/2/3 10/2/3 11/2/3
f 13/1/3 12/1/3 11/1/3
f 13/2/3 10/2/3 12/2/3
f 14/2/3 10/2/3 13/2/3
f 15/2/3 11/2/3 9/2/3
f 15/1/3 13/1/3 11/1/3
f 15/1/3 14/1/3 13/1/3
f 16/2/3 10/2/3 14/2/3
f 16/1/3 14/1/3 15/1/3
f 17/2/3 15/2/3 9/2/3
f 17/2/3 16/2/3 15/2/3
f 18/2/3 10/2/3 16/2/3
f 18/2/3 16/2/3 17/2/3
f 19/2/4 20/2/4 21/2/4
f 21/2/4 20/2/4 22/2/4
f 19/2/4 21/2/4 23/2/4
f 21/4/4 22/4/4 24/4/4
f 23/2/4 21/2/4 24/2/4
f 19/2/4 23/2/4 25/2/4
f 23/4/4 24/4/4 26/4/4
f 25/2/4 23/2/4 26/2/4
f 25/3/4 26/3/4 27/3/4
f 26/4/4 24/4/4 27/4/4
f 24/4/4 22/4/4 28/4/4
f 27/4/4 24/4/4 28/4/4
f 25/3/4 27/3/4 29/3/4
f 19/2/4 25/2/4 29/2/4
f 27/3/4 28/3/4 29/3/4
f 28/4/4 22/4/4 30/4/4
f 29/3/4 28/3/4 30/3/4
f 30/4/4 22/4/4 31/4/4
f 19/2/4 29/2/4 32/2/4
f 29/2/4 30/2/4 32/2/4
f 30/2/4 31/2/4 32/2/4
f 32/2/4 31/2/4 33/2/4
f 36/2/5 35/2/5 34/2/5
f 37/2/5 35/2/5 36/2/5
f 38/2/6 39/2/6 40/2/6
f 40/2/6 39/2/6 41/2/6
f 41/2/6 39/2/6 42/2/6
f 38/2/6 40/2/6 43/2/6
f 40/4/6 41/4/6 44/4/6
f 43/2/6 40/2/6 44/2/6
f 44/4/6 41/4/6 45/4/6
f 41/3/6 42/3/6 46/3/6
f 45/4/6 41/4/6 46/4/6
f 42/2/6 39/2/6 47/2/6
f 46/3/6 42/3/6 47/3/6
f 44/5/6 45/5/6 48/5/6
f 43/4/6 44/4/6 48/4/6
f 45/4/6 46/4/6 49/4/6
f 48/5/6 45/5/6 49/5/6
f 46/4/6 47/4/6 49/4/6
f 38/2/6 43/2/6 50/2/6
f 43/4/6 48/4/6 51/4/6
f 50/2/6 43/2/6 51/2/6
f 48/4/6 49/4/6 51/4/6
f 49/4/6 47/4/6 52/4/6
f 51/4/6 49/4/6 52/4/6
f 47/2/6 39/2/6 52/2/6
f 52/2/6 39/2/6 53/2/6
