# MagicaVoxel @ Ephtracy

# group
o 

# material
mtllib model-0.mtl
usemtl palette

# normals
vn -1 0 0
vn 1 0 0
vn 0 0 -1
vn 0 0 1
vn 0 -1 0
vn 0 1 0

# texcoords
vt 0.521484 0.5

# verts
v -0.5 0 -0.9
v -0.5 0 -0.2
v -0.5 0.7 -0.9
v -0.5 0.7 -0.2
v 0.3 0.4 -0.9
v 0.3 0.4 -0.2
v 0.3 0.7 -0.9
v 0.3 0.7 -0.2
v 0.6 0 -0.6
v 0.6 0 -0.5
v 0.6 0.4 -0.6
v 0.6 0.4 -0.5
v 0.8 0 -0.9
v 0.8 0 -0.6
v 0.8 0 -0.5
v 0.8 0 -0.2
v 0.8 0.4 -0.9
v 0.8 0.4 -0.6
v 0.8 0.4 -0.5
v 0.8 0.4 -0.2
v -0.5 0 -0.9
v -0.5 0.7 -0.9
v 0.3 0.4 -0.9
v 0.3 0.7 -0.9
v 0.8 0 -0.9
v 0.8 0.4 -0.9
v 0.6 0 -0.5
v 0.6 0.4 -0.5
v 0.8 0 -0.5
v 0.8 0.4 -0.5
v 0.6 0 -0.6
v 0.6 0.4 -0.6
v 0.8 0 -0.6
v 0.8 0.4 -0.6
v -0.5 0 -0.2
v -0.5 0.7 -0.2
v 0.3 0.4 -0.2
v 0.3 0.7 -0.2
v 0.8 0 -0.2
v 0.8 0.4 -0.2
v -0.5 0 -0.9
v 0.8 0 -0.9
v 0.6 0 -0.6
v 0.8 0 -0.6
v 0.6 0 -0.5
v 0.8 0 -0.5
v -0.5 0 -0.2
v 0.8 0 -0.2
v 0.3 0.4 -0.9
v 0.8 0.4 -0.9
v 0.6 0.4 -0.6
v 0.8 0.4 -0.6
v 0.6 0.4 -0.5
v 0.8 0.4 -0.5
v 0.3 0.4 -0.2
v 0.8 0.4 -0.2
v -0.5 0.7 -0.9
v 0.3 0.7 -0.9
v -0.5 0.7 -0.2
v 0.3 0.7 -0.2

# faces
f 1/1/1 2/1/1 3/1/1
f 3/1/1 2/1/1 4/1/1
f 7/1/2 6/1/2 5/1/2
f 8/1/2 6/1/2 7/1/2
f 11/1/2 10/1/2 9/1/2
f 12/1/2 10/1/2 11/1/2
f 17/1/2 14/1/2 13/1/2
f 18/1/2 14/1/2 17/1/2
f 19/1/2 16/1/2 15/1/2
f 20/1/2 16/1/2 19/1/2
f 21/1/3 22/1/3 23/1/3
f 23/1/3 22/1/3 24/1/3
f 21/1/3 23/1/3 25/1/3
f 25/1/3 23/1/3 26/1/3
f 27/1/3 28/1/3 29/1/3
f 29/1/3 28/1/3 30/1/3
f 33/1/4 32/1/4 31/1/4
f 34/1/4 32/1/4 33/1/4
f 37/1/4 36/1/4 35/1/4
f 38/1/4 36/1/4 37/1/4
f 39/1/4 37/1/4 35/1/4
f 40/1/4 37/1/4 39/1/4
f 41/1/5 42/1/5 43/1/5
f 43/1/5 42/1/5 44/1/5
f 41/1/5 43/1/5 45/1/5
f 41/1/5 45/1/5 47/1/5
f 45/1/5 46/1/5 47/1/5
f 47/1/5 46/1/5 48/1/5
f 51/1/6 50/1/6 49/1/6
f 52/1/6 50/1/6 51/1/6
f 53/1/6 51/1/6 49/1/6
f 55/1/6 53/1/6 49/1/6
f 55/1/6 54/1/6 53/1/6
f 56/1/6 54/1/6 55/1/6
f 59/1/6 58/1/6 57/1/6
f 60/1/6 58/1/6 59/1/6
