# MagicaVoxel @ Ephtracy

# group
o 

# material
mtllib model.mtl
usemtl palette

# normals
vn 0 0 1
vn 0 0 -1
vn 1 0 0
vn -1 0 0
vn 0 -1 0
vn 0 1 0

# texcoords
vt 0.0371094 0.5
vt 0.634766 0.5
vt 0.755859 0.5

# verts
v 1.7 0 2.3
v -1.7 0 2.3
v 1.7 0.2 2.3
v -1.7 0.2 2.3
v 2.1 0 1.9
v 1.7 0 1.9
v -1.7 0 1.9
v -2.1 0 1.9
v 2.1 0.2 1.9
v 1.7 0.2 1.9
v 1.3 0.2 1.9
v -1.3 0.2 1.9
v -1.7 0.2 1.9
v -2.1 0.2 1.9
v 1.3 0.3 1.9
v -1.3 0.3 1.9
v 1.7 0.2 1.5
v 1.3 0.2 1.5
v -1.3 0.2 1.5
v -1.7 0.2 1.5
v 1.7 0.3 1.5
v 1.3 0.3 1.5
v -1.3 0.3 1.5
v -1.7 0.3 1.5
v 0.9 0.3 1.3
v -1 0.3 1.3
v 0.9 0.4 1.3
v -1 0.4 1.3
v 0.9 0.9 1.3
v -1 0.9 1.3
v 0.8 0.9 1.2
v -0.9 0.9 1.2
v 0.8 1.9 1.2
v -0.9 1.9 1.2
v 1.1 0.3 1.1
v 0.9 0.3 1.1
v -1 0.3 1.1
v -1.2 0.3 1.1
v 1.1 0.4 1.1
v 0.9 0.4 1.1
v -1 0.4 1.1
v -1.2 0.4 1.1
v 1.1 0.9 1.1
v 0.9 0.9 1.1
v -1 0.9 1.1
v -1.2 0.9 1.1
v 1 0.9 1
v 0.8 0.9 1
v -0.9 0.9 1
v -1.1 0.9 1
v 1 1.9 1
v 0.8 1.9 1
v -0.9 1.9 1
v 0.8 2.4 1
v -1.1 2.4 1
v -1.1 2 0.6
v -1.5 2 0.6
v 0.5 2.4 0.6
v -1.1 2.4 0.6
v 0.5 2.6 0.6
v -1.5 2.6 0.6
v 1.2 0.3 0.4
v 1.1 0.3 0.4
v 1.1 0.4 0.4
v 1.1 0.9 0.4
v 1.2 1 0.4
v 1.1 1 0.4
v -1.5 1 0.3
v -2.5 1 0.3
v -1.7 1.3 0.3
v -2.1 1.3 0.3
v -1.5 1.6 0.3
v -1.7 1.6 0.3
v -1.5 2 0.3
v -2.1 2 0.3
v -1.5 2.6 0.3
v -2.5 2.6 0.3
v 1.2 0.4 -0.3
v 1.1 0.4 -0.3
v 1.2 0.9 -0.3
v 1.1 0.9 -0.3
v 1.2 0.4 0.3
v 1.1 0.4 0.3
v 1.2 0.6 0.3
v 1.1 0.6 0.3
v 1.2 0.7 0.3
v 1.1 0.7 0.3
v 1.2 0.9 0.3
v 1.1 0.9 0.3
v 1.2 0.6 0.0999999
v 1.1 0.6 0.0999999
v 1.2 0.7 0.0999999
v 1.1 0.7 0.0999999
v -1.5 1 -0.3
v -2.5 1 -0.3
v -1.7 1.3 -0.3
v -2.1 1.3 -0.3
v -1.5 1.6 -0.3
v -1.7 1.6 -0.3
v -1.5 2 -0.3
v -2.1 2 -0.3
v -1.5 2.6 -0.3
v -2.5 2.6 -0.3
v 1.2 0.3 -0.4
v 1.1 0.3 -0.4
v 1.1 0.4 -0.4
v 1.1 0.9 -0.4
v 1.2 1 -0.4
v 1.1 1 -0.4
v -1.1 2 -0.6
v -1.5 2 -0.6
v 0.5 2.4 -0.6
v -1.1 2.4 -0.6
v 0.5 2.6 -0.6
v -1.5 2.6 -0.6
v 1 0.9 -1
v 0.8 0.9 -1
v -0.9 0.9 -1
v -1.1 0.9 -1
v 1 1.9 -1
v 0.8 1.9 -1
v -0.9 1.9 -1
v 0.8 2.4 -1
v -1.1 2.4 -1
v 1.1 0.3 -1.1
v 0.9 0.3 -1.1
v -1 0.3 -1.1
v -1.2 0.3 -1.1
v 1.1 0.4 -1.1
v 0.9 0.4 -1.1
v -1 0.4 -1.1
v -1.2 0.4 -1.1
v 1.1 0.9 -1.1
v 0.9 0.9 -1.1
v -1 0.9 -1.1
v -1.2 0.9 -1.1
v 0.8 0.9 -1.2
v -0.9 0.9 -1.2
v 0.8 1.9 -1.2
v -0.9 1.9 -1.2
v 0.9 0.3 -1.3
v -1 0.3 -1.3
v 0.9 0.4 -1.3
v -1 0.4 -1.3
v 0.9 0.9 -1.3
v -1 0.9 -1.3
v 1.7 0.2 -1.5
v 1.3 0.2 -1.5
v -1.3 0.2 -1.5
v -1.7 0.2 -1.5
v 1.7 0.3 -1.5
v 1.3 0.3 -1.5
v -1.3 0.3 -1.5
v -1.7 0.3 -1.5
v 2.1 0 -1.9
v 1.7 0 -1.9
v -1.7 0 -1.9
v -2.1 0 -1.9
v 2.1 0.2 -1.9
v 1.7 0.2 -1.9
v 1.3 0.2 -1.9
v -1.3 0.2 -1.9
v -1.7 0.2 -1.9
v -2.1 0.2 -1.9
v 1.3 0.3 -1.9
v -1.3 0.3 -1.9
v 1.7 0 -2.3
v -1.7 0 -2.3
v 1.7 0.2 -2.3
v -1.7 0.2 -2.3
v 2.1 0 1.9
v 2.1 0.2 1.9
v 2.1 0 -1.9
v 2.1 0.2 -1.9
v 1.7 0 2.3
v 1.7 0.2 2.3
v 1.7 0 1.9
v 1.7 0.2 1.9
v 1.7 0.2 1.5
v 1.7 0.3 1.5
v 1.7 0.2 -1.5
v 1.7 0.3 -1.5
v 1.7 0 -1.9
v 1.7 0.2 -1.9
v 1.7 0 -2.3
v 1.7 0.2 -2.3
v 1.3 0.2 1.9
v 1.3 0.3 1.9
v 1.3 0.2 1.5
v 1.3 0.3 1.5
v 1.3 0.2 -1.5
v 1.3 0.3 -1.5
v 1.3 0.2 -1.9
v 1.3 0.3 -1.9
v 1.2 0.3 0.4
v 1.2 1 0.4
v 1.2 0.4 0.3
v 1.2 0.6 0.3
v 1.2 0.7 0.3
v 1.2 0.9 0.3
v 1.2 0.6 0.0999999
v 1.2 0.7 0.0999999
v 1.2 0.4 -0.3
v 1.2 0.9 -0.3
v 1.2 0.3 -0.4
v 1.2 1 -0.4
v 1.1 0.3 1.1
v 1.1 0.4 1.1
v 1.1 0.9 1.1
v 1.1 0.3 0.4
v 1.1 0.4 0.4
v 1.1 0.9 0.4
v 1.1 0.4 0.3
v 1.1 0.6 0.3
v 1.1 0.7 0.3
v 1.1 0.9 0.3
v 1.1 0.6 0.0999999
v 1.1 0.7 0.0999999
v 1.1 0.4 -0.3
v 1.1 0.9 -0.3
v 1.1 0.3 -0.4
v 1.1 0.4 -0.4
v 1.1 0.9 -0.4
v 1.1 0.3 -1.1
v 1.1 0.4 -1.1
v 1.1 0.9 -1.1
v 1 0.9 1
v 1 1.9 1
v 1 0.9 -1
v 1 1.9 -1
v 0.9 0.3 1.3
v 0.9 0.4 1.3
v 0.9 0.9 1.3
v 0.9 0.3 1.1
v 0.9 0.4 1.1
v 0.9 0.9 1.1
v 0.9 0.3 -1.1
v 0.9 0.4 -1.1
v 0.9 0.9 -1.1
v 0.9 0.3 -1.3
v 0.9 0.4 -1.3
v 0.9 0.9 -1.3
v 0.8 0.9 1.2
v 0.8 1.9 1.2
v 0.8 0.9 1
v 0.8 1.9 1
v 0.8 2.4 1
v 0.8 0.9 -1
v 0.8 1.9 -1
v 0.8 2.4 -1
v 0.8 0.9 -1.2
v 0.8 1.9 -1.2
v 0.5 2.4 0.6
v 0.5 2.6 0.6
v 0.5 2.4 -0.6
v 0.5 2.6 -0.6
v -1.5 1 0.3
v -1.5 1.6 0.3
v -1.5 1 -0.3
v -1.5 1.6 -0.3
v -2.1 1.3 0.3
v -2.1 2 0.3
v -2.1 1.3 -0.3
v -2.1 2 -0.3
v 1.1 0.9 0.4
v 1.1 1 0.4
v 1.1 0.9 -0.4
v 1.1 1 -0.4
v -0.9 0.9 1.2
v -0.9 1.9 1.2
v -0.9 0.9 1
v -0.9 1.9 1
v -0.9 0.9 -1
v -0.9 1.9 -1
v -0.9 0.9 -1.2
v -0.9 1.9 -1.2
v -1 0.3 1.3
v -1 0.4 1.3
v -1 0.9 1.3
v -1 0.3 1.1
v -1 0.4 1.1
v -1 0.9 1.1
v -1 0.3 -1.1
v -1 0.4 -1.1
v -1 0.9 -1.1
v -1 0.3 -1.3
v -1 0.4 -1.3
v -1 0.9 -1.3
v -1.1 0.9 1
v -1.1 2.4 1
v -1.1 2 0.6
v -1.1 2.4 0.6
v -1.1 2 -0.6
v -1.1 2.4 -0.6
v -1.1 0.9 -1
v -1.1 2.4 -1
v -1.2 0.3 1.1
v -1.2 0.4 1.1
v -1.2 0.9 1.1
v -1.2 0.3 -1.1
v -1.2 0.4 -1.1
v -1.2 0.9 -1.1
v -1.3 0.2 1.9
v -1.3 0.3 1.9
v -1.3 0.2 1.5
v -1.3 0.3 1.5
v -1.3 0.2 -1.5
v -1.3 0.3 -1.5
v -1.3 0.2 -1.9
v -1.3 0.3 -1.9
v -1.5 2 0.6
v -1.5 2.6 0.6
v -1.5 2 0.3
v -1.5 2.6 0.3
v -1.5 2 -0.3
v -1.5 2.6 -0.3
v -1.5 2 -0.6
v -1.5 2.6 -0.6
v -1.7 0 2.3
v -1.7 0.2 2.3
v -1.7 0 1.9
v -1.7 0.2 1.9
v -1.7 0.2 1.5
v -1.7 0.3 1.5
v -1.7 1.3 0.3
v -1.7 1.6 0.3
v -1.7 1.3 -0.3
v -1.7 1.6 -0.3
v -1.7 0.2 -1.5
v -1.7 0.3 -1.5
v -1.7 0 -1.9
v -1.7 0.2 -1.9
v -1.7 0 -2.3
v -1.7 0.2 -2.3
v -2.1 0 1.9
v -2.1 0.2 1.9
v -2.1 0 -1.9
v -2.1 0.2 -1.9
v -2.5 1 0.3
v -2.5 2.6 0.3
v -2.5 1 -0.3
v -2.5 2.6 -0.3
v 2.1 0 1.9
v 2.1 0 -1.9
v 1.7 0 2.3
v 1.7 0 1.9
v 1.7 0 -1.9
v 1.7 0 -2.3
v -1.7 0 2.3
v -1.7 0 1.9
v -1.7 0 -1.9
v -1.7 0 -2.3
v -2.1 0 1.9
v -2.1 0 -1.9
v 1.2 0.6 0.3
v 1.2 0.6 0.0999999
v 1.1 0.6 0.3
v 1.1 0.6 0.0999999
v 1.2 0.9 0.3
v 1.2 0.9 -0.3
v 1.1 0.9 0.3
v 1.1 0.9 -0.3
v -1.5 1 0.3
v -1.5 1 -0.3
v -2.5 1 0.3
v -2.5 1 -0.3
v -1.1 2 0.6
v -1.1 2 -0.6
v -1.5 2 0.6
v -1.5 2 0.3
v -1.5 2 -0.3
v -1.5 2 -0.6
v -2.1 2 0.3
v -2.1 2 -0.3
v 2.1 0.2 1.9
v 2.1 0.2 -1.9
v 1.7 0.2 2.3
v 1.7 0.2 1.9
v 1.7 0.2 1.5
v 1.7 0.2 -1.5
v 1.7 0.2 -1.9
v 1.7 0.2 -2.3
v 1.3 0.2 1.9
v 1.3 0.2 1.5
v 1.3 0.2 -1.5
v 1.3 0.2 -1.9
v -1.3 0.2 1.9
v -1.3 0.2 1.5
v -1.3 0.2 -1.5
v -1.3 0.2 -1.9
v -1.7 0.2 2.3
v -1.7 0.2 1.9
v -1.7 0.2 1.5
v -1.7 0.2 -1.5
v -1.7 0.2 -1.9
v -1.7 0.2 -2.3
v -2.1 0.2 1.9
v -2.1 0.2 -1.9
v 1.7 0.3 1.5
v 1.7 0.3 -1.5
v 1.3 0.3 1.9
v 1.3 0.3 1.5
v 1.3 0.3 -1.5
v 1.3 0.3 -1.9
v 1.2 0.3 0.4
v 1.2 0.3 -0.4
v 1.1 0.3 1.1
v 1.1 0.3 0.4
v 1.1 0.3 -0.4
v 1.1 0.3 -1.1
v 0.9 0.3 1.3
v 0.9 0.3 1.1
v 0.9 0.3 -1.1
v 0.9 0.3 -1.3
v -1 0.3 1.3
v -1 0.3 1.1
v -1 0.3 -1.1
v -1 0.3 -1.3
v -1.2 0.3 1.1
v -1.2 0.3 -1.1
v -1.3 0.3 1.9
v -1.3 0.3 1.5
v -1.3 0.3 -1.5
v -1.3 0.3 -1.9
v -1.7 0.3 1.5
v -1.7 0.3 -1.5
v 1.2 0.4 0.3
v 1.2 0.4 -0.3
v 1.1 0.4 0.3
v 1.1 0.4 -0.3
v 1.2 0.7 0.3
v 1.2 0.7 0.0999999
v 1.1 0.7 0.3
v 1.1 0.7 0.0999999
v 1.1 0.9 1.1
v 1.1 0.9 0.4
v 1.1 0.9 -0.4
v 1.1 0.9 -1.1
v 1 0.9 1
v 1 0.9 -1
v 0.9 0.9 1.3
v 0.9 0.9 1.1
v 0.9 0.9 -1.1
v 0.9 0.9 -1.3
v 0.8 0.9 1.2
v 0.8 0.9 1
v 0.8 0.9 -1
v 0.8 0.9 -1.2
v -0.9 0.9 1.2
v -0.9 0.9 1
v -0.9 0.9 -1
v -0.9 0.9 -1.2
v -1 0.9 1.3
v -1 0.9 1.1
v -1 0.9 -1.1
v -1 0.9 -1.3
v -1.1 0.9 1
v -1.1 0.9 -1
v -1.2 0.9 1.1
v -1.2 0.9 -1.1
v 1.2 1 0.4
v 1.2 1 -0.4
v 1.1 1 0.4
v 1.1 1 -0.4
v -1.7 1.3 0.3
v -1.7 1.3 -0.3
v -2.1 1.3 0.3
v -2.1 1.3 -0.3
v -1.5 1.6 0.3
v -1.5 1.6 -0.3
v -1.7 1.6 0.3
v -1.7 1.6 -0.3
v 1 1.9 1
v 1 1.9 -1
v 0.8 1.9 1.2
v 0.8 1.9 1
v 0.8 1.9 -1
v 0.8 1.9 -1.2
v -0.9 1.9 1.2
v -0.9 1.9 1
v -0.9 1.9 -1
v -0.9 1.9 -1.2
v 0.8 2.4 1
v 0.8 2.4 -1
v 0.5 2.4 0.6
v 0.5 2.4 -0.6
v -1.1 2.4 1
v -1.1 2.4 0.6
v -1.1 2.4 -0.6
v -1.1 2.4 -1
v 0.5 2.6 0.6
v 0.5 2.6 -0.6
v -1.5 2.6 0.6
v -1.5 2.6 0.3
v -1.5 2.6 -0.3
v -1.5 2.6 -0.6
v -2.5 2.6 0.3
v -2.5 2.6 -0.3

# faces
f 3/1/1 2/1/1 1/1/1
f 4/1/1 2/1/1 3/1/1
f 9/1/1 6/1/1 5/1/1
f 10/1/1 6/1/1 9/1/1
f 13/1/1 8/1/1 7/1/1
f 14/1/1 8/1/1 13/1/1
f 15/1/1 12/1/1 11/1/1
f 16/1/1 12/1/1 15/1/1
f 21/1/1 18/1/1 17/1/1
f 22/1/1 18/1/1 21/1/1
f 23/1/1 20/1/1 19/1/1
f 24/1/1 20/1/1 23/1/1
f 27/1/1 26/1/1 25/1/1
f 28/1/1 26/1/1 27/1/1
f 29/2/1 28/2/1 27/2/1
f 30/2/1 28/2/1 29/2/1
f 33/1/1 32/1/1 31/1/1
f 34/1/1 32/1/1 33/1/1
f 39/1/1 36/1/1 35/1/1
f 40/1/1 36/1/1 39/1/1
f 41/1/1 38/1/1 37/1/1
f 42/1/1 38/1/1 41/1/1
f 43/2/1 40/2/1 39/2/1
f 44/2/1 40/2/1 43/2/1
f 45/2/1 42/2/1 41/2/1
f 46/2/1 42/2/1 45/2/1
f 51/1/1 48/1/1 47/1/1
f 52/1/1 48/1/1 51/1/1
f 53/1/1 50/1/1 49/1/1
f 54/1/1 53/1/1 52/1/1
f 55/1/1 50/1/1 53/1/1
f 55/1/1 53/1/1 54/1/1
f 59/1/1 57/1/1 56/1/1
f 60/1/1 59/1/1 58/1/1
f 61/1/1 57/1/1 59/1/1
f 61/1/1 59/1/1 60/1/1
f 64/3/1 63/3/1 62/3/1
f 65/3/1 64/3/1 62/3/1
f 66/3/1 65/3/1 62/3/1
f 67/3/1 65/3/1 66/3/1
f 70/1/1 69/1/1 68/1/1
f 71/1/1 69/1/1 70/1/1
f 72/1/1 70/1/1 68/1/1
f 73/1/1 70/1/1 72/1/1
f 75/1/1 69/1/1 71/1/1
f 76/1/1 75/1/1 74/1/1
f 77/1/1 69/1/1 75/1/1
f 77/1/1 75/1/1 76/1/1
f 80/3/1 79/3/1 78/3/1
f 81/3/1 79/3/1 80/3/1
f 82/3/2 83/3/2 84/3/2
f 84/3/2 83/3/2 85/3/2
f 86/3/2 87/3/2 88/3/2
f 88/3/2 87/3/2 89/3/2
f 90/3/2 91/3/2 92/3/2
f 92/3/2 91/3/2 93/3/2
f 94/1/2 95/1/2 96/1/2
f 96/1/2 95/1/2 97/1/2
f 94/1/2 96/1/2 98/1/2
f 98/1/2 96/1/2 99/1/2
f 97/1/2 95/1/2 101/1/2
f 100/1/2 101/1/2 102/1/2
f 101/1/2 95/1/2 103/1/2
f 102/1/2 101/1/2 103/1/2
f 104/3/2 105/3/2 106/3/2
f 104/3/2 106/3/2 107/3/2
f 104/3/2 107/3/2 108/3/2
f 108/3/2 107/3/2 109/3/2
f 110/1/2 111/1/2 113/1/2
f 112/1/2 113/1/2 114/1/2
f 113/1/2 111/1/2 115/1/2
f 114/1/2 113/1/2 115/1/2
f 116/1/2 117/1/2 120/1/2
f 120/1/2 117/1/2 121/1/2
f 118/1/2 119/1/2 122/1/2
f 121/1/2 122/1/2 123/1/2
f 122/1/2 119/1/2 124/1/2
f 123/1/2 122/1/2 124/1/2
f 125/1/2 126/1/2 129/1/2
f 129/1/2 126/1/2 130/1/2
f 127/1/2 128/1/2 131/1/2
f 131/1/2 128/1/2 132/1/2
f 129/2/2 130/2/2 133/2/2
f 133/2/2 130/2/2 134/2/2
f 131/2/2 132/2/2 135/2/2
f 135/2/2 132/2/2 136/2/2
f 137/1/2 138/1/2 139/1/2
f 139/1/2 138/1/2 140/1/2
f 141/1/2 142/1/2 143/1/2
f 143/1/2 142/1/2 144/1/2
f 143/2/2 144/2/2 145/2/2
f 145/2/2 144/2/2 146/2/2
f 147/1/2 148/1/2 151/1/2
f 151/1/2 148/1/2 152/1/2
f 149/1/2 150/1/2 153/1/2
f 153/1/2 150/1/2 154/1/2
f 155/1/2 156/1/2 159/1/2
f 159/1/2 156/1/2 160/1/2
f 157/1/2 158/1/2 163/1/2
f 163/1/2 158/1/2 164/1/2
f 161/1/2 162/1/2 165/1/2
f 165/1/2 162/1/2 166/1/2
f 167/1/2 168/1/2 169/1/2
f 169/1/2 168/1/2 170/1/2
f 173/1/3 172/1/3 171/1/3
f 174/1/3 172/1/3 173/1/3
f 177/1/3 176/1/3 175/1/3
f 178/1/3 176/1/3 177/1/3
f 181/1/3 180/1/3 179/1/3
f 182/1/3 180/1/3 181/1/3
f 185/1/3 184/1/3 183/1/3
f 186/1/3 184/1/3 185/1/3
f 189/1/3 188/1/3 187/1/3
f 190/1/3 188/1/3 189/1/3
f 193/1/3 192/1/3 191/1/3
f 194/1/3 192/1/3 193/1/3
f 197/3/3 196/3/3 195/3/3
f 198/3/3 196/3/3 197/3/3
f 199/3/3 196/3/3 198/3/3
f 200/3/3 196/3/3 199/3/3
f 201/3/3 199/3/3 198/3/3
f 202/3/3 199/3/3 201/3/3
f 203/3/3 197/3/3 195/3/3
f 204/3/3 196/3/3 200/3/3
f 205/3/3 203/3/3 195/3/3
f 205/3/3 204/3/3 203/3/3
f 206/3/3 196/3/3 204/3/3
f 206/3/3 204/3/3 205/3/3
f 210/1/3 208/1/3 207/1/3
f 211/2/3 209/2/3 208/2/3
f 211/1/3 208/1/3 210/1/3
f 212/2/3 209/2/3 211/2/3
f 217/2/3 214/2/3 213/2/3
f 218/2/3 216/2/3 215/2/3
f 219/2/3 217/2/3 213/2/3
f 219/2/3 218/2/3 217/2/3
f 220/2/3 216/2/3 218/2/3
f 220/2/3 218/2/3 219/2/3
f 224/1/3 222/1/3 221/1/3
f 225/2/3 223/2/3 222/2/3
f 225/1/3 222/1/3 224/1/3
f 226/2/3 223/2/3 225/2/3
f 229/1/3 228/1/3 227/1/3
f 230/1/3 228/1/3 229/1/3
f 234/1/3 232/1/3 231/1/3
f 235/2/3 233/2/3 232/2/3
f 235/1/3 232/1/3 234/1/3
f 236/2/3 233/2/3 235/2/3
f 240/1/3 238/1/3 237/1/3
f 241/2/3 239/2/3 238/2/3
f 241/1/3 238/1/3 240/1/3
f 242/2/3 239/2/3 241/2/3
f 245/1/3 244/1/3 243/1/3
f 246/1/3 244/1/3 245/1/3
f 249/1/3 247/1/3 246/1/3
f 250/1/3 247/1/3 249/1/3
f 251/1/3 249/1/3 248/1/3
f 252/1/3 249/1/3 251/1/3
f 255/1/3 254/1/3 253/1/3
f 256/1/3 254/1/3 255/1/3
f 259/1/3 258/1/3 257/1/3
f 260/1/3 258/1/3 259/1/3
f 263/1/3 262/1/3 261/1/3
f 264/1/3 262/1/3 263/1/3
f 265/3/4 266/3/4 267/3/4
f 267/3/4 266/3/4 268/3/4
f 269/1/4 270/1/4 271/1/4
f 271/1/4 270/1/4 272/1/4
f 273/1/4 274/1/4 275/1/4
f 275/1/4 274/1/4 276/1/4
f 277/1/4 278/1/4 280/1/4
f 278/2/4 279/2/4 281/2/4
f 280/1/4 278/1/4 281/1/4
f 281/2/4 279/2/4 282/2/4
f 283/1/4 284/1/4 286/1/4
f 284/2/4 285/2/4 287/2/4
f 286/1/4 284/1/4 287/1/4
f 287/2/4 285/2/4 288/2/4
f 289/1/4 290/1/4 291/1/4
f 291/1/4 290/1/4 292/1/4
f 289/1/4 291/1/4 293/1/4
f 289/1/4 293/1/4 295/1/4
f 293/1/4 294/1/4 295/1/4
f 295/1/4 294/1/4 296/1/4
f 297/1/4 298/1/4 300/1/4
f 298/2/4 299/2/4 301/2/4
f 300/1/4 298/1/4 301/1/4
f 301/2/4 299/2/4 302/2/4
f 303/1/4 304/1/4 305/1/4
f 305/1/4 304/1/4 306/1/4
f 307/1/4 308/1/4 309/1/4
f 309/1/4 308/1/4 310/1/4
f 311/1/4 312/1/4 313/1/4
f 313/1/4 312/1/4 314/1/4
f 315/1/4 316/1/4 317/1/4
f 317/1/4 316/1/4 318/1/4
f 319/1/4 320/1/4 321/1/4
f 321/1/4 320/1/4 322/1/4
f 325/1/4 326/1/4 327/1/4
f 327/1/4 326/1/4 328/1/4
f 323/1/4 324/1/4 329/1/4
f 329/1/4 324/1/4 330/1/4
f 331/1/4 332/1/4 333/1/4
f 333/1/4 332/1/4 334/1/4
f 335/1/4 336/1/4 337/1/4
f 337/1/4 336/1/4 338/1/4
f 339/1/4 340/1/4 341/1/4
f 341/1/4 340/1/4 342/1/4
f 346/1/5 344/1/5 343/1/5
f 347/1/5 344/1/5 346/1/5
f 349/1/5 346/1/5 345/1/5
f 349/1/5 348/1/5 347/1/5
f 349/1/5 347/1/5 346/1/5
f 350/1/5 348/1/5 349/1/5
f 351/1/5 348/1/5 350/1/5
f 352/1/5 348/1/5 351/1/5
f 353/1/5 351/1/5 350/1/5
f 354/1/5 351/1/5 353/1/5
f 357/3/5 356/3/5 355/3/5
f 358/3/5 356/3/5 357/3/5
f 361/3/5 360/3/5 359/3/5
f 362/3/5 360/3/5 361/3/5
f 365/1/5 364/1/5 363/1/5
f 366/1/5 364/1/5 365/1/5
f 369/1/5 368/1/5 367/1/5
f 370/1/5 368/1/5 369/1/5
f 371/1/5 368/1/5 370/1/5
f 372/1/5 368/1/5 371/1/5
f 373/1/5 371/1/5 370/1/5
f 374/1/5 371/1/5 373/1/5
f 375/1/6 376/1/6 378/1/6
f 378/1/6 376/1/6 379/1/6
f 379/1/6 376/1/6 380/1/6
f 380/1/6 376/1/6 381/1/6
f 377/1/6 378/1/6 383/1/6
f 378/1/6 379/1/6 383/1/6
f 383/1/6 379/1/6 384/1/6
f 381/1/6 382/1/6 385/1/6
f 380/1/6 381/1/6 385/1/6
f 385/1/6 382/1/6 386/1/6
f 377/1/6 383/1/6 387/1/6
f 386/1/6 382/1/6 390/1/6
f 387/1/6 388/1/6 391/1/6
f 377/1/6 387/1/6 391/1/6
f 391/1/6 388/1/6 392/1/6
f 392/1/6 388/1/6 393/1/6
f 389/1/6 390/1/6 394/1/6
f 390/1/6 382/1/6 395/1/6
f 394/1/6 390/1/6 395/1/6
f 395/1/6 382/1/6 396/1/6
f 392/1/6 393/1/6 397/1/6
f 393/1/6 394/1/6 397/1/6
f 394/1/6 395/1/6 397/1/6
f 397/1/6 395/1/6 398/1/6
f 399/1/6 400/1/6 402/1/6
f 402/1/6 400/1/6 403/1/6
f 401/1/6 402/1/6 405/1/6
f 403/1/6 404/1/6 405/1/6
f 402/1/6 403/1/6 405/1/6
f 405/1/6 404/1/6 406/1/6
f 401/1/6 405/1/6 407/1/6
f 407/1/6 405/1/6 408/1/6
f 406/1/6 404/1/6 409/1/6
f 409/1/6 404/1/6 410/1/6
f 401/1/6 407/1/6 411/1/6
f 411/1/6 407/1/6 412/1/6
f 410/1/6 404/1/6 413/1/6
f 413/1/6 404/1/6 414/1/6
f 401/1/6 411/1/6 415/1/6
f 414/1/6 404/1/6 418/1/6
f 415/1/6 416/1/6 419/1/6
f 417/1/6 418/1/6 420/1/6
f 415/1/6 419/1/6 421/1/6
f 419/1/6 420/1/6 421/1/6
f 401/1/6 415/1/6 421/1/6
f 421/1/6 420/1/6 422/1/6
f 420/1/6 418/1/6 423/1/6
f 422/1/6 420/1/6 423/1/6
f 418/1/6 404/1/6 423/1/6
f 423/1/6 404/1/6 424/1/6
f 422/1/6 423/1/6 425/1/6
f 425/1/6 423/1/6 426/1/6
f 427/3/6 428/3/6 429/3/6
f 429/3/6 428/3/6 430/3/6
f 431/3/6 432/3/6 433/3/6
f 433/3/6 432/3/6 434/3/6
f 435/2/6 436/2/6 439/2/6
f 437/2/6 438/2/6 439/2/6
f 436/2/6 437/2/6 439/2/6
f 439/2/6 438/2/6 440/2/6
f 435/2/6 439/2/6 442/2/6
f 440/2/6 438/2/6 443/2/6
f 441/2/6 442/2/6 445/2/6
f 442/2/6 439/2/6 446/2/6
f 445/2/6 442/2/6 446/2/6
f 443/2/6 444/2/6 447/2/6
f 440/2/6 443/2/6 447/2/6
f 447/2/6 444/2/6 448/2/6
f 441/2/6 445/2/6 449/2/6
f 448/2/6 444/2/6 452/2/6
f 449/2/6 450/2/6 453/2/6
f 441/2/6 449/2/6 453/2/6
f 453/2/6 450/2/6 454/2/6
f 451/2/6 452/2/6 455/2/6
f 452/2/6 444/2/6 456/2/6
f 455/2/6 452/2/6 456/2/6
f 454/2/6 450/2/6 457/2/6
f 451/2/6 455/2/6 458/2/6
f 454/2/6 457/2/6 459/2/6
f 457/2/6 458/2/6 459/2/6
f 458/2/6 455/2/6 460/2/6
f 459/2/6 458/2/6 460/2/6
f 461/3/6 462/3/6 463/3/6
f 463/3/6 462/3/6 464/3/6
f 465/1/6 466/1/6 467/1/6
f 467/1/6 466/1/6 468/1/6
f 469/1/6 470/1/6 471/1/6
f 471/1/6 470/1/6 472/1/6
f 473/1/6 474/1/6 476/1/6
f 476/1/6 474/1/6 477/1/6
f 475/1/6 476/1/6 479/1/6
f 479/1/6 476/1/6 480/1/6
f 477/1/6 478/1/6 481/1/6
f 481/1/6 478/1/6 482/1/6
f 483/1/6 484/1/6 485/1/6
f 485/1/6 484/1/6 486/1/6
f 483/1/6 485/1/6 487/1/6
f 487/1/6 485/1/6 488/1/6
f 486/1/6 484/1/6 489/1/6
f 489/1/6 484/1/6 490/1/6
f 491/1/6 492/1/6 493/1/6
f 493/1/6 492/1/6 494/1/6
f 494/1/6 492/1/6 495/1/6
f 495/1/6 492/1/6 496/1/6
f 494/1/6 495/1/6 497/1/6
f 497/1/6 495/1/6 498/1/6
