# MagicaVoxel @ Ephtracy

# group
o 

# material
mtllib model-0.mtl
usemtl palette

# normals
vn 0 0 1
vn 0 0 -1
vn 1 0 0
vn -1 0 0
vn 0 -1 0
vn 0 1 0

# texcoords
vt 0.0253906 0.5
vt 0.572266 0.5

# verts
v 0.6 0 1.1
v -0.6 0 1.1
v 0.6 0.3 1.1
v -0.6 0.3 1.1
v 0.5 0.3 1
v -0.5 0.3 1
v 0.5 0.7 1
v -0.5 0.7 1
v 0.7 0 0.9
v 0.6 0 0.9
v -0.6 0 0.9
v -0.7 0 0.9
v 0.7 0.3 0.9
v 0.6 0.3 0.9
v -0.6 0.3 0.9
v -0.7 0.3 0.9
v 0.6 0.3 0.8
v 0.5 0.3 0.8
v -0.5 0.3 0.8
v -0.6 0.3 0.8
v 0.6 0.7 0.8
v 0.5 0.7 0.8
v -0.5 0.7 0.8
v -0.6 0.7 0.8
v 0.7 0.3 0.2
v 0.6 0.3 0.2
v 0.7 0.6 0.2
v 0.6 0.6 0.2
v 0.7 0.3 -0.2
v 0.6 0.3 -0.2
v 0.7 0.6 -0.2
v 0.6 0.6 -0.2
v 0.6 0.3 -0.8
v 0.5 0.3 -0.8
v -0.5 0.3 -0.8
v -0.6 0.3 -0.8
v 0.6 0.7 -0.8
v 0.5 0.7 -0.8
v -0.5 0.7 -0.8
v -0.6 0.7 -0.8
v 0.7 0 -0.9
v 0.6 0 -0.9
v -0.6 0 -0.9
v -0.7 0 -0.9
v 0.7 0.3 -0.9
v 0.6 0.3 -0.9
v -0.6 0.3 -0.9
v -0.7 0.3 -0.9
v 0.5 0.3 -1
v -0.5 0.3 -1
v 0.5 0.7 -1
v -0.5 0.7 -1
v 0.6 0 -1.1
v -0.6 0 -1.1
v 0.6 0.3 -1.1
v -0.6 0.3 -1.1
v 0.7 0 0.9
v 0.7 0.3 0.9
v 0.7 0.3 0.2
v 0.7 0.6 0.2
v 0.7 0.3 -0.2
v 0.7 0.6 -0.2
v 0.7 0 -0.9
v 0.7 0.3 -0.9
v 0.6 0 1.1
v 0.6 0.3 1.1
v 0.6 0 0.9
v 0.6 0.3 0.9
v 0.6 0.3 0.8
v 0.6 0.7 0.8
v 0.6 0.3 0.2
v 0.6 0.6 0.2
v 0.6 0.3 -0.2
v 0.6 0.6 -0.2
v 0.6 0.3 -0.8
v 0.6 0.7 -0.8
v 0.6 0 -0.9
v 0.6 0.3 -0.9
v 0.6 0 -1.1
v 0.6 0.3 -1.1
v 0.5 0.3 1
v 0.5 0.7 1
v 0.5 0.3 0.8
v 0.5 0.7 0.8
v 0.5 0.3 -0.8
v 0.5 0.7 -0.8
v 0.5 0.3 -1
v 0.5 0.7 -1
v -0.5 0.3 1
v -0.5 0.7 1
v -0.5 0.3 0.8
v -0.5 0.7 0.8
v -0.5 0.3 -0.8
v -0.5 0.7 -0.8
v -0.5 0.3 -1
v -0.5 0.7 -1
v -0.6 0 1.1
v -0.6 0.3 1.1
v -0.6 0 0.9
v -0.6 0.3 0.9
v -0.6 0.3 0.8
v -0.6 0.7 0.8
v -0.6 0.3 -0.8
v -0.6 0.7 -0.8
v -0.6 0 -0.9
v -0.6 0.3 -0.9
v -0.6 0 -1.1
v -0.6 0.3 -1.1
v -0.7 0 0.9
v -0.7 0.3 0.9
v -0.7 0 -0.9
v -0.7 0.3 -0.9
v 0.7 0 0.9
v 0.7 0 -0.9
v 0.6 0 1.1
v 0.6 0 0.9
v 0.6 0 -0.9
v 0.6 0 -1.1
v -0.6 0 1.1
v -0.6 0 0.9
v -0.6 0 -0.9
v -0.6 0 -1.1
v -0.7 0 0.9
v -0.7 0 -0.9
v 0.7 0.3 0.9
v 0.7 0.3 0.2
v 0.7 0.3 -0.2
v 0.7 0.3 -0.9
v 0.6 0.3 1.1
v 0.6 0.3 0.9
v 0.6 0.3 0.8
v 0.6 0.3 0.2
v 0.6 0.3 -0.2
v 0.6 0.3 -0.8
v 0.6 0.3 -0.9
v 0.6 0.3 -1.1
v 0.5 0.3 1
v 0.5 0.3 0.8
v 0.5 0.3 -0.8
v 0.5 0.3 -1
v -0.5 0.3 1
v -0.5 0.3 0.8
v -0.5 0.3 -0.8
v -0.5 0.3 -1
v -0.6 0.3 1.1
v -0.6 0.3 0.9
v -0.6 0.3 0.8
v -0.6 0.3 -0.8
v -0.6 0.3 -0.9
v -0.6 0.3 -1.1
v -0.7 0.3 0.9
v -0.7 0.3 -0.9
v 0.7 0.6 0.2
v 0.7 0.6 -0.2
v 0.6 0.6 0.2
v 0.6 0.6 -0.2
v 0.6 0.7 0.8
v 0.6 0.7 -0.8
v 0.5 0.7 1
v 0.5 0.7 0.8
v 0.5 0.7 -0.8
v 0.5 0.7 -1
v -0.5 0.7 1
v -0.5 0.7 0.8
v -0.5 0.7 -0.8
v -0.5 0.7 -1
v -0.6 0.7 0.8
v -0.6 0.7 -0.8

# faces
f 3/1/1 2/1/1 1/1/1
f 4/1/1 2/1/1 3/1/1
f 7/2/1 6/2/1 5/2/1
f 8/2/1 6/2/1 7/2/1
f 13/1/1 10/1/1 9/1/1
f 14/1/1 10/1/1 13/1/1
f 15/1/1 12/1/1 11/1/1
f 16/1/1 12/1/1 15/1/1
f 21/2/1 18/2/1 17/2/1
f 22/2/1 18/2/1 21/2/1
f 23/2/1 20/2/1 19/2/1
f 24/2/1 20/2/1 23/2/1
f 27/1/1 26/1/1 25/1/1
f 28/1/1 26/1/1 27/1/1
f 29/1/2 30/1/2 31/1/2
f 31/1/2 30/1/2 32/1/2
f 33/2/2 34/2/2 37/2/2
f 37/2/2 34/2/2 38/2/2
f 35/2/2 36/2/2 39/2/2
f 39/2/2 36/2/2 40/2/2
f 41/1/2 42/1/2 45/1/2
f 45/1/2 42/1/2 46/1/2
f 43/1/2 44/1/2 47/1/2
f 47/1/2 44/1/2 48/1/2
f 49/2/2 50/2/2 51/2/2
f 51/2/2 50/2/2 52/2/2
f 53/1/2 54/1/2 55/1/2
f 55/1/2 54/1/2 56/1/2
f 59/1/3 58/1/3 57/1/3
f 61/1/3 59/1/3 57/1/3
f 61/1/3 60/1/3 59/1/3
f 62/1/3 60/1/3 61/1/3
f 63/1/3 61/1/3 57/1/3
f 64/1/3 61/1/3 63/1/3
f 67/1/3 66/1/3 65/1/3
f 68/1/3 66/1/3 67/1/3
f 71/2/3 70/2/3 69/2/3
f 72/2/3 70/2/3 71/2/3
f 74/2/3 70/2/3 72/2/3
f 75/2/3 74/2/3 73/2/3
f 76/2/3 70/2/3 74/2/3
f 76/2/3 74/2/3 75/2/3
f 79/1/3 78/1/3 77/1/3
f 80/1/3 78/1/3 79/1/3
f 83/2/3 82/2/3 81/2/3
f 84/2/3 82/2/3 83/2/3
f 87/2/3 86/2/3 85/2/3
f 88/2/3 86/2/3 87/2/3
f 89/2/4 90/2/4 91/2/4
f 91/2/4 90/2/4 92/2/4
f 93/2/4 94/2/4 95/2/4
f 95/2/4 94/2/4 96/2/4
f 97/1/4 98/1/4 99/1/4
f 99/1/4 98/1/4 100/1/4
f 101/2/4 102/2/4 103/2/4
f 103/2/4 102/2/4 104/2/4
f 105/1/4 106/1/4 107/1/4
f 107/1/4 106/1/4 108/1/4
f 109/1/4 110/1/4 111/1/4
f 111/1/4 110/1/4 112/1/4
f 116/1/5 114/1/5 113/1/5
f 117/1/5 114/1/5 116/1/5
f 119/1/5 116/1/5 115/1/5
f 119/1/5 118/1/5 117/1/5
f 119/1/5 117/1/5 116/1/5
f 120/1/5 118/1/5 119/1/5
f 121/1/5 118/1/5 120/1/5
f 122/1/5 118/1/5 121/1/5
f 123/1/5 121/1/5 120/1/5
f 124/1/5 121/1/5 123/1/5
f 125/1/6 126/1/6 130/1/6
f 130/1/6 126/1/6 131/1/6
f 131/1/6 126/1/6 132/1/6
f 127/1/6 128/1/6 133/1/6
f 133/1/6 128/1/6 134/1/6
f 134/1/6 128/1/6 135/1/6
f 129/1/6 130/1/6 137/1/6
f 130/1/6 131/1/6 137/1/6
f 137/1/6 131/1/6 138/1/6
f 135/1/6 136/1/6 139/1/6
f 134/1/6 135/1/6 139/1/6
f 139/1/6 136/1/6 140/1/6
f 129/1/6 137/1/6 141/1/6
f 140/1/6 136/1/6 144/1/6
f 141/1/6 142/1/6 145/1/6
f 129/1/6 141/1/6 145/1/6
f 145/1/6 142/1/6 146/1/6
f 146/1/6 142/1/6 147/1/6
f 143/1/6 144/1/6 148/1/6
f 148/1/6 144/1/6 149/1/6
f 144/1/6 136/1/6 150/1/6
f 149/1/6 144/1/6 150/1/6
f 146/1/6 147/1/6 151/1/6
f 148/1/6 149/1/6 151/1/6
f 147/1/6 148/1/6 151/1/6
f 151/1/6 149/1/6 152/1/6
f 153/1/6 154/1/6 155/1/6
f 155/1/6 154/1/6 156/1/6
f 157/2/6 158/2/6 160/2/6
f 160/2/6 158/2/6 161/2/6
f 159/2/6 160/2/6 163/2/6
f 161/2/6 162/2/6 163/2/6
f 160/2/6 161/2/6 163/2/6
f 163/2/6 162/2/6 164/2/6
f 164/2/6 162/2/6 165/2/6
f 165/2/6 162/2/6 166/2/6
f 164/2/6 165/2/6 167/2/6
f 167/2/6 165/2/6 168/2/6
