# MagicaVoxel @ Ephtracy

# group
o 

# material
mtllib model-4.mtl
usemtl palette

# normals
vn 0 0 1
vn 0 0 -1
vn 1 0 0
vn -1 0 0
vn 0 -1 0
vn 0 1 0

# texcoords
vt 0.0253906 0.5
vt 0.0644531 0.5
vt 0.0683594 0.5
vt 0.572266 0.5
vt 0.771484 0.5
vt 0.775391 0.5
vt 0.779297 0.5

# verts
v 0.5 1.2 1.2
v -0.5 1.2 1.2
v 0.6 1.9 1.2
v 0.5 1.9 1.2
v -0.5 1.9 1.2
v -0.6 1.9 1.2
v 0.6 2.2 1.2
v -0.6 2.2 1.2
v 0.6 0.6 1.1
v -0.6 0.6 1.1
v 0.6 0.9 1.1
v -0.6 0.9 1.1
v 0.5 0.9 1
v -0.5 0.9 1
v 0.5 1.2 1
v -0.5 1.2 1
v 0.8 1.9 1
v 0.6 1.9 1
v -0.6 1.9 1
v -0.8 1.9 1
v 0.8 2.2 1
v 0.6 2.2 1
v -0.6 2.2 1
v -0.8 2.2 1
v 0.7 0.6 0.9
v 0.6 0.6 0.9
v -0.6 0.6 0.9
v -0.7 0.6 0.9
v 0.7 0.9 0.9
v 0.6 0.9 0.9
v -0.6 0.9 0.9
v -0.7 0.9 0.9
v 0.6 0.9 0.8
v 0.5 0.9 0.8
v -0.5 0.9 0.8
v -0.6 0.9 0.8
v 0.6 1.9 0.8
v 0.5 1.9 0.8
v -0.5 1.9 0.8
v -0.6 1.9 0.8
v 0.8 0.5 0.3
v 0.7 0.5 0.3
v 0.8 0.6 0.3
v 0.7 0.6 0.3
v 0.7 0.9 0.3
v 0.8 1 0.3
v 0.7 1 0.3
v 0.7 0.9 0.2
v 0.6 0.9 0.2
v 0.7 1 0.2
v 0.7 1.9 0.2
v 0.6 1.9 0.2
v 0.8 0.6 -0.2
v 0.7 0.6 -0.2
v 0.8 0.8 -0.2
v 0.7 0.8 -0.2
v 0.8 0.9 -0.2
v 0.7 0.9 -0.2
v 0.8 0.6 0.2
v 0.7 0.6 0.2
v 0.8 0.7 0.2
v 0.7 0.7 0.2
v 0.8 0.8 0.2
v 0.7 0.8 0.2
v 0.8 0.9 0.2
v 0.7 0.9 0.2
v 0.8 0.7 0
v 0.7 0.7 0
v 0.8 0.8 0
v 0.7 0.8 0
v 0.7 0.9 -0.2
v 0.6 0.9 -0.2
v 0.7 1 -0.2
v 0.7 1.9 -0.2
v 0.6 1.9 -0.2
v 0.8 0.5 -0.3
v 0.7 0.5 -0.3
v 0.7 0.6 -0.3
v 0.8 0.8 -0.3
v 0.7 0.8 -0.3
v 0.7 0.9 -0.3
v 0.8 1 -0.3
v 0.7 1 -0.3
v 0.6 0.9 -0.8
v 0.5 0.9 -0.8
v -0.5 0.9 -0.8
v -0.6 0.9 -0.8
v 0.6 1.9 -0.8
v 0.5 1.9 -0.8
v -0.5 1.9 -0.8
v -0.6 1.9 -0.8
v 0.7 0.6 -0.9
v 0.6 0.6 -0.9
v -0.6 0.6 -0.9
v -0.7 0.6 -0.9
v 0.7 0.9 -0.9
v 0.6 0.9 -0.9
v -0.6 0.9 -0.9
v -0.7 0.9 -0.9
v 0.5 0.9 -1
v -0.5 0.9 -1
v 0.5 1.2 -1
v -0.5 1.2 -1
v 0.8 1.9 -1
v 0.6 1.9 -1
v -0.6 1.9 -1
v -0.8 1.9 -1
v 0.8 2.2 -1
v 0.6 2.2 -1
v -0.6 2.2 -1
v -0.8 2.2 -1
v 0.6 0.6 -1.1
v -0.6 0.6 -1.1
v 0.6 0.9 -1.1
v -0.6 0.9 -1.1
v 0.5 1.2 -1.2
v -0.5 1.2 -1.2
v 0.6 1.9 -1.2
v 0.5 1.9 -1.2
v -0.5 1.9 -1.2
v -0.6 1.9 -1.2
v 0.6 2.2 -1.2
v -0.6 2.2 -1.2
v 0.8 1.9 1
v 0.8 2.2 1
v 0.8 0.5 0.3
v 0.8 0.6 0.3
v 0.8 1 0.3
v 0.8 0.6 0.2
v 0.8 0.7 0.2
v 0.8 0.8 0.2
v 0.8 0.9 0.2
v 0.8 0.5 0
v 0.8 0.6 0
v 0.8 0.7 0
v 0.8 0.8 0
v 0.8 0.9 0
v 0.8 1 0
v 0.8 0.6 -0.2
v 0.8 0.8 -0.2
v 0.8 0.9 -0.2
v 0.8 0.5 -0.3
v 0.8 0.8 -0.3
v 0.8 1 -0.3
v 0.8 1.9 -1
v 0.8 2.2 -1
v 0.7 0.6 0.9
v 0.7 0.9 0.9
v 0.7 0.7 0.8
v 0.7 0.8 0.8
v 0.7 0.7 0.7
v 0.7 0.8 0.7
v 0.7 0.7 0.5
v 0.7 0.8 0.5
v 0.7 0.7 0.4
v 0.7 0.8 0.4
v 0.7 0.6 0.3
v 0.7 0.9 0.3
v 0.7 0.6 0.2
v 0.7 0.7 0.2
v 0.7 0.8 0.2
v 0.7 0.9 0.2
v 0.7 1 0.2
v 0.7 1.9 0.2
v 0.7 0.6 0
v 0.7 0.7 0
v 0.7 0.8 0
v 0.7 0.9 0
v 0.7 1 0
v 0.7 0.6 -0.2
v 0.7 0.8 -0.2
v 0.7 0.9 -0.2
v 0.7 1 -0.2
v 0.7 1.9 -0.2
v 0.7 0.6 -0.3
v 0.7 0.8 -0.3
v 0.7 0.9 -0.3
v 0.7 0.6 -0.9
v 0.7 0.9 -0.9
v 0.6 1.9 1.2
v 0.6 2.2 1.2
v 0.6 0.6 1.1
v 0.6 0.9 1.1
v 0.6 1.9 1
v 0.6 2.2 1
v 0.6 0.6 0.9
v 0.6 0.9 0.9
v 0.6 0.9 0.8
v 0.6 1.9 0.8
v 0.6 0.9 0.2
v 0.6 1.9 0.2
v 0.6 0.9 -0.2
v 0.6 1.9 -0.2
v 0.6 0.9 -0.8
v 0.6 1.9 -0.8
v 0.6 0.6 -0.9
v 0.6 0.9 -0.9
v 0.6 1.9 -1
v 0.6 2.2 -1
v 0.6 0.6 -1.1
v 0.6 0.9 -1.1
v 0.6 1.9 -1.2
v 0.6 2.2 -1.2
v 0.5 1.2 1.2
v 0.5 1.9 1.2
v 0.5 0.9 1
v 0.5 1.2 1
v 0.5 0.9 0.8
v 0.5 1.9 0.8
v 0.5 0.9 -0.8
v 0.5 1.9 -0.8
v 0.5 0.9 -1
v 0.5 1.2 -1
v 0.5 1.2 -1.2
v 0.5 1.9 -1.2
v 0.7 0.5 0.3
v 0.7 0.6 0.3
v 0.7 0.9 0.3
v 0.7 1 0.3
v 0.7 0.9 0.2
v 0.7 1 0.2
v 0.7 0.5 0
v 0.7 0.6 0
v 0.7 0.9 -0.2
v 0.7 1 -0.2
v 0.7 0.5 -0.3
v 0.7 0.6 -0.3
v 0.7 0.9 -0.3
v 0.7 1 -0.3
v -0.5 1.2 1.2
v -0.5 1.9 1.2
v -0.5 0.9 1
v -0.5 1.2 1
v -0.5 0.9 0.8
v -0.5 1.9 0.8
v -0.5 0.9 -0.8
v -0.5 1.9 -0.8
v -0.5 0.9 -1
v -0.5 1.2 -1
v -0.5 1.2 -1.2
v -0.5 1.9 -1.2
v -0.6 1.9 1.2
v -0.6 2.2 1.2
v -0.6 0.6 1.1
v -0.6 0.9 1.1
v -0.6 1.9 1
v -0.6 2.2 1
v -0.6 0.6 0.9
v -0.6 0.9 0.9
v -0.6 0.9 0.8
v -0.6 1.9 0.8
v -0.6 0.9 -0.8
v -0.6 1.9 -0.8
v -0.6 0.6 -0.9
v -0.6 0.9 -0.9
v -0.6 1.9 -1
v -0.6 2.2 -1
v -0.6 0.6 -1.1
v -0.6 0.9 -1.1
v -0.6 1.9 -1.2
v -0.6 2.2 -1.2
v -0.7 0.6 0.9
v -0.7 0.9 0.9
v -0.7 0.6 -0.9
v -0.7 0.9 -0.9
v -0.8 1.9 1
v -0.8 2.2 1
v -0.8 1.9 -1
v -0.8 2.2 -1
v 0.8 0.5 0.3
v 0.8 0.5 0
v 0.8 0.5 -0.3
v 0.7 0.5 0.3
v 0.7 0.5 0
v 0.7 0.5 -0.3
v 0.7 0.6 0.9
v 0.7 0.6 0.3
v 0.7 0.6 0
v 0.7 0.6 -0.3
v 0.7 0.6 -0.9
v 0.6 0.6 1.1
v 0.6 0.6 0.9
v 0.6 0.6 0.8
v 0.6 0.6 -0.8
v 0.6 0.6 -0.9
v 0.6 0.6 -1.1
v 0.5 0.6 1
v 0.5 0.6 0.8
v 0.5 0.6 -0.8
v 0.5 0.6 -1
v -0.5 0.6 1
v -0.5 0.6 0.8
v -0.5 0.6 -0.8
v -0.5 0.6 -1
v -0.6 0.6 1.1
v -0.6 0.6 0.9
v -0.6 0.6 0.8
v -0.6 0.6 -0.8
v -0.6 0.6 -0.9
v -0.6 0.6 -1.1
v -0.7 0.6 0.9
v -0.7 0.6 -0.9
v 0.8 0.7 0.2
v 0.8 0.7 0
v 0.7 0.7 0.2
v 0.7 0.7 0
v 0.8 0.9 0.2
v 0.8 0.9 0
v 0.8 0.9 -0.2
v 0.7 0.9 0.2
v 0.7 0.9 0
v 0.7 0.9 -0.2
v 0.5 1.2 1.2
v 0.5 1.2 1
v 0.5 1.2 -1
v 0.5 1.2 -1.2
v -0.5 1.2 1.2
v -0.5 1.2 1
v -0.5 1.2 -1
v -0.5 1.2 -1.2
v 0.8 1.9 1
v 0.8 1.9 -1
v 0.7 1.9 0.2
v 0.7 1.9 -0.2
v 0.6 1.9 1.2
v 0.6 1.9 1
v 0.6 1.9 0.8
v 0.6 1.9 0.2
v 0.6 1.9 -0.2
v 0.6 1.9 -0.8
v 0.6 1.9 -1
v 0.6 1.9 -1.2
v 0.5 1.9 1.2
v 0.5 1.9 0.8
v 0.5 1.9 -0.8
v 0.5 1.9 -1.2
v -0.5 1.9 1.2
v -0.5 1.9 0.8
v -0.5 1.9 -0.8
v -0.5 1.9 -1.2
v -0.6 1.9 1.2
v -0.6 1.9 1
v -0.6 1.9 0.8
v -0.6 1.9 -0.8
v -0.6 1.9 -1
v -0.6 1.9 -1.2
v -0.8 1.9 1
v -0.8 1.9 -1
v 0.8 0.6 0.2
v 0.8 0.6 0
v 0.8 0.6 -0.2
v 0.7 0.6 0.2
v 0.7 0.6 0
v 0.7 0.6 -0.2
v 0.8 0.8 0.2
v 0.8 0.8 0
v 0.7 0.8 0.2
v 0.7 0.8 0
v 0.7 0.9 0.9
v 0.7 0.9 0.3
v 0.7 0.9 0.2
v 0.7 0.9 -0.2
v 0.7 0.9 -0.3
v 0.7 0.9 -0.9
v 0.6 0.9 1.1
v 0.6 0.9 0.9
v 0.6 0.9 0.8
v 0.6 0.9 0.2
v 0.6 0.9 -0.2
v 0.6 0.9 -0.8
v 0.6 0.9 -0.9
v 0.6 0.9 -1.1
v 0.5 0.9 1
v 0.5 0.9 0.8
v 0.5 0.9 -0.8
v 0.5 0.9 -1
v -0.5 0.9 1
v -0.5 0.9 0.8
v -0.5 0.9 -0.8
v -0.5 0.9 -1
v -0.6 0.9 1.1
v -0.6 0.9 0.9
v -0.6 0.9 0.8
v -0.6 0.9 -0.8
v -0.6 0.9 -0.9
v -0.6 0.9 -1.1
v -0.7 0.9 0.9
v -0.7 0.9 -0.9
v 0.8 1 0.3
v 0.8 1 0
v 0.8 1 -0.3
v 0.7 1 0.3
v 0.7 1 0.2
v 0.7 1 0
v 0.7 1 -0.2
v 0.7 1 -0.3
v 0.8 2.2 1
v 0.8 2.2 -1
v 0.6 2.2 1.2
v 0.6 2.2 1
v 0.6 2.2 -1
v 0.6 2.2 -1.2
v -0.6 2.2 1.2
v -0.6 2.2 1
v -0.6 2.2 -1
v -0.6 2.2 -1.2
v -0.8 2.2 1
v -0.8 2.2 -1

# faces
f 4/4/1 2/4/1 1/4/1
f 5/4/1 2/4/1 4/4/1
f 7/1/1 4/1/1 3/1/1
f 7/1/1 6/1/1 5/1/1
f 7/1/1 5/1/1 4/1/1
f 8/1/1 6/1/1 7/1/1
f 11/3/1 10/3/1 9/3/1
f 12/3/1 10/3/1 11/3/1
f 15/4/1 14/4/1 13/4/1
f 16/4/1 14/4/1 15/4/1
f 21/1/1 18/1/1 17/1/1
f 22/1/1 18/1/1 21/1/1
f 23/1/1 20/1/1 19/1/1
f 24/1/1 20/1/1 23/1/1
f 29/3/1 26/3/1 25/3/1
f 30/3/1 26/3/1 29/3/1
f 31/3/1 28/3/1 27/3/1
f 32/3/1 28/3/1 31/3/1
f 37/4/1 34/4/1 33/4/1
f 38/4/1 34/4/1 37/4/1
f 39/4/1 36/4/1 35/4/1
f 40/4/1 36/4/1 39/4/1
f 43/5/1 42/5/1 41/5/1
f 44/5/1 42/5/1 43/5/1
f 45/6/1 44/6/1 43/6/1
f 46/6/1 45/6/1 43/6/1
f 47/6/1 45/6/1 46/6/1
f 50/1/1 49/1/1 48/1/1
f 51/1/1 49/1/1 50/1/1
f 52/1/1 49/1/1 51/1/1
f 55/6/1 54/6/1 53/6/1
f 56/6/1 54/6/1 55/6/1
f 57/7/1 56/7/1 55/7/1
f 58/7/1 56/7/1 57/7/1
f 59/6/2 60/6/2 61/6/2
f 61/6/2 60/6/2 62/6/2
f 63/6/2 64/6/2 65/6/2
f 65/6/2 64/6/2 66/6/2
f 67/5/2 68/5/2 69/5/2
f 69/5/2 68/5/2 70/5/2
f 71/1/2 72/1/2 73/1/2
f 73/1/2 72/1/2 74/1/2
f 74/1/2 72/1/2 75/1/2
f 76/6/2 77/6/2 78/6/2
f 76/6/2 78/6/2 79/6/2
f 79/6/2 78/6/2 80/6/2
f 79/7/2 80/7/2 81/7/2
f 79/7/2 81/7/2 82/7/2
f 82/7/2 81/7/2 83/7/2
f 84/4/2 85/4/2 88/4/2
f 88/4/2 85/4/2 89/4/2
f 86/4/2 87/4/2 90/4/2
f 90/4/2 87/4/2 91/4/2
f 92/3/2 93/3/2 96/3/2
f 96/3/2 93/3/2 97/3/2
f 94/3/2 95/3/2 98/3/2
f 98/3/2 95/3/2 99/3/2
f 100/4/2 101/4/2 102/4/2
f 102/4/2 101/4/2 103/4/2
f 104/1/2 105/1/2 108/1/2
f 108/1/2 105/1/2 109/1/2
f 106/1/2 107/1/2 110/1/2
f 110/1/2 107/1/2 111/1/2
f 112/3/2 113/3/2 114/3/2
f 114/3/2 113/3/2 115/3/2
f 116/4/2 117/4/2 119/4/2
f 119/4/2 117/4/2 120/4/2
f 118/1/2 119/1/2 122/1/2
f 120/1/2 121/1/2 122/1/2
f 119/1/2 120/1/2 122/1/2
f 122/1/2 121/1/2 123/1/2
f 129/5/3 127/5/3 126/5/3
f 129/6/3 128/6/3 127/6/3
f 130/6/3 128/6/3 129/6/3
f 131/6/3 128/6/3 130/6/3
f 132/6/3 128/6/3 131/6/3
f 133/5/3 129/5/3 126/5/3
f 134/5/3 129/5/3 133/5/3
f 135/5/3 131/5/3 130/5/3
f 136/5/3 131/5/3 135/5/3
f 137/6/3 128/6/3 132/6/3
f 138/6/3 128/6/3 137/6/3
f 139/6/3 134/6/3 133/6/3
f 141/7/3 138/7/3 137/7/3
f 142/6/3 140/6/3 139/6/3
f 142/6/3 139/6/3 133/6/3
f 143/7/3 141/7/3 140/7/3
f 143/6/3 140/6/3 142/6/3
f 144/7/3 138/7/3 141/7/3
f 144/7/3 141/7/3 143/7/3
f 145/1/3 125/1/3 124/1/3
f 146/1/3 125/1/3 145/1/3
f 149/3/3 148/3/3 147/3/3
f 150/3/3 148/3/3 149/3/3
f 151/3/3 149/3/3 147/3/3
f 151/2/3 150/2/3 149/2/3
f 152/3/3 148/3/3 150/3/3
f 152/2/3 150/2/3 151/2/3
f 153/3/3 151/3/3 147/3/3
f 153/3/3 152/3/3 151/3/3
f 154/3/3 148/3/3 152/3/3
f 154/3/3 152/3/3 153/3/3
f 155/3/3 153/3/3 147/3/3
f 155/2/3 154/2/3 153/2/3
f 156/3/3 148/3/3 154/3/3
f 156/2/3 154/2/3 155/2/3
f 157/3/3 155/3/3 147/3/3
f 157/3/3 156/3/3 155/3/3
f 158/3/3 148/3/3 156/3/3
f 158/3/3 156/3/3 157/3/3
f 165/3/3 160/3/3 159/3/3
f 166/3/3 160/3/3 165/3/3
f 167/3/3 162/3/3 161/3/3
f 168/3/3 162/3/3 167/3/3
f 169/1/3 164/1/3 163/1/3
f 170/3/3 166/3/3 165/3/3
f 170/3/3 168/3/3 167/3/3
f 170/3/3 167/3/3 166/3/3
f 171/3/3 168/3/3 170/3/3
f 172/3/3 168/3/3 171/3/3
f 173/1/3 164/1/3 169/1/3
f 174/1/3 164/1/3 173/1/3
f 178/3/3 176/3/3 175/3/3
f 178/3/3 177/3/3 176/3/3
f 179/3/3 177/3/3 178/3/3
f 184/1/3 181/1/3 180/1/3
f 185/1/3 181/1/3 184/1/3
f 186/3/3 183/3/3 182/3/3
f 187/3/3 183/3/3 186/3/3
f 190/4/3 189/4/3 188/4/3
f 191/4/3 189/4/3 190/4/3
f 194/4/3 193/4/3 192/4/3
f 195/4/3 193/4/3 194/4/3
f 200/3/3 197/3/3 196/3/3
f 201/3/3 197/3/3 200/3/3
f 202/1/3 199/1/3 198/1/3
f 203/1/3 199/1/3 202/1/3
f 207/4/3 205/4/3 204/4/3
f 208/4/3 207/4/3 206/4/3
f 209/4/3 205/4/3 207/4/3
f 209/4/3 207/4/3 208/4/3
f 212/4/3 211/4/3 210/4/3
f 213/4/3 211/4/3 212/4/3
f 214/4/3 211/4/3 213/4/3
f 215/4/3 211/4/3 214/4/3
f 218/6/4 219/6/4 220/6/4
f 220/6/4 219/6/4 221/6/4
f 216/5/4 217/5/4 222/5/4
f 222/5/4 217/5/4 223/5/4
f 222/6/4 223/6/4 226/6/4
f 226/6/4 223/6/4 227/6/4
f 224/7/4 225/7/4 228/7/4
f 228/7/4 225/7/4 229/7/4
f 230/4/4 231/4/4 233/4/4
f 232/4/4 233/4/4 234/4/4
f 233/4/4 231/4/4 235/4/4
f 234/4/4 233/4/4 235/4/4
f 236/4/4 237/4/4 238/4/4
f 238/4/4 237/4/4 239/4/4
f 239/4/4 237/4/4 240/4/4
f 240/4/4 237/4/4 241/4/4
f 242/1/4 243/1/4 246/1/4
f 246/1/4 243/1/4 247/1/4
f 244/3/4 245/3/4 248/3/4
f 248/3/4 245/3/4 249/3/4
f 250/4/4 251/4/4 252/4/4
f 252/4/4 251/4/4 253/4/4
f 254/3/4 255/3/4 258/3/4
f 258/3/4 255/3/4 259/3/4
f 256/1/4 257/1/4 260/1/4
f 260/1/4 257/1/4 261/1/4
f 262/3/4 263/3/4 264/3/4
f 264/3/4 263/3/4 265/3/4
f 266/1/4 267/1/4 268/1/4
f 268/1/4 267/1/4 269/1/4
f 273/5/5 271/5/5 270/5/5
f 274/6/5 272/6/5 271/6/5
f 274/5/5 271/5/5 273/5/5
f 275/6/5 272/6/5 274/6/5
f 282/3/5 277/3/5 276/3/5
f 282/3/5 280/3/5 279/3/5
f 282/3/5 279/3/5 278/3/5
f 282/3/5 278/3/5 277/3/5
f 283/3/5 280/3/5 282/3/5
f 284/3/5 280/3/5 283/3/5
f 285/3/5 280/3/5 284/3/5
f 287/3/5 282/3/5 281/3/5
f 287/3/5 283/3/5 282/3/5
f 288/4/5 284/4/5 283/4/5
f 288/3/5 283/3/5 287/3/5
f 289/3/5 286/3/5 285/3/5
f 289/4/5 284/4/5 288/4/5
f 289/3/5 285/3/5 284/3/5
f 290/3/5 286/3/5 289/3/5
f 291/4/5 288/4/5 287/4/5
f 291/3/5 287/3/5 281/3/5
f 291/4/5 290/4/5 289/4/5
f 291/4/5 289/4/5 288/4/5
f 292/4/5 290/4/5 291/4/5
f 293/4/5 290/4/5 292/4/5
f 294/3/5 286/3/5 290/3/5
f 294/4/5 290/4/5 293/4/5
f 295/3/5 291/3/5 281/3/5
f 295/3/5 292/3/5 291/3/5
f 296/3/5 292/3/5 295/3/5
f 297/4/5 293/4/5 292/4/5
f 297/3/5 292/3/5 296/3/5
f 298/3/5 294/3/5 293/3/5
f 298/4/5 293/4/5 297/4/5
f 299/3/5 294/3/5 298/3/5
f 300/3/5 286/3/5 294/3/5
f 300/3/5 294/3/5 299/3/5
f 301/3/5 299/3/5 298/3/5
f 301/3/5 298/3/5 297/3/5
f 301/3/5 297/3/5 296/3/5
f 302/3/5 299/3/5 301/3/5
f 305/5/5 304/5/5 303/5/5
f 306/5/5 304/5/5 305/5/5
f 310/6/5 308/6/5 307/6/5
f 311/7/5 309/7/5 308/7/5
f 311/6/5 308/6/5 310/6/5
f 312/7/5 309/7/5 311/7/5
f 317/4/5 314/4/5 313/4/5
f 318/4/5 314/4/5 317/4/5
f 319/4/5 316/4/5 315/4/5
f 320/4/5 316/4/5 319/4/5
f 323/1/5 322/1/5 321/1/5
f 324/1/5 322/1/5 323/1/5
f 326/1/5 323/1/5 321/1/5
f 327/1/5 323/1/5 326/1/5
f 328/1/5 323/1/5 327/1/5
f 329/1/5 322/1/5 324/1/5
f 330/1/5 322/1/5 329/1/5
f 331/1/5 322/1/5 330/1/5
f 333/1/5 326/1/5 325/1/5
f 333/1/5 327/1/5 326/1/5
f 334/1/5 327/1/5 333/1/5
f 335/1/5 332/1/5 331/1/5
f 335/1/5 331/1/5 330/1/5
f 336/1/5 332/1/5 335/1/5
f 341/1/5 338/1/5 337/1/5
f 342/1/5 338/1/5 341/1/5
f 343/1/5 338/1/5 342/1/5
f 344/1/5 340/1/5 339/1/5
f 345/1/5 340/1/5 344/1/5
f 346/1/5 340/1/5 345/1/5
f 347/1/5 343/1/5 342/1/5
f 347/1/5 345/1/5 344/1/5
f 347/1/5 344/1/5 343/1/5
f 348/1/5 345/1/5 347/1/5
f 349/5/6 350/5/6 352/5/6
f 350/6/6 351/6/6 353/6/6
f 352/5/6 350/5/6 353/5/6
f 353/6/6 351/6/6 354/6/6
f 355/5/6 356/5/6 357/5/6
f 357/5/6 356/5/6 358/5/6
f 359/3/6 360/3/6 366/3/6
f 360/3/6 361/3/6 366/3/6
f 366/3/6 361/3/6 367/3/6
f 367/3/6 361/3/6 368/3/6
f 363/3/6 364/3/6 369/3/6
f 362/3/6 363/3/6 369/3/6
f 369/3/6 364/3/6 370/3/6
f 370/3/6 364/3/6 371/3/6
f 366/3/6 367/3/6 373/3/6
f 365/3/6 366/3/6 373/3/6
f 373/3/6 367/3/6 374/3/6
f 371/3/6 372/3/6 375/3/6
f 370/3/6 371/3/6 375/3/6
f 375/3/6 372/3/6 376/3/6
f 365/3/6 373/3/6 377/3/6
f 376/3/6 372/3/6 380/3/6
f 377/3/6 378/3/6 381/3/6
f 365/3/6 377/3/6 381/3/6
f 381/3/6 378/3/6 382/3/6
f 382/3/6 378/3/6 383/3/6
f 379/3/6 380/3/6 384/3/6
f 384/3/6 380/3/6 385/3/6
f 380/3/6 372/3/6 386/3/6
f 385/3/6 380/3/6 386/3/6
f 382/3/6 383/3/6 387/3/6
f 384/3/6 385/3/6 387/3/6
f 383/3/6 384/3/6 387/3/6
f 387/3/6 385/3/6 388/3/6
f 389/6/6 390/6/6 392/6/6
f 392/6/6 390/6/6 393/6/6
f 390/7/6 391/7/6 394/7/6
f 393/6/6 390/6/6 394/6/6
f 394/7/6 391/7/6 395/7/6
f 395/7/6 391/7/6 396/7/6
f 397/1/6 398/1/6 400/1/6
f 400/1/6 398/1/6 401/1/6
f 399/1/6 400/1/6 403/1/6
f 401/1/6 402/1/6 403/1/6
f 400/1/6 401/1/6 403/1/6
f 403/1/6 402/1/6 404/1/6
f 404/1/6 402/1/6 405/1/6
f 405/1/6 402/1/6 406/1/6
f 404/1/6 405/1/6 407/1/6
f 407/1/6 405/1/6 408/1/6
