# MagicaVoxel @ Ephtracy

# group
o 

# material
mtllib model-0.mtl
usemtl palette

# normals
vn -1 0 0
vn 1 0 0
vn 0 0 -1
vn 0 0 1
vn 0 -1 0
vn 0 1 0

# texcoords
vt 0.00195313 0.5
vt 0.00585938 0.5
vt 0.0292969 0.5
vt 0.439453 0.5

# verts
v -0.5 0 -0.9
v -0.5 0 -0.2
v -0.5 0.1 -0.9
v -0.5 0.1 -0.2
v -0.5 0.4 -0.9
v -0.5 0.4 -0.2
v -0.5 0.7 -0.9
v -0.5 0.7 -0.2
v 0.3 0.4 -0.9
v 0.3 0.4 -0.8
v 0.3 0.4 -0.3
v 0.3 0.4 -0.2
v 0.3 0.7 -0.9
v 0.3 0.7 -0.8
v 0.3 0.7 -0.3
v 0.3 0.7 -0.2
v 0.4 0.4 -0.8
v 0.4 0.4 -0.7
v 0.4 0.4 -0.4
v 0.4 0.4 -0.3
v 0.4 0.5 -0.7
v 0.4 0.5 -0.4
v 0.4 0.7 -0.8
v 0.4 0.7 -0.3
v 0.5 0.4 -0.7
v 0.5 0.4 -0.4
v 0.5 0.5 -0.7
v 0.5 0.5 -0.4
v 0.7 0 -0.9
v 0.7 0 -0.2
v 0.7 0.1 -0.9
v 0.7 0.1 -0.2
v 0.7 0.4 -0.9
v 0.7 0.4 -0.2
v -0.5 0 -0.9
v -0.5 0.1 -0.9
v -0.5 0.4 -0.9
v -0.5 0.7 -0.9
v 0.3 0.4 -0.9
v 0.3 0.7 -0.9
v 0.7 0 -0.9
v 0.7 0.1 -0.9
v 0.7 0.4 -0.9
v 0.3 0.4 -0.8
v 0.3 0.7 -0.8
v 0.4 0.4 -0.8
v 0.4 0.7 -0.8
v 0.4 0.4 -0.7
v 0.4 0.5 -0.7
v 0.5 0.4 -0.7
v 0.5 0.5 -0.7
v 0.4 0.4 -0.4
v 0.4 0.5 -0.4
v 0.5 0.4 -0.4
v 0.5 0.5 -0.4
v 0.3 0.4 -0.3
v 0.3 0.7 -0.3
v 0.4 0.4 -0.3
v 0.4 0.7 -0.3
v -0.5 0 -0.2
v -0.5 0.1 -0.2
v -0.5 0.4 -0.2
v -0.5 0.7 -0.2
v 0.3 0.4 -0.2
v 0.3 0.7 -0.2
v 0.7 0 -0.2
v 0.7 0.1 -0.2
v 0.7 0.4 -0.2
v -0.5 0 -0.9
v 0.7 0 -0.9
v -0.5 0 -0.2
v 0.7 0 -0.2
v 0.3 0.4 -0.9
v 0.7 0.4 -0.9
v 0.3 0.4 -0.8
v 0.4 0.4 -0.8
v 0.4 0.4 -0.7
v 0.5 0.4 -0.7
v 0.4 0.4 -0.4
v 0.5 0.4 -0.4
v 0.3 0.4 -0.3
v 0.4 0.4 -0.3
v 0.3 0.4 -0.2
v 0.7 0.4 -0.2
v 0.4 0.5 -0.7
v 0.5 0.5 -0.7
v 0.4 0.5 -0.4
v 0.5 0.5 -0.4
v -0.5 0.7 -0.9
v 0.3 0.7 -0.9
v 0.3 0.7 -0.8
v 0.4 0.7 -0.8
v 0.3 0.7 -0.3
v 0.4 0.7 -0.3
v -0.5 0.7 -0.2
v 0.3 0.7 -0.2

# faces
f 1/1/1 2/1/1 3/1/1
f 3/1/1 2/1/1 4/1/1
f 3/2/1 4/2/1 5/2/1
f 5/2/1 4/2/1 6/2/1
f 5/3/1 6/3/1 7/3/1
f 7/3/1 6/3/1 8/3/1
f 13/3/2 10/3/2 9/3/2
f 14/3/2 10/3/2 13/3/2
f 15/3/2 12/3/2 11/3/2
f 16/3/2 12/3/2 15/3/2
f 21/2/2 18/2/2 17/2/2
f 22/2/2 20/2/2 19/2/2
f 23/2/2 21/2/2 17/2/2
f 23/2/2 22/2/2 21/2/2
f 24/2/2 20/2/2 22/2/2
f 24/2/2 22/2/2 23/2/2
f 27/4/2 26/4/2 25/4/2
f 28/4/2 26/4/2 27/4/2
f 31/1/2 30/1/2 29/1/2
f 32/1/2 30/1/2 31/1/2
f 33/2/2 32/2/2 31/2/2
f 34/2/2 32/2/2 33/2/2
f 36/2/3 37/2/3 39/2/3
f 37/3/3 38/3/3 39/3/3
f 39/3/3 38/3/3 40/3/3
f 35/1/3 36/1/3 41/1/3
f 36/2/3 39/2/3 42/2/3
f 41/1/3 36/1/3 42/1/3
f 42/2/3 39/2/3 43/2/3
f 44/2/3 45/2/3 46/2/3
f 46/2/3 45/2/3 47/2/3
f 48/4/3 49/4/3 50/4/3
f 50/4/3 49/4/3 51/4/3
f 54/4/4 53/4/4 52/4/4
f 55/4/4 53/4/4 54/4/4
f 58/2/4 57/2/4 56/2/4
f 59/2/4 57/2/4 58/2/4
f 64/2/4 62/2/4 61/2/4
f 64/3/4 63/3/4 62/3/4
f 65/3/4 63/3/4 64/3/4
f 66/1/4 61/1/4 60/1/4
f 67/2/4 64/2/4 61/2/4
f 67/1/4 61/1/4 66/1/4
f 68/2/4 64/2/4 67/2/4
f 69/1/5 70/1/5 71/1/5
f 71/1/5 70/1/5 72/1/5
f 75/2/6 74/2/6 73/2/6
f 76/2/6 74/2/6 75/2/6
f 77/2/6 74/2/6 76/2/6
f 78/2/6 74/2/6 77/2/6
f 80/2/6 74/2/6 78/2/6
f 82/2/6 80/2/6 79/2/6
f 83/2/6 82/2/6 81/2/6
f 84/2/6 74/2/6 80/2/6
f 84/2/6 82/2/6 83/2/6
f 84/2/6 80/2/6 82/2/6
f 87/4/6 86/4/6 85/4/6
f 88/4/6 86/4/6 87/4/6
f 91/3/6 90/3/6 89/3/6
f 93/3/6 91/3/6 89/3/6
f 93/2/6 92/2/6 91/2/6
f 94/2/6 92/2/6 93/2/6
f 95/3/6 93/3/6 89/3/6
f 96/3/6 93/3/6 95/3/6
