# MagicaVoxel @ Ephtracy

# group
o 

# material
mtllib model-1.mtl
usemtl palette

# normals
vn 0 0 1
vn 0 0 -1
vn 1 0 0
vn -1 0 0
vn 0 -1 0
vn 0 1 0

# texcoords
vt 0.0996094 0.5
vt 0.412109 0.5
vt 0.416016 0.5
vt 0.419922 0.5
vt 0.513672 0.5
vt 0.517578 0.5
vt 0.521484 0.5

# verts
v 0.5 0 1
v -0.5 0 1
v 0.5 0.1 1
v -0.5 0.1 1
v 0.5 0.7 1
v -0.5 0.7 1
v 0.5 0.1 -0.1
v 0.4 0.1 -0.1
v 0.5 0.2 -0.1
v 0.4 0.2 -0.1
v 0.5 0.3 -0.1
v 0.4 0.3 -0.1
v 0.5 0.4 -0.2
v 0.4 0.4 -0.2
v 0.5 0.7 -0.2
v 0.4 0.7 -0.2
v 0.4 0 -0.9
v -0.4 0 -0.9
v 0.4 0.1 -0.9
v -0.4 0.1 -0.9
v 0.4 0 0.9
v -0.4 0 0.9
v 0.4 0.1 0.9
v -0.4 0.1 0.9
v 0.5 0.4 0.2
v 0.4 0.4 0.2
v 0.5 0.7 0.2
v 0.4 0.7 0.2
v 0.5 0.1 0.1
v 0.4 0.1 0.1
v 0.5 0.3 0.1
v 0.4 0.3 0.1
v 0.5 0 -1
v -0.5 0 -1
v 0.5 0.1 -1
v -0.5 0.1 -1
v 0.5 0.7 -1
v -0.5 0.7 -1
v 0.5 0 1
v 0.5 0.1 1
v 0.5 0.7 1
v 0.5 0.1 0.3
v 0.5 0.7 0.3
v 0.5 0 0.2
v 0.5 0.1 0.2
v 0.5 0.4 0.2
v 0.5 0.7 0.2
v 0.5 0.1 0.1
v 0.5 0.3 0.1
v 0.5 0 0
v 0.5 0.1 0
v 0.5 0.3 0
v 0.5 0.4 0
v 0.5 0.1 -0.1
v 0.5 0.2 -0.1
v 0.5 0.3 -0.1
v 0.5 0 -0.2
v 0.5 0.2 -0.2
v 0.5 0.4 -0.2
v 0.5 0.7 -0.2
v 0.5 0.1 -0.3
v 0.5 0.7 -0.3
v 0.5 0 -1
v 0.5 0.1 -1
v 0.5 0.7 -1
v 0.4 0.4 0.2
v 0.4 0.7 0.2
v 0.4 0.1 0.1
v 0.4 0.3 0.1
v 0.4 0.1 0
v 0.4 0.3 0
v 0.4 0.4 0
v 0.4 0.1 -0.1
v 0.4 0.2 -0.1
v 0.4 0.3 -0.1
v 0.4 0.4 -0.2
v 0.4 0.7 -0.2
v -0.4 0 0.9
v -0.4 0.1 0.9
v -0.4 0 -0.9
v -0.4 0.1 -0.9
v 0.4 0 0.9
v 0.4 0.1 0.9
v 0.4 0 0.2
v 0.4 0.1 0.2
v 0.4 0 0
v 0.4 0.1 0
v 0.4 0 -0.2
v 0.4 0.1 -0.2
v 0.4 0 -0.9
v 0.4 0.1 -0.9
v -0.5 0 1
v -0.5 0.1 1
v -0.5 0.7 1
v -0.5 0 -1
v -0.5 0.1 -1
v -0.5 0.7 -1
v 0.5 0 1
v 0.5 0 0.2
v 0.5 0 0
v 0.5 0 -0.2
v 0.5 0 -1
v 0.4 0 0.9
v 0.4 0 0.2
v 0.4 0 0
v 0.4 0 -0.2
v 0.4 0 -0.9
v -0.4 0 0.9
v -0.4 0 -0.9
v -0.5 0 1
v -0.5 0 -1
v 0.4 0.1 0.9
v 0.4 0.1 0.2
v 0.4 0.1 0
v 0.4 0.1 -0.2
v 0.4 0.1 -0.9
v -0.4 0.1 0.9
v -0.4 0.1 -0.9
v 0.5 0.3 0.1
v 0.5 0.3 0
v 0.5 0.3 -0.1
v 0.4 0.3 0.1
v 0.4 0.3 0
v 0.4 0.3 -0.1
v 0.5 0.1 0.1
v 0.5 0.1 0
v 0.5 0.1 -0.1
v 0.4 0.1 0.1
v 0.4 0.1 0
v 0.4 0.1 -0.1
v 0.5 0.4 0.2
v 0.5 0.4 0
v 0.5 0.4 -0.2
v 0.4 0.4 0.2
v 0.4 0.4 0
v 0.4 0.4 -0.2
v 0.5 0.7 1
v 0.5 0.7 0.3
v 0.5 0.7 0.2
v 0.5 0.7 -0.2
v 0.5 0.7 -0.3
v 0.5 0.7 -1
v 0.4 0.7 0.3
v 0.4 0.7 0.2
v 0.4 0.7 -0.2
v 0.4 0.7 -0.3
v 0.3 0.7 0.3
v 0.3 0.7 -0.3
v -0.5 0.7 1
v -0.5 0.7 -1

# faces
f 3/4/1 2/4/1 1/4/1
f 4/4/1 2/4/1 3/4/1
f 5/3/1 4/3/1 3/3/1
f 6/3/1 4/3/1 5/3/1
f 9/6/1 8/6/1 7/6/1
f 10/6/1 8/6/1 9/6/1
f 11/7/1 10/7/1 9/7/1
f 12/7/1 10/7/1 11/7/1
f 15/4/1 14/4/1 13/4/1
f 16/4/1 14/4/1 15/4/1
f 19/4/1 18/4/1 17/4/1
f 20/4/1 18/4/1 19/4/1
f 21/4/2 22/4/2 23/4/2
f 23/4/2 22/4/2 24/4/2
f 25/4/2 26/4/2 27/4/2
f 27/4/2 26/4/2 28/4/2
f 29/6/2 30/6/2 31/6/2
f 31/6/2 30/6/2 32/6/2
f 33/4/2 34/4/2 35/4/2
f 35/4/2 34/4/2 36/4/2
f 35/3/2 36/3/2 37/3/2
f 37/3/2 36/3/2 38/3/2
f 42/4/3 40/4/3 39/4/3
f 42/3/3 41/3/3 40/3/3
f 43/3/3 41/3/3 42/3/3
f 44/4/3 42/4/3 39/4/3
f 44/4/3 43/4/3 42/4/3
f 45/4/3 43/4/3 44/4/3
f 46/4/3 43/4/3 45/4/3
f 47/4/3 43/4/3 46/4/3
f 48/5/3 45/5/3 44/5/3
f 48/6/3 46/6/3 45/6/3
f 49/6/3 46/6/3 48/6/3
f 50/5/3 48/5/3 44/5/3
f 51/5/3 48/5/3 50/5/3
f 52/6/3 46/6/3 49/6/3
f 53/6/3 46/6/3 52/6/3
f 54/6/3 51/6/3 50/6/3
f 56/7/3 53/7/3 52/7/3
f 57/6/3 55/6/3 54/6/3
f 57/6/3 54/6/3 50/6/3
f 58/7/3 56/7/3 55/7/3
f 58/6/3 55/6/3 57/6/3
f 59/7/3 53/7/3 56/7/3
f 59/7/3 56/7/3 58/7/3
f 61/4/3 59/4/3 58/4/3
f 61/4/3 60/4/3 59/4/3
f 61/4/3 58/4/3 57/4/3
f 62/4/3 60/4/3 61/4/3
f 63/4/3 61/4/3 57/4/3
f 64/3/3 62/3/3 61/3/3
f 64/4/3 61/4/3 63/4/3
f 65/3/3 62/3/3 64/3/3
f 70/1/3 69/1/3 68/1/3
f 71/1/3 69/1/3 70/1/3
f 72/2/3 67/2/3 66/2/3
f 73/1/3 71/1/3 70/1/3
f 74/1/3 71/1/3 73/1/3
f 75/1/3 71/1/3 74/1/3
f 76/2/3 67/2/3 72/2/3
f 77/2/3 67/2/3 76/2/3
f 80/4/3 79/4/3 78/4/3
f 81/4/3 79/4/3 80/4/3
f 82/4/4 83/4/4 84/4/4
f 84/4/4 83/4/4 85/4/4
f 84/5/4 85/5/4 86/5/4
f 86/5/4 85/5/4 87/5/4
f 86/6/4 87/6/4 88/6/4
f 88/6/4 87/6/4 89/6/4
f 88/4/4 89/4/4 90/4/4
f 90/4/4 89/4/4 91/4/4
f 92/4/4 93/4/4 95/4/4
f 93/3/4 94/3/4 96/3/4
f 95/4/4 93/4/4 96/4/4
f 96/3/4 94/3/4 97/3/4
f 103/4/5 99/4/5 98/4/5
f 104/5/5 100/5/5 99/5/5
f 104/4/5 99/4/5 103/4/5
f 105/6/5 101/6/5 100/6/5
f 105/5/5 100/5/5 104/5/5
f 106/4/5 102/4/5 101/4/5
f 106/6/5 101/6/5 105/6/5
f 107/4/5 102/4/5 106/4/5
f 108/4/5 103/4/5 98/4/5
f 109/4/5 102/4/5 107/4/5
f 110/4/5 108/4/5 98/4/5
f 110/4/5 109/4/5 108/4/5
f 111/4/5 102/4/5 109/4/5
f 111/4/5 109/4/5 110/4/5
f 117/1/5 113/1/5 112/1/5
f 117/1/5 116/1/5 115/1/5
f 117/1/5 115/1/5 114/1/5
f 117/1/5 114/1/5 113/1/5
f 118/1/5 116/1/5 117/1/5
f 122/6/5 120/6/5 119/6/5
f 123/7/5 121/7/5 120/7/5
f 123/6/5 120/6/5 122/6/5
f 124/7/5 121/7/5 123/7/5
f 125/5/6 126/5/6 128/5/6
f 126/6/6 127/6/6 129/6/6
f 128/5/6 126/5/6 129/5/6
f 129/6/6 127/6/6 130/6/6
f 131/6/6 132/6/6 134/6/6
f 132/7/6 133/7/6 135/7/6
f 134/6/6 132/6/6 135/6/6
f 135/7/6 133/7/6 136/7/6
f 137/3/6 138/3/6 143/3/6
f 138/4/6 139/4/6 143/4/6
f 143/4/6 139/4/6 144/4/6
f 140/4/6 141/4/6 145/4/6
f 141/3/6 142/3/6 146/3/6
f 145/4/6 141/4/6 146/4/6
f 144/2/6 145/2/6 147/2/6
f 143/2/6 144/2/6 147/2/6
f 145/2/6 146/2/6 147/2/6
f 137/3/6 143/3/6 147/3/6
f 146/3/6 142/3/6 148/3/6
f 147/2/6 146/2/6 148/2/6
f 137/3/6 147/3/6 149/3/6
f 147/3/6 148/3/6 149/3/6
f 148/3/6 142/3/6 150/3/6
f 149/3/6 148/3/6 150/3/6
