# MagicaVoxel @ Ephtracy

# group
o 

# material
mtllib model.mtl
usemtl palette

# normals
vn 0 0 1
vn 0 0 -1
vn 1 0 0
vn -1 0 0
vn 0 -1 0
vn 0 1 0

# texcoords
vt 0.0292969 0.5
vt 0.716797 0.5
vt 0.771484 0.5
vt 0.775391 0.5

# verts
v 1.1 0 1.1
v 0.9 0 1.1
v 1.1 0.7 1.1
v 0.9 0.7 1.1
v 1.1 0.9 1.1
v 0.9 0.9 1.1
v 1.1 0 -1.1
v 0.9 0 -1.1
v 1.1 0.7 -1.1
v 0.9 0.7 -1.1
v 1.1 0.9 -1.1
v 0.9 0.9 -1.1
v 1.1 0 1.1
v 1.1 0.7 1.1
v 1.1 0.9 1.1
v 1.1 0.2 0.8
v 1.1 0.5 0.8
v 1.1 0.2 0.3
v 1.1 0.5 0.3
v 1.1 0.2 -0.1
v 1.1 0.5 -0.1
v 1.1 0.2 -0.4
v 1.1 0.5 -0.4
v 1.1 0.2 -0.6
v 1.1 0.5 -0.6
v 1.1 0.2 -0.8
v 1.1 0.5 -0.8
v 1.1 0 -1.1
v 1.1 0.7 -1.1
v 1.1 0.9 -1.1
v 0.9 0 1.1
v 0.9 0.7 1.1
v 0.9 0.9 1.1
v 0.9 0 -1.1
v 0.9 0.7 -1.1
v 0.9 0.9 -1.1
v 1.1 0 1.1
v 1.1 0 -1.1
v 0.9 0 1.1
v 0.9 0 -1.1
v 1.1 0.9 1.1
v 1.1 0.9 -1.1
v 0.9 0.9 1.1
v 0.9 0.9 -1.1

# faces
f 3/3/1 2/3/1 1/3/1
f 4/3/1 2/3/1 3/3/1
f 5/4/1 4/4/1 3/4/1
f 6/4/1 4/4/1 5/4/1
f 7/3/2 8/3/2 9/3/2
f 9/3/2 8/3/2 10/3/2
f 9/4/2 10/4/2 11/4/2
f 11/4/2 10/4/2 12/4/2
f 16/3/3 14/3/3 13/3/3
f 17/3/3 14/3/3 16/3/3
f 18/3/3 16/3/3 13/3/3
f 18/2/3 17/2/3 16/2/3
f 19/3/3 14/3/3 17/3/3
f 19/2/3 17/2/3 18/2/3
f 20/3/3 18/3/3 13/3/3
f 20/1/3 19/1/3 18/1/3
f 21/3/3 14/3/3 19/3/3
f 21/1/3 19/1/3 20/1/3
f 22/3/3 20/3/3 13/3/3
f 22/2/3 21/2/3 20/2/3
f 23/3/3 14/3/3 21/3/3
f 23/2/3 21/2/3 22/2/3
f 24/3/3 22/3/3 13/3/3
f 24/1/3 23/1/3 22/1/3
f 25/3/3 14/3/3 23/3/3
f 25/1/3 23/1/3 24/1/3
f 26/3/3 24/3/3 13/3/3
f 26/2/3 25/2/3 24/2/3
f 27/3/3 14/3/3 25/3/3
f 27/2/3 25/2/3 26/2/3
f 28/3/3 26/3/3 13/3/3
f 28/3/3 27/3/3 26/3/3
f 29/4/3 15/4/3 14/4/3
f 29/3/3 27/3/3 28/3/3
f 29/3/3 14/3/3 27/3/3
f 30/4/3 15/4/3 29/4/3
f 31/3/4 32/3/4 34/3/4
f 32/4/4 33/4/4 35/4/4
f 34/3/4 32/3/4 35/3/4
f 35/4/4 33/4/4 36/4/4
f 39/3/5 38/3/5 37/3/5
f 40/3/5 38/3/5 39/3/5
f 41/4/6 42/4/6 43/4/6
f 43/4/6 42/4/6 44/4/6
