# MagicaVoxel @ Ephtracy

# group
o 

# material
mtllib model-1.mtl
usemtl palette

# normals
vn 0 0 1
vn 0 0 -1
vn 1 0 0
vn -1 0 0
vn 0 -1 0
vn 0 1 0

# texcoords
vt 0.00585938 0.5
vt 0.00976563 0.5
vt 0.0253906 0.5
vt 0.255859 0.5
vt 0.572266 0.5

# verts
v 0.5 0 1
v -0.5 0 1
v 0.5 0.1 1
v 0.4 0.1 1
v 0.3 0.1 1
v 0.1 0.1 1
v 5.96046e-08 0.1 1
v -0.2 0.1 1
v -0.3 0.1 1
v -0.5 0.1 1
v 0.5 0.3 1
v 0.4 0.3 1
v 0.3 0.3 1
v 0.1 0.3 1
v 5.96046e-08 0.3 1
v -0.2 0.3 1
v -0.3 0.3 1
v -0.5 0.3 1
v 0.5 0.4 1
v 0.4 0.4 1
v 0.3 0.4 1
v 0.1 0.4 1
v 5.96046e-08 0.4 1
v -0.2 0.4 1
v -0.3 0.4 1
v -0.5 0.4 1
v 0.5 0.6 1
v 0.4 0.6 1
v 0.3 0.6 1
v 0.1 0.6 1
v 5.96046e-08 0.6 1
v -0.2 0.6 1
v -0.3 0.6 1
v -0.5 0.6 1
v 0.5 0.7 1
v -0.5 0.7 1
v 0.6 0 0.6
v 0.5 0 0.6
v 0.5 0.1 0.6
v 0.5 0.3 0.6
v 0.5 0.4 0.6
v 0.5 0.6 0.6
v 0.6 0.7 0.6
v 0.5 0.7 0.6
v 0.6 0 -0.5
v 0.4 0 -0.5
v 0.5 0.1 -0.5
v 0.4 0.1 -0.5
v 0.5 0.2 -0.5
v 0.5 0.4 -0.5
v 0.5 0.5 -0.5
v 0.6 0.7 -0.5
v 0.5 0.7 -0.5
v 0.4 0 -0.9
v -0.4 0 -0.9
v 0.4 0.1 -0.9
v -0.4 0.1 -0.9
v 0.4 0 0.9
v -0.4 0 0.9
v 0.4 0.1 0.9
v -0.4 0.1 0.9
v 0.6 0 0.5
v 0.4 0 0.5
v 0.5 0.1 0.5
v 0.4 0.1 0.5
v 0.5 0.2 0.5
v 0.5 0.4 0.5
v 0.5 0.5 0.5
v 0.6 0.7 0.5
v 0.5 0.7 0.5
v 0.6 0 -0.6
v 0.5 0 -0.6
v 0.5 0.1 -0.6
v 0.5 0.3 -0.6
v 0.5 0.4 -0.6
v 0.5 0.6 -0.6
v 0.6 0.7 -0.6
v 0.5 0.7 -0.6
v 0.5 0 -1
v -0.5 0 -1
v 0.5 0.1 -1
v 0.4 0.1 -1
v 0.3 0.1 -1
v 0.1 0.1 -1
v 5.96046e-08 0.1 -1
v -0.2 0.1 -1
v -0.3 0.1 -1
v -0.5 0.1 -1
v 0.5 0.3 -1
v 0.4 0.3 -1
v 0.3 0.3 -1
v 0.1 0.3 -1
v 5.96046e-08 0.3 -1
v -0.2 0.3 -1
v -0.3 0.3 -1
v -0.5 0.3 -1
v 0.5 0.4 -1
v 0.4 0.4 -1
v 0.3 0.4 -1
v 0.1 0.4 -1
v 5.96046e-08 0.4 -1
v -0.2 0.4 -1
v -0.3 0.4 -1
v -0.5 0.4 -1
v 0.5 0.6 -1
v 0.4 0.6 -1
v 0.3 0.6 -1
v 0.1 0.6 -1
v 5.96046e-08 0.6 -1
v -0.2 0.6 -1
v -0.3 0.6 -1
v -0.5 0.6 -1
v 0.5 0.7 -1
v -0.5 0.7 -1
v 0.6 0 0.6
v 0.6 0.7 0.6
v 0.6 0 0.5
v 0.6 0.7 0.5
v 0.6 0 -0.5
v 0.6 0.7 -0.5
v 0.6 0 -0.6
v 0.6 0.7 -0.6
v 0.5 0 1
v 0.5 0.1 1
v 0.5 0.3 1
v 0.5 0.4 1
v 0.5 0.6 1
v 0.5 0.7 1
v 0.5 0.1 0.8
v 0.5 0.3 0.8
v 0.5 0.4 0.8
v 0.5 0.6 0.8
v 0.5 0.1 0.7
v 0.5 0.3 0.7
v 0.5 0.4 0.7
v 0.5 0.6 0.7
v 0.5 0 0.6
v 0.5 0.1 0.6
v 0.5 0.3 0.6
v 0.5 0.4 0.6
v 0.5 0.6 0.6
v 0.5 0.7 0.6
v 0.5 0.1 0.5
v 0.5 0.2 0.5
v 0.5 0.4 0.5
v 0.5 0.5 0.5
v 0.5 0.7 0.5
v 0.5 0.4 0.4
v 0.5 0.5 0.4
v 0.5 0.6 0.4
v 0.5 0.5 0.3
v 0.5 0.6 0.3
v 0.5 0.7 0.3
v 0.5 0.2 0.2
v 0.5 0.6 0.2
v 0.5 0.2 0.1
v 0.5 0.7 0.1
v 0.5 0.2 -0.1
v 0.5 0.7 -0.1
v 0.5 0.2 -0.2
v 0.5 0.6 -0.2
v 0.5 0.5 -0.3
v 0.5 0.6 -0.3
v 0.5 0.7 -0.3
v 0.5 0.4 -0.4
v 0.5 0.5 -0.4
v 0.5 0.6 -0.4
v 0.5 0.1 -0.5
v 0.5 0.2 -0.5
v 0.5 0.4 -0.5
v 0.5 0.5 -0.5
v 0.5 0.7 -0.5
v 0.5 0 -0.6
v 0.5 0.1 -0.6
v 0.5 0.3 -0.6
v 0.5 0.4 -0.6
v 0.5 0.6 -0.6
v 0.5 0.7 -0.6
v 0.5 0.1 -0.7
v 0.5 0.3 -0.7
v 0.5 0.4 -0.7
v 0.5 0.6 -0.7
v 0.5 0.1 -0.8
v 0.5 0.3 -0.8
v 0.5 0.4 -0.8
v 0.5 0.6 -0.8
v 0.5 0 -1
v 0.5 0.1 -1
v 0.5 0.3 -1
v 0.5 0.4 -1
v 0.5 0.6 -1
v 0.5 0.7 -1
v -0.4 0 0.9
v -0.4 0.1 0.9
v -0.4 0 -0.9
v -0.4 0.1 -0.9
v 0.4 0 0.9
v 0.4 0.1 0.9
v 0.4 0 0.6
v 0.4 0.1 0.6
v 0.4 0 0.5
v 0.4 0.1 0.5
v 0.4 0 -0.5
v 0.4 0.1 -0.5
v 0.4 0 -0.6
v 0.4 0.1 -0.6
v 0.4 0 -0.9
v 0.4 0.1 -0.9
v -0.5 0 1
v -0.5 0.1 1
v -0.5 0.3 1
v -0.5 0.4 1
v -0.5 0.6 1
v -0.5 0.7 1
v -0.5 0.1 0.8
v -0.5 0.3 0.8
v -0.5 0.4 0.8
v -0.5 0.6 0.8
v -0.5 0.1 0.7
v -0.5 0.3 0.7
v -0.5 0.4 0.7
v -0.5 0.6 0.7
v -0.5 0.1 0.5
v -0.5 0.3 0.5
v -0.5 0.4 0.5
v -0.5 0.6 0.5
v -0.5 0.1 0.4
v -0.5 0.3 0.4
v -0.5 0.4 0.4
v -0.5 0.6 0.4
v -0.5 0.1 0.2
v -0.5 0.3 0.2
v -0.5 0.4 0.2
v -0.5 0.6 0.2
v -0.5 0.1 0.1
v -0.5 0.3 0.1
v -0.5 0.4 0.1
v -0.5 0.6 0.1
v -0.5 0.1 -0.1
v -0.5 0.3 -0.1
v -0.5 0.4 -0.1
v -0.5 0.6 -0.1
v -0.5 0.1 -0.2
v -0.5 0.3 -0.2
v -0.5 0.4 -0.2
v -0.5 0.6 -0.2
v -0.5 0.1 -0.4
v -0.5 0.3 -0.4
v -0.5 0.4 -0.4
v -0.5 0.6 -0.4
v -0.5 0.1 -0.5
v -0.5 0.3 -0.5
v -0.5 0.4 -0.5
v -0.5 0.6 -0.5
v -0.5 0.1 -0.7
v -0.5 0.3 -0.7
v -0.5 0.4 -0.7
v -0.5 0.6 -0.7
v -0.5 0.1 -0.8
v -0.5 0.3 -0.8
v -0.5 0.4 -0.8
v -0.5 0.6 -0.8
v -0.5 0 -1
v -0.5 0.1 -1
v -0.5 0.3 -1
v -0.5 0.4 -1
v -0.5 0.6 -1
v -0.5 0.7 -1
v 0.6 0 0.6
v 0.6 0 0.5
v 0.6 0 -0.5
v 0.6 0 -0.6
v 0.5 0 1
v 0.5 0 0.6
v 0.5 0 -0.6
v 0.5 0 -1
v 0.4 0 0.9
v 0.4 0 0.6
v 0.4 0 0.5
v 0.4 0 -0.5
v 0.4 0 -0.6
v 0.4 0 -0.9
v -0.4 0 0.9
v -0.4 0 -0.9
v -0.5 0 1
v -0.5 0 -1
v 0.5 0.1 0.5
v 0.5 0.1 -0.5
v 0.4 0.1 0.9
v 0.4 0.1 0.6
v 0.4 0.1 0.5
v 0.4 0.1 -0.5
v 0.4 0.1 -0.6
v 0.4 0.1 -0.9
v -0.4 0.1 0.9
v -0.4 0.1 -0.9
v 0.6 0.7 0.6
v 0.6 0.7 0.5
v 0.6 0.7 -0.5
v 0.6 0.7 -0.6
v 0.5 0.7 1
v 0.5 0.7 0.6
v 0.5 0.7 0.5
v 0.5 0.7 0.3
v 0.5 0.7 0.1
v 0.5 0.7 -0.1
v 0.5 0.7 -0.3
v 0.5 0.7 -0.5
v 0.5 0.7 -0.6
v 0.5 0.7 -1
v 0.4 0.7 0.5
v 0.4 0.7 0.3
v 0.4 0.7 0.1
v 0.4 0.7 -0.1
v 0.4 0.7 -0.3
v 0.4 0.7 -0.5
v 0.3 0.7 0.5
v 0.3 0.7 -0.5
v 0.2 0.7 0.6
v 0.2 0.7 -0.6
v -0.5 0.7 1
v -0.5 0.7 -1

# faces
f 3/2/1 2/2/1 1/2/1
f 4/2/1 2/2/1 3/2/1
f 5/2/1 2/2/1 4/2/1
f 6/2/1 2/2/1 5/2/1
f 7/2/1 2/2/1 6/2/1
f 8/2/1 2/2/1 7/2/1
f 9/2/1 2/2/1 8/2/1
f 10/2/1 2/2/1 9/2/1
f 11/1/1 4/1/1 3/1/1
f 12/2/1 5/2/1 4/2/1
f 12/1/1 4/1/1 11/1/1
f 13/1/1 6/1/1 5/1/1
f 13/2/1 5/2/1 12/2/1
f 14/2/1 7/2/1 6/2/1
f 14/1/1 6/1/1 13/1/1
f 15/1/1 8/1/1 7/1/1
f 15/2/1 7/2/1 14/2/1
f 16/2/1 9/2/1 8/2/1
f 16/1/1 8/1/1 15/1/1
f 17/1/1 10/1/1 9/1/1
f 17/2/1 9/2/1 16/2/1
f 18/1/1 10/1/1 17/1/1
f 19/2/1 12/2/1 11/2/1
f 19/2/1 13/2/1 12/2/1
f 19/2/1 18/2/1 17/2/1
f 19/2/1 17/2/1 16/2/1
f 19/2/1 16/2/1 15/2/1
f 19/2/1 15/2/1 14/2/1
f 19/2/1 14/2/1 13/2/1
f 20/2/1 18/2/1 19/2/1
f 21/2/1 18/2/1 20/2/1
f 22/2/1 18/2/1 21/2/1
f 23/2/1 18/2/1 22/2/1
f 24/2/1 18/2/1 23/2/1
f 25/2/1 18/2/1 24/2/1
f 26/2/1 18/2/1 25/2/1
f 27/1/1 20/1/1 19/1/1
f 28/2/1 21/2/1 20/2/1
f 28/1/1 20/1/1 27/1/1
f 29/1/1 22/1/1 21/1/1
f 29/2/1 21/2/1 28/2/1
f 30/2/1 23/2/1 22/2/1
f 30/1/1 22/1/1 29/1/1
f 31/1/1 24/1/1 23/1/1
f 31/2/1 23/2/1 30/2/1
f 32/2/1 25/2/1 24/2/1
f 32/1/1 24/1/1 31/1/1
f 33/1/1 26/1/1 25/1/1
f 33/2/1 25/2/1 32/2/1
f 34/1/1 26/1/1 33/1/1
f 35/2/1 28/2/1 27/2/1
f 35/2/1 29/2/1 28/2/1
f 35/2/1 34/2/1 33/2/1
f 35/2/1 33/2/1 32/2/1
f 35/2/1 32/2/1 31/2/1
f 35/2/1 31/2/1 30/2/1
f 35/2/1 30/2/1 29/2/1
f 36/2/1 34/2/1 35/2/1
f 39/1/1 38/1/1 37/1/1
f 40/1/1 39/1/1 37/1/1
f 41/1/1 40/1/1 37/1/1
f 42/1/1 41/1/1 37/1/1
f 43/1/1 42/1/1 37/1/1
f 44/1/1 42/1/1 43/1/1
f 47/1/1 46/1/1 45/1/1
f 48/1/1 46/1/1 47/1/1
f 49/1/1 47/1/1 45/1/1
f 50/1/1 49/1/1 45/1/1
f 51/1/1 50/1/1 45/1/1
f 52/1/1 51/1/1 45/1/1
f 53/1/1 51/1/1 52/1/1
f 56/2/1 55/2/1 54/2/1
f 57/2/1 55/2/1 56/2/1
f 58/2/2 59/2/2 60/2/2
f 60/2/2 59/2/2 61/2/2
f 62/1/2 63/1/2 64/1/2
f 64/1/2 63/1/2 65/1/2
f 62/1/2 64/1/2 66/1/2
f 62/1/2 66/1/2 67/1/2
f 62/1/2 67/1/2 68/1/2
f 62/1/2 68/1/2 69/1/2
f 69/1/2 68/1/2 70/1/2
f 71/1/2 72/1/2 73/1/2
f 71/1/2 73/1/2 74/1/2
f 71/1/2 74/1/2 75/1/2
f 71/1/2 75/1/2 76/1/2
f 71/1/2 76/1/2 77/1/2
f 77/1/2 76/1/2 78/1/2
f 79/2/2 80/2/2 81/2/2
f 81/2/2 80/2/2 82/2/2
f 82/2/2 80/2/2 83/2/2
f 83/2/2 80/2/2 84/2/2
f 84/2/2 80/2/2 85/2/2
f 85/2/2 80/2/2 86/2/2
f 86/2/2 80/2/2 87/2/2
f 87/2/2 80/2/2 88/2/2
f 81/1/2 82/1/2 89/1/2
f 82/2/2 83/2/2 90/2/2
f 89/1/2 82/1/2 90/1/2
f 83/1/2 84/1/2 91/1/2
f 90/2/2 83/2/2 91/2/2
f 84/2/2 85/2/2 92/2/2
f 91/1/2 84/1/2 92/1/2
f 85/1/2 86/1/2 93/1/2
f 92/2/2 85/2/2 93/2/2
f 86/2/2 87/2/2 94/2/2
f 93/1/2 86/1/2 94/1/2
f 87/1/2 88/1/2 95/1/2
f 94/2/2 87/2/2 95/2/2
f 95/1/2 88/1/2 96/1/2
f 89/2/2 90/2/2 97/2/2
f 90/2/2 91/2/2 97/2/2
f 95/2/2 96/2/2 97/2/2
f 94/2/2 95/2/2 97/2/2
f 93/2/2 94/2/2 97/2/2
f 92/2/2 93/2/2 97/2/2
f 91/2/2 92/2/2 97/2/2
f 97/2/2 96/2/2 98/2/2
f 98/2/2 96/2/2 99/2/2
f 99/2/2 96/2/2 100/2/2
f 100/2/2 96/2/2 101/2/2
f 101/2/2 96/2/2 102/2/2
f 102/2/2 96/2/2 103/2/2
f 103/2/2 96/2/2 104/2/2
f 97/1/2 98/1/2 105/1/2
f 98/2/2 99/2/2 106/2/2
f 105/1/2 98/1/2 106/1/2
f 99/1/2 100/1/2 107/1/2
f 106/2/2 99/2/2 107/2/2
f 100/2/2 101/2/2 108/2/2
f 107/1/2 100/1/2 108/1/2
f 101/1/2 102/1/2 109/1/2
f 108/2/2 101/2/2 109/2/2
f 102/2/2 103/2/2 110/2/2
f 109/1/2 102/1/2 110/1/2
f 103/1/2 104/1/2 111/1/2
f 110/2/2 103/2/2 111/2/2
f 111/1/2 104/1/2 112/1/2
f 105/2/2 106/2/2 113/2/2
f 106/2/2 107/2/2 113/2/2
f 111/2/2 112/2/2 113/2/2
f 110/2/2 111/2/2 113/2/2
f 109/2/2 110/2/2 113/2/2
f 108/2/2 109/2/2 113/2/2
f 107/2/2 108/2/2 113/2/2
f 113/2/2 112/2/2 114/2/2
f 117/1/3 116/1/3 115/1/3
f 118/1/3 116/1/3 117/1/3
f 121/1/3 120/1/3 119/1/3
f 122/1/3 120/1/3 121/1/3
f 129/2/3 124/2/3 123/2/3
f 129/1/3 125/1/3 124/1/3
f 130/2/3 126/2/3 125/2/3
f 130/1/3 125/1/3 129/1/3
f 131/1/3 127/1/3 126/1/3
f 131/2/3 126/2/3 130/2/3
f 132/2/3 128/2/3 127/2/3
f 132/1/3 127/1/3 131/1/3
f 133/2/3 131/2/3 130/2/3
f 133/2/3 130/2/3 129/2/3
f 133/2/3 132/2/3 131/2/3
f 133/2/3 129/2/3 123/2/3
f 134/2/3 132/2/3 133/2/3
f 135/2/3 132/2/3 134/2/3
f 136/2/3 128/2/3 132/2/3
f 136/2/3 132/2/3 135/2/3
f 137/2/3 133/2/3 123/2/3
f 138/1/3 134/1/3 133/1/3
f 138/2/3 133/2/3 137/2/3
f 139/2/3 135/2/3 134/2/3
f 139/1/3 134/1/3 138/1/3
f 140/1/3 136/1/3 135/1/3
f 140/2/3 135/2/3 139/2/3
f 141/2/3 128/2/3 136/2/3
f 141/1/3 136/1/3 140/1/3
f 142/2/3 128/2/3 141/2/3
f 148/4/3 145/4/3 144/4/3
f 148/3/3 146/3/3 145/3/3
f 149/5/3 147/5/3 146/5/3
f 149/3/3 146/3/3 148/3/3
f 150/5/3 147/5/3 149/5/3
f 151/4/3 149/4/3 148/4/3
f 151/3/3 150/3/3 149/3/3
f 152/5/3 147/5/3 150/5/3
f 152/3/3 150/3/3 151/3/3
f 153/5/3 147/5/3 152/5/3
f 154/3/3 144/3/3 143/3/3
f 154/4/3 148/4/3 144/4/3
f 154/4/3 151/4/3 148/4/3
f 154/4/3 152/4/3 151/4/3
f 155/3/3 153/3/3 152/3/3
f 155/4/3 152/4/3 154/4/3
f 156/3/3 154/3/3 143/3/3
f 156/3/3 155/3/3 154/3/3
f 157/3/3 153/3/3 155/3/3
f 157/3/3 155/3/3 156/3/3
f 158/3/3 156/3/3 143/3/3
f 158/5/3 157/5/3 156/5/3
f 159/5/3 157/5/3 158/5/3
f 160/3/3 158/3/3 143/3/3
f 160/3/3 159/3/3 158/3/3
f 161/3/3 159/3/3 160/3/3
f 162/4/3 161/4/3 160/4/3
f 163/3/3 159/3/3 161/3/3
f 163/4/3 161/4/3 162/4/3
f 164/3/3 159/3/3 163/3/3
f 165/4/3 162/4/3 160/4/3
f 166/3/3 163/3/3 162/3/3
f 166/4/3 162/4/3 165/4/3
f 167/5/3 164/5/3 163/5/3
f 167/3/3 163/3/3 166/3/3
f 168/3/3 160/3/3 143/3/3
f 169/4/3 165/4/3 160/4/3
f 169/3/3 160/3/3 168/3/3
f 170/3/3 166/3/3 165/3/3
f 170/4/3 165/4/3 169/4/3
f 171/5/3 167/5/3 166/5/3
f 171/3/3 166/3/3 170/3/3
f 172/5/3 164/5/3 167/5/3
f 172/5/3 167/5/3 171/5/3
f 179/2/3 174/2/3 173/2/3
f 179/1/3 175/1/3 174/1/3
f 180/2/3 176/2/3 175/2/3
f 180/1/3 175/1/3 179/1/3
f 181/1/3 177/1/3 176/1/3
f 181/2/3 176/2/3 180/2/3
f 182/2/3 178/2/3 177/2/3
f 182/1/3 177/1/3 181/1/3
f 183/2/3 181/2/3 180/2/3
f 183/2/3 180/2/3 179/2/3
f 183/2/3 182/2/3 181/2/3
f 183/2/3 179/2/3 173/2/3
f 184/2/3 182/2/3 183/2/3
f 185/2/3 182/2/3 184/2/3
f 186/2/3 178/2/3 182/2/3
f 186/2/3 182/2/3 185/2/3
f 187/2/3 183/2/3 173/2/3
f 188/1/3 184/1/3 183/1/3
f 188/2/3 183/2/3 187/2/3
f 189/2/3 185/2/3 184/2/3
f 189/1/3 184/1/3 188/1/3
f 190/1/3 186/1/3 185/1/3
f 190/2/3 185/2/3 189/2/3
f 191/2/3 178/2/3 186/2/3
f 191/1/3 186/1/3 190/1/3
f 192/2/3 178/2/3 191/2/3
f 195/2/3 194/2/3 193/2/3
f 196/2/3 194/2/3 195/2/3
f 197/2/4 198/2/4 199/2/4
f 199/2/4 198/2/4 200/2/4
f 199/1/4 200/1/4 201/1/4
f 201/1/4 200/1/4 202/1/4
f 203/1/4 204/1/4 205/1/4
f 205/1/4 204/1/4 206/1/4
f 205/2/4 206/2/4 207/2/4
f 207/2/4 206/2/4 208/2/4
f 209/2/4 210/2/4 215/2/4
f 210/1/4 211/1/4 215/1/4
f 211/2/4 212/2/4 216/2/4
f 215/1/4 211/1/4 216/1/4
f 212/1/4 213/1/4 217/1/4
f 216/2/4 212/2/4 217/2/4
f 213/2/4 214/2/4 218/2/4
f 217/1/4 213/1/4 218/1/4
f 216/2/4 217/2/4 219/2/4
f 215/2/4 216/2/4 219/2/4
f 217/2/4 218/2/4 219/2/4
f 209/2/4 215/2/4 219/2/4
f 219/2/4 218/2/4 220/2/4
f 220/2/4 218/2/4 221/2/4
f 218/2/4 214/2/4 222/2/4
f 221/2/4 218/2/4 222/2/4
f 209/2/4 219/2/4 223/2/4
f 219/1/4 220/1/4 223/1/4
f 220/2/4 221/2/4 224/2/4
f 223/1/4 220/1/4 224/1/4
f 221/1/4 222/1/4 225/1/4
f 224/2/4 221/2/4 225/2/4
f 222/2/4 214/2/4 226/2/4
f 225/1/4 222/1/4 226/1/4
f 209/2/4 223/2/4 227/2/4
f 224/2/4 225/2/4 227/2/4
f 225/2/4 226/2/4 227/2/4
f 223/2/4 224/2/4 227/2/4
f 227/2/4 226/2/4 228/2/4
f 228/2/4 226/2/4 229/2/4
f 226/2/4 214/2/4 230/2/4
f 229/2/4 226/2/4 230/2/4
f 209/2/4 227/2/4 231/2/4
f 227/1/4 228/1/4 231/1/4
f 228/2/4 229/2/4 232/2/4
f 231/1/4 228/1/4 232/1/4
f 229/1/4 230/1/4 233/1/4
f 232/2/4 229/2/4 233/2/4
f 230/2/4 214/2/4 234/2/4
f 233/1/4 230/1/4 234/1/4
f 209/2/4 231/2/4 235/2/4
f 232/2/4 233/2/4 235/2/4
f 233/2/4 234/2/4 235/2/4
f 231/2/4 232/2/4 235/2/4
f 235/2/4 234/2/4 236/2/4
f 236/2/4 234/2/4 237/2/4
f 234/2/4 214/2/4 238/2/4
f 237/2/4 234/2/4 238/2/4
f 209/2/4 235/2/4 239/2/4
f 235/1/4 236/1/4 239/1/4
f 236/2/4 237/2/4 240/2/4
f 239/1/4 236/1/4 240/1/4
f 237/1/4 238/1/4 241/1/4
f 240/2/4 237/2/4 241/2/4
f 238/2/4 214/2/4 242/2/4
f 241/1/4 238/1/4 242/1/4
f 209/2/4 239/2/4 243/2/4
f 240/2/4 241/2/4 243/2/4
f 241/2/4 242/2/4 243/2/4
f 239/2/4 240/2/4 243/2/4
f 243/2/4 242/2/4 244/2/4
f 244/2/4 242/2/4 245/2/4
f 242/2/4 214/2/4 246/2/4
f 245/2/4 242/2/4 246/2/4
f 209/2/4 243/2/4 247/2/4
f 243/1/4 244/1/4 247/1/4
f 244/2/4 245/2/4 248/2/4
f 247/1/4 244/1/4 248/1/4
f 245/1/4 246/1/4 249/1/4
f 248/2/4 245/2/4 249/2/4
f 246/2/4 214/2/4 250/2/4
f 249/1/4 246/1/4 250/1/4
f 209/2/4 247/2/4 251/2/4
f 248/2/4 249/2/4 251/2/4
f 249/2/4 250/2/4 251/2/4
f 247/2/4 248/2/4 251/2/4
f 251/2/4 250/2/4 252/2/4
f 252/2/4 250/2/4 253/2/4
f 250/2/4 214/2/4 254/2/4
f 253/2/4 250/2/4 254/2/4
f 209/2/4 251/2/4 255/2/4
f 251/1/4 252/1/4 255/1/4
f 252/2/4 253/2/4 256/2/4
f 255/1/4 252/1/4 256/1/4
f 253/1/4 254/1/4 257/1/4
f 256/2/4 253/2/4 257/2/4
f 254/2/4 214/2/4 258/2/4
f 257/1/4 254/1/4 258/1/4
f 209/2/4 255/2/4 259/2/4
f 256/2/4 257/2/4 259/2/4
f 257/2/4 258/2/4 259/2/4
f 255/2/4 256/2/4 259/2/4
f 259/2/4 258/2/4 260/2/4
f 260/2/4 258/2/4 261/2/4
f 258/2/4 214/2/4 262/2/4
f 261/2/4 258/2/4 262/2/4
f 209/2/4 259/2/4 263/2/4
f 259/1/4 260/1/4 264/1/4
f 263/2/4 259/2/4 264/2/4
f 260/2/4 261/2/4 265/2/4
f 264/1/4 260/1/4 265/1/4
f 261/1/4 262/1/4 266/1/4
f 265/2/4 261/2/4 266/2/4
f 262/2/4 214/2/4 267/2/4
f 266/1/4 262/1/4 267/1/4
f 267/2/4 214/2/4 268/2/4
f 274/1/5 270/1/5 269/1/5
f 275/1/5 272/1/5 271/1/5
f 277/2/5 274/2/5 273/2/5
f 278/1/5 270/1/5 274/1/5
f 278/2/5 274/2/5 277/2/5
f 279/1/5 270/1/5 278/1/5
f 280/1/5 275/1/5 271/1/5
f 281/2/5 276/2/5 275/2/5
f 281/1/5 275/1/5 280/1/5
f 282/2/5 276/2/5 281/2/5
f 283/2/5 277/2/5 273/2/5
f 284/2/5 276/2/5 282/2/5
f 285/2/5 283/2/5 273/2/5
f 285/2/5 284/2/5 283/2/5
f 286/2/5 276/2/5 284/2/5
f 286/2/5 284/2/5 285/2/5
f 291/3/5 288/3/5 287/3/5
f 292/3/5 288/3/5 291/3/5
f 295/3/5 290/3/5 289/3/5
f 295/3/5 294/3/5 293/3/5
f 295/3/5 293/3/5 292/3/5
f 295/3/5 292/3/5 291/3/5
f 295/3/5 291/3/5 290/3/5
f 296/3/5 294/3/5 295/3/5
f 297/1/6 298/1/6 302/1/6
f 302/1/6 298/1/6 303/1/6
f 299/1/6 300/1/6 308/1/6
f 308/1/6 300/1/6 309/1/6
f 302/1/6 303/1/6 311/1/6
f 303/5/6 304/5/6 311/5/6
f 304/3/6 305/3/6 312/3/6
f 311/5/6 304/5/6 312/5/6
f 305/5/6 306/5/6 313/5/6
f 312/3/6 305/3/6 313/3/6
f 306/3/6 307/3/6 314/3/6
f 313/5/6 306/5/6 314/5/6
f 307/5/6 308/5/6 315/5/6
f 314/3/6 307/3/6 315/3/6
f 308/1/6 309/1/6 316/1/6
f 315/5/6 308/5/6 316/5/6
f 312/3/6 313/3/6 317/3/6
f 314/3/6 315/3/6 317/3/6
f 315/3/6 316/3/6 317/3/6
f 313/3/6 314/3/6 317/3/6
f 302/1/6 311/1/6 317/1/6
f 311/3/6 312/3/6 317/3/6
f 316/1/6 309/1/6 318/1/6
f 317/3/6 316/3/6 318/3/6
f 302/1/6 317/1/6 319/1/6
f 301/2/6 302/2/6 319/2/6
f 317/1/6 318/1/6 319/1/6
f 318/1/6 309/1/6 320/1/6
f 319/1/6 318/1/6 320/1/6
f 309/2/6 310/2/6 320/2/6
f 301/2/6 319/2/6 321/2/6
f 319/2/6 320/2/6 321/2/6
f 320/2/6 310/2/6 322/2/6
f 321/2/6 320/2/6 322/2/6
