# MagicaVoxel @ Ephtracy

# group
o 

# material
mtllib model-0.mtl
usemtl palette

# normals
vn 0 0 1
vn 0 0 -1
vn 1 0 0
vn -1 0 0
vn 0 -1 0
vn 0 1 0

# texcoords
vt 0.00585938 0.5
vt 0.00976563 0.5
vt 0.0175781 0.5
vt 0.0253906 0.5
vt 0.255859 0.5
vt 0.572266 0.5

# verts
v 0.6 1.5 1.3
v -0.5 1.5 1.3
v 0.6 2.1 1.3
v -0.5 2.1 1.3
v 0.7 1.6 1.2
v 0.6 1.6 1.2
v -0.5 1.6 1.2
v -0.6 1.6 1.2
v 0.7 1.7 1.2
v 0.6 1.7 1.2
v -0.5 1.7 1.2
v -0.6 1.7 1.2
v 0.7 1.9 1.2
v 0.6 1.9 1.2
v -0.5 1.9 1.2
v -0.6 1.9 1.2
v 0.7 2 1.2
v 0.6 2 1.2
v -0.5 2 1.2
v -0.6 2 1.2
v 0.4 2.1 1.2
v 0.3 2.1 1.2
v 0.1 2.1 1.2
v 0 2.1 1.2
v -0.2 2.1 1.2
v -0.3 2.1 1.2
v 0.4 2.2 1.2
v 0.3 2.2 1.2
v 0.1 2.2 1.2
v 0 2.2 1.2
v -0.2 2.2 1.2
v -0.3 2.2 1.2
v 0.5 0.6 1
v -0.5 0.6 1
v 0.5 0.7 1
v 0.4 0.7 1
v 0.3 0.7 1
v 0.1 0.7 1
v 0 0.7 1
v -0.2 0.7 1
v -0.3 0.7 1
v -0.5 0.7 1
v 0.5 0.9 1
v 0.4 0.9 1
v 0.3 0.9 1
v 0.1 0.9 1
v 0 0.9 1
v -0.2 0.9 1
v -0.3 0.9 1
v -0.5 0.9 1
v 0.5 1 1
v 0.4 1 1
v 0.3 1 1
v 0.1 1 1
v 0 1 1
v -0.2 1 1
v -0.3 1 1
v -0.5 1 1
v 0.5 1.2 1
v 0.4 1.2 1
v 0.3 1.2 1
v 0.1 1.2 1
v 0 1.2 1
v -0.2 1.2 1
v -0.3 1.2 1
v -0.5 1.2 1
v 0.5 1.3 1
v 0.4 1.3 1
v 0.3 1.3 1
v 0.1 1.3 1
v 0 1.3 1
v -0.2 1.3 1
v -0.3 1.3 1
v -0.5 1.3 1
v 0.5 1.5 1
v 0.4 1.5 1
v 0.3 1.5 1
v 0.1 1.5 1
v 0 1.5 1
v -0.2 1.5 1
v -0.3 1.5 1
v -0.5 1.5 1
v -0.6 1.5 1
v -0.5 2.1 1
v -0.6 2.1 1
v 0.6 0.6 0.6
v 0.5 0.6 0.6
v 0.5 0.7 0.6
v 0.5 0.9 0.6
v 0.5 1 0.6
v 0.5 1.2 0.6
v 0.5 1.3 0.6
v 0.6 1.5 0.6
v 0.5 1.5 0.6
v 0.6 0.6 -0.5
v 0.5 0.6 -0.5
v 0.5 0.7 -0.5
v 0.5 0.8 -0.5
v 0.5 0.9 -0.5
v 0.5 1 -0.5
v 0.5 1.2 -0.5
v 0.5 1.3 -0.5
v 0.5 1.4 -0.5
v 0.5 1.5 -0.5
v 0.5 1.7 -0.5
v 0.5 1.8 -0.5
v 0.5 2 -0.5
v 0.4 2 -0.5
v -0.4 2 -0.5
v 0.6 2.1 -0.5
v -0.4 2.1 -0.5
v 0.7 1.6 -1.1
v 0.6 1.6 -1.1
v -0.5 1.6 -1.1
v -0.6 1.6 -1.1
v 0.7 1.7 -1.1
v 0.6 1.7 -1.1
v -0.5 1.7 -1.1
v -0.6 1.7 -1.1
v 0.7 1.9 -1.1
v 0.6 1.9 -1.1
v -0.5 1.9 -1.1
v -0.6 1.9 -1.1
v 0.7 2 -1.1
v 0.6 2 -1.1
v -0.5 2 -1.1
v -0.6 2 -1.1
v 0.4 2.1 -1.1
v 0.3 2.1 -1.1
v 0.1 2.1 -1.1
v 0 2.1 -1.1
v -0.2 2.1 -1.1
v -0.3 2.1 -1.1
v 0.4 2.2 -1.1
v 0.3 2.2 -1.1
v 0.1 2.2 -1.1
v 0 2.2 -1.1
v -0.2 2.2 -1.1
v -0.3 2.2 -1.1
v 0.7 1.6 1.1
v 0.6 1.6 1.1
v -0.5 1.6 1.1
v -0.6 1.6 1.1
v 0.7 1.7 1.1
v 0.6 1.7 1.1
v -0.5 1.7 1.1
v -0.6 1.7 1.1
v 0.7 1.9 1.1
v 0.6 1.9 1.1
v -0.5 1.9 1.1
v -0.6 1.9 1.1
v 0.7 2 1.1
v 0.6 2 1.1
v -0.5 2 1.1
v -0.6 2 1.1
v 0.4 2.1 1.1
v 0.3 2.1 1.1
v 0.1 2.1 1.1
v 0 2.1 1.1
v -0.2 2.1 1.1
v -0.3 2.1 1.1
v 0.4 2.2 1.1
v 0.3 2.2 1.1
v 0.1 2.2 1.1
v 0 2.2 1.1
v -0.2 2.2 1.1
v -0.3 2.2 1.1
v 0.6 0.6 0.5
v 0.5 0.6 0.5
v 0.5 0.7 0.5
v 0.5 0.8 0.5
v 0.5 0.9 0.5
v 0.5 1 0.5
v 0.5 1.2 0.5
v 0.5 1.3 0.5
v 0.5 1.4 0.5
v 0.5 1.5 0.5
v 0.5 1.7 0.5
v 0.5 1.8 0.5
v 0.5 2 0.5
v 0.4 2 0.5
v -0.4 2 0.5
v 0.6 2.1 0.5
v -0.4 2.1 0.5
v 0.6 0.6 -0.6
v 0.5 0.6 -0.6
v 0.5 0.7 -0.6
v 0.5 0.9 -0.6
v 0.5 1 -0.6
v 0.5 1.2 -0.6
v 0.5 1.3 -0.6
v 0.6 1.5 -0.6
v 0.5 1.5 -0.6
v 0.5 0.6 -1
v -0.5 0.6 -1
v 0.5 0.7 -1
v 0.4 0.7 -1
v 0.3 0.7 -1
v 0.1 0.7 -1
v 0 0.7 -1
v -0.2 0.7 -1
v -0.3 0.7 -1
v -0.5 0.7 -1
v 0.5 0.9 -1
v 0.4 0.9 -1
v 0.3 0.9 -1
v 0.1 0.9 -1
v 0 0.9 -1
v -0.2 0.9 -1
v -0.3 0.9 -1
v -0.5 0.9 -1
v 0.5 1 -1
v 0.4 1 -1
v 0.3 1 -1
v 0.1 1 -1
v 0 1 -1
v -0.2 1 -1
v -0.3 1 -1
v -0.5 1 -1
v 0.5 1.2 -1
v 0.4 1.2 -1
v 0.3 1.2 -1
v 0.1 1.2 -1
v 0 1.2 -1
v -0.2 1.2 -1
v -0.3 1.2 -1
v -0.5 1.2 -1
v 0.5 1.3 -1
v 0.4 1.3 -1
v 0.3 1.3 -1
v 0.1 1.3 -1
v 0 1.3 -1
v -0.2 1.3 -1
v -0.3 1.3 -1
v -0.5 1.3 -1
v 0.5 1.5 -1
v 0.4 1.5 -1
v 0.3 1.5 -1
v 0.1 1.5 -1
v 0 1.5 -1
v -0.2 1.5 -1
v -0.3 1.5 -1
v -0.5 1.5 -1
v -0.6 1.5 -1
v -0.5 2.1 -1
v -0.6 2.1 -1
v 0.7 1.6 -1.2
v 0.6 1.6 -1.2
v -0.5 1.6 -1.2
v -0.6 1.6 -1.2
v 0.7 1.7 -1.2
v 0.6 1.7 -1.2
v -0.5 1.7 -1.2
v -0.6 1.7 -1.2
v 0.7 1.9 -1.2
v 0.6 1.9 -1.2
v -0.5 1.9 -1.2
v -0.6 1.9 -1.2
v 0.7 2 -1.2
v 0.6 2 -1.2
v -0.5 2 -1.2
v -0.6 2 -1.2
v 0.4 2.1 -1.2
v 0.3 2.1 -1.2
v 0.1 2.1 -1.2
v 0 2.1 -1.2
v -0.2 2.1 -1.2
v -0.3 2.1 -1.2
v 0.4 2.2 -1.2
v 0.3 2.2 -1.2
v 0.1 2.2 -1.2
v 0 2.2 -1.2
v -0.2 2.2 -1.2
v -0.3 2.2 -1.2
v 0.6 1.5 -1.3
v -0.5 1.5 -1.3
v 0.6 2.1 -1.3
v -0.5 2.1 -1.3
v 0.7 1.6 1.2
v 0.7 1.7 1.2
v 0.7 1.9 1.2
v 0.7 2 1.2
v 0.7 1.6 1.1
v 0.7 1.7 1.1
v 0.7 1.9 1.1
v 0.7 2 1.1
v 0.7 1.6 -1.1
v 0.7 1.7 -1.1
v 0.7 1.9 -1.1
v 0.7 2 -1.1
v 0.7 1.6 -1.2
v 0.7 1.7 -1.2
v 0.7 1.9 -1.2
v 0.7 2 -1.2
v 0.6 1.5 1.3
v 0.6 2.1 1.3
v 0.6 1.6 1.2
v 0.6 1.7 1.2
v 0.6 1.9 1.2
v 0.6 2 1.2
v 0.6 1.6 1.1
v 0.6 1.7 1.1
v 0.6 1.9 1.1
v 0.6 2 1.1
v 0.6 0.6 0.6
v 0.6 1.5 0.6
v 0.6 0.6 0.5
v 0.6 2.1 0.5
v 0.6 0.6 -0.5
v 0.6 2.1 -0.5
v 0.6 0.6 -0.6
v 0.6 1.5 -0.6
v 0.6 1.6 -1.1
v 0.6 1.7 -1.1
v 0.6 1.9 -1.1
v 0.6 2 -1.1
v 0.6 1.6 -1.2
v 0.6 1.7 -1.2
v 0.6 1.9 -1.2
v 0.6 2 -1.2
v 0.6 1.5 -1.3
v 0.6 2.1 -1.3
v 0.5 0.6 1
v 0.5 0.7 1
v 0.5 0.9 1
v 0.5 1 1
v 0.5 1.2 1
v 0.5 1.3 1
v 0.5 1.5 1
v 0.5 0.7 0.8
v 0.5 0.9 0.8
v 0.5 1 0.8
v 0.5 1.2 0.8
v 0.5 1.3 0.8
v 0.5 1.5 0.8
v 0.5 0.7 0.7
v 0.5 0.9 0.7
v 0.5 1 0.7
v 0.5 1.2 0.7
v 0.5 1.3 0.7
v 0.5 1.5 0.7
v 0.5 0.6 0.6
v 0.5 0.7 0.6
v 0.5 0.9 0.6
v 0.5 1 0.6
v 0.5 1.2 0.6
v 0.5 1.3 0.6
v 0.5 1.5 0.6
v 0.5 0.6 0.5
v 0.5 0.7 0.5
v 0.5 0.8 0.5
v 0.5 0.9 0.5
v 0.5 1 0.5
v 0.5 1.2 0.5
v 0.5 1.3 0.5
v 0.5 1.4 0.5
v 0.5 1.5 0.5
v 0.5 1.7 0.5
v 0.5 1.8 0.5
v 0.5 2 0.5
v 0.5 0.7 0.4
v 0.5 0.8 0.4
v 0.5 0.9 0.4
v 0.5 1.3 0.4
v 0.5 1.4 0.4
v 0.5 1.5 0.4
v 0.5 1.6 0.4
v 0.5 1.7 0.4
v 0.5 1.8 0.4
v 0.5 0.6 0.3
v 0.5 0.7 0.3
v 0.5 0.8 0.3
v 0.5 0.9 0.3
v 0.5 1.3 0.3
v 0.5 1.4 0.3
v 0.5 1.5 0.3
v 0.5 1.6 0.3
v 0.5 1.7 0.3
v 0.5 0.7 0.2
v 0.5 0.9 0.2
v 0.5 1.3 0.2
v 0.5 1.5 0.2
v 0.5 1.6 0.2
v 0.5 2 0.2
v 0.5 0.6 0.1
v 0.5 1 0.1
v 0.5 1.2 0.1
v 0.5 2 0.1
v 0.5 0.6 -0.0999999
v 0.5 1 -0.0999999
v 0.5 1.2 -0.0999999
v 0.5 2 -0.0999999
v 0.5 0.7 -0.2
v 0.5 0.9 -0.2
v 0.5 1.3 -0.2
v 0.5 1.5 -0.2
v 0.5 1.6 -0.2
v 0.5 2 -0.2
v 0.5 0.6 -0.3
v 0.5 0.7 -0.3
v 0.5 0.8 -0.3
v 0.5 0.9 -0.3
v 0.5 1.3 -0.3
v 0.5 1.4 -0.3
v 0.5 1.5 -0.3
v 0.5 1.6 -0.3
v 0.5 1.7 -0.3
v 0.5 0.7 -0.4
v 0.5 0.8 -0.4
v 0.5 0.9 -0.4
v 0.5 1.3 -0.4
v 0.5 1.4 -0.4
v 0.5 1.5 -0.4
v 0.5 1.6 -0.4
v 0.5 1.7 -0.4
v 0.5 1.8 -0.4
v 0.5 0.6 -0.5
v 0.5 0.7 -0.5
v 0.5 0.8 -0.5
v 0.5 0.9 -0.5
v 0.5 1 -0.5
v 0.5 1.2 -0.5
v 0.5 1.3 -0.5
v 0.5 1.4 -0.5
v 0.5 1.5 -0.5
v 0.5 1.7 -0.5
v 0.5 1.8 -0.5
v 0.5 2 -0.5
v 0.5 0.6 -0.6
v 0.5 0.7 -0.6
v 0.5 0.9 -0.6
v 0.5 1 -0.6
v 0.5 1.2 -0.6
v 0.5 1.3 -0.6
v 0.5 1.5 -0.6
v 0.5 0.7 -0.7
v 0.5 0.9 -0.7
v 0.5 1 -0.7
v 0.5 1.2 -0.7
v 0.5 1.3 -0.7
v 0.5 1.5 -0.7
v 0.5 0.7 -0.8
v 0.5 0.9 -0.8
v 0.5 1 -0.8
v 0.5 1.2 -0.8
v 0.5 1.3 -0.8
v 0.5 1.5 -0.8
v 0.5 0.6 -1
v 0.5 0.7 -1
v 0.5 0.9 -1
v 0.5 1 -1
v 0.5 1.2 -1
v 0.5 1.3 -1
v 0.5 1.5 -1
v 0.4 2.1 1.2
v 0.4 2.2 1.2
v 0.4 2.1 1.1
v 0.4 2.2 1.1
v 0.4 2.1 -1.1
v 0.4 2.2 -1.1
v 0.4 2.1 -1.2
v 0.4 2.2 -1.2
v 0.1 2.1 1.2
v 0.1 2.2 1.2
v 0.1 2.1 1.1
v 0.1 2.2 1.1
v 0.1 2.1 -1.1
v 0.1 2.2 -1.1
v 0.1 2.1 -1.2
v 0.1 2.2 -1.2
v -0.2 2.1 1.2
v -0.2 2.2 1.2
v -0.2 2.1 1.1
v -0.2 2.2 1.1
v -0.2 2.1 -1.1
v -0.2 2.2 -1.1
v -0.2 2.1 -1.2
v -0.2 2.2 -1.2
v -0.4 2 0.5
v -0.4 2.1 0.5
v -0.4 2 -0.5
v -0.4 2.1 -0.5
v 0.3 2.1 1.2
v 0.3 2.2 1.2
v 0.3 2.1 1.1
v 0.3 2.2 1.1
v 0.3 2.1 -1.1
v 0.3 2.2 -1.1
v 0.3 2.1 -1.2
v 0.3 2.2 -1.2
v 0 2.1 1.2
v 0 2.2 1.2
v 0 2.1 1.1
v 0 2.2 1.1
v 0 2.1 -1.1
v 0 2.2 -1.1
v 0 2.1 -1.2
v 0 2.2 -1.2
v -0.3 2.1 1.2
v -0.3 2.2 1.2
v -0.3 2.1 1.1
v -0.3 2.2 1.1
v -0.3 2.1 -1.1
v -0.3 2.2 -1.1
v -0.3 2.1 -1.2
v -0.3 2.2 -1.2
v -0.5 1.5 1.3
v -0.5 2.1 1.3
v -0.5 1.6 1.2
v -0.5 1.7 1.2
v -0.5 1.9 1.2
v -0.5 2 1.2
v -0.5 1.6 1.1
v -0.5 1.7 1.1
v -0.5 1.9 1.1
v -0.5 2 1.1
v -0.5 0.6 1
v -0.5 0.7 1
v -0.5 0.9 1
v -0.5 1 1
v -0.5 1.2 1
v -0.5 1.3 1
v -0.5 1.5 1
v -0.5 2.1 1
v -0.5 0.7 0.8
v -0.5 0.9 0.8
v -0.5 1 0.8
v -0.5 1.2 0.8
v -0.5 1.3 0.8
v -0.5 1.5 0.8
v -0.5 0.7 0.7
v -0.5 0.9 0.7
v -0.5 1 0.7
v -0.5 1.2 0.7
v -0.5 1.3 0.7
v -0.5 1.5 0.7
v -0.5 0.7 0.5
v -0.5 0.9 0.5
v -0.5 1 0.5
v -0.5 1.2 0.5
v -0.5 1.3 0.5
v -0.5 1.5 0.5
v -0.5 0.7 0.4
v -0.5 0.9 0.4
v -0.5 1 0.4
v -0.5 1.2 0.4
v -0.5 1.3 0.4
v -0.5 1.5 0.4
v -0.5 0.7 0.2
v -0.5 0.9 0.2
v -0.5 1 0.2
v -0.5 1.2 0.2
v -0.5 1.3 0.2
v -0.5 1.5 0.2
v -0.5 0.7 0.1
v -0.5 0.9 0.1
v -0.5 1 0.1
v -0.5 1.2 0.1
v -0.5 1.3 0.1
v -0.5 1.5 0.1
v -0.5 0.7 -0.0999999
v -0.5 0.9 -0.0999999
v -0.5 1 -0.0999999
v -0.5 1.2 -0.0999999
v -0.5 1.3 -0.0999999
v -0.5 1.5 -0.0999999
v -0.5 0.7 -0.2
v -0.5 0.9 -0.2
v -0.5 1 -0.2
v -0.5 1.2 -0.2
v -0.5 1.3 -0.2
v -0.5 1.5 -0.2
v -0.5 0.7 -0.4
v -0.5 0.9 -0.4
v -0.5 1 -0.4
v -0.5 1.2 -0.4
v -0.5 1.3 -0.4
v -0.5 1.5 -0.4
v -0.5 0.7 -0.5
v -0.5 0.9 -0.5
v -0.5 1 -0.5
v -0.5 1.2 -0.5
v -0.5 1.3 -0.5
v -0.5 1.5 -0.5
v -0.5 0.7 -0.7
v -0.5 0.9 -0.7
v -0.5 1 -0.7
v -0.5 1.2 -0.7
v -0.5 1.3 -0.7
v -0.5 1.5 -0.7
v -0.5 0.7 -0.8
v -0.5 0.9 -0.8
v -0.5 1 -0.8
v -0.5 1.2 -0.8
v -0.5 1.3 -0.8
v -0.5 1.5 -0.8
v -0.5 0.6 -1
v -0.5 0.7 -1
v -0.5 0.9 -1
v -0.5 1 -1
v -0.5 1.2 -1
v -0.5 1.3 -1
v -0.5 1.5 -1
v -0.5 2.1 -1
v -0.5 1.6 -1.1
v -0.5 1.7 -1.1
v -0.5 1.9 -1.1
v -0.5 2 -1.1
v -0.5 1.6 -1.2
v -0.5 1.7 -1.2
v -0.5 1.9 -1.2
v -0.5 2 -1.2
v -0.5 1.5 -1.3
v -0.5 2.1 -1.3
v -0.6 1.6 1.2
v -0.6 1.7 1.2
v -0.6 1.9 1.2
v -0.6 2 1.2
v -0.6 1.6 1.1
v -0.6 1.7 1.1
v -0.6 1.9 1.1
v -0.6 2 1.1
v -0.6 1.5 1
v -0.6 2.1 1
v -0.6 1.5 -1
v -0.6 2.1 -1
v -0.6 1.6 -1.1
v -0.6 1.7 -1.1
v -0.6 1.9 -1.1
v -0.6 2 -1.1
v -0.6 1.6 -1.2
v -0.6 1.7 -1.2
v -0.6 1.9 -1.2
v -0.6 2 -1.2
v 0.6 0.6 0.6
v 0.6 0.6 0.5
v 0.6 0.6 -0.5
v 0.6 0.6 -0.6
v 0.5 0.6 1
v 0.5 0.6 0.6
v 0.5 0.6 0.5
v 0.5 0.6 0.3
v 0.5 0.6 0.1
v 0.5 0.6 -0.0999999
v 0.5 0.6 -0.3
v 0.5 0.6 -0.5
v 0.5 0.6 -0.6
v 0.5 0.6 -1
v 0.4 0.6 0.5
v 0.4 0.6 0.3
v 0.4 0.6 0.1
v 0.4 0.6 -0.0999999
v 0.4 0.6 -0.3
v 0.4 0.6 -0.5
v -0.4 0.6 0.6
v -0.4 0.6 0.5
v -0.4 0.6 -0.5
v -0.4 0.6 -0.6
v -0.5 0.6 1
v -0.5 0.6 -1
v 0.6 1.5 1.3
v 0.6 1.5 0.6
v 0.6 1.5 -0.6
v 0.6 1.5 -1.3
v 0.5 1.5 1
v 0.5 1.5 0.8
v 0.5 1.5 0.7
v 0.5 1.5 0.6
v 0.5 1.5 -0.6
v 0.5 1.5 -0.7
v 0.5 1.5 -0.8
v 0.5 1.5 -1
v 0.4 1.5 1
v 0.4 1.5 -1
v 0.3 1.5 1
v 0.3 1.5 -1
v 0.1 1.5 1
v 0.1 1.5 -1
v 0 1.5 1
v 0 1.5 -1
v -0.2 1.5 1
v -0.2 1.5 -1
v -0.3 1.5 1
v -0.3 1.5 -1
v -0.5 1.5 1.3
v -0.5 1.5 1
v -0.5 1.5 0.8
v -0.5 1.5 0.7
v -0.5 1.5 0.5
v -0.5 1.5 0.4
v -0.5 1.5 0.2
v -0.5 1.5 0.1
v -0.5 1.5 -0.0999999
v -0.5 1.5 -0.2
v -0.5 1.5 -0.4
v -0.5 1.5 -0.5
v -0.5 1.5 -0.7
v -0.5 1.5 -0.8
v -0.5 1.5 -1
v -0.5 1.5 -1.3
v -0.6 1.5 1
v -0.6 1.5 -1
v 0.7 1.6 1.2
v 0.7 1.6 1.1
v 0.7 1.6 -1.1
v 0.7 1.6 -1.2
v 0.6 1.6 1.2
v 0.6 1.6 1.1
v 0.6 1.6 -1.1
v 0.6 1.6 -1.2
v -0.5 1.6 1.2
v -0.5 1.6 1.1
v -0.5 1.6 -1.1
v -0.5 1.6 -1.2
v -0.6 1.6 1.2
v -0.6 1.6 1.1
v -0.6 1.6 -1.1
v -0.6 1.6 -1.2
v 0.7 1.9 1.2
v 0.7 1.9 1.1
v 0.7 1.9 -1.1
v 0.7 1.9 -1.2
v 0.6 1.9 1.2
v 0.6 1.9 1.1
v 0.6 1.9 -1.1
v 0.6 1.9 -1.2
v -0.5 1.9 1.2
v -0.5 1.9 1.1
v -0.5 1.9 -1.1
v -0.5 1.9 -1.2
v -0.6 1.9 1.2
v -0.6 1.9 1.1
v -0.6 1.9 -1.1
v -0.6 1.9 -1.2
v 0.7 1.7 1.2
v 0.7 1.7 1.1
v 0.7 1.7 -1.1
v 0.7 1.7 -1.2
v 0.6 1.7 1.2
v 0.6 1.7 1.1
v 0.6 1.7 -1.1
v 0.6 1.7 -1.2
v -0.5 1.7 1.2
v -0.5 1.7 1.1
v -0.5 1.7 -1.1
v -0.5 1.7 -1.2
v -0.6 1.7 1.2
v -0.6 1.7 1.1
v -0.6 1.7 -1.1
v -0.6 1.7 -1.2
v 0.7 2 1.2
v 0.7 2 1.1
v 0.7 2 -1.1
v 0.7 2 -1.2
v 0.6 2 1.2
v 0.6 2 1.1
v 0.6 2 -1.1
v 0.6 2 -1.2
v 0.5 2 0.5
v 0.5 2 0.2
v 0.5 2 0.1
v 0.5 2 -0.0999999
v 0.5 2 -0.2
v 0.5 2 -0.5
v 0.4 2 0.5
v 0.4 2 0.2
v 0.4 2 0.1
v 0.4 2 -0.0999999
v 0.4 2 -0.2
v 0.4 2 -0.5
v -0.4 2 0.5
v -0.4 2 -0.5
v -0.5 2 1.2
v -0.5 2 1.1
v -0.5 2 -1.1
v -0.5 2 -1.2
v -0.6 2 1.2
v -0.6 2 1.1
v -0.6 2 -1.1
v -0.6 2 -1.2
v 0.6 2.1 1.3
v 0.6 2.1 0.5
v 0.6 2.1 -0.5
v 0.6 2.1 -1.3
v 0.4 2.1 1.2
v 0.4 2.1 1.1
v 0.4 2.1 -1.1
v 0.4 2.1 -1.2
v 0.3 2.1 1.2
v 0.3 2.1 1.1
v 0.3 2.1 -1.1
v 0.3 2.1 -1.2
v 0.1 2.1 1.2
v 0.1 2.1 1.1
v 0.1 2.1 -1.1
v 0.1 2.1 -1.2
v 0 2.1 1.2
v 0 2.1 1.1
v 0 2.1 -1.1
v 0 2.1 -1.2
v -0.2 2.1 1.2
v -0.2 2.1 1.1
v -0.2 2.1 -1.1
v -0.2 2.1 -1.2
v -0.3 2.1 1.2
v -0.3 2.1 1.1
v -0.3 2.1 -1.1
v -0.3 2.1 -1.2
v -0.4 2.1 0.5
v -0.4 2.1 -0.5
v -0.5 2.1 1.3
v -0.5 2.1 1
v -0.5 2.1 -1
v -0.5 2.1 -1.3
v -0.6 2.1 1
v -0.6 2.1 -1
v 0.4 2.2 1.2
v 0.4 2.2 1.1
v 0.4 2.2 -1.1
v 0.4 2.2 -1.2
v 0.3 2.2 1.2
v 0.3 2.2 1.1
v 0.3 2.2 -1.1
v 0.3 2.2 -1.2
v 0.1 2.2 1.2
v 0.1 2.2 1.1
v 0.1 2.2 -1.1
v 0.1 2.2 -1.2
v 0 2.2 1.2
v 0 2.2 1.1
v 0 2.2 -1.1
v 0 2.2 -1.2
v -0.2 2.2 1.2
v -0.2 2.2 1.1
v -0.2 2.2 -1.1
v -0.2 2.2 -1.2
v -0.3 2.2 1.2
v -0.3 2.2 1.1
v -0.3 2.2 -1.1
v -0.3 2.2 -1.2

# faces
f 3/1/1 2/1/1 1/1/1
f 4/1/1 2/1/1 3/1/1
f 9/3/1 6/3/1 5/3/1
f 10/3/1 6/3/1 9/3/1
f 11/3/1 8/3/1 7/3/1
f 12/3/1 8/3/1 11/3/1
f 17/3/1 14/3/1 13/3/1
f 18/3/1 14/3/1 17/3/1
f 19/3/1 16/3/1 15/3/1
f 20/3/1 16/3/1 19/3/1
f 27/3/1 22/3/1 21/3/1
f 28/3/1 22/3/1 27/3/1
f 29/3/1 24/3/1 23/3/1
f 30/3/1 24/3/1 29/3/1
f 31/3/1 26/3/1 25/3/1
f 32/3/1 26/3/1 31/3/1
f 35/2/1 34/2/1 33/2/1
f 36/2/1 34/2/1 35/2/1
f 37/2/1 34/2/1 36/2/1
f 38/2/1 34/2/1 37/2/1
f 39/2/1 34/2/1 38/2/1
f 40/2/1 34/2/1 39/2/1
f 41/2/1 34/2/1 40/2/1
f 42/2/1 34/2/1 41/2/1
f 43/1/1 36/1/1 35/1/1
f 44/2/1 37/2/1 36/2/1
f 44/1/1 36/1/1 43/1/1
f 45/1/1 38/1/1 37/1/1
f 45/2/1 37/2/1 44/2/1
f 46/2/1 39/2/1 38/2/1
f 46/1/1 38/1/1 45/1/1
f 47/1/1 40/1/1 39/1/1
f 47/2/1 39/2/1 46/2/1
f 48/2/1 41/2/1 40/2/1
f 48/1/1 40/1/1 47/1/1
f 49/1/1 42/1/1 41/1/1
f 49/2/1 41/2/1 48/2/1
f 50/1/1 42/1/1 49/1/1
f 51/2/1 44/2/1 43/2/1
f 51/2/1 45/2/1 44/2/1
f 51/2/1 50/2/1 49/2/1
f 51/2/1 49/2/1 48/2/1
f 51/2/1 48/2/1 47/2/1
f 51/2/1 47/2/1 46/2/1
f 51/2/1 46/2/1 45/2/1
f 52/2/1 50/2/1 51/2/1
f 53/2/1 50/2/1 52/2/1
f 54/2/1 50/2/1 53/2/1
f 55/2/1 50/2/1 54/2/1
f 56/2/1 50/2/1 55/2/1
f 57/2/1 50/2/1 56/2/1
f 58/2/1 50/2/1 57/2/1
f 59/1/1 52/1/1 51/1/1
f 60/2/1 53/2/1 52/2/1
f 60/1/1 52/1/1 59/1/1
f 61/1/1 54/1/1 53/1/1
f 61/2/1 53/2/1 60/2/1
f 62/2/1 55/2/1 54/2/1
f 62/1/1 54/1/1 61/1/1
f 63/1/1 56/1/1 55/1/1
f 63/2/1 55/2/1 62/2/1
f 64/2/1 57/2/1 56/2/1
f 64/1/1 56/1/1 63/1/1
f 65/1/1 58/1/1 57/1/1
f 65/2/1 57/2/1 64/2/1
f 66/1/1 58/1/1 65/1/1
f 67/2/1 60/2/1 59/2/1
f 67/2/1 61/2/1 60/2/1
f 67/2/1 66/2/1 65/2/1
f 67/2/1 65/2/1 64/2/1
f 67/2/1 64/2/1 63/2/1
f 67/2/1 63/2/1 62/2/1
f 67/2/1 62/2/1 61/2/1
f 68/2/1 66/2/1 67/2/1
f 69/2/1 66/2/1 68/2/1
f 70/2/1 66/2/1 69/2/1
f 71/2/1 66/2/1 70/2/1
f 72/2/1 66/2/1 71/2/1
f 73/2/1 66/2/1 72/2/1
f 74/2/1 66/2/1 73/2/1
f 75/1/1 68/1/1 67/1/1
f 76/2/1 69/2/1 68/2/1
f 76/1/1 68/1/1 75/1/1
f 77/1/1 70/1/1 69/1/1
f 77/2/1 69/2/1 76/2/1
f 78/2/1 71/2/1 70/2/1
f 78/1/1 70/1/1 77/1/1
f 79/1/1 72/1/1 71/1/1
f 79/2/1 71/2/1 78/2/1
f 80/2/1 73/2/1 72/2/1
f 80/1/1 72/1/1 79/1/1
f 81/1/1 74/1/1 73/1/1
f 81/2/1 73/2/1 80/2/1
f 82/1/1 74/1/1 81/1/1
f 84/1/1 83/1/1 82/1/1
f 85/1/1 83/1/1 84/1/1
f 88/1/1 87/1/1 86/1/1
f 89/1/1 88/1/1 86/1/1
f 90/1/1 89/1/1 86/1/1
f 91/1/1 90/1/1 86/1/1
f 92/1/1 91/1/1 86/1/1
f 93/1/1 92/1/1 86/1/1
f 94/1/1 92/1/1 93/1/1
f 97/1/1 96/1/1 95/1/1
f 98/1/1 97/1/1 95/1/1
f 99/1/1 98/1/1 95/1/1
f 100/1/1 99/1/1 95/1/1
f 101/1/1 100/1/1 95/1/1
f 102/1/1 101/1/1 95/1/1
f 103/1/1 102/1/1 95/1/1
f 104/1/1 103/1/1 95/1/1
f 105/1/1 104/1/1 95/1/1
f 106/1/1 105/1/1 95/1/1
f 107/1/1 106/1/1 95/1/1
f 110/1/1 107/1/1 95/1/1
f 110/1/1 109/1/1 108/1/1
f 110/1/1 108/1/1 107/1/1
f 111/1/1 109/1/1 110/1/1
f 116/3/1 113/3/1 112/3/1
f 117/3/1 113/3/1 116/3/1
f 118/3/1 115/3/1 114/3/1
f 119/3/1 115/3/1 118/3/1
f 124/3/1 121/3/1 120/3/1
f 125/3/1 121/3/1 124/3/1
f 126/3/1 123/3/1 122/3/1
f 127/3/1 123/3/1 126/3/1
f 134/3/1 129/3/1 128/3/1
f 135/3/1 129/3/1 134/3/1
f 136/3/1 131/3/1 130/3/1
f 137/3/1 131/3/1 136/3/1
f 138/3/1 133/3/1 132/3/1
f 139/3/1 133/3/1 138/3/1
f 140/3/2 141/3/2 144/3/2
f 144/3/2 141/3/2 145/3/2
f 142/3/2 143/3/2 146/3/2
f 146/3/2 143/3/2 147/3/2
f 148/3/2 149/3/2 152/3/2
f 152/3/2 149/3/2 153/3/2
f 150/3/2 151/3/2 154/3/2
f 154/3/2 151/3/2 155/3/2
f 156/3/2 157/3/2 162/3/2
f 162/3/2 157/3/2 163/3/2
f 158/3/2 159/3/2 164/3/2
f 164/3/2 159/3/2 165/3/2
f 160/3/2 161/3/2 166/3/2
f 166/3/2 161/3/2 167/3/2
f 168/1/2 169/1/2 170/1/2
f 168/1/2 170/1/2 171/1/2
f 168/1/2 171/1/2 172/1/2
f 168/1/2 172/1/2 173/1/2
f 168/1/2 173/1/2 174/1/2
f 168/1/2 174/1/2 175/1/2
f 168/1/2 175/1/2 176/1/2
f 168/1/2 176/1/2 177/1/2
f 168/1/2 177/1/2 178/1/2
f 168/1/2 178/1/2 179/1/2
f 168/1/2 179/1/2 180/1/2
f 168/1/2 180/1/2 183/1/2
f 181/1/2 182/1/2 183/1/2
f 180/1/2 181/1/2 183/1/2
f 183/1/2 182/1/2 184/1/2
f 185/1/2 186/1/2 187/1/2
f 185/1/2 187/1/2 188/1/2
f 185/1/2 188/1/2 189/1/2
f 185/1/2 189/1/2 190/1/2
f 185/1/2 190/1/2 191/1/2
f 185/1/2 191/1/2 192/1/2
f 192/1/2 191/1/2 193/1/2
f 194/2/2 195/2/2 196/2/2
f 196/2/2 195/2/2 197/2/2
f 197/2/2 195/2/2 198/2/2
f 198/2/2 195/2/2 199/2/2
f 199/2/2 195/2/2 200/2/2
f 200/2/2 195/2/2 201/2/2
f 201/2/2 195/2/2 202/2/2
f 202/2/2 195/2/2 203/2/2
f 196/1/2 197/1/2 204/1/2
f 197/2/2 198/2/2 205/2/2
f 204/1/2 197/1/2 205/1/2
f 198/1/2 199/1/2 206/1/2
f 205/2/2 198/2/2 206/2/2
f 199/2/2 200/2/2 207/2/2
f 206/1/2 199/1/2 207/1/2
f 200/1/2 201/1/2 208/1/2
f 207/2/2 200/2/2 208/2/2
f 201/2/2 202/2/2 209/2/2
f 208/1/2 201/1/2 209/1/2
f 202/1/2 203/1/2 210/1/2
f 209/2/2 202/2/2 210/2/2
f 210/1/2 203/1/2 211/1/2
f 204/2/2 205/2/2 212/2/2
f 205/2/2 206/2/2 212/2/2
f 210/2/2 211/2/2 212/2/2
f 209/2/2 210/2/2 212/2/2
f 208/2/2 209/2/2 212/2/2
f 207/2/2 208/2/2 212/2/2
f 206/2/2 207/2/2 212/2/2
f 212/2/2 211/2/2 213/2/2
f 213/2/2 211/2/2 214/2/2
f 214/2/2 211/2/2 215/2/2
f 215/2/2 211/2/2 216/2/2
f 216/2/2 211/2/2 217/2/2
f 217/2/2 211/2/2 218/2/2
f 218/2/2 211/2/2 219/2/2
f 212/1/2 213/1/2 220/1/2
f 213/2/2 214/2/2 221/2/2
f 220/1/2 213/1/2 221/1/2
f 214/1/2 215/1/2 222/1/2
f 221/2/2 214/2/2 222/2/2
f 215/2/2 216/2/2 223/2/2
f 222/1/2 215/1/2 223/1/2
f 216/1/2 217/1/2 224/1/2
f 223/2/2 216/2/2 224/2/2
f 217/2/2 218/2/2 225/2/2
f 224/1/2 217/1/2 225/1/2
f 218/1/2 219/1/2 226/1/2
f 225/2/2 218/2/2 226/2/2
f 226/1/2 219/1/2 227/1/2
f 220/2/2 221/2/2 228/2/2
f 221/2/2 222/2/2 228/2/2
f 226/2/2 227/2/2 228/2/2
f 225/2/2 226/2/2 228/2/2
f 224/2/2 225/2/2 228/2/2
f 223/2/2 224/2/2 228/2/2
f 222/2/2 223/2/2 228/2/2
f 228/2/2 227/2/2 229/2/2
f 229/2/2 227/2/2 230/2/2
f 230/2/2 227/2/2 231/2/2
f 231/2/2 227/2/2 232/2/2
f 232/2/2 227/2/2 233/2/2
f 233/2/2 227/2/2 234/2/2
f 234/2/2 227/2/2 235/2/2
f 228/1/2 229/1/2 236/1/2
f 229/2/2 230/2/2 237/2/2
f 236/1/2 229/1/2 237/1/2
f 230/1/2 231/1/2 238/1/2
f 237/2/2 230/2/2 238/2/2
f 231/2/2 232/2/2 239/2/2
f 238/1/2 231/1/2 239/1/2
f 232/1/2 233/1/2 240/1/2
f 239/2/2 232/2/2 240/2/2
f 233/2/2 234/2/2 241/2/2
f 240/1/2 233/1/2 241/1/2
f 234/1/2 235/1/2 242/1/2
f 241/2/2 234/2/2 242/2/2
f 242/1/2 235/1/2 243/1/2
f 243/1/2 244/1/2 245/1/2
f 245/1/2 244/1/2 246/1/2
f 247/3/2 248/3/2 251/3/2
f 251/3/2 248/3/2 252/3/2
f 249/3/2 250/3/2 253/3/2
f 253/3/2 250/3/2 254/3/2
f 255/3/2 256/3/2 259/3/2
f 259/3/2 256/3/2 260/3/2
f 257/3/2 258/3/2 261/3/2
f 261/3/2 258/3/2 262/3/2
f 263/3/2 264/3/2 269/3/2
f 269/3/2 264/3/2 270/3/2
f 265/3/2 266/3/2 271/3/2
f 271/3/2 266/3/2 272/3/2
f 267/3/2 268/3/2 273/3/2
f 273/3/2 268/3/2 274/3/2
f 275/1/2 276/1/2 277/1/2
f 277/1/2 276/1/2 278/1/2
f 283/3/3 280/3/3 279/3/3
f 284/3/3 280/3/3 283/3/3
f 285/3/3 282/3/3 281/3/3
f 286/3/3 282/3/3 285/3/3
f 291/3/3 288/3/3 287/3/3
f 292/3/3 288/3/3 291/3/3
f 293/3/3 290/3/3 289/3/3
f 294/3/3 290/3/3 293/3/3
f 297/1/3 296/1/3 295/1/3
f 298/1/3 296/1/3 297/1/3
f 299/1/3 296/1/3 298/1/3
f 300/1/3 296/1/3 299/1/3
f 301/1/3 297/1/3 295/1/3
f 302/1/3 299/1/3 298/1/3
f 303/1/3 299/1/3 302/1/3
f 304/1/3 296/1/3 300/1/3
f 306/1/3 303/1/3 302/1/3
f 306/1/3 304/1/3 303/1/3
f 306/1/3 301/1/3 295/1/3
f 306/1/3 302/1/3 301/1/3
f 307/1/3 306/1/3 305/1/3
f 308/1/3 296/1/3 304/1/3
f 308/1/3 306/1/3 307/1/3
f 308/1/3 304/1/3 306/1/3
f 311/1/3 310/1/3 309/1/3
f 312/1/3 310/1/3 311/1/3
f 313/1/3 310/1/3 312/1/3
f 314/1/3 310/1/3 313/1/3
f 315/1/3 310/1/3 314/1/3
f 316/1/3 310/1/3 315/1/3
f 317/1/3 313/1/3 312/1/3
f 318/1/3 315/1/3 314/1/3
f 319/1/3 315/1/3 318/1/3
f 320/1/3 310/1/3 316/1/3
f 321/1/3 319/1/3 318/1/3
f 321/1/3 320/1/3 319/1/3
f 321/1/3 317/1/3 312/1/3
f 321/1/3 318/1/3 317/1/3
f 322/1/3 310/1/3 320/1/3
f 322/1/3 320/1/3 321/1/3
f 330/2/3 324/2/3 323/2/3
f 330/1/3 325/1/3 324/1/3
f 331/2/3 326/2/3 325/2/3
f 331/1/3 325/1/3 330/1/3
f 332/1/3 327/1/3 326/1/3
f 332/2/3 326/2/3 331/2/3
f 333/2/3 328/2/3 327/2/3
f 333/1/3 327/1/3 332/1/3
f 334/1/3 329/1/3 328/1/3
f 334/2/3 328/2/3 333/2/3
f 335/1/3 329/1/3 334/1/3
f 336/2/3 333/2/3 332/2/3
f 336/2/3 332/2/3 331/2/3
f 336/2/3 335/2/3 334/2/3
f 336/2/3 334/2/3 333/2/3
f 336/2/3 331/2/3 330/2/3
f 336/2/3 330/2/3 323/2/3
f 337/2/3 335/2/3 336/2/3
f 338/2/3 335/2/3 337/2/3
f 339/2/3 335/2/3 338/2/3
f 340/2/3 335/2/3 339/2/3
f 341/2/3 335/2/3 340/2/3
f 342/2/3 336/2/3 323/2/3
f 343/1/3 337/1/3 336/1/3
f 343/2/3 336/2/3 342/2/3
f 344/2/3 338/2/3 337/2/3
f 344/1/3 337/1/3 343/1/3
f 345/1/3 339/1/3 338/1/3
f 345/2/3 338/2/3 344/2/3
f 346/2/3 340/2/3 339/2/3
f 346/1/3 339/1/3 345/1/3
f 347/1/3 341/1/3 340/1/3
f 347/2/3 340/2/3 346/2/3
f 348/1/3 341/1/3 347/1/3
f 361/6/3 350/6/3 349/6/3
f 361/4/3 351/4/3 350/4/3
f 362/5/3 352/5/3 351/5/3
f 362/4/3 351/4/3 361/4/3
f 363/4/3 353/4/3 352/4/3
f 363/5/3 352/5/3 362/5/3
f 364/5/3 356/5/3 355/5/3
f 364/4/3 355/4/3 354/4/3
f 365/4/3 357/4/3 356/4/3
f 365/5/3 356/5/3 364/5/3
f 366/6/3 358/6/3 357/6/3
f 366/4/3 357/4/3 365/4/3
f 367/6/3 358/6/3 366/6/3
f 368/4/3 359/4/3 358/4/3
f 368/6/3 358/6/3 367/6/3
f 369/5/3 360/5/3 359/5/3
f 369/4/3 359/4/3 368/4/3
f 370/6/3 361/6/3 349/6/3
f 370/6/3 362/6/3 361/6/3
f 371/6/3 362/6/3 370/6/3
f 372/4/3 363/4/3 362/4/3
f 372/6/3 362/6/3 371/6/3
f 373/4/3 353/4/3 363/4/3
f 373/4/3 363/4/3 372/4/3
f 374/4/3 364/4/3 354/4/3
f 374/4/3 365/4/3 364/4/3
f 375/6/3 367/6/3 366/6/3
f 375/4/3 365/4/3 374/4/3
f 375/6/3 366/6/3 365/6/3
f 376/6/3 367/6/3 375/6/3
f 377/4/3 368/4/3 367/4/3
f 377/6/3 367/6/3 376/6/3
f 378/5/3 369/5/3 368/5/3
f 378/4/3 368/4/3 377/4/3
f 379/6/3 372/6/3 371/6/3
f 379/4/3 371/4/3 370/4/3
f 379/6/3 373/6/3 372/6/3
f 380/4/3 353/4/3 373/4/3
f 380/6/3 373/6/3 379/6/3
f 381/6/3 376/6/3 375/6/3
f 381/4/3 374/4/3 354/4/3
f 381/6/3 375/6/3 374/6/3
f 382/4/3 377/4/3 376/4/3
f 382/6/3 376/6/3 381/6/3
f 383/5/3 378/5/3 377/5/3
f 383/4/3 377/4/3 382/4/3
f 384/5/3 369/5/3 378/5/3
f 384/5/3 378/5/3 383/5/3
f 384/5/3 360/5/3 369/5/3
f 385/4/3 379/4/3 370/4/3
f 385/4/3 380/4/3 379/4/3
f 386/4/3 353/4/3 380/4/3
f 386/4/3 380/4/3 385/4/3
f 386/6/3 354/6/3 353/6/3
f 387/4/3 383/4/3 382/4/3
f 387/6/3 354/6/3 386/6/3
f 387/4/3 382/4/3 381/4/3
f 387/4/3 381/4/3 354/4/3
f 387/4/3 384/4/3 383/4/3
f 388/4/3 384/4/3 387/4/3
f 389/6/3 386/6/3 385/6/3
f 389/6/3 387/6/3 386/6/3
f 389/6/3 388/6/3 387/6/3
f 390/6/3 388/6/3 389/6/3
f 391/6/3 388/6/3 390/6/3
f 392/6/3 388/6/3 391/6/3
f 393/4/3 390/4/3 389/4/3
f 394/4/3 390/4/3 393/4/3
f 395/4/3 392/4/3 391/4/3
f 396/4/3 392/4/3 395/4/3
f 397/4/3 392/4/3 396/4/3
f 398/4/3 392/4/3 397/4/3
f 399/4/3 393/4/3 389/4/3
f 400/6/3 394/6/3 393/6/3
f 400/4/3 393/4/3 399/4/3
f 401/6/3 394/6/3 400/6/3
f 402/4/3 390/4/3 394/4/3
f 402/6/3 394/6/3 401/6/3
f 403/4/3 395/4/3 391/4/3
f 403/6/3 396/6/3 395/6/3
f 404/6/3 396/6/3 403/6/3
f 405/4/3 397/4/3 396/4/3
f 405/6/3 396/6/3 404/6/3
f 406/5/3 398/5/3 397/5/3
f 406/4/3 397/4/3 405/4/3
f 407/5/3 398/5/3 406/5/3
f 408/6/3 401/6/3 400/6/3
f 408/6/3 400/6/3 399/6/3
f 409/4/3 402/4/3 401/4/3
f 409/6/3 401/6/3 408/6/3
f 410/4/3 390/4/3 402/4/3
f 410/4/3 402/4/3 409/4/3
f 411/4/3 404/4/3 403/4/3
f 411/4/3 403/4/3 391/4/3
f 412/6/3 405/6/3 404/6/3
f 412/4/3 404/4/3 411/4/3
f 412/6/3 406/6/3 405/6/3
f 413/6/3 406/6/3 412/6/3
f 414/4/3 407/4/3 406/4/3
f 414/6/3 406/6/3 413/6/3
f 415/5/3 398/5/3 407/5/3
f 415/4/3 407/4/3 414/4/3
f 416/5/3 398/5/3 415/5/3
f 417/6/3 408/6/3 399/6/3
f 418/4/3 409/4/3 408/4/3
f 418/6/3 408/6/3 417/6/3
f 419/5/3 410/5/3 409/5/3
f 419/4/3 409/4/3 418/4/3
f 420/4/3 390/4/3 410/4/3
f 420/5/3 410/5/3 419/5/3
f 421/6/3 391/6/3 390/6/3
f 421/4/3 390/4/3 420/4/3
f 422/4/3 411/4/3 391/4/3
f 422/6/3 391/6/3 421/6/3
f 423/5/3 412/5/3 411/5/3
f 423/4/3 411/4/3 422/4/3
f 424/4/3 413/4/3 412/4/3
f 424/5/3 412/5/3 423/5/3
f 425/6/3 414/6/3 413/6/3
f 425/4/3 413/4/3 424/4/3
f 425/6/3 415/6/3 414/6/3
f 426/4/3 416/4/3 415/4/3
f 426/6/3 415/6/3 425/6/3
f 427/5/3 398/5/3 416/5/3
f 427/4/3 416/4/3 426/4/3
f 428/5/3 398/5/3 427/5/3
f 436/2/3 430/2/3 429/2/3
f 436/1/3 431/1/3 430/1/3
f 437/2/3 432/2/3 431/2/3
f 437/1/3 431/1/3 436/1/3
f 438/1/3 433/1/3 432/1/3
f 438/2/3 432/2/3 437/2/3
f 439/2/3 434/2/3 433/2/3
f 439/1/3 433/1/3 438/1/3
f 440/1/3 435/1/3 434/1/3
f 440/2/3 434/2/3 439/2/3
f 441/1/3 435/1/3 440/1/3
f 442/2/3 439/2/3 438/2/3
f 442/2/3 438/2/3 437/2/3
f 442/2/3 441/2/3 440/2/3
f 442/2/3 440/2/3 439/2/3
f 442/2/3 437/2/3 436/2/3
f 442/2/3 436/2/3 429/2/3
f 443/2/3 441/2/3 442/2/3
f 444/2/3 441/2/3 443/2/3
f 445/2/3 441/2/3 444/2/3
f 446/2/3 441/2/3 445/2/3
f 447/2/3 441/2/3 446/2/3
f 448/2/3 442/2/3 429/2/3
f 449/1/3 443/1/3 442/1/3
f 449/2/3 442/2/3 448/2/3
f 450/2/3 444/2/3 443/2/3
f 450/1/3 443/1/3 449/1/3
f 451/1/3 445/1/3 444/1/3
f 451/2/3 444/2/3 450/2/3
f 452/2/3 446/2/3 445/2/3
f 452/1/3 445/1/3 451/1/3
f 453/1/3 447/1/3 446/1/3
f 453/2/3 446/2/3 452/2/3
f 454/1/3 447/1/3 453/1/3
f 457/3/3 456/3/3 455/3/3
f 458/3/3 456/3/3 457/3/3
f 461/3/3 460/3/3 459/3/3
f 462/3/3 460/3/3 461/3/3
f 465/3/3 464/3/3 463/3/3
f 466/3/3 464/3/3 465/3/3
f 469/3/3 468/3/3 467/3/3
f 470/3/3 468/3/3 469/3/3
f 473/3/3 472/3/3 471/3/3
f 474/3/3 472/3/3 473/3/3
f 477/3/3 476/3/3 475/3/3
f 478/3/3 476/3/3 477/3/3
f 481/1/3 480/1/3 479/1/3
f 482/1/3 480/1/3 481/1/3
f 483/3/4 484/3/4 485/3/4
f 485/3/4 484/3/4 486/3/4
f 487/3/4 488/3/4 489/3/4
f 489/3/4 488/3/4 490/3/4
f 491/3/4 492/3/4 493/3/4
f 493/3/4 492/3/4 494/3/4
f 495/3/4 496/3/4 497/3/4
f 497/3/4 496/3/4 498/3/4
f 499/3/4 500/3/4 501/3/4
f 501/3/4 500/3/4 502/3/4
f 503/3/4 504/3/4 505/3/4
f 505/3/4 504/3/4 506/3/4
f 507/1/4 508/1/4 509/1/4
f 509/1/4 508/1/4 510/1/4
f 510/1/4 508/1/4 511/1/4
f 511/1/4 508/1/4 512/1/4
f 507/1/4 509/1/4 513/1/4
f 510/1/4 511/1/4 514/1/4
f 514/1/4 511/1/4 515/1/4
f 512/1/4 508/1/4 516/1/4
f 514/1/4 515/1/4 523/1/4
f 507/1/4 513/1/4 523/1/4
f 513/1/4 514/1/4 523/1/4
f 515/1/4 516/1/4 523/1/4
f 516/1/4 508/1/4 524/1/4
f 523/1/4 516/1/4 524/1/4
f 518/1/4 519/1/4 525/1/4
f 517/2/4 518/2/4 525/2/4
f 519/2/4 520/2/4 526/2/4
f 525/1/4 519/1/4 526/1/4
f 520/1/4 521/1/4 527/1/4
f 526/2/4 520/2/4 527/2/4
f 521/2/4 522/2/4 528/2/4
f 527/1/4 521/1/4 528/1/4
f 522/1/4 523/1/4 529/1/4
f 528/2/4 522/2/4 529/2/4
f 529/1/4 523/1/4 530/1/4
f 526/2/4 527/2/4 531/2/4
f 525/2/4 526/2/4 531/2/4
f 529/2/4 530/2/4 531/2/4
f 528/2/4 529/2/4 531/2/4
f 517/2/4 525/2/4 531/2/4
f 527/2/4 528/2/4 531/2/4
f 531/2/4 530/2/4 532/2/4
f 532/2/4 530/2/4 533/2/4
f 533/2/4 530/2/4 534/2/4
f 534/2/4 530/2/4 535/2/4
f 535/2/4 530/2/4 536/2/4
f 517/2/4 531/2/4 537/2/4
f 531/1/4 532/1/4 537/1/4
f 532/2/4 533/2/4 538/2/4
f 537/1/4 532/1/4 538/1/4
f 533/1/4 534/1/4 539/1/4
f 538/2/4 533/2/4 539/2/4
f 534/2/4 535/2/4 540/2/4
f 539/1/4 534/1/4 540/1/4
f 535/1/4 536/1/4 541/1/4
f 540/2/4 535/2/4 541/2/4
f 541/1/4 536/1/4 542/1/4
f 539/2/4 540/2/4 543/2/4
f 517/2/4 537/2/4 543/2/4
f 541/2/4 542/2/4 543/2/4
f 540/2/4 541/2/4 543/2/4
f 538/2/4 539/2/4 543/2/4
f 537/2/4 538/2/4 543/2/4
f 543/2/4 542/2/4 544/2/4
f 544/2/4 542/2/4 545/2/4
f 545/2/4 542/2/4 546/2/4
f 546/2/4 542/2/4 547/2/4
f 547/2/4 542/2/4 548/2/4
f 517/2/4 543/2/4 549/2/4
f 543/1/4 544/1/4 549/1/4
f 544/2/4 545/2/4 550/2/4
f 549/1/4 544/1/4 550/1/4
f 545/1/4 546/1/4 551/1/4
f 550/2/4 545/2/4 551/2/4
f 546/2/4 547/2/4 552/2/4
f 551/1/4 546/1/4 552/1/4
f 547/1/4 548/1/4 553/1/4
f 552/2/4 547/2/4 553/2/4
f 553/1/4 548/1/4 554/1/4
f 551/2/4 552/2/4 555/2/4
f 517/2/4 549/2/4 555/2/4
f 553/2/4 554/2/4 555/2/4
f 552/2/4 553/2/4 555/2/4
f 550/2/4 551/2/4 555/2/4
f 549/2/4 550/2/4 555/2/4
f 555/2/4 554/2/4 556/2/4
f 556/2/4 554/2/4 557/2/4
f 557/2/4 554/2/4 558/2/4
f 558/2/4 554/2/4 559/2/4
f 559/2/4 554/2/4 560/2/4
f 517/2/4 555/2/4 561/2/4
f 555/1/4 556/1/4 561/1/4
f 556/2/4 557/2/4 562/2/4
f 561/1/4 556/1/4 562/1/4
f 557/1/4 558/1/4 563/1/4
f 562/2/4 557/2/4 563/2/4
f 558/2/4 559/2/4 564/2/4
f 563/1/4 558/1/4 564/1/4
f 559/1/4 560/1/4 565/1/4
f 564/2/4 559/2/4 565/2/4
f 565/1/4 560/1/4 566/1/4
f 563/2/4 564/2/4 567/2/4
f 517/2/4 561/2/4 567/2/4
f 565/2/4 566/2/4 567/2/4
f 564/2/4 565/2/4 567/2/4
f 562/2/4 563/2/4 567/2/4
f 561/2/4 562/2/4 567/2/4
f 567/2/4 566/2/4 568/2/4
f 568/2/4 566/2/4 569/2/4
f 569/2/4 566/2/4 570/2/4
f 570/2/4 566/2/4 571/2/4
f 571/2/4 566/2/4 572/2/4
f 517/2/4 567/2/4 573/2/4
f 567/1/4 568/1/4 573/1/4
f 568/2/4 569/2/4 574/2/4
f 573/1/4 568/1/4 574/1/4
f 569/1/4 570/1/4 575/1/4
f 574/2/4 569/2/4 575/2/4
f 570/2/4 571/2/4 576/2/4
f 575/1/4 570/1/4 576/1/4
f 571/1/4 572/1/4 577/1/4
f 576/2/4 571/2/4 577/2/4
f 577/1/4 572/1/4 578/1/4
f 575/2/4 576/2/4 579/2/4
f 517/2/4 573/2/4 579/2/4
f 577/2/4 578/2/4 579/2/4
f 576/2/4 577/2/4 579/2/4
f 574/2/4 575/2/4 579/2/4
f 573/2/4 574/2/4 579/2/4
f 579/2/4 578/2/4 580/2/4
f 580/2/4 578/2/4 581/2/4
f 581/2/4 578/2/4 582/2/4
f 582/2/4 578/2/4 583/2/4
f 583/2/4 578/2/4 584/2/4
f 517/2/4 579/2/4 585/2/4
f 579/1/4 580/1/4 585/1/4
f 580/2/4 581/2/4 586/2/4
f 585/1/4 580/1/4 586/1/4
f 581/1/4 582/1/4 587/1/4
f 586/2/4 581/2/4 587/2/4
f 582/2/4 583/2/4 588/2/4
f 587/1/4 582/1/4 588/1/4
f 583/1/4 584/1/4 589/1/4
f 588/2/4 583/2/4 589/2/4
f 589/1/4 584/1/4 590/1/4
f 587/2/4 588/2/4 591/2/4
f 517/2/4 585/2/4 591/2/4
f 589/2/4 590/2/4 591/2/4
f 588/2/4 589/2/4 591/2/4
f 586/2/4 587/2/4 591/2/4
f 585/2/4 586/2/4 591/2/4
f 591/2/4 590/2/4 592/2/4
f 592/2/4 590/2/4 593/2/4
f 593/2/4 590/2/4 594/2/4
f 594/2/4 590/2/4 595/2/4
f 595/2/4 590/2/4 596/2/4
f 517/2/4 591/2/4 597/2/4
f 591/1/4 592/1/4 598/1/4
f 597/2/4 591/2/4 598/2/4
f 592/2/4 593/2/4 599/2/4
f 598/1/4 592/1/4 599/1/4
f 593/1/4 594/1/4 600/1/4
f 599/2/4 593/2/4 600/2/4
f 594/2/4 595/2/4 601/2/4
f 600/1/4 594/1/4 601/1/4
f 595/1/4 596/1/4 602/1/4
f 601/2/4 595/2/4 602/2/4
f 602/1/4 596/1/4 603/1/4
f 603/1/4 604/1/4 605/1/4
f 605/1/4 604/1/4 606/1/4
f 606/1/4 604/1/4 607/1/4
f 607/1/4 604/1/4 608/1/4
f 603/1/4 605/1/4 609/1/4
f 606/1/4 607/1/4 610/1/4
f 610/1/4 607/1/4 611/1/4
f 608/1/4 604/1/4 612/1/4
f 610/1/4 611/1/4 613/1/4
f 611/1/4 612/1/4 613/1/4
f 603/1/4 609/1/4 613/1/4
f 609/1/4 610/1/4 613/1/4
f 612/1/4 604/1/4 614/1/4
f 613/1/4 612/1/4 614/1/4
f 615/3/4 616/3/4 619/3/4
f 619/3/4 616/3/4 620/3/4
f 617/3/4 618/3/4 621/3/4
f 621/3/4 618/3/4 622/3/4
f 623/1/4 624/1/4 625/1/4
f 625/1/4 624/1/4 626/1/4
f 627/3/4 628/3/4 631/3/4
f 631/3/4 628/3/4 632/3/4
f 629/3/4 630/3/4 633/3/4
f 633/3/4 630/3/4 634/3/4
f 640/1/5 636/1/5 635/1/5
f 641/1/5 636/1/5 640/1/5
f 646/1/5 638/1/5 637/1/5
f 647/1/5 638/1/5 646/1/5
f 649/1/5 641/1/5 640/1/5
f 649/6/5 642/6/5 641/6/5
f 650/4/5 643/4/5 642/4/5
f 650/6/5 642/6/5 649/6/5
f 651/6/5 644/6/5 643/6/5
f 651/4/5 643/4/5 650/4/5
f 652/4/5 645/4/5 644/4/5
f 652/6/5 644/6/5 651/6/5
f 653/6/5 646/6/5 645/6/5
f 653/4/5 645/4/5 652/4/5
f 654/1/5 647/1/5 646/1/5
f 654/6/5 646/6/5 653/6/5
f 655/2/5 640/2/5 639/2/5
f 655/1/5 649/1/5 640/1/5
f 656/4/5 651/4/5 650/4/5
f 656/1/5 649/1/5 655/1/5
f 656/4/5 653/4/5 652/4/5
f 656/4/5 652/4/5 651/4/5
f 656/4/5 654/4/5 653/4/5
f 656/4/5 650/4/5 649/4/5
f 657/1/5 647/1/5 654/1/5
f 657/4/5 654/4/5 656/4/5
f 658/2/5 648/2/5 647/2/5
f 658/1/5 647/1/5 657/1/5
f 659/2/5 655/2/5 639/2/5
f 659/2/5 656/2/5 655/2/5
f 659/2/5 658/2/5 657/2/5
f 659/2/5 657/2/5 656/2/5
f 660/2/5 648/2/5 658/2/5
f 660/2/5 658/2/5 659/2/5
f 665/1/5 662/1/5 661/1/5
f 666/1/5 662/1/5 665/1/5
f 667/1/5 662/1/5 666/1/5
f 668/1/5 662/1/5 667/1/5
f 669/1/5 664/1/5 663/1/5
f 670/1/5 664/1/5 669/1/5
f 671/1/5 664/1/5 670/1/5
f 672/1/5 664/1/5 671/1/5
f 673/1/5 665/1/5 661/1/5
f 674/1/5 664/1/5 672/1/5
f 675/1/5 673/1/5 661/1/5
f 676/1/5 664/1/5 674/1/5
f 677/1/5 675/1/5 661/1/5
f 678/1/5 664/1/5 676/1/5
f 679/1/5 677/1/5 661/1/5
f 680/1/5 664/1/5 678/1/5
f 681/1/5 679/1/5 661/1/5
f 682/1/5 664/1/5 680/1/5
f 683/1/5 681/1/5 661/1/5
f 684/1/5 664/1/5 682/1/5
f 685/1/5 683/1/5 661/1/5
f 686/1/5 683/1/5 685/1/5
f 699/1/5 664/1/5 684/1/5
f 700/1/5 664/1/5 699/1/5
f 701/1/5 698/1/5 697/1/5
f 701/1/5 699/1/5 698/1/5
f 701/1/5 687/1/5 686/1/5
f 701/1/5 697/1/5 696/1/5
f 701/1/5 696/1/5 695/1/5
f 701/1/5 695/1/5 694/1/5
f 701/1/5 694/1/5 693/1/5
f 701/1/5 693/1/5 692/1/5
f 701/1/5 692/1/5 691/1/5
f 701/1/5 691/1/5 690/1/5
f 701/1/5 690/1/5 689/1/5
f 701/1/5 689/1/5 688/1/5
f 701/1/5 688/1/5 687/1/5
f 702/1/5 699/1/5 701/1/5
f 707/3/5 704/3/5 703/3/5
f 708/3/5 704/3/5 707/3/5
f 709/3/5 706/3/5 705/3/5
f 710/3/5 706/3/5 709/3/5
f 715/3/5 712/3/5 711/3/5
f 716/3/5 712/3/5 715/3/5
f 717/3/5 714/3/5 713/3/5
f 718/3/5 714/3/5 717/3/5
f 723/3/5 720/3/5 719/3/5
f 724/3/5 720/3/5 723/3/5
f 725/3/5 722/3/5 721/3/5
f 726/3/5 722/3/5 725/3/5
f 731/3/5 728/3/5 727/3/5
f 732/3/5 728/3/5 731/3/5
f 733/3/5 730/3/5 729/3/5
f 734/3/5 730/3/5 733/3/5
f 735/3/6 736/3/6 739/3/6
f 739/3/6 736/3/6 740/3/6
f 737/3/6 738/3/6 741/3/6
f 741/3/6 738/3/6 742/3/6
f 743/3/6 744/3/6 747/3/6
f 747/3/6 744/3/6 748/3/6
f 745/3/6 746/3/6 749/3/6
f 749/3/6 746/3/6 750/3/6
f 751/3/6 752/3/6 755/3/6
f 755/3/6 752/3/6 756/3/6
f 753/3/6 754/3/6 757/3/6
f 757/3/6 754/3/6 758/3/6
f 759/5/6 760/5/6 765/5/6
f 760/4/6 761/4/6 766/4/6
f 765/5/6 760/5/6 766/5/6
f 761/6/6 762/6/6 767/6/6
f 766/4/6 761/4/6 767/4/6
f 762/4/6 763/4/6 768/4/6
f 767/6/6 762/6/6 768/6/6
f 763/5/6 764/5/6 769/5/6
f 768/4/6 763/4/6 769/4/6
f 769/5/6 764/5/6 770/5/6
f 767/4/6 768/4/6 771/4/6
f 765/4/6 766/4/6 771/4/6
f 769/4/6 770/4/6 771/4/6
f 768/4/6 769/4/6 771/4/6
f 766/4/6 767/4/6 771/4/6
f 771/4/6 770/4/6 772/4/6
f 773/3/6 774/3/6 777/3/6
f 777/3/6 774/3/6 778/3/6
f 775/3/6 776/3/6 779/3/6
f 779/3/6 776/3/6 780/3/6
f 781/1/6 782/1/6 785/1/6
f 785/1/6 782/1/6 786/1/6
f 783/1/6 784/1/6 787/1/6
f 787/1/6 784/1/6 788/1/6
f 781/1/6 785/1/6 789/1/6
f 786/1/6 782/1/6 790/1/6
f 783/1/6 787/1/6 791/1/6
f 788/1/6 784/1/6 792/1/6
f 781/1/6 789/1/6 793/1/6
f 789/1/6 790/1/6 793/1/6
f 790/1/6 782/1/6 794/1/6
f 793/1/6 790/1/6 794/1/6
f 791/1/6 792/1/6 795/1/6
f 783/1/6 791/1/6 795/1/6
f 792/1/6 784/1/6 796/1/6
f 795/1/6 792/1/6 796/1/6
f 781/1/6 793/1/6 797/1/6
f 794/1/6 782/1/6 798/1/6
f 783/1/6 795/1/6 799/1/6
f 796/1/6 784/1/6 800/1/6
f 781/1/6 797/1/6 801/1/6
f 797/1/6 798/1/6 801/1/6
f 798/1/6 782/1/6 802/1/6
f 801/1/6 798/1/6 802/1/6
f 799/1/6 800/1/6 803/1/6
f 783/1/6 799/1/6 803/1/6
f 800/1/6 784/1/6 804/1/6
f 803/1/6 800/1/6 804/1/6
f 781/1/6 801/1/6 805/1/6
f 802/1/6 782/1/6 806/1/6
f 783/1/6 803/1/6 807/1/6
f 804/1/6 784/1/6 808/1/6
f 805/1/6 806/1/6 809/1/6
f 806/1/6 782/1/6 809/1/6
f 783/1/6 807/1/6 810/1/6
f 807/1/6 808/1/6 810/1/6
f 781/1/6 805/1/6 811/1/6
f 809/1/6 810/1/6 811/1/6
f 805/1/6 809/1/6 811/1/6
f 811/1/6 810/1/6 812/1/6
f 810/1/6 808/1/6 813/1/6
f 812/1/6 810/1/6 813/1/6
f 808/1/6 784/1/6 814/1/6
f 813/1/6 808/1/6 814/1/6
f 812/1/6 813/1/6 815/1/6
f 815/1/6 813/1/6 816/1/6
f 817/3/6 818/3/6 821/3/6
f 821/3/6 818/3/6 822/3/6
f 819/3/6 820/3/6 823/3/6
f 823/3/6 820/3/6 824/3/6
f 825/3/6 826/3/6 829/3/6
f 829/3/6 826/3/6 830/3/6
f 827/3/6 828/3/6 831/3/6
f 831/3/6 828/3/6 832/3/6
f 833/3/6 834/3/6 837/3/6
f 837/3/6 834/3/6 838/3/6
f 835/3/6 836/3/6 839/3/6
f 839/3/6 836/3/6 840/3/6
