# This file uses centimeters as units for non-parametric coordinates.

mtllib plant_hedge_1x1.mtl
g default
v -0.504000 -0.504000 0.378000
v -0.504000 0.504000 0.378000
v -0.504000 0.504000 -0.378000
v -0.504000 -0.504000 -0.378000
v -0.378000 -0.504000 -0.378000
v -0.378000 0.504000 -0.378000
v -0.378000 0.504000 -0.504000
v -0.378000 -0.504000 -0.504000
v -0.378000 -0.504000 0.504000
v -0.378000 0.504000 0.504000
v -0.378000 0.504000 0.378000
v -0.378000 -0.504000 0.378000
v 0.378000 -0.504000 -0.504000
v 0.378000 0.504000 -0.504000
v 0.378000 0.504000 -0.378000
v 0.378000 -0.504000 -0.378000
v 0.378000 -0.504000 0.378000
v 0.378000 0.504000 0.378000
v 0.378000 0.504000 0.504000
v 0.378000 -0.504000 0.504000
v 0.504000 -0.504000 -0.378000
v 0.504000 0.504000 -0.378000
v 0.504000 0.504000 0.378000
v 0.504000 -0.504000 0.378000
v -0.378000 -0.504000 -0.504000
v 0.378000 -0.504000 -0.504000
v 0.378000 -0.504000 0.504000
v -0.378000 -0.504000 0.504000
v -0.504000 -0.504000 -0.378000
v -0.378000 -0.504000 -0.378000
v -0.378000 -0.504000 0.378000
v -0.504000 -0.504000 0.378000
v 0.378000 -0.504000 -0.378000
v 0.504000 -0.504000 -0.378000
v 0.504000 -0.504000 0.378000
v 0.378000 -0.504000 0.378000
v -0.378000 0.504000 0.504000
v 0.378000 0.504000 0.504000
v 0.378000 0.504000 -0.504000
v -0.378000 0.504000 -0.504000
v -0.504000 0.504000 0.378000
v -0.378000 0.504000 0.378000
v -0.378000 0.504000 -0.378000
v -0.504000 0.504000 -0.378000
v 0.378000 0.504000 0.378000
v 0.504000 0.504000 0.378000
v 0.504000 0.504000 -0.378000
v 0.378000 0.504000 -0.378000
v -0.378000 0.504000 -0.504000
v 0.378000 0.504000 -0.504000
v 0.378000 -0.504000 -0.504000
v -0.378000 -0.504000 -0.504000
v -0.504000 0.504000 -0.378000
v -0.378000 0.504000 -0.378000
v -0.378000 -0.504000 -0.378000
v -0.504000 -0.504000 -0.378000
v 0.378000 0.504000 -0.378000
v 0.504000 0.504000 -0.378000
v 0.504000 -0.504000 -0.378000
v 0.378000 -0.504000 -0.378000
v -0.504000 -0.504000 0.378000
v -0.378000 -0.504000 0.378000
v -0.378000 0.504000 0.378000
v -0.504000 0.504000 0.378000
v 0.378000 -0.504000 0.378000
v 0.504000 -0.504000 0.378000
v 0.504000 0.504000 0.378000
v 0.378000 0.504000 0.378000
v -0.378000 -0.504000 0.504000
v 0.378000 -0.504000 0.504000
v 0.378000 0.504000 0.504000
v -0.378000 0.504000 0.504000
vt 0.406250 0.125000
vt 0.406250 0.375000
vt 0.312500 0.375000
vt 0.312500 0.125000
vt 0.484375 0.750000
vt 0.484375 1.000000
vt 0.468750 1.000000
vt 0.468750 0.750000
vt 0.578125 0.750000
vt 0.578125 1.000000
vt 0.562500 1.000000
vt 0.562500 0.750000
vt 0.312500 0.437500
vt 0.312500 0.687500
vt 0.328125 0.687500
vt 0.328125 0.437500
vt 0.359375 0.437500
vt 0.359375 0.687500
vt 0.375000 0.687500
vt 0.375000 0.437500
vt 0.000000 0.125000
vt 0.000000 0.375000
vt 0.093750 0.375000
vt 0.093750 0.125000
vt 0.156250 0.375000
vt 0.250000 0.375000
vt 0.250000 0.125000
vt 0.156250 0.125000
vt 0.406250 0.687500
vt 0.421875 0.687500
vt 0.421875 0.500000
vt 0.406250 0.500000
vt 0.515625 1.000000
vt 0.531250 1.000000
vt 0.531250 0.812500
vt 0.515625 0.812500
vt 0.000000 0.750000
vt 0.093750 0.750000
vt 0.093750 1.000000
vt 0.000000 1.000000
vt 0.156250 0.812500
vt 0.171875 0.812500
vt 0.171875 1.000000
vt 0.156250 1.000000
vt 0.203125 0.812500
vt 0.218750 0.812500
vt 0.218750 1.000000
vt 0.203125 1.000000
vt 0.312500 0.750000
vt 0.406250 0.750000
vt 0.406250 1.000000
vt 0.312500 1.000000
vt 0.046875 0.437500
vt 0.062500 0.437500
vt 0.062500 0.687500
vt 0.046875 0.687500
vt 0.093750 0.437500
vt 0.109375 0.437500
vt 0.109375 0.687500
vt 0.093750 0.687500
vt 0.250000 1.000000
vt 0.265625 1.000000
vt 0.265625 0.750000
vt 0.250000 0.750000
vt 0.000000 0.687500
vt 0.015625 0.687500
vt 0.015625 0.437500
vt 0.000000 0.437500
vt 0.156250 0.687500
vt 0.250000 0.687500
vt 0.250000 0.437500
vt 0.156250 0.437500
vn -1.000000 0.000000 0.000000
vn -1.000000 0.000000 0.000000
vn -1.000000 0.000000 0.000000
vn -1.000000 0.000000 0.000000
vn -1.000000 0.000000 0.000000
vn -1.000000 0.000000 0.000000
vn -1.000000 0.000000 0.000000
vn -1.000000 0.000000 0.000000
vn -1.000000 0.000000 0.000000
vn -1.000000 0.000000 0.000000
vn -1.000000 0.000000 0.000000
vn -1.000000 0.000000 0.000000
vn 1.000000 0.000000 0.000000
vn 1.000000 0.000000 0.000000
vn 1.000000 0.000000 0.000000
vn 1.000000 0.000000 0.000000
vn 1.000000 0.000000 0.000000
vn 1.000000 0.000000 0.000000
vn 1.000000 0.000000 0.000000
vn 1.000000 0.000000 0.000000
vn 1.000000 0.000000 0.000000
vn 1.000000 0.000000 0.000000
vn 1.000000 0.000000 0.000000
vn 1.000000 0.000000 0.000000
vn 0.000000 -1.000000 0.000000
vn 0.000000 -1.000000 0.000000
vn 0.000000 -1.000000 0.000000
vn 0.000000 -1.000000 0.000000
vn 0.000000 -1.000000 0.000000
vn 0.000000 -1.000000 0.000000
vn 0.000000 -1.000000 0.000000
vn 0.000000 -1.000000 0.000000
vn 0.000000 -1.000000 0.000000
vn 0.000000 -1.000000 0.000000
vn 0.000000 -1.000000 0.000000
vn 0.000000 -1.000000 0.000000
vn 0.000000 1.000000 0.000000
vn 0.000000 1.000000 0.000000
vn 0.000000 1.000000 0.000000
vn 0.000000 1.000000 0.000000
vn 0.000000 1.000000 0.000000
vn 0.000000 1.000000 0.000000
vn 0.000000 1.000000 0.000000
vn 0.000000 1.000000 0.000000
vn 0.000000 1.000000 0.000000
vn 0.000000 1.000000 0.000000
vn 0.000000 1.000000 0.000000
vn 0.000000 1.000000 0.000000
vn 0.000000 0.000000 -1.000000
vn 0.000000 0.000000 -1.000000
vn 0.000000 0.000000 -1.000000
vn 0.000000 0.000000 -1.000000
vn 0.000000 0.000000 -1.000000
vn 0.000000 0.000000 -1.000000
vn 0.000000 0.000000 -1.000000
vn 0.000000 0.000000 -1.000000
vn 0.000000 0.000000 -1.000000
vn 0.000000 0.000000 -1.000000
vn 0.000000 0.000000 -1.000000
vn 0.000000 0.000000 -1.000000
vn 0.000000 0.000000 1.000000
vn 0.000000 0.000000 1.000000
vn 0.000000 0.000000 1.000000
vn 0.000000 0.000000 1.000000
vn 0.000000 0.000000 1.000000
vn 0.000000 0.000000 1.000000
vn 0.000000 0.000000 1.000000
vn 0.000000 0.000000 1.000000
vn 0.000000 0.000000 1.000000
vn 0.000000 0.000000 1.000000
vn 0.000000 0.000000 1.000000
vn 0.000000 0.000000 1.000000
s off
g plant_hedge_1x1
usemtl PN_bush_1x1:PlainTexture
f 1/1/1 2/2/2 3/3/3 4/4/4
f 5/5/5 6/6/6 7/7/7 8/8/8
f 9/9/9 10/10/10 11/11/11 12/12/12
f 13/13/13 14/14/14 15/15/15 16/16/16
f 17/17/17 18/18/18 19/19/19 20/20/20
f 21/21/21 22/22/22 23/23/23 24/24/24
f 25/25/25 26/26/26 27/27/27 28/28/28
f 29/29/29 30/30/30 31/31/31 32/32/32
f 33/33/33 34/34/34 35/35/35 36/36/36
f 37/37/37 38/38/38 39/39/39 40/40/40
f 41/41/41 42/42/42 43/43/43 44/44/44
f 45/45/45 46/46/46 47/47/47 48/48/48
f 49/49/49 50/50/50 51/51/51 52/52/52
f 53/53/53 54/54/54 55/55/55 56/56/56
f 57/57/57 58/58/58 59/59/59 60/60/60
f 61/61/61 62/62/62 63/63/63 64/64/64
f 65/65/65 66/66/66 67/67/67 68/68/68
f 69/69/69 70/70/70 71/71/71 72/72/72
