# MagicaVoxel @ Ephtracy

# group
o 

# material
mtllib model.mtl
usemtl palette

# normals
vn 0 0 1
vn 0 0 -1
vn 1 0 0
vn -1 0 0
vn 0 -1 0
vn 0 1 0

# texcoords
vt 0.0292969 0.5
vt 0.267578 0.5
vt 0.279297 0.5

# verts
v 1.1 0.2 1.8
v -1.1 0.2 1.8
v 0.9 0.5 1.8
v -0.9 0.5 1.8
v 1.1 1.2 1.8
v 0.9 1.2 1.8
v -0.9 1.2 1.8
v -1.1 1.2 1.8
v 1.1 0 1.3
v -1.1 0 1.3
v 1.1 0.2 1.3
v -1.1 0.2 1.3
v 1.1 1.2 1.1
v 0.9 1.2 1.1
v -0.9 1.2 1.1
v -1.1 1.2 1.1
v 1.1 1.9 1.1
v 0.9 1.9 1.1
v -0.9 1.9 1.1
v -1.1 1.9 1.1
v 0.9 0.5 1
v -0.9 0.5 1
v 0.9 1.1 1
v -0.9 1.1 1
v 0.9 0.5 -1
v -0.9 0.5 -1
v 0.9 1.1 -1
v -0.9 1.1 -1
v 1.1 1.2 -1.1
v 0.9 1.2 -1.1
v -0.9 1.2 -1.1
v -1.1 1.2 -1.1
v 1.1 1.9 -1.1
v 0.9 1.9 -1.1
v -0.9 1.9 -1.1
v -1.1 1.9 -1.1
v 1.1 0 -1.3
v -1.1 0 -1.3
v 1.1 0.2 -1.3
v -1.1 0.2 -1.3
v 1.1 0.2 -1.8
v -1.1 0.2 -1.8
v 0.9 0.5 -1.8
v -0.9 0.5 -1.8
v 1.1 1.2 -1.8
v 0.9 1.2 -1.8
v -0.9 1.2 -1.8
v -1.1 1.2 -1.8
v 1.1 0.2 1.8
v 1.1 1.2 1.8
v 1.1 0.3 1.7
v 1.1 1.1 1.7
v 1.1 0 1.3
v 1.1 0.2 1.3
v 1.1 0.1 1.2
v 1.1 0.3 1.2
v 1.1 1.2 1.1
v 1.1 1.9 1.1
v 1.1 1.1 1
v 1.1 1.8 1
v 1.1 0.6 0.7
v 1.1 1.4 0.7
v 1.1 0.8 0.6
v 1.1 1.1 0.6
v 1.1 1.4 0.6
v 1.1 1.5 0.6
v 1.1 0.4 0.5
v 1.1 0.6 0.5
v 1.1 0.8 0.5
v 1.1 0.9 0.5
v 1.1 1.1 0.5
v 1.1 1.2 0.5
v 1.1 1.5 0.5
v 1.1 1.6 0.5
v 1.1 0.3 0.4
v 1.1 0.4 0.4
v 1.1 0.3 0.2
v 1.1 0.4 0.2
v 1.1 0.8 0.2
v 1.1 0.9 0.2
v 1.1 0.3 0.1
v 1.1 0.4 0.1
v 1.1 0.6 0.1
v 1.1 0.7 0.1
v 1.1 0.8 0.1
v 1.1 1.2 0.1
v 1.1 0.3 -0.0999999
v 1.1 0.4 -0.0999999
v 1.1 0.6 -0.0999999
v 1.1 0.7 -0.0999999
v 1.1 0.8 -0.0999999
v 1.1 1.2 -0.0999999
v 1.1 0.3 -0.2
v 1.1 0.4 -0.2
v 1.1 0.8 -0.2
v 1.1 0.9 -0.2
v 1.1 0.3 -0.4
v 1.1 0.4 -0.4
v 1.1 0.4 -0.5
v 1.1 0.6 -0.5
v 1.1 0.8 -0.5
v 1.1 0.9 -0.5
v 1.1 1.1 -0.5
v 1.1 1.2 -0.5
v 1.1 1.5 -0.5
v 1.1 1.6 -0.5
v 1.1 0.8 -0.6
v 1.1 1.1 -0.6
v 1.1 1.4 -0.6
v 1.1 1.5 -0.6
v 1.1 0.6 -0.7
v 1.1 1.4 -0.7
v 1.1 1.1 -1
v 1.1 1.8 -1
v 1.1 1.2 -1.1
v 1.1 1.9 -1.1
v 1.1 0.1 -1.2
v 1.1 0.3 -1.2
v 1.1 0 -1.3
v 1.1 0.2 -1.3
v 1.1 0.3 -1.7
v 1.1 1.1 -1.7
v 1.1 0.2 -1.8
v 1.1 1.2 -1.8
v -0.9 0.5 1.8
v -0.9 1.2 1.8
v -0.9 0.5 1.7
v -0.9 1.1 1.7
v -0.9 1.2 1.1
v -0.9 1.9 1.1
v -0.9 0.5 1
v -0.9 1.1 1
v -0.9 1.8 1
v -0.9 0.5 -1
v -0.9 1.1 -1
v -0.9 1.8 -1
v -0.9 1.2 -1.1
v -0.9 1.9 -1.1
v -0.9 0.5 -1.7
v -0.9 1.1 -1.7
v -0.9 0.5 -1.8
v -0.9 1.2 -1.8
v 0.9 0.5 1.8
v 0.9 1.2 1.8
v 0.9 0.5 1.7
v 0.9 1.1 1.7
v 0.9 1.2 1.1
v 0.9 1.9 1.1
v 0.9 0.5 1
v 0.9 1.1 1
v 0.9 1.8 1
v 0.9 0.5 -1
v 0.9 1.1 -1
v 0.9 1.8 -1
v 0.9 1.2 -1.1
v 0.9 1.9 -1.1
v 0.9 0.5 -1.7
v 0.9 1.1 -1.7
v 0.9 0.5 -1.8
v 0.9 1.2 -1.8
v -1.1 0.2 1.8
v -1.1 1.2 1.8
v -1.1 0.3 1.7
v -1.1 1.1 1.7
v -1.1 0 1.3
v -1.1 0.2 1.3
v -1.1 0.1 1.2
v -1.1 0.3 1.2
v -1.1 1.2 1.1
v -1.1 1.9 1.1
v -1.1 1.1 1
v -1.1 1.8 1
v -1.1 1.1 -1
v -1.1 1.8 -1
v -1.1 1.2 -1.1
v -1.1 1.9 -1.1
v -1.1 0.1 -1.2
v -1.1 0.3 -1.2
v -1.1 0 -1.3
v -1.1 0.2 -1.3
v -1.1 0.3 -1.7
v -1.1 1.1 -1.7
v -1.1 0.2 -1.8
v -1.1 1.2 -1.8
v 1.1 0 1.3
v 1.1 0 -1.3
v -1.1 0 1.3
v -1.1 0 -1.3
v 1.1 0.2 1.8
v 1.1 0.2 1.3
v 1.1 0.2 -1.3
v 1.1 0.2 -1.8
v -1.1 0.2 1.8
v -1.1 0.2 1.3
v -1.1 0.2 -1.3
v -1.1 0.2 -1.8
v 0.9 0.5 1.8
v 0.9 0.5 1.7
v 0.9 0.5 1
v 0.9 0.5 -1
v 0.9 0.5 -1.7
v 0.9 0.5 -1.8
v -0.9 0.5 1.8
v -0.9 0.5 1.7
v -0.9 0.5 1
v -0.9 0.5 -1
v -0.9 0.5 -1.7
v -0.9 0.5 -1.8
v 0.9 1.1 1
v 0.9 1.1 -1
v -0.9 1.1 1
v -0.9 1.1 -1
v 1.1 1.2 1.8
v 1.1 1.2 1.1
v 1.1 1.2 -1.1
v 1.1 1.2 -1.8
v 0.9 1.2 1.8
v 0.9 1.2 1.1
v 0.9 1.2 -1.1
v 0.9 1.2 -1.8
v -0.9 1.2 1.8
v -0.9 1.2 1.1
v -0.9 1.2 -1.1
v -0.9 1.2 -1.8
v -1.1 1.2 1.8
v -1.1 1.2 1.1
v -1.1 1.2 -1.1
v -1.1 1.2 -1.8
v 1.1 1.9 1.1
v 1.1 1.9 -1.1
v 0.9 1.9 1.1
v 0.9 1.9 -1.1
v -0.9 1.9 1.1
v -0.9 1.9 -1.1
v -1.1 1.9 1.1
v -1.1 1.9 -1.1

# faces
f 3/3/1 2/3/1 1/3/1
f 4/3/1 2/3/1 3/3/1
f 5/3/1 3/3/1 1/3/1
f 6/3/1 3/3/1 5/3/1
f 7/3/1 2/3/1 4/3/1
f 8/3/1 2/3/1 7/3/1
f 11/3/1 10/3/1 9/3/1
f 12/3/1 10/3/1 11/3/1
f 17/3/1 14/3/1 13/3/1
f 18/3/1 14/3/1 17/3/1
f 19/3/1 16/3/1 15/3/1
f 20/3/1 16/3/1 19/3/1
f 23/2/1 22/2/1 21/2/1
f 24/2/1 22/2/1 23/2/1
f 25/2/2 26/2/2 27/2/2
f 27/2/2 26/2/2 28/2/2
f 29/3/2 30/3/2 33/3/2
f 33/3/2 30/3/2 34/3/2
f 31/3/2 32/3/2 35/3/2
f 35/3/2 32/3/2 36/3/2
f 37/3/2 38/3/2 39/3/2
f 39/3/2 38/3/2 40/3/2
f 41/3/2 42/3/2 43/3/2
f 43/3/2 42/3/2 44/3/2
f 41/3/2 43/3/2 45/3/2
f 45/3/2 43/3/2 46/3/2
f 44/3/2 42/3/2 47/3/2
f 47/3/2 42/3/2 48/3/2
f 51/3/3 50/3/3 49/3/3
f 52/3/3 50/3/3 51/3/3
f 54/3/3 51/3/3 49/3/3
f 55/3/3 54/3/3 53/3/3
f 56/2/3 52/2/3 51/2/3
f 56/3/3 54/3/3 55/3/3
f 56/3/3 51/3/3 54/3/3
f 57/3/3 50/3/3 52/3/3
f 59/2/3 52/2/3 56/2/3
f 59/3/3 58/3/3 57/3/3
f 59/3/3 57/3/3 52/3/3
f 59/2/3 56/2/3 55/2/3
f 60/3/3 58/3/3 59/3/3
f 61/2/3 59/2/3 55/2/3
f 61/2/3 60/2/3 59/2/3
f 62/2/3 60/2/3 61/2/3
f 63/1/3 62/1/3 61/1/3
f 64/1/3 62/1/3 63/1/3
f 65/2/3 60/2/3 62/2/3
f 65/1/3 62/1/3 64/1/3
f 66/2/3 60/2/3 65/2/3
f 67/2/3 61/2/3 55/2/3
f 68/1/3 63/1/3 61/1/3
f 68/2/3 61/2/3 67/2/3
f 69/2/3 64/2/3 63/2/3
f 69/1/3 63/1/3 68/1/3
f 70/2/3 64/2/3 69/2/3
f 71/1/3 65/1/3 64/1/3
f 71/2/3 64/2/3 70/2/3
f 71/1/3 66/1/3 65/1/3
f 72/1/3 66/1/3 71/1/3
f 73/2/3 60/2/3 66/2/3
f 73/1/3 66/1/3 72/1/3
f 74/2/3 60/2/3 73/2/3
f 75/2/3 67/2/3 55/2/3
f 76/1/3 68/1/3 67/1/3
f 76/2/3 67/2/3 75/2/3
f 76/1/3 70/1/3 69/1/3
f 76/1/3 69/1/3 68/1/3
f 77/2/3 75/2/3 55/2/3
f 77/1/3 76/1/3 75/1/3
f 78/1/3 70/1/3 76/1/3
f 78/1/3 76/1/3 77/1/3
f 79/1/3 70/1/3 78/1/3
f 80/2/3 72/2/3 71/2/3
f 80/1/3 70/1/3 79/1/3
f 80/2/3 71/2/3 70/2/3
f 81/2/3 77/2/3 55/2/3
f 81/2/3 78/2/3 77/2/3
f 82/1/3 79/1/3 78/1/3
f 82/2/3 78/2/3 81/2/3
f 83/1/3 79/1/3 82/1/3
f 84/1/3 79/1/3 83/1/3
f 85/2/3 80/2/3 79/2/3
f 85/1/3 79/1/3 84/1/3
f 86/2/3 72/2/3 80/2/3
f 86/2/3 80/2/3 85/2/3
f 86/1/3 74/1/3 73/1/3
f 86/1/3 73/1/3 72/1/3
f 87/2/3 81/2/3 55/2/3
f 87/1/3 83/1/3 82/1/3
f 87/1/3 82/1/3 81/1/3
f 88/1/3 83/1/3 87/1/3
f 89/2/3 84/2/3 83/2/3
f 89/1/3 83/1/3 88/1/3
f 90/1/3 85/1/3 84/1/3
f 90/2/3 84/2/3 89/2/3
f 90/1/3 86/1/3 85/1/3
f 91/1/3 86/1/3 90/1/3
f 92/1/3 74/1/3 86/1/3
f 92/1/3 86/1/3 91/1/3
f 93/2/3 87/2/3 55/2/3
f 93/2/3 88/2/3 87/2/3
f 94/1/3 91/1/3 90/1/3
f 94/2/3 88/2/3 93/2/3
f 94/1/3 89/1/3 88/1/3
f 94/1/3 90/1/3 89/1/3
f 95/2/3 92/2/3 91/2/3
f 95/1/3 91/1/3 94/1/3
f 96/2/3 92/2/3 95/2/3
f 97/2/3 93/2/3 55/2/3
f 97/1/3 94/1/3 93/1/3
f 97/1/3 96/1/3 95/1/3
f 97/1/3 95/1/3 94/1/3
f 98/1/3 96/1/3 97/1/3
f 99/2/3 98/2/3 97/2/3
f 99/1/3 96/1/3 98/1/3
f 100/1/3 96/1/3 99/1/3
f 101/1/3 96/1/3 100/1/3
f 102/2/3 92/2/3 96/2/3
f 102/1/3 96/1/3 101/1/3
f 103/2/3 92/2/3 102/2/3
f 104/1/3 74/1/3 92/1/3
f 104/2/3 92/2/3 103/2/3
f 105/1/3 74/1/3 104/1/3
f 106/2/3 60/2/3 74/2/3
f 106/1/3 74/1/3 105/1/3
f 107/1/3 101/1/3 100/1/3
f 107/2/3 103/2/3 102/2/3
f 107/2/3 102/2/3 101/2/3
f 108/1/3 105/1/3 104/1/3
f 108/2/3 103/2/3 107/2/3
f 108/1/3 104/1/3 103/1/3
f 109/1/3 105/1/3 108/1/3
f 110/2/3 106/2/3 105/2/3
f 110/1/3 105/1/3 109/1/3
f 111/1/3 109/1/3 108/1/3
f 111/1/3 107/1/3 100/1/3
f 111/2/3 100/2/3 99/2/3
f 111/1/3 108/1/3 107/1/3
f 112/2/3 110/2/3 109/2/3
f 112/1/3 109/1/3 111/1/3
f 113/2/3 112/2/3 111/2/3
f 114/3/3 58/3/3 60/3/3
f 114/2/3 112/2/3 113/2/3
f 114/2/3 60/2/3 106/2/3
f 114/2/3 110/2/3 112/2/3
f 114/2/3 106/2/3 110/2/3
f 115/3/3 114/3/3 113/3/3
f 116/3/3 58/3/3 114/3/3
f 116/3/3 114/3/3 115/3/3
f 117/3/3 55/3/3 53/3/3
f 117/2/3 113/2/3 111/2/3
f 117/2/3 99/2/3 97/2/3
f 117/2/3 111/2/3 99/2/3
f 117/2/3 97/2/3 55/2/3
f 118/2/3 113/2/3 117/2/3
f 119/3/3 117/3/3 53/3/3
f 119/3/3 118/3/3 117/3/3
f 120/3/3 118/3/3 119/3/3
f 121/2/3 113/2/3 118/2/3
f 121/3/3 118/3/3 120/3/3
f 122/3/3 115/3/3 113/3/3
f 122/2/3 113/2/3 121/2/3
f 123/3/3 121/3/3 120/3/3
f 123/3/3 122/3/3 121/3/3
f 124/3/3 115/3/3 122/3/3
f 124/3/3 122/3/3 123/3/3
f 127/3/3 126/3/3 125/3/3
f 128/3/3 126/3/3 127/3/3
f 129/3/3 126/3/3 128/3/3
f 131/2/3 128/2/3 127/2/3
f 132/3/3 130/3/3 129/3/3
f 132/2/3 128/2/3 131/2/3
f 132/3/3 129/3/3 128/3/3
f 133/3/3 130/3/3 132/3/3
f 135/2/3 133/2/3 132/2/3
f 136/3/3 130/3/3 133/3/3
f 136/2/3 133/2/3 135/2/3
f 137/3/3 136/3/3 135/3/3
f 138/3/3 130/3/3 136/3/3
f 138/3/3 136/3/3 137/3/3
f 139/2/3 135/2/3 134/2/3
f 140/3/3 137/3/3 135/3/3
f 140/2/3 135/2/3 139/2/3
f 141/3/3 140/3/3 139/3/3
f 142/3/3 137/3/3 140/3/3
f 142/3/3 140/3/3 141/3/3
f 143/3/4 144/3/4 145/3/4
f 145/3/4 144/3/4 146/3/4
f 146/3/4 144/3/4 147/3/4
f 145/2/4 146/2/4 149/2/4
f 147/3/4 148/3/4 150/3/4
f 149/2/4 146/2/4 150/2/4
f 146/3/4 147/3/4 150/3/4
f 150/3/4 148/3/4 151/3/4
f 150/2/4 151/2/4 153/2/4
f 151/3/4 148/3/4 154/3/4
f 153/2/4 151/2/4 154/2/4
f 153/3/4 154/3/4 155/3/4
f 154/3/4 148/3/4 156/3/4
f 155/3/4 154/3/4 156/3/4
f 152/2/4 153/2/4 157/2/4
f 153/3/4 155/3/4 158/3/4
f 157/2/4 153/2/4 158/2/4
f 157/3/4 158/3/4 159/3/4
f 158/3/4 155/3/4 160/3/4
f 159/3/4 158/3/4 160/3/4
f 161/3/4 162/3/4 163/3/4
f 163/3/4 162/3/4 164/3/4
f 161/3/4 163/3/4 166/3/4
f 165/3/4 166/3/4 167/3/4
f 163/2/4 164/2/4 168/2/4
f 167/3/4 166/3/4 168/3/4
f 166/3/4 163/3/4 168/3/4
f 164/3/4 162/3/4 169/3/4
f 168/2/4 164/2/4 171/2/4
f 169/3/4 170/3/4 171/3/4
f 164/3/4 169/3/4 171/3/4
f 167/2/4 168/2/4 171/2/4
f 171/3/4 170/3/4 172/3/4
f 167/2/4 171/2/4 173/2/4
f 171/2/4 172/2/4 173/2/4
f 172/3/4 170/3/4 174/3/4
f 173/2/4 172/2/4 174/2/4
f 173/3/4 174/3/4 175/3/4
f 174/3/4 170/3/4 176/3/4
f 175/3/4 174/3/4 176/3/4
f 165/3/4 167/3/4 177/3/4
f 167/2/4 173/2/4 177/2/4
f 177/2/4 173/2/4 178/2/4
f 165/3/4 177/3/4 179/3/4
f 177/3/4 178/3/4 179/3/4
f 179/3/4 178/3/4 180/3/4
f 178/2/4 173/2/4 181/2/4
f 180/3/4 178/3/4 181/3/4
f 173/3/4 175/3/4 182/3/4
f 181/2/4 173/2/4 182/2/4
f 180/3/4 181/3/4 183/3/4
f 181/3/4 182/3/4 183/3/4
f 182/3/4 175/3/4 184/3/4
f 183/3/4 182/3/4 184/3/4
f 187/3/5 186/3/5 185/3/5
f 188/3/5 186/3/5 187/3/5
f 193/3/5 190/3/5 189/3/5
f 194/3/5 190/3/5 193/3/5
f 195/3/5 192/3/5 191/3/5
f 196/3/5 192/3/5 195/3/5
f 197/3/6 198/3/6 203/3/6
f 198/2/6 199/2/6 204/2/6
f 203/3/6 198/3/6 204/3/6
f 204/2/6 199/2/6 205/2/6
f 200/2/6 201/2/6 206/2/6
f 201/3/6 202/3/6 207/3/6
f 206/2/6 201/2/6 207/2/6
f 207/3/6 202/3/6 208/3/6
f 209/2/6 210/2/6 211/2/6
f 211/2/6 210/2/6 212/2/6
f 213/3/6 214/3/6 217/3/6
f 217/3/6 214/3/6 218/3/6
f 215/3/6 216/3/6 219/3/6
f 219/3/6 216/3/6 220/3/6
f 221/3/6 222/3/6 225/3/6
f 225/3/6 222/3/6 226/3/6
f 223/3/6 224/3/6 227/3/6
f 227/3/6 224/3/6 228/3/6
f 229/3/6 230/3/6 231/3/6
f 231/3/6 230/3/6 232/3/6
f 233/3/6 234/3/6 235/3/6
f 235/3/6 234/3/6 236/3/6
