# MagicaVoxel @ Ephtracy

# group
o 

# material
mtllib model-14.mtl
usemtl palette

# normals
vn 0 0 1
vn 0 0 -1
vn 1 0 0
vn -1 0 0
vn 0 -1 0
vn 0 1 0

# texcoords
vt 0.771484 0.5
vt 0.775391 0.5

# verts
v 0.3 2.9 -1.6
v -0.3 2.9 -1.6
v 0.3 3.5 -1.6
v -0.3 3.5 -1.6
v 0.3 2.9 -1.8
v 0.2 2.9 -1.8
v -0.2 2.9 -1.8
v -0.3 2.9 -1.8
v 0.2 3.1 -1.8
v -0.2 3.1 -1.8
v 0.2 3.3 -1.8
v -0.2 3.3 -1.8
v 0.3 3.5 -1.8
v 0.2 3.5 -1.8
v -0.2 3.5 -1.8
v -0.3 3.5 -1.8
v 0.2 2.9 -2.4
v -0.2 2.9 -2.4
v 0.2 3.1 -2.4
v -0.2 3.1 -2.4
v 0.2 3.3 -2.4
v -0.2 3.3 -2.4
v 0.2 3.5 -2.4
v -0.2 3.5 -2.4
v 0.3 2.9 -1.6
v 0.3 3.5 -1.6
v 0.3 2.9 -1.8
v 0.3 3.5 -1.8
v 0.2 2.9 -1.8
v 0.2 3.1 -1.8
v 0.2 3.3 -1.8
v 0.2 3.5 -1.8
v 0.2 2.9 -2.4
v 0.2 3.1 -2.4
v 0.2 3.3 -2.4
v 0.2 3.5 -2.4
v -0.2 2.9 -1.8
v -0.2 3.1 -1.8
v -0.2 3.3 -1.8
v -0.2 3.5 -1.8
v -0.2 2.9 -2.4
v -0.2 3.1 -2.4
v -0.2 3.3 -2.4
v -0.2 3.5 -2.4
v -0.3 2.9 -1.6
v -0.3 3.5 -1.6
v -0.3 2.9 -1.8
v -0.3 3.5 -1.8
v 0.3 2.9 -1.6
v 0.3 2.9 -1.8
v 0.2 2.9 -1.8
v 0.2 2.9 -2.4
v -0.2 2.9 -1.8
v -0.2 2.9 -2.4
v -0.3 2.9 -1.6
v -0.3 2.9 -1.8
v 0.2 3.3 -1.8
v 0.2 3.3 -2.4
v -0.2 3.3 -1.8
v -0.2 3.3 -2.4
v 0.2 3.1 -1.8
v 0.2 3.1 -2.4
v -0.2 3.1 -1.8
v -0.2 3.1 -2.4
v 0.3 3.5 -1.6
v 0.3 3.5 -1.8
v 0.2 3.5 -1.8
v 0.2 3.5 -2.4
v -0.2 3.5 -1.8
v -0.2 3.5 -2.4
v -0.3 3.5 -1.6
v -0.3 3.5 -1.8

# faces
f 3/2/1 2/2/1 1/2/1
f 4/2/1 2/2/1 3/2/1
f 5/2/2 6/2/2 9/2/2
f 7/2/2 8/2/2 10/2/2
f 5/2/2 9/2/2 11/2/2
f 9/2/2 10/2/2 11/2/2
f 10/2/2 8/2/2 12/2/2
f 11/2/2 10/2/2 12/2/2
f 5/2/2 11/2/2 13/2/2
f 13/2/2 11/2/2 14/2/2
f 12/2/2 8/2/2 15/2/2
f 15/2/2 8/2/2 16/2/2
f 17/1/2 18/1/2 19/1/2
f 19/1/2 18/1/2 20/1/2
f 21/1/2 22/1/2 23/1/2
f 23/1/2 22/1/2 24/1/2
f 27/2/3 26/2/3 25/2/3
f 28/2/3 26/2/3 27/2/3
f 33/1/3 30/1/3 29/1/3
f 34/1/3 30/1/3 33/1/3
f 35/1/3 32/1/3 31/1/3
f 36/1/3 32/1/3 35/1/3
f 37/1/4 38/1/4 41/1/4
f 41/1/4 38/1/4 42/1/4
f 39/1/4 40/1/4 43/1/4
f 43/1/4 40/1/4 44/1/4
f 45/2/4 46/2/4 47/2/4
f 47/2/4 46/2/4 48/2/4
f 51/2/5 50/2/5 49/2/5
f 53/2/5 51/2/5 49/2/5
f 53/1/5 52/1/5 51/1/5
f 54/1/5 52/1/5 53/1/5
f 55/2/5 53/2/5 49/2/5
f 56/2/5 53/2/5 55/2/5
f 59/1/5 58/1/5 57/1/5
f 60/1/5 58/1/5 59/1/5
f 61/1/6 62/1/6 63/1/6
f 63/1/6 62/1/6 64/1/6
f 65/2/6 66/2/6 67/2/6
f 65/2/6 67/2/6 69/2/6
f 67/1/6 68/1/6 69/1/6
f 69/1/6 68/1/6 70/1/6
f 65/2/6 69/2/6 71/2/6
f 71/2/6 69/2/6 72/2/6
