# MagicaVoxel @ Ephtracy

# group
o 

# material
mtllib model-10.mtl
usemtl palette

# normals
vn 0 0 1
vn 0 0 -1
vn 1 0 0
vn -1 0 0
vn 0 -1 0
vn 0 1 0

# texcoords
vt 0.771484 0.5
vt 0.775391 0.5
vt 0.779297 0.5

# verts
v 0.3 2.9 -0.9
v -0.3 2.9 -0.9
v 0.3 3.4 -0.9
v 0.2 3.4 -0.9
v 0.3 3.5 -0.9
v 0.2 3.5 -0.9
v -0.3 3.5 -0.9
v 0.3 2.9 -1.5
v -0.3 2.9 -1.5
v 0.2 3 -1.5
v -0.2 3 -1.5
v 0.2 3.4 -1.5
v -0.2 3.4 -1.5
v 0.3 3.5 -1.5
v -0.3 3.5 -1.5
v 0.3 2.9 -1.2
v -0.3 2.9 -1.2
v 0.2 3 -1.2
v -0.2 3 -1.2
v 0.3 3.4 -1.2
v 0.2 3.4 -1.2
v -0.2 3.4 -1.2
v 0.3 3.5 -1.2
v 0.2 3.5 -1.2
v -0.3 3.5 -1.2
v 0.3 2.9 -1.7
v -0.3 2.9 -1.7
v 0.3 3.5 -1.7
v -0.3 3.5 -1.7
v 0.3 2.9 -0.9
v 0.3 3.4 -0.9
v 0.3 3.5 -0.9
v 0.3 2.9 -1.2
v 0.3 3.4 -1.2
v 0.3 3.5 -1.2
v 0.3 2.9 -1.5
v 0.3 3.5 -1.5
v 0.3 2.9 -1.7
v 0.3 3.5 -1.7
v 0.2 3 -1.2
v 0.2 3.4 -1.2
v 0.2 3 -1.5
v 0.2 3.4 -1.5
v -0.2 3 -1.2
v -0.2 3.4 -1.2
v -0.2 3 -1.5
v -0.2 3.4 -1.5
v -0.3 2.9 -0.9
v -0.3 3.5 -0.9
v -0.3 2.9 -1.2
v -0.3 3.5 -1.2
v -0.3 2.9 -1.5
v -0.3 3.5 -1.5
v -0.3 2.9 -1.7
v -0.3 3.5 -1.7
v 0.3 2.9 -0.9
v 0.3 2.9 -1.2
v 0.3 2.9 -1.5
v 0.3 2.9 -1.7
v -0.3 2.9 -0.9
v -0.3 2.9 -1.2
v -0.3 2.9 -1.5
v -0.3 2.9 -1.7
v 0.2 3 -1.2
v 0.2 3 -1.5
v -0.2 3 -1.2
v -0.2 3 -1.5
v 0.2 3.4 -1.2
v 0.2 3.4 -1.5
v -0.2 3.4 -1.2
v -0.2 3.4 -1.5
v 0.3 3.5 -0.9
v 0.3 3.5 -1.2
v 0.3 3.5 -1.5
v 0.3 3.5 -1.7
v 0.2 3.5 -0.9
v 0.2 3.5 -1.2
v -0.3 3.5 -0.9
v -0.3 3.5 -1.2
v -0.3 3.5 -1.5
v -0.3 3.5 -1.7

# faces
f 3/2/1 2/2/1 1/2/1
f 4/2/1 2/2/1 3/2/1
f 5/3/1 4/3/1 3/3/1
f 6/2/1 2/2/1 4/2/1
f 6/3/1 4/3/1 5/3/1
f 7/2/1 2/2/1 6/2/1
f 10/2/1 9/2/1 8/2/1
f 11/2/1 9/2/1 10/2/1
f 12/2/1 10/2/1 8/2/1
f 13/2/1 9/2/1 11/2/1
f 14/2/1 12/2/1 8/2/1
f 14/2/1 13/2/1 12/2/1
f 15/2/1 9/2/1 13/2/1
f 15/2/1 13/2/1 14/2/1
f 16/2/2 17/2/2 18/2/2
f 18/2/2 17/2/2 19/2/2
f 16/2/2 18/2/2 20/2/2
f 20/2/2 18/2/2 21/2/2
f 19/2/2 17/2/2 22/2/2
f 20/3/2 21/3/2 23/3/2
f 21/2/2 22/2/2 24/2/2
f 23/3/2 21/3/2 24/3/2
f 22/2/2 17/2/2 25/2/2
f 24/2/2 22/2/2 25/2/2
f 26/2/2 27/2/2 28/2/2
f 28/2/2 27/2/2 29/2/2
f 33/2/3 31/2/3 30/2/3
f 34/3/3 32/3/3 31/3/3
f 34/2/3 31/2/3 33/2/3
f 35/3/3 32/3/3 34/3/3
f 38/2/3 37/2/3 36/2/3
f 39/2/3 37/2/3 38/2/3
f 42/1/3 41/1/3 40/1/3
f 43/1/3 41/1/3 42/1/3
f 44/1/4 45/1/4 46/1/4
f 46/1/4 45/1/4 47/1/4
f 48/2/4 49/2/4 50/2/4
f 50/2/4 49/2/4 51/2/4
f 52/2/4 53/2/4 54/2/4
f 54/2/4 53/2/4 55/2/4
f 60/2/5 57/2/5 56/2/5
f 61/2/5 57/2/5 60/2/5
f 62/2/5 59/2/5 58/2/5
f 63/2/5 59/2/5 62/2/5
f 66/1/5 65/1/5 64/1/5
f 67/1/5 65/1/5 66/1/5
f 68/1/6 69/1/6 70/1/6
f 70/1/6 69/1/6 71/1/6
f 72/3/6 73/3/6 76/3/6
f 76/3/6 73/3/6 77/3/6
f 76/2/6 77/2/6 78/2/6
f 78/2/6 77/2/6 79/2/6
f 74/2/6 75/2/6 80/2/6
f 80/2/6 75/2/6 81/2/6
