# MagicaVoxel @ Ephtracy

# group
o 

# material
mtllib model-3.mtl
usemtl palette

# normals
vn 0 0 1
vn 0 0 -1
vn 1 0 0
vn -1 0 0
vn 0 -1 0
vn 0 1 0

# texcoords
vt 0.771484 0.5
vt 0.775391 0.5
vt 0.779297 0.5

# verts
v 0.4 0.9 -0.2
v -0.4 0.9 -0.2
v 0.4 1 -0.2
v 0.3 1 -0.2
v 0.4 1.1 -0.2
v 0.3 1.1 -0.2
v -0.4 1.1 -0.2
v 0.4 1.3 -0.2
v -0.4 1.3 -0.2
v 0.4 1.6 -0.2
v -0.4 1.6 -0.2
v 0.3 1.1 -0.3
v -0.3 1.1 -0.3
v 0.3 1.3 -0.3
v -0.3 1.3 -0.3
v 0.3 1.1 -0.8
v -0.3 1.1 -0.8
v 0.3 1.3 -0.8
v -0.3 1.3 -0.8
v 0.4 0.9 -0.9
v -0.4 0.9 -0.9
v 0.4 1 -0.9
v 0.3 1 -0.9
v 0.4 1.1 -0.9
v 0.3 1.1 -0.9
v -0.4 1.1 -0.9
v 0.4 1.3 -0.9
v -0.4 1.3 -0.9
v 0.4 1.6 -0.9
v -0.4 1.6 -0.9
v 0.4 0.9 -0.2
v 0.4 1 -0.2
v 0.4 1.1 -0.2
v 0.4 1.3 -0.2
v 0.4 1.6 -0.2
v 0.4 0.9 -0.9
v 0.4 1 -0.9
v 0.4 1.1 -0.9
v 0.4 1.3 -0.9
v 0.4 1.6 -0.9
v 0.3 1.1 -0.3
v 0.3 1.3 -0.3
v 0.3 1.1 -0.8
v 0.3 1.3 -0.8
v -0.3 1.1 -0.3
v -0.3 1.3 -0.3
v -0.3 1.1 -0.8
v -0.3 1.3 -0.8
v -0.4 0.9 -0.2
v -0.4 1.1 -0.2
v -0.4 1.3 -0.2
v -0.4 1.6 -0.2
v -0.4 0.9 -0.9
v -0.4 1.1 -0.9
v -0.4 1.3 -0.9
v -0.4 1.6 -0.9
v 0.4 0.9 -0.2
v 0.4 0.9 -0.9
v -0.4 0.9 -0.2
v -0.4 0.9 -0.9
v 0.4 1.3 -0.2
v 0.4 1.3 -0.9
v 0.3 1.3 -0.3
v 0.3 1.3 -0.8
v -0.3 1.3 -0.3
v -0.3 1.3 -0.8
v -0.4 1.3 -0.2
v -0.4 1.3 -0.9
v 0.4 1.1 -0.2
v 0.4 1.1 -0.9
v 0.3 1.1 -0.2
v 0.3 1.1 -0.3
v 0.3 1.1 -0.8
v 0.3 1.1 -0.9
v -0.3 1.1 -0.3
v -0.3 1.1 -0.8
v -0.4 1.1 -0.2
v -0.4 1.1 -0.9
v 0.4 1.6 -0.2
v 0.4 1.6 -0.9
v -0.4 1.6 -0.2
v -0.4 1.6 -0.9

# faces
f 3/2/1 2/2/1 1/2/1
f 4/2/1 2/2/1 3/2/1
f 5/3/1 4/3/1 3/3/1
f 6/2/1 2/2/1 4/2/1
f 6/3/1 4/3/1 5/3/1
f 7/2/1 2/2/1 6/2/1
f 10/2/1 9/2/1 8/2/1
f 11/2/1 9/2/1 10/2/1
f 14/1/1 13/1/1 12/1/1
f 15/1/1 13/1/1 14/1/1
f 16/1/2 17/1/2 18/1/2
f 18/1/2 17/1/2 19/1/2
f 20/2/2 21/2/2 22/2/2
f 22/2/2 21/2/2 23/2/2
f 22/3/2 23/3/2 24/3/2
f 23/2/2 21/2/2 25/2/2
f 24/3/2 23/3/2 25/3/2
f 25/2/2 21/2/2 26/2/2
f 27/2/2 28/2/2 29/2/2
f 29/2/2 28/2/2 30/2/2
f 36/2/3 32/2/3 31/2/3
f 37/3/3 33/3/3 32/3/3
f 37/2/3 32/2/3 36/2/3
f 38/3/3 33/3/3 37/3/3
f 39/2/3 35/2/3 34/2/3
f 40/2/3 35/2/3 39/2/3
f 43/1/3 42/1/3 41/1/3
f 44/1/3 42/1/3 43/1/3
f 45/1/4 46/1/4 47/1/4
f 47/1/4 46/1/4 48/1/4
f 49/2/4 50/2/4 53/2/4
f 53/2/4 50/2/4 54/2/4
f 51/2/4 52/2/4 55/2/4
f 55/2/4 52/2/4 56/2/4
f 59/2/5 58/2/5 57/2/5
f 60/2/5 58/2/5 59/2/5
f 63/2/5 62/2/5 61/2/5
f 64/2/5 62/2/5 63/2/5
f 65/2/5 63/2/5 61/2/5
f 66/2/5 62/2/5 64/2/5
f 67/2/5 65/2/5 61/2/5
f 67/2/5 66/2/5 65/2/5
f 68/2/5 62/2/5 66/2/5
f 68/2/5 66/2/5 67/2/5
f 69/3/6 70/3/6 71/3/6
f 71/3/6 70/3/6 72/3/6
f 72/3/6 70/3/6 73/3/6
f 73/3/6 70/3/6 74/3/6
f 71/2/6 72/2/6 75/2/6
f 73/2/6 74/2/6 76/2/6
f 71/2/6 75/2/6 77/2/6
f 75/2/6 76/2/6 77/2/6
f 76/2/6 74/2/6 78/2/6
f 77/2/6 76/2/6 78/2/6
f 79/2/6 80/2/6 81/2/6
f 81/2/6 80/2/6 82/2/6
