# MagicaVoxel @ Ephtracy

# group
o 

# material
mtllib model.mtl
usemtl palette

# normals
vn -1 0 0
vn 1 0 0
vn 0 0 1
vn 0 0 -1
vn 0 -1 0
vn 0 1 0

# texcoords
vt 0.0292969 0.5
vt 0.306641 0.5
vt 0.513672 0.5
vt 0.517578 0.5
vt 0.521484 0.5

# verts
v 0 0 0.5
v 0 0 0.4
v 0 0.2 0.5
v 0 0.2 0.4
v 0 0.4 0.5
v 0 0.4 0.4
v 0 0.6 0.5
v 0 0.6 0.4
v 0 0.8 0.5
v 0 0.8 0.4
v 0 0.8 0.1
v 0 0.8 -0.4
v 0 0.9 0.3
v 0 0.9 0.1
v 0 0.9 -0.4
v 0 0.9 -0.6
v 0 1 0.5
v 0 1 0.4
v 0 1 0.2
v 0 1 0.1
v 0 1 -0.4
v 0 1 -0.5
v 0 1.1 0.4
v 0 1.1 0.3
v 0 1.1 0.2
v 0 1.1 -0.5
v 0 1.1 -0.6
v 0 1.1 -0.7
v 0 1.2 0.6
v 0 1.2 0.5
v 0 1.2 0.4
v 0 1.3 0.5
v 0 1.3 0.4
v 0 1.3 -0.4
v 0 1.3 -0.5
v 0 1.4 0.5
v 0 1.4 0.4
v 0 1.5 0.6
v 0 1.5 0.4
v 0 1.5 -0.3
v 0 1.5 -0.4
v 0 1.5 -0.5
v 0 1.6 0.4
v 0 1.6 0.3
v 0 1.6 0.2
v 0 1.6 5.96046e-08
v 0 1.6 -0.3
v 0 1.6 -0.4
v 0 1.6 -0.5
v 0 1.6 -0.6
v 0 1.6 -0.7
v 0 1.7 0.2
v 0 1.7 0.1
v 0 1.7 5.96046e-08
v 0 1.7 -0.3
v 0 1.7 -0.4
v 0 1.7 -0.5
v 0 1.8 0.3
v 0 1.8 0.1
v 0 1.8 -0.4
v 0 1.8 -0.6
v 0 1.9 0.1
v 0 1.9 -0.4
v 0.1 0 0.5
v 0.1 0 0.4
v 0.1 0.2 0.5
v 0.1 0.2 0.4
v 0.1 0.4 0.5
v 0.1 0.4 0.4
v 0.1 0.6 0.5
v 0.1 0.6 0.4
v 0.1 0.8 0.5
v 0.1 0.8 0.4
v 0.1 0.8 0.1
v 0.1 0.8 -0.4
v 0.1 0.9 0.3
v 0.1 0.9 0.1
v 0.1 0.9 -0.4
v 0.1 0.9 -0.6
v 0.1 1 0.5
v 0.1 1 0.4
v 0.1 1 0.2
v 0.1 1 0.1
v 0.1 1 -0.4
v 0.1 1 -0.5
v 0.1 1.1 0.4
v 0.1 1.1 0.3
v 0.1 1.1 0.2
v 0.1 1.1 -0.5
v 0.1 1.1 -0.6
v 0.1 1.1 -0.7
v 0.1 1.2 0.6
v 0.1 1.2 0.5
v 0.1 1.2 0.4
v 0.1 1.3 0.5
v 0.1 1.3 0.4
v 0.1 1.3 -0.4
v 0.1 1.3 -0.5
v 0.1 1.4 0.5
v 0.1 1.4 0.4
v 0.1 1.5 0.6
v 0.1 1.5 0.4
v 0.1 1.5 -0.3
v 0.1 1.5 -0.4
v 0.1 1.5 -0.5
v 0.1 1.6 0.4
v 0.1 1.6 0.3
v 0.1 1.6 0.2
v 0.1 1.6 5.96046e-08
v 0.1 1.6 -0.3
v 0.1 1.6 -0.4
v 0.1 1.6 -0.5
v 0.1 1.6 -0.6
v 0.1 1.6 -0.7
v 0.1 1.7 0.2
v 0.1 1.7 0.1
v 0.1 1.7 5.96046e-08
v 0.1 1.7 -0.3
v 0.1 1.7 -0.4
v 0.1 1.7 -0.5
v 0.1 1.8 0.3
v 0.1 1.8 0.1
v 0.1 1.8 -0.4
v 0.1 1.8 -0.6
v 0.1 1.9 0.1
v 0.1 1.9 -0.4
v 0 1.2 0.6
v 0 1.5 0.6
v 0.1 1.2 0.6
v 0.1 1.5 0.6
v 0 0 0.5
v 0 0.2 0.5
v 0 0.4 0.5
v 0 0.6 0.5
v 0 0.8 0.5
v 0 1 0.5
v 0 1.2 0.5
v 0.1 0 0.5
v 0.1 0.2 0.5
v 0.1 0.4 0.5
v 0.1 0.6 0.5
v 0.1 0.8 0.5
v 0.1 1 0.5
v 0.1 1.2 0.5
v 0 1.3 0.4
v 0 1.4 0.4
v 0 1.5 0.4
v 0 1.6 0.4
v 0.1 1.3 0.4
v 0.1 1.4 0.4
v 0.1 1.5 0.4
v 0.1 1.6 0.4
v 0 0.9 0.3
v 0 1.1 0.3
v 0 1.6 0.3
v 0 1.8 0.3
v 0.1 0.9 0.3
v 0.1 1.1 0.3
v 0.1 1.6 0.3
v 0.1 1.8 0.3
v 0 0.8 0.1
v 0 0.9 0.1
v 0 1.8 0.1
v 0 1.9 0.1
v 0.1 0.8 0.1
v 0.1 0.9 0.1
v 0.1 1.8 0.1
v 0.1 1.9 0.1
v 0 1.3 0.5
v 0 1.4 0.5
v 0.1 1.3 0.5
v 0.1 1.4 0.5
v 0 0 0.4
v 0 0.2 0.4
v 0 0.4 0.4
v 0 0.6 0.4
v 0 0.8 0.4
v 0 1 0.4
v 0 1.1 0.4
v 0.1 0 0.4
v 0.1 0.2 0.4
v 0.1 0.4 0.4
v 0.1 0.6 0.4
v 0.1 0.8 0.4
v 0.1 1 0.4
v 0.1 1.1 0.4
v 0 0.8 -0.4
v 0 0.9 -0.4
v 0 1.8 -0.4
v 0 1.9 -0.4
v 0.1 0.8 -0.4
v 0.1 0.9 -0.4
v 0.1 1.8 -0.4
v 0.1 1.9 -0.4
v 0 0.9 -0.6
v 0 1.1 -0.6
v 0 1.6 -0.6
v 0 1.8 -0.6
v 0.1 0.9 -0.6
v 0.1 1.1 -0.6
v 0.1 1.6 -0.6
v 0.1 1.8 -0.6
v 0 1.1 -0.7
v 0 1.6 -0.7
v 0.1 1.1 -0.7
v 0.1 1.6 -0.7
v 0 0 0.5
v 0.1 0 0.5
v 0 0 0.4
v 0.1 0 0.4
v 0 0.8 0.1
v 0.1 0.8 0.1
v 0 0.8 -0.4
v 0.1 0.8 -0.4
v 0 0.9 0.3
v 0.1 0.9 0.3
v 0 0.9 0.1
v 0.1 0.9 0.1
v 0 0.9 -0.4
v 0.1 0.9 -0.4
v 0 0.9 -0.6
v 0.1 0.9 -0.6
v 0 1.1 0.4
v 0.1 1.1 0.4
v 0 1.1 0.3
v 0.1 1.1 0.3
v 0 1.1 -0.6
v 0.1 1.1 -0.6
v 0 1.1 -0.7
v 0.1 1.1 -0.7
v 0 1.2 0.6
v 0.1 1.2 0.6
v 0 1.2 0.5
v 0.1 1.2 0.5
v 0 1.4 0.5
v 0.1 1.4 0.5
v 0 1.4 0.4
v 0.1 1.4 0.4
v 0 1.3 0.5
v 0.1 1.3 0.5
v 0 1.3 0.4
v 0.1 1.3 0.4
v 0 1.5 0.6
v 0.1 1.5 0.6
v 0 1.5 0.4
v 0.1 1.5 0.4
v 0 1.6 0.4
v 0.1 1.6 0.4
v 0 1.6 0.3
v 0.1 1.6 0.3
v 0 1.6 -0.6
v 0.1 1.6 -0.6
v 0 1.6 -0.7
v 0.1 1.6 -0.7
v 0 1.8 0.3
v 0.1 1.8 0.3
v 0 1.8 0.1
v 0.1 1.8 0.1
v 0 1.8 -0.4
v 0.1 1.8 -0.4
v 0 1.8 -0.6
v 0.1 1.8 -0.6
v 0 1.9 0.1
v 0.1 1.9 0.1
v 0 1.9 -0.4
v 0.1 1.9 -0.4

# faces
f 3/5/1 2/5/1 1/5/1
f 4/5/1 2/5/1 3/5/1
f 5/3/1 4/3/1 3/3/1
f 6/3/1 4/3/1 5/3/1
f 7/5/1 6/5/1 5/5/1
f 8/5/1 6/5/1 7/5/1
f 9/3/1 8/3/1 7/3/1
f 10/3/1 8/3/1 9/3/1
f 14/4/1 12/4/1 11/4/1
f 15/4/1 12/4/1 14/4/1
f 17/5/1 10/5/1 9/5/1
f 18/5/1 10/5/1 17/5/1
f 19/4/1 14/4/1 13/4/1
f 20/2/1 15/2/1 14/2/1
f 20/4/1 14/4/1 19/4/1
f 21/4/1 16/4/1 15/4/1
f 21/2/1 15/2/1 20/2/1
f 22/4/1 16/4/1 21/4/1
f 23/3/1 18/3/1 17/3/1
f 24/4/1 19/4/1 13/4/1
f 25/2/1 20/2/1 19/2/1
f 25/2/1 21/2/1 20/2/1
f 25/4/1 19/4/1 24/4/1
f 25/2/1 22/2/1 21/2/1
f 26/4/1 16/4/1 22/4/1
f 26/2/1 22/2/1 25/2/1
f 27/4/1 16/4/1 26/4/1
f 30/3/1 23/3/1 17/3/1
f 31/4/1 24/4/1 23/4/1
f 31/3/1 23/3/1 30/3/1
f 32/4/1 30/4/1 29/4/1
f 32/4/1 31/4/1 30/4/1
f 33/4/1 24/4/1 31/4/1
f 33/4/1 31/4/1 32/4/1
f 34/2/1 25/2/1 24/2/1
f 34/2/1 26/2/1 25/2/1
f 34/2/1 27/2/1 26/2/1
f 35/2/1 27/2/1 34/2/1
f 36/4/1 32/4/1 29/4/1
f 37/4/1 24/4/1 33/4/1
f 38/4/1 36/4/1 29/4/1
f 38/4/1 37/4/1 36/4/1
f 39/4/1 24/4/1 37/4/1
f 39/4/1 37/4/1 38/4/1
f 40/2/1 34/2/1 24/2/1
f 41/1/1 35/1/1 34/1/1
f 41/2/1 34/2/1 40/2/1
f 42/2/1 27/2/1 35/2/1
f 42/1/1 35/1/1 41/1/1
f 43/4/1 24/4/1 39/4/1
f 44/2/1 40/2/1 24/2/1
f 44/4/1 24/4/1 43/4/1
f 45/2/1 40/2/1 44/2/1
f 46/2/1 40/2/1 45/2/1
f 47/1/1 41/1/1 40/1/1
f 47/2/1 40/2/1 46/2/1
f 48/2/1 42/2/1 41/2/1
f 48/1/1 41/1/1 47/1/1
f 49/2/1 27/2/1 42/2/1
f 49/2/1 42/2/1 48/2/1
f 50/4/1 28/4/1 27/4/1
f 50/2/1 27/2/1 49/2/1
f 51/4/1 28/4/1 50/4/1
f 52/2/1 46/2/1 45/2/1
f 52/4/1 45/4/1 44/4/1
f 53/2/1 46/2/1 52/2/1
f 54/1/1 47/1/1 46/1/1
f 54/2/1 46/2/1 53/2/1
f 55/2/1 49/2/1 48/2/1
f 55/1/1 47/1/1 54/1/1
f 55/2/1 48/2/1 47/2/1
f 56/2/1 49/2/1 55/2/1
f 57/4/1 50/4/1 49/4/1
f 57/2/1 49/2/1 56/2/1
f 58/4/1 52/4/1 44/4/1
f 58/4/1 53/4/1 52/4/1
f 59/2/1 54/2/1 53/2/1
f 59/4/1 53/4/1 58/4/1
f 59/2/1 56/2/1 55/2/1
f 59/2/1 55/2/1 54/2/1
f 60/4/1 57/4/1 56/4/1
f 60/2/1 56/2/1 59/2/1
f 61/4/1 50/4/1 57/4/1
f 61/4/1 57/4/1 60/4/1
f 62/4/1 60/4/1 59/4/1
f 63/4/1 60/4/1 62/4/1
f 64/5/2 65/5/2 66/5/2
f 66/5/2 65/5/2 67/5/2
f 66/3/2 67/3/2 68/3/2
f 68/3/2 67/3/2 69/3/2
f 68/5/2 69/5/2 70/5/2
f 70/5/2 69/5/2 71/5/2
f 70/3/2 71/3/2 72/3/2
f 72/3/2 71/3/2 73/3/2
f 74/4/2 75/4/2 77/4/2
f 77/4/2 75/4/2 78/4/2
f 72/5/2 73/5/2 80/5/2
f 80/5/2 73/5/2 81/5/2
f 76/4/2 77/4/2 82/4/2
f 77/2/2 78/2/2 83/2/2
f 82/4/2 77/4/2 83/4/2
f 78/4/2 79/4/2 84/4/2
f 83/2/2 78/2/2 84/2/2
f 84/4/2 79/4/2 85/4/2
f 80/3/2 81/3/2 86/3/2
f 76/4/2 82/4/2 87/4/2
f 82/2/2 83/2/2 88/2/2
f 83/2/2 84/2/2 88/2/2
f 87/4/2 82/4/2 88/4/2
f 84/2/2 85/2/2 88/2/2
f 85/4/2 79/4/2 89/4/2
f 88/2/2 85/2/2 89/2/2
f 89/4/2 79/4/2 90/4/2
f 80/3/2 86/3/2 93/3/2
f 86/4/2 87/4/2 94/4/2
f 93/3/2 86/3/2 94/3/2
f 92/4/2 93/4/2 95/4/2
f 93/4/2 94/4/2 95/4/2
f 94/4/2 87/4/2 96/4/2
f 95/4/2 94/4/2 96/4/2
f 87/2/2 88/2/2 97/2/2
f 88/2/2 89/2/2 97/2/2
f 89/2/2 90/2/2 97/2/2
f 97/2/2 90/2/2 98/2/2
f 92/4/2 95/4/2 99/4/2
f 96/4/2 87/4/2 100/4/2
f 92/4/2 99/4/2 101/4/2
f 99/4/2 100/4/2 101/4/2
f 100/4/2 87/4/2 102/4/2
f 101/4/2 100/4/2 102/4/2
f 87/2/2 97/2/2 103/2/2
f 97/1/2 98/1/2 104/1/2
f 103/2/2 97/2/2 104/2/2
f 98/2/2 90/2/2 105/2/2
f 104/1/2 98/1/2 105/1/2
f 102/4/2 87/4/2 106/4/2
f 87/2/2 103/2/2 107/2/2
f 106/4/2 87/4/2 107/4/2
f 107/2/2 103/2/2 108/2/2
f 108/2/2 103/2/2 109/2/2
f 103/1/2 104/1/2 110/1/2
f 109/2/2 103/2/2 110/2/2
f 104/2/2 105/2/2 111/2/2
f 110/1/2 104/1/2 111/1/2
f 105/2/2 90/2/2 112/2/2
f 111/2/2 105/2/2 112/2/2
f 90/4/2 91/4/2 113/4/2
f 112/2/2 90/2/2 113/2/2
f 113/4/2 91/4/2 114/4/2
f 108/2/2 109/2/2 115/2/2
f 107/4/2 108/4/2 115/4/2
f 115/2/2 109/2/2 116/2/2
f 109/1/2 110/1/2 117/1/2
f 116/2/2 109/2/2 117/2/2
f 111/2/2 112/2/2 118/2/2
f 117/1/2 110/1/2 118/1/2
f 110/2/2 111/2/2 118/2/2
f 118/2/2 112/2/2 119/2/2
f 112/4/2 113/4/2 120/4/2
f 119/2/2 112/2/2 120/2/2
f 107/4/2 115/4/2 121/4/2
f 115/4/2 116/4/2 121/4/2
f 116/2/2 117/2/2 122/2/2
f 121/4/2 116/4/2 122/4/2
f 118/2/2 119/2/2 122/2/2
f 117/2/2 118/2/2 122/2/2
f 119/4/2 120/4/2 123/4/2
f 122/2/2 119/2/2 123/2/2
f 120/4/2 113/4/2 124/4/2
f 123/4/2 120/4/2 124/4/2
f 122/4/2 123/4/2 125/4/2
f 125/4/2 123/4/2 126/4/2
f 129/4/3 128/4/3 127/4/3
f 130/4/3 128/4/3 129/4/3
f 138/5/3 132/5/3 131/5/3
f 139/3/3 133/3/3 132/3/3
f 139/5/3 132/5/3 138/5/3
f 140/5/3 134/5/3 133/5/3
f 140/3/3 133/3/3 139/3/3
f 141/3/3 135/3/3 134/3/3
f 141/5/3 134/5/3 140/5/3
f 142/5/3 136/5/3 135/5/3
f 142/3/3 135/3/3 141/3/3
f 143/3/3 137/3/3 136/3/3
f 143/5/3 136/5/3 142/5/3
f 144/3/3 137/3/3 143/3/3
f 149/4/3 146/4/3 145/4/3
f 150/4/3 146/4/3 149/4/3
f 151/4/3 148/4/3 147/4/3
f 152/4/3 148/4/3 151/4/3
f 157/4/3 154/4/3 153/4/3
f 158/4/3 154/4/3 157/4/3
f 159/4/3 156/4/3 155/4/3
f 160/4/3 156/4/3 159/4/3
f 165/4/3 162/4/3 161/4/3
f 166/4/3 162/4/3 165/4/3
f 167/4/3 164/4/3 163/4/3
f 168/4/3 164/4/3 167/4/3
f 169/4/4 170/4/4 171/4/4
f 171/4/4 170/4/4 172/4/4
f 173/5/4 174/5/4 180/5/4
f 174/3/4 175/3/4 181/3/4
f 180/5/4 174/5/4 181/5/4
f 175/5/4 176/5/4 182/5/4
f 181/3/4 175/3/4 182/3/4
f 176/3/4 177/3/4 183/3/4
f 182/5/4 176/5/4 183/5/4
f 177/5/4 178/5/4 184/5/4
f 183/3/4 177/3/4 184/3/4
f 178/3/4 179/3/4 185/3/4
f 184/5/4 178/5/4 185/5/4
f 185/3/4 179/3/4 186/3/4
f 187/4/4 188/4/4 191/4/4
f 191/4/4 188/4/4 192/4/4
f 189/4/4 190/4/4 193/4/4
f 193/4/4 190/4/4 194/4/4
f 195/4/4 196/4/4 199/4/4
f 199/4/4 196/4/4 200/4/4
f 197/4/4 198/4/4 201/4/4
f 201/4/4 198/4/4 202/4/4
f 203/4/4 204/4/4 205/4/4
f 205/4/4 204/4/4 206/4/4
f 209/5/5 208/5/5 207/5/5
f 210/5/5 208/5/5 209/5/5
f 213/4/5 212/4/5 211/4/5
f 214/4/5 212/4/5 213/4/5
f 217/4/5 216/4/5 215/4/5
f 218/4/5 216/4/5 217/4/5
f 221/4/5 220/4/5 219/4/5
f 222/4/5 220/4/5 221/4/5
f 225/4/5 224/4/5 223/4/5
f 226/4/5 224/4/5 225/4/5
f 229/4/5 228/4/5 227/4/5
f 230/4/5 228/4/5 229/4/5
f 233/4/5 232/4/5 231/4/5
f 234/4/5 232/4/5 233/4/5
f 237/4/5 236/4/5 235/4/5
f 238/4/5 236/4/5 237/4/5
f 239/4/6 240/4/6 241/4/6
f 241/4/6 240/4/6 242/4/6
f 243/4/6 244/4/6 245/4/6
f 245/4/6 244/4/6 246/4/6
f 247/4/6 248/4/6 249/4/6
f 249/4/6 248/4/6 250/4/6
f 251/4/6 252/4/6 253/4/6
f 253/4/6 252/4/6 254/4/6
f 255/4/6 256/4/6 257/4/6
f 257/4/6 256/4/6 258/4/6
f 259/4/6 260/4/6 261/4/6
f 261/4/6 260/4/6 262/4/6
f 263/4/6 264/4/6 265/4/6
f 265/4/6 264/4/6 266/4/6
