# MagicaVoxel @ Ephtracy

# group
o 

# material
mtllib model-3.mtl
usemtl palette

# normals
vn 0 0 1
vn 0 0 -1
vn 1 0 0
vn -1 0 0
vn 0 -1 0
vn 0 1 0

# texcoords
vt 0.0292969 0.5
vt 0.107422 0.5
vt 0.111328 0.5
vt 0.212891 0.5

# verts
v 0.5 1.5 1.3
v -0.5 1.5 1.3
v 0.5 2.1 1.3
v 0.3 2.1 1.3
v 0.1 2.1 1.3
v -0.1 2.1 1.3
v -0.3 2.1 1.3
v -0.5 2.1 1.3
v 0.3 2.2 1.3
v 0.1 2.2 1.3
v -0.1 2.2 1.3
v -0.3 2.2 1.3
v 0.6 1.5 1.2
v 0.5 1.5 1.2
v -0.5 1.5 1.2
v -0.6 1.5 1.2
v 0.6 2.1 1.2
v 0.5 2.1 1.2
v 0.3 2.1 1.2
v 0.1 2.1 1.2
v -0.1 2.1 1.2
v -0.3 2.1 1.2
v -0.5 2.1 1.2
v -0.6 2.1 1.2
v 0.5 2.2 1.2
v 0.3 2.2 1.2
v 0.1 2.2 1.2
v -0.1 2.2 1.2
v -0.3 2.2 1.2
v -0.5 2.2 1.2
v 0.5 0.7 1.1
v -0.5 0.7 1.1
v 0.5 0.8 1.1
v -0.5 0.8 1.1
v 0.4 0.9 1.1
v 0.1 0.9 1.1
v -0.1 0.9 1.1
v -0.4 0.9 1.1
v 0.4 1 1.1
v 0.3 1 1.1
v 0.2 1 1.1
v 0.1 1 1.1
v -0.1 1 1.1
v -0.2 1 1.1
v -0.3 1 1.1
v -0.4 1 1.1
v 0.4 1.1 1.1
v 0.3 1.1 1.1
v 0.2 1.1 1.1
v 0.1 1.1 1.1
v -0.1 1.1 1.1
v -0.2 1.1 1.1
v -0.3 1.1 1.1
v -0.4 1.1 1.1
v 0.4 1.2 1.1
v 0.3 1.2 1.1
v 0.2 1.2 1.1
v 0.1 1.2 1.1
v -0.1 1.2 1.1
v -0.2 1.2 1.1
v -0.3 1.2 1.1
v -0.4 1.2 1.1
v 0.3 1.3 1.1
v 0.2 1.3 1.1
v -0.2 1.3 1.1
v -0.3 1.3 1.1
v 0.3 1.4 1.1
v 0.2 1.4 1.1
v -0.2 1.4 1.1
v -0.3 1.4 1.1
v 0.5 1.5 1.1
v -0.5 1.5 1.1
v 0.6 0.7 1
v 0.5 0.7 1
v -0.5 0.7 1
v -0.6 0.7 1
v 0.6 0.8 1
v 0.5 0.8 1
v -0.5 0.8 1
v -0.6 0.8 1
v 0.6 1.5 1
v 0.5 1.5 1
v -0.5 1.5 1
v -0.6 1.5 1
v 0.6 1.5 0.8
v 0.5 1.5 0.8
v -0.5 1.5 0.8
v -0.6 1.5 0.8
v 0.6 1.9 0.8
v 0.5 1.9 0.8
v -0.5 1.9 0.8
v -0.6 1.9 0.8
v 0.6 1.9 0.6
v -0.6 1.9 0.6
v 0.6 2.1 0.6
v 0.5 2.1 0.6
v -0.5 2.1 0.6
v -0.6 2.1 0.6
v 0.5 2.2 0.6
v -0.5 2.2 0.6
v 0.7 1.2 0.3
v 0.5 1.2 0.3
v 0.6 1.3 0.3
v 0.5 1.3 0.3
v -0.5 1.5 0.3
v -0.6 1.5 0.3
v 0.7 1.7 0.3
v 0.6 1.7 0.3
v -0.5 1.8 0.3
v -0.6 1.8 0.3
v 0.6 1.7 0.1
v 0.1 1.7 0.1
v 0.6 1.8 0.1
v 0.1 1.8 0.1
v 0.7 1.2 -0.0999999
v 0.5 1.2 -0.0999999
v 0.6 1.3 -0.0999999
v 0.5 1.3 -0.0999999
v -0.5 1.5 -0.0999999
v -0.6 1.5 -0.0999999
v 0.7 1.7 -0.0999999
v 0.6 1.7 -0.0999999
v -0.5 1.8 -0.0999999
v -0.6 1.8 -0.0999999
v 0.6 1.7 -0.3
v 0.1 1.7 -0.3
v 0.6 1.8 -0.3
v 0.1 1.8 -0.3
v 0.6 0.7 -0.4
v 0.5 0.7 -0.4
v 0.6 1.3 -0.4
v 0.5 1.3 -0.4
v -0.5 1.5 -0.4
v -0.6 1.5 -0.4
v 0.6 1.8 -0.4
v 0.5 1.8 -0.4
v -0.5 1.8 -0.4
v 0.6 2.1 -0.4
v 0.5 2.1 -0.4
v -0.5 2.1 -0.4
v -0.6 2.1 -0.4
v 0.5 2.2 -0.4
v -0.5 2.2 -0.4
v 0.5 1.9 -0.8
v -0.5 1.9 -0.8
v 0.5 2.2 -0.8
v -0.5 2.2 -0.8
v 0.6 1.5 -1
v 0.5 1.5 -1
v -0.5 1.5 -1
v -0.6 1.5 -1
v 0.6 2.1 -1
v 0.5 2.1 -1
v -0.5 2.1 -1
v -0.6 2.1 -1
v 0.6 1.5 1
v 0.5 1.5 1
v -0.5 1.5 1
v -0.6 1.5 1
v 0.6 2.1 1
v 0.5 2.1 1
v -0.5 2.1 1
v -0.6 2.1 1
v 0.5 1.9 0.8
v -0.5 1.9 0.8
v 0.5 2.2 0.8
v -0.5 2.2 0.8
v 0.6 0.7 0.4
v 0.5 0.7 0.4
v 0.6 1.3 0.4
v 0.5 1.3 0.4
v -0.5 1.5 0.4
v -0.6 1.5 0.4
v 0.6 1.8 0.4
v 0.5 1.8 0.4
v -0.5 1.8 0.4
v 0.6 2.1 0.4
v 0.5 2.1 0.4
v -0.5 2.1 0.4
v -0.6 2.1 0.4
v 0.5 2.2 0.4
v -0.5 2.2 0.4
v 0.6 1.7 0.3
v 0.1 1.7 0.3
v 0.6 1.8 0.3
v 0.1 1.8 0.3
v 0.7 1.2 0.1
v 0.5 1.2 0.1
v 0.6 1.3 0.1
v 0.5 1.3 0.1
v -0.5 1.5 0.1
v -0.6 1.5 0.1
v 0.7 1.7 0.1
v 0.6 1.7 0.1
v -0.5 1.8 0.1
v -0.6 1.8 0.1
v 0.6 1.7 -0.0999999
v 0.1 1.7 -0.0999999
v 0.6 1.8 -0.0999999
v 0.1 1.8 -0.0999999
v 0.7 1.2 -0.3
v 0.5 1.2 -0.3
v 0.6 1.3 -0.3
v 0.5 1.3 -0.3
v -0.5 1.5 -0.3
v -0.6 1.5 -0.3
v 0.7 1.7 -0.3
v 0.6 1.7 -0.3
v -0.5 1.8 -0.3
v -0.6 1.8 -0.3
v 0.6 1.9 -0.6
v -0.6 1.9 -0.6
v 0.6 2.1 -0.6
v 0.5 2.1 -0.6
v -0.5 2.1 -0.6
v -0.6 2.1 -0.6
v 0.5 2.2 -0.6
v -0.5 2.2 -0.6
v 0.6 1.5 -0.8
v 0.5 1.5 -0.8
v -0.5 1.5 -0.8
v -0.6 1.5 -0.8
v 0.6 1.9 -0.8
v 0.5 1.9 -0.8
v -0.5 1.9 -0.8
v -0.6 1.9 -0.8
v 0.6 0.7 -1
v 0.5 0.7 -1
v -0.5 0.7 -1
v -0.6 0.7 -1
v 0.6 0.8 -1
v 0.5 0.8 -1
v -0.5 0.8 -1
v -0.6 0.8 -1
v 0.6 1.5 -1
v 0.5 1.5 -1
v -0.5 1.5 -1
v -0.6 1.5 -1
v 0.5 0.7 -1.1
v -0.5 0.7 -1.1
v 0.5 0.8 -1.1
v -0.5 0.8 -1.1
v 0.4 0.9 -1.1
v 0.1 0.9 -1.1
v -0.1 0.9 -1.1
v -0.4 0.9 -1.1
v 0.4 1 -1.1
v 0.3 1 -1.1
v 0.2 1 -1.1
v 0.1 1 -1.1
v -0.1 1 -1.1
v -0.2 1 -1.1
v -0.3 1 -1.1
v -0.4 1 -1.1
v 0.4 1.1 -1.1
v 0.3 1.1 -1.1
v 0.2 1.1 -1.1
v 0.1 1.1 -1.1
v -0.1 1.1 -1.1
v -0.2 1.1 -1.1
v -0.3 1.1 -1.1
v -0.4 1.1 -1.1
v 0.4 1.2 -1.1
v 0.3 1.2 -1.1
v 0.2 1.2 -1.1
v 0.1 1.2 -1.1
v -0.1 1.2 -1.1
v -0.2 1.2 -1.1
v -0.3 1.2 -1.1
v -0.4 1.2 -1.1
v 0.3 1.3 -1.1
v 0.2 1.3 -1.1
v -0.2 1.3 -1.1
v -0.3 1.3 -1.1
v 0.3 1.4 -1.1
v 0.2 1.4 -1.1
v -0.2 1.4 -1.1
v -0.3 1.4 -1.1
v 0.5 1.5 -1.1
v -0.5 1.5 -1.1
v 0.6 1.5 -1.2
v 0.5 1.5 -1.2
v -0.5 1.5 -1.2
v -0.6 1.5 -1.2
v 0.6 2.1 -1.2
v 0.5 2.1 -1.2
v 0.3 2.1 -1.2
v 0.1 2.1 -1.2
v -0.1 2.1 -1.2
v -0.3 2.1 -1.2
v -0.5 2.1 -1.2
v -0.6 2.1 -1.2
v 0.5 2.2 -1.2
v 0.3 2.2 -1.2
v 0.1 2.2 -1.2
v -0.1 2.2 -1.2
v -0.3 2.2 -1.2
v -0.5 2.2 -1.2
v 0.5 1.5 -1.3
v -0.5 1.5 -1.3
v 0.5 2.1 -1.3
v 0.3 2.1 -1.3
v 0.1 2.1 -1.3
v -0.1 2.1 -1.3
v -0.3 2.1 -1.3
v -0.5 2.1 -1.3
v 0.3 2.2 -1.3
v 0.1 2.2 -1.3
v -0.1 2.2 -1.3
v -0.3 2.2 -1.3
v 0.7 1.2 0.3
v 0.7 1.7 0.3
v 0.7 1.2 0.1
v 0.7 1.7 0.1
v 0.7 1.2 -0.0999999
v 0.7 1.7 -0.0999999
v 0.7 1.2 -0.3
v 0.7 1.7 -0.3
v 0.6 1.5 1.2
v 0.6 2.1 1.2
v 0.6 0.7 1
v 0.6 0.8 1
v 0.6 1.5 1
v 0.6 2.1 1
v 0.6 0.9 0.9
v 0.6 1 0.9
v 0.6 1.1 0.9
v 0.6 1.2 0.9
v 0.6 1 0.8
v 0.6 1.1 0.8
v 0.6 1.2 0.8
v 0.6 1.3 0.8
v 0.6 1.4 0.8
v 0.6 1.5 0.8
v 0.6 1.9 0.8
v 0.6 1 0.7
v 0.6 1.1 0.7
v 0.6 1.2 0.7
v 0.6 1.3 0.7
v 0.6 1.4 0.7
v 0.6 0.9 0.6
v 0.6 1 0.6
v 0.6 1.1 0.6
v 0.6 1.2 0.6
v 0.6 1.5 0.6
v 0.6 1.9 0.6
v 0.6 2.1 0.6
v 0.6 0.8 0.5
v 0.6 2.1 0.5
v 0.6 0.7 0.4
v 0.6 1.3 0.4
v 0.6 1.8 0.4
v 0.6 2.1 0.4
v 0.6 1.3 0.3
v 0.6 1.7 0.3
v 0.6 1.8 0.3
v 0.6 1.3 0.1
v 0.6 1.7 0.1
v 0.6 1.8 0.1
v 0.6 1.3 -0.0999999
v 0.6 1.7 -0.0999999
v 0.6 1.8 -0.0999999
v 0.6 1.3 -0.3
v 0.6 1.7 -0.3
v 0.6 1.8 -0.3
v 0.6 0.7 -0.4
v 0.6 1.3 -0.4
v 0.6 1.8 -0.4
v 0.6 2.1 -0.4
v 0.6 0.8 -0.5
v 0.6 2.1 -0.5
v 0.6 0.9 -0.6
v 0.6 1 -0.6
v 0.6 1.1 -0.6
v 0.6 1.2 -0.6
v 0.6 1.5 -0.6
v 0.6 1.9 -0.6
v 0.6 2.1 -0.6
v 0.6 1 -0.7
v 0.6 1.1 -0.7
v 0.6 1.2 -0.7
v 0.6 1.3 -0.7
v 0.6 1.4 -0.7
v 0.6 1 -0.8
v 0.6 1.1 -0.8
v 0.6 1.2 -0.8
v 0.6 1.3 -0.8
v 0.6 1.4 -0.8
v 0.6 1.5 -0.8
v 0.6 1.9 -0.8
v 0.6 0.9 -0.9
v 0.6 1 -0.9
v 0.6 1.1 -0.9
v 0.6 1.2 -0.9
v 0.6 0.7 -1
v 0.6 0.8 -1
v 0.6 1.5 -1
v 0.6 2.1 -1
v 0.6 1.5 -1.2
v 0.6 2.1 -1.2
v 0.5 1.5 1.3
v 0.5 2.1 1.3
v 0.5 1.5 1.2
v 0.5 2.1 1.2
v 0.5 2.2 1.2
v 0.5 0.7 1.1
v 0.5 0.8 1.1
v 0.5 1.5 1.1
v 0.5 0.7 1
v 0.5 0.8 1
v 0.5 1.5 1
v 0.5 2.1 1
v 0.5 2.2 1
v 0.5 1.5 0.8
v 0.5 1.9 0.8
v 0.5 2.2 0.8
v 0.5 2.1 0.6
v 0.5 2.2 0.6
v 0.5 2.1 0.5
v 0.5 0.7 0.4
v 0.5 1.3 0.4
v 0.5 2.1 0.4
v 0.5 2.2 0.4
v 0.5 1.2 0.3
v 0.5 1.3 0.3
v 0.5 1.2 0.1
v 0.5 1.3 0.1
v 0.5 1.2 -0.0999999
v 0.5 1.3 -0.0999999
v 0.5 1.2 -0.3
v 0.5 1.3 -0.3
v 0.5 0.7 -0.4
v 0.5 1.3 -0.4
v 0.5 2.1 -0.4
v 0.5 2.2 -0.4
v 0.5 2.1 -0.5
v 0.5 2.1 -0.6
v 0.5 2.2 -0.6
v 0.5 1.5 -0.8
v 0.5 1.9 -0.8
v 0.5 2.2 -0.8
v 0.5 0.7 -1
v 0.5 0.8 -1
v 0.5 1.5 -1
v 0.5 2.1 -1
v 0.5 2.2 -1
v 0.5 0.7 -1.1
v 0.5 0.8 -1.1
v 0.5 1.5 -1.1
v 0.5 1.5 -1.2
v 0.5 2.1 -1.2
v 0.5 2.2 -1.2
v 0.5 1.5 -1.3
v 0.5 2.1 -1.3
v 0.3 2.1 1.3
v 0.3 2.2 1.3
v 0.3 2.1 1.2
v 0.3 2.2 1.2
v 0.3 2.1 -1.2
v 0.3 2.2 -1.2
v 0.3 2.1 -1.3
v 0.3 2.2 -1.3
v 0.1 1.7 0.3
v 0.1 1.8 0.3
v 0.1 1.7 0.1
v 0.1 1.8 0.1
v 0.1 1.7 -0.0999999
v 0.1 1.8 -0.0999999
v 0.1 1.7 -0.3
v 0.1 1.8 -0.3
v -0.1 2.1 1.3
v -0.1 2.2 1.3
v -0.1 2.1 1.2
v -0.1 2.2 1.2
v -0.1 2.1 -1.2
v -0.1 2.2 -1.2
v -0.1 2.1 -1.3
v -0.1 2.2 -1.3
v 0.1 2.1 1.3
v 0.1 2.2 1.3
v 0.1 2.1 1.2
v 0.1 2.2 1.2
v 0.1 2.1 -1.2
v 0.1 2.2 -1.2
v 0.1 2.1 -1.3
v 0.1 2.2 -1.3
v -0.3 2.1 1.3
v -0.3 2.2 1.3
v -0.3 2.1 1.2
v -0.3 2.2 1.2
v -0.3 2.1 -1.2
v -0.3 2.2 -1.2
v -0.3 2.1 -1.3
v -0.3 2.2 -1.3
v -0.5 1.5 1.3
v -0.5 2.1 1.3
v -0.5 1.5 1.2
v -0.5 2.1 1.2
v -0.5 2.2 1.2
v -0.5 0.7 1.1
v -0.5 0.8 1.1
v -0.5 1.5 1.1
v -0.5 0.7 1
v -0.5 0.8 1
v -0.5 1.5 1
v -0.5 2.1 1
v -0.5 2.2 1
v -0.5 1.5 0.8
v -0.5 1.9 0.8
v -0.5 2.2 0.8
v -0.5 2.1 0.6
v -0.5 2.2 0.6
v -0.5 1.5 0.4
v -0.5 1.8 0.4
v -0.5 2.1 0.4
v -0.5 2.2 0.4
v -0.5 1.5 0.3
v -0.5 1.8 0.3
v -0.5 1.5 0.1
v -0.5 1.8 0.1
v -0.5 1.5 -0.0999999
v -0.5 1.8 -0.0999999
v -0.5 1.5 -0.3
v -0.5 1.8 -0.3
v -0.5 1.5 -0.4
v -0.5 1.8 -0.4
v -0.5 2.1 -0.4
v -0.5 2.2 -0.4
v -0.5 2.1 -0.6
v -0.5 2.2 -0.6
v -0.5 1.5 -0.8
v -0.5 1.9 -0.8
v -0.5 2.2 -0.8
v -0.5 0.7 -1
v -0.5 0.8 -1
v -0.5 1.5 -1
v -0.5 2.1 -1
v -0.5 2.2 -1
v -0.5 0.7 -1.1
v -0.5 0.8 -1.1
v -0.5 1.5 -1.1
v -0.5 1.5 -1.2
v -0.5 2.1 -1.2
v -0.5 2.2 -1.2
v -0.5 1.5 -1.3
v -0.5 2.1 -1.3
v -0.6 1.5 1.2
v -0.6 2.1 1.2
v -0.6 0.7 1
v -0.6 0.8 1
v -0.6 1.5 1
v -0.6 2.1 1
v -0.6 0.9 0.9
v -0.6 1 0.9
v -0.6 1.1 0.9
v -0.6 1.2 0.9
v -0.6 1 0.8
v -0.6 1.1 0.8
v -0.6 1.2 0.8
v -0.6 1.3 0.8
v -0.6 1.4 0.8
v -0.6 1.5 0.8
v -0.6 1.9 0.8
v -0.6 1 0.7
v -0.6 1.1 0.7
v -0.6 1.2 0.7
v -0.6 1.3 0.7
v -0.6 1.4 0.7
v -0.6 0.9 0.6
v -0.6 1 0.6
v -0.6 1.1 0.6
v -0.6 1.2 0.6
v -0.6 1.5 0.6
v -0.6 1.9 0.6
v -0.6 2.1 0.6
v -0.6 0.9 0.4
v -0.6 1 0.4
v -0.6 1.1 0.4
v -0.6 1.2 0.4
v -0.6 1.5 0.4
v -0.6 2.1 0.4
v -0.6 1 0.3
v -0.6 1.1 0.3
v -0.6 1.2 0.3
v -0.6 1.3 0.3
v -0.6 1.4 0.3
v -0.6 1.5 0.3
v -0.6 1.8 0.3
v -0.6 1 0.2
v -0.6 1.1 0.2
v -0.6 1.2 0.2
v -0.6 1.3 0.2
v -0.6 1.4 0.2
v -0.6 0.9 0.1
v -0.6 1 0.1
v -0.6 1.1 0.1
v -0.6 1.2 0.1
v -0.6 1.5 0.1
v -0.6 1.8 0.1
v -0.6 0.9 -0.0999999
v -0.6 1 -0.0999999
v -0.6 1.1 -0.0999999
v -0.6 1.2 -0.0999999
v -0.6 1.5 -0.0999999
v -0.6 1.8 -0.0999999
v -0.6 1 -0.2
v -0.6 1.1 -0.2
v -0.6 1.2 -0.2
v -0.6 1.3 -0.2
v -0.6 1.4 -0.2
v -0.6 1 -0.3
v -0.6 1.1 -0.3
v -0.6 1.2 -0.3
v -0.6 1.3 -0.3
v -0.6 1.4 -0.3
v -0.6 1.5 -0.3
v -0.6 1.8 -0.3
v -0.6 0.9 -0.4
v -0.6 1 -0.4
v -0.6 1.1 -0.4
v -0.6 1.2 -0.4
v -0.6 1.5 -0.4
v -0.6 2.1 -0.4
v -0.6 0.9 -0.6
v -0.6 1 -0.6
v -0.6 1.1 -0.6
v -0.6 1.2 -0.6
v -0.6 1.5 -0.6
v -0.6 1.9 -0.6
v -0.6 2.1 -0.6
v -0.6 1 -0.7
v -0.6 1.1 -0.7
v -0.6 1.2 -0.7
v -0.6 1.3 -0.7
v -0.6 1.4 -0.7
v -0.6 1 -0.8
v -0.6 1.1 -0.8
v -0.6 1.2 -0.8
v -0.6 1.3 -0.8
v -0.6 1.4 -0.8
v -0.6 1.5 -0.8
v -0.6 1.9 -0.8
v -0.6 0.9 -0.9
v -0.6 1 -0.9
v -0.6 1.1 -0.9
v -0.6 1.2 -0.9
v -0.6 0.7 -1
v -0.6 0.8 -1
v -0.6 1.5 -1
v -0.6 2.1 -1
v -0.6 1.5 -1.2
v -0.6 2.1 -1.2
v 0.6 0.7 1
v 0.6 0.7 0.4
v 0.6 0.7 -0.4
v 0.6 0.7 -1
v 0.5 0.7 1.1
v 0.5 0.7 1
v 0.5 0.7 0.4
v 0.5 0.7 -0.4
v 0.5 0.7 -1
v 0.5 0.7 -1.1
v -0.4 0.7 0.4
v -0.4 0.7 -0.4
v -0.5 0.7 1.1
v -0.5 0.7 1
v -0.5 0.7 -1
v -0.5 0.7 -1.1
v -0.6 0.7 1
v -0.6 0.7 -1
v 0.7 1.2 0.3
v 0.7 1.2 0.1
v 0.7 1.2 -0.0999999
v 0.7 1.2 -0.3
v 0.5 1.2 0.3
v 0.5 1.2 0.1
v 0.5 1.2 -0.0999999
v 0.5 1.2 -0.3
v 0.6 1.3 0.4
v 0.6 1.3 0.3
v 0.6 1.3 0.1
v 0.6 1.3 -0.0999999
v 0.6 1.3 -0.3
v 0.6 1.3 -0.4
v 0.5 1.3 0.4
v 0.5 1.3 0.3
v 0.5 1.3 0.1
v 0.5 1.3 -0.0999999
v 0.5 1.3 -0.3
v 0.5 1.3 -0.4
v 0.6 1.5 1.2
v 0.6 1.5 1
v 0.6 1.5 -1
v 0.6 1.5 -1.2
v 0.5 1.5 1.3
v 0.5 1.5 1.2
v 0.5 1.5 1.1
v 0.5 1.5 1
v 0.5 1.5 -1
v 0.5 1.5 -1.1
v 0.5 1.5 -1.2
v 0.5 1.5 -1.3
v -0.5 1.5 1.3
v -0.5 1.5 1.2
v -0.5 1.5 1.1
v -0.5 1.5 1
v -0.5 1.5 -1
v -0.5 1.5 -1.1
v -0.5 1.5 -1.2
v -0.5 1.5 -1.3
v -0.6 1.5 1.2
v -0.6 1.5 1
v -0.6 1.5 -1
v -0.6 1.5 -1.2
v 0.6 1.5 1
v 0.6 1.5 0.8
v 0.6 1.5 -0.8
v 0.6 1.5 -1
v 0.5 1.5 1
v 0.5 1.5 0.8
v 0.5 1.5 -0.8
v 0.5 1.5 -1
v -0.5 1.5 1
v -0.5 1.5 0.8
v -0.5 1.5 0.4
v -0.5 1.5 0.3
v -0.5 1.5 0.1
v -0.5 1.5 -0.0999999
v -0.5 1.5 -0.3
v -0.5 1.5 -0.4
v -0.5 1.5 -0.8
v -0.5 1.5 -1
v -0.6 1.5 1
v -0.6 1.5 0.8
v -0.6 1.5 0.4
v -0.6 1.5 0.3
v -0.6 1.5 0.1
v -0.6 1.5 -0.0999999
v -0.6 1.5 -0.3
v -0.6 1.5 -0.4
v -0.6 1.5 -0.8
v -0.6 1.5 -1
v 0.7 1.7 0.3
v 0.7 1.7 0.1
v 0.7 1.7 -0.0999999
v 0.7 1.7 -0.3
v 0.6 1.7 0.3
v 0.6 1.7 0.1
v 0.6 1.7 -0.0999999
v 0.6 1.7 -0.3
v 0.1 1.7 0.3
v 0.1 1.7 0.1
v 0.1 1.7 -0.0999999
v 0.1 1.7 -0.3
v 0.6 1.8 0.4
v 0.6 1.8 0.3
v 0.6 1.8 0.1
v 0.6 1.8 -0.0999999
v 0.6 1.8 -0.3
v 0.6 1.8 -0.4
v 0.5 1.8 0.4
v 0.5 1.8 -0.4
v 0.1 1.8 0.3
v 0.1 1.8 0.1
v 0.1 1.8 -0.0999999
v 0.1 1.8 -0.3
v -0.5 1.8 0.4
v -0.5 1.8 0.3
v -0.5 1.8 0.1
v -0.5 1.8 -0.0999999
v -0.5 1.8 -0.3
v -0.5 1.8 -0.4
v -0.6 1.8 0.3
v -0.6 1.8 0.1
v -0.6 1.8 -0.0999999
v -0.6 1.8 -0.3
v 0.6 1.9 0.8
v 0.6 1.9 0.6
v 0.6 1.9 -0.6
v 0.6 1.9 -0.8
v 0.5 1.9 0.8
v 0.5 1.9 -0.8
v -0.5 1.9 0.8
v -0.5 1.9 -0.8
v -0.6 1.9 0.8
v -0.6 1.9 0.6
v -0.6 1.9 -0.6
v -0.6 1.9 -0.8
v 0.6 2.1 1.2
v 0.6 2.1 1
v 0.6 2.1 0.6
v 0.6 2.1 0.5
v 0.6 2.1 0.4
v 0.6 2.1 -0.4
v 0.6 2.1 -0.5
v 0.6 2.1 -0.6
v 0.6 2.1 -1
v 0.6 2.1 -1.2
v 0.5 2.1 1.3
v 0.5 2.1 1.2
v 0.5 2.1 1
v 0.5 2.1 0.6
v 0.5 2.1 0.5
v 0.5 2.1 0.4
v 0.5 2.1 -0.4
v 0.5 2.1 -0.5
v 0.5 2.1 -0.6
v 0.5 2.1 -1
v 0.5 2.1 -1.2
v 0.5 2.1 -1.3
v 0.3 2.1 1.3
v 0.3 2.1 1.2
v 0.3 2.1 -1.2
v 0.3 2.1 -1.3
v 0.1 2.1 1.3
v 0.1 2.1 1.2
v 0.1 2.1 -1.2
v 0.1 2.1 -1.3
v -0.1 2.1 1.3
v -0.1 2.1 1.2
v -0.1 2.1 -1.2
v -0.1 2.1 -1.3
v -0.3 2.1 1.3
v -0.3 2.1 1.2
v -0.3 2.1 -1.2
v -0.3 2.1 -1.3
v -0.5 2.1 1.3
v -0.5 2.1 1.2
v -0.5 2.1 1
v -0.5 2.1 0.6
v -0.5 2.1 0.4
v -0.5 2.1 -0.4
v -0.5 2.1 -0.6
v -0.5 2.1 -1
v -0.5 2.1 -1.2
v -0.5 2.1 -1.3
v -0.6 2.1 1.2
v -0.6 2.1 1
v -0.6 2.1 0.6
v -0.6 2.1 0.4
v -0.6 2.1 -0.4
v -0.6 2.1 -0.6
v -0.6 2.1 -1
v -0.6 2.1 -1.2
v 0.5 2.2 1.2
v 0.5 2.2 1
v 0.5 2.2 0.8
v 0.5 2.2 0.6
v 0.5 2.2 0.4
v 0.5 2.2 -0.4
v 0.5 2.2 -0.6
v 0.5 2.2 -0.8
v 0.5 2.2 -1
v 0.5 2.2 -1.2
v 0.3 2.2 1.3
v 0.3 2.2 1.2
v 0.3 2.2 -1.2
v 0.3 2.2 -1.3
v 0.1 2.2 1.3
v 0.1 2.2 1.2
v 0.1 2.2 -1.2
v 0.1 2.2 -1.3
v -0.1 2.2 1.3
v -0.1 2.2 1.2
v -0.1 2.2 -1.2
v -0.1 2.2 -1.3
v -0.3 2.2 1.3
v -0.3 2.2 1.2
v -0.3 2.2 -1.2
v -0.3 2.2 -1.3
v -0.5 2.2 1.2
v -0.5 2.2 1
v -0.5 2.2 0.8
v -0.5 2.2 0.6
v -0.5 2.2 0.4
v -0.5 2.2 -0.4
v -0.5 2.2 -0.6
v -0.5 2.2 -0.8
v -0.5 2.2 -1
v -0.5 2.2 -1.2

# faces
f 3/3/1 2/3/1 1/3/1
f 4/3/1 2/3/1 3/3/1
f 5/3/1 2/3/1 4/3/1
f 6/3/1 2/3/1 5/3/1
f 7/3/1 2/3/1 6/3/1
f 8/3/1 2/3/1 7/3/1
f 9/3/1 5/3/1 4/3/1
f 10/3/1 5/3/1 9/3/1
f 11/3/1 7/3/1 6/3/1
f 12/3/1 7/3/1 11/3/1
f 17/3/1 14/3/1 13/3/1
f 18/3/1 14/3/1 17/3/1
f 23/3/1 16/3/1 15/3/1
f 24/3/1 16/3/1 23/3/1
f 25/3/1 19/3/1 18/3/1
f 26/3/1 19/3/1 25/3/1
f 27/3/1 21/3/1 20/3/1
f 28/3/1 21/3/1 27/3/1
f 29/3/1 23/3/1 22/3/1
f 30/3/1 23/3/1 29/3/1
f 33/1/1 32/1/1 31/1/1
f 34/1/1 32/1/1 33/1/1
f 35/4/1 34/4/1 33/4/1
f 36/4/1 34/4/1 35/4/1
f 37/4/1 34/4/1 36/4/1
f 38/4/1 34/4/1 37/4/1
f 39/4/1 35/4/1 33/4/1
f 39/1/1 36/1/1 35/1/1
f 40/1/1 36/1/1 39/1/1
f 41/1/1 36/1/1 40/1/1
f 42/4/1 37/4/1 36/4/1
f 42/1/1 36/1/1 41/1/1
f 43/1/1 38/1/1 37/1/1
f 43/4/1 37/4/1 42/4/1
f 44/1/1 38/1/1 43/1/1
f 45/1/1 38/1/1 44/1/1
f 46/4/1 34/4/1 38/4/1
f 46/1/1 38/1/1 45/1/1
f 47/4/1 39/4/1 33/4/1
f 47/4/1 40/4/1 39/4/1
f 48/1/1 41/1/1 40/1/1
f 48/4/1 40/4/1 47/4/1
f 49/4/1 42/4/1 41/4/1
f 49/1/1 41/1/1 48/1/1
f 49/4/1 43/4/1 42/4/1
f 49/4/1 44/4/1 43/4/1
f 50/4/1 44/4/1 49/4/1
f 51/4/1 44/4/1 50/4/1
f 52/1/1 45/1/1 44/1/1
f 52/4/1 44/4/1 51/4/1
f 53/4/1 46/4/1 45/4/1
f 53/1/1 45/1/1 52/1/1
f 54/4/1 34/4/1 46/4/1
f 54/4/1 46/4/1 53/4/1
f 55/1/1 48/1/1 47/1/1
f 55/4/1 47/4/1 33/4/1
f 56/4/1 49/4/1 48/4/1
f 56/1/1 48/1/1 55/1/1
f 57/1/1 50/1/1 49/1/1
f 57/4/1 49/4/1 56/4/1
f 58/4/1 51/4/1 50/4/1
f 58/1/1 50/1/1 57/1/1
f 59/1/1 52/1/1 51/1/1
f 59/4/1 51/4/1 58/4/1
f 60/4/1 53/4/1 52/4/1
f 60/1/1 52/1/1 59/1/1
f 61/1/1 54/1/1 53/1/1
f 61/4/1 53/4/1 60/4/1
f 62/4/1 34/4/1 54/4/1
f 62/1/1 54/1/1 61/1/1
f 63/4/1 57/4/1 56/4/1
f 63/4/1 61/4/1 60/4/1
f 63/4/1 62/4/1 61/4/1
f 63/4/1 56/4/1 55/4/1
f 63/4/1 60/4/1 59/4/1
f 63/4/1 58/4/1 57/4/1
f 63/4/1 59/4/1 58/4/1
f 64/4/1 62/4/1 63/4/1
f 65/4/1 62/4/1 64/4/1
f 66/4/1 62/4/1 65/4/1
f 67/4/1 63/4/1 55/4/1
f 67/1/1 64/1/1 63/1/1
f 68/4/1 65/4/1 64/4/1
f 68/1/1 64/1/1 67/1/1
f 69/1/1 66/1/1 65/1/1
f 69/4/1 65/4/1 68/4/1
f 70/4/1 62/4/1 66/4/1
f 70/1/1 66/1/1 69/1/1
f 71/4/1 55/4/1 33/4/1
f 71/4/1 69/4/1 68/4/1
f 71/4/1 70/4/1 69/4/1
f 71/4/1 67/4/1 55/4/1
f 71/4/1 68/4/1 67/4/1
f 72/4/1 34/4/1 62/4/1
f 72/4/1 70/4/1 71/4/1
f 72/4/1 62/4/1 70/4/1
f 77/1/1 74/1/1 73/1/1
f 78/1/1 74/1/1 77/1/1
f 79/1/1 76/1/1 75/1/1
f 80/1/1 76/1/1 79/1/1
f 81/4/1 78/4/1 77/4/1
f 82/4/1 78/4/1 81/4/1
f 83/4/1 80/4/1 79/4/1
f 84/4/1 80/4/1 83/4/1
f 89/3/1 86/3/1 85/3/1
f 90/3/1 86/3/1 89/3/1
f 91/3/1 88/3/1 87/3/1
f 92/3/1 88/3/1 91/3/1
f 95/4/1 94/4/1 93/4/1
f 96/4/1 94/4/1 95/4/1
f 97/4/1 94/4/1 96/4/1
f 98/4/1 94/4/1 97/4/1
f 99/4/1 97/4/1 96/4/1
f 100/4/1 97/4/1 99/4/1
f 103/3/1 102/3/1 101/3/1
f 104/3/1 102/3/1 103/3/1
f 107/3/1 103/3/1 101/3/1
f 108/3/1 103/3/1 107/3/1
f 109/3/1 106/3/1 105/3/1
f 110/3/1 106/3/1 109/3/1
f 113/2/1 112/2/1 111/2/1
f 114/2/1 112/2/1 113/2/1
f 117/3/1 116/3/1 115/3/1
f 118/3/1 116/3/1 117/3/1
f 121/3/1 117/3/1 115/3/1
f 122/3/1 117/3/1 121/3/1
f 123/3/1 120/3/1 119/3/1
f 124/3/1 120/3/1 123/3/1
f 127/2/1 126/2/1 125/2/1
f 128/2/1 126/2/1 127/2/1
f 131/1/1 130/1/1 129/1/1
f 132/1/1 130/1/1 131/1/1
f 137/4/1 134/4/1 133/4/1
f 138/1/1 136/1/1 135/1/1
f 139/4/1 137/4/1 136/4/1
f 139/1/1 136/1/1 138/1/1
f 140/4/1 134/4/1 137/4/1
f 140/4/1 137/4/1 139/4/1
f 141/4/1 134/4/1 140/4/1
f 142/4/1 140/4/1 139/4/1
f 143/4/1 140/4/1 142/4/1
f 146/2/1 145/2/1 144/2/1
f 147/2/1 145/2/1 146/2/1
f 152/3/1 149/3/1 148/3/1
f 153/3/1 149/3/1 152/3/1
f 154/3/1 151/3/1 150/3/1
f 155/3/1 151/3/1 154/3/1
f 156/3/2 157/3/2 160/3/2
f 160/3/2 157/3/2 161/3/2
f 158/3/2 159/3/2 162/3/2
f 162/3/2 159/3/2 163/3/2
f 164/2/2 165/2/2 166/2/2
f 166/2/2 165/2/2 167/2/2
f 168/1/2 169/1/2 170/1/2
f 170/1/2 169/1/2 171/1/2
f 172/4/2 173/4/2 176/4/2
f 174/1/2 175/1/2 177/1/2
f 175/4/2 176/4/2 178/4/2
f 177/1/2 175/1/2 178/1/2
f 176/4/2 173/4/2 179/4/2
f 178/4/2 176/4/2 179/4/2
f 179/4/2 173/4/2 180/4/2
f 178/4/2 179/4/2 181/4/2
f 181/4/2 179/4/2 182/4/2
f 183/2/2 184/2/2 185/2/2
f 185/2/2 184/2/2 186/2/2
f 187/3/2 188/3/2 189/3/2
f 189/3/2 188/3/2 190/3/2
f 187/3/2 189/3/2 193/3/2
f 193/3/2 189/3/2 194/3/2
f 191/3/2 192/3/2 195/3/2
f 195/3/2 192/3/2 196/3/2
f 197/2/2 198/2/2 199/2/2
f 199/2/2 198/2/2 200/2/2
f 201/3/2 202/3/2 203/3/2
f 203/3/2 202/3/2 204/3/2
f 201/3/2 203/3/2 207/3/2
f 207/3/2 203/3/2 208/3/2
f 205/3/2 206/3/2 209/3/2
f 209/3/2 206/3/2 210/3/2
f 211/4/2 212/4/2 213/4/2
f 213/4/2 212/4/2 214/4/2
f 214/4/2 212/4/2 215/4/2
f 215/4/2 212/4/2 216/4/2
f 214/4/2 215/4/2 217/4/2
f 217/4/2 215/4/2 218/4/2
f 219/3/2 220/3/2 223/3/2
f 223/3/2 220/3/2 224/3/2
f 221/3/2 222/3/2 225/3/2
f 225/3/2 222/3/2 226/3/2
f 227/1/2 228/1/2 231/1/2
f 231/1/2 228/1/2 232/1/2
f 229/1/2 230/1/2 233/1/2
f 233/1/2 230/1/2 234/1/2
f 231/4/2 232/4/2 235/4/2
f 235/4/2 232/4/2 236/4/2
f 233/4/2 234/4/2 237/4/2
f 237/4/2 234/4/2 238/4/2
f 239/1/2 240/1/2 241/1/2
f 241/1/2 240/1/2 242/1/2
f 241/4/2 242/4/2 243/4/2
f 243/4/2 242/4/2 244/4/2
f 244/4/2 242/4/2 245/4/2
f 245/4/2 242/4/2 246/4/2
f 241/4/2 243/4/2 247/4/2
f 243/1/2 244/1/2 247/1/2
f 247/1/2 244/1/2 248/1/2
f 248/1/2 244/1/2 249/1/2
f 244/4/2 245/4/2 250/4/2
f 249/1/2 244/1/2 250/1/2
f 245/1/2 246/1/2 251/1/2
f 250/4/2 245/4/2 251/4/2
f 251/1/2 246/1/2 252/1/2
f 252/1/2 246/1/2 253/1/2
f 246/4/2 242/4/2 254/4/2
f 253/1/2 246/1/2 254/1/2
f 241/4/2 247/4/2 255/4/2
f 247/4/2 248/4/2 255/4/2
f 248/1/2 249/1/2 256/1/2
f 255/4/2 248/4/2 256/4/2
f 249/4/2 250/4/2 257/4/2
f 256/1/2 249/1/2 257/1/2
f 250/4/2 251/4/2 257/4/2
f 251/4/2 252/4/2 257/4/2
f 257/4/2 252/4/2 258/4/2
f 258/4/2 252/4/2 259/4/2
f 252/1/2 253/1/2 260/1/2
f 259/4/2 252/4/2 260/4/2
f 253/4/2 254/4/2 261/4/2
f 260/1/2 253/1/2 261/1/2
f 254/4/2 242/4/2 262/4/2
f 261/4/2 254/4/2 262/4/2
f 255/1/2 256/1/2 263/1/2
f 241/4/2 255/4/2 263/4/2
f 256/4/2 257/4/2 264/4/2
f 263/1/2 256/1/2 264/1/2
f 257/1/2 258/1/2 265/1/2
f 264/4/2 257/4/2 265/4/2
f 258/4/2 259/4/2 266/4/2
f 265/1/2 258/1/2 266/1/2
f 259/1/2 260/1/2 267/1/2
f 266/4/2 259/4/2 267/4/2
f 260/4/2 261/4/2 268/4/2
f 267/1/2 260/1/2 268/1/2
f 261/1/2 262/1/2 269/1/2
f 268/4/2 261/4/2 269/4/2
f 262/4/2 242/4/2 270/4/2
f 269/1/2 262/1/2 270/1/2
f 264/4/2 265/4/2 271/4/2
f 268/4/2 269/4/2 271/4/2
f 269/4/2 270/4/2 271/4/2
f 263/4/2 264/4/2 271/4/2
f 267/4/2 268/4/2 271/4/2
f 265/4/2 266/4/2 271/4/2
f 266/4/2 267/4/2 271/4/2
f 271/4/2 270/4/2 272/4/2
f 272/4/2 270/4/2 273/4/2
f 273/4/2 270/4/2 274/4/2
f 263/4/2 271/4/2 275/4/2
f 271/1/2 272/1/2 275/1/2
f 272/4/2 273/4/2 276/4/2
f 275/1/2 272/1/2 276/1/2
f 273/1/2 274/1/2 277/1/2
f 276/4/2 273/4/2 277/4/2
f 274/4/2 270/4/2 278/4/2
f 277/1/2 274/1/2 278/1/2
f 241/4/2 263/4/2 279/4/2
f 276/4/2 277/4/2 279/4/2
f 277/4/2 278/4/2 279/4/2
f 263/4/2 275/4/2 279/4/2
f 275/4/2 276/4/2 279/4/2
f 270/4/2 242/4/2 280/4/2
f 279/4/2 278/4/2 280/4/2
f 278/4/2 270/4/2 280/4/2
f 281/3/2 282/3/2 285/3/2
f 285/3/2 282/3/2 286/3/2
f 283/3/2 284/3/2 291/3/2
f 291/3/2 284/3/2 292/3/2
f 286/3/2 287/3/2 293/3/2
f 293/3/2 287/3/2 294/3/2
f 288/3/2 289/3/2 295/3/2
f 295/3/2 289/3/2 296/3/2
f 290/3/2 291/3/2 297/3/2
f 297/3/2 291/3/2 298/3/2
f 299/3/2 300/3/2 301/3/2
f 301/3/2 300/3/2 302/3/2
f 302/3/2 300/3/2 303/3/2
f 303/3/2 300/3/2 304/3/2
f 304/3/2 300/3/2 305/3/2
f 305/3/2 300/3/2 306/3/2
f 302/3/2 303/3/2 307/3/2
f 307/3/2 303/3/2 308/3/2
f 304/3/2 305/3/2 309/3/2
f 309/3/2 305/3/2 310/3/2
f 313/3/3 312/3/3 311/3/3
f 314/3/3 312/3/3 313/3/3
f 317/3/3 316/3/3 315/3/3
f 318/3/3 316/3/3 317/3/3
f 323/3/3 320/3/3 319/3/3
f 324/3/3 320/3/3 323/3/3
f 325/4/3 323/4/3 322/4/3
f 326/4/3 323/4/3 325/4/3
f 327/4/3 323/4/3 326/4/3
f 328/4/3 323/4/3 327/4/3
f 329/1/3 326/1/3 325/1/3
f 329/4/3 327/4/3 326/4/3
f 330/1/3 328/1/3 327/1/3
f 330/4/3 327/4/3 329/4/3
f 331/4/3 323/4/3 328/4/3
f 331/1/3 328/1/3 330/1/3
f 332/4/3 323/4/3 331/4/3
f 333/4/3 323/4/3 332/4/3
f 334/4/3 323/4/3 333/4/3
f 336/1/3 330/1/3 329/1/3
f 336/1/3 329/1/3 325/1/3
f 337/4/3 331/4/3 330/4/3
f 337/1/3 330/1/3 336/1/3
f 337/4/3 332/4/3 331/4/3
f 338/4/3 332/4/3 337/4/3
f 339/1/3 333/1/3 332/1/3
f 339/4/3 332/4/3 338/4/3
f 340/4/3 334/4/3 333/4/3
f 340/1/3 333/1/3 339/1/3
f 341/4/3 325/4/3 322/4/3
f 341/1/3 336/1/3 325/1/3
f 342/4/3 337/4/3 336/4/3
f 342/1/3 336/1/3 341/1/3
f 343/1/3 338/1/3 337/1/3
f 343/4/3 337/4/3 342/4/3
f 344/4/3 339/4/3 338/4/3
f 344/1/3 338/1/3 343/1/3
f 344/4/3 340/4/3 339/4/3
f 345/4/3 334/4/3 340/4/3
f 345/4/3 340/4/3 344/4/3
f 345/3/3 335/3/3 334/3/3
f 346/3/3 335/3/3 345/3/3
f 348/1/3 322/1/3 321/1/3
f 348/4/3 347/4/3 346/4/3
f 348/4/3 346/4/3 345/4/3
f 348/4/3 345/4/3 344/4/3
f 348/4/3 341/4/3 322/4/3
f 348/4/3 343/4/3 342/4/3
f 348/4/3 342/4/3 341/4/3
f 348/4/3 344/4/3 343/4/3
f 349/4/3 347/4/3 348/4/3
f 350/1/3 348/1/3 321/1/3
f 350/1/3 349/1/3 348/1/3
f 351/1/3 349/1/3 350/1/3
f 352/1/3 349/1/3 351/1/3
f 353/1/3 349/1/3 352/1/3
f 354/2/3 352/2/3 351/2/3
f 355/2/3 352/2/3 354/2/3
f 356/2/3 352/2/3 355/2/3
f 360/2/3 358/2/3 357/2/3
f 360/2/3 359/2/3 358/2/3
f 361/2/3 359/2/3 360/2/3
f 362/2/3 359/2/3 361/2/3
f 367/2/3 364/2/3 363/2/3
f 367/2/3 365/2/3 364/2/3
f 368/2/3 365/2/3 367/2/3
f 370/1/3 368/1/3 367/1/3
f 370/1/3 369/1/3 368/1/3
f 370/1/3 367/1/3 366/1/3
f 371/1/3 369/1/3 370/1/3
f 372/4/3 371/4/3 370/4/3
f 373/4/3 371/4/3 372/4/3
f 374/4/3 371/4/3 373/4/3
f 375/4/3 371/4/3 374/4/3
f 376/4/3 371/4/3 375/4/3
f 377/4/3 371/4/3 376/4/3
f 378/4/3 371/4/3 377/4/3
f 379/1/3 373/1/3 372/1/3
f 379/4/3 374/4/3 373/4/3
f 380/1/3 375/1/3 374/1/3
f 380/4/3 374/4/3 379/4/3
f 381/4/3 376/4/3 375/4/3
f 381/1/3 375/1/3 380/1/3
f 382/4/3 376/4/3 381/4/3
f 383/4/3 376/4/3 382/4/3
f 384/1/3 379/1/3 372/1/3
f 384/1/3 380/1/3 379/1/3
f 385/4/3 381/4/3 380/4/3
f 385/1/3 380/1/3 384/1/3
f 385/4/3 382/4/3 381/4/3
f 386/4/3 382/4/3 385/4/3
f 387/1/3 383/1/3 382/1/3
f 387/4/3 382/4/3 386/4/3
f 388/4/3 376/4/3 383/4/3
f 388/1/3 383/1/3 387/1/3
f 389/3/3 377/3/3 376/3/3
f 389/4/3 376/4/3 388/4/3
f 390/3/3 377/3/3 389/3/3
f 391/4/3 372/4/3 370/4/3
f 391/1/3 384/1/3 372/1/3
f 392/4/3 385/4/3 384/4/3
f 392/1/3 384/1/3 391/1/3
f 393/1/3 386/1/3 385/1/3
f 393/4/3 385/4/3 392/4/3
f 394/4/3 388/4/3 387/4/3
f 394/1/3 386/1/3 393/1/3
f 394/4/3 387/4/3 386/4/3
f 394/4/3 389/4/3 388/4/3
f 395/1/3 370/1/3 366/1/3
f 396/4/3 393/4/3 392/4/3
f 396/1/3 370/1/3 395/1/3
f 396/4/3 391/4/3 370/4/3
f 396/4/3 394/4/3 393/4/3
f 396/4/3 392/4/3 391/4/3
f 397/4/3 389/4/3 394/4/3
f 397/4/3 394/4/3 396/4/3
f 399/3/3 398/3/3 397/3/3
f 400/3/3 398/3/3 399/3/3
f 403/3/3 402/3/3 401/3/3
f 404/3/3 402/3/3 403/3/3
f 409/1/3 407/1/3 406/1/3
f 410/4/3 408/4/3 407/4/3
f 410/1/3 407/1/3 409/1/3
f 411/4/3 408/4/3 410/4/3
f 412/3/3 405/3/3 404/3/3
f 413/3/3 405/3/3 412/3/3
f 414/2/3 413/2/3 412/2/3
f 414/2/3 412/2/3 411/2/3
f 415/2/3 413/2/3 414/2/3
f 416/2/3 413/2/3 415/2/3
f 419/4/3 418/4/3 417/4/3
f 422/4/3 418/4/3 419/4/3
f 423/4/3 418/4/3 422/4/3
f 424/3/3 421/3/3 420/3/3
f 425/3/3 421/3/3 424/3/3
f 426/3/3 424/3/3 420/3/3
f 428/3/3 426/3/3 420/3/3
f 428/3/3 427/3/3 426/3/3
f 429/3/3 427/3/3 428/3/3
f 430/3/3 428/3/3 420/3/3
f 432/3/3 430/3/3 420/3/3
f 432/3/3 431/3/3 430/3/3
f 433/3/3 431/3/3 432/3/3
f 436/4/3 435/4/3 434/4/3
f 437/4/3 435/4/3 436/4/3
f 438/4/3 435/4/3 437/4/3
f 444/2/3 440/2/3 439/2/3
f 444/2/3 441/2/3 440/2/3
f 445/2/3 441/2/3 444/2/3
f 446/2/3 441/2/3 445/2/3
f 447/1/3 443/1/3 442/1/3
f 448/4/3 444/4/3 443/4/3
f 448/1/3 443/1/3 447/1/3
f 449/4/3 444/4/3 448/4/3
f 451/3/3 446/3/3 445/3/3
f 452/3/3 446/3/3 451/3/3
f 453/3/3 451/3/3 450/3/3
f 454/3/3 451/3/3 453/3/3
f 457/3/3 456/3/3 455/3/3
f 458/3/3 456/3/3 457/3/3
f 461/3/3 460/3/3 459/3/3
f 462/3/3 460/3/3 461/3/3
f 465/3/3 464/3/3 463/3/3
f 466/3/3 464/3/3 465/3/3
f 469/3/3 468/3/3 467/3/3
f 470/3/3 468/3/3 469/3/3
f 473/3/3 472/3/3 471/3/3
f 474/3/3 472/3/3 473/3/3
f 477/3/3 476/3/3 475/3/3
f 478/3/3 476/3/3 477/3/3
f 479/3/4 480/3/4 481/3/4
f 481/3/4 480/3/4 482/3/4
f 483/3/4 484/3/4 485/3/4
f 485/3/4 484/3/4 486/3/4
f 487/3/4 488/3/4 489/3/4
f 489/3/4 488/3/4 490/3/4
f 491/3/4 492/3/4 493/3/4
f 493/3/4 492/3/4 494/3/4
f 495/3/4 496/3/4 497/3/4
f 497/3/4 496/3/4 498/3/4
f 500/1/4 501/1/4 503/1/4
f 501/4/4 502/4/4 504/4/4
f 503/1/4 501/1/4 504/1/4
f 504/4/4 502/4/4 505/4/4
f 498/3/4 499/3/4 506/3/4
f 506/3/4 499/3/4 507/3/4
f 506/2/4 507/2/4 508/2/4
f 505/2/4 506/2/4 508/2/4
f 508/2/4 507/2/4 509/2/4
f 509/2/4 507/2/4 510/2/4
f 511/4/4 512/4/4 515/4/4
f 515/4/4 512/4/4 516/4/4
f 513/2/4 514/2/4 517/2/4
f 517/2/4 514/2/4 518/2/4
f 519/2/4 520/2/4 521/2/4
f 521/2/4 520/2/4 522/2/4
f 523/2/4 524/2/4 525/2/4
f 525/2/4 524/2/4 526/2/4
f 527/4/4 528/4/4 529/4/4
f 529/4/4 528/4/4 530/4/4
f 531/2/4 532/2/4 536/2/4
f 532/2/4 533/2/4 536/2/4
f 536/2/4 533/2/4 537/2/4
f 537/2/4 533/2/4 538/2/4
f 534/1/4 535/1/4 539/1/4
f 535/4/4 536/4/4 540/4/4
f 539/1/4 535/1/4 540/1/4
f 540/4/4 536/4/4 541/4/4
f 537/3/4 538/3/4 543/3/4
f 543/3/4 538/3/4 544/3/4
f 542/3/4 543/3/4 545/3/4
f 545/3/4 543/3/4 546/3/4
f 547/3/4 548/3/4 551/3/4
f 551/3/4 548/3/4 552/3/4
f 550/4/4 551/4/4 553/4/4
f 553/4/4 551/4/4 554/4/4
f 554/4/4 551/4/4 555/4/4
f 555/4/4 551/4/4 556/4/4
f 553/1/4 554/1/4 557/1/4
f 554/4/4 555/4/4 557/4/4
f 555/1/4 556/1/4 558/1/4
f 557/4/4 555/4/4 558/4/4
f 556/4/4 551/4/4 559/4/4
f 558/1/4 556/1/4 559/1/4
f 559/4/4 551/4/4 560/4/4
f 560/4/4 551/4/4 561/4/4
f 561/4/4 551/4/4 562/4/4
f 557/1/4 558/1/4 564/1/4
f 553/1/4 557/1/4 564/1/4
f 558/4/4 559/4/4 565/4/4
f 564/1/4 558/1/4 565/1/4
f 559/4/4 560/4/4 565/4/4
f 565/4/4 560/4/4 566/4/4
f 560/1/4 561/1/4 567/1/4
f 566/4/4 560/4/4 567/4/4
f 561/4/4 562/4/4 568/4/4
f 567/1/4 561/1/4 568/1/4
f 550/4/4 553/4/4 569/4/4
f 553/1/4 564/1/4 569/1/4
f 564/4/4 565/4/4 570/4/4
f 569/1/4 564/1/4 570/1/4
f 565/1/4 566/1/4 571/1/4
f 570/4/4 565/4/4 571/4/4
f 566/4/4 567/4/4 572/4/4
f 571/1/4 566/1/4 572/1/4
f 567/4/4 568/4/4 572/4/4
f 568/4/4 562/4/4 573/4/4
f 572/4/4 568/4/4 573/4/4
f 562/3/4 563/3/4 573/3/4
f 573/3/4 563/3/4 574/3/4
f 571/4/4 572/4/4 576/4/4
f 574/4/4 575/4/4 576/4/4
f 573/4/4 574/4/4 576/4/4
f 572/4/4 573/4/4 576/4/4
f 550/4/4 569/4/4 576/4/4
f 570/4/4 571/4/4 576/4/4
f 569/4/4 570/4/4 576/4/4
f 576/4/4 575/4/4 577/4/4
f 577/4/4 575/4/4 578/4/4
f 578/4/4 575/4/4 579/4/4
f 579/4/4 575/4/4 580/4/4
f 580/4/4 575/4/4 581/4/4
f 576/1/4 577/1/4 582/1/4
f 577/4/4 578/4/4 582/4/4
f 578/1/4 579/1/4 583/1/4
f 582/4/4 578/4/4 583/4/4
f 579/4/4 580/4/4 584/4/4
f 583/1/4 579/1/4 584/1/4
f 584/4/4 580/4/4 585/4/4
f 585/4/4 580/4/4 586/4/4
f 586/4/4 580/4/4 587/4/4
f 582/1/4 583/1/4 589/1/4
f 576/1/4 582/1/4 589/1/4
f 583/4/4 584/4/4 590/4/4
f 589/1/4 583/1/4 590/1/4
f 584/4/4 585/4/4 590/4/4
f 590/4/4 585/4/4 591/4/4
f 585/1/4 586/1/4 592/1/4
f 591/4/4 585/4/4 592/4/4
f 586/4/4 587/4/4 593/4/4
f 592/1/4 586/1/4 593/1/4
f 550/4/4 576/4/4 594/4/4
f 576/1/4 589/1/4 594/1/4
f 589/4/4 590/4/4 595/4/4
f 594/1/4 589/1/4 595/1/4
f 590/1/4 591/1/4 596/1/4
f 595/4/4 590/4/4 596/4/4
f 591/4/4 592/4/4 597/4/4
f 596/1/4 591/1/4 597/1/4
f 592/4/4 593/4/4 597/4/4
f 593/4/4 587/4/4 598/4/4
f 597/4/4 593/4/4 598/4/4
f 587/3/4 588/3/4 598/3/4
f 598/3/4 588/3/4 599/3/4
f 596/4/4 597/4/4 600/4/4
f 594/4/4 595/4/4 600/4/4
f 597/4/4 598/4/4 600/4/4
f 550/4/4 594/4/4 600/4/4
f 595/4/4 596/4/4 600/4/4
f 600/4/4 598/4/4 601/4/4
f 601/4/4 598/4/4 602/4/4
f 602/4/4 598/4/4 603/4/4
f 603/4/4 598/4/4 604/4/4
f 600/1/4 601/1/4 606/1/4
f 601/4/4 602/4/4 606/4/4
f 602/1/4 603/1/4 607/1/4
f 606/4/4 602/4/4 607/4/4
f 603/4/4 604/4/4 608/4/4
f 607/1/4 603/1/4 608/1/4
f 608/4/4 604/4/4 609/4/4
f 609/4/4 604/4/4 610/4/4
f 606/1/4 607/1/4 611/1/4
f 600/1/4 606/1/4 611/1/4
f 607/4/4 608/4/4 612/4/4
f 611/1/4 607/1/4 612/1/4
f 608/4/4 609/4/4 612/4/4
f 612/4/4 609/4/4 613/4/4
f 609/1/4 610/1/4 614/1/4
f 613/4/4 609/4/4 614/4/4
f 610/4/4 604/4/4 615/4/4
f 614/1/4 610/1/4 615/1/4
f 604/3/4 605/3/4 616/3/4
f 615/4/4 604/4/4 616/4/4
f 616/3/4 605/3/4 617/3/4
f 550/4/4 600/4/4 618/4/4
f 600/1/4 611/1/4 618/1/4
f 611/4/4 612/4/4 619/4/4
f 618/1/4 611/1/4 619/1/4
f 612/1/4 613/1/4 620/1/4
f 619/4/4 612/4/4 620/4/4
f 614/4/4 615/4/4 621/4/4
f 620/1/4 613/1/4 621/1/4
f 613/4/4 614/4/4 621/4/4
f 615/4/4 616/4/4 621/4/4
f 621/4/4 616/4/4 622/4/4
f 621/4/4 622/4/4 624/4/4
f 622/4/4 623/4/4 624/4/4
f 618/4/4 619/4/4 624/4/4
f 550/4/4 618/4/4 624/4/4
f 619/4/4 620/4/4 624/4/4
f 620/4/4 621/4/4 624/4/4
f 624/4/4 623/4/4 625/4/4
f 625/4/4 623/4/4 626/4/4
f 626/4/4 623/4/4 627/4/4
f 627/4/4 623/4/4 628/4/4
f 628/4/4 623/4/4 629/4/4
f 629/4/4 623/4/4 630/4/4
f 624/1/4 625/1/4 631/1/4
f 625/4/4 626/4/4 631/4/4
f 626/1/4 627/1/4 632/1/4
f 631/4/4 626/4/4 632/4/4
f 627/4/4 628/4/4 633/4/4
f 632/1/4 627/1/4 633/1/4
f 633/4/4 628/4/4 634/4/4
f 634/4/4 628/4/4 635/4/4
f 624/1/4 631/1/4 636/1/4
f 631/1/4 632/1/4 636/1/4
f 632/4/4 633/4/4 637/4/4
f 636/1/4 632/1/4 637/1/4
f 633/4/4 634/4/4 637/4/4
f 637/4/4 634/4/4 638/4/4
f 634/1/4 635/1/4 639/1/4
f 638/4/4 634/4/4 639/4/4
f 635/4/4 628/4/4 640/4/4
f 639/1/4 635/1/4 640/1/4
f 628/3/4 629/3/4 641/3/4
f 640/4/4 628/4/4 641/4/4
f 641/3/4 629/3/4 642/3/4
f 550/4/4 624/4/4 643/4/4
f 624/1/4 636/1/4 643/1/4
f 636/4/4 637/4/4 644/4/4
f 643/1/4 636/1/4 644/1/4
f 637/1/4 638/1/4 645/1/4
f 644/4/4 637/4/4 645/4/4
f 639/4/4 640/4/4 646/4/4
f 645/1/4 638/1/4 646/1/4
f 638/4/4 639/4/4 646/4/4
f 640/4/4 641/4/4 646/4/4
f 549/1/4 550/1/4 647/1/4
f 644/4/4 645/4/4 648/4/4
f 647/1/4 550/1/4 648/1/4
f 550/4/4 643/4/4 648/4/4
f 645/4/4 646/4/4 648/4/4
f 643/4/4 644/4/4 648/4/4
f 646/4/4 641/4/4 649/4/4
f 648/4/4 646/4/4 649/4/4
f 649/3/4 650/3/4 651/3/4
f 651/3/4 650/3/4 652/3/4
f 658/1/5 654/1/5 653/1/5
f 659/1/5 654/1/5 658/1/5
f 660/1/5 656/1/5 655/1/5
f 661/1/5 656/1/5 660/1/5
f 663/1/5 659/1/5 658/1/5
f 663/1/5 658/1/5 657/1/5
f 663/3/5 660/3/5 659/3/5
f 664/1/5 662/1/5 661/1/5
f 664/3/5 660/3/5 663/3/5
f 664/1/5 661/1/5 660/1/5
f 665/1/5 663/1/5 657/1/5
f 665/1/5 664/1/5 663/1/5
f 666/1/5 664/1/5 665/1/5
f 667/1/5 662/1/5 664/1/5
f 667/1/5 664/1/5 666/1/5
f 668/1/5 662/1/5 667/1/5
f 669/1/5 667/1/5 666/1/5
f 670/1/5 667/1/5 669/1/5
f 675/3/5 672/3/5 671/3/5
f 676/3/5 672/3/5 675/3/5
f 677/3/5 674/3/5 673/3/5
f 678/3/5 674/3/5 677/3/5
f 685/2/5 680/2/5 679/2/5
f 686/2/5 680/2/5 685/2/5
f 687/2/5 682/2/5 681/2/5
f 688/2/5 682/2/5 687/2/5
f 689/2/5 684/2/5 683/2/5
f 690/2/5 684/2/5 689/2/5
f 696/3/5 692/3/5 691/3/5
f 697/3/5 692/3/5 696/3/5
f 698/3/5 692/3/5 697/3/5
f 699/3/5 694/3/5 693/3/5
f 700/3/5 694/3/5 699/3/5
f 701/3/5 694/3/5 700/3/5
f 703/3/5 696/3/5 695/3/5
f 703/3/5 697/3/5 696/3/5
f 704/3/5 697/3/5 703/3/5
f 705/3/5 697/3/5 704/3/5
f 708/3/5 702/3/5 701/3/5
f 708/3/5 701/3/5 700/3/5
f 709/3/5 702/3/5 708/3/5
f 710/3/5 702/3/5 709/3/5
f 711/3/5 706/3/5 705/3/5
f 711/3/5 705/3/5 704/3/5
f 712/3/5 706/3/5 711/3/5
f 713/3/5 709/3/5 708/3/5
f 713/3/5 708/3/5 707/3/5
f 714/3/5 709/3/5 713/3/5
f 715/4/6 716/4/6 719/4/6
f 719/4/6 716/4/6 720/4/6
f 717/4/6 718/4/6 721/4/6
f 721/4/6 718/4/6 722/4/6
f 723/4/6 724/4/6 733/4/6
f 733/4/6 724/4/6 734/4/6
f 725/4/6 726/4/6 735/4/6
f 735/4/6 726/4/6 736/4/6
f 727/4/6 728/4/6 737/4/6
f 737/4/6 728/4/6 738/4/6
f 729/4/6 730/4/6 739/4/6
f 739/4/6 730/4/6 740/4/6
f 731/4/6 732/4/6 741/4/6
f 741/4/6 732/4/6 742/4/6
f 743/3/6 744/3/6 747/3/6
f 747/3/6 744/3/6 748/3/6
f 745/3/6 746/3/6 749/3/6
f 749/3/6 746/3/6 750/3/6
f 747/3/6 748/3/6 751/3/6
f 751/3/6 748/3/6 752/3/6
f 749/3/6 750/3/6 753/3/6
f 753/3/6 750/3/6 754/3/6
f 755/2/6 756/2/6 761/2/6
f 759/2/6 760/2/6 762/2/6
f 761/2/6 756/2/6 763/2/6
f 757/2/6 758/2/6 764/2/6
f 764/2/6 758/2/6 765/2/6
f 759/2/6 762/2/6 766/2/6
f 761/2/6 763/2/6 767/2/6
f 763/3/6 764/3/6 768/3/6
f 767/2/6 763/2/6 768/2/6
f 764/2/6 765/2/6 769/2/6
f 768/3/6 764/3/6 769/3/6
f 765/3/6 766/3/6 770/3/6
f 769/2/6 765/2/6 770/2/6
f 766/2/6 762/2/6 771/2/6
f 770/3/6 766/3/6 771/3/6
f 771/2/6 762/2/6 772/2/6
f 768/3/6 769/3/6 773/3/6
f 773/3/6 769/3/6 774/3/6
f 770/3/6 771/3/6 775/3/6
f 775/3/6 771/3/6 776/3/6
f 777/3/6 778/3/6 781/3/6
f 779/3/6 780/3/6 782/3/6
f 781/3/6 778/3/6 783/3/6
f 779/3/6 782/3/6 784/3/6
f 783/3/6 778/3/6 785/3/6
f 785/3/6 778/3/6 786/3/6
f 779/3/6 784/3/6 787/3/6
f 787/3/6 784/3/6 788/3/6
f 789/3/6 790/3/6 800/3/6
f 800/3/6 790/3/6 801/3/6
f 791/4/6 792/4/6 802/4/6
f 792/1/6 793/1/6 803/1/6
f 802/4/6 792/4/6 803/4/6
f 803/1/6 793/1/6 804/1/6
f 794/1/6 795/1/6 805/1/6
f 795/4/6 796/4/6 806/4/6
f 805/1/6 795/1/6 806/1/6
f 806/4/6 796/4/6 807/4/6
f 797/3/6 798/3/6 808/3/6
f 808/3/6 798/3/6 809/3/6
f 799/3/6 800/3/6 811/3/6
f 811/3/6 800/3/6 812/3/6
f 809/3/6 810/3/6 813/3/6
f 813/3/6 810/3/6 814/3/6
f 815/3/6 816/3/6 819/3/6
f 819/3/6 816/3/6 820/3/6
f 817/3/6 818/3/6 821/3/6
f 821/3/6 818/3/6 822/3/6
f 823/3/6 824/3/6 827/3/6
f 827/3/6 824/3/6 828/3/6
f 825/3/6 826/3/6 835/3/6
f 835/3/6 826/3/6 836/3/6
f 828/3/6 829/3/6 837/3/6
f 837/3/6 829/3/6 838/3/6
f 830/4/6 831/4/6 839/4/6
f 839/4/6 831/4/6 840/4/6
f 832/4/6 833/4/6 841/4/6
f 841/4/6 833/4/6 842/4/6
f 834/3/6 835/3/6 843/3/6
f 843/3/6 835/3/6 844/3/6
f 845/3/6 846/3/6 856/3/6
f 853/3/6 854/3/6 857/3/6
f 855/3/6 856/3/6 859/3/6
f 856/3/6 846/3/6 860/3/6
f 859/3/6 856/3/6 860/3/6
f 857/3/6 858/3/6 861/3/6
f 853/3/6 857/3/6 861/3/6
f 861/3/6 858/3/6 862/3/6
f 860/3/6 846/3/6 864/3/6
f 853/3/6 861/3/6 865/3/6
f 863/3/6 864/3/6 867/3/6
f 864/3/6 846/3/6 868/3/6
f 867/3/6 864/3/6 868/3/6
f 865/3/6 866/3/6 869/3/6
f 853/3/6 865/3/6 869/3/6
f 869/3/6 866/3/6 870/3/6
f 868/3/6 846/3/6 871/3/6
f 846/2/6 847/2/6 872/2/6
f 871/3/6 846/3/6 872/3/6
f 872/2/6 847/2/6 873/2/6
f 848/4/6 849/4/6 874/4/6
f 874/4/6 849/4/6 875/4/6
f 850/4/6 851/4/6 876/4/6
f 876/4/6 851/4/6 877/4/6
f 852/2/6 853/2/6 878/2/6
f 853/3/6 869/3/6 879/3/6
f 878/2/6 853/2/6 879/2/6
f 879/3/6 869/3/6 880/3/6
