# MagicaVoxel @ Ephtracy

# group
o 

# material
mtllib model.mtl
usemtl palette

# normals
vn -1 0 0
vn 1 0 0
vn 0 0 1
vn 0 0 -1
vn 0 -1 0
vn 0 1 0

# texcoords
vt 0.314453 0.5
vt 0.318359 0.5
vt 0.513672 0.5
vt 0.517578 0.5
vt 0.826172 0.5

# verts
v -0.7 0.3 1.2
v -0.7 0.3 1.1
v -0.7 0.3 -1.1
v -0.7 0.3 -1.2
v -0.7 0.8 1.2
v -0.7 0.8 1.1
v -0.7 0.8 -1.1
v -0.7 0.8 -1.2
v 0.5 0 1.1
v 0.5 0 0.3
v 0.5 0 -0.3
v 0.5 0 -1.1
v 0.5 0.1 1.2
v 0.5 0.1 1.1
v 0.5 0.1 0.3
v 0.5 0.1 0.2
v 0.5 0.1 -0.2
v 0.5 0.1 -0.3
v 0.5 0.1 -1.1
v 0.5 0.1 -1.2
v 0.5 0.2 1
v 0.5 0.2 0.9
v 0.5 0.2 0.7
v 0.5 0.2 0.6
v 0.5 0.2 0.5
v 0.5 0.2 0.4
v 0.5 0.2 -0.4
v 0.5 0.2 -0.5
v 0.5 0.2 -0.7
v 0.5 0.2 -0.8
v 0.5 0.2 -0.9
v 0.5 0.2 -1
v 0.5 0.5 0.2
v 0.5 0.5 -0.2
v 0.5 0.6 1.2
v 0.5 0.6 1.1
v 0.5 0.6 -1.1
v 0.5 0.6 -1.2
v 0.5 0.8 1.2
v 0.5 0.8 1.1
v 0.5 0.8 1
v 0.5 0.8 0.9
v 0.5 0.8 0.7
v 0.5 0.8 0.6
v 0.5 0.8 0.5
v 0.5 0.8 0.4
v 0.5 0.8 0.1
v 0.5 0.8 -0.0999999
v 0.5 0.8 -0.4
v 0.5 0.8 -0.5
v 0.5 0.8 -0.7
v 0.5 0.8 -0.8
v 0.5 0.8 -0.9
v 0.5 0.8 -1
v 0.5 0.8 -1.1
v 0.5 0.8 -1.2
v 0.5 0.9 1.2
v 0.5 0.9 1.1
v 0.5 0.9 -1.1
v 0.5 0.9 -1.2
v 0.5 1 1.1
v 0.5 1 0.4
v 0.5 1 -0.4
v 0.5 1 -1.1
v 0.5 1.1 0.4
v 0.5 1.1 0.1
v 0.5 1.1 -0.0999999
v 0.5 1.1 -0.4
v 0.6 0.4 1.3
v 0.6 0.4 1.2
v 0.6 0.4 -1.2
v 0.6 0.4 -1.3
v 0.6 0.5 1.3
v 0.6 0.5 1.2
v 0.6 0.5 -1.2
v 0.6 0.5 -1.3
v 0.6 0.7 1.3
v 0.6 0.7 1.2
v 0.6 0.7 -1.2
v 0.6 0.7 -1.3
v 0.6 0.8 1.3
v 0.6 0.8 1.2
v 0.6 0.8 -1.2
v 0.6 0.8 -1.3
v 0.6 1 0.7
v 0.6 1 0.6
v 0.6 1 -0.6
v 0.6 1 -0.7
v 0.6 1.1 0.9
v 0.6 1.1 0.8
v 0.6 1.1 0.7
v 0.6 1.1 0.6
v 0.6 1.1 -0.6
v 0.6 1.1 -0.7
v 0.6 1.1 -0.8
v 0.6 1.1 -0.9
v 0.6 1.2 0.9
v 0.6 1.2 0.8
v 0.6 1.2 0.6
v 0.6 1.2 -0.6
v 0.6 1.2 -0.8
v 0.6 1.2 -0.9
v -0.5 0.3 1.2
v -0.5 0.3 1.1
v -0.5 0.3 -1.1
v -0.5 0.3 -1.2
v -0.5 0.6 1.2
v -0.5 0.6 1.1
v -0.5 0.6 -1.1
v -0.5 0.6 -1.2
v 0.6 0 1.1
v 0.6 0 1
v 0.6 0 0.9
v 0.6 0 0.7
v 0.6 0 0.6
v 0.6 0 0.3
v 0.6 0 -0.3
v 0.6 0 -0.6
v 0.6 0 -0.7
v 0.6 0 -0.9
v 0.6 0 -1
v 0.6 0 -1.1
v 0.6 0.1 1.2
v 0.6 0.1 1.1
v 0.6 0.1 0.9
v 0.6 0.1 0.7
v 0.6 0.1 0.6
v 0.6 0.1 0.4
v 0.6 0.1 0.3
v 0.6 0.1 0.2
v 0.6 0.1 -0.2
v 0.6 0.1 -0.3
v 0.6 0.1 -0.4
v 0.6 0.1 -0.6
v 0.6 0.1 -0.7
v 0.6 0.1 -0.9
v 0.6 0.1 -1.1
v 0.6 0.1 -1.2
v 0.6 0.2 1.1
v 0.6 0.2 1
v 0.6 0.2 0.9
v 0.6 0.2 0.7
v 0.6 0.2 0.6
v 0.6 0.2 0.5
v 0.6 0.2 0.4
v 0.6 0.2 0.3
v 0.6 0.2 -0.3
v 0.6 0.2 -0.4
v 0.6 0.2 -0.5
v 0.6 0.2 -0.7
v 0.6 0.2 -0.8
v 0.6 0.2 -0.9
v 0.6 0.2 -1
v 0.6 0.2 -1.1
v 0.6 0.4 1.2
v 0.6 0.4 1.1
v 0.6 0.4 -1.1
v 0.6 0.4 -1.2
v 0.6 0.5 1.2
v 0.6 0.5 1.1
v 0.6 0.5 0.2
v 0.6 0.5 -0.2
v 0.6 0.5 -1.1
v 0.6 0.5 -1.2
v 0.6 0.7 1.2
v 0.6 0.7 1.1
v 0.6 0.7 0.4
v 0.6 0.7 0.3
v 0.6 0.7 -0.3
v 0.6 0.7 -0.4
v 0.6 0.7 -1.1
v 0.6 0.7 -1.2
v 0.6 0.8 1.2
v 0.6 0.8 1.1
v 0.6 0.8 1
v 0.6 0.8 0.9
v 0.6 0.8 0.7
v 0.6 0.8 0.6
v 0.6 0.8 0.5
v 0.6 0.8 0.4
v 0.6 0.8 0.3
v 0.6 0.8 0.1
v 0.6 0.8 -0.0999999
v 0.6 0.8 -0.3
v 0.6 0.8 -0.4
v 0.6 0.8 -0.5
v 0.6 0.8 -0.6
v 0.6 0.8 -0.7
v 0.6 0.8 -0.8
v 0.6 0.8 -0.9
v 0.6 0.8 -1
v 0.6 0.8 -1.1
v 0.6 0.8 -1.2
v 0.6 0.9 1.2
v 0.6 0.9 1.1
v 0.6 0.9 0.9
v 0.6 0.9 0.7
v 0.6 0.9 0.6
v 0.6 0.9 0.4
v 0.6 0.9 0.3
v 0.6 0.9 0.2
v 0.6 0.9 -0.2
v 0.6 0.9 -0.3
v 0.6 0.9 -0.4
v 0.6 0.9 -0.6
v 0.6 0.9 -0.7
v 0.6 0.9 -0.9
v 0.6 0.9 -1.1
v 0.6 0.9 -1.2
v 0.6 1 1.1
v 0.6 1 1
v 0.6 1 0.9
v 0.6 1 0.7
v 0.6 1 0.6
v 0.6 1 0.4
v 0.6 1 0.3
v 0.6 1 0.2
v 0.6 1 -0.2
v 0.6 1 -0.3
v 0.6 1 -0.4
v 0.6 1 -0.6
v 0.6 1 -0.7
v 0.6 1 -0.9
v 0.6 1 -1
v 0.6 1 -1.1
v 0.6 1.1 0.4
v 0.6 1.1 0.1
v 0.6 1.1 -0.0999999
v 0.6 1.1 -0.4
v 0.7 0 1
v 0.7 0 0.9
v 0.7 0 0.7
v 0.7 0 0.6
v 0.7 0 -0.6
v 0.7 0 -0.7
v 0.7 0 -0.9
v 0.7 0 -1
v 0.7 0.1 0.9
v 0.7 0.1 0.7
v 0.7 0.1 0.6
v 0.7 0.1 0.4
v 0.7 0.1 -0.4
v 0.7 0.1 -0.6
v 0.7 0.1 -0.7
v 0.7 0.1 -0.9
v 0.7 0.2 1.1
v 0.7 0.2 1
v 0.7 0.2 0.4
v 0.7 0.2 0.3
v 0.7 0.2 -0.3
v 0.7 0.2 -0.4
v 0.7 0.2 -1
v 0.7 0.2 -1.1
v 0.7 0.4 1.3
v 0.7 0.4 1.2
v 0.7 0.4 1.1
v 0.7 0.4 -1.1
v 0.7 0.4 -1.2
v 0.7 0.4 -1.3
v 0.7 0.5 1.3
v 0.7 0.5 1.2
v 0.7 0.5 1.1
v 0.7 0.5 -1.1
v 0.7 0.5 -1.2
v 0.7 0.5 -1.3
v 0.7 0.7 1.3
v 0.7 0.7 1.1
v 0.7 0.7 0.4
v 0.7 0.7 0.3
v 0.7 0.7 -0.3
v 0.7 0.7 -0.4
v 0.7 0.7 -1.1
v 0.7 0.7 -1.3
v 0.7 0.8 1.3
v 0.7 0.8 1.1
v 0.7 0.8 1
v 0.7 0.8 0.9
v 0.7 0.8 0.7
v 0.7 0.8 0.6
v 0.7 0.8 0.4
v 0.7 0.8 0.3
v 0.7 0.8 -0.3
v 0.7 0.8 -0.4
v 0.7 0.8 -0.6
v 0.7 0.8 -0.7
v 0.7 0.8 -0.9
v 0.7 0.8 -1
v 0.7 0.8 -1.1
v 0.7 0.8 -1.3
v 0.7 0.9 0.9
v 0.7 0.9 0.7
v 0.7 0.9 0.6
v 0.7 0.9 0.4
v 0.7 0.9 0.3
v 0.7 0.9 0.2
v 0.7 0.9 -0.2
v 0.7 0.9 -0.3
v 0.7 0.9 -0.4
v 0.7 0.9 -0.6
v 0.7 0.9 -0.7
v 0.7 0.9 -0.9
v 0.7 1 1
v 0.7 1 0.9
v 0.7 1 0.3
v 0.7 1 0.2
v 0.7 1 -0.2
v 0.7 1 -0.3
v 0.7 1 -0.9
v 0.7 1 -1
v 0.7 1.1 0.9
v 0.7 1.1 0.8
v 0.7 1.1 0.7
v 0.7 1.1 0.6
v 0.7 1.1 -0.6
v 0.7 1.1 -0.7
v 0.7 1.1 -0.8
v 0.7 1.1 -0.9
v 0.7 1.2 0.9
v 0.7 1.2 0.8
v 0.7 1.2 0.6
v 0.7 1.2 -0.6
v 0.7 1.2 -0.8
v 0.7 1.2 -0.9
v 0.6 0.4 1.3
v 0.6 0.5 1.3
v 0.6 0.7 1.3
v 0.6 0.8 1.3
v 0.7 0.4 1.3
v 0.7 0.5 1.3
v 0.7 0.7 1.3
v 0.7 0.8 1.3
v -0.7 0.3 1.2
v -0.7 0.8 1.2
v -0.5 0.3 1.2
v -0.5 0.6 1.2
v 0.5 0.1 1.2
v 0.5 0.6 1.2
v 0.5 0.8 1.2
v 0.5 0.9 1.2
v 0.6 0.1 1.2
v 0.6 0.4 1.2
v 0.6 0.5 1.2
v 0.6 0.7 1.2
v 0.6 0.8 1.2
v 0.6 0.9 1.2
v 0.5 0 1.1
v 0.5 0.1 1.1
v 0.5 0.9 1.1
v 0.5 1 1.1
v 0.6 0 1.1
v 0.6 0.1 1.1
v 0.6 0.2 1.1
v 0.6 0.4 1.1
v 0.6 0.5 1.1
v 0.6 0.7 1.1
v 0.6 0.9 1.1
v 0.6 1 1.1
v 0.7 0.2 1.1
v 0.7 0.4 1.1
v 0.7 0.5 1.1
v 0.7 0.7 1.1
v 0.6 0 1
v 0.6 0.2 1
v 0.6 0.8 1
v 0.6 1 1
v 0.7 0 1
v 0.7 0.2 1
v 0.7 0.8 1
v 0.7 1 1
v 0.6 1.1 0.9
v 0.6 1.2 0.9
v 0.7 1.1 0.9
v 0.7 1.2 0.9
v 0.6 0 0.7
v 0.6 0.1 0.7
v 0.6 0.9 0.7
v 0.6 1 0.7
v 0.6 1.1 0.7
v 0.7 0 0.7
v 0.7 0.1 0.7
v 0.7 0.9 0.7
v 0.7 1.1 0.7
v 0.5 1 0.4
v 0.5 1.1 0.4
v 0.6 0.2 0.4
v 0.6 0.7 0.4
v 0.6 0.8 0.4
v 0.6 1 0.4
v 0.6 1.1 0.4
v 0.7 0.2 0.4
v 0.7 0.7 0.4
v 0.7 0.8 0.4
v 0.6 0.9 0.3
v 0.6 1 0.3
v 0.7 0.9 0.3
v 0.7 1 0.3
v 0.5 0.8 -0.0999999
v 0.5 1.1 -0.0999999
v 0.6 0.8 -0.0999999
v 0.6 1.1 -0.0999999
v 0.5 0.1 -0.2
v 0.5 0.5 -0.2
v 0.6 0.1 -0.2
v 0.6 0.5 -0.2
v 0.6 0.9 -0.2
v 0.6 1 -0.2
v 0.7 0.9 -0.2
v 0.7 1 -0.2
v 0.5 0 -0.3
v 0.5 0.1 -0.3
v 0.6 0 -0.3
v 0.6 0.1 -0.3
v 0.6 0.2 -0.3
v 0.6 0.7 -0.3
v 0.6 0.8 -0.3
v 0.7 0.2 -0.3
v 0.7 0.7 -0.3
v 0.7 0.8 -0.3
v 0.6 0.1 -0.4
v 0.6 0.2 -0.4
v 0.6 0.8 -0.4
v 0.6 0.9 -0.4
v 0.7 0.1 -0.4
v 0.7 0.2 -0.4
v 0.7 0.8 -0.4
v 0.7 0.9 -0.4
v 0.6 0 -0.6
v 0.6 0.1 -0.6
v 0.6 0.9 -0.6
v 0.6 1 -0.6
v 0.6 1.1 -0.6
v 0.6 1.2 -0.6
v 0.7 0 -0.6
v 0.7 0.1 -0.6
v 0.7 0.9 -0.6
v 0.7 1.1 -0.6
v 0.7 1.2 -0.6
v 0.6 0 -0.9
v 0.6 0.1 -0.9
v 0.6 0.9 -0.9
v 0.6 1 -0.9
v 0.7 0 -0.9
v 0.7 0.1 -0.9
v 0.7 0.9 -0.9
v 0.7 1 -0.9
v 0.6 0.2 -1
v 0.6 0.8 -1
v 0.7 0.2 -1
v 0.7 0.8 -1
v -0.7 0.3 -1.1
v -0.7 0.8 -1.1
v -0.5 0.3 -1.1
v -0.5 0.6 -1.1
v 0.5 0.6 -1.1
v 0.5 0.8 -1.1
v -0.7 0.3 1.1
v -0.7 0.8 1.1
v -0.5 0.3 1.1
v -0.5 0.6 1.1
v 0.5 0.6 1.1
v 0.5 0.8 1.1
v 0.6 0.2 1
v 0.6 0.8 1
v 0.7 0.2 1
v 0.7 0.8 1
v 0.6 0 0.9
v 0.6 0.1 0.9
v 0.6 0.9 0.9
v 0.6 1 0.9
v 0.7 0 0.9
v 0.7 0.1 0.9
v 0.7 0.9 0.9
v 0.7 1 0.9
v 0.6 0 0.6
v 0.6 0.1 0.6
v 0.6 0.9 0.6
v 0.6 1 0.6
v 0.6 1.1 0.6
v 0.6 1.2 0.6
v 0.7 0 0.6
v 0.7 0.1 0.6
v 0.7 0.9 0.6
v 0.7 1.1 0.6
v 0.7 1.2 0.6
v 0.6 0.1 0.4
v 0.6 0.2 0.4
v 0.6 0.8 0.4
v 0.6 0.9 0.4
v 0.7 0.1 0.4
v 0.7 0.2 0.4
v 0.7 0.8 0.4
v 0.7 0.9 0.4
v 0.5 0 0.3
v 0.5 0.1 0.3
v 0.6 0 0.3
v 0.6 0.1 0.3
v 0.6 0.2 0.3
v 0.6 0.7 0.3
v 0.6 0.8 0.3
v 0.7 0.2 0.3
v 0.7 0.7 0.3
v 0.7 0.8 0.3
v 0.5 0.1 0.2
v 0.5 0.5 0.2
v 0.6 0.1 0.2
v 0.6 0.5 0.2
v 0.6 0.9 0.2
v 0.6 1 0.2
v 0.7 0.9 0.2
v 0.7 1 0.2
v 0.5 0.8 0.1
v 0.5 1.1 0.1
v 0.6 0.8 0.1
v 0.6 1.1 0.1
v 0.6 0.9 -0.3
v 0.6 1 -0.3
v 0.7 0.9 -0.3
v 0.7 1 -0.3
v 0.5 1 -0.4
v 0.5 1.1 -0.4
v 0.6 0.2 -0.4
v 0.6 0.7 -0.4
v 0.6 0.8 -0.4
v 0.6 1 -0.4
v 0.6 1.1 -0.4
v 0.7 0.2 -0.4
v 0.7 0.7 -0.4
v 0.7 0.8 -0.4
v 0.6 0 -0.7
v 0.6 0.1 -0.7
v 0.6 0.9 -0.7
v 0.6 1 -0.7
v 0.6 1.1 -0.7
v 0.7 0 -0.7
v 0.7 0.1 -0.7
v 0.7 0.9 -0.7
v 0.7 1.1 -0.7
v 0.6 1.1 -0.9
v 0.6 1.2 -0.9
v 0.7 1.1 -0.9
v 0.7 1.2 -0.9
v 0.6 0 -1
v 0.6 0.2 -1
v 0.6 0.8 -1
v 0.6 1 -1
v 0.7 0 -1
v 0.7 0.2 -1
v 0.7 0.8 -1
v 0.7 1 -1
v 0.5 0 -1.1
v 0.5 0.1 -1.1
v 0.5 0.9 -1.1
v 0.5 1 -1.1
v 0.6 0 -1.1
v 0.6 0.1 -1.1
v 0.6 0.2 -1.1
v 0.6 0.4 -1.1
v 0.6 0.5 -1.1
v 0.6 0.7 -1.1
v 0.6 0.9 -1.1
v 0.6 1 -1.1
v 0.7 0.2 -1.1
v 0.7 0.4 -1.1
v 0.7 0.5 -1.1
v 0.7 0.7 -1.1
v -0.7 0.3 -1.2
v -0.7 0.8 -1.2
v -0.5 0.3 -1.2
v -0.5 0.6 -1.2
v 0.5 0.1 -1.2
v 0.5 0.6 -1.2
v 0.5 0.8 -1.2
v 0.5 0.9 -1.2
v 0.6 0.1 -1.2
v 0.6 0.4 -1.2
v 0.6 0.5 -1.2
v 0.6 0.7 -1.2
v 0.6 0.8 -1.2
v 0.6 0.9 -1.2
v 0.6 0.4 -1.3
v 0.6 0.5 -1.3
v 0.6 0.7 -1.3
v 0.6 0.8 -1.3
v 0.7 0.4 -1.3
v 0.7 0.5 -1.3
v 0.7 0.7 -1.3
v 0.7 0.8 -1.3
v 0.5 0 1.1
v 0.6 0 1.1
v 0.6 0 1
v 0.7 0 1
v 0.6 0 0.9
v 0.7 0 0.9
v 0.6 0 0.7
v 0.7 0 0.7
v 0.6 0 0.6
v 0.7 0 0.6
v 0.5 0 0.3
v 0.6 0 0.3
v 0.5 0 -0.3
v 0.6 0 -0.3
v 0.6 0 -0.6
v 0.7 0 -0.6
v 0.6 0 -0.7
v 0.7 0 -0.7
v 0.6 0 -0.9
v 0.7 0 -0.9
v 0.6 0 -1
v 0.7 0 -1
v 0.5 0 -1.1
v 0.6 0 -1.1
v 0.5 0.1 1.2
v 0.6 0.1 1.2
v 0.5 0.1 1.1
v 0.6 0.1 1.1
v 0.6 0.1 0.9
v 0.7 0.1 0.9
v 0.6 0.1 0.7
v 0.7 0.1 0.7
v 0.6 0.1 0.6
v 0.7 0.1 0.6
v 0.6 0.1 0.4
v 0.7 0.1 0.4
v 0.5 0.1 0.3
v 0.6 0.1 0.3
v 0.5 0.1 0.2
v 0.6 0.1 0.2
v 0.5 0.1 -0.2
v 0.6 0.1 -0.2
v 0.5 0.1 -0.3
v 0.6 0.1 -0.3
v 0.6 0.1 -0.4
v 0.7 0.1 -0.4
v 0.6 0.1 -0.6
v 0.7 0.1 -0.6
v 0.6 0.1 -0.7
v 0.7 0.1 -0.7
v 0.6 0.1 -0.9
v 0.7 0.1 -0.9
v 0.5 0.1 -1.1
v 0.6 0.1 -1.1
v 0.5 0.1 -1.2
v 0.6 0.1 -1.2
v 0.6 0.2 1.1
v 0.7 0.2 1.1
v 0.6 0.2 1
v 0.7 0.2 1
v 0.6 0.2 0.4
v 0.7 0.2 0.4
v 0.6 0.2 0.3
v 0.7 0.2 0.3
v 0.6 0.2 -0.3
v 0.7 0.2 -0.3
v 0.6 0.2 -0.4
v 0.7 0.2 -0.4
v 0.6 0.2 -1
v 0.7 0.2 -1
v 0.6 0.2 -1.1
v 0.7 0.2 -1.1
v -0.7 0.3 1.2
v -0.5 0.3 1.2
v -0.7 0.3 1.1
v -0.5 0.3 1.1
v -0.7 0.3 -1.1
v -0.5 0.3 -1.1
v -0.7 0.3 -1.2
v -0.5 0.3 -1.2
v 0.6 0.4 1.3
v 0.7 0.4 1.3
v 0.6 0.4 1.2
v 0.7 0.4 1.2
v 0.6 0.4 1.1
v 0.7 0.4 1.1
v 0.6 0.4 -1.1
v 0.7 0.4 -1.1
v 0.6 0.4 -1.2
v 0.7 0.4 -1.2
v 0.6 0.4 -1.3
v 0.7 0.4 -1.3
v 0.5 0.5 0.2
v 0.6 0.5 0.2
v 0.5 0.5 -0.2
v 0.6 0.5 -0.2
v -0.5 0.6 1.2
v 0.5 0.6 1.2
v -0.5 0.6 1.1
v 0.5 0.6 1.1
v -0.5 0.6 -1.1
v 0.5 0.6 -1.1
v -0.5 0.6 -1.2
v 0.5 0.6 -1.2
v 0.6 0.7 1.3
v 0.7 0.7 1.3
v 0.6 0.7 1.2
v 0.6 0.7 1.1
v 0.7 0.7 1.1
v 0.6 0.7 -1.1
v 0.7 0.7 -1.1
v 0.6 0.7 -1.2
v 0.6 0.7 -1.3
v 0.7 0.7 -1.3
v 0.6 0.8 1
v 0.7 0.8 1
v 0.6 0.8 0.9
v 0.7 0.8 0.9
v 0.6 0.8 0.7
v 0.7 0.8 0.7
v 0.6 0.8 0.6
v 0.7 0.8 0.6
v 0.6 0.8 0.5
v 0.6 0.8 0.4
v 0.7 0.8 0.4
v 0.6 0.8 -0.4
v 0.7 0.8 -0.4
v 0.6 0.8 -0.5
v 0.6 0.8 -0.6
v 0.7 0.8 -0.6
v 0.6 0.8 -0.7
v 0.7 0.8 -0.7
v 0.6 0.8 -0.8
v 0.6 0.8 -0.9
v 0.7 0.8 -0.9
v 0.6 0.8 -1
v 0.7 0.8 -1
v 0.6 0.9 0.3
v 0.7 0.9 0.3
v 0.6 0.9 0.2
v 0.7 0.9 0.2
v 0.6 0.9 -0.2
v 0.7 0.9 -0.2
v 0.6 0.9 -0.3
v 0.7 0.9 -0.3
v 0.6 1.1 0.9
v 0.7 1.1 0.9
v 0.6 1.1 0.8
v 0.7 1.1 0.8
v 0.6 1.1 0.7
v 0.7 1.1 0.7
v 0.6 1.1 -0.7
v 0.7 1.1 -0.7
v 0.6 1.1 -0.8
v 0.7 1.1 -0.8
v 0.6 1.1 -0.9
v 0.7 1.1 -0.9
v 0.6 0.2 1
v 0.7 0.2 1
v 0.6 0.2 0.9
v 0.6 0.2 0.7
v 0.6 0.2 0.6
v 0.6 0.2 0.5
v 0.6 0.2 0.4
v 0.7 0.2 0.4
v 0.6 0.2 -0.4
v 0.7 0.2 -0.4
v 0.6 0.2 -0.5
v 0.6 0.2 -0.7
v 0.6 0.2 -0.8
v 0.6 0.2 -0.9
v 0.6 0.2 -1
v 0.7 0.2 -1
v 0.6 0.5 1.3
v 0.7 0.5 1.3
v 0.6 0.5 1.2
v 0.7 0.5 1.2
v 0.6 0.5 1.1
v 0.7 0.5 1.1
v 0.6 0.5 -1.1
v 0.7 0.5 -1.1
v 0.6 0.5 -1.2
v 0.7 0.5 -1.2
v 0.6 0.5 -1.3
v 0.7 0.5 -1.3
v 0.6 0.8 1.3
v 0.7 0.8 1.3
v -0.7 0.8 1.2
v 0.5 0.8 1.2
v 0.6 0.8 1.2
v -0.7 0.8 1.1
v 0.5 0.8 1.1
v 0.6 0.8 1.1
v 0.7 0.8 1.1
v 0.6 0.8 1
v 0.7 0.8 1
v 0.6 0.8 0.4
v 0.7 0.8 0.4
v 0.6 0.8 0.3
v 0.7 0.8 0.3
v 0.5 0.8 0.1
v 0.6 0.8 0.1
v 0.5 0.8 -0.0999999
v 0.6 0.8 -0.0999999
v 0.6 0.8 -0.3
v 0.7 0.8 -0.3
v 0.6 0.8 -0.4
v 0.7 0.8 -0.4
v 0.6 0.8 -1
v 0.7 0.8 -1
v -0.7 0.8 -1.1
v 0.5 0.8 -1.1
v 0.6 0.8 -1.1
v 0.7 0.8 -1.1
v -0.7 0.8 -1.2
v 0.5 0.8 -1.2
v 0.6 0.8 -1.2
v 0.6 0.8 -1.3
v 0.7 0.8 -1.3
v 0.5 0.9 1.2
v 0.6 0.9 1.2
v 0.5 0.9 1.1
v 0.6 0.9 1.1
v 0.6 0.9 0.9
v 0.7 0.9 0.9
v 0.6 0.9 0.7
v 0.7 0.9 0.7
v 0.6 0.9 0.6
v 0.7 0.9 0.6
v 0.6 0.9 0.4
v 0.7 0.9 0.4
v 0.6 0.9 -0.4
v 0.7 0.9 -0.4
v 0.6 0.9 -0.6
v 0.7 0.9 -0.6
v 0.6 0.9 -0.7
v 0.7 0.9 -0.7
v 0.6 0.9 -0.9
v 0.7 0.9 -0.9
v 0.5 0.9 -1.1
v 0.6 0.9 -1.1
v 0.5 0.9 -1.2
v 0.6 0.9 -1.2
v 0.5 1 1.1
v 0.6 1 1.1
v 0.6 1 1
v 0.7 1 1
v 0.6 1 0.9
v 0.7 1 0.9
v 0.6 1 0.7
v 0.6 1 0.6
v 0.5 1 0.4
v 0.6 1 0.4
v 0.6 1 0.3
v 0.7 1 0.3
v 0.6 1 0.2
v 0.7 1 0.2
v 0.6 1 -0.2
v 0.7 1 -0.2
v 0.6 1 -0.3
v 0.7 1 -0.3
v 0.5 1 -0.4
v 0.6 1 -0.4
v 0.6 1 -0.6
v 0.6 1 -0.7
v 0.6 1 -0.9
v 0.7 1 -0.9
v 0.6 1 -1
v 0.7 1 -1
v 0.5 1 -1.1
v 0.6 1 -1.1
v 0.5 1.1 0.4
v 0.6 1.1 0.4
v 0.5 1.1 0.1
v 0.6 1.1 0.1
v 0.5 1.1 -0.0999999
v 0.6 1.1 -0.0999999
v 0.5 1.1 -0.4
v 0.6 1.1 -0.4
v 0.6 1.2 0.9
v 0.7 1.2 0.9
v 0.6 1.2 0.8
v 0.7 1.2 0.8
v 0.6 1.2 0.6
v 0.7 1.2 0.6
v 0.6 1.2 -0.6
v 0.7 1.2 -0.6
v 0.6 1.2 -0.8
v 0.7 1.2 -0.8
v 0.6 1.2 -0.9
v 0.7 1.2 -0.9

# faces
f 5/5/1 2/5/1 1/5/1
f 6/5/1 2/5/1 5/5/1
f 7/5/1 4/5/1 3/5/1
f 8/5/1 4/5/1 7/5/1
f 14/5/1 10/5/1 9/5/1
f 15/5/1 10/5/1 14/5/1
f 18/5/1 12/5/1 11/5/1
f 19/5/1 12/5/1 18/5/1
f 21/5/1 16/5/1 15/5/1
f 21/5/1 14/5/1 13/5/1
f 21/5/1 15/5/1 14/5/1
f 22/5/1 16/5/1 21/5/1
f 23/5/1 16/5/1 22/5/1
f 24/5/1 16/5/1 23/5/1
f 25/5/1 16/5/1 24/5/1
f 26/5/1 16/5/1 25/5/1
f 27/5/1 20/5/1 19/5/1
f 27/5/1 19/5/1 18/5/1
f 27/5/1 18/5/1 17/5/1
f 28/5/1 20/5/1 27/5/1
f 29/5/1 20/5/1 28/5/1
f 30/5/1 20/5/1 29/5/1
f 31/5/1 20/5/1 30/5/1
f 32/5/1 20/5/1 31/5/1
f 33/5/1 16/5/1 26/5/1
f 34/5/1 27/5/1 17/5/1
f 35/5/1 21/5/1 13/5/1
f 36/5/1 21/5/1 35/5/1
f 37/5/1 20/5/1 32/5/1
f 38/5/1 20/5/1 37/5/1
f 40/5/1 21/5/1 36/5/1
f 41/1/1 22/1/1 21/1/1
f 41/5/1 21/5/1 40/5/1
f 42/2/1 23/2/1 22/2/1
f 42/1/1 22/1/1 41/1/1
f 43/1/1 24/1/1 23/1/1
f 43/2/1 23/2/1 42/2/1
f 44/2/1 25/2/1 24/2/1
f 44/1/1 24/1/1 43/1/1
f 45/1/1 26/1/1 25/1/1
f 45/2/1 25/2/1 44/2/1
f 46/5/1 34/5/1 33/5/1
f 46/1/1 26/1/1 45/1/1
f 46/5/1 33/5/1 26/5/1
f 47/5/1 34/5/1 46/5/1
f 48/5/1 34/5/1 47/5/1
f 49/1/1 28/1/1 27/1/1
f 49/5/1 34/5/1 48/5/1
f 49/5/1 27/5/1 34/5/1
f 50/2/1 29/2/1 28/2/1
f 50/1/1 28/1/1 49/1/1
f 51/1/1 30/1/1 29/1/1
f 51/2/1 29/2/1 50/2/1
f 52/2/1 31/2/1 30/2/1
f 52/1/1 30/1/1 51/1/1
f 53/1/1 32/1/1 31/1/1
f 53/2/1 31/2/1 52/2/1
f 54/5/1 37/5/1 32/5/1
f 54/1/1 32/1/1 53/1/1
f 55/5/1 37/5/1 54/5/1
f 57/5/1 44/5/1 43/5/1
f 57/5/1 43/5/1 42/5/1
f 57/5/1 45/5/1 44/5/1
f 57/5/1 40/5/1 39/5/1
f 57/5/1 46/5/1 45/5/1
f 57/5/1 41/5/1 40/5/1
f 57/5/1 42/5/1 41/5/1
f 57/5/1 47/5/1 46/5/1
f 58/5/1 47/5/1 57/5/1
f 59/5/1 53/5/1 52/5/1
f 59/5/1 56/5/1 55/5/1
f 59/5/1 55/5/1 54/5/1
f 59/5/1 54/5/1 53/5/1
f 59/5/1 51/5/1 50/5/1
f 59/5/1 50/5/1 49/5/1
f 59/5/1 49/5/1 48/5/1
f 59/5/1 52/5/1 51/5/1
f 60/5/1 56/5/1 59/5/1
f 61/5/1 47/5/1 58/5/1
f 62/5/1 47/5/1 61/5/1
f 63/5/1 59/5/1 48/5/1
f 64/5/1 59/5/1 63/5/1
f 65/5/1 47/5/1 62/5/1
f 66/5/1 47/5/1 65/5/1
f 67/5/1 63/5/1 48/5/1
f 68/5/1 63/5/1 67/5/1
f 73/4/1 70/4/1 69/4/1
f 74/4/1 70/4/1 73/4/1
f 75/4/1 72/4/1 71/4/1
f 76/4/1 72/4/1 75/4/1
f 81/4/1 78/4/1 77/4/1
f 82/4/1 78/4/1 81/4/1
f 83/4/1 80/4/1 79/4/1
f 84/4/1 80/4/1 83/4/1
f 91/3/1 86/3/1 85/3/1
f 92/3/1 86/3/1 91/3/1
f 93/3/1 88/3/1 87/3/1
f 94/3/1 88/3/1 93/3/1
f 97/3/1 90/3/1 89/3/1
f 98/4/1 92/4/1 91/4/1
f 98/3/1 90/3/1 97/3/1
f 98/4/1 91/4/1 90/4/1
f 99/4/1 92/4/1 98/4/1
f 100/4/1 95/4/1 94/4/1
f 100/4/1 94/4/1 93/4/1
f 101/3/1 96/3/1 95/3/1
f 101/4/1 95/4/1 100/4/1
f 102/3/1 96/3/1 101/3/1
f 103/5/2 104/5/2 107/5/2
f 107/5/2 104/5/2 108/5/2
f 105/5/2 106/5/2 109/5/2
f 109/5/2 106/5/2 110/5/2
f 111/5/2 112/5/2 124/5/2
f 113/5/2 114/5/2 125/5/2
f 125/5/2 114/5/2 126/5/2
f 115/5/2 116/5/2 127/5/2
f 127/5/2 116/5/2 128/5/2
f 128/5/2 116/5/2 129/5/2
f 117/5/2 118/5/2 132/5/2
f 132/5/2 118/5/2 133/5/2
f 133/5/2 118/5/2 134/5/2
f 119/5/2 120/5/2 135/5/2
f 135/5/2 120/5/2 136/5/2
f 121/5/2 122/5/2 137/5/2
f 123/5/2 124/5/2 139/5/2
f 124/5/2 112/5/2 139/5/2
f 139/5/2 112/5/2 140/5/2
f 129/5/2 130/5/2 145/5/2
f 128/5/2 129/5/2 145/5/2
f 145/5/2 130/5/2 146/5/2
f 132/5/2 133/5/2 147/5/2
f 131/5/2 132/5/2 147/5/2
f 147/5/2 133/5/2 148/5/2
f 137/5/2 138/5/2 153/5/2
f 121/5/2 137/5/2 153/5/2
f 153/5/2 138/5/2 154/5/2
f 123/5/2 139/5/2 155/5/2
f 155/5/2 139/5/2 156/5/2
f 154/5/2 138/5/2 157/5/2
f 157/5/2 138/5/2 158/5/2
f 146/5/2 130/5/2 161/5/2
f 131/5/2 147/5/2 162/5/2
f 159/5/2 160/5/2 165/5/2
f 165/5/2 160/5/2 166/5/2
f 144/1/2 145/1/2 167/1/2
f 146/5/2 161/5/2 168/5/2
f 161/5/2 162/5/2 168/5/2
f 162/5/2 147/5/2 169/5/2
f 168/5/2 162/5/2 169/5/2
f 148/1/2 149/1/2 170/1/2
f 163/5/2 164/5/2 171/5/2
f 171/5/2 164/5/2 172/5/2
f 140/1/2 141/1/2 175/1/2
f 141/2/2 142/2/2 176/2/2
f 175/1/2 141/1/2 176/1/2
f 142/1/2 143/1/2 177/1/2
f 176/2/2 142/2/2 177/2/2
f 143/2/2 144/2/2 178/2/2
f 177/1/2 143/1/2 178/1/2
f 144/1/2 167/1/2 179/1/2
f 178/2/2 144/2/2 179/2/2
f 179/1/2 167/1/2 180/1/2
f 168/5/2 169/5/2 181/5/2
f 181/5/2 169/5/2 182/5/2
f 182/5/2 169/5/2 183/5/2
f 183/5/2 169/5/2 184/5/2
f 170/1/2 149/1/2 185/1/2
f 149/2/2 150/2/2 186/2/2
f 185/1/2 149/1/2 186/1/2
f 186/2/2 150/2/2 187/2/2
f 150/1/2 151/1/2 188/1/2
f 187/2/2 150/2/2 188/2/2
f 151/2/2 152/2/2 189/2/2
f 188/1/2 151/1/2 189/1/2
f 152/1/2 153/1/2 190/1/2
f 189/2/2 152/2/2 190/2/2
f 190/1/2 153/1/2 191/1/2
f 173/5/2 174/5/2 194/5/2
f 174/5/2 175/5/2 194/5/2
f 194/5/2 175/5/2 195/5/2
f 181/5/2 182/5/2 199/5/2
f 180/5/2 181/5/2 199/5/2
f 199/5/2 182/5/2 200/5/2
f 200/5/2 182/5/2 201/5/2
f 183/5/2 184/5/2 202/5/2
f 184/5/2 185/5/2 202/5/2
f 202/5/2 185/5/2 203/5/2
f 203/5/2 185/5/2 204/5/2
f 192/5/2 193/5/2 208/5/2
f 191/5/2 192/5/2 208/5/2
f 208/5/2 193/5/2 209/5/2
f 195/5/2 175/5/2 210/5/2
f 210/5/2 175/5/2 211/5/2
f 196/5/2 197/5/2 212/5/2
f 212/5/2 197/5/2 213/5/2
f 198/5/2 199/5/2 214/5/2
f 199/5/2 200/5/2 214/5/2
f 214/5/2 200/5/2 215/5/2
f 215/5/2 200/5/2 216/5/2
f 201/5/2 182/5/2 217/5/2
f 183/5/2 202/5/2 218/5/2
f 204/5/2 205/5/2 219/5/2
f 203/5/2 204/5/2 219/5/2
f 219/5/2 205/5/2 220/5/2
f 220/5/2 205/5/2 221/5/2
f 206/5/2 207/5/2 222/5/2
f 222/5/2 207/5/2 223/5/2
f 191/5/2 208/5/2 224/5/2
f 224/5/2 208/5/2 225/5/2
f 215/5/2 216/5/2 226/5/2
f 216/5/2 217/5/2 226/5/2
f 217/5/2 182/5/2 227/5/2
f 226/5/2 217/5/2 227/5/2
f 183/5/2 218/5/2 228/5/2
f 219/5/2 220/5/2 228/5/2
f 218/5/2 219/5/2 228/5/2
f 228/5/2 220/5/2 229/5/2
f 230/3/2 231/3/2 238/3/2
f 232/3/2 233/3/2 239/3/2
f 239/3/2 233/3/2 240/3/2
f 234/3/2 235/3/2 243/3/2
f 243/3/2 235/3/2 244/3/2
f 236/3/2 237/3/2 245/3/2
f 230/3/2 238/3/2 247/3/2
f 240/3/2 241/3/2 247/3/2
f 238/3/2 239/3/2 247/3/2
f 239/3/2 240/3/2 247/3/2
f 247/3/2 241/3/2 248/3/2
f 243/3/2 244/3/2 251/3/2
f 244/3/2 245/3/2 251/3/2
f 242/3/2 243/3/2 251/3/2
f 245/3/2 237/3/2 252/3/2
f 251/3/2 245/3/2 252/3/2
f 246/3/2 247/3/2 256/3/2
f 252/3/2 253/3/2 257/3/2
f 254/4/2 255/4/2 260/4/2
f 255/3/2 256/3/2 261/3/2
f 260/4/2 255/4/2 261/4/2
f 256/3/2 247/3/2 262/3/2
f 261/3/2 256/3/2 262/3/2
f 252/3/2 257/3/2 263/3/2
f 257/3/2 258/3/2 263/3/2
f 258/4/2 259/4/2 264/4/2
f 263/3/2 258/3/2 264/3/2
f 264/4/2 259/4/2 265/4/2
f 262/3/2 247/3/2 267/3/2
f 248/3/2 249/3/2 268/3/2
f 268/3/2 249/3/2 269/3/2
f 250/3/2 251/3/2 270/3/2
f 270/3/2 251/3/2 271/3/2
f 252/3/2 263/3/2 272/3/2
f 266/4/2 267/4/2 274/4/2
f 267/3/2 247/3/2 275/3/2
f 274/4/2 267/4/2 275/4/2
f 275/3/2 247/3/2 276/3/2
f 268/4/2 269/4/2 280/4/2
f 280/4/2 269/4/2 281/4/2
f 270/4/2 271/4/2 282/4/2
f 282/4/2 271/4/2 283/4/2
f 252/3/2 272/3/2 287/3/2
f 272/4/2 273/4/2 288/4/2
f 287/3/2 272/3/2 288/3/2
f 288/4/2 273/4/2 289/4/2
f 276/3/2 277/3/2 290/3/2
f 277/4/2 278/4/2 290/4/2
f 278/3/2 279/3/2 291/3/2
f 290/4/2 278/4/2 291/4/2
f 279/4/2 280/4/2 292/4/2
f 291/3/2 279/3/2 292/3/2
f 292/4/2 280/4/2 293/4/2
f 283/4/2 284/4/2 298/4/2
f 284/3/2 285/3/2 299/3/2
f 298/4/2 284/4/2 299/4/2
f 285/4/2 286/4/2 300/4/2
f 299/3/2 285/3/2 300/3/2
f 286/3/2 287/3/2 301/3/2
f 300/4/2 286/4/2 301/4/2
f 276/3/2 290/3/2 302/3/2
f 302/3/2 290/3/2 303/3/2
f 294/4/2 295/4/2 304/4/2
f 304/4/2 295/4/2 305/4/2
f 296/4/2 297/4/2 306/4/2
f 306/4/2 297/4/2 307/4/2
f 301/3/2 287/3/2 308/3/2
f 308/3/2 287/3/2 309/3/2
f 291/3/2 292/3/2 312/3/2
f 312/3/2 292/3/2 313/3/2
f 299/3/2 300/3/2 314/3/2
f 314/3/2 300/3/2 315/3/2
f 310/3/2 311/3/2 318/3/2
f 312/4/2 313/4/2 319/4/2
f 318/3/2 311/3/2 319/3/2
f 311/4/2 312/4/2 319/4/2
f 319/4/2 313/4/2 320/4/2
f 315/4/2 316/4/2 321/4/2
f 314/4/2 315/4/2 321/4/2
f 316/3/2 317/3/2 322/3/2
f 321/4/2 316/4/2 322/4/2
f 322/3/2 317/3/2 323/3/2
f 328/4/3 325/4/3 324/4/3
f 329/4/3 325/4/3 328/4/3
f 330/4/3 327/4/3 326/4/3
f 331/4/3 327/4/3 330/4/3
f 334/5/3 333/5/3 332/5/3
f 335/5/3 333/5/3 334/5/3
f 337/5/3 333/5/3 335/5/3
f 338/5/3 333/5/3 337/5/3
f 340/5/3 337/5/3 336/5/3
f 340/5/3 339/5/3 338/5/3
f 340/5/3 338/5/3 337/5/3
f 341/5/3 339/5/3 340/5/3
f 342/5/3 339/5/3 341/5/3
f 343/5/3 339/5/3 342/5/3
f 344/5/3 339/5/3 343/5/3
f 345/5/3 339/5/3 344/5/3
f 350/5/3 347/5/3 346/5/3
f 351/5/3 347/5/3 350/5/3
f 356/5/3 349/5/3 348/5/3
f 357/5/3 349/5/3 356/5/3
f 358/3/3 353/3/3 352/3/3
f 359/3/3 353/3/3 358/3/3
f 360/3/3 355/3/3 354/3/3
f 361/3/3 355/3/3 360/3/3
f 366/3/3 363/3/3 362/3/3
f 367/3/3 363/3/3 366/3/3
f 368/3/3 365/3/3 364/3/3
f 369/3/3 365/3/3 368/3/3
f 372/3/3 371/3/3 370/3/3
f 373/3/3 371/3/3 372/3/3
f 379/3/3 375/3/3 374/3/3
f 380/3/3 375/3/3 379/3/3
f 381/3/3 378/3/3 377/3/3
f 381/3/3 377/3/3 376/3/3
f 382/3/3 378/3/3 381/3/3
f 388/5/3 384/5/3 383/5/3
f 389/5/3 384/5/3 388/5/3
f 390/3/3 386/3/3 385/3/3
f 391/4/3 387/4/3 386/4/3
f 391/3/3 386/3/3 390/3/3
f 392/4/3 387/4/3 391/4/3
f 395/4/3 394/4/3 393/4/3
f 396/4/3 394/4/3 395/4/3
f 399/5/3 398/5/3 397/5/3
f 400/5/3 398/5/3 399/5/3
f 403/5/3 402/5/3 401/5/3
f 404/5/3 402/5/3 403/5/3
f 407/4/3 406/4/3 405/4/3
f 408/4/3 406/4/3 407/4/3
f 411/5/3 410/5/3 409/5/3
f 412/5/3 410/5/3 411/5/3
f 416/3/3 414/3/3 413/3/3
f 417/4/3 415/4/3 414/4/3
f 417/3/3 414/3/3 416/3/3
f 418/4/3 415/4/3 417/4/3
f 423/3/3 420/3/3 419/3/3
f 424/3/3 420/3/3 423/3/3
f 425/4/3 422/4/3 421/4/3
f 426/4/3 422/4/3 425/4/3
f 433/3/3 428/3/3 427/3/3
f 434/3/3 428/3/3 433/3/3
f 435/3/3 430/3/3 429/3/3
f 435/3/3 431/3/3 430/3/3
f 436/4/3 432/4/3 431/4/3
f 436/3/3 431/3/3 435/3/3
f 437/4/3 432/4/3 436/4/3
f 442/3/3 439/3/3 438/3/3
f 443/3/3 439/3/3 442/3/3
f 444/3/3 441/3/3 440/3/3
f 445/3/3 441/3/3 444/3/3
f 448/3/3 447/3/3 446/3/3
f 449/3/3 447/3/3 448/3/3
f 452/5/3 451/5/3 450/5/3
f 453/5/3 451/5/3 452/5/3
f 454/5/3 451/5/3 453/5/3
f 455/5/3 451/5/3 454/5/3
f 456/5/4 457/5/4 458/5/4
f 458/5/4 457/5/4 459/5/4
f 459/5/4 457/5/4 460/5/4
f 460/5/4 457/5/4 461/5/4
f 462/3/4 463/3/4 464/3/4
f 464/3/4 463/3/4 465/3/4
f 466/3/4 467/3/4 470/3/4
f 470/3/4 467/3/4 471/3/4
f 468/3/4 469/3/4 472/3/4
f 472/3/4 469/3/4 473/3/4
f 474/3/4 475/3/4 480/3/4
f 480/3/4 475/3/4 481/3/4
f 476/3/4 477/3/4 482/3/4
f 477/3/4 478/3/4 482/3/4
f 478/4/4 479/4/4 483/4/4
f 482/3/4 478/3/4 483/3/4
f 483/4/4 479/4/4 484/4/4
f 485/3/4 486/3/4 489/3/4
f 489/3/4 486/3/4 490/3/4
f 487/4/4 488/4/4 491/4/4
f 491/4/4 488/4/4 492/4/4
f 493/5/4 494/5/4 495/5/4
f 495/5/4 494/5/4 496/5/4
f 497/3/4 498/3/4 500/3/4
f 498/4/4 499/4/4 501/4/4
f 500/3/4 498/3/4 501/3/4
f 501/4/4 499/4/4 502/4/4
f 503/5/4 504/5/4 505/5/4
f 505/5/4 504/5/4 506/5/4
f 507/4/4 508/4/4 509/4/4
f 509/4/4 508/4/4 510/4/4
f 511/5/4 512/5/4 513/5/4
f 513/5/4 512/5/4 514/5/4
f 515/4/4 516/4/4 517/4/4
f 517/4/4 516/4/4 518/4/4
f 519/5/4 520/5/4 524/5/4
f 524/5/4 520/5/4 525/5/4
f 521/3/4 522/3/4 526/3/4
f 522/4/4 523/4/4 527/4/4
f 526/3/4 522/3/4 527/3/4
f 527/4/4 523/4/4 528/4/4
f 529/3/4 530/3/4 534/3/4
f 534/3/4 530/3/4 535/3/4
f 532/3/4 533/3/4 536/3/4
f 531/3/4 532/3/4 536/3/4
f 536/3/4 533/3/4 537/3/4
f 538/3/4 539/3/4 540/3/4
f 540/3/4 539/3/4 541/3/4
f 542/3/4 543/3/4 546/3/4
f 546/3/4 543/3/4 547/3/4
f 544/3/4 545/3/4 548/3/4
f 548/3/4 545/3/4 549/3/4
f 550/5/4 551/5/4 554/5/4
f 554/5/4 551/5/4 555/5/4
f 552/5/4 553/5/4 560/5/4
f 560/5/4 553/5/4 561/5/4
f 556/3/4 557/3/4 562/3/4
f 562/3/4 557/3/4 563/3/4
f 558/3/4 559/3/4 564/3/4
f 564/3/4 559/3/4 565/3/4
f 566/5/4 567/5/4 568/5/4
f 568/5/4 567/5/4 569/5/4
f 569/5/4 567/5/4 571/5/4
f 571/5/4 567/5/4 572/5/4
f 570/5/4 571/5/4 574/5/4
f 572/5/4 573/5/4 574/5/4
f 571/5/4 572/5/4 574/5/4
f 574/5/4 573/5/4 575/5/4
f 575/5/4 573/5/4 576/5/4
f 576/5/4 573/5/4 577/5/4
f 577/5/4 573/5/4 578/5/4
f 578/5/4 573/5/4 579/5/4
f 580/4/4 581/4/4 584/4/4
f 584/4/4 581/4/4 585/4/4
f 582/4/4 583/4/4 586/4/4
f 586/4/4 583/4/4 587/4/4
f 590/5/5 589/5/5 588/5/5
f 592/5/5 590/5/5 588/5/5
f 592/3/5 591/3/5 590/3/5
f 593/3/5 591/3/5 592/3/5
f 594/5/5 592/5/5 588/5/5
f 596/5/5 594/5/5 588/5/5
f 596/3/5 595/3/5 594/3/5
f 597/3/5 595/3/5 596/3/5
f 598/5/5 596/5/5 588/5/5
f 599/5/5 596/5/5 598/5/5
f 602/5/5 601/5/5 600/5/5
f 604/5/5 602/5/5 600/5/5
f 604/3/5 603/3/5 602/3/5
f 605/3/5 603/3/5 604/3/5
f 606/5/5 604/5/5 600/5/5
f 608/5/5 606/5/5 600/5/5
f 608/3/5 607/3/5 606/3/5
f 609/3/5 607/3/5 608/3/5
f 610/5/5 608/5/5 600/5/5
f 611/5/5 608/5/5 610/5/5
f 614/5/5 613/5/5 612/5/5
f 615/5/5 613/5/5 614/5/5
f 618/3/5 617/3/5 616/3/5
f 619/3/5 617/3/5 618/3/5
f 622/3/5 621/3/5 620/3/5
f 623/3/5 621/3/5 622/3/5
f 626/5/5 625/5/5 624/5/5
f 627/5/5 625/5/5 626/5/5
f 630/5/5 629/5/5 628/5/5
f 631/5/5 629/5/5 630/5/5
f 634/3/5 633/3/5 632/3/5
f 635/3/5 633/3/5 634/3/5
f 638/3/5 637/3/5 636/3/5
f 639/3/5 637/3/5 638/3/5
f 642/5/5 641/5/5 640/5/5
f 643/5/5 641/5/5 642/5/5
f 646/3/5 645/3/5 644/3/5
f 647/3/5 645/3/5 646/3/5
f 650/3/5 649/3/5 648/3/5
f 651/3/5 649/3/5 650/3/5
f 654/3/5 653/3/5 652/3/5
f 655/3/5 653/3/5 654/3/5
f 658/3/5 657/3/5 656/3/5
f 659/3/5 657/3/5 658/3/5
f 662/5/5 661/5/5 660/5/5
f 663/5/5 661/5/5 662/5/5
f 666/5/5 665/5/5 664/5/5
f 667/5/5 665/5/5 666/5/5
f 670/4/5 669/4/5 668/4/5
f 671/4/5 669/4/5 670/4/5
f 672/3/5 671/3/5 670/3/5
f 673/3/5 671/3/5 672/3/5
f 676/3/5 675/3/5 674/3/5
f 677/3/5 675/3/5 676/3/5
f 678/4/5 677/4/5 676/4/5
f 679/4/5 677/4/5 678/4/5
f 682/5/5 681/5/5 680/5/5
f 683/5/5 681/5/5 682/5/5
f 686/5/5 685/5/5 684/5/5
f 687/5/5 685/5/5 686/5/5
f 690/5/5 689/5/5 688/5/5
f 691/5/5 689/5/5 690/5/5
f 694/4/5 693/4/5 692/4/5
f 695/4/5 693/4/5 694/4/5
f 696/4/5 693/4/5 695/4/5
f 699/4/5 698/4/5 697/4/5
f 700/4/5 698/4/5 699/4/5
f 701/4/5 698/4/5 700/4/5
f 704/3/5 703/3/5 702/3/5
f 705/3/5 703/3/5 704/3/5
f 706/4/5 705/4/5 704/4/5
f 707/4/5 705/4/5 706/4/5
f 708/3/5 707/3/5 706/3/5
f 709/3/5 707/3/5 708/3/5
f 710/4/5 709/4/5 708/4/5
f 711/4/5 709/4/5 710/4/5
f 712/4/5 709/4/5 711/4/5
f 715/4/5 714/4/5 713/4/5
f 716/4/5 714/4/5 715/4/5
f 717/4/5 714/4/5 716/4/5
f 718/3/5 717/3/5 716/3/5
f 719/3/5 717/3/5 718/3/5
f 720/4/5 719/4/5 718/4/5
f 721/4/5 719/4/5 720/4/5
f 722/4/5 719/4/5 721/4/5
f 723/3/5 722/3/5 721/3/5
f 724/3/5 722/3/5 723/3/5
f 727/4/5 726/4/5 725/4/5
f 728/4/5 726/4/5 727/4/5
f 731/4/5 730/4/5 729/4/5
f 732/4/5 730/4/5 731/4/5
f 735/3/5 734/3/5 733/3/5
f 736/3/5 734/3/5 735/3/5
f 737/4/5 736/4/5 735/4/5
f 738/4/5 736/4/5 737/4/5
f 741/4/5 740/4/5 739/4/5
f 742/4/5 740/4/5 741/4/5
f 743/3/5 742/3/5 741/3/5
f 744/3/5 742/3/5 743/3/5
f 745/3/6 746/3/6 747/3/6
f 747/3/6 746/3/6 748/3/6
f 748/3/6 746/3/6 749/3/6
f 749/3/6 746/3/6 750/3/6
f 750/3/6 746/3/6 751/3/6
f 751/3/6 746/3/6 752/3/6
f 753/3/6 754/3/6 755/3/6
f 755/3/6 754/3/6 756/3/6
f 756/3/6 754/3/6 757/3/6
f 757/3/6 754/3/6 758/3/6
f 758/3/6 754/3/6 759/3/6
f 759/3/6 754/3/6 760/3/6
f 761/4/6 762/4/6 763/4/6
f 763/4/6 762/4/6 764/4/6
f 763/3/6 764/3/6 765/3/6
f 765/3/6 764/3/6 766/3/6
f 767/3/6 768/3/6 769/3/6
f 769/3/6 768/3/6 770/3/6
f 769/4/6 770/4/6 771/4/6
f 771/4/6 770/4/6 772/4/6
f 773/4/6 774/4/6 777/4/6
f 775/5/6 776/5/6 778/5/6
f 778/5/6 776/5/6 779/5/6
f 777/4/6 774/4/6 780/4/6
f 780/4/6 774/4/6 781/4/6
f 780/3/6 781/3/6 782/3/6
f 782/3/6 781/3/6 783/3/6
f 784/4/6 785/4/6 786/4/6
f 786/4/6 785/4/6 787/4/6
f 788/5/6 789/5/6 790/5/6
f 790/5/6 789/5/6 791/5/6
f 792/4/6 793/4/6 794/4/6
f 794/4/6 793/4/6 795/4/6
f 796/3/6 797/3/6 800/3/6
f 800/3/6 797/3/6 801/3/6
f 798/5/6 799/5/6 802/5/6
f 802/5/6 799/5/6 803/5/6
f 800/4/6 801/4/6 804/4/6
f 804/4/6 801/4/6 805/4/6
f 805/4/6 801/4/6 806/4/6
f 807/5/6 808/5/6 809/5/6
f 809/5/6 808/5/6 810/5/6
f 811/4/6 812/4/6 813/4/6
f 813/4/6 812/4/6 814/4/6
f 815/4/6 816/4/6 817/4/6
f 817/4/6 816/4/6 818/4/6
f 819/4/6 820/4/6 821/4/6
f 821/4/6 820/4/6 822/4/6
f 823/4/6 824/4/6 825/4/6
f 825/4/6 824/4/6 826/4/6
f 827/5/6 828/5/6 829/5/6
f 829/5/6 828/5/6 830/5/6
f 831/5/6 832/5/6 833/5/6
f 831/5/6 833/5/6 835/5/6
f 833/3/6 834/3/6 835/3/6
f 835/3/6 834/3/6 836/3/6
f 831/5/6 835/5/6 837/5/6
f 831/5/6 837/5/6 838/5/6
f 831/5/6 838/5/6 839/5/6
f 839/5/6 838/5/6 840/5/6
f 841/4/6 842/4/6 843/4/6
f 843/4/6 842/4/6 844/4/6
f 845/4/6 846/4/6 847/4/6
f 847/4/6 846/4/6 848/4/6
f 849/5/6 850/5/6 851/5/6
f 849/5/6 851/5/6 852/5/6
f 849/5/6 852/5/6 853/5/6
f 849/5/6 853/5/6 855/5/6
f 853/3/6 854/3/6 855/3/6
f 855/3/6 854/3/6 856/3/6
f 849/5/6 855/5/6 857/5/6
f 857/5/6 855/5/6 858/5/6
f 859/5/6 860/5/6 861/5/6
f 861/5/6 860/5/6 862/5/6
f 863/5/6 864/5/6 865/5/6
f 865/5/6 864/5/6 866/5/6
f 867/3/6 868/3/6 869/3/6
f 869/3/6 868/3/6 870/3/6
f 869/4/6 870/4/6 871/4/6
f 871/4/6 870/4/6 872/4/6
f 873/4/6 874/4/6 875/4/6
f 875/4/6 874/4/6 876/4/6
f 875/3/6 876/3/6 877/3/6
f 877/3/6 876/3/6 878/3/6
