# MagicaVoxel @ Ephtracy

# group
o 

# material
mtllib model-3.mtl
usemtl palette

# normals
vn 0 0 1
vn 0 0 -1
vn 1 0 0
vn -1 0 0
vn 0 -1 0
vn 0 1 0

# texcoords
vt 0.0292969 0.5
vt 0.0371094 0.5
vt 0.0410156 0.5
vt 0.0449219 0.5
vt 0.0605469 0.5

# verts
v 0.5 1.5 1.3
v -0.5 1.5 1.3
v 0.5 2.1 1.3
v 0.3 2.1 1.3
v 0.1 2.1 1.3
v -0.1 2.1 1.3
v -0.3 2.1 1.3
v -0.5 2.1 1.3
v 0.3 2.2 1.3
v 0.1 2.2 1.3
v -0.1 2.2 1.3
v -0.3 2.2 1.3
v 0.6 1.5 1.2
v 0.5 1.5 1.2
v -0.5 1.5 1.2
v -0.6 1.5 1.2
v 0.6 2.1 1.2
v 0.5 2.1 1.2
v 0.3 2.1 1.2
v 0.1 2.1 1.2
v -0.1 2.1 1.2
v -0.3 2.1 1.2
v -0.5 2.1 1.2
v -0.6 2.1 1.2
v 0.5 2.2 1.2
v 0.3 2.2 1.2
v 0.1 2.2 1.2
v -0.1 2.2 1.2
v -0.3 2.2 1.2
v -0.5 2.2 1.2
v 0.5 0.7 1.1
v -0.5 0.7 1.1
v 0.5 0.8 1.1
v -0.5 0.8 1.1
v 0.4 0.9 1.1
v 0.1 0.9 1.1
v -0.1 0.9 1.1
v -0.4 0.9 1.1
v 0.4 1 1.1
v 0.3 1 1.1
v 0.2 1 1.1
v 0.1 1 1.1
v -0.1 1 1.1
v -0.2 1 1.1
v -0.3 1 1.1
v -0.4 1 1.1
v 0.4 1.1 1.1
v 0.3 1.1 1.1
v 0.2 1.1 1.1
v 0.1 1.1 1.1
v -0.1 1.1 1.1
v -0.2 1.1 1.1
v -0.3 1.1 1.1
v -0.4 1.1 1.1
v 0.4 1.2 1.1
v 0.3 1.2 1.1
v 0.2 1.2 1.1
v 0.1 1.2 1.1
v -0.1 1.2 1.1
v -0.2 1.2 1.1
v -0.3 1.2 1.1
v -0.4 1.2 1.1
v 0.3 1.3 1.1
v 0.2 1.3 1.1
v -0.2 1.3 1.1
v -0.3 1.3 1.1
v 0.3 1.4 1.1
v 0.2 1.4 1.1
v -0.2 1.4 1.1
v -0.3 1.4 1.1
v 0.5 1.5 1.1
v -0.5 1.5 1.1
v 0.6 0.7 1
v 0.5 0.7 1
v -0.5 0.7 1
v -0.6 0.7 1
v 0.6 0.8 1
v 0.5 0.8 1
v -0.5 0.8 1
v -0.6 0.8 1
v 0.6 1.5 1
v 0.5 1.5 1
v -0.5 1.5 1
v -0.6 1.5 1
v 0.6 1.5 0.8
v 0.5 1.5 0.8
v -0.5 1.5 0.8
v -0.6 1.5 0.8
v 0.6 1.9 0.8
v 0.5 1.9 0.8
v -0.5 1.9 0.8
v -0.6 1.9 0.8
v 0.6 1.9 0.6
v -0.6 1.9 0.6
v 0.6 2.1 0.6
v 0.5 2.1 0.6
v -0.5 2.1 0.6
v -0.6 2.1 0.6
v 0.5 2.2 0.6
v -0.5 2.2 0.6
v 0.7 1.2 0.3
v 0.5 1.2 0.3
v 0.6 1.3 0.3
v 0.5 1.3 0.3
v -0.5 1.5 0.3
v -0.6 1.5 0.3
v 0.7 1.7 0.3
v 0.6 1.7 0.3
v -0.5 1.8 0.3
v -0.6 1.8 0.3
v 0.6 1.7 0.1
v 0.1 1.7 0.1
v 0.6 1.8 0.1
v 0.1 1.8 0.1
v 0.7 1.2 -0.0999999
v 0.5 1.2 -0.0999999
v 0.6 1.3 -0.0999999
v 0.5 1.3 -0.0999999
v -0.5 1.5 -0.0999999
v -0.6 1.5 -0.0999999
v 0.7 1.7 -0.0999999
v 0.6 1.7 -0.0999999
v -0.5 1.8 -0.0999999
v -0.6 1.8 -0.0999999
v 0.6 1.7 -0.3
v 0.1 1.7 -0.3
v 0.6 1.8 -0.3
v 0.1 1.8 -0.3
v 0.6 0.7 -0.4
v 0.5 0.7 -0.4
v 0.6 1.3 -0.4
v 0.5 1.3 -0.4
v -0.5 1.5 -0.4
v -0.6 1.5 -0.4
v 0.6 1.8 -0.4
v 0.5 1.8 -0.4
v -0.5 1.8 -0.4
v 0.6 2.1 -0.4
v 0.5 2.1 -0.4
v -0.5 2.1 -0.4
v -0.6 2.1 -0.4
v 0.5 2.2 -0.4
v -0.5 2.2 -0.4
v 0.5 1.9 -0.8
v -0.5 1.9 -0.8
v 0.5 2.2 -0.8
v -0.5 2.2 -0.8
v 0.6 1.5 -1
v 0.5 1.5 -1
v -0.5 1.5 -1
v -0.6 1.5 -1
v 0.6 2.1 -1
v 0.5 2.1 -1
v -0.5 2.1 -1
v -0.6 2.1 -1
v 0.6 1.5 1
v 0.5 1.5 1
v -0.5 1.5 1
v -0.6 1.5 1
v 0.6 2.1 1
v 0.5 2.1 1
v -0.5 2.1 1
v -0.6 2.1 1
v 0.5 1.9 0.8
v -0.5 1.9 0.8
v 0.5 2.2 0.8
v -0.5 2.2 0.8
v 0.6 0.7 0.4
v 0.5 0.7 0.4
v 0.6 1.3 0.4
v 0.5 1.3 0.4
v -0.5 1.5 0.4
v -0.6 1.5 0.4
v 0.6 1.8 0.4
v 0.5 1.8 0.4
v -0.5 1.8 0.4
v 0.6 2.1 0.4
v 0.5 2.1 0.4
v -0.5 2.1 0.4
v -0.6 2.1 0.4
v 0.5 2.2 0.4
v -0.5 2.2 0.4
v 0.6 1.7 0.3
v 0.1 1.7 0.3
v 0.6 1.8 0.3
v 0.1 1.8 0.3
v 0.7 1.2 0.1
v 0.5 1.2 0.1
v 0.6 1.3 0.1
v 0.5 1.3 0.1
v -0.5 1.5 0.1
v -0.6 1.5 0.1
v 0.7 1.7 0.1
v 0.6 1.7 0.1
v -0.5 1.8 0.1
v -0.6 1.8 0.1
v 0.6 1.7 -0.0999999
v 0.1 1.7 -0.0999999
v 0.6 1.8 -0.0999999
v 0.1 1.8 -0.0999999
v 0.7 1.2 -0.3
v 0.5 1.2 -0.3
v 0.6 1.3 -0.3
v 0.5 1.3 -0.3
v -0.5 1.5 -0.3
v -0.6 1.5 -0.3
v 0.7 1.7 -0.3
v 0.6 1.7 -0.3
v -0.5 1.8 -0.3
v -0.6 1.8 -0.3
v 0.6 1.9 -0.6
v -0.6 1.9 -0.6
v 0.6 2.1 -0.6
v 0.5 2.1 -0.6
v -0.5 2.1 -0.6
v -0.6 2.1 -0.6
v 0.5 2.2 -0.6
v -0.5 2.2 -0.6
v 0.6 1.5 -0.8
v 0.5 1.5 -0.8
v -0.5 1.5 -0.8
v -0.6 1.5 -0.8
v 0.6 1.9 -0.8
v 0.5 1.9 -0.8
v -0.5 1.9 -0.8
v -0.6 1.9 -0.8
v 0.6 0.7 -1
v 0.5 0.7 -1
v -0.5 0.7 -1
v -0.6 0.7 -1
v 0.6 0.8 -1
v 0.5 0.8 -1
v -0.5 0.8 -1
v -0.6 0.8 -1
v 0.6 1.5 -1
v 0.5 1.5 -1
v -0.5 1.5 -1
v -0.6 1.5 -1
v 0.5 0.7 -1.1
v -0.5 0.7 -1.1
v 0.5 0.8 -1.1
v -0.5 0.8 -1.1
v 0.4 0.9 -1.1
v 0.1 0.9 -1.1
v -0.1 0.9 -1.1
v -0.4 0.9 -1.1
v 0.4 1 -1.1
v 0.3 1 -1.1
v 0.2 1 -1.1
v 0.1 1 -1.1
v -0.1 1 -1.1
v -0.2 1 -1.1
v -0.3 1 -1.1
v -0.4 1 -1.1
v 0.4 1.1 -1.1
v 0.3 1.1 -1.1
v 0.2 1.1 -1.1
v 0.1 1.1 -1.1
v -0.1 1.1 -1.1
v -0.2 1.1 -1.1
v -0.3 1.1 -1.1
v -0.4 1.1 -1.1
v 0.4 1.2 -1.1
v 0.3 1.2 -1.1
v 0.2 1.2 -1.1
v 0.1 1.2 -1.1
v -0.1 1.2 -1.1
v -0.2 1.2 -1.1
v -0.3 1.2 -1.1
v -0.4 1.2 -1.1
v 0.3 1.3 -1.1
v 0.2 1.3 -1.1
v -0.2 1.3 -1.1
v -0.3 1.3 -1.1
v 0.3 1.4 -1.1
v 0.2 1.4 -1.1
v -0.2 1.4 -1.1
v -0.3 1.4 -1.1
v 0.5 1.5 -1.1
v -0.5 1.5 -1.1
v 0.6 1.5 -1.2
v 0.5 1.5 -1.2
v -0.5 1.5 -1.2
v -0.6 1.5 -1.2
v 0.6 2.1 -1.2
v 0.5 2.1 -1.2
v 0.3 2.1 -1.2
v 0.1 2.1 -1.2
v -0.1 2.1 -1.2
v -0.3 2.1 -1.2
v -0.5 2.1 -1.2
v -0.6 2.1 -1.2
v 0.5 2.2 -1.2
v 0.3 2.2 -1.2
v 0.1 2.2 -1.2
v -0.1 2.2 -1.2
v -0.3 2.2 -1.2
v -0.5 2.2 -1.2
v 0.5 1.5 -1.3
v -0.5 1.5 -1.3
v 0.5 2.1 -1.3
v 0.3 2.1 -1.3
v 0.1 2.1 -1.3
v -0.1 2.1 -1.3
v -0.3 2.1 -1.3
v -0.5 2.1 -1.3
v 0.3 2.2 -1.3
v 0.1 2.2 -1.3
v -0.1 2.2 -1.3
v -0.3 2.2 -1.3
v 0.7 1.2 0.3
v 0.7 1.7 0.3
v 0.7 1.2 0.1
v 0.7 1.7 0.1
v 0.7 1.2 -0.0999999
v 0.7 1.7 -0.0999999
v 0.7 1.2 -0.3
v 0.7 1.7 -0.3
v 0.6 1.5 1.2
v 0.6 2.1 1.2
v 0.6 0.7 1
v 0.6 0.8 1
v 0.6 1.5 1
v 0.6 2.1 1
v 0.6 0.9 0.9
v 0.6 1 0.9
v 0.6 1.1 0.9
v 0.6 1.2 0.9
v 0.6 1 0.8
v 0.6 1.1 0.8
v 0.6 1.2 0.8
v 0.6 1.3 0.8
v 0.6 1.4 0.8
v 0.6 1.5 0.8
v 0.6 1.9 0.8
v 0.6 1 0.7
v 0.6 1.1 0.7
v 0.6 1.2 0.7
v 0.6 1.3 0.7
v 0.6 1.4 0.7
v 0.6 0.9 0.6
v 0.6 1 0.6
v 0.6 1.1 0.6
v 0.6 1.2 0.6
v 0.6 1.5 0.6
v 0.6 1.9 0.6
v 0.6 2.1 0.6
v 0.6 0.8 0.5
v 0.6 2.1 0.5
v 0.6 0.7 0.4
v 0.6 1.3 0.4
v 0.6 1.8 0.4
v 0.6 2.1 0.4
v 0.6 1.3 0.3
v 0.6 1.7 0.3
v 0.6 1.8 0.3
v 0.6 1.3 0.1
v 0.6 1.7 0.1
v 0.6 1.8 0.1
v 0.6 1.3 -0.0999999
v 0.6 1.7 -0.0999999
v 0.6 1.8 -0.0999999
v 0.6 1.3 -0.3
v 0.6 1.7 -0.3
v 0.6 1.8 -0.3
v 0.6 0.7 -0.4
v 0.6 1.3 -0.4
v 0.6 1.8 -0.4
v 0.6 2.1 -0.4
v 0.6 0.8 -0.5
v 0.6 2.1 -0.5
v 0.6 0.9 -0.6
v 0.6 1 -0.6
v 0.6 1.1 -0.6
v 0.6 1.2 -0.6
v 0.6 1.5 -0.6
v 0.6 1.9 -0.6
v 0.6 2.1 -0.6
v 0.6 1 -0.7
v 0.6 1.1 -0.7
v 0.6 1.2 -0.7
v 0.6 1.3 -0.7
v 0.6 1.4 -0.7
v 0.6 1 -0.8
v 0.6 1.1 -0.8
v 0.6 1.2 -0.8
v 0.6 1.3 -0.8
v 0.6 1.4 -0.8
v 0.6 1.5 -0.8
v 0.6 1.9 -0.8
v 0.6 0.9 -0.9
v 0.6 1 -0.9
v 0.6 1.1 -0.9
v 0.6 1.2 -0.9
v 0.6 0.7 -1
v 0.6 0.8 -1
v 0.6 1.5 -1
v 0.6 2.1 -1
v 0.6 1.5 -1.2
v 0.6 2.1 -1.2
v 0.5 1.5 1.3
v 0.5 2.1 1.3
v 0.5 1.5 1.2
v 0.5 2.1 1.2
v 0.5 2.2 1.2
v 0.5 0.7 1.1
v 0.5 0.8 1.1
v 0.5 1.5 1.1
v 0.5 0.7 1
v 0.5 0.8 1
v 0.5 1.5 1
v 0.5 2.1 1
v 0.5 2.2 1
v 0.5 1.5 0.8
v 0.5 1.9 0.8
v 0.5 2.2 0.8
v 0.5 2.1 0.6
v 0.5 2.2 0.6
v 0.5 2.1 0.5
v 0.5 0.7 0.4
v 0.5 1.3 0.4
v 0.5 2.1 0.4
v 0.5 2.2 0.4
v 0.5 1.2 0.3
v 0.5 1.3 0.3
v 0.5 1.2 0.1
v 0.5 1.3 0.1
v 0.5 1.2 -0.0999999
v 0.5 1.3 -0.0999999
v 0.5 1.2 -0.3
v 0.5 1.3 -0.3
v 0.5 0.7 -0.4
v 0.5 1.3 -0.4
v 0.5 2.1 -0.4
v 0.5 2.2 -0.4
v 0.5 2.1 -0.5
v 0.5 2.1 -0.6
v 0.5 2.2 -0.6
v 0.5 1.5 -0.8
v 0.5 1.9 -0.8
v 0.5 2.2 -0.8
v 0.5 0.7 -1
v 0.5 0.8 -1
v 0.5 1.5 -1
v 0.5 2.1 -1
v 0.5 2.2 -1
v 0.5 0.7 -1.1
v 0.5 0.8 -1.1
v 0.5 1.5 -1.1
v 0.5 1.5 -1.2
v 0.5 2.1 -1.2
v 0.5 2.2 -1.2
v 0.5 1.5 -1.3
v 0.5 2.1 -1.3
v 0.3 2.1 1.3
v 0.3 2.2 1.3
v 0.3 2.1 1.2
v 0.3 2.2 1.2
v 0.3 2.1 -1.2
v 0.3 2.2 -1.2
v 0.3 2.1 -1.3
v 0.3 2.2 -1.3
v 0.1 1.7 0.3
v 0.1 1.8 0.3
v 0.1 1.7 0.1
v 0.1 1.8 0.1
v 0.1 1.7 -0.0999999
v 0.1 1.8 -0.0999999
v 0.1 1.7 -0.3
v 0.1 1.8 -0.3
v -0.1 2.1 1.3
v -0.1 2.2 1.3
v -0.1 2.1 1.2
v -0.1 2.2 1.2
v -0.1 2.1 -1.2
v -0.1 2.2 -1.2
v -0.1 2.1 -1.3
v -0.1 2.2 -1.3
v 0.1 2.1 1.3
v 0.1 2.2 1.3
v 0.1 2.1 1.2
v 0.1 2.2 1.2
v 0.1 2.1 -1.2
v 0.1 2.2 -1.2
v 0.1 2.1 -1.3
v 0.1 2.2 -1.3
v -0.3 2.1 1.3
v -0.3 2.2 1.3
v -0.3 2.1 1.2
v -0.3 2.2 1.2
v -0.3 2.1 -1.2
v -0.3 2.2 -1.2
v -0.3 2.1 -1.3
v -0.3 2.2 -1.3
v -0.5 1.5 1.3
v -0.5 2.1 1.3
v -0.5 1.5 1.2
v -0.5 2.1 1.2
v -0.5 2.2 1.2
v -0.5 0.7 1.1
v -0.5 0.8 1.1
v -0.5 1.5 1.1
v -0.5 0.7 1
v -0.5 0.8 1
v -0.5 1.5 1
v -0.5 2.1 1
v -0.5 2.2 1
v -0.5 1.5 0.8
v -0.5 1.9 0.8
v -0.5 2.2 0.8
v -0.5 2.1 0.6
v -0.5 2.2 0.6
v -0.5 1.5 0.4
v -0.5 1.8 0.4
v -0.5 2.1 0.4
v -0.5 2.2 0.4
v -0.5 1.5 0.3
v -0.5 1.8 0.3
v -0.5 1.5 0.1
v -0.5 1.8 0.1
v -0.5 1.5 -0.0999999
v -0.5 1.8 -0.0999999
v -0.5 1.5 -0.3
v -0.5 1.8 -0.3
v -0.5 1.5 -0.4
v -0.5 1.8 -0.4
v -0.5 2.1 -0.4
v -0.5 2.2 -0.4
v -0.5 2.1 -0.6
v -0.5 2.2 -0.6
v -0.5 1.5 -0.8
v -0.5 1.9 -0.8
v -0.5 2.2 -0.8
v -0.5 0.7 -1
v -0.5 0.8 -1
v -0.5 1.5 -1
v -0.5 2.1 -1
v -0.5 2.2 -1
v -0.5 0.7 -1.1
v -0.5 0.8 -1.1
v -0.5 1.5 -1.1
v -0.5 1.5 -1.2
v -0.5 2.1 -1.2
v -0.5 2.2 -1.2
v -0.5 1.5 -1.3
v -0.5 2.1 -1.3
v -0.6 1.5 1.2
v -0.6 2.1 1.2
v -0.6 0.7 1
v -0.6 0.8 1
v -0.6 1.5 1
v -0.6 2.1 1
v -0.6 0.9 0.9
v -0.6 1 0.9
v -0.6 1.1 0.9
v -0.6 1.2 0.9
v -0.6 1 0.8
v -0.6 1.1 0.8
v -0.6 1.2 0.8
v -0.6 1.3 0.8
v -0.6 1.4 0.8
v -0.6 1.5 0.8
v -0.6 1.9 0.8
v -0.6 1 0.7
v -0.6 1.1 0.7
v -0.6 1.2 0.7
v -0.6 1.3 0.7
v -0.6 1.4 0.7
v -0.6 0.9 0.6
v -0.6 1 0.6
v -0.6 1.1 0.6
v -0.6 1.2 0.6
v -0.6 1.5 0.6
v -0.6 1.9 0.6
v -0.6 2.1 0.6
v -0.6 0.9 0.4
v -0.6 1 0.4
v -0.6 1.1 0.4
v -0.6 1.2 0.4
v -0.6 1.5 0.4
v -0.6 2.1 0.4
v -0.6 1 0.3
v -0.6 1.1 0.3
v -0.6 1.2 0.3
v -0.6 1.3 0.3
v -0.6 1.4 0.3
v -0.6 1.5 0.3
v -0.6 1.8 0.3
v -0.6 1 0.2
v -0.6 1.1 0.2
v -0.6 1.2 0.2
v -0.6 1.3 0.2
v -0.6 1.4 0.2
v -0.6 0.9 0.1
v -0.6 1 0.1
v -0.6 1.1 0.1
v -0.6 1.2 0.1
v -0.6 1.5 0.1
v -0.6 1.8 0.1
v -0.6 0.9 -0.0999999
v -0.6 1 -0.0999999
v -0.6 1.1 -0.0999999
v -0.6 1.2 -0.0999999
v -0.6 1.5 -0.0999999
v -0.6 1.8 -0.0999999
v -0.6 1 -0.2
v -0.6 1.1 -0.2
v -0.6 1.2 -0.2
v -0.6 1.3 -0.2
v -0.6 1.4 -0.2
v -0.6 1 -0.3
v -0.6 1.1 -0.3
v -0.6 1.2 -0.3
v -0.6 1.3 -0.3
v -0.6 1.4 -0.3
v -0.6 1.5 -0.3
v -0.6 1.8 -0.3
v -0.6 0.9 -0.4
v -0.6 1 -0.4
v -0.6 1.1 -0.4
v -0.6 1.2 -0.4
v -0.6 1.5 -0.4
v -0.6 2.1 -0.4
v -0.6 0.9 -0.6
v -0.6 1 -0.6
v -0.6 1.1 -0.6
v -0.6 1.2 -0.6
v -0.6 1.5 -0.6
v -0.6 1.9 -0.6
v -0.6 2.1 -0.6
v -0.6 1 -0.7
v -0.6 1.1 -0.7
v -0.6 1.2 -0.7
v -0.6 1.3 -0.7
v -0.6 1.4 -0.7
v -0.6 1 -0.8
v -0.6 1.1 -0.8
v -0.6 1.2 -0.8
v -0.6 1.3 -0.8
v -0.6 1.4 -0.8
v -0.6 1.5 -0.8
v -0.6 1.9 -0.8
v -0.6 0.9 -0.9
v -0.6 1 -0.9
v -0.6 1.1 -0.9
v -0.6 1.2 -0.9
v -0.6 0.7 -1
v -0.6 0.8 -1
v -0.6 1.5 -1
v -0.6 2.1 -1
v -0.6 1.5 -1.2
v -0.6 2.1 -1.2
v 0.6 0.7 1
v 0.6 0.7 0.4
v 0.6 0.7 -0.4
v 0.6 0.7 -1
v 0.5 0.7 1.1
v 0.5 0.7 1
v 0.5 0.7 0.4
v 0.5 0.7 -0.4
v 0.5 0.7 -1
v 0.5 0.7 -1.1
v -0.4 0.7 0.4
v -0.4 0.7 -0.4
v -0.5 0.7 1.1
v -0.5 0.7 1
v -0.5 0.7 -1
v -0.5 0.7 -1.1
v -0.6 0.7 1
v -0.6 0.7 -1
v 0.7 1.2 0.3
v 0.7 1.2 0.1
v 0.7 1.2 -0.0999999
v 0.7 1.2 -0.3
v 0.5 1.2 0.3
v 0.5 1.2 0.1
v 0.5 1.2 -0.0999999
v 0.5 1.2 -0.3
v 0.6 1.3 0.4
v 0.6 1.3 0.3
v 0.6 1.3 0.1
v 0.6 1.3 -0.0999999
v 0.6 1.3 -0.3
v 0.6 1.3 -0.4
v 0.5 1.3 0.4
v 0.5 1.3 0.3
v 0.5 1.3 0.1
v 0.5 1.3 -0.0999999
v 0.5 1.3 -0.3
v 0.5 1.3 -0.4
v 0.6 1.5 1.2
v 0.6 1.5 1
v 0.6 1.5 -1
v 0.6 1.5 -1.2
v 0.5 1.5 1.3
v 0.5 1.5 1.2
v 0.5 1.5 1.1
v 0.5 1.5 1
v 0.5 1.5 -1
v 0.5 1.5 -1.1
v 0.5 1.5 -1.2
v 0.5 1.5 -1.3
v -0.5 1.5 1.3
v -0.5 1.5 1.2
v -0.5 1.5 1.1
v -0.5 1.5 1
v -0.5 1.5 -1
v -0.5 1.5 -1.1
v -0.5 1.5 -1.2
v -0.5 1.5 -1.3
v -0.6 1.5 1.2
v -0.6 1.5 1
v -0.6 1.5 -1
v -0.6 1.5 -1.2
v 0.6 1.5 1
v 0.6 1.5 0.8
v 0.6 1.5 -0.8
v 0.6 1.5 -1
v 0.5 1.5 1
v 0.5 1.5 0.8
v 0.5 1.5 -0.8
v 0.5 1.5 -1
v -0.5 1.5 1
v -0.5 1.5 0.8
v -0.5 1.5 0.4
v -0.5 1.5 0.3
v -0.5 1.5 0.1
v -0.5 1.5 -0.0999999
v -0.5 1.5 -0.3
v -0.5 1.5 -0.4
v -0.5 1.5 -0.8
v -0.5 1.5 -1
v -0.6 1.5 1
v -0.6 1.5 0.8
v -0.6 1.5 0.4
v -0.6 1.5 0.3
v -0.6 1.5 0.1
v -0.6 1.5 -0.0999999
v -0.6 1.5 -0.3
v -0.6 1.5 -0.4
v -0.6 1.5 -0.8
v -0.6 1.5 -1
v 0.7 1.7 0.3
v 0.7 1.7 0.1
v 0.7 1.7 -0.0999999
v 0.7 1.7 -0.3
v 0.6 1.7 0.3
v 0.6 1.7 0.1
v 0.6 1.7 -0.0999999
v 0.6 1.7 -0.3
v 0.1 1.7 0.3
v 0.1 1.7 0.1
v 0.1 1.7 -0.0999999
v 0.1 1.7 -0.3
v 0.6 1.8 0.4
v 0.6 1.8 0.3
v 0.6 1.8 0.1
v 0.6 1.8 -0.0999999
v 0.6 1.8 -0.3
v 0.6 1.8 -0.4
v 0.5 1.8 0.4
v 0.5 1.8 -0.4
v 0.1 1.8 0.3
v 0.1 1.8 0.1
v 0.1 1.8 -0.0999999
v 0.1 1.8 -0.3
v -0.5 1.8 0.4
v -0.5 1.8 0.3
v -0.5 1.8 0.1
v -0.5 1.8 -0.0999999
v -0.5 1.8 -0.3
v -0.5 1.8 -0.4
v -0.6 1.8 0.3
v -0.6 1.8 0.1
v -0.6 1.8 -0.0999999
v -0.6 1.8 -0.3
v 0.6 1.9 0.8
v 0.6 1.9 0.6
v 0.6 1.9 -0.6
v 0.6 1.9 -0.8
v 0.5 1.9 0.8
v 0.5 1.9 -0.8
v -0.5 1.9 0.8
v -0.5 1.9 -0.8
v -0.6 1.9 0.8
v -0.6 1.9 0.6
v -0.6 1.9 -0.6
v -0.6 1.9 -0.8
v 0.6 2.1 1.2
v 0.6 2.1 1
v 0.6 2.1 0.6
v 0.6 2.1 0.5
v 0.6 2.1 0.4
v 0.6 2.1 -0.4
v 0.6 2.1 -0.5
v 0.6 2.1 -0.6
v 0.6 2.1 -1
v 0.6 2.1 -1.2
v 0.5 2.1 1.3
v 0.5 2.1 1.2
v 0.5 2.1 1
v 0.5 2.1 0.6
v 0.5 2.1 0.5
v 0.5 2.1 0.4
v 0.5 2.1 -0.4
v 0.5 2.1 -0.5
v 0.5 2.1 -0.6
v 0.5 2.1 -1
v 0.5 2.1 -1.2
v 0.5 2.1 -1.3
v 0.3 2.1 1.3
v 0.3 2.1 1.2
v 0.3 2.1 -1.2
v 0.3 2.1 -1.3
v 0.1 2.1 1.3
v 0.1 2.1 1.2
v 0.1 2.1 -1.2
v 0.1 2.1 -1.3
v -0.1 2.1 1.3
v -0.1 2.1 1.2
v -0.1 2.1 -1.2
v -0.1 2.1 -1.3
v -0.3 2.1 1.3
v -0.3 2.1 1.2
v -0.3 2.1 -1.2
v -0.3 2.1 -1.3
v -0.5 2.1 1.3
v -0.5 2.1 1.2
v -0.5 2.1 1
v -0.5 2.1 0.6
v -0.5 2.1 0.4
v -0.5 2.1 -0.4
v -0.5 2.1 -0.6
v -0.5 2.1 -1
v -0.5 2.1 -1.2
v -0.5 2.1 -1.3
v -0.6 2.1 1.2
v -0.6 2.1 1
v -0.6 2.1 0.6
v -0.6 2.1 0.4
v -0.6 2.1 -0.4
v -0.6 2.1 -0.6
v -0.6 2.1 -1
v -0.6 2.1 -1.2
v 0.5 2.2 1.2
v 0.5 2.2 1
v 0.5 2.2 0.8
v 0.5 2.2 0.6
v 0.5 2.2 0.4
v 0.5 2.2 -0.4
v 0.5 2.2 -0.6
v 0.5 2.2 -0.8
v 0.5 2.2 -1
v 0.5 2.2 -1.2
v 0.3 2.2 1.3
v 0.3 2.2 1.2
v 0.3 2.2 -1.2
v 0.3 2.2 -1.3
v 0.1 2.2 1.3
v 0.1 2.2 1.2
v 0.1 2.2 -1.2
v 0.1 2.2 -1.3
v -0.1 2.2 1.3
v -0.1 2.2 1.2
v -0.1 2.2 -1.2
v -0.1 2.2 -1.3
v -0.3 2.2 1.3
v -0.3 2.2 1.2
v -0.3 2.2 -1.2
v -0.3 2.2 -1.3
v -0.5 2.2 1.2
v -0.5 2.2 1
v -0.5 2.2 0.8
v -0.5 2.2 0.6
v -0.5 2.2 0.4
v -0.5 2.2 -0.4
v -0.5 2.2 -0.6
v -0.5 2.2 -0.8
v -0.5 2.2 -1
v -0.5 2.2 -1.2

# faces
f 3/1/1 2/1/1 1/1/1
f 4/1/1 2/1/1 3/1/1
f 5/1/1 2/1/1 4/1/1
f 6/1/1 2/1/1 5/1/1
f 7/1/1 2/1/1 6/1/1
f 8/1/1 2/1/1 7/1/1
f 9/1/1 5/1/1 4/1/1
f 10/1/1 5/1/1 9/1/1
f 11/1/1 7/1/1 6/1/1
f 12/1/1 7/1/1 11/1/1
f 17/1/1 14/1/1 13/1/1
f 18/1/1 14/1/1 17/1/1
f 23/1/1 16/1/1 15/1/1
f 24/1/1 16/1/1 23/1/1
f 25/1/1 19/1/1 18/1/1
f 26/1/1 19/1/1 25/1/1
f 27/1/1 21/1/1 20/1/1
f 28/1/1 21/1/1 27/1/1
f 29/1/1 23/1/1 22/1/1
f 30/1/1 23/1/1 29/1/1
f 33/3/1 32/3/1 31/3/1
f 34/3/1 32/3/1 33/3/1
f 35/2/1 34/2/1 33/2/1
f 36/2/1 34/2/1 35/2/1
f 37/2/1 34/2/1 36/2/1
f 38/2/1 34/2/1 37/2/1
f 39/2/1 35/2/1 33/2/1
f 39/4/1 36/4/1 35/4/1
f 40/4/1 36/4/1 39/4/1
f 41/4/1 36/4/1 40/4/1
f 42/2/1 37/2/1 36/2/1
f 42/4/1 36/4/1 41/4/1
f 43/4/1 38/4/1 37/4/1
f 43/2/1 37/2/1 42/2/1
f 44/4/1 38/4/1 43/4/1
f 45/4/1 38/4/1 44/4/1
f 46/2/1 34/2/1 38/2/1
f 46/4/1 38/4/1 45/4/1
f 47/2/1 39/2/1 33/2/1
f 47/2/1 40/2/1 39/2/1
f 48/4/1 41/4/1 40/4/1
f 48/2/1 40/2/1 47/2/1
f 49/2/1 42/2/1 41/2/1
f 49/4/1 41/4/1 48/4/1
f 49/2/1 43/2/1 42/2/1
f 49/2/1 44/2/1 43/2/1
f 50/2/1 44/2/1 49/2/1
f 51/2/1 44/2/1 50/2/1
f 52/4/1 45/4/1 44/4/1
f 52/2/1 44/2/1 51/2/1
f 53/2/1 46/2/1 45/2/1
f 53/4/1 45/4/1 52/4/1
f 54/2/1 34/2/1 46/2/1
f 54/2/1 46/2/1 53/2/1
f 55/4/1 48/4/1 47/4/1
f 55/2/1 47/2/1 33/2/1
f 56/2/1 49/2/1 48/2/1
f 56/4/1 48/4/1 55/4/1
f 57/4/1 50/4/1 49/4/1
f 57/2/1 49/2/1 56/2/1
f 58/2/1 51/2/1 50/2/1
f 58/4/1 50/4/1 57/4/1
f 59/4/1 52/4/1 51/4/1
f 59/2/1 51/2/1 58/2/1
f 60/2/1 53/2/1 52/2/1
f 60/4/1 52/4/1 59/4/1
f 61/4/1 54/4/1 53/4/1
f 61/2/1 53/2/1 60/2/1
f 62/2/1 34/2/1 54/2/1
f 62/4/1 54/4/1 61/4/1
f 63/2/1 57/2/1 56/2/1
f 63/2/1 61/2/1 60/2/1
f 63/2/1 62/2/1 61/2/1
f 63/2/1 56/2/1 55/2/1
f 63/2/1 60/2/1 59/2/1
f 63/2/1 58/2/1 57/2/1
f 63/2/1 59/2/1 58/2/1
f 64/2/1 62/2/1 63/2/1
f 65/2/1 62/2/1 64/2/1
f 66/2/1 62/2/1 65/2/1
f 67/2/1 63/2/1 55/2/1
f 67/4/1 64/4/1 63/4/1
f 68/2/1 65/2/1 64/2/1
f 68/4/1 64/4/1 67/4/1
f 69/4/1 66/4/1 65/4/1
f 69/2/1 65/2/1 68/2/1
f 70/2/1 62/2/1 66/2/1
f 70/4/1 66/4/1 69/4/1
f 71/2/1 55/2/1 33/2/1
f 71/2/1 69/2/1 68/2/1
f 71/2/1 70/2/1 69/2/1
f 71/2/1 67/2/1 55/2/1
f 71/2/1 68/2/1 67/2/1
f 72/2/1 34/2/1 62/2/1
f 72/2/1 70/2/1 71/2/1
f 72/2/1 62/2/1 70/2/1
f 77/3/1 74/3/1 73/3/1
f 78/3/1 74/3/1 77/3/1
f 79/3/1 76/3/1 75/3/1
f 80/3/1 76/3/1 79/3/1
f 81/2/1 78/2/1 77/2/1
f 82/2/1 78/2/1 81/2/1
f 83/2/1 80/2/1 79/2/1
f 84/2/1 80/2/1 83/2/1
f 89/1/1 86/1/1 85/1/1
f 90/1/1 86/1/1 89/1/1
f 91/1/1 88/1/1 87/1/1
f 92/1/1 88/1/1 91/1/1
f 95/2/1 94/2/1 93/2/1
f 96/2/1 94/2/1 95/2/1
f 97/2/1 94/2/1 96/2/1
f 98/2/1 94/2/1 97/2/1
f 99/2/1 97/2/1 96/2/1
f 100/2/1 97/2/1 99/2/1
f 103/1/1 102/1/1 101/1/1
f 104/1/1 102/1/1 103/1/1
f 107/1/1 103/1/1 101/1/1
f 108/1/1 103/1/1 107/1/1
f 109/1/1 106/1/1 105/1/1
f 110/1/1 106/1/1 109/1/1
f 113/5/1 112/5/1 111/5/1
f 114/5/1 112/5/1 113/5/1
f 117/1/1 116/1/1 115/1/1
f 118/1/1 116/1/1 117/1/1
f 121/1/1 117/1/1 115/1/1
f 122/1/1 117/1/1 121/1/1
f 123/1/1 120/1/1 119/1/1
f 124/1/1 120/1/1 123/1/1
f 127/5/1 126/5/1 125/5/1
f 128/5/1 126/5/1 127/5/1
f 131/3/1 130/3/1 129/3/1
f 132/3/1 130/3/1 131/3/1
f 137/2/1 134/2/1 133/2/1
f 138/3/1 136/3/1 135/3/1
f 139/2/1 137/2/1 136/2/1
f 139/3/1 136/3/1 138/3/1
f 140/2/1 134/2/1 137/2/1
f 140/2/1 137/2/1 139/2/1
f 141/2/1 134/2/1 140/2/1
f 142/2/1 140/2/1 139/2/1
f 143/2/1 140/2/1 142/2/1
f 146/5/1 145/5/1 144/5/1
f 147/5/1 145/5/1 146/5/1
f 152/1/1 149/1/1 148/1/1
f 153/1/1 149/1/1 152/1/1
f 154/1/1 151/1/1 150/1/1
f 155/1/1 151/1/1 154/1/1
f 156/1/2 157/1/2 160/1/2
f 160/1/2 157/1/2 161/1/2
f 158/1/2 159/1/2 162/1/2
f 162/1/2 159/1/2 163/1/2
f 164/5/2 165/5/2 166/5/2
f 166/5/2 165/5/2 167/5/2
f 168/3/2 169/3/2 170/3/2
f 170/3/2 169/3/2 171/3/2
f 172/2/2 173/2/2 176/2/2
f 174/3/2 175/3/2 177/3/2
f 175/2/2 176/2/2 178/2/2
f 177/3/2 175/3/2 178/3/2
f 176/2/2 173/2/2 179/2/2
f 178/2/2 176/2/2 179/2/2
f 179/2/2 173/2/2 180/2/2
f 178/2/2 179/2/2 181/2/2
f 181/2/2 179/2/2 182/2/2
f 183/5/2 184/5/2 185/5/2
f 185/5/2 184/5/2 186/5/2
f 187/1/2 188/1/2 189/1/2
f 189/1/2 188/1/2 190/1/2
f 187/1/2 189/1/2 193/1/2
f 193/1/2 189/1/2 194/1/2
f 191/1/2 192/1/2 195/1/2
f 195/1/2 192/1/2 196/1/2
f 197/5/2 198/5/2 199/5/2
f 199/5/2 198/5/2 200/5/2
f 201/1/2 202/1/2 203/1/2
f 203/1/2 202/1/2 204/1/2
f 201/1/2 203/1/2 207/1/2
f 207/1/2 203/1/2 208/1/2
f 205/1/2 206/1/2 209/1/2
f 209/1/2 206/1/2 210/1/2
f 211/2/2 212/2/2 213/2/2
f 213/2/2 212/2/2 214/2/2
f 214/2/2 212/2/2 215/2/2
f 215/2/2 212/2/2 216/2/2
f 214/2/2 215/2/2 217/2/2
f 217/2/2 215/2/2 218/2/2
f 219/1/2 220/1/2 223/1/2
f 223/1/2 220/1/2 224/1/2
f 221/1/2 222/1/2 225/1/2
f 225/1/2 222/1/2 226/1/2
f 227/3/2 228/3/2 231/3/2
f 231/3/2 228/3/2 232/3/2
f 229/3/2 230/3/2 233/3/2
f 233/3/2 230/3/2 234/3/2
f 231/2/2 232/2/2 235/2/2
f 235/2/2 232/2/2 236/2/2
f 233/2/2 234/2/2 237/2/2
f 237/2/2 234/2/2 238/2/2
f 239/3/2 240/3/2 241/3/2
f 241/3/2 240/3/2 242/3/2
f 241/2/2 242/2/2 243/2/2
f 243/2/2 242/2/2 244/2/2
f 244/2/2 242/2/2 245/2/2
f 245/2/2 242/2/2 246/2/2
f 241/2/2 243/2/2 247/2/2
f 243/4/2 244/4/2 247/4/2
f 247/4/2 244/4/2 248/4/2
f 248/4/2 244/4/2 249/4/2
f 244/2/2 245/2/2 250/2/2
f 249/4/2 244/4/2 250/4/2
f 245/4/2 246/4/2 251/4/2
f 250/2/2 245/2/2 251/2/2
f 251/4/2 246/4/2 252/4/2
f 252/4/2 246/4/2 253/4/2
f 246/2/2 242/2/2 254/2/2
f 253/4/2 246/4/2 254/4/2
f 241/2/2 247/2/2 255/2/2
f 247/2/2 248/2/2 255/2/2
f 248/4/2 249/4/2 256/4/2
f 255/2/2 248/2/2 256/2/2
f 249/2/2 250/2/2 257/2/2
f 256/4/2 249/4/2 257/4/2
f 250/2/2 251/2/2 257/2/2
f 251/2/2 252/2/2 257/2/2
f 257/2/2 252/2/2 258/2/2
f 258/2/2 252/2/2 259/2/2
f 252/4/2 253/4/2 260/4/2
f 259/2/2 252/2/2 260/2/2
f 253/2/2 254/2/2 261/2/2
f 260/4/2 253/4/2 261/4/2
f 254/2/2 242/2/2 262/2/2
f 261/2/2 254/2/2 262/2/2
f 255/4/2 256/4/2 263/4/2
f 241/2/2 255/2/2 263/2/2
f 256/2/2 257/2/2 264/2/2
f 263/4/2 256/4/2 264/4/2
f 257/4/2 258/4/2 265/4/2
f 264/2/2 257/2/2 265/2/2
f 258/2/2 259/2/2 266/2/2
f 265/4/2 258/4/2 266/4/2
f 259/4/2 260/4/2 267/4/2
f 266/2/2 259/2/2 267/2/2
f 260/2/2 261/2/2 268/2/2
f 267/4/2 260/4/2 268/4/2
f 261/4/2 262/4/2 269/4/2
f 268/2/2 261/2/2 269/2/2
f 262/2/2 242/2/2 270/2/2
f 269/4/2 262/4/2 270/4/2
f 264/2/2 265/2/2 271/2/2
f 268/2/2 269/2/2 271/2/2
f 269/2/2 270/2/2 271/2/2
f 263/2/2 264/2/2 271/2/2
f 267/2/2 268/2/2 271/2/2
f 265/2/2 266/2/2 271/2/2
f 266/2/2 267/2/2 271/2/2
f 271/2/2 270/2/2 272/2/2
f 272/2/2 270/2/2 273/2/2
f 273/2/2 270/2/2 274/2/2
f 263/2/2 271/2/2 275/2/2
f 271/4/2 272/4/2 275/4/2
f 272/2/2 273/2/2 276/2/2
f 275/4/2 272/4/2 276/4/2
f 273/4/2 274/4/2 277/4/2
f 276/2/2 273/2/2 277/2/2
f 274/2/2 270/2/2 278/2/2
f 277/4/2 274/4/2 278/4/2
f 241/2/2 263/2/2 279/2/2
f 276/2/2 277/2/2 279/2/2
f 277/2/2 278/2/2 279/2/2
f 263/2/2 275/2/2 279/2/2
f 275/2/2 276/2/2 279/2/2
f 270/2/2 242/2/2 280/2/2
f 279/2/2 278/2/2 280/2/2
f 278/2/2 270/2/2 280/2/2
f 281/1/2 282/1/2 285/1/2
f 285/1/2 282/1/2 286/1/2
f 283/1/2 284/1/2 291/1/2
f 291/1/2 284/1/2 292/1/2
f 286/1/2 287/1/2 293/1/2
f 293/1/2 287/1/2 294/1/2
f 288/1/2 289/1/2 295/1/2
f 295/1/2 289/1/2 296/1/2
f 290/1/2 291/1/2 297/1/2
f 297/1/2 291/1/2 298/1/2
f 299/1/2 300/1/2 301/1/2
f 301/1/2 300/1/2 302/1/2
f 302/1/2 300/1/2 303/1/2
f 303/1/2 300/1/2 304/1/2
f 304/1/2 300/1/2 305/1/2
f 305/1/2 300/1/2 306/1/2
f 302/1/2 303/1/2 307/1/2
f 307/1/2 303/1/2 308/1/2
f 304/1/2 305/1/2 309/1/2
f 309/1/2 305/1/2 310/1/2
f 313/1/3 312/1/3 311/1/3
f 314/1/3 312/1/3 313/1/3
f 317/1/3 316/1/3 315/1/3
f 318/1/3 316/1/3 317/1/3
f 323/1/3 320/1/3 319/1/3
f 324/1/3 320/1/3 323/1/3
f 325/2/3 323/2/3 322/2/3
f 326/2/3 323/2/3 325/2/3
f 327/2/3 323/2/3 326/2/3
f 328/2/3 323/2/3 327/2/3
f 329/4/3 326/4/3 325/4/3
f 329/2/3 327/2/3 326/2/3
f 330/4/3 328/4/3 327/4/3
f 330/2/3 327/2/3 329/2/3
f 331/2/3 323/2/3 328/2/3
f 331/4/3 328/4/3 330/4/3
f 332/2/3 323/2/3 331/2/3
f 333/2/3 323/2/3 332/2/3
f 334/2/3 323/2/3 333/2/3
f 336/4/3 330/4/3 329/4/3
f 336/4/3 329/4/3 325/4/3
f 337/2/3 331/2/3 330/2/3
f 337/4/3 330/4/3 336/4/3
f 337/2/3 332/2/3 331/2/3
f 338/2/3 332/2/3 337/2/3
f 339/4/3 333/4/3 332/4/3
f 339/2/3 332/2/3 338/2/3
f 340/2/3 334/2/3 333/2/3
f 340/4/3 333/4/3 339/4/3
f 341/2/3 325/2/3 322/2/3
f 341/4/3 336/4/3 325/4/3
f 342/2/3 337/2/3 336/2/3
f 342/4/3 336/4/3 341/4/3
f 343/4/3 338/4/3 337/4/3
f 343/2/3 337/2/3 342/2/3
f 344/2/3 339/2/3 338/2/3
f 344/4/3 338/4/3 343/4/3
f 344/2/3 340/2/3 339/2/3
f 345/2/3 334/2/3 340/2/3
f 345/2/3 340/2/3 344/2/3
f 345/1/3 335/1/3 334/1/3
f 346/1/3 335/1/3 345/1/3
f 348/3/3 322/3/3 321/3/3
f 348/2/3 347/2/3 346/2/3
f 348/2/3 346/2/3 345/2/3
f 348/2/3 345/2/3 344/2/3
f 348/2/3 341/2/3 322/2/3
f 348/2/3 343/2/3 342/2/3
f 348/2/3 342/2/3 341/2/3
f 348/2/3 344/2/3 343/2/3
f 349/2/3 347/2/3 348/2/3
f 350/3/3 348/3/3 321/3/3
f 350/3/3 349/3/3 348/3/3
f 351/3/3 349/3/3 350/3/3
f 352/3/3 349/3/3 351/3/3
f 353/3/3 349/3/3 352/3/3
f 354/5/3 352/5/3 351/5/3
f 355/5/3 352/5/3 354/5/3
f 356/5/3 352/5/3 355/5/3
f 360/5/3 358/5/3 357/5/3
f 360/5/3 359/5/3 358/5/3
f 361/5/3 359/5/3 360/5/3
f 362/5/3 359/5/3 361/5/3
f 367/5/3 364/5/3 363/5/3
f 367/5/3 365/5/3 364/5/3
f 368/5/3 365/5/3 367/5/3
f 370/3/3 368/3/3 367/3/3
f 370/3/3 369/3/3 368/3/3
f 370/3/3 367/3/3 366/3/3
f 371/3/3 369/3/3 370/3/3
f 372/2/3 371/2/3 370/2/3
f 373/2/3 371/2/3 372/2/3
f 374/2/3 371/2/3 373/2/3
f 375/2/3 371/2/3 374/2/3
f 376/2/3 371/2/3 375/2/3
f 377/2/3 371/2/3 376/2/3
f 378/2/3 371/2/3 377/2/3
f 379/4/3 373/4/3 372/4/3
f 379/2/3 374/2/3 373/2/3
f 380/4/3 375/4/3 374/4/3
f 380/2/3 374/2/3 379/2/3
f 381/2/3 376/2/3 375/2/3
f 381/4/3 375/4/3 380/4/3
f 382/2/3 376/2/3 381/2/3
f 383/2/3 376/2/3 382/2/3
f 384/4/3 379/4/3 372/4/3
f 384/4/3 380/4/3 379/4/3
f 385/2/3 381/2/3 380/2/3
f 385/4/3 380/4/3 384/4/3
f 385/2/3 382/2/3 381/2/3
f 386/2/3 382/2/3 385/2/3
f 387/4/3 383/4/3 382/4/3
f 387/2/3 382/2/3 386/2/3
f 388/2/3 376/2/3 383/2/3
f 388/4/3 383/4/3 387/4/3
f 389/1/3 377/1/3 376/1/3
f 389/2/3 376/2/3 388/2/3
f 390/1/3 377/1/3 389/1/3
f 391/2/3 372/2/3 370/2/3
f 391/4/3 384/4/3 372/4/3
f 392/2/3 385/2/3 384/2/3
f 392/4/3 384/4/3 391/4/3
f 393/4/3 386/4/3 385/4/3
f 393/2/3 385/2/3 392/2/3
f 394/2/3 388/2/3 387/2/3
f 394/4/3 386/4/3 393/4/3
f 394/2/3 387/2/3 386/2/3
f 394/2/3 389/2/3 388/2/3
f 395/3/3 370/3/3 366/3/3
f 396/2/3 393/2/3 392/2/3
f 396/3/3 370/3/3 395/3/3
f 396/2/3 391/2/3 370/2/3
f 396/2/3 394/2/3 393/2/3
f 396/2/3 392/2/3 391/2/3
f 397/2/3 389/2/3 394/2/3
f 397/2/3 394/2/3 396/2/3
f 399/1/3 398/1/3 397/1/3
f 400/1/3 398/1/3 399/1/3
f 403/1/3 402/1/3 401/1/3
f 404/1/3 402/1/3 403/1/3
f 409/3/3 407/3/3 406/3/3
f 410/2/3 408/2/3 407/2/3
f 410/3/3 407/3/3 409/3/3
f 411/2/3 408/2/3 410/2/3
f 412/1/3 405/1/3 404/1/3
f 413/1/3 405/1/3 412/1/3
f 414/5/3 413/5/3 412/5/3
f 414/5/3 412/5/3 411/5/3
f 415/5/3 413/5/3 414/5/3
f 416/5/3 413/5/3 415/5/3
f 419/2/3 418/2/3 417/2/3
f 422/2/3 418/2/3 419/2/3
f 423/2/3 418/2/3 422/2/3
f 424/1/3 421/1/3 420/1/3
f 425/1/3 421/1/3 424/1/3
f 426/1/3 424/1/3 420/1/3
f 428/1/3 426/1/3 420/1/3
f 428/1/3 427/1/3 426/1/3
f 429/1/3 427/1/3 428/1/3
f 430/1/3 428/1/3 420/1/3
f 432/1/3 430/1/3 420/1/3
f 432/1/3 431/1/3 430/1/3
f 433/1/3 431/1/3 432/1/3
f 436/2/3 435/2/3 434/2/3
f 437/2/3 435/2/3 436/2/3
f 438/2/3 435/2/3 437/2/3
f 444/5/3 440/5/3 439/5/3
f 444/5/3 441/5/3 440/5/3
f 445/5/3 441/5/3 444/5/3
f 446/5/3 441/5/3 445/5/3
f 447/3/3 443/3/3 442/3/3
f 448/2/3 444/2/3 443/2/3
f 448/3/3 443/3/3 447/3/3
f 449/2/3 444/2/3 448/2/3
f 451/1/3 446/1/3 445/1/3
f 452/1/3 446/1/3 451/1/3
f 453/1/3 451/1/3 450/1/3
f 454/1/3 451/1/3 453/1/3
f 457/1/3 456/1/3 455/1/3
f 458/1/3 456/1/3 457/1/3
f 461/1/3 460/1/3 459/1/3
f 462/1/3 460/1/3 461/1/3
f 465/1/3 464/1/3 463/1/3
f 466/1/3 464/1/3 465/1/3
f 469/1/3 468/1/3 467/1/3
f 470/1/3 468/1/3 469/1/3
f 473/1/3 472/1/3 471/1/3
f 474/1/3 472/1/3 473/1/3
f 477/1/3 476/1/3 475/1/3
f 478/1/3 476/1/3 477/1/3
f 479/1/4 480/1/4 481/1/4
f 481/1/4 480/1/4 482/1/4
f 483/1/4 484/1/4 485/1/4
f 485/1/4 484/1/4 486/1/4
f 487/1/4 488/1/4 489/1/4
f 489/1/4 488/1/4 490/1/4
f 491/1/4 492/1/4 493/1/4
f 493/1/4 492/1/4 494/1/4
f 495/1/4 496/1/4 497/1/4
f 497/1/4 496/1/4 498/1/4
f 500/3/4 501/3/4 503/3/4
f 501/2/4 502/2/4 504/2/4
f 503/3/4 501/3/4 504/3/4
f 504/2/4 502/2/4 505/2/4
f 498/1/4 499/1/4 506/1/4
f 506/1/4 499/1/4 507/1/4
f 506/5/4 507/5/4 508/5/4
f 505/5/4 506/5/4 508/5/4
f 508/5/4 507/5/4 509/5/4
f 509/5/4 507/5/4 510/5/4
f 511/2/4 512/2/4 515/2/4
f 515/2/4 512/2/4 516/2/4
f 513/5/4 514/5/4 517/5/4
f 517/5/4 514/5/4 518/5/4
f 519/5/4 520/5/4 521/5/4
f 521/5/4 520/5/4 522/5/4
f 523/5/4 524/5/4 525/5/4
f 525/5/4 524/5/4 526/5/4
f 527/2/4 528/2/4 529/2/4
f 529/2/4 528/2/4 530/2/4
f 531/5/4 532/5/4 536/5/4
f 532/5/4 533/5/4 536/5/4
f 536/5/4 533/5/4 537/5/4
f 537/5/4 533/5/4 538/5/4
f 534/3/4 535/3/4 539/3/4
f 535/2/4 536/2/4 540/2/4
f 539/3/4 535/3/4 540/3/4
f 540/2/4 536/2/4 541/2/4
f 537/1/4 538/1/4 543/1/4
f 543/1/4 538/1/4 544/1/4
f 542/1/4 543/1/4 545/1/4
f 545/1/4 543/1/4 546/1/4
f 547/1/4 548/1/4 551/1/4
f 551/1/4 548/1/4 552/1/4
f 550/2/4 551/2/4 553/2/4
f 553/2/4 551/2/4 554/2/4
f 554/2/4 551/2/4 555/2/4
f 555/2/4 551/2/4 556/2/4
f 553/4/4 554/4/4 557/4/4
f 554/2/4 555/2/4 557/2/4
f 555/4/4 556/4/4 558/4/4
f 557/2/4 555/2/4 558/2/4
f 556/2/4 551/2/4 559/2/4
f 558/4/4 556/4/4 559/4/4
f 559/2/4 551/2/4 560/2/4
f 560/2/4 551/2/4 561/2/4
f 561/2/4 551/2/4 562/2/4
f 557/4/4 558/4/4 564/4/4
f 553/4/4 557/4/4 564/4/4
f 558/2/4 559/2/4 565/2/4
f 564/4/4 558/4/4 565/4/4
f 559/2/4 560/2/4 565/2/4
f 565/2/4 560/2/4 566/2/4
f 560/4/4 561/4/4 567/4/4
f 566/2/4 560/2/4 567/2/4
f 561/2/4 562/2/4 568/2/4
f 567/4/4 561/4/4 568/4/4
f 550/2/4 553/2/4 569/2/4
f 553/4/4 564/4/4 569/4/4
f 564/2/4 565/2/4 570/2/4
f 569/4/4 564/4/4 570/4/4
f 565/4/4 566/4/4 571/4/4
f 570/2/4 565/2/4 571/2/4
f 566/2/4 567/2/4 572/2/4
f 571/4/4 566/4/4 572/4/4
f 567/2/4 568/2/4 572/2/4
f 568/2/4 562/2/4 573/2/4
f 572/2/4 568/2/4 573/2/4
f 562/1/4 563/1/4 573/1/4
f 573/1/4 563/1/4 574/1/4
f 571/2/4 572/2/4 576/2/4
f 574/2/4 575/2/4 576/2/4
f 573/2/4 574/2/4 576/2/4
f 572/2/4 573/2/4 576/2/4
f 550/2/4 569/2/4 576/2/4
f 570/2/4 571/2/4 576/2/4
f 569/2/4 570/2/4 576/2/4
f 576/2/4 575/2/4 577/2/4
f 577/2/4 575/2/4 578/2/4
f 578/2/4 575/2/4 579/2/4
f 579/2/4 575/2/4 580/2/4
f 580/2/4 575/2/4 581/2/4
f 576/4/4 577/4/4 582/4/4
f 577/2/4 578/2/4 582/2/4
f 578/4/4 579/4/4 583/4/4
f 582/2/4 578/2/4 583/2/4
f 579/2/4 580/2/4 584/2/4
f 583/4/4 579/4/4 584/4/4
f 584/2/4 580/2/4 585/2/4
f 585/2/4 580/2/4 586/2/4
f 586/2/4 580/2/4 587/2/4
f 582/4/4 583/4/4 589/4/4
f 576/4/4 582/4/4 589/4/4
f 583/2/4 584/2/4 590/2/4
f 589/4/4 583/4/4 590/4/4
f 584/2/4 585/2/4 590/2/4
f 590/2/4 585/2/4 591/2/4
f 585/4/4 586/4/4 592/4/4
f 591/2/4 585/2/4 592/2/4
f 586/2/4 587/2/4 593/2/4
f 592/4/4 586/4/4 593/4/4
f 550/2/4 576/2/4 594/2/4
f 576/4/4 589/4/4 594/4/4
f 589/2/4 590/2/4 595/2/4
f 594/4/4 589/4/4 595/4/4
f 590/4/4 591/4/4 596/4/4
f 595/2/4 590/2/4 596/2/4
f 591/2/4 592/2/4 597/2/4
f 596/4/4 591/4/4 597/4/4
f 592/2/4 593/2/4 597/2/4
f 593/2/4 587/2/4 598/2/4
f 597/2/4 593/2/4 598/2/4
f 587/1/4 588/1/4 598/1/4
f 598/1/4 588/1/4 599/1/4
f 596/2/4 597/2/4 600/2/4
f 594/2/4 595/2/4 600/2/4
f 597/2/4 598/2/4 600/2/4
f 550/2/4 594/2/4 600/2/4
f 595/2/4 596/2/4 600/2/4
f 600/2/4 598/2/4 601/2/4
f 601/2/4 598/2/4 602/2/4
f 602/2/4 598/2/4 603/2/4
f 603/2/4 598/2/4 604/2/4
f 600/4/4 601/4/4 606/4/4
f 601/2/4 602/2/4 606/2/4
f 602/4/4 603/4/4 607/4/4
f 606/2/4 602/2/4 607/2/4
f 603/2/4 604/2/4 608/2/4
f 607/4/4 603/4/4 608/4/4
f 608/2/4 604/2/4 609/2/4
f 609/2/4 604/2/4 610/2/4
f 606/4/4 607/4/4 611/4/4
f 600/4/4 606/4/4 611/4/4
f 607/2/4 608/2/4 612/2/4
f 611/4/4 607/4/4 612/4/4
f 608/2/4 609/2/4 612/2/4
f 612/2/4 609/2/4 613/2/4
f 609/4/4 610/4/4 614/4/4
f 613/2/4 609/2/4 614/2/4
f 610/2/4 604/2/4 615/2/4
f 614/4/4 610/4/4 615/4/4
f 604/1/4 605/1/4 616/1/4
f 615/2/4 604/2/4 616/2/4
f 616/1/4 605/1/4 617/1/4
f 550/2/4 600/2/4 618/2/4
f 600/4/4 611/4/4 618/4/4
f 611/2/4 612/2/4 619/2/4
f 618/4/4 611/4/4 619/4/4
f 612/4/4 613/4/4 620/4/4
f 619/2/4 612/2/4 620/2/4
f 614/2/4 615/2/4 621/2/4
f 620/4/4 613/4/4 621/4/4
f 613/2/4 614/2/4 621/2/4
f 615/2/4 616/2/4 621/2/4
f 621/2/4 616/2/4 622/2/4
f 621/2/4 622/2/4 624/2/4
f 622/2/4 623/2/4 624/2/4
f 618/2/4 619/2/4 624/2/4
f 550/2/4 618/2/4 624/2/4
f 619/2/4 620/2/4 624/2/4
f 620/2/4 621/2/4 624/2/4
f 624/2/4 623/2/4 625/2/4
f 625/2/4 623/2/4 626/2/4
f 626/2/4 623/2/4 627/2/4
f 627/2/4 623/2/4 628/2/4
f 628/2/4 623/2/4 629/2/4
f 629/2/4 623/2/4 630/2/4
f 624/4/4 625/4/4 631/4/4
f 625/2/4 626/2/4 631/2/4
f 626/4/4 627/4/4 632/4/4
f 631/2/4 626/2/4 632/2/4
f 627/2/4 628/2/4 633/2/4
f 632/4/4 627/4/4 633/4/4
f 633/2/4 628/2/4 634/2/4
f 634/2/4 628/2/4 635/2/4
f 624/4/4 631/4/4 636/4/4
f 631/4/4 632/4/4 636/4/4
f 632/2/4 633/2/4 637/2/4
f 636/4/4 632/4/4 637/4/4
f 633/2/4 634/2/4 637/2/4
f 637/2/4 634/2/4 638/2/4
f 634/4/4 635/4/4 639/4/4
f 638/2/4 634/2/4 639/2/4
f 635/2/4 628/2/4 640/2/4
f 639/4/4 635/4/4 640/4/4
f 628/1/4 629/1/4 641/1/4
f 640/2/4 628/2/4 641/2/4
f 641/1/4 629/1/4 642/1/4
f 550/2/4 624/2/4 643/2/4
f 624/4/4 636/4/4 643/4/4
f 636/2/4 637/2/4 644/2/4
f 643/4/4 636/4/4 644/4/4
f 637/4/4 638/4/4 645/4/4
f 644/2/4 637/2/4 645/2/4
f 639/2/4 640/2/4 646/2/4
f 645/4/4 638/4/4 646/4/4
f 638/2/4 639/2/4 646/2/4
f 640/2/4 641/2/4 646/2/4
f 549/3/4 550/3/4 647/3/4
f 644/2/4 645/2/4 648/2/4
f 647/3/4 550/3/4 648/3/4
f 550/2/4 643/2/4 648/2/4
f 645/2/4 646/2/4 648/2/4
f 643/2/4 644/2/4 648/2/4
f 646/2/4 641/2/4 649/2/4
f 648/2/4 646/2/4 649/2/4
f 649/1/4 650/1/4 651/1/4
f 651/1/4 650/1/4 652/1/4
f 658/3/5 654/3/5 653/3/5
f 659/3/5 654/3/5 658/3/5
f 660/3/5 656/3/5 655/3/5
f 661/3/5 656/3/5 660/3/5
f 663/3/5 659/3/5 658/3/5
f 663/3/5 658/3/5 657/3/5
f 663/1/5 660/1/5 659/1/5
f 664/3/5 662/3/5 661/3/5
f 664/1/5 660/1/5 663/1/5
f 664/3/5 661/3/5 660/3/5
f 665/3/5 663/3/5 657/3/5
f 665/3/5 664/3/5 663/3/5
f 666/3/5 664/3/5 665/3/5
f 667/3/5 662/3/5 664/3/5
f 667/3/5 664/3/5 666/3/5
f 668/3/5 662/3/5 667/3/5
f 669/3/5 667/3/5 666/3/5
f 670/3/5 667/3/5 669/3/5
f 675/1/5 672/1/5 671/1/5
f 676/1/5 672/1/5 675/1/5
f 677/1/5 674/1/5 673/1/5
f 678/1/5 674/1/5 677/1/5
f 685/5/5 680/5/5 679/5/5
f 686/5/5 680/5/5 685/5/5
f 687/5/5 682/5/5 681/5/5
f 688/5/5 682/5/5 687/5/5
f 689/5/5 684/5/5 683/5/5
f 690/5/5 684/5/5 689/5/5
f 696/1/5 692/1/5 691/1/5
f 697/1/5 692/1/5 696/1/5
f 698/1/5 692/1/5 697/1/5
f 699/1/5 694/1/5 693/1/5
f 700/1/5 694/1/5 699/1/5
f 701/1/5 694/1/5 700/1/5
f 703/1/5 696/1/5 695/1/5
f 703/1/5 697/1/5 696/1/5
f 704/1/5 697/1/5 703/1/5
f 705/1/5 697/1/5 704/1/5
f 708/1/5 702/1/5 701/1/5
f 708/1/5 701/1/5 700/1/5
f 709/1/5 702/1/5 708/1/5
f 710/1/5 702/1/5 709/1/5
f 711/1/5 706/1/5 705/1/5
f 711/1/5 705/1/5 704/1/5
f 712/1/5 706/1/5 711/1/5
f 713/1/5 709/1/5 708/1/5
f 713/1/5 708/1/5 707/1/5
f 714/1/5 709/1/5 713/1/5
f 715/2/6 716/2/6 719/2/6
f 719/2/6 716/2/6 720/2/6
f 717/2/6 718/2/6 721/2/6
f 721/2/6 718/2/6 722/2/6
f 723/2/6 724/2/6 733/2/6
f 733/2/6 724/2/6 734/2/6
f 725/2/6 726/2/6 735/2/6
f 735/2/6 726/2/6 736/2/6
f 727/2/6 728/2/6 737/2/6
f 737/2/6 728/2/6 738/2/6
f 729/2/6 730/2/6 739/2/6
f 739/2/6 730/2/6 740/2/6
f 731/2/6 732/2/6 741/2/6
f 741/2/6 732/2/6 742/2/6
f 743/1/6 744/1/6 747/1/6
f 747/1/6 744/1/6 748/1/6
f 745/1/6 746/1/6 749/1/6
f 749/1/6 746/1/6 750/1/6
f 747/1/6 748/1/6 751/1/6
f 751/1/6 748/1/6 752/1/6
f 749/1/6 750/1/6 753/1/6
f 753/1/6 750/1/6 754/1/6
f 755/5/6 756/5/6 761/5/6
f 759/5/6 760/5/6 762/5/6
f 761/5/6 756/5/6 763/5/6
f 757/5/6 758/5/6 764/5/6
f 764/5/6 758/5/6 765/5/6
f 759/5/6 762/5/6 766/5/6
f 761/5/6 763/5/6 767/5/6
f 763/1/6 764/1/6 768/1/6
f 767/5/6 763/5/6 768/5/6
f 764/5/6 765/5/6 769/5/6
f 768/1/6 764/1/6 769/1/6
f 765/1/6 766/1/6 770/1/6
f 769/5/6 765/5/6 770/5/6
f 766/5/6 762/5/6 771/5/6
f 770/1/6 766/1/6 771/1/6
f 771/5/6 762/5/6 772/5/6
f 768/1/6 769/1/6 773/1/6
f 773/1/6 769/1/6 774/1/6
f 770/1/6 771/1/6 775/1/6
f 775/1/6 771/1/6 776/1/6
f 777/1/6 778/1/6 781/1/6
f 779/1/6 780/1/6 782/1/6
f 781/1/6 778/1/6 783/1/6
f 779/1/6 782/1/6 784/1/6
f 783/1/6 778/1/6 785/1/6
f 785/1/6 778/1/6 786/1/6
f 779/1/6 784/1/6 787/1/6
f 787/1/6 784/1/6 788/1/6
f 789/1/6 790/1/6 800/1/6
f 800/1/6 790/1/6 801/1/6
f 791/2/6 792/2/6 802/2/6
f 792/3/6 793/3/6 803/3/6
f 802/2/6 792/2/6 803/2/6
f 803/3/6 793/3/6 804/3/6
f 794/3/6 795/3/6 805/3/6
f 795/2/6 796/2/6 806/2/6
f 805/3/6 795/3/6 806/3/6
f 806/2/6 796/2/6 807/2/6
f 797/1/6 798/1/6 808/1/6
f 808/1/6 798/1/6 809/1/6
f 799/1/6 800/1/6 811/1/6
f 811/1/6 800/1/6 812/1/6
f 809/1/6 810/1/6 813/1/6
f 813/1/6 810/1/6 814/1/6
f 815/1/6 816/1/6 819/1/6
f 819/1/6 816/1/6 820/1/6
f 817/1/6 818/1/6 821/1/6
f 821/1/6 818/1/6 822/1/6
f 823/1/6 824/1/6 827/1/6
f 827/1/6 824/1/6 828/1/6
f 825/1/6 826/1/6 835/1/6
f 835/1/6 826/1/6 836/1/6
f 828/1/6 829/1/6 837/1/6
f 837/1/6 829/1/6 838/1/6
f 830/2/6 831/2/6 839/2/6
f 839/2/6 831/2/6 840/2/6
f 832/2/6 833/2/6 841/2/6
f 841/2/6 833/2/6 842/2/6
f 834/1/6 835/1/6 843/1/6
f 843/1/6 835/1/6 844/1/6
f 845/1/6 846/1/6 856/1/6
f 853/1/6 854/1/6 857/1/6
f 855/1/6 856/1/6 859/1/6
f 856/1/6 846/1/6 860/1/6
f 859/1/6 856/1/6 860/1/6
f 857/1/6 858/1/6 861/1/6
f 853/1/6 857/1/6 861/1/6
f 861/1/6 858/1/6 862/1/6
f 860/1/6 846/1/6 864/1/6
f 853/1/6 861/1/6 865/1/6
f 863/1/6 864/1/6 867/1/6
f 864/1/6 846/1/6 868/1/6
f 867/1/6 864/1/6 868/1/6
f 865/1/6 866/1/6 869/1/6
f 853/1/6 865/1/6 869/1/6
f 869/1/6 866/1/6 870/1/6
f 868/1/6 846/1/6 871/1/6
f 846/5/6 847/5/6 872/5/6
f 871/1/6 846/1/6 872/1/6
f 872/5/6 847/5/6 873/5/6
f 848/2/6 849/2/6 874/2/6
f 874/2/6 849/2/6 875/2/6
f 850/2/6 851/2/6 876/2/6
f 876/2/6 851/2/6 877/2/6
f 852/5/6 853/5/6 878/5/6
f 853/1/6 869/1/6 879/1/6
f 878/5/6 853/5/6 879/5/6
f 879/1/6 869/1/6 880/1/6
