# MagicaVoxel @ Ephtracy

# group
o 

# material
mtllib model-0.mtl
usemtl palette

# normals
vn -1 0 0
vn 1 0 0
vn 0 0 -1
vn 0 0 1
vn 0 -1 0
vn 0 1 0

# texcoords
vt 0.0214844 0.5
vt 0.0292969 0.5
vt 0.548828 0.5

# verts
v -0.5 0 -0.9
v -0.5 0 -0.2
v -0.5 0.1 -0.9
v -0.5 0.1 -0.2
v -0.5 0.4 -0.9
v -0.5 0.4 -0.2
v 0.4 0.4 -0.6
v 0.4 0.4 -0.4
v 0.4 0.5 -0.6
v 0.4 0.5 -0.4
v 0.6 0.4 -0.6
v 0.6 0.4 -0.4
v 0.6 0.5 -0.6
v 0.6 0.5 -0.4
v 0.7 0 -0.9
v 0.7 0 -0.2
v 0.7 0.1 -0.9
v 0.7 0.1 -0.2
v 0.7 0.4 -0.9
v 0.7 0.4 -0.2
v -0.5 0 -0.9
v -0.5 0.1 -0.9
v -0.5 0.4 -0.9
v 0.7 0 -0.9
v 0.7 0.1 -0.9
v 0.7 0.4 -0.9
v 0.4 0.4 -0.6
v 0.4 0.5 -0.6
v 0.6 0.4 -0.6
v 0.6 0.5 -0.6
v 0.4 0.4 -0.4
v 0.4 0.5 -0.4
v 0.6 0.4 -0.4
v 0.6 0.5 -0.4
v -0.5 0 -0.2
v -0.5 0.1 -0.2
v -0.5 0.4 -0.2
v 0.7 0 -0.2
v 0.7 0.1 -0.2
v 0.7 0.4 -0.2
v -0.5 0 -0.9
v 0.7 0 -0.9
v -0.5 0 -0.2
v 0.7 0 -0.2
v -0.5 0.4 -0.9
v 0.7 0.4 -0.9
v 0.4 0.4 -0.6
v 0.6 0.4 -0.6
v 0.4 0.4 -0.4
v 0.6 0.4 -0.4
v -0.5 0.4 -0.2
v 0.7 0.4 -0.2
v 0.4 0.5 -0.6
v 0.6 0.5 -0.6
v 0.4 0.5 -0.4
v 0.6 0.5 -0.4

# faces
f 1/1/1 2/1/1 3/1/1
f 3/1/1 2/1/1 4/1/1
f 3/2/1 4/2/1 5/2/1
f 5/2/1 4/2/1 6/2/1
f 7/3/1 8/3/1 9/3/1
f 9/3/1 8/3/1 10/3/1
f 13/3/2 12/3/2 11/3/2
f 14/3/2 12/3/2 13/3/2
f 17/1/2 16/1/2 15/1/2
f 18/1/2 16/1/2 17/1/2
f 19/2/2 18/2/2 17/2/2
f 20/2/2 18/2/2 19/2/2
f 21/1/3 22/1/3 24/1/3
f 22/2/3 23/2/3 25/2/3
f 24/1/3 22/1/3 25/1/3
f 25/2/3 23/2/3 26/2/3
f 27/3/3 28/3/3 29/3/3
f 29/3/3 28/3/3 30/3/3
f 33/3/4 32/3/4 31/3/4
f 34/3/4 32/3/4 33/3/4
f 38/1/4 36/1/4 35/1/4
f 39/2/4 37/2/4 36/2/4
f 39/1/4 36/1/4 38/1/4
f 40/2/4 37/2/4 39/2/4
f 41/1/5 42/1/5 43/1/5
f 43/1/5 42/1/5 44/1/5
f 47/2/6 46/2/6 45/2/6
f 48/2/6 46/2/6 47/2/6
f 49/2/6 47/2/6 45/2/6
f 50/2/6 46/2/6 48/2/6
f 51/2/6 49/2/6 45/2/6
f 51/2/6 50/2/6 49/2/6
f 52/2/6 46/2/6 50/2/6
f 52/2/6 50/2/6 51/2/6
f 55/3/6 54/3/6 53/3/6
f 56/3/6 54/3/6 55/3/6
