# MagicaVoxel @ Ephtracy

# group
o 

# material
mtllib model-0.mtl
usemtl palette

# normals
vn 0 0 1
vn 0 0 -1
vn 1 0 0
vn -1 0 0
vn 0 -1 0
vn 0 1 0

# texcoords
vt 0.0136719 0.5
vt 0.0175781 0.5
vt 0.0996094 0.5
vt 0.103516 0.5
vt 0.255859 0.5
vt 0.259766 0.5
vt 0.267578 0.5
vt 0.568359 0.5
vt 0.572266 0.5
vt 0.759766 0.5
vt 0.826172 0.5

# verts
v 0.6 1.6 1.2
v 0.5 1.6 1.2
v -0.5 1.9 1.2
v -0.6 1.9 1.2
v 0.5 2 1.2
v -0.5 2 1.2
v 0.6 2.1 1.2
v -0.6 2.1 1.2
v 0.6 1.3 1.1
v 0.5 1.3 1.1
v 0.6 1.5 1.1
v 0.5 1.5 1.1
v 0.5 0.6 1
v -0.5 0.6 1
v 0.5 0.8 1
v -0.5 0.8 1
v 0.5 1 1
v -0.5 1 1
v 0.6 1.2 1
v 0.5 1.2 1
v 0.6 1.3 1
v 0.5 1.3 1
v 0.5 1.5 1
v 0.5 1.6 1
v -0.5 1.9 1
v 0.5 2 1
v -0.5 2 1
v 0.6 1.1 0.9
v 0.5 1.1 0.9
v 0.6 1.2 0.9
v 0.5 1.2 0.9
v 0.6 0.8 0.8
v 0.5 0.8 0.8
v 0.6 1 0.8
v 0.5 1 0.8
v 0.6 1.1 0.8
v 0.5 1.1 0.8
v 0.7 1.7 0.8
v 0.6 1.7 0.8
v 0.7 1.8 0.8
v 0.6 1.8 0.8
v -0.5 1.8 0.8
v -0.7 1.8 0.8
v 0.7 1.9 0.8
v 0.6 1.9 0.8
v -0.5 1.9 0.8
v -0.6 1.9 0.8
v -0.6 2 0.8
v -0.7 2 0.8
v 0.6 2.1 0.8
v -0.6 2.1 0.8
v -0.7 2.1 0.8
v 0.7 2.2 0.8
v -0.7 2.2 0.8
v 0.6 0.6 0.7
v 0.5 0.6 0.7
v 0.6 0.8 0.7
v 0.5 0.8 0.7
v 0.6 1.1 0.7
v 0.5 1.1 0.7
v 0.6 1.2 0.7
v 0.5 1.2 0.7
v 0.8 1.5 0.5
v 0.6 1.5 0.5
v 0.6 1.6 0.5
v 0.7 1.7 0.5
v 0.6 1.7 0.5
v 0.7 1.8 0.5
v 0.8 1.9 0.5
v 0.7 1.9 0.5
v 0.8 2 0.5
v 0.7 2 0.5
v 0.8 2.2 0.5
v 0.7 2.2 0.5
v -0.6 1.3 0.1
v -0.8 1.3 0.1
v -0.6 1.8 0.1
v -0.7 1.8 0.1
v -0.7 2 0.1
v -0.8 2 0.1
v 0.5 0.6 -0.2
v 0.4 0.6 -0.2
v 0.6 1.6 -0.2
v 0.5 1.6 -0.2
v 0.6 1.7 -0.2
v 0.4 1.7 -0.2
v 0.6 0.8 -0.4
v 0.5 0.8 -0.4
v 0.6 1 -0.4
v 0.5 1 -0.4
v 0.6 1.2 -0.4
v 0.5 1.2 -0.4
v 0.6 1.3 -0.4
v 0.5 1.3 -0.4
v 0.6 0.6 -0.5
v 0.5 0.6 -0.5
v 0.6 0.8 -0.5
v 0.5 0.8 -0.5
v 0.6 1 -0.5
v 0.5 1 -0.5
v 0.6 1.2 -0.5
v 0.5 1.2 -0.5
v 0.6 1.3 -0.5
v 0.5 1.3 -0.5
v 0.6 1.4 -0.5
v 0.5 1.4 -0.5
v 0.6 1.4 -0.6
v 0.5 1.4 -0.6
v 0.6 1.5 -0.6
v 0.5 1.5 -0.6
v 0.6 1.1 -0.8
v 0.5 1.1 -0.8
v 0.6 1.2 -0.8
v 0.5 1.2 -0.8
v 0.6 1.1 0.8
v 0.5 1.1 0.8
v 0.6 1.2 0.8
v 0.5 1.2 0.8
v 0.6 1.4 0.6
v 0.5 1.4 0.6
v 0.6 1.5 0.6
v 0.5 1.5 0.6
v 0.6 0.6 0.5
v 0.5 0.6 0.5
v 0.6 0.8 0.5
v 0.5 0.8 0.5
v 0.6 1 0.5
v 0.5 1 0.5
v 0.6 1.2 0.5
v 0.5 1.2 0.5
v 0.6 1.3 0.5
v 0.5 1.3 0.5
v 0.6 1.4 0.5
v 0.5 1.4 0.5
v 0.6 0.8 0.4
v 0.5 0.8 0.4
v 0.6 1 0.4
v 0.5 1 0.4
v 0.6 1.2 0.4
v 0.5 1.2 0.4
v 0.6 1.3 0.4
v 0.5 1.3 0.4
v 0.5 0.6 0.2
v 0.4 0.6 0.2
v 0.6 1.6 0.2
v 0.5 1.6 0.2
v 0.6 1.7 0.2
v 0.4 1.7 0.2
v 0.8 1.5 -0.5
v 0.6 1.5 -0.5
v 0.6 1.6 -0.5
v 0.8 1.7 -0.5
v 0.7 1.7 -0.5
v 0.6 1.7 -0.5
v 0.8 1.8 -0.5
v 0.7 1.8 -0.5
v 0.7 1.9 -0.5
v 0.7 2 -0.5
v 0.8 2.2 -0.5
v 0.7 2.2 -0.5
v -0.6 1.3 -0.6
v -0.8 1.3 -0.6
v -0.6 1.8 -0.6
v -0.7 1.8 -0.6
v -0.7 2 -0.6
v -0.8 2 -0.6
v 0.6 0.6 -0.7
v 0.5 0.6 -0.7
v 0.6 0.8 -0.7
v 0.5 0.8 -0.7
v 0.6 1.1 -0.7
v 0.5 1.1 -0.7
v 0.6 1.2 -0.7
v 0.5 1.2 -0.7
v 0.6 0.8 -0.8
v 0.5 0.8 -0.8
v 0.6 1 -0.8
v 0.5 1 -0.8
v 0.6 1.1 -0.8
v 0.5 1.1 -0.8
v 0.7 1.7 -0.8
v 0.6 1.7 -0.8
v -0.5 1.8 -0.8
v -0.7 1.8 -0.8
v 0.7 1.9 -0.8
v 0.6 1.9 -0.8
v -0.5 1.9 -0.8
v -0.6 1.9 -0.8
v 0.7 2 -0.8
v 0.6 2 -0.8
v 0.6 2.1 -0.8
v 0.4 2.1 -0.8
v -0.4 2.1 -0.8
v -0.6 2.1 -0.8
v -0.7 2.1 -0.8
v 0.7 2.2 -0.8
v 0.4 2.2 -0.8
v -0.4 2.2 -0.8
v -0.7 2.2 -0.8
v 0.6 1.1 -0.9
v 0.5 1.1 -0.9
v 0.6 1.2 -0.9
v 0.5 1.2 -0.9
v 0.5 0.6 -1
v -0.5 0.6 -1
v 0.5 0.8 -1
v -0.5 0.8 -1
v 0.5 1 -1
v -0.5 1 -1
v 0.6 1.2 -1
v 0.5 1.2 -1
v 0.6 1.3 -1
v 0.5 1.3 -1
v 0.5 1.5 -1
v 0.5 1.6 -1
v -0.5 1.9 -1
v 0.5 2 -1
v 0.4 2 -1
v -0.4 2 -1
v -0.5 2 -1
v 0.6 1.3 -1.1
v 0.5 1.3 -1.1
v 0.6 1.5 -1.1
v 0.5 1.5 -1.1
v 0.6 1.6 -1.2
v 0.5 1.6 -1.2
v -0.5 1.9 -1.2
v -0.6 1.9 -1.2
v 0.5 2 -1.2
v 0.4 2 -1.2
v -0.4 2 -1.2
v -0.5 2 -1.2
v 0.6 2.1 -1.2
v 0.4 2.1 -1.2
v -0.4 2.1 -1.2
v -0.6 2.1 -1.2
v 0.4 2 -1.4
v -0.4 2 -1.4
v 0.4 2.2 -1.4
v -0.4 2.2 -1.4
v 0.8 1.5 0.5
v 0.8 1.9 0.5
v 0.8 2 0.5
v 0.8 2.2 0.5
v 0.8 1.7 0
v 0.8 1.8 0
v 0.8 1.9 0
v 0.8 2 0
v 0.8 1.5 -0.5
v 0.8 1.7 -0.5
v 0.8 1.8 -0.5
v 0.8 2.2 -0.5
v 0.7 1.7 0.8
v 0.7 1.8 0.8
v 0.7 1.9 0.8
v 0.7 2.2 0.8
v 0.7 1.7 0.5
v 0.7 1.8 0.5
v 0.7 1.9 0.5
v 0.7 2 0.5
v 0.7 2.2 0.5
v 0.7 1.7 -0.5
v 0.7 1.8 -0.5
v 0.7 1.9 -0.5
v 0.7 2 -0.5
v 0.7 2.2 -0.5
v 0.7 1.7 -0.8
v 0.7 1.9 -0.8
v 0.7 2 -0.8
v 0.7 2.2 -0.8
v 0.6 1.6 1.2
v 0.6 2.1 1.2
v 0.6 1.3 1.1
v 0.6 1.5 1.1
v 0.6 1.6 1.1
v 0.6 2.1 1.1
v 0.6 1.2 1
v 0.6 1.3 1
v 0.6 1.4 1
v 0.6 1.5 1
v 0.6 1.1 0.9
v 0.6 1.2 0.9
v 0.6 1.3 0.9
v 0.6 1.4 0.9
v 0.6 0.8 0.8
v 0.6 1 0.8
v 0.6 1.1 0.8
v 0.6 1.2 0.8
v 0.6 1.7 0.8
v 0.6 1.8 0.8
v 0.6 1.9 0.8
v 0.6 2.1 0.8
v 0.6 0.6 0.7
v 0.6 0.8 0.7
v 0.6 1 0.7
v 0.6 1.1 0.7
v 0.6 1.2 0.7
v 0.6 1.3 0.7
v 0.6 0.6 0.6
v 0.6 0.8 0.6
v 0.6 1 0.6
v 0.6 1.2 0.6
v 0.6 1.3 0.6
v 0.6 1.4 0.6
v 0.6 1.5 0.6
v 0.6 0.6 0.5
v 0.6 0.8 0.5
v 0.6 1 0.5
v 0.6 1.2 0.5
v 0.6 1.3 0.5
v 0.6 1.4 0.5
v 0.6 1.6 0.5
v 0.6 1.7 0.5
v 0.6 0.8 0.4
v 0.6 1 0.4
v 0.6 1.2 0.4
v 0.6 1.3 0.4
v 0.6 0.8 -0.4
v 0.6 1 -0.4
v 0.6 1.2 -0.4
v 0.6 1.3 -0.4
v 0.6 0.6 -0.5
v 0.6 0.8 -0.5
v 0.6 1 -0.5
v 0.6 1.2 -0.5
v 0.6 1.3 -0.5
v 0.6 1.4 -0.5
v 0.6 1.6 -0.5
v 0.6 1.7 -0.5
v 0.6 0.6 -0.6
v 0.6 0.8 -0.6
v 0.6 1 -0.6
v 0.6 1.2 -0.6
v 0.6 1.3 -0.6
v 0.6 1.4 -0.6
v 0.6 1.5 -0.6
v 0.6 0.6 -0.7
v 0.6 0.8 -0.7
v 0.6 1 -0.7
v 0.6 1.1 -0.7
v 0.6 1.2 -0.7
v 0.6 1.3 -0.7
v 0.6 0.8 -0.8
v 0.6 1 -0.8
v 0.6 1.1 -0.8
v 0.6 1.2 -0.8
v 0.6 1.7 -0.8
v 0.6 1.9 -0.8
v 0.6 2 -0.8
v 0.6 2.1 -0.8
v 0.6 1.1 -0.9
v 0.6 1.2 -0.9
v 0.6 1.3 -0.9
v 0.6 1.4 -0.9
v 0.6 1.2 -1
v 0.6 1.3 -1
v 0.6 1.4 -1
v 0.6 1.5 -1
v 0.6 1.3 -1.1
v 0.6 1.5 -1.1
v 0.6 1.6 -1.1
v 0.6 2.1 -1.1
v 0.6 1.6 -1.2
v 0.6 2.1 -1.2
v 0.5 0.6 1
v 0.5 0.8 1
v 0.5 1 1
v 0.5 1.2 1
v 0.5 1.5 1
v 0.5 1.6 1
v 0.5 1.1 0.9
v 0.5 1.2 0.9
v 0.5 0.8 0.8
v 0.5 1 0.8
v 0.5 1.1 0.8
v 0.5 1.2 0.8
v 0.5 0.6 0.7
v 0.5 0.8 0.7
v 0.5 1.1 0.7
v 0.5 1.2 0.7
v 0.5 1.5 0.7
v 0.5 1.6 0.7
v 0.5 1.4 0.6
v 0.5 1.5 0.6
v 0.5 0.6 0.5
v 0.5 0.8 0.5
v 0.5 1 0.5
v 0.5 1.2 0.5
v 0.5 1.3 0.5
v 0.5 1.4 0.5
v 0.5 1.6 0.5
v 0.5 0.8 0.4
v 0.5 1 0.4
v 0.5 1.2 0.4
v 0.5 1.3 0.4
v 0.5 0.6 0.3
v 0.5 1.6 0.3
v 0.5 0.6 0.2
v 0.5 1.6 0.2
v 0.5 0.6 -0.2
v 0.5 1.6 -0.2
v 0.5 0.6 -0.3
v 0.5 1.6 -0.3
v 0.5 0.8 -0.4
v 0.5 1 -0.4
v 0.5 1.2 -0.4
v 0.5 1.3 -0.4
v 0.5 0.6 -0.5
v 0.5 0.8 -0.5
v 0.5 1 -0.5
v 0.5 1.2 -0.5
v 0.5 1.3 -0.5
v 0.5 1.4 -0.5
v 0.5 1.6 -0.5
v 0.5 1.4 -0.6
v 0.5 1.5 -0.6
v 0.5 0.6 -0.7
v 0.5 0.8 -0.7
v 0.5 1.1 -0.7
v 0.5 1.2 -0.7
v 0.5 1.5 -0.7
v 0.5 1.6 -0.7
v 0.5 0.8 -0.8
v 0.5 1 -0.8
v 0.5 1.1 -0.8
v 0.5 1.2 -0.8
v 0.5 1.1 -0.9
v 0.5 1.2 -0.9
v 0.5 0.6 -1
v 0.5 0.8 -1
v 0.5 1 -1
v 0.5 1.2 -1
v 0.5 1.5 -1
v 0.5 1.6 -1
v 0.4 0.6 0.2
v 0.4 1.7 0.2
v 0.4 0.6 -0.2
v 0.4 1.7 -0.2
v 0.4 2.1 -0.8
v 0.4 2.2 -0.8
v 0.4 2.1 -1.1
v 0.4 2 -1.2
v 0.4 2.1 -1.2
v 0.4 2 -1.4
v 0.4 2.2 -1.4
v -0.5 1.9 1.2
v -0.5 2 1.2
v -0.5 1.9 1.1
v -0.5 2 1.1
v -0.5 1.9 1
v -0.5 2 1
v -0.5 1.9 -1
v -0.5 2 -1
v -0.5 1.9 -1.1
v -0.5 2 -1.1
v -0.5 1.9 -1.2
v -0.5 2 -1.2
v -0.6 1.3 0.1
v -0.6 1.8 0.1
v -0.6 1.3 -0.6
v -0.6 1.8 -0.6
v 0.6 1.5 0.5
v 0.6 1.6 0.5
v 0.6 1.6 0.3
v 0.6 1.6 0.2
v 0.6 1.7 0.2
v 0.6 1.6 -0.2
v 0.6 1.7 -0.2
v 0.6 1.6 -0.3
v 0.6 1.5 -0.5
v 0.6 1.6 -0.5
v 0.5 1.6 1.2
v 0.5 2 1.2
v 0.5 1.3 1.1
v 0.5 1.5 1.1
v 0.5 1.6 1.1
v 0.5 2 1.1
v 0.5 1.3 1
v 0.5 1.5 1
v 0.5 1.6 1
v 0.5 2 1
v 0.5 1.3 -1
v 0.5 1.5 -1
v 0.5 1.6 -1
v 0.5 2 -1
v 0.5 1.3 -1.1
v 0.5 1.5 -1.1
v 0.5 1.6 -1.1
v 0.5 2 -1.1
v 0.5 1.6 -1.2
v 0.5 2 -1.2
v -0.4 2.1 -0.8
v -0.4 2.2 -0.8
v -0.4 2.1 -1.1
v -0.4 2 -1.2
v -0.4 2.1 -1.2
v -0.4 2 -1.4
v -0.4 2.2 -1.4
v -0.5 0.6 1
v -0.5 0.8 1
v -0.5 1 1
v -0.5 1.9 1
v -0.5 1.8 0.8
v -0.5 1.9 0.8
v -0.5 1 0.1
v -0.5 1.3 0.1
v -0.5 1 -0.0999999
v -0.5 1.3 -0.0999999
v -0.5 1.8 -0.8
v -0.5 1.9 -0.8
v -0.5 0.6 -1
v -0.5 0.8 -1
v -0.5 1 -1
v -0.5 1.9 -1
v -0.6 1.9 1.2
v -0.6 2.1 1.2
v -0.6 1.9 1.1
v -0.6 2.1 1.1
v -0.6 1.9 0.8
v -0.6 2 0.8
v -0.6 2.1 0.8
v -0.6 1.9 -0.8
v -0.6 2.1 -0.8
v -0.6 1.9 -1.1
v -0.6 2.1 -1.1
v -0.6 1.9 -1.2
v -0.6 2.1 -1.2
v -0.7 1.8 0.8
v -0.7 2 0.8
v -0.7 2.1 0.8
v -0.7 2.2 0.8
v -0.7 2 0.2
v -0.7 2.1 0.2
v -0.7 1.8 0.1
v -0.7 2 0.1
v -0.7 2 -0.0999999
v -0.7 2 -0.2
v -0.7 2.1 -0.2
v -0.7 2.2 -0.2
v -0.7 2 -0.4
v -0.7 2 -0.5
v -0.7 1.8 -0.6
v -0.7 2 -0.6
v -0.7 1.8 -0.8
v -0.7 2.1 -0.8
v -0.7 2.2 -0.8
v -0.8 1.3 0.1
v -0.8 2 0.1
v -0.8 1.5 -0.0999999
v -0.8 2 -0.0999999
v -0.8 1.5 -0.2
v -0.8 2 -0.2
v -0.8 1.7 -0.4
v -0.8 2 -0.4
v -0.8 1.7 -0.5
v -0.8 2 -0.5
v -0.8 1.3 -0.6
v -0.8 2 -0.6
v 0.6 0.6 0.7
v 0.6 0.6 0.6
v 0.6 0.6 0.5
v 0.6 0.6 -0.5
v 0.6 0.6 -0.6
v 0.6 0.6 -0.7
v 0.5 0.6 1
v 0.5 0.6 0.7
v 0.5 0.6 0.6
v 0.5 0.6 0.5
v 0.5 0.6 0.3
v 0.5 0.6 0.2
v 0.5 0.6 -0.2
v 0.5 0.6 -0.3
v 0.5 0.6 -0.5
v 0.5 0.6 -0.6
v 0.5 0.6 -0.7
v 0.5 0.6 -1
v 0.4 0.6 0.3
v 0.4 0.6 0.2
v 0.4 0.6 -0.2
v 0.4 0.6 -0.3
v 0.3 0.6 0.3
v 0.3 0.6 -0.3
v -0.5 0.6 1
v -0.5 0.6 -1
v 0.6 0.8 0.8
v 0.6 0.8 0.7
v 0.6 0.8 0.5
v 0.6 0.8 0.4
v 0.6 0.8 -0.4
v 0.6 0.8 -0.5
v 0.6 0.8 -0.7
v 0.6 0.8 -0.8
v 0.5 0.8 0.8
v 0.5 0.8 0.7
v 0.5 0.8 0.5
v 0.5 0.8 0.4
v 0.5 0.8 -0.4
v 0.5 0.8 -0.5
v 0.5 0.8 -0.7
v 0.5 0.8 -0.8
v 0.6 1.1 0.9
v 0.6 1.1 0.8
v 0.6 1.1 -0.8
v 0.6 1.1 -0.9
v 0.5 1.1 0.9
v 0.5 1.1 0.8
v 0.5 1.1 -0.8
v 0.5 1.1 -0.9
v 0.6 1.2 1
v 0.6 1.2 0.9
v 0.6 1.2 0.8
v 0.6 1.2 0.7
v 0.6 1.2 0.5
v 0.6 1.2 0.4
v 0.6 1.2 -0.4
v 0.6 1.2 -0.5
v 0.6 1.2 -0.7
v 0.6 1.2 -0.8
v 0.6 1.2 -0.9
v 0.6 1.2 -1
v 0.5 1.2 1
v 0.5 1.2 0.9
v 0.5 1.2 0.8
v 0.5 1.2 0.7
v 0.5 1.2 0.5
v 0.5 1.2 0.4
v 0.5 1.2 -0.4
v 0.5 1.2 -0.5
v 0.5 1.2 -0.7
v 0.5 1.2 -0.8
v 0.5 1.2 -0.9
v 0.5 1.2 -1
v 0.6 1.3 1.1
v 0.6 1.3 1
v 0.6 1.3 -1
v 0.6 1.3 -1.1
v 0.5 1.3 1.1
v 0.5 1.3 1
v 0.5 1.3 -1
v 0.5 1.3 -1.1
v -0.6 1.3 0.1
v -0.6 1.3 -0.6
v -0.8 1.3 0.1
v -0.8 1.3 -0.6
v 0.8 1.5 0.5
v 0.8 1.5 -0.5
v 0.6 1.5 0.5
v 0.6 1.5 -0.5
v 0.6 1.6 1.2
v 0.6 1.6 1.1
v 0.6 1.6 0.5
v 0.6 1.6 0.3
v 0.6 1.6 0.2
v 0.6 1.6 -0.2
v 0.6 1.6 -0.3
v 0.6 1.6 -0.5
v 0.6 1.6 -1.1
v 0.6 1.6 -1.2
v 0.5 1.6 1.2
v 0.5 1.6 1.1
v 0.5 1.6 1
v 0.5 1.6 0.7
v 0.5 1.6 0.5
v 0.5 1.6 0.3
v 0.5 1.6 0.2
v 0.5 1.6 -0.2
v 0.5 1.6 -0.3
v 0.5 1.6 -0.5
v 0.5 1.6 -0.7
v 0.5 1.6 -1
v 0.5 1.6 -1.1
v 0.5 1.6 -1.2
v 0.7 1.7 0.8
v 0.7 1.7 0.5
v 0.7 1.7 -0.5
v 0.7 1.7 -0.8
v 0.6 1.7 0.8
v 0.6 1.7 0.5
v 0.6 1.7 0.2
v 0.6 1.7 -0.2
v 0.6 1.7 -0.5
v 0.6 1.7 -0.8
v 0.4 1.7 0.2
v 0.4 1.7 -0.2
v -0.5 1.8 0.8
v -0.5 1.8 -0.8
v -0.6 1.8 0.1
v -0.6 1.8 -0.6
v -0.7 1.8 0.8
v -0.7 1.8 0.1
v -0.7 1.8 -0.6
v -0.7 1.8 -0.8
v -0.5 1.9 1.2
v -0.5 1.9 1.1
v -0.5 1.9 1
v -0.5 1.9 0.8
v -0.5 1.9 -0.8
v -0.5 1.9 -1
v -0.5 1.9 -1.1
v -0.5 1.9 -1.2
v -0.6 1.9 1.2
v -0.6 1.9 1.1
v -0.6 1.9 0.8
v -0.6 1.9 -0.8
v -0.6 1.9 -1.1
v -0.6 1.9 -1.2
v 0.5 2 1.2
v 0.5 2 1.1
v 0.5 2 1
v 0.5 2 -1
v 0.5 2 -1.1
v 0.5 2 -1.2
v 0.4 2 -1
v 0.4 2 -1.1
v 0.4 2 -1.2
v 0.4 2 -1.4
v -0.4 2 -1
v -0.4 2 -1.1
v -0.4 2 -1.2
v -0.4 2 -1.4
v -0.5 2 1.2
v -0.5 2 1.1
v -0.5 2 1
v -0.5 2 -1
v -0.5 2 -1.1
v -0.5 2 -1.2
v 0.6 1 0.5
v 0.6 1 0.4
v 0.6 1 -0.4
v 0.6 1 -0.5
v 0.5 1 0.5
v 0.5 1 0.4
v 0.5 1 -0.4
v 0.5 1 -0.5
v 0.6 1.1 0.8
v 0.6 1.1 0.7
v 0.6 1.1 -0.7
v 0.6 1.1 -0.8
v 0.5 1.1 0.8
v 0.5 1.1 0.7
v 0.5 1.1 -0.7
v 0.5 1.1 -0.8
v 0.6 1.3 0.5
v 0.6 1.3 0.4
v 0.6 1.3 -0.4
v 0.6 1.3 -0.5
v 0.5 1.3 0.5
v 0.5 1.3 0.4
v 0.5 1.3 -0.4
v 0.5 1.3 -0.5
v 0.6 1.4 0.6
v 0.6 1.4 0.5
v 0.6 1.4 -0.5
v 0.6 1.4 -0.6
v 0.5 1.4 0.6
v 0.5 1.4 0.5
v 0.5 1.4 -0.5
v 0.5 1.4 -0.6
v 0.6 1.5 1.1
v 0.6 1.5 1
v 0.6 1.5 0.6
v 0.6 1.5 -0.6
v 0.6 1.5 -1
v 0.6 1.5 -1.1
v 0.5 1.5 1.1
v 0.5 1.5 1
v 0.5 1.5 0.7
v 0.5 1.5 0.6
v 0.5 1.5 -0.6
v 0.5 1.5 -0.7
v 0.5 1.5 -1
v 0.5 1.5 -1.1
v -0.7 2 0.1
v -0.7 2 -0.0999999
v -0.7 2 -0.2
v -0.7 2 -0.4
v -0.7 2 -0.5
v -0.7 2 -0.6
v -0.8 2 0.1
v -0.8 2 -0.0999999
v -0.8 2 -0.2
v -0.8 2 -0.4
v -0.8 2 -0.5
v -0.8 2 -0.6
v 0.6 2.1 1.2
v 0.6 2.1 1.1
v 0.6 2.1 0.8
v 0.6 2.1 -0.8
v 0.6 2.1 -1.1
v 0.6 2.1 -1.2
v 0.4 2.1 -0.8
v 0.4 2.1 -1.1
v 0.4 2.1 -1.2
v -0.4 2.1 -0.8
v -0.4 2.1 -1.1
v -0.4 2.1 -1.2
v -0.6 2.1 1.2
v -0.6 2.1 1.1
v -0.6 2.1 0.8
v -0.6 2.1 -0.8
v -0.6 2.1 -1.1
v -0.6 2.1 -1.2
v 0.8 2.2 0.5
v 0.8 2.2 -0.5
v 0.7 2.2 0.8
v 0.7 2.2 0.5
v 0.7 2.2 -0.5
v 0.7 2.2 -0.8
v 0.4 2.2 -0.8
v 0.4 2.2 -1.4
v 0.2 2.2 -1
v 0.2 2.2 -1.3
v 0.1 2.2 -1
v 0.1 2.2 -1.3
v -0.1 2.2 -1
v -0.1 2.2 -1.2
v -0.2 2.2 -1
v -0.2 2.2 -1.2
v -0.4 2.2 -0.2
v -0.4 2.2 -0.8
v -0.4 2.2 -1.4
v -0.7 2.2 0.8
v -0.7 2.2 -0.2
v -0.7 2.2 -0.8

# faces
f 5/7/1 2/7/1 1/7/1
f 6/7/1 4/7/1 3/7/1
f 7/7/1 5/7/1 1/7/1
f 7/7/1 6/7/1 5/7/1
f 8/7/1 4/7/1 6/7/1
f 8/7/1 6/7/1 7/7/1
f 11/10/1 10/10/1 9/10/1
f 12/10/1 10/10/1 11/10/1
f 15/6/1 14/6/1 13/6/1
f 16/6/1 14/6/1 15/6/1
f 17/11/1 16/11/1 15/11/1
f 18/11/1 16/11/1 17/11/1
f 20/6/1 18/6/1 17/6/1
f 21/10/1 20/10/1 19/10/1
f 22/6/1 18/6/1 20/6/1
f 22/10/1 20/10/1 21/10/1
f 23/6/1 18/6/1 22/6/1
f 24/6/1 18/6/1 23/6/1
f 25/6/1 18/6/1 24/6/1
f 26/6/1 25/6/1 24/6/1
f 27/6/1 25/6/1 26/6/1
f 30/1/1 29/1/1 28/1/1
f 31/1/1 29/1/1 30/1/1
f 34/11/1 33/11/1 32/11/1
f 35/11/1 33/11/1 34/11/1
f 36/2/1 35/2/1 34/2/1
f 37/2/1 35/2/1 36/2/1
f 40/9/1 39/9/1 38/9/1
f 41/9/1 39/9/1 40/9/1
f 44/8/1 41/8/1 40/8/1
f 45/8/1 41/8/1 44/8/1
f 46/9/1 43/9/1 42/9/1
f 47/9/1 43/9/1 46/9/1
f 48/9/1 43/9/1 47/9/1
f 49/9/1 43/9/1 48/9/1
f 50/9/1 45/9/1 44/9/1
f 51/8/1 49/8/1 48/8/1
f 52/8/1 49/8/1 51/8/1
f 53/9/1 50/9/1 44/9/1
f 53/9/1 51/9/1 50/9/1
f 53/9/1 52/9/1 51/9/1
f 54/9/1 52/9/1 53/9/1
f 57/1/1 56/1/1 55/1/1
f 58/1/1 56/1/1 57/1/1
f 61/1/1 60/1/1 59/1/1
f 62/1/1 60/1/1 61/1/1
f 65/9/1 64/9/1 63/9/1
f 66/9/1 65/9/1 63/9/1
f 67/9/1 65/9/1 66/9/1
f 68/9/1 66/9/1 63/9/1
f 69/9/1 68/9/1 63/9/1
f 70/9/1 68/9/1 69/9/1
f 71/8/1 70/8/1 69/8/1
f 72/8/1 70/8/1 71/8/1
f 73/9/1 72/9/1 71/9/1
f 74/9/1 72/9/1 73/9/1
f 77/9/1 76/9/1 75/9/1
f 78/9/1 76/9/1 77/9/1
f 79/9/1 76/9/1 78/9/1
f 80/9/1 76/9/1 79/9/1
f 84/7/1 82/7/1 81/7/1
f 85/7/1 84/7/1 83/7/1
f 86/7/1 82/7/1 84/7/1
f 86/7/1 84/7/1 85/7/1
f 89/11/1 88/11/1 87/11/1
f 90/11/1 88/11/1 89/11/1
f 93/2/1 92/2/1 91/2/1
f 94/2/1 92/2/1 93/2/1
f 97/2/1 96/2/1 95/2/1
f 98/2/1 96/2/1 97/2/1
f 101/2/1 100/2/1 99/2/1
f 102/2/1 100/2/1 101/2/1
f 105/4/1 104/4/1 103/4/1
f 106/4/1 104/4/1 105/4/1
f 109/4/1 108/4/1 107/4/1
f 110/4/1 108/4/1 109/4/1
f 113/1/1 112/1/1 111/1/1
f 114/1/1 112/1/1 113/1/1
f 115/1/2 116/1/2 117/1/2
f 117/1/2 116/1/2 118/1/2
f 119/4/2 120/4/2 121/4/2
f 121/4/2 120/4/2 122/4/2
f 123/2/2 124/2/2 125/2/2
f 125/2/2 124/2/2 126/2/2
f 127/2/2 128/2/2 129/2/2
f 129/2/2 128/2/2 130/2/2
f 131/4/2 132/4/2 133/4/2
f 133/4/2 132/4/2 134/4/2
f 135/11/2 136/11/2 137/11/2
f 137/11/2 136/11/2 138/11/2
f 139/2/2 140/2/2 141/2/2
f 141/2/2 140/2/2 142/2/2
f 143/7/2 144/7/2 146/7/2
f 145/7/2 146/7/2 147/7/2
f 146/7/2 144/7/2 148/7/2
f 147/7/2 146/7/2 148/7/2
f 149/9/2 150/9/2 151/9/2
f 149/9/2 151/9/2 152/9/2
f 152/9/2 151/9/2 153/9/2
f 153/9/2 151/9/2 154/9/2
f 152/8/2 153/8/2 155/8/2
f 155/8/2 153/8/2 156/8/2
f 155/9/2 156/9/2 157/9/2
f 155/9/2 157/9/2 158/9/2
f 155/9/2 158/9/2 159/9/2
f 159/9/2 158/9/2 160/9/2
f 161/9/2 162/9/2 163/9/2
f 163/9/2 162/9/2 164/9/2
f 164/9/2 162/9/2 165/9/2
f 165/9/2 162/9/2 166/9/2
f 167/1/2 168/1/2 169/1/2
f 169/1/2 168/1/2 170/1/2
f 171/1/2 172/1/2 173/1/2
f 173/1/2 172/1/2 174/1/2
f 175/11/2 176/11/2 177/11/2
f 177/11/2 176/11/2 178/11/2
f 177/2/2 178/2/2 179/2/2
f 179/2/2 178/2/2 180/2/2
f 181/9/2 182/9/2 185/9/2
f 185/9/2 182/9/2 186/9/2
f 183/9/2 184/9/2 187/9/2
f 187/9/2 184/9/2 188/9/2
f 185/8/2 186/8/2 189/8/2
f 189/8/2 186/8/2 190/8/2
f 189/9/2 190/9/2 191/9/2
f 188/9/2 184/9/2 194/9/2
f 194/9/2 184/9/2 195/9/2
f 191/9/2 192/9/2 196/9/2
f 189/9/2 191/9/2 196/9/2
f 196/9/2 192/9/2 197/9/2
f 194/8/2 195/8/2 198/8/2
f 193/8/2 194/8/2 198/8/2
f 198/8/2 195/8/2 199/8/2
f 200/1/2 201/1/2 202/1/2
f 202/1/2 201/1/2 203/1/2
f 204/6/2 205/6/2 206/6/2
f 206/6/2 205/6/2 207/6/2
f 206/11/2 207/11/2 208/11/2
f 208/11/2 207/11/2 209/11/2
f 208/6/2 209/6/2 211/6/2
f 210/10/2 211/10/2 212/10/2
f 211/6/2 209/6/2 213/6/2
f 212/10/2 211/10/2 213/10/2
f 213/6/2 209/6/2 214/6/2
f 214/6/2 209/6/2 215/6/2
f 215/6/2 209/6/2 216/6/2
f 215/6/2 216/6/2 217/6/2
f 217/6/2 216/6/2 218/6/2
f 218/6/2 216/6/2 219/6/2
f 219/6/2 216/6/2 220/6/2
f 221/10/2 222/10/2 223/10/2
f 223/10/2 222/10/2 224/10/2
f 225/7/2 226/7/2 229/7/2
f 227/7/2 228/7/2 232/7/2
f 229/7/2 230/7/2 233/7/2
f 225/7/2 229/7/2 233/7/2
f 233/7/2 230/7/2 234/7/2
f 231/7/2 232/7/2 235/7/2
f 232/7/2 228/7/2 236/7/2
f 235/7/2 232/7/2 236/7/2
f 237/9/2 238/9/2 239/9/2
f 239/9/2 238/9/2 240/9/2
f 245/9/3 242/9/3 241/9/3
f 246/9/3 242/9/3 245/9/3
f 247/8/3 243/8/3 242/8/3
f 247/9/3 242/9/3 246/9/3
f 248/9/3 244/9/3 243/9/3
f 248/8/3 243/8/3 247/8/3
f 249/9/3 245/9/3 241/9/3
f 250/8/3 246/8/3 245/8/3
f 250/9/3 245/9/3 249/9/3
f 251/9/3 247/9/3 246/9/3
f 251/8/3 246/8/3 250/8/3
f 251/9/3 248/9/3 247/9/3
f 252/9/3 244/9/3 248/9/3
f 252/9/3 248/9/3 251/9/3
f 257/9/3 254/9/3 253/9/3
f 258/8/3 255/8/3 254/8/3
f 258/9/3 254/9/3 257/9/3
f 259/9/3 256/9/3 255/9/3
f 259/8/3 255/8/3 258/8/3
f 260/9/3 256/9/3 259/9/3
f 261/9/3 256/9/3 260/9/3
f 267/9/3 263/9/3 262/9/3
f 267/9/3 264/9/3 263/9/3
f 268/8/3 265/8/3 264/8/3
f 268/9/3 264/9/3 267/9/3
f 269/9/3 266/9/3 265/9/3
f 269/8/3 265/8/3 268/8/3
f 270/9/3 266/9/3 269/9/3
f 275/7/3 272/7/3 271/7/3
f 276/7/3 272/7/3 275/7/3
f 278/10/3 274/10/3 273/10/3
f 279/10/3 274/10/3 278/10/3
f 280/10/3 274/10/3 279/10/3
f 282/10/3 278/10/3 277/10/3
f 283/3/3 279/3/3 278/3/3
f 283/10/3 278/10/3 282/10/3
f 284/4/3 280/4/3 279/4/3
f 284/3/3 279/3/3 283/3/3
f 287/1/3 282/1/3 281/1/3
f 288/3/3 283/3/3 282/3/3
f 288/1/3 282/1/3 287/1/3
f 289/6/3 276/6/3 275/6/3
f 290/6/3 276/6/3 289/6/3
f 291/6/3 276/6/3 290/6/3
f 292/6/3 276/6/3 291/6/3
f 294/11/3 286/11/3 285/11/3
f 295/2/3 287/2/3 286/2/3
f 295/11/3 286/11/3 294/11/3
f 296/2/3 287/2/3 295/2/3
f 297/3/3 283/3/3 288/3/3
f 298/4/3 284/4/3 283/4/3
f 298/3/3 283/3/3 297/3/3
f 299/1/3 294/1/3 293/1/3
f 300/11/3 295/11/3 294/11/3
f 300/1/3 294/1/3 299/1/3
f 301/1/3 296/1/3 295/1/3
f 301/11/3 295/11/3 300/11/3
f 301/1/3 297/1/3 296/1/3
f 302/4/3 298/4/3 297/4/3
f 302/1/3 297/1/3 301/1/3
f 303/4/3 284/4/3 298/4/3
f 303/4/3 298/4/3 302/4/3
f 304/4/3 280/4/3 284/4/3
f 304/4/3 284/4/3 303/4/3
f 305/4/3 280/4/3 304/4/3
f 306/2/3 300/2/3 299/2/3
f 307/11/3 301/11/3 300/11/3
f 307/2/3 300/2/3 306/2/3
f 308/2/3 302/2/3 301/2/3
f 308/11/3 301/11/3 307/11/3
f 309/1/3 303/1/3 302/1/3
f 309/2/3 302/2/3 308/2/3
f 310/4/3 304/4/3 303/4/3
f 310/1/3 303/1/3 309/1/3
f 311/4/3 304/4/3 310/4/3
f 312/6/3 289/6/3 275/6/3
f 313/6/3 289/6/3 312/6/3
f 314/11/3 308/11/3 307/11/3
f 315/11/3 308/11/3 314/11/3
f 316/2/3 310/2/3 309/2/3
f 317/2/3 310/2/3 316/2/3
f 323/11/3 319/11/3 318/11/3
f 324/11/3 319/11/3 323/11/3
f 325/2/3 321/2/3 320/2/3
f 326/2/3 321/2/3 325/2/3
f 330/2/3 323/2/3 322/2/3
f 331/11/3 324/11/3 323/11/3
f 331/2/3 323/2/3 330/2/3
f 332/2/3 325/2/3 324/2/3
f 332/11/3 324/11/3 331/11/3
f 333/1/3 326/1/3 325/1/3
f 333/2/3 325/2/3 332/2/3
f 334/4/3 327/4/3 326/4/3
f 334/1/3 326/1/3 333/1/3
f 335/4/3 327/4/3 334/4/3
f 337/1/3 331/1/3 330/1/3
f 338/11/3 332/11/3 331/11/3
f 338/1/3 331/1/3 337/1/3
f 339/1/3 333/1/3 332/1/3
f 339/11/3 332/11/3 338/11/3
f 340/1/3 333/1/3 339/1/3
f 341/4/3 336/4/3 335/4/3
f 341/1/3 333/1/3 340/1/3
f 341/4/3 334/4/3 333/4/3
f 341/4/3 335/4/3 334/4/3
f 342/4/3 336/4/3 341/4/3
f 343/11/3 339/11/3 338/11/3
f 344/2/3 340/2/3 339/2/3
f 344/11/3 339/11/3 343/11/3
f 345/2/3 340/2/3 344/2/3
f 346/3/3 342/3/3 341/3/3
f 347/6/3 329/6/3 328/6/3
f 351/1/3 346/1/3 345/1/3
f 352/3/3 342/3/3 346/3/3
f 352/1/3 346/1/3 351/1/3
f 353/4/3 336/4/3 342/4/3
f 353/3/3 342/3/3 352/3/3
f 354/4/3 336/4/3 353/4/3
f 355/10/3 353/10/3 352/10/3
f 356/3/3 354/3/3 353/3/3
f 356/10/3 353/10/3 355/10/3
f 357/4/3 336/4/3 354/4/3
f 357/3/3 354/3/3 356/3/3
f 358/4/3 336/4/3 357/4/3
f 359/10/3 357/10/3 356/10/3
f 359/10/3 358/10/3 357/10/3
f 360/10/3 358/10/3 359/10/3
f 361/6/3 347/6/3 328/6/3
f 361/6/3 350/6/3 349/6/3
f 361/6/3 349/6/3 348/6/3
f 361/6/3 348/6/3 347/6/3
f 362/6/3 350/6/3 361/6/3
f 363/7/3 362/7/3 361/7/3
f 364/7/3 362/7/3 363/7/3
f 371/6/3 368/6/3 367/6/3
f 372/6/3 368/6/3 371/6/3
f 373/6/3 366/6/3 365/6/3
f 373/11/3 367/11/3 366/11/3
f 374/6/3 371/6/3 367/6/3
f 374/11/3 367/11/3 373/11/3
f 375/6/3 371/6/3 374/6/3
f 377/6/3 373/6/3 365/6/3
f 378/6/3 373/6/3 377/6/3
f 379/6/3 376/6/3 375/6/3
f 380/6/3 376/6/3 379/6/3
f 381/6/3 370/6/3 369/6/3
f 382/6/3 370/6/3 381/6/3
f 384/11/3 382/11/3 381/11/3
f 390/11/3 384/11/3 383/11/3
f 391/11/3 382/11/3 384/11/3
f 391/11/3 384/11/3 390/11/3
f 392/6/3 386/6/3 385/6/3
f 393/6/3 388/6/3 387/6/3
f 394/6/3 388/6/3 393/6/3
f 395/6/3 390/6/3 389/6/3
f 395/6/3 391/6/3 390/6/3
f 396/6/3 394/6/3 393/6/3
f 396/6/3 395/6/3 394/6/3
f 396/6/3 392/6/3 385/6/3
f 396/6/3 393/6/3 392/6/3
f 397/6/3 391/6/3 395/6/3
f 397/6/3 395/6/3 396/6/3
f 398/7/3 397/7/3 396/7/3
f 399/7/3 397/7/3 398/7/3
f 402/7/3 401/7/3 400/7/3
f 403/7/3 401/7/3 402/7/3
f 404/6/3 403/6/3 402/6/3
f 405/6/3 403/6/3 404/6/3
f 406/6/3 403/6/3 405/6/3
f 407/6/3 403/6/3 406/6/3
f 408/6/3 404/6/3 402/6/3
f 409/6/3 404/6/3 408/6/3
f 410/6/3 406/6/3 405/6/3
f 411/6/3 406/6/3 410/6/3
f 412/6/3 403/6/3 407/6/3
f 413/6/3 403/6/3 412/6/3
f 414/6/3 403/6/3 413/6/3
f 415/11/3 414/11/3 413/11/3
f 416/11/3 414/11/3 415/11/3
f 421/11/3 414/11/3 416/11/3
f 422/11/3 414/11/3 421/11/3
f 423/6/3 418/6/3 417/6/3
f 425/6/3 420/6/3 419/6/3
f 426/6/3 420/6/3 425/6/3
f 427/6/3 425/6/3 424/6/3
f 429/6/3 423/6/3 417/6/3
f 430/11/3 424/11/3 423/11/3
f 430/6/3 423/6/3 429/6/3
f 431/6/3 428/6/3 427/6/3
f 431/11/3 424/11/3 430/11/3
f 431/6/3 427/6/3 424/6/3
f 432/6/3 428/6/3 431/6/3
f 433/6/3 422/6/3 421/6/3
f 434/6/3 422/6/3 433/6/3
f 437/5/3 436/5/3 435/5/3
f 438/5/3 436/5/3 437/5/3
f 441/9/3 440/9/3 439/9/3
f 443/9/3 440/9/3 441/9/3
f 444/9/3 443/9/3 442/9/3
f 445/9/3 440/9/3 443/9/3
f 445/9/3 443/9/3 444/9/3
f 448/7/3 447/7/3 446/7/3
f 449/7/3 447/7/3 448/7/3
f 450/6/3 449/6/3 448/6/3
f 451/6/3 449/6/3 450/6/3
f 454/6/3 453/6/3 452/6/3
f 455/6/3 453/6/3 454/6/3
f 456/7/3 455/7/3 454/7/3
f 457/7/3 455/7/3 456/7/3
f 460/9/3 459/9/3 458/9/3
f 461/9/3 459/9/3 460/9/3
f 462/9/4 463/9/4 464/9/4
f 462/9/4 464/9/4 465/9/4
f 462/9/4 465/9/4 467/9/4
f 465/9/4 466/9/4 467/9/4
f 467/9/4 466/9/4 468/9/4
f 462/9/4 467/9/4 469/9/4
f 462/9/4 469/9/4 470/9/4
f 470/9/4 469/9/4 471/9/4
f 472/7/4 473/7/4 476/7/4
f 476/7/4 473/7/4 477/7/4
f 474/10/4 475/10/4 478/10/4
f 478/10/4 475/10/4 479/10/4
f 476/6/4 477/6/4 480/6/4
f 480/6/4 477/6/4 481/6/4
f 482/10/4 483/10/4 486/10/4
f 486/10/4 483/10/4 487/10/4
f 484/6/4 485/6/4 488/6/4
f 488/6/4 485/6/4 489/6/4
f 488/7/4 489/7/4 490/7/4
f 490/7/4 489/7/4 491/7/4
f 492/9/4 493/9/4 494/9/4
f 494/9/4 493/9/4 496/9/4
f 495/9/4 496/9/4 497/9/4
f 496/9/4 493/9/4 498/9/4
f 497/9/4 496/9/4 498/9/4
f 501/6/4 502/6/4 503/6/4
f 503/6/4 502/6/4 504/6/4
f 500/11/4 501/11/4 505/11/4
f 501/6/4 503/6/4 505/6/4
f 505/6/4 503/6/4 506/6/4
f 500/11/4 505/11/4 507/11/4
f 505/11/4 506/11/4 507/11/4
f 506/6/4 503/6/4 508/6/4
f 507/11/4 506/11/4 508/11/4
f 507/6/4 508/6/4 509/6/4
f 508/6/4 503/6/4 509/6/4
f 499/6/4 500/6/4 511/6/4
f 500/11/4 507/11/4 512/11/4
f 511/6/4 500/6/4 512/6/4
f 509/6/4 510/6/4 513/6/4
f 512/11/4 507/11/4 513/11/4
f 507/6/4 509/6/4 513/6/4
f 513/6/4 510/6/4 514/6/4
f 515/7/4 516/7/4 517/7/4
f 517/7/4 516/7/4 518/7/4
f 517/6/4 518/6/4 519/6/4
f 519/6/4 518/6/4 520/6/4
f 520/6/4 518/6/4 521/6/4
f 522/6/4 523/6/4 524/6/4
f 524/6/4 523/6/4 525/6/4
f 524/7/4 525/7/4 526/7/4
f 526/7/4 525/7/4 527/7/4
f 528/9/4 529/9/4 532/9/4
f 529/8/4 530/8/4 532/8/4
f 530/9/4 531/9/4 533/9/4
f 532/8/4 530/8/4 533/8/4
f 528/9/4 532/9/4 534/9/4
f 532/9/4 533/9/4 534/9/4
f 534/9/4 533/9/4 535/9/4
f 535/9/4 533/9/4 536/9/4
f 536/9/4 533/9/4 537/9/4
f 533/9/4 531/9/4 538/9/4
f 537/9/4 533/9/4 538/9/4
f 538/9/4 531/9/4 539/9/4
f 537/9/4 538/9/4 540/9/4
f 540/9/4 538/9/4 541/9/4
f 541/9/4 538/9/4 543/9/4
f 542/9/4 543/9/4 544/9/4
f 538/8/4 539/8/4 545/8/4
f 544/9/4 543/9/4 545/9/4
f 543/9/4 538/9/4 545/9/4
f 545/8/4 539/8/4 546/8/4
f 547/9/4 548/9/4 549/9/4
f 549/9/4 548/9/4 550/9/4
f 547/9/4 549/9/4 551/9/4
f 549/8/4 550/8/4 551/8/4
f 551/8/4 550/8/4 552/8/4
f 551/9/4 552/9/4 553/9/4
f 553/9/4 552/9/4 554/9/4
f 551/9/4 553/9/4 555/9/4
f 553/8/4 554/8/4 555/8/4
f 555/8/4 554/8/4 556/8/4
f 547/9/4 551/9/4 557/9/4
f 551/9/4 555/9/4 557/9/4
f 555/9/4 556/9/4 557/9/4
f 557/9/4 556/9/4 558/9/4
f 566/1/5 560/1/5 559/1/5
f 567/2/5 561/2/5 560/2/5
f 567/1/5 560/1/5 566/1/5
f 568/2/5 561/2/5 567/2/5
f 573/2/5 563/2/5 562/2/5
f 574/1/5 564/1/5 563/1/5
f 574/2/5 563/2/5 573/2/5
f 575/1/5 564/1/5 574/1/5
f 577/6/5 566/6/5 565/6/5
f 577/6/5 567/6/5 566/6/5
f 577/6/5 568/6/5 567/6/5
f 577/6/5 569/6/5 568/6/5
f 577/7/5 570/7/5 569/7/5
f 578/7/5 570/7/5 577/7/5
f 579/7/5 572/7/5 571/7/5
f 580/6/5 573/6/5 572/6/5
f 580/6/5 576/6/5 575/6/5
f 580/7/5 572/7/5 579/7/5
f 580/6/5 575/6/5 574/6/5
f 580/6/5 574/6/5 573/6/5
f 581/5/5 579/5/5 578/5/5
f 581/5/5 578/5/5 577/5/5
f 581/5/5 580/5/5 579/5/5
f 581/6/5 577/6/5 565/6/5
f 582/6/5 576/6/5 580/6/5
f 582/5/5 580/5/5 581/5/5
f 583/6/5 581/6/5 565/6/5
f 583/6/5 582/6/5 581/6/5
f 584/6/5 576/6/5 582/6/5
f 584/6/5 582/6/5 583/6/5
f 593/11/5 586/11/5 585/11/5
f 594/11/5 586/11/5 593/11/5
f 595/11/5 588/11/5 587/11/5
f 596/11/5 588/11/5 595/11/5
f 597/11/5 590/11/5 589/11/5
f 598/11/5 590/11/5 597/11/5
f 599/11/5 592/11/5 591/11/5
f 600/11/5 592/11/5 599/11/5
f 605/1/5 602/1/5 601/1/5
f 606/1/5 602/1/5 605/1/5
f 607/1/5 604/1/5 603/1/5
f 608/1/5 604/1/5 607/1/5
f 621/10/5 610/10/5 609/10/5
f 622/10/5 610/10/5 621/10/5
f 623/3/5 612/3/5 611/3/5
f 624/3/5 612/3/5 623/3/5
f 625/2/5 614/2/5 613/2/5
f 626/2/5 614/2/5 625/2/5
f 627/2/5 616/2/5 615/2/5
f 628/2/5 616/2/5 627/2/5
f 629/3/5 618/3/5 617/3/5
f 630/3/5 618/3/5 629/3/5
f 631/10/5 620/10/5 619/10/5
f 632/10/5 620/10/5 631/10/5
f 637/10/5 634/10/5 633/10/5
f 638/10/5 634/10/5 637/10/5
f 639/10/5 636/10/5 635/10/5
f 640/10/5 636/10/5 639/10/5
f 643/9/5 642/9/5 641/9/5
f 644/9/5 642/9/5 643/9/5
f 647/9/5 646/9/5 645/9/5
f 648/9/5 646/9/5 647/9/5
f 659/7/5 650/7/5 649/7/5
f 660/6/5 651/6/5 650/6/5
f 660/7/5 650/7/5 659/7/5
f 660/6/5 652/6/5 651/6/5
f 661/6/5 652/6/5 660/6/5
f 662/6/5 652/6/5 661/6/5
f 663/6/5 652/6/5 662/6/5
f 664/7/5 653/7/5 652/7/5
f 664/6/5 652/6/5 663/6/5
f 665/7/5 653/7/5 664/7/5
f 666/7/5 655/7/5 654/7/5
f 667/6/5 657/6/5 656/6/5
f 667/7/5 655/7/5 666/7/5
f 667/6/5 656/6/5 655/6/5
f 668/6/5 657/6/5 667/6/5
f 669/6/5 657/6/5 668/6/5
f 670/6/5 657/6/5 669/6/5
f 671/7/5 658/7/5 657/7/5
f 671/6/5 657/6/5 670/6/5
f 672/7/5 658/7/5 671/7/5
f 677/9/5 674/9/5 673/9/5
f 678/9/5 674/9/5 677/9/5
f 681/9/5 676/9/5 675/9/5
f 682/9/5 676/9/5 681/9/5
f 683/9/5 680/9/5 679/9/5
f 684/9/5 680/9/5 683/9/5
f 687/9/5 686/9/5 685/9/5
f 688/9/5 686/9/5 687/9/5
f 689/9/5 687/9/5 685/9/5
f 690/9/5 687/9/5 689/9/5
f 691/9/5 686/9/5 688/9/5
f 692/9/5 686/9/5 691/9/5
f 701/7/5 694/7/5 693/7/5
f 702/6/5 695/6/5 694/6/5
f 702/7/5 694/7/5 701/7/5
f 702/6/5 696/6/5 695/6/5
f 703/6/5 696/6/5 702/6/5
f 704/6/5 699/6/5 698/6/5
f 704/6/5 698/6/5 697/6/5
f 705/7/5 700/7/5 699/7/5
f 705/6/5 699/6/5 704/6/5
f 706/7/5 700/7/5 705/7/5
f 713/6/5 711/6/5 710/6/5
f 714/7/5 712/7/5 711/7/5
f 714/6/5 711/6/5 713/6/5
f 715/7/5 712/7/5 714/7/5
f 717/9/5 714/9/5 713/9/5
f 717/9/5 716/9/5 715/9/5
f 717/9/5 715/9/5 714/9/5
f 718/9/5 716/9/5 717/9/5
f 719/9/5 716/9/5 718/9/5
f 720/9/5 716/9/5 719/9/5
f 721/7/5 708/7/5 707/7/5
f 722/6/5 709/6/5 708/6/5
f 722/7/5 708/7/5 721/7/5
f 723/6/5 709/6/5 722/6/5
f 724/6/5 718/6/5 717/6/5
f 725/7/5 719/7/5 718/7/5
f 725/6/5 718/6/5 724/6/5
f 726/7/5 719/7/5 725/7/5
f 727/11/6 728/11/6 731/11/6
f 731/11/6 728/11/6 732/11/6
f 729/11/6 730/11/6 733/11/6
f 733/11/6 730/11/6 734/11/6
f 735/2/6 736/2/6 739/2/6
f 739/2/6 736/2/6 740/2/6
f 737/2/6 738/2/6 741/2/6
f 741/2/6 738/2/6 742/2/6
f 743/2/6 744/2/6 747/2/6
f 747/2/6 744/2/6 748/2/6
f 745/2/6 746/2/6 749/2/6
f 749/2/6 746/2/6 750/2/6
f 751/4/6 752/4/6 755/4/6
f 755/4/6 752/4/6 756/4/6
f 753/4/6 754/4/6 757/4/6
f 757/4/6 754/4/6 758/4/6
f 759/10/6 760/10/6 765/10/6
f 760/4/6 761/4/6 766/4/6
f 765/10/6 760/10/6 766/10/6
f 766/4/6 761/4/6 767/4/6
f 767/4/6 761/4/6 768/4/6
f 762/4/6 763/4/6 769/4/6
f 769/4/6 763/4/6 770/4/6
f 763/10/6 764/10/6 771/10/6
f 770/4/6 763/4/6 771/4/6
f 771/10/6 764/10/6 772/10/6
f 773/9/6 774/9/6 779/9/6
f 774/8/6 775/8/6 780/8/6
f 779/9/6 774/9/6 780/9/6
f 775/9/6 776/9/6 781/9/6
f 780/8/6 775/8/6 781/8/6
f 776/8/6 777/8/6 782/8/6
f 781/9/6 776/9/6 782/9/6
f 777/9/6 778/9/6 783/9/6
f 782/8/6 777/8/6 783/8/6
f 783/9/6 778/9/6 784/9/6
f 788/6/6 789/6/6 791/6/6
f 789/7/6 790/7/6 792/7/6
f 791/6/6 789/6/6 792/6/6
f 792/7/6 790/7/6 793/7/6
f 785/7/6 786/7/6 797/7/6
f 786/6/6 787/6/6 798/6/6
f 797/7/6 786/7/6 798/7/6
f 798/6/6 787/6/6 799/6/6
f 794/6/6 795/6/6 800/6/6
f 795/7/6 796/7/6 801/7/6
f 800/6/6 795/6/6 801/6/6
f 801/7/6 796/7/6 802/7/6
f 803/9/6 804/9/6 806/9/6
f 806/9/6 804/9/6 807/9/6
f 805/9/6 806/9/6 809/9/6
f 807/9/6 808/9/6 809/9/6
f 806/9/6 807/9/6 809/9/6
f 809/9/6 810/9/6 811/9/6
f 811/9/6 810/9/6 812/9/6
f 809/9/6 811/9/6 813/9/6
f 811/8/6 812/8/6 813/8/6
f 812/9/6 810/9/6 814/9/6
f 813/8/6 812/8/6 814/8/6
f 809/9/6 813/9/6 815/9/6
f 813/9/6 814/9/6 815/9/6
f 815/9/6 814/9/6 816/9/6
f 809/9/6 815/9/6 817/9/6
f 815/8/6 816/8/6 817/8/6
f 816/9/6 814/9/6 818/9/6
f 817/8/6 816/8/6 818/8/6
f 805/9/6 809/9/6 819/9/6
f 809/9/6 817/9/6 819/9/6
f 817/9/6 818/9/6 819/9/6
f 819/9/6 818/9/6 820/9/6
f 818/9/6 814/9/6 821/9/6
f 820/9/6 818/9/6 821/9/6
f 814/9/6 810/9/6 821/9/6
f 805/9/6 819/9/6 822/9/6
f 819/8/6 820/8/6 823/8/6
f 822/9/6 819/9/6 823/9/6
f 823/8/6 820/8/6 824/8/6
