# MagicaVoxel @ Ephtracy

# group
o 

# material
mtllib model.mtl
usemtl palette

# normals
vn 0 0 1
vn 0 0 -1
vn 1 0 0
vn -1 0 0
vn 0 -1 0
vn 0 1 0

# texcoords
vt 0.0292969 0.5
vt 0.0371094 0.5
vt 0.236328 0.5
vt 0.306641 0.5
vt 0.423828 0.5
vt 0.431641 0.5
vt 0.513672 0.5
vt 0.572266 0.5
vt 0.759766 0.5

# verts
v 1.2 0 1.7
v -1.3 0 1.7
v 1.2 0.2 1.7
v -1.3 0.2 1.7
v 1.4 0 1.5
v 1.2 0 1.5
v -1.3 0 1.5
v -1.5 0 1.5
v 1.4 0.2 1.5
v 1.2 0.2 1.5
v 1 0.2 1.5
v -1.1 0.2 1.5
v -1.3 0.2 1.5
v -1.5 0.2 1.5
v 1 0.4 1.5
v -1.1 0.4 1.5
v 1.2 0.2 1.3
v 1 0.2 1.3
v -1.1 0.2 1.3
v -1.3 0.2 1.3
v 1.2 0.4 1.3
v 1 0.4 1.3
v 0.8 0.4 1.3
v -0.9 0.4 1.3
v -1.1 0.4 1.3
v -1.3 0.4 1.3
v 0.8 0.6 1.3
v -0.9 0.6 1.3
v 0.8 2.7 1.3
v -0.9 2.7 1.3
v 1 0.4 1.1
v 0.8 0.4 1.1
v -0.9 0.4 1.1
v -1.1 0.4 1.1
v 1 0.6 1.1
v 0.8 0.6 1.1
v -0.9 0.6 1.1
v -1.1 0.6 1.1
v 1 2.7 1.1
v 0.8 2.7 1.1
v 0.6 2.7 1.1
v -0.7 2.7 1.1
v -0.9 2.7 1.1
v -1.1 2.7 1.1
v 0.6 2.8 1.1
v -0.7 2.8 1.1
v 0.8 2.7 0.9
v 0.6 2.7 0.9
v -0.7 2.7 0.9
v -0.9 2.7 0.9
v 0.8 2.8 0.9
v 0.6 2.8 0.9
v -0.7 2.8 0.9
v -0.9 2.8 0.9
v 0.8 2.7 -0.9
v 0.6 2.7 -0.9
v -0.7 2.7 -0.9
v -0.9 2.7 -0.9
v 0.8 2.8 -0.9
v 0.6 2.8 -0.9
v -0.7 2.8 -0.9
v -0.9 2.8 -0.9
v 1 0.4 -1.1
v 0.8 0.4 -1.1
v -0.9 0.4 -1.1
v -1.1 0.4 -1.1
v 1 0.6 -1.1
v 0.8 0.6 -1.1
v -0.9 0.6 -1.1
v -1.1 0.6 -1.1
v 1 2.7 -1.1
v 0.8 2.7 -1.1
v 0.6 2.7 -1.1
v -0.7 2.7 -1.1
v -0.9 2.7 -1.1
v -1.1 2.7 -1.1
v 0.6 2.8 -1.1
v -0.7 2.8 -1.1
v 1.2 0.2 -1.3
v 1 0.2 -1.3
v -1.1 0.2 -1.3
v -1.3 0.2 -1.3
v 1.2 0.4 -1.3
v 1 0.4 -1.3
v 0.8 0.4 -1.3
v -0.9 0.4 -1.3
v -1.1 0.4 -1.3
v -1.3 0.4 -1.3
v 0.8 0.6 -1.3
v -0.9 0.6 -1.3
v 0.8 2.7 -1.3
v -0.9 2.7 -1.3
v 1.4 0 -1.5
v 1.2 0 -1.5
v -1.3 0 -1.5
v -1.5 0 -1.5
v 1.4 0.2 -1.5
v 1.2 0.2 -1.5
v 1 0.2 -1.5
v -1.1 0.2 -1.5
v -1.3 0.2 -1.5
v -1.5 0.2 -1.5
v 1 0.4 -1.5
v -1.1 0.4 -1.5
v 1.2 0 -1.7
v -1.3 0 -1.7
v 1.2 0.2 -1.7
v -1.3 0.2 -1.7
v 1.4 0 1.5
v 1.4 0.2 1.5
v 1.4 0 -1.5
v 1.4 0.2 -1.5
v 1.2 0 1.7
v 1.2 0.2 1.7
v 1.2 0 1.5
v 1.2 0.2 1.5
v 1.2 0.2 1.3
v 1.2 0.4 1.3
v 1.2 0.2 -1.3
v 1.2 0.4 -1.3
v 1.2 0 -1.5
v 1.2 0.2 -1.5
v 1.2 0 -1.7
v 1.2 0.2 -1.7
v 1 0.2 1.5
v 1 0.4 1.5
v 1 0.2 1.3
v 1 0.4 1.3
v 1 0.4 1.1
v 1 0.6 1.1
v 1 2.7 1.1
v 1 2 1
v 1 2.1 1
v 1 2.5 1
v 1 2.6 1
v 1 2 0.9
v 1 2.1 0.9
v 1 2.2 0.9
v 1 2.5 0.9
v 1 2.6 0.9
v 1 1.7 0.8
v 1 1.8 0.8
v 1 2.1 0.8
v 1 2.2 0.8
v 1 2.4 0.8
v 1 2.5 0.8
v 1 1 0.7
v 1 1.1 0.7
v 1 1.5 0.7
v 1 1.6 0.7
v 1 1.7 0.7
v 1 1.8 0.7
v 1 1.9 0.7
v 1 2 0.7
v 1 2.1 0.7
v 1 2.2 0.7
v 1 2.3 0.7
v 1 2.4 0.7
v 1 2.5 0.7
v 1 1 0.6
v 1 1.1 0.6
v 1 1.2 0.6
v 1 1.5 0.6
v 1 1.6 0.6
v 1 1.9 0.6
v 1 2 0.6
v 1 2.1 0.6
v 1 2.2 0.6
v 1 2.3 0.6
v 1 2.4 0.6
v 1 0.7 0.5
v 1 0.8 0.5
v 1 1.1 0.5
v 1 1.2 0.5
v 1 1.4 0.5
v 1 1.5 0.5
v 1 1.9 0.5
v 1 2 0.5
v 1 2.1 0.5
v 1 2.2 0.5
v 1 2.3 0.5
v 1 2.4 0.5
v 1 0.7 0.4
v 1 0.8 0.4
v 1 0.9 0.4
v 1 1 0.4
v 1 1.1 0.4
v 1 1.2 0.4
v 1 1.3 0.4
v 1 1.4 0.4
v 1 1.5 0.4
v 1 1.7 0.4
v 1 1.8 0.4
v 1 1.9 0.4
v 1 2 0.4
v 1 2.1 0.4
v 1 2.2 0.4
v 1 2.3 0.4
v 1 2.4 0.4
v 1 2.5 0.4
v 1 0.9 0.3
v 1 1 0.3
v 1 1.1 0.3
v 1 1.2 0.3
v 1 1.3 0.3
v 1 1.4 0.3
v 1 1.7 0.3
v 1 1.8 0.3
v 1 2.1 0.3
v 1 2.2 0.3
v 1 2.4 0.3
v 1 2.5 0.3
v 1 0.9 0.2
v 1 1 0.2
v 1 1.1 0.2
v 1 1.2 0.2
v 1 1.3 0.2
v 1 1.4 0.2
v 1 2 0.2
v 1 2.1 0.2
v 1 2.2 0.2
v 1 2.5 0.2
v 1 2.6 0.2
v 1 0.7 0.1
v 1 0.8 0.1
v 1 0.9 0.1
v 1 1 0.1
v 1 1.1 0.1
v 1 1.2 0.1
v 1 1.3 0.1
v 1 1.4 0.1
v 1 1.5 0.1
v 1 2 0.1
v 1 2.1 0.1
v 1 2.5 0.1
v 1 2.6 0.1
v 1 0.7 0
v 1 0.8 0
v 1 1.1 0
v 1 1.2 0
v 1 1.4 0
v 1 1.5 0
v 1 1 -0.0999999
v 1 1.1 -0.0999999
v 1 1.2 -0.0999999
v 1 1.5 -0.0999999
v 1 1.6 -0.0999999
v 1 1.8 -0.0999999
v 1 1.9 -0.0999999
v 1 2.3 -0.0999999
v 1 2.4 -0.0999999
v 1 1 -0.2
v 1 1.1 -0.2
v 1 1.5 -0.2
v 1 1.6 -0.2
v 1 1.8 -0.2
v 1 1.9 -0.2
v 1 2 -0.2
v 1 2.3 -0.2
v 1 2.4 -0.2
v 1 1.5 -0.3
v 1 1.6 -0.3
v 1 1.9 -0.3
v 1 2 -0.3
v 1 2.2 -0.3
v 1 2.3 -0.3
v 1 1.5 -0.4
v 1 1.6 -0.4
v 1 1.7 -0.4
v 1 1.8 -0.4
v 1 1.9 -0.4
v 1 2 -0.4
v 1 2.1 -0.4
v 1 2.2 -0.4
v 1 2.3 -0.4
v 1 1.7 -0.5
v 1 1.8 -0.5
v 1 1.9 -0.5
v 1 2 -0.5
v 1 2.1 -0.5
v 1 2.2 -0.5
v 1 1.7 -0.6
v 1 1.8 -0.6
v 1 1.9 -0.6
v 1 2 -0.6
v 1 2.1 -0.6
v 1 2.2 -0.6
v 1 1.5 -0.7
v 1 1.6 -0.7
v 1 1.7 -0.7
v 1 1.8 -0.7
v 1 1.9 -0.7
v 1 2 -0.7
v 1 2.1 -0.7
v 1 2.2 -0.7
v 1 2.3 -0.7
v 1 1.5 -0.8
v 1 1.6 -0.8
v 1 1.9 -0.8
v 1 2 -0.8
v 1 2.2 -0.8
v 1 2.3 -0.8
v 1 1.8 -0.9
v 1 1.9 -0.9
v 1 2 -0.9
v 1 2.3 -0.9
v 1 2.4 -0.9
v 1 1.8 -1
v 1 1.9 -1
v 1 2.3 -1
v 1 2.4 -1
v 1 0.4 -1.1
v 1 0.6 -1.1
v 1 2.7 -1.1
v 1 0.2 -1.3
v 1 0.4 -1.3
v 1 0.2 -1.5
v 1 0.4 -1.5
v 0.8 0.4 1.3
v 0.8 0.6 1.3
v 0.8 2.7 1.3
v 0.8 0.4 1.1
v 0.8 0.6 1.1
v 0.8 2.7 1.1
v 0.8 2.7 0.9
v 0.8 2.8 0.9
v 0.8 2.7 -0.9
v 0.8 2.8 -0.9
v 0.8 0.4 -1.1
v 0.8 0.6 -1.1
v 0.8 2.7 -1.1
v 0.8 0.4 -1.3
v 0.8 0.6 -1.3
v 0.8 2.7 -1.3
v 0.6 2.7 1.1
v 0.6 2.8 1.1
v 0.6 2.7 0.9
v 0.6 2.8 0.9
v 0.6 2.7 -0.9
v 0.6 2.8 -0.9
v 0.6 2.7 -1.1
v 0.6 2.8 -1.1
v -0.7 2.7 1.1
v -0.7 2.8 1.1
v -0.7 2.7 0.9
v -0.7 2.8 0.9
v -0.7 2.7 -0.9
v -0.7 2.8 -0.9
v -0.7 2.7 -1.1
v -0.7 2.8 -1.1
v -0.9 0.4 1.3
v -0.9 0.6 1.3
v -0.9 2.7 1.3
v -0.9 0.4 1.1
v -0.9 0.6 1.1
v -0.9 2.7 1.1
v -0.9 2.7 0.9
v -0.9 2.8 0.9
v -0.9 2.7 -0.9
v -0.9 2.8 -0.9
v -0.9 0.4 -1.1
v -0.9 0.6 -1.1
v -0.9 2.7 -1.1
v -0.9 0.4 -1.3
v -0.9 0.6 -1.3
v -0.9 2.7 -1.3
v -1.1 0.2 1.5
v -1.1 0.4 1.5
v -1.1 0.2 1.3
v -1.1 0.4 1.3
v -1.1 0.4 1.1
v -1.1 0.6 1.1
v -1.1 2.7 1.1
v -1.1 0.4 -1.1
v -1.1 0.6 -1.1
v -1.1 2.7 -1.1
v -1.1 0.2 -1.3
v -1.1 0.4 -1.3
v -1.1 0.2 -1.5
v -1.1 0.4 -1.5
v -1.3 0 1.7
v -1.3 0.2 1.7
v -1.3 0 1.5
v -1.3 0.2 1.5
v -1.3 0.2 1.3
v -1.3 0.4 1.3
v -1.3 0.2 -1.3
v -1.3 0.4 -1.3
v -1.3 0 -1.5
v -1.3 0.2 -1.5
v -1.3 0 -1.7
v -1.3 0.2 -1.7
v -1.5 0 1.5
v -1.5 0.2 1.5
v -1.5 0 -1.5
v -1.5 0.2 -1.5
v 1.4 0 1.5
v 1.4 0 -1.5
v 1.2 0 1.7
v 1.2 0 1.5
v 1.2 0 -1.5
v 1.2 0 -1.7
v -1.3 0 1.7
v -1.3 0 1.5
v -1.3 0 -1.5
v -1.3 0 -1.7
v -1.5 0 1.5
v -1.5 0 -1.5
v 1.4 0.2 1.5
v 1.4 0.2 -1.5
v 1.2 0.2 1.7
v 1.2 0.2 1.5
v 1.2 0.2 1.3
v 1.2 0.2 -1.3
v 1.2 0.2 -1.5
v 1.2 0.2 -1.7
v 1 0.2 1.5
v 1 0.2 1.3
v 1 0.2 -1.3
v 1 0.2 -1.5
v -1.1 0.2 1.5
v -1.1 0.2 1.3
v -1.1 0.2 -1.3
v -1.1 0.2 -1.5
v -1.3 0.2 1.7
v -1.3 0.2 1.5
v -1.3 0.2 1.3
v -1.3 0.2 -1.3
v -1.3 0.2 -1.5
v -1.3 0.2 -1.7
v -1.5 0.2 1.5
v -1.5 0.2 -1.5
v 1.2 0.4 1.3
v 1.2 0.4 -1.3
v 1 0.4 1.5
v 1 0.4 1.3
v 1 0.4 1.1
v 1 0.4 -1.1
v 1 0.4 -1.3
v 1 0.4 -1.5
v 0.8 0.4 1.3
v 0.8 0.4 1.1
v 0.8 0.4 -1.1
v 0.8 0.4 -1.3
v -0.9 0.4 1.3
v -0.9 0.4 1.1
v -0.9 0.4 -1.1
v -0.9 0.4 -1.3
v -1.1 0.4 1.5
v -1.1 0.4 1.3
v -1.1 0.4 1.1
v -1.1 0.4 -1.1
v -1.1 0.4 -1.3
v -1.1 0.4 -1.5
v -1.3 0.4 1.3
v -1.3 0.4 -1.3
v 1 2.7 1.1
v 1 2.7 -1.1
v 0.8 2.7 1.3
v 0.8 2.7 1.1
v 0.8 2.7 0.9
v 0.8 2.7 -0.9
v 0.8 2.7 -1.1
v 0.8 2.7 -1.3
v 0.6 2.7 1.1
v 0.6 2.7 0.9
v 0.6 2.7 -0.9
v 0.6 2.7 -1.1
v -0.7 2.7 1.1
v -0.7 2.7 0.9
v -0.7 2.7 -0.9
v -0.7 2.7 -1.1
v -0.9 2.7 1.3
v -0.9 2.7 1.1
v -0.9 2.7 0.9
v -0.9 2.7 -0.9
v -0.9 2.7 -1.1
v -0.9 2.7 -1.3
v -1.1 2.7 1.1
v -1.1 2.7 -1.1
v 0.8 2.8 0.9
v 0.8 2.8 -0.9
v 0.6 2.8 1.1
v 0.6 2.8 0.9
v 0.6 2.8 -0.9
v 0.6 2.8 -1.1
v -0.7 2.8 1.1
v -0.7 2.8 0.9
v -0.7 2.8 -0.9
v -0.7 2.8 -1.1
v -0.9 2.8 0.9
v -0.9 2.8 -0.9

# faces
f 3/2/1 2/2/1 1/2/1
f 4/2/1 2/2/1 3/2/1
f 9/2/1 6/2/1 5/2/1
f 10/2/1 6/2/1 9/2/1
f 13/2/1 8/2/1 7/2/1
f 14/2/1 8/2/1 13/2/1
f 15/2/1 12/2/1 11/2/1
f 16/2/1 12/2/1 15/2/1
f 21/2/1 18/2/1 17/2/1
f 22/2/1 18/2/1 21/2/1
f 25/2/1 20/2/1 19/2/1
f 26/2/1 20/2/1 25/2/1
f 27/8/1 24/8/1 23/8/1
f 28/8/1 24/8/1 27/8/1
f 29/2/1 28/2/1 27/2/1
f 30/2/1 28/2/1 29/2/1
f 35/8/1 32/8/1 31/8/1
f 36/8/1 32/8/1 35/8/1
f 37/8/1 34/8/1 33/8/1
f 38/8/1 34/8/1 37/8/1
f 39/2/1 36/2/1 35/2/1
f 40/2/1 36/2/1 39/2/1
f 43/2/1 38/2/1 37/2/1
f 44/2/1 38/2/1 43/2/1
f 45/2/1 42/2/1 41/2/1
f 46/2/1 42/2/1 45/2/1
f 51/2/1 48/2/1 47/2/1
f 52/2/1 48/2/1 51/2/1
f 53/2/1 50/2/1 49/2/1
f 54/2/1 50/2/1 53/2/1
f 55/2/2 56/2/2 59/2/2
f 59/2/2 56/2/2 60/2/2
f 57/2/2 58/2/2 61/2/2
f 61/2/2 58/2/2 62/2/2
f 63/8/2 64/8/2 67/8/2
f 67/8/2 64/8/2 68/8/2
f 65/8/2 66/8/2 69/8/2
f 69/8/2 66/8/2 70/8/2
f 67/2/2 68/2/2 71/2/2
f 71/2/2 68/2/2 72/2/2
f 69/2/2 70/2/2 75/2/2
f 75/2/2 70/2/2 76/2/2
f 73/2/2 74/2/2 77/2/2
f 77/2/2 74/2/2 78/2/2
f 79/2/2 80/2/2 83/2/2
f 83/2/2 80/2/2 84/2/2
f 81/2/2 82/2/2 87/2/2
f 87/2/2 82/2/2 88/2/2
f 85/8/2 86/8/2 89/8/2
f 89/8/2 86/8/2 90/8/2
f 89/2/2 90/2/2 91/2/2
f 91/2/2 90/2/2 92/2/2
f 93/2/2 94/2/2 97/2/2
f 97/2/2 94/2/2 98/2/2
f 95/2/2 96/2/2 101/2/2
f 101/2/2 96/2/2 102/2/2
f 99/2/2 100/2/2 103/2/2
f 103/2/2 100/2/2 104/2/2
f 105/2/2 106/2/2 107/2/2
f 107/2/2 106/2/2 108/2/2
f 111/2/3 110/2/3 109/2/3
f 112/2/3 110/2/3 111/2/3
f 115/2/3 114/2/3 113/2/3
f 116/2/3 114/2/3 115/2/3
f 119/2/3 118/2/3 117/2/3
f 120/2/3 118/2/3 119/2/3
f 123/2/3 122/2/3 121/2/3
f 124/2/3 122/2/3 123/2/3
f 127/2/3 126/2/3 125/2/3
f 128/2/3 126/2/3 127/2/3
f 132/2/3 131/2/3 130/2/3
f 133/2/3 131/2/3 132/2/3
f 134/2/3 131/2/3 133/2/3
f 135/2/3 131/2/3 134/2/3
f 136/2/3 132/2/3 130/2/3
f 136/5/3 133/5/3 132/5/3
f 137/2/3 134/2/3 133/2/3
f 137/5/3 133/5/3 136/5/3
f 138/2/3 134/2/3 137/2/3
f 139/5/3 135/5/3 134/5/3
f 139/2/3 134/2/3 138/2/3
f 140/2/3 131/2/3 135/2/3
f 140/5/3 135/5/3 139/5/3
f 141/2/3 136/2/3 130/2/3
f 141/2/3 137/2/3 136/2/3
f 142/2/3 137/2/3 141/2/3
f 143/5/3 138/5/3 137/5/3
f 143/2/3 137/2/3 142/2/3
f 144/2/3 139/2/3 138/2/3
f 144/5/3 138/5/3 143/5/3
f 144/2/3 140/2/3 139/2/3
f 145/2/3 140/2/3 144/2/3
f 146/2/3 140/2/3 145/2/3
f 147/2/3 141/2/3 130/2/3
f 148/2/3 141/2/3 147/2/3
f 149/2/3 141/2/3 148/2/3
f 150/2/3 141/2/3 149/2/3
f 151/5/3 142/5/3 141/5/3
f 151/2/3 141/2/3 150/2/3
f 152/2/3 143/2/3 142/2/3
f 152/5/3 142/5/3 151/5/3
f 152/2/3 144/2/3 143/2/3
f 152/2/3 145/2/3 144/2/3
f 153/2/3 145/2/3 152/2/3
f 154/2/3 145/2/3 153/2/3
f 155/2/3 145/2/3 154/2/3
f 156/2/3 145/2/3 155/2/3
f 157/2/3 145/2/3 156/2/3
f 158/5/3 146/5/3 145/5/3
f 158/2/3 145/2/3 157/2/3
f 159/2/3 140/2/3 146/2/3
f 159/5/3 146/5/3 158/5/3
f 160/7/3 148/7/3 147/7/3
f 160/2/3 147/2/3 130/2/3
f 161/2/3 149/2/3 148/2/3
f 161/7/3 148/7/3 160/7/3
f 162/2/3 149/2/3 161/2/3
f 163/7/3 150/7/3 149/7/3
f 163/2/3 149/2/3 162/2/3
f 164/2/3 151/2/3 150/2/3
f 164/7/3 150/7/3 163/7/3
f 164/2/3 152/2/3 151/2/3
f 164/2/3 153/2/3 152/2/3
f 165/5/3 154/5/3 153/5/3
f 165/2/3 153/2/3 164/2/3
f 166/2/3 155/2/3 154/2/3
f 166/5/3 154/5/3 165/5/3
f 167/6/3 156/6/3 155/6/3
f 167/2/3 155/2/3 166/2/3
f 168/2/3 157/2/3 156/2/3
f 168/6/3 156/6/3 167/6/3
f 169/5/3 158/5/3 157/5/3
f 169/2/3 157/2/3 168/2/3
f 170/2/3 159/2/3 158/2/3
f 170/5/3 158/5/3 169/5/3
f 171/2/3 160/2/3 130/2/3
f 171/2/3 161/2/3 160/2/3
f 172/2/3 161/2/3 171/2/3
f 173/7/3 162/7/3 161/7/3
f 173/2/3 161/2/3 172/2/3
f 174/2/3 163/2/3 162/2/3
f 174/7/3 162/7/3 173/7/3
f 174/2/3 166/2/3 165/2/3
f 174/2/3 164/2/3 163/2/3
f 174/2/3 165/2/3 164/2/3
f 175/2/3 166/2/3 174/2/3
f 176/2/3 166/2/3 175/2/3
f 177/2/3 166/2/3 176/2/3
f 178/6/3 167/6/3 166/6/3
f 178/2/3 166/2/3 177/2/3
f 179/1/3 168/1/3 167/1/3
f 179/6/3 167/6/3 178/6/3
f 180/6/3 169/6/3 168/6/3
f 180/1/3 168/1/3 179/1/3
f 181/2/3 170/2/3 169/2/3
f 181/6/3 169/6/3 180/6/3
f 182/2/3 159/2/3 170/2/3
f 182/2/3 170/2/3 181/2/3
f 183/7/3 172/7/3 171/7/3
f 183/2/3 171/2/3 130/2/3
f 184/2/3 173/2/3 172/2/3
f 184/7/3 172/7/3 183/7/3
f 184/2/3 174/2/3 173/2/3
f 184/2/3 175/2/3 174/2/3
f 185/2/3 175/2/3 184/2/3
f 186/2/3 175/2/3 185/2/3
f 187/2/3 175/2/3 186/2/3
f 188/2/3 175/2/3 187/2/3
f 189/2/3 175/2/3 188/2/3
f 190/7/3 176/7/3 175/7/3
f 190/2/3 175/2/3 189/2/3
f 191/2/3 177/2/3 176/2/3
f 191/7/3 176/7/3 190/7/3
f 192/2/3 177/2/3 191/2/3
f 193/2/3 177/2/3 192/2/3
f 194/5/3 178/5/3 177/5/3
f 194/2/3 177/2/3 193/2/3
f 195/2/3 179/2/3 178/2/3
f 195/5/3 178/5/3 194/5/3
f 196/6/3 180/6/3 179/6/3
f 196/2/3 179/2/3 195/2/3
f 197/2/3 181/2/3 180/2/3
f 197/6/3 180/6/3 196/6/3
f 198/5/3 182/5/3 181/5/3
f 198/2/3 181/2/3 197/2/3
f 199/2/3 159/2/3 182/2/3
f 199/5/3 182/5/3 198/5/3
f 200/2/3 140/2/3 159/2/3
f 200/2/3 159/2/3 199/2/3
f 201/2/3 184/2/3 183/2/3
f 201/2/3 185/2/3 184/2/3
f 201/7/3 186/7/3 185/7/3
f 202/2/3 187/2/3 186/2/3
f 202/7/3 186/7/3 201/7/3
f 203/9/3 188/9/3 187/9/3
f 203/2/3 187/2/3 202/2/3
f 204/2/3 189/2/3 188/2/3
f 204/9/3 188/9/3 203/9/3
f 205/7/3 190/7/3 189/7/3
f 205/2/3 189/2/3 204/2/3
f 206/2/3 192/2/3 191/2/3
f 206/7/3 190/7/3 205/7/3
f 206/2/3 191/2/3 190/2/3
f 207/5/3 193/5/3 192/5/3
f 207/2/3 192/2/3 206/2/3
f 208/2/3 198/2/3 197/2/3
f 208/5/3 193/5/3 207/5/3
f 208/2/3 196/2/3 195/2/3
f 208/2/3 199/2/3 198/2/3
f 208/2/3 194/2/3 193/2/3
f 208/2/3 195/2/3 194/2/3
f 208/2/3 197/2/3 196/2/3
f 209/2/3 199/2/3 208/2/3
f 210/2/3 199/2/3 209/2/3
f 211/5/3 200/5/3 199/5/3
f 211/2/3 199/2/3 210/2/3
f 212/2/3 140/2/3 200/2/3
f 212/5/3 200/5/3 211/5/3
f 213/2/3 202/2/3 201/2/3
f 213/2/3 201/2/3 183/2/3
f 214/9/3 203/9/3 202/9/3
f 214/2/3 202/2/3 213/2/3
f 215/1/3 204/1/3 203/1/3
f 215/9/3 203/9/3 214/9/3
f 216/9/3 205/9/3 204/9/3
f 216/1/3 204/1/3 215/1/3
f 217/2/3 207/2/3 206/2/3
f 217/9/3 205/9/3 216/9/3
f 217/2/3 206/2/3 205/2/3
f 217/2/3 209/2/3 208/2/3
f 217/2/3 208/2/3 207/2/3
f 218/2/3 209/2/3 217/2/3
f 219/2/3 209/2/3 218/2/3
f 220/5/3 210/5/3 209/5/3
f 220/2/3 209/2/3 219/2/3
f 221/2/3 212/2/3 211/2/3
f 221/5/3 210/5/3 220/5/3
f 221/2/3 211/2/3 210/2/3
f 222/2/3 140/2/3 212/2/3
f 222/2/3 212/2/3 221/2/3
f 223/2/3 131/2/3 140/2/3
f 223/2/3 140/2/3 222/2/3
f 224/2/3 183/2/3 130/2/3
f 224/2/3 213/2/3 183/2/3
f 225/2/3 213/2/3 224/2/3
f 226/7/3 214/7/3 213/7/3
f 226/2/3 213/2/3 225/2/3
f 227/2/3 215/2/3 214/2/3
f 227/7/3 214/7/3 226/7/3
f 228/9/3 216/9/3 215/9/3
f 228/2/3 215/2/3 227/2/3
f 229/2/3 217/2/3 216/2/3
f 229/9/3 216/9/3 228/9/3
f 230/7/3 218/7/3 217/7/3
f 230/2/3 217/2/3 229/2/3
f 231/2/3 219/2/3 218/2/3
f 231/7/3 218/7/3 230/7/3
f 232/2/3 219/2/3 231/2/3
f 233/5/3 220/5/3 219/5/3
f 233/2/3 219/2/3 232/2/3
f 234/2/3 222/2/3 221/2/3
f 234/5/3 220/5/3 233/5/3
f 234/2/3 221/2/3 220/2/3
f 235/5/3 223/5/3 222/5/3
f 235/2/3 222/2/3 234/2/3
f 236/2/3 131/2/3 223/2/3
f 236/5/3 223/5/3 235/5/3
f 237/7/3 225/7/3 224/7/3
f 237/2/3 224/2/3 130/2/3
f 238/2/3 227/2/3 226/2/3
f 238/7/3 225/7/3 237/7/3
f 238/2/3 231/2/3 230/2/3
f 238/2/3 226/2/3 225/2/3
f 238/2/3 228/2/3 227/2/3
f 238/2/3 229/2/3 228/2/3
f 238/2/3 230/2/3 229/2/3
f 239/2/3 231/2/3 238/2/3
f 240/2/3 231/2/3 239/2/3
f 241/7/3 232/7/3 231/7/3
f 241/2/3 231/2/3 240/2/3
f 242/2/3 235/2/3 234/2/3
f 242/7/3 232/7/3 241/7/3
f 242/2/3 233/2/3 232/2/3
f 242/2/3 234/2/3 233/2/3
f 242/2/3 236/2/3 235/2/3
f 243/2/3 239/2/3 238/2/3
f 243/2/3 238/2/3 237/2/3
f 244/7/3 240/7/3 239/7/3
f 244/2/3 239/2/3 243/2/3
f 245/2/3 241/2/3 240/2/3
f 245/7/3 240/7/3 244/7/3
f 245/2/3 242/2/3 241/2/3
f 246/2/3 236/2/3 242/2/3
f 246/2/3 242/2/3 245/2/3
f 247/2/3 236/2/3 246/2/3
f 248/2/3 236/2/3 247/2/3
f 249/2/3 236/2/3 248/2/3
f 250/2/3 236/2/3 249/2/3
f 251/2/3 236/2/3 250/2/3
f 252/7/3 244/7/3 243/7/3
f 252/2/3 243/2/3 237/2/3
f 253/2/3 245/2/3 244/2/3
f 253/7/3 244/7/3 252/7/3
f 253/2/3 246/2/3 245/2/3
f 254/7/3 247/7/3 246/7/3
f 254/2/3 246/2/3 253/2/3
f 255/2/3 248/2/3 247/2/3
f 255/7/3 247/7/3 254/7/3
f 256/3/3 249/3/3 248/3/3
f 256/2/3 248/2/3 255/2/3
f 257/2/3 250/2/3 249/2/3
f 257/3/3 249/3/3 256/3/3
f 258/2/3 250/2/3 257/2/3
f 259/3/3 251/3/3 250/3/3
f 259/2/3 250/2/3 258/2/3
f 260/2/3 236/2/3 251/2/3
f 260/3/3 251/3/3 259/3/3
f 261/2/3 256/2/3 255/2/3
f 261/2/3 253/2/3 252/2/3
f 261/2/3 254/2/3 253/2/3
f 261/2/3 257/2/3 256/2/3
f 261/2/3 255/2/3 254/2/3
f 262/2/3 257/2/3 261/2/3
f 263/3/3 258/3/3 257/3/3
f 263/2/3 257/2/3 262/2/3
f 264/2/3 259/2/3 258/2/3
f 264/3/3 258/3/3 263/3/3
f 264/2/3 260/2/3 259/2/3
f 265/2/3 260/2/3 264/2/3
f 266/2/3 260/2/3 265/2/3
f 267/3/3 262/3/3 261/3/3
f 267/2/3 261/2/3 252/2/3
f 268/2/3 263/2/3 262/2/3
f 268/3/3 262/3/3 267/3/3
f 268/2/3 264/2/3 263/2/3
f 268/2/3 265/2/3 264/2/3
f 269/2/3 265/2/3 268/2/3
f 270/2/3 265/2/3 269/2/3
f 271/2/3 265/2/3 270/2/3
f 272/2/3 265/2/3 271/2/3
f 273/2/3 265/2/3 272/2/3
f 274/3/3 266/3/3 265/3/3
f 274/2/3 265/2/3 273/2/3
f 275/2/3 260/2/3 266/2/3
f 275/3/3 266/3/3 274/3/3
f 276/2/3 268/2/3 267/2/3
f 276/2/3 269/2/3 268/2/3
f 276/3/3 270/3/3 269/3/3
f 277/2/3 271/2/3 270/2/3
f 277/3/3 270/3/3 276/3/3
f 278/4/3 272/4/3 271/4/3
f 278/2/3 271/2/3 277/2/3
f 279/2/3 273/2/3 272/2/3
f 279/4/3 272/4/3 278/4/3
f 280/3/3 274/3/3 273/3/3
f 280/2/3 273/2/3 279/2/3
f 281/2/3 275/2/3 274/2/3
f 281/3/3 274/3/3 280/3/3
f 282/2/3 277/2/3 276/2/3
f 282/2/3 276/2/3 267/2/3
f 283/4/3 278/4/3 277/4/3
f 283/2/3 277/2/3 282/2/3
f 284/1/3 279/1/3 278/1/3
f 284/4/3 278/4/3 283/4/3
f 285/4/3 280/4/3 279/4/3
f 285/1/3 279/1/3 284/1/3
f 286/2/3 281/2/3 280/2/3
f 286/4/3 280/4/3 285/4/3
f 287/2/3 275/2/3 281/2/3
f 287/2/3 281/2/3 286/2/3
f 288/2/3 267/2/3 252/2/3
f 288/2/3 282/2/3 267/2/3
f 289/2/3 282/2/3 288/2/3
f 290/3/3 283/3/3 282/3/3
f 290/2/3 282/2/3 289/2/3
f 291/2/3 284/2/3 283/2/3
f 291/3/3 283/3/3 290/3/3
f 292/4/3 285/4/3 284/4/3
f 292/2/3 284/2/3 291/2/3
f 293/2/3 286/2/3 285/2/3
f 293/4/3 285/4/3 292/4/3
f 294/3/3 287/3/3 286/3/3
f 294/2/3 286/2/3 293/2/3
f 295/2/3 275/2/3 287/2/3
f 295/3/3 287/3/3 294/3/3
f 296/2/3 260/2/3 275/2/3
f 296/2/3 275/2/3 295/2/3
f 297/3/3 289/3/3 288/3/3
f 297/2/3 288/2/3 252/2/3
f 298/2/3 294/2/3 293/2/3
f 298/3/3 289/3/3 297/3/3
f 298/2/3 293/2/3 292/2/3
f 298/2/3 295/2/3 294/2/3
f 298/2/3 291/2/3 290/2/3
f 298/2/3 292/2/3 291/2/3
f 298/2/3 290/2/3 289/2/3
f 299/2/3 295/2/3 298/2/3
f 300/2/3 295/2/3 299/2/3
f 301/3/3 296/3/3 295/3/3
f 301/2/3 295/2/3 300/2/3
f 302/2/3 260/2/3 296/2/3
f 302/3/3 296/3/3 301/3/3
f 303/2/3 298/2/3 297/2/3
f 303/2/3 299/2/3 298/2/3
f 304/3/3 300/3/3 299/3/3
f 304/2/3 299/2/3 303/2/3
f 305/2/3 301/2/3 300/2/3
f 305/3/3 300/3/3 304/3/3
f 305/2/3 302/2/3 301/2/3
f 306/2/3 260/2/3 302/2/3
f 306/2/3 302/2/3 305/2/3
f 307/2/3 236/2/3 260/2/3
f 307/2/3 260/2/3 306/2/3
f 308/3/3 304/3/3 303/3/3
f 308/2/3 303/2/3 297/2/3
f 309/2/3 306/2/3 305/2/3
f 309/3/3 304/3/3 308/3/3
f 309/2/3 305/2/3 304/2/3
f 310/3/3 307/3/3 306/3/3
f 310/2/3 306/2/3 309/2/3
f 311/2/3 236/2/3 307/2/3
f 311/3/3 307/3/3 310/3/3
f 312/8/3 130/8/3 129/8/3
f 313/2/3 297/2/3 252/2/3
f 313/8/3 130/8/3 312/8/3
f 313/2/3 237/2/3 130/2/3
f 313/2/3 311/2/3 310/2/3
f 313/2/3 309/2/3 308/2/3
f 313/2/3 308/2/3 297/2/3
f 313/2/3 252/2/3 237/2/3
f 313/2/3 310/2/3 309/2/3
f 314/2/3 236/2/3 311/2/3
f 314/2/3 311/2/3 313/2/3
f 314/2/3 131/2/3 236/2/3
f 317/2/3 316/2/3 315/2/3
f 318/2/3 316/2/3 317/2/3
f 322/8/3 320/8/3 319/8/3
f 323/2/3 321/2/3 320/2/3
f 323/8/3 320/8/3 322/8/3
f 324/2/3 321/2/3 323/2/3
f 327/2/3 326/2/3 325/2/3
f 328/2/3 326/2/3 327/2/3
f 332/8/3 330/8/3 329/8/3
f 333/2/3 331/2/3 330/2/3
f 333/8/3 330/8/3 332/8/3
f 334/2/3 331/2/3 333/2/3
f 337/2/3 336/2/3 335/2/3
f 338/2/3 336/2/3 337/2/3
f 341/2/3 340/2/3 339/2/3
f 342/2/3 340/2/3 341/2/3
f 343/2/4 344/2/4 345/2/4
f 345/2/4 344/2/4 346/2/4
f 347/2/4 348/2/4 349/2/4
f 349/2/4 348/2/4 350/2/4
f 351/8/4 352/8/4 354/8/4
f 352/2/4 353/2/4 355/2/4
f 354/8/4 352/8/4 355/8/4
f 355/2/4 353/2/4 356/2/4
f 357/2/4 358/2/4 359/2/4
f 359/2/4 358/2/4 360/2/4
f 361/8/4 362/8/4 364/8/4
f 362/2/4 363/2/4 365/2/4
f 364/8/4 362/8/4 365/8/4
f 365/2/4 363/2/4 366/2/4
f 367/2/4 368/2/4 369/2/4
f 369/2/4 368/2/4 370/2/4
f 371/8/4 372/8/4 374/8/4
f 372/2/4 373/2/4 375/2/4
f 374/8/4 372/8/4 375/8/4
f 375/2/4 373/2/4 376/2/4
f 377/2/4 378/2/4 379/2/4
f 379/2/4 378/2/4 380/2/4
f 381/2/4 382/2/4 383/2/4
f 383/2/4 382/2/4 384/2/4
f 385/2/4 386/2/4 387/2/4
f 387/2/4 386/2/4 388/2/4
f 389/2/4 390/2/4 391/2/4
f 391/2/4 390/2/4 392/2/4
f 393/2/4 394/2/4 395/2/4
f 395/2/4 394/2/4 396/2/4
f 400/2/5 398/2/5 397/2/5
f 401/2/5 398/2/5 400/2/5
f 403/2/5 400/2/5 399/2/5
f 403/2/5 402/2/5 401/2/5
f 403/2/5 401/2/5 400/2/5
f 404/2/5 402/2/5 403/2/5
f 405/2/5 402/2/5 404/2/5
f 406/2/5 402/2/5 405/2/5
f 407/2/5 405/2/5 404/2/5
f 408/2/5 405/2/5 407/2/5
f 409/2/6 410/2/6 412/2/6
f 412/2/6 410/2/6 413/2/6
f 413/2/6 410/2/6 414/2/6
f 414/2/6 410/2/6 415/2/6
f 411/2/6 412/2/6 417/2/6
f 412/2/6 413/2/6 417/2/6
f 417/2/6 413/2/6 418/2/6
f 415/2/6 416/2/6 419/2/6
f 414/2/6 415/2/6 419/2/6
f 419/2/6 416/2/6 420/2/6
f 411/2/6 417/2/6 421/2/6
f 420/2/6 416/2/6 424/2/6
f 421/2/6 422/2/6 425/2/6
f 411/2/6 421/2/6 425/2/6
f 425/2/6 422/2/6 426/2/6
f 426/2/6 422/2/6 427/2/6
f 423/2/6 424/2/6 428/2/6
f 424/2/6 416/2/6 429/2/6
f 428/2/6 424/2/6 429/2/6
f 429/2/6 416/2/6 430/2/6
f 426/2/6 427/2/6 431/2/6
f 427/2/6 428/2/6 431/2/6
f 428/2/6 429/2/6 431/2/6
f 431/2/6 429/2/6 432/2/6
f 433/2/6 434/2/6 436/2/6
f 436/2/6 434/2/6 437/2/6
f 437/2/6 434/2/6 438/2/6
f 438/2/6 434/2/6 439/2/6
f 435/2/6 436/2/6 441/2/6
f 436/2/6 437/2/6 441/2/6
f 441/2/6 437/2/6 442/2/6
f 439/2/6 440/2/6 443/2/6
f 438/2/6 439/2/6 443/2/6
f 443/2/6 440/2/6 444/2/6
f 435/2/6 441/2/6 445/2/6
f 444/2/6 440/2/6 448/2/6
f 445/2/6 446/2/6 449/2/6
f 435/2/6 445/2/6 449/2/6
f 449/2/6 446/2/6 450/2/6
f 450/2/6 446/2/6 451/2/6
f 447/2/6 448/2/6 452/2/6
f 448/2/6 440/2/6 453/2/6
f 452/2/6 448/2/6 453/2/6
f 453/2/6 440/2/6 454/2/6
f 450/2/6 451/2/6 455/2/6
f 451/2/6 452/2/6 455/2/6
f 452/2/6 453/2/6 455/2/6
f 455/2/6 453/2/6 456/2/6
f 457/2/6 458/2/6 460/2/6
f 460/2/6 458/2/6 461/2/6
f 461/2/6 458/2/6 462/2/6
f 462/2/6 458/2/6 463/2/6
f 459/2/6 460/2/6 465/2/6
f 460/2/6 461/2/6 465/2/6
f 465/2/6 461/2/6 466/2/6
f 463/2/6 464/2/6 467/2/6
f 462/2/6 463/2/6 467/2/6
f 467/2/6 464/2/6 468/2/6
f 459/2/6 465/2/6 469/2/6
f 468/2/6 464/2/6 472/2/6
f 469/2/6 470/2/6 473/2/6
f 459/2/6 469/2/6 473/2/6
f 473/2/6 470/2/6 474/2/6
f 474/2/6 470/2/6 475/2/6
f 471/2/6 472/2/6 476/2/6
f 472/2/6 464/2/6 477/2/6
f 476/2/6 472/2/6 477/2/6
f 477/2/6 464/2/6 478/2/6
f 474/2/6 475/2/6 479/2/6
f 475/2/6 476/2/6 479/2/6
f 476/2/6 477/2/6 479/2/6
f 479/2/6 477/2/6 480/2/6
f 481/2/6 482/2/6 484/2/6
f 484/2/6 482/2/6 485/2/6
f 483/2/6 484/2/6 487/2/6
f 485/2/6 486/2/6 487/2/6
f 484/2/6 485/2/6 487/2/6
f 487/2/6 486/2/6 488/2/6
f 488/2/6 486/2/6 489/2/6
f 489/2/6 486/2/6 490/2/6
f 488/2/6 489/2/6 491/2/6
f 491/2/6 489/2/6 492/2/6
