# MagicaVoxel @ Ephtracy

# group
o 

# material
mtllib model-0.mtl
usemtl palette

# normals
vn 0 0 1
vn 0 0 -1
vn 1 0 0
vn -1 0 0
vn 0 -1 0
vn 0 1 0

# texcoords
vt 0.0722656 0.5
vt 0.255859 0.5
vt 0.259766 0.5

# verts
v 0.5 0 1
v -0.5 0 1
v 0.5 0.2 1
v 0.4 0.2 1
v -0.4 0.2 1
v -0.5 0.2 1
v 0.5 0.7 1
v 0.4 0.7 1
v -0.4 0.7 1
v -0.5 0.7 1
v 0.5 0 -1
v -0.5 0 -1
v 0.5 0.2 -1
v 0.4 0.2 -1
v -0.4 0.2 -1
v -0.5 0.2 -1
v 0.5 0.7 -1
v 0.4 0.7 -1
v -0.4 0.7 -1
v -0.5 0.7 -1
v 0.5 0 1
v 0.5 0.2 1
v 0.5 0.7 1
v 0.5 0.2 0.9
v 0.5 0.7 0.9
v 0.5 0.2 -0.9
v 0.5 0.7 -0.9
v 0.5 0 -1
v 0.5 0.2 -1
v 0.5 0.7 -1
v -0.5 0 1
v -0.5 0.2 1
v -0.5 0.7 1
v -0.5 0.2 0.9
v -0.5 0.7 0.9
v -0.5 0.2 -0.9
v -0.5 0.7 -0.9
v -0.5 0 -1
v -0.5 0.2 -1
v -0.5 0.7 -1
v 0.5 0 1
v 0.5 0 -1
v -0.5 0 1
v -0.5 0 -1
v 0.5 0.7 1
v 0.5 0.7 0.9
v 0.5 0.7 -0.9
v 0.5 0.7 -1
v 0.4 0.7 1
v 0.4 0.7 0.9
v 0.4 0.7 -0.9
v 0.4 0.7 -1
v -0.4 0.7 1
v -0.4 0.7 0.9
v -0.4 0.7 -0.9
v -0.4 0.7 -1
v -0.5 0.7 1
v -0.5 0.7 0.9
v -0.5 0.7 -0.9
v -0.5 0.7 -1

# faces
f 3/2/1 2/2/1 1/2/1
f 4/2/1 2/2/1 3/2/1
f 5/2/1 2/2/1 4/2/1
f 6/2/1 2/2/1 5/2/1
f 7/1/1 4/1/1 3/1/1
f 8/3/1 5/3/1 4/3/1
f 8/1/1 4/1/1 7/1/1
f 9/1/1 6/1/1 5/1/1
f 9/3/1 5/3/1 8/3/1
f 10/1/1 6/1/1 9/1/1
f 11/2/2 12/2/2 13/2/2
f 13/2/2 12/2/2 14/2/2
f 14/2/2 12/2/2 15/2/2
f 15/2/2 12/2/2 16/2/2
f 13/1/2 14/1/2 17/1/2
f 14/3/2 15/3/2 18/3/2
f 17/1/2 14/1/2 18/1/2
f 15/1/2 16/1/2 19/1/2
f 18/3/2 15/3/2 19/3/2
f 19/1/2 16/1/2 20/1/2
f 24/2/3 22/2/3 21/2/3
f 24/1/3 23/1/3 22/1/3
f 25/1/3 23/1/3 24/1/3
f 26/2/3 24/2/3 21/2/3
f 26/3/3 25/3/3 24/3/3
f 27/3/3 25/3/3 26/3/3
f 28/2/3 26/2/3 21/2/3
f 29/1/3 27/1/3 26/1/3
f 29/2/3 26/2/3 28/2/3
f 30/1/3 27/1/3 29/1/3
f 31/2/4 32/2/4 34/2/4
f 32/1/4 33/1/4 34/1/4
f 34/1/4 33/1/4 35/1/4
f 31/2/4 34/2/4 36/2/4
f 34/3/4 35/3/4 36/3/4
f 36/3/4 35/3/4 37/3/4
f 31/2/4 36/2/4 38/2/4
f 36/1/4 37/1/4 39/1/4
f 38/2/4 36/2/4 39/2/4
f 39/1/4 37/1/4 40/1/4
f 43/2/5 42/2/5 41/2/5
f 44/2/5 42/2/5 43/2/5
f 45/1/6 46/1/6 49/1/6
f 46/3/6 47/3/6 50/3/6
f 49/1/6 46/1/6 50/1/6
f 47/1/6 48/1/6 51/1/6
f 50/3/6 47/3/6 51/3/6
f 51/1/6 48/1/6 52/1/6
f 49/3/6 50/3/6 53/3/6
f 50/3/6 51/3/6 53/3/6
f 51/3/6 52/3/6 53/3/6
f 53/3/6 52/3/6 54/3/6
f 54/3/6 52/3/6 55/3/6
f 55/3/6 52/3/6 56/3/6
f 53/1/6 54/1/6 57/1/6
f 54/3/6 55/3/6 58/3/6
f 57/1/6 54/1/6 58/1/6
f 55/1/6 56/1/6 59/1/6
f 58/3/6 55/3/6 59/3/6
f 59/1/6 56/1/6 60/1/6
