# MagicaVoxel @ Ephtracy

# group
o 

# material
mtllib model-4.mtl
usemtl palette

# normals
vn 0 0 1
vn 0 0 -1
vn 1 0 0
vn -1 0 0
vn 0 -1 0
vn 0 1 0

# texcoords
vt 0.0214844 0.5
vt 0.564453 0.5
vt 0.568359 0.5
vt 0.759766 0.5

# verts
v 0.6 1.7 1.2
v 0.5 1.7 1.2
v -0.5 1.7 1.2
v -0.6 1.7 1.2
v 0.5 2 1.2
v -0.5 2 1.2
v 0.6 2.1 1.2
v -0.6 2.1 1.2
v 0.5 0.6 1
v -0.5 0.6 1
v 0.5 1.7 1
v -0.5 1.7 1
v 0.6 1.4 0.8
v 0.5 1.4 0.8
v 0.6 1.7 0.8
v 0.5 1.7 0.8
v 0.4 2.1 0.4
v -0.4 2.1 0.4
v 0.4 2.2 0.4
v -0.4 2.2 0.4
v 0.5 0.6 -0.3
v 0.4 0.6 -0.3
v 0.6 1.4 -0.3
v 0.5 1.4 -0.3
v 0.6 2.1 -0.3
v 0.4 2.1 -0.3
v 0.5 0.6 0.3
v 0.4 0.6 0.3
v 0.6 1.4 0.3
v 0.5 1.4 0.3
v 0.6 2.1 0.3
v 0.4 2.1 0.3
v 0.4 2.1 -0.4
v -0.4 2.1 -0.4
v 0.4 2.2 -0.4
v -0.4 2.2 -0.4
v 0.6 1.4 -0.8
v 0.5 1.4 -0.8
v 0.6 1.7 -0.8
v 0.5 1.7 -0.8
v 0.5 0.6 -1
v -0.5 0.6 -1
v 0.5 1.7 -1
v -0.5 1.7 -1
v 0.6 1.7 -1.2
v 0.5 1.7 -1.2
v -0.5 1.7 -1.2
v -0.6 1.7 -1.2
v 0.5 2 -1.2
v -0.5 2 -1.2
v 0.6 2.1 -1.2
v -0.6 2.1 -1.2
v 0.6 1.7 1.2
v 0.6 2.1 1.2
v 0.6 1.8 1.1
v 0.6 2.1 1.1
v 0.6 1.4 0.8
v 0.6 1.7 0.8
v 0.6 1.5 0.7
v 0.6 1.8 0.7
v 0.6 1.6 0.6
v 0.6 1.7 0.6
v 0.6 1.6 0.5
v 0.6 1.7 0.5
v 0.6 1.5 0.4
v 0.6 2.1 0.4
v 0.6 1.4 0.3
v 0.6 2.1 0.3
v 0.6 1.4 -0.3
v 0.6 2.1 -0.3
v 0.6 1.5 -0.4
v 0.6 2.1 -0.4
v 0.6 1.6 -0.5
v 0.6 1.7 -0.5
v 0.6 1.6 -0.6
v 0.6 1.7 -0.6
v 0.6 1.5 -0.7
v 0.6 1.8 -0.7
v 0.6 1.4 -0.8
v 0.6 1.7 -0.8
v 0.6 1.8 -1.1
v 0.6 2.1 -1.1
v 0.6 1.7 -1.2
v 0.6 2.1 -1.2
v 0.5 0.6 1
v 0.5 1.7 1
v 0.5 1.4 0.8
v 0.5 1.7 0.8
v 0.5 0.8 0.6
v 0.5 0.9 0.6
v 0.5 1.1 0.6
v 0.5 1.2 0.6
v 0.5 0.8 0.5
v 0.5 0.9 0.5
v 0.5 1.1 0.5
v 0.5 1.2 0.5
v 0.5 0.6 0.4
v 0.5 1.4 0.4
v 0.5 0.6 0.3
v 0.5 1.4 0.3
v 0.5 0.6 -0.3
v 0.5 1.4 -0.3
v 0.5 0.6 -0.4
v 0.5 1.4 -0.4
v 0.5 0.8 -0.5
v 0.5 0.9 -0.5
v 0.5 1.1 -0.5
v 0.5 1.2 -0.5
v 0.5 0.8 -0.6
v 0.5 0.9 -0.6
v 0.5 1.1 -0.6
v 0.5 1.2 -0.6
v 0.5 1.4 -0.8
v 0.5 1.7 -0.8
v 0.5 0.6 -1
v 0.5 1.7 -1
v 0.4 2.1 0.4
v 0.4 2.2 0.4
v 0.4 0.6 0.3
v 0.4 2.1 0.3
v 0.4 0.6 -0.3
v 0.4 2.1 -0.3
v 0.4 2.1 -0.4
v 0.4 2.2 -0.4
v -0.4 2.1 0.4
v -0.4 2.2 0.4
v -0.4 2.1 -0.4
v -0.4 2.2 -0.4
v -0.5 0.6 1
v -0.5 1.7 1
v -0.5 0.6 -1
v -0.5 1.7 -1
v -0.6 1.7 1.2
v -0.6 2.1 1.2
v -0.6 1.8 1.1
v -0.6 2.1 1.1
v -0.6 1.8 -1.1
v -0.6 2.1 -1.1
v -0.6 1.7 -1.2
v -0.6 2.1 -1.2
v 0.5 0.6 1
v 0.5 0.6 0.4
v 0.5 0.6 0.3
v 0.5 0.6 -0.3
v 0.5 0.6 -0.4
v 0.5 0.6 -1
v 0.4 0.6 0.4
v 0.4 0.6 0.3
v 0.4 0.6 -0.3
v 0.4 0.6 -0.4
v 0.3 0.6 0.3
v 0.3 0.6 -0.3
v -0.5 0.6 1
v -0.5 0.6 -1
v 0.6 1.4 0.8
v 0.6 1.4 0.3
v 0.6 1.4 -0.3
v 0.6 1.4 -0.8
v 0.5 1.4 0.8
v 0.5 1.4 0.4
v 0.5 1.4 0.3
v 0.5 1.4 -0.3
v 0.5 1.4 -0.4
v 0.5 1.4 -0.8
v 0.6 1.7 1.2
v 0.6 1.7 0.8
v 0.6 1.7 -0.8
v 0.6 1.7 -1.2
v 0.5 1.7 1.2
v 0.5 1.7 1
v 0.5 1.7 0.8
v 0.5 1.7 -0.8
v 0.5 1.7 -1
v 0.5 1.7 -1.2
v -0.5 1.7 1.2
v -0.5 1.7 1
v -0.5 1.7 -1
v -0.5 1.7 -1.2
v -0.6 1.7 1.2
v -0.6 1.7 -1.2
v 0.6 2.1 1.2
v 0.6 2.1 1.1
v 0.6 2.1 0.4
v 0.6 2.1 0.3
v 0.6 2.1 -0.3
v 0.6 2.1 -0.4
v 0.6 2.1 -1.1
v 0.6 2.1 -1.2
v 0.4 2.1 0.4
v 0.4 2.1 0.3
v 0.4 2.1 -0.3
v 0.4 2.1 -0.4
v -0.4 2.1 0.4
v -0.4 2.1 -0.4
v -0.6 2.1 1.2
v -0.6 2.1 1.1
v -0.6 2.1 -1.1
v -0.6 2.1 -1.2
v 0.4 2.2 0.4
v 0.4 2.2 -0.4
v -0.4 2.2 0.4
v -0.4 2.2 -0.4

# faces
f 5/4/1 2/4/1 1/4/1
f 5/3/1 3/3/1 2/3/1
f 6/4/1 4/4/1 3/4/1
f 6/3/1 3/3/1 5/3/1
f 7/4/1 5/4/1 1/4/1
f 7/4/1 6/4/1 5/4/1
f 8/4/1 4/4/1 6/4/1
f 8/4/1 6/4/1 7/4/1
f 11/3/1 10/3/1 9/3/1
f 12/3/1 10/3/1 11/3/1
f 15/4/1 14/4/1 13/4/1
f 16/4/1 14/4/1 15/4/1
f 19/4/1 18/4/1 17/4/1
f 20/4/1 18/4/1 19/4/1
f 24/4/1 22/4/1 21/4/1
f 25/4/1 24/4/1 23/4/1
f 26/4/1 22/4/1 24/4/1
f 26/4/1 24/4/1 25/4/1
f 27/4/2 28/4/2 30/4/2
f 29/4/2 30/4/2 31/4/2
f 30/4/2 28/4/2 32/4/2
f 31/4/2 30/4/2 32/4/2
f 33/4/2 34/4/2 35/4/2
f 35/4/2 34/4/2 36/4/2
f 37/4/2 38/4/2 39/4/2
f 39/4/2 38/4/2 40/4/2
f 41/3/2 42/3/2 43/3/2
f 43/3/2 42/3/2 44/3/2
f 45/4/2 46/4/2 49/4/2
f 46/3/2 47/3/2 49/3/2
f 47/4/2 48/4/2 50/4/2
f 49/3/2 47/3/2 50/3/2
f 45/4/2 49/4/2 51/4/2
f 49/4/2 50/4/2 51/4/2
f 50/4/2 48/4/2 52/4/2
f 51/4/2 50/4/2 52/4/2
f 55/4/3 54/4/3 53/4/3
f 56/4/3 54/4/3 55/4/3
f 58/4/3 55/4/3 53/4/3
f 59/4/3 58/4/3 57/4/3
f 60/3/3 56/3/3 55/3/3
f 60/4/3 58/4/3 59/4/3
f 60/4/3 55/4/3 58/4/3
f 61/3/3 60/3/3 59/3/3
f 62/3/3 60/3/3 61/3/3
f 63/3/3 61/3/3 59/3/3
f 63/4/3 62/4/3 61/4/3
f 64/3/3 60/3/3 62/3/3
f 64/4/3 62/4/3 63/4/3
f 65/4/3 59/4/3 57/4/3
f 65/3/3 63/3/3 59/3/3
f 65/3/3 64/3/3 63/3/3
f 66/3/3 60/3/3 64/3/3
f 66/3/3 64/3/3 65/3/3
f 66/3/3 56/3/3 60/3/3
f 67/4/3 65/4/3 57/4/3
f 67/4/3 66/4/3 65/4/3
f 68/4/3 66/4/3 67/4/3
f 71/4/3 70/4/3 69/4/3
f 72/4/3 70/4/3 71/4/3
f 73/3/3 72/3/3 71/3/3
f 74/3/3 72/3/3 73/3/3
f 75/3/3 73/3/3 71/3/3
f 75/2/3 74/2/3 73/2/3
f 76/3/3 72/3/3 74/3/3
f 76/2/3 74/2/3 75/2/3
f 77/4/3 71/4/3 69/4/3
f 77/3/3 75/3/3 71/3/3
f 77/3/3 76/3/3 75/3/3
f 78/3/3 72/3/3 76/3/3
f 78/3/3 76/3/3 77/3/3
f 79/4/3 77/4/3 69/4/3
f 79/4/3 78/4/3 77/4/3
f 80/4/3 78/4/3 79/4/3
f 81/3/3 72/3/3 78/3/3
f 81/4/3 78/4/3 80/4/3
f 82/3/3 72/3/3 81/3/3
f 83/4/3 81/4/3 80/4/3
f 83/4/3 82/4/3 81/4/3
f 84/4/3 82/4/3 83/4/3
f 87/3/3 86/3/3 85/3/3
f 88/3/3 86/3/3 87/3/3
f 89/3/3 87/3/3 85/3/3
f 90/3/3 87/3/3 89/3/3
f 91/3/3 87/3/3 90/3/3
f 92/3/3 87/3/3 91/3/3
f 93/3/3 89/3/3 85/3/3
f 93/4/3 90/4/3 89/4/3
f 94/3/3 91/3/3 90/3/3
f 94/4/3 90/4/3 93/4/3
f 95/4/3 92/4/3 91/4/3
f 95/3/3 91/3/3 94/3/3
f 96/3/3 87/3/3 92/3/3
f 96/4/3 92/4/3 95/4/3
f 97/3/3 95/3/3 94/3/3
f 97/3/3 94/3/3 93/3/3
f 97/3/3 96/3/3 95/3/3
f 97/3/3 93/3/3 85/3/3
f 98/3/3 87/3/3 96/3/3
f 98/3/3 96/3/3 97/3/3
f 99/4/3 98/4/3 97/4/3
f 100/4/3 98/4/3 99/4/3
f 103/4/3 102/4/3 101/4/3
f 104/4/3 102/4/3 103/4/3
f 105/3/3 104/3/3 103/3/3
f 106/3/3 104/3/3 105/3/3
f 107/3/3 104/3/3 106/3/3
f 108/3/3 104/3/3 107/3/3
f 109/3/3 105/3/3 103/3/3
f 109/2/3 106/2/3 105/2/3
f 110/3/3 107/3/3 106/3/3
f 110/2/3 106/2/3 109/2/3
f 111/2/3 108/2/3 107/2/3
f 111/3/3 107/3/3 110/3/3
f 112/3/3 104/3/3 108/3/3
f 112/2/3 108/2/3 111/2/3
f 113/3/3 111/3/3 110/3/3
f 113/3/3 104/3/3 112/3/3
f 113/3/3 112/3/3 111/3/3
f 113/3/3 110/3/3 109/3/3
f 115/3/3 113/3/3 109/3/3
f 115/3/3 114/3/3 113/3/3
f 115/3/3 109/3/3 103/3/3
f 116/3/3 114/3/3 115/3/3
f 120/4/3 118/4/3 117/4/3
f 121/1/3 120/1/3 119/1/3
f 122/4/3 118/4/3 120/4/3
f 122/1/3 120/1/3 121/1/3
f 123/4/3 118/4/3 122/4/3
f 124/4/3 118/4/3 123/4/3
f 125/4/4 126/4/4 127/4/4
f 127/4/4 126/4/4 128/4/4
f 129/3/4 130/3/4 131/3/4
f 131/3/4 130/3/4 132/3/4
f 133/4/4 134/4/4 135/4/4
f 135/4/4 134/4/4 136/4/4
f 133/4/4 135/4/4 137/4/4
f 135/3/4 136/3/4 137/3/4
f 137/3/4 136/3/4 138/3/4
f 133/4/4 137/4/4 139/4/4
f 137/4/4 138/4/4 139/4/4
f 139/4/4 138/4/4 140/4/4
f 147/3/5 142/3/5 141/3/5
f 147/4/5 143/4/5 142/4/5
f 148/4/5 143/4/5 147/4/5
f 149/4/5 145/4/5 144/4/5
f 150/3/5 146/3/5 145/3/5
f 150/4/5 145/4/5 149/4/5
f 151/1/5 149/1/5 148/1/5
f 151/3/5 148/3/5 147/3/5
f 152/3/5 150/3/5 149/3/5
f 152/1/5 149/1/5 151/1/5
f 153/3/5 151/3/5 147/3/5
f 153/3/5 147/3/5 141/3/5
f 153/3/5 152/3/5 151/3/5
f 154/3/5 146/3/5 150/3/5
f 154/3/5 152/3/5 153/3/5
f 154/3/5 150/3/5 152/3/5
f 159/4/5 156/4/5 155/4/5
f 160/4/5 156/4/5 159/4/5
f 161/4/5 156/4/5 160/4/5
f 162/4/5 158/4/5 157/4/5
f 163/4/5 158/4/5 162/4/5
f 164/4/5 158/4/5 163/4/5
f 169/4/5 166/4/5 165/4/5
f 170/4/5 166/4/5 169/4/5
f 171/4/5 166/4/5 170/4/5
f 172/4/5 168/4/5 167/4/5
f 173/4/5 168/4/5 172/4/5
f 174/4/5 168/4/5 173/4/5
f 175/3/5 170/3/5 169/3/5
f 176/3/5 170/3/5 175/3/5
f 177/3/5 174/3/5 173/3/5
f 178/3/5 174/3/5 177/3/5
f 179/4/5 176/4/5 175/4/5
f 179/4/5 177/4/5 176/4/5
f 179/4/5 178/4/5 177/4/5
f 180/4/5 178/4/5 179/4/5
f 182/3/6 183/3/6 189/3/6
f 183/4/6 184/4/6 189/4/6
f 189/4/6 184/4/6 190/4/6
f 185/4/6 186/4/6 191/4/6
f 186/3/6 187/3/6 192/3/6
f 191/4/6 186/4/6 192/4/6
f 182/3/6 189/3/6 193/3/6
f 192/3/6 187/3/6 194/3/6
f 181/4/6 182/4/6 195/4/6
f 193/3/6 194/3/6 196/3/6
f 195/4/6 182/4/6 196/4/6
f 182/3/6 193/3/6 196/3/6
f 187/4/6 188/4/6 197/4/6
f 196/3/6 194/3/6 197/3/6
f 194/3/6 187/3/6 197/3/6
f 197/4/6 188/4/6 198/4/6
f 199/4/6 200/4/6 201/4/6
f 201/4/6 200/4/6 202/4/6
