# MagicaVoxel @ Ephtracy

# group
o 

# material
mtllib model-0.mtl
usemtl palette

# normals
vn 0 0 1
vn 0 0 -1
vn 1 0 0
vn -1 0 0
vn 0 -1 0
vn 0 1 0

# texcoords
vt 0.0214844 0.5
vt 0.0996094 0.5
vt 0.513672 0.5
vt 0.517578 0.5
vt 0.521484 0.5
vt 0.564453 0.5
vt 0.568359 0.5
vt 0.759766 0.5

# verts
v 0.5 0 1
v -0.5 0 1
v 0.5 0.1 1
v -0.5 0.1 1
v 0.5 0.7 1
v -0.5 0.7 1
v 0.5 0 0.2
v 0.4 0 0.2
v 0.5 0.1 0.2
v 0.4 0.1 0.2
v 0.4 0.3 0.2
v 0.5 0.4 0.2
v 0.4 0.4 0.2
v 0.5 0.1 -0.1
v 0.4 0.1 -0.1
v 0.5 0.2 -0.1
v 0.4 0.2 -0.1
v 0.5 0.3 -0.1
v 0.4 0.3 -0.1
v 0.5 0.2 -0.3
v 0.4 0.2 -0.3
v 0.4 0.3 -0.3
v 0.5 0.7 -0.3
v 0.4 0.7 -0.3
v 0.5 0 -0.5
v 0.4 0 -0.5
v 0.4 0.1 -0.5
v 0.5 0.2 -0.5
v 0.4 0.2 -0.5
v 0.4 0 -0.9
v -0.4 0 -0.9
v 0.4 0.1 -0.9
v -0.4 0.1 -0.9
v 0.4 0 0.9
v -0.4 0 0.9
v 0.4 0.1 0.9
v -0.4 0.1 0.9
v 0.5 0 0.5
v 0.4 0 0.5
v 0.4 0.1 0.5
v 0.5 0.2 0.5
v 0.4 0.2 0.5
v 0.5 0.2 0.3
v 0.4 0.2 0.3
v 0.4 0.3 0.3
v 0.5 0.7 0.3
v 0.4 0.7 0.3
v 0.5 0.1 0.1
v 0.4 0.1 0.1
v 0.5 0.3 0.1
v 0.4 0.3 0.1
v 0.5 0 -0.2
v 0.4 0 -0.2
v 0.4 0.1 -0.2
v 0.5 0.2 -0.2
v 0.4 0.2 -0.2
v 0.4 0.3 -0.2
v 0.5 0.4 -0.2
v 0.4 0.4 -0.2
v 0.5 0 -1
v -0.5 0 -1
v 0.5 0.1 -1
v -0.5 0.1 -1
v 0.5 0.7 -1
v -0.5 0.7 -1
v 0.5 0 1
v 0.5 0.1 1
v 0.5 0.7 1
v 0.5 0.1 0.6
v 0.5 0.3 0.6
v 0.5 0.5 0.6
v 0.5 0.6 0.6
v 0.5 0 0.5
v 0.5 0.2 0.5
v 0.5 0.5 0.5
v 0.5 0.6 0.5
v 0.5 0.3 0.4
v 0.5 0.7 0.4
v 0.5 0.2 0.3
v 0.5 0.7 0.3
v 0.5 0 0.2
v 0.5 0.1 0.2
v 0.5 0.4 0.2
v 0.5 0.1 0.1
v 0.5 0.3 0.1
v 0.5 0 0
v 0.5 0.1 0
v 0.5 0.3 0
v 0.5 0.4 0
v 0.5 0.1 -0.1
v 0.5 0.2 -0.1
v 0.5 0.3 -0.1
v 0.5 0 -0.2
v 0.5 0.2 -0.2
v 0.5 0.4 -0.2
v 0.5 0.2 -0.3
v 0.5 0.7 -0.3
v 0.5 0.3 -0.4
v 0.5 0.7 -0.4
v 0.5 0 -0.5
v 0.5 0.2 -0.5
v 0.5 0.5 -0.5
v 0.5 0.6 -0.5
v 0.5 0.1 -0.6
v 0.5 0.3 -0.6
v 0.5 0.5 -0.6
v 0.5 0.6 -0.6
v 0.5 0 -1
v 0.5 0.1 -1
v 0.5 0.7 -1
v 0.4 0.1 0.5
v 0.4 0.2 0.5
v 0.4 0.2 0.3
v 0.4 0.3 0.3
v 0.4 0.7 0.3
v 0.4 0.1 0.2
v 0.4 0.3 0.2
v 0.4 0.4 0.2
v 0.4 0.1 0.1
v 0.4 0.3 0.1
v 0.4 0.1 0
v 0.4 0.3 0
v 0.4 0.4 0
v 0.4 0.1 -0.1
v 0.4 0.2 -0.1
v 0.4 0.3 -0.1
v 0.4 0.1 -0.2
v 0.4 0.2 -0.2
v 0.4 0.3 -0.2
v 0.4 0.4 -0.2
v 0.4 0.2 -0.3
v 0.4 0.3 -0.3
v 0.4 0.7 -0.3
v 0.4 0.1 -0.5
v 0.4 0.2 -0.5
v -0.4 0 0.9
v -0.4 0.1 0.9
v -0.4 0 -0.9
v -0.4 0.1 -0.9
v 0.4 0 0.9
v 0.4 0.1 0.9
v 0.4 0 0.5
v 0.4 0.1 0.5
v 0.4 0 0.2
v 0.4 0.1 0.2
v 0.4 0 0
v 0.4 0.1 0
v 0.4 0 -0.2
v 0.4 0.1 -0.2
v 0.4 0 -0.5
v 0.4 0.1 -0.5
v 0.4 0 -0.9
v 0.4 0.1 -0.9
v -0.5 0 1
v -0.5 0.1 1
v -0.5 0.7 1
v -0.5 0 -1
v -0.5 0.1 -1
v -0.5 0.7 -1
v 0.5 0 1
v 0.5 0 0.5
v 0.5 0 0.2
v 0.5 0 0
v 0.5 0 -0.2
v 0.5 0 -0.5
v 0.5 0 -1
v 0.4 0 0.9
v 0.4 0 0.5
v 0.4 0 0.2
v 0.4 0 0
v 0.4 0 -0.2
v 0.4 0 -0.5
v 0.4 0 -0.9
v -0.4 0 0.9
v -0.4 0 -0.9
v -0.5 0 1
v -0.5 0 -1
v 0.4 0.1 0.9
v 0.4 0.1 0.5
v 0.4 0.1 0.2
v 0.4 0.1 0
v 0.4 0.1 -0.2
v 0.4 0.1 -0.5
v 0.4 0.1 -0.9
v -0.4 0.1 0.9
v -0.4 0.1 -0.9
v 0.5 0.2 0.5
v 0.5 0.2 0.3
v 0.5 0.2 -0.3
v 0.5 0.2 -0.5
v 0.4 0.2 0.5
v 0.4 0.2 0.3
v 0.4 0.2 -0.3
v 0.4 0.2 -0.5
v 0.5 0.3 0.1
v 0.5 0.3 0
v 0.5 0.3 -0.1
v 0.4 0.3 0.1
v 0.4 0.3 0
v 0.4 0.3 -0.1
v 0.5 0.1 0.1
v 0.5 0.1 0
v 0.5 0.1 -0.1
v 0.4 0.1 0.1
v 0.4 0.1 0
v 0.4 0.1 -0.1
v 0.5 0.4 0.2
v 0.5 0.4 0
v 0.5 0.4 -0.2
v 0.4 0.4 0.2
v 0.4 0.4 0
v 0.4 0.4 -0.2
v 0.5 0.7 1
v 0.5 0.7 0.4
v 0.5 0.7 0.3
v 0.5 0.7 -0.3
v 0.5 0.7 -0.4
v 0.5 0.7 -1
v 0.4 0.7 0.4
v 0.4 0.7 0.3
v 0.4 0.7 -0.3
v 0.4 0.7 -0.4
v 0.3 0.7 0.3
v 0.3 0.7 -0.3
v -0.5 0.7 1
v -0.5 0.7 -1

# faces
f 3/8/1 2/8/1 1/8/1
f 4/8/1 2/8/1 3/8/1
f 5/7/1 4/7/1 3/7/1
f 6/7/1 4/7/1 5/7/1
f 9/3/1 8/3/1 7/3/1
f 10/3/1 8/3/1 9/3/1
f 11/4/1 10/4/1 9/4/1
f 12/4/1 11/4/1 9/4/1
f 13/4/1 11/4/1 12/4/1
f 16/4/1 15/4/1 14/4/1
f 17/4/1 15/4/1 16/4/1
f 18/5/1 17/5/1 16/5/1
f 19/5/1 17/5/1 18/5/1
f 22/8/1 21/8/1 20/8/1
f 23/8/1 22/8/1 20/8/1
f 24/8/1 22/8/1 23/8/1
f 27/8/1 26/8/1 25/8/1
f 28/8/1 27/8/1 25/8/1
f 29/8/1 27/8/1 28/8/1
f 32/8/1 31/8/1 30/8/1
f 33/8/1 31/8/1 32/8/1
f 34/8/2 35/8/2 36/8/2
f 36/8/2 35/8/2 37/8/2
f 38/8/2 39/8/2 40/8/2
f 38/8/2 40/8/2 41/8/2
f 41/8/2 40/8/2 42/8/2
f 43/8/2 44/8/2 45/8/2
f 43/8/2 45/8/2 46/8/2
f 46/8/2 45/8/2 47/8/2
f 48/4/2 49/4/2 50/4/2
f 50/4/2 49/4/2 51/4/2
f 52/4/2 53/4/2 54/4/2
f 52/4/2 54/4/2 55/4/2
f 55/4/2 54/4/2 56/4/2
f 55/5/2 56/5/2 57/5/2
f 55/5/2 57/5/2 58/5/2
f 58/5/2 57/5/2 59/5/2
f 60/8/2 61/8/2 62/8/2
f 62/8/2 61/8/2 63/8/2
f 62/7/2 63/7/2 64/7/2
f 64/7/2 63/7/2 65/7/2
f 69/8/3 67/8/3 66/8/3
f 69/7/3 68/7/3 67/7/3
f 70/7/3 68/7/3 69/7/3
f 71/7/3 68/7/3 70/7/3
f 72/7/3 68/7/3 71/7/3
f 73/8/3 69/8/3 66/8/3
f 73/8/3 70/8/3 69/8/3
f 74/8/3 70/8/3 73/8/3
f 75/8/3 72/8/3 71/8/3
f 75/7/3 71/7/3 70/7/3
f 76/7/3 68/7/3 72/7/3
f 76/8/3 72/8/3 75/8/3
f 77/7/3 75/7/3 70/7/3
f 77/8/3 70/8/3 74/8/3
f 77/7/3 76/7/3 75/7/3
f 78/7/3 68/7/3 76/7/3
f 78/7/3 76/7/3 77/7/3
f 79/8/3 77/8/3 74/8/3
f 79/8/3 78/8/3 77/8/3
f 80/8/3 78/8/3 79/8/3
f 84/3/3 82/3/3 81/3/3
f 84/4/3 83/4/3 82/4/3
f 85/4/3 83/4/3 84/4/3
f 86/3/3 84/3/3 81/3/3
f 87/3/3 84/3/3 86/3/3
f 88/4/3 83/4/3 85/4/3
f 89/4/3 83/4/3 88/4/3
f 90/4/3 87/4/3 86/4/3
f 92/5/3 89/5/3 88/5/3
f 93/4/3 91/4/3 90/4/3
f 93/4/3 90/4/3 86/4/3
f 94/5/3 92/5/3 91/5/3
f 94/4/3 91/4/3 93/4/3
f 95/5/3 89/5/3 92/5/3
f 95/5/3 92/5/3 94/5/3
f 98/8/3 97/8/3 96/8/3
f 99/8/3 97/8/3 98/8/3
f 101/8/3 98/8/3 96/8/3
f 102/7/3 99/7/3 98/7/3
f 103/7/3 99/7/3 102/7/3
f 104/8/3 101/8/3 100/8/3
f 105/8/3 98/8/3 101/8/3
f 105/8/3 101/8/3 104/8/3
f 105/7/3 102/7/3 98/7/3
f 106/6/3 103/6/3 102/6/3
f 106/7/3 102/7/3 105/7/3
f 107/7/3 99/7/3 103/7/3
f 107/6/3 103/6/3 106/6/3
f 108/8/3 104/8/3 100/8/3
f 109/7/3 106/7/3 105/7/3
f 109/8/3 104/8/3 108/8/3
f 109/7/3 105/7/3 104/7/3
f 109/7/3 107/7/3 106/7/3
f 110/7/3 99/7/3 107/7/3
f 110/7/3 107/7/3 109/7/3
f 113/2/3 112/2/3 111/2/3
f 116/2/3 113/2/3 111/2/3
f 116/2/3 114/2/3 113/2/3
f 117/1/3 115/1/3 114/1/3
f 117/2/3 114/2/3 116/2/3
f 118/1/3 115/1/3 117/1/3
f 121/2/3 120/2/3 119/2/3
f 122/2/3 120/2/3 121/2/3
f 123/1/3 115/1/3 118/1/3
f 124/2/3 122/2/3 121/2/3
f 125/2/3 122/2/3 124/2/3
f 126/2/3 122/2/3 125/2/3
f 130/1/3 115/1/3 123/1/3
f 131/2/3 129/2/3 128/2/3
f 131/2/3 128/2/3 127/2/3
f 132/1/3 130/1/3 129/1/3
f 132/2/3 129/2/3 131/2/3
f 133/1/3 115/1/3 130/1/3
f 133/1/3 130/1/3 132/1/3
f 134/2/3 131/2/3 127/2/3
f 135/2/3 131/2/3 134/2/3
f 138/8/3 137/8/3 136/8/3
f 139/8/3 137/8/3 138/8/3
f 140/8/4 141/8/4 142/8/4
f 142/8/4 141/8/4 143/8/4
f 144/3/4 145/3/4 146/3/4
f 146/3/4 145/3/4 147/3/4
f 146/4/4 147/4/4 148/4/4
f 148/4/4 147/4/4 149/4/4
f 150/8/4 151/8/4 152/8/4
f 152/8/4 151/8/4 153/8/4
f 154/8/4 155/8/4 157/8/4
f 155/7/4 156/7/4 158/7/4
f 157/8/4 155/8/4 158/8/4
f 158/7/4 156/7/4 159/7/4
f 167/8/5 161/8/5 160/8/5
f 168/8/5 161/8/5 167/8/5
f 169/3/5 163/3/5 162/3/5
f 170/4/5 164/4/5 163/4/5
f 170/3/5 163/3/5 169/3/5
f 171/4/5 164/4/5 170/4/5
f 172/8/5 166/8/5 165/8/5
f 173/8/5 166/8/5 172/8/5
f 174/8/5 167/8/5 160/8/5
f 175/8/5 166/8/5 173/8/5
f 176/8/5 174/8/5 160/8/5
f 176/8/5 175/8/5 174/8/5
f 177/8/5 166/8/5 175/8/5
f 177/8/5 175/8/5 176/8/5
f 185/2/5 179/2/5 178/2/5
f 185/2/5 184/2/5 183/2/5
f 185/2/5 183/2/5 182/2/5
f 185/2/5 182/2/5 181/2/5
f 185/2/5 181/2/5 180/2/5
f 185/2/5 180/2/5 179/2/5
f 186/2/5 184/2/5 185/2/5
f 191/8/5 188/8/5 187/8/5
f 192/8/5 188/8/5 191/8/5
f 193/8/5 190/8/5 189/8/5
f 194/8/5 190/8/5 193/8/5
f 198/4/5 196/4/5 195/4/5
f 199/5/5 197/5/5 196/5/5
f 199/4/5 196/4/5 198/4/5
f 200/5/5 197/5/5 199/5/5
f 201/3/6 202/3/6 204/3/6
f 202/4/6 203/4/6 205/4/6
f 204/3/6 202/3/6 205/3/6
f 205/4/6 203/4/6 206/4/6
f 207/4/6 208/4/6 210/4/6
f 208/5/6 209/5/6 211/5/6
f 210/4/6 208/4/6 211/4/6
f 211/5/6 209/5/6 212/5/6
f 213/7/6 214/7/6 219/7/6
f 214/8/6 215/8/6 219/8/6
f 219/8/6 215/8/6 220/8/6
f 216/8/6 217/8/6 221/8/6
f 217/7/6 218/7/6 222/7/6
f 221/8/6 217/8/6 222/8/6
f 220/1/6 221/1/6 223/1/6
f 219/7/6 220/7/6 223/7/6
f 221/7/6 222/7/6 224/7/6
f 223/1/6 221/1/6 224/1/6
f 219/7/6 223/7/6 225/7/6
f 213/7/6 219/7/6 225/7/6
f 223/7/6 224/7/6 225/7/6
f 222/7/6 218/7/6 226/7/6
f 225/7/6 224/7/6 226/7/6
f 224/7/6 222/7/6 226/7/6
