# MagicaVoxel @ Ephtracy

# group
o 

# material
mtllib model.mtl
usemtl palette

# normals
vn 0 0 1
vn 0 0 -1
vn 1 0 0
vn -1 0 0
vn 0 -1 0
vn 0 1 0

# texcoords
vt 0.318359 0.5
vt 0.521484 0.5
vt 0.548828 0.5
vt 0.830078 0.5

# verts
v 0.9 0 2.1
v -0.9 0 2.1
v 0.9 0.9 2.1
v -0.9 0.9 2.1
v 1.1 0 1.9
v 0.9 0 1.9
v -0.9 0 1.9
v -1.1 0 1.9
v 1.1 0.7 1.9
v 0.9 0.7 1.9
v -0.9 0.7 1.9
v -1.1 0.7 1.9
v 1.3 0 1.4
v 1.1 0 1.4
v -1.1 0 1.4
v -1.3 0 1.4
v 1.3 0.4 1.4
v 1.1 0.4 1.4
v -1.1 0.4 1.4
v -1.3 0.4 1.4
v 0.8 0.4 1.2
v -0.8 0.4 1.2
v 0.8 0.8 1.2
v -0.8 0.8 1.2
v 0.8 1.7 1.2
v -0.8 1.7 1.2
v 1 0.4 1
v 0.8 0.4 1
v -0.8 0.4 1
v -1 0.4 1
v 1 0.8 1
v 0.8 0.8 1
v -0.8 0.8 1
v -1 0.8 1
v 1 1.7 1
v 0.8 1.7 1
v -0.8 1.7 1
v -1 1.7 1
v 0.4 1.7 -1.2
v 0.2 1.7 -1.2
v 0.4 1.9 -1.2
v 0.2 1.9 -1.2
v 1.19209e-07 1.6 -1.4
v -0.2 1.6 -1.4
v 0.4 1.9 -1.4
v 0.2 1.9 -1.4
v 1.19209e-07 1.9 -1.4
v -0.2 1.9 -1.4
v 0.4 2.2 -1.4
v 0.2 2.2 -1.4
v 1.19209e-07 1.9 -1.6
v -0.2 1.9 -1.6
v 1.19209e-07 2.1 -1.6
v -0.2 2.1 -1.6
v 0.4 2.2 -1.6
v 0.2 2.2 -1.6
v 0.4 2.4 -1.6
v 0.2 2.4 -1.6
v 0.7 0.4 1.9
v -0.7 0.4 1.9
v 0.7 0.9 1.9
v -0.7 0.9 1.9
v 0.9 0.4 1.7
v 0.7 0.4 1.7
v -0.7 0.4 1.7
v -0.9 0.4 1.7
v 0.9 0.7 1.7
v -0.9 0.7 1.7
v 0.9 0.9 1.7
v 0.7 0.9 1.7
v -0.7 0.9 1.7
v -0.9 0.9 1.7
v 1.1 0.4 1.4
v 0.9 0.4 1.4
v -0.9 0.4 1.4
v -1.1 0.4 1.4
v 1.1 0.7 1.4
v 0.9 0.7 1.4
v -0.9 0.7 1.4
v -1.1 0.7 1.4
v 1 0.4 -1
v 0.8 0.4 -1
v -0.8 0.4 -1
v -1 0.4 -1
v 1 0.8 -1
v 0.8 0.8 -1
v -0.8 0.8 -1
v -1 0.8 -1
v 1 1.7 -1
v 0.8 1.7 -1
v -0.8 1.7 -1
v -1 1.7 -1
v 0.8 0.4 -1.2
v 0.4 0.4 -1.2
v 0.2 0.4 -1.2
v 1.19209e-07 0.4 -1.2
v -0.2 0.4 -1.2
v -0.8 0.4 -1.2
v 0.8 0.8 -1.2
v 0.4 0.8 -1.2
v 0.2 0.8 -1.2
v 1.19209e-07 0.8 -1.2
v -0.2 0.8 -1.2
v -0.8 0.8 -1.2
v 1.19209e-07 1.6 -1.2
v -0.2 1.6 -1.2
v 0.8 1.7 -1.2
v 0.4 1.7 -1.2
v 0.2 1.7 -1.2
v -0.8 1.7 -1.2
v 1.3 0 -1.4
v 1.1 0 -1.4
v -1.1 0 -1.4
v -1.3 0 -1.4
v 1.3 0.4 -1.4
v 1.1 0.4 -1.4
v 0.4 0.4 -1.4
v 0.2 0.4 -1.4
v 1.19209e-07 0.4 -1.4
v -0.2 0.4 -1.4
v -1.1 0.4 -1.4
v -1.3 0.4 -1.4
v 1.19209e-07 0.6 -1.4
v -0.2 0.6 -1.4
v 0.4 0.9 -1.4
v 0.2 0.9 -1.4
v 1.19209e-07 0.9 -1.4
v -0.2 0.9 -1.4
v 1.19209e-07 1 -1.4
v -0.2 1 -1.4
v 0.4 1.2 -1.4
v 0.2 1.2 -1.4
v 0.4 1.3 -1.4
v 0.2 1.3 -1.4
v 1.19209e-07 1.2 -1.5
v -0.2 1.2 -1.5
v 1.19209e-07 1.3 -1.5
v -0.2 1.3 -1.5
v 0.4 1.5 -1.5
v 0.2 1.5 -1.5
v 0.4 1.6 -1.5
v 0.2 1.6 -1.5
v 1.19209e-07 0.6 -1.6
v -0.2 0.6 -1.6
v 0.4 0.9 -1.6
v 0.2 0.9 -1.6
v 1.19209e-07 0.9 -1.6
v -0.2 0.9 -1.6
v 0.4 1.2 -1.6
v 0.2 1.2 -1.6
v 1.19209e-07 1.5 -1.7
v -0.2 1.5 -1.7
v 1.19209e-07 1.6 -1.7
v -0.2 1.6 -1.7
v 0.4 1.8 -1.7
v 0.2 1.8 -1.7
v 0.4 1.9 -1.7
v 0.2 1.9 -1.7
v 1.19209e-07 1 -1.8
v -0.2 1 -1.8
v 1.19209e-07 1.2 -1.8
v -0.2 1.2 -1.8
v 0.4 1.3 -1.8
v 0.2 1.3 -1.8
v 0.4 1.5 -1.8
v 0.2 1.5 -1.8
v 1.19209e-07 1.8 -1.8
v -0.2 1.8 -1.8
v 1.19209e-07 1.9 -1.8
v -0.2 1.9 -1.8
v 0.4 2.1 -1.8
v 0.2 2.1 -1.8
v 0.4 2.2 -1.8
v 0.2 2.2 -1.8
v 1.1 0 -1.9
v 0.9 0 -1.9
v -0.9 0 -1.9
v -1.1 0 -1.9
v 1.1 0.4 -1.9
v 0.9 0.4 -1.9
v -0.9 0.4 -1.9
v -1.1 0.4 -1.9
v 1.19209e-07 1.3 -1.9
v -0.2 1.3 -1.9
v 1.19209e-07 1.5 -1.9
v -0.2 1.5 -1.9
v 0.4 1.6 -1.9
v 0.2 1.6 -1.9
v 0.4 1.8 -1.9
v 0.2 1.8 -1.9
v 1.19209e-07 1.6 -2
v -0.2 1.6 -2
v 1.19209e-07 1.8 -2
v -0.2 1.8 -2
v 0.4 1.9 -2
v 0.2 1.9 -2
v 0.4 2.1 -2
v 0.2 2.1 -2
v 0.9 0 -2.1
v -0.9 0 -2.1
v 0.9 0.4 -2.1
v -0.9 0.4 -2.1
v 1.19209e-07 1.9 -2.1
v -0.2 1.9 -2.1
v 1.19209e-07 2.1 -2.1
v -0.2 2.1 -2.1
v 0.4 2.2 -2.1
v 0.2 2.2 -2.1
v 0.4 2.4 -2.1
v 0.2 2.4 -2.1
v 1.3 0 1.4
v 1.3 0.4 1.4
v 1.3 0 -1.4
v 1.3 0.4 -1.4
v 1.1 0 1.9
v 1.1 0.7 1.9
v 1.1 0 1.4
v 1.1 0.4 1.4
v 1.1 0.7 1.4
v 1.1 0 -1.4
v 1.1 0.4 -1.4
v 1.1 0 -1.9
v 1.1 0.4 -1.9
v 1 0.4 1
v 1 0.8 1
v 1 1.7 1
v 1 0.4 -1
v 1 0.8 -1
v 1 1.7 -1
v 0.9 0 2.1
v 0.9 0.9 2.1
v 0.9 0 1.9
v 0.9 0.7 1.9
v 0.9 0.7 1.7
v 0.9 0.9 1.7
v 0.9 0 -1.9
v 0.9 0.4 -1.9
v 0.9 0 -2.1
v 0.9 0.4 -2.1
v 0.8 0.4 1.2
v 0.8 0.8 1.2
v 0.8 1.7 1.2
v 0.8 0.4 1
v 0.8 0.8 1
v 0.8 1.7 1
v 0.8 0.4 -1
v 0.8 0.8 -1
v 0.8 1.7 -1
v 0.8 0.4 -1.2
v 0.8 0.8 -1.2
v 0.8 1.7 -1.2
v 0.4 0.4 -1.2
v 0.4 0.8 -1.2
v 0.4 1.7 -1.2
v 0.4 1.9 -1.2
v 0.4 0.4 -1.4
v 0.4 0.9 -1.4
v 0.4 1.2 -1.4
v 0.4 1.3 -1.4
v 0.4 1.9 -1.4
v 0.4 2.2 -1.4
v 0.4 1.5 -1.5
v 0.4 1.6 -1.5
v 0.4 0.9 -1.6
v 0.4 1.2 -1.6
v 0.4 2.2 -1.6
v 0.4 2.4 -1.6
v 0.4 1.8 -1.7
v 0.4 1.9 -1.7
v 0.4 1.3 -1.8
v 0.4 1.5 -1.8
v 0.4 2.1 -1.8
v 0.4 2.2 -1.8
v 0.4 1.6 -1.9
v 0.4 1.8 -1.9
v 0.4 1.9 -2
v 0.4 2.1 -2
v 0.4 2.2 -2.1
v 0.4 2.4 -2.1
v 1.19209e-07 0.4 -1.2
v 1.19209e-07 0.8 -1.2
v 1.19209e-07 1.6 -1.2
v 1.19209e-07 0.4 -1.4
v 1.19209e-07 0.6 -1.4
v 1.19209e-07 0.9 -1.4
v 1.19209e-07 1 -1.4
v 1.19209e-07 1.6 -1.4
v 1.19209e-07 1.9 -1.4
v 1.19209e-07 1.2 -1.5
v 1.19209e-07 1.3 -1.5
v 1.19209e-07 0.6 -1.6
v 1.19209e-07 0.9 -1.6
v 1.19209e-07 1.9 -1.6
v 1.19209e-07 2.1 -1.6
v 1.19209e-07 1.5 -1.7
v 1.19209e-07 1.6 -1.7
v 1.19209e-07 1 -1.8
v 1.19209e-07 1.2 -1.8
v 1.19209e-07 1.8 -1.8
v 1.19209e-07 1.9 -1.8
v 1.19209e-07 1.3 -1.9
v 1.19209e-07 1.5 -1.9
v 1.19209e-07 1.6 -2
v 1.19209e-07 1.8 -2
v 1.19209e-07 1.9 -2.1
v 1.19209e-07 2.1 -2.1
v -0.7 0.4 1.9
v -0.7 0.9 1.9
v -0.7 0.4 1.7
v -0.7 0.9 1.7
v -0.9 0.4 1.7
v -0.9 0.7 1.7
v -0.9 0.4 1.4
v -0.9 0.7 1.4
v 0.9 0.4 1.7
v 0.9 0.7 1.7
v 0.9 0.4 1.4
v 0.9 0.7 1.4
v 0.7 0.4 1.9
v 0.7 0.9 1.9
v 0.7 0.4 1.7
v 0.7 0.9 1.7
v 0.2 0.4 -1.2
v 0.2 0.8 -1.2
v 0.2 1.7 -1.2
v 0.2 1.9 -1.2
v 0.2 0.4 -1.4
v 0.2 0.9 -1.4
v 0.2 1.2 -1.4
v 0.2 1.3 -1.4
v 0.2 1.9 -1.4
v 0.2 2.2 -1.4
v 0.2 1.5 -1.5
v 0.2 1.6 -1.5
v 0.2 0.9 -1.6
v 0.2 1.2 -1.6
v 0.2 2.2 -1.6
v 0.2 2.4 -1.6
v 0.2 1.8 -1.7
v 0.2 1.9 -1.7
v 0.2 1.3 -1.8
v 0.2 1.5 -1.8
v 0.2 2.1 -1.8
v 0.2 2.2 -1.8
v 0.2 1.6 -1.9
v 0.2 1.8 -1.9
v 0.2 1.9 -2
v 0.2 2.1 -2
v 0.2 2.2 -2.1
v 0.2 2.4 -2.1
v -0.2 0.4 -1.2
v -0.2 0.8 -1.2
v -0.2 1.6 -1.2
v -0.2 0.4 -1.4
v -0.2 0.6 -1.4
v -0.2 0.9 -1.4
v -0.2 1 -1.4
v -0.2 1.6 -1.4
v -0.2 1.9 -1.4
v -0.2 1.2 -1.5
v -0.2 1.3 -1.5
v -0.2 0.6 -1.6
v -0.2 0.9 -1.6
v -0.2 1.9 -1.6
v -0.2 2.1 -1.6
v -0.2 1.5 -1.7
v -0.2 1.6 -1.7
v -0.2 1 -1.8
v -0.2 1.2 -1.8
v -0.2 1.8 -1.8
v -0.2 1.9 -1.8
v -0.2 1.3 -1.9
v -0.2 1.5 -1.9
v -0.2 1.6 -2
v -0.2 1.8 -2
v -0.2 1.9 -2.1
v -0.2 2.1 -2.1
v -0.8 0.4 1.2
v -0.8 0.8 1.2
v -0.8 1.7 1.2
v -0.8 0.4 1
v -0.8 0.8 1
v -0.8 1.7 1
v -0.8 0.4 -1
v -0.8 0.8 -1
v -0.8 1.7 -1
v -0.8 0.4 -1.2
v -0.8 0.8 -1.2
v -0.8 1.7 -1.2
v -0.9 0 2.1
v -0.9 0.9 2.1
v -0.9 0 1.9
v -0.9 0.7 1.9
v -0.9 0.7 1.7
v -0.9 0.9 1.7
v -0.9 0 -1.9
v -0.9 0.4 -1.9
v -0.9 0 -2.1
v -0.9 0.4 -2.1
v -1 0.4 1
v -1 0.8 1
v -1 1.7 1
v -1 0.4 -1
v -1 0.8 -1
v -1 1.7 -1
v -1.1 0 1.9
v -1.1 0.7 1.9
v -1.1 0 1.4
v -1.1 0.4 1.4
v -1.1 0.7 1.4
v -1.1 0 -1.4
v -1.1 0.4 -1.4
v -1.1 0 -1.9
v -1.1 0.4 -1.9
v -1.3 0 1.4
v -1.3 0.4 1.4
v -1.3 0 -1.4
v -1.3 0.4 -1.4
v 1.3 0 1.4
v 1.3 0 -1.4
v 1.1 0 1.9
v 1.1 0 1.4
v 1.1 0 -1.4
v 1.1 0 -1.9
v 0.9 0 2.1
v 0.9 0 1.9
v 0.9 0 -1.9
v 0.9 0 -2.1
v -0.9 0 2.1
v -0.9 0 1.9
v -0.9 0 -1.9
v -0.9 0 -2.1
v -1.1 0 1.9
v -1.1 0 1.4
v -1.1 0 -1.4
v -1.1 0 -1.9
v -1.3 0 1.4
v -1.3 0 -1.4
v 1.19209e-07 0.6 -1.4
v 1.19209e-07 0.6 -1.6
v -0.2 0.6 -1.4
v -0.2 0.6 -1.6
v 0.4 0.9 -1.4
v 0.4 0.9 -1.6
v 0.2 0.9 -1.4
v 0.2 0.9 -1.6
v 1.19209e-07 1 -1.4
v 1.19209e-07 1 -1.8
v -0.2 1 -1.4
v -0.2 1 -1.8
v 0.4 1.3 -1.4
v 0.4 1.3 -1.8
v 0.2 1.3 -1.4
v 0.2 1.3 -1.8
v 1.19209e-07 1.3 -1.5
v 1.19209e-07 1.3 -1.9
v -0.2 1.3 -1.5
v -0.2 1.3 -1.9
v 0.4 1.6 -1.5
v 0.4 1.6 -1.9
v 0.2 1.6 -1.5
v 0.2 1.6 -1.9
v 1.19209e-07 1.6 -1.7
v 1.19209e-07 1.6 -2
v -0.2 1.6 -1.7
v -0.2 1.6 -2
v 0.4 1.9 -1.7
v 0.4 1.9 -2
v 0.2 1.9 -1.7
v 0.2 1.9 -2
v 1.19209e-07 1.9 -1.8
v 1.19209e-07 1.9 -2.1
v -0.2 1.9 -1.8
v -0.2 1.9 -2.1
v 0.4 2.2 -1.8
v 0.4 2.2 -2.1
v 0.2 2.2 -1.8
v 0.2 2.2 -2.1
v 1.3 0.4 1.4
v 1.3 0.4 -1.4
v 1.1 0.4 1.4
v 1.1 0.4 -1.4
v 1.1 0.4 -1.9
v 1 0.4 1
v 1 0.4 -1
v 0.9 0.4 1.7
v 0.9 0.4 1.4
v 0.9 0.4 -1.9
v 0.9 0.4 -2.1
v 0.8 0.4 1.2
v 0.8 0.4 1
v 0.8 0.4 -1
v 0.8 0.4 -1.2
v 0.7 0.4 1.9
v 0.7 0.4 1.7
v 0.4 0.4 -1.2
v 0.4 0.4 -1.4
v 0.2 0.4 -1.2
v 0.2 0.4 -1.4
v 1.19209e-07 0.4 -1.2
v 1.19209e-07 0.4 -1.4
v -0.2 0.4 -1.2
v -0.2 0.4 -1.4
v -0.7 0.4 1.9
v -0.7 0.4 1.7
v -0.8 0.4 1.2
v -0.8 0.4 1
v -0.8 0.4 -1
v -0.8 0.4 -1.2
v -0.9 0.4 1.7
v -0.9 0.4 1.4
v -0.9 0.4 -1.9
v -0.9 0.4 -2.1
v -1 0.4 1
v -1 0.4 -1
v -1.1 0.4 1.4
v -1.1 0.4 -1.4
v -1.1 0.4 -1.9
v -1.3 0.4 1.4
v -1.3 0.4 -1.4
v 1.1 0.7 1.9
v 1.1 0.7 1.4
v 0.9 0.7 1.9
v 0.9 0.7 1.7
v 0.9 0.7 1.4
v -0.9 0.7 1.9
v -0.9 0.7 1.7
v -0.9 0.7 1.4
v -1.1 0.7 1.9
v -1.1 0.7 1.4
v 0.9 0.9 2.1
v 0.9 0.9 1.7
v 0.7 0.9 1.9
v 0.7 0.9 1.7
v 1.19209e-07 0.9 -1.4
v 1.19209e-07 0.9 -1.6
v -0.2 0.9 -1.4
v -0.2 0.9 -1.6
v -0.7 0.9 1.9
v -0.7 0.9 1.7
v -0.9 0.9 2.1
v -0.9 0.9 1.7
v 0.4 1.2 -1.4
v 0.4 1.2 -1.6
v 0.2 1.2 -1.4
v 0.2 1.2 -1.6
v 1.19209e-07 1.2 -1.5
v 1.19209e-07 1.2 -1.8
v -0.2 1.2 -1.5
v -0.2 1.2 -1.8
v 0.4 1.5 -1.5
v 0.4 1.5 -1.8
v 0.2 1.5 -1.5
v 0.2 1.5 -1.8
v 1.19209e-07 1.5 -1.7
v 1.19209e-07 1.5 -1.9
v -0.2 1.5 -1.7
v -0.2 1.5 -1.9
v 1.19209e-07 1.6 -1.2
v 1.19209e-07 1.6 -1.4
v -0.2 1.6 -1.2
v -0.2 1.6 -1.4
v 1 1.7 1
v 1 1.7 -1
v 0.8 1.7 1.2
v 0.8 1.7 1
v 0.8 1.7 -1
v 0.8 1.7 -1.2
v 0.4 1.7 -1.2
v 0.2 1.7 -1.2
v -0.8 1.7 1.2
v -0.8 1.7 1
v -0.8 1.7 -1
v -0.8 1.7 -1.2
v -1 1.7 1
v -1 1.7 -1
v 0.4 1.8 -1.7
v 0.4 1.8 -1.9
v 0.2 1.8 -1.7
v 0.2 1.8 -1.9
v 1.19209e-07 1.8 -1.8
v 1.19209e-07 1.8 -2
v -0.2 1.8 -1.8
v -0.2 1.8 -2
v 0.4 1.9 -1.2
v 0.4 1.9 -1.4
v 0.2 1.9 -1.2
v 0.2 1.9 -1.4
v 1.19209e-07 1.9 -1.4
v 1.19209e-07 1.9 -1.6
v -0.2 1.9 -1.4
v -0.2 1.9 -1.6
v 0.4 2.1 -1.8
v 0.4 2.1 -2
v 0.2 2.1 -1.8
v 0.2 2.1 -2
v 1.19209e-07 2.1 -1.6
v 1.19209e-07 2.1 -2.1
v -0.2 2.1 -1.6
v -0.2 2.1 -2.1
v 0.4 2.2 -1.4
v 0.4 2.2 -1.6
v 0.2 2.2 -1.4
v 0.2 2.2 -1.6
v 0.4 2.4 -1.6
v 0.4 2.4 -2.1
v 0.2 2.4 -1.6
v 0.2 2.4 -2.1

# faces
f 3/4/1 2/4/1 1/4/1
f 4/4/1 2/4/1 3/4/1
f 9/4/1 6/4/1 5/4/1
f 10/4/1 6/4/1 9/4/1
f 11/4/1 8/4/1 7/4/1
f 12/4/1 8/4/1 11/4/1
f 17/4/1 14/4/1 13/4/1
f 18/4/1 14/4/1 17/4/1
f 19/4/1 16/4/1 15/4/1
f 20/4/1 16/4/1 19/4/1
f 23/2/1 22/2/1 21/2/1
f 24/2/1 22/2/1 23/2/1
f 25/4/1 24/4/1 23/4/1
f 26/4/1 24/4/1 25/4/1
f 31/2/1 28/2/1 27/2/1
f 32/2/1 28/2/1 31/2/1
f 33/2/1 30/2/1 29/2/1
f 34/2/1 30/2/1 33/2/1
f 35/4/1 32/4/1 31/4/1
f 36/4/1 32/4/1 35/4/1
f 37/4/1 34/4/1 33/4/1
f 38/4/1 34/4/1 37/4/1
f 41/3/1 40/3/1 39/3/1
f 42/3/1 40/3/1 41/3/1
f 47/1/1 44/1/1 43/1/1
f 48/1/1 44/1/1 47/1/1
f 49/3/1 46/3/1 45/3/1
f 50/3/1 46/3/1 49/3/1
f 53/1/1 52/1/1 51/1/1
f 54/1/1 52/1/1 53/1/1
f 57/3/1 56/3/1 55/3/1
f 58/3/1 56/3/1 57/3/1
f 59/4/2 60/4/2 61/4/2
f 61/4/2 60/4/2 62/4/2
f 63/4/2 64/4/2 67/4/2
f 65/4/2 66/4/2 68/4/2
f 67/4/2 64/4/2 69/4/2
f 69/4/2 64/4/2 70/4/2
f 65/4/2 68/4/2 71/4/2
f 71/4/2 68/4/2 72/4/2
f 73/4/2 74/4/2 77/4/2
f 77/4/2 74/4/2 78/4/2
f 75/4/2 76/4/2 79/4/2
f 79/4/2 76/4/2 80/4/2
f 81/2/2 82/2/2 85/2/2
f 85/2/2 82/2/2 86/2/2
f 83/2/2 84/2/2 87/2/2
f 87/2/2 84/2/2 88/2/2
f 85/4/2 86/4/2 89/4/2
f 89/4/2 86/4/2 90/4/2
f 87/4/2 88/4/2 91/4/2
f 91/4/2 88/4/2 92/4/2
f 93/2/2 94/2/2 99/2/2
f 99/2/2 94/2/2 100/2/2
f 95/2/2 96/2/2 101/2/2
f 101/2/2 96/2/2 102/2/2
f 97/2/2 98/2/2 103/2/2
f 103/2/2 98/2/2 104/2/2
f 101/4/2 102/4/2 105/4/2
f 103/4/2 104/4/2 106/4/2
f 99/4/2 100/4/2 107/4/2
f 107/4/2 100/4/2 108/4/2
f 105/4/2 106/4/2 109/4/2
f 101/4/2 105/4/2 109/4/2
f 106/4/2 104/4/2 110/4/2
f 109/4/2 106/4/2 110/4/2
f 111/4/2 112/4/2 115/4/2
f 115/4/2 112/4/2 116/4/2
f 113/4/2 114/4/2 121/4/2
f 121/4/2 114/4/2 122/4/2
f 119/1/2 120/1/2 123/1/2
f 123/1/2 120/1/2 124/1/2
f 117/3/2 118/3/2 125/3/2
f 125/3/2 118/3/2 126/3/2
f 127/1/2 128/1/2 129/1/2
f 129/1/2 128/1/2 130/1/2
f 131/3/2 132/3/2 133/3/2
f 133/3/2 132/3/2 134/3/2
f 135/1/2 136/1/2 137/1/2
f 137/1/2 136/1/2 138/1/2
f 139/3/2 140/3/2 141/3/2
f 141/3/2 140/3/2 142/3/2
f 143/1/2 144/1/2 147/1/2
f 147/1/2 144/1/2 148/1/2
f 145/3/2 146/3/2 149/3/2
f 149/3/2 146/3/2 150/3/2
f 151/1/2 152/1/2 153/1/2
f 153/1/2 152/1/2 154/1/2
f 155/3/2 156/3/2 157/3/2
f 157/3/2 156/3/2 158/3/2
f 159/1/2 160/1/2 161/1/2
f 161/1/2 160/1/2 162/1/2
f 163/3/2 164/3/2 165/3/2
f 165/3/2 164/3/2 166/3/2
f 167/1/2 168/1/2 169/1/2
f 169/1/2 168/1/2 170/1/2
f 171/3/2 172/3/2 173/3/2
f 173/3/2 172/3/2 174/3/2
f 175/4/2 176/4/2 179/4/2
f 179/4/2 176/4/2 180/4/2
f 177/4/2 178/4/2 181/4/2
f 181/4/2 178/4/2 182/4/2
f 183/1/2 184/1/2 185/1/2
f 185/1/2 184/1/2 186/1/2
f 187/3/2 188/3/2 189/3/2
f 189/3/2 188/3/2 190/3/2
f 191/1/2 192/1/2 193/1/2
f 193/1/2 192/1/2 194/1/2
f 195/3/2 196/3/2 197/3/2
f 197/3/2 196/3/2 198/3/2
f 199/4/2 200/4/2 201/4/2
f 201/4/2 200/4/2 202/4/2
f 203/1/2 204/1/2 205/1/2
f 205/1/2 204/1/2 206/1/2
f 207/3/2 208/3/2 209/3/2
f 209/3/2 208/3/2 210/3/2
f 213/4/3 212/4/3 211/4/3
f 214/4/3 212/4/3 213/4/3
f 217/4/3 216/4/3 215/4/3
f 218/4/3 216/4/3 217/4/3
f 219/4/3 216/4/3 218/4/3
f 222/4/3 221/4/3 220/4/3
f 223/4/3 221/4/3 222/4/3
f 227/2/3 225/2/3 224/2/3
f 228/4/3 226/4/3 225/4/3
f 228/2/3 225/2/3 227/2/3
f 229/4/3 226/4/3 228/4/3
f 232/4/3 231/4/3 230/4/3
f 233/4/3 231/4/3 232/4/3
f 234/4/3 231/4/3 233/4/3
f 235/4/3 231/4/3 234/4/3
f 238/4/3 237/4/3 236/4/3
f 239/4/3 237/4/3 238/4/3
f 243/2/3 241/2/3 240/2/3
f 244/4/3 242/4/3 241/4/3
f 244/2/3 241/2/3 243/2/3
f 245/4/3 242/4/3 244/4/3
f 249/2/3 247/2/3 246/2/3
f 250/4/3 248/4/3 247/4/3
f 250/2/3 247/2/3 249/2/3
f 251/4/3 248/4/3 250/4/3
f 256/3/3 253/3/3 252/3/3
f 256/3/3 255/3/3 254/3/3
f 256/3/3 254/3/3 253/3/3
f 257/3/3 255/3/3 256/3/3
f 258/3/3 255/3/3 257/3/3
f 259/3/3 255/3/3 258/3/3
f 260/3/3 255/3/3 259/3/3
f 262/3/3 261/3/3 260/3/3
f 262/3/3 260/3/3 259/3/3
f 263/3/3 261/3/3 262/3/3
f 264/3/3 258/3/3 257/3/3
f 265/3/3 258/3/3 264/3/3
f 266/3/3 261/3/3 263/3/3
f 268/3/3 267/3/3 266/3/3
f 268/3/3 266/3/3 263/3/3
f 269/3/3 267/3/3 268/3/3
f 270/3/3 262/3/3 259/3/3
f 271/3/3 262/3/3 270/3/3
f 272/3/3 267/3/3 269/3/3
f 273/3/3 267/3/3 272/3/3
f 274/3/3 268/3/3 263/3/3
f 275/3/3 268/3/3 274/3/3
f 276/3/3 272/3/3 269/3/3
f 277/3/3 272/3/3 276/3/3
f 278/3/3 267/3/3 273/3/3
f 279/3/3 267/3/3 278/3/3
f 283/1/3 281/1/3 280/1/3
f 283/1/3 282/1/3 281/1/3
f 284/1/3 282/1/3 283/1/3
f 285/1/3 282/1/3 284/1/3
f 286/1/3 282/1/3 285/1/3
f 287/1/3 282/1/3 286/1/3
f 289/1/3 288/1/3 287/1/3
f 289/1/3 287/1/3 286/1/3
f 290/1/3 288/1/3 289/1/3
f 291/1/3 285/1/3 284/1/3
f 292/1/3 285/1/3 291/1/3
f 293/1/3 288/1/3 290/1/3
f 295/1/3 294/1/3 293/1/3
f 295/1/3 293/1/3 290/1/3
f 296/1/3 294/1/3 295/1/3
f 297/1/3 289/1/3 286/1/3
f 298/1/3 289/1/3 297/1/3
f 299/1/3 294/1/3 296/1/3
f 300/1/3 294/1/3 299/1/3
f 301/1/3 295/1/3 290/1/3
f 302/1/3 295/1/3 301/1/3
f 303/1/3 299/1/3 296/1/3
f 304/1/3 299/1/3 303/1/3
f 305/1/3 294/1/3 300/1/3
f 306/1/3 294/1/3 305/1/3
f 309/4/3 308/4/3 307/4/3
f 310/4/3 308/4/3 309/4/3
f 313/4/3 312/4/3 311/4/3
f 314/4/3 312/4/3 313/4/3
f 315/4/4 316/4/4 317/4/4
f 317/4/4 316/4/4 318/4/4
f 319/4/4 320/4/4 321/4/4
f 321/4/4 320/4/4 322/4/4
f 323/3/4 324/3/4 327/3/4
f 325/3/4 326/3/4 327/3/4
f 324/3/4 325/3/4 327/3/4
f 327/3/4 326/3/4 328/3/4
f 328/3/4 326/3/4 329/3/4
f 329/3/4 326/3/4 330/3/4
f 330/3/4 326/3/4 331/3/4
f 331/3/4 332/3/4 333/3/4
f 330/3/4 331/3/4 333/3/4
f 333/3/4 332/3/4 334/3/4
f 328/3/4 329/3/4 335/3/4
f 335/3/4 329/3/4 336/3/4
f 334/3/4 332/3/4 337/3/4
f 337/3/4 338/3/4 339/3/4
f 334/3/4 337/3/4 339/3/4
f 339/3/4 338/3/4 340/3/4
f 330/3/4 333/3/4 341/3/4
f 341/3/4 333/3/4 342/3/4
f 340/3/4 338/3/4 343/3/4
f 343/3/4 338/3/4 344/3/4
f 334/3/4 339/3/4 345/3/4
f 345/3/4 339/3/4 346/3/4
f 340/3/4 343/3/4 347/3/4
f 347/3/4 343/3/4 348/3/4
f 344/3/4 338/3/4 349/3/4
f 349/3/4 338/3/4 350/3/4
f 351/1/4 352/1/4 354/1/4
f 352/1/4 353/1/4 354/1/4
f 354/1/4 353/1/4 355/1/4
f 355/1/4 353/1/4 356/1/4
f 356/1/4 353/1/4 357/1/4
f 357/1/4 353/1/4 358/1/4
f 358/1/4 359/1/4 360/1/4
f 357/1/4 358/1/4 360/1/4
f 360/1/4 359/1/4 361/1/4
f 355/1/4 356/1/4 362/1/4
f 362/1/4 356/1/4 363/1/4
f 361/1/4 359/1/4 364/1/4
f 364/1/4 365/1/4 366/1/4
f 361/1/4 364/1/4 366/1/4
f 366/1/4 365/1/4 367/1/4
f 357/1/4 360/1/4 368/1/4
f 368/1/4 360/1/4 369/1/4
f 367/1/4 365/1/4 370/1/4
f 370/1/4 365/1/4 371/1/4
f 361/1/4 366/1/4 372/1/4
f 372/1/4 366/1/4 373/1/4
f 367/1/4 370/1/4 374/1/4
f 374/1/4 370/1/4 375/1/4
f 371/1/4 365/1/4 376/1/4
f 376/1/4 365/1/4 377/1/4
f 378/2/4 379/2/4 381/2/4
f 379/4/4 380/4/4 382/4/4
f 381/2/4 379/2/4 382/2/4
f 382/4/4 380/4/4 383/4/4
f 384/2/4 385/2/4 387/2/4
f 385/4/4 386/4/4 388/4/4
f 387/2/4 385/2/4 388/2/4
f 388/4/4 386/4/4 389/4/4
f 390/4/4 391/4/4 392/4/4
f 392/4/4 391/4/4 393/4/4
f 393/4/4 391/4/4 394/4/4
f 394/4/4 391/4/4 395/4/4
f 396/4/4 397/4/4 398/4/4
f 398/4/4 397/4/4 399/4/4
f 400/2/4 401/2/4 403/2/4
f 401/4/4 402/4/4 404/4/4
f 403/2/4 401/2/4 404/2/4
f 404/4/4 402/4/4 405/4/4
f 406/4/4 407/4/4 408/4/4
f 408/4/4 407/4/4 409/4/4
f 409/4/4 407/4/4 410/4/4
f 411/4/4 412/4/4 413/4/4
f 413/4/4 412/4/4 414/4/4
f 415/4/4 416/4/4 417/4/4
f 417/4/4 416/4/4 418/4/4
f 422/4/5 420/4/5 419/4/5
f 423/4/5 420/4/5 422/4/5
f 426/4/5 422/4/5 421/4/5
f 426/4/5 424/4/5 423/4/5
f 426/4/5 423/4/5 422/4/5
f 427/4/5 424/4/5 426/4/5
f 429/4/5 426/4/5 425/4/5
f 429/4/5 428/4/5 427/4/5
f 429/4/5 427/4/5 426/4/5
f 430/4/5 428/4/5 429/4/5
f 431/4/5 428/4/5 430/4/5
f 432/4/5 428/4/5 431/4/5
f 433/4/5 431/4/5 430/4/5
f 434/4/5 431/4/5 433/4/5
f 435/4/5 431/4/5 434/4/5
f 436/4/5 431/4/5 435/4/5
f 437/4/5 435/4/5 434/4/5
f 438/4/5 435/4/5 437/4/5
f 441/1/5 440/1/5 439/1/5
f 442/1/5 440/1/5 441/1/5
f 445/3/5 444/3/5 443/3/5
f 446/3/5 444/3/5 445/3/5
f 449/1/5 448/1/5 447/1/5
f 450/1/5 448/1/5 449/1/5
f 453/3/5 452/3/5 451/3/5
f 454/3/5 452/3/5 453/3/5
f 457/1/5 456/1/5 455/1/5
f 458/1/5 456/1/5 457/1/5
f 461/3/5 460/3/5 459/3/5
f 462/3/5 460/3/5 461/3/5
f 465/1/5 464/1/5 463/1/5
f 466/1/5 464/1/5 465/1/5
f 469/3/5 468/3/5 467/3/5
f 470/3/5 468/3/5 469/3/5
f 473/1/5 472/1/5 471/1/5
f 474/1/5 472/1/5 473/1/5
f 477/3/5 476/3/5 475/3/5
f 478/3/5 476/3/5 477/3/5
f 479/4/6 480/4/6 481/4/6
f 481/4/6 480/4/6 482/4/6
f 481/4/6 482/4/6 484/4/6
f 482/4/6 483/4/6 484/4/6
f 484/4/6 483/4/6 485/4/6
f 481/4/6 484/4/6 487/4/6
f 485/4/6 483/4/6 488/4/6
f 486/4/6 487/4/6 490/4/6
f 487/4/6 484/4/6 490/4/6
f 490/4/6 484/4/6 491/4/6
f 488/4/6 489/4/6 492/4/6
f 485/4/6 488/4/6 492/4/6
f 492/4/6 489/4/6 493/4/6
f 486/4/6 490/4/6 495/4/6
f 493/4/6 489/4/6 496/4/6
f 496/4/6 489/4/6 497/4/6
f 497/4/6 489/4/6 499/4/6
f 498/4/6 499/4/6 500/4/6
f 499/4/6 489/4/6 501/4/6
f 500/4/6 499/4/6 501/4/6
f 501/4/6 489/4/6 503/4/6
f 494/4/6 495/4/6 504/4/6
f 495/4/6 490/4/6 505/4/6
f 504/4/6 495/4/6 505/4/6
f 505/4/6 490/4/6 506/4/6
f 502/4/6 503/4/6 509/4/6
f 506/4/6 507/4/6 510/4/6
f 505/4/6 506/4/6 510/4/6
f 510/4/6 507/4/6 511/4/6
f 508/4/6 509/4/6 512/4/6
f 503/4/6 489/4/6 512/4/6
f 509/4/6 503/4/6 512/4/6
f 512/4/6 489/4/6 513/4/6
f 511/4/6 507/4/6 514/4/6
f 508/4/6 512/4/6 515/4/6
f 511/4/6 514/4/6 516/4/6
f 514/4/6 515/4/6 516/4/6
f 515/4/6 512/4/6 517/4/6
f 516/4/6 515/4/6 517/4/6
f 517/4/6 512/4/6 518/4/6
f 516/4/6 517/4/6 519/4/6
f 519/4/6 517/4/6 520/4/6
f 521/4/6 522/4/6 523/4/6
f 523/4/6 522/4/6 524/4/6
f 524/4/6 522/4/6 525/4/6
f 526/4/6 527/4/6 529/4/6
f 527/4/6 528/4/6 529/4/6
f 529/4/6 528/4/6 530/4/6
f 531/4/6 532/4/6 533/4/6
f 533/4/6 532/4/6 534/4/6
f 535/1/6 536/1/6 537/1/6
f 537/1/6 536/1/6 538/1/6
f 531/4/6 533/4/6 539/4/6
f 531/4/6 539/4/6 541/4/6
f 539/4/6 540/4/6 541/4/6
f 541/4/6 540/4/6 542/4/6
f 543/3/6 544/3/6 545/3/6
f 545/3/6 544/3/6 546/3/6
f 547/1/6 548/1/6 549/1/6
f 549/1/6 548/1/6 550/1/6
f 551/3/6 552/3/6 553/3/6
f 553/3/6 552/3/6 554/3/6
f 555/1/6 556/1/6 557/1/6
f 557/1/6 556/1/6 558/1/6
f 559/1/6 560/1/6 561/1/6
f 561/1/6 560/1/6 562/1/6
f 563/4/6 564/4/6 566/4/6
f 566/4/6 564/4/6 567/4/6
f 565/4/6 566/4/6 569/4/6
f 567/4/6 568/4/6 569/4/6
f 566/4/6 567/4/6 569/4/6
f 565/4/6 569/4/6 570/4/6
f 565/4/6 570/4/6 571/4/6
f 571/4/6 570/4/6 572/4/6
f 572/4/6 570/4/6 573/4/6
f 573/4/6 570/4/6 574/4/6
f 572/4/6 573/4/6 575/4/6
f 575/4/6 573/4/6 576/4/6
f 577/3/6 578/3/6 579/3/6
f 579/3/6 578/3/6 580/3/6
f 581/1/6 582/1/6 583/1/6
f 583/1/6 582/1/6 584/1/6
f 585/3/6 586/3/6 587/3/6
f 587/3/6 586/3/6 588/3/6
f 589/1/6 590/1/6 591/1/6
f 591/1/6 590/1/6 592/1/6
f 593/3/6 594/3/6 595/3/6
f 595/3/6 594/3/6 596/3/6
f 597/1/6 598/1/6 599/1/6
f 599/1/6 598/1/6 600/1/6
f 601/3/6 602/3/6 603/3/6
f 603/3/6 602/3/6 604/3/6
f 605/3/6 606/3/6 607/3/6
f 607/3/6 606/3/6 608/3/6
