# MagicaVoxel @ Ephtracy

# group
o 

# material
mtllib model-4.mtl
usemtl palette

# normals
vn 0 0 1
vn 0 0 -1
vn 1 0 0
vn -1 0 0
vn 0 -1 0
vn 0 1 0

# texcoords
vt 0.0371094 0.5
vt 0.0410156 0.5

# verts
v 1 5 1.2
v 0.9 5 1.2
v 1 5.2 1.2
v 0.9 5.2 1.2
v 1 4.8 0.8
v 0.9 4.8 0.8
v 1 4.9 0.8
v 0.9 4.9 0.8
v 1 5 0.8
v 0.9 5 0.8
v 1 4.6 0.2
v 0.9 4.6 0.2
v 1 4.7 0.2
v 0.9 4.7 0.2
v 1 4.8 0.2
v 0.9 4.8 0.2
v 1 4.4 -0.4
v 0.9 4.4 -0.4
v 1 4.5 -0.4
v 0.9 4.5 -0.4
v 1 4.6 -0.4
v 0.9 4.6 -0.4
v 1 4.4 -1.2
v 0.9 4.4 -1.2
v 1 4.7 -1.2
v 0.9 4.7 -1.2
v 1 4.8 -1.2
v 0.9 4.8 -1.2
v 1 4.9 -1.2
v 0.9 4.9 -1.2
v 1 5 -1.2
v 0.9 5 -1.2
v 1 5.2 -1.2
v 0.9 5.2 -1.2
v 1 5 1.2
v 1 5.2 1.2
v 1 4.8 0.8
v 1 4.9 0.8
v 1 5 0.8
v 1 4.6 0.2
v 1 4.7 0.2
v 1 4.8 0.2
v 1 4.9 0
v 1 5 0
v 1 4.7 -0.3
v 1 4.8 -0.3
v 1 4.4 -0.4
v 1 4.5 -0.4
v 1 4.6 -0.4
v 1 4.9 -0.6
v 1 5 -0.6
v 1 4.5 -0.8
v 1 4.6 -0.8
v 1 4.7 -0.9
v 1 4.8 -0.9
v 1 4.4 -1.2
v 1 4.7 -1.2
v 1 4.8 -1.2
v 1 4.9 -1.2
v 1 5 -1.2
v 1 5.2 -1.2
v 0.9 5 1.2
v 0.9 5.2 1.2
v 0.9 4.8 0.8
v 0.9 4.9 0.8
v 0.9 5 0.8
v 0.9 4.6 0.2
v 0.9 4.7 0.2
v 0.9 4.8 0.2
v 0.9 4.9 0
v 0.9 5 0
v 0.9 4.7 -0.3
v 0.9 4.8 -0.3
v 0.9 4.4 -0.4
v 0.9 4.5 -0.4
v 0.9 4.6 -0.4
v 0.9 4.9 -0.6
v 0.9 5 -0.6
v 0.9 4.5 -0.8
v 0.9 4.6 -0.8
v 0.9 4.7 -0.9
v 0.9 4.8 -0.9
v 0.9 4.4 -1.2
v 0.9 4.7 -1.2
v 0.9 4.8 -1.2
v 0.9 4.9 -1.2
v 0.9 5 -1.2
v 0.9 5.2 -1.2
v 1 4.4 -0.4
v 1 4.4 -1.2
v 0.9 4.4 -0.4
v 0.9 4.4 -1.2
v 1 4.6 0.2
v 1 4.6 -0.4
v 0.9 4.6 0.2
v 0.9 4.6 -0.4
v 1 4.8 0.8
v 1 4.8 0.2
v 0.9 4.8 0.8
v 0.9 4.8 0.2
v 1 5 1.2
v 1 5 0.8
v 0.9 5 1.2
v 0.9 5 0.8
v 1 5.2 1.2
v 1 5.2 -1.2
v 0.9 5.2 1.2
v 0.9 5.2 -1.2

# faces
f 3/2/1 2/2/1 1/2/1
f 4/2/1 2/2/1 3/2/1
f 7/2/1 6/2/1 5/2/1
f 8/2/1 6/2/1 7/2/1
f 9/1/1 8/1/1 7/1/1
f 10/1/1 8/1/1 9/1/1
f 13/2/1 12/2/1 11/2/1
f 14/2/1 12/2/1 13/2/1
f 15/1/1 14/1/1 13/1/1
f 16/1/1 14/1/1 15/1/1
f 19/2/1 18/2/1 17/2/1
f 20/2/1 18/2/1 19/2/1
f 21/1/1 20/1/1 19/1/1
f 22/1/1 20/1/1 21/1/1
f 23/2/2 24/2/2 25/2/2
f 25/2/2 24/2/2 26/2/2
f 25/1/2 26/1/2 27/1/2
f 27/1/2 26/1/2 28/1/2
f 27/2/2 28/2/2 29/2/2
f 29/2/2 28/2/2 30/2/2
f 29/1/2 30/1/2 31/1/2
f 31/1/2 30/1/2 32/1/2
f 31/2/2 32/2/2 33/2/2
f 33/2/2 32/2/2 34/2/2
f 39/2/3 36/2/3 35/2/3
f 42/2/3 38/2/3 37/2/3
f 43/1/3 39/1/3 38/1/3
f 43/2/3 38/2/3 42/2/3
f 44/2/3 36/2/3 39/2/3
f 44/1/3 39/1/3 43/1/3
f 45/2/3 41/2/3 40/2/3
f 45/1/3 42/1/3 41/1/3
f 46/2/3 43/2/3 42/2/3
f 46/1/3 42/1/3 45/1/3
f 46/2/3 44/2/3 43/2/3
f 49/2/3 45/2/3 40/2/3
f 49/2/3 46/2/3 45/2/3
f 50/2/3 44/2/3 46/2/3
f 50/2/3 46/2/3 49/2/3
f 51/2/3 36/2/3 44/2/3
f 51/2/3 44/2/3 50/2/3
f 52/2/3 48/2/3 47/2/3
f 52/1/3 49/1/3 48/1/3
f 53/2/3 50/2/3 49/2/3
f 53/1/3 49/1/3 52/1/3
f 54/2/3 53/2/3 52/2/3
f 54/2/3 50/2/3 53/2/3
f 55/2/3 50/2/3 54/2/3
f 56/2/3 52/2/3 47/2/3
f 56/2/3 54/2/3 52/2/3
f 57/1/3 55/1/3 54/1/3
f 57/2/3 54/2/3 56/2/3
f 58/2/3 50/2/3 55/2/3
f 58/1/3 55/1/3 57/1/3
f 59/1/3 51/1/3 50/1/3
f 59/2/3 50/2/3 58/2/3
f 60/2/3 36/2/3 51/2/3
f 60/1/3 51/1/3 59/1/3
f 61/2/3 36/2/3 60/2/3
f 62/2/4 63/2/4 66/2/4
f 64/2/4 65/2/4 69/2/4
f 65/1/4 66/1/4 70/1/4
f 69/2/4 65/2/4 70/2/4
f 66/2/4 63/2/4 71/2/4
f 70/1/4 66/1/4 71/1/4
f 67/2/4 68/2/4 72/2/4
f 68/1/4 69/1/4 72/1/4
f 69/2/4 70/2/4 73/2/4
f 72/1/4 69/1/4 73/1/4
f 70/2/4 71/2/4 73/2/4
f 67/2/4 72/2/4 76/2/4
f 72/2/4 73/2/4 76/2/4
f 73/2/4 71/2/4 77/2/4
f 76/2/4 73/2/4 77/2/4
f 71/2/4 63/2/4 78/2/4
f 77/2/4 71/2/4 78/2/4
f 74/2/4 75/2/4 79/2/4
f 75/1/4 76/1/4 79/1/4
f 76/2/4 77/2/4 80/2/4
f 79/1/4 76/1/4 80/1/4
f 79/2/4 80/2/4 81/2/4
f 80/2/4 77/2/4 81/2/4
f 81/2/4 77/2/4 82/2/4
f 74/2/4 79/2/4 83/2/4
f 79/2/4 81/2/4 83/2/4
f 81/1/4 82/1/4 84/1/4
f 83/2/4 81/2/4 84/2/4
f 82/2/4 77/2/4 85/2/4
f 84/1/4 82/1/4 85/1/4
f 77/1/4 78/1/4 86/1/4
f 85/2/4 77/2/4 86/2/4
f 78/2/4 63/2/4 87/2/4
f 86/1/4 78/1/4 87/1/4
f 87/2/4 63/2/4 88/2/4
f 91/2/5 90/2/5 89/2/5
f 92/2/5 90/2/5 91/2/5
f 95/2/5 94/2/5 93/2/5
f 96/2/5 94/2/5 95/2/5
f 99/2/5 98/2/5 97/2/5
f 100/2/5 98/2/5 99/2/5
f 103/2/5 102/2/5 101/2/5
f 104/2/5 102/2/5 103/2/5
f 105/2/6 106/2/6 107/2/6
f 107/2/6 106/2/6 108/2/6
