# MagicaVoxel @ Ephtracy

# group
o 

# material
mtllib model-1.mtl
usemtl palette

# normals
vn -1 0 0
vn 1 0 0
vn 0 0 1
vn 0 0 -1
vn 0 -1 0
vn 0 1 0

# texcoords
vt 0.00195313 0.5
vt 0.0292969 0.5
vt 0.822266 0.5

# verts
v 0.8 4.1 0.3
v 0.8 4.1 -0.3
v 0.8 4.2 0.3
v 0.8 4.2 -0.3
v 0.8 4.6 0.7
v 0.8 4.6 0.4
v 0.8 5 0.6
v 0.8 5 0.5
v 0.8 5.1 0.6
v 0.8 5.1 0.5
v 0.8 5.2 0.7
v 0.8 5.2 0.4
v 0.8 5.3 0.6
v 0.8 5.3 0.2
v 0.8 5.4 1
v 0.8 5.4 0.6
v 0.8 5.5 0.4
v 0.8 5.5 0.2
v 0.8 5.5 -0.2
v 0.8 5.5 -0.6
v 0.8 5.6 1
v 0.8 5.6 0.4
v 0.8 5.6 -0.6
v 0.8 5.6 -1
v 0.8 5.7 -0.2
v 0.8 5.7 -0.4
v 0.8 5.8 -0.4
v 0.8 5.8 -1
v 0.9 4.1 0.3
v 0.9 4.1 -0.3
v 0.9 4.2 0.3
v 0.9 4.2 -0.3
v 0.9 4.6 0.7
v 0.9 4.6 0.4
v 0.9 5 0.6
v 0.9 5 0.5
v 0.9 5.1 0.6
v 0.9 5.1 0.5
v 0.9 5.2 0.7
v 0.9 5.2 0.4
v 1 5.3 0.6
v 1 5.3 0.2
v 1 5.4 1
v 1 5.4 0.6
v 1 5.5 0.4
v 1 5.5 0.2
v 1 5.5 -0.2
v 1 5.5 -0.6
v 1 5.6 1
v 1 5.6 0.4
v 1 5.6 -0.6
v 1 5.6 -1
v 1 5.7 -0.2
v 1 5.7 -0.4
v 1 5.8 -0.4
v 1 5.8 -1
v 0.8 5.4 1
v 0.8 5.6 1
v 1 5.4 1
v 1 5.6 1
v 0.8 4.6 0.7
v 0.8 5.2 0.7
v 0.9 4.6 0.7
v 0.9 5.2 0.7
v 0.8 5.3 0.6
v 0.8 5.4 0.6
v 1 5.3 0.6
v 1 5.4 0.6
v 0.8 4.1 0.3
v 0.8 4.2 0.3
v 0.9 4.1 0.3
v 0.9 4.2 0.3
v 0.8 5.5 -0.2
v 0.8 5.7 -0.2
v 1 5.5 -0.2
v 1 5.7 -0.2
v 0.8 5.7 -0.4
v 0.8 5.8 -0.4
v 1 5.7 -0.4
v 1 5.8 -0.4
v 0.8 4.6 0.4
v 0.8 5.2 0.4
v 0.8 5.5 0.4
v 0.8 5.6 0.4
v 0.9 4.6 0.4
v 0.9 5.2 0.4
v 1 5.5 0.4
v 1 5.6 0.4
v 0.8 5.3 0.2
v 0.8 5.5 0.2
v 1 5.3 0.2
v 1 5.5 0.2
v 0.8 4.1 -0.3
v 0.8 4.2 -0.3
v 0.9 4.1 -0.3
v 0.9 4.2 -0.3
v 0.8 5.5 -0.6
v 0.8 5.6 -0.6
v 1 5.5 -0.6
v 1 5.6 -0.6
v 0.8 5.6 -1
v 0.8 5.8 -1
v 1 5.6 -1
v 1 5.8 -1
v 0.8 4.1 0.3
v 0.9 4.1 0.3
v 0.8 4.1 -0.3
v 0.9 4.1 -0.3
v 0.8 4.6 0.7
v 0.9 4.6 0.7
v 0.8 4.6 0.4
v 0.9 4.6 0.4
v 0.8 5.3 0.6
v 1 5.3 0.6
v 0.8 5.3 0.2
v 1 5.3 0.2
v 0.8 5.4 1
v 1 5.4 1
v 0.8 5.4 0.6
v 1 5.4 0.6
v 0.8 5.5 -0.2
v 1 5.5 -0.2
v 0.8 5.5 -0.6
v 1 5.5 -0.6
v 0.8 5.6 -0.6
v 1 5.6 -0.6
v 0.8 5.6 -1
v 1 5.6 -1
v 0.8 4.2 0.3
v 0.9 4.2 0.3
v 0.8 4.2 -0.3
v 0.9 4.2 -0.3
v 0.8 5.2 0.7
v 0.9 5.2 0.7
v 0.8 5.2 0.4
v 0.9 5.2 0.4
v 0.8 5.5 0.4
v 1 5.5 0.4
v 0.8 5.5 0.2
v 1 5.5 0.2
v 0.8 5.6 1
v 1 5.6 1
v 0.8 5.6 0.4
v 1 5.6 0.4
v 0.8 5.7 -0.2
v 1 5.7 -0.2
v 0.8 5.7 -0.4
v 1 5.7 -0.4
v 0.8 5.8 -0.4
v 1 5.8 -0.4
v 0.8 5.8 -1
v 1 5.8 -1

# faces
f 3/1/1 2/1/1 1/1/1
f 4/1/1 2/1/1 3/1/1
f 7/1/1 6/1/1 5/1/1
f 8/1/1 6/1/1 7/1/1
f 9/1/1 7/1/1 5/1/1
f 9/2/1 8/2/1 7/2/1
f 10/1/1 6/1/1 8/1/1
f 10/2/1 8/2/1 9/2/1
f 11/1/1 9/1/1 5/1/1
f 11/1/1 10/1/1 9/1/1
f 12/1/1 6/1/1 10/1/1
f 12/1/1 10/1/1 11/1/1
f 16/3/1 14/3/1 13/3/1
f 17/3/1 14/3/1 16/3/1
f 17/3/1 16/3/1 15/3/1
f 18/3/1 14/3/1 17/3/1
f 21/3/1 17/3/1 15/3/1
f 22/3/1 17/3/1 21/3/1
f 23/3/1 20/3/1 19/3/1
f 25/3/1 24/3/1 23/3/1
f 25/3/1 23/3/1 19/3/1
f 26/3/1 24/3/1 25/3/1
f 27/3/1 24/3/1 26/3/1
f 28/3/1 24/3/1 27/3/1
f 29/1/2 30/1/2 31/1/2
f 31/1/2 30/1/2 32/1/2
f 33/1/2 34/1/2 35/1/2
f 35/1/2 34/1/2 36/1/2
f 33/1/2 35/1/2 37/1/2
f 35/2/2 36/2/2 37/2/2
f 36/1/2 34/1/2 38/1/2
f 37/2/2 36/2/2 38/2/2
f 33/1/2 37/1/2 39/1/2
f 37/1/2 38/1/2 39/1/2
f 38/1/2 34/1/2 40/1/2
f 39/1/2 38/1/2 40/1/2
f 41/3/2 42/3/2 44/3/2
f 44/3/2 42/3/2 45/3/2
f 43/3/2 44/3/2 45/3/2
f 45/3/2 42/3/2 46/3/2
f 43/3/2 45/3/2 49/3/2
f 49/3/2 45/3/2 50/3/2
f 47/3/2 48/3/2 51/3/2
f 51/3/2 52/3/2 53/3/2
f 47/3/2 51/3/2 53/3/2
f 53/3/2 52/3/2 54/3/2
f 54/3/2 52/3/2 55/3/2
f 55/3/2 52/3/2 56/3/2
f 59/3/3 58/3/3 57/3/3
f 60/3/3 58/3/3 59/3/3
f 63/1/3 62/1/3 61/1/3
f 64/1/3 62/1/3 63/1/3
f 67/3/3 66/3/3 65/3/3
f 68/3/3 66/3/3 67/3/3
f 71/1/3 70/1/3 69/1/3
f 72/1/3 70/1/3 71/1/3
f 75/3/3 74/3/3 73/3/3
f 76/3/3 74/3/3 75/3/3
f 79/3/3 78/3/3 77/3/3
f 80/3/3 78/3/3 79/3/3
f 81/1/4 82/1/4 85/1/4
f 85/1/4 82/1/4 86/1/4
f 83/3/4 84/3/4 87/3/4
f 87/3/4 84/3/4 88/3/4
f 89/3/4 90/3/4 91/3/4
f 91/3/4 90/3/4 92/3/4
f 93/1/4 94/1/4 95/1/4
f 95/1/4 94/1/4 96/1/4
f 97/3/4 98/3/4 99/3/4
f 99/3/4 98/3/4 100/3/4
f 101/3/4 102/3/4 103/3/4
f 103/3/4 102/3/4 104/3/4
f 107/1/5 106/1/5 105/1/5
f 108/1/5 106/1/5 107/1/5
f 111/1/5 110/1/5 109/1/5
f 112/1/5 110/1/5 111/1/5
f 115/3/5 114/3/5 113/3/5
f 116/3/5 114/3/5 115/3/5
f 119/3/5 118/3/5 117/3/5
f 120/3/5 118/3/5 119/3/5
f 123/3/5 122/3/5 121/3/5
f 124/3/5 122/3/5 123/3/5
f 127/3/5 126/3/5 125/3/5
f 128/3/5 126/3/5 127/3/5
f 129/1/6 130/1/6 131/1/6
f 131/1/6 130/1/6 132/1/6
f 133/1/6 134/1/6 135/1/6
f 135/1/6 134/1/6 136/1/6
f 137/3/6 138/3/6 139/3/6
f 139/3/6 138/3/6 140/3/6
f 141/3/6 142/3/6 143/3/6
f 143/3/6 142/3/6 144/3/6
f 145/3/6 146/3/6 147/3/6
f 147/3/6 146/3/6 148/3/6
f 149/3/6 150/3/6 151/3/6
f 151/3/6 150/3/6 152/3/6
