# MagicaVoxel @ Ephtracy

# group
o 

# material
mtllib model-0.mtl
usemtl palette

# normals
vn 0 0 1
vn 0 0 -1
vn 1 0 0
vn -1 0 0
vn 0 -1 0
vn 0 1 0

# texcoords
vt 0.189453 0.5
vt 0.193359 0.5
vt 0.599609 0.5

# verts
v 0.4 0.5 1.2
v -0.4 0.5 1.2
v 0.4 1.8 1.2
v -0.4 1.8 1.2
v 0.7 0.5 1.1
v 0.4 0.5 1.1
v -0.4 0.5 1.1
v -0.7 0.5 1.1
v 0.4 1.8 1.1
v -0.4 1.8 1.1
v 0.7 2 1.1
v 0.5 2 1.1
v 0.3 2 1.1
v 0.1 2 1.1
v -0.1 2 1.1
v -0.3 2 1.1
v -0.5 2 1.1
v -0.7 2 1.1
v 0.7 2.1 1.1
v 0.5 2.1 1.1
v 0.3 2.1 1.1
v 0.1 2.1 1.1
v -0.1 2.1 1.1
v -0.3 2.1 1.1
v -0.5 2.1 1.1
v -0.7 2.1 1.1
v 0.7 2.2 1.1
v -0.7 2.2 1.1
v 0.8 0.5 0.8
v 0.7 0.5 0.8
v -0.7 0.5 0.8
v -0.8 0.5 0.8
v 0.8 1.8 0.8
v 0.7 1.8 0.8
v -0.7 1.8 0.8
v -0.8 1.8 0.8
v 0.8 1.9 0.4
v 0.7 1.9 0.4
v 0.8 2 0.4
v 0.7 2 0.4
v 0.7 2.1 0.4
v 0.8 2.2 0.4
v 0.7 2.2 0.4
v 0.8 1.2 0.2
v 0.7 1.2 0.2
v 0.8 1.4 0.2
v 0.7 1.4 0.2
v 0.8 1.6 0.2
v 0.7 1.6 0.2
v 0.8 1.8 0.2
v 0.7 1.8 0.2
v 0.8 1.9 0.2
v 0.7 1.9 0.2
v 0.8 2 0.1
v 0.7 2 0.1
v 0.8 2.1 0.1
v 0.7 2.1 0.1
v 0.8 1.4 -0.0999999
v 0.7 1.4 -0.0999999
v 0.8 1.6 -0.0999999
v 0.7 1.6 -0.0999999
v 0.8 1.8 -0.0999999
v 0.7 1.8 -0.0999999
v 0.8 2 -0.0999999
v 0.7 2 -0.0999999
v 0.8 2.1 -0.0999999
v 0.7 2.1 -0.0999999
v 0.8 2.2 -0.0999999
v 0.7 2.2 -0.0999999
v 0.8 0.5 -0.3
v 0.7 0.5 -0.3
v 0.8 1.8 -0.3
v 0.7 1.8 -0.3
v 0.8 2 -0.3
v 0.7 2 -0.3
v 0.8 2.1 -0.3
v 0.7 2.1 -0.3
v 0.8 0.5 0.3
v 0.7 0.5 0.3
v 0.8 1.8 0.3
v 0.7 1.8 0.3
v 0.8 2 0.3
v 0.7 2 0.3
v 0.8 2.1 0.3
v 0.7 2.1 0.3
v 0.8 1.2 0.1
v 0.7 1.2 0.1
v 0.8 1.4 0.1
v 0.7 1.4 0.1
v 0.8 1.6 0.1
v 0.7 1.6 0.1
v 0.8 1.8 0.1
v 0.7 1.8 0.1
v 0.8 2 0.1
v 0.7 2 0.1
v 0.8 2.1 0.1
v 0.7 2.1 0.1
v 0.8 2.2 0.1
v 0.7 2.2 0.1
v 0.8 2 -0.0999999
v 0.7 2 -0.0999999
v 0.8 2.1 -0.0999999
v 0.7 2.1 -0.0999999
v 0.8 1.4 -0.2
v 0.7 1.4 -0.2
v 0.8 1.6 -0.2
v 0.7 1.6 -0.2
v 0.8 1.8 -0.2
v 0.7 1.8 -0.2
v 0.8 1.9 -0.2
v 0.7 1.9 -0.2
v 0.8 1.9 -0.4
v 0.7 1.9 -0.4
v 0.8 2 -0.4
v 0.7 2 -0.4
v 0.7 2.1 -0.4
v 0.8 2.2 -0.4
v 0.7 2.2 -0.4
v 0.8 0.5 -0.8
v 0.7 0.5 -0.8
v -0.7 0.5 -0.8
v -0.8 0.5 -0.8
v 0.8 1.8 -0.8
v 0.7 1.8 -0.8
v -0.7 1.8 -0.8
v -0.8 1.8 -0.8
v 0.7 0.5 -1.1
v 0.4 0.5 -1.1
v -0.4 0.5 -1.1
v -0.7 0.5 -1.1
v 0.4 1.8 -1.1
v -0.4 1.8 -1.1
v 0.7 2 -1.1
v 0.5 2 -1.1
v 0.3 2 -1.1
v 0.1 2 -1.1
v -0.1 2 -1.1
v -0.3 2 -1.1
v -0.5 2 -1.1
v -0.7 2 -1.1
v 0.7 2.1 -1.1
v 0.5 2.1 -1.1
v 0.3 2.1 -1.1
v 0.1 2.1 -1.1
v -0.1 2.1 -1.1
v -0.3 2.1 -1.1
v -0.5 2.1 -1.1
v -0.7 2.1 -1.1
v 0.7 2.2 -1.1
v -0.7 2.2 -1.1
v 0.4 0.5 -1.2
v -0.4 0.5 -1.2
v 0.4 1.8 -1.2
v -0.4 1.8 -1.2
v 0.8 0.5 0.8
v 0.8 1.8 0.8
v 0.8 1.9 0.4
v 0.8 2 0.4
v 0.8 2.2 0.4
v 0.8 0.5 0.3
v 0.8 1.8 0.3
v 0.8 2 0.3
v 0.8 2.1 0.3
v 0.8 2.2 0.3
v 0.8 1.2 0.2
v 0.8 1.4 0.2
v 0.8 1.6 0.2
v 0.8 1.8 0.2
v 0.8 1.9 0.2
v 0.8 2 0.2
v 0.8 1.2 0.1
v 0.8 1.4 0.1
v 0.8 1.6 0.1
v 0.8 1.8 0.1
v 0.8 2 0.1
v 0.8 2.1 0.1
v 0.8 2.2 0.1
v 0.8 1.4 -0.0999999
v 0.8 1.6 -0.0999999
v 0.8 1.8 -0.0999999
v 0.8 2 -0.0999999
v 0.8 2.1 -0.0999999
v 0.8 2.2 -0.0999999
v 0.8 1.4 -0.2
v 0.8 1.6 -0.2
v 0.8 1.8 -0.2
v 0.8 1.9 -0.2
v 0.8 2 -0.2
v 0.8 0.5 -0.3
v 0.8 1.8 -0.3
v 0.8 2 -0.3
v 0.8 2.1 -0.3
v 0.8 2.2 -0.3
v 0.8 1.9 -0.4
v 0.8 2 -0.4
v 0.8 2.2 -0.4
v 0.8 0.5 -0.8
v 0.8 1.8 -0.8
v 0.7 0.5 1.1
v 0.7 2 1.1
v 0.7 2.1 1.1
v 0.7 2.2 1.1
v 0.7 2 0.9
v 0.7 2.1 0.9
v 0.7 0.5 0.8
v 0.7 1.8 0.8
v 0.7 2 0.7
v 0.7 2.1 0.7
v 0.7 2 0.5
v 0.7 2.1 0.5
v 0.7 1.9 0.4
v 0.7 2 0.4
v 0.7 2.1 0.4
v 0.7 2.2 0.4
v 0.7 0.5 0.3
v 0.7 1.8 0.3
v 0.7 2 0.3
v 0.7 2.1 0.3
v 0.7 1.2 0.2
v 0.7 1.4 0.2
v 0.7 1.6 0.2
v 0.7 1.8 0.2
v 0.7 1.9 0.2
v 0.7 2 0.2
v 0.7 1.2 0.1
v 0.7 1.4 0.1
v 0.7 1.6 0.1
v 0.7 1.8 0.1
v 0.7 2 0.1
v 0.7 2.1 0.1
v 0.7 2.2 0.1
v 0.7 1.4 -0.0999999
v 0.7 1.6 -0.0999999
v 0.7 1.8 -0.0999999
v 0.7 2 -0.0999999
v 0.7 2.1 -0.0999999
v 0.7 2.2 -0.0999999
v 0.7 1.4 -0.2
v 0.7 1.6 -0.2
v 0.7 1.8 -0.2
v 0.7 1.9 -0.2
v 0.7 2 -0.2
v 0.7 0.5 -0.3
v 0.7 1.8 -0.3
v 0.7 2 -0.3
v 0.7 2.1 -0.3
v 0.7 1.9 -0.4
v 0.7 2 -0.4
v 0.7 2.1 -0.4
v 0.7 2.2 -0.4
v 0.7 2 -0.5
v 0.7 2.1 -0.5
v 0.7 2 -0.7
v 0.7 2.1 -0.7
v 0.7 0.5 -0.8
v 0.7 1.8 -0.8
v 0.7 2 -0.9
v 0.7 2.1 -0.9
v 0.7 0.5 -1.1
v 0.7 2 -1.1
v 0.7 2.1 -1.1
v 0.7 2.2 -1.1
v 0.4 0.5 1.2
v 0.4 1.8 1.2
v 0.4 0.5 1.1
v 0.4 1.8 1.1
v 0.4 0.5 -1.1
v 0.4 1.8 -1.1
v 0.4 0.5 -1.2
v 0.4 1.8 -1.2
v -0.4 0.5 1.2
v -0.4 1.8 1.2
v -0.4 0.5 1.1
v -0.4 1.8 1.1
v -0.4 0.5 -1.1
v -0.4 1.8 -1.1
v -0.4 0.5 -1.2
v -0.4 1.8 -1.2
v -0.7 0.5 1.1
v -0.7 2 1.1
v -0.7 2.1 1.1
v -0.7 2.2 1.1
v -0.7 2 0.9
v -0.7 2.1 0.9
v -0.7 0.5 0.8
v -0.7 1.8 0.8
v -0.7 2 0.7
v -0.7 2.1 0.7
v -0.7 2 0.5
v -0.7 2.1 0.5
v -0.7 2 0.3
v -0.7 2.1 0.3
v -0.7 2 0.1
v -0.7 2.1 0.1
v -0.7 2 -0.0999999
v -0.7 2.1 -0.0999999
v -0.7 2 -0.3
v -0.7 2.1 -0.3
v -0.7 2 -0.5
v -0.7 2.1 -0.5
v -0.7 2 -0.7
v -0.7 2.1 -0.7
v -0.7 0.5 -0.8
v -0.7 1.8 -0.8
v -0.7 2 -0.9
v -0.7 2.1 -0.9
v -0.7 0.5 -1.1
v -0.7 2 -1.1
v -0.7 2.1 -1.1
v -0.7 2.2 -1.1
v -0.8 0.5 0.8
v -0.8 1.8 0.8
v -0.8 0.5 -0.8
v -0.8 1.8 -0.8
v 0.8 0.5 0.8
v 0.8 0.5 0.3
v 0.8 0.5 -0.3
v 0.8 0.5 -0.8
v 0.7 0.5 1.1
v 0.7 0.5 0.8
v 0.7 0.5 0.3
v 0.7 0.5 -0.3
v 0.7 0.5 -0.8
v 0.7 0.5 -1.1
v 0.4 0.5 1.2
v 0.4 0.5 1.1
v 0.4 0.5 -1.1
v 0.4 0.5 -1.2
v -0.4 0.5 1.2
v -0.4 0.5 1.1
v -0.4 0.5 -1.1
v -0.4 0.5 -1.2
v -0.7 0.5 1.1
v -0.7 0.5 0.8
v -0.7 0.5 -0.8
v -0.7 0.5 -1.1
v -0.8 0.5 0.8
v -0.8 0.5 -0.8
v 0.8 1.2 0.2
v 0.8 1.2 0.1
v 0.7 1.2 0.2
v 0.7 1.2 0.1
v 0.8 1.4 -0.0999999
v 0.8 1.4 -0.2
v 0.7 1.4 -0.0999999
v 0.7 1.4 -0.2
v 0.8 1.9 0.4
v 0.8 1.9 0.2
v 0.8 1.9 -0.2
v 0.8 1.9 -0.4
v 0.7 1.9 0.4
v 0.7 1.9 0.2
v 0.7 1.9 -0.2
v 0.7 1.9 -0.4
v 0.8 2 0.1
v 0.8 2 -0.0999999
v 0.7 2 0.1
v 0.7 2 -0.0999999
v 0.8 2.1 0.3
v 0.8 2.1 0.1
v 0.8 2.1 -0.0999999
v 0.8 2.1 -0.3
v 0.7 2.1 0.3
v 0.7 2.1 0.1
v 0.7 2.1 -0.0999999
v 0.7 2.1 -0.3
v 0.8 1.8 0.8
v 0.8 1.8 0.3
v 0.8 1.8 -0.3
v 0.8 1.8 -0.8
v 0.7 1.8 0.8
v 0.7 1.8 0.3
v 0.7 1.8 -0.3
v 0.7 1.8 -0.8
v 0.4 1.8 1.2
v 0.4 1.8 1.1
v 0.4 1.8 -1.1
v 0.4 1.8 -1.2
v -0.4 1.8 1.2
v -0.4 1.8 1.1
v -0.4 1.8 -1.1
v -0.4 1.8 -1.2
v -0.7 1.8 0.8
v -0.7 1.8 -0.8
v -0.8 1.8 0.8
v -0.8 1.8 -0.8
v 0.8 2 0.3
v 0.8 2 0.2
v 0.8 2 0.1
v 0.8 2 -0.0999999
v 0.8 2 -0.2
v 0.8 2 -0.3
v 0.7 2 0.3
v 0.7 2 0.2
v 0.7 2 0.1
v 0.7 2 -0.0999999
v 0.7 2 -0.2
v 0.7 2 -0.3
v 0.8 2.1 0.1
v 0.8 2.1 -0.0999999
v 0.7 2.1 0.1
v 0.7 2.1 -0.0999999
v 0.8 2.2 0.4
v 0.8 2.2 0.3
v 0.8 2.2 0.1
v 0.8 2.2 -0.0999999
v 0.8 2.2 -0.3
v 0.8 2.2 -0.4
v 0.7 2.2 1.1
v 0.7 2.2 0.4
v 0.7 2.2 0.3
v 0.7 2.2 0.1
v 0.7 2.2 -0.0999999
v 0.7 2.2 -0.3
v 0.7 2.2 -0.4
v 0.7 2.2 -1.1
v -0.7 2.2 1.1
v -0.7 2.2 -1.1

# faces
f 3/3/1 2/3/1 1/3/1
f 4/3/1 2/3/1 3/3/1
f 9/3/1 6/3/1 5/3/1
f 10/3/1 8/3/1 7/3/1
f 11/3/1 9/3/1 5/3/1
f 11/3/1 10/3/1 9/3/1
f 12/3/1 10/3/1 11/3/1
f 13/3/1 10/3/1 12/3/1
f 14/3/1 10/3/1 13/3/1
f 15/3/1 10/3/1 14/3/1
f 16/3/1 10/3/1 15/3/1
f 17/3/1 8/3/1 10/3/1
f 17/3/1 10/3/1 16/3/1
f 18/3/1 8/3/1 17/3/1
f 19/1/1 12/1/1 11/1/1
f 20/2/1 13/2/1 12/2/1
f 20/1/1 12/1/1 19/1/1
f 21/1/1 14/1/1 13/1/1
f 21/2/1 13/2/1 20/2/1
f 22/2/1 15/2/1 14/2/1
f 22/1/1 14/1/1 21/1/1
f 23/1/1 16/1/1 15/1/1
f 23/2/1 15/2/1 22/2/1
f 24/2/1 17/2/1 16/2/1
f 24/1/1 16/1/1 23/1/1
f 25/1/1 18/1/1 17/1/1
f 25/2/1 17/2/1 24/2/1
f 26/1/1 18/1/1 25/1/1
f 27/3/1 22/3/1 21/3/1
f 27/3/1 20/3/1 19/3/1
f 27/3/1 26/3/1 25/3/1
f 27/3/1 25/3/1 24/3/1
f 27/3/1 24/3/1 23/3/1
f 27/3/1 23/3/1 22/3/1
f 27/3/1 21/3/1 20/3/1
f 28/3/1 26/3/1 27/3/1
f 33/3/1 30/3/1 29/3/1
f 34/3/1 30/3/1 33/3/1
f 35/3/1 32/3/1 31/3/1
f 36/3/1 32/3/1 35/3/1
f 39/2/1 38/2/1 37/2/1
f 40/2/1 38/2/1 39/2/1
f 41/1/1 40/1/1 39/1/1
f 42/1/1 41/1/1 39/1/1
f 43/1/1 41/1/1 42/1/1
f 46/2/1 45/2/1 44/2/1
f 47/2/1 45/2/1 46/2/1
f 48/1/1 47/1/1 46/1/1
f 49/1/1 47/1/1 48/1/1
f 50/2/1 49/2/1 48/2/1
f 51/2/1 49/2/1 50/2/1
f 52/1/1 51/1/1 50/1/1
f 53/1/1 51/1/1 52/1/1
f 56/1/1 55/1/1 54/1/1
f 57/1/1 55/1/1 56/1/1
f 60/1/1 59/1/1 58/1/1
f 61/1/1 59/1/1 60/1/1
f 62/2/1 61/2/1 60/2/1
f 63/2/1 61/2/1 62/2/1
f 64/1/1 63/1/1 62/1/1
f 65/1/1 63/1/1 64/1/1
f 68/2/1 67/2/1 66/2/1
f 69/2/1 67/2/1 68/2/1
f 72/3/1 71/3/1 70/3/1
f 73/3/1 71/3/1 72/3/1
f 76/1/1 75/1/1 74/1/1
f 77/1/1 75/1/1 76/1/1
f 78/3/2 79/3/2 80/3/2
f 80/3/2 79/3/2 81/3/2
f 82/1/2 83/1/2 84/1/2
f 84/1/2 83/1/2 85/1/2
f 86/2/2 87/2/2 88/2/2
f 88/2/2 87/2/2 89/2/2
f 88/1/2 89/1/2 90/1/2
f 90/1/2 89/1/2 91/1/2
f 90/2/2 91/2/2 92/2/2
f 92/2/2 91/2/2 93/2/2
f 92/1/2 93/1/2 94/1/2
f 94/1/2 93/1/2 95/1/2
f 96/2/2 97/2/2 98/2/2
f 98/2/2 97/2/2 99/2/2
f 100/1/2 101/1/2 102/1/2
f 102/1/2 101/1/2 103/1/2
f 104/1/2 105/1/2 106/1/2
f 106/1/2 105/1/2 107/1/2
f 106/2/2 107/2/2 108/2/2
f 108/2/2 107/2/2 109/2/2
f 108/1/2 109/1/2 110/1/2
f 110/1/2 109/1/2 111/1/2
f 112/2/2 113/2/2 114/2/2
f 114/2/2 113/2/2 115/2/2
f 114/1/2 115/1/2 116/1/2
f 114/1/2 116/1/2 117/1/2
f 117/1/2 116/1/2 118/1/2
f 119/3/2 120/3/2 123/3/2
f 123/3/2 120/3/2 124/3/2
f 121/3/2 122/3/2 125/3/2
f 125/3/2 122/3/2 126/3/2
f 127/3/2 128/3/2 131/3/2
f 129/3/2 130/3/2 132/3/2
f 127/3/2 131/3/2 133/3/2
f 131/3/2 132/3/2 133/3/2
f 133/3/2 132/3/2 134/3/2
f 134/3/2 132/3/2 135/3/2
f 135/3/2 132/3/2 136/3/2
f 136/3/2 132/3/2 137/3/2
f 137/3/2 132/3/2 138/3/2
f 132/3/2 130/3/2 139/3/2
f 138/3/2 132/3/2 139/3/2
f 139/3/2 130/3/2 140/3/2
f 133/1/2 134/1/2 141/1/2
f 134/2/2 135/2/2 142/2/2
f 141/1/2 134/1/2 142/1/2
f 135/1/2 136/1/2 143/1/2
f 142/2/2 135/2/2 143/2/2
f 136/2/2 137/2/2 144/2/2
f 143/1/2 136/1/2 144/1/2
f 137/1/2 138/1/2 145/1/2
f 144/2/2 137/2/2 145/2/2
f 138/2/2 139/2/2 146/2/2
f 145/1/2 138/1/2 146/1/2
f 139/1/2 140/1/2 147/1/2
f 146/2/2 139/2/2 147/2/2
f 147/1/2 140/1/2 148/1/2
f 143/3/2 144/3/2 149/3/2
f 141/3/2 142/3/2 149/3/2
f 147/3/2 148/3/2 149/3/2
f 146/3/2 147/3/2 149/3/2
f 145/3/2 146/3/2 149/3/2
f 144/3/2 145/3/2 149/3/2
f 142/3/2 143/3/2 149/3/2
f 149/3/2 148/3/2 150/3/2
f 151/3/2 152/3/2 153/3/2
f 153/3/2 152/3/2 154/3/2
f 160/3/3 156/3/3 155/3/3
f 161/3/3 156/3/3 160/3/3
f 162/1/3 159/1/3 158/1/3
f 162/2/3 158/2/3 157/2/3
f 163/1/3 159/1/3 162/1/3
f 164/1/3 159/1/3 163/1/3
f 169/2/3 162/2/3 157/2/3
f 170/2/3 162/2/3 169/2/3
f 171/2/3 166/2/3 165/2/3
f 172/1/3 167/1/3 166/1/3
f 172/2/3 166/2/3 171/2/3
f 173/2/3 168/2/3 167/2/3
f 173/1/3 167/1/3 172/1/3
f 174/1/3 169/1/3 168/1/3
f 174/2/3 168/2/3 173/2/3
f 174/1/3 170/1/3 169/1/3
f 175/1/3 170/1/3 174/1/3
f 176/2/3 164/2/3 163/2/3
f 177/2/3 164/2/3 176/2/3
f 181/1/3 176/1/3 175/1/3
f 182/1/3 176/1/3 181/1/3
f 184/1/3 179/1/3 178/1/3
f 185/2/3 180/2/3 179/2/3
f 185/1/3 179/1/3 184/1/3
f 186/1/3 181/1/3 180/1/3
f 186/2/3 180/2/3 185/2/3
f 187/1/3 181/1/3 186/1/3
f 188/1/3 181/1/3 187/1/3
f 191/2/3 188/2/3 187/2/3
f 192/2/3 183/2/3 182/2/3
f 193/2/3 183/2/3 192/2/3
f 194/2/3 191/2/3 187/2/3
f 195/1/3 192/1/3 191/1/3
f 195/2/3 191/2/3 194/2/3
f 195/1/3 193/1/3 192/1/3
f 196/1/3 193/1/3 195/1/3
f 197/3/3 190/3/3 189/3/3
f 198/3/3 190/3/3 197/3/3
f 203/3/3 200/3/3 199/3/3
f 203/1/3 201/1/3 200/1/3
f 204/3/3 202/3/3 201/3/3
f 204/1/3 201/1/3 203/1/3
f 205/3/3 203/3/3 199/3/3
f 206/3/3 203/3/3 205/3/3
f 207/2/3 204/2/3 203/2/3
f 207/3/3 203/3/3 206/3/3
f 208/3/3 202/3/3 204/3/3
f 208/2/3 204/2/3 207/2/3
f 209/3/3 207/3/3 206/3/3
f 209/1/3 208/1/3 207/1/3
f 210/3/3 202/3/3 208/3/3
f 210/1/3 208/1/3 209/1/3
f 211/3/3 209/3/3 206/3/3
f 212/2/3 210/2/3 209/2/3
f 212/3/3 209/3/3 211/3/3
f 213/3/3 202/3/3 210/3/3
f 213/2/3 210/2/3 212/2/3
f 214/3/3 202/3/3 213/3/3
f 216/3/3 211/3/3 206/3/3
f 219/3/3 216/3/3 215/3/3
f 220/3/3 216/3/3 219/3/3
f 221/3/3 216/3/3 220/3/3
f 222/3/3 211/3/3 216/3/3
f 222/3/3 216/3/3 221/3/3
f 223/3/3 211/3/3 222/3/3
f 224/1/3 218/1/3 217/1/3
f 225/3/3 219/3/3 215/3/3
f 229/1/3 218/1/3 224/1/3
f 230/1/3 218/1/3 229/1/3
f 232/3/3 228/3/3 227/3/3
f 232/3/3 226/3/3 225/3/3
f 232/3/3 229/3/3 228/3/3
f 232/3/3 227/3/3 226/3/3
f 233/3/3 229/3/3 232/3/3
f 234/3/3 229/3/3 233/3/3
f 235/3/3 229/3/3 234/3/3
f 236/3/3 231/3/3 230/3/3
f 237/3/3 231/3/3 236/3/3
f 238/3/3 232/3/3 225/3/3
f 242/1/3 236/1/3 235/1/3
f 243/3/3 225/3/3 215/3/3
f 243/3/3 241/3/3 240/3/3
f 243/3/3 238/3/3 225/3/3
f 243/3/3 240/3/3 239/3/3
f 243/3/3 239/3/3 238/3/3
f 244/3/3 241/3/3 243/3/3
f 245/1/3 236/1/3 242/1/3
f 246/1/3 236/1/3 245/1/3
f 247/3/3 241/3/3 244/3/3
f 251/2/3 249/2/3 248/2/3
f 251/3/3 248/3/3 247/3/3
f 252/3/3 250/3/3 249/3/3
f 252/2/3 249/2/3 251/2/3
f 253/3/3 251/3/3 247/3/3
f 253/1/3 252/1/3 251/1/3
f 254/3/3 250/3/3 252/3/3
f 254/1/3 252/1/3 253/1/3
f 256/3/3 253/3/3 247/3/3
f 256/3/3 247/3/3 244/3/3
f 257/2/3 254/2/3 253/2/3
f 257/3/3 256/3/3 255/3/3
f 257/3/3 253/3/3 256/3/3
f 258/3/3 250/3/3 254/3/3
f 258/2/3 254/2/3 257/2/3
f 259/3/3 257/3/3 255/3/3
f 260/1/3 258/1/3 257/1/3
f 260/3/3 257/3/3 259/3/3
f 261/3/3 250/3/3 258/3/3
f 261/1/3 258/1/3 260/1/3
f 262/3/3 250/3/3 261/3/3
f 265/3/3 264/3/3 263/3/3
f 266/3/3 264/3/3 265/3/3
f 269/3/3 268/3/3 267/3/3
f 270/3/3 268/3/3 269/3/3
f 271/3/4 272/3/4 273/3/4
f 273/3/4 272/3/4 274/3/4
f 275/3/4 276/3/4 277/3/4
f 277/3/4 276/3/4 278/3/4
f 279/3/4 280/3/4 283/3/4
f 280/1/4 281/1/4 283/1/4
f 281/3/4 282/3/4 284/3/4
f 283/1/4 281/1/4 284/1/4
f 279/3/4 283/3/4 285/3/4
f 285/3/4 283/3/4 286/3/4
f 283/2/4 284/2/4 287/2/4
f 286/3/4 283/3/4 287/3/4
f 284/3/4 282/3/4 288/3/4
f 287/2/4 284/2/4 288/2/4
f 286/3/4 287/3/4 289/3/4
f 287/1/4 288/1/4 289/1/4
f 288/3/4 282/3/4 290/3/4
f 289/1/4 288/1/4 290/1/4
f 286/3/4 289/3/4 291/3/4
f 289/2/4 290/2/4 291/2/4
f 290/3/4 282/3/4 292/3/4
f 291/2/4 290/2/4 292/2/4
f 286/3/4 291/3/4 293/3/4
f 291/1/4 292/1/4 293/1/4
f 292/3/4 282/3/4 294/3/4
f 293/1/4 292/1/4 294/1/4
f 286/3/4 293/3/4 295/3/4
f 293/2/4 294/2/4 295/2/4
f 294/3/4 282/3/4 296/3/4
f 295/2/4 294/2/4 296/2/4
f 286/3/4 295/3/4 297/3/4
f 295/1/4 296/1/4 297/1/4
f 296/3/4 282/3/4 298/3/4
f 297/1/4 296/1/4 298/1/4
f 286/3/4 297/3/4 299/3/4
f 297/2/4 298/2/4 299/2/4
f 298/3/4 282/3/4 300/3/4
f 299/2/4 298/2/4 300/2/4
f 286/3/4 299/3/4 301/3/4
f 299/1/4 300/1/4 301/1/4
f 300/3/4 282/3/4 302/3/4
f 301/1/4 300/1/4 302/1/4
f 286/3/4 301/3/4 304/3/4
f 301/2/4 302/2/4 305/2/4
f 303/3/4 304/3/4 305/3/4
f 304/3/4 301/3/4 305/3/4
f 302/3/4 282/3/4 306/3/4
f 305/2/4 302/2/4 306/2/4
f 303/3/4 305/3/4 307/3/4
f 305/1/4 306/1/4 308/1/4
f 307/3/4 305/3/4 308/3/4
f 306/3/4 282/3/4 309/3/4
f 308/1/4 306/1/4 309/1/4
f 309/3/4 282/3/4 310/3/4
f 311/3/4 312/3/4 313/3/4
f 313/3/4 312/3/4 314/3/4
f 320/3/5 316/3/5 315/3/5
f 321/3/5 316/3/5 320/3/5
f 322/3/5 318/3/5 317/3/5
f 323/3/5 318/3/5 322/3/5
f 326/3/5 321/3/5 320/3/5
f 326/3/5 324/3/5 323/3/5
f 326/3/5 323/3/5 322/3/5
f 326/3/5 322/3/5 321/3/5
f 326/3/5 320/3/5 319/3/5
f 327/3/5 324/3/5 326/3/5
f 329/3/5 326/3/5 325/3/5
f 329/3/5 328/3/5 327/3/5
f 329/3/5 327/3/5 326/3/5
f 330/3/5 328/3/5 329/3/5
f 331/3/5 328/3/5 330/3/5
f 332/3/5 328/3/5 331/3/5
f 333/3/5 331/3/5 330/3/5
f 334/3/5 331/3/5 333/3/5
f 335/3/5 331/3/5 334/3/5
f 336/3/5 331/3/5 335/3/5
f 337/3/5 335/3/5 334/3/5
f 338/3/5 335/3/5 337/3/5
f 341/2/5 340/2/5 339/2/5
f 342/2/5 340/2/5 341/2/5
f 345/1/5 344/1/5 343/1/5
f 346/1/5 344/1/5 345/1/5
f 351/2/5 348/2/5 347/2/5
f 352/2/5 348/2/5 351/2/5
f 353/2/5 350/2/5 349/2/5
f 354/2/5 350/2/5 353/2/5
f 357/1/5 356/1/5 355/1/5
f 358/1/5 356/1/5 357/1/5
f 363/2/5 360/2/5 359/2/5
f 364/2/5 360/2/5 363/2/5
f 365/2/5 362/2/5 361/2/5
f 366/2/5 362/2/5 365/2/5
f 367/3/6 368/3/6 371/3/6
f 371/3/6 368/3/6 372/3/6
f 369/3/6 370/3/6 373/3/6
f 373/3/6 370/3/6 374/3/6
f 375/3/6 376/3/6 379/3/6
f 379/3/6 376/3/6 380/3/6
f 377/3/6 378/3/6 381/3/6
f 381/3/6 378/3/6 382/3/6
f 383/3/6 384/3/6 385/3/6
f 385/3/6 384/3/6 386/3/6
f 387/2/6 388/2/6 393/2/6
f 388/1/6 389/1/6 394/1/6
f 393/2/6 388/2/6 394/2/6
f 394/1/6 389/1/6 395/1/6
f 390/1/6 391/1/6 396/1/6
f 391/2/6 392/2/6 397/2/6
f 396/1/6 391/1/6 397/1/6
f 397/2/6 392/2/6 398/2/6
f 399/1/6 400/1/6 401/1/6
f 401/1/6 400/1/6 402/1/6
f 403/1/6 404/1/6 410/1/6
f 404/2/6 405/2/6 411/2/6
f 410/1/6 404/1/6 411/1/6
f 411/2/6 405/2/6 412/2/6
f 406/2/6 407/2/6 413/2/6
f 407/1/6 408/1/6 414/1/6
f 413/2/6 407/2/6 414/2/6
f 414/1/6 408/1/6 415/1/6
f 412/3/6 413/3/6 417/3/6
f 415/3/6 416/3/6 417/3/6
f 414/3/6 415/3/6 417/3/6
f 413/3/6 414/3/6 417/3/6
f 409/3/6 410/3/6 417/3/6
f 410/3/6 411/3/6 417/3/6
f 411/3/6 412/3/6 417/3/6
f 417/3/6 416/3/6 418/3/6
