# MagicaVoxel @ Ephtracy

# group
o 

# material
mtllib model-0.mtl
usemtl palette

# normals
vn 0 0 1
vn 0 0 -1
vn 1 0 0
vn -1 0 0
vn 0 -1 0
vn 0 1 0

# texcoords
vt 0.00195313 0.5
vt 0.00585938 0.5
vt 0.00976563 0.5

# verts
v 0.5 1.4 1.3
v -0.5 1.4 1.3
v 0.5 2.2 1.3
v -0.5 2.2 1.3
v 0.5 0.6 1
v -0.5 0.6 1
v 0.5 1.4 1
v -0.5 1.4 1
v 0.5 0.6 -0.2
v 0.4 0.6 -0.2
v 0.4 0.8 -0.2
v 0.4 0.9 -0.2
v 0.4 1.1 -0.2
v 0.4 1.2 -0.2
v 0.5 1.3 -0.2
v 0.4 1.3 -0.2
v 0.4 1.6 -0.2
v -0.4 1.6 -0.2
v 0.4 1.7 -0.2
v -0.4 1.7 -0.2
v 0.5 1.3 -0.4
v 0.4 1.3 -0.4
v 0.4 1.7 -0.4
v -0.4 1.7 -0.4
v -0.4 1.9 -0.4
v -0.5 1.9 -0.4
v 0.5 2.1 -0.4
v -0.5 2.1 -0.4
v 0.5 2.1 -0.8
v -0.5 2.1 -0.8
v 0.5 2.2 -0.8
v -0.5 2.2 -0.8
v 0.5 2.1 0.8
v -0.5 2.1 0.8
v 0.5 2.2 0.8
v -0.5 2.2 0.8
v 0.5 1.3 0.4
v 0.4 1.3 0.4
v 0.4 1.7 0.4
v -0.4 1.7 0.4
v -0.4 1.9 0.4
v -0.5 1.9 0.4
v 0.5 2.1 0.4
v -0.5 2.1 0.4
v 0.5 0.6 0.2
v 0.4 0.6 0.2
v 0.4 0.8 0.2
v 0.4 0.9 0.2
v 0.4 1.1 0.2
v 0.4 1.2 0.2
v 0.5 1.3 0.2
v 0.4 1.3 0.2
v 0.4 1.6 0.2
v -0.4 1.6 0.2
v 0.4 1.7 0.2
v -0.4 1.7 0.2
v 0.5 0.6 -1
v -0.5 0.6 -1
v 0.5 1.4 -1
v -0.5 1.4 -1
v 0.5 1.4 -1.3
v -0.5 1.4 -1.3
v 0.5 2.2 -1.3
v -0.5 2.2 -1.3
v 0.5 1.4 1.3
v 0.5 2.2 1.3
v 0.5 0.6 1
v 0.5 1.4 1
v 0.5 1.4 0.8
v 0.5 2.1 0.8
v 0.5 2.2 0.8
v 0.5 1.1 0.6
v 0.5 2.1 0.6
v 0.5 0.6 0.4
v 0.5 1.1 0.4
v 0.5 1.3 0.4
v 0.5 2.1 0.4
v 0.5 0.6 0.2
v 0.5 1.3 0.2
v 0.5 0.6 -0.2
v 0.5 1.3 -0.2
v 0.5 0.6 -0.4
v 0.5 1.1 -0.4
v 0.5 1.3 -0.4
v 0.5 2.1 -0.4
v 0.5 1.1 -0.6
v 0.5 2.1 -0.6
v 0.5 1.4 -0.8
v 0.5 2.1 -0.8
v 0.5 2.2 -0.8
v 0.5 0.6 -1
v 0.5 1.4 -1
v 0.5 1.4 -1.3
v 0.5 2.2 -1.3
v 0.4 1.3 0.4
v 0.4 1.7 0.4
v 0.4 0.6 0.2
v 0.4 0.8 0.2
v 0.4 0.9 0.2
v 0.4 1.1 0.2
v 0.4 1.2 0.2
v 0.4 1.3 0.2
v 0.4 1.6 0.2
v 0.4 1.7 0.2
v 0.4 0.6 -0.2
v 0.4 0.8 -0.2
v 0.4 0.9 -0.2
v 0.4 1.1 -0.2
v 0.4 1.2 -0.2
v 0.4 1.3 -0.2
v 0.4 1.6 -0.2
v 0.4 1.7 -0.2
v 0.4 1.3 -0.4
v 0.4 1.7 -0.4
v -0.4 1.7 0.4
v -0.4 1.9 0.4
v -0.4 1.6 0.2
v -0.4 1.7 0.2
v -0.4 1.6 -0.2
v -0.4 1.7 -0.2
v -0.4 1.7 -0.4
v -0.4 1.9 -0.4
v -0.5 1.4 1.3
v -0.5 2.2 1.3
v -0.5 0.6 1
v -0.5 1.4 1
v -0.5 1.4 0.8
v -0.5 2.1 0.8
v -0.5 2.2 0.8
v -0.5 1.7 0.6
v -0.5 2.1 0.6
v -0.5 1.9 0.4
v -0.5 2.1 0.4
v -0.5 1.9 -0.4
v -0.5 2.1 -0.4
v -0.5 1.7 -0.6
v -0.5 2.1 -0.6
v -0.5 1.4 -0.8
v -0.5 2.1 -0.8
v -0.5 2.2 -0.8
v -0.5 0.6 -1
v -0.5 1.4 -1
v -0.5 1.4 -1.3
v -0.5 2.2 -1.3
v 0.5 0.6 1
v 0.5 0.6 0.4
v 0.5 0.6 0.2
v 0.5 0.6 -0.2
v 0.5 0.6 -0.4
v 0.5 0.6 -1
v 0.4 0.6 0.9
v 0.4 0.6 0.4
v 0.4 0.6 0.2
v 0.4 0.6 -0.2
v 0.4 0.6 -0.4
v 0.4 0.6 -0.9
v -0.4 0.6 0.9
v -0.4 0.6 -0.9
v -0.5 0.6 1
v -0.5 0.6 -1
v 0.5 1.4 1.3
v 0.5 1.4 1
v 0.5 1.4 -1
v 0.5 1.4 -1.3
v -0.5 1.4 1.3
v -0.5 1.4 1
v -0.5 1.4 -1
v -0.5 1.4 -1.3
v 0.5 1.3 0.4
v 0.5 1.3 0.2
v 0.5 1.3 -0.2
v 0.5 1.3 -0.4
v 0.4 1.3 0.4
v 0.4 1.3 0.2
v 0.4 1.3 -0.2
v 0.4 1.3 -0.4
v 0.4 1.6 0.2
v 0.4 1.6 -0.2
v -0.4 1.6 0.2
v -0.4 1.6 -0.2
v 0.4 1.7 0.4
v 0.4 1.7 0.2
v 0.4 1.7 -0.2
v 0.4 1.7 -0.4
v -0.4 1.7 0.4
v -0.4 1.7 0.2
v -0.4 1.7 -0.2
v -0.4 1.7 -0.4
v -0.4 1.9 0.4
v -0.4 1.9 -0.4
v -0.5 1.9 0.4
v -0.5 1.9 -0.4
v 0.5 2.1 0.8
v 0.5 2.1 0.6
v 0.5 2.1 0.4
v 0.5 2.1 -0.4
v 0.5 2.1 -0.6
v 0.5 2.1 -0.8
v -0.5 2.1 0.8
v -0.5 2.1 0.6
v -0.5 2.1 0.4
v -0.5 2.1 -0.4
v -0.5 2.1 -0.6
v -0.5 2.1 -0.8
v 0.5 2.2 1.3
v 0.5 2.2 0.8
v 0.5 2.2 -0.8
v 0.5 2.2 -1.3
v -0.5 2.2 1.3
v -0.5 2.2 0.8
v -0.5 2.2 -0.8
v -0.5 2.2 -1.3

# faces
f 3/1/1 2/1/1 1/1/1
f 4/1/1 2/1/1 3/1/1
f 7/2/1 6/2/1 5/2/1
f 8/2/1 6/2/1 7/2/1
f 11/3/1 10/3/1 9/3/1
f 12/3/1 11/3/1 9/3/1
f 13/3/1 12/3/1 9/3/1
f 14/3/1 13/3/1 9/3/1
f 15/3/1 14/3/1 9/3/1
f 16/3/1 14/3/1 15/3/1
f 19/1/1 18/1/1 17/1/1
f 20/1/1 18/1/1 19/1/1
f 23/3/1 22/3/1 21/3/1
f 25/3/1 24/3/1 23/3/1
f 27/3/1 23/3/1 21/3/1
f 27/3/1 26/3/1 25/3/1
f 27/3/1 25/3/1 23/3/1
f 28/3/1 26/3/1 27/3/1
f 31/1/1 30/1/1 29/1/1
f 32/1/1 30/1/1 31/1/1
f 33/1/2 34/1/2 35/1/2
f 35/1/2 34/1/2 36/1/2
f 37/3/2 38/3/2 39/3/2
f 39/3/2 40/3/2 41/3/2
f 37/3/2 39/3/2 43/3/2
f 41/3/2 42/3/2 43/3/2
f 39/3/2 41/3/2 43/3/2
f 43/3/2 42/3/2 44/3/2
f 45/3/2 46/3/2 47/3/2
f 45/3/2 47/3/2 48/3/2
f 45/3/2 48/3/2 49/3/2
f 45/3/2 49/3/2 50/3/2
f 45/3/2 50/3/2 51/3/2
f 51/3/2 50/3/2 52/3/2
f 53/1/2 54/1/2 55/1/2
f 55/1/2 54/1/2 56/1/2
f 57/2/2 58/2/2 59/2/2
f 59/2/2 58/2/2 60/2/2
f 61/1/2 62/1/2 63/1/2
f 63/1/2 62/1/2 64/1/2
f 68/1/3 66/1/3 65/1/3
f 69/1/3 66/1/3 68/1/3
f 69/2/3 68/2/3 67/2/3
f 70/1/3 66/1/3 69/1/3
f 71/1/3 66/1/3 70/1/3
f 72/2/3 69/2/3 67/2/3
f 72/2/3 70/2/3 69/2/3
f 73/2/3 70/2/3 72/2/3
f 74/2/3 72/2/3 67/2/3
f 75/3/3 73/3/3 72/3/3
f 75/2/3 72/2/3 74/2/3
f 76/3/3 73/3/3 75/3/3
f 77/3/3 73/3/3 76/3/3
f 78/3/3 75/3/3 74/3/3
f 78/3/3 76/3/3 75/3/3
f 79/3/3 76/3/3 78/3/3
f 82/3/3 81/3/3 80/3/3
f 83/3/3 81/3/3 82/3/3
f 84/3/3 81/3/3 83/3/3
f 86/3/3 84/3/3 83/3/3
f 86/3/3 85/3/3 84/3/3
f 86/2/3 83/2/3 82/2/3
f 87/3/3 85/3/3 86/3/3
f 88/2/3 87/2/3 86/2/3
f 89/2/3 87/2/3 88/2/3
f 91/2/3 88/2/3 86/2/3
f 91/2/3 86/2/3 82/2/3
f 92/1/3 89/1/3 88/1/3
f 92/2/3 88/2/3 91/2/3
f 92/1/3 90/1/3 89/1/3
f 93/1/3 90/1/3 92/1/3
f 94/1/3 90/1/3 93/1/3
f 102/1/3 96/1/3 95/1/3
f 103/1/3 96/1/3 102/1/3
f 104/1/3 96/1/3 103/1/3
f 105/1/3 98/1/3 97/1/3
f 106/2/3 99/2/3 98/2/3
f 106/1/3 98/1/3 105/1/3
f 107/1/3 100/1/3 99/1/3
f 107/2/3 99/2/3 106/2/3
f 108/2/3 101/2/3 100/2/3
f 108/1/3 100/1/3 107/1/3
f 109/1/3 102/1/3 101/1/3
f 109/2/3 101/2/3 108/2/3
f 109/1/3 103/1/3 102/1/3
f 110/1/3 103/1/3 109/1/3
f 111/1/3 103/1/3 110/1/3
f 113/1/3 112/1/3 111/1/3
f 113/1/3 111/1/3 110/1/3
f 114/1/3 112/1/3 113/1/3
f 118/3/3 116/3/3 115/3/3
f 119/2/3 118/2/3 117/2/3
f 120/3/3 116/3/3 118/3/3
f 120/2/3 118/2/3 119/2/3
f 121/3/3 116/3/3 120/3/3
f 122/3/3 116/3/3 121/3/3
f 123/1/4 124/1/4 126/1/4
f 126/1/4 124/1/4 127/1/4
f 125/2/4 126/2/4 127/2/4
f 127/1/4 124/1/4 128/1/4
f 128/1/4 124/1/4 129/1/4
f 127/2/4 128/2/4 130/2/4
f 130/2/4 128/2/4 131/2/4
f 130/3/4 131/3/4 132/3/4
f 132/3/4 131/3/4 133/3/4
f 130/3/4 132/3/4 134/3/4
f 127/2/4 130/2/4 136/2/4
f 134/3/4 135/3/4 136/3/4
f 130/3/4 134/3/4 136/3/4
f 136/3/4 135/3/4 137/3/4
f 125/2/4 127/2/4 138/2/4
f 127/2/4 136/2/4 138/2/4
f 136/2/4 137/2/4 138/2/4
f 138/2/4 137/2/4 139/2/4
f 125/2/4 138/2/4 141/2/4
f 138/1/4 139/1/4 142/1/4
f 141/2/4 138/2/4 142/2/4
f 139/1/4 140/1/4 142/1/4
f 142/1/4 140/1/4 143/1/4
f 143/1/4 140/1/4 144/1/4
f 151/2/5 146/2/5 145/2/5
f 152/3/5 147/3/5 146/3/5
f 152/2/5 146/2/5 151/2/5
f 153/3/5 147/3/5 152/3/5
f 154/3/5 149/3/5 148/3/5
f 155/2/5 150/2/5 149/2/5
f 155/3/5 149/3/5 154/3/5
f 156/2/5 150/2/5 155/2/5
f 157/1/5 154/1/5 153/1/5
f 157/2/5 151/2/5 145/2/5
f 157/1/5 156/1/5 155/1/5
f 157/1/5 155/1/5 154/1/5
f 157/1/5 153/1/5 152/1/5
f 157/1/5 152/1/5 151/1/5
f 158/2/5 150/2/5 156/2/5
f 158/1/5 156/1/5 157/1/5
f 159/2/5 157/2/5 145/2/5
f 159/2/5 158/2/5 157/2/5
f 160/2/5 150/2/5 158/2/5
f 160/2/5 158/2/5 159/2/5
f 165/1/5 162/1/5 161/1/5
f 166/1/5 162/1/5 165/1/5
f 167/1/5 164/1/5 163/1/5
f 168/1/5 164/1/5 167/1/5
f 169/3/6 170/3/6 173/3/6
f 173/3/6 170/3/6 174/3/6
f 171/3/6 172/3/6 175/3/6
f 175/3/6 172/3/6 176/3/6
f 177/1/6 178/1/6 179/1/6
f 179/1/6 178/1/6 180/1/6
f 181/1/6 182/1/6 185/1/6
f 185/1/6 182/1/6 186/1/6
f 183/1/6 184/1/6 187/1/6
f 187/1/6 184/1/6 188/1/6
f 189/3/6 190/3/6 191/3/6
f 191/3/6 190/3/6 192/3/6
f 193/2/6 194/2/6 199/2/6
f 194/3/6 195/3/6 200/3/6
f 199/2/6 194/2/6 200/2/6
f 200/3/6 195/3/6 201/3/6
f 196/3/6 197/3/6 202/3/6
f 197/2/6 198/2/6 203/2/6
f 202/3/6 197/3/6 203/3/6
f 203/2/6 198/2/6 204/2/6
f 205/1/6 206/1/6 209/1/6
f 209/1/6 206/1/6 210/1/6
f 207/1/6 208/1/6 211/1/6
f 211/1/6 208/1/6 212/1/6
