# MagicaVoxel @ Ephtracy

# group
o 

# material
mtllib model-0.mtl
usemtl palette

# normals
vn -1 0 0
vn 1 0 0
vn 0 0 -1
vn 0 0 1
vn 0 -1 0
vn 0 1 0

# texcoords
vt 0.0253906 0.5
vt 0.572266 0.5

# verts
v -0.6 0.5 -1
v -0.6 0.5 -0.1
v -0.6 0.7 -1
v -0.6 0.7 -0.1
v -0.5 0 -0.9
v -0.5 0 -0.2
v -0.5 0.5 -0.9
v -0.5 0.5 -0.2
v 0.7 0.4 -0.7
v 0.7 0.4 -0.4
v 0.7 0.5 -0.7
v 0.7 0.5 -0.4
v 0.7 0.7 -0.7
v 0.7 0.7 -0.4
v 0.3 0.4 -0.9
v 0.3 0.4 -0.2
v 0.3 0.5 -0.9
v 0.3 0.5 -0.2
v 0.4 0.5 -1
v 0.4 0.5 -0.1
v 0.4 0.7 -1
v 0.4 0.7 -0.1
v 0.7 0 -0.9
v 0.7 0 -0.8
v 0.7 0 -0.3
v 0.7 0 -0.2
v 0.7 0.4 -0.9
v 0.7 0.4 -0.8
v 0.7 0.4 -0.3
v 0.7 0.4 -0.2
v 1 0 -0.8
v 1 0 -0.3
v 1 0.4 -0.8
v 1 0.4 -0.7
v 1 0.4 -0.4
v 1 0.4 -0.3
v 1 0.5 -0.7
v 1 0.5 -0.4
v 1 0.7 -0.7
v 1 0.7 -0.4
v -0.6 0.5 -1
v -0.6 0.7 -1
v 0.4 0.5 -1
v 0.4 0.7 -1
v -0.5 0 -0.9
v -0.5 0.5 -0.9
v 0.3 0.4 -0.9
v 0.3 0.5 -0.9
v 0.7 0 -0.9
v 0.7 0.4 -0.9
v 0.7 0 -0.8
v 0.7 0.4 -0.8
v 1 0 -0.8
v 1 0.4 -0.8
v 0.7 0.4 -0.7
v 0.7 0.5 -0.7
v 0.7 0.7 -0.7
v 1 0.4 -0.7
v 1 0.5 -0.7
v 1 0.7 -0.7
v 0.7 0.4 -0.4
v 0.7 0.5 -0.4
v 0.7 0.7 -0.4
v 1 0.4 -0.4
v 1 0.5 -0.4
v 1 0.7 -0.4
v 0.7 0 -0.3
v 0.7 0.4 -0.3
v 1 0 -0.3
v 1 0.4 -0.3
v -0.5 0 -0.2
v -0.5 0.5 -0.2
v 0.3 0.4 -0.2
v 0.3 0.5 -0.2
v 0.7 0 -0.2
v 0.7 0.4 -0.2
v -0.6 0.5 -0.1
v -0.6 0.7 -0.1
v 0.4 0.5 -0.1
v 0.4 0.7 -0.1
v -0.5 0 -0.9
v 0.7 0 -0.9
v 0.7 0 -0.8
v 1 0 -0.8
v 0.7 0 -0.3
v 1 0 -0.3
v -0.5 0 -0.2
v 0.7 0 -0.2
v -0.6 0.5 -1
v 0.4 0.5 -1
v -0.5 0.5 -0.9
v 0.3 0.5 -0.9
v -0.5 0.5 -0.2
v 0.3 0.5 -0.2
v -0.6 0.5 -0.1
v 0.4 0.5 -0.1
v 0.3 0.4 -0.9
v 0.7 0.4 -0.9
v 0.7 0.4 -0.8
v 1 0.4 -0.8
v 0.7 0.4 -0.7
v 1 0.4 -0.7
v 0.7 0.4 -0.4
v 1 0.4 -0.4
v 0.7 0.4 -0.3
v 1 0.4 -0.3
v 0.3 0.4 -0.2
v 0.7 0.4 -0.2
v -0.6 0.7 -1
v 0.4 0.7 -1
v 0.7 0.7 -0.7
v 1 0.7 -0.7
v 0.7 0.7 -0.4
v 1 0.7 -0.4
v -0.6 0.7 -0.1
v 0.4 0.7 -0.1

# faces
f 1/2/1 2/2/1 3/2/1
f 3/2/1 2/2/1 4/2/1
f 5/2/1 6/2/1 7/2/1
f 7/2/1 6/2/1 8/2/1
f 9/2/1 10/2/1 11/2/1
f 11/2/1 10/2/1 12/2/1
f 11/1/1 12/1/1 13/1/1
f 13/1/1 12/1/1 14/1/1
f 17/2/2 16/2/2 15/2/2
f 18/2/2 16/2/2 17/2/2
f 21/2/2 20/2/2 19/2/2
f 22/2/2 20/2/2 21/2/2
f 27/2/2 24/2/2 23/2/2
f 28/2/2 24/2/2 27/2/2
f 29/2/2 26/2/2 25/2/2
f 30/2/2 26/2/2 29/2/2
f 33/2/2 32/2/2 31/2/2
f 34/2/2 32/2/2 33/2/2
f 35/2/2 32/2/2 34/2/2
f 36/2/2 32/2/2 35/2/2
f 37/2/2 35/2/2 34/2/2
f 38/2/2 35/2/2 37/2/2
f 39/1/2 38/1/2 37/1/2
f 40/1/2 38/1/2 39/1/2
f 41/2/3 42/2/3 43/2/3
f 43/2/3 42/2/3 44/2/3
f 45/2/3 46/2/3 47/2/3
f 47/2/3 46/2/3 48/2/3
f 45/2/3 47/2/3 49/2/3
f 49/2/3 47/2/3 50/2/3
f 51/2/3 52/2/3 53/2/3
f 53/2/3 52/2/3 54/2/3
f 55/2/3 56/2/3 58/2/3
f 56/1/3 57/1/3 59/1/3
f 58/2/3 56/2/3 59/2/3
f 59/1/3 57/1/3 60/1/3
f 64/2/4 62/2/4 61/2/4
f 65/1/4 63/1/4 62/1/4
f 65/2/4 62/2/4 64/2/4
f 66/1/4 63/1/4 65/1/4
f 69/2/4 68/2/4 67/2/4
f 70/2/4 68/2/4 69/2/4
f 73/2/4 72/2/4 71/2/4
f 74/2/4 72/2/4 73/2/4
f 75/2/4 73/2/4 71/2/4
f 76/2/4 73/2/4 75/2/4
f 79/2/4 78/2/4 77/2/4
f 80/2/4 78/2/4 79/2/4
f 81/2/5 82/2/5 83/2/5
f 81/2/5 83/2/5 85/2/5
f 83/2/5 84/2/5 85/2/5
f 85/2/5 84/2/5 86/2/5
f 81/2/5 85/2/5 87/2/5
f 87/2/5 85/2/5 88/2/5
f 89/2/5 90/2/5 91/2/5
f 91/2/5 90/2/5 92/2/5
f 89/2/5 91/2/5 93/2/5
f 92/2/5 90/2/5 94/2/5
f 89/2/5 93/2/5 95/2/5
f 93/2/5 94/2/5 95/2/5
f 94/2/5 90/2/5 96/2/5
f 95/2/5 94/2/5 96/2/5
f 99/2/6 98/2/6 97/2/6
f 101/2/6 99/2/6 97/2/6
f 101/2/6 100/2/6 99/2/6
f 102/2/6 100/2/6 101/2/6
f 103/2/6 101/2/6 97/2/6
f 105/2/6 103/2/6 97/2/6
f 105/2/6 104/2/6 103/2/6
f 106/2/6 104/2/6 105/2/6
f 107/2/6 105/2/6 97/2/6
f 108/2/6 105/2/6 107/2/6
f 113/1/6 112/1/6 111/1/6
f 114/1/6 112/1/6 113/1/6
f 115/2/6 110/2/6 109/2/6
f 116/2/6 110/2/6 115/2/6
