# MagicaVoxel @ Ephtracy

# group
o 

# material
mtllib model.mtl
usemtl palette

# normals
vn 0 0 1
vn 0 0 -1
vn 1 0 0
vn -1 0 0
vn 0 -1 0
vn 0 1 0

# texcoords
vt 0.349609 0.5
vt 0.353516 0.5
vt 0.431641 0.5

# verts
v 1.6 0 2.1
v -1.6 0 2.1
v 1.6 0.3 2.1
v -1.6 0.3 2.1
v 1.9 0 1.8
v 1.6 0 1.8
v -1.6 0 1.8
v -1.9 0 1.8
v 1.9 0.3 1.8
v 1.6 0.3 1.8
v -1.6 0.3 1.8
v -1.9 0.3 1.8
v 0.8 0.3 1.2
v -0.9 0.3 1.2
v 0.2 0.5 1.2
v 0.1 0.5 1.2
v 0.3 0.6 1.2
v 0.2 0.6 1.2
v 0.1 0.6 1.2
v 0 0.6 1.2
v 0.3 0.7 1.2
v 0.2 0.7 1.2
v 0.1 0.7 1.2
v 0 0.7 1.2
v 0.2 0.8 1.2
v 0.1 0.8 1.2
v -0.4 1.1 1.2
v -0.5 1.1 1.2
v -0.3 1.2 1.2
v -0.4 1.2 1.2
v -0.5 1.2 1.2
v -0.6 1.2 1.2
v 0.5 1.3 1.2
v 0.4 1.3 1.2
v -0.3 1.3 1.2
v -0.4 1.3 1.2
v -0.5 1.3 1.2
v -0.6 1.3 1.2
v 0.6 1.4 1.2
v 0.5 1.4 1.2
v 0.4 1.4 1.2
v 0.3 1.4 1.2
v -0.4 1.4 1.2
v -0.5 1.4 1.2
v 0.6 1.5 1.2
v 0.5 1.5 1.2
v 0.4 1.5 1.2
v 0.3 1.5 1.2
v 0.5 1.6 1.2
v 0.4 1.6 1.2
v 0.8 1.9 1.2
v -0.9 1.9 1.2
v 1 0.3 1
v 0.8 0.3 1
v -0.9 0.3 1
v -1.1 0.3 1
v -1.1 1.3 1
v -1.4 1.3 1
v 1 1.9 1
v 0.8 1.9 1
v -0.9 1.9 1
v -1.1 1.9 1
v -1.4 1.9 1
v 0.8 2.1 1
v -1.1 2.1 1
v -1.3 1.1 0.7
v -1.7 1.1 0.7
v -1.3 1.3 0.7
v -1.4 1.3 0.7
v -1.4 1.6 0.7
v -1.7 1.6 0.7
v -1.5 0.8 0.3
v -1.9 0.8 0.3
v -1.5 1.1 0.3
v -1.7 1.1 0.3
v -1.7 1.4 0.3
v -1.9 1.4 0.3
v -1.5 0.8 -0.3
v -1.9 0.8 -0.3
v -1.5 1.1 -0.3
v -1.7 1.1 -0.3
v -1.7 1.4 -0.3
v -1.9 1.4 -0.3
v -1.3 1.1 -0.7
v -1.7 1.1 -0.7
v -1.3 1.3 -0.7
v -1.4 1.3 -0.7
v -1.4 1.6 -0.7
v -1.7 1.6 -0.7
v 1 0.3 -1
v 0.8 0.3 -1
v -0.9 0.3 -1
v -1.1 0.3 -1
v -1.1 1.3 -1
v -1.4 1.3 -1
v 1 1.9 -1
v 0.8 1.9 -1
v -0.9 1.9 -1
v -1.1 1.9 -1
v -1.4 1.9 -1
v 0.8 2.1 -1
v -1.1 2.1 -1
v 0.8 0.3 -1.2
v -0.9 0.3 -1.2
v -0.2 0.5 -1.2
v -0.3 0.5 -1.2
v -0.1 0.6 -1.2
v -0.2 0.6 -1.2
v -0.3 0.6 -1.2
v -0.4 0.6 -1.2
v -0.1 0.7 -1.2
v -0.2 0.7 -1.2
v -0.3 0.7 -1.2
v -0.4 0.7 -1.2
v -0.2 0.8 -1.2
v -0.3 0.8 -1.2
v 0.5 1.1 -1.2
v 0.4 1.1 -1.2
v 0.6 1.2 -1.2
v 0.5 1.2 -1.2
v 0.4 1.2 -1.2
v 0.3 1.2 -1.2
v 0.6 1.3 -1.2
v 0.5 1.3 -1.2
v 0.4 1.3 -1.2
v 0.3 1.3 -1.2
v 0.5 1.4 -1.2
v 0.4 1.4 -1.2
v -0.4 1.4 -1.2
v -0.5 1.4 -1.2
v -0.3 1.5 -1.2
v -0.4 1.5 -1.2
v -0.5 1.5 -1.2
v -0.6 1.5 -1.2
v -0.3 1.6 -1.2
v -0.4 1.6 -1.2
v -0.5 1.6 -1.2
v -0.6 1.6 -1.2
v -0.4 1.7 -1.2
v -0.5 1.7 -1.2
v 0.8 1.9 -1.2
v -0.9 1.9 -1.2
v 1.9 0 -1.8
v 1.6 0 -1.8
v -1.6 0 -1.8
v -1.9 0 -1.8
v 1.9 0.3 -1.8
v 1.6 0.3 -1.8
v -1.6 0.3 -1.8
v -1.9 0.3 -1.8
v 1.6 0 -2.1
v -1.6 0 -2.1
v 1.6 0.3 -2.1
v -1.6 0.3 -2.1
v 1.9 0 1.8
v 1.9 0.3 1.8
v 1.9 0 -1.8
v 1.9 0.3 -1.8
v 1.6 0 2.1
v 1.6 0.3 2.1
v 1.6 0 1.8
v 1.6 0.3 1.8
v 1.6 0 -1.8
v 1.6 0.3 -1.8
v 1.6 0 -2.1
v 1.6 0.3 -2.1
v 1 0.3 1
v 1 1.9 1
v 1 1 0.9
v 1 1.4 0.9
v 1 0.9 0.8
v 1 1 0.8
v 1 1.4 0.8
v 1 1.5 0.8
v 1 0.8 0.7
v 1 0.9 0.7
v 1 1.1 0.7
v 1 1.4 0.7
v 1 1.5 0.7
v 1 1.6 0.7
v 1 1 0.6
v 1 1.1 0.6
v 1 1.4 0.6
v 1 1.5 0.6
v 1 1.5 0.5
v 1 1.6 0.5
v 1 0.8 0.3
v 1 0.9 0.3
v 1 1 0.3
v 1 1.1 0.3
v 1 0.9 0.2
v 1 1 0.2
v 1 1.1 0.2
v 1 1.2 0.2
v 1 0.5 0.0999999
v 1 0.6 0.0999999
v 1 1 0.0999999
v 1 1.2 0.0999999
v 1 0.4 0
v 1 0.5 0
v 1 0.6 0
v 1 0.7 0
v 1 0.4 -0.0999999
v 1 0.5 -0.0999999
v 1 0.6 -0.0999999
v 1 0.7 -0.0999999
v 1 1.4 -0.0999999
v 1 1.5 -0.0999999
v 1 0.5 -0.2
v 1 0.6 -0.2
v 1 1.3 -0.2
v 1 1.4 -0.2
v 1 1.5 -0.2
v 1 1.6 -0.2
v 1 1.3 -0.3
v 1 1.4 -0.3
v 1 1.5 -0.3
v 1 1.6 -0.3
v 1 1.4 -0.4
v 1 1.5 -0.4
v 1 0.9 -0.5
v 1 1 -0.5
v 1 0.8 -0.6
v 1 0.9 -0.6
v 1 1 -0.6
v 1 1.1 -0.6
v 1 0.8 -0.7
v 1 0.9 -0.7
v 1 1 -0.7
v 1 1.1 -0.7
v 1 0.9 -0.8
v 1 1 -0.8
v 1 0.3 -1
v 1 1.9 -1
v 0.8 0.3 1.2
v 0.8 1.9 1.2
v 0.8 0.3 1
v 0.8 1.9 1
v 0.8 2.1 1
v 0.8 0.3 -1
v 0.8 1.9 -1
v 0.8 2.1 -1
v 0.8 0.3 -1.2
v 0.8 1.9 -1.2
v -1.3 1.1 0.7
v -1.3 1.3 0.7
v -1.3 1.1 -0.7
v -1.3 1.3 -0.7
v -1.5 0.8 0.3
v -1.5 1.1 0.3
v -1.5 0.8 -0.3
v -1.5 1.1 -0.3
v -0.9 0.3 1.2
v -0.9 1.9 1.2
v -0.9 0.3 1
v -0.9 1.9 1
v -0.9 0.3 -1
v -0.9 1.9 -1
v -0.9 0.3 -1.2
v -0.9 1.9 -1.2
v -1.1 0.3 1
v -1.1 1.3 1
v -1.1 1.9 1
v -1.1 2.1 1
v -1.1 0.7 0.8
v -1.1 0.8 0.8
v -1.1 0.6 0.7
v -1.1 0.7 0.7
v -1.1 0.8 0.7
v -1.1 0.9 0.7
v -1.1 0.6 0.6
v -1.1 0.7 0.6
v -1.1 0.8 0.6
v -1.1 0.9 0.6
v -1.1 0.7 0.5
v -1.1 0.8 0.5
v -1.1 0.5 -0.5
v -1.1 0.6 -0.5
v -1.1 0.4 -0.6
v -1.1 0.5 -0.6
v -1.1 0.6 -0.6
v -1.1 0.7 -0.6
v -1.1 0.4 -0.7
v -1.1 0.5 -0.7
v -1.1 0.6 -0.7
v -1.1 0.7 -0.7
v -1.1 0.5 -0.8
v -1.1 0.6 -0.8
v -1.1 0.3 -1
v -1.1 1.3 -1
v -1.1 1.9 -1
v -1.1 2.1 -1
v -1.4 1.3 1
v -1.4 1.9 1
v -1.4 1.3 0.7
v -1.4 1.6 0.7
v -1.4 1.3 -0.7
v -1.4 1.6 -0.7
v -1.4 1.3 -1
v -1.4 1.9 -1
v -1.6 0 2.1
v -1.6 0.3 2.1
v -1.6 0 1.8
v -1.6 0.3 1.8
v -1.6 0 -1.8
v -1.6 0.3 -1.8
v -1.6 0 -2.1
v -1.6 0.3 -2.1
v -1.7 1.1 0.7
v -1.7 1.6 0.7
v -1.7 1.1 0.3
v -1.7 1.4 0.3
v -1.7 1.1 -0.3
v -1.7 1.4 -0.3
v -1.7 1.1 -0.7
v -1.7 1.6 -0.7
v -1.9 0 1.8
v -1.9 0.3 1.8
v -1.9 0.8 0.3
v -1.9 1.4 0.3
v -1.9 0.8 -0.3
v -1.9 1.4 -0.3
v -1.9 0 -1.8
v -1.9 0.3 -1.8
v 1.9 0 1.8
v 1.9 0 -1.8
v 1.6 0 2.1
v 1.6 0 1.8
v 1.6 0 -1.8
v 1.6 0 -2.1
v -1.6 0 2.1
v -1.6 0 1.8
v -1.6 0 -1.8
v -1.6 0 -2.1
v -1.9 0 1.8
v -1.9 0 -1.8
v -1.5 0.8 0.3
v -1.5 0.8 -0.3
v -1.9 0.8 0.3
v -1.9 0.8 -0.3
v -1.3 1.1 0.7
v -1.3 1.1 -0.7
v -1.5 1.1 0.3
v -1.5 1.1 -0.3
v -1.7 1.1 0.7
v -1.7 1.1 0.3
v -1.7 1.1 -0.3
v -1.7 1.1 -0.7
v -1.1 1.3 1
v -1.1 1.3 -1
v -1.3 1.3 0.7
v -1.3 1.3 -0.7
v -1.4 1.3 1
v -1.4 1.3 0.7
v -1.4 1.3 -0.7
v -1.4 1.3 -1
v 1.9 0.3 1.8
v 1.9 0.3 -1.8
v 1.8 0.3 1.7
v 1.8 0.3 -1.7
v 1.6 0.3 2.1
v 1.6 0.3 1.8
v 1.6 0.3 -1.3
v 1.6 0.3 -1.4
v 1.6 0.3 -1.8
v 1.6 0.3 -2.1
v 1.5 0.3 2
v 1.5 0.3 1.7
v 1.5 0.3 0.5
v 1.5 0.3 0.4
v 1.5 0.3 -1.2
v 1.5 0.3 -1.3
v 1.5 0.3 -1.4
v 1.5 0.3 -1.5
v 1.5 0.3 -1.7
v 1.5 0.3 -2
v 1.4 0.3 0.6
v 1.4 0.3 0.5
v 1.4 0.3 0.4
v 1.4 0.3 0.3
v 1.4 0.3 -1.2
v 1.4 0.3 -1.3
v 1.4 0.3 -1.4
v 1.4 0.3 -1.5
v 1.3 0.3 0.6
v 1.3 0.3 0.5
v 1.3 0.3 0.4
v 1.3 0.3 0.3
v 1.3 0.3 -1.3
v 1.3 0.3 -1.4
v 1.2 0.3 0.5
v 1.2 0.3 0.4
v 1 0.3 1
v 1 0.3 -1
v 0.8 0.3 1.2
v 0.8 0.3 1
v 0.8 0.3 -1
v 0.8 0.3 -1.2
v 0.7 0.3 1.7
v 0.7 0.3 1.6
v 0.6 0.3 1.8
v 0.6 0.3 1.7
v 0.6 0.3 1.6
v 0.6 0.3 1.5
v 0.5 0.3 1.8
v 0.5 0.3 1.7
v 0.5 0.3 1.6
v 0.5 0.3 1.5
v 0.4 0.3 1.7
v 0.4 0.3 1.6
v 0.4 0.3 -1.5
v 0.4 0.3 -1.6
v 0.3 0.3 -1.4
v 0.3 0.3 -1.5
v 0.3 0.3 -1.6
v 0.3 0.3 -1.7
v 0.2 0.3 -1.4
v 0.2 0.3 -1.5
v 0.2 0.3 -1.6
v 0.2 0.3 -1.7
v 0.1 0.3 -1.5
v 0.1 0.3 -1.6
v -0.9 0.3 1.2
v -0.9 0.3 1
v -0.9 0.3 -1
v -0.9 0.3 -1.2
v -1.1 0.3 1
v -1.1 0.3 -1
v -1.1 0.3 -1.4
v -1.1 0.3 -1.5
v -1.2 0.3 1.5
v -1.2 0.3 1.4
v -1.2 0.3 -1.3
v -1.2 0.3 -1.4
v -1.2 0.3 -1.5
v -1.2 0.3 -1.6
v -1.3 0.3 1.6
v -1.3 0.3 1.5
v -1.3 0.3 1.4
v -1.3 0.3 1.3
v -1.3 0.3 0.3
v -1.3 0.3 0.2
v -1.3 0.3 -1.3
v -1.3 0.3 -1.4
v -1.3 0.3 -1.5
v -1.3 0.3 -1.6
v -1.4 0.3 1.6
v -1.4 0.3 1.5
v -1.4 0.3 1.4
v -1.4 0.3 1.3
v -1.4 0.3 0.4
v -1.4 0.3 0.3
v -1.4 0.3 0.2
v -1.4 0.3 0.0999999
v -1.4 0.3 -1.4
v -1.4 0.3 -1.5
v -1.5 0.3 2
v -1.5 0.3 1.7
v -1.5 0.3 1.5
v -1.5 0.3 1.4
v -1.5 0.3 0.4
v -1.5 0.3 0.3
v -1.5 0.3 0.2
v -1.5 0.3 0.0999999
v -1.5 0.3 -1.7
v -1.5 0.3 -2
v -1.6 0.3 2.1
v -1.6 0.3 1.8
v -1.6 0.3 0.3
v -1.6 0.3 0.2
v -1.6 0.3 -1.8
v -1.6 0.3 -2.1
v -1.8 0.3 1.7
v -1.8 0.3 -1.7
v -1.9 0.3 1.8
v -1.9 0.3 -1.8
v -1.7 1.4 0.3
v -1.7 1.4 -0.3
v -1.9 1.4 0.3
v -1.9 1.4 -0.3
v -1.4 1.6 0.7
v -1.4 1.6 -0.7
v -1.7 1.6 0.7
v -1.7 1.6 -0.7
v 1 1.9 1
v 1 1.9 -1
v 0.8 1.9 1.2
v 0.8 1.9 1
v 0.8 1.9 -1
v 0.8 1.9 -1.2
v -0.9 1.9 1.2
v -0.9 1.9 1
v -0.9 1.9 -1
v -0.9 1.9 -1.2
v -1.1 1.9 1
v -1.1 1.9 -1
v -1.4 1.9 1
v -1.4 1.9 -1
v 0.8 2.1 1
v 0.8 2.1 -1
v 0.5 2.1 0.6
v 0.5 2.1 0.5
v 0.4 2.1 0.7
v 0.4 2.1 0.6
v 0.4 2.1 0.5
v 0.4 2.1 0.4
v 0.3 2.1 0.7
v 0.3 2.1 0.6
v 0.3 2.1 0.5
v 0.3 2.1 0.4
v 0.2 2.1 0.6
v 0.2 2.1 0.5
v 0.1 2.1 -0.2
v 0.1 2.1 -0.3
v 0 2.1 -0.0999999
v 0 2.1 -0.2
v 0 2.1 -0.3
v 0 2.1 -0.4
v -0.1 2.1 -0.0999999
v -0.1 2.1 -0.2
v -0.1 2.1 -0.3
v -0.1 2.1 -0.4
v -0.2 2.1 -0.2
v -0.2 2.1 -0.3
v -0.6 2.1 0.2
v -0.6 2.1 0.0999999
v -0.7 2.1 0.3
v -0.7 2.1 0.2
v -0.7 2.1 0.0999999
v -0.7 2.1 0
v -0.8 2.1 0.3
v -0.8 2.1 0.2
v -0.8 2.1 0.0999999
v -0.8 2.1 0
v -0.9 2.1 0.2
v -0.9 2.1 0.0999999
v -1.1 2.1 1
v -1.1 2.1 -1

# faces
f 3/2/1 2/2/1 1/2/1
f 4/2/1 2/2/1 3/2/1
f 9/2/1 6/2/1 5/2/1
f 10/2/1 6/2/1 9/2/1
f 11/2/1 8/2/1 7/2/1
f 12/2/1 8/2/1 11/2/1
f 15/1/1 14/1/1 13/1/1
f 16/1/1 14/1/1 15/1/1
f 17/1/1 15/1/1 13/1/1
f 18/3/1 16/3/1 15/3/1
f 18/1/1 15/1/1 17/1/1
f 19/1/1 14/1/1 16/1/1
f 19/3/1 16/3/1 18/3/1
f 20/1/1 14/1/1 19/1/1
f 21/3/1 18/3/1 17/3/1
f 21/1/1 17/1/1 13/1/1
f 21/3/1 20/3/1 19/3/1
f 21/3/1 19/3/1 18/3/1
f 22/3/1 20/3/1 21/3/1
f 23/3/1 20/3/1 22/3/1
f 24/1/1 14/1/1 20/1/1
f 24/3/1 20/3/1 23/3/1
f 25/3/1 23/3/1 22/3/1
f 25/1/1 22/1/1 21/1/1
f 26/1/1 24/1/1 23/1/1
f 26/3/1 23/3/1 25/3/1
f 27/1/1 14/1/1 24/1/1
f 27/1/1 24/1/1 26/1/1
f 27/1/1 26/1/1 25/1/1
f 28/1/1 14/1/1 27/1/1
f 29/1/1 27/1/1 25/1/1
f 30/3/1 28/3/1 27/3/1
f 30/1/1 27/1/1 29/1/1
f 31/1/1 14/1/1 28/1/1
f 31/3/1 28/3/1 30/3/1
f 32/1/1 14/1/1 31/1/1
f 33/1/1 25/1/1 21/1/1
f 33/1/1 21/1/1 13/1/1
f 33/1/1 29/1/1 25/1/1
f 34/1/1 29/1/1 33/1/1
f 35/3/1 32/3/1 31/3/1
f 35/1/1 29/1/1 34/1/1
f 35/3/1 30/3/1 29/3/1
f 35/3/1 31/3/1 30/3/1
f 36/3/1 32/3/1 35/3/1
f 37/3/1 32/3/1 36/3/1
f 38/1/1 14/1/1 32/1/1
f 38/3/1 32/3/1 37/3/1
f 39/1/1 33/1/1 13/1/1
f 40/3/1 34/3/1 33/3/1
f 40/1/1 33/1/1 39/1/1
f 41/1/1 35/1/1 34/1/1
f 41/3/1 34/3/1 40/3/1
f 41/1/1 36/1/1 35/1/1
f 42/1/1 36/1/1 41/1/1
f 43/3/1 37/3/1 36/3/1
f 43/1/1 36/1/1 42/1/1
f 44/1/1 38/1/1 37/1/1
f 44/3/1 37/3/1 43/3/1
f 45/3/1 42/3/1 41/3/1
f 45/1/1 39/1/1 13/1/1
f 45/3/1 40/3/1 39/3/1
f 45/3/1 41/3/1 40/3/1
f 46/3/1 42/3/1 45/3/1
f 47/3/1 42/3/1 46/3/1
f 48/1/1 44/1/1 43/1/1
f 48/3/1 42/3/1 47/3/1
f 48/1/1 43/1/1 42/1/1
f 49/3/1 47/3/1 46/3/1
f 49/1/1 46/1/1 45/1/1
f 50/1/1 48/1/1 47/1/1
f 50/3/1 47/3/1 49/3/1
f 51/1/1 49/1/1 45/1/1
f 51/1/1 45/1/1 13/1/1
f 51/1/1 50/1/1 49/1/1
f 52/1/1 38/1/1 44/1/1
f 52/1/1 50/1/1 51/1/1
f 52/1/1 44/1/1 48/1/1
f 52/1/1 48/1/1 50/1/1
f 52/1/1 14/1/1 38/1/1
f 57/1/1 56/1/1 55/1/1
f 59/1/1 54/1/1 53/1/1
f 60/1/1 54/1/1 59/1/1
f 61/1/1 58/1/1 57/1/1
f 61/1/1 57/1/1 55/1/1
f 62/1/1 58/1/1 61/1/1
f 63/1/1 58/1/1 62/1/1
f 64/1/1 61/1/1 60/1/1
f 64/1/1 62/1/1 61/1/1
f 65/1/1 62/1/1 64/1/1
f 68/1/1 67/1/1 66/1/1
f 69/1/1 67/1/1 68/1/1
f 70/1/1 67/1/1 69/1/1
f 71/1/1 67/1/1 70/1/1
f 74/1/1 73/1/1 72/1/1
f 75/1/1 73/1/1 74/1/1
f 76/1/1 73/1/1 75/1/1
f 77/1/1 73/1/1 76/1/1
f 78/1/2 79/1/2 80/1/2
f 80/1/2 79/1/2 81/1/2
f 81/1/2 79/1/2 82/1/2
f 82/1/2 79/1/2 83/1/2
f 84/1/2 85/1/2 86/1/2
f 86/1/2 85/1/2 87/1/2
f 87/1/2 85/1/2 88/1/2
f 88/1/2 85/1/2 89/1/2
f 92/1/2 93/1/2 94/1/2
f 90/1/2 91/1/2 96/1/2
f 96/1/2 91/1/2 97/1/2
f 94/1/2 95/1/2 98/1/2
f 92/1/2 94/1/2 98/1/2
f 98/1/2 95/1/2 99/1/2
f 99/1/2 95/1/2 100/1/2
f 97/1/2 98/1/2 101/1/2
f 98/1/2 99/1/2 101/1/2
f 101/1/2 99/1/2 102/1/2
f 103/1/2 104/1/2 105/1/2
f 105/1/2 104/1/2 106/1/2
f 103/1/2 105/1/2 107/1/2
f 105/3/2 106/3/2 108/3/2
f 107/1/2 105/1/2 108/1/2
f 106/1/2 104/1/2 109/1/2
f 108/3/2 106/3/2 109/3/2
f 109/1/2 104/1/2 110/1/2
f 107/3/2 108/3/2 111/3/2
f 103/1/2 107/1/2 111/1/2
f 109/3/2 110/3/2 111/3/2
f 108/3/2 109/3/2 111/3/2
f 111/3/2 110/3/2 112/3/2
f 112/3/2 110/3/2 113/3/2
f 110/1/2 104/1/2 114/1/2
f 113/3/2 110/3/2 114/3/2
f 112/3/2 113/3/2 115/3/2
f 111/1/2 112/1/2 115/1/2
f 113/1/2 114/1/2 116/1/2
f 115/3/2 113/3/2 116/3/2
f 103/1/2 111/1/2 117/1/2
f 111/1/2 115/1/2 117/1/2
f 115/1/2 116/1/2 117/1/2
f 117/1/2 116/1/2 118/1/2
f 103/1/2 117/1/2 119/1/2
f 117/3/2 118/3/2 120/3/2
f 119/1/2 117/1/2 120/1/2
f 118/1/2 116/1/2 121/1/2
f 120/3/2 118/3/2 121/3/2
f 121/1/2 116/1/2 122/1/2
f 119/3/2 120/3/2 123/3/2
f 103/1/2 119/1/2 123/1/2
f 121/3/2 122/3/2 123/3/2
f 120/3/2 121/3/2 123/3/2
f 123/3/2 122/3/2 124/3/2
f 124/3/2 122/3/2 125/3/2
f 122/1/2 116/1/2 126/1/2
f 125/3/2 122/3/2 126/3/2
f 124/3/2 125/3/2 127/3/2
f 123/1/2 124/1/2 127/1/2
f 125/1/2 126/1/2 128/1/2
f 127/3/2 125/3/2 128/3/2
f 114/1/2 104/1/2 129/1/2
f 128/1/2 126/1/2 129/1/2
f 116/1/2 114/1/2 129/1/2
f 126/1/2 116/1/2 129/1/2
f 129/1/2 104/1/2 130/1/2
f 127/1/2 128/1/2 131/1/2
f 128/1/2 129/1/2 131/1/2
f 129/3/2 130/3/2 132/3/2
f 131/1/2 129/1/2 132/1/2
f 130/1/2 104/1/2 133/1/2
f 132/3/2 130/3/2 133/3/2
f 133/1/2 104/1/2 134/1/2
f 131/3/2 132/3/2 135/3/2
f 127/1/2 131/1/2 135/1/2
f 133/3/2 134/3/2 135/3/2
f 132/3/2 133/3/2 135/3/2
f 135/3/2 134/3/2 136/3/2
f 136/3/2 134/3/2 137/3/2
f 134/1/2 104/1/2 138/1/2
f 137/3/2 134/3/2 138/3/2
f 136/3/2 137/3/2 139/3/2
f 135/1/2 136/1/2 139/1/2
f 137/1/2 138/1/2 140/1/2
f 139/3/2 137/3/2 140/3/2
f 123/1/2 127/1/2 141/1/2
f 103/1/2 123/1/2 141/1/2
f 139/1/2 140/1/2 141/1/2
f 135/1/2 139/1/2 141/1/2
f 127/1/2 135/1/2 141/1/2
f 138/1/2 104/1/2 142/1/2
f 141/1/2 140/1/2 142/1/2
f 140/1/2 138/1/2 142/1/2
f 143/2/2 144/2/2 147/2/2
f 147/2/2 144/2/2 148/2/2
f 145/2/2 146/2/2 149/2/2
f 149/2/2 146/2/2 150/2/2
f 151/2/2 152/2/2 153/2/2
f 153/2/2 152/2/2 154/2/2
f 157/2/3 156/2/3 155/2/3
f 158/2/3 156/2/3 157/2/3
f 161/2/3 160/2/3 159/2/3
f 162/2/3 160/2/3 161/2/3
f 165/2/3 164/2/3 163/2/3
f 166/2/3 164/2/3 165/2/3
f 169/1/3 168/1/3 167/1/3
f 170/1/3 168/1/3 169/1/3
f 171/1/3 169/1/3 167/1/3
f 172/3/3 170/3/3 169/3/3
f 172/1/3 169/1/3 171/1/3
f 173/1/3 168/1/3 170/1/3
f 173/3/3 170/3/3 172/3/3
f 174/1/3 168/1/3 173/1/3
f 175/1/3 171/1/3 167/1/3
f 176/3/3 172/3/3 171/3/3
f 176/1/3 171/1/3 175/1/3
f 176/3/3 173/3/3 172/3/3
f 176/3/3 174/3/3 173/3/3
f 177/3/3 174/3/3 176/3/3
f 178/3/3 174/3/3 177/3/3
f 179/1/3 168/1/3 174/1/3
f 179/3/3 174/3/3 178/3/3
f 180/1/3 168/1/3 179/1/3
f 181/3/3 176/3/3 175/3/3
f 181/3/3 177/3/3 176/3/3
f 182/1/3 178/1/3 177/1/3
f 182/3/3 177/3/3 181/3/3
f 183/3/3 180/3/3 179/3/3
f 183/1/3 178/1/3 182/1/3
f 183/3/3 179/3/3 178/3/3
f 184/3/3 180/3/3 183/3/3
f 185/1/3 182/1/3 181/1/3
f 185/3/3 180/3/3 184/3/3
f 185/1/3 184/1/3 183/1/3
f 185/1/3 183/1/3 182/1/3
f 186/1/3 168/1/3 180/1/3
f 186/3/3 180/3/3 185/3/3
f 187/1/3 175/1/3 167/1/3
f 187/3/3 181/3/3 175/3/3
f 188/3/3 181/3/3 187/3/3
f 189/1/3 186/1/3 185/1/3
f 189/3/3 181/3/3 188/3/3
f 189/1/3 185/1/3 181/1/3
f 190/1/3 186/1/3 189/1/3
f 191/1/3 188/1/3 187/1/3
f 191/3/3 189/3/3 188/3/3
f 191/3/3 190/3/3 189/3/3
f 192/3/3 190/3/3 191/3/3
f 193/1/3 186/1/3 190/1/3
f 193/3/3 190/3/3 192/3/3
f 194/1/3 186/1/3 193/1/3
f 195/1/3 192/1/3 191/1/3
f 195/1/3 187/1/3 167/1/3
f 195/1/3 191/1/3 187/1/3
f 196/1/3 192/1/3 195/1/3
f 197/3/3 194/3/3 193/3/3
f 197/1/3 192/1/3 196/1/3
f 197/3/3 193/3/3 192/3/3
f 198/1/3 186/1/3 194/1/3
f 198/3/3 194/3/3 197/3/3
f 199/1/3 195/1/3 167/1/3
f 200/3/3 196/3/3 195/3/3
f 200/1/3 195/1/3 199/1/3
f 201/1/3 197/1/3 196/1/3
f 201/3/3 196/3/3 200/3/3
f 201/1/3 198/1/3 197/1/3
f 202/1/3 198/1/3 201/1/3
f 203/3/3 200/3/3 199/3/3
f 203/1/3 199/1/3 167/1/3
f 203/3/3 202/3/3 201/3/3
f 203/3/3 201/3/3 200/3/3
f 204/3/3 202/3/3 203/3/3
f 205/3/3 202/3/3 204/3/3
f 206/1/3 198/1/3 202/1/3
f 206/3/3 202/3/3 205/3/3
f 207/1/3 186/1/3 198/1/3
f 207/1/3 198/1/3 206/1/3
f 208/1/3 186/1/3 207/1/3
f 209/3/3 205/3/3 204/3/3
f 209/1/3 204/1/3 203/1/3
f 210/1/3 206/1/3 205/1/3
f 210/3/3 205/3/3 209/3/3
f 210/1/3 207/1/3 206/1/3
f 211/1/3 207/1/3 210/1/3
f 212/3/3 208/3/3 207/3/3
f 212/1/3 207/1/3 211/1/3
f 213/1/3 186/1/3 208/1/3
f 213/3/3 208/3/3 212/3/3
f 214/1/3 168/1/3 186/1/3
f 214/1/3 186/1/3 213/1/3
f 215/3/3 213/3/3 212/3/3
f 215/3/3 212/3/3 211/3/3
f 215/3/3 214/3/3 213/3/3
f 215/1/3 210/1/3 209/1/3
f 215/1/3 211/1/3 210/1/3
f 216/3/3 214/3/3 215/3/3
f 217/3/3 214/3/3 216/3/3
f 218/1/3 168/1/3 214/1/3
f 218/3/3 214/3/3 217/3/3
f 219/3/3 217/3/3 216/3/3
f 219/1/3 216/1/3 215/1/3
f 220/1/3 218/1/3 217/1/3
f 220/3/3 217/3/3 219/3/3
f 221/1/3 215/1/3 209/1/3
f 221/1/3 219/1/3 215/1/3
f 221/1/3 220/1/3 219/1/3
f 222/1/3 220/1/3 221/1/3
f 223/1/3 221/1/3 209/1/3
f 224/3/3 222/3/3 221/3/3
f 224/1/3 221/1/3 223/1/3
f 225/1/3 220/1/3 222/1/3
f 225/3/3 222/3/3 224/3/3
f 226/1/3 220/1/3 225/1/3
f 227/3/3 224/3/3 223/3/3
f 227/1/3 223/1/3 209/1/3
f 227/3/3 226/3/3 225/3/3
f 227/3/3 225/3/3 224/3/3
f 228/3/3 226/3/3 227/3/3
f 229/3/3 226/3/3 228/3/3
f 230/1/3 220/1/3 226/1/3
f 230/3/3 226/3/3 229/3/3
f 231/3/3 229/3/3 228/3/3
f 231/1/3 228/1/3 227/1/3
f 232/1/3 230/1/3 229/1/3
f 232/3/3 229/3/3 231/3/3
f 233/1/3 203/1/3 167/1/3
f 233/1/3 209/1/3 203/1/3
f 233/1/3 232/1/3 231/1/3
f 233/1/3 231/1/3 227/1/3
f 233/1/3 227/1/3 209/1/3
f 234/1/3 168/1/3 218/1/3
f 234/1/3 232/1/3 233/1/3
f 234/1/3 230/1/3 232/1/3
f 234/1/3 218/1/3 220/1/3
f 234/1/3 220/1/3 230/1/3
f 237/1/3 236/1/3 235/1/3
f 238/1/3 236/1/3 237/1/3
f 241/1/3 239/1/3 238/1/3
f 242/1/3 239/1/3 241/1/3
f 243/1/3 241/1/3 240/1/3
f 244/1/3 241/1/3 243/1/3
f 247/1/3 246/1/3 245/1/3
f 248/1/3 246/1/3 247/1/3
f 251/1/3 250/1/3 249/1/3
f 252/1/3 250/1/3 251/1/3
f 253/1/4 254/1/4 255/1/4
f 255/1/4 254/1/4 256/1/4
f 257/1/4 258/1/4 259/1/4
f 259/1/4 258/1/4 260/1/4
f 261/1/4 262/1/4 265/1/4
f 265/1/4 262/1/4 266/1/4
f 261/1/4 265/1/4 267/1/4
f 265/3/4 266/3/4 268/3/4
f 267/1/4 265/1/4 268/1/4
f 266/1/4 262/1/4 269/1/4
f 268/3/4 266/3/4 269/3/4
f 269/1/4 262/1/4 270/1/4
f 267/3/4 268/3/4 271/3/4
f 261/1/4 267/1/4 271/1/4
f 269/3/4 270/3/4 271/3/4
f 268/3/4 269/3/4 271/3/4
f 271/3/4 270/3/4 272/3/4
f 272/3/4 270/3/4 273/3/4
f 270/1/4 262/1/4 274/1/4
f 273/3/4 270/3/4 274/3/4
f 272/3/4 273/3/4 275/3/4
f 271/1/4 272/1/4 275/1/4
f 273/1/4 274/1/4 276/1/4
f 275/3/4 273/3/4 276/3/4
f 261/1/4 271/1/4 277/1/4
f 271/1/4 275/1/4 277/1/4
f 275/1/4 276/1/4 277/1/4
f 277/1/4 276/1/4 278/1/4
f 261/1/4 277/1/4 279/1/4
f 277/3/4 278/3/4 280/3/4
f 279/1/4 277/1/4 280/1/4
f 278/1/4 276/1/4 281/1/4
f 280/3/4 278/3/4 281/3/4
f 281/1/4 276/1/4 282/1/4
f 279/3/4 280/3/4 283/3/4
f 261/1/4 279/1/4 283/1/4
f 281/3/4 282/3/4 283/3/4
f 280/3/4 281/3/4 283/3/4
f 283/3/4 282/3/4 284/3/4
f 284/3/4 282/3/4 285/3/4
f 282/1/4 276/1/4 286/1/4
f 285/3/4 282/3/4 286/3/4
f 284/3/4 285/3/4 287/3/4
f 283/1/4 284/1/4 287/1/4
f 285/1/4 286/1/4 288/1/4
f 287/3/4 285/3/4 288/3/4
f 261/1/4 283/1/4 289/1/4
f 283/1/4 287/1/4 289/1/4
f 287/1/4 288/1/4 289/1/4
f 274/1/4 262/1/4 290/1/4
f 289/1/4 288/1/4 290/1/4
f 276/1/4 274/1/4 290/1/4
f 288/1/4 286/1/4 290/1/4
f 286/1/4 276/1/4 290/1/4
f 263/1/4 264/1/4 291/1/4
f 291/1/4 264/1/4 292/1/4
f 293/1/4 294/1/4 295/1/4
f 295/1/4 294/1/4 296/1/4
f 296/1/4 294/1/4 298/1/4
f 297/1/4 298/1/4 299/1/4
f 298/1/4 294/1/4 300/1/4
f 299/1/4 298/1/4 300/1/4
f 301/2/4 302/2/4 303/2/4
f 303/2/4 302/2/4 304/2/4
f 305/2/4 306/2/4 307/2/4
f 307/2/4 306/2/4 308/2/4
f 309/1/4 310/1/4 311/1/4
f 311/1/4 310/1/4 312/1/4
f 312/1/4 310/1/4 314/1/4
f 313/1/4 314/1/4 315/1/4
f 314/1/4 310/1/4 316/1/4
f 315/1/4 314/1/4 316/1/4
f 319/1/4 320/1/4 321/1/4
f 321/1/4 320/1/4 322/1/4
f 317/2/4 318/2/4 323/2/4
f 323/2/4 318/2/4 324/2/4
f 328/2/5 326/2/5 325/2/5
f 329/2/5 326/2/5 328/2/5
f 331/2/5 328/2/5 327/2/5
f 331/2/5 330/2/5 329/2/5
f 331/2/5 329/2/5 328/2/5
f 332/2/5 330/2/5 331/2/5
f 333/2/5 330/2/5 332/2/5
f 334/2/5 330/2/5 333/2/5
f 335/2/5 333/2/5 332/2/5
f 336/2/5 333/2/5 335/2/5
f 339/1/5 338/1/5 337/1/5
f 340/1/5 338/1/5 339/1/5
f 343/1/5 342/1/5 341/1/5
f 344/1/5 342/1/5 343/1/5
f 345/1/5 343/1/5 341/1/5
f 346/1/5 343/1/5 345/1/5
f 347/1/5 342/1/5 344/1/5
f 348/1/5 342/1/5 347/1/5
f 351/1/5 350/1/5 349/1/5
f 352/1/5 350/1/5 351/1/5
f 353/1/5 351/1/5 349/1/5
f 354/1/5 351/1/5 353/1/5
f 355/1/5 350/1/5 352/1/5
f 356/1/5 350/1/5 355/1/5
f 357/2/6 358/2/6 359/2/6
f 359/2/6 358/2/6 360/2/6
f 357/2/6 359/2/6 362/2/6
f 359/1/6 360/1/6 363/1/6
f 363/1/6 360/1/6 364/1/6
f 360/2/6 358/2/6 365/2/6
f 361/2/6 362/2/6 367/2/6
f 362/2/6 359/2/6 368/2/6
f 367/2/6 362/2/6 368/2/6
f 359/1/6 363/1/6 368/1/6
f 368/1/6 363/1/6 369/1/6
f 369/1/6 363/1/6 370/1/6
f 370/1/6 363/1/6 371/1/6
f 363/3/6 364/3/6 372/3/6
f 371/1/6 363/1/6 372/1/6
f 364/1/6 360/1/6 373/1/6
f 372/3/6 364/3/6 373/3/6
f 373/1/6 360/1/6 374/1/6
f 365/2/6 366/2/6 375/2/6
f 374/1/6 360/1/6 375/1/6
f 360/2/6 365/2/6 375/2/6
f 375/2/6 366/2/6 376/2/6
f 367/1/6 368/1/6 377/1/6
f 368/1/6 369/1/6 377/1/6
f 369/3/6 370/3/6 378/3/6
f 377/1/6 369/1/6 378/1/6
f 370/1/6 371/1/6 379/1/6
f 378/3/6 370/3/6 379/3/6
f 379/1/6 371/1/6 380/1/6
f 371/3/6 372/3/6 381/3/6
f 380/1/6 371/1/6 381/1/6
f 373/3/6 374/3/6 381/3/6
f 372/3/6 373/3/6 381/3/6
f 381/3/6 374/3/6 382/3/6
f 382/3/6 374/3/6 383/3/6
f 374/1/6 375/1/6 384/1/6
f 383/3/6 374/3/6 384/3/6
f 375/1/6 376/1/6 384/1/6
f 379/3/6 380/3/6 385/3/6
f 378/3/6 379/3/6 385/3/6
f 377/3/6 378/3/6 385/3/6
f 367/1/6 377/1/6 385/1/6
f 385/3/6 380/3/6 386/3/6
f 386/3/6 380/3/6 387/3/6
f 380/1/6 381/1/6 388/1/6
f 387/3/6 380/3/6 388/3/6
f 381/1/6 382/1/6 388/1/6
f 382/3/6 383/3/6 389/3/6
f 388/1/6 382/1/6 389/1/6
f 383/1/6 384/1/6 390/1/6
f 389/3/6 383/3/6 390/3/6
f 386/3/6 387/3/6 391/3/6
f 385/1/6 386/1/6 391/1/6
f 388/1/6 389/1/6 392/1/6
f 391/3/6 387/3/6 392/3/6
f 387/1/6 388/1/6 392/1/6
f 389/1/6 390/1/6 392/1/6
f 385/1/6 391/1/6 393/1/6
f 367/1/6 385/1/6 393/1/6
f 391/1/6 392/1/6 393/1/6
f 392/1/6 390/1/6 394/1/6
f 393/1/6 392/1/6 394/1/6
f 367/1/6 393/1/6 395/1/6
f 395/1/6 393/1/6 396/1/6
f 394/1/6 390/1/6 397/1/6
f 397/1/6 390/1/6 398/1/6
f 367/1/6 395/1/6 399/1/6
f 399/1/6 395/1/6 400/1/6
f 367/1/6 399/1/6 401/1/6
f 399/3/6 400/3/6 402/3/6
f 401/1/6 399/1/6 402/1/6
f 400/1/6 395/1/6 403/1/6
f 402/3/6 400/3/6 403/3/6
f 403/1/6 395/1/6 404/1/6
f 401/3/6 402/3/6 405/3/6
f 367/1/6 401/1/6 405/1/6
f 403/3/6 404/3/6 405/3/6
f 402/3/6 403/3/6 405/3/6
f 405/3/6 404/3/6 406/3/6
f 406/3/6 404/3/6 407/3/6
f 404/1/6 395/1/6 408/1/6
f 407/3/6 404/3/6 408/3/6
f 406/3/6 407/3/6 409/3/6
f 405/1/6 406/1/6 409/1/6
f 407/1/6 408/1/6 410/1/6
f 409/3/6 407/3/6 410/3/6
f 384/1/6 376/1/6 411/1/6
f 398/1/6 390/1/6 411/1/6
f 390/1/6 384/1/6 411/1/6
f 411/1/6 376/1/6 412/1/6
f 398/1/6 411/1/6 413/1/6
f 411/3/6 412/3/6 414/3/6
f 413/1/6 411/1/6 414/1/6
f 412/1/6 376/1/6 415/1/6
f 414/3/6 412/3/6 415/3/6
f 415/1/6 376/1/6 416/1/6
f 413/3/6 414/3/6 417/3/6
f 398/1/6 413/1/6 417/1/6
f 415/3/6 416/3/6 417/3/6
f 414/3/6 415/3/6 417/3/6
f 417/3/6 416/3/6 418/3/6
f 418/3/6 416/3/6 419/3/6
f 416/1/6 376/1/6 420/1/6
f 419/3/6 416/3/6 420/3/6
f 418/3/6 419/3/6 421/3/6
f 417/1/6 418/1/6 421/1/6
f 419/1/6 420/1/6 422/1/6
f 421/3/6 419/3/6 422/3/6
f 410/1/6 408/1/6 423/1/6
f 409/1/6 410/1/6 423/1/6
f 408/1/6 395/1/6 423/1/6
f 421/1/6 422/1/6 426/1/6
f 417/1/6 421/1/6 426/1/6
f 398/1/6 417/1/6 426/1/6
f 423/1/6 424/1/6 427/1/6
f 425/1/6 426/1/6 428/1/6
f 426/1/6 422/1/6 429/1/6
f 428/1/6 426/1/6 429/1/6
f 429/1/6 422/1/6 430/1/6
f 423/1/6 427/1/6 431/1/6
f 409/1/6 423/1/6 431/1/6
f 427/1/6 428/1/6 431/1/6
f 428/1/6 429/1/6 431/1/6
f 431/1/6 429/1/6 432/1/6
f 432/1/6 429/1/6 433/1/6
f 429/3/6 430/3/6 434/3/6
f 433/1/6 429/1/6 434/1/6
f 430/1/6 422/1/6 435/1/6
f 434/3/6 430/3/6 435/3/6
f 422/1/6 420/1/6 436/1/6
f 435/1/6 422/1/6 436/1/6
f 409/1/6 431/1/6 437/1/6
f 431/3/6 432/3/6 438/3/6
f 437/1/6 431/1/6 438/1/6
f 432/1/6 433/1/6 439/1/6
f 438/3/6 432/3/6 439/3/6
f 439/1/6 433/1/6 440/1/6
f 440/1/6 433/1/6 441/1/6
f 441/1/6 433/1/6 442/1/6
f 434/3/6 435/3/6 443/3/6
f 442/1/6 433/1/6 443/1/6
f 433/3/6 434/3/6 443/3/6
f 435/3/6 436/3/6 443/3/6
f 443/3/6 436/3/6 444/3/6
f 444/3/6 436/3/6 445/3/6
f 436/1/6 420/1/6 446/1/6
f 445/3/6 436/3/6 446/3/6
f 437/3/6 438/3/6 447/3/6
f 409/1/6 437/1/6 447/1/6
f 439/3/6 440/3/6 447/3/6
f 438/3/6 439/3/6 447/3/6
f 447/3/6 440/3/6 448/3/6
f 448/3/6 440/3/6 449/3/6
f 440/1/6 441/1/6 450/1/6
f 449/3/6 440/3/6 450/3/6
f 450/1/6 441/1/6 451/1/6
f 441/3/6 442/3/6 452/3/6
f 451/1/6 441/1/6 452/1/6
f 443/1/6 444/1/6 453/1/6
f 452/3/6 442/3/6 453/3/6
f 442/1/6 443/1/6 453/1/6
f 453/1/6 444/1/6 454/1/6
f 444/3/6 445/3/6 455/3/6
f 454/1/6 444/1/6 455/1/6
f 445/1/6 446/1/6 456/1/6
f 455/3/6 445/3/6 456/3/6
f 361/2/6 367/2/6 457/2/6
f 405/1/6 409/1/6 457/1/6
f 367/1/6 405/1/6 457/1/6
f 409/1/6 447/1/6 457/1/6
f 447/1/6 448/1/6 457/1/6
f 457/1/6 448/1/6 458/1/6
f 448/3/6 449/3/6 459/3/6
f 458/1/6 448/1/6 459/1/6
f 450/1/6 451/1/6 460/1/6
f 459/3/6 449/3/6 460/3/6
f 449/1/6 450/1/6 460/1/6
f 452/3/6 453/3/6 461/3/6
f 460/1/6 451/1/6 461/1/6
f 453/3/6 454/3/6 461/3/6
f 451/3/6 452/3/6 461/3/6
f 461/3/6 454/3/6 462/3/6
f 462/3/6 454/3/6 463/3/6
f 455/1/6 456/1/6 464/1/6
f 463/3/6 454/3/6 464/3/6
f 454/1/6 455/1/6 464/1/6
f 456/1/6 446/1/6 465/1/6
f 464/1/6 456/1/6 465/1/6
f 446/1/6 420/1/6 465/1/6
f 420/1/6 376/1/6 465/1/6
f 376/2/6 366/2/6 466/2/6
f 465/1/6 376/1/6 466/1/6
f 457/2/6 458/2/6 467/2/6
f 361/2/6 457/2/6 467/2/6
f 467/2/6 458/2/6 468/2/6
f 458/1/6 459/1/6 469/1/6
f 462/3/6 463/3/6 469/3/6
f 460/1/6 461/1/6 469/1/6
f 459/1/6 460/1/6 469/1/6
f 461/1/6 462/1/6 469/1/6
f 463/1/6 464/1/6 470/1/6
f 469/3/6 463/3/6 470/3/6
f 464/1/6 465/1/6 470/1/6
f 465/2/6 466/2/6 471/2/6
f 466/2/6 366/2/6 472/2/6
f 471/2/6 466/2/6 472/2/6
f 468/2/6 458/2/6 473/2/6
f 458/1/6 469/1/6 473/1/6
f 469/1/6 470/1/6 473/1/6
f 465/2/6 471/2/6 474/2/6
f 473/1/6 470/1/6 474/1/6
f 470/1/6 465/1/6 474/1/6
f 468/2/6 473/2/6 475/2/6
f 473/2/6 474/2/6 475/2/6
f 474/2/6 471/2/6 476/2/6
f 475/2/6 474/2/6 476/2/6
f 477/1/6 478/1/6 479/1/6
f 479/1/6 478/1/6 480/1/6
f 481/1/6 482/1/6 483/1/6
f 483/1/6 482/1/6 484/1/6
f 485/1/6 486/1/6 488/1/6
f 488/1/6 486/1/6 489/1/6
f 487/1/6 488/1/6 491/1/6
f 491/1/6 488/1/6 492/1/6
f 489/1/6 490/1/6 493/1/6
f 493/1/6 490/1/6 494/1/6
f 495/1/6 496/1/6 497/1/6
f 497/1/6 496/1/6 498/1/6
f 499/1/6 500/1/6 501/1/6
f 501/1/6 500/1/6 502/1/6
f 499/1/6 501/1/6 503/1/6
f 501/3/6 502/3/6 504/3/6
f 503/1/6 501/1/6 504/1/6
f 502/1/6 500/1/6 505/1/6
f 504/3/6 502/3/6 505/3/6
f 505/1/6 500/1/6 506/1/6
f 503/3/6 504/3/6 507/3/6
f 499/1/6 503/1/6 507/1/6
f 505/3/6 506/3/6 507/3/6
f 504/3/6 505/3/6 507/3/6
f 507/3/6 506/3/6 508/3/6
f 508/3/6 506/3/6 509/3/6
f 506/1/6 500/1/6 510/1/6
f 509/3/6 506/3/6 510/3/6
f 508/3/6 509/3/6 511/3/6
f 507/1/6 508/1/6 511/1/6
f 509/1/6 510/1/6 512/1/6
f 511/3/6 509/3/6 512/3/6
f 510/1/6 500/1/6 513/1/6
f 512/1/6 510/1/6 513/1/6
f 511/1/6 512/1/6 513/1/6
f 513/1/6 500/1/6 514/1/6
f 511/1/6 513/1/6 515/1/6
f 513/3/6 514/3/6 516/3/6
f 515/1/6 513/1/6 516/1/6
f 514/1/6 500/1/6 517/1/6
f 516/3/6 514/3/6 517/3/6
f 517/1/6 500/1/6 518/1/6
f 515/3/6 516/3/6 519/3/6
f 511/1/6 515/1/6 519/1/6
f 517/3/6 518/3/6 519/3/6
f 516/3/6 517/3/6 519/3/6
f 519/3/6 518/3/6 520/3/6
f 520/3/6 518/3/6 521/3/6
f 518/1/6 500/1/6 522/1/6
f 521/3/6 518/3/6 522/3/6
f 520/3/6 521/3/6 523/3/6
f 519/1/6 520/1/6 523/1/6
f 521/1/6 522/1/6 524/1/6
f 523/3/6 521/3/6 524/3/6
f 511/1/6 519/1/6 525/1/6
f 519/1/6 523/1/6 525/1/6
f 523/1/6 524/1/6 525/1/6
f 525/1/6 524/1/6 526/1/6
f 511/1/6 525/1/6 527/1/6
f 525/3/6 526/3/6 528/3/6
f 527/1/6 525/1/6 528/1/6
f 526/1/6 524/1/6 529/1/6
f 528/3/6 526/3/6 529/3/6
f 529/1/6 524/1/6 530/1/6
f 527/3/6 528/3/6 531/3/6
f 511/1/6 527/1/6 531/1/6
f 529/3/6 530/3/6 531/3/6
f 528/3/6 529/3/6 531/3/6
f 531/3/6 530/3/6 532/3/6
f 532/3/6 530/3/6 533/3/6
f 530/1/6 524/1/6 534/1/6
f 533/3/6 530/3/6 534/3/6
f 532/3/6 533/3/6 535/3/6
f 531/1/6 532/1/6 535/1/6
f 533/1/6 534/1/6 536/1/6
f 535/3/6 533/3/6 536/3/6
f 507/1/6 511/1/6 537/1/6
f 499/1/6 507/1/6 537/1/6
f 535/1/6 536/1/6 537/1/6
f 531/1/6 535/1/6 537/1/6
f 511/1/6 531/1/6 537/1/6
f 536/1/6 534/1/6 538/1/6
f 537/1/6 536/1/6 538/1/6
f 534/1/6 524/1/6 538/1/6
f 524/1/6 522/1/6 538/1/6
f 522/1/6 500/1/6 538/1/6
