# MagicaVoxel @ Ephtracy

# group
o 

# material
mtllib model.mtl
usemtl palette

# normals
vn -1 0 0
vn 1 0 0
vn 0 0 1
vn 0 0 -1
vn 0 -1 0
vn 0 1 0

# texcoords
vt 0.00195313 0.5
vt 0.0214844 0.5
vt 0.0292969 0.5
vt 0.513672 0.5
vt 0.642578 0.5
vt 0.650391 0.5

# verts
v -1.4 0 1.1
v -1.4 0 -1.1
v -1.4 0.2 1.4
v -1.4 0.2 1.1
v -1.4 0.2 -1.1
v -1.4 0.2 -1.4
v -1.4 0.4 0.8
v -1.4 0.4 -0.8
v -1.4 0.6 1.4
v -1.4 0.6 0.8
v -1.4 0.6 -0.8
v -1.4 0.6 -1.4
v -1.2 0.2 1.6
v -1.2 0.2 1.4
v -1.2 0.2 -1.4
v -1.2 0.2 -1.6
v -1.2 0.6 1.6
v -1.2 0.6 1.4
v -1.2 0.6 -1.4
v -1.2 0.6 -1.6
v -1 0.3 0.9
v -1 0.3 -0.9
v -1 0.5 1
v -1 0.5 0.9
v -1 0.5 -0.9
v -1 0.5 -1
v -1 0.9 1
v -1 0.9 -1
v -1 2.4 1
v -1 2.4 -1
v -0.8 0.5 1.2
v -0.8 0.5 1
v -0.8 0.5 -1
v -0.8 0.5 -1.2
v -0.8 0.9 1.2
v -0.8 0.9 1
v -0.8 0.9 -1
v -0.8 0.9 -1.2
v -0.8 2.4 1.2
v -0.8 2.4 1
v -0.8 2.4 -1
v -0.8 2.4 -1.2
v 0.5 0.5 1.4
v 0.5 0.5 1.2
v 0.5 0.6 1.4
v 0.5 0.8 1.6
v 0.5 0.8 1.4
v 0.5 0.9 1.2
v 0.5 1 1.6
v 0.5 1 1.4
v 0.5 1.1 1.8
v 0.5 1.1 1.4
v 0.5 1.3 1.8
v 0.5 1.3 1.5
v 0.5 1.4 1.9
v 0.5 1.4 1.5
v 0.5 1.4 1.3
v 0.5 1.4 1.2
v 0.5 1.6 1.9
v 0.5 1.6 1.7
v 0.5 1.7 2
v 0.5 1.7 1.7
v 0.5 1.7 1.5
v 0.5 1.7 1.3
v 0.5 1.9 2
v 0.5 1.9 1.5
v 0.6 2.3 1
v 0.6 2.3 0.8
v 0.6 2.3 -0.8
v 0.6 2.3 -1
v 0.6 2.4 1
v 0.6 2.4 0.8
v 0.6 2.4 -0.8
v 0.6 2.4 -1
v 0.8 2.3 0.8
v 0.8 2.3 -0.8
v 0.8 2.4 0.8
v 0.8 2.4 -0.8
v 1 0.5 1.4
v 1 0.5 1.2
v 1 0.5 -1.2
v 1 0.5 -1.4
v 1 0.6 1.4
v 1 0.6 1.2
v 1 0.6 -1.2
v 1 0.6 -1.4
v 1.1 0.3 0.9
v 1.1 0.3 -0.2
v 1.1 0.3 -0.9
v 1.1 0.5 1
v 1.1 0.5 0.9
v 1.1 0.5 -0.9
v 1.1 0.6 -0.2
v 1.1 0.6 -0.3
v 1.1 0.6 -0.8
v 1.1 0.6 -0.9
v 1.1 0.7 -0.3
v 1.1 0.7 -0.8
v 1.1 1 1
v 1.1 1 0.9
v 1.1 1 -0.1
v 1.1 1 -0.2
v 1.1 1.1 0.9
v 1.1 1.1 0.7
v 1.1 1.1 0.0999999
v 1.1 1.1 -0.1
v 1.1 1.2 0.7
v 1.1 1.2 0.0999999
v 1.2 0.5 1.2
v 1.2 0.5 1
v 1.2 0.5 -0.9
v 1.2 0.5 -1.2
v 1.2 0.6 1.2
v 1.2 0.6 1
v 1.2 0.6 -0.9
v 1.2 0.6 -1.2
v -1.2 0.3 0.9
v -1.2 0.3 -0.9
v -1.2 0.4 0.8
v -1.2 0.4 -0.8
v -1.2 0.5 1.2
v -1.2 0.5 0.9
v -1.2 0.5 -0.9
v -1.2 0.5 -1.2
v -1.2 0.6 1.2
v -1.2 0.6 0.8
v -1.2 0.6 -0.8
v -1.2 0.6 -1.2
v -1 0.5 1.4
v -1 0.5 1.2
v -1 0.5 -1.2
v -1 0.5 -1.4
v -1 0.6 1.4
v -1 0.6 1.2
v -1 0.6 -1.2
v -1 0.6 -1.4
v -0.8 2.3 0.8
v -0.8 2.3 -0.8
v -0.8 2.4 0.8
v -0.8 2.4 -0.8
v -0.6 2.3 1
v -0.6 2.3 0.8
v -0.6 2.3 -0.8
v -0.6 2.3 -1
v -0.6 2.4 1
v -0.6 2.4 0.8
v -0.6 2.4 -0.8
v -0.6 2.4 -1
v 0.6 0.5 1.4
v 0.6 0.5 1.2
v 0.6 0.6 1.4
v 0.6 0.8 1.6
v 0.6 0.8 1.4
v 0.6 0.9 1.2
v 0.6 1 1.6
v 0.6 1 1.4
v 0.6 1.1 1.8
v 0.6 1.1 1.4
v 0.6 1.3 1.8
v 0.6 1.3 1.5
v 0.6 1.4 1.9
v 0.6 1.4 1.5
v 0.6 1.4 1.3
v 0.6 1.4 1.2
v 0.6 1.6 1.9
v 0.6 1.6 1.7
v 0.6 1.7 2
v 0.6 1.7 1.7
v 0.6 1.7 1.5
v 0.6 1.7 1.3
v 0.6 1.9 2
v 0.6 1.9 1.5
v 0.8 0.5 1.2
v 0.8 0.5 1
v 0.8 0.5 -1
v 0.8 0.5 -1.2
v 0.8 0.9 1.2
v 0.8 0.9 1
v 0.8 0.9 -1
v 0.8 0.9 -1.2
v 0.8 2.4 1.2
v 0.8 2.4 1
v 0.8 2.4 -1
v 0.8 2.4 -1.2
v 1 0.3 0.9
v 1 0.3 -0.9
v 1 0.5 1
v 1 0.5 0.9
v 1 0.5 -0.9
v 1 0.5 -1
v 1 0.9 1
v 1 0.9 -1
v 1 2.4 1
v 1 2.4 -1
v 1.2 0.2 1.6
v 1.2 0.2 1.4
v 1.2 0.2 -1.4
v 1.2 0.2 -1.6
v 1.2 0.6 1.6
v 1.2 0.6 1.4
v 1.2 0.6 -1.4
v 1.2 0.6 -1.6
v 1.4 0 1.1
v 1.4 0 0.8
v 1.4 0 0.6
v 1.4 0 0.5
v 1.4 0 0.3
v 1.4 0 0.2
v 1.4 0 -2.38419e-07
v 1.4 0 -0.3
v 1.4 0 -0.4
v 1.4 0 -0.5
v 1.4 0 -0.6
v 1.4 0 -0.7
v 1.4 0 -0.8
v 1.4 0 -1.1
v 1.4 0.1 0.6
v 1.4 0.1 0.5
v 1.4 0.1 0.3
v 1.4 0.1 0.2
v 1.4 0.1 -0.4
v 1.4 0.1 -0.5
v 1.4 0.1 -0.6
v 1.4 0.1 -0.7
v 1.4 0.2 1.4
v 1.4 0.2 1.1
v 1.4 0.2 -0.2
v 1.4 0.2 -0.3
v 1.4 0.2 -0.5
v 1.4 0.2 -0.6
v 1.4 0.2 -0.8
v 1.4 0.2 -0.9
v 1.4 0.2 -1.1
v 1.4 0.2 -1.4
v 1.4 0.3 1
v 1.4 0.3 0.8
v 1.4 0.3 -2.38419e-07
v 1.4 0.3 -0.2
v 1.4 0.3 -0.3
v 1.4 0.3 -0.5
v 1.4 0.3 -0.6
v 1.4 0.3 -0.8
v 1.4 0.5 -0.3
v 1.4 0.5 -0.5
v 1.4 0.5 -0.6
v 1.4 0.5 -0.8
v 1.4 0.6 1.4
v 1.4 0.6 1
v 1.4 0.6 -0.9
v 1.4 0.6 -1.4
v 1.5 0 -0.3
v 1.5 0 -0.4
v 1.5 0 -0.5
v 1.5 0 -0.6
v 1.5 0 -0.7
v 1.5 0 -0.8
v 1.5 0.1 -0.4
v 1.5 0.1 -0.5
v 1.5 0.1 -0.6
v 1.5 0.1 -0.7
v 1.5 0.2 -0.2
v 1.5 0.2 -0.3
v 1.5 0.2 -0.5
v 1.5 0.2 -0.6
v 1.5 0.2 -0.8
v 1.5 0.2 -0.9
v 1.5 0.3 0.5
v 1.5 0.3 0.3
v 1.5 0.3 -0.2
v 1.5 0.3 -0.3
v 1.5 0.3 -0.5
v 1.5 0.3 -0.6
v 1.5 0.3 -0.8
v 1.5 0.4 0.5
v 1.5 0.4 0.3
v 1.5 0.5 0.9
v 1.5 0.5 0.5
v 1.5 0.5 0.3
v 1.5 0.5 -0.1
v 1.5 0.5 -0.3
v 1.5 0.5 -0.5
v 1.5 0.5 -0.6
v 1.5 0.5 -0.8
v 1.5 0.6 -0.2
v 1.5 0.6 -0.3
v 1.5 0.6 -0.8
v 1.5 0.6 -0.9
v 1.5 0.7 0.9
v 1.5 0.7 0.8
v 1.5 0.7 -2.38419e-07
v 1.5 0.7 -0.1
v 1.5 0.7 -0.3
v 1.5 0.7 -0.8
v 1.5 0.8 0.8
v 1.5 0.8 0.5
v 1.5 0.8 0.3
v 1.5 0.8 -2.38419e-07
v 1.6 0 0.8
v 1.6 0 0.6
v 1.6 0 0.5
v 1.6 0 0.3
v 1.6 0 0.2
v 1.6 0 -2.38419e-07
v 1.6 0.1 0.6
v 1.6 0.1 0.5
v 1.6 0.1 0.3
v 1.6 0.1 0.2
v 1.6 0.3 1
v 1.6 0.3 0.8
v 1.6 0.3 0.5
v 1.6 0.3 0.3
v 1.6 0.3 -2.38419e-07
v 1.6 0.3 -0.2
v 1.6 0.4 0.5
v 1.6 0.4 0.3
v 1.6 0.5 0.9
v 1.6 0.5 0.5
v 1.6 0.5 0.3
v 1.6 0.5 -0.1
v 1.6 0.7 0.9
v 1.6 0.7 0.8
v 1.6 0.7 -2.38419e-07
v 1.6 0.7 -0.1
v 1.6 0.8 0.8
v 1.6 0.8 0.5
v 1.6 0.8 0.3
v 1.6 0.8 -2.38419e-07
v 1.6 1 1
v 1.6 1 0.9
v 1.6 1 -0.1
v 1.6 1 -0.2
v 1.6 1.1 0.9
v 1.6 1.1 0.7
v 1.6 1.1 0.0999999
v 1.6 1.1 -0.1
v 1.6 1.2 0.7
v 1.6 1.2 0.0999999
v 0.5 1.7 2
v 0.5 1.9 2
v 0.6 1.7 2
v 0.6 1.9 2
v 0.5 1.4 1.9
v 0.5 1.6 1.9
v 0.6 1.4 1.9
v 0.6 1.6 1.9
v 0.5 1.1 1.8
v 0.5 1.3 1.8
v 0.6 1.1 1.8
v 0.6 1.3 1.8
v 0.5 1.6 1.7
v 0.5 1.7 1.7
v 0.6 1.6 1.7
v 0.6 1.7 1.7
v -1.2 0.2 1.6
v -1.2 0.6 1.6
v 0.5 0.8 1.6
v 0.5 1 1.6
v 0.6 0.8 1.6
v 0.6 1 1.6
v 1.2 0.2 1.6
v 1.2 0.6 1.6
v 0.5 1.3 1.5
v 0.5 1.4 1.5
v 0.6 1.3 1.5
v 0.6 1.4 1.5
v -1.4 0.2 1.4
v -1.4 0.6 1.4
v -1.2 0.2 1.4
v -1.2 0.6 1.4
v 0.5 0.6 1.4
v 0.5 0.8 1.4
v 0.5 1 1.4
v 0.5 1.1 1.4
v 0.6 0.6 1.4
v 0.6 0.8 1.4
v 0.6 1 1.4
v 0.6 1.1 1.4
v 1.2 0.2 1.4
v 1.2 0.6 1.4
v 1.4 0.2 1.4
v 1.4 0.6 1.4
v -0.8 0.5 1.2
v -0.8 0.9 1.2
v -0.8 2.4 1.2
v 0.5 0.5 1.2
v 0.5 0.9 1.2
v 0.5 1.4 1.2
v 0.6 0.5 1.2
v 0.6 0.9 1.2
v 0.6 1.4 1.2
v 0.8 0.5 1.2
v 0.8 0.9 1.2
v 0.8 2.4 1.2
v -1.4 0 1.1
v -1.4 0.2 1.1
v 1.4 0 1.1
v 1.4 0.2 1.1
v -1 0.5 1
v -1 0.9 1
v -1 2.4 1
v -0.8 0.5 1
v -0.8 0.9 1
v -0.8 2.4 1
v 0.8 0.5 1
v 0.8 0.9 1
v 0.8 2.4 1
v 1 0.5 1
v 1 0.9 1
v 1 2.4 1
v 1.1 0.5 1
v 1.1 1 1
v 1.2 0.5 1
v 1.2 0.6 1
v 1.4 0.3 1
v 1.4 0.6 1
v 1.6 0.3 1
v 1.6 1 1
v 1.1 1 0.9
v 1.1 1.1 0.9
v 1.6 1 0.9
v 1.6 1.1 0.9
v 1.4 0 0.8
v 1.4 0.3 0.8
v 1.6 0 0.8
v 1.6 0.3 0.8
v 1.1 1.1 0.7
v 1.1 1.2 0.7
v 1.6 1.1 0.7
v 1.6 1.2 0.7
v 1.4 0 0.5
v 1.4 0.1 0.5
v 1.5 0.5 0.5
v 1.5 0.8 0.5
v 1.6 0 0.5
v 1.6 0.1 0.5
v 1.6 0.5 0.5
v 1.6 0.8 0.5
v 1.5 0.3 0.3
v 1.5 0.4 0.3
v 1.6 0.3 0.3
v 1.6 0.4 0.3
v 1.4 0 0.2
v 1.4 0.1 0.2
v 1.6 0 0.2
v 1.6 0.1 0.2
v 1.5 0.7 -2.38419e-07
v 1.5 0.8 -2.38419e-07
v 1.6 0.7 -2.38419e-07
v 1.6 0.8 -2.38419e-07
v 1.5 0.5 -0.1
v 1.5 0.7 -0.1
v 1.6 0.5 -0.1
v 1.6 0.7 -0.1
v 1.4 0.2 -0.2
v 1.4 0.3 -0.2
v 1.5 0.2 -0.2
v 1.5 0.3 -0.2
v 1.1 0.6 -0.3
v 1.1 0.7 -0.3
v 1.4 0 -0.3
v 1.4 0.2 -0.3
v 1.5 0 -0.3
v 1.5 0.2 -0.3
v 1.5 0.6 -0.3
v 1.5 0.7 -0.3
v 1.4 0 -0.5
v 1.4 0.1 -0.5
v 1.4 0.3 -0.5
v 1.4 0.5 -0.5
v 1.5 0 -0.5
v 1.5 0.1 -0.5
v 1.5 0.3 -0.5
v 1.5 0.5 -0.5
v 1.4 0.2 -0.6
v 1.4 0.3 -0.6
v 1.5 0.2 -0.6
v 1.5 0.3 -0.6
v 1.4 0 -0.7
v 1.4 0.1 -0.7
v 1.5 0 -0.7
v 1.5 0.1 -0.7
v -1.4 0.4 -0.8
v -1.4 0.6 -0.8
v -1.2 0.4 -0.8
v -1.2 0.6 -0.8
v -0.8 2.3 -0.8
v -0.8 2.4 -0.8
v -0.6 2.3 -0.8
v -0.6 2.4 -0.8
v 0.6 2.3 -0.8
v 0.6 2.4 -0.8
v 0.8 2.3 -0.8
v 0.8 2.4 -0.8
v 1.4 0.3 -0.8
v 1.4 0.5 -0.8
v 1.5 0.3 -0.8
v 1.5 0.5 -0.8
v -1.2 0.3 -0.9
v -1.2 0.5 -0.9
v -1 0.3 -0.9
v -1 0.5 -0.9
v 1 0.3 -0.9
v 1 0.5 -0.9
v 1.1 0.3 -0.9
v 1.1 0.5 -0.9
v -0.6 2.3 -1
v -0.6 2.4 -1
v 0.6 2.3 -1
v 0.6 2.4 -1
v -1.2 0.5 -1.2
v -1.2 0.6 -1.2
v -1 0.5 -1.2
v -1 0.6 -1.2
v 1 0.5 -1.2
v 1 0.6 -1.2
v 1.2 0.5 -1.2
v 1.2 0.6 -1.2
v -1 0.5 -1.4
v -1 0.6 -1.4
v 1 0.5 -1.4
v 1 0.6 -1.4
v 0.5 1.7 1.5
v 0.5 1.9 1.5
v 0.6 1.7 1.5
v 0.6 1.9 1.5
v -1 0.5 1.4
v -1 0.6 1.4
v 0.5 0.5 1.4
v 0.5 0.6 1.4
v 0.6 0.5 1.4
v 0.6 0.6 1.4
v 1 0.5 1.4
v 1 0.6 1.4
v 0.5 1.4 1.3
v 0.5 1.7 1.3
v 0.6 1.4 1.3
v 0.6 1.7 1.3
v -1.2 0.5 1.2
v -1.2 0.6 1.2
v -1 0.5 1.2
v -1 0.6 1.2
v 1 0.5 1.2
v 1 0.6 1.2
v 1.2 0.5 1.2
v 1.2 0.6 1.2
v -0.6 2.3 1
v -0.6 2.4 1
v 0.6 2.3 1
v 0.6 2.4 1
v -1.2 0.3 0.9
v -1.2 0.5 0.9
v -1 0.3 0.9
v -1 0.5 0.9
v 1 0.3 0.9
v 1 0.5 0.9
v 1.1 0.3 0.9
v 1.1 0.5 0.9
v 1.5 0.5 0.9
v 1.5 0.7 0.9
v 1.6 0.5 0.9
v 1.6 0.7 0.9
v -1.4 0.4 0.8
v -1.4 0.6 0.8
v -1.2 0.4 0.8
v -1.2 0.6 0.8
v -0.8 2.3 0.8
v -0.8 2.4 0.8
v -0.6 2.3 0.8
v -0.6 2.4 0.8
v 0.6 2.3 0.8
v 0.6 2.4 0.8
v 0.8 2.3 0.8
v 0.8 2.4 0.8
v 1.5 0.7 0.8
v 1.5 0.8 0.8
v 1.6 0.7 0.8
v 1.6 0.8 0.8
v 1.4 0 0.6
v 1.4 0.1 0.6
v 1.6 0 0.6
v 1.6 0.1 0.6
v 1.5 0.3 0.5
v 1.5 0.4 0.5
v 1.6 0.3 0.5
v 1.6 0.4 0.5
v 1.4 0 0.3
v 1.4 0.1 0.3
v 1.5 0.5 0.3
v 1.5 0.8 0.3
v 1.6 0 0.3
v 1.6 0.1 0.3
v 1.6 0.5 0.3
v 1.6 0.8 0.3
v 1.1 1.1 0.0999999
v 1.1 1.2 0.0999999
v 1.6 1.1 0.0999999
v 1.6 1.2 0.0999999
v 1.4 0 -2.38419e-07
v 1.4 0.3 -2.38419e-07
v 1.6 0 -2.38419e-07
v 1.6 0.3 -2.38419e-07
v 1.1 1 -0.1
v 1.1 1.1 -0.1
v 1.6 1 -0.1
v 1.6 1.1 -0.1
v 1.1 0.6 -0.2
v 1.1 1 -0.2
v 1.5 0.3 -0.2
v 1.5 0.6 -0.2
v 1.6 0.3 -0.2
v 1.6 1 -0.2
v 1.4 0.3 -0.3
v 1.4 0.5 -0.3
v 1.5 0.3 -0.3
v 1.5 0.5 -0.3
v 1.4 0 -0.4
v 1.4 0.1 -0.4
v 1.5 0 -0.4
v 1.5 0.1 -0.4
v 1.4 0.2 -0.5
v 1.4 0.3 -0.5
v 1.5 0.2 -0.5
v 1.5 0.3 -0.5
v 1.4 0 -0.6
v 1.4 0.1 -0.6
v 1.4 0.3 -0.6
v 1.4 0.5 -0.6
v 1.5 0 -0.6
v 1.5 0.1 -0.6
v 1.5 0.3 -0.6
v 1.5 0.5 -0.6
v 1.1 0.6 -0.8
v 1.1 0.7 -0.8
v 1.4 0 -0.8
v 1.4 0.2 -0.8
v 1.5 0 -0.8
v 1.5 0.2 -0.8
v 1.5 0.6 -0.8
v 1.5 0.7 -0.8
v 1.1 0.5 -0.9
v 1.1 0.6 -0.9
v 1.2 0.5 -0.9
v 1.2 0.6 -0.9
v 1.4 0.2 -0.9
v 1.4 0.6 -0.9
v 1.5 0.2 -0.9
v 1.5 0.6 -0.9
v -1 0.5 -1
v -1 0.9 -1
v -1 2.4 -1
v -0.8 0.5 -1
v -0.8 0.9 -1
v -0.8 2.4 -1
v 0.8 0.5 -1
v 0.8 0.9 -1
v 0.8 2.4 -1
v 1 0.5 -1
v 1 0.9 -1
v 1 2.4 -1
v -1.4 0 -1.1
v -1.4 0.2 -1.1
v 1.4 0 -1.1
v 1.4 0.2 -1.1
v -0.8 0.5 -1.2
v -0.8 0.9 -1.2
v -0.8 2.4 -1.2
v 0.8 0.5 -1.2
v 0.8 0.9 -1.2
v 0.8 2.4 -1.2
v -1.4 0.2 -1.4
v -1.4 0.6 -1.4
v -1.2 0.2 -1.4
v -1.2 0.6 -1.4
v 1.2 0.2 -1.4
v 1.2 0.6 -1.4
v 1.4 0.2 -1.4
v 1.4 0.6 -1.4
v -1.2 0.2 -1.6
v -1.2 0.6 -1.6
v 1.2 0.2 -1.6
v 1.2 0.6 -1.6
v -1.4 0 1.1
v 1.4 0 1.1
v 1.4 0 0.8
v 1.6 0 0.8
v 1.4 0 0.6
v 1.6 0 0.6
v 1.4 0 0.5
v 1.6 0 0.5
v 1.4 0 0.3
v 1.6 0 0.3
v 1.4 0 0.2
v 1.6 0 0.2
v 1.4 0 -2.38419e-07
v 1.6 0 -2.38419e-07
v 1.4 0 -0.3
v 1.5 0 -0.3
v 1.4 0 -0.4
v 1.5 0 -0.4
v 1.4 0 -0.5
v 1.5 0 -0.5
v 1.4 0 -0.6
v 1.5 0 -0.6
v 1.4 0 -0.7
v 1.5 0 -0.7
v 1.4 0 -0.8
v 1.5 0 -0.8
v -1.4 0 -1.1
v 1.4 0 -1.1
v 1.4 0.1 0.6
v 1.6 0.1 0.6
v 1.4 0.1 0.5
v 1.6 0.1 0.5
v 1.4 0.1 0.3
v 1.6 0.1 0.3
v 1.4 0.1 0.2
v 1.6 0.1 0.2
v 1.4 0.1 -0.4
v 1.5 0.1 -0.4
v 1.4 0.1 -0.5
v 1.5 0.1 -0.5
v 1.4 0.1 -0.6
v 1.5 0.1 -0.6
v 1.4 0.1 -0.7
v 1.5 0.1 -0.7
v -1.2 0.2 1.6
v 1.2 0.2 1.6
v -1.4 0.2 1.4
v -1.2 0.2 1.4
v 1.2 0.2 1.4
v 1.4 0.2 1.4
v -1.4 0.2 1.1
v 1.4 0.2 1.1
v 1.4 0.2 -0.2
v 1.5 0.2 -0.2
v 1.4 0.2 -0.3
v 1.5 0.2 -0.3
v 1.4 0.2 -0.8
v 1.5 0.2 -0.8
v 1.4 0.2 -0.9
v 1.5 0.2 -0.9
v -1.4 0.2 -1.1
v 1.4 0.2 -1.1
v -1.4 0.2 -1.4
v -1.2 0.2 -1.4
v 1.2 0.2 -1.4
v 1.4 0.2 -1.4
v -1.2 0.2 -1.6
v 1.2 0.2 -1.6
v 1.4 0.3 1
v 1.6 0.3 1
v 1.4 0.3 0.8
v 1.6 0.3 0.8
v 1.4 0.3 -2.38419e-07
v 1.6 0.3 -2.38419e-07
v 1.4 0.3 -0.2
v 1.5 0.3 -0.2
v 1.6 0.3 -0.2
v 1.4 0.3 -0.5
v 1.5 0.3 -0.5
v 1.4 0.3 -0.6
v 1.5 0.3 -0.6
v 1.5 0.4 0.5
v 1.6 0.4 0.5
v 1.5 0.4 0.3
v 1.6 0.4 0.3
v 1.4 0.5 -0.3
v 1.5 0.5 -0.3
v 1.4 0.5 -0.5
v 1.5 0.5 -0.5
v 1.4 0.5 -0.6
v 1.5 0.5 -0.6
v 1.4 0.5 -0.8
v 1.5 0.5 -0.8
v 1.5 0.7 0.9
v 1.6 0.7 0.9
v 1.5 0.7 0.8
v 1.6 0.7 0.8
v 1.5 0.7 -2.38419e-07
v 1.6 0.7 -2.38419e-07
v 1.5 0.7 -0.1
v 1.6 0.7 -0.1
v 0.5 0.8 1.6
v 0.6 0.8 1.6
v 0.5 0.8 1.4
v 0.6 0.8 1.4
v 1.5 0.8 0.8
v 1.6 0.8 0.8
v 1.5 0.8 0.5
v 1.6 0.8 0.5
v 1.5 0.8 0.3
v 1.6 0.8 0.3
v 1.5 0.8 -2.38419e-07
v 1.6 0.8 -2.38419e-07
v 0.5 1.1 1.8
v 0.6 1.1 1.8
v 0.5 1.1 1.4
v 0.6 1.1 1.4
v 0.5 1.4 1.9
v 0.6 1.4 1.9
v 0.5 1.4 1.5
v 0.6 1.4 1.5
v 0.5 1.7 2
v 0.6 1.7 2
v 0.5 1.7 1.7
v 0.6 1.7 1.7
v 1.4 0.2 -0.5
v 1.5 0.2 -0.5
v 1.4 0.2 -0.6
v 1.5 0.2 -0.6
v -1.2 0.3 0.9
v -1 0.3 0.9
v 1 0.3 0.9
v 1.1 0.3 0.9
v 1.5 0.3 0.5
v 1.6 0.3 0.5
v 1.5 0.3 0.3
v 1.6 0.3 0.3
v 1.1 0.3 -0.2
v 1.4 0.3 -0.3
v 1.5 0.3 -0.3
v 1.4 0.3 -0.5
v 1.5 0.3 -0.5
v 1.4 0.3 -0.6
v 1.5 0.3 -0.6
v 1.4 0.3 -0.8
v 1.5 0.3 -0.8
v -1.2 0.3 -0.9
v -1 0.3 -0.9
v 1 0.3 -0.9
v 1.1 0.3 -0.9
v -1.4 0.4 0.8
v -1.2 0.4 0.8
v -1.4 0.4 -0.8
v -1.2 0.4 -0.8
v -1 0.5 1.4
v 0.5 0.5 1.4
v 0.6 0.5 1.4
v 1 0.5 1.4
v -1.2 0.5 1.2
v -1 0.5 1.2
v -0.8 0.5 1.2
v 0.5 0.5 1.2
v 0.6 0.5 1.2
v 0.8 0.5 1.2
v 1 0.5 1.2
v 1.2 0.5 1.2
v -1 0.5 1
v -0.8 0.5 1
v 0.8 0.5 1
v 1 0.5 1
v 1.1 0.5 1
v 1.2 0.5 1
v -1.2 0.5 0.9
v -1 0.5 0.9
v 1 0.5 0.9
v 1.1 0.5 0.9
v 1.5 0.5 0.9
v 1.6 0.5 0.9
v 1.5 0.5 0.5
v 1.6 0.5 0.5
v 1.5 0.5 0.3
v 1.6 0.5 0.3
v 1.5 0.5 -0.1
v 1.6 0.5 -0.1
v -1.2 0.5 -0.9
v -1 0.5 -0.9
v 1 0.5 -0.9
v 1.1 0.5 -0.9
v 1.2 0.5 -0.9
v -1 0.5 -1
v -0.8 0.5 -1
v 0.8 0.5 -1
v 1 0.5 -1
v -1.2 0.5 -1.2
v -1 0.5 -1.2
v -0.8 0.5 -1.2
v 0.8 0.5 -1.2
v 1 0.5 -1.2
v 1.2 0.5 -1.2
v -1 0.5 -1.4
v 1 0.5 -1.4
v -1.2 0.6 1.6
v 1.2 0.6 1.6
v -1.4 0.6 1.4
v -1.2 0.6 1.4
v -1 0.6 1.4
v 0.5 0.6 1.4
v 0.6 0.6 1.4
v 1 0.6 1.4
v 1.2 0.6 1.4
v 1.4 0.6 1.4
v -1.2 0.6 1.2
v -1 0.6 1.2
v 1 0.6 1.2
v 1.2 0.6 1.2
v 1.2 0.6 1
v 1.4 0.6 1
v -1.4 0.6 0.8
v -1.2 0.6 0.8
v 1.1 0.6 -0.2
v 1.5 0.6 -0.2
v 1.1 0.6 -0.3
v 1.5 0.6 -0.3
v -1.4 0.6 -0.8
v -1.2 0.6 -0.8
v 1.1 0.6 -0.8
v 1.5 0.6 -0.8
v 1.1 0.6 -0.9
v 1.2 0.6 -0.9
v 1.4 0.6 -0.9
v 1.5 0.6 -0.9
v -1.2 0.6 -1.2
v -1 0.6 -1.2
v 1 0.6 -1.2
v 1.2 0.6 -1.2
v -1.4 0.6 -1.4
v -1.2 0.6 -1.4
v -1 0.6 -1.4
v 1 0.6 -1.4
v 1.2 0.6 -1.4
v 1.4 0.6 -1.4
v -1.2 0.6 -1.6
v 1.2 0.6 -1.6
v 1.1 0.7 -0.3
v 1.5 0.7 -0.3
v 1.1 0.7 -0.8
v 1.5 0.7 -0.8
v 0.5 1 1.6
v 0.6 1 1.6
v 0.5 1 1.4
v 0.6 1 1.4
v 1.1 1 1
v 1.6 1 1
v 1.1 1 0.9
v 1.6 1 0.9
v 1.1 1 -0.1
v 1.6 1 -0.1
v 1.1 1 -0.2
v 1.6 1 -0.2
v 1.1 1.1 0.9
v 1.6 1.1 0.9
v 1.1 1.1 0.7
v 1.6 1.1 0.7
v 1.1 1.1 0.0999999
v 1.6 1.1 0.0999999
v 1.1 1.1 -0.1
v 1.6 1.1 -0.1
v 1.1 1.2 0.7
v 1.6 1.2 0.7
v 1.1 1.2 0.0999999
v 1.6 1.2 0.0999999
v 0.5 1.3 1.8
v 0.6 1.3 1.8
v 0.5 1.3 1.5
v 0.6 1.3 1.5
v 0.5 1.4 1.3
v 0.6 1.4 1.3
v 0.5 1.4 1.2
v 0.6 1.4 1.2
v 0.5 1.6 1.9
v 0.6 1.6 1.9
v 0.5 1.6 1.7
v 0.6 1.6 1.7
v 0.5 1.7 1.5
v 0.6 1.7 1.5
v 0.5 1.7 1.3
v 0.6 1.7 1.3
v 0.5 1.9 2
v 0.6 1.9 2
v 0.5 1.9 1.5
v 0.6 1.9 1.5
v -0.6 2.3 1
v 0.6 2.3 1
v -0.8 2.3 0.8
v -0.6 2.3 0.8
v 0.6 2.3 0.8
v 0.8 2.3 0.8
v -0.8 2.3 -0.8
v -0.6 2.3 -0.8
v 0.6 2.3 -0.8
v 0.8 2.3 -0.8
v -0.6 2.3 -1
v 0.6 2.3 -1
v -0.8 2.4 1.2
v 0.8 2.4 1.2
v -1 2.4 1
v -0.8 2.4 1
v -0.6 2.4 1
v 0.6 2.4 1
v 0.8 2.4 1
v 1 2.4 1
v -0.8 2.4 0.8
v -0.6 2.4 0.8
v 0.6 2.4 0.8
v 0.8 2.4 0.8
v -0.8 2.4 -0.8
v -0.6 2.4 -0.8
v 0.6 2.4 -0.8
v 0.8 2.4 -0.8
v -1 2.4 -1
v -0.8 2.4 -1
v -0.6 2.4 -1
v 0.6 2.4 -1
v 0.8 2.4 -1
v 1 2.4 -1
v -0.8 2.4 -1.2
v 0.8 2.4 -1.2

# faces
f 4/3/1 2/3/1 1/3/1
f 5/3/1 2/3/1 4/3/1
f 7/3/1 4/3/1 3/3/1
f 7/3/1 6/3/1 5/3/1
f 7/3/1 5/3/1 4/3/1
f 8/3/1 6/3/1 7/3/1
f 9/3/1 7/3/1 3/3/1
f 10/3/1 7/3/1 9/3/1
f 11/3/1 6/3/1 8/3/1
f 12/3/1 6/3/1 11/3/1
f 17/3/1 14/3/1 13/3/1
f 18/3/1 14/3/1 17/3/1
f 19/3/1 16/3/1 15/3/1
f 20/3/1 16/3/1 19/3/1
f 24/2/1 22/2/1 21/2/1
f 25/2/1 22/2/1 24/2/1
f 27/2/1 24/2/1 23/2/1
f 27/2/1 26/2/1 25/2/1
f 27/2/1 25/2/1 24/2/1
f 28/2/1 26/2/1 27/2/1
f 29/3/1 28/3/1 27/3/1
f 30/3/1 28/3/1 29/3/1
f 35/2/1 32/2/1 31/2/1
f 36/2/1 32/2/1 35/2/1
f 37/2/1 34/2/1 33/2/1
f 38/2/1 34/2/1 37/2/1
f 39/3/1 36/3/1 35/3/1
f 40/3/1 36/3/1 39/3/1
f 41/3/1 38/3/1 37/3/1
f 42/3/1 38/3/1 41/3/1
f 45/4/1 44/4/1 43/4/1
f 47/4/1 44/4/1 45/4/1
f 48/4/1 44/4/1 47/4/1
f 48/4/1 47/4/1 46/4/1
f 49/4/1 48/4/1 46/4/1
f 50/4/1 48/4/1 49/4/1
f 52/4/1 48/4/1 50/4/1
f 53/4/1 52/4/1 51/4/1
f 54/4/1 52/4/1 53/4/1
f 56/4/1 52/4/1 54/4/1
f 57/4/1 48/4/1 52/4/1
f 57/4/1 52/4/1 56/4/1
f 58/4/1 48/4/1 57/4/1
f 59/4/1 56/4/1 55/4/1
f 59/4/1 57/4/1 56/4/1
f 60/4/1 57/4/1 59/4/1
f 62/4/1 57/4/1 60/4/1
f 63/4/1 57/4/1 62/4/1
f 64/4/1 57/4/1 63/4/1
f 65/4/1 62/4/1 61/4/1
f 65/4/1 63/4/1 62/4/1
f 66/4/1 63/4/1 65/4/1
f 71/3/1 68/3/1 67/3/1
f 72/3/1 68/3/1 71/3/1
f 73/3/1 70/3/1 69/3/1
f 74/3/1 70/3/1 73/3/1
f 77/3/1 76/3/1 75/3/1
f 78/3/1 76/3/1 77/3/1
f 83/3/1 80/3/1 79/3/1
f 84/3/1 80/3/1 83/3/1
f 85/3/1 82/3/1 81/3/1
f 86/3/1 82/3/1 85/3/1
f 91/6/1 88/6/1 87/6/1
f 92/5/1 89/5/1 88/5/1
f 93/6/1 91/6/1 90/6/1
f 93/6/1 88/6/1 91/6/1
f 93/5/1 92/5/1 88/5/1
f 94/5/1 92/5/1 93/5/1
f 95/5/1 92/5/1 94/5/1
f 96/5/1 92/5/1 95/5/1
f 97/5/1 95/5/1 94/5/1
f 98/5/1 95/5/1 97/5/1
f 99/6/1 93/6/1 90/6/1
f 100/6/1 93/6/1 99/6/1
f 101/6/1 93/6/1 100/6/1
f 102/6/1 93/6/1 101/6/1
f 103/6/1 101/6/1 100/6/1
f 104/6/1 101/6/1 103/6/1
f 105/6/1 101/6/1 104/6/1
f 106/6/1 101/6/1 105/6/1
f 107/6/1 105/6/1 104/6/1
f 108/6/1 105/6/1 107/6/1
f 113/3/1 110/3/1 109/3/1
f 114/3/1 110/3/1 113/3/1
f 115/3/1 112/3/1 111/3/1
f 116/3/1 112/3/1 115/3/1
f 117/3/2 118/3/2 119/3/2
f 119/3/2 118/3/2 120/3/2
f 117/3/2 119/3/2 122/3/2
f 120/3/2 118/3/2 123/3/2
f 121/3/2 122/3/2 125/3/2
f 122/3/2 119/3/2 126/3/2
f 125/3/2 122/3/2 126/3/2
f 123/3/2 124/3/2 127/3/2
f 120/3/2 123/3/2 127/3/2
f 127/3/2 124/3/2 128/3/2
f 129/3/2 130/3/2 133/3/2
f 133/3/2 130/3/2 134/3/2
f 131/3/2 132/3/2 135/3/2
f 135/3/2 132/3/2 136/3/2
f 137/3/2 138/3/2 139/3/2
f 139/3/2 138/3/2 140/3/2
f 141/3/2 142/3/2 145/3/2
f 145/3/2 142/3/2 146/3/2
f 143/3/2 144/3/2 147/3/2
f 147/3/2 144/3/2 148/3/2
f 149/4/2 150/4/2 151/4/2
f 151/4/2 150/4/2 153/4/2
f 153/4/2 150/4/2 154/4/2
f 152/4/2 153/4/2 154/4/2
f 152/4/2 154/4/2 155/4/2
f 155/4/2 154/4/2 156/4/2
f 156/4/2 154/4/2 158/4/2
f 157/4/2 158/4/2 159/4/2
f 159/4/2 158/4/2 160/4/2
f 160/4/2 158/4/2 162/4/2
f 158/4/2 154/4/2 163/4/2
f 162/4/2 158/4/2 163/4/2
f 163/4/2 154/4/2 164/4/2
f 161/4/2 162/4/2 165/4/2
f 162/4/2 163/4/2 165/4/2
f 165/4/2 163/4/2 166/4/2
f 166/4/2 163/4/2 168/4/2
f 168/4/2 163/4/2 169/4/2
f 169/4/2 163/4/2 170/4/2
f 167/4/2 168/4/2 171/4/2
f 168/4/2 169/4/2 171/4/2
f 171/4/2 169/4/2 172/4/2
f 173/2/2 174/2/2 177/2/2
f 177/2/2 174/2/2 178/2/2
f 175/2/2 176/2/2 179/2/2
f 179/2/2 176/2/2 180/2/2
f 177/3/2 178/3/2 181/3/2
f 181/3/2 178/3/2 182/3/2
f 179/3/2 180/3/2 183/3/2
f 183/3/2 180/3/2 184/3/2
f 185/2/2 186/2/2 188/2/2
f 188/2/2 186/2/2 189/2/2
f 187/2/2 188/2/2 191/2/2
f 189/2/2 190/2/2 191/2/2
f 188/2/2 189/2/2 191/2/2
f 191/2/2 190/2/2 192/2/2
f 191/3/2 192/3/2 193/3/2
f 193/3/2 192/3/2 194/3/2
f 195/3/2 196/3/2 199/3/2
f 199/3/2 196/3/2 200/3/2
f 197/3/2 198/3/2 201/3/2
f 201/3/2 198/3/2 202/3/2
f 205/3/2 206/3/2 217/3/2
f 217/3/2 206/3/2 218/3/2
f 207/3/2 208/3/2 219/3/2
f 219/3/2 208/3/2 220/3/2
f 211/3/2 212/3/2 221/3/2
f 221/3/2 212/3/2 222/3/2
f 213/3/2 214/3/2 223/3/2
f 223/3/2 214/3/2 224/3/2
f 203/3/2 204/3/2 226/3/2
f 209/3/2 210/3/2 227/3/2
f 227/3/2 210/3/2 228/3/2
f 215/3/2 216/3/2 231/3/2
f 231/3/2 216/3/2 232/3/2
f 232/3/2 216/3/2 233/3/2
f 225/3/2 226/3/2 235/3/2
f 226/3/2 204/3/2 235/3/2
f 235/3/2 204/3/2 236/3/2
f 209/3/2 227/3/2 237/3/2
f 237/3/2 227/3/2 238/3/2
f 229/1/2 230/1/2 240/1/2
f 240/1/2 230/1/2 241/1/2
f 239/1/2 240/1/2 243/1/2
f 243/1/2 240/1/2 244/1/2
f 241/1/2 242/1/2 245/1/2
f 245/1/2 242/1/2 246/1/2
f 225/3/2 235/3/2 247/3/2
f 247/3/2 235/3/2 248/3/2
f 233/3/2 234/3/2 249/3/2
f 232/3/2 233/3/2 249/3/2
f 249/3/2 234/3/2 250/3/2
f 251/5/2 252/5/2 257/5/2
f 253/5/2 254/5/2 258/5/2
f 258/5/2 254/5/2 259/5/2
f 255/5/2 256/5/2 260/5/2
f 258/5/2 259/5/2 262/5/2
f 259/5/2 260/5/2 262/5/2
f 251/5/2 257/5/2 262/5/2
f 257/5/2 258/5/2 262/5/2
f 262/5/2 260/5/2 263/5/2
f 263/5/2 260/5/2 264/5/2
f 260/5/2 256/5/2 265/5/2
f 264/5/2 260/5/2 265/5/2
f 261/5/2 262/5/2 269/5/2
f 262/5/2 263/5/2 269/5/2
f 269/5/2 263/5/2 270/5/2
f 270/5/2 263/5/2 271/5/2
f 265/5/2 266/5/2 272/5/2
f 264/5/2 265/5/2 272/5/2
f 272/5/2 266/5/2 273/5/2
f 267/1/2 268/1/2 274/1/2
f 274/1/2 268/1/2 275/1/2
f 269/5/2 270/5/2 280/5/2
f 271/5/2 272/5/2 281/5/2
f 281/5/2 272/5/2 282/5/2
f 273/5/2 266/5/2 283/5/2
f 281/5/2 282/5/2 284/5/2
f 282/5/2 283/5/2 284/5/2
f 269/5/2 280/5/2 284/5/2
f 280/5/2 281/5/2 284/5/2
f 284/5/2 283/5/2 285/5/2
f 283/5/2 266/5/2 286/5/2
f 285/5/2 283/5/2 286/5/2
f 286/5/2 266/5/2 287/5/2
f 276/1/2 277/1/2 288/1/2
f 288/1/2 277/1/2 289/1/2
f 278/1/2 279/1/2 290/1/2
f 290/1/2 279/1/2 291/1/2
f 285/5/2 286/5/2 292/5/2
f 292/5/2 286/5/2 293/5/2
f 289/1/2 277/1/2 294/1/2
f 294/1/2 277/1/2 295/1/2
f 278/1/2 290/1/2 296/1/2
f 296/1/2 290/1/2 297/1/2
f 298/6/2 299/6/2 304/6/2
f 300/6/2 301/6/2 305/6/2
f 305/6/2 301/6/2 306/6/2
f 302/6/2 303/6/2 307/6/2
f 305/6/2 306/6/2 309/6/2
f 306/6/2 307/6/2 309/6/2
f 298/6/2 304/6/2 309/6/2
f 304/6/2 305/6/2 309/6/2
f 309/6/2 307/6/2 310/6/2
f 310/6/2 307/6/2 311/6/2
f 307/6/2 303/6/2 312/6/2
f 311/6/2 307/6/2 312/6/2
f 308/6/2 309/6/2 314/6/2
f 309/6/2 310/6/2 314/6/2
f 312/6/2 313/6/2 315/6/2
f 311/6/2 312/6/2 315/6/2
f 308/6/2 314/6/2 316/6/2
f 314/6/2 315/6/2 316/6/2
f 316/6/2 315/6/2 317/6/2
f 315/6/2 313/6/2 318/6/2
f 317/6/2 315/6/2 318/6/2
f 318/6/2 313/6/2 319/6/2
f 308/6/2 316/6/2 320/6/2
f 319/6/2 313/6/2 323/6/2
f 320/6/2 321/6/2 324/6/2
f 317/6/2 318/6/2 325/6/2
f 325/6/2 318/6/2 326/6/2
f 322/6/2 323/6/2 327/6/2
f 325/6/2 326/6/2 328/6/2
f 326/6/2 327/6/2 328/6/2
f 320/6/2 324/6/2 328/6/2
f 308/6/2 320/6/2 328/6/2
f 324/6/2 325/6/2 328/6/2
f 328/6/2 327/6/2 329/6/2
f 327/6/2 323/6/2 330/6/2
f 329/6/2 327/6/2 330/6/2
f 323/6/2 313/6/2 330/6/2
f 330/6/2 313/6/2 331/6/2
f 329/6/2 330/6/2 332/6/2
f 332/6/2 330/6/2 333/6/2
f 333/6/2 330/6/2 334/6/2
f 334/6/2 330/6/2 335/6/2
f 333/6/2 334/6/2 336/6/2
f 336/6/2 334/6/2 337/6/2
f 340/4/3 339/4/3 338/4/3
f 341/4/3 339/4/3 340/4/3
f 344/4/3 343/4/3 342/4/3
f 345/4/3 343/4/3 344/4/3
f 348/4/3 347/4/3 346/4/3
f 349/4/3 347/4/3 348/4/3
f 352/4/3 351/4/3 350/4/3
f 353/4/3 351/4/3 352/4/3
f 358/4/3 357/4/3 356/4/3
f 359/4/3 357/4/3 358/4/3
f 360/3/3 355/3/3 354/3/3
f 361/3/3 355/3/3 360/3/3
f 364/4/3 363/4/3 362/4/3
f 365/4/3 363/4/3 364/4/3
f 368/3/3 367/3/3 366/3/3
f 369/3/3 367/3/3 368/3/3
f 374/4/3 371/4/3 370/4/3
f 375/4/3 371/4/3 374/4/3
f 376/4/3 373/4/3 372/4/3
f 377/4/3 373/4/3 376/4/3
f 380/3/3 379/3/3 378/3/3
f 381/3/3 379/3/3 380/3/3
f 385/2/3 383/2/3 382/2/3
f 386/3/3 384/3/3 383/3/3
f 386/2/3 383/2/3 385/2/3
f 387/3/3 384/3/3 386/3/3
f 390/3/3 384/3/3 387/3/3
f 391/2/3 389/2/3 388/2/3
f 392/3/3 390/3/3 389/3/3
f 392/2/3 389/2/3 391/2/3
f 393/3/3 384/3/3 390/3/3
f 393/3/3 390/3/3 392/3/3
f 396/3/3 395/3/3 394/3/3
f 397/3/3 395/3/3 396/3/3
f 401/2/3 399/2/3 398/2/3
f 402/3/3 400/3/3 399/3/3
f 402/2/3 399/2/3 401/2/3
f 403/3/3 400/3/3 402/3/3
f 407/2/3 405/2/3 404/2/3
f 408/3/3 406/3/3 405/3/3
f 408/2/3 405/2/3 407/2/3
f 409/3/3 406/3/3 408/3/3
f 412/6/3 411/6/3 410/6/3
f 413/6/3 411/6/3 412/6/3
f 415/6/3 411/6/3 413/6/3
f 416/6/3 415/6/3 414/6/3
f 417/6/3 411/6/3 415/6/3
f 417/6/3 415/6/3 416/6/3
f 420/6/3 419/6/3 418/6/3
f 421/6/3 419/6/3 420/6/3
f 424/6/3 423/6/3 422/6/3
f 425/6/3 423/6/3 424/6/3
f 428/6/3 427/6/3 426/6/3
f 429/6/3 427/6/3 428/6/3
f 434/6/3 431/6/3 430/6/3
f 435/6/3 431/6/3 434/6/3
f 436/6/3 433/6/3 432/6/3
f 437/6/3 433/6/3 436/6/3
f 440/6/3 439/6/3 438/6/3
f 441/6/3 439/6/3 440/6/3
f 444/6/3 443/6/3 442/6/3
f 445/6/3 443/6/3 444/6/3
f 448/6/3 447/6/3 446/6/3
f 449/6/3 447/6/3 448/6/3
f 452/6/3 451/6/3 450/6/3
f 453/6/3 451/6/3 452/6/3
f 456/5/3 455/5/3 454/5/3
f 457/5/3 455/5/3 456/5/3
f 462/5/3 461/5/3 460/5/3
f 463/5/3 461/5/3 462/5/3
f 464/5/3 459/5/3 458/5/3
f 465/5/3 459/5/3 464/5/3
f 470/5/3 467/5/3 466/5/3
f 471/5/3 467/5/3 470/5/3
f 472/5/3 469/5/3 468/5/3
f 473/5/3 469/5/3 472/5/3
f 476/5/3 475/5/3 474/5/3
f 477/5/3 475/5/3 476/5/3
f 480/5/3 479/5/3 478/5/3
f 481/5/3 479/5/3 480/5/3
f 484/3/3 483/3/3 482/3/3
f 485/3/3 483/3/3 484/3/3
f 488/3/3 487/3/3 486/3/3
f 489/3/3 487/3/3 488/3/3
f 492/3/3 491/3/3 490/3/3
f 493/3/3 491/3/3 492/3/3
f 496/5/3 495/5/3 494/5/3
f 497/5/3 495/5/3 496/5/3
f 500/3/3 499/3/3 498/3/3
f 501/3/3 499/3/3 500/3/3
f 504/3/3 503/3/3 502/3/3
f 505/3/3 503/3/3 504/3/3
f 508/3/3 507/3/3 506/3/3
f 509/3/3 507/3/3 508/3/3
f 512/3/3 511/3/3 510/3/3
f 513/3/3 511/3/3 512/3/3
f 516/3/3 515/3/3 514/3/3
f 517/3/3 515/3/3 516/3/3
f 520/3/3 519/3/3 518/3/3
f 521/3/3 519/3/3 520/3/3
f 522/4/4 523/4/4 524/4/4
f 524/4/4 523/4/4 525/4/4
f 526/3/4 527/3/4 528/3/4
f 528/3/4 527/3/4 529/3/4
f 530/3/4 531/3/4 532/3/4
f 532/3/4 531/3/4 533/3/4
f 534/4/4 535/4/4 536/4/4
f 536/4/4 535/4/4 537/4/4
f 538/3/4 539/3/4 540/3/4
f 540/3/4 539/3/4 541/3/4
f 542/3/4 543/3/4 544/3/4
f 544/3/4 543/3/4 545/3/4
f 546/3/4 547/3/4 548/3/4
f 548/3/4 547/3/4 549/3/4
f 550/3/4 551/3/4 552/3/4
f 552/3/4 551/3/4 553/3/4
f 554/3/4 555/3/4 556/3/4
f 556/3/4 555/3/4 557/3/4
f 558/6/4 559/6/4 560/6/4
f 560/6/4 559/6/4 561/6/4
f 562/3/4 563/3/4 564/3/4
f 564/3/4 563/3/4 565/3/4
f 566/3/4 567/3/4 568/3/4
f 568/3/4 567/3/4 569/3/4
f 570/3/4 571/3/4 572/3/4
f 572/3/4 571/3/4 573/3/4
f 574/6/4 575/6/4 576/6/4
f 576/6/4 575/6/4 577/6/4
f 578/6/4 579/6/4 580/6/4
f 580/6/4 579/6/4 581/6/4
f 582/6/4 583/6/4 584/6/4
f 584/6/4 583/6/4 585/6/4
f 586/6/4 587/6/4 590/6/4
f 590/6/4 587/6/4 591/6/4
f 588/6/4 589/6/4 592/6/4
f 592/6/4 589/6/4 593/6/4
f 594/6/4 595/6/4 596/6/4
f 596/6/4 595/6/4 597/6/4
f 598/6/4 599/6/4 600/6/4
f 600/6/4 599/6/4 601/6/4
f 602/6/4 603/6/4 604/6/4
f 604/6/4 603/6/4 605/6/4
f 606/6/4 607/6/4 609/6/4
f 608/6/4 609/6/4 610/6/4
f 609/6/4 607/6/4 611/6/4
f 610/6/4 609/6/4 611/6/4
f 612/5/4 613/5/4 614/5/4
f 614/5/4 613/5/4 615/5/4
f 616/5/4 617/5/4 618/5/4
f 618/5/4 617/5/4 619/5/4
f 620/5/4 621/5/4 622/5/4
f 622/5/4 621/5/4 623/5/4
f 624/5/4 625/5/4 628/5/4
f 628/5/4 625/5/4 629/5/4
f 626/5/4 627/5/4 630/5/4
f 630/5/4 627/5/4 631/5/4
f 634/5/4 635/5/4 636/5/4
f 636/5/4 635/5/4 637/5/4
f 632/5/4 633/5/4 638/5/4
f 638/5/4 633/5/4 639/5/4
f 640/5/4 641/5/4 642/5/4
f 642/5/4 641/5/4 643/5/4
f 644/5/4 645/5/4 646/5/4
f 646/5/4 645/5/4 647/5/4
f 648/2/4 649/2/4 651/2/4
f 649/3/4 650/3/4 652/3/4
f 651/2/4 649/2/4 652/2/4
f 652/3/4 650/3/4 653/3/4
f 654/2/4 655/2/4 657/2/4
f 655/3/4 656/3/4 658/3/4
f 657/2/4 655/2/4 658/2/4
f 658/3/4 656/3/4 659/3/4
f 660/3/4 661/3/4 662/3/4
f 662/3/4 661/3/4 663/3/4
f 664/2/4 665/2/4 667/2/4
f 665/3/4 666/3/4 668/3/4
f 667/2/4 665/2/4 668/2/4
f 668/3/4 666/3/4 669/3/4
f 670/3/4 671/3/4 672/3/4
f 672/3/4 671/3/4 673/3/4
f 674/3/4 675/3/4 676/3/4
f 676/3/4 675/3/4 677/3/4
f 678/3/4 679/3/4 680/3/4
f 680/3/4 679/3/4 681/3/4
f 684/3/5 683/3/5 682/3/5
f 686/3/5 684/3/5 682/3/5
f 686/6/5 685/6/5 684/6/5
f 687/6/5 685/6/5 686/6/5
f 688/3/5 686/3/5 682/3/5
f 690/3/5 688/3/5 682/3/5
f 690/6/5 689/6/5 688/6/5
f 691/6/5 689/6/5 690/6/5
f 692/3/5 690/3/5 682/3/5
f 694/3/5 692/3/5 682/3/5
f 694/6/5 693/6/5 692/6/5
f 695/6/5 693/6/5 694/6/5
f 696/3/5 694/3/5 682/3/5
f 698/3/5 696/3/5 682/3/5
f 698/5/5 697/5/5 696/5/5
f 699/5/5 697/5/5 698/5/5
f 700/3/5 698/3/5 682/3/5
f 702/3/5 700/3/5 682/3/5
f 702/5/5 701/5/5 700/5/5
f 703/5/5 701/5/5 702/5/5
f 704/3/5 702/3/5 682/3/5
f 706/3/5 704/3/5 682/3/5
f 706/5/5 705/5/5 704/5/5
f 707/5/5 705/5/5 706/5/5
f 708/3/5 706/3/5 682/3/5
f 709/3/5 706/3/5 708/3/5
f 712/6/5 711/6/5 710/6/5
f 713/6/5 711/6/5 712/6/5
f 716/6/5 715/6/5 714/6/5
f 717/6/5 715/6/5 716/6/5
f 720/5/5 719/5/5 718/5/5
f 721/5/5 719/5/5 720/5/5
f 724/5/5 723/5/5 722/5/5
f 725/5/5 723/5/5 724/5/5
f 729/3/5 727/3/5 726/3/5
f 730/3/5 727/3/5 729/3/5
f 732/3/5 729/3/5 728/3/5
f 732/3/5 731/3/5 730/3/5
f 732/3/5 730/3/5 729/3/5
f 733/3/5 731/3/5 732/3/5
f 736/5/5 735/5/5 734/5/5
f 737/5/5 735/5/5 736/5/5
f 740/5/5 739/5/5 738/5/5
f 741/5/5 739/5/5 740/5/5
f 744/3/5 743/3/5 742/3/5
f 745/3/5 743/3/5 744/3/5
f 746/3/5 743/3/5 745/3/5
f 747/3/5 743/3/5 746/3/5
f 748/3/5 746/3/5 745/3/5
f 749/3/5 746/3/5 748/3/5
f 752/6/5 751/6/5 750/6/5
f 753/6/5 751/6/5 752/6/5
f 756/6/5 755/6/5 754/6/5
f 757/6/5 755/6/5 756/6/5
f 758/6/5 755/6/5 757/6/5
f 761/5/5 760/5/5 759/5/5
f 762/5/5 760/5/5 761/5/5
f 765/6/5 764/6/5 763/6/5
f 766/6/5 764/6/5 765/6/5
f 769/5/5 768/5/5 767/5/5
f 770/5/5 768/5/5 769/5/5
f 773/5/5 772/5/5 771/5/5
f 774/5/5 772/5/5 773/5/5
f 777/6/5 776/6/5 775/6/5
f 778/6/5 776/6/5 777/6/5
f 781/6/5 780/6/5 779/6/5
f 782/6/5 780/6/5 781/6/5
f 785/4/5 784/4/5 783/4/5
f 786/4/5 784/4/5 785/4/5
f 789/6/5 788/6/5 787/6/5
f 790/6/5 788/6/5 789/6/5
f 793/6/5 792/6/5 791/6/5
f 794/6/5 792/6/5 793/6/5
f 797/4/5 796/4/5 795/4/5
f 798/4/5 796/4/5 797/4/5
f 801/4/5 800/4/5 799/4/5
f 802/4/5 800/4/5 801/4/5
f 805/4/5 804/4/5 803/4/5
f 806/4/5 804/4/5 805/4/5
f 807/5/6 808/5/6 809/5/6
f 809/5/6 808/5/6 810/5/6
f 815/6/6 816/6/6 817/6/6
f 817/6/6 816/6/6 818/6/6
f 813/3/6 814/3/6 819/3/6
f 820/5/6 821/5/6 822/5/6
f 822/5/6 821/5/6 823/5/6
f 824/5/6 825/5/6 826/5/6
f 826/5/6 825/5/6 827/5/6
f 811/3/6 812/3/6 828/3/6
f 828/3/6 812/3/6 829/3/6
f 813/3/6 819/3/6 830/3/6
f 830/3/6 819/3/6 831/3/6
f 832/3/6 833/3/6 834/3/6
f 834/3/6 833/3/6 835/3/6
f 836/3/6 837/3/6 841/3/6
f 841/3/6 837/3/6 842/3/6
f 842/3/6 837/3/6 843/3/6
f 838/3/6 839/3/6 844/3/6
f 844/3/6 839/3/6 845/3/6
f 845/3/6 839/3/6 846/3/6
f 840/3/6 841/3/6 848/3/6
f 841/3/6 842/3/6 848/3/6
f 848/3/6 842/3/6 849/3/6
f 846/3/6 847/3/6 850/3/6
f 845/3/6 846/3/6 850/3/6
f 850/3/6 847/3/6 851/3/6
f 851/3/6 847/3/6 852/3/6
f 852/3/6 847/3/6 853/3/6
f 840/3/6 848/3/6 854/3/6
f 854/3/6 848/3/6 855/3/6
f 851/3/6 852/3/6 856/3/6
f 856/3/6 852/3/6 857/3/6
f 858/6/6 859/6/6 860/6/6
f 860/6/6 859/6/6 861/6/6
f 862/6/6 863/6/6 864/6/6
f 864/6/6 863/6/6 865/6/6
f 866/3/6 867/3/6 871/3/6
f 869/3/6 870/3/6 874/3/6
f 868/3/6 869/3/6 874/3/6
f 871/3/6 872/3/6 875/3/6
f 866/3/6 871/3/6 875/3/6
f 875/3/6 872/3/6 876/3/6
f 876/3/6 872/3/6 877/3/6
f 873/3/6 874/3/6 878/3/6
f 874/3/6 870/3/6 879/3/6
f 878/3/6 874/3/6 879/3/6
f 879/3/6 870/3/6 880/3/6
f 876/3/6 877/3/6 881/3/6
f 877/3/6 878/3/6 881/3/6
f 878/3/6 879/3/6 881/3/6
f 881/3/6 879/3/6 882/3/6
f 883/3/6 884/3/6 886/3/6
f 886/3/6 884/3/6 887/3/6
f 887/3/6 884/3/6 888/3/6
f 888/3/6 884/3/6 889/3/6
f 889/3/6 884/3/6 890/3/6
f 890/3/6 884/3/6 891/3/6
f 885/3/6 886/3/6 893/3/6
f 886/3/6 887/3/6 893/3/6
f 893/3/6 887/3/6 894/3/6
f 891/3/6 892/3/6 895/3/6
f 890/3/6 891/3/6 895/3/6
f 895/3/6 892/3/6 896/3/6
f 896/3/6 892/3/6 897/3/6
f 897/3/6 892/3/6 898/3/6
f 885/3/6 893/3/6 899/3/6
f 899/3/6 893/3/6 900/3/6
f 901/5/6 902/5/6 903/5/6
f 903/5/6 902/5/6 904/5/6
f 907/5/6 908/5/6 909/5/6
f 909/5/6 908/5/6 910/5/6
f 910/5/6 908/5/6 911/5/6
f 911/5/6 908/5/6 912/5/6
f 905/3/6 906/3/6 913/3/6
f 910/3/6 911/3/6 916/3/6
f 913/3/6 914/3/6 917/3/6
f 905/3/6 913/3/6 917/3/6
f 917/3/6 914/3/6 918/3/6
f 918/3/6 914/3/6 919/3/6
f 915/3/6 916/3/6 920/3/6
f 916/3/6 911/3/6 921/3/6
f 920/3/6 916/3/6 921/3/6
f 921/3/6 911/3/6 922/3/6
f 918/3/6 919/3/6 923/3/6
f 919/3/6 920/3/6 923/3/6
f 920/3/6 921/3/6 923/3/6
f 923/3/6 921/3/6 924/3/6
f 925/5/6 926/5/6 927/5/6
f 927/5/6 926/5/6 928/5/6
f 929/4/6 930/4/6 931/4/6
f 931/4/6 930/4/6 932/4/6
f 933/6/6 934/6/6 935/6/6
f 935/6/6 934/6/6 936/6/6
f 937/6/6 938/6/6 939/6/6
f 939/6/6 938/6/6 940/6/6
f 941/6/6 942/6/6 943/6/6
f 943/6/6 942/6/6 944/6/6
f 945/6/6 946/6/6 947/6/6
f 947/6/6 946/6/6 948/6/6
f 949/6/6 950/6/6 951/6/6
f 951/6/6 950/6/6 952/6/6
f 953/4/6 954/4/6 955/4/6
f 955/4/6 954/4/6 956/4/6
f 957/4/6 958/4/6 959/4/6
f 959/4/6 958/4/6 960/4/6
f 961/4/6 962/4/6 963/4/6
f 963/4/6 962/4/6 964/4/6
f 965/4/6 966/4/6 967/4/6
f 967/4/6 966/4/6 968/4/6
f 969/4/6 970/4/6 971/4/6
f 971/4/6 970/4/6 972/4/6
f 973/3/6 974/3/6 976/3/6
f 976/3/6 974/3/6 977/3/6
f 975/3/6 976/3/6 979/3/6
f 977/3/6 978/3/6 979/3/6
f 976/3/6 977/3/6 979/3/6
f 979/3/6 978/3/6 980/3/6
f 980/3/6 978/3/6 981/3/6
f 981/3/6 978/3/6 982/3/6
f 980/3/6 981/3/6 983/3/6
f 983/3/6 981/3/6 984/3/6
f 985/3/6 986/3/6 988/3/6
f 988/3/6 986/3/6 989/3/6
f 989/3/6 986/3/6 990/3/6
f 990/3/6 986/3/6 991/3/6
f 987/3/6 988/3/6 993/3/6
f 988/3/6 989/3/6 993/3/6
f 993/3/6 989/3/6 994/3/6
f 991/3/6 992/3/6 995/3/6
f 990/3/6 991/3/6 995/3/6
f 995/3/6 992/3/6 996/3/6
f 987/3/6 993/3/6 997/3/6
f 996/3/6 992/3/6 1000/3/6
f 997/3/6 998/3/6 1001/3/6
f 987/3/6 997/3/6 1001/3/6
f 1001/3/6 998/3/6 1002/3/6
f 1002/3/6 998/3/6 1003/3/6
f 999/3/6 1000/3/6 1004/3/6
f 1000/3/6 992/3/6 1005/3/6
f 1004/3/6 1000/3/6 1005/3/6
f 1005/3/6 992/3/6 1006/3/6
f 1002/3/6 1003/3/6 1007/3/6
f 1003/3/6 1004/3/6 1007/3/6
f 1004/3/6 1005/3/6 1007/3/6
f 1007/3/6 1005/3/6 1008/3/6
