# MagicaVoxel @ Ephtracy

# group
o 

# material
mtllib model.mtl
usemtl palette

# normals
vn -1 0 0
vn 1 0 0
vn 0 0 1
vn 0 0 -1
vn 0 -1 0
vn 0 1 0

# texcoords
vt 0.0292969 0.5
vt 0.533203 0.5
vt 0.537109 0.5
vt 0.814453 0.5
vt 0.822266 0.5

# verts
v -0.1 0 0.1
v -0.1 0 -0.1
v -0.1 0.3 0.1
v -0.1 0.3 -0.1
v -0.1 0.4 0.1
v -0.1 0.4 -0.1
v -0.1 0.7 0.7
v -0.1 0.7 0.4
v -0.1 0.7 -0.4
v -0.1 0.7 -0.7
v -0.1 1 0.8
v -0.1 1 0.7
v -0.1 1 -0.7
v -0.1 1 -0.8
v -0.1 1.1 0.8
v -0.1 1.1 0.7
v -0.1 1.1 0.6
v -0.1 1.1 0.5
v -0.1 1.1 -0.5
v -0.1 1.1 -0.6
v -0.1 1.1 -0.7
v -0.1 1.1 -0.8
v -0.1 1.2 0.9
v -0.1 1.2 0.7
v -0.1 1.2 0.6
v -0.1 1.2 0.5
v -0.1 1.2 -0.5
v -0.1 1.2 -0.6
v -0.1 1.2 -0.7
v -0.1 1.2 -0.9
v -0.1 1.3 0.9
v -0.1 1.3 0.4
v -0.1 1.3 -0.4
v -0.1 1.3 -0.9
v -0.1 1.5 1
v -0.1 1.5 0.9
v -0.1 1.5 -0.9
v -0.1 1.5 -1
v -0.1 1.7 1
v -0.1 1.7 0.9
v -0.1 1.7 0.3
v -0.1 1.7 -0.3
v -0.1 1.7 -0.9
v -0.1 1.7 -1
v -0.1 1.8 0.9
v -0.1 1.8 0.3
v -0.1 1.8 -0.3
v -0.1 1.8 -0.9
v 0 0 0.1
v 0 0 -0.1
v 0 0.3 0.1
v 0 0.3 -0.1
v 0 0.4 0.1
v 0 0.4 -0.1
v 0 0.7 0.7
v 0 0.7 0.4
v 0 0.7 -0.4
v 0 0.7 -0.7
v 0 1 0.8
v 0 1 0.7
v 0 1 -0.7
v 0 1 -0.8
v 0 1.1 0.8
v 0 1.1 0.7
v 0 1.1 0.6
v 0 1.1 0.5
v 0 1.1 -0.5
v 0 1.1 -0.6
v 0 1.1 -0.7
v 0 1.1 -0.8
v 0 1.2 0.9
v 0 1.2 0.7
v 0 1.2 0.6
v 0 1.2 0.5
v 0 1.2 -0.5
v 0 1.2 -0.6
v 0 1.2 -0.7
v 0 1.2 -0.9
v 0 1.3 0.9
v 0 1.3 0.4
v 0 1.3 -0.4
v 0 1.3 -0.9
v 0.1 1.5 1
v 0.1 1.5 0.9
v 0.1 1.5 -0.9
v 0.1 1.5 -1
v 0.1 1.7 1
v 0.1 1.7 0.9
v 0.1 1.7 0.3
v 0.1 1.7 -0.3
v 0.1 1.7 -0.9
v 0.1 1.7 -1
v 0.1 1.8 0.9
v 0.1 1.8 0.3
v 0.1 1.8 -0.3
v 0.1 1.8 -0.9
v -0.1 1.5 1
v -0.1 1.7 1
v 0.1 1.5 1
v 0.1 1.7 1
v -0.1 1.2 0.9
v -0.1 1.3 0.9
v -0.1 1.7 0.9
v -0.1 1.8 0.9
v 0 1.2 0.9
v 0 1.3 0.9
v 0.1 1.7 0.9
v 0.1 1.8 0.9
v -0.1 1 0.8
v -0.1 1.1 0.8
v 0 1 0.8
v 0 1.1 0.8
v -0.1 0.7 0.7
v -0.1 1 0.7
v -0.1 1.1 0.7
v -0.1 1.2 0.7
v 0 0.7 0.7
v 0 1 0.7
v 0 1.1 0.7
v 0 1.2 0.7
v -0.1 0 0.1
v -0.1 0.3 0.1
v -0.1 0.4 0.1
v 0 0 0.1
v 0 0.3 0.1
v 0 0.4 0.1
v -0.1 1.7 -0.3
v -0.1 1.8 -0.3
v 0.1 1.7 -0.3
v 0.1 1.8 -0.3
v -0.1 0.7 -0.4
v -0.1 1.3 -0.4
v 0 0.7 -0.4
v 0 1.3 -0.4
v -0.1 1.5 -0.9
v -0.1 1.7 -0.9
v 0.1 1.5 -0.9
v 0.1 1.7 -0.9
v -0.1 1.5 0.9
v -0.1 1.7 0.9
v 0.1 1.5 0.9
v 0.1 1.7 0.9
v -0.1 0.7 0.4
v -0.1 1.3 0.4
v 0 0.7 0.4
v 0 1.3 0.4
v -0.1 1.7 0.3
v -0.1 1.8 0.3
v 0.1 1.7 0.3
v 0.1 1.8 0.3
v -0.1 0 -0.1
v -0.1 0.3 -0.1
v -0.1 0.4 -0.1
v 0 0 -0.1
v 0 0.3 -0.1
v 0 0.4 -0.1
v -0.1 0.7 -0.7
v -0.1 1 -0.7
v -0.1 1.1 -0.7
v -0.1 1.2 -0.7
v 0 0.7 -0.7
v 0 1 -0.7
v 0 1.1 -0.7
v 0 1.2 -0.7
v -0.1 1 -0.8
v -0.1 1.1 -0.8
v 0 1 -0.8
v 0 1.1 -0.8
v -0.1 1.2 -0.9
v -0.1 1.3 -0.9
v -0.1 1.7 -0.9
v -0.1 1.8 -0.9
v 0 1.2 -0.9
v 0 1.3 -0.9
v 0.1 1.7 -0.9
v 0.1 1.8 -0.9
v -0.1 1.5 -1
v -0.1 1.7 -1
v 0.1 1.5 -1
v 0.1 1.7 -1
v -0.1 0 0.1
v 0 0 0.1
v -0.1 0 -0.1
v 0 0 -0.1
v -0.1 0.7 0.7
v 0 0.7 0.7
v -0.1 0.7 0.4
v 0 0.7 0.4
v -0.1 0.7 -0.4
v 0 0.7 -0.4
v -0.1 0.7 -0.7
v 0 0.7 -0.7
v -0.1 1 0.8
v 0 1 0.8
v -0.1 1 0.7
v 0 1 0.7
v -0.1 1 -0.7
v 0 1 -0.7
v -0.1 1 -0.8
v 0 1 -0.8
v -0.1 1.2 0.9
v 0 1.2 0.9
v -0.1 1.2 0.7
v 0 1.2 0.7
v -0.1 1.2 -0.7
v 0 1.2 -0.7
v -0.1 1.2 -0.9
v 0 1.2 -0.9
v -0.1 1.5 1
v 0.1 1.5 1
v -0.1 1.5 0.9
v 0.1 1.5 0.9
v -0.1 1.5 -0.9
v 0.1 1.5 -0.9
v -0.1 1.5 -1
v 0.1 1.5 -1
v -0.1 1.7 0.9
v 0.1 1.7 0.9
v -0.1 1.7 0.3
v 0.1 1.7 0.3
v -0.1 1.7 -0.3
v 0.1 1.7 -0.3
v -0.1 1.7 -0.9
v 0.1 1.7 -0.9
v -0.1 0.4 0.1
v 0 0.4 0.1
v -0.1 0.4 -0.1
v 0 0.4 -0.1
v -0.1 1.1 0.8
v 0 1.1 0.8
v -0.1 1.1 0.7
v 0 1.1 0.7
v -0.1 1.1 -0.7
v 0 1.1 -0.7
v -0.1 1.1 -0.8
v 0 1.1 -0.8
v -0.1 1.3 0.9
v 0 1.3 0.9
v -0.1 1.3 0.4
v 0 1.3 0.4
v -0.1 1.3 -0.4
v 0 1.3 -0.4
v -0.1 1.3 -0.9
v 0 1.3 -0.9
v -0.1 1.7 1
v 0.1 1.7 1
v -0.1 1.7 0.9
v 0.1 1.7 0.9
v -0.1 1.7 -0.9
v 0.1 1.7 -0.9
v -0.1 1.7 -1
v 0.1 1.7 -1
v -0.1 1.8 0.9
v 0.1 1.8 0.9
v -0.1 1.8 0.3
v 0.1 1.8 0.3
v -0.1 1.8 -0.3
v 0.1 1.8 -0.3
v -0.1 1.8 -0.9
v 0.1 1.8 -0.9

# faces
f 3/3/1 2/3/1 1/3/1
f 4/3/1 2/3/1 3/3/1
f 5/2/1 4/2/1 3/2/1
f 6/2/1 4/2/1 5/2/1
f 12/4/1 8/4/1 7/4/1
f 13/4/1 10/4/1 9/4/1
f 15/4/1 12/4/1 11/4/1
f 16/4/1 8/4/1 12/4/1
f 16/4/1 12/4/1 15/4/1
f 17/4/1 8/4/1 16/4/1
f 18/4/1 8/4/1 17/4/1
f 19/4/1 14/4/1 13/4/1
f 19/4/1 13/4/1 9/4/1
f 20/4/1 14/4/1 19/4/1
f 21/4/1 14/4/1 20/4/1
f 22/4/1 14/4/1 21/4/1
f 24/4/1 17/4/1 16/4/1
f 25/1/1 18/1/1 17/1/1
f 25/4/1 17/4/1 24/4/1
f 26/4/1 8/4/1 18/4/1
f 26/1/1 18/1/1 25/1/1
f 27/4/1 19/4/1 9/4/1
f 27/1/1 20/1/1 19/1/1
f 28/4/1 21/4/1 20/4/1
f 28/1/1 20/1/1 27/1/1
f 29/4/1 21/4/1 28/4/1
f 31/4/1 25/4/1 24/4/1
f 31/4/1 24/4/1 23/4/1
f 31/4/1 26/4/1 25/4/1
f 32/4/1 8/4/1 26/4/1
f 32/4/1 26/4/1 31/4/1
f 33/4/1 30/4/1 29/4/1
f 33/4/1 28/4/1 27/4/1
f 33/4/1 29/4/1 28/4/1
f 33/4/1 27/4/1 9/4/1
f 34/4/1 30/4/1 33/4/1
f 39/5/1 36/5/1 35/5/1
f 40/5/1 36/5/1 39/5/1
f 43/5/1 38/5/1 37/5/1
f 44/5/1 38/5/1 43/5/1
f 45/5/1 41/5/1 40/5/1
f 46/5/1 41/5/1 45/5/1
f 47/5/1 43/5/1 42/5/1
f 48/5/1 43/5/1 47/5/1
f 49/3/2 50/3/2 51/3/2
f 51/3/2 50/3/2 52/3/2
f 51/2/2 52/2/2 53/2/2
f 53/2/2 52/2/2 54/2/2
f 55/4/2 56/4/2 60/4/2
f 57/4/2 58/4/2 61/4/2
f 59/4/2 60/4/2 63/4/2
f 60/4/2 56/4/2 64/4/2
f 63/4/2 60/4/2 64/4/2
f 64/4/2 56/4/2 65/4/2
f 65/4/2 56/4/2 66/4/2
f 61/4/2 62/4/2 67/4/2
f 57/4/2 61/4/2 67/4/2
f 67/4/2 62/4/2 68/4/2
f 68/4/2 62/4/2 69/4/2
f 69/4/2 62/4/2 70/4/2
f 64/4/2 65/4/2 72/4/2
f 65/1/2 66/1/2 73/1/2
f 72/4/2 65/4/2 73/4/2
f 66/4/2 56/4/2 74/4/2
f 73/1/2 66/1/2 74/1/2
f 57/4/2 67/4/2 75/4/2
f 67/1/2 68/1/2 75/1/2
f 68/4/2 69/4/2 76/4/2
f 75/1/2 68/1/2 76/1/2
f 76/4/2 69/4/2 77/4/2
f 72/4/2 73/4/2 79/4/2
f 71/4/2 72/4/2 79/4/2
f 73/4/2 74/4/2 79/4/2
f 74/4/2 56/4/2 80/4/2
f 79/4/2 74/4/2 80/4/2
f 77/4/2 78/4/2 81/4/2
f 75/4/2 76/4/2 81/4/2
f 76/4/2 77/4/2 81/4/2
f 57/4/2 75/4/2 81/4/2
f 81/4/2 78/4/2 82/4/2
f 83/5/2 84/5/2 87/5/2
f 87/5/2 84/5/2 88/5/2
f 85/5/2 86/5/2 91/5/2
f 91/5/2 86/5/2 92/5/2
f 88/5/2 89/5/2 93/5/2
f 93/5/2 89/5/2 94/5/2
f 90/5/2 91/5/2 95/5/2
f 95/5/2 91/5/2 96/5/2
f 99/5/3 98/5/3 97/5/3
f 100/5/3 98/5/3 99/5/3
f 105/4/3 102/4/3 101/4/3
f 106/4/3 102/4/3 105/4/3
f 107/5/3 104/5/3 103/5/3
f 108/5/3 104/5/3 107/5/3
f 111/4/3 110/4/3 109/4/3
f 112/4/3 110/4/3 111/4/3
f 117/4/3 114/4/3 113/4/3
f 118/4/3 114/4/3 117/4/3
f 119/4/3 116/4/3 115/4/3
f 120/4/3 116/4/3 119/4/3
f 124/3/3 122/3/3 121/3/3
f 125/2/3 123/2/3 122/2/3
f 125/3/3 122/3/3 124/3/3
f 126/2/3 123/2/3 125/2/3
f 129/5/3 128/5/3 127/5/3
f 130/5/3 128/5/3 129/5/3
f 133/4/3 132/4/3 131/4/3
f 134/4/3 132/4/3 133/4/3
f 137/5/3 136/5/3 135/5/3
f 138/5/3 136/5/3 137/5/3
f 139/5/4 140/5/4 141/5/4
f 141/5/4 140/5/4 142/5/4
f 143/4/4 144/4/4 145/4/4
f 145/4/4 144/4/4 146/4/4
f 147/5/4 148/5/4 149/5/4
f 149/5/4 148/5/4 150/5/4
f 151/3/4 152/3/4 154/3/4
f 152/2/4 153/2/4 155/2/4
f 154/3/4 152/3/4 155/3/4
f 155/2/4 153/2/4 156/2/4
f 157/4/4 158/4/4 161/4/4
f 161/4/4 158/4/4 162/4/4
f 159/4/4 160/4/4 163/4/4
f 163/4/4 160/4/4 164/4/4
f 165/4/4 166/4/4 167/4/4
f 167/4/4 166/4/4 168/4/4
f 169/4/4 170/4/4 173/4/4
f 173/4/4 170/4/4 174/4/4
f 171/5/4 172/5/4 175/5/4
f 175/5/4 172/5/4 176/5/4
f 177/5/4 178/5/4 179/5/4
f 179/5/4 178/5/4 180/5/4
f 183/3/5 182/3/5 181/3/5
f 184/3/5 182/3/5 183/3/5
f 187/4/5 186/4/5 185/4/5
f 188/4/5 186/4/5 187/4/5
f 191/4/5 190/4/5 189/4/5
f 192/4/5 190/4/5 191/4/5
f 195/4/5 194/4/5 193/4/5
f 196/4/5 194/4/5 195/4/5
f 199/4/5 198/4/5 197/4/5
f 200/4/5 198/4/5 199/4/5
f 203/4/5 202/4/5 201/4/5
f 204/4/5 202/4/5 203/4/5
f 207/4/5 206/4/5 205/4/5
f 208/4/5 206/4/5 207/4/5
f 211/5/5 210/5/5 209/5/5
f 212/5/5 210/5/5 211/5/5
f 215/5/5 214/5/5 213/5/5
f 216/5/5 214/5/5 215/5/5
f 219/5/5 218/5/5 217/5/5
f 220/5/5 218/5/5 219/5/5
f 223/5/5 222/5/5 221/5/5
f 224/5/5 222/5/5 223/5/5
f 225/2/6 226/2/6 227/2/6
f 227/2/6 226/2/6 228/2/6
f 229/4/6 230/4/6 231/4/6
f 231/4/6 230/4/6 232/4/6
f 233/4/6 234/4/6 235/4/6
f 235/4/6 234/4/6 236/4/6
f 237/4/6 238/4/6 239/4/6
f 239/4/6 238/4/6 240/4/6
f 241/4/6 242/4/6 243/4/6
f 243/4/6 242/4/6 244/4/6
f 245/5/6 246/5/6 247/5/6
f 247/5/6 246/5/6 248/5/6
f 249/5/6 250/5/6 251/5/6
f 251/5/6 250/5/6 252/5/6
f 253/5/6 254/5/6 255/5/6
f 255/5/6 254/5/6 256/5/6
f 257/5/6 258/5/6 259/5/6
f 259/5/6 258/5/6 260/5/6
