# MagicaVoxel @ Ephtracy

# group
o 

# material
mtllib model-4.mtl
usemtl palette

# normals
vn 0 0 1
vn 0 0 -1
vn 1 0 0
vn -1 0 0
vn 0 -1 0
vn 0 1 0

# texcoords
vt 0.0175781 0.5
vt 0.0214844 0.5
vt 0.0253906 0.5
vt 0.0761719 0.5
vt 0.0878906 0.5
vt 0.361328 0.5
vt 0.568359 0.5
vt 0.572266 0.5
vt 0.771484 0.5
vt 0.775391 0.5
vt 0.779297 0.5

# verts
v 0.5 1.2 1.2
v -0.5 1.2 1.2
v 0.6 1.9 1.2
v 0.5 1.9 1.2
v -0.5 1.9 1.2
v -0.6 1.9 1.2
v 0.5 2 1.2
v 0.4 2 1.2
v 0.2 2 1.2
v 0.1 2 1.2
v -0.1 2 1.2
v -0.2 2 1.2
v -0.4 2 1.2
v -0.5 2 1.2
v 0.5 2.1 1.2
v 0.4 2.1 1.2
v 0.2 2.1 1.2
v 0.1 2.1 1.2
v -0.1 2.1 1.2
v -0.2 2.1 1.2
v -0.4 2.1 1.2
v -0.5 2.1 1.2
v 0.6 2.2 1.2
v -0.6 2.2 1.2
v 0.5 0.6 1
v -0.5 0.6 1
v 0.5 1.2 1
v -0.5 1.2 1
v 0.8 1.9 1
v 0.6 1.9 1
v -0.6 1.9 1
v -0.8 1.9 1
v 0.8 2.2 1
v 0.6 2.2 1
v -0.6 2.2 1
v -0.8 2.2 1
v 0.8 0.8 0.9
v 0.7 0.8 0.9
v 0.8 0.9 0.9
v 0.7 0.9 0.9
v -0.7 1.1 0.9
v -0.8 1.1 0.9
v 0.8 1.2 0.9
v 0.7 1.2 0.9
v -0.7 1.3 0.9
v -0.8 1.3 0.9
v -0.7 1.5 0.9
v -0.8 1.5 0.9
v 0.7 0.6 0.8
v 0.6 0.6 0.8
v 0.5 0.6 0.8
v -0.5 0.6 0.8
v -0.6 0.6 0.8
v -0.7 0.6 0.8
v 0.7 0.8 0.8
v 0.7 0.9 0.8
v -0.7 1.1 0.8
v 0.7 1.2 0.8
v -0.7 1.3 0.8
v -0.7 1.5 0.8
v 0.7 1.9 0.8
v 0.6 1.9 0.8
v 0.5 1.9 0.8
v -0.5 1.9 0.8
v -0.6 1.9 0.8
v -0.7 1.9 0.8
v 0.8 0.9 0.6
v 0.7 0.9 0.6
v 0.8 1 0.6
v 0.7 1 0.6
v 0.8 1.1 0.6
v 0.7 1.1 0.6
v -0.7 1.2 0.6
v -0.8 1.2 0.6
v -0.7 1.4 0.6
v -0.8 1.4 0.6
v 0.8 1.8 0.5
v 0.6 1.8 0.5
v 0.8 1.9 0.5
v 0.6 1.9 0.5
v 0.8 0.8 -0.5
v 0.7 0.8 -0.5
v 0.8 0.9 -0.5
v 0.7 0.9 -0.5
v -0.7 1.1 -0.5
v -0.8 1.1 -0.5
v 0.8 1.2 -0.5
v 0.7 1.2 -0.5
v -0.7 1.3 -0.5
v -0.8 1.3 -0.5
v -0.7 1.5 -0.5
v -0.8 1.5 -0.5
v 0.7 0.6 -0.6
v 0.6 0.6 -0.6
v -0.6 0.6 -0.6
v -0.7 0.6 -0.6
v 0.7 0.8 -0.6
v 0.7 0.9 -0.6
v -0.7 1.1 -0.6
v 0.7 1.2 -0.6
v 0.6 1.2 -0.6
v -0.7 1.3 -0.6
v 0.6 1.5 -0.6
v -0.7 1.5 -0.6
v 0.7 1.9 -0.6
v 0.6 1.9 -0.6
v -0.6 1.9 -0.6
v -0.7 1.9 -0.6
v 0.8 0.9 -0.8
v 0.7 0.9 -0.8
v 0.8 1 -0.8
v 0.7 1 -0.8
v 0.8 1.1 -0.8
v 0.7 1.1 -0.8
v -0.7 1.2 -0.8
v -0.8 1.2 -0.8
v -0.7 1.4 -0.8
v -0.8 1.4 -0.8
v 0.8 0.9 0.8
v 0.7 0.9 0.8
v 0.8 1.1 0.8
v 0.7 1.1 0.8
v -0.7 1.2 0.8
v -0.8 1.2 0.8
v -0.7 1.3 0.8
v -0.8 1.3 0.8
v -0.7 1.4 0.8
v -0.8 1.4 0.8
v 0.7 0.6 0.6
v 0.6 0.6 0.6
v -0.6 0.6 0.6
v -0.7 0.6 0.6
v 0.7 0.8 0.6
v 0.7 1 0.6
v -0.7 1.1 0.6
v 0.7 1.2 0.6
v -0.7 1.2 0.6
v 0.6 1.3 0.6
v 0.6 1.4 0.6
v -0.7 1.5 0.6
v 0.7 1.9 0.6
v 0.6 1.9 0.6
v -0.6 1.9 0.6
v -0.7 1.9 0.6
v 0.8 0.8 0.5
v 0.7 0.8 0.5
v 0.8 1 0.5
v 0.7 1 0.5
v -0.7 1.1 0.5
v -0.8 1.1 0.5
v 0.8 1.2 0.5
v 0.7 1.2 0.5
v -0.7 1.2 0.5
v -0.8 1.2 0.5
v -0.7 1.5 0.5
v -0.8 1.5 0.5
v 0.8 1.8 0.2
v 0.6 1.8 0.2
v 0.8 1.9 0.2
v 0.6 1.9 0.2
v 0.8 0.9 -0.6
v 0.7 0.9 -0.6
v 0.8 1.1 -0.6
v 0.7 1.1 -0.6
v -0.7 1.2 -0.6
v -0.8 1.2 -0.6
v -0.7 1.3 -0.6
v -0.8 1.3 -0.6
v -0.7 1.4 -0.6
v -0.8 1.4 -0.6
v 0.7 0.6 -0.8
v 0.6 0.6 -0.8
v 0.5 0.6 -0.8
v -0.5 0.6 -0.8
v -0.6 0.6 -0.8
v -0.7 0.6 -0.8
v 0.7 0.8 -0.8
v 0.7 1 -0.8
v -0.7 1.1 -0.8
v 0.7 1.2 -0.8
v -0.7 1.2 -0.8
v -0.7 1.5 -0.8
v 0.7 1.9 -0.8
v 0.6 1.9 -0.8
v 0.5 1.9 -0.8
v -0.5 1.9 -0.8
v -0.6 1.9 -0.8
v -0.7 1.9 -0.8
v 0.8 0.8 -0.9
v 0.7 0.8 -0.9
v 0.8 1 -0.9
v 0.7 1 -0.9
v -0.7 1.1 -0.9
v -0.8 1.1 -0.9
v 0.8 1.2 -0.9
v 0.7 1.2 -0.9
v -0.7 1.2 -0.9
v -0.8 1.2 -0.9
v -0.7 1.5 -0.9
v -0.8 1.5 -0.9
v 0.5 0.6 -1
v -0.5 0.6 -1
v 0.5 1.2 -1
v -0.5 1.2 -1
v 0.8 1.9 -1
v 0.6 1.9 -1
v -0.6 1.9 -1
v -0.8 1.9 -1
v 0.8 2.2 -1
v 0.6 2.2 -1
v -0.6 2.2 -1
v -0.8 2.2 -1
v 0.5 1.2 -1.2
v -0.5 1.2 -1.2
v 0.6 1.9 -1.2
v 0.5 1.9 -1.2
v -0.5 1.9 -1.2
v -0.6 1.9 -1.2
v 0.5 2 -1.2
v 0.4 2 -1.2
v 0.2 2 -1.2
v 0.1 2 -1.2
v -0.1 2 -1.2
v -0.2 2 -1.2
v -0.4 2 -1.2
v -0.5 2 -1.2
v 0.5 2.1 -1.2
v 0.4 2.1 -1.2
v 0.2 2.1 -1.2
v 0.1 2.1 -1.2
v -0.1 2.1 -1.2
v -0.2 2.1 -1.2
v -0.4 2.1 -1.2
v -0.5 2.1 -1.2
v 0.6 2.2 -1.2
v -0.6 2.2 -1.2
v 0.8 1.9 1
v 0.8 2.2 1
v 0.8 0.8 0.9
v 0.8 0.9 0.9
v 0.8 1.2 0.9
v 0.8 0.9 0.8
v 0.8 1.1 0.8
v 0.8 2 0.8
v 0.8 2.1 0.8
v 0.8 0.8 0.7
v 0.8 0.9 0.7
v 0.8 1.1 0.7
v 0.8 1.2 0.7
v 0.8 2 0.7
v 0.8 2.1 0.7
v 0.8 0.9 0.6
v 0.8 1 0.6
v 0.8 1.1 0.6
v 0.8 0.8 0.5
v 0.8 1 0.5
v 0.8 1.2 0.5
v 0.8 1.8 0.5
v 0.8 1.9 0.5
v 0.8 2 0.5
v 0.8 2.1 0.5
v 0.8 1.9 0.4
v 0.8 2 0.4
v 0.8 2.1 0.4
v 0.8 1.9 0.3
v 0.8 2 0.3
v 0.8 1.8 0.2
v 0.8 1.9 0.2
v 0.8 2 0.2
v 0.8 2.1 0.2
v 0.8 2 0.1
v 0.8 2.1 0.1
v 0.8 2 -0.0999999
v 0.8 2.1 -0.0999999
v 0.8 2 -0.2
v 0.8 2.1 -0.2
v 0.8 2 -0.4
v 0.8 2.1 -0.4
v 0.8 0.8 -0.5
v 0.8 0.9 -0.5
v 0.8 1.2 -0.5
v 0.8 2 -0.5
v 0.8 2.1 -0.5
v 0.8 0.9 -0.6
v 0.8 1.1 -0.6
v 0.8 0.8 -0.7
v 0.8 0.9 -0.7
v 0.8 1.1 -0.7
v 0.8 1.2 -0.7
v 0.8 2 -0.7
v 0.8 2.1 -0.7
v 0.8 0.9 -0.8
v 0.8 1 -0.8
v 0.8 1.1 -0.8
v 0.8 2 -0.8
v 0.8 2.1 -0.8
v 0.8 0.8 -0.9
v 0.8 1 -0.9
v 0.8 1.2 -0.9
v 0.8 1.9 -1
v 0.8 2.2 -1
v 0.7 0.6 0.8
v 0.7 0.8 0.8
v 0.7 0.9 0.8
v 0.7 1.1 0.8
v 0.7 1.2 0.8
v 0.7 1.9 0.8
v 0.7 0.8 0.7
v 0.7 0.9 0.7
v 0.7 1.1 0.7
v 0.7 1.2 0.7
v 0.7 0.6 0.6
v 0.7 0.8 0.6
v 0.7 0.9 0.6
v 0.7 1 0.6
v 0.7 1.1 0.6
v 0.7 1.2 0.6
v 0.7 1.9 0.6
v 0.7 0.6 -0.6
v 0.7 0.8 -0.6
v 0.7 0.9 -0.6
v 0.7 1.1 -0.6
v 0.7 1.2 -0.6
v 0.7 1.9 -0.6
v 0.7 0.8 -0.7
v 0.7 0.9 -0.7
v 0.7 1.1 -0.7
v 0.7 1.2 -0.7
v 0.7 0.6 -0.8
v 0.7 0.8 -0.8
v 0.7 0.9 -0.8
v 0.7 1 -0.8
v 0.7 1.1 -0.8
v 0.7 1.2 -0.8
v 0.7 1.9 -0.8
v 0.6 1.9 1.2
v 0.6 2.2 1.2
v 0.6 1.9 1
v 0.6 2.2 1
v 0.6 0.6 0.6
v 0.6 1.3 0.6
v 0.6 1.4 0.6
v 0.6 1.9 0.6
v 0.6 1.8 0.5
v 0.6 1.9 0.5
v 0.6 1.3 0.2
v 0.6 1.4 0.2
v 0.6 1.8 0.2
v 0.6 1.9 0.2
v 0.6 0.6 0.1
v 0.6 1.9 0.1
v 0.6 0.6 0
v 0.6 1.9 0
v 0.6 0.6 -0.0999999
v 0.6 1.2 -0.0999999
v 0.6 1.5 -0.0999999
v 0.6 1.9 -0.0999999
v 0.6 1.1 -0.2
v 0.6 1.2 -0.2
v 0.6 1.3 -0.2
v 0.6 1.5 -0.2
v 0.6 1.6 -0.2
v 0.6 1.2 -0.3
v 0.6 1.3 -0.3
v 0.6 1.4 -0.3
v 0.6 1.3 -0.4
v 0.6 1.4 -0.4
v 0.6 1.5 -0.4
v 0.6 1.1 -0.5
v 0.6 1.2 -0.5
v 0.6 1.4 -0.5
v 0.6 1.5 -0.5
v 0.6 1.6 -0.5
v 0.6 0.6 -0.6
v 0.6 1.2 -0.6
v 0.6 1.5 -0.6
v 0.6 1.9 -0.6
v 0.6 1.9 -1
v 0.6 2.2 -1
v 0.6 1.9 -1.2
v 0.6 2.2 -1.2
v 0.5 1.2 1.2
v 0.5 1.9 1.2
v 0.5 1.3 1.1
v 0.5 1.4 1.1
v 0.5 1.6 1.1
v 0.5 1.7 1.1
v 0.5 0.6 1
v 0.5 1.2 1
v 0.5 1.3 1
v 0.5 1.4 1
v 0.5 1.6 1
v 0.5 1.7 1
v 0.5 0.6 0.8
v 0.5 1.9 0.8
v 0.5 0.6 -0.8
v 0.5 1.9 -0.8
v 0.5 0.6 -1
v 0.5 1.2 -1
v 0.5 1.3 -1
v 0.5 1.4 -1
v 0.5 1.6 -1
v 0.5 1.7 -1
v 0.5 1.3 -1.1
v 0.5 1.4 -1.1
v 0.5 1.6 -1.1
v 0.5 1.7 -1.1
v 0.5 1.2 -1.2
v 0.5 1.9 -1.2
v -0.7 1.1 0.9
v -0.7 1.3 0.9
v -0.7 1.5 0.9
v -0.7 1.1 0.8
v -0.7 1.3 0.8
v -0.7 1.5 0.8
v -0.7 1.1 0.6
v -0.7 1.2 0.6
v -0.7 1.5 0.6
v -0.7 1.1 0.5
v -0.7 1.2 0.5
v -0.7 1.5 0.5
v -0.7 1.1 -0.5
v -0.7 1.3 -0.5
v -0.7 1.5 -0.5
v -0.7 1.1 -0.6
v -0.7 1.3 -0.6
v -0.7 1.5 -0.6
v -0.7 1.1 -0.8
v -0.7 1.2 -0.8
v -0.7 1.5 -0.8
v -0.7 1.1 -0.9
v -0.7 1.2 -0.9
v -0.7 1.5 -0.9
v 0.7 0.8 0.9
v 0.7 0.9 0.9
v 0.7 1.2 0.9
v 0.7 0.8 0.8
v 0.7 0.9 0.8
v 0.7 1.2 0.8
v 0.7 0.8 0.6
v 0.7 1 0.6
v 0.7 1.2 0.6
v 0.7 0.8 0.5
v 0.7 1 0.5
v 0.7 1.2 0.5
v 0.7 0.8 -0.5
v 0.7 0.9 -0.5
v 0.7 1.2 -0.5
v 0.7 0.8 -0.6
v 0.7 0.9 -0.6
v 0.7 1.2 -0.6
v 0.7 0.8 -0.8
v 0.7 1 -0.8
v 0.7 1.2 -0.8
v 0.7 0.8 -0.9
v 0.7 1 -0.9
v 0.7 1.2 -0.9
v -0.5 1.2 1.2
v -0.5 1.9 1.2
v -0.5 1.3 1.1
v -0.5 1.4 1.1
v -0.5 1.6 1.1
v -0.5 1.7 1.1
v -0.5 0.6 1
v -0.5 1.2 1
v -0.5 1.3 1
v -0.5 1.4 1
v -0.5 1.6 1
v -0.5 1.7 1
v -0.5 0.6 0.8
v -0.5 1.9 0.8
v -0.5 0.6 -0.8
v -0.5 1.9 -0.8
v -0.5 0.6 -1
v -0.5 1.2 -1
v -0.5 1.3 -1
v -0.5 1.4 -1
v -0.5 1.6 -1
v -0.5 1.7 -1
v -0.5 1.3 -1.1
v -0.5 1.4 -1.1
v -0.5 1.6 -1.1
v -0.5 1.7 -1.1
v -0.5 1.2 -1.2
v -0.5 1.9 -1.2
v -0.6 1.9 1.2
v -0.6 2.2 1.2
v -0.6 1.9 1
v -0.6 2.2 1
v -0.6 0.6 0.6
v -0.6 1.9 0.6
v -0.6 0.8 0.4
v -0.6 0.9 0.4
v -0.6 1.1 0.4
v -0.6 1.2 0.4
v -0.6 0.8 -0.4
v -0.6 0.9 -0.4
v -0.6 1.1 -0.4
v -0.6 1.2 -0.4
v -0.6 0.6 -0.6
v -0.6 1.9 -0.6
v -0.6 1.9 -1
v -0.6 2.2 -1
v -0.6 1.9 -1.2
v -0.6 2.2 -1.2
v -0.7 0.6 0.8
v -0.7 1.1 0.8
v -0.7 1.2 0.8
v -0.7 1.3 0.8
v -0.7 1.4 0.8
v -0.7 1.5 0.8
v -0.7 1.9 0.8
v -0.7 1.1 0.7
v -0.7 1.2 0.7
v -0.7 1.4 0.7
v -0.7 1.5 0.7
v -0.7 0.6 0.6
v -0.7 1.1 0.6
v -0.7 1.2 0.6
v -0.7 1.4 0.6
v -0.7 1.5 0.6
v -0.7 1.9 0.6
v -0.7 0.6 -0.6
v -0.7 1.1 -0.6
v -0.7 1.2 -0.6
v -0.7 1.3 -0.6
v -0.7 1.4 -0.6
v -0.7 1.5 -0.6
v -0.7 1.9 -0.6
v -0.7 1.1 -0.7
v -0.7 1.2 -0.7
v -0.7 1.4 -0.7
v -0.7 1.5 -0.7
v -0.7 0.6 -0.8
v -0.7 1.1 -0.8
v -0.7 1.2 -0.8
v -0.7 1.4 -0.8
v -0.7 1.5 -0.8
v -0.7 1.9 -0.8
v -0.8 1.9 1
v -0.8 2.2 1
v -0.8 1.1 0.9
v -0.8 1.3 0.9
v -0.8 1.5 0.9
v -0.8 1.2 0.8
v -0.8 1.3 0.8
v -0.8 1.4 0.8
v -0.8 2 0.8
v -0.8 2.1 0.8
v -0.8 1.1 0.7
v -0.8 1.2 0.7
v -0.8 1.4 0.7
v -0.8 1.5 0.7
v -0.8 2 0.7
v -0.8 2.1 0.7
v -0.8 1.2 0.6
v -0.8 1.4 0.6
v -0.8 1.1 0.5
v -0.8 1.2 0.5
v -0.8 1.5 0.5
v -0.8 2 0.5
v -0.8 2.1 0.5
v -0.8 2 0.4
v -0.8 2.1 0.4
v -0.8 2 0.2
v -0.8 2.1 0.2
v -0.8 2 0.1
v -0.8 2.1 0.1
v -0.8 2 -0.0999999
v -0.8 2.1 -0.0999999
v -0.8 2 -0.2
v -0.8 2.1 -0.2
v -0.8 2 -0.4
v -0.8 2.1 -0.4
v -0.8 1.1 -0.5
v -0.8 1.3 -0.5
v -0.8 1.5 -0.5
v -0.8 2 -0.5
v -0.8 2.1 -0.5
v -0.8 1.2 -0.6
v -0.8 1.3 -0.6
v -0.8 1.4 -0.6
v -0.8 1.1 -0.7
v -0.8 1.2 -0.7
v -0.8 1.4 -0.7
v -0.8 1.5 -0.7
v -0.8 2 -0.7
v -0.8 2.1 -0.7
v -0.8 1.2 -0.8
v -0.8 1.4 -0.8
v -0.8 2 -0.8
v -0.8 2.1 -0.8
v -0.8 1.1 -0.9
v -0.8 1.2 -0.9
v -0.8 1.5 -0.9
v -0.8 1.9 -1
v -0.8 2.2 -1
v 0.7 0.6 0.8
v 0.7 0.6 0.6
v 0.7 0.6 -0.6
v 0.7 0.6 -0.8
v 0.6 0.6 0.8
v 0.6 0.6 0.6
v 0.6 0.6 0.1
v 0.6 0.6 0
v 0.6 0.6 -0.0999999
v 0.6 0.6 -0.6
v 0.6 0.6 -0.8
v 0.5 0.6 1
v 0.5 0.6 0.8
v 0.5 0.6 0.1
v 0.5 0.6 0
v 0.5 0.6 -0.0999999
v 0.5 0.6 -0.8
v 0.5 0.6 -1
v -0.5 0.6 1
v -0.5 0.6 0.8
v -0.5 0.6 -0.8
v -0.5 0.6 -1
v -0.6 0.6 0.8
v -0.6 0.6 0.6
v -0.6 0.6 -0.6
v -0.6 0.6 -0.8
v -0.7 0.6 0.8
v -0.7 0.6 0.6
v -0.7 0.6 -0.6
v -0.7 0.6 -0.8
v 0.8 0.8 0.9
v 0.8 0.8 0.7
v 0.8 0.8 0.5
v 0.8 0.8 -0.5
v 0.8 0.8 -0.7
v 0.8 0.8 -0.9
v 0.7 0.8 0.9
v 0.7 0.8 0.8
v 0.7 0.8 0.7
v 0.7 0.8 0.6
v 0.7 0.8 0.5
v 0.7 0.8 -0.5
v 0.7 0.8 -0.6
v 0.7 0.8 -0.7
v 0.7 0.8 -0.8
v 0.7 0.8 -0.9
v 0.8 1.1 0.8
v 0.8 1.1 0.7
v 0.8 1.1 0.6
v 0.8 1.1 -0.6
v 0.8 1.1 -0.7
v 0.8 1.1 -0.8
v 0.7 1.1 0.8
v 0.7 1.1 0.7
v 0.7 1.1 0.6
v 0.7 1.1 -0.6
v 0.7 1.1 -0.7
v 0.7 1.1 -0.8
v -0.7 1.1 0.9
v -0.7 1.1 0.8
v -0.7 1.1 0.7
v -0.7 1.1 0.6
v -0.7 1.1 0.5
v -0.7 1.1 -0.5
v -0.7 1.1 -0.6
v -0.7 1.1 -0.7
v -0.7 1.1 -0.8
v -0.7 1.1 -0.9
v -0.8 1.1 0.9
v -0.8 1.1 0.7
v -0.8 1.1 0.5
v -0.8 1.1 -0.5
v -0.8 1.1 -0.7
v -0.8 1.1 -0.9
v 0.5 1.2 1.2
v 0.5 1.2 1
v 0.5 1.2 -1
v 0.5 1.2 -1.2
v -0.5 1.2 1.2
v -0.5 1.2 1
v -0.5 1.2 -1
v -0.5 1.2 -1.2
v -0.7 1.4 0.8
v -0.7 1.4 0.7
v -0.7 1.4 0.6
v -0.7 1.4 -0.6
v -0.7 1.4 -0.7
v -0.7 1.4 -0.8
v -0.8 1.4 0.8
v -0.8 1.4 0.7
v -0.8 1.4 0.6
v -0.8 1.4 -0.6
v -0.8 1.4 -0.7
v -0.8 1.4 -0.8
v 0.8 1.8 0.5
v 0.8 1.8 0.2
v 0.6 1.8 0.5
v 0.6 1.8 0.2
v 0.8 1.9 1
v 0.8 1.9 0.5
v 0.8 1.9 0.2
v 0.8 1.9 -1
v 0.7 1.9 0.8
v 0.7 1.9 0.6
v 0.7 1.9 -0.6
v 0.7 1.9 -0.8
v 0.6 1.9 1.2
v 0.6 1.9 1
v 0.6 1.9 0.8
v 0.6 1.9 0.6
v 0.6 1.9 0.5
v 0.6 1.9 0.2
v 0.6 1.9 0.1
v 0.6 1.9 0
v 0.6 1.9 -0.0999999
v 0.6 1.9 -0.6
v 0.6 1.9 -0.8
v 0.6 1.9 -1
v 0.6 1.9 -1.2
v 0.5 1.9 1.2
v 0.5 1.9 0.8
v 0.5 1.9 -0.8
v 0.5 1.9 -1.2
v -0.5 1.9 1.2
v -0.5 1.9 0.8
v -0.5 1.9 -0.8
v -0.5 1.9 -1.2
v -0.6 1.9 1.2
v -0.6 1.9 1
v -0.6 1.9 0.8
v -0.6 1.9 0.6
v -0.6 1.9 -0.6
v -0.6 1.9 -0.8
v -0.6 1.9 -1
v -0.6 1.9 -1.2
v -0.7 1.9 0.8
v -0.7 1.9 0.6
v -0.7 1.9 -0.6
v -0.7 1.9 -0.8
v -0.8 1.9 1
v -0.8 1.9 -1
v 0.8 0.9 0.8
v 0.8 0.9 0.7
v 0.8 0.9 0.6
v 0.8 0.9 -0.6
v 0.8 0.9 -0.7
v 0.8 0.9 -0.8
v 0.7 0.9 0.8
v 0.7 0.9 0.7
v 0.7 0.9 0.6
v 0.7 0.9 -0.6
v 0.7 0.9 -0.7
v 0.7 0.9 -0.8
v 0.8 1.2 0.9
v 0.8 1.2 0.7
v 0.8 1.2 0.5
v 0.8 1.2 -0.5
v 0.8 1.2 -0.7
v 0.8 1.2 -0.9
v 0.7 1.2 0.9
v 0.7 1.2 0.8
v 0.7 1.2 0.7
v 0.7 1.2 0.6
v 0.7 1.2 0.5
v 0.7 1.2 -0.5
v 0.7 1.2 -0.6
v 0.7 1.2 -0.7
v 0.7 1.2 -0.8
v 0.7 1.2 -0.9
v -0.7 1.2 0.8
v -0.7 1.2 0.7
v -0.7 1.2 0.6
v -0.7 1.2 -0.6
v -0.7 1.2 -0.7
v -0.7 1.2 -0.8
v -0.8 1.2 0.8
v -0.8 1.2 0.7
v -0.8 1.2 0.6
v -0.8 1.2 -0.6
v -0.8 1.2 -0.7
v -0.8 1.2 -0.8
v -0.7 1.5 0.9
v -0.7 1.5 0.8
v -0.7 1.5 0.7
v -0.7 1.5 0.6
v -0.7 1.5 0.5
v -0.7 1.5 -0.5
v -0.7 1.5 -0.6
v -0.7 1.5 -0.7
v -0.7 1.5 -0.8
v -0.7 1.5 -0.9
v -0.8 1.5 0.9
v -0.8 1.5 0.7
v -0.8 1.5 0.5
v -0.8 1.5 -0.5
v -0.8 1.5 -0.7
v -0.8 1.5 -0.9
v 0.8 2.2 1
v 0.8 2.2 -1
v 0.6 2.2 1.2
v 0.6 2.2 1
v 0.6 2.2 -1
v 0.6 2.2 -1.2
v -0.6 2.2 1.2
v -0.6 2.2 1
v -0.6 2.2 -1
v -0.6 2.2 -1.2
v -0.8 2.2 1
v -0.8 2.2 -1

# faces
f 4/3/1 2/3/1 1/3/1
f 5/3/1 2/3/1 4/3/1
f 7/8/1 4/8/1 3/8/1
f 7/8/1 6/8/1 5/8/1
f 7/8/1 5/8/1 4/8/1
f 8/8/1 6/8/1 7/8/1
f 9/8/1 6/8/1 8/8/1
f 10/8/1 6/8/1 9/8/1
f 11/8/1 6/8/1 10/8/1
f 12/8/1 6/8/1 11/8/1
f 13/8/1 6/8/1 12/8/1
f 14/8/1 6/8/1 13/8/1
f 15/8/1 7/8/1 3/8/1
f 15/7/1 8/7/1 7/7/1
f 16/8/1 9/8/1 8/8/1
f 16/7/1 8/7/1 15/7/1
f 17/7/1 10/7/1 9/7/1
f 17/8/1 9/8/1 16/8/1
f 18/8/1 11/8/1 10/8/1
f 18/7/1 10/7/1 17/7/1
f 19/7/1 12/7/1 11/7/1
f 19/8/1 11/8/1 18/8/1
f 20/8/1 13/8/1 12/8/1
f 20/7/1 12/7/1 19/7/1
f 21/7/1 14/7/1 13/7/1
f 21/8/1 13/8/1 20/8/1
f 22/8/1 6/8/1 14/8/1
f 22/7/1 14/7/1 21/7/1
f 23/8/1 21/8/1 20/8/1
f 23/8/1 20/8/1 19/8/1
f 23/8/1 22/8/1 21/8/1
f 23/8/1 19/8/1 18/8/1
f 23/8/1 18/8/1 17/8/1
f 23/8/1 17/8/1 16/8/1
f 23/8/1 16/8/1 15/8/1
f 23/8/1 15/8/1 3/8/1
f 24/8/1 6/8/1 22/8/1
f 24/8/1 22/8/1 23/8/1
f 27/3/1 26/3/1 25/3/1
f 28/3/1 26/3/1 27/3/1
f 33/8/1 30/8/1 29/8/1
f 34/8/1 30/8/1 33/8/1
f 35/8/1 32/8/1 31/8/1
f 36/8/1 32/8/1 35/8/1
f 39/9/1 38/9/1 37/9/1
f 40/9/1 38/9/1 39/9/1
f 43/10/1 40/10/1 39/10/1
f 44/10/1 40/10/1 43/10/1
f 45/10/1 42/10/1 41/10/1
f 46/10/1 42/10/1 45/10/1
f 47/11/1 46/11/1 45/11/1
f 48/11/1 46/11/1 47/11/1
f 55/4/1 50/4/1 49/4/1
f 56/4/1 50/4/1 55/4/1
f 57/4/1 54/4/1 53/4/1
f 58/4/1 50/4/1 56/4/1
f 59/4/1 57/4/1 53/4/1
f 60/4/1 59/4/1 53/4/1
f 61/4/1 50/4/1 58/4/1
f 62/3/1 51/3/1 50/3/1
f 62/4/1 50/4/1 61/4/1
f 63/3/1 51/3/1 62/3/1
f 64/3/1 53/3/1 52/3/1
f 65/4/1 60/4/1 53/4/1
f 65/3/1 53/3/1 64/3/1
f 66/4/1 60/4/1 65/4/1
f 69/10/1 68/10/1 67/10/1
f 70/10/1 68/10/1 69/10/1
f 71/11/1 70/11/1 69/11/1
f 72/11/1 70/11/1 71/11/1
f 75/10/1 74/10/1 73/10/1
f 76/10/1 74/10/1 75/10/1
f 79/8/1 78/8/1 77/8/1
f 80/8/1 78/8/1 79/8/1
f 83/9/1 82/9/1 81/9/1
f 84/9/1 82/9/1 83/9/1
f 87/10/1 84/10/1 83/10/1
f 88/10/1 84/10/1 87/10/1
f 89/10/1 86/10/1 85/10/1
f 90/10/1 86/10/1 89/10/1
f 91/11/1 90/11/1 89/11/1
f 92/11/1 90/11/1 91/11/1
f 97/4/1 94/4/1 93/4/1
f 98/4/1 94/4/1 97/4/1
f 99/4/1 96/4/1 95/4/1
f 100/4/1 94/4/1 98/4/1
f 101/4/1 94/4/1 100/4/1
f 102/4/1 99/4/1 95/4/1
f 103/4/1 101/4/1 100/4/1
f 104/4/1 102/4/1 95/4/1
f 105/4/1 103/4/1 100/4/1
f 106/4/1 103/4/1 105/4/1
f 107/4/1 104/4/1 95/4/1
f 108/4/1 104/4/1 107/4/1
f 111/10/1 110/10/1 109/10/1
f 112/10/1 110/10/1 111/10/1
f 113/11/1 112/11/1 111/11/1
f 114/11/1 112/11/1 113/11/1
f 117/10/1 116/10/1 115/10/1
f 118/10/1 116/10/1 117/10/1
f 119/10/2 120/10/2 121/10/2
f 121/10/2 120/10/2 122/10/2
f 123/10/2 124/10/2 125/10/2
f 125/10/2 124/10/2 126/10/2
f 125/11/2 126/11/2 127/11/2
f 127/11/2 126/11/2 128/11/2
f 129/4/2 130/4/2 133/4/2
f 133/4/2 130/4/2 134/4/2
f 131/4/2 132/4/2 135/4/2
f 134/4/2 130/4/2 136/4/2
f 131/4/2 135/4/2 137/4/2
f 136/4/2 130/4/2 138/4/2
f 136/4/2 138/4/2 139/4/2
f 131/4/2 137/4/2 140/4/2
f 136/4/2 139/4/2 141/4/2
f 141/4/2 139/4/2 142/4/2
f 131/4/2 140/4/2 143/4/2
f 143/4/2 140/4/2 144/4/2
f 145/10/2 146/10/2 147/10/2
f 147/10/2 146/10/2 148/10/2
f 147/11/2 148/11/2 151/11/2
f 151/11/2 148/11/2 152/11/2
f 149/9/2 150/9/2 153/9/2
f 153/9/2 150/9/2 154/9/2
f 153/10/2 154/10/2 155/10/2
f 155/10/2 154/10/2 156/10/2
f 157/8/2 158/8/2 159/8/2
f 159/8/2 158/8/2 160/8/2
f 161/10/2 162/10/2 163/10/2
f 163/10/2 162/10/2 164/10/2
f 165/10/2 166/10/2 167/10/2
f 167/10/2 166/10/2 168/10/2
f 167/11/2 168/11/2 169/11/2
f 169/11/2 168/11/2 170/11/2
f 171/4/2 172/4/2 177/4/2
f 177/4/2 172/4/2 178/4/2
f 175/4/2 176/4/2 179/4/2
f 178/4/2 172/4/2 180/4/2
f 175/4/2 179/4/2 181/4/2
f 175/4/2 181/4/2 182/4/2
f 180/4/2 172/4/2 183/4/2
f 172/3/2 173/3/2 184/3/2
f 183/4/2 172/4/2 184/4/2
f 184/3/2 173/3/2 185/3/2
f 174/3/2 175/3/2 186/3/2
f 175/4/2 182/4/2 187/4/2
f 186/3/2 175/3/2 187/3/2
f 187/4/2 182/4/2 188/4/2
f 189/10/2 190/10/2 191/10/2
f 191/10/2 190/10/2 192/10/2
f 191/11/2 192/11/2 195/11/2
f 195/11/2 192/11/2 196/11/2
f 193/9/2 194/9/2 197/9/2
f 197/9/2 194/9/2 198/9/2
f 197/10/2 198/10/2 199/10/2
f 199/10/2 198/10/2 200/10/2
f 201/3/2 202/3/2 203/3/2
f 203/3/2 202/3/2 204/3/2
f 205/8/2 206/8/2 209/8/2
f 209/8/2 206/8/2 210/8/2
f 207/8/2 208/8/2 211/8/2
f 211/8/2 208/8/2 212/8/2
f 213/3/2 214/3/2 216/3/2
f 216/3/2 214/3/2 217/3/2
f 215/8/2 216/8/2 219/8/2
f 217/8/2 218/8/2 219/8/2
f 216/8/2 217/8/2 219/8/2
f 219/8/2 218/8/2 220/8/2
f 220/8/2 218/8/2 221/8/2
f 221/8/2 218/8/2 222/8/2
f 222/8/2 218/8/2 223/8/2
f 223/8/2 218/8/2 224/8/2
f 224/8/2 218/8/2 225/8/2
f 225/8/2 218/8/2 226/8/2
f 215/8/2 219/8/2 227/8/2
f 219/7/2 220/7/2 227/7/2
f 220/8/2 221/8/2 228/8/2
f 227/7/2 220/7/2 228/7/2
f 221/7/2 222/7/2 229/7/2
f 228/8/2 221/8/2 229/8/2
f 222/8/2 223/8/2 230/8/2
f 229/7/2 222/7/2 230/7/2
f 223/7/2 224/7/2 231/7/2
f 230/8/2 223/8/2 231/8/2
f 224/8/2 225/8/2 232/8/2
f 231/7/2 224/7/2 232/7/2
f 225/7/2 226/7/2 233/7/2
f 232/8/2 225/8/2 233/8/2
f 226/8/2 218/8/2 234/8/2
f 233/7/2 226/7/2 234/7/2
f 232/8/2 233/8/2 235/8/2
f 231/8/2 232/8/2 235/8/2
f 233/8/2 234/8/2 235/8/2
f 230/8/2 231/8/2 235/8/2
f 229/8/2 230/8/2 235/8/2
f 228/8/2 229/8/2 235/8/2
f 227/8/2 228/8/2 235/8/2
f 215/8/2 227/8/2 235/8/2
f 234/8/2 218/8/2 236/8/2
f 235/8/2 234/8/2 236/8/2
f 242/9/3 240/9/3 239/9/3
f 242/10/3 241/10/3 240/10/3
f 243/10/3 241/10/3 242/10/3
f 244/8/3 238/8/3 237/8/3
f 245/8/3 238/8/3 244/8/3
f 246/9/3 242/9/3 239/9/3
f 247/9/3 242/9/3 246/9/3
f 248/10/3 241/10/3 243/10/3
f 249/10/3 241/10/3 248/10/3
f 250/7/3 245/7/3 244/7/3
f 250/8/3 244/8/3 237/8/3
f 251/8/3 238/8/3 245/8/3
f 251/7/3 245/7/3 250/7/3
f 252/10/3 247/10/3 246/10/3
f 254/11/3 249/11/3 248/11/3
f 255/10/3 253/10/3 252/10/3
f 255/10/3 252/10/3 246/10/3
f 256/11/3 254/11/3 253/11/3
f 256/10/3 253/10/3 255/10/3
f 257/11/3 249/11/3 254/11/3
f 257/11/3 254/11/3 256/11/3
f 259/8/3 250/8/3 237/8/3
f 259/8/3 251/8/3 250/8/3
f 260/8/3 251/8/3 259/8/3
f 261/8/3 238/8/3 251/8/3
f 261/8/3 251/8/3 260/8/3
f 262/8/3 260/8/3 259/8/3
f 262/8/3 259/8/3 258/8/3
f 263/7/3 261/7/3 260/7/3
f 263/8/3 260/8/3 262/8/3
f 264/8/3 238/8/3 261/8/3
f 264/7/3 261/7/3 263/7/3
f 265/6/3 263/6/3 262/6/3
f 265/8/3 262/8/3 258/8/3
f 266/8/3 264/8/3 263/8/3
f 266/6/3 263/6/3 265/6/3
f 267/8/3 265/8/3 258/8/3
f 267/8/3 266/8/3 265/8/3
f 268/8/3 266/8/3 267/8/3
f 269/8/3 264/8/3 266/8/3
f 269/8/3 266/8/3 268/8/3
f 270/8/3 238/8/3 264/8/3
f 270/8/3 264/8/3 269/8/3
f 271/8/3 269/8/3 268/8/3
f 271/7/3 270/7/3 269/7/3
f 272/8/3 238/8/3 270/8/3
f 272/7/3 270/7/3 271/7/3
f 273/8/3 271/8/3 268/8/3
f 273/8/3 272/8/3 271/8/3
f 274/8/3 238/8/3 272/8/3
f 274/8/3 272/8/3 273/8/3
f 275/8/3 273/8/3 268/8/3
f 275/7/3 274/7/3 273/7/3
f 276/8/3 238/8/3 274/8/3
f 276/7/3 274/7/3 275/7/3
f 277/8/3 275/8/3 268/8/3
f 277/8/3 276/8/3 275/8/3
f 278/8/3 238/8/3 276/8/3
f 278/8/3 276/8/3 277/8/3
f 282/8/3 277/8/3 268/8/3
f 282/7/3 278/7/3 277/7/3
f 283/8/3 238/8/3 278/8/3
f 283/7/3 278/7/3 282/7/3
f 284/10/3 281/10/3 280/10/3
f 284/9/3 280/9/3 279/9/3
f 285/10/3 281/10/3 284/10/3
f 286/9/3 284/9/3 279/9/3
f 287/9/3 284/9/3 286/9/3
f 288/10/3 281/10/3 285/10/3
f 289/10/3 281/10/3 288/10/3
f 290/8/3 283/8/3 282/8/3
f 290/8/3 282/8/3 268/8/3
f 291/8/3 238/8/3 283/8/3
f 291/8/3 283/8/3 290/8/3
f 292/10/3 287/10/3 286/10/3
f 294/11/3 289/11/3 288/11/3
f 295/8/3 290/8/3 268/8/3
f 295/7/3 291/7/3 290/7/3
f 296/8/3 238/8/3 291/8/3
f 296/7/3 291/7/3 295/7/3
f 297/10/3 293/10/3 292/10/3
f 297/10/3 292/10/3 286/10/3
f 298/11/3 294/11/3 293/11/3
f 298/10/3 293/10/3 297/10/3
f 299/11/3 289/11/3 294/11/3
f 299/11/3 294/11/3 298/11/3
f 300/8/3 295/8/3 268/8/3
f 300/8/3 296/8/3 295/8/3
f 301/8/3 238/8/3 296/8/3
f 301/8/3 296/8/3 300/8/3
f 308/4/3 303/4/3 302/4/3
f 309/4/3 305/4/3 304/4/3
f 310/4/3 305/4/3 309/4/3
f 311/4/3 307/4/3 306/4/3
f 312/4/3 308/4/3 302/4/3
f 313/4/3 308/4/3 312/4/3
f 314/4/3 310/4/3 309/4/3
f 315/4/3 310/4/3 314/4/3
f 316/4/3 310/4/3 315/4/3
f 317/4/3 307/4/3 311/4/3
f 318/4/3 307/4/3 317/4/3
f 325/4/3 320/4/3 319/4/3
f 326/4/3 322/4/3 321/4/3
f 327/4/3 322/4/3 326/4/3
f 328/4/3 324/4/3 323/4/3
f 329/4/3 325/4/3 319/4/3
f 330/4/3 325/4/3 329/4/3
f 331/4/3 327/4/3 326/4/3
f 332/4/3 327/4/3 331/4/3
f 333/4/3 327/4/3 332/4/3
f 334/4/3 324/4/3 328/4/3
f 335/4/3 324/4/3 334/4/3
f 338/8/3 337/8/3 336/8/3
f 339/8/3 337/8/3 338/8/3
f 344/3/3 343/3/3 342/3/3
f 345/3/3 343/3/3 344/3/3
f 346/3/3 341/3/3 340/3/3
f 346/5/3 342/5/3 341/5/3
f 347/3/3 344/3/3 342/3/3
f 347/5/3 342/5/3 346/5/3
f 348/3/3 344/3/3 347/3/3
f 350/3/3 346/3/3 340/3/3
f 350/3/3 349/3/3 348/3/3
f 350/3/3 348/3/3 347/3/3
f 350/3/3 347/3/3 346/3/3
f 351/3/3 349/3/3 350/3/3
f 352/2/3 351/2/3 350/2/3
f 353/2/3 351/2/3 352/2/3
f 354/1/3 353/1/3 352/1/3
f 355/1/3 353/1/3 354/1/3
f 356/1/3 353/1/3 355/1/3
f 357/1/3 353/1/3 356/1/3
f 358/3/3 355/3/3 354/3/3
f 359/6/3 356/6/3 355/6/3
f 359/3/3 355/3/3 358/3/3
f 360/6/3 356/6/3 359/6/3
f 361/3/3 357/3/3 356/3/3
f 361/6/3 356/6/3 360/6/3
f 362/3/3 357/3/3 361/3/3
f 363/8/3 360/8/3 359/8/3
f 363/6/3 359/6/3 358/6/3
f 364/6/3 362/6/3 361/6/3
f 364/8/3 360/8/3 363/8/3
f 364/6/3 361/6/3 360/6/3
f 365/6/3 362/6/3 364/6/3
f 366/6/3 364/6/3 363/6/3
f 366/8/3 365/8/3 364/8/3
f 367/6/3 362/6/3 365/6/3
f 367/8/3 365/8/3 366/8/3
f 368/6/3 362/6/3 367/6/3
f 369/3/3 358/3/3 354/3/3
f 369/6/3 363/6/3 358/6/3
f 369/6/3 366/6/3 363/6/3
f 369/6/3 367/6/3 366/6/3
f 370/6/3 367/6/3 369/6/3
f 371/8/3 368/8/3 367/8/3
f 371/6/3 367/6/3 370/6/3
f 372/6/3 362/6/3 368/6/3
f 372/8/3 368/8/3 371/8/3
f 373/3/3 357/3/3 362/3/3
f 373/6/3 362/6/3 372/6/3
f 374/3/3 370/3/3 369/3/3
f 374/3/3 369/3/3 354/3/3
f 375/6/3 371/6/3 370/6/3
f 375/3/3 370/3/3 374/3/3
f 375/6/3 372/6/3 371/6/3
f 376/3/3 373/3/3 372/3/3
f 376/6/3 372/6/3 375/6/3
f 377/3/3 357/3/3 373/3/3
f 377/3/3 373/3/3 376/3/3
f 380/8/3 379/8/3 378/8/3
f 381/8/3 379/8/3 380/8/3
f 384/3/3 383/3/3 382/3/3
f 385/3/3 383/3/3 384/3/3
f 386/3/3 383/3/3 385/3/3
f 387/3/3 383/3/3 386/3/3
f 389/3/3 384/3/3 382/3/3
f 390/5/3 385/5/3 384/5/3
f 390/3/3 384/3/3 389/3/3
f 391/3/3 386/3/3 385/3/3
f 391/5/3 385/5/3 390/5/3
f 392/5/3 387/5/3 386/5/3
f 392/3/3 386/3/3 391/3/3
f 393/3/3 383/3/3 387/3/3
f 393/5/3 387/5/3 392/5/3
f 394/3/3 392/3/3 391/3/3
f 394/3/3 389/3/3 388/3/3
f 394/3/3 393/3/3 392/3/3
f 394/3/3 390/3/3 389/3/3
f 394/3/3 391/3/3 390/3/3
f 395/3/3 383/3/3 393/3/3
f 395/3/3 393/3/3 394/3/3
f 398/3/3 397/3/3 396/3/3
f 399/3/3 397/3/3 398/3/3
f 400/3/3 397/3/3 399/3/3
f 401/3/3 397/3/3 400/3/3
f 402/3/3 397/3/3 401/3/3
f 403/3/3 397/3/3 402/3/3
f 404/3/3 400/3/3 399/3/3
f 404/5/3 401/5/3 400/5/3
f 405/3/3 402/3/3 401/3/3
f 405/5/3 401/5/3 404/5/3
f 406/5/3 403/5/3 402/5/3
f 406/3/3 402/3/3 405/3/3
f 407/3/3 397/3/3 403/3/3
f 407/5/3 403/5/3 406/5/3
f 408/3/3 406/3/3 405/3/3
f 408/3/3 405/3/3 404/3/3
f 408/3/3 407/3/3 406/3/3
f 408/3/3 404/3/3 399/3/3
f 409/3/3 397/3/3 407/3/3
f 409/3/3 407/3/3 408/3/3
f 413/10/3 411/10/3 410/10/3
f 414/11/3 412/11/3 411/11/3
f 414/10/3 411/10/3 413/10/3
f 415/11/3 412/11/3 414/11/3
f 419/9/3 417/9/3 416/9/3
f 420/10/3 418/10/3 417/10/3
f 420/9/3 417/9/3 419/9/3
f 421/10/3 418/10/3 420/10/3
f 425/10/3 423/10/3 422/10/3
f 426/11/3 424/11/3 423/11/3
f 426/10/3 423/10/3 425/10/3
f 427/11/3 424/11/3 426/11/3
f 431/9/3 429/9/3 428/9/3
f 432/10/3 430/10/3 429/10/3
f 432/9/3 429/9/3 431/9/3
f 433/10/3 430/10/3 432/10/3
f 434/9/4 435/9/4 437/9/4
f 435/10/4 436/10/4 438/10/4
f 437/9/4 435/9/4 438/9/4
f 438/10/4 436/10/4 439/10/4
f 440/10/4 441/10/4 443/10/4
f 441/11/4 442/11/4 444/11/4
f 443/10/4 441/10/4 444/10/4
f 444/11/4 442/11/4 445/11/4
f 446/9/4 447/9/4 449/9/4
f 447/10/4 448/10/4 450/10/4
f 449/9/4 447/9/4 450/9/4
f 450/10/4 448/10/4 451/10/4
f 452/10/4 453/10/4 455/10/4
f 453/11/4 454/11/4 456/11/4
f 455/10/4 453/10/4 456/10/4
f 456/11/4 454/11/4 457/11/4
f 458/3/4 459/3/4 460/3/4
f 460/3/4 459/3/4 461/3/4
f 461/3/4 459/3/4 462/3/4
f 462/3/4 459/3/4 463/3/4
f 458/3/4 460/3/4 465/3/4
f 460/5/4 461/5/4 466/5/4
f 465/3/4 460/3/4 466/3/4
f 461/3/4 462/3/4 467/3/4
f 466/5/4 461/5/4 467/5/4
f 462/5/4 463/5/4 468/5/4
f 467/3/4 462/3/4 468/3/4
f 463/3/4 459/3/4 469/3/4
f 468/5/4 463/5/4 469/5/4
f 467/3/4 468/3/4 470/3/4
f 464/3/4 465/3/4 470/3/4
f 468/3/4 469/3/4 470/3/4
f 465/3/4 466/3/4 470/3/4
f 466/3/4 467/3/4 470/3/4
f 469/3/4 459/3/4 471/3/4
f 470/3/4 469/3/4 471/3/4
f 472/3/4 473/3/4 474/3/4
f 474/3/4 473/3/4 475/3/4
f 475/3/4 473/3/4 476/3/4
f 476/3/4 473/3/4 477/3/4
f 477/3/4 473/3/4 478/3/4
f 478/3/4 473/3/4 479/3/4
f 475/3/4 476/3/4 480/3/4
f 476/5/4 477/5/4 480/5/4
f 477/3/4 478/3/4 481/3/4
f 480/5/4 477/5/4 481/5/4
f 478/5/4 479/5/4 482/5/4
f 481/3/4 478/3/4 482/3/4
f 479/3/4 473/3/4 483/3/4
f 482/5/4 479/5/4 483/5/4
f 481/3/4 482/3/4 484/3/4
f 480/3/4 481/3/4 484/3/4
f 482/3/4 483/3/4 484/3/4
f 475/3/4 480/3/4 484/3/4
f 483/3/4 473/3/4 485/3/4
f 484/3/4 483/3/4 485/3/4
f 486/8/4 487/8/4 488/8/4
f 488/8/4 487/8/4 489/8/4
f 490/3/4 491/3/4 492/3/4
f 492/3/4 491/3/4 493/3/4
f 493/3/4 491/3/4 494/3/4
f 494/3/4 491/3/4 495/3/4
f 490/3/4 492/3/4 496/3/4
f 492/5/4 493/5/4 496/5/4
f 493/3/4 494/3/4 497/3/4
f 496/5/4 493/5/4 497/5/4
f 494/5/4 495/5/4 498/5/4
f 497/3/4 494/3/4 498/3/4
f 495/3/4 491/3/4 499/3/4
f 498/5/4 495/5/4 499/5/4
f 497/3/4 498/3/4 500/3/4
f 496/3/4 497/3/4 500/3/4
f 498/3/4 499/3/4 500/3/4
f 490/3/4 496/3/4 500/3/4
f 499/3/4 491/3/4 501/3/4
f 500/3/4 499/3/4 501/3/4
f 502/8/4 503/8/4 504/8/4
f 504/8/4 503/8/4 505/8/4
f 506/4/4 507/4/4 513/4/4
f 508/4/4 509/4/4 514/4/4
f 509/4/4 510/4/4 514/4/4
f 514/4/4 510/4/4 515/4/4
f 511/4/4 512/4/4 516/4/4
f 506/4/4 513/4/4 517/4/4
f 517/4/4 513/4/4 518/4/4
f 514/4/4 515/4/4 519/4/4
f 519/4/4 515/4/4 520/4/4
f 516/4/4 512/4/4 521/4/4
f 521/4/4 512/4/4 522/4/4
f 523/4/4 524/4/4 530/4/4
f 525/4/4 526/4/4 531/4/4
f 526/4/4 527/4/4 531/4/4
f 531/4/4 527/4/4 532/4/4
f 528/4/4 529/4/4 533/4/4
f 523/4/4 530/4/4 534/4/4
f 534/4/4 530/4/4 535/4/4
f 531/4/4 532/4/4 536/4/4
f 536/4/4 532/4/4 537/4/4
f 533/4/4 529/4/4 538/4/4
f 538/4/4 529/4/4 539/4/4
f 542/10/4 543/10/4 545/10/4
f 543/11/4 544/11/4 546/11/4
f 545/10/4 543/10/4 546/10/4
f 546/11/4 544/11/4 547/11/4
f 540/8/4 541/8/4 548/8/4
f 548/8/4 541/8/4 549/8/4
f 542/10/4 545/10/4 550/10/4
f 550/10/4 545/10/4 551/10/4
f 547/11/4 544/11/4 552/11/4
f 552/11/4 544/11/4 553/11/4
f 548/7/4 549/7/4 554/7/4
f 540/8/4 548/8/4 554/8/4
f 549/8/4 541/8/4 555/8/4
f 554/7/4 549/7/4 555/7/4
f 550/9/4 551/9/4 556/9/4
f 552/10/4 553/10/4 557/10/4
f 550/9/4 556/9/4 558/9/4
f 556/10/4 557/10/4 559/10/4
f 558/9/4 556/9/4 559/9/4
f 557/10/4 553/10/4 560/10/4
f 559/10/4 557/10/4 560/10/4
f 540/8/4 554/8/4 561/8/4
f 554/8/4 555/8/4 561/8/4
f 555/8/4 541/8/4 562/8/4
f 561/8/4 555/8/4 562/8/4
f 540/8/4 561/8/4 563/8/4
f 561/7/4 562/7/4 563/7/4
f 562/8/4 541/8/4 564/8/4
f 563/7/4 562/7/4 564/7/4
f 540/8/4 563/8/4 565/8/4
f 563/8/4 564/8/4 565/8/4
f 564/8/4 541/8/4 566/8/4
f 565/8/4 564/8/4 566/8/4
f 540/8/4 565/8/4 567/8/4
f 565/7/4 566/7/4 567/7/4
f 566/8/4 541/8/4 568/8/4
f 567/7/4 566/7/4 568/7/4
f 540/8/4 567/8/4 569/8/4
f 567/8/4 568/8/4 569/8/4
f 568/8/4 541/8/4 570/8/4
f 569/8/4 568/8/4 570/8/4
f 540/8/4 569/8/4 571/8/4
f 569/7/4 570/7/4 571/7/4
f 570/8/4 541/8/4 572/8/4
f 571/7/4 570/7/4 572/7/4
f 540/8/4 571/8/4 573/8/4
f 571/8/4 572/8/4 573/8/4
f 572/8/4 541/8/4 574/8/4
f 573/8/4 572/8/4 574/8/4
f 540/8/4 573/8/4 578/8/4
f 573/7/4 574/7/4 578/7/4
f 574/8/4 541/8/4 579/8/4
f 578/7/4 574/7/4 579/7/4
f 575/10/4 576/10/4 580/10/4
f 576/11/4 577/11/4 581/11/4
f 580/10/4 576/10/4 581/10/4
f 581/11/4 577/11/4 582/11/4
f 575/10/4 580/10/4 583/10/4
f 583/10/4 580/10/4 584/10/4
f 582/11/4 577/11/4 585/11/4
f 585/11/4 577/11/4 586/11/4
f 540/8/4 578/8/4 587/8/4
f 578/8/4 579/8/4 587/8/4
f 579/8/4 541/8/4 588/8/4
f 587/8/4 579/8/4 588/8/4
f 583/9/4 584/9/4 589/9/4
f 585/10/4 586/10/4 590/10/4
f 540/8/4 587/8/4 591/8/4
f 587/7/4 588/7/4 591/7/4
f 588/8/4 541/8/4 592/8/4
f 591/7/4 588/7/4 592/7/4
f 583/9/4 589/9/4 593/9/4
f 589/10/4 590/10/4 594/10/4
f 593/9/4 589/9/4 594/9/4
f 590/10/4 586/10/4 595/10/4
f 594/10/4 590/10/4 595/10/4
f 540/8/4 591/8/4 596/8/4
f 591/8/4 592/8/4 596/8/4
f 592/8/4 541/8/4 597/8/4
f 596/8/4 592/8/4 597/8/4
f 602/4/5 599/4/5 598/4/5
f 603/4/5 599/4/5 602/4/5
f 607/4/5 601/4/5 600/4/5
f 608/4/5 601/4/5 607/4/5
f 610/3/5 603/3/5 602/3/5
f 610/3/5 604/3/5 603/3/5
f 611/2/5 605/2/5 604/2/5
f 611/3/5 604/3/5 610/3/5
f 612/1/5 606/1/5 605/1/5
f 612/2/5 605/2/5 611/2/5
f 613/3/5 608/3/5 607/3/5
f 613/1/5 606/1/5 612/1/5
f 613/3/5 607/3/5 606/3/5
f 614/3/5 608/3/5 613/3/5
f 616/3/5 611/3/5 610/3/5
f 616/3/5 615/3/5 614/3/5
f 616/3/5 613/3/5 612/3/5
f 616/3/5 614/3/5 613/3/5
f 616/3/5 612/3/5 611/3/5
f 616/3/5 610/3/5 609/3/5
f 617/3/5 615/3/5 616/3/5
f 618/3/5 615/3/5 617/3/5
f 619/3/5 615/3/5 618/3/5
f 620/3/5 618/3/5 617/3/5
f 621/3/5 618/3/5 620/3/5
f 622/3/5 618/3/5 621/3/5
f 623/3/5 618/3/5 622/3/5
f 624/4/5 621/4/5 620/4/5
f 625/4/5 621/4/5 624/4/5
f 626/4/5 623/4/5 622/4/5
f 627/4/5 623/4/5 626/4/5
f 634/9/5 629/9/5 628/9/5
f 635/9/5 629/9/5 634/9/5
f 636/10/5 630/10/5 629/10/5
f 636/9/5 629/9/5 635/9/5
f 637/10/5 630/10/5 636/10/5
f 638/10/5 630/10/5 637/10/5
f 639/9/5 632/9/5 631/9/5
f 640/9/5 632/9/5 639/9/5
f 641/10/5 633/10/5 632/10/5
f 641/9/5 632/9/5 640/9/5
f 642/10/5 633/10/5 641/10/5
f 643/10/5 633/10/5 642/10/5
f 650/10/5 645/10/5 644/10/5
f 651/11/5 646/11/5 645/11/5
f 651/10/5 645/10/5 650/10/5
f 652/11/5 646/11/5 651/11/5
f 653/10/5 648/10/5 647/10/5
f 654/11/5 649/11/5 648/11/5
f 654/10/5 648/10/5 653/10/5
f 655/11/5 649/11/5 654/11/5
f 666/10/5 657/10/5 656/10/5
f 666/10/5 658/10/5 657/10/5
f 667/9/5 659/9/5 658/9/5
f 667/10/5 658/10/5 666/10/5
f 667/9/5 660/9/5 659/9/5
f 668/9/5 660/9/5 667/9/5
f 669/10/5 663/10/5 662/10/5
f 669/10/5 662/10/5 661/10/5
f 670/9/5 664/9/5 663/9/5
f 670/10/5 663/10/5 669/10/5
f 670/9/5 665/9/5 664/9/5
f 671/9/5 665/9/5 670/9/5
f 676/3/5 673/3/5 672/3/5
f 677/3/5 673/3/5 676/3/5
f 678/3/5 675/3/5 674/3/5
f 679/3/5 675/3/5 678/3/5
f 686/11/5 681/11/5 680/11/5
f 687/10/5 682/10/5 681/10/5
f 687/11/5 681/11/5 686/11/5
f 688/10/5 682/10/5 687/10/5
f 689/11/5 684/11/5 683/11/5
f 690/10/5 685/10/5 684/10/5
f 690/11/5 684/11/5 689/11/5
f 691/10/5 685/10/5 690/10/5
f 694/8/5 693/8/5 692/8/5
f 695/8/5 693/8/5 694/8/5
f 700/8/5 697/8/5 696/8/5
f 701/8/5 697/8/5 700/8/5
f 702/8/5 699/8/5 698/8/5
f 703/8/5 699/8/5 702/8/5
f 705/8/5 700/8/5 696/8/5
f 706/8/5 700/8/5 705/8/5
f 707/8/5 697/8/5 701/8/5
f 708/8/5 697/8/5 707/8/5
f 709/8/5 702/8/5 698/8/5
f 710/8/5 702/8/5 709/8/5
f 711/8/5 702/8/5 710/8/5
f 712/8/5 702/8/5 711/8/5
f 713/8/5 702/8/5 712/8/5
f 714/8/5 699/8/5 703/8/5
f 715/8/5 699/8/5 714/8/5
f 717/8/5 706/8/5 705/8/5
f 717/8/5 705/8/5 704/8/5
f 718/8/5 706/8/5 717/8/5
f 719/8/5 716/8/5 715/8/5
f 719/8/5 715/8/5 714/8/5
f 720/8/5 716/8/5 719/8/5
f 725/8/5 722/8/5 721/8/5
f 726/8/5 722/8/5 725/8/5
f 727/8/5 722/8/5 726/8/5
f 730/8/5 724/8/5 723/8/5
f 731/8/5 724/8/5 730/8/5
f 732/8/5 724/8/5 731/8/5
f 733/8/5 727/8/5 726/8/5
f 734/8/5 729/8/5 728/8/5
f 735/8/5 729/8/5 734/8/5
f 736/8/5 731/8/5 730/8/5
f 737/8/5 733/8/5 726/8/5
f 737/8/5 736/8/5 735/8/5
f 737/8/5 735/8/5 734/8/5
f 737/8/5 734/8/5 733/8/5
f 738/8/5 731/8/5 736/8/5
f 738/8/5 736/8/5 737/8/5
f 739/9/6 740/9/6 745/9/6
f 740/10/6 741/10/6 746/10/6
f 745/9/6 740/9/6 746/9/6
f 746/10/6 741/10/6 747/10/6
f 742/9/6 743/9/6 748/9/6
f 743/10/6 744/10/6 749/10/6
f 748/9/6 743/9/6 749/9/6
f 749/10/6 744/10/6 750/10/6
f 751/10/6 752/10/6 757/10/6
f 757/10/6 752/10/6 758/10/6
f 752/11/6 753/11/6 759/11/6
f 758/10/6 752/10/6 759/10/6
f 759/11/6 753/11/6 760/11/6
f 760/11/6 753/11/6 761/11/6
f 754/10/6 755/10/6 762/10/6
f 762/10/6 755/10/6 763/10/6
f 755/11/6 756/11/6 764/11/6
f 763/10/6 755/10/6 764/10/6
f 764/11/6 756/11/6 765/11/6
f 765/11/6 756/11/6 766/11/6
f 767/10/6 768/10/6 773/10/6
f 768/9/6 769/9/6 774/9/6
f 773/10/6 768/10/6 774/10/6
f 774/9/6 769/9/6 775/9/6
f 770/10/6 771/10/6 776/10/6
f 771/9/6 772/9/6 777/9/6
f 776/10/6 771/10/6 777/10/6
f 777/9/6 772/9/6 778/9/6
f 779/11/6 780/11/6 789/11/6
f 780/11/6 781/11/6 789/11/6
f 781/10/6 782/10/6 790/10/6
f 789/11/6 781/11/6 790/11/6
f 782/10/6 783/10/6 790/10/6
f 790/10/6 783/10/6 791/10/6
f 785/11/6 786/11/6 792/11/6
f 784/11/6 785/11/6 792/11/6
f 787/10/6 788/10/6 793/10/6
f 792/11/6 786/11/6 793/11/6
f 786/10/6 787/10/6 793/10/6
f 793/10/6 788/10/6 794/10/6
f 795/8/6 796/8/6 798/8/6
f 798/8/6 796/8/6 799/8/6
f 797/8/6 798/8/6 801/8/6
f 799/8/6 800/8/6 801/8/6
f 798/8/6 799/8/6 801/8/6
f 801/8/6 800/8/6 802/8/6
f 802/8/6 800/8/6 803/8/6
f 803/8/6 800/8/6 804/8/6
f 802/8/6 803/8/6 805/8/6
f 805/8/6 803/8/6 806/8/6
