# MagicaVoxel @ Ephtracy

# group
o 

# material
mtllib model-0.mtl
usemtl palette

# normals
vn 0 0 1
vn 0 0 -1
vn 1 0 0
vn -1 0 0
vn 0 -1 0
vn 0 1 0

# texcoords
vt 0.0175781 0.5
vt 0.0214844 0.5
vt 0.0253906 0.5
vt 0.0761719 0.5
vt 0.0878906 0.5

# verts
v 0.5 0.2 1.1
v -0.5 0.2 1.1
v 0.5 0.4 1.1
v -0.5 0.4 1.1
v 0.5 0 1
v -0.5 0 1
v 0.6 0.2 1
v 0.5 0.2 1
v -0.5 0.2 1
v -0.6 0.2 1
v 0.6 0.4 1
v 0.5 0.4 1
v -0.5 0.4 1
v -0.6 0.4 1
v 0.5 0.7 1
v -0.5 0.7 1
v 0.6 0 0.8
v 0.5 0 0.8
v -0.5 0 0.8
v -0.6 0 0.8
v 0.7 0.2 0.8
v 0.6 0.2 0.8
v 0.5 0.2 0.8
v -0.5 0.2 0.8
v -0.6 0.2 0.8
v -0.7 0.2 0.8
v 0.6 0.4 0.8
v 0.5 0.4 0.8
v -0.5 0.4 0.8
v -0.6 0.4 0.8
v 0.7 0.7 0.8
v 0.6 0.7 0.8
v 0.5 0.7 0.8
v -0.5 0.7 0.8
v -0.6 0.7 0.8
v -0.7 0.7 0.8
v 0.7 0.4 -0.6
v 0.6 0.4 -0.6
v -0.6 0.4 -0.6
v -0.7 0.4 -0.6
v 0.6 0.5 -0.6
v 0.6 0.6 -0.6
v 0.7 0.7 -0.6
v 0.6 0.7 -0.6
v -0.6 0.7 -0.6
v -0.7 0.7 -0.6
v 0.7 0.4 0.6
v 0.6 0.4 0.6
v -0.6 0.4 0.6
v -0.7 0.4 0.6
v 0.6 0.5 0.6
v 0.6 0.6 0.6
v 0.7 0.7 0.6
v 0.6 0.7 0.6
v -0.6 0.7 0.6
v -0.7 0.7 0.6
v 0.6 0 -0.8
v 0.5 0 -0.8
v 0.7 0.2 -0.8
v 0.6 0.2 -0.8
v 0.5 0.2 -0.8
v 0.6 0.4 -0.8
v 0.5 0.4 -0.8
v -0.6 0.4 -0.8
v -0.7 0.4 -0.8
v 0.7 0.7 -0.8
v 0.6 0.7 -0.8
v 0.5 0.7 -0.8
v -0.6 0.7 -0.8
v -0.7 0.7 -0.8
v 0.5 0 -1
v -0.6 0 -1
v 0.6 0.2 -1
v 0.5 0.2 -1
v -0.6 0.2 -1
v -0.7 0.2 -1
v 0.6 0.4 -1
v 0.5 0.4 -1
v -0.6 0.4 -1
v -0.7 0.4 -1
v 0.5 0.7 -1
v -0.6 0.7 -1
v 0.5 0.2 -1.1
v -0.6 0.2 -1.1
v 0.5 0.4 -1.1
v -0.6 0.4 -1.1
v 0.7 0.2 0.8
v 0.7 0.7 0.8
v 0.7 0.4 0.6
v 0.7 0.7 0.6
v 0.7 0.4 -0.6
v 0.7 0.7 -0.6
v 0.7 0.2 -0.8
v 0.7 0.7 -0.8
v 0.6 0.2 1
v 0.6 0.4 1
v 0.6 0 0.8
v 0.6 0.2 0.8
v 0.6 0.4 0.8
v 0.6 0.4 0.6
v 0.6 0.5 0.6
v 0.6 0.6 0.6
v 0.6 0.7 0.6
v 0.6 0.5 0.2
v 0.6 0.6 0.2
v 0.6 0 0.1
v 0.6 0.2 0.1
v 0.6 0.4 0.1
v 0.6 0.7 0.1
v 0.6 0 0
v 0.6 0.2 0
v 0.6 0.4 0
v 0.6 0.7 0
v 0.6 0 -0.1
v 0.6 0.2 -0.1
v 0.6 0.4 -0.1
v 0.6 0.7 -0.1
v 0.6 0.5 -0.2
v 0.6 0.6 -0.2
v 0.6 0.4 -0.6
v 0.6 0.5 -0.6
v 0.6 0.6 -0.6
v 0.6 0.7 -0.6
v 0.6 0 -0.8
v 0.6 0.2 -0.8
v 0.6 0.4 -0.8
v 0.6 0.2 -1
v 0.6 0.4 -1
v 0.5 0.2 1.1
v 0.5 0.4 1.1
v 0.5 0 1
v 0.5 0.2 1
v 0.5 0.4 1
v 0.5 0.7 1
v 0.5 0 0.8
v 0.5 0.2 0.8
v 0.5 0.4 0.8
v 0.5 0.7 0.8
v 0.5 0 -0.8
v 0.5 0.2 -0.8
v 0.5 0.4 -0.8
v 0.5 0.7 -0.8
v 0.5 0 -1
v 0.5 0.2 -1
v 0.5 0.4 -1
v 0.5 0.7 -1
v 0.5 0.2 -1.1
v 0.5 0.4 -1.1
v -0.5 0.2 1.1
v -0.5 0.4 1.1
v -0.5 0 1
v -0.5 0.2 1
v -0.5 0.4 1
v -0.5 0.7 1
v -0.5 0 0.8
v -0.5 0.2 0.8
v -0.5 0.4 0.8
v -0.5 0.7 0.8
v -0.6 0.2 1
v -0.6 0.4 1
v -0.6 0 0.8
v -0.6 0.2 0.8
v -0.6 0.4 0.8
v -0.6 0.4 0.6
v -0.6 0.7 0.6
v -0.6 0.5 0.4
v -0.6 0.6 0.4
v -0.6 0.5 -0.4
v -0.6 0.6 -0.4
v -0.6 0.4 -0.6
v -0.6 0.7 -0.6
v -0.6 0.4 -0.8
v -0.6 0.7 -0.8
v -0.6 0 -1
v -0.6 0.2 -1
v -0.6 0.4 -1
v -0.6 0.7 -1
v -0.6 0.2 -1.1
v -0.6 0.4 -1.1
v -0.7 0.2 0.8
v -0.7 0.7 0.8
v -0.7 0.4 0.6
v -0.7 0.7 0.6
v -0.7 0.4 -0.6
v -0.7 0.7 -0.6
v -0.7 0.4 -0.8
v -0.7 0.7 -0.8
v -0.7 0.2 -1
v -0.7 0.4 -1
v 0.6 0 0.8
v 0.6 0 0.1
v 0.6 0 0
v 0.6 0 -0.1
v 0.6 0 -0.8
v 0.5 0 1
v 0.5 0 0.8
v 0.5 0 0.1
v 0.5 0 0
v 0.5 0 -0.1
v 0.5 0 -0.8
v 0.5 0 -1
v -0.5 0 1
v -0.5 0 0.8
v -0.6 0 0.8
v -0.6 0 -1
v 0.7 0.2 0.8
v 0.7 0.2 -0.8
v 0.6 0.2 1
v 0.6 0.2 0.8
v 0.6 0.2 0.1
v 0.6 0.2 0
v 0.6 0.2 -0.1
v 0.6 0.2 -0.8
v 0.6 0.2 -1
v 0.5 0.2 1.1
v 0.5 0.2 1
v 0.5 0.2 0.8
v 0.5 0.2 -0.8
v 0.5 0.2 -1
v 0.5 0.2 -1.1
v -0.5 0.2 1.1
v -0.5 0.2 1
v -0.5 0.2 0.8
v -0.6 0.2 1
v -0.6 0.2 0.8
v -0.6 0.2 -1
v -0.6 0.2 -1.1
v -0.7 0.2 0.8
v -0.7 0.2 -1
v 0.7 0.4 0.6
v 0.7 0.4 -0.6
v 0.6 0.4 1
v 0.6 0.4 0.8
v 0.6 0.4 0.6
v 0.6 0.4 0.1
v 0.6 0.4 0
v 0.6 0.4 -0.1
v 0.6 0.4 -0.6
v 0.6 0.4 -0.8
v 0.6 0.4 -1
v 0.5 0.4 1.1
v 0.5 0.4 1
v 0.5 0.4 0.8
v 0.5 0.4 -0.8
v 0.5 0.4 -1
v 0.5 0.4 -1.1
v -0.5 0.4 1.1
v -0.5 0.4 1
v -0.5 0.4 0.8
v -0.6 0.4 1
v -0.6 0.4 0.8
v -0.6 0.4 0.6
v -0.6 0.4 -0.6
v -0.6 0.4 -0.8
v -0.6 0.4 -1
v -0.6 0.4 -1.1
v -0.7 0.4 0.6
v -0.7 0.4 -0.6
v -0.7 0.4 -0.8
v -0.7 0.4 -1
v 0.7 0.7 0.8
v 0.7 0.7 0.6
v 0.7 0.7 -0.6
v 0.7 0.7 -0.8
v 0.6 0.7 0.8
v 0.6 0.7 0.6
v 0.6 0.7 0.1
v 0.6 0.7 0
v 0.6 0.7 -0.1
v 0.6 0.7 -0.6
v 0.6 0.7 -0.8
v 0.5 0.7 1
v 0.5 0.7 0.8
v 0.5 0.7 0.1
v 0.5 0.7 0
v 0.5 0.7 -0.1
v 0.5 0.7 -0.8
v 0.5 0.7 -1
v -0.5 0.7 1
v -0.5 0.7 0.8
v -0.6 0.7 0.8
v -0.6 0.7 0.6
v -0.6 0.7 -0.6
v -0.6 0.7 -0.8
v -0.6 0.7 -1
v -0.7 0.7 0.8
v -0.7 0.7 0.6
v -0.7 0.7 -0.6
v -0.7 0.7 -0.8

# faces
f 3/4/1 2/4/1 1/4/1
f 4/4/1 2/4/1 3/4/1
f 8/3/1 6/3/1 5/3/1
f 9/3/1 6/3/1 8/3/1
f 11/4/1 8/4/1 7/4/1
f 12/4/1 8/4/1 11/4/1
f 13/4/1 10/4/1 9/4/1
f 14/4/1 10/4/1 13/4/1
f 15/3/1 13/3/1 12/3/1
f 16/3/1 13/3/1 15/3/1
f 22/3/1 18/3/1 17/3/1
f 23/3/1 18/3/1 22/3/1
f 24/3/1 20/3/1 19/3/1
f 25/3/1 20/3/1 24/3/1
f 27/4/1 22/4/1 21/4/1
f 30/4/1 26/4/1 25/4/1
f 31/4/1 27/4/1 21/4/1
f 32/3/1 28/3/1 27/3/1
f 32/4/1 27/4/1 31/4/1
f 33/3/1 28/3/1 32/3/1
f 34/3/1 30/3/1 29/3/1
f 35/4/1 26/4/1 30/4/1
f 35/3/1 30/3/1 34/3/1
f 36/4/1 26/4/1 35/4/1
f 41/4/1 38/4/1 37/4/1
f 42/4/1 41/4/1 37/4/1
f 43/4/1 42/4/1 37/4/1
f 44/4/1 42/4/1 43/4/1
f 45/4/1 40/4/1 39/4/1
f 46/4/1 40/4/1 45/4/1
f 47/4/2 48/4/2 51/4/2
f 47/4/2 51/4/2 52/4/2
f 47/4/2 52/4/2 53/4/2
f 53/4/2 52/4/2 54/4/2
f 49/4/2 50/4/2 55/4/2
f 55/4/2 50/4/2 56/4/2
f 57/3/2 58/3/2 60/3/2
f 60/3/2 58/3/2 61/3/2
f 59/4/2 60/4/2 62/4/2
f 59/4/2 62/4/2 66/4/2
f 62/3/2 63/3/2 67/3/2
f 66/4/2 62/4/2 67/4/2
f 67/3/2 63/3/2 68/3/2
f 64/4/2 65/4/2 69/4/2
f 69/4/2 65/4/2 70/4/2
f 71/3/2 72/3/2 74/3/2
f 74/3/2 72/3/2 75/3/2
f 73/4/2 74/4/2 77/4/2
f 77/4/2 74/4/2 78/4/2
f 75/4/2 76/4/2 79/4/2
f 79/4/2 76/4/2 80/4/2
f 78/3/2 79/3/2 81/3/2
f 81/3/2 79/3/2 82/3/2
f 83/4/2 84/4/2 85/4/2
f 85/4/2 84/4/2 86/4/2
f 89/4/3 88/4/3 87/4/3
f 90/4/3 88/4/3 89/4/3
f 91/4/3 89/4/3 87/4/3
f 93/4/3 91/4/3 87/4/3
f 93/4/3 92/4/3 91/4/3
f 94/4/3 92/4/3 93/4/3
f 98/4/3 96/4/3 95/4/3
f 99/4/3 96/4/3 98/4/3
f 104/3/3 101/3/3 100/3/3
f 104/5/3 102/5/3 101/5/3
f 105/3/3 103/3/3 102/3/3
f 105/5/3 102/5/3 104/5/3
f 106/3/3 98/3/3 97/3/3
f 107/3/3 98/3/3 106/3/3
f 108/3/3 104/3/3 100/3/3
f 108/3/3 105/3/3 104/3/3
f 109/3/3 103/3/3 105/3/3
f 109/3/3 105/3/3 108/3/3
f 110/2/3 107/2/3 106/2/3
f 111/2/3 107/2/3 110/2/3
f 112/2/3 109/2/3 108/2/3
f 113/2/3 109/2/3 112/2/3
f 114/1/3 111/1/3 110/1/3
f 115/1/3 111/1/3 114/1/3
f 116/1/3 113/1/3 112/1/3
f 117/1/3 113/1/3 116/1/3
f 118/3/3 117/3/3 116/3/3
f 119/3/3 117/3/3 118/3/3
f 120/3/3 118/3/3 116/3/3
f 121/5/3 119/5/3 118/5/3
f 121/3/3 118/3/3 120/3/3
f 122/3/3 117/3/3 119/3/3
f 122/5/3 119/5/3 121/5/3
f 123/3/3 117/3/3 122/3/3
f 124/3/3 115/3/3 114/3/3
f 125/3/3 115/3/3 124/3/3
f 127/4/3 126/4/3 125/4/3
f 128/4/3 126/4/3 127/4/3
f 132/4/3 130/4/3 129/4/3
f 133/4/3 130/4/3 132/4/3
f 135/3/3 132/3/3 131/3/3
f 136/3/3 132/3/3 135/3/3
f 137/3/3 134/3/3 133/3/3
f 138/3/3 134/3/3 137/3/3
f 143/3/3 140/3/3 139/3/3
f 144/3/3 140/3/3 143/3/3
f 145/3/3 142/3/3 141/3/3
f 146/3/3 142/3/3 145/3/3
f 147/4/3 145/4/3 144/4/3
f 148/4/3 145/4/3 147/4/3
f 149/4/4 150/4/4 152/4/4
f 152/4/4 150/4/4 153/4/4
f 151/3/4 152/3/4 155/3/4
f 155/3/4 152/3/4 156/3/4
f 153/3/4 154/3/4 157/3/4
f 157/3/4 154/3/4 158/3/4
f 159/4/4 160/4/4 162/4/4
f 162/4/4 160/4/4 163/4/4
f 164/3/4 165/3/4 166/3/4
f 166/3/4 165/3/4 167/3/4
f 164/3/4 166/3/4 168/3/4
f 166/5/4 167/5/4 168/5/4
f 167/3/4 165/3/4 169/3/4
f 168/5/4 167/5/4 169/5/4
f 164/3/4 168/3/4 170/3/4
f 168/3/4 169/3/4 170/3/4
f 169/3/4 165/3/4 171/3/4
f 170/3/4 169/3/4 171/3/4
f 161/3/4 162/3/4 174/3/4
f 174/3/4 162/3/4 175/3/4
f 172/3/4 173/3/4 176/3/4
f 176/3/4 173/3/4 177/3/4
f 175/4/4 176/4/4 178/4/4
f 178/4/4 176/4/4 179/4/4
f 180/4/4 181/4/4 182/4/4
f 182/4/4 181/4/4 183/4/4
f 180/4/4 182/4/4 184/4/4
f 180/4/4 184/4/4 186/4/4
f 184/4/4 185/4/4 186/4/4
f 186/4/4 185/4/4 187/4/4
f 180/4/4 186/4/4 188/4/4
f 188/4/4 186/4/4 189/4/4
f 196/3/5 191/3/5 190/3/5
f 197/2/5 192/2/5 191/2/5
f 197/3/5 191/3/5 196/3/5
f 198/1/5 193/1/5 192/1/5
f 198/2/5 192/2/5 197/2/5
f 199/3/5 194/3/5 193/3/5
f 199/1/5 193/1/5 198/1/5
f 200/3/5 194/3/5 199/3/5
f 202/3/5 198/3/5 197/3/5
f 202/3/5 201/3/5 200/3/5
f 202/3/5 200/3/5 199/3/5
f 202/3/5 199/3/5 198/3/5
f 202/3/5 196/3/5 195/3/5
f 202/3/5 197/3/5 196/3/5
f 203/3/5 201/3/5 202/3/5
f 204/3/5 201/3/5 203/3/5
f 205/3/5 201/3/5 204/3/5
f 209/4/5 207/4/5 206/4/5
f 210/4/5 207/4/5 209/4/5
f 211/4/5 207/4/5 210/4/5
f 212/4/5 207/4/5 211/4/5
f 213/4/5 207/4/5 212/4/5
f 216/4/5 209/4/5 208/4/5
f 217/4/5 209/4/5 216/4/5
f 218/4/5 214/4/5 213/4/5
f 219/4/5 214/4/5 218/4/5
f 221/4/5 216/4/5 215/4/5
f 222/4/5 216/4/5 221/4/5
f 224/4/5 223/4/5 222/4/5
f 225/4/5 223/4/5 224/4/5
f 226/4/5 220/4/5 219/4/5
f 227/4/5 220/4/5 226/4/5
f 228/4/5 226/4/5 225/4/5
f 229/4/5 226/4/5 228/4/5
f 230/4/6 231/4/6 234/4/6
f 234/4/6 231/4/6 235/4/6
f 235/4/6 231/4/6 236/4/6
f 236/4/6 231/4/6 237/4/6
f 237/4/6 231/4/6 238/4/6
f 232/4/6 233/4/6 242/4/6
f 242/4/6 233/4/6 243/4/6
f 239/4/6 240/4/6 244/4/6
f 244/4/6 240/4/6 245/4/6
f 241/4/6 242/4/6 247/4/6
f 247/4/6 242/4/6 248/4/6
f 248/4/6 249/4/6 250/4/6
f 250/4/6 249/4/6 251/4/6
f 245/4/6 246/4/6 255/4/6
f 255/4/6 246/4/6 256/4/6
f 252/4/6 253/4/6 257/4/6
f 257/4/6 253/4/6 258/4/6
f 254/4/6 255/4/6 259/4/6
f 259/4/6 255/4/6 260/4/6
f 261/4/6 262/4/6 265/4/6
f 265/4/6 262/4/6 266/4/6
f 263/4/6 264/4/6 270/4/6
f 270/4/6 264/4/6 271/4/6
f 265/3/6 266/3/6 273/3/6
f 266/3/6 267/3/6 273/3/6
f 267/2/6 268/2/6 274/2/6
f 273/3/6 267/3/6 274/3/6
f 268/1/6 269/1/6 275/1/6
f 274/2/6 268/2/6 275/2/6
f 270/3/6 271/3/6 276/3/6
f 275/1/6 269/1/6 276/1/6
f 269/3/6 270/3/6 276/3/6
f 276/3/6 271/3/6 277/3/6
f 273/3/6 274/3/6 279/3/6
f 277/3/6 278/3/6 279/3/6
f 275/3/6 276/3/6 279/3/6
f 276/3/6 277/3/6 279/3/6
f 274/3/6 275/3/6 279/3/6
f 272/3/6 273/3/6 279/3/6
f 279/3/6 278/3/6 280/3/6
f 280/3/6 278/3/6 281/3/6
f 281/3/6 278/3/6 282/3/6
f 282/3/6 278/3/6 283/3/6
f 283/3/6 278/3/6 284/3/6
f 284/3/6 278/3/6 285/3/6
f 281/4/6 282/4/6 286/4/6
f 286/4/6 282/4/6 287/4/6
f 283/4/6 284/4/6 288/4/6
f 288/4/6 284/4/6 289/4/6
