# MagicaVoxel @ Ephtracy

# group
o 

# material
mtllib model-5.mtl
usemtl palette

# normals
vn 0 0 1
vn 0 0 -1
vn 1 0 0
vn -1 0 0
vn 0 -1 0
vn 0 1 0

# texcoords
vt 0.0253906 0.5
vt 0.0878906 0.5
vt 0.779297 0.5

# verts
v 0.4 1.3 -1.6
v -0.4 1.3 -1.6
v 0.4 2.1 -1.6
v -0.4 2.1 -1.6
v 0.4 1.3 -2.4
v -0.4 1.3 -2.4
v 0.4 2.1 -2.4
v -0.4 2.1 -2.4
v 0.4 1.3 -1.6
v 0.4 2.1 -1.6
v 0.4 1.7 -1.8
v 0.4 2 -1.8
v 0.4 1.8 -1.9
v 0.4 1.9 -1.9
v 0.4 1.8 -2
v 0.4 1.9 -2
v 0.4 1.7 -2.1
v 0.4 2 -2.1
v 0.4 1.3 -2.2
v 0.4 2.1 -2.2
v 0.4 1.3 -2.4
v 0.4 2.1 -2.4
v -0.4 1.3 -1.6
v -0.4 2.1 -1.6
v -0.4 1.7 -1.8
v -0.4 2 -1.8
v -0.4 1.8 -1.9
v -0.4 1.9 -1.9
v -0.4 1.8 -2
v -0.4 1.9 -2
v -0.4 1.7 -2.1
v -0.4 2 -2.1
v -0.4 1.3 -2.2
v -0.4 2.1 -2.2
v -0.4 1.3 -2.4
v -0.4 2.1 -2.4
v 0.4 1.3 -1.6
v 0.4 1.3 -2.2
v 0.4 1.3 -2.4
v -0.4 1.3 -1.6
v -0.4 1.3 -2.2
v -0.4 1.3 -2.4
v 0.4 2.1 -1.6
v 0.4 2.1 -2.2
v 0.4 2.1 -2.4
v 0.2 2.1 -1.8
v 0.2 2.1 -2.1
v 0.1 2.1 -1.8
v 0.1 2.1 -2.1
v -0.1 2.1 -1.8
v -0.1 2.1 -2.1
v -0.2 2.1 -1.8
v -0.2 2.1 -2.1
v -0.4 2.1 -1.6
v -0.4 2.1 -2.2
v -0.4 2.1 -2.4

# faces
f 3/1/1 2/1/1 1/1/1
f 4/1/1 2/1/1 3/1/1
f 5/3/2 6/3/2 7/3/2
f 7/3/2 6/3/2 8/3/2
f 11/1/3 10/1/3 9/1/3
f 12/1/3 10/1/3 11/1/3
f 13/2/3 12/2/3 11/2/3
f 14/2/3 12/2/3 13/2/3
f 15/2/3 13/2/3 11/2/3
f 15/1/3 14/1/3 13/1/3
f 16/2/3 12/2/3 14/2/3
f 16/1/3 14/1/3 15/1/3
f 17/1/3 11/1/3 9/1/3
f 17/2/3 15/2/3 11/2/3
f 17/2/3 16/2/3 15/2/3
f 18/2/3 12/2/3 16/2/3
f 18/2/3 16/2/3 17/2/3
f 18/1/3 10/1/3 12/1/3
f 19/1/3 17/1/3 9/1/3
f 19/1/3 18/1/3 17/1/3
f 20/1/3 10/1/3 18/1/3
f 20/1/3 18/1/3 19/1/3
f 21/3/3 20/3/3 19/3/3
f 22/3/3 20/3/3 21/3/3
f 23/1/4 24/1/4 25/1/4
f 25/1/4 24/1/4 26/1/4
f 25/2/4 26/2/4 27/2/4
f 27/2/4 26/2/4 28/2/4
f 25/2/4 27/2/4 29/2/4
f 27/1/4 28/1/4 29/1/4
f 28/2/4 26/2/4 30/2/4
f 29/1/4 28/1/4 30/1/4
f 23/1/4 25/1/4 31/1/4
f 25/2/4 29/2/4 31/2/4
f 29/2/4 30/2/4 31/2/4
f 30/2/4 26/2/4 32/2/4
f 31/2/4 30/2/4 32/2/4
f 26/1/4 24/1/4 32/1/4
f 23/1/4 31/1/4 33/1/4
f 31/1/4 32/1/4 33/1/4
f 32/1/4 24/1/4 34/1/4
f 33/1/4 32/1/4 34/1/4
f 33/3/4 34/3/4 35/3/4
f 35/3/4 34/3/4 36/3/4
f 40/1/5 38/1/5 37/1/5
f 41/3/5 39/3/5 38/3/5
f 41/1/5 38/1/5 40/1/5
f 42/3/5 39/3/5 41/3/5
f 43/1/6 44/1/6 46/1/6
f 46/1/6 44/1/6 47/1/6
f 43/1/6 46/1/6 48/1/6
f 46/2/6 47/2/6 48/2/6
f 47/1/6 44/1/6 49/1/6
f 48/2/6 47/2/6 49/2/6
f 43/1/6 48/1/6 50/1/6
f 48/1/6 49/1/6 50/1/6
f 49/1/6 44/1/6 51/1/6
f 50/1/6 49/1/6 51/1/6
f 43/1/6 50/1/6 52/1/6
f 50/2/6 51/2/6 52/2/6
f 51/1/6 44/1/6 53/1/6
f 52/2/6 51/2/6 53/2/6
f 43/1/6 52/1/6 54/1/6
f 52/1/6 53/1/6 54/1/6
f 44/3/6 45/3/6 55/3/6
f 54/1/6 53/1/6 55/1/6
f 53/1/6 44/1/6 55/1/6
f 55/3/6 45/3/6 56/3/6
