# MagicaVoxel @ Ephtracy

# group
o 

# material
mtllib model-0.mtl
usemtl palette

# normals
vn -1 0 0
vn 1 0 0
vn 0 0 1
vn 0 0 -1
vn 0 -1 0
vn 0 1 0

# texcoords
vt 0.00195313 0.5
vt 0.0292969 0.5
vt 0.373047 0.5
vt 0.771484 0.5
vt 0.775391 0.5
vt 0.779297 0.5

# verts
v -0.9 3.7 1.1
v -0.9 3.7 -1.1
v -0.9 3.8 1.2
v -0.9 3.8 1.1
v -0.9 3.8 -1.1
v -0.9 3.8 -1.2
v -0.9 3.9 1
v -0.9 3.9 0.8
v -0.9 3.9 -0.8
v -0.9 3.9 -1
v -0.9 4.1 1
v -0.9 4.1 0.8
v -0.9 4.1 -0.8
v -0.9 4.1 -1
v -0.9 4.5 1.2
v -0.9 4.5 0.4
v -0.9 4.5 -0.4
v -0.9 4.5 -1.2
v -0.9 4.7 1.2
v -0.9 4.7 0.6
v -0.9 4.7 -0.6
v -0.9 4.7 -1.2
v -0.9 6.2 1.2
v -0.9 6.2 0.8
v -0.9 6.2 -0.8
v -0.9 6.2 -1.2
v -0.9 6.5 0.8
v -0.9 6.5 0.6
v -0.9 6.5 0.4
v -0.9 6.5 -0.4
v -0.9 6.5 -0.6
v -0.9 6.5 -0.8
v -0.3 3.6 0.3
v -0.3 3.6 -0.3
v -0.3 3.7 0.3
v -0.3 3.7 -0.3
v -0.2 4.4 1.6
v -0.2 4.4 1.2
v -0.2 4.4 -1.2
v -0.2 4.4 -1.6
v -0.2 5.1 1.6
v -0.2 5.1 1.2
v -0.2 5.1 -1.2
v -0.2 5.1 -1.6
v 0.1 4.7 1.6
v 0.1 4.7 1.5
v 0.1 4.7 -1.5
v 0.1 4.7 -1.6
v 0.1 4.8 1.6
v 0.1 4.8 1.5
v 0.1 4.8 -1.5
v 0.1 4.8 -1.6
v 0.4 4.5 1.6
v 0.4 4.5 1.5
v 0.4 4.5 -1.5
v 0.4 4.5 -1.6
v 0.4 5 1.6
v 0.4 5 1.5
v 0.4 5 -1.5
v 0.4 5 -1.6
v -0.1 4.5 1.6
v -0.1 4.5 1.5
v -0.1 4.5 -1.5
v -0.1 4.5 -1.6
v -0.1 5 1.6
v -0.1 5 1.5
v -0.1 5 -1.5
v -0.1 5 -1.6
v 0.2 4.7 1.6
v 0.2 4.7 1.5
v 0.2 4.7 -1.5
v 0.2 4.7 -1.6
v 0.2 4.8 1.6
v 0.2 4.8 1.5
v 0.2 4.8 -1.5
v 0.2 4.8 -1.6
v 0.3 3.6 0.3
v 0.3 3.6 -0.3
v 0.3 3.7 0.3
v 0.3 3.7 -0.3
v 0.3 4.2 1.2
v 0.3 4.2 1.1
v 0.3 4.2 -1.1
v 0.3 4.2 -1.2
v 0.3 4.4 1.2
v 0.3 4.4 1.1
v 0.3 4.4 -1.1
v 0.3 4.4 -1.2
v 0.3 5.1 1.2
v 0.3 5.1 1.1
v 0.3 5.1 -1.1
v 0.3 5.1 -1.2
v 0.3 5.9 1.2
v 0.3 5.9 1.1
v 0.3 5.9 -1.1
v 0.3 5.9 -1.2
v 0.5 4.4 1.6
v 0.5 4.4 1.1
v 0.5 4.4 -1.1
v 0.5 4.4 -1.6
v 0.5 5.1 1.6
v 0.5 5.1 1.1
v 0.5 5.1 -1.1
v 0.5 5.1 -1.6
v 0.9 4.2 1.1
v 0.9 4.2 0.9
v 0.9 4.2 0.6
v 0.9 4.2 0.4
v 0.9 4.2 0.1
v 0.9 4.2 -0.1
v 0.9 4.2 -0.4
v 0.9 4.2 -0.6
v 0.9 4.2 -0.9
v 0.9 4.2 -1.1
v 0.9 4.4 0.9
v 0.9 4.4 0.6
v 0.9 4.4 0.4
v 0.9 4.4 0.1
v 0.9 4.4 -0.1
v 0.9 4.4 -0.4
v 0.9 4.4 -0.6
v 0.9 4.4 -0.9
v 0.9 4.6 0.9
v 0.9 4.6 -0.9
v 0.9 4.7 0.7
v 0.9 4.7 0.4
v 0.9 4.7 -0.4
v 0.9 4.7 -0.7
v 0.9 4.9 0.6
v 0.9 4.9 0.5
v 0.9 4.9 -0.5
v 0.9 4.9 -0.6
v 0.9 5 0.6
v 0.9 5 0.5
v 0.9 5 -0.5
v 0.9 5 -0.6
v 0.9 5.1 0.7
v 0.9 5.1 0.4
v 0.9 5.1 -0.4
v 0.9 5.1 -0.7
v 0.9 5.2 0.9
v 0.9 5.2 -0.9
v 0.9 5.3 0.6
v 0.9 5.3 0.2
v 0.9 5.4 1
v 0.9 5.4 0.6
v 0.9 5.4 -0.2
v 0.9 5.4 -1
v 0.9 5.5 0.4
v 0.9 5.5 0.2
v 0.9 5.6 1
v 0.9 5.6 0.4
v 0.9 5.6 -0.2
v 0.9 5.6 -1
v 0.9 5.9 1.1
v 0.9 5.9 -1.1
v 1 3.7 1.1
v 1 3.7 -1.1
v 1 3.8 1.2
v 1 3.8 1.1
v 1 3.8 -1.1
v 1 3.8 -1.2
v 1 3.9 1
v 1 3.9 0.8
v 1 3.9 -0.8
v 1 3.9 -1
v 1 4.1 1
v 1 4.1 0.8
v 1 4.1 -0.8
v 1 4.1 -1
v 1 4.2 1.2
v 1 4.2 0.9
v 1 4.2 0.6
v 1 4.2 0.4
v 1 4.2 0.1
v 1 4.2 -0.1
v 1 4.2 -0.4
v 1 4.2 -0.6
v 1 4.2 -0.9
v 1 4.2 -1.2
v 1 4.4 0.9
v 1 4.4 0.6
v 1 4.4 0.4
v 1 4.4 0.1
v 1 4.4 -0.1
v 1 4.4 -0.4
v 1 4.4 -0.6
v 1 4.4 -0.9
v 1 5.3 0.6
v 1 5.3 0.2
v 1 5.4 1
v 1 5.4 0.6
v 1 5.4 -0.2
v 1 5.4 -1
v 1 5.5 0.4
v 1 5.5 0.2
v 1 5.6 1
v 1 5.6 0.4
v 1 5.6 -0.2
v 1 5.6 -1
v 1 5.9 1.2
v 1 5.9 -1.2
v 1 6.1 0.6
v 1 6.1 -0.6
v 1 6.2 1.2
v 1 6.2 0.8
v 1 6.2 -0.8
v 1 6.2 -1.2
v 1 6.3 0.4
v 1 6.3 -0.4
v 1 6.5 0.8
v 1 6.5 0.6
v 1 6.5 0.4
v 1 6.5 -0.4
v 1 6.5 -0.6
v 1 6.5 -0.8
v -0.2 4.4 1.6
v -0.2 5.1 1.6
v -0.1 4.5 1.6
v -0.1 5 1.6
v 0.1 4.7 1.6
v 0.1 4.8 1.6
v 0.2 4.7 1.6
v 0.2 4.8 1.6
v 0.4 4.5 1.6
v 0.4 5 1.6
v 0.5 4.4 1.6
v 0.5 5.1 1.6
v -0.1 4.5 1.5
v -0.1 5 1.5
v 0.1 4.7 1.5
v 0.1 4.8 1.5
v 0.2 4.7 1.5
v 0.2 4.8 1.5
v 0.4 4.5 1.5
v 0.4 5 1.5
v -0.9 3.8 1.2
v -0.9 4.5 1.2
v -0.9 4.7 1.2
v -0.9 6.2 1.2
v -0.7 5.4 1.2
v -0.7 5.6 1.2
v -0.7 5.8 1.2
v -0.7 6 1.2
v -0.6 4 1.2
v -0.6 4.5 1.2
v -0.4 4.2 1.2
v -0.4 4.7 1.2
v -0.2 4.4 1.2
v -0.2 5.1 1.2
v -0.1 3.8 1.2
v -0.1 4 1.2
v 0.1 3.8 1.2
v 0.1 4.2 1.2
v 0.1 5.4 1.2
v 0.1 5.6 1.2
v 0.1 5.8 1.2
v 0.1 6 1.2
v 0.3 4.2 1.2
v 0.3 4.4 1.2
v 0.3 5.1 1.2
v 0.3 5.9 1.2
v 1 3.8 1.2
v 1 4.2 1.2
v 1 5.9 1.2
v 1 6.2 1.2
v -0.9 3.7 1.1
v -0.9 3.8 1.1
v -0.1 3.7 1.1
v -0.1 3.8 1.1
v 0.1 3.7 1.1
v 0.1 3.8 1.1
v 0.3 4.2 1.1
v 0.3 4.4 1.1
v 0.3 5.1 1.1
v 0.3 5.9 1.1
v 0.5 4.4 1.1
v 0.5 5.1 1.1
v 0.9 4.2 1.1
v 0.9 5.9 1.1
v 1 3.7 1.1
v 1 3.8 1.1
v 0.9 5.4 1
v 0.9 5.6 1
v 1 5.4 1
v 1 5.6 1
v 0.9 4.2 0.9
v 0.9 4.4 0.9
v 1 4.2 0.9
v 1 4.4 0.9
v -0.9 6.2 0.8
v -0.9 6.5 0.8
v 1 6.2 0.8
v 1 6.5 0.8
v 0.9 5.3 0.6
v 0.9 5.4 0.6
v 1 5.3 0.6
v 1 5.4 0.6
v 0.9 4.2 0.4
v 0.9 4.4 0.4
v 1 4.2 0.4
v 1 4.4 0.4
v -0.3 3.6 0.3
v -0.3 3.7 0.3
v -0.1 3.7 0.3
v 0.1 3.7 0.3
v 0.3 3.6 0.3
v 0.3 3.7 0.3
v 0.9 4.2 -0.1
v 0.9 4.4 -0.1
v 1 4.2 -0.1
v 1 4.4 -0.1
v 0.9 5.4 -0.2
v 0.9 5.6 -0.2
v 1 5.4 -0.2
v 1 5.6 -0.2
v 0.9 4.2 -0.6
v 0.9 4.4 -0.6
v 1 4.2 -0.6
v 1 4.4 -0.6
v 0.9 4.2 0.6
v 0.9 4.4 0.6
v 1 4.2 0.6
v 1 4.4 0.6
v 0.9 5.5 0.4
v 0.9 5.6 0.4
v 1 5.5 0.4
v 1 5.6 0.4
v 0.9 5.3 0.2
v 0.9 5.5 0.2
v 1 5.3 0.2
v 1 5.5 0.2
v 0.9 4.2 0.1
v 0.9 4.4 0.1
v 1 4.2 0.1
v 1 4.4 0.1
v -0.3 3.6 -0.3
v -0.3 3.7 -0.3
v -0.1 3.7 -0.3
v 0.1 3.7 -0.3
v 0.3 3.6 -0.3
v 0.3 3.7 -0.3
v 0.9 4.2 -0.4
v 0.9 4.4 -0.4
v 1 4.2 -0.4
v 1 4.4 -0.4
v -0.9 6.2 -0.8
v -0.9 6.5 -0.8
v 1 6.2 -0.8
v 1 6.5 -0.8
v 0.9 4.2 -0.9
v 0.9 4.4 -0.9
v 1 4.2 -0.9
v 1 4.4 -0.9
v 0.9 5.4 -1
v 0.9 5.6 -1
v 1 5.4 -1
v 1 5.6 -1
v -0.9 3.7 -1.1
v -0.9 3.8 -1.1
v -0.1 3.7 -1.1
v -0.1 3.8 -1.1
v 0.1 3.7 -1.1
v 0.1 3.8 -1.1
v 0.3 4.2 -1.1
v 0.3 4.4 -1.1
v 0.3 5.1 -1.1
v 0.3 5.9 -1.1
v 0.5 4.4 -1.1
v 0.5 5.1 -1.1
v 0.9 4.2 -1.1
v 0.9 5.9 -1.1
v 1 3.7 -1.1
v 1 3.8 -1.1
v -0.9 3.8 -1.2
v -0.9 4.5 -1.2
v -0.9 4.7 -1.2
v -0.9 6.2 -1.2
v -0.7 5.4 -1.2
v -0.7 5.6 -1.2
v -0.7 5.8 -1.2
v -0.7 6 -1.2
v -0.6 4 -1.2
v -0.6 4.5 -1.2
v -0.4 4.2 -1.2
v -0.4 4.7 -1.2
v -0.2 4.4 -1.2
v -0.2 5.1 -1.2
v -0.1 3.8 -1.2
v -0.1 4 -1.2
v 0.1 3.8 -1.2
v 0.1 4.2 -1.2
v 0.1 5.4 -1.2
v 0.1 5.6 -1.2
v 0.1 5.8 -1.2
v 0.1 6 -1.2
v 0.3 4.2 -1.2
v 0.3 4.4 -1.2
v 0.3 5.1 -1.2
v 0.3 5.9 -1.2
v 1 3.8 -1.2
v 1 4.2 -1.2
v 1 5.9 -1.2
v 1 6.2 -1.2
v -0.1 4.5 -1.5
v -0.1 5 -1.5
v 0.1 4.7 -1.5
v 0.1 4.8 -1.5
v 0.2 4.7 -1.5
v 0.2 4.8 -1.5
v 0.4 4.5 -1.5
v 0.4 5 -1.5
v -0.2 4.4 -1.6
v -0.2 5.1 -1.6
v -0.1 4.5 -1.6
v -0.1 5 -1.6
v 0.1 4.7 -1.6
v 0.1 4.8 -1.6
v 0.2 4.7 -1.6
v 0.2 4.8 -1.6
v 0.4 4.5 -1.6
v 0.4 5 -1.6
v 0.5 4.4 -1.6
v 0.5 5.1 -1.6
v -0.3 3.6 0.3
v 0.3 3.6 0.3
v -0.3 3.6 -0.3
v 0.3 3.6 -0.3
v -0.9 3.7 1.1
v -0.1 3.7 1.1
v 0.1 3.7 1.1
v 1 3.7 1.1
v -0.3 3.7 0.3
v -0.1 3.7 0.3
v 0.1 3.7 0.3
v 0.3 3.7 0.3
v -0.3 3.7 -0.3
v -0.1 3.7 -0.3
v 0.1 3.7 -0.3
v 0.3 3.7 -0.3
v -0.9 3.7 -1.1
v -0.1 3.7 -1.1
v 0.1 3.7 -1.1
v 1 3.7 -1.1
v -0.9 3.8 1.2
v -0.1 3.8 1.2
v 0.1 3.8 1.2
v 1 3.8 1.2
v -0.9 3.8 1.1
v -0.1 3.8 1.1
v 0.1 3.8 1.1
v 1 3.8 1.1
v -0.9 3.8 -1.1
v -0.1 3.8 -1.1
v 0.1 3.8 -1.1
v 1 3.8 -1.1
v -0.9 3.8 -1.2
v -0.1 3.8 -1.2
v 0.1 3.8 -1.2
v 1 3.8 -1.2
v -0.2 4.4 1.6
v 0.5 4.4 1.6
v -0.2 4.4 1.2
v 0.3 4.4 1.2
v 0.3 4.4 1.1
v 0.5 4.4 1.1
v 0.3 4.4 -1.1
v 0.5 4.4 -1.1
v -0.2 4.4 -1.2
v 0.3 4.4 -1.2
v -0.2 4.4 -1.6
v 0.5 4.4 -1.6
v 0.1 4.7 1.6
v 0.2 4.7 1.6
v 0.1 4.7 1.5
v 0.2 4.7 1.5
v 0.1 4.7 -1.5
v 0.2 4.7 -1.5
v 0.1 4.7 -1.6
v 0.2 4.7 -1.6
v -0.1 5 1.6
v 0.4 5 1.6
v -0.1 5 1.5
v 0.4 5 1.5
v -0.1 5 -1.5
v 0.4 5 -1.5
v -0.1 5 -1.6
v 0.4 5 -1.6
v 0.9 5.3 0.6
v 1 5.3 0.6
v 0.9 5.3 0.2
v 1 5.3 0.2
v 0.9 5.4 1
v 1 5.4 1
v 0.9 5.4 0.6
v 1 5.4 0.6
v 0.9 5.4 -0.2
v 1 5.4 -0.2
v 0.9 5.4 -1
v 1 5.4 -1
v 0.3 5.9 1.2
v 1 5.9 1.2
v 0.3 5.9 1.1
v 0.9 5.9 1.1
v 0.3 5.9 -1.1
v 0.9 5.9 -1.1
v 0.3 5.9 -1.2
v 1 5.9 -1.2
v 0.3 4.2 1.2
v 1 4.2 1.2
v 0.3 4.2 1.1
v 0.9 4.2 1.1
v 0.9 4.2 0.9
v 1 4.2 0.9
v 0.9 4.2 0.6
v 1 4.2 0.6
v 0.9 4.2 0.4
v 1 4.2 0.4
v 0.9 4.2 0.1
v 1 4.2 0.1
v 0.9 4.2 -0.1
v 1 4.2 -0.1
v 0.9 4.2 -0.4
v 1 4.2 -0.4
v 0.9 4.2 -0.6
v 1 4.2 -0.6
v 0.9 4.2 -0.9
v 1 4.2 -0.9
v 0.3 4.2 -1.1
v 0.9 4.2 -1.1
v 0.3 4.2 -1.2
v 1 4.2 -1.2
v 0.9 4.4 0.9
v 1 4.4 0.9
v 0.9 4.4 0.6
v 1 4.4 0.6
v 0.9 4.4 0.4
v 1 4.4 0.4
v 0.9 4.4 0.1
v 1 4.4 0.1
v 0.9 4.4 -0.1
v 1 4.4 -0.1
v 0.9 4.4 -0.4
v 1 4.4 -0.4
v 0.9 4.4 -0.6
v 1 4.4 -0.6
v 0.9 4.4 -0.9
v 1 4.4 -0.9
v -0.1 4.5 1.6
v 0.4 4.5 1.6
v -0.1 4.5 1.5
v 0.4 4.5 1.5
v -0.1 4.5 -1.5
v 0.4 4.5 -1.5
v -0.1 4.5 -1.6
v 0.4 4.5 -1.6
v 0.1 4.8 1.6
v 0.2 4.8 1.6
v 0.1 4.8 1.5
v 0.2 4.8 1.5
v 0.1 4.8 -1.5
v 0.2 4.8 -1.5
v 0.1 4.8 -1.6
v 0.2 4.8 -1.6
v -0.2 5.1 1.6
v 0.5 5.1 1.6
v -0.2 5.1 1.2
v 0.3 5.1 1.2
v 0.3 5.1 1.1
v 0.5 5.1 1.1
v 0.3 5.1 -1.1
v 0.5 5.1 -1.1
v -0.2 5.1 -1.2
v 0.3 5.1 -1.2
v -0.2 5.1 -1.6
v 0.5 5.1 -1.6
v 0.9 5.5 0.4
v 1 5.5 0.4
v 0.9 5.5 0.2
v 1 5.5 0.2
v 0.9 5.6 1
v 1 5.6 1
v 0.9 5.6 0.4
v 1 5.6 0.4
v 0.9 5.6 -0.2
v 1 5.6 -0.2
v 0.9 5.6 -1
v 1 5.6 -1
v -0.9 6.2 1.2
v 1 6.2 1.2
v -0.9 6.2 0.8
v 1 6.2 0.8
v -0.9 6.2 -0.8
v 1 6.2 -0.8
v -0.9 6.2 -1.2
v 1 6.2 -1.2
v -0.9 6.5 0.8
v 1 6.5 0.8
v -0.9 6.5 0.6
v 1 6.5 0.6
v -0.9 6.5 0.4
v 1 6.5 0.4
v -0.2 6.5 0.2
v 0 6.5 0.2
v 0.2 6.5 0.2
v 0.4 6.5 0.2
v 0.6 6.5 0.2
v 0.8 6.5 0.2
v -0.2 6.5 -0.2
v 0 6.5 -0.2
v 0.2 6.5 -0.2
v 0.4 6.5 -0.2
v 0.6 6.5 -0.2
v 0.8 6.5 -0.2
v -0.9 6.5 -0.4
v 1 6.5 -0.4
v -0.9 6.5 -0.6
v 1 6.5 -0.6
v -0.9 6.5 -0.8
v 1 6.5 -0.8

# faces
f 4/5/1 2/5/1 1/5/1
f 5/5/1 2/5/1 4/5/1
f 7/5/1 4/5/1 3/5/1
f 7/5/1 6/5/1 5/5/1
f 7/5/1 5/5/1 4/5/1
f 8/5/1 6/5/1 7/5/1
f 9/5/1 6/5/1 8/5/1
f 10/5/1 6/5/1 9/5/1
f 11/5/1 7/5/1 3/5/1
f 11/4/1 8/4/1 7/4/1
f 12/5/1 9/5/1 8/5/1
f 12/4/1 8/4/1 11/4/1
f 13/4/1 10/4/1 9/4/1
f 13/5/1 9/5/1 12/5/1
f 14/5/1 6/5/1 10/5/1
f 14/4/1 10/4/1 13/4/1
f 15/5/1 13/5/1 12/5/1
f 15/5/1 12/5/1 11/5/1
f 15/5/1 14/5/1 13/5/1
f 15/5/1 11/5/1 3/5/1
f 16/5/1 14/5/1 15/5/1
f 17/5/1 14/5/1 16/5/1
f 18/5/1 6/5/1 14/5/1
f 18/5/1 14/5/1 17/5/1
f 19/4/1 16/4/1 15/4/1
f 20/4/1 16/4/1 19/4/1
f 21/4/1 18/4/1 17/4/1
f 22/4/1 18/4/1 21/4/1
f 23/5/1 20/5/1 19/5/1
f 24/5/1 20/5/1 23/5/1
f 25/5/1 22/5/1 21/5/1
f 26/5/1 22/5/1 25/5/1
f 27/5/1 20/5/1 24/5/1
f 28/4/1 16/4/1 20/4/1
f 28/5/1 20/5/1 27/5/1
f 29/5/1 17/5/1 16/5/1
f 29/4/1 16/4/1 28/4/1
f 30/4/1 21/4/1 17/4/1
f 30/5/1 17/5/1 29/5/1
f 31/5/1 25/5/1 21/5/1
f 31/4/1 21/4/1 30/4/1
f 32/5/1 25/5/1 31/5/1
f 35/6/1 34/6/1 33/6/1
f 36/6/1 34/6/1 35/6/1
f 41/5/1 38/5/1 37/5/1
f 42/5/1 38/5/1 41/5/1
f 43/5/1 40/5/1 39/5/1
f 44/5/1 40/5/1 43/5/1
f 49/5/1 46/5/1 45/5/1
f 50/5/1 46/5/1 49/5/1
f 51/5/1 48/5/1 47/5/1
f 52/5/1 48/5/1 51/5/1
f 57/5/1 54/5/1 53/5/1
f 58/5/1 54/5/1 57/5/1
f 59/5/1 56/5/1 55/5/1
f 60/5/1 56/5/1 59/5/1
f 61/5/2 62/5/2 65/5/2
f 65/5/2 62/5/2 66/5/2
f 63/5/2 64/5/2 67/5/2
f 67/5/2 64/5/2 68/5/2
f 69/5/2 70/5/2 73/5/2
f 73/5/2 70/5/2 74/5/2
f 71/5/2 72/5/2 75/5/2
f 75/5/2 72/5/2 76/5/2
f 77/6/2 78/6/2 79/6/2
f 79/6/2 78/6/2 80/6/2
f 81/5/2 82/5/2 85/5/2
f 85/5/2 82/5/2 86/5/2
f 83/5/2 84/5/2 87/5/2
f 87/5/2 84/5/2 88/5/2
f 89/5/2 90/5/2 93/5/2
f 93/5/2 90/5/2 94/5/2
f 91/5/2 92/5/2 95/5/2
f 95/5/2 92/5/2 96/5/2
f 97/5/2 98/5/2 101/5/2
f 101/5/2 98/5/2 102/5/2
f 99/5/2 100/5/2 103/5/2
f 103/5/2 100/5/2 104/5/2
f 105/6/2 106/6/2 115/6/2
f 107/6/2 108/6/2 116/6/2
f 116/6/2 108/6/2 117/6/2
f 109/6/2 110/6/2 118/6/2
f 118/6/2 110/6/2 119/6/2
f 111/6/2 112/6/2 120/6/2
f 120/6/2 112/6/2 121/6/2
f 113/6/2 114/6/2 122/6/2
f 120/6/2 121/6/2 123/6/2
f 121/6/2 122/6/2 123/6/2
f 105/6/2 115/6/2 123/6/2
f 116/6/2 117/6/2 123/6/2
f 119/6/2 120/6/2 123/6/2
f 118/6/2 119/6/2 123/6/2
f 117/6/2 118/6/2 123/6/2
f 115/6/2 116/6/2 123/6/2
f 122/6/2 114/6/2 124/6/2
f 123/6/2 122/6/2 124/6/2
f 123/1/2 124/1/2 125/1/2
f 125/1/2 124/1/2 126/1/2
f 126/1/2 124/1/2 127/1/2
f 127/1/2 124/1/2 128/1/2
f 125/3/2 126/3/2 129/3/2
f 129/3/2 126/3/2 130/3/2
f 127/3/2 128/3/2 131/3/2
f 131/3/2 128/3/2 132/3/2
f 125/3/2 129/3/2 133/3/2
f 129/2/2 130/2/2 133/2/2
f 130/3/2 126/3/2 134/3/2
f 133/2/2 130/2/2 134/2/2
f 131/2/2 132/2/2 135/2/2
f 127/3/2 131/3/2 135/3/2
f 132/3/2 128/3/2 136/3/2
f 135/2/2 132/2/2 136/2/2
f 123/1/2 125/1/2 137/1/2
f 125/3/2 133/3/2 137/3/2
f 133/3/2 134/3/2 137/3/2
f 126/1/2 127/1/2 138/1/2
f 137/3/2 134/3/2 138/3/2
f 134/3/2 126/3/2 138/3/2
f 135/3/2 136/3/2 139/3/2
f 138/1/2 127/1/2 139/1/2
f 127/3/2 135/3/2 139/3/2
f 136/3/2 128/3/2 140/3/2
f 139/3/2 136/3/2 140/3/2
f 128/1/2 124/1/2 140/1/2
f 105/6/2 123/6/2 141/6/2
f 138/1/2 139/1/2 141/1/2
f 139/1/2 140/1/2 141/1/2
f 123/1/2 137/1/2 141/1/2
f 137/1/2 138/1/2 141/1/2
f 140/1/2 124/1/2 142/1/2
f 141/1/2 140/1/2 142/1/2
f 124/6/2 114/6/2 142/6/2
f 141/6/2 142/6/2 143/6/2
f 143/6/2 142/6/2 144/6/2
f 105/6/2 141/6/2 145/6/2
f 141/6/2 143/6/2 145/6/2
f 145/6/2 143/6/2 146/6/2
f 144/6/2 142/6/2 147/6/2
f 142/6/2 114/6/2 148/6/2
f 147/6/2 142/6/2 148/6/2
f 144/6/2 147/6/2 150/6/2
f 105/6/2 145/6/2 151/6/2
f 149/6/2 150/6/2 152/6/2
f 150/6/2 147/6/2 153/6/2
f 152/6/2 150/6/2 153/6/2
f 148/6/2 114/6/2 154/6/2
f 152/6/2 153/6/2 155/6/2
f 153/6/2 154/6/2 155/6/2
f 105/6/2 151/6/2 155/6/2
f 151/6/2 152/6/2 155/6/2
f 154/6/2 114/6/2 156/6/2
f 155/6/2 154/6/2 156/6/2
f 157/5/2 158/5/2 160/5/2
f 160/5/2 158/5/2 161/5/2
f 159/5/2 160/5/2 163/5/2
f 161/5/2 162/5/2 163/5/2
f 160/5/2 161/5/2 163/5/2
f 163/5/2 162/5/2 164/5/2
f 164/5/2 162/5/2 165/5/2
f 165/5/2 162/5/2 166/5/2
f 159/5/2 163/5/2 167/5/2
f 163/4/2 164/4/2 167/4/2
f 164/5/2 165/5/2 168/5/2
f 167/4/2 164/4/2 168/4/2
f 165/4/2 166/4/2 169/4/2
f 168/5/2 165/5/2 169/5/2
f 166/5/2 162/5/2 170/5/2
f 169/4/2 166/4/2 170/4/2
f 168/5/2 169/5/2 171/5/2
f 167/5/2 168/5/2 171/5/2
f 169/5/2 170/5/2 171/5/2
f 159/5/2 167/5/2 171/5/2
f 171/5/2 170/5/2 172/5/2
f 172/5/2 170/5/2 173/5/2
f 173/5/2 170/5/2 174/5/2
f 174/5/2 170/5/2 175/5/2
f 175/5/2 170/5/2 176/5/2
f 176/5/2 170/5/2 177/5/2
f 177/5/2 170/5/2 178/5/2
f 178/5/2 170/5/2 179/5/2
f 170/5/2 162/5/2 180/5/2
f 179/5/2 170/5/2 180/5/2
f 172/5/2 173/5/2 181/5/2
f 181/5/2 173/5/2 182/5/2
f 174/5/2 175/5/2 183/5/2
f 183/5/2 175/5/2 184/5/2
f 176/5/2 177/5/2 185/5/2
f 185/5/2 177/5/2 186/5/2
f 178/5/2 179/5/2 187/5/2
f 187/5/2 179/5/2 188/5/2
f 189/4/2 190/4/2 192/4/2
f 191/4/2 192/4/2 195/4/2
f 192/4/2 190/4/2 195/4/2
f 195/4/2 190/4/2 196/4/2
f 191/4/2 195/4/2 197/4/2
f 197/4/2 195/4/2 198/4/2
f 193/4/2 194/4/2 199/4/2
f 199/4/2 194/4/2 200/4/2
f 201/5/2 202/5/2 203/5/2
f 203/5/2 202/5/2 204/5/2
f 201/5/2 203/5/2 205/5/2
f 205/5/2 203/5/2 206/5/2
f 204/5/2 202/5/2 207/5/2
f 207/5/2 202/5/2 208/5/2
f 203/4/2 204/4/2 209/4/2
f 209/4/2 204/4/2 210/4/2
f 206/5/2 203/5/2 211/5/2
f 203/4/2 209/4/2 212/4/2
f 211/5/2 203/5/2 212/5/2
f 209/5/2 210/5/2 213/5/2
f 212/4/2 209/4/2 213/4/2
f 210/4/2 204/4/2 214/4/2
f 213/5/2 210/5/2 214/5/2
f 204/5/2 207/5/2 215/5/2
f 214/4/2 204/4/2 215/4/2
f 215/5/2 207/5/2 216/5/2
f 219/5/3 218/5/3 217/5/3
f 220/5/3 218/5/3 219/5/3
f 223/5/3 222/5/3 221/5/3
f 224/5/3 222/5/3 223/5/3
f 225/5/3 219/5/3 217/5/3
f 226/5/3 218/5/3 220/5/3
f 227/5/3 225/5/3 217/5/3
f 227/5/3 226/5/3 225/5/3
f 228/5/3 218/5/3 226/5/3
f 228/5/3 226/5/3 227/5/3
f 231/4/3 230/4/3 229/4/3
f 232/4/3 230/4/3 231/4/3
f 233/4/3 231/4/3 229/4/3
f 234/4/3 230/4/3 232/4/3
f 235/4/3 233/4/3 229/4/3
f 235/4/3 234/4/3 233/4/3
f 236/4/3 230/4/3 234/4/3
f 236/4/3 234/4/3 235/4/3
f 241/5/3 240/5/3 239/5/3
f 242/5/3 240/5/3 241/5/3
f 243/5/3 240/5/3 242/5/3
f 244/5/3 240/5/3 243/5/3
f 245/5/3 238/5/3 237/5/3
f 246/4/3 239/4/3 238/4/3
f 246/5/3 238/5/3 245/5/3
f 247/4/3 246/4/3 245/4/3
f 248/5/3 241/5/3 239/5/3
f 248/4/3 246/4/3 247/4/3
f 248/4/3 239/4/3 246/4/3
f 249/5/3 248/5/3 247/5/3
f 250/5/3 241/5/3 248/5/3
f 250/5/3 248/5/3 249/5/3
f 251/5/3 245/5/3 237/5/3
f 252/4/3 247/4/3 245/4/3
f 252/5/3 245/5/3 251/5/3
f 253/4/3 252/4/3 251/4/3
f 254/5/3 249/5/3 247/5/3
f 254/4/3 252/4/3 253/4/3
f 254/4/3 247/4/3 252/4/3
f 255/5/3 241/5/3 250/5/3
f 255/4/3 242/4/3 241/4/3
f 256/5/3 243/5/3 242/5/3
f 256/4/3 242/4/3 255/4/3
f 257/4/3 244/4/3 243/4/3
f 257/5/3 243/5/3 256/5/3
f 258/5/3 240/5/3 244/5/3
f 258/4/3 244/4/3 257/4/3
f 259/5/3 249/5/3 254/5/3
f 259/5/3 254/5/3 253/5/3
f 260/5/3 249/5/3 259/5/3
f 261/5/3 257/5/3 256/5/3
f 261/5/3 258/5/3 257/5/3
f 261/5/3 255/5/3 250/5/3
f 261/5/3 256/5/3 255/5/3
f 262/5/3 258/5/3 261/5/3
f 263/5/3 259/5/3 253/5/3
f 264/5/3 259/5/3 263/5/3
f 265/5/3 258/5/3 262/5/3
f 266/5/3 240/5/3 258/5/3
f 266/5/3 258/5/3 265/5/3
f 269/5/3 268/5/3 267/5/3
f 270/5/3 268/5/3 269/5/3
f 271/4/3 270/4/3 269/4/3
f 272/4/3 270/4/3 271/4/3
f 277/6/3 274/6/3 273/6/3
f 278/6/3 276/6/3 275/6/3
f 279/6/3 277/6/3 273/6/3
f 279/6/3 278/6/3 277/6/3
f 280/6/3 276/6/3 278/6/3
f 280/6/3 278/6/3 279/6/3
f 281/5/3 272/5/3 271/5/3
f 282/5/3 272/5/3 281/5/3
f 285/4/3 284/4/3 283/4/3
f 286/4/3 284/4/3 285/4/3
f 289/5/3 288/5/3 287/5/3
f 290/5/3 288/5/3 289/5/3
f 293/5/3 292/5/3 291/5/3
f 294/5/3 292/5/3 293/5/3
f 297/4/3 296/4/3 295/4/3
f 298/4/3 296/4/3 297/4/3
f 301/5/3 300/5/3 299/5/3
f 302/5/3 300/5/3 301/5/3
f 305/6/3 304/6/3 303/6/3
f 306/6/3 305/6/3 303/6/3
f 307/6/3 306/6/3 303/6/3
f 308/6/3 306/6/3 307/6/3
f 311/5/3 310/5/3 309/5/3
f 312/5/3 310/5/3 311/5/3
f 315/4/3 314/4/3 313/4/3
f 316/4/3 314/4/3 315/4/3
f 319/5/3 318/5/3 317/5/3
f 320/5/3 318/5/3 319/5/3
f 321/5/4 322/5/4 323/5/4
f 323/5/4 322/5/4 324/5/4
f 325/4/4 326/4/4 327/4/4
f 327/4/4 326/4/4 328/4/4
f 329/4/4 330/4/4 331/4/4
f 331/4/4 330/4/4 332/4/4
f 333/5/4 334/5/4 335/5/4
f 335/5/4 334/5/4 336/5/4
f 337/6/4 338/6/4 339/6/4
f 337/6/4 339/6/4 340/6/4
f 337/6/4 340/6/4 341/6/4
f 341/6/4 340/6/4 342/6/4
f 343/5/4 344/5/4 345/5/4
f 345/5/4 344/5/4 346/5/4
f 347/5/4 348/5/4 349/5/4
f 349/5/4 348/5/4 350/5/4
f 351/5/4 352/5/4 353/5/4
f 353/5/4 352/5/4 354/5/4
f 355/4/4 356/4/4 357/4/4
f 357/4/4 356/4/4 358/4/4
f 359/5/4 360/5/4 361/5/4
f 361/5/4 360/5/4 362/5/4
f 361/4/4 362/4/4 363/4/4
f 363/4/4 362/4/4 364/4/4
f 365/6/4 366/6/4 369/6/4
f 367/6/4 368/6/4 370/6/4
f 365/6/4 369/6/4 371/6/4
f 369/6/4 370/6/4 371/6/4
f 370/6/4 368/6/4 372/6/4
f 371/6/4 370/6/4 372/6/4
f 363/5/4 364/5/4 373/5/4
f 373/5/4 364/5/4 374/5/4
f 377/5/4 378/5/4 379/5/4
f 379/5/4 378/5/4 380/5/4
f 380/5/4 378/5/4 381/5/4
f 381/5/4 378/5/4 382/5/4
f 375/5/4 376/5/4 383/5/4
f 376/4/4 377/4/4 384/4/4
f 383/5/4 376/5/4 384/5/4
f 383/4/4 384/4/4 385/4/4
f 377/5/4 379/5/4 386/5/4
f 385/4/4 384/4/4 386/4/4
f 384/4/4 377/4/4 386/4/4
f 385/5/4 386/5/4 387/5/4
f 386/5/4 379/5/4 388/5/4
f 387/5/4 386/5/4 388/5/4
f 375/5/4 383/5/4 389/5/4
f 383/4/4 385/4/4 390/4/4
f 389/5/4 383/5/4 390/5/4
f 389/4/4 390/4/4 391/4/4
f 385/5/4 387/5/4 392/5/4
f 391/4/4 390/4/4 392/4/4
f 390/4/4 385/4/4 392/4/4
f 388/5/4 379/5/4 393/5/4
f 379/4/4 380/4/4 393/4/4
f 380/5/4 381/5/4 394/5/4
f 393/4/4 380/4/4 394/4/4
f 381/4/4 382/4/4 395/4/4
f 394/5/4 381/5/4 395/5/4
f 382/5/4 378/5/4 396/5/4
f 395/4/4 382/4/4 396/4/4
f 392/5/4 387/5/4 397/5/4
f 391/5/4 392/5/4 397/5/4
f 397/5/4 387/5/4 398/5/4
f 394/5/4 395/5/4 399/5/4
f 395/5/4 396/5/4 399/5/4
f 388/5/4 393/5/4 399/5/4
f 393/5/4 394/5/4 399/5/4
f 399/5/4 396/5/4 400/5/4
f 391/5/4 397/5/4 401/5/4
f 401/5/4 397/5/4 402/5/4
f 400/5/4 396/5/4 403/5/4
f 396/5/4 378/5/4 404/5/4
f 403/5/4 396/5/4 404/5/4
f 405/4/4 406/4/4 407/4/4
f 407/4/4 406/4/4 408/4/4
f 405/4/4 407/4/4 409/4/4
f 408/4/4 406/4/4 410/4/4
f 405/4/4 409/4/4 411/4/4
f 409/4/4 410/4/4 411/4/4
f 410/4/4 406/4/4 412/4/4
f 411/4/4 410/4/4 412/4/4
f 413/5/4 414/5/4 415/5/4
f 415/5/4 414/5/4 416/5/4
f 417/5/4 418/5/4 419/5/4
f 419/5/4 418/5/4 420/5/4
f 413/5/4 415/5/4 421/5/4
f 416/5/4 414/5/4 422/5/4
f 413/5/4 421/5/4 423/5/4
f 421/5/4 422/5/4 423/5/4
f 422/5/4 414/5/4 424/5/4
f 423/5/4 422/5/4 424/5/4
f 427/6/5 426/6/5 425/6/5
f 428/6/5 426/6/5 427/6/5
f 433/5/5 430/5/5 429/5/5
f 434/4/5 431/4/5 430/4/5
f 434/5/5 430/5/5 433/5/5
f 435/5/5 432/5/5 431/5/5
f 435/4/5 431/4/5 434/4/5
f 436/5/5 432/5/5 435/5/5
f 437/5/5 433/5/5 429/5/5
f 440/5/5 432/5/5 436/5/5
f 441/5/5 437/5/5 429/5/5
f 441/5/5 438/5/5 437/5/5
f 442/4/5 439/4/5 438/4/5
f 442/5/5 438/5/5 441/5/5
f 443/5/5 440/5/5 439/5/5
f 443/4/5 439/4/5 442/4/5
f 444/5/5 432/5/5 440/5/5
f 444/5/5 440/5/5 443/5/5
f 449/5/5 446/5/5 445/5/5
f 450/4/5 447/4/5 446/4/5
f 450/5/5 446/5/5 449/5/5
f 451/5/5 448/5/5 447/5/5
f 451/4/5 447/4/5 450/4/5
f 452/5/5 448/5/5 451/5/5
f 457/5/5 454/5/5 453/5/5
f 458/4/5 455/4/5 454/4/5
f 458/5/5 454/5/5 457/5/5
f 459/5/5 456/5/5 455/5/5
f 459/4/5 455/4/5 458/4/5
f 460/5/5 456/5/5 459/5/5
f 463/5/5 462/5/5 461/5/5
f 464/5/5 462/5/5 463/5/5
f 465/5/5 462/5/5 464/5/5
f 466/5/5 462/5/5 465/5/5
f 470/5/5 468/5/5 467/5/5
f 471/5/5 470/5/5 469/5/5
f 472/5/5 468/5/5 470/5/5
f 472/5/5 470/5/5 471/5/5
f 475/5/5 474/5/5 473/5/5
f 476/5/5 474/5/5 475/5/5
f 479/5/5 478/5/5 477/5/5
f 480/5/5 478/5/5 479/5/5
f 483/5/5 482/5/5 481/5/5
f 484/5/5 482/5/5 483/5/5
f 487/5/5 486/5/5 485/5/5
f 488/5/5 486/5/5 487/5/5
f 491/4/5 490/4/5 489/4/5
f 492/4/5 490/4/5 491/4/5
f 495/4/5 494/4/5 493/4/5
f 496/4/5 494/4/5 495/4/5
f 499/4/5 498/4/5 497/4/5
f 500/4/5 498/4/5 499/4/5
f 503/5/5 502/5/5 501/5/5
f 504/5/5 502/5/5 503/5/5
f 506/5/5 502/5/5 504/5/5
f 507/5/5 506/5/5 505/5/5
f 508/5/5 502/5/5 506/5/5
f 508/5/5 506/5/5 507/5/5
f 509/5/6 510/5/6 511/5/6
f 511/5/6 510/5/6 512/5/6
f 512/5/6 510/5/6 513/5/6
f 513/5/6 510/5/6 514/5/6
f 515/5/6 516/5/6 517/5/6
f 517/5/6 516/5/6 518/5/6
f 519/5/6 520/5/6 521/5/6
f 521/5/6 520/5/6 522/5/6
f 523/5/6 524/5/6 525/5/6
f 525/5/6 524/5/6 526/5/6
f 527/5/6 528/5/6 530/5/6
f 529/5/6 530/5/6 531/5/6
f 530/5/6 528/5/6 532/5/6
f 531/5/6 530/5/6 532/5/6
f 533/5/6 534/5/6 535/5/6
f 535/5/6 534/5/6 536/5/6
f 537/5/6 538/5/6 539/5/6
f 539/5/6 538/5/6 540/5/6
f 541/5/6 542/5/6 543/5/6
f 543/5/6 542/5/6 544/5/6
f 545/5/6 546/5/6 547/5/6
f 547/5/6 546/5/6 548/5/6
f 549/5/6 550/5/6 551/5/6
f 551/5/6 550/5/6 552/5/6
f 553/5/6 554/5/6 555/5/6
f 555/5/6 554/5/6 556/5/6
f 557/5/6 558/5/6 559/5/6
f 559/5/6 558/5/6 560/5/6
f 561/5/6 562/5/6 563/5/6
f 563/5/6 562/5/6 564/5/6
f 565/5/6 566/5/6 567/5/6
f 567/5/6 566/5/6 568/5/6
f 568/5/6 566/5/6 569/5/6
f 569/5/6 566/5/6 570/5/6
f 571/5/6 572/5/6 574/5/6
f 573/5/6 574/5/6 575/5/6
f 574/5/6 572/5/6 576/5/6
f 575/5/6 574/5/6 576/5/6
f 577/4/6 578/4/6 579/4/6
f 579/4/6 578/4/6 580/4/6
f 581/4/6 582/4/6 583/4/6
f 583/4/6 582/4/6 584/4/6
f 585/4/6 586/4/6 587/4/6
f 587/4/6 586/4/6 588/4/6
f 589/5/6 590/5/6 591/5/6
f 591/5/6 590/5/6 592/5/6
f 593/5/6 594/5/6 595/5/6
f 595/5/6 594/5/6 596/5/6
f 597/5/6 598/5/6 599/5/6
f 599/5/6 598/5/6 600/5/6
f 599/4/6 600/4/6 601/4/6
f 601/4/6 600/4/6 602/4/6
f 601/5/6 602/5/6 603/5/6
f 603/5/6 602/5/6 604/5/6
f 604/5/6 602/5/6 605/5/6
f 605/5/6 602/5/6 606/5/6
f 606/5/6 602/5/6 607/5/6
f 607/5/6 602/5/6 608/5/6
f 601/5/6 603/5/6 609/5/6
f 603/4/6 604/4/6 609/4/6
f 604/5/6 605/5/6 610/5/6
f 609/4/6 604/4/6 610/4/6
f 605/4/6 606/4/6 611/4/6
f 610/5/6 605/5/6 611/5/6
f 606/5/6 607/5/6 612/5/6
f 611/4/6 606/4/6 612/4/6
f 607/4/6 608/4/6 613/4/6
f 612/5/6 607/5/6 613/5/6
f 608/5/6 602/5/6 614/5/6
f 613/4/6 608/4/6 614/4/6
f 612/5/6 613/5/6 615/5/6
f 611/5/6 612/5/6 615/5/6
f 613/5/6 614/5/6 615/5/6
f 610/5/6 611/5/6 615/5/6
f 609/5/6 610/5/6 615/5/6
f 601/5/6 609/5/6 615/5/6
f 614/5/6 602/5/6 616/5/6
f 615/5/6 614/5/6 616/5/6
f 615/4/6 616/4/6 617/4/6
f 617/4/6 616/4/6 618/4/6
f 617/5/6 618/5/6 619/5/6
f 619/5/6 618/5/6 620/5/6
