# MagicaVoxel @ Ephtracy

# group
o 

# material
mtllib model-0.mtl
usemtl palette

# normals
vn 0 0 1
vn 0 0 -1
vn 1 0 0
vn -1 0 0
vn 0 -1 0
vn 0 1 0

# texcoords
vt 0.0449219 0.5
vt 0.521484 0.5

# verts
v 0.5 0 1
v -0.5 0 1
v 0.5 0.7 1
v -0.5 0.7 1
v 0.5 0 -1
v -0.5 0 -1
v 0.5 0.7 -1
v -0.5 0.7 -1
v 0.5 0 1
v 0.5 0.7 1
v 0.5 0.3 0.4
v 0.5 0.5 0.4
v 0.5 0.5 0.3
v 0.5 0.6 0.3
v 0.5 0.6 0.1
v 0.5 0.7 0.1
v 0.5 0.6 -0.1
v 0.5 0.7 -0.1
v 0.5 0.5 -0.3
v 0.5 0.6 -0.3
v 0.5 0.3 -0.4
v 0.5 0.5 -0.4
v 0.5 0 -1
v 0.5 0.7 -1
v -0.5 0 1
v -0.5 0.7 1
v -0.5 0 -1
v -0.5 0.7 -1
v 0.5 0 1
v 0.5 0 -1
v -0.5 0 1
v -0.5 0 -1
v 0.5 0.7 1
v 0.5 0.7 0.1
v 0.5 0.7 -0.1
v 0.5 0.7 -1
v 0.4 0.7 0.1
v 0.4 0.7 -0.1
v -0.5 0.7 1
v -0.5 0.7 -1

# faces
f 3/1/1 2/1/1 1/1/1
f 4/1/1 2/1/1 3/1/1
f 5/1/2 6/1/2 7/1/2
f 7/1/2 6/1/2 8/1/2
f 11/1/3 10/1/3 9/1/3
f 12/1/3 10/1/3 11/1/3
f 13/2/3 12/2/3 11/2/3
f 13/1/3 10/1/3 12/1/3
f 14/1/3 10/1/3 13/1/3
f 15/2/3 14/2/3 13/2/3
f 15/1/3 10/1/3 14/1/3
f 16/1/3 10/1/3 15/1/3
f 17/2/3 15/2/3 13/2/3
f 17/2/3 16/2/3 15/2/3
f 18/2/3 16/2/3 17/2/3
f 19/2/3 13/2/3 11/2/3
f 19/2/3 17/2/3 13/2/3
f 20/1/3 18/1/3 17/1/3
f 20/2/3 17/2/3 19/2/3
f 21/1/3 11/1/3 9/1/3
f 21/2/3 19/2/3 11/2/3
f 22/1/3 20/1/3 19/1/3
f 22/2/3 19/2/3 21/2/3
f 23/1/3 21/1/3 9/1/3
f 23/1/3 22/1/3 21/1/3
f 24/1/3 18/1/3 20/1/3
f 24/1/3 22/1/3 23/1/3
f 24/1/3 20/1/3 22/1/3
f 25/1/4 26/1/4 27/1/4
f 27/1/4 26/1/4 28/1/4
f 31/1/5 30/1/5 29/1/5
f 32/1/5 30/1/5 31/1/5
f 33/1/6 34/1/6 37/1/6
f 34/2/6 35/2/6 37/2/6
f 35/1/6 36/1/6 38/1/6
f 37/2/6 35/2/6 38/2/6
f 33/1/6 37/1/6 39/1/6
f 37/1/6 38/1/6 39/1/6
f 38/1/6 36/1/6 40/1/6
f 39/1/6 38/1/6 40/1/6
