# MagicaVoxel @ Ephtracy

# group
o 

# material
mtllib model.mtl
usemtl palette

# normals
vn 0 0 1
vn 0 0 -1
vn 1 0 0
vn -1 0 0
vn 0 -1 0
vn 0 1 0

# texcoords
vt 0.177734 0.5
vt 0.201172 0.5
vt 0.572266 0.5
vt 0.830078 0.5

# verts
v 0.2 3.4 2.5
v -0.0999999 3.4 2.5
v 0.2 4.2 2.5
v -0.0999999 4.2 2.5
v 0.2 3.3 2.4
v -0.0999999 3.3 2.4
v 0.2 3.4 2.4
v -0.0999999 3.4 2.4
v 0.1 1.9 2.1
v -0.2 1.9 2.1
v 0.1 2.4 2.1
v -0.2 2.4 2.1
v 0.1 2.4 2
v -0.2 2.4 2
v 0.1 2.6 2
v -0.2 2.6 2
v 0.2 3.6 1.8
v -0.0999999 3.6 1.8
v 0.2 4 1.8
v -0.0999999 4 1.8
v 0.9 0.2 1.4
v -0.9 0.2 1.4
v 0.1 1.9 1.4
v -0.2 1.9 1.4
v 0.1 2 1.4
v 1.19209e-07 2 1.4
v 0.1 2.5 1.4
v 1.19209e-07 2.5 1.4
v 0.1 2.6 1.4
v -0.2 2.6 1.4
v 0.9 2.8 1.4
v -0.9 2.8 1.4
v 0.8 0 1.3
v -0.8 0 1.3
v 0.8 0.2 1.3
v -0.8 0.2 1.3
v 1.1 0.2 1.2
v 0.9 0.2 1.2
v -0.9 0.2 1.2
v -1.1 0.2 1.2
v 1.1 2.8 1.2
v 0.9 2.8 1.2
v 0.7 2.8 1.2
v -0.7 2.8 1.2
v -0.9 2.8 1.2
v -1.1 2.8 1.2
v 0.7 3 1.2
v 0.2 3 1.2
v -0.0999999 3 1.2
v -0.7 3 1.2
v 0.2 3.3 1.2
v -0.0999999 3.3 1.2
v 1 0 1.1
v 0.8 0 1.1
v -0.8 0 1.1
v -1 0 1.1
v 1 0.2 1.1
v 0.8 0.2 1.1
v -0.8 0.2 1.1
v -1 0.2 1.1
v 0.9 2.8 1
v 0.7 2.8 1
v -0.7 2.8 1
v -0.9 2.8 1
v 0.9 3 1
v 0.7 3 1
v -0.7 3 1
v -0.9 3 1
v 0.5 3 0.6
v -0.5 3 0.6
v 0.5 3.1 0.6
v -0.5 3.1 0.6
v 1.1 2.2 0.3
v 0.4 2.2 0.3
v 1.1 2.3 0.3
v 0.4 2.3 0.3
v 1.3 0.9 0.2
v 0.9 0.9 0.2
v 1.3 1.3 0.2
v 0.9 1.3 0.2
v 1.1 2.1 0.0999999
v 0.4 2.1 0.0999999
v 1.1 2.2 0.0999999
v 0.4 2.2 0.0999999
v 1.1 0.3 -0.9
v 0.4 0.3 -0.9
v 1.1 0.5 -0.9
v 0.4 0.5 -0.9
v 1.1 2.2 -0.9
v 0.4 2.2 -0.9
v 1.1 2.3 -0.9
v 0.4 2.3 -0.9
v 0.2 3 -0.9
v -0.0999999 3 -0.9
v 0.2 3.5 -0.9
v -0.0999999 3.5 -0.9
v 1.1 0.5 -1
v 0.4 0.5 -1
v 1.1 2.2 -1
v 0.4 2.2 -1
v 0.2 3.5 -1
v -0.0999999 3.5 -1
v 0.2 3.6 -1
v -0.0999999 3.6 -1
v 0.2 3.6 -1.5
v -0.0999999 3.6 -1.5
v 0.2 3.9 -1.5
v -0.0999999 3.9 -1.5
v 0.2 3.9 -1.6
v -0.0999999 3.9 -1.6
v 0.2 4 -1.6
v -0.0999999 4 -1.6
v 0.1 2.3 -1.9
v 1.19209e-07 2.3 -1.9
v 0.1 2.5 -1.9
v 1.19209e-07 2.5 -1.9
v 0.1 2 -2
v 1.19209e-07 2 -2
v 0.1 2.3 -2
v 1.19209e-07 2.3 -2
v 0.2 3.6 -2.2
v -0.0999999 3.6 -2.2
v 0.2 4.1 -2.2
v -0.0999999 4.1 -2.2
v 0.2 4.1 -2.3
v -0.0999999 4.1 -2.3
v 0.2 4.2 -2.3
v -0.0999999 4.2 -2.3
v 0.2 4.1 2.3
v -0.0999999 4.1 2.3
v 0.2 4.2 2.3
v -0.0999999 4.2 2.3
v 0.2 3.6 2.2
v -0.0999999 3.6 2.2
v 0.2 4.1 2.2
v -0.0999999 4.1 2.2
v 0.1 2 2
v 1.19209e-07 2 2
v 0.1 2.3 2
v 1.19209e-07 2.3 2
v 0.1 2.3 1.9
v 1.19209e-07 2.3 1.9
v 0.1 2.5 1.9
v 1.19209e-07 2.5 1.9
v 0.2 3.9 1.6
v -0.0999999 3.9 1.6
v 0.2 4 1.6
v -0.0999999 4 1.6
v 0.2 3.6 1.5
v -0.0999999 3.6 1.5
v 0.2 3.9 1.5
v -0.0999999 3.9 1.5
v 1.1 0.5 1
v 0.4 0.5 1
v 1.1 2.2 1
v 0.4 2.2 1
v 0.2 3.5 1
v -0.0999999 3.5 1
v 0.2 3.6 1
v -0.0999999 3.6 1
v 1.1 0.3 0.9
v 0.4 0.3 0.9
v 1.1 0.5 0.9
v 0.4 0.5 0.9
v 1.1 2.2 0.9
v 0.4 2.2 0.9
v 1.1 2.3 0.9
v 0.4 2.3 0.9
v 0.2 3 0.9
v -0.0999999 3 0.9
v 0.2 3.5 0.9
v -0.0999999 3.5 0.9
v 1.1 2.1 -0.1
v 0.4 2.1 -0.1
v 1.1 2.2 -0.1
v 0.4 2.2 -0.1
v 1.3 0.9 -0.2
v 0.9 0.9 -0.2
v 1.3 1.3 -0.2
v 0.9 1.3 -0.2
v 1.1 2.2 -0.3
v 0.4 2.2 -0.3
v 1.1 2.3 -0.3
v 0.4 2.3 -0.3
v 0.5 3 -0.6
v -0.5 3 -0.6
v 0.5 3.1 -0.6
v -0.5 3.1 -0.6
v 0.9 2.8 -1
v 0.7 2.8 -1
v -0.7 2.8 -1
v -0.9 2.8 -1
v 0.9 3 -1
v 0.7 3 -1
v -0.7 3 -1
v -0.9 3 -1
v 1 0 -1.1
v 0.8 0 -1.1
v -0.8 0 -1.1
v -1 0 -1.1
v 1 0.2 -1.1
v 0.8 0.2 -1.1
v -0.8 0.2 -1.1
v -1 0.2 -1.1
v 1.1 0.2 -1.2
v 0.9 0.2 -1.2
v -0.9 0.2 -1.2
v -1.1 0.2 -1.2
v 1.1 2.8 -1.2
v 0.9 2.8 -1.2
v 0.7 2.8 -1.2
v -0.7 2.8 -1.2
v -0.9 2.8 -1.2
v -1.1 2.8 -1.2
v 0.7 3 -1.2
v 0.2 3 -1.2
v -0.0999999 3 -1.2
v -0.7 3 -1.2
v 0.2 3.3 -1.2
v -0.0999999 3.3 -1.2
v 0.8 0 -1.3
v -0.8 0 -1.3
v 0.8 0.2 -1.3
v -0.8 0.2 -1.3
v 0.9 0.2 -1.4
v -0.9 0.2 -1.4
v 0.1 1.9 -1.4
v -0.2 1.9 -1.4
v 0.1 2 -1.4
v 1.19209e-07 2 -1.4
v 0.1 2.5 -1.4
v 1.19209e-07 2.5 -1.4
v 0.1 2.6 -1.4
v -0.2 2.6 -1.4
v 0.9 2.8 -1.4
v -0.9 2.8 -1.4
v 0.2 3.6 -1.8
v -0.0999999 3.6 -1.8
v 0.2 4 -1.8
v -0.0999999 4 -1.8
v 0.1 2.4 -2
v -0.2 2.4 -2
v 0.1 2.6 -2
v -0.2 2.6 -2
v 0.1 1.9 -2.1
v -0.2 1.9 -2.1
v 0.1 2.4 -2.1
v -0.2 2.4 -2.1
v 0.2 3.3 -2.4
v -0.0999999 3.3 -2.4
v 0.2 3.4 -2.4
v -0.0999999 3.4 -2.4
v 0.2 3.4 -2.5
v -0.0999999 3.4 -2.5
v 0.2 4.2 -2.5
v -0.0999999 4.2 -2.5
v 1.3 0.9 0.2
v 1.3 1.3 0.2
v 1.3 0.9 -0.2
v 1.3 1.3 -0.2
v 1.1 0.2 1.2
v 1.1 2.8 1.2
v 1.1 0.5 1
v 1.1 2.2 1
v 1.1 0.3 0.9
v 1.1 0.5 0.9
v 1.1 2.2 0.9
v 1.1 2.3 0.9
v 1.1 2.2 0.3
v 1.1 2.3 0.3
v 1.1 2.1 0.0999999
v 1.1 2.2 0.0999999
v 1.1 2.1 -0.1
v 1.1 2.2 -0.1
v 1.1 2.2 -0.3
v 1.1 2.3 -0.3
v 1.1 0.3 -0.9
v 1.1 0.5 -0.9
v 1.1 2.2 -0.9
v 1.1 2.3 -0.9
v 1.1 0.5 -1
v 1.1 2.2 -1
v 1.1 0.2 -1.2
v 1.1 2.8 -1.2
v 1 0 1.1
v 1 0.2 1.1
v 1 0 -1.1
v 1 0.2 -1.1
v 0.9 0.2 1.4
v 0.9 2.8 1.4
v 0.9 0.2 1.2
v 0.9 2.8 1.2
v 0.9 2.8 1
v 0.9 3 1
v 0.9 2.8 -1
v 0.9 3 -1
v 0.9 0.2 -1.2
v 0.9 2.8 -1.2
v 0.9 0.2 -1.4
v 0.9 2.8 -1.4
v 0.8 0 1.3
v 0.8 0.2 1.3
v 0.8 0 1.1
v 0.8 0.2 1.1
v 0.8 0 -1.1
v 0.8 0.2 -1.1
v 0.8 0 -1.3
v 0.8 0.2 -1.3
v 0.7 2.8 1.2
v 0.7 3 1.2
v 0.7 2.8 1
v 0.7 3 1
v 0.7 2.8 -1
v 0.7 3 -1
v 0.7 2.8 -1.2
v 0.7 3 -1.2
v 0.5 3 0.6
v 0.5 3.1 0.6
v 0.5 3 -0.6
v 0.5 3.1 -0.6
v 0.4 0.5 1
v 0.4 2.2 1
v 0.4 0.3 0.9
v 0.4 0.5 0.9
v 0.4 2.2 0.9
v 0.4 2.3 0.9
v 0.4 2.2 0.3
v 0.4 2.3 0.3
v 0.4 2.1 0.0999999
v 0.4 2.2 0.0999999
v 0.4 2.1 -0.1
v 0.4 2.2 -0.1
v 0.4 2.2 -0.3
v 0.4 2.3 -0.3
v 0.4 0.3 -0.9
v 0.4 0.5 -0.9
v 0.4 2.2 -0.9
v 0.4 2.3 -0.9
v 0.4 0.5 -1
v 0.4 2.2 -1
v 0.2 3.4 2.5
v 0.2 4.2 2.5
v 0.2 3.3 2.4
v 0.2 3.4 2.4
v 0.2 4.1 2.3
v 0.2 4.2 2.3
v 0.2 3.6 2.2
v 0.2 4.1 2.2
v 0.2 3.6 1.8
v 0.2 4 1.8
v 0.2 3.9 1.6
v 0.2 4 1.6
v 0.2 3.6 1.5
v 0.2 3.9 1.5
v 0.2 3 1.2
v 0.2 3.3 1.2
v 0.2 3.5 1
v 0.2 3.6 1
v 0.2 3 0.9
v 0.2 3.5 0.9
v 0.2 3 -0.9
v 0.2 3.5 -0.9
v 0.2 3.5 -1
v 0.2 3.6 -1
v 0.2 3 -1.2
v 0.2 3.3 -1.2
v 0.2 3.6 -1.5
v 0.2 3.9 -1.5
v 0.2 3.9 -1.6
v 0.2 4 -1.6
v 0.2 3.6 -1.8
v 0.2 4 -1.8
v 0.2 3.6 -2.2
v 0.2 4.1 -2.2
v 0.2 4.1 -2.3
v 0.2 4.2 -2.3
v 0.2 3.3 -2.4
v 0.2 3.4 -2.4
v 0.2 3.4 -2.5
v 0.2 4.2 -2.5
v 0.1 1.9 2.1
v 0.1 2.4 2.1
v 0.1 2 2
v 0.1 2.3 2
v 0.1 2.4 2
v 0.1 2.6 2
v 0.1 2.3 1.9
v 0.1 2.5 1.9
v 0.1 1.9 1.4
v 0.1 2 1.4
v 0.1 2.5 1.4
v 0.1 2.6 1.4
v 0.1 1.9 -1.4
v 0.1 2 -1.4
v 0.1 2.5 -1.4
v 0.1 2.6 -1.4
v 0.1 2.3 -1.9
v 0.1 2.5 -1.9
v 0.1 2 -2
v 0.1 2.3 -2
v 0.1 2.4 -2
v 0.1 2.6 -2
v 0.1 1.9 -2.1
v 0.1 2.4 -2.1
v 1.19209e-07 2 2
v 1.19209e-07 2.3 2
v 1.19209e-07 2.3 1.9
v 1.19209e-07 2.5 1.9
v 1.19209e-07 2 1.4
v 1.19209e-07 2.5 1.4
v 1.19209e-07 2 -1.4
v 1.19209e-07 2.5 -1.4
v 1.19209e-07 2.3 -1.9
v 1.19209e-07 2.5 -1.9
v 1.19209e-07 2 -2
v 1.19209e-07 2.3 -2
v 0.9 0.9 0.2
v 0.9 1.3 0.2
v 0.9 0.9 -0.2
v 0.9 1.3 -0.2
v -0.0999999 3.4 2.5
v -0.0999999 4.2 2.5
v -0.0999999 3.3 2.4
v -0.0999999 3.4 2.4
v -0.0999999 4.1 2.3
v -0.0999999 4.2 2.3
v -0.0999999 3.6 2.2
v -0.0999999 4.1 2.2
v -0.0999999 3.6 1.8
v -0.0999999 4 1.8
v -0.0999999 3.9 1.6
v -0.0999999 4 1.6
v -0.0999999 3.6 1.5
v -0.0999999 3.9 1.5
v -0.0999999 3 1.2
v -0.0999999 3.3 1.2
v -0.0999999 3.5 1
v -0.0999999 3.6 1
v -0.0999999 3 0.9
v -0.0999999 3.5 0.9
v -0.0999999 3 -0.9
v -0.0999999 3.5 -0.9
v -0.0999999 3.5 -1
v -0.0999999 3.6 -1
v -0.0999999 3 -1.2
v -0.0999999 3.3 -1.2
v -0.0999999 3.6 -1.5
v -0.0999999 3.9 -1.5
v -0.0999999 3.9 -1.6
v -0.0999999 4 -1.6
v -0.0999999 3.6 -1.8
v -0.0999999 4 -1.8
v -0.0999999 3.6 -2.2
v -0.0999999 4.1 -2.2
v -0.0999999 4.1 -2.3
v -0.0999999 4.2 -2.3
v -0.0999999 3.3 -2.4
v -0.0999999 3.4 -2.4
v -0.0999999 3.4 -2.5
v -0.0999999 4.2 -2.5
v -0.2 1.9 2.1
v -0.2 2.4 2.1
v -0.2 2.4 2
v -0.2 2.6 2
v -0.2 1.9 1.4
v -0.2 2.6 1.4
v -0.2 1.9 -1.4
v -0.2 2.6 -1.4
v -0.2 2.4 -2
v -0.2 2.6 -2
v -0.2 1.9 -2.1
v -0.2 2.4 -2.1
v -0.5 3 0.6
v -0.5 3.1 0.6
v -0.5 3 -0.6
v -0.5 3.1 -0.6
v -0.7 2.8 1.2
v -0.7 3 1.2
v -0.7 2.8 1
v -0.7 3 1
v -0.7 2.8 -1
v -0.7 3 -1
v -0.7 2.8 -1.2
v -0.7 3 -1.2
v -0.8 0 1.3
v -0.8 0.2 1.3
v -0.8 0 1.1
v -0.8 0.2 1.1
v -0.8 0 -1.1
v -0.8 0.2 -1.1
v -0.8 0 -1.3
v -0.8 0.2 -1.3
v -0.9 0.2 1.4
v -0.9 2.8 1.4
v -0.9 0.2 1.2
v -0.9 2.8 1.2
v -0.9 2.8 1
v -0.9 3 1
v -0.9 2.8 -1
v -0.9 3 -1
v -0.9 0.2 -1.2
v -0.9 2.8 -1.2
v -0.9 0.2 -1.4
v -0.9 2.8 -1.4
v -1 0 1.1
v -1 0.2 1.1
v -1 0 -1.1
v -1 0.2 -1.1
v -1.1 0.2 1.2
v -1.1 2.8 1.2
v -1.1 0.2 -1.2
v -1.1 2.8 -1.2
v 1 0 1.1
v 1 0 -1.1
v 0.8 0 1.3
v 0.8 0 1.1
v 0.8 0 -1.1
v 0.8 0 -1.3
v -0.8 0 1.3
v -0.8 0 1.1
v -0.8 0 -1.1
v -0.8 0 -1.3
v -1 0 1.1
v -1 0 -1.1
v 1.1 0.2 1.2
v 1.1 0.2 -1.2
v 1 0.2 1.1
v 1 0.2 -1.1
v 0.9 0.2 1.4
v 0.9 0.2 1.2
v 0.9 0.2 -1.2
v 0.9 0.2 -1.4
v 0.8 0.2 1.3
v 0.8 0.2 1.1
v 0.8 0.2 -1.1
v 0.8 0.2 -1.3
v -0.8 0.2 1.3
v -0.8 0.2 1.1
v -0.8 0.2 -1.1
v -0.8 0.2 -1.3
v -0.9 0.2 1.4
v -0.9 0.2 1.2
v -0.9 0.2 -1.2
v -0.9 0.2 -1.4
v -1 0.2 1.1
v -1 0.2 -1.1
v -1.1 0.2 1.2
v -1.1 0.2 -1.2
v 1.3 0.9 0.2
v 1.3 0.9 -0.2
v 0.9 0.9 0.2
v 0.9 0.9 -0.2
v 0.1 1.9 2.1
v 0.1 1.9 1.4
v 0.1 1.9 -1.4
v 0.1 1.9 -2.1
v -0.2 1.9 2.1
v -0.2 1.9 1.4
v -0.2 1.9 -1.4
v -0.2 1.9 -2.1
v 1.1 2.1 0.0999999
v 1.1 2.1 -0.1
v 0.4 2.1 0.0999999
v 0.4 2.1 -0.1
v 1.1 2.2 1
v 1.1 2.2 0.9
v 1.1 2.2 0.3
v 1.1 2.2 0.0999999
v 1.1 2.2 -0.1
v 1.1 2.2 -0.3
v 1.1 2.2 -0.9
v 1.1 2.2 -1
v 0.4 2.2 1
v 0.4 2.2 0.9
v 0.4 2.2 0.3
v 0.4 2.2 0.0999999
v 0.4 2.2 -0.1
v 0.4 2.2 -0.3
v 0.4 2.2 -0.9
v 0.4 2.2 -1
v 1.1 2.3 0.9
v 1.1 2.3 0.3
v 1.1 2.3 -0.3
v 1.1 2.3 -0.9
v 0.4 2.3 0.9
v 0.4 2.3 0.3
v 0.4 2.3 -0.3
v 0.4 2.3 -0.9
v 0.1 2.3 2
v 0.1 2.3 1.9
v 0.1 2.3 -1.9
v 0.1 2.3 -2
v 1.19209e-07 2.3 2
v 1.19209e-07 2.3 1.9
v 1.19209e-07 2.3 -1.9
v 1.19209e-07 2.3 -2
v 0.1 2.5 1.9
v 0.1 2.5 1.4
v 0.1 2.5 -1.4
v 0.1 2.5 -1.9
v 1.19209e-07 2.5 1.9
v 1.19209e-07 2.5 1.4
v 1.19209e-07 2.5 -1.4
v 1.19209e-07 2.5 -1.9
v 0.2 3.3 2.4
v 0.2 3.3 1.2
v 0.2 3.3 -1.2
v 0.2 3.3 -2.4
v -0.0999999 3.3 2.4
v -0.0999999 3.3 1.2
v -0.0999999 3.3 -1.2
v -0.0999999 3.3 -2.4
v 0.2 3.4 2.5
v 0.2 3.4 2.4
v 0.2 3.4 -2.4
v 0.2 3.4 -2.5
v -0.0999999 3.4 2.5
v -0.0999999 3.4 2.4
v -0.0999999 3.4 -2.4
v -0.0999999 3.4 -2.5
v 1.1 0.3 0.9
v 1.1 0.3 -0.9
v 0.4 0.3 0.9
v 0.4 0.3 -0.9
v 1.1 0.5 1
v 1.1 0.5 0.9
v 1.1 0.5 -0.9
v 1.1 0.5 -1
v 0.4 0.5 1
v 0.4 0.5 0.9
v 0.4 0.5 -0.9
v 0.4 0.5 -1
v 1.3 1.3 0.2
v 1.3 1.3 -0.2
v 0.9 1.3 0.2
v 0.9 1.3 -0.2
v 0.1 2 2
v 0.1 2 1.4
v 0.1 2 -1.4
v 0.1 2 -2
v 1.19209e-07 2 2
v 1.19209e-07 2 1.4
v 1.19209e-07 2 -1.4
v 1.19209e-07 2 -2
v 0.1 2.4 2.1
v 0.1 2.4 2
v 0.1 2.4 -2
v 0.1 2.4 -2.1
v -0.2 2.4 2.1
v -0.2 2.4 2
v -0.2 2.4 -2
v -0.2 2.4 -2.1
v 0.1 2.6 2
v 0.1 2.6 1.4
v 0.1 2.6 -1.4
v 0.1 2.6 -2
v -0.2 2.6 2
v -0.2 2.6 1.4
v -0.2 2.6 -1.4
v -0.2 2.6 -2
v 1.1 2.8 1.2
v 1.1 2.8 -1.2
v 0.9 2.8 1.4
v 0.9 2.8 1.2
v 0.9 2.8 1
v 0.9 2.8 -1
v 0.9 2.8 -1.2
v 0.9 2.8 -1.4
v 0.7 2.8 1.2
v 0.7 2.8 1
v 0.7 2.8 -1
v 0.7 2.8 -1.2
v -0.7 2.8 1.2
v -0.7 2.8 1
v -0.7 2.8 -1
v -0.7 2.8 -1.2
v -0.9 2.8 1.4
v -0.9 2.8 1.2
v -0.9 2.8 1
v -0.9 2.8 -1
v -0.9 2.8 -1.2
v -0.9 2.8 -1.4
v -1.1 2.8 1.2
v -1.1 2.8 -1.2
v 0.9 3 1
v 0.9 3 -1
v 0.7 3 1.2
v 0.7 3 1
v 0.7 3 -1
v 0.7 3 -1.2
v 0.5 3 0.6
v 0.5 3 -0.6
v 0.2 3 1.2
v 0.2 3 0.9
v 0.2 3 -0.9
v 0.2 3 -1.2
v -0.0999999 3 1.2
v -0.0999999 3 0.9
v -0.0999999 3 -0.9
v -0.0999999 3 -1.2
v -0.5 3 0.6
v -0.5 3 -0.6
v -0.7 3 1.2
v -0.7 3 1
v -0.7 3 -1
v -0.7 3 -1.2
v -0.9 3 1
v -0.9 3 -1
v 0.5 3.1 0.6
v 0.5 3.1 -0.6
v -0.5 3.1 0.6
v -0.5 3.1 -0.6
v 0.2 3.5 1
v 0.2 3.5 0.9
v 0.2 3.5 -0.9
v 0.2 3.5 -1
v -0.0999999 3.5 1
v -0.0999999 3.5 0.9
v -0.0999999 3.5 -0.9
v -0.0999999 3.5 -1
v 0.2 3.6 2.2
v 0.2 3.6 1.8
v 0.2 3.6 1.5
v 0.2 3.6 1
v 0.2 3.6 -1
v 0.2 3.6 -1.5
v 0.2 3.6 -1.8
v 0.2 3.6 -2.2
v -0.0999999 3.6 2.2
v -0.0999999 3.6 1.8
v -0.0999999 3.6 1.5
v -0.0999999 3.6 1
v -0.0999999 3.6 -1
v -0.0999999 3.6 -1.5
v -0.0999999 3.6 -1.8
v -0.0999999 3.6 -2.2
v 0.2 3.9 1.6
v 0.2 3.9 1.5
v 0.2 3.9 -1.5
v 0.2 3.9 -1.6
v -0.0999999 3.9 1.6
v -0.0999999 3.9 1.5
v -0.0999999 3.9 -1.5
v -0.0999999 3.9 -1.6
v 0.2 4 1.8
v 0.2 4 1.6
v 0.2 4 -1.6
v 0.2 4 -1.8
v -0.0999999 4 1.8
v -0.0999999 4 1.6
v -0.0999999 4 -1.6
v -0.0999999 4 -1.8
v 0.2 4.1 2.3
v 0.2 4.1 2.2
v 0.2 4.1 -2.2
v 0.2 4.1 -2.3
v -0.0999999 4.1 2.3
v -0.0999999 4.1 2.2
v -0.0999999 4.1 -2.2
v -0.0999999 4.1 -2.3
v 0.2 4.2 2.5
v 0.2 4.2 2.3
v 0.2 4.2 -2.3
v 0.2 4.2 -2.5
v -0.0999999 4.2 2.5
v -0.0999999 4.2 2.3
v -0.0999999 4.2 -2.3
v -0.0999999 4.2 -2.5

# faces
f 3/1/1 2/1/1 1/1/1
f 4/1/1 2/1/1 3/1/1
f 7/1/1 6/1/1 5/1/1
f 8/1/1 6/1/1 7/1/1
f 11/4/1 10/4/1 9/4/1
f 12/4/1 10/4/1 11/4/1
f 15/4/1 14/4/1 13/4/1
f 16/4/1 14/4/1 15/4/1
f 19/1/1 18/1/1 17/1/1
f 20/1/1 18/1/1 19/1/1
f 23/4/1 22/4/1 21/4/1
f 24/4/1 22/4/1 23/4/1
f 25/4/1 23/4/1 21/4/1
f 27/4/1 25/4/1 21/4/1
f 27/4/1 26/4/1 25/4/1
f 28/4/1 26/4/1 27/4/1
f 29/4/1 27/4/1 21/4/1
f 30/4/1 22/4/1 24/4/1
f 31/4/1 29/4/1 21/4/1
f 31/4/1 30/4/1 29/4/1
f 32/4/1 22/4/1 30/4/1
f 32/4/1 30/4/1 31/4/1
f 35/4/1 34/4/1 33/4/1
f 36/4/1 34/4/1 35/4/1
f 41/4/1 38/4/1 37/4/1
f 42/4/1 38/4/1 41/4/1
f 45/4/1 40/4/1 39/4/1
f 46/4/1 40/4/1 45/4/1
f 47/4/1 44/4/1 43/4/1
f 48/4/1 44/4/1 47/4/1
f 49/4/1 44/4/1 48/4/1
f 50/4/1 44/4/1 49/4/1
f 51/1/1 49/1/1 48/1/1
f 52/1/1 49/1/1 51/1/1
f 57/4/1 54/4/1 53/4/1
f 58/4/1 54/4/1 57/4/1
f 59/4/1 56/4/1 55/4/1
f 60/4/1 56/4/1 59/4/1
f 65/4/1 62/4/1 61/4/1
f 66/4/1 62/4/1 65/4/1
f 67/4/1 64/4/1 63/4/1
f 68/4/1 64/4/1 67/4/1
f 71/4/1 70/4/1 69/4/1
f 72/4/1 70/4/1 71/4/1
f 75/4/1 74/4/1 73/4/1
f 76/4/1 74/4/1 75/4/1
f 79/3/1 78/3/1 77/3/1
f 80/3/1 78/3/1 79/3/1
f 83/4/1 82/4/1 81/4/1
f 84/4/1 82/4/1 83/4/1
f 87/4/1 86/4/1 85/4/1
f 88/4/1 86/4/1 87/4/1
f 91/4/1 90/4/1 89/4/1
f 92/4/1 90/4/1 91/4/1
f 95/1/1 94/1/1 93/1/1
f 96/1/1 94/1/1 95/1/1
f 99/4/1 98/4/1 97/4/1
f 100/4/1 98/4/1 99/4/1
f 103/1/1 102/1/1 101/1/1
f 104/1/1 102/1/1 103/1/1
f 107/1/1 106/1/1 105/1/1
f 108/1/1 106/1/1 107/1/1
f 111/1/1 110/1/1 109/1/1
f 112/1/1 110/1/1 111/1/1
f 115/4/1 114/4/1 113/4/1
f 116/4/1 114/4/1 115/4/1
f 119/4/1 118/4/1 117/4/1
f 120/4/1 118/4/1 119/4/1
f 123/1/1 122/1/1 121/1/1
f 124/1/1 122/1/1 123/1/1
f 127/1/1 126/1/1 125/1/1
f 128/1/1 126/1/1 127/1/1
f 129/1/2 130/1/2 131/1/2
f 131/1/2 130/1/2 132/1/2
f 133/1/2 134/1/2 135/1/2
f 135/1/2 134/1/2 136/1/2
f 137/4/2 138/4/2 139/4/2
f 139/4/2 138/4/2 140/4/2
f 141/4/2 142/4/2 143/4/2
f 143/4/2 142/4/2 144/4/2
f 145/1/2 146/1/2 147/1/2
f 147/1/2 146/1/2 148/1/2
f 149/1/2 150/1/2 151/1/2
f 151/1/2 150/1/2 152/1/2
f 153/4/2 154/4/2 155/4/2
f 155/4/2 154/4/2 156/4/2
f 157/1/2 158/1/2 159/1/2
f 159/1/2 158/1/2 160/1/2
f 161/4/2 162/4/2 163/4/2
f 163/4/2 162/4/2 164/4/2
f 165/4/2 166/4/2 167/4/2
f 167/4/2 166/4/2 168/4/2
f 169/1/2 170/1/2 171/1/2
f 171/1/2 170/1/2 172/1/2
f 173/4/2 174/4/2 175/4/2
f 175/4/2 174/4/2 176/4/2
f 177/3/2 178/3/2 179/3/2
f 179/3/2 178/3/2 180/3/2
f 181/4/2 182/4/2 183/4/2
f 183/4/2 182/4/2 184/4/2
f 185/4/2 186/4/2 187/4/2
f 187/4/2 186/4/2 188/4/2
f 189/4/2 190/4/2 193/4/2
f 193/4/2 190/4/2 194/4/2
f 191/4/2 192/4/2 195/4/2
f 195/4/2 192/4/2 196/4/2
f 197/4/2 198/4/2 201/4/2
f 201/4/2 198/4/2 202/4/2
f 199/4/2 200/4/2 203/4/2
f 203/4/2 200/4/2 204/4/2
f 205/4/2 206/4/2 209/4/2
f 209/4/2 206/4/2 210/4/2
f 207/4/2 208/4/2 213/4/2
f 213/4/2 208/4/2 214/4/2
f 211/4/2 212/4/2 215/4/2
f 215/4/2 212/4/2 216/4/2
f 216/4/2 212/4/2 217/4/2
f 217/4/2 212/4/2 218/4/2
f 216/1/2 217/1/2 219/1/2
f 219/1/2 217/1/2 220/1/2
f 221/4/2 222/4/2 223/4/2
f 223/4/2 222/4/2 224/4/2
f 225/4/2 226/4/2 227/4/2
f 227/4/2 226/4/2 228/4/2
f 225/4/2 227/4/2 229/4/2
f 225/4/2 229/4/2 231/4/2
f 229/4/2 230/4/2 231/4/2
f 231/4/2 230/4/2 232/4/2
f 225/4/2 231/4/2 233/4/2
f 228/4/2 226/4/2 234/4/2
f 225/4/2 233/4/2 235/4/2
f 233/4/2 234/4/2 235/4/2
f 234/4/2 226/4/2 236/4/2
f 235/4/2 234/4/2 236/4/2
f 237/1/2 238/1/2 239/1/2
f 239/1/2 238/1/2 240/1/2
f 241/4/2 242/4/2 243/4/2
f 243/4/2 242/4/2 244/4/2
f 245/4/2 246/4/2 247/4/2
f 247/4/2 246/4/2 248/4/2
f 249/1/2 250/1/2 251/1/2
f 251/1/2 250/1/2 252/1/2
f 253/1/2 254/1/2 255/1/2
f 255/1/2 254/1/2 256/1/2
f 259/3/3 258/3/3 257/3/3
f 260/3/3 258/3/3 259/3/3
f 263/4/3 262/4/3 261/4/3
f 264/4/3 262/4/3 263/4/3
f 265/4/3 263/4/3 261/4/3
f 266/4/3 263/4/3 265/4/3
f 267/4/3 262/4/3 264/4/3
f 268/4/3 262/4/3 267/4/3
f 270/4/3 262/4/3 268/4/3
f 272/4/3 270/4/3 269/4/3
f 273/4/3 272/4/3 271/4/3
f 274/4/3 270/4/3 272/4/3
f 274/4/3 272/4/3 273/4/3
f 275/4/3 270/4/3 274/4/3
f 276/4/3 262/4/3 270/4/3
f 276/4/3 270/4/3 275/4/3
f 277/4/3 265/4/3 261/4/3
f 280/4/3 262/4/3 276/4/3
f 281/4/3 278/4/3 277/4/3
f 282/4/3 280/4/3 279/4/3
f 283/4/3 281/4/3 277/4/3
f 283/4/3 282/4/3 281/4/3
f 283/4/3 277/4/3 261/4/3
f 284/4/3 280/4/3 282/4/3
f 284/4/3 282/4/3 283/4/3
f 284/4/3 262/4/3 280/4/3
f 287/4/3 286/4/3 285/4/3
f 288/4/3 286/4/3 287/4/3
f 291/4/3 290/4/3 289/4/3
f 292/4/3 290/4/3 291/4/3
f 295/4/3 294/4/3 293/4/3
f 296/4/3 294/4/3 295/4/3
f 299/4/3 298/4/3 297/4/3
f 300/4/3 298/4/3 299/4/3
f 303/4/3 302/4/3 301/4/3
f 304/4/3 302/4/3 303/4/3
f 307/4/3 306/4/3 305/4/3
f 308/4/3 306/4/3 307/4/3
f 311/4/3 310/4/3 309/4/3
f 312/4/3 310/4/3 311/4/3
f 315/4/3 314/4/3 313/4/3
f 316/4/3 314/4/3 315/4/3
f 319/4/3 318/4/3 317/4/3
f 320/4/3 318/4/3 319/4/3
f 324/4/3 322/4/3 321/4/3
f 325/4/3 322/4/3 324/4/3
f 327/4/3 324/4/3 323/4/3
f 327/4/3 326/4/3 325/4/3
f 327/4/3 325/4/3 324/4/3
f 328/4/3 326/4/3 327/4/3
f 329/4/3 327/4/3 323/4/3
f 330/4/3 327/4/3 329/4/3
f 331/4/3 329/4/3 323/4/3
f 333/4/3 332/4/3 331/4/3
f 335/4/3 333/4/3 331/4/3
f 335/4/3 334/4/3 333/4/3
f 335/4/3 331/4/3 323/4/3
f 336/4/3 334/4/3 335/4/3
f 337/4/3 334/4/3 336/4/3
f 338/4/3 334/4/3 337/4/3
f 339/4/3 337/4/3 336/4/3
f 340/4/3 337/4/3 339/4/3
f 344/1/3 342/1/3 341/1/3
f 345/1/3 342/1/3 344/1/3
f 345/1/3 344/1/3 343/1/3
f 346/1/3 342/1/3 345/1/3
f 347/1/3 345/1/3 343/1/3
f 348/1/3 345/1/3 347/1/3
f 349/1/3 347/1/3 343/1/3
f 351/1/3 350/1/3 349/1/3
f 352/1/3 350/1/3 351/1/3
f 353/1/3 349/1/3 343/1/3
f 353/1/3 351/1/3 349/1/3
f 354/1/3 351/1/3 353/1/3
f 356/1/3 353/1/3 343/1/3
f 357/1/3 353/1/3 356/1/3
f 357/1/3 356/1/3 355/1/3
f 358/1/3 353/1/3 357/1/3
f 359/1/3 357/1/3 355/1/3
f 360/1/3 357/1/3 359/1/3
f 363/1/3 362/1/3 361/1/3
f 365/1/3 363/1/3 361/1/3
f 365/1/3 364/1/3 363/1/3
f 366/1/3 364/1/3 365/1/3
f 367/1/3 364/1/3 366/1/3
f 369/1/3 368/1/3 367/1/3
f 371/1/3 369/1/3 367/1/3
f 371/1/3 370/1/3 369/1/3
f 371/1/3 367/1/3 366/1/3
f 372/1/3 370/1/3 371/1/3
f 373/1/3 371/1/3 366/1/3
f 375/1/3 374/1/3 373/1/3
f 377/1/3 375/1/3 373/1/3
f 377/1/3 376/1/3 375/1/3
f 377/1/3 373/1/3 366/1/3
f 378/1/3 376/1/3 377/1/3
f 379/1/3 376/1/3 378/1/3
f 380/1/3 376/1/3 379/1/3
f 383/4/3 382/4/3 381/4/3
f 384/4/3 382/4/3 383/4/3
f 385/4/3 382/4/3 384/4/3
f 387/4/3 386/4/3 385/4/3
f 387/4/3 385/4/3 384/4/3
f 388/4/3 386/4/3 387/4/3
f 389/4/3 383/4/3 381/4/3
f 390/4/3 383/4/3 389/4/3
f 391/4/3 386/4/3 388/4/3
f 392/4/3 386/4/3 391/4/3
f 398/4/3 396/4/3 395/4/3
f 399/4/3 394/4/3 393/4/3
f 400/4/3 398/4/3 397/4/3
f 401/4/3 398/4/3 400/4/3
f 402/4/3 396/4/3 398/4/3
f 402/4/3 398/4/3 401/4/3
f 403/4/3 399/4/3 393/4/3
f 403/4/3 401/4/3 400/4/3
f 403/4/3 400/4/3 399/4/3
f 404/4/3 401/4/3 403/4/3
f 407/2/3 406/2/3 405/2/3
f 409/2/3 407/2/3 405/2/3
f 409/2/3 408/2/3 407/2/3
f 410/2/3 408/2/3 409/2/3
f 413/2/3 412/2/3 411/2/3
f 414/2/3 412/2/3 413/2/3
f 415/2/3 413/2/3 411/2/3
f 416/2/3 413/2/3 415/2/3
f 417/3/4 418/3/4 419/3/4
f 419/3/4 418/3/4 420/3/4
f 421/1/4 422/1/4 424/1/4
f 424/1/4 422/1/4 425/1/4
f 423/1/4 424/1/4 425/1/4
f 425/1/4 422/1/4 426/1/4
f 423/1/4 425/1/4 427/1/4
f 427/1/4 425/1/4 428/1/4
f 423/1/4 427/1/4 429/1/4
f 429/1/4 430/1/4 431/1/4
f 431/1/4 430/1/4 432/1/4
f 423/1/4 429/1/4 433/1/4
f 429/1/4 431/1/4 433/1/4
f 433/1/4 431/1/4 434/1/4
f 423/1/4 433/1/4 436/1/4
f 436/1/4 433/1/4 437/1/4
f 435/1/4 436/1/4 437/1/4
f 437/1/4 433/1/4 438/1/4
f 435/1/4 437/1/4 439/1/4
f 439/1/4 437/1/4 440/1/4
f 441/1/4 442/1/4 443/1/4
f 441/1/4 443/1/4 445/1/4
f 443/1/4 444/1/4 445/1/4
f 445/1/4 444/1/4 446/1/4
f 446/1/4 444/1/4 447/1/4
f 447/1/4 448/1/4 449/1/4
f 447/1/4 449/1/4 451/1/4
f 449/1/4 450/1/4 451/1/4
f 446/1/4 447/1/4 451/1/4
f 451/1/4 450/1/4 452/1/4
f 446/1/4 451/1/4 453/1/4
f 453/1/4 454/1/4 455/1/4
f 453/1/4 455/1/4 457/1/4
f 455/1/4 456/1/4 457/1/4
f 446/1/4 453/1/4 457/1/4
f 457/1/4 456/1/4 458/1/4
f 458/1/4 456/1/4 459/1/4
f 459/1/4 456/1/4 460/1/4
f 461/4/4 462/4/4 463/4/4
f 461/4/4 463/4/4 465/4/4
f 463/4/4 464/4/4 465/4/4
f 465/4/4 464/4/4 466/4/4
f 467/4/4 468/4/4 469/4/4
f 469/4/4 468/4/4 470/4/4
f 467/4/4 469/4/4 471/4/4
f 471/4/4 469/4/4 472/4/4
f 473/4/4 474/4/4 475/4/4
f 475/4/4 474/4/4 476/4/4
f 477/4/4 478/4/4 479/4/4
f 479/4/4 478/4/4 480/4/4
f 481/4/4 482/4/4 483/4/4
f 483/4/4 482/4/4 484/4/4
f 485/4/4 486/4/4 487/4/4
f 487/4/4 486/4/4 488/4/4
f 489/4/4 490/4/4 491/4/4
f 491/4/4 490/4/4 492/4/4
f 493/4/4 494/4/4 495/4/4
f 495/4/4 494/4/4 496/4/4
f 497/4/4 498/4/4 499/4/4
f 499/4/4 498/4/4 500/4/4
f 501/4/4 502/4/4 503/4/4
f 503/4/4 502/4/4 504/4/4
f 505/4/4 506/4/4 507/4/4
f 507/4/4 506/4/4 508/4/4
f 509/4/4 510/4/4 511/4/4
f 511/4/4 510/4/4 512/4/4
f 516/4/5 514/4/5 513/4/5
f 517/4/5 514/4/5 516/4/5
f 519/4/5 516/4/5 515/4/5
f 519/4/5 518/4/5 517/4/5
f 519/4/5 517/4/5 516/4/5
f 520/4/5 518/4/5 519/4/5
f 521/4/5 518/4/5 520/4/5
f 522/4/5 518/4/5 521/4/5
f 523/4/5 521/4/5 520/4/5
f 524/4/5 521/4/5 523/4/5
f 527/4/5 526/4/5 525/4/5
f 528/4/5 526/4/5 527/4/5
f 530/4/5 527/4/5 525/4/5
f 531/4/5 526/4/5 528/4/5
f 533/4/5 530/4/5 529/4/5
f 534/4/5 527/4/5 530/4/5
f 534/4/5 530/4/5 533/4/5
f 535/4/5 532/4/5 531/4/5
f 535/4/5 531/4/5 528/4/5
f 536/4/5 532/4/5 535/4/5
f 537/4/5 533/4/5 529/4/5
f 540/4/5 532/4/5 536/4/5
f 541/4/5 538/4/5 537/4/5
f 541/4/5 537/4/5 529/4/5
f 542/4/5 538/4/5 541/4/5
f 543/4/5 540/4/5 539/4/5
f 544/4/5 532/4/5 540/4/5
f 544/4/5 540/4/5 543/4/5
f 545/4/5 538/4/5 542/4/5
f 546/4/5 543/4/5 539/4/5
f 547/4/5 545/4/5 542/4/5
f 547/4/5 546/4/5 545/4/5
f 548/4/5 543/4/5 546/4/5
f 548/4/5 546/4/5 547/4/5
f 551/3/5 550/3/5 549/3/5
f 552/3/5 550/3/5 551/3/5
f 557/4/5 554/4/5 553/4/5
f 558/4/5 554/4/5 557/4/5
f 559/4/5 556/4/5 555/4/5
f 560/4/5 556/4/5 559/4/5
f 563/4/5 562/4/5 561/4/5
f 564/4/5 562/4/5 563/4/5
f 573/4/5 566/4/5 565/4/5
f 574/4/5 566/4/5 573/4/5
f 575/4/5 568/4/5 567/4/5
f 576/4/5 568/4/5 575/4/5
f 577/4/5 570/4/5 569/4/5
f 578/4/5 570/4/5 577/4/5
f 579/4/5 572/4/5 571/4/5
f 580/4/5 572/4/5 579/4/5
f 585/4/5 582/4/5 581/4/5
f 586/4/5 582/4/5 585/4/5
f 587/4/5 584/4/5 583/4/5
f 588/4/5 584/4/5 587/4/5
f 593/4/5 590/4/5 589/4/5
f 594/4/5 590/4/5 593/4/5
f 595/4/5 592/4/5 591/4/5
f 596/4/5 592/4/5 595/4/5
f 601/4/5 598/4/5 597/4/5
f 602/4/5 598/4/5 601/4/5
f 603/4/5 600/4/5 599/4/5
f 604/4/5 600/4/5 603/4/5
f 609/1/5 606/1/5 605/1/5
f 610/1/5 606/1/5 609/1/5
f 611/1/5 608/1/5 607/1/5
f 612/1/5 608/1/5 611/1/5
f 617/1/5 614/1/5 613/1/5
f 618/1/5 614/1/5 617/1/5
f 619/1/5 616/1/5 615/1/5
f 620/1/5 616/1/5 619/1/5
f 621/4/6 622/4/6 623/4/6
f 623/4/6 622/4/6 624/4/6
f 625/4/6 626/4/6 629/4/6
f 629/4/6 626/4/6 630/4/6
f 627/4/6 628/4/6 631/4/6
f 631/4/6 628/4/6 632/4/6
f 633/3/6 634/3/6 635/3/6
f 635/3/6 634/3/6 636/3/6
f 637/4/6 638/4/6 641/4/6
f 641/4/6 638/4/6 642/4/6
f 639/4/6 640/4/6 643/4/6
f 643/4/6 640/4/6 644/4/6
f 645/4/6 646/4/6 649/4/6
f 649/4/6 646/4/6 650/4/6
f 647/4/6 648/4/6 651/4/6
f 651/4/6 648/4/6 652/4/6
f 653/4/6 654/4/6 657/4/6
f 657/4/6 654/4/6 658/4/6
f 655/4/6 656/4/6 659/4/6
f 659/4/6 656/4/6 660/4/6
f 661/4/6 662/4/6 664/4/6
f 664/4/6 662/4/6 665/4/6
f 665/4/6 662/4/6 666/4/6
f 666/4/6 662/4/6 667/4/6
f 663/4/6 664/4/6 669/4/6
f 664/4/6 665/4/6 669/4/6
f 669/4/6 665/4/6 670/4/6
f 667/4/6 668/4/6 671/4/6
f 666/4/6 667/4/6 671/4/6
f 671/4/6 668/4/6 672/4/6
f 663/4/6 669/4/6 673/4/6
f 672/4/6 668/4/6 676/4/6
f 673/4/6 674/4/6 677/4/6
f 663/4/6 673/4/6 677/4/6
f 677/4/6 674/4/6 678/4/6
f 678/4/6 674/4/6 679/4/6
f 675/4/6 676/4/6 680/4/6
f 676/4/6 668/4/6 681/4/6
f 680/4/6 676/4/6 681/4/6
f 681/4/6 668/4/6 682/4/6
f 678/4/6 679/4/6 683/4/6
f 679/4/6 680/4/6 683/4/6
f 680/4/6 681/4/6 683/4/6
f 683/4/6 681/4/6 684/4/6
f 685/4/6 686/4/6 688/4/6
f 688/4/6 686/4/6 689/4/6
f 687/4/6 688/4/6 691/4/6
f 689/4/6 690/4/6 691/4/6
f 688/4/6 689/4/6 691/4/6
f 691/4/6 690/4/6 692/4/6
f 687/4/6 691/4/6 693/4/6
f 693/4/6 691/4/6 694/4/6
f 692/4/6 690/4/6 695/4/6
f 695/4/6 690/4/6 696/4/6
f 694/4/6 691/4/6 698/4/6
f 692/4/6 695/4/6 699/4/6
f 697/4/6 698/4/6 701/4/6
f 698/4/6 691/4/6 701/4/6
f 699/4/6 700/4/6 702/4/6
f 692/4/6 699/4/6 702/4/6
f 697/4/6 701/4/6 703/4/6
f 701/4/6 702/4/6 703/4/6
f 703/4/6 702/4/6 704/4/6
f 702/4/6 700/4/6 705/4/6
f 704/4/6 702/4/6 705/4/6
f 705/4/6 700/4/6 706/4/6
f 704/4/6 705/4/6 707/4/6
f 707/4/6 705/4/6 708/4/6
f 709/4/6 710/4/6 711/4/6
f 711/4/6 710/4/6 712/4/6
f 713/1/6 714/1/6 717/1/6
f 717/1/6 714/1/6 718/1/6
f 715/1/6 716/1/6 719/1/6
f 719/1/6 716/1/6 720/1/6
f 721/1/6 722/1/6 729/1/6
f 729/1/6 722/1/6 730/1/6
f 723/1/6 724/1/6 731/1/6
f 731/1/6 724/1/6 732/1/6
f 725/1/6 726/1/6 733/1/6
f 733/1/6 726/1/6 734/1/6
f 727/1/6 728/1/6 735/1/6
f 735/1/6 728/1/6 736/1/6
f 737/1/6 738/1/6 741/1/6
f 741/1/6 738/1/6 742/1/6
f 739/1/6 740/1/6 743/1/6
f 743/1/6 740/1/6 744/1/6
f 745/1/6 746/1/6 749/1/6
f 749/1/6 746/1/6 750/1/6
f 747/1/6 748/1/6 751/1/6
f 751/1/6 748/1/6 752/1/6
f 753/1/6 754/1/6 757/1/6
f 757/1/6 754/1/6 758/1/6
f 755/1/6 756/1/6 759/1/6
f 759/1/6 756/1/6 760/1/6
f 761/1/6 762/1/6 765/1/6
f 765/1/6 762/1/6 766/1/6
f 763/1/6 764/1/6 767/1/6
f 767/1/6 764/1/6 768/1/6
