# MagicaVoxel @ Ephtracy

# group
o 

# material
mtllib model.mtl
usemtl palette

# normals
vn 0 0 1
vn 0 0 -1
vn 1 0 0
vn -1 0 0
vn 0 -1 0
vn 0 1 0

# texcoords
vt 0.345703 0.5
vt 0.349609 0.5
vt 0.353516 0.5
vt 0.357422 0.5
vt 0.361328 0.5
vt 0.759766 0.5

# verts
v 0.4 1.4 2.3
v -0.2 1.4 2.3
v 0.4 1.5 2.3
v -0.2 1.5 2.3
v 0.4 1.9 2.3
v -0.2 1.9 2.3
v -0.5 0.5 2.1
v -1.1 0.5 2.1
v -0.5 0.6 2.1
v -1.1 0.6 2.1
v -0.5 1 2.1
v -1.1 1 2.1
v 0.4 1.9 2.1
v -0.2 1.9 2.1
v 0.4 2 2.1
v -0.2 2 2.1
v -0.5 1 1.9
v -1.1 1 1.9
v -0.5 1.1 1.9
v -1.1 1.1 1.9
v 1.4 0 1.8
v 1 0 1.8
v 0.8 0 1.8
v 1.4 0.1 1.8
v 1.1 0.1 1.8
v 1.2 0.2 1.8
v 1.1 0.2 1.8
v 1 0.2 1.8
v 0.9 0.2 1.8
v 1.2 0.4 1.8
v 1 0.4 1.8
v 1.4 0.5 1.8
v 1.2 0.5 1.8
v 0.9 0.5 1.8
v 1.2 0.6 1.8
v 0.8 0.6 1.8
v 0.8 0 1.7
v -0.3 0 1.7
v 0.8 0.4 1.7
v -0.3 0.4 1.7
v 0.3 1.1 1.4
v -0.9 1.1 1.4
v 0.3 1.4 1.4
v -0.1 1.4 1.4
v -0.1 1.5 1.4
v -0.9 1.5 1.4
v 0.3 1.8 1.4
v -0.1 1.8 1.4
v 0.3 2.7 1.4
v -0.1 2.7 1.4
v -0.3 0 1.3
v -0.7 0 1.3
v 0.5 0.4 1.3
v -0.3 0.4 1.3
v -0.6 0.5 1.3
v -0.7 0.5 1.3
v -0.6 0.9 1.3
v -0.7 0.9 1.3
v 0.3 1.1 1.3
v -0.7 1.1 1.3
v -0.1 1.5 1.3
v -0.7 1.5 1.3
v 0.8 1.8 1.3
v 0.5 1.8 1.3
v 0.3 1.8 1.3
v -0.1 1.8 1.3
v 0.8 2.4 1.3
v 0.3 2.4 1.3
v -0.1 2.4 1.3
v -0.7 2.4 1.3
v -0.9 1.1 1.2
v -1.1 1.1 1.2
v -0.9 1.5 1.2
v -1.1 1.5 1.2
v -0.7 0 1.1
v -0.9 0 1.1
v -0.7 0.5 1.1
v -0.9 0.5 1.1
v -0.7 0.9 1.1
v -0.9 0.9 1.1
v -0.7 1.1 1.1
v -0.9 1.1 1.1
v -0.7 1.5 1.1
v -0.9 1.5 1.1
v 1 2.1 1.1
v 0.8 2.1 1.1
v 1 2.4 1.1
v 0.8 2.4 1.1
v 0.3 2.4 1.1
v -0.1 2.4 1.1
v -0.7 2.4 1.1
v 0.8 2.6 1.1
v 0.3 2.6 1.1
v -0.1 2.6 1.1
v -0.9 2.6 1.1
v 2 1.9 0.9
v 1.6 1.9 0.9
v 1.4 1.9 0.9
v 2 2 0.9
v 1.7 2 0.9
v 1.8 2.1 0.9
v 1.7 2.1 0.9
v 1.6 2.1 0.9
v 1.5 2.1 0.9
v 1.7 2.2 0.9
v 1.5 2.2 0.9
v 2 2.4 0.9
v 1.8 2.4 0.9
v 1.7 2.4 0.9
v 1.5 2.4 0.9
v 1.8 2.5 0.9
v 1.4 2.5 0.9
v -1.3 0 0.8
v -1.5 0 0.8
v -1.9 0 0.8
v -1.6 0.1 0.8
v -1.9 0.1 0.8
v -1.4 0.2 0.8
v -1.5 0.2 0.8
v -1.6 0.2 0.8
v -1.7 0.2 0.8
v -1.4 0.3 0.8
v -1.6 0.3 0.8
v -1.4 0.5 0.8
v -1.6 0.5 0.8
v -1.7 0.5 0.8
v -1.9 0.5 0.8
v -1.3 0.6 0.8
v -1.7 0.6 0.8
v 1.4 1.9 0.8
v 0.5 1.9 0.8
v -0.9 1.9 0.8
v -1 1.9 0.8
v 1 2.1 0.8
v 0.5 2.1 0.8
v 1.4 2.3 0.8
v 1.2 2.3 0.8
v 1 2.4 0.8
v 0.8 2.4 0.8
v 0.8 2.6 0.8
v 0.6 2.6 0.8
v 0.3 2.6 0.8
v -0.1 2.6 0.8
v -0.9 2.6 0.8
v 1.2 2.7 0.8
v 0.6 2.7 0.8
v 0.3 2.7 0.8
v -0.1 2.7 0.8
v 0.6 2.8 0.8
v -1 2.8 0.8
v -0.9 0 0.7
v -1.3 0 0.7
v -0.9 0.4 0.7
v -1.3 0.4 0.7
v -1.2 1.7 0.5
v -1.4 1.7 0.5
v -1.8 1.7 0.5
v -1.5 1.8 0.5
v -1.8 1.8 0.5
v -1.3 1.9 0.5
v -1.4 1.9 0.5
v -1.5 1.9 0.5
v -1.6 1.9 0.5
v -1.4 2.1 0.5
v -1.6 2.1 0.5
v -1.3 2.2 0.5
v -1.6 2.2 0.5
v -1.8 2.2 0.5
v -1.2 2.3 0.5
v -1.6 2.3 0.5
v -0.9 1.7 0.4
v -1.2 1.7 0.4
v -0.9 1.9 0.4
v -1 1.9 0.4
v -1 2.1 0.4
v -1.2 2.1 0.4
v -1 0.5 0.3
v -1.1 0.5 0.3
v -0.9 0.9 0.3
v -1 0.9 0.3
v -0.9 1.1 0.3
v -1.1 1.1 0.3
v 0.7 2.6 0.2
v -0.2 2.6 0.2
v 0.7 2.8 0.2
v 0.2 2.8 0.2
v 0.2 2.9 0.2
v -0.2 2.9 0.2
v -0.6 0 -0.3
v -1 0 -0.3
v -0.6 0.3 -0.3
v -0.9 0.3 -0.3
v -0.9 0.4 -0.3
v -1 0.4 -0.3
v 1.8 2.4 -0.3
v 1.4 2.4 -0.3
v 1.2 2.4 -0.3
v 1.8 2.5 -0.3
v 1.5 2.5 -0.3
v 1.6 2.6 -0.3
v 1.5 2.6 -0.3
v 1.4 2.6 -0.3
v 1.3 2.6 -0.3
v 1.6 2.7 -0.3
v 1.4 2.7 -0.3
v 1.8 2.9 -0.3
v 1.6 2.9 -0.3
v 1.4 2.9 -0.3
v 1.3 2.9 -0.3
v 1.6 3 -0.3
v 1.2 3 -0.3
v -1.2 0.9 -0.4
v -1.4 0.9 -0.4
v -1.8 0.9 -0.4
v -1.5 1 -0.4
v -1.8 1 -0.4
v -1.3 1.1 -0.4
v -1.4 1.1 -0.4
v -1.5 1.1 -0.4
v -1.6 1.1 -0.4
v -1.4 1.2 -0.4
v -1.6 1.2 -0.4
v -1.3 1.4 -0.4
v -1.4 1.4 -0.4
v -1.6 1.4 -0.4
v -1.8 1.4 -0.4
v -1.2 1.5 -0.4
v -1.6 1.5 -0.4
v -0.9 1.6 -0.4
v -1.1 1.6 -0.4
v -0.9 1.9 -0.4
v -1 1.9 -0.4
v -0.9 2.3 -0.4
v -1 2.3 -0.4
v 1.2 2.4 -0.4
v 1 2.4 -0.4
v 0.8 2.4 -0.4
v 0.8 2.6 -0.4
v 0.2 2.6 -0.4
v -0.2 2.6 -0.4
v -0.5 2.6 -0.4
v -0.9 2.6 -0.4
v -1.1 2.6 -0.4
v -0.5 2.7 -0.4
v -0.9 2.7 -0.4
v 1.2 2.8 -0.4
v 0.2 2.8 -0.4
v -0.2 2.8 -0.4
v -0.9 2.8 -0.4
v -0.9 0.9 -0.5
v -1.2 0.9 -0.5
v -0.9 1.3 -0.5
v -1.2 1.3 -0.5
v 0.8 1.8 -1.1
v 0.5 1.8 -1.1
v 0.8 2.1 -1.1
v 0.5 2.1 -1.1
v 1.4 0.7 -1.2
v 1 0.7 -1.2
v 0.8 0.7 -1.2
v 1.4 0.8 -1.2
v 1.1 0.8 -1.2
v 1.2 0.9 -1.2
v 1.1 0.9 -1.2
v 1 0.9 -1.2
v 0.9 0.9 -1.2
v 1.1 1.1 -1.2
v 0.9 1.1 -1.2
v 1.4 1.2 -1.2
v 1.2 1.2 -1.2
v 0.9 1.2 -1.2
v 1.2 1.3 -1.2
v 0.8 1.3 -1.2
v 0.8 0.7 -1.3
v 0.5 0.7 -1.3
v 0.8 1.1 -1.3
v 0.5 1.1 -1.3
v -0.5 0 -1.5
v -0.6 0 -1.5
v -1 0 -1.5
v -1.1 0 -1.5
v -0.6 0.4 -1.5
v -1 0.4 -1.5
v -0.5 0.6 -1.5
v -1.1 0.6 -1.5
v 0.5 1.7 -1.6
v 0.4 1.7 -1.6
v -2.38419e-07 1.7 -1.6
v -0.1 1.7 -1.6
v 0.4 2.1 -1.6
v -2.38419e-07 2.1 -1.6
v 0.5 2.3 -1.6
v -0.1 2.3 -1.6
v 0.4 1.4 1.7
v 0.3 1.4 1.7
v -0.1 1.4 1.7
v -0.2 1.4 1.7
v 0.3 1.8 1.7
v -0.1 1.8 1.7
v 0.4 2 1.7
v -0.2 2 1.7
v -0.5 0.5 1.5
v -0.6 0.5 1.5
v -1 0.5 1.5
v -1.1 0.5 1.5
v -0.6 0.9 1.5
v -1 0.9 1.5
v -0.5 1.1 1.5
v -1.1 1.1 1.5
v 0.8 0 1.3
v 0.2 0 1.3
v 0.5 0.3 1.3
v 0.2 0.3 1.3
v 0.8 0.4 1.3
v 0.5 0.4 1.3
v 1.4 0 1.2
v 1 0 1.2
v 0.8 0 1.2
v 1.4 0.1 1.2
v 1.1 0.1 1.2
v 1.2 0.2 1.2
v 1.1 0.2 1.2
v 1 0.2 1.2
v 0.9 0.2 1.2
v 1.2 0.4 1.2
v 1 0.4 1.2
v 1.4 0.5 1.2
v 1.2 0.5 1.2
v 0.9 0.5 1.2
v 1.2 0.6 1.2
v 0.8 0.6 1.2
v 0.8 1.8 1.1
v 0.5 1.8 1.1
v 0.8 2.1 1.1
v 0.5 2.1 1.1
v 0.2 0 1
v -0.5 0 1
v 0.2 0.3 1
v -0.5 0.3 1
v 1.4 1.9 0.4
v 0.5 1.9 0.4
v 1 2.1 0.4
v 0.5 2.1 0.4
v 1.4 2.3 0.4
v 1.2 2.3 0.4
v -0.9 2.3 0.4
v -1 2.3 0.4
v 1 2.4 0.4
v 0.8 2.4 0.4
v 0.8 2.6 0.4
v 0.6 2.6 0.4
v -0.5 2.6 0.4
v 1.2 2.7 0.4
v 0.6 2.7 0.4
v -0.5 2.7 0.4
v -0.9 2.7 0.4
v 0.6 2.8 0.4
v -1 2.8 0.4
v -0.5 0 0.3
v -0.9 0 0.3
v -1.3 0 0.3
v -0.5 0.3 0.3
v -0.9 0.3 0.3
v -0.9 0.4 0.3
v -1.3 0.4 0.3
v 2 1.9 0.3
v 1.6 1.9 0.3
v 1.4 1.9 0.3
v 2 2 0.3
v 1.7 2 0.3
v 1.8 2.1 0.3
v 1.7 2.1 0.3
v 1.6 2.1 0.3
v 1.5 2.1 0.3
v 1.7 2.2 0.3
v 1.5 2.2 0.3
v 2 2.4 0.3
v 1.8 2.4 0.3
v 1.7 2.4 0.3
v 1.5 2.4 0.3
v 1.8 2.5 0.3
v 1.4 2.5 0.3
v -1.3 0 0.2
v -1.5 0 0.2
v -1.9 0 0.2
v -1.6 0.1 0.2
v -1.9 0.1 0.2
v -1.4 0.2 0.2
v -1.5 0.2 0.2
v -1.6 0.2 0.2
v -1.7 0.2 0.2
v -1.4 0.3 0.2
v -1.6 0.3 0.2
v -1.4 0.5 0.2
v -1.6 0.5 0.2
v -1.7 0.5 0.2
v -1.9 0.5 0.2
v -1.3 0.6 0.2
v -1.7 0.6 0.2
v -0.9 1.7 -2.38419e-07
v -1.2 1.7 -2.38419e-07
v -0.9 1.9 -2.38419e-07
v -1 1.9 -2.38419e-07
v -1 2.1 -2.38419e-07
v -1.2 2.1 -2.38419e-07
v -0.9 0.5 -0.1
v -1.1 0.5 -0.1
v -0.9 1.5 -0.1
v -1.1 1.5 -0.1
v -1.2 1.7 -0.1
v -1.4 1.7 -0.1
v -1.8 1.7 -0.1
v -1.5 1.8 -0.1
v -1.8 1.8 -0.1
v -1.3 1.9 -0.1
v -1.4 1.9 -0.1
v -1.5 1.9 -0.1
v -1.6 1.9 -0.1
v -1.4 2.1 -0.1
v -1.6 2.1 -0.1
v -1.3 2.2 -0.1
v -1.6 2.2 -0.1
v -1.8 2.2 -0.1
v -1.2 2.3 -0.1
v -1.6 2.3 -0.1
v 0.7 2.6 -0.2
v 0.2 2.6 -0.2
v 0.7 2.8 -0.2
v 0.2 2.8 -0.2
v -0.9 2 -0.8
v -1.1 2 -0.8
v 1.2 2.4 -0.8
v 1 2.4 -0.8
v 0.8 2.4 -0.8
v 0.8 2.6 -0.8
v 0.2 2.6 -0.8
v -0.2 2.6 -0.8
v -0.9 2.6 -0.8
v -1.1 2.6 -0.8
v 1.2 2.8 -0.8
v 0.2 2.8 -0.8
v -0.2 2.8 -0.8
v -0.9 2.8 -0.8
v -0.9 0.9 -0.9
v -1.2 0.9 -0.9
v -0.9 1.3 -0.9
v -1.2 1.3 -0.9
v 1.8 2.4 -0.9
v 1.4 2.4 -0.9
v 1.2 2.4 -0.9
v 1.8 2.5 -0.9
v 1.5 2.5 -0.9
v 1.6 2.6 -0.9
v 1.5 2.6 -0.9
v 1.4 2.6 -0.9
v 1.3 2.6 -0.9
v 1.6 2.7 -0.9
v 1.4 2.7 -0.9
v 1.8 2.9 -0.9
v 1.6 2.9 -0.9
v 1.4 2.9 -0.9
v 1.3 2.9 -0.9
v 1.6 3 -0.9
v 1.2 3 -0.9
v -1.2 0.9 -1
v -1.4 0.9 -1
v -1.8 0.9 -1
v -1.5 1 -1
v -1.8 1 -1
v -1.3 1.1 -1
v -1.4 1.1 -1
v -1.5 1.1 -1
v -1.6 1.1 -1
v -1.4 1.2 -1
v -1.6 1.2 -1
v -1.3 1.4 -1
v -1.4 1.4 -1
v -1.6 1.4 -1
v -1.8 1.4 -1
v -1.2 1.5 -1
v -1.6 1.5 -1
v -0.7 0.4 -1.1
v -0.9 0.4 -1.1
v -0.7 1.6 -1.1
v -0.9 1.6 -1.1
v -0.7 2 -1.1
v -0.9 2 -1.1
v 1 2.1 -1.1
v 0.8 2.1 -1.1
v 1 2.4 -1.1
v 0.8 2.4 -1.1
v 0.2 2.4 -1.1
v -0.2 2.4 -1.1
v -0.7 2.4 -1.1
v 0.8 2.6 -1.1
v 0.2 2.6 -1.1
v -0.2 2.6 -1.1
v -0.9 2.6 -1.1
v 0.5 0.3 -1.3
v -0.6 0.3 -1.3
v -0.6 0.4 -1.3
v -0.7 0.4 -1.3
v 0.5 0.7 -1.3
v -0.2 0.7 -1.3
v 0.5 1.1 -1.3
v -0.2 1.1 -1.3
v -0.7 1.6 -1.3
v -1.1 1.6 -1.3
v 0.4 1.7 -1.3
v -2.38419e-07 1.7 -1.3
v 0.8 1.8 -1.3
v 0.5 1.8 -1.3
v -0.7 2 -1.3
v -1.1 2 -1.3
v 0.4 2.1 -1.3
v -2.38419e-07 2.1 -1.3
v 0.8 2.4 -1.3
v 0.2 2.4 -1.3
v -0.2 2.4 -1.3
v -0.7 2.4 -1.3
v 0.2 2.9 -1.3
v -0.2 2.9 -1.3
v 0.8 0.7 -1.7
v -0.2 0.7 -1.7
v 0.8 1.1 -1.7
v -0.2 1.1 -1.7
v 1.4 0.7 -1.8
v 1 0.7 -1.8
v 0.8 0.7 -1.8
v 1.4 0.8 -1.8
v 1.1 0.8 -1.8
v 1.2 0.9 -1.8
v 1.1 0.9 -1.8
v 1 0.9 -1.8
v 0.9 0.9 -1.8
v 1.1 1.1 -1.8
v 0.9 1.1 -1.8
v 1.4 1.2 -1.8
v 1.2 1.2 -1.8
v 0.9 1.2 -1.8
v 1.2 1.3 -1.8
v 0.8 1.3 -1.8
v -0.5 0.5 -1.9
v -1.1 0.5 -1.9
v -0.5 0.6 -1.9
v -1.1 0.6 -1.9
v 0.5 2.2 -2
v -0.1 2.2 -2
v 0.5 2.3 -2
v -0.1 2.3 -2
v -0.5 0 -2.1
v -1.1 0 -2.1
v -0.5 0.1 -2.1
v -1.1 0.1 -2.1
v -0.5 0.5 -2.1
v -1.1 0.5 -2.1
v 0.5 1.7 -2.2
v -0.1 1.7 -2.2
v 0.5 1.8 -2.2
v -0.1 1.8 -2.2
v 0.5 2.2 -2.2
v -0.1 2.2 -2.2
v 2 1.9 0.9
v 2 2 0.9
v 2 2.4 0.9
v 2 1.9 0.3
v 2 2 0.3
v 2 2.4 0.3
v 1.8 2.4 0.9
v 1.8 2.5 0.9
v 1.8 2.4 0.3
v 1.8 2.5 0.3
v 1.8 2.4 -0.3
v 1.8 2.5 -0.3
v 1.8 2.9 -0.3
v 1.8 2.4 -0.9
v 1.8 2.5 -0.9
v 1.8 2.9 -0.9
v 1.6 2.9 -0.3
v 1.6 3 -0.3
v 1.6 2.9 -0.9
v 1.6 3 -0.9
v 1.4 0 1.8
v 1.4 0.1 1.8
v 1.4 0.5 1.8
v 1.4 0 1.2
v 1.4 0.1 1.2
v 1.4 0.5 1.2
v 1.4 0.7 -1.2
v 1.4 0.8 -1.2
v 1.4 1.2 -1.2
v 1.4 0.7 -1.8
v 1.4 0.8 -1.8
v 1.4 1.2 -1.8
v 1.2 0.5 1.8
v 1.2 0.6 1.8
v 1.2 0.5 1.2
v 1.2 0.6 1.2
v 1.2 2.3 0.8
v 1.2 2.7 0.8
v 1.2 2.3 0.4
v 1.2 2.7 0.4
v 1.2 1.2 -1.2
v 1.2 1.3 -1.2
v 1.2 1.2 -1.8
v 1.2 1.3 -1.8
v 1 2.1 1.1
v 1 2.4 1.1
v 1 2.1 0.8
v 1 2.4 0.8
v 1 2.1 0.4
v 1 2.4 0.4
v 1 2.4 -0.4
v 1 2.4 -0.8
v 1 2.1 -1.1
v 1 2.4 -1.1
v 0.8 1.8 1.3
v 0.8 2.4 1.3
v 0.8 1.8 1.1
v 0.8 2.1 1.1
v 0.8 2.4 1.1
v 0.8 2.6 1.1
v 0.8 2.4 0.8
v 0.8 2.6 0.8
v 0.8 2.4 0.4
v 0.8 2.6 0.4
v 0.8 2.4 -0.4
v 0.8 2.6 -0.4
v 0.8 2.4 -0.8
v 0.8 2.6 -0.8
v 0.8 1.8 -1.1
v 0.8 2.1 -1.1
v 0.8 2.4 -1.1
v 0.8 2.6 -1.1
v 0.8 1.8 -1.3
v 0.8 2.4 -1.3
v 0.7 2.6 0.2
v 0.7 2.8 0.2
v 0.7 2.6 -0.2
v 0.7 2.8 -0.2
v 0.6 2.7 0.8
v 0.6 2.8 0.8
v 0.6 2.7 0.4
v 0.6 2.8 0.4
v 0.5 0.3 1.3
v 0.5 0.4 1.3
v 0.5 1.8 1.3
v 0.5 1.8 1.1
v 0.5 2.1 1.1
v 0.5 1.9 0.8
v 0.5 2.1 0.8
v 0.5 1.9 0.4
v 0.5 2.1 0.4
v 0.5 1.8 -1.1
v 0.5 2.1 -1.1
v 0.5 0.3 -1.3
v 0.5 0.7 -1.3
v 0.5 1.1 -1.3
v 0.5 1.8 -1.3
v 0.5 1.7 -1.6
v 0.5 2.3 -1.6
v 0.5 1.9 -1.7
v 0.5 2.2 -1.7
v 0.5 1.7 -1.8
v 0.5 1.9 -1.8
v 0.5 2.1 -1.8
v 0.5 1.8 -1.9
v 0.5 1.9 -1.9
v 0.5 1.9 -2
v 0.5 2.1 -2
v 0.5 2.2 -2
v 0.5 2.3 -2
v 0.5 1.7 -2.2
v 0.5 1.8 -2.2
v 0.5 2.2 -2.2
v 0.4 1.4 2.3
v 0.4 1.5 2.3
v 0.4 1.9 2.3
v 0.4 1.6 2.1
v 0.4 1.7 2.1
v 0.4 1.9 2.1
v 0.4 2 2.1
v 0.4 1.5 2
v 0.4 1.6 2
v 0.4 1.4 1.9
v 0.4 1.6 1.9
v 0.4 1.7 1.9
v 0.4 1.9 1.9
v 0.4 1.6 1.8
v 0.4 1.9 1.8
v 0.4 1.4 1.7
v 0.4 2 1.7
v 0.4 1.7 -1.3
v 0.4 2.1 -1.3
v 0.4 1.7 -1.6
v 0.4 2.1 -1.6
v 0.3 1.4 1.7
v 0.3 1.8 1.7
v 0.3 1.1 1.4
v 0.3 1.4 1.4
v 0.3 1.8 1.4
v 0.3 2.7 1.4
v 0.3 1.1 1.3
v 0.3 1.8 1.3
v 0.3 2.4 1.3
v 0.3 2.4 1.1
v 0.3 2.6 1.1
v 0.3 2.6 0.8
v 0.3 2.7 0.8
v 0.2 0 1.3
v 0.2 0.3 1.3
v 0.2 0 1
v 0.2 0.3 1
v 0.2 2.8 0.2
v 0.2 2.9 0.2
v 0.2 2.6 -0.2
v 0.2 2.8 -0.2
v 0.2 2.6 -0.4
v 0.2 2.8 -0.4
v 0.2 2.6 -0.8
v 0.2 2.8 -0.8
v 0.2 2.4 -1.1
v 0.2 2.6 -1.1
v 0.2 2.4 -1.3
v 0.2 2.9 -1.3
v -0.5 0.5 2.1
v -0.5 0.6 2.1
v -0.5 1 2.1
v -0.5 0.7 1.9
v -0.5 1 1.9
v -0.5 1.1 1.9
v -0.5 0.6 1.8
v -0.5 0.7 1.8
v -0.5 0.9 1.8
v -0.5 0.5 1.7
v -0.5 0.7 1.7
v -0.5 0.7 1.6
v -0.5 0.9 1.6
v -0.5 1 1.6
v -0.5 0.5 1.5
v -0.5 1.1 1.5
v -0.5 0 1
v -0.5 0.3 1
v -0.5 2.6 0.4
v -0.5 2.7 0.4
v -0.5 0 0.3
v -0.5 0.3 0.3
v -0.5 2.6 -0.4
v -0.5 2.7 -0.4
v -0.5 0 -1.5
v -0.5 0.6 -1.5
v -0.5 0.2 -1.6
v -0.5 0.3 -1.6
v -0.5 0.5 -1.6
v -0.5 0 -1.7
v -0.5 0.2 -1.7
v -0.5 0.1 -1.8
v -0.5 0.2 -1.8
v -0.5 0.3 -1.8
v -0.5 0.5 -1.8
v -0.5 0.2 -1.9
v -0.5 0.5 -1.9
v -0.5 0.6 -1.9
v -0.5 0 -2.1
v -0.5 0.1 -2.1
v -0.5 0.5 -2.1
v -0.6 0.5 1.5
v -0.6 0.9 1.5
v -0.6 0.5 1.3
v -0.6 0.9 1.3
v -0.6 0 -0.3
v -0.6 0.3 -0.3
v -0.6 0.3 -1.3
v -0.6 0.4 -1.3
v -0.6 0 -1.5
v -0.6 0.4 -1.5
v -1.2 1.7 0.5
v -1.2 2.3 0.5
v -1.2 1.7 0.4
v -1.2 2.1 0.4
v -1.2 1.7 -2.38419e-07
v -1.2 2.1 -2.38419e-07
v -1.2 1.7 -0.1
v -1.2 2.3 -0.1
v -1.2 0.9 -0.4
v -1.2 1.5 -0.4
v -1.2 0.9 -0.5
v -1.2 1.3 -0.5
v -1.2 0.9 -0.9
v -1.2 1.3 -0.9
v -1.2 0.9 -1
v -1.2 1.5 -1
v -1.3 0 0.8
v -1.3 0.6 0.8
v -1.3 0 0.7
v -1.3 0.4 0.7
v -1.3 0 0.3
v -1.3 0.4 0.3
v -1.3 0 0.2
v -1.3 0.6 0.2
v 1.4 1.9 0.9
v 1.4 2.5 0.9
v 1.4 1.9 0.8
v 1.4 2.3 0.8
v 1.4 1.9 0.4
v 1.4 2.3 0.4
v 1.4 1.9 0.3
v 1.4 2.5 0.3
v 1.2 2.4 -0.3
v 1.2 3 -0.3
v 1.2 2.4 -0.4
v 1.2 2.8 -0.4
v 1.2 2.4 -0.8
v 1.2 2.8 -0.8
v 1.2 2.4 -0.9
v 1.2 3 -0.9
v 0.8 0 1.8
v 0.8 0.6 1.8
v 0.8 0 1.7
v 0.8 0.4 1.7
v 0.8 0 1.3
v 0.8 0.4 1.3
v 0.8 0 1.2
v 0.8 0.6 1.2
v 0.8 0.7 -1.2
v 0.8 1.3 -1.2
v 0.8 0.7 -1.3
v 0.8 1.1 -1.3
v 0.8 0.7 -1.7
v 0.8 1.1 -1.7
v 0.8 0.7 -1.8
v 0.8 1.3 -1.8
v -2.38419e-07 1.7 -1.3
v -2.38419e-07 2.1 -1.3
v -2.38419e-07 1.7 -1.6
v -2.38419e-07 2.1 -1.6
v -0.1 1.4 1.7
v -0.1 1.8 1.7
v -0.1 1.4 1.4
v -0.1 1.5 1.4
v -0.1 1.8 1.4
v -0.1 2.7 1.4
v -0.1 1.5 1.3
v -0.1 1.8 1.3
v -0.1 2.4 1.3
v -0.1 2.4 1.1
v -0.1 2.6 1.1
v -0.1 2.6 0.8
v -0.1 2.7 0.8
v -0.1 1.7 -1.6
v -0.1 2.3 -1.6
v -0.1 1.9 -1.7
v -0.1 2.2 -1.7
v -0.1 1.7 -1.8
v -0.1 1.9 -1.8
v -0.1 2.1 -1.8
v -0.1 1.8 -1.9
v -0.1 1.9 -1.9
v -0.1 1.9 -2
v -0.1 2.1 -2
v -0.1 2.2 -2
v -0.1 2.3 -2
v -0.1 1.7 -2.2
v -0.1 1.8 -2.2
v -0.1 2.2 -2.2
v -0.2 1.4 2.3
v -0.2 1.5 2.3
v -0.2 1.9 2.3
v -0.2 1.6 2.1
v -0.2 1.7 2.1
v -0.2 1.9 2.1
v -0.2 2 2.1
v -0.2 1.5 2
v -0.2 1.6 2
v -0.2 1.4 1.9
v -0.2 1.6 1.9
v -0.2 1.7 1.9
v -0.2 1.9 1.9
v -0.2 1.6 1.8
v -0.2 1.9 1.8
v -0.2 1.4 1.7
v -0.2 2 1.7
v -0.2 2.6 0.2
v -0.2 2.9 0.2
v -0.2 2.6 -0.4
v -0.2 2.8 -0.4
v -0.2 2.6 -0.8
v -0.2 2.8 -0.8
v -0.2 2.4 -1.1
v -0.2 2.6 -1.1
v -0.2 0.7 -1.3
v -0.2 1.1 -1.3
v -0.2 2.4 -1.3
v -0.2 2.9 -1.3
v -0.2 0.7 -1.7
v -0.2 1.1 -1.7
v -0.3 0 1.7
v -0.3 0.4 1.7
v -0.3 0 1.3
v -0.3 0.4 1.3
v -0.7 0 1.3
v -0.7 0.5 1.3
v -0.7 0.9 1.3
v -0.7 1.1 1.3
v -0.7 1.5 1.3
v -0.7 2.4 1.3
v -0.7 0 1.1
v -0.7 0.5 1.1
v -0.7 0.9 1.1
v -0.7 1.1 1.1
v -0.7 1.5 1.1
v -0.7 2.4 1.1
v -0.7 0.4 -1.1
v -0.7 1.6 -1.1
v -0.7 2 -1.1
v -0.7 2.4 -1.1
v -0.7 0.4 -1.3
v -0.7 1.6 -1.3
v -0.7 2 -1.3
v -0.7 2.4 -1.3
v -0.9 1.1 1.4
v -0.9 1.5 1.4
v -0.9 1.1 1.2
v -0.9 1.5 1.2
v -0.9 0 1.1
v -0.9 0.5 1.1
v -0.9 0.9 1.1
v -0.9 1.1 1.1
v -0.9 1.5 1.1
v -0.9 2.6 1.1
v -0.9 1.9 0.8
v -0.9 2.6 0.8
v -0.9 0 0.7
v -0.9 0.4 0.7
v -0.9 0.4 0.5
v -0.9 0.5 0.5
v -0.9 1.7 0.4
v -0.9 1.9 0.4
v -0.9 2.3 0.4
v -0.9 2.7 0.4
v -0.9 0.3 0.3
v -0.9 0.4 0.3
v -0.9 0.5 0.3
v -0.9 0.9 0.3
v -0.9 1.1 0.3
v -0.9 1.7 -2.38419e-07
v -0.9 1.9 -2.38419e-07
v -0.9 0.5 -0.1
v -0.9 1.5 -0.1
v -0.9 1.9 -0.1
v -0.9 0.3 -0.3
v -0.9 0.4 -0.3
v -0.9 1.6 -0.4
v -0.9 1.9 -0.4
v -0.9 2.3 -0.4
v -0.9 2.6 -0.4
v -0.9 2.7 -0.4
v -0.9 2.8 -0.4
v -0.9 0.9 -0.5
v -0.9 1.3 -0.5
v -0.9 2 -0.8
v -0.9 2.6 -0.8
v -0.9 2.8 -0.8
v -0.9 0.9 -0.9
v -0.9 1.3 -0.9
v -0.9 0.4 -1.1
v -0.9 1.6 -1.1
v -0.9 2 -1.1
v -0.9 2.6 -1.1
v -1 0.5 1.5
v -1 0.9 1.5
v -1 1.9 0.8
v -1 2.8 0.8
v -1 1.9 0.4
v -1 2.1 0.4
v -1 2.3 0.4
v -1 2.8 0.4
v -1 0.5 0.3
v -1 0.9 0.3
v -1 1.9 -2.38419e-07
v -1 2.1 -2.38419e-07
v -1 0 -0.3
v -1 0.4 -0.3
v -1 1.9 -0.4
v -1 2.3 -0.4
v -1 0 -1.5
v -1 0.4 -1.5
v -1.1 0.5 2.1
v -1.1 0.6 2.1
v -1.1 1 2.1
v -1.1 0.7 1.9
v -1.1 1 1.9
v -1.1 1.1 1.9
v -1.1 0.6 1.8
v -1.1 0.7 1.8
v -1.1 0.9 1.8
v -1.1 0.5 1.7
v -1.1 0.7 1.7
v -1.1 0.7 1.6
v -1.1 0.9 1.6
v -1.1 1 1.6
v -1.1 0.5 1.5
v -1.1 1.1 1.5
v -1.1 1.1 1.2
v -1.1 1.5 1.2
v -1.1 0.5 0.3
v -1.1 1.1 0.3
v -1.1 0.5 -0.1
v -1.1 1.5 -0.1
v -1.1 1.6 -0.4
v -1.1 2.6 -0.4
v -1.1 2 -0.8
v -1.1 2.6 -0.8
v -1.1 1.6 -1.3
v -1.1 2 -1.3
v -1.1 0 -1.5
v -1.1 0.6 -1.5
v -1.1 0.2 -1.6
v -1.1 0.3 -1.6
v -1.1 0.5 -1.6
v -1.1 0 -1.7
v -1.1 0.2 -1.7
v -1.1 0.1 -1.8
v -1.1 0.2 -1.8
v -1.1 0.3 -1.8
v -1.1 0.5 -1.8
v -1.1 0.2 -1.9
v -1.1 0.5 -1.9
v -1.1 0.6 -1.9
v -1.1 0 -2.1
v -1.1 0.1 -2.1
v -1.1 0.5 -2.1
v -1.6 2.2 0.5
v -1.6 2.3 0.5
v -1.6 2.2 -0.1
v -1.6 2.3 -0.1
v -1.6 1.4 -0.4
v -1.6 1.5 -0.4
v -1.6 1.4 -1
v -1.6 1.5 -1
v -1.7 0.5 0.8
v -1.7 0.6 0.8
v -1.7 0.5 0.2
v -1.7 0.6 0.2
v -1.8 1.7 0.5
v -1.8 1.8 0.5
v -1.8 2.2 0.5
v -1.8 1.7 -0.1
v -1.8 1.8 -0.1
v -1.8 2.2 -0.1
v -1.8 0.9 -0.4
v -1.8 1 -0.4
v -1.8 1.4 -0.4
v -1.8 0.9 -1
v -1.8 1 -1
v -1.8 1.4 -1
v -1.9 0 0.8
v -1.9 0.1 0.8
v -1.9 0.5 0.8
v -1.9 0 0.2
v -1.9 0.1 0.2
v -1.9 0.5 0.2
v 1.4 0 1.8
v 1.4 0 1.2
v 1.3 0 1.7
v 1.3 0 1.3
v 1 0 1.8
v 1 0 1.7
v 1 0 1.3
v 1 0 1.2
v 0.8 0 1.8
v 0.8 0 1.7
v 0.8 0 1.3
v 0.8 0 1.2
v 0.2 0 1.3
v 0.2 0 1
v -0.3 0 1.7
v -0.3 0 1.3
v -0.5 0 1
v -0.5 0 0.3
v -0.5 0 -1.5
v -0.5 0 -1.7
v -0.5 0 -2.1
v -0.6 0 -0.3
v -0.6 0 -1.5
v -0.6 0 -1.7
v -0.6 0 -2
v -0.7 0 1.3
v -0.7 0 1.1
v -0.9 0 1.1
v -0.9 0 0.7
v -0.9 0 0.3
v -1 0 -0.3
v -1 0 -1.5
v -1 0 -1.7
v -1 0 -2
v -1.1 0 -1.5
v -1.1 0 -1.7
v -1.1 0 -2.1
v -1.3 0 0.8
v -1.3 0 0.7
v -1.3 0 0.3
v -1.3 0 0.2
v -1.5 0 0.8
v -1.5 0 0.7
v -1.5 0 0.3
v -1.5 0 0.2
v -1.8 0 0.7
v -1.8 0 0.3
v -1.9 0 0.8
v -1.9 0 0.2
v 0.5 0.3 1.3
v 0.5 0.3 -1.3
v 0.2 0.3 1.3
v 0.2 0.3 1
v -0.5 0.3 1
v -0.5 0.3 0.3
v -0.6 0.3 -0.3
v -0.6 0.3 -1.3
v -0.9 0.3 0.3
v -0.9 0.3 -0.3
v -0.5 0.5 2.1
v -0.5 0.5 1.7
v -0.5 0.5 1.5
v -0.6 0.5 2
v -0.6 0.5 1.7
v -0.6 0.5 1.5
v -0.6 0.5 1.3
v -0.7 0.5 1.3
v -0.7 0.5 1.1
v -0.9 0.5 1.1
v -0.9 0.5 0.5
v -0.9 0.5 0.3
v -0.9 0.5 -0.1
v -1 0.5 2
v -1 0.5 1.7
v -1 0.5 1.5
v -1 0.5 0.3
v -1.1 0.5 2.1
v -1.1 0.5 1.7
v -1.1 0.5 1.5
v -1.1 0.5 0.3
v -1.1 0.5 -0.1
v 1.4 0.7 -1.2
v 1.4 0.7 -1.8
v 1.3 0.7 -1.3
v 1.3 0.7 -1.7
v 1 0.7 -1.2
v 1 0.7 -1.3
v 1 0.7 -1.7
v 1 0.7 -1.8
v 0.8 0.7 -1.2
v 0.8 0.7 -1.3
v 0.8 0.7 -1.7
v 0.8 0.7 -1.8
v 0.5 0.7 -1.3
v -0.2 0.7 -1.3
v -0.2 0.7 -1.7
v -0.9 0.9 -0.5
v -0.9 0.9 -0.9
v -1.2 0.9 -0.4
v -1.2 0.9 -0.5
v -1.2 0.9 -0.9
v -1.2 0.9 -1
v -1.4 0.9 -0.4
v -1.4 0.9 -0.5
v -1.4 0.9 -0.9
v -1.4 0.9 -1
v -1.7 0.9 -0.5
v -1.7 0.9 -0.9
v -1.8 0.9 -0.4
v -1.8 0.9 -1
v 0.3 1.1 1.4
v 0.3 1.1 1.3
v -0.7 1.1 1.3
v -0.7 1.1 1.1
v -0.9 1.1 1.4
v -0.9 1.1 1.2
v -0.9 1.1 1.1
v -0.9 1.1 0.3
v -1.1 1.1 1.2
v -1.1 1.1 0.3
v 0.4 1.4 2.3
v 0.4 1.4 1.9
v 0.4 1.4 1.7
v 0.3 1.4 2.2
v 0.3 1.4 1.9
v 0.3 1.4 1.7
v 0.3 1.4 1.4
v -0.1 1.4 2.2
v -0.1 1.4 1.9
v -0.1 1.4 1.7
v -0.1 1.4 1.4
v -0.2 1.4 2.3
v -0.2 1.4 1.9
v -0.2 1.4 1.7
v -0.7 1.6 -1.1
v -0.7 1.6 -1.3
v -0.9 1.6 -0.4
v -0.9 1.6 -1.1
v -1.1 1.6 -0.4
v -1.1 1.6 -1.3
v 0.5 1.7 -1.6
v 0.5 1.7 -1.8
v 0.5 1.7 -2.2
v 0.4 1.7 -1.3
v 0.4 1.7 -1.6
v 0.4 1.7 -1.8
v 0.4 1.7 -2.1
v -2.38419e-07 1.7 -1.3
v -2.38419e-07 1.7 -1.6
v -2.38419e-07 1.7 -1.8
v -2.38419e-07 1.7 -2.1
v -0.1 1.7 -1.6
v -0.1 1.7 -1.8
v -0.1 1.7 -2.2
v -0.9 1.7 0.4
v -0.9 1.7 -2.38419e-07
v -1.2 1.7 0.5
v -1.2 1.7 0.4
v -1.2 1.7 -2.38419e-07
v -1.2 1.7 -0.1
v -1.4 1.7 0.5
v -1.4 1.7 0.4
v -1.4 1.7 -2.38419e-07
v -1.4 1.7 -0.1
v -1.7 1.7 0.4
v -1.7 1.7 -2.38419e-07
v -1.8 1.7 0.5
v -1.8 1.7 -0.1
v 0.8 1.8 1.3
v 0.8 1.8 1.1
v 0.8 1.8 -1.1
v 0.8 1.8 -1.3
v 0.5 1.8 1.3
v 0.5 1.8 1.1
v 0.5 1.8 -1.1
v 0.5 1.8 -1.3
v 2 1.9 0.9
v 2 1.9 0.3
v 1.9 1.9 0.8
v 1.9 1.9 0.4
v 1.6 1.9 0.9
v 1.6 1.9 0.8
v 1.6 1.9 0.4
v 1.6 1.9 0.3
v 1.4 1.9 0.9
v 1.4 1.9 0.8
v 1.4 1.9 0.4
v 1.4 1.9 0.3
v 0.5 1.9 0.8
v 0.5 1.9 0.4
v -0.9 1.9 0.8
v -0.9 1.9 0.4
v -0.9 1.9 -2.38419e-07
v -0.9 1.9 -0.1
v -0.9 1.9 -0.4
v -1 1.9 0.8
v -1 1.9 0.4
v -1 1.9 -2.38419e-07
v -1 1.9 -0.4
v 1 2.1 1.1
v 1 2.1 0.8
v 1 2.1 0.4
v 1 2.1 -1.1
v 0.8 2.1 1.1
v 0.8 2.1 -1.1
v 0.5 2.1 1.1
v 0.5 2.1 0.8
v 0.5 2.1 0.4
v 0.5 2.1 -1.1
v 1.8 2.4 -0.3
v 1.8 2.4 -0.9
v 1.7 2.4 -0.4
v 1.7 2.4 -0.8
v 1.4 2.4 -0.3
v 1.4 2.4 -0.4
v 1.4 2.4 -0.8
v 1.4 2.4 -0.9
v 1.2 2.4 -0.3
v 1.2 2.4 -0.4
v 1.2 2.4 -0.8
v 1.2 2.4 -0.9
v 1 2.4 -0.4
v 1 2.4 -0.8
v 0.8 0.4 1.7
v 0.8 0.4 1.3
v 0.5 0.4 1.3
v -0.3 0.4 1.7
v -0.3 0.4 1.3
v -0.6 0.4 -1.3
v -0.6 0.4 -1.5
v -0.7 0.4 -1.1
v -0.7 0.4 -1.3
v -0.9 0.4 0.7
v -0.9 0.4 0.5
v -0.9 0.4 0.3
v -0.9 0.4 -0.3
v -0.9 0.4 -1.1
v -1 0.4 -0.3
v -1 0.4 -1.5
v -1.3 0.4 0.7
v -1.3 0.4 0.3
v 1.4 0.5 1.8
v 1.4 0.5 1.2
v 1.2 0.5 1.8
v 1.2 0.5 1.2
v -0.5 0.5 -1.9
v -0.5 0.5 -2.1
v -1.1 0.5 -1.9
v -1.1 0.5 -2.1
v -1.7 0.5 0.8
v -1.7 0.5 0.2
v -1.9 0.5 0.8
v -1.9 0.5 0.2
v 1.2 0.6 1.8
v 1.2 0.6 1.2
v 0.8 0.6 1.8
v 0.8 0.6 1.2
v -0.5 0.6 -1.5
v -0.5 0.6 -1.9
v -1.1 0.6 -1.5
v -1.1 0.6 -1.9
v -1.3 0.6 0.8
v -1.3 0.6 0.2
v -1.7 0.6 0.8
v -1.7 0.6 0.2
v -0.6 0.9 1.5
v -0.6 0.9 1.3
v -0.7 0.9 1.3
v -0.7 0.9 1.1
v -0.9 0.9 1.1
v -0.9 0.9 0.3
v -1 0.9 1.5
v -1 0.9 0.3
v -0.5 1 2.1
v -0.5 1 1.9
v -1.1 1 2.1
v -1.1 1 1.9
v 0.8 1.1 -1.3
v 0.8 1.1 -1.7
v 0.5 1.1 -1.3
v -0.2 1.1 -1.3
v -0.2 1.1 -1.7
v -0.5 1.1 1.9
v -0.5 1.1 1.5
v -1.1 1.1 1.9
v -1.1 1.1 1.5
v 1.4 1.2 -1.2
v 1.4 1.2 -1.8
v 1.2 1.2 -1.2
v 1.2 1.2 -1.8
v 1.2 1.3 -1.2
v 1.2 1.3 -1.8
v 0.8 1.3 -1.2
v 0.8 1.3 -1.8
v -0.9 1.3 -0.5
v -0.9 1.3 -0.9
v -1.2 1.3 -0.5
v -1.2 1.3 -0.9
v -1.6 1.4 -0.4
v -1.6 1.4 -1
v -1.8 1.4 -0.4
v -1.8 1.4 -1
v -0.1 1.5 1.4
v -0.1 1.5 1.3
v -0.7 1.5 1.3
v -0.7 1.5 1.1
v -0.9 1.5 1.4
v -0.9 1.5 1.2
v -0.9 1.5 1.1
v -0.9 1.5 -0.1
v -1.1 1.5 1.2
v -1.1 1.5 -0.1
v -1.2 1.5 -0.4
v -1.2 1.5 -1
v -1.6 1.5 -0.4
v -1.6 1.5 -1
v 0.3 1.8 1.7
v 0.3 1.8 1.4
v -0.1 1.8 1.7
v -0.1 1.8 1.4
v 0.4 1.9 2.3
v 0.4 1.9 2.1
v -0.2 1.9 2.3
v -0.2 1.9 2.1
v 0.4 2 2.1
v 0.4 2 1.7
v -0.2 2 2.1
v -0.2 2 1.7
v -0.7 2 -1.1
v -0.7 2 -1.3
v -0.9 2 -0.8
v -0.9 2 -1.1
v -1.1 2 -0.8
v -1.1 2 -1.3
v 0.4 2.1 -1.3
v 0.4 2.1 -1.6
v -2.38419e-07 2.1 -1.3
v -2.38419e-07 2.1 -1.6
v -1 2.1 0.4
v -1 2.1 -2.38419e-07
v -1.2 2.1 0.4
v -1.2 2.1 -2.38419e-07
v 0.5 2.2 -2
v 0.5 2.2 -2.2
v -0.1 2.2 -2
v -0.1 2.2 -2.2
v -1.6 2.2 0.5
v -1.6 2.2 -0.1
v -1.8 2.2 0.5
v -1.8 2.2 -0.1
v 1.4 2.3 0.8
v 1.4 2.3 0.4
v 1.2 2.3 0.8
v 1.2 2.3 0.4
v 0.5 2.3 -1.6
v 0.5 2.3 -2
v -0.1 2.3 -1.6
v -0.1 2.3 -2
v -0.9 2.3 0.4
v -0.9 2.3 -0.4
v -1 2.3 0.4
v -1 2.3 -0.4
v -1.2 2.3 0.5
v -1.2 2.3 -0.1
v -1.6 2.3 0.5
v -1.6 2.3 -0.1
v 2 2.4 0.9
v 2 2.4 0.3
v 1.8 2.4 0.9
v 1.8 2.4 0.3
v 1 2.4 1.1
v 1 2.4 0.8
v 1 2.4 0.4
v 1 2.4 -0.4
v 1 2.4 -0.8
v 1 2.4 -1.1
v 0.8 2.4 1.3
v 0.8 2.4 1.1
v 0.8 2.4 0.8
v 0.8 2.4 0.4
v 0.8 2.4 -0.4
v 0.8 2.4 -0.8
v 0.8 2.4 -1.1
v 0.8 2.4 -1.3
v 0.3 2.4 1.3
v 0.3 2.4 1.1
v 0.2 2.4 -1.1
v 0.2 2.4 -1.3
v -0.1 2.4 1.3
v -0.1 2.4 1.1
v -0.2 2.4 -1.1
v -0.2 2.4 -1.3
v -0.7 2.4 1.3
v -0.7 2.4 1.1
v -0.7 2.4 -1.1
v -0.7 2.4 -1.3
v 1.8 2.5 0.9
v 1.8 2.5 0.3
v 1.4 2.5 0.9
v 1.4 2.5 0.3
v 0.8 2.6 1.1
v 0.8 2.6 0.8
v 0.8 2.6 0.4
v 0.8 2.6 -0.4
v 0.8 2.6 -0.8
v 0.8 2.6 -1.1
v 0.7 2.6 0.2
v 0.7 2.6 -0.2
v 0.6 2.6 0.8
v 0.6 2.6 0.4
v 0.3 2.6 1.1
v 0.3 2.6 0.8
v 0.2 2.6 -0.2
v 0.2 2.6 -0.4
v 0.2 2.6 -0.8
v 0.2 2.6 -1.1
v -0.1 2.6 1.1
v -0.1 2.6 0.8
v -0.2 2.6 0.2
v -0.2 2.6 -0.4
v -0.2 2.6 -0.8
v -0.2 2.6 -1.1
v -0.5 2.6 0.4
v -0.5 2.6 -0.4
v -0.9 2.6 1.1
v -0.9 2.6 0.8
v -0.9 2.6 -0.4
v -0.9 2.6 -0.8
v -0.9 2.6 -1.1
v -1.1 2.6 -0.4
v -1.1 2.6 -0.8
v 1.2 2.7 0.8
v 1.2 2.7 0.4
v 0.6 2.7 0.8
v 0.6 2.7 0.4
v 0.3 2.7 1.4
v 0.3 2.7 0.8
v -0.1 2.7 1.4
v -0.1 2.7 0.8
v -0.5 2.7 0.4
v -0.5 2.7 -0.4
v -0.9 2.7 0.4
v -0.9 2.7 -0.4
v 1.2 2.8 -0.4
v 1.2 2.8 -0.8
v 0.7 2.8 0.2
v 0.7 2.8 -0.2
v 0.6 2.8 0.8
v 0.6 2.8 0.4
v 0.2 2.8 0.2
v 0.2 2.8 -0.2
v 0.2 2.8 -0.4
v 0.2 2.8 -0.8
v -0.2 2.8 -0.4
v -0.2 2.8 -0.8
v -0.9 2.8 -0.4
v -0.9 2.8 -0.8
v -1 2.8 0.8
v -1 2.8 0.4
v 1.8 2.9 -0.3
v 1.8 2.9 -0.9
v 1.6 2.9 -0.3
v 1.6 2.9 -0.9
v 0.2 2.9 0.2
v 0.2 2.9 -1.3
v -0.2 2.9 0.2
v -0.2 2.9 -1.3
v 1.6 3 -0.3
v 1.6 3 -0.9
v 1.2 3 -0.3
v 1.2 3 -0.9

# faces
f 3/2/1 2/2/1 1/2/1
f 4/2/1 2/2/1 3/2/1
f 5/4/1 4/4/1 3/4/1
f 6/4/1 4/4/1 5/4/1
f 9/3/1 8/3/1 7/3/1
f 10/3/1 8/3/1 9/3/1
f 11/5/1 10/5/1 9/5/1
f 12/5/1 10/5/1 11/5/1
f 15/4/1 14/4/1 13/4/1
f 16/4/1 14/4/1 15/4/1
f 19/5/1 18/5/1 17/5/1
f 20/5/1 18/5/1 19/5/1
f 24/1/1 22/1/1 21/1/1
f 25/1/1 22/1/1 24/1/1
f 26/3/1 25/3/1 24/3/1
f 27/1/1 22/1/1 25/1/1
f 27/3/1 25/3/1 26/3/1
f 28/3/1 23/3/1 22/3/1
f 28/1/1 22/1/1 27/1/1
f 29/3/1 23/3/1 28/3/1
f 30/1/1 27/1/1 26/1/1
f 30/3/1 26/3/1 24/3/1
f 30/1/1 28/1/1 27/1/1
f 31/6/1 29/6/1 28/6/1
f 31/1/1 28/1/1 30/1/1
f 32/3/1 30/3/1 24/3/1
f 33/6/1 31/6/1 30/6/1
f 33/3/1 30/3/1 32/3/1
f 34/3/1 23/3/1 29/3/1
f 34/6/1 31/6/1 33/6/1
f 34/6/1 29/6/1 31/6/1
f 35/3/1 34/3/1 33/3/1
f 36/3/1 23/3/1 34/3/1
f 36/3/1 34/3/1 35/3/1
f 39/3/1 38/3/1 37/3/1
f 40/3/1 38/3/1 39/3/1
f 43/4/1 42/4/1 41/4/1
f 44/4/1 42/4/1 43/4/1
f 45/4/1 42/4/1 44/4/1
f 46/4/1 42/4/1 45/4/1
f 49/5/1 48/5/1 47/5/1
f 50/5/1 48/5/1 49/5/1
f 54/4/1 52/4/1 51/4/1
f 55/4/1 52/4/1 54/4/1
f 55/4/1 54/4/1 53/4/1
f 56/4/1 52/4/1 55/4/1
f 57/4/1 55/4/1 53/4/1
f 59/4/1 57/4/1 53/4/1
f 59/4/1 58/4/1 57/4/1
f 60/4/1 58/4/1 59/4/1
f 64/4/1 59/4/1 53/4/1
f 65/4/1 59/4/1 64/4/1
f 66/4/1 62/4/1 61/4/1
f 67/4/1 65/4/1 64/4/1
f 67/4/1 64/4/1 63/4/1
f 68/4/1 65/4/1 67/4/1
f 69/4/1 62/4/1 66/4/1
f 70/4/1 62/4/1 69/4/1
f 73/4/1 72/4/1 71/4/1
f 74/4/1 72/4/1 73/4/1
f 77/4/1 76/4/1 75/4/1
f 78/4/1 76/4/1 77/4/1
f 81/4/1 80/4/1 79/4/1
f 82/4/1 80/4/1 81/4/1
f 87/4/1 86/4/1 85/4/1
f 88/4/1 86/4/1 87/4/1
f 91/3/1 84/3/1 83/3/1
f 92/4/1 89/4/1 88/4/1
f 93/4/1 89/4/1 92/4/1
f 94/3/1 91/3/1 90/3/1
f 95/3/1 84/3/1 91/3/1
f 95/3/1 91/3/1 94/3/1
f 99/3/1 97/3/1 96/3/1
f 100/3/1 97/3/1 99/3/1
f 101/5/1 100/5/1 99/5/1
f 102/3/1 97/3/1 100/3/1
f 102/5/1 100/5/1 101/5/1
f 103/5/1 98/5/1 97/5/1
f 103/3/1 97/3/1 102/3/1
f 104/5/1 98/5/1 103/5/1
f 105/6/1 102/6/1 101/6/1
f 105/6/1 103/6/1 102/6/1
f 105/6/1 104/6/1 103/6/1
f 106/5/1 98/5/1 104/5/1
f 106/6/1 104/6/1 105/6/1
f 107/5/1 101/5/1 99/5/1
f 108/6/1 105/6/1 101/6/1
f 108/5/1 101/5/1 107/5/1
f 109/3/1 106/3/1 105/3/1
f 109/6/1 105/6/1 108/6/1
f 110/5/1 98/5/1 106/5/1
f 110/3/1 106/3/1 109/3/1
f 111/5/1 109/5/1 108/5/1
f 111/5/1 110/5/1 109/5/1
f 112/5/1 98/5/1 110/5/1
f 112/5/1 110/5/1 111/5/1
f 116/1/1 115/1/1 114/1/1
f 117/1/1 115/1/1 116/1/1
f 118/3/1 114/3/1 113/3/1
f 119/1/1 116/1/1 114/1/1
f 119/3/1 114/3/1 118/3/1
f 120/3/1 117/3/1 116/3/1
f 120/1/1 116/1/1 119/1/1
f 121/3/1 117/3/1 120/3/1
f 122/3/1 118/3/1 113/3/1
f 122/6/1 119/6/1 118/6/1
f 122/6/1 121/6/1 120/6/1
f 122/6/1 120/6/1 119/6/1
f 123/6/1 121/6/1 122/6/1
f 124/3/1 122/3/1 113/3/1
f 124/1/1 123/1/1 122/1/1
f 125/6/1 121/6/1 123/6/1
f 125/1/1 123/1/1 124/1/1
f 126/3/1 117/3/1 121/3/1
f 126/6/1 121/6/1 125/6/1
f 127/3/1 117/3/1 126/3/1
f 128/3/1 125/3/1 124/3/1
f 128/3/1 124/3/1 113/3/1
f 128/3/1 126/3/1 125/3/1
f 129/3/1 126/3/1 128/3/1
f 134/5/1 131/5/1 130/5/1
f 135/5/1 131/5/1 134/5/1
f 136/5/1 134/5/1 130/5/1
f 137/5/1 134/5/1 136/5/1
f 138/5/1 134/5/1 137/5/1
f 140/5/1 139/5/1 138/5/1
f 144/4/1 133/4/1 132/4/1
f 145/5/1 141/5/1 140/5/1
f 145/5/1 138/5/1 137/5/1
f 145/5/1 140/5/1 138/5/1
f 146/4/1 142/4/1 141/4/1
f 146/5/1 141/5/1 145/5/1
f 147/4/1 142/4/1 146/4/1
f 148/4/1 144/4/1 143/4/1
f 149/4/1 147/4/1 146/4/1
f 149/4/1 148/4/1 147/4/1
f 150/4/1 144/4/1 148/4/1
f 150/4/1 148/4/1 149/4/1
f 150/4/1 133/4/1 144/4/1
f 153/3/1 152/3/1 151/3/1
f 154/3/1 152/3/1 153/3/1
f 158/3/1 157/3/1 156/3/1
f 159/3/1 157/3/1 158/3/1
f 160/5/1 156/5/1 155/5/1
f 161/3/1 158/3/1 156/3/1
f 161/5/1 156/5/1 160/5/1
f 162/5/1 159/5/1 158/5/1
f 162/3/1 158/3/1 161/3/1
f 163/5/1 159/5/1 162/5/1
f 164/6/1 161/6/1 160/6/1
f 164/3/1 162/3/1 161/3/1
f 164/3/1 163/3/1 162/3/1
f 165/5/1 159/5/1 163/5/1
f 165/3/1 163/3/1 164/3/1
f 166/5/1 160/5/1 155/5/1
f 166/6/1 164/6/1 160/6/1
f 166/6/1 165/6/1 164/6/1
f 167/5/1 159/5/1 165/5/1
f 167/6/1 165/6/1 166/6/1
f 168/5/1 159/5/1 167/5/1
f 169/5/1 166/5/1 155/5/1
f 169/5/1 167/5/1 166/5/1
f 170/5/1 167/5/1 169/5/1
f 173/5/1 172/5/1 171/5/1
f 174/5/1 172/5/1 173/5/1
f 175/5/1 172/5/1 174/5/1
f 176/5/1 172/5/1 175/5/1
f 180/4/1 178/4/1 177/4/1
f 181/4/1 180/4/1 179/4/1
f 182/4/1 178/4/1 180/4/1
f 182/4/1 180/4/1 181/4/1
f 185/5/1 184/5/1 183/5/1
f 186/5/1 184/5/1 185/5/1
f 187/5/1 184/5/1 186/5/1
f 188/5/1 184/5/1 187/5/1
f 191/3/1 190/3/1 189/3/1
f 192/3/1 190/3/1 191/3/1
f 193/3/1 190/3/1 192/3/1
f 194/3/1 190/3/1 193/3/1
f 198/2/1 196/2/1 195/2/1
f 199/2/1 196/2/1 198/2/1
f 200/4/1 199/4/1 198/4/1
f 201/2/1 196/2/1 199/2/1
f 201/4/1 199/4/1 200/4/1
f 202/4/1 197/4/1 196/4/1
f 202/2/1 196/2/1 201/2/1
f 203/4/1 197/4/1 202/4/1
f 204/6/1 201/6/1 200/6/1
f 204/4/1 200/4/1 198/4/1
f 204/6/1 203/6/1 202/6/1
f 204/6/1 202/6/1 201/6/1
f 205/6/1 203/6/1 204/6/1
f 206/4/1 204/4/1 198/4/1
f 207/2/1 205/2/1 204/2/1
f 207/4/1 204/4/1 206/4/1
f 208/6/1 203/6/1 205/6/1
f 208/2/1 205/2/1 207/2/1
f 209/4/1 197/4/1 203/4/1
f 209/6/1 203/6/1 208/6/1
f 210/4/1 208/4/1 207/4/1
f 210/4/1 209/4/1 208/4/1
f 211/4/1 197/4/1 209/4/1
f 211/4/1 209/4/1 210/4/1
f 215/2/1 214/2/1 213/2/1
f 216/2/1 214/2/1 215/2/1
f 217/4/1 213/4/1 212/4/1
f 218/2/1 215/2/1 213/2/1
f 218/4/1 213/4/1 217/4/1
f 219/4/1 216/4/1 215/4/1
f 219/2/1 215/2/1 218/2/1
f 220/4/1 216/4/1 219/4/1
f 221/6/1 218/6/1 217/6/1
f 221/6/1 219/6/1 218/6/1
f 221/6/1 220/6/1 219/6/1
f 222/4/1 216/4/1 220/4/1
f 222/6/1 220/6/1 221/6/1
f 223/4/1 217/4/1 212/4/1
f 223/6/1 221/6/1 217/6/1
f 224/2/1 222/2/1 221/2/1
f 224/6/1 221/6/1 223/6/1
f 225/4/1 216/4/1 222/4/1
f 225/2/1 222/2/1 224/2/1
f 226/4/1 216/4/1 225/4/1
f 227/4/1 224/4/1 223/4/1
f 227/4/1 223/4/1 212/4/1
f 227/4/1 225/4/1 224/4/1
f 228/4/1 225/4/1 227/4/1
f 231/4/1 230/4/1 229/4/1
f 232/4/1 230/4/1 231/4/1
f 234/4/1 230/4/1 232/4/1
f 238/4/1 236/4/1 235/4/1
f 238/4/1 237/4/1 236/4/1
f 242/4/1 234/4/1 233/4/1
f 243/4/1 230/4/1 234/4/1
f 243/4/1 234/4/1 242/4/1
f 244/4/1 241/4/1 240/4/1
f 246/4/1 238/4/1 235/4/1
f 246/4/1 239/4/1 238/4/1
f 247/4/1 239/4/1 246/4/1
f 248/4/1 245/4/1 244/4/1
f 248/4/1 244/4/1 240/4/1
f 249/4/1 245/4/1 248/4/1
f 252/4/1 251/4/1 250/4/1
f 253/4/1 251/4/1 252/4/1
f 256/4/1 255/4/1 254/4/1
f 257/4/1 255/4/1 256/4/1
f 261/2/1 259/2/1 258/2/1
f 262/2/1 259/2/1 261/2/1
f 263/4/1 262/4/1 261/4/1
f 264/2/1 259/2/1 262/2/1
f 264/4/1 262/4/1 263/4/1
f 265/4/1 260/4/1 259/4/1
f 265/2/1 259/2/1 264/2/1
f 266/4/1 260/4/1 265/4/1
f 267/6/1 264/6/1 263/6/1
f 267/2/1 265/2/1 264/2/1
f 267/2/1 266/2/1 265/2/1
f 268/4/1 260/4/1 266/4/1
f 268/2/1 266/2/1 267/2/1
f 269/4/1 263/4/1 261/4/1
f 270/6/1 267/6/1 263/6/1
f 270/4/1 263/4/1 269/4/1
f 270/6/1 268/6/1 267/6/1
f 271/4/1 260/4/1 268/4/1
f 271/6/1 268/6/1 270/6/1
f 272/4/1 271/4/1 270/4/1
f 273/4/1 260/4/1 271/4/1
f 273/4/1 271/4/1 272/4/1
f 276/4/1 275/4/1 274/4/1
f 277/4/1 275/4/1 276/4/1
f 282/3/1 279/3/1 278/3/1
f 283/3/1 281/3/1 280/3/1
f 284/3/1 282/3/1 278/3/1
f 284/3/1 283/3/1 282/3/1
f 285/3/1 281/3/1 283/3/1
f 285/3/1 283/3/1 284/3/1
f 290/5/1 287/5/1 286/5/1
f 291/5/1 289/5/1 288/5/1
f 292/5/1 290/5/1 286/5/1
f 292/5/1 291/5/1 290/5/1
f 293/5/1 289/5/1 291/5/1
f 293/5/1 291/5/1 292/5/1
f 294/4/2 295/4/2 298/4/2
f 296/4/2 297/4/2 299/4/2
f 294/4/2 298/4/2 300/4/2
f 298/4/2 299/4/2 300/4/2
f 299/4/2 297/4/2 301/4/2
f 300/4/2 299/4/2 301/4/2
f 302/5/2 303/5/2 306/5/2
f 304/5/2 305/5/2 307/5/2
f 302/5/2 306/5/2 308/5/2
f 306/5/2 307/5/2 308/5/2
f 307/5/2 305/5/2 309/5/2
f 308/5/2 307/5/2 309/5/2
f 310/3/2 311/3/2 312/3/2
f 312/3/2 311/3/2 313/3/2
f 310/3/2 312/3/2 314/3/2
f 314/3/2 312/3/2 315/3/2
f 316/1/2 317/1/2 319/1/2
f 319/1/2 317/1/2 320/1/2
f 319/3/2 320/3/2 321/3/2
f 320/1/2 317/1/2 322/1/2
f 321/3/2 320/3/2 322/3/2
f 317/3/2 318/3/2 323/3/2
f 322/1/2 317/1/2 323/1/2
f 323/3/2 318/3/2 324/3/2
f 321/1/2 322/1/2 325/1/2
f 319/3/2 321/3/2 325/3/2
f 322/1/2 323/1/2 325/1/2
f 323/6/2 324/6/2 326/6/2
f 325/1/2 323/1/2 326/1/2
f 319/3/2 325/3/2 327/3/2
f 325/6/2 326/6/2 328/6/2
f 327/3/2 325/3/2 328/3/2
f 324/3/2 318/3/2 329/3/2
f 328/6/2 326/6/2 329/6/2
f 326/6/2 324/6/2 329/6/2
f 328/3/2 329/3/2 330/3/2
f 329/3/2 318/3/2 331/3/2
f 330/3/2 329/3/2 331/3/2
f 332/4/2 333/4/2 334/4/2
f 334/4/2 333/4/2 335/4/2
f 336/4/2 337/4/2 338/4/2
f 338/4/2 337/4/2 339/4/2
f 340/5/2 341/5/2 342/5/2
f 342/5/2 341/5/2 343/5/2
f 340/5/2 342/5/2 344/5/2
f 344/5/2 342/5/2 345/5/2
f 345/5/2 342/5/2 348/5/2
f 348/5/2 349/5/2 350/5/2
f 345/5/2 348/5/2 353/5/2
f 348/5/2 350/5/2 353/5/2
f 350/5/2 351/5/2 353/5/2
f 351/4/2 352/4/2 354/4/2
f 353/5/2 351/5/2 354/5/2
f 354/4/2 352/4/2 355/4/2
f 346/4/2 347/4/2 356/4/2
f 354/4/2 355/4/2 357/4/2
f 355/4/2 356/4/2 357/4/2
f 356/4/2 347/4/2 358/4/2
f 357/4/2 356/4/2 358/4/2
f 359/4/2 360/4/2 362/4/2
f 360/3/2 361/3/2 363/3/2
f 362/4/2 360/4/2 363/4/2
f 363/3/2 361/3/2 364/3/2
f 364/3/2 361/3/2 365/3/2
f 366/3/2 367/3/2 369/3/2
f 369/3/2 367/3/2 370/3/2
f 369/5/2 370/5/2 371/5/2
f 370/3/2 367/3/2 372/3/2
f 371/5/2 370/5/2 372/5/2
f 367/5/2 368/5/2 373/5/2
f 372/3/2 367/3/2 373/3/2
f 373/5/2 368/5/2 374/5/2
f 371/6/2 372/6/2 375/6/2
f 372/6/2 373/6/2 375/6/2
f 373/6/2 374/6/2 375/6/2
f 374/5/2 368/5/2 376/5/2
f 375/6/2 374/6/2 376/6/2
f 369/5/2 371/5/2 377/5/2
f 371/6/2 375/6/2 378/6/2
f 377/5/2 371/5/2 378/5/2
f 375/3/2 376/3/2 379/3/2
f 378/6/2 375/6/2 379/6/2
f 376/5/2 368/5/2 380/5/2
f 379/3/2 376/3/2 380/3/2
f 378/5/2 379/5/2 381/5/2
f 379/5/2 380/5/2 381/5/2
f 380/5/2 368/5/2 382/5/2
f 381/5/2 380/5/2 382/5/2
f 384/1/2 385/1/2 386/1/2
f 386/1/2 385/1/2 387/1/2
f 383/3/2 384/3/2 388/3/2
f 384/1/2 386/1/2 389/1/2
f 388/3/2 384/3/2 389/3/2
f 386/3/2 387/3/2 390/3/2
f 389/1/2 386/1/2 390/1/2
f 390/3/2 387/3/2 391/3/2
f 383/3/2 388/3/2 392/3/2
f 388/6/2 389/6/2 392/6/2
f 390/6/2 391/6/2 392/6/2
f 389/6/2 390/6/2 392/6/2
f 392/6/2 391/6/2 393/6/2
f 383/3/2 392/3/2 394/3/2
f 392/1/2 393/1/2 394/1/2
f 393/6/2 391/6/2 395/6/2
f 394/1/2 393/1/2 395/1/2
f 391/3/2 387/3/2 396/3/2
f 395/6/2 391/6/2 396/6/2
f 396/3/2 387/3/2 397/3/2
f 394/3/2 395/3/2 398/3/2
f 383/3/2 394/3/2 398/3/2
f 395/3/2 396/3/2 398/3/2
f 398/3/2 396/3/2 399/3/2
f 400/5/2 401/5/2 402/5/2
f 402/5/2 401/5/2 403/5/2
f 403/5/2 401/5/2 404/5/2
f 404/5/2 401/5/2 405/5/2
f 406/4/2 407/4/2 408/4/2
f 408/4/2 407/4/2 409/4/2
f 411/3/2 412/3/2 413/3/2
f 413/3/2 412/3/2 414/3/2
f 410/5/2 411/5/2 415/5/2
f 411/3/2 413/3/2 416/3/2
f 415/5/2 411/5/2 416/5/2
f 413/5/2 414/5/2 417/5/2
f 416/3/2 413/3/2 417/3/2
f 417/5/2 414/5/2 418/5/2
f 415/6/2 416/6/2 419/6/2
f 416/3/2 417/3/2 419/3/2
f 417/3/2 418/3/2 419/3/2
f 418/5/2 414/5/2 420/5/2
f 419/3/2 418/3/2 420/3/2
f 410/5/2 415/5/2 421/5/2
f 415/6/2 419/6/2 421/6/2
f 419/6/2 420/6/2 421/6/2
f 420/5/2 414/5/2 422/5/2
f 421/6/2 420/6/2 422/6/2
f 422/5/2 414/5/2 423/5/2
f 410/5/2 421/5/2 424/5/2
f 421/5/2 422/5/2 424/5/2
f 424/5/2 422/5/2 425/5/2
f 426/5/2 427/5/2 428/5/2
f 428/5/2 427/5/2 429/5/2
f 432/4/2 433/4/2 435/4/2
f 433/4/2 434/4/2 435/4/2
f 430/4/2 431/4/2 438/4/2
f 438/4/2 431/4/2 439/4/2
f 435/4/2 436/4/2 440/4/2
f 432/4/2 435/4/2 440/4/2
f 440/4/2 436/4/2 441/4/2
f 437/4/2 438/4/2 442/4/2
f 442/4/2 438/4/2 443/4/2
f 444/4/2 445/4/2 446/4/2
f 446/4/2 445/4/2 447/4/2
f 448/2/2 449/2/2 451/2/2
f 451/2/2 449/2/2 452/2/2
f 451/4/2 452/4/2 453/4/2
f 452/2/2 449/2/2 454/2/2
f 453/4/2 452/4/2 454/4/2
f 449/4/2 450/4/2 455/4/2
f 454/2/2 449/2/2 455/2/2
f 455/4/2 450/4/2 456/4/2
f 453/6/2 454/6/2 457/6/2
f 451/4/2 453/4/2 457/4/2
f 455/6/2 456/6/2 457/6/2
f 454/6/2 455/6/2 457/6/2
f 457/6/2 456/6/2 458/6/2
f 451/4/2 457/4/2 459/4/2
f 457/2/2 458/2/2 460/2/2
f 459/4/2 457/4/2 460/4/2
f 458/6/2 456/6/2 461/6/2
f 460/2/2 458/2/2 461/2/2
f 456/4/2 450/4/2 462/4/2
f 461/6/2 456/6/2 462/6/2
f 460/4/2 461/4/2 463/4/2
f 461/4/2 462/4/2 463/4/2
f 462/4/2 450/4/2 464/4/2
f 463/4/2 462/4/2 464/4/2
f 466/2/2 467/2/2 468/2/2
f 468/2/2 467/2/2 469/2/2
f 465/4/2 466/4/2 470/4/2
f 466/2/2 468/2/2 471/2/2
f 470/4/2 466/4/2 471/4/2
f 468/4/2 469/4/2 472/4/2
f 471/2/2 468/2/2 472/2/2
f 472/4/2 469/4/2 473/4/2
f 470/6/2 471/6/2 474/6/2
f 471/6/2 472/6/2 474/6/2
f 472/6/2 473/6/2 474/6/2
f 473/4/2 469/4/2 475/4/2
f 474/6/2 473/6/2 475/6/2
f 465/4/2 470/4/2 476/4/2
f 470/6/2 474/6/2 476/6/2
f 474/2/2 475/2/2 477/2/2
f 476/6/2 474/6/2 477/6/2
f 475/4/2 469/4/2 478/4/2
f 477/2/2 475/2/2 478/2/2
f 478/4/2 469/4/2 479/4/2
f 476/4/2 477/4/2 480/4/2
f 465/4/2 476/4/2 480/4/2
f 477/4/2 478/4/2 480/4/2
f 480/4/2 478/4/2 481/4/2
f 482/4/2 483/4/2 484/4/2
f 484/4/2 483/4/2 485/4/2
f 488/4/2 489/4/2 490/4/2
f 490/4/2 489/4/2 491/4/2
f 486/3/2 487/3/2 494/3/2
f 491/3/2 492/3/2 495/3/2
f 495/3/2 492/3/2 496/3/2
f 493/3/2 494/3/2 497/3/2
f 494/3/2 487/3/2 498/3/2
f 497/3/2 494/3/2 498/3/2
f 499/4/2 500/4/2 501/4/2
f 499/4/2 501/4/2 503/4/2
f 501/4/2 502/4/2 503/4/2
f 503/4/2 502/4/2 504/4/2
f 504/4/2 502/4/2 506/4/2
f 506/4/2 502/4/2 507/4/2
f 505/4/2 506/4/2 507/4/2
f 505/4/2 507/4/2 509/4/2
f 507/4/2 508/4/2 509/4/2
f 509/4/2 508/4/2 510/4/2
f 505/4/2 509/4/2 512/4/2
f 510/4/2 508/4/2 513/4/2
f 513/4/2 508/4/2 514/4/2
f 511/4/2 512/4/2 515/4/2
f 512/4/2 509/4/2 515/4/2
f 510/4/2 513/4/2 516/4/2
f 511/4/2 515/4/2 517/4/2
f 515/4/2 516/4/2 517/4/2
f 517/4/2 516/4/2 518/4/2
f 516/4/2 513/4/2 519/4/2
f 518/4/2 516/4/2 519/4/2
f 519/4/2 513/4/2 520/4/2
f 518/5/2 519/5/2 521/5/2
f 521/5/2 519/5/2 522/5/2
f 523/4/2 524/4/2 525/4/2
f 525/4/2 524/4/2 526/4/2
f 527/2/2 528/2/2 530/2/2
f 530/2/2 528/2/2 531/2/2
f 530/4/2 531/4/2 532/4/2
f 531/2/2 528/2/2 533/2/2
f 532/4/2 531/4/2 533/4/2
f 528/4/2 529/4/2 534/4/2
f 533/2/2 528/2/2 534/2/2
f 534/4/2 529/4/2 535/4/2
f 532/6/2 533/6/2 536/6/2
f 533/2/2 534/2/2 536/2/2
f 534/2/2 535/2/2 536/2/2
f 535/4/2 529/4/2 537/4/2
f 536/2/2 535/2/2 537/2/2
f 530/4/2 532/4/2 538/4/2
f 532/6/2 536/6/2 539/6/2
f 538/4/2 532/4/2 539/4/2
f 536/6/2 537/6/2 539/6/2
f 537/4/2 529/4/2 540/4/2
f 539/6/2 537/6/2 540/6/2
f 539/4/2 540/4/2 541/4/2
f 540/4/2 529/4/2 542/4/2
f 541/4/2 540/4/2 542/4/2
f 543/3/2 544/3/2 545/3/2
f 545/3/2 544/3/2 546/3/2
f 547/5/2 548/5/2 549/5/2
f 549/5/2 548/5/2 550/5/2
f 551/1/2 552/1/2 553/1/2
f 553/1/2 552/1/2 554/1/2
f 553/3/2 554/3/2 555/3/2
f 555/3/2 554/3/2 556/3/2
f 557/3/2 558/3/2 559/3/2
f 559/3/2 558/3/2 560/3/2
f 559/5/2 560/5/2 561/5/2
f 561/5/2 560/5/2 562/5/2
f 566/3/3 564/3/3 563/3/3
f 567/5/3 565/5/3 564/5/3
f 567/3/3 564/3/3 566/3/3
f 568/5/3 565/5/3 567/5/3
f 571/5/3 570/5/3 569/5/3
f 572/5/3 570/5/3 571/5/3
f 576/2/3 574/2/3 573/2/3
f 577/4/3 575/4/3 574/4/3
f 577/2/3 574/2/3 576/2/3
f 578/4/3 575/4/3 577/4/3
f 581/4/3 580/4/3 579/4/3
f 582/4/3 580/4/3 581/4/3
f 586/1/3 584/1/3 583/1/3
f 587/3/3 585/3/3 584/3/3
f 587/1/3 584/1/3 586/1/3
f 588/3/3 585/3/3 587/3/3
f 592/2/3 590/2/3 589/2/3
f 593/4/3 591/4/3 590/4/3
f 593/2/3 590/2/3 592/2/3
f 594/4/3 591/4/3 593/4/3
f 597/3/3 596/3/3 595/3/3
f 598/3/3 596/3/3 597/3/3
f 601/5/3 600/5/3 599/5/3
f 602/5/3 600/5/3 601/5/3
f 605/4/3 604/4/3 603/4/3
f 606/4/3 604/4/3 605/4/3
f 609/4/3 608/4/3 607/4/3
f 610/4/3 608/4/3 609/4/3
f 613/4/3 612/4/3 611/4/3
f 614/4/3 613/4/3 611/4/3
f 615/4/3 614/4/3 611/4/3
f 616/4/3 614/4/3 615/4/3
f 619/4/3 618/4/3 617/4/3
f 620/4/3 618/4/3 619/4/3
f 621/4/3 618/4/3 620/4/3
f 623/4/3 622/4/3 621/4/3
f 624/4/3 622/4/3 623/4/3
f 627/4/3 626/4/3 625/4/3
f 628/4/3 626/4/3 627/4/3
f 633/3/3 630/3/3 629/3/3
f 634/3/3 630/3/3 633/3/3
f 635/4/3 632/4/3 631/4/3
f 635/4/3 633/4/3 632/4/3
f 636/4/3 633/4/3 635/4/3
f 639/5/3 638/5/3 637/5/3
f 640/5/3 638/5/3 639/5/3
f 643/4/3 642/4/3 641/4/3
f 644/4/3 642/4/3 643/4/3
f 648/4/3 646/4/3 645/4/3
f 648/4/3 647/4/3 646/4/3
f 650/4/3 649/4/3 648/4/3
f 651/4/3 649/4/3 650/4/3
f 652/4/3 650/4/3 648/4/3
f 654/4/3 648/4/3 645/4/3
f 654/4/3 653/4/3 652/4/3
f 654/4/3 652/4/3 648/4/3
f 655/4/3 653/4/3 654/4/3
f 656/4/3 654/4/3 645/4/3
f 657/4/3 654/4/3 656/4/3
f 658/4/3 654/4/3 657/4/3
f 659/4/3 654/4/3 658/4/3
f 662/5/3 661/5/3 660/5/3
f 663/5/3 661/5/3 662/5/3
f 664/5/3 662/5/3 660/5/3
f 665/6/3 663/6/3 662/6/3
f 665/5/3 662/5/3 664/5/3
f 666/6/3 663/6/3 665/6/3
f 667/3/3 665/3/3 664/3/3
f 667/3/3 666/3/3 665/3/3
f 668/3/3 666/3/3 667/3/3
f 669/5/3 668/5/3 667/5/3
f 669/3/3 666/3/3 668/3/3
f 670/6/3 663/6/3 666/6/3
f 670/3/3 666/3/3 669/3/3
f 671/5/3 661/5/3 663/5/3
f 671/6/3 663/6/3 670/6/3
f 672/5/3 661/5/3 671/5/3
f 673/3/3 667/3/3 664/3/3
f 674/5/3 670/5/3 669/5/3
f 674/3/3 667/3/3 673/3/3
f 674/5/3 669/5/3 667/5/3
f 674/5/3 671/5/3 670/5/3
f 675/5/3 671/5/3 674/5/3
f 679/4/3 678/4/3 677/4/3
f 680/4/3 678/4/3 679/4/3
f 681/4/3 678/4/3 680/4/3
f 683/2/3 677/2/3 676/2/3
f 683/4/3 679/4/3 677/4/3
f 684/6/3 680/6/3 679/6/3
f 684/4/3 679/4/3 683/4/3
f 685/2/3 683/2/3 676/2/3
f 685/2/3 684/2/3 683/2/3
f 686/6/3 680/6/3 684/6/3
f 686/2/3 684/2/3 685/2/3
f 687/2/3 681/2/3 680/2/3
f 687/6/3 680/6/3 686/6/3
f 688/4/3 682/4/3 681/4/3
f 688/2/3 681/2/3 687/2/3
f 689/6/3 687/6/3 686/6/3
f 689/4/3 686/4/3 685/4/3
f 689/6/3 688/6/3 687/6/3
f 690/4/3 682/4/3 688/4/3
f 690/6/3 688/6/3 689/6/3
f 691/4/3 689/4/3 685/4/3
f 691/4/3 690/4/3 689/4/3
f 692/4/3 682/4/3 690/4/3
f 692/4/3 690/4/3 691/4/3
f 695/5/3 694/5/3 693/5/3
f 696/5/3 694/5/3 695/5/3
f 700/4/3 698/4/3 697/4/3
f 701/4/3 698/4/3 700/4/3
f 703/4/3 700/4/3 699/4/3
f 703/4/3 701/4/3 700/4/3
f 704/5/3 702/5/3 701/5/3
f 704/4/3 701/4/3 703/4/3
f 705/5/3 702/5/3 704/5/3
f 706/5/3 702/5/3 705/5/3
f 707/5/3 702/5/3 706/5/3
f 708/5/3 702/5/3 707/5/3
f 709/5/3 702/5/3 708/5/3
f 712/4/3 711/4/3 710/4/3
f 713/4/3 711/4/3 712/4/3
f 717/5/3 715/5/3 714/5/3
f 718/5/3 717/5/3 716/5/3
f 719/5/3 715/5/3 717/5/3
f 719/5/3 717/5/3 718/5/3
f 721/5/3 715/5/3 719/5/3
f 723/5/3 721/5/3 720/5/3
f 724/5/3 723/5/3 722/5/3
f 725/5/3 715/5/3 721/5/3
f 725/5/3 723/5/3 724/5/3
f 725/5/3 721/5/3 723/5/3
f 729/5/3 728/5/3 727/5/3
f 730/5/3 728/5/3 729/5/3
f 732/3/3 727/3/3 726/3/3
f 732/5/3 729/5/3 727/5/3
f 733/6/3 730/6/3 729/6/3
f 733/5/3 729/5/3 732/5/3
f 734/6/3 730/6/3 733/6/3
f 735/3/3 732/3/3 726/3/3
f 735/3/3 733/3/3 732/3/3
f 735/3/3 734/3/3 733/3/3
f 736/3/3 734/3/3 735/3/3
f 737/5/3 736/5/3 735/5/3
f 737/3/3 734/3/3 736/3/3
f 738/6/3 730/6/3 734/6/3
f 738/3/3 734/3/3 737/3/3
f 739/5/3 731/5/3 730/5/3
f 739/6/3 730/6/3 738/6/3
f 740/5/3 738/5/3 737/5/3
f 740/5/3 737/5/3 735/5/3
f 740/5/3 739/5/3 738/5/3
f 741/5/3 731/5/3 739/5/3
f 741/5/3 739/5/3 740/5/3
f 746/4/3 743/4/3 742/4/3
f 747/4/3 743/4/3 746/4/3
f 748/3/3 745/3/3 744/3/3
f 749/3/3 745/3/3 748/3/3
f 752/3/3 751/3/3 750/3/3
f 753/3/3 751/3/3 752/3/3
f 754/3/3 751/3/3 753/3/3
f 755/3/3 752/3/3 750/3/3
f 756/6/3 753/6/3 752/6/3
f 756/3/3 752/3/3 755/3/3
f 757/1/3 756/1/3 755/1/3
f 758/6/3 753/6/3 756/6/3
f 758/1/3 756/1/3 757/1/3
f 759/1/3 754/1/3 753/1/3
f 759/6/3 753/6/3 758/6/3
f 760/3/3 751/3/3 754/3/3
f 760/1/3 754/1/3 759/1/3
f 761/6/3 759/6/3 758/6/3
f 761/3/3 758/3/3 757/3/3
f 761/6/3 760/6/3 759/6/3
f 762/3/3 751/3/3 760/3/3
f 762/6/3 760/6/3 761/6/3
f 763/3/3 751/3/3 762/3/3
f 764/1/3 757/1/3 755/1/3
f 765/3/3 761/3/3 757/3/3
f 765/1/3 757/1/3 764/1/3
f 765/3/3 762/3/3 761/3/3
f 766/3/3 762/3/3 765/3/3
f 769/5/3 768/5/3 767/5/3
f 770/5/3 768/5/3 769/5/3
f 773/3/3 772/3/3 771/3/3
f 775/3/3 773/3/3 771/3/3
f 775/3/3 774/3/3 773/3/3
f 776/3/3 774/3/3 775/3/3
f 779/5/3 778/5/3 777/5/3
f 780/5/3 778/5/3 779/5/3
f 782/5/3 778/5/3 780/5/3
f 783/5/3 782/5/3 781/5/3
f 784/5/3 778/5/3 782/5/3
f 784/5/3 782/5/3 783/5/3
f 787/4/3 786/4/3 785/4/3
f 788/4/3 786/4/3 787/4/3
f 790/4/3 786/4/3 788/4/3
f 791/4/3 790/4/3 789/4/3
f 792/4/3 786/4/3 790/4/3
f 792/4/3 790/4/3 791/4/3
f 795/3/3 794/3/3 793/3/3
f 796/3/3 794/3/3 795/3/3
f 798/3/3 794/3/3 796/3/3
f 799/3/3 798/3/3 797/3/3
f 800/3/3 794/3/3 798/3/3
f 800/3/3 798/3/3 799/3/3
f 801/5/4 802/5/4 803/5/4
f 803/5/4 802/5/4 804/5/4
f 804/5/4 802/5/4 806/5/4
f 805/5/4 806/5/4 807/5/4
f 806/5/4 802/5/4 808/5/4
f 807/5/4 806/5/4 808/5/4
f 809/4/4 810/4/4 811/4/4
f 811/4/4 810/4/4 812/4/4
f 812/4/4 810/4/4 814/4/4
f 813/4/4 814/4/4 815/4/4
f 814/4/4 810/4/4 816/4/4
f 815/4/4 814/4/4 816/4/4
f 817/3/4 818/3/4 819/3/4
f 819/3/4 818/3/4 820/3/4
f 820/3/4 818/3/4 822/3/4
f 821/3/4 822/3/4 823/3/4
f 822/3/4 818/3/4 824/3/4
f 823/3/4 822/3/4 824/3/4
f 825/4/4 826/4/4 827/4/4
f 827/4/4 826/4/4 828/4/4
f 828/4/4 826/4/4 830/4/4
f 829/4/4 830/4/4 831/4/4
f 830/4/4 826/4/4 832/4/4
f 831/4/4 830/4/4 832/4/4
f 833/5/4 834/5/4 835/5/4
f 835/5/4 834/5/4 836/5/4
f 837/4/4 838/4/4 839/4/4
f 839/4/4 838/4/4 840/4/4
f 840/4/4 838/4/4 841/4/4
f 840/4/4 841/4/4 843/4/4
f 841/5/4 842/5/4 844/5/4
f 843/4/4 841/4/4 844/4/4
f 844/5/4 842/5/4 845/5/4
f 845/5/4 842/5/4 846/5/4
f 846/5/4 842/5/4 847/5/4
f 847/5/4 842/5/4 848/5/4
f 848/5/4 842/5/4 849/5/4
f 850/5/4 851/5/4 852/5/4
f 852/5/4 851/5/4 853/5/4
f 850/5/4 852/5/4 854/5/4
f 852/6/4 853/6/4 855/6/4
f 854/5/4 852/5/4 855/5/4
f 855/6/4 853/6/4 856/6/4
f 854/3/4 855/3/4 857/3/4
f 855/3/4 856/3/4 857/3/4
f 857/3/4 856/3/4 858/3/4
f 857/5/4 858/5/4 859/5/4
f 858/3/4 856/3/4 859/3/4
f 856/6/4 853/6/4 860/6/4
f 859/3/4 856/3/4 860/3/4
f 853/5/4 851/5/4 861/5/4
f 860/6/4 853/6/4 861/6/4
f 861/5/4 851/5/4 862/5/4
f 854/3/4 857/3/4 863/3/4
f 859/5/4 860/5/4 864/5/4
f 863/3/4 857/3/4 864/3/4
f 857/5/4 859/5/4 864/5/4
f 860/5/4 861/5/4 864/5/4
f 864/5/4 861/5/4 865/5/4
f 867/4/4 868/4/4 869/4/4
f 869/4/4 868/4/4 870/4/4
f 870/4/4 868/4/4 871/4/4
f 866/2/4 867/2/4 873/2/4
f 867/4/4 869/4/4 873/4/4
f 869/6/4 870/6/4 874/6/4
f 873/4/4 869/4/4 874/4/4
f 866/2/4 873/2/4 875/2/4
f 873/2/4 874/2/4 875/2/4
f 874/6/4 870/6/4 876/6/4
f 875/2/4 874/2/4 876/2/4
f 870/2/4 871/2/4 877/2/4
f 876/6/4 870/6/4 877/6/4
f 871/4/4 872/4/4 878/4/4
f 877/2/4 871/2/4 878/2/4
f 876/6/4 877/6/4 879/6/4
f 875/4/4 876/4/4 879/4/4
f 877/6/4 878/6/4 879/6/4
f 878/4/4 872/4/4 880/4/4
f 879/6/4 878/6/4 880/6/4
f 875/4/4 879/4/4 881/4/4
f 879/4/4 880/4/4 881/4/4
f 880/4/4 872/4/4 882/4/4
f 881/4/4 880/4/4 882/4/4
f 883/5/4 884/5/4 885/5/4
f 885/5/4 884/5/4 886/5/4
f 886/5/4 884/5/4 888/5/4
f 887/5/4 888/5/4 890/5/4
f 889/5/4 890/5/4 893/5/4
f 888/5/4 884/5/4 894/5/4
f 893/5/4 890/5/4 894/5/4
f 890/5/4 888/5/4 894/5/4
f 891/4/4 892/4/4 895/4/4
f 895/4/4 892/4/4 896/4/4
f 897/3/4 898/3/4 899/3/4
f 899/3/4 898/3/4 900/3/4
f 901/4/4 902/4/4 907/4/4
f 907/4/4 902/4/4 908/4/4
f 903/4/4 904/4/4 909/4/4
f 909/4/4 904/4/4 910/4/4
f 905/4/4 906/4/4 911/4/4
f 911/4/4 906/4/4 912/4/4
f 913/4/4 914/4/4 917/4/4
f 917/4/4 914/4/4 918/4/4
f 915/4/4 916/4/4 919/4/4
f 919/4/4 916/4/4 920/4/4
f 921/4/4 922/4/4 923/4/4
f 923/4/4 922/4/4 924/4/4
f 929/3/4 930/3/4 931/3/4
f 931/3/4 930/3/4 932/3/4
f 925/4/4 926/4/4 933/4/4
f 933/4/4 926/4/4 934/4/4
f 934/4/4 926/4/4 935/4/4
f 935/4/4 926/4/4 936/4/4
f 929/3/4 931/3/4 937/3/4
f 937/3/4 931/3/4 938/3/4
f 935/3/4 936/3/4 942/3/4
f 942/3/4 936/3/4 943/3/4
f 927/4/4 928/4/4 944/4/4
f 944/4/4 928/4/4 945/4/4
f 929/3/4 937/3/4 946/3/4
f 942/4/4 943/4/4 948/4/4
f 941/4/4 942/4/4 948/4/4
f 946/3/4 947/3/4 949/3/4
f 929/3/4 946/3/4 949/3/4
f 949/3/4 947/3/4 950/3/4
f 941/4/4 948/4/4 951/4/4
f 948/4/4 949/4/4 951/4/4
f 949/4/4 950/4/4 951/4/4
f 951/4/4 950/4/4 952/4/4
f 952/4/4 950/4/4 953/4/4
f 953/4/4 950/4/4 954/4/4
f 939/3/4 940/3/4 955/3/4
f 955/3/4 940/3/4 956/3/4
f 956/3/4 940/3/4 957/3/4
f 952/4/4 953/4/4 959/4/4
f 959/4/4 953/4/4 960/4/4
f 957/4/4 958/4/4 962/4/4
f 956/4/4 957/4/4 962/4/4
f 962/4/4 958/4/4 963/4/4
f 952/4/4 959/4/4 964/4/4
f 960/4/4 953/4/4 965/4/4
f 952/4/4 964/4/4 966/4/4
f 964/4/4 965/4/4 966/4/4
f 965/4/4 953/4/4 967/4/4
f 966/4/4 965/4/4 967/4/4
f 961/3/4 962/3/4 968/3/4
f 968/3/4 962/3/4 969/3/4
f 972/4/4 973/4/4 974/4/4
f 974/4/4 973/4/4 975/4/4
f 975/4/4 973/4/4 976/4/4
f 976/4/4 973/4/4 977/4/4
f 970/5/4 971/5/4 978/5/4
f 978/5/4 971/5/4 979/5/4
f 975/4/4 976/4/4 981/4/4
f 980/4/4 981/4/4 984/4/4
f 981/4/4 976/4/4 985/4/4
f 984/4/4 981/4/4 985/4/4
f 982/3/4 983/3/4 986/3/4
f 986/3/4 983/3/4 987/3/4
f 989/5/4 990/5/4 991/5/4
f 991/5/4 990/5/4 992/5/4
f 988/3/4 989/3/4 994/3/4
f 989/5/4 991/5/4 994/5/4
f 991/6/4 992/6/4 995/6/4
f 994/5/4 991/5/4 995/5/4
f 995/6/4 992/6/4 996/6/4
f 988/3/4 994/3/4 997/3/4
f 994/3/4 995/3/4 997/3/4
f 995/3/4 996/3/4 997/3/4
f 997/3/4 996/3/4 998/3/4
f 997/5/4 998/5/4 999/5/4
f 998/3/4 996/3/4 999/3/4
f 996/6/4 992/6/4 1000/6/4
f 999/3/4 996/3/4 1000/3/4
f 992/5/4 993/5/4 1001/5/4
f 1000/6/4 992/6/4 1001/6/4
f 999/5/4 1000/5/4 1002/5/4
f 997/5/4 999/5/4 1002/5/4
f 1000/5/4 1001/5/4 1002/5/4
f 1001/5/4 993/5/4 1003/5/4
f 1002/5/4 1001/5/4 1003/5/4
f 1004/4/4 1005/4/4 1007/4/4
f 1006/4/4 1007/4/4 1008/4/4
f 1007/4/4 1005/4/4 1009/4/4
f 1008/4/4 1007/4/4 1009/4/4
f 1010/4/4 1011/4/4 1012/4/4
f 1012/4/4 1011/4/4 1013/4/4
f 1010/4/4 1012/4/4 1014/4/4
f 1014/4/4 1012/4/4 1015/4/4
f 1016/3/4 1017/3/4 1018/3/4
f 1018/3/4 1017/3/4 1019/3/4
f 1019/3/4 1017/3/4 1020/3/4
f 1016/3/4 1018/3/4 1021/3/4
f 1018/6/4 1019/6/4 1022/6/4
f 1021/3/4 1018/3/4 1022/3/4
f 1021/1/4 1022/1/4 1023/1/4
f 1022/6/4 1019/6/4 1024/6/4
f 1023/1/4 1022/1/4 1024/1/4
f 1019/1/4 1020/1/4 1025/1/4
f 1024/6/4 1019/6/4 1025/6/4
f 1020/3/4 1017/3/4 1026/3/4
f 1025/1/4 1020/1/4 1026/1/4
f 1024/6/4 1025/6/4 1027/6/4
f 1023/3/4 1024/3/4 1027/3/4
f 1025/6/4 1026/6/4 1027/6/4
f 1026/3/4 1017/3/4 1028/3/4
f 1027/6/4 1026/6/4 1028/6/4
f 1028/3/4 1017/3/4 1029/3/4
f 1021/1/4 1023/1/4 1030/1/4
f 1023/3/4 1027/3/4 1031/3/4
f 1030/1/4 1023/1/4 1031/1/4
f 1027/3/4 1028/3/4 1031/3/4
f 1031/3/4 1028/3/4 1032/3/4
f 1033/5/4 1034/5/4 1035/5/4
f 1035/5/4 1034/5/4 1036/5/4
f 1037/4/4 1038/4/4 1039/4/4
f 1039/4/4 1038/4/4 1040/4/4
f 1041/3/4 1042/3/4 1043/3/4
f 1043/3/4 1042/3/4 1044/3/4
f 1045/3/4 1046/3/4 1048/3/4
f 1046/5/4 1047/5/4 1049/5/4
f 1048/3/4 1046/3/4 1049/3/4
f 1049/5/4 1047/5/4 1050/5/4
f 1051/2/4 1052/2/4 1054/2/4
f 1052/4/4 1053/4/4 1055/4/4
f 1054/2/4 1052/2/4 1055/2/4
f 1055/4/4 1053/4/4 1056/4/4
f 1057/1/4 1058/1/4 1060/1/4
f 1058/3/4 1059/3/4 1061/3/4
f 1060/1/4 1058/1/4 1061/1/4
f 1061/3/4 1059/3/4 1062/3/4
f 1065/1/5 1064/1/5 1063/1/5
f 1066/1/5 1064/1/5 1065/1/5
f 1067/1/5 1065/1/5 1063/1/5
f 1068/3/5 1066/3/5 1065/3/5
f 1068/1/5 1065/1/5 1067/1/5
f 1069/1/5 1064/1/5 1066/1/5
f 1069/3/5 1066/3/5 1068/3/5
f 1070/1/5 1064/1/5 1069/1/5
f 1071/3/5 1068/3/5 1067/3/5
f 1071/3/5 1069/3/5 1068/3/5
f 1071/3/5 1070/3/5 1069/3/5
f 1072/3/5 1070/3/5 1071/3/5
f 1073/3/5 1070/3/5 1072/3/5
f 1074/3/5 1070/3/5 1073/3/5
f 1075/3/5 1073/3/5 1072/3/5
f 1077/3/5 1075/3/5 1072/3/5
f 1078/4/5 1076/4/5 1075/4/5
f 1078/3/5 1075/3/5 1077/3/5
f 1079/4/5 1076/4/5 1078/4/5
f 1085/3/5 1082/3/5 1081/3/5
f 1086/1/5 1083/1/5 1082/1/5
f 1086/3/5 1082/3/5 1085/3/5
f 1087/1/5 1083/1/5 1086/1/5
f 1088/4/5 1079/4/5 1078/4/5
f 1088/4/5 1080/4/5 1079/4/5
f 1089/4/5 1080/4/5 1088/4/5
f 1090/4/5 1080/4/5 1089/4/5
f 1091/4/5 1080/4/5 1090/4/5
f 1092/4/5 1080/4/5 1091/4/5
f 1093/3/5 1087/3/5 1086/3/5
f 1093/3/5 1085/3/5 1084/3/5
f 1093/3/5 1086/3/5 1085/3/5
f 1094/3/5 1087/3/5 1093/3/5
f 1095/3/5 1087/3/5 1094/3/5
f 1096/1/5 1083/1/5 1087/1/5
f 1096/3/5 1087/3/5 1095/3/5
f 1097/3/5 1095/3/5 1094/3/5
f 1098/1/5 1096/1/5 1095/1/5
f 1098/3/5 1095/3/5 1097/3/5
f 1099/1/5 1083/1/5 1096/1/5
f 1099/1/5 1096/1/5 1098/1/5
f 1101/3/5 1092/3/5 1091/3/5
f 1102/3/5 1092/3/5 1101/3/5
f 1104/3/5 1101/3/5 1100/3/5
f 1104/3/5 1103/3/5 1102/3/5
f 1104/3/5 1102/3/5 1101/3/5
f 1105/3/5 1103/3/5 1104/3/5
f 1106/3/5 1103/3/5 1105/3/5
f 1107/3/5 1103/3/5 1106/3/5
f 1108/1/5 1105/1/5 1104/1/5
f 1108/3/5 1106/3/5 1105/3/5
f 1109/1/5 1107/1/5 1106/1/5
f 1109/3/5 1106/3/5 1108/3/5
f 1110/1/5 1108/1/5 1104/1/5
f 1110/1/5 1109/1/5 1108/1/5
f 1111/1/5 1107/1/5 1109/1/5
f 1111/1/5 1109/1/5 1110/1/5
f 1114/4/5 1113/4/5 1112/4/5
f 1115/4/5 1113/4/5 1114/4/5
f 1116/4/5 1113/4/5 1115/4/5
f 1117/4/5 1113/4/5 1116/4/5
f 1118/4/5 1113/4/5 1117/4/5
f 1119/4/5 1113/4/5 1118/4/5
f 1120/4/5 1118/4/5 1117/4/5
f 1121/4/5 1118/4/5 1120/4/5
f 1125/3/5 1123/3/5 1122/3/5
f 1126/5/5 1124/5/5 1123/5/5
f 1126/3/5 1123/3/5 1125/3/5
f 1127/5/5 1124/5/5 1126/5/5
f 1129/5/5 1126/5/5 1125/5/5
f 1129/5/5 1128/5/5 1127/5/5
f 1129/5/5 1127/5/5 1126/5/5
f 1131/5/5 1130/5/5 1129/5/5
f 1135/3/5 1125/3/5 1122/3/5
f 1135/5/5 1129/5/5 1125/5/5
f 1135/5/5 1133/5/5 1132/5/5
f 1135/5/5 1132/5/5 1131/5/5
f 1135/5/5 1131/5/5 1129/5/5
f 1136/5/5 1133/5/5 1135/5/5
f 1137/5/5 1133/5/5 1136/5/5
f 1138/4/5 1134/4/5 1133/4/5
f 1138/5/5 1133/5/5 1137/5/5
f 1139/3/5 1135/3/5 1122/3/5
f 1139/3/5 1136/3/5 1135/3/5
f 1140/5/5 1137/5/5 1136/5/5
f 1140/3/5 1136/3/5 1139/3/5
f 1141/5/5 1137/5/5 1140/5/5
f 1142/4/5 1134/4/5 1138/4/5
f 1143/4/5 1134/4/5 1142/4/5
f 1146/2/5 1145/2/5 1144/2/5
f 1147/2/5 1145/2/5 1146/2/5
f 1148/2/5 1146/2/5 1144/2/5
f 1149/4/5 1147/4/5 1146/4/5
f 1149/2/5 1146/2/5 1148/2/5
f 1150/2/5 1145/2/5 1147/2/5
f 1150/4/5 1147/4/5 1149/4/5
f 1151/2/5 1145/2/5 1150/2/5
f 1152/4/5 1149/4/5 1148/4/5
f 1152/4/5 1150/4/5 1149/4/5
f 1152/4/5 1151/4/5 1150/4/5
f 1153/4/5 1151/4/5 1152/4/5
f 1154/4/5 1151/4/5 1153/4/5
f 1155/4/5 1151/4/5 1154/4/5
f 1156/4/5 1154/4/5 1153/4/5
f 1157/4/5 1154/4/5 1156/4/5
f 1158/4/5 1154/4/5 1157/4/5
f 1162/4/5 1160/4/5 1159/4/5
f 1163/4/5 1160/4/5 1162/4/5
f 1165/4/5 1162/4/5 1161/4/5
f 1165/4/5 1164/4/5 1163/4/5
f 1165/4/5 1163/4/5 1162/4/5
f 1166/4/5 1164/4/5 1165/4/5
f 1167/4/5 1164/4/5 1166/4/5
f 1168/4/5 1164/4/5 1167/4/5
f 1169/2/5 1166/2/5 1165/2/5
f 1169/4/5 1167/4/5 1166/4/5
f 1170/2/5 1168/2/5 1167/2/5
f 1170/4/5 1167/4/5 1169/4/5
f 1171/2/5 1169/2/5 1165/2/5
f 1171/2/5 1170/2/5 1169/2/5
f 1172/2/5 1168/2/5 1170/2/5
f 1172/2/5 1170/2/5 1171/2/5
f 1175/4/5 1174/4/5 1173/4/5
f 1177/4/5 1175/4/5 1173/4/5
f 1177/4/5 1176/4/5 1175/4/5
f 1178/4/5 1176/4/5 1177/4/5
f 1179/4/5 1176/4/5 1178/4/5
f 1181/4/5 1180/4/5 1179/4/5
f 1181/4/5 1179/4/5 1178/4/5
f 1182/4/5 1180/4/5 1181/4/5
f 1186/2/5 1184/2/5 1183/2/5
f 1187/4/5 1185/4/5 1184/4/5
f 1187/2/5 1184/2/5 1186/2/5
f 1188/4/5 1185/4/5 1187/4/5
f 1190/2/5 1186/2/5 1183/2/5
f 1190/4/5 1189/4/5 1188/4/5
f 1190/4/5 1188/4/5 1187/4/5
f 1190/4/5 1187/4/5 1186/4/5
f 1191/4/5 1189/4/5 1190/4/5
f 1192/4/5 1189/4/5 1191/4/5
f 1193/4/5 1189/4/5 1192/4/5
f 1194/2/5 1190/2/5 1183/2/5
f 1194/2/5 1191/2/5 1190/2/5
f 1195/4/5 1192/4/5 1191/4/5
f 1195/2/5 1191/2/5 1194/2/5
f 1196/4/5 1192/4/5 1195/4/5
f 1200/4/5 1198/4/5 1197/4/5
f 1201/4/5 1200/4/5 1199/4/5
f 1202/4/5 1198/4/5 1200/4/5
f 1202/4/5 1200/4/5 1201/4/5
f 1207/5/5 1204/5/5 1203/5/5
f 1208/3/5 1205/3/5 1204/3/5
f 1208/5/5 1204/5/5 1207/5/5
f 1209/3/5 1205/3/5 1208/3/5
f 1210/5/5 1207/5/5 1206/5/5
f 1210/5/5 1208/5/5 1207/5/5
f 1210/5/5 1209/5/5 1208/5/5
f 1211/5/5 1209/5/5 1210/5/5
f 1212/5/5 1209/5/5 1211/5/5
f 1213/3/5 1205/3/5 1209/3/5
f 1213/5/5 1209/5/5 1212/5/5
f 1214/5/5 1212/5/5 1211/5/5
f 1215/3/5 1213/3/5 1212/3/5
f 1215/5/5 1212/5/5 1214/5/5
f 1216/3/5 1205/3/5 1213/3/5
f 1216/3/5 1213/3/5 1215/3/5
f 1220/5/5 1218/5/5 1217/5/5
f 1221/5/5 1218/5/5 1220/5/5
f 1223/5/5 1220/5/5 1219/5/5
f 1223/5/5 1222/5/5 1221/5/5
f 1223/5/5 1221/5/5 1220/5/5
f 1224/5/5 1222/5/5 1223/5/5
f 1225/5/5 1222/5/5 1224/5/5
f 1226/5/5 1222/5/5 1225/5/5
f 1227/3/5 1224/3/5 1223/3/5
f 1227/5/5 1225/5/5 1224/5/5
f 1228/3/5 1226/3/5 1225/3/5
f 1228/5/5 1225/5/5 1227/5/5
f 1229/3/5 1227/3/5 1223/3/5
f 1229/3/5 1228/3/5 1227/3/5
f 1230/3/5 1226/3/5 1228/3/5
f 1230/3/5 1228/3/5 1229/3/5
f 1235/4/5 1232/4/5 1231/4/5
f 1236/4/5 1232/4/5 1235/4/5
f 1237/4/5 1234/4/5 1233/4/5
f 1238/4/5 1234/4/5 1237/4/5
f 1241/3/5 1240/3/5 1239/3/5
f 1242/3/5 1240/3/5 1241/3/5
f 1243/3/5 1241/3/5 1239/3/5
f 1244/5/5 1242/5/5 1241/5/5
f 1244/3/5 1241/3/5 1243/3/5
f 1245/3/5 1240/3/5 1242/3/5
f 1245/5/5 1242/5/5 1244/5/5
f 1246/3/5 1240/3/5 1245/3/5
f 1247/5/5 1244/5/5 1243/5/5
f 1247/5/5 1245/5/5 1244/5/5
f 1247/5/5 1246/5/5 1245/5/5
f 1248/5/5 1246/5/5 1247/5/5
f 1249/5/5 1246/5/5 1248/5/5
f 1250/5/5 1246/5/5 1249/5/5
f 1251/5/5 1249/5/5 1248/5/5
f 1252/5/5 1249/5/5 1251/5/5
f 1258/4/5 1254/4/5 1253/4/5
f 1259/4/5 1254/4/5 1258/4/5
f 1260/4/5 1257/4/5 1256/4/5
f 1260/4/5 1256/4/5 1255/4/5
f 1261/4/5 1257/4/5 1260/4/5
f 1266/4/5 1263/4/5 1262/4/5
f 1267/4/5 1265/4/5 1264/4/5
f 1268/4/5 1263/4/5 1266/4/5
f 1269/4/5 1263/4/5 1268/4/5
f 1270/4/5 1267/4/5 1264/4/5
f 1271/4/5 1267/4/5 1270/4/5
f 1274/2/5 1273/2/5 1272/2/5
f 1275/2/5 1273/2/5 1274/2/5
f 1276/2/5 1274/2/5 1272/2/5
f 1277/4/5 1275/4/5 1274/4/5
f 1277/2/5 1274/2/5 1276/2/5
f 1278/2/5 1273/2/5 1275/2/5
f 1278/4/5 1275/4/5 1277/4/5
f 1279/2/5 1273/2/5 1278/2/5
f 1280/4/5 1277/4/5 1276/4/5
f 1280/4/5 1278/4/5 1277/4/5
f 1280/4/5 1279/4/5 1278/4/5
f 1281/4/5 1279/4/5 1280/4/5
f 1282/4/5 1279/4/5 1281/4/5
f 1283/4/5 1279/4/5 1282/4/5
f 1284/4/5 1282/4/5 1281/4/5
f 1285/4/5 1282/4/5 1284/4/5
f 1286/3/6 1287/3/6 1288/3/6
f 1286/3/6 1288/3/6 1289/3/6
f 1289/3/6 1288/3/6 1290/3/6
f 1291/3/6 1292/3/6 1294/3/6
f 1293/3/6 1294/3/6 1299/3/6
f 1298/3/6 1299/3/6 1300/3/6
f 1294/3/6 1292/3/6 1301/3/6
f 1300/3/6 1299/3/6 1301/3/6
f 1299/3/6 1294/3/6 1301/3/6
f 1296/3/6 1297/3/6 1302/3/6
f 1295/3/6 1296/3/6 1302/3/6
f 1302/3/6 1297/3/6 1303/3/6
f 1304/3/6 1305/3/6 1306/3/6
f 1306/3/6 1305/3/6 1307/3/6
f 1308/3/6 1309/3/6 1310/3/6
f 1310/3/6 1309/3/6 1311/3/6
f 1312/3/6 1313/3/6 1314/3/6
f 1314/3/6 1313/3/6 1315/3/6
f 1316/3/6 1317/3/6 1318/3/6
f 1318/3/6 1317/3/6 1319/3/6
f 1320/3/6 1321/3/6 1322/3/6
f 1322/3/6 1321/3/6 1323/3/6
f 1324/3/6 1325/3/6 1326/3/6
f 1326/3/6 1325/3/6 1327/3/6
f 1328/5/6 1329/5/6 1330/5/6
f 1330/5/6 1331/5/6 1332/5/6
f 1328/5/6 1330/5/6 1334/5/6
f 1332/5/6 1333/5/6 1334/5/6
f 1330/5/6 1332/5/6 1334/5/6
f 1334/5/6 1333/5/6 1335/5/6
f 1336/5/6 1337/5/6 1338/5/6
f 1338/5/6 1337/5/6 1339/5/6
f 1340/4/6 1341/4/6 1342/4/6
f 1342/4/6 1341/4/6 1343/4/6
f 1343/4/6 1341/4/6 1344/4/6
f 1345/5/6 1346/5/6 1347/5/6
f 1347/5/6 1346/5/6 1348/5/6
f 1349/4/6 1350/4/6 1351/4/6
f 1351/4/6 1350/4/6 1352/4/6
f 1353/4/6 1354/4/6 1355/4/6
f 1355/4/6 1354/4/6 1356/4/6
f 1357/4/6 1358/4/6 1359/4/6
f 1359/4/6 1358/4/6 1360/4/6
f 1361/4/6 1362/4/6 1363/4/6
f 1363/4/6 1362/4/6 1364/4/6
f 1365/4/6 1366/4/6 1367/4/6
f 1365/4/6 1367/4/6 1369/4/6
f 1367/4/6 1368/4/6 1369/4/6
f 1369/4/6 1368/4/6 1370/4/6
f 1370/4/6 1368/4/6 1371/4/6
f 1371/4/6 1372/4/6 1373/4/6
f 1370/4/6 1371/4/6 1373/4/6
f 1373/4/6 1372/4/6 1374/4/6
f 1375/4/6 1376/4/6 1377/4/6
f 1377/4/6 1376/4/6 1378/4/6
f 1379/4/6 1380/4/6 1381/4/6
f 1381/4/6 1380/4/6 1382/4/6
f 1383/4/6 1384/4/6 1385/4/6
f 1385/4/6 1384/4/6 1386/4/6
f 1387/4/6 1388/4/6 1389/4/6
f 1389/4/6 1388/4/6 1390/4/6
f 1391/4/6 1392/4/6 1394/4/6
f 1393/4/6 1394/4/6 1395/4/6
f 1394/4/6 1392/4/6 1396/4/6
f 1395/4/6 1394/4/6 1396/4/6
f 1397/5/6 1398/5/6 1399/5/6
f 1399/5/6 1398/5/6 1400/5/6
f 1401/5/6 1402/5/6 1403/5/6
f 1403/5/6 1402/5/6 1404/5/6
f 1405/5/6 1406/5/6 1407/5/6
f 1407/5/6 1406/5/6 1408/5/6
f 1409/5/6 1410/5/6 1411/5/6
f 1411/5/6 1410/5/6 1412/5/6
f 1413/5/6 1414/5/6 1415/5/6
f 1415/5/6 1414/5/6 1416/5/6
f 1417/5/6 1418/5/6 1419/5/6
f 1419/5/6 1418/5/6 1420/5/6
f 1421/4/6 1422/4/6 1423/4/6
f 1423/4/6 1422/4/6 1424/4/6
f 1425/5/6 1426/5/6 1427/5/6
f 1427/5/6 1426/5/6 1428/5/6
f 1429/5/6 1430/5/6 1431/5/6
f 1431/5/6 1430/5/6 1432/5/6
f 1433/4/6 1434/4/6 1440/4/6
f 1440/4/6 1434/4/6 1441/4/6
f 1435/4/6 1436/4/6 1442/4/6
f 1442/4/6 1436/4/6 1443/4/6
f 1437/4/6 1438/4/6 1444/4/6
f 1444/4/6 1438/4/6 1445/4/6
f 1439/4/6 1440/4/6 1447/4/6
f 1447/4/6 1440/4/6 1448/4/6
f 1445/4/6 1446/4/6 1449/4/6
f 1449/4/6 1446/4/6 1450/4/6
f 1451/4/6 1452/4/6 1455/4/6
f 1455/4/6 1452/4/6 1456/4/6
f 1453/4/6 1454/4/6 1457/4/6
f 1457/4/6 1454/4/6 1458/4/6
f 1459/5/6 1460/5/6 1461/5/6
f 1461/5/6 1460/5/6 1462/5/6
f 1465/4/6 1466/4/6 1469/4/6
f 1469/4/6 1466/4/6 1470/4/6
f 1463/4/6 1464/4/6 1471/4/6
f 1465/4/6 1469/4/6 1472/4/6
f 1463/4/6 1471/4/6 1473/4/6
f 1473/4/6 1471/4/6 1474/4/6
f 1470/4/6 1466/4/6 1475/4/6
f 1475/4/6 1466/4/6 1476/4/6
f 1467/3/6 1468/3/6 1477/3/6
f 1477/3/6 1468/3/6 1478/3/6
f 1472/4/6 1469/4/6 1481/4/6
f 1472/4/6 1481/4/6 1485/4/6
f 1481/4/6 1482/4/6 1485/4/6
f 1485/4/6 1482/4/6 1486/4/6
f 1479/3/6 1480/3/6 1487/3/6
f 1487/3/6 1480/3/6 1488/3/6
f 1483/3/6 1484/3/6 1490/3/6
f 1490/3/6 1484/3/6 1491/3/6
f 1489/4/6 1490/4/6 1492/4/6
f 1492/4/6 1490/4/6 1493/4/6
f 1494/5/6 1495/5/6 1496/5/6
f 1496/5/6 1495/5/6 1497/5/6
f 1498/5/6 1499/5/6 1500/5/6
f 1500/5/6 1499/5/6 1501/5/6
f 1502/3/6 1503/3/6 1504/3/6
f 1504/3/6 1503/3/6 1505/3/6
f 1508/5/6 1509/5/6 1512/5/6
f 1512/5/6 1509/5/6 1513/5/6
f 1506/4/6 1507/4/6 1514/4/6
f 1514/4/6 1507/4/6 1515/4/6
f 1516/4/6 1517/4/6 1518/4/6
f 1518/4/6 1517/4/6 1519/4/6
f 1510/4/6 1511/4/6 1520/4/6
f 1520/4/6 1511/4/6 1521/4/6
f 1522/4/6 1523/4/6 1524/4/6
f 1524/4/6 1523/4/6 1525/4/6
f 1526/5/6 1527/5/6 1528/5/6
f 1528/5/6 1527/5/6 1529/5/6
f 1530/4/6 1531/4/6 1532/4/6
f 1532/4/6 1531/4/6 1533/4/6
