# MagicaVoxel @ Ephtracy

# group
o 

# material
mtllib model.mtl
usemtl palette

# normals
vn -1 0 0
vn 1 0 0
vn 0 0 1
vn 0 0 -1
vn 0 -1 0
vn 0 1 0

# texcoords
vt 0.0292969 0.5
vt 0.638672 0.5
vt 0.646484 0.5
vt 0.654297 0.5

# verts
v 0 0 0.6
v 0 0 0.5
v 0 0.1 0.6
v 0 0.1 0.5
v 0 0.1 -0.5
v 0 0.1 -0.6
v 0 0.2 0.6
v 0 0.2 0.5
v 0 0.2 -0.5
v 0 0.2 -0.6
v 0 0.3 0.6
v 0 0.3 0.5
v 0 0.4 0.7
v 0 0.4 0.6
v 0 0.4 0.5
v 0 0.4 0.4
v 0 0.4 -0.4
v 0 0.4 -0.5
v 0 0.4 -0.6
v 0 0.4 -0.7
v 0 0.5 0.8
v 0 0.5 0.7
v 0 0.5 0.6
v 0 0.5 0.5
v 0 0.5 0.4
v 0 0.5 0.3
v 0 0.5 -0.3
v 0 0.5 -0.4
v 0 0.5 -0.5
v 0 0.5 -0.6
v 0 0.5 -0.7
v 0 0.5 -0.8
v 0 0.5 -0.9
v 0 0.5 -1.1
v 0 0.5 -1.3
v 0 0.6 1.3
v 0 0.6 1.1
v 0 0.6 1
v 0 0.6 0.9
v 0 0.6 0.8
v 0 0.6 0.7
v 0 0.6 0.6
v 0 0.6 0.5
v 0 0.6 0.4
v 0 0.6 0.3
v 0 0.6 0.2
v 0 0.6 0.1
v 0 0.6 -0.0999999
v 0 0.6 -0.2
v 0 0.6 -0.3
v 0 0.6 -0.4
v 0 0.6 -0.5
v 0 0.6 -0.6
v 0 0.6 -0.7
v 0 0.6 -0.8
v 0 0.6 -0.9
v 0 0.6 -1.1
v 0 0.6 -1.3
v 0 0.7 1.3
v 0 0.7 1.1
v 0 0.7 1
v 0 0.7 0.9
v 0 0.7 0.8
v 0 0.7 0.7
v 0 0.7 0.6
v 0 0.7 0.5
v 0 0.7 0.4
v 0 0.7 0.3
v 0 0.7 0.2
v 0 0.7 0.1
v 0 0.7 -0.0999999
v 0 0.7 -0.2
v 0 0.7 -0.3
v 0 0.7 -0.4
v 0 0.7 -0.5
v 0 0.7 -0.6
v 0 0.7 -0.7
v 0 0.7 -0.8
v 0 0.7 -0.9
v 0 0.8 0.8
v 0 0.8 0.7
v 0 0.8 0.6
v 0 0.8 0.5
v 0 0.8 0.4
v 0 0.8 0.3
v 0 0.8 -0.4
v 0 0.8 -0.5
v 0 0.8 -0.6
v 0 0.8 -0.7
v 0 0.9 0.6
v 0 0.9 0.5
v 0 0.9 -0.5
v 0 0.9 -0.6
v 0 1 0.6
v 0 1 0.5
v 0 1 -0.5
v 0 1 -0.6
v 0 1.1 0.6
v 0 1.1 0.5
v 0 1.2 -0.5
v 0 1.2 -0.6
v 0.1 0 0.6
v 0.1 0 0.5
v 0.1 0.1 0.6
v 0.1 0.1 0.5
v 0.1 0.1 -0.5
v 0.1 0.1 -0.6
v 0.1 0.2 0.6
v 0.1 0.2 0.5
v 0.1 0.2 -0.5
v 0.1 0.2 -0.6
v 0.1 0.3 0.6
v 0.1 0.3 0.5
v 0.1 0.4 0.7
v 0.1 0.4 0.6
v 0.1 0.4 0.5
v 0.1 0.4 0.4
v 0.1 0.4 -0.4
v 0.1 0.4 -0.5
v 0.1 0.4 -0.6
v 0.1 0.4 -0.7
v 0.1 0.5 0.8
v 0.1 0.5 0.7
v 0.1 0.5 0.6
v 0.1 0.5 0.5
v 0.1 0.5 0.4
v 0.1 0.5 0.3
v 0.1 0.5 -0.3
v 0.1 0.5 -0.4
v 0.1 0.5 -0.5
v 0.1 0.5 -0.6
v 0.1 0.5 -0.7
v 0.1 0.5 -0.8
v 0.1 0.5 -0.9
v 0.1 0.5 -1.1
v 0.1 0.5 -1.3
v 0.1 0.6 1.3
v 0.1 0.6 1.1
v 0.1 0.6 1
v 0.1 0.6 0.9
v 0.1 0.6 0.8
v 0.1 0.6 0.7
v 0.1 0.6 0.6
v 0.1 0.6 0.5
v 0.1 0.6 0.4
v 0.1 0.6 0.3
v 0.1 0.6 0.2
v 0.1 0.6 0.1
v 0.1 0.6 -0.0999999
v 0.1 0.6 -0.2
v 0.1 0.6 -0.3
v 0.1 0.6 -0.4
v 0.1 0.6 -0.5
v 0.1 0.6 -0.6
v 0.1 0.6 -0.7
v 0.1 0.6 -0.8
v 0.1 0.6 -0.9
v 0.1 0.6 -1.1
v 0.1 0.6 -1.3
v 0.1 0.7 1.3
v 0.1 0.7 1.1
v 0.1 0.7 1
v 0.1 0.7 0.9
v 0.1 0.7 0.8
v 0.1 0.7 0.7
v 0.1 0.7 0.6
v 0.1 0.7 0.5
v 0.1 0.7 0.4
v 0.1 0.7 0.3
v 0.1 0.7 0.2
v 0.1 0.7 0.1
v 0.1 0.7 -0.0999999
v 0.1 0.7 -0.2
v 0.1 0.7 -0.3
v 0.1 0.7 -0.4
v 0.1 0.7 -0.5
v 0.1 0.7 -0.6
v 0.1 0.7 -0.7
v 0.1 0.7 -0.8
v 0.1 0.7 -0.9
v 0.1 0.8 0.8
v 0.1 0.8 0.7
v 0.1 0.8 0.6
v 0.1 0.8 0.5
v 0.1 0.8 0.4
v 0.1 0.8 0.3
v 0.1 0.8 -0.4
v 0.1 0.8 -0.5
v 0.1 0.8 -0.6
v 0.1 0.8 -0.7
v 0.1 0.9 0.6
v 0.1 0.9 0.5
v 0.1 0.9 -0.5
v 0.1 0.9 -0.6
v 0.1 1 0.6
v 0.1 1 0.5
v 0.1 1 -0.5
v 0.1 1 -0.6
v 0.1 1.1 0.6
v 0.1 1.1 0.5
v 0.1 1.2 -0.5
v 0.1 1.2 -0.6
v 0 0.6 1.3
v 0 0.7 1.3
v 0.1 0.6 1.3
v 0.1 0.7 1.3
v 0 0.5 0.8
v 0 0.6 0.8
v 0 0.7 0.8
v 0 0.8 0.8
v 0.1 0.5 0.8
v 0.1 0.6 0.8
v 0.1 0.7 0.8
v 0.1 0.8 0.8
v 0 0.4 0.7
v 0 0.5 0.7
v 0.1 0.4 0.7
v 0.1 0.5 0.7
v 0 0 0.6
v 0 0.1 0.6
v 0 0.2 0.6
v 0 0.3 0.6
v 0 0.4 0.6
v 0 0.8 0.6
v 0 0.9 0.6
v 0 1 0.6
v 0 1.1 0.6
v 0.1 0 0.6
v 0.1 0.1 0.6
v 0.1 0.2 0.6
v 0.1 0.3 0.6
v 0.1 0.4 0.6
v 0.1 0.8 0.6
v 0.1 0.9 0.6
v 0.1 1 0.6
v 0.1 1.1 0.6
v 0 0.6 -0.0999999
v 0 0.7 -0.0999999
v 0.1 0.6 -0.0999999
v 0.1 0.7 -0.0999999
v 0 0.5 -0.3
v 0 0.6 -0.3
v 0.1 0.5 -0.3
v 0.1 0.6 -0.3
v 0 0.4 -0.4
v 0 0.5 -0.4
v 0 0.7 -0.4
v 0 0.8 -0.4
v 0.1 0.4 -0.4
v 0.1 0.5 -0.4
v 0.1 0.7 -0.4
v 0.1 0.8 -0.4
v 0 0.1 -0.5
v 0 0.2 -0.5
v 0 0.4 -0.5
v 0 0.8 -0.5
v 0 0.9 -0.5
v 0 1 -0.5
v 0 1.2 -0.5
v 0.1 0.1 -0.5
v 0.1 0.2 -0.5
v 0.1 0.4 -0.5
v 0.1 0.8 -0.5
v 0.1 0.9 -0.5
v 0.1 1 -0.5
v 0.1 1.2 -0.5
v 0 0 0.5
v 0 0.1 0.5
v 0 0.2 0.5
v 0 0.3 0.5
v 0 0.4 0.5
v 0 0.8 0.5
v 0 0.9 0.5
v 0 1 0.5
v 0 1.1 0.5
v 0.1 0 0.5
v 0.1 0.1 0.5
v 0.1 0.2 0.5
v 0.1 0.3 0.5
v 0.1 0.4 0.5
v 0.1 0.8 0.5
v 0.1 0.9 0.5
v 0.1 1 0.5
v 0.1 1.1 0.5
v 0 0.4 0.4
v 0 0.5 0.4
v 0.1 0.4 0.4
v 0.1 0.5 0.4
v 0 0.5 0.3
v 0 0.6 0.3
v 0 0.7 0.3
v 0 0.8 0.3
v 0.1 0.5 0.3
v 0.1 0.6 0.3
v 0.1 0.7 0.3
v 0.1 0.8 0.3
v 0 0.6 0.1
v 0 0.7 0.1
v 0.1 0.6 0.1
v 0.1 0.7 0.1
v 0 0.1 -0.6
v 0 0.2 -0.6
v 0 0.4 -0.6
v 0 0.8 -0.6
v 0 0.9 -0.6
v 0 1 -0.6
v 0 1.2 -0.6
v 0.1 0.1 -0.6
v 0.1 0.2 -0.6
v 0.1 0.4 -0.6
v 0.1 0.8 -0.6
v 0.1 0.9 -0.6
v 0.1 1 -0.6
v 0.1 1.2 -0.6
v 0 0.4 -0.7
v 0 0.5 -0.7
v 0 0.7 -0.7
v 0 0.8 -0.7
v 0.1 0.4 -0.7
v 0.1 0.5 -0.7
v 0.1 0.7 -0.7
v 0.1 0.8 -0.7
v 0 0.6 -0.9
v 0 0.7 -0.9
v 0.1 0.6 -0.9
v 0.1 0.7 -0.9
v 0 0.5 -1.3
v 0 0.6 -1.3
v 0.1 0.5 -1.3
v 0.1 0.6 -1.3
v 0 0 0.6
v 0.1 0 0.6
v 0 0 0.5
v 0.1 0 0.5
v 0 0.1 -0.5
v 0.1 0.1 -0.5
v 0 0.1 -0.6
v 0.1 0.1 -0.6
v 0 0.4 0.7
v 0.1 0.4 0.7
v 0 0.4 0.6
v 0.1 0.4 0.6
v 0 0.4 0.5
v 0.1 0.4 0.5
v 0 0.4 0.4
v 0.1 0.4 0.4
v 0 0.4 -0.4
v 0.1 0.4 -0.4
v 0 0.4 -0.5
v 0.1 0.4 -0.5
v 0 0.4 -0.6
v 0.1 0.4 -0.6
v 0 0.4 -0.7
v 0.1 0.4 -0.7
v 0 0.5 0.8
v 0.1 0.5 0.8
v 0 0.5 0.7
v 0.1 0.5 0.7
v 0 0.5 0.4
v 0.1 0.5 0.4
v 0 0.5 0.3
v 0.1 0.5 0.3
v 0 0.5 -0.3
v 0.1 0.5 -0.3
v 0 0.5 -0.4
v 0.1 0.5 -0.4
v 0 0.5 -0.7
v 0.1 0.5 -0.7
v 0 0.5 -0.8
v 0.1 0.5 -0.8
v 0 0.5 -0.9
v 0.1 0.5 -0.9
v 0 0.5 -1.1
v 0.1 0.5 -1.1
v 0 0.5 -1.3
v 0.1 0.5 -1.3
v 0 0.6 1.3
v 0.1 0.6 1.3
v 0 0.6 1.1
v 0.1 0.6 1.1
v 0 0.6 1
v 0.1 0.6 1
v 0 0.6 0.9
v 0.1 0.6 0.9
v 0 0.6 0.8
v 0.1 0.6 0.8
v 0 0.6 0.3
v 0.1 0.6 0.3
v 0 0.6 0.2
v 0.1 0.6 0.2
v 0 0.6 0.1
v 0.1 0.6 0.1
v 0 0.6 -0.0999999
v 0.1 0.6 -0.0999999
v 0 0.6 -0.2
v 0.1 0.6 -0.2
v 0 0.6 -0.3
v 0.1 0.6 -0.3
v 0 0.6 -0.9
v 0.1 0.6 -0.9
v 0 0.6 -1.1
v 0.1 0.6 -1.1
v 0 0.6 -1.3
v 0.1 0.6 -1.3
v 0 0.7 1.3
v 0.1 0.7 1.3
v 0 0.7 1.1
v 0.1 0.7 1.1
v 0 0.7 1
v 0.1 0.7 1
v 0 0.7 0.9
v 0.1 0.7 0.9
v 0 0.7 0.8
v 0.1 0.7 0.8
v 0 0.7 0.3
v 0.1 0.7 0.3
v 0 0.7 0.2
v 0.1 0.7 0.2
v 0 0.7 0.1
v 0.1 0.7 0.1
v 0 0.7 -0.0999999
v 0.1 0.7 -0.0999999
v 0 0.7 -0.2
v 0.1 0.7 -0.2
v 0 0.7 -0.3
v 0.1 0.7 -0.3
v 0 0.7 -0.4
v 0.1 0.7 -0.4
v 0 0.7 -0.7
v 0.1 0.7 -0.7
v 0 0.7 -0.8
v 0.1 0.7 -0.8
v 0 0.7 -0.9
v 0.1 0.7 -0.9
v 0 0.8 0.8
v 0.1 0.8 0.8
v 0 0.8 0.7
v 0.1 0.8 0.7
v 0 0.8 0.6
v 0.1 0.8 0.6
v 0 0.8 0.5
v 0.1 0.8 0.5
v 0 0.8 0.4
v 0.1 0.8 0.4
v 0 0.8 0.3
v 0.1 0.8 0.3
v 0 0.8 -0.4
v 0.1 0.8 -0.4
v 0 0.8 -0.5
v 0.1 0.8 -0.5
v 0 0.8 -0.6
v 0.1 0.8 -0.6
v 0 0.8 -0.7
v 0.1 0.8 -0.7
v 0 1.1 0.6
v 0.1 1.1 0.6
v 0 1.1 0.5
v 0.1 1.1 0.5
v 0 1.2 -0.5
v 0.1 1.2 -0.5
v 0 1.2 -0.6
v 0.1 1.2 -0.6

# faces
f 3/2/1 2/2/1 1/2/1
f 4/2/1 2/2/1 3/2/1
f 7/3/1 4/3/1 3/3/1
f 8/3/1 4/3/1 7/3/1
f 9/2/1 6/2/1 5/2/1
f 10/2/1 6/2/1 9/2/1
f 11/4/1 8/4/1 7/4/1
f 12/4/1 8/4/1 11/4/1
f 14/3/1 12/3/1 11/3/1
f 15/3/1 12/3/1 14/3/1
f 18/3/1 10/3/1 9/3/1
f 19/3/1 10/3/1 18/3/1
f 22/3/1 14/3/1 13/3/1
f 23/4/1 15/4/1 14/4/1
f 23/3/1 14/3/1 22/3/1
f 24/3/1 16/3/1 15/3/1
f 24/4/1 15/4/1 23/4/1
f 25/3/1 16/3/1 24/3/1
f 28/3/1 18/3/1 17/3/1
f 29/4/1 19/4/1 18/4/1
f 29/3/1 18/3/1 28/3/1
f 30/3/1 20/3/1 19/3/1
f 30/4/1 19/4/1 29/4/1
f 31/3/1 20/3/1 30/3/1
f 40/3/1 22/3/1 21/3/1
f 41/4/1 23/4/1 22/4/1
f 41/3/1 22/3/1 40/3/1
f 42/1/1 24/1/1 23/1/1
f 42/4/1 23/4/1 41/4/1
f 43/4/1 25/4/1 24/4/1
f 43/1/1 24/1/1 42/1/1
f 44/3/1 26/3/1 25/3/1
f 44/4/1 25/4/1 43/4/1
f 45/3/1 26/3/1 44/3/1
f 50/3/1 28/3/1 27/3/1
f 51/4/1 29/4/1 28/4/1
f 51/3/1 28/3/1 50/3/1
f 52/1/1 30/1/1 29/1/1
f 52/4/1 29/4/1 51/4/1
f 53/4/1 31/4/1 30/4/1
f 53/1/1 30/1/1 52/1/1
f 54/3/1 32/3/1 31/3/1
f 54/4/1 31/4/1 53/4/1
f 55/4/1 33/4/1 32/4/1
f 55/3/1 32/3/1 54/3/1
f 56/3/1 34/3/1 33/3/1
f 56/4/1 33/4/1 55/4/1
f 57/2/1 35/2/1 34/2/1
f 57/3/1 34/3/1 56/3/1
f 58/2/1 35/2/1 57/2/1
f 59/2/1 37/2/1 36/2/1
f 60/3/1 38/3/1 37/3/1
f 60/2/1 37/2/1 59/2/1
f 61/2/1 39/2/1 38/2/1
f 61/3/1 38/3/1 60/3/1
f 62/3/1 40/3/1 39/3/1
f 62/2/1 39/2/1 61/2/1
f 63/4/1 41/4/1 40/4/1
f 63/3/1 40/3/1 62/3/1
f 64/1/1 43/1/1 42/1/1
f 64/4/1 41/4/1 63/4/1
f 64/1/1 42/1/1 41/1/1
f 64/1/1 44/1/1 43/1/1
f 65/1/1 44/1/1 64/1/1
f 66/1/1 44/1/1 65/1/1
f 67/4/1 45/4/1 44/4/1
f 67/1/1 44/1/1 66/1/1
f 68/3/1 46/3/1 45/3/1
f 68/4/1 45/4/1 67/4/1
f 69/2/1 47/2/1 46/2/1
f 69/3/1 46/3/1 68/3/1
f 70/2/1 47/2/1 69/2/1
f 71/2/1 49/2/1 48/2/1
f 72/3/1 50/3/1 49/3/1
f 72/2/1 49/2/1 71/2/1
f 73/4/1 51/4/1 50/4/1
f 73/3/1 50/3/1 72/3/1
f 74/1/1 52/1/1 51/1/1
f 74/4/1 51/4/1 73/4/1
f 74/1/1 53/1/1 52/1/1
f 74/1/1 54/1/1 53/1/1
f 75/1/1 54/1/1 74/1/1
f 76/1/1 54/1/1 75/1/1
f 77/4/1 55/4/1 54/4/1
f 77/1/1 54/1/1 76/1/1
f 78/3/1 56/3/1 55/3/1
f 78/4/1 55/4/1 77/4/1
f 79/3/1 56/3/1 78/3/1
f 80/4/1 64/4/1 63/4/1
f 81/3/1 65/3/1 64/3/1
f 81/4/1 64/4/1 80/4/1
f 82/1/1 66/1/1 65/1/1
f 82/3/1 65/3/1 81/3/1
f 83/4/1 67/4/1 66/4/1
f 83/1/1 66/1/1 82/1/1
f 84/3/1 68/3/1 67/3/1
f 84/4/1 67/4/1 83/4/1
f 85/3/1 68/3/1 84/3/1
f 86/4/1 75/4/1 74/4/1
f 87/1/1 76/1/1 75/1/1
f 87/4/1 75/4/1 86/4/1
f 88/3/1 77/3/1 76/3/1
f 88/1/1 76/1/1 87/1/1
f 89/3/1 77/3/1 88/3/1
f 90/4/1 83/4/1 82/4/1
f 91/4/1 83/4/1 90/4/1
f 92/4/1 88/4/1 87/4/1
f 93/4/1 88/4/1 92/4/1
f 94/3/1 91/3/1 90/3/1
f 95/3/1 91/3/1 94/3/1
f 96/3/1 93/3/1 92/3/1
f 97/3/1 93/3/1 96/3/1
f 98/2/1 95/2/1 94/2/1
f 99/2/1 95/2/1 98/2/1
f 100/2/1 97/2/1 96/2/1
f 101/2/1 97/2/1 100/2/1
f 102/2/2 103/2/2 104/2/2
f 104/2/2 103/2/2 105/2/2
f 104/3/2 105/3/2 108/3/2
f 108/3/2 105/3/2 109/3/2
f 106/2/2 107/2/2 110/2/2
f 110/2/2 107/2/2 111/2/2
f 108/4/2 109/4/2 112/4/2
f 112/4/2 109/4/2 113/4/2
f 112/3/2 113/3/2 115/3/2
f 115/3/2 113/3/2 116/3/2
f 110/3/2 111/3/2 119/3/2
f 119/3/2 111/3/2 120/3/2
f 114/3/2 115/3/2 123/3/2
f 115/4/2 116/4/2 124/4/2
f 123/3/2 115/3/2 124/3/2
f 116/3/2 117/3/2 125/3/2
f 124/4/2 116/4/2 125/4/2
f 125/3/2 117/3/2 126/3/2
f 118/3/2 119/3/2 129/3/2
f 119/4/2 120/4/2 130/4/2
f 129/3/2 119/3/2 130/3/2
f 120/3/2 121/3/2 131/3/2
f 130/4/2 120/4/2 131/4/2
f 131/3/2 121/3/2 132/3/2
f 122/3/2 123/3/2 141/3/2
f 123/4/2 124/4/2 142/4/2
f 141/3/2 123/3/2 142/3/2
f 124/1/2 125/1/2 143/1/2
f 142/4/2 124/4/2 143/4/2
f 125/4/2 126/4/2 144/4/2
f 143/1/2 125/1/2 144/1/2
f 126/3/2 127/3/2 145/3/2
f 144/4/2 126/4/2 145/4/2
f 145/3/2 127/3/2 146/3/2
f 128/3/2 129/3/2 151/3/2
f 129/4/2 130/4/2 152/4/2
f 151/3/2 129/3/2 152/3/2
f 130/1/2 131/1/2 153/1/2
f 152/4/2 130/4/2 153/4/2
f 131/4/2 132/4/2 154/4/2
f 153/1/2 131/1/2 154/1/2
f 132/3/2 133/3/2 155/3/2
f 154/4/2 132/4/2 155/4/2
f 133/4/2 134/4/2 156/4/2
f 155/3/2 133/3/2 156/3/2
f 134/3/2 135/3/2 157/3/2
f 156/4/2 134/4/2 157/4/2
f 135/2/2 136/2/2 158/2/2
f 157/3/2 135/3/2 158/3/2
f 158/2/2 136/2/2 159/2/2
f 137/2/2 138/2/2 160/2/2
f 138/3/2 139/3/2 161/3/2
f 160/2/2 138/2/2 161/2/2
f 139/2/2 140/2/2 162/2/2
f 161/3/2 139/3/2 162/3/2
f 140/3/2 141/3/2 163/3/2
f 162/2/2 140/2/2 163/2/2
f 141/4/2 142/4/2 164/4/2
f 163/3/2 141/3/2 164/3/2
f 143/1/2 144/1/2 165/1/2
f 164/4/2 142/4/2 165/4/2
f 142/1/2 143/1/2 165/1/2
f 144/1/2 145/1/2 165/1/2
f 165/1/2 145/1/2 166/1/2
f 166/1/2 145/1/2 167/1/2
f 145/4/2 146/4/2 168/4/2
f 167/1/2 145/1/2 168/1/2
f 146/3/2 147/3/2 169/3/2
f 168/4/2 146/4/2 169/4/2
f 147/2/2 148/2/2 170/2/2
f 169/3/2 147/3/2 170/3/2
f 170/2/2 148/2/2 171/2/2
f 149/2/2 150/2/2 172/2/2
f 150/3/2 151/3/2 173/3/2
f 172/2/2 150/2/2 173/2/2
f 151/4/2 152/4/2 174/4/2
f 173/3/2 151/3/2 174/3/2
f 152/1/2 153/1/2 175/1/2
f 174/4/2 152/4/2 175/4/2
f 153/1/2 154/1/2 175/1/2
f 154/1/2 155/1/2 175/1/2
f 175/1/2 155/1/2 176/1/2
f 176/1/2 155/1/2 177/1/2
f 155/4/2 156/4/2 178/4/2
f 177/1/2 155/1/2 178/1/2
f 156/3/2 157/3/2 179/3/2
f 178/4/2 156/4/2 179/4/2
f 179/3/2 157/3/2 180/3/2
f 164/4/2 165/4/2 181/4/2
f 165/3/2 166/3/2 182/3/2
f 181/4/2 165/4/2 182/4/2
f 166/1/2 167/1/2 183/1/2
f 182/3/2 166/3/2 183/3/2
f 167/4/2 168/4/2 184/4/2
f 183/1/2 167/1/2 184/1/2
f 168/3/2 169/3/2 185/3/2
f 184/4/2 168/4/2 185/4/2
f 185/3/2 169/3/2 186/3/2
f 175/4/2 176/4/2 187/4/2
f 176/1/2 177/1/2 188/1/2
f 187/4/2 176/4/2 188/4/2
f 177/3/2 178/3/2 189/3/2
f 188/1/2 177/1/2 189/1/2
f 189/3/2 178/3/2 190/3/2
f 183/4/2 184/4/2 191/4/2
f 191/4/2 184/4/2 192/4/2
f 188/4/2 189/4/2 193/4/2
f 193/4/2 189/4/2 194/4/2
f 191/3/2 192/3/2 195/3/2
f 195/3/2 192/3/2 196/3/2
f 193/3/2 194/3/2 197/3/2
f 197/3/2 194/3/2 198/3/2
f 195/2/2 196/2/2 199/2/2
f 199/2/2 196/2/2 200/2/2
f 197/2/2 198/2/2 201/2/2
f 201/2/2 198/2/2 202/2/2
f 205/2/3 204/2/3 203/2/3
f 206/2/3 204/2/3 205/2/3
f 211/3/3 208/3/3 207/3/3
f 212/3/3 208/3/3 211/3/3
f 213/4/3 210/4/3 209/4/3
f 214/4/3 210/4/3 213/4/3
f 217/3/3 216/3/3 215/3/3
f 218/3/3 216/3/3 217/3/3
f 228/2/3 220/2/3 219/2/3
f 229/3/3 221/3/3 220/3/3
f 229/2/3 220/2/3 228/2/3
f 230/4/3 222/4/3 221/4/3
f 230/3/3 221/3/3 229/3/3
f 231/3/3 223/3/3 222/3/3
f 231/4/3 222/4/3 230/4/3
f 232/3/3 223/3/3 231/3/3
f 233/4/3 225/4/3 224/4/3
f 234/3/3 226/3/3 225/3/3
f 234/4/3 225/4/3 233/4/3
f 235/2/3 227/2/3 226/2/3
f 235/3/3 226/3/3 234/3/3
f 236/2/3 227/2/3 235/2/3
f 239/2/3 238/2/3 237/2/3
f 240/2/3 238/2/3 239/2/3
f 243/3/3 242/3/3 241/3/3
f 244/3/3 242/3/3 243/3/3
f 249/3/3 246/3/3 245/3/3
f 250/3/3 246/3/3 249/3/3
f 251/4/3 248/4/3 247/4/3
f 252/4/3 248/4/3 251/4/3
f 260/2/3 254/2/3 253/2/3
f 261/3/3 255/3/3 254/3/3
f 261/2/3 254/2/3 260/2/3
f 262/3/3 255/3/3 261/3/3
f 263/4/3 257/4/3 256/4/3
f 264/3/3 258/3/3 257/3/3
f 264/4/3 257/4/3 263/4/3
f 265/2/3 259/2/3 258/2/3
f 265/3/3 258/3/3 264/3/3
f 266/2/3 259/2/3 265/2/3
f 267/2/4 268/2/4 276/2/4
f 268/3/4 269/3/4 277/3/4
f 276/2/4 268/2/4 277/2/4
f 269/4/4 270/4/4 278/4/4
f 277/3/4 269/3/4 278/3/4
f 270/3/4 271/3/4 279/3/4
f 278/4/4 270/4/4 279/4/4
f 279/3/4 271/3/4 280/3/4
f 272/4/4 273/4/4 281/4/4
f 273/3/4 274/3/4 282/3/4
f 281/4/4 273/4/4 282/4/4
f 274/2/4 275/2/4 283/2/4
f 282/3/4 274/3/4 283/3/4
f 283/2/4 275/2/4 284/2/4
f 285/3/4 286/3/4 287/3/4
f 287/3/4 286/3/4 288/3/4
f 289/3/4 290/3/4 293/3/4
f 293/3/4 290/3/4 294/3/4
f 291/3/4 292/3/4 295/3/4
f 295/3/4 292/3/4 296/3/4
f 297/2/4 298/2/4 299/2/4
f 299/2/4 298/2/4 300/2/4
f 301/2/4 302/2/4 308/2/4
f 302/3/4 303/3/4 309/3/4
f 308/2/4 302/2/4 309/2/4
f 309/3/4 303/3/4 310/3/4
f 304/4/4 305/4/4 311/4/4
f 305/3/4 306/3/4 312/3/4
f 311/4/4 305/4/4 312/4/4
f 306/2/4 307/2/4 313/2/4
f 312/3/4 306/3/4 313/3/4
f 313/2/4 307/2/4 314/2/4
f 315/3/4 316/3/4 319/3/4
f 319/3/4 316/3/4 320/3/4
f 317/3/4 318/3/4 321/3/4
f 321/3/4 318/3/4 322/3/4
f 323/3/4 324/3/4 325/3/4
f 325/3/4 324/3/4 326/3/4
f 327/2/4 328/2/4 329/2/4
f 329/2/4 328/2/4 330/2/4
f 333/2/5 332/2/5 331/2/5
f 334/2/5 332/2/5 333/2/5
f 337/2/5 336/2/5 335/2/5
f 338/2/5 336/2/5 337/2/5
f 341/3/5 340/3/5 339/3/5
f 342/3/5 340/3/5 341/3/5
f 345/3/5 344/3/5 343/3/5
f 346/3/5 344/3/5 345/3/5
f 349/3/5 348/3/5 347/3/5
f 350/3/5 348/3/5 349/3/5
f 353/3/5 352/3/5 351/3/5
f 354/3/5 352/3/5 353/3/5
f 357/3/5 356/3/5 355/3/5
f 358/3/5 356/3/5 357/3/5
f 361/3/5 360/3/5 359/3/5
f 362/3/5 360/3/5 361/3/5
f 365/3/5 364/3/5 363/3/5
f 366/3/5 364/3/5 365/3/5
f 369/3/5 368/3/5 367/3/5
f 370/3/5 368/3/5 369/3/5
f 371/4/5 370/4/5 369/4/5
f 372/4/5 370/4/5 371/4/5
f 373/3/5 372/3/5 371/3/5
f 374/3/5 372/3/5 373/3/5
f 375/2/5 374/2/5 373/2/5
f 376/2/5 374/2/5 375/2/5
f 379/2/5 378/2/5 377/2/5
f 380/2/5 378/2/5 379/2/5
f 381/3/5 380/3/5 379/3/5
f 382/3/5 380/3/5 381/3/5
f 383/2/5 382/2/5 381/2/5
f 384/2/5 382/2/5 383/2/5
f 385/3/5 384/3/5 383/3/5
f 386/3/5 384/3/5 385/3/5
f 389/3/5 388/3/5 387/3/5
f 390/3/5 388/3/5 389/3/5
f 391/2/5 390/2/5 389/2/5
f 392/2/5 390/2/5 391/2/5
f 395/2/5 394/2/5 393/2/5
f 396/2/5 394/2/5 395/2/5
f 397/3/5 396/3/5 395/3/5
f 398/3/5 396/3/5 397/3/5
f 399/3/6 400/3/6 401/3/6
f 401/3/6 400/3/6 402/3/6
f 401/2/6 402/2/6 403/2/6
f 403/2/6 402/2/6 404/2/6
f 405/2/6 406/2/6 407/2/6
f 407/2/6 406/2/6 408/2/6
f 407/3/6 408/3/6 409/3/6
f 409/3/6 408/3/6 410/3/6
f 409/2/6 410/2/6 411/2/6
f 411/2/6 410/2/6 412/2/6
f 411/3/6 412/3/6 413/3/6
f 413/3/6 412/3/6 414/3/6
f 415/3/6 416/3/6 417/3/6
f 417/3/6 416/3/6 418/3/6
f 417/2/6 418/2/6 419/2/6
f 419/2/6 418/2/6 420/2/6
f 421/2/6 422/2/6 423/2/6
f 423/2/6 422/2/6 424/2/6
f 423/3/6 424/3/6 425/3/6
f 425/3/6 424/3/6 426/3/6
f 425/4/6 426/4/6 427/4/6
f 427/4/6 426/4/6 428/4/6
f 429/4/6 430/4/6 431/4/6
f 431/4/6 430/4/6 432/4/6
f 431/3/6 432/3/6 433/3/6
f 433/3/6 432/3/6 434/3/6
f 435/4/6 436/4/6 437/4/6
f 437/4/6 436/4/6 438/4/6
f 437/3/6 438/3/6 439/3/6
f 439/3/6 438/3/6 440/3/6
f 441/4/6 442/4/6 443/4/6
f 443/4/6 442/4/6 444/4/6
f 443/3/6 444/3/6 445/3/6
f 445/3/6 444/3/6 446/3/6
f 447/4/6 448/4/6 449/4/6
f 449/4/6 448/4/6 450/4/6
f 451/3/6 452/3/6 453/3/6
f 453/3/6 452/3/6 454/3/6
f 455/2/6 456/2/6 457/2/6
f 457/2/6 456/2/6 458/2/6
f 459/2/6 460/2/6 461/2/6
f 461/2/6 460/2/6 462/2/6
