# MagicaVoxel @ Ephtracy

# group
o 

# material
mtllib model.mtl
usemtl palette

# normals
vn 0 0 1
vn 0 0 -1
vn 1 0 0
vn -1 0 0
vn 0 -1 0
vn 0 1 0

# texcoords
vt 0.00195313 0.5
vt 0.00585938 0.5
vt 0.0800781 0.5

# verts
v 0.2 0.9 2.3
v -0.2 0.9 2.3
v 0.2 1.9 2.3
v -0.2 1.9 2.3
v 0.2 0.8 2.2
v -0.2 0.8 2.2
v 0.2 0.9 2.2
v -0.2 0.9 2.2
v 0.2 1.9 2.2
v -0.2 1.9 2.2
v 0.2 2 2.2
v -0.2 2 2.2
v 1 0.4 1.4
v -1 0.4 1.4
v 1 0.8 1.4
v 0.3 0.8 1.4
v 0.2 0.8 1.4
v -0.2 0.8 1.4
v -0.3 0.8 1.4
v -1 0.8 1.4
v 0.2 1.2 1.4
v -0.2 1.2 1.4
v 0.3 1.4 1.4
v -0.3 1.4 1.4
v 0.9 1 1.3
v 0.3 1 1.3
v -0.3 1 1.3
v -0.9 1 1.3
v 0.9 1.2 1.3
v 0.3 1.2 1.3
v -0.3 1.2 1.3
v -0.9 1.2 1.3
v 1.2 0.4 1.2
v 1 0.4 1.2
v -1 0.4 1.2
v -1.2 0.4 1.2
v 1.2 0.8 1.2
v 1 0.8 1.2
v 0.8 0.8 1.2
v 0.3 0.8 1.2
v -0.3 0.8 1.2
v -0.8 0.8 1.2
v -1 0.8 1.2
v -1.2 0.8 1.2
v 0.8 1 1.2
v 0.3 1 1.2
v -0.3 1 1.2
v -0.8 1 1.2
v 0.8 1.2 1.2
v 0.3 1.2 1.2
v -0.3 1.2 1.2
v -0.8 1.2 1.2
v 0.3 1.4 1.2
v -0.3 1.4 1.2
v 0.8 1.8 1.2
v -0.8 1.8 1.2
v 1.1 1 1.1
v 0.9 1 1.1
v -0.9 1 1.1
v -1.1 1 1.1
v 1.1 1.2 1.1
v 0.9 1.2 1.1
v -0.9 1.2 1.1
v -1.1 1.2 1.1
v 1 0.8 1
v 0.8 0.8 1
v -0.8 0.8 1
v -1 0.8 1
v 1 1 1
v 0.8 1 1
v -0.8 1 1
v -1 1 1
v 1 1.2 1
v 0.8 1.2 1
v -0.8 1.2 1
v -1 1.2 1
v 1 1.8 1
v 0.8 1.8 1
v 0.6 1.8 1
v -0.6 1.8 1
v -0.8 1.8 1
v -1 1.8 1
v 0.6 2.1 1
v -0.6 2.1 1
v 0.8 1.8 0.8
v 0.6 1.8 0.8
v -0.6 1.8 0.8
v -0.8 1.8 0.8
v 0.8 2.1 0.8
v 0.6 2.1 0.8
v -0.6 2.1 0.8
v -0.8 2.1 0.8
v 0.2 2.1 0.6
v -0.2 2.1 0.6
v 0.2 2.3 0.6
v -0.2 2.3 0.6
v 0.4 2.1 0.4
v 0.2 2.1 0.4
v -0.2 2.1 0.4
v -0.4 2.1 0.4
v 0.4 2.3 0.4
v 0.2 2.3 0.4
v -0.2 2.3 0.4
v -0.4 2.3 0.4
v 1.1 1.2 0.3
v 1 1.2 0.3
v -1 1.2 0.3
v -1.1 1.2 0.3
v 1 1.8 0.3
v 0.8 1.8 0.3
v -0.8 1.8 0.3
v -1 1.8 0.3
v 1.1 1.9 0.3
v 0.9 1.9 0.3
v -0.9 1.9 0.3
v -1.1 1.9 0.3
v 0.8 2.1 0.3
v 0.4 2.1 0.3
v -0.4 2.1 0.3
v -0.8 2.1 0.3
v 0.9 2.2 0.3
v 0.5 2.2 0.3
v -0.5 2.2 0.3
v -0.9 2.2 0.3
v 0.4 2.3 0.3
v -0.4 2.3 0.3
v 0.5 2.4 0.3
v -0.5 2.4 0.3
v 1.1 1 -0.1
v 1 1 -0.1
v -1 1 -0.1
v -1.1 1 -0.1
v 1 1.8 -0.1
v 0.8 1.8 -0.1
v -0.8 1.8 -0.1
v -1 1.8 -0.1
v 1.1 1.9 -0.1
v 0.9 1.9 -0.1
v -0.9 1.9 -0.1
v -1.1 1.9 -0.1
v 0.8 2.1 -0.1
v 0.4 2.1 -0.1
v -0.4 2.1 -0.1
v -0.8 2.1 -0.1
v 0.9 2.2 -0.1
v 0.5 2.2 -0.1
v -0.5 2.2 -0.1
v -0.9 2.2 -0.1
v 0.4 2.3 -0.1
v -0.4 2.3 -0.1
v 0.5 2.4 -0.1
v -0.5 2.4 -0.1
v 0.2 0 -1.8
v -0.2 0 -1.8
v 0.2 0.2 -1.8
v -0.2 0.2 -1.8
v 0.2 0.2 -2
v -0.2 0.2 -2
v 0.2 0.8 -2
v -0.2 0.8 -2
v 0.2 1.2 2
v -0.2 1.2 2
v 0.2 1.8 2
v -0.2 1.8 2
v 0.2 1.8 1.8
v -0.2 1.8 1.8
v 0.2 2 1.8
v -0.2 2 1.8
v 1.1 1 0.0999999
v 1 1 0.0999999
v -1 1 0.0999999
v -1.1 1 0.0999999
v 1 1.8 0.0999999
v 0.8 1.8 0.0999999
v -0.8 1.8 0.0999999
v -1 1.8 0.0999999
v 1.1 1.9 0.0999999
v 0.9 1.9 0.0999999
v -0.9 1.9 0.0999999
v -1.1 1.9 0.0999999
v 0.8 2.1 0.0999999
v 0.4 2.1 0.0999999
v -0.4 2.1 0.0999999
v -0.8 2.1 0.0999999
v 0.9 2.2 0.0999999
v 0.5 2.2 0.0999999
v -0.5 2.2 0.0999999
v -0.9 2.2 0.0999999
v 0.4 2.3 0.0999999
v -0.4 2.3 0.0999999
v 0.5 2.4 0.0999999
v -0.5 2.4 0.0999999
v 1.1 1.2 -0.3
v 1 1.2 -0.3
v -1 1.2 -0.3
v -1.1 1.2 -0.3
v 1 1.8 -0.3
v 0.8 1.8 -0.3
v -0.8 1.8 -0.3
v -1 1.8 -0.3
v 1.1 1.9 -0.3
v 0.9 1.9 -0.3
v -0.9 1.9 -0.3
v -1.1 1.9 -0.3
v 0.8 2.1 -0.3
v 0.4 2.1 -0.3
v -0.4 2.1 -0.3
v -0.8 2.1 -0.3
v 0.9 2.2 -0.3
v 0.5 2.2 -0.3
v -0.5 2.2 -0.3
v -0.9 2.2 -0.3
v 0.4 2.3 -0.3
v -0.4 2.3 -0.3
v 0.5 2.4 -0.3
v -0.5 2.4 -0.3
v 0.4 2.1 -0.4
v 0.2 2.1 -0.4
v -0.2 2.1 -0.4
v -0.4 2.1 -0.4
v 0.4 2.3 -0.4
v 0.2 2.3 -0.4
v -0.2 2.3 -0.4
v -0.4 2.3 -0.4
v 0.2 2.1 -0.6
v -0.2 2.1 -0.6
v 0.2 2.3 -0.6
v -0.2 2.3 -0.6
v 0.8 1.8 -0.8
v 0.6 1.8 -0.8
v -0.6 1.8 -0.8
v -0.8 1.8 -0.8
v 0.8 2.1 -0.8
v 0.6 2.1 -0.8
v -0.6 2.1 -0.8
v -0.8 2.1 -0.8
v 1 0.8 -1
v 0.8 0.8 -1
v -0.8 0.8 -1
v -1 0.8 -1
v 1 1 -1
v 0.8 1 -1
v -0.8 1 -1
v -1 1 -1
v 1 1.2 -1
v 0.8 1.2 -1
v -0.8 1.2 -1
v -1 1.2 -1
v 1 1.8 -1
v 0.8 1.8 -1
v 0.6 1.8 -1
v -0.6 1.8 -1
v -0.8 1.8 -1
v -1 1.8 -1
v 0.6 2.1 -1
v -0.6 2.1 -1
v 1.1 1 -1.1
v 0.9 1 -1.1
v -0.9 1 -1.1
v -1.1 1 -1.1
v 1.1 1.2 -1.1
v 0.9 1.2 -1.1
v -0.9 1.2 -1.1
v -1.1 1.2 -1.1
v 1.2 0.4 -1.2
v 1 0.4 -1.2
v -1 0.4 -1.2
v -1.2 0.4 -1.2
v 1.2 0.8 -1.2
v 1 0.8 -1.2
v 0.8 0.8 -1.2
v 0.3 0.8 -1.2
v -0.3 0.8 -1.2
v -0.8 0.8 -1.2
v -1 0.8 -1.2
v -1.2 0.8 -1.2
v 0.8 1 -1.2
v 0.3 1 -1.2
v -0.3 1 -1.2
v -0.8 1 -1.2
v 0.8 1.2 -1.2
v 0.3 1.2 -1.2
v -0.3 1.2 -1.2
v -0.8 1.2 -1.2
v 0.3 1.4 -1.2
v -0.3 1.4 -1.2
v 0.8 1.8 -1.2
v -0.8 1.8 -1.2
v 0.9 1 -1.3
v 0.3 1 -1.3
v -0.3 1 -1.3
v -0.9 1 -1.3
v 0.9 1.2 -1.3
v 0.3 1.2 -1.3
v -0.3 1.2 -1.3
v -0.9 1.2 -1.3
v 1 0.4 -1.4
v -1 0.4 -1.4
v 1 0.8 -1.4
v 0.3 0.8 -1.4
v 0.2 0.8 -1.4
v -0.2 0.8 -1.4
v -0.3 0.8 -1.4
v -1 0.8 -1.4
v 0.2 1.2 -1.4
v -0.2 1.2 -1.4
v 0.3 1.4 -1.4
v -0.3 1.4 -1.4
v 0.2 0 -2.2
v -0.2 0 -2.2
v 0.2 0.1 -2.2
v -0.2 0.1 -2.2
v 0.2 1.1 -2.2
v -0.2 1.1 -2.2
v 0.2 1.2 -2.2
v -0.2 1.2 -2.2
v 0.2 0.1 -2.3
v -0.2 0.1 -2.3
v 0.2 1.1 -2.3
v -0.2 1.1 -2.3
v 1.2 0.4 1.2
v 1.2 0.8 1.2
v 1.2 0.4 -1.2
v 1.2 0.8 -1.2
v 1.1 1 1.1
v 1.1 1.2 1.1
v 1.1 1.2 0.3
v 1.1 1.9 0.3
v 1.1 1 0.0999999
v 1.1 1.9 0.0999999
v 1.1 1 -0.1
v 1.1 1.9 -0.1
v 1.1 1.2 -0.3
v 1.1 1.9 -0.3
v 1.1 1 -1.1
v 1.1 1.2 -1.1
v 1 0.4 1.4
v 1 0.8 1.4
v 1 0.4 1.2
v 1 0.8 1.2
v 1 0.8 1
v 1 1 1
v 1 1.2 1
v 1 1.8 1
v 1 1.2 0.3
v 1 1.8 0.3
v 1 1 0.0999999
v 1 1.8 0.0999999
v 1 1 -0.1
v 1 1.8 -0.1
v 1 1.2 -0.3
v 1 1.8 -0.3
v 1 0.8 -1
v 1 1 -1
v 1 1.2 -1
v 1 1.8 -1
v 1 0.4 -1.2
v 1 0.8 -1.2
v 1 0.4 -1.4
v 1 0.8 -1.4
v 0.9 1 1.3
v 0.9 1.2 1.3
v 0.9 1 1.1
v 0.9 1.2 1.1
v 0.9 1.9 0.3
v 0.9 2.2 0.3
v 0.9 1.9 0.0999999
v 0.9 2.2 0.0999999
v 0.9 1.9 -0.1
v 0.9 2.2 -0.1
v 0.9 1.9 -0.3
v 0.9 2.2 -0.3
v 0.9 1 -1.1
v 0.9 1.2 -1.1
v 0.9 1 -1.3
v 0.9 1.2 -1.3
v 0.8 0.8 1.2
v 0.8 1 1.2
v 0.8 1.2 1.2
v 0.8 1.8 1.2
v 0.8 0.8 1
v 0.8 1 1
v 0.8 1.2 1
v 0.8 1.8 1
v 0.8 1.8 0.8
v 0.8 2.1 0.8
v 0.8 1.8 0.3
v 0.8 2.1 0.3
v 0.8 1.8 0.0999999
v 0.8 2.1 0.0999999
v 0.8 1.8 -0.1
v 0.8 2.1 -0.1
v 0.8 1.8 -0.3
v 0.8 2.1 -0.3
v 0.8 1.8 -0.8
v 0.8 2.1 -0.8
v 0.8 0.8 -1
v 0.8 1 -1
v 0.8 1.2 -1
v 0.8 1.8 -1
v 0.8 0.8 -1.2
v 0.8 1 -1.2
v 0.8 1.2 -1.2
v 0.8 1.8 -1.2
v 0.6 1.8 1
v 0.6 2.1 1
v 0.6 1.8 0.8
v 0.6 2.1 0.8
v 0.6 1.8 -0.8
v 0.6 2.1 -0.8
v 0.6 1.8 -1
v 0.6 2.1 -1
v 0.5 2.2 0.3
v 0.5 2.4 0.3
v 0.5 2.2 0.0999999
v 0.5 2.4 0.0999999
v 0.5 2.2 -0.1
v 0.5 2.4 -0.1
v 0.5 2.2 -0.3
v 0.5 2.4 -0.3
v 0.4 2.1 0.4
v 0.4 2.3 0.4
v 0.4 2.1 0.3
v 0.4 2.3 0.3
v 0.4 2.1 0.0999999
v 0.4 2.3 0.0999999
v 0.4 2.1 -0.1
v 0.4 2.3 -0.1
v 0.4 2.1 -0.3
v 0.4 2.3 -0.3
v 0.4 2.1 -0.4
v 0.4 2.3 -0.4
v 0.3 0.8 1.4
v 0.3 1.4 1.4
v 0.3 1 1.3
v 0.3 1.2 1.3
v 0.3 0.8 1.2
v 0.3 1 1.2
v 0.3 1.2 1.2
v 0.3 1.4 1.2
v 0.3 0.8 -1.2
v 0.3 1 -1.2
v 0.3 1.2 -1.2
v 0.3 1.4 -1.2
v 0.3 1 -1.3
v 0.3 1.2 -1.3
v 0.3 0.8 -1.4
v 0.3 1.4 -1.4
v 0.2 0.9 2.3
v 0.2 1.9 2.3
v 0.2 0.8 2.2
v 0.2 0.9 2.2
v 0.2 1.9 2.2
v 0.2 2 2.2
v 0.2 1.2 2
v 0.2 1.8 2
v 0.2 1.8 1.8
v 0.2 2 1.8
v 0.2 0.8 1.4
v 0.2 1.2 1.4
v 0.2 2.1 0.6
v 0.2 2.3 0.6
v 0.2 2.1 0.4
v 0.2 2.3 0.4
v 0.2 2.1 -0.4
v 0.2 2.3 -0.4
v 0.2 2.1 -0.6
v 0.2 2.3 -0.6
v 0.2 0.8 -1.4
v 0.2 1.2 -1.4
v 0.2 0 -1.8
v 0.2 0.2 -1.8
v 0.2 0.2 -2
v 0.2 0.8 -2
v 0.2 0 -2.2
v 0.2 0.1 -2.2
v 0.2 1.1 -2.2
v 0.2 1.2 -2.2
v 0.2 0.1 -2.3
v 0.2 1.1 -2.3
v -0.2 0.9 2.3
v -0.2 1.9 2.3
v -0.2 0.8 2.2
v -0.2 0.9 2.2
v -0.2 1.9 2.2
v -0.2 2 2.2
v -0.2 1.2 2
v -0.2 1.8 2
v -0.2 1.8 1.8
v -0.2 2 1.8
v -0.2 0.8 1.4
v -0.2 1.2 1.4
v -0.2 2.1 0.6
v -0.2 2.3 0.6
v -0.2 2.1 0.4
v -0.2 2.3 0.4
v -0.2 2.1 -0.4
v -0.2 2.3 -0.4
v -0.2 2.1 -0.6
v -0.2 2.3 -0.6
v -0.2 0.8 -1.4
v -0.2 1.2 -1.4
v -0.2 0 -1.8
v -0.2 0.2 -1.8
v -0.2 0.2 -2
v -0.2 0.8 -2
v -0.2 0 -2.2
v -0.2 0.1 -2.2
v -0.2 1.1 -2.2
v -0.2 1.2 -2.2
v -0.2 0.1 -2.3
v -0.2 1.1 -2.3
v -0.3 0.8 1.4
v -0.3 1.4 1.4
v -0.3 1 1.3
v -0.3 1.2 1.3
v -0.3 0.8 1.2
v -0.3 1 1.2
v -0.3 1.2 1.2
v -0.3 1.4 1.2
v -0.3 0.8 -1.2
v -0.3 1 -1.2
v -0.3 1.2 -1.2
v -0.3 1.4 -1.2
v -0.3 1 -1.3
v -0.3 1.2 -1.3
v -0.3 0.8 -1.4
v -0.3 1.4 -1.4
v -0.4 2.1 0.4
v -0.4 2.3 0.4
v -0.4 2.1 0.3
v -0.4 2.3 0.3
v -0.4 2.1 0.0999999
v -0.4 2.3 0.0999999
v -0.4 2.1 -0.1
v -0.4 2.3 -0.1
v -0.4 2.1 -0.3
v -0.4 2.3 -0.3
v -0.4 2.1 -0.4
v -0.4 2.3 -0.4
v -0.5 2.2 0.3
v -0.5 2.4 0.3
v -0.5 2.2 0.0999999
v -0.5 2.4 0.0999999
v -0.5 2.2 -0.1
v -0.5 2.4 -0.1
v -0.5 2.2 -0.3
v -0.5 2.4 -0.3
v -0.6 1.8 1
v -0.6 2.1 1
v -0.6 1.8 0.8
v -0.6 2.1 0.8
v -0.6 1.8 -0.8
v -0.6 2.1 -0.8
v -0.6 1.8 -1
v -0.6 2.1 -1
v -0.8 0.8 1.2
v -0.8 1 1.2
v -0.8 1.2 1.2
v -0.8 1.8 1.2
v -0.8 0.8 1
v -0.8 1 1
v -0.8 1.2 1
v -0.8 1.8 1
v -0.8 1.8 0.8
v -0.8 2.1 0.8
v -0.8 1.8 0.3
v -0.8 2.1 0.3
v -0.8 1.8 0.0999999
v -0.8 2.1 0.0999999
v -0.8 1.8 -0.1
v -0.8 2.1 -0.1
v -0.8 1.8 -0.3
v -0.8 2.1 -0.3
v -0.8 1.8 -0.8
v -0.8 2.1 -0.8
v -0.8 0.8 -1
v -0.8 1 -1
v -0.8 1.2 -1
v -0.8 1.8 -1
v -0.8 0.8 -1.2
v -0.8 1 -1.2
v -0.8 1.2 -1.2
v -0.8 1.8 -1.2
v -0.9 1 1.3
v -0.9 1.2 1.3
v -0.9 1 1.1
v -0.9 1.2 1.1
v -0.9 1.9 0.3
v -0.9 2.2 0.3
v -0.9 1.9 0.0999999
v -0.9 2.2 0.0999999
v -0.9 1.9 -0.1
v -0.9 2.2 -0.1
v -0.9 1.9 -0.3
v -0.9 2.2 -0.3
v -0.9 1 -1.1
v -0.9 1.2 -1.1
v -0.9 1 -1.3
v -0.9 1.2 -1.3
v -1 0.4 1.4
v -1 0.8 1.4
v -1 0.4 1.2
v -1 0.8 1.2
v -1 0.8 1
v -1 1 1
v -1 1.2 1
v -1 1.8 1
v -1 1.2 0.3
v -1 1.8 0.3
v -1 1 0.0999999
v -1 1.8 0.0999999
v -1 1 -0.1
v -1 1.8 -0.1
v -1 1.2 -0.3
v -1 1.8 -0.3
v -1 0.8 -1
v -1 1 -1
v -1 1.2 -1
v -1 1.8 -1
v -1 0.4 -1.2
v -1 0.8 -1.2
v -1 0.4 -1.4
v -1 0.8 -1.4
v -1.1 1 1.1
v -1.1 1.2 1.1
v -1.1 1.2 0.3
v -1.1 1.9 0.3
v -1.1 1 0.0999999
v -1.1 1.9 0.0999999
v -1.1 1 -0.1
v -1.1 1.9 -0.1
v -1.1 1.2 -0.3
v -1.1 1.9 -0.3
v -1.1 1 -1.1
v -1.1 1.2 -1.1
v -1.2 0.4 1.2
v -1.2 0.8 1.2
v -1.2 0.4 -1.2
v -1.2 0.8 -1.2
v 0.2 0 -1.8
v 0.2 0 -2.2
v -0.2 0 -1.8
v -0.2 0 -2.2
v 0.2 0.1 -2.2
v 0.2 0.1 -2.3
v -0.2 0.1 -2.2
v -0.2 0.1 -2.3
v 1.2 0.4 1.2
v 1.2 0.4 -1.2
v 1 0.4 1.4
v 1 0.4 1.2
v 1 0.4 -1.2
v 1 0.4 -1.4
v -1 0.4 1.4
v -1 0.4 1.2
v -1 0.4 -1.2
v -1 0.4 -1.4
v -1.2 0.4 1.2
v -1.2 0.4 -1.2
v 0.2 0.8 2.2
v 0.2 0.8 1.4
v 0.2 0.8 -1.4
v 0.2 0.8 -2
v -0.2 0.8 2.2
v -0.2 0.8 1.4
v -0.2 0.8 -1.4
v -0.2 0.8 -2
v 0.2 0.9 2.3
v 0.2 0.9 2.2
v -0.2 0.9 2.3
v -0.2 0.9 2.2
v 1.1 1 1.1
v 1.1 1 0.0999999
v 1.1 1 -0.1
v 1.1 1 -1.1
v 1 1 1
v 1 1 0.0999999
v 1 1 -0.1
v 1 1 -1
v 0.9 1 1.3
v 0.9 1 1.1
v 0.9 1 -1.1
v 0.9 1 -1.3
v 0.8 1 1.2
v 0.8 1 1
v 0.8 1 -1
v 0.8 1 -1.2
v 0.3 1 1.3
v 0.3 1 1.2
v 0.3 1 -1.2
v 0.3 1 -1.3
v -0.3 1 1.3
v -0.3 1 1.2
v -0.3 1 -1.2
v -0.3 1 -1.3
v -0.8 1 1.2
v -0.8 1 1
v -0.8 1 -1
v -0.8 1 -1.2
v -0.9 1 1.3
v -0.9 1 1.1
v -0.9 1 -1.1
v -0.9 1 -1.3
v -1 1 1
v -1 1 0.0999999
v -1 1 -0.1
v -1 1 -1
v -1.1 1 1.1
v -1.1 1 0.0999999
v -1.1 1 -0.1
v -1.1 1 -1.1
v 0.2 1.8 2
v 0.2 1.8 1.8
v -0.2 1.8 2
v -0.2 1.8 1.8
v 0.2 0.2 -1.8
v 0.2 0.2 -2
v -0.2 0.2 -1.8
v -0.2 0.2 -2
v 1.2 0.8 1.2
v 1.2 0.8 -1.2
v 1 0.8 1.4
v 1 0.8 1.2
v 1 0.8 1
v 1 0.8 -1
v 1 0.8 -1.2
v 1 0.8 -1.4
v 0.8 0.8 1.2
v 0.8 0.8 1
v 0.8 0.8 -1
v 0.8 0.8 -1.2
v 0.3 0.8 1.4
v 0.3 0.8 1.2
v 0.3 0.8 -1.2
v 0.3 0.8 -1.4
v -0.3 0.8 1.4
v -0.3 0.8 1.2
v -0.3 0.8 -1.2
v -0.3 0.8 -1.4
v -0.8 0.8 1.2
v -0.8 0.8 1
v -0.8 0.8 -1
v -0.8 0.8 -1.2
v -1 0.8 1.4
v -1 0.8 1.2
v -1 0.8 1
v -1 0.8 -1
v -1 0.8 -1.2
v -1 0.8 -1.4
v -1.2 0.8 1.2
v -1.2 0.8 -1.2
v 0.2 1.1 -2.2
v 0.2 1.1 -2.3
v -0.2 1.1 -2.2
v -0.2 1.1 -2.3
v 1.1 1.2 1.1
v 1.1 1.2 0.3
v 1.1 1.2 -0.3
v 1.1 1.2 -1.1
v 1 1.2 1
v 1 1.2 0.3
v 1 1.2 -0.3
v 1 1.2 -1
v 0.9 1.2 1.3
v 0.9 1.2 1.1
v 0.9 1.2 -1.1
v 0.9 1.2 -1.3
v 0.8 1.2 1.2
v 0.8 1.2 1
v 0.8 1.2 -1
v 0.8 1.2 -1.2
v 0.3 1.2 1.3
v 0.3 1.2 1.2
v 0.3 1.2 -1.2
v 0.3 1.2 -1.3
v 0.2 1.2 2
v 0.2 1.2 1.4
v 0.2 1.2 -1.4
v 0.2 1.2 -2.2
v -0.2 1.2 2
v -0.2 1.2 1.4
v -0.2 1.2 -1.4
v -0.2 1.2 -2.2
v -0.3 1.2 1.3
v -0.3 1.2 1.2
v -0.3 1.2 -1.2
v -0.3 1.2 -1.3
v -0.8 1.2 1.2
v -0.8 1.2 1
v -0.8 1.2 -1
v -0.8 1.2 -1.2
v -0.9 1.2 1.3
v -0.9 1.2 1.1
v -0.9 1.2 -1.1
v -0.9 1.2 -1.3
v -1 1.2 1
v -1 1.2 0.3
v -1 1.2 -0.3
v -1 1.2 -1
v -1.1 1.2 1.1
v -1.1 1.2 0.3
v -1.1 1.2 -0.3
v -1.1 1.2 -1.1
v 0.3 1.4 1.4
v 0.3 1.4 1.2
v 0.3 1.4 -1.2
v 0.3 1.4 -1.4
v -0.3 1.4 1.4
v -0.3 1.4 1.2
v -0.3 1.4 -1.2
v -0.3 1.4 -1.4
v 1 1.8 1
v 1 1.8 0.3
v 1 1.8 0.0999999
v 1 1.8 -0.1
v 1 1.8 -0.3
v 1 1.8 -1
v 0.8 1.8 1.2
v 0.8 1.8 1
v 0.8 1.8 0.8
v 0.8 1.8 0.3
v 0.8 1.8 0.0999999
v 0.8 1.8 -0.1
v 0.8 1.8 -0.3
v 0.8 1.8 -0.8
v 0.8 1.8 -1
v 0.8 1.8 -1.2
v 0.6 1.8 1
v 0.6 1.8 0.8
v 0.6 1.8 -0.8
v 0.6 1.8 -1
v -0.6 1.8 1
v -0.6 1.8 0.8
v -0.6 1.8 -0.8
v -0.6 1.8 -1
v -0.8 1.8 1.2
v -0.8 1.8 1
v -0.8 1.8 0.8
v -0.8 1.8 0.3
v -0.8 1.8 0.0999999
v -0.8 1.8 -0.1
v -0.8 1.8 -0.3
v -0.8 1.8 -0.8
v -0.8 1.8 -1
v -0.8 1.8 -1.2
v -1 1.8 1
v -1 1.8 0.3
v -1 1.8 0.0999999
v -1 1.8 -0.1
v -1 1.8 -0.3
v -1 1.8 -1
v 1.1 1.9 0.3
v 1.1 1.9 0.0999999
v 1.1 1.9 -0.1
v 1.1 1.9 -0.3
v 0.9 1.9 0.3
v 0.9 1.9 0.0999999
v 0.9 1.9 -0.1
v 0.9 1.9 -0.3
v 0.2 1.9 2.3
v 0.2 1.9 2.2
v -0.2 1.9 2.3
v -0.2 1.9 2.2
v -0.9 1.9 0.3
v -0.9 1.9 0.0999999
v -0.9 1.9 -0.1
v -0.9 1.9 -0.3
v -1.1 1.9 0.3
v -1.1 1.9 0.0999999
v -1.1 1.9 -0.1
v -1.1 1.9 -0.3
v 0.2 2 2.2
v 0.2 2 1.8
v -0.2 2 2.2
v -0.2 2 1.8
v 0.8 2.1 0.8
v 0.8 2.1 0.3
v 0.8 2.1 0.0999999
v 0.8 2.1 -0.1
v 0.8 2.1 -0.3
v 0.8 2.1 -0.8
v 0.6 2.1 1
v 0.6 2.1 0.8
v 0.6 2.1 -0.8
v 0.6 2.1 -1
v 0.4 2.1 0.4
v 0.4 2.1 0.3
v 0.4 2.1 0.0999999
v 0.4 2.1 -0.1
v 0.4 2.1 -0.3
v 0.4 2.1 -0.4
v 0.2 2.1 0.6
v 0.2 2.1 0.4
v 0.2 2.1 -0.4
v 0.2 2.1 -0.6
v -0.2 2.1 0.6
v -0.2 2.1 0.4
v -0.2 2.1 -0.4
v -0.2 2.1 -0.6
v -0.4 2.1 0.4
v -0.4 2.1 0.3
v -0.4 2.1 0.0999999
v -0.4 2.1 -0.1
v -0.4 2.1 -0.3
v -0.4 2.1 -0.4
v -0.6 2.1 1
v -0.6 2.1 0.8
v -0.6 2.1 -0.8
v -0.6 2.1 -1
v -0.8 2.1 0.8
v -0.8 2.1 0.3
v -0.8 2.1 0.0999999
v -0.8 2.1 -0.1
v -0.8 2.1 -0.3
v -0.8 2.1 -0.8
v 0.9 2.2 0.3
v 0.9 2.2 0.0999999
v 0.9 2.2 -0.1
v 0.9 2.2 -0.3
v 0.5 2.2 0.3
v 0.5 2.2 0.0999999
v 0.5 2.2 -0.1
v 0.5 2.2 -0.3
v -0.5 2.2 0.3
v -0.5 2.2 0.0999999
v -0.5 2.2 -0.1
v -0.5 2.2 -0.3
v -0.9 2.2 0.3
v -0.9 2.2 0.0999999
v -0.9 2.2 -0.1
v -0.9 2.2 -0.3
v 0.4 2.3 0.4
v 0.4 2.3 0.3
v 0.4 2.3 0.0999999
v 0.4 2.3 -0.1
v 0.4 2.3 -0.3
v 0.4 2.3 -0.4
v 0.2 2.3 0.6
v 0.2 2.3 0.4
v 0.2 2.3 -0.4
v 0.2 2.3 -0.6
v -0.2 2.3 0.6
v -0.2 2.3 0.4
v -0.2 2.3 -0.4
v -0.2 2.3 -0.6
v -0.4 2.3 0.4
v -0.4 2.3 0.3
v -0.4 2.3 0.0999999
v -0.4 2.3 -0.1
v -0.4 2.3 -0.3
v -0.4 2.3 -0.4
v 0.5 2.4 0.3
v 0.5 2.4 0.0999999
v 0.5 2.4 -0.1
v 0.5 2.4 -0.3
v -0.5 2.4 0.3
v -0.5 2.4 0.0999999
v -0.5 2.4 -0.1
v -0.5 2.4 -0.3

# faces
f 3/3/1 2/3/1 1/3/1
f 4/3/1 2/3/1 3/3/1
f 7/3/1 6/3/1 5/3/1
f 8/3/1 6/3/1 7/3/1
f 11/3/1 10/3/1 9/3/1
f 12/3/1 10/3/1 11/3/1
f 15/1/1 14/1/1 13/1/1
f 16/1/1 14/1/1 15/1/1
f 17/1/1 14/1/1 16/1/1
f 18/1/1 14/1/1 17/1/1
f 19/1/1 14/1/1 18/1/1
f 20/1/1 14/1/1 19/1/1
f 21/1/1 17/1/1 16/1/1
f 22/1/1 19/1/1 18/1/1
f 23/1/1 21/1/1 16/1/1
f 23/1/1 22/1/1 21/1/1
f 24/1/1 19/1/1 22/1/1
f 24/1/1 22/1/1 23/1/1
f 29/1/1 26/1/1 25/1/1
f 30/1/1 26/1/1 29/1/1
f 31/1/1 28/1/1 27/1/1
f 32/1/1 28/1/1 31/1/1
f 37/1/1 34/1/1 33/1/1
f 38/1/1 34/1/1 37/1/1
f 43/1/1 36/1/1 35/1/1
f 44/1/1 36/1/1 43/1/1
f 45/2/1 40/2/1 39/2/1
f 46/2/1 40/2/1 45/2/1
f 47/2/1 42/2/1 41/2/1
f 48/2/1 42/2/1 47/2/1
f 53/2/1 50/2/1 49/2/1
f 54/2/1 52/2/1 51/2/1
f 55/2/1 53/2/1 49/2/1
f 55/2/1 54/2/1 53/2/1
f 56/2/1 52/2/1 54/2/1
f 56/2/1 54/2/1 55/2/1
f 61/1/1 58/1/1 57/1/1
f 62/1/1 58/1/1 61/1/1
f 63/1/1 60/1/1 59/1/1
f 64/1/1 60/1/1 63/1/1
f 69/2/1 66/2/1 65/2/1
f 70/2/1 66/2/1 69/2/1
f 71/2/1 68/2/1 67/2/1
f 72/2/1 68/2/1 71/2/1
f 77/2/1 74/2/1 73/2/1
f 78/2/1 74/2/1 77/2/1
f 81/2/1 76/2/1 75/2/1
f 82/2/1 76/2/1 81/2/1
f 83/2/1 80/2/1 79/2/1
f 84/2/1 80/2/1 83/2/1
f 89/2/1 86/2/1 85/2/1
f 90/2/1 86/2/1 89/2/1
f 91/2/1 88/2/1 87/2/1
f 92/2/1 88/2/1 91/2/1
f 95/2/1 94/2/1 93/2/1
f 96/2/1 94/2/1 95/2/1
f 101/2/1 98/2/1 97/2/1
f 102/2/1 98/2/1 101/2/1
f 103/2/1 100/2/1 99/2/1
f 104/2/1 100/2/1 103/2/1
f 109/1/1 106/1/1 105/1/1
f 112/1/1 108/1/1 107/1/1
f 113/1/1 110/1/1 109/1/1
f 113/1/1 109/1/1 105/1/1
f 114/1/1 110/1/1 113/1/1
f 115/1/1 112/1/1 111/1/1
f 116/1/1 108/1/1 112/1/1
f 116/1/1 112/1/1 115/1/1
f 117/1/1 110/1/1 114/1/1
f 120/1/1 115/1/1 111/1/1
f 121/1/1 118/1/1 117/1/1
f 121/1/1 117/1/1 114/1/1
f 122/1/1 118/1/1 121/1/1
f 123/1/1 120/1/1 119/1/1
f 124/1/1 115/1/1 120/1/1
f 124/1/1 120/1/1 123/1/1
f 125/1/1 118/1/1 122/1/1
f 126/1/1 123/1/1 119/1/1
f 127/1/1 125/1/1 122/1/1
f 127/1/1 126/1/1 125/1/1
f 128/1/1 123/1/1 126/1/1
f 128/1/1 126/1/1 127/1/1
f 133/1/1 130/1/1 129/1/1
f 136/1/1 132/1/1 131/1/1
f 137/1/1 134/1/1 133/1/1
f 137/1/1 133/1/1 129/1/1
f 138/1/1 134/1/1 137/1/1
f 139/1/1 136/1/1 135/1/1
f 140/1/1 132/1/1 136/1/1
f 140/1/1 136/1/1 139/1/1
f 141/1/1 134/1/1 138/1/1
f 144/1/1 139/1/1 135/1/1
f 145/1/1 142/1/1 141/1/1
f 145/1/1 141/1/1 138/1/1
f 146/1/1 142/1/1 145/1/1
f 147/1/1 144/1/1 143/1/1
f 148/1/1 139/1/1 144/1/1
f 148/1/1 144/1/1 147/1/1
f 149/1/1 142/1/1 146/1/1
f 150/1/1 147/1/1 143/1/1
f 151/1/1 149/1/1 146/1/1
f 151/1/1 150/1/1 149/1/1
f 152/1/1 147/1/1 150/1/1
f 152/1/1 150/1/1 151/1/1
f 155/3/1 154/3/1 153/3/1
f 156/3/1 154/3/1 155/3/1
f 159/3/1 158/3/1 157/3/1
f 160/3/1 158/3/1 159/3/1
f 161/3/2 162/3/2 163/3/2
f 163/3/2 162/3/2 164/3/2
f 165/3/2 166/3/2 167/3/2
f 167/3/2 166/3/2 168/3/2
f 169/1/2 170/1/2 173/1/2
f 171/1/2 172/1/2 176/1/2
f 173/1/2 174/1/2 177/1/2
f 169/1/2 173/1/2 177/1/2
f 177/1/2 174/1/2 178/1/2
f 175/1/2 176/1/2 179/1/2
f 176/1/2 172/1/2 180/1/2
f 179/1/2 176/1/2 180/1/2
f 178/1/2 174/1/2 181/1/2
f 175/1/2 179/1/2 184/1/2
f 181/1/2 182/1/2 185/1/2
f 178/1/2 181/1/2 185/1/2
f 185/1/2 182/1/2 186/1/2
f 183/1/2 184/1/2 187/1/2
f 184/1/2 179/1/2 188/1/2
f 187/1/2 184/1/2 188/1/2
f 186/1/2 182/1/2 189/1/2
f 183/1/2 187/1/2 190/1/2
f 186/1/2 189/1/2 191/1/2
f 189/1/2 190/1/2 191/1/2
f 190/1/2 187/1/2 192/1/2
f 191/1/2 190/1/2 192/1/2
f 193/1/2 194/1/2 197/1/2
f 195/1/2 196/1/2 200/1/2
f 197/1/2 198/1/2 201/1/2
f 193/1/2 197/1/2 201/1/2
f 201/1/2 198/1/2 202/1/2
f 199/1/2 200/1/2 203/1/2
f 200/1/2 196/1/2 204/1/2
f 203/1/2 200/1/2 204/1/2
f 202/1/2 198/1/2 205/1/2
f 199/1/2 203/1/2 208/1/2
f 205/1/2 206/1/2 209/1/2
f 202/1/2 205/1/2 209/1/2
f 209/1/2 206/1/2 210/1/2
f 207/1/2 208/1/2 211/1/2
f 208/1/2 203/1/2 212/1/2
f 211/1/2 208/1/2 212/1/2
f 210/1/2 206/1/2 213/1/2
f 207/1/2 211/1/2 214/1/2
f 210/1/2 213/1/2 215/1/2
f 213/1/2 214/1/2 215/1/2
f 214/1/2 211/1/2 216/1/2
f 215/1/2 214/1/2 216/1/2
f 217/2/2 218/2/2 221/2/2
f 221/2/2 218/2/2 222/2/2
f 219/2/2 220/2/2 223/2/2
f 223/2/2 220/2/2 224/2/2
f 225/2/2 226/2/2 227/2/2
f 227/2/2 226/2/2 228/2/2
f 229/2/2 230/2/2 233/2/2
f 233/2/2 230/2/2 234/2/2
f 231/2/2 232/2/2 235/2/2
f 235/2/2 232/2/2 236/2/2
f 237/2/2 238/2/2 241/2/2
f 241/2/2 238/2/2 242/2/2
f 239/2/2 240/2/2 243/2/2
f 243/2/2 240/2/2 244/2/2
f 245/2/2 246/2/2 249/2/2
f 249/2/2 246/2/2 250/2/2
f 247/2/2 248/2/2 253/2/2
f 253/2/2 248/2/2 254/2/2
f 251/2/2 252/2/2 255/2/2
f 255/2/2 252/2/2 256/2/2
f 257/1/2 258/1/2 261/1/2
f 261/1/2 258/1/2 262/1/2
f 259/1/2 260/1/2 263/1/2
f 263/1/2 260/1/2 264/1/2
f 265/1/2 266/1/2 269/1/2
f 269/1/2 266/1/2 270/1/2
f 267/1/2 268/1/2 275/1/2
f 275/1/2 268/1/2 276/1/2
f 271/2/2 272/2/2 277/2/2
f 277/2/2 272/2/2 278/2/2
f 273/2/2 274/2/2 279/2/2
f 279/2/2 274/2/2 280/2/2
f 281/2/2 282/2/2 285/2/2
f 283/2/2 284/2/2 286/2/2
f 281/2/2 285/2/2 287/2/2
f 285/2/2 286/2/2 287/2/2
f 286/2/2 284/2/2 288/2/2
f 287/2/2 286/2/2 288/2/2
f 289/1/2 290/1/2 293/1/2
f 293/1/2 290/1/2 294/1/2
f 291/1/2 292/1/2 295/1/2
f 295/1/2 292/1/2 296/1/2
f 297/1/2 298/1/2 299/1/2
f 299/1/2 298/1/2 300/1/2
f 300/1/2 298/1/2 301/1/2
f 301/1/2 298/1/2 302/1/2
f 302/1/2 298/1/2 303/1/2
f 303/1/2 298/1/2 304/1/2
f 300/1/2 301/1/2 305/1/2
f 302/1/2 303/1/2 306/1/2
f 300/1/2 305/1/2 307/1/2
f 305/1/2 306/1/2 307/1/2
f 306/1/2 303/1/2 308/1/2
f 307/1/2 306/1/2 308/1/2
f 309/3/2 310/3/2 311/3/2
f 311/3/2 310/3/2 312/3/2
f 313/3/2 314/3/2 315/3/2
f 315/3/2 314/3/2 316/3/2
f 317/3/2 318/3/2 319/3/2
f 319/3/2 318/3/2 320/3/2
f 323/1/3 322/1/3 321/1/3
f 324/1/3 322/1/3 323/1/3
f 327/1/3 326/1/3 325/1/3
f 329/1/3 327/1/3 325/1/3
f 329/1/3 328/1/3 327/1/3
f 330/1/3 328/1/3 329/1/3
f 333/1/3 332/1/3 331/1/3
f 334/1/3 332/1/3 333/1/3
f 335/1/3 333/1/3 331/1/3
f 336/1/3 333/1/3 335/1/3
f 339/1/3 338/1/3 337/1/3
f 340/1/3 338/1/3 339/1/3
f 345/2/3 344/2/3 343/2/3
f 346/2/3 344/2/3 345/2/3
f 347/2/3 342/2/3 341/2/3
f 349/2/3 347/2/3 341/2/3
f 349/2/3 348/2/3 347/2/3
f 350/2/3 348/2/3 349/2/3
f 353/2/3 349/2/3 341/2/3
f 354/2/3 349/2/3 353/2/3
f 355/2/3 352/2/3 351/2/3
f 356/2/3 352/2/3 355/2/3
f 359/1/3 358/1/3 357/1/3
f 360/1/3 358/1/3 359/1/3
f 363/1/3 362/1/3 361/1/3
f 364/1/3 362/1/3 363/1/3
f 367/1/3 366/1/3 365/1/3
f 368/1/3 366/1/3 367/1/3
f 371/1/3 370/1/3 369/1/3
f 372/1/3 370/1/3 371/1/3
f 375/1/3 374/1/3 373/1/3
f 376/1/3 374/1/3 375/1/3
f 381/2/3 378/2/3 377/2/3
f 382/2/3 378/2/3 381/2/3
f 383/2/3 380/2/3 379/2/3
f 384/2/3 380/2/3 383/2/3
f 387/2/3 386/2/3 385/2/3
f 388/2/3 386/2/3 387/2/3
f 391/2/3 390/2/3 389/2/3
f 392/2/3 390/2/3 391/2/3
f 395/2/3 394/2/3 393/2/3
f 396/2/3 394/2/3 395/2/3
f 401/2/3 398/2/3 397/2/3
f 402/2/3 398/2/3 401/2/3
f 403/2/3 400/2/3 399/2/3
f 404/2/3 400/2/3 403/2/3
f 407/2/3 406/2/3 405/2/3
f 408/2/3 406/2/3 407/2/3
f 411/2/3 410/2/3 409/2/3
f 412/2/3 410/2/3 411/2/3
f 415/1/3 414/1/3 413/1/3
f 416/1/3 414/1/3 415/1/3
f 419/1/3 418/1/3 417/1/3
f 420/1/3 418/1/3 419/1/3
f 423/2/3 422/2/3 421/2/3
f 424/2/3 422/2/3 423/2/3
f 427/2/3 426/2/3 425/2/3
f 428/2/3 426/2/3 427/2/3
f 431/2/3 430/2/3 429/2/3
f 432/2/3 430/2/3 431/2/3
f 435/1/3 434/1/3 433/1/3
f 436/1/3 434/1/3 435/1/3
f 437/1/3 435/1/3 433/1/3
f 438/1/3 435/1/3 437/1/3
f 439/1/3 434/1/3 436/1/3
f 440/1/3 434/1/3 439/1/3
f 445/1/3 442/1/3 441/1/3
f 446/1/3 444/1/3 443/1/3
f 447/1/3 445/1/3 441/1/3
f 447/1/3 446/1/3 445/1/3
f 448/1/3 444/1/3 446/1/3
f 448/1/3 446/1/3 447/1/3
f 452/3/3 450/3/3 449/3/3
f 453/3/3 450/3/3 452/3/3
f 455/3/3 452/3/3 451/3/3
f 455/3/3 454/3/3 453/3/3
f 455/3/3 453/3/3 452/3/3
f 456/3/3 454/3/3 455/3/3
f 457/3/3 454/3/3 456/3/3
f 458/3/3 454/3/3 457/3/3
f 459/3/3 455/3/3 451/3/3
f 460/3/3 455/3/3 459/3/3
f 463/2/3 462/2/3 461/2/3
f 464/2/3 462/2/3 463/2/3
f 467/2/3 466/2/3 465/2/3
f 468/2/3 466/2/3 467/2/3
f 473/3/3 472/3/3 471/3/3
f 474/3/3 470/3/3 469/3/3
f 475/3/3 473/3/3 471/3/3
f 475/3/3 474/3/3 473/3/3
f 476/3/3 474/3/3 475/3/3
f 477/3/3 470/3/3 474/3/3
f 477/3/3 474/3/3 476/3/3
f 478/3/3 470/3/3 477/3/3
f 479/3/3 477/3/3 476/3/3
f 480/3/3 477/3/3 479/3/3
f 481/3/4 482/3/4 484/3/4
f 484/3/4 482/3/4 485/3/4
f 483/3/4 484/3/4 487/3/4
f 485/3/4 486/3/4 487/3/4
f 484/3/4 485/3/4 487/3/4
f 487/3/4 486/3/4 488/3/4
f 488/3/4 486/3/4 489/3/4
f 489/3/4 486/3/4 490/3/4
f 483/3/4 487/3/4 491/3/4
f 491/3/4 487/3/4 492/3/4
f 493/2/4 494/2/4 495/2/4
f 495/2/4 494/2/4 496/2/4
f 497/2/4 498/2/4 499/2/4
f 499/2/4 498/2/4 500/2/4
f 503/3/4 504/3/4 505/3/4
f 501/3/4 502/3/4 506/3/4
f 503/3/4 505/3/4 507/3/4
f 505/3/4 506/3/4 507/3/4
f 507/3/4 506/3/4 508/3/4
f 506/3/4 502/3/4 509/3/4
f 508/3/4 506/3/4 509/3/4
f 509/3/4 502/3/4 510/3/4
f 508/3/4 509/3/4 511/3/4
f 511/3/4 509/3/4 512/3/4
f 513/1/4 514/1/4 515/1/4
f 515/1/4 514/1/4 516/1/4
f 513/1/4 515/1/4 517/1/4
f 517/1/4 515/1/4 518/1/4
f 516/1/4 514/1/4 519/1/4
f 519/1/4 514/1/4 520/1/4
f 521/1/4 522/1/4 525/1/4
f 523/1/4 524/1/4 526/1/4
f 521/1/4 525/1/4 527/1/4
f 525/1/4 526/1/4 527/1/4
f 526/1/4 524/1/4 528/1/4
f 527/1/4 526/1/4 528/1/4
f 529/2/4 530/2/4 531/2/4
f 531/2/4 530/2/4 532/2/4
f 533/2/4 534/2/4 535/2/4
f 535/2/4 534/2/4 536/2/4
f 537/2/4 538/2/4 539/2/4
f 539/2/4 538/2/4 540/2/4
f 541/1/4 542/1/4 543/1/4
f 543/1/4 542/1/4 544/1/4
f 545/1/4 546/1/4 547/1/4
f 547/1/4 546/1/4 548/1/4
f 549/2/4 550/2/4 551/2/4
f 551/2/4 550/2/4 552/2/4
f 553/2/4 554/2/4 555/2/4
f 555/2/4 554/2/4 556/2/4
f 557/2/4 558/2/4 561/2/4
f 561/2/4 558/2/4 562/2/4
f 559/2/4 560/2/4 563/2/4
f 563/2/4 560/2/4 564/2/4
f 565/2/4 566/2/4 567/2/4
f 567/2/4 566/2/4 568/2/4
f 569/2/4 570/2/4 571/2/4
f 571/2/4 570/2/4 572/2/4
f 573/2/4 574/2/4 575/2/4
f 575/2/4 574/2/4 576/2/4
f 577/2/4 578/2/4 581/2/4
f 581/2/4 578/2/4 582/2/4
f 579/2/4 580/2/4 583/2/4
f 583/2/4 580/2/4 584/2/4
f 585/1/4 586/1/4 587/1/4
f 587/1/4 586/1/4 588/1/4
f 589/1/4 590/1/4 591/1/4
f 591/1/4 590/1/4 592/1/4
f 593/1/4 594/1/4 595/1/4
f 595/1/4 594/1/4 596/1/4
f 597/1/4 598/1/4 599/1/4
f 599/1/4 598/1/4 600/1/4
f 601/1/4 602/1/4 603/1/4
f 603/1/4 602/1/4 604/1/4
f 607/2/4 608/2/4 609/2/4
f 609/2/4 608/2/4 610/2/4
f 605/2/4 606/2/4 611/2/4
f 605/2/4 611/2/4 613/2/4
f 611/2/4 612/2/4 613/2/4
f 613/2/4 612/2/4 614/2/4
f 605/2/4 613/2/4 617/2/4
f 617/2/4 613/2/4 618/2/4
f 615/2/4 616/2/4 619/2/4
f 619/2/4 616/2/4 620/2/4
f 621/1/4 622/1/4 623/1/4
f 623/1/4 622/1/4 624/1/4
f 625/1/4 626/1/4 627/1/4
f 625/1/4 627/1/4 629/1/4
f 627/1/4 628/1/4 629/1/4
f 629/1/4 628/1/4 630/1/4
f 631/1/4 632/1/4 633/1/4
f 633/1/4 632/1/4 634/1/4
f 631/1/4 633/1/4 635/1/4
f 635/1/4 633/1/4 636/1/4
f 637/1/4 638/1/4 639/1/4
f 639/1/4 638/1/4 640/1/4
f 643/3/5 642/3/5 641/3/5
f 644/3/5 642/3/5 643/3/5
f 647/3/5 646/3/5 645/3/5
f 648/3/5 646/3/5 647/3/5
f 652/1/5 650/1/5 649/1/5
f 653/1/5 650/1/5 652/1/5
f 655/1/5 652/1/5 651/1/5
f 655/1/5 654/1/5 653/1/5
f 655/1/5 653/1/5 652/1/5
f 656/1/5 654/1/5 655/1/5
f 657/1/5 654/1/5 656/1/5
f 658/1/5 654/1/5 657/1/5
f 659/1/5 657/1/5 656/1/5
f 660/1/5 657/1/5 659/1/5
f 665/3/5 662/3/5 661/3/5
f 666/3/5 662/3/5 665/3/5
f 667/3/5 664/3/5 663/3/5
f 668/3/5 664/3/5 667/3/5
f 671/3/5 670/3/5 669/3/5
f 672/3/5 670/3/5 671/3/5
f 677/1/5 674/1/5 673/1/5
f 678/1/5 674/1/5 677/1/5
f 679/1/5 676/1/5 675/1/5
f 680/1/5 676/1/5 679/1/5
f 682/1/5 677/1/5 673/1/5
f 683/1/5 676/1/5 680/1/5
f 685/1/5 682/1/5 681/1/5
f 686/1/5 677/1/5 682/1/5
f 686/1/5 682/1/5 685/1/5
f 687/1/5 684/1/5 683/1/5
f 687/1/5 683/1/5 680/1/5
f 688/1/5 684/1/5 687/1/5
f 689/1/5 685/1/5 681/1/5
f 690/1/5 685/1/5 689/1/5
f 691/1/5 684/1/5 688/1/5
f 692/1/5 684/1/5 691/1/5
f 697/1/5 694/1/5 693/1/5
f 700/1/5 696/1/5 695/1/5
f 701/1/5 698/1/5 697/1/5
f 701/1/5 697/1/5 693/1/5
f 702/1/5 698/1/5 701/1/5
f 703/1/5 700/1/5 699/1/5
f 704/1/5 696/1/5 700/1/5
f 704/1/5 700/1/5 703/1/5
f 705/1/5 698/1/5 702/1/5
f 708/1/5 703/1/5 699/1/5
f 709/1/5 706/1/5 705/1/5
f 709/1/5 705/1/5 702/1/5
f 710/1/5 706/1/5 709/1/5
f 711/1/5 708/1/5 707/1/5
f 712/1/5 703/1/5 708/1/5
f 712/1/5 708/1/5 711/1/5
f 715/3/5 714/3/5 713/3/5
f 716/3/5 714/3/5 715/3/5
f 717/3/6 718/3/6 719/3/6
f 719/3/6 718/3/6 720/3/6
f 721/1/6 722/1/6 724/1/6
f 724/1/6 722/1/6 725/1/6
f 725/1/6 722/1/6 726/1/6
f 726/1/6 722/1/6 727/1/6
f 723/1/6 724/1/6 729/1/6
f 724/1/6 725/1/6 729/1/6
f 729/1/6 725/1/6 730/1/6
f 727/1/6 728/1/6 731/1/6
f 726/1/6 727/1/6 731/1/6
f 731/1/6 728/1/6 732/1/6
f 723/1/6 729/1/6 733/1/6
f 733/1/6 729/1/6 734/1/6
f 732/1/6 728/1/6 735/1/6
f 735/1/6 728/1/6 736/1/6
f 737/1/6 738/1/6 741/1/6
f 739/1/6 740/1/6 744/1/6
f 741/1/6 742/1/6 745/1/6
f 737/1/6 741/1/6 745/1/6
f 745/1/6 742/1/6 746/1/6
f 746/1/6 742/1/6 747/1/6
f 743/1/6 744/1/6 748/1/6
f 744/1/6 740/1/6 749/1/6
f 748/1/6 744/1/6 749/1/6
f 749/1/6 740/1/6 750/1/6
f 746/1/6 747/1/6 751/1/6
f 747/1/6 748/1/6 751/1/6
f 748/1/6 749/1/6 751/1/6
f 751/1/6 749/1/6 752/1/6
f 753/3/6 754/3/6 755/3/6
f 755/3/6 754/3/6 756/3/6
f 757/1/6 758/1/6 761/1/6
f 761/1/6 758/1/6 762/1/6
f 759/1/6 760/1/6 763/1/6
f 763/1/6 760/1/6 764/1/6
f 757/1/6 761/1/6 766/1/6
f 764/1/6 760/1/6 767/1/6
f 765/1/6 766/1/6 769/1/6
f 766/1/6 761/1/6 770/1/6
f 769/1/6 766/1/6 770/1/6
f 767/1/6 768/1/6 771/1/6
f 764/1/6 767/1/6 771/1/6
f 771/1/6 768/1/6 772/1/6
f 765/1/6 769/1/6 773/1/6
f 773/1/6 769/1/6 774/1/6
f 772/1/6 768/1/6 775/1/6
f 775/1/6 768/1/6 776/1/6
f 777/3/6 778/3/6 781/3/6
f 781/3/6 778/3/6 782/3/6
f 779/3/6 780/3/6 783/3/6
f 783/3/6 780/3/6 784/3/6
f 785/1/6 786/1/6 789/1/6
f 787/1/6 788/1/6 792/1/6
f 789/1/6 790/1/6 793/1/6
f 785/1/6 789/1/6 793/1/6
f 793/1/6 790/1/6 794/1/6
f 791/1/6 792/1/6 795/1/6
f 792/1/6 788/1/6 796/1/6
f 795/1/6 792/1/6 796/1/6
f 794/1/6 790/1/6 797/1/6
f 791/1/6 795/1/6 800/1/6
f 797/1/6 798/1/6 801/1/6
f 794/1/6 797/1/6 801/1/6
f 801/1/6 798/1/6 802/1/6
f 799/1/6 800/1/6 803/1/6
f 800/1/6 795/1/6 804/1/6
f 803/1/6 800/1/6 804/1/6
f 805/1/6 806/1/6 809/1/6
f 809/1/6 806/1/6 810/1/6
f 807/1/6 808/1/6 811/1/6
f 811/1/6 808/1/6 812/1/6
f 813/2/6 814/2/6 820/2/6
f 820/2/6 814/2/6 821/2/6
f 821/2/6 814/2/6 822/2/6
f 815/2/6 816/2/6 823/2/6
f 823/2/6 816/2/6 824/2/6
f 817/2/6 818/2/6 825/2/6
f 825/2/6 818/2/6 826/2/6
f 826/2/6 818/2/6 827/2/6
f 819/2/6 820/2/6 829/2/6
f 820/2/6 821/2/6 829/2/6
f 829/2/6 821/2/6 830/2/6
f 827/2/6 828/2/6 831/2/6
f 826/2/6 827/2/6 831/2/6
f 831/2/6 828/2/6 832/2/6
f 819/2/6 829/2/6 833/2/6
f 832/2/6 828/2/6 836/2/6
f 833/2/6 834/2/6 837/2/6
f 819/2/6 833/2/6 837/2/6
f 837/2/6 834/2/6 838/2/6
f 838/2/6 834/2/6 839/2/6
f 835/2/6 836/2/6 844/2/6
f 836/2/6 828/2/6 845/2/6
f 844/2/6 836/2/6 845/2/6
f 845/2/6 828/2/6 846/2/6
f 838/2/6 839/2/6 847/2/6
f 839/2/6 840/2/6 847/2/6
f 847/2/6 840/2/6 848/2/6
f 841/2/6 842/2/6 849/2/6
f 849/2/6 842/2/6 850/2/6
f 843/2/6 844/2/6 851/2/6
f 844/2/6 845/2/6 851/2/6
f 851/2/6 845/2/6 852/2/6
f 853/1/6 854/1/6 857/1/6
f 857/1/6 854/1/6 858/1/6
f 855/1/6 856/1/6 859/1/6
f 859/1/6 856/1/6 860/1/6
f 861/3/6 862/3/6 863/3/6
f 863/3/6 862/3/6 864/3/6
f 865/1/6 866/1/6 869/1/6
f 869/1/6 866/1/6 870/1/6
f 867/1/6 868/1/6 871/1/6
f 871/1/6 868/1/6 872/1/6
f 873/3/6 874/3/6 875/3/6
f 875/3/6 874/3/6 876/3/6
f 877/2/6 878/2/6 884/2/6
f 881/2/6 882/2/6 885/2/6
f 883/2/6 884/2/6 887/2/6
f 884/2/6 878/2/6 887/2/6
f 887/2/6 878/2/6 888/2/6
f 879/2/6 880/2/6 889/2/6
f 889/2/6 880/2/6 890/2/6
f 885/2/6 886/2/6 891/2/6
f 881/2/6 885/2/6 891/2/6
f 891/2/6 886/2/6 892/2/6
f 883/2/6 887/2/6 893/2/6
f 893/2/6 887/2/6 894/2/6
f 892/2/6 886/2/6 895/2/6
f 895/2/6 886/2/6 896/2/6
f 883/2/6 893/2/6 897/2/6
f 896/2/6 886/2/6 900/2/6
f 897/2/6 898/2/6 901/2/6
f 899/2/6 900/2/6 906/2/6
f 883/2/6 897/2/6 907/2/6
f 897/2/6 901/2/6 907/2/6
f 901/2/6 902/2/6 907/2/6
f 907/2/6 902/2/6 908/2/6
f 905/2/6 906/2/6 909/2/6
f 900/2/6 886/2/6 909/2/6
f 906/2/6 900/2/6 909/2/6
f 909/2/6 886/2/6 910/2/6
f 908/2/6 902/2/6 911/2/6
f 911/2/6 902/2/6 912/2/6
f 903/2/6 904/2/6 913/2/6
f 913/2/6 904/2/6 914/2/6
f 905/2/6 909/2/6 915/2/6
f 915/2/6 909/2/6 916/2/6
f 917/1/6 918/1/6 921/1/6
f 921/1/6 918/1/6 922/1/6
f 919/1/6 920/1/6 923/1/6
f 923/1/6 920/1/6 924/1/6
f 925/1/6 926/1/6 929/1/6
f 929/1/6 926/1/6 930/1/6
f 927/1/6 928/1/6 931/1/6
f 931/1/6 928/1/6 932/1/6
f 933/2/6 934/2/6 940/2/6
f 937/2/6 938/2/6 941/2/6
f 939/2/6 940/2/6 943/2/6
f 940/2/6 934/2/6 944/2/6
f 943/2/6 940/2/6 944/2/6
f 941/2/6 942/2/6 945/2/6
f 937/2/6 941/2/6 945/2/6
f 945/2/6 942/2/6 946/2/6
f 944/2/6 934/2/6 947/2/6
f 947/2/6 934/2/6 948/2/6
f 935/2/6 936/2/6 949/2/6
f 949/2/6 936/2/6 950/2/6
f 937/2/6 945/2/6 951/2/6
f 951/2/6 945/2/6 952/2/6
f 953/1/6 954/1/6 957/1/6
f 957/1/6 954/1/6 958/1/6
f 955/1/6 956/1/6 959/1/6
f 959/1/6 956/1/6 960/1/6
