# MagicaVoxel @ Ephtracy

# group
o 

# material
mtllib model.mtl
usemtl palette

# normals
vn 0 0 1
vn 0 0 -1
vn 1 0 0
vn -1 0 0
vn 0 -1 0
vn 0 1 0

# texcoords
vt 0.193359 0.5
vt 0.490234 0.5
vt 0.517578 0.5
vt 0.572266 0.5

# verts
v 0.2 0 2
v -0.2 0 2
v 0.2 0.6 2
v -0.2 0.6 2
v 0.4 0 1.6
v 0.2 0 1.6
v -0.2 0 1.6
v -0.4 0 1.6
v 0.4 0.2 1.6
v 0.2 0.2 1.6
v -0.2 0.2 1.6
v -0.4 0.2 1.6
v 0.4 0.4 1.6
v 0.2 0.4 1.6
v -0.2 0.4 1.6
v -0.4 0.4 1.6
v 1 0 1.4
v 0.4 0 1.4
v -0.4 0 1.4
v -1 0 1.4
v 0.8 0.2 1.4
v 0.4 0.2 1.4
v -0.4 0.2 1.4
v -0.8 0.2 1.4
v 0.8 0.4 1.4
v 0.4 0.4 1.4
v -0.4 0.4 1.4
v -0.8 0.4 1.4
v 1 1.4 1.4
v 0.8 1.4 1.4
v -0.8 1.4 1.4
v -1 1.4 1.4
v 1.1 0 1.2
v 1 0 1.2
v -1 0 1.2
v -1.1 0 1.2
v 1.1 0.2 1.2
v 1 0.2 1.2
v -1 0.2 1.2
v -1.1 0.2 1.2
v 0.8 0.4 1.2
v -0.8 0.4 1.2
v 1.1 1.2 1.2
v 1 1.2 1.2
v 0.8 1.2 1.2
v -0.8 1.2 1.2
v -1 1.2 1.2
v -1.1 1.2 1.2
v 1 1.4 0.9
v 0.8 1.4 0.9
v -0.8 1.4 0.9
v -1 1.4 0.9
v 1 2 0.9
v 0.8 2 0.9
v -0.8 2 0.9
v -1 2 0.9
v 1.1 1.2 0.7
v 1 1.2 0.7
v -1 1.2 0.7
v -1.1 1.2 0.7
v 1.1 1.8 0.7
v 1 1.8 0.7
v -1 1.8 0.7
v -1.1 1.8 0.7
v 0.2 0.4 -1.7
v -0.2 0.4 -1.7
v 0.2 0.6 -1.7
v -0.2 0.6 -1.7
v 0.2 0.4 1.7
v -0.2 0.4 1.7
v 0.2 0.6 1.7
v -0.2 0.6 1.7
v 1.1 1.2 -0.7
v 1 1.2 -0.7
v -1 1.2 -0.7
v -1.1 1.2 -0.7
v 1.1 1.8 -0.7
v 1 1.8 -0.7
v -1 1.8 -0.7
v -1.1 1.8 -0.7
v 1 1.4 -0.9
v 0.8 1.4 -0.9
v -0.8 1.4 -0.9
v -1 1.4 -0.9
v 1 2 -0.9
v 0.8 2 -0.9
v -0.8 2 -0.9
v -1 2 -0.9
v 1.1 0 -1.2
v 1 0 -1.2
v -1 0 -1.2
v -1.1 0 -1.2
v 1.1 0.2 -1.2
v 1 0.2 -1.2
v -1 0.2 -1.2
v -1.1 0.2 -1.2
v 0.8 0.4 -1.2
v -0.8 0.4 -1.2
v 1.1 1.2 -1.2
v 1 1.2 -1.2
v 0.8 1.2 -1.2
v -0.8 1.2 -1.2
v -1 1.2 -1.2
v -1.1 1.2 -1.2
v 1 0 -1.4
v 0.4 0 -1.4
v -0.4 0 -1.4
v -1 0 -1.4
v 0.8 0.2 -1.4
v 0.4 0.2 -1.4
v -0.4 0.2 -1.4
v -0.8 0.2 -1.4
v 0.8 0.4 -1.4
v 0.4 0.4 -1.4
v -0.4 0.4 -1.4
v -0.8 0.4 -1.4
v 1 1.4 -1.4
v 0.8 1.4 -1.4
v -0.8 1.4 -1.4
v -1 1.4 -1.4
v 0.4 0 -1.6
v 0.2 0 -1.6
v -0.2 0 -1.6
v -0.4 0 -1.6
v 0.4 0.2 -1.6
v 0.2 0.2 -1.6
v -0.2 0.2 -1.6
v -0.4 0.2 -1.6
v 0.4 0.4 -1.6
v 0.2 0.4 -1.6
v -0.2 0.4 -1.6
v -0.4 0.4 -1.6
v 0.2 0 -2
v -0.2 0 -2
v 0.2 0.6 -2
v -0.2 0.6 -2
v 1.1 0 1.2
v 1.1 0.2 1.2
v 1.1 1.2 1.2
v 1.1 0.9 0.8
v 1.1 1 0.8
v 1.1 0.8 0.7
v 1.1 0.9 0.7
v 1.1 1 0.7
v 1.1 1.1 0.7
v 1.1 1.2 0.7
v 1.1 1.8 0.7
v 1.1 0.7 0.6
v 1.1 0.8 0.6
v 1.1 0.9 0.6
v 1.1 1 0.6
v 1.1 1.1 0.6
v 1.1 1.2 0.6
v 1.1 0.6 0.5
v 1.1 0.7 0.5
v 1.1 0.8 0.5
v 1.1 0.9 0.5
v 1.1 1 0.5
v 1.1 1.1 0.5
v 1.1 1.2 0.5
v 1.1 1.3 0.5
v 1.1 0.5 0.4
v 1.1 0.6 0.4
v 1.1 0.7 0.4
v 1.1 0.8 0.4
v 1.1 1.1 0.4
v 1.1 1.2 0.4
v 1.1 1.3 0.4
v 1.1 1.4 0.4
v 1.1 0.5 0.3
v 1.1 0.6 0.3
v 1.1 0.7 0.3
v 1.1 0.8 0.3
v 1.1 1.1 0.3
v 1.1 1.2 0.3
v 1.1 1.3 0.3
v 1.1 1.4 0.3
v 1.1 0.6 0.2
v 1.1 0.7 0.2
v 1.1 0.8 0.2
v 1.1 0.9 0.2
v 1.1 1 0.2
v 1.1 1.1 0.2
v 1.1 1.2 0.2
v 1.1 1.3 0.2
v 1.1 0.7 0.0999999
v 1.1 0.8 0.0999999
v 1.1 0.9 0.0999999
v 1.1 1 0.0999999
v 1.1 1.1 0.0999999
v 1.1 1.2 0.0999999
v 1.1 0.8 -2.38419e-07
v 1.1 0.9 -2.38419e-07
v 1.1 1 -2.38419e-07
v 1.1 1.1 -2.38419e-07
v 1.1 0.9 -0.1
v 1.1 1 -0.1
v 1.1 1.2 -0.7
v 1.1 1.8 -0.7
v 1.1 0 -1.2
v 1.1 0.2 -1.2
v 1.1 1.2 -1.2
v 1 0 1.4
v 1 1.4 1.4
v 1 0 1.2
v 1 0.2 1.2
v 1 1.2 1.2
v 1 1.4 0.9
v 1 2 0.9
v 1 1.2 0.7
v 1 1.8 0.7
v 1 1.2 -0.7
v 1 1.8 -0.7
v 1 1.4 -0.9
v 1 2 -0.9
v 1 0 -1.2
v 1 0.2 -1.2
v 1 1.2 -1.2
v 1 0 -1.4
v 1 1.4 -1.4
v 0.4 0 1.6
v 0.4 0.2 1.6
v 0.4 0.4 1.6
v 0.4 0 1.4
v 0.4 0.2 1.4
v 0.4 0.4 1.4
v 0.4 0 -1.4
v 0.4 0.2 -1.4
v 0.4 0.4 -1.4
v 0.4 0 -1.6
v 0.4 0.2 -1.6
v 0.4 0.4 -1.6
v 0.2 0 2
v 0.2 0.6 2
v 0.2 0.2 1.8
v 0.2 0.4 1.8
v 0.2 0.4 1.7
v 0.2 0.6 1.7
v 0.2 0 1.6
v 0.2 0.2 1.6
v 0.2 0.4 1.6
v 0.2 0 -1.6
v 0.2 0.2 -1.6
v 0.2 0.4 -1.6
v 0.2 0.4 -1.7
v 0.2 0.6 -1.7
v 0.2 0.2 -1.8
v 0.2 0.4 -1.8
v 0.2 0 -2
v 0.2 0.6 -2
v -0.8 0.4 1.4
v -0.8 1.4 1.4
v -0.8 0.4 1.2
v -0.8 1.2 1.2
v -0.8 1.4 0.9
v -0.8 2 0.9
v -0.8 1.2 0.7
v -0.8 1.8 0.7
v -0.8 1.2 -0.7
v -0.8 1.8 -0.7
v -0.8 1.4 -0.9
v -0.8 2 -0.9
v -0.8 0.4 -1.2
v -0.8 1.2 -1.2
v -0.8 0.4 -1.4
v -0.8 1.4 -1.4
v 0.8 0.4 1.4
v 0.8 1.4 1.4
v 0.8 0.4 1.2
v 0.8 1.2 1.2
v 0.8 1.4 0.9
v 0.8 2 0.9
v 0.8 1.2 0.7
v 0.8 1.8 0.7
v 0.8 1.2 -0.7
v 0.8 1.8 -0.7
v 0.8 1.4 -0.9
v 0.8 2 -0.9
v 0.8 0.4 -1.2
v 0.8 1.2 -1.2
v 0.8 0.4 -1.4
v 0.8 1.4 -1.4
v -0.2 0 2
v -0.2 0.6 2
v -0.2 0.2 1.8
v -0.2 0.4 1.8
v -0.2 0.4 1.7
v -0.2 0.6 1.7
v -0.2 0 1.6
v -0.2 0.2 1.6
v -0.2 0.4 1.6
v -0.2 0 -1.6
v -0.2 0.2 -1.6
v -0.2 0.4 -1.6
v -0.2 0.4 -1.7
v -0.2 0.6 -1.7
v -0.2 0.2 -1.8
v -0.2 0.4 -1.8
v -0.2 0 -2
v -0.2 0.6 -2
v -0.4 0 1.6
v -0.4 0.2 1.6
v -0.4 0.4 1.6
v -0.4 0 1.4
v -0.4 0.2 1.4
v -0.4 0.4 1.4
v -0.4 0 -1.4
v -0.4 0.2 -1.4
v -0.4 0.4 -1.4
v -0.4 0 -1.6
v -0.4 0.2 -1.6
v -0.4 0.4 -1.6
v -1 0 1.4
v -1 1.4 1.4
v -1 0 1.2
v -1 0.2 1.2
v -1 1.2 1.2
v -1 1.4 0.9
v -1 2 0.9
v -1 1.2 0.7
v -1 1.8 0.7
v -1 1.2 -0.7
v -1 1.8 -0.7
v -1 1.4 -0.9
v -1 2 -0.9
v -1 0 -1.2
v -1 0.2 -1.2
v -1 1.2 -1.2
v -1 0 -1.4
v -1 1.4 -1.4
v -1.1 0 1.2
v -1.1 0.2 1.2
v -1.1 1.2 1.2
v -1.1 1.2 0.7
v -1.1 1.8 0.7
v -1.1 1.2 -0.7
v -1.1 1.8 -0.7
v -1.1 0 -1.2
v -1.1 0.2 -1.2
v -1.1 1.2 -1.2
v 1.1 0 1.2
v 1.1 0 -1.2
v 1 0 1.4
v 1 0 1.2
v 1 0 -1.2
v 1 0 -1.4
v 0.4 0 1.6
v 0.4 0 1.4
v 0.4 0 -1.4
v 0.4 0 -1.6
v 0.2 0 2
v 0.2 0 1.6
v 0.2 0 -1.6
v 0.2 0 -2
v -0.2 0 2
v -0.2 0 1.6
v -0.2 0 -1.6
v -0.2 0 -2
v -0.4 0 1.6
v -0.4 0 1.4
v -0.4 0 -1.4
v -0.4 0 -1.6
v -1 0 1.4
v -1 0 1.2
v -1 0 -1.2
v -1 0 -1.4
v -1.1 0 1.2
v -1.1 0 -1.2
v 0.8 0.4 1.4
v 0.8 0.4 1.2
v 0.8 0.4 -1.2
v 0.8 0.4 -1.4
v 0.4 0.4 1.6
v 0.4 0.4 1.4
v 0.4 0.4 -1.4
v 0.4 0.4 -1.6
v 0.2 0.4 1.7
v 0.2 0.4 1.6
v 0.2 0.4 -1.6
v 0.2 0.4 -1.7
v -0.2 0.4 1.7
v -0.2 0.4 1.6
v -0.2 0.4 -1.6
v -0.2 0.4 -1.7
v -0.4 0.4 1.6
v -0.4 0.4 1.4
v -0.4 0.4 -1.4
v -0.4 0.4 -1.6
v -0.8 0.4 1.4
v -0.8 0.4 1.2
v -0.8 0.4 -1.2
v -0.8 0.4 -1.4
v 0.2 0.6 2
v 0.2 0.6 1.7
v 0.2 0.6 -1.7
v 0.2 0.6 -2
v -0.2 0.6 2
v -0.2 0.6 1.7
v -0.2 0.6 -1.7
v -0.2 0.6 -2
v 1.1 1.2 1.2
v 1.1 1.2 0.7
v 1.1 1.2 -0.7
v 1.1 1.2 -1.2
v 1 1.2 1.2
v 1 1.2 0.7
v 1 1.2 -0.7
v 1 1.2 -1.2
v 0.8 1.2 1.2
v 0.8 1.2 0.7
v 0.8 1.2 -0.7
v 0.8 1.2 -1.2
v -0.8 1.2 1.2
v -0.8 1.2 0.7
v -0.8 1.2 -0.7
v -0.8 1.2 -1.2
v -1 1.2 1.2
v -1 1.2 0.7
v -1 1.2 -0.7
v -1 1.2 -1.2
v -1.1 1.2 1.2
v -1.1 1.2 0.7
v -1.1 1.2 -0.7
v -1.1 1.2 -1.2
v 1 1.4 1.4
v 1 1.4 0.9
v 1 1.4 -0.9
v 1 1.4 -1.4
v 0.8 1.4 1.4
v 0.8 1.4 0.9
v 0.8 1.4 -0.9
v 0.8 1.4 -1.4
v -0.8 1.4 1.4
v -0.8 1.4 0.9
v -0.8 1.4 -0.9
v -0.8 1.4 -1.4
v -1 1.4 1.4
v -1 1.4 0.9
v -1 1.4 -0.9
v -1 1.4 -1.4
v 1.1 1.8 0.7
v 1.1 1.8 -0.7
v 1 1.8 0.7
v 1 1.8 -0.7
v -1 1.8 0.7
v -1 1.8 -0.7
v -1.1 1.8 0.7
v -1.1 1.8 -0.7
v 1 2 0.9
v 1 2 -0.9
v 0.8 2 0.9
v 0.8 2 -0.9
v -0.8 2 0.9
v -0.8 2 -0.9
v -1 2 0.9
v -1 2 -0.9

# faces
f 3/3/1 2/3/1 1/3/1
f 4/3/1 2/3/1 3/3/1
f 9/3/1 6/3/1 5/3/1
f 10/3/1 6/3/1 9/3/1
f 11/3/1 8/3/1 7/3/1
f 12/3/1 8/3/1 11/3/1
f 13/4/1 10/4/1 9/4/1
f 14/4/1 10/4/1 13/4/1
f 15/4/1 12/4/1 11/4/1
f 16/4/1 12/4/1 15/4/1
f 21/3/1 18/3/1 17/3/1
f 22/3/1 18/3/1 21/3/1
f 23/3/1 20/3/1 19/3/1
f 24/3/1 20/3/1 23/3/1
f 25/4/1 22/4/1 21/4/1
f 25/3/1 21/3/1 17/3/1
f 26/4/1 22/4/1 25/4/1
f 27/4/1 24/4/1 23/4/1
f 28/3/1 20/3/1 24/3/1
f 28/4/1 24/4/1 27/4/1
f 29/3/1 25/3/1 17/3/1
f 30/3/1 25/3/1 29/3/1
f 31/3/1 20/3/1 28/3/1
f 32/3/1 20/3/1 31/3/1
f 37/3/1 34/3/1 33/3/1
f 38/3/1 34/3/1 37/3/1
f 39/3/1 36/3/1 35/3/1
f 40/3/1 36/3/1 39/3/1
f 43/4/1 38/4/1 37/4/1
f 44/4/1 38/4/1 43/4/1
f 45/4/1 42/4/1 41/4/1
f 46/4/1 42/4/1 45/4/1
f 47/4/1 40/4/1 39/4/1
f 48/4/1 40/4/1 47/4/1
f 53/3/1 50/3/1 49/3/1
f 54/3/1 50/3/1 53/3/1
f 55/3/1 52/3/1 51/3/1
f 56/3/1 52/3/1 55/3/1
f 61/4/1 58/4/1 57/4/1
f 62/4/1 58/4/1 61/4/1
f 63/4/1 60/4/1 59/4/1
f 64/4/1 60/4/1 63/4/1
f 67/3/1 66/3/1 65/3/1
f 68/3/1 66/3/1 67/3/1
f 69/3/2 70/3/2 71/3/2
f 71/3/2 70/3/2 72/3/2
f 73/4/2 74/4/2 77/4/2
f 77/4/2 74/4/2 78/4/2
f 75/4/2 76/4/2 79/4/2
f 79/4/2 76/4/2 80/4/2
f 81/3/2 82/3/2 85/3/2
f 85/3/2 82/3/2 86/3/2
f 83/3/2 84/3/2 87/3/2
f 87/3/2 84/3/2 88/3/2
f 89/3/2 90/3/2 93/3/2
f 93/3/2 90/3/2 94/3/2
f 91/3/2 92/3/2 95/3/2
f 95/3/2 92/3/2 96/3/2
f 93/4/2 94/4/2 99/4/2
f 99/4/2 94/4/2 100/4/2
f 97/4/2 98/4/2 101/4/2
f 101/4/2 98/4/2 102/4/2
f 95/4/2 96/4/2 103/4/2
f 103/4/2 96/4/2 104/4/2
f 105/3/2 106/3/2 109/3/2
f 109/3/2 106/3/2 110/3/2
f 107/3/2 108/3/2 111/3/2
f 111/3/2 108/3/2 112/3/2
f 109/4/2 110/4/2 113/4/2
f 105/3/2 109/3/2 113/3/2
f 113/4/2 110/4/2 114/4/2
f 111/4/2 112/4/2 115/4/2
f 112/3/2 108/3/2 116/3/2
f 115/4/2 112/4/2 116/4/2
f 105/3/2 113/3/2 117/3/2
f 117/3/2 113/3/2 118/3/2
f 116/3/2 108/3/2 119/3/2
f 119/3/2 108/3/2 120/3/2
f 121/3/2 122/3/2 125/3/2
f 125/3/2 122/3/2 126/3/2
f 123/3/2 124/3/2 127/3/2
f 127/3/2 124/3/2 128/3/2
f 125/4/2 126/4/2 129/4/2
f 129/4/2 126/4/2 130/4/2
f 127/4/2 128/4/2 131/4/2
f 131/4/2 128/4/2 132/4/2
f 133/3/2 134/3/2 135/3/2
f 135/3/2 134/3/2 136/3/2
f 140/4/3 139/4/3 138/4/3
f 141/4/3 139/4/3 140/4/3
f 142/4/3 140/4/3 138/4/3
f 143/2/3 141/2/3 140/2/3
f 143/4/3 140/4/3 142/4/3
f 144/4/3 139/4/3 141/4/3
f 144/2/3 141/2/3 143/2/3
f 145/4/3 139/4/3 144/4/3
f 146/4/3 139/4/3 145/4/3
f 148/4/3 142/4/3 138/4/3
f 149/1/3 143/1/3 142/1/3
f 149/4/3 142/4/3 148/4/3
f 150/2/3 144/2/3 143/2/3
f 150/1/3 143/1/3 149/1/3
f 151/1/3 145/1/3 144/1/3
f 151/2/3 144/2/3 150/2/3
f 152/4/3 147/4/3 146/4/3
f 152/1/3 145/1/3 151/1/3
f 152/4/3 146/4/3 145/4/3
f 153/4/3 147/4/3 152/4/3
f 154/4/3 148/4/3 138/4/3
f 155/2/3 149/2/3 148/2/3
f 155/4/3 148/4/3 154/4/3
f 156/4/3 150/4/3 149/4/3
f 156/2/3 149/2/3 155/2/3
f 157/2/3 151/2/3 150/2/3
f 157/4/3 150/4/3 156/4/3
f 158/4/3 152/4/3 151/4/3
f 158/2/3 151/2/3 157/2/3
f 159/2/3 153/2/3 152/2/3
f 159/4/3 152/4/3 158/4/3
f 160/4/3 147/4/3 153/4/3
f 160/2/3 153/2/3 159/2/3
f 161/4/3 147/4/3 160/4/3
f 162/4/3 154/4/3 138/4/3
f 163/1/3 155/1/3 154/1/3
f 163/4/3 154/4/3 162/4/3
f 164/4/3 156/4/3 155/4/3
f 164/1/3 155/1/3 163/1/3
f 165/2/3 159/2/3 158/2/3
f 165/4/3 156/4/3 164/4/3
f 165/2/3 157/2/3 156/2/3
f 165/2/3 158/2/3 157/2/3
f 166/4/3 160/4/3 159/4/3
f 166/2/3 159/2/3 165/2/3
f 167/1/3 161/1/3 160/1/3
f 167/4/3 160/4/3 166/4/3
f 168/4/3 147/4/3 161/4/3
f 168/1/3 161/1/3 167/1/3
f 169/4/3 147/4/3 168/4/3
f 170/2/3 164/2/3 163/2/3
f 170/2/3 163/2/3 162/2/3
f 170/2/3 169/2/3 168/2/3
f 170/2/3 168/2/3 167/2/3
f 170/2/3 165/2/3 164/2/3
f 170/2/3 166/2/3 165/2/3
f 170/4/3 162/4/3 138/4/3
f 170/2/3 167/2/3 166/2/3
f 171/2/3 169/2/3 170/2/3
f 172/2/3 169/2/3 171/2/3
f 173/2/3 169/2/3 172/2/3
f 174/2/3 169/2/3 173/2/3
f 175/2/3 169/2/3 174/2/3
f 176/2/3 169/2/3 175/2/3
f 177/4/3 147/4/3 169/4/3
f 177/2/3 169/2/3 176/2/3
f 178/4/3 171/4/3 170/4/3
f 178/1/3 172/1/3 171/1/3
f 179/4/3 173/4/3 172/4/3
f 179/1/3 172/1/3 178/1/3
f 180/2/3 174/2/3 173/2/3
f 180/4/3 173/4/3 179/4/3
f 181/2/3 174/2/3 180/2/3
f 182/2/3 174/2/3 181/2/3
f 183/4/3 175/4/3 174/4/3
f 183/2/3 174/2/3 182/2/3
f 184/1/3 176/1/3 175/1/3
f 184/4/3 175/4/3 183/4/3
f 185/4/3 177/4/3 176/4/3
f 185/1/3 176/1/3 184/1/3
f 186/4/3 179/4/3 178/4/3
f 186/2/3 180/2/3 179/2/3
f 187/4/3 181/4/3 180/4/3
f 187/2/3 180/2/3 186/2/3
f 188/2/3 182/2/3 181/2/3
f 188/4/3 181/4/3 187/4/3
f 189/4/3 183/4/3 182/4/3
f 189/2/3 182/2/3 188/2/3
f 190/2/3 184/2/3 183/2/3
f 190/4/3 183/4/3 189/4/3
f 191/4/3 185/4/3 184/4/3
f 191/2/3 184/2/3 190/2/3
f 192/1/3 188/1/3 187/1/3
f 192/4/3 187/4/3 186/4/3
f 193/2/3 189/2/3 188/2/3
f 193/1/3 188/1/3 192/1/3
f 194/1/3 190/1/3 189/1/3
f 194/2/3 189/2/3 193/2/3
f 195/4/3 191/4/3 190/4/3
f 195/1/3 190/1/3 194/1/3
f 196/2/3 194/2/3 193/2/3
f 196/4/3 193/4/3 192/4/3
f 197/4/3 195/4/3 194/4/3
f 197/2/3 194/2/3 196/2/3
f 198/4/3 185/4/3 191/4/3
f 198/4/3 195/4/3 197/4/3
f 198/4/3 197/4/3 196/4/3
f 198/4/3 191/4/3 195/4/3
f 199/4/3 147/4/3 177/4/3
f 199/4/3 185/4/3 198/4/3
f 199/4/3 177/4/3 185/4/3
f 200/3/3 138/3/3 137/3/3
f 201/4/3 186/4/3 178/4/3
f 201/3/3 138/3/3 200/3/3
f 201/4/3 170/4/3 138/4/3
f 201/4/3 196/4/3 192/4/3
f 201/4/3 178/4/3 170/4/3
f 201/4/3 192/4/3 186/4/3
f 201/4/3 198/4/3 196/4/3
f 202/4/3 198/4/3 201/4/3
f 205/3/3 204/3/3 203/3/3
f 206/3/3 204/3/3 205/3/3
f 207/3/3 204/3/3 206/3/3
f 208/3/3 204/3/3 207/3/3
f 210/3/3 208/3/3 207/3/3
f 210/3/3 209/3/3 208/3/3
f 211/3/3 209/3/3 210/3/3
f 213/3/3 209/3/3 211/3/3
f 214/3/3 213/3/3 212/3/3
f 215/3/3 209/3/3 213/3/3
f 215/3/3 213/3/3 214/3/3
f 218/3/3 214/3/3 212/3/3
f 219/3/3 217/3/3 216/3/3
f 219/3/3 218/3/3 217/3/3
f 220/3/3 214/3/3 218/3/3
f 220/3/3 218/3/3 219/3/3
f 224/3/3 222/3/3 221/3/3
f 225/4/3 223/4/3 222/4/3
f 225/3/3 222/3/3 224/3/3
f 226/4/3 223/4/3 225/4/3
f 230/3/3 228/3/3 227/3/3
f 231/4/3 229/4/3 228/4/3
f 231/3/3 228/3/3 230/3/3
f 232/4/3 229/4/3 231/4/3
f 235/3/3 234/3/3 233/3/3
f 236/3/3 234/3/3 235/3/3
f 237/4/3 236/4/3 235/4/3
f 237/3/3 234/3/3 236/3/3
f 238/3/3 234/3/3 237/3/3
f 239/3/3 235/3/3 233/3/3
f 240/4/3 237/4/3 235/4/3
f 240/3/3 235/3/3 239/3/3
f 241/4/3 237/4/3 240/4/3
f 245/4/3 244/4/3 243/4/3
f 247/4/3 245/4/3 243/4/3
f 247/3/3 243/3/3 242/3/3
f 248/3/3 246/3/3 245/3/3
f 248/4/3 245/4/3 247/4/3
f 249/3/3 247/3/3 242/3/3
f 249/3/3 248/3/3 247/3/3
f 250/3/3 246/3/3 248/3/3
f 250/3/3 248/3/3 249/3/3
f 253/3/3 252/3/3 251/3/3
f 254/3/3 252/3/3 253/3/3
f 255/3/3 252/3/3 254/3/3
f 257/3/3 255/3/3 254/3/3
f 257/3/3 256/3/3 255/3/3
f 258/3/3 256/3/3 257/3/3
f 259/4/3 258/4/3 257/4/3
f 260/3/3 256/3/3 258/3/3
f 260/4/3 258/4/3 259/4/3
f 261/3/3 260/3/3 259/3/3
f 262/3/3 256/3/3 260/3/3
f 262/3/3 260/3/3 261/3/3
f 264/3/3 261/3/3 259/3/3
f 265/3/3 264/3/3 263/3/3
f 266/3/3 261/3/3 264/3/3
f 266/3/3 264/3/3 265/3/3
f 267/3/4 268/3/4 269/3/4
f 269/3/4 268/3/4 270/3/4
f 270/3/4 268/3/4 271/3/4
f 270/3/4 271/3/4 273/3/4
f 271/3/4 272/3/4 273/3/4
f 273/3/4 272/3/4 274/3/4
f 273/4/4 274/4/4 275/4/4
f 274/3/4 272/3/4 276/3/4
f 275/4/4 274/4/4 276/4/4
f 275/3/4 276/3/4 277/3/4
f 276/3/4 272/3/4 278/3/4
f 277/3/4 276/3/4 278/3/4
f 275/3/4 277/3/4 280/3/4
f 279/3/4 280/3/4 281/3/4
f 280/3/4 277/3/4 282/3/4
f 281/3/4 280/3/4 282/3/4
f 283/3/4 284/3/4 285/3/4
f 285/3/4 284/3/4 286/3/4
f 285/4/4 286/4/4 287/4/4
f 286/3/4 284/3/4 287/3/4
f 287/3/4 284/3/4 288/3/4
f 283/3/4 285/3/4 289/3/4
f 285/4/4 287/4/4 290/4/4
f 289/3/4 285/3/4 290/3/4
f 290/4/4 287/4/4 291/4/4
f 293/4/4 294/4/4 295/4/4
f 293/4/4 295/4/4 297/4/4
f 292/3/4 293/3/4 297/3/4
f 295/3/4 296/3/4 298/3/4
f 297/4/4 295/4/4 298/4/4
f 292/3/4 297/3/4 299/3/4
f 297/3/4 298/3/4 299/3/4
f 298/3/4 296/3/4 300/3/4
f 299/3/4 298/3/4 300/3/4
f 301/3/4 302/3/4 304/3/4
f 302/4/4 303/4/4 305/4/4
f 304/3/4 302/3/4 305/3/4
f 305/4/4 303/4/4 306/4/4
f 307/3/4 308/3/4 310/3/4
f 308/4/4 309/4/4 311/4/4
f 310/3/4 308/3/4 311/3/4
f 311/4/4 309/4/4 312/4/4
f 313/3/4 314/3/4 315/3/4
f 315/3/4 314/3/4 316/3/4
f 316/3/4 314/3/4 317/3/4
f 317/3/4 314/3/4 318/3/4
f 317/3/4 318/3/4 320/3/4
f 318/3/4 319/3/4 320/3/4
f 320/3/4 319/3/4 321/3/4
f 321/3/4 319/3/4 323/3/4
f 322/3/4 323/3/4 324/3/4
f 323/3/4 319/3/4 325/3/4
f 324/3/4 323/3/4 325/3/4
f 322/3/4 324/3/4 328/3/4
f 326/3/4 327/3/4 329/3/4
f 327/3/4 328/3/4 329/3/4
f 328/3/4 324/3/4 330/3/4
f 329/3/4 328/3/4 330/3/4
f 332/4/4 333/4/4 334/4/4
f 332/4/4 334/4/4 336/4/4
f 334/4/4 335/4/4 336/4/4
f 336/4/4 335/4/4 337/4/4
f 331/3/4 332/3/4 338/3/4
f 332/4/4 336/4/4 339/4/4
f 338/3/4 332/3/4 339/3/4
f 339/4/4 336/4/4 340/4/4
f 344/3/5 342/3/5 341/3/5
f 345/3/5 342/3/5 344/3/5
f 348/3/5 344/3/5 343/3/5
f 348/3/5 346/3/5 345/3/5
f 348/3/5 345/3/5 344/3/5
f 349/3/5 346/3/5 348/3/5
f 352/3/5 348/3/5 347/3/5
f 352/3/5 350/3/5 349/3/5
f 352/3/5 349/3/5 348/3/5
f 353/3/5 350/3/5 352/3/5
f 355/3/5 352/3/5 351/3/5
f 355/3/5 354/3/5 353/3/5
f 355/3/5 353/3/5 352/3/5
f 356/3/5 354/3/5 355/3/5
f 357/3/5 354/3/5 356/3/5
f 358/3/5 354/3/5 357/3/5
f 359/3/5 357/3/5 356/3/5
f 360/3/5 357/3/5 359/3/5
f 361/3/5 357/3/5 360/3/5
f 362/3/5 357/3/5 361/3/5
f 363/3/5 361/3/5 360/3/5
f 364/3/5 361/3/5 363/3/5
f 365/3/5 361/3/5 364/3/5
f 366/3/5 361/3/5 365/3/5
f 367/3/5 365/3/5 364/3/5
f 368/3/5 365/3/5 367/3/5
f 369/4/6 370/4/6 374/4/6
f 371/4/6 372/4/6 375/4/6
f 373/4/6 374/4/6 378/4/6
f 375/4/6 376/4/6 379/4/6
f 377/4/6 378/4/6 381/4/6
f 378/4/6 374/4/6 382/4/6
f 381/4/6 378/4/6 382/4/6
f 379/4/6 380/4/6 383/4/6
f 375/4/6 379/4/6 383/4/6
f 383/4/6 380/4/6 384/4/6
f 382/4/6 374/4/6 385/4/6
f 374/4/6 370/4/6 386/4/6
f 385/4/6 374/4/6 386/4/6
f 371/4/6 375/4/6 387/4/6
f 375/4/6 383/4/6 387/4/6
f 387/4/6 383/4/6 388/4/6
f 386/4/6 370/4/6 389/4/6
f 389/4/6 370/4/6 390/4/6
f 371/4/6 387/4/6 391/4/6
f 391/4/6 387/4/6 392/4/6
f 393/3/6 394/3/6 397/3/6
f 397/3/6 394/3/6 398/3/6
f 395/3/6 396/3/6 399/3/6
f 399/3/6 396/3/6 400/3/6
f 401/4/6 402/4/6 405/4/6
f 405/4/6 402/4/6 406/4/6
f 403/4/6 404/4/6 407/4/6
f 407/4/6 404/4/6 408/4/6
f 409/4/6 410/4/6 413/4/6
f 411/4/6 412/4/6 413/4/6
f 410/4/6 411/4/6 413/4/6
f 413/4/6 412/4/6 414/4/6
f 414/4/6 412/4/6 415/4/6
f 415/4/6 412/4/6 416/4/6
f 417/4/6 418/4/6 421/4/6
f 421/4/6 418/4/6 422/4/6
f 419/4/6 420/4/6 423/4/6
f 423/4/6 420/4/6 424/4/6
f 425/3/6 426/3/6 429/3/6
f 429/3/6 426/3/6 430/3/6
f 427/3/6 428/3/6 431/3/6
f 431/3/6 428/3/6 432/3/6
f 433/3/6 434/3/6 437/3/6
f 437/3/6 434/3/6 438/3/6
f 435/3/6 436/3/6 439/3/6
f 439/3/6 436/3/6 440/3/6
f 441/4/6 442/4/6 443/4/6
f 443/4/6 442/4/6 444/4/6
f 445/4/6 446/4/6 447/4/6
f 447/4/6 446/4/6 448/4/6
f 449/3/6 450/3/6 451/3/6
f 451/3/6 450/3/6 452/3/6
f 453/3/6 454/3/6 455/3/6
f 455/3/6 454/3/6 456/3/6
