# MagicaVoxel @ Ephtracy

# group
o 

# material
mtllib model.mtl
usemtl palette

# normals
vn 0 0 1
vn 0 0 -1
vn 1 0 0
vn -1 0 0
vn 0 -1 0
vn 0 1 0

# texcoords
vt 0.00195313 0.5
vt 0.0292969 0.5
vt 0.259766 0.5
vt 0.521484 0.5
vt 0.572266 0.5
vt 0.693359 0.5

# verts
v 0.8 0 1.6
v 0.2 0 1.6
v -0.2 0 1.6
v -0.8 0 1.6
v 1 0.3 1.6
v 0.8 0.3 1.6
v 0.2 0.3 1.6
v -0.2 0.3 1.6
v -0.8 0.3 1.6
v -1 0.3 1.6
v 1 0.5 1.6
v -1 0.5 1.6
v 0.9 0.5 1.5
v -0.9 0.5 1.5
v 0.9 3.4 1.5
v -0.9 3.4 1.5
v 1.2 0.3 1.4
v 1 0.3 1.4
v -1 0.3 1.4
v -1.2 0.3 1.4
v 1.2 0.5 1.4
v 1 0.5 1.4
v -1 0.5 1.4
v -1.2 0.5 1.4
v 1.2 0 1.3
v 1 0 1.3
v -1 0 1.3
v -1.2 0 1.3
v 1.2 0.3 1.3
v 1 0.3 1.3
v -1 0.3 1.3
v -1.2 0.3 1.3
v 1.1 0.5 1.3
v 0.9 0.5 1.3
v -0.9 0.5 1.3
v -1.1 0.5 1.3
v 1.1 3.4 1.3
v 0.9 3.4 1.3
v 0.7 3.4 1.3
v -0.7 3.4 1.3
v -0.9 3.4 1.3
v -1.1 3.4 1.3
v 0.7 3.7 1.3
v -0.7 3.7 1.3
v 1.2 2.5 1.1
v 1.1 2.5 1.1
v 1.2 3.1 1.1
v 1.1 3.1 1.1
v 0.9 3.4 1.1
v 0.7 3.4 1.1
v -0.7 3.4 1.1
v -0.9 3.4 1.1
v 0.9 3.7 1.1
v 0.7 3.7 1.1
v -0.7 3.7 1.1
v -0.9 3.7 1.1
v 1.2 2.4 1
v 1.1 2.4 1
v 1.2 2.5 1
v 1.1 2.5 1
v 1.2 3.1 1
v 1.1 3.1 1
v 1.2 3.2 1
v 1.1 3.2 1
v 1.9 2.4 0.4
v 1.2 2.4 0.4
v 1.9 2.7 0.4
v 1.2 2.7 0.4
v 1.2 0 0.3
v 1 0 0.3
v -1 0 0.3
v -1.2 0 0.3
v 1.2 0.3 0.3
v 1 0.3 0.3
v -1 0.3 0.3
v -1.2 0.3 0.3
v 2.1 2.4 0.3
v 1.9 2.4 0.3
v 2.1 2.7 0.3
v 1.9 2.7 0.3
v 1.2 2.7 0.3
v 1.9 2.9 0.3
v 1.2 2.9 0.3
v 2.1 2.2 0.1
v 1.8 2.2 0.1
v 2.1 2.4 0.1
v 1.8 2.4 0.1
v 1.7 2.9 -0.1
v 1.4 2.9 -0.1
v 1.7 3 -0.1
v 1.4 3 -0.1
v 1.2 3.1 -0.1
v 1.1 3.1 -0.1
v 1.2 3.2 -0.1
v 1.1 3.2 -0.1
v 1.7 1.8 -0.4
v 1.4 1.8 -0.4
v 1.7 2.4 -0.4
v 1.4 2.4 -0.4
v 1.2 0 -0.7
v 1 0 -0.7
v -1 0 -0.7
v -1.2 0 -0.7
v 1.2 0.3 -0.7
v 1 0.3 -0.7
v -1 0.3 -0.7
v -1.2 0.3 -0.7
v 1.1 0.6 -0.7
v 0.4 0.6 -0.7
v 1.1 0.8 -0.7
v 0.4 0.8 -0.7
v 1.1 0.8 -0.9
v 0.4 0.8 -0.9
v 1.1 2.3 -0.9
v 0.4 2.3 -0.9
v 0.8 0 -1.4
v 0.2 0 -1.4
v -0.2 0 -1.4
v -0.8 0 -1.4
v 0.8 0.3 -1.4
v 0.2 0.3 -1.4
v -0.2 0.3 -1.4
v -0.8 0.3 -1.4
v 0.8 0 1.4
v 0.2 0 1.4
v -0.2 0 1.4
v -0.8 0 1.4
v 0.8 0.3 1.4
v 0.2 0.3 1.4
v -0.2 0.3 1.4
v -0.8 0.3 1.4
v 1.1 0.8 0.9
v 0.4 0.8 0.9
v 1.1 2.3 0.9
v 0.4 2.3 0.9
v 1.2 0 0.7
v 1 0 0.7
v -1 0 0.7
v -1.2 0 0.7
v 1.2 0.3 0.7
v 1 0.3 0.7
v -1 0.3 0.7
v -1.2 0.3 0.7
v 1.1 0.6 0.7
v 0.4 0.6 0.7
v 1.1 0.8 0.7
v 0.4 0.8 0.7
v 1.2 3.1 0.1
v 1.1 3.1 0.1
v 1.2 3.2 0.1
v 1.1 3.2 0.1
v 2.1 2.2 -0.1
v 1.8 2.2 -0.1
v 2.1 2.4 -0.1
v 1.8 2.4 -0.1
v 1.2 0 -0.3
v 1 0 -0.3
v -1 0 -0.3
v -1.2 0 -0.3
v 1.2 0.3 -0.3
v 1 0.3 -0.3
v -1 0.3 -0.3
v -1.2 0.3 -0.3
v 2.1 2.4 -0.3
v 1.9 2.4 -0.3
v 2.1 2.7 -0.3
v 1.9 2.7 -0.3
v 1.7 2.7 -0.3
v 1.4 2.7 -0.3
v 1.2 2.7 -0.3
v 1.9 2.9 -0.3
v 1.7 2.9 -0.3
v 1.4 2.9 -0.3
v 1.2 2.9 -0.3
v 1.9 2.4 -0.4
v 1.7 2.4 -0.4
v 1.4 2.4 -0.4
v 1.2 2.4 -0.4
v 1.9 2.7 -0.4
v 1.7 2.7 -0.4
v 1.4 2.7 -0.4
v 1.2 2.7 -0.4
v 1.7 2.9 -0.5
v 1.4 2.9 -0.5
v 1.7 3 -0.5
v 1.4 3 -0.5
v 1.7 1.8 -0.6
v 1.4 1.8 -0.6
v 1.7 2.9 -0.6
v 1.4 2.9 -0.6
v 1.2 2.4 -1
v 1.1 2.4 -1
v 1.2 2.5 -1
v 1.1 2.5 -1
v 1.2 3.1 -1
v 1.1 3.1 -1
v 1.2 3.2 -1
v 1.1 3.2 -1
v 1.2 2.5 -1.1
v 1.1 2.5 -1.1
v 1.2 3.1 -1.1
v 1.1 3.1 -1.1
v 0.9 3.4 -1.1
v 0.7 3.4 -1.1
v -0.7 3.4 -1.1
v -0.9 3.4 -1.1
v 0.9 3.7 -1.1
v 0.7 3.7 -1.1
v -0.7 3.7 -1.1
v -0.9 3.7 -1.1
v 1.2 0 -1.3
v 1 0 -1.3
v -1 0 -1.3
v -1.2 0 -1.3
v 1.2 0.3 -1.3
v 1 0.3 -1.3
v -1 0.3 -1.3
v -1.2 0.3 -1.3
v 1.1 0.5 -1.3
v 0.9 0.5 -1.3
v -0.9 0.5 -1.3
v -1.1 0.5 -1.3
v 1.1 3.4 -1.3
v 0.9 3.4 -1.3
v 0.7 3.4 -1.3
v -0.7 3.4 -1.3
v -0.9 3.4 -1.3
v -1.1 3.4 -1.3
v 0.7 3.7 -1.3
v -0.7 3.7 -1.3
v 1.2 0.3 -1.4
v 1 0.3 -1.4
v -1 0.3 -1.4
v -1.2 0.3 -1.4
v 1.2 0.5 -1.4
v 1 0.5 -1.4
v -1 0.5 -1.4
v -1.2 0.5 -1.4
v 0.9 0.5 -1.5
v -0.9 0.5 -1.5
v 0.9 3.4 -1.5
v -0.9 3.4 -1.5
v 0.8 0 -1.6
v 0.2 0 -1.6
v -0.2 0 -1.6
v -0.8 0 -1.6
v 1 0.3 -1.6
v 0.8 0.3 -1.6
v 0.2 0.3 -1.6
v -0.2 0.3 -1.6
v -0.8 0.3 -1.6
v -1 0.3 -1.6
v 1 0.5 -1.6
v -1 0.5 -1.6
v 2.1 2.4 0.3
v 2.1 2.7 0.3
v 2.1 2.2 0.1
v 2.1 2.4 0.1
v 2.1 2.2 -0.1
v 2.1 2.4 -0.1
v 2.1 2.4 -0.3
v 2.1 2.7 -0.3
v 1.9 2.4 0.4
v 1.9 2.7 0.4
v 1.9 2.4 0.3
v 1.9 2.7 0.3
v 1.9 2.9 0.3
v 1.9 2.4 -0.3
v 1.9 2.7 -0.3
v 1.9 2.9 -0.3
v 1.9 2.4 -0.4
v 1.9 2.7 -0.4
v 1.7 2.9 -0.1
v 1.7 3 -0.1
v 1.7 2.7 -0.3
v 1.7 2.9 -0.3
v 1.7 1.8 -0.4
v 1.7 2.4 -0.4
v 1.7 2.7 -0.4
v 1.7 2.9 -0.5
v 1.7 3 -0.5
v 1.7 1.8 -0.6
v 1.7 2.9 -0.6
v 1.2 0.3 1.4
v 1.2 0.5 1.4
v 1.2 0 1.3
v 1.2 0.3 1.3
v 1.2 2.5 1.1
v 1.2 3.1 1.1
v 1.2 2.4 1
v 1.2 2.5 1
v 1.2 3.1 1
v 1.2 3.2 1
v 1.2 2.5 0.9
v 1.2 3.1 0.9
v 1.2 2.6 0.8
v 1.2 2.9 0.8
v 1.2 0 0.7
v 1.2 0.3 0.7
v 1.2 2.6 0.6
v 1.2 2.9 0.6
v 1.2 2.5 0.5
v 1.2 3.1 0.5
v 1.2 2.4 0.4
v 1.2 2.7 0.4
v 1.2 0 0.3
v 1.2 0.3 0.3
v 1.2 2.7 0.3
v 1.2 2.9 0.3
v 1.2 3.1 0.1
v 1.2 3.2 0.1
v 1.2 3.1 -0.1
v 1.2 3.2 -0.1
v 1.2 0 -0.3
v 1.2 0.3 -0.3
v 1.2 2.7 -0.3
v 1.2 2.9 -0.3
v 1.2 2.4 -0.4
v 1.2 2.7 -0.4
v 1.2 2.5 -0.5
v 1.2 3.1 -0.5
v 1.2 2.6 -0.6
v 1.2 2.9 -0.6
v 1.2 0 -0.7
v 1.2 0.3 -0.7
v 1.2 2.6 -0.8
v 1.2 2.9 -0.8
v 1.2 2.5 -0.9
v 1.2 3.1 -0.9
v 1.2 2.4 -1
v 1.2 2.5 -1
v 1.2 3.1 -1
v 1.2 3.2 -1
v 1.2 2.5 -1.1
v 1.2 3.1 -1.1
v 1.2 0 -1.3
v 1.2 0.3 -1.3
v 1.2 0.3 -1.4
v 1.2 0.5 -1.4
v 1.1 0.5 1.3
v 1.1 3.4 1.3
v 1.1 2.5 1.1
v 1.1 3.1 1.1
v 1.1 2.4 1
v 1.1 2.5 1
v 1.1 3.1 1
v 1.1 3.2 1
v 1.1 0.8 0.9
v 1.1 2.3 0.9
v 1.1 0.6 0.7
v 1.1 0.8 0.7
v 1.1 2.4 0.3
v 1.1 3.1 0.1
v 1.1 3.2 0.1
v 1.1 3.1 -0.1
v 1.1 3.2 -0.1
v 1.1 2.4 -0.3
v 1.1 0.6 -0.7
v 1.1 0.8 -0.7
v 1.1 0.8 -0.9
v 1.1 2.3 -0.9
v 1.1 2.4 -1
v 1.1 2.5 -1
v 1.1 3.1 -1
v 1.1 3.2 -1
v 1.1 2.5 -1.1
v 1.1 3.1 -1.1
v 1.1 0.5 -1.3
v 1.1 3.4 -1.3
v 1 0.3 1.6
v 1 0.5 1.6
v 1 0.3 1.4
v 1 0.5 1.4
v 1 0.3 -1.4
v 1 0.5 -1.4
v 1 0.3 -1.6
v 1 0.5 -1.6
v 0.9 0.5 1.5
v 0.9 3.4 1.5
v 0.9 0.5 1.3
v 0.9 3.4 1.3
v 0.9 3.4 1.1
v 0.9 3.7 1.1
v 0.9 3.4 -1.1
v 0.9 3.7 -1.1
v 0.9 0.5 -1.3
v 0.9 3.4 -1.3
v 0.9 0.5 -1.5
v 0.9 3.4 -1.5
v 0.8 0 1.6
v 0.8 0.3 1.6
v 0.8 0 1.4
v 0.8 0.3 1.4
v 0.8 0 -1.4
v 0.8 0.3 -1.4
v 0.8 0 -1.6
v 0.8 0.3 -1.6
v 0.7 3.4 1.3
v 0.7 3.7 1.3
v 0.7 3.4 1.1
v 0.7 3.7 1.1
v 0.7 3.4 -1.1
v 0.7 3.7 -1.1
v 0.7 3.4 -1.3
v 0.7 3.7 -1.3
v 0.4 0.8 0.9
v 0.4 2.3 0.9
v 0.4 0.6 0.7
v 0.4 0.8 0.7
v 0.4 0.6 -0.7
v 0.4 0.8 -0.7
v 0.4 0.8 -0.9
v 0.4 2.3 -0.9
v -0.2 0 1.6
v -0.2 0.3 1.6
v -0.2 0 1.4
v -0.2 0.3 1.4
v -0.2 0 -1.4
v -0.2 0.3 -1.4
v -0.2 0 -1.6
v -0.2 0.3 -1.6
v -1 0 1.3
v -1 0.3 1.3
v -1 0 0.7
v -1 0.3 0.7
v -1 0 0.3
v -1 0.3 0.3
v -1 0 -0.3
v -1 0.3 -0.3
v -1 0 -0.7
v -1 0.3 -0.7
v -1 0 -1.3
v -1 0.3 -1.3
v 1.8 2.2 0.1
v 1.8 2.4 0.1
v 1.8 2.2 -0.1
v 1.8 2.4 -0.1
v 1.4 2.9 -0.1
v 1.4 3 -0.1
v 1.4 2.7 -0.3
v 1.4 2.9 -0.3
v 1.4 1.8 -0.4
v 1.4 2.4 -0.4
v 1.4 2.7 -0.4
v 1.4 2.9 -0.5
v 1.4 3 -0.5
v 1.4 1.8 -0.6
v 1.4 2.9 -0.6
v 1 0 1.3
v 1 0.3 1.3
v 1 0 0.7
v 1 0.3 0.7
v 1 0 0.3
v 1 0.3 0.3
v 1 0 -0.3
v 1 0.3 -0.3
v 1 0 -0.7
v 1 0.3 -0.7
v 1 0 -1.3
v 1 0.3 -1.3
v 0.2 0 1.6
v 0.2 0.3 1.6
v 0.2 0 1.4
v 0.2 0.3 1.4
v 0.2 0 -1.4
v 0.2 0.3 -1.4
v 0.2 0 -1.6
v 0.2 0.3 -1.6
v -0.7 3.4 1.3
v -0.7 3.7 1.3
v -0.7 3.4 1.1
v -0.7 3.7 1.1
v -0.7 3.4 -1.1
v -0.7 3.7 -1.1
v -0.7 3.4 -1.3
v -0.7 3.7 -1.3
v -0.8 0 1.6
v -0.8 0.3 1.6
v -0.8 0 1.4
v -0.8 0.3 1.4
v -0.8 0 -1.4
v -0.8 0.3 -1.4
v -0.8 0 -1.6
v -0.8 0.3 -1.6
v -0.9 0.5 1.5
v -0.9 3.4 1.5
v -0.9 0.5 1.3
v -0.9 3.4 1.3
v -0.9 3.4 1.1
v -0.9 3.7 1.1
v -0.9 3.4 -1.1
v -0.9 3.7 -1.1
v -0.9 0.5 -1.3
v -0.9 3.4 -1.3
v -0.9 0.5 -1.5
v -0.9 3.4 -1.5
v -1 0.3 1.6
v -1 0.5 1.6
v -1 0.3 1.4
v -1 0.5 1.4
v -1 0.3 -1.4
v -1 0.5 -1.4
v -1 0.3 -1.6
v -1 0.5 -1.6
v -1.1 0.5 1.3
v -1.1 3.4 1.3
v -1.1 0.5 -1.3
v -1.1 3.4 -1.3
v -1.2 0.3 1.4
v -1.2 0.5 1.4
v -1.2 0 1.3
v -1.2 0.3 1.3
v -1.2 0 0.7
v -1.2 0.3 0.7
v -1.2 0 0.3
v -1.2 0.3 0.3
v -1.2 0 -0.3
v -1.2 0.3 -0.3
v -1.2 0 -0.7
v -1.2 0.3 -0.7
v -1.2 0 -1.3
v -1.2 0.3 -1.3
v -1.2 0.3 -1.4
v -1.2 0.5 -1.4
v 1.2 0 1.3
v 1.2 0 0.7
v 1.2 0 0.3
v 1.2 0 -0.3
v 1.2 0 -0.7
v 1.2 0 -1.3
v 1 0 1.3
v 1 0 0.7
v 1 0 0.3
v 1 0 -0.3
v 1 0 -0.7
v 1 0 -1.3
v 0.8 0 1.6
v 0.8 0 1.4
v 0.8 0 -1.4
v 0.8 0 -1.6
v 0.2 0 1.6
v 0.2 0 1.4
v 0.2 0 -1.4
v 0.2 0 -1.6
v -0.2 0 1.6
v -0.2 0 1.4
v -0.2 0 -1.4
v -0.2 0 -1.6
v -0.8 0 1.6
v -0.8 0 1.4
v -0.8 0 -1.4
v -0.8 0 -1.6
v -1 0 1.3
v -1 0 0.7
v -1 0 0.3
v -1 0 -0.3
v -1 0 -0.7
v -1 0 -1.3
v -1.2 0 1.3
v -1.2 0 0.7
v -1.2 0 0.3
v -1.2 0 -0.3
v -1.2 0 -0.7
v -1.2 0 -1.3
v 1.2 0.3 1.4
v 1.2 0.3 1.3
v 1.2 0.3 0.7
v 1.2 0.3 0.3
v 1.2 0.3 -0.3
v 1.2 0.3 -0.7
v 1.2 0.3 -1.3
v 1.2 0.3 -1.4
v 1 0.3 1.6
v 1 0.3 1.4
v 1 0.3 1.3
v 1 0.3 0.7
v 1 0.3 0.3
v 1 0.3 -0.3
v 1 0.3 -0.7
v 1 0.3 -1.3
v 1 0.3 -1.4
v 1 0.3 -1.6
v 0.8 0.3 1.6
v 0.8 0.3 1.4
v 0.8 0.3 -1.4
v 0.8 0.3 -1.6
v 0.2 0.3 1.6
v 0.2 0.3 1.4
v 0.2 0.3 -1.4
v 0.2 0.3 -1.6
v -0.2 0.3 1.6
v -0.2 0.3 1.4
v -0.2 0.3 -1.4
v -0.2 0.3 -1.6
v -0.8 0.3 1.6
v -0.8 0.3 1.4
v -0.8 0.3 -1.4
v -0.8 0.3 -1.6
v -1 0.3 1.6
v -1 0.3 1.4
v -1 0.3 1.3
v -1 0.3 0.7
v -1 0.3 0.3
v -1 0.3 -0.3
v -1 0.3 -0.7
v -1 0.3 -1.3
v -1 0.3 -1.4
v -1 0.3 -1.6
v -1.2 0.3 1.4
v -1.2 0.3 1.3
v -1.2 0.3 0.7
v -1.2 0.3 0.3
v -1.2 0.3 -0.3
v -1.2 0.3 -0.7
v -1.2 0.3 -1.3
v -1.2 0.3 -1.4
v 1.7 1.8 -0.4
v 1.7 1.8 -0.6
v 1.4 1.8 -0.4
v 1.4 1.8 -0.6
v 2.1 2.2 0.1
v 2.1 2.2 -0.1
v 1.8 2.2 0.1
v 1.8 2.2 -0.1
v 1.1 2.3 0.9
v 1.1 2.3 -0.9
v 0.4 2.3 0.9
v 0.4 2.3 -0.9
v 2.1 2.4 0.3
v 2.1 2.4 0.1
v 2.1 2.4 -0.1
v 2.1 2.4 -0.3
v 1.9 2.4 0.4
v 1.9 2.4 0.3
v 1.9 2.4 -0.3
v 1.9 2.4 -0.4
v 1.8 2.4 0.1
v 1.8 2.4 -0.1
v 1.7 2.4 -0.4
v 1.4 2.4 -0.4
v 1.2 2.4 1
v 1.2 2.4 0.4
v 1.2 2.4 0.3
v 1.2 2.4 -0.3
v 1.2 2.4 -0.4
v 1.2 2.4 -1
v 1.1 2.4 1
v 1.1 2.4 0.3
v 1.1 2.4 -0.3
v 1.1 2.4 -1
v 1.2 2.5 1.1
v 1.2 2.5 1
v 1.2 2.5 -1
v 1.2 2.5 -1.1
v 1.1 2.5 1.1
v 1.1 2.5 1
v 1.1 2.5 -1
v 1.1 2.5 -1.1
v 1.2 0.5 1.4
v 1.2 0.5 -1.4
v 1.1 0.5 1.3
v 1.1 0.5 -1.3
v 1 0.5 1.6
v 1 0.5 1.4
v 1 0.5 -1.4
v 1 0.5 -1.6
v 0.9 0.5 1.5
v 0.9 0.5 1.3
v 0.9 0.5 -1.3
v 0.9 0.5 -1.5
v -0.9 0.5 1.5
v -0.9 0.5 1.3
v -0.9 0.5 -1.3
v -0.9 0.5 -1.5
v -1 0.5 1.6
v -1 0.5 1.4
v -1 0.5 -1.4
v -1 0.5 -1.6
v -1.1 0.5 1.3
v -1.1 0.5 -1.3
v -1.2 0.5 1.4
v -1.2 0.5 -1.4
v 1.1 0.6 0.7
v 1.1 0.6 -0.7
v 0.4 0.6 0.7
v 0.4 0.6 -0.7
v 1.1 0.8 0.9
v 1.1 0.8 0.7
v 1.1 0.8 -0.7
v 1.1 0.8 -0.9
v 0.4 0.8 0.9
v 0.4 0.8 0.7
v 0.4 0.8 -0.7
v 0.4 0.8 -0.9
v 2.1 2.7 0.3
v 2.1 2.7 -0.3
v 1.9 2.7 0.4
v 1.9 2.7 0.3
v 1.9 2.7 -0.3
v 1.9 2.7 -0.4
v 1.7 2.7 -0.3
v 1.7 2.7 -0.4
v 1.4 2.7 -0.3
v 1.4 2.7 -0.4
v 1.2 2.7 0.4
v 1.2 2.7 0.3
v 1.2 2.7 -0.3
v 1.2 2.7 -0.4
v 1.9 2.9 0.3
v 1.9 2.9 -0.3
v 1.7 2.9 -0.1
v 1.7 2.9 -0.3
v 1.7 2.9 -0.5
v 1.7 2.9 -0.6
v 1.4 2.9 -0.1
v 1.4 2.9 -0.3
v 1.4 2.9 -0.5
v 1.4 2.9 -0.6
v 1.2 2.9 0.3
v 1.2 2.9 -0.3
v 1.7 3 -0.1
v 1.7 3 -0.5
v 1.4 3 -0.1
v 1.4 3 -0.5
v 1.2 3.1 1.1
v 1.2 3.1 1
v 1.2 3.1 0.1
v 1.2 3.1 -0.1
v 1.2 3.1 -1
v 1.2 3.1 -1.1
v 1.1 3.1 1.1
v 1.1 3.1 1
v 1.1 3.1 0.1
v 1.1 3.1 -0.1
v 1.1 3.1 -1
v 1.1 3.1 -1.1
v 1.2 3.2 1
v 1.2 3.2 0.1
v 1.2 3.2 -0.1
v 1.2 3.2 -1
v 1.1 3.2 1
v 1.1 3.2 0.1
v 1.1 3.2 -0.1
v 1.1 3.2 -1
v 1.1 3.4 1.3
v 1.1 3.4 -1.3
v 0.9 3.4 1.5
v 0.9 3.4 1.3
v 0.9 3.4 1.1
v 0.9 3.4 -1.1
v 0.9 3.4 -1.3
v 0.9 3.4 -1.5
v 0.7 3.4 1.3
v 0.7 3.4 1.1
v 0.7 3.4 -1.1
v 0.7 3.4 -1.3
v -0.7 3.4 1.3
v -0.7 3.4 1.1
v -0.7 3.4 -1.1
v -0.7 3.4 -1.3
v -0.9 3.4 1.5
v -0.9 3.4 1.3
v -0.9 3.4 1.1
v -0.9 3.4 -1.1
v -0.9 3.4 -1.3
v -0.9 3.4 -1.5
v -1.1 3.4 1.3
v -1.1 3.4 -1.3
v 0.9 3.7 1.1
v 0.9 3.7 -1.1
v 0.7 3.7 1.3
v 0.7 3.7 1.1
v 0.7 3.7 -1.1
v 0.7 3.7 -1.3
v -0.7 3.7 1.3
v -0.7 3.7 1.1
v -0.7 3.7 -1.1
v -0.7 3.7 -1.3
v -0.9 3.7 1.1
v -0.9 3.7 -1.1

# faces
f 6/5/1 2/5/1 1/5/1
f 7/5/1 2/5/1 6/5/1
f 8/5/1 4/5/1 3/5/1
f 9/5/1 4/5/1 8/5/1
f 11/5/1 7/5/1 6/5/1
f 11/5/1 10/5/1 9/5/1
f 11/5/1 9/5/1 8/5/1
f 11/5/1 8/5/1 7/5/1
f 11/5/1 6/5/1 5/5/1
f 12/5/1 10/5/1 11/5/1
f 15/5/1 14/5/1 13/5/1
f 16/5/1 14/5/1 15/5/1
f 21/5/1 18/5/1 17/5/1
f 22/5/1 18/5/1 21/5/1
f 23/5/1 20/5/1 19/5/1
f 24/5/1 20/5/1 23/5/1
f 29/5/1 26/5/1 25/5/1
f 30/5/1 26/5/1 29/5/1
f 31/5/1 28/5/1 27/5/1
f 32/5/1 28/5/1 31/5/1
f 37/5/1 34/5/1 33/5/1
f 38/5/1 34/5/1 37/5/1
f 41/5/1 36/5/1 35/5/1
f 42/5/1 36/5/1 41/5/1
f 43/5/1 40/5/1 39/5/1
f 44/5/1 40/5/1 43/5/1
f 47/3/1 46/3/1 45/3/1
f 48/3/1 46/3/1 47/3/1
f 53/5/1 50/5/1 49/5/1
f 54/5/1 50/5/1 53/5/1
f 55/5/1 52/5/1 51/5/1
f 56/5/1 52/5/1 55/5/1
f 59/3/1 58/3/1 57/3/1
f 60/3/1 58/3/1 59/3/1
f 63/3/1 62/3/1 61/3/1
f 64/3/1 62/3/1 63/3/1
f 67/4/1 66/4/1 65/4/1
f 68/4/1 66/4/1 67/4/1
f 73/5/1 70/5/1 69/5/1
f 74/5/1 70/5/1 73/5/1
f 75/5/1 72/5/1 71/5/1
f 76/5/1 72/5/1 75/5/1
f 79/4/1 78/4/1 77/4/1
f 80/4/1 78/4/1 79/4/1
f 82/4/1 81/4/1 80/4/1
f 83/4/1 81/4/1 82/4/1
f 86/4/1 85/4/1 84/4/1
f 87/4/1 85/4/1 86/4/1
f 90/6/1 89/6/1 88/6/1
f 91/6/1 89/6/1 90/6/1
f 94/3/1 93/3/1 92/3/1
f 95/3/1 93/3/1 94/3/1
f 98/6/1 97/6/1 96/6/1
f 99/6/1 97/6/1 98/6/1
f 104/5/1 101/5/1 100/5/1
f 105/5/1 101/5/1 104/5/1
f 106/5/1 103/5/1 102/5/1
f 107/5/1 103/5/1 106/5/1
f 110/5/1 109/5/1 108/5/1
f 111/5/1 109/5/1 110/5/1
f 114/5/1 113/5/1 112/5/1
f 115/5/1 113/5/1 114/5/1
f 120/5/1 117/5/1 116/5/1
f 121/5/1 117/5/1 120/5/1
f 122/5/1 119/5/1 118/5/1
f 123/5/1 119/5/1 122/5/1
f 124/5/2 125/5/2 128/5/2
f 128/5/2 125/5/2 129/5/2
f 126/5/2 127/5/2 130/5/2
f 130/5/2 127/5/2 131/5/2
f 132/5/2 133/5/2 134/5/2
f 134/5/2 133/5/2 135/5/2
f 136/5/2 137/5/2 140/5/2
f 140/5/2 137/5/2 141/5/2
f 138/5/2 139/5/2 142/5/2
f 142/5/2 139/5/2 143/5/2
f 144/5/2 145/5/2 146/5/2
f 146/5/2 145/5/2 147/5/2
f 148/3/2 149/3/2 150/3/2
f 150/3/2 149/3/2 151/3/2
f 152/4/2 153/4/2 154/4/2
f 154/4/2 153/4/2 155/4/2
f 156/5/2 157/5/2 160/5/2
f 160/5/2 157/5/2 161/5/2
f 158/5/2 159/5/2 162/5/2
f 162/5/2 159/5/2 163/5/2
f 164/4/2 165/4/2 166/4/2
f 166/4/2 165/4/2 167/4/2
f 167/4/2 168/4/2 171/4/2
f 171/4/2 168/4/2 172/4/2
f 169/4/2 170/4/2 173/4/2
f 173/4/2 170/4/2 174/4/2
f 175/4/2 176/4/2 179/4/2
f 179/4/2 176/4/2 180/4/2
f 177/4/2 178/4/2 181/4/2
f 181/4/2 178/4/2 182/4/2
f 183/6/2 184/6/2 185/6/2
f 185/6/2 184/6/2 186/6/2
f 187/6/2 188/6/2 189/6/2
f 189/6/2 188/6/2 190/6/2
f 191/3/2 192/3/2 193/3/2
f 193/3/2 192/3/2 194/3/2
f 195/3/2 196/3/2 197/3/2
f 197/3/2 196/3/2 198/3/2
f 199/3/2 200/3/2 201/3/2
f 201/3/2 200/3/2 202/3/2
f 203/5/2 204/5/2 207/5/2
f 207/5/2 204/5/2 208/5/2
f 205/5/2 206/5/2 209/5/2
f 209/5/2 206/5/2 210/5/2
f 211/5/2 212/5/2 215/5/2
f 215/5/2 212/5/2 216/5/2
f 213/5/2 214/5/2 217/5/2
f 217/5/2 214/5/2 218/5/2
f 219/5/2 220/5/2 223/5/2
f 223/5/2 220/5/2 224/5/2
f 221/5/2 222/5/2 227/5/2
f 227/5/2 222/5/2 228/5/2
f 225/5/2 226/5/2 229/5/2
f 229/5/2 226/5/2 230/5/2
f 231/5/2 232/5/2 235/5/2
f 235/5/2 232/5/2 236/5/2
f 233/5/2 234/5/2 237/5/2
f 237/5/2 234/5/2 238/5/2
f 239/5/2 240/5/2 241/5/2
f 241/5/2 240/5/2 242/5/2
f 243/5/2 244/5/2 248/5/2
f 248/5/2 244/5/2 249/5/2
f 245/5/2 246/5/2 250/5/2
f 250/5/2 246/5/2 251/5/2
f 248/5/2 249/5/2 253/5/2
f 251/5/2 252/5/2 253/5/2
f 250/5/2 251/5/2 253/5/2
f 249/5/2 250/5/2 253/5/2
f 247/5/2 248/5/2 253/5/2
f 253/5/2 252/5/2 254/5/2
f 258/4/3 256/4/3 255/4/3
f 259/4/3 258/4/3 257/4/3
f 260/4/3 256/4/3 258/4/3
f 260/4/3 258/4/3 259/4/3
f 261/4/3 256/4/3 260/4/3
f 262/4/3 256/4/3 261/4/3
f 265/4/3 264/4/3 263/4/3
f 266/4/3 264/4/3 265/4/3
f 269/4/3 267/4/3 266/4/3
f 270/4/3 267/4/3 269/4/3
f 271/4/3 269/4/3 268/4/3
f 272/4/3 269/4/3 271/4/3
f 276/6/3 274/6/3 273/6/3
f 279/6/3 276/6/3 275/6/3
f 280/6/3 274/6/3 276/6/3
f 280/6/3 279/6/3 278/6/3
f 280/6/3 276/6/3 279/6/3
f 280/6/3 278/6/3 277/6/3
f 281/6/3 274/6/3 280/6/3
f 282/6/3 280/6/3 277/6/3
f 283/6/3 280/6/3 282/6/3
f 287/5/3 285/5/3 284/5/3
f 291/3/3 289/3/3 288/3/3
f 292/3/3 289/3/3 291/3/3
f 294/3/3 291/3/3 290/3/3
f 294/3/3 293/3/3 292/3/3
f 294/3/3 292/3/3 291/3/3
f 295/3/3 293/3/3 294/3/3
f 296/2/3 295/2/3 294/2/3
f 297/2/3 295/2/3 296/2/3
f 298/5/3 287/5/3 286/5/3
f 299/5/3 285/5/3 287/5/3
f 299/5/3 287/5/3 298/5/3
f 300/2/3 296/2/3 294/2/3
f 300/1/3 297/1/3 296/1/3
f 301/2/3 295/2/3 297/2/3
f 301/1/3 297/1/3 300/1/3
f 302/2/3 300/2/3 294/2/3
f 302/3/3 294/3/3 290/3/3
f 302/2/3 301/2/3 300/2/3
f 303/2/3 295/2/3 301/2/3
f 303/2/3 301/2/3 302/2/3
f 303/3/3 293/3/3 295/3/3
f 304/3/3 302/3/3 290/3/3
f 304/3/3 303/3/3 302/3/3
f 305/3/3 303/3/3 304/3/3
f 307/5/3 285/5/3 299/5/3
f 308/3/3 303/3/3 305/3/3
f 309/3/3 303/3/3 308/3/3
f 310/3/3 293/3/3 303/3/3
f 310/3/3 303/3/3 309/3/3
f 311/3/3 293/3/3 310/3/3
f 312/3/3 310/3/3 309/3/3
f 314/5/3 307/5/3 306/5/3
f 315/5/3 285/5/3 307/5/3
f 315/5/3 307/5/3 314/5/3
f 317/3/3 313/3/3 312/3/3
f 317/3/3 312/3/3 309/3/3
f 319/3/3 317/3/3 316/3/3
f 320/3/3 319/3/3 318/3/3
f 321/3/3 313/3/3 317/3/3
f 321/3/3 319/3/3 320/3/3
f 321/3/3 317/3/3 319/3/3
f 322/2/3 321/2/3 320/2/3
f 323/2/3 321/2/3 322/2/3
f 325/5/3 285/5/3 315/5/3
f 326/2/3 322/2/3 320/2/3
f 326/1/3 323/1/3 322/1/3
f 327/2/3 321/2/3 323/2/3
f 327/1/3 323/1/3 326/1/3
f 328/2/3 326/2/3 320/2/3
f 328/3/3 320/3/3 318/3/3
f 328/2/3 327/2/3 326/2/3
f 329/2/3 321/2/3 327/2/3
f 329/2/3 327/2/3 328/2/3
f 329/3/3 313/3/3 321/3/3
f 330/3/3 328/3/3 318/3/3
f 330/3/3 329/3/3 328/3/3
f 331/3/3 329/3/3 330/3/3
f 332/3/3 313/3/3 329/3/3
f 332/3/3 329/3/3 331/3/3
f 333/3/3 313/3/3 332/3/3
f 334/3/3 332/3/3 331/3/3
f 335/3/3 332/3/3 334/3/3
f 336/5/3 325/5/3 324/5/3
f 337/5/3 285/5/3 325/5/3
f 337/5/3 325/5/3 336/5/3
f 338/5/3 285/5/3 337/5/3
f 339/5/3 285/5/3 338/5/3
f 342/5/3 341/5/3 340/5/3
f 343/5/3 341/5/3 342/5/3
f 344/5/3 342/5/3 340/5/3
f 345/5/3 342/5/3 344/5/3
f 346/5/3 341/5/3 343/5/3
f 347/5/3 341/5/3 346/5/3
f 348/5/3 344/5/3 340/5/3
f 349/5/3 344/5/3 348/5/3
f 350/5/3 348/5/3 340/5/3
f 351/5/3 348/5/3 350/5/3
f 352/5/3 344/5/3 349/5/3
f 354/5/3 341/5/3 347/5/3
f 355/5/3 354/5/3 353/5/3
f 356/5/3 341/5/3 354/5/3
f 356/5/3 354/5/3 355/5/3
f 357/5/3 352/5/3 349/5/3
f 358/5/3 350/5/3 340/5/3
f 360/5/3 359/5/3 358/5/3
f 361/5/3 357/5/3 349/5/3
f 362/5/3 357/5/3 361/5/3
f 362/5/3 361/5/3 360/5/3
f 365/5/3 341/5/3 356/5/3
f 366/5/3 363/5/3 362/5/3
f 367/5/3 365/5/3 364/5/3
f 368/5/3 366/5/3 362/5/3
f 368/5/3 367/5/3 366/5/3
f 368/5/3 362/5/3 360/5/3
f 368/5/3 360/5/3 358/5/3
f 368/5/3 358/5/3 340/5/3
f 369/5/3 365/5/3 367/5/3
f 369/5/3 367/5/3 368/5/3
f 369/5/3 341/5/3 365/5/3
f 372/5/3 371/5/3 370/5/3
f 373/5/3 371/5/3 372/5/3
f 376/5/3 375/5/3 374/5/3
f 377/5/3 375/5/3 376/5/3
f 380/5/3 379/5/3 378/5/3
f 381/5/3 379/5/3 380/5/3
f 384/5/3 383/5/3 382/5/3
f 385/5/3 383/5/3 384/5/3
f 388/5/3 387/5/3 386/5/3
f 389/5/3 387/5/3 388/5/3
f 392/5/3 391/5/3 390/5/3
f 393/5/3 391/5/3 392/5/3
f 396/5/3 395/5/3 394/5/3
f 397/5/3 395/5/3 396/5/3
f 400/5/3 399/5/3 398/5/3
f 401/5/3 399/5/3 400/5/3
f 404/5/3 403/5/3 402/5/3
f 405/5/3 403/5/3 404/5/3
f 409/5/3 407/5/3 406/5/3
f 410/5/3 409/5/3 408/5/3
f 411/5/3 407/5/3 409/5/3
f 411/5/3 409/5/3 410/5/3
f 412/5/3 407/5/3 411/5/3
f 413/5/3 407/5/3 412/5/3
f 416/5/3 415/5/3 414/5/3
f 417/5/3 415/5/3 416/5/3
f 420/5/3 419/5/3 418/5/3
f 421/5/3 419/5/3 420/5/3
f 424/5/3 423/5/3 422/5/3
f 425/5/3 423/5/3 424/5/3
f 428/5/3 427/5/3 426/5/3
f 429/5/3 427/5/3 428/5/3
f 432/5/3 431/5/3 430/5/3
f 433/5/3 431/5/3 432/5/3
f 434/4/4 435/4/4 436/4/4
f 436/4/4 435/4/4 437/4/4
f 438/6/4 439/6/4 441/6/4
f 440/6/4 441/6/4 444/6/4
f 441/6/4 439/6/4 445/6/4
f 443/6/4 444/6/4 445/6/4
f 444/6/4 441/6/4 445/6/4
f 442/6/4 443/6/4 445/6/4
f 445/6/4 439/6/4 446/6/4
f 442/6/4 445/6/4 447/6/4
f 447/6/4 445/6/4 448/6/4
f 449/5/4 450/5/4 451/5/4
f 451/5/4 450/5/4 452/5/4
f 453/5/4 454/5/4 455/5/4
f 455/5/4 454/5/4 456/5/4
f 457/5/4 458/5/4 459/5/4
f 459/5/4 458/5/4 460/5/4
f 461/5/4 462/5/4 463/5/4
f 463/5/4 462/5/4 464/5/4
f 465/5/4 466/5/4 467/5/4
f 467/5/4 466/5/4 468/5/4
f 469/5/4 470/5/4 471/5/4
f 471/5/4 470/5/4 472/5/4
f 473/5/4 474/5/4 475/5/4
f 475/5/4 474/5/4 476/5/4
f 477/5/4 478/5/4 479/5/4
f 479/5/4 478/5/4 480/5/4
f 481/5/4 482/5/4 483/5/4
f 483/5/4 482/5/4 484/5/4
f 485/5/4 486/5/4 487/5/4
f 487/5/4 486/5/4 488/5/4
f 489/5/4 490/5/4 491/5/4
f 491/5/4 490/5/4 492/5/4
f 493/5/4 494/5/4 495/5/4
f 495/5/4 494/5/4 496/5/4
f 497/5/4 498/5/4 499/5/4
f 499/5/4 498/5/4 500/5/4
f 501/5/4 502/5/4 503/5/4
f 503/5/4 502/5/4 504/5/4
f 505/5/4 506/5/4 507/5/4
f 507/5/4 506/5/4 508/5/4
f 509/5/4 510/5/4 512/5/4
f 511/5/4 512/5/4 513/5/4
f 512/5/4 510/5/4 514/5/4
f 513/5/4 512/5/4 514/5/4
f 514/5/4 510/5/4 516/5/4
f 515/5/4 516/5/4 517/5/4
f 516/5/4 510/5/4 518/5/4
f 517/5/4 516/5/4 518/5/4
f 518/5/4 510/5/4 520/5/4
f 519/5/4 520/5/4 521/5/4
f 520/5/4 510/5/4 522/5/4
f 521/5/4 520/5/4 522/5/4
f 522/5/4 510/5/4 523/5/4
f 523/5/4 510/5/4 524/5/4
f 531/5/5 526/5/5 525/5/5
f 532/5/5 526/5/5 531/5/5
f 533/5/5 528/5/5 527/5/5
f 534/5/5 528/5/5 533/5/5
f 535/5/5 530/5/5 529/5/5
f 536/5/5 530/5/5 535/5/5
f 541/5/5 538/5/5 537/5/5
f 542/5/5 538/5/5 541/5/5
f 543/5/5 540/5/5 539/5/5
f 544/5/5 540/5/5 543/5/5
f 549/5/5 546/5/5 545/5/5
f 550/5/5 546/5/5 549/5/5
f 551/5/5 548/5/5 547/5/5
f 552/5/5 548/5/5 551/5/5
f 559/5/5 554/5/5 553/5/5
f 560/5/5 554/5/5 559/5/5
f 561/5/5 556/5/5 555/5/5
f 562/5/5 556/5/5 561/5/5
f 563/5/5 558/5/5 557/5/5
f 564/5/5 558/5/5 563/5/5
f 574/5/5 566/5/5 565/5/5
f 575/5/5 566/5/5 574/5/5
f 576/5/5 568/5/5 567/5/5
f 577/5/5 568/5/5 576/5/5
f 578/5/5 570/5/5 569/5/5
f 579/5/5 570/5/5 578/5/5
f 580/5/5 572/5/5 571/5/5
f 581/5/5 572/5/5 580/5/5
f 583/5/5 579/5/5 578/5/5
f 583/5/5 582/5/5 581/5/5
f 583/5/5 581/5/5 580/5/5
f 583/5/5 580/5/5 579/5/5
f 583/5/5 575/5/5 574/5/5
f 583/5/5 578/5/5 577/5/5
f 583/5/5 577/5/5 576/5/5
f 583/5/5 576/5/5 575/5/5
f 583/5/5 574/5/5 573/5/5
f 584/5/5 582/5/5 583/5/5
f 585/5/5 582/5/5 584/5/5
f 586/5/5 582/5/5 585/5/5
f 588/5/5 585/5/5 584/5/5
f 589/5/5 585/5/5 588/5/5
f 591/5/5 588/5/5 587/5/5
f 591/5/5 590/5/5 589/5/5
f 591/5/5 589/5/5 588/5/5
f 592/5/5 590/5/5 591/5/5
f 593/5/5 590/5/5 592/5/5
f 594/5/5 590/5/5 593/5/5
f 596/5/5 593/5/5 592/5/5
f 597/5/5 593/5/5 596/5/5
f 599/5/5 596/5/5 595/5/5
f 599/5/5 598/5/5 597/5/5
f 599/5/5 597/5/5 596/5/5
f 600/5/5 598/5/5 599/5/5
f 601/5/5 598/5/5 600/5/5
f 602/5/5 598/5/5 601/5/5
f 603/5/5 598/5/5 602/5/5
f 604/5/5 598/5/5 603/5/5
f 605/5/5 598/5/5 604/5/5
f 606/5/5 598/5/5 605/5/5
f 607/5/5 598/5/5 606/5/5
f 608/5/5 598/5/5 607/5/5
f 609/5/5 601/5/5 600/5/5
f 610/5/5 601/5/5 609/5/5
f 611/5/5 603/5/5 602/5/5
f 612/5/5 603/5/5 611/5/5
f 613/5/5 605/5/5 604/5/5
f 614/5/5 605/5/5 613/5/5
f 615/5/5 607/5/5 606/5/5
f 616/5/5 607/5/5 615/5/5
f 619/6/5 618/6/5 617/6/5
f 620/6/5 618/6/5 619/6/5
f 623/4/5 622/4/5 621/4/5
f 624/4/5 622/4/5 623/4/5
f 627/5/5 626/5/5 625/5/5
f 628/5/5 626/5/5 627/5/5
f 634/4/5 630/4/5 629/4/5
f 635/4/5 632/4/5 631/4/5
f 637/4/5 634/4/5 633/4/5
f 637/4/5 630/4/5 634/4/5
f 638/4/5 636/4/5 635/4/5
f 638/4/5 635/4/5 631/4/5
f 639/4/5 636/4/5 638/4/5
f 639/4/5 638/4/5 637/4/5
f 640/4/5 639/4/5 637/4/5
f 642/4/5 637/4/5 633/4/5
f 642/4/5 640/4/5 637/4/5
f 643/4/5 640/4/5 642/4/5
f 644/4/5 640/4/5 643/4/5
f 645/4/5 640/4/5 644/4/5
f 647/3/5 642/3/5 641/3/5
f 647/3/5 643/3/5 642/3/5
f 648/4/5 644/4/5 643/4/5
f 648/3/5 643/3/5 647/3/5
f 649/3/5 645/3/5 644/3/5
f 649/4/5 644/4/5 648/4/5
f 649/3/5 646/3/5 645/3/5
f 650/3/5 646/3/5 649/3/5
f 655/3/5 652/3/5 651/3/5
f 656/3/5 652/3/5 655/3/5
f 657/3/5 654/3/5 653/3/5
f 658/3/5 654/3/5 657/3/5
f 659/5/6 660/5/6 661/5/6
f 661/5/6 660/5/6 662/5/6
f 659/5/6 661/5/6 664/5/6
f 662/5/6 660/5/6 665/5/6
f 663/5/6 664/5/6 667/5/6
f 664/5/6 661/5/6 668/5/6
f 667/5/6 664/5/6 668/5/6
f 665/5/6 666/5/6 669/5/6
f 662/5/6 665/5/6 669/5/6
f 669/5/6 666/5/6 670/5/6
f 663/5/6 667/5/6 671/5/6
f 670/5/6 666/5/6 674/5/6
f 671/5/6 672/5/6 675/5/6
f 663/5/6 671/5/6 675/5/6
f 675/5/6 672/5/6 676/5/6
f 673/5/6 674/5/6 677/5/6
f 674/5/6 666/5/6 678/5/6
f 677/5/6 674/5/6 678/5/6
f 676/5/6 672/5/6 679/5/6
f 673/5/6 677/5/6 680/5/6
f 676/5/6 679/5/6 681/5/6
f 679/5/6 680/5/6 681/5/6
f 680/5/6 677/5/6 682/5/6
f 681/5/6 680/5/6 682/5/6
f 683/5/6 684/5/6 685/5/6
f 685/5/6 684/5/6 686/5/6
f 687/5/6 688/5/6 691/5/6
f 691/5/6 688/5/6 692/5/6
f 689/5/6 690/5/6 693/5/6
f 693/5/6 690/5/6 694/5/6
f 695/4/6 696/4/6 698/4/6
f 698/4/6 696/4/6 699/4/6
f 699/4/6 700/4/6 701/4/6
f 701/4/6 700/4/6 702/4/6
f 697/4/6 698/4/6 705/4/6
f 705/4/6 698/4/6 706/4/6
f 703/4/6 704/4/6 707/4/6
f 707/4/6 704/4/6 708/4/6
f 709/4/6 710/4/6 711/4/6
f 711/4/6 710/4/6 712/4/6
f 709/4/6 711/4/6 715/4/6
f 713/6/6 714/6/6 717/6/6
f 717/6/6 714/6/6 718/6/6
f 715/4/6 716/4/6 719/4/6
f 709/4/6 715/4/6 719/4/6
f 719/4/6 716/4/6 720/4/6
f 721/6/6 722/6/6 723/6/6
f 723/6/6 722/6/6 724/6/6
f 725/3/6 726/3/6 731/3/6
f 731/3/6 726/3/6 732/3/6
f 727/3/6 728/3/6 733/3/6
f 733/3/6 728/3/6 734/3/6
f 729/3/6 730/3/6 735/3/6
f 735/3/6 730/3/6 736/3/6
f 737/3/6 738/3/6 741/3/6
f 741/3/6 738/3/6 742/3/6
f 739/3/6 740/3/6 743/3/6
f 743/3/6 740/3/6 744/3/6
f 745/5/6 746/5/6 748/5/6
f 748/5/6 746/5/6 749/5/6
f 749/5/6 746/5/6 750/5/6
f 750/5/6 746/5/6 751/5/6
f 747/5/6 748/5/6 753/5/6
f 748/5/6 749/5/6 753/5/6
f 753/5/6 749/5/6 754/5/6
f 751/5/6 752/5/6 755/5/6
f 750/5/6 751/5/6 755/5/6
f 755/5/6 752/5/6 756/5/6
f 747/5/6 753/5/6 757/5/6
f 756/5/6 752/5/6 760/5/6
f 757/5/6 758/5/6 761/5/6
f 747/5/6 757/5/6 761/5/6
f 761/5/6 758/5/6 762/5/6
f 762/5/6 758/5/6 763/5/6
f 759/5/6 760/5/6 764/5/6
f 760/5/6 752/5/6 765/5/6
f 764/5/6 760/5/6 765/5/6
f 765/5/6 752/5/6 766/5/6
f 762/5/6 763/5/6 767/5/6
f 763/5/6 764/5/6 767/5/6
f 764/5/6 765/5/6 767/5/6
f 767/5/6 765/5/6 768/5/6
f 769/5/6 770/5/6 772/5/6
f 772/5/6 770/5/6 773/5/6
f 771/5/6 772/5/6 775/5/6
f 773/5/6 774/5/6 775/5/6
f 772/5/6 773/5/6 775/5/6
f 775/5/6 774/5/6 776/5/6
f 776/5/6 774/5/6 777/5/6
f 777/5/6 774/5/6 778/5/6
f 776/5/6 777/5/6 779/5/6
f 779/5/6 777/5/6 780/5/6
