# MagicaVoxel @ Ephtracy

# group
o 

# material
mtllib model-0.mtl
usemtl palette

# normals
vn -1 0 0
vn 1 0 0
vn 0 0 1
vn 0 0 -1
vn 0 -1 0
vn 0 1 0

# texcoords
vt 0.759766 0.5
vt 0.771484 0.5
vt 0.775391 0.5

# verts
v -0.9 0 1.1
v -0.9 0 -1.1
v -0.9 0.1 1.2
v -0.9 0.1 1.1
v -0.9 0.1 -1.1
v -0.9 0.1 -1.2
v -0.9 1.2 1.2
v -0.9 1.2 -1.2
v -0.1 0.7 1.4
v -0.1 0.7 1.3
v -0.1 0.7 1.2
v -0.1 0.7 -1.2
v -0.1 0.7 -1.3
v -0.1 0.7 -1.4
v -0.1 1.1 1.4
v -0.1 1.1 1.3
v -0.1 1.1 1.2
v -0.1 1.1 -1.2
v -0.1 1.1 -1.3
v -0.1 1.1 -1.4
v 0.3 0.7 1.4
v 0.3 0.7 1.3
v 0.3 0.7 1.2
v 0.3 0.7 -1.2
v 0.3 0.7 -1.3
v 0.3 0.7 -1.4
v 0.3 1.1 1.4
v 0.3 1.1 1.3
v 0.3 1.1 1.2
v 0.3 1.1 -1.2
v 0.3 1.1 -1.3
v 0.3 1.1 -1.4
v 0.4 0 1.1
v 0.4 0 -1.1
v 0.4 0.1 1.2
v 0.4 0.1 1.1
v 0.4 0.1 -1.1
v 0.4 0.1 -1.2
v 0.4 1.2 1.2
v 0.4 1.2 -1.2
v -0.1 0.7 1.4
v -0.1 1.1 1.4
v 0 0.8 1.4
v 0 1 1.4
v 0.2 0.8 1.4
v 0.2 1 1.4
v 0.3 0.7 1.4
v 0.3 1.1 1.4
v -0.9 0.1 1.2
v -0.9 1.2 1.2
v -0.8 1 1.2
v -0.8 1.1 1.2
v -0.7 1 1.2
v -0.7 1.1 1.2
v -0.1 0.7 1.2
v -0.1 1.1 1.2
v 0.3 0.7 1.2
v 0.3 1.1 1.2
v 0.4 0.1 1.2
v 0.4 1.2 1.2
v -0.9 0 1.1
v -0.9 0.1 1.1
v 0.4 0 1.1
v 0.4 0.1 1.1
v -0.9 0 -1.1
v -0.9 0.1 -1.1
v 0.4 0 -1.1
v 0.4 0.1 -1.1
v -0.9 0.1 -1.2
v -0.9 1.2 -1.2
v -0.8 1 -1.2
v -0.8 1.1 -1.2
v -0.7 1 -1.2
v -0.7 1.1 -1.2
v -0.1 0.7 -1.2
v -0.1 1.1 -1.2
v 0.3 0.7 -1.2
v 0.3 1.1 -1.2
v 0.4 0.1 -1.2
v 0.4 1.2 -1.2
v -0.1 0.7 -1.4
v -0.1 1.1 -1.4
v 0 0.8 -1.4
v 0 1 -1.4
v 0.2 0.8 -1.4
v 0.2 1 -1.4
v 0.3 0.7 -1.4
v 0.3 1.1 -1.4
v -0.9 0 1.1
v 0.4 0 1.1
v -0.9 0 -1.1
v 0.4 0 -1.1
v -0.9 0.1 1.2
v 0.4 0.1 1.2
v -0.9 0.1 1.1
v 0.4 0.1 1.1
v -0.9 0.1 -1.1
v 0.4 0.1 -1.1
v -0.9 0.1 -1.2
v 0.4 0.1 -1.2
v -0.1 0.7 1.4
v 0.3 0.7 1.4
v -0.1 0.7 1.3
v 0.3 0.7 1.3
v -0.1 0.7 1.2
v 0.3 0.7 1.2
v -0.1 0.7 -1.2
v 0.3 0.7 -1.2
v -0.1 0.7 -1.3
v 0.3 0.7 -1.3
v -0.1 0.7 -1.4
v 0.3 0.7 -1.4
v -0.1 1.1 1.4
v 0.3 1.1 1.4
v -0.1 1.1 1.3
v 0.3 1.1 1.3
v -0.1 1.1 1.2
v 0.3 1.1 1.2
v -0.1 1.1 -1.2
v 0.3 1.1 -1.2
v -0.1 1.1 -1.3
v 0.3 1.1 -1.3
v -0.1 1.1 -1.4
v 0.3 1.1 -1.4
v -0.9 1.2 1.2
v 0.4 1.2 1.2
v -0.9 1.2 -1.2
v 0.4 1.2 -1.2

# faces
f 4/3/1 2/3/1 1/3/1
f 5/3/1 2/3/1 4/3/1
f 7/3/1 4/3/1 3/3/1
f 7/3/1 6/3/1 5/3/1
f 7/3/1 5/3/1 4/3/1
f 8/3/1 6/3/1 7/3/1
f 15/3/1 10/3/1 9/3/1
f 16/2/1 11/2/1 10/2/1
f 16/3/1 10/3/1 15/3/1
f 17/2/1 11/2/1 16/2/1
f 18/2/1 13/2/1 12/2/1
f 19/3/1 14/3/1 13/3/1
f 19/2/1 13/2/1 18/2/1
f 20/3/1 14/3/1 19/3/1
f 21/3/2 22/3/2 27/3/2
f 22/2/2 23/2/2 28/2/2
f 27/3/2 22/3/2 28/3/2
f 28/2/2 23/2/2 29/2/2
f 24/2/2 25/2/2 30/2/2
f 25/3/2 26/3/2 31/3/2
f 30/2/2 25/2/2 31/2/2
f 31/3/2 26/3/2 32/3/2
f 33/3/2 34/3/2 36/3/2
f 36/3/2 34/3/2 37/3/2
f 35/3/2 36/3/2 39/3/2
f 37/3/2 38/3/2 39/3/2
f 36/3/2 37/3/2 39/3/2
f 39/3/2 38/3/2 40/3/2
f 43/3/3 42/3/3 41/3/3
f 44/3/3 42/3/3 43/3/3
f 45/3/3 43/3/3 41/3/3
f 45/1/3 44/1/3 43/1/3
f 46/3/3 42/3/3 44/3/3
f 46/1/3 44/1/3 45/1/3
f 47/3/3 45/3/3 41/3/3
f 47/3/3 46/3/3 45/3/3
f 48/3/3 42/3/3 46/3/3
f 48/3/3 46/3/3 47/3/3
f 51/3/3 50/3/3 49/3/3
f 52/3/3 50/3/3 51/3/3
f 53/3/3 51/3/3 49/3/3
f 53/2/3 52/2/3 51/2/3
f 54/3/3 50/3/3 52/3/3
f 54/2/3 52/2/3 53/2/3
f 55/3/3 53/3/3 49/3/3
f 55/3/3 54/3/3 53/3/3
f 56/3/3 50/3/3 54/3/3
f 56/3/3 54/3/3 55/3/3
f 57/3/3 55/3/3 49/3/3
f 58/3/3 50/3/3 56/3/3
f 59/3/3 57/3/3 49/3/3
f 59/3/3 58/3/3 57/3/3
f 60/3/3 50/3/3 58/3/3
f 60/3/3 58/3/3 59/3/3
f 63/3/3 62/3/3 61/3/3
f 64/3/3 62/3/3 63/3/3
f 65/3/4 66/3/4 67/3/4
f 67/3/4 66/3/4 68/3/4
f 69/3/4 70/3/4 71/3/4
f 71/3/4 70/3/4 72/3/4
f 69/3/4 71/3/4 73/3/4
f 71/2/4 72/2/4 73/2/4
f 72/3/4 70/3/4 74/3/4
f 73/2/4 72/2/4 74/2/4
f 69/3/4 73/3/4 75/3/4
f 73/3/4 74/3/4 75/3/4
f 74/3/4 70/3/4 76/3/4
f 75/3/4 74/3/4 76/3/4
f 69/3/4 75/3/4 77/3/4
f 76/3/4 70/3/4 78/3/4
f 69/3/4 77/3/4 79/3/4
f 77/3/4 78/3/4 79/3/4
f 78/3/4 70/3/4 80/3/4
f 79/3/4 78/3/4 80/3/4
f 81/3/4 82/3/4 83/3/4
f 83/3/4 82/3/4 84/3/4
f 81/3/4 83/3/4 85/3/4
f 83/1/4 84/1/4 85/1/4
f 84/3/4 82/3/4 86/3/4
f 85/1/4 84/1/4 86/1/4
f 81/3/4 85/3/4 87/3/4
f 85/3/4 86/3/4 87/3/4
f 86/3/4 82/3/4 88/3/4
f 87/3/4 86/3/4 88/3/4
f 91/3/5 90/3/5 89/3/5
f 92/3/5 90/3/5 91/3/5
f 95/3/5 94/3/5 93/3/5
f 96/3/5 94/3/5 95/3/5
f 99/3/5 98/3/5 97/3/5
f 100/3/5 98/3/5 99/3/5
f 103/3/5 102/3/5 101/3/5
f 104/3/5 102/3/5 103/3/5
f 105/2/5 104/2/5 103/2/5
f 106/2/5 104/2/5 105/2/5
f 109/2/5 108/2/5 107/2/5
f 110/2/5 108/2/5 109/2/5
f 111/3/5 110/3/5 109/3/5
f 112/3/5 110/3/5 111/3/5
f 113/3/6 114/3/6 115/3/6
f 115/3/6 114/3/6 116/3/6
f 115/2/6 116/2/6 117/2/6
f 117/2/6 116/2/6 118/2/6
f 119/2/6 120/2/6 121/2/6
f 121/2/6 120/2/6 122/2/6
f 121/3/6 122/3/6 123/3/6
f 123/3/6 122/3/6 124/3/6
f 125/3/6 126/3/6 127/3/6
f 127/3/6 126/3/6 128/3/6
