# MagicaVoxel @ Ephtracy

# group
o 

# material
mtllib model-1.mtl
usemtl palette

# normals
vn -1 0 0
vn 1 0 0
vn 0 0 1
vn 0 0 -1
vn 0 -1 0
vn 0 1 0

# texcoords
vt 0.744141 0.5
vt 0.771484 0.5
vt 0.775391 0.5

# verts
v -0.3 0 1.1
v -0.3 0 -1.1
v -0.3 0.1 1.2
v -0.3 0.1 1.1
v -0.3 0.1 -1.1
v -0.3 0.1 -1.2
v -0.3 0.3 1.1
v -0.3 0.3 -1.1
v -0.3 0.6 1.2
v -0.3 0.6 1.1
v -0.3 0.6 -1.1
v -0.3 0.6 -1.2
v 1.1 0.3 1
v 1.1 0.3 0.7
v 1.1 0.3 0.5
v 1.1 0.3 0.3
v 1.1 0.3 0.1
v 1.1 0.3 -0.4
v 1.1 0.3 -0.7
v 1.1 0.3 -1
v 1.1 0.7 0.5
v 1.1 0.7 0.3
v 1.1 0.8 1
v 1.1 0.8 0.7
v 1.1 0.8 0.1
v 1.1 0.8 -0.4
v 1.1 0.8 -0.7
v 1.1 0.8 -1
v 1.2 0.3 1.1
v 1.2 0.3 1
v 1.2 0.3 0.7
v 1.2 0.3 0.5
v 1.2 0.3 0.3
v 1.2 0.3 0.1
v 1.2 0.3 -0.4
v 1.2 0.3 -0.7
v 1.2 0.3 -1
v 1.2 0.3 -1.1
v 1.2 0.4 1.1
v 1.2 0.4 0.3
v 1.2 0.4 0.2
v 1.2 0.4 -1.1
v 1.2 0.5 1.1
v 1.2 0.5 0.3
v 1.2 0.5 0.2
v 1.2 0.5 -1.1
v 1.2 0.6 1.1
v 1.2 0.6 1
v 1.2 0.6 0.7
v 1.2 0.6 0.5
v 1.2 0.6 0.3
v 1.2 0.6 0.1
v 1.2 0.6 -0.4
v 1.2 0.6 -0.7
v 1.2 0.6 -1
v 1.2 0.6 -1.1
v 1.2 0.6 1
v 1.2 0.6 0.7
v 1.2 0.6 0.5
v 1.2 0.6 0.3
v 1.2 0.6 0.1
v 1.2 0.6 -0.4
v 1.2 0.6 -0.7
v 1.2 0.6 -1
v 1.2 0.7 0.5
v 1.2 0.7 0.3
v 1.2 0.8 1
v 1.2 0.8 0.7
v 1.2 0.8 0.1
v 1.2 0.8 -0.4
v 1.2 0.8 -0.7
v 1.2 0.8 -1
v 1.3 0 1.1
v 1.3 0 -1.1
v 1.3 0.1 1.2
v 1.3 0.1 1.1
v 1.3 0.1 -1.1
v 1.3 0.1 -1.2
v 1.3 0.4 0.8
v 1.3 0.4 0.7
v 1.3 0.4 0.3
v 1.3 0.4 0.2
v 1.3 0.4 -0.2
v 1.3 0.4 -0.3
v 1.3 0.4 -0.7
v 1.3 0.4 -0.8
v 1.3 0.5 0.8
v 1.3 0.5 0.7
v 1.3 0.5 0.3
v 1.3 0.5 0.2
v 1.3 0.5 -0.2
v 1.3 0.5 -0.3
v 1.3 0.5 -0.7
v 1.3 0.5 -0.8
v 1.3 0.6 1.2
v 1.3 0.6 -1.2
v -0.3 0.1 1.2
v -0.3 0.6 1.2
v 0.6 0.4 1.2
v 0.6 0.5 1.2
v 0.7 0.4 1.2
v 0.7 0.5 1.2
v 1.1 0.4 1.2
v 1.1 0.5 1.2
v 1.2 0.4 1.2
v 1.2 0.5 1.2
v 1.3 0.1 1.2
v 1.3 0.6 1.2
v -0.3 0 1.1
v -0.3 0.1 1.1
v 1.3 0 1.1
v 1.3 0.1 1.1
v 1.1 0.3 1
v 1.1 0.8 1
v 1.2 0.3 1
v 1.2 0.6 1
v 1.2 0.8 1
v 1.1 0.3 0.5
v 1.1 0.7 0.5
v 1.2 0.3 0.5
v 1.2 0.6 0.5
v 1.2 0.7 0.5
v 1.1 0.3 0.1
v 1.1 0.8 0.1
v 1.2 0.3 0.1
v 1.2 0.6 0.1
v 1.2 0.8 0.1
v 1.1 0.3 -0.7
v 1.1 0.8 -0.7
v 1.2 0.3 -0.7
v 1.2 0.6 -0.7
v 1.2 0.8 -0.7
v -0.3 0.3 -1.1
v -0.3 0.6 -1.1
v 0.6 0.4 -1.1
v 0.6 0.5 -1.1
v 0.7 0.4 -1.1
v 0.7 0.5 -1.1
v 1.1 0.4 -1.1
v 1.1 0.5 -1.1
v 1.2 0.3 -1.1
v 1.2 0.4 -1.1
v 1.2 0.5 -1.1
v 1.2 0.6 -1.1
v -0.3 0.3 1.1
v -0.3 0.6 1.1
v 0.6 0.4 1.1
v 0.6 0.5 1.1
v 0.7 0.4 1.1
v 0.7 0.5 1.1
v 1.1 0.4 1.1
v 1.1 0.5 1.1
v 1.2 0.3 1.1
v 1.2 0.4 1.1
v 1.2 0.5 1.1
v 1.2 0.6 1.1
v 1.1 0.3 0.7
v 1.1 0.8 0.7
v 1.2 0.3 0.7
v 1.2 0.6 0.7
v 1.2 0.8 0.7
v 1.1 0.3 0.3
v 1.1 0.7 0.3
v 1.2 0.3 0.3
v 1.2 0.4 0.3
v 1.2 0.5 0.3
v 1.2 0.6 0.3
v 1.2 0.7 0.3
v 1.1 0.3 -0.4
v 1.1 0.8 -0.4
v 1.2 0.3 -0.4
v 1.2 0.6 -0.4
v 1.2 0.8 -0.4
v 1.1 0.3 -1
v 1.1 0.8 -1
v 1.2 0.3 -1
v 1.2 0.6 -1
v 1.2 0.8 -1
v -0.3 0 -1.1
v -0.3 0.1 -1.1
v 1.3 0 -1.1
v 1.3 0.1 -1.1
v -0.3 0.1 -1.2
v -0.3 0.6 -1.2
v 0.6 0.4 -1.2
v 0.6 0.5 -1.2
v 0.7 0.4 -1.2
v 0.7 0.5 -1.2
v 1.1 0.4 -1.2
v 1.1 0.5 -1.2
v 1.2 0.4 -1.2
v 1.2 0.5 -1.2
v 1.3 0.1 -1.2
v 1.3 0.6 -1.2
v -0.3 0 1.1
v 1.3 0 1.1
v -0.3 0 -1.1
v 1.3 0 -1.1
v -0.3 0.1 1.2
v 1.3 0.1 1.2
v -0.3 0.1 1.1
v 1.3 0.1 1.1
v -0.3 0.1 -1.1
v 1.3 0.1 -1.1
v -0.3 0.1 -1.2
v 1.3 0.1 -1.2
v -0.3 0.3 1.1
v 1.2 0.3 1.1
v 1.1 0.3 1
v 1.2 0.3 1
v 1.1 0.3 0.7
v 1.2 0.3 0.7
v 1.1 0.3 0.5
v 1.2 0.3 0.5
v 1.1 0.3 0.3
v 1.2 0.3 0.3
v 1.1 0.3 0.1
v 1.2 0.3 0.1
v 1.1 0.3 -0.4
v 1.2 0.3 -0.4
v 1.1 0.3 -0.7
v 1.2 0.3 -0.7
v 1.1 0.3 -1
v 1.2 0.3 -1
v -0.3 0.3 -1.1
v 1.2 0.3 -1.1
v -0.3 0.6 1.2
v 1.3 0.6 1.2
v -0.3 0.6 1.1
v 1.2 0.6 1.1
v 1.2 0.6 1
v 1.2 0.6 0.7
v 1.2 0.6 0.5
v 1.2 0.6 0.3
v 1.2 0.6 0.1
v 1.2 0.6 -0.4
v 1.2 0.6 -0.7
v 1.2 0.6 -1
v -0.3 0.6 -1.1
v 1.2 0.6 -1.1
v -0.3 0.6 -1.2
v 1.3 0.6 -1.2
v 1.1 0.7 0.5
v 1.2 0.7 0.5
v 1.1 0.7 0.3
v 1.2 0.7 0.3
v 1.1 0.8 1
v 1.2 0.8 1
v 1.1 0.8 0.7
v 1.2 0.8 0.7
v 1.1 0.8 0.1
v 1.2 0.8 0.1
v 1.1 0.8 -0.4
v 1.2 0.8 -0.4
v 1.1 0.8 -0.7
v 1.2 0.8 -0.7
v 1.1 0.8 -1
v 1.2 0.8 -1

# faces
f 4/3/1 2/3/1 1/3/1
f 5/3/1 2/3/1 4/3/1
f 7/3/1 4/3/1 3/3/1
f 7/3/1 6/3/1 5/3/1
f 7/3/1 5/3/1 4/3/1
f 8/3/1 6/3/1 7/3/1
f 9/3/1 7/3/1 3/3/1
f 10/3/1 7/3/1 9/3/1
f 11/3/1 6/3/1 8/3/1
f 12/3/1 6/3/1 11/3/1
f 21/1/1 16/1/1 15/1/1
f 22/1/1 16/1/1 21/1/1
f 23/1/1 14/1/1 13/1/1
f 24/1/1 14/1/1 23/1/1
f 25/1/1 18/1/1 17/1/1
f 26/1/1 18/1/1 25/1/1
f 27/1/1 20/1/1 19/1/1
f 28/1/1 20/1/1 27/1/1
f 39/3/1 30/3/1 29/3/1
f 40/3/1 34/3/1 33/3/1
f 41/3/1 34/3/1 40/3/1
f 42/3/1 38/3/1 37/3/1
f 43/3/1 30/3/1 39/3/1
f 44/2/1 41/2/1 40/2/1
f 45/3/1 34/3/1 41/3/1
f 45/2/1 41/2/1 44/2/1
f 46/3/1 42/3/1 37/3/1
f 47/3/1 30/3/1 43/3/1
f 48/3/1 30/3/1 47/3/1
f 49/3/1 32/3/1 31/3/1
f 50/3/1 32/3/1 49/3/1
f 51/3/1 45/3/1 44/3/1
f 52/3/1 34/3/1 45/3/1
f 52/3/1 45/3/1 51/3/1
f 53/3/1 36/3/1 35/3/1
f 54/3/1 36/3/1 53/3/1
f 55/3/1 46/3/1 37/3/1
f 56/3/1 46/3/1 55/3/1
f 59/1/2 60/1/2 65/1/2
f 65/1/2 60/1/2 66/1/2
f 57/1/2 58/1/2 67/1/2
f 67/1/2 58/1/2 68/1/2
f 61/1/2 62/1/2 69/1/2
f 69/1/2 62/1/2 70/1/2
f 63/1/2 64/1/2 71/1/2
f 71/1/2 64/1/2 72/1/2
f 73/3/2 74/3/2 76/3/2
f 76/3/2 74/3/2 77/3/2
f 75/3/2 76/3/2 79/3/2
f 77/3/2 78/3/2 79/3/2
f 76/3/2 77/3/2 79/3/2
f 79/3/2 78/3/2 80/3/2
f 80/3/2 78/3/2 81/3/2
f 81/3/2 78/3/2 82/3/2
f 82/3/2 78/3/2 83/3/2
f 83/3/2 78/3/2 84/3/2
f 84/3/2 78/3/2 85/3/2
f 85/3/2 78/3/2 86/3/2
f 75/3/2 79/3/2 87/3/2
f 79/2/2 80/2/2 87/2/2
f 80/3/2 81/3/2 88/3/2
f 87/2/2 80/2/2 88/2/2
f 81/2/2 82/2/2 89/2/2
f 88/3/2 81/3/2 89/3/2
f 82/3/2 83/3/2 90/3/2
f 89/2/2 82/2/2 90/2/2
f 83/2/2 84/2/2 91/2/2
f 90/3/2 83/3/2 91/3/2
f 84/3/2 85/3/2 92/3/2
f 91/2/2 84/2/2 92/2/2
f 85/2/2 86/2/2 93/2/2
f 92/3/2 85/3/2 93/3/2
f 86/3/2 78/3/2 94/3/2
f 93/2/2 86/2/2 94/2/2
f 92/3/2 93/3/2 95/3/2
f 91/3/2 92/3/2 95/3/2
f 93/3/2 94/3/2 95/3/2
f 90/3/2 91/3/2 95/3/2
f 89/3/2 90/3/2 95/3/2
f 88/3/2 89/3/2 95/3/2
f 87/3/2 88/3/2 95/3/2
f 75/3/2 87/3/2 95/3/2
f 94/3/2 78/3/2 96/3/2
f 95/3/2 94/3/2 96/3/2
f 99/3/3 98/3/3 97/3/3
f 100/3/3 98/3/3 99/3/3
f 101/3/3 99/3/3 97/3/3
f 101/2/3 100/2/3 99/2/3
f 102/3/3 98/3/3 100/3/3
f 102/2/3 100/2/3 101/2/3
f 103/3/3 101/3/3 97/3/3
f 103/3/3 102/3/3 101/3/3
f 104/3/3 98/3/3 102/3/3
f 104/3/3 102/3/3 103/3/3
f 105/3/3 103/3/3 97/3/3
f 105/2/3 104/2/3 103/2/3
f 106/3/3 98/3/3 104/3/3
f 106/2/3 104/2/3 105/2/3
f 107/3/3 105/3/3 97/3/3
f 107/3/3 106/3/3 105/3/3
f 108/3/3 98/3/3 106/3/3
f 108/3/3 106/3/3 107/3/3
f 111/3/3 110/3/3 109/3/3
f 112/3/3 110/3/3 111/3/3
f 115/1/3 114/1/3 113/1/3
f 116/1/3 114/1/3 115/1/3
f 117/1/3 114/1/3 116/1/3
f 120/1/3 119/1/3 118/1/3
f 121/1/3 119/1/3 120/1/3
f 122/1/3 119/1/3 121/1/3
f 125/1/3 124/1/3 123/1/3
f 126/1/3 124/1/3 125/1/3
f 127/1/3 124/1/3 126/1/3
f 130/1/3 129/1/3 128/1/3
f 131/1/3 129/1/3 130/1/3
f 132/1/3 129/1/3 131/1/3
f 135/3/3 134/3/3 133/3/3
f 136/3/3 134/3/3 135/3/3
f 137/3/3 135/3/3 133/3/3
f 137/2/3 136/2/3 135/2/3
f 138/3/3 134/3/3 136/3/3
f 138/2/3 136/2/3 137/2/3
f 139/3/3 137/3/3 133/3/3
f 139/3/3 138/3/3 137/3/3
f 140/3/3 134/3/3 138/3/3
f 140/3/3 138/3/3 139/3/3
f 141/3/3 139/3/3 133/3/3
f 142/2/3 140/2/3 139/2/3
f 142/3/3 139/3/3 141/3/3
f 143/3/3 134/3/3 140/3/3
f 143/2/3 140/2/3 142/2/3
f 144/3/3 134/3/3 143/3/3
f 145/3/4 146/3/4 147/3/4
f 147/3/4 146/3/4 148/3/4
f 145/3/4 147/3/4 149/3/4
f 147/2/4 148/2/4 149/2/4
f 148/3/4 146/3/4 150/3/4
f 149/2/4 148/2/4 150/2/4
f 145/3/4 149/3/4 151/3/4
f 149/3/4 150/3/4 151/3/4
f 150/3/4 146/3/4 152/3/4
f 151/3/4 150/3/4 152/3/4
f 145/3/4 151/3/4 153/3/4
f 151/2/4 152/2/4 154/2/4
f 153/3/4 151/3/4 154/3/4
f 152/3/4 146/3/4 155/3/4
f 154/2/4 152/2/4 155/2/4
f 155/3/4 146/3/4 156/3/4
f 157/1/4 158/1/4 159/1/4
f 159/1/4 158/1/4 160/1/4
f 160/1/4 158/1/4 161/1/4
f 162/1/4 163/1/4 164/1/4
f 164/1/4 163/1/4 165/1/4
f 165/1/4 163/1/4 166/1/4
f 166/1/4 163/1/4 167/1/4
f 167/1/4 163/1/4 168/1/4
f 169/1/4 170/1/4 171/1/4
f 171/1/4 170/1/4 172/1/4
f 172/1/4 170/1/4 173/1/4
f 174/1/4 175/1/4 176/1/4
f 176/1/4 175/1/4 177/1/4
f 177/1/4 175/1/4 178/1/4
f 179/3/4 180/3/4 181/3/4
f 181/3/4 180/3/4 182/3/4
f 183/3/4 184/3/4 185/3/4
f 185/3/4 184/3/4 186/3/4
f 183/3/4 185/3/4 187/3/4
f 185/2/4 186/2/4 187/2/4
f 186/3/4 184/3/4 188/3/4
f 187/2/4 186/2/4 188/2/4
f 183/3/4 187/3/4 189/3/4
f 187/3/4 188/3/4 189/3/4
f 188/3/4 184/3/4 190/3/4
f 189/3/4 188/3/4 190/3/4
f 183/3/4 189/3/4 191/3/4
f 189/2/4 190/2/4 191/2/4
f 190/3/4 184/3/4 192/3/4
f 191/2/4 190/2/4 192/2/4
f 183/3/4 191/3/4 193/3/4
f 191/3/4 192/3/4 193/3/4
f 192/3/4 184/3/4 194/3/4
f 193/3/4 192/3/4 194/3/4
f 197/3/5 196/3/5 195/3/5
f 198/3/5 196/3/5 197/3/5
f 201/3/5 200/3/5 199/3/5
f 202/3/5 200/3/5 201/3/5
f 205/3/5 204/3/5 203/3/5
f 206/3/5 204/3/5 205/3/5
f 207/3/6 208/3/6 209/3/6
f 209/3/6 208/3/6 210/3/6
f 207/3/6 209/3/6 211/3/6
f 207/3/6 211/3/6 213/3/6
f 211/3/6 212/3/6 213/3/6
f 213/3/6 212/3/6 214/3/6
f 207/3/6 213/3/6 215/3/6
f 207/3/6 215/3/6 217/3/6
f 215/3/6 216/3/6 217/3/6
f 217/3/6 216/3/6 218/3/6
f 207/3/6 217/3/6 219/3/6
f 207/3/6 219/3/6 221/3/6
f 219/3/6 220/3/6 221/3/6
f 221/3/6 220/3/6 222/3/6
f 207/3/6 221/3/6 223/3/6
f 207/3/6 223/3/6 225/3/6
f 223/3/6 224/3/6 225/3/6
f 225/3/6 224/3/6 226/3/6
f 227/3/6 228/3/6 229/3/6
f 229/3/6 228/3/6 230/3/6
f 230/3/6 228/3/6 231/3/6
f 231/3/6 228/3/6 232/3/6
f 232/3/6 228/3/6 233/3/6
f 233/3/6 228/3/6 234/3/6
f 234/3/6 228/3/6 235/3/6
f 235/3/6 228/3/6 236/3/6
f 236/3/6 228/3/6 237/3/6
f 237/3/6 228/3/6 238/3/6
f 238/3/6 228/3/6 240/3/6
f 239/3/6 240/3/6 241/3/6
f 240/3/6 228/3/6 242/3/6
f 241/3/6 240/3/6 242/3/6
f 243/1/6 244/1/6 245/1/6
f 245/1/6 244/1/6 246/1/6
f 247/1/6 248/1/6 249/1/6
f 249/1/6 248/1/6 250/1/6
f 251/1/6 252/1/6 253/1/6
f 253/1/6 252/1/6 254/1/6
f 255/1/6 256/1/6 257/1/6
f 257/1/6 256/1/6 258/1/6
