# MagicaVoxel @ Ephtracy

# group
o 

# material
mtllib model-1.mtl
usemtl palette

# normals
vn 0 0 1
vn 0 0 -1
vn 1 0 0
vn -1 0 0
vn 0 -1 0
vn 0 1 0

# texcoords
vt 0.642578 0.5
vt 0.646484 0.5
vt 0.650391 0.5
vt 0.818359 0.5
vt 0.822266 0.5

# verts
v 0.5 0 1
v -0.5 0 1
v 0.4 0.1 1
v -0.4 0.1 1
v 0.5 0.7 1
v 0.4 0.7 1
v -0.4 0.7 1
v -0.5 0.7 1
v 0.6 0.3 0.7
v 0.5 0.3 0.7
v -0.5 0.3 0.7
v -0.6 0.3 0.7
v 0.6 0.7 0.7
v 0.5 0.7 0.7
v -0.5 0.7 0.7
v -0.6 0.7 0.7
v 0.6 0.6 0.4
v 0.5 0.6 0.4
v -0.5 0.6 0.4
v -0.6 0.6 0.4
v 0.6 0.7 0.4
v 0.5 0.7 0.4
v -0.5 0.7 0.4
v -0.6 0.7 0.4
v 0.5 0 -1
v -0.5 0 -1
v 0.4 0.1 -1
v -0.4 0.1 -1
v 0.5 0.3 -1
v 0.4 0.3 -1
v -0.4 0.3 -1
v -0.5 0.3 -1
v 0.5 0.6 -1
v 0.4 0.6 -1
v -0.4 0.6 -1
v -0.5 0.6 -1
v 0.5 0.7 -1
v 0.4 0.7 -1
v -0.4 0.7 -1
v -0.5 0.7 -1
v 0.6 0.3 -1.1
v -0.6 0.3 -1.1
v 0.6 0.6 -1.1
v -0.6 0.6 -1.1
v 0.6 0.3 0.7
v 0.6 0.7 0.7
v 0.6 0.6 0.6
v 0.6 0.7 0.6
v 0.6 0.6 0.5
v 0.6 0.7 0.5
v 0.6 0.4 0.4
v 0.6 0.5 0.4
v 0.6 0.6 0.4
v 0.6 0.7 0.4
v 0.6 0.4 0.3
v 0.6 0.5 0.3
v 0.6 0.4 0
v 0.6 0.5 0
v 0.6 0.4 -0.1
v 0.6 0.5 -0.1
v 0.6 0.4 -0.4
v 0.6 0.5 -0.4
v 0.6 0.4 -0.5
v 0.6 0.5 -0.5
v 0.6 0.3 -1.1
v 0.6 0.6 -1.1
v 0.5 0 1
v 0.5 0.7 1
v 0.5 0.1 0.9
v 0.5 0.7 0.9
v 0.5 0.3 0.7
v 0.5 0.7 0.7
v 0.5 0.6 0.4
v 0.5 0.7 0.4
v 0.5 0.1 0.2
v 0.5 0.3 0.2
v 0.5 0.6 0.2
v 0.5 0.7 0.2
v 0.5 0 0.1
v 0.5 0.3 0.1
v 0.5 0.6 0.1
v 0.5 0.7 0.1
v 0.5 0 -0.1
v 0.5 0.3 -0.1
v 0.5 0.6 -0.1
v 0.5 0.7 -0.1
v 0.5 0.1 -0.2
v 0.5 0.3 -0.2
v 0.5 0.6 -0.2
v 0.5 0.7 -0.2
v 0.5 0.1 -0.9
v 0.5 0.3 -0.9
v 0.5 0.6 -0.9
v 0.5 0.7 -0.9
v 0.5 0 -1
v 0.5 0.3 -1
v 0.5 0.6 -1
v 0.5 0.7 -1
v -0.5 0 1
v -0.5 0.7 1
v -0.5 0.1 0.9
v -0.5 0.7 0.9
v -0.5 0.3 0.7
v -0.5 0.7 0.7
v -0.5 0.6 0.4
v -0.5 0.7 0.4
v -0.5 0.1 -0.9
v -0.5 0.3 -0.9
v -0.5 0.6 -0.9
v -0.5 0.7 -0.9
v -0.5 0 -1
v -0.5 0.3 -1
v -0.5 0.6 -1
v -0.5 0.7 -1
v -0.6 0.3 0.7
v -0.6 0.7 0.7
v -0.6 0.6 0.4
v -0.6 0.7 0.4
v -0.6 0.3 -1.1
v -0.6 0.6 -1.1
v 0.5 0 1
v 0.5 0 0.1
v 0.5 0 -0.1
v 0.5 0 -1
v 0.4 0 0.1
v 0.4 0 -0.1
v -0.5 0 1
v -0.5 0 -1
v 0.6 0.3 0.7
v 0.6 0.3 -1.1
v 0.5 0.3 0.7
v 0.5 0.3 0.2
v 0.5 0.3 0.1
v 0.5 0.3 -0.1
v 0.5 0.3 -0.2
v 0.5 0.3 -0.9
v 0.5 0.3 -1
v 0.4 0.3 -1
v -0.4 0.3 -1
v -0.5 0.3 0.7
v -0.5 0.3 -0.9
v -0.5 0.3 -1
v -0.6 0.3 0.7
v -0.6 0.3 -1.1
v 0.6 0.6 0.4
v 0.6 0.6 -1.1
v 0.5 0.6 0.4
v 0.5 0.6 0.2
v 0.5 0.6 0.1
v 0.5 0.6 -0.1
v 0.5 0.6 -0.2
v 0.5 0.6 -0.9
v 0.5 0.6 -1
v 0.4 0.6 -1
v -0.4 0.6 -1
v -0.5 0.6 0.4
v -0.5 0.6 -0.9
v -0.5 0.6 -1
v -0.6 0.6 0.4
v -0.6 0.6 -1.1
v 0.6 0.7 0.7
v 0.6 0.7 0.6
v 0.6 0.7 0.5
v 0.6 0.7 0.4
v 0.5 0.7 1
v 0.5 0.7 0.9
v 0.5 0.7 0.7
v 0.5 0.7 0.6
v 0.5 0.7 0.5
v 0.5 0.7 0.4
v 0.5 0.7 0.2
v 0.5 0.7 0.1
v 0.5 0.7 -0.1
v 0.5 0.7 -0.2
v 0.5 0.7 -0.9
v 0.5 0.7 -1
v 0.4 0.7 1
v 0.4 0.7 0.9
v 0.4 0.7 0.2
v 0.4 0.7 0.1
v 0.4 0.7 -0.1
v 0.4 0.7 -0.2
v 0.4 0.7 -0.9
v 0.4 0.7 -1
v -0.4 0.7 1
v -0.4 0.7 0.9
v -0.4 0.7 -0.9
v -0.4 0.7 -1
v -0.5 0.7 1
v -0.5 0.7 0.9
v -0.5 0.7 0.7
v -0.5 0.7 0.4
v -0.5 0.7 -0.9
v -0.5 0.7 -1
v -0.6 0.7 0.7
v -0.6 0.7 0.4

# faces
f 3/3/1 2/3/1 1/3/1
f 4/3/1 2/3/1 3/3/1
f 5/3/1 3/3/1 1/3/1
f 6/2/1 4/2/1 3/2/1
f 6/3/1 3/3/1 5/3/1
f 7/3/1 2/3/1 4/3/1
f 7/2/1 4/2/1 6/2/1
f 8/3/1 2/3/1 7/3/1
f 13/5/1 10/5/1 9/5/1
f 14/5/1 10/5/1 13/5/1
f 15/5/1 12/5/1 11/5/1
f 16/5/1 12/5/1 15/5/1
f 17/5/2 18/5/2 21/5/2
f 21/5/2 18/5/2 22/5/2
f 19/5/2 20/5/2 23/5/2
f 23/5/2 20/5/2 24/5/2
f 25/3/2 26/3/2 27/3/2
f 27/3/2 26/3/2 28/3/2
f 25/3/2 27/3/2 29/3/2
f 27/2/2 28/2/2 30/2/2
f 29/3/2 27/3/2 30/3/2
f 28/3/2 26/3/2 31/3/2
f 30/2/2 28/2/2 31/2/2
f 31/3/2 26/3/2 32/3/2
f 33/3/2 34/3/2 37/3/2
f 34/2/2 35/2/2 38/2/2
f 37/3/2 34/3/2 38/3/2
f 35/3/2 36/3/2 39/3/2
f 38/2/2 35/2/2 39/2/2
f 39/3/2 36/3/2 40/3/2
f 41/5/2 42/5/2 43/5/2
f 43/5/2 42/5/2 44/5/2
f 47/5/3 46/5/3 45/5/3
f 48/5/3 46/5/3 47/5/3
f 49/5/3 47/5/3 45/5/3
f 49/4/3 48/4/3 47/4/3
f 50/4/3 48/4/3 49/4/3
f 51/5/3 49/5/3 45/5/3
f 51/5/3 50/5/3 49/5/3
f 52/5/3 50/5/3 51/5/3
f 53/5/3 50/5/3 52/5/3
f 54/5/3 50/5/3 53/5/3
f 55/5/3 51/5/3 45/5/3
f 55/4/3 52/4/3 51/4/3
f 56/5/3 53/5/3 52/5/3
f 56/4/3 52/4/3 55/4/3
f 57/5/3 55/5/3 45/5/3
f 57/5/3 56/5/3 55/5/3
f 58/5/3 53/5/3 56/5/3
f 58/5/3 56/5/3 57/5/3
f 59/5/3 57/5/3 45/5/3
f 59/4/3 58/4/3 57/4/3
f 60/5/3 53/5/3 58/5/3
f 60/4/3 58/4/3 59/4/3
f 61/5/3 59/5/3 45/5/3
f 61/5/3 60/5/3 59/5/3
f 62/5/3 53/5/3 60/5/3
f 62/5/3 60/5/3 61/5/3
f 63/5/3 61/5/3 45/5/3
f 63/4/3 62/4/3 61/4/3
f 64/5/3 53/5/3 62/5/3
f 64/4/3 62/4/3 63/4/3
f 65/5/3 63/5/3 45/5/3
f 65/5/3 64/5/3 63/5/3
f 66/5/3 53/5/3 64/5/3
f 66/5/3 64/5/3 65/5/3
f 69/3/3 68/3/3 67/3/3
f 70/3/3 68/3/3 69/3/3
f 71/2/3 70/2/3 69/2/3
f 72/2/3 70/2/3 71/2/3
f 75/3/3 69/3/3 67/3/3
f 75/2/3 71/2/3 69/2/3
f 76/2/3 71/2/3 75/2/3
f 77/2/3 74/2/3 73/2/3
f 78/2/3 74/2/3 77/2/3
f 79/3/3 76/3/3 75/3/3
f 79/3/3 75/3/3 67/3/3
f 80/3/3 76/3/3 79/3/3
f 81/3/3 78/3/3 77/3/3
f 82/3/3 78/3/3 81/3/3
f 83/1/3 80/1/3 79/1/3
f 84/1/3 80/1/3 83/1/3
f 85/1/3 82/1/3 81/1/3
f 86/1/3 82/1/3 85/1/3
f 87/3/3 84/3/3 83/3/3
f 88/3/3 84/3/3 87/3/3
f 89/3/3 86/3/3 85/3/3
f 90/3/3 86/3/3 89/3/3
f 91/2/3 88/2/3 87/2/3
f 91/3/3 87/3/3 83/3/3
f 92/2/3 88/2/3 91/2/3
f 93/2/3 90/2/3 89/2/3
f 94/2/3 90/2/3 93/2/3
f 95/3/3 92/3/3 91/3/3
f 95/3/3 91/3/3 83/3/3
f 96/3/3 92/3/3 95/3/3
f 97/3/3 94/3/3 93/3/3
f 98/3/3 94/3/3 97/3/3
f 99/3/4 100/3/4 101/3/4
f 101/3/4 100/3/4 102/3/4
f 101/2/4 102/2/4 103/2/4
f 103/2/4 102/2/4 104/2/4
f 99/3/4 101/3/4 107/3/4
f 101/2/4 103/2/4 107/2/4
f 107/2/4 103/2/4 108/2/4
f 105/2/4 106/2/4 109/2/4
f 109/2/4 106/2/4 110/2/4
f 107/3/4 108/3/4 111/3/4
f 99/3/4 107/3/4 111/3/4
f 111/3/4 108/3/4 112/3/4
f 109/3/4 110/3/4 113/3/4
f 113/3/4 110/3/4 114/3/4
f 115/5/4 116/5/4 117/5/4
f 117/5/4 116/5/4 118/5/4
f 115/5/4 117/5/4 119/5/4
f 119/5/4 117/5/4 120/5/4
f 125/3/5 122/3/5 121/3/5
f 125/1/5 123/1/5 122/1/5
f 126/3/5 124/3/5 123/3/5
f 126/1/5 123/1/5 125/1/5
f 127/3/5 125/3/5 121/3/5
f 127/3/5 126/3/5 125/3/5
f 128/3/5 124/3/5 126/3/5
f 128/3/5 126/3/5 127/3/5
f 131/5/5 130/5/5 129/5/5
f 132/5/5 130/5/5 131/5/5
f 133/5/5 130/5/5 132/5/5
f 134/5/5 130/5/5 133/5/5
f 135/5/5 130/5/5 134/5/5
f 136/5/5 130/5/5 135/5/5
f 137/5/5 130/5/5 136/5/5
f 138/5/5 130/5/5 137/5/5
f 139/5/5 130/5/5 138/5/5
f 142/5/5 130/5/5 139/5/5
f 143/5/5 141/5/5 140/5/5
f 143/5/5 142/5/5 141/5/5
f 144/5/5 130/5/5 142/5/5
f 144/5/5 142/5/5 143/5/5
f 145/5/6 146/5/6 147/5/6
f 147/5/6 146/5/6 148/5/6
f 148/5/6 146/5/6 149/5/6
f 149/5/6 146/5/6 150/5/6
f 150/5/6 146/5/6 151/5/6
f 151/5/6 146/5/6 152/5/6
f 152/5/6 146/5/6 153/5/6
f 153/5/6 146/5/6 154/5/6
f 154/5/6 146/5/6 155/5/6
f 155/5/6 146/5/6 158/5/6
f 156/5/6 157/5/6 159/5/6
f 157/5/6 158/5/6 159/5/6
f 158/5/6 146/5/6 160/5/6
f 159/5/6 158/5/6 160/5/6
f 161/5/6 162/5/6 167/5/6
f 162/4/6 163/4/6 168/4/6
f 167/5/6 162/5/6 168/5/6
f 163/5/6 164/5/6 169/5/6
f 168/4/6 163/4/6 169/4/6
f 169/5/6 164/5/6 170/5/6
f 165/3/6 166/3/6 177/3/6
f 166/2/6 167/2/6 178/2/6
f 177/3/6 166/3/6 178/3/6
f 167/2/6 168/2/6 178/2/6
f 168/2/6 169/2/6 178/2/6
f 169/2/6 170/2/6 178/2/6
f 170/2/6 171/2/6 178/2/6
f 171/3/6 172/3/6 179/3/6
f 178/2/6 171/2/6 179/2/6
f 172/1/6 173/1/6 180/1/6
f 179/3/6 172/3/6 180/3/6
f 173/3/6 174/3/6 181/3/6
f 180/1/6 173/1/6 181/1/6
f 174/2/6 175/2/6 182/2/6
f 181/3/6 174/3/6 182/3/6
f 175/3/6 176/3/6 183/3/6
f 182/2/6 175/2/6 183/2/6
f 183/3/6 176/3/6 184/3/6
f 181/2/6 182/2/6 185/2/6
f 180/2/6 181/2/6 185/2/6
f 183/2/6 184/2/6 185/2/6
f 182/2/6 183/2/6 185/2/6
f 177/2/6 178/2/6 185/2/6
f 178/2/6 179/2/6 185/2/6
f 179/2/6 180/2/6 185/2/6
f 185/2/6 184/2/6 186/2/6
f 186/2/6 184/2/6 187/2/6
f 187/2/6 184/2/6 188/2/6
f 185/3/6 186/3/6 189/3/6
f 186/2/6 187/2/6 190/2/6
f 189/3/6 186/3/6 190/3/6
f 190/2/6 187/2/6 191/2/6
f 191/2/6 187/2/6 192/2/6
f 187/3/6 188/3/6 193/3/6
f 192/2/6 187/2/6 193/2/6
f 193/3/6 188/3/6 194/3/6
f 191/5/6 192/5/6 195/5/6
f 195/5/6 192/5/6 196/5/6
