# MagicaVoxel @ Ephtracy

# group
o 

# material
mtllib model-0.mtl
usemtl palette

# normals
vn 0 0 1
vn 0 0 -1
vn 1 0 0
vn -1 0 0
vn 0 -1 0
vn 0 1 0

# texcoords
vt 0.00585938 0.5
vt 0.00976563 0.5
vt 0.0253906 0.5
vt 0.642578 0.5
vt 0.646484 0.5
vt 0.650391 0.5
vt 0.775391 0.5
vt 0.818359 0.5
vt 0.822266 0.5

# verts
v 0.5 1.4 1.3
v -0.5 1.4 1.3
v 0.5 2.1 1.3
v -0.5 2.1 1.3
v 0.5 0.6 1
v 0.4 0.6 1
v -0.4 0.6 1
v -0.5 0.6 1
v 0.4 1.3 1
v -0.4 1.3 1
v 0.5 1.4 1
v -0.5 1.4 1
v 0.7 1.2 0.8
v 0.6 1.2 0.8
v 0.7 1.7 0.8
v 0.6 1.7 0.8
v 0.6 0.6 0.7
v 0.5 0.6 0.7
v -0.5 0.7 0.7
v -0.6 0.7 0.7
v 0.6 1.2 0.7
v 0.5 1.3 0.7
v -0.5 1.3 0.7
v 0.6 1.7 0.7
v 0.5 2.1 0.7
v -0.5 2.1 0.7
v 0.6 2.2 0.7
v -0.6 2.2 0.7
v 0.7 1.5 0.6
v 0.6 1.5 0.6
v 0.7 1.6 0.6
v 0.6 1.6 0.6
v 0.7 1.3 0.4
v 0.6 1.3 0.4
v 0.7 1.6 0.4
v 0.6 1.6 0.4
v 0.7 1.3 0.7
v 0.6 1.3 0.7
v 0.7 1.6 0.7
v 0.6 1.6 0.7
v 0.7 1.5 0.5
v 0.6 1.5 0.5
v 0.7 1.6 0.5
v 0.6 1.6 0.5
v 0.6 0.6 0.4
v 0.5 0.6 0.4
v -0.5 0.7 0.4
v -0.6 0.7 0.4
v 0.6 1.2 0.4
v 0.5 1.5 0.4
v 0.6 1.7 0.4
v 0.5 1.7 0.4
v -0.5 1.7 0.4
v -0.5 1.8 0.4
v 0.5 1.9 0.4
v -0.5 2 0.4
v 0.6 2.2 0.4
v 0.5 2.2 0.4
v -0.5 2.2 0.4
v -0.6 2.2 0.4
v 0.7 1.2 0.3
v 0.6 1.2 0.3
v 0.7 1.7 0.3
v 0.6 1.7 0.3
v 0.5 2.1 -0.4
v -0.5 2.1 -0.4
v 0.5 2.2 -0.4
v -0.5 2.2 -0.4
v 0.5 0.6 -1
v 0.4 0.6 -1
v -0.4 0.6 -1
v -0.5 0.6 -1
v 0.4 1.3 -1
v -0.4 1.3 -1
v 0.5 1.4 -1
v -0.5 1.4 -1
v 0.5 1.4 -1.3
v -0.5 1.4 -1.3
v 0.5 2.1 -1.3
v -0.5 2.1 -1.3
v 0.7 1.2 0.8
v 0.7 1.7 0.8
v 0.7 1.3 0.7
v 0.7 1.6 0.7
v 0.7 1.5 0.6
v 0.7 1.6 0.6
v 0.7 1.5 0.5
v 0.7 1.6 0.5
v 0.7 1.3 0.4
v 0.7 1.6 0.4
v 0.7 1.2 0.3
v 0.7 1.7 0.3
v 0.6 0.6 0.7
v 0.6 1.2 0.7
v 0.6 1.3 0.7
v 0.6 1.6 0.7
v 0.6 1.7 0.7
v 0.6 2.2 0.7
v 0.6 0.6 0.6
v 0.6 0.7 0.6
v 0.6 1 0.6
v 0.6 1.1 0.6
v 0.6 1.4 0.6
v 0.6 1.5 0.6
v 0.6 1.6 0.6
v 0.6 1.8 0.6
v 0.6 1.9 0.6
v 0.6 0.6 0.5
v 0.6 0.7 0.5
v 0.6 1 0.5
v 0.6 1.1 0.5
v 0.6 1.4 0.5
v 0.6 1.5 0.5
v 0.6 1.6 0.5
v 0.6 1.8 0.5
v 0.6 1.9 0.5
v 0.6 0.6 0.4
v 0.6 1.2 0.4
v 0.6 1.3 0.4
v 0.6 1.6 0.4
v 0.6 1.7 0.4
v 0.6 2.2 0.4
v 0.5 1.4 1.3
v 0.5 2.1 1.3
v 0.5 1.5 1.2
v 0.5 1.6 1.2
v 0.5 1.8 1.2
v 0.5 1.9 1.2
v 0.5 1.5 1.1
v 0.5 1.6 1.1
v 0.5 1.8 1.1
v 0.5 1.9 1.1
v 0.5 0.6 1
v 0.5 1.4 1
v 0.5 0.6 0.9
v 0.5 1.3 0.9
v 0.5 1.4 0.8
v 0.5 2.1 0.8
v 0.5 0.6 0.7
v 0.5 1.3 0.7
v 0.5 2.1 0.7
v 0.5 0.6 0.4
v 0.5 1.5 0.4
v 0.5 1.7 0.4
v 0.5 1.9 0.4
v 0.5 2.2 0.4
v 0.5 1.6 0.3
v 0.5 1.7 0.3
v 0.5 1.8 0.3
v 0.5 1.9 0.3
v 0.5 0.6 0.2
v 0.5 1.5 0.2
v 0.5 0.6 0.1
v 0.5 1.6 0.1
v 0.5 1.7 0.1
v 0.5 1.8 0.1
v 0.5 0.6 -0.0999999
v 0.5 1.6 -0.0999999
v 0.5 1.7 -0.0999999
v 0.5 1.8 -0.0999999
v 0.5 0.6 -0.2
v 0.5 1.5 -0.2
v 0.5 1.6 -0.3
v 0.5 1.7 -0.3
v 0.5 1.8 -0.3
v 0.5 1.9 -0.3
v 0.5 1.5 -0.4
v 0.5 1.6 -0.4
v 0.5 1.7 -0.4
v 0.5 1.8 -0.4
v 0.5 1.9 -0.4
v 0.5 2.1 -0.4
v 0.5 2.2 -0.4
v 0.5 1.6 -0.5
v 0.5 1.7 -0.5
v 0.5 1.8 -0.5
v 0.5 1.9 -0.5
v 0.5 1.7 -0.6
v 0.5 1.8 -0.6
v 0.5 1.9 -0.6
v 0.5 2.1 -0.6
v 0.5 1.3 -0.7
v 0.5 1.8 -0.7
v 0.5 1.4 -0.8
v 0.5 2.1 -0.8
v 0.5 0.6 -0.9
v 0.5 1.3 -0.9
v 0.5 0.6 -1
v 0.5 1.4 -1
v 0.5 1.5 -1.1
v 0.5 1.6 -1.1
v 0.5 1.8 -1.1
v 0.5 1.9 -1.1
v 0.5 1.5 -1.2
v 0.5 1.6 -1.2
v 0.5 1.8 -1.2
v 0.5 1.9 -1.2
v 0.5 1.4 -1.3
v 0.5 2.1 -1.3
v 0.6 1.2 0.8
v 0.6 1.7 0.8
v 0.6 1.2 0.7
v 0.6 1.7 0.7
v 0.6 1.2 0.4
v 0.6 1.7 0.4
v 0.6 1.2 0.3
v 0.6 1.7 0.3
v -0.5 1.4 1.3
v -0.5 2.1 1.3
v -0.5 1.5 1.2
v -0.5 1.6 1.2
v -0.5 1.8 1.2
v -0.5 1.9 1.2
v -0.5 1.5 1.1
v -0.5 1.6 1.1
v -0.5 1.8 1.1
v -0.5 1.9 1.1
v -0.5 0.6 1
v -0.5 1.4 1
v -0.5 0.6 0.9
v -0.5 1.3 0.9
v -0.5 1.4 0.8
v -0.5 2.1 0.8
v -0.5 0.7 0.7
v -0.5 1.3 0.7
v -0.5 2.1 0.7
v -0.5 0.7 0.4
v -0.5 1.7 0.4
v -0.5 1.8 0.4
v -0.5 2 0.4
v -0.5 2.2 0.4
v -0.5 2 -0.4
v -0.5 2.1 -0.4
v -0.5 2.2 -0.4
v -0.5 1.8 -0.6
v -0.5 2.1 -0.6
v -0.5 1.3 -0.7
v -0.5 1.7 -0.7
v -0.5 1.4 -0.8
v -0.5 2.1 -0.8
v -0.5 0.6 -0.9
v -0.5 1.3 -0.9
v -0.5 0.6 -1
v -0.5 1.4 -1
v -0.5 1.5 -1.1
v -0.5 1.6 -1.1
v -0.5 1.8 -1.1
v -0.5 1.9 -1.1
v -0.5 1.5 -1.2
v -0.5 1.6 -1.2
v -0.5 1.8 -1.2
v -0.5 1.9 -1.2
v -0.5 1.4 -1.3
v -0.5 2.1 -1.3
v -0.6 0.7 0.7
v -0.6 2.2 0.7
v -0.6 0.7 0.4
v -0.6 2.2 0.4
v 0.6 0.6 0.7
v 0.6 0.6 0.6
v 0.6 0.6 0.5
v 0.6 0.6 0.4
v 0.5 0.6 1
v 0.5 0.6 0.9
v 0.5 0.6 0.7
v 0.5 0.6 0.6
v 0.5 0.6 0.5
v 0.5 0.6 0.4
v 0.5 0.6 0.2
v 0.5 0.6 0.1
v 0.5 0.6 -0.0999999
v 0.5 0.6 -0.2
v 0.5 0.6 -0.9
v 0.5 0.6 -1
v 0.4 0.6 1
v 0.4 0.6 0.9
v 0.4 0.6 0.2
v 0.4 0.6 0.1
v 0.4 0.6 -0.0999999
v 0.4 0.6 -0.2
v 0.4 0.6 -0.9
v 0.4 0.6 -1
v -0.4 0.6 1
v -0.4 0.6 0.9
v -0.4 0.6 -0.9
v -0.4 0.6 -1
v -0.5 0.6 1
v -0.5 0.6 0.9
v -0.5 0.6 -0.9
v -0.5 0.6 -1
v -0.5 0.7 0.7
v -0.5 0.7 0.4
v -0.6 0.7 0.7
v -0.6 0.7 0.4
v 0.7 1.2 0.8
v 0.7 1.2 0.3
v 0.6 1.2 0.8
v 0.6 1.2 0.7
v 0.6 1.2 0.4
v 0.6 1.2 0.3
v 0.5 1.4 1.3
v 0.5 1.4 1
v 0.5 1.4 -1
v 0.5 1.4 -1.3
v -0.5 1.4 1.3
v -0.5 1.4 1
v -0.5 1.4 -1
v -0.5 1.4 -1.3
v 0.7 1.5 0.6
v 0.7 1.5 0.5
v 0.6 1.5 0.6
v 0.6 1.5 0.5
v 0.7 1.6 0.7
v 0.7 1.6 0.6
v 0.7 1.6 0.5
v 0.7 1.6 0.4
v 0.6 1.6 0.7
v 0.6 1.6 0.6
v 0.6 1.6 0.5
v 0.6 1.6 0.4
v 0.7 1.3 0.7
v 0.7 1.3 0.4
v 0.6 1.3 0.7
v 0.6 1.3 0.4
v 0.7 1.7 0.8
v 0.7 1.7 0.3
v 0.6 1.7 0.8
v 0.6 1.7 0.7
v 0.6 1.7 0.4
v 0.6 1.7 0.3
v 0.5 2.1 1.3
v 0.5 2.1 0.8
v 0.5 2.1 0.7
v 0.5 2.1 -0.4
v 0.5 2.1 -0.6
v 0.5 2.1 -0.8
v 0.5 2.1 -1.3
v 0.3 2.1 1.2
v 0.3 2.1 1.1
v 0.3 2.1 -1.1
v 0.3 2.1 -1.2
v 0.2 2.1 1.2
v 0.2 2.1 1.1
v 0.2 2.1 -1.1
v 0.2 2.1 -1.2
v -0.2 2.1 1.2
v -0.2 2.1 1.1
v -0.2 2.1 -1.1
v -0.2 2.1 -1.2
v -0.3 2.1 1.2
v -0.3 2.1 1.1
v -0.3 2.1 -1.1
v -0.3 2.1 -1.2
v -0.5 2.1 1.3
v -0.5 2.1 0.8
v -0.5 2.1 0.7
v -0.5 2.1 -0.4
v -0.5 2.1 -0.6
v -0.5 2.1 -0.8
v -0.5 2.1 -1.3
v 0.6 2.2 0.7
v 0.6 2.2 0.4
v 0.5 2.2 0.4
v 0.5 2.2 -0.4
v -0.5 2.2 0.4
v -0.5 2.2 -0.4
v -0.6 2.2 0.7
v -0.6 2.2 0.4

# faces
f 3/1/1 2/1/1 1/1/1
f 4/1/1 2/1/1 3/1/1
f 9/6/1 6/6/1 5/6/1
f 9/5/1 7/5/1 6/5/1
f 10/6/1 8/6/1 7/6/1
f 10/5/1 7/5/1 9/5/1
f 11/6/1 9/6/1 5/6/1
f 11/6/1 10/6/1 9/6/1
f 12/6/1 8/6/1 10/6/1
f 12/6/1 10/6/1 11/6/1
f 15/7/1 14/7/1 13/7/1
f 16/7/1 14/7/1 15/7/1
f 21/9/1 18/9/1 17/9/1
f 22/9/1 18/9/1 21/9/1
f 23/9/1 20/9/1 19/9/1
f 24/9/1 22/9/1 21/9/1
f 25/9/1 22/9/1 24/9/1
f 26/9/1 20/9/1 23/9/1
f 27/9/1 25/9/1 24/9/1
f 27/9/1 26/9/1 25/9/1
f 28/9/1 20/9/1 26/9/1
f 28/9/1 26/9/1 27/9/1
f 31/7/1 30/7/1 29/7/1
f 32/7/1 30/7/1 31/7/1
f 35/7/1 34/7/1 33/7/1
f 36/7/1 34/7/1 35/7/1
f 37/7/2 38/7/2 39/7/2
f 39/7/2 38/7/2 40/7/2
f 41/7/2 42/7/2 43/7/2
f 43/7/2 42/7/2 44/7/2
f 45/9/2 46/9/2 49/9/2
f 49/9/2 46/9/2 50/9/2
f 49/9/2 50/9/2 51/9/2
f 51/9/2 50/9/2 52/9/2
f 47/9/2 48/9/2 53/9/2
f 53/9/2 48/9/2 54/9/2
f 51/9/2 52/9/2 55/9/2
f 54/9/2 48/9/2 56/9/2
f 51/9/2 55/9/2 57/9/2
f 57/9/2 55/9/2 58/9/2
f 56/9/2 48/9/2 59/9/2
f 59/9/2 48/9/2 60/9/2
f 61/7/2 62/7/2 63/7/2
f 63/7/2 62/7/2 64/7/2
f 65/3/2 66/3/2 67/3/2
f 67/3/2 66/3/2 68/3/2
f 69/6/2 70/6/2 73/6/2
f 70/5/2 71/5/2 73/5/2
f 71/6/2 72/6/2 74/6/2
f 73/5/2 71/5/2 74/5/2
f 69/6/2 73/6/2 75/6/2
f 73/6/2 74/6/2 75/6/2
f 74/6/2 72/6/2 76/6/2
f 75/6/2 74/6/2 76/6/2
f 77/1/2 78/1/2 79/1/2
f 79/1/2 78/1/2 80/1/2
f 83/7/3 82/7/3 81/7/3
f 84/7/3 82/7/3 83/7/3
f 86/7/3 82/7/3 84/7/3
f 87/7/3 86/7/3 85/7/3
f 88/7/3 82/7/3 86/7/3
f 88/7/3 86/7/3 87/7/3
f 89/7/3 83/7/3 81/7/3
f 90/7/3 82/7/3 88/7/3
f 91/7/3 89/7/3 81/7/3
f 91/7/3 90/7/3 89/7/3
f 92/7/3 82/7/3 90/7/3
f 92/7/3 90/7/3 91/7/3
f 99/9/3 94/9/3 93/9/3
f 100/9/3 94/9/3 99/9/3
f 101/9/3 94/9/3 100/9/3
f 102/9/3 94/9/3 101/9/3
f 103/9/3 96/9/3 95/9/3
f 104/9/3 96/9/3 103/9/3
f 105/9/3 96/9/3 104/9/3
f 106/9/3 98/9/3 97/9/3
f 107/9/3 98/9/3 106/9/3
f 108/8/3 100/8/3 99/8/3
f 109/9/3 101/9/3 100/9/3
f 109/8/3 100/8/3 108/8/3
f 110/8/3 102/8/3 101/8/3
f 110/9/3 101/9/3 109/9/3
f 111/9/3 94/9/3 102/9/3
f 111/8/3 102/8/3 110/8/3
f 112/9/3 103/9/3 95/9/3
f 112/8/3 104/8/3 103/8/3
f 113/8/3 104/8/3 112/8/3
f 115/8/3 107/8/3 106/8/3
f 115/9/3 106/9/3 97/9/3
f 116/9/3 98/9/3 107/9/3
f 116/8/3 107/8/3 115/8/3
f 117/9/3 110/9/3 109/9/3
f 117/9/3 109/9/3 108/9/3
f 117/9/3 111/9/3 110/9/3
f 118/9/3 94/9/3 111/9/3
f 118/9/3 111/9/3 117/9/3
f 119/9/3 114/9/3 113/9/3
f 119/9/3 112/9/3 95/9/3
f 119/9/3 113/9/3 112/9/3
f 120/9/3 114/9/3 119/9/3
f 121/9/3 115/9/3 97/9/3
f 121/9/3 116/9/3 115/9/3
f 122/9/3 98/9/3 116/9/3
f 122/9/3 116/9/3 121/9/3
f 125/1/3 124/1/3 123/1/3
f 126/1/3 124/1/3 125/1/3
f 127/1/3 124/1/3 126/1/3
f 128/1/3 124/1/3 127/1/3
f 129/1/3 125/1/3 123/1/3
f 129/2/3 126/2/3 125/2/3
f 130/1/3 127/1/3 126/1/3
f 130/2/3 126/2/3 129/2/3
f 131/2/3 128/2/3 127/2/3
f 131/1/3 127/1/3 130/1/3
f 132/1/3 124/1/3 128/1/3
f 132/2/3 128/2/3 131/2/3
f 134/1/3 131/1/3 130/1/3
f 134/1/3 130/1/3 129/1/3
f 134/1/3 132/1/3 131/1/3
f 134/1/3 129/1/3 123/1/3
f 135/6/3 134/6/3 133/6/3
f 136/6/3 134/6/3 135/6/3
f 137/1/3 132/1/3 134/1/3
f 137/6/3 134/6/3 136/6/3
f 138/1/3 124/1/3 132/1/3
f 138/1/3 132/1/3 137/1/3
f 139/5/3 136/5/3 135/5/3
f 140/6/3 137/6/3 136/6/3
f 140/5/3 136/5/3 139/5/3
f 140/6/3 138/6/3 137/6/3
f 141/6/3 138/6/3 140/6/3
f 147/6/3 144/6/3 143/6/3
f 148/4/3 145/4/3 144/4/3
f 148/6/3 144/6/3 147/6/3
f 149/4/3 145/4/3 148/4/3
f 150/3/3 146/3/3 145/3/3
f 150/4/3 145/4/3 149/4/3
f 151/5/3 143/5/3 142/5/3
f 152/6/3 147/6/3 143/6/3
f 152/5/3 143/5/3 151/5/3
f 153/6/3 152/6/3 151/6/3
f 154/4/3 149/4/3 148/4/3
f 154/6/3 152/6/3 153/6/3
f 154/4/3 148/4/3 147/4/3
f 154/6/3 147/6/3 152/6/3
f 155/4/3 149/4/3 154/4/3
f 156/3/3 150/3/3 149/3/3
f 156/4/3 149/4/3 155/4/3
f 157/4/3 155/4/3 154/4/3
f 157/4/3 154/4/3 153/4/3
f 158/4/3 155/4/3 157/4/3
f 159/3/3 156/3/3 155/3/3
f 159/4/3 155/4/3 158/4/3
f 160/3/3 150/3/3 156/3/3
f 160/3/3 156/3/3 159/3/3
f 161/6/3 158/6/3 157/6/3
f 162/6/3 158/6/3 161/6/3
f 163/4/3 159/4/3 158/4/3
f 163/6/3 158/6/3 162/6/3
f 163/4/3 160/4/3 159/4/3
f 164/4/3 160/4/3 163/4/3
f 165/3/3 150/3/3 160/3/3
f 165/4/3 160/4/3 164/4/3
f 166/3/3 146/3/3 150/3/3
f 166/3/3 150/3/3 165/3/3
f 167/5/3 162/5/3 161/5/3
f 167/6/3 164/6/3 163/6/3
f 167/6/3 163/6/3 162/6/3
f 168/6/3 164/6/3 167/6/3
f 169/4/3 165/4/3 164/4/3
f 169/6/3 164/6/3 168/6/3
f 169/4/3 166/4/3 165/4/3
f 170/4/3 166/4/3 169/4/3
f 171/3/3 146/3/3 166/3/3
f 171/4/3 166/4/3 170/4/3
f 172/3/3 146/3/3 171/3/3
f 173/3/3 146/3/3 172/3/3
f 174/5/3 168/5/3 167/5/3
f 174/6/3 170/6/3 169/6/3
f 174/6/3 169/6/3 168/6/3
f 175/6/3 170/6/3 174/6/3
f 176/4/3 172/4/3 171/4/3
f 176/6/3 170/6/3 175/6/3
f 176/4/3 171/4/3 170/4/3
f 177/4/3 172/4/3 176/4/3
f 178/5/3 175/5/3 174/5/3
f 178/6/3 176/6/3 175/6/3
f 178/6/3 177/6/3 176/6/3
f 179/6/3 177/6/3 178/6/3
f 180/4/3 172/4/3 177/4/3
f 180/6/3 177/6/3 179/6/3
f 181/4/3 172/4/3 180/4/3
f 182/5/3 179/5/3 178/5/3
f 182/5/3 167/5/3 161/5/3
f 182/5/3 174/5/3 167/5/3
f 182/5/3 178/5/3 174/5/3
f 183/6/3 181/6/3 180/6/3
f 183/5/3 179/5/3 182/5/3
f 183/6/3 180/6/3 179/6/3
f 184/6/3 183/6/3 182/6/3
f 185/6/3 181/6/3 183/6/3
f 185/6/3 183/6/3 184/6/3
f 186/5/3 182/5/3 161/5/3
f 187/6/3 184/6/3 182/6/3
f 187/5/3 182/5/3 186/5/3
f 188/6/3 187/6/3 186/6/3
f 189/1/3 185/1/3 184/1/3
f 189/6/3 187/6/3 188/6/3
f 189/6/3 184/6/3 187/6/3
f 190/1/3 185/1/3 189/1/3
f 191/1/3 185/1/3 190/1/3
f 192/1/3 185/1/3 191/1/3
f 193/1/3 185/1/3 192/1/3
f 194/1/3 190/1/3 189/1/3
f 194/2/3 191/2/3 190/2/3
f 195/1/3 192/1/3 191/1/3
f 195/2/3 191/2/3 194/2/3
f 196/2/3 193/2/3 192/2/3
f 196/1/3 192/1/3 195/1/3
f 197/1/3 185/1/3 193/1/3
f 197/2/3 193/2/3 196/2/3
f 198/1/3 196/1/3 195/1/3
f 198/1/3 195/1/3 194/1/3
f 198/1/3 197/1/3 196/1/3
f 198/1/3 194/1/3 189/1/3
f 199/1/3 185/1/3 197/1/3
f 199/1/3 197/1/3 198/1/3
f 200/7/4 201/7/4 202/7/4
f 202/7/4 201/7/4 203/7/4
f 204/7/4 205/7/4 206/7/4
f 206/7/4 205/7/4 207/7/4
f 208/1/4 209/1/4 210/1/4
f 210/1/4 209/1/4 211/1/4
f 211/1/4 209/1/4 212/1/4
f 212/1/4 209/1/4 213/1/4
f 208/1/4 210/1/4 214/1/4
f 210/2/4 211/2/4 214/2/4
f 211/1/4 212/1/4 215/1/4
f 214/2/4 211/2/4 215/2/4
f 212/2/4 213/2/4 216/2/4
f 215/1/4 212/1/4 216/1/4
f 213/1/4 209/1/4 217/1/4
f 216/2/4 213/2/4 217/2/4
f 215/1/4 216/1/4 219/1/4
f 214/1/4 215/1/4 219/1/4
f 216/1/4 217/1/4 219/1/4
f 208/1/4 214/1/4 219/1/4
f 218/6/4 219/6/4 220/6/4
f 220/6/4 219/6/4 221/6/4
f 219/1/4 217/1/4 222/1/4
f 221/6/4 219/6/4 222/6/4
f 217/1/4 209/1/4 223/1/4
f 222/1/4 217/1/4 223/1/4
f 220/5/4 221/5/4 224/5/4
f 221/6/4 222/6/4 225/6/4
f 224/5/4 221/5/4 225/5/4
f 222/6/4 223/6/4 225/6/4
f 225/6/4 223/6/4 226/6/4
f 220/5/4 224/5/4 227/5/4
f 229/4/4 230/4/4 232/4/4
f 230/3/4 231/3/4 232/3/4
f 232/3/4 231/3/4 233/3/4
f 233/3/4 231/3/4 234/3/4
f 228/6/4 229/6/4 235/6/4
f 229/4/4 232/4/4 235/4/4
f 232/4/4 233/4/4 235/4/4
f 235/4/4 233/4/4 236/4/4
f 227/5/4 228/5/4 237/5/4
f 228/6/4 235/6/4 238/6/4
f 237/5/4 228/5/4 238/5/4
f 235/6/4 236/6/4 238/6/4
f 237/6/4 238/6/4 239/6/4
f 238/6/4 236/6/4 240/6/4
f 239/6/4 238/6/4 240/6/4
f 220/5/4 227/5/4 241/5/4
f 227/5/4 237/5/4 241/5/4
f 237/6/4 239/6/4 242/6/4
f 241/5/4 237/5/4 242/5/4
f 241/6/4 242/6/4 243/6/4
f 239/1/4 240/1/4 244/1/4
f 243/6/4 242/6/4 244/6/4
f 242/6/4 239/6/4 244/6/4
f 244/1/4 240/1/4 245/1/4
f 245/1/4 240/1/4 246/1/4
f 246/1/4 240/1/4 247/1/4
f 247/1/4 240/1/4 248/1/4
f 244/1/4 245/1/4 249/1/4
f 245/2/4 246/2/4 249/2/4
f 246/1/4 247/1/4 250/1/4
f 249/2/4 246/2/4 250/2/4
f 247/2/4 248/2/4 251/2/4
f 250/1/4 247/1/4 251/1/4
f 248/1/4 240/1/4 252/1/4
f 251/2/4 248/2/4 252/2/4
f 250/1/4 251/1/4 253/1/4
f 249/1/4 250/1/4 253/1/4
f 251/1/4 252/1/4 253/1/4
f 244/1/4 249/1/4 253/1/4
f 252/1/4 240/1/4 254/1/4
f 253/1/4 252/1/4 254/1/4
f 255/9/4 256/9/4 257/9/4
f 257/9/4 256/9/4 258/9/4
f 265/9/5 260/9/5 259/9/5
f 266/8/5 261/8/5 260/8/5
f 266/9/5 260/9/5 265/9/5
f 267/9/5 262/9/5 261/9/5
f 267/8/5 261/8/5 266/8/5
f 268/9/5 262/9/5 267/9/5
f 275/6/5 264/6/5 263/6/5
f 276/5/5 265/5/5 264/5/5
f 276/6/5 264/6/5 275/6/5
f 276/5/5 266/5/5 265/5/5
f 276/5/5 267/5/5 266/5/5
f 276/5/5 268/5/5 267/5/5
f 276/5/5 269/5/5 268/5/5
f 277/6/5 270/6/5 269/6/5
f 277/5/5 269/5/5 276/5/5
f 278/4/5 271/4/5 270/4/5
f 278/6/5 270/6/5 277/6/5
f 279/6/5 272/6/5 271/6/5
f 279/4/5 271/4/5 278/4/5
f 280/5/5 273/5/5 272/5/5
f 280/6/5 272/6/5 279/6/5
f 281/6/5 274/6/5 273/6/5
f 281/5/5 273/5/5 280/5/5
f 282/6/5 274/6/5 281/6/5
f 283/5/5 280/5/5 279/5/5
f 283/5/5 279/5/5 278/5/5
f 283/5/5 282/5/5 281/5/5
f 283/5/5 281/5/5 280/5/5
f 283/5/5 276/5/5 275/5/5
f 283/5/5 277/5/5 276/5/5
f 283/5/5 278/5/5 277/5/5
f 284/5/5 282/5/5 283/5/5
f 285/5/5 282/5/5 284/5/5
f 286/5/5 282/5/5 285/5/5
f 287/6/5 284/6/5 283/6/5
f 288/5/5 285/5/5 284/5/5
f 288/6/5 284/6/5 287/6/5
f 289/6/5 286/6/5 285/6/5
f 289/5/5 285/5/5 288/5/5
f 290/6/5 286/6/5 289/6/5
f 293/9/5 292/9/5 291/9/5
f 294/9/5 292/9/5 293/9/5
f 297/7/5 296/7/5 295/7/5
f 298/7/5 296/7/5 297/7/5
f 299/7/5 296/7/5 298/7/5
f 300/7/5 296/7/5 299/7/5
f 305/1/5 302/1/5 301/1/5
f 306/1/5 302/1/5 305/1/5
f 307/1/5 304/1/5 303/1/5
f 308/1/5 304/1/5 307/1/5
f 311/7/5 310/7/5 309/7/5
f 312/7/5 310/7/5 311/7/5
f 317/7/5 314/7/5 313/7/5
f 318/7/5 314/7/5 317/7/5
f 319/7/5 316/7/5 315/7/5
f 320/7/5 316/7/5 319/7/5
f 321/7/6 322/7/6 323/7/6
f 323/7/6 322/7/6 324/7/6
f 325/7/6 326/7/6 327/7/6
f 327/7/6 326/7/6 328/7/6
f 328/7/6 326/7/6 329/7/6
f 329/7/6 326/7/6 330/7/6
f 331/1/6 332/1/6 338/1/6
f 338/1/6 332/1/6 339/1/6
f 336/1/6 337/1/6 340/1/6
f 340/1/6 337/1/6 341/1/6
f 331/1/6 338/1/6 342/1/6
f 338/2/6 339/2/6 342/2/6
f 339/1/6 332/1/6 343/1/6
f 342/2/6 339/2/6 343/2/6
f 340/2/6 341/2/6 344/2/6
f 336/1/6 340/1/6 344/1/6
f 341/1/6 337/1/6 345/1/6
f 344/2/6 341/2/6 345/2/6
f 331/1/6 342/1/6 346/1/6
f 342/1/6 343/1/6 346/1/6
f 343/1/6 332/1/6 347/1/6
f 346/1/6 343/1/6 347/1/6
f 336/1/6 344/1/6 348/1/6
f 344/1/6 345/1/6 348/1/6
f 345/1/6 337/1/6 349/1/6
f 348/1/6 345/1/6 349/1/6
f 331/1/6 346/1/6 350/1/6
f 346/2/6 347/2/6 350/2/6
f 347/1/6 332/1/6 351/1/6
f 350/2/6 347/2/6 351/2/6
f 336/1/6 348/1/6 352/1/6
f 348/2/6 349/2/6 352/2/6
f 349/1/6 337/1/6 353/1/6
f 352/2/6 349/2/6 353/2/6
f 331/1/6 350/1/6 354/1/6
f 350/1/6 351/1/6 354/1/6
f 351/1/6 332/1/6 355/1/6
f 354/1/6 351/1/6 355/1/6
f 332/6/6 333/6/6 355/6/6
f 355/6/6 333/6/6 356/6/6
f 334/4/6 335/4/6 357/4/6
f 335/6/6 336/6/6 358/6/6
f 357/4/6 335/4/6 358/4/6
f 352/1/6 353/1/6 359/1/6
f 358/6/6 336/6/6 359/6/6
f 336/1/6 352/1/6 359/1/6
f 353/1/6 337/1/6 360/1/6
f 359/1/6 353/1/6 360/1/6
f 361/9/6 362/9/6 363/9/6
f 361/9/6 363/9/6 365/9/6
f 363/3/6 364/3/6 365/3/6
f 365/3/6 364/3/6 366/3/6
f 361/9/6 365/9/6 367/9/6
f 367/9/6 365/9/6 368/9/6
