# MagicaVoxel @ Ephtracy

# group
o 

# material
mtllib model-2.mtl
usemtl palette

# normals
vn 0 0 1
vn 0 0 -1
vn 1 0 0
vn -1 0 0
vn 0 -1 0
vn 0 1 0

# texcoords
vt 0.0136719 0.5
vt 0.0175781 0.5

# verts
v 0.3 1.4 2.4
v -0.3 1.4 2.4
v 0.3 2 2.4
v -0.3 2 2.4
v 0.3 1.4 1.6
v 0.2 1.4 1.6
v 0.1 1.4 1.6
v -0.1 1.4 1.6
v -0.2 1.4 1.6
v -0.3 1.4 1.6
v 0.3 1.5 1.6
v 0.2 1.5 1.6
v 0.1 1.5 1.6
v -0.1 1.5 1.6
v -0.2 1.5 1.6
v -0.3 1.5 1.6
v 0.3 1.6 1.6
v 0.2 1.6 1.6
v -0.2 1.6 1.6
v -0.3 1.6 1.6
v 0.3 1.8 1.6
v 0.2 1.8 1.6
v -0.2 1.8 1.6
v -0.3 1.8 1.6
v 0.3 1.9 1.6
v 0.2 1.9 1.6
v 0.1 1.9 1.6
v -0.1 1.9 1.6
v -0.2 1.9 1.6
v -0.3 1.9 1.6
v 0.3 2 1.6
v 0.2 2 1.6
v 0.1 2 1.6
v -0.1 2 1.6
v -0.2 2 1.6
v -0.3 2 1.6
v 0.3 1.4 2.4
v 0.3 2 2.4
v 0.3 1.4 2
v 0.3 1.5 2
v 0.3 1.6 2
v 0.3 1.8 2
v 0.3 1.9 2
v 0.3 2 2
v 0.3 1.4 1.6
v 0.3 1.5 1.6
v 0.3 1.6 1.6
v 0.3 1.8 1.6
v 0.3 1.9 1.6
v 0.3 2 1.6
v -0.3 1.4 2.4
v -0.3 2 2.4
v -0.3 1.4 2
v -0.3 1.5 2
v -0.3 1.6 2
v -0.3 1.8 2
v -0.3 1.9 2
v -0.3 2 2
v -0.3 1.4 1.6
v -0.3 1.5 1.6
v -0.3 1.6 1.6
v -0.3 1.8 1.6
v -0.3 1.9 1.6
v -0.3 2 1.6
v 0.3 1.4 2.4
v 0.3 1.4 2
v 0.3 1.4 1.6
v 0.2 1.4 2
v 0.2 1.4 1.6
v 0.1 1.4 2
v 0.1 1.4 1.6
v -0.1 1.4 2
v -0.1 1.4 1.6
v -0.2 1.4 2
v -0.2 1.4 1.6
v -0.3 1.4 2.4
v -0.3 1.4 2
v -0.3 1.4 1.6
v 0.3 2 2.4
v 0.3 2 2
v 0.3 2 1.6
v 0.2 2 2
v 0.2 2 1.6
v 0.1 2 2
v 0.1 2 1.6
v -0.1 2 2
v -0.1 2 1.6
v -0.2 2 2
v -0.2 2 1.6
v -0.3 2 2.4
v -0.3 2 2
v -0.3 2 1.6

# faces
f 3/1/1 2/1/1 1/1/1
f 4/1/1 2/1/1 3/1/1
f 5/2/2 6/2/2 11/2/2
f 6/1/2 7/1/2 12/1/2
f 11/2/2 6/2/2 12/2/2
f 7/2/2 8/2/2 13/2/2
f 12/1/2 7/1/2 13/1/2
f 8/1/2 9/1/2 14/1/2
f 13/2/2 8/2/2 14/2/2
f 9/2/2 10/2/2 15/2/2
f 14/1/2 9/1/2 15/1/2
f 15/2/2 10/2/2 16/2/2
f 13/1/2 14/1/2 17/1/2
f 11/1/2 12/1/2 17/1/2
f 15/1/2 16/1/2 17/1/2
f 14/1/2 15/1/2 17/1/2
f 12/1/2 13/1/2 17/1/2
f 17/1/2 16/1/2 18/1/2
f 18/1/2 16/1/2 19/1/2
f 19/1/2 16/1/2 20/1/2
f 17/2/2 18/2/2 21/2/2
f 18/1/2 19/1/2 22/1/2
f 21/2/2 18/2/2 22/2/2
f 19/2/2 20/2/2 23/2/2
f 22/1/2 19/1/2 23/1/2
f 23/2/2 20/2/2 24/2/2
f 21/1/2 22/1/2 25/1/2
f 22/1/2 23/1/2 25/1/2
f 23/1/2 24/1/2 25/1/2
f 25/1/2 24/1/2 26/1/2
f 26/1/2 24/1/2 27/1/2
f 27/1/2 24/1/2 28/1/2
f 28/1/2 24/1/2 29/1/2
f 29/1/2 24/1/2 30/1/2
f 25/2/2 26/2/2 31/2/2
f 26/1/2 27/1/2 32/1/2
f 31/2/2 26/2/2 32/2/2
f 27/2/2 28/2/2 33/2/2
f 32/1/2 27/1/2 33/1/2
f 28/1/2 29/1/2 34/1/2
f 33/2/2 28/2/2 34/2/2
f 29/2/2 30/2/2 35/2/2
f 34/1/2 29/1/2 35/1/2
f 35/2/2 30/2/2 36/2/2
f 39/1/3 38/1/3 37/1/3
f 40/1/3 38/1/3 39/1/3
f 41/1/3 38/1/3 40/1/3
f 42/1/3 38/1/3 41/1/3
f 43/1/3 38/1/3 42/1/3
f 44/1/3 38/1/3 43/1/3
f 45/2/3 40/2/3 39/2/3
f 46/1/3 41/1/3 40/1/3
f 46/2/3 40/2/3 45/2/3
f 47/2/3 42/2/3 41/2/3
f 47/1/3 41/1/3 46/1/3
f 48/1/3 43/1/3 42/1/3
f 48/2/3 42/2/3 47/2/3
f 49/2/3 44/2/3 43/2/3
f 49/1/3 43/1/3 48/1/3
f 50/2/3 44/2/3 49/2/3
f 51/1/4 52/1/4 53/1/4
f 53/1/4 52/1/4 54/1/4
f 54/1/4 52/1/4 55/1/4
f 55/1/4 52/1/4 56/1/4
f 56/1/4 52/1/4 57/1/4
f 57/1/4 52/1/4 58/1/4
f 53/2/4 54/2/4 59/2/4
f 54/1/4 55/1/4 60/1/4
f 59/2/4 54/2/4 60/2/4
f 55/2/4 56/2/4 61/2/4
f 60/1/4 55/1/4 61/1/4
f 56/1/4 57/1/4 62/1/4
f 61/2/4 56/2/4 62/2/4
f 57/2/4 58/2/4 63/2/4
f 62/1/4 57/1/4 63/1/4
f 63/2/4 58/2/4 64/2/4
f 68/1/5 66/1/5 65/1/5
f 68/2/5 67/2/5 66/2/5
f 69/2/5 67/2/5 68/2/5
f 70/1/5 68/1/5 65/1/5
f 70/1/5 69/1/5 68/1/5
f 71/1/5 69/1/5 70/1/5
f 72/1/5 70/1/5 65/1/5
f 72/2/5 71/2/5 70/2/5
f 73/2/5 71/2/5 72/2/5
f 74/1/5 72/1/5 65/1/5
f 74/1/5 73/1/5 72/1/5
f 75/1/5 73/1/5 74/1/5
f 76/1/5 74/1/5 65/1/5
f 77/2/5 75/2/5 74/2/5
f 77/1/5 74/1/5 76/1/5
f 78/2/5 75/2/5 77/2/5
f 79/1/6 80/1/6 82/1/6
f 80/2/6 81/2/6 82/2/6
f 82/2/6 81/2/6 83/2/6
f 79/1/6 82/1/6 84/1/6
f 82/1/6 83/1/6 84/1/6
f 84/1/6 83/1/6 85/1/6
f 79/1/6 84/1/6 86/1/6
f 84/2/6 85/2/6 86/2/6
f 86/2/6 85/2/6 87/2/6
f 79/1/6 86/1/6 88/1/6
f 86/1/6 87/1/6 88/1/6
f 88/1/6 87/1/6 89/1/6
f 79/1/6 88/1/6 90/1/6
f 88/2/6 89/2/6 91/2/6
f 90/1/6 88/1/6 91/1/6
f 91/2/6 89/2/6 92/2/6
