# MagicaVoxel @ Ephtracy

# group
o 

# material
mtllib model-10.mtl
usemtl palette

# normals
vn 0 0 1
vn 0 0 -1
vn 1 0 0
vn -1 0 0
vn 0 -1 0
vn 0 1 0

# texcoords
vt 0.263672 0.5
vt 0.267578 0.5

# verts
v 0.4 0.5 0.9
v -0.4 0.5 0.9
v 0.4 1 0.9
v -0.4 1 0.9
v 0.4 0.5 0.2
v -0.4 0.5 0.2
v 0.4 0.7 0.2
v 0.3 0.7 0.2
v 0.4 1 0.2
v 0.3 1 0.2
v -0.4 1 0.2
v 0.4 0.5 0.9
v 0.4 1 0.9
v 0.4 0.9 0.7
v 0.4 1 0.7
v 0.4 0.7 0.5
v 0.4 0.9 0.5
v 0.4 0.5 0.2
v 0.4 0.7 0.2
v 0.4 1 0.2
v -0.4 0.5 0.9
v -0.4 1 0.9
v -0.4 0.5 0.2
v -0.4 1 0.2
v 0.4 0.5 0.9
v 0.4 0.5 0.2
v -0.4 0.5 0.9
v -0.4 0.5 0.2
v 0.4 1 0.9
v 0.4 1 0.7
v 0.4 1 0.2
v 0.3 1 0.7
v 0.3 1 0.2
v -0.4 1 0.9
v -0.4 1 0.2

# faces
f 3/1/1 2/1/1 1/1/1
f 4/1/1 2/1/1 3/1/1
f 5/1/2 6/1/2 7/1/2
f 7/1/2 6/1/2 8/1/2
f 7/2/2 8/2/2 9/2/2
f 8/1/2 6/1/2 10/1/2
f 9/2/2 8/2/2 10/2/2
f 10/1/2 6/1/2 11/1/2
f 14/1/3 13/1/3 12/1/3
f 15/1/3 13/1/3 14/1/3
f 16/1/3 14/1/3 12/1/3
f 17/2/3 15/2/3 14/2/3
f 17/1/3 14/1/3 16/1/3
f 18/1/3 16/1/3 12/1/3
f 19/2/3 17/2/3 16/2/3
f 19/1/3 16/1/3 18/1/3
f 20/2/3 15/2/3 17/2/3
f 20/2/3 17/2/3 19/2/3
f 21/1/4 22/1/4 23/1/4
f 23/1/4 22/1/4 24/1/4
f 27/1/5 26/1/5 25/1/5
f 28/1/5 26/1/5 27/1/5
f 29/1/6 30/1/6 32/1/6
f 30/2/6 31/2/6 32/2/6
f 32/2/6 31/2/6 33/2/6
f 29/1/6 32/1/6 34/1/6
f 32/1/6 33/1/6 34/1/6
f 34/1/6 33/1/6 35/1/6
