# MagicaVoxel @ Ephtracy

# group
o 

# material
mtllib model-15.mtl
usemtl palette

# normals
vn 0 0 1
vn 0 0 -1
vn 1 0 0
vn -1 0 0
vn 0 -1 0
vn 0 1 0

# texcoords
vt 0.0292969 0.5
vt 0.255859 0.5
vt 0.259766 0.5
vt 0.263672 0.5
vt 0.267578 0.5

# verts
v 0.6 4.6 1.2
v 0.3 4.6 1.2
v 0.2 4.6 1.2
v 0.5 4.9 1.2
v 0.4 4.9 1.2
v 0.5 5 1.2
v 0.4 5 1.2
v 0.6 5.1 1.2
v 0.3 5.1 1.2
v 0.6 5.2 1.2
v 0.2 5.2 1.2
v 0.9 3.7 1.1
v 0.7 3.7 1.1
v -0.1 3.7 1.1
v -0.7 3.7 1.1
v 0.7 3.8 1.1
v -0.1 3.8 1.1
v 0.7 3.9 1.1
v -0.1 3.9 1.1
v 0.7 4 1.1
v -0.1 4 1.1
v 0.7 4.1 1.1
v -0.1 4.1 1.1
v 0.7 4.2 1.1
v -0.1 4.2 1.1
v 0.7 4.3 1.1
v -0.1 4.3 1.1
v 0.7 4.4 1.1
v -0.1 4.4 1.1
v 0.7 4.5 1.1
v -0.1 4.5 1.1
v 0.6 4.6 1.1
v 0.3 4.6 1.1
v 0.2 4.6 1.1
v 0.6 5.1 1.1
v 0.6 5.2 1.1
v 0.2 5.2 1.1
v 0.9 5.6 1.1
v -0.7 5.6 1.1
v 0.9 5.6 0.9
v -0.7 5.6 0.9
v 0.9 6 0.9
v -0.7 6 0.9
v 0.9 6 0.7
v -0.5 6 0.7
v 0.9 6.3 0.7
v -0.5 6.3 0.7
v 0.9 6.3 0.5
v -0.3 6.3 0.5
v 0.9 6.5 0.5
v -0.3 6.5 0.5
v -0.7 3.7 0.1
v -1.9 3.7 0.1
v -1.5 4.3 0.1
v -1.9 4.3 0.1
v -0.7 4.5 0.1
v -1.5 4.5 0.1
v -0.7 3.7 -0.0999999
v -1.9 3.7 -0.0999999
v -1.5 4.3 -0.0999999
v -1.9 4.3 -0.0999999
v -0.7 4.5 -0.0999999
v -1.5 4.5 -0.0999999
v 0.9 6.3 -0.5
v -0.3 6.3 -0.5
v 0.9 6.5 -0.5
v -0.3 6.5 -0.5
v 0.9 6 -0.7
v -0.5 6 -0.7
v 0.9 6.3 -0.7
v -0.5 6.3 -0.7
v 0.9 5.6 -0.9
v -0.7 5.6 -0.9
v 0.9 6 -0.9
v -0.7 6 -0.9
v 0.9 3.7 -1.1
v 0.7 3.7 -1.1
v -0.1 3.7 -1.1
v -0.7 3.7 -1.1
v 0.7 3.8 -1.1
v -0.1 3.8 -1.1
v 0.7 3.9 -1.1
v -0.1 3.9 -1.1
v 0.7 4 -1.1
v -0.1 4 -1.1
v 0.7 4.1 -1.1
v -0.1 4.1 -1.1
v 0.7 4.2 -1.1
v -0.1 4.2 -1.1
v 0.7 4.3 -1.1
v -0.1 4.3 -1.1
v 0.7 4.4 -1.1
v -0.1 4.4 -1.1
v 0.7 4.5 -1.1
v -0.1 4.5 -1.1
v 0.6 4.6 -1.1
v 0.3 4.6 -1.1
v 0.2 4.6 -1.1
v 0.6 5.1 -1.1
v 0.6 5.2 -1.1
v 0.2 5.2 -1.1
v 0.9 5.6 -1.1
v -0.7 5.6 -1.1
v 0.6 4.6 -1.2
v 0.3 4.6 -1.2
v 0.2 4.6 -1.2
v 0.5 4.9 -1.2
v 0.4 4.9 -1.2
v 0.5 5 -1.2
v 0.4 5 -1.2
v 0.6 5.1 -1.2
v 0.3 5.1 -1.2
v 0.6 5.2 -1.2
v 0.2 5.2 -1.2
v 0.9 3.7 1.1
v 0.9 5.6 1.1
v 0.9 4 0.9
v 0.9 4.5 0.9
v 0.9 5.6 0.9
v 0.9 6 0.9
v 0.9 3.7 0.8
v 0.9 4 0.8
v 0.9 4.1 0.8
v 0.9 4.4 0.8
v 0.9 4.5 0.8
v 0.9 5.5 0.8
v 0.9 4.1 0.7
v 0.9 4.2 0.7
v 0.9 4.3 0.7
v 0.9 4.4 0.7
v 0.9 6 0.7
v 0.9 6.3 0.7
v 0.9 4.3 0.6
v 0.9 4.5 0.6
v 0.9 5.5 0.6
v 0.9 5.9 0.6
v 0.9 4.3 0.5
v 0.9 4.5 0.5
v 0.9 6.3 0.5
v 0.9 6.5 0.5
v 0.9 4.1 0.4
v 0.9 4.2 0.4
v 0.9 5.9 0.4
v 0.9 6.2 0.4
v 0.9 4.1 0.3
v 0.9 4.2 0.3
v 0.9 4.3 0.3
v 0.9 4.5 0.3
v 0.9 4.1 0.1
v 0.9 4.2 0.1
v 0.9 4.3 0.1
v 0.9 4.5 0.1
v 0.9 4.1 -0.0999999
v 0.9 4.2 -0.0999999
v 0.9 4.3 -0.0999999
v 0.9 4.5 -0.0999999
v 0.9 4.1 -0.3
v 0.9 4.2 -0.3
v 0.9 4.3 -0.3
v 0.9 4.5 -0.3
v 0.9 4.1 -0.4
v 0.9 4.2 -0.4
v 0.9 5.9 -0.4
v 0.9 6.2 -0.4
v 0.9 4.3 -0.5
v 0.9 4.5 -0.5
v 0.9 6.3 -0.5
v 0.9 6.5 -0.5
v 0.9 4.3 -0.6
v 0.9 4.5 -0.6
v 0.9 5.5 -0.6
v 0.9 5.9 -0.6
v 0.9 4.1 -0.7
v 0.9 4.2 -0.7
v 0.9 4.3 -0.7
v 0.9 4.4 -0.7
v 0.9 6 -0.7
v 0.9 6.3 -0.7
v 0.9 3.7 -0.8
v 0.9 4 -0.8
v 0.9 4.1 -0.8
v 0.9 4.4 -0.8
v 0.9 4.5 -0.8
v 0.9 5.5 -0.8
v 0.9 4 -0.9
v 0.9 4.5 -0.9
v 0.9 5.6 -0.9
v 0.9 6 -0.9
v 0.9 3.7 -1.1
v 0.9 5.6 -1.1
v 0.6 4.6 1.2
v 0.6 5.1 1.2
v 0.6 5.2 1.2
v 0.6 4.6 1.1
v 0.6 5.1 1.1
v 0.6 5.2 1.1
v 0.6 4.6 -1.1
v 0.6 5.1 -1.1
v 0.6 5.2 -1.1
v 0.6 4.6 -1.2
v 0.6 5.1 -1.2
v 0.6 5.2 -1.2
v 0.2 4.6 1.2
v 0.2 5.2 1.2
v 0.2 4.6 1.1
v 0.2 5.2 1.1
v 0.2 4.6 -1.1
v 0.2 5.2 -1.1
v 0.2 4.6 -1.2
v 0.2 5.2 -1.2
v -0.3 6.3 0.5
v -0.3 6.5 0.5
v -0.3 6.3 -0.5
v -0.3 6.5 -0.5
v -0.5 6 0.7
v -0.5 6.3 0.7
v -0.5 6 -0.7
v -0.5 6.3 -0.7
v -0.7 3.7 1.1
v -0.7 5.6 1.1
v -0.7 5.6 0.9
v -0.7 6 0.9
v -0.7 3.7 0.1
v -0.7 4.5 0.1
v -0.7 3.7 -0.0999999
v -0.7 4.5 -0.0999999
v -0.7 5.6 -0.9
v -0.7 6 -0.9
v -0.7 3.7 -1.1
v -0.7 5.6 -1.1
v -1.5 4.3 0.1
v -1.5 4.5 0.1
v -1.5 4.3 -0.0999999
v -1.5 4.5 -0.0999999
v -1.9 3.7 0.1
v -1.9 4.3 0.1
v -1.9 3.7 -0.0999999
v -1.9 4.3 -0.0999999
v 0.9 3.7 1.1
v 0.9 3.7 0.8
v 0.9 3.7 -0.8
v 0.9 3.7 -1.1
v 0.8 3.7 0.8
v 0.8 3.7 -0.8
v 0.7 3.7 1.1
v 0.7 3.7 1
v 0.7 3.7 -1
v 0.7 3.7 -1.1
v -0.1 3.7 1.1
v -0.1 3.7 1
v -0.1 3.7 -1
v -0.1 3.7 -1.1
v -0.7 3.7 1.1
v -0.7 3.7 0.1
v -0.7 3.7 -0.0999999
v -0.7 3.7 -1.1
v -1.9 3.7 0.1
v -1.9 3.7 -0.0999999
v 0.6 4.6 1.2
v 0.6 4.6 1.1
v 0.6 4.6 -1.1
v 0.6 4.6 -1.2
v 0.3 4.6 1.2
v 0.3 4.6 1.1
v 0.3 4.6 -1.1
v 0.3 4.6 -1.2
v 0.2 4.6 1.2
v 0.2 4.6 1.1
v 0.2 4.6 -1.1
v 0.2 4.6 -1.2
v -1.5 4.3 0.1
v -1.5 4.3 -0.0999999
v -1.9 4.3 0.1
v -1.9 4.3 -0.0999999
v -0.7 4.5 0.1
v -0.7 4.5 -0.0999999
v -1.5 4.5 0.1
v -1.5 4.5 -0.0999999
v 0.6 5.2 1.2
v 0.6 5.2 1.1
v 0.6 5.2 -1.1
v 0.6 5.2 -1.2
v 0.2 5.2 1.2
v 0.2 5.2 1.1
v 0.2 5.2 -1.1
v 0.2 5.2 -1.2
v 0.9 5.6 1.1
v 0.9 5.6 0.9
v 0.9 5.6 -0.9
v 0.9 5.6 -1.1
v -0.7 5.6 1.1
v -0.7 5.6 0.9
v -0.7 5.6 -0.9
v -0.7 5.6 -1.1
v 0.9 6 0.9
v 0.9 6 0.7
v 0.9 6 -0.7
v 0.9 6 -0.9
v -0.5 6 0.7
v -0.5 6 -0.7
v -0.7 6 0.9
v -0.7 6 -0.9
v 0.9 6.3 0.7
v 0.9 6.3 0.5
v 0.9 6.3 -0.5
v 0.9 6.3 -0.7
v -0.3 6.3 0.5
v -0.3 6.3 -0.5
v -0.5 6.3 0.7
v -0.5 6.3 -0.7
v 0.9 6.5 0.5
v 0.9 6.5 -0.5
v -0.3 6.5 0.5
v -0.3 6.5 -0.5

# faces
f 4/2/1 2/2/1 1/2/1
f 5/2/1 2/2/1 4/2/1
f 6/2/1 4/2/1 1/2/1
f 6/1/1 5/1/1 4/1/1
f 7/2/1 2/2/1 5/2/1
f 7/1/1 5/1/1 6/1/1
f 8/2/1 6/2/1 1/2/1
f 8/2/1 7/2/1 6/2/1
f 9/4/1 3/4/1 2/4/1
f 9/2/1 7/2/1 8/2/1
f 9/2/1 2/2/1 7/2/1
f 10/4/1 9/4/1 8/4/1
f 11/4/1 3/4/1 9/4/1
f 11/4/1 9/4/1 10/4/1
f 16/4/1 13/4/1 12/4/1
f 16/3/1 14/3/1 13/3/1
f 17/4/1 15/4/1 14/4/1
f 17/3/1 14/3/1 16/3/1
f 18/4/1 16/4/1 12/4/1
f 18/5/1 17/5/1 16/5/1
f 19/4/1 15/4/1 17/4/1
f 19/5/1 17/5/1 18/5/1
f 20/4/1 18/4/1 12/4/1
f 20/4/1 19/4/1 18/4/1
f 21/4/1 15/4/1 19/4/1
f 21/4/1 19/4/1 20/4/1
f 22/4/1 20/4/1 12/4/1
f 22/3/1 21/3/1 20/3/1
f 23/4/1 15/4/1 21/4/1
f 23/3/1 21/3/1 22/3/1
f 24/4/1 22/4/1 12/4/1
f 24/5/1 23/5/1 22/5/1
f 25/4/1 15/4/1 23/4/1
f 25/5/1 23/5/1 24/5/1
f 26/4/1 24/4/1 12/4/1
f 26/4/1 25/4/1 24/4/1
f 27/4/1 15/4/1 25/4/1
f 27/4/1 25/4/1 26/4/1
f 28/4/1 26/4/1 12/4/1
f 28/3/1 27/3/1 26/3/1
f 29/4/1 15/4/1 27/4/1
f 29/3/1 27/3/1 28/3/1
f 30/4/1 28/4/1 12/4/1
f 30/5/1 29/5/1 28/5/1
f 31/4/1 15/4/1 29/4/1
f 31/5/1 29/5/1 30/5/1
f 32/4/1 31/4/1 30/4/1
f 33/4/1 31/4/1 32/4/1
f 34/4/1 31/4/1 33/4/1
f 35/4/1 32/4/1 30/4/1
f 36/4/1 35/4/1 30/4/1
f 37/4/1 31/4/1 34/4/1
f 38/4/1 30/4/1 12/4/1
f 38/4/1 37/4/1 36/4/1
f 38/4/1 36/4/1 30/4/1
f 39/4/1 31/4/1 37/4/1
f 39/4/1 37/4/1 38/4/1
f 39/4/1 15/4/1 31/4/1
f 42/4/1 41/4/1 40/4/1
f 43/4/1 41/4/1 42/4/1
f 46/4/1 45/4/1 44/4/1
f 47/4/1 45/4/1 46/4/1
f 50/4/1 49/4/1 48/4/1
f 51/4/1 49/4/1 50/4/1
f 54/5/1 53/5/1 52/5/1
f 55/5/1 53/5/1 54/5/1
f 56/5/1 54/5/1 52/5/1
f 57/5/1 54/5/1 56/5/1
f 58/5/2 59/5/2 60/5/2
f 60/5/2 59/5/2 61/5/2
f 58/5/2 60/5/2 62/5/2
f 62/5/2 60/5/2 63/5/2
f 64/4/2 65/4/2 66/4/2
f 66/4/2 65/4/2 67/4/2
f 68/4/2 69/4/2 70/4/2
f 70/4/2 69/4/2 71/4/2
f 72/4/2 73/4/2 74/4/2
f 74/4/2 73/4/2 75/4/2
f 76/4/2 77/4/2 80/4/2
f 77/3/2 78/3/2 80/3/2
f 78/4/2 79/4/2 81/4/2
f 80/3/2 78/3/2 81/3/2
f 76/4/2 80/4/2 82/4/2
f 80/5/2 81/5/2 82/5/2
f 81/4/2 79/4/2 83/4/2
f 82/5/2 81/5/2 83/5/2
f 76/4/2 82/4/2 84/4/2
f 82/4/2 83/4/2 84/4/2
f 83/4/2 79/4/2 85/4/2
f 84/4/2 83/4/2 85/4/2
f 76/4/2 84/4/2 86/4/2
f 84/3/2 85/3/2 86/3/2
f 85/4/2 79/4/2 87/4/2
f 86/3/2 85/3/2 87/3/2
f 76/4/2 86/4/2 88/4/2
f 86/5/2 87/5/2 88/5/2
f 87/4/2 79/4/2 89/4/2
f 88/5/2 87/5/2 89/5/2
f 76/4/2 88/4/2 90/4/2
f 88/4/2 89/4/2 90/4/2
f 89/4/2 79/4/2 91/4/2
f 90/4/2 89/4/2 91/4/2
f 76/4/2 90/4/2 92/4/2
f 90/3/2 91/3/2 92/3/2
f 91/4/2 79/4/2 93/4/2
f 92/3/2 91/3/2 93/3/2
f 76/4/2 92/4/2 94/4/2
f 92/5/2 93/5/2 94/5/2
f 93/4/2 79/4/2 95/4/2
f 94/5/2 93/5/2 95/5/2
f 94/4/2 95/4/2 96/4/2
f 96/4/2 95/4/2 97/4/2
f 97/4/2 95/4/2 98/4/2
f 94/4/2 96/4/2 99/4/2
f 94/4/2 99/4/2 100/4/2
f 98/4/2 95/4/2 101/4/2
f 76/4/2 94/4/2 102/4/2
f 100/4/2 101/4/2 102/4/2
f 94/4/2 100/4/2 102/4/2
f 101/4/2 95/4/2 103/4/2
f 102/4/2 101/4/2 103/4/2
f 95/4/2 79/4/2 103/4/2
f 104/2/2 105/2/2 107/2/2
f 107/2/2 105/2/2 108/2/2
f 104/2/2 107/2/2 109/2/2
f 107/1/2 108/1/2 109/1/2
f 108/2/2 105/2/2 110/2/2
f 109/1/2 108/1/2 110/1/2
f 104/2/2 109/2/2 111/2/2
f 109/2/2 110/2/2 111/2/2
f 105/4/2 106/4/2 112/4/2
f 111/2/2 110/2/2 112/2/2
f 110/2/2 105/2/2 112/2/2
f 111/4/2 112/4/2 113/4/2
f 112/4/2 106/4/2 114/4/2
f 113/4/2 112/4/2 114/4/2
f 117/4/3 116/4/3 115/4/3
f 118/4/3 116/4/3 117/4/3
f 119/4/3 116/4/3 118/4/3
f 121/4/3 117/4/3 115/4/3
f 122/5/3 118/5/3 117/5/3
f 122/4/3 117/4/3 121/4/3
f 123/5/3 118/5/3 122/5/3
f 124/5/3 118/5/3 123/5/3
f 125/4/3 120/4/3 119/4/3
f 125/5/3 118/5/3 124/5/3
f 125/4/3 119/4/3 118/4/3
f 126/4/3 120/4/3 125/4/3
f 127/3/3 124/3/3 123/3/3
f 127/5/3 123/5/3 122/5/3
f 127/5/3 122/5/3 121/5/3
f 128/3/3 124/3/3 127/3/3
f 129/3/3 124/3/3 128/3/3
f 130/5/3 126/5/3 125/5/3
f 130/3/3 124/3/3 129/3/3
f 130/5/3 125/5/3 124/5/3
f 131/4/3 120/4/3 126/4/3
f 133/3/3 129/3/3 128/3/3
f 133/5/3 130/5/3 129/5/3
f 134/5/3 126/5/3 130/5/3
f 134/5/3 130/5/3 133/5/3
f 135/4/3 132/4/3 131/4/3
f 135/5/3 126/5/3 134/5/3
f 135/4/3 131/4/3 126/4/3
f 136/4/3 132/4/3 135/4/3
f 137/3/3 133/3/3 128/3/3
f 137/3/3 134/3/3 133/3/3
f 138/5/3 136/5/3 135/5/3
f 138/3/3 134/3/3 137/3/3
f 138/5/3 135/5/3 134/5/3
f 139/4/3 132/4/3 136/4/3
f 141/5/3 128/5/3 127/5/3
f 141/5/3 127/5/3 121/5/3
f 142/3/3 137/3/3 128/3/3
f 142/5/3 128/5/3 141/5/3
f 143/5/3 136/5/3 138/5/3
f 143/4/3 140/4/3 139/4/3
f 143/4/3 139/4/3 136/4/3
f 144/4/3 140/4/3 143/4/3
f 145/5/3 141/5/3 121/5/3
f 145/3/3 142/3/3 141/3/3
f 146/3/3 137/3/3 142/3/3
f 146/3/3 142/3/3 145/3/3
f 147/1/3 138/1/3 137/1/3
f 147/3/3 137/3/3 146/3/3
f 148/5/3 144/5/3 143/5/3
f 148/1/3 138/1/3 147/1/3
f 148/5/3 143/5/3 138/5/3
f 149/5/3 145/5/3 121/5/3
f 149/1/3 146/1/3 145/1/3
f 150/3/3 147/3/3 146/3/3
f 150/1/3 146/1/3 149/1/3
f 150/3/3 148/3/3 147/3/3
f 151/3/3 148/3/3 150/3/3
f 152/5/3 144/5/3 148/5/3
f 152/3/3 148/3/3 151/3/3
f 153/3/3 151/3/3 150/3/3
f 153/5/3 149/5/3 121/5/3
f 153/3/3 150/3/3 149/3/3
f 154/3/3 151/3/3 153/3/3
f 155/1/3 152/1/3 151/1/3
f 155/3/3 151/3/3 154/3/3
f 156/5/3 144/5/3 152/5/3
f 156/1/3 152/1/3 155/1/3
f 157/1/3 154/1/3 153/1/3
f 157/5/3 153/5/3 121/5/3
f 158/3/3 155/3/3 154/3/3
f 158/1/3 154/1/3 157/1/3
f 158/3/3 156/3/3 155/3/3
f 159/3/3 156/3/3 158/3/3
f 160/5/3 144/5/3 156/5/3
f 160/3/3 156/3/3 159/3/3
f 161/5/3 157/5/3 121/5/3
f 161/3/3 159/3/3 158/3/3
f 161/3/3 158/3/3 157/3/3
f 162/3/3 159/3/3 161/3/3
f 163/5/3 144/5/3 160/5/3
f 164/4/3 140/4/3 144/4/3
f 164/5/3 144/5/3 163/5/3
f 165/3/3 159/3/3 162/3/3
f 165/1/3 160/1/3 159/1/3
f 166/5/3 163/5/3 160/5/3
f 166/1/3 160/1/3 165/1/3
f 167/4/3 140/4/3 164/4/3
f 167/4/3 164/4/3 163/4/3
f 168/4/3 140/4/3 167/4/3
f 169/3/3 165/3/3 162/3/3
f 169/3/3 166/3/3 165/3/3
f 170/5/3 163/5/3 166/5/3
f 170/3/3 166/3/3 169/3/3
f 171/5/3 163/5/3 170/5/3
f 172/4/3 167/4/3 163/4/3
f 172/5/3 163/5/3 171/5/3
f 173/5/3 161/5/3 121/5/3
f 173/5/3 162/5/3 161/5/3
f 174/3/3 169/3/3 162/3/3
f 174/5/3 162/5/3 173/5/3
f 175/5/3 171/5/3 170/5/3
f 175/3/3 169/3/3 174/3/3
f 175/5/3 170/5/3 169/5/3
f 176/5/3 171/5/3 175/5/3
f 177/4/3 167/4/3 172/4/3
f 177/4/3 172/4/3 171/4/3
f 178/4/3 167/4/3 177/4/3
f 179/5/3 173/5/3 121/5/3
f 180/5/3 173/5/3 179/5/3
f 181/3/3 174/3/3 173/3/3
f 181/5/3 173/5/3 180/5/3
f 181/3/3 176/3/3 175/3/3
f 181/3/3 175/3/3 174/3/3
f 182/5/3 171/5/3 176/5/3
f 182/3/3 176/3/3 181/3/3
f 183/5/3 171/5/3 182/5/3
f 184/4/3 177/4/3 171/4/3
f 184/5/3 171/5/3 183/5/3
f 185/4/3 180/4/3 179/4/3
f 185/5/3 181/5/3 180/5/3
f 185/5/3 183/5/3 182/5/3
f 185/5/3 182/5/3 181/5/3
f 186/4/3 184/4/3 183/4/3
f 186/5/3 183/5/3 185/5/3
f 187/4/3 177/4/3 184/4/3
f 187/4/3 184/4/3 186/4/3
f 188/4/3 177/4/3 187/4/3
f 189/4/3 186/4/3 185/4/3
f 189/4/3 185/4/3 179/4/3
f 189/4/3 187/4/3 186/4/3
f 190/4/3 187/4/3 189/4/3
f 194/2/3 192/2/3 191/2/3
f 195/4/3 193/4/3 192/4/3
f 195/2/3 192/2/3 194/2/3
f 196/4/3 193/4/3 195/4/3
f 200/2/3 198/2/3 197/2/3
f 201/4/3 199/4/3 198/4/3
f 201/2/3 198/2/3 200/2/3
f 202/4/3 199/4/3 201/4/3
f 203/4/4 204/4/4 205/4/4
f 205/4/4 204/4/4 206/4/4
f 207/4/4 208/4/4 209/4/4
f 209/4/4 208/4/4 210/4/4
f 211/4/4 212/4/4 213/4/4
f 213/4/4 212/4/4 214/4/4
f 215/4/4 216/4/4 217/4/4
f 217/4/4 216/4/4 218/4/4
f 219/4/4 220/4/4 221/4/4
f 219/4/4 221/4/4 223/4/4
f 221/4/4 222/4/4 223/4/4
f 223/4/4 222/4/4 224/4/4
f 224/4/4 222/4/4 226/4/4
f 226/4/4 222/4/4 227/4/4
f 225/4/4 226/4/4 227/4/4
f 227/4/4 222/4/4 228/4/4
f 225/4/4 227/4/4 229/4/4
f 229/4/4 227/4/4 230/4/4
f 231/5/4 232/5/4 233/5/4
f 233/5/4 232/5/4 234/5/4
f 235/5/4 236/5/4 237/5/4
f 237/5/4 236/5/4 238/5/4
f 243/4/5 240/4/5 239/4/5
f 243/5/5 241/5/5 240/5/5
f 244/4/5 242/4/5 241/4/5
f 244/5/5 241/5/5 243/5/5
f 245/4/5 243/4/5 239/4/5
f 245/4/5 244/4/5 243/4/5
f 246/4/5 244/4/5 245/4/5
f 247/4/5 242/4/5 244/4/5
f 247/4/5 244/4/5 246/4/5
f 248/4/5 242/4/5 247/4/5
f 249/3/5 246/3/5 245/3/5
f 250/4/5 247/4/5 246/4/5
f 250/3/5 246/3/5 249/3/5
f 251/3/5 248/3/5 247/3/5
f 251/4/5 247/4/5 250/4/5
f 252/3/5 248/3/5 251/3/5
f 253/4/5 250/4/5 249/4/5
f 253/4/5 251/4/5 250/4/5
f 253/4/5 252/4/5 251/4/5
f 254/4/5 252/4/5 253/4/5
f 255/4/5 252/4/5 254/4/5
f 256/4/5 252/4/5 255/4/5
f 257/5/5 255/5/5 254/5/5
f 258/5/5 255/5/5 257/5/5
f 263/2/5 260/2/5 259/2/5
f 264/2/5 260/2/5 263/2/5
f 265/2/5 262/2/5 261/2/5
f 266/2/5 262/2/5 265/2/5
f 267/4/5 264/4/5 263/4/5
f 268/4/5 264/4/5 267/4/5
f 269/4/5 266/4/5 265/4/5
f 270/4/5 266/4/5 269/4/5
f 271/5/6 272/5/6 273/5/6
f 273/5/6 272/5/6 274/5/6
f 275/5/6 276/5/6 277/5/6
f 277/5/6 276/5/6 278/5/6
f 279/4/6 280/4/6 283/4/6
f 283/4/6 280/4/6 284/4/6
f 281/4/6 282/4/6 285/4/6
f 285/4/6 282/4/6 286/4/6
f 287/4/6 288/4/6 291/4/6
f 291/4/6 288/4/6 292/4/6
f 289/4/6 290/4/6 293/4/6
f 293/4/6 290/4/6 294/4/6
f 295/4/6 296/4/6 299/4/6
f 297/4/6 298/4/6 300/4/6
f 295/4/6 299/4/6 301/4/6
f 299/4/6 300/4/6 301/4/6
f 300/4/6 298/4/6 302/4/6
f 301/4/6 300/4/6 302/4/6
f 303/4/6 304/4/6 307/4/6
f 305/4/6 306/4/6 308/4/6
f 303/4/6 307/4/6 309/4/6
f 307/4/6 308/4/6 309/4/6
f 308/4/6 306/4/6 310/4/6
f 309/4/6 308/4/6 310/4/6
f 311/4/6 312/4/6 313/4/6
f 313/4/6 312/4/6 314/4/6
