# MagicaVoxel @ Ephtracy

# group
o 

# material
mtllib model-1.mtl
usemtl palette

# normals
vn -1 0 0
vn 1 0 0
vn 0 0 1
vn 0 0 -1
vn 0 -1 0
vn 0 1 0

# texcoords
vt 0.517578 0.5
vt 0.568359 0.5
vt 0.576172 0.5

# verts
v -1.3 3.3 0.7
v -1.3 3.3 0.0999999
v -1.3 3.3 -0.1
v -1.3 3.3 -0.7
v -1.3 3.9 0.7
v -1.3 3.9 0.0999999
v -1.3 3.9 -0.1
v -1.3 3.9 -0.7
v -1.1 3.4 0.0999999
v -1.1 3.4 -0.1
v -1.1 3.8 0.0999999
v -1.1 3.8 -0.1
v -1.1 5.8 1.3
v -1.1 5.8 -1.3
v -1.1 5.9 0.5
v -1.1 5.9 0.0999999
v -1.1 5.9 -0.1
v -1.1 5.9 -0.5
v -1.1 6 0.4
v -1.1 6 0.2
v -1.1 6 -0.2
v -1.1 6 -0.4
v -1.1 6.1 0.4
v -1.1 6.1 0.3
v -1.1 6.1 -0.3
v -1.1 6.1 -0.4
v -1.1 6.2 0.5
v -1.1 6.2 0.3
v -1.1 6.2 -0.3
v -1.1 6.2 -0.5
v -1.1 6.3 0.8
v -1.1 6.3 0.4
v -1.1 6.3 -0.4
v -1.1 6.3 -0.8
v -1.1 6.4 0.7
v -1.1 6.4 0.5
v -1.1 6.4 -0.5
v -1.1 6.4 -0.7
v -1.1 6.5 0.7
v -1.1 6.5 0.6
v -1.1 6.5 0.4
v -1.1 6.5 0.2
v -1.1 6.5 -0.2
v -1.1 6.5 -0.4
v -1.1 6.5 -0.6
v -1.1 6.5 -0.7
v -1.1 6.6 0.8
v -1.1 6.6 0.6
v -1.1 6.6 0.5
v -1.1 6.6 0.2
v -1.1 6.6 -0.2
v -1.1 6.6 -0.5
v -1.1 6.6 -0.6
v -1.1 6.6 -0.8
v -1.1 6.7 1
v -1.1 6.7 0.8
v -1.1 6.7 0.7
v -1.1 6.7 0.2
v -1.1 6.7 0.0999999
v -1.1 6.7 -0.1
v -1.1 6.7 -0.2
v -1.1 6.7 -0.7
v -1.1 6.7 -0.8
v -1.1 6.7 -1
v -1.1 6.8 0.9
v -1.1 6.8 0.8
v -1.1 6.8 0.6
v -1.1 6.8 0.2
v -1.1 6.8 -0.2
v -1.1 6.8 -0.6
v -1.1 6.8 -0.8
v -1.1 6.8 -0.9
v -1.1 6.9 0.9
v -1.1 6.9 0.7
v -1.1 6.9 0.5
v -1.1 6.9 0.2
v -1.1 6.9 -0.2
v -1.1 6.9 -0.5
v -1.1 6.9 -0.7
v -1.1 6.9 -0.9
v -1.1 7 1
v -1.1 7 0.6
v -1.1 7 0.4
v -1.1 7 0.3
v -1.1 7 0.2
v -1.1 7 0.0999999
v -1.1 7 -0.1
v -1.1 7 -0.2
v -1.1 7 -0.3
v -1.1 7 -0.4
v -1.1 7 -0.6
v -1.1 7 -1
v -1.1 7.1 0.8
v -1.1 7.1 0.6
v -1.1 7.1 0.2
v -1.1 7.1 0.0999999
v -1.1 7.1 -0.1
v -1.1 7.1 -0.2
v -1.1 7.1 -0.6
v -1.1 7.1 -0.8
v -1.1 7.2 1.3
v -1.1 7.2 1
v -1.1 7.2 0.7
v -1.1 7.2 0.6
v -1.1 7.2 -0.6
v -1.1 7.2 -0.7
v -1.1 7.2 -1
v -1.1 7.2 -1.3
v -1.1 7.3 0.7
v -1.1 7.3 0.5
v -1.1 7.3 -0.5
v -1.1 7.3 -0.7
v -1.1 7.4 0.8
v -1.1 7.4 0.4
v -1.1 7.4 0.3
v -1.1 7.4 0.2
v -1.1 7.4 -0.2
v -1.1 7.4 -0.3
v -1.1 7.4 -0.4
v -1.1 7.4 -0.8
v -1.1 7.5 0.2
v -1.1 7.5 -0.2
v -1.1 7.7 1
v -1.1 7.7 -1
v -1 5.6 1.2
v -1 5.6 -1.2
v -1 5.8 2
v -1 5.8 1.9
v -1 5.8 1.3
v -1 5.8 1.2
v -1 5.8 -1.2
v -1 5.8 -1.3
v -1 5.8 -1.9
v -1 5.8 -2
v -1 5.9 1.8
v -1 5.9 1.6
v -1 5.9 -1.6
v -1 5.9 -1.8
v -1 6 1.8
v -1 6 1.7
v -1 6 -1.7
v -1 6 -1.8
v -1 6.1 1.9
v -1 6.1 1.7
v -1 6.1 1.6
v -1 6.1 1.5
v -1 6.1 -1.5
v -1 6.1 -1.6
v -1 6.1 -1.7
v -1 6.1 -1.9
v -1 6.2 1.8
v -1 6.2 1.6
v -1 6.2 -1.6
v -1 6.2 -1.8
v -1 6.3 1.7
v -1 6.3 1.6
v -1 6.3 -1.6
v -1 6.3 -1.7
v -1 6.4 1.7
v -1 6.4 1.5
v -1 6.4 -1.5
v -1 6.4 -1.7
v -1 6.5 1.8
v -1 6.5 1.3
v -1 6.5 -1.3
v -1 6.5 -1.8
v -1 6.6 2
v -1 6.6 1.4
v -1 6.6 -1.4
v -1 6.6 -2
v -1 7.2 1.3
v -1 7.2 1
v -1 7.2 -1
v -1 7.2 -1.3
v -1 7.3 1.4
v -1 7.3 1.1
v -1 7.3 -1.1
v -1 7.3 -1.4
v -1 7.7 1
v -1 7.7 -1
v -1 7.8 1.1
v -1 7.8 -1.1
v -0.9 3.6 0.9
v -0.9 3.6 0.7
v -0.9 3.6 -0.7
v -0.9 3.6 -0.9
v -0.9 3.8 0.0999999
v -0.9 3.8 -0.1
v -0.9 3.9 0.7
v -0.9 3.9 0.0999999
v -0.9 3.9 -0.1
v -0.9 3.9 -0.7
v -0.9 4.1 0.9
v -0.9 4.1 -0.9
v -0.1 5.2 1.7
v -0.1 5.2 1.5
v -0.1 5.3 1.5
v -0.1 5.3 1.2
v -0.1 5.4 1.7
v -0.1 5.4 1.6
v -0.1 5.5 1.9
v -0.1 5.5 1.7
v -0.1 5.5 1.6
v -0.1 5.5 1.4
v -0.1 5.6 1.7
v -0.1 5.6 1.4
v -0.1 5.6 1.2
v -0.1 5.7 1.9
v -0.1 5.7 1.8
v -0.1 5.8 1.8
v -0.1 5.8 1.2
v 0.8 6.6 1.4
v 0.8 6.6 1.3
v 0.8 6.6 1
v 0.8 6.6 -1
v 0.8 6.6 -1.3
v 0.8 6.6 -1.4
v 0.8 6.8 1
v 0.8 6.8 -1
v 0.8 7.2 1.3
v 0.8 7.2 1
v 0.8 7.2 -1
v 0.8 7.2 -1.3
v 0.8 7.3 1.4
v 0.8 7.3 1.1
v 0.8 7.3 -1.1
v 0.8 7.3 -1.4
v 0.8 7.7 1
v 0.8 7.7 -1
v 0.8 7.8 1.1
v 0.8 7.8 -1.1
v -1 3.3 0.7
v -1 3.3 0.0999999
v -1 3.3 -0.1
v -1 3.3 -0.7
v -1 3.4 0.0999999
v -1 3.4 -0.1
v -1 3.6 0.7
v -1 3.6 -0.7
v -0.8 6.6 1.4
v -0.8 6.6 1.3
v -0.8 6.6 1
v -0.8 6.6 -1
v -0.8 6.6 -1.3
v -0.8 6.6 -1.4
v -0.8 6.8 1
v -0.8 6.8 -1
v -0.8 7.2 1.3
v -0.8 7.2 1
v -0.8 7.2 -1
v -0.8 7.2 -1.3
v -0.8 7.3 1.4
v -0.8 7.3 1.1
v -0.8 7.3 -1.1
v -0.8 7.3 -1.4
v -0.8 7.7 1
v -0.8 7.7 -1
v -0.8 7.8 1.1
v -0.8 7.8 -1.1
v -0.5 3.6 0.9
v -0.5 3.6 -0.9
v -0.5 4.1 0.9
v -0.5 4.1 -0.9
v 0.0999999 5.2 1.7
v 0.0999999 5.2 1.5
v 0.0999999 5.3 1.5
v 0.0999999 5.3 1.2
v 0.0999999 5.4 1.7
v 0.0999999 5.4 1.6
v 0.0999999 5.5 1.9
v 0.0999999 5.5 1.7
v 0.0999999 5.5 1.6
v 0.0999999 5.5 1.4
v 0.0999999 5.6 1.7
v 0.0999999 5.6 1.4
v 0.0999999 5.6 1.2
v 0.0999999 5.7 1.9
v 0.0999999 5.7 1.8
v 0.0999999 5.8 1.8
v 0.0999999 5.8 1.2
v 1 5.6 1.2
v 1 5.6 -1.2
v 1 5.8 2
v 1 5.8 1.9
v 1 5.8 1.3
v 1 5.8 1.2
v 1 5.8 -1.2
v 1 5.8 -1.3
v 1 5.8 -1.9
v 1 5.8 -2
v 1 5.9 1.8
v 1 5.9 1.6
v 1 5.9 -1.6
v 1 5.9 -1.8
v 1 6 1.8
v 1 6 1.7
v 1 6 -1.7
v 1 6 -1.8
v 1 6.1 1.9
v 1 6.1 1.7
v 1 6.1 1.6
v 1 6.1 1.5
v 1 6.1 -1.5
v 1 6.1 -1.6
v 1 6.1 -1.7
v 1 6.1 -1.9
v 1 6.2 1.8
v 1 6.2 1.6
v 1 6.2 -1.6
v 1 6.2 -1.8
v 1 6.3 1.7
v 1 6.3 1.6
v 1 6.3 -1.6
v 1 6.3 -1.7
v 1 6.4 1.7
v 1 6.4 1.5
v 1 6.4 -1.5
v 1 6.4 -1.7
v 1 6.5 1.8
v 1 6.5 1.3
v 1 6.5 -1.3
v 1 6.5 -1.8
v 1 6.6 2
v 1 6.6 1.4
v 1 6.6 -1.4
v 1 6.6 -2
v 1 7.2 1.3
v 1 7.2 1
v 1 7.2 -1
v 1 7.2 -1.3
v 1 7.3 1.4
v 1 7.3 1.1
v 1 7.3 -1.1
v 1 7.3 -1.4
v 1 7.7 1
v 1 7.7 -1
v 1 7.8 1.1
v 1 7.8 -1.1
v 1.1 5.8 1.3
v 1.1 5.8 -1.3
v 1.1 5.9 0.5
v 1.1 5.9 0.0999999
v 1.1 5.9 -0.1
v 1.1 5.9 -0.5
v 1.1 6 0.4
v 1.1 6 0.2
v 1.1 6 -0.2
v 1.1 6 -0.4
v 1.1 6.1 0.4
v 1.1 6.1 0.3
v 1.1 6.1 -0.3
v 1.1 6.1 -0.4
v 1.1 6.2 0.5
v 1.1 6.2 0.3
v 1.1 6.2 -0.3
v 1.1 6.2 -0.5
v 1.1 6.3 0.8
v 1.1 6.3 0.4
v 1.1 6.3 -0.4
v 1.1 6.3 -0.8
v 1.1 6.4 0.7
v 1.1 6.4 0.5
v 1.1 6.4 -0.5
v 1.1 6.4 -0.7
v 1.1 6.5 0.7
v 1.1 6.5 0.6
v 1.1 6.5 0.4
v 1.1 6.5 0.2
v 1.1 6.5 -0.2
v 1.1 6.5 -0.4
v 1.1 6.5 -0.6
v 1.1 6.5 -0.7
v 1.1 6.6 0.8
v 1.1 6.6 0.6
v 1.1 6.6 0.5
v 1.1 6.6 0.2
v 1.1 6.6 -0.2
v 1.1 6.6 -0.5
v 1.1 6.6 -0.6
v 1.1 6.6 -0.8
v 1.1 6.7 1
v 1.1 6.7 0.8
v 1.1 6.7 0.7
v 1.1 6.7 0.2
v 1.1 6.7 0.0999999
v 1.1 6.7 -0.1
v 1.1 6.7 -0.2
v 1.1 6.7 -0.7
v 1.1 6.7 -0.8
v 1.1 6.7 -1
v 1.1 6.8 0.9
v 1.1 6.8 0.8
v 1.1 6.8 0.6
v 1.1 6.8 0.2
v 1.1 6.8 -0.2
v 1.1 6.8 -0.6
v 1.1 6.8 -0.8
v 1.1 6.8 -0.9
v 1.1 6.9 0.9
v 1.1 6.9 0.7
v 1.1 6.9 0.5
v 1.1 6.9 0.2
v 1.1 6.9 -0.2
v 1.1 6.9 -0.5
v 1.1 6.9 -0.7
v 1.1 6.9 -0.9
v 1.1 7 1
v 1.1 7 0.6
v 1.1 7 0.4
v 1.1 7 0.3
v 1.1 7 0.2
v 1.1 7 0.0999999
v 1.1 7 -0.1
v 1.1 7 -0.2
v 1.1 7 -0.3
v 1.1 7 -0.4
v 1.1 7 -0.6
v 1.1 7 -1
v 1.1 7.1 0.8
v 1.1 7.1 0.6
v 1.1 7.1 0.2
v 1.1 7.1 0.0999999
v 1.1 7.1 -0.1
v 1.1 7.1 -0.2
v 1.1 7.1 -0.6
v 1.1 7.1 -0.8
v 1.1 7.2 1.3
v 1.1 7.2 1
v 1.1 7.2 0.7
v 1.1 7.2 0.6
v 1.1 7.2 -0.6
v 1.1 7.2 -0.7
v 1.1 7.2 -1
v 1.1 7.2 -1.3
v 1.1 7.3 0.7
v 1.1 7.3 0.5
v 1.1 7.3 -0.5
v 1.1 7.3 -0.7
v 1.1 7.4 0.8
v 1.1 7.4 0.4
v 1.1 7.4 0.3
v 1.1 7.4 0.2
v 1.1 7.4 -0.2
v 1.1 7.4 -0.3
v 1.1 7.4 -0.4
v 1.1 7.4 -0.8
v 1.1 7.5 0.2
v 1.1 7.5 -0.2
v 1.1 7.7 1
v 1.1 7.7 -1
v -1 5.8 2
v -1 6.6 2
v 1 5.8 2
v 1 6.6 2
v -0.1 5.5 1.9
v -0.1 5.7 1.9
v 0.0999999 5.5 1.9
v 0.0999999 5.7 1.9
v -0.1 5.7 1.8
v -0.1 5.8 1.8
v 0.0999999 5.7 1.8
v 0.0999999 5.8 1.8
v -0.1 5.2 1.7
v -0.1 5.4 1.7
v 0.0999999 5.2 1.7
v 0.0999999 5.4 1.7
v -0.1 5.4 1.6
v -0.1 5.5 1.6
v 0.0999999 5.4 1.6
v 0.0999999 5.5 1.6
v -1 6.6 1.4
v -1 7.3 1.4
v -0.8 6.6 1.4
v -0.8 7.3 1.4
v -0.1 5.5 1.4
v -0.1 5.6 1.4
v 0.0999999 5.5 1.4
v 0.0999999 5.6 1.4
v 0.8 6.6 1.4
v 0.8 7.3 1.4
v 1 6.6 1.4
v 1 7.3 1.4
v -1.1 5.8 1.3
v -1.1 7.2 1.3
v -1 5.8 1.3
v -1 6.5 1.3
v -1 7.2 1.3
v 1 5.8 1.3
v 1 6.5 1.3
v 1 7.2 1.3
v 1.1 5.8 1.3
v 1.1 7.2 1.3
v -1 5.6 1.2
v -1 5.8 1.2
v -0.1 5.6 1.2
v -0.1 5.8 1.2
v 0.0999999 5.6 1.2
v 0.0999999 5.8 1.2
v 1 5.6 1.2
v 1 5.8 1.2
v -1 7.3 1.1
v -1 7.8 1.1
v -0.8 7.3 1.1
v -0.8 7.8 1.1
v 0.8 7.3 1.1
v 0.8 7.8 1.1
v 1 7.3 1.1
v 1 7.8 1.1
v -1.1 7.2 1
v -1.1 7.7 1
v -1 7.2 1
v -1 7.7 1
v -0.8 6.6 1
v -0.8 6.8 1
v 0.8 6.6 1
v 0.8 6.8 1
v 1 7.2 1
v 1 7.7 1
v 1.1 7.2 1
v 1.1 7.7 1
v -0.9 3.6 0.9
v -0.9 4.1 0.9
v -0.5 3.6 0.9
v -0.5 4.1 0.9
v -1.3 3.3 0.7
v -1.3 3.9 0.7
v -1 3.3 0.7
v -1 3.6 0.7
v -0.9 3.6 0.7
v -0.9 3.9 0.7
v -1.3 3.3 -0.1
v -1.3 3.9 -0.1
v -1.1 3.4 -0.1
v -1.1 3.8 -0.1
v -1 3.3 -0.1
v -1 3.4 -0.1
v -0.9 3.8 -0.1
v -0.9 3.9 -0.1
v -0.1 5.5 1.7
v -0.1 5.6 1.7
v 0.0999999 5.5 1.7
v 0.0999999 5.6 1.7
v -0.1 5.2 1.5
v -0.1 5.3 1.5
v 0.0999999 5.2 1.5
v 0.0999999 5.3 1.5
v -0.1 5.3 1.2
v -0.1 5.6 1.2
v 0.0999999 5.3 1.2
v 0.0999999 5.6 1.2
v -1.3 3.3 0.0999999
v -1.3 3.9 0.0999999
v -1.1 3.4 0.0999999
v -1.1 3.8 0.0999999
v -1 3.3 0.0999999
v -1 3.4 0.0999999
v -0.9 3.8 0.0999999
v -0.9 3.9 0.0999999
v -1.3 3.3 -0.7
v -1.3 3.9 -0.7
v -1 3.3 -0.7
v -1 3.6 -0.7
v -0.9 3.6 -0.7
v -0.9 3.9 -0.7
v -0.9 3.6 -0.9
v -0.9 4.1 -0.9
v -0.5 3.6 -0.9
v -0.5 4.1 -0.9
v -1.1 7.2 -1
v -1.1 7.7 -1
v -1 7.2 -1
v -1 7.7 -1
v -0.8 6.6 -1
v -0.8 6.8 -1
v 0.8 6.6 -1
v 0.8 6.8 -1
v 1 7.2 -1
v 1 7.7 -1
v 1.1 7.2 -1
v 1.1 7.7 -1
v -1 7.3 -1.1
v -1 7.8 -1.1
v -0.8 7.3 -1.1
v -0.8 7.8 -1.1
v 0.8 7.3 -1.1
v 0.8 7.8 -1.1
v 1 7.3 -1.1
v 1 7.8 -1.1
v -1 5.6 -1.2
v -1 5.8 -1.2
v 1 5.6 -1.2
v 1 5.8 -1.2
v -1.1 5.8 -1.3
v -1.1 7.2 -1.3
v -1 5.8 -1.3
v -1 6.5 -1.3
v -1 7.2 -1.3
v 1 5.8 -1.3
v 1 6.5 -1.3
v 1 7.2 -1.3
v 1.1 5.8 -1.3
v 1.1 7.2 -1.3
v -1 6.6 -1.4
v -1 7.3 -1.4
v -0.8 6.6 -1.4
v -0.8 7.3 -1.4
v 0.8 6.6 -1.4
v 0.8 7.3 -1.4
v 1 6.6 -1.4
v 1 7.3 -1.4
v -1 5.8 -2
v -1 6.6 -2
v 1 5.8 -2
v 1 6.6 -2
v -1.3 3.3 0.7
v -1 3.3 0.7
v -1.3 3.3 0.0999999
v -1 3.3 0.0999999
v -1.3 3.3 -0.1
v -1 3.3 -0.1
v -1.3 3.3 -0.7
v -1 3.3 -0.7
v -1.1 3.4 0.0999999
v -1 3.4 0.0999999
v -1.1 3.4 -0.1
v -1 3.4 -0.1
v -0.9 3.6 0.9
v -0.5 3.6 0.9
v -1 3.6 0.7
v -0.9 3.6 0.7
v -1 3.6 -0.7
v -0.9 3.6 -0.7
v -0.9 3.6 -0.9
v -0.5 3.6 -0.9
v -0.1 5.2 1.7
v 0.0999999 5.2 1.7
v -0.1 5.2 1.5
v 0.0999999 5.2 1.5
v -0.1 5.3 1.5
v 0.0999999 5.3 1.5
v -0.1 5.3 1.2
v 0.0999999 5.3 1.2
v -0.1 5.5 1.9
v 0.0999999 5.5 1.9
v -0.1 5.5 1.7
v 0.0999999 5.5 1.7
v -0.1 5.6 1.7
v 0.0999999 5.6 1.7
v -0.1 5.6 1.4
v 0.0999999 5.6 1.4
v -1 5.6 1.2
v -0.1 5.6 1.2
v 0.0999999 5.6 1.2
v 1 5.6 1.2
v -1 5.6 -1.2
v 1 5.6 -1.2
v -1 5.8 2
v 1 5.8 2
v -1 5.8 1.9
v 1 5.8 1.9
v -0.1 5.8 1.8
v 0.0999999 5.8 1.8
v -1.1 5.8 1.3
v -1 5.8 1.3
v 1 5.8 1.3
v 1.1 5.8 1.3
v -1 5.8 1.2
v -0.1 5.8 1.2
v 0.0999999 5.8 1.2
v 1 5.8 1.2
v -1 5.8 -1.2
v 1 5.8 -1.2
v -1.1 5.8 -1.3
v -1 5.8 -1.3
v 1 5.8 -1.3
v 1.1 5.8 -1.3
v -1 5.8 -1.9
v 1 5.8 -1.9
v -1 5.8 -2
v 1 5.8 -2
v -1.1 3.8 0.0999999
v -0.9 3.8 0.0999999
v -1.1 3.8 -0.1
v -0.9 3.8 -0.1
v -1.3 3.9 0.7
v -0.9 3.9 0.7
v -1.3 3.9 0.0999999
v -0.9 3.9 0.0999999
v -1.3 3.9 -0.1
v -0.9 3.9 -0.1
v -1.3 3.9 -0.7
v -0.9 3.9 -0.7
v -0.9 4.1 0.9
v -0.5 4.1 0.9
v -0.9 4.1 -0.9
v -0.5 4.1 -0.9
v -0.1 5.4 1.7
v 0.0999999 5.4 1.7
v -0.1 5.4 1.6
v 0.0999999 5.4 1.6
v -0.1 5.5 1.6
v 0.0999999 5.5 1.6
v -0.1 5.5 1.4
v 0.0999999 5.5 1.4
v -0.1 5.7 1.9
v 0.0999999 5.7 1.9
v -0.1 5.7 1.8
v 0.0999999 5.7 1.8
v -1 6.6 2
v 1 6.6 2
v -0.8 6.6 1.8
v 0.8 6.6 1.8
v -1 6.6 1.4
v -0.8 6.6 1.4
v 0.8 6.6 1.4
v 1 6.6 1.4
v -0.8 6.6 1.3
v 0.8 6.6 1.3
v -0.8 6.6 1
v 0.8 6.6 1
v -0.8 6.6 -1
v 0.8 6.6 -1
v -0.8 6.6 -1.3
v 0.8 6.6 -1.3
v -1 6.6 -1.4
v -0.8 6.6 -1.4
v 0.8 6.6 -1.4
v 1 6.6 -1.4
v -0.8 6.6 -1.8
v 0.8 6.6 -1.8
v -1 6.6 -2
v 1 6.6 -2
v -0.8 6.8 1
v 0.8 6.8 1
v -0.8 6.8 -1
v 0.8 6.8 -1
v -1.1 7.2 1.3
v -1 7.2 1.3
v 1 7.2 1.3
v 1.1 7.2 1.3
v -1.1 7.2 1
v -1 7.2 1
v 1 7.2 1
v 1.1 7.2 1
v -1.1 7.2 -1
v -1 7.2 -1
v 1 7.2 -1
v 1.1 7.2 -1
v -1.1 7.2 -1.3
v -1 7.2 -1.3
v 1 7.2 -1.3
v 1.1 7.2 -1.3
v -1 7.3 1.4
v -0.8 7.3 1.4
v 0.8 7.3 1.4
v 1 7.3 1.4
v -1 7.3 1.1
v -0.8 7.3 1.1
v 0.8 7.3 1.1
v 1 7.3 1.1
v -1 7.3 -1.1
v -0.8 7.3 -1.1
v 0.8 7.3 -1.1
v 1 7.3 -1.1
v -1 7.3 -1.4
v -0.8 7.3 -1.4
v 0.8 7.3 -1.4
v 1 7.3 -1.4
v -1.1 7.7 1
v -1 7.7 1
v 1 7.7 1
v 1.1 7.7 1
v -1.1 7.7 -1
v -1 7.7 -1
v 1 7.7 -1
v 1.1 7.7 -1
v -1 7.8 1.1
v -0.8 7.8 1.1
v 0.8 7.8 1.1
v 1 7.8 1.1
v -1 7.8 -1.1
v -0.8 7.8 -1.1
v 0.8 7.8 -1.1
v 1 7.8 -1.1

# faces
f 5/1/1 2/1/1 1/1/1
f 6/1/1 2/1/1 5/1/1
f 7/1/1 4/1/1 3/1/1
f 8/1/1 4/1/1 7/1/1
f 11/1/1 10/1/1 9/1/1
f 12/1/1 10/1/1 11/1/1
f 15/2/1 14/2/1 13/2/1
f 16/2/1 14/2/1 15/2/1
f 17/2/1 14/2/1 16/2/1
f 18/2/1 14/2/1 17/2/1
f 19/3/1 16/3/1 15/3/1
f 20/3/1 16/3/1 19/3/1
f 21/3/1 18/3/1 17/3/1
f 22/3/1 18/3/1 21/3/1
f 23/3/1 19/3/1 15/3/1
f 23/2/1 20/2/1 19/2/1
f 24/2/1 20/2/1 23/2/1
f 25/2/1 22/2/1 21/2/1
f 26/3/1 18/3/1 22/3/1
f 26/2/1 22/2/1 25/2/1
f 27/2/1 15/2/1 13/2/1
f 27/3/1 23/3/1 15/3/1
f 27/3/1 24/3/1 23/3/1
f 28/2/1 20/2/1 24/2/1
f 28/3/1 24/3/1 27/3/1
f 29/2/1 25/2/1 21/2/1
f 29/3/1 26/3/1 25/3/1
f 30/3/1 18/3/1 26/3/1
f 30/3/1 26/3/1 29/3/1
f 30/2/1 14/2/1 18/2/1
f 31/2/1 28/2/1 27/2/1
f 31/2/1 27/2/1 13/2/1
f 32/2/1 28/2/1 31/2/1
f 33/2/1 30/2/1 29/2/1
f 34/2/1 14/2/1 30/2/1
f 34/2/1 30/2/1 33/2/1
f 35/3/1 32/3/1 31/3/1
f 36/3/1 32/3/1 35/3/1
f 37/3/1 34/3/1 33/3/1
f 38/3/1 34/3/1 37/3/1
f 39/3/1 35/3/1 31/3/1
f 39/2/1 36/2/1 35/2/1
f 40/2/1 36/2/1 39/2/1
f 41/2/1 28/2/1 32/2/1
f 41/3/1 32/3/1 36/3/1
f 42/3/1 16/3/1 20/3/1
f 42/2/1 28/2/1 41/2/1
f 42/2/1 20/2/1 28/2/1
f 43/2/1 29/2/1 21/2/1
f 43/2/1 33/2/1 29/2/1
f 43/3/1 21/3/1 17/3/1
f 44/3/1 37/3/1 33/3/1
f 44/2/1 33/2/1 43/2/1
f 45/2/1 38/2/1 37/2/1
f 46/3/1 34/3/1 38/3/1
f 46/2/1 38/2/1 45/2/1
f 47/3/1 39/3/1 31/3/1
f 47/2/1 31/2/1 13/2/1
f 47/3/1 40/3/1 39/3/1
f 48/2/1 36/2/1 40/2/1
f 48/3/1 40/3/1 47/3/1
f 49/3/1 42/3/1 41/3/1
f 49/2/1 36/2/1 48/2/1
f 49/3/1 41/3/1 36/3/1
f 50/3/1 16/3/1 42/3/1
f 50/3/1 42/3/1 49/3/1
f 51/3/1 43/3/1 17/3/1
f 51/3/1 44/3/1 43/3/1
f 52/3/1 37/3/1 44/3/1
f 52/3/1 44/3/1 51/3/1
f 52/2/1 45/2/1 37/2/1
f 53/3/1 46/3/1 45/3/1
f 53/2/1 45/2/1 52/2/1
f 54/3/1 34/3/1 46/3/1
f 54/3/1 46/3/1 53/3/1
f 54/2/1 14/2/1 34/2/1
f 55/2/1 49/2/1 48/2/1
f 55/2/1 48/2/1 47/2/1
f 55/2/1 47/2/1 13/2/1
f 55/2/1 50/2/1 49/2/1
f 56/2/1 50/2/1 55/2/1
f 57/2/1 50/2/1 56/2/1
f 58/3/1 16/3/1 50/3/1
f 58/2/1 50/2/1 57/2/1
f 59/2/1 17/2/1 16/2/1
f 59/3/1 16/3/1 58/3/1
f 60/3/1 51/3/1 17/3/1
f 60/2/1 17/2/1 59/2/1
f 61/2/1 54/2/1 53/2/1
f 61/3/1 51/3/1 60/3/1
f 61/2/1 53/2/1 52/2/1
f 61/2/1 52/2/1 51/2/1
f 62/2/1 54/2/1 61/2/1
f 63/2/1 14/2/1 54/2/1
f 63/2/1 54/2/1 62/2/1
f 64/2/1 14/2/1 63/2/1
f 65/3/1 56/3/1 55/3/1
f 66/2/1 57/2/1 56/2/1
f 66/3/1 56/3/1 65/3/1
f 67/3/1 62/3/1 61/3/1
f 67/3/1 60/3/1 59/3/1
f 67/3/1 58/3/1 57/3/1
f 67/3/1 59/3/1 58/3/1
f 67/3/1 61/3/1 60/3/1
f 68/3/1 62/3/1 67/3/1
f 69/3/1 62/3/1 68/3/1
f 70/3/1 62/3/1 69/3/1
f 71/3/1 64/3/1 63/3/1
f 71/2/1 63/2/1 62/2/1
f 72/3/1 64/3/1 71/3/1
f 73/2/1 66/2/1 65/2/1
f 73/3/1 65/3/1 55/3/1
f 74/2/1 57/2/1 66/2/1
f 74/2/1 66/2/1 73/2/1
f 74/3/1 67/3/1 57/3/1
f 75/2/1 68/2/1 67/2/1
f 76/3/1 69/3/1 68/3/1
f 76/2/1 68/2/1 75/2/1
f 77/2/1 70/2/1 69/2/1
f 77/3/1 69/3/1 76/3/1
f 78/2/1 70/2/1 77/2/1
f 79/3/1 62/3/1 70/3/1
f 79/2/1 72/2/1 71/2/1
f 79/2/1 71/2/1 62/2/1
f 80/3/1 64/3/1 72/3/1
f 80/2/1 72/2/1 79/2/1
f 81/3/1 73/3/1 55/3/1
f 81/2/1 55/2/1 13/2/1
f 81/3/1 74/3/1 73/3/1
f 82/3/1 67/3/1 74/3/1
f 82/3/1 74/3/1 81/3/1
f 82/2/1 75/2/1 67/2/1
f 83/3/1 76/3/1 75/3/1
f 83/3/1 78/3/1 77/3/1
f 83/3/1 77/3/1 76/3/1
f 84/3/1 78/3/1 83/3/1
f 85/3/1 78/3/1 84/3/1
f 86/3/1 78/3/1 85/3/1
f 87/3/1 78/3/1 86/3/1
f 88/3/1 78/3/1 87/3/1
f 89/3/1 78/3/1 88/3/1
f 90/3/1 78/3/1 89/3/1
f 91/3/1 79/3/1 70/3/1
f 91/2/1 70/2/1 78/2/1
f 91/3/1 80/3/1 79/3/1
f 92/3/1 64/3/1 80/3/1
f 92/3/1 80/3/1 91/3/1
f 92/2/1 14/2/1 64/2/1
f 93/2/1 82/2/1 81/2/1
f 94/2/1 75/2/1 82/2/1
f 94/2/1 82/2/1 93/2/1
f 95/3/1 85/3/1 84/3/1
f 95/2/1 86/2/1 85/2/1
f 96/3/1 87/3/1 86/3/1
f 96/2/1 86/2/1 95/2/1
f 97/2/1 88/2/1 87/2/1
f 97/3/1 87/3/1 96/3/1
f 98/3/1 89/3/1 88/3/1
f 98/2/1 88/2/1 97/2/1
f 99/2/1 91/2/1 78/2/1
f 99/2/1 92/2/1 91/2/1
f 100/2/1 92/2/1 99/2/1
f 101/2/1 93/2/1 81/2/1
f 101/2/1 81/2/1 13/2/1
f 102/2/1 93/2/1 101/2/1
f 103/3/1 94/3/1 93/3/1
f 104/2/1 75/2/1 94/2/1
f 104/3/1 94/3/1 103/3/1
f 105/3/1 100/3/1 99/3/1
f 105/2/1 99/2/1 78/2/1
f 106/3/1 100/3/1 105/3/1
f 107/2/1 92/2/1 100/2/1
f 107/2/1 14/2/1 92/2/1
f 108/2/1 14/2/1 107/2/1
f 109/3/1 103/3/1 93/3/1
f 109/2/1 104/2/1 103/2/1
f 110/2/1 75/2/1 104/2/1
f 110/2/1 104/2/1 109/2/1
f 110/3/1 83/3/1 75/3/1
f 111/3/1 78/3/1 90/3/1
f 111/2/1 106/2/1 105/2/1
f 111/2/1 105/2/1 78/2/1
f 112/3/1 100/3/1 106/3/1
f 112/2/1 106/2/1 111/2/1
f 113/3/1 110/3/1 109/3/1
f 113/3/1 109/3/1 93/3/1
f 113/2/1 93/2/1 102/2/1
f 114/3/1 83/3/1 110/3/1
f 114/3/1 110/3/1 113/3/1
f 114/2/1 84/2/1 83/2/1
f 115/3/1 96/3/1 95/3/1
f 115/2/1 84/2/1 114/2/1
f 115/3/1 97/3/1 96/3/1
f 115/3/1 95/3/1 84/3/1
f 115/3/1 98/3/1 97/3/1
f 116/3/1 98/3/1 115/3/1
f 117/3/1 89/3/1 98/3/1
f 117/3/1 98/3/1 116/3/1
f 118/2/1 90/2/1 89/2/1
f 118/3/1 89/3/1 117/3/1
f 119/3/1 111/3/1 90/3/1
f 119/2/1 90/2/1 118/2/1
f 119/3/1 112/3/1 111/3/1
f 120/2/1 107/2/1 100/2/1
f 120/3/1 112/3/1 119/3/1
f 120/3/1 100/3/1 112/3/1
f 121/2/1 116/2/1 115/2/1
f 121/3/1 117/3/1 116/3/1
f 121/2/1 114/2/1 113/2/1
f 121/2/1 115/2/1 114/2/1
f 122/2/1 120/2/1 119/2/1
f 122/3/1 117/3/1 121/3/1
f 122/2/1 118/2/1 117/2/1
f 122/2/1 119/2/1 118/2/1
f 123/2/1 113/2/1 102/2/1
f 123/2/1 121/2/1 113/2/1
f 123/2/1 122/2/1 121/2/1
f 124/2/1 107/2/1 120/2/1
f 124/2/1 122/2/1 123/2/1
f 124/2/1 120/2/1 122/2/1
f 130/1/1 126/1/1 125/1/1
f 131/1/1 126/1/1 130/1/1
f 135/2/1 129/2/1 128/2/1
f 136/2/1 129/2/1 135/2/1
f 137/2/1 133/2/1 132/2/1
f 138/2/1 133/2/1 137/2/1
f 139/2/1 135/2/1 128/2/1
f 139/3/1 136/3/1 135/3/1
f 140/3/1 136/3/1 139/3/1
f 141/3/1 138/3/1 137/3/1
f 142/2/1 133/2/1 138/2/1
f 142/3/1 138/3/1 141/3/1
f 143/3/1 128/3/1 127/3/1
f 143/2/1 139/2/1 128/2/1
f 143/2/1 140/2/1 139/2/1
f 144/3/1 136/3/1 140/3/1
f 144/2/1 140/2/1 143/2/1
f 145/2/1 129/2/1 136/2/1
f 145/3/1 136/3/1 144/3/1
f 146/2/1 129/2/1 145/2/1
f 147/2/1 137/2/1 132/2/1
f 148/3/1 141/3/1 137/3/1
f 148/2/1 137/2/1 147/2/1
f 149/2/1 142/2/1 141/2/1
f 149/3/1 141/3/1 148/3/1
f 150/3/1 134/3/1 133/3/1
f 150/2/1 142/2/1 149/2/1
f 150/2/1 133/2/1 142/2/1
f 151/3/1 146/3/1 145/3/1
f 151/3/1 144/3/1 143/3/1
f 151/3/1 145/3/1 144/3/1
f 152/3/1 146/3/1 151/3/1
f 153/3/1 149/3/1 148/3/1
f 153/3/1 150/3/1 149/3/1
f 153/3/1 148/3/1 147/3/1
f 154/3/1 150/3/1 153/3/1
f 155/2/1 152/2/1 151/2/1
f 156/3/1 146/3/1 152/3/1
f 156/2/1 152/2/1 155/2/1
f 157/3/1 153/3/1 147/3/1
f 157/2/1 154/2/1 153/2/1
f 158/2/1 154/2/1 157/2/1
f 159/2/1 155/2/1 151/2/1
f 159/3/1 156/3/1 155/3/1
f 160/2/1 129/2/1 146/2/1
f 160/3/1 156/3/1 159/3/1
f 160/3/1 146/3/1 156/3/1
f 161/2/1 147/2/1 132/2/1
f 161/3/1 157/3/1 147/3/1
f 161/3/1 158/3/1 157/3/1
f 162/2/1 154/2/1 158/2/1
f 162/3/1 158/3/1 161/3/1
f 163/2/1 159/2/1 151/2/1
f 163/3/1 151/3/1 143/3/1
f 163/2/1 160/2/1 159/2/1
f 164/2/1 129/2/1 160/2/1
f 164/2/1 160/2/1 163/2/1
f 165/2/1 161/2/1 132/2/1
f 165/2/1 162/2/1 161/2/1
f 166/3/1 150/3/1 154/3/1
f 166/2/1 162/2/1 165/2/1
f 166/2/1 154/2/1 162/2/1
f 167/3/1 164/3/1 163/3/1
f 167/3/1 163/3/1 143/3/1
f 167/3/1 143/3/1 127/3/1
f 168/3/1 164/3/1 167/3/1
f 169/3/1 166/3/1 165/3/1
f 170/3/1 150/3/1 166/3/1
f 170/3/1 166/3/1 169/3/1
f 170/3/1 134/3/1 150/3/1
f 171/3/1 164/3/1 168/3/1
f 174/3/1 169/3/1 165/3/1
f 175/3/1 172/3/1 171/3/1
f 175/3/1 171/3/1 168/3/1
f 176/3/1 172/3/1 175/3/1
f 177/3/1 174/3/1 173/3/1
f 178/3/1 169/3/1 174/3/1
f 178/3/1 174/3/1 177/3/1
f 179/3/1 172/3/1 176/3/1
f 180/3/1 177/3/1 173/3/1
f 181/3/1 179/3/1 176/3/1
f 181/3/1 180/3/1 179/3/1
f 182/3/1 177/3/1 180/3/1
f 182/3/1 180/3/1 181/3/1
f 189/1/1 184/1/1 183/1/1
f 190/1/1 188/1/1 187/1/1
f 191/1/1 188/1/1 190/1/1
f 192/1/1 186/1/1 185/1/1
f 193/1/1 189/1/1 183/1/1
f 193/1/1 192/1/1 191/1/1
f 193/1/1 191/1/1 190/1/1
f 193/1/1 190/1/1 189/1/1
f 194/1/1 186/1/1 192/1/1
f 194/1/1 192/1/1 193/1/1
f 197/1/1 196/1/1 195/1/1
f 199/1/1 197/1/1 195/1/1
f 199/1/1 198/1/1 197/1/1
f 200/1/1 198/1/1 199/1/1
f 203/1/1 198/1/1 200/1/1
f 204/1/1 198/1/1 203/1/1
f 205/1/1 202/1/1 201/1/1
f 206/1/1 198/1/1 204/1/1
f 207/1/1 198/1/1 206/1/1
f 208/1/1 205/1/1 201/1/1
f 208/1/1 206/1/1 205/1/1
f 208/1/1 207/1/1 206/1/1
f 209/1/1 207/1/1 208/1/1
f 210/1/1 207/1/1 209/1/1
f 211/1/1 207/1/1 210/1/1
f 218/2/1 214/2/1 213/2/1
f 219/2/1 216/2/1 215/2/1
f 220/3/1 213/3/1 212/3/1
f 220/2/1 219/2/1 218/2/1
f 220/2/1 218/2/1 213/2/1
f 221/2/1 219/2/1 220/2/1
f 222/2/1 216/2/1 219/2/1
f 222/2/1 219/2/1 221/2/1
f 223/3/1 217/3/1 216/3/1
f 223/2/1 216/2/1 222/2/1
f 224/3/1 221/3/1 220/3/1
f 224/3/1 220/3/1 212/3/1
f 225/3/1 221/3/1 224/3/1
f 226/3/1 223/3/1 222/3/1
f 227/3/1 217/3/1 223/3/1
f 227/3/1 223/3/1 226/3/1
f 228/2/1 222/2/1 221/2/1
f 228/3/1 221/3/1 225/3/1
f 229/3/1 226/3/1 222/3/1
f 229/2/1 222/2/1 228/2/1
f 230/3/1 228/3/1 225/3/1
f 230/3/1 229/3/1 228/3/1
f 231/3/1 226/3/1 229/3/1
f 231/3/1 229/3/1 230/3/1
f 232/1/2 233/1/2 236/1/2
f 234/1/2 235/1/2 237/1/2
f 232/1/2 236/1/2 238/1/2
f 236/1/2 237/1/2 238/1/2
f 237/1/2 235/1/2 239/1/2
f 238/1/2 237/1/2 239/1/2
f 241/2/2 242/2/2 246/2/2
f 243/2/2 244/2/2 247/2/2
f 240/3/2 241/3/2 248/3/2
f 246/2/2 247/2/2 248/2/2
f 241/2/2 246/2/2 248/2/2
f 248/2/2 247/2/2 249/2/2
f 247/2/2 244/2/2 250/2/2
f 249/2/2 247/2/2 250/2/2
f 244/3/2 245/3/2 251/3/2
f 250/2/2 244/2/2 251/2/2
f 248/3/2 249/3/2 252/3/2
f 240/3/2 248/3/2 252/3/2
f 252/3/2 249/3/2 253/3/2
f 250/3/2 251/3/2 254/3/2
f 251/3/2 245/3/2 255/3/2
f 254/3/2 251/3/2 255/3/2
f 249/2/2 250/2/2 256/2/2
f 253/3/2 249/3/2 256/3/2
f 250/3/2 254/3/2 257/3/2
f 256/2/2 250/2/2 257/2/2
f 253/3/2 256/3/2 258/3/2
f 256/3/2 257/3/2 258/3/2
f 257/3/2 254/3/2 259/3/2
f 258/3/2 257/3/2 259/3/2
f 260/1/2 261/1/2 262/1/2
f 262/1/2 261/1/2 263/1/2
f 264/1/2 265/1/2 266/1/2
f 264/1/2 266/1/2 268/1/2
f 266/1/2 267/1/2 268/1/2
f 268/1/2 267/1/2 269/1/2
f 269/1/2 267/1/2 272/1/2
f 272/1/2 267/1/2 273/1/2
f 270/1/2 271/1/2 274/1/2
f 273/1/2 267/1/2 275/1/2
f 275/1/2 267/1/2 276/1/2
f 270/1/2 274/1/2 277/1/2
f 274/1/2 275/1/2 277/1/2
f 275/1/2 276/1/2 277/1/2
f 277/1/2 276/1/2 278/1/2
f 278/1/2 276/1/2 279/1/2
f 279/1/2 276/1/2 280/1/2
f 281/1/2 282/1/2 286/1/2
f 286/1/2 282/1/2 287/1/2
f 284/2/2 285/2/2 291/2/2
f 291/2/2 285/2/2 292/2/2
f 288/2/2 289/2/2 293/2/2
f 293/2/2 289/2/2 294/2/2
f 284/2/2 291/2/2 295/2/2
f 291/3/2 292/3/2 295/3/2
f 295/3/2 292/3/2 296/3/2
f 293/3/2 294/3/2 297/3/2
f 294/2/2 289/2/2 298/2/2
f 297/3/2 294/3/2 298/3/2
f 283/3/2 284/3/2 299/3/2
f 284/2/2 295/2/2 299/2/2
f 295/2/2 296/2/2 299/2/2
f 296/3/2 292/3/2 300/3/2
f 299/2/2 296/2/2 300/2/2
f 292/2/2 285/2/2 301/2/2
f 300/3/2 292/3/2 301/3/2
f 301/2/2 285/2/2 302/2/2
f 288/2/2 293/2/2 303/2/2
f 293/3/2 297/3/2 304/3/2
f 303/2/2 293/2/2 304/2/2
f 297/2/2 298/2/2 305/2/2
f 304/3/2 297/3/2 305/3/2
f 289/3/2 290/3/2 306/3/2
f 305/2/2 298/2/2 306/2/2
f 298/2/2 289/2/2 306/2/2
f 301/3/2 302/3/2 307/3/2
f 299/3/2 300/3/2 307/3/2
f 300/3/2 301/3/2 307/3/2
f 307/3/2 302/3/2 308/3/2
f 304/3/2 305/3/2 309/3/2
f 305/3/2 306/3/2 309/3/2
f 303/3/2 304/3/2 309/3/2
f 309/3/2 306/3/2 310/3/2
f 307/2/2 308/2/2 311/2/2
f 308/3/2 302/3/2 312/3/2
f 311/2/2 308/2/2 312/2/2
f 303/3/2 309/3/2 313/3/2
f 309/2/2 310/2/2 313/2/2
f 313/2/2 310/2/2 314/2/2
f 307/2/2 311/2/2 315/2/2
f 311/3/2 312/3/2 315/3/2
f 302/2/2 285/2/2 316/2/2
f 315/3/2 312/3/2 316/3/2
f 312/3/2 302/3/2 316/3/2
f 288/2/2 303/2/2 317/2/2
f 303/3/2 313/3/2 317/3/2
f 313/3/2 314/3/2 317/3/2
f 314/2/2 310/2/2 318/2/2
f 317/3/2 314/3/2 318/3/2
f 307/2/2 315/2/2 319/2/2
f 299/3/2 307/3/2 319/3/2
f 315/2/2 316/2/2 319/2/2
f 316/2/2 285/2/2 320/2/2
f 319/2/2 316/2/2 320/2/2
f 288/2/2 317/2/2 321/2/2
f 317/2/2 318/2/2 321/2/2
f 310/3/2 306/3/2 322/3/2
f 321/2/2 318/2/2 322/2/2
f 318/2/2 310/2/2 322/2/2
f 319/3/2 320/3/2 323/3/2
f 299/3/2 319/3/2 323/3/2
f 283/3/2 299/3/2 323/3/2
f 323/3/2 320/3/2 324/3/2
f 321/3/2 322/3/2 325/3/2
f 322/3/2 306/3/2 326/3/2
f 325/3/2 322/3/2 326/3/2
f 306/3/2 290/3/2 326/3/2
f 324/3/2 320/3/2 327/3/2
f 321/3/2 325/3/2 330/3/2
f 327/3/2 328/3/2 331/3/2
f 324/3/2 327/3/2 331/3/2
f 331/3/2 328/3/2 332/3/2
f 329/3/2 330/3/2 333/3/2
f 330/3/2 325/3/2 334/3/2
f 333/3/2 330/3/2 334/3/2
f 332/3/2 328/3/2 335/3/2
f 329/3/2 333/3/2 336/3/2
f 332/3/2 335/3/2 337/3/2
f 335/3/2 336/3/2 337/3/2
f 336/3/2 333/3/2 338/3/2
f 337/3/2 336/3/2 338/3/2
f 339/2/2 340/2/2 341/2/2
f 341/2/2 340/2/2 342/2/2
f 342/2/2 340/2/2 343/2/2
f 343/2/2 340/2/2 344/2/2
f 341/3/2 342/3/2 345/3/2
f 345/3/2 342/3/2 346/3/2
f 343/3/2 344/3/2 347/3/2
f 347/3/2 344/3/2 348/3/2
f 341/3/2 345/3/2 349/3/2
f 345/2/2 346/2/2 349/2/2
f 349/2/2 346/2/2 350/2/2
f 347/2/2 348/2/2 351/2/2
f 348/3/2 344/3/2 352/3/2
f 351/2/2 348/2/2 352/2/2
f 339/2/2 341/2/2 353/2/2
f 341/3/2 349/3/2 353/3/2
f 349/3/2 350/3/2 353/3/2
f 350/2/2 346/2/2 354/2/2
f 353/3/2 350/3/2 354/3/2
f 347/2/2 351/2/2 355/2/2
f 351/3/2 352/3/2 355/3/2
f 352/3/2 344/3/2 356/3/2
f 355/3/2 352/3/2 356/3/2
f 344/2/2 340/2/2 356/2/2
f 353/2/2 354/2/2 357/2/2
f 339/2/2 353/2/2 357/2/2
f 357/2/2 354/2/2 358/2/2
f 355/2/2 356/2/2 359/2/2
f 356/2/2 340/2/2 360/2/2
f 359/2/2 356/2/2 360/2/2
f 357/3/2 358/3/2 361/3/2
f 361/3/2 358/3/2 362/3/2
f 359/3/2 360/3/2 363/3/2
f 363/3/2 360/3/2 364/3/2
f 357/3/2 361/3/2 365/3/2
f 361/2/2 362/2/2 365/2/2
f 365/2/2 362/2/2 366/2/2
f 358/2/2 354/2/2 367/2/2
f 362/3/2 358/3/2 367/3/2
f 346/3/2 342/3/2 368/3/2
f 367/2/2 354/2/2 368/2/2
f 354/2/2 346/2/2 368/2/2
f 347/2/2 355/2/2 369/2/2
f 355/2/2 359/2/2 369/2/2
f 343/3/2 347/3/2 369/3/2
f 359/3/2 363/3/2 370/3/2
f 369/2/2 359/2/2 370/2/2
f 363/2/2 364/2/2 371/2/2
f 364/3/2 360/3/2 372/3/2
f 371/2/2 364/2/2 372/2/2
f 357/3/2 365/3/2 373/3/2
f 339/2/2 357/2/2 373/2/2
f 365/3/2 366/3/2 373/3/2
f 366/2/2 362/2/2 374/2/2
f 373/3/2 366/3/2 374/3/2
f 367/3/2 368/3/2 375/3/2
f 374/2/2 362/2/2 375/2/2
f 362/3/2 367/3/2 375/3/2
f 368/3/2 342/3/2 376/3/2
f 375/3/2 368/3/2 376/3/2
f 343/3/2 369/3/2 377/3/2
f 369/3/2 370/3/2 377/3/2
f 370/3/2 363/3/2 378/3/2
f 377/3/2 370/3/2 378/3/2
f 363/2/2 371/2/2 378/2/2
f 371/3/2 372/3/2 379/3/2
f 378/2/2 371/2/2 379/2/2
f 372/3/2 360/3/2 380/3/2
f 379/3/2 372/3/2 380/3/2
f 360/2/2 340/2/2 380/2/2
f 374/2/2 375/2/2 381/2/2
f 373/2/2 374/2/2 381/2/2
f 339/2/2 373/2/2 381/2/2
f 375/2/2 376/2/2 381/2/2
f 381/2/2 376/2/2 382/2/2
f 382/2/2 376/2/2 383/2/2
f 376/3/2 342/3/2 384/3/2
f 383/2/2 376/2/2 384/2/2
f 342/2/2 343/2/2 385/2/2
f 384/3/2 342/3/2 385/3/2
f 343/3/2 377/3/2 386/3/2
f 385/2/2 343/2/2 386/2/2
f 379/2/2 380/2/2 387/2/2
f 386/3/2 377/3/2 387/3/2
f 378/2/2 379/2/2 387/2/2
f 377/2/2 378/2/2 387/2/2
f 387/2/2 380/2/2 388/2/2
f 380/2/2 340/2/2 389/2/2
f 388/2/2 380/2/2 389/2/2
f 389/2/2 340/2/2 390/2/2
f 381/3/2 382/3/2 391/3/2
f 382/2/2 383/2/2 392/2/2
f 391/3/2 382/3/2 392/3/2
f 387/3/2 388/3/2 393/3/2
f 385/3/2 386/3/2 393/3/2
f 383/3/2 384/3/2 393/3/2
f 384/3/2 385/3/2 393/3/2
f 386/3/2 387/3/2 393/3/2
f 393/3/2 388/3/2 394/3/2
f 394/3/2 388/3/2 395/3/2
f 395/3/2 388/3/2 396/3/2
f 389/3/2 390/3/2 397/3/2
f 388/2/2 389/2/2 397/2/2
f 397/3/2 390/3/2 398/3/2
f 391/2/2 392/2/2 399/2/2
f 381/3/2 391/3/2 399/3/2
f 392/2/2 383/2/2 400/2/2
f 399/2/2 392/2/2 400/2/2
f 383/3/2 393/3/2 400/3/2
f 393/2/2 394/2/2 401/2/2
f 394/3/2 395/3/2 402/3/2
f 401/2/2 394/2/2 402/2/2
f 395/2/2 396/2/2 403/2/2
f 402/3/2 395/3/2 403/3/2
f 403/2/2 396/2/2 404/2/2
f 396/3/2 388/3/2 405/3/2
f 397/2/2 398/2/2 405/2/2
f 388/2/2 397/2/2 405/2/2
f 398/3/2 390/3/2 406/3/2
f 405/2/2 398/2/2 406/2/2
f 381/3/2 399/3/2 407/3/2
f 339/2/2 381/2/2 407/2/2
f 399/3/2 400/3/2 407/3/2
f 400/3/2 393/3/2 408/3/2
f 407/3/2 400/3/2 408/3/2
f 393/2/2 401/2/2 408/2/2
f 401/3/2 402/3/2 409/3/2
f 403/3/2 404/3/2 409/3/2
f 402/3/2 403/3/2 409/3/2
f 409/3/2 404/3/2 410/3/2
f 410/3/2 404/3/2 411/3/2
f 411/3/2 404/3/2 412/3/2
f 412/3/2 404/3/2 413/3/2
f 413/3/2 404/3/2 414/3/2
f 414/3/2 404/3/2 415/3/2
f 415/3/2 404/3/2 416/3/2
f 396/3/2 405/3/2 417/3/2
f 404/2/2 396/2/2 417/2/2
f 405/3/2 406/3/2 417/3/2
f 406/3/2 390/3/2 418/3/2
f 417/3/2 406/3/2 418/3/2
f 390/2/2 340/2/2 418/2/2
f 407/2/2 408/2/2 419/2/2
f 408/2/2 401/2/2 420/2/2
f 419/2/2 408/2/2 420/2/2
f 410/3/2 411/3/2 421/3/2
f 411/2/2 412/2/2 421/2/2
f 412/3/2 413/3/2 422/3/2
f 421/2/2 412/2/2 422/2/2
f 413/2/2 414/2/2 423/2/2
f 422/3/2 413/3/2 423/3/2
f 414/3/2 415/3/2 424/3/2
f 423/2/2 414/2/2 424/2/2
f 404/2/2 417/2/2 425/2/2
f 417/2/2 418/2/2 425/2/2
f 425/2/2 418/2/2 426/2/2
f 407/2/2 419/2/2 427/2/2
f 339/2/2 407/2/2 427/2/2
f 427/2/2 419/2/2 428/2/2
f 419/3/2 420/3/2 429/3/2
f 420/2/2 401/2/2 430/2/2
f 429/3/2 420/3/2 430/3/2
f 425/3/2 426/3/2 431/3/2
f 404/2/2 425/2/2 431/2/2
f 431/3/2 426/3/2 432/3/2
f 426/2/2 418/2/2 433/2/2
f 418/2/2 340/2/2 433/2/2
f 433/2/2 340/2/2 434/2/2
f 419/3/2 429/3/2 435/3/2
f 429/2/2 430/2/2 435/2/2
f 430/2/2 401/2/2 436/2/2
f 435/2/2 430/2/2 436/2/2
f 401/3/2 409/3/2 436/3/2
f 416/3/2 404/3/2 437/3/2
f 431/2/2 432/2/2 437/2/2
f 404/2/2 431/2/2 437/2/2
f 432/3/2 426/3/2 438/3/2
f 437/2/2 432/2/2 438/2/2
f 435/3/2 436/3/2 439/3/2
f 419/3/2 435/3/2 439/3/2
f 428/2/2 419/2/2 439/2/2
f 436/3/2 409/3/2 440/3/2
f 439/3/2 436/3/2 440/3/2
f 409/2/2 410/2/2 440/2/2
f 421/3/2 422/3/2 441/3/2
f 440/2/2 410/2/2 441/2/2
f 422/3/2 423/3/2 441/3/2
f 410/3/2 421/3/2 441/3/2
f 423/3/2 424/3/2 441/3/2
f 441/3/2 424/3/2 442/3/2
f 424/3/2 415/3/2 443/3/2
f 442/3/2 424/3/2 443/3/2
f 415/2/2 416/2/2 444/2/2
f 443/3/2 415/3/2 444/3/2
f 416/3/2 437/3/2 445/3/2
f 444/2/2 416/2/2 445/2/2
f 437/3/2 438/3/2 445/3/2
f 426/2/2 433/2/2 446/2/2
f 445/3/2 438/3/2 446/3/2
f 438/3/2 426/3/2 446/3/2
f 441/2/2 442/2/2 447/2/2
f 442/3/2 443/3/2 447/3/2
f 439/2/2 440/2/2 447/2/2
f 440/2/2 441/2/2 447/2/2
f 445/2/2 446/2/2 448/2/2
f 447/3/2 443/3/2 448/3/2
f 443/2/2 444/2/2 448/2/2
f 444/2/2 445/2/2 448/2/2
f 428/2/2 439/2/2 449/2/2
f 439/2/2 447/2/2 449/2/2
f 447/2/2 448/2/2 449/2/2
f 446/2/2 433/2/2 450/2/2
f 449/2/2 448/2/2 450/2/2
f 448/2/2 446/2/2 450/2/2
f 453/3/3 452/3/3 451/3/3
f 454/3/3 452/3/3 453/3/3
f 457/1/3 456/1/3 455/1/3
f 458/1/3 456/1/3 457/1/3
f 461/1/3 460/1/3 459/1/3
f 462/1/3 460/1/3 461/1/3
f 465/1/3 464/1/3 463/1/3
f 466/1/3 464/1/3 465/1/3
f 469/1/3 468/1/3 467/1/3
f 470/1/3 468/1/3 469/1/3
f 473/3/3 472/3/3 471/3/3
f 474/3/3 472/3/3 473/3/3
f 477/1/3 476/1/3 475/1/3
f 478/1/3 476/1/3 477/1/3
f 481/3/3 480/3/3 479/3/3
f 482/3/3 480/3/3 481/3/3
f 485/2/3 484/2/3 483/2/3
f 486/2/3 484/2/3 485/2/3
f 487/2/3 484/2/3 486/2/3
f 491/2/3 489/2/3 488/2/3
f 491/2/3 490/2/3 489/2/3
f 492/2/3 490/2/3 491/2/3
f 495/1/3 494/1/3 493/1/3
f 496/1/3 494/1/3 495/1/3
f 499/1/3 498/1/3 497/1/3
f 500/1/3 498/1/3 499/1/3
f 503/3/3 502/3/3 501/3/3
f 504/3/3 502/3/3 503/3/3
f 507/3/3 506/3/3 505/3/3
f 508/3/3 506/3/3 507/3/3
f 511/2/3 510/2/3 509/2/3
f 512/2/3 510/2/3 511/2/3
f 515/2/3 514/2/3 513/2/3
f 516/2/3 514/2/3 515/2/3
f 519/2/3 518/2/3 517/2/3
f 520/2/3 518/2/3 519/2/3
f 523/1/3 522/1/3 521/1/3
f 524/1/3 522/1/3 523/1/3
f 527/1/3 526/1/3 525/1/3
f 528/1/3 526/1/3 527/1/3
f 529/1/3 526/1/3 528/1/3
f 530/1/3 526/1/3 529/1/3
f 533/1/3 532/1/3 531/1/3
f 534/1/3 532/1/3 533/1/3
f 535/1/3 533/1/3 531/1/3
f 536/1/3 533/1/3 535/1/3
f 537/1/3 532/1/3 534/1/3
f 538/1/3 532/1/3 537/1/3
f 539/1/4 540/1/4 541/1/4
f 541/1/4 540/1/4 542/1/4
f 543/1/4 544/1/4 545/1/4
f 545/1/4 544/1/4 546/1/4
f 547/1/4 548/1/4 549/1/4
f 549/1/4 548/1/4 550/1/4
f 551/1/4 552/1/4 553/1/4
f 553/1/4 552/1/4 554/1/4
f 551/1/4 553/1/4 555/1/4
f 555/1/4 553/1/4 556/1/4
f 554/1/4 552/1/4 557/1/4
f 557/1/4 552/1/4 558/1/4
f 559/1/4 560/1/4 561/1/4
f 561/1/4 560/1/4 562/1/4
f 562/1/4 560/1/4 563/1/4
f 563/1/4 560/1/4 564/1/4
f 565/1/4 566/1/4 567/1/4
f 567/1/4 566/1/4 568/1/4
f 569/2/4 570/2/4 571/2/4
f 571/2/4 570/2/4 572/2/4
f 573/2/4 574/2/4 575/2/4
f 575/2/4 574/2/4 576/2/4
f 577/2/4 578/2/4 579/2/4
f 579/2/4 578/2/4 580/2/4
f 581/3/4 582/3/4 583/3/4
f 583/3/4 582/3/4 584/3/4
f 585/3/4 586/3/4 587/3/4
f 587/3/4 586/3/4 588/3/4
f 589/1/4 590/1/4 591/1/4
f 591/1/4 590/1/4 592/1/4
f 593/2/4 594/2/4 595/2/4
f 595/2/4 594/2/4 596/2/4
f 596/2/4 594/2/4 597/2/4
f 598/2/4 599/2/4 601/2/4
f 599/2/4 600/2/4 601/2/4
f 601/2/4 600/2/4 602/2/4
f 603/3/4 604/3/4 605/3/4
f 605/3/4 604/3/4 606/3/4
f 607/3/4 608/3/4 609/3/4
f 609/3/4 608/3/4 610/3/4
f 611/3/4 612/3/4 613/3/4
f 613/3/4 612/3/4 614/3/4
f 617/1/5 616/1/5 615/1/5
f 618/1/5 616/1/5 617/1/5
f 621/1/5 620/1/5 619/1/5
f 622/1/5 620/1/5 621/1/5
f 625/1/5 624/1/5 623/1/5
f 626/1/5 624/1/5 625/1/5
f 630/1/5 628/1/5 627/1/5
f 631/1/5 630/1/5 629/1/5
f 632/1/5 628/1/5 630/1/5
f 632/1/5 630/1/5 631/1/5
f 633/1/5 628/1/5 632/1/5
f 634/1/5 628/1/5 633/1/5
f 637/1/5 636/1/5 635/1/5
f 638/1/5 636/1/5 637/1/5
f 641/1/5 640/1/5 639/1/5
f 642/1/5 640/1/5 641/1/5
f 645/1/5 644/1/5 643/1/5
f 646/1/5 644/1/5 645/1/5
f 649/1/5 648/1/5 647/1/5
f 650/1/5 648/1/5 649/1/5
f 655/1/5 653/1/5 652/1/5
f 655/1/5 654/1/5 653/1/5
f 655/1/5 652/1/5 651/1/5
f 656/1/5 654/1/5 655/1/5
f 659/3/5 658/3/5 657/3/5
f 660/3/5 658/3/5 659/3/5
f 661/2/5 660/2/5 659/2/5
f 662/2/5 660/2/5 661/2/5
f 664/2/5 661/2/5 659/2/5
f 665/2/5 660/2/5 662/2/5
f 667/2/5 664/2/5 663/2/5
f 667/2/5 661/2/5 664/2/5
f 668/2/5 661/2/5 667/2/5
f 669/2/5 665/2/5 662/2/5
f 669/2/5 666/2/5 665/2/5
f 670/2/5 666/2/5 669/2/5
f 671/2/5 667/2/5 663/2/5
f 672/2/5 666/2/5 670/2/5
f 673/2/5 671/2/5 663/2/5
f 673/2/5 672/2/5 671/2/5
f 674/2/5 672/2/5 673/2/5
f 675/2/5 666/2/5 672/2/5
f 675/2/5 672/2/5 674/2/5
f 676/2/5 666/2/5 675/2/5
f 677/2/5 675/2/5 674/2/5
f 678/2/5 675/2/5 677/2/5
f 679/3/5 678/3/5 677/3/5
f 680/3/5 678/3/5 679/3/5
f 681/1/6 682/1/6 683/1/6
f 683/1/6 682/1/6 684/1/6
f 685/1/6 686/1/6 687/1/6
f 687/1/6 686/1/6 688/1/6
f 689/1/6 690/1/6 691/1/6
f 691/1/6 690/1/6 692/1/6
f 693/1/6 694/1/6 695/1/6
f 695/1/6 694/1/6 696/1/6
f 697/1/6 698/1/6 699/1/6
f 699/1/6 698/1/6 700/1/6
f 701/1/6 702/1/6 703/1/6
f 703/1/6 702/1/6 704/1/6
f 705/1/6 706/1/6 707/1/6
f 707/1/6 706/1/6 708/1/6
f 709/3/6 710/3/6 711/3/6
f 711/3/6 710/3/6 712/3/6
f 709/3/6 711/3/6 713/3/6
f 711/2/6 712/2/6 714/2/6
f 713/3/6 711/3/6 714/3/6
f 712/3/6 710/3/6 715/3/6
f 714/2/6 712/2/6 715/2/6
f 715/3/6 710/3/6 716/3/6
f 714/2/6 715/2/6 717/2/6
f 717/2/6 715/2/6 718/2/6
f 717/2/6 718/2/6 719/2/6
f 719/2/6 718/2/6 720/2/6
f 721/2/6 722/2/6 723/2/6
f 723/2/6 722/2/6 724/2/6
f 723/2/6 724/2/6 726/2/6
f 726/2/6 724/2/6 727/2/6
f 726/2/6 727/2/6 729/2/6
f 725/3/6 726/3/6 729/3/6
f 727/3/6 728/3/6 730/3/6
f 729/2/6 727/2/6 730/2/6
f 725/3/6 729/3/6 731/3/6
f 729/3/6 730/3/6 731/3/6
f 730/3/6 728/3/6 732/3/6
f 731/3/6 730/3/6 732/3/6
f 733/2/6 734/2/6 735/2/6
f 735/2/6 734/2/6 736/2/6
f 737/2/6 738/2/6 741/2/6
f 741/2/6 738/2/6 742/2/6
f 739/2/6 740/2/6 743/2/6
f 743/2/6 740/2/6 744/2/6
f 745/2/6 746/2/6 749/2/6
f 749/2/6 746/2/6 750/2/6
f 747/2/6 748/2/6 751/2/6
f 751/2/6 748/2/6 752/2/6
f 753/3/6 754/3/6 757/3/6
f 757/3/6 754/3/6 758/3/6
f 755/3/6 756/3/6 759/3/6
f 759/3/6 756/3/6 760/3/6
f 761/3/6 762/3/6 765/3/6
f 765/3/6 762/3/6 766/3/6
f 763/3/6 764/3/6 767/3/6
f 767/3/6 764/3/6 768/3/6
f 769/2/6 770/2/6 773/2/6
f 773/2/6 770/2/6 774/2/6
f 771/2/6 772/2/6 775/2/6
f 775/2/6 772/2/6 776/2/6
f 777/3/6 778/3/6 781/3/6
f 781/3/6 778/3/6 782/3/6
f 779/3/6 780/3/6 783/3/6
f 783/3/6 780/3/6 784/3/6
