# MagicaVoxel @ Ephtracy

# group
o 

# material
mtllib model-2.mtl
usemtl palette

# normals
vn 0 0 1
vn 0 0 -1
vn 1 0 0
vn -1 0 0
vn 0 -1 0
vn 0 1 0

# texcoords
vt 0.00195313 0.5
vt 0.0292969 0.5
vt 0.505859 0.5
vt 0.509766 0.5
vt 0.513672 0.5

# verts
v 1.1 0.1 0.9
v 0.9 0.1 0.9
v 1.1 1 0.9
v 0.9 1 0.9
v 1.1 0.3 -0.1
v 1 0.3 -0.1
v 0.9 0.3 -0.1
v 1.1 0.8 -0.1
v 1 0.8 -0.1
v 0.9 0.8 -0.1
v 1.1 0 -0.4
v 0.9 0 -0.4
v 1.1 0.3 -0.4
v 1 0.3 -0.4
v 0.9 0.3 -0.4
v 1.1 0.8 -0.5
v 1 0.8 -0.5
v 0.9 0.8 -0.5
v 1.1 1 -0.5
v 1 1 -0.5
v 0.9 1 -0.5
v 1.1 0.1 0.2
v 0.9 0.1 0.2
v 1.1 1 0.2
v 0.9 1 0.2
v 1.1 0 -0.8
v 0.9 0 -0.8
v 1.1 0.5 -0.8
v 1 0.5 -0.8
v 0.9 0.5 -0.8
v 1.1 0.5 -0.9
v 1 0.5 -0.9
v 0.9 0.5 -0.9
v 1.1 1 -0.9
v 1 1 -0.9
v 0.9 1 -0.9
v 1.1 0.1 0.9
v 1.1 1 0.9
v 1.1 0.3 0.7
v 1.1 0.8 0.7
v 1.1 0.6 0.6
v 1.1 0.7 0.6
v 1.1 0.6 0.5
v 1.1 0.7 0.5
v 1.1 0.3 0.4
v 1.1 0.8 0.4
v 1.1 0.1 0.2
v 1.1 1 0.2
v 1.1 0.3 -0.1
v 1.1 0.8 -0.1
v 1.1 0.4 -0.2
v 1.1 0.6 -0.2
v 1.1 0.7 -0.2
v 1.1 0.6 -0.3
v 1.1 0.7 -0.3
v 1.1 0 -0.4
v 1.1 0.3 -0.4
v 1.1 0.4 -0.4
v 1.1 0.5 -0.4
v 1.1 0.7 -0.4
v 1.1 0.1 -0.5
v 1.1 0.3 -0.5
v 1.1 0.4 -0.5
v 1.1 0.5 -0.5
v 1.1 0.8 -0.5
v 1.1 1 -0.5
v 1.1 0.3 -0.6
v 1.1 0.4 -0.6
v 1.1 0.6 -0.6
v 1.1 0.8 -0.6
v 1.1 0.9 -0.6
v 1.1 0.1 -0.7
v 1.1 0.4 -0.7
v 1.1 0.8 -0.7
v 1.1 0.9 -0.7
v 1.1 0 -0.8
v 1.1 0.5 -0.8
v 1.1 0.6 -0.8
v 1.1 0.9 -0.8
v 1.1 0.5 -0.9
v 1.1 1 -0.9
v 0.9 0.1 0.9
v 0.9 1 0.9
v 0.9 0.1 0.2
v 0.9 1 0.2
v 0.9 0.3 -0.1
v 0.9 0.8 -0.1
v 0.9 0 -0.4
v 0.9 0.3 -0.4
v 0.9 0.8 -0.5
v 0.9 1 -0.5
v 0.9 0 -0.8
v 0.9 0.5 -0.8
v 0.9 0.5 -0.9
v 0.9 1 -0.9
v 1.1 0 -0.4
v 1.1 0 -0.8
v 0.9 0 -0.4
v 0.9 0 -0.8
v 1.1 0.1 0.9
v 1.1 0.1 0.2
v 0.9 0.1 0.9
v 0.9 0.1 0.2
v 1.1 0.3 -0.1
v 1.1 0.3 -0.4
v 1 0.3 -0.1
v 1 0.3 -0.4
v 0.9 0.3 -0.1
v 0.9 0.3 -0.4
v 1.1 0.5 -0.8
v 1.1 0.5 -0.9
v 1 0.5 -0.8
v 1 0.5 -0.9
v 0.9 0.5 -0.8
v 0.9 0.5 -0.9
v 1.1 0.8 -0.1
v 1.1 0.8 -0.5
v 1 0.8 -0.1
v 1 0.8 -0.5
v 0.9 0.8 -0.1
v 0.9 0.8 -0.5
v 1.1 1 0.9
v 1.1 1 0.2
v 1.1 1 -0.5
v 1.1 1 -0.9
v 1 1 -0.5
v 1 1 -0.9
v 0.9 1 0.9
v 0.9 1 0.2
v 0.9 1 -0.5
v 0.9 1 -0.9

# faces
f 3/4/1 2/4/1 1/4/1
f 4/4/1 2/4/1 3/4/1
f 8/3/1 6/3/1 5/3/1
f 9/4/1 7/4/1 6/4/1
f 9/3/1 6/3/1 8/3/1
f 10/4/1 7/4/1 9/4/1
f 13/4/1 12/4/1 11/4/1
f 14/4/1 12/4/1 13/4/1
f 15/4/1 12/4/1 14/4/1
f 19/5/1 17/5/1 16/5/1
f 20/4/1 18/4/1 17/4/1
f 20/5/1 17/5/1 19/5/1
f 21/4/1 18/4/1 20/4/1
f 22/4/2 23/4/2 24/4/2
f 24/4/2 23/4/2 25/4/2
f 26/4/2 27/4/2 28/4/2
f 28/4/2 27/4/2 29/4/2
f 29/4/2 27/4/2 30/4/2
f 31/5/2 32/5/2 34/5/2
f 32/4/2 33/4/2 35/4/2
f 34/5/2 32/5/2 35/5/2
f 35/4/2 33/4/2 36/4/2
f 39/4/3 38/4/3 37/4/3
f 40/4/3 38/4/3 39/4/3
f 41/1/3 40/1/3 39/1/3
f 42/1/3 40/1/3 41/1/3
f 43/1/3 41/1/3 39/1/3
f 43/2/3 42/2/3 41/2/3
f 44/1/3 40/1/3 42/1/3
f 44/2/3 42/2/3 43/2/3
f 45/4/3 39/4/3 37/4/3
f 45/1/3 43/1/3 39/1/3
f 45/1/3 44/1/3 43/1/3
f 46/1/3 40/1/3 44/1/3
f 46/1/3 44/1/3 45/1/3
f 46/4/3 38/4/3 40/4/3
f 47/4/3 45/4/3 37/4/3
f 47/4/3 46/4/3 45/4/3
f 48/4/3 38/4/3 46/4/3
f 48/4/3 46/4/3 47/4/3
f 51/3/3 50/3/3 49/3/3
f 52/3/3 50/3/3 51/3/3
f 53/3/3 50/3/3 52/3/3
f 54/1/3 52/1/3 51/1/3
f 54/2/3 53/2/3 52/2/3
f 55/3/3 50/3/3 53/3/3
f 55/2/3 53/2/3 54/2/3
f 57/3/3 51/3/3 49/3/3
f 58/1/3 54/1/3 51/1/3
f 58/1/3 55/1/3 54/1/3
f 58/3/3 51/3/3 57/3/3
f 59/1/3 55/1/3 58/1/3
f 60/3/3 50/3/3 55/3/3
f 60/1/3 55/1/3 59/1/3
f 61/4/3 59/4/3 58/4/3
f 61/4/3 57/4/3 56/4/3
f 61/4/3 58/4/3 57/4/3
f 62/4/3 59/4/3 61/4/3
f 63/4/3 59/4/3 62/4/3
f 64/3/3 60/3/3 59/3/3
f 64/4/3 59/4/3 63/4/3
f 65/3/3 50/3/3 60/3/3
f 65/3/3 60/3/3 64/3/3
f 67/2/3 63/2/3 62/2/3
f 67/1/3 62/1/3 61/1/3
f 68/4/3 64/4/3 63/4/3
f 68/2/3 63/2/3 67/2/3
f 69/5/3 66/5/3 65/5/3
f 69/5/3 65/5/3 64/5/3
f 70/5/3 66/5/3 69/5/3
f 71/5/3 66/5/3 70/5/3
f 72/1/3 67/1/3 61/1/3
f 72/4/3 61/4/3 56/4/3
f 72/1/3 68/1/3 67/1/3
f 73/4/3 64/4/3 68/4/3
f 73/1/3 68/1/3 72/1/3
f 74/2/3 71/2/3 70/2/3
f 74/1/3 70/1/3 69/1/3
f 75/5/3 66/5/3 71/5/3
f 75/2/3 71/2/3 74/2/3
f 76/4/3 72/4/3 56/4/3
f 76/4/3 73/4/3 72/4/3
f 77/4/3 64/4/3 73/4/3
f 77/4/3 73/4/3 76/4/3
f 77/5/3 69/5/3 64/5/3
f 78/1/3 74/1/3 69/1/3
f 78/5/3 69/5/3 77/5/3
f 78/1/3 75/1/3 74/1/3
f 79/5/3 66/5/3 75/5/3
f 79/1/3 75/1/3 78/1/3
f 80/5/3 78/5/3 77/5/3
f 80/5/3 79/5/3 78/5/3
f 81/5/3 66/5/3 79/5/3
f 81/5/3 79/5/3 80/5/3
f 82/4/4 83/4/4 84/4/4
f 84/4/4 83/4/4 85/4/4
f 86/4/4 87/4/4 89/4/4
f 89/4/4 87/4/4 90/4/4
f 88/4/4 89/4/4 90/4/4
f 88/4/4 90/4/4 92/4/4
f 90/4/4 91/4/4 92/4/4
f 92/4/4 91/4/4 93/4/4
f 93/4/4 91/4/4 94/4/4
f 94/4/4 91/4/4 95/4/4
f 98/4/5 97/4/5 96/4/5
f 99/4/5 97/4/5 98/4/5
f 102/4/5 101/4/5 100/4/5
f 103/4/5 101/4/5 102/4/5
f 106/3/5 105/3/5 104/3/5
f 107/3/5 105/3/5 106/3/5
f 108/4/5 107/4/5 106/4/5
f 109/4/5 107/4/5 108/4/5
f 112/5/5 111/5/5 110/5/5
f 113/5/5 111/5/5 112/5/5
f 114/4/5 113/4/5 112/4/5
f 115/4/5 113/4/5 114/4/5
f 116/3/6 117/3/6 118/3/6
f 118/3/6 117/3/6 119/3/6
f 118/4/6 119/4/6 120/4/6
f 120/4/6 119/4/6 121/4/6
f 124/5/6 125/5/6 126/5/6
f 126/5/6 125/5/6 127/5/6
f 122/4/6 123/4/6 128/4/6
f 128/4/6 123/4/6 129/4/6
f 126/4/6 127/4/6 130/4/6
f 130/4/6 127/4/6 131/4/6
