# MagicaVoxel @ Ephtracy

# group
o 

# material
mtllib model-0.mtl
usemtl palette

# normals
vn 0 0 1
vn 0 0 -1
vn 1 0 0
vn -1 0 0
vn 0 -1 0
vn 0 1 0

# texcoords
vt 0.0214844 0.5
vt 0.0253906 0.5
vt 0.0292969 0.5
vt 0.0800781 0.5
vt 0.0839844 0.5

# verts
v 0.5 1.4 1.3
v -0.5 1.4 1.3
v 0.5 2.1 1.3
v -0.5 2.1 1.3
v 0.5 0.6 1
v 0.4 0.6 1
v -0.4 0.6 1
v -0.5 0.6 1
v 0.4 1.3 1
v -0.4 1.3 1
v 0.5 1.4 1
v -0.5 1.4 1
v 0.5 2.1 0.4
v -0.5 2.1 0.4
v 0.5 2.2 0.4
v -0.5 2.2 0.4
v 0.5 2.1 -0.4
v -0.5 2.1 -0.4
v 0.5 2.2 -0.4
v -0.5 2.2 -0.4
v 0.5 0.6 -1
v 0.4 0.6 -1
v -0.4 0.6 -1
v -0.5 0.6 -1
v 0.4 1.3 -1
v -0.4 1.3 -1
v 0.5 1.4 -1
v -0.5 1.4 -1
v 0.5 1.4 -1.3
v -0.5 1.4 -1.3
v 0.5 2.1 -1.3
v -0.5 2.1 -1.3
v 0.5 1.4 1.3
v 0.5 2.1 1.3
v 0.5 1.5 1.2
v 0.5 1.6 1.2
v 0.5 1.8 1.2
v 0.5 1.9 1.2
v 0.5 1.5 1.1
v 0.5 1.6 1.1
v 0.5 1.8 1.1
v 0.5 1.9 1.1
v 0.5 0.6 1
v 0.5 1.4 1
v 0.5 0.6 0.9
v 0.5 1.3 0.9
v 0.5 1.4 0.8
v 0.5 2.1 0.8
v 0.5 1.3 0.7
v 0.5 1.8 0.7
v 0.5 1.7 0.6
v 0.5 1.8 0.6
v 0.5 1.9 0.6
v 0.5 2.1 0.6
v 0.5 1.6 0.5
v 0.5 1.7 0.5
v 0.5 1.8 0.5
v 0.5 1.9 0.5
v 0.5 1.5 0.4
v 0.5 1.6 0.4
v 0.5 1.7 0.4
v 0.5 1.8 0.4
v 0.5 1.9 0.4
v 0.5 2.1 0.4
v 0.5 2.2 0.4
v 0.5 1.6 0.3
v 0.5 1.7 0.3
v 0.5 1.8 0.3
v 0.5 1.9 0.3
v 0.5 0.6 0.2
v 0.5 1.5 0.2
v 0.5 0.6 0.1
v 0.5 1.6 0.1
v 0.5 1.7 0.1
v 0.5 1.8 0.1
v 0.5 0.6 -0.0999999
v 0.5 1.6 -0.0999999
v 0.5 1.7 -0.0999999
v 0.5 1.8 -0.0999999
v 0.5 0.6 -0.2
v 0.5 1.5 -0.2
v 0.5 1.6 -0.3
v 0.5 1.7 -0.3
v 0.5 1.8 -0.3
v 0.5 1.9 -0.3
v 0.5 1.5 -0.4
v 0.5 1.6 -0.4
v 0.5 1.7 -0.4
v 0.5 1.8 -0.4
v 0.5 1.9 -0.4
v 0.5 2.1 -0.4
v 0.5 2.2 -0.4
v 0.5 1.6 -0.5
v 0.5 1.7 -0.5
v 0.5 1.8 -0.5
v 0.5 1.9 -0.5
v 0.5 1.7 -0.6
v 0.5 1.8 -0.6
v 0.5 1.9 -0.6
v 0.5 2.1 -0.6
v 0.5 1.3 -0.7
v 0.5 1.8 -0.7
v 0.5 1.4 -0.8
v 0.5 2.1 -0.8
v 0.5 0.6 -0.9
v 0.5 1.3 -0.9
v 0.5 0.6 -1
v 0.5 1.4 -1
v 0.5 1.5 -1.1
v 0.5 1.6 -1.1
v 0.5 1.8 -1.1
v 0.5 1.9 -1.1
v 0.5 1.5 -1.2
v 0.5 1.6 -1.2
v 0.5 1.8 -1.2
v 0.5 1.9 -1.2
v 0.5 1.4 -1.3
v 0.5 2.1 -1.3
v -0.5 1.4 1.3
v -0.5 2.1 1.3
v -0.5 1.5 1.2
v -0.5 1.6 1.2
v -0.5 1.8 1.2
v -0.5 1.9 1.2
v -0.5 1.5 1.1
v -0.5 1.6 1.1
v -0.5 1.8 1.1
v -0.5 1.9 1.1
v -0.5 0.6 1
v -0.5 1.4 1
v -0.5 0.6 0.9
v -0.5 1.3 0.9
v -0.5 1.4 0.8
v -0.5 2.1 0.8
v -0.5 1.3 0.7
v -0.5 1.7 0.7
v -0.5 1.8 0.6
v -0.5 2.1 0.6
v -0.5 2 0.4
v -0.5 2.1 0.4
v -0.5 2.2 0.4
v -0.5 2 -0.4
v -0.5 2.1 -0.4
v -0.5 2.2 -0.4
v -0.5 1.8 -0.6
v -0.5 2.1 -0.6
v -0.5 1.3 -0.7
v -0.5 1.7 -0.7
v -0.5 1.4 -0.8
v -0.5 2.1 -0.8
v -0.5 0.6 -0.9
v -0.5 1.3 -0.9
v -0.5 0.6 -1
v -0.5 1.4 -1
v -0.5 1.5 -1.1
v -0.5 1.6 -1.1
v -0.5 1.8 -1.1
v -0.5 1.9 -1.1
v -0.5 1.5 -1.2
v -0.5 1.6 -1.2
v -0.5 1.8 -1.2
v -0.5 1.9 -1.2
v -0.5 1.4 -1.3
v -0.5 2.1 -1.3
v 0.5 0.6 1
v 0.5 0.6 0.9
v 0.5 0.6 0.2
v 0.5 0.6 0.1
v 0.5 0.6 -0.0999999
v 0.5 0.6 -0.2
v 0.5 0.6 -0.9
v 0.5 0.6 -1
v 0.4 0.6 1
v 0.4 0.6 0.9
v 0.4 0.6 0.2
v 0.4 0.6 0.1
v 0.4 0.6 -0.0999999
v 0.4 0.6 -0.2
v 0.4 0.6 -0.9
v 0.4 0.6 -1
v -0.4 0.6 1
v -0.4 0.6 0.9
v -0.4 0.6 -0.9
v -0.4 0.6 -1
v -0.5 0.6 1
v -0.5 0.6 0.9
v -0.5 0.6 -0.9
v -0.5 0.6 -1
v 0.5 1.4 1.3
v 0.5 1.4 1
v 0.5 1.4 -1
v 0.5 1.4 -1.3
v -0.5 1.4 1.3
v -0.5 1.4 1
v -0.5 1.4 -1
v -0.5 1.4 -1.3
v 0.5 2.1 1.3
v 0.5 2.1 0.8
v 0.5 2.1 0.6
v 0.5 2.1 0.4
v 0.5 2.1 -0.4
v 0.5 2.1 -0.6
v 0.5 2.1 -0.8
v 0.5 2.1 -1.3
v 0.3 2.1 1.2
v 0.3 2.1 1.1
v 0.3 2.1 -1.1
v 0.3 2.1 -1.2
v 0.2 2.1 1.2
v 0.2 2.1 1.1
v 0.2 2.1 -1.1
v 0.2 2.1 -1.2
v -0.2 2.1 1.2
v -0.2 2.1 1.1
v -0.2 2.1 -1.1
v -0.2 2.1 -1.2
v -0.3 2.1 1.2
v -0.3 2.1 1.1
v -0.3 2.1 -1.1
v -0.3 2.1 -1.2
v -0.5 2.1 1.3
v -0.5 2.1 0.8
v -0.5 2.1 0.6
v -0.5 2.1 0.4
v -0.5 2.1 -0.4
v -0.5 2.1 -0.6
v -0.5 2.1 -0.8
v -0.5 2.1 -1.3
v 0.5 2.2 0.4
v 0.5 2.2 -0.4
v -0.5 2.2 0.4
v -0.5 2.2 -0.4

# faces
f 3/5/1 2/5/1 1/5/1
f 4/5/1 2/5/1 3/5/1
f 9/3/1 6/3/1 5/3/1
f 9/2/1 7/2/1 6/2/1
f 10/3/1 8/3/1 7/3/1
f 10/2/1 7/2/1 9/2/1
f 11/3/1 9/3/1 5/3/1
f 11/3/1 10/3/1 9/3/1
f 12/3/1 8/3/1 10/3/1
f 12/3/1 10/3/1 11/3/1
f 15/5/1 14/5/1 13/5/1
f 16/5/1 14/5/1 15/5/1
f 17/5/2 18/5/2 19/5/2
f 19/5/2 18/5/2 20/5/2
f 21/3/2 22/3/2 25/3/2
f 22/2/2 23/2/2 25/2/2
f 23/3/2 24/3/2 26/3/2
f 25/2/2 23/2/2 26/2/2
f 21/3/2 25/3/2 27/3/2
f 25/3/2 26/3/2 27/3/2
f 26/3/2 24/3/2 28/3/2
f 27/3/2 26/3/2 28/3/2
f 29/5/2 30/5/2 31/5/2
f 31/5/2 30/5/2 32/5/2
f 35/5/3 34/5/3 33/5/3
f 36/5/3 34/5/3 35/5/3
f 37/5/3 34/5/3 36/5/3
f 38/5/3 34/5/3 37/5/3
f 39/5/3 35/5/3 33/5/3
f 39/4/3 36/4/3 35/4/3
f 40/5/3 37/5/3 36/5/3
f 40/4/3 36/4/3 39/4/3
f 41/4/3 38/4/3 37/4/3
f 41/5/3 37/5/3 40/5/3
f 42/5/3 34/5/3 38/5/3
f 42/4/3 38/4/3 41/4/3
f 44/5/3 41/5/3 40/5/3
f 44/5/3 40/5/3 39/5/3
f 44/5/3 42/5/3 41/5/3
f 44/5/3 39/5/3 33/5/3
f 45/3/3 44/3/3 43/3/3
f 46/3/3 44/3/3 45/3/3
f 47/5/3 42/5/3 44/5/3
f 47/3/3 44/3/3 46/3/3
f 48/5/3 34/5/3 42/5/3
f 48/5/3 42/5/3 47/5/3
f 49/3/3 47/3/3 46/3/3
f 49/2/3 46/2/3 45/2/3
f 49/3/3 48/3/3 47/3/3
f 50/3/3 48/3/3 49/3/3
f 51/2/3 50/2/3 49/2/3
f 52/3/3 48/3/3 50/3/3
f 52/2/3 50/2/3 51/2/3
f 53/3/3 48/3/3 52/3/3
f 54/3/3 48/3/3 53/3/3
f 55/2/3 51/2/3 49/2/3
f 56/3/3 52/3/3 51/3/3
f 56/2/3 51/2/3 55/2/3
f 56/3/3 53/3/3 52/3/3
f 57/3/3 53/3/3 56/3/3
f 58/1/3 54/1/3 53/1/3
f 58/3/3 53/3/3 57/3/3
f 59/2/3 55/2/3 49/2/3
f 60/3/3 57/3/3 56/3/3
f 60/2/3 55/2/3 59/2/3
f 60/3/3 56/3/3 55/3/3
f 61/3/3 57/3/3 60/3/3
f 62/1/3 58/1/3 57/1/3
f 62/3/3 57/3/3 61/3/3
f 63/1/3 54/1/3 58/1/3
f 63/1/3 58/1/3 62/1/3
f 64/1/3 54/1/3 63/1/3
f 66/3/3 61/3/3 60/3/3
f 66/3/3 60/3/3 59/3/3
f 67/1/3 63/1/3 62/1/3
f 67/3/3 61/3/3 66/3/3
f 67/1/3 62/1/3 61/1/3
f 68/1/3 63/1/3 67/1/3
f 69/5/3 64/5/3 63/5/3
f 69/1/3 63/1/3 68/1/3
f 69/5/3 65/5/3 64/5/3
f 70/2/3 49/2/3 45/2/3
f 70/2/3 59/2/3 49/2/3
f 71/3/3 66/3/3 59/3/3
f 71/2/3 59/2/3 70/2/3
f 72/3/3 71/3/3 70/3/3
f 73/1/3 68/1/3 67/1/3
f 73/3/3 71/3/3 72/3/3
f 73/1/3 67/1/3 66/1/3
f 73/3/3 66/3/3 71/3/3
f 74/1/3 68/1/3 73/1/3
f 75/5/3 69/5/3 68/5/3
f 75/1/3 68/1/3 74/1/3
f 76/1/3 74/1/3 73/1/3
f 76/1/3 73/1/3 72/1/3
f 77/1/3 74/1/3 76/1/3
f 78/5/3 75/5/3 74/5/3
f 78/1/3 74/1/3 77/1/3
f 79/5/3 69/5/3 75/5/3
f 79/5/3 75/5/3 78/5/3
f 80/3/3 77/3/3 76/3/3
f 81/3/3 77/3/3 80/3/3
f 82/1/3 78/1/3 77/1/3
f 82/3/3 77/3/3 81/3/3
f 82/1/3 79/1/3 78/1/3
f 83/1/3 79/1/3 82/1/3
f 84/5/3 69/5/3 79/5/3
f 84/1/3 79/1/3 83/1/3
f 85/5/3 65/5/3 69/5/3
f 85/5/3 69/5/3 84/5/3
f 86/2/3 81/2/3 80/2/3
f 86/3/3 83/3/3 82/3/3
f 86/3/3 82/3/3 81/3/3
f 87/3/3 83/3/3 86/3/3
f 88/1/3 84/1/3 83/1/3
f 88/3/3 83/3/3 87/3/3
f 88/1/3 85/1/3 84/1/3
f 89/1/3 85/1/3 88/1/3
f 90/5/3 65/5/3 85/5/3
f 90/1/3 85/1/3 89/1/3
f 91/5/3 65/5/3 90/5/3
f 92/5/3 65/5/3 91/5/3
f 93/2/3 87/2/3 86/2/3
f 93/3/3 89/3/3 88/3/3
f 93/3/3 88/3/3 87/3/3
f 94/3/3 89/3/3 93/3/3
f 95/1/3 91/1/3 90/1/3
f 95/3/3 89/3/3 94/3/3
f 95/1/3 90/1/3 89/1/3
f 96/1/3 91/1/3 95/1/3
f 97/2/3 94/2/3 93/2/3
f 97/3/3 95/3/3 94/3/3
f 97/3/3 96/3/3 95/3/3
f 98/3/3 96/3/3 97/3/3
f 99/1/3 91/1/3 96/1/3
f 99/3/3 96/3/3 98/3/3
f 100/1/3 91/1/3 99/1/3
f 101/2/3 98/2/3 97/2/3
f 101/2/3 86/2/3 80/2/3
f 101/2/3 93/2/3 86/2/3
f 101/2/3 97/2/3 93/2/3
f 102/3/3 100/3/3 99/3/3
f 102/2/3 98/2/3 101/2/3
f 102/3/3 99/3/3 98/3/3
f 103/3/3 102/3/3 101/3/3
f 104/3/3 100/3/3 102/3/3
f 104/3/3 102/3/3 103/3/3
f 105/2/3 101/2/3 80/2/3
f 106/3/3 103/3/3 101/3/3
f 106/2/3 101/2/3 105/2/3
f 107/3/3 106/3/3 105/3/3
f 108/5/3 104/5/3 103/5/3
f 108/3/3 106/3/3 107/3/3
f 108/3/3 103/3/3 106/3/3
f 109/5/3 104/5/3 108/5/3
f 110/5/3 104/5/3 109/5/3
f 111/5/3 104/5/3 110/5/3
f 112/5/3 104/5/3 111/5/3
f 113/5/3 109/5/3 108/5/3
f 113/4/3 110/4/3 109/4/3
f 114/5/3 111/5/3 110/5/3
f 114/4/3 110/4/3 113/4/3
f 115/4/3 112/4/3 111/4/3
f 115/5/3 111/5/3 114/5/3
f 116/5/3 104/5/3 112/5/3
f 116/4/3 112/4/3 115/4/3
f 117/5/3 115/5/3 114/5/3
f 117/5/3 114/5/3 113/5/3
f 117/5/3 116/5/3 115/5/3
f 117/5/3 113/5/3 108/5/3
f 118/5/3 104/5/3 116/5/3
f 118/5/3 116/5/3 117/5/3
f 119/5/4 120/5/4 121/5/4
f 121/5/4 120/5/4 122/5/4
f 122/5/4 120/5/4 123/5/4
f 123/5/4 120/5/4 124/5/4
f 119/5/4 121/5/4 125/5/4
f 121/4/4 122/4/4 125/4/4
f 122/5/4 123/5/4 126/5/4
f 125/4/4 122/4/4 126/4/4
f 123/4/4 124/4/4 127/4/4
f 126/5/4 123/5/4 127/5/4
f 124/5/4 120/5/4 128/5/4
f 127/4/4 124/4/4 128/4/4
f 126/5/4 127/5/4 130/5/4
f 125/5/4 126/5/4 130/5/4
f 127/5/4 128/5/4 130/5/4
f 119/5/4 125/5/4 130/5/4
f 129/3/4 130/3/4 131/3/4
f 131/3/4 130/3/4 132/3/4
f 130/5/4 128/5/4 133/5/4
f 132/3/4 130/3/4 133/3/4
f 128/5/4 120/5/4 134/5/4
f 133/5/4 128/5/4 134/5/4
f 132/3/4 133/3/4 135/3/4
f 131/2/4 132/2/4 135/2/4
f 133/3/4 134/3/4 135/3/4
f 135/3/4 134/3/4 136/3/4
f 136/3/4 134/3/4 137/3/4
f 137/3/4 134/3/4 138/3/4
f 137/1/4 138/1/4 139/1/4
f 139/1/4 138/1/4 140/1/4
f 139/5/4 140/5/4 142/5/4
f 140/5/4 141/5/4 142/5/4
f 137/1/4 139/1/4 142/1/4
f 142/5/4 141/5/4 143/5/4
f 143/5/4 141/5/4 144/5/4
f 136/3/4 137/3/4 145/3/4
f 137/1/4 142/1/4 145/1/4
f 142/1/4 143/1/4 145/1/4
f 145/1/4 143/1/4 146/1/4
f 131/2/4 135/2/4 147/2/4
f 135/2/4 136/2/4 147/2/4
f 145/3/4 146/3/4 148/3/4
f 147/2/4 136/2/4 148/2/4
f 136/3/4 145/3/4 148/3/4
f 147/3/4 148/3/4 149/3/4
f 148/3/4 146/3/4 150/3/4
f 149/3/4 148/3/4 150/3/4
f 131/2/4 147/2/4 151/2/4
f 147/3/4 149/3/4 152/3/4
f 151/2/4 147/2/4 152/2/4
f 151/3/4 152/3/4 153/3/4
f 149/5/4 150/5/4 154/5/4
f 153/3/4 152/3/4 154/3/4
f 152/3/4 149/3/4 154/3/4
f 154/5/4 150/5/4 155/5/4
f 155/5/4 150/5/4 156/5/4
f 156/5/4 150/5/4 157/5/4
f 157/5/4 150/5/4 158/5/4
f 154/5/4 155/5/4 159/5/4
f 155/4/4 156/4/4 159/4/4
f 156/5/4 157/5/4 160/5/4
f 159/4/4 156/4/4 160/4/4
f 157/4/4 158/4/4 161/4/4
f 160/5/4 157/5/4 161/5/4
f 158/5/4 150/5/4 162/5/4
f 161/4/4 158/4/4 162/4/4
f 160/5/4 161/5/4 163/5/4
f 159/5/4 160/5/4 163/5/4
f 161/5/4 162/5/4 163/5/4
f 154/5/4 159/5/4 163/5/4
f 162/5/4 150/5/4 164/5/4
f 163/5/4 162/5/4 164/5/4
f 173/3/5 166/3/5 165/3/5
f 174/2/5 167/2/5 166/2/5
f 174/3/5 166/3/5 173/3/5
f 175/3/5 168/3/5 167/3/5
f 175/2/5 167/2/5 174/2/5
f 176/1/5 169/1/5 168/1/5
f 176/3/5 168/3/5 175/3/5
f 177/3/5 170/3/5 169/3/5
f 177/1/5 169/1/5 176/1/5
f 178/2/5 171/2/5 170/2/5
f 178/3/5 170/3/5 177/3/5
f 179/3/5 172/3/5 171/3/5
f 179/2/5 171/2/5 178/2/5
f 180/3/5 172/3/5 179/3/5
f 181/2/5 178/2/5 177/2/5
f 181/2/5 174/2/5 173/2/5
f 181/2/5 180/2/5 179/2/5
f 181/2/5 179/2/5 178/2/5
f 181/2/5 177/2/5 176/2/5
f 181/2/5 176/2/5 175/2/5
f 181/2/5 175/2/5 174/2/5
f 182/2/5 180/2/5 181/2/5
f 183/2/5 180/2/5 182/2/5
f 184/2/5 180/2/5 183/2/5
f 185/3/5 182/3/5 181/3/5
f 186/2/5 183/2/5 182/2/5
f 186/3/5 182/3/5 185/3/5
f 187/3/5 184/3/5 183/3/5
f 187/2/5 183/2/5 186/2/5
f 188/3/5 184/3/5 187/3/5
f 193/5/5 190/5/5 189/5/5
f 194/5/5 190/5/5 193/5/5
f 195/5/5 192/5/5 191/5/5
f 196/5/5 192/5/5 195/5/5
f 197/5/6 198/5/6 205/5/6
f 205/5/6 198/5/6 206/5/6
f 203/5/6 204/5/6 207/5/6
f 207/5/6 204/5/6 208/5/6
f 197/5/6 205/5/6 209/5/6
f 205/4/6 206/4/6 209/4/6
f 206/5/6 198/5/6 210/5/6
f 209/4/6 206/4/6 210/4/6
f 207/4/6 208/4/6 211/4/6
f 203/5/6 207/5/6 211/5/6
f 208/5/6 204/5/6 212/5/6
f 211/4/6 208/4/6 212/4/6
f 197/5/6 209/5/6 213/5/6
f 209/5/6 210/5/6 213/5/6
f 210/5/6 198/5/6 214/5/6
f 213/5/6 210/5/6 214/5/6
f 203/5/6 211/5/6 215/5/6
f 211/5/6 212/5/6 215/5/6
f 212/5/6 204/5/6 216/5/6
f 215/5/6 212/5/6 216/5/6
f 197/5/6 213/5/6 217/5/6
f 213/4/6 214/4/6 217/4/6
f 214/5/6 198/5/6 218/5/6
f 217/4/6 214/4/6 218/4/6
f 203/5/6 215/5/6 219/5/6
f 215/4/6 216/4/6 219/4/6
f 216/5/6 204/5/6 220/5/6
f 219/4/6 216/4/6 220/4/6
f 197/5/6 217/5/6 221/5/6
f 217/5/6 218/5/6 221/5/6
f 218/5/6 198/5/6 222/5/6
f 221/5/6 218/5/6 222/5/6
f 198/3/6 199/3/6 222/3/6
f 199/1/6 200/1/6 223/1/6
f 222/3/6 199/3/6 223/3/6
f 223/1/6 200/1/6 224/1/6
f 201/1/6 202/1/6 225/1/6
f 202/3/6 203/3/6 226/3/6
f 225/1/6 202/1/6 226/1/6
f 219/5/6 220/5/6 227/5/6
f 226/3/6 203/3/6 227/3/6
f 203/5/6 219/5/6 227/5/6
f 220/5/6 204/5/6 228/5/6
f 227/5/6 220/5/6 228/5/6
f 229/5/6 230/5/6 231/5/6
f 231/5/6 230/5/6 232/5/6
