# MagicaVoxel @ Ephtracy

# group
o 

# material
mtllib model-1.mtl
usemtl palette

# normals
vn 0 0 1
vn 0 0 -1
vn 1 0 0
vn -1 0 0
vn 0 -1 0
vn 0 1 0

# texcoords
vt 0.0214844 0.5
vt 0.0253906 0.5
vt 0.0292969 0.5

# verts
v 0.5 0 1
v -0.5 0 1
v 0.4 0.1 1
v -0.4 0.1 1
v 0.5 0.7 1
v 0.4 0.7 1
v -0.4 0.7 1
v -0.5 0.7 1
v 0.5 0 -1
v -0.5 0 -1
v 0.4 0.1 -1
v -0.4 0.1 -1
v 0.5 0.7 -1
v 0.4 0.7 -1
v -0.4 0.7 -1
v -0.5 0.7 -1
v 0.5 0 1
v 0.5 0.7 1
v 0.5 0.1 0.9
v 0.5 0.7 0.9
v 0.5 0.1 0.2
v 0.5 0.7 0.2
v 0.5 0 0.1
v 0.5 0.7 0.1
v 0.5 0 -0.1
v 0.5 0.7 -0.1
v 0.5 0.1 -0.2
v 0.5 0.7 -0.2
v 0.5 0.1 -0.9
v 0.5 0.7 -0.9
v 0.5 0 -1
v 0.5 0.7 -1
v -0.5 0 1
v -0.5 0.7 1
v -0.5 0.1 0.9
v -0.5 0.7 0.9
v -0.5 0.1 -0.9
v -0.5 0.7 -0.9
v -0.5 0 -1
v -0.5 0.7 -1
v 0.5 0 1
v 0.5 0 0.1
v 0.5 0 -0.1
v 0.5 0 -1
v 0.4 0 0.1
v 0.4 0 -0.1
v -0.5 0 1
v -0.5 0 -1
v 0.5 0.7 1
v 0.5 0.7 0.9
v 0.5 0.7 0.2
v 0.5 0.7 0.1
v 0.5 0.7 -0.1
v 0.5 0.7 -0.2
v 0.5 0.7 -0.9
v 0.5 0.7 -1
v 0.4 0.7 1
v 0.4 0.7 0.9
v 0.4 0.7 0.2
v 0.4 0.7 0.1
v 0.4 0.7 -0.1
v 0.4 0.7 -0.2
v 0.4 0.7 -0.9
v 0.4 0.7 -1
v -0.4 0.7 1
v -0.4 0.7 0.9
v -0.4 0.7 -0.9
v -0.4 0.7 -1
v -0.5 0.7 1
v -0.5 0.7 0.9
v -0.5 0.7 -0.9
v -0.5 0.7 -1

# faces
f 3/3/1 2/3/1 1/3/1
f 4/3/1 2/3/1 3/3/1
f 5/3/1 3/3/1 1/3/1
f 6/2/1 4/2/1 3/2/1
f 6/3/1 3/3/1 5/3/1
f 7/3/1 2/3/1 4/3/1
f 7/2/1 4/2/1 6/2/1
f 8/3/1 2/3/1 7/3/1
f 9/3/2 10/3/2 11/3/2
f 11/3/2 10/3/2 12/3/2
f 9/3/2 11/3/2 13/3/2
f 11/2/2 12/2/2 14/2/2
f 13/3/2 11/3/2 14/3/2
f 12/3/2 10/3/2 15/3/2
f 14/2/2 12/2/2 15/2/2
f 15/3/2 10/3/2 16/3/2
f 19/3/3 18/3/3 17/3/3
f 20/3/3 18/3/3 19/3/3
f 21/3/3 19/3/3 17/3/3
f 21/2/3 20/2/3 19/2/3
f 22/2/3 20/2/3 21/2/3
f 23/3/3 21/3/3 17/3/3
f 23/3/3 22/3/3 21/3/3
f 24/3/3 22/3/3 23/3/3
f 25/1/3 24/1/3 23/1/3
f 26/1/3 24/1/3 25/1/3
f 27/3/3 26/3/3 25/3/3
f 28/3/3 26/3/3 27/3/3
f 29/3/3 27/3/3 25/3/3
f 29/2/3 28/2/3 27/2/3
f 30/2/3 28/2/3 29/2/3
f 31/3/3 29/3/3 25/3/3
f 31/3/3 30/3/3 29/3/3
f 32/3/3 30/3/3 31/3/3
f 33/3/4 34/3/4 35/3/4
f 35/3/4 34/3/4 36/3/4
f 33/3/4 35/3/4 37/3/4
f 35/2/4 36/2/4 37/2/4
f 37/2/4 36/2/4 38/2/4
f 33/3/4 37/3/4 39/3/4
f 37/3/4 38/3/4 39/3/4
f 39/3/4 38/3/4 40/3/4
f 45/3/5 42/3/5 41/3/5
f 45/1/5 43/1/5 42/1/5
f 46/3/5 44/3/5 43/3/5
f 46/1/5 43/1/5 45/1/5
f 47/3/5 45/3/5 41/3/5
f 47/3/5 46/3/5 45/3/5
f 48/3/5 44/3/5 46/3/5
f 48/3/5 46/3/5 47/3/5
f 49/3/6 50/3/6 57/3/6
f 50/2/6 51/2/6 58/2/6
f 57/3/6 50/3/6 58/3/6
f 51/3/6 52/3/6 59/3/6
f 58/2/6 51/2/6 59/2/6
f 52/1/6 53/1/6 60/1/6
f 59/3/6 52/3/6 60/3/6
f 53/3/6 54/3/6 61/3/6
f 60/1/6 53/1/6 61/1/6
f 54/2/6 55/2/6 62/2/6
f 61/3/6 54/3/6 62/3/6
f 55/3/6 56/3/6 63/3/6
f 62/2/6 55/2/6 63/2/6
f 63/3/6 56/3/6 64/3/6
f 61/2/6 62/2/6 65/2/6
f 57/2/6 58/2/6 65/2/6
f 63/2/6 64/2/6 65/2/6
f 62/2/6 63/2/6 65/2/6
f 60/2/6 61/2/6 65/2/6
f 59/2/6 60/2/6 65/2/6
f 58/2/6 59/2/6 65/2/6
f 65/2/6 64/2/6 66/2/6
f 66/2/6 64/2/6 67/2/6
f 67/2/6 64/2/6 68/2/6
f 65/3/6 66/3/6 69/3/6
f 66/2/6 67/2/6 70/2/6
f 69/3/6 66/3/6 70/3/6
f 67/3/6 68/3/6 71/3/6
f 70/2/6 67/2/6 71/2/6
f 71/3/6 68/3/6 72/3/6
