# MagicaVoxel @ Ephtracy

# group
o 

# material
mtllib model-5.mtl
usemtl palette

# normals
vn 0 0 1
vn 0 0 -1
vn 1 0 0
vn -1 0 0
vn 0 -1 0
vn 0 1 0

# texcoords
vt 0.349609 0.5
vt 0.357422 0.5

# verts
v 0.3 1.4 -1.6
v -0.3 1.4 -1.6
v 0.3 2 -1.6
v -0.3 2 -1.6
v 0.3 1.4 -2.4
v -0.3 1.4 -2.4
v 0.3 2 -2.4
v -0.3 2 -2.4
v 0.3 1.4 -1.6
v 0.3 2 -1.6
v 0.3 1.4 -2.3
v 0.3 2 -2.3
v 0.3 1.4 -2.4
v 0.3 2 -2.4
v -0.3 1.4 -1.6
v -0.3 2 -1.6
v -0.3 1.4 -2.3
v -0.3 2 -2.3
v -0.3 1.4 -2.4
v -0.3 2 -2.4
v 0.3 1.4 -1.6
v 0.3 1.4 -2.3
v 0.3 1.4 -2.4
v -0.3 1.4 -1.6
v -0.3 1.4 -2.3
v -0.3 1.4 -2.4
v 0.3 2 -1.6
v 0.3 2 -2.3
v 0.3 2 -2.4
v 0.2 2 -2
v 0.2 2 -2.1
v 0.1 2 -1.9
v 0.1 2 -2
v 0.1 2 -2.1
v 0.1 2 -2.2
v 0 2 -1.9
v 0 2 -2
v 0 2 -2.1
v 0 2 -2.2
v -0.1 2 -2
v -0.1 2 -2.1
v -0.3 2 -1.6
v -0.3 2 -2.3
v -0.3 2 -2.4

# faces
f 3/1/1 2/1/1 1/1/1
f 4/1/1 2/1/1 3/1/1
f 5/2/2 6/2/2 7/2/2
f 7/2/2 6/2/2 8/2/2
f 11/1/3 10/1/3 9/1/3
f 12/1/3 10/1/3 11/1/3
f 13/2/3 12/2/3 11/2/3
f 14/2/3 12/2/3 13/2/3
f 15/1/4 16/1/4 17/1/4
f 17/1/4 16/1/4 18/1/4
f 17/2/4 18/2/4 19/2/4
f 19/2/4 18/2/4 20/2/4
f 24/1/5 22/1/5 21/1/5
f 25/2/5 23/2/5 22/2/5
f 25/1/5 22/1/5 24/1/5
f 26/2/5 23/2/5 25/2/5
f 27/1/6 28/1/6 30/1/6
f 30/1/6 28/1/6 31/1/6
f 27/1/6 30/1/6 32/1/6
f 30/2/6 31/2/6 33/2/6
f 32/1/6 30/1/6 33/1/6
f 31/1/6 28/1/6 34/1/6
f 33/2/6 31/2/6 34/2/6
f 34/1/6 28/1/6 35/1/6
f 32/2/6 33/2/6 36/2/6
f 27/1/6 32/1/6 36/1/6
f 34/2/6 35/2/6 36/2/6
f 33/2/6 34/2/6 36/2/6
f 36/2/6 35/2/6 37/2/6
f 37/2/6 35/2/6 38/2/6
f 35/1/6 28/1/6 39/1/6
f 38/2/6 35/2/6 39/2/6
f 37/2/6 38/2/6 40/2/6
f 36/1/6 37/1/6 40/1/6
f 38/1/6 39/1/6 41/1/6
f 40/2/6 38/2/6 41/2/6
f 27/1/6 36/1/6 42/1/6
f 36/1/6 40/1/6 42/1/6
f 40/1/6 41/1/6 42/1/6
f 28/2/6 29/2/6 43/2/6
f 42/1/6 41/1/6 43/1/6
f 39/1/6 28/1/6 43/1/6
f 41/1/6 39/1/6 43/1/6
f 43/2/6 29/2/6 44/2/6
