# MagicaVoxel @ Ephtracy

# group
o 

# material
mtllib model-1.mtl
usemtl palette

# normals
vn 0 0 1
vn 0 0 -1
vn 1 0 0
vn -1 0 0
vn 0 -1 0
vn 0 1 0

# texcoords
vt 0.349609 0.5
vt 0.357422 0.5
vt 0.396484 0.5

# verts
v 0.5 0 1
v -0.5 0 1
v 0.5 0.7 1
v -0.5 0.7 1
v 0.6 0 0.6
v 0.5 0 0.6
v 0.6 0.7 0.6
v 0.5 0.7 0.6
v 0.6 0 -0.4
v 0.4 0 -0.4
v 0.5 0.1 -0.4
v 0.4 0.1 -0.4
v 0.5 0.4 -0.4
v 0.5 0.5 -0.4
v 0.6 0.7 -0.4
v 0.5 0.7 -0.4
v 0.4 0 -0.9
v -0.4 0 -0.9
v 0.4 0.1 -0.9
v -0.4 0.1 -0.9
v 0.4 0 0.9
v -0.4 0 0.9
v 0.4 0.1 0.9
v -0.4 0.1 0.9
v 0.6 0 0.4
v 0.4 0 0.4
v 0.5 0.1 0.4
v 0.4 0.1 0.4
v 0.6 0.7 0.4
v 0.5 0.7 0.4
v 0.6 0 -0.6
v 0.5 0 -0.6
v 0.6 0.7 -0.6
v 0.5 0.7 -0.6
v 0.5 0 -1
v -0.5 0 -1
v 0.5 0.7 -1
v -0.5 0.7 -1
v 0.6 0 0.6
v 0.6 0.7 0.6
v 0.6 0 0.4
v 0.6 0.7 0.4
v 0.6 0 -0.4
v 0.6 0.7 -0.4
v 0.6 0 -0.6
v 0.6 0.7 -0.6
v 0.5 0 1
v 0.5 0.7 1
v 0.5 0 0.6
v 0.5 0.7 0.6
v 0.5 0.1 0.4
v 0.5 0.7 0.4
v 0.5 0.3 0.3
v 0.5 0.4 0.3
v 0.5 0.2 0.2
v 0.5 0.3 0.2
v 0.5 0.4 0.2
v 0.5 0.5 0.2
v 0.5 0.2 0.1
v 0.5 0.3 0.1
v 0.5 0.4 0.1
v 0.5 0.5 0.1
v 0.5 0.3 0
v 0.5 0.4 0
v 0.5 0.4 -0.1
v 0.5 0.5 -0.1
v 0.5 0.3 -0.2
v 0.5 0.4 -0.2
v 0.5 0.5 -0.2
v 0.5 0.6 -0.2
v 0.5 0.3 -0.3
v 0.5 0.4 -0.3
v 0.5 0.5 -0.3
v 0.5 0.6 -0.3
v 0.5 0.1 -0.4
v 0.5 0.4 -0.4
v 0.5 0.5 -0.4
v 0.5 0.7 -0.4
v 0.5 0 -0.6
v 0.5 0.7 -0.6
v 0.5 0 -1
v 0.5 0.7 -1
v -0.4 0 0.9
v -0.4 0.1 0.9
v -0.4 0 -0.9
v -0.4 0.1 -0.9
v 0.4 0 0.9
v 0.4 0.1 0.9
v 0.4 0 0.4
v 0.4 0.1 0.4
v 0.4 0 -0.4
v 0.4 0.1 -0.4
v 0.4 0 -0.9
v 0.4 0.1 -0.9
v -0.5 0 1
v -0.5 0.7 1
v -0.5 0 -1
v -0.5 0.7 -1
v 0.6 0 0.6
v 0.6 0 0.4
v 0.6 0 -0.4
v 0.6 0 -0.6
v 0.5 0 1
v 0.5 0 0.6
v 0.5 0 -0.6
v 0.5 0 -1
v 0.4 0 0.9
v 0.4 0 0.4
v 0.4 0 -0.4
v 0.4 0 -0.9
v -0.4 0 0.9
v -0.4 0 -0.9
v -0.5 0 1
v -0.5 0 -1
v 0.5 0.1 0.4
v 0.5 0.1 -0.4
v 0.4 0.1 0.9
v 0.4 0.1 0.4
v 0.4 0.1 -0.4
v 0.4 0.1 -0.9
v -0.4 0.1 0.9
v -0.4 0.1 -0.9
v 0.6 0.7 0.6
v 0.6 0.7 0.4
v 0.6 0.7 -0.4
v 0.6 0.7 -0.6
v 0.5 0.7 1
v 0.5 0.7 0.6
v 0.5 0.7 0.4
v 0.5 0.7 -0.4
v 0.5 0.7 -0.6
v 0.5 0.7 -1
v 0.4 0.7 0.4
v 0.4 0.7 -0.4
v -0.5 0.7 1
v -0.5 0.7 -1

# faces
f 3/1/1 2/1/1 1/1/1
f 4/1/1 2/1/1 3/1/1
f 7/1/1 6/1/1 5/1/1
f 8/1/1 6/1/1 7/1/1
f 11/1/1 10/1/1 9/1/1
f 12/1/1 10/1/1 11/1/1
f 13/1/1 11/1/1 9/1/1
f 14/1/1 13/1/1 9/1/1
f 15/1/1 14/1/1 9/1/1
f 16/1/1 14/1/1 15/1/1
f 19/1/1 18/1/1 17/1/1
f 20/1/1 18/1/1 19/1/1
f 21/1/2 22/1/2 23/1/2
f 23/1/2 22/1/2 24/1/2
f 25/1/2 26/1/2 27/1/2
f 27/1/2 26/1/2 28/1/2
f 25/1/2 27/1/2 29/1/2
f 29/1/2 27/1/2 30/1/2
f 31/1/2 32/1/2 33/1/2
f 33/1/2 32/1/2 34/1/2
f 35/1/2 36/1/2 37/1/2
f 37/1/2 36/1/2 38/1/2
f 41/1/3 40/1/3 39/1/3
f 42/1/3 40/1/3 41/1/3
f 45/1/3 44/1/3 43/1/3
f 46/1/3 44/1/3 45/1/3
f 49/1/3 48/1/3 47/1/3
f 50/1/3 48/1/3 49/1/3
f 53/2/3 52/2/3 51/2/3
f 54/2/3 52/2/3 53/2/3
f 55/2/3 53/2/3 51/2/3
f 56/3/3 54/3/3 53/3/3
f 56/2/3 53/2/3 55/2/3
f 57/2/3 52/2/3 54/2/3
f 57/3/3 54/3/3 56/3/3
f 58/2/3 52/2/3 57/2/3
f 59/3/3 56/3/3 55/3/3
f 59/2/3 55/2/3 51/2/3
f 59/3/3 58/3/3 57/3/3
f 59/3/3 57/3/3 56/3/3
f 60/3/3 58/3/3 59/3/3
f 61/3/3 58/3/3 60/3/3
f 62/2/3 52/2/3 58/2/3
f 62/3/3 58/3/3 61/3/3
f 63/3/3 61/3/3 60/3/3
f 63/2/3 60/2/3 59/2/3
f 64/2/3 62/2/3 61/2/3
f 64/3/3 61/3/3 63/3/3
f 65/2/3 64/2/3 63/2/3
f 65/2/3 62/2/3 64/2/3
f 66/2/3 52/2/3 62/2/3
f 66/2/3 62/2/3 65/2/3
f 67/2/3 65/2/3 63/2/3
f 67/2/3 63/2/3 59/2/3
f 68/3/3 66/3/3 65/3/3
f 68/2/3 65/2/3 67/2/3
f 69/2/3 52/2/3 66/2/3
f 69/3/3 66/3/3 68/3/3
f 70/2/3 52/2/3 69/2/3
f 71/3/3 68/3/3 67/3/3
f 71/2/3 67/2/3 59/2/3
f 71/3/3 70/3/3 69/3/3
f 71/3/3 69/3/3 68/3/3
f 72/3/3 70/3/3 71/3/3
f 73/3/3 70/3/3 72/3/3
f 74/2/3 52/2/3 70/2/3
f 74/3/3 70/3/3 73/3/3
f 75/2/3 59/2/3 51/2/3
f 75/2/3 71/2/3 59/2/3
f 75/2/3 72/2/3 71/2/3
f 76/3/3 73/3/3 72/3/3
f 76/2/3 72/2/3 75/2/3
f 77/2/3 74/2/3 73/2/3
f 77/3/3 73/3/3 76/3/3
f 78/2/3 52/2/3 74/2/3
f 78/2/3 74/2/3 77/2/3
f 81/1/3 80/1/3 79/1/3
f 82/1/3 80/1/3 81/1/3
f 85/1/3 84/1/3 83/1/3
f 86/1/3 84/1/3 85/1/3
f 87/1/4 88/1/4 89/1/4
f 89/1/4 88/1/4 90/1/4
f 91/1/4 92/1/4 93/1/4
f 93/1/4 92/1/4 94/1/4
f 95/1/4 96/1/4 97/1/4
f 97/1/4 96/1/4 98/1/4
f 104/1/5 100/1/5 99/1/5
f 105/1/5 102/1/5 101/1/5
f 107/1/5 104/1/5 103/1/5
f 108/1/5 100/1/5 104/1/5
f 108/1/5 104/1/5 107/1/5
f 109/1/5 106/1/5 105/1/5
f 109/1/5 105/1/5 101/1/5
f 110/1/5 106/1/5 109/1/5
f 111/1/5 107/1/5 103/1/5
f 112/1/5 106/1/5 110/1/5
f 113/1/5 111/1/5 103/1/5
f 113/1/5 112/1/5 111/1/5
f 114/1/5 106/1/5 112/1/5
f 114/1/5 112/1/5 113/1/5
f 118/2/5 116/2/5 115/2/5
f 119/2/5 116/2/5 118/2/5
f 121/1/5 118/1/5 117/1/5
f 121/1/5 120/1/5 119/1/5
f 121/1/5 119/1/5 118/1/5
f 122/1/5 120/1/5 121/1/5
f 123/1/6 124/1/6 128/1/6
f 128/1/6 124/1/6 129/1/6
f 125/1/6 126/1/6 130/1/6
f 130/1/6 126/1/6 131/1/6
f 128/1/6 129/1/6 133/1/6
f 127/1/6 128/1/6 133/1/6
f 129/2/6 130/2/6 133/2/6
f 131/1/6 132/1/6 134/1/6
f 133/2/6 130/2/6 134/2/6
f 130/1/6 131/1/6 134/1/6
f 127/1/6 133/1/6 135/1/6
f 133/1/6 134/1/6 135/1/6
f 134/1/6 132/1/6 136/1/6
f 135/1/6 134/1/6 136/1/6
