# MagicaVoxel @ Ephtracy

# group
o 

# material
mtllib model-0.mtl
usemtl palette

# normals
vn 0 0 1
vn 0 0 -1
vn 1 0 0
vn -1 0 0
vn 0 -1 0
vn 0 1 0

# texcoords
vt 0.00585938 0.5
vt 0.576172 0.5

# verts
v 0.4 0.4 0.9
v -0.4 0.4 0.9
v 0.4 1.1 0.9
v -0.4 1.1 0.9
v 0.4 0.4 0.2
v -0.4 0.4 0.2
v 0.4 1.1 0.2
v -0.4 1.1 0.2
v 0.4 0.4 0.9
v 0.4 1.1 0.9
v 0.4 0.7 0.8
v 0.4 0.9 0.8
v 0.4 0.6 0.7
v 0.4 0.7 0.7
v 0.4 0.9 0.7
v 0.4 1 0.7
v 0.4 0.5 0.6
v 0.4 0.6 0.6
v 0.4 0.9 0.6
v 0.4 1 0.6
v 0.4 0.5 0.5
v 0.4 0.6 0.5
v 0.4 0.9 0.5
v 0.4 1 0.5
v 0.4 0.6 0.4
v 0.4 0.7 0.4
v 0.4 0.9 0.4
v 0.4 1 0.4
v 0.4 0.7 0.3
v 0.4 0.9 0.3
v 0.4 0.4 0.2
v 0.4 1.1 0.2
v -0.4 0.4 0.9
v -0.4 1.1 0.9
v -0.4 0.7 0.8
v -0.4 0.9 0.8
v -0.4 0.6 0.7
v -0.4 0.7 0.7
v -0.4 0.9 0.7
v -0.4 1 0.7
v -0.4 0.5 0.6
v -0.4 0.6 0.6
v -0.4 0.9 0.6
v -0.4 1 0.6
v -0.4 0.5 0.5
v -0.4 0.6 0.5
v -0.4 0.9 0.5
v -0.4 1 0.5
v -0.4 0.6 0.4
v -0.4 0.7 0.4
v -0.4 0.9 0.4
v -0.4 1 0.4
v -0.4 0.7 0.3
v -0.4 0.9 0.3
v -0.4 0.4 0.2
v -0.4 1.1 0.2
v 0.4 0.4 0.9
v 0.4 0.4 0.2
v -0.4 0.4 0.9
v -0.4 0.4 0.2
v 0.4 1.1 0.9
v 0.4 1.1 0.2
v -0.4 1.1 0.9
v -0.4 1.1 0.2

# faces
f 3/1/1 2/1/1 1/1/1
f 4/1/1 2/1/1 3/1/1
f 5/1/2 6/1/2 7/1/2
f 7/1/2 6/1/2 8/1/2
f 11/1/3 10/1/3 9/1/3
f 12/1/3 10/1/3 11/1/3
f 13/1/3 11/1/3 9/1/3
f 14/2/3 12/2/3 11/2/3
f 14/1/3 11/1/3 13/1/3
f 15/1/3 10/1/3 12/1/3
f 15/2/3 12/2/3 14/2/3
f 16/1/3 10/1/3 15/1/3
f 17/1/3 13/1/3 9/1/3
f 18/2/3 14/2/3 13/2/3
f 18/1/3 13/1/3 17/1/3
f 18/2/3 15/2/3 14/2/3
f 18/2/3 16/2/3 15/2/3
f 19/2/3 16/2/3 18/2/3
f 20/1/3 10/1/3 16/1/3
f 20/2/3 16/2/3 19/2/3
f 21/1/3 17/1/3 9/1/3
f 21/2/3 19/2/3 18/2/3
f 21/2/3 18/2/3 17/2/3
f 22/2/3 19/2/3 21/2/3
f 23/1/3 20/1/3 19/1/3
f 23/2/3 19/2/3 22/2/3
f 24/1/3 10/1/3 20/1/3
f 24/1/3 20/1/3 23/1/3
f 25/2/3 23/2/3 22/2/3
f 25/1/3 22/1/3 21/1/3
f 25/2/3 24/2/3 23/2/3
f 26/2/3 24/2/3 25/2/3
f 27/2/3 24/2/3 26/2/3
f 28/1/3 10/1/3 24/1/3
f 28/2/3 24/2/3 27/2/3
f 29/2/3 27/2/3 26/2/3
f 29/1/3 26/1/3 25/1/3
f 30/1/3 28/1/3 27/1/3
f 30/2/3 27/2/3 29/2/3
f 31/1/3 21/1/3 9/1/3
f 31/1/3 25/1/3 21/1/3
f 31/1/3 30/1/3 29/1/3
f 31/1/3 29/1/3 25/1/3
f 32/1/3 10/1/3 28/1/3
f 32/1/3 30/1/3 31/1/3
f 32/1/3 28/1/3 30/1/3
f 33/1/4 34/1/4 35/1/4
f 35/1/4 34/1/4 36/1/4
f 33/1/4 35/1/4 37/1/4
f 35/2/4 36/2/4 38/2/4
f 37/1/4 35/1/4 38/1/4
f 36/1/4 34/1/4 39/1/4
f 38/2/4 36/2/4 39/2/4
f 39/1/4 34/1/4 40/1/4
f 33/1/4 37/1/4 41/1/4
f 37/2/4 38/2/4 42/2/4
f 41/1/4 37/1/4 42/1/4
f 38/2/4 39/2/4 42/2/4
f 39/2/4 40/2/4 42/2/4
f 42/2/4 40/2/4 43/2/4
f 40/1/4 34/1/4 44/1/4
f 43/2/4 40/2/4 44/2/4
f 33/1/4 41/1/4 45/1/4
f 42/2/4 43/2/4 45/2/4
f 41/2/4 42/2/4 45/2/4
f 45/2/4 43/2/4 46/2/4
f 43/1/4 44/1/4 47/1/4
f 46/2/4 43/2/4 47/2/4
f 44/1/4 34/1/4 48/1/4
f 47/1/4 44/1/4 48/1/4
f 46/2/4 47/2/4 49/2/4
f 45/1/4 46/1/4 49/1/4
f 47/2/4 48/2/4 49/2/4
f 49/2/4 48/2/4 50/2/4
f 50/2/4 48/2/4 51/2/4
f 48/1/4 34/1/4 52/1/4
f 51/2/4 48/2/4 52/2/4
f 50/2/4 51/2/4 53/2/4
f 49/1/4 50/1/4 53/1/4
f 51/1/4 52/1/4 54/1/4
f 53/2/4 51/2/4 54/2/4
f 33/1/4 45/1/4 55/1/4
f 45/1/4 49/1/4 55/1/4
f 53/1/4 54/1/4 55/1/4
f 49/1/4 53/1/4 55/1/4
f 52/1/4 34/1/4 56/1/4
f 55/1/4 54/1/4 56/1/4
f 54/1/4 52/1/4 56/1/4
f 59/1/5 58/1/5 57/1/5
f 60/1/5 58/1/5 59/1/5
f 61/1/6 62/1/6 63/1/6
f 63/1/6 62/1/6 64/1/6
