# MagicaVoxel @ Ephtracy

# group
o 

# material
mtllib model.mtl
usemtl palette

# normals
vn -1 0 0
vn 1 0 0
vn 0 0 1
vn 0 0 -1
vn 0 -1 0
vn 0 1 0

# texcoords
vt 0.259766 0.5
vt 0.263672 0.5
vt 0.271484 0.5
vt 0.279297 0.5

# verts
v -0.6 0.5 1
v -0.6 0.5 0.1
v -0.6 0.5 -0.1
v -0.6 0.5 -1
v -0.6 0.6 1
v -0.6 0.6 0.1
v -0.6 0.6 -0.1
v -0.6 0.6 -1
v -0.6 0.7 1
v -0.6 0.7 0.1
v -0.6 0.7 -0.1
v -0.6 0.7 -1
v -0.5 0 0.9
v -0.5 0 0.2
v -0.5 0 -0.2
v -0.5 0 -0.9
v -0.5 0.1 0.9
v -0.5 0.1 0.2
v -0.5 0.1 -0.2
v -0.5 0.1 -0.9
v -0.5 0.5 0.9
v -0.5 0.5 0.2
v -0.5 0.5 -0.2
v -0.5 0.5 -0.9
v 0.3 0.4 0.9
v 0.3 0.4 0.2
v 0.3 0.4 -0.2
v 0.3 0.4 -0.9
v 0.3 0.5 0.9
v 0.3 0.5 0.2
v 0.3 0.5 -0.2
v 0.3 0.5 -0.9
v 0.4 0.5 1
v 0.4 0.5 0.1
v 0.4 0.5 -0.1
v 0.4 0.5 -1
v 0.4 0.6 1
v 0.4 0.6 0.1
v 0.4 0.6 -0.1
v 0.4 0.6 -1
v 0.4 0.7 1
v 0.4 0.7 0.1
v 0.4 0.7 -0.1
v 0.4 0.7 -1
v 0.7 0 0.9
v 0.7 0 0.2
v 0.7 0 -0.2
v 0.7 0 -0.9
v 0.7 0.1 0.9
v 0.7 0.1 0.2
v 0.7 0.1 -0.2
v 0.7 0.1 -0.9
v 0.7 0.4 0.9
v 0.7 0.4 0.2
v 0.7 0.4 -0.2
v 0.7 0.4 -0.9
v -0.6 0.5 1
v -0.6 0.6 1
v -0.6 0.7 1
v 0.4 0.5 1
v 0.4 0.6 1
v 0.4 0.7 1
v -0.5 0 0.9
v -0.5 0.1 0.9
v -0.5 0.5 0.9
v 0.3 0.4 0.9
v 0.3 0.5 0.9
v 0.7 0 0.9
v 0.7 0.1 0.9
v 0.7 0.4 0.9
v -0.6 0.5 -0.1
v -0.6 0.6 -0.1
v -0.6 0.7 -0.1
v 0.4 0.5 -0.1
v 0.4 0.6 -0.1
v 0.4 0.7 -0.1
v -0.5 0 -0.2
v -0.5 0.1 -0.2
v -0.5 0.5 -0.2
v 0.3 0.4 -0.2
v 0.3 0.5 -0.2
v 0.7 0 -0.2
v 0.7 0.1 -0.2
v 0.7 0.4 -0.2
v -0.5 0 0.2
v -0.5 0.1 0.2
v -0.5 0.5 0.2
v 0.3 0.4 0.2
v 0.3 0.5 0.2
v 0.7 0 0.2
v 0.7 0.1 0.2
v 0.7 0.4 0.2
v -0.6 0.5 0.1
v -0.6 0.6 0.1
v -0.6 0.7 0.1
v 0.4 0.5 0.1
v 0.4 0.6 0.1
v 0.4 0.7 0.1
v -0.5 0 -0.9
v -0.5 0.1 -0.9
v -0.5 0.5 -0.9
v 0.3 0.4 -0.9
v 0.3 0.5 -0.9
v 0.7 0 -0.9
v 0.7 0.1 -0.9
v 0.7 0.4 -0.9
v -0.6 0.5 -1
v -0.6 0.6 -1
v -0.6 0.7 -1
v 0.4 0.5 -1
v 0.4 0.6 -1
v 0.4 0.7 -1
v -0.5 0 0.9
v 0.7 0 0.9
v -0.5 0 0.2
v 0.7 0 0.2
v -0.5 0 -0.2
v 0.7 0 -0.2
v -0.5 0 -0.9
v 0.7 0 -0.9
v -0.6 0.5 1
v 0.4 0.5 1
v -0.5 0.5 0.9
v 0.3 0.5 0.9
v -0.5 0.5 0.2
v 0.3 0.5 0.2
v -0.6 0.5 0.1
v 0.4 0.5 0.1
v -0.6 0.5 -0.1
v 0.4 0.5 -0.1
v -0.5 0.5 -0.2
v 0.3 0.5 -0.2
v -0.5 0.5 -0.9
v 0.3 0.5 -0.9
v -0.6 0.5 -1
v 0.4 0.5 -1
v 0.3 0.4 0.9
v 0.7 0.4 0.9
v 0.3 0.4 0.2
v 0.7 0.4 0.2
v 0.3 0.4 -0.2
v 0.7 0.4 -0.2
v 0.3 0.4 -0.9
v 0.7 0.4 -0.9
v -0.6 0.7 1
v 0.4 0.7 1
v -0.6 0.7 0.1
v 0.4 0.7 0.1
v -0.6 0.7 -0.1
v 0.4 0.7 -0.1
v -0.6 0.7 -1
v 0.4 0.7 -1

# faces
f 5/3/1 2/3/1 1/3/1
f 6/3/1 2/3/1 5/3/1
f 7/3/1 4/3/1 3/3/1
f 8/3/1 4/3/1 7/3/1
f 9/4/1 6/4/1 5/4/1
f 10/4/1 6/4/1 9/4/1
f 11/4/1 8/4/1 7/4/1
f 12/4/1 8/4/1 11/4/1
f 17/1/1 14/1/1 13/1/1
f 18/1/1 14/1/1 17/1/1
f 19/1/1 16/1/1 15/1/1
f 20/1/1 16/1/1 19/1/1
f 21/2/1 18/2/1 17/2/1
f 22/2/1 18/2/1 21/2/1
f 23/2/1 20/2/1 19/2/1
f 24/2/1 20/2/1 23/2/1
f 25/2/2 26/2/2 29/2/2
f 29/2/2 26/2/2 30/2/2
f 27/2/2 28/2/2 31/2/2
f 31/2/2 28/2/2 32/2/2
f 33/3/2 34/3/2 37/3/2
f 37/3/2 34/3/2 38/3/2
f 35/3/2 36/3/2 39/3/2
f 39/3/2 36/3/2 40/3/2
f 37/4/2 38/4/2 41/4/2
f 41/4/2 38/4/2 42/4/2
f 39/4/2 40/4/2 43/4/2
f 43/4/2 40/4/2 44/4/2
f 45/1/2 46/1/2 49/1/2
f 49/1/2 46/1/2 50/1/2
f 47/1/2 48/1/2 51/1/2
f 51/1/2 48/1/2 52/1/2
f 49/2/2 50/2/2 53/2/2
f 53/2/2 50/2/2 54/2/2
f 51/2/2 52/2/2 55/2/2
f 55/2/2 52/2/2 56/2/2
f 60/3/3 58/3/3 57/3/3
f 61/4/3 59/4/3 58/4/3
f 61/3/3 58/3/3 60/3/3
f 62/4/3 59/4/3 61/4/3
f 66/2/3 65/2/3 64/2/3
f 67/2/3 65/2/3 66/2/3
f 68/1/3 64/1/3 63/1/3
f 69/2/3 66/2/3 64/2/3
f 69/1/3 64/1/3 68/1/3
f 70/2/3 66/2/3 69/2/3
f 74/3/3 72/3/3 71/3/3
f 75/4/3 73/4/3 72/4/3
f 75/3/3 72/3/3 74/3/3
f 76/4/3 73/4/3 75/4/3
f 80/2/3 79/2/3 78/2/3
f 81/2/3 79/2/3 80/2/3
f 82/1/3 78/1/3 77/1/3
f 83/2/3 80/2/3 78/2/3
f 83/1/3 78/1/3 82/1/3
f 84/2/3 80/2/3 83/2/3
f 86/2/4 87/2/4 88/2/4
f 88/2/4 87/2/4 89/2/4
f 85/1/4 86/1/4 90/1/4
f 86/2/4 88/2/4 91/2/4
f 90/1/4 86/1/4 91/1/4
f 91/2/4 88/2/4 92/2/4
f 93/3/4 94/3/4 96/3/4
f 94/4/4 95/4/4 97/4/4
f 96/3/4 94/3/4 97/3/4
f 97/4/4 95/4/4 98/4/4
f 100/2/4 101/2/4 102/2/4
f 102/2/4 101/2/4 103/2/4
f 99/1/4 100/1/4 104/1/4
f 100/2/4 102/2/4 105/2/4
f 104/1/4 100/1/4 105/1/4
f 105/2/4 102/2/4 106/2/4
f 107/3/4 108/3/4 110/3/4
f 108/4/4 109/4/4 111/4/4
f 110/3/4 108/3/4 111/3/4
f 111/4/4 109/4/4 112/4/4
f 115/1/5 114/1/5 113/1/5
f 116/1/5 114/1/5 115/1/5
f 119/1/5 118/1/5 117/1/5
f 120/1/5 118/1/5 119/1/5
f 123/3/5 122/3/5 121/3/5
f 124/3/5 122/3/5 123/3/5
f 125/3/5 123/3/5 121/3/5
f 126/3/5 122/3/5 124/3/5
f 127/3/5 125/3/5 121/3/5
f 127/3/5 126/3/5 125/3/5
f 128/3/5 122/3/5 126/3/5
f 128/3/5 126/3/5 127/3/5
f 131/3/5 130/3/5 129/3/5
f 132/3/5 130/3/5 131/3/5
f 133/3/5 131/3/5 129/3/5
f 134/3/5 130/3/5 132/3/5
f 135/3/5 133/3/5 129/3/5
f 135/3/5 134/3/5 133/3/5
f 136/3/5 130/3/5 134/3/5
f 136/3/5 134/3/5 135/3/5
f 137/2/6 138/2/6 139/2/6
f 139/2/6 138/2/6 140/2/6
f 141/2/6 142/2/6 143/2/6
f 143/2/6 142/2/6 144/2/6
f 145/4/6 146/4/6 147/4/6
f 147/4/6 146/4/6 148/4/6
f 149/4/6 150/4/6 151/4/6
f 151/4/6 150/4/6 152/4/6
