# MagicaVoxel @ Ephtracy

# group
o 

# material
mtllib model-0.mtl
usemtl palette

# normals
vn 0 0 1
vn 0 0 -1
vn 1 0 0
vn -1 0 0
vn 0 -1 0
vn 0 1 0

# texcoords
vt 0.0136719 0.5
vt 0.0175781 0.5
vt 0.0214844 0.5
vt 0.0449219 0.5
vt 0.0488281 0.5
vt 0.115234 0.5
vt 0.576172 0.5

# verts
v 0.5 0 1
v -0.5 0 1
v 0.5 0.1 1
v -0.5 0.1 1
v 0.5 0.7 1
v -0.5 0.7 1
v 0.6 0 0.5
v 0.5 0 0.5
v 0.5 0.1 0.5
v 0.6 0.7 0.5
v 0.5 0.7 0.5
v 0.5 0 0.2
v 0.4 0 0.2
v 0.5 0.1 0.2
v 0.4 0.1 0.2
v 0.4 0.3 0.2
v 0.5 0.4 0.2
v 0.4 0.4 0.2
v 0.5 0.1 -0.1
v 0.4 0.1 -0.1
v 0.5 0.2 -0.1
v 0.4 0.2 -0.1
v 0.5 0.3 -0.1
v 0.4 0.3 -0.1
v 0.6 0 -0.4
v 0.4 0 -0.4
v 0.5 0.1 -0.4
v 0.4 0.1 -0.4
v 0.4 0.3 -0.4
v 0.6 0.7 -0.4
v 0.5 0.7 -0.4
v 0.4 0.7 -0.4
v 0.4 0 -0.9
v -0.4 0 -0.9
v 0.4 0.1 -0.9
v -0.4 0.1 -0.9
v 0.4 0 0.9
v -0.4 0 0.9
v 0.4 0.1 0.9
v -0.4 0.1 0.9
v 0.6 0 0.4
v 0.4 0 0.4
v 0.5 0.1 0.4
v 0.4 0.1 0.4
v 0.4 0.3 0.4
v 0.6 0.7 0.4
v 0.5 0.7 0.4
v 0.4 0.7 0.4
v 0.5 0.1 0.1
v 0.4 0.1 0.1
v 0.5 0.3 0.1
v 0.4 0.3 0.1
v 0.5 0 -0.2
v 0.4 0 -0.2
v 0.4 0.1 -0.2
v 0.5 0.2 -0.2
v 0.4 0.2 -0.2
v 0.4 0.3 -0.2
v 0.5 0.4 -0.2
v 0.4 0.4 -0.2
v 0.6 0 -0.5
v 0.5 0 -0.5
v 0.5 0.1 -0.5
v 0.6 0.7 -0.5
v 0.5 0.7 -0.5
v 0.5 0 -1
v -0.5 0 -1
v 0.5 0.1 -1
v -0.5 0.1 -1
v 0.5 0.7 -1
v -0.5 0.7 -1
v 0.6 0 0.5
v 0.6 0.7 0.5
v 0.6 0 0.4
v 0.6 0.7 0.4
v 0.6 0 -0.4
v 0.6 0.7 -0.4
v 0.6 0 -0.5
v 0.6 0.7 -0.5
v 0.5 0 1
v 0.5 0.1 1
v 0.5 0.7 1
v 0.5 0.4 0.9
v 0.5 0.5 0.9
v 0.5 0.4 0.6
v 0.5 0.5 0.6
v 0.5 0 0.5
v 0.5 0.1 0.5
v 0.5 0.7 0.5
v 0.5 0 0.2
v 0.5 0.1 0.2
v 0.5 0.4 0.2
v 0.5 0.1 0.1
v 0.5 0.3 0.1
v 0.5 0 0
v 0.5 0.1 0
v 0.5 0.3 0
v 0.5 0.4 0
v 0.5 0.1 -0.1
v 0.5 0.2 -0.1
v 0.5 0.3 -0.1
v 0.5 0 -0.2
v 0.5 0.2 -0.2
v 0.5 0.4 -0.2
v 0.5 0 -0.5
v 0.5 0.1 -0.5
v 0.5 0.7 -0.5
v 0.5 0.4 -0.6
v 0.5 0.5 -0.6
v 0.5 0.4 -0.9
v 0.5 0.5 -0.9
v 0.5 0 -1
v 0.5 0.1 -1
v 0.5 0.7 -1
v 0.4 0.1 0.4
v 0.4 0.3 0.4
v 0.4 0.7 0.4
v 0.4 0.1 0.2
v 0.4 0.3 0.2
v 0.4 0.4 0.2
v 0.4 0.1 0.1
v 0.4 0.3 0.1
v 0.4 0.1 0
v 0.4 0.3 0
v 0.4 0.4 0
v 0.4 0.1 -0.1
v 0.4 0.2 -0.1
v 0.4 0.3 -0.1
v 0.4 0.1 -0.2
v 0.4 0.2 -0.2
v 0.4 0.3 -0.2
v 0.4 0.4 -0.2
v 0.4 0.1 -0.4
v 0.4 0.3 -0.4
v 0.4 0.7 -0.4
v -0.4 0 0.9
v -0.4 0.1 0.9
v -0.4 0 -0.9
v -0.4 0.1 -0.9
v 0.4 0 0.9
v 0.4 0.1 0.9
v 0.4 0 0.4
v 0.4 0.1 0.4
v 0.4 0 0.2
v 0.4 0.1 0.2
v 0.4 0 0
v 0.4 0.1 0
v 0.4 0 -0.2
v 0.4 0.1 -0.2
v 0.4 0 -0.4
v 0.4 0.1 -0.4
v 0.4 0 -0.9
v 0.4 0.1 -0.9
v -0.5 0 1
v -0.5 0.1 1
v -0.5 0.7 1
v -0.5 0 -1
v -0.5 0.1 -1
v -0.5 0.7 -1
v 0.6 0 0.5
v 0.6 0 0.4
v 0.6 0 -0.4
v 0.6 0 -0.5
v 0.5 0 1
v 0.5 0 0.5
v 0.5 0 0.2
v 0.5 0 0
v 0.5 0 -0.2
v 0.5 0 -0.5
v 0.5 0 -1
v 0.4 0 0.9
v 0.4 0 0.4
v 0.4 0 0.2
v 0.4 0 0
v 0.4 0 -0.2
v 0.4 0 -0.4
v 0.4 0 -0.9
v -0.4 0 0.9
v -0.4 0 -0.9
v -0.5 0 1
v -0.5 0 -1
v 0.4 0.1 0.9
v 0.4 0.1 0.4
v 0.4 0.1 0.2
v 0.4 0.1 0
v 0.4 0.1 -0.2
v 0.4 0.1 -0.4
v 0.4 0.1 -0.9
v -0.4 0.1 0.9
v -0.4 0.1 -0.9
v 0.5 0.3 0.1
v 0.5 0.3 0
v 0.5 0.3 -0.1
v 0.4 0.3 0.1
v 0.4 0.3 0
v 0.4 0.3 -0.1
v 0.5 0.1 0.1
v 0.5 0.1 0
v 0.5 0.1 -0.1
v 0.4 0.1 0.1
v 0.4 0.1 0
v 0.4 0.1 -0.1
v 0.5 0.4 0.2
v 0.5 0.4 0
v 0.5 0.4 -0.2
v 0.4 0.4 0.2
v 0.4 0.4 0
v 0.4 0.4 -0.2
v 0.6 0.7 0.5
v 0.6 0.7 0.4
v 0.6 0.7 -0.4
v 0.6 0.7 -0.5
v 0.5 0.7 1
v 0.5 0.7 0.5
v 0.5 0.7 0.4
v 0.5 0.7 -0.4
v 0.5 0.7 -0.5
v 0.5 0.7 -1
v 0.4 0.7 0.4
v 0.4 0.7 -0.4
v 0.3 0.7 0.4
v 0.3 0.7 -0.4
v -0.5 0.7 1
v -0.5 0.7 -1

# faces
f 3/7/1 2/7/1 1/7/1
f 4/7/1 2/7/1 3/7/1
f 5/5/1 4/5/1 3/5/1
f 6/5/1 4/5/1 5/5/1
f 9/7/1 8/7/1 7/7/1
f 10/7/1 9/7/1 7/7/1
f 11/7/1 9/7/1 10/7/1
f 14/1/1 13/1/1 12/1/1
f 15/1/1 13/1/1 14/1/1
f 16/2/1 15/2/1 14/2/1
f 17/2/1 16/2/1 14/2/1
f 18/2/1 16/2/1 17/2/1
f 21/2/1 20/2/1 19/2/1
f 22/2/1 20/2/1 21/2/1
f 23/3/1 22/3/1 21/3/1
f 24/3/1 22/3/1 23/3/1
f 27/7/1 26/7/1 25/7/1
f 28/7/1 26/7/1 27/7/1
f 29/5/1 28/5/1 27/5/1
f 30/7/1 27/7/1 25/7/1
f 31/5/1 29/5/1 27/5/1
f 31/7/1 27/7/1 30/7/1
f 32/5/1 29/5/1 31/5/1
f 35/7/1 34/7/1 33/7/1
f 36/7/1 34/7/1 35/7/1
f 37/7/2 38/7/2 39/7/2
f 39/7/2 38/7/2 40/7/2
f 41/7/2 42/7/2 43/7/2
f 43/7/2 42/7/2 44/7/2
f 43/5/2 44/5/2 45/5/2
f 41/7/2 43/7/2 46/7/2
f 43/5/2 45/5/2 47/5/2
f 46/7/2 43/7/2 47/7/2
f 47/5/2 45/5/2 48/5/2
f 49/2/2 50/2/2 51/2/2
f 51/2/2 50/2/2 52/2/2
f 53/2/2 54/2/2 55/2/2
f 53/2/2 55/2/2 56/2/2
f 56/2/2 55/2/2 57/2/2
f 56/3/2 57/3/2 58/3/2
f 56/3/2 58/3/2 59/3/2
f 59/3/2 58/3/2 60/3/2
f 61/7/2 62/7/2 63/7/2
f 61/7/2 63/7/2 64/7/2
f 64/7/2 63/7/2 65/7/2
f 66/7/2 67/7/2 68/7/2
f 68/7/2 67/7/2 69/7/2
f 68/5/2 69/5/2 70/5/2
f 70/5/2 69/5/2 71/5/2
f 74/7/3 73/7/3 72/7/3
f 75/7/3 73/7/3 74/7/3
f 78/7/3 77/7/3 76/7/3
f 79/7/3 77/7/3 78/7/3
f 83/5/3 82/5/3 81/5/3
f 84/5/3 82/5/3 83/5/3
f 85/5/3 83/5/3 81/5/3
f 85/4/3 84/4/3 83/4/3
f 86/5/3 82/5/3 84/5/3
f 86/4/3 84/4/3 85/4/3
f 87/7/3 81/7/3 80/7/3
f 88/5/3 85/5/3 81/5/3
f 88/7/3 81/7/3 87/7/3
f 88/5/3 86/5/3 85/5/3
f 89/5/3 82/5/3 86/5/3
f 89/5/3 86/5/3 88/5/3
f 93/1/3 91/1/3 90/1/3
f 93/2/3 92/2/3 91/2/3
f 94/2/3 92/2/3 93/2/3
f 95/1/3 93/1/3 90/1/3
f 96/1/3 93/1/3 95/1/3
f 97/2/3 92/2/3 94/2/3
f 98/2/3 92/2/3 97/2/3
f 99/2/3 96/2/3 95/2/3
f 101/3/3 98/3/3 97/3/3
f 102/2/3 100/2/3 99/2/3
f 102/2/3 99/2/3 95/2/3
f 103/3/3 101/3/3 100/3/3
f 103/2/3 100/2/3 102/2/3
f 104/3/3 98/3/3 101/3/3
f 104/3/3 101/3/3 103/3/3
f 108/5/3 107/5/3 106/5/3
f 109/5/3 107/5/3 108/5/3
f 110/5/3 108/5/3 106/5/3
f 110/4/3 109/4/3 108/4/3
f 111/5/3 107/5/3 109/5/3
f 111/4/3 109/4/3 110/4/3
f 112/7/3 106/7/3 105/7/3
f 113/5/3 110/5/3 106/5/3
f 113/7/3 106/7/3 112/7/3
f 113/5/3 111/5/3 110/5/3
f 114/5/3 107/5/3 111/5/3
f 114/5/3 111/5/3 113/5/3
f 118/6/3 116/6/3 115/6/3
f 119/4/3 117/4/3 116/4/3
f 119/6/3 116/6/3 118/6/3
f 120/4/3 117/4/3 119/4/3
f 123/6/3 122/6/3 121/6/3
f 124/6/3 122/6/3 123/6/3
f 125/4/3 117/4/3 120/4/3
f 126/6/3 124/6/3 123/6/3
f 127/6/3 124/6/3 126/6/3
f 128/6/3 124/6/3 127/6/3
f 132/4/3 117/4/3 125/4/3
f 133/6/3 131/6/3 130/6/3
f 133/6/3 130/6/3 129/6/3
f 134/4/3 132/4/3 131/4/3
f 134/6/3 131/6/3 133/6/3
f 135/4/3 117/4/3 132/4/3
f 135/4/3 132/4/3 134/4/3
f 138/7/3 137/7/3 136/7/3
f 139/7/3 137/7/3 138/7/3
f 140/7/4 141/7/4 142/7/4
f 142/7/4 141/7/4 143/7/4
f 144/1/4 145/1/4 146/1/4
f 146/1/4 145/1/4 147/1/4
f 146/2/4 147/2/4 148/2/4
f 148/2/4 147/2/4 149/2/4
f 150/7/4 151/7/4 152/7/4
f 152/7/4 151/7/4 153/7/4
f 154/7/4 155/7/4 157/7/4
f 155/5/4 156/5/4 158/5/4
f 157/7/4 155/7/4 158/7/4
f 158/5/4 156/5/4 159/5/4
f 165/7/5 161/7/5 160/7/5
f 169/7/5 163/7/5 162/7/5
f 171/7/5 165/7/5 164/7/5
f 172/7/5 161/7/5 165/7/5
f 172/7/5 165/7/5 171/7/5
f 173/1/5 167/1/5 166/1/5
f 174/2/5 168/2/5 167/2/5
f 174/1/5 167/1/5 173/1/5
f 175/2/5 168/2/5 174/2/5
f 176/7/5 170/7/5 169/7/5
f 176/7/5 169/7/5 162/7/5
f 177/7/5 170/7/5 176/7/5
f 178/7/5 171/7/5 164/7/5
f 179/7/5 170/7/5 177/7/5
f 180/7/5 178/7/5 164/7/5
f 180/7/5 179/7/5 178/7/5
f 181/7/5 170/7/5 179/7/5
f 181/7/5 179/7/5 180/7/5
f 189/6/5 183/6/5 182/6/5
f 189/6/5 188/6/5 187/6/5
f 189/6/5 187/6/5 186/6/5
f 189/6/5 186/6/5 185/6/5
f 189/6/5 185/6/5 184/6/5
f 189/6/5 184/6/5 183/6/5
f 190/6/5 188/6/5 189/6/5
f 194/2/5 192/2/5 191/2/5
f 195/3/5 193/3/5 192/3/5
f 195/2/5 192/2/5 194/2/5
f 196/3/5 193/3/5 195/3/5
f 197/1/6 198/1/6 200/1/6
f 198/2/6 199/2/6 201/2/6
f 200/1/6 198/1/6 201/1/6
f 201/2/6 199/2/6 202/2/6
f 203/2/6 204/2/6 206/2/6
f 204/3/6 205/3/6 207/3/6
f 206/2/6 204/2/6 207/2/6
f 207/3/6 205/3/6 208/3/6
f 209/7/6 210/7/6 214/7/6
f 214/7/6 210/7/6 215/7/6
f 211/7/6 212/7/6 216/7/6
f 216/7/6 212/7/6 217/7/6
f 214/5/6 215/5/6 219/5/6
f 213/5/6 214/5/6 219/5/6
f 217/5/6 218/5/6 220/5/6
f 216/5/6 217/5/6 220/5/6
f 213/5/6 219/5/6 221/5/6
f 219/4/6 220/4/6 221/4/6
f 220/5/6 218/5/6 222/5/6
f 221/4/6 220/4/6 222/4/6
f 213/5/6 221/5/6 223/5/6
f 221/5/6 222/5/6 223/5/6
f 222/5/6 218/5/6 224/5/6
f 223/5/6 222/5/6 224/5/6
