# MagicaVoxel @ Ephtracy

# group
o 

# material
mtllib model-2.mtl
usemtl palette

# normals
vn 0 0 1
vn 0 0 -1
vn 1 0 0
vn -1 0 0
vn 0 -1 0
vn 0 1 0

# texcoords
vt 0.00195313 0.5
vt 0.0253906 0.5
vt 0.826172 0.5
vt 0.830078 0.5

# verts
v 0.4 0 0.9
v -0.4 0 0.9
v 0.4 0.1 0.9
v 0.3 0.1 0.9
v 0.4 0.5 0.9
v 0.3 0.5 0.9
v -0.4 0.5 0.9
v 0.4 0 0.2
v -0.4 0 0.2
v 0.4 0.1 0.2
v 0.3 0.1 0.2
v 0.4 0.4 0.2
v 0.3 0.4 0.2
v 0.4 0.5 0.2
v -0.4 0.5 0.2
v 0.4 0 0.9
v 0.4 0.1 0.9
v 0.4 0.5 0.9
v 0.4 0.2 0.8
v 0.4 0.5 0.8
v 0.4 0.1 0.7
v 0.4 0.2 0.7
v 0.4 0.4 0.7
v 0.4 0.1 0.6
v 0.4 0.4 0.6
v 0.4 0.5 0.6
v 0.4 0.1 0.5
v 0.4 0.4 0.5
v 0.4 0.1 0.4
v 0.4 0.4 0.4
v 0.4 0.5 0.4
v 0.4 0.1 0.3
v 0.4 0.4 0.3
v 0.4 0 0.2
v 0.4 0.1 0.2
v 0.4 0.4 0.2
v 0.4 0.5 0.2
v -0.4 0 0.9
v -0.4 0.5 0.9
v -0.4 0 0.2
v -0.4 0.5 0.2
v 0.4 0 0.9
v 0.4 0 0.2
v -0.4 0 0.9
v -0.4 0 0.2
v 0.4 0.5 0.9
v 0.4 0.5 0.8
v 0.4 0.5 0.6
v 0.4 0.5 0.4
v 0.4 0.5 0.2
v 0.3 0.5 0.9
v 0.3 0.5 0.8
v 0.3 0.5 0.6
v 0.3 0.5 0.4
v -0.4 0.5 0.9
v -0.4 0.5 0.2

# faces
f 3/3/1 2/3/1 1/3/1
f 4/3/1 2/3/1 3/3/1
f 5/4/1 4/4/1 3/4/1
f 6/3/1 2/3/1 4/3/1
f 6/4/1 4/4/1 5/4/1
f 7/3/1 2/3/1 6/3/1
f 8/3/2 9/3/2 10/3/2
f 10/3/2 9/3/2 11/3/2
f 10/4/2 11/4/2 12/4/2
f 11/3/2 9/3/2 13/3/2
f 12/4/2 11/4/2 13/4/2
f 12/3/2 13/3/2 14/3/2
f 13/3/2 9/3/2 15/3/2
f 14/3/2 13/3/2 15/3/2
f 19/4/3 18/4/3 17/4/3
f 20/4/3 18/4/3 19/4/3
f 21/3/3 17/3/3 16/3/3
f 21/4/3 19/4/3 17/4/3
f 22/1/3 20/1/3 19/1/3
f 22/4/3 19/4/3 21/4/3
f 23/1/3 20/1/3 22/1/3
f 24/3/3 21/3/3 16/3/3
f 24/2/3 22/2/3 21/2/3
f 24/2/3 23/2/3 22/2/3
f 25/1/3 20/1/3 23/1/3
f 25/2/3 23/2/3 24/2/3
f 26/1/3 20/1/3 25/1/3
f 27/3/3 24/3/3 16/3/3
f 27/1/3 25/1/3 24/1/3
f 28/2/3 26/2/3 25/2/3
f 28/1/3 25/1/3 27/1/3
f 29/3/3 27/3/3 16/3/3
f 29/2/3 28/2/3 27/2/3
f 30/2/3 26/2/3 28/2/3
f 30/2/3 28/2/3 29/2/3
f 31/2/3 26/2/3 30/2/3
f 32/3/3 29/3/3 16/3/3
f 32/1/3 30/1/3 29/1/3
f 33/3/3 31/3/3 30/3/3
f 33/1/3 30/1/3 32/1/3
f 34/3/3 32/3/3 16/3/3
f 35/4/3 33/4/3 32/4/3
f 35/3/3 32/3/3 34/3/3
f 36/3/3 31/3/3 33/3/3
f 36/4/3 33/4/3 35/4/3
f 37/3/3 31/3/3 36/3/3
f 38/3/4 39/3/4 40/3/4
f 40/3/4 39/3/4 41/3/4
f 44/3/5 43/3/5 42/3/5
f 45/3/5 43/3/5 44/3/5
f 46/4/6 47/4/6 51/4/6
f 47/1/6 48/1/6 52/1/6
f 51/4/6 47/4/6 52/4/6
f 48/2/6 49/2/6 53/2/6
f 52/1/6 48/1/6 53/1/6
f 49/3/6 50/3/6 54/3/6
f 53/2/6 49/2/6 54/2/6
f 52/3/6 53/3/6 55/3/6
f 51/3/6 52/3/6 55/3/6
f 53/3/6 54/3/6 55/3/6
f 54/3/6 50/3/6 56/3/6
f 55/3/6 54/3/6 56/3/6
