# MagicaVoxel @ Ephtracy

# group
o 

# material
mtllib model-1.mtl
usemtl palette

# normals
vn 0 0 1
vn 0 0 -1
vn 1 0 0
vn -1 0 0
vn 0 -1 0
vn 0 1 0

# texcoords
vt 0.00195313 0.5
vt 0.0253906 0.5
vt 0.826172 0.5
vt 0.830078 0.5

# verts
v 0.4 0.4 -0.2
v -0.4 0.4 -0.2
v 0.4 0.6 -0.2
v 0.3 0.6 -0.2
v 0.4 0.8 -0.2
v 0.3 0.8 -0.2
v 0.4 1.1 -0.2
v -0.4 1.1 -0.2
v 0.4 0.4 -0.9
v 0.3 0.4 -0.9
v -0.4 0.4 -0.9
v 0.4 0.6 -0.9
v 0.3 0.6 -0.9
v 0.4 1.1 -0.9
v -0.4 1.1 -0.9
v 0.4 0.4 -0.2
v 0.4 0.6 -0.2
v 0.4 0.8 -0.2
v 0.4 1.1 -0.2
v 0.4 0.4 -0.3
v 0.4 0.6 -0.3
v 0.4 0.8 -0.3
v 0.4 0.4 -0.4
v 0.4 0.6 -0.4
v 0.4 0.8 -0.4
v 0.4 0.4 -0.6
v 0.4 0.8 -0.6
v 0.4 0.6 -0.7
v 0.4 0.8 -0.7
v 0.4 0.4 -0.8
v 0.4 0.6 -0.8
v 0.4 0.8 -0.8
v 0.4 0.4 -0.9
v 0.4 0.6 -0.9
v 0.4 1.1 -0.9
v -0.4 0.4 -0.2
v -0.4 1.1 -0.2
v -0.4 0.4 -0.9
v -0.4 1.1 -0.9
v 0.4 0.4 -0.2
v 0.4 0.4 -0.3
v 0.4 0.4 -0.4
v 0.4 0.4 -0.6
v 0.4 0.4 -0.8
v 0.4 0.4 -0.9
v 0.3 0.4 -0.3
v 0.3 0.4 -0.4
v 0.3 0.4 -0.6
v 0.3 0.4 -0.8
v 0.3 0.4 -0.9
v -0.4 0.4 -0.2
v -0.4 0.4 -0.9
v 0.4 1.1 -0.2
v 0.4 1.1 -0.9
v -0.4 1.1 -0.2
v -0.4 1.1 -0.9

# faces
f 3/3/1 2/3/1 1/3/1
f 4/3/1 2/3/1 3/3/1
f 5/4/1 4/4/1 3/4/1
f 6/3/1 2/3/1 4/3/1
f 6/4/1 4/4/1 5/4/1
f 7/3/1 6/3/1 5/3/1
f 8/3/1 2/3/1 6/3/1
f 8/3/1 6/3/1 7/3/1
f 9/4/2 10/4/2 12/4/2
f 10/3/2 11/3/2 13/3/2
f 12/4/2 10/4/2 13/4/2
f 12/3/2 13/3/2 14/3/2
f 13/3/2 11/3/2 15/3/2
f 14/3/2 13/3/2 15/3/2
f 20/3/3 17/3/3 16/3/3
f 21/4/3 18/4/3 17/4/3
f 21/3/3 17/3/3 20/3/3
f 22/3/3 19/3/3 18/3/3
f 22/4/3 18/4/3 21/4/3
f 23/4/3 21/4/3 20/4/3
f 24/1/3 22/1/3 21/1/3
f 24/4/3 21/4/3 23/4/3
f 25/3/3 19/3/3 22/3/3
f 25/1/3 22/1/3 24/1/3
f 26/2/3 24/2/3 23/2/3
f 26/2/3 25/2/3 24/2/3
f 27/3/3 19/3/3 25/3/3
f 27/2/3 25/2/3 26/2/3
f 28/1/3 27/1/3 26/1/3
f 29/3/3 19/3/3 27/3/3
f 29/1/3 27/1/3 28/1/3
f 30/1/3 28/1/3 26/1/3
f 31/4/3 29/4/3 28/4/3
f 31/1/3 28/1/3 30/1/3
f 32/3/3 19/3/3 29/3/3
f 32/4/3 29/4/3 31/4/3
f 33/4/3 31/4/3 30/4/3
f 34/3/3 32/3/3 31/3/3
f 34/4/3 31/4/3 33/4/3
f 35/3/3 19/3/3 32/3/3
f 35/3/3 32/3/3 34/3/3
f 36/3/4 37/3/4 38/3/4
f 38/3/4 37/3/4 39/3/4
f 46/3/5 41/3/5 40/3/5
f 46/4/5 42/4/5 41/4/5
f 47/2/5 43/2/5 42/2/5
f 47/4/5 42/4/5 46/4/5
f 48/1/5 44/1/5 43/1/5
f 48/2/5 43/2/5 47/2/5
f 49/4/5 45/4/5 44/4/5
f 49/1/5 44/1/5 48/1/5
f 50/4/5 45/4/5 49/4/5
f 51/3/5 48/3/5 47/3/5
f 51/3/5 47/3/5 46/3/5
f 51/3/5 50/3/5 49/3/5
f 51/3/5 49/3/5 48/3/5
f 51/3/5 46/3/5 40/3/5
f 52/3/5 50/3/5 51/3/5
f 53/3/6 54/3/6 55/3/6
f 55/3/6 54/3/6 56/3/6
