# MagicaVoxel @ Ephtracy

# group
o 

# material
mtllib model.mtl
usemtl palette

# normals
vn -1 0 0
vn 1 0 0
vn 0 0 1
vn 0 0 -1
vn 0 -1 0
vn 0 1 0

# texcoords
vt 0.0722656 0.5
vt 0.0761719 0.5

# verts
v -0.9 0.7 1.2
v -0.9 0.7 -1.2
v -0.9 0.8 1.2
v -0.9 0.8 -1.2
v 0.8 0 -0.0999999
v 0.8 0 -1
v 0.8 0.1 0
v 0.8 0.1 -0.0999999
v 0.8 0.1 -0.3
v 0.8 0.1 -0.4
v 0.8 0.1 -0.5
v 0.8 0.1 -0.6
v 0.8 0.1 -0.7
v 0.8 0.1 -0.8
v 0.8 0.1 -1
v 0.8 0.1 -1.1
v 0.8 0.2 -0.4
v 0.8 0.2 -0.5
v 0.8 0.2 -0.6
v 0.8 0.2 -0.7
v 0.8 0.3 -0.2
v 0.8 0.3 -0.3
v 0.8 0.3 -0.8
v 0.8 0.3 -0.9
v 0.8 0.4 -0.3
v 0.8 0.4 -0.5
v 0.8 0.4 -0.6
v 0.8 0.4 -0.8
v 0.8 0.6 -0.3
v 0.8 0.6 -0.5
v 0.8 0.6 -0.6
v 0.8 0.6 -0.8
v 0.8 0.7 1.1
v 0.8 0.7 0
v 0.8 0.7 -1.1
v 0.8 0.8 1.1
v 0.8 0.8 0
v 0.8 0.8 -0.2
v 0.8 0.8 -0.9
v 0.8 0.8 -1.1
v 0.8 0.9 0
v 0.8 0.9 -1.1
v -0.8 0.7 1.1
v -0.8 0.7 -1.1
v -0.8 0.8 1.1
v -0.8 0.8 -1.1
v 0.9 0 -0.0999999
v 0.9 0 -1
v 0.9 0.1 0
v 0.9 0.1 -0.0999999
v 0.9 0.1 -0.3
v 0.9 0.1 -0.4
v 0.9 0.1 -0.5
v 0.9 0.1 -0.6
v 0.9 0.1 -0.7
v 0.9 0.1 -0.8
v 0.9 0.1 -1
v 0.9 0.1 -1.1
v 0.9 0.2 -0.4
v 0.9 0.2 -0.5
v 0.9 0.2 -0.6
v 0.9 0.2 -0.7
v 0.9 0.3 -0.2
v 0.9 0.3 -0.3
v 0.9 0.3 -0.8
v 0.9 0.3 -0.9
v 0.9 0.4 -0.3
v 0.9 0.4 -0.5
v 0.9 0.4 -0.6
v 0.9 0.4 -0.8
v 0.9 0.6 -0.3
v 0.9 0.6 -0.5
v 0.9 0.6 -0.6
v 0.9 0.6 -0.8
v 0.9 0.7 1.2
v 0.9 0.7 0
v 0.9 0.7 -1.1
v 0.9 0.7 -1.2
v 0.9 0.8 1.2
v 0.9 0.8 0
v 0.9 0.8 -0.2
v 0.9 0.8 -0.9
v 0.9 0.8 -1.1
v 0.9 0.8 -1.2
v 0.9 0.9 0
v 0.9 0.9 -1.1
v -0.9 0.7 1.2
v -0.9 0.8 1.2
v 0.9 0.7 1.2
v 0.9 0.8 1.2
v 0.8 0.1 0
v 0.8 0.7 0
v 0.8 0.8 0
v 0.8 0.9 0
v 0.9 0.1 0
v 0.9 0.7 0
v 0.9 0.8 0
v 0.9 0.9 0
v 0.8 0 -0.0999999
v 0.8 0.1 -0.0999999
v 0.9 0 -0.0999999
v 0.9 0.1 -0.0999999
v -0.8 0.7 -1.1
v -0.8 0.8 -1.1
v 0.8 0.7 -1.1
v 0.8 0.8 -1.1
v -0.8 0.7 1.1
v -0.8 0.8 1.1
v 0.8 0.7 1.1
v 0.8 0.8 1.1
v 0.8 0 -1
v 0.8 0.1 -1
v 0.9 0 -1
v 0.9 0.1 -1
v 0.8 0.1 -1.1
v 0.8 0.7 -1.1
v 0.8 0.8 -1.1
v 0.8 0.9 -1.1
v 0.9 0.1 -1.1
v 0.9 0.7 -1.1
v 0.9 0.8 -1.1
v 0.9 0.9 -1.1
v -0.9 0.7 -1.2
v -0.9 0.8 -1.2
v 0.9 0.7 -1.2
v 0.9 0.8 -1.2
v 0.8 0 -0.0999999
v 0.9 0 -0.0999999
v 0.8 0 -1
v 0.9 0 -1
v 0.8 0.1 0
v 0.9 0.1 0
v 0.8 0.1 -0.0999999
v 0.9 0.1 -0.0999999
v 0.8 0.1 -1
v 0.9 0.1 -1
v 0.8 0.1 -1.1
v 0.9 0.1 -1.1
v -0.9 0.7 1.2
v 0.9 0.7 1.2
v -0.8 0.7 1.1
v 0.8 0.7 1.1
v 0.8 0.7 0
v 0.9 0.7 0
v -0.8 0.7 -1.1
v 0.8 0.7 -1.1
v 0.9 0.7 -1.1
v -0.9 0.7 -1.2
v 0.9 0.7 -1.2
v -0.9 0.8 1.2
v 0.9 0.8 1.2
v -0.8 0.8 1.1
v 0.8 0.8 1.1
v 0.8 0.8 0
v 0.9 0.8 0
v -0.8 0.8 -1.1
v 0.8 0.8 -1.1
v 0.9 0.8 -1.1
v -0.9 0.8 -1.2
v 0.9 0.8 -1.2
v 0.8 0.9 0
v 0.9 0.9 0
v 0.8 0.9 -1.1
v 0.9 0.9 -1.1

# faces
f 3/1/1 2/1/1 1/1/1
f 4/1/1 2/1/1 3/1/1
f 8/1/1 6/1/1 5/1/1
f 9/1/1 6/1/1 8/1/1
f 10/1/1 6/1/1 9/1/1
f 11/1/1 6/1/1 10/1/1
f 12/1/1 6/1/1 11/1/1
f 13/1/1 6/1/1 12/1/1
f 14/1/1 6/1/1 13/1/1
f 15/1/1 6/1/1 14/1/1
f 17/2/1 10/2/1 9/2/1
f 17/1/1 11/1/1 10/1/1
f 18/2/1 12/2/1 11/2/1
f 18/1/1 11/1/1 17/1/1
f 19/1/1 13/1/1 12/1/1
f 19/2/1 12/2/1 18/2/1
f 20/2/1 14/2/1 13/2/1
f 20/1/1 13/1/1 19/1/1
f 21/1/1 8/1/1 7/1/1
f 21/1/1 9/1/1 8/1/1
f 22/2/1 20/2/1 19/2/1
f 22/1/1 9/1/1 21/1/1
f 22/2/1 17/2/1 9/2/1
f 22/2/1 19/2/1 18/2/1
f 22/2/1 18/2/1 17/2/1
f 23/2/1 14/2/1 20/2/1
f 23/2/1 20/2/1 22/2/1
f 23/1/1 16/1/1 15/1/1
f 23/1/1 15/1/1 14/1/1
f 24/1/1 16/1/1 23/1/1
f 25/2/1 22/2/1 21/2/1
f 25/2/1 23/2/1 22/2/1
f 25/2/1 24/2/1 23/2/1
f 26/2/1 24/2/1 25/2/1
f 27/2/1 24/2/1 26/2/1
f 28/2/1 24/2/1 27/2/1
f 29/2/1 25/2/1 21/2/1
f 29/1/1 26/1/1 25/1/1
f 30/2/1 27/2/1 26/2/1
f 30/1/1 26/1/1 29/1/1
f 31/1/1 28/1/1 27/1/1
f 31/2/1 27/2/1 30/2/1
f 32/2/1 24/2/1 28/2/1
f 32/1/1 28/1/1 31/1/1
f 34/1/1 21/1/1 7/1/1
f 35/1/1 16/1/1 24/1/1
f 36/1/1 34/1/1 33/1/1
f 37/1/1 21/1/1 34/1/1
f 37/1/1 34/1/1 36/1/1
f 38/2/1 31/2/1 30/2/1
f 38/1/1 21/1/1 37/1/1
f 38/2/1 30/2/1 29/2/1
f 38/2/1 29/2/1 21/2/1
f 38/2/1 32/2/1 31/2/1
f 39/2/1 24/2/1 32/2/1
f 39/2/1 32/2/1 38/2/1
f 39/1/1 35/1/1 24/1/1
f 40/1/1 35/1/1 39/1/1
f 41/1/1 38/1/1 37/1/1
f 41/1/1 40/1/1 39/1/1
f 41/1/1 39/1/1 38/1/1
f 42/1/1 40/1/1 41/1/1
f 43/1/2 44/1/2 45/1/2
f 45/1/2 44/1/2 46/1/2
f 47/1/2 48/1/2 50/1/2
f 50/1/2 48/1/2 51/1/2
f 51/1/2 48/1/2 52/1/2
f 52/1/2 48/1/2 53/1/2
f 53/1/2 48/1/2 54/1/2
f 54/1/2 48/1/2 55/1/2
f 55/1/2 48/1/2 56/1/2
f 56/1/2 48/1/2 57/1/2
f 51/2/2 52/2/2 59/2/2
f 52/1/2 53/1/2 59/1/2
f 53/2/2 54/2/2 60/2/2
f 59/1/2 53/1/2 60/1/2
f 54/1/2 55/1/2 61/1/2
f 60/2/2 54/2/2 61/2/2
f 55/2/2 56/2/2 62/2/2
f 61/1/2 55/1/2 62/1/2
f 49/1/2 50/1/2 63/1/2
f 50/1/2 51/1/2 63/1/2
f 61/2/2 62/2/2 64/2/2
f 63/1/2 51/1/2 64/1/2
f 51/2/2 59/2/2 64/2/2
f 60/2/2 61/2/2 64/2/2
f 59/2/2 60/2/2 64/2/2
f 62/2/2 56/2/2 65/2/2
f 64/2/2 62/2/2 65/2/2
f 57/1/2 58/1/2 65/1/2
f 56/1/2 57/1/2 65/1/2
f 65/1/2 58/1/2 66/1/2
f 63/2/2 64/2/2 67/2/2
f 64/2/2 65/2/2 67/2/2
f 65/2/2 66/2/2 67/2/2
f 67/2/2 66/2/2 68/2/2
f 68/2/2 66/2/2 69/2/2
f 69/2/2 66/2/2 70/2/2
f 63/2/2 67/2/2 71/2/2
f 67/1/2 68/1/2 71/1/2
f 68/2/2 69/2/2 72/2/2
f 71/1/2 68/1/2 72/1/2
f 69/1/2 70/1/2 73/1/2
f 72/2/2 69/2/2 73/2/2
f 70/2/2 66/2/2 74/2/2
f 73/1/2 70/1/2 74/1/2
f 49/1/2 63/1/2 76/1/2
f 66/1/2 58/1/2 77/1/2
f 75/1/2 76/1/2 79/1/2
f 76/1/2 63/1/2 80/1/2
f 79/1/2 76/1/2 80/1/2
f 72/2/2 73/2/2 81/2/2
f 80/1/2 63/1/2 81/1/2
f 71/2/2 72/2/2 81/2/2
f 63/2/2 71/2/2 81/2/2
f 73/2/2 74/2/2 81/2/2
f 77/1/2 78/1/2 82/1/2
f 81/2/2 74/2/2 82/2/2
f 74/2/2 66/2/2 82/2/2
f 66/1/2 77/1/2 82/1/2
f 82/1/2 78/1/2 83/1/2
f 83/1/2 78/1/2 84/1/2
f 80/1/2 81/1/2 85/1/2
f 82/1/2 83/1/2 85/1/2
f 81/1/2 82/1/2 85/1/2
f 85/1/2 83/1/2 86/1/2
f 89/1/3 88/1/3 87/1/3
f 90/1/3 88/1/3 89/1/3
f 95/1/3 92/1/3 91/1/3
f 96/1/3 92/1/3 95/1/3
f 97/1/3 94/1/3 93/1/3
f 98/1/3 94/1/3 97/1/3
f 101/1/3 100/1/3 99/1/3
f 102/1/3 100/1/3 101/1/3
f 105/1/3 104/1/3 103/1/3
f 106/1/3 104/1/3 105/1/3
f 107/1/4 108/1/4 109/1/4
f 109/1/4 108/1/4 110/1/4
f 111/1/4 112/1/4 113/1/4
f 113/1/4 112/1/4 114/1/4
f 115/1/4 116/1/4 119/1/4
f 119/1/4 116/1/4 120/1/4
f 117/1/4 118/1/4 121/1/4
f 121/1/4 118/1/4 122/1/4
f 123/1/4 124/1/4 125/1/4
f 125/1/4 124/1/4 126/1/4
f 129/1/5 128/1/5 127/1/5
f 130/1/5 128/1/5 129/1/5
f 133/1/5 132/1/5 131/1/5
f 134/1/5 132/1/5 133/1/5
f 137/1/5 136/1/5 135/1/5
f 138/1/5 136/1/5 137/1/5
f 141/1/5 140/1/5 139/1/5
f 142/1/5 140/1/5 141/1/5
f 143/1/5 140/1/5 142/1/5
f 144/1/5 140/1/5 143/1/5
f 145/1/5 141/1/5 139/1/5
f 148/1/5 145/1/5 139/1/5
f 148/1/5 147/1/5 146/1/5
f 148/1/5 146/1/5 145/1/5
f 149/1/5 147/1/5 148/1/5
f 150/1/6 151/1/6 152/1/6
f 152/1/6 151/1/6 153/1/6
f 153/1/6 151/1/6 154/1/6
f 154/1/6 151/1/6 155/1/6
f 150/1/6 152/1/6 156/1/6
f 150/1/6 156/1/6 159/1/6
f 157/1/6 158/1/6 159/1/6
f 156/1/6 157/1/6 159/1/6
f 159/1/6 158/1/6 160/1/6
f 161/1/6 162/1/6 163/1/6
f 163/1/6 162/1/6 164/1/6
