# MagicaVoxel @ Ephtracy

# group
o 

# material
mtllib model.mtl
usemtl palette

# normals
vn -1 0 0
vn 1 0 0
vn 0 0 1
vn 0 0 -1
vn 0 -1 0
vn 0 1 0

# texcoords
vt 0.0292969 0.5
vt 0.306641 0.5
vt 0.513672 0.5

# verts
v -0.6 0.3 1.2
v -0.6 0.3 1.1
v -0.6 0.3 -1.1
v -0.6 0.3 -1.2
v -0.6 0.7 1.2
v -0.6 0.7 1.1
v -0.6 0.7 -1.1
v -0.6 0.7 -1.2
v -0.3 0.3 1.2
v -0.3 0.3 1.1
v -0.3 0.3 -1.1
v -0.3 0.3 -1.2
v -0.3 0.6 1.2
v -0.3 0.6 1.1
v -0.3 0.6 -1.1
v -0.3 0.6 -1.2
v 0.5 0 0.9
v 0.5 0 0.3
v 0.5 0 -0.3
v 0.5 0 -0.9
v 0.5 0.1 1
v 0.5 0.1 0.9
v 0.5 0.1 0.7
v 0.5 0.1 0.6
v 0.5 0.1 0.5
v 0.5 0.1 0.4
v 0.5 0.1 0.3
v 0.5 0.1 0.2
v 0.5 0.1 -0.2
v 0.5 0.1 -0.3
v 0.5 0.1 -0.5
v 0.5 0.1 -0.6
v 0.5 0.1 -0.7
v 0.5 0.1 -0.8
v 0.5 0.1 -0.9
v 0.5 0.1 -1
v 0.5 0.3 1.1
v 0.5 0.3 1
v 0.5 0.3 0.2
v 0.5 0.3 0.1
v 0.5 0.3 -0.0999999
v 0.5 0.3 -0.2
v 0.5 0.3 -1
v 0.5 0.3 -1.1
v 0.5 0.4 1.1
v 0.5 0.4 0.9
v 0.5 0.4 0.7
v 0.5 0.4 0.6
v 0.5 0.4 0.5
v 0.5 0.4 0.4
v 0.5 0.4 0.3
v 0.5 0.4 0.2
v 0.5 0.4 -0.2
v 0.5 0.4 -0.3
v 0.5 0.4 -0.5
v 0.5 0.4 -0.6
v 0.5 0.4 -0.7
v 0.5 0.4 -0.8
v 0.5 0.4 -0.9
v 0.5 0.4 -1.1
v 0.5 0.5 0.9
v 0.5 0.5 0.3
v 0.5 0.5 0.1
v 0.5 0.5 -0.0999999
v 0.5 0.5 -0.3
v 0.5 0.5 -0.9
v 0.5 0.6 0.2
v 0.5 0.6 -0.2
v -0.5 0.3 1.2
v -0.5 0.3 1.1
v -0.5 0.3 -1.1
v -0.5 0.3 -1.2
v -0.5 0.6 1.2
v -0.5 0.6 1.1
v -0.5 0.6 -1.1
v -0.5 0.6 -1.2
v -0.2 0.4 1.2
v -0.2 0.4 1.1
v -0.2 0.4 -1.1
v -0.2 0.4 -1.2
v -0.2 0.7 1.2
v -0.2 0.7 1.1
v -0.2 0.7 -1.1
v -0.2 0.7 -1.2
v 0.6 0 0.9
v 0.6 0 0.3
v 0.6 0 -0.3
v 0.6 0 -0.9
v 0.6 0.1 1
v 0.6 0.1 0.9
v 0.6 0.1 0.7
v 0.6 0.1 0.6
v 0.6 0.1 0.5
v 0.6 0.1 0.4
v 0.6 0.1 0.3
v 0.6 0.1 0.2
v 0.6 0.1 -0.2
v 0.6 0.1 -0.3
v 0.6 0.1 -0.5
v 0.6 0.1 -0.6
v 0.6 0.1 -0.7
v 0.6 0.1 -0.8
v 0.6 0.1 -0.9
v 0.6 0.1 -1
v 0.6 0.3 1.2
v 0.6 0.3 1
v 0.6 0.3 0.2
v 0.6 0.3 0.1
v 0.6 0.3 -0.0999999
v 0.6 0.3 -0.2
v 0.6 0.3 -1
v 0.6 0.3 -1.2
v 0.6 0.4 1.2
v 0.6 0.4 0.9
v 0.6 0.4 0.7
v 0.6 0.4 0.6
v 0.6 0.4 0.5
v 0.6 0.4 0.4
v 0.6 0.4 0.3
v 0.6 0.4 0.2
v 0.6 0.4 -0.2
v 0.6 0.4 -0.3
v 0.6 0.4 -0.5
v 0.6 0.4 -0.6
v 0.6 0.4 -0.7
v 0.6 0.4 -0.8
v 0.6 0.4 -0.9
v 0.6 0.4 -1.2
v 0.6 0.5 0.9
v 0.6 0.5 0.3
v 0.6 0.5 0.1
v 0.6 0.5 -0.0999999
v 0.6 0.5 -0.3
v 0.6 0.5 -0.9
v 0.6 0.6 0.2
v 0.6 0.6 -0.2
v -0.6 0.3 1.2
v -0.6 0.7 1.2
v -0.5 0.3 1.2
v -0.5 0.6 1.2
v -0.3 0.3 1.2
v -0.3 0.6 1.2
v -0.2 0.4 1.2
v -0.2 0.7 1.2
v 0.6 0.3 1.2
v 0.6 0.4 1.2
v 0.5 0.1 1
v 0.5 0.3 1
v 0.6 0.1 1
v 0.6 0.3 1
v 0.5 0 0.9
v 0.5 0.1 0.9
v 0.5 0.4 0.9
v 0.5 0.5 0.9
v 0.6 0 0.9
v 0.6 0.1 0.9
v 0.6 0.4 0.9
v 0.6 0.5 0.9
v 0.5 0.4 0.2
v 0.5 0.6 0.2
v 0.6 0.4 0.2
v 0.6 0.6 0.2
v 0.5 0.3 -0.0999999
v 0.5 0.5 -0.0999999
v 0.6 0.3 -0.0999999
v 0.6 0.5 -0.0999999
v 0.5 0.1 -0.2
v 0.5 0.3 -0.2
v 0.6 0.1 -0.2
v 0.6 0.3 -0.2
v 0.5 0 -0.3
v 0.5 0.1 -0.3
v 0.5 0.4 -0.3
v 0.5 0.5 -0.3
v 0.6 0 -0.3
v 0.6 0.1 -0.3
v 0.6 0.4 -0.3
v 0.6 0.5 -0.3
v -0.6 0.3 -1.1
v -0.6 0.7 -1.1
v -0.5 0.3 -1.1
v -0.5 0.6 -1.1
v -0.3 0.3 -1.1
v -0.3 0.6 -1.1
v -0.2 0.4 -1.1
v -0.2 0.7 -1.1
v 0.5 0.3 -1.1
v 0.5 0.4 -1.1
v -0.6 0.3 1.1
v -0.6 0.7 1.1
v -0.5 0.3 1.1
v -0.5 0.6 1.1
v -0.3 0.3 1.1
v -0.3 0.6 1.1
v -0.2 0.4 1.1
v -0.2 0.7 1.1
v 0.5 0.3 1.1
v 0.5 0.4 1.1
v 0.5 0 0.3
v 0.5 0.1 0.3
v 0.5 0.4 0.3
v 0.5 0.5 0.3
v 0.6 0 0.3
v 0.6 0.1 0.3
v 0.6 0.4 0.3
v 0.6 0.5 0.3
v 0.5 0.1 0.2
v 0.5 0.3 0.2
v 0.6 0.1 0.2
v 0.6 0.3 0.2
v 0.5 0.3 0.1
v 0.5 0.5 0.1
v 0.6 0.3 0.1
v 0.6 0.5 0.1
v 0.5 0.4 -0.2
v 0.5 0.6 -0.2
v 0.6 0.4 -0.2
v 0.6 0.6 -0.2
v 0.5 0 -0.9
v 0.5 0.1 -0.9
v 0.5 0.4 -0.9
v 0.5 0.5 -0.9
v 0.6 0 -0.9
v 0.6 0.1 -0.9
v 0.6 0.4 -0.9
v 0.6 0.5 -0.9
v 0.5 0.1 -1
v 0.5 0.3 -1
v 0.6 0.1 -1
v 0.6 0.3 -1
v -0.6 0.3 -1.2
v -0.6 0.7 -1.2
v -0.5 0.3 -1.2
v -0.5 0.6 -1.2
v -0.3 0.3 -1.2
v -0.3 0.6 -1.2
v -0.2 0.4 -1.2
v -0.2 0.7 -1.2
v 0.6 0.3 -1.2
v 0.6 0.4 -1.2
v 0.5 0 0.9
v 0.6 0 0.9
v 0.5 0 0.3
v 0.6 0 0.3
v 0.5 0 -0.3
v 0.6 0 -0.3
v 0.5 0 -0.9
v 0.6 0 -0.9
v 0.5 0.1 1
v 0.6 0.1 1
v 0.5 0.1 0.9
v 0.6 0.1 0.9
v 0.5 0.1 0.3
v 0.6 0.1 0.3
v 0.5 0.1 0.2
v 0.6 0.1 0.2
v 0.5 0.1 -0.2
v 0.6 0.1 -0.2
v 0.5 0.1 -0.3
v 0.6 0.1 -0.3
v 0.5 0.1 -0.9
v 0.6 0.1 -0.9
v 0.5 0.1 -1
v 0.6 0.1 -1
v -0.6 0.3 1.2
v -0.5 0.3 1.2
v -0.3 0.3 1.2
v 0.6 0.3 1.2
v -0.6 0.3 1.1
v -0.5 0.3 1.1
v -0.3 0.3 1.1
v 0.5 0.3 1.1
v 0.5 0.3 1
v 0.6 0.3 1
v 0.5 0.3 0.2
v 0.6 0.3 0.2
v 0.5 0.3 0.1
v 0.6 0.3 0.1
v 0.5 0.3 -0.0999999
v 0.6 0.3 -0.0999999
v 0.5 0.3 -0.2
v 0.6 0.3 -0.2
v 0.5 0.3 -1
v 0.6 0.3 -1
v -0.6 0.3 -1.1
v -0.5 0.3 -1.1
v -0.3 0.3 -1.1
v 0.5 0.3 -1.1
v -0.6 0.3 -1.2
v -0.5 0.3 -1.2
v -0.3 0.3 -1.2
v 0.6 0.3 -1.2
v 0.5 0.5 0.1
v 0.6 0.5 0.1
v 0.5 0.5 -0.0999999
v 0.6 0.5 -0.0999999
v -0.5 0.6 1.2
v -0.3 0.6 1.2
v -0.5 0.6 1.1
v -0.3 0.6 1.1
v -0.5 0.6 -1.1
v -0.3 0.6 -1.1
v -0.5 0.6 -1.2
v -0.3 0.6 -1.2
v -0.2 0.4 1.2
v 0.6 0.4 1.2
v -0.2 0.4 1.1
v 0.5 0.4 1.1
v 0.5 0.4 0.9
v 0.6 0.4 0.9
v 0.5 0.4 0.3
v 0.6 0.4 0.3
v 0.5 0.4 0.2
v 0.6 0.4 0.2
v 0.5 0.4 -0.2
v 0.6 0.4 -0.2
v 0.5 0.4 -0.3
v 0.6 0.4 -0.3
v 0.5 0.4 -0.9
v 0.6 0.4 -0.9
v -0.2 0.4 -1.1
v 0.5 0.4 -1.1
v -0.2 0.4 -1.2
v 0.6 0.4 -1.2
v 0.5 0.5 0.9
v 0.6 0.5 0.9
v 0.5 0.5 0.3
v 0.6 0.5 0.3
v 0.5 0.5 -0.3
v 0.6 0.5 -0.3
v 0.5 0.5 -0.9
v 0.6 0.5 -0.9
v 0.5 0.6 0.2
v 0.6 0.6 0.2
v 0.5 0.6 -0.2
v 0.6 0.6 -0.2
v -0.6 0.7 1.2
v -0.2 0.7 1.2
v -0.6 0.7 1.1
v -0.2 0.7 1.1
v -0.6 0.7 -1.1
v -0.2 0.7 -1.1
v -0.6 0.7 -1.2
v -0.2 0.7 -1.2

# faces
f 5/3/1 2/3/1 1/3/1
f 6/3/1 2/3/1 5/3/1
f 7/3/1 4/3/1 3/3/1
f 8/3/1 4/3/1 7/3/1
f 13/3/1 10/3/1 9/3/1
f 14/3/1 10/3/1 13/3/1
f 15/3/1 12/3/1 11/3/1
f 16/3/1 12/3/1 15/3/1
f 22/3/1 18/3/1 17/3/1
f 23/3/1 18/3/1 22/3/1
f 24/3/1 18/3/1 23/3/1
f 25/3/1 18/3/1 24/3/1
f 26/3/1 18/3/1 25/3/1
f 27/3/1 18/3/1 26/3/1
f 30/3/1 20/3/1 19/3/1
f 31/3/1 20/3/1 30/3/1
f 32/3/1 20/3/1 31/3/1
f 33/3/1 20/3/1 32/3/1
f 34/3/1 20/3/1 33/3/1
f 35/3/1 20/3/1 34/3/1
f 38/3/1 22/3/1 21/3/1
f 39/3/1 28/3/1 27/3/1
f 42/3/1 30/3/1 29/3/1
f 43/3/1 36/3/1 35/3/1
f 45/3/1 38/3/1 37/3/1
f 46/2/1 23/2/1 22/2/1
f 46/3/1 38/3/1 45/3/1
f 46/3/1 22/3/1 38/3/1
f 47/1/1 24/1/1 23/1/1
f 47/2/1 23/2/1 46/2/1
f 48/2/1 25/2/1 24/2/1
f 48/1/1 24/1/1 47/1/1
f 49/1/1 26/1/1 25/1/1
f 49/2/1 25/2/1 48/2/1
f 50/2/1 27/2/1 26/2/1
f 50/1/1 26/1/1 49/1/1
f 51/3/1 40/3/1 39/3/1
f 51/2/1 27/2/1 50/2/1
f 51/3/1 39/3/1 27/3/1
f 52/3/1 40/3/1 51/3/1
f 53/3/1 42/3/1 41/3/1
f 53/3/1 30/3/1 42/3/1
f 54/2/1 31/2/1 30/2/1
f 54/3/1 30/3/1 53/3/1
f 55/1/1 32/1/1 31/1/1
f 55/2/1 31/2/1 54/2/1
f 56/2/1 33/2/1 32/2/1
f 56/1/1 32/1/1 55/1/1
f 57/1/1 34/1/1 33/1/1
f 57/2/1 33/2/1 56/2/1
f 58/2/1 35/2/1 34/2/1
f 58/1/1 34/1/1 57/1/1
f 59/3/1 44/3/1 43/3/1
f 59/2/1 35/2/1 58/2/1
f 59/3/1 43/3/1 35/3/1
f 60/3/1 44/3/1 59/3/1
f 61/3/1 47/3/1 46/3/1
f 61/3/1 48/3/1 47/3/1
f 61/3/1 49/3/1 48/3/1
f 61/3/1 51/3/1 50/3/1
f 61/3/1 50/3/1 49/3/1
f 62/3/1 51/3/1 61/3/1
f 63/3/1 40/3/1 52/3/1
f 64/3/1 53/3/1 41/3/1
f 65/3/1 58/3/1 57/3/1
f 65/3/1 59/3/1 58/3/1
f 65/3/1 57/3/1 56/3/1
f 65/3/1 56/3/1 55/3/1
f 65/3/1 55/3/1 54/3/1
f 66/3/1 59/3/1 65/3/1
f 67/3/1 64/3/1 63/3/1
f 67/3/1 63/3/1 52/3/1
f 68/3/1 53/3/1 64/3/1
f 68/3/1 64/3/1 67/3/1
f 69/3/2 70/3/2 73/3/2
f 73/3/2 70/3/2 74/3/2
f 71/3/2 72/3/2 75/3/2
f 75/3/2 72/3/2 76/3/2
f 77/3/2 78/3/2 81/3/2
f 81/3/2 78/3/2 82/3/2
f 79/3/2 80/3/2 83/3/2
f 83/3/2 80/3/2 84/3/2
f 85/3/2 86/3/2 90/3/2
f 90/3/2 86/3/2 91/3/2
f 91/3/2 86/3/2 92/3/2
f 92/3/2 86/3/2 93/3/2
f 93/3/2 86/3/2 94/3/2
f 94/3/2 86/3/2 95/3/2
f 87/3/2 88/3/2 98/3/2
f 98/3/2 88/3/2 99/3/2
f 99/3/2 88/3/2 100/3/2
f 100/3/2 88/3/2 101/3/2
f 101/3/2 88/3/2 102/3/2
f 102/3/2 88/3/2 103/3/2
f 89/3/2 90/3/2 106/3/2
f 95/3/2 96/3/2 107/3/2
f 97/3/2 98/3/2 110/3/2
f 103/3/2 104/3/2 111/3/2
f 105/3/2 106/3/2 113/3/2
f 90/2/2 91/2/2 114/2/2
f 113/3/2 106/3/2 114/3/2
f 106/3/2 90/3/2 114/3/2
f 91/1/2 92/1/2 115/1/2
f 114/2/2 91/2/2 115/2/2
f 92/2/2 93/2/2 116/2/2
f 115/1/2 92/1/2 116/1/2
f 93/1/2 94/1/2 117/1/2
f 116/2/2 93/2/2 117/2/2
f 94/2/2 95/2/2 118/2/2
f 117/1/2 94/1/2 118/1/2
f 107/3/2 108/3/2 119/3/2
f 118/2/2 95/2/2 119/2/2
f 95/3/2 107/3/2 119/3/2
f 119/3/2 108/3/2 120/3/2
f 109/3/2 110/3/2 121/3/2
f 110/3/2 98/3/2 121/3/2
f 98/2/2 99/2/2 122/2/2
f 121/3/2 98/3/2 122/3/2
f 99/1/2 100/1/2 123/1/2
f 122/2/2 99/2/2 123/2/2
f 100/2/2 101/2/2 124/2/2
f 123/1/2 100/1/2 124/1/2
f 101/1/2 102/1/2 125/1/2
f 124/2/2 101/2/2 125/2/2
f 102/2/2 103/2/2 126/2/2
f 125/1/2 102/1/2 126/1/2
f 111/3/2 112/3/2 127/3/2
f 126/2/2 103/2/2 127/2/2
f 103/3/2 111/3/2 127/3/2
f 127/3/2 112/3/2 128/3/2
f 114/3/2 115/3/2 129/3/2
f 115/3/2 116/3/2 129/3/2
f 116/3/2 117/3/2 129/3/2
f 118/3/2 119/3/2 129/3/2
f 117/3/2 118/3/2 129/3/2
f 129/3/2 119/3/2 130/3/2
f 120/3/2 108/3/2 131/3/2
f 109/3/2 121/3/2 132/3/2
f 125/3/2 126/3/2 133/3/2
f 126/3/2 127/3/2 133/3/2
f 124/3/2 125/3/2 133/3/2
f 123/3/2 124/3/2 133/3/2
f 122/3/2 123/3/2 133/3/2
f 133/3/2 127/3/2 134/3/2
f 131/3/2 132/3/2 135/3/2
f 120/3/2 131/3/2 135/3/2
f 132/3/2 121/3/2 136/3/2
f 135/3/2 132/3/2 136/3/2
f 139/3/3 138/3/3 137/3/3
f 140/3/3 138/3/3 139/3/3
f 142/3/3 138/3/3 140/3/3
f 143/3/3 142/3/3 141/3/3
f 144/3/3 138/3/3 142/3/3
f 144/3/3 142/3/3 143/3/3
f 145/3/3 143/3/3 141/3/3
f 146/3/3 143/3/3 145/3/3
f 149/3/3 148/3/3 147/3/3
f 150/3/3 148/3/3 149/3/3
f 155/3/3 152/3/3 151/3/3
f 156/3/3 152/3/3 155/3/3
f 157/3/3 154/3/3 153/3/3
f 158/3/3 154/3/3 157/3/3
f 161/3/3 160/3/3 159/3/3
f 162/3/3 160/3/3 161/3/3
f 165/3/3 164/3/3 163/3/3
f 166/3/3 164/3/3 165/3/3
f 169/3/3 168/3/3 167/3/3
f 170/3/3 168/3/3 169/3/3
f 175/3/3 172/3/3 171/3/3
f 176/3/3 172/3/3 175/3/3
f 177/3/3 174/3/3 173/3/3
f 178/3/3 174/3/3 177/3/3
f 181/3/3 180/3/3 179/3/3
f 182/3/3 180/3/3 181/3/3
f 184/3/3 180/3/3 182/3/3
f 185/3/3 184/3/3 183/3/3
f 186/3/3 180/3/3 184/3/3
f 186/3/3 184/3/3 185/3/3
f 187/3/3 185/3/3 183/3/3
f 188/3/3 185/3/3 187/3/3
f 189/3/4 190/3/4 191/3/4
f 191/3/4 190/3/4 192/3/4
f 192/3/4 190/3/4 194/3/4
f 193/3/4 194/3/4 195/3/4
f 194/3/4 190/3/4 196/3/4
f 195/3/4 194/3/4 196/3/4
f 193/3/4 195/3/4 197/3/4
f 197/3/4 195/3/4 198/3/4
f 199/3/4 200/3/4 203/3/4
f 203/3/4 200/3/4 204/3/4
f 201/3/4 202/3/4 205/3/4
f 205/3/4 202/3/4 206/3/4
f 207/3/4 208/3/4 209/3/4
f 209/3/4 208/3/4 210/3/4
f 211/3/4 212/3/4 213/3/4
f 213/3/4 212/3/4 214/3/4
f 215/3/4 216/3/4 217/3/4
f 217/3/4 216/3/4 218/3/4
f 219/3/4 220/3/4 223/3/4
f 223/3/4 220/3/4 224/3/4
f 221/3/4 222/3/4 225/3/4
f 225/3/4 222/3/4 226/3/4
f 227/3/4 228/3/4 229/3/4
f 229/3/4 228/3/4 230/3/4
f 231/3/4 232/3/4 233/3/4
f 233/3/4 232/3/4 234/3/4
f 234/3/4 232/3/4 236/3/4
f 235/3/4 236/3/4 237/3/4
f 236/3/4 232/3/4 238/3/4
f 237/3/4 236/3/4 238/3/4
f 235/3/4 237/3/4 239/3/4
f 239/3/4 237/3/4 240/3/4
f 243/3/5 242/3/5 241/3/5
f 244/3/5 242/3/5 243/3/5
f 247/3/5 246/3/5 245/3/5
f 248/3/5 246/3/5 247/3/5
f 251/3/5 250/3/5 249/3/5
f 252/3/5 250/3/5 251/3/5
f 255/3/5 254/3/5 253/3/5
f 256/3/5 254/3/5 255/3/5
f 259/3/5 258/3/5 257/3/5
f 260/3/5 258/3/5 259/3/5
f 263/3/5 262/3/5 261/3/5
f 264/3/5 262/3/5 263/3/5
f 269/3/5 266/3/5 265/3/5
f 270/3/5 266/3/5 269/3/5
f 271/3/5 268/3/5 267/3/5
f 272/3/5 268/3/5 271/3/5
f 273/3/5 268/3/5 272/3/5
f 274/3/5 268/3/5 273/3/5
f 277/3/5 276/3/5 275/3/5
f 278/3/5 276/3/5 277/3/5
f 281/3/5 280/3/5 279/3/5
f 282/3/5 280/3/5 281/3/5
f 288/3/5 284/3/5 283/3/5
f 289/3/5 286/3/5 285/3/5
f 290/3/5 286/3/5 289/3/5
f 291/3/5 288/3/5 287/3/5
f 292/3/5 284/3/5 288/3/5
f 292/3/5 288/3/5 291/3/5
f 295/3/5 294/3/5 293/3/5
f 296/3/5 294/3/5 295/3/5
f 299/3/5 298/3/5 297/3/5
f 300/3/5 298/3/5 299/3/5
f 303/3/5 302/3/5 301/3/5
f 304/3/5 302/3/5 303/3/5
f 305/3/6 306/3/6 307/3/6
f 307/3/6 306/3/6 308/3/6
f 308/3/6 306/3/6 309/3/6
f 309/3/6 306/3/6 310/3/6
f 311/3/6 312/3/6 313/3/6
f 313/3/6 312/3/6 314/3/6
f 315/3/6 316/3/6 317/3/6
f 317/3/6 316/3/6 318/3/6
f 319/3/6 320/3/6 322/3/6
f 321/3/6 322/3/6 323/3/6
f 322/3/6 320/3/6 324/3/6
f 323/3/6 322/3/6 324/3/6
f 325/3/6 326/3/6 327/3/6
f 327/3/6 326/3/6 328/3/6
f 329/3/6 330/3/6 331/3/6
f 331/3/6 330/3/6 332/3/6
f 333/3/6 334/3/6 335/3/6
f 335/3/6 334/3/6 336/3/6
f 337/3/6 338/3/6 339/3/6
f 339/3/6 338/3/6 340/3/6
f 341/3/6 342/3/6 343/3/6
f 343/3/6 342/3/6 344/3/6
