# MagicaVoxel @ Ephtracy

# group
o 

# material
mtllib model-0.mtl
usemtl palette

# normals
vn 0 0 1
vn 0 0 -1
vn 1 0 0
vn -1 0 0
vn 0 -1 0
vn 0 1 0

# texcoords
vt 0.0292969 0.5
vt 0.255859 0.5
vt 0.259766 0.5

# verts
v -0.4 5.6 2.2
v -0.6 5.6 2.2
v -0.4 5.9 2.2
v -0.6 5.9 2.2
v -0.3 4.8 2.1
v -0.5 4.8 2.1
v -0.3 5.1 2.1
v -0.5 5.1 2.1
v -0.4 5.4 2
v -0.6 5.4 2
v -0.4 5.6 2
v -0.6 5.6 2
v -0.3 5.1 1.9
v -0.5 5.1 1.9
v -0.3 5.3 1.9
v -0.5 5.3 1.9
v -0.2 5.2 1.6
v -0.3 5.2 1.6
v -0.5 5.2 1.6
v -0.7 5.2 1.6
v -0.3 5.3 1.6
v -0.5 5.3 1.6
v -0.4 5.4 1.6
v -0.6 5.4 1.6
v -0.7 5.4 1.6
v -0.2 5.5 1.6
v -0.4 5.5 1.6
v -0.6 5.5 1.6
v -0.7 5.5 1.6
v 0 4.9 1.3
v -0.8 4.9 1.3
v -0.3 5 1.3
v -0.5 5 1.3
v 0.5 5.2 1.3
v 0 5.2 1.3
v -0.2 5.2 1.3
v -0.3 5.2 1.3
v -0.5 5.2 1.3
v -0.7 5.2 1.3
v 0.5 5.3 1.3
v -0.2 5.3 1.3
v -0.7 5.3 1.3
v -0.8 5.3 1.3
v 0.9 5.5 1.3
v 0.5 5.5 1.3
v -0.2 5.5 1.3
v -0.4 5.5 1.3
v -0.6 5.5 1.3
v -0.7 5.5 1.3
v -0.8 5.5 1.3
v -0.4 5.7 1.3
v -0.6 5.7 1.3
v 0.9 5.8 1.3
v -0.8 5.8 1.3
v 0.9 6 1.3
v -0.8 6 1.3
v 0.9 6.3 1.3
v -0.8 6.3 1.3
v 0.9 6.5 1.3
v -0.8 6.5 1.3
v 0.9 6.7 1.3
v -0.8 6.7 1.3
v -0.8 4.9 1.1
v -1 4.9 1.1
v -0.8 5.3 1.1
v -1 5.3 1.1
v 1.1 5.5 1.1
v 0.9 5.5 1.1
v -0.8 5.5 1.1
v -1 5.5 1.1
v 1.1 5.8 1.1
v 0.9 5.8 1.1
v -0.8 5.8 1.1
v -1 5.8 1.1
v 1.1 6 1.1
v 0.9 6 1.1
v -0.8 6 1.1
v -1 6 1.1
v 1.1 6.3 1.1
v 0.9 6.3 1.1
v -0.8 6.3 1.1
v -1 6.3 1.1
v 1.1 6.5 1.1
v 0.9 6.5 1.1
v -0.8 6.5 1.1
v -1 6.5 1.1
v 1.1 6.7 1.1
v 0.9 6.7 1.1
v -0.8 6.7 1.1
v -1 6.7 1.1
v 0.9 6.9 1.1
v -0.8 6.9 1.1
v -0.3 4.8 1.5
v -0.5 4.8 1.5
v -0.3 5 1.5
v -0.5 5 1.5
v -0.4 5.7 1.5
v -0.6 5.7 1.5
v -0.4 5.9 1.5
v -0.6 5.9 1.5
v -0.8 4.9 -1.1
v -1 4.9 -1.1
v -0.8 5.3 -1.1
v -1 5.3 -1.1
v 1.1 5.5 -1.1
v 0.9 5.5 -1.1
v -0.8 5.5 -1.1
v -1 5.5 -1.1
v 1.1 5.8 -1.1
v 0.9 5.8 -1.1
v -0.8 5.8 -1.1
v -1 5.8 -1.1
v 1.1 6 -1.1
v 0.9 6 -1.1
v -0.8 6 -1.1
v -1 6 -1.1
v 1.1 6.3 -1.1
v 0.9 6.3 -1.1
v -0.8 6.3 -1.1
v -1 6.3 -1.1
v 1.1 6.5 -1.1
v 0.9 6.5 -1.1
v -0.8 6.5 -1.1
v -1 6.5 -1.1
v 1.1 6.7 -1.1
v 0.9 6.7 -1.1
v -0.8 6.7 -1.1
v -1 6.7 -1.1
v 0.9 6.9 -1.1
v -0.8 6.9 -1.1
v 0 4.9 -1.3
v -0.8 4.9 -1.3
v 0.5 5.2 -1.3
v 0 5.2 -1.3
v 0.5 5.3 -1.3
v -0.8 5.3 -1.3
v 0.9 5.5 -1.3
v 0.5 5.5 -1.3
v -0.8 5.5 -1.3
v 0.9 5.8 -1.3
v -0.8 5.8 -1.3
v 0.9 6 -1.3
v -0.8 6 -1.3
v 0.9 6.3 -1.3
v -0.8 6.3 -1.3
v 0.9 6.5 -1.3
v -0.8 6.5 -1.3
v 0.9 6.7 -1.3
v -0.8 6.7 -1.3
v 1.1 5.5 1.1
v 1.1 5.8 1.1
v 1.1 6 1.1
v 1.1 6.3 1.1
v 1.1 6.5 1.1
v 1.1 6.7 1.1
v 1.1 5.8 0.6
v 1.1 6 0.6
v 1.1 6.3 0.6
v 1.1 6.5 0.6
v 1.1 6 0.5
v 1.1 6.2 0.5
v 1.1 6.5 0.5
v 1.1 6.6 0.5
v 1.1 5.6 0.4
v 1.1 5.8 0.4
v 1.1 6 0.4
v 1.1 6.1 0.4
v 1.1 6.2 0.4
v 1.1 6.3 0.4
v 1.1 5.6 0.2
v 1.1 5.7 0.2
v 1.1 6 0.2
v 1.1 6.1 0.2
v 1.1 5.6 0.0999999
v 1.1 5.7 0.0999999
v 1.1 5.8 0.0999999
v 1.1 5.9 0.0999999
v 1.1 6 0.0999999
v 1.1 6.3 0.0999999
v 1.1 5.6 -0.1
v 1.1 5.7 -0.1
v 1.1 5.8 -0.1
v 1.1 5.9 -0.1
v 1.1 6 -0.1
v 1.1 6.3 -0.1
v 1.1 5.6 -0.2
v 1.1 5.7 -0.2
v 1.1 6 -0.2
v 1.1 6.1 -0.2
v 1.1 5.6 -0.4
v 1.1 5.8 -0.4
v 1.1 6 -0.4
v 1.1 6.1 -0.4
v 1.1 6.2 -0.4
v 1.1 6.3 -0.4
v 1.1 6 -0.5
v 1.1 6.2 -0.5
v 1.1 6.5 -0.5
v 1.1 6.6 -0.5
v 1.1 5.8 -0.6
v 1.1 6 -0.6
v 1.1 6.3 -0.6
v 1.1 6.5 -0.6
v 1.1 5.5 -1.1
v 1.1 5.8 -1.1
v 1.1 6 -1.1
v 1.1 6.3 -1.1
v 1.1 6.5 -1.1
v 1.1 6.7 -1.1
v 0.9 5.5 1.3
v 0.9 5.8 1.3
v 0.9 6 1.3
v 0.9 6.3 1.3
v 0.9 6.5 1.3
v 0.9 6.7 1.3
v 0.9 5.5 1.1
v 0.9 5.8 1.1
v 0.9 6 1.1
v 0.9 6.3 1.1
v 0.9 6.5 1.1
v 0.9 6.7 1.1
v 0.9 6.9 1.1
v 0.9 5.5 -1.1
v 0.9 5.8 -1.1
v 0.9 6 -1.1
v 0.9 6.3 -1.1
v 0.9 6.5 -1.1
v 0.9 6.7 -1.1
v 0.9 6.9 -1.1
v 0.9 5.5 -1.3
v 0.9 5.8 -1.3
v 0.9 6 -1.3
v 0.9 6.3 -1.3
v 0.9 6.5 -1.3
v 0.9 6.7 -1.3
v 0.5 5.2 1.3
v 0.5 5.3 1.3
v 0.5 5.5 1.3
v 0.5 5.2 -1.3
v 0.5 5.3 -1.3
v 0.5 5.5 -1.3
v 0 4.9 1.3
v 0 5.2 1.3
v 0 4.9 -1.3
v 0 5.2 -1.3
v -0.2 5.2 1.6
v -0.2 5.5 1.6
v -0.2 5.2 1.3
v -0.2 5.3 1.3
v -0.2 5.5 1.3
v -0.3 4.8 2.1
v -0.3 5.1 2.1
v -0.3 5.1 1.9
v -0.3 5.3 1.9
v -0.3 4.8 1.7
v -0.3 5.3 1.7
v -0.3 5.2 1.6
v -0.3 5.3 1.6
v -0.3 4.8 1.5
v -0.3 5 1.5
v -0.3 5.2 1.5
v -0.3 5 1.3
v -0.3 5.2 1.3
v -0.4 5.6 2.2
v -0.4 5.9 2.2
v -0.4 5.4 2
v -0.4 5.6 2
v -0.4 5.9 2
v -0.4 5.4 1.8
v -0.4 5.9 1.8
v -0.4 5.4 1.6
v -0.4 5.5 1.6
v -0.4 5.5 1.5
v -0.4 5.7 1.5
v -0.4 5.9 1.5
v -0.4 5.5 1.3
v -0.4 5.7 1.3
v -0.5 4.8 2.1
v -0.5 5.1 2.1
v -0.5 5.1 1.9
v -0.5 5.3 1.9
v -0.5 4.8 1.7
v -0.5 5.3 1.7
v -0.5 5.2 1.6
v -0.5 5.3 1.6
v -0.5 4.8 1.5
v -0.5 5 1.5
v -0.5 5.2 1.5
v -0.5 5 1.3
v -0.5 5.2 1.3
v -0.6 5.6 2.2
v -0.6 5.9 2.2
v -0.6 5.4 2
v -0.6 5.6 2
v -0.6 5.9 2
v -0.6 5.4 1.8
v -0.6 5.9 1.8
v -0.6 5.4 1.6
v -0.6 5.5 1.6
v -0.6 5.5 1.5
v -0.6 5.7 1.5
v -0.6 5.9 1.5
v -0.6 5.5 1.3
v -0.6 5.7 1.3
v -0.7 5.2 1.6
v -0.7 5.4 1.6
v -0.7 5.5 1.6
v -0.7 5.4 1.5
v -0.7 5.5 1.5
v -0.7 5.2 1.3
v -0.7 5.3 1.3
v -0.7 5.5 1.3
v -0.8 4.9 1.3
v -0.8 5.3 1.3
v -0.8 5.5 1.3
v -0.8 5.8 1.3
v -0.8 6 1.3
v -0.8 6.3 1.3
v -0.8 6.5 1.3
v -0.8 6.7 1.3
v -0.8 4.9 1.1
v -0.8 5.3 1.1
v -0.8 5.5 1.1
v -0.8 5.8 1.1
v -0.8 6 1.1
v -0.8 6.3 1.1
v -0.8 6.5 1.1
v -0.8 6.7 1.1
v -0.8 6.9 1.1
v -0.8 4.9 -1.1
v -0.8 5.3 -1.1
v -0.8 5.5 -1.1
v -0.8 5.8 -1.1
v -0.8 6 -1.1
v -0.8 6.3 -1.1
v -0.8 6.5 -1.1
v -0.8 6.7 -1.1
v -0.8 6.9 -1.1
v -0.8 4.9 -1.3
v -0.8 5.3 -1.3
v -0.8 5.5 -1.3
v -0.8 5.8 -1.3
v -0.8 6 -1.3
v -0.8 6.3 -1.3
v -0.8 6.5 -1.3
v -0.8 6.7 -1.3
v -1 4.9 1.1
v -1 5.3 1.1
v -1 5.5 1.1
v -1 5.8 1.1
v -1 6 1.1
v -1 6.3 1.1
v -1 6.5 1.1
v -1 6.7 1.1
v -1 4.9 -1.1
v -1 5.3 -1.1
v -1 5.5 -1.1
v -1 5.8 -1.1
v -1 6 -1.1
v -1 6.3 -1.1
v -1 6.5 -1.1
v -1 6.7 -1.1
v -0.3 4.8 2.1
v -0.3 4.8 1.7
v -0.3 4.8 1.5
v -0.5 4.8 2.1
v -0.5 4.8 1.7
v -0.5 4.8 1.5
v 0 4.9 1.3
v 0 4.9 -1.3
v -0.8 4.9 1.3
v -0.8 4.9 1.1
v -0.8 4.9 -1.1
v -0.8 4.9 -1.3
v -1 4.9 1.1
v -1 4.9 -1.1
v -0.3 5 1.5
v -0.3 5 1.3
v -0.5 5 1.5
v -0.5 5 1.3
v 0.5 5.2 1.3
v 0.5 5.2 -1.3
v 0 5.2 1.3
v 0 5.2 -1.3
v -0.2 5.2 1.6
v -0.2 5.2 1.3
v -0.3 5.2 1.6
v -0.3 5.2 1.5
v -0.3 5.2 1.3
v -0.5 5.2 1.6
v -0.5 5.2 1.5
v -0.5 5.2 1.3
v -0.7 5.2 1.6
v -0.7 5.2 1.3
v -0.4 5.4 2
v -0.4 5.4 1.8
v -0.4 5.4 1.6
v -0.6 5.4 2
v -0.6 5.4 1.8
v -0.6 5.4 1.6
v 1.1 5.5 1.1
v 1.1 5.5 -1.1
v 0.9 5.5 1.3
v 0.9 5.5 1.1
v 0.9 5.5 -1.1
v 0.9 5.5 -1.3
v 0.5 5.5 1.3
v 0.5 5.5 -1.3
v -0.4 5.6 2.2
v -0.4 5.6 2
v -0.6 5.6 2.2
v -0.6 5.6 2
v -0.3 5.1 2.1
v -0.3 5.1 1.9
v -0.5 5.1 2.1
v -0.5 5.1 1.9
v -0.3 5.3 1.9
v -0.3 5.3 1.7
v -0.3 5.3 1.6
v -0.5 5.3 1.9
v -0.5 5.3 1.7
v -0.5 5.3 1.6
v -0.2 5.5 1.6
v -0.2 5.5 1.3
v -0.4 5.5 1.6
v -0.4 5.5 1.5
v -0.4 5.5 1.3
v -0.6 5.5 1.6
v -0.6 5.5 1.5
v -0.6 5.5 1.3
v -0.7 5.5 1.6
v -0.7 5.5 1.5
v -0.7 5.5 1.3
v -0.4 5.7 1.5
v -0.4 5.7 1.3
v -0.6 5.7 1.5
v -0.6 5.7 1.3
v -0.4 5.9 2.2
v -0.4 5.9 2
v -0.4 5.9 1.8
v -0.4 5.9 1.5
v -0.6 5.9 2.2
v -0.6 5.9 2
v -0.6 5.9 1.8
v -0.6 5.9 1.5
v 1.1 6.7 1.1
v 1.1 6.7 -1.1
v 0.9 6.7 1.3
v 0.9 6.7 1.1
v 0.9 6.7 -1.1
v 0.9 6.7 -1.3
v -0.8 6.7 1.3
v -0.8 6.7 1.1
v -0.8 6.7 -1.1
v -0.8 6.7 -1.3
v -1 6.7 1.1
v -1 6.7 -1.1
v 0.9 6.9 1.1
v 0.9 6.9 -1.1
v 0.6 6.9 0.8
v 0.6 6.9 -0.8
v 0.4 6.9 0.6
v 0.4 6.9 -0.6
v -0.3 6.9 0.6
v -0.3 6.9 -0.6
v -0.5 6.9 0.8
v -0.5 6.9 -0.8
v -0.8 6.9 1.1
v -0.8 6.9 -1.1

# faces
f 3/3/1 2/3/1 1/3/1
f 4/3/1 2/3/1 3/3/1
f 7/3/1 6/3/1 5/3/1
f 8/3/1 6/3/1 7/3/1
f 11/2/1 10/2/1 9/2/1
f 12/2/1 10/2/1 11/2/1
f 15/3/1 14/3/1 13/3/1
f 16/3/1 14/3/1 15/3/1
f 21/2/1 18/2/1 17/2/1
f 22/2/1 20/2/1 19/2/1
f 23/2/1 22/2/1 21/2/1
f 24/2/1 20/2/1 22/2/1
f 24/2/1 22/2/1 23/2/1
f 25/2/1 20/2/1 24/2/1
f 26/2/1 21/2/1 17/2/1
f 26/2/1 23/2/1 21/2/1
f 27/2/1 23/2/1 26/2/1
f 28/3/1 25/3/1 24/3/1
f 29/3/1 25/3/1 28/3/1
f 32/3/1 31/3/1 30/3/1
f 33/3/1 31/3/1 32/3/1
f 35/3/1 32/3/1 30/3/1
f 36/3/1 32/3/1 35/3/1
f 37/3/1 32/3/1 36/3/1
f 38/3/1 31/3/1 33/3/1
f 39/3/1 31/3/1 38/3/1
f 40/3/1 35/3/1 34/3/1
f 40/3/1 36/3/1 35/3/1
f 41/3/1 36/3/1 40/3/1
f 42/3/1 31/3/1 39/3/1
f 43/3/1 31/3/1 42/3/1
f 45/2/1 41/2/1 40/2/1
f 46/2/1 41/2/1 45/2/1
f 49/2/1 43/2/1 42/2/1
f 50/2/1 43/2/1 49/2/1
f 51/3/1 47/3/1 46/3/1
f 51/3/1 45/3/1 44/3/1
f 51/3/1 46/3/1 45/3/1
f 52/3/1 50/3/1 49/3/1
f 52/3/1 49/3/1 48/3/1
f 53/3/1 51/3/1 44/3/1
f 53/3/1 52/3/1 51/3/1
f 54/3/1 50/3/1 52/3/1
f 54/3/1 52/3/1 53/3/1
f 55/2/1 54/2/1 53/2/1
f 56/2/1 54/2/1 55/2/1
f 57/3/1 56/3/1 55/3/1
f 58/3/1 56/3/1 57/3/1
f 59/2/1 58/2/1 57/2/1
f 60/2/1 58/2/1 59/2/1
f 61/3/1 60/3/1 59/3/1
f 62/3/1 60/3/1 61/3/1
f 65/3/1 64/3/1 63/3/1
f 66/3/1 64/3/1 65/3/1
f 69/2/1 66/2/1 65/2/1
f 70/2/1 66/2/1 69/2/1
f 71/3/1 68/3/1 67/3/1
f 72/3/1 68/3/1 71/3/1
f 73/3/1 70/3/1 69/3/1
f 74/3/1 70/3/1 73/3/1
f 75/2/1 72/2/1 71/2/1
f 76/2/1 72/2/1 75/2/1
f 77/2/1 74/2/1 73/2/1
f 78/2/1 74/2/1 77/2/1
f 79/3/1 76/3/1 75/3/1
f 80/3/1 76/3/1 79/3/1
f 81/3/1 78/3/1 77/3/1
f 82/3/1 78/3/1 81/3/1
f 83/2/1 80/2/1 79/2/1
f 84/2/1 80/2/1 83/2/1
f 85/2/1 82/2/1 81/2/1
f 86/2/1 82/2/1 85/2/1
f 87/3/1 84/3/1 83/3/1
f 88/3/1 84/3/1 87/3/1
f 89/3/1 86/3/1 85/3/1
f 90/3/1 86/3/1 89/3/1
f 91/3/1 89/3/1 88/3/1
f 92/3/1 89/3/1 91/3/1
f 93/2/2 94/2/2 95/2/2
f 95/2/2 94/2/2 96/2/2
f 97/3/2 98/3/2 99/3/2
f 99/3/2 98/3/2 100/3/2
f 101/3/2 102/3/2 103/3/2
f 103/3/2 102/3/2 104/3/2
f 103/2/2 104/2/2 107/2/2
f 107/2/2 104/2/2 108/2/2
f 105/3/2 106/3/2 109/3/2
f 109/3/2 106/3/2 110/3/2
f 107/3/2 108/3/2 111/3/2
f 111/3/2 108/3/2 112/3/2
f 109/2/2 110/2/2 113/2/2
f 113/2/2 110/2/2 114/2/2
f 111/2/2 112/2/2 115/2/2
f 115/2/2 112/2/2 116/2/2
f 113/3/2 114/3/2 117/3/2
f 117/3/2 114/3/2 118/3/2
f 115/3/2 116/3/2 119/3/2
f 119/3/2 116/3/2 120/3/2
f 117/2/2 118/2/2 121/2/2
f 121/2/2 118/2/2 122/2/2
f 119/2/2 120/2/2 123/2/2
f 123/2/2 120/2/2 124/2/2
f 121/3/2 122/3/2 125/3/2
f 125/3/2 122/3/2 126/3/2
f 123/3/2 124/3/2 127/3/2
f 127/3/2 124/3/2 128/3/2
f 126/3/2 127/3/2 129/3/2
f 129/3/2 127/3/2 130/3/2
f 131/3/2 132/3/2 134/3/2
f 133/3/2 134/3/2 135/3/2
f 134/3/2 132/3/2 136/3/2
f 135/3/2 134/3/2 136/3/2
f 135/2/2 136/2/2 138/2/2
f 138/2/2 136/2/2 139/2/2
f 137/3/2 138/3/2 140/3/2
f 138/3/2 139/3/2 140/3/2
f 140/3/2 139/3/2 141/3/2
f 140/2/2 141/2/2 142/2/2
f 142/2/2 141/2/2 143/2/2
f 142/3/2 143/3/2 144/3/2
f 144/3/2 143/3/2 145/3/2
f 144/2/2 145/2/2 146/2/2
f 146/2/2 145/2/2 147/2/2
f 146/3/2 147/3/2 148/3/2
f 148/3/2 147/3/2 149/3/2
f 156/3/3 151/3/3 150/3/3
f 156/2/3 152/2/3 151/2/3
f 157/3/3 153/3/3 152/3/3
f 157/2/3 152/2/3 156/2/3
f 158/2/3 154/2/3 153/2/3
f 158/3/3 153/3/3 157/3/3
f 159/3/3 155/3/3 154/3/3
f 159/2/3 154/2/3 158/2/3
f 160/1/3 158/1/3 157/1/3
f 160/1/3 157/1/3 156/1/3
f 160/1/3 159/1/3 158/1/3
f 161/1/3 159/1/3 160/1/3
f 162/3/3 155/3/3 159/3/3
f 162/1/3 159/1/3 161/1/3
f 163/3/3 155/3/3 162/3/3
f 164/3/3 156/3/3 150/3/3
f 165/1/3 160/1/3 156/1/3
f 165/3/3 156/3/3 164/3/3
f 166/3/3 161/3/3 160/3/3
f 166/1/3 160/1/3 165/1/3
f 167/3/3 161/3/3 166/3/3
f 168/1/3 162/1/3 161/1/3
f 168/3/3 161/3/3 167/3/3
f 168/1/3 163/1/3 162/1/3
f 169/1/3 163/1/3 168/1/3
f 170/1/3 165/1/3 164/1/3
f 170/3/3 164/3/3 150/3/3
f 170/1/3 167/1/3 166/1/3
f 170/1/3 166/1/3 165/1/3
f 171/1/3 167/1/3 170/1/3
f 172/1/3 167/1/3 171/1/3
f 173/3/3 169/3/3 168/3/3
f 173/1/3 167/1/3 172/1/3
f 173/3/3 168/3/3 167/3/3
f 174/3/3 171/3/3 170/3/3
f 174/3/3 170/3/3 150/3/3
f 175/1/3 172/1/3 171/1/3
f 175/3/3 171/3/3 174/3/3
f 176/1/3 172/1/3 175/1/3
f 177/1/3 172/1/3 176/1/3
f 178/3/3 173/3/3 172/3/3
f 178/1/3 172/1/3 177/1/3
f 179/1/3 163/1/3 169/1/3
f 179/3/3 173/3/3 178/3/3
f 179/3/3 169/3/3 173/3/3
f 180/3/3 174/3/3 150/3/3
f 180/1/3 176/1/3 175/1/3
f 180/1/3 175/1/3 174/1/3
f 181/1/3 176/1/3 180/1/3
f 182/2/3 177/2/3 176/2/3
f 182/1/3 176/1/3 181/1/3
f 183/1/3 178/1/3 177/1/3
f 183/2/3 177/2/3 182/2/3
f 183/1/3 179/1/3 178/1/3
f 184/1/3 179/1/3 183/1/3
f 185/1/3 163/1/3 179/1/3
f 185/1/3 179/1/3 184/1/3
f 186/3/3 180/3/3 150/3/3
f 186/3/3 181/3/3 180/3/3
f 187/1/3 182/1/3 181/1/3
f 187/3/3 181/3/3 186/3/3
f 187/1/3 184/1/3 183/1/3
f 187/1/3 183/1/3 182/1/3
f 188/3/3 185/3/3 184/3/3
f 188/1/3 184/1/3 187/1/3
f 189/3/3 185/3/3 188/3/3
f 190/3/3 186/3/3 150/3/3
f 190/1/3 187/1/3 186/1/3
f 190/1/3 189/1/3 188/1/3
f 190/1/3 188/1/3 187/1/3
f 191/1/3 189/1/3 190/1/3
f 192/1/3 189/1/3 191/1/3
f 193/3/3 185/3/3 189/3/3
f 193/1/3 189/1/3 192/1/3
f 194/3/3 185/3/3 193/3/3
f 195/1/3 163/1/3 185/1/3
f 195/3/3 185/3/3 194/3/3
f 196/1/3 192/1/3 191/1/3
f 196/3/3 194/3/3 193/3/3
f 196/3/3 193/3/3 192/3/3
f 197/1/3 195/1/3 194/1/3
f 197/3/3 194/3/3 196/3/3
f 198/1/3 163/1/3 195/1/3
f 198/1/3 195/1/3 197/1/3
f 199/3/3 155/3/3 163/3/3
f 199/1/3 163/1/3 198/1/3
f 200/1/3 197/1/3 196/1/3
f 200/1/3 198/1/3 197/1/3
f 200/1/3 196/1/3 191/1/3
f 200/3/3 191/3/3 190/3/3
f 201/1/3 198/1/3 200/1/3
f 202/1/3 198/1/3 201/1/3
f 203/3/3 199/3/3 198/3/3
f 203/1/3 198/1/3 202/1/3
f 204/3/3 190/3/3 150/3/3
f 204/3/3 200/3/3 190/3/3
f 205/2/3 201/2/3 200/2/3
f 205/3/3 200/3/3 204/3/3
f 206/3/3 202/3/3 201/3/3
f 206/2/3 201/2/3 205/2/3
f 207/2/3 203/2/3 202/2/3
f 207/3/3 202/3/3 206/3/3
f 208/3/3 199/3/3 203/3/3
f 208/2/3 203/2/3 207/2/3
f 209/3/3 155/3/3 199/3/3
f 209/3/3 199/3/3 208/3/3
f 216/3/3 211/3/3 210/3/3
f 217/2/3 212/2/3 211/2/3
f 217/3/3 211/3/3 216/3/3
f 218/3/3 213/3/3 212/3/3
f 218/2/3 212/2/3 217/2/3
f 219/2/3 214/2/3 213/2/3
f 219/3/3 213/3/3 218/3/3
f 220/3/3 215/3/3 214/3/3
f 220/2/3 214/2/3 219/2/3
f 221/3/3 215/3/3 220/3/3
f 228/3/3 222/3/3 221/3/3
f 229/3/3 222/3/3 228/3/3
f 230/3/3 224/3/3 223/3/3
f 231/2/3 225/2/3 224/2/3
f 231/3/3 224/3/3 230/3/3
f 232/3/3 226/3/3 225/3/3
f 232/2/3 225/2/3 231/2/3
f 233/2/3 227/2/3 226/2/3
f 233/3/3 226/3/3 232/3/3
f 234/3/3 228/3/3 227/3/3
f 234/2/3 227/2/3 233/2/3
f 235/3/3 228/3/3 234/3/3
f 239/3/3 237/3/3 236/3/3
f 240/2/3 238/2/3 237/2/3
f 240/3/3 237/3/3 239/3/3
f 241/2/3 238/2/3 240/2/3
f 244/3/3 243/3/3 242/3/3
f 245/3/3 243/3/3 244/3/3
f 248/2/3 247/2/3 246/2/3
f 249/2/3 247/2/3 248/2/3
f 250/2/3 247/2/3 249/2/3
f 253/3/3 252/3/3 251/3/3
f 255/3/3 253/3/3 251/3/3
f 255/3/3 254/3/3 253/3/3
f 256/3/3 254/3/3 255/3/3
f 257/2/3 256/2/3 255/2/3
f 258/2/3 256/2/3 257/2/3
f 259/2/3 257/2/3 255/2/3
f 260/2/3 257/2/3 259/2/3
f 261/2/3 257/2/3 260/2/3
f 262/3/3 261/3/3 260/3/3
f 263/3/3 261/3/3 262/3/3
f 267/3/3 265/3/3 264/3/3
f 268/3/3 265/3/3 267/3/3
f 269/2/3 267/2/3 266/2/3
f 269/2/3 268/2/3 267/2/3
f 270/2/3 268/2/3 269/2/3
f 271/3/3 270/3/3 269/3/3
f 272/3/3 270/3/3 271/3/3
f 273/3/3 270/3/3 272/3/3
f 274/3/3 270/3/3 273/3/3
f 275/3/3 270/3/3 274/3/3
f 276/2/3 274/2/3 273/2/3
f 277/2/3 274/2/3 276/2/3
f 278/3/4 279/3/4 280/3/4
f 278/3/4 280/3/4 282/3/4
f 280/3/4 281/3/4 282/3/4
f 282/3/4 281/3/4 283/3/4
f 282/2/4 283/2/4 284/2/4
f 284/2/4 283/2/4 285/2/4
f 282/2/4 284/2/4 286/2/4
f 286/2/4 284/2/4 287/2/4
f 287/2/4 284/2/4 288/2/4
f 287/3/4 288/3/4 289/3/4
f 289/3/4 288/3/4 290/3/4
f 291/3/4 292/3/4 294/3/4
f 294/3/4 292/3/4 295/3/4
f 293/2/4 294/2/4 296/2/4
f 294/2/4 295/2/4 296/2/4
f 296/2/4 295/2/4 297/2/4
f 296/3/4 297/3/4 298/3/4
f 298/3/4 297/3/4 299/3/4
f 299/3/4 297/3/4 300/3/4
f 300/3/4 297/3/4 301/3/4
f 301/3/4 297/3/4 302/3/4
f 300/2/4 301/2/4 303/2/4
f 303/2/4 301/2/4 304/2/4
f 305/2/4 306/2/4 308/2/4
f 306/3/4 307/3/4 308/3/4
f 308/3/4 307/3/4 309/3/4
f 305/2/4 308/2/4 310/2/4
f 308/2/4 309/2/4 310/2/4
f 310/2/4 309/2/4 311/2/4
f 311/2/4 309/2/4 312/2/4
f 313/3/4 314/3/4 321/3/4
f 314/2/4 315/2/4 322/2/4
f 321/3/4 314/3/4 322/3/4
f 315/3/4 316/3/4 323/3/4
f 322/2/4 315/2/4 323/2/4
f 316/2/4 317/2/4 324/2/4
f 323/3/4 316/3/4 324/3/4
f 317/3/4 318/3/4 325/3/4
f 324/2/4 317/2/4 325/2/4
f 318/2/4 319/2/4 326/2/4
f 325/3/4 318/3/4 326/3/4
f 319/3/4 320/3/4 327/3/4
f 326/2/4 319/2/4 327/2/4
f 327/3/4 320/3/4 328/3/4
f 328/3/4 329/3/4 337/3/4
f 337/3/4 329/3/4 338/3/4
f 330/3/4 331/3/4 339/3/4
f 331/2/4 332/2/4 340/2/4
f 339/3/4 331/3/4 340/3/4
f 332/3/4 333/3/4 341/3/4
f 340/2/4 332/2/4 341/2/4
f 333/2/4 334/2/4 342/2/4
f 341/3/4 333/3/4 342/3/4
f 334/3/4 335/3/4 343/3/4
f 342/2/4 334/2/4 343/2/4
f 335/2/4 336/2/4 344/2/4
f 343/3/4 335/3/4 344/3/4
f 336/3/4 337/3/4 345/3/4
f 344/2/4 336/2/4 345/2/4
f 345/3/4 337/3/4 346/3/4
f 347/3/4 348/3/4 355/3/4
f 348/2/4 349/2/4 356/2/4
f 355/3/4 348/3/4 356/3/4
f 349/3/4 350/3/4 357/3/4
f 356/2/4 349/2/4 357/2/4
f 350/2/4 351/2/4 358/2/4
f 357/3/4 350/3/4 358/3/4
f 351/3/4 352/3/4 359/3/4
f 358/2/4 351/2/4 359/2/4
f 352/2/4 353/2/4 360/2/4
f 359/3/4 352/3/4 360/3/4
f 353/3/4 354/3/4 361/3/4
f 360/2/4 353/2/4 361/2/4
f 361/3/4 354/3/4 362/3/4
f 366/3/5 364/3/5 363/3/5
f 367/2/5 365/2/5 364/2/5
f 367/3/5 364/3/5 366/3/5
f 368/2/5 365/2/5 367/2/5
f 371/3/5 370/3/5 369/3/5
f 372/3/5 370/3/5 371/3/5
f 373/3/5 370/3/5 372/3/5
f 374/3/5 370/3/5 373/3/5
f 375/3/5 373/3/5 372/3/5
f 376/3/5 373/3/5 375/3/5
f 379/3/5 378/3/5 377/3/5
f 380/3/5 378/3/5 379/3/5
f 383/3/5 382/3/5 381/3/5
f 384/3/5 382/3/5 383/3/5
f 387/2/5 386/2/5 385/2/5
f 388/2/5 386/2/5 387/2/5
f 389/2/5 386/2/5 388/2/5
f 393/2/5 391/2/5 390/2/5
f 393/2/5 392/2/5 391/2/5
f 394/2/5 392/2/5 393/2/5
f 398/2/5 396/2/5 395/2/5
f 399/3/5 397/3/5 396/3/5
f 399/2/5 396/2/5 398/2/5
f 400/3/5 397/3/5 399/3/5
f 404/3/5 402/3/5 401/3/5
f 405/3/5 402/3/5 404/3/5
f 407/3/5 404/3/5 403/3/5
f 407/3/5 406/3/5 405/3/5
f 407/3/5 405/3/5 404/3/5
f 408/3/5 406/3/5 407/3/5
f 411/3/5 410/3/5 409/3/5
f 412/3/5 410/3/5 411/3/5
f 413/3/6 414/3/6 415/3/6
f 415/3/6 414/3/6 416/3/6
f 417/3/6 418/3/6 420/3/6
f 418/2/6 419/2/6 421/2/6
f 420/3/6 418/3/6 421/3/6
f 421/2/6 419/2/6 422/2/6
f 423/2/6 424/2/6 425/2/6
f 425/2/6 424/2/6 426/2/6
f 426/2/6 424/2/6 427/2/6
f 428/3/6 429/3/6 431/3/6
f 429/2/6 430/2/6 432/2/6
f 431/3/6 429/3/6 432/3/6
f 432/2/6 430/2/6 433/2/6
f 434/2/6 435/2/6 436/2/6
f 436/2/6 435/2/6 437/2/6
f 438/3/6 439/3/6 442/3/6
f 439/2/6 440/2/6 443/2/6
f 442/3/6 439/3/6 443/3/6
f 440/3/6 441/3/6 444/3/6
f 443/2/6 440/2/6 444/2/6
f 444/3/6 441/3/6 445/3/6
f 446/3/6 447/3/6 449/3/6
f 449/3/6 447/3/6 450/3/6
f 448/3/6 449/3/6 452/3/6
f 452/3/6 449/3/6 453/3/6
f 450/3/6 451/3/6 454/3/6
f 454/3/6 451/3/6 455/3/6
f 453/3/6 454/3/6 456/3/6
f 456/3/6 454/3/6 457/3/6
f 458/3/6 459/3/6 460/3/6
f 460/3/6 459/3/6 461/3/6
f 460/2/6 461/2/6 462/2/6
f 462/2/6 461/2/6 463/2/6
f 460/2/6 462/2/6 464/2/6
f 462/3/6 463/3/6 464/3/6
f 463/2/6 461/2/6 465/2/6
f 464/3/6 463/3/6 465/3/6
f 458/3/6 460/3/6 466/3/6
f 460/2/6 464/2/6 466/2/6
f 464/2/6 465/2/6 466/2/6
f 465/2/6 461/2/6 467/2/6
f 466/2/6 465/2/6 467/2/6
f 461/3/6 459/3/6 467/3/6
f 458/3/6 466/3/6 468/3/6
f 466/3/6 467/3/6 468/3/6
f 467/3/6 459/3/6 469/3/6
f 468/3/6 467/3/6 469/3/6
