# MagicaVoxel @ Ephtracy

# group
o 

# material
mtllib model-4.mtl
usemtl palette

# normals
vn 0 0 1
vn 0 0 -1
vn 1 0 0
vn -1 0 0
vn 0 -1 0
vn 0 1 0

# texcoords
vt 0.0292969 0.5
vt 0.115234 0.5
vt 0.169922 0.5
vt 0.181641 0.5
vt 0.755859 0.5
vt 0.759766 0.5

# verts
v 0.5 1.7 1.5
v -0.5 1.7 1.5
v 0.5 2.1 1.5
v -0.5 2.1 1.5
v 0.5 0.6 1
v -0.5 0.6 1
v 0.5 1.7 1
v -0.5 1.7 1
v 0.8 1.8 0.9
v 0.7 1.8 0.9
v -0.5 2 0.9
v -0.6 2 0.9
v 0.7 2.1 0.9
v 0.5 2.1 0.9
v -0.5 2.1 0.9
v -0.6 2.1 0.9
v 0.8 2.2 0.9
v -0.6 2.2 0.9
v 0.7 1.1 0.7
v 0.6 1.1 0.7
v 0.7 1.8 0.7
v 0.6 1.8 0.7
v 0.6 1.4 0.6
v 0.5 1.4 0.6
v 0.7 1.8 0.6
v 0.6 1.8 0.6
v 0.7 2.1 0.6
v 0.5 2.1 0.6
v 0.7 0.6 0.4
v 0.6 0.6 0.4
v 0.5 0.6 0.4
v 0.7 1.1 0.4
v 0.6 1.1 0.4
v 0.6 1.2 0.4
v 0.6 1.4 0.4
v 0.5 1.4 0.4
v 0.4 2.1 0.4
v -0.4 2.1 0.4
v 0.4 2.2 0.4
v -0.4 2.2 0.4
v 0.8 1.5 0.3
v 0.7 1.5 0.3
v 0.8 1.8 0.3
v 0.7 1.8 0.3
v 0.6 1.6 0.1
v 0.4 1.6 0.1
v 0.6 1.8 0.1
v 0.5 1.8 0.1
v 0.4 1.8 0.1
v 0.5 1.9 0.1
v 0.4 1.9 0.1
v 0.6 0.6 -0.2
v 0.4 0.6 -0.2
v 0.8 1.5 -0.2
v 0.6 1.5 -0.2
v 0.5 1.9 -0.2
v 0.4 1.9 -0.2
v 0.5 2 -0.2
v 0.4 2 -0.2
v 0.8 2.2 -0.2
v 0.4 2.2 -0.2
v 0.7 0.6 -0.3
v 0.6 0.6 -0.3
v 0.7 1.2 -0.3
v 0.6 1.2 -0.3
v 0.7 1.5 -0.3
v 0.6 1.5 -0.3
v 0.4 2.1 -0.5
v -0.4 2.1 -0.5
v -0.5 2.1 -0.5
v 0.4 2.2 -0.5
v -0.5 2.2 -0.5
v 0.4 2.1 0.5
v -0.4 2.1 0.5
v -0.5 2.1 0.5
v 0.4 2.2 0.5
v -0.5 2.2 0.5
v 0.7 0.6 0.3
v 0.6 0.6 0.3
v 0.7 1.2 0.3
v 0.6 1.2 0.3
v 0.7 1.5 0.3
v 0.6 1.5 0.3
v 0.6 0.6 0.2
v 0.4 0.6 0.2
v 0.8 1.5 0.2
v 0.6 1.5 0.2
v 0.5 1.9 0.2
v 0.4 1.9 0.2
v 0.5 2 0.2
v 0.4 2 0.2
v 0.8 2.2 0.2
v 0.4 2.2 0.2
v 0.6 1.6 -0.1
v 0.4 1.6 -0.1
v 0.6 1.8 -0.1
v 0.5 1.8 -0.1
v 0.4 1.8 -0.1
v 0.5 1.9 -0.1
v 0.4 1.9 -0.1
v 0.8 1.5 -0.3
v 0.7 1.5 -0.3
v 0.8 1.8 -0.3
v 0.7 1.8 -0.3
v 0.7 0.6 -0.4
v 0.6 0.6 -0.4
v 0.5 0.6 -0.4
v 0.7 1.1 -0.4
v 0.6 1.1 -0.4
v 0.6 1.2 -0.4
v 0.6 1.4 -0.4
v 0.5 1.4 -0.4
v 0.4 2.1 -0.4
v -0.4 2.1 -0.4
v 0.4 2.2 -0.4
v -0.4 2.2 -0.4
v 0.6 1.4 -0.6
v 0.5 1.4 -0.6
v 0.7 1.8 -0.6
v 0.6 1.8 -0.6
v 0.7 2.1 -0.6
v 0.5 2.1 -0.6
v 0.7 1.1 -0.7
v 0.6 1.1 -0.7
v 0.7 1.8 -0.7
v 0.6 1.8 -0.7
v 0.8 1.8 -0.9
v 0.7 1.8 -0.9
v -0.5 2 -0.9
v -0.6 2 -0.9
v 0.7 2.1 -0.9
v 0.5 2.1 -0.9
v -0.5 2.1 -0.9
v -0.6 2.1 -0.9
v 0.8 2.2 -0.9
v -0.6 2.2 -0.9
v 0.5 0.6 -1
v -0.5 0.6 -1
v 0.5 1.7 -1
v -0.5 1.7 -1
v 0.5 1.7 -1.5
v -0.5 1.7 -1.5
v 0.5 2.1 -1.5
v -0.5 2.1 -1.5
v 0.8 1.8 0.9
v 0.8 2.2 0.9
v 0.8 1.5 0.3
v 0.8 1.8 0.3
v 0.8 1.5 0.2
v 0.8 2.2 0.2
v 0.8 1.5 -0.2
v 0.8 2.2 -0.2
v 0.8 1.5 -0.3
v 0.8 1.8 -0.3
v 0.8 1.8 -0.9
v 0.8 2.2 -0.9
v 0.7 1.1 0.7
v 0.7 1.8 0.7
v 0.7 1.2 0.6
v 0.7 1.3 0.6
v 0.7 1.4 0.6
v 0.7 1.6 0.6
v 0.7 1.7 0.6
v 0.7 1.8 0.6
v 0.7 1.3 0.5
v 0.7 1.4 0.5
v 0.7 1.6 0.5
v 0.7 1.7 0.5
v 0.7 0.6 0.4
v 0.7 1.1 0.4
v 0.7 0.6 0.3
v 0.7 1.2 0.3
v 0.7 1.5 0.3
v 0.7 1.8 0.3
v 0.7 0.6 -0.3
v 0.7 1.2 -0.3
v 0.7 1.5 -0.3
v 0.7 1.8 -0.3
v 0.7 0.6 -0.4
v 0.7 1.1 -0.4
v 0.7 1.3 -0.5
v 0.7 1.4 -0.5
v 0.7 1.6 -0.5
v 0.7 1.7 -0.5
v 0.7 1.2 -0.6
v 0.7 1.3 -0.6
v 0.7 1.4 -0.6
v 0.7 1.6 -0.6
v 0.7 1.7 -0.6
v 0.7 1.8 -0.6
v 0.7 1.1 -0.7
v 0.7 1.8 -0.7
v 0.6 0.6 0.3
v 0.6 1.2 0.3
v 0.6 1.5 0.3
v 0.6 0.6 0.2
v 0.6 1.5 0.2
v 0.6 1.6 0.1
v 0.6 1.8 0.1
v 0.6 1.6 -0.1
v 0.6 1.8 -0.1
v 0.6 0.6 -0.2
v 0.6 1.5 -0.2
v 0.6 0.6 -0.3
v 0.6 1.2 -0.3
v 0.6 1.5 -0.3
v 0.5 1.7 1.5
v 0.5 2.1 1.5
v 0.5 0.6 1
v 0.5 1.7 1
v 0.5 1.7 0.9
v 0.5 2.1 0.9
v 0.5 1.4 0.6
v 0.5 2.1 0.6
v 0.5 0.6 0.4
v 0.5 1.4 0.4
v 0.5 1.9 0.2
v 0.5 2 0.2
v 0.5 1.8 0.1
v 0.5 1.9 0.1
v 0.5 1.8 -0.1
v 0.5 1.9 -0.1
v 0.5 1.9 -0.2
v 0.5 2 -0.2
v 0.5 0.6 -0.4
v 0.5 1.4 -0.4
v 0.5 1.4 -0.6
v 0.5 2.1 -0.6
v 0.5 1.7 -0.9
v 0.5 2.1 -0.9
v 0.5 0.6 -1
v 0.5 1.7 -1
v 0.5 1.7 -1.5
v 0.5 2.1 -1.5
v 0.4 0.6 0.2
v 0.4 1.9 0.2
v 0.4 2 0.2
v 0.4 2.2 0.2
v 0.4 1.6 0.1
v 0.4 1.8 0.1
v 0.4 1.9 0.1
v 0.4 1.6 -0.1
v 0.4 1.8 -0.1
v 0.4 1.9 -0.1
v 0.4 0.6 -0.2
v 0.4 1.9 -0.2
v 0.4 2 -0.2
v 0.4 2.2 -0.2
v -0.5 2.1 0.5
v -0.5 2.2 0.5
v -0.5 2.1 -0.5
v -0.5 2.2 -0.5
v 0.7 1.8 0.9
v 0.7 2.1 0.9
v 0.7 1.8 0.7
v 0.7 1.8 0.6
v 0.7 2.1 0.6
v 0.7 1.8 -0.6
v 0.7 2.1 -0.6
v 0.7 1.8 -0.7
v 0.7 1.8 -0.9
v 0.7 2.1 -0.9
v 0.6 1.1 0.7
v 0.6 1.8 0.7
v 0.6 1.2 0.6
v 0.6 1.3 0.6
v 0.6 1.4 0.6
v 0.6 1.8 0.6
v 0.6 1.3 0.5
v 0.6 1.4 0.5
v 0.6 1.1 0.4
v 0.6 1.2 0.4
v 0.6 1.4 0.4
v 0.6 1.1 -0.4
v 0.6 1.2 -0.4
v 0.6 1.4 -0.4
v 0.6 1.3 -0.5
v 0.6 1.4 -0.5
v 0.6 1.2 -0.6
v 0.6 1.3 -0.6
v 0.6 1.4 -0.6
v 0.6 1.8 -0.6
v 0.6 1.1 -0.7
v 0.6 1.8 -0.7
v 0.4 2.1 0.5
v 0.4 2.2 0.5
v 0.4 2.1 0.4
v 0.4 2.2 0.4
v 0.4 2.1 -0.4
v 0.4 2.2 -0.4
v 0.4 2.1 -0.5
v 0.4 2.2 -0.5
v -0.4 2.1 0.4
v -0.4 2.2 0.4
v -0.4 2.1 -0.4
v -0.4 2.2 -0.4
v -0.5 1.7 1.5
v -0.5 2.1 1.5
v -0.5 0.6 1
v -0.5 1.7 1
v -0.5 1.7 0.9
v -0.5 2 0.9
v -0.5 2.1 0.9
v -0.5 1.7 -0.9
v -0.5 2 -0.9
v -0.5 2.1 -0.9
v -0.5 0.6 -1
v -0.5 1.7 -1
v -0.5 1.7 -1.5
v -0.5 2.1 -1.5
v -0.6 2 0.9
v -0.6 2.1 0.9
v -0.6 2.2 0.9
v -0.6 2 -0.9
v -0.6 2.1 -0.9
v -0.6 2.2 -0.9
v 0.7 0.6 0.4
v 0.7 0.6 0.3
v 0.7 0.6 -0.3
v 0.7 0.6 -0.4
v 0.6 0.6 0.4
v 0.6 0.6 0.3
v 0.6 0.6 0.2
v 0.6 0.6 -0.2
v 0.6 0.6 -0.3
v 0.6 0.6 -0.4
v 0.5 0.6 1
v 0.5 0.6 0.4
v 0.5 0.6 -0.4
v 0.5 0.6 -1
v 0.4 0.6 0.3
v 0.4 0.6 0.2
v 0.4 0.6 -0.2
v 0.4 0.6 -0.3
v 0.3 0.6 0.3
v 0.3 0.6 -0.3
v -0.5 0.6 1
v -0.5 0.6 -1
v 0.7 1.1 0.7
v 0.7 1.1 0.4
v 0.7 1.1 -0.4
v 0.7 1.1 -0.7
v 0.6 1.1 0.7
v 0.6 1.1 0.4
v 0.6 1.1 -0.4
v 0.6 1.1 -0.7
v 0.6 1.4 0.6
v 0.6 1.4 0.5
v 0.6 1.4 0.4
v 0.6 1.4 -0.4
v 0.6 1.4 -0.5
v 0.6 1.4 -0.6
v 0.5 1.4 0.6
v 0.5 1.4 0.4
v 0.5 1.4 -0.4
v 0.5 1.4 -0.6
v 0.8 1.5 0.3
v 0.8 1.5 0.2
v 0.8 1.5 -0.2
v 0.8 1.5 -0.3
v 0.7 1.5 0.3
v 0.7 1.5 -0.3
v 0.6 1.5 0.3
v 0.6 1.5 0.2
v 0.6 1.5 -0.2
v 0.6 1.5 -0.3
v 0.6 1.6 0.1
v 0.6 1.6 -0.1
v 0.4 1.6 0.1
v 0.4 1.6 -0.1
v 0.5 1.7 1.5
v 0.5 1.7 1
v 0.5 1.7 -1
v 0.5 1.7 -1.5
v -0.5 1.7 1.5
v -0.5 1.7 1
v -0.5 1.7 -1
v -0.5 1.7 -1.5
v 0.8 1.8 0.9
v 0.8 1.8 0.3
v 0.8 1.8 -0.3
v 0.8 1.8 -0.9
v 0.7 1.8 0.9
v 0.7 1.8 0.7
v 0.7 1.8 0.6
v 0.7 1.8 0.3
v 0.7 1.8 -0.3
v 0.7 1.8 -0.6
v 0.7 1.8 -0.7
v 0.7 1.8 -0.9
v 0.5 1.9 0.2
v 0.5 1.9 0.1
v 0.5 1.9 -0.1
v 0.5 1.9 -0.2
v 0.4 1.9 0.2
v 0.4 1.9 0.1
v 0.4 1.9 -0.1
v 0.4 1.9 -0.2
v -0.5 2 0.9
v -0.5 2 -0.9
v -0.6 2 0.9
v -0.6 2 -0.9
v 0.7 2.1 0.9
v 0.7 2.1 0.6
v 0.7 2.1 -0.6
v 0.7 2.1 -0.9
v 0.5 2.1 0.9
v 0.5 2.1 0.6
v 0.5 2.1 -0.6
v 0.5 2.1 -0.9
v 0.7 1.8 0.7
v 0.7 1.8 0.6
v 0.7 1.8 -0.6
v 0.7 1.8 -0.7
v 0.6 1.8 0.7
v 0.6 1.8 0.6
v 0.6 1.8 0.1
v 0.6 1.8 -0.1
v 0.6 1.8 -0.6
v 0.6 1.8 -0.7
v 0.5 1.8 0.1
v 0.5 1.8 -0.1
v 0.5 2 0.2
v 0.5 2 -0.2
v 0.4 2 0.2
v 0.4 2 -0.2
v 0.5 2.1 1.5
v 0.5 2.1 0.9
v 0.5 2.1 -0.9
v 0.5 2.1 -1.5
v 0.4 2.1 0.5
v 0.4 2.1 0.4
v 0.4 2.1 -0.4
v 0.4 2.1 -0.5
v -0.4 2.1 0.5
v -0.4 2.1 0.4
v -0.4 2.1 -0.4
v -0.4 2.1 -0.5
v -0.5 2.1 1.5
v -0.5 2.1 0.9
v -0.5 2.1 0.5
v -0.5 2.1 -0.5
v -0.5 2.1 -0.9
v -0.5 2.1 -1.5
v 0.8 2.2 0.9
v 0.8 2.2 0.2
v 0.8 2.2 -0.2
v 0.8 2.2 -0.9
v 0.4 2.2 0.5
v 0.4 2.2 0.4
v 0.4 2.2 0.2
v 0.4 2.2 -0.2
v 0.4 2.2 -0.4
v 0.4 2.2 -0.5
v -0.4 2.2 0.4
v -0.4 2.2 -0.4
v -0.5 2.2 0.5
v -0.5 2.2 -0.5
v -0.6 2.2 0.9
v -0.6 2.2 -0.9

# faces
f 3/3/1 2/3/1 1/3/1
f 4/3/1 2/3/1 3/3/1
f 7/1/1 6/1/1 5/1/1
f 8/1/1 6/1/1 7/1/1
f 13/2/1 10/2/1 9/2/1
f 15/1/1 12/1/1 11/1/1
f 16/1/1 12/1/1 15/1/1
f 17/2/1 14/2/1 13/2/1
f 17/2/1 13/2/1 9/2/1
f 17/2/1 16/2/1 15/2/1
f 17/2/1 15/2/1 14/2/1
f 18/2/1 16/2/1 17/2/1
f 21/4/1 20/4/1 19/4/1
f 22/4/1 20/4/1 21/4/1
f 26/1/1 24/1/1 23/1/1
f 27/1/1 26/1/1 25/1/1
f 28/1/1 24/1/1 26/1/1
f 28/1/1 26/1/1 27/1/1
f 32/4/1 30/4/1 29/4/1
f 33/1/1 31/1/1 30/1/1
f 33/4/1 30/4/1 32/4/1
f 34/1/1 31/1/1 33/1/1
f 35/1/1 31/1/1 34/1/1
f 36/1/1 31/1/1 35/1/1
f 39/3/1 38/3/1 37/3/1
f 40/3/1 38/3/1 39/3/1
f 43/2/1 42/2/1 41/2/1
f 44/2/1 42/2/1 43/2/1
f 47/6/1 46/6/1 45/6/1
f 48/6/1 46/6/1 47/6/1
f 49/6/1 46/6/1 48/6/1
f 50/5/1 49/5/1 48/5/1
f 51/5/1 49/5/1 50/5/1
f 55/2/1 53/2/1 52/2/1
f 56/2/1 53/2/1 55/2/1
f 56/2/1 55/2/1 54/2/1
f 57/2/1 53/2/1 56/2/1
f 58/2/1 56/2/1 54/2/1
f 60/2/1 58/2/1 54/2/1
f 60/2/1 59/2/1 58/2/1
f 61/2/1 59/2/1 60/2/1
f 64/4/1 63/4/1 62/4/1
f 65/4/1 63/4/1 64/4/1
f 66/1/1 65/1/1 64/1/1
f 67/1/1 65/1/1 66/1/1
f 71/2/1 69/2/1 68/2/1
f 71/2/1 70/2/1 69/2/1
f 72/2/1 70/2/1 71/2/1
f 73/2/2 74/2/2 76/2/2
f 74/2/2 75/2/2 76/2/2
f 76/2/2 75/2/2 77/2/2
f 78/4/2 79/4/2 80/4/2
f 80/4/2 79/4/2 81/4/2
f 80/1/2 81/1/2 82/1/2
f 82/1/2 81/1/2 83/1/2
f 84/2/2 85/2/2 87/2/2
f 87/2/2 85/2/2 88/2/2
f 86/2/2 87/2/2 88/2/2
f 88/2/2 85/2/2 89/2/2
f 86/2/2 88/2/2 90/2/2
f 86/2/2 90/2/2 92/2/2
f 90/2/2 91/2/2 92/2/2
f 92/2/2 91/2/2 93/2/2
f 94/6/2 95/6/2 96/6/2
f 96/6/2 95/6/2 97/6/2
f 97/6/2 95/6/2 98/6/2
f 97/5/2 98/5/2 99/5/2
f 99/5/2 98/5/2 100/5/2
f 101/2/2 102/2/2 103/2/2
f 103/2/2 102/2/2 104/2/2
f 105/4/2 106/4/2 108/4/2
f 106/1/2 107/1/2 109/1/2
f 108/4/2 106/4/2 109/4/2
f 109/1/2 107/1/2 110/1/2
f 110/1/2 107/1/2 111/1/2
f 111/1/2 107/1/2 112/1/2
f 113/3/2 114/3/2 115/3/2
f 115/3/2 114/3/2 116/3/2
f 117/1/2 118/1/2 120/1/2
f 119/1/2 120/1/2 121/1/2
f 120/1/2 118/1/2 122/1/2
f 121/1/2 120/1/2 122/1/2
f 123/4/2 124/4/2 125/4/2
f 125/4/2 124/4/2 126/4/2
f 127/2/2 128/2/2 131/2/2
f 129/1/2 130/1/2 133/1/2
f 133/1/2 130/1/2 134/1/2
f 131/2/2 132/2/2 135/2/2
f 127/2/2 131/2/2 135/2/2
f 133/2/2 134/2/2 135/2/2
f 132/2/2 133/2/2 135/2/2
f 135/2/2 134/2/2 136/2/2
f 137/1/2 138/1/2 139/1/2
f 139/1/2 138/1/2 140/1/2
f 141/3/2 142/3/2 143/3/2
f 143/3/2 142/3/2 144/3/2
f 148/2/3 146/2/3 145/2/3
f 149/2/3 148/2/3 147/2/3
f 150/2/3 146/2/3 148/2/3
f 150/2/3 148/2/3 149/2/3
f 153/2/3 152/2/3 151/2/3
f 154/2/3 152/2/3 153/2/3
f 155/2/3 152/2/3 154/2/3
f 156/2/3 152/2/3 155/2/3
f 159/4/3 158/4/3 157/4/3
f 160/4/3 158/4/3 159/4/3
f 161/4/3 158/4/3 160/4/3
f 162/4/3 158/4/3 161/4/3
f 163/4/3 158/4/3 162/4/3
f 164/4/3 158/4/3 163/4/3
f 165/1/3 160/1/3 159/1/3
f 165/4/3 161/4/3 160/4/3
f 166/1/3 162/1/3 161/1/3
f 166/4/3 161/4/3 165/4/3
f 167/4/3 163/4/3 162/4/3
f 167/1/3 162/1/3 166/1/3
f 168/1/3 164/1/3 163/1/3
f 168/4/3 163/4/3 167/4/3
f 170/4/3 159/4/3 157/4/3
f 171/4/3 170/4/3 169/4/3
f 172/1/3 167/1/3 166/1/3
f 172/4/3 170/4/3 171/4/3
f 172/1/3 165/1/3 159/1/3
f 172/4/3 159/4/3 170/4/3
f 172/1/3 166/1/3 165/1/3
f 172/1/3 168/1/3 167/1/3
f 173/1/3 168/1/3 172/1/3
f 174/1/3 164/1/3 168/1/3
f 174/1/3 168/1/3 173/1/3
f 179/4/3 176/4/3 175/4/3
f 180/4/3 176/4/3 179/4/3
f 181/1/3 178/1/3 177/1/3
f 181/1/3 177/1/3 176/1/3
f 182/1/3 178/1/3 181/1/3
f 183/1/3 178/1/3 182/1/3
f 184/1/3 178/1/3 183/1/3
f 185/4/3 176/4/3 180/4/3
f 185/1/3 181/1/3 176/1/3
f 186/4/3 182/4/3 181/4/3
f 186/1/3 181/1/3 185/1/3
f 187/1/3 183/1/3 182/1/3
f 187/4/3 182/4/3 186/4/3
f 188/4/3 184/4/3 183/4/3
f 188/1/3 183/1/3 187/1/3
f 189/1/3 178/1/3 184/1/3
f 189/4/3 184/4/3 188/4/3
f 190/1/3 178/1/3 189/1/3
f 191/4/3 188/4/3 187/4/3
f 191/4/3 187/4/3 186/4/3
f 191/4/3 190/4/3 189/4/3
f 191/4/3 189/4/3 188/4/3
f 191/4/3 186/4/3 185/4/3
f 191/4/3 185/4/3 180/4/3
f 192/4/3 190/4/3 191/4/3
f 196/2/3 194/2/3 193/2/3
f 196/2/3 195/2/3 194/2/3
f 197/2/3 195/2/3 196/2/3
f 200/6/3 199/6/3 198/6/3
f 201/6/3 199/6/3 200/6/3
f 204/2/3 203/2/3 202/2/3
f 205/2/3 203/2/3 204/2/3
f 206/2/3 203/2/3 205/2/3
f 210/3/3 208/3/3 207/3/3
f 211/3/3 208/3/3 210/3/3
f 211/1/3 210/1/3 209/1/3
f 212/3/3 208/3/3 211/3/3
f 213/1/3 211/1/3 209/1/3
f 213/1/3 212/1/3 211/1/3
f 214/1/3 212/1/3 213/1/3
f 215/1/3 213/1/3 209/1/3
f 216/1/3 213/1/3 215/1/3
f 220/6/3 218/6/3 217/6/3
f 221/5/3 220/5/3 219/5/3
f 222/6/3 218/6/3 220/6/3
f 222/5/3 220/5/3 221/5/3
f 223/6/3 218/6/3 222/6/3
f 224/6/3 218/6/3 223/6/3
f 227/1/3 226/1/3 225/1/3
f 229/1/3 228/1/3 227/1/3
f 230/1/3 228/1/3 229/1/3
f 231/1/3 227/1/3 225/1/3
f 231/1/3 229/1/3 227/1/3
f 232/3/3 230/3/3 229/3/3
f 232/1/3 229/1/3 231/1/3
f 233/3/3 230/3/3 232/3/3
f 234/3/3 230/3/3 233/3/3
f 239/3/3 236/3/3 235/3/3
f 240/3/3 236/3/3 239/3/3
f 241/3/3 236/3/3 240/3/3
f 242/3/3 239/3/3 235/3/3
f 245/3/3 242/3/3 235/3/3
f 245/3/3 244/3/3 243/3/3
f 245/3/3 243/3/3 242/3/3
f 246/3/3 244/3/3 245/3/3
f 247/3/3 238/3/3 237/3/3
f 248/3/3 238/3/3 247/3/3
f 251/2/3 250/2/3 249/2/3
f 252/2/3 250/2/3 251/2/3
f 253/2/4 254/2/4 255/2/4
f 255/2/4 254/2/4 256/2/4
f 256/2/4 254/2/4 257/2/4
f 258/2/4 259/2/4 260/2/4
f 260/2/4 259/2/4 261/2/4
f 261/2/4 259/2/4 262/2/4
f 263/4/4 264/4/4 265/4/4
f 265/4/4 264/4/4 266/4/4
f 266/4/4 264/4/4 267/4/4
f 267/4/4 264/4/4 268/4/4
f 265/1/4 266/1/4 269/1/4
f 266/4/4 267/4/4 269/4/4
f 269/4/4 267/4/4 270/4/4
f 263/4/4 265/4/4 271/4/4
f 265/1/4 269/1/4 272/1/4
f 271/4/4 265/4/4 272/4/4
f 269/1/4 270/1/4 272/1/4
f 272/1/4 270/1/4 273/1/4
f 275/1/4 276/1/4 277/1/4
f 277/1/4 276/1/4 278/1/4
f 274/4/4 275/4/4 279/4/4
f 275/1/4 277/1/4 279/1/4
f 277/4/4 278/4/4 280/4/4
f 279/1/4 277/1/4 280/1/4
f 280/4/4 278/4/4 281/4/4
f 280/4/4 281/4/4 283/4/4
f 281/4/4 282/4/4 283/4/4
f 274/4/4 279/4/4 283/4/4
f 279/4/4 280/4/4 283/4/4
f 283/4/4 282/4/4 284/4/4
f 285/2/4 286/2/4 287/2/4
f 287/2/4 286/2/4 288/2/4
f 289/2/4 290/2/4 291/2/4
f 291/2/4 290/2/4 292/2/4
f 293/3/4 294/3/4 295/3/4
f 295/3/4 294/3/4 296/3/4
f 297/3/4 298/3/4 300/3/4
f 300/3/4 298/3/4 301/3/4
f 299/1/4 300/1/4 301/1/4
f 301/3/4 298/3/4 302/3/4
f 302/3/4 298/3/4 303/3/4
f 299/1/4 301/1/4 304/1/4
f 301/1/4 302/1/4 304/1/4
f 304/1/4 302/1/4 305/1/4
f 299/1/4 304/1/4 307/1/4
f 305/3/4 306/3/4 308/3/4
f 307/1/4 304/1/4 308/1/4
f 304/3/4 305/3/4 308/3/4
f 308/3/4 306/3/4 309/3/4
f 309/3/4 306/3/4 310/3/4
f 311/1/4 312/1/4 314/1/4
f 312/2/4 313/2/4 315/2/4
f 314/1/4 312/1/4 315/1/4
f 315/2/4 313/2/4 316/2/4
f 321/4/5 318/4/5 317/4/5
f 322/4/5 318/4/5 321/4/5
f 325/4/5 320/4/5 319/4/5
f 326/4/5 320/4/5 325/4/5
f 328/1/5 322/1/5 321/1/5
f 329/1/5 326/1/5 325/1/5
f 331/2/5 323/2/5 322/2/5
f 331/1/5 328/1/5 327/1/5
f 331/1/5 322/1/5 328/1/5
f 332/2/5 323/2/5 331/2/5
f 333/2/5 325/2/5 324/2/5
f 334/1/5 330/1/5 329/1/5
f 334/1/5 329/1/5 325/1/5
f 334/2/5 325/2/5 333/2/5
f 335/3/5 333/3/5 332/3/5
f 335/3/5 332/3/5 331/3/5
f 335/3/5 334/3/5 333/3/5
f 335/1/5 331/1/5 327/1/5
f 336/1/5 330/1/5 334/1/5
f 336/3/5 334/3/5 335/3/5
f 337/1/5 335/1/5 327/1/5
f 337/1/5 336/1/5 335/1/5
f 338/1/5 330/1/5 336/1/5
f 338/1/5 336/1/5 337/1/5
f 343/4/5 340/4/5 339/4/5
f 344/4/5 340/4/5 343/4/5
f 345/4/5 342/4/5 341/4/5
f 346/4/5 342/4/5 345/4/5
f 353/1/5 348/1/5 347/1/5
f 353/1/5 349/1/5 348/1/5
f 354/1/5 349/1/5 353/1/5
f 355/1/5 352/1/5 351/1/5
f 355/1/5 351/1/5 350/1/5
f 356/1/5 352/1/5 355/1/5
f 361/2/5 358/2/5 357/2/5
f 362/2/5 360/2/5 359/2/5
f 363/2/5 358/2/5 361/2/5
f 364/2/5 358/2/5 363/2/5
f 365/2/5 362/2/5 359/2/5
f 366/2/5 362/2/5 365/2/5
f 369/6/5 368/6/5 367/6/5
f 370/6/5 368/6/5 369/6/5
f 375/3/5 372/3/5 371/3/5
f 376/3/5 372/3/5 375/3/5
f 377/3/5 374/3/5 373/3/5
f 378/3/5 374/3/5 377/3/5
f 383/2/5 380/2/5 379/2/5
f 384/2/5 380/2/5 383/2/5
f 385/2/5 380/2/5 384/2/5
f 386/2/5 380/2/5 385/2/5
f 387/2/5 382/2/5 381/2/5
f 388/2/5 382/2/5 387/2/5
f 389/2/5 382/2/5 388/2/5
f 390/2/5 382/2/5 389/2/5
f 395/6/5 392/6/5 391/6/5
f 396/6/5 392/6/5 395/6/5
f 397/6/5 394/6/5 393/6/5
f 398/6/5 394/6/5 397/6/5
f 401/1/5 400/1/5 399/1/5
f 402/1/5 400/1/5 401/1/5
f 407/2/5 404/2/5 403/2/5
f 408/2/5 404/2/5 407/2/5
f 409/2/5 406/2/5 405/2/5
f 410/2/5 406/2/5 409/2/5
f 411/4/6 412/4/6 415/4/6
f 415/4/6 412/4/6 416/4/6
f 413/4/6 414/4/6 419/4/6
f 419/4/6 414/4/6 420/4/6
f 417/6/6 418/6/6 421/6/6
f 421/6/6 418/6/6 422/6/6
f 423/6/6 424/6/6 425/6/6
f 425/6/6 424/6/6 426/6/6
f 431/3/6 432/3/6 435/3/6
f 435/3/6 432/3/6 436/3/6
f 433/3/6 434/3/6 437/3/6
f 437/3/6 434/3/6 438/3/6
f 427/3/6 428/3/6 439/3/6
f 439/3/6 428/3/6 440/3/6
f 435/1/6 436/1/6 441/1/6
f 436/1/6 437/1/6 441/1/6
f 437/1/6 438/1/6 441/1/6
f 441/1/6 438/1/6 442/1/6
f 429/3/6 430/3/6 443/3/6
f 443/3/6 430/3/6 444/3/6
f 445/2/6 446/2/6 449/2/6
f 449/2/6 446/2/6 450/2/6
f 450/2/6 446/2/6 451/2/6
f 447/2/6 448/2/6 452/2/6
f 452/2/6 448/2/6 453/2/6
f 453/2/6 448/2/6 454/2/6
f 450/3/6 451/3/6 455/3/6
f 452/3/6 453/3/6 455/3/6
f 451/3/6 452/3/6 455/3/6
f 455/3/6 453/3/6 456/3/6
f 445/2/6 449/2/6 457/2/6
f 454/2/6 448/2/6 458/2/6
f 445/2/6 457/2/6 459/2/6
f 457/2/6 458/2/6 459/2/6
f 458/2/6 448/2/6 460/2/6
f 459/2/6 458/2/6 460/2/6
