# MagicaVoxel @ Ephtracy

# group
o 

# material
mtllib model-0.mtl
usemtl palette

# normals
vn 0 0 1
vn 0 0 -1
vn 1 0 0
vn -1 0 0
vn 0 -1 0
vn 0 1 0

# texcoords
vt 0.0292969 0.5
vt 0.115234 0.5
vt 0.169922 0.5
vt 0.181641 0.5
vt 0.513672 0.5
vt 0.517578 0.5
vt 0.521484 0.5

# verts
v 0.5 0 1
v -0.5 0 1
v 0.5 0.1 1
v -0.5 0.1 1
v 0.5 0.7 1
v -0.5 0.7 1
v 0.7 0 0.4
v 0.5 0 0.4
v 0.6 0.1 0.4
v 0.5 0.1 0.4
v 0.7 0.7 0.4
v 0.6 0.7 0.4
v 0.5 0.7 0.4
v 0.5 0 0.2
v 0.4 0 0.2
v 0.5 0.1 0.2
v 0.4 0.1 0.2
v 0.5 0.1 -0.1
v 0.4 0.1 -0.1
v 0.5 0.2 -0.1
v 0.4 0.2 -0.1
v 0.5 0.3 -0.1
v 0.4 0.3 -0.1
v 0.6 0.1 -0.2
v 0.5 0.1 -0.2
v 0.5 0.2 -0.2
v 0.5 0.4 -0.2
v 0.4 0.4 -0.2
v 0.6 0.7 -0.2
v 0.4 0.7 -0.2
v 0.7 0 -0.3
v 0.4 0 -0.3
v 0.6 0.1 -0.3
v 0.4 0.1 -0.3
v 0.7 0.7 -0.3
v 0.6 0.7 -0.3
v 0.4 0 -0.9
v -0.4 0 -0.9
v 0.4 0.1 -0.9
v -0.4 0.1 -0.9
v 0.4 0 0.9
v -0.4 0 0.9
v 0.4 0.1 0.9
v -0.4 0.1 0.9
v 0.7 0 0.3
v 0.4 0 0.3
v 0.6 0.1 0.3
v 0.4 0.1 0.3
v 0.7 0.7 0.3
v 0.6 0.7 0.3
v 0.6 0.1 0.2
v 0.5 0.1 0.2
v 0.5 0.4 0.2
v 0.4 0.4 0.2
v 0.6 0.7 0.2
v 0.4 0.7 0.2
v 0.5 0.1 0.1
v 0.4 0.1 0.1
v 0.5 0.3 0.1
v 0.4 0.3 0.1
v 0.5 0 -0.2
v 0.4 0 -0.2
v 0.5 0.1 -0.2
v 0.4 0.1 -0.2
v 0.7 0 -0.4
v 0.5 0 -0.4
v 0.6 0.1 -0.4
v 0.5 0.1 -0.4
v 0.7 0.7 -0.4
v 0.6 0.7 -0.4
v 0.5 0.7 -0.4
v 0.5 0 -1
v -0.5 0 -1
v 0.5 0.1 -1
v -0.5 0.1 -1
v 0.5 0.7 -1
v -0.5 0.7 -1
v 0.7 0 0.4
v 0.7 0.7 0.4
v 0.7 0 0.3
v 0.7 0.7 0.3
v 0.7 0 -0.3
v 0.7 0.7 -0.3
v 0.7 0 -0.4
v 0.7 0.7 -0.4
v 0.6 0.1 0.3
v 0.6 0.7 0.3
v 0.6 0.1 0.2
v 0.6 0.7 0.2
v 0.6 0.1 -0.2
v 0.6 0.7 -0.2
v 0.6 0.1 -0.3
v 0.6 0.7 -0.3
v 0.5 0 1
v 0.5 0.1 1
v 0.5 0.7 1
v 0.5 0 0.4
v 0.5 0.1 0.4
v 0.5 0.7 0.4
v 0.5 0 0.2
v 0.5 0.1 0.2
v 0.5 0.4 0.2
v 0.5 0.1 0.1
v 0.5 0.3 0.1
v 0.5 0 0
v 0.5 0.1 0
v 0.5 0.3 0
v 0.5 0.4 0
v 0.5 0.1 -0.1
v 0.5 0.2 -0.1
v 0.5 0.3 -0.1
v 0.5 0 -0.2
v 0.5 0.1 -0.2
v 0.5 0.2 -0.2
v 0.5 0.4 -0.2
v 0.5 0 -0.4
v 0.5 0.1 -0.4
v 0.5 0.7 -0.4
v 0.5 0 -1
v 0.5 0.1 -1
v 0.5 0.7 -1
v 0.4 0.4 0.2
v 0.4 0.7 0.2
v 0.4 0.1 0.1
v 0.4 0.3 0.1
v 0.4 0.1 0
v 0.4 0.3 0
v 0.4 0.4 0
v 0.4 0.1 -0.1
v 0.4 0.2 -0.1
v 0.4 0.3 -0.1
v 0.4 0.4 -0.2
v 0.4 0.7 -0.2
v -0.4 0 0.9
v -0.4 0.1 0.9
v -0.4 0 -0.9
v -0.4 0.1 -0.9
v 0.4 0 0.9
v 0.4 0.1 0.9
v 0.4 0 0.3
v 0.4 0.1 0.3
v 0.4 0 0.2
v 0.4 0.1 0.2
v 0.4 0 0
v 0.4 0.1 0
v 0.4 0 -0.2
v 0.4 0.1 -0.2
v 0.4 0 -0.3
v 0.4 0.1 -0.3
v 0.4 0 -0.9
v 0.4 0.1 -0.9
v -0.5 0 1
v -0.5 0.1 1
v -0.5 0.7 1
v -0.5 0 -1
v -0.5 0.1 -1
v -0.5 0.7 -1
v 0.7 0 0.4
v 0.7 0 0.3
v 0.7 0 -0.3
v 0.7 0 -0.4
v 0.5 0 1
v 0.5 0 0.4
v 0.5 0 0.2
v 0.5 0 0
v 0.5 0 -0.2
v 0.5 0 -0.4
v 0.5 0 -1
v 0.4 0 0.9
v 0.4 0 0.3
v 0.4 0 0.2
v 0.4 0 0
v 0.4 0 -0.2
v 0.4 0 -0.3
v 0.4 0 -0.9
v -0.4 0 0.9
v -0.4 0 -0.9
v -0.5 0 1
v -0.5 0 -1
v 0.6 0.1 0.3
v 0.6 0.1 0.2
v 0.6 0.1 -0.2
v 0.6 0.1 -0.3
v 0.5 0.1 0.2
v 0.5 0.1 -0.2
v 0.4 0.1 0.9
v 0.4 0.1 0.3
v 0.4 0.1 0.2
v 0.4 0.1 0
v 0.4 0.1 -0.2
v 0.4 0.1 -0.3
v 0.4 0.1 -0.9
v -0.4 0.1 0.9
v -0.4 0.1 -0.9
v 0.5 0.3 0.1
v 0.5 0.3 0
v 0.5 0.3 -0.1
v 0.4 0.3 0.1
v 0.4 0.3 0
v 0.4 0.3 -0.1
v 0.5 0.1 0.1
v 0.5 0.1 0
v 0.5 0.1 -0.1
v 0.4 0.1 0.1
v 0.4 0.1 0
v 0.4 0.1 -0.1
v 0.5 0.4 0.2
v 0.5 0.4 0
v 0.5 0.4 -0.2
v 0.4 0.4 0.2
v 0.4 0.4 0
v 0.4 0.4 -0.2
v 0.7 0.7 0.4
v 0.7 0.7 0.3
v 0.7 0.7 -0.3
v 0.7 0.7 -0.4
v 0.6 0.7 0.4
v 0.6 0.7 0.3
v 0.6 0.7 0.2
v 0.6 0.7 -0.2
v 0.6 0.7 -0.3
v 0.6 0.7 -0.4
v 0.5 0.7 1
v 0.5 0.7 0.4
v 0.5 0.7 -0.4
v 0.5 0.7 -1
v 0.4 0.7 0.3
v 0.4 0.7 0.2
v 0.4 0.7 -0.2
v 0.4 0.7 -0.3
v 0.3 0.7 0.3
v 0.3 0.7 -0.3
v -0.5 0.7 1
v -0.5 0.7 -1

# faces
f 3/4/1 2/4/1 1/4/1
f 4/4/1 2/4/1 3/4/1
f 5/1/1 4/1/1 3/1/1
f 6/1/1 4/1/1 5/1/1
f 9/4/1 8/4/1 7/4/1
f 10/4/1 8/4/1 9/4/1
f 11/4/1 9/4/1 7/4/1
f 12/1/1 10/1/1 9/1/1
f 12/4/1 9/4/1 11/4/1
f 13/1/1 10/1/1 12/1/1
f 16/5/1 15/5/1 14/5/1
f 17/5/1 15/5/1 16/5/1
f 20/6/1 19/6/1 18/6/1
f 21/6/1 19/6/1 20/6/1
f 22/7/1 21/7/1 20/7/1
f 23/7/1 21/7/1 22/7/1
f 26/2/1 25/2/1 24/2/1
f 27/2/1 26/2/1 24/2/1
f 29/2/1 27/2/1 24/2/1
f 29/2/1 28/2/1 27/2/1
f 30/2/1 28/2/1 29/2/1
f 33/4/1 32/4/1 31/4/1
f 34/4/1 32/4/1 33/4/1
f 35/4/1 33/4/1 31/4/1
f 36/4/1 33/4/1 35/4/1
f 39/4/1 38/4/1 37/4/1
f 40/4/1 38/4/1 39/4/1
f 41/4/2 42/4/2 43/4/2
f 43/4/2 42/4/2 44/4/2
f 45/4/2 46/4/2 47/4/2
f 47/4/2 46/4/2 48/4/2
f 45/4/2 47/4/2 49/4/2
f 49/4/2 47/4/2 50/4/2
f 51/2/2 52/2/2 53/2/2
f 51/2/2 53/2/2 55/2/2
f 53/2/2 54/2/2 55/2/2
f 55/2/2 54/2/2 56/2/2
f 57/6/2 58/6/2 59/6/2
f 59/6/2 58/6/2 60/6/2
f 61/6/2 62/6/2 63/6/2
f 63/6/2 62/6/2 64/6/2
f 65/4/2 66/4/2 67/4/2
f 67/4/2 66/4/2 68/4/2
f 65/4/2 67/4/2 69/4/2
f 67/1/2 68/1/2 70/1/2
f 69/4/2 67/4/2 70/4/2
f 70/1/2 68/1/2 71/1/2
f 72/4/2 73/4/2 74/4/2
f 74/4/2 73/4/2 75/4/2
f 74/1/2 75/1/2 76/1/2
f 76/1/2 75/1/2 77/1/2
f 80/4/3 79/4/3 78/4/3
f 81/4/3 79/4/3 80/4/3
f 84/4/3 83/4/3 82/4/3
f 85/4/3 83/4/3 84/4/3
f 88/2/3 87/2/3 86/2/3
f 89/2/3 87/2/3 88/2/3
f 92/2/3 91/2/3 90/2/3
f 93/2/3 91/2/3 92/2/3
f 97/4/3 95/4/3 94/4/3
f 98/1/3 96/1/3 95/1/3
f 98/4/3 95/4/3 97/4/3
f 99/1/3 96/1/3 98/1/3
f 103/5/3 101/5/3 100/5/3
f 103/6/3 102/6/3 101/6/3
f 104/6/3 102/6/3 103/6/3
f 105/5/3 103/5/3 100/5/3
f 106/5/3 103/5/3 105/5/3
f 107/6/3 102/6/3 104/6/3
f 108/6/3 102/6/3 107/6/3
f 109/6/3 106/6/3 105/6/3
f 111/7/3 108/7/3 107/7/3
f 112/6/3 110/6/3 109/6/3
f 112/6/3 109/6/3 105/6/3
f 113/6/3 110/6/3 112/6/3
f 114/7/3 111/7/3 110/7/3
f 114/6/3 110/6/3 113/6/3
f 115/7/3 108/7/3 111/7/3
f 115/7/3 111/7/3 114/7/3
f 119/4/3 117/4/3 116/4/3
f 120/1/3 118/1/3 117/1/3
f 120/4/3 117/4/3 119/4/3
f 121/1/3 118/1/3 120/1/3
f 126/2/3 125/2/3 124/2/3
f 127/2/3 125/2/3 126/2/3
f 128/3/3 123/3/3 122/3/3
f 129/2/3 127/2/3 126/2/3
f 130/2/3 127/2/3 129/2/3
f 131/2/3 127/2/3 130/2/3
f 132/3/3 123/3/3 128/3/3
f 133/3/3 123/3/3 132/3/3
f 136/4/3 135/4/3 134/4/3
f 137/4/3 135/4/3 136/4/3
f 138/4/4 139/4/4 140/4/4
f 140/4/4 139/4/4 141/4/4
f 142/5/4 143/5/4 144/5/4
f 144/5/4 143/5/4 145/5/4
f 144/6/4 145/6/4 146/6/4
f 146/6/4 145/6/4 147/6/4
f 148/4/4 149/4/4 150/4/4
f 150/4/4 149/4/4 151/4/4
f 152/4/4 153/4/4 155/4/4
f 153/1/4 154/1/4 156/1/4
f 155/4/4 153/4/4 156/4/4
f 156/1/4 154/1/4 157/1/4
f 163/4/5 159/4/5 158/4/5
f 167/4/5 161/4/5 160/4/5
f 169/4/5 163/4/5 162/4/5
f 170/4/5 159/4/5 163/4/5
f 170/4/5 163/4/5 169/4/5
f 171/5/5 165/5/5 164/5/5
f 172/6/5 166/6/5 165/6/5
f 172/5/5 165/5/5 171/5/5
f 173/6/5 166/6/5 172/6/5
f 174/4/5 168/4/5 167/4/5
f 174/4/5 167/4/5 160/4/5
f 175/4/5 168/4/5 174/4/5
f 176/4/5 169/4/5 162/4/5
f 177/4/5 168/4/5 175/4/5
f 178/4/5 176/4/5 162/4/5
f 178/4/5 177/4/5 176/4/5
f 179/4/5 168/4/5 177/4/5
f 179/4/5 177/4/5 178/4/5
f 184/2/5 181/2/5 180/2/5
f 185/2/5 183/2/5 182/2/5
f 187/2/5 184/2/5 180/2/5
f 188/2/5 184/2/5 187/2/5
f 190/2/5 183/2/5 185/2/5
f 191/2/5 183/2/5 190/2/5
f 193/2/5 189/2/5 188/2/5
f 193/2/5 192/2/5 191/2/5
f 193/2/5 191/2/5 190/2/5
f 193/2/5 190/2/5 189/2/5
f 193/2/5 187/2/5 186/2/5
f 193/2/5 188/2/5 187/2/5
f 194/2/5 192/2/5 193/2/5
f 198/6/5 196/6/5 195/6/5
f 199/7/5 197/7/5 196/7/5
f 199/6/5 196/6/5 198/6/5
f 200/7/5 197/7/5 199/7/5
f 201/5/6 202/5/6 204/5/6
f 202/6/6 203/6/6 205/6/6
f 204/5/6 202/5/6 205/5/6
f 205/6/6 203/6/6 206/6/6
f 207/6/6 208/6/6 210/6/6
f 208/7/6 209/7/6 211/7/6
f 210/6/6 208/6/6 211/6/6
f 211/7/6 209/7/6 212/7/6
f 213/4/6 214/4/6 217/4/6
f 217/4/6 214/4/6 218/4/6
f 215/4/6 216/4/6 221/4/6
f 221/4/6 216/4/6 222/4/6
f 217/1/6 218/1/6 224/1/6
f 221/1/6 222/1/6 225/1/6
f 218/2/6 219/2/6 227/2/6
f 223/1/6 224/1/6 227/1/6
f 224/1/6 218/1/6 227/1/6
f 227/2/6 219/2/6 228/2/6
f 220/2/6 221/2/6 229/2/6
f 225/1/6 226/1/6 230/1/6
f 221/1/6 225/1/6 230/1/6
f 229/2/6 221/2/6 230/2/6
f 228/3/6 229/3/6 231/3/6
f 227/3/6 228/3/6 231/3/6
f 229/3/6 230/3/6 231/3/6
f 223/1/6 227/1/6 231/1/6
f 230/1/6 226/1/6 232/1/6
f 231/3/6 230/3/6 232/3/6
f 223/1/6 231/1/6 233/1/6
f 231/1/6 232/1/6 233/1/6
f 232/1/6 226/1/6 234/1/6
f 233/1/6 232/1/6 234/1/6
