# MagicaVoxel @ Ephtracy

# group
o 

# material
mtllib model-14.mtl
usemtl palette

# normals
vn 0 0 1
vn 0 0 -1
vn 1 0 0
vn -1 0 0
vn 0 -1 0
vn 0 1 0

# texcoords
vt 0.0292969 0.5
vt 0.263672 0.5
vt 0.267578 0.5
vt 0.271484 0.5

# verts
v 0.2 4.4 1.5
v 0 4.4 1.5
v 0.2 5.1 1.5
v 0 5.1 1.5
v 0.9 3.8 1.1
v -0.7 3.8 1.1
v 0.2 4.4 1.1
v 0 4.4 1.1
v 0.2 5.1 1.1
v 0 5.1 1.1
v 0.9 5.9 1.1
v -0.7 5.9 1.1
v 0.9 3.7 1
v -0.7 3.7 1
v 0.9 3.8 1
v -0.7 3.8 1
v 1 5.4 1
v 0.9 5.4 1
v 1 5.6 1
v 0.9 5.6 1
v 1 5.3 0.6
v 0.9 5.3 0.6
v 1 5.4 0.6
v 0.9 5.4 0.6
v 1 5.4 -0.2
v 0.9 5.4 -0.2
v 1 5.6 -0.2
v 0.9 5.6 -0.2
v 1 5.5 0.4
v 0.9 5.5 0.4
v 1 5.6 0.4
v 0.9 5.6 0.4
v 1 5.3 0.2
v 0.9 5.3 0.2
v 1 5.5 0.2
v 0.9 5.5 0.2
v 0.9 3.7 -1
v -0.7 3.7 -1
v 0.9 3.8 -1
v -0.7 3.8 -1
v 1 5.4 -1
v 0.9 5.4 -1
v 1 5.6 -1
v 0.9 5.6 -1
v 0.9 3.8 -1.1
v -0.7 3.8 -1.1
v 0.2 4.4 -1.1
v 0 4.4 -1.1
v 0.2 5.1 -1.1
v 0 5.1 -1.1
v 0.9 5.9 -1.1
v -0.7 5.9 -1.1
v 0.2 4.4 -1.5
v 0 4.4 -1.5
v 0.2 5.1 -1.5
v 0 5.1 -1.5
v 1 5.4 1
v 1 5.6 1
v 1 5.3 0.6
v 1 5.4 0.6
v 1 5.5 0.4
v 1 5.6 0.4
v 1 5.3 0.2
v 1 5.5 0.2
v 1 5.4 -0.2
v 1 5.6 -0.2
v 1 5.4 -1
v 1 5.6 -1
v 0.9 3.8 1.1
v 0.9 5.9 1.1
v 0.9 3.7 1
v 0.9 3.8 1
v 0.9 5.4 1
v 0.9 5.6 1
v 0.9 4.6 0.7
v 0.9 5.2 0.7
v 0.9 4.7 0.6
v 0.9 5.1 0.6
v 0.9 5.3 0.6
v 0.9 5.4 0.6
v 0.9 4.7 0.5
v 0.9 5.1 0.5
v 0.9 4.6 0.4
v 0.9 5.2 0.4
v 0.9 5.5 0.4
v 0.9 5.6 0.4
v 0.9 4.1 0.3
v 0.9 4.2 0.3
v 0.9 5.3 0.2
v 0.9 5.5 0.2
v 0.9 5.4 -0.2
v 0.9 5.6 -0.2
v 0.9 4.1 -0.3
v 0.9 4.2 -0.3
v 0.9 4.6 -0.4
v 0.9 5.2 -0.4
v 0.9 4.7 -0.5
v 0.9 5.1 -0.5
v 0.9 4.7 -0.6
v 0.9 5.1 -0.6
v 0.9 4.6 -0.7
v 0.9 5.2 -0.7
v 0.9 3.7 -1
v 0.9 3.8 -1
v 0.9 5.4 -1
v 0.9 5.6 -1
v 0.9 3.8 -1.1
v 0.9 5.9 -1.1
v 0.2 4.4 1.5
v 0.2 5.1 1.5
v 0.2 4.4 1.1
v 0.2 5.1 1.1
v 0.2 4.4 -1.1
v 0.2 5.1 -1.1
v 0.2 4.4 -1.5
v 0.2 5.1 -1.5
v 0 4.4 1.5
v 0 5.1 1.5
v 0 4.4 1.1
v 0 5.1 1.1
v 0 4.4 -1.1
v 0 5.1 -1.1
v 0 4.4 -1.5
v 0 5.1 -1.5
v -0.7 3.8 1.1
v -0.7 5.9 1.1
v -0.7 3.7 1
v -0.7 3.8 1
v -0.7 3.7 -1
v -0.7 3.8 -1
v -0.7 3.8 -1.1
v -0.7 5.9 -1.1
v 0.9 3.7 1
v 0.9 3.7 -1
v -0.7 3.7 1
v -0.7 3.7 -1
v 0.9 3.8 1.1
v 0.9 3.8 1
v 0.9 3.8 -1
v 0.9 3.8 -1.1
v -0.7 3.8 1.1
v -0.7 3.8 1
v -0.7 3.8 -1
v -0.7 3.8 -1.1
v 0.2 4.4 1.5
v 0.2 4.4 1.1
v 0.2 4.4 -1.1
v 0.2 4.4 -1.5
v 0 4.4 1.5
v 0 4.4 1.1
v 0 4.4 -1.1
v 0 4.4 -1.5
v 1 5.3 0.6
v 1 5.3 0.2
v 0.9 5.3 0.6
v 0.9 5.3 0.2
v 1 5.4 1
v 1 5.4 0.6
v 1 5.4 -0.2
v 1 5.4 -1
v 0.9 5.4 1
v 0.9 5.4 0.6
v 0.9 5.4 -0.2
v 0.9 5.4 -1
v 0.2 5.1 1.5
v 0.2 5.1 1.1
v 0.2 5.1 -1.1
v 0.2 5.1 -1.5
v 0 5.1 1.5
v 0 5.1 1.1
v 0 5.1 -1.1
v 0 5.1 -1.5
v 1 5.5 0.4
v 1 5.5 0.2
v 0.9 5.5 0.4
v 0.9 5.5 0.2
v 1 5.6 1
v 1 5.6 0.4
v 1 5.6 -0.2
v 1 5.6 -1
v 0.9 5.6 1
v 0.9 5.6 0.4
v 0.9 5.6 -0.2
v 0.9 5.6 -1
v 0.9 5.9 1.1
v 0.9 5.9 -1.1
v -0.7 5.9 1.1
v -0.7 5.9 -1.1

# faces
f 3/4/1 2/4/1 1/4/1
f 4/4/1 2/4/1 3/4/1
f 7/4/1 6/4/1 5/4/1
f 8/4/1 6/4/1 7/4/1
f 9/4/1 7/4/1 5/4/1
f 10/4/1 6/4/1 8/4/1
f 11/4/1 9/4/1 5/4/1
f 11/4/1 10/4/1 9/4/1
f 12/4/1 6/4/1 10/4/1
f 12/4/1 10/4/1 11/4/1
f 15/4/1 14/4/1 13/4/1
f 16/4/1 14/4/1 15/4/1
f 19/3/1 18/3/1 17/3/1
f 20/3/1 18/3/1 19/3/1
f 23/3/1 22/3/1 21/3/1
f 24/3/1 22/3/1 23/3/1
f 27/3/1 26/3/1 25/3/1
f 28/3/1 26/3/1 27/3/1
f 29/3/2 30/3/2 31/3/2
f 31/3/2 30/3/2 32/3/2
f 33/3/2 34/3/2 35/3/2
f 35/3/2 34/3/2 36/3/2
f 37/4/2 38/4/2 39/4/2
f 39/4/2 38/4/2 40/4/2
f 41/3/2 42/3/2 43/3/2
f 43/3/2 42/3/2 44/3/2
f 45/4/2 46/4/2 47/4/2
f 47/4/2 46/4/2 48/4/2
f 45/4/2 47/4/2 49/4/2
f 48/4/2 46/4/2 50/4/2
f 45/4/2 49/4/2 51/4/2
f 49/4/2 50/4/2 51/4/2
f 50/4/2 46/4/2 52/4/2
f 51/4/2 50/4/2 52/4/2
f 53/4/2 54/4/2 55/4/2
f 55/4/2 54/4/2 56/4/2
f 60/3/3 58/3/3 57/3/3
f 61/3/3 58/3/3 60/3/3
f 61/3/3 60/3/3 59/3/3
f 62/3/3 58/3/3 61/3/3
f 63/3/3 61/3/3 59/3/3
f 64/3/3 61/3/3 63/3/3
f 67/3/3 66/3/3 65/3/3
f 68/3/3 66/3/3 67/3/3
f 72/4/3 70/4/3 69/4/3
f 73/4/3 70/4/3 72/4/3
f 74/4/3 70/4/3 73/4/3
f 75/4/3 72/4/3 71/4/3
f 75/4/3 73/4/3 72/4/3
f 76/4/3 73/4/3 75/4/3
f 77/2/3 76/2/3 75/2/3
f 78/2/3 76/2/3 77/2/3
f 79/4/3 73/4/3 76/4/3
f 80/4/3 73/4/3 79/4/3
f 81/2/3 77/2/3 75/2/3
f 81/1/3 78/1/3 77/1/3
f 82/2/3 76/2/3 78/2/3
f 82/1/3 78/1/3 81/1/3
f 83/4/3 75/4/3 71/4/3
f 83/2/3 81/2/3 75/2/3
f 83/2/3 82/2/3 81/2/3
f 84/2/3 76/2/3 82/2/3
f 84/2/3 82/2/3 83/2/3
f 84/4/3 79/4/3 76/4/3
f 86/4/3 70/4/3 74/4/3
f 87/4/3 84/4/3 83/4/3
f 87/4/3 83/4/3 71/4/3
f 88/4/3 84/4/3 87/4/3
f 89/4/3 79/4/3 84/4/3
f 89/4/3 84/4/3 88/4/3
f 90/4/3 86/4/3 85/4/3
f 91/4/3 90/4/3 89/4/3
f 92/4/3 70/4/3 86/4/3
f 92/4/3 90/4/3 91/4/3
f 92/4/3 86/4/3 90/4/3
f 93/2/3 88/2/3 87/2/3
f 93/4/3 87/4/3 71/4/3
f 94/4/3 89/4/3 88/4/3
f 94/2/3 88/2/3 93/2/3
f 94/4/3 91/4/3 89/4/3
f 95/4/3 94/4/3 93/4/3
f 95/4/3 91/4/3 94/4/3
f 96/4/3 91/4/3 95/4/3
f 97/2/3 96/2/3 95/2/3
f 98/2/3 96/2/3 97/2/3
f 99/2/3 97/2/3 95/2/3
f 99/1/3 98/1/3 97/1/3
f 100/2/3 96/2/3 98/2/3
f 100/1/3 98/1/3 99/1/3
f 101/4/3 95/4/3 93/4/3
f 101/2/3 99/2/3 95/2/3
f 101/2/3 100/2/3 99/2/3
f 102/2/3 96/2/3 100/2/3
f 102/2/3 100/2/3 101/2/3
f 102/4/3 91/4/3 96/4/3
f 103/4/3 93/4/3 71/4/3
f 103/4/3 101/4/3 93/4/3
f 103/4/3 102/4/3 101/4/3
f 104/4/3 102/4/3 103/4/3
f 105/4/3 91/4/3 102/4/3
f 105/4/3 102/4/3 104/4/3
f 106/4/3 70/4/3 92/4/3
f 107/4/3 106/4/3 105/4/3
f 107/4/3 105/4/3 104/4/3
f 108/4/3 70/4/3 106/4/3
f 108/4/3 106/4/3 107/4/3
f 111/4/3 110/4/3 109/4/3
f 112/4/3 110/4/3 111/4/3
f 115/4/3 114/4/3 113/4/3
f 116/4/3 114/4/3 115/4/3
f 117/4/4 118/4/4 119/4/4
f 119/4/4 118/4/4 120/4/4
f 121/4/4 122/4/4 123/4/4
f 123/4/4 122/4/4 124/4/4
f 125/4/4 126/4/4 128/4/4
f 127/4/4 128/4/4 129/4/4
f 128/4/4 126/4/4 130/4/4
f 129/4/4 128/4/4 130/4/4
f 130/4/4 126/4/4 131/4/4
f 131/4/4 126/4/4 132/4/4
f 135/4/5 134/4/5 133/4/5
f 136/4/5 134/4/5 135/4/5
f 141/4/5 138/4/5 137/4/5
f 142/4/5 138/4/5 141/4/5
f 143/4/5 140/4/5 139/4/5
f 144/4/5 140/4/5 143/4/5
f 149/4/5 146/4/5 145/4/5
f 150/4/5 146/4/5 149/4/5
f 151/4/5 148/4/5 147/4/5
f 152/4/5 148/4/5 151/4/5
f 155/3/5 154/3/5 153/3/5
f 156/3/5 154/3/5 155/3/5
f 161/3/5 158/3/5 157/3/5
f 162/3/5 158/3/5 161/3/5
f 163/3/5 160/3/5 159/3/5
f 164/3/5 160/3/5 163/3/5
f 165/4/6 166/4/6 169/4/6
f 169/4/6 166/4/6 170/4/6
f 167/4/6 168/4/6 171/4/6
f 171/4/6 168/4/6 172/4/6
f 173/3/6 174/3/6 175/3/6
f 175/3/6 174/3/6 176/3/6
f 177/3/6 178/3/6 181/3/6
f 181/3/6 178/3/6 182/3/6
f 179/3/6 180/3/6 183/3/6
f 183/3/6 180/3/6 184/3/6
f 185/4/6 186/4/6 187/4/6
f 187/4/6 186/4/6 188/4/6
