# MagicaVoxel @ Ephtracy

# group
o 

# material
mtllib model.mtl
usemtl palette

# normals
vn 0 0 1
vn 0 0 -1
vn 1 0 0
vn -1 0 0
vn 0 -1 0
vn 0 1 0

# texcoords
vt 0.0957031 0.5
vt 0.416016 0.5
vt 0.509766 0.5

# verts
v 1.1 0.2 1.6
v 0.1 0.2 1.6
v -0.1 0.2 1.6
v -1.1 0.2 1.6
v 1.1 2.4 1.6
v 0.1 2.4 1.6
v -0.1 2.4 1.6
v -1.1 2.4 1.6
v 0.9 0 1.5
v 0.1 0 1.5
v -0.1 0 1.5
v -0.9 0 1.5
v 0.9 0.2 1.5
v 0.1 0.2 1.5
v -0.1 0.2 1.5
v -0.9 0.2 1.5
v 0.1 0.3 1.5
v -0.1 0.3 1.5
v 0.1 2.3 1.5
v -0.1 2.3 1.5
v 0.9 2.4 1.4
v 0.1 2.4 1.4
v -0.1 2.4 1.4
v -0.9 2.4 1.4
v 0.9 2.8 1.4
v 0.1 2.8 1.4
v -0.1 2.8 1.4
v -0.9 2.8 1.4
v 0.1 0 1.3
v -0.1 0 1.3
v 0.1 0.3 1.3
v -0.1 0.3 1.3
v 0.1 2.3 1.3
v -0.1 2.3 1.3
v 0.1 2.7 1.3
v -0.1 2.7 1.3
v 1.5 0.2 1.2
v 1.1 0.2 1.2
v -1.1 0.2 1.2
v -1.5 0.2 1.2
v 1.5 2.4 1.2
v 1.1 2.4 1.2
v -1.1 2.4 1.2
v -1.5 2.4 1.2
v 1.3 0 1
v 0.9 0 1
v -0.9 0 1
v -1.3 0 1
v 1.3 0.2 1
v 0.9 0.2 1
v -0.9 0.2 1
v -1.3 0.2 1
v 1.3 2.4 1
v 0.9 2.4 1
v -0.9 2.4 1
v -1.3 2.4 1
v 1.3 2.8 1
v 0.9 2.8 1
v 0.6 2.8 1
v 0.1 2.8 1
v -0.1 2.8 1
v -0.6 2.8 1
v -0.9 2.8 1
v -1.3 2.8 1
v 0.6 3 1
v 0.1 3 1
v -0.1 3 1
v -0.6 3 1
v 0.1 2.7 0.9
v -0.1 2.7 0.9
v 0.1 2.9 0.9
v -0.1 2.9 0.9
v 0.9 2.8 0.7
v 0.6 2.8 0.7
v -0.6 2.8 0.7
v -0.9 2.8 0.7
v 0.1 2.9 0.7
v -0.1 2.9 0.7
v 0.9 3 0.7
v 0.6 3 0.7
v 0.4 3 0.7
v 0.1 3 0.7
v -0.1 3 0.7
v -0.4 3 0.7
v -0.6 3 0.7
v -0.9 3 0.7
v 0.4 3.1 0.7
v -0.4 3.1 0.7
v 1.5 0.8 0.6
v 1.4 0.8 0.6
v 1.5 1 0.6
v 1.4 1 0.6
v 0.6 3 0.5
v 0.4 3 0.5
v -0.4 3 0.5
v -0.6 3 0.5
v 0.6 3.1 0.5
v 0.4 3.1 0.5
v -0.4 3.1 0.5
v -0.6 3.1 0.5
v 1.5 2 0.3
v 1.4 2 0.3
v 1.5 2.1 0.3
v 1.4 2.1 0.3
v 1.5 1.6 0.2
v 1.4 1.6 0.2
v 1.5 2 0.2
v 1.4 2 0.2
v 0.1 3.4 0.2
v -0.1 3.4 0.2
v 0.1 3.6 0.2
v -0.1 3.6 0.2
v 0.1 3.1 0.1
v -0.1 3.1 0.1
v 0.1 3.4 0.1
v -0.1 3.4 0.1
v 1.3 0 -0.1
v 1.2 0 -0.1
v -1.2 0 -0.1
v -1.3 0 -0.1
v 1.5 0.2 -0.1
v 1.3 0.2 -0.1
v -1.3 0.2 -0.1
v -1.5 0.2 -0.1
v 1.4 0.3 -0.1
v 1.2 0.3 -0.1
v -1.2 0.3 -0.1
v -1.4 0.3 -0.1
v 1.5 0.5 -0.1
v 1.4 0.5 -0.1
v 1.5 1 -0.1
v 1.4 1 -0.1
v 1.5 1.2 -0.1
v 1.4 1.2 -0.1
v 1.5 1.4 -0.1
v 1.4 1.4 -0.1
v 1.4 2.3 -0.1
v 1.2 2.3 -0.1
v -1.2 2.3 -0.1
v -1.4 2.3 -0.1
v 1.5 2.4 -0.1
v 1.3 2.4 -0.1
v -1.3 2.4 -0.1
v -1.5 2.4 -0.1
v 1.2 2.7 -0.1
v 0.8 2.7 -0.1
v -0.8 2.7 -0.1
v -1.2 2.7 -0.1
v 1.3 2.8 -0.1
v 0.9 2.8 -0.1
v -0.9 2.8 -0.1
v -1.3 2.8 -0.1
v 0.8 2.9 -0.1
v 0.6 2.9 -0.1
v -0.6 2.9 -0.1
v -0.8 2.9 -0.1
v 0.9 3 -0.1
v 0.6 3 -0.1
v -0.6 3 -0.1
v -0.9 3 -0.1
v 1.5 1.2 -0.2
v 1.4 1.2 -0.2
v 1.5 1.4 -0.2
v 1.4 1.4 -0.2
v 1.5 0.8 -0.3
v 1.4 0.8 -0.3
v 1.5 1 -0.3
v 1.4 1 -0.3
v 1.5 0.5 -0.9
v 1.4 0.5 -0.9
v 1.5 0.6 -0.9
v 1.4 0.6 -0.9
v 1.5 2 -0.9
v 1.4 2 -0.9
v 1.5 2.1 -0.9
v 1.4 2.1 -0.9
v 1.5 0.6 -1
v 1.4 0.6 -1
v 1.5 1 -1
v 1.4 1 -1
v 1.5 1.6 -1
v 1.4 1.6 -1
v 1.5 2 -1
v 1.4 2 -1
v 1.5 0.6 1
v 1.4 0.6 1
v 1.5 1 1
v 1.4 1 1
v 1.5 1.6 1
v 1.4 1.6 1
v 1.5 2 1
v 1.4 2 1
v 1.5 0.5 0.9
v 1.4 0.5 0.9
v 1.5 0.6 0.9
v 1.4 0.6 0.9
v 1.5 2 0.9
v 1.4 2 0.9
v 1.5 2.1 0.9
v 1.4 2.1 0.9
v 1.5 0.8 0.3
v 1.4 0.8 0.3
v 1.5 1 0.3
v 1.4 1 0.3
v 1.5 1.2 0.2
v 1.4 1.2 0.2
v 1.5 1.4 0.2
v 1.4 1.4 0.2
v 1.3 0 0.1
v 1.2 0 0.1
v -1.2 0 0.1
v -1.3 0 0.1
v 1.5 0.2 0.1
v 1.3 0.2 0.1
v -1.3 0.2 0.1
v -1.5 0.2 0.1
v 1.4 0.3 0.1
v 1.2 0.3 0.1
v -1.2 0.3 0.1
v -1.4 0.3 0.1
v 1.5 0.5 0.1
v 1.4 0.5 0.1
v 1.5 1 0.1
v 1.4 1 0.1
v 1.5 1.2 0.1
v 1.4 1.2 0.1
v 1.5 1.4 0.1
v 1.4 1.4 0.1
v 1.4 2.3 0.1
v 1.2 2.3 0.1
v -1.2 2.3 0.1
v -1.4 2.3 0.1
v 1.5 2.4 0.1
v 1.3 2.4 0.1
v -1.3 2.4 0.1
v -1.5 2.4 0.1
v 1.2 2.7 0.1
v 0.8 2.7 0.1
v -0.8 2.7 0.1
v -1.2 2.7 0.1
v 1.3 2.8 0.1
v 0.9 2.8 0.1
v -0.9 2.8 0.1
v -1.3 2.8 0.1
v 0.8 2.9 0.1
v 0.6 2.9 0.1
v -0.6 2.9 0.1
v -0.8 2.9 0.1
v 0.9 3 0.1
v 0.6 3 0.1
v -0.6 3 0.1
v -0.9 3 0.1
v 0.1 3.5 0
v -0.1 3.5 0
v 0.1 3.6 0
v -0.1 3.6 0
v 0.1 3.1 -0.1
v -0.1 3.1 -0.1
v 0.1 3.5 -0.1
v -0.1 3.5 -0.1
v 1.5 1.6 -0.2
v 1.4 1.6 -0.2
v 1.5 2 -0.2
v 1.4 2 -0.2
v 1.5 2 -0.3
v 1.4 2 -0.3
v 1.5 2.1 -0.3
v 1.4 2.1 -0.3
v 0.6 3 -0.5
v 0.4 3 -0.5
v -0.4 3 -0.5
v -0.6 3 -0.5
v 0.6 3.1 -0.5
v 0.4 3.1 -0.5
v -0.4 3.1 -0.5
v -0.6 3.1 -0.5
v 1.5 0.8 -0.6
v 1.4 0.8 -0.6
v 1.5 1 -0.6
v 1.4 1 -0.6
v 0.9 2.8 -0.7
v 0.6 2.8 -0.7
v -0.6 2.8 -0.7
v -0.9 2.8 -0.7
v 0.1 2.9 -0.7
v -0.1 2.9 -0.7
v 0.9 3 -0.7
v 0.6 3 -0.7
v 0.4 3 -0.7
v 0.1 3 -0.7
v -0.1 3 -0.7
v -0.4 3 -0.7
v -0.6 3 -0.7
v -0.9 3 -0.7
v 0.4 3.1 -0.7
v -0.4 3.1 -0.7
v 0.1 2.7 -0.9
v -0.1 2.7 -0.9
v 0.1 2.9 -0.9
v -0.1 2.9 -0.9
v 1.3 0 -1
v 0.9 0 -1
v -0.9 0 -1
v -1.3 0 -1
v 1.3 0.2 -1
v 0.9 0.2 -1
v -0.9 0.2 -1
v -1.3 0.2 -1
v 1.3 2.4 -1
v 0.9 2.4 -1
v -0.9 2.4 -1
v -1.3 2.4 -1
v 1.3 2.8 -1
v 0.9 2.8 -1
v 0.6 2.8 -1
v 0.1 2.8 -1
v -0.1 2.8 -1
v -0.6 2.8 -1
v -0.9 2.8 -1
v -1.3 2.8 -1
v 0.6 3 -1
v 0.1 3 -1
v -0.1 3 -1
v -0.6 3 -1
v 1.5 0.2 -1.2
v 1.1 0.2 -1.2
v -1.1 0.2 -1.2
v -1.5 0.2 -1.2
v 1.5 2.4 -1.2
v 1.1 2.4 -1.2
v -1.1 2.4 -1.2
v -1.5 2.4 -1.2
v 0.1 0 -1.3
v -0.1 0 -1.3
v 0.1 0.3 -1.3
v -0.1 0.3 -1.3
v 0.1 2.3 -1.3
v -0.1 2.3 -1.3
v 0.1 2.7 -1.3
v -0.1 2.7 -1.3
v 0.9 2.4 -1.4
v 0.1 2.4 -1.4
v -0.1 2.4 -1.4
v -0.9 2.4 -1.4
v 0.9 2.8 -1.4
v 0.1 2.8 -1.4
v -0.1 2.8 -1.4
v -0.9 2.8 -1.4
v 0.9 0 -1.5
v 0.1 0 -1.5
v -0.1 0 -1.5
v -0.9 0 -1.5
v 0.9 0.2 -1.5
v 0.1 0.2 -1.5
v -0.1 0.2 -1.5
v -0.9 0.2 -1.5
v 0.1 0.3 -1.5
v -0.1 0.3 -1.5
v 0.1 2.3 -1.5
v -0.1 2.3 -1.5
v 1.1 0.2 -1.6
v 0.1 0.2 -1.6
v -0.1 0.2 -1.6
v -1.1 0.2 -1.6
v 1.1 2.4 -1.6
v 0.1 2.4 -1.6
v -0.1 2.4 -1.6
v -1.1 2.4 -1.6
v 1.5 0.2 1.2
v 1.5 2.4 1.2
v 1.5 0.6 1
v 1.5 1 1
v 1.5 1.6 1
v 1.5 2 1
v 1.5 0.5 0.9
v 1.5 0.6 0.9
v 1.5 2 0.9
v 1.5 2.1 0.9
v 1.5 0.8 0.6
v 1.5 1 0.6
v 1.5 0.8 0.3
v 1.5 1 0.3
v 1.5 2 0.3
v 1.5 2.1 0.3
v 1.5 1.2 0.2
v 1.5 1.4 0.2
v 1.5 1.6 0.2
v 1.5 2 0.2
v 1.5 0.2 0.1
v 1.5 0.5 0.1
v 1.5 1 0.1
v 1.5 1.2 0.1
v 1.5 1.4 0.1
v 1.5 2.4 0.1
v 1.5 0.2 -0.1
v 1.5 0.5 -0.1
v 1.5 1 -0.1
v 1.5 1.2 -0.1
v 1.5 1.4 -0.1
v 1.5 2.4 -0.1
v 1.5 1.2 -0.2
v 1.5 1.4 -0.2
v 1.5 1.6 -0.2
v 1.5 2 -0.2
v 1.5 0.8 -0.3
v 1.5 1 -0.3
v 1.5 2 -0.3
v 1.5 2.1 -0.3
v 1.5 0.8 -0.6
v 1.5 1 -0.6
v 1.5 0.5 -0.9
v 1.5 0.6 -0.9
v 1.5 2 -0.9
v 1.5 2.1 -0.9
v 1.5 0.6 -1
v 1.5 1 -1
v 1.5 1.6 -1
v 1.5 2 -1
v 1.5 0.2 -1.2
v 1.5 2.4 -1.2
v 1.4 0.6 1
v 1.4 1 1
v 1.4 1.6 1
v 1.4 2 1
v 1.4 0.5 0.9
v 1.4 0.6 0.9
v 1.4 2 0.9
v 1.4 2.1 0.9
v 1.4 0.8 0.6
v 1.4 1 0.6
v 1.4 0.8 0.3
v 1.4 1 0.3
v 1.4 2 0.3
v 1.4 2.1 0.3
v 1.4 1.2 0.2
v 1.4 1.4 0.2
v 1.4 1.6 0.2
v 1.4 2 0.2
v 1.4 0.3 0.1
v 1.4 0.5 0.1
v 1.4 1 0.1
v 1.4 1.2 0.1
v 1.4 1.4 0.1
v 1.4 2.3 0.1
v 1.4 0.3 -0.1
v 1.4 0.5 -0.1
v 1.4 1 -0.1
v 1.4 1.2 -0.1
v 1.4 1.4 -0.1
v 1.4 2.3 -0.1
v 1.4 1.2 -0.2
v 1.4 1.4 -0.2
v 1.4 1.6 -0.2
v 1.4 2 -0.2
v 1.4 0.8 -0.3
v 1.4 1 -0.3
v 1.4 2 -0.3
v 1.4 2.1 -0.3
v 1.4 0.8 -0.6
v 1.4 1 -0.6
v 1.4 0.5 -0.9
v 1.4 0.6 -0.9
v 1.4 2 -0.9
v 1.4 2.1 -0.9
v 1.4 0.6 -1
v 1.4 1 -1
v 1.4 1.6 -1
v 1.4 2 -1
v 1.3 0 1
v 1.3 0.2 1
v 1.3 2.4 1
v 1.3 2.8 1
v 1.3 0 0.1
v 1.3 0.2 0.1
v 1.3 2.4 0.1
v 1.3 2.8 0.1
v 1.3 0 -0.1
v 1.3 0.2 -0.1
v 1.3 2.4 -0.1
v 1.3 2.8 -0.1
v 1.3 0 -1
v 1.3 0.2 -1
v 1.3 2.4 -1
v 1.3 2.8 -1
v 1.2 0 0.1
v 1.2 0.3 0.1
v 1.2 2.3 0.1
v 1.2 2.7 0.1
v 1.2 0 -0.1
v 1.2 0.3 -0.1
v 1.2 2.3 -0.1
v 1.2 2.7 -0.1
v 1.1 0.2 1.6
v 1.1 2.4 1.6
v 1.1 0.2 1.2
v 1.1 2.4 1.2
v 1.1 0.2 -1.2
v 1.1 2.4 -1.2
v 1.1 0.2 -1.6
v 1.1 2.4 -1.6
v 0.9 0 1.5
v 0.9 0.2 1.5
v 0.9 2.4 1.4
v 0.9 2.8 1.4
v 0.9 0 1
v 0.9 0.2 1
v 0.9 2.4 1
v 0.9 2.8 1
v 0.9 2.8 0.7
v 0.9 3 0.7
v 0.9 2.8 0.1
v 0.9 3 0.1
v 0.9 2.8 -0.1
v 0.9 3 -0.1
v 0.9 2.8 -0.7
v 0.9 3 -0.7
v 0.9 0 -1
v 0.9 0.2 -1
v 0.9 2.4 -1
v 0.9 2.8 -1
v 0.9 2.4 -1.4
v 0.9 2.8 -1.4
v 0.9 0 -1.5
v 0.9 0.2 -1.5
v 0.8 2.7 0.1
v 0.8 2.9 0.1
v 0.8 2.7 -0.1
v 0.8 2.9 -0.1
v 0.6 2.8 1
v 0.6 3 1
v 0.6 2.8 0.7
v 0.6 3 0.7
v 0.6 3 0.5
v 0.6 3.1 0.5
v 0.6 2.9 0.1
v 0.6 3 0.1
v 0.6 2.9 -0.1
v 0.6 3 -0.1
v 0.6 3 -0.5
v 0.6 3.1 -0.5
v 0.6 2.8 -0.7
v 0.6 3 -0.7
v 0.6 2.8 -1
v 0.6 3 -1
v 0.4 3 0.7
v 0.4 3.1 0.7
v 0.4 3 0.5
v 0.4 3.1 0.5
v 0.4 3 -0.5
v 0.4 3.1 -0.5
v 0.4 3 -0.7
v 0.4 3.1 -0.7
v 0.1 3.4 0.2
v 0.1 3.6 0.2
v 0.1 3.1 0.1
v 0.1 3.4 0.1
v 0.1 3.5 0
v 0.1 3.6 0
v 0.1 3.1 -0.1
v 0.1 3.5 -0.1
v -0.1 0.2 1.6
v -0.1 2.4 1.6
v -0.1 0 1.5
v -0.1 0.2 1.5
v -0.1 0.3 1.5
v -0.1 2.3 1.5
v -0.1 2.4 1.4
v -0.1 2.8 1.4
v -0.1 0 1.3
v -0.1 0.3 1.3
v -0.1 2.3 1.3
v -0.1 2.7 1.3
v -0.1 2.8 1
v -0.1 3 1
v -0.1 2.7 0.9
v -0.1 2.9 0.9
v -0.1 2.9 0.7
v -0.1 3 0.7
v -0.1 2.9 -0.7
v -0.1 3 -0.7
v -0.1 2.7 -0.9
v -0.1 2.9 -0.9
v -0.1 2.8 -1
v -0.1 3 -1
v -0.1 0 -1.3
v -0.1 0.3 -1.3
v -0.1 2.3 -1.3
v -0.1 2.7 -1.3
v -0.1 2.4 -1.4
v -0.1 2.8 -1.4
v -0.1 0 -1.5
v -0.1 0.2 -1.5
v -0.1 0.3 -1.5
v -0.1 2.3 -1.5
v -0.1 0.2 -1.6
v -0.1 2.4 -1.6
v 0.1 0.2 1.6
v 0.1 2.4 1.6
v 0.1 0 1.5
v 0.1 0.2 1.5
v 0.1 0.3 1.5
v 0.1 2.3 1.5
v 0.1 2.4 1.4
v 0.1 2.8 1.4
v 0.1 0 1.3
v 0.1 0.3 1.3
v 0.1 2.3 1.3
v 0.1 2.7 1.3
v 0.1 2.8 1
v 0.1 3 1
v 0.1 2.7 0.9
v 0.1 2.9 0.9
v 0.1 2.9 0.7
v 0.1 3 0.7
v 0.1 2.9 -0.7
v 0.1 3 -0.7
v 0.1 2.7 -0.9
v 0.1 2.9 -0.9
v 0.1 2.8 -1
v 0.1 3 -1
v 0.1 0 -1.3
v 0.1 0.3 -1.3
v 0.1 2.3 -1.3
v 0.1 2.7 -1.3
v 0.1 2.4 -1.4
v 0.1 2.8 -1.4
v 0.1 0 -1.5
v 0.1 0.2 -1.5
v 0.1 0.3 -1.5
v 0.1 2.3 -1.5
v 0.1 0.2 -1.6
v 0.1 2.4 -1.6
v -0.1 3.4 0.2
v -0.1 3.6 0.2
v -0.1 3.1 0.1
v -0.1 3.4 0.1
v -0.1 3.5 0
v -0.1 3.6 0
v -0.1 3.1 -0.1
v -0.1 3.5 -0.1
v -0.4 3 0.7
v -0.4 3.1 0.7
v -0.4 3 0.5
v -0.4 3.1 0.5
v -0.4 3 -0.5
v -0.4 3.1 -0.5
v -0.4 3 -0.7
v -0.4 3.1 -0.7
v -0.6 2.8 1
v -0.6 3 1
v -0.6 2.8 0.7
v -0.6 3 0.7
v -0.6 3 0.5
v -0.6 3.1 0.5
v -0.6 2.9 0.1
v -0.6 3 0.1
v -0.6 2.9 -0.1
v -0.6 3 -0.1
v -0.6 3 -0.5
v -0.6 3.1 -0.5
v -0.6 2.8 -0.7
v -0.6 3 -0.7
v -0.6 2.8 -1
v -0.6 3 -1
v -0.8 2.7 0.1
v -0.8 2.9 0.1
v -0.8 2.7 -0.1
v -0.8 2.9 -0.1
v -0.9 0 1.5
v -0.9 0.2 1.5
v -0.9 2.4 1.4
v -0.9 2.8 1.4
v -0.9 0 1
v -0.9 0.2 1
v -0.9 2.4 1
v -0.9 2.8 1
v -0.9 2.8 0.7
v -0.9 3 0.7
v -0.9 2.8 0.1
v -0.9 3 0.1
v -0.9 2.8 -0.1
v -0.9 3 -0.1
v -0.9 2.8 -0.7
v -0.9 3 -0.7
v -0.9 0 -1
v -0.9 0.2 -1
v -0.9 2.4 -1
v -0.9 2.8 -1
v -0.9 2.4 -1.4
v -0.9 2.8 -1.4
v -0.9 0 -1.5
v -0.9 0.2 -1.5
v -1.1 0.2 1.6
v -1.1 2.4 1.6
v -1.1 0.2 1.2
v -1.1 2.4 1.2
v -1.1 0.2 -1.2
v -1.1 2.4 -1.2
v -1.1 0.2 -1.6
v -1.1 2.4 -1.6
v -1.2 0 0.1
v -1.2 0.3 0.1
v -1.2 2.3 0.1
v -1.2 2.7 0.1
v -1.2 0 -0.1
v -1.2 0.3 -0.1
v -1.2 2.3 -0.1
v -1.2 2.7 -0.1
v -1.3 0 1
v -1.3 0.2 1
v -1.3 2.4 1
v -1.3 2.8 1
v -1.3 0 0.1
v -1.3 0.2 0.1
v -1.3 2.4 0.1
v -1.3 2.8 0.1
v -1.3 0 -0.1
v -1.3 0.2 -0.1
v -1.3 2.4 -0.1
v -1.3 2.8 -0.1
v -1.3 0 -1
v -1.3 0.2 -1
v -1.3 2.4 -1
v -1.3 2.8 -1
v -1.4 0.3 0.1
v -1.4 2.3 0.1
v -1.4 0.3 -0.1
v -1.4 2.3 -0.1
v -1.5 0.2 1.2
v -1.5 2.4 1.2
v -1.5 0.2 0.1
v -1.5 2.4 0.1
v -1.5 0.2 -0.1
v -1.5 2.4 -0.1
v -1.5 0.2 -1.2
v -1.5 2.4 -1.2
v 1.3 0 1
v 1.3 0 0.1
v 1.3 0 -0.1
v 1.3 0 -1
v 1.2 0 0.1
v 1.2 0 -0.1
v 0.9 0 1.5
v 0.9 0 1
v 0.9 0 -1
v 0.9 0 -1.5
v 0.1 0 1.5
v 0.1 0 1.3
v 0.1 0 -1.3
v 0.1 0 -1.5
v -0.1 0 1.5
v -0.1 0 1.3
v -0.1 0 -1.3
v -0.1 0 -1.5
v -0.9 0 1.5
v -0.9 0 1
v -0.9 0 -1
v -0.9 0 -1.5
v -1.2 0 0.1
v -1.2 0 -0.1
v -1.3 0 1
v -1.3 0 0.1
v -1.3 0 -0.1
v -1.3 0 -1
v 1.5 0.2 1.2
v 1.5 0.2 0.1
v 1.5 0.2 -0.1
v 1.5 0.2 -1.2
v 1.3 0.2 1
v 1.3 0.2 0.1
v 1.3 0.2 -0.1
v 1.3 0.2 -1
v 1.1 0.2 1.6
v 1.1 0.2 1.2
v 1.1 0.2 -1.2
v 1.1 0.2 -1.6
v 0.9 0.2 1.5
v 0.9 0.2 1
v 0.9 0.2 -1
v 0.9 0.2 -1.5
v 0.1 0.2 1.6
v 0.1 0.2 1.5
v 0.1 0.2 -1.5
v 0.1 0.2 -1.6
v -0.1 0.2 1.6
v -0.1 0.2 1.5
v -0.1 0.2 -1.5
v -0.1 0.2 -1.6
v -0.9 0.2 1.5
v -0.9 0.2 1
v -0.9 0.2 -1
v -0.9 0.2 -1.5
v -1.1 0.2 1.6
v -1.1 0.2 1.2
v -1.1 0.2 -1.2
v -1.1 0.2 -1.6
v -1.3 0.2 1
v -1.3 0.2 0.1
v -1.3 0.2 -0.1
v -1.3 0.2 -1
v -1.5 0.2 1.2
v -1.5 0.2 0.1
v -1.5 0.2 -0.1
v -1.5 0.2 -1.2
v 1.4 0.3 0.1
v 1.4 0.3 -0.1
v 1.2 0.3 0.1
v 1.2 0.3 -0.1
v 0.1 0.3 1.5
v 0.1 0.3 1.3
v 0.1 0.3 -1.3
v 0.1 0.3 -1.5
v -0.1 0.3 1.5
v -0.1 0.3 1.3
v -0.1 0.3 -1.3
v -0.1 0.3 -1.5
v -1.2 0.3 0.1
v -1.2 0.3 -0.1
v -1.4 0.3 0.1
v -1.4 0.3 -0.1
v 1.5 0.8 0.6
v 1.5 0.8 0.3
v 1.5 0.8 -0.3
v 1.5 0.8 -0.6
v 1.4 0.8 0.6
v 1.4 0.8 0.3
v 1.4 0.8 -0.3
v 1.4 0.8 -0.6
v 1.5 1 1
v 1.5 1 0.6
v 1.5 1 0.3
v 1.5 1 0.1
v 1.5 1 -0.1
v 1.5 1 -0.3
v 1.5 1 -0.6
v 1.5 1 -1
v 1.4 1 1
v 1.4 1 0.6
v 1.4 1 0.3
v 1.4 1 0.1
v 1.4 1 -0.1
v 1.4 1 -0.3
v 1.4 1 -0.6
v 1.4 1 -1
v 1.5 1.4 0.2
v 1.5 1.4 0.1
v 1.5 1.4 -0.1
v 1.5 1.4 -0.2
v 1.4 1.4 0.2
v 1.4 1.4 0.1
v 1.4 1.4 -0.1
v 1.4 1.4 -0.2
v 1.5 2 1
v 1.5 2 0.9
v 1.5 2 0.3
v 1.5 2 0.2
v 1.5 2 -0.2
v 1.5 2 -0.3
v 1.5 2 -0.9
v 1.5 2 -1
v 1.4 2 1
v 1.4 2 0.9
v 1.4 2 0.3
v 1.4 2 0.2
v 1.4 2 -0.2
v 1.4 2 -0.3
v 1.4 2 -0.9
v 1.4 2 -1
v 1.5 2.1 0.9
v 1.5 2.1 0.3
v 1.5 2.1 -0.3
v 1.5 2.1 -0.9
v 1.4 2.1 0.9
v 1.4 2.1 0.3
v 1.4 2.1 -0.3
v 1.4 2.1 -0.9
v 0.1 3.4 0.2
v 0.1 3.4 0.1
v -0.1 3.4 0.2
v -0.1 3.4 0.1
v 1.5 0.5 0.9
v 1.5 0.5 0.1
v 1.5 0.5 -0.1
v 1.5 0.5 -0.9
v 1.4 0.5 0.9
v 1.4 0.5 0.1
v 1.4 0.5 -0.1
v 1.4 0.5 -0.9
v 1.5 0.6 1
v 1.5 0.6 0.9
v 1.5 0.6 -0.9
v 1.5 0.6 -1
v 1.4 0.6 1
v 1.4 0.6 0.9
v 1.4 0.6 -0.9
v 1.4 0.6 -1
v 1.5 1.2 0.2
v 1.5 1.2 0.1
v 1.5 1.2 -0.1
v 1.5 1.2 -0.2
v 1.4 1.2 0.2
v 1.4 1.2 0.1
v 1.4 1.2 -0.1
v 1.4 1.2 -0.2
v 1.5 1.6 1
v 1.5 1.6 0.2
v 1.5 1.6 -0.2
v 1.5 1.6 -1
v 1.4 1.6 1
v 1.4 1.6 0.2
v 1.4 1.6 -0.2
v 1.4 1.6 -1
v 1.4 2.3 0.1
v 1.4 2.3 -0.1
v 1.2 2.3 0.1
v 1.2 2.3 -0.1
v 0.1 2.3 1.5
v 0.1 2.3 1.3
v 0.1 2.3 -1.3
v 0.1 2.3 -1.5
v -0.1 2.3 1.5
v -0.1 2.3 1.3
v -0.1 2.3 -1.3
v -0.1 2.3 -1.5
v -1.2 2.3 0.1
v -1.2 2.3 -0.1
v -1.4 2.3 0.1
v -1.4 2.3 -0.1
v 1.5 2.4 1.2
v 1.5 2.4 0.1
v 1.5 2.4 -0.1
v 1.5 2.4 -1.2
v 1.3 2.4 1
v 1.3 2.4 0.1
v 1.3 2.4 -0.1
v 1.3 2.4 -1
v 1.1 2.4 1.6
v 1.1 2.4 1.2
v 1.1 2.4 -1.2
v 1.1 2.4 -1.6
v 0.9 2.4 1.4
v 0.9 2.4 1
v 0.9 2.4 -1
v 0.9 2.4 -1.4
v 0.1 2.4 1.6
v 0.1 2.4 1.4
v 0.1 2.4 -1.4
v 0.1 2.4 -1.6
v -0.1 2.4 1.6
v -0.1 2.4 1.4
v -0.1 2.4 -1.4
v -0.1 2.4 -1.6
v -0.9 2.4 1.4
v -0.9 2.4 1
v -0.9 2.4 -1
v -0.9 2.4 -1.4
v -1.1 2.4 1.6
v -1.1 2.4 1.2
v -1.1 2.4 -1.2
v -1.1 2.4 -1.6
v -1.3 2.4 1
v -1.3 2.4 0.1
v -1.3 2.4 -0.1
v -1.3 2.4 -1
v -1.5 2.4 1.2
v -1.5 2.4 0.1
v -1.5 2.4 -0.1
v -1.5 2.4 -1.2
v 1.2 2.7 0.1
v 1.2 2.7 -0.1
v 0.8 2.7 0.1
v 0.8 2.7 -0.1
v 0.1 2.7 1.3
v 0.1 2.7 0.9
v 0.1 2.7 -0.9
v 0.1 2.7 -1.3
v -0.1 2.7 1.3
v -0.1 2.7 0.9
v -0.1 2.7 -0.9
v -0.1 2.7 -1.3
v -0.8 2.7 0.1
v -0.8 2.7 -0.1
v -1.2 2.7 0.1
v -1.2 2.7 -0.1
v 1.3 2.8 1
v 1.3 2.8 0.1
v 1.3 2.8 -0.1
v 1.3 2.8 -1
v 0.9 2.8 1.4
v 0.9 2.8 1
v 0.9 2.8 0.7
v 0.9 2.8 0.1
v 0.9 2.8 -0.1
v 0.9 2.8 -0.7
v 0.9 2.8 -1
v 0.9 2.8 -1.4
v 0.6 2.8 1
v 0.6 2.8 0.7
v 0.6 2.8 -0.7
v 0.6 2.8 -1
v 0.1 2.8 1.4
v 0.1 2.8 1
v 0.1 2.8 -1
v 0.1 2.8 -1.4
v -0.1 2.8 1.4
v -0.1 2.8 1
v -0.1 2.8 -1
v -0.1 2.8 -1.4
v -0.6 2.8 1
v -0.6 2.8 0.7
v -0.6 2.8 -0.7
v -0.6 2.8 -1
v -0.9 2.8 1.4
v -0.9 2.8 1
v -0.9 2.8 0.7
v -0.9 2.8 0.1
v -0.9 2.8 -0.1
v -0.9 2.8 -0.7
v -0.9 2.8 -1
v -0.9 2.8 -1.4
v -1.3 2.8 1
v -1.3 2.8 0.1
v -1.3 2.8 -0.1
v -1.3 2.8 -1
v 0.8 2.9 0.1
v 0.8 2.9 -0.1
v 0.6 2.9 0.1
v 0.6 2.9 -0.1
v 0.1 2.9 0.9
v 0.1 2.9 0.7
v 0.1 2.9 -0.7
v 0.1 2.9 -0.9
v -0.1 2.9 0.9
v -0.1 2.9 0.7
v -0.1 2.9 -0.7
v -0.1 2.9 -0.9
v -0.6 2.9 0.1
v -0.6 2.9 -0.1
v -0.8 2.9 0.1
v -0.8 2.9 -0.1
v 0.9 3 0.7
v 0.9 3 0.1
v 0.9 3 -0.1
v 0.9 3 -0.7
v 0.6 3 1
v 0.6 3 0.7
v 0.6 3 0.5
v 0.6 3 0.1
v 0.6 3 -0.1
v 0.6 3 -0.5
v 0.6 3 -0.7
v 0.6 3 -1
v 0.4 3 0.7
v 0.4 3 0.5
v 0.4 3 -0.5
v 0.4 3 -0.7
v 0.1 3 1
v 0.1 3 0.7
v 0.1 3 -0.7
v 0.1 3 -1
v -0.1 3 1
v -0.1 3 0.7
v -0.1 3 -0.7
v -0.1 3 -1
v -0.4 3 0.7
v -0.4 3 0.5
v -0.4 3 -0.5
v -0.4 3 -0.7
v -0.6 3 1
v -0.6 3 0.7
v -0.6 3 0.5
v -0.6 3 0.1
v -0.6 3 -0.1
v -0.6 3 -0.5
v -0.6 3 -0.7
v -0.6 3 -1
v -0.9 3 0.7
v -0.9 3 0.1
v -0.9 3 -0.1
v -0.9 3 -0.7
v 0.6 3.1 0.5
v 0.6 3.1 -0.5
v 0.4 3.1 0.7
v 0.4 3.1 0.5
v 0.4 3.1 -0.5
v 0.4 3.1 -0.7
v 0.1 3.1 0.1
v 0.1 3.1 -0.1
v -0.1 3.1 0.1
v -0.1 3.1 -0.1
v -0.4 3.1 0.7
v -0.4 3.1 0.5
v -0.4 3.1 -0.5
v -0.4 3.1 -0.7
v -0.6 3.1 0.5
v -0.6 3.1 -0.5
v 0.1 3.5 0
v 0.1 3.5 -0.1
v -0.1 3.5 0
v -0.1 3.5 -0.1
v 0.1 3.6 0.2
v 0.1 3.6 0
v -0.1 3.6 0.2
v -0.1 3.6 0

# faces
f 5/3/1 2/3/1 1/3/1
f 6/3/1 2/3/1 5/3/1
f 7/3/1 4/3/1 3/3/1
f 8/3/1 4/3/1 7/3/1
f 13/3/1 10/3/1 9/3/1
f 14/3/1 10/3/1 13/3/1
f 15/3/1 12/3/1 11/3/1
f 16/3/1 12/3/1 15/3/1
f 19/3/1 18/3/1 17/3/1
f 20/3/1 18/3/1 19/3/1
f 25/3/1 22/3/1 21/3/1
f 26/3/1 22/3/1 25/3/1
f 27/3/1 24/3/1 23/3/1
f 28/3/1 24/3/1 27/3/1
f 31/3/1 30/3/1 29/3/1
f 32/3/1 30/3/1 31/3/1
f 35/3/1 34/3/1 33/3/1
f 36/3/1 34/3/1 35/3/1
f 41/3/1 38/3/1 37/3/1
f 42/3/1 38/3/1 41/3/1
f 43/3/1 40/3/1 39/3/1
f 44/3/1 40/3/1 43/3/1
f 49/3/1 46/3/1 45/3/1
f 50/3/1 46/3/1 49/3/1
f 51/3/1 48/3/1 47/3/1
f 52/3/1 48/3/1 51/3/1
f 57/3/1 54/3/1 53/3/1
f 58/3/1 54/3/1 57/3/1
f 63/3/1 56/3/1 55/3/1
f 64/3/1 56/3/1 63/3/1
f 65/3/1 60/3/1 59/3/1
f 66/3/1 60/3/1 65/3/1
f 67/3/1 62/3/1 61/3/1
f 68/3/1 62/3/1 67/3/1
f 71/3/1 70/3/1 69/3/1
f 72/3/1 70/3/1 71/3/1
f 79/3/1 74/3/1 73/3/1
f 80/3/1 74/3/1 79/3/1
f 82/3/1 78/3/1 77/3/1
f 83/3/1 78/3/1 82/3/1
f 85/3/1 76/3/1 75/3/1
f 86/3/1 76/3/1 85/3/1
f 87/2/1 84/2/1 83/2/1
f 87/2/1 82/2/1 81/2/1
f 87/2/1 83/2/1 82/2/1
f 88/2/1 84/2/1 87/2/1
f 91/3/1 90/3/1 89/3/1
f 92/3/1 90/3/1 91/3/1
f 97/2/1 94/2/1 93/2/1
f 98/2/1 94/2/1 97/2/1
f 99/2/1 96/2/1 95/2/1
f 100/2/1 96/2/1 99/2/1
f 103/3/1 102/3/1 101/3/1
f 104/3/1 102/3/1 103/3/1
f 107/3/1 106/3/1 105/3/1
f 108/3/1 106/3/1 107/3/1
f 111/2/1 110/2/1 109/2/1
f 112/2/1 110/2/1 111/2/1
f 115/2/1 114/2/1 113/2/1
f 116/2/1 114/2/1 115/2/1
f 122/3/1 118/3/1 117/3/1
f 123/3/1 120/3/1 119/3/1
f 125/3/1 122/3/1 121/3/1
f 126/3/1 118/3/1 122/3/1
f 126/3/1 122/3/1 125/3/1
f 127/3/1 124/3/1 123/3/1
f 127/3/1 123/3/1 119/3/1
f 128/3/1 124/3/1 127/3/1
f 129/3/1 125/3/1 121/3/1
f 130/3/1 125/3/1 129/3/1
f 133/3/1 132/3/1 131/3/1
f 134/3/1 132/3/1 133/3/1
f 137/3/1 136/3/1 135/3/1
f 140/3/1 124/3/1 128/3/1
f 141/3/1 138/3/1 137/3/1
f 141/3/1 137/3/1 135/3/1
f 142/3/1 138/3/1 141/3/1
f 143/3/1 140/3/1 139/3/1
f 144/3/1 124/3/1 140/3/1
f 144/3/1 140/3/1 143/3/1
f 145/3/1 138/3/1 142/3/1
f 148/3/1 143/3/1 139/3/1
f 149/3/1 146/3/1 145/3/1
f 149/3/1 145/3/1 142/3/1
f 150/3/1 146/3/1 149/3/1
f 151/3/1 148/3/1 147/3/1
f 152/3/1 143/3/1 148/3/1
f 152/3/1 148/3/1 151/3/1
f 153/3/1 146/3/1 150/3/1
f 156/3/1 151/3/1 147/3/1
f 157/3/1 154/3/1 153/3/1
f 157/3/1 153/3/1 150/3/1
f 158/3/1 154/3/1 157/3/1
f 159/3/1 156/3/1 155/3/1
f 160/3/1 151/3/1 156/3/1
f 160/3/1 156/3/1 159/3/1
f 163/3/1 162/3/1 161/3/1
f 164/3/1 162/3/1 163/3/1
f 167/3/1 166/3/1 165/3/1
f 168/3/1 166/3/1 167/3/1
f 171/3/1 170/3/1 169/3/1
f 172/3/1 170/3/1 171/3/1
f 175/3/1 174/3/1 173/3/1
f 176/3/1 174/3/1 175/3/1
f 179/3/1 178/3/1 177/3/1
f 180/3/1 178/3/1 179/3/1
f 183/3/1 182/3/1 181/3/1
f 184/3/1 182/3/1 183/3/1
f 185/3/2 186/3/2 187/3/2
f 187/3/2 186/3/2 188/3/2
f 189/3/2 190/3/2 191/3/2
f 191/3/2 190/3/2 192/3/2
f 193/3/2 194/3/2 195/3/2
f 195/3/2 194/3/2 196/3/2
f 197/3/2 198/3/2 199/3/2
f 199/3/2 198/3/2 200/3/2
f 201/3/2 202/3/2 203/3/2
f 203/3/2 202/3/2 204/3/2
f 205/3/2 206/3/2 207/3/2
f 207/3/2 206/3/2 208/3/2
f 209/3/2 210/3/2 214/3/2
f 211/3/2 212/3/2 215/3/2
f 213/3/2 214/3/2 217/3/2
f 214/3/2 210/3/2 218/3/2
f 217/3/2 214/3/2 218/3/2
f 215/3/2 216/3/2 219/3/2
f 211/3/2 215/3/2 219/3/2
f 219/3/2 216/3/2 220/3/2
f 213/3/2 217/3/2 221/3/2
f 221/3/2 217/3/2 222/3/2
f 223/3/2 224/3/2 225/3/2
f 225/3/2 224/3/2 226/3/2
f 227/3/2 228/3/2 229/3/2
f 220/3/2 216/3/2 232/3/2
f 229/3/2 230/3/2 233/3/2
f 227/3/2 229/3/2 233/3/2
f 233/3/2 230/3/2 234/3/2
f 231/3/2 232/3/2 235/3/2
f 232/3/2 216/3/2 236/3/2
f 235/3/2 232/3/2 236/3/2
f 234/3/2 230/3/2 237/3/2
f 231/3/2 235/3/2 240/3/2
f 237/3/2 238/3/2 241/3/2
f 234/3/2 237/3/2 241/3/2
f 241/3/2 238/3/2 242/3/2
f 239/3/2 240/3/2 243/3/2
f 240/3/2 235/3/2 244/3/2
f 243/3/2 240/3/2 244/3/2
f 242/3/2 238/3/2 245/3/2
f 239/3/2 243/3/2 248/3/2
f 245/3/2 246/3/2 249/3/2
f 242/3/2 245/3/2 249/3/2
f 249/3/2 246/3/2 250/3/2
f 247/3/2 248/3/2 251/3/2
f 248/3/2 243/3/2 252/3/2
f 251/3/2 248/3/2 252/3/2
f 253/2/2 254/2/2 255/2/2
f 255/2/2 254/2/2 256/2/2
f 257/2/2 258/2/2 259/2/2
f 259/2/2 258/2/2 260/2/2
f 261/3/2 262/3/2 263/3/2
f 263/3/2 262/3/2 264/3/2
f 265/3/2 266/3/2 267/3/2
f 267/3/2 266/3/2 268/3/2
f 269/2/2 270/2/2 273/2/2
f 273/2/2 270/2/2 274/2/2
f 271/2/2 272/2/2 275/2/2
f 275/2/2 272/2/2 276/2/2
f 277/3/2 278/3/2 279/3/2
f 279/3/2 278/3/2 280/3/2
f 281/3/2 282/3/2 287/3/2
f 287/3/2 282/3/2 288/3/2
f 285/3/2 286/3/2 290/3/2
f 290/3/2 286/3/2 291/3/2
f 283/3/2 284/3/2 293/3/2
f 293/3/2 284/3/2 294/3/2
f 291/2/2 292/2/2 295/2/2
f 289/2/2 290/2/2 295/2/2
f 290/2/2 291/2/2 295/2/2
f 295/2/2 292/2/2 296/2/2
f 297/3/2 298/3/2 299/3/2
f 299/3/2 298/3/2 300/3/2
f 301/3/2 302/3/2 305/3/2
f 305/3/2 302/3/2 306/3/2
f 303/3/2 304/3/2 307/3/2
f 307/3/2 304/3/2 308/3/2
f 309/3/2 310/3/2 313/3/2
f 313/3/2 310/3/2 314/3/2
f 311/3/2 312/3/2 319/3/2
f 319/3/2 312/3/2 320/3/2
f 315/3/2 316/3/2 321/3/2
f 321/3/2 316/3/2 322/3/2
f 317/3/2 318/3/2 323/3/2
f 323/3/2 318/3/2 324/3/2
f 325/3/2 326/3/2 329/3/2
f 329/3/2 326/3/2 330/3/2
f 327/3/2 328/3/2 331/3/2
f 331/3/2 328/3/2 332/3/2
f 333/3/2 334/3/2 335/3/2
f 335/3/2 334/3/2 336/3/2
f 337/3/2 338/3/2 339/3/2
f 339/3/2 338/3/2 340/3/2
f 341/3/2 342/3/2 345/3/2
f 345/3/2 342/3/2 346/3/2
f 343/3/2 344/3/2 347/3/2
f 347/3/2 344/3/2 348/3/2
f 349/3/2 350/3/2 353/3/2
f 353/3/2 350/3/2 354/3/2
f 351/3/2 352/3/2 355/3/2
f 355/3/2 352/3/2 356/3/2
f 357/3/2 358/3/2 359/3/2
f 359/3/2 358/3/2 360/3/2
f 361/3/2 362/3/2 365/3/2
f 365/3/2 362/3/2 366/3/2
f 363/3/2 364/3/2 367/3/2
f 367/3/2 364/3/2 368/3/2
f 371/3/3 370/3/3 369/3/3
f 372/3/3 370/3/3 371/3/3
f 373/3/3 370/3/3 372/3/3
f 374/3/3 370/3/3 373/3/3
f 375/3/3 371/3/3 369/3/3
f 376/3/3 371/3/3 375/3/3
f 377/3/3 370/3/3 374/3/3
f 378/3/3 370/3/3 377/3/3
f 380/3/3 373/3/3 372/3/3
f 381/3/3 380/3/3 379/3/3
f 382/3/3 373/3/3 380/3/3
f 382/3/3 380/3/3 381/3/3
f 384/3/3 370/3/3 378/3/3
f 385/3/3 373/3/3 382/3/3
f 386/3/3 373/3/3 385/3/3
f 387/3/3 373/3/3 386/3/3
f 388/3/3 384/3/3 383/3/3
f 389/3/3 375/3/3 369/3/3
f 390/3/3 375/3/3 389/3/3
f 391/3/3 385/3/3 382/3/3
f 392/3/3 385/3/3 391/3/3
f 393/3/3 387/3/3 386/3/3
f 393/3/3 388/3/3 387/3/3
f 394/3/3 370/3/3 384/3/3
f 394/3/3 388/3/3 393/3/3
f 394/3/3 384/3/3 388/3/3
f 401/3/3 398/3/3 397/3/3
f 402/3/3 400/3/3 399/3/3
f 403/3/3 400/3/3 402/3/3
f 404/3/3 400/3/3 403/3/3
f 406/3/3 401/3/3 397/3/3
f 406/3/3 402/3/3 401/3/3
f 406/3/3 403/3/3 402/3/3
f 407/3/3 400/3/3 404/3/3
f 408/3/3 400/3/3 407/3/3
f 409/3/3 406/3/3 405/3/3
f 410/3/3 403/3/3 406/3/3
f 410/3/3 406/3/3 409/3/3
f 411/3/3 396/3/3 395/3/3
f 414/3/3 400/3/3 408/3/3
f 415/3/3 412/3/3 411/3/3
f 416/3/3 403/3/3 410/3/3
f 417/3/3 403/3/3 416/3/3
f 418/3/3 414/3/3 413/3/3
f 419/3/3 415/3/3 411/3/3
f 419/3/3 418/3/3 417/3/3
f 419/3/3 417/3/3 416/3/3
f 419/3/3 411/3/3 395/3/3
f 419/3/3 416/3/3 415/3/3
f 420/3/3 414/3/3 418/3/3
f 420/3/3 418/3/3 419/3/3
f 420/3/3 400/3/3 414/3/3
f 426/1/3 422/1/3 421/1/3
f 427/1/3 424/1/3 423/1/3
f 429/1/3 426/1/3 425/1/3
f 429/1/3 422/1/3 426/1/3
f 430/1/3 422/1/3 429/1/3
f 431/1/3 429/1/3 425/1/3
f 433/1/3 428/1/3 427/1/3
f 433/1/3 427/1/3 423/1/3
f 434/1/3 428/1/3 433/1/3
f 437/1/3 433/1/3 423/1/3
f 438/1/3 433/1/3 437/1/3
f 440/1/3 432/1/3 431/1/3
f 440/1/3 431/1/3 425/1/3
f 441/1/3 432/1/3 440/1/3
f 442/1/3 436/1/3 435/1/3
f 443/1/3 436/1/3 442/1/3
f 445/3/3 440/3/3 439/3/3
f 446/1/3 441/1/3 440/1/3
f 446/3/3 440/3/3 445/3/3
f 447/3/3 442/3/3 441/3/3
f 447/1/3 441/1/3 446/1/3
f 448/1/3 443/1/3 442/1/3
f 448/3/3 442/3/3 447/3/3
f 449/3/3 444/3/3 443/3/3
f 449/1/3 443/1/3 448/1/3
f 450/3/3 444/3/3 449/3/3
f 451/1/3 449/1/3 448/1/3
f 452/1/3 449/1/3 451/1/3
f 455/1/3 447/1/3 446/1/3
f 456/1/3 447/1/3 455/1/3
f 457/1/3 454/1/3 453/1/3
f 459/1/3 455/1/3 446/1/3
f 461/1/3 459/1/3 446/1/3
f 461/1/3 460/1/3 459/1/3
f 462/1/3 460/1/3 461/1/3
f 463/1/3 458/1/3 457/1/3
f 463/1/3 457/1/3 453/1/3
f 464/1/3 458/1/3 463/1/3
f 465/1/3 460/1/3 462/1/3
f 466/1/3 460/1/3 465/1/3
f 467/1/3 463/1/3 453/1/3
f 468/1/3 463/1/3 467/1/3
f 473/3/3 470/3/3 469/3/3
f 474/3/3 470/3/3 473/3/3
f 475/3/3 472/3/3 471/3/3
f 476/3/3 472/3/3 475/3/3
f 481/3/3 478/3/3 477/3/3
f 482/3/3 478/3/3 481/3/3
f 483/3/3 480/3/3 479/3/3
f 484/3/3 480/3/3 483/3/3
f 489/3/3 486/3/3 485/3/3
f 490/3/3 486/3/3 489/3/3
f 491/3/3 488/3/3 487/3/3
f 492/3/3 488/3/3 491/3/3
f 495/3/3 494/3/3 493/3/3
f 496/3/3 494/3/3 495/3/3
f 499/3/3 498/3/3 497/3/3
f 500/3/3 498/3/3 499/3/3
f 505/3/3 502/3/3 501/3/3
f 506/3/3 502/3/3 505/3/3
f 507/3/3 504/3/3 503/3/3
f 508/3/3 504/3/3 507/3/3
f 511/3/3 510/3/3 509/3/3
f 512/3/3 510/3/3 511/3/3
f 515/3/3 514/3/3 513/3/3
f 516/3/3 514/3/3 515/3/3
f 521/3/3 520/3/3 519/3/3
f 522/3/3 520/3/3 521/3/3
f 523/3/3 518/3/3 517/3/3
f 524/3/3 518/3/3 523/3/3
f 527/3/3 526/3/3 525/3/3
f 528/3/3 526/3/3 527/3/3
f 531/3/3 530/3/3 529/3/3
f 532/3/3 530/3/3 531/3/3
f 536/2/3 534/2/3 533/2/3
f 537/3/3 536/3/3 535/3/3
f 538/2/3 534/2/3 536/2/3
f 538/3/3 536/3/3 537/3/3
f 539/2/3 534/2/3 538/2/3
f 540/2/3 534/2/3 539/2/3
f 543/3/3 542/3/3 541/3/3
f 544/3/3 542/3/3 543/3/3
f 547/2/3 546/2/3 545/2/3
f 548/2/3 546/2/3 547/2/3
f 551/2/3 550/2/3 549/2/3
f 552/2/3 550/2/3 551/2/3
f 556/2/3 554/2/3 553/2/3
f 557/2/3 554/2/3 556/2/3
f 557/2/3 556/2/3 555/2/3
f 558/2/3 554/2/3 557/2/3
f 559/2/3 557/2/3 555/2/3
f 560/2/3 557/2/3 559/2/3
f 564/3/3 562/3/3 561/3/3
f 565/3/3 562/3/3 564/3/3
f 566/3/3 562/3/3 565/3/3
f 567/3/3 562/3/3 566/3/3
f 569/3/3 564/3/3 563/3/3
f 569/3/3 565/3/3 564/3/3
f 570/3/3 565/3/3 569/3/3
f 571/3/3 568/3/3 567/3/3
f 571/3/3 567/3/3 566/3/3
f 572/3/3 568/3/3 571/3/3
f 573/3/3 568/3/3 572/3/3
f 575/3/3 573/3/3 572/3/3
f 575/3/3 574/3/3 573/3/3
f 576/3/3 574/3/3 575/3/3
f 577/3/3 574/3/3 576/3/3
f 578/3/3 574/3/3 577/3/3
f 582/3/3 580/3/3 579/3/3
f 583/3/3 582/3/3 581/3/3
f 584/3/3 580/3/3 582/3/3
f 584/3/3 582/3/3 583/3/3
f 588/3/3 583/3/3 581/3/3
f 589/3/3 588/3/3 587/3/3
f 590/3/3 583/3/3 588/3/3
f 590/3/3 588/3/3 589/3/3
f 591/3/3 586/3/3 585/3/3
f 592/3/3 586/3/3 591/3/3
f 593/3/3 586/3/3 592/3/3
f 594/3/3 589/3/3 587/3/3
f 595/3/3 593/3/3 592/3/3
f 595/3/3 594/3/3 593/3/3
f 596/3/3 589/3/3 594/3/3
f 596/3/3 594/3/3 595/3/3
f 597/3/4 598/3/4 600/3/4
f 600/3/4 598/3/4 601/3/4
f 601/3/4 598/3/4 602/3/4
f 602/3/4 598/3/4 603/3/4
f 599/3/4 600/3/4 605/3/4
f 600/3/4 601/3/4 605/3/4
f 605/3/4 601/3/4 606/3/4
f 603/3/4 604/3/4 607/3/4
f 602/3/4 603/3/4 607/3/4
f 607/3/4 604/3/4 608/3/4
f 608/3/4 604/3/4 609/3/4
f 608/3/4 609/3/4 611/3/4
f 609/3/4 610/3/4 611/3/4
f 611/3/4 610/3/4 612/3/4
f 612/3/4 610/3/4 613/3/4
f 613/3/4 610/3/4 614/3/4
f 615/3/4 616/3/4 618/3/4
f 617/3/4 618/3/4 619/3/4
f 618/3/4 616/3/4 620/3/4
f 619/3/4 618/3/4 620/3/4
f 617/3/4 619/3/4 624/3/4
f 623/3/4 624/3/4 625/3/4
f 624/3/4 619/3/4 626/3/4
f 625/3/4 624/3/4 626/3/4
f 621/3/4 622/3/4 627/3/4
f 627/3/4 622/3/4 628/3/4
f 628/3/4 622/3/4 629/3/4
f 623/3/4 625/3/4 630/3/4
f 628/3/4 629/3/4 631/3/4
f 629/3/4 630/3/4 631/3/4
f 630/3/4 625/3/4 632/3/4
f 631/3/4 630/3/4 632/3/4
f 633/2/4 634/2/4 636/2/4
f 636/2/4 634/2/4 637/2/4
f 635/2/4 636/2/4 637/2/4
f 637/2/4 634/2/4 638/2/4
f 635/2/4 637/2/4 639/2/4
f 639/2/4 637/2/4 640/2/4
f 641/2/4 642/2/4 643/2/4
f 643/2/4 642/2/4 644/2/4
f 645/2/4 646/2/4 647/2/4
f 647/2/4 646/2/4 648/2/4
f 649/3/4 650/3/4 651/3/4
f 651/3/4 650/3/4 652/3/4
f 653/2/4 654/2/4 656/2/4
f 655/3/4 656/3/4 657/3/4
f 656/2/4 654/2/4 658/2/4
f 657/3/4 656/3/4 658/3/4
f 658/2/4 654/2/4 659/2/4
f 659/2/4 654/2/4 660/2/4
f 661/3/4 662/3/4 663/3/4
f 663/3/4 662/3/4 664/3/4
f 665/3/4 666/3/4 667/3/4
f 667/3/4 666/3/4 668/3/4
f 669/3/4 670/3/4 673/3/4
f 673/3/4 670/3/4 674/3/4
f 671/3/4 672/3/4 675/3/4
f 675/3/4 672/3/4 676/3/4
f 677/3/4 678/3/4 679/3/4
f 679/3/4 678/3/4 680/3/4
f 681/3/4 682/3/4 683/3/4
f 683/3/4 682/3/4 684/3/4
f 687/3/4 688/3/4 689/3/4
f 689/3/4 688/3/4 690/3/4
f 685/3/4 686/3/4 691/3/4
f 691/3/4 686/3/4 692/3/4
f 693/3/4 694/3/4 695/3/4
f 695/3/4 694/3/4 696/3/4
f 697/3/4 698/3/4 699/3/4
f 699/3/4 698/3/4 700/3/4
f 701/3/4 702/3/4 705/3/4
f 705/3/4 702/3/4 706/3/4
f 703/3/4 704/3/4 707/3/4
f 707/3/4 704/3/4 708/3/4
f 709/3/4 710/3/4 713/3/4
f 713/3/4 710/3/4 714/3/4
f 711/3/4 712/3/4 715/3/4
f 715/3/4 712/3/4 716/3/4
f 717/3/4 718/3/4 721/3/4
f 721/3/4 718/3/4 722/3/4
f 719/3/4 720/3/4 723/3/4
f 723/3/4 720/3/4 724/3/4
f 725/3/4 726/3/4 727/3/4
f 727/3/4 726/3/4 728/3/4
f 729/3/4 730/3/4 731/3/4
f 731/3/4 730/3/4 732/3/4
f 733/3/4 734/3/4 735/3/4
f 735/3/4 734/3/4 736/3/4
f 741/3/5 738/3/5 737/3/5
f 742/3/5 740/3/5 739/3/5
f 744/3/5 741/3/5 737/3/5
f 744/3/5 742/3/5 741/3/5
f 745/3/5 740/3/5 742/3/5
f 745/3/5 742/3/5 744/3/5
f 747/3/5 744/3/5 743/3/5
f 747/3/5 746/3/5 745/3/5
f 747/3/5 745/3/5 744/3/5
f 748/3/5 746/3/5 747/3/5
f 749/3/5 746/3/5 748/3/5
f 750/3/5 746/3/5 749/3/5
f 752/3/5 749/3/5 748/3/5
f 753/3/5 749/3/5 752/3/5
f 755/3/5 752/3/5 751/3/5
f 755/3/5 754/3/5 753/3/5
f 755/3/5 753/3/5 752/3/5
f 756/3/5 754/3/5 755/3/5
f 757/3/5 754/3/5 756/3/5
f 758/3/5 754/3/5 757/3/5
f 759/3/5 757/3/5 756/3/5
f 760/3/5 757/3/5 759/3/5
f 761/3/5 759/3/5 756/3/5
f 762/3/5 759/3/5 761/3/5
f 763/3/5 757/3/5 760/3/5
f 764/3/5 757/3/5 763/3/5
f 769/3/5 766/3/5 765/3/5
f 770/3/5 766/3/5 769/3/5
f 771/3/5 768/3/5 767/3/5
f 772/3/5 768/3/5 771/3/5
f 774/3/5 769/3/5 765/3/5
f 775/3/5 768/3/5 772/3/5
f 777/3/5 774/3/5 773/3/5
f 778/3/5 769/3/5 774/3/5
f 778/3/5 774/3/5 777/3/5
f 779/3/5 776/3/5 775/3/5
f 779/3/5 775/3/5 772/3/5
f 780/3/5 776/3/5 779/3/5
f 781/3/5 777/3/5 773/3/5
f 782/3/5 777/3/5 781/3/5
f 783/3/5 776/3/5 780/3/5
f 784/3/5 776/3/5 783/3/5
f 789/3/5 786/3/5 785/3/5
f 792/3/5 788/3/5 787/3/5
f 793/3/5 790/3/5 789/3/5
f 793/3/5 789/3/5 785/3/5
f 794/3/5 790/3/5 793/3/5
f 795/3/5 792/3/5 791/3/5
f 796/3/5 788/3/5 792/3/5
f 796/3/5 792/3/5 795/3/5
f 797/3/5 790/3/5 794/3/5
f 800/3/5 795/3/5 791/3/5
f 801/3/5 798/3/5 797/3/5
f 801/3/5 797/3/5 794/3/5
f 802/3/5 798/3/5 801/3/5
f 803/3/5 800/3/5 799/3/5
f 804/3/5 795/3/5 800/3/5
f 804/3/5 800/3/5 803/3/5
f 807/3/5 806/3/5 805/3/5
f 808/3/5 806/3/5 807/3/5
f 813/3/5 810/3/5 809/3/5
f 814/3/5 810/3/5 813/3/5
f 815/3/5 812/3/5 811/3/5
f 816/3/5 812/3/5 815/3/5
f 819/3/5 818/3/5 817/3/5
f 820/3/5 818/3/5 819/3/5
f 825/3/5 822/3/5 821/3/5
f 826/3/5 822/3/5 825/3/5
f 827/3/5 824/3/5 823/3/5
f 828/3/5 824/3/5 827/3/5
f 837/3/5 830/3/5 829/3/5
f 838/3/5 830/3/5 837/3/5
f 839/3/5 832/3/5 831/3/5
f 840/3/5 832/3/5 839/3/5
f 841/3/5 834/3/5 833/3/5
f 842/3/5 834/3/5 841/3/5
f 843/3/5 836/3/5 835/3/5
f 844/3/5 836/3/5 843/3/5
f 849/3/5 846/3/5 845/3/5
f 850/3/5 846/3/5 849/3/5
f 851/3/5 848/3/5 847/3/5
f 852/3/5 848/3/5 851/3/5
f 861/3/5 854/3/5 853/3/5
f 862/3/5 854/3/5 861/3/5
f 863/3/5 856/3/5 855/3/5
f 864/3/5 856/3/5 863/3/5
f 865/3/5 858/3/5 857/3/5
f 866/3/5 858/3/5 865/3/5
f 867/3/5 860/3/5 859/3/5
f 868/3/5 860/3/5 867/3/5
f 873/3/5 870/3/5 869/3/5
f 874/3/5 870/3/5 873/3/5
f 875/3/5 872/3/5 871/3/5
f 876/3/5 872/3/5 875/3/5
f 879/2/5 878/2/5 877/2/5
f 880/2/5 878/2/5 879/2/5
f 881/3/6 882/3/6 885/3/6
f 885/3/6 882/3/6 886/3/6
f 883/3/6 884/3/6 887/3/6
f 887/3/6 884/3/6 888/3/6
f 889/3/6 890/3/6 893/3/6
f 893/3/6 890/3/6 894/3/6
f 891/3/6 892/3/6 895/3/6
f 895/3/6 892/3/6 896/3/6
f 897/3/6 898/3/6 901/3/6
f 901/3/6 898/3/6 902/3/6
f 899/3/6 900/3/6 903/3/6
f 903/3/6 900/3/6 904/3/6
f 905/3/6 906/3/6 909/3/6
f 909/3/6 906/3/6 910/3/6
f 907/3/6 908/3/6 911/3/6
f 911/3/6 908/3/6 912/3/6
f 913/3/6 914/3/6 915/3/6
f 915/3/6 914/3/6 916/3/6
f 917/3/6 918/3/6 921/3/6
f 921/3/6 918/3/6 922/3/6
f 919/3/6 920/3/6 923/3/6
f 923/3/6 920/3/6 924/3/6
f 925/3/6 926/3/6 927/3/6
f 927/3/6 926/3/6 928/3/6
f 929/3/6 930/3/6 933/3/6
f 933/3/6 930/3/6 934/3/6
f 931/3/6 932/3/6 935/3/6
f 935/3/6 932/3/6 936/3/6
f 929/3/6 933/3/6 938/3/6
f 936/3/6 932/3/6 939/3/6
f 937/3/6 938/3/6 941/3/6
f 938/3/6 933/3/6 942/3/6
f 941/3/6 938/3/6 942/3/6
f 939/3/6 940/3/6 943/3/6
f 936/3/6 939/3/6 943/3/6
f 943/3/6 940/3/6 944/3/6
f 937/3/6 941/3/6 945/3/6
f 945/3/6 941/3/6 946/3/6
f 944/3/6 940/3/6 947/3/6
f 947/3/6 940/3/6 948/3/6
f 949/3/6 950/3/6 953/3/6
f 951/3/6 952/3/6 956/3/6
f 953/3/6 954/3/6 957/3/6
f 949/3/6 953/3/6 957/3/6
f 957/3/6 954/3/6 958/3/6
f 955/3/6 956/3/6 959/3/6
f 956/3/6 952/3/6 960/3/6
f 959/3/6 956/3/6 960/3/6
f 958/3/6 954/3/6 961/3/6
f 955/3/6 959/3/6 964/3/6
f 961/3/6 962/3/6 965/3/6
f 958/3/6 961/3/6 965/3/6
f 965/3/6 962/3/6 966/3/6
f 963/3/6 964/3/6 967/3/6
f 964/3/6 959/3/6 968/3/6
f 967/3/6 964/3/6 968/3/6
f 969/3/6 970/3/6 971/3/6
f 971/3/6 970/3/6 972/3/6
f 973/3/6 974/3/6 977/3/6
f 977/3/6 974/3/6 978/3/6
f 975/3/6 976/3/6 979/3/6
f 979/3/6 976/3/6 980/3/6
f 981/3/6 982/3/6 983/3/6
f 983/3/6 982/3/6 984/3/6
f 985/3/6 986/3/6 990/3/6
f 990/3/6 986/3/6 991/3/6
f 991/3/6 986/3/6 992/3/6
f 987/3/6 988/3/6 993/3/6
f 993/3/6 988/3/6 994/3/6
f 994/3/6 988/3/6 995/3/6
f 989/3/6 990/3/6 997/3/6
f 990/3/6 991/3/6 997/3/6
f 997/3/6 991/3/6 998/3/6
f 995/3/6 996/3/6 999/3/6
f 994/3/6 995/3/6 999/3/6
f 999/3/6 996/3/6 1000/3/6
f 989/3/6 997/3/6 1001/3/6
f 1001/3/6 997/3/6 1002/3/6
f 1000/3/6 996/3/6 1003/3/6
f 1003/3/6 996/3/6 1004/3/6
f 1005/3/6 1006/3/6 1009/3/6
f 1007/3/6 1008/3/6 1012/3/6
f 1009/3/6 1010/3/6 1013/3/6
f 1005/3/6 1009/3/6 1013/3/6
f 1013/3/6 1010/3/6 1014/3/6
f 1014/3/6 1010/3/6 1015/3/6
f 1011/3/6 1012/3/6 1018/3/6
f 1012/3/6 1008/3/6 1019/3/6
f 1018/3/6 1012/3/6 1019/3/6
f 1019/3/6 1008/3/6 1020/3/6
f 1015/3/6 1016/3/6 1021/3/6
f 1014/3/6 1015/3/6 1021/3/6
f 1021/3/6 1016/3/6 1022/3/6
f 1017/3/6 1018/3/6 1023/3/6
f 1018/3/6 1019/3/6 1023/3/6
f 1023/3/6 1019/3/6 1024/3/6
f 1025/3/6 1026/3/6 1027/3/6
f 1027/3/6 1026/3/6 1028/3/6
f 1029/3/6 1030/3/6 1033/3/6
f 1033/3/6 1030/3/6 1034/3/6
f 1031/3/6 1032/3/6 1035/3/6
f 1035/3/6 1032/3/6 1036/3/6
f 1037/3/6 1038/3/6 1039/3/6
f 1039/3/6 1038/3/6 1040/3/6
f 1041/3/6 1042/3/6 1046/3/6
f 1046/3/6 1042/3/6 1047/3/6
f 1047/3/6 1042/3/6 1048/3/6
f 1043/3/6 1044/3/6 1049/3/6
f 1049/3/6 1044/3/6 1050/3/6
f 1050/3/6 1044/3/6 1051/3/6
f 1045/3/6 1046/3/6 1053/3/6
f 1046/3/6 1047/3/6 1053/3/6
f 1053/3/6 1047/3/6 1054/3/6
f 1051/3/6 1052/3/6 1055/3/6
f 1050/3/6 1051/3/6 1055/3/6
f 1055/3/6 1052/3/6 1056/3/6
f 1045/3/6 1053/3/6 1057/3/6
f 1057/3/6 1053/3/6 1058/3/6
f 1056/3/6 1052/3/6 1059/3/6
f 1059/3/6 1052/3/6 1060/3/6
f 1061/3/6 1062/3/6 1065/3/6
f 1063/3/6 1064/3/6 1068/3/6
f 1065/3/6 1066/3/6 1069/3/6
f 1061/3/6 1065/3/6 1069/3/6
f 1069/3/6 1066/3/6 1070/3/6
f 1070/3/6 1066/3/6 1071/3/6
f 1067/3/6 1068/3/6 1074/3/6
f 1068/3/6 1064/3/6 1075/3/6
f 1074/3/6 1068/3/6 1075/3/6
f 1075/3/6 1064/3/6 1076/3/6
f 1071/3/6 1072/3/6 1077/3/6
f 1070/3/6 1071/3/6 1077/3/6
f 1077/3/6 1072/3/6 1078/3/6
f 1073/3/6 1074/3/6 1079/3/6
f 1074/3/6 1075/3/6 1079/3/6
f 1079/3/6 1075/3/6 1080/3/6
f 1081/2/6 1082/2/6 1084/2/6
f 1084/2/6 1082/2/6 1085/2/6
f 1083/2/6 1084/2/6 1087/2/6
f 1085/2/6 1086/2/6 1087/2/6
f 1084/2/6 1085/2/6 1087/2/6
f 1087/2/6 1086/2/6 1088/2/6
f 1083/2/6 1087/2/6 1089/2/6
f 1088/2/6 1086/2/6 1090/2/6
f 1083/2/6 1089/2/6 1091/2/6
f 1089/2/6 1090/2/6 1091/2/6
f 1091/2/6 1090/2/6 1092/2/6
f 1090/2/6 1086/2/6 1093/2/6
f 1092/2/6 1090/2/6 1093/2/6
f 1093/2/6 1086/2/6 1094/2/6
f 1092/2/6 1093/2/6 1095/2/6
f 1095/2/6 1093/2/6 1096/2/6
f 1097/2/6 1098/2/6 1099/2/6
f 1099/2/6 1098/2/6 1100/2/6
f 1101/2/6 1102/2/6 1103/2/6
f 1103/2/6 1102/2/6 1104/2/6
