# MagicaVoxel @ Ephtracy

# group
o 

# material
mtllib model-0.mtl
usemtl palette

# normals
vn -1 0 0
vn 1 0 0
vn 0 0 -1
vn 0 0 1
vn 0 -1 0
vn 0 1 0

# texcoords
vt 0.00585938 0.5
vt 0.0253906 0.5

# verts
v -0.5 0 -0.9
v -0.5 0 -0.2
v -0.5 0.1 -0.8
v -0.5 0.1 -0.3
v -0.5 0.5 -0.8
v -0.5 0.5 -0.7
v -0.5 0.5 -0.4
v -0.5 0.5 -0.3
v -0.5 0.7 -0.9
v -0.5 0.7 -0.7
v -0.5 0.7 -0.4
v -0.5 0.7 -0.2
v 0.3 0.4 -0.9
v 0.3 0.4 -0.8
v 0.3 0.4 -0.3
v 0.3 0.4 -0.2
v 0.3 0.6 -0.8
v 0.3 0.6 -0.7
v 0.3 0.6 -0.4
v 0.3 0.6 -0.3
v 0.3 0.7 -0.9
v 0.3 0.7 -0.7
v 0.3 0.7 -0.4
v 0.3 0.7 -0.2
v 0.7 0 -0.9
v 0.7 0 -0.2
v 0.7 0.3 -0.8
v 0.7 0.3 -0.7
v 0.7 0.3 -0.6
v 0.7 0.3 -0.5
v 0.7 0.3 -0.4
v 0.7 0.3 -0.3
v 0.7 0.4 -0.9
v 0.7 0.4 -0.8
v 0.7 0.4 -0.7
v 0.7 0.4 -0.6
v 0.7 0.4 -0.5
v 0.7 0.4 -0.4
v 0.7 0.4 -0.3
v 0.7 0.4 -0.2
v -0.5 0 -0.9
v -0.5 0.7 -0.9
v 0.3 0.4 -0.9
v 0.3 0.7 -0.9
v 0.7 0 -0.9
v 0.7 0.4 -0.9
v -0.5 0 -0.2
v -0.5 0.7 -0.2
v 0.3 0.4 -0.2
v 0.3 0.7 -0.2
v 0.7 0 -0.2
v 0.7 0.4 -0.2
v -0.5 0 -0.9
v 0.7 0 -0.9
v -0.5 0 -0.2
v 0.7 0 -0.2
v 0.3 0.4 -0.9
v 0.7 0.4 -0.9
v 0.3 0.4 -0.8
v 0.7 0.4 -0.8
v 0.4 0.4 -0.7
v 0.7 0.4 -0.7
v 0.4 0.4 -0.6
v 0.7 0.4 -0.6
v 0.4 0.4 -0.5
v 0.7 0.4 -0.5
v 0.4 0.4 -0.4
v 0.7 0.4 -0.4
v 0.3 0.4 -0.3
v 0.7 0.4 -0.3
v 0.3 0.4 -0.2
v 0.7 0.4 -0.2
v -0.5 0.7 -0.9
v 0.3 0.7 -0.9
v -0.5 0.7 -0.7
v -0.4 0.7 -0.7
v 0.2 0.7 -0.7
v 0.3 0.7 -0.7
v -0.5 0.7 -0.4
v -0.4 0.7 -0.4
v 0.2 0.7 -0.4
v 0.3 0.7 -0.4
v -0.5 0.7 -0.2
v 0.3 0.7 -0.2

# faces
f 1/1/1 2/1/1 3/1/1
f 3/1/1 2/1/1 4/1/1
f 1/1/1 3/1/1 5/1/1
f 3/2/1 4/2/1 5/2/1
f 5/2/1 4/2/1 6/2/1
f 6/2/1 4/2/1 7/2/1
f 4/1/1 2/1/1 8/1/1
f 7/2/1 4/2/1 8/2/1
f 1/1/1 5/1/1 9/1/1
f 5/1/1 6/1/1 9/1/1
f 6/2/1 7/2/1 10/2/1
f 9/1/1 6/1/1 10/1/1
f 7/1/1 8/1/1 11/1/1
f 10/2/1 7/2/1 11/2/1
f 8/1/1 2/1/1 12/1/1
f 11/1/1 8/1/1 12/1/1
f 17/1/2 14/1/2 13/1/2
f 17/2/2 15/2/2 14/2/2
f 18/2/2 15/2/2 17/2/2
f 19/2/2 15/2/2 18/2/2
f 20/1/2 16/1/2 15/1/2
f 20/2/2 15/2/2 19/2/2
f 21/1/2 17/1/2 13/1/2
f 21/1/2 18/1/2 17/1/2
f 22/2/2 19/2/2 18/2/2
f 22/1/2 18/1/2 21/1/2
f 23/1/2 20/1/2 19/1/2
f 23/2/2 19/2/2 22/2/2
f 24/1/2 16/1/2 20/1/2
f 24/1/2 20/1/2 23/1/2
f 27/1/2 26/1/2 25/1/2
f 28/1/2 26/1/2 27/1/2
f 29/1/2 26/1/2 28/1/2
f 30/1/2 26/1/2 29/1/2
f 31/1/2 26/1/2 30/1/2
f 32/1/2 26/1/2 31/1/2
f 33/1/2 27/1/2 25/1/2
f 34/2/2 28/2/2 27/2/2
f 34/1/2 27/1/2 33/1/2
f 35/1/2 29/1/2 28/1/2
f 35/2/2 28/2/2 34/2/2
f 36/2/2 30/2/2 29/2/2
f 36/1/2 29/1/2 35/1/2
f 37/1/2 31/1/2 30/1/2
f 37/2/2 30/2/2 36/2/2
f 38/2/2 32/2/2 31/2/2
f 38/1/2 31/1/2 37/1/2
f 39/1/2 26/1/2 32/1/2
f 39/2/2 32/2/2 38/2/2
f 40/1/2 26/1/2 39/1/2
f 41/1/3 42/1/3 43/1/3
f 43/1/3 42/1/3 44/1/3
f 41/1/3 43/1/3 45/1/3
f 45/1/3 43/1/3 46/1/3
f 49/1/4 48/1/4 47/1/4
f 50/1/4 48/1/4 49/1/4
f 51/1/4 49/1/4 47/1/4
f 52/1/4 49/1/4 51/1/4
f 53/1/5 54/1/5 55/1/5
f 55/1/5 54/1/5 56/1/5
f 59/1/6 58/1/6 57/1/6
f 60/1/6 58/1/6 59/1/6
f 61/2/6 60/2/6 59/2/6
f 62/2/6 60/2/6 61/2/6
f 63/2/6 61/2/6 59/2/6
f 63/1/6 62/1/6 61/1/6
f 64/1/6 62/1/6 63/1/6
f 65/2/6 63/2/6 59/2/6
f 65/2/6 64/2/6 63/2/6
f 66/2/6 64/2/6 65/2/6
f 67/2/6 65/2/6 59/2/6
f 67/1/6 66/1/6 65/1/6
f 68/1/6 66/1/6 67/1/6
f 69/2/6 67/2/6 59/2/6
f 69/2/6 68/2/6 67/2/6
f 70/2/6 68/2/6 69/2/6
f 71/1/6 70/1/6 69/1/6
f 72/1/6 70/1/6 71/1/6
f 75/1/6 74/1/6 73/1/6
f 76/1/6 74/1/6 75/1/6
f 77/1/6 74/1/6 76/1/6
f 78/1/6 74/1/6 77/1/6
f 79/2/6 76/2/6 75/2/6
f 80/1/6 77/1/6 76/1/6
f 80/2/6 76/2/6 79/2/6
f 81/2/6 78/2/6 77/2/6
f 81/1/6 77/1/6 80/1/6
f 82/2/6 78/2/6 81/2/6
f 83/1/6 80/1/6 79/1/6
f 83/1/6 81/1/6 80/1/6
f 83/1/6 82/1/6 81/1/6
f 84/1/6 82/1/6 83/1/6
