# MagicaVoxel @ Ephtracy

# group
o 

# material
mtllib model.mtl
usemtl palette

# normals
vn -1 0 0
vn 1 0 0
vn 0 0 1
vn 0 0 -1
vn 0 -1 0
vn 0 1 0

# texcoords
vt 0.720703 0.5
vt 0.724609 0.5
vt 0.775391 0.5

# verts
v -0.2 0.8 1.2
v -0.2 0.8 -1.2
v -0.2 1.4 1.2
v -0.2 1.4 -1.2
v 0 0 0.3
v 0 0 0.1
v 0 0 -0.0999999
v 0 0 -0.3
v 0 0.1 0.5
v 0 0.1 0.3
v 0 0.1 0.1
v 0 0.1 -0.0999999
v 0 0.1 -0.3
v 0 0.1 -0.5
v 0 0.2 1.1
v 0 0.2 0.5
v 0 0.2 -0.5
v 0 0.2 -1.1
v 0 0.3 1.2
v 0 0.3 1.1
v 0 0.3 -1.1
v 0 0.3 -1.2
v 0 0.8 1.2
v 0 0.8 -1.2
v 0.5 0.9 1.2
v 0.5 0.9 0.5
v 0.5 0.9 -0.5
v 0.5 0.9 -1.2
v 0.5 1.1 0.5
v 0.5 1.1 -0.5
v 0.5 1.4 1.2
v 0.5 1.4 -1.2
v 1 0.2 1.1
v 1 0.2 0.5
v 1 0.2 -0.5
v 1 0.2 -1.1
v 1 0.3 1.2
v 1 0.3 1.1
v 1 0.3 -1.1
v 1 0.3 -1.2
v 1 0.7 1.1
v 1 0.7 1
v 1 0.7 -1
v 1 0.7 -1.1
v 1 0.8 1.1
v 1 0.8 1
v 1 0.8 -1
v 1 0.8 -1.1
v 1 0.9 1.2
v 1 0.9 0.5
v 1 0.9 -0.5
v 1 0.9 -1.2
v 1.2 0.1 0.5
v 1.2 0.1 0.3
v 1.2 0.1 0.1
v 1.2 0.1 -0.0999999
v 1.2 0.1 -0.3
v 1.2 0.1 -0.5
v 1.2 0.9 0.3
v 1.2 0.9 0.1
v 1.2 0.9 -0.0999999
v 1.2 0.9 -0.3
v 1.2 1.1 0.5
v 1.2 1.1 -0.5
v 1.3 0 0.3
v 1.3 0 0.1
v 1.3 0 -0.0999999
v 1.3 0 -0.3
v 1.3 0.9 0.3
v 1.3 0.9 0.1
v 1.3 0.9 -0.0999999
v 1.3 0.9 -0.3
v -0.2 0.8 1.2
v -0.2 1.4 1.2
v 0 0.3 1.2
v 0 0.8 1.2
v 0.3 1.2 1.2
v 0.3 1.3 1.2
v 0.4 1.2 1.2
v 0.4 1.3 1.2
v 0.5 0.9 1.2
v 0.5 1.4 1.2
v 1 0.3 1.2
v 1 0.9 1.2
v 0 0.2 1.1
v 0 0.3 1.1
v 1 0.2 1.1
v 1 0.3 1.1
v 0 0.1 0.5
v 0 0.2 0.5
v 0.5 0.9 0.5
v 0.5 1.1 0.5
v 1 0.2 0.5
v 1 0.9 0.5
v 1.2 0.1 0.5
v 1.2 1.1 0.5
v 0 0 0.3
v 0 0.1 0.3
v 1.2 0.1 0.3
v 1.2 0.9 0.3
v 1.3 0 0.3
v 1.3 0.9 0.3
v 0 0 -0.0999999
v 0 0.1 -0.0999999
v 1.2 0.1 -0.0999999
v 1.2 0.9 -0.0999999
v 1.3 0 -0.0999999
v 1.3 0.9 -0.0999999
v 0 0 0.1
v 0 0.1 0.1
v 1.2 0.1 0.1
v 1.2 0.9 0.1
v 1.3 0 0.1
v 1.3 0.9 0.1
v 0 0 -0.3
v 0 0.1 -0.3
v 1.2 0.1 -0.3
v 1.2 0.9 -0.3
v 1.3 0 -0.3
v 1.3 0.9 -0.3
v 0 0.1 -0.5
v 0 0.2 -0.5
v 0.5 0.9 -0.5
v 0.5 1.1 -0.5
v 1 0.2 -0.5
v 1 0.9 -0.5
v 1.2 0.1 -0.5
v 1.2 1.1 -0.5
v 0 0.2 -1.1
v 0 0.3 -1.1
v 1 0.2 -1.1
v 1 0.3 -1.1
v -0.2 0.8 -1.2
v -0.2 1.4 -1.2
v 0 0.3 -1.2
v 0 0.8 -1.2
v 0.3 1.2 -1.2
v 0.3 1.3 -1.2
v 0.4 1.2 -1.2
v 0.4 1.3 -1.2
v 0.5 0.9 -1.2
v 0.5 1.4 -1.2
v 1 0.3 -1.2
v 1 0.9 -1.2
v 0 0 0.3
v 1.3 0 0.3
v 0 0 0.1
v 1.3 0 0.1
v 0 0 -0.0999999
v 1.3 0 -0.0999999
v 0 0 -0.3
v 1.3 0 -0.3
v 0 0.1 0.5
v 1.2 0.1 0.5
v 0 0.1 0.3
v 1.2 0.1 0.3
v 0 0.1 0.1
v 1.2 0.1 0.1
v 0 0.1 -0.0999999
v 1.2 0.1 -0.0999999
v 0 0.1 -0.3
v 1.2 0.1 -0.3
v 0 0.1 -0.5
v 1.2 0.1 -0.5
v 0 0.2 1.1
v 1 0.2 1.1
v 0 0.2 0.5
v 1 0.2 0.5
v 0 0.2 -0.5
v 1 0.2 -0.5
v 0 0.2 -1.1
v 1 0.2 -1.1
v 0 0.3 1.2
v 1 0.3 1.2
v 0 0.3 1.1
v 1 0.3 1.1
v 0 0.3 -1.1
v 1 0.3 -1.1
v 0 0.3 -1.2
v 1 0.3 -1.2
v -0.2 0.8 1.2
v 0 0.8 1.2
v -0.2 0.8 -1.2
v 0 0.8 -1.2
v 0.5 0.9 1.2
v 1 0.9 1.2
v 0.5 0.9 0.5
v 1 0.9 0.5
v 1.2 0.9 0.3
v 1.3 0.9 0.3
v 1.2 0.9 0.1
v 1.3 0.9 0.1
v 1.2 0.9 -0.0999999
v 1.3 0.9 -0.0999999
v 1.2 0.9 -0.3
v 1.3 0.9 -0.3
v 0.5 0.9 -0.5
v 1 0.9 -0.5
v 0.5 0.9 -1.2
v 1 0.9 -1.2
v 0.5 1.1 0.5
v 1.2 1.1 0.5
v 0.5 1.1 -0.5
v 1.2 1.1 -0.5
v -0.2 1.4 1.2
v 0.5 1.4 1.2
v -0.2 1.4 -1.2
v 0.5 1.4 -1.2

# faces
f 3/3/1 2/3/1 1/3/1
f 4/3/1 2/3/1 3/3/1
f 10/2/1 6/2/1 5/2/1
f 11/2/1 6/2/1 10/2/1
f 12/2/1 8/2/1 7/2/1
f 13/2/1 8/2/1 12/2/1
f 16/1/1 11/1/1 10/1/1
f 16/1/1 14/1/1 13/1/1
f 16/1/1 13/1/1 12/1/1
f 16/1/1 12/1/1 11/1/1
f 16/1/1 10/1/1 9/1/1
f 17/1/1 14/1/1 16/1/1
f 20/3/1 16/3/1 15/3/1
f 20/3/1 18/3/1 17/3/1
f 20/3/1 17/3/1 16/3/1
f 21/3/1 18/3/1 20/3/1
f 23/3/1 20/3/1 19/3/1
f 23/3/1 22/3/1 21/3/1
f 23/3/1 21/3/1 20/3/1
f 24/3/1 22/3/1 23/3/1
f 25/3/2 26/3/2 29/3/2
f 27/3/2 28/3/2 30/3/2
f 25/3/2 29/3/2 31/3/2
f 29/3/2 30/3/2 31/3/2
f 30/3/2 28/3/2 32/3/2
f 31/3/2 30/3/2 32/3/2
f 33/3/2 34/3/2 38/3/2
f 35/3/2 36/3/2 39/3/2
f 37/3/2 38/3/2 41/3/2
f 38/3/2 34/3/2 41/3/2
f 41/3/2 34/3/2 42/3/2
f 39/3/2 40/3/2 43/3/2
f 35/3/2 39/3/2 43/3/2
f 43/3/2 40/3/2 44/3/2
f 41/1/2 42/1/2 45/1/2
f 37/3/2 41/3/2 45/3/2
f 42/3/2 34/3/2 46/3/2
f 45/1/2 42/1/2 46/1/2
f 43/1/2 44/1/2 47/1/2
f 35/3/2 43/3/2 47/3/2
f 44/3/2 40/3/2 48/3/2
f 47/1/2 44/1/2 48/1/2
f 37/3/2 45/3/2 49/3/2
f 45/3/2 46/3/2 49/3/2
f 46/3/2 34/3/2 50/3/2
f 49/3/2 46/3/2 50/3/2
f 35/3/2 47/3/2 51/3/2
f 47/3/2 48/3/2 51/3/2
f 48/3/2 40/3/2 52/3/2
f 51/3/2 48/3/2 52/3/2
f 53/1/2 54/1/2 59/1/2
f 55/1/2 56/1/2 60/1/2
f 60/1/2 56/1/2 61/1/2
f 57/1/2 58/1/2 62/1/2
f 60/1/2 61/1/2 63/1/2
f 61/1/2 62/1/2 63/1/2
f 53/1/2 59/1/2 63/1/2
f 59/1/2 60/1/2 63/1/2
f 62/1/2 58/1/2 64/1/2
f 63/1/2 62/1/2 64/1/2
f 65/2/2 66/2/2 69/2/2
f 69/2/2 66/2/2 70/2/2
f 67/2/2 68/2/2 71/2/2
f 71/2/2 68/2/2 72/2/2
f 76/3/3 74/3/3 73/3/3
f 77/3/3 74/3/3 76/3/3
f 77/3/3 76/3/3 75/3/3
f 78/3/3 74/3/3 77/3/3
f 79/3/3 77/3/3 75/3/3
f 79/1/3 78/1/3 77/1/3
f 80/3/3 74/3/3 78/3/3
f 80/1/3 78/1/3 79/1/3
f 81/3/3 79/3/3 75/3/3
f 81/3/3 80/3/3 79/3/3
f 82/3/3 74/3/3 80/3/3
f 82/3/3 80/3/3 81/3/3
f 83/3/3 81/3/3 75/3/3
f 84/3/3 81/3/3 83/3/3
f 87/3/3 86/3/3 85/3/3
f 88/3/3 86/3/3 87/3/3
f 93/1/3 90/1/3 89/1/3
f 94/1/3 92/1/3 91/1/3
f 95/1/3 93/1/3 89/1/3
f 95/1/3 94/1/3 93/1/3
f 96/1/3 92/1/3 94/1/3
f 96/1/3 94/1/3 95/1/3
f 99/2/3 98/2/3 97/2/3
f 101/2/3 99/2/3 97/2/3
f 101/2/3 100/2/3 99/2/3
f 102/2/3 100/2/3 101/2/3
f 105/2/3 104/2/3 103/2/3
f 107/2/3 105/2/3 103/2/3
f 107/2/3 106/2/3 105/2/3
f 108/2/3 106/2/3 107/2/3
f 109/2/4 110/2/4 111/2/4
f 109/2/4 111/2/4 113/2/4
f 111/2/4 112/2/4 113/2/4
f 113/2/4 112/2/4 114/2/4
f 115/2/4 116/2/4 117/2/4
f 115/2/4 117/2/4 119/2/4
f 117/2/4 118/2/4 119/2/4
f 119/2/4 118/2/4 120/2/4
f 121/1/4 122/1/4 125/1/4
f 123/1/4 124/1/4 126/1/4
f 121/1/4 125/1/4 127/1/4
f 125/1/4 126/1/4 127/1/4
f 126/1/4 124/1/4 128/1/4
f 127/1/4 126/1/4 128/1/4
f 129/3/4 130/3/4 131/3/4
f 131/3/4 130/3/4 132/3/4
f 133/3/4 134/3/4 136/3/4
f 136/3/4 134/3/4 137/3/4
f 135/3/4 136/3/4 137/3/4
f 137/3/4 134/3/4 138/3/4
f 135/3/4 137/3/4 139/3/4
f 137/1/4 138/1/4 139/1/4
f 138/3/4 134/3/4 140/3/4
f 139/1/4 138/1/4 140/1/4
f 135/3/4 139/3/4 141/3/4
f 139/3/4 140/3/4 141/3/4
f 140/3/4 134/3/4 142/3/4
f 141/3/4 140/3/4 142/3/4
f 135/3/4 141/3/4 143/3/4
f 143/3/4 141/3/4 144/3/4
f 147/2/5 146/2/5 145/2/5
f 148/2/5 146/2/5 147/2/5
f 151/2/5 150/2/5 149/2/5
f 152/2/5 150/2/5 151/2/5
f 155/1/5 154/1/5 153/1/5
f 156/1/5 154/1/5 155/1/5
f 159/1/5 158/1/5 157/1/5
f 160/1/5 158/1/5 159/1/5
f 163/1/5 162/1/5 161/1/5
f 164/1/5 162/1/5 163/1/5
f 167/3/5 166/3/5 165/3/5
f 168/3/5 166/3/5 167/3/5
f 171/3/5 170/3/5 169/3/5
f 172/3/5 170/3/5 171/3/5
f 175/3/5 174/3/5 173/3/5
f 176/3/5 174/3/5 175/3/5
f 179/3/5 178/3/5 177/3/5
f 180/3/5 178/3/5 179/3/5
f 183/3/5 182/3/5 181/3/5
f 184/3/5 182/3/5 183/3/5
f 185/3/6 186/3/6 187/3/6
f 187/3/6 186/3/6 188/3/6
f 189/2/6 190/2/6 191/2/6
f 191/2/6 190/2/6 192/2/6
f 193/2/6 194/2/6 195/2/6
f 195/2/6 194/2/6 196/2/6
f 197/3/6 198/3/6 199/3/6
f 199/3/6 198/3/6 200/3/6
f 201/1/6 202/1/6 203/1/6
f 203/1/6 202/1/6 204/1/6
f 205/3/6 206/3/6 207/3/6
f 207/3/6 206/3/6 208/3/6
