# MagicaVoxel @ Ephtracy

# group
o 

# material
mtllib model-1.mtl
usemtl palette

# normals
vn 0 0 1
vn 0 0 -1
vn 1 0 0
vn -1 0 0
vn 0 -1 0
vn 0 1 0

# texcoords
vt 0.00195313 0.5
vt 0.0175781 0.5
vt 0.259766 0.5
vt 0.263672 0.5
vt 0.501953 0.5

# verts
v 0.5 0 1
v -0.5 0 1
v 0.5 0.7 1
v -0.5 0.7 1
v 0.6 0 0.8
v 0.5 0 0.8
v 0.6 0.7 0.8
v 0.5 0.7 0.8
v 0.6 0 -0.5
v 0.4 0 -0.5
v 0.4 0.1 -0.5
v 0.4 0.2 -0.5
v 0.4 0.3 -0.5
v 0.4 0.4 -0.5
v 0.6 0.7 -0.5
v 0.4 0.7 -0.5
v 0.4 0 -0.9
v -0.4 0 -0.9
v 0.4 0.1 -0.9
v -0.4 0.1 -0.9
v 0.4 0 0.9
v -0.4 0 0.9
v 0.4 0.1 0.9
v -0.4 0.1 0.9
v 0.6 0 0.5
v 0.4 0 0.5
v 0.4 0.1 0.5
v 0.4 0.2 0.5
v 0.4 0.3 0.5
v 0.4 0.4 0.5
v 0.6 0.7 0.5
v 0.4 0.7 0.5
v 0.6 0 -0.8
v 0.5 0 -0.8
v 0.6 0.7 -0.8
v 0.5 0.7 -0.8
v 0.5 0 -1
v -0.5 0 -1
v 0.5 0.7 -1
v -0.5 0.7 -1
v 0.6 0 0.8
v 0.6 0.7 0.8
v 0.6 0 0.7
v 0.6 0.7 0.7
v 0.6 0 0.5
v 0.6 0.7 0.5
v 0.6 0 -0.5
v 0.6 0.7 -0.5
v 0.6 0 -0.7
v 0.6 0.7 -0.7
v 0.6 0 -0.8
v 0.6 0.7 -0.8
v 0.5 0 1
v 0.5 0.7 1
v 0.5 0 0.8
v 0.5 0.7 0.8
v 0.5 0 -0.8
v 0.5 0.7 -0.8
v 0.5 0 -1
v 0.5 0.7 -1
v 0.4 0.1 0.5
v 0.4 0.2 0.5
v 0.4 0.3 0.5
v 0.4 0.4 0.5
v 0.4 0.7 0.5
v 0.4 0.2 0.4
v 0.4 0.3 0.4
v 0.4 0.2 0.2
v 0.4 0.3 0.2
v 0.4 0.2 0.1
v 0.4 0.3 0.1
v 0.4 0.2 -0.1
v 0.4 0.3 -0.1
v 0.4 0.2 -0.2
v 0.4 0.3 -0.2
v 0.4 0.2 -0.4
v 0.4 0.3 -0.4
v 0.4 0.1 -0.5
v 0.4 0.2 -0.5
v 0.4 0.3 -0.5
v 0.4 0.4 -0.5
v 0.4 0.7 -0.5
v -0.4 0 0.9
v -0.4 0.1 0.9
v -0.4 0 -0.9
v -0.4 0.1 -0.9
v 0.4 0 0.9
v 0.4 0.1 0.9
v 0.4 0 0.5
v 0.4 0.1 0.5
v 0.4 0 -0.5
v 0.4 0.1 -0.5
v 0.4 0 -0.9
v 0.4 0.1 -0.9
v -0.5 0 1
v -0.5 0.7 1
v -0.5 0 -1
v -0.5 0.7 -1
v 0.6 0 0.8
v 0.6 0 0.7
v 0.6 0 0.5
v 0.6 0 -0.5
v 0.6 0 -0.7
v 0.6 0 -0.8
v 0.5 0 1
v 0.5 0 0.8
v 0.5 0 0.7
v 0.5 0 -0.7
v 0.5 0 -0.8
v 0.5 0 -1
v 0.4 0 0.9
v 0.4 0 0.5
v 0.4 0 -0.5
v 0.4 0 -0.9
v -0.4 0 0.9
v -0.4 0 -0.9
v -0.5 0 1
v -0.5 0 -1
v 0.4 0.1 0.9
v 0.4 0.1 0.5
v 0.4 0.1 -0.5
v 0.4 0.1 -0.9
v -0.4 0.1 0.9
v -0.4 0.1 -0.9
v 0.6 0.7 0.8
v 0.6 0.7 0.7
v 0.6 0.7 0.5
v 0.6 0.7 -0.5
v 0.6 0.7 -0.7
v 0.6 0.7 -0.8
v 0.5 0.7 1
v 0.5 0.7 0.8
v 0.5 0.7 0.7
v 0.5 0.7 -0.7
v 0.5 0.7 -0.8
v 0.5 0.7 -1
v 0.4 0.7 0.5
v 0.4 0.7 -0.5
v 0.3 0.7 0.5
v 0.3 0.7 -0.5
v -0.5 0.7 1
v -0.5 0.7 -1

# faces
f 3/3/1 2/3/1 1/3/1
f 4/3/1 2/3/1 3/3/1
f 7/4/1 6/4/1 5/4/1
f 8/4/1 6/4/1 7/4/1
f 11/3/1 10/3/1 9/3/1
f 12/3/1 11/3/1 9/3/1
f 13/3/1 12/3/1 9/3/1
f 14/3/1 13/3/1 9/3/1
f 15/3/1 14/3/1 9/3/1
f 16/3/1 14/3/1 15/3/1
f 19/3/1 18/3/1 17/3/1
f 20/3/1 18/3/1 19/3/1
f 21/3/2 22/3/2 23/3/2
f 23/3/2 22/3/2 24/3/2
f 25/3/2 26/3/2 27/3/2
f 25/3/2 27/3/2 28/3/2
f 25/3/2 28/3/2 29/3/2
f 25/3/2 29/3/2 30/3/2
f 25/3/2 30/3/2 31/3/2
f 31/3/2 30/3/2 32/3/2
f 33/4/2 34/4/2 35/4/2
f 35/4/2 34/4/2 36/4/2
f 37/3/2 38/3/2 39/3/2
f 39/3/2 38/3/2 40/3/2
f 43/4/3 42/4/3 41/4/3
f 44/4/3 42/4/3 43/4/3
f 45/3/3 44/3/3 43/3/3
f 46/3/3 44/3/3 45/3/3
f 49/3/3 48/3/3 47/3/3
f 50/3/3 48/3/3 49/3/3
f 51/4/3 50/4/3 49/4/3
f 52/4/3 50/4/3 51/4/3
f 55/3/3 54/3/3 53/3/3
f 56/3/3 54/3/3 55/3/3
f 59/3/3 58/3/3 57/3/3
f 60/3/3 58/3/3 59/3/3
f 66/1/3 62/1/3 61/1/3
f 66/2/3 63/2/3 62/2/3
f 67/1/3 64/1/3 63/1/3
f 67/2/3 63/2/3 66/2/3
f 68/1/3 66/1/3 61/1/3
f 68/1/3 67/1/3 66/1/3
f 69/1/3 64/1/3 67/1/3
f 69/1/3 67/1/3 68/1/3
f 70/1/3 68/1/3 61/1/3
f 70/2/3 69/2/3 68/2/3
f 71/1/3 64/1/3 69/1/3
f 71/2/3 69/2/3 70/2/3
f 72/1/3 70/1/3 61/1/3
f 72/1/3 71/1/3 70/1/3
f 73/1/3 64/1/3 71/1/3
f 73/1/3 71/1/3 72/1/3
f 74/1/3 72/1/3 61/1/3
f 74/2/3 73/2/3 72/2/3
f 75/1/3 64/1/3 73/1/3
f 75/2/3 73/2/3 74/2/3
f 76/1/3 74/1/3 61/1/3
f 76/1/3 75/1/3 74/1/3
f 77/1/3 64/1/3 75/1/3
f 77/1/3 75/1/3 76/1/3
f 78/1/3 76/1/3 61/1/3
f 79/2/3 77/2/3 76/2/3
f 79/1/3 76/1/3 78/1/3
f 80/1/3 64/1/3 77/1/3
f 80/2/3 77/2/3 79/2/3
f 81/5/3 65/5/3 64/5/3
f 81/1/3 64/1/3 80/1/3
f 82/5/3 65/5/3 81/5/3
f 85/3/3 84/3/3 83/3/3
f 86/3/3 84/3/3 85/3/3
f 87/3/4 88/3/4 89/3/4
f 89/3/4 88/3/4 90/3/4
f 91/3/4 92/3/4 93/3/4
f 93/3/4 92/3/4 94/3/4
f 95/3/4 96/3/4 97/3/4
f 97/3/4 96/3/4 98/3/4
f 106/4/5 100/4/5 99/4/5
f 107/3/5 101/3/5 100/3/5
f 107/4/5 100/4/5 106/4/5
f 108/4/5 104/4/5 103/4/5
f 108/3/5 103/3/5 102/3/5
f 109/4/5 104/4/5 108/4/5
f 111/3/5 106/3/5 105/3/5
f 111/3/5 107/3/5 106/3/5
f 112/3/5 101/3/5 107/3/5
f 112/3/5 107/3/5 111/3/5
f 113/3/5 110/3/5 109/3/5
f 113/3/5 109/3/5 108/3/5
f 113/3/5 108/3/5 102/3/5
f 114/3/5 110/3/5 113/3/5
f 115/3/5 111/3/5 105/3/5
f 116/3/5 110/3/5 114/3/5
f 117/3/5 115/3/5 105/3/5
f 117/3/5 116/3/5 115/3/5
f 118/3/5 110/3/5 116/3/5
f 118/3/5 116/3/5 117/3/5
f 123/1/5 120/1/5 119/1/5
f 123/1/5 122/1/5 121/1/5
f 123/1/5 121/1/5 120/1/5
f 124/1/5 122/1/5 123/1/5
f 125/4/6 126/4/6 132/4/6
f 126/3/6 127/3/6 133/3/6
f 132/4/6 126/4/6 133/4/6
f 129/4/6 130/4/6 134/4/6
f 128/3/6 129/3/6 134/3/6
f 134/4/6 130/4/6 135/4/6
f 133/3/6 127/3/6 137/3/6
f 131/3/6 132/3/6 137/3/6
f 132/3/6 133/3/6 137/3/6
f 135/3/6 136/3/6 138/3/6
f 134/3/6 135/3/6 138/3/6
f 128/3/6 134/3/6 138/3/6
f 131/3/6 137/3/6 139/3/6
f 137/5/6 138/5/6 139/5/6
f 138/3/6 136/3/6 140/3/6
f 139/5/6 138/5/6 140/5/6
f 131/3/6 139/3/6 141/3/6
f 139/3/6 140/3/6 141/3/6
f 140/3/6 136/3/6 142/3/6
f 141/3/6 140/3/6 142/3/6
