# MagicaVoxel @ Ephtracy

# group
o 

# material
mtllib model-0.mtl
usemtl palette

# normals
vn 0 0 1
vn 0 0 -1
vn 1 0 0
vn -1 0 0
vn 0 -1 0
vn 0 1 0

# texcoords
vt 0.00195313 0.5
vt 0.0175781 0.5
vt 0.0214844 0.5
vt 0.0253906 0.5
vt 0.259766 0.5
vt 0.263672 0.5
vt 0.501953 0.5

# verts
v 0.5 0.6 1
v -0.5 0.6 1
v 0.6 1.6 1
v 0.5 1.6 1
v -0.5 1.8 1
v -0.6 1.8 1
v 0.5 2 1
v -0.5 2 1
v 0.6 2.1 1
v -0.6 2.1 1
v 0.6 0.6 0.8
v 0.5 0.6 0.8
v 0.6 1.5 0.8
v 0.5 1.5 0.8
v 0.6 1.5 0.6
v 0.5 1.5 0.6
v 0.6 1.6 0.6
v 0.5 1.6 0.6
v 0.5 2.1 0.5
v -0.4 2.1 0.5
v 0.5 2.2 0.5
v -0.4 2.2 0.5
v 0.6 0.6 -0.5
v 0.4 0.6 -0.5
v 0.5 1.8 -0.5
v 0.4 1.8 -0.5
v 0.5 1.9 -0.5
v 0.5 2 -0.5
v 0.6 2.1 -0.5
v 0.5 2.1 -0.5
v 0.6 0.6 0.5
v 0.4 0.6 0.5
v 0.5 1.8 0.5
v 0.4 1.8 0.5
v 0.5 1.9 0.5
v 0.5 2 0.5
v 0.6 2.1 0.5
v 0.5 2.1 0.5
v 0.5 2.1 -0.5
v -0.4 2.1 -0.5
v 0.5 2.2 -0.5
v -0.4 2.2 -0.5
v 0.6 1.5 -0.6
v 0.5 1.5 -0.6
v 0.6 1.6 -0.6
v 0.5 1.6 -0.6
v 0.6 0.6 -0.8
v 0.5 0.6 -0.8
v 0.6 1.5 -0.8
v 0.5 1.5 -0.8
v 0.5 0.6 -1
v -0.5 0.6 -1
v 0.6 1.6 -1
v 0.5 1.6 -1
v -0.5 1.8 -1
v -0.6 1.8 -1
v 0.5 2 -1
v -0.5 2 -1
v 0.6 2.1 -1
v -0.6 2.1 -1
v 0.6 1.6 1
v 0.6 2.1 1
v 0.6 1.6 0.9
v 0.6 2 0.9
v 0.6 0.6 0.8
v 0.6 1.5 0.8
v 0.6 1.7 0.8
v 0.6 1.8 0.8
v 0.6 0.6 0.7
v 0.6 1.4 0.7
v 0.6 1.7 0.7
v 0.6 1.8 0.7
v 0.6 1.4 0.6
v 0.6 1.5 0.6
v 0.6 1.6 0.6
v 0.6 2 0.6
v 0.6 2.1 0.6
v 0.6 0.6 0.5
v 0.6 2.1 0.5
v 0.6 0.6 -0.5
v 0.6 2.1 -0.5
v 0.6 1.4 -0.6
v 0.6 1.5 -0.6
v 0.6 1.6 -0.6
v 0.6 2 -0.6
v 0.6 2.1 -0.6
v 0.6 0.6 -0.7
v 0.6 1.4 -0.7
v 0.6 1.7 -0.7
v 0.6 1.8 -0.7
v 0.6 0.6 -0.8
v 0.6 1.5 -0.8
v 0.6 1.7 -0.8
v 0.6 1.8 -0.8
v 0.6 1.6 -0.9
v 0.6 2 -0.9
v 0.6 1.6 -1
v 0.6 2.1 -1
v 0.5 0.6 1
v 0.5 1.6 1
v 0.5 1.6 0.9
v 0.5 0.6 0.8
v 0.5 1.5 0.8
v 0.5 1.5 0.6
v 0.5 1.6 0.6
v 0.5 1.8 0.5
v 0.5 1.9 0.5
v 0.5 2 0.5
v 0.5 2.1 0.5
v 0.5 2.2 0.5
v 0.5 1.9 0.4
v 0.5 2 0.4
v 0.5 1.9 0.2
v 0.5 2 0.2
v 0.5 1.9 0.1
v 0.5 2 0.1
v 0.5 1.9 -0.1
v 0.5 2 -0.1
v 0.5 1.9 -0.2
v 0.5 2 -0.2
v 0.5 1.9 -0.4
v 0.5 2 -0.4
v 0.5 1.8 -0.5
v 0.5 1.9 -0.5
v 0.5 2 -0.5
v 0.5 2.1 -0.5
v 0.5 2.2 -0.5
v 0.5 1.5 -0.6
v 0.5 1.6 -0.6
v 0.5 0.6 -0.8
v 0.5 1.5 -0.8
v 0.5 1.6 -0.9
v 0.5 0.6 -1
v 0.5 1.6 -1
v 0.4 0.6 0.5
v 0.4 1.8 0.5
v 0.4 1 0.4
v 0.4 1.5 0.4
v 0.4 1 0.3
v 0.4 1.5 0.3
v 0.4 1.6 0.3
v 0.4 0.8 0.2
v 0.4 1 0.2
v 0.4 1.1 0.2
v 0.4 1.3 0.2
v 0.4 1.5 0.2
v 0.4 1.6 0.2
v 0.4 0.8 0.1
v 0.4 0.9 0.1
v 0.4 1 0.1
v 0.4 0.8 0
v 0.4 0.9 0
v 0.4 1 0
v 0.4 1.1 0
v 0.4 1.3 0
v 0.4 0.8 -0.1
v 0.4 0.9 -0.1
v 0.4 1 -0.1
v 0.4 1.1 -0.1
v 0.4 1.3 -0.1
v 0.4 0.8 -0.2
v 0.4 0.9 -0.2
v 0.4 0.8 -0.3
v 0.4 1 -0.3
v 0.4 1.1 -0.3
v 0.4 1.3 -0.3
v 0.4 1.5 -0.3
v 0.4 1.6 -0.3
v 0.4 1 -0.4
v 0.4 1.1 -0.4
v 0.4 1.3 -0.4
v 0.4 1.5 -0.4
v 0.4 0.6 -0.5
v 0.4 1.8 -0.5
v -0.4 2.1 0.5
v -0.4 2.2 0.5
v -0.4 2.1 -0.5
v -0.4 2.2 -0.5
v -0.5 0.6 1
v -0.5 1.8 1
v -0.5 1.8 0.9
v -0.5 1.8 -0.9
v -0.5 0.6 -1
v -0.5 1.8 -1
v -0.6 1.8 1
v -0.6 2.1 1
v -0.6 1.8 0.9
v -0.6 2 0.9
v -0.6 1.8 -0.9
v -0.6 2 -0.9
v -0.6 1.8 -1
v -0.6 2.1 -1
v 0.6 0.6 0.8
v 0.6 0.6 0.7
v 0.6 0.6 0.5
v 0.6 0.6 -0.5
v 0.6 0.6 -0.7
v 0.6 0.6 -0.8
v 0.5 0.6 1
v 0.5 0.6 0.8
v 0.5 0.6 0.7
v 0.5 0.6 -0.7
v 0.5 0.6 -0.8
v 0.5 0.6 -1
v 0.4 0.6 0.5
v 0.4 0.6 -0.5
v 0.3 0.6 0.5
v 0.3 0.6 -0.5
v -0.5 0.6 1
v -0.5 0.6 -1
v 0.6 1.6 1
v 0.6 1.6 0.9
v 0.6 1.6 0.6
v 0.6 1.6 -0.6
v 0.6 1.6 -0.9
v 0.6 1.6 -1
v 0.5 1.6 1
v 0.5 1.6 0.9
v 0.5 1.6 0.6
v 0.5 1.6 -0.6
v 0.5 1.6 -0.9
v 0.5 1.6 -1
v 0.5 1.8 0.5
v 0.5 1.8 -0.5
v 0.4 1.8 0.5
v 0.4 1.8 -0.5
v -0.5 1.8 1
v -0.5 1.8 0.9
v -0.5 1.8 -0.9
v -0.5 1.8 -1
v -0.6 1.8 1
v -0.6 1.8 0.9
v -0.6 1.8 -0.9
v -0.6 1.8 -1
v 0.6 1.5 0.8
v 0.6 1.5 0.6
v 0.6 1.5 -0.6
v 0.6 1.5 -0.8
v 0.5 1.5 0.8
v 0.5 1.5 0.6
v 0.5 1.5 -0.6
v 0.5 1.5 -0.8
v 0.6 2.1 1
v 0.6 2.1 0.6
v 0.6 2.1 0.5
v 0.6 2.1 -0.5
v 0.6 2.1 -0.6
v 0.6 2.1 -1
v 0.5 2.1 0.9
v 0.5 2.1 0.6
v 0.5 2.1 0.5
v 0.5 2.1 -0.5
v 0.5 2.1 -0.6
v 0.5 2.1 -0.9
v -0.4 2.1 0.5
v -0.4 2.1 -0.5
v -0.5 2.1 0.9
v -0.5 2.1 -0.9
v -0.6 2.1 1
v -0.6 2.1 -1
v 0.5 2.2 0.5
v 0.5 2.2 -0.5
v -0.4 2.2 0.5
v -0.4 2.2 -0.5

# faces
f 4/5/1 2/5/1 1/5/1
f 5/5/1 2/5/1 4/5/1
f 7/6/1 4/6/1 3/6/1
f 7/5/1 5/5/1 4/5/1
f 8/6/1 6/6/1 5/6/1
f 8/5/1 5/5/1 7/5/1
f 9/6/1 7/6/1 3/6/1
f 9/6/1 8/6/1 7/6/1
f 10/6/1 6/6/1 8/6/1
f 10/6/1 8/6/1 9/6/1
f 13/6/1 12/6/1 11/6/1
f 14/6/1 12/6/1 13/6/1
f 17/5/1 16/5/1 15/5/1
f 18/5/1 16/5/1 17/5/1
f 21/1/1 20/1/1 19/1/1
f 22/1/1 20/1/1 21/1/1
f 25/5/1 24/5/1 23/5/1
f 26/5/1 24/5/1 25/5/1
f 27/5/1 25/5/1 23/5/1
f 28/5/1 27/5/1 23/5/1
f 29/5/1 28/5/1 23/5/1
f 30/5/1 28/5/1 29/5/1
f 31/5/2 32/5/2 33/5/2
f 33/5/2 32/5/2 34/5/2
f 31/5/2 33/5/2 35/5/2
f 31/5/2 35/5/2 36/5/2
f 31/5/2 36/5/2 37/5/2
f 37/5/2 36/5/2 38/5/2
f 39/1/2 40/1/2 41/1/2
f 41/1/2 40/1/2 42/1/2
f 43/5/2 44/5/2 45/5/2
f 45/5/2 44/5/2 46/5/2
f 47/6/2 48/6/2 49/6/2
f 49/6/2 48/6/2 50/6/2
f 51/5/2 52/5/2 54/5/2
f 54/5/2 52/5/2 55/5/2
f 53/6/2 54/6/2 57/6/2
f 54/5/2 55/5/2 57/5/2
f 55/6/2 56/6/2 58/6/2
f 57/5/2 55/5/2 58/5/2
f 53/6/2 57/6/2 59/6/2
f 57/6/2 58/6/2 59/6/2
f 58/6/2 56/6/2 60/6/2
f 59/6/2 58/6/2 60/6/2
f 63/6/3 62/6/3 61/6/3
f 64/6/3 62/6/3 63/6/3
f 67/5/3 64/5/3 63/5/3
f 68/5/3 64/5/3 67/5/3
f 69/6/3 66/6/3 65/6/3
f 70/6/3 66/6/3 69/6/3
f 71/5/3 67/5/3 63/5/3
f 71/2/3 68/2/3 67/2/3
f 72/5/3 64/5/3 68/5/3
f 72/2/3 68/2/3 71/2/3
f 73/6/3 66/6/3 70/6/3
f 73/5/3 70/5/3 69/5/3
f 74/6/3 66/6/3 73/6/3
f 75/5/3 71/5/3 63/5/3
f 75/5/3 72/5/3 71/5/3
f 76/6/3 62/6/3 64/6/3
f 76/5/3 64/5/3 72/5/3
f 76/5/3 72/5/3 75/5/3
f 77/6/3 62/6/3 76/6/3
f 78/5/3 74/5/3 73/5/3
f 78/5/3 75/5/3 74/5/3
f 78/5/3 77/5/3 76/5/3
f 78/5/3 76/5/3 75/5/3
f 78/5/3 73/5/3 69/5/3
f 79/5/3 77/5/3 78/5/3
f 82/5/3 81/5/3 80/5/3
f 83/5/3 81/5/3 82/5/3
f 84/5/3 81/5/3 83/5/3
f 85/5/3 81/5/3 84/5/3
f 86/5/3 81/5/3 85/5/3
f 87/5/3 82/5/3 80/5/3
f 88/6/3 83/6/3 82/6/3
f 88/5/3 82/5/3 87/5/3
f 89/5/3 85/5/3 84/5/3
f 90/5/3 85/5/3 89/5/3
f 91/6/3 88/6/3 87/6/3
f 92/6/3 83/6/3 88/6/3
f 92/6/3 88/6/3 91/6/3
f 93/5/3 89/5/3 84/5/3
f 93/2/3 90/2/3 89/2/3
f 94/5/3 85/5/3 90/5/3
f 94/2/3 90/2/3 93/2/3
f 95/5/3 93/5/3 84/5/3
f 95/5/3 94/5/3 93/5/3
f 96/6/3 86/6/3 85/6/3
f 96/5/3 94/5/3 95/5/3
f 96/5/3 85/5/3 94/5/3
f 97/6/3 96/6/3 95/6/3
f 98/6/3 86/6/3 96/6/3
f 98/6/3 96/6/3 97/6/3
f 101/5/3 100/5/3 99/5/3
f 102/5/3 101/5/3 99/5/3
f 103/5/3 101/5/3 102/5/3
f 104/5/3 101/5/3 103/5/3
f 105/5/3 101/5/3 104/5/3
f 111/1/3 107/1/3 106/1/3
f 111/2/3 108/2/3 107/2/3
f 112/1/3 110/1/3 109/1/3
f 112/2/3 108/2/3 111/2/3
f 112/1/3 109/1/3 108/1/3
f 113/1/3 111/1/3 106/1/3
f 113/1/3 112/1/3 111/1/3
f 114/1/3 110/1/3 112/1/3
f 114/1/3 112/1/3 113/1/3
f 115/1/3 113/1/3 106/1/3
f 115/2/3 114/2/3 113/2/3
f 116/1/3 110/1/3 114/1/3
f 116/2/3 114/2/3 115/2/3
f 117/1/3 115/1/3 106/1/3
f 117/1/3 116/1/3 115/1/3
f 118/1/3 110/1/3 116/1/3
f 118/1/3 116/1/3 117/1/3
f 119/1/3 117/1/3 106/1/3
f 119/2/3 118/2/3 117/2/3
f 120/1/3 110/1/3 118/1/3
f 120/2/3 118/2/3 119/2/3
f 121/1/3 119/1/3 106/1/3
f 121/1/3 120/1/3 119/1/3
f 122/1/3 110/1/3 120/1/3
f 122/1/3 120/1/3 121/1/3
f 123/1/3 121/1/3 106/1/3
f 124/2/3 122/2/3 121/2/3
f 124/1/3 121/1/3 123/1/3
f 125/1/3 110/1/3 122/1/3
f 125/2/3 122/2/3 124/2/3
f 126/1/3 110/1/3 125/1/3
f 127/1/3 110/1/3 126/1/3
f 131/5/3 129/5/3 128/5/3
f 132/5/3 129/5/3 131/5/3
f 132/5/3 131/5/3 130/5/3
f 133/5/3 132/5/3 130/5/3
f 134/5/3 132/5/3 133/5/3
f 137/7/3 136/7/3 135/7/3
f 138/7/3 136/7/3 137/7/3
f 139/7/3 137/7/3 135/7/3
f 139/3/3 138/3/3 137/3/3
f 140/7/3 136/7/3 138/7/3
f 140/3/3 138/3/3 139/3/3
f 141/7/3 136/7/3 140/7/3
f 142/7/3 139/7/3 135/7/3
f 143/4/3 140/4/3 139/4/3
f 143/7/3 139/7/3 142/7/3
f 144/4/3 140/4/3 143/4/3
f 145/4/3 140/4/3 144/4/3
f 146/3/3 141/3/3 140/3/3
f 146/4/3 140/4/3 145/4/3
f 147/7/3 136/7/3 141/7/3
f 147/3/3 141/3/3 146/3/3
f 148/7/3 142/7/3 135/7/3
f 148/3/3 143/3/3 142/3/3
f 149/3/3 143/3/3 148/3/3
f 150/4/3 144/4/3 143/4/3
f 150/3/3 143/3/3 149/3/3
f 151/7/3 149/7/3 148/7/3
f 151/7/3 148/7/3 135/7/3
f 152/4/3 150/4/3 149/4/3
f 152/7/3 149/7/3 151/7/3
f 153/4/3 144/4/3 150/4/3
f 153/4/3 150/4/3 152/4/3
f 154/7/3 145/7/3 144/7/3
f 154/4/3 144/4/3 153/4/3
f 155/4/3 146/4/3 145/4/3
f 155/7/3 145/7/3 154/7/3
f 155/4/3 147/4/3 146/4/3
f 156/4/3 153/4/3 152/4/3
f 156/7/3 151/7/3 135/7/3
f 156/4/3 152/4/3 151/4/3
f 157/4/3 153/4/3 156/4/3
f 158/7/3 154/7/3 153/7/3
f 158/4/3 153/4/3 157/4/3
f 159/3/3 155/3/3 154/3/3
f 159/7/3 154/7/3 158/7/3
f 160/4/3 147/4/3 155/4/3
f 160/3/3 155/3/3 159/3/3
f 161/7/3 157/7/3 156/7/3
f 161/7/3 156/7/3 135/7/3
f 162/4/3 159/4/3 158/4/3
f 162/7/3 157/7/3 161/7/3
f 162/4/3 158/4/3 157/4/3
f 163/7/3 161/7/3 135/7/3
f 163/4/3 162/4/3 161/4/3
f 164/4/3 159/4/3 162/4/3
f 164/4/3 162/4/3 163/4/3
f 165/7/3 160/7/3 159/7/3
f 165/4/3 159/4/3 164/4/3
f 166/4/3 147/4/3 160/4/3
f 166/7/3 160/7/3 165/7/3
f 167/4/3 147/4/3 166/4/3
f 168/7/3 136/7/3 147/7/3
f 168/4/3 147/4/3 167/4/3
f 169/4/3 165/4/3 164/4/3
f 169/7/3 164/7/3 163/7/3
f 170/3/3 166/3/3 165/3/3
f 170/4/3 165/4/3 169/4/3
f 171/4/3 167/4/3 166/4/3
f 171/3/3 166/3/3 170/3/3
f 172/7/3 168/7/3 167/7/3
f 172/4/3 167/4/3 171/4/3
f 173/7/3 170/7/3 169/7/3
f 173/7/3 163/7/3 135/7/3
f 173/7/3 172/7/3 171/7/3
f 173/7/3 169/7/3 163/7/3
f 173/7/3 171/7/3 170/7/3
f 174/7/3 136/7/3 168/7/3
f 174/7/3 172/7/3 173/7/3
f 174/7/3 168/7/3 172/7/3
f 175/1/4 176/1/4 177/1/4
f 177/1/4 176/1/4 178/1/4
f 179/5/4 180/5/4 181/5/4
f 179/5/4 181/5/4 182/5/4
f 179/5/4 182/5/4 183/5/4
f 183/5/4 182/5/4 184/5/4
f 185/6/4 186/6/4 187/6/4
f 187/6/4 186/6/4 188/6/4
f 187/5/4 188/5/4 189/5/4
f 188/6/4 186/6/4 190/6/4
f 189/5/4 188/5/4 190/5/4
f 189/6/4 190/6/4 191/6/4
f 190/6/4 186/6/4 192/6/4
f 191/6/4 190/6/4 192/6/4
f 200/6/5 194/6/5 193/6/5
f 201/5/5 195/5/5 194/5/5
f 201/6/5 194/6/5 200/6/5
f 202/6/5 198/6/5 197/6/5
f 202/5/5 197/5/5 196/5/5
f 203/6/5 198/6/5 202/6/5
f 205/5/5 195/5/5 201/5/5
f 205/5/5 200/5/5 199/5/5
f 205/5/5 201/5/5 200/5/5
f 206/5/5 204/5/5 203/5/5
f 206/5/5 203/5/5 202/5/5
f 206/5/5 202/5/5 196/5/5
f 207/5/5 205/5/5 199/5/5
f 207/7/5 206/7/5 205/7/5
f 208/5/5 204/5/5 206/5/5
f 208/7/5 206/7/5 207/7/5
f 209/5/5 207/5/5 199/5/5
f 209/5/5 208/5/5 207/5/5
f 210/5/5 204/5/5 208/5/5
f 210/5/5 208/5/5 209/5/5
f 217/6/5 212/6/5 211/6/5
f 218/5/5 213/5/5 212/5/5
f 218/6/5 212/6/5 217/6/5
f 219/5/5 213/5/5 218/5/5
f 220/5/5 215/5/5 214/5/5
f 221/6/5 216/6/5 215/6/5
f 221/5/5 215/5/5 220/5/5
f 222/6/5 216/6/5 221/6/5
f 225/1/5 224/1/5 223/1/5
f 226/1/5 224/1/5 225/1/5
f 231/6/5 228/6/5 227/6/5
f 232/5/5 229/5/5 228/5/5
f 232/6/5 228/6/5 231/6/5
f 233/6/5 230/6/5 229/6/5
f 233/5/5 229/5/5 232/5/5
f 234/6/5 230/6/5 233/6/5
f 235/6/6 236/6/6 239/6/6
f 239/6/6 236/6/6 240/6/6
f 237/6/6 238/6/6 241/6/6
f 241/6/6 238/6/6 242/6/6
f 243/6/6 244/6/6 249/6/6
f 244/5/6 245/5/6 250/5/6
f 249/6/6 244/6/6 250/6/6
f 250/5/6 245/5/6 251/5/6
f 246/5/6 247/5/6 252/5/6
f 247/6/6 248/6/6 253/6/6
f 252/5/6 247/5/6 253/5/6
f 253/6/6 248/6/6 254/6/6
f 250/5/6 251/5/6 255/5/6
f 249/5/6 250/5/6 255/5/6
f 253/5/6 254/5/6 256/5/6
f 252/5/6 253/5/6 256/5/6
f 243/6/6 249/6/6 257/6/6
f 255/5/6 256/5/6 257/5/6
f 249/5/6 255/5/6 257/5/6
f 256/5/6 254/5/6 258/5/6
f 257/5/6 256/5/6 258/5/6
f 254/6/6 248/6/6 258/6/6
f 243/6/6 257/6/6 259/6/6
f 257/6/6 258/6/6 259/6/6
f 258/6/6 248/6/6 260/6/6
f 259/6/6 258/6/6 260/6/6
f 261/1/6 262/1/6 263/1/6
f 263/1/6 262/1/6 264/1/6
