# MagicaVoxel @ Ephtracy

# group
o 

# material
mtllib model-0.mtl
usemtl palette

# normals
vn 0 0 1
vn 0 0 -1
vn 1 0 0
vn -1 0 0
vn 0 -1 0
vn 0 1 0

# texcoords
vt 0.0214844 0.5
vt 0.0605469 0.5
vt 0.255859 0.5
vt 0.259766 0.5
vt 0.263672 0.5
vt 0.267578 0.5

# verts
v 0.5 0.6 1
v -0.5 0.6 1
v 0.5 2.1 1
v -0.5 2.1 1
v 0.6 1.4 0.7
v 0.5 1.4 0.7
v 0.6 2.1 0.7
v 0.5 2.1 0.7
v 0.6 0.6 0.2
v 0.5 0.6 0.2
v 0.7 0.8 0.2
v 0.6 0.8 0.2
v 0.7 1 0.2
v 0.6 1 0.2
v 0.7 1.1 0.2
v 0.6 1.1 0.2
v 0.5 1.1 0.2
v 0.7 1.4 0.2
v 0.6 1.4 0.2
v 0.5 1.4 0.2
v 0.7 1.4 -0.1
v 0.6 1.4 -0.1
v 0.7 1.5 -0.1
v 0.6 1.5 -0.1
v 0.5 1.5 -0.1
v 0.7 1.6 -0.1
v 0.5 1.6 -0.1
v 0.7 1.6 -0.3
v 0.5 1.6 -0.3
v 0.7 1.7 -0.3
v 0.5 1.7 -0.3
v 0.5 2 -0.3
v 0.4 2 -0.3
v 0.5 2.1 -0.3
v 0.4 2.1 -0.3
v 0.7 1.7 -0.4
v 0.5 1.7 -0.4
v 0.4 2 -0.4
v -0.4 2 -0.4
v 0.7 2.1 -0.4
v 0.5 2.1 -0.4
v 0.4 2.1 -0.4
v -0.4 2.1 -0.4
v 0.6 1.7 0.4
v 0.5 1.7 0.4
v 0.4 2 0.4
v -0.4 2 0.4
v 0.6 2.1 0.4
v 0.5 2.1 0.4
v 0.4 2.1 0.4
v -0.4 2.1 0.4
v 0.6 1.6 0.3
v 0.5 1.6 0.3
v 0.6 1.7 0.3
v 0.5 1.7 0.3
v 0.5 2 0.3
v 0.4 2 0.3
v 0.5 2.1 0.3
v 0.4 2.1 0.3
v 0.7 0.8 0.1
v 0.6 0.8 0.1
v 0.7 1 0.1
v 0.6 1 0.1
v 0.6 1.5 0.1
v 0.5 1.5 0.1
v 0.6 1.6 0.1
v 0.5 1.6 0.1
v 0.7 1 -0.4
v 0.6 1 -0.4
v 0.7 1.1 -0.4
v 0.6 1.1 -0.4
v 0.7 1.4 -0.4
v 0.6 1.4 -0.4
v 0.7 1.4 -0.7
v 0.6 1.4 -0.7
v 0.7 1.5 -0.7
v 0.6 1.5 -0.7
v 0.7 2.1 -0.7
v 0.6 2.1 -0.7
v 0.6 0.6 -1
v -0.5 0.6 -1
v 0.6 2.1 -1
v -0.5 2.1 -1
v 0.7 0.8 0.2
v 0.7 1 0.2
v 0.7 1.1 0.2
v 0.7 1.4 0.2
v 0.7 0.8 0.1
v 0.7 1 0.1
v 0.7 1.4 -0.1
v 0.7 1.5 -0.1
v 0.7 1.6 -0.1
v 0.7 1.2 -0.2
v 0.7 1.3 -0.2
v 0.7 1.2 -0.3
v 0.7 1.3 -0.3
v 0.7 1.6 -0.3
v 0.7 1.7 -0.3
v 0.7 1 -0.4
v 0.7 1.1 -0.4
v 0.7 1.4 -0.4
v 0.7 1.7 -0.4
v 0.7 2.1 -0.4
v 0.7 1.6 -0.5
v 0.7 1.7 -0.5
v 0.7 1.6 -0.6
v 0.7 1.7 -0.6
v 0.7 1.4 -0.7
v 0.7 1.5 -0.7
v 0.7 2.1 -0.7
v 0.6 1.4 0.7
v 0.6 2.1 0.7
v 0.6 1.6 0.6
v 0.6 1.7 0.6
v 0.6 1.6 0.5
v 0.6 1.7 0.5
v 0.6 1.7 0.4
v 0.6 2.1 0.4
v 0.6 1.6 0.3
v 0.6 1.7 0.3
v 0.6 0.6 0.2
v 0.6 0.8 0.2
v 0.6 1.4 0.2
v 0.6 0.6 0.1
v 0.6 0.8 0.1
v 0.6 1 0.1
v 0.6 1.5 0.1
v 0.6 1.6 0.1
v 0.6 1.4 -0.1
v 0.6 1.5 -0.1
v 0.6 1 -0.4
v 0.6 1.1 -0.4
v 0.6 1.4 -0.4
v 0.6 1.4 -0.7
v 0.6 1.5 -0.7
v 0.6 2.1 -0.7
v 0.6 0.6 -1
v 0.6 2.1 -1
v 0.5 0.6 1
v 0.5 2.1 1
v 0.5 1.4 0.7
v 0.5 2.1 0.7
v 0.5 1.7 0.4
v 0.5 2.1 0.4
v 0.5 1.6 0.3
v 0.5 1.7 0.3
v 0.5 2 0.3
v 0.5 2.1 0.3
v 0.5 0.6 0.2
v 0.5 1.1 0.2
v 0.5 1.4 0.2
v 0.5 1.5 0.1
v 0.5 1.6 0.1
v 0.5 1.5 -0.1
v 0.5 1.6 -0.1
v 0.5 1.6 -0.3
v 0.5 1.7 -0.3
v 0.5 2 -0.3
v 0.5 2.1 -0.3
v 0.5 1.7 -0.4
v 0.5 2.1 -0.4
v -0.4 2 0.4
v -0.4 2.1 0.4
v -0.4 2 -0.4
v -0.4 2.1 -0.4
v 0.4 2 0.4
v 0.4 2.1 0.4
v 0.4 2 0.3
v 0.4 2.1 0.3
v 0.4 2 -0.3
v 0.4 2.1 -0.3
v 0.4 2 -0.4
v 0.4 2.1 -0.4
v -0.5 0.6 1
v -0.5 2.1 1
v -0.5 0.6 -1
v -0.5 2.1 -1
v 0.6 0.6 0.2
v 0.6 0.6 0.1
v 0.6 0.6 -1
v 0.5 0.6 1
v 0.5 0.6 0.2
v 0.5 0.6 0.1
v -0.5 0.6 1
v -0.5 0.6 -1
v 0.7 0.8 0.2
v 0.7 0.8 0.1
v 0.6 0.8 0.2
v 0.6 0.8 0.1
v 0.7 1 0.1
v 0.7 1 -0.4
v 0.6 1 0.1
v 0.6 1 -0.4
v 0.7 1.4 -0.4
v 0.7 1.4 -0.7
v 0.6 1.4 0.7
v 0.6 1.4 0.2
v 0.6 1.4 -0.4
v 0.6 1.4 -0.7
v 0.5 1.4 0.7
v 0.5 1.4 0.2
v 0.7 1.4 0.2
v 0.7 1.4 -0.1
v 0.6 1.4 0.2
v 0.6 1.4 -0.1
v 0.6 1.5 0.1
v 0.6 1.5 -0.1
v 0.5 1.5 0.1
v 0.5 1.5 -0.1
v 0.7 1.6 -0.1
v 0.7 1.6 -0.3
v 0.6 1.6 0.3
v 0.6 1.6 0.1
v 0.5 1.6 0.3
v 0.5 1.6 0.1
v 0.5 1.6 -0.1
v 0.5 1.6 -0.3
v 0.7 1.7 -0.3
v 0.7 1.7 -0.4
v 0.6 1.7 0.4
v 0.6 1.7 0.3
v 0.5 1.7 0.4
v 0.5 1.7 0.3
v 0.5 1.7 -0.3
v 0.5 1.7 -0.4
v 0.5 2 0.3
v 0.5 2 -0.3
v 0.4 2 0.4
v 0.4 2 0.3
v 0.4 2 -0.3
v 0.4 2 -0.4
v -0.4 2 0.4
v -0.4 2 -0.4
v 0.7 2.1 -0.4
v 0.7 2.1 -0.7
v 0.6 2.1 0.7
v 0.6 2.1 0.4
v 0.6 2.1 -0.7
v 0.6 2.1 -1
v 0.5 2.1 1
v 0.5 2.1 0.7
v 0.5 2.1 0.5
v 0.5 2.1 0.4
v 0.5 2.1 0.3
v 0.5 2.1 -0.3
v 0.5 2.1 -0.4
v 0.5 2.1 -0.5
v 0.5 2.1 -0.7
v 0.4 2.1 0.5
v 0.4 2.1 0.4
v 0.4 2.1 0.3
v 0.4 2.1 -0.3
v 0.4 2.1 -0.4
v 0.4 2.1 -0.5
v -0.4 2.1 0.4
v -0.4 2.1 -0.4
v -0.5 2.1 1
v -0.5 2.1 -1

# faces
f 3/3/1 2/3/1 1/3/1
f 4/3/1 2/3/1 3/3/1
f 7/4/1 6/4/1 5/4/1
f 8/4/1 6/4/1 7/4/1
f 12/5/1 10/5/1 9/5/1
f 13/1/1 12/1/1 11/1/1
f 14/5/1 10/5/1 12/5/1
f 14/1/1 12/1/1 13/1/1
f 15/6/1 14/6/1 13/6/1
f 16/5/1 10/5/1 14/5/1
f 16/6/1 14/6/1 15/6/1
f 17/5/1 10/5/1 16/5/1
f 18/4/1 16/4/1 15/4/1
f 19/3/1 17/3/1 16/3/1
f 19/4/1 16/4/1 18/4/1
f 20/3/1 17/3/1 19/3/1
f 23/6/1 22/6/1 21/6/1
f 24/6/1 22/6/1 23/6/1
f 26/4/1 24/4/1 23/4/1
f 26/4/1 25/4/1 24/4/1
f 27/4/1 25/4/1 26/4/1
f 30/4/1 29/4/1 28/4/1
f 31/4/1 29/4/1 30/4/1
f 34/2/1 33/2/1 32/2/1
f 35/2/1 33/2/1 34/2/1
f 40/4/1 37/4/1 36/4/1
f 41/4/1 37/4/1 40/4/1
f 42/3/1 39/3/1 38/3/1
f 43/3/1 39/3/1 42/3/1
f 44/4/2 45/4/2 48/4/2
f 48/4/2 45/4/2 49/4/2
f 46/3/2 47/3/2 50/3/2
f 50/3/2 47/3/2 51/3/2
f 52/4/2 53/4/2 54/4/2
f 54/4/2 53/4/2 55/4/2
f 56/2/2 57/2/2 58/2/2
f 58/2/2 57/2/2 59/2/2
f 60/1/2 61/1/2 62/1/2
f 62/1/2 61/1/2 63/1/2
f 64/4/2 65/4/2 66/4/2
f 66/4/2 65/4/2 67/4/2
f 68/6/2 69/6/2 70/6/2
f 70/6/2 69/6/2 71/6/2
f 70/4/2 71/4/2 72/4/2
f 72/4/2 71/4/2 73/4/2
f 74/6/2 75/6/2 76/6/2
f 76/6/2 75/6/2 77/6/2
f 76/4/2 77/4/2 78/4/2
f 78/4/2 77/4/2 79/4/2
f 80/3/2 81/3/2 82/3/2
f 82/3/2 81/3/2 83/3/2
f 88/1/3 85/1/3 84/1/3
f 89/6/3 86/6/3 85/6/3
f 89/1/3 85/1/3 88/1/3
f 90/4/3 87/4/3 86/4/3
f 93/4/3 90/4/3 86/4/3
f 94/4/3 90/4/3 93/4/3
f 95/4/3 93/4/3 86/4/3
f 95/1/3 94/1/3 93/1/3
f 96/4/3 90/4/3 94/4/3
f 96/1/3 94/1/3 95/1/3
f 97/4/3 92/4/3 91/4/3
f 99/6/3 86/6/3 89/6/3
f 100/4/3 95/4/3 86/4/3
f 100/6/3 86/6/3 99/6/3
f 100/4/3 96/4/3 95/4/3
f 101/4/3 90/4/3 96/4/3
f 101/4/3 96/4/3 100/4/3
f 101/6/3 91/6/3 90/6/3
f 102/4/3 98/4/3 97/4/3
f 104/4/3 103/4/3 102/4/3
f 104/4/3 102/4/3 97/4/3
f 104/4/3 97/4/3 91/4/3
f 105/4/3 103/4/3 104/4/3
f 106/4/3 104/4/3 91/4/3
f 106/1/3 105/1/3 104/1/3
f 107/4/3 103/4/3 105/4/3
f 107/1/3 105/1/3 106/1/3
f 108/6/3 91/6/3 101/6/3
f 109/4/3 106/4/3 91/4/3
f 109/6/3 91/6/3 108/6/3
f 109/4/3 107/4/3 106/4/3
f 110/4/3 103/4/3 107/4/3
f 110/4/3 107/4/3 109/4/3
f 113/4/3 112/4/3 111/4/3
f 114/4/3 112/4/3 113/4/3
f 115/4/3 113/4/3 111/4/3
f 115/1/3 114/1/3 113/1/3
f 116/4/3 112/4/3 114/4/3
f 116/1/3 114/1/3 115/1/3
f 117/4/3 116/4/3 115/4/3
f 117/4/3 112/4/3 116/4/3
f 118/4/3 112/4/3 117/4/3
f 119/4/3 115/4/3 111/4/3
f 119/4/3 117/4/3 115/4/3
f 120/4/3 117/4/3 119/4/3
f 123/4/3 119/4/3 111/4/3
f 124/5/3 122/5/3 121/5/3
f 125/5/3 122/5/3 124/5/3
f 127/4/3 119/4/3 123/4/3
f 128/4/3 119/4/3 127/4/3
f 129/4/3 127/4/3 123/4/3
f 130/4/3 127/4/3 129/4/3
f 131/3/3 126/3/3 125/3/3
f 131/3/3 125/3/3 124/3/3
f 134/3/3 132/3/3 131/3/3
f 134/3/3 133/3/3 132/3/3
f 137/3/3 135/3/3 134/3/3
f 137/3/3 136/3/3 135/3/3
f 137/3/3 131/3/3 124/3/3
f 137/3/3 134/3/3 131/3/3
f 138/3/3 136/3/3 137/3/3
f 141/3/3 140/3/3 139/3/3
f 142/3/3 140/3/3 141/3/3
f 146/2/3 144/2/3 143/2/3
f 147/2/3 144/2/3 146/2/3
f 148/2/3 144/2/3 147/2/3
f 149/3/3 141/3/3 139/3/3
f 150/3/3 141/3/3 149/3/3
f 151/3/3 141/3/3 150/3/3
f 153/2/3 146/2/3 145/2/3
f 153/2/3 147/2/3 146/2/3
f 154/2/3 153/2/3 152/2/3
f 155/2/3 147/2/3 153/2/3
f 155/2/3 153/2/3 154/2/3
f 156/2/3 147/2/3 155/2/3
f 157/2/3 147/2/3 156/2/3
f 158/2/3 147/2/3 157/2/3
f 160/2/3 159/2/3 158/2/3
f 160/2/3 158/2/3 157/2/3
f 161/2/3 159/2/3 160/2/3
f 164/3/3 163/3/3 162/3/3
f 165/3/3 163/3/3 164/3/3
f 166/2/4 167/2/4 168/2/4
f 168/2/4 167/2/4 169/2/4
f 170/2/4 171/2/4 172/2/4
f 172/2/4 171/2/4 173/2/4
f 174/3/4 175/3/4 176/3/4
f 176/3/4 175/3/4 177/3/4
f 182/5/5 179/5/5 178/5/5
f 183/3/5 180/3/5 179/3/5
f 183/5/5 179/5/5 182/5/5
f 184/3/5 182/3/5 181/3/5
f 184/3/5 183/3/5 182/3/5
f 185/3/5 180/3/5 183/3/5
f 185/3/5 183/3/5 184/3/5
f 188/1/5 187/1/5 186/1/5
f 189/1/5 187/1/5 188/1/5
f 192/6/5 191/6/5 190/6/5
f 193/6/5 191/6/5 192/6/5
f 198/6/5 195/6/5 194/6/5
f 199/6/5 195/6/5 198/6/5
f 200/4/5 197/4/5 196/4/5
f 201/4/5 197/4/5 200/4/5
f 202/4/6 203/4/6 204/4/6
f 204/4/6 203/4/6 205/4/6
f 206/4/6 207/4/6 208/4/6
f 208/4/6 207/4/6 209/4/6
f 212/4/6 213/4/6 214/4/6
f 214/4/6 213/4/6 215/4/6
f 210/4/6 211/4/6 216/4/6
f 216/4/6 211/4/6 217/4/6
f 220/4/6 221/4/6 222/4/6
f 222/4/6 221/4/6 223/4/6
f 218/4/6 219/4/6 224/4/6
f 224/4/6 219/4/6 225/4/6
f 226/2/6 227/2/6 229/2/6
f 229/2/6 227/2/6 230/2/6
f 228/3/6 229/3/6 232/3/6
f 230/3/6 231/3/6 232/3/6
f 229/3/6 230/3/6 232/3/6
f 232/3/6 231/3/6 233/3/6
f 234/4/6 235/4/6 238/4/6
f 236/4/6 237/4/6 241/4/6
f 241/4/6 237/4/6 242/4/6
f 242/4/6 237/4/6 243/4/6
f 234/4/6 238/4/6 246/4/6
f 246/4/6 238/4/6 247/4/6
f 238/3/6 239/3/6 248/3/6
f 247/4/6 238/4/6 248/4/6
f 243/2/6 244/2/6 249/2/6
f 240/3/6 241/3/6 249/3/6
f 241/3/6 242/3/6 249/3/6
f 242/2/6 243/2/6 249/2/6
f 249/2/6 244/2/6 250/2/6
f 250/2/6 244/2/6 251/2/6
f 246/2/6 247/2/6 252/2/6
f 245/2/6 246/2/6 252/2/6
f 252/2/6 247/2/6 253/2/6
f 247/3/6 248/3/6 254/3/6
f 253/2/6 247/2/6 254/2/6
f 249/3/6 250/3/6 255/3/6
f 253/3/6 254/3/6 256/3/6
f 249/3/6 255/3/6 257/3/6
f 255/3/6 256/3/6 257/3/6
f 240/3/6 249/3/6 257/3/6
f 254/3/6 248/3/6 258/3/6
f 257/3/6 256/3/6 258/3/6
f 248/3/6 239/3/6 258/3/6
f 256/3/6 254/3/6 258/3/6
