# MagicaVoxel @ Ephtracy

# group
o 

# material
mtllib model-1.mtl
usemtl palette

# normals
vn 0 0 1
vn 0 0 -1
vn 1 0 0
vn -1 0 0
vn 0 -1 0
vn 0 1 0

# texcoords
vt 0.0214844 0.5
vt 0.255859 0.5
vt 0.263672 0.5

# verts
v 0.5 0 1
v -0.5 0 1
v 0.5 0.7 1
v -0.5 0.7 1
v 0.6 0.5 0.8
v 0.5 0.5 0.8
v 0.6 0.7 0.8
v 0.5 0.7 0.8
v 0.6 0 0.2
v 0.5 0 0.2
v 0.6 0.7 0.2
v 0.5 0.7 0.2
v 0.7 0.5 -0.7
v 0.6 0.5 -0.7
v 0.7 0.7 -0.7
v 0.6 0.7 -0.7
v 0.6 0.5 0.7
v 0.5 0.5 0.7
v 0.6 0.7 0.7
v 0.5 0.7 0.7
v 0.7 0.5 -0.8
v 0.6 0.5 -0.8
v 0.7 0.7 -0.8
v 0.6 0.7 -0.8
v 0.6 0 -1
v -0.5 0 -1
v 0.6 0.7 -1
v -0.5 0.7 -1
v 0.7 0.5 -0.7
v 0.7 0.7 -0.7
v 0.7 0.5 -0.8
v 0.7 0.7 -0.8
v 0.6 0.5 0.8
v 0.6 0.7 0.8
v 0.6 0.5 0.7
v 0.6 0.7 0.7
v 0.6 0 0.2
v 0.6 0.7 0.2
v 0.6 0 0.1
v 0.6 0.7 0.1
v 0.6 0.2 -0.7
v 0.6 0.5 -0.7
v 0.6 0.7 -0.7
v 0.6 0.2 -0.8
v 0.6 0.5 -0.8
v 0.6 0.7 -0.8
v 0.6 0 -1
v 0.6 0.7 -1
v 0.5 0 1
v 0.5 0.7 1
v 0.5 0.2 0.8
v 0.5 0.5 0.8
v 0.5 0.7 0.8
v 0.5 0.2 0.7
v 0.5 0.5 0.7
v 0.5 0.7 0.7
v 0.5 0 0.2
v 0.5 0.7 0.2
v -0.5 0 1
v -0.5 0.7 1
v -0.5 0 -1
v -0.5 0.7 -1
v 0.6 0 0.2
v 0.6 0 0.1
v 0.6 0 -1
v 0.5 0 1
v 0.5 0 0.2
v 0.5 0 0.1
v -0.5 0 1
v -0.5 0 -1
v 0.7 0.5 -0.7
v 0.7 0.5 -0.8
v 0.6 0.5 0.8
v 0.6 0.5 0.7
v 0.6 0.5 -0.7
v 0.6 0.5 -0.8
v 0.5 0.5 0.8
v 0.5 0.5 0.7
v 0.7 0.7 -0.7
v 0.7 0.7 -0.8
v 0.6 0.7 0.8
v 0.6 0.7 0.7
v 0.6 0.7 0.2
v 0.6 0.7 0.1
v 0.6 0.7 -0.7
v 0.6 0.7 -0.8
v 0.6 0.7 -1
v 0.5 0.7 1
v 0.5 0.7 0.8
v 0.5 0.7 0.7
v 0.5 0.7 0.2
v 0.5 0.7 0.1
v 0.5 0.7 -0.7
v 0.5 0.7 -0.8
v 0.4 0.7 0.8
v 0.4 0.7 0.7
v -0.5 0.7 1
v -0.5 0.7 -1

# faces
f 3/2/1 2/2/1 1/2/1
f 4/2/1 2/2/1 3/2/1
f 7/1/1 6/1/1 5/1/1
f 8/1/1 6/1/1 7/1/1
f 11/3/1 10/3/1 9/3/1
f 12/3/1 10/3/1 11/3/1
f 15/1/1 14/1/1 13/1/1
f 16/1/1 14/1/1 15/1/1
f 17/1/2 18/1/2 19/1/2
f 19/1/2 18/1/2 20/1/2
f 21/1/2 22/1/2 23/1/2
f 23/1/2 22/1/2 24/1/2
f 25/2/2 26/2/2 27/2/2
f 27/2/2 26/2/2 28/2/2
f 31/1/3 30/1/3 29/1/3
f 32/1/3 30/1/3 31/1/3
f 35/1/3 34/1/3 33/1/3
f 36/1/3 34/1/3 35/1/3
f 39/3/3 38/3/3 37/3/3
f 40/3/3 38/3/3 39/3/3
f 41/2/3 40/2/3 39/2/3
f 42/2/3 40/2/3 41/2/3
f 43/2/3 40/2/3 42/2/3
f 44/2/3 41/2/3 39/2/3
f 44/3/3 42/3/3 41/3/3
f 45/3/3 42/3/3 44/3/3
f 47/2/3 44/2/3 39/2/3
f 47/2/3 46/2/3 45/2/3
f 47/2/3 45/2/3 44/2/3
f 48/2/3 46/2/3 47/2/3
f 51/2/3 50/2/3 49/2/3
f 52/2/3 50/2/3 51/2/3
f 53/2/3 50/2/3 52/2/3
f 54/2/3 51/2/3 49/2/3
f 54/3/3 52/3/3 51/3/3
f 55/3/3 52/3/3 54/3/3
f 57/2/3 54/2/3 49/2/3
f 57/2/3 56/2/3 55/2/3
f 57/2/3 55/2/3 54/2/3
f 58/2/3 56/2/3 57/2/3
f 59/2/4 60/2/4 61/2/4
f 61/2/4 60/2/4 62/2/4
f 67/3/5 64/3/5 63/3/5
f 68/2/5 65/2/5 64/2/5
f 68/3/5 64/3/5 67/3/5
f 69/2/5 67/2/5 66/2/5
f 69/2/5 68/2/5 67/2/5
f 70/2/5 65/2/5 68/2/5
f 70/2/5 68/2/5 69/2/5
f 75/1/5 72/1/5 71/1/5
f 76/1/5 72/1/5 75/1/5
f 77/1/5 74/1/5 73/1/5
f 78/1/5 74/1/5 77/1/5
f 79/1/6 80/1/6 85/1/6
f 85/1/6 80/1/6 86/1/6
f 81/1/6 82/1/6 89/1/6
f 89/1/6 82/1/6 90/1/6
f 83/3/6 84/3/6 91/3/6
f 84/2/6 85/2/6 92/2/6
f 91/3/6 84/3/6 92/3/6
f 85/3/6 86/3/6 93/3/6
f 92/2/6 85/2/6 93/2/6
f 86/2/6 87/2/6 94/2/6
f 93/3/6 86/3/6 94/3/6
f 89/3/6 90/3/6 95/3/6
f 88/2/6 89/2/6 95/2/6
f 92/2/6 93/2/6 96/2/6
f 95/3/6 90/3/6 96/3/6
f 90/2/6 91/2/6 96/2/6
f 91/2/6 92/2/6 96/2/6
f 93/2/6 94/2/6 96/2/6
f 88/2/6 95/2/6 97/2/6
f 95/2/6 96/2/6 97/2/6
f 94/2/6 87/2/6 98/2/6
f 97/2/6 96/2/6 98/2/6
f 96/2/6 94/2/6 98/2/6
