# MagicaVoxel @ Ephtracy

# group
o 

# material
mtllib model-0.mtl
usemtl palette

# normals
vn -1 0 0
vn 1 0 0
vn 0 0 1
vn 0 0 -1
vn 0 -1 0
vn 0 1 0

# texcoords
vt 0.568359 0.5
vt 0.818359 0.5

# verts
v -0.5 0.6 0.9
v -0.5 0.6 -0.9
v -0.5 1.1 0.9
v -0.5 1.1 0.8
v -0.5 1.1 -0.8
v -0.5 1.1 -0.9
v -0.5 1.2 0.3
v -0.5 1.2 -0.3
v -0.5 1.3 0.5
v -0.5 1.3 0.3
v -0.5 1.3 -0.3
v -0.5 1.3 -0.5
v -0.5 2.1 0.8
v -0.5 2.1 0.5
v -0.5 2.1 -0.5
v -0.5 2.1 -0.8
v -0.4 0.6 1
v -0.4 0.6 0.9
v -0.4 0.6 -0.9
v -0.4 0.6 -1
v -0.4 1.1 1
v -0.4 1.1 0.9
v -0.4 1.1 -0.9
v -0.4 1.1 -1
v -0.4 1.2 0.2
v -0.4 1.2 -0.2
v -0.4 1.3 0.2
v -0.4 1.3 -0.2
v -0.4 1.4 0.3
v -0.4 1.4 -0.3
v -0.4 1.5 0.4
v -0.4 1.5 0.3
v -0.4 1.5 -0.3
v -0.4 1.5 -0.4
v -0.4 1.6 0.3
v -0.4 1.6 0.1
v -0.4 1.6 -0.1
v -0.4 1.6 -0.3
v -0.4 1.7 0.3
v -0.4 1.7 0.1
v -0.4 1.7 -0.1
v -0.4 1.7 -0.3
v -0.4 1.9 0.4
v -0.4 1.9 0.3
v -0.4 1.9 -0.3
v -0.4 1.9 -0.4
v -0.4 2 0.3
v -0.4 2 -0.3
v 0.3 1.3 0.3
v 0.3 1.3 0.1
v 0.3 1.3 -0.1
v 0.3 1.3 -0.3
v 0.3 1.4 0.5
v 0.3 1.4 0.3
v 0.3 1.4 0.1
v 0.3 1.4 -0.1
v 0.3 1.4 -0.3
v 0.3 1.4 -0.5
v 0.3 1.5 0.4
v 0.3 1.5 0.3
v 0.3 1.5 -0.3
v 0.3 1.5 -0.4
v 0.3 1.6 0.5
v 0.3 1.6 0.4
v 0.3 1.6 0.3
v 0.3 1.6 0.1
v 0.3 1.6 -0.1
v 0.3 1.6 -0.3
v 0.3 1.6 -0.4
v 0.3 1.6 -0.5
v 0.3 1.7 0.5
v 0.3 1.7 0.3
v 0.3 1.7 0.2
v 0.3 1.7 0.1
v 0.3 1.7 -0.1
v 0.3 1.7 -0.2
v 0.3 1.7 -0.3
v 0.3 1.7 -0.5
v 0.3 1.8 0.3
v 0.3 1.8 0.2
v 0.3 1.8 -0.2
v 0.3 1.8 -0.3
v 0.3 1.9 0.5
v 0.3 1.9 0.3
v 0.3 1.9 -0.3
v 0.3 1.9 -0.5
v -0.3 1.2 0.2
v -0.3 1.2 -0.2
v -0.3 1.3 0.2
v -0.3 1.3 -0.2
v -0.3 1.4 0.3
v -0.3 1.4 -0.3
v -0.3 1.5 0.4
v -0.3 1.5 0.3
v -0.3 1.5 -0.3
v -0.3 1.5 -0.4
v -0.3 1.6 0.3
v -0.3 1.6 0.1
v -0.3 1.6 -0.1
v -0.3 1.6 -0.3
v -0.3 1.7 0.3
v -0.3 1.7 0.1
v -0.3 1.7 -0.1
v -0.3 1.7 -0.3
v -0.3 1.9 0.4
v -0.3 1.9 0.3
v -0.3 1.9 -0.3
v -0.3 1.9 -0.4
v -0.3 2 0.3
v -0.3 2 -0.3
v 0.4 0.6 1
v 0.4 0.6 0.9
v 0.4 0.6 -0.9
v 0.4 0.6 -1
v 0.4 1.1 1
v 0.4 1.1 0.9
v 0.4 1.1 -0.9
v 0.4 1.1 -1
v 0.4 1.3 0.3
v 0.4 1.3 0.1
v 0.4 1.3 -0.1
v 0.4 1.3 -0.3
v 0.4 1.4 0.5
v 0.4 1.4 0.3
v 0.4 1.4 0.1
v 0.4 1.4 -0.1
v 0.4 1.4 -0.3
v 0.4 1.4 -0.5
v 0.4 1.5 0.4
v 0.4 1.5 0.3
v 0.4 1.5 -0.3
v 0.4 1.5 -0.4
v 0.4 1.6 0.5
v 0.4 1.6 0.4
v 0.4 1.6 0.3
v 0.4 1.6 0.1
v 0.4 1.6 -0.1
v 0.4 1.6 -0.3
v 0.4 1.6 -0.4
v 0.4 1.6 -0.5
v 0.4 1.7 0.5
v 0.4 1.7 0.3
v 0.4 1.7 0.2
v 0.4 1.7 0.1
v 0.4 1.7 -0.1
v 0.4 1.7 -0.2
v 0.4 1.7 -0.3
v 0.4 1.7 -0.5
v 0.4 1.8 0.3
v 0.4 1.8 0.2
v 0.4 1.8 -0.2
v 0.4 1.8 -0.3
v 0.4 1.9 0.5
v 0.4 1.9 0.3
v 0.4 1.9 -0.3
v 0.4 1.9 -0.5
v 0.5 0.6 0.9
v 0.5 0.6 -0.9
v 0.5 1.1 0.9
v 0.5 1.1 0.8
v 0.5 1.1 -0.8
v 0.5 1.1 -0.9
v 0.5 1.2 0.3
v 0.5 1.2 -0.3
v 0.5 1.3 0.5
v 0.5 1.3 0.3
v 0.5 1.3 -0.3
v 0.5 1.3 -0.5
v 0.5 2.1 0.8
v 0.5 2.1 0.5
v 0.5 2.1 -0.5
v 0.5 2.1 -0.8
v -0.4 0.6 1
v -0.4 1.1 1
v 0.4 0.6 1
v 0.4 1.1 1
v -0.5 0.6 0.9
v -0.5 1.1 0.9
v -0.4 0.6 0.9
v -0.4 1.1 0.9
v 0.4 0.6 0.9
v 0.4 1.1 0.9
v 0.5 0.6 0.9
v 0.5 1.1 0.9
v -0.5 1.1 0.8
v -0.5 2.1 0.8
v 0.5 1.1 0.8
v 0.5 2.1 0.8
v -0.4 1.5 0.4
v -0.4 1.9 0.4
v -0.3 1.5 0.4
v -0.3 1.9 0.4
v -0.4 1.4 0.3
v -0.4 1.5 0.3
v -0.4 1.9 0.3
v -0.4 2 0.3
v -0.3 1.4 0.3
v -0.3 1.5 0.3
v -0.3 1.9 0.3
v -0.3 2 0.3
v 0.3 1.3 0.3
v 0.3 1.4 0.3
v 0.3 1.6 0.3
v 0.3 1.7 0.3
v 0.4 1.3 0.3
v 0.4 1.4 0.3
v 0.4 1.6 0.3
v 0.4 1.7 0.3
v -0.4 1.2 0.2
v -0.4 1.3 0.2
v -0.3 1.2 0.2
v -0.3 1.3 0.2
v -0.4 1.6 0.1
v -0.4 1.7 0.1
v -0.3 1.6 0.1
v -0.3 1.7 0.1
v 0.3 1.3 -0.1
v 0.3 1.4 -0.1
v 0.3 1.6 -0.1
v 0.3 1.7 -0.1
v 0.4 1.3 -0.1
v 0.4 1.4 -0.1
v 0.4 1.6 -0.1
v 0.4 1.7 -0.1
v 0.3 1.7 -0.2
v 0.3 1.8 -0.2
v 0.4 1.7 -0.2
v 0.4 1.8 -0.2
v -0.5 1.2 -0.3
v -0.5 1.3 -0.3
v -0.4 1.6 -0.3
v -0.4 1.7 -0.3
v -0.3 1.6 -0.3
v -0.3 1.7 -0.3
v 0.3 1.3 -0.3
v 0.3 1.4 -0.3
v 0.3 1.5 -0.3
v 0.3 1.8 -0.3
v 0.3 1.9 -0.3
v 0.4 1.3 -0.3
v 0.4 1.4 -0.3
v 0.4 1.5 -0.3
v 0.4 1.8 -0.3
v 0.4 1.9 -0.3
v 0.5 1.2 -0.3
v 0.5 1.3 -0.3
v 0.3 1.5 -0.4
v 0.3 1.6 -0.4
v 0.4 1.5 -0.4
v 0.4 1.6 -0.4
v -0.5 1.3 -0.5
v -0.5 2.1 -0.5
v 0.3 1.4 -0.5
v 0.3 1.6 -0.5
v 0.3 1.7 -0.5
v 0.3 1.9 -0.5
v 0.4 1.4 -0.5
v 0.4 1.6 -0.5
v 0.4 1.7 -0.5
v 0.4 1.9 -0.5
v 0.5 1.3 -0.5
v 0.5 2.1 -0.5
v -0.5 1.3 0.5
v -0.5 2.1 0.5
v 0.3 1.4 0.5
v 0.3 1.6 0.5
v 0.3 1.7 0.5
v 0.3 1.9 0.5
v 0.4 1.4 0.5
v 0.4 1.6 0.5
v 0.4 1.7 0.5
v 0.4 1.9 0.5
v 0.5 1.3 0.5
v 0.5 2.1 0.5
v 0.3 1.5 0.4
v 0.3 1.6 0.4
v 0.4 1.5 0.4
v 0.4 1.6 0.4
v -0.5 1.2 0.3
v -0.5 1.3 0.3
v -0.4 1.6 0.3
v -0.4 1.7 0.3
v -0.3 1.6 0.3
v -0.3 1.7 0.3
v 0.3 1.3 0.3
v 0.3 1.4 0.3
v 0.3 1.5 0.3
v 0.3 1.8 0.3
v 0.3 1.9 0.3
v 0.4 1.3 0.3
v 0.4 1.4 0.3
v 0.4 1.5 0.3
v 0.4 1.8 0.3
v 0.4 1.9 0.3
v 0.5 1.2 0.3
v 0.5 1.3 0.3
v 0.3 1.7 0.2
v 0.3 1.8 0.2
v 0.4 1.7 0.2
v 0.4 1.8 0.2
v 0.3 1.3 0.1
v 0.3 1.4 0.1
v 0.3 1.6 0.1
v 0.3 1.7 0.1
v 0.4 1.3 0.1
v 0.4 1.4 0.1
v 0.4 1.6 0.1
v 0.4 1.7 0.1
v -0.4 1.6 -0.1
v -0.4 1.7 -0.1
v -0.3 1.6 -0.1
v -0.3 1.7 -0.1
v -0.4 1.2 -0.2
v -0.4 1.3 -0.2
v -0.3 1.2 -0.2
v -0.3 1.3 -0.2
v -0.4 1.4 -0.3
v -0.4 1.5 -0.3
v -0.4 1.9 -0.3
v -0.4 2 -0.3
v -0.3 1.4 -0.3
v -0.3 1.5 -0.3
v -0.3 1.9 -0.3
v -0.3 2 -0.3
v 0.3 1.3 -0.3
v 0.3 1.4 -0.3
v 0.3 1.6 -0.3
v 0.3 1.7 -0.3
v 0.4 1.3 -0.3
v 0.4 1.4 -0.3
v 0.4 1.6 -0.3
v 0.4 1.7 -0.3
v -0.4 1.5 -0.4
v -0.4 1.9 -0.4
v -0.3 1.5 -0.4
v -0.3 1.9 -0.4
v -0.5 1.1 -0.8
v -0.5 2.1 -0.8
v 0.5 1.1 -0.8
v 0.5 2.1 -0.8
v -0.5 0.6 -0.9
v -0.5 1.1 -0.9
v -0.4 0.6 -0.9
v -0.4 1.1 -0.9
v 0.4 0.6 -0.9
v 0.4 1.1 -0.9
v 0.5 0.6 -0.9
v 0.5 1.1 -0.9
v -0.4 0.6 -1
v -0.4 1.1 -1
v 0.4 0.6 -1
v 0.4 1.1 -1
v -0.4 0.6 1
v 0.4 0.6 1
v -0.5 0.6 0.9
v -0.4 0.6 0.9
v 0.4 0.6 0.9
v 0.5 0.6 0.9
v -0.5 0.6 -0.9
v -0.4 0.6 -0.9
v 0.4 0.6 -0.9
v 0.5 0.6 -0.9
v -0.4 0.6 -1
v 0.4 0.6 -1
v 0.3 1.3 0.3
v 0.4 1.3 0.3
v 0.3 1.3 0.1
v 0.4 1.3 0.1
v 0.3 1.3 -0.1
v 0.4 1.3 -0.1
v 0.3 1.3 -0.3
v 0.4 1.3 -0.3
v 0.3 1.4 0.5
v 0.4 1.4 0.5
v -0.4 1.4 0.3
v -0.3 1.4 0.3
v 0.3 1.4 0.3
v 0.4 1.4 0.3
v -0.4 1.4 -0.3
v -0.3 1.4 -0.3
v 0.3 1.4 -0.3
v 0.4 1.4 -0.3
v 0.3 1.4 -0.5
v 0.4 1.4 -0.5
v -0.4 1.5 0.4
v -0.3 1.5 0.4
v -0.4 1.5 0.3
v -0.3 1.5 0.3
v -0.4 1.5 -0.3
v -0.3 1.5 -0.3
v -0.4 1.5 -0.4
v -0.3 1.5 -0.4
v 0.3 1.6 0.3
v 0.4 1.6 0.3
v 0.3 1.6 0.1
v 0.4 1.6 0.1
v 0.3 1.6 -0.1
v 0.4 1.6 -0.1
v 0.3 1.6 -0.3
v 0.4 1.6 -0.3
v 0.3 1.7 0.5
v 0.4 1.7 0.5
v -0.4 1.7 0.3
v -0.3 1.7 0.3
v 0.3 1.7 0.3
v 0.4 1.7 0.3
v -0.4 1.7 0.1
v -0.3 1.7 0.1
v -0.4 1.7 -0.1
v -0.3 1.7 -0.1
v -0.4 1.7 -0.3
v -0.3 1.7 -0.3
v 0.3 1.7 -0.3
v 0.4 1.7 -0.3
v 0.3 1.7 -0.5
v 0.4 1.7 -0.5
v -0.4 1.1 1
v 0.4 1.1 1
v -0.5 1.1 0.9
v -0.4 1.1 0.9
v 0.4 1.1 0.9
v 0.5 1.1 0.9
v -0.5 1.1 0.8
v 0.5 1.1 0.8
v -0.5 1.1 -0.8
v 0.5 1.1 -0.8
v -0.5 1.1 -0.9
v -0.4 1.1 -0.9
v 0.4 1.1 -0.9
v 0.5 1.1 -0.9
v -0.4 1.1 -1
v 0.4 1.1 -1
v -0.5 1.2 0.3
v 0.5 1.2 0.3
v -0.4 1.2 0.2
v -0.3 1.2 0.2
v -0.4 1.2 -0.2
v -0.3 1.2 -0.2
v -0.5 1.2 -0.3
v 0.5 1.2 -0.3
v -0.5 1.3 0.5
v 0.5 1.3 0.5
v -0.5 1.3 0.3
v 0.3 1.3 0.3
v 0.4 1.3 0.3
v 0.5 1.3 0.3
v -0.4 1.3 0.2
v -0.3 1.3 0.2
v -0.4 1.3 -0.2
v -0.3 1.3 -0.2
v -0.5 1.3 -0.3
v 0.3 1.3 -0.3
v 0.4 1.3 -0.3
v 0.5 1.3 -0.3
v -0.5 1.3 -0.5
v 0.5 1.3 -0.5
v 0.3 1.4 0.3
v 0.4 1.4 0.3
v 0.3 1.4 0.1
v 0.4 1.4 0.1
v 0.3 1.4 -0.1
v 0.4 1.4 -0.1
v 0.3 1.4 -0.3
v 0.4 1.4 -0.3
v 0.3 1.5 0.4
v 0.4 1.5 0.4
v 0.3 1.5 0.3
v 0.4 1.5 0.3
v 0.3 1.5 -0.3
v 0.4 1.5 -0.3
v 0.3 1.5 -0.4
v 0.4 1.5 -0.4
v 0.3 1.6 0.5
v 0.4 1.6 0.5
v 0.3 1.6 0.4
v 0.4 1.6 0.4
v -0.4 1.6 0.3
v -0.3 1.6 0.3
v -0.4 1.6 0.1
v -0.3 1.6 0.1
v -0.4 1.6 -0.1
v -0.3 1.6 -0.1
v -0.4 1.6 -0.3
v -0.3 1.6 -0.3
v 0.3 1.6 -0.4
v 0.4 1.6 -0.4
v 0.3 1.6 -0.5
v 0.4 1.6 -0.5
v 0.3 1.7 0.2
v 0.4 1.7 0.2
v 0.3 1.7 0.1
v 0.4 1.7 0.1
v 0.3 1.7 -0.1
v 0.4 1.7 -0.1
v 0.3 1.7 -0.2
v 0.4 1.7 -0.2
v 0.3 1.8 0.3
v 0.4 1.8 0.3
v 0.3 1.8 0.2
v 0.4 1.8 0.2
v 0.3 1.8 -0.2
v 0.4 1.8 -0.2
v 0.3 1.8 -0.3
v 0.4 1.8 -0.3
v 0.3 1.9 0.5
v 0.4 1.9 0.5
v -0.4 1.9 0.4
v -0.3 1.9 0.4
v -0.4 1.9 0.3
v -0.3 1.9 0.3
v 0.3 1.9 0.3
v 0.4 1.9 0.3
v -0.4 1.9 -0.3
v -0.3 1.9 -0.3
v 0.3 1.9 -0.3
v 0.4 1.9 -0.3
v -0.4 1.9 -0.4
v -0.3 1.9 -0.4
v 0.3 1.9 -0.5
v 0.4 1.9 -0.5
v -0.4 2 0.3
v -0.3 2 0.3
v -0.4 2 -0.3
v -0.3 2 -0.3
v -0.5 2.1 0.8
v 0.5 2.1 0.8
v -0.5 2.1 0.5
v 0.5 2.1 0.5
v -0.5 2.1 -0.5
v 0.5 2.1 -0.5
v -0.5 2.1 -0.8
v 0.5 2.1 -0.8

# faces
f 3/1/1 2/1/1 1/1/1
f 4/1/1 2/1/1 3/1/1
f 5/1/1 2/1/1 4/1/1
f 6/1/1 2/1/1 5/1/1
f 7/1/1 5/1/1 4/1/1
f 8/1/1 5/1/1 7/1/1
f 9/1/1 7/1/1 4/1/1
f 10/1/1 7/1/1 9/1/1
f 11/1/1 5/1/1 8/1/1
f 12/1/1 5/1/1 11/1/1
f 13/1/1 9/1/1 4/1/1
f 14/1/1 9/1/1 13/1/1
f 15/1/1 5/1/1 12/1/1
f 16/1/1 5/1/1 15/1/1
f 21/1/1 18/1/1 17/1/1
f 22/1/1 18/1/1 21/1/1
f 23/1/1 20/1/1 19/1/1
f 24/1/1 20/1/1 23/1/1
f 27/2/1 26/2/1 25/2/1
f 28/2/1 26/2/1 27/2/1
f 32/2/1 30/2/1 29/2/1
f 33/2/1 30/2/1 32/2/1
f 35/2/1 32/2/1 31/2/1
f 35/2/1 34/2/1 33/2/1
f 35/2/1 33/2/1 32/2/1
f 36/2/1 34/2/1 35/2/1
f 37/2/1 34/2/1 36/2/1
f 38/2/1 34/2/1 37/2/1
f 39/2/1 35/2/1 31/2/1
f 40/2/1 37/2/1 36/2/1
f 41/2/1 37/2/1 40/2/1
f 42/2/1 34/2/1 38/2/1
f 43/2/1 41/2/1 40/2/1
f 43/2/1 42/2/1 41/2/1
f 43/2/1 39/2/1 31/2/1
f 43/2/1 40/2/1 39/2/1
f 44/2/1 42/2/1 43/2/1
f 45/2/1 34/2/1 42/2/1
f 45/2/1 42/2/1 44/2/1
f 46/2/1 34/2/1 45/2/1
f 47/2/1 45/2/1 44/2/1
f 48/2/1 45/2/1 47/2/1
f 54/2/1 50/2/1 49/2/1
f 55/2/1 50/2/1 54/2/1
f 56/2/1 52/2/1 51/2/1
f 57/2/1 52/2/1 56/2/1
f 59/2/1 54/2/1 53/2/1
f 60/2/1 54/2/1 59/2/1
f 61/2/1 58/2/1 57/2/1
f 62/2/1 58/2/1 61/2/1
f 63/2/1 59/2/1 53/2/1
f 64/2/1 59/2/1 63/2/1
f 69/2/1 58/2/1 62/2/1
f 70/2/1 58/2/1 69/2/1
f 72/2/1 66/2/1 65/2/1
f 73/2/1 66/2/1 72/2/1
f 74/2/1 66/2/1 73/2/1
f 75/2/1 68/2/1 67/2/1
f 76/2/1 68/2/1 75/2/1
f 77/2/1 68/2/1 76/2/1
f 79/2/1 72/2/1 71/2/1
f 79/2/1 73/2/1 72/2/1
f 80/2/1 73/2/1 79/2/1
f 81/2/1 78/2/1 77/2/1
f 81/2/1 77/2/1 76/2/1
f 82/2/1 78/2/1 81/2/1
f 83/2/1 79/2/1 71/2/1
f 84/2/1 79/2/1 83/2/1
f 85/2/1 78/2/1 82/2/1
f 86/2/1 78/2/1 85/2/1
f 87/2/2 88/2/2 89/2/2
f 89/2/2 88/2/2 90/2/2
f 91/2/2 92/2/2 94/2/2
f 94/2/2 92/2/2 95/2/2
f 93/2/2 94/2/2 97/2/2
f 95/2/2 96/2/2 97/2/2
f 94/2/2 95/2/2 97/2/2
f 97/2/2 96/2/2 98/2/2
f 98/2/2 96/2/2 99/2/2
f 99/2/2 96/2/2 100/2/2
f 93/2/2 97/2/2 101/2/2
f 98/2/2 99/2/2 102/2/2
f 102/2/2 99/2/2 103/2/2
f 100/2/2 96/2/2 104/2/2
f 102/2/2 103/2/2 105/2/2
f 103/2/2 104/2/2 105/2/2
f 93/2/2 101/2/2 105/2/2
f 101/2/2 102/2/2 105/2/2
f 105/2/2 104/2/2 106/2/2
f 104/2/2 96/2/2 107/2/2
f 106/2/2 104/2/2 107/2/2
f 107/2/2 96/2/2 108/2/2
f 106/2/2 107/2/2 109/2/2
f 109/2/2 107/2/2 110/2/2
f 111/1/2 112/1/2 115/1/2
f 115/1/2 112/1/2 116/1/2
f 113/1/2 114/1/2 117/1/2
f 117/1/2 114/1/2 118/1/2
f 119/2/2 120/2/2 124/2/2
f 124/2/2 120/2/2 125/2/2
f 121/2/2 122/2/2 126/2/2
f 126/2/2 122/2/2 127/2/2
f 123/2/2 124/2/2 129/2/2
f 129/2/2 124/2/2 130/2/2
f 127/2/2 128/2/2 131/2/2
f 131/2/2 128/2/2 132/2/2
f 123/2/2 129/2/2 133/2/2
f 133/2/2 129/2/2 134/2/2
f 132/2/2 128/2/2 139/2/2
f 139/2/2 128/2/2 140/2/2
f 135/2/2 136/2/2 142/2/2
f 142/2/2 136/2/2 143/2/2
f 143/2/2 136/2/2 144/2/2
f 137/2/2 138/2/2 145/2/2
f 145/2/2 138/2/2 146/2/2
f 146/2/2 138/2/2 147/2/2
f 141/2/2 142/2/2 149/2/2
f 142/2/2 143/2/2 149/2/2
f 149/2/2 143/2/2 150/2/2
f 147/2/2 148/2/2 151/2/2
f 146/2/2 147/2/2 151/2/2
f 151/2/2 148/2/2 152/2/2
f 141/2/2 149/2/2 153/2/2
f 153/2/2 149/2/2 154/2/2
f 152/2/2 148/2/2 155/2/2
f 155/2/2 148/2/2 156/2/2
f 157/1/2 158/1/2 159/1/2
f 159/1/2 158/1/2 160/1/2
f 160/1/2 158/1/2 161/1/2
f 161/1/2 158/1/2 162/1/2
f 160/1/2 161/1/2 163/1/2
f 163/1/2 161/1/2 164/1/2
f 160/1/2 163/1/2 165/1/2
f 165/1/2 163/1/2 166/1/2
f 164/1/2 161/1/2 167/1/2
f 167/1/2 161/1/2 168/1/2
f 160/1/2 165/1/2 169/1/2
f 169/1/2 165/1/2 170/1/2
f 168/1/2 161/1/2 171/1/2
f 171/1/2 161/1/2 172/1/2
f 175/1/3 174/1/3 173/1/3
f 176/1/3 174/1/3 175/1/3
f 179/1/3 178/1/3 177/1/3
f 180/1/3 178/1/3 179/1/3
f 183/1/3 182/1/3 181/1/3
f 184/1/3 182/1/3 183/1/3
f 187/1/3 186/1/3 185/1/3
f 188/1/3 186/1/3 187/1/3
f 191/2/3 190/2/3 189/2/3
f 192/2/3 190/2/3 191/2/3
f 197/2/3 194/2/3 193/2/3
f 198/2/3 194/2/3 197/2/3
f 199/2/3 196/2/3 195/2/3
f 200/2/3 196/2/3 199/2/3
f 205/2/3 202/2/3 201/2/3
f 206/2/3 202/2/3 205/2/3
f 207/2/3 204/2/3 203/2/3
f 208/2/3 204/2/3 207/2/3
f 211/2/3 210/2/3 209/2/3
f 212/2/3 210/2/3 211/2/3
f 215/2/3 214/2/3 213/2/3
f 216/2/3 214/2/3 215/2/3
f 221/2/3 218/2/3 217/2/3
f 222/2/3 218/2/3 221/2/3
f 223/2/3 220/2/3 219/2/3
f 224/2/3 220/2/3 223/2/3
f 227/2/3 226/2/3 225/2/3
f 228/2/3 226/2/3 227/2/3
f 233/2/3 232/2/3 231/2/3
f 234/2/3 232/2/3 233/2/3
f 235/1/3 230/1/3 229/1/3
f 240/1/3 235/1/3 229/1/3
f 241/2/3 237/2/3 236/2/3
f 242/2/3 237/2/3 241/2/3
f 243/2/3 239/2/3 238/2/3
f 244/2/3 239/2/3 243/2/3
f 245/1/3 240/1/3 229/1/3
f 246/1/3 240/1/3 245/1/3
f 249/2/3 248/2/3 247/2/3
f 250/2/3 248/2/3 249/2/3
f 253/1/3 252/1/3 251/1/3
f 254/1/3 252/1/3 253/1/3
f 255/1/3 252/1/3 254/1/3
f 256/1/3 252/1/3 255/1/3
f 257/1/3 253/1/3 251/1/3
f 258/1/3 255/1/3 254/1/3
f 259/1/3 255/1/3 258/1/3
f 260/1/3 252/1/3 256/1/3
f 261/1/3 259/1/3 258/1/3
f 261/1/3 260/1/3 259/1/3
f 261/1/3 257/1/3 251/1/3
f 261/1/3 258/1/3 257/1/3
f 262/1/3 252/1/3 260/1/3
f 262/1/3 260/1/3 261/1/3
f 263/1/4 264/1/4 265/1/4
f 265/1/4 264/1/4 266/1/4
f 266/1/4 264/1/4 267/1/4
f 267/1/4 264/1/4 268/1/4
f 263/1/4 265/1/4 269/1/4
f 266/1/4 267/1/4 270/1/4
f 270/1/4 267/1/4 271/1/4
f 268/1/4 264/1/4 272/1/4
f 270/1/4 271/1/4 273/1/4
f 271/1/4 272/1/4 273/1/4
f 263/1/4 269/1/4 273/1/4
f 269/1/4 270/1/4 273/1/4
f 272/1/4 264/1/4 274/1/4
f 273/1/4 272/1/4 274/1/4
f 275/2/4 276/2/4 277/2/4
f 277/2/4 276/2/4 278/2/4
f 281/2/4 282/2/4 283/2/4
f 283/2/4 282/2/4 284/2/4
f 279/1/4 280/1/4 285/1/4
f 279/1/4 285/1/4 290/1/4
f 286/2/4 287/2/4 291/2/4
f 291/2/4 287/2/4 292/2/4
f 288/2/4 289/2/4 293/2/4
f 293/2/4 289/2/4 294/2/4
f 279/1/4 290/1/4 295/1/4
f 295/1/4 290/1/4 296/1/4
f 297/2/4 298/2/4 299/2/4
f 299/2/4 298/2/4 300/2/4
f 301/2/4 302/2/4 305/2/4
f 305/2/4 302/2/4 306/2/4
f 303/2/4 304/2/4 307/2/4
f 307/2/4 304/2/4 308/2/4
f 309/2/4 310/2/4 311/2/4
f 311/2/4 310/2/4 312/2/4
f 313/2/4 314/2/4 315/2/4
f 315/2/4 314/2/4 316/2/4
f 317/2/4 318/2/4 321/2/4
f 321/2/4 318/2/4 322/2/4
f 319/2/4 320/2/4 323/2/4
f 323/2/4 320/2/4 324/2/4
f 325/2/4 326/2/4 329/2/4
f 329/2/4 326/2/4 330/2/4
f 327/2/4 328/2/4 331/2/4
f 331/2/4 328/2/4 332/2/4
f 333/2/4 334/2/4 335/2/4
f 335/2/4 334/2/4 336/2/4
f 337/1/4 338/1/4 339/1/4
f 339/1/4 338/1/4 340/1/4
f 341/1/4 342/1/4 343/1/4
f 343/1/4 342/1/4 344/1/4
f 345/1/4 346/1/4 347/1/4
f 347/1/4 346/1/4 348/1/4
f 349/1/4 350/1/4 351/1/4
f 351/1/4 350/1/4 352/1/4
f 356/1/5 354/1/5 353/1/5
f 357/1/5 354/1/5 356/1/5
f 359/1/5 356/1/5 355/1/5
f 359/1/5 358/1/5 357/1/5
f 359/1/5 357/1/5 356/1/5
f 360/1/5 358/1/5 359/1/5
f 361/1/5 358/1/5 360/1/5
f 362/1/5 358/1/5 361/1/5
f 363/1/5 361/1/5 360/1/5
f 364/1/5 361/1/5 363/1/5
f 367/2/5 366/2/5 365/2/5
f 368/2/5 366/2/5 367/2/5
f 371/2/5 370/2/5 369/2/5
f 372/2/5 370/2/5 371/2/5
f 377/2/5 374/2/5 373/2/5
f 378/2/5 374/2/5 377/2/5
f 379/2/5 376/2/5 375/2/5
f 380/2/5 376/2/5 379/2/5
f 383/2/5 382/2/5 381/2/5
f 384/2/5 382/2/5 383/2/5
f 387/2/5 386/2/5 385/2/5
f 388/2/5 386/2/5 387/2/5
f 391/2/5 390/2/5 389/2/5
f 392/2/5 390/2/5 391/2/5
f 395/2/5 394/2/5 393/2/5
f 396/2/5 394/2/5 395/2/5
f 399/2/5 398/2/5 397/2/5
f 400/2/5 398/2/5 399/2/5
f 405/2/5 402/2/5 401/2/5
f 406/2/5 402/2/5 405/2/5
f 407/2/5 404/2/5 403/2/5
f 408/2/5 404/2/5 407/2/5
f 411/2/5 410/2/5 409/2/5
f 412/2/5 410/2/5 411/2/5
f 415/2/5 414/2/5 413/2/5
f 416/2/5 414/2/5 415/2/5
f 417/1/6 418/1/6 420/1/6
f 420/1/6 418/1/6 421/1/6
f 419/1/6 420/1/6 423/1/6
f 421/1/6 422/1/6 423/1/6
f 420/1/6 421/1/6 423/1/6
f 423/1/6 422/1/6 424/1/6
f 425/1/6 426/1/6 427/1/6
f 427/1/6 426/1/6 428/1/6
f 428/1/6 426/1/6 429/1/6
f 429/1/6 426/1/6 430/1/6
f 428/1/6 429/1/6 431/1/6
f 431/1/6 429/1/6 432/1/6
f 433/1/6 434/1/6 435/1/6
f 435/1/6 434/1/6 436/1/6
f 433/1/6 435/1/6 437/1/6
f 436/1/6 434/1/6 438/1/6
f 433/1/6 437/1/6 439/1/6
f 437/1/6 438/1/6 439/1/6
f 438/1/6 434/1/6 440/1/6
f 439/1/6 438/1/6 440/1/6
f 441/1/6 442/1/6 443/1/6
f 443/1/6 442/1/6 444/1/6
f 444/1/6 442/1/6 445/1/6
f 445/1/6 442/1/6 446/1/6
f 447/2/6 448/2/6 449/2/6
f 449/2/6 448/2/6 450/2/6
f 451/1/6 452/1/6 455/1/6
f 453/1/6 454/1/6 455/1/6
f 452/1/6 453/1/6 455/1/6
f 455/1/6 454/1/6 456/1/6
f 457/2/6 458/2/6 459/2/6
f 459/2/6 458/2/6 460/2/6
f 461/2/6 462/2/6 463/2/6
f 463/2/6 462/2/6 464/2/6
f 465/2/6 466/2/6 467/2/6
f 467/2/6 466/2/6 468/2/6
f 469/2/6 470/2/6 471/2/6
f 471/2/6 470/2/6 472/2/6
f 473/2/6 474/2/6 475/2/6
f 475/2/6 474/2/6 476/2/6
f 477/2/6 478/2/6 479/2/6
f 479/2/6 478/2/6 480/2/6
f 481/2/6 482/2/6 483/2/6
f 483/2/6 482/2/6 484/2/6
f 485/2/6 486/2/6 487/2/6
f 487/2/6 486/2/6 488/2/6
f 489/2/6 490/2/6 491/2/6
f 491/2/6 490/2/6 492/2/6
f 493/2/6 494/2/6 495/2/6
f 495/2/6 494/2/6 496/2/6
f 497/2/6 498/2/6 499/2/6
f 499/2/6 498/2/6 500/2/6
f 501/2/6 502/2/6 503/2/6
f 503/2/6 502/2/6 504/2/6
f 507/2/6 508/2/6 509/2/6
f 509/2/6 508/2/6 510/2/6
f 505/2/6 506/2/6 511/2/6
f 511/2/6 506/2/6 512/2/6
f 513/2/6 514/2/6 517/2/6
f 517/2/6 514/2/6 518/2/6
f 515/2/6 516/2/6 519/2/6
f 519/2/6 516/2/6 520/2/6
f 521/2/6 522/2/6 523/2/6
f 523/2/6 522/2/6 524/2/6
f 525/1/6 526/1/6 527/1/6
f 527/1/6 526/1/6 528/1/6
f 529/1/6 530/1/6 531/1/6
f 531/1/6 530/1/6 532/1/6
