# MagicaVoxel @ Ephtracy

# group
o 

# material
mtllib model-1.mtl
usemtl palette

# normals
vn 0 0 1
vn 0 0 -1
vn 1 0 0
vn -1 0 0
vn 0 -1 0
vn 0 1 0

# texcoords
vt 0.0253906 0.5
vt 0.0371094 0.5
vt 0.365234 0.5
vt 0.564453 0.5
vt 0.568359 0.5
vt 0.572266 0.5
vt 0.576172 0.5
vt 0.583984 0.5
vt 0.681641 0.5

# verts
v 0.9 1.1 2
v 0.5 1.1 2
v 0.9 1.5 2
v 0.5 1.5 2
v 0.8 1 1.9
v 0.3 1 1.9
v 0.8 1.1 1.9
v 0.5 1.1 1.9
v 0.8 1.5 1.9
v 0.5 1.5 1.9
v 0.8 1.6 1.9
v 0.3 1.6 1.9
v 0.9 2.3 1.8
v 0.5 2.3 1.8
v 0.9 2.7 1.8
v 0.5 2.7 1.8
v 0.8 0.8 1.7
v 0.3 0.8 1.7
v 0.8 1 1.7
v 0.3 1 1.7
v 0.1 1 1.7
v 0.8 1.6 1.7
v 0.3 1.6 1.7
v 0.1 1.6 1.7
v 0.8 1.8 1.7
v 0.3 1.8 1.7
v 0.8 2.2 1.7
v 0.3 2.2 1.7
v 0.8 2.3 1.7
v 0.5 2.3 1.7
v 0.8 2.7 1.7
v 0.5 2.7 1.7
v 0.8 2.8 1.7
v 0.3 2.8 1.7
v 0.9 0.7 1.6
v 0.5 0.7 1.6
v 0.8 0.8 1.6
v 0.5 0.8 1.6
v 0.9 0.9 1.6
v 0.8 0.9 1.6
v 0.8 1.1 1.6
v 0.7 1.1 1.6
v 0.8 1.5 1.6
v 0.7 1.5 1.6
v 0.9 1.7 1.6
v 0.8 1.7 1.6
v 0.8 1.8 1.6
v 0.5 1.8 1.6
v 0.9 1.9 1.6
v 0.5 1.9 1.6
v 0.9 1.2 1.5
v 0.8 1.2 1.5
v 0.9 1.4 1.5
v 0.8 1.4 1.5
v 0.8 2 1.5
v 0.3 2 1.5
v 0.8 2.2 1.5
v 0.3 2.2 1.5
v 0.1 2.2 1.5
v 0.8 2.8 1.5
v 0.3 2.8 1.5
v 0.1 2.8 1.5
v 0.8 3 1.5
v 0.3 3 1.5
v 0.9 1.9 1.4
v 0.5 1.9 1.4
v 0.8 2 1.4
v 0.5 2 1.4
v 0.9 2.1 1.4
v 0.8 2.1 1.4
v 0.8 2.3 1.4
v 0.7 2.3 1.4
v 0.8 2.7 1.4
v 0.7 2.7 1.4
v 0.9 2.9 1.4
v 0.8 2.9 1.4
v 0.8 3 1.4
v 0.5 3 1.4
v 0.9 3.1 1.4
v 0.5 3.1 1.4
v 0.9 2.4 1.3
v 0.8 2.4 1.3
v 0.9 2.6 1.3
v 0.8 2.6 1.3
v 1 0.1 1.1
v 0.9 0.1 1.1
v 0.8 1 1.1
v 0.7 1 1.1
v 0.8 1.6 1.1
v 0.7 1.6 1.1
v 0.9 1.9 1.1
v 0.9 2.1 1.1
v 1 2.2 1.1
v 0.9 2.2 1.1
v 1 0 1
v 0.9 0 1
v 1 0.1 1
v 0.9 0.1 1
v 0.9 1.1 1
v 0.8 1.1 1
v 0.9 1.5 1
v 0.8 1.5 1
v 0.8 2.2 0.9
v 0.7 2.2 0.9
v 0.8 2.8 0.9
v 0.7 2.8 0.9
v 0.9 2.3 0.8
v 0.8 2.3 0.8
v 0.9 2.7 0.8
v 0.8 2.7 0.8
v 0.9 2.7 0.6
v 0.5 2.7 0.6
v 0.9 3 0.6
v 0.5 3 0.6
v 0.8 2.5 0.5
v 0.3 2.5 0.5
v 0.8 2.6 0.5
v 0.5 2.6 0.5
v 0.8 3 0.5
v 0.5 3 0.5
v 0.8 3.1 0.5
v 0.3 3.1 0.5
v 1 1 0.3
v 0.9 1 0.3
v 1 1.4 0.3
v 0.9 1.4 0.3
v 0.8 2.3 0.3
v 0.3 2.3 0.3
v 0.8 2.5 0.3
v 0.3 2.5 0.3
v 0.1 2.5 0.3
v 0.8 3.1 0.3
v 0.3 3.1 0.3
v 0.1 3.1 0.3
v 0.8 3.3 0.3
v 0.3 3.3 0.3
v 0.9 2.2 0.2
v 0.5 2.2 0.2
v 0.8 2.3 0.2
v 0.5 2.3 0.2
v 0.9 2.4 0.2
v 0.8 2.4 0.2
v 0.8 2.6 0.2
v 0.7 2.6 0.2
v 0.8 3 0.2
v 0.7 3 0.2
v 0.9 3.2 0.2
v 0.8 3.2 0.2
v 0.8 3.3 0.2
v 0.5 3.3 0.2
v 0.9 3.4 0.2
v 0.5 3.4 0.2
v 0.9 2.7 0.0999999
v 0.8 2.7 0.0999999
v 0.9 2.9 0.0999999
v 0.8 2.9 0.0999999
v 0.8 2.5 -0.3
v 0.7 2.5 -0.3
v 0.8 3.1 -0.3
v 0.7 3.1 -0.3
v 0.9 2.6 -0.4
v 0.8 2.6 -0.4
v 0.9 3 -0.4
v 0.8 3 -0.4
v 0.9 2.3 -0.6
v 0.5 2.3 -0.6
v 0.9 2.6 -0.6
v 0.5 2.6 -0.6
v 0.8 2.2 -0.7
v 0.3 2.2 -0.7
v 0.8 2.3 -0.7
v 0.5 2.3 -0.7
v 0.8 2.7 -0.7
v 0.5 2.7 -0.7
v 0.8 2.8 -0.7
v 0.3 2.8 -0.7
v 1 1 -0.8
v 0.9 1 -0.8
v 0.9 1.1 -0.8
v 0.5 1.1 -0.8
v 1 1.4 -0.8
v 0.9 1.4 -0.8
v 0.9 1.5 -0.8
v 0.5 1.5 -0.8
v 0.8 1 -0.9
v 0.3 1 -0.9
v 0.8 1.1 -0.9
v 0.5 1.1 -0.9
v 0.8 1.5 -0.9
v 0.5 1.5 -0.9
v 0.8 1.6 -0.9
v 0.3 1.6 -0.9
v 0.8 2 -0.9
v 0.3 2 -0.9
v 0.8 2.2 -0.9
v 0.3 2.2 -0.9
v 0.1 2.2 -0.9
v 0.8 2.8 -0.9
v 0.3 2.8 -0.9
v 0.1 2.8 -0.9
v 0.8 3 -0.9
v 0.3 3 -0.9
v 0.9 1.9 -1
v 0.5 1.9 -1
v 0.8 2 -1
v 0.5 2 -1
v 0.9 2.1 -1
v 0.8 2.1 -1
v 0.8 2.3 -1
v 0.7 2.3 -1
v 0.8 2.7 -1
v 0.7 2.7 -1
v 0.9 2.9 -1
v 0.8 2.9 -1
v 0.8 3 -1
v 0.5 3 -1
v 0.9 3.1 -1
v 0.5 3.1 -1
v 0.8 0.8 -1.1
v 0.3 0.8 -1.1
v 0.8 1 -1.1
v 0.3 1 -1.1
v 0.1 1 -1.1
v 0.8 1.6 -1.1
v 0.3 1.6 -1.1
v 0.1 1.6 -1.1
v 0.8 1.8 -1.1
v 0.3 1.8 -1.1
v 0.9 2.4 -1.1
v 0.8 2.4 -1.1
v 0.9 2.6 -1.1
v 0.8 2.6 -1.1
v 0.9 0.7 -1.2
v 0.5 0.7 -1.2
v 0.8 0.8 -1.2
v 0.5 0.8 -1.2
v 0.9 0.9 -1.2
v 0.8 0.9 -1.2
v 0.8 1.1 -1.2
v 0.7 1.1 -1.2
v 0.8 1.5 -1.2
v 0.7 1.5 -1.2
v 0.9 1.7 -1.2
v 0.8 1.7 -1.2
v 0.8 1.8 -1.2
v 0.5 1.8 -1.2
v 0.9 1.9 -1.2
v 0.5 1.9 -1.2
v 0.9 1.2 -1.3
v 0.8 1.2 -1.3
v 0.9 1.4 -1.3
v 0.8 1.4 -1.3
v 0.8 2.2 -1.5
v 0.7 2.2 -1.5
v 0.8 2.8 -1.5
v 0.7 2.8 -1.5
v 0.9 2.3 -1.6
v 0.8 2.3 -1.6
v 0.9 2.7 -1.6
v 0.8 2.7 -1.6
v 0.8 1 -1.7
v 0.7 1 -1.7
v 0.8 1.6 -1.7
v 0.7 1.6 -1.7
v 0.9 1.1 -1.8
v 0.8 1.1 -1.8
v 0.9 1.5 -1.8
v 0.8 1.5 -1.8
v 0.9 1.1 1.8
v 0.8 1.1 1.8
v 0.9 1.5 1.8
v 0.8 1.5 1.8
v 0.8 1 1.7
v 0.7 1 1.7
v 0.8 1.6 1.7
v 0.7 1.6 1.7
v 0.9 2.3 1.6
v 0.8 2.3 1.6
v 0.9 2.7 1.6
v 0.8 2.7 1.6
v 0.8 2.2 1.5
v 0.7 2.2 1.5
v 0.8 2.8 1.5
v 0.7 2.8 1.5
v 0.9 1.2 1.3
v 0.8 1.2 1.3
v 0.9 1.4 1.3
v 0.8 1.4 1.3
v 0.9 0.7 1.2
v 0.5 0.7 1.2
v 0.8 0.8 1.2
v 0.5 0.8 1.2
v 0.9 0.9 1.2
v 0.8 0.9 1.2
v 0.8 1.1 1.2
v 0.7 1.1 1.2
v 0.8 1.5 1.2
v 0.7 1.5 1.2
v 0.9 1.7 1.2
v 0.8 1.7 1.2
v 0.8 1.8 1.2
v 0.5 1.8 1.2
v 0.9 1.9 1.2
v 0.5 1.9 1.2
v 0.8 0.8 1.1
v 0.3 0.8 1.1
v 0.8 1 1.1
v 0.3 1 1.1
v 0.1 1 1.1
v 0.8 1.6 1.1
v 0.3 1.6 1.1
v 0.1 1.6 1.1
v 0.8 1.8 1.1
v 0.3 1.8 1.1
v 0.9 2.4 1.1
v 0.8 2.4 1.1
v 0.9 2.6 1.1
v 0.8 2.6 1.1
v 0.9 1.9 1
v 0.5 1.9 1
v 0.8 2 1
v 0.5 2 1
v 0.9 2.1 1
v 0.8 2.1 1
v 0.8 2.3 1
v 0.7 2.3 1
v 0.8 2.7 1
v 0.7 2.7 1
v 0.9 2.9 1
v 0.8 2.9 1
v 0.8 3 1
v 0.5 3 1
v 0.9 3.1 1
v 0.5 3.1 1
v 0.8 1 0.9
v 0.3 1 0.9
v 0.8 1.1 0.9
v 0.5 1.1 0.9
v 0.8 1.5 0.9
v 0.5 1.5 0.9
v 0.8 1.6 0.9
v 0.3 1.6 0.9
v 0.8 2 0.9
v 0.3 2 0.9
v 0.8 2.2 0.9
v 0.3 2.2 0.9
v 0.1 2.2 0.9
v 0.8 2.8 0.9
v 0.3 2.8 0.9
v 0.1 2.8 0.9
v 0.8 3 0.9
v 0.3 3 0.9
v 1 1 0.8
v 0.9 1 0.8
v 0.9 1.1 0.8
v 0.5 1.1 0.8
v 1 1.4 0.8
v 0.9 1.4 0.8
v 0.9 1.5 0.8
v 0.5 1.5 0.8
v 0.8 2.2 0.7
v 0.3 2.2 0.7
v 0.8 2.3 0.7
v 0.5 2.3 0.7
v 0.8 2.7 0.7
v 0.5 2.7 0.7
v 0.8 2.8 0.7
v 0.3 2.8 0.7
v 0.9 2.3 0.6
v 0.5 2.3 0.6
v 0.9 2.6 0.6
v 0.5 2.6 0.6
v 0.9 2.6 0.4
v 0.8 2.6 0.4
v 0.9 3 0.4
v 0.8 3 0.4
v 0.8 2.5 0.3
v 0.7 2.5 0.3
v 0.8 3.1 0.3
v 0.7 3.1 0.3
v 0.9 2.7 -0.1
v 0.8 2.7 -0.1
v 0.9 2.9 -0.1
v 0.8 2.9 -0.1
v 0.9 2.2 -0.2
v 0.5 2.2 -0.2
v 0.8 2.3 -0.2
v 0.5 2.3 -0.2
v 0.9 2.4 -0.2
v 0.8 2.4 -0.2
v 0.8 2.6 -0.2
v 0.7 2.6 -0.2
v 0.8 3 -0.2
v 0.7 3 -0.2
v 0.9 3.2 -0.2
v 0.8 3.2 -0.2
v 0.8 3.3 -0.2
v 0.5 3.3 -0.2
v 0.9 3.4 -0.2
v 0.5 3.4 -0.2
v 1 1 -0.3
v 0.9 1 -0.3
v 1 1.4 -0.3
v 0.9 1.4 -0.3
v 0.8 2.3 -0.3
v 0.3 2.3 -0.3
v 0.8 2.5 -0.3
v 0.3 2.5 -0.3
v 0.1 2.5 -0.3
v 0.8 3.1 -0.3
v 0.3 3.1 -0.3
v 0.1 3.1 -0.3
v 0.8 3.3 -0.3
v 0.3 3.3 -0.3
v 0.8 2.5 -0.5
v 0.3 2.5 -0.5
v 0.8 2.6 -0.5
v 0.5 2.6 -0.5
v 0.8 3 -0.5
v 0.5 3 -0.5
v 0.8 3.1 -0.5
v 0.3 3.1 -0.5
v 0.9 2.7 -0.6
v 0.5 2.7 -0.6
v 0.9 3 -0.6
v 0.5 3 -0.6
v 0.9 2.3 -0.8
v 0.8 2.3 -0.8
v 0.9 2.7 -0.8
v 0.8 2.7 -0.8
v 0.8 2.2 -0.9
v 0.7 2.2 -0.9
v 0.8 2.8 -0.9
v 0.7 2.8 -0.9
v 1 0 -1
v 0.9 0 -1
v 1 0.1 -1
v 0.9 0.1 -1
v 0.9 1.1 -1
v 0.8 1.1 -1
v 0.9 1.5 -1
v 0.8 1.5 -1
v 1 0.1 -1.1
v 0.9 0.1 -1.1
v 0.8 1 -1.1
v 0.7 1 -1.1
v 0.8 1.6 -1.1
v 0.7 1.6 -1.1
v 0.9 1.9 -1.1
v 0.9 2.1 -1.1
v 1 2.2 -1.1
v 0.9 2.2 -1.1
v 0.9 2.4 -1.3
v 0.8 2.4 -1.3
v 0.9 2.6 -1.3
v 0.8 2.6 -1.3
v 0.9 1.9 -1.4
v 0.5 1.9 -1.4
v 0.8 2 -1.4
v 0.5 2 -1.4
v 0.9 2.1 -1.4
v 0.8 2.1 -1.4
v 0.8 2.3 -1.4
v 0.7 2.3 -1.4
v 0.8 2.7 -1.4
v 0.7 2.7 -1.4
v 0.9 2.9 -1.4
v 0.8 2.9 -1.4
v 0.8 3 -1.4
v 0.5 3 -1.4
v 0.9 3.1 -1.4
v 0.5 3.1 -1.4
v 0.9 1.2 -1.5
v 0.8 1.2 -1.5
v 0.9 1.4 -1.5
v 0.8 1.4 -1.5
v 0.8 2 -1.5
v 0.3 2 -1.5
v 0.8 2.2 -1.5
v 0.3 2.2 -1.5
v 0.1 2.2 -1.5
v 0.8 2.8 -1.5
v 0.3 2.8 -1.5
v 0.1 2.8 -1.5
v 0.8 3 -1.5
v 0.3 3 -1.5
v 0.9 0.7 -1.6
v 0.5 0.7 -1.6
v 0.8 0.8 -1.6
v 0.5 0.8 -1.6
v 0.9 0.9 -1.6
v 0.8 0.9 -1.6
v 0.8 1.1 -1.6
v 0.7 1.1 -1.6
v 0.8 1.5 -1.6
v 0.7 1.5 -1.6
v 0.9 1.7 -1.6
v 0.8 1.7 -1.6
v 0.8 1.8 -1.6
v 0.5 1.8 -1.6
v 0.9 1.9 -1.6
v 0.5 1.9 -1.6
v 0.8 0.8 -1.7
v 0.3 0.8 -1.7
v 0.8 1 -1.7
v 0.3 1 -1.7
v 0.1 1 -1.7
v 0.8 1.6 -1.7
v 0.3 1.6 -1.7
v 0.1 1.6 -1.7
v 0.8 1.8 -1.7
v 0.3 1.8 -1.7
v 0.8 2.2 -1.7
v 0.3 2.2 -1.7
v 0.8 2.3 -1.7
v 0.5 2.3 -1.7
v 0.8 2.7 -1.7
v 0.5 2.7 -1.7
v 0.8 2.8 -1.7
v 0.3 2.8 -1.7
v 0.9 2.3 -1.8
v 0.5 2.3 -1.8
v 0.9 2.7 -1.8
v 0.5 2.7 -1.8
v 0.8 1 -1.9
v 0.3 1 -1.9
v 0.8 1.1 -1.9
v 0.5 1.1 -1.9
v 0.8 1.5 -1.9
v 0.5 1.5 -1.9
v 0.8 1.6 -1.9
v 0.3 1.6 -1.9
v 0.9 1.1 -2
v 0.5 1.1 -2
v 0.9 1.5 -2
v 0.5 1.5 -2
v 1 0.1 1.1
v 1 2.2 1.1
v 1 0 1
v 1 0.1 1
v 1 0.2 1
v 1 0.3 1
v 1 0.9 1
v 1 1.1 1
v 1 1.2 1
v 1 1.4 1
v 1 0.1 0.9
v 1 0.2 0.9
v 1 0.4 0.9
v 1 0.5 0.9
v 1 0.8 0.9
v 1 0.9 0.9
v 1 1.1 0.9
v 1 1.2 0.9
v 1 1.4 0.9
v 1 1.5 0.9
v 1 1.7 0.9
v 1 2.1 0.9
v 1 0.1 0.8
v 1 0.3 0.8
v 1 0.7 0.8
v 1 0.8 0.8
v 1 1 0.8
v 1 1.4 0.8
v 1 1.5 0.8
v 1 1.6 0.8
v 1 1.8 0.8
v 1 2 0.8
v 1 0.3 0.7
v 1 0.4 0.7
v 1 0.5 0.7
v 1 0.6 0.7
v 1 1.9 0.7
v 1 2 0.7
v 1 0.3 0.6
v 1 0.4 0.6
v 1 0.5 0.6
v 1 0.6 0.6
v 1 0.7 0.6
v 1 0.8 0.6
v 1 1.5 0.6
v 1 1.6 0.6
v 1 1.9 0.6
v 1 2.1 0.6
v 1 0.7 0.5
v 1 0.8 0.5
v 1 1.5 0.5
v 1 1.6 0.5
v 1 0.3 0.4
v 1 0.4 0.4
v 1 0.5 0.4
v 1 0.6 0.4
v 1 1.7 0.4
v 1 1.8 0.4
v 1 0.3 0.3
v 1 0.4 0.3
v 1 0.5 0.3
v 1 0.6 0.3
v 1 0.7 0.3
v 1 0.8 0.3
v 1 1 0.3
v 1 1.4 0.3
v 1 0.3 0.2
v 1 0.4 0.2
v 1 0.8 0.2
v 1 0.9 0.2
v 1 1.1 0.2
v 1 1.2 0.2
v 1 1.4 0.2
v 1 1.5 0.2
v 1 1.6 0.2
v 1 1.8 0.2
v 1 2 0.2
v 1 0.1 0.0999999
v 1 0.2 0.0999999
v 1 0.6 0.0999999
v 1 0.8 0.0999999
v 1 0.9 0.0999999
v 1 1.1 0.0999999
v 1 1.2 0.0999999
v 1 1.4 0.0999999
v 1 1.7 0.0999999
v 1 1.8 0.0999999
v 1 2 0.0999999
v 1 2.1 0.0999999
v 1 0.3 -2.38419e-07
v 1 0.4 -2.38419e-07
v 1 0.1 -0.1
v 1 0.2 -0.1
v 1 0.3 -0.1
v 1 0.4 -0.1
v 1 0.6 -0.1
v 1 0.8 -0.1
v 1 0.9 -0.1
v 1 1.1 -0.1
v 1 1.2 -0.1
v 1 1.4 -0.1
v 1 1.7 -0.1
v 1 1.8 -0.1
v 1 2 -0.1
v 1 2.1 -0.1
v 1 0.3 -0.2
v 1 0.4 -0.2
v 1 0.8 -0.2
v 1 0.9 -0.2
v 1 1.1 -0.2
v 1 1.2 -0.2
v 1 1.4 -0.2
v 1 1.5 -0.2
v 1 1.6 -0.2
v 1 1.8 -0.2
v 1 2 -0.2
v 1 0.3 -0.3
v 1 0.4 -0.3
v 1 0.5 -0.3
v 1 0.6 -0.3
v 1 0.7 -0.3
v 1 0.8 -0.3
v 1 1 -0.3
v 1 1.4 -0.3
v 1 0.3 -0.4
v 1 0.4 -0.4
v 1 0.5 -0.4
v 1 0.6 -0.4
v 1 1.7 -0.4
v 1 1.8 -0.4
v 1 0.7 -0.5
v 1 0.8 -0.5
v 1 1.5 -0.5
v 1 1.6 -0.5
v 1 0.3 -0.6
v 1 0.4 -0.6
v 1 0.5 -0.6
v 1 0.6 -0.6
v 1 0.7 -0.6
v 1 0.8 -0.6
v 1 1.5 -0.6
v 1 1.6 -0.6
v 1 1.9 -0.6
v 1 2.1 -0.6
v 1 0.3 -0.7
v 1 0.4 -0.7
v 1 0.5 -0.7
v 1 0.6 -0.7
v 1 1.9 -0.7
v 1 2 -0.7
v 1 0.1 -0.8
v 1 0.3 -0.8
v 1 0.7 -0.8
v 1 0.8 -0.8
v 1 1 -0.8
v 1 1.4 -0.8
v 1 1.5 -0.8
v 1 1.6 -0.8
v 1 1.8 -0.8
v 1 2 -0.8
v 1 0.1 -0.9
v 1 0.2 -0.9
v 1 0.4 -0.9
v 1 0.5 -0.9
v 1 0.8 -0.9
v 1 0.9 -0.9
v 1 1.1 -0.9
v 1 1.2 -0.9
v 1 1.4 -0.9
v 1 1.5 -0.9
v 1 1.7 -0.9
v 1 2.1 -0.9
v 1 0 -1
v 1 0.1 -1
v 1 0.2 -1
v 1 0.3 -1
v 1 0.9 -1
v 1 1.1 -1
v 1 1.2 -1
v 1 1.4 -1
v 1 0.1 -1.1
v 1 2.2 -1.1
v 0.9 1.1 2
v 0.9 1.5 2
v 0.9 1.1 1.8
v 0.9 1.5 1.8
v 0.9 2.3 1.8
v 0.9 2.7 1.8
v 0.9 0.7 1.6
v 0.9 0.9 1.6
v 0.9 1.7 1.6
v 0.9 1.9 1.6
v 0.9 2.3 1.6
v 0.9 2.7 1.6
v 0.9 1.2 1.5
v 0.9 1.4 1.5
v 0.9 1.9 1.4
v 0.9 2.1 1.4
v 0.9 2.9 1.4
v 0.9 3.1 1.4
v 0.9 1.2 1.3
v 0.9 1.4 1.3
v 0.9 2.4 1.3
v 0.9 2.6 1.3
v 0.9 0.7 1.2
v 0.9 0.9 1.2
v 0.9 1.7 1.2
v 0.9 1.9 1.2
v 0.9 1.9 1.1
v 0.9 2.1 1.1
v 0.9 2.4 1.1
v 0.9 2.6 1.1
v 0.9 2.9 1
v 0.9 3.1 1
v 0.9 2.3 0.8
v 0.9 2.7 0.8
v 0.9 2.3 0.6
v 0.9 2.6 0.6
v 0.9 2.7 0.6
v 0.9 3 0.6
v 0.9 2.6 0.4
v 0.9 3 0.4
v 0.9 2.2 0.2
v 0.9 2.4 0.2
v 0.9 3.2 0.2
v 0.9 3.4 0.2
v 0.9 2.7 0.0999999
v 0.9 2.9 0.0999999
v 0.9 2.7 -0.1
v 0.9 2.9 -0.1
v 0.9 2.2 -0.2
v 0.9 2.4 -0.2
v 0.9 3.2 -0.2
v 0.9 3.4 -0.2
v 0.9 2.6 -0.4
v 0.9 3 -0.4
v 0.9 2.3 -0.6
v 0.9 2.6 -0.6
v 0.9 2.7 -0.6
v 0.9 3 -0.6
v 0.9 2.3 -0.8
v 0.9 2.7 -0.8
v 0.9 2.9 -1
v 0.9 3.1 -1
v 0.9 1.9 -1.1
v 0.9 2.1 -1.1
v 0.9 2.4 -1.1
v 0.9 2.6 -1.1
v 0.9 0.7 -1.2
v 0.9 0.9 -1.2
v 0.9 1.7 -1.2
v 0.9 1.9 -1.2
v 0.9 1.2 -1.3
v 0.9 1.4 -1.3
v 0.9 2.4 -1.3
v 0.9 2.6 -1.3
v 0.9 1.9 -1.4
v 0.9 2.1 -1.4
v 0.9 2.9 -1.4
v 0.9 3.1 -1.4
v 0.9 1.2 -1.5
v 0.9 1.4 -1.5
v 0.9 0.7 -1.6
v 0.9 0.9 -1.6
v 0.9 1.7 -1.6
v 0.9 1.9 -1.6
v 0.9 2.3 -1.6
v 0.9 2.7 -1.6
v 0.9 1.1 -1.8
v 0.9 1.5 -1.8
v 0.9 2.3 -1.8
v 0.9 2.7 -1.8
v 0.9 1.1 -2
v 0.9 1.5 -2
v 0.8 1 1.9
v 0.8 1.1 1.9
v 0.8 1.5 1.9
v 0.8 1.6 1.9
v 0.8 1.1 1.8
v 0.8 1.5 1.8
v 0.8 0.8 1.7
v 0.8 1 1.7
v 0.8 1.6 1.7
v 0.8 1.8 1.7
v 0.8 2.2 1.7
v 0.8 2.3 1.7
v 0.8 2.7 1.7
v 0.8 2.8 1.7
v 0.8 0.8 1.6
v 0.8 0.9 1.6
v 0.8 1.1 1.6
v 0.8 1.5 1.6
v 0.8 1.7 1.6
v 0.8 1.8 1.6
v 0.8 2.3 1.6
v 0.8 2.7 1.6
v 0.8 1.2 1.5
v 0.8 1.4 1.5
v 0.8 2 1.5
v 0.8 2.2 1.5
v 0.8 2.8 1.5
v 0.8 3 1.5
v 0.8 2 1.4
v 0.8 2.1 1.4
v 0.8 2.3 1.4
v 0.8 2.7 1.4
v 0.8 2.9 1.4
v 0.8 3 1.4
v 0.8 1.2 1.3
v 0.8 1.4 1.3
v 0.8 2.4 1.3
v 0.8 2.6 1.3
v 0.8 0.8 1.2
v 0.8 0.9 1.2
v 0.8 1.1 1.2
v 0.8 1.5 1.2
v 0.8 1.7 1.2
v 0.8 1.8 1.2
v 0.8 0.8 1.1
v 0.8 1 1.1
v 0.8 1.6 1.1
v 0.8 1.8 1.1
v 0.8 2.4 1.1
v 0.8 2.6 1.1
v 0.8 1.1 1
v 0.8 1.5 1
v 0.8 2 1
v 0.8 2.1 1
v 0.8 2.3 1
v 0.8 2.7 1
v 0.8 2.9 1
v 0.8 3 1
v 0.8 1 0.9
v 0.8 1.1 0.9
v 0.8 1.5 0.9
v 0.8 1.6 0.9
v 0.8 2 0.9
v 0.8 2.2 0.9
v 0.8 2.8 0.9
v 0.8 3 0.9
v 0.8 2.3 0.8
v 0.8 2.7 0.8
v 0.8 2.2 0.7
v 0.8 2.3 0.7
v 0.8 2.7 0.7
v 0.8 2.8 0.7
v 0.8 2.5 0.5
v 0.8 2.6 0.5
v 0.8 3 0.5
v 0.8 3.1 0.5
v 0.8 2.6 0.4
v 0.8 3 0.4
v 0.8 2.3 0.3
v 0.8 2.5 0.3
v 0.8 3.1 0.3
v 0.8 3.3 0.3
v 0.8 2.3 0.2
v 0.8 2.4 0.2
v 0.8 2.6 0.2
v 0.8 3 0.2
v 0.8 3.2 0.2
v 0.8 3.3 0.2
v 0.8 2.7 0.0999999
v 0.8 2.9 0.0999999
v 0.8 2.7 -0.1
v 0.8 2.9 -0.1
v 0.8 2.3 -0.2
v 0.8 2.4 -0.2
v 0.8 2.6 -0.2
v 0.8 3 -0.2
v 0.8 3.2 -0.2
v 0.8 3.3 -0.2
v 0.8 2.3 -0.3
v 0.8 2.5 -0.3
v 0.8 3.1 -0.3
v 0.8 3.3 -0.3
v 0.8 2.6 -0.4
v 0.8 3 -0.4
v 0.8 2.5 -0.5
v 0.8 2.6 -0.5
v 0.8 3 -0.5
v 0.8 3.1 -0.5
v 0.8 2.2 -0.7
v 0.8 2.3 -0.7
v 0.8 2.7 -0.7
v 0.8 2.8 -0.7
v 0.8 2.3 -0.8
v 0.8 2.7 -0.8
v 0.8 1 -0.9
v 0.8 1.1 -0.9
v 0.8 1.5 -0.9
v 0.8 1.6 -0.9
v 0.8 2 -0.9
v 0.8 2.2 -0.9
v 0.8 2.8 -0.9
v 0.8 3 -0.9
v 0.8 1.1 -1
v 0.8 1.5 -1
v 0.8 2 -1
v 0.8 2.1 -1
v 0.8 2.3 -1
v 0.8 2.7 -1
v 0.8 2.9 -1
v 0.8 3 -1
v 0.8 0.8 -1.1
v 0.8 1 -1.1
v 0.8 1.6 -1.1
v 0.8 1.8 -1.1
v 0.8 2.4 -1.1
v 0.8 2.6 -1.1
v 0.8 0.8 -1.2
v 0.8 0.9 -1.2
v 0.8 1.1 -1.2
v 0.8 1.5 -1.2
v 0.8 1.7 -1.2
v 0.8 1.8 -1.2
v 0.8 1.2 -1.3
v 0.8 1.4 -1.3
v 0.8 2.4 -1.3
v 0.8 2.6 -1.3
v 0.8 2 -1.4
v 0.8 2.1 -1.4
v 0.8 2.3 -1.4
v 0.8 2.7 -1.4
v 0.8 2.9 -1.4
v 0.8 3 -1.4
v 0.8 1.2 -1.5
v 0.8 1.4 -1.5
v 0.8 2 -1.5
v 0.8 2.2 -1.5
v 0.8 2.8 -1.5
v 0.8 3 -1.5
v 0.8 0.8 -1.6
v 0.8 0.9 -1.6
v 0.8 1.1 -1.6
v 0.8 1.5 -1.6
v 0.8 1.7 -1.6
v 0.8 1.8 -1.6
v 0.8 2.3 -1.6
v 0.8 2.7 -1.6
v 0.8 0.8 -1.7
v 0.8 1 -1.7
v 0.8 1.6 -1.7
v 0.8 1.8 -1.7
v 0.8 2.2 -1.7
v 0.8 2.3 -1.7
v 0.8 2.7 -1.7
v 0.8 2.8 -1.7
v 0.8 1.1 -1.8
v 0.8 1.5 -1.8
v 0.8 1 -1.9
v 0.8 1.1 -1.9
v 0.8 1.5 -1.9
v 0.8 1.6 -1.9
v 0.7 1 1.7
v 0.7 1.6 1.7
v 0.7 1.1 1.6
v 0.7 1.5 1.6
v 0.7 2.2 1.5
v 0.7 2.8 1.5
v 0.7 2.3 1.4
v 0.7 2.7 1.4
v 0.7 1.1 1.2
v 0.7 1.5 1.2
v 0.7 1 1.1
v 0.7 1.6 1.1
v 0.7 2.3 1
v 0.7 2.7 1
v 0.7 2.2 0.9
v 0.7 2.8 0.9
v 0.7 2.5 0.3
v 0.7 3.1 0.3
v 0.7 2.6 0.2
v 0.7 3 0.2
v 0.7 2.6 -0.2
v 0.7 3 -0.2
v 0.7 2.5 -0.3
v 0.7 3.1 -0.3
v 0.7 2.2 -0.9
v 0.7 2.8 -0.9
v 0.7 2.3 -1
v 0.7 2.7 -1
v 0.7 1 -1.1
v 0.7 1.6 -1.1
v 0.7 1.1 -1.2
v 0.7 1.5 -1.2
v 0.7 2.3 -1.4
v 0.7 2.7 -1.4
v 0.7 2.2 -1.5
v 0.7 2.8 -1.5
v 0.7 1.1 -1.6
v 0.7 1.5 -1.6
v 0.7 1 -1.7
v 0.7 1.6 -1.7
v 0.9 0.1 1.1
v 0.9 1.9 1.1
v 0.9 2.1 1.1
v 0.9 2.2 1.1
v 0.9 0 1
v 0.9 0.1 1
v 0.9 0.2 1
v 0.9 0.3 1
v 0.9 0.9 1
v 0.9 1.1 1
v 0.9 1.5 1
v 0.9 1.9 1
v 0.9 2.1 1
v 0.9 0.1 0.9
v 0.9 0.2 0.9
v 0.9 0.4 0.9
v 0.9 0.5 0.9
v 0.9 0.8 0.9
v 0.9 0.9 0.9
v 0.9 1.1 0.9
v 0.9 1.7 0.9
v 0.9 2.1 0.9
v 0.9 0.1 0.8
v 0.9 0.3 0.8
v 0.9 0.7 0.8
v 0.9 0.8 0.8
v 0.9 1 0.8
v 0.9 1.1 0.8
v 0.9 1.4 0.8
v 0.9 1.5 0.8
v 0.9 1.6 0.8
v 0.9 1.8 0.8
v 0.9 2 0.8
v 0.9 0.3 0.7
v 0.9 0.4 0.7
v 0.9 0.5 0.7
v 0.9 0.6 0.7
v 0.9 1.9 0.7
v 0.9 2 0.7
v 0.9 0.3 0.6
v 0.9 0.4 0.6
v 0.9 0.5 0.6
v 0.9 0.6 0.6
v 0.9 0.7 0.6
v 0.9 0.8 0.6
v 0.9 1.5 0.6
v 0.9 1.6 0.6
v 0.9 1.9 0.6
v 0.9 2.1 0.6
v 0.9 0.7 0.5
v 0.9 0.8 0.5
v 0.9 1.5 0.5
v 0.9 1.6 0.5
v 0.9 0.3 0.4
v 0.9 0.4 0.4
v 0.9 0.5 0.4
v 0.9 0.6 0.4
v 0.9 1.7 0.4
v 0.9 1.8 0.4
v 0.9 0.3 0.3
v 0.9 0.4 0.3
v 0.9 0.5 0.3
v 0.9 0.6 0.3
v 0.9 0.7 0.3
v 0.9 0.8 0.3
v 0.9 1 0.3
v 0.9 1.4 0.3
v 0.9 0.3 0.2
v 0.9 0.4 0.2
v 0.9 0.8 0.2
v 0.9 0.9 0.2
v 0.9 1.1 0.2
v 0.9 1.2 0.2
v 0.9 1.4 0.2
v 0.9 1.5 0.2
v 0.9 1.6 0.2
v 0.9 1.8 0.2
v 0.9 2 0.2
v 0.9 2.2 0.2
v 0.9 0.1 0.0999999
v 0.9 0.2 0.0999999
v 0.9 0.6 0.0999999
v 0.9 0.8 0.0999999
v 0.9 0.9 0.0999999
v 0.9 1.1 0.0999999
v 0.9 1.2 0.0999999
v 0.9 1.4 0.0999999
v 0.9 1.7 0.0999999
v 0.9 1.8 0.0999999
v 0.9 2 0.0999999
v 0.9 2.1 0.0999999
v 0.9 0.3 -2.38419e-07
v 0.9 0.4 -2.38419e-07
v 0.9 0.1 -0.1
v 0.9 0.2 -0.1
v 0.9 0.3 -0.1
v 0.9 0.4 -0.1
v 0.9 0.6 -0.1
v 0.9 0.8 -0.1
v 0.9 0.9 -0.1
v 0.9 1.1 -0.1
v 0.9 1.2 -0.1
v 0.9 1.4 -0.1
v 0.9 1.7 -0.1
v 0.9 1.8 -0.1
v 0.9 2 -0.1
v 0.9 2.1 -0.1
v 0.9 0.3 -0.2
v 0.9 0.4 -0.2
v 0.9 0.8 -0.2
v 0.9 0.9 -0.2
v 0.9 1.1 -0.2
v 0.9 1.2 -0.2
v 0.9 1.4 -0.2
v 0.9 1.5 -0.2
v 0.9 1.6 -0.2
v 0.9 1.8 -0.2
v 0.9 2 -0.2
v 0.9 2.2 -0.2
v 0.9 0.3 -0.3
v 0.9 0.4 -0.3
v 0.9 0.5 -0.3
v 0.9 0.6 -0.3
v 0.9 0.7 -0.3
v 0.9 0.8 -0.3
v 0.9 1 -0.3
v 0.9 1.4 -0.3
v 0.9 0.3 -0.4
v 0.9 0.4 -0.4
v 0.9 0.5 -0.4
v 0.9 0.6 -0.4
v 0.9 1.7 -0.4
v 0.9 1.8 -0.4
v 0.9 0.7 -0.5
v 0.9 0.8 -0.5
v 0.9 1.5 -0.5
v 0.9 1.6 -0.5
v 0.9 0.3 -0.6
v 0.9 0.4 -0.6
v 0.9 0.5 -0.6
v 0.9 0.6 -0.6
v 0.9 0.7 -0.6
v 0.9 0.8 -0.6
v 0.9 1.5 -0.6
v 0.9 1.6 -0.6
v 0.9 1.9 -0.6
v 0.9 2.1 -0.6
v 0.9 0.3 -0.7
v 0.9 0.4 -0.7
v 0.9 0.5 -0.7
v 0.9 0.6 -0.7
v 0.9 1.9 -0.7
v 0.9 2 -0.7
v 0.9 0.1 -0.8
v 0.9 0.3 -0.8
v 0.9 0.7 -0.8
v 0.9 0.8 -0.8
v 0.9 1 -0.8
v 0.9 1.1 -0.8
v 0.9 1.4 -0.8
v 0.9 1.5 -0.8
v 0.9 1.6 -0.8
v 0.9 1.8 -0.8
v 0.9 2 -0.8
v 0.9 0.1 -0.9
v 0.9 0.2 -0.9
v 0.9 0.4 -0.9
v 0.9 0.5 -0.9
v 0.9 0.8 -0.9
v 0.9 0.9 -0.9
v 0.9 1.1 -0.9
v 0.9 1.7 -0.9
v 0.9 2.1 -0.9
v 0.9 0 -1
v 0.9 0.1 -1
v 0.9 0.2 -1
v 0.9 0.3 -1
v 0.9 0.9 -1
v 0.9 1.1 -1
v 0.9 1.5 -1
v 0.9 1.9 -1
v 0.9 2.1 -1
v 0.9 0.1 -1.1
v 0.9 1.9 -1.1
v 0.9 2.1 -1.1
v 0.9 2.2 -1.1
v 0.5 1.1 2
v 0.5 1.5 2
v 0.5 1.1 1.9
v 0.5 1.5 1.9
v 0.5 2.3 1.8
v 0.5 2.7 1.8
v 0.5 2.3 1.7
v 0.5 2.7 1.7
v 0.5 0.7 1.6
v 0.5 0.8 1.6
v 0.5 1.8 1.6
v 0.5 1.9 1.6
v 0.5 1.9 1.4
v 0.5 2 1.4
v 0.5 3 1.4
v 0.5 3.1 1.4
v 0.5 0.7 1.2
v 0.5 0.8 1.2
v 0.5 1.8 1.2
v 0.5 1.9 1.2
v 0.5 1.9 1
v 0.5 2 1
v 0.5 3 1
v 0.5 3.1 1
v 0.5 1.1 0.9
v 0.5 1.5 0.9
v 0.5 1.1 0.8
v 0.5 1.5 0.8
v 0.5 2.3 0.7
v 0.5 2.7 0.7
v 0.5 2.3 0.6
v 0.5 2.6 0.6
v 0.5 2.7 0.6
v 0.5 3 0.6
v 0.5 2.6 0.5
v 0.5 3 0.5
v 0.5 2.2 0.2
v 0.5 2.3 0.2
v 0.5 3.3 0.2
v 0.5 3.4 0.2
v 0.5 2.2 -0.2
v 0.5 2.3 -0.2
v 0.5 3.3 -0.2
v 0.5 3.4 -0.2
v 0.5 2.6 -0.5
v 0.5 3 -0.5
v 0.5 2.3 -0.6
v 0.5 2.6 -0.6
v 0.5 2.7 -0.6
v 0.5 3 -0.6
v 0.5 2.3 -0.7
v 0.5 2.7 -0.7
v 0.5 1.1 -0.8
v 0.5 1.5 -0.8
v 0.5 1.1 -0.9
v 0.5 1.5 -0.9
v 0.5 1.9 -1
v 0.5 2 -1
v 0.5 3 -1
v 0.5 3.1 -1
v 0.5 0.7 -1.2
v 0.5 0.8 -1.2
v 0.5 1.8 -1.2
v 0.5 1.9 -1.2
v 0.5 1.9 -1.4
v 0.5 2 -1.4
v 0.5 3 -1.4
v 0.5 3.1 -1.4
v 0.5 0.7 -1.6
v 0.5 0.8 -1.6
v 0.5 1.8 -1.6
v 0.5 1.9 -1.6
v 0.5 2.3 -1.7
v 0.5 2.7 -1.7
v 0.5 2.3 -1.8
v 0.5 2.7 -1.8
v 0.5 1.1 -1.9
v 0.5 1.5 -1.9
v 0.5 1.1 -2
v 0.5 1.5 -2
v 0.3 1 1.9
v 0.3 1.6 1.9
v 0.3 0.8 1.7
v 0.3 1 1.7
v 0.3 1.6 1.7
v 0.3 1.8 1.7
v 0.3 2.2 1.7
v 0.3 2.8 1.7
v 0.3 2 1.5
v 0.3 2.2 1.5
v 0.3 2.8 1.5
v 0.3 3 1.5
v 0.3 0.8 1.1
v 0.3 1 1.1
v 0.3 1.6 1.1
v 0.3 1.8 1.1
v 0.3 1 0.9
v 0.3 1.6 0.9
v 0.3 2 0.9
v 0.3 2.2 0.9
v 0.3 2.8 0.9
v 0.3 3 0.9
v 0.3 2.2 0.7
v 0.3 2.8 0.7
v 0.3 2.5 0.5
v 0.3 3.1 0.5
v 0.3 2.3 0.3
v 0.3 2.5 0.3
v 0.3 3.1 0.3
v 0.3 3.3 0.3
v 0.3 2.3 -0.3
v 0.3 2.5 -0.3
v 0.3 3.1 -0.3
v 0.3 3.3 -0.3
v 0.3 2.5 -0.5
v 0.3 3.1 -0.5
v 0.3 2.2 -0.7
v 0.3 2.8 -0.7
v 0.3 1 -0.9
v 0.3 1.6 -0.9
v 0.3 2 -0.9
v 0.3 2.2 -0.9
v 0.3 2.8 -0.9
v 0.3 3 -0.9
v 0.3 0.8 -1.1
v 0.3 1 -1.1
v 0.3 1.6 -1.1
v 0.3 1.8 -1.1
v 0.3 2 -1.5
v 0.3 2.2 -1.5
v 0.3 2.8 -1.5
v 0.3 3 -1.5
v 0.3 0.8 -1.7
v 0.3 1 -1.7
v 0.3 1.6 -1.7
v 0.3 1.8 -1.7
v 0.3 2.2 -1.7
v 0.3 2.8 -1.7
v 0.3 1 -1.9
v 0.3 1.6 -1.9
v 0.1 1 1.7
v 0.1 1.6 1.7
v 0.1 2.2 1.5
v 0.1 2.8 1.5
v 0.1 1 1.1
v 0.1 1.6 1.1
v 0.1 2.2 0.9
v 0.1 2.8 0.9
v 0.1 2.5 0.3
v 0.1 3.1 0.3
v 0.1 2.5 -0.3
v 0.1 3.1 -0.3
v 0.1 2.2 -0.9
v 0.1 2.8 -0.9
v 0.1 1 -1.1
v 0.1 1.6 -1.1
v 0.1 2.2 -1.5
v 0.1 2.8 -1.5
v 0.1 1 -1.7
v 0.1 1.6 -1.7
v 1 0 1
v 1 0 -1
v 0.9 0 1
v 0.9 0 -1
v 1 0.1 1.1
v 1 0.1 1
v 1 0.1 -1
v 1 0.1 -1.1
v 0.9 0.1 1.1
v 0.9 0.1 1
v 0.9 0.1 -1
v 0.9 0.1 -1.1
v 0.9 0.7 1.6
v 0.9 0.7 1.2
v 0.9 0.7 -1.2
v 0.9 0.7 -1.6
v 0.5 0.7 1.6
v 0.5 0.7 1.2
v 0.5 0.7 -1.2
v 0.5 0.7 -1.6
v 0.8 0.8 1.7
v 0.8 0.8 1.6
v 0.8 0.8 1.2
v 0.8 0.8 1.1
v 0.8 0.8 -1.1
v 0.8 0.8 -1.2
v 0.8 0.8 -1.6
v 0.8 0.8 -1.7
v 0.5 0.8 1.6
v 0.5 0.8 1.2
v 0.5 0.8 -1.2
v 0.5 0.8 -1.6
v 0.3 0.8 1.7
v 0.3 0.8 1.1
v 0.3 0.8 -1.1
v 0.3 0.8 -1.7
v 0.8 1 1.9
v 0.8 1 1.7
v 0.8 1 1.1
v 0.8 1 0.9
v 0.8 1 -0.9
v 0.8 1 -1.1
v 0.8 1 -1.7
v 0.8 1 -1.9
v 0.3 1 1.9
v 0.3 1 1.7
v 0.3 1 1.1
v 0.3 1 0.9
v 0.3 1 -0.9
v 0.3 1 -1.1
v 0.3 1 -1.7
v 0.3 1 -1.9
v 0.1 1 1.7
v 0.1 1 1.1
v 0.1 1 -1.1
v 0.1 1 -1.7
v 0.9 1.1 2
v 0.9 1.1 1.8
v 0.9 1.1 1
v 0.9 1.1 0.9
v 0.9 1.1 0.8
v 0.9 1.1 -0.8
v 0.9 1.1 -0.9
v 0.9 1.1 -1
v 0.9 1.1 -1.8
v 0.9 1.1 -2
v 0.8 1.1 1.9
v 0.8 1.1 1.8
v 0.8 1.1 1.6
v 0.8 1.1 1.2
v 0.8 1.1 1
v 0.8 1.1 0.9
v 0.8 1.1 -0.9
v 0.8 1.1 -1
v 0.8 1.1 -1.2
v 0.8 1.1 -1.6
v 0.8 1.1 -1.8
v 0.8 1.1 -1.9
v 0.7 1.1 1.6
v 0.7 1.1 1.2
v 0.7 1.1 -1.2
v 0.7 1.1 -1.6
v 0.5 1.1 2
v 0.5 1.1 1.9
v 0.5 1.1 0.9
v 0.5 1.1 0.8
v 0.5 1.1 -0.8
v 0.5 1.1 -0.9
v 0.5 1.1 -1.9
v 0.5 1.1 -2
v 0.9 1.2 1.5
v 0.9 1.2 1.3
v 0.9 1.2 -1.3
v 0.9 1.2 -1.5
v 0.8 1.2 1.5
v 0.8 1.2 1.3
v 0.8 1.2 -1.3
v 0.8 1.2 -1.5
v 1 1.4 0.8
v 1 1.4 0.3
v 1 1.4 -0.3
v 1 1.4 -0.8
v 0.9 1.4 0.8
v 0.9 1.4 0.3
v 0.9 1.4 -0.3
v 0.9 1.4 -0.8
v 0.8 1.6 1.7
v 0.8 1.6 1.1
v 0.8 1.6 -1.1
v 0.8 1.6 -1.7
v 0.7 1.6 1.7
v 0.7 1.6 1.1
v 0.7 1.6 -1.1
v 0.7 1.6 -1.7
v 0.9 1.7 1.6
v 0.9 1.7 1.2
v 0.9 1.7 -1.2
v 0.9 1.7 -1.6
v 0.8 1.7 1.6
v 0.8 1.7 1.2
v 0.8 1.7 -1.2
v 0.8 1.7 -1.6
v 0.9 1.9 1.2
v 0.9 1.9 1.1
v 0.9 1.9 1
v 0.9 1.9 -1
v 0.9 1.9 -1.1
v 0.9 1.9 -1.2
v 0.5 1.9 1.2
v 0.5 1.9 1
v 0.5 1.9 -1
v 0.5 1.9 -1.2
v 0.8 2 1.5
v 0.8 2 1.4
v 0.8 2 1
v 0.8 2 0.9
v 0.8 2 -0.9
v 0.8 2 -1
v 0.8 2 -1.4
v 0.8 2 -1.5
v 0.5 2 1.4
v 0.5 2 1
v 0.5 2 -1
v 0.5 2 -1.4
v 0.3 2 1.5
v 0.3 2 0.9
v 0.3 2 -0.9
v 0.3 2 -1.5
v 0.9 2.2 0.2
v 0.9 2.2 -0.2
v 0.8 2.2 1.7
v 0.8 2.2 1.5
v 0.8 2.2 0.9
v 0.8 2.2 0.7
v 0.8 2.2 -0.7
v 0.8 2.2 -0.9
v 0.8 2.2 -1.5
v 0.8 2.2 -1.7
v 0.5 2.2 0.2
v 0.5 2.2 -0.2
v 0.3 2.2 1.7
v 0.3 2.2 1.5
v 0.3 2.2 0.9
v 0.3 2.2 0.7
v 0.3 2.2 -0.7
v 0.3 2.2 -0.9
v 0.3 2.2 -1.5
v 0.3 2.2 -1.7
v 0.1 2.2 1.5
v 0.1 2.2 0.9
v 0.1 2.2 -0.9
v 0.1 2.2 -1.5
v 0.9 2.3 1.8
v 0.9 2.3 1.6
v 0.9 2.3 0.8
v 0.9 2.3 0.6
v 0.9 2.3 -0.6
v 0.9 2.3 -0.8
v 0.9 2.3 -1.6
v 0.9 2.3 -1.8
v 0.8 2.3 1.7
v 0.8 2.3 1.6
v 0.8 2.3 1.4
v 0.8 2.3 1
v 0.8 2.3 0.8
v 0.8 2.3 0.7
v 0.8 2.3 0.3
v 0.8 2.3 0.2
v 0.8 2.3 -0.2
v 0.8 2.3 -0.3
v 0.8 2.3 -0.7
v 0.8 2.3 -0.8
v 0.8 2.3 -1
v 0.8 2.3 -1.4
v 0.8 2.3 -1.6
v 0.8 2.3 -1.7
v 0.7 2.3 1.4
v 0.7 2.3 1
v 0.7 2.3 -1
v 0.7 2.3 -1.4
v 0.5 2.3 1.8
v 0.5 2.3 1.7
v 0.5 2.3 0.7
v 0.5 2.3 0.6
v 0.5 2.3 0.2
v 0.5 2.3 -0.2
v 0.5 2.3 -0.6
v 0.5 2.3 -0.7
v 0.5 2.3 -1.7
v 0.5 2.3 -1.8
v 0.3 2.3 0.3
v 0.3 2.3 -0.3
v 0.9 2.4 1.3
v 0.9 2.4 1.1
v 0.9 2.4 -1.1
v 0.9 2.4 -1.3
v 0.8 2.4 1.3
v 0.8 2.4 1.1
v 0.8 2.4 -1.1
v 0.8 2.4 -1.3
v 0.8 2.5 0.5
v 0.8 2.5 0.3
v 0.8 2.5 -0.3
v 0.8 2.5 -0.5
v 0.3 2.5 0.5
v 0.3 2.5 0.3
v 0.3 2.5 -0.3
v 0.3 2.5 -0.5
v 0.1 2.5 0.3
v 0.1 2.5 -0.3
v 0.9 2.6 0.6
v 0.9 2.6 0.4
v 0.9 2.6 -0.4
v 0.9 2.6 -0.6
v 0.8 2.6 0.5
v 0.8 2.6 0.4
v 0.8 2.6 0.2
v 0.8 2.6 -0.2
v 0.8 2.6 -0.4
v 0.8 2.6 -0.5
v 0.7 2.6 0.2
v 0.7 2.6 -0.2
v 0.5 2.6 0.6
v 0.5 2.6 0.5
v 0.5 2.6 -0.5
v 0.5 2.6 -0.6
v 0.9 2.7 0.0999999
v 0.9 2.7 -0.1
v 0.8 2.7 0.0999999
v 0.8 2.7 -0.1
v 0.8 2.8 1.5
v 0.8 2.8 0.9
v 0.8 2.8 -0.9
v 0.8 2.8 -1.5
v 0.7 2.8 1.5
v 0.7 2.8 0.9
v 0.7 2.8 -0.9
v 0.7 2.8 -1.5
v 0.9 2.9 1.4
v 0.9 2.9 1
v 0.9 2.9 -1
v 0.9 2.9 -1.4
v 0.8 2.9 1.4
v 0.8 2.9 1
v 0.8 2.9 -1
v 0.8 2.9 -1.4
v 0.8 3.1 0.3
v 0.8 3.1 -0.3
v 0.7 3.1 0.3
v 0.7 3.1 -0.3
v 0.9 3.2 0.2
v 0.9 3.2 -0.2
v 0.8 3.2 0.2
v 0.8 3.2 -0.2
v 0.9 0.9 1.6
v 0.9 0.9 1.2
v 0.9 0.9 -1.2
v 0.9 0.9 -1.6
v 0.8 0.9 1.6
v 0.8 0.9 1.2
v 0.8 0.9 -1.2
v 0.8 0.9 -1.6
v 1 1 0.8
v 1 1 0.3
v 1 1 -0.3
v 1 1 -0.8
v 0.9 1 0.8
v 0.9 1 0.3
v 0.9 1 -0.3
v 0.9 1 -0.8
v 0.8 1 1.7
v 0.8 1 1.1
v 0.8 1 -1.1
v 0.8 1 -1.7
v 0.7 1 1.7
v 0.7 1 1.1
v 0.7 1 -1.1
v 0.7 1 -1.7
v 0.9 1.4 1.5
v 0.9 1.4 1.3
v 0.9 1.4 -1.3
v 0.9 1.4 -1.5
v 0.8 1.4 1.5
v 0.8 1.4 1.3
v 0.8 1.4 -1.3
v 0.8 1.4 -1.5
v 0.9 1.5 2
v 0.9 1.5 1.8
v 0.9 1.5 1
v 0.9 1.5 0.8
v 0.9 1.5 -0.8
v 0.9 1.5 -1
v 0.9 1.5 -1.8
v 0.9 1.5 -2
v 0.8 1.5 1.9
v 0.8 1.5 1.8
v 0.8 1.5 1.6
v 0.8 1.5 1.2
v 0.8 1.5 1
v 0.8 1.5 0.9
v 0.8 1.5 -0.9
v 0.8 1.5 -1
v 0.8 1.5 -1.2
v 0.8 1.5 -1.6
v 0.8 1.5 -1.8
v 0.8 1.5 -1.9
v 0.7 1.5 1.6
v 0.7 1.5 1.2
v 0.7 1.5 -1.2
v 0.7 1.5 -1.6
v 0.5 1.5 2
v 0.5 1.5 1.9
v 0.5 1.5 0.9
v 0.5 1.5 0.8
v 0.5 1.5 -0.8
v 0.5 1.5 -0.9
v 0.5 1.5 -1.9
v 0.5 1.5 -2
v 0.8 1.6 1.9
v 0.8 1.6 1.7
v 0.8 1.6 1.1
v 0.8 1.6 0.9
v 0.8 1.6 -0.9
v 0.8 1.6 -1.1
v 0.8 1.6 -1.7
v 0.8 1.6 -1.9
v 0.3 1.6 1.9
v 0.3 1.6 1.7
v 0.3 1.6 1.1
v 0.3 1.6 0.9
v 0.3 1.6 -0.9
v 0.3 1.6 -1.1
v 0.3 1.6 -1.7
v 0.3 1.6 -1.9
v 0.1 1.6 1.7
v 0.1 1.6 1.1
v 0.1 1.6 -1.1
v 0.1 1.6 -1.7
v 0.8 1.8 1.7
v 0.8 1.8 1.6
v 0.8 1.8 1.2
v 0.8 1.8 1.1
v 0.8 1.8 -1.1
v 0.8 1.8 -1.2
v 0.8 1.8 -1.6
v 0.8 1.8 -1.7
v 0.5 1.8 1.6
v 0.5 1.8 1.2
v 0.5 1.8 -1.2
v 0.5 1.8 -1.6
v 0.3 1.8 1.7
v 0.3 1.8 1.1
v 0.3 1.8 -1.1
v 0.3 1.8 -1.7
v 0.9 1.9 1.6
v 0.9 1.9 1.4
v 0.9 1.9 -1.4
v 0.9 1.9 -1.6
v 0.5 1.9 1.6
v 0.5 1.9 1.4
v 0.5 1.9 -1.4
v 0.5 1.9 -1.6
v 0.9 2.1 1.4
v 0.9 2.1 1.1
v 0.9 2.1 1
v 0.9 2.1 -1
v 0.9 2.1 -1.1
v 0.9 2.1 -1.4
v 0.8 2.1 1.4
v 0.8 2.1 1
v 0.8 2.1 -1
v 0.8 2.1 -1.4
v 1 2.2 1.1
v 1 2.2 -1.1
v 0.9 2.2 1.1
v 0.9 2.2 0.2
v 0.9 2.2 -0.2
v 0.9 2.2 -1.1
v 0.8 2.2 1.5
v 0.8 2.2 0.9
v 0.8 2.2 -0.9
v 0.8 2.2 -1.5
v 0.7 2.2 1.5
v 0.7 2.2 0.9
v 0.7 2.2 -0.9
v 0.7 2.2 -1.5
v 0.9 2.4 0.2
v 0.9 2.4 -0.2
v 0.8 2.4 0.2
v 0.8 2.4 -0.2
v 0.8 2.5 0.3
v 0.8 2.5 -0.3
v 0.7 2.5 0.3
v 0.7 2.5 -0.3
v 0.9 2.6 1.3
v 0.9 2.6 1.1
v 0.9 2.6 -1.1
v 0.9 2.6 -1.3
v 0.8 2.6 1.3
v 0.8 2.6 1.1
v 0.8 2.6 -1.1
v 0.8 2.6 -1.3
v 0.9 2.7 1.8
v 0.9 2.7 1.6
v 0.9 2.7 0.8
v 0.9 2.7 0.6
v 0.9 2.7 -0.6
v 0.9 2.7 -0.8
v 0.9 2.7 -1.6
v 0.9 2.7 -1.8
v 0.8 2.7 1.7
v 0.8 2.7 1.6
v 0.8 2.7 1.4
v 0.8 2.7 1
v 0.8 2.7 0.8
v 0.8 2.7 0.7
v 0.8 2.7 -0.7
v 0.8 2.7 -0.8
v 0.8 2.7 -1
v 0.8 2.7 -1.4
v 0.8 2.7 -1.6
v 0.8 2.7 -1.7
v 0.7 2.7 1.4
v 0.7 2.7 1
v 0.7 2.7 -1
v 0.7 2.7 -1.4
v 0.5 2.7 1.8
v 0.5 2.7 1.7
v 0.5 2.7 0.7
v 0.5 2.7 0.6
v 0.5 2.7 -0.6
v 0.5 2.7 -0.7
v 0.5 2.7 -1.7
v 0.5 2.7 -1.8
v 0.8 2.8 1.7
v 0.8 2.8 1.5
v 0.8 2.8 0.9
v 0.8 2.8 0.7
v 0.8 2.8 -0.7
v 0.8 2.8 -0.9
v 0.8 2.8 -1.5
v 0.8 2.8 -1.7
v 0.3 2.8 1.7
v 0.3 2.8 1.5
v 0.3 2.8 0.9
v 0.3 2.8 0.7
v 0.3 2.8 -0.7
v 0.3 2.8 -0.9
v 0.3 2.8 -1.5
v 0.3 2.8 -1.7
v 0.1 2.8 1.5
v 0.1 2.8 0.9
v 0.1 2.8 -0.9
v 0.1 2.8 -1.5
v 0.9 2.9 0.0999999
v 0.9 2.9 -0.1
v 0.8 2.9 0.0999999
v 0.8 2.9 -0.1
v 0.9 3 0.6
v 0.9 3 0.4
v 0.9 3 -0.4
v 0.9 3 -0.6
v 0.8 3 1.5
v 0.8 3 1.4
v 0.8 3 1
v 0.8 3 0.9
v 0.8 3 0.5
v 0.8 3 0.4
v 0.8 3 0.2
v 0.8 3 -0.2
v 0.8 3 -0.4
v 0.8 3 -0.5
v 0.8 3 -0.9
v 0.8 3 -1
v 0.8 3 -1.4
v 0.8 3 -1.5
v 0.7 3 0.2
v 0.7 3 -0.2
v 0.5 3 1.4
v 0.5 3 1
v 0.5 3 0.6
v 0.5 3 0.5
v 0.5 3 -0.5
v 0.5 3 -0.6
v 0.5 3 -1
v 0.5 3 -1.4
v 0.3 3 1.5
v 0.3 3 0.9
v 0.3 3 -0.9
v 0.3 3 -1.5
v 0.9 3.1 1.4
v 0.9 3.1 1
v 0.9 3.1 -1
v 0.9 3.1 -1.4
v 0.8 3.1 0.5
v 0.8 3.1 0.3
v 0.8 3.1 -0.3
v 0.8 3.1 -0.5
v 0.5 3.1 1.4
v 0.5 3.1 1
v 0.5 3.1 -1
v 0.5 3.1 -1.4
v 0.3 3.1 0.5
v 0.3 3.1 0.3
v 0.3 3.1 -0.3
v 0.3 3.1 -0.5
v 0.1 3.1 0.3
v 0.1 3.1 -0.3
v 0.8 3.3 0.3
v 0.8 3.3 0.2
v 0.8 3.3 -0.2
v 0.8 3.3 -0.3
v 0.5 3.3 0.2
v 0.5 3.3 -0.2
v 0.3 3.3 0.3
v 0.3 3.3 -0.3
v 0.9 3.4 0.2
v 0.9 3.4 -0.2
v 0.5 3.4 0.2
v 0.5 3.4 -0.2

# faces
f 3/5/1 2/5/1 1/5/1
f 4/5/1 2/5/1 3/5/1
f 7/5/1 6/5/1 5/5/1
f 8/5/1 6/5/1 7/5/1
f 10/5/1 6/5/1 8/5/1
f 11/5/1 10/5/1 9/5/1
f 12/5/1 6/5/1 10/5/1
f 12/5/1 10/5/1 11/5/1
f 15/4/1 14/4/1 13/4/1
f 16/4/1 14/4/1 15/4/1
f 19/5/1 18/5/1 17/5/1
f 20/5/1 18/5/1 19/5/1
f 23/5/1 21/5/1 20/5/1
f 24/5/1 21/5/1 23/5/1
f 25/5/1 23/5/1 22/5/1
f 26/5/1 23/5/1 25/5/1
f 29/4/1 28/4/1 27/4/1
f 30/4/1 28/4/1 29/4/1
f 32/4/1 28/4/1 30/4/1
f 33/4/1 32/4/1 31/4/1
f 34/4/1 28/4/1 32/4/1
f 34/4/1 32/4/1 33/4/1
f 37/5/1 36/5/1 35/5/1
f 38/5/1 36/5/1 37/5/1
f 39/5/1 37/5/1 35/5/1
f 40/5/1 37/5/1 39/5/1
f 43/5/1 42/5/1 41/5/1
f 44/5/1 42/5/1 43/5/1
f 47/5/1 46/5/1 45/5/1
f 49/5/1 47/5/1 45/5/1
f 49/5/1 48/5/1 47/5/1
f 50/5/1 48/5/1 49/5/1
f 53/5/1 52/5/1 51/5/1
f 54/5/1 52/5/1 53/5/1
f 57/4/1 56/4/1 55/4/1
f 58/4/1 56/4/1 57/4/1
f 61/4/1 59/4/1 58/4/1
f 62/4/1 59/4/1 61/4/1
f 63/4/1 61/4/1 60/4/1
f 64/4/1 61/4/1 63/4/1
f 67/4/1 66/4/1 65/4/1
f 68/4/1 66/4/1 67/4/1
f 69/4/1 67/4/1 65/4/1
f 70/4/1 67/4/1 69/4/1
f 73/4/1 72/4/1 71/4/1
f 74/4/1 72/4/1 73/4/1
f 77/4/1 76/4/1 75/4/1
f 79/4/1 77/4/1 75/4/1
f 79/4/1 78/4/1 77/4/1
f 80/4/1 78/4/1 79/4/1
f 83/4/1 82/4/1 81/4/1
f 84/4/1 82/4/1 83/4/1
f 89/5/1 88/5/1 87/5/1
f 90/5/1 88/5/1 89/5/1
f 91/1/1 86/1/1 85/1/1
f 92/1/1 91/1/1 85/1/1
f 93/1/1 92/1/1 85/1/1
f 94/1/1 92/1/1 93/1/1
f 97/1/1 96/1/1 95/1/1
f 98/1/1 96/1/1 97/1/1
f 101/5/1 100/5/1 99/5/1
f 102/5/1 100/5/1 101/5/1
f 105/4/1 104/4/1 103/4/1
f 106/4/1 104/4/1 105/4/1
f 109/4/1 108/4/1 107/4/1
f 110/4/1 108/4/1 109/4/1
f 113/5/1 112/5/1 111/5/1
f 114/5/1 112/5/1 113/5/1
f 117/5/1 116/5/1 115/5/1
f 118/5/1 116/5/1 117/5/1
f 120/5/1 116/5/1 118/5/1
f 121/5/1 120/5/1 119/5/1
f 122/5/1 116/5/1 120/5/1
f 122/5/1 120/5/1 121/5/1
f 125/2/1 124/2/1 123/2/1
f 126/2/1 124/2/1 125/2/1
f 129/5/1 128/5/1 127/5/1
f 130/5/1 128/5/1 129/5/1
f 133/5/1 131/5/1 130/5/1
f 134/5/1 131/5/1 133/5/1
f 135/5/1 133/5/1 132/5/1
f 136/5/1 133/5/1 135/5/1
f 139/5/1 138/5/1 137/5/1
f 140/5/1 138/5/1 139/5/1
f 141/5/1 139/5/1 137/5/1
f 142/5/1 139/5/1 141/5/1
f 145/5/1 144/5/1 143/5/1
f 146/5/1 144/5/1 145/5/1
f 149/5/1 148/5/1 147/5/1
f 151/5/1 149/5/1 147/5/1
f 151/5/1 150/5/1 149/5/1
f 152/5/1 150/5/1 151/5/1
f 155/5/1 154/5/1 153/5/1
f 156/5/1 154/5/1 155/5/1
f 159/5/1 158/5/1 157/5/1
f 160/5/1 158/5/1 159/5/1
f 163/5/1 162/5/1 161/5/1
f 164/5/1 162/5/1 163/5/1
f 167/4/1 166/4/1 165/4/1
f 168/4/1 166/4/1 167/4/1
f 171/4/1 170/4/1 169/4/1
f 172/4/1 170/4/1 171/4/1
f 174/4/1 170/4/1 172/4/1
f 175/4/1 174/4/1 173/4/1
f 176/4/1 170/4/1 174/4/1
f 176/4/1 174/4/1 175/4/1
f 179/2/1 178/2/1 177/2/1
f 181/2/1 179/2/1 177/2/1
f 182/5/1 180/5/1 179/5/1
f 182/2/1 179/2/1 181/2/1
f 183/5/1 180/5/1 182/5/1
f 184/5/1 180/5/1 183/5/1
f 187/5/1 186/5/1 185/5/1
f 188/5/1 186/5/1 187/5/1
f 190/5/1 186/5/1 188/5/1
f 191/5/1 190/5/1 189/5/1
f 192/5/1 186/5/1 190/5/1
f 192/5/1 190/5/1 191/5/1
f 195/4/1 194/4/1 193/4/1
f 196/4/1 194/4/1 195/4/1
f 199/4/1 197/4/1 196/4/1
f 200/4/1 197/4/1 199/4/1
f 201/4/1 199/4/1 198/4/1
f 202/4/1 199/4/1 201/4/1
f 205/4/1 204/4/1 203/4/1
f 206/4/1 204/4/1 205/4/1
f 207/4/1 205/4/1 203/4/1
f 208/4/1 205/4/1 207/4/1
f 211/4/1 210/4/1 209/4/1
f 212/4/1 210/4/1 211/4/1
f 215/4/1 214/4/1 213/4/1
f 217/4/1 215/4/1 213/4/1
f 217/4/1 216/4/1 215/4/1
f 218/4/1 216/4/1 217/4/1
f 221/5/1 220/5/1 219/5/1
f 222/5/1 220/5/1 221/5/1
f 225/5/1 223/5/1 222/5/1
f 226/5/1 223/5/1 225/5/1
f 227/5/1 225/5/1 224/5/1
f 228/5/1 225/5/1 227/5/1
f 231/4/1 230/4/1 229/4/1
f 232/4/1 230/4/1 231/4/1
f 235/5/1 234/5/1 233/5/1
f 236/5/1 234/5/1 235/5/1
f 237/5/1 235/5/1 233/5/1
f 238/5/1 235/5/1 237/5/1
f 241/5/1 240/5/1 239/5/1
f 242/5/1 240/5/1 241/5/1
f 245/5/1 244/5/1 243/5/1
f 247/5/1 245/5/1 243/5/1
f 247/5/1 246/5/1 245/5/1
f 248/5/1 246/5/1 247/5/1
f 251/5/1 250/5/1 249/5/1
f 252/5/1 250/5/1 251/5/1
f 255/4/1 254/4/1 253/4/1
f 256/4/1 254/4/1 255/4/1
f 259/4/1 258/4/1 257/4/1
f 260/4/1 258/4/1 259/4/1
f 263/5/1 262/5/1 261/5/1
f 264/5/1 262/5/1 263/5/1
f 267/5/1 266/5/1 265/5/1
f 268/5/1 266/5/1 267/5/1
f 269/5/2 270/5/2 271/5/2
f 271/5/2 270/5/2 272/5/2
f 273/5/2 274/5/2 275/5/2
f 275/5/2 274/5/2 276/5/2
f 277/4/2 278/4/2 279/4/2
f 279/4/2 278/4/2 280/4/2
f 281/4/2 282/4/2 283/4/2
f 283/4/2 282/4/2 284/4/2
f 285/5/2 286/5/2 287/5/2
f 287/5/2 286/5/2 288/5/2
f 289/5/2 290/5/2 291/5/2
f 291/5/2 290/5/2 292/5/2
f 289/5/2 291/5/2 293/5/2
f 293/5/2 291/5/2 294/5/2
f 295/5/2 296/5/2 297/5/2
f 297/5/2 296/5/2 298/5/2
f 299/5/2 300/5/2 301/5/2
f 299/5/2 301/5/2 303/5/2
f 301/5/2 302/5/2 303/5/2
f 303/5/2 302/5/2 304/5/2
f 305/5/2 306/5/2 307/5/2
f 307/5/2 306/5/2 308/5/2
f 308/5/2 309/5/2 311/5/2
f 311/5/2 309/5/2 312/5/2
f 310/5/2 311/5/2 313/5/2
f 313/5/2 311/5/2 314/5/2
f 315/4/2 316/4/2 317/4/2
f 317/4/2 316/4/2 318/4/2
f 319/4/2 320/4/2 321/4/2
f 321/4/2 320/4/2 322/4/2
f 319/4/2 321/4/2 323/4/2
f 323/4/2 321/4/2 324/4/2
f 325/4/2 326/4/2 327/4/2
f 327/4/2 326/4/2 328/4/2
f 329/4/2 330/4/2 331/4/2
f 329/4/2 331/4/2 333/4/2
f 331/4/2 332/4/2 333/4/2
f 333/4/2 332/4/2 334/4/2
f 335/5/2 336/5/2 337/5/2
f 337/5/2 336/5/2 338/5/2
f 338/5/2 336/5/2 340/5/2
f 339/5/2 340/5/2 341/5/2
f 340/5/2 336/5/2 342/5/2
f 341/5/2 340/5/2 342/5/2
f 343/4/2 344/4/2 345/4/2
f 345/4/2 344/4/2 346/4/2
f 346/4/2 347/4/2 349/4/2
f 349/4/2 347/4/2 350/4/2
f 348/4/2 349/4/2 351/4/2
f 351/4/2 349/4/2 352/4/2
f 353/2/2 354/2/2 355/2/2
f 353/2/2 355/2/2 357/2/2
f 355/5/2 356/5/2 358/5/2
f 357/2/2 355/2/2 358/2/2
f 358/5/2 356/5/2 359/5/2
f 359/5/2 356/5/2 360/5/2
f 361/4/2 362/4/2 363/4/2
f 363/4/2 362/4/2 364/4/2
f 364/4/2 362/4/2 366/4/2
f 365/4/2 366/4/2 367/4/2
f 366/4/2 362/4/2 368/4/2
f 367/4/2 366/4/2 368/4/2
f 369/4/2 370/4/2 371/4/2
f 371/4/2 370/4/2 372/4/2
f 373/5/2 374/5/2 375/5/2
f 375/5/2 374/5/2 376/5/2
f 377/5/2 378/5/2 379/5/2
f 379/5/2 378/5/2 380/5/2
f 381/5/2 382/5/2 383/5/2
f 383/5/2 382/5/2 384/5/2
f 385/5/2 386/5/2 387/5/2
f 387/5/2 386/5/2 388/5/2
f 385/5/2 387/5/2 389/5/2
f 389/5/2 387/5/2 390/5/2
f 391/5/2 392/5/2 393/5/2
f 393/5/2 392/5/2 394/5/2
f 395/5/2 396/5/2 397/5/2
f 395/5/2 397/5/2 399/5/2
f 397/5/2 398/5/2 399/5/2
f 399/5/2 398/5/2 400/5/2
f 401/2/2 402/2/2 403/2/2
f 403/2/2 402/2/2 404/2/2
f 405/5/2 406/5/2 407/5/2
f 407/5/2 406/5/2 408/5/2
f 408/5/2 409/5/2 411/5/2
f 411/5/2 409/5/2 412/5/2
f 410/5/2 411/5/2 413/5/2
f 413/5/2 411/5/2 414/5/2
f 415/5/2 416/5/2 417/5/2
f 417/5/2 416/5/2 418/5/2
f 418/5/2 416/5/2 420/5/2
f 419/5/2 420/5/2 421/5/2
f 420/5/2 416/5/2 422/5/2
f 421/5/2 420/5/2 422/5/2
f 423/5/2 424/5/2 425/5/2
f 425/5/2 424/5/2 426/5/2
f 427/4/2 428/4/2 429/4/2
f 429/4/2 428/4/2 430/4/2
f 431/4/2 432/4/2 433/4/2
f 433/4/2 432/4/2 434/4/2
f 435/1/2 436/1/2 437/1/2
f 437/1/2 436/1/2 438/1/2
f 439/5/2 440/5/2 441/5/2
f 441/5/2 440/5/2 442/5/2
f 445/5/2 446/5/2 447/5/2
f 447/5/2 446/5/2 448/5/2
f 443/1/2 444/1/2 449/1/2
f 443/1/2 449/1/2 450/1/2
f 443/1/2 450/1/2 451/1/2
f 451/1/2 450/1/2 452/1/2
f 453/4/2 454/4/2 455/4/2
f 455/4/2 454/4/2 456/4/2
f 457/4/2 458/4/2 459/4/2
f 459/4/2 458/4/2 460/4/2
f 457/4/2 459/4/2 461/4/2
f 461/4/2 459/4/2 462/4/2
f 463/4/2 464/4/2 465/4/2
f 465/4/2 464/4/2 466/4/2
f 467/4/2 468/4/2 469/4/2
f 467/4/2 469/4/2 471/4/2
f 469/4/2 470/4/2 471/4/2
f 471/4/2 470/4/2 472/4/2
f 473/5/2 474/5/2 475/5/2
f 475/5/2 474/5/2 476/5/2
f 477/4/2 478/4/2 479/4/2
f 479/4/2 478/4/2 480/4/2
f 480/4/2 481/4/2 483/4/2
f 483/4/2 481/4/2 484/4/2
f 482/4/2 483/4/2 485/4/2
f 485/4/2 483/4/2 486/4/2
f 487/5/2 488/5/2 489/5/2
f 489/5/2 488/5/2 490/5/2
f 487/5/2 489/5/2 491/5/2
f 491/5/2 489/5/2 492/5/2
f 493/5/2 494/5/2 495/5/2
f 495/5/2 494/5/2 496/5/2
f 497/5/2 498/5/2 499/5/2
f 497/5/2 499/5/2 501/5/2
f 499/5/2 500/5/2 501/5/2
f 501/5/2 500/5/2 502/5/2
f 503/5/2 504/5/2 505/5/2
f 505/5/2 504/5/2 506/5/2
f 506/5/2 507/5/2 509/5/2
f 509/5/2 507/5/2 510/5/2
f 508/5/2 509/5/2 511/5/2
f 511/5/2 509/5/2 512/5/2
f 513/4/2 514/4/2 515/4/2
f 515/4/2 514/4/2 516/4/2
f 516/4/2 514/4/2 518/4/2
f 517/4/2 518/4/2 519/4/2
f 518/4/2 514/4/2 520/4/2
f 519/4/2 518/4/2 520/4/2
f 521/4/2 522/4/2 523/4/2
f 523/4/2 522/4/2 524/4/2
f 525/5/2 526/5/2 527/5/2
f 527/5/2 526/5/2 528/5/2
f 528/5/2 526/5/2 530/5/2
f 529/5/2 530/5/2 531/5/2
f 530/5/2 526/5/2 532/5/2
f 531/5/2 530/5/2 532/5/2
f 533/5/2 534/5/2 535/5/2
f 535/5/2 534/5/2 536/5/2
f 540/1/3 538/1/3 537/1/3
f 541/1/3 538/1/3 540/1/3
f 542/1/3 538/1/3 541/1/3
f 543/1/3 538/1/3 542/1/3
f 544/1/3 538/1/3 543/1/3
f 545/1/3 538/1/3 544/1/3
f 546/1/3 538/1/3 545/1/3
f 547/1/3 540/1/3 539/1/3
f 547/1/3 541/1/3 540/1/3
f 548/3/3 542/3/3 541/3/3
f 548/1/3 541/1/3 547/1/3
f 549/1/3 543/1/3 542/1/3
f 550/1/3 543/1/3 549/1/3
f 551/1/3 543/1/3 550/1/3
f 552/9/3 544/9/3 543/9/3
f 552/1/3 543/1/3 551/1/3
f 553/1/3 545/1/3 544/1/3
f 553/9/3 544/9/3 552/9/3
f 554/9/3 546/9/3 545/9/3
f 554/1/3 545/1/3 553/1/3
f 555/1/3 538/1/3 546/1/3
f 555/9/3 546/9/3 554/9/3
f 556/1/3 538/1/3 555/1/3
f 557/1/3 538/1/3 556/1/3
f 558/1/3 538/1/3 557/1/3
f 559/1/3 547/1/3 539/1/3
f 559/3/3 548/3/3 547/3/3
f 560/3/3 542/3/3 548/3/3
f 560/3/3 548/3/3 559/3/3
f 560/1/3 549/1/3 542/1/3
f 561/1/3 551/1/3 550/1/3
f 562/2/3 554/2/3 553/2/3
f 562/1/3 551/1/3 561/1/3
f 562/2/3 553/2/3 552/2/3
f 562/2/3 552/2/3 551/2/3
f 562/2/3 556/2/3 555/2/3
f 562/2/3 555/2/3 554/2/3
f 563/2/3 556/2/3 562/2/3
f 564/2/3 556/2/3 563/2/3
f 565/1/3 557/1/3 556/1/3
f 565/2/3 556/2/3 564/2/3
f 566/1/3 557/1/3 565/1/3
f 567/2/3 558/2/3 557/2/3
f 568/2/3 558/2/3 567/2/3
f 569/1/3 560/1/3 559/1/3
f 569/1/3 549/1/3 560/1/3
f 570/2/3 550/2/3 549/2/3
f 570/1/3 549/1/3 569/1/3
f 571/1/3 561/1/3 550/1/3
f 571/2/3 550/2/3 570/2/3
f 572/1/3 561/1/3 571/1/3
f 573/1/3 568/1/3 567/1/3
f 574/2/3 558/2/3 568/2/3
f 574/1/3 568/1/3 573/1/3
f 575/2/3 570/2/3 569/2/3
f 575/1/3 569/1/3 559/1/3
f 575/2/3 571/2/3 570/2/3
f 575/2/3 572/2/3 571/2/3
f 576/2/3 572/2/3 575/2/3
f 577/2/3 572/2/3 576/2/3
f 578/1/3 561/1/3 572/1/3
f 578/2/3 572/2/3 577/2/3
f 579/9/3 562/9/3 561/9/3
f 579/1/3 561/1/3 578/1/3
f 580/2/3 563/2/3 562/2/3
f 580/9/3 562/9/3 579/9/3
f 581/2/3 565/2/3 564/2/3
f 581/9/3 566/9/3 565/9/3
f 582/1/3 557/1/3 566/1/3
f 582/9/3 566/9/3 581/9/3
f 583/1/3 573/1/3 567/1/3
f 583/2/3 574/2/3 573/2/3
f 584/2/3 558/2/3 574/2/3
f 584/2/3 574/2/3 583/2/3
f 584/1/3 538/1/3 558/1/3
f 585/1/3 578/1/3 577/1/3
f 585/1/3 579/1/3 578/1/3
f 585/1/3 580/1/3 579/1/3
f 586/2/3 563/2/3 580/2/3
f 586/1/3 580/1/3 585/1/3
f 587/1/3 582/1/3 581/1/3
f 587/2/3 581/2/3 564/2/3
f 588/1/3 557/1/3 582/1/3
f 588/1/3 582/1/3 587/1/3
f 589/1/3 576/1/3 575/1/3
f 589/1/3 575/1/3 559/1/3
f 590/2/3 577/2/3 576/2/3
f 590/1/3 576/1/3 589/1/3
f 591/1/3 585/1/3 577/1/3
f 591/2/3 577/2/3 590/2/3
f 592/1/3 585/1/3 591/1/3
f 593/1/3 557/1/3 588/1/3
f 593/2/3 567/2/3 557/2/3
f 594/1/3 583/1/3 567/1/3
f 594/2/3 567/2/3 593/2/3
f 594/1/3 584/1/3 583/1/3
f 595/1/3 589/1/3 559/1/3
f 595/2/3 592/2/3 591/2/3
f 595/2/3 591/2/3 590/2/3
f 595/2/3 590/2/3 589/2/3
f 596/2/3 592/2/3 595/2/3
f 597/2/3 592/2/3 596/2/3
f 598/1/3 585/1/3 592/1/3
f 598/2/3 592/2/3 597/2/3
f 599/9/3 586/9/3 585/9/3
f 599/1/3 585/1/3 598/1/3
f 600/2/3 563/2/3 586/2/3
f 600/9/3 586/9/3 599/9/3
f 601/2/3 563/2/3 600/2/3
f 602/2/3 587/2/3 564/2/3
f 603/1/3 595/1/3 559/1/3
f 603/1/3 596/1/3 595/1/3
f 604/6/3 597/6/3 596/6/3
f 604/1/3 596/1/3 603/1/3
f 605/2/3 601/2/3 600/2/3
f 605/1/3 599/1/3 598/1/3
f 605/1/3 598/1/3 597/1/3
f 605/2/3 602/2/3 601/2/3
f 605/1/3 600/1/3 599/1/3
f 606/2/3 602/2/3 605/2/3
f 607/2/3 602/2/3 606/2/3
f 608/2/3 602/2/3 607/2/3
f 609/2/3 587/2/3 602/2/3
f 609/2/3 602/2/3 608/2/3
f 610/9/3 588/9/3 587/9/3
f 610/2/3 587/2/3 609/2/3
f 611/1/3 593/1/3 588/1/3
f 611/9/3 588/9/3 610/9/3
f 611/1/3 594/1/3 593/1/3
f 612/1/3 584/1/3 594/1/3
f 612/1/3 594/1/3 611/1/3
f 613/1/3 584/1/3 612/1/3
f 614/1/3 603/1/3 559/1/3
f 614/1/3 559/1/3 539/1/3
f 615/1/3 603/1/3 614/1/3
f 616/1/3 605/1/3 597/1/3
f 616/1/3 606/1/3 605/1/3
f 617/1/3 606/1/3 616/1/3
f 618/9/3 607/9/3 606/9/3
f 618/1/3 606/1/3 617/1/3
f 619/1/3 608/1/3 607/1/3
f 619/9/3 607/9/3 618/9/3
f 620/9/3 609/9/3 608/9/3
f 620/1/3 608/1/3 619/1/3
f 621/1/3 610/1/3 609/1/3
f 621/9/3 609/9/3 620/9/3
f 621/1/3 611/1/3 610/1/3
f 621/1/3 612/1/3 611/1/3
f 622/1/3 612/1/3 621/1/3
f 623/7/3 613/7/3 612/7/3
f 623/1/3 612/1/3 622/1/3
f 624/1/3 584/1/3 613/1/3
f 624/7/3 613/7/3 623/7/3
f 625/1/3 538/1/3 584/1/3
f 625/1/3 584/1/3 624/1/3
f 626/7/3 604/7/3 603/7/3
f 626/1/3 603/1/3 615/1/3
f 627/6/3 597/6/3 604/6/3
f 627/7/3 604/7/3 626/7/3
f 628/2/3 615/2/3 614/2/3
f 628/1/3 614/1/3 539/1/3
f 629/1/3 626/1/3 615/1/3
f 629/2/3 615/2/3 628/2/3
f 630/8/3 627/8/3 626/8/3
f 630/1/3 626/1/3 629/1/3
f 631/6/3 597/6/3 627/6/3
f 631/8/3 627/8/3 630/8/3
f 632/1/3 616/1/3 597/1/3
f 632/2/3 617/2/3 616/2/3
f 633/1/3 620/1/3 619/1/3
f 633/2/3 617/2/3 632/2/3
f 633/1/3 622/1/3 621/1/3
f 633/1/3 621/1/3 620/1/3
f 633/1/3 619/1/3 618/1/3
f 633/1/3 618/1/3 617/1/3
f 634/1/3 622/1/3 633/1/3
f 635/1/3 622/1/3 634/1/3
f 636/1/3 622/1/3 635/1/3
f 637/1/3 622/1/3 636/1/3
f 638/7/3 623/7/3 622/7/3
f 638/1/3 622/1/3 637/1/3
f 639/6/3 624/6/3 623/6/3
f 639/7/3 623/7/3 638/7/3
f 640/7/3 625/7/3 624/7/3
f 640/6/3 624/6/3 639/6/3
f 641/1/3 538/1/3 625/1/3
f 641/7/3 625/7/3 640/7/3
f 642/1/3 629/1/3 628/1/3
f 642/7/3 631/7/3 630/7/3
f 642/1/3 630/1/3 629/1/3
f 643/6/3 597/6/3 631/6/3
f 643/7/3 631/7/3 642/7/3
f 644/1/3 633/1/3 632/1/3
f 644/1/3 634/1/3 633/1/3
f 645/9/3 635/9/3 634/9/3
f 645/1/3 634/1/3 644/1/3
f 646/1/3 636/1/3 635/1/3
f 646/9/3 635/9/3 645/9/3
f 647/9/3 637/9/3 636/9/3
f 647/1/3 636/1/3 646/1/3
f 648/1/3 638/1/3 637/1/3
f 648/9/3 637/9/3 647/9/3
f 648/1/3 639/1/3 638/1/3
f 649/1/3 639/1/3 648/1/3
f 650/1/3 639/1/3 649/1/3
f 651/7/3 640/7/3 639/7/3
f 651/1/3 639/1/3 650/1/3
f 652/1/3 641/1/3 640/1/3
f 652/7/3 640/7/3 651/7/3
f 653/1/3 642/1/3 628/1/3
f 653/1/3 643/1/3 642/1/3
f 654/6/3 597/6/3 643/6/3
f 654/1/3 643/1/3 653/1/3
f 655/1/3 632/1/3 597/1/3
f 655/6/3 597/6/3 654/6/3
f 655/1/3 644/1/3 632/1/3
f 656/1/3 644/1/3 655/1/3
f 657/1/3 644/1/3 656/1/3
f 658/2/3 646/2/3 645/2/3
f 658/1/3 644/1/3 657/1/3
f 658/2/3 647/2/3 646/2/3
f 658/2/3 645/2/3 644/2/3
f 658/2/3 649/2/3 648/2/3
f 658/2/3 648/2/3 647/2/3
f 659/2/3 649/2/3 658/2/3
f 660/2/3 649/2/3 659/2/3
f 661/2/3 654/2/3 653/2/3
f 661/2/3 656/2/3 655/2/3
f 661/2/3 655/2/3 654/2/3
f 661/1/3 653/1/3 628/1/3
f 662/2/3 656/2/3 661/2/3
f 663/2/3 656/2/3 662/2/3
f 664/1/3 657/1/3 656/1/3
f 664/2/3 656/2/3 663/2/3
f 665/1/3 651/1/3 650/1/3
f 665/1/3 652/1/3 651/1/3
f 666/1/3 652/1/3 665/1/3
f 667/1/3 657/1/3 664/1/3
f 667/9/3 658/9/3 657/9/3
f 667/1/3 664/1/3 663/1/3
f 668/2/3 659/2/3 658/2/3
f 668/9/3 658/9/3 667/9/3
f 669/2/3 649/2/3 660/2/3
f 669/9/3 650/9/3 649/9/3
f 670/1/3 665/1/3 650/1/3
f 670/9/3 650/9/3 669/9/3
f 671/1/3 661/1/3 628/1/3
f 671/1/3 662/1/3 661/1/3
f 672/2/3 663/2/3 662/2/3
f 672/1/3 662/1/3 671/1/3
f 673/1/3 668/1/3 667/1/3
f 673/2/3 663/2/3 672/2/3
f 673/1/3 667/1/3 663/1/3
f 674/1/3 668/1/3 673/1/3
f 675/1/3 668/1/3 674/1/3
f 676/2/3 659/2/3 668/2/3
f 676/1/3 668/1/3 675/1/3
f 677/1/3 670/1/3 669/1/3
f 677/2/3 669/2/3 660/2/3
f 678/1/3 665/1/3 670/1/3
f 678/1/3 670/1/3 677/1/3
f 679/1/3 652/1/3 666/1/3
f 680/1/3 538/1/3 641/1/3
f 680/1/3 652/1/3 679/1/3
f 680/1/3 641/1/3 652/1/3
f 681/1/3 671/1/3 628/1/3
f 681/2/3 672/2/3 671/2/3
f 681/2/3 673/2/3 672/2/3
f 681/2/3 674/2/3 673/2/3
f 682/2/3 674/2/3 681/2/3
f 683/2/3 674/2/3 682/2/3
f 684/1/3 675/1/3 674/1/3
f 684/2/3 674/2/3 683/2/3
f 685/1/3 679/1/3 666/1/3
f 685/2/3 680/2/3 679/2/3
f 686/2/3 680/2/3 685/2/3
f 687/1/3 628/1/3 539/1/3
f 687/1/3 681/1/3 628/1/3
f 687/1/3 682/1/3 681/1/3
f 688/1/3 682/1/3 687/1/3
f 689/1/3 675/1/3 684/1/3
f 689/1/3 684/1/3 683/1/3
f 689/9/3 676/9/3 675/9/3
f 690/2/3 659/2/3 676/2/3
f 690/9/3 676/9/3 689/9/3
f 691/2/3 659/2/3 690/2/3
f 692/2/3 677/2/3 660/2/3
f 693/9/3 678/9/3 677/9/3
f 693/2/3 677/2/3 692/2/3
f 694/1/3 665/1/3 678/1/3
f 694/9/3 678/9/3 693/9/3
f 695/2/3 666/2/3 665/2/3
f 695/1/3 686/1/3 685/1/3
f 695/1/3 685/1/3 666/1/3
f 696/2/3 680/2/3 686/2/3
f 696/1/3 686/1/3 695/1/3
f 697/3/3 688/3/3 687/3/3
f 697/1/3 687/1/3 539/1/3
f 698/3/3 688/3/3 697/3/3
f 699/2/3 683/2/3 682/2/3
f 699/1/3 682/1/3 688/1/3
f 700/1/3 689/1/3 683/1/3
f 700/2/3 683/2/3 699/2/3
f 700/1/3 690/1/3 689/1/3
f 701/2/3 692/2/3 691/2/3
f 701/1/3 690/1/3 700/1/3
f 701/2/3 693/2/3 692/2/3
f 701/2/3 691/2/3 690/2/3
f 702/2/3 693/2/3 701/2/3
f 703/2/3 693/2/3 702/2/3
f 704/2/3 693/2/3 703/2/3
f 705/2/3 693/2/3 704/2/3
f 706/1/3 694/1/3 693/1/3
f 706/2/3 693/2/3 705/2/3
f 707/2/3 695/2/3 665/2/3
f 707/1/3 694/1/3 706/1/3
f 707/1/3 665/1/3 694/1/3
f 707/2/3 696/2/3 695/2/3
f 708/1/3 538/1/3 680/1/3
f 708/2/3 696/2/3 707/2/3
f 708/2/3 680/2/3 696/2/3
f 709/1/3 698/1/3 697/1/3
f 709/1/3 697/1/3 539/1/3
f 710/1/3 698/1/3 709/1/3
f 711/3/3 688/3/3 698/3/3
f 711/1/3 698/1/3 710/1/3
f 712/1/3 700/1/3 699/1/3
f 712/3/3 688/3/3 711/3/3
f 712/1/3 702/1/3 701/1/3
f 712/1/3 699/1/3 688/1/3
f 712/1/3 701/1/3 700/1/3
f 713/9/3 703/9/3 702/9/3
f 713/1/3 702/1/3 712/1/3
f 714/1/3 704/1/3 703/1/3
f 714/9/3 703/9/3 713/9/3
f 715/9/3 705/9/3 704/9/3
f 715/1/3 704/1/3 714/1/3
f 716/1/3 706/1/3 705/1/3
f 716/9/3 705/9/3 715/9/3
f 716/1/3 707/1/3 706/1/3
f 716/1/3 708/1/3 707/1/3
f 717/1/3 715/1/3 714/1/3
f 717/1/3 716/1/3 715/1/3
f 717/1/3 713/1/3 712/1/3
f 717/1/3 714/1/3 713/1/3
f 717/1/3 712/1/3 711/1/3
f 717/1/3 711/1/3 710/1/3
f 718/1/3 708/1/3 716/1/3
f 718/1/3 716/1/3 717/1/3
f 718/1/3 538/1/3 708/1/3
f 721/5/3 720/5/3 719/5/3
f 722/5/3 720/5/3 721/5/3
f 729/4/3 724/4/3 723/4/3
f 730/4/3 724/4/3 729/4/3
f 733/5/3 728/5/3 727/5/3
f 737/5/3 732/5/3 731/5/3
f 738/5/3 732/5/3 737/5/3
f 741/5/3 726/5/3 725/5/3
f 742/5/3 726/5/3 741/5/3
f 743/5/3 733/5/3 727/5/3
f 744/4/3 734/4/3 733/4/3
f 744/5/3 733/5/3 743/5/3
f 745/4/3 734/4/3 744/4/3
f 746/4/3 734/4/3 745/4/3
f 747/4/3 740/4/3 739/4/3
f 748/4/3 740/4/3 747/4/3
f 749/4/3 736/4/3 735/4/3
f 750/4/3 736/4/3 749/4/3
f 753/4/3 752/4/3 751/4/3
f 754/4/3 752/4/3 753/4/3
f 755/4/3 752/4/3 754/4/3
f 757/5/3 756/5/3 755/5/3
f 757/5/3 755/5/3 754/5/3
f 758/5/3 756/5/3 757/5/3
f 765/5/3 764/5/3 763/5/3
f 766/5/3 764/5/3 765/5/3
f 767/5/3 760/5/3 759/5/3
f 768/5/3 760/5/3 767/5/3
f 769/5/3 762/5/3 761/5/3
f 770/5/3 762/5/3 769/5/3
f 774/5/3 772/5/3 771/5/3
f 775/5/3 772/5/3 774/5/3
f 776/5/3 772/5/3 775/5/3
f 777/4/3 774/4/3 773/4/3
f 777/4/3 775/4/3 774/4/3
f 778/4/3 775/4/3 777/4/3
f 788/4/3 782/4/3 781/4/3
f 791/4/3 784/4/3 783/4/3
f 792/4/3 784/4/3 791/4/3
f 793/4/3 782/4/3 788/4/3
f 793/5/3 788/5/3 787/5/3
f 794/4/3 782/4/3 793/4/3
f 795/4/3 780/4/3 779/4/3
f 796/4/3 780/4/3 795/4/3
f 797/5/3 790/5/3 789/5/3
f 798/5/3 790/5/3 797/5/3
f 799/5/3 786/5/3 785/5/3
f 800/5/3 786/5/3 799/5/3
f 801/5/3 793/5/3 787/5/3
f 802/5/3 793/5/3 801/5/3
f 807/4/3 804/4/3 803/4/3
f 808/4/3 804/4/3 807/4/3
f 809/5/3 806/5/3 805/5/3
f 810/5/3 806/5/3 809/5/3
f 815/5/3 812/5/3 811/5/3
f 816/5/3 814/5/3 813/5/3
f 818/5/3 815/5/3 811/5/3
f 818/5/3 816/5/3 815/5/3
f 819/5/3 814/5/3 816/5/3
f 819/5/3 816/5/3 818/5/3
f 825/5/3 818/5/3 817/5/3
f 826/5/3 818/5/3 825/5/3
f 829/5/3 820/5/3 819/5/3
f 830/5/3 820/5/3 829/5/3
f 831/4/3 822/4/3 821/4/3
f 832/4/3 824/4/3 823/4/3
f 833/5/3 828/5/3 827/5/3
f 834/5/3 828/5/3 833/5/3
f 836/4/3 831/4/3 821/4/3
f 836/4/3 832/4/3 831/4/3
f 837/4/3 824/4/3 832/4/3
f 837/4/3 832/4/3 836/4/3
f 839/4/3 836/4/3 835/4/3
f 840/4/3 836/4/3 839/4/3
f 843/4/3 838/4/3 837/4/3
f 844/4/3 838/4/3 843/4/3
f 845/5/3 833/5/3 827/5/3
f 846/5/3 828/5/3 834/5/3
f 847/4/3 842/4/3 841/4/3
f 848/4/3 842/4/3 847/4/3
f 850/5/3 818/5/3 826/5/3
f 851/5/3 845/5/3 827/5/3
f 851/5/3 846/5/3 845/5/3
f 852/5/3 828/5/3 846/5/3
f 852/5/3 846/5/3 851/5/3
f 853/5/3 829/5/3 819/5/3
f 855/5/3 850/5/3 849/5/3
f 856/5/3 818/5/3 850/5/3
f 856/5/3 850/5/3 855/5/3
f 857/5/3 854/5/3 853/5/3
f 857/5/3 853/5/3 819/5/3
f 858/5/3 854/5/3 857/5/3
f 859/4/3 847/4/3 841/4/3
f 860/4/3 842/4/3 848/4/3
f 861/5/3 857/5/3 856/5/3
f 862/5/3 857/5/3 861/5/3
f 864/4/3 836/4/3 840/4/3
f 865/4/3 860/4/3 859/4/3
f 865/4/3 859/4/3 841/4/3
f 866/4/3 842/4/3 860/4/3
f 866/4/3 860/4/3 865/4/3
f 867/4/3 843/4/3 837/4/3
f 869/5/3 861/5/3 856/5/3
f 870/5/3 861/5/3 869/5/3
f 871/5/3 857/5/3 862/5/3
f 872/5/3 857/5/3 871/5/3
f 873/4/3 864/4/3 863/4/3
f 874/4/3 836/4/3 864/4/3
f 874/4/3 864/4/3 873/4/3
f 875/4/3 868/4/3 867/4/3
f 875/4/3 867/4/3 837/4/3
f 876/4/3 868/4/3 875/4/3
f 877/4/3 875/4/3 874/4/3
f 878/4/3 875/4/3 877/4/3
f 879/4/3 877/4/3 874/4/3
f 880/4/3 877/4/3 879/4/3
f 881/4/3 875/4/3 878/4/3
f 882/4/3 875/4/3 881/4/3
f 887/5/3 884/5/3 883/5/3
f 888/5/3 886/5/3 885/5/3
f 890/5/3 887/5/3 883/5/3
f 890/5/3 888/5/3 887/5/3
f 891/5/3 886/5/3 888/5/3
f 891/5/3 888/5/3 890/5/3
f 893/5/3 890/5/3 889/5/3
f 894/5/3 890/5/3 893/5/3
f 897/5/3 892/5/3 891/5/3
f 898/5/3 892/5/3 897/5/3
f 899/5/3 896/5/3 895/5/3
f 900/5/3 896/5/3 899/5/3
f 901/5/3 899/5/3 895/5/3
f 902/5/3 896/5/3 900/5/3
f 904/5/3 890/5/3 894/5/3
f 905/5/3 902/5/3 901/5/3
f 905/5/3 901/5/3 895/5/3
f 906/5/3 896/5/3 902/5/3
f 906/5/3 902/5/3 905/5/3
f 907/5/3 897/5/3 891/5/3
f 909/5/3 904/5/3 903/5/3
f 910/5/3 890/5/3 904/5/3
f 910/5/3 904/5/3 909/5/3
f 911/5/3 908/5/3 907/5/3
f 911/5/3 907/5/3 891/5/3
f 912/5/3 908/5/3 911/5/3
f 913/5/3 911/5/3 910/5/3
f 914/5/3 911/5/3 913/5/3
f 915/5/3 913/5/3 910/5/3
f 916/5/3 913/5/3 915/5/3
f 917/5/3 911/5/3 914/5/3
f 918/5/3 911/5/3 917/5/3
f 923/4/3 920/4/3 919/4/3
f 924/4/3 922/4/3 921/4/3
f 930/4/3 923/4/3 919/4/3
f 930/4/3 924/4/3 923/4/3
f 931/4/3 922/4/3 924/4/3
f 931/4/3 924/4/3 930/4/3
f 933/5/3 926/5/3 925/5/3
f 934/5/3 928/5/3 927/5/3
f 935/4/3 930/4/3 929/4/3
f 936/4/3 930/4/3 935/4/3
f 939/4/3 932/4/3 931/4/3
f 940/4/3 932/4/3 939/4/3
f 942/5/3 933/5/3 925/5/3
f 942/5/3 934/5/3 933/5/3
f 943/5/3 928/5/3 934/5/3
f 943/5/3 934/5/3 942/5/3
f 945/4/3 938/4/3 937/4/3
f 946/4/3 938/4/3 945/4/3
f 947/5/3 942/5/3 941/5/3
f 948/5/3 942/5/3 947/5/3
f 951/5/3 944/5/3 943/5/3
f 952/5/3 944/5/3 951/5/3
f 953/5/3 950/5/3 949/5/3
f 954/5/3 950/5/3 953/5/3
f 955/4/3 945/4/3 937/4/3
f 956/4/3 938/4/3 946/4/3
f 958/4/3 930/4/3 936/4/3
f 959/4/3 955/4/3 937/4/3
f 959/4/3 956/4/3 955/4/3
f 960/4/3 938/4/3 956/4/3
f 960/4/3 956/4/3 959/4/3
f 961/4/3 939/4/3 931/4/3
f 963/5/3 953/5/3 949/5/3
f 964/5/3 950/5/3 954/5/3
f 965/4/3 958/4/3 957/4/3
f 966/4/3 930/4/3 958/4/3
f 966/4/3 958/4/3 965/4/3
f 967/4/3 962/4/3 961/4/3
f 967/4/3 961/4/3 931/4/3
f 968/4/3 962/4/3 967/4/3
f 970/5/3 942/5/3 948/5/3
f 971/5/3 963/5/3 949/5/3
f 971/5/3 964/5/3 963/5/3
f 972/5/3 950/5/3 964/5/3
f 972/5/3 964/5/3 971/5/3
f 973/5/3 951/5/3 943/5/3
f 975/4/3 967/4/3 966/4/3
f 976/4/3 967/4/3 975/4/3
f 977/5/3 970/5/3 969/5/3
f 978/5/3 942/5/3 970/5/3
f 978/5/3 970/5/3 977/5/3
f 979/5/3 974/5/3 973/5/3
f 979/5/3 973/5/3 943/5/3
f 980/5/3 974/5/3 979/5/3
f 981/4/3 975/4/3 966/4/3
f 982/4/3 975/4/3 981/4/3
f 983/4/3 967/4/3 976/4/3
f 984/4/3 967/4/3 983/4/3
f 985/5/3 979/5/3 978/5/3
f 986/5/3 979/5/3 985/5/3
f 987/5/3 985/5/3 978/5/3
f 988/5/3 985/5/3 987/5/3
f 989/5/3 979/5/3 986/5/3
f 990/5/3 979/5/3 989/5/3
f 993/5/3 992/5/3 991/5/3
f 994/5/3 992/5/3 993/5/3
f 997/4/3 996/4/3 995/4/3
f 998/4/3 996/4/3 997/4/3
f 999/5/3 993/5/3 991/5/3
f 1000/5/3 992/5/3 994/5/3
f 1001/5/3 999/5/3 991/5/3
f 1001/5/3 1000/5/3 999/5/3
f 1002/5/3 992/5/3 1000/5/3
f 1002/5/3 1000/5/3 1001/5/3
f 1003/4/3 997/4/3 995/4/3
f 1004/4/3 996/4/3 998/4/3
f 1005/4/3 1003/4/3 995/4/3
f 1005/4/3 1004/4/3 1003/4/3
f 1006/4/3 996/4/3 1004/4/3
f 1006/4/3 1004/4/3 1005/4/3
f 1009/5/3 1008/5/3 1007/5/3
f 1010/5/3 1008/5/3 1009/5/3
f 1011/5/3 1009/5/3 1007/5/3
f 1012/5/3 1008/5/3 1010/5/3
f 1013/5/3 1011/5/3 1007/5/3
f 1013/5/3 1012/5/3 1011/5/3
f 1014/5/3 1008/5/3 1012/5/3
f 1014/5/3 1012/5/3 1013/5/3
f 1017/4/3 1016/4/3 1015/4/3
f 1018/4/3 1016/4/3 1017/4/3
f 1021/5/3 1020/5/3 1019/5/3
f 1022/5/3 1020/5/3 1021/5/3
f 1023/4/3 1017/4/3 1015/4/3
f 1024/4/3 1016/4/3 1018/4/3
f 1025/4/3 1023/4/3 1015/4/3
f 1025/4/3 1024/4/3 1023/4/3
f 1026/4/3 1016/4/3 1024/4/3
f 1026/4/3 1024/4/3 1025/4/3
f 1027/5/3 1021/5/3 1019/5/3
f 1028/5/3 1020/5/3 1022/5/3
f 1029/5/3 1027/5/3 1019/5/3
f 1029/5/3 1028/5/3 1027/5/3
f 1030/5/3 1020/5/3 1028/5/3
f 1030/5/3 1028/5/3 1029/5/3
f 1031/1/4 1032/1/4 1036/1/4
f 1036/1/4 1032/1/4 1037/1/4
f 1037/1/4 1032/1/4 1038/1/4
f 1038/1/4 1032/1/4 1039/1/4
f 1039/1/4 1032/1/4 1040/1/4
f 1040/1/4 1032/1/4 1041/1/4
f 1041/1/4 1032/1/4 1042/1/4
f 1033/1/4 1034/1/4 1043/1/4
f 1035/1/4 1036/1/4 1044/1/4
f 1036/1/4 1037/1/4 1044/1/4
f 1037/3/4 1038/3/4 1045/3/4
f 1044/1/4 1037/1/4 1045/1/4
f 1038/1/4 1039/1/4 1046/1/4
f 1046/1/4 1039/1/4 1047/1/4
f 1047/1/4 1039/1/4 1048/1/4
f 1039/9/4 1040/9/4 1049/9/4
f 1048/1/4 1039/1/4 1049/1/4
f 1049/9/4 1040/9/4 1050/9/4
f 1041/1/4 1042/1/4 1051/1/4
f 1042/1/4 1043/1/4 1051/1/4
f 1043/1/4 1034/1/4 1052/1/4
f 1051/1/4 1043/1/4 1052/1/4
f 1035/1/4 1044/1/4 1053/1/4
f 1044/3/4 1045/3/4 1053/3/4
f 1045/3/4 1038/3/4 1054/3/4
f 1053/3/4 1045/3/4 1054/3/4
f 1038/1/4 1046/1/4 1054/1/4
f 1047/1/4 1048/1/4 1055/1/4
f 1049/2/4 1050/2/4 1056/2/4
f 1055/1/4 1048/1/4 1056/1/4
f 1048/2/4 1049/2/4 1056/2/4
f 1056/2/4 1050/2/4 1057/2/4
f 1057/2/4 1050/2/4 1058/2/4
f 1041/1/4 1051/1/4 1060/1/4
f 1060/1/4 1051/1/4 1061/1/4
f 1051/2/4 1052/2/4 1062/2/4
f 1062/2/4 1052/2/4 1063/2/4
f 1053/1/4 1054/1/4 1064/1/4
f 1054/1/4 1046/1/4 1064/1/4
f 1046/2/4 1047/2/4 1065/2/4
f 1064/1/4 1046/1/4 1065/1/4
f 1047/1/4 1055/1/4 1066/1/4
f 1065/2/4 1047/2/4 1066/2/4
f 1066/1/4 1055/1/4 1067/1/4
f 1062/1/4 1063/1/4 1068/1/4
f 1063/2/4 1052/2/4 1069/2/4
f 1068/1/4 1063/1/4 1069/1/4
f 1064/2/4 1065/2/4 1070/2/4
f 1053/1/4 1064/1/4 1070/1/4
f 1065/2/4 1066/2/4 1070/2/4
f 1066/2/4 1067/2/4 1070/2/4
f 1070/2/4 1067/2/4 1071/2/4
f 1071/2/4 1067/2/4 1072/2/4
f 1067/1/4 1055/1/4 1073/1/4
f 1072/2/4 1067/2/4 1073/2/4
f 1055/9/4 1056/9/4 1074/9/4
f 1073/1/4 1055/1/4 1074/1/4
f 1056/2/4 1057/2/4 1075/2/4
f 1074/9/4 1056/9/4 1075/9/4
f 1059/2/4 1060/2/4 1076/2/4
f 1060/9/4 1061/9/4 1076/9/4
f 1061/1/4 1051/1/4 1077/1/4
f 1076/9/4 1061/9/4 1077/9/4
f 1062/1/4 1068/1/4 1078/1/4
f 1068/2/4 1069/2/4 1078/2/4
f 1069/2/4 1052/2/4 1079/2/4
f 1078/2/4 1069/2/4 1079/2/4
f 1052/1/4 1034/1/4 1079/1/4
f 1072/1/4 1073/1/4 1080/1/4
f 1073/1/4 1074/1/4 1080/1/4
f 1074/1/4 1075/1/4 1080/1/4
f 1075/2/4 1057/2/4 1081/2/4
f 1080/1/4 1075/1/4 1081/1/4
f 1059/2/4 1076/2/4 1082/2/4
f 1076/1/4 1077/1/4 1082/1/4
f 1077/1/4 1051/1/4 1083/1/4
f 1082/1/4 1077/1/4 1083/1/4
f 1070/1/4 1071/1/4 1084/1/4
f 1053/1/4 1070/1/4 1084/1/4
f 1071/2/4 1072/2/4 1085/2/4
f 1084/1/4 1071/1/4 1085/1/4
f 1072/1/4 1080/1/4 1086/1/4
f 1085/2/4 1072/2/4 1086/2/4
f 1086/1/4 1080/1/4 1087/1/4
f 1083/1/4 1051/1/4 1088/1/4
f 1051/2/4 1062/2/4 1088/2/4
f 1062/1/4 1078/1/4 1089/1/4
f 1088/2/4 1062/2/4 1089/2/4
f 1078/1/4 1079/1/4 1089/1/4
f 1053/1/4 1084/1/4 1090/1/4
f 1086/2/4 1087/2/4 1090/2/4
f 1085/2/4 1086/2/4 1090/2/4
f 1084/2/4 1085/2/4 1090/2/4
f 1090/2/4 1087/2/4 1091/2/4
f 1091/2/4 1087/2/4 1092/2/4
f 1087/1/4 1080/1/4 1093/1/4
f 1092/2/4 1087/2/4 1093/2/4
f 1080/9/4 1081/9/4 1094/9/4
f 1093/1/4 1080/1/4 1094/1/4
f 1081/2/4 1057/2/4 1095/2/4
f 1094/9/4 1081/9/4 1095/9/4
f 1095/2/4 1057/2/4 1096/2/4
f 1059/2/4 1082/2/4 1097/2/4
f 1053/1/4 1090/1/4 1098/1/4
f 1090/1/4 1091/1/4 1098/1/4
f 1091/6/4 1092/6/4 1099/6/4
f 1098/1/4 1091/1/4 1099/1/4
f 1095/2/4 1096/2/4 1100/2/4
f 1093/1/4 1094/1/4 1100/1/4
f 1092/1/4 1093/1/4 1100/1/4
f 1096/2/4 1097/2/4 1100/2/4
f 1094/1/4 1095/1/4 1100/1/4
f 1100/2/4 1097/2/4 1101/2/4
f 1101/2/4 1097/2/4 1102/2/4
f 1102/2/4 1097/2/4 1103/2/4
f 1097/2/4 1082/2/4 1104/2/4
f 1103/2/4 1097/2/4 1104/2/4
f 1082/9/4 1083/9/4 1105/9/4
f 1104/2/4 1082/2/4 1105/2/4
f 1083/1/4 1088/1/4 1106/1/4
f 1105/9/4 1083/9/4 1106/9/4
f 1088/1/4 1089/1/4 1106/1/4
f 1089/1/4 1079/1/4 1107/1/4
f 1106/1/4 1089/1/4 1107/1/4
f 1107/1/4 1079/1/4 1108/1/4
f 1079/1/4 1034/1/4 1109/1/4
f 1108/1/4 1079/1/4 1109/1/4
f 1053/1/4 1098/1/4 1110/1/4
f 1035/1/4 1053/1/4 1110/1/4
f 1110/1/4 1098/1/4 1111/1/4
f 1092/1/4 1100/1/4 1112/1/4
f 1100/1/4 1101/1/4 1112/1/4
f 1112/1/4 1101/1/4 1113/1/4
f 1101/9/4 1102/9/4 1114/9/4
f 1113/1/4 1101/1/4 1114/1/4
f 1102/1/4 1103/1/4 1115/1/4
f 1114/9/4 1102/9/4 1115/9/4
f 1103/9/4 1104/9/4 1116/9/4
f 1115/1/4 1103/1/4 1116/1/4
f 1104/1/4 1105/1/4 1117/1/4
f 1116/9/4 1104/9/4 1117/9/4
f 1105/1/4 1106/1/4 1117/1/4
f 1106/1/4 1107/1/4 1117/1/4
f 1117/1/4 1107/1/4 1118/1/4
f 1107/7/4 1108/7/4 1119/7/4
f 1118/1/4 1107/1/4 1119/1/4
f 1108/1/4 1109/1/4 1120/1/4
f 1119/7/4 1108/7/4 1120/7/4
f 1120/1/4 1109/1/4 1121/1/4
f 1098/7/4 1099/7/4 1122/7/4
f 1111/1/4 1098/1/4 1122/1/4
f 1099/6/4 1092/6/4 1123/6/4
f 1122/7/4 1099/7/4 1123/7/4
f 1110/2/4 1111/2/4 1124/2/4
f 1035/1/4 1110/1/4 1124/1/4
f 1111/1/4 1122/1/4 1125/1/4
f 1124/2/4 1111/2/4 1125/2/4
f 1122/8/4 1123/8/4 1126/8/4
f 1125/1/4 1122/1/4 1126/1/4
f 1123/6/4 1092/6/4 1127/6/4
f 1126/8/4 1123/8/4 1127/8/4
f 1092/1/4 1112/1/4 1128/1/4
f 1112/2/4 1113/2/4 1128/2/4
f 1115/1/4 1116/1/4 1129/1/4
f 1128/2/4 1113/2/4 1129/2/4
f 1117/1/4 1118/1/4 1129/1/4
f 1114/1/4 1115/1/4 1129/1/4
f 1116/1/4 1117/1/4 1129/1/4
f 1113/1/4 1114/1/4 1129/1/4
f 1129/1/4 1118/1/4 1130/1/4
f 1130/1/4 1118/1/4 1131/1/4
f 1131/1/4 1118/1/4 1132/1/4
f 1132/1/4 1118/1/4 1133/1/4
f 1118/7/4 1119/7/4 1134/7/4
f 1133/1/4 1118/1/4 1134/1/4
f 1119/6/4 1120/6/4 1135/6/4
f 1134/7/4 1119/7/4 1135/7/4
f 1120/7/4 1121/7/4 1136/7/4
f 1135/6/4 1120/6/4 1136/6/4
f 1121/1/4 1109/1/4 1137/1/4
f 1136/7/4 1121/7/4 1137/7/4
f 1126/7/4 1127/7/4 1138/7/4
f 1124/1/4 1125/1/4 1138/1/4
f 1125/1/4 1126/1/4 1138/1/4
f 1127/6/4 1092/6/4 1139/6/4
f 1138/7/4 1127/7/4 1139/7/4
f 1128/1/4 1129/1/4 1140/1/4
f 1129/1/4 1130/1/4 1140/1/4
f 1130/9/4 1131/9/4 1141/9/4
f 1140/1/4 1130/1/4 1141/1/4
f 1131/1/4 1132/1/4 1142/1/4
f 1141/9/4 1131/9/4 1142/9/4
f 1132/9/4 1133/9/4 1143/9/4
f 1142/1/4 1132/1/4 1143/1/4
f 1133/1/4 1134/1/4 1144/1/4
f 1143/9/4 1133/9/4 1144/9/4
f 1134/1/4 1135/1/4 1144/1/4
f 1144/1/4 1135/1/4 1145/1/4
f 1145/1/4 1135/1/4 1146/1/4
f 1135/7/4 1136/7/4 1147/7/4
f 1146/1/4 1135/1/4 1147/1/4
f 1136/1/4 1137/1/4 1148/1/4
f 1147/7/4 1136/7/4 1148/7/4
f 1137/1/4 1109/1/4 1149/1/4
f 1148/1/4 1137/1/4 1149/1/4
f 1124/1/4 1138/1/4 1150/1/4
f 1138/1/4 1139/1/4 1150/1/4
f 1139/6/4 1092/6/4 1151/6/4
f 1150/1/4 1139/1/4 1151/1/4
f 1092/1/4 1128/1/4 1152/1/4
f 1151/6/4 1092/6/4 1152/6/4
f 1128/1/4 1140/1/4 1152/1/4
f 1152/1/4 1140/1/4 1153/1/4
f 1153/1/4 1140/1/4 1154/1/4
f 1141/2/4 1142/2/4 1155/2/4
f 1154/1/4 1140/1/4 1155/1/4
f 1142/2/4 1143/2/4 1155/2/4
f 1140/2/4 1141/2/4 1155/2/4
f 1144/2/4 1145/2/4 1155/2/4
f 1143/2/4 1144/2/4 1155/2/4
f 1155/2/4 1145/2/4 1156/2/4
f 1156/2/4 1145/2/4 1157/2/4
f 1150/2/4 1151/2/4 1158/2/4
f 1152/2/4 1153/2/4 1158/2/4
f 1151/2/4 1152/2/4 1158/2/4
f 1124/1/4 1150/1/4 1158/1/4
f 1158/2/4 1153/2/4 1159/2/4
f 1159/2/4 1153/2/4 1160/2/4
f 1153/1/4 1154/1/4 1161/1/4
f 1160/2/4 1153/2/4 1161/2/4
f 1147/1/4 1148/1/4 1162/1/4
f 1146/1/4 1147/1/4 1162/1/4
f 1148/1/4 1149/1/4 1162/1/4
f 1162/1/4 1149/1/4 1163/1/4
f 1161/1/4 1154/1/4 1164/1/4
f 1160/1/4 1161/1/4 1164/1/4
f 1154/9/4 1155/9/4 1164/9/4
f 1155/2/4 1156/2/4 1165/2/4
f 1164/9/4 1155/9/4 1165/9/4
f 1157/2/4 1145/2/4 1166/2/4
f 1145/9/4 1146/9/4 1166/9/4
f 1146/1/4 1162/1/4 1167/1/4
f 1166/9/4 1146/9/4 1167/9/4
f 1158/1/4 1159/1/4 1168/1/4
f 1124/1/4 1158/1/4 1168/1/4
f 1159/2/4 1160/2/4 1169/2/4
f 1168/1/4 1159/1/4 1169/1/4
f 1164/1/4 1165/1/4 1170/1/4
f 1169/2/4 1160/2/4 1170/2/4
f 1160/1/4 1164/1/4 1170/1/4
f 1170/1/4 1165/1/4 1171/1/4
f 1171/1/4 1165/1/4 1172/1/4
f 1165/2/4 1156/2/4 1173/2/4
f 1172/1/4 1165/1/4 1173/1/4
f 1166/1/4 1167/1/4 1174/1/4
f 1157/2/4 1166/2/4 1174/2/4
f 1167/1/4 1162/1/4 1175/1/4
f 1174/1/4 1167/1/4 1175/1/4
f 1163/1/4 1149/1/4 1176/1/4
f 1176/1/4 1149/1/4 1177/1/4
f 1124/1/4 1168/1/4 1178/1/4
f 1168/2/4 1169/2/4 1178/2/4
f 1169/2/4 1170/2/4 1178/2/4
f 1170/2/4 1171/2/4 1178/2/4
f 1178/2/4 1171/2/4 1179/2/4
f 1179/2/4 1171/2/4 1180/2/4
f 1171/1/4 1172/1/4 1181/1/4
f 1180/2/4 1171/2/4 1181/2/4
f 1176/2/4 1177/2/4 1182/2/4
f 1163/1/4 1176/1/4 1182/1/4
f 1182/2/4 1177/2/4 1183/2/4
f 1035/1/4 1124/1/4 1184/1/4
f 1124/1/4 1178/1/4 1184/1/4
f 1178/1/4 1179/1/4 1184/1/4
f 1184/1/4 1179/1/4 1185/1/4
f 1181/1/4 1172/1/4 1186/1/4
f 1172/9/4 1173/9/4 1186/9/4
f 1180/1/4 1181/1/4 1186/1/4
f 1173/2/4 1156/2/4 1187/2/4
f 1186/9/4 1173/9/4 1187/9/4
f 1187/2/4 1156/2/4 1188/2/4
f 1157/2/4 1174/2/4 1190/2/4
f 1174/9/4 1175/9/4 1191/9/4
f 1190/2/4 1174/2/4 1191/2/4
f 1175/1/4 1162/1/4 1192/1/4
f 1191/9/4 1175/9/4 1192/9/4
f 1162/2/4 1163/2/4 1193/2/4
f 1182/1/4 1183/1/4 1193/1/4
f 1163/1/4 1182/1/4 1193/1/4
f 1183/2/4 1177/2/4 1194/2/4
f 1193/1/4 1183/1/4 1194/1/4
f 1184/3/4 1185/3/4 1195/3/4
f 1035/1/4 1184/1/4 1195/1/4
f 1195/3/4 1185/3/4 1196/3/4
f 1179/2/4 1180/2/4 1197/2/4
f 1185/1/4 1179/1/4 1197/1/4
f 1180/1/4 1186/1/4 1198/1/4
f 1197/2/4 1180/2/4 1198/2/4
f 1186/1/4 1187/1/4 1198/1/4
f 1188/2/4 1189/2/4 1199/2/4
f 1198/1/4 1187/1/4 1199/1/4
f 1187/2/4 1188/2/4 1199/2/4
f 1199/2/4 1189/2/4 1200/2/4
f 1200/2/4 1189/2/4 1201/2/4
f 1162/2/4 1193/2/4 1202/2/4
f 1192/1/4 1162/1/4 1202/1/4
f 1193/2/4 1194/2/4 1202/2/4
f 1191/1/4 1192/1/4 1202/1/4
f 1177/1/4 1149/1/4 1203/1/4
f 1202/2/4 1194/2/4 1203/2/4
f 1194/2/4 1177/2/4 1203/2/4
f 1195/1/4 1196/1/4 1204/1/4
f 1035/1/4 1195/1/4 1204/1/4
f 1204/1/4 1196/1/4 1205/1/4
f 1196/3/4 1185/3/4 1206/3/4
f 1205/1/4 1196/1/4 1206/1/4
f 1185/1/4 1197/1/4 1207/1/4
f 1206/3/4 1185/3/4 1207/3/4
f 1199/1/4 1200/1/4 1207/1/4
f 1198/1/4 1199/1/4 1207/1/4
f 1197/1/4 1198/1/4 1207/1/4
f 1200/9/4 1201/9/4 1208/9/4
f 1207/1/4 1200/1/4 1208/1/4
f 1208/9/4 1201/9/4 1209/9/4
f 1191/1/4 1202/1/4 1210/1/4
f 1202/1/4 1203/1/4 1210/1/4
f 1210/1/4 1203/1/4 1211/1/4
f 1203/1/4 1149/1/4 1212/1/4
f 1211/1/4 1203/1/4 1212/1/4
f 1206/1/4 1207/1/4 1213/1/4
f 1209/1/4 1210/1/4 1213/1/4
f 1208/1/4 1209/1/4 1213/1/4
f 1207/1/4 1208/1/4 1213/1/4
f 1210/1/4 1211/1/4 1213/1/4
f 1205/1/4 1206/1/4 1213/1/4
f 1213/1/4 1211/1/4 1214/1/4
f 1212/1/4 1149/1/4 1215/1/4
f 1215/1/4 1149/1/4 1216/1/4
f 1217/5/4 1218/5/4 1219/5/4
f 1219/5/4 1218/5/4 1220/5/4
f 1221/4/4 1222/4/4 1223/4/4
f 1223/4/4 1222/4/4 1224/4/4
f 1227/5/4 1228/5/4 1229/5/4
f 1225/5/4 1226/5/4 1233/5/4
f 1233/5/4 1226/5/4 1234/5/4
f 1227/5/4 1229/5/4 1235/5/4
f 1229/4/4 1230/4/4 1236/4/4
f 1235/5/4 1229/5/4 1236/5/4
f 1236/4/4 1230/4/4 1237/4/4
f 1237/4/4 1230/4/4 1238/4/4
f 1231/4/4 1232/4/4 1239/4/4
f 1239/4/4 1232/4/4 1240/4/4
f 1241/5/4 1242/5/4 1243/5/4
f 1243/5/4 1242/5/4 1244/5/4
f 1245/4/4 1246/4/4 1247/4/4
f 1247/4/4 1246/4/4 1248/4/4
f 1248/4/4 1246/4/4 1249/4/4
f 1249/5/4 1250/5/4 1251/5/4
f 1248/5/4 1249/5/4 1251/5/4
f 1251/5/4 1250/5/4 1252/5/4
f 1253/5/4 1254/5/4 1257/5/4
f 1257/5/4 1254/5/4 1258/5/4
f 1255/5/4 1256/5/4 1259/5/4
f 1259/5/4 1256/5/4 1260/5/4
f 1261/5/4 1262/5/4 1264/5/4
f 1264/5/4 1262/5/4 1265/5/4
f 1265/5/4 1262/5/4 1266/5/4
f 1263/4/4 1264/4/4 1267/4/4
f 1264/4/4 1265/4/4 1267/4/4
f 1267/4/4 1265/4/4 1268/4/4
f 1269/5/4 1270/5/4 1271/5/4
f 1271/5/4 1270/5/4 1272/5/4
f 1273/4/4 1274/4/4 1280/4/4
f 1280/4/4 1274/4/4 1281/4/4
f 1279/5/4 1280/5/4 1281/5/4
f 1281/4/4 1274/4/4 1282/4/4
f 1275/4/4 1276/4/4 1283/4/4
f 1283/4/4 1276/4/4 1284/4/4
f 1277/5/4 1278/5/4 1285/5/4
f 1285/5/4 1278/5/4 1286/5/4
f 1279/5/4 1281/5/4 1287/5/4
f 1287/5/4 1281/5/4 1288/5/4
f 1289/4/4 1290/4/4 1291/4/4
f 1291/4/4 1290/4/4 1292/4/4
f 1293/5/4 1294/5/4 1295/5/4
f 1295/5/4 1294/5/4 1296/5/4
f 1297/5/4 1298/5/4 1300/5/4
f 1300/5/4 1298/5/4 1301/5/4
f 1303/4/4 1304/4/4 1306/4/4
f 1306/4/4 1304/4/4 1307/4/4
f 1299/5/4 1300/5/4 1309/5/4
f 1309/5/4 1300/5/4 1310/5/4
f 1301/5/4 1302/5/4 1311/5/4
f 1311/5/4 1302/5/4 1312/5/4
f 1310/5/4 1311/5/4 1313/5/4
f 1313/5/4 1311/5/4 1314/5/4
f 1305/4/4 1306/4/4 1315/4/4
f 1315/4/4 1306/4/4 1316/4/4
f 1307/4/4 1308/4/4 1317/4/4
f 1317/4/4 1308/4/4 1318/4/4
f 1316/4/4 1317/4/4 1319/4/4
f 1319/4/4 1317/4/4 1320/4/4
f 1321/5/4 1322/5/4 1324/5/4
f 1324/5/4 1322/5/4 1325/5/4
f 1323/5/4 1324/5/4 1327/5/4
f 1327/5/4 1324/5/4 1328/5/4
f 1325/5/4 1326/5/4 1329/5/4
f 1329/5/4 1326/5/4 1330/5/4
f 1328/5/4 1329/5/4 1331/5/4
f 1331/5/4 1329/5/4 1332/5/4
f 1333/4/4 1334/4/4 1338/4/4
f 1338/4/4 1334/4/4 1339/4/4
f 1335/5/4 1336/5/4 1342/5/4
f 1342/5/4 1336/5/4 1343/5/4
f 1337/4/4 1338/4/4 1345/4/4
f 1345/4/4 1338/4/4 1346/4/4
f 1339/4/4 1340/4/4 1347/4/4
f 1347/4/4 1340/4/4 1348/4/4
f 1341/5/4 1342/5/4 1349/5/4
f 1349/5/4 1342/5/4 1350/5/4
f 1343/5/4 1344/5/4 1351/5/4
f 1351/5/4 1344/5/4 1352/5/4
f 1346/4/4 1347/4/4 1353/4/4
f 1353/4/4 1347/4/4 1354/4/4
f 1350/5/4 1351/5/4 1355/5/4
f 1355/5/4 1351/5/4 1356/5/4
f 1357/5/4 1358/5/4 1361/5/4
f 1361/5/4 1358/5/4 1362/5/4
f 1359/4/4 1360/4/4 1363/4/4
f 1363/4/4 1360/4/4 1364/4/4
f 1365/5/4 1366/5/4 1367/5/4
f 1367/5/4 1366/5/4 1368/5/4
f 1369/4/4 1370/4/4 1373/4/4
f 1373/4/4 1370/4/4 1374/4/4
f 1371/5/4 1372/5/4 1375/5/4
f 1375/5/4 1372/5/4 1376/5/4
f 1379/1/5 1378/1/5 1377/1/5
f 1380/1/5 1378/1/5 1379/1/5
f 1385/1/5 1382/1/5 1381/1/5
f 1386/1/5 1382/1/5 1385/1/5
f 1387/1/5 1384/1/5 1383/1/5
f 1388/1/5 1384/1/5 1387/1/5
f 1393/5/5 1390/5/5 1389/5/5
f 1394/5/5 1390/5/5 1393/5/5
f 1395/5/5 1392/5/5 1391/5/5
f 1396/5/5 1392/5/5 1395/5/5
f 1405/5/5 1398/5/5 1397/5/5
f 1406/5/5 1400/5/5 1399/5/5
f 1407/5/5 1402/5/5 1401/5/5
f 1408/5/5 1404/5/5 1403/5/5
f 1409/5/5 1405/5/5 1397/5/5
f 1409/5/5 1406/5/5 1405/5/5
f 1410/5/5 1400/5/5 1406/5/5
f 1410/5/5 1406/5/5 1409/5/5
f 1411/5/5 1407/5/5 1401/5/5
f 1411/5/5 1408/5/5 1407/5/5
f 1412/5/5 1404/5/5 1408/5/5
f 1412/5/5 1408/5/5 1411/5/5
f 1421/5/5 1414/5/5 1413/5/5
f 1422/5/5 1414/5/5 1421/5/5
f 1423/5/5 1416/5/5 1415/5/5
f 1424/5/5 1416/5/5 1423/5/5
f 1425/5/5 1418/5/5 1417/5/5
f 1426/5/5 1418/5/5 1425/5/5
f 1427/5/5 1420/5/5 1419/5/5
f 1428/5/5 1420/5/5 1427/5/5
f 1429/5/5 1423/5/5 1422/5/5
f 1430/5/5 1423/5/5 1429/5/5
f 1431/5/5 1427/5/5 1426/5/5
f 1432/5/5 1427/5/5 1431/5/5
f 1443/5/5 1434/5/5 1433/5/5
f 1444/5/5 1434/5/5 1443/5/5
f 1447/5/5 1436/5/5 1435/5/5
f 1447/5/5 1437/5/5 1436/5/5
f 1448/5/5 1437/5/5 1447/5/5
f 1449/5/5 1439/5/5 1438/5/5
f 1449/5/5 1440/5/5 1439/5/5
f 1450/5/5 1440/5/5 1449/5/5
f 1453/5/5 1442/5/5 1441/5/5
f 1454/5/5 1442/5/5 1453/5/5
f 1455/5/5 1446/5/5 1445/5/5
f 1456/5/5 1446/5/5 1455/5/5
f 1457/5/5 1452/5/5 1451/5/5
f 1458/5/5 1452/5/5 1457/5/5
f 1459/5/5 1443/5/5 1433/5/5
f 1460/5/5 1443/5/5 1459/5/5
f 1461/5/5 1437/5/5 1448/5/5
f 1462/5/5 1437/5/5 1461/5/5
f 1463/5/5 1449/5/5 1438/5/5
f 1464/5/5 1449/5/5 1463/5/5
f 1465/5/5 1442/5/5 1454/5/5
f 1466/5/5 1442/5/5 1465/5/5
f 1471/5/5 1468/5/5 1467/5/5
f 1472/5/5 1468/5/5 1471/5/5
f 1473/5/5 1470/5/5 1469/5/5
f 1474/5/5 1470/5/5 1473/5/5
f 1479/2/5 1476/2/5 1475/2/5
f 1480/2/5 1476/2/5 1479/2/5
f 1481/2/5 1478/2/5 1477/2/5
f 1482/2/5 1478/2/5 1481/2/5
f 1487/5/5 1484/5/5 1483/5/5
f 1488/5/5 1484/5/5 1487/5/5
f 1489/5/5 1486/5/5 1485/5/5
f 1490/5/5 1486/5/5 1489/5/5
f 1495/5/5 1492/5/5 1491/5/5
f 1496/5/5 1492/5/5 1495/5/5
f 1497/5/5 1494/5/5 1493/5/5
f 1498/5/5 1494/5/5 1497/5/5
f 1505/4/5 1500/4/5 1499/4/5
f 1505/4/5 1501/4/5 1500/4/5
f 1506/4/5 1501/4/5 1505/4/5
f 1507/4/5 1504/4/5 1503/4/5
f 1507/4/5 1503/4/5 1502/4/5
f 1508/4/5 1504/4/5 1507/4/5
f 1517/4/5 1510/4/5 1509/4/5
f 1518/4/5 1512/4/5 1511/4/5
f 1519/4/5 1514/4/5 1513/4/5
f 1520/4/5 1516/4/5 1515/4/5
f 1521/4/5 1517/4/5 1509/4/5
f 1521/4/5 1518/4/5 1517/4/5
f 1522/4/5 1512/4/5 1518/4/5
f 1522/4/5 1518/4/5 1521/4/5
f 1523/4/5 1519/4/5 1513/4/5
f 1523/4/5 1520/4/5 1519/4/5
f 1524/4/5 1516/4/5 1520/4/5
f 1524/4/5 1520/4/5 1523/4/5
f 1535/5/5 1526/5/5 1525/5/5
f 1536/5/5 1526/5/5 1535/5/5
f 1537/4/5 1528/4/5 1527/4/5
f 1538/4/5 1528/4/5 1537/4/5
f 1539/4/5 1530/4/5 1529/4/5
f 1540/4/5 1530/4/5 1539/4/5
f 1541/4/5 1532/4/5 1531/4/5
f 1542/4/5 1532/4/5 1541/4/5
f 1543/4/5 1534/4/5 1533/4/5
f 1544/4/5 1534/4/5 1543/4/5
f 1545/4/5 1539/4/5 1538/4/5
f 1546/4/5 1539/4/5 1545/4/5
f 1547/4/5 1543/4/5 1542/4/5
f 1548/4/5 1543/4/5 1547/4/5
f 1557/4/5 1550/4/5 1549/4/5
f 1558/4/5 1550/4/5 1557/4/5
f 1561/4/5 1552/4/5 1551/4/5
f 1562/4/5 1552/4/5 1561/4/5
f 1567/4/5 1554/4/5 1553/4/5
f 1568/4/5 1554/4/5 1567/4/5
f 1571/4/5 1556/4/5 1555/4/5
f 1572/4/5 1556/4/5 1571/4/5
f 1573/4/5 1560/4/5 1559/4/5
f 1574/4/5 1560/4/5 1573/4/5
f 1575/4/5 1570/4/5 1569/4/5
f 1576/4/5 1570/4/5 1575/4/5
f 1577/4/5 1557/4/5 1549/4/5
f 1578/4/5 1557/4/5 1577/4/5
f 1579/4/5 1552/4/5 1562/4/5
f 1580/4/5 1552/4/5 1579/4/5
f 1581/5/5 1564/5/5 1563/5/5
f 1582/5/5 1566/5/5 1565/5/5
f 1583/4/5 1567/4/5 1553/4/5
f 1584/4/5 1567/4/5 1583/4/5
f 1585/4/5 1556/4/5 1572/4/5
f 1586/4/5 1556/4/5 1585/4/5
f 1587/5/5 1581/5/5 1563/5/5
f 1587/5/5 1582/5/5 1581/5/5
f 1588/5/5 1566/5/5 1582/5/5
f 1588/5/5 1582/5/5 1587/5/5
f 1593/4/5 1590/4/5 1589/4/5
f 1594/4/5 1590/4/5 1593/4/5
f 1595/4/5 1592/4/5 1591/4/5
f 1596/4/5 1592/4/5 1595/4/5
f 1601/5/5 1598/5/5 1597/5/5
f 1602/5/5 1598/5/5 1601/5/5
f 1603/5/5 1600/5/5 1599/5/5
f 1604/5/5 1600/5/5 1603/5/5
f 1605/5/5 1603/5/5 1602/5/5
f 1606/5/5 1603/5/5 1605/5/5
f 1611/5/5 1608/5/5 1607/5/5
f 1612/5/5 1608/5/5 1611/5/5
f 1615/5/5 1610/5/5 1609/5/5
f 1616/5/5 1610/5/5 1615/5/5
f 1617/5/5 1614/5/5 1613/5/5
f 1618/5/5 1614/5/5 1617/5/5
f 1619/5/5 1611/5/5 1607/5/5
f 1620/5/5 1611/5/5 1619/5/5
f 1621/5/5 1610/5/5 1616/5/5
f 1622/5/5 1610/5/5 1621/5/5
f 1625/5/5 1624/5/5 1623/5/5
f 1626/5/5 1624/5/5 1625/5/5
f 1631/4/5 1628/4/5 1627/4/5
f 1632/4/5 1628/4/5 1631/4/5
f 1633/4/5 1630/4/5 1629/4/5
f 1634/4/5 1630/4/5 1633/4/5
f 1639/4/5 1636/4/5 1635/4/5
f 1640/4/5 1636/4/5 1639/4/5
f 1641/4/5 1638/4/5 1637/4/5
f 1642/4/5 1638/4/5 1641/4/5
f 1645/5/5 1644/5/5 1643/5/5
f 1646/5/5 1644/5/5 1645/5/5
f 1649/5/5 1648/5/5 1647/5/5
f 1650/5/5 1648/5/5 1649/5/5
f 1651/5/6 1652/5/6 1655/5/6
f 1655/5/6 1652/5/6 1656/5/6
f 1653/5/6 1654/5/6 1657/5/6
f 1657/5/6 1654/5/6 1658/5/6
f 1659/2/6 1660/2/6 1663/2/6
f 1663/2/6 1660/2/6 1664/2/6
f 1661/2/6 1662/2/6 1665/2/6
f 1665/2/6 1662/2/6 1666/2/6
f 1667/5/6 1668/5/6 1671/5/6
f 1671/5/6 1668/5/6 1672/5/6
f 1669/5/6 1670/5/6 1673/5/6
f 1673/5/6 1670/5/6 1674/5/6
f 1675/5/6 1676/5/6 1679/5/6
f 1679/5/6 1676/5/6 1680/5/6
f 1677/5/6 1678/5/6 1681/5/6
f 1681/5/6 1678/5/6 1682/5/6
f 1683/5/6 1684/5/6 1691/5/6
f 1691/5/6 1684/5/6 1692/5/6
f 1685/5/6 1686/5/6 1695/5/6
f 1695/5/6 1686/5/6 1696/5/6
f 1687/5/6 1688/5/6 1697/5/6
f 1697/5/6 1688/5/6 1698/5/6
f 1689/5/6 1690/5/6 1701/5/6
f 1701/5/6 1690/5/6 1702/5/6
f 1693/5/6 1694/5/6 1703/5/6
f 1703/5/6 1694/5/6 1704/5/6
f 1699/5/6 1700/5/6 1705/5/6
f 1705/5/6 1700/5/6 1706/5/6
f 1683/5/6 1691/5/6 1707/5/6
f 1707/5/6 1691/5/6 1708/5/6
f 1696/5/6 1686/5/6 1709/5/6
f 1709/5/6 1686/5/6 1710/5/6
f 1687/5/6 1697/5/6 1711/5/6
f 1711/5/6 1697/5/6 1712/5/6
f 1702/5/6 1690/5/6 1713/5/6
f 1713/5/6 1690/5/6 1714/5/6
f 1715/5/6 1716/5/6 1723/5/6
f 1723/5/6 1716/5/6 1724/5/6
f 1717/5/6 1718/5/6 1725/5/6
f 1725/5/6 1718/5/6 1726/5/6
f 1719/5/6 1720/5/6 1727/5/6
f 1727/5/6 1720/5/6 1728/5/6
f 1721/5/6 1722/5/6 1729/5/6
f 1729/5/6 1722/5/6 1730/5/6
f 1724/5/6 1725/5/6 1731/5/6
f 1731/5/6 1725/5/6 1732/5/6
f 1728/5/6 1729/5/6 1733/5/6
f 1733/5/6 1729/5/6 1734/5/6
f 1735/5/6 1736/5/6 1743/5/6
f 1737/5/6 1738/5/6 1744/5/6
f 1739/5/6 1740/5/6 1745/5/6
f 1741/5/6 1742/5/6 1746/5/6
f 1735/5/6 1743/5/6 1747/5/6
f 1743/5/6 1744/5/6 1747/5/6
f 1744/5/6 1738/5/6 1748/5/6
f 1747/5/6 1744/5/6 1748/5/6
f 1739/5/6 1745/5/6 1749/5/6
f 1745/5/6 1746/5/6 1749/5/6
f 1746/5/6 1742/5/6 1750/5/6
f 1749/5/6 1746/5/6 1750/5/6
f 1751/5/6 1752/5/6 1755/5/6
f 1755/5/6 1752/5/6 1756/5/6
f 1753/5/6 1754/5/6 1757/5/6
f 1757/5/6 1754/5/6 1758/5/6
f 1759/4/6 1760/4/6 1765/4/6
f 1760/4/6 1761/4/6 1765/4/6
f 1765/4/6 1761/4/6 1766/4/6
f 1763/4/6 1764/4/6 1767/4/6
f 1762/4/6 1763/4/6 1767/4/6
f 1767/4/6 1764/4/6 1768/4/6
f 1769/1/6 1770/1/6 1771/1/6
f 1771/1/6 1770/1/6 1772/1/6
f 1772/1/6 1770/1/6 1773/1/6
f 1773/1/6 1770/1/6 1774/1/6
f 1775/4/6 1776/4/6 1779/4/6
f 1779/4/6 1776/4/6 1780/4/6
f 1777/4/6 1778/4/6 1781/4/6
f 1781/4/6 1778/4/6 1782/4/6
f 1783/5/6 1784/5/6 1785/5/6
f 1785/5/6 1784/5/6 1786/5/6
f 1787/5/6 1788/5/6 1789/5/6
f 1789/5/6 1788/5/6 1790/5/6
f 1791/4/6 1792/4/6 1795/4/6
f 1795/4/6 1792/4/6 1796/4/6
f 1793/4/6 1794/4/6 1797/4/6
f 1797/4/6 1794/4/6 1798/4/6
f 1799/4/6 1800/4/6 1807/4/6
f 1807/4/6 1800/4/6 1808/4/6
f 1801/4/6 1802/4/6 1811/4/6
f 1811/4/6 1802/4/6 1812/4/6
f 1803/4/6 1804/4/6 1813/4/6
f 1813/4/6 1804/4/6 1814/4/6
f 1805/4/6 1806/4/6 1817/4/6
f 1817/4/6 1806/4/6 1818/4/6
f 1809/4/6 1810/4/6 1819/4/6
f 1819/4/6 1810/4/6 1820/4/6
f 1815/4/6 1816/4/6 1821/4/6
f 1821/4/6 1816/4/6 1822/4/6
f 1799/4/6 1807/4/6 1823/4/6
f 1823/4/6 1807/4/6 1824/4/6
f 1812/4/6 1802/4/6 1825/4/6
f 1825/4/6 1802/4/6 1826/4/6
f 1803/4/6 1813/4/6 1827/4/6
f 1827/4/6 1813/4/6 1828/4/6
f 1818/4/6 1806/4/6 1829/4/6
f 1829/4/6 1806/4/6 1830/4/6
f 1831/4/6 1832/4/6 1839/4/6
f 1839/4/6 1832/4/6 1840/4/6
f 1833/4/6 1834/4/6 1841/4/6
f 1841/4/6 1834/4/6 1842/4/6
f 1835/4/6 1836/4/6 1843/4/6
f 1843/4/6 1836/4/6 1844/4/6
f 1837/4/6 1838/4/6 1845/4/6
f 1845/4/6 1838/4/6 1846/4/6
f 1840/4/6 1841/4/6 1847/4/6
f 1847/4/6 1841/4/6 1848/4/6
f 1844/4/6 1845/4/6 1849/4/6
f 1849/4/6 1845/4/6 1850/4/6
f 1851/5/6 1852/5/6 1853/5/6
f 1853/5/6 1852/5/6 1854/5/6
f 1855/5/6 1856/5/6 1863/5/6
f 1863/5/6 1856/5/6 1864/5/6
f 1857/5/6 1858/5/6 1867/5/6
f 1867/5/6 1858/5/6 1868/5/6
f 1865/5/6 1866/5/6 1873/5/6
f 1873/5/6 1866/5/6 1874/5/6
f 1859/4/6 1860/4/6 1875/4/6
f 1861/4/6 1862/4/6 1876/4/6
f 1855/5/6 1863/5/6 1877/5/6
f 1877/5/6 1863/5/6 1878/5/6
f 1868/5/6 1858/5/6 1879/5/6
f 1879/5/6 1858/5/6 1880/5/6
f 1869/4/6 1870/4/6 1881/4/6
f 1871/4/6 1872/4/6 1882/4/6
f 1859/4/6 1875/4/6 1883/4/6
f 1875/4/6 1876/4/6 1883/4/6
f 1876/4/6 1862/4/6 1884/4/6
f 1883/4/6 1876/4/6 1884/4/6
f 1881/4/6 1882/4/6 1885/4/6
f 1869/4/6 1881/4/6 1885/4/6
f 1882/4/6 1872/4/6 1886/4/6
f 1885/4/6 1882/4/6 1886/4/6
f 1887/4/6 1888/4/6 1895/4/6
f 1895/4/6 1888/4/6 1896/4/6
f 1889/4/6 1890/4/6 1897/4/6
f 1897/4/6 1890/4/6 1898/4/6
f 1891/5/6 1892/5/6 1899/5/6
f 1899/5/6 1892/5/6 1900/5/6
f 1893/5/6 1894/5/6 1901/5/6
f 1901/5/6 1894/5/6 1902/5/6
f 1900/5/6 1901/5/6 1903/5/6
f 1903/5/6 1901/5/6 1904/5/6
f 1905/5/6 1906/5/6 1909/5/6
f 1907/5/6 1908/5/6 1910/5/6
f 1905/5/6 1909/5/6 1911/5/6
f 1909/5/6 1910/5/6 1911/5/6
f 1910/5/6 1908/5/6 1912/5/6
f 1911/5/6 1910/5/6 1912/5/6
f 1913/5/6 1914/5/6 1915/5/6
f 1915/5/6 1914/5/6 1916/5/6
