# MagicaVoxel @ Ephtracy

# group
o 

# material
mtllib model-0.mtl
usemtl palette

# normals
vn 0 0 1
vn 0 0 -1
vn 1 0 0
vn -1 0 0
vn 0 -1 0
vn 0 1 0

# texcoords
vt 0.00585938 0.5
vt 0.0253906 0.5

# verts
v 0.4 0 -0.2
v -0.4 0 -0.2
v 0.4 0.5 -0.2
v -0.4 0.5 -0.2
v 0.4 0 -0.9
v -0.4 0 -0.9
v 0.4 0.5 -0.9
v -0.4 0.5 -0.9
v 0.4 0 -0.2
v 0.4 0.5 -0.2
v 0.4 0 -0.4
v 0.4 0.5 -0.4
v 0.4 0 -0.5
v 0.4 0.4 -0.5
v 0.4 0 -0.6
v 0.4 0.4 -0.6
v 0.4 0.5 -0.6
v 0.4 0 -0.7
v 0.4 0.4 -0.7
v 0.4 0 -0.9
v 0.4 0.5 -0.9
v -0.4 0 -0.2
v -0.4 0.5 -0.2
v -0.4 0 -0.4
v -0.4 0.5 -0.4
v -0.4 0 -0.5
v -0.4 0.4 -0.5
v -0.4 0 -0.6
v -0.4 0.4 -0.6
v -0.4 0.5 -0.6
v -0.4 0 -0.7
v -0.4 0.4 -0.7
v -0.4 0 -0.9
v -0.4 0.5 -0.9
v 0.4 0 -0.2
v 0.4 0 -0.4
v 0.4 0 -0.5
v 0.4 0 -0.6
v 0.4 0 -0.7
v 0.4 0 -0.9
v 0.3 0 -0.4
v 0.3 0 -0.5
v 0.3 0 -0.6
v 0.3 0 -0.7
v -0.3 0 -0.4
v -0.3 0 -0.5
v -0.3 0 -0.6
v -0.3 0 -0.7
v -0.4 0 -0.2
v -0.4 0 -0.4
v -0.4 0 -0.5
v -0.4 0 -0.6
v -0.4 0 -0.7
v -0.4 0 -0.9
v 0.4 0.5 -0.2
v 0.4 0.5 -0.4
v 0.4 0.5 -0.6
v 0.4 0.5 -0.9
v 0.3 0.5 -0.4
v 0.3 0.5 -0.6
v -0.3 0.5 -0.4
v -0.3 0.5 -0.6
v -0.4 0.5 -0.2
v -0.4 0.5 -0.4
v -0.4 0.5 -0.6
v -0.4 0.5 -0.9

# faces
f 3/1/1 2/1/1 1/1/1
f 4/1/1 2/1/1 3/1/1
f 5/1/2 6/1/2 7/1/2
f 7/1/2 6/1/2 8/1/2
f 11/1/3 10/1/3 9/1/3
f 12/1/3 10/1/3 11/1/3
f 13/2/3 12/2/3 11/2/3
f 14/2/3 12/2/3 13/2/3
f 15/1/3 14/1/3 13/1/3
f 16/2/3 12/2/3 14/2/3
f 16/1/3 14/1/3 15/1/3
f 17/2/3 12/2/3 16/2/3
f 18/2/3 16/2/3 15/2/3
f 19/1/3 17/1/3 16/1/3
f 19/2/3 16/2/3 18/2/3
f 20/1/3 19/1/3 18/1/3
f 21/1/3 17/1/3 19/1/3
f 21/1/3 19/1/3 20/1/3
f 22/1/4 23/1/4 24/1/4
f 24/1/4 23/1/4 25/1/4
f 24/2/4 25/2/4 26/2/4
f 26/2/4 25/2/4 27/2/4
f 26/1/4 27/1/4 28/1/4
f 27/2/4 25/2/4 29/2/4
f 28/1/4 27/1/4 29/1/4
f 29/2/4 25/2/4 30/2/4
f 28/2/4 29/2/4 31/2/4
f 29/1/4 30/1/4 32/1/4
f 31/2/4 29/2/4 32/2/4
f 31/1/4 32/1/4 33/1/4
f 32/1/4 30/1/4 34/1/4
f 33/1/4 32/1/4 34/1/4
f 41/1/5 36/1/5 35/1/5
f 41/2/5 37/2/5 36/2/5
f 42/1/5 38/1/5 37/1/5
f 42/2/5 37/2/5 41/2/5
f 43/2/5 39/2/5 38/2/5
f 43/1/5 38/1/5 42/1/5
f 44/1/5 40/1/5 39/1/5
f 44/2/5 39/2/5 43/2/5
f 45/1/5 43/1/5 42/1/5
f 45/1/5 42/1/5 41/1/5
f 45/1/5 44/1/5 43/1/5
f 45/1/5 41/1/5 35/1/5
f 46/1/5 44/1/5 45/1/5
f 47/1/5 44/1/5 46/1/5
f 48/1/5 40/1/5 44/1/5
f 48/1/5 44/1/5 47/1/5
f 49/1/5 45/1/5 35/1/5
f 50/2/5 46/2/5 45/2/5
f 50/1/5 45/1/5 49/1/5
f 51/1/5 47/1/5 46/1/5
f 51/2/5 46/2/5 50/2/5
f 52/2/5 48/2/5 47/2/5
f 52/1/5 47/1/5 51/1/5
f 53/1/5 40/1/5 48/1/5
f 53/2/5 48/2/5 52/2/5
f 54/1/5 40/1/5 53/1/5
f 55/1/6 56/1/6 59/1/6
f 56/2/6 57/2/6 59/2/6
f 57/1/6 58/1/6 60/1/6
f 59/2/6 57/2/6 60/2/6
f 55/1/6 59/1/6 61/1/6
f 59/1/6 60/1/6 61/1/6
f 60/1/6 58/1/6 62/1/6
f 61/1/6 60/1/6 62/1/6
f 55/1/6 61/1/6 63/1/6
f 61/2/6 62/2/6 64/2/6
f 63/1/6 61/1/6 64/1/6
f 62/1/6 58/1/6 65/1/6
f 64/2/6 62/2/6 65/2/6
f 65/1/6 58/1/6 66/1/6
