# MagicaVoxel @ Ephtracy

# group
o 

# material
mtllib model.mtl
usemtl palette

# normals
vn -1 0 0
vn 1 0 0
vn 0 0 1
vn 0 0 -1
vn 0 -1 0
vn 0 1 0

# texcoords
vt 0.0253906 0.5
vt 0.0292969 0.5
vt 0.814453 0.5
vt 0.822266 0.5

# verts
v -0.1 0 0.4
v -0.1 0 -0.4
v -0.1 0.1 0.5
v -0.1 0.1 0.4
v -0.1 0.1 -0.4
v -0.1 0.1 -0.5
v -0.1 0.2 0.5
v -0.1 0.2 -0.5
v -0.1 0.3 0.5
v -0.1 0.3 -0.5
v -0.1 0.6 0.7
v -0.1 0.6 0.4
v -0.1 0.6 -0.4
v -0.1 0.6 -0.7
v -0.1 1 0.6
v -0.1 1 0.5
v -0.1 1 -0.5
v -0.1 1 -0.6
v -0.1 1.1 0.6
v -0.1 1.1 0.5
v -0.1 1.1 -0.5
v -0.1 1.1 -0.6
v -0.1 1.2 0.7
v -0.1 1.2 0.4
v -0.1 1.2 -0.4
v -0.1 1.2 -0.7
v -0.1 1.3 1
v -0.1 1.3 0.8
v -0.1 1.3 0.4
v -0.1 1.3 0.2
v -0.1 1.4 0.8
v -0.1 1.4 0.4
v -0.1 1.5 1
v -0.1 1.5 0.9
v -0.1 1.5 0.3
v -0.1 1.5 0.2
v -0.1 1.5 -0.2
v -0.1 1.5 -0.4
v -0.1 1.5 -0.8
v -0.1 1.5 -1
v -0.1 1.6 0.9
v -0.1 1.6 0.3
v -0.1 1.6 -0.4
v -0.1 1.6 -0.8
v -0.1 1.7 -0.2
v -0.1 1.7 -0.3
v -0.1 1.7 -0.9
v -0.1 1.7 -1
v -0.1 1.8 -0.3
v -0.1 1.8 -0.9
v 0 0 0.4
v 0 0 -0.4
v 0 0.1 0.5
v 0 0.1 0.4
v 0 0.1 -0.4
v 0 0.1 -0.5
v 0 0.2 0.5
v 0 0.2 -0.5
v 0 0.3 0.5
v 0 0.3 -0.5
v 0 0.6 0.7
v 0 0.6 0.4
v 0 0.6 -0.4
v 0 0.6 -0.7
v 0 1 0.6
v 0 1 0.5
v 0 1 -0.5
v 0 1 -0.6
v 0 1.1 0.6
v 0 1.1 0.5
v 0 1.1 -0.5
v 0 1.1 -0.6
v 0 1.2 0.7
v 0 1.2 0.4
v 0 1.2 -0.4
v 0 1.2 -0.7
v 0.1 1.3 1
v 0.1 1.3 0.8
v 0.1 1.3 0.4
v 0.1 1.3 0.2
v 0.1 1.4 0.8
v 0.1 1.4 0.4
v 0.1 1.5 1
v 0.1 1.5 0.9
v 0.1 1.5 0.3
v 0.1 1.5 0.2
v 0.1 1.5 -0.2
v 0.1 1.5 -0.4
v 0.1 1.5 -0.8
v 0.1 1.5 -1
v 0.1 1.6 0.9
v 0.1 1.6 0.3
v 0.1 1.6 -0.4
v 0.1 1.6 -0.8
v 0.1 1.7 -0.2
v 0.1 1.7 -0.3
v 0.1 1.7 -0.9
v 0.1 1.7 -1
v 0.1 1.8 -0.3
v 0.1 1.8 -0.9
v -0.1 1.3 1
v -0.1 1.5 1
v 0.1 1.3 1
v 0.1 1.5 1
v -0.1 1.5 0.9
v -0.1 1.6 0.9
v 0.1 1.5 0.9
v 0.1 1.6 0.9
v -0.1 0.6 0.7
v -0.1 1.2 0.7
v 0 0.6 0.7
v 0 1.2 0.7
v -0.1 0.1 0.5
v -0.1 0.2 0.5
v -0.1 0.3 0.5
v 0 0.1 0.5
v 0 0.2 0.5
v 0 0.3 0.5
v -0.1 0 0.4
v -0.1 0.1 0.4
v -0.1 1.3 0.4
v -0.1 1.4 0.4
v 0 0 0.4
v 0 0.1 0.4
v 0.1 1.3 0.4
v 0.1 1.4 0.4
v -0.1 1.5 -0.2
v -0.1 1.7 -0.2
v 0.1 1.5 -0.2
v 0.1 1.7 -0.2
v -0.1 1.7 -0.3
v -0.1 1.8 -0.3
v 0.1 1.7 -0.3
v 0.1 1.8 -0.3
v -0.1 0.6 -0.4
v -0.1 1.2 -0.4
v 0 0.6 -0.4
v 0 1.2 -0.4
v -0.1 1.5 -0.8
v -0.1 1.6 -0.8
v 0.1 1.5 -0.8
v 0.1 1.6 -0.8
v -0.1 1.3 0.8
v -0.1 1.4 0.8
v 0.1 1.3 0.8
v 0.1 1.4 0.8
v -0.1 0.6 0.4
v -0.1 1.2 0.4
v 0 0.6 0.4
v 0 1.2 0.4
v -0.1 1.5 0.3
v -0.1 1.6 0.3
v 0.1 1.5 0.3
v 0.1 1.6 0.3
v -0.1 1.3 0.2
v -0.1 1.5 0.2
v 0.1 1.3 0.2
v 0.1 1.5 0.2
v -0.1 0 -0.4
v -0.1 0.1 -0.4
v -0.1 1.5 -0.4
v -0.1 1.6 -0.4
v 0 0 -0.4
v 0 0.1 -0.4
v 0.1 1.5 -0.4
v 0.1 1.6 -0.4
v -0.1 0.1 -0.5
v -0.1 0.2 -0.5
v -0.1 0.3 -0.5
v 0 0.1 -0.5
v 0 0.2 -0.5
v 0 0.3 -0.5
v -0.1 0.6 -0.7
v -0.1 1.2 -0.7
v 0 0.6 -0.7
v 0 1.2 -0.7
v -0.1 1.7 -0.9
v -0.1 1.8 -0.9
v 0.1 1.7 -0.9
v 0.1 1.8 -0.9
v -0.1 1.5 -1
v -0.1 1.7 -1
v 0.1 1.5 -1
v 0.1 1.7 -1
v -0.1 0 0.4
v 0 0 0.4
v -0.1 0 -0.4
v 0 0 -0.4
v -0.1 0.1 0.5
v 0 0.1 0.5
v -0.1 0.1 0.4
v 0 0.1 0.4
v -0.1 0.1 -0.4
v 0 0.1 -0.4
v -0.1 0.1 -0.5
v 0 0.1 -0.5
v -0.1 0.6 0.7
v 0 0.6 0.7
v -0.1 0.6 0.4
v 0 0.6 0.4
v -0.1 0.6 -0.4
v 0 0.6 -0.4
v -0.1 0.6 -0.7
v 0 0.6 -0.7
v -0.1 1.3 1
v 0.1 1.3 1
v -0.1 1.3 0.8
v 0.1 1.3 0.8
v -0.1 1.3 0.4
v 0.1 1.3 0.4
v -0.1 1.3 0.2
v 0.1 1.3 0.2
v -0.1 1.4 0.8
v 0.1 1.4 0.8
v -0.1 1.4 0.4
v 0.1 1.4 0.4
v -0.1 1.5 -0.2
v 0.1 1.5 -0.2
v -0.1 1.5 -0.4
v 0.1 1.5 -0.4
v -0.1 1.5 -0.8
v 0.1 1.5 -0.8
v -0.1 1.5 -1
v 0.1 1.5 -1
v -0.1 1.6 -0.4
v 0.1 1.6 -0.4
v -0.1 1.6 -0.8
v 0.1 1.6 -0.8
v -0.1 0.3 0.5
v 0 0.3 0.5
v -0.1 0.3 -0.5
v 0 0.3 -0.5
v -0.1 1.2 0.7
v 0 1.2 0.7
v -0.1 1.2 0.4
v 0 1.2 0.4
v -0.1 1.2 -0.4
v 0 1.2 -0.4
v -0.1 1.2 -0.7
v 0 1.2 -0.7
v -0.1 1.5 1
v 0.1 1.5 1
v -0.1 1.5 0.9
v 0.1 1.5 0.9
v -0.1 1.5 0.3
v 0.1 1.5 0.3
v -0.1 1.5 0.2
v 0.1 1.5 0.2
v -0.1 1.6 0.9
v 0.1 1.6 0.9
v -0.1 1.6 0.3
v 0.1 1.6 0.3
v -0.1 1.7 -0.2
v 0.1 1.7 -0.2
v -0.1 1.7 -0.3
v 0.1 1.7 -0.3
v -0.1 1.7 -0.9
v 0.1 1.7 -0.9
v -0.1 1.7 -1
v 0.1 1.7 -1
v -0.1 1.8 -0.3
v 0.1 1.8 -0.3
v -0.1 1.8 -0.9
v 0.1 1.8 -0.9

# faces
f 4/2/1 2/2/1 1/2/1
f 5/2/1 2/2/1 4/2/1
f 7/1/1 4/1/1 3/1/1
f 7/1/1 6/1/1 5/1/1
f 7/1/1 5/1/1 4/1/1
f 8/1/1 6/1/1 7/1/1
f 9/2/1 8/2/1 7/2/1
f 10/2/1 8/2/1 9/2/1
f 15/3/1 12/3/1 11/3/1
f 16/3/1 12/3/1 15/3/1
f 17/3/1 14/3/1 13/3/1
f 18/3/1 14/3/1 17/3/1
f 19/3/1 15/3/1 11/3/1
f 19/2/1 16/2/1 15/2/1
f 20/3/1 12/3/1 16/3/1
f 20/2/1 16/2/1 19/2/1
f 21/2/1 18/2/1 17/2/1
f 21/3/1 17/3/1 13/3/1
f 22/3/1 14/3/1 18/3/1
f 22/2/1 18/2/1 21/2/1
f 23/3/1 19/3/1 11/3/1
f 23/3/1 20/3/1 19/3/1
f 24/3/1 12/3/1 20/3/1
f 24/3/1 20/3/1 23/3/1
f 25/3/1 21/3/1 13/3/1
f 25/3/1 22/3/1 21/3/1
f 26/3/1 14/3/1 22/3/1
f 26/3/1 22/3/1 25/3/1
f 31/4/1 28/4/1 27/4/1
f 32/4/1 30/4/1 29/4/1
f 33/4/1 31/4/1 27/4/1
f 33/4/1 32/4/1 31/4/1
f 34/4/1 32/4/1 33/4/1
f 35/4/1 30/4/1 32/4/1
f 35/4/1 32/4/1 34/4/1
f 36/4/1 30/4/1 35/4/1
f 41/4/1 35/4/1 34/4/1
f 42/4/1 35/4/1 41/4/1
f 43/4/1 38/4/1 37/4/1
f 44/4/1 40/4/1 39/4/1
f 45/4/1 44/4/1 43/4/1
f 45/4/1 43/4/1 37/4/1
f 46/4/1 44/4/1 45/4/1
f 47/4/1 40/4/1 44/4/1
f 47/4/1 44/4/1 46/4/1
f 48/4/1 40/4/1 47/4/1
f 49/4/1 47/4/1 46/4/1
f 50/4/1 47/4/1 49/4/1
f 51/2/2 52/2/2 54/2/2
f 54/2/2 52/2/2 55/2/2
f 53/1/2 54/1/2 57/1/2
f 55/1/2 56/1/2 57/1/2
f 54/1/2 55/1/2 57/1/2
f 57/1/2 56/1/2 58/1/2
f 57/2/2 58/2/2 59/2/2
f 59/2/2 58/2/2 60/2/2
f 61/3/2 62/3/2 65/3/2
f 65/3/2 62/3/2 66/3/2
f 63/3/2 64/3/2 67/3/2
f 67/3/2 64/3/2 68/3/2
f 61/3/2 65/3/2 69/3/2
f 65/2/2 66/2/2 69/2/2
f 66/3/2 62/3/2 70/3/2
f 69/2/2 66/2/2 70/2/2
f 67/2/2 68/2/2 71/2/2
f 63/3/2 67/3/2 71/3/2
f 68/3/2 64/3/2 72/3/2
f 71/2/2 68/2/2 72/2/2
f 61/3/2 69/3/2 73/3/2
f 69/3/2 70/3/2 73/3/2
f 70/3/2 62/3/2 74/3/2
f 73/3/2 70/3/2 74/3/2
f 63/3/2 71/3/2 75/3/2
f 71/3/2 72/3/2 75/3/2
f 72/3/2 64/3/2 76/3/2
f 75/3/2 72/3/2 76/3/2
f 77/4/2 78/4/2 81/4/2
f 79/4/2 80/4/2 82/4/2
f 77/4/2 81/4/2 83/4/2
f 81/4/2 82/4/2 83/4/2
f 83/4/2 82/4/2 84/4/2
f 82/4/2 80/4/2 85/4/2
f 84/4/2 82/4/2 85/4/2
f 85/4/2 80/4/2 86/4/2
f 84/4/2 85/4/2 91/4/2
f 91/4/2 85/4/2 92/4/2
f 87/4/2 88/4/2 93/4/2
f 89/4/2 90/4/2 94/4/2
f 87/4/2 93/4/2 95/4/2
f 93/4/2 94/4/2 95/4/2
f 95/4/2 94/4/2 96/4/2
f 94/4/2 90/4/2 97/4/2
f 96/4/2 94/4/2 97/4/2
f 97/4/2 90/4/2 98/4/2
f 96/4/2 97/4/2 99/4/2
f 99/4/2 97/4/2 100/4/2
f 103/4/3 102/4/3 101/4/3
f 104/4/3 102/4/3 103/4/3
f 107/4/3 106/4/3 105/4/3
f 108/4/3 106/4/3 107/4/3
f 111/3/3 110/3/3 109/3/3
f 112/3/3 110/3/3 111/3/3
f 116/1/3 114/1/3 113/1/3
f 117/2/3 115/2/3 114/2/3
f 117/1/3 114/1/3 116/1/3
f 118/2/3 115/2/3 117/2/3
f 123/2/3 120/2/3 119/2/3
f 124/2/3 120/2/3 123/2/3
f 125/4/3 122/4/3 121/4/3
f 126/4/3 122/4/3 125/4/3
f 129/4/3 128/4/3 127/4/3
f 130/4/3 128/4/3 129/4/3
f 133/4/3 132/4/3 131/4/3
f 134/4/3 132/4/3 133/4/3
f 137/3/3 136/3/3 135/3/3
f 138/3/3 136/3/3 137/3/3
f 141/4/3 140/4/3 139/4/3
f 142/4/3 140/4/3 141/4/3
f 143/4/4 144/4/4 145/4/4
f 145/4/4 144/4/4 146/4/4
f 147/3/4 148/3/4 149/3/4
f 149/3/4 148/3/4 150/3/4
f 151/4/4 152/4/4 153/4/4
f 153/4/4 152/4/4 154/4/4
f 155/4/4 156/4/4 157/4/4
f 157/4/4 156/4/4 158/4/4
f 159/2/4 160/2/4 163/2/4
f 163/2/4 160/2/4 164/2/4
f 161/4/4 162/4/4 165/4/4
f 165/4/4 162/4/4 166/4/4
f 167/1/4 168/1/4 170/1/4
f 168/2/4 169/2/4 171/2/4
f 170/1/4 168/1/4 171/1/4
f 171/2/4 169/2/4 172/2/4
f 173/3/4 174/3/4 175/3/4
f 175/3/4 174/3/4 176/3/4
f 177/4/4 178/4/4 179/4/4
f 179/4/4 178/4/4 180/4/4
f 181/4/4 182/4/4 183/4/4
f 183/4/4 182/4/4 184/4/4
f 187/2/5 186/2/5 185/2/5
f 188/2/5 186/2/5 187/2/5
f 191/1/5 190/1/5 189/1/5
f 192/1/5 190/1/5 191/1/5
f 195/1/5 194/1/5 193/1/5
f 196/1/5 194/1/5 195/1/5
f 199/3/5 198/3/5 197/3/5
f 200/3/5 198/3/5 199/3/5
f 203/3/5 202/3/5 201/3/5
f 204/3/5 202/3/5 203/3/5
f 207/4/5 206/4/5 205/4/5
f 208/4/5 206/4/5 207/4/5
f 211/4/5 210/4/5 209/4/5
f 212/4/5 210/4/5 211/4/5
f 215/4/5 214/4/5 213/4/5
f 216/4/5 214/4/5 215/4/5
f 219/4/5 218/4/5 217/4/5
f 220/4/5 218/4/5 219/4/5
f 223/4/5 222/4/5 221/4/5
f 224/4/5 222/4/5 223/4/5
f 227/4/5 226/4/5 225/4/5
f 228/4/5 226/4/5 227/4/5
f 229/2/6 230/2/6 231/2/6
f 231/2/6 230/2/6 232/2/6
f 233/3/6 234/3/6 235/3/6
f 235/3/6 234/3/6 236/3/6
f 237/3/6 238/3/6 239/3/6
f 239/3/6 238/3/6 240/3/6
f 241/4/6 242/4/6 243/4/6
f 243/4/6 242/4/6 244/4/6
f 245/4/6 246/4/6 247/4/6
f 247/4/6 246/4/6 248/4/6
f 249/4/6 250/4/6 251/4/6
f 251/4/6 250/4/6 252/4/6
f 253/4/6 254/4/6 255/4/6
f 255/4/6 254/4/6 256/4/6
f 257/4/6 258/4/6 259/4/6
f 259/4/6 258/4/6 260/4/6
f 261/4/6 262/4/6 263/4/6
f 263/4/6 262/4/6 264/4/6
