# MagicaVoxel @ Ephtracy

# group
o 

# material
mtllib model.mtl
usemtl palette

# normals
vn -1 0 0
vn 1 0 0
vn 0 0 1
vn 0 0 -1
vn 0 -1 0
vn 0 1 0

# texcoords
vt 0.00195313 0.5
vt 0.0761719 0.5
vt 0.0800781 0.5

# verts
v -0.6 0.5 1
v -0.6 0.5 0.1
v -0.6 0.5 -0.1
v -0.6 0.5 -1
v -0.6 0.7 1
v -0.6 0.7 0.1
v -0.6 0.7 -0.1
v -0.6 0.7 -1
v -0.5 0 0.9
v -0.5 0 0.2
v -0.5 0 -0.2
v -0.5 0 -0.9
v -0.5 0.1 0.9
v -0.5 0.1 0.2
v -0.5 0.1 -0.2
v -0.5 0.1 -0.9
v -0.5 0.5 0.9
v -0.5 0.5 0.2
v -0.5 0.5 -0.2
v -0.5 0.5 -0.9
v 0.3 0.4 0.9
v 0.3 0.4 0.2
v 0.3 0.4 -0.2
v 0.3 0.4 -0.9
v 0.3 0.5 0.9
v 0.3 0.5 0.2
v 0.3 0.5 -0.2
v 0.3 0.5 -0.9
v 0.4 0.5 1
v 0.4 0.5 0.1
v 0.4 0.5 -0.1
v 0.4 0.5 -1
v 0.4 0.7 1
v 0.4 0.7 0.1
v 0.4 0.7 -0.1
v 0.4 0.7 -1
v 0.7 0 0.9
v 0.7 0 0.2
v 0.7 0 -0.2
v 0.7 0 -0.9
v 0.7 0.1 0.9
v 0.7 0.1 0.2
v 0.7 0.1 -0.2
v 0.7 0.1 -0.9
v 0.7 0.4 0.9
v 0.7 0.4 0.2
v 0.7 0.4 -0.2
v 0.7 0.4 -0.9
v -0.6 0.5 1
v -0.6 0.7 1
v 0.4 0.5 1
v 0.4 0.7 1
v -0.5 0 0.9
v -0.5 0.1 0.9
v -0.5 0.5 0.9
v 0.3 0.4 0.9
v 0.3 0.5 0.9
v 0.7 0 0.9
v 0.7 0.1 0.9
v 0.7 0.4 0.9
v -0.6 0.5 -0.1
v -0.6 0.7 -0.1
v 0.4 0.5 -0.1
v 0.4 0.7 -0.1
v -0.5 0 -0.2
v -0.5 0.1 -0.2
v -0.5 0.5 -0.2
v 0.3 0.4 -0.2
v 0.3 0.5 -0.2
v 0.7 0 -0.2
v 0.7 0.1 -0.2
v 0.7 0.4 -0.2
v -0.5 0 0.2
v -0.5 0.1 0.2
v -0.5 0.5 0.2
v 0.3 0.4 0.2
v 0.3 0.5 0.2
v 0.7 0 0.2
v 0.7 0.1 0.2
v 0.7 0.4 0.2
v -0.6 0.5 0.1
v -0.6 0.7 0.1
v 0.4 0.5 0.1
v 0.4 0.7 0.1
v -0.5 0 -0.9
v -0.5 0.1 -0.9
v -0.5 0.5 -0.9
v 0.3 0.4 -0.9
v 0.3 0.5 -0.9
v 0.7 0 -0.9
v 0.7 0.1 -0.9
v 0.7 0.4 -0.9
v -0.6 0.5 -1
v -0.6 0.7 -1
v 0.4 0.5 -1
v 0.4 0.7 -1
v -0.5 0 0.9
v 0.7 0 0.9
v -0.5 0 0.2
v 0.7 0 0.2
v -0.5 0 -0.2
v 0.7 0 -0.2
v -0.5 0 -0.9
v 0.7 0 -0.9
v -0.6 0.5 1
v 0.4 0.5 1
v -0.5 0.5 0.9
v 0.3 0.5 0.9
v -0.5 0.5 0.2
v 0.3 0.5 0.2
v -0.6 0.5 0.1
v 0.4 0.5 0.1
v -0.6 0.5 -0.1
v 0.4 0.5 -0.1
v -0.5 0.5 -0.2
v 0.3 0.5 -0.2
v -0.5 0.5 -0.9
v 0.3 0.5 -0.9
v -0.6 0.5 -1
v 0.4 0.5 -1
v 0.3 0.4 0.9
v 0.7 0.4 0.9
v 0.3 0.4 0.2
v 0.7 0.4 0.2
v 0.3 0.4 -0.2
v 0.7 0.4 -0.2
v 0.3 0.4 -0.9
v 0.7 0.4 -0.9
v -0.6 0.7 1
v 0.4 0.7 1
v -0.6 0.7 0.1
v 0.4 0.7 0.1
v -0.6 0.7 -0.1
v 0.4 0.7 -0.1
v -0.6 0.7 -1
v 0.4 0.7 -1

# faces
f 5/3/1 2/3/1 1/3/1
f 6/3/1 2/3/1 5/3/1
f 7/3/1 4/3/1 3/3/1
f 8/3/1 4/3/1 7/3/1
f 13/1/1 10/1/1 9/1/1
f 14/1/1 10/1/1 13/1/1
f 15/1/1 12/1/1 11/1/1
f 16/1/1 12/1/1 15/1/1
f 17/2/1 14/2/1 13/2/1
f 18/2/1 14/2/1 17/2/1
f 19/2/1 16/2/1 15/2/1
f 20/2/1 16/2/1 19/2/1
f 21/2/2 22/2/2 25/2/2
f 25/2/2 22/2/2 26/2/2
f 23/2/2 24/2/2 27/2/2
f 27/2/2 24/2/2 28/2/2
f 29/3/2 30/3/2 33/3/2
f 33/3/2 30/3/2 34/3/2
f 31/3/2 32/3/2 35/3/2
f 35/3/2 32/3/2 36/3/2
f 37/1/2 38/1/2 41/1/2
f 41/1/2 38/1/2 42/1/2
f 39/1/2 40/1/2 43/1/2
f 43/1/2 40/1/2 44/1/2
f 41/2/2 42/2/2 45/2/2
f 45/2/2 42/2/2 46/2/2
f 43/2/2 44/2/2 47/2/2
f 47/2/2 44/2/2 48/2/2
f 51/3/3 50/3/3 49/3/3
f 52/3/3 50/3/3 51/3/3
f 56/2/3 55/2/3 54/2/3
f 57/2/3 55/2/3 56/2/3
f 58/1/3 54/1/3 53/1/3
f 59/2/3 56/2/3 54/2/3
f 59/1/3 54/1/3 58/1/3
f 60/2/3 56/2/3 59/2/3
f 63/3/3 62/3/3 61/3/3
f 64/3/3 62/3/3 63/3/3
f 68/2/3 67/2/3 66/2/3
f 69/2/3 67/2/3 68/2/3
f 70/1/3 66/1/3 65/1/3
f 71/2/3 68/2/3 66/2/3
f 71/1/3 66/1/3 70/1/3
f 72/2/3 68/2/3 71/2/3
f 74/2/4 75/2/4 76/2/4
f 76/2/4 75/2/4 77/2/4
f 73/1/4 74/1/4 78/1/4
f 74/2/4 76/2/4 79/2/4
f 78/1/4 74/1/4 79/1/4
f 79/2/4 76/2/4 80/2/4
f 81/3/4 82/3/4 83/3/4
f 83/3/4 82/3/4 84/3/4
f 86/2/4 87/2/4 88/2/4
f 88/2/4 87/2/4 89/2/4
f 85/1/4 86/1/4 90/1/4
f 86/2/4 88/2/4 91/2/4
f 90/1/4 86/1/4 91/1/4
f 91/2/4 88/2/4 92/2/4
f 93/3/4 94/3/4 95/3/4
f 95/3/4 94/3/4 96/3/4
f 99/1/5 98/1/5 97/1/5
f 100/1/5 98/1/5 99/1/5
f 103/1/5 102/1/5 101/1/5
f 104/1/5 102/1/5 103/1/5
f 107/3/5 106/3/5 105/3/5
f 108/3/5 106/3/5 107/3/5
f 109/3/5 107/3/5 105/3/5
f 110/3/5 106/3/5 108/3/5
f 111/3/5 109/3/5 105/3/5
f 111/3/5 110/3/5 109/3/5
f 112/3/5 106/3/5 110/3/5
f 112/3/5 110/3/5 111/3/5
f 115/3/5 114/3/5 113/3/5
f 116/3/5 114/3/5 115/3/5
f 117/3/5 115/3/5 113/3/5
f 118/3/5 114/3/5 116/3/5
f 119/3/5 117/3/5 113/3/5
f 119/3/5 118/3/5 117/3/5
f 120/3/5 114/3/5 118/3/5
f 120/3/5 118/3/5 119/3/5
f 121/2/6 122/2/6 123/2/6
f 123/2/6 122/2/6 124/2/6
f 125/2/6 126/2/6 127/2/6
f 127/2/6 126/2/6 128/2/6
f 129/3/6 130/3/6 131/3/6
f 131/3/6 130/3/6 132/3/6
f 133/3/6 134/3/6 135/3/6
f 135/3/6 134/3/6 136/3/6
