# MagicaVoxel @ Ephtracy

# group
o 

# material
mtllib model.mtl
usemtl palette

# normals
vn 0 0 1
vn 0 0 -1
vn 1 0 0
vn -1 0 0
vn 0 -1 0
vn 0 1 0

# texcoords
vt 0.0292969 0.5
vt 0.755859 0.5
vt 0.759766 0.5

# verts
v 1.1 0.2 1.8
v -1.1 0.2 1.8
v 1.1 1 1.8
v 0.8 1 1.8
v -0.9 1 1.8
v -1.1 1 1.8
v 1.1 1.1 1.8
v 0.8 1.1 1.8
v -0.9 1.1 1.8
v -1.1 1.1 1.8
v 1.1 0 1.5
v -1.1 0 1.5
v 1.1 0.2 1.5
v -1.1 0.2 1.5
v 0.9 1 1.1
v -0.9 1 1.1
v 0.9 1.8 1.1
v 0.6 1.8 1.1
v -0.7 1.8 1.1
v -0.9 1.8 1.1
v 0.9 1.9 1.1
v 0.6 1.9 1.1
v -0.7 1.9 1.1
v -0.9 1.9 1.1
v 1.1 0.7 -0.5
v 1 0.7 -0.5
v -1 0.7 -0.5
v -1.1 0.7 -0.5
v -1 1 -0.5
v -1.1 1 -0.5
v 1.1 1.1 -0.5
v 1 1.1 -0.5
v -1 1.1 -0.5
v -1.1 1.1 -0.5
v 1 0.6 -0.6
v 0.9 0.6 -0.6
v -0.9 0.6 -0.6
v -1 0.6 -0.6
v 1 1 -0.6
v 0.9 1 -0.6
v -0.9 1 -0.6
v -1 1 -0.6
v 1 1 -1.7
v 0.9 1 -1.7
v -0.9 1 -1.7
v -1 1 -1.7
v 1 1.1 -1.7
v 0.9 1.1 -1.7
v -0.9 1.1 -1.7
v -1 1.1 -1.7
v 1 1 1.7
v 0.8 1 1.7
v -0.9 1 1.7
v -1 1 1.7
v 1 1.1 1.7
v 0.8 1.1 1.7
v -0.9 1.1 1.7
v -1 1.1 1.7
v 1 0.6 0.6
v 0.9 0.6 0.6
v -0.9 0.6 0.6
v -1 0.6 0.6
v 1 0.9 0.6
v -1 0.9 0.6
v 1 1 0.6
v 0.9 1 0.6
v -0.9 1 0.6
v -1 1 0.6
v 1.1 0.7 0.5
v 1 0.7 0.5
v -1 0.7 0.5
v -1.1 0.7 0.5
v 1.1 0.9 0.5
v 1 0.9 0.5
v -1 0.9 0.5
v -1.1 0.9 0.5
v 1.1 1.1 0.5
v 1 1.1 0.5
v -1 1.1 0.5
v -1.1 1.1 0.5
v 0.9 1 -1.1
v -0.9 1 -1.1
v 0.9 1.8 -1.1
v 0.7 1.8 -1.1
v -0.7 1.8 -1.1
v -0.9 1.8 -1.1
v 0.9 1.9 -1.1
v 0.7 1.9 -1.1
v -0.7 1.9 -1.1
v -0.9 1.9 -1.1
v 1.1 0 -1.5
v -1.1 0 -1.5
v 1.1 0.2 -1.5
v -1.1 0.2 -1.5
v 1.1 0.2 -1.8
v -1.1 0.2 -1.8
v 1.1 1 -1.8
v 0.9 1 -1.8
v -0.9 1 -1.8
v -1.1 1 -1.8
v 1.1 1.1 -1.8
v 0.9 1.1 -1.8
v -0.9 1.1 -1.8
v -1.1 1.1 -1.8
v 1.1 0.2 1.8
v 1.1 1 1.8
v 1.1 1.1 1.8
v 1.1 1 1.6
v 1.1 1.1 1.6
v 1.1 0 1.5
v 1.1 0.2 1.5
v 1.1 1 0.9
v 1.1 1.1 0.9
v 1.1 0.6 0.6
v 1.1 0.9 0.6
v 1.1 1 0.6
v 1.1 0.7 0.5
v 1.1 0.9 0.5
v 1.1 1.1 0.5
v 1.1 0.7 -0.5
v 1.1 1.1 -0.5
v 1.1 0.6 -0.6
v 1.1 1 -0.6
v 1.1 1 -1.4
v 1.1 1.1 -1.4
v 1.1 0 -1.5
v 1.1 0.2 -1.5
v 1.1 0.2 -1.8
v 1.1 1 -1.8
v 1.1 1.1 -1.8
v 0.9 1 1.1
v 0.9 1.8 1.1
v 0.9 1.9 1.1
v 0.9 1.8 1
v 0.9 1.9 1
v 0.9 1.4 0.9
v 0.9 1.5 0.9
v 0.9 1.3 0.8
v 0.9 1.4 0.8
v 0.9 1.5 0.8
v 0.9 1.6 0.8
v 0.9 1.2 0.7
v 0.9 1.3 0.7
v 0.9 1.4 0.7
v 0.9 1.5 0.7
v 0.9 1.6 0.7
v 0.9 1.7 0.7
v 0.9 0.6 0.6
v 0.9 1 0.6
v 0.9 1.2 0.6
v 0.9 1.3 0.6
v 0.9 1.4 0.6
v 0.9 1.5 0.6
v 0.9 1.6 0.6
v 0.9 1.7 0.6
v 0.9 1.3 0.5
v 0.9 1.4 0.5
v 0.9 1.5 0.5
v 0.9 1.6 0.5
v 0.9 1.4 0.4
v 0.9 1.5 0.4
v 0.9 0.6 -0.6
v 0.9 1 -0.6
v 0.9 1.8 -0.6
v 0.9 1.9 -0.6
v 0.9 1 -1.1
v 0.9 1.8 -1.1
v 0.9 1.9 -1.1
v -1 1 1.7
v -1 1.1 1.7
v -1 1 1.5
v -1 1.1 1.5
v -1 1 0.8
v -1 1.1 0.8
v -1 0.6 0.6
v -1 0.9 0.6
v -1 1 0.6
v -1 0.7 0.5
v -1 0.9 0.5
v -1 1.1 0.5
v -1 0.7 -0.5
v -1 1 -0.5
v -1 1.1 -0.5
v -1 0.6 -0.6
v -1 1 -0.6
v -1 1 -0.7
v -1 1.1 -0.7
v -1 1 -1.7
v -1 1.1 -1.7
v 1 1 1.7
v 1 1.1 1.7
v 1 1 1.6
v 1 1.1 1.6
v 1 1 0.9
v 1 1.1 0.9
v 1 0.6 0.6
v 1 0.9 0.6
v 1 1 0.6
v 1 0.7 0.5
v 1 0.9 0.5
v 1 1.1 0.5
v 1 0.7 -0.5
v 1 1.1 -0.5
v 1 0.6 -0.6
v 1 1 -0.6
v 1 1 -1.4
v 1 1.1 -1.4
v 1 1 -1.7
v 1 1.1 -1.7
v -0.9 1 1.1
v -0.9 1.8 1.1
v -0.9 1.9 1.1
v -0.9 1.8 0.8
v -0.9 1.9 0.8
v -0.9 0.6 0.6
v -0.9 1 0.6
v -0.9 0.6 -0.6
v -0.9 1 -0.6
v -0.9 1.8 -0.9
v -0.9 1.9 -0.9
v -0.9 1 -1.1
v -0.9 1.8 -1.1
v -0.9 1.9 -1.1
v -1.1 0.2 1.8
v -1.1 1 1.8
v -1.1 1.1 1.8
v -1.1 0 1.5
v -1.1 0.2 1.5
v -1.1 1 1.5
v -1.1 1.1 1.5
v -1.1 1 0.8
v -1.1 1.1 0.8
v -1.1 0.6 0.6
v -1.1 0.9 0.6
v -1.1 1 0.6
v -1.1 0.7 0.5
v -1.1 0.9 0.5
v -1.1 1.1 0.5
v -1.1 0.7 -0.5
v -1.1 1 -0.5
v -1.1 1.1 -0.5
v -1.1 0.6 -0.6
v -1.1 1 -0.6
v -1.1 1 -0.7
v -1.1 1.1 -0.7
v -1.1 0 -1.5
v -1.1 0.2 -1.5
v -1.1 1 -1.7
v -1.1 1.1 -1.7
v -1.1 0.2 -1.8
v -1.1 1 -1.8
v -1.1 1.1 -1.8
v 1.1 0 1.5
v 1.1 0 -1.5
v -1.1 0 1.5
v -1.1 0 -1.5
v 1.1 0.2 1.8
v 1.1 0.2 1.5
v 1.1 0.2 -1.5
v 1.1 0.2 -1.8
v -1.1 0.2 1.8
v -1.1 0.2 1.5
v -1.1 0.2 -1.5
v -1.1 0.2 -1.8
v 1 0.6 0.6
v 1 0.6 -0.6
v 0.9 0.6 0.6
v 0.9 0.6 -0.6
v -0.9 0.6 0.6
v -0.9 0.6 -0.6
v -1 0.6 0.6
v -1 0.6 -0.6
v 1.1 0.7 0.5
v 1.1 0.7 -0.5
v 1 0.7 0.5
v 1 0.7 -0.5
v -1 0.7 0.5
v -1 0.7 -0.5
v -1.1 0.7 0.5
v -1.1 0.7 -0.5
v 1 1 1.7
v 1 1 1.6
v 1 1 0.9
v 1 1 0.6
v 1 1 -0.6
v 1 1 -1.4
v 1 1 -1.7
v 0.9 1 1.1
v 0.9 1 0.6
v 0.9 1 -0.6
v 0.9 1 -1.1
v 0.9 1 -1.7
v 0.8 1 1.7
v -0.9 1 1.7
v -0.9 1 1.1
v -0.9 1 0.6
v -0.9 1 -0.6
v -0.9 1 -1.1
v -0.9 1 -1.7
v -1 1 1.7
v -1 1 1.5
v -1 1 0.8
v -1 1 0.6
v -1 1 -0.6
v -1 1 -0.7
v -1 1 -1.7
v 1.1 1.1 1.8
v 1.1 1.1 1.6
v 1.1 1.1 0.9
v 1.1 1.1 0.5
v 1.1 1.1 -0.5
v 1.1 1.1 -1.4
v 1.1 1.1 -1.8
v 1 1.1 1.7
v 1 1.1 1.6
v 1 1.1 0.9
v 1 1.1 0.5
v 1 1.1 -0.5
v 1 1.1 -1.4
v 1 1.1 -1.7
v 0.9 1.1 -1.7
v 0.9 1.1 -1.8
v 0.8 1.1 1.8
v 0.8 1.1 1.7
v -0.9 1.1 1.8
v -0.9 1.1 1.7
v -0.9 1.1 -1.7
v -0.9 1.1 -1.8
v -1 1.1 1.7
v -1 1.1 1.5
v -1 1.1 0.8
v -1 1.1 0.5
v -1 1.1 -0.5
v -1 1.1 -0.7
v -1 1.1 -1.7
v -1.1 1.1 1.8
v -1.1 1.1 1.5
v -1.1 1.1 0.8
v -1.1 1.1 0.5
v -1.1 1.1 -0.5
v -1.1 1.1 -0.7
v -1.1 1.1 -1.7
v -1.1 1.1 -1.8
v 0.9 1.9 1.1
v 0.9 1.9 1
v 0.9 1.9 -0.6
v 0.9 1.9 -1.1
v 0.8 1.9 1
v 0.8 1.9 -0.6
v 0.8 1.9 -1
v 0.7 1.9 -1
v 0.7 1.9 -1.1
v 0.6 1.9 1.1
v 0.6 1.9 1
v -0.7 1.9 1.1
v -0.7 1.9 1
v -0.7 1.9 -1
v -0.7 1.9 -1.1
v -0.8 1.9 1
v -0.8 1.9 0.8
v -0.8 1.9 -0.9
v -0.8 1.9 -1
v -0.9 1.9 1.1
v -0.9 1.9 0.8
v -0.9 1.9 -0.9
v -0.9 1.9 -1.1

# faces
f 3/2/1 2/2/1 1/2/1
f 4/2/1 2/2/1 3/2/1
f 5/2/1 2/2/1 4/2/1
f 6/2/1 2/2/1 5/2/1
f 7/1/1 4/1/1 3/1/1
f 8/3/1 5/3/1 4/3/1
f 8/1/1 4/1/1 7/1/1
f 9/1/1 6/1/1 5/1/1
f 9/3/1 5/3/1 8/3/1
f 10/1/1 6/1/1 9/1/1
f 13/2/1 12/2/1 11/2/1
f 14/2/1 12/2/1 13/2/1
f 17/2/1 16/2/1 15/2/1
f 18/2/1 16/2/1 17/2/1
f 19/2/1 16/2/1 18/2/1
f 20/2/1 16/2/1 19/2/1
f 21/1/1 18/1/1 17/1/1
f 22/3/1 19/3/1 18/3/1
f 22/1/1 18/1/1 21/1/1
f 23/1/1 20/1/1 19/1/1
f 23/3/1 19/3/1 22/3/1
f 24/1/1 20/1/1 23/1/1
f 29/3/1 28/3/1 27/3/1
f 30/3/1 28/3/1 29/3/1
f 31/3/1 26/3/1 25/3/1
f 32/3/1 26/3/1 31/3/1
f 33/1/1 30/1/1 29/1/1
f 34/1/1 30/1/1 33/1/1
f 39/2/1 36/2/1 35/2/1
f 40/2/1 36/2/1 39/2/1
f 41/2/1 38/2/1 37/2/1
f 42/2/1 38/2/1 41/2/1
f 47/1/1 44/1/1 43/1/1
f 48/3/1 45/3/1 44/3/1
f 48/1/1 44/1/1 47/1/1
f 49/1/1 46/1/1 45/1/1
f 49/3/1 45/3/1 48/3/1
f 50/1/1 46/1/1 49/1/1
f 51/1/2 52/1/2 55/1/2
f 52/3/2 53/3/2 56/3/2
f 55/1/2 52/1/2 56/1/2
f 53/1/2 54/1/2 57/1/2
f 56/3/2 53/3/2 57/3/2
f 57/1/2 54/1/2 58/1/2
f 59/2/2 60/2/2 63/2/2
f 61/2/2 62/2/2 64/2/2
f 63/2/2 60/2/2 65/2/2
f 65/2/2 60/2/2 66/2/2
f 61/2/2 64/2/2 67/2/2
f 67/2/2 64/2/2 68/2/2
f 69/3/2 70/3/2 73/3/2
f 73/3/2 70/3/2 74/3/2
f 71/3/2 72/3/2 75/3/2
f 75/3/2 72/3/2 76/3/2
f 73/1/2 74/1/2 77/1/2
f 77/1/2 74/1/2 78/1/2
f 75/1/2 76/1/2 79/1/2
f 79/1/2 76/1/2 80/1/2
f 81/2/2 82/2/2 83/2/2
f 83/2/2 82/2/2 84/2/2
f 84/2/2 82/2/2 85/2/2
f 85/2/2 82/2/2 86/2/2
f 83/1/2 84/1/2 87/1/2
f 84/3/2 85/3/2 88/3/2
f 87/1/2 84/1/2 88/1/2
f 85/1/2 86/1/2 89/1/2
f 88/3/2 85/3/2 89/3/2
f 89/1/2 86/1/2 90/1/2
f 91/2/2 92/2/2 93/2/2
f 93/2/2 92/2/2 94/2/2
f 95/2/2 96/2/2 97/2/2
f 97/2/2 96/2/2 98/2/2
f 98/2/2 96/2/2 99/2/2
f 99/2/2 96/2/2 100/2/2
f 97/1/2 98/1/2 101/1/2
f 98/3/2 99/3/2 102/3/2
f 101/1/2 98/1/2 102/1/2
f 99/1/2 100/1/2 103/1/2
f 102/3/2 99/3/2 103/3/2
f 103/1/2 100/1/2 104/1/2
f 108/2/3 106/2/3 105/2/3
f 108/1/3 107/1/3 106/1/3
f 109/1/3 107/1/3 108/1/3
f 111/2/3 108/2/3 105/2/3
f 112/3/3 109/3/3 108/3/3
f 112/2/3 111/2/3 110/2/3
f 112/2/3 108/2/3 111/2/3
f 113/3/3 109/3/3 112/3/3
f 114/2/3 112/2/3 110/2/3
f 115/2/3 112/2/3 114/2/3
f 116/1/3 113/1/3 112/1/3
f 116/2/3 112/2/3 115/2/3
f 117/3/3 115/3/3 114/3/3
f 118/1/3 116/1/3 115/1/3
f 118/3/3 115/3/3 117/3/3
f 119/1/3 113/1/3 116/1/3
f 119/1/3 116/1/3 118/1/3
f 120/3/3 117/3/3 114/3/3
f 122/2/3 114/2/3 110/2/3
f 122/3/3 121/3/3 120/3/3
f 122/3/3 120/3/3 114/3/3
f 123/3/3 121/3/3 122/3/3
f 124/2/3 123/2/3 122/2/3
f 124/3/3 121/3/3 123/3/3
f 125/3/3 121/3/3 124/3/3
f 126/2/3 122/2/3 110/2/3
f 126/2/3 124/2/3 122/2/3
f 127/2/3 124/2/3 126/2/3
f 128/2/3 124/2/3 127/2/3
f 129/1/3 125/1/3 124/1/3
f 129/2/3 124/2/3 128/2/3
f 130/1/3 125/1/3 129/1/3
f 134/2/3 132/2/3 131/2/3
f 134/1/3 133/1/3 132/1/3
f 135/1/3 133/1/3 134/1/3
f 136/2/3 134/2/3 131/2/3
f 137/2/3 134/2/3 136/2/3
f 138/2/3 136/2/3 131/2/3
f 139/3/3 137/3/3 136/3/3
f 139/2/3 136/2/3 138/2/3
f 140/2/3 134/2/3 137/2/3
f 140/3/3 137/3/3 139/3/3
f 141/2/3 134/2/3 140/2/3
f 142/2/3 138/2/3 131/2/3
f 143/3/3 139/3/3 138/3/3
f 143/2/3 138/2/3 142/2/3
f 143/3/3 140/3/3 139/3/3
f 143/3/3 141/3/3 140/3/3
f 144/3/3 141/3/3 143/3/3
f 145/3/3 141/3/3 144/3/3
f 146/2/3 134/2/3 141/2/3
f 146/3/3 141/3/3 145/3/3
f 147/2/3 134/2/3 146/2/3
f 149/2/3 142/2/3 131/2/3
f 150/3/3 143/3/3 142/3/3
f 150/3/3 144/3/3 143/3/3
f 150/2/3 142/2/3 149/2/3
f 151/3/3 144/3/3 150/3/3
f 152/1/3 145/1/3 144/1/3
f 152/3/3 144/3/3 151/3/3
f 153/3/3 146/3/3 145/3/3
f 153/1/3 145/1/3 152/1/3
f 153/3/3 147/3/3 146/3/3
f 154/3/3 147/3/3 153/3/3
f 155/2/3 134/2/3 147/2/3
f 155/3/3 147/3/3 154/3/3
f 156/3/3 154/3/3 153/3/3
f 156/2/3 151/2/3 150/2/3
f 156/2/3 149/2/3 148/2/3
f 156/3/3 153/3/3 152/3/3
f 156/2/3 150/2/3 149/2/3
f 156/3/3 152/3/3 151/3/3
f 157/3/3 154/3/3 156/3/3
f 158/3/3 154/3/3 157/3/3
f 159/2/3 155/2/3 154/2/3
f 159/3/3 154/3/3 158/3/3
f 160/3/3 158/3/3 157/3/3
f 160/2/3 157/2/3 156/2/3
f 161/2/3 159/2/3 158/2/3
f 161/3/3 158/3/3 160/3/3
f 162/2/3 156/2/3 148/2/3
f 162/2/3 160/2/3 156/2/3
f 162/2/3 161/2/3 160/2/3
f 163/2/3 161/2/3 162/2/3
f 164/3/3 135/3/3 134/3/3
f 164/2/3 161/2/3 163/2/3
f 164/2/3 134/2/3 155/2/3
f 164/2/3 155/2/3 159/2/3
f 164/2/3 159/2/3 161/2/3
f 165/3/3 135/3/3 164/3/3
f 166/2/3 164/2/3 163/2/3
f 167/1/3 165/1/3 164/1/3
f 167/2/3 164/2/3 166/2/3
f 168/1/3 165/1/3 167/1/3
f 171/1/3 170/1/3 169/1/3
f 172/1/3 170/1/3 171/1/3
f 173/3/3 172/3/3 171/3/3
f 174/3/3 172/3/3 173/3/3
f 177/1/3 174/1/3 173/1/3
f 178/3/3 176/3/3 175/3/3
f 179/1/3 177/1/3 176/1/3
f 179/3/3 176/3/3 178/3/3
f 180/1/3 174/1/3 177/1/3
f 180/1/3 177/1/3 179/1/3
f 181/3/3 178/3/3 175/3/3
f 184/3/3 181/3/3 175/3/3
f 184/3/3 182/3/3 181/3/3
f 185/1/3 183/1/3 182/1/3
f 185/3/3 182/3/3 184/3/3
f 186/1/3 183/1/3 185/1/3
f 187/1/3 183/1/3 186/1/3
f 188/3/3 187/3/3 186/3/3
f 189/3/3 187/3/3 188/3/3
f 190/1/4 191/1/4 192/1/4
f 192/1/4 191/1/4 193/1/4
f 192/3/4 193/3/4 194/3/4
f 194/3/4 193/3/4 195/3/4
f 194/1/4 195/1/4 198/1/4
f 196/3/4 197/3/4 199/3/4
f 197/1/4 198/1/4 200/1/4
f 199/3/4 197/3/4 200/3/4
f 198/1/4 195/1/4 201/1/4
f 200/1/4 198/1/4 201/1/4
f 196/3/4 199/3/4 202/3/4
f 196/3/4 202/3/4 204/3/4
f 202/3/4 203/3/4 204/3/4
f 204/3/4 203/3/4 205/3/4
f 205/3/4 203/3/4 206/3/4
f 206/3/4 203/3/4 207/3/4
f 206/1/4 207/1/4 208/1/4
f 208/1/4 207/1/4 209/1/4
f 210/2/4 211/2/4 213/2/4
f 211/1/4 212/1/4 213/1/4
f 213/1/4 212/1/4 214/1/4
f 210/2/4 213/2/4 216/2/4
f 215/2/4 216/2/4 217/2/4
f 216/2/4 213/2/4 218/2/4
f 217/2/4 216/2/4 218/2/4
f 213/3/4 214/3/4 219/3/4
f 218/2/4 213/2/4 219/2/4
f 219/3/4 214/3/4 220/3/4
f 218/2/4 219/2/4 221/2/4
f 219/1/4 220/1/4 222/1/4
f 221/2/4 219/2/4 222/2/4
f 222/1/4 220/1/4 223/1/4
f 224/2/4 225/2/4 228/2/4
f 225/1/4 226/1/4 229/1/4
f 228/2/4 225/2/4 229/2/4
f 229/1/4 226/1/4 230/1/4
f 227/2/4 228/2/4 231/2/4
f 228/2/4 229/2/4 231/2/4
f 229/3/4 230/3/4 231/3/4
f 231/3/4 230/3/4 232/3/4
f 227/2/4 231/2/4 233/2/4
f 233/2/4 231/2/4 234/2/4
f 231/1/4 232/1/4 235/1/4
f 234/2/4 231/2/4 235/2/4
f 233/3/4 234/3/4 236/3/4
f 234/1/4 235/1/4 237/1/4
f 236/3/4 234/3/4 237/3/4
f 235/1/4 232/1/4 238/1/4
f 237/1/4 235/1/4 238/1/4
f 233/3/4 236/3/4 239/3/4
f 227/2/4 233/2/4 242/2/4
f 233/3/4 239/3/4 242/3/4
f 239/3/4 240/3/4 242/3/4
f 240/1/4 241/1/4 243/1/4
f 242/3/4 240/3/4 243/3/4
f 242/2/4 243/2/4 244/2/4
f 243/1/4 241/1/4 244/1/4
f 244/1/4 241/1/4 245/1/4
f 227/2/4 242/2/4 246/2/4
f 242/2/4 244/2/4 246/2/4
f 246/2/4 244/2/4 247/2/4
f 244/3/4 245/3/4 248/3/4
f 247/2/4 244/2/4 248/2/4
f 248/3/4 245/3/4 249/3/4
f 247/2/4 248/2/4 250/2/4
f 248/1/4 249/1/4 251/1/4
f 250/2/4 248/2/4 251/2/4
f 251/1/4 249/1/4 252/1/4
f 255/2/5 254/2/5 253/2/5
f 256/2/5 254/2/5 255/2/5
f 261/2/5 258/2/5 257/2/5
f 262/2/5 258/2/5 261/2/5
f 263/2/5 260/2/5 259/2/5
f 264/2/5 260/2/5 263/2/5
f 265/2/6 266/2/6 267/2/6
f 267/2/6 266/2/6 268/2/6
f 269/2/6 270/2/6 271/2/6
f 271/2/6 270/2/6 272/2/6
f 273/3/6 274/3/6 275/3/6
f 275/3/6 274/3/6 276/3/6
f 277/3/6 278/3/6 279/3/6
f 279/3/6 278/3/6 280/3/6
f 281/2/6 282/2/6 288/2/6
f 282/2/6 283/2/6 288/2/6
f 283/2/6 284/2/6 288/2/6
f 288/2/6 284/2/6 289/2/6
f 286/2/6 287/2/6 290/2/6
f 285/2/6 286/2/6 290/2/6
f 290/2/6 287/2/6 291/2/6
f 291/2/6 287/2/6 292/2/6
f 281/2/6 288/2/6 293/2/6
f 293/2/6 288/2/6 294/2/6
f 294/2/6 288/2/6 295/2/6
f 291/2/6 292/2/6 298/2/6
f 298/2/6 292/2/6 299/2/6
f 295/2/6 296/2/6 300/2/6
f 294/2/6 295/2/6 300/2/6
f 300/2/6 296/2/6 301/2/6
f 301/2/6 296/2/6 302/2/6
f 302/2/6 296/2/6 303/2/6
f 298/2/6 299/2/6 304/2/6
f 297/2/6 298/2/6 304/2/6
f 304/2/6 299/2/6 305/2/6
f 305/2/6 299/2/6 306/2/6
f 307/1/6 308/1/6 314/1/6
f 308/3/6 309/3/6 315/3/6
f 314/1/6 308/1/6 315/1/6
f 309/1/6 310/1/6 316/1/6
f 315/3/6 309/3/6 316/3/6
f 316/1/6 310/1/6 317/1/6
f 311/3/6 312/3/6 318/3/6
f 312/1/6 313/1/6 319/1/6
f 318/3/6 312/3/6 319/3/6
f 319/1/6 313/1/6 320/1/6
f 320/1/6 313/1/6 321/1/6
f 321/1/6 313/1/6 322/1/6
f 307/1/6 314/1/6 323/1/6
f 323/1/6 314/1/6 324/1/6
f 323/3/6 324/3/6 325/3/6
f 325/3/6 324/3/6 326/3/6
f 321/3/6 322/3/6 327/3/6
f 327/3/6 322/3/6 328/3/6
f 325/1/6 326/1/6 329/1/6
f 327/1/6 328/1/6 335/1/6
f 325/1/6 329/1/6 336/1/6
f 329/1/6 330/1/6 336/1/6
f 330/3/6 331/3/6 337/3/6
f 336/1/6 330/1/6 337/1/6
f 331/1/6 332/1/6 338/1/6
f 337/3/6 331/3/6 338/3/6
f 338/1/6 332/1/6 339/1/6
f 333/1/6 334/1/6 340/1/6
f 334/3/6 335/3/6 341/3/6
f 340/1/6 334/1/6 341/1/6
f 335/1/6 328/1/6 342/1/6
f 341/3/6 335/3/6 342/3/6
f 342/1/6 328/1/6 343/1/6
f 344/1/6 345/1/6 348/1/6
f 345/3/6 346/3/6 348/3/6
f 346/1/6 347/1/6 349/1/6
f 348/3/6 346/3/6 349/3/6
f 349/1/6 347/1/6 350/1/6
f 348/2/6 349/2/6 351/2/6
f 350/1/6 347/1/6 351/1/6
f 349/2/6 350/2/6 351/2/6
f 351/1/6 347/1/6 352/1/6
f 344/1/6 348/1/6 353/1/6
f 348/2/6 351/2/6 354/2/6
f 353/1/6 348/1/6 354/1/6
f 353/3/6 354/3/6 355/3/6
f 354/2/6 351/2/6 356/2/6
f 355/3/6 354/3/6 356/3/6
f 351/3/6 352/3/6 357/3/6
f 356/2/6 351/2/6 357/2/6
f 357/3/6 352/3/6 358/3/6
f 355/1/6 356/1/6 359/1/6
f 356/2/6 357/2/6 359/2/6
f 359/2/6 357/2/6 360/2/6
f 360/2/6 357/2/6 361/2/6
f 357/1/6 358/1/6 362/1/6
f 361/2/6 357/2/6 362/2/6
f 355/1/6 359/1/6 363/1/6
f 359/1/6 360/1/6 363/1/6
f 360/3/6 361/3/6 364/3/6
f 363/1/6 360/1/6 364/1/6
f 361/1/6 362/1/6 365/1/6
f 364/3/6 361/3/6 365/3/6
f 362/1/6 358/1/6 366/1/6
f 365/1/6 362/1/6 366/1/6
