# MagicaVoxel @ Ephtracy

# group
o 

# material
mtllib model.mtl
usemtl palette

# normals
vn 0 0 1
vn 0 0 -1
vn 1 0 0
vn -1 0 0
vn 0 -1 0
vn 0 1 0

# texcoords
vt 0.00585938 0.5
vt 0.00976563 0.5
vt 0.0136719 0.5
vt 0.0214844 0.5

# verts
v 0.2 0 2
v -0.2 0 2
v 0.2 0.6 2
v -0.2 0.6 2
v 0.4 0 1.6
v 0.2 0 1.6
v -0.2 0 1.6
v -0.4 0 1.6
v 0.4 0.2 1.6
v 0.2 0.2 1.6
v -0.2 0.2 1.6
v -0.4 0.2 1.6
v 0.4 0.4 1.6
v 0.2 0.4 1.6
v -0.2 0.4 1.6
v -0.4 0.4 1.6
v 1 0 1.4
v 0.4 0 1.4
v -0.4 0 1.4
v -1 0 1.4
v 0.8 0.2 1.4
v 0.4 0.2 1.4
v -0.4 0.2 1.4
v -0.8 0.2 1.4
v 0.8 0.4 1.4
v 0.4 0.4 1.4
v -0.4 0.4 1.4
v -0.8 0.4 1.4
v 1 1.4 1.4
v 0.8 1.4 1.4
v -0.8 1.4 1.4
v -1 1.4 1.4
v 1.1 0 1.2
v 1 0 1.2
v -1 0 1.2
v -1.1 0 1.2
v 1.1 0.2 1.2
v 1 0.2 1.2
v -1 0.2 1.2
v -1.1 0.2 1.2
v 0.8 0.4 1.2
v -0.8 0.4 1.2
v 1.1 1.2 1.2
v 1 1.2 1.2
v 0.8 1.2 1.2
v -0.8 1.2 1.2
v -1 1.2 1.2
v -1.1 1.2 1.2
v 1 1.4 0.9
v 0.8 1.4 0.9
v -0.8 1.4 0.9
v -1 1.4 0.9
v 1 2 0.9
v 0.8 2 0.9
v -0.8 2 0.9
v -1 2 0.9
v 1.1 1.2 0.7
v 1 1.2 0.7
v -1 1.2 0.7
v -1.1 1.2 0.7
v 1.1 1.8 0.7
v 1 1.8 0.7
v -1 1.8 0.7
v -1.1 1.8 0.7
v 0.2 0.4 -1.7
v -0.2 0.4 -1.7
v 0.2 0.6 -1.7
v -0.2 0.6 -1.7
v 0.2 0.4 1.7
v -0.2 0.4 1.7
v 0.2 0.6 1.7
v -0.2 0.6 1.7
v 1.1 1.2 -0.7
v 1 1.2 -0.7
v -1 1.2 -0.7
v -1.1 1.2 -0.7
v 1.1 1.8 -0.7
v 1 1.8 -0.7
v -1 1.8 -0.7
v -1.1 1.8 -0.7
v 1 1.4 -0.9
v 0.8 1.4 -0.9
v -0.8 1.4 -0.9
v -1 1.4 -0.9
v 1 2 -0.9
v 0.8 2 -0.9
v -0.8 2 -0.9
v -1 2 -0.9
v 1.1 0 -1.2
v 1 0 -1.2
v -1 0 -1.2
v -1.1 0 -1.2
v 1.1 0.2 -1.2
v 1 0.2 -1.2
v -1 0.2 -1.2
v -1.1 0.2 -1.2
v 0.8 0.4 -1.2
v -0.8 0.4 -1.2
v 1.1 1.2 -1.2
v 1 1.2 -1.2
v 0.8 1.2 -1.2
v -0.8 1.2 -1.2
v -1 1.2 -1.2
v -1.1 1.2 -1.2
v 1 0 -1.4
v 0.4 0 -1.4
v -0.4 0 -1.4
v -1 0 -1.4
v 0.8 0.2 -1.4
v 0.4 0.2 -1.4
v -0.4 0.2 -1.4
v -0.8 0.2 -1.4
v 0.8 0.4 -1.4
v 0.4 0.4 -1.4
v -0.4 0.4 -1.4
v -0.8 0.4 -1.4
v 1 1.4 -1.4
v 0.8 1.4 -1.4
v -0.8 1.4 -1.4
v -1 1.4 -1.4
v 0.4 0 -1.6
v 0.2 0 -1.6
v -0.2 0 -1.6
v -0.4 0 -1.6
v 0.4 0.2 -1.6
v 0.2 0.2 -1.6
v -0.2 0.2 -1.6
v -0.4 0.2 -1.6
v 0.4 0.4 -1.6
v 0.2 0.4 -1.6
v -0.2 0.4 -1.6
v -0.4 0.4 -1.6
v 0.2 0 -2
v -0.2 0 -2
v 0.2 0.6 -2
v -0.2 0.6 -2
v 1.1 0 1.2
v 1.1 0.2 1.2
v 1.1 1.2 1.2
v 1.1 0.9 0.8
v 1.1 1 0.8
v 1.1 0.8 0.7
v 1.1 0.9 0.7
v 1.1 1 0.7
v 1.1 1.1 0.7
v 1.1 1.2 0.7
v 1.1 1.8 0.7
v 1.1 0.7 0.6
v 1.1 0.8 0.6
v 1.1 0.9 0.6
v 1.1 1 0.6
v 1.1 1.1 0.6
v 1.1 1.2 0.6
v 1.1 0.6 0.5
v 1.1 0.7 0.5
v 1.1 0.8 0.5
v 1.1 0.9 0.5
v 1.1 1 0.5
v 1.1 1.1 0.5
v 1.1 1.2 0.5
v 1.1 1.3 0.5
v 1.1 0.5 0.4
v 1.1 0.6 0.4
v 1.1 0.7 0.4
v 1.1 0.8 0.4
v 1.1 1.1 0.4
v 1.1 1.2 0.4
v 1.1 1.3 0.4
v 1.1 1.4 0.4
v 1.1 0.5 0.3
v 1.1 0.6 0.3
v 1.1 0.7 0.3
v 1.1 0.8 0.3
v 1.1 1.1 0.3
v 1.1 1.2 0.3
v 1.1 1.3 0.3
v 1.1 1.4 0.3
v 1.1 0.6 0.2
v 1.1 0.7 0.2
v 1.1 0.8 0.2
v 1.1 0.9 0.2
v 1.1 1 0.2
v 1.1 1.1 0.2
v 1.1 1.2 0.2
v 1.1 1.3 0.2
v 1.1 0.7 0.0999999
v 1.1 0.8 0.0999999
v 1.1 0.9 0.0999999
v 1.1 1 0.0999999
v 1.1 1.1 0.0999999
v 1.1 1.2 0.0999999
v 1.1 0.8 -2.38419e-07
v 1.1 0.9 -2.38419e-07
v 1.1 1 -2.38419e-07
v 1.1 1.1 -2.38419e-07
v 1.1 0.9 -0.1
v 1.1 1 -0.1
v 1.1 1.2 -0.7
v 1.1 1.8 -0.7
v 1.1 0 -1.2
v 1.1 0.2 -1.2
v 1.1 1.2 -1.2
v 1 0 1.4
v 1 1.4 1.4
v 1 0 1.2
v 1 0.2 1.2
v 1 1.2 1.2
v 1 1.4 0.9
v 1 2 0.9
v 1 1.2 0.7
v 1 1.8 0.7
v 1 1.2 -0.7
v 1 1.8 -0.7
v 1 1.4 -0.9
v 1 2 -0.9
v 1 0 -1.2
v 1 0.2 -1.2
v 1 1.2 -1.2
v 1 0 -1.4
v 1 1.4 -1.4
v 0.4 0 1.6
v 0.4 0.2 1.6
v 0.4 0.4 1.6
v 0.4 0 1.4
v 0.4 0.2 1.4
v 0.4 0.4 1.4
v 0.4 0 -1.4
v 0.4 0.2 -1.4
v 0.4 0.4 -1.4
v 0.4 0 -1.6
v 0.4 0.2 -1.6
v 0.4 0.4 -1.6
v 0.2 0 2
v 0.2 0.6 2
v 0.2 0.2 1.8
v 0.2 0.4 1.8
v 0.2 0.4 1.7
v 0.2 0.6 1.7
v 0.2 0 1.6
v 0.2 0.2 1.6
v 0.2 0.4 1.6
v 0.2 0 -1.6
v 0.2 0.2 -1.6
v 0.2 0.4 -1.6
v 0.2 0.4 -1.7
v 0.2 0.6 -1.7
v 0.2 0.2 -1.8
v 0.2 0.4 -1.8
v 0.2 0 -2
v 0.2 0.6 -2
v -0.8 0.4 1.4
v -0.8 1.4 1.4
v -0.8 0.4 1.2
v -0.8 1.2 1.2
v -0.8 1.4 0.9
v -0.8 2 0.9
v -0.8 1.2 0.7
v -0.8 1.8 0.7
v -0.8 1.2 -0.7
v -0.8 1.8 -0.7
v -0.8 1.4 -0.9
v -0.8 2 -0.9
v -0.8 0.4 -1.2
v -0.8 1.2 -1.2
v -0.8 0.4 -1.4
v -0.8 1.4 -1.4
v 0.8 0.4 1.4
v 0.8 1.4 1.4
v 0.8 0.4 1.2
v 0.8 1.2 1.2
v 0.8 1.4 0.9
v 0.8 2 0.9
v 0.8 1.2 0.7
v 0.8 1.8 0.7
v 0.8 1.2 -0.7
v 0.8 1.8 -0.7
v 0.8 1.4 -0.9
v 0.8 2 -0.9
v 0.8 0.4 -1.2
v 0.8 1.2 -1.2
v 0.8 0.4 -1.4
v 0.8 1.4 -1.4
v -0.2 0 2
v -0.2 0.6 2
v -0.2 0.2 1.8
v -0.2 0.4 1.8
v -0.2 0.4 1.7
v -0.2 0.6 1.7
v -0.2 0 1.6
v -0.2 0.2 1.6
v -0.2 0.4 1.6
v -0.2 0 -1.6
v -0.2 0.2 -1.6
v -0.2 0.4 -1.6
v -0.2 0.4 -1.7
v -0.2 0.6 -1.7
v -0.2 0.2 -1.8
v -0.2 0.4 -1.8
v -0.2 0 -2
v -0.2 0.6 -2
v -0.4 0 1.6
v -0.4 0.2 1.6
v -0.4 0.4 1.6
v -0.4 0 1.4
v -0.4 0.2 1.4
v -0.4 0.4 1.4
v -0.4 0 -1.4
v -0.4 0.2 -1.4
v -0.4 0.4 -1.4
v -0.4 0 -1.6
v -0.4 0.2 -1.6
v -0.4 0.4 -1.6
v -1 0 1.4
v -1 1.4 1.4
v -1 0 1.2
v -1 0.2 1.2
v -1 1.2 1.2
v -1 1.4 0.9
v -1 2 0.9
v -1 1.2 0.7
v -1 1.8 0.7
v -1 1.2 -0.7
v -1 1.8 -0.7
v -1 1.4 -0.9
v -1 2 -0.9
v -1 0 -1.2
v -1 0.2 -1.2
v -1 1.2 -1.2
v -1 0 -1.4
v -1 1.4 -1.4
v -1.1 0 1.2
v -1.1 0.2 1.2
v -1.1 1.2 1.2
v -1.1 1.2 0.7
v -1.1 1.8 0.7
v -1.1 1.2 -0.7
v -1.1 1.8 -0.7
v -1.1 0 -1.2
v -1.1 0.2 -1.2
v -1.1 1.2 -1.2
v 1.1 0 1.2
v 1.1 0 -1.2
v 1 0 1.4
v 1 0 1.2
v 1 0 -1.2
v 1 0 -1.4
v 0.4 0 1.6
v 0.4 0 1.4
v 0.4 0 -1.4
v 0.4 0 -1.6
v 0.2 0 2
v 0.2 0 1.6
v 0.2 0 -1.6
v 0.2 0 -2
v -0.2 0 2
v -0.2 0 1.6
v -0.2 0 -1.6
v -0.2 0 -2
v -0.4 0 1.6
v -0.4 0 1.4
v -0.4 0 -1.4
v -0.4 0 -1.6
v -1 0 1.4
v -1 0 1.2
v -1 0 -1.2
v -1 0 -1.4
v -1.1 0 1.2
v -1.1 0 -1.2
v 0.8 0.4 1.4
v 0.8 0.4 1.2
v 0.8 0.4 -1.2
v 0.8 0.4 -1.4
v 0.4 0.4 1.6
v 0.4 0.4 1.4
v 0.4 0.4 -1.4
v 0.4 0.4 -1.6
v 0.2 0.4 1.7
v 0.2 0.4 1.6
v 0.2 0.4 -1.6
v 0.2 0.4 -1.7
v -0.2 0.4 1.7
v -0.2 0.4 1.6
v -0.2 0.4 -1.6
v -0.2 0.4 -1.7
v -0.4 0.4 1.6
v -0.4 0.4 1.4
v -0.4 0.4 -1.4
v -0.4 0.4 -1.6
v -0.8 0.4 1.4
v -0.8 0.4 1.2
v -0.8 0.4 -1.2
v -0.8 0.4 -1.4
v 0.2 0.6 2
v 0.2 0.6 1.7
v 0.2 0.6 -1.7
v 0.2 0.6 -2
v -0.2 0.6 2
v -0.2 0.6 1.7
v -0.2 0.6 -1.7
v -0.2 0.6 -2
v 1.1 1.2 1.2
v 1.1 1.2 0.7
v 1.1 1.2 -0.7
v 1.1 1.2 -1.2
v 1 1.2 1.2
v 1 1.2 0.7
v 1 1.2 -0.7
v 1 1.2 -1.2
v 0.8 1.2 1.2
v 0.8 1.2 0.7
v 0.8 1.2 -0.7
v 0.8 1.2 -1.2
v -0.8 1.2 1.2
v -0.8 1.2 0.7
v -0.8 1.2 -0.7
v -0.8 1.2 -1.2
v -1 1.2 1.2
v -1 1.2 0.7
v -1 1.2 -0.7
v -1 1.2 -1.2
v -1.1 1.2 1.2
v -1.1 1.2 0.7
v -1.1 1.2 -0.7
v -1.1 1.2 -1.2
v 1 1.4 1.4
v 1 1.4 0.9
v 1 1.4 -0.9
v 1 1.4 -1.4
v 0.8 1.4 1.4
v 0.8 1.4 0.9
v 0.8 1.4 -0.9
v 0.8 1.4 -1.4
v -0.8 1.4 1.4
v -0.8 1.4 0.9
v -0.8 1.4 -0.9
v -0.8 1.4 -1.4
v -1 1.4 1.4
v -1 1.4 0.9
v -1 1.4 -0.9
v -1 1.4 -1.4
v 1.1 1.8 0.7
v 1.1 1.8 -0.7
v 1 1.8 0.7
v 1 1.8 -0.7
v -1 1.8 0.7
v -1 1.8 -0.7
v -1.1 1.8 0.7
v -1.1 1.8 -0.7
v 1 2 0.9
v 1 2 -0.9
v 0.8 2 0.9
v 0.8 2 -0.9
v -0.8 2 0.9
v -0.8 2 -0.9
v -1 2 0.9
v -1 2 -0.9

# faces
f 3/2/1 2/2/1 1/2/1
f 4/2/1 2/2/1 3/2/1
f 9/2/1 6/2/1 5/2/1
f 10/2/1 6/2/1 9/2/1
f 11/2/1 8/2/1 7/2/1
f 12/2/1 8/2/1 11/2/1
f 13/1/1 10/1/1 9/1/1
f 14/1/1 10/1/1 13/1/1
f 15/1/1 12/1/1 11/1/1
f 16/1/1 12/1/1 15/1/1
f 21/2/1 18/2/1 17/2/1
f 22/2/1 18/2/1 21/2/1
f 23/2/1 20/2/1 19/2/1
f 24/2/1 20/2/1 23/2/1
f 25/1/1 22/1/1 21/1/1
f 25/2/1 21/2/1 17/2/1
f 26/1/1 22/1/1 25/1/1
f 27/1/1 24/1/1 23/1/1
f 28/2/1 20/2/1 24/2/1
f 28/1/1 24/1/1 27/1/1
f 29/2/1 25/2/1 17/2/1
f 30/2/1 25/2/1 29/2/1
f 31/2/1 20/2/1 28/2/1
f 32/2/1 20/2/1 31/2/1
f 37/2/1 34/2/1 33/2/1
f 38/2/1 34/2/1 37/2/1
f 39/2/1 36/2/1 35/2/1
f 40/2/1 36/2/1 39/2/1
f 43/1/1 38/1/1 37/1/1
f 44/1/1 38/1/1 43/1/1
f 45/1/1 42/1/1 41/1/1
f 46/1/1 42/1/1 45/1/1
f 47/1/1 40/1/1 39/1/1
f 48/1/1 40/1/1 47/1/1
f 53/2/1 50/2/1 49/2/1
f 54/2/1 50/2/1 53/2/1
f 55/2/1 52/2/1 51/2/1
f 56/2/1 52/2/1 55/2/1
f 61/1/1 58/1/1 57/1/1
f 62/1/1 58/1/1 61/1/1
f 63/1/1 60/1/1 59/1/1
f 64/1/1 60/1/1 63/1/1
f 67/2/1 66/2/1 65/2/1
f 68/2/1 66/2/1 67/2/1
f 69/2/2 70/2/2 71/2/2
f 71/2/2 70/2/2 72/2/2
f 73/1/2 74/1/2 77/1/2
f 77/1/2 74/1/2 78/1/2
f 75/1/2 76/1/2 79/1/2
f 79/1/2 76/1/2 80/1/2
f 81/2/2 82/2/2 85/2/2
f 85/2/2 82/2/2 86/2/2
f 83/2/2 84/2/2 87/2/2
f 87/2/2 84/2/2 88/2/2
f 89/2/2 90/2/2 93/2/2
f 93/2/2 90/2/2 94/2/2
f 91/2/2 92/2/2 95/2/2
f 95/2/2 92/2/2 96/2/2
f 93/1/2 94/1/2 99/1/2
f 99/1/2 94/1/2 100/1/2
f 97/1/2 98/1/2 101/1/2
f 101/1/2 98/1/2 102/1/2
f 95/1/2 96/1/2 103/1/2
f 103/1/2 96/1/2 104/1/2
f 105/2/2 106/2/2 109/2/2
f 109/2/2 106/2/2 110/2/2
f 107/2/2 108/2/2 111/2/2
f 111/2/2 108/2/2 112/2/2
f 109/1/2 110/1/2 113/1/2
f 105/2/2 109/2/2 113/2/2
f 113/1/2 110/1/2 114/1/2
f 111/1/2 112/1/2 115/1/2
f 112/2/2 108/2/2 116/2/2
f 115/1/2 112/1/2 116/1/2
f 105/2/2 113/2/2 117/2/2
f 117/2/2 113/2/2 118/2/2
f 116/2/2 108/2/2 119/2/2
f 119/2/2 108/2/2 120/2/2
f 121/2/2 122/2/2 125/2/2
f 125/2/2 122/2/2 126/2/2
f 123/2/2 124/2/2 127/2/2
f 127/2/2 124/2/2 128/2/2
f 125/1/2 126/1/2 129/1/2
f 129/1/2 126/1/2 130/1/2
f 127/1/2 128/1/2 131/1/2
f 131/1/2 128/1/2 132/1/2
f 133/2/2 134/2/2 135/2/2
f 135/2/2 134/2/2 136/2/2
f 140/1/3 139/1/3 138/1/3
f 141/1/3 139/1/3 140/1/3
f 142/1/3 140/1/3 138/1/3
f 143/4/3 141/4/3 140/4/3
f 143/1/3 140/1/3 142/1/3
f 144/1/3 139/1/3 141/1/3
f 144/4/3 141/4/3 143/4/3
f 145/1/3 139/1/3 144/1/3
f 146/1/3 139/1/3 145/1/3
f 148/1/3 142/1/3 138/1/3
f 149/3/3 143/3/3 142/3/3
f 149/1/3 142/1/3 148/1/3
f 150/4/3 144/4/3 143/4/3
f 150/3/3 143/3/3 149/3/3
f 151/3/3 145/3/3 144/3/3
f 151/4/3 144/4/3 150/4/3
f 152/1/3 147/1/3 146/1/3
f 152/3/3 145/3/3 151/3/3
f 152/1/3 146/1/3 145/1/3
f 153/1/3 147/1/3 152/1/3
f 154/1/3 148/1/3 138/1/3
f 155/4/3 149/4/3 148/4/3
f 155/1/3 148/1/3 154/1/3
f 156/1/3 150/1/3 149/1/3
f 156/4/3 149/4/3 155/4/3
f 157/4/3 151/4/3 150/4/3
f 157/1/3 150/1/3 156/1/3
f 158/1/3 152/1/3 151/1/3
f 158/4/3 151/4/3 157/4/3
f 159/4/3 153/4/3 152/4/3
f 159/1/3 152/1/3 158/1/3
f 160/1/3 147/1/3 153/1/3
f 160/4/3 153/4/3 159/4/3
f 161/1/3 147/1/3 160/1/3
f 162/1/3 154/1/3 138/1/3
f 163/3/3 155/3/3 154/3/3
f 163/1/3 154/1/3 162/1/3
f 164/1/3 156/1/3 155/1/3
f 164/3/3 155/3/3 163/3/3
f 165/4/3 159/4/3 158/4/3
f 165/1/3 156/1/3 164/1/3
f 165/4/3 157/4/3 156/4/3
f 165/4/3 158/4/3 157/4/3
f 166/1/3 160/1/3 159/1/3
f 166/4/3 159/4/3 165/4/3
f 167/3/3 161/3/3 160/3/3
f 167/1/3 160/1/3 166/1/3
f 168/1/3 147/1/3 161/1/3
f 168/3/3 161/3/3 167/3/3
f 169/1/3 147/1/3 168/1/3
f 170/4/3 164/4/3 163/4/3
f 170/4/3 163/4/3 162/4/3
f 170/4/3 169/4/3 168/4/3
f 170/4/3 168/4/3 167/4/3
f 170/4/3 165/4/3 164/4/3
f 170/4/3 166/4/3 165/4/3
f 170/1/3 162/1/3 138/1/3
f 170/4/3 167/4/3 166/4/3
f 171/4/3 169/4/3 170/4/3
f 172/4/3 169/4/3 171/4/3
f 173/4/3 169/4/3 172/4/3
f 174/4/3 169/4/3 173/4/3
f 175/4/3 169/4/3 174/4/3
f 176/4/3 169/4/3 175/4/3
f 177/1/3 147/1/3 169/1/3
f 177/4/3 169/4/3 176/4/3
f 178/1/3 171/1/3 170/1/3
f 178/3/3 172/3/3 171/3/3
f 179/1/3 173/1/3 172/1/3
f 179/3/3 172/3/3 178/3/3
f 180/4/3 174/4/3 173/4/3
f 180/1/3 173/1/3 179/1/3
f 181/4/3 174/4/3 180/4/3
f 182/4/3 174/4/3 181/4/3
f 183/1/3 175/1/3 174/1/3
f 183/4/3 174/4/3 182/4/3
f 184/3/3 176/3/3 175/3/3
f 184/1/3 175/1/3 183/1/3
f 185/1/3 177/1/3 176/1/3
f 185/3/3 176/3/3 184/3/3
f 186/1/3 179/1/3 178/1/3
f 186/4/3 180/4/3 179/4/3
f 187/1/3 181/1/3 180/1/3
f 187/4/3 180/4/3 186/4/3
f 188/4/3 182/4/3 181/4/3
f 188/1/3 181/1/3 187/1/3
f 189/1/3 183/1/3 182/1/3
f 189/4/3 182/4/3 188/4/3
f 190/4/3 184/4/3 183/4/3
f 190/1/3 183/1/3 189/1/3
f 191/1/3 185/1/3 184/1/3
f 191/4/3 184/4/3 190/4/3
f 192/3/3 188/3/3 187/3/3
f 192/1/3 187/1/3 186/1/3
f 193/4/3 189/4/3 188/4/3
f 193/3/3 188/3/3 192/3/3
f 194/3/3 190/3/3 189/3/3
f 194/4/3 189/4/3 193/4/3
f 195/1/3 191/1/3 190/1/3
f 195/3/3 190/3/3 194/3/3
f 196/4/3 194/4/3 193/4/3
f 196/1/3 193/1/3 192/1/3
f 197/1/3 195/1/3 194/1/3
f 197/4/3 194/4/3 196/4/3
f 198/1/3 185/1/3 191/1/3
f 198/1/3 195/1/3 197/1/3
f 198/1/3 197/1/3 196/1/3
f 198/1/3 191/1/3 195/1/3
f 199/1/3 147/1/3 177/1/3
f 199/1/3 185/1/3 198/1/3
f 199/1/3 177/1/3 185/1/3
f 200/2/3 138/2/3 137/2/3
f 201/1/3 186/1/3 178/1/3
f 201/2/3 138/2/3 200/2/3
f 201/1/3 170/1/3 138/1/3
f 201/1/3 196/1/3 192/1/3
f 201/1/3 178/1/3 170/1/3
f 201/1/3 192/1/3 186/1/3
f 201/1/3 198/1/3 196/1/3
f 202/1/3 198/1/3 201/1/3
f 205/2/3 204/2/3 203/2/3
f 206/2/3 204/2/3 205/2/3
f 207/2/3 204/2/3 206/2/3
f 208/2/3 204/2/3 207/2/3
f 210/2/3 208/2/3 207/2/3
f 210/2/3 209/2/3 208/2/3
f 211/2/3 209/2/3 210/2/3
f 213/2/3 209/2/3 211/2/3
f 214/2/3 213/2/3 212/2/3
f 215/2/3 209/2/3 213/2/3
f 215/2/3 213/2/3 214/2/3
f 218/2/3 214/2/3 212/2/3
f 219/2/3 217/2/3 216/2/3
f 219/2/3 218/2/3 217/2/3
f 220/2/3 214/2/3 218/2/3
f 220/2/3 218/2/3 219/2/3
f 224/2/3 222/2/3 221/2/3
f 225/1/3 223/1/3 222/1/3
f 225/2/3 222/2/3 224/2/3
f 226/1/3 223/1/3 225/1/3
f 230/2/3 228/2/3 227/2/3
f 231/1/3 229/1/3 228/1/3
f 231/2/3 228/2/3 230/2/3
f 232/1/3 229/1/3 231/1/3
f 235/2/3 234/2/3 233/2/3
f 236/2/3 234/2/3 235/2/3
f 237/1/3 236/1/3 235/1/3
f 237/2/3 234/2/3 236/2/3
f 238/2/3 234/2/3 237/2/3
f 239/2/3 235/2/3 233/2/3
f 240/1/3 237/1/3 235/1/3
f 240/2/3 235/2/3 239/2/3
f 241/1/3 237/1/3 240/1/3
f 245/1/3 244/1/3 243/1/3
f 247/1/3 245/1/3 243/1/3
f 247/2/3 243/2/3 242/2/3
f 248/2/3 246/2/3 245/2/3
f 248/1/3 245/1/3 247/1/3
f 249/2/3 247/2/3 242/2/3
f 249/2/3 248/2/3 247/2/3
f 250/2/3 246/2/3 248/2/3
f 250/2/3 248/2/3 249/2/3
f 253/2/3 252/2/3 251/2/3
f 254/2/3 252/2/3 253/2/3
f 255/2/3 252/2/3 254/2/3
f 257/2/3 255/2/3 254/2/3
f 257/2/3 256/2/3 255/2/3
f 258/2/3 256/2/3 257/2/3
f 259/1/3 258/1/3 257/1/3
f 260/2/3 256/2/3 258/2/3
f 260/1/3 258/1/3 259/1/3
f 261/2/3 260/2/3 259/2/3
f 262/2/3 256/2/3 260/2/3
f 262/2/3 260/2/3 261/2/3
f 264/2/3 261/2/3 259/2/3
f 265/2/3 264/2/3 263/2/3
f 266/2/3 261/2/3 264/2/3
f 266/2/3 264/2/3 265/2/3
f 267/2/4 268/2/4 269/2/4
f 269/2/4 268/2/4 270/2/4
f 270/2/4 268/2/4 271/2/4
f 270/2/4 271/2/4 273/2/4
f 271/2/4 272/2/4 273/2/4
f 273/2/4 272/2/4 274/2/4
f 273/1/4 274/1/4 275/1/4
f 274/2/4 272/2/4 276/2/4
f 275/1/4 274/1/4 276/1/4
f 275/2/4 276/2/4 277/2/4
f 276/2/4 272/2/4 278/2/4
f 277/2/4 276/2/4 278/2/4
f 275/2/4 277/2/4 280/2/4
f 279/2/4 280/2/4 281/2/4
f 280/2/4 277/2/4 282/2/4
f 281/2/4 280/2/4 282/2/4
f 283/2/4 284/2/4 285/2/4
f 285/2/4 284/2/4 286/2/4
f 285/1/4 286/1/4 287/1/4
f 286/2/4 284/2/4 287/2/4
f 287/2/4 284/2/4 288/2/4
f 283/2/4 285/2/4 289/2/4
f 285/1/4 287/1/4 290/1/4
f 289/2/4 285/2/4 290/2/4
f 290/1/4 287/1/4 291/1/4
f 293/1/4 294/1/4 295/1/4
f 293/1/4 295/1/4 297/1/4
f 292/2/4 293/2/4 297/2/4
f 295/2/4 296/2/4 298/2/4
f 297/1/4 295/1/4 298/1/4
f 292/2/4 297/2/4 299/2/4
f 297/2/4 298/2/4 299/2/4
f 298/2/4 296/2/4 300/2/4
f 299/2/4 298/2/4 300/2/4
f 301/2/4 302/2/4 304/2/4
f 302/1/4 303/1/4 305/1/4
f 304/2/4 302/2/4 305/2/4
f 305/1/4 303/1/4 306/1/4
f 307/2/4 308/2/4 310/2/4
f 308/1/4 309/1/4 311/1/4
f 310/2/4 308/2/4 311/2/4
f 311/1/4 309/1/4 312/1/4
f 313/2/4 314/2/4 315/2/4
f 315/2/4 314/2/4 316/2/4
f 316/2/4 314/2/4 317/2/4
f 317/2/4 314/2/4 318/2/4
f 317/2/4 318/2/4 320/2/4
f 318/2/4 319/2/4 320/2/4
f 320/2/4 319/2/4 321/2/4
f 321/2/4 319/2/4 323/2/4
f 322/2/4 323/2/4 324/2/4
f 323/2/4 319/2/4 325/2/4
f 324/2/4 323/2/4 325/2/4
f 322/2/4 324/2/4 328/2/4
f 326/2/4 327/2/4 329/2/4
f 327/2/4 328/2/4 329/2/4
f 328/2/4 324/2/4 330/2/4
f 329/2/4 328/2/4 330/2/4
f 332/1/4 333/1/4 334/1/4
f 332/1/4 334/1/4 336/1/4
f 334/1/4 335/1/4 336/1/4
f 336/1/4 335/1/4 337/1/4
f 331/2/4 332/2/4 338/2/4
f 332/1/4 336/1/4 339/1/4
f 338/2/4 332/2/4 339/2/4
f 339/1/4 336/1/4 340/1/4
f 344/2/5 342/2/5 341/2/5
f 345/2/5 342/2/5 344/2/5
f 348/2/5 344/2/5 343/2/5
f 348/2/5 346/2/5 345/2/5
f 348/2/5 345/2/5 344/2/5
f 349/2/5 346/2/5 348/2/5
f 352/2/5 348/2/5 347/2/5
f 352/2/5 350/2/5 349/2/5
f 352/2/5 349/2/5 348/2/5
f 353/2/5 350/2/5 352/2/5
f 355/2/5 352/2/5 351/2/5
f 355/2/5 354/2/5 353/2/5
f 355/2/5 353/2/5 352/2/5
f 356/2/5 354/2/5 355/2/5
f 357/2/5 354/2/5 356/2/5
f 358/2/5 354/2/5 357/2/5
f 359/2/5 357/2/5 356/2/5
f 360/2/5 357/2/5 359/2/5
f 361/2/5 357/2/5 360/2/5
f 362/2/5 357/2/5 361/2/5
f 363/2/5 361/2/5 360/2/5
f 364/2/5 361/2/5 363/2/5
f 365/2/5 361/2/5 364/2/5
f 366/2/5 361/2/5 365/2/5
f 367/2/5 365/2/5 364/2/5
f 368/2/5 365/2/5 367/2/5
f 369/1/6 370/1/6 374/1/6
f 371/1/6 372/1/6 375/1/6
f 373/1/6 374/1/6 378/1/6
f 375/1/6 376/1/6 379/1/6
f 377/1/6 378/1/6 381/1/6
f 378/1/6 374/1/6 382/1/6
f 381/1/6 378/1/6 382/1/6
f 379/1/6 380/1/6 383/1/6
f 375/1/6 379/1/6 383/1/6
f 383/1/6 380/1/6 384/1/6
f 382/1/6 374/1/6 385/1/6
f 374/1/6 370/1/6 386/1/6
f 385/1/6 374/1/6 386/1/6
f 371/1/6 375/1/6 387/1/6
f 375/1/6 383/1/6 387/1/6
f 387/1/6 383/1/6 388/1/6
f 386/1/6 370/1/6 389/1/6
f 389/1/6 370/1/6 390/1/6
f 371/1/6 387/1/6 391/1/6
f 391/1/6 387/1/6 392/1/6
f 393/2/6 394/2/6 397/2/6
f 397/2/6 394/2/6 398/2/6
f 395/2/6 396/2/6 399/2/6
f 399/2/6 396/2/6 400/2/6
f 401/1/6 402/1/6 405/1/6
f 405/1/6 402/1/6 406/1/6
f 403/1/6 404/1/6 407/1/6
f 407/1/6 404/1/6 408/1/6
f 409/1/6 410/1/6 413/1/6
f 411/1/6 412/1/6 413/1/6
f 410/1/6 411/1/6 413/1/6
f 413/1/6 412/1/6 414/1/6
f 414/1/6 412/1/6 415/1/6
f 415/1/6 412/1/6 416/1/6
f 417/1/6 418/1/6 421/1/6
f 421/1/6 418/1/6 422/1/6
f 419/1/6 420/1/6 423/1/6
f 423/1/6 420/1/6 424/1/6
f 425/2/6 426/2/6 429/2/6
f 429/2/6 426/2/6 430/2/6
f 427/2/6 428/2/6 431/2/6
f 431/2/6 428/2/6 432/2/6
f 433/2/6 434/2/6 437/2/6
f 437/2/6 434/2/6 438/2/6
f 435/2/6 436/2/6 439/2/6
f 439/2/6 436/2/6 440/2/6
f 441/1/6 442/1/6 443/1/6
f 443/1/6 442/1/6 444/1/6
f 445/1/6 446/1/6 447/1/6
f 447/1/6 446/1/6 448/1/6
f 449/2/6 450/2/6 451/2/6
f 451/2/6 450/2/6 452/2/6
f 453/2/6 454/2/6 455/2/6
f 455/2/6 454/2/6 456/2/6
